<svg width="15" height="15" viewBox="0 0 15 15" fill="none" xmlns="http://www.w3.org/2000/svg">
<path fill-rule="evenodd" clip-rule="evenodd" d="M8.59541 0.0593146C8.76172 0.146801 8.8237 0.293004 8.8237 0.597948V0.847722L9.00755 0.940043C9.10865 0.990848 9.26802 1.08417 9.36168 1.14745L9.53197 1.26251L9.74408 1.13975C10.0127 0.984255 10.1565 0.963512 10.3223 1.0563C10.4517 1.12873 10.4417 1.11323 11.1429 2.32984C11.2921 2.58861 11.4219 2.84814 11.4315 2.90662C11.444 2.9835 11.4307 3.05013 11.3834 3.14737C11.3291 3.25927 11.2808 3.30333 11.096 3.41004L10.8739 3.53825V3.95506V4.37184L11.0337 4.46337C11.2788 4.60374 11.3189 4.63858 11.3905 4.77344C11.4562 4.89726 11.4742 4.90716 13.1628 5.75217C14.801 6.57202 14.8712 6.61046 14.9343 6.72303C15.0177 6.87184 15.0177 7.0137 14.9343 7.16251C14.8739 7.27033 14.8151 7.30666 14.1996 7.61665C13.8317 7.80196 13.5306 7.96018 13.5306 7.96823C13.5306 7.97629 13.8317 8.13451 14.1996 8.31982C14.8151 8.62981 14.8739 8.66614 14.9343 8.77396C15.0177 8.92277 15.0177 9.06463 14.9343 9.21344C14.8739 9.32126 14.8151 9.35759 14.1996 9.66758C13.8317 9.85289 13.5306 10.0111 13.5306 10.0192C13.5306 10.0272 13.8317 10.1854 14.1996 10.3708C14.8151 10.6807 14.8739 10.7171 14.9343 10.8249C14.9704 10.8893 15 10.9882 15 11.0446C15 11.101 14.9704 11.1999 14.9343 11.2644C14.8703 11.3786 14.7755 11.428 11.2426 13.1908C8.27351 14.6722 7.59551 15 7.5 15C7.40449 15 6.72649 14.6722 3.75737 13.1908C0.2245 11.428 0.129723 11.3786 0.0656853 11.2644C0.029563 11.1999 0 11.101 0 11.0446C0 10.9882 0.029563 10.8893 0.0656853 10.8249C0.126134 10.7171 0.184907 10.6807 0.800398 10.3708C1.16833 10.1854 1.46937 10.0272 1.46937 10.0192C1.46937 10.0111 1.16833 9.85289 0.800398 9.66758C0.184907 9.35759 0.126134 9.32126 0.0656853 9.21344C0.029563 9.14898 0 9.0501 0 8.9937C0 8.9373 0.029563 8.83842 0.0656853 8.77396C0.126134 8.66614 0.184907 8.62981 0.800398 8.31982C1.16833 8.13451 1.46937 7.97629 1.46937 7.96823C1.46937 7.96018 1.16833 7.80196 0.800398 7.61665C0.184907 7.30666 0.126134 7.27033 0.0656853 7.16251C0.029563 7.09805 0 6.99917 0 6.94277C0 6.88637 0.029563 6.78748 0.0656853 6.72303C0.128811 6.61046 0.198967 6.57202 1.83662 5.7525L3.54181 4.89916L3.61709 4.76008C3.67789 4.64778 3.7341 4.59685 3.90924 4.49557L4.12612 4.37011V3.95339V3.5367L3.95395 3.43948C3.64683 3.26609 3.53066 3.09947 3.57029 2.88904C3.58008 2.83707 3.79049 2.44566 4.03785 2.0193C4.59598 1.0573 4.54812 1.12885 4.68466 1.05238C4.84292 0.963805 4.99109 0.986482 5.25592 1.13975L5.46803 1.26251L5.63832 1.14745C5.73198 1.08417 5.89132 0.990848 5.99245 0.940043L6.1763 0.847722V0.597948C6.1763 0.287818 6.23801 0.145717 6.41086 0.0578789C6.52049 0.00218149 6.58138 -0.0010414 7.50618 0.000189161C8.42297 0.00141972 8.49245 0.00516999 8.59541 0.0593146ZM7.05877 1.0546C7.05877 1.37411 6.96664 1.49567 6.62859 1.62215C6.38218 1.71433 6.12847 1.86112 5.93365 2.02422C5.65479 2.25765 5.49792 2.28279 5.225 2.13773C5.13405 2.08939 5.05436 2.04983 5.04795 2.04983C5.03421 2.04983 4.61727 2.76634 4.61727 2.78995C4.61727 2.79877 4.69049 2.84718 4.77994 2.89745C4.86942 2.94776 4.96964 3.03141 5.00265 3.08338C5.05654 3.16823 5.06027 3.20316 5.03942 3.42689C5.0105 3.73661 5.01085 4.15535 5.04027 4.48165C5.06021 4.70277 5.05621 4.74095 5.00447 4.82225C4.97241 4.87259 4.87219 4.95597 4.78174 5.00751C4.69128 5.05905 4.61727 5.10874 4.61727 5.11794C4.61727 5.14961 5.03633 5.8587 5.05474 5.85821C5.06492 5.85794 5.1394 5.81859 5.22029 5.77081C5.32437 5.70931 5.40608 5.68382 5.49974 5.68358C5.65417 5.68323 5.74192 5.72381 5.93365 5.88431C6.12847 6.04742 6.38218 6.19421 6.62859 6.28638C6.96664 6.41287 7.05877 6.53443 7.05877 6.85393V7.03067H7.5H7.94123V6.85393C7.94123 6.52652 8.02739 6.41893 8.41077 6.26763C8.65103 6.17282 8.95481 5.98701 9.18375 5.7948C9.26976 5.72258 9.32865 5.69955 9.45358 5.68924C9.59221 5.67778 9.63463 5.68813 9.77368 5.76738C9.86184 5.8176 9.94064 5.8587 9.94882 5.8587C9.9647 5.8587 10.3827 5.14568 10.3827 5.11858C10.3827 5.10976 10.3095 5.06136 10.2201 5.01108C10.1306 4.96078 10.0304 4.87713 9.99735 4.82515C9.94346 4.7403 9.93973 4.70538 9.96058 4.48165C9.97338 4.34468 9.98382 4.10736 9.98382 3.95427C9.98382 3.80118 9.97338 3.56386 9.96058 3.42689C9.93973 3.20316 9.94346 3.16823 9.99735 3.08338C10.0304 3.03141 10.1306 2.94776 10.2201 2.89745C10.3095 2.84718 10.3827 2.79877 10.3827 2.78995C10.3827 2.76634 9.96579 2.04983 9.95205 2.04983C9.94564 2.04983 9.86451 2.0905 9.77179 2.14016C9.54653 2.26087 9.34842 2.25197 9.18375 2.11373C8.95481 1.92153 8.65103 1.73572 8.41077 1.64091C8.02739 1.4896 7.94123 1.38202 7.94123 1.0546V0.877871H7.5H7.05877V1.0546ZM7.80886 2.3713C8.39106 2.49984 8.84462 2.89915 9.03473 3.45062C9.13056 3.72855 9.13056 4.17999 9.03473 4.45792C8.8693 4.93775 8.50492 5.3029 8.01242 5.48242C7.76265 5.57345 7.23735 5.57345 6.98758 5.48242C6.49508 5.3029 6.1307 4.93775 5.96527 4.45792C5.86944 4.17999 5.86944 3.72855 5.96527 3.45062C6.13123 2.96921 6.50296 2.59772 6.98758 2.42893C7.18381 2.36061 7.62131 2.3299 7.80886 2.3713ZM7.24985 3.27031C6.97852 3.3624 6.76461 3.66391 6.76461 3.95427C6.76461 4.13123 6.85236 4.33621 6.98446 4.46776C7.27218 4.75437 7.72782 4.75437 8.01554 4.46776C8.30352 4.18093 8.30331 3.72738 8.01501 3.44025C7.81072 3.23674 7.53147 3.17474 7.24985 3.27031ZM10.9259 5.95393C10.509 6.68168 10.4374 6.78781 10.3182 6.85455C10.1569 6.94485 10.0105 6.92299 9.74408 6.76879L9.53197 6.64603L9.36168 6.76109C9.26802 6.82437 9.10865 6.91769 9.00755 6.96849L8.8237 7.06081V7.31059C8.8237 7.62072 8.76199 7.76282 8.58914 7.85066C8.47972 7.90624 8.41718 7.90964 7.5 7.90964C6.58282 7.90964 6.52028 7.90624 6.41086 7.85066C6.23801 7.76282 6.1763 7.62072 6.1763 7.31059V7.06081L5.99245 6.96849C5.89132 6.91769 5.73198 6.82437 5.63832 6.76109L5.46803 6.64603L5.25592 6.76879C4.98953 6.92299 4.84313 6.94485 4.68184 6.85455C4.56262 6.78781 4.49099 6.68168 4.07406 5.95393C3.99787 5.821 3.93016 5.71221 3.92354 5.71221C3.89624 5.71221 1.46981 6.929 1.46981 6.94268C1.46981 6.95085 2.8266 7.63323 4.4849 8.45905L7.5 9.96054L10.5151 8.45905C12.1734 7.63323 13.5302 6.95085 13.5302 6.94268C13.5302 6.92762 11.1199 5.7169 11.0839 5.71385C11.0732 5.71294 11.0021 5.821 10.9259 5.95393ZM10.0584 9.68223C8.09011 10.6617 7.59266 10.8981 7.5 10.8981C7.40734 10.8981 6.90998 10.6618 4.94196 9.68243L2.49897 8.46673L1.98438 8.72251C1.70137 8.86317 1.46981 8.98506 1.46981 8.99338C1.46981 9.0017 2.8266 9.68416 4.4849 10.51L7.5 12.0115L10.5151 10.51C12.1734 9.68416 13.5302 9.00167 13.5302 8.99338C13.5302 8.98224 12.5504 8.47839 12.5086 8.46799C12.5049 8.46708 11.4023 9.01348 10.0584 9.68223ZM10.0584 11.7332C8.09011 12.7127 7.59266 12.9491 7.5 12.9491C7.40734 12.9491 6.90998 12.7127 4.94196 11.7334L2.49897 10.5177L1.98438 10.7734C1.70137 10.9141 1.46981 11.036 1.46981 11.0443C1.46981 11.0526 2.8266 11.7351 4.4849 12.5609L7.5 14.0624L10.5151 12.5609C12.1734 11.7351 13.5302 11.0526 13.5302 11.0443C13.5302 11.0332 12.5504 10.5293 12.5086 10.5189C12.5049 10.518 11.4023 11.0644 10.0584 11.7332Z" fill="#410EAD"/>
</svg>
