<svg width="15" height="15" viewBox="0 0 15 15" fill="none" xmlns="http://www.w3.org/2000/svg">
<path fill-rule="evenodd" clip-rule="evenodd" d="M7.33992 0.0502262C6.69897 0.233439 6.27617 0.889021 6.3832 1.53377C6.40156 1.64443 6.45669 1.81627 6.50569 1.91566C6.55468 2.01504 6.59479 2.10253 6.59479 2.11009C6.59479 2.11764 6.53869 2.14034 6.4701 2.16053C6.22002 2.23413 6.02512 2.3776 5.61195 2.79224C5.04672 3.35948 4.6216 3.63417 3.95433 3.86331C3.63806 3.97192 3.53943 4.02874 3.40509 4.17976L3.31059 4.28597L2.96501 3.94295C2.76489 3.7443 2.57352 3.58097 2.51035 3.55485C2.37023 3.49694 2.10533 3.49706 1.96571 3.55511C1.83419 3.6098 0.202503 5.21961 0.0943327 5.40138C0.0020927 5.55645 -0.0244879 5.75551 0.0233924 5.93315C0.0580117 6.06159 0.155679 6.16763 1.25091 7.26582C1.92649 7.94322 2.48527 8.47997 2.54362 8.50762C2.68873 8.57637 2.87491 8.59101 3.0375 8.54646C3.15794 8.51345 3.24003 8.44637 3.64243 8.05204C3.94978 7.75087 4.10046 7.6207 4.08585 7.66903C4.07368 7.70931 3.98508 7.94656 3.88896 8.19626C3.68729 8.72024 3.68477 8.80035 3.86631 8.92235C3.99358 9.00788 4.1139 8.99235 4.21838 8.87695C4.26546 8.82493 4.46447 8.34219 4.77449 7.528L5.25725 6.26007L6.43211 6.26932C7.47922 6.27758 7.61899 6.28417 7.71763 6.33007C8.00902 6.46566 8.19141 6.75391 8.18493 7.06858C8.17953 7.33181 7.50533 9.71185 7.41565 9.78434C7.2872 9.88818 7.07186 9.8233 7.02175 9.66565C7.01201 9.63502 7.0836 9.11212 7.18082 8.50364C7.27805 7.89518 7.35759 7.3454 7.35759 7.28196C7.35759 7.1935 7.33758 7.14661 7.27183 7.08097L7.18607 6.99535H6.73071C6.29955 6.99535 6.27148 6.99886 6.20268 7.06125C6.16231 7.09787 5.61342 8.14905 4.96768 9.42647C4.32842 10.6911 3.77801 11.7488 3.74459 11.777C3.65082 11.8561 3.44097 11.8457 3.35275 11.7576C3.23117 11.6362 3.23287 11.565 3.36586 11.2108C3.47553 10.9187 3.48445 10.8758 3.4544 10.7849C3.37319 10.5392 3.02586 10.5206 2.91772 10.7561C2.89474 10.8061 2.83211 10.9591 2.77853 11.096C2.5692 11.6309 2.69383 12.0618 3.13285 12.3214C3.25094 12.3912 3.29427 12.3995 3.54359 12.3995C3.78302 12.3995 3.84255 12.3892 3.96598 12.3262C4.04501 12.286 4.15539 12.2003 4.21125 12.1358C4.27124 12.0667 4.76794 11.1198 5.42433 9.8235C6.03563 8.61617 6.54746 7.61669 6.56172 7.60245C6.57598 7.58822 6.61996 7.5809 6.65948 7.5862L6.73133 7.59581L6.57094 8.60156C6.39141 9.72728 6.39127 9.77728 6.56633 10.0529C6.63897 10.1673 6.83346 10.3266 6.95817 10.3739C6.97616 10.3808 6.24164 11.1364 5.3259 12.053L3.66095 13.7197V13.8495C3.66095 13.9785 3.66394 13.9823 4.17214 14.4896L4.6833 15L4.80861 14.9832C4.92687 14.9674 4.98296 14.9174 5.80834 14.092L6.6828 13.2176V13.0919C6.6828 12.9216 6.56228 12.7949 6.4003 12.7949C6.29442 12.7949 6.25499 12.8291 5.5394 13.5416L4.78948 14.2882L4.57718 14.0763L4.36486 13.8643L7.05625 11.1772L9.74764 8.49008L10.3073 9.04613C10.8642 9.59949 10.8676 9.60221 10.9963 9.60221H11.1257L12.0728 8.65665L13.0199 7.71106V7.57817C13.0199 7.46804 13.0019 7.42425 12.9149 7.32279C12.8421 7.23793 12.8219 7.19628 12.8489 7.18717C12.8703 7.17997 13.2146 7.10938 13.614 7.03032C14.074 6.93929 14.3396 6.89848 14.3388 6.91902C14.338 6.93683 14.2683 7.28445 14.1838 7.69147L14.0302 8.43153L13.9138 8.31149C13.7603 8.15315 13.6513 8.09805 13.5366 8.12072C13.4658 8.13469 13.17 8.41348 12.2209 9.36051L10.9965 10.5823L10.4606 10.0503C10.1658 9.75766 9.88562 9.50347 9.83783 9.48537C9.79006 9.4673 9.71745 9.46056 9.67647 9.4704C9.6314 9.48124 9.24578 9.84321 8.69979 10.3872C7.73092 11.3526 7.71402 11.3748 7.81004 11.5603C7.8681 11.6723 7.93764 11.7111 8.08051 11.7111C8.1861 11.7111 8.22668 11.6758 8.96246 10.9431L9.73373 10.1751L10.2839 10.7203C10.8594 11.2904 10.9406 11.3459 11.0892 11.2707C11.1264 11.2518 11.7008 10.6948 12.3655 10.0329L13.5741 8.8295L13.8197 9.06488C13.9547 9.19431 14.1006 9.3091 14.1438 9.31991C14.265 9.35031 14.4231 9.27076 14.4685 9.15658C14.4895 9.10366 14.6235 8.48038 14.7662 7.77155C15.0071 6.57497 15.0227 6.47647 14.9836 6.39489C14.9605 6.34656 14.8954 6.28482 14.8389 6.25767C14.7375 6.20895 14.7188 6.2118 13.3903 6.47863C12.1117 6.73545 12.0409 6.753 11.9747 6.82986C11.84 6.98621 11.89 7.14795 12.1525 7.4048L12.3165 7.56529L11.6493 8.23188L10.9821 8.89851L10.4387 8.35915C9.88691 7.81144 9.81462 7.75995 9.65332 7.79976C9.60206 7.81238 9.33341 8.05661 8.91678 8.46928C8.55603 8.82657 8.26843 9.09256 8.27761 9.06034C8.50674 8.2576 8.74708 7.3599 8.76856 7.22686C8.85179 6.71079 8.54312 6.11156 8.06218 5.85562L7.88893 5.76344L7.95603 5.58123C7.99294 5.481 8.07963 5.23753 8.14873 5.0402L8.27429 4.68139H8.6189C9.37504 4.68139 10.076 4.45823 10.6875 4.02273C11.1512 3.69251 11.2723 3.51662 11.2725 3.17293C11.2729 2.70565 10.9415 2.36459 10.4845 2.36196C10.2566 2.36067 10.1045 2.42382 9.83193 2.63292C9.46599 2.91368 9.13253 3.01707 8.78783 2.95667C8.57883 2.92003 8.28183 2.78421 8.18446 2.68073L8.11857 2.61069L8.30507 2.51904C8.54752 2.39986 8.79596 2.14122 8.92088 1.87793C9.01078 1.68842 9.01521 1.66264 9.01521 1.32762C9.01521 0.992827 9.01075 0.96667 8.92097 0.776809C8.6397 0.181946 7.9646 -0.1283 7.33992 0.0502262ZM7.94811 0.625464C8.24974 0.728069 8.44311 1.00498 8.44311 1.3343C8.44311 1.55509 8.39757 1.67591 8.25502 1.83347C7.90868 2.21621 7.27165 2.12781 7.03472 1.66417C6.82606 1.25586 7.05308 0.745028 7.5041 0.608066C7.62627 0.570984 7.80896 0.578131 7.94811 0.625464ZM7.3154 2.74622C7.38094 2.77504 7.53277 2.88708 7.65279 2.99519C8.08494 3.38443 8.46344 3.5453 8.95653 3.54937C9.41805 3.55318 9.75131 3.43024 10.2012 3.09027C10.4259 2.9205 10.5316 2.90498 10.6362 3.02636C10.7616 3.17196 10.7013 3.29126 10.3886 3.51601C10.1099 3.71638 9.75266 3.88993 9.39661 3.99795C9.14928 4.073 9.0948 4.07836 8.53599 4.08278C7.97713 4.08717 7.93564 4.09124 7.87931 4.14751C7.84496 4.18181 7.70918 4.51933 7.56246 4.93508L7.30575 5.66263L6.37818 5.67036C5.68418 5.67616 5.45059 5.66945 5.45059 5.64376C5.45059 5.54347 6.05622 3.29838 6.11487 3.18122C6.23686 2.93758 6.46356 2.75788 6.73368 2.69074C6.8811 2.65407 7.16812 2.68146 7.3154 2.74622ZM5.21931 4.17417L5.14254 4.48708L4.87849 4.61022C4.55627 4.76048 4.12209 4.91572 4.02401 4.91572C3.92493 4.91572 3.80764 4.7922 3.80764 4.68784C3.80764 4.56616 3.90055 4.49885 4.21838 4.39027C4.50542 4.29218 4.97607 4.06482 5.15721 3.93674C5.21368 3.89681 5.26805 3.86348 5.27799 3.86269C5.28794 3.8619 5.26153 4.00206 5.21931 4.17417ZM3.4072 5.2054C4.36879 6.16675 4.51326 6.32249 4.48717 6.3697C4.47063 6.39967 4.33074 6.54917 4.17633 6.70192L3.89556 6.97962L3.57446 6.66003L3.25338 6.34044L3.33937 6.24264C3.54221 6.012 3.50771 5.92281 3.03269 5.45027C2.64906 5.06861 2.64041 5.06217 2.51182 5.06217C2.40479 5.06217 2.36571 5.07813 2.29671 5.15004C2.25033 5.19837 2.1981 5.23791 2.18062 5.23791C2.16316 5.23791 2.02369 5.11231 1.87072 4.9588L1.59259 4.67972L1.88879 4.38764C2.0559 4.22285 2.2094 4.09558 2.24102 4.09558C2.2757 4.09558 2.72077 4.51915 3.4072 5.2054ZM1.49914 5.40821C1.77202 5.68167 1.78449 5.69959 1.7553 5.77625C1.70586 5.90603 1.72012 6.1478 1.78569 6.29237C1.86452 6.46619 2.10114 6.68531 2.27321 6.74383C2.43319 6.79825 2.54656 6.80206 2.70443 6.7583L2.81873 6.72661L3.15181 7.05821L3.48489 7.38981L3.1847 7.6905C3.01961 7.85591 2.86455 7.99123 2.84014 7.99123C2.78434 7.99123 0.580412 5.79482 0.580412 5.73922C0.580412 5.69121 1.13397 5.12075 1.18056 5.12075C1.19801 5.12075 1.34136 5.2501 1.49914 5.40821ZM4.90616 5.37704C4.88456 5.45358 4.85197 5.57408 4.83375 5.64485L4.80063 5.77349L4.62762 5.60258C4.53247 5.50856 4.46159 5.4247 4.4701 5.41618C4.48538 5.40094 4.89014 5.245 4.9266 5.24031C4.93696 5.239 4.92775 5.30051 4.90616 5.37704ZM2.67277 6.09291C2.55515 6.21546 2.49548 6.22319 2.39664 6.12864C2.28803 6.02475 2.28946 5.9809 2.40538 5.86151L2.49938 5.76468L2.62524 5.88799L2.75107 6.0113L2.67277 6.09291ZM3.45229 9.52752C3.35342 9.58303 3.29697 9.72002 3.32077 9.84667C3.36832 10.0997 3.71437 10.1485 3.84895 9.9211C3.99162 9.67995 3.69862 9.38921 3.45229 9.52752ZM7.08621 12.0064C7.01882 12.0456 6.94685 12.187 6.94685 12.2804C6.94685 12.3212 6.98511 12.3974 7.03187 12.4496C7.10222 12.5282 7.13813 12.5446 7.24023 12.5446C7.34233 12.5446 7.37824 12.5282 7.44859 12.4496C7.49536 12.3974 7.53362 12.3212 7.53362 12.2804C7.53362 12.1833 7.45971 12.0429 7.38854 12.0049C7.31695 11.9667 7.15316 11.9675 7.08621 12.0064Z" fill="#410EAD"/>
</svg>
