<svg width="15" height="12" viewBox="0 0 15 12" fill="none" xmlns="http://www.w3.org/2000/svg">
<path fill-rule="evenodd" clip-rule="evenodd" d="M7.05255 0.0166387C6.06026 0.191163 5.23917 0.923481 4.97122 1.87298C4.88342 2.1841 4.87705 2.7692 4.95813 3.0769C5.1209 3.69463 5.50294 4.23653 6.0157 4.57697C6.22133 4.71351 6.60913 4.88287 6.86888 4.94959C7.20147 5.03502 7.79853 5.03502 8.13111 4.94959C8.39087 4.88287 8.77867 4.71351 8.9843 4.57697C9.49706 4.23653 9.8791 3.69463 10.0419 3.0769C10.1229 2.7692 10.1166 2.1841 10.0288 1.87298C9.7854 1.01053 9.13999 0.368946 8.23386 0.0887035C8.0243 0.0238906 7.92088 0.00998181 7.58806 0.00185187C7.37011 -0.003502 7.12914 0.0031549 7.05255 0.0166387ZM7.90794 0.882577C8.20333 0.949797 8.48463 1.10642 8.72081 1.33522C9.55098 2.13946 9.32686 3.48713 8.28015 3.98493C7.74599 4.239 7.25401 4.239 6.71985 3.98493C5.86565 3.57866 5.53019 2.58023 5.96566 1.74021C6.17113 1.34386 6.63393 0.987784 7.07862 0.883908C7.30723 0.830511 7.67636 0.829916 7.90794 0.882577ZM2.46575 2.3805C2.085 2.47202 1.7759 2.65201 1.48732 2.95022C0.717065 3.7461 0.829579 5.04457 1.72556 5.69978C1.93441 5.85249 2.24539 5.99846 2.48043 6.05404C2.68682 6.10285 3.15244 6.10319 3.36106 6.05469C3.58934 6.00161 3.96252 5.82198 4.16184 5.66921C4.46046 5.44038 4.73797 5.01097 4.83032 4.6349C4.8836 4.41791 4.87779 3.97963 4.81867 3.75675C4.64254 3.09273 4.06421 2.53788 3.38783 2.38404C3.16245 2.33277 2.67208 2.3309 2.46575 2.3805ZM11.599 2.3837C10.9267 2.54698 10.3554 3.10032 10.1813 3.75675C10.1222 3.97963 10.1164 4.41791 10.1697 4.6349C10.262 5.01097 10.5395 5.44038 10.8382 5.66921C11.0375 5.82198 11.4107 6.00161 11.6389 6.05469C11.8476 6.10319 12.3132 6.10285 12.5196 6.05404C12.7546 5.99846 13.0656 5.85249 13.2744 5.69978C14.0037 5.16652 14.2334 4.1784 13.8184 3.36017C13.7353 3.19618 13.6502 3.08944 13.4454 2.89234C13.1769 2.63391 13.0103 2.53276 12.6517 2.41027C12.4501 2.34146 11.8366 2.32597 11.599 2.3837ZM3.22603 3.22377C3.5211 3.29992 3.83768 3.5935 3.9381 3.88405C4.00767 4.08546 3.99898 4.38236 3.91738 4.59102C3.82503 4.82713 3.55835 5.08587 3.31703 5.17348C2.93319 5.31286 2.50339 5.23609 2.20782 4.97542C1.62423 4.46071 1.79416 3.55118 2.52834 3.25989C2.72337 3.18253 3.00892 3.16771 3.22603 3.22377ZM12.4478 3.24989C13.1957 3.51993 13.3823 4.45491 12.7922 4.97542C12.4966 5.23609 12.0668 5.31286 11.683 5.17348C11.4417 5.08587 11.175 4.82713 11.0826 4.59102C11.001 4.38236 10.9923 4.08546 11.0619 3.88405C11.1584 3.60486 11.4778 3.30096 11.7535 3.22604C11.946 3.17375 12.2675 3.18479 12.4478 3.24989ZM5.69155 5.31178C5.12812 5.44548 4.59561 5.81997 4.32514 6.27264C4.26757 6.36901 4.22078 6.41785 4.1951 6.40833C4.04448 6.35255 3.56971 6.3308 2.73895 6.34159C1.89423 6.35258 1.80217 6.35864 1.5998 6.4168C1.21676 6.52685 0.941125 6.68704 0.644618 6.9719C0.351517 7.25347 0.194266 7.50491 0.0687769 7.89254C0.000499018 8.10347 0 8.11522 0 9.52136C0 11.0791 0.00102741 11.0898 0.180117 11.38C0.349403 11.6543 0.632113 11.865 0.952016 11.9551C1.09538 11.9955 1.75482 12 7.5 12C13.2452 12 13.9046 11.9955 14.048 11.9551C14.3679 11.865 14.6506 11.6543 14.8199 11.38C14.999 11.0898 15 11.0791 15 9.52136C15 8.11522 14.9995 8.10347 14.9312 7.89254C14.8057 7.50491 14.6485 7.25347 14.3554 6.9719C14.0589 6.68704 13.7832 6.52685 13.4002 6.4168C13.1978 6.35864 13.1058 6.35258 12.261 6.34159C11.4303 6.3308 10.9555 6.35255 10.8049 6.40833C10.7792 6.41785 10.7324 6.36901 10.6749 6.27264C10.4725 5.93399 10.1276 5.63851 9.72297 5.45727C9.28427 5.26076 9.25115 5.25784 7.47954 5.26019C6.07999 5.26204 5.87645 5.2679 5.69155 5.31178ZM9.14583 6.15358C9.39484 6.22485 9.55623 6.31561 9.72678 6.48017C9.8973 6.64475 9.99135 6.80049 10.0652 7.04079C10.1067 7.17586 10.1125 7.4361 10.1125 9.17242V11.1502H7.5H4.88748V9.17242C4.88748 7.03094 4.88469 7.07243 5.04901 6.75945C5.13147 6.60234 5.39034 6.34845 5.54795 6.27009C5.8677 6.11112 5.86799 6.11109 7.48732 6.10945C8.78357 6.10812 9.00798 6.11409 9.14583 6.15358ZM3.97016 7.22144C3.99892 7.2394 4.00685 7.66603 4.00685 9.19727V11.1502H2.58751H1.16818L1.06843 11.0859C0.864657 10.9545 0.866037 10.9647 0.866008 9.60311C0.865979 8.89068 0.878425 8.31833 0.89592 8.22938C0.995548 7.72241 1.43392 7.30163 1.95205 7.21566C2.14535 7.18359 3.91767 7.18866 3.97016 7.22144ZM13.0186 7.21416C13.5627 7.29789 14.0017 7.70847 14.1041 8.22938C14.1216 8.31833 14.134 8.89068 14.134 9.60311C14.134 10.9647 14.1353 10.9545 13.9316 11.0859L13.8318 11.1502H12.4123H10.9927L11.0003 9.18851L11.0078 7.22685L11.1106 7.20934C11.2864 7.17934 12.8176 7.18322 13.0186 7.21416Z" fill="#410EAD"/>
</svg>
