<svg width="15" height="13" viewBox="0 0 15 13" fill="none" xmlns="http://www.w3.org/2000/svg">
<path fill-rule="evenodd" clip-rule="evenodd" d="M5.48168 0.0280702C5.10747 0.100535 4.72898 0.390106 4.5697 0.72582C4.4618 0.953212 4.42383 1.14804 4.42383 1.47431V1.73042H2.38436H0.344883L0.228018 1.7952C0.159434 1.83322 0.0881836 1.90436 0.0555762 1.9674C0.00166992 2.07162 0 2.21985 0 6.92617C0 10.1052 0.0103125 11.8311 0.0299121 11.933C0.129697 12.4519 0.554619 12.871 1.08079 12.9694C1.29888 13.0102 13.7011 13.0102 13.9192 12.9694C14.1681 12.9229 14.4269 12.7878 14.6064 12.6107C14.7859 12.4337 14.9229 12.1784 14.9701 11.933C14.9897 11.8311 15 10.1075 15 6.93342V2.08939L14.9341 1.96047C14.81 1.71776 14.9383 1.73051 12.6196 1.73048L10.5762 1.73042V1.47431C10.5762 1.33348 10.5627 1.14824 10.5463 1.06272C10.4465 0.543791 10.0216 0.124719 9.49538 0.0263076C9.30211 -0.00983818 5.66921 -0.00824901 5.48168 0.0280702ZM9.46365 0.921776C9.63855 1.00979 9.69727 1.14738 9.69727 1.46922V1.73042H7.5H5.30273V1.46922C5.30273 1.15252 5.36171 1.01088 5.53011 0.923192C5.63575 0.868208 5.70565 0.866127 7.49385 0.864885C9.29569 0.863643 9.3513 0.865261 9.46365 0.921776ZM13.9381 2.63334C13.9307 2.65322 13.6182 3.57683 13.2437 4.68585C12.7651 6.10317 12.5413 6.72741 12.4904 6.78702C12.4506 6.83363 12.3695 6.88509 12.3101 6.90135C12.2443 6.91941 11.7136 6.931 10.9497 6.93108L9.69727 6.93126V6.67006C9.69727 6.34821 9.63855 6.21062 9.46365 6.12261C9.35139 6.06616 9.29435 6.06445 7.5 6.06445C5.70565 6.06445 5.64861 6.06616 5.53635 6.12261C5.36145 6.21062 5.30273 6.34821 5.30273 6.67006V6.93126L4.05029 6.93108C3.28641 6.931 2.75572 6.91941 2.68986 6.90135C2.63048 6.88509 2.54936 6.83363 2.50957 6.78702C2.45874 6.72741 2.23494 6.10317 1.75629 4.68585C1.38179 3.57683 1.06931 2.65322 1.06189 2.63334C1.05114 2.60451 2.35107 2.59723 7.5 2.59723C12.6489 2.59723 13.9489 2.60451 13.9381 2.63334ZM1.66901 7.10332C1.76481 7.28783 2.02441 7.54432 2.20822 7.63603C2.52243 7.79281 2.5725 7.79734 3.9917 7.79772L5.30273 7.79806V8.05926C5.30273 8.38111 5.36145 8.5187 5.53635 8.60671C5.64861 8.66317 5.70565 8.66487 7.5 8.66487C9.29435 8.66487 9.35139 8.66317 9.46365 8.60671C9.63855 8.5187 9.69727 8.38111 9.69727 8.05926V7.79806L11.0083 7.79772C12.4275 7.79734 12.4776 7.79281 12.7918 7.63603C12.9756 7.54432 13.2352 7.28783 13.331 7.10332C13.3678 7.03253 13.5595 6.50002 13.7572 5.91998L14.1165 4.86537L14.1188 8.32653C14.1211 11.7406 14.1203 11.7892 14.0621 11.9017C14.0242 11.9751 13.9619 12.0365 13.8875 12.0739C13.7727 12.1317 13.728 12.1321 7.5 12.1321C1.27198 12.1321 1.22733 12.1317 1.11252 12.0739C1.03808 12.0365 0.97585 11.9751 0.937881 11.9017C0.879697 11.7892 0.878936 11.7406 0.881191 8.32653L0.883477 4.86537L1.24283 5.91998C1.44047 6.50002 1.63225 7.03253 1.66901 7.10332ZM8.81836 7.36466V7.79806H7.5H6.18164V7.36466V6.93126H7.5H8.81836V7.36466Z" fill="#410EAD"/>
</svg>
