<svg width="15" height="15" viewBox="0 0 15 15" fill="none" xmlns="http://www.w3.org/2000/svg">
<path fill-rule="evenodd" clip-rule="evenodd" d="M1.14861 0.053216C1.06518 0.0956006 1.00351 0.154957 0.965508 0.229467C0.909111 0.340059 0.908203 0.451502 0.908203 7.23125V14.1207H0.628711C0.406436 14.1207 0.325576 14.1327 0.233613 14.1797C0.103623 14.246 0 14.4149 0 14.5603C0 14.7058 0.103623 14.8746 0.233613 14.941C0.348545 14.9996 0.391113 15 7.5 15C14.6089 15 14.6515 14.9996 14.7664 14.941C14.8964 14.8746 15 14.7058 15 14.5603C15 14.4149 14.8964 14.246 14.7664 14.1797C14.6744 14.1327 14.5936 14.1207 14.3713 14.1207H14.0918V10.3532C14.0918 6.26895 14.1001 6.47914 13.9323 6.32376C13.8728 6.26866 13.2303 6.04255 11.3431 5.41252L8.83301 4.57459L8.81836 3.75419C8.8038 2.93839 8.8033 2.9332 8.73047 2.82668C8.68573 2.76123 8.60593 2.6975 8.52539 2.66292C8.13463 2.49502 1.46968 0.0131177 1.38035 0.00224306C1.30884 -0.00646249 1.23352 0.0100986 1.14861 0.053216ZM4.8999 2.23511L7.93945 3.37405V8.74736V14.1207H7.5H7.06055V12.9763C7.06055 11.8873 7.0577 11.8264 7.00157 11.7163C6.9636 11.6419 6.90138 11.5796 6.82693 11.5416C6.71467 11.4843 6.65763 11.4826 4.86328 11.4826C3.06894 11.4826 3.01189 11.4843 2.89963 11.5416C2.82519 11.5796 2.76296 11.6419 2.72499 11.7163C2.66886 11.8264 2.66602 11.8873 2.66602 12.9763V14.1207H2.22656H1.78711V7.59568C1.78711 2.38844 1.79449 1.07329 1.82373 1.08346C1.84389 1.09047 3.22816 1.60872 4.8999 2.23511ZM2.89339 4.50826C2.7697 4.57359 2.66602 4.74653 2.66602 4.88749C2.66602 5.03294 2.76964 5.2018 2.89963 5.26816C3.00287 5.32087 3.07187 5.32717 3.54492 5.32717C4.01798 5.32717 4.08697 5.32087 4.19022 5.26816C4.32021 5.2018 4.42383 5.03294 4.42383 4.88749C4.42383 4.74205 4.32021 4.57318 4.19022 4.50682C4.08647 4.45389 4.0195 4.44797 3.53877 4.44911C3.06334 4.45025 2.9906 4.45693 2.89339 4.50826ZM5.53011 4.50826C5.40642 4.57359 5.30273 4.74653 5.30273 4.88749C5.30273 5.03294 5.40636 5.2018 5.53635 5.26816C5.63959 5.32087 5.70858 5.32717 6.18164 5.32717C6.6547 5.32717 6.72369 5.32087 6.82693 5.26816C6.95692 5.2018 7.06055 5.03294 7.06055 4.88749C7.06055 4.74205 6.95692 4.57318 6.82693 4.50682C6.72319 4.45389 6.65622 4.44797 6.17549 4.44911C5.70006 4.45025 5.62731 4.45693 5.53011 4.50826ZM11.0596 6.24541L13.1982 6.95889L13.2057 10.5398L13.2131 14.1207H12.7736H12.334V12.9763C12.334 11.8873 12.3311 11.8264 12.275 11.7163C12.237 11.6419 12.1748 11.5796 12.1004 11.5416C11.9914 11.486 11.9291 11.4826 11.0156 11.4826C10.1021 11.4826 10.0399 11.486 9.93088 11.5416C9.85644 11.5796 9.79421 11.6419 9.75624 11.7163C9.70011 11.8264 9.69727 11.8873 9.69727 12.9763V14.1207H9.25781H8.81836V9.80988C8.81836 5.71766 8.82097 5.49993 8.86963 5.51552C8.89781 5.52455 9.8833 5.85302 11.0596 6.24541ZM2.89339 6.26696C2.7697 6.33229 2.66602 6.50523 2.66602 6.64619C2.66602 6.79163 2.76964 6.9605 2.89963 7.02686C3.00287 7.07956 3.07187 7.08586 3.54492 7.08586C4.01798 7.08586 4.08697 7.07956 4.19022 7.02686C4.32021 6.9605 4.42383 6.79163 4.42383 6.64619C4.42383 6.50075 4.32021 6.33188 4.19022 6.26552C4.08647 6.21258 4.0195 6.20666 3.53877 6.20781C3.06334 6.20895 2.9906 6.21563 2.89339 6.26696ZM5.53011 6.26696C5.40642 6.33229 5.30273 6.50523 5.30273 6.64619C5.30273 6.79163 5.40636 6.9605 5.53635 7.02686C5.63959 7.07956 5.70858 7.08586 6.18164 7.08586C6.6547 7.08586 6.72369 7.07956 6.82693 7.02686C6.95692 6.9605 7.06055 6.79163 7.06055 6.64619C7.06055 6.50075 6.95692 6.33188 6.82693 6.26552C6.72319 6.21258 6.65622 6.20666 6.17549 6.20781C5.70006 6.20895 5.62731 6.21563 5.53011 6.26696ZM2.89339 8.02565C2.7697 8.09099 2.66602 8.26393 2.66602 8.40489C2.66602 8.55033 2.76964 8.7192 2.89963 8.78556C3.00287 8.83826 3.07187 8.84456 3.54492 8.84456C4.01798 8.84456 4.08697 8.83826 4.19022 8.78556C4.32021 8.7192 4.42383 8.55033 4.42383 8.40489C4.42383 8.25944 4.32021 8.09058 4.19022 8.02422C4.08647 7.97128 4.0195 7.96536 3.53877 7.9665C3.06334 7.96765 2.9906 7.97433 2.89339 8.02565ZM5.53011 8.02565C5.40642 8.09099 5.30273 8.26393 5.30273 8.40489C5.30273 8.55033 5.40636 8.7192 5.53635 8.78556C5.63959 8.83826 5.70858 8.84456 6.18164 8.84456C6.6547 8.84456 6.72369 8.83826 6.82693 8.78556C6.95692 8.7192 7.06055 8.55033 7.06055 8.40489C7.06055 8.25944 6.95692 8.09058 6.82693 8.02422C6.72319 7.97128 6.65622 7.96536 6.17549 7.9665C5.70006 7.96765 5.62731 7.97433 5.53011 8.02565ZM9.92464 8.02565C9.80095 8.09099 9.69727 8.26393 9.69727 8.40489C9.69727 8.55033 9.80089 8.7192 9.93088 8.78556C10.0399 8.84116 10.1021 8.84456 11.0156 8.84456C11.9291 8.84456 11.9914 8.84116 12.1004 8.78556C12.2304 8.7192 12.334 8.55033 12.334 8.40489C12.334 8.25944 12.2304 8.09058 12.1004 8.02422C11.9912 7.9685 11.9305 7.96527 11.0095 7.9665C10.0964 7.96773 10.0272 7.97149 9.92464 8.02565ZM2.89339 9.78435C2.7697 9.84969 2.66602 10.0226 2.66602 10.1636C2.66602 10.309 2.76964 10.4779 2.89963 10.5443C3.00287 10.597 3.07187 10.6033 3.54492 10.6033C4.01798 10.6033 4.08697 10.597 4.19022 10.5443C4.32021 10.4779 4.42383 10.309 4.42383 10.1636C4.42383 10.0181 4.32021 9.84928 4.19022 9.78291C4.08647 9.72998 4.0195 9.72406 3.53877 9.7252C3.06334 9.72634 2.9906 9.73303 2.89339 9.78435ZM5.53011 9.78435C5.40642 9.84969 5.30273 10.0226 5.30273 10.1636C5.30273 10.309 5.40636 10.4779 5.53635 10.5443C5.63959 10.597 5.70858 10.6033 6.18164 10.6033C6.6547 10.6033 6.72369 10.597 6.82693 10.5443C6.95692 10.4779 7.06055 10.309 7.06055 10.1636C7.06055 10.0181 6.95692 9.84928 6.82693 9.78291C6.72319 9.72998 6.65622 9.72406 6.17549 9.7252C5.70006 9.72634 5.62731 9.73303 5.53011 9.78435ZM9.92464 9.78435C9.80095 9.84969 9.69727 10.0226 9.69727 10.1636C9.69727 10.309 9.80089 10.4779 9.93088 10.5443C10.0399 10.5999 10.1021 10.6033 11.0156 10.6033C11.9291 10.6033 11.9914 10.5999 12.1004 10.5443C12.2304 10.4779 12.334 10.309 12.334 10.1636C12.334 10.0181 12.2304 9.84928 12.1004 9.78291C11.9912 9.72719 11.9305 9.72397 11.0095 9.7252C10.0964 9.72643 10.0272 9.73018 9.92464 9.78435ZM4.42383 13.2413V14.1207H3.98438H3.54492V13.2413V12.362H3.98438H4.42383V13.2413ZM6.18164 13.2413V14.1207H5.74219H5.30273V13.2413V12.362H5.74219H6.18164V13.2413ZM11.4551 13.2413V14.1207H11.0156H10.5762V13.2413V12.362H11.0156H11.4551V13.2413Z" fill="#410EAD"/>
</svg>
