<svg width="15" height="15" viewBox="0 0 15 15" fill="none" xmlns="http://www.w3.org/2000/svg">
<path d="M5.98349 3.38831C6.26608 3.50489 6.38838 3.73261 6.47228 3.99501C6.53531 4.19306 6.6142 4.3861 6.68516 4.58206C6.88468 5.13319 6.82708 5.34921 6.37794 5.71648C6.49607 5.89156 6.61587 6.06747 6.73358 6.24463C6.85421 6.4268 6.83668 6.53502 6.66638 6.67416C6.63006 6.70383 6.59542 6.73642 6.55534 6.76065C6.30281 6.91358 6.1826 7.11205 6.15379 7.43128C6.0916 8.12279 5.68629 8.59202 5.04389 8.85317C4.98629 8.87657 4.9241 8.89077 4.86941 8.92044C4.82475 8.94467 4.75421 8.98729 4.75629 9.01696C4.76047 9.07337 4.79553 9.14482 4.84061 9.17741C5.20752 9.44357 5.58152 9.69928 5.8662 10.0615C6.18051 10.461 6.40007 10.9039 6.50692 11.4015C6.54407 11.5754 6.47145 11.7091 6.32326 11.7408C6.1851 11.7705 6.06572 11.6836 6.02565 11.5135C5.84658 10.7568 5.42666 10.1735 4.77633 9.75444C4.76548 9.76321 4.75337 9.76781 4.75254 9.77366C4.66739 10.3419 4.23787 10.6102 3.66852 10.448C3.3158 10.3478 3.05617 10.128 2.87919 9.79413C2.42504 10.2617 2.12159 10.7877 2.03226 11.4237C2.0093 11.5883 2.00095 11.7559 2.00054 11.9222C1.9972 12.7198 1.99928 13.517 1.99928 14.3147V14.4985H2.1963C3.5867 14.4985 4.97711 14.4985 6.36751 14.4985C6.41969 14.4985 6.4727 14.4935 6.52362 14.5019C6.65886 14.5232 6.73775 14.6051 6.74652 14.743C6.75445 14.8717 6.65552 14.9799 6.51986 14.9966C6.47353 15.002 6.42636 14.9991 6.37961 14.9991C4.87484 14.9991 3.36965 14.9991 1.86488 14.9991C1.56893 14.9991 1.50006 14.9289 1.50006 14.6293C1.50006 13.7118 1.50089 12.7946 1.50006 11.877C1.49922 11.0694 1.75384 10.3545 2.26893 9.73229C2.29565 9.70012 2.31735 9.66293 2.34866 9.63619C2.70095 9.33911 2.82033 8.95888 2.7477 8.51222C2.73685 8.4462 2.71222 8.36974 2.66798 8.32336C2.27686 7.91179 1.87907 7.50649 1.48587 7.09659C1.42785 7.03642 1.37943 7.02514 1.29594 7.04645C0.984553 7.12751 0.713235 7.04227 0.514129 6.79032C0.316275 6.54004 0.287473 6.25674 0.43315 5.96969C0.475309 5.88613 0.462369 5.83055 0.419793 5.7566C0.264933 5.48751 0.0641573 5.24015 0.0182419 4.918C-0.0406133 4.50351 0.0411998 4.13373 0.289143 3.78233C0.852233 2.98343 1.63697 2.54178 2.55069 2.26642C3.19225 2.07297 3.82212 1.83981 4.45117 1.60792C4.60644 1.55067 4.75379 1.44789 4.87776 1.33632C5.06685 1.16585 5.23006 0.967376 5.40829 0.784365C5.58361 0.604278 5.78271 0.643972 5.87037 0.877959C6.01062 1.25317 6.14878 1.62923 6.28069 2.00737C6.4176 2.40055 6.3721 2.7766 6.15129 3.13051C6.10203 3.20989 6.04944 3.28761 5.98391 3.38831H5.98349ZM5.52434 1.38646C5.45504 1.45959 5.40162 1.50931 5.35612 1.56572C5.12529 1.84984 4.82809 2.02283 4.48205 2.13731C3.74699 2.38049 3.02194 2.65417 2.28479 2.89067C1.57686 3.11755 1.04675 3.56255 0.63977 4.16506C0.560044 4.28331 0.524981 4.44251 0.50411 4.5875C0.44776 4.98235 0.716991 5.2552 0.884374 5.5598C0.905662 5.5623 0.916932 5.56774 0.925698 5.56439C1.77555 5.25478 2.62499 4.94516 3.47317 4.63095C3.5099 4.61716 3.54872 4.56075 3.55415 4.51981C3.59714 4.19682 3.77746 3.99041 4.07758 3.88094C4.46828 3.73804 4.85981 3.59848 5.24843 3.4514C5.31187 3.42717 5.37949 3.38413 5.41873 3.33023C5.53185 3.1748 5.63286 3.01017 5.7368 2.84805C5.85576 2.66211 5.89291 2.4557 5.8303 2.24846C5.74473 1.96558 5.63411 1.69023 5.52517 1.38646H5.52434ZM5.88748 5.88487C5.56274 6.00312 5.24676 6.11886 4.93036 6.23376C4.68575 6.32235 4.43196 6.32736 4.23453 6.1573C4.07675 6.0215 3.94985 6.03738 3.79458 6.11761C3.76244 6.1339 3.72779 6.14853 3.69231 6.15521C3.53077 6.18488 3.48986 6.27805 3.49487 6.43976C3.51074 6.94951 3.53077 7.46554 3.34294 7.95148C3.26237 8.15998 3.31455 8.2753 3.47275 8.41068C3.73071 8.6313 4.00328 8.70442 4.32344 8.58534C4.51795 8.51263 4.71455 8.44494 4.9074 8.36806C5.16202 8.26653 5.35904 8.09438 5.50012 7.85914C5.51933 7.82739 5.52976 7.7902 5.54896 7.7434C5.45129 7.7434 5.37323 7.74465 5.29559 7.7434C5.11193 7.74006 5.00048 7.64479 5.00048 7.49312C5.00048 7.34103 5.11151 7.24618 5.29559 7.24367C5.42332 7.242 5.55105 7.24367 5.68754 7.24367C5.68754 7.17347 5.69214 7.12668 5.68671 7.08072C5.66375 6.88266 5.74515 6.74269 5.90877 6.63447C6.01939 6.56135 6.11706 6.46901 6.22392 6.38293C6.10788 6.2112 6.0006 6.05284 5.8879 5.88613L5.88748 5.88487ZM3.6777 5.09057C2.77484 5.42275 1.88742 5.74824 1.00083 6.07708C0.885208 6.1197 0.83178 6.21621 0.847224 6.33864C0.863086 6.46441 0.935716 6.55508 1.06428 6.57054C1.12689 6.57806 1.19743 6.55466 1.25921 6.53168C1.84401 6.31482 2.42755 6.09504 3.01151 5.87652C3.28742 5.77331 3.56333 5.66969 3.84884 5.56272C3.79082 5.40269 3.73822 5.2577 3.6777 5.09057ZM5.73805 3.80823C5.53018 3.88386 5.35403 3.94487 5.1808 4.01214C5.008 4.07941 4.9529 4.19515 5.01467 4.37147C5.11944 4.67023 5.22797 4.96772 5.34026 5.26355C5.40036 5.42149 5.5164 5.47707 5.67544 5.42609C5.82863 5.3772 5.97973 5.32205 6.12833 5.26146C6.26942 5.2038 6.32952 5.08931 6.28111 4.94683C6.173 4.62761 6.06113 4.3088 5.93298 3.9971C5.90126 3.91938 5.80317 3.86924 5.73763 3.80823H5.73805ZM3.25069 8.87615C3.25069 9.03785 3.24401 9.16822 3.25194 9.29774C3.27406 9.66795 3.58796 9.97673 3.95069 9.99302C4.1043 9.99971 4.23077 9.92617 4.23954 9.79204C4.25415 9.57268 4.24329 9.35165 4.24329 9.12643C3.87305 9.1866 3.55832 9.09008 3.25069 8.87615ZM1.90787 6.82584C2.25265 7.14255 2.57865 7.44172 2.89213 7.72961C3.0257 7.34311 3.00149 6.89018 2.9944 6.41845C2.62832 6.5555 2.28229 6.68544 1.90745 6.82584H1.90787ZM4.96124 5.68348C4.79052 5.21174 4.62314 4.75045 4.45325 4.2808C4.41819 4.2925 4.36476 4.31005 4.31175 4.32927C4.05128 4.4237 4.00328 4.5219 4.09553 4.77761C4.19279 5.0467 4.28921 5.31578 4.38981 5.5832C4.4591 5.76746 4.57389 5.8222 4.75796 5.76245C4.83602 5.73696 4.91157 5.70353 4.96166 5.68389L4.96124 5.68348Z" fill="#410EAD"/>
<path d="M7.49869 3.98429C7.49869 3.34333 7.50161 2.70237 7.4966 2.06141C7.49535 1.90013 7.55587 1.80277 7.70113 1.7309C8.81896 1.1756 9.93471 0.616956 11.0484 0.0541324C11.1874 -0.0160638 11.3055 -0.0189886 11.4449 0.0512076C12.554 0.611106 13.6643 1.16766 14.7771 1.71962C14.9391 1.79985 15.0008 1.90806 15 2.08773C14.9946 3.35921 14.995 4.63068 15 5.90215C15.0008 6.07638 14.9366 6.18001 14.7817 6.25731C13.6643 6.81177 12.5494 7.37084 11.4353 7.93199C11.3076 7.99634 11.1974 7.99926 11.0676 7.93366C9.94389 7.36707 8.81855 6.80425 7.69195 6.24394C7.55253 6.17458 7.49618 6.0768 7.49702 5.92304C7.50161 5.27707 7.49869 4.63068 7.49869 3.9847V3.98429ZM14.4974 3.98972C14.4974 3.41687 14.4949 2.8436 14.5 2.27075C14.5008 2.17255 14.467 2.12367 14.3814 2.08147C13.3713 1.57965 12.3636 1.0724 11.3527 0.573083C11.2959 0.545088 11.2007 0.54676 11.1431 0.575172C10.1321 1.07448 9.12493 1.58132 8.11521 2.08272C8.02964 2.12534 7.99624 2.17255 7.99624 2.27116C8 3.41728 8 4.5634 7.99624 5.70911C7.99624 5.80772 8.02964 5.85493 8.11521 5.89755C9.12493 6.39895 10.1326 6.90579 11.1431 7.4051C11.2007 7.43351 11.2959 7.43518 11.3527 7.40677C12.3641 6.90704 13.3717 6.40021 14.3814 5.89839C14.467 5.85577 14.5004 5.80688 14.4995 5.70869C14.4945 5.13584 14.497 4.56257 14.497 3.98972H14.4974Z" fill="#410EAD"/>
<path d="M9.64578 11.4438C9.49426 11.2407 9.34859 11.0456 9.19456 10.8396C9.023 10.9591 8.85729 11.0744 8.69199 11.1906C8.25288 11.4981 7.81459 11.8065 7.37464 12.1132C6.66379 12.6092 5.86194 12.6196 5.14065 12.1416C4.80212 11.9172 4.46402 11.6928 4.12842 11.4643C3.99234 11.3715 3.96271 11.2341 4.04035 11.1129C4.11757 10.9917 4.25698 10.9646 4.3964 11.0448C4.4277 11.0627 4.45734 11.0845 4.48781 11.1045C4.79085 11.3068 5.09431 11.5086 5.39652 11.7116C5.96378 12.0927 6.5348 12.0902 7.09664 11.6987C7.70314 11.2763 8.30881 10.8526 8.9103 10.423C8.96916 10.3813 9.01883 10.2989 9.03344 10.2275C9.09313 9.93167 9.13904 9.63292 9.18663 9.335C9.23797 9.01661 9.40243 8.8219 9.67834 8.75881C9.9363 8.69989 10.2009 8.79558 10.3437 9.07845C10.5207 9.42943 10.7686 9.53932 11.1485 9.50255C11.5145 9.46704 11.8869 9.49378 12.2567 9.49503C12.6315 9.49629 12.9049 9.70896 12.983 10.0562C13.0556 10.3817 12.8866 10.7038 12.5497 10.8505C11.7829 11.1839 11.027 11.5483 10.1972 11.71C10.1296 11.7233 10.0628 11.7635 10.0064 11.8057C9.28055 12.3472 8.55717 12.8924 7.83129 13.4348C6.87124 14.1522 5.72836 14.1894 4.72949 13.5334C4.19896 13.1849 3.67302 12.8289 3.14416 12.4775C3.04482 12.4115 2.96718 12.3204 3.01017 12.2064C3.04022 12.1261 3.12287 12.038 3.20176 12.0116C3.26813 11.9895 3.37374 12.0342 3.44261 12.0789C3.93516 12.3998 4.42353 12.7274 4.9119 13.055C5.81226 13.6592 6.73141 13.6349 7.60296 12.9814C8.23618 12.5068 8.86898 12.0317 9.50136 11.5562C9.54644 11.5224 9.59027 11.4864 9.64537 11.443L9.64578 11.4438ZM12.4975 10.2434C12.4942 10.0721 12.4028 9.99643 12.2479 9.99602C11.6911 9.99476 11.1347 9.99225 10.5779 9.99769C10.4255 9.99936 10.322 9.94504 10.2431 9.81635C10.1454 9.65673 10.0411 9.50046 9.93088 9.34962C9.89874 9.30575 9.82986 9.25561 9.7877 9.26313C9.7468 9.27065 9.69879 9.34503 9.68878 9.39642C9.63076 9.69768 9.57774 10.0002 9.53684 10.3044C9.52724 10.3771 9.55145 10.4698 9.59277 10.5308C9.72676 10.7289 9.8812 10.9132 10.0177 11.1095C10.074 11.1906 10.1262 11.2052 10.2222 11.1864C10.9811 11.0393 11.6598 10.68 12.3619 10.3838C12.427 10.3562 12.4692 10.2739 12.4975 10.2434Z" fill="#410EAD"/>
<path d="M8.99734 4.12235C8.99734 4.49172 9.00026 4.86108 8.99609 5.23045C8.99442 5.38756 8.88339 5.49285 8.7423 5.48951C8.60706 5.48617 8.50938 5.38421 8.49895 5.23505C8.4977 5.21416 8.49811 5.19326 8.49811 5.17237C8.49811 4.38057 8.49811 3.5892 8.49811 2.7974C8.49811 2.62024 8.56907 2.51745 8.70348 2.49238C8.83246 2.46815 8.93556 2.54001 9.00277 2.70631C9.15804 3.09072 9.31207 3.47596 9.4974 3.85786C9.4974 3.63892 9.4974 3.42039 9.4974 3.20144C9.4974 3.05562 9.4949 2.9098 9.49824 2.76397C9.50199 2.59475 9.60551 2.48611 9.75244 2.48904C9.89353 2.49196 9.99579 2.59767 9.99621 2.75854C9.9983 3.58126 9.99788 4.40439 9.99663 5.22711C9.99663 5.36499 9.92483 5.45775 9.79126 5.48366C9.65518 5.50998 9.55959 5.44104 9.50909 5.31569C9.35882 4.94465 9.21147 4.57236 9.06246 4.20091C9.05119 4.17291 9.03783 4.14575 9.02531 4.11859C9.01612 4.11985 9.00652 4.1211 8.99734 4.12194V4.12235Z" fill="#410EAD"/>
<path d="M10.9978 4.23998C10.9978 4.57509 10.9999 4.8918 10.997 5.20894C10.9957 5.37399 10.9039 5.48012 10.764 5.48973C10.6083 5.50059 10.499 5.38276 10.4986 5.19474C10.4973 4.47564 10.4982 3.75655 10.4982 3.03745C10.4982 2.94386 10.4952 2.84985 10.499 2.75625C10.5057 2.58912 10.5962 2.49302 10.762 2.49093C11.0846 2.48675 11.4073 2.48675 11.7304 2.49093C11.8902 2.4926 11.9954 2.59622 11.9962 2.73787C11.9971 2.87951 11.8923 2.98523 11.7333 2.98815C11.4949 2.99275 11.2562 2.9894 11.0078 2.9894V3.74025C11.2345 3.74025 11.4565 3.73942 11.679 3.74025C11.879 3.74109 11.9925 3.82925 11.9962 3.98385C12.0004 4.14388 11.8819 4.23915 11.6757 4.23998C11.4574 4.24082 11.2391 4.23998 10.9978 4.23998Z" fill="#410EAD"/>
<path d="M13.4979 2.98811C13.4979 3.67503 13.4979 4.34064 13.4979 5.00625C13.4979 5.07896 13.5004 5.15208 13.4971 5.22478C13.49 5.38398 13.3894 5.48927 13.2483 5.48969C13.1068 5.48969 13.0012 5.38523 12.9995 5.22604C12.9953 4.87714 12.9978 4.52867 12.9978 4.17978C12.9978 3.78994 12.9978 3.4001 12.9978 2.98811C12.9089 2.98811 12.8275 2.99229 12.747 2.98728C12.5988 2.97767 12.499 2.87446 12.499 2.73825C12.499 2.60162 12.5992 2.4934 12.7478 2.49089C13.0805 2.48546 13.4136 2.48546 13.7463 2.49089C13.8949 2.4934 13.9954 2.60078 13.9967 2.73699C13.998 2.87279 13.8974 2.97767 13.75 2.9877C13.6732 2.99313 13.5956 2.98853 13.4979 2.98853V2.98811Z" fill="#410EAD"/>
<path d="M12.9954 1.92852C12.9996 2.18424 12.8017 2.29371 12.6034 2.19635C12.2261 2.01042 11.8458 1.82824 11.4773 1.62601C11.3136 1.53659 11.1863 1.53576 11.0223 1.62559C10.6487 1.82991 10.2638 2.01376 9.88107 2.20053C9.7091 2.28452 9.53337 2.20387 9.50373 2.03423C9.48119 1.9047 9.54088 1.81278 9.65567 1.75554C10.1432 1.5111 10.6291 1.26249 11.1216 1.02767C11.1938 0.993407 11.312 0.997167 11.3854 1.03268C11.8725 1.26584 12.3555 1.5086 12.8343 1.75888C12.9115 1.79941 12.9616 1.89217 12.995 1.92894L12.9954 1.92852Z" fill="#410EAD"/>
<path d="M12.9968 6.04508C12.9667 6.08102 12.9237 6.17503 12.8515 6.21264C12.3585 6.46919 11.8622 6.71905 11.3601 6.95722C11.2896 6.99064 11.1723 6.97602 11.0971 6.94008C10.6192 6.71153 10.1463 6.47169 9.67291 6.23353C9.51596 6.15456 9.46128 6.02294 9.52264 5.89007C9.58776 5.74842 9.72926 5.70413 9.89164 5.78435C10.2924 5.98157 10.6931 6.17921 11.0892 6.38562C11.2011 6.44412 11.2879 6.4508 11.4035 6.3898C11.7984 6.1813 12.1999 5.98408 12.6002 5.78603C12.7998 5.68742 12.9964 5.79229 12.9959 6.04508H12.9968Z" fill="#410EAD"/>
</svg>
