<svg width="15" height="15" viewBox="0 0 15 15" fill="none" xmlns="http://www.w3.org/2000/svg">
<path d="M4.50808 0.323498C4.77728 0.0747402 5.09366 -0.0137444 5.44676 0.00169862C5.62874 0.00962882 5.81113 0.00128128 5.99311 0.00336817C6.54614 0.0104636 6.97228 0.421582 6.99857 0.971687C7.01443 1.30267 7.1985 1.48715 7.52781 1.50301C8.07917 1.52931 8.49404 1.95336 8.49738 2.50681C8.50197 3.25141 8.50072 3.9956 8.4978 4.7402C8.49613 5.19139 8.23652 5.54616 7.81038 5.70184C7.76321 5.71895 7.69935 5.75568 7.6885 5.79575C7.55661 6.28742 7.24358 6.59462 6.75399 6.73026V7.50241C7.0161 7.50241 7.27404 7.49782 7.5324 7.50325C8.17057 7.5166 8.75115 7.93565 8.91935 8.54711C8.99072 8.80756 8.96652 9.09263 9.00074 9.36476C9.04248 9.69866 8.9277 9.95493 8.70691 10.2087C8.19478 10.7976 7.71271 11.4124 7.21812 12.0164C7.1626 12.0844 7.10751 12.1524 7.02779 12.2505C7.25151 12.2505 7.446 12.2605 7.63883 12.2476C7.81789 12.2359 7.91472 12.3236 8.02533 12.4534C8.41808 12.915 8.57794 13.4334 8.50281 14.0356C8.4761 14.251 8.49989 14.4722 8.49822 14.6909C8.49655 14.9067 8.4089 14.9994 8.1977 14.9994C5.73016 15.0002 3.26262 15.0002 0.795073 14.9994C0.592227 14.9994 0.501656 14.9063 0.500821 14.7009C0.499152 14.2322 0.497482 13.7639 0.503325 13.2952C0.50416 13.2218 0.52962 13.14 0.568854 13.0778C0.712432 12.8486 0.868114 12.6274 1.01587 12.4008C1.08473 12.2948 1.17614 12.2468 1.30302 12.2493C1.51422 12.2539 1.72583 12.2505 1.97083 12.2505C1.75755 11.9888 1.56555 11.7526 1.37273 11.5168C0.951173 11.0009 0.525446 10.4883 0.110572 9.96704C0.0483822 9.88899 0.00747924 9.77212 0.00539234 9.67237C-3.35806e-05 9.361 -0.0113027 9.04505 0.0329395 8.73827C0.132276 8.04835 0.742901 7.52537 1.43992 7.5045C1.70412 7.49657 1.96833 7.50325 2.24129 7.50325V6.73068C2.2104 6.71983 2.17284 6.70647 2.13528 6.69353C1.72583 6.55538 1.45745 6.28033 1.33725 5.86504C1.31262 5.78031 1.27965 5.7273 1.18616 5.69558C0.758761 5.55159 0.502491 5.1893 0.500821 4.73644C0.498317 3.99727 0.497482 3.25809 0.500821 2.51891C0.503325 1.95461 0.914443 1.53014 1.47457 1.50343C1.79553 1.4884 1.9846 1.30142 1.99963 0.984209C2.02676 0.413234 2.44998 0.00837681 3.02471 0.00378564C3.18624 0.0025335 3.34734 0.00378564 3.50887 0.00378564C3.99261 0.00378564 4.1099 0.0409324 4.50599 0.324333L4.50808 0.323498ZM2.75091 6.67517C2.75091 7.03829 2.75216 7.36426 2.75091 7.69024C2.75008 7.91312 2.66201 7.99993 2.43704 8.00076C2.12484 8.00202 1.81264 7.99784 1.50044 8.00202C0.944495 8.00911 0.512508 8.43901 0.502908 8.99287C0.499569 9.18028 0.495813 9.36768 0.505412 9.55467C0.508751 9.62061 0.535464 9.69699 0.576784 9.74833C1.22581 10.548 1.88068 11.3436 2.5297 12.1437C2.59606 12.2255 2.66451 12.2526 2.76635 12.2526C3.92667 12.2493 5.0874 12.2493 6.24771 12.2526C6.34663 12.2526 6.4084 12.2221 6.47017 12.1462C7.01402 11.4754 7.54409 10.7922 8.11631 10.1461C8.41265 9.81135 8.53829 9.47161 8.50823 9.0271C8.46858 8.43526 8.06665 8.00536 7.47355 8.0016C7.17179 7.99951 6.87002 8.00202 6.56826 8.00076C6.33619 7.99993 6.25188 7.91395 6.25105 7.67813C6.25021 7.39723 6.25105 7.11592 6.25021 6.83503C6.25021 6.79162 6.24437 6.74821 6.2402 6.69145C5.28148 7.78206 3.68918 7.7495 2.75174 6.67517H2.75091ZM6.75483 6.19811C6.9848 6.1067 7.11127 5.95143 7.1793 5.74441C7.20685 5.66052 7.22813 5.57454 7.24608 5.48814C7.27822 5.33371 7.36921 5.26192 7.52739 5.24899C7.80871 5.22603 7.99694 5.0236 7.9982 4.7427C8.00154 3.99852 8.00154 3.25433 7.9982 2.50973C7.99694 2.22466 7.79285 2.01973 7.51028 2.00261C6.90466 1.9663 6.53695 1.59817 6.49939 0.990887C6.48228 0.714582 6.28068 0.510484 6.00688 0.504223C5.76772 0.498797 5.52815 0.498797 5.28857 0.505058C5.05902 0.510901 4.88163 0.619002 4.75558 0.809744C4.58404 1.06935 4.41333 1.07144 4.24763 0.815587C4.1195 0.61775 3.93794 0.510066 3.70212 0.50464C3.46797 0.499632 3.23382 0.499214 2.99967 0.504223C2.72462 0.509649 2.51927 0.711243 2.5009 0.984626C2.45916 1.6061 2.10397 1.96046 1.48041 2.00303C1.2137 2.0214 1.00501 2.22299 1.00293 2.48802C0.997919 3.24765 0.998337 4.0077 1.00293 4.76775C1.0046 5.00732 1.18407 5.22561 1.41989 5.2398C1.65946 5.25399 1.74628 5.38046 1.78134 5.58748C1.79428 5.66386 1.8164 5.74024 1.84603 5.81161C1.92033 5.99025 2.04387 6.12131 2.23795 6.19226V2.99723H1.76047V2.50263C2.05097 2.50263 2.33144 2.49971 2.61192 2.50389C2.76093 2.50597 2.85609 2.44503 2.91035 2.30438C3.02054 2.01847 3.13866 1.73549 3.25093 1.45C3.29476 1.3394 3.36821 1.24215 3.48675 1.26093C3.57565 1.27512 3.68 1.34065 3.73175 1.41494C3.8795 1.62822 4.00639 1.85611 4.13703 2.08066C4.30398 2.36782 4.54856 2.50555 4.88205 2.50347C5.61079 2.49888 6.33953 2.50222 7.06786 2.50222C7.12337 2.50222 7.1793 2.50222 7.23857 2.50222V3.00891H6.75399V6.19727L6.75483 6.19811ZM1.00126 14.4893H7.99945C7.99945 14.2723 7.9815 14.0632 8.00321 13.8587C8.04286 13.4868 7.94769 13.1687 7.70979 12.8808C7.63716 12.7927 7.57873 12.7464 7.45936 12.7468C5.58658 12.751 3.71339 12.7601 1.84102 12.7405C1.49961 12.7368 1.26504 12.8069 1.13148 13.1283C1.09433 13.2172 1.01086 13.2998 1.00752 13.3879C0.993328 13.751 1.00168 14.1145 1.00168 14.4898L1.00126 14.4893ZM2.75467 2.9943C2.75467 3.80444 2.73296 4.5912 2.76051 5.37587C2.79098 6.24986 3.54643 6.9665 4.42043 6.99864C5.41671 7.03578 6.23477 6.26739 6.24771 5.27027C6.25689 4.54695 6.2498 3.82322 6.2498 3.0999C6.2498 3.07027 6.24354 3.04105 6.23936 3.00224C5.77315 3.00224 5.31612 3.00265 4.85909 3.00224C4.36617 3.0014 3.98969 2.79062 3.7305 2.37116C3.67207 2.27683 3.61405 2.1825 3.54268 2.06689C3.37823 2.48218 3.28307 2.9246 2.7555 2.99472L2.75467 2.9943Z" fill="#410EAD"/>
<path d="M8.86499 7.80534C8.78736 7.65884 8.71516 7.52277 8.6346 7.37085C8.87501 7.24146 9.10666 7.11708 9.35333 6.98436C9.01108 6.67925 8.67759 6.38208 8.33451 6.07614C8.44469 5.95176 8.55071 5.83239 8.66507 5.70342C9.01567 6.01478 9.36084 6.31446 9.69683 6.62374C9.79199 6.71097 9.86086 6.72349 9.97773 6.65963C10.502 6.37206 11.0345 6.09993 11.56 5.81444C11.7082 5.73389 11.8271 5.74432 11.9619 5.84282C12.3772 6.14709 12.7988 6.44301 13.2345 6.75396V1.75418H8.50647V1.25207H8.68677C10.2073 1.25207 11.7278 1.25124 13.2479 1.25374C13.3481 1.25374 13.4224 1.22954 13.4937 1.15524C13.6957 0.9453 13.9069 0.744124 14.1432 0.511644H7.50977V0.00244141H7.68089C9.99818 0.00244141 12.315 0.00244141 14.6323 0.00244141C14.9287 0.00244141 14.998 0.0721438 14.998 0.370987C14.998 3.79182 14.998 7.21308 14.998 10.6339C14.998 10.9303 14.9278 11 14.629 11C12.8117 11 10.9945 11 9.17719 11H9.01066V10.5008H14.1448C13.8848 10.2412 13.6569 10.0083 13.4211 9.78372C13.3877 9.75158 13.3155 9.75158 13.2612 9.75158C12.0688 9.74991 10.8763 9.75032 9.68389 9.75032H9.50734V9.2574H13.2379C13.242 9.19605 13.2475 9.15097 13.2475 9.10631C13.2479 8.5754 13.2458 8.04408 13.25 7.51317C13.2508 7.42177 13.2283 7.36125 13.1498 7.30615C12.7107 6.99855 12.2746 6.6876 11.8417 6.37123C11.7566 6.30904 11.6948 6.31071 11.6047 6.35912C10.747 6.8174 9.88674 7.27068 9.02736 7.7252C8.97811 7.7515 8.92718 7.77529 8.86541 7.80617L8.86499 7.80534ZM14.4892 0.861824C14.2709 1.08137 14.0789 1.28338 13.8765 1.47454C13.7826 1.56302 13.7446 1.65359 13.7446 1.78507C13.7492 4.10068 13.7475 6.41588 13.7479 8.7315C13.7479 8.94979 13.6903 9.19354 13.7684 9.37969C13.8489 9.57127 14.0622 9.70733 14.2191 9.86636C14.303 9.9515 14.3903 10.0337 14.4888 10.1297V0.861824H14.4892Z" fill="#410EAD"/>
<path d="M10.2454 3.00245C10.9295 3.00036 11.4938 3.55589 11.4984 4.23622C11.503 4.93533 10.9416 5.50171 10.2441 5.50171C9.56298 5.50171 9.00244 4.94201 8.99952 4.25959C8.9966 3.56841 9.55547 3.00495 10.2454 3.00287V3.00245ZM10.2533 3.5033C9.83887 3.50121 9.49996 3.83929 9.49996 4.25584C9.49996 4.66195 9.83804 5.00044 10.2446 5.00127C10.654 5.00211 10.9921 4.67155 10.9979 4.26418C11.0038 3.84931 10.6678 3.50539 10.2533 3.5033Z" fill="#410EAD"/>
<path d="M6.73707 9.25019C6.50751 9.25019 6.28338 9.26605 6.06217 9.24727C5.15937 9.17047 4.66896 9.68552 4.74993 10.5537C4.75535 10.6104 4.75076 10.6676 4.75076 10.7373H4.25074C4.25074 10.5975 4.25116 10.4539 4.25074 10.3103C4.24824 9.67467 3.82794 9.25186 3.19561 9.25019C2.88883 9.24936 2.58206 9.25019 2.26318 9.25019V8.7293C2.71646 8.75226 3.17307 8.75226 3.623 8.80652C3.92853 8.84325 4.17728 9.03274 4.38138 9.26731C4.41477 9.3057 4.44858 9.34369 4.48865 9.38918C4.90143 8.90627 5.13475 8.35491 5.22824 7.72217C5.38977 7.74137 5.5467 7.75973 5.74245 7.78269C5.65355 8.11993 5.56924 8.44131 5.48535 8.76061H6.73707V9.25019Z" fill="#410EAD"/>
<path d="M4.00781 4.98458V4.50125C4.07918 4.50125 4.14972 4.50292 4.21984 4.50125C4.40391 4.49541 4.49698 4.40442 4.49948 4.21952C4.50282 3.98663 4.50032 3.75331 4.50032 3.51123H5.01662C4.99784 3.8372 5.01912 4.17403 4.94984 4.49124C4.86553 4.87689 4.47653 5.05512 4.00781 4.985V4.98458Z" fill="#410EAD"/>
<path d="M4.99396 5.75124V6.2642C4.67258 6.24917 4.35454 6.26169 4.04609 6.21286C3.70092 6.15818 3.45008 5.93948 3.27979 5.61392C3.42837 5.53921 3.56945 5.46784 3.72346 5.39062C3.89834 5.70324 4.17632 5.77211 4.49811 5.75291C4.65797 5.74331 4.81908 5.75124 4.99396 5.75124Z" fill="#410EAD"/>
<path d="M3.49283 3.50286C3.62806 3.49868 3.74492 3.60846 3.7491 3.74369C3.75327 3.8785 3.64308 3.99578 3.50785 3.99996C3.37262 4.00413 3.25617 3.89436 3.25158 3.75871C3.24741 3.62306 3.35634 3.50703 3.49241 3.50244L3.49283 3.50286Z" fill="#410EAD"/>
<path d="M5.74858 3.7542C5.74733 3.88943 5.63255 4.00213 5.49732 4.00046C5.36167 3.99879 5.24981 3.88484 5.25148 3.74919C5.25315 3.61313 5.36668 3.50169 5.50233 3.50294C5.63798 3.50419 5.74983 3.61855 5.74858 3.7542Z" fill="#410EAD"/>
</svg>
