<svg width="15" height="15" viewBox="0 0 15 15" fill="none" xmlns="http://www.w3.org/2000/svg">
<path d="M11.1609 15C11.0376 14.9761 10.9139 14.9546 10.7915 14.9276C9.17635 14.5725 8.05396 13.225 7.99957 11.5755C7.99878 11.5469 7.99604 11.518 7.99331 11.4742C6.70929 11.6005 5.58299 11.25 4.6684 10.3359C3.75578 9.42376 3.40161 8.30389 3.52684 7.02874C3.27011 6.99354 3.013 6.97398 2.76253 6.92078C1.30671 6.61138 0.205458 5.40156 0.0270031 3.9277C0.0223069 3.88976 0.00939238 3.8526 0 3.81544C0 3.6007 0 3.38596 0 3.17122C0.0391349 2.98151 0.0704428 2.78984 0.119361 2.60248C0.54241 0.972559 2.13324 -0.143785 3.80078 0.0150226C5.59629 0.186347 6.94214 1.62187 6.99967 3.42703C7.00084 3.46028 7.00476 3.49352 7.00789 3.5346C8.29269 3.40708 9.41469 3.75912 10.3281 4.6701C11.2423 5.58188 11.5968 6.70291 11.472 7.97807C11.7381 8.01522 12.0046 8.03635 12.2645 8.09111C13.9841 8.4537 15.1816 10.1251 14.9773 11.8657C14.7832 13.5195 13.5692 14.7465 11.9021 14.9754C11.879 14.9785 11.8575 14.991 11.8352 14.9992H11.1613L11.1609 15ZM7.50021 4.00828C5.56538 4.0071 3.9992 5.57366 4.00154 7.50673C4.00389 9.43432 5.55794 10.9903 7.4916 11.0009C9.41938 11.0114 10.9918 9.44488 10.9969 7.50868C11.002 5.57718 9.43582 4.00945 7.50021 4.00828ZM2.38136 4.1178C1.48478 3.29678 1.65697 2.15344 2.2256 1.55655C2.83572 0.916233 3.83405 0.823922 4.54435 1.3551C4.8946 1.61678 5.12315 1.96295 5.20846 2.39048C5.34465 3.07304 5.12589 3.6449 4.61988 4.11037C4.74198 4.17726 4.85586 4.22576 4.95291 4.29734C5.03079 4.35406 5.07658 4.33137 5.1435 4.286C5.30474 4.17686 5.4648 4.06147 5.63934 3.97738C5.91485 3.84478 6.20171 3.73526 6.49052 3.61322C6.57349 2.35215 5.71644 1.00933 4.30132 0.618959C2.87876 0.225853 1.38068 0.924057 0.767827 2.26414C0.186282 3.53577 0.647683 4.89619 1.27188 5.46923C1.40338 4.82813 1.77007 4.37987 2.38136 4.11741V4.1178ZM11.2078 9.01853C12.0598 8.94225 12.7212 9.24813 13.0789 10.0296C13.4389 10.8151 13.2284 11.5176 12.614 12.1133C13.2343 12.3754 13.5962 12.8322 13.7328 13.487C13.7665 13.451 13.7837 13.4342 13.799 13.4158C14.5789 12.5056 14.7316 11.1601 14.1402 10.0887C13.5696 9.0549 12.6688 8.53585 11.4884 8.50573C11.4427 8.50455 11.3683 8.53624 11.3538 8.57144C11.2955 8.71499 11.2556 8.86559 11.2078 9.01813V9.01853ZM12.7458 14.2388C12.9192 14.1348 13.0617 14.0534 13.1994 13.9638C13.2253 13.947 13.2413 13.9001 13.244 13.8657C13.3063 13.1479 12.7607 12.5291 12.0399 12.5084C11.6837 12.4982 11.3268 12.4986 10.9707 12.5076C10.2389 12.5264 9.69254 13.1393 9.75203 13.8664C9.75438 13.8973 9.76377 13.9412 9.78529 13.9552C9.93009 14.0483 10.0788 14.1352 10.2502 14.238C10.2502 14.1293 10.2502 14.0616 10.2502 13.994C10.2502 13.62 10.307 13.5074 10.4956 13.5054C10.6866 13.5035 10.7492 13.6231 10.7492 13.9885C10.7492 14.1242 10.7492 14.2596 10.7492 14.3984C11.2529 14.5326 11.742 14.5345 12.2469 14.3984C12.2469 14.1872 12.2434 13.9783 12.2481 13.7698C12.2516 13.6075 12.3553 13.5042 12.5001 13.5058C12.648 13.507 12.7415 13.6071 12.7451 13.7741C12.7482 13.9149 12.7458 14.0558 12.7458 14.2396V14.2388ZM4.74706 2.76285C4.74863 2.07404 4.19604 1.51352 3.50884 1.50687C2.81889 1.50022 2.25221 2.06465 2.25261 2.75855C2.25261 3.44698 2.8091 4.00398 3.49749 4.00593C4.1843 4.00789 4.7455 3.44972 4.74706 2.76285ZM10.2479 10.7466C10.2518 10.81 10.2506 10.8738 10.26 10.9359C10.3602 11.5986 10.9535 12.0605 11.616 11.9932C12.3032 11.9232 12.7815 11.3545 12.7427 10.6528C12.7079 10.0195 12.1416 9.4926 11.49 9.50473C11.1707 9.51059 10.8725 9.58452 10.6928 9.89705C10.6353 9.99718 10.5582 10.0915 10.4717 10.1681C10.2937 10.3254 10.2483 10.5248 10.2475 10.7466H10.2479ZM4.65471 4.69983C4.47038 4.58014 4.28762 4.51638 4.08999 4.51404C3.69473 4.50895 3.29907 4.49917 2.90459 4.51638C2.21778 4.5465 1.67771 5.19503 1.75403 5.87876C1.75755 5.90927 1.77125 5.94995 1.79355 5.96442C1.93522 6.05478 2.08041 6.13888 2.25182 6.24175C2.25182 6.13262 2.25182 6.06143 2.25182 5.99024C2.25182 5.91201 2.24908 5.83417 2.25339 5.75633C2.26356 5.57249 2.42793 5.45827 2.58995 5.52477C2.70774 5.57327 2.75236 5.67106 2.75158 5.79427C2.7504 5.99767 2.75158 6.20107 2.75158 6.42794C3.05135 6.46079 3.33508 6.49208 3.62468 6.52377C3.81722 5.81852 4.14947 5.21967 4.6551 4.69983H4.65471ZM9.74929 10.81C9.37125 11.0541 8.98655 11.2356 8.57211 11.3553C8.5365 11.3654 8.50089 11.4503 8.50128 11.5C8.50597 12.2119 8.73217 12.8463 9.18301 13.3994C9.20492 13.4264 9.23506 13.4471 9.26949 13.4784C9.40334 12.8178 9.77629 12.3707 10.3907 12.107C9.99506 11.7617 9.78647 11.3408 9.74929 10.8104V10.81Z" fill="#410EAD"/>
<path d="M8.5961 0.985351C9.03754 1.06397 9.44376 1.1027 9.83002 1.21104C12.3472 1.91785 13.9384 3.54543 14.5794 6.07813C14.6894 6.51309 14.6976 6.97426 14.7415 7.42447C14.761 7.62709 14.6683 7.7413 14.5133 7.7503C14.3525 7.7593 14.248 7.64586 14.2452 7.43973C14.2331 6.4196 13.9897 5.45816 13.4774 4.57729C12.4716 2.8484 10.9724 1.83884 8.98745 1.558C8.88178 1.54313 8.77495 1.53492 8.64893 1.55135C8.72407 1.62762 8.79999 1.70311 8.87474 1.77978C9.01406 1.92177 9.03206 2.06532 8.92405 2.1764C8.81291 2.2914 8.66967 2.27889 8.52761 2.13807C8.3022 1.91472 8.07756 1.69099 7.85489 1.46529C7.71322 1.32135 7.71361 1.19149 7.85684 1.04676C8.08304 0.817547 8.31081 0.589898 8.54014 0.363813C8.66967 0.236298 8.82308 0.228083 8.92718 0.336823C9.02854 0.442434 9.01954 0.588333 8.89587 0.711937C8.80312 0.804248 8.70255 0.888737 8.59571 0.985351H8.5961Z" fill="#410EAD"/>
<path d="M6.3559 13.445C6.26863 13.3625 6.17783 13.2835 6.09448 13.197C5.97942 13.0781 5.97433 12.9369 6.07373 12.8329C6.17862 12.7234 6.3242 12.7261 6.44904 12.8489C6.6858 13.0816 6.92022 13.3163 7.15268 13.5534C7.28105 13.684 7.28065 13.8197 7.15151 13.9512C6.91905 14.1878 6.68385 14.4225 6.44747 14.6552C6.3242 14.7765 6.17548 14.7824 6.07139 14.6775C5.96729 14.5731 5.97629 14.4272 6.09604 14.302C6.1837 14.2105 6.27411 14.1213 6.36255 14.0302C6.36764 14.0251 6.36529 14.013 6.36685 14.002C6.10739 13.9653 5.84675 13.9367 5.58964 13.8902C4.18469 13.6363 2.98873 12.9866 2.01662 11.9461C0.877009 10.7265 0.289986 9.2738 0.254373 7.6028C0.25359 7.57346 0.251633 7.54413 0.252808 7.51518C0.259852 7.36616 0.347123 7.26837 0.480964 7.25859C0.621067 7.24842 0.732601 7.33877 0.74669 7.49211C0.765866 7.70098 0.763518 7.91142 0.785825 8.1199C1.06877 10.7371 2.94959 12.8188 5.53367 13.3727C5.7947 13.4286 6.06199 13.4556 6.32655 13.4959C6.33594 13.4791 6.34572 13.4622 6.35511 13.4454L6.3559 13.445Z" fill="#410EAD"/>
<path d="M6.73484 8.16697C7.33477 7.56694 7.91045 6.99117 8.48651 6.4154C8.66223 6.23977 8.80664 6.21396 8.92522 6.33678C9.03949 6.4553 9.01288 6.59494 8.84382 6.7643C8.22627 7.38154 7.60911 7.99878 6.99156 8.61562C6.80684 8.80024 6.69492 8.80024 6.51177 8.61758C6.37362 8.47989 6.23391 8.34338 6.09811 8.20374C5.97914 8.08131 5.97444 7.93111 6.08167 7.82902C6.18264 7.7324 6.33292 7.7367 6.44759 7.85053C6.54738 7.94949 6.637 8.05823 6.73601 8.16775L6.73484 8.16697Z" fill="#410EAD"/>
</svg>
