<svg width="15" height="15" viewBox="0 0 15 15" fill="none" xmlns="http://www.w3.org/2000/svg">
<path d="M2.74274 0.999791C2.7874 0.310585 3.02827 3.44143e-06 3.50124 0.000420889C3.97379 0.000420889 4.20965 0.305158 4.25891 0.98852H6.75107C6.75107 0.902526 6.74857 0.815697 6.75149 0.728867C6.76526 0.322273 7.09588 0.000838566 7.49955 3.67071e-06C7.90364 -0.000413777 8.23468 0.319351 8.24929 0.72678C8.25221 0.809852 8.24971 0.892924 8.24971 0.987685H10.7506C10.7506 0.903361 10.7481 0.816531 10.7506 0.73012C10.7636 0.323108 11.0934 0.00125601 11.497 3.67071e-06C11.9011 -0.00124867 12.233 0.318099 12.2484 0.72511C12.2514 0.808182 12.2489 0.891672 12.2489 0.999373C12.309 0.999373 12.3637 0.999373 12.4183 0.999373C12.8504 0.999373 13.2829 0.997704 13.7149 0.999791C14.4563 1.00355 14.9982 1.5408 14.9986 2.28219C15.0003 6.09432 15.0007 9.90646 14.9986 13.7186C14.9986 14.4583 14.4542 14.9972 13.7112 14.9972C9.57093 14.9985 5.43068 14.9985 1.29044 14.9972C0.540699 14.9972 0.00135671 14.4558 0.000939258 13.7044C-0.000313086 9.9027 -0.000313086 6.101 0.000939258 2.29931C0.000939258 1.53746 0.537777 1.00188 1.29837 0.999373C1.77634 0.997704 2.25432 0.999373 2.7419 0.999373L2.74274 0.999791ZM0.501042 4.50552C0.501042 4.57398 0.501042 4.62574 0.501042 4.67709C0.501042 7.67144 0.501042 10.6662 0.501042 13.6606C0.501042 14.2003 0.801187 14.4984 1.3447 14.4984C5.44863 14.4984 9.55256 14.4984 13.6561 14.4984C14.1992 14.4984 14.4997 14.1999 14.4997 13.6606C14.4997 10.6662 14.4997 7.67144 14.4997 4.67709V4.50552H0.501042ZM0.504381 3.9883H14.5002C14.5002 3.41013 14.5022 2.84324 14.4993 2.27635C14.4972 1.81924 14.1783 1.50282 13.7204 1.50031C13.2724 1.49781 12.8249 1.49948 12.377 1.50031C12.3374 1.50031 12.2977 1.50699 12.2501 1.51116C12.2501 1.7441 12.2509 1.96744 12.2501 2.19077C12.2484 2.65915 11.9354 2.9977 11.5033 2.99937C11.0708 3.00062 10.7523 2.66165 10.7506 2.19661C10.7498 1.9691 10.7506 1.7416 10.7506 1.50949H8.25012C8.25012 1.76789 8.25472 2.01711 8.24887 2.26591C8.24011 2.6437 7.95499 2.95303 7.5843 2.99561C7.20859 3.03861 6.85752 2.79273 6.77445 2.41536C6.74898 2.30056 6.75399 2.17783 6.75191 2.05886C6.74857 1.87393 6.75107 1.68941 6.75107 1.50866H4.25056C4.25056 1.76581 4.25515 2.01502 4.24972 2.26341C4.24012 2.67918 3.90491 3.00271 3.49414 2.99937C3.09131 2.99603 2.76194 2.67292 2.75275 2.26466C2.74733 2.0121 2.75192 1.75913 2.75192 1.50156C2.21842 1.50156 1.70872 1.49238 1.19901 1.5049C0.840009 1.51367 0.521079 1.81256 0.509808 2.17157C0.491441 2.77394 0.504799 3.37757 0.504799 3.98872L0.504381 3.9883ZM3.75087 1.50991C3.75087 1.2703 3.75254 1.03068 3.75045 0.791485C3.74879 0.609895 3.64735 0.497601 3.49539 0.501358C3.34887 0.504698 3.25244 0.613234 3.25202 0.786893C3.24994 1.2607 3.24994 1.7345 3.25202 2.2083C3.25286 2.38906 3.35555 2.50219 3.50667 2.49885C3.65235 2.49551 3.74879 2.38614 3.75045 2.21331C3.75296 1.97912 3.75129 1.74452 3.75129 1.51033L3.75087 1.50991ZM7.25076 1.48445C7.25076 1.72406 7.2495 1.96368 7.25117 2.20288C7.25284 2.38655 7.34927 2.49885 7.50081 2.49843C7.65192 2.49843 7.74961 2.38572 7.75002 2.20246C7.75169 1.73366 7.75169 1.26529 7.75002 0.796494C7.74919 0.612817 7.6515 0.500941 7.50039 0.500941C7.34886 0.500941 7.25284 0.612817 7.25117 0.796911C7.24909 1.02609 7.25076 1.25527 7.25076 1.48403V1.48445ZM11.2503 1.48737C11.2503 1.72699 11.2487 1.9666 11.2507 2.2058C11.2524 2.3878 11.3518 2.50052 11.5033 2.49843C11.6494 2.49634 11.7483 2.38697 11.7492 2.21498C11.7513 1.73575 11.7517 1.25694 11.7492 0.777709C11.7483 0.60739 11.644 0.498854 11.497 0.500941C11.3501 0.503028 11.2532 0.611147 11.2512 0.784388C11.2482 1.01858 11.2503 1.25318 11.2503 1.48737Z" fill="#410EAD"/>
<path d="M7.51797 9.9601C7.5785 9.5915 7.63736 9.20076 7.70833 8.81212C7.73129 8.6873 7.70874 8.59964 7.61523 8.50905C7.36143 8.26276 7.11931 8.00478 6.87051 7.75306C6.78577 7.66706 6.72106 7.57522 6.76531 7.44874C6.80873 7.32434 6.91058 7.2876 7.0329 7.27049C7.38814 7.22039 7.74256 7.16696 8.0953 7.10267C8.15708 7.0914 8.23222 7.03296 8.26061 6.97619C8.42968 6.6368 8.58872 6.29241 8.74735 5.94801C8.79912 5.83572 8.86716 5.75098 9.00033 5.75098C9.13349 5.75098 9.20154 5.83697 9.25288 5.94885C9.40734 6.28406 9.57056 6.61468 9.71917 6.95239C9.76509 7.05675 9.82854 7.09892 9.93583 7.11353C10.2856 7.16237 10.6346 7.22081 10.9845 7.2709C11.1018 7.28802 11.1953 7.33227 11.2358 7.44915C11.2771 7.56854 11.2216 7.65997 11.1406 7.74262C10.8855 8.00269 10.6351 8.26735 10.3741 8.52116C10.2877 8.60507 10.271 8.68647 10.2907 8.79793C10.3562 9.17154 10.4222 9.54558 10.4685 9.9217C10.4793 10.0094 10.4355 10.1267 10.3758 10.1943C10.2953 10.2861 10.1792 10.2532 10.0753 10.1947C9.75799 10.0165 9.43698 9.8453 9.1218 9.66413C9.0333 9.6132 8.9661 9.61613 8.87927 9.6658C8.55908 9.84906 8.23598 10.0273 7.91079 10.2018C7.71041 10.3095 7.51254 10.1951 7.51797 9.95969V9.9601ZM8.09447 9.53013C8.337 9.39655 8.55574 9.28759 8.76196 9.15819C8.92811 9.05382 9.07213 9.05341 9.23827 9.15693C9.447 9.28676 9.66741 9.39738 9.90452 9.52846C9.85818 9.23583 9.82896 8.972 9.77135 8.71444C9.73086 8.53327 9.7797 8.4072 9.90953 8.28447C10.1003 8.10413 10.2777 7.91002 10.4793 7.70213C10.175 7.65412 9.90494 7.60737 9.6336 7.57105C9.49959 7.5531 9.41861 7.48672 9.36518 7.36608C9.26791 7.14776 9.16355 6.93277 9.06044 6.71695C9.04458 6.68397 9.0212 6.65433 8.99156 6.60841C8.88386 6.83718 8.77324 7.0388 8.69309 7.2517C8.60918 7.47378 8.47017 7.58065 8.23181 7.59693C8.00346 7.61279 7.7772 7.6633 7.55011 7.69837L7.50461 7.7685C7.71375 7.95594 7.92248 8.14337 8.13245 8.32997C8.23598 8.42222 8.2627 8.53076 8.23682 8.66727C8.18463 8.94236 8.14498 9.21955 8.09447 9.53055V9.53013Z" fill="#410EAD"/>
<path d="M5.26412 7.74896C5.10257 7.74896 4.94102 7.75189 4.77988 7.74813C4.59662 7.74437 4.50353 7.65086 4.50186 7.4651C4.49894 7.15285 4.49852 6.84018 4.50186 6.52793C4.50395 6.34425 4.59829 6.25158 4.78406 6.24991C5.09631 6.24699 5.40898 6.24657 5.72123 6.24991C5.9049 6.252 5.99758 6.34634 5.99967 6.5321C6.00259 6.84436 6.003 7.15702 5.99967 7.46927C5.99758 7.65253 5.9024 7.74437 5.71705 7.74771C5.56594 7.75063 5.41524 7.74813 5.26412 7.74813V7.74896ZM5.49789 6.7592H5.0124V7.23634H5.49789V6.7592Z" fill="#410EAD"/>
<path d="M12.7401 7.74935C12.584 7.74935 12.4274 7.75269 12.2713 7.74851C12.0968 7.74392 12.0029 7.64999 12.0012 7.47383C11.9979 7.15615 11.9974 6.83848 12.0012 6.5208C12.0033 6.34631 12.0989 6.25238 12.275 6.25071C12.5927 6.24737 12.9104 6.24695 13.2281 6.25071C13.4026 6.2528 13.4965 6.34839 13.4986 6.52456C13.5019 6.84223 13.5023 7.15991 13.4986 7.47759C13.4965 7.65167 13.4001 7.74434 13.2243 7.74851C13.0632 7.75227 12.9016 7.74935 12.7401 7.74935ZM12.5113 6.75624V7.23672H12.9914V6.75624H12.5113Z" fill="#410EAD"/>
<path d="M2.757 8.74931C2.91313 8.74931 3.06967 8.74639 3.2258 8.75015C3.40154 8.75432 3.49756 8.84658 3.49964 9.02107C3.5034 9.33875 3.5034 9.65643 3.49964 9.9741C3.49756 10.1498 3.40321 10.2459 3.22872 10.2479C2.91104 10.2517 2.59336 10.2517 2.27569 10.2479C2.09952 10.2459 2.00393 10.1519 2.00184 9.97703C1.99808 9.65935 1.99808 9.34167 2.00184 9.02399C2.00393 8.84783 2.09744 8.75432 2.27235 8.75015C2.43348 8.74597 2.59503 8.74931 2.75659 8.74931H2.757ZM2.50821 9.73825H2.98869V9.25735H2.50821V9.73825Z" fill="#410EAD"/>
<path d="M5.25064 10.2485C5.08909 10.2485 4.92753 10.2522 4.7664 10.2477C4.60025 10.2426 4.50466 10.1496 4.50215 9.98341C4.49798 9.66073 4.49798 9.33762 4.50215 9.01493C4.50424 8.84837 4.59984 8.75319 4.76598 8.75069C5.08867 8.74651 5.41177 8.74651 5.73446 8.75069C5.9006 8.75278 5.99662 8.84837 5.9987 9.01452C6.00288 9.3372 6.00288 9.66031 5.9987 9.983C5.99662 10.1491 5.9006 10.2426 5.73446 10.2477C5.57333 10.2522 5.41177 10.2485 5.25022 10.2485H5.25064ZM5.00768 9.73795H5.48817V9.25705H5.00768V9.73795Z" fill="#410EAD"/>
<path d="M12.7506 8.74901C12.9122 8.74901 13.0737 8.74525 13.2349 8.74984C13.4006 8.75443 13.4966 8.84836 13.4987 9.0145C13.5029 9.33719 13.5029 9.66029 13.4987 9.98298C13.4966 10.1487 13.4002 10.2447 13.234 10.2468C12.9114 10.251 12.5883 10.251 12.2656 10.2468C12.0994 10.2447 12.0042 10.1487 12.0022 9.98215C11.998 9.65946 11.998 9.33636 12.0022 9.01367C12.0042 8.84752 12.0998 8.75443 12.2664 8.74984C12.4275 8.74525 12.5891 8.74901 12.7506 8.74901ZM12.5135 9.25203V9.73836H12.9886V9.25203H12.5135Z" fill="#410EAD"/>
<path d="M3.50045 12.0142C3.50045 12.1703 3.5042 12.3269 3.49961 12.483C3.4946 12.6491 3.40109 12.7452 3.23495 12.7472C2.91226 12.7514 2.58916 12.7514 2.26647 12.7472C2.10033 12.7452 2.00473 12.6491 2.00264 12.483C1.99847 12.1603 1.99847 11.8372 2.00264 11.5145C2.00473 11.348 2.10033 11.2528 2.26647 11.2507C2.58916 11.2465 2.91226 11.2465 3.23495 11.2507C3.40109 11.2528 3.4946 11.3484 3.49961 11.5145C3.5042 11.6811 3.50045 11.8476 3.50045 12.0142ZM2.99158 12.2409V11.7591H2.51276V12.2409H2.99158Z" fill="#410EAD"/>
<path d="M6.00045 12.0147C6.00045 12.1708 6.0042 12.3274 5.99961 12.4835C5.9946 12.6492 5.90068 12.7456 5.73495 12.7477C5.41226 12.7519 5.08916 12.7519 4.76647 12.7477C4.60033 12.7456 4.50473 12.6496 4.50264 12.4835C4.49847 12.1608 4.49847 11.8377 4.50264 11.515C4.50473 11.3489 4.60033 11.2533 4.76689 11.2512C5.08957 11.247 5.41268 11.247 5.73537 11.2512C5.90151 11.2533 5.99502 11.3489 5.99961 11.5154C6.0042 11.682 6.00045 11.8485 6.00045 12.0151V12.0147ZM5.01235 11.7559V12.2364H5.49241V11.7559H5.01235Z" fill="#410EAD"/>
<path d="M8.50081 12.0087C8.50081 12.1598 8.5029 12.3109 8.5004 12.4616C8.49706 12.6486 8.40647 12.7454 8.2253 12.7475C7.90762 12.7513 7.58994 12.7513 7.27226 12.7475C7.09819 12.7454 7.00426 12.649 7.00218 12.4729C6.99884 12.1552 6.99842 11.8375 7.00218 11.5198C7.00426 11.3453 7.09986 11.2518 7.27644 11.2497C7.59412 11.2464 7.91179 11.246 8.22947 11.2497C8.40355 11.2518 8.4958 11.3478 8.49998 11.524C8.50374 11.6851 8.50081 11.8467 8.50081 12.0082V12.0087ZM7.50812 12.2378H7.9886V11.7569H7.50812V12.2378Z" fill="#410EAD"/>
<path d="M10.2612 12.7491C10.1051 12.7491 9.94898 12.7508 9.79244 12.7487C9.59624 12.7458 9.50273 12.656 9.50106 12.4632C9.49814 12.1559 9.49856 11.8487 9.50106 11.5415C9.50273 11.3453 9.59332 11.2518 9.78618 11.2501C10.0934 11.2472 10.4007 11.2476 10.7079 11.2501C10.9037 11.2518 10.9976 11.3428 10.9997 11.5352C11.0026 11.8424 11.0022 12.1497 10.9997 12.4569C10.998 12.6586 10.9054 12.7466 10.6987 12.7491C10.553 12.7508 10.4069 12.7491 10.2612 12.7491ZM10.4925 12.2428V11.7585H10.0112V12.2428H10.4925Z" fill="#410EAD"/>
<path d="M13.4998 12.0071C13.4998 12.1633 13.5028 12.3198 13.499 12.4759C13.4944 12.6508 13.4013 12.7456 13.226 12.7477C12.9083 12.7514 12.5906 12.7514 12.273 12.7477C12.098 12.7456 12.0033 12.65 12.0012 12.4747C11.9979 12.157 11.9974 11.8393 12.0012 11.5216C12.0033 11.3463 12.098 11.252 12.2738 11.2499C12.5915 11.2461 12.9091 11.2461 13.2268 11.2499C13.4017 11.252 13.4948 11.3472 13.499 11.5225C13.5028 11.6836 13.4998 11.8452 13.4998 12.0067V12.0071ZM12.5059 12.2363H12.9918V11.7583H12.5059V12.2363Z" fill="#410EAD"/>
</svg>
