<svg width="15" height="15" viewBox="0 0 15 15" fill="none" xmlns="http://www.w3.org/2000/svg">
<path d="M7.75426 0C8.08669 0.0957607 8.4319 0.164738 8.74835 0.293519C9.3253 0.528335 9.78839 0.915047 10.2119 1.33661C10.4421 1.56593 10.6514 1.81285 10.866 2.05537C11.0006 2.20763 10.9982 2.33862 10.8704 2.4263C10.7521 2.50739 10.6107 2.474 10.4908 2.32908C10.1364 1.90017 9.75602 1.49328 9.30053 1.15133C8.85982 0.820754 8.38595 0.548514 7.8082 0.46743C7.15253 0.375338 6.58396 0.579701 6.05336 0.905874C5.44444 1.28048 4.96337 1.77653 4.52906 2.30963C3.74433 3.27274 3.1494 4.33235 2.67832 5.45212C2.66913 5.47414 2.66114 5.49688 2.64276 5.54642C4.17186 4.78253 5.81243 4.55138 7.49615 4.55028C9.17987 4.54955 10.8196 4.78143 12.3595 5.54898C12.2724 5.34572 12.2069 5.15787 12.1134 4.98249C11.8289 4.44865 11.534 3.91958 11.2428 3.38868C11.2212 3.34942 11.1948 3.31273 11.1728 3.27384C11.0929 3.13185 11.1193 3.00564 11.2416 2.93996C11.3646 2.87392 11.4981 2.91391 11.588 3.0515C11.6863 3.20193 11.7814 3.35456 11.8721 3.50902C12.3108 4.25713 12.6776 5.03239 12.9776 5.8381C13.171 6.358 13.1235 6.82579 12.7822 7.26607C12.3887 7.77459 11.9811 8.27394 11.5792 8.77696C11.536 8.8309 11.4881 8.8819 11.4178 8.96261C11.612 8.96261 11.7734 8.96188 11.9344 8.96261C12.4666 8.96518 12.8038 9.25907 12.785 9.74594C12.7759 9.9837 12.8586 10.1305 13.0539 10.286C13.6277 10.7421 13.9993 11.335 14.2898 11.9705C14.6406 12.7387 14.8579 13.5419 14.9906 14.3648C15.0529 14.7527 14.802 14.9992 14.3521 14.9992C9.9554 14.9992 5.55831 14.9992 1.16162 14.9992C0.970229 14.9992 0.778843 15.0014 0.587456 14.9985C0.209078 14.993 -0.0498326 14.7512 0.00810278 14.4125C0.0864154 13.9557 0.19869 13.5037 0.305771 13.0517C0.339733 12.9082 0.472784 12.8374 0.600641 12.8679C0.741285 12.9016 0.802017 13.0198 0.764459 13.1867C0.674959 13.5826 0.58426 13.9785 0.496757 14.3747C0.460398 14.5391 0.477579 14.5571 0.652983 14.5578C0.939064 14.5589 1.22554 14.5578 1.51123 14.5578C1.51882 14.028 1.67504 13.8541 2.19446 13.7947V10.665C2.0726 10.7912 1.94874 10.8903 1.86443 11.0125C1.64587 11.3287 1.4441 11.6546 1.23793 11.9778C1.20037 12.0365 1.1768 12.1022 1.14244 12.1627C1.06412 12.3003 0.929475 12.3502 0.801617 12.2919C0.680153 12.2361 0.639798 12.1168 0.705724 11.9763C1.03735 11.2693 1.46208 10.6232 2.12814 10.1323C2.16969 10.1015 2.19766 10.0376 2.20325 9.98663C2.21724 9.85088 2.20205 9.71219 2.22283 9.5779C2.27877 9.22054 2.58443 8.97546 2.97759 8.96445C3.16138 8.95931 3.34518 8.96371 3.56813 8.96371C3.43668 8.81329 3.32161 8.69478 3.22212 8.56563C2.85453 8.08829 2.48614 7.61132 2.13053 7.12702C1.86323 6.76269 1.83886 6.36864 1.98669 5.95257C2.612 4.19292 3.51859 2.57857 4.90664 1.21847C5.45083 0.685368 6.08452 0.261966 6.87404 0.076315C7.00629 0.0443948 7.14174 0.0249491 7.27599 0C7.43541 0 7.59484 0 7.75466 0H7.75426ZM12.31 13.7958V13.6509C12.31 12.3623 12.31 11.0738 12.31 9.78484C12.31 9.49462 12.2077 9.40326 11.8864 9.40326C8.96291 9.40326 6.03937 9.40326 3.11583 9.40326C2.7846 9.40326 2.68871 9.49132 2.68871 9.79584C2.68871 11.0796 2.68871 12.3634 2.68871 13.6472C2.68871 13.6945 2.69311 13.7418 2.6959 13.7958H12.3104H12.31ZM7.34951 5.89534C7.34152 5.91698 7.33353 5.9346 7.32833 5.95294C7.20847 6.37341 6.94276 6.56199 6.46769 6.56309C6.14326 6.56383 5.81922 6.56309 5.49478 6.56309C5.01492 6.56309 4.86548 6.43174 4.8491 5.99623C4.8487 5.98266 4.84071 5.96945 4.83592 5.95477H4.4923C4.65971 7.18132 5.91032 8.37924 7.61521 8.32641C9.18346 8.27798 10.3669 7.10537 10.4992 5.95404H10.1528C10.1508 5.98706 10.1484 6.01091 10.1476 6.03439C10.1384 6.40826 9.96619 6.56199 9.55665 6.56236C9.2378 6.56236 8.91776 6.54915 8.59972 6.56529C8.08109 6.59134 7.73428 6.33378 7.65637 5.91552C7.65517 5.90818 7.64278 5.90267 7.63359 5.8946H7.34911L7.34951 5.89534ZM11.9468 5.82232C11.8641 6.34589 11.4741 6.63244 10.9875 6.59611C10.8616 6.58657 10.8156 6.63794 10.7717 6.73664C10.4389 7.48364 9.88348 8.04904 9.09716 8.41116C8.91257 8.49629 8.95692 8.62397 8.97889 8.74211C9.00207 8.86649 9.08158 8.96408 9.24859 8.96298C9.72166 8.96041 10.1947 8.96445 10.6674 8.95895C10.7265 8.95821 10.8045 8.92776 10.8404 8.8863C11.2727 8.39245 11.7094 7.90117 12.1218 7.39302C12.3012 7.17215 12.4294 6.91605 12.5761 6.67353C12.6624 6.53044 12.6532 6.38588 12.5193 6.27251C12.3343 6.11621 12.1378 5.97165 11.9464 5.82196L11.9468 5.82232ZM3.08747 5.82783C2.94762 5.91442 2.82256 5.97972 2.71268 6.06191C2.30434 6.3668 2.28197 6.47907 2.54048 6.90174C2.98758 7.63297 3.55894 8.28055 4.16267 8.90538C4.19064 8.934 4.24178 8.95931 4.28253 8.95968C4.76599 8.96335 5.24945 8.96408 5.73291 8.96078C5.87795 8.95968 5.93988 8.85328 5.95067 8.74651C5.96186 8.63314 6.04417 8.48931 5.87795 8.40786C5.09203 8.02299 4.53305 7.45319 4.20102 6.69334C4.18224 6.65041 4.10753 6.61152 4.05239 6.60162C3.93892 6.58144 3.81625 6.59868 3.70598 6.5708C3.31481 6.4721 3.12702 6.21601 3.08787 5.82746L3.08747 5.82783ZM13.4823 14.5582C13.7847 14.5582 14.076 14.5542 14.3673 14.56C14.5031 14.5626 14.5355 14.5079 14.5103 14.3982C14.4156 13.9891 14.3413 13.5749 14.223 13.1713C14.0133 12.4537 13.7284 11.7621 13.2501 11.1526C13.1199 10.9868 12.9688 10.8353 12.8006 10.6478V13.7939C13.3276 13.8593 13.4994 14.0489 13.4823 14.5586V14.5582ZM7.49455 14.5582C9.23301 14.5582 10.9719 14.5582 12.7103 14.5582C12.7583 14.5582 12.817 14.574 12.8514 14.5542C12.9097 14.5204 12.9832 14.4705 12.996 14.4166C13.0252 14.294 12.9545 14.2456 12.7755 14.2456C9.25578 14.2456 5.73571 14.2456 2.21604 14.2456C2.17888 14.2456 2.12694 14.2368 2.10816 14.2551C2.06221 14.2992 2.00188 14.3582 2.00388 14.4089C2.00627 14.4591 2.069 14.5197 2.12214 14.552C2.1593 14.5747 2.22523 14.5582 2.27837 14.5582C4.01683 14.5582 5.75569 14.5582 7.49415 14.5582H7.49455ZM5.34135 5.48624V6.11988C5.75409 6.11988 6.15604 6.12465 6.55799 6.11731C6.71022 6.11438 6.82569 6.03402 6.84407 5.8891C6.86086 5.75702 6.84767 5.62163 6.84767 5.48588H5.34135V5.48624ZM9.66013 5.48624H8.14582C8.14582 5.61869 8.13503 5.74491 8.14862 5.86892C8.1642 6.01091 8.26329 6.11034 8.41792 6.11401C8.82946 6.12355 9.2414 6.11731 9.66013 6.11731V5.48661V5.48624ZM6.40856 8.9461H8.52819C8.50782 8.8397 8.49024 8.74945 8.47106 8.64965C7.79741 8.81842 7.12776 8.80888 6.45811 8.63351C6.43973 8.74835 6.42374 8.84851 6.40856 8.9461ZM6.64869 5.00377C6.99431 5.00891 7.2708 5.09329 7.34751 5.44478H7.64798C7.63799 5.43561 7.628 5.42644 7.61801 5.41727C7.71191 5.31123 7.78542 5.17401 7.90569 5.10797C8.02995 5.03936 8.19936 5.03973 8.38076 5.00377H6.64869ZM3.9509 5.50386C3.5961 5.57173 3.52698 5.64915 3.58611 5.90231C3.63086 6.09273 3.78908 6.17932 4.01523 6.13676C3.99405 5.92909 3.97288 5.72143 3.9509 5.50386ZM10.9819 6.1474C11.2679 6.16354 11.4086 6.05751 11.4222 5.82746C11.435 5.61136 11.3299 5.5244 11.047 5.51633C11.0258 5.72363 11.0042 5.93093 10.9819 6.1474ZM4.90823 5.25033C4.40879 5.34536 4.3992 5.34389 4.47232 5.49395H4.83791C4.86189 5.4103 4.88306 5.33655 4.90823 5.25033ZM10.0901 5.24409C10.116 5.33655 10.138 5.4136 10.16 5.49175H10.5951C10.5427 5.41873 10.5212 5.35122 10.4784 5.33655C10.3582 5.29509 10.2291 5.27528 10.0905 5.24409H10.0901Z" fill="#410EAD"/>
<path d="M7.49267 10.8892C8.04126 10.8852 8.48796 11.288 8.49355 11.7921C8.49915 12.2959 8.06124 12.709 7.51385 12.7156C6.95887 12.7226 6.50657 12.3135 6.50537 11.8042C6.50417 11.2994 6.94249 10.8932 7.49267 10.8892ZM8.01249 11.8009C8.01249 11.536 7.78395 11.3295 7.49427 11.3313C7.21179 11.3335 6.98883 11.5375 6.98604 11.7958C6.98324 12.0603 7.21019 12.2728 7.49667 12.2742C7.78355 12.2753 8.01289 12.0651 8.01249 11.8009Z" fill="#410EAD"/>
</svg>
