<svg width="16" height="15" viewBox="0 0 16 15" fill="none" xmlns="http://www.w3.org/2000/svg">
<path d="M7.73909 0.000831521C7.74449 0.0827501 7.75406 0.164669 7.75447 0.247003C7.75655 0.491095 7.75156 0.735188 7.75655 0.97928C7.7632 1.30196 7.96197 1.49657 8.28258 1.49824C8.6876 1.50032 9.09303 1.49283 9.49805 1.50115C9.89558 1.50946 10.205 1.68578 10.3888 2.04214C10.563 2.38021 10.5464 2.72286 10.3405 3.04388C10.1671 3.31375 9.91388 3.46636 9.59078 3.49339C9.51801 3.49963 9.44441 3.49963 9.37122 3.49963C8.12165 3.49963 6.87208 3.49963 5.62251 3.50088C5.53061 3.50088 5.43455 3.5042 5.34723 3.52915C5.13058 3.59111 4.9971 3.8011 5.00999 4.03646C5.02205 4.25727 5.18256 4.44398 5.40212 4.48639C5.46366 4.49845 5.52812 4.50178 5.59132 4.50178C5.96723 4.50303 6.34314 4.49928 6.71864 4.50344C7.33282 4.51051 7.74158 4.91844 7.75489 5.53429C7.75821 5.6844 7.7553 5.83452 7.7553 5.99877H8.25305V7.00133H8.42812C9.27267 7.00133 10.1172 7.01589 10.9614 6.99842C12.9598 6.95642 14.718 8.69626 14.9679 10.4498C14.9783 10.5218 14.9924 10.5929 15.0045 10.6644V11.338C14.9662 11.5385 14.9363 11.741 14.8889 11.9389C14.4419 13.8085 12.7116 15.0992 10.7925 14.994C10.1126 14.9566 9.48516 14.7499 8.89967 14.401C7.96946 13.8463 7.03342 13.8476 6.10321 14.4039C3.67809 15.8544 0.620071 14.515 0.0786596 11.746C-0.206184 10.2881 0.296555 9.07674 1.36025 8.08041C1.93908 7.53859 2.61647 7.17515 3.40655 7.04957C3.62237 7.01506 3.84359 7.00466 4.06231 7.00341C4.90188 6.99842 5.74144 7.00133 6.581 7.00133C6.63339 7.00133 6.68537 7.00133 6.75149 7.00133V6.00459H7.24051C7.24051 5.78628 7.25839 5.58543 7.23593 5.38916C7.21015 5.16503 6.99891 5.00701 6.75232 5.00452C6.3473 4.99994 5.94187 5.00618 5.53685 5.00202C5.03286 4.99662 4.64489 4.69389 4.53137 4.22484C4.39498 3.66222 4.79043 3.08629 5.36345 3.01477C5.45535 3.00354 5.54849 2.99897 5.64081 2.99897C6.90992 2.99814 8.17903 2.99897 9.44815 2.99772C9.75669 2.99772 9.97001 2.8264 9.99704 2.56359C10.0295 2.24424 9.81034 2.00347 9.47268 1.9989C9.08721 1.99391 8.70132 1.99848 8.31584 1.99723C7.67588 1.99557 7.25922 1.58722 7.25506 0.948925C7.25298 0.632894 7.26462 0.316447 7.27003 0C7.42638 0 7.58232 0 7.73867 0L7.73909 0.000831521ZM7.50456 7.50033C6.36227 7.50033 5.21957 7.50615 4.07728 7.49825C3.37536 7.49326 2.73207 7.67789 2.16654 8.08582C0.968121 8.94991 0.315683 10.0747 0.559775 11.6012C0.866242 13.5153 2.80235 14.8347 4.69978 14.4285C5.12933 14.3366 5.52105 14.1615 5.9007 13.944C6.96273 13.3357 8.04056 13.3224 9.09719 13.9411C9.9355 14.4322 10.8112 14.6173 11.7652 14.4143C13.5291 14.0388 14.74 12.2878 14.471 10.5072C14.2448 9.00855 12.69 7.46415 10.9755 7.49617C9.81865 7.5178 8.6614 7.50033 7.50456 7.50033ZM7.26296 6.50816V6.99219H7.74449V6.50816H7.26296Z" fill="#410EAD"/>
<path d="M4.75321 11.7492C4.75321 12.0794 4.75404 12.3863 4.75321 12.6936C4.75238 12.9077 4.66506 12.9996 4.4534 13.0017C4.15566 13.005 3.85793 13.005 3.5602 13.0017C3.34687 12.9996 3.25789 12.9077 3.25706 12.6961C3.25581 12.3888 3.25706 12.0811 3.25706 11.7492C3.20549 11.7492 3.15934 11.7492 3.11359 11.7492C2.8354 11.7492 2.55721 11.7517 2.27902 11.748C2.11019 11.7459 2.0104 11.6544 2.00707 11.4873C2.00083 11.1654 2.00125 10.8427 2.00624 10.5209C2.00915 10.3441 2.10687 10.2543 2.28484 10.2527C2.60171 10.2502 2.91815 10.2518 3.25706 10.2518C3.25706 10.1579 3.25706 10.0722 3.25706 9.98653C3.25706 9.74743 3.25498 9.50791 3.2583 9.26881C3.26038 9.10788 3.35103 9.00392 3.50697 9.0006C3.8388 8.99394 4.17105 8.99394 4.50288 9.0006C4.66506 9.00392 4.7528 9.10788 4.75404 9.28045C4.75612 9.5969 4.75488 9.91376 4.75488 10.2514C4.97776 10.2514 5.19067 10.2514 5.40316 10.2514C5.51543 10.2514 5.6277 10.2493 5.73998 10.2522C5.90007 10.2564 6.00278 10.3454 6.00569 10.503C6.01193 10.8348 6.01276 11.1671 6.00569 11.4985C6.00237 11.6594 5.8955 11.7467 5.72293 11.748C5.40648 11.7505 5.09045 11.7488 4.75529 11.7488L4.75321 11.7492ZM5.50711 10.7512C5.19815 10.7512 4.90624 10.7512 4.61474 10.7512C4.32699 10.7512 4.25422 10.6768 4.25422 10.3853C4.25422 10.0942 4.25422 9.80315 4.25422 9.50957H3.75522C3.75522 9.82311 3.75564 10.1254 3.75522 10.4277C3.7548 10.6668 3.66956 10.7508 3.42671 10.7517C3.20217 10.7525 2.97762 10.7517 2.75307 10.7517C2.67281 10.7517 2.59214 10.7517 2.51272 10.7517V11.2507C2.73061 11.2507 2.93978 11.254 3.14852 11.2498C3.75106 11.2382 3.76811 11.2477 3.75605 11.8507C3.75189 12.0636 3.75522 12.2765 3.75522 12.4911H4.25422C4.25422 12.1817 4.25422 11.8844 4.25422 11.5871C4.25463 11.333 4.33489 11.2515 4.58397 11.2507C4.78897 11.2502 4.99398 11.2507 5.19898 11.2507H5.50753V10.7517L5.50711 10.7512Z" fill="#410EAD"/>
<path d="M11.0251 11.5027C11.5774 11.5156 12.0186 11.9726 12.0036 12.5169C11.9886 13.0712 11.5362 13.5103 10.9906 13.5004C10.4434 13.4908 9.99513 13.0321 10.003 12.4899C10.0113 11.9331 10.47 11.4898 11.0247 11.5027H11.0251ZM10.9981 12.0034C10.7203 12.0063 10.497 12.2346 10.5041 12.5094C10.5108 12.7793 10.7345 12.9997 11.0027 13.0005C11.2776 13.0014 11.5033 12.7743 11.5025 12.4974C11.5017 12.2188 11.2784 12.0005 10.9981 12.003V12.0034Z" fill="#410EAD"/>
<path d="M8.2583 10.9961C8.26038 10.4451 8.70573 9.99937 9.25505 9.99854C9.80644 9.99812 10.2622 10.4589 10.2559 11.0103C10.2493 11.5579 9.79438 12.0045 9.24839 11.9991C8.697 11.9937 8.25664 11.5475 8.25872 10.9961H8.2583ZM8.75854 10.999C8.75854 11.2793 8.97935 11.4997 9.25837 11.4976C9.52991 11.4955 9.75072 11.2776 9.75612 11.0073C9.76153 10.735 9.53407 10.5021 9.2592 10.4996C8.98268 10.4971 8.75896 10.7204 8.75854 10.999Z" fill="#410EAD"/>
<path d="M11.0056 10.4967C10.455 10.4971 10.0072 10.0538 10.0034 9.50452C9.99929 8.95438 10.4588 8.49571 11.0106 8.49904C11.5582 8.50237 12.0065 8.95479 12.0044 9.50202C12.0023 10.053 11.557 10.4963 11.006 10.4967H11.0056ZM11.0039 9.99645C11.2838 9.99645 11.5042 9.77522 11.5021 9.49579C11.5 9.22425 11.2821 9.00344 11.0114 8.99845C10.7382 8.99346 10.507 9.22009 10.5037 9.49537C10.5008 9.77065 10.7257 9.99603 11.0035 9.99603L11.0039 9.99645Z" fill="#410EAD"/>
<path d="M13.7503 10.9978C13.7511 11.55 13.3112 11.9945 12.759 11.9991C12.2063 12.0037 11.7514 11.5483 11.7539 10.9936C11.7564 10.4472 12.2101 9.99605 12.7557 9.99855C13.3054 10.0006 13.7491 10.4468 13.7499 10.9978H13.7503ZM13.2509 10.999C13.2509 10.7213 13.0255 10.4963 12.7498 10.4992C12.48 10.5021 12.2579 10.7225 12.2537 10.9924C12.2496 11.2685 12.4729 11.4951 12.7507 11.4972C13.0301 11.4993 13.2513 11.2789 13.2509 10.999Z" fill="#410EAD"/>
</svg>
