<svg width="15" height="15" viewBox="0 0 15 15" fill="none" xmlns="http://www.w3.org/2000/svg">
<path d="M0.000391139 9.69605V5.30199C0.390814 5.30199 0.780845 5.29925 1.17127 5.30395C1.26203 5.30512 1.31328 5.28281 1.3434 5.19202C1.3833 5.07227 1.43338 4.95486 1.49088 4.84255C1.53509 4.75684 1.51475 4.70479 1.44902 4.64179C1.24834 4.44924 1.07229 4.22696 0.853609 4.05868C0.50661 3.79178 0.366559 3.46343 0.438541 3.03686C0.445582 2.99421 0.445191 2.94803 0.437367 2.90576C0.43189 2.87719 0.413895 2.83767 0.390814 2.82749C0.177998 2.73161 0.0688521 2.55433 0 2.34339C0 2.25534 0 2.16768 0 2.07963C0.0168218 2.04558 0.0348171 2.01271 0.0496829 1.97788C0.168609 1.69924 0.432673 1.54113 0.727641 1.57244C1.02183 1.60375 1.25029 1.81507 1.30819 2.10937C1.3657 2.40288 1.22134 2.65765 0.879037 2.85724C0.879037 3.03295 0.877473 3.21336 0.880602 3.39338C0.880994 3.4243 0.893121 3.46304 0.914246 3.48418C1.18809 3.76125 1.46467 4.03559 1.72795 4.29857C2.055 3.86809 2.37735 3.44348 2.70284 3.01534C2.70675 3.02082 2.70166 3.01221 2.69501 3.00517C2.49511 2.80479 2.29051 2.60873 2.09803 2.40131C2.04835 2.3477 2.01392 2.26004 2.01079 2.18646C2.00062 1.92309 2.01158 1.65932 2.00258 1.39594C2.00062 1.34193 1.95915 1.26914 1.91377 1.24057C1.6368 1.06603 1.5081 0.770957 1.59338 0.47588C1.67397 0.196457 1.93529 0 2.22596 0C2.52288 0 2.78929 0.204284 2.86323 0.488794C2.9399 0.782697 2.8112 1.07034 2.54009 1.24018C2.49432 1.26875 2.45286 1.34115 2.45051 1.39516C2.44034 1.60962 2.44464 1.82447 2.44777 2.03932C2.44816 2.0808 2.45286 2.1352 2.47828 2.16142C2.66371 2.35357 2.85462 2.54024 3.0471 2.73122C4.26413 1.6781 5.66739 1.15174 7.28345 1.12278V5.29299H7.72356V1.12278C9.33845 1.15174 10.7425 1.68358 11.947 2.7277C12.3513 2.38201 12.5527 1.95309 12.5514 1.44095C12.5514 1.42647 12.5565 1.40885 12.5506 1.39751C12.5225 1.3435 12.5045 1.26993 12.4591 1.24136C12.1817 1.06642 12.053 0.772131 12.1379 0.477054C12.2181 0.197631 12.4794 0.000782631 12.7701 0.000391283C13.067 -6.56778e-08 13.3334 0.203893 13.4082 0.488794C13.4852 0.782697 13.3565 1.07112 13.0858 1.24057C13.04 1.26914 12.9974 1.34154 12.9954 1.39516C12.986 1.64875 12.9853 1.90274 12.9939 2.15633C12.9978 2.27452 12.9598 2.3567 12.8749 2.43654C12.6696 2.62908 12.4732 2.83062 12.2913 3.01064C12.6242 3.44895 12.9446 3.87122 13.2716 4.30249C13.5341 4.03911 13.8099 3.76438 14.0822 3.48652C14.1057 3.46265 14.1162 3.41726 14.117 3.38164C14.1205 3.20632 14.1186 3.0306 14.1186 2.85567C14.0713 2.82906 14.0278 2.80675 13.9868 2.78092C13.7563 2.63534 13.6366 2.3567 13.6922 2.09841C13.7575 1.79472 14.0028 1.58496 14.3111 1.56931C14.6064 1.55444 14.8803 1.74737 14.9671 2.0311C15.0583 2.32813 14.9386 2.63886 14.6604 2.79579C14.5806 2.8408 14.5524 2.88659 14.556 2.97581C14.5634 3.16092 14.5642 3.3472 14.5548 3.53192C14.5517 3.59258 14.5235 3.66498 14.4816 3.70803C14.2172 3.98197 13.9457 4.24887 13.6765 4.51812C13.5357 4.659 13.5039 4.81946 13.5811 4.99948C13.6096 5.06679 13.6398 5.1341 13.6605 5.20376C13.684 5.28242 13.7286 5.30629 13.8103 5.30434C14.054 5.29847 14.2985 5.30238 14.5423 5.30238C14.6913 5.30238 14.8408 5.30238 14.9859 5.30238V9.69644H14.0083C13.8085 9.69644 13.669 9.79063 13.5897 9.979C13.565 10.0373 13.5423 10.0972 13.5103 10.1516C13.4625 10.2322 13.4786 10.2874 13.5459 10.3531C13.86 10.6603 14.171 10.9707 14.4765 11.2861C14.5211 11.3323 14.552 11.4102 14.5548 11.4747C14.5642 11.6986 14.5583 11.9228 14.5583 12.1416C14.9006 12.3392 15.0457 12.5956 14.9875 12.8898C14.926 13.1994 14.6753 13.4162 14.3627 13.4303C14.0673 13.4436 13.7955 13.2495 13.7094 12.9646C13.6198 12.6676 13.7422 12.3541 14.02 12.2019C14.0947 12.1608 14.1108 12.1158 14.1233 12.0359C14.1792 11.6849 14.0689 11.4102 13.7794 11.2055C13.752 11.1859 13.7305 11.1577 13.7066 11.1335C13.5576 10.9828 13.4089 10.8321 13.2744 10.6959C12.9411 11.1339 12.6203 11.5557 12.2901 11.9894C12.4763 12.1725 12.675 12.3741 12.8804 12.5682C12.9606 12.6437 12.9986 12.722 12.9947 12.8355C12.9861 13.084 12.9962 13.3332 12.99 13.5821C12.9876 13.6765 13.0173 13.7269 13.1022 13.7755C13.3342 13.9085 13.443 14.1202 13.425 14.3871C13.4066 14.6548 13.2646 14.8403 13.0201 14.9487C12.9857 14.964 12.9524 14.982 12.9188 14.9988H12.6258C12.6148 14.9902 12.6054 14.9773 12.5933 14.9734C12.3167 14.881 12.1477 14.6947 12.1211 14.4016C12.0949 14.1097 12.2244 13.8952 12.4771 13.7485C12.5135 13.7273 12.5475 13.6686 12.5487 13.6264C12.5557 13.397 12.553 13.1677 12.5506 12.938C12.5506 12.9055 12.5459 12.8628 12.526 12.8425C12.3363 12.6488 12.1426 12.459 11.9501 12.2684C10.7315 13.3199 9.33102 13.8475 7.71926 13.876V9.70936H7.27485V13.8764C5.66426 13.8459 4.25944 13.318 3.04279 12.2637C2.85462 12.4535 2.67037 12.6343 2.49393 12.8221C2.46224 12.8558 2.45051 12.918 2.44933 12.9677C2.44464 13.1728 2.45168 13.3779 2.44542 13.5829C2.44229 13.6772 2.47242 13.7277 2.55731 13.7763C2.78929 13.9093 2.89844 14.121 2.88005 14.3879C2.86166 14.6556 2.71966 14.8415 2.47515 14.9499C2.44073 14.9652 2.40748 14.9832 2.37383 15H2.08082C2.06987 14.9914 2.06048 14.9785 2.04835 14.9746C1.77177 14.8822 1.60316 14.6959 1.57656 14.4032C1.54995 14.1116 1.67944 13.8976 1.93138 13.7496C1.97011 13.7269 2.00297 13.6608 2.00453 13.6142C2.01158 13.3509 2.01236 13.0875 2.00571 12.8241C2.00336 12.7227 2.03466 12.6511 2.10781 12.5819C2.31828 12.3819 2.5221 12.1752 2.70831 11.9913C2.37266 11.5491 2.05265 11.1272 1.72991 10.7018C1.46897 10.9621 1.19552 11.2333 0.924808 11.5068C0.900554 11.5315 0.88295 11.5737 0.882167 11.6086C0.877864 11.7886 0.880211 11.9686 0.880211 12.1463C0.917767 12.1666 0.948281 12.1819 0.977621 12.1991C1.23269 12.3467 1.3657 12.6335 1.30545 12.9059C1.24012 13.2006 1.01166 13.4029 0.71434 13.4295C0.427587 13.455 0.168218 13.2957 0.0512478 13.0229C0.036382 12.9885 0.0179953 12.9552 0.00156471 12.9212C0.00156471 12.8331 0.00156471 12.7454 0.00156471 12.6574C0.0700256 12.4461 0.179563 12.2703 0.391596 12.1721C0.418589 12.1596 0.437758 12.1028 0.438932 12.0661C0.443626 11.8903 0.447538 11.7146 0.438932 11.5393C0.433064 11.4188 0.466708 11.3315 0.556685 11.245C0.859477 10.9546 1.15053 10.6521 1.45059 10.359C1.51553 10.2952 1.53665 10.2439 1.49245 10.1582C1.43455 10.0459 1.38487 9.92851 1.34496 9.80876C1.31445 9.71797 1.26359 9.69566 1.17283 9.69683C0.782801 9.70192 0.392379 9.69879 0.001956 9.69879L0.000391139 9.69605ZM14.5505 5.75165H0.451842V9.26283H11.8821V9.69644C11.6286 9.69644 11.3848 9.70114 11.1415 9.69409C11.0418 9.69136 11.0042 9.71797 10.9756 9.82128C10.8642 10.2248 10.7401 10.6251 10.6118 11.0235C10.5602 11.184 10.4859 11.337 10.4248 11.4857C10.762 11.7017 11.0891 11.9115 11.424 12.1259C12.2255 11.4763 12.8315 10.6779 13.2302 9.69136H12.3421V9.25344H14.5505V5.75204V5.75165ZM4.5372 11.508C4.36115 10.9382 4.18472 10.3821 4.02159 9.82246C3.99225 9.72188 3.95821 9.69331 3.85689 9.69409C3.20319 9.69879 2.54948 9.69644 1.89578 9.69683C1.85979 9.69683 1.8238 9.70231 1.77138 9.70662C2.17236 10.6862 2.77638 11.4865 3.57405 12.1252C3.91518 11.9068 4.23831 11.6994 4.5372 11.508ZM1.77685 5.28047C1.80072 5.29221 1.80893 5.29925 1.81715 5.29964C2.51467 5.30082 3.21218 5.30277 3.9097 5.29808C3.94374 5.29808 3.99616 5.24603 4.00829 5.20807C4.05327 5.06405 4.07636 4.91338 4.12291 4.77015C4.26218 4.34553 4.40888 3.92327 4.55284 3.49944C4.23949 3.29868 3.91244 3.08891 3.57405 2.8725C2.77364 3.51627 2.16884 4.31697 1.77685 5.28047ZM13.2286 5.30199C12.8292 4.31775 12.2236 3.51744 11.424 2.8725C11.0864 3.08891 10.7589 3.29829 10.4284 3.51001C10.4295 3.51862 10.4284 3.53427 10.4342 3.54679C10.6791 4.0802 10.8599 4.63513 10.9827 5.20846C11.003 5.30434 11.0578 5.30277 11.1298 5.30238C11.6321 5.30121 12.1348 5.3016 12.6371 5.3016C12.826 5.3016 13.015 5.3016 13.2282 5.3016L13.2286 5.30199ZM6.83865 5.2969C6.83865 4.9396 6.84178 4.59404 6.83357 4.24848C6.83279 4.21717 6.76589 4.16904 6.72247 4.15964C6.38994 4.08607 6.05272 4.03246 5.72294 3.94832C5.471 3.88413 5.22845 3.78473 4.97652 3.69903C4.73867 4.21326 4.56301 4.74041 4.44409 5.2969H6.83826H6.83865ZM8.15897 5.29455H10.5528C10.4307 4.73571 10.2578 4.20308 10.0141 3.68768C9.43586 3.93227 8.84945 4.08764 8.24152 4.16238C8.21139 4.16591 8.16327 4.2113 8.16288 4.23752C8.15741 4.58739 8.15936 4.93725 8.15936 5.29455H8.15897ZM8.15897 9.70153C8.15897 10.06 8.15584 10.406 8.16406 10.7511C8.16484 10.782 8.23369 10.8329 8.27594 10.8388C8.83889 10.9143 9.38501 11.0517 9.9104 11.2689C9.94404 11.283 9.98042 11.2904 10.0207 11.3025C10.257 10.7844 10.4346 10.258 10.5528 9.70153H8.15897ZM4.44409 9.70388C4.56927 10.2647 4.73906 10.7985 4.98552 11.3104C5.5602 11.0658 6.1427 10.9135 6.74555 10.8368C6.77958 10.8325 6.83474 10.7856 6.83552 10.7574C6.84178 10.4083 6.83944 10.0588 6.83944 9.70349H4.44448L4.44409 9.70388ZM6.83044 1.68828C6.06289 2.01466 5.58367 2.60442 5.18816 3.28576C5.50034 3.45991 6.52804 3.74012 6.83044 3.70451V1.68828ZM8.16953 11.2748V13.309C8.93786 12.983 9.41435 12.3913 9.81455 11.706C9.27938 11.4779 8.74187 11.3382 8.16953 11.2748ZM5.18307 11.7048C5.58758 12.396 6.06407 12.9873 6.83005 13.3086V11.2755C6.25928 11.3354 5.72333 11.4802 5.18307 11.7048ZM9.81338 3.29281C9.41357 2.60442 8.93512 2.01427 8.1711 1.69023V3.72486C8.74382 3.6595 9.28212 3.52057 9.81338 3.2932V3.29281ZM10.2191 3.11944C10.4992 2.94412 10.7652 2.77701 11.05 2.59855C10.4538 2.1986 9.83881 1.91761 9.16359 1.76459C9.59078 2.14733 9.92604 2.59738 10.2191 3.11944ZM11.0504 12.3991C10.7624 12.2199 10.4933 12.052 10.2183 11.881C9.92565 12.4022 9.59 12.8523 9.16319 13.2354C9.83763 13.0789 10.455 12.8018 11.0508 12.3995L11.0504 12.3991ZM4.77935 3.11827C5.07197 2.59503 5.40841 2.14576 5.83443 1.76342C5.1596 1.91917 4.54345 2.19625 3.94843 2.59855C4.23284 2.77623 4.49925 2.94294 4.77935 3.11827ZM3.95978 12.3921C4.35646 12.7259 5.54142 13.2464 5.84382 13.2209C5.3998 12.848 5.06962 12.3921 4.77779 11.8802C4.49964 12.0543 4.23284 12.221 3.95978 12.3917V12.3921ZM14.5563 2.22051C14.5536 2.0988 14.4488 2.00292 14.3259 2.00957C14.2082 2.01584 14.117 2.11328 14.1198 2.2299C14.1225 2.35201 14.2262 2.44671 14.3502 2.44045C14.4675 2.43458 14.5595 2.33635 14.5567 2.22051H14.5563ZM0.877864 2.22677C0.878646 2.11054 0.785148 2.01388 0.668178 2.00918C0.544557 2.00449 0.442061 2.10154 0.441279 2.22364C0.440497 2.34026 0.533212 2.43654 0.650965 2.44084C0.774586 2.44554 0.877473 2.34848 0.878255 2.22677H0.877864ZM12.7697 0.440267C12.6531 0.44105 12.5581 0.534974 12.5553 0.652769C12.5522 0.776436 12.6504 0.878186 12.7725 0.877403C12.8945 0.876621 12.9911 0.773696 12.9868 0.650421C12.9825 0.533017 12.8863 0.439876 12.7697 0.440659V0.440267ZM2.44268 0.660596C2.44386 0.543583 2.35153 0.445355 2.23574 0.440267C2.11446 0.434788 2.01158 0.533799 2.0104 0.656683C2.00962 0.774087 2.10116 0.871925 2.21735 0.877403C2.33823 0.882882 2.44151 0.78348 2.44268 0.660596ZM0.877864 12.7732C0.877864 12.657 0.784366 12.5611 0.667004 12.5572C0.542992 12.5533 0.441279 12.65 0.441279 12.7724C0.441279 12.8887 0.535169 12.9849 0.652139 12.9889C0.774977 12.9932 0.877864 12.8945 0.878255 12.7732H0.877864ZM14.331 12.9893C14.4539 12.9932 14.5567 12.8942 14.5563 12.7728C14.5563 12.6566 14.4625 12.5607 14.3447 12.5576C14.2207 12.5541 14.1194 12.6511 14.1194 12.7736C14.1194 12.8898 14.2137 12.9861 14.3306 12.9896L14.331 12.9893ZM2.22283 14.121C2.10038 14.123 2.00493 14.2259 2.01079 14.35C2.01627 14.4678 2.11329 14.5597 2.22948 14.5578C2.35114 14.5558 2.44699 14.4521 2.44151 14.3284C2.43603 14.211 2.33901 14.1191 2.22244 14.1206L2.22283 14.121ZM12.7685 14.121C12.652 14.1222 12.5573 14.2169 12.5549 14.3343C12.5526 14.458 12.6512 14.5593 12.7732 14.5578C12.8949 14.5562 12.9915 14.4533 12.9864 14.3296C12.9817 14.2122 12.8851 14.1195 12.7685 14.121Z" fill="#410EAD"/>
<path d="M5.08478 8.58262V7.07475C4.85154 7.335 4.64882 7.56081 4.43475 7.79992C4.21834 7.55924 4.00623 7.32365 3.76711 7.05754V8.58301H3.33154V6.41416C3.555 6.41064 3.77416 6.34372 3.94283 6.58518C4.08098 6.78281 4.26256 6.95031 4.43319 7.14011C4.59795 6.95657 4.77601 6.79807 4.90398 6.60631C5.06522 6.36485 5.27889 6.39381 5.51488 6.41807V8.58262H5.08478Z" fill="#410EAD"/>
<path d="M11.6586 8.58864H11.2414V8.17303H10.3597V8.58669H9.91631C9.91631 8.46732 9.91631 8.35657 9.91631 8.24621C9.91787 7.90496 9.9077 7.56331 9.92374 7.22284C9.94409 6.79509 10.2795 6.4511 10.688 6.41235C11.1404 6.3693 11.5255 6.62916 11.6422 7.05612C11.6484 7.0796 11.6574 7.10347 11.6574 7.12735C11.6582 7.60871 11.6582 8.09046 11.6582 8.58903L11.6586 8.58864ZM11.225 7.71163C11.225 7.53161 11.2375 7.36959 11.2218 7.2107C11.2031 7.02168 11.0504 6.87962 10.8681 6.85145C10.6747 6.8217 10.4826 6.91171 10.4059 7.08626C10.3167 7.28897 10.3581 7.50148 10.3683 7.71202H11.2254L11.225 7.71163Z" fill="#410EAD"/>
<path d="M7.27134 6.41797V6.83671H6.41311V7.27072H6.82873V7.71685H6.41037V8.15203H7.26978V8.58291H5.97559V6.41797H7.27095H7.27134Z" fill="#410EAD"/>
<path d="M8.38128 8.58839V6.84376H7.73242V6.41797H9.47392V6.83632H8.82468V8.58839H8.38128Z" fill="#410EAD"/>
<path d="M1.3417 6.18848V6.60996H0.91748V6.18848H1.3417Z" fill="#410EAD"/>
<path d="M2.21992 6.18848V6.60879H1.79688V6.18848H2.21992Z" fill="#410EAD"/>
</svg>
