<svg width="15" height="14" viewBox="0 0 15 14" fill="none" xmlns="http://www.w3.org/2000/svg">
<path d="M0 4.20523C0.0570542 3.89008 0.0918571 3.56914 0.174586 3.26153C0.46328 2.18516 1.07547 1.33588 1.99633 0.730501C3.66288 -0.365561 5.80755 -0.176705 7.33147 1.04159C7.38453 1.08388 7.43873 1.12501 7.47581 1.1534C7.7879 0.952379 8.07659 0.739771 8.38811 0.570611C9.33635 0.0544419 10.3519 -0.13036 11.4046 0.0938346C13.2377 0.483134 14.405 1.61801 14.8706 3.46313C15.0988 4.36917 15.011 5.27349 14.7183 6.15462C14.352 7.2588 13.6959 8.18396 12.9536 9.05351C12.2296 9.90105 11.4308 10.6733 10.6109 11.4229C9.75513 12.205 8.89076 12.9778 8.02696 13.7506C7.65839 14.0802 7.3366 14.0843 6.97374 13.7558C5.54966 12.4668 4.11874 11.186 2.7135 9.87614C2.01515 9.22557 1.40296 8.48984 0.903168 7.66547C0.401662 6.83821 0.090716 5.94781 0.0216804 4.97456C0.0188277 4.93574 0.00741705 4.89751 0 4.85928C0 4.64145 0 4.42305 0 4.20523ZM7.49236 12.388C7.53743 12.3498 7.56824 12.3255 7.59677 12.2994C8.52903 11.4478 9.47214 10.6078 10.3907 9.74058C11.2562 8.92375 12.0869 8.06984 12.7522 7.06878C13.2537 6.31393 13.6086 5.50463 13.6245 4.57251C13.6382 3.77364 13.4134 3.05819 12.8994 2.44759C11.9591 1.33183 10.3707 1.11053 9.10357 1.74894C8.66882 1.96792 8.30823 2.28017 7.97561 2.63413C7.73541 2.88961 7.36399 2.91278 7.0964 2.70654C7.01139 2.64108 6.94121 2.55592 6.8659 2.47887C6.04946 1.6464 5.0744 1.27679 3.91848 1.43553C2.7329 1.59889 1.73787 2.5061 1.46686 3.68616C1.22495 4.73936 1.42578 5.73056 1.91816 6.67021C2.29757 7.39435 2.8025 8.02755 3.37989 8.59238C4.20147 9.39705 5.04816 10.1756 5.89199 10.956C6.4146 11.4391 6.9532 11.9055 7.49236 12.3869V12.388Z" fill="#410EAD"/>
<path d="M8.40794 9.30129H6.59077V7.46718H4.7793V5.62206H6.5862V3.77637H8.4011V5.61511H10.216V7.46197H8.40737V9.30129H8.40794Z" fill="#410EAD"/>
</svg>
