<svg width="15" height="15" viewBox="0 0 15 15" fill="none" xmlns="http://www.w3.org/2000/svg">
<path d="M0.585791 14.9997C0.263698 14.8934 0.0288812 14.7069 0.00221323 14.37C-0.00956223 14.2224 0.0281885 14.07 0.0555492 13.9219C0.155641 13.3747 0.242571 12.8249 0.368638 12.2829C0.512021 11.6672 0.900265 11.2015 1.4738 10.8769C1.58047 10.8165 1.61857 10.7535 1.61822 10.6371C1.61407 8.76455 1.61545 6.89197 1.61545 5.01938C1.61545 4.39941 1.91746 4.11445 2.57377 4.11412C2.63541 4.11412 2.69706 4.11412 2.78261 4.11412C2.78261 3.89219 2.77222 3.67936 2.78676 3.46783C2.79473 3.35053 2.82036 3.22251 2.88131 3.12243C2.97725 2.96484 3.15423 2.9226 3.3416 2.93267C3.4403 2.93787 3.51407 2.92584 3.57295 2.82999C3.61278 2.76533 3.70109 2.70814 3.77937 2.68767C3.87461 2.66297 3.8992 2.61326 3.91478 2.53755C4.13713 1.45163 4.81803 0.710457 5.89618 0.306241C7.09173 -0.14184 8.28729 -0.102198 9.43851 0.451486C10.3386 0.884296 10.8872 1.58387 11.0847 2.51805C11.1034 2.60676 11.1221 2.66362 11.2318 2.69092C11.3091 2.71009 11.3912 2.7741 11.4334 2.83974C11.4871 2.92325 11.5501 2.93332 11.6384 2.93364C12.043 2.93559 12.2179 3.10098 12.2182 3.47725C12.2189 4.05271 12.2189 4.62816 12.2182 5.20362C12.2179 5.56105 12.0371 5.73261 11.6554 5.73358C11.5564 5.73358 11.4871 5.74626 11.4268 5.83984C11.3326 5.98671 11.1608 6.0127 10.9859 6.0179C10.9492 6.2356 10.924 6.45298 10.8741 6.66516C10.7362 7.25427 10.4079 7.74329 9.95144 8.16083C9.78416 8.31387 9.6103 8.46139 9.44925 8.62028C9.39869 8.67032 9.35712 8.74863 9.35297 8.81589C9.3405 9.01995 9.34674 9.22531 9.34881 9.43001C9.35228 9.7491 9.52787 9.95315 9.8562 10.0185C10.8512 10.2167 11.8462 10.4155 12.8416 10.6111C13.7393 10.7876 14.5414 11.5794 14.6744 12.4259C14.6935 12.5477 14.6197 12.6582 14.502 12.6845C14.3807 12.7118 14.2696 12.6504 14.2228 12.5289C14.1473 12.333 14.0967 12.1244 13.9932 11.9427C13.704 11.4361 13.2416 11.1382 12.6428 11.0202C11.83 10.8607 11.0178 10.6992 10.2063 10.5328C10.0772 10.5062 9.97568 10.5195 9.85758 10.5835C8.28764 11.4339 6.71319 11.4332 5.14151 10.5851C5.04384 10.5325 4.95899 10.4977 4.83881 10.5224C3.99721 10.6956 3.15353 10.8591 2.31159 11.03C1.50012 11.1947 0.914811 11.7799 0.774199 12.5578C0.674107 13.1099 0.573323 13.6619 0.473232 14.2143C0.436866 14.4154 0.53765 14.5558 0.741989 14.5581C1.27708 14.5643 1.81182 14.56 2.36458 14.56C2.41618 14.2696 2.46744 13.9833 2.51731 13.6967C2.56164 13.4419 2.6032 13.1869 2.64823 12.9321C2.67801 12.7638 2.78399 12.6725 2.92183 12.692C3.06245 12.7118 3.13864 12.8204 3.11093 12.9932C3.03751 13.4458 2.95612 13.8972 2.87854 14.3495C2.86711 14.4154 2.85811 14.4814 2.84703 14.5539H12.1583C12.0683 14.0366 11.9775 13.5274 11.894 13.0176C11.8823 12.9451 11.8816 12.8489 11.9231 12.797C11.9675 12.7417 12.0676 12.6998 12.1438 12.6992C12.2598 12.6979 12.3238 12.7859 12.3429 12.8915C12.3966 13.1892 12.4475 13.4874 12.4994 13.7854C12.5438 14.0395 12.5881 14.2933 12.6349 14.561C12.754 14.561 12.8673 14.561 12.9805 14.561C13.3913 14.561 13.8017 14.5626 14.2124 14.5604C14.4517 14.5591 14.5574 14.4502 14.5266 14.2276C14.4985 14.0249 14.4552 13.8241 14.4188 13.6223C14.4136 13.5934 14.4064 13.5648 14.4046 13.5359C14.3963 13.4007 14.4784 13.2987 14.6066 13.2834C14.7253 13.2694 14.8383 13.3435 14.8639 13.4705C14.9134 13.7146 14.9661 13.9589 14.9938 14.2055C15.0374 14.5929 14.8514 14.8479 14.4587 14.9747C14.4393 14.9808 14.4216 14.9916 14.4033 15H0.585791V14.9997ZM4.50702 6.01205C4.52295 6.56184 4.67742 7.05346 5.0286 7.4697C5.46914 7.99154 6.00978 8.42012 6.55872 8.84026C7.01277 9.18761 8.06944 9.18079 8.50133 8.799C8.89026 8.45457 9.2979 8.12866 9.68649 7.78391C9.98088 7.52299 10.1956 7.20715 10.3331 6.84778C10.4346 6.58198 10.4879 6.30806 10.4955 6.01368C10.4245 6.01368 10.3681 6.01368 10.3116 6.01368C9.71385 6.01368 9.11607 6.02342 8.51864 6.00815C8.32158 6.00295 8.10927 5.96656 7.93472 5.88598C7.63167 5.74593 7.35876 5.73813 7.06368 5.8928C6.7589 6.05267 6.41984 6.0257 6.08805 6.00198C5.96441 5.9932 5.8941 5.90125 5.89895 5.78655C5.9038 5.66567 5.98103 5.58704 6.11576 5.57827C6.21412 5.57177 6.31559 5.58834 6.41118 5.57209C6.59716 5.54057 6.79215 5.51815 6.9622 5.44667C7.32932 5.29298 7.67704 5.29363 8.04312 5.44927C8.20798 5.51945 8.39846 5.56624 8.57856 5.56917C9.34223 5.58217 10.1066 5.57469 10.8706 5.57469C10.926 5.57469 10.9814 5.57469 11.0448 5.57469V3.10066H3.95877V5.56754C4.0173 5.57014 4.06786 5.57372 4.11878 5.57404C4.38372 5.57469 4.64902 5.57404 4.91397 5.57437C4.95033 5.57437 4.9867 5.57307 5.02306 5.57534C5.17268 5.58379 5.26584 5.66632 5.26688 5.7898C5.26792 5.91327 5.17857 6.0036 5.02791 6.01043C4.85821 6.01822 4.68781 6.01205 4.50737 6.01205H4.50702ZM2.08335 10.6209C2.14881 10.6105 2.19903 10.604 2.2489 10.5942C3.20341 10.4045 4.15791 10.2134 5.11242 10.0246C5.47503 9.95283 5.64543 9.76697 5.65305 9.41702C5.65721 9.22206 5.66275 9.02645 5.64959 8.83214C5.64474 8.75903 5.6056 8.67389 5.55261 8.62061C5.39676 8.46399 5.22532 8.32134 5.06116 8.17188C4.58772 7.74069 4.25281 7.23347 4.11566 6.62292C4.07133 6.42504 4.05124 6.22228 4.01972 6.01855C3.81123 6.0114 3.63598 5.96234 3.52515 5.78297C3.50541 5.75081 3.42818 5.73781 3.37727 5.73683C2.94781 5.72644 2.78434 5.57372 2.78295 5.17373C2.78226 4.97097 2.78295 4.76789 2.78295 4.55278C2.70607 4.55278 2.64996 4.55278 2.59351 4.55278C2.17375 4.55278 2.08335 4.63791 2.08335 5.03563C2.08335 6.8351 2.08335 8.6349 2.08335 10.4344V10.6209ZM4.36918 2.64543H10.6327C10.4831 1.89646 10.0872 1.30443 9.39072 0.932061C8.17958 0.284471 6.93346 0.276023 5.70292 0.881696C4.95518 1.24984 4.52711 1.85909 4.36918 2.64543ZM8.8681 9.09858C8.46358 9.42286 7.99914 9.53594 7.4966 9.53626C6.99614 9.53659 6.53517 9.41669 6.11368 9.06446C6.15697 9.58923 6.08389 10.0311 5.60768 10.3369C6.87839 10.9143 8.12313 10.9182 9.39211 10.3353C8.91035 10.0259 8.84558 9.58306 8.86775 9.09826L8.8681 9.09858ZM3.4732 5.2868V3.37945H3.26021V5.2868H3.4732ZM11.5325 3.37945V5.28583H11.7413V3.37945H11.5325Z" fill="#410EAD"/>
<path d="M10.1259 4.3686C10.2076 4.51287 10.2776 4.64316 10.3544 4.76956C10.4022 4.84852 10.3939 4.91123 10.3087 4.95347C10.2232 4.99571 10.1626 4.9642 10.121 4.88426C10.0549 4.75786 9.98421 4.63342 9.9146 4.50832C9.87535 4.43748 9.80031 4.40499 9.68948 4.41084C9.68948 4.54373 9.68636 4.67826 9.69052 4.81278C9.69364 4.90571 9.66489 4.96517 9.55406 4.96452C9.45189 4.96387 9.42315 4.90896 9.42384 4.82188C9.42592 4.46153 9.42592 4.10118 9.42384 3.74115C9.42315 3.63945 9.46194 3.58421 9.57831 3.58973C9.72827 3.59688 9.87962 3.59233 10.0282 3.60793C10.227 3.62905 10.3347 3.72036 10.3721 3.87535C10.4161 4.05764 10.3503 4.22985 10.1993 4.32635C10.1782 4.33968 10.156 4.35137 10.1262 4.3686H10.1259ZM9.69606 4.20678C9.84291 4.18826 10.0064 4.26397 10.0871 4.11677C10.1217 4.05374 10.1148 3.93124 10.0698 3.87697C9.97798 3.7665 9.83183 3.80679 9.69606 3.81849V4.20645V4.20678Z" fill="#410EAD"/>
<path d="M8.7334 4.64346C8.83315 4.3117 8.91939 4.02446 9.00632 3.7369C9.03021 3.65729 9.04026 3.56988 9.17567 3.6053C9.31629 3.64202 9.28131 3.7226 9.25291 3.80968C9.14139 4.14826 9.02675 4.48651 8.92216 4.82704C8.89099 4.92842 8.83453 4.97554 8.72613 4.97521C8.61565 4.97456 8.56474 4.91932 8.53391 4.82119C8.42655 4.47612 8.31226 4.13299 8.19623 3.79083C8.16437 3.69693 8.1661 3.63389 8.28628 3.604C8.40992 3.57345 8.42482 3.65079 8.44802 3.72812C8.52041 3.97117 8.59348 4.21455 8.6676 4.45727C8.68249 4.50601 8.70154 4.55345 8.73375 4.64378L8.7334 4.64346Z" fill="#410EAD"/>
</svg>
