<svg width="15" height="17" viewBox="0 0 15 17" fill="none" xmlns="http://www.w3.org/2000/svg">
<path d="M7.46659 17C7.37853 16.9436 7.29274 16.8827 7.20152 16.8307C4.85385 15.4958 2.50572 14.1609 0.155341 12.83C0.0447081 12.7673 -0.000448212 12.7033 3.35077e-06 12.5727C0.00451897 9.84601 0.00451907 7.11889 0.00045501 4.3922C0.00045501 4.27133 0.0374832 4.20645 0.144504 4.14602C2.55314 2.78179 4.95951 1.414 7.36453 0.043107C7.46433 -0.013773 7.53658 -0.0146618 7.63683 0.0422182C10.0369 1.40956 12.4392 2.77423 14.8424 4.13624C14.9512 4.19801 15 4.26022 15 4.39265C14.995 7.11933 14.995 9.84646 15 12.5731C15 12.7033 14.9567 12.7682 14.8456 12.8309C12.4564 14.184 10.0694 15.5411 7.68243 16.8982C7.6305 16.928 7.58309 16.9658 7.53342 16.9996H7.46568L7.46659 17ZM6.99606 1.40689C6.93329 1.43889 6.89355 1.45711 6.85562 1.47844C4.94551 2.56316 3.03631 3.64876 1.12439 4.72993C1.02144 4.78814 1.0097 4.85924 1.0097 4.95834C1.0115 7.10866 1.01105 9.25899 1.01105 11.4093C1.01105 11.4622 1.01105 11.5151 1.01105 11.5853C1.0526 11.5689 1.07292 11.5635 1.09098 11.5533C1.86631 11.1143 2.64255 10.677 3.41336 10.23C3.4662 10.1993 3.50142 10.0958 3.50142 10.026C3.50684 8.8124 3.50729 7.59836 3.50232 6.38478C3.50187 6.25946 3.53664 6.18925 3.65134 6.12482C4.72109 5.52358 5.78587 4.91345 6.85562 4.31177C6.96355 4.25089 7.00012 4.18557 6.99922 4.06514C6.9938 3.23949 6.99651 2.4134 6.99651 1.58775C6.99651 1.53487 6.99651 1.48199 6.99651 1.40689H6.99606ZM13.9899 11.5991V11.4369C13.9899 9.26966 13.989 7.10289 13.993 4.93567C13.993 4.82236 13.9488 4.7717 13.8566 4.71971C11.9551 3.64254 10.0554 2.56227 8.15522 1.48288C8.11322 1.45888 8.06807 1.44022 8.00485 1.40911V1.57531C8.00485 2.40674 8.00756 3.23816 8.00169 4.06959C8.00079 4.19312 8.04549 4.254 8.1507 4.3131C9.22 4.91523 10.2852 5.52491 11.3545 6.12704C11.4616 6.18748 11.4995 6.25235 11.499 6.37367C11.4941 7.45439 11.4954 8.53511 11.4968 9.61583C11.4968 9.80335 11.4435 10.026 11.5275 10.1682C11.6115 10.3104 11.8345 10.3753 11.9998 10.469C12.6514 10.8405 13.3044 11.2102 13.9903 11.6L13.9899 11.5991ZM1.51906 12.4549C1.60169 12.5038 1.65904 12.5385 1.71729 12.5714C3.58721 13.6343 5.45849 14.6955 7.32615 15.7624C7.45485 15.8357 7.54651 15.838 7.67611 15.7638C9.37308 14.7932 11.0741 13.8294 12.7738 12.8633C13.005 12.7318 13.2357 12.5989 13.4818 12.458C13.42 12.4212 13.378 12.3954 13.3346 12.3705C12.6045 11.9546 11.8725 11.5422 11.1459 11.12C11.0312 11.0534 10.9522 11.0632 10.8443 11.1254C9.77994 11.735 8.71154 12.3381 7.64721 12.9482C7.54064 13.0091 7.46388 13.0091 7.35776 12.9482C6.28891 12.3354 5.21555 11.7288 4.14625 11.1169C4.04871 11.0609 3.97466 11.0525 3.87396 11.1129C3.55696 11.3027 3.23319 11.4818 2.91168 11.6644C2.45424 11.9244 1.99681 12.1839 1.51996 12.4549H1.51906ZM6.98748 11.5915C6.99109 11.52 6.99606 11.4729 6.99606 11.4253C6.99606 10.589 6.99335 9.75314 6.99967 8.91727C7.00057 8.79951 6.95632 8.7413 6.85923 8.68664C6.1566 8.29159 5.45668 7.89165 4.75541 7.49394C4.68406 7.4535 4.61091 7.41662 4.52782 7.37218C4.51834 7.40862 4.5084 7.42861 4.5084 7.44861C4.5075 8.32892 4.50524 9.20922 4.51156 10.0895C4.51156 10.1429 4.57252 10.2153 4.6249 10.2459C5.09859 10.5224 5.5768 10.7916 6.05365 11.0627C6.35845 11.236 6.66371 11.4084 6.98793 11.592L6.98748 11.5915ZM10.4848 7.36729C10.4148 7.40417 10.3661 7.42817 10.3191 7.45483C9.59344 7.86632 8.86959 8.28092 8.14122 8.68753C8.03149 8.74885 8.00124 8.81728 8.00214 8.93549C8.00756 9.76069 8.00485 10.5855 8.0053 11.4107C8.0053 11.4631 8.01027 11.516 8.01388 11.5866C8.07936 11.5529 8.12858 11.5293 8.17554 11.5026C8.9012 11.0912 9.62505 10.6765 10.353 10.2691C10.4591 10.2095 10.4993 10.1437 10.4984 10.022C10.4925 9.19678 10.4957 8.37202 10.4952 7.54682C10.4952 7.49394 10.4893 7.4415 10.4853 7.36729H10.4848ZM5.02634 6.49276C5.05208 6.5132 5.06337 6.5252 5.07692 6.53275C5.85541 6.9758 6.63255 7.42062 7.41466 7.85699C7.46568 7.88543 7.56638 7.87166 7.62238 7.84011C8.36971 7.42195 9.11389 6.99757 9.85806 6.57408C9.89464 6.5532 9.92896 6.52787 9.97321 6.49898C9.94566 6.4781 9.92941 6.46343 9.91089 6.45277C9.13737 6.01239 8.36474 5.57068 7.58715 5.13742C7.53703 5.10942 7.43723 5.12542 7.38079 5.15653C6.74002 5.51336 6.10332 5.87686 5.46571 6.23902C5.32076 6.32123 5.17717 6.40522 5.02589 6.49276H5.02634Z" fill="#410EAD"/>
</svg>
