<svg width="15" height="15" viewBox="0 0 15 15" fill="none" xmlns="http://www.w3.org/2000/svg">
<path d="M7.96882 0.000668625C8.2483 0.0387793 8.52978 0.0648551 8.80659 0.117007C10.9013 0.511152 12.5501 1.59597 13.7426 3.35776C14.6185 4.65151 15.0374 6.09437 14.9946 7.65491C14.9344 9.84728 14.0692 11.6786 12.4331 13.1365C11.3694 14.0843 10.1244 14.679 8.71766 14.8983C6.5868 15.2302 4.64349 14.7515 2.93185 13.4344C1.37733 12.2382 0.439945 10.6546 0.100291 8.721C0.0564975 8.47228 0.0330962 8.21955 0 7.96882C0 7.65624 0 7.34367 0 7.03143C0.0223984 6.84823 0.0417881 6.6647 0.0678639 6.48183C0.282487 4.97846 0.888247 3.65261 1.90119 2.52133C3.01944 1.27203 4.40179 0.471704 6.05024 0.145423C6.37419 0.081236 6.70381 0.0478056 7.03109 0C7.34367 0 7.65624 0 7.96848 0L7.96882 0.000668625ZM0.712737 7.49478C0.708057 11.2256 3.75792 14.2825 7.49076 14.2875C11.2246 14.2929 14.2751 11.2524 14.2872 7.51316C14.2995 3.785 11.2473 0.719424 7.5165 0.713406C3.77363 0.707389 0.717418 3.75324 0.712737 7.49444V7.49478Z" fill="#410EAD"/>
<path d="M7.49944 13.3688V10.6412C7.24837 10.6682 7.01169 10.7013 6.774 10.7144C6.70312 10.7184 6.60985 10.6853 6.56004 10.6358C5.8239 9.90837 5.09211 9.17658 4.36466 8.44044C4.31519 8.39063 4.28343 8.29669 4.2871 8.22582C4.30048 7.98813 4.33357 7.75144 4.36099 7.50038H1.64844C1.69624 7.44822 1.72366 7.41646 1.75307 7.38671C2.51562 6.62349 3.27717 5.85927 4.0444 5.10074C4.09856 5.04691 4.19383 5.00914 4.27072 5.0078C4.75881 4.99944 5.24723 5.00713 5.73531 4.99978C5.81521 4.99844 5.91015 4.96869 5.971 4.91887C6.97424 4.09682 8.13963 3.6435 9.39795 3.40046C10.1772 3.25003 10.9648 3.19955 11.7675 3.22261C11.7729 3.25471 11.7822 3.28647 11.7825 3.31856C11.8033 4.60262 11.6465 5.85894 11.1945 7.06879C10.9261 7.78721 10.5603 8.4498 10.0712 9.04352C10.0271 9.09735 10.0017 9.1826 10.001 9.2538C9.99502 9.75158 9.9997 10.2497 9.99536 10.7475C9.99502 10.8053 9.97897 10.8799 9.9412 10.918C9.14087 11.726 8.33654 12.53 7.4991 13.3688H7.49944ZM11.0651 3.92833C10.6616 3.96845 10.2775 3.99218 9.89774 4.04701C8.81994 4.20246 7.7963 4.52072 6.88432 5.13383C5.8814 5.80812 5.19842 6.70072 5.02425 7.93096C5.00853 8.04161 5.03494 8.11015 5.1115 8.18603C5.68049 8.749 6.2468 9.31431 6.8091 9.88397C6.89301 9.96888 6.97057 9.99663 7.09058 9.97924C8.05839 9.83917 8.83899 9.36747 9.4725 8.63935C10.1946 7.80927 10.5991 6.82475 10.8401 5.76467C10.9745 5.17395 11.0447 4.57521 11.0651 3.928V3.92833ZM3.36075 6.78764C3.77729 6.78764 4.1467 6.79065 4.5161 6.78296C4.55588 6.78229 4.6067 6.72546 4.63177 6.68233C4.78321 6.42157 4.92763 6.15714 5.07673 5.89504C5.10882 5.83888 5.15061 5.78807 5.2021 5.71485C4.94602 5.71485 4.7227 5.71318 4.49939 5.71653C4.46462 5.71719 4.42083 5.7319 4.39676 5.75564C4.06078 6.08727 3.72748 6.42124 3.36108 6.7873L3.36075 6.78764ZM8.21284 11.5959C8.22488 11.6006 8.23691 11.605 8.24895 11.6096C8.58225 11.2747 8.91555 10.94 9.24785 10.6044C9.2639 10.588 9.28295 10.5643 9.28329 10.5439C9.28563 10.3039 9.28496 10.0642 9.28496 9.84251C8.94096 10.0271 8.60665 10.2052 8.27469 10.3874C8.24661 10.4028 8.21585 10.4446 8.21552 10.4747C8.2115 10.8488 8.21284 11.2225 8.21284 11.5966V11.5959Z" fill="#410EAD"/>
<path d="M5.84578 11.1443C5.46801 11.5635 4.662 11.9259 4.02449 11.73C3.50464 11.5702 3.1924 11.1249 3.21179 10.5499C3.23018 10.0016 3.47589 9.553 3.84028 9.14014C4.0178 9.30261 4.18863 9.45873 4.36347 9.61853C4.16188 9.85822 4.00175 10.11 3.94258 10.4162C3.85299 10.8795 4.10305 11.1356 4.56773 11.054C4.82414 11.0089 5.04512 10.8909 5.24871 10.7351C5.2905 10.703 5.33195 10.6702 5.37842 10.6338C5.53755 10.8076 5.692 10.9761 5.84578 11.1443Z" fill="#410EAD"/>
<path d="M8.21537 8.21164C7.42474 8.21164 6.7919 7.58115 6.78956 6.79052C6.78722 5.9952 7.4254 5.35769 8.22172 5.36036C9.00934 5.36303 9.64218 6.00022 9.64084 6.78918C9.6395 7.5778 9.00466 8.21164 8.21537 8.21164ZM8.21904 7.50058C8.61219 7.49824 8.93646 7.16895 8.93044 6.77848C8.92443 6.39136 8.60383 6.0731 8.21737 6.07109C7.8249 6.06909 7.50029 6.39336 7.50062 6.78717C7.50096 7.18098 7.8249 7.50258 8.21904 7.50058Z" fill="#410EAD"/>
</svg>
