<svg width="46" height="53" viewBox="0 0 46 53" fill="none" xmlns="http://www.w3.org/2000/svg">
<path fill-rule="evenodd" clip-rule="evenodd" d="M22.4994 0.110546C22.1775 0.286263 18.5319 3.94431 18.3663 4.25764C17.845 5.24391 18.9212 6.3826 19.9015 5.88216C20.0254 5.8189 20.5098 5.38898 20.9778 4.92665L21.8289 4.08617V6.46833C21.8289 9.07323 21.8454 9.15326 22.4489 9.46659C22.8288 9.66374 23.2029 9.66302 23.5859 9.46421C24.1539 9.16932 24.2014 8.93292 24.2014 6.39741V4.09528L25.1674 5.04624C26.021 5.88641 26.1764 5.9972 26.5017 5.9972C27.0461 5.9972 27.3741 5.8364 27.605 5.45618C27.8349 5.07782 27.8694 4.64832 27.6976 4.30776C27.5346 3.9848 23.8957 0.31774 23.5618 0.139953C23.2335 -0.034935 22.7883 -0.0472569 22.4994 0.110546ZM3.31283 12.0168C0.416902 12.8028 0.129723 12.9409 0.00542371 13.6063C-0.0368692 13.8326 0.166446 14.7609 0.676333 16.6687C1.33136 19.1198 1.44029 19.4361 1.71736 19.6911C2.36031 20.2829 3.47354 19.9278 3.63199 19.0803C3.67882 18.8297 3.61197 18.3744 3.41897 17.6299C3.26435 17.0331 3.1614 16.5209 3.19039 16.4919C3.21937 16.4628 4.0936 16.932 5.13318 17.5344C7.13734 18.6957 7.41008 18.7839 8.01951 18.4676C8.40633 18.2667 8.66587 17.6891 8.57881 17.2231C8.49061 16.7514 8.10523 16.4526 6.11891 15.3163C5.1732 14.7753 4.39862 14.3082 4.39769 14.2782C4.39676 14.2484 4.90748 14.0904 5.53269 13.9272C6.51636 13.6704 6.7107 13.5832 6.97684 13.279C7.41472 12.7784 7.40472 12.2304 6.94898 11.7498C6.76465 11.5554 6.47448 11.3721 6.30428 11.3425C6.10354 11.3077 5.05292 11.5445 3.31283 12.0168ZM39.6056 11.4003C38.7764 11.6192 38.481 12.6245 39.0534 13.279C39.3195 13.5832 39.5139 13.6704 40.4975 13.9272C41.1228 14.0904 41.6327 14.2484 41.6308 14.2782C41.6289 14.3082 40.7457 14.8381 39.6682 15.4561C37.5032 16.6976 37.3354 16.8619 37.4388 17.637C37.5181 18.2296 37.9743 18.6304 38.5671 18.628C38.9342 18.6265 39.3125 18.4461 40.938 17.4972C42.0018 16.8762 42.8721 16.4135 42.8721 16.4691C42.8721 16.5246 42.7561 16.9844 42.6143 17.4907C42.2505 18.7891 42.2678 19.1828 42.7071 19.6238C42.9779 19.8956 43.1436 19.9758 43.4343 19.9758C43.9541 19.9758 44.4098 19.7139 44.5721 19.3218C44.6471 19.1405 45.0167 17.8188 45.3935 16.3848C46.0488 13.8905 46.0721 13.7617 45.9282 13.4159C45.8453 13.2171 45.661 12.9777 45.5184 12.8839C45.3759 12.7902 44.2231 12.4348 42.9568 12.0943C40.0089 11.3014 39.9928 11.2981 39.6056 11.4003ZM17.0918 16.963C12.7278 18.9144 11.5201 19.4958 11.2874 19.7572L10.9936 20.0873L11.0215 27.1739L11.0493 34.2604L11.3072 34.5143C11.6172 34.8194 22.643 39.753 23.0149 39.753C23.2604 39.753 33.9952 35.0266 34.505 34.694C35.0333 34.3494 35.0325 34.3608 35.0325 27.1205C35.0325 19.8303 35.0358 19.8757 34.4796 19.5098C34.3361 19.4155 31.7739 18.247 28.7856 16.9132C24.8251 15.1453 23.2507 14.4894 22.9775 14.4933C22.7192 14.497 20.8885 15.2651 17.0918 16.963ZM27.0377 18.7785L30.8538 20.4829L30.4933 20.6356C30.295 20.7196 28.5291 21.5052 26.5692 22.3815L23.0057 23.9747L19.2609 22.3048C17.2012 21.3863 15.4482 20.5914 15.3653 20.5383C15.255 20.4678 16.2504 19.9782 19.0632 18.7194C21.18 17.7721 22.9816 17.0143 23.0667 17.0356C23.1518 17.0568 24.9387 17.8411 27.0377 18.7785ZM17.6511 24.2147L21.7773 26.061L21.804 31.3538C21.8187 34.2649 21.7955 36.6455 21.7524 36.644C21.7094 36.6426 19.8174 35.8116 17.548 34.7976L13.4219 32.9538L13.3951 27.6556C13.3804 24.7416 13.4036 22.3599 13.4467 22.3629C13.4897 22.3659 15.3818 23.1992 17.6511 24.2147ZM32.5563 27.6641L32.5558 32.9708L28.5591 34.7503C26.3609 35.7291 24.4807 36.5613 24.381 36.5997C24.209 36.6659 24.2009 36.3911 24.2262 31.3652L24.253 26.061L28.3791 24.2147C30.6485 23.1992 32.5169 22.3659 32.531 22.3629C32.5451 22.3599 32.5566 24.7454 32.5563 27.6641ZM1.71736 33.3073C1.44029 33.5622 1.33136 33.8785 0.676333 36.3297C0.166446 38.2375 -0.0368692 39.1658 0.00542371 39.392C0.130549 40.062 0.409991 40.1943 3.38174 40.9919C5.9976 41.694 6.14986 41.723 6.48479 41.5825C7.30796 41.2373 7.53902 40.3621 6.97684 39.7193C6.7107 39.4151 6.51636 39.3279 5.53269 39.0711C4.90748 38.908 4.39676 38.7499 4.39769 38.7201C4.39862 38.6902 5.1732 38.2231 6.11891 37.6821C7.06462 37.1411 7.99073 36.5667 8.17702 36.4058C9.02164 35.6759 8.50072 34.3686 7.36521 34.3686C7.11888 34.3686 6.49542 34.6746 5.13318 35.4639C4.0936 36.0664 3.21937 36.5355 3.19039 36.5064C3.1614 36.4774 3.26435 35.9653 3.41897 35.3685C3.61197 34.624 3.67882 34.1687 3.63199 33.9181C3.47354 33.0706 2.36031 32.7154 1.71736 33.3073ZM42.7071 33.3746C42.2665 33.8168 42.2504 34.2089 42.6192 35.5254C42.7638 36.0417 42.8591 36.4872 42.831 36.5153C42.8028 36.5436 41.9264 36.0722 40.8834 35.4677C39.3182 34.5606 38.9133 34.3686 38.565 34.3686C37.5355 34.3686 37.0086 35.6787 37.7598 36.3707C37.8936 36.494 38.8186 37.0608 39.8153 37.6303C40.8121 38.1998 41.629 38.6902 41.6309 38.7201C41.6327 38.7499 41.1121 38.9103 40.4738 39.0764C39.0462 39.4478 38.746 39.6827 38.746 40.428C38.746 41.0487 39.0342 41.4716 39.5527 41.6117C39.8885 41.7025 40.2697 41.6256 42.6162 40.9934C44.0903 40.5963 45.4123 40.1852 45.5541 40.08C45.696 39.9747 45.868 39.7207 45.9365 39.5156C46.0504 39.1744 46.0004 38.9134 45.3476 36.4462C44.9552 34.9631 44.5845 33.6564 44.5238 33.5425C44.3707 33.2554 43.8828 33.0225 43.4343 33.0225C43.1436 33.0225 42.9779 33.1028 42.7071 33.3746ZM22.377 43.579C22.1962 43.6897 21.999 43.8727 21.9386 43.986C21.8702 44.1142 21.8289 45.0822 21.8289 46.552V48.9122L20.9778 48.0717C20.5098 47.6094 20.0254 47.1795 19.9015 47.1162C18.9556 46.6334 17.8528 47.74 18.3327 48.6906C18.4957 49.0136 22.1345 52.6806 22.4684 52.8584C22.8222 53.0469 23.2069 53.0472 23.5618 52.8594C23.9924 52.6318 27.5768 48.9562 27.7085 48.6072C27.8859 48.1376 27.7525 47.6826 27.3276 47.3082C26.996 47.0159 26.9004 46.984 26.4931 47.0301C26.079 47.077 25.9423 47.173 25.1174 47.9973L24.2014 48.9124V46.6055C24.2014 44.065 24.1541 43.8292 23.5859 43.5342C23.1773 43.3221 22.7722 43.3371 22.377 43.579Z" fill="#F7C331"/>
</svg>
