<svg width="44" height="53" viewBox="0 0 44 53" fill="none" xmlns="http://www.w3.org/2000/svg">
<path fill-rule="evenodd" clip-rule="evenodd" d="M5.7296 0.125047C5.30867 0.366962 5.27149 0.521718 5.26808 2.04443L5.26477 3.51952H2.98549C0.677594 3.51952 0.410476 3.55741 0.129206 3.92458C0.0310773 4.05263 0.00267143 9.41535 8.90821e-05 28.2253C-0.00177021 41.5005 0.0257057 52.4373 0.0609289 52.5294C0.248511 53.0193 -0.546025 52.9999 19.366 52.9999C33.3519 52.9999 38.079 52.9698 38.2482 52.8795C38.7099 52.633 38.7253 52.5433 38.7287 50.0756L38.732 47.7206H40.9461C43.1823 47.7206 43.6049 47.6637 43.8592 47.3284C43.9681 47.1848 43.994 43.9106 43.9967 30.0204L44 12.8895L37.569 6.44477L31.138 0L18.5371 0.00310546C9.25388 0.00548632 5.88175 0.0375761 5.7296 0.125047ZM29.952 7.65435V13.5489L30.2013 13.8394L30.4505 14.1299L36.3473 14.159L42.244 14.1881V30.0745V45.9608H24.6324H7.02077V23.8603V1.75976H18.4864H29.952V7.65435ZM36.3563 7.7119L40.952 12.3183H36.33H31.708V7.7119C31.708 5.17836 31.7198 3.10546 31.7343 3.10546C31.7487 3.10546 33.8286 5.17836 36.3563 7.7119ZM5.26477 26.1836V47.0879L5.51402 47.3784L5.76337 47.6689L21.3696 47.6958L36.976 47.7226V49.4814V51.2401H19.3644H1.75278V28.2597V5.27929H3.50878H5.26477V26.1836ZM10.937 8.10339C10.5612 8.39251 10.5328 8.63433 10.5328 11.5431V14.4046L10.8347 14.7072L11.1366 15.0097H14.0734H17.0101L17.2834 14.7559L17.5568 14.502V11.4904V8.47884L17.3032 8.22482L17.0497 7.97069L14.0752 7.974C11.9001 7.97638 11.0569 8.01116 10.937 8.10339ZM15.8008 11.4902V13.25H14.0448H12.2888V11.4902V9.73045H14.0448H15.8008V11.4902ZM11.0492 16.8988C10.5023 17.1859 10.4094 17.8955 10.8634 18.3193C11.063 18.5058 11.2254 18.5293 12.3129 18.5293C13.4755 18.5293 13.5505 18.5163 13.7912 18.2751C14.1391 17.9266 14.1335 17.4068 13.7785 17.0722C13.536 16.8437 13.4134 16.8187 12.4098 16.7922C11.6509 16.7722 11.227 16.8054 11.0492 16.8988ZM16.3385 16.8772C16.0199 17.0063 15.7711 17.6095 15.8982 17.9445C16.1335 18.5646 15.4441 18.5293 27.3269 18.5293H38.1873L38.4597 18.2564C38.8031 17.9122 38.8115 17.4947 38.4828 17.1117L38.2334 16.8213L27.4045 16.8012C20.9336 16.7892 16.4801 16.8198 16.3385 16.8772ZM11.0742 22.1976C10.5052 22.4553 10.3921 23.15 10.8452 23.6041C11.0258 23.7851 11.1923 23.8085 12.2934 23.8085C13.4767 23.8085 13.5501 23.7961 13.7912 23.5544C14.1185 23.2265 14.1212 22.7705 13.7981 22.394C13.5619 22.1189 13.5058 22.1053 12.4811 22.0759C11.7048 22.0537 11.3183 22.0871 11.0742 22.1976ZM16.3569 22.1963C16.1537 22.2855 15.9935 22.4572 15.9223 22.6619C15.7938 23.0313 15.8453 23.2429 16.144 23.5756L16.3533 23.8085H27.2891H38.2249L38.4784 23.5544C38.8068 23.2254 38.8084 22.7705 38.4828 22.391L38.2335 22.1005L27.4561 22.0777C18.5355 22.0588 16.6233 22.0792 16.3569 22.1963ZM10.8452 27.636C10.5502 27.9317 10.4908 28.2921 10.6775 28.654C10.9049 29.0949 11.3783 29.2243 12.5721 29.1719C13.4919 29.1316 13.5713 29.1104 13.8001 28.8437C14.1212 28.4696 14.1177 28.0128 13.7912 27.6857C13.5501 27.444 13.4767 27.4316 12.2934 27.4316C11.1923 27.4316 11.0258 27.4551 10.8452 27.636ZM16.1921 27.5727C15.635 27.997 15.8104 28.8884 16.4899 29.0864C16.7721 29.1686 19.9428 29.1927 27.5594 29.1706L38.2335 29.1396L38.4828 28.8491C38.8084 28.4696 38.8068 28.0147 38.4784 27.6857L38.2249 27.4316L27.2969 27.4349C18.4951 27.4375 16.3345 27.4643 16.1921 27.5727ZM10.8634 32.9208C10.5617 33.2025 10.4847 33.5657 10.6526 33.9165C10.8784 34.3883 11.1824 34.4803 12.4098 34.448C13.4134 34.4215 13.536 34.3964 13.7785 34.168C14.1335 33.8333 14.1391 33.3135 13.7912 32.965C13.5505 32.7238 13.4755 32.7109 12.3129 32.7109C11.2254 32.7109 11.063 32.7344 10.8634 32.9208ZM16.144 32.9438C16.0289 33.0719 15.9051 33.2609 15.8688 33.3636C15.764 33.6604 16.0518 34.2141 16.382 34.3509C16.6061 34.4438 19.3164 34.4671 27.4561 34.4464L38.2334 34.4189L38.4828 34.1284C38.8027 33.7558 38.8011 33.3334 38.4787 32.9848L38.2254 32.7109H27.2893H16.3533L16.144 32.9438ZM10.8347 38.2927C10.6527 38.4751 10.5328 38.7044 10.5328 38.87C10.5328 39.0357 10.6527 39.265 10.8347 39.4473C11.1306 39.7438 11.1586 39.7499 12.236 39.7499C13.3325 39.7499 13.6632 39.67 13.9123 39.3449C14.1328 39.0571 14.0684 38.5597 13.7725 38.263C13.5099 38 13.4574 37.9902 12.3184 37.9902C11.1499 37.9902 11.1332 37.9936 10.8347 38.2927ZM16.1474 38.2355C15.9306 38.4224 15.8627 38.5737 15.8627 38.87C15.8627 39.1664 15.9306 39.3176 16.1474 39.5046L16.4321 39.7499H27.2273C38.3601 39.7499 38.2872 39.7525 38.5996 39.3449C38.7616 39.1335 38.7616 38.6066 38.5996 38.3952C38.2872 37.9876 38.3601 37.9902 27.2273 37.9902H16.4321L16.1474 38.2355Z" fill="#0057BC"/>
</svg>
