<svg width="42" height="53" viewBox="0 0 42 53" fill="none" xmlns="http://www.w3.org/2000/svg">
<path fill-rule="evenodd" clip-rule="evenodd" d="M0.680297 0.196473C0.00122913 0.648939 0.00143414 0.64749 0.00071707 4.2134C-3.14832e-09 7.67817 0.0276585 7.88799 0.507893 8.05724C0.835288 8.17256 1.36828 7.98292 1.47 7.71492C1.50667 7.61854 1.53659 6.19262 1.53659 4.5462V1.55273H17.722H33.9073L33.9106 4.68408C33.913 6.98234 33.9471 7.85911 34.0386 7.97971C34.3257 8.35754 34.5609 8.38477 37.5371 8.38477H40.4634V29.916V51.4473H38.1724C36.0097 51.4473 35.8662 51.4593 35.6114 51.6619C35.2381 51.9585 35.2381 52.4887 35.6114 52.7854C35.8682 52.9896 36.0058 53 38.4541 52.9993C41.289 52.9986 41.3687 52.9822 41.8056 52.3126C41.9932 52.025 41.9987 51.3857 41.9993 29.6251L42 7.23357L38.5066 3.61684L35.0134 0L17.9932 0.000724609C1.49274 0.0013457 0.964258 0.00734961 0.680297 0.196473ZM38.2289 5.61572L39.3596 6.83203H37.4018H35.4439V4.78998V2.74803L36.271 3.57367C36.7259 4.0279 37.607 4.9467 38.2289 5.61572ZM5.36985 4.33492C4.77059 4.70592 4.71219 4.99608 4.71219 7.60333C4.71219 10.1431 4.74549 10.3258 5.28739 10.7565C5.55885 10.9722 5.57739 10.9727 15.2808 10.9727C24.1388 10.9727 25.0252 10.9575 25.26 10.8021C25.7803 10.4576 25.8146 10.2536 25.8146 7.50851V4.96575L25.464 4.57901L25.1133 4.19238L15.3994 4.16599C6.03458 4.14062 5.674 4.14663 5.36985 4.33492ZM24.278 7.55664V9.41992H15.2634H6.24878V7.55664V5.69336H15.2634H24.278V7.55664ZM0.212356 12.5911L0 12.8639L0.00071707 32.4402C0.0013317 51.4431 0.00696573 52.0253 0.194429 52.3126C0.300556 52.4753 0.519263 52.6963 0.680297 52.8035C0.963849 52.9924 1.45084 52.9987 15.941 52.9993L30.9089 53L31.1789 52.7854C31.3746 52.6298 31.4488 52.4755 31.4488 52.2236C31.4488 51.9718 31.3746 51.8174 31.1789 51.6619L30.9089 51.4473H16.2228H1.53659V32.1079V12.7685L1.29954 12.5434C0.964054 12.225 0.480849 12.2461 0.212356 12.5911ZM11.5128 15.1472C11.3478 15.2875 10.4783 16.3829 9.58051 17.5814L7.94824 19.7604L7.41536 19.3004C6.77419 18.7468 6.49535 18.6289 6.13098 18.7572C5.81833 18.8674 5.58334 19.3431 5.68373 19.6628C5.72122 19.7822 6.1908 20.2748 6.72717 20.7574C7.52179 21.4722 7.76344 21.6348 8.03204 21.6348C8.46146 21.6348 8.50838 21.5823 10.7998 18.536C12.7913 15.8886 12.8992 15.6817 12.5232 15.2326C12.2316 14.8845 11.859 14.8529 11.5128 15.1472ZM15.9805 14.9796C15.4532 15.1756 15.2874 15.8621 15.6732 16.252C15.8753 16.4562 16.0146 16.459 25.9096 16.459H35.9412L36.1535 16.1862C36.2703 16.0362 36.3659 15.8521 36.3659 15.777C36.3659 15.4709 36.1145 15.1171 35.8243 15.0149C35.5024 14.9015 16.2827 14.8674 15.9805 14.9796ZM15.9805 17.5664C15.4523 17.7667 15.2874 18.45 15.6732 18.8398C15.8738 19.0426 16.0146 19.0469 22.4854 19.0469C28.9561 19.0469 29.0969 19.0426 29.2976 18.8398C29.5736 18.5609 29.5682 18.0004 29.2868 17.7431C29.0801 17.554 28.8057 17.5452 22.6027 17.5271C19.045 17.5166 16.065 17.5344 15.9805 17.5664ZM16.007 20.1541C15.5 20.2549 15.2932 21.0438 15.6732 21.4277C15.8746 21.6312 16.0146 21.6348 23.9081 21.6348C31.4168 21.6348 31.9527 21.623 32.1606 21.4528C32.4641 21.2046 32.4732 20.6571 32.1789 20.3597L31.9553 20.1338L24.096 20.1211C19.7733 20.1141 16.1332 20.1289 16.007 20.1541ZM15.9072 25.6166C15.5331 25.7821 15.3852 26.1677 15.5327 26.5921C15.7205 27.1321 15.6231 27.1274 26.1451 27.0973L35.8715 27.0693L36.1187 26.7789C36.4307 26.4123 36.4307 26.1736 36.1187 25.8071L35.8715 25.5166L26.054 25.4937C17.7991 25.4745 16.1841 25.4939 15.9072 25.6166ZM11.3536 25.853C11.1421 26.0845 10.2842 27.2097 8.03849 30.2016C7.95459 30.3133 7.81241 30.2353 7.34109 29.8185C6.63129 29.1908 6.19664 29.1178 5.8465 29.5677C5.48643 30.0301 5.56643 30.2146 6.52967 31.144C7.57137 32.1493 7.96617 32.3705 8.35298 32.1657C8.49394 32.0911 9.53021 30.8037 10.6558 29.305C12.2205 27.2215 12.7024 26.5095 12.7024 26.2812C12.7024 25.589 11.8442 25.3165 11.3536 25.853ZM15.6732 28.3633C15.2295 28.8116 15.5257 29.5311 16.2052 29.6563C16.3915 29.6907 19.3626 29.7048 22.8076 29.688C28.8001 29.6586 29.0806 29.6487 29.2869 29.46C29.5645 29.206 29.5804 28.5702 29.3151 28.3276C29.1448 28.1719 28.5236 28.1562 22.5029 28.1562C16.0146 28.1562 15.8738 28.1605 15.6732 28.3633ZM15.6732 30.9512C15.4143 31.2128 15.4102 31.684 15.6642 32.0007L15.8599 32.2451H23.9076H31.9552L32.1788 32.0192C32.448 31.7472 32.462 31.2247 32.2078 30.9407C32.0376 30.7508 31.7591 30.7441 23.9549 30.7441C16.0146 30.7441 15.8746 30.7477 15.6732 30.9512ZM6.20934 36.3431C5.66857 36.773 5.63415 36.9594 5.63415 39.4618C5.63415 42.918 5.57319 42.8555 8.93955 42.8555C11.4397 42.8555 11.7349 42.7953 12.0851 42.2147C12.2769 41.8969 12.292 41.6967 12.2923 39.4554C12.2929 35.9631 12.458 36.127 8.93586 36.127C6.60179 36.127 6.4679 36.1376 6.20934 36.3431ZM15.6732 36.334C15.3971 36.613 15.4025 37.1734 15.6839 37.4307C15.8923 37.6213 16.2284 37.629 25.6461 37.6588C32.1704 37.6794 35.5141 37.654 35.7599 37.5821C35.9928 37.5139 36.1709 37.3777 36.2465 37.2099C36.4124 36.8422 36.3975 36.7131 36.1535 36.3997L35.9412 36.127H25.9096C16.0146 36.127 15.8753 36.1297 15.6732 36.334ZM10.7561 39.4912V41.3027H8.96341H7.17073V39.4912V37.6797H8.96341H10.7561V39.4912ZM15.6732 38.9219C15.3971 39.2009 15.4025 39.7613 15.6839 40.0186C15.8913 40.2083 16.1528 40.2158 22.4854 40.2158C28.8179 40.2158 29.0795 40.2083 29.2868 40.0186C29.5682 39.7613 29.5736 39.2009 29.2976 38.9219C29.0969 38.7191 28.9561 38.7148 22.4854 38.7148C16.0146 38.7148 15.8738 38.7191 15.6732 38.9219ZM15.6925 41.5138C15.3969 41.7922 15.3926 42.3401 15.6839 42.6065C15.8915 42.7964 16.1961 42.8047 23.8429 42.8315C32.4713 42.8616 32.1517 42.8813 32.3621 42.3065C32.4669 42.0204 32.3046 41.5367 32.0594 41.4041C31.9417 41.3404 28.9022 41.3027 23.8943 41.3027C16.0074 41.3027 15.9141 41.3051 15.6925 41.5138Z" fill="#FF00E5"/>
</svg>
