<svg width="43" height="42" viewBox="0 0 43 42" fill="none" xmlns="http://www.w3.org/2000/svg">
<path fill-rule="evenodd" clip-rule="evenodd" d="M17.3441 0.0503286C13.8992 0.342774 10.7306 1.48034 7.82398 3.46784C6.57245 4.32363 4.41945 6.42904 3.54431 7.6529C-0.0603209 12.6939 -0.957702 18.7075 1.04619 24.3926C3.80433 32.2178 11.6515 37.2951 20.0843 36.7107C20.8208 36.6596 21.9221 36.5198 22.5317 36.3997C23.5781 36.1938 25.7616 35.5473 25.9134 35.3986C25.9518 35.361 25.6882 34.6375 25.3276 33.791C24.7897 32.528 24.636 32.2551 24.4708 32.2701C24.3601 32.2801 23.7975 32.4319 23.2205 32.6073C22.6434 32.7826 21.7462 32.9936 21.2268 33.076C20.0136 33.2684 17.6111 33.2682 16.3965 33.0755C10.8015 32.1881 6.17591 28.3501 4.39563 23.1183C2.99793 19.0107 3.43896 14.689 5.6396 10.9279C6.90676 8.76214 8.95829 6.75596 11.173 5.51681C16.8696 2.32956 23.8626 2.99644 28.82 7.19976C30.2453 8.40833 31.5254 10.0307 32.4015 11.7388L32.8881 12.6877L34.489 12.0385C35.3695 11.6814 36.1108 11.3689 36.1362 11.344C36.2177 11.2643 34.9851 8.98676 34.4142 8.16226C31.1983 3.5171 26.1919 0.613262 20.492 0.086859C19.3934 -0.0145223 18.2625 -0.0277596 17.3441 0.0503286ZM17.0227 7.0916C16.9937 7.16528 16.9834 9.85835 16.9997 13.0764L17.0293 18.9274L17.3085 19.3399C17.83 20.1103 17.6816 20.0922 23.4722 20.0922H28.6243V18.3478V16.6034H24.5844H20.5445V11.7806V6.9578H18.8099C17.4804 6.9578 17.0628 6.98909 17.0227 7.0916ZM8.39921 16.7136C7.32628 17.0307 6.83961 18.4814 7.50939 19.366C8.22219 20.3075 9.61947 20.3449 10.375 19.4428C10.8076 18.9261 10.8294 18.0007 10.4233 17.3944C10.0345 16.8141 9.11045 16.5033 8.39921 16.7136ZM34.0482 16.6694C34.0084 16.7084 33.9758 17.6098 33.9758 18.6728V20.6053H33.6306C33.4408 20.6053 33.0078 20.676 32.6686 20.7624C29.9545 21.4537 28.1941 24.1954 28.7667 26.8392C29.2077 28.8751 30.8874 30.5468 32.9054 30.9584C33.2113 31.0208 34.4626 31.0728 35.6861 31.074C37.6245 31.076 37.9659 31.1007 38.3388 31.2663C39.6944 31.8684 39.7164 33.7324 38.3757 34.4104C37.9438 34.6287 33.6804 34.6287 33.2485 34.4104C32.8283 34.1978 32.4263 33.6966 32.2957 33.222L32.1839 32.8162H30.3943H28.6046L28.6794 33.3549C28.8646 34.6879 29.4189 35.7705 30.3748 36.6662C31.1707 37.4119 32.6447 38.0494 33.5729 38.0494H33.9713L33.9997 40.0247L34.0283 42H35.8121H37.596L37.6245 40.0247L37.653 38.0494L38.0443 38.0482C39.0967 38.0449 40.5033 37.3962 41.4204 36.491C42.5763 35.3502 43.1414 33.706 42.912 32.152C42.6233 30.1962 41.2597 28.5491 39.3713 27.8752C38.8173 27.6774 38.4604 27.647 36.066 27.5926L33.3817 27.5316L32.9966 27.2441C32.1215 26.5909 31.9906 25.5113 32.6883 24.7004C33.1664 24.1448 33.4277 24.0941 35.8121 24.0941C37.3972 24.0941 38.0609 24.1312 38.3126 24.2341C38.7584 24.4163 39.1884 24.9234 39.3286 25.4327L39.4404 25.8385H41.2202H43V25.5984C43 25.0975 42.563 23.717 42.2388 23.1941C41.3329 21.7324 39.4857 20.6053 37.9959 20.6053H37.653L37.6245 18.63L37.596 16.6547L35.8583 16.6267C34.9026 16.6112 34.088 16.6305 34.0482 16.6694ZM18.0703 26.4379C16.9652 26.9433 16.6715 28.3072 17.4849 29.1569C17.8884 29.5784 18.2614 29.7378 18.8448 29.7378C20.124 29.7378 20.9415 28.3807 20.3707 27.2045C19.9951 26.4303 18.8912 26.0625 18.0703 26.4379Z" fill="#AD00FF"/>
</svg>
