<svg width="53" height="53" viewBox="0 0 53 53" fill="none" xmlns="http://www.w3.org/2000/svg">
<path fill-rule="evenodd" clip-rule="evenodd" d="M48.0822 0.165062C47.7572 0.3409 35.196 9.69335 34.776 10.0724C34.4667 10.3514 34.2454 10.8609 34.2454 11.2942C34.2454 11.7435 34.6076 12.4632 34.9451 12.6841C35.379 12.9683 50.9705 17.5954 51.494 17.5954C52.1921 17.5954 53 16.6787 53 15.8867C53 15.3787 52.7569 15.0101 50.5044 12.1016C49.3332 10.5894 48.3405 9.29631 48.2983 9.22807C48.256 9.15983 48.7373 7.4846 49.3677 5.50534C49.9981 3.52607 50.5137 1.80031 50.5135 1.67035C50.5127 1.08692 49.947 0.329923 49.3408 0.101064C48.9302 -0.0539588 48.4414 -0.0291053 48.0822 0.165062ZM29.479 1.09168C27.0322 1.44191 25.3881 2.09006 23.7192 3.36225C21.4325 5.10551 19.8386 7.80894 19.4232 10.6488C19.2325 11.9516 19.3486 13.9921 19.6821 15.2025C20.7448 19.0589 23.6688 22.0334 27.4848 23.14C31.1659 24.2075 35.3232 23.2081 38.1343 20.58C38.7732 19.9828 39.5893 19.0172 39.9739 18.4035L40.1489 18.1244L38.762 17.2903C37.9992 16.8316 37.3353 16.4563 37.2867 16.4563C37.2382 16.4563 36.9716 16.7626 36.6943 17.1369C35.7498 18.4123 34.0717 19.5261 32.4898 19.9274C31.4896 20.1812 30.1926 20.2263 29.1791 20.0427C28.7007 19.9561 28.2739 19.8476 28.2307 19.8018C28.1875 19.7559 29.0112 18.2271 30.0611 16.4045C31.1111 14.5819 32.0155 12.9276 32.071 12.7283C32.1281 12.5232 32.1721 10.6911 32.1724 8.50836C32.1728 5.92754 32.2084 4.6509 32.28 4.6509C32.5412 4.6509 33.7337 5.11317 34.3375 5.44859C34.8666 5.74248 35.0166 5.78763 35.0847 5.67372C35.1315 5.59533 35.5624 4.97192 36.0425 4.28845L36.915 3.04578L36.6423 2.85897C36.1166 2.49901 34.7613 1.85271 33.989 1.59362C32.6945 1.1593 30.6198 0.928476 29.479 1.09168ZM28.7537 7.60224V10.5536H25.8524C23.4928 10.5536 22.9511 10.5276 22.9511 10.4145C22.9511 10.1414 23.371 9.06228 23.7195 8.43939C24.2365 7.51567 25.2462 6.41104 26.1136 5.82077C26.7949 5.35705 28.2524 4.69563 28.676 4.65784C28.7187 4.65401 28.7537 5.979 28.7537 7.60224ZM45.0682 7.79631C44.8146 8.5825 44.607 9.35161 44.607 9.50529C44.607 9.91817 44.8836 10.3932 45.8511 11.6418C46.4272 12.3852 46.6519 12.7446 46.5182 12.7085C45.4962 12.4321 39.8729 10.7105 39.8075 10.6539C39.7608 10.6135 41.0159 9.6192 42.5968 8.44446C44.1777 7.26962 45.4843 6.32157 45.5003 6.33762C45.5164 6.35367 45.322 7.01001 45.0682 7.79631ZM27.3958 14.2039C27.3288 14.3321 26.8082 15.2439 26.2388 16.2304L25.2034 18.0239L24.844 17.6802C24.1002 16.9691 23.3752 15.7092 23.0181 14.5074L22.8587 13.9709H25.1881H27.5175L27.3958 14.2039ZM25.2801 24.636C20.5924 25.3246 17.5321 29.8773 18.6665 34.475C19.3159 37.1073 21.389 39.2886 24.0391 40.1283L24.7644 40.3581L24.7919 43.3193L24.8194 46.2804H26.4757H28.132V43.2962V40.3119L28.7278 40.1252C32.4111 38.9709 34.8005 35.224 34.2506 31.4652C33.9882 29.6712 33.2451 28.187 31.9699 26.9094C30.1957 25.1319 27.6933 24.2815 25.2801 24.636ZM8.25225 24.8503C5.95341 25.2605 3.9221 27.1636 3.31118 29.4796C3.00033 30.6579 3.15586 32.5645 3.64679 33.5933L3.81393 33.9438L3.46122 34.2285C2.35324 35.1233 1.28578 36.5471 0.728944 37.8732C0.0833079 39.4107 0 39.9571 0 42.6559C0 45.064 0.00279765 45.0955 0.270233 45.659C0.625742 46.4082 1.30049 47.0572 1.99338 47.3163C2.47074 47.4948 2.80107 47.5231 4.40765 47.5231H6.26882V45.8662V44.2093H4.81818H3.36755L3.3691 42.5265C3.37086 40.5947 3.49489 39.9083 4.03629 38.8339C4.41843 38.0754 5.33513 37.0024 5.89777 36.6549L6.23649 36.4457L6.77457 36.7051C7.86534 37.231 9.25422 37.3976 10.5758 37.1609C10.914 37.1004 11.6189 36.8446 12.1423 36.5923C15.0154 35.2082 16.3543 31.8914 15.2582 28.8736C14.8062 27.6289 13.6925 26.2889 12.5613 25.6284C11.361 24.9276 9.60062 24.6098 8.25225 24.8503ZM41.913 24.9018C41.0322 25.0909 39.7165 25.7505 39.0514 26.3367C37.831 27.4121 37.0537 29.0366 36.964 30.699C36.7392 34.8643 40.6923 38.1042 44.7375 37.0703C45.1695 36.9598 45.7176 36.7702 45.9556 36.6489L46.3884 36.4282L46.8011 36.714C47.34 37.0873 48.0773 37.9125 48.4537 38.5639C49.0512 39.5976 49.1887 40.251 49.2443 42.3194L49.2951 44.2093H47.78H46.2649V45.8662V47.5231H48.1634C49.6278 47.5231 50.1725 47.4854 50.5459 47.3582C51.2468 47.1195 51.9747 46.4202 52.3359 45.6383L52.6373 44.9859L52.6325 42.6559C52.6282 40.6066 52.6 40.2152 52.3982 39.4067C52.1234 38.3061 51.515 36.9698 50.891 36.0963C50.4286 35.4492 49.404 34.3687 48.9917 34.0934L48.7654 33.9424L48.9728 33.4588C49.4714 32.2963 49.5979 30.9621 49.3282 29.7114C48.606 26.3625 45.2498 24.1856 41.913 24.9018ZM27.4385 28.1055C28.8481 28.4724 29.8686 29.3051 30.4764 30.5842C31.5777 32.902 30.6015 35.5614 28.2373 36.6835C26.8488 37.3427 24.9944 37.1457 23.7149 36.2033C21.477 34.5548 21.1945 31.4131 23.1042 29.4121C24.2645 28.1964 25.8971 27.7042 27.4385 28.1055ZM10.2697 28.311C11.6839 28.7309 12.556 30.3619 12.1366 31.8033C11.9417 32.4736 11.3152 33.2374 10.6858 33.572C10.0758 33.8963 8.68195 33.898 8.07507 33.5751C6.8843 32.9417 6.26011 31.5425 6.61852 30.3103C7.09164 28.6835 8.64993 27.8303 10.2697 28.311ZM44.4655 28.4493C45.063 28.7542 45.5305 29.2522 45.8271 29.9C46.2923 30.9153 46.0443 32.2101 45.2287 33.0252C44.6336 33.62 44.1606 33.8019 43.2082 33.8019C42.2559 33.8019 41.7829 33.62 41.1877 33.0252C40.3946 32.2326 40.1328 30.9479 40.5613 29.9523C40.8461 29.2907 41.5225 28.6252 42.1788 28.361C42.8366 28.096 43.8499 28.1351 44.4655 28.4493ZM16.7096 38.8453C15.417 40.4546 14.5568 42.3955 14.1871 44.5365C14.0642 45.2481 14.0349 46.0753 14.0597 48.1233L14.0919 50.7851L14.4027 51.3465C14.5772 51.6618 14.9335 52.0819 15.2147 52.3042C16.1558 53.0481 15.6705 53.0189 26.5855 52.9877L36.3695 52.9597L36.9583 52.6708C37.6252 52.3435 38.1119 51.8418 38.4309 51.1528C38.636 50.7098 38.6491 50.5109 38.6491 47.8337C38.6491 45.8234 38.6068 44.7727 38.5054 44.261C38.2791 43.1189 37.8031 41.7632 37.2817 40.7748C36.7652 39.7958 35.8041 38.4619 35.6151 38.4619C35.5512 38.4619 34.9622 38.9417 34.306 39.528L33.1128 40.5941L33.58 41.2284C34.1562 42.0107 34.6775 43.0821 34.98 44.1057C35.1789 44.7792 35.2155 45.1953 35.2553 47.2383L35.3012 49.5942H26.3285H17.3558L17.3585 48.1703C17.3623 46.1413 17.5052 44.9095 17.8675 43.7827C18.1673 42.8501 18.8197 41.621 19.3813 40.9308L19.6474 40.6037L18.4461 39.5328C17.7854 38.9438 17.2047 38.448 17.1558 38.431C17.107 38.4141 16.9061 38.6005 16.7096 38.8453ZM8.652 45.8662V47.5231H9.99902H11.346V45.8662V44.2093H9.99902H8.652V45.8662ZM41.1877 45.8662V47.5231H42.5347H43.8817V45.8662V44.2093H42.5347H41.1877V45.8662Z" fill="#16D6D6"/>
</svg>
