<svg width="48" height="53" viewBox="0 0 48 53" fill="none" xmlns="http://www.w3.org/2000/svg">
<path fill-rule="evenodd" clip-rule="evenodd" d="M6.76618 0.153364C5.20139 0.489229 4.10537 1.00893 2.95919 1.95819C1.74032 2.96775 0.77449 4.41412 0.292411 5.95189L0 6.88456V26.5225V46.1604L0.292411 47.0931C1.13372 49.777 3.25726 51.8782 5.9697 52.7107L6.91228 53H13.9893H21.0662L21.4908 52.722C22.1469 52.2924 22.4126 51.7879 22.4126 50.9716C22.4126 50.4061 22.3648 50.2191 22.1316 49.8704C21.9771 49.6394 21.6707 49.3396 21.4508 49.2043L21.051 48.9584L14.2435 48.9066L7.43594 48.8548L6.83353 48.6141C5.66954 48.1491 4.78822 47.2369 4.37746 46.0722C4.199 45.5662 4.18926 44.5554 4.18926 26.5225C4.18926 8.48959 4.199 7.47878 4.37746 6.97275C4.78822 5.80805 5.66954 4.8959 6.83353 4.43091L7.43594 4.19018H21.2081H34.9803L35.5726 4.42707C36.663 4.86336 37.5467 5.73779 37.9876 6.81668L38.227 7.40271L38.2794 19.1724L38.3318 30.942L38.6128 31.3621C38.9814 31.9132 39.5088 32.2241 40.1889 32.2911C40.6575 32.3373 40.8267 32.3006 41.313 32.0471C41.7788 31.8043 41.9398 31.6458 42.1771 31.1963L42.4687 30.6441L42.4673 19.127C42.4659 8.23953 42.455 7.55805 42.2679 6.66072C41.908 4.93528 41.1149 3.52425 39.8215 2.30856C38.5777 1.13951 37.3466 0.507054 35.6328 0.156783C34.9258 0.0123229 33.2292 -0.00591601 21.134 0.00133811C9.8676 0.0081777 7.31707 0.0351215 6.76618 0.153364ZM9.75941 12.5342C8.96188 12.7711 8.32616 13.6509 8.32616 14.5178C8.32616 15.1442 8.6989 15.8205 9.25963 16.2113L9.70568 16.5222L21.0446 16.5498L32.3835 16.5776L32.9452 16.2872C33.4009 16.0517 33.562 15.8926 33.7986 15.4445C34.171 14.739 34.171 14.2638 33.7986 13.5582C33.5625 13.1111 33.4006 12.9509 32.9487 12.7173L32.3905 12.4288L21.2224 12.4377C15.0799 12.4426 9.92154 12.486 9.75941 12.5342ZM9.75941 20.8246C8.96188 21.0615 8.32616 21.9413 8.32616 22.8082C8.32616 23.4346 8.6989 24.1109 9.25963 24.5017L9.70568 24.8126L21.0446 24.8403L32.3835 24.868L32.9452 24.5777C33.4009 24.3421 33.562 24.183 33.7986 23.7349C34.171 23.0294 34.171 22.5542 33.7986 21.8487C33.5625 21.4015 33.4006 21.2413 32.9487 21.0077L32.3905 20.7192L21.2224 20.7281C15.0799 20.733 9.92154 20.7764 9.75941 20.8246ZM9.75941 29.1135C8.95958 29.355 8.32616 30.2322 8.32616 31.0986C8.32616 31.7251 8.6989 32.4013 9.25963 32.7921L9.70568 33.103H16.957H24.2083L24.6329 32.825C25.2866 32.3969 25.5545 31.8903 25.5545 31.0822C25.5545 30.2741 25.2866 29.7676 24.633 29.3395L24.2085 29.0614L17.1314 29.043C13.2389 29.0328 9.92154 29.0646 9.75941 29.1135ZM45.244 33.4939C45.0712 33.5639 44.8265 33.6797 44.7002 33.7512C44.5739 33.8226 42.0595 37.2148 39.1125 41.2893C34.1004 48.2191 33.7287 48.705 33.3557 48.8156C33.1364 48.8806 32.8318 48.9027 32.6787 48.8646C32.5152 48.824 31.4204 47.8664 30.0274 46.5453C28.7223 45.3076 27.1075 43.7773 26.4389 43.1445C24.7597 41.5552 24.0946 41.338 22.9464 42.0038C22.412 42.3137 21.9404 43.1198 21.9426 43.7195C21.9457 44.5555 22.2431 44.907 25.8163 48.2967C29.5935 51.88 29.8329 52.0887 30.5816 52.4532C31.4269 52.8647 32.0777 53.0007 33.1475 52.9898C33.9159 52.982 34.2857 52.9253 34.7709 52.7411C35.5873 52.4314 36.34 51.945 36.8772 51.3802C37.4959 50.7297 47.5937 36.7199 47.8384 36.1724C48.2298 35.2967 47.8895 34.2571 47.0406 33.7355C46.4853 33.3942 45.7384 33.2938 45.244 33.4939Z" fill="#BB34BE"/>
</svg>
