<svg width="53" height="44" viewBox="0 0 53 44" fill="none" xmlns="http://www.w3.org/2000/svg">
<path fill-rule="evenodd" clip-rule="evenodd" d="M2.13059 0.231928C1.51506 0.650655 1.26684 1.37739 1.51548 2.03275C1.57621 2.19263 2.5891 3.288 3.76647 4.46671L5.90708 6.60993L3.76947 8.75315C1.40603 11.1229 1.24798 11.3605 1.49371 12.1778C1.6415 12.6694 2.20459 13.186 2.6917 13.2771C3.42756 13.4147 3.7134 13.2143 5.99144 10.9649L8.142 8.84125L10.3444 11.0185C12.3366 12.9881 12.588 13.2028 12.9802 13.2676C13.5601 13.3637 14.2757 13.0538 14.5646 12.5818C14.812 12.1773 14.8408 11.4746 14.6264 11.0719C14.5448 10.9186 13.542 9.8639 12.3981 8.72825L10.3184 6.66343L12.377 4.59675C13.5093 3.46007 14.512 2.41512 14.6053 2.27464C14.8415 1.91913 14.8269 1.06122 14.5782 0.685463C14.4709 0.523095 14.2496 0.302576 14.0867 0.19557C13.7096 -0.0522164 12.8488 -0.0667798 12.492 0.168612C12.3511 0.261571 11.3026 1.26088 10.162 2.38929L8.08821 4.44089L6.01632 2.36822C4.87678 1.22824 3.8185 0.228932 3.66459 0.147542C3.23644 -0.0788646 2.53044 -0.0400284 2.13059 0.231928ZM44.0537 3.04321C41.7238 3.54963 39.8024 5.10513 38.8087 7.28925C38.3852 8.21998 38.2019 9.13748 38.1997 10.3376C38.1945 13.2357 39.8913 15.8279 42.5885 17.042C44.5979 17.9464 47.2378 17.8401 49.1321 16.7785C50.5478 15.9852 51.5233 14.9502 52.2423 13.4785C53.7683 10.3553 52.9399 6.71766 50.202 4.51939C48.5363 3.18192 46.1031 2.59773 44.0537 3.04321ZM27.0036 3.84699C26.4503 4.22234 26.2393 4.58229 26.2393 5.1513C26.2393 5.45022 26.3104 5.76411 26.4136 5.92111C26.5095 6.06695 27.3545 6.8509 28.2916 7.66336C29.2884 8.52757 29.9447 9.1666 29.8732 9.20358C29.8061 9.23829 29.378 9.32267 28.922 9.39105C27.6782 9.57769 25.3138 10.1728 23.9377 10.6458C17.5634 12.8362 12.3923 17.2464 8.98523 23.3978C8.16802 24.8733 7.59343 26.1688 6.9948 27.8852L6.50924 29.2775L5.90045 29.4003C4.39599 29.704 3.02056 30.4927 1.91191 31.6875C1.14112 32.5183 0.605919 33.4571 0.251258 34.6008C-0.0609107 35.6076 -0.0864065 37.4989 0.1984 38.518C0.783353 40.6111 2.22812 42.3482 4.16497 43.2872C5.20854 43.7931 6.1383 43.9959 7.42574 43.9982C9.45504 44.0019 11.1303 43.3018 12.6023 41.8348C14.0891 40.353 14.7767 38.7026 14.7732 36.6242C14.7681 33.6832 13.1423 31.1679 10.4459 29.9297C10.0622 29.7536 9.7356 29.6004 9.72005 29.5894C9.66108 29.5478 10.3282 27.7847 10.8148 26.6965C13.937 19.7131 19.7026 14.8032 26.938 12.9661C28.313 12.617 30.3073 12.2425 30.3841 12.3189C30.4069 12.3418 29.7041 13.1877 28.8221 14.1989C27.9134 15.2408 27.1678 16.1909 27.1014 16.3915C26.7948 17.3172 27.607 18.3847 28.618 18.3847C29.226 18.3847 29.5862 18.0499 32.2035 15.0528C35.6978 11.0514 35.5479 11.2509 35.5465 10.6017C35.5458 10.2723 35.4771 9.96719 35.3659 9.79976C35.1265 9.43897 28.7363 3.9071 28.3756 3.74835C27.9267 3.55076 27.3827 3.5898 27.0036 3.84699ZM46.6261 6.14462C47.4904 6.36896 48.008 6.66405 48.6369 7.2907C51.2153 9.86028 49.5019 14.3321 45.8584 14.5423C43.3327 14.688 41.3122 12.7895 41.3083 10.267C41.3041 7.48984 43.9391 5.44712 46.6261 6.14462ZM22.901 30.8726C22.1418 31.2161 21.7939 32.2055 22.1784 32.9276C22.2601 33.081 23.2614 34.1343 24.4037 35.2683L26.4804 37.33L24.3155 39.5088C22.4842 41.3516 22.1392 41.7472 22.0775 42.0748C21.9517 42.7435 22.0851 43.1866 22.5405 43.6127C22.907 43.9555 23.0153 44 23.482 44C23.7721 44 24.1352 43.9334 24.2892 43.852C24.4432 43.7706 25.5014 42.7713 26.641 41.6313L28.7129 39.5585L30.8385 41.665C32.0075 42.8236 33.0659 43.8229 33.1904 43.8858C33.5104 44.0473 34.2166 44.0275 34.5664 43.8471C34.9616 43.6435 35.276 43.23 35.3551 42.8098C35.4985 42.0479 35.3947 41.9006 33.0847 39.5833L30.8954 37.3873L32.9819 35.2969C35.0551 33.2197 35.3996 32.7896 35.3996 32.2787C35.3996 31.5951 34.7789 30.847 34.1078 30.7215C33.378 30.585 33.0877 30.7889 30.8112 33.0368L28.6585 35.1626L26.5091 33.0225C24.0227 30.5466 23.8493 30.4433 22.901 30.8726ZM8.14605 32.4326C9.73073 32.7321 10.9902 33.8488 11.507 35.4127C11.7912 36.2726 11.6975 37.5559 11.2868 38.4306C10.8724 39.3131 10.072 40.1108 9.1865 40.5238C8.637 40.78 8.33799 40.8482 7.61105 40.8828C6.22049 40.9491 5.18418 40.5376 4.25908 39.5519C2.67357 37.8627 2.71347 35.2604 4.34986 33.635C5.40152 32.5902 6.73891 32.1667 8.14605 32.4326Z" fill="#FB5A5A"/>
</svg>
