<svg width="53" height="53" viewBox="0 0 53 53" fill="none" xmlns="http://www.w3.org/2000/svg">
<path fill-rule="evenodd" clip-rule="evenodd" d="M33.3048 0.135506C32.6958 0.353315 32.1731 0.828392 31.867 1.44205L31.5986 1.98041L31.599 9.39118C31.5993 16.6034 31.6049 16.8111 31.8054 17.1396C32.1953 17.7787 33.044 18.1136 33.7138 17.8927C33.9156 17.8261 35.1871 16.936 36.5395 15.9146L38.9984 14.0574L44.9628 14.0552C50.7365 14.053 50.9422 14.0462 51.3936 13.8421C51.9645 13.5842 52.4781 13.1063 52.7759 12.5557C52.997 12.1469 53 12.0729 53 7.01466C53 1.95638 52.997 1.88243 52.7759 1.47364C52.5118 0.985302 52.0036 0.485678 51.4972 0.216498C51.1526 0.0332821 50.6999 0.022718 42.4289 0.00469671C35.0656 -0.0112531 33.6586 0.00894311 33.3048 0.135506ZM49.6317 7.01466V10.6396H43.9471C39.9476 10.6396 38.1616 10.6747 37.9223 10.7581C37.7353 10.8233 37.0404 11.2799 36.3782 11.7728C35.716 12.2657 35.1159 12.7045 35.0446 12.7479C34.9417 12.8106 34.915 11.8562 34.915 8.10826V3.38969H42.2734H49.6317V7.01466ZM38.0242 7.27358V8.98249H42.3252H46.6262V7.27358V5.56467H42.3252H38.0242V7.27358ZM1.46233 7.07462C1.16738 7.22149 0.783086 7.52205 0.608455 7.74244C-0.02001 8.53538 -0.0218755 8.55464 0.0108743 14.0225L0.0406186 18.9936L0.353711 19.4996C0.76184 20.159 1.4015 20.6384 2.0622 20.78C2.40783 20.854 4.57367 20.8931 8.33638 20.8931H14.0827L16.5715 22.7556C17.9404 23.78 19.1793 24.648 19.3246 24.6845C19.7485 24.7908 20.4651 24.6671 20.7979 24.4303C21.4655 23.9553 21.4422 24.2554 21.4397 16.165C21.4376 9.00683 21.4323 8.81575 21.2263 8.36107C20.9429 7.73519 20.562 7.34857 19.9393 7.05432L19.4211 6.80959L10.7098 6.80855L1.99866 6.80751L1.46233 7.07462ZM18.1007 14.8601C18.1167 17.6248 18.089 19.5467 18.0334 19.5467C17.9815 19.5467 17.4162 19.146 16.7769 18.6561C16.1377 18.1663 15.4582 17.7002 15.267 17.6204C14.983 17.5019 13.8654 17.4753 9.16414 17.4753H3.40888V13.7978V10.1204L10.7413 10.1469L18.0738 10.1736L18.1007 14.8601ZM6.4144 14.0574V15.7146H10.7154H15.0164V14.0574V12.4003H10.7154H6.4144V14.0574ZM8.90173 24.4238C5.87672 24.7625 3.49479 27.3137 3.32876 30.3931C3.26554 31.5656 3.41831 32.4024 3.87722 33.3972C5.6397 37.2181 10.3775 38.3558 13.6941 35.7545C14.7023 34.9638 15.5449 33.6452 15.8882 32.321C16.096 31.5195 16.1 30.0301 15.8964 29.2264C15.3413 27.0349 13.4495 25.1107 11.3372 24.5893C10.5118 24.3856 9.72234 24.3319 8.90173 24.4238ZM42.5843 24.4228C41.1515 24.5855 39.9467 25.1842 38.8518 26.2777C37.9848 27.1436 37.4196 28.1292 37.1328 29.2753C36.8825 30.2759 36.9702 31.8983 37.3291 32.9049C38.61 36.497 42.8049 38.195 46.1899 36.4914C48.4906 35.3336 49.8323 33.041 49.7115 30.474C49.5355 26.7307 46.3178 23.9988 42.5843 24.4228ZM24.9139 25.2075C23.374 25.536 21.689 26.5624 20.677 27.7887C19.211 29.5647 18.6249 32.0051 19.1117 34.3055C19.4092 35.7112 20.4695 37.4961 21.5382 38.3903C22.2715 39.0038 23.363 39.615 24.1625 39.8597L24.8621 40.0738V42.9636V45.8536H26.5203H28.1785V42.9726V40.0914L28.7745 39.9046C30.7797 39.2759 32.3424 37.9195 33.3159 35.9626C34.6214 33.3382 34.272 30.1751 32.4204 27.8569C31.733 26.9963 30.9196 26.3656 29.7849 25.8132C28.2527 25.0673 26.5589 24.8566 24.9139 25.2075ZM10.4312 27.8683C13.1289 28.5676 13.4544 32.2887 10.9227 33.4883C10.2051 33.8283 9.15958 33.8299 8.43535 33.4921C7.88856 33.2371 7.27097 32.6317 6.97353 32.059C6.71236 31.5561 6.65608 30.322 6.86896 29.765C7.21895 28.8492 8.0094 28.1086 8.89043 27.8714C9.52055 27.7017 9.78649 27.7012 10.4312 27.8683ZM44.6424 28.0578C45.2592 28.3558 45.7739 28.8959 46.0823 29.5693C46.4348 30.3385 46.3872 31.5022 45.9744 32.2061C45.3858 33.2099 44.4946 33.7305 43.3616 33.7325C40.9167 33.7368 39.5395 31.0554 40.9367 29.0111C41.2728 28.5193 42.0474 27.9869 42.6409 27.8399C43.2069 27.6996 44.1027 27.7971 44.6424 28.0578ZM28.2898 28.8444C30.8465 30.0733 31.4962 33.436 29.5739 35.4898C27.8629 37.3177 25.1258 37.2917 23.4098 35.4313C21.9595 33.8589 21.9894 31.3852 23.4781 29.7948C24.4145 28.7943 25.2786 28.4407 26.6758 28.4865C27.4732 28.5126 27.7074 28.5645 28.2898 28.8444ZM1.25786 36.8655C0.729402 37.7928 0.25028 39.2099 0.0910907 40.3165C0.0226891 40.7919 -0.013688 41.947 0.00621059 43.0093C0.0368876 44.6452 0.067772 44.9274 0.262405 45.3484C0.579851 46.0353 1.16189 46.6322 1.83761 46.9638L2.42431 47.2518L8.59081 47.3036L14.7573 47.3553L14.8146 48.8053C14.8548 49.8255 14.9229 50.3716 15.0441 50.6475C15.334 51.3078 15.8531 51.9446 16.4064 52.3188C17.4445 53.0205 17.1378 52.9999 26.5203 52.9999C35.9028 52.9999 35.5962 53.0205 36.6342 52.3188C37.1875 51.9446 37.7067 51.3078 37.9965 50.6475C38.1177 50.3716 38.1858 49.8255 38.226 48.8053L38.2833 47.3553L44.4498 47.3036C50.4737 47.253 50.6274 47.2467 51.0953 47.0304C51.783 46.7127 52.3801 46.131 52.7119 45.456L53 44.8697L52.9969 42.5393C52.9944 40.6948 52.957 40.0635 52.8173 39.5112C52.5777 38.5636 52.0787 37.3081 51.7082 36.7209L51.4025 36.2364L50.0248 37.1642C49.2671 37.6745 48.6498 38.1256 48.653 38.1666C48.6562 38.2076 48.806 38.5441 48.9859 38.9144C49.5107 39.995 49.6317 40.6393 49.6317 42.3539V43.8857H43.8402H38.0487L37.7702 42.9795C37.4493 41.9354 36.7361 40.4077 36.2719 39.7704L35.9525 39.3317L34.6046 40.3239C33.8633 40.8696 33.2568 41.3341 33.2568 41.356C33.2568 41.378 33.4165 41.6455 33.6117 41.9504C34.0717 42.6691 34.4454 43.5965 34.6525 44.5341C34.7812 45.1168 34.8117 45.7573 34.7889 47.4071L34.7596 49.5303H26.5203H18.281L18.2517 47.4071C18.2289 45.7573 18.2594 45.1168 18.3881 44.5341C18.5786 43.6721 18.9545 42.6996 19.3221 42.1176C19.462 41.8961 19.5765 41.6915 19.5765 41.6629C19.5765 41.6342 18.9476 41.1902 18.1792 40.6762L16.7817 39.7416L16.5027 40.1824C15.9687 41.0258 15.4292 42.3601 15.0573 43.7563C15.0303 43.8579 13.774 43.8857 9.21586 43.8857H3.40888V42.4013C3.40888 40.5855 3.5263 39.9644 4.07693 38.868L4.50423 38.0171L3.22844 37.115C2.5267 36.6189 1.89295 36.1901 1.8201 36.1622C1.73874 36.131 1.52224 36.4018 1.25786 36.8655Z" fill="#5D2FBE"/>
</svg>
