<svg width="15" height="16" viewBox="0 0 15 16" fill="none" xmlns="http://www.w3.org/2000/svg">
<path d="M3.10075 16C2.89456 15.8866 2.8267 15.7707 2.87368 15.6018C2.91283 15.4607 3.0355 15.375 3.21821 15.375C3.54185 15.375 3.86289 15.375 4.18915 15.375C4.19959 15.244 4.19959 15.123 4.22047 15.0096C4.3066 14.5736 4.65374 14.2712 5.11572 14.241C5.37411 14.2233 5.63251 14.241 5.8909 14.2309C5.93528 14.2309 5.99792 14.1956 6.02141 14.1578C6.05273 14.1074 6.05795 14.0394 6.07361 13.9789C6.17801 13.553 6.2798 13.1296 6.38942 12.6811C6.30851 12.6811 6.24587 12.6811 6.18323 12.6811C4.5911 12.6811 2.99896 12.6811 1.40944 12.6811C0.762144 12.6811 0.266234 12.366 0.0835296 11.8268C0.0313285 11.6705 0.00783772 11.5017 0.00783772 11.3353C0.0026176 8.69934 0.0104481 6.06333 7.86598e-06 3.42733C-0.00260219 2.60831 0.644691 2.07153 1.40422 2.07657C4.23613 2.09169 7.06804 2.08161 9.90256 2.08665C10.0383 2.08665 10.114 2.04633 10.1897 1.93797C10.5055 1.47175 10.8187 1.00302 11.1554 0.551926C11.479 0.120992 11.9436 -0.0604535 12.4891 0.0176689C13.0607 0.100831 13.447 0.423402 13.6323 0.955138C13.7446 1.27771 13.7185 1.60028 13.5827 1.91529C13.5619 1.96317 13.541 2.00853 13.5097 2.07405C13.601 2.07909 13.6741 2.08161 13.7446 2.08413C14.4075 2.11437 14.9269 2.58815 14.9896 3.22321C14.9974 3.29629 15 3.36937 15 3.44245C15 6.06838 15 8.6943 15 11.3177C15 11.9931 14.6215 12.4921 13.9951 12.6357C13.849 12.6685 13.695 12.676 13.5462 12.676C11.9749 12.6785 10.4063 12.676 8.83505 12.676H8.61841C8.64973 12.8146 8.67583 12.9381 8.70715 13.0616C8.79068 13.4018 8.88203 13.737 8.95511 14.0797C8.98121 14.2032 9.03602 14.2385 9.1613 14.2334C9.34923 14.2233 9.53976 14.2309 9.72769 14.2334C10.3985 14.2334 10.7978 14.614 10.803 15.2566C10.803 15.2868 10.803 15.3196 10.803 15.375C10.9831 15.375 11.158 15.375 11.3329 15.375C11.4686 15.375 11.6017 15.375 11.7374 15.375C11.9619 15.375 12.0898 15.4506 12.1315 15.6018C12.1759 15.7682 12.1107 15.8866 11.9045 16H3.10075ZM9.65199 2.70659C9.56064 2.70659 9.50844 2.70659 9.45624 2.70659C6.77571 2.70659 4.09258 2.70659 1.41205 2.70659C0.910917 2.70659 0.655132 2.95104 0.655132 3.43489C0.655132 5.33503 0.655132 7.23769 0.655132 9.13783C0.655132 9.19327 0.655132 9.24871 0.655132 9.3218C0.968339 9.3218 1.25805 9.31676 1.54777 9.3218C1.76963 9.32684 1.91057 9.46292 1.90274 9.64437C1.89491 9.82581 1.75919 9.93921 1.53994 9.94425C1.42249 9.94425 1.30243 9.94425 1.18497 9.94425C1.01532 9.94425 0.843056 9.94425 0.665572 9.94425C0.660352 10.0047 0.655132 10.0451 0.655132 10.0854C0.655132 10.5062 0.652522 10.9296 0.655132 11.3505C0.657742 11.789 0.926578 12.0485 1.38334 12.0485C5.46285 12.0485 9.53976 12.0485 13.6193 12.0485C14.0839 12.0485 14.3501 11.789 14.3527 11.3379C14.3527 10.9422 14.3527 10.5466 14.3527 10.1509C14.3527 10.0115 14.2796 9.94174 14.1335 9.94174C10.8683 9.94174 7.60571 9.94174 4.34053 9.94174C4.27006 9.94174 4.19959 9.94173 4.12912 9.93669C3.96729 9.91905 3.84984 9.80061 3.84201 9.64688C3.83418 9.49568 3.93597 9.36212 4.09519 9.33188C4.17349 9.31676 4.25701 9.31676 4.33531 9.31676C7.60049 9.31676 10.8631 9.31676 14.1282 9.31676C14.1961 9.31676 14.264 9.31676 14.3475 9.31676C14.3475 9.24367 14.3475 9.19075 14.3475 9.14035C14.3475 7.24021 14.3475 5.33755 14.3475 3.43741C14.3475 3.37945 14.3475 3.32149 14.3397 3.26605C14.2979 2.94348 14.0473 2.71667 13.7106 2.70407C13.5331 2.69651 13.3531 2.70911 13.1756 2.69903C13.0346 2.69147 12.9407 2.73431 12.8493 2.8452C11.9462 3.91623 11.0405 4.98222 10.1322 6.04821C10.0513 6.14398 10.007 6.22714 10.0513 6.35566C10.0905 6.46655 10.0957 6.59003 10.1035 6.711C10.1583 7.53758 9.57108 8.2306 8.72542 8.31376C8.42266 8.34401 8.11206 8.31629 7.80408 8.31376C7.39169 8.30872 7.01845 8.39189 6.70002 8.67162C6.50427 8.84298 6.24065 8.7573 6.16757 8.51033C6.02924 8.02648 5.9405 7.53506 5.95094 7.03104C5.97443 5.74077 6.73917 4.95702 8.04681 4.86882C8.10423 4.86378 8.1747 4.81842 8.20863 4.77306C8.41483 4.48829 8.61319 4.19596 8.81417 3.90615C9.083 3.51806 9.35184 3.12996 9.64416 2.70659H9.65199ZM9.74074 3.70202C10.0696 3.93891 10.3854 4.1632 10.7091 4.39252C10.8187 4.264 10.9179 4.14808 11.0171 4.03215C11.6252 3.31645 12.2333 2.59823 12.8441 1.88505C13.032 1.66328 13.1077 1.42135 13.019 1.14414C12.925 0.854335 12.711 0.680449 12.4056 0.632568C12.0898 0.584687 11.8314 0.69809 11.6513 0.952618C11.2963 1.45663 10.9492 1.96317 10.5968 2.4697C10.3149 2.87544 10.0331 3.28117 9.74335 3.70202H9.74074ZM6.68697 7.87275C6.96364 7.81479 7.22725 7.73415 7.49609 7.71147C7.81713 7.68626 8.14077 7.71147 8.46442 7.71147C8.71498 7.71147 8.95511 7.67114 9.15347 7.49726C9.51627 7.17973 9.51105 6.72108 9.38316 6.3733C9.3675 6.33298 9.32574 6.30022 9.28659 6.2725C8.95511 6.03309 8.62102 5.79369 8.28694 5.5568C8.25039 5.5316 8.20341 5.50388 8.15904 5.49884C7.6031 5.4308 6.96886 5.78865 6.75483 6.28762C6.53037 6.81684 6.58518 7.35613 6.68175 7.87275H6.68697ZM10.1453 15.37C10.1792 14.9768 10.0696 14.8584 9.68593 14.8584C8.21907 14.8584 6.75483 14.8584 5.28798 14.8584C4.92779 14.8584 4.79729 15.0172 4.87037 15.37H10.1453ZM6.67914 14.2183H8.32609C8.19819 13.6992 8.07291 13.1952 7.94763 12.6861H7.0576C6.93232 13.1926 6.80703 13.6966 6.67914 14.2183ZM9.59196 5.708C9.82948 5.42828 10.0592 5.15863 10.2967 4.8789C9.98869 4.65965 9.68854 4.44545 9.38055 4.22368C9.16914 4.52861 8.96816 4.81842 8.76458 5.11327C9.03863 5.30983 9.30747 5.50136 9.59196 5.708Z" fill="#410EAD"/>
<path d="M2.86855 9.94457C2.69107 9.94205 2.55273 9.80344 2.55273 9.6346C2.55273 9.46575 2.6989 9.32715 2.87377 9.32715C3.05387 9.32715 3.20264 9.47331 3.19742 9.6472C3.1922 9.81856 3.04865 9.94709 2.86855 9.94457Z" fill="#410EAD"/>
</svg>
