<svg width="15" height="15" viewBox="0 0 15 15" fill="none" xmlns="http://www.w3.org/2000/svg">
<path d="M0.000367041 10.8735C0.0778257 10.5694 0.153082 10.265 0.233477 9.96171C0.587731 8.62193 1.12664 7.36494 1.88213 6.20558C2.00548 6.01625 2.14718 5.8388 2.26906 5.64836C2.3021 5.59639 2.31935 5.50767 2.2999 5.45198C1.86341 4.21318 1.61745 2.9328 1.47575 1.6294C1.44418 1.33984 1.42656 1.04879 1.41298 0.757746C1.38728 0.21055 1.87332 -0.142492 2.38286 0.0557458C2.98638 0.290736 3.55025 0.604427 4.08328 0.973061C4.80868 1.4746 5.45808 2.06374 6.03296 2.73493C6.10565 2.81994 6.16806 2.84519 6.28186 2.81772C7.09793 2.61948 7.9173 2.62133 8.73337 2.81883C8.84166 2.84519 8.90077 2.81994 8.96978 2.74013C9.79723 1.78272 10.7528 0.986054 11.8736 0.401734C12.1203 0.273288 12.3739 0.155236 12.6327 0.0546322C13.1357 -0.140636 13.6243 0.21055 13.5949 0.749951C13.5086 2.32398 13.2535 3.86719 12.7326 5.35806C12.6838 5.49801 12.6896 5.59565 12.7803 5.71815C13.8765 7.2016 14.5556 8.87289 14.9469 10.6726C14.9616 10.7402 14.9767 10.8074 14.9906 10.8749C15.0343 11.088 14.9227 11.2105 14.7087 11.1808C14.3702 11.1341 14.0325 11.0847 13.694 11.0372C13.6566 11.032 13.6184 11.0309 13.5641 11.0264C13.6089 11.1652 13.6489 11.2904 13.6893 11.4155C13.7763 11.6842 13.7355 11.7626 13.4653 11.8498C12.5263 12.1535 11.603 12.4987 10.7227 12.9524C10.5186 13.0574 10.3204 13.1747 10.1225 13.2917C10.0781 13.3177 10.0384 13.3596 10.0094 13.4027C9.80824 13.7004 9.54577 13.9194 9.21464 14.0557C9.17426 14.0724 9.12397 14.1076 9.11185 14.1451C9.00172 14.4911 8.74658 14.692 8.43124 14.8115C7.69373 15.091 6.96944 15.0777 6.28186 14.6496C6.10345 14.5386 5.97496 14.3801 5.90705 14.1726C5.89163 14.1258 5.83987 14.0765 5.79288 14.0568C5.46726 13.9209 5.20845 13.7063 5.00581 13.4157C4.96286 13.354 4.89898 13.3009 4.83437 13.262C3.80502 12.642 2.68976 12.2266 1.55651 11.8535C1.26247 11.7566 1.22686 11.6887 1.32597 11.3872C1.36415 11.2718 1.40233 11.1563 1.44932 11.0138C1.10755 11.0632 0.790372 11.1088 0.473195 11.1549C0.410421 11.1641 0.347646 11.1727 0.285239 11.1846C0.158221 11.2087 0.0748889 11.1396 0 11.0509C0 10.9915 0 10.9325 0 10.8731L0.000367041 10.8735ZM14.3948 10.2617C14.3912 10.2409 14.3886 10.2119 14.3816 10.1845C14.0351 8.85878 13.5197 7.60587 12.7671 6.46173C12.0861 5.42674 11.2675 4.5239 10.193 3.89355C8.49255 2.89567 6.76129 2.84073 5.01866 3.77884C3.83769 4.41439 2.95481 5.37476 2.22538 6.48846C1.48309 7.62183 0.973189 8.86026 0.631783 10.1722C0.622973 10.206 0.621504 10.2416 0.613061 10.3021C0.664823 10.2672 0.692722 10.249 0.719888 10.2301C1.08002 9.97805 1.46657 9.78463 1.89425 9.6792C2.29806 9.57971 2.70444 9.56152 3.1145 9.62872C3.26244 9.65285 3.34908 9.75271 3.33513 9.87484C3.32081 10.0011 3.21692 10.0783 3.07045 10.0709C3.05099 10.0697 3.03153 10.0683 3.01208 10.0653C2.52163 9.98955 2.04696 10.0508 1.59469 10.2524C1.37774 10.3493 1.17289 10.4744 0.96291 10.5869C1.20043 10.6025 1.41922 10.5802 1.63801 10.5765C1.93169 10.5716 2.0187 10.6986 1.92766 10.9774C1.87663 11.1341 1.8256 11.2911 1.77714 11.4392C2.28631 11.6315 2.7786 11.8049 3.26134 12.0031C3.74041 12.1999 4.20956 12.4211 4.67395 12.6279C4.65963 12.3766 4.65156 12.1201 4.6288 11.865C4.5785 11.3019 4.40046 10.8066 3.89679 10.4863C3.75656 10.3972 3.72756 10.2717 3.79768 10.16C3.86999 10.0456 4.00142 10.0326 4.14459 10.1221C4.56015 10.3812 4.83584 10.7565 4.94597 11.228C5.03151 11.5944 5.05206 11.9771 5.09391 12.3536C5.14311 12.792 5.28958 13.1822 5.64457 13.458C6.11923 13.8266 6.64015 13.801 7.17502 13.6135C7.24917 13.5875 7.29139 13.5549 7.28515 13.468C7.27891 13.3808 7.29029 13.3084 7.18309 13.2527C6.98963 13.1517 6.7969 13.037 6.63171 12.8948C6.22826 12.5477 6.21651 11.9831 6.58655 11.5985C6.9944 11.1745 7.72017 11.1025 8.20327 11.4381C8.79945 11.852 8.81743 12.5555 8.23668 12.9921C8.10048 13.0945 7.94997 13.1803 7.79799 13.2571C7.69814 13.3076 7.7209 13.3871 7.72751 13.4587C7.73191 13.5074 7.76128 13.5812 7.79799 13.5957C8.24035 13.7698 8.69005 13.8244 9.13204 13.6042C9.63717 13.3529 9.84716 12.9034 9.91214 12.3636C9.95766 11.9827 9.97564 11.5948 10.063 11.2235C10.1739 10.7524 10.4496 10.3749 10.8692 10.1228C10.9308 10.0857 11.0223 10.0586 11.085 10.0775C11.146 10.0961 11.2242 10.1763 11.2289 10.2353C11.2352 10.3088 11.1922 10.4053 11.1394 10.4621C11.0002 10.6114 10.82 10.7261 10.6992 10.8876C10.3075 11.4103 10.3996 12.0443 10.324 12.658C11.2653 12.1587 12.2392 11.7882 13.2208 11.4574C13.2208 11.4285 13.2234 11.4177 13.2205 11.4088C13.1735 11.2636 13.1258 11.1185 13.0784 10.9733C12.9899 10.7027 13.0766 10.5739 13.3607 10.5776C13.5821 10.5802 13.8034 10.6021 14.0457 10.6166C14.0009 10.5824 13.9723 10.5575 13.9407 10.5371C13.3467 10.1477 12.7058 9.95948 11.994 10.0657C11.8112 10.0931 11.6999 10.0278 11.675 9.88821C11.6507 9.75308 11.7429 9.65359 11.9239 9.62575C12.451 9.54482 12.9697 9.58714 13.4624 9.79317C13.7796 9.92607 14.0791 10.1024 14.3945 10.2632L14.3948 10.2617ZM12.8284 0.476723C11.4492 1.00573 10.3185 1.87701 9.34386 2.9844C9.64305 3.11953 9.92645 3.2476 10.2172 3.37902C10.2422 3.34561 10.2686 3.31108 10.2947 3.27619C10.5726 2.90718 10.8475 2.53595 11.1302 2.17066C11.2473 2.01919 11.3761 1.87627 11.5072 1.73706C11.6045 1.63348 11.7319 1.62977 11.82 1.71924C11.9143 1.81502 11.9088 1.92119 11.8339 2.02662C11.8112 2.05854 11.7818 2.08564 11.7576 2.11646C11.3974 2.57679 11.0377 3.03748 10.6786 3.49856C10.6504 3.53494 10.6273 3.57577 10.61 3.60213C10.9257 3.85197 11.2355 4.07656 11.5215 4.329C11.8056 4.57958 12.0656 4.85801 12.3379 5.12567C12.6878 4.36204 13.2069 1.5533 13.1313 0.803037C12.94 0.967864 12.7598 1.12415 12.5788 1.27896C12.4477 1.39107 12.3181 1.39627 12.2293 1.29455C12.1375 1.18912 12.1555 1.06624 12.2877 0.947818C12.4657 0.788559 12.6478 0.633383 12.828 0.476352L12.8284 0.476723ZM4.41257 3.62255C3.68644 2.5586 2.87551 1.60341 1.85754 0.796355C1.94014 2.29762 2.19784 3.72983 2.66627 5.15277C3.19306 4.56177 3.75069 4.0439 4.41257 3.62255ZM5.65521 2.98885C5.00691 2.0901 2.85532 0.537977 2.16884 0.477837C3.21105 1.30049 4.0473 2.30207 4.78628 3.38087C5.0851 3.24612 5.36447 3.1199 5.65521 2.98885ZM7.55827 11.6712C7.25798 11.6712 7.04543 11.7529 6.90557 11.8962C6.70403 12.1026 6.70329 12.3937 6.93053 12.5689C7.47678 12.9902 7.49146 12.9809 8.01752 12.5989C8.02927 12.5904 8.04101 12.5815 8.05203 12.5718C8.26752 12.381 8.27853 12.1022 8.07479 11.8969C7.914 11.7347 7.71319 11.6727 7.55827 11.6712ZM6.47899 14.2368C6.82921 14.6537 8.15518 14.6652 8.52853 14.2376C8.20988 14.1529 7.87472 14.0638 7.53918 13.9766C7.51349 13.9699 7.48265 13.974 7.45585 13.981C7.12436 14.0672 6.7936 14.1544 6.47862 14.2372L6.47899 14.2368Z" fill="#410EAD"/>
<path d="M6.0727 8.48411C6.09803 8.83085 6.05178 9.15827 5.80288 9.42073C5.50259 9.7374 5.13586 9.84431 4.72287 9.71029C4.31685 9.57888 4.05584 9.28857 4.01876 8.85535C3.9927 8.55019 3.99307 8.23019 4.05547 7.93246C4.14652 7.49812 4.54923 7.21042 4.98645 7.19185C5.1432 7.18517 5.23718 7.25348 5.24966 7.38304C5.26251 7.5152 5.18982 7.59798 5.0338 7.62879C4.58594 7.71715 4.43102 7.90573 4.43286 8.36792C4.43359 8.52049 4.42882 8.6753 4.45158 8.82528C4.49673 9.12041 4.76692 9.33535 5.05399 9.32273C5.36309 9.30936 5.62374 9.0714 5.62741 8.76217C5.63071 8.49414 5.60061 8.22462 5.57234 7.95734C5.55876 7.82703 5.59767 7.71603 5.70413 7.6778C5.82124 7.63585 5.94899 7.68522 5.9835 7.81887C6.0393 8.03567 6.06866 8.25915 6.10904 8.48003C6.09656 8.48152 6.08445 8.48337 6.07197 8.48486L6.0727 8.48411Z" fill="#410EAD"/>
<path d="M8.93903 8.47628C8.91334 8.13772 8.95151 7.81549 9.18866 7.54895C9.38763 7.32546 9.63322 7.20147 9.93168 7.19071C10.0785 7.18551 10.1681 7.25382 10.1839 7.37966C10.1993 7.50328 10.1277 7.60203 9.98491 7.62171C9.79475 7.64769 9.62515 7.70301 9.50033 7.86152C9.31274 8.09948 9.30981 8.85271 9.50143 9.08807C9.6659 9.2904 9.88065 9.36501 10.1295 9.29634C10.3718 9.22914 10.5304 9.06209 10.5587 8.80742C10.5903 8.52417 10.606 8.23758 10.5139 7.95767C10.4728 7.83294 10.5271 7.71377 10.6354 7.67888C10.7518 7.64138 10.8469 7.67591 10.9093 7.78616C11.1196 8.15851 11.03 9.07582 10.7507 9.40622C10.4842 9.72177 10.0356 9.84205 9.63249 9.70543C9.2474 9.57476 8.96546 9.2091 8.94013 8.80148C8.93353 8.69345 8.93903 8.58468 8.93903 8.47628Z" fill="#410EAD"/>
</svg>
