<svg width="17" height="15" viewBox="0 0 17 15" fill="none" xmlns="http://www.w3.org/2000/svg">
<path d="M0 12.6653C0 9.22002 0 5.77521 0 2.32994C0.00873191 2.30867 0.0232851 2.28827 0.0257799 2.26611C0.144284 1.14325 1.0786 -0.00221325 2.53392 3.21145e-06C6.51192 0.005766 10.4899 -0.000883371 14.4679 0.00798246C14.7565 0.00842575 15.058 0.0540848 15.3307 0.151609C16.3598 0.518211 16.996 1.49744 16.9973 2.67571C16.9998 4.63994 16.9981 6.60416 16.9981 8.56839C16.9981 9.83044 17.0031 11.0929 16.9969 12.355C16.9894 13.7629 16.0264 14.8862 14.7162 14.9717C13.9885 15.0192 13.2563 14.9926 12.5261 14.9926C9.20093 14.9939 5.87574 14.9961 2.55055 14.9912C1.47652 14.9899 0.683999 14.4775 0.219545 13.4375C0.112267 13.1977 0.0715185 12.9237 0 12.6653ZM16.0056 4.88153C16.0106 4.82656 16.016 4.79243 16.016 4.75829C16.0164 4.06233 16.0189 3.36636 16.0143 2.66995C16.0135 2.52987 16.0023 2.38491 15.9682 2.25015C15.7786 1.49257 15.2239 1.05326 14.4605 1.05326C10.4879 1.05238 6.51483 1.05193 2.54223 1.05326C1.61291 1.05326 0.985042 1.70934 0.983379 2.70054C0.978389 5.89755 0.977974 9.09502 0.988369 12.292C0.9892 12.5491 1.04034 12.828 1.14346 13.0585C1.42122 13.6791 1.91894 13.9437 2.55637 13.9437C6.51816 13.942 10.48 13.9429 14.4413 13.9424C14.5187 13.9424 14.5964 13.9411 14.6733 13.9331C15.3998 13.8595 15.9694 13.262 15.9993 12.4862C16.0285 11.7326 16.0122 10.9768 16.0151 10.2219C16.0151 10.1891 16.0056 10.1563 15.9985 10.1137C15.9233 10.1137 15.8576 10.1137 15.7919 10.1137C14.6796 10.1137 13.5673 10.1208 12.4554 10.1119C10.8608 10.0991 9.71736 8.61803 10.0221 6.97209C10.2479 5.7526 11.255 4.88862 12.4696 4.88286C13.5819 4.87754 14.6937 4.88153 15.806 4.88153C15.8709 4.88153 15.9353 4.88153 16.0052 4.88153H16.0056ZM16.0048 9.05512V5.93257H15.7973C14.7191 5.93257 13.6409 5.93257 12.5623 5.93302C12.4575 5.93302 12.3519 5.93568 12.2475 5.94632C11.2542 6.04916 10.645 7.26555 11.1165 8.20311C11.4118 8.79003 11.8804 9.06266 12.497 9.06266C13.6139 9.0631 14.7311 9.06266 15.848 9.06266C15.8966 9.06266 15.9453 9.05822 16.0048 9.05512Z" fill="#410EAD"/>
<path d="M12.7289 8.0225C12.6295 8.0225 12.5297 8.02737 12.4304 8.02161C12.1389 8.00476 11.9301 7.7809 11.9326 7.49365C11.9351 7.21172 12.1372 6.98874 12.4208 6.975C12.6412 6.96436 12.8632 6.96347 13.0836 6.97588C13.3651 6.9914 13.5672 7.22102 13.5651 7.50119C13.5626 7.78312 13.3605 8.0021 13.0769 8.02072C12.9613 8.02826 12.8449 8.02205 12.7289 8.02205V8.0225Z" fill="#410EAD"/>
</svg>
