<svg width="15" height="11" viewBox="0 0 15 11" fill="none" xmlns="http://www.w3.org/2000/svg">
<path d="M0 7.53307C0.0291585 7.23032 0.0530684 6.92693 0.0886418 6.62548C0.270591 5.07334 0.570923 3.557 1.22232 2.15525C1.51216 1.53153 1.87547 0.967055 2.3875 0.538653C2.87444 0.131085 3.43079 -0.0499119 4.0262 0.0301694C4.60004 0.107646 5.1663 0.261298 5.73489 0.38435C6.27082 0.50024 6.80209 0.659101 7.34269 0.721603C7.67801 0.760667 8.03258 0.684492 8.36907 0.608317C9.05662 0.452712 9.73602 0.251532 10.423 0.0900676C10.9904 -0.0434012 11.5573 -0.0466565 12.1072 0.204656C12.597 0.428623 12.9674 0.816008 13.2869 1.27306C13.8742 2.11358 14.1996 3.09149 14.4609 4.09999C14.8131 5.46268 15.0195 6.8514 14.9985 8.27333C14.9892 8.90096 14.9402 9.52534 14.6865 10.1041C14.3862 10.7884 13.8608 11.0918 13.1855 10.9694C12.6414 10.8704 12.169 10.5872 11.731 10.237C11.3193 9.90751 10.9012 9.57417 10.5408 9.18027C9.84624 8.41982 9.00414 8.09169 8.06582 7.99858C7.26513 7.91915 6.47726 7.99403 5.71215 8.28766C5.30393 8.44391 4.95169 8.69913 4.63445 9.02336C4.12301 9.54682 3.58941 10.0416 2.99283 10.4427C2.63651 10.6823 2.26795 10.8919 1.85156 10.9707C1.12085 11.11 0.543514 10.7506 0.260677 9.97913C0.118967 9.59175 0.0565675 9.18548 0.0297417 8.7701C0.0244931 8.68481 0.0104971 8.60017 0 8.51488C0 8.18739 0 7.86056 0 7.53307ZM0.695138 7.86056C0.696305 8.60863 0.715549 9.11842 0.873588 9.60932C1.02871 10.0905 1.33546 10.3092 1.77167 10.1731C2.07725 10.0774 2.37758 9.929 2.654 9.75386C3.23426 9.38601 3.72645 8.88338 4.22156 8.38923C4.57555 8.03635 4.97444 7.77071 5.42173 7.59427C6.69595 7.091 7.98359 7.06691 9.27648 7.48359C9.81125 7.65612 10.2871 7.95496 10.7099 8.37165C11.1444 8.80005 11.594 9.21282 12.0582 9.60086C12.4174 9.901 12.8134 10.1419 13.2677 10.2304C13.6298 10.3008 13.8853 10.1673 14.0515 9.79748C14.2282 9.40489 14.2812 8.97844 14.2982 8.54678C14.353 7.12811 14.1465 5.74589 13.8141 4.38321C13.5902 3.46455 13.2893 2.58105 12.7714 1.81019C12.2763 1.07318 11.6226 0.68905 10.7927 0.82317C10.1862 0.92083 9.58264 1.06472 8.99073 1.24115C8.02033 1.53023 7.06277 1.55888 6.08887 1.26069C5.49287 1.07774 4.8858 0.929294 4.2758 0.818612C3.6384 0.703373 3.05698 0.886323 2.57236 1.39155C2.1344 1.84795 1.84282 2.41373 1.61713 3.01987C1.01355 4.64298 0.723714 6.34031 0.695138 7.86121V7.86056Z" fill="#410EAD"/>
<path d="M6.09724 4.42742C6.08733 4.99124 5.72926 5.47368 5.23007 5.58502C5.14085 5.6052 5.10586 5.64036 5.08661 5.74388C4.98456 6.3051 4.51977 6.72048 4.01533 6.71397C3.49397 6.70746 3.05601 6.29598 2.96096 5.71067C2.94346 5.6039 2.88631 5.6026 2.81983 5.58762C2.07862 5.4229 1.70714 4.51596 2.08679 3.78677C2.24949 3.47426 2.49792 3.28284 2.8175 3.21448C2.89506 3.19755 2.9458 3.18128 2.96329 3.0732C3.0566 2.50417 3.49572 2.09855 4.01824 2.08618C4.52385 2.07446 4.98514 2.48659 5.08778 3.05302C5.10644 3.15458 5.13676 3.1969 5.23007 3.21578C5.73276 3.318 6.10716 3.84667 6.09666 4.42612L6.09724 4.42742ZM5.42485 4.40203C5.42543 4.15658 5.27672 3.97883 5.0557 3.96581C4.97814 3.96126 4.89941 3.96516 4.82185 3.96321C4.56759 3.958 4.42938 3.80174 4.42121 3.51527C4.4183 3.4072 4.41947 3.29652 4.40197 3.19104C4.36173 2.95275 4.20253 2.81863 3.99667 2.83751C3.78614 2.85639 3.64385 3.02632 3.6351 3.26982C3.63277 3.346 3.6351 3.42217 3.63394 3.49835C3.6316 3.79328 3.49572 3.95149 3.23272 3.96321C3.14524 3.96712 3.0566 3.9593 2.96971 3.97167C2.75685 4.00097 2.62389 4.17415 2.62855 4.40333C2.63322 4.62534 2.78367 4.79853 2.99187 4.81481C3.07468 4.82132 3.15749 4.81611 3.2403 4.81806C3.47765 4.82197 3.62169 4.97627 3.63277 5.2406C3.63627 5.32785 3.6316 5.41509 3.63452 5.50168C3.6421 5.7569 3.78848 5.92878 4.00483 5.9379C4.23285 5.94766 4.39614 5.7901 4.41772 5.53293C4.4253 5.44113 4.41947 5.34803 4.4218 5.25558C4.42763 5.01208 4.55418 4.86168 4.77345 4.84345C4.88017 4.83434 4.98864 4.84345 5.09478 4.82848C5.29597 4.79983 5.42427 4.6286 5.42485 4.40268V4.40203Z" fill="#410EAD"/>
<path d="M10.7495 2.19338C11.1134 2.19077 11.4015 2.50849 11.4032 2.91346C11.405 3.31907 11.1198 3.642 10.7582 3.64395C10.3938 3.64591 10.1062 3.32884 10.1045 2.92322C10.1028 2.51696 10.3868 2.19598 10.7495 2.19338Z" fill="#410EAD"/>
<path d="M9.41278 5.12632C9.05238 5.1159 8.76254 4.77865 8.77479 4.38345C8.78703 3.97849 9.08095 3.66532 9.44193 3.67248C9.79883 3.67965 10.0875 4.01625 10.0799 4.416C10.0723 4.81511 9.77084 5.13673 9.41278 5.12632Z" fill="#410EAD"/>
<path d="M11.4292 4.39456C11.4315 3.99416 11.726 3.67058 12.0859 3.67188C12.4445 3.67383 12.7367 4.00392 12.7332 4.40433C12.7303 4.80604 12.4352 5.13027 12.0765 5.12636C11.715 5.12246 11.4269 4.79627 11.4292 4.39456Z" fill="#410EAD"/>
<path d="M11.4038 5.87476C11.4061 6.27777 11.1186 6.60656 10.7594 6.61177C10.4037 6.61698 10.1068 6.28819 10.1045 5.88779C10.1022 5.48477 10.3891 5.15664 10.7483 5.15143C11.1041 5.14622 11.4015 5.47501 11.4038 5.87542V5.87476Z" fill="#410EAD"/>
</svg>
