<svg width="15" height="15" viewBox="0 0 15 15" fill="none" xmlns="http://www.w3.org/2000/svg">
<path d="M1.25664 8.11487V13.024H7.74929V12.8548C7.74929 12.1529 7.74929 11.4515 7.74929 10.7497C7.74929 10.7086 7.7472 10.6676 7.75012 10.6269C7.76014 10.4791 7.85698 10.3834 7.99597 10.3817C8.13622 10.3801 8.23848 10.4733 8.24725 10.6207C8.25351 10.7279 8.24933 10.8359 8.24933 10.9431C8.24933 11.578 8.24933 12.2133 8.24933 12.8482V13.0326C8.40961 13.0326 8.55904 13.0309 8.70805 13.033C8.9034 13.0359 8.99689 13.1246 8.99815 13.3147C8.9994 13.5192 9.01317 13.727 8.98521 13.9282C8.89588 14.5656 8.38248 14.998 7.72383 14.9988C5.5738 15.0009 3.42419 15.0001 1.27417 14.9988C1.19152 14.9988 1.10763 14.9906 1.02623 14.9758C0.434777 14.8682 0.0136212 14.38 0.00193404 13.7894C-0.000987759 13.6358 -0.000153049 13.4823 0.00151655 13.3287C0.00402095 13.1205 0.0929272 13.035 0.309558 13.033C0.449386 13.0318 0.589633 13.033 0.751166 13.033V12.8474C0.751166 11.224 0.751166 9.60024 0.751166 7.97688C0.751166 7.69394 0.822959 7.62289 1.10971 7.62289C1.83307 7.62289 2.55684 7.62371 3.28019 7.62207C3.41292 7.62207 3.51769 7.66108 3.5636 7.79126C3.62329 7.96005 3.50099 8.11199 3.30023 8.11364C2.92039 8.11692 2.54014 8.11487 2.16031 8.11487C1.86437 8.11487 1.56802 8.11487 1.25664 8.11487ZM1.74374 14.506C1.76712 14.3052 1.68698 14.0371 1.98542 14.0264C2.31808 14.0145 2.2321 14.3085 2.25589 14.4962H6.74419C6.76297 14.1291 6.81097 14.019 6.97793 14.0219C7.3177 14.028 7.23088 14.3024 7.25634 14.495C8.3278 14.6407 8.57532 14.0744 8.48141 13.5344H0.502396C0.502396 13.6354 0.497805 13.727 0.503231 13.8182C0.524101 14.1771 0.818367 14.4785 1.18359 14.5036C1.36433 14.5163 1.54673 14.5056 1.74374 14.5056V14.506Z" fill="#410EAD"/>
<path d="M7.49693 6.03193C6.44884 6.88242 5.4141 7.72182 4.36518 8.57313C4.44448 8.7107 4.52212 8.84704 4.60184 8.98215C4.72122 9.18625 4.84268 9.38912 4.96206 9.59281C5.07351 9.78336 5.05472 9.92996 4.91114 10.0072C4.77089 10.0827 4.63607 10.0224 4.52421 9.83305C4.33429 9.51067 4.14479 9.1883 3.94611 8.85115C3.63306 9.03266 3.32168 9.19734 3.02825 9.38871C2.82957 9.51807 2.78323 9.78459 2.90052 9.99526C3.06289 10.2868 3.2311 10.5759 3.40808 10.8589C3.54791 11.0827 3.8092 11.1476 4.05046 11.0367C4.06006 11.0322 4.06966 11.0289 4.07843 11.0232C5.10064 10.3451 6.28355 10.0289 7.41303 9.59363C7.99822 9.36817 8.58968 9.15791 9.19449 8.93492C9.16277 8.87907 9.13689 8.83144 9.10976 8.78503C8.7796 8.22242 8.44818 7.66022 8.11927 7.09679C8.01993 6.92636 8.07044 6.75553 8.22988 6.70378C8.36261 6.66066 8.46989 6.71076 8.56046 6.86476C8.87309 7.39616 9.18447 7.92838 9.49627 8.4602C9.57683 8.59777 9.65822 8.73452 9.73753 8.8725C9.86358 9.09262 9.81642 9.22403 9.57558 9.31315C8.54919 9.69301 7.52281 10.0716 6.496 10.4511C6.30191 10.523 6.10782 10.5952 5.89787 10.6733C6.05398 10.9427 6.21008 11.2001 6.35409 11.4638C6.57072 11.8609 6.39833 12.3377 5.98511 12.5032C5.63825 12.6424 5.25424 12.5151 5.05264 12.1857C4.88401 11.9102 4.72414 11.6289 4.58014 11.3845C4.31676 11.4564 4.0755 11.5496 3.8259 11.5829C3.56085 11.6178 3.33462 11.4819 3.13385 11.3069C3.04035 11.3574 2.95145 11.4096 2.85878 11.4548C2.4873 11.6363 2.05612 11.5098 1.85744 11.164C1.65793 10.8166 1.77229 10.392 2.12541 10.1718C2.15171 10.1554 2.17759 10.1369 2.20639 10.1259C2.3387 10.0753 2.37961 10.0035 2.35999 9.84783C2.31491 9.48644 2.46518 9.18912 2.76028 8.96613C2.78073 8.95053 2.8016 8.93451 2.82497 8.92342C3.91105 8.40434 4.77882 7.59164 5.70086 6.85285C6.25391 6.40975 6.80154 5.96048 7.35167 5.51409C7.55077 5.3527 7.69185 5.37651 7.82166 5.59252C7.89054 5.7071 7.96024 5.82126 8.02452 5.9383C8.10174 6.07916 8.07085 6.21673 7.95148 6.28942C7.82417 6.36704 7.68601 6.32761 7.59251 6.18634C7.56413 6.14364 7.53867 6.09928 7.49776 6.03276L7.49693 6.03193ZM5.41243 10.8531C5.258 10.9406 5.12526 11.0158 4.98293 11.0963C5.15824 11.3936 5.32019 11.6782 5.49216 11.9566C5.56437 12.0736 5.70587 12.0991 5.82065 12.0359C5.9321 11.9747 5.98427 11.8363 5.91832 11.7172C5.75888 11.4314 5.58858 11.1517 5.41243 10.8527V10.8531ZM2.83624 10.8843C2.79325 10.8096 2.7561 10.7435 2.71729 10.6778C2.67638 10.6088 2.63464 10.541 2.59374 10.4737C2.26942 10.6347 2.18635 10.7599 2.28444 10.9238C2.38211 11.0868 2.54824 11.0774 2.83624 10.8839V10.8843Z" fill="#410EAD"/>
<path d="M12.7495 0.245588C13.2337 0.245588 13.7179 0.244356 14.2021 0.245588C14.6808 0.24682 14.9968 0.554408 14.9976 1.02298C14.9993 1.98065 14.9993 2.93873 14.9976 3.8964C14.9968 4.35757 14.6812 4.67009 14.2146 4.67091C13.2358 4.67296 12.257 4.67296 11.2786 4.67091C10.8211 4.67009 10.5022 4.35634 10.4997 3.9079C10.4972 3.44713 10.4985 2.98595 10.4997 2.52519C10.4997 2.32889 10.5891 2.21719 10.7439 2.2139C10.9042 2.21021 10.9985 2.32601 10.9989 2.53012C10.9998 2.97569 10.9985 3.42126 10.9994 3.86683C10.9998 4.09598 11.0858 4.17934 11.3216 4.17975C12.2741 4.18058 13.227 4.18058 14.1795 4.17975C14.4129 4.17975 14.498 4.09475 14.498 3.86313C14.4988 2.926 14.4988 1.98845 14.498 1.05131C14.498 0.820929 14.4124 0.737564 14.177 0.737564C13.2245 0.736743 12.2716 0.736743 11.3191 0.737564C11.0841 0.737564 11.0006 0.820929 10.9989 1.05213C10.9981 1.18519 11.0014 1.31865 10.9977 1.45171C10.9931 1.61639 10.8867 1.72439 10.7406 1.71946C10.5999 1.71495 10.5031 1.61064 10.4997 1.4513C10.4964 1.29278 10.496 1.13386 10.4997 0.974928C10.5089 0.564674 10.8299 0.249694 11.2502 0.246409C11.7498 0.241892 12.2499 0.245588 12.7495 0.245177V0.245588Z" fill="#410EAD"/>
<path d="M10.4991 10.0832C10.4991 9.60679 10.4978 9.13042 10.4991 8.65405C10.5003 8.17604 10.8142 7.86968 11.303 7.86927C12.2659 7.86845 13.2293 7.86845 14.1922 7.86927C14.6823 7.86968 14.9957 8.1748 14.9974 8.65323C14.9991 9.10906 14.9982 9.5649 14.9974 10.0207C14.997 10.2142 14.9031 10.3271 14.7478 10.3271C14.5921 10.3271 14.4986 10.2142 14.4982 10.0207C14.4973 9.56983 14.4986 9.11933 14.4973 8.66842C14.4969 8.44789 14.4093 8.36166 14.1851 8.36125C13.2272 8.36042 12.2693 8.36042 11.3113 8.36125C11.0864 8.36125 10.9987 8.44707 10.9983 8.66719C10.9975 9.60966 10.9975 10.5521 10.9983 11.4946C10.9983 11.7164 11.0855 11.803 11.3088 11.8034C12.2668 11.8043 13.2247 11.8043 14.1826 11.8034C14.408 11.8034 14.4953 11.7176 14.4973 11.4987C14.4986 11.3603 14.4948 11.2219 14.4986 11.084C14.5032 10.9263 14.6034 10.8232 14.7449 10.8215C14.8868 10.8199 14.9915 10.923 14.9957 11.0794C15.0003 11.2536 15.0028 11.4281 14.9945 11.6018C14.9761 11.9743 14.6668 12.2888 14.2874 12.2921C13.2618 12.3008 12.2363 12.3008 11.2107 12.2921C10.8125 12.2888 10.5028 11.9587 10.4995 11.5587C10.4949 11.0671 10.4982 10.5751 10.4982 10.0836L10.4991 10.0832Z" fill="#410EAD"/>
<path d="M3.49993 4.68707C3.49993 5.3121 3.50035 5.93713 3.49993 6.56217C3.49993 6.80281 3.41645 6.88454 3.17186 6.88495C2.22436 6.88536 1.27645 6.88536 0.328948 6.88495C0.0843521 6.88495 0.00128961 6.80323 0.00128961 6.56175C0.000872213 5.30142 0.000872213 4.04109 0.00128961 2.78118C0.00128961 2.54012 0.0839348 2.4588 0.329366 2.4588C1.27686 2.45839 2.22478 2.45839 3.17227 2.4588C3.41729 2.4588 3.49993 2.54053 3.50035 2.78159C3.50119 3.41689 3.50035 4.05218 3.50035 4.68748L3.49993 4.68707ZM2.99321 2.96146H0.513022V6.38476H2.99321V2.96146Z" fill="#410EAD"/>
<path d="M4.00002 2.20982C4.00503 0.983168 5.01764 -0.00694461 6.26024 3.66932e-05C7.50534 0.00701799 8.50376 1.00206 8.49833 2.23118C8.49291 3.44921 7.47237 4.43316 6.22225 4.42577C4.99886 4.41838 3.99501 3.41759 4.00002 2.21023V2.20982ZM7.99829 2.21106C7.99829 1.26365 7.21149 0.489549 6.25189 0.491602C5.27977 0.493656 4.49923 1.26447 4.50006 2.22173C4.5009 3.15805 5.2877 3.93215 6.23895 3.93379C7.21233 3.93503 7.99871 3.16544 7.99829 2.21147V2.21106Z" fill="#410EAD"/>
<path d="M13.748 10.0776C13.7496 10.6217 13.3018 11.0648 12.7487 11.0653C12.2036 11.0661 11.7532 10.6283 11.7491 10.0936C11.7449 9.54785 12.1886 9.10228 12.7404 9.09817C13.293 9.09407 13.7463 9.53471 13.748 10.0772V10.0776ZM12.7471 9.59056C12.4737 9.5922 12.2508 9.81109 12.2495 10.0793C12.2483 10.3532 12.4791 10.5774 12.7579 10.5725C13.0301 10.5675 13.25 10.345 13.2479 10.0764C13.2458 9.81027 13.0175 9.58892 12.7471 9.59056Z" fill="#410EAD"/>
<path d="M12.7482 2.20678C13.1385 2.22526 13.2424 2.27906 13.2466 2.45277C13.2512 2.62813 13.1443 2.68603 12.7478 2.71272C12.7478 2.94393 12.7474 3.1776 12.7478 3.41126C12.7482 3.55212 12.6848 3.64863 12.5437 3.68189C12.3909 3.71762 12.2528 3.59935 12.249 3.42646C12.244 3.19197 12.2478 2.95707 12.2478 2.71395C12.0441 2.68398 11.7523 2.77145 11.7569 2.45277C11.7615 2.14724 12.0424 2.22937 12.2482 2.20596C12.2482 2.11192 12.2452 2.02609 12.2486 1.94067C12.2632 1.55383 12.5771 1.24336 12.9703 1.23022C13.1368 1.22447 13.3034 1.22653 13.4699 1.2294C13.6394 1.23269 13.7483 1.33412 13.7458 1.47868C13.7433 1.62282 13.6348 1.71645 13.4611 1.71974C13.3363 1.7222 13.2111 1.71974 13.0863 1.72056C12.8238 1.72138 12.7465 1.7994 12.7474 2.06305C12.7474 2.10822 12.7474 2.15299 12.7474 2.20637L12.7482 2.20678Z" fill="#410EAD"/>
<path d="M10.2635 7.3774C10.0974 7.37535 9.98931 7.28747 9.97428 7.15564C9.95926 7.02752 10.0494 6.91664 10.1976 6.88666C10.6 6.80576 11.0023 6.72527 11.4055 6.64683C11.585 6.61192 11.7148 6.68461 11.7466 6.8304C11.78 6.9844 11.6923 7.09897 11.5024 7.13798C11.1155 7.21765 10.7281 7.29363 10.3408 7.37042C10.3103 7.37658 10.2786 7.37617 10.264 7.3774H10.2635Z" fill="#410EAD"/>
<path d="M8.47168 5.18576C8.51509 5.09746 8.5322 5.04285 8.56518 4.99932C8.80268 4.68352 9.04143 4.36854 9.2831 4.05602C9.38704 3.92173 9.5302 3.8975 9.64875 3.98539C9.76729 4.07327 9.78357 4.2133 9.68005 4.35088C9.44297 4.66709 9.20296 4.98084 8.96171 5.29417C8.88616 5.39232 8.77889 5.45064 8.6641 5.38616C8.58479 5.34181 8.5322 5.25105 8.47168 5.18576Z" fill="#410EAD"/>
<path d="M10.5267 5.13379C10.5948 5.19867 10.6841 5.2537 10.7279 5.33296C10.7872 5.44015 10.7321 5.54281 10.6369 5.61386C10.3147 5.85451 9.99161 6.09392 9.66604 6.33006C9.52913 6.42903 9.38304 6.40767 9.29622 6.28776C9.21358 6.17318 9.23737 6.03684 9.36677 5.93869C9.5763 5.77976 9.78959 5.62577 10.0012 5.46971C10.1089 5.39004 10.2149 5.30791 10.3255 5.23235C10.3748 5.19867 10.4341 5.17855 10.5267 5.1342V5.13379Z" fill="#410EAD"/>
<path d="M1.73999 4.9176C1.58388 4.9176 1.42736 4.92048 1.27167 4.91678C1.11055 4.91267 1.00537 4.81576 1.00203 4.67695C0.998689 4.53199 1.10721 4.42891 1.27668 4.42727C1.59432 4.42398 1.91196 4.42398 2.22918 4.42727C2.3903 4.42891 2.4959 4.52788 2.49882 4.66669C2.50216 4.81083 2.39239 4.9135 2.22376 4.91719C2.06264 4.92048 1.90111 4.91801 1.73957 4.91801L1.73999 4.9176Z" fill="#410EAD"/>
<path d="M1.74704 5.90136C1.59093 5.90136 1.43483 5.90383 1.27872 5.90054C1.10842 5.89685 0.999896 5.79664 1.00198 5.65209C1.00407 5.50754 1.11218 5.41185 1.28498 5.41021C1.59719 5.40774 1.90983 5.40733 2.22204 5.41021C2.39192 5.41185 2.50086 5.5137 2.49878 5.65825C2.49669 5.8028 2.38858 5.89767 2.21536 5.90054C2.05926 5.90342 1.90315 5.90095 1.74662 5.90095L1.74704 5.90136Z" fill="#410EAD"/>
<path d="M1.99039 3.93297C1.90691 3.93297 1.82343 3.9379 1.74079 3.93174C1.60138 3.92106 1.50496 3.82168 1.50203 3.69355C1.4987 3.55926 1.59804 3.45044 1.74496 3.44469C1.91651 3.43771 2.08848 3.43771 2.26003 3.44469C2.39944 3.45044 2.49586 3.55393 2.4992 3.68205C2.50254 3.81552 2.40237 3.92188 2.25628 3.93174C2.1682 3.9379 2.0793 3.93297 1.99081 3.93256L1.99039 3.93297Z" fill="#410EAD"/>
<path d="M5.50011 2.20954C5.50011 1.97915 5.4976 1.74877 5.50094 1.51839C5.50428 1.27404 5.67667 1.16768 5.90123 1.27651C6.37664 1.50648 6.8529 1.73604 7.32122 1.97956C7.39927 2.02022 7.47065 2.12412 7.49027 2.21077C7.51656 2.32616 7.42181 2.40378 7.31663 2.45552C6.84205 2.68755 6.36955 2.92327 5.89371 3.15283C5.6775 3.25714 5.5047 3.1516 5.50094 2.91588C5.49718 2.68057 5.50011 2.44485 5.50011 2.20954ZM6.00432 2.5508C6.23807 2.43499 6.44802 2.33068 6.68719 2.21241C6.44426 2.09291 6.23056 1.98778 6.00432 1.87649V2.5508Z" fill="#410EAD"/>
</svg>
