<svg width="13" height="15" viewBox="0 0 13 15" fill="none" xmlns="http://www.w3.org/2000/svg">
<path d="M4.92906 14.9999C4.56555 14.9142 4.24792 14.7527 4.09263 14.4199C4.01499 14.2518 3.97264 14.0541 3.96205 13.8695C3.9444 13.4246 3.95499 12.9797 3.95499 12.5381C3.95499 12.4854 3.95499 12.4327 3.95499 12.3668C3.85617 12.3668 3.775 12.3668 3.6903 12.3668C2.8574 12.3602 2.26449 11.8329 2.26096 11.0552C2.25038 9.32177 2.25743 7.58835 2.26096 5.85494C2.26096 5.62425 2.36684 5.52539 2.61742 5.52539C5.20434 5.52539 7.79479 5.52539 10.3817 5.52539C10.6323 5.52539 10.7382 5.62096 10.7382 5.85494C10.7382 7.58835 10.7452 9.32177 10.7382 11.0552C10.7346 11.8362 10.1453 12.3602 9.31236 12.3668C9.23119 12.3668 9.14649 12.3668 9.04767 12.3668C9.04767 12.5217 9.04767 12.6634 9.04767 12.8018C9.04414 13.217 9.06532 13.6322 9.02649 14.0442C8.98414 14.5352 8.65592 14.8516 8.14772 14.9735C8.12301 14.9801 8.09831 14.99 8.07713 14.9999H7.76303C7.0113 14.7692 6.78896 14.4792 6.78896 13.7278C6.78896 13.3258 6.78896 12.927 6.78896 12.525C6.78896 12.4722 6.78896 12.4228 6.78896 12.3734H6.22429C6.22429 12.436 6.22429 12.4887 6.22429 12.5414C6.22429 12.9896 6.23487 13.4411 6.21723 13.8893C6.21017 14.0639 6.16782 14.2485 6.0937 14.41C5.93842 14.7494 5.61726 14.9142 5.24669 14.9999H4.93259H4.92906ZM2.82564 6.05926C2.82564 6.12517 2.82564 6.1713 2.82564 6.22073C2.82564 6.90949 2.82564 7.59824 2.82564 8.28699C2.82564 9.19983 2.82564 10.1127 2.82564 11.0255C2.82564 11.533 3.15386 11.8362 3.69383 11.8428C3.835 11.8428 3.97617 11.8428 4.11734 11.8428C4.43144 11.8428 4.51967 11.9252 4.51967 12.2185C4.51967 12.7787 4.51967 13.3422 4.51967 13.9025C4.51967 14.1628 4.65025 14.3572 4.87612 14.4396C5.25022 14.578 5.64549 14.3276 5.64902 13.9354C5.65608 13.3653 5.64902 12.7919 5.64902 12.2218C5.64902 11.9285 5.74078 11.8428 6.04782 11.8428C6.34781 11.8428 6.64426 11.8428 6.94425 11.8428C7.25482 11.8428 7.34658 11.9285 7.34658 12.2185C7.34658 12.7853 7.34658 13.3521 7.34658 13.9189C7.34658 14.176 7.48422 14.3671 7.71715 14.4429C8.09831 14.5681 8.4724 14.3144 8.47593 13.9189C8.47946 13.3323 8.47593 12.7458 8.47593 12.1625C8.47593 11.9483 8.58181 11.8494 8.81121 11.8461C8.96297 11.8428 9.11472 11.8461 9.26648 11.8461C9.85233 11.8461 10.17 11.5495 10.17 11.0025C10.17 9.41075 10.17 7.81903 10.17 6.22733V6.06585H2.82211L2.82564 6.05926Z" fill="#410EAD"/>
<path d="M8.44069 1.49188C9.0336 1.78518 9.51711 2.16746 9.90179 2.65189C10.4418 3.33075 10.7135 4.0986 10.7382 4.94224C10.7453 5.14655 10.6359 5.24872 10.4206 5.26519C10.3782 5.26519 10.3359 5.26519 10.2935 5.26519C7.76308 5.26519 5.23262 5.26519 2.70217 5.26519C2.33513 5.26519 2.2469 5.17951 2.26807 4.83678C2.37042 3.37359 3.10803 2.2795 4.46325 1.54461C4.49149 1.53143 4.51619 1.51495 4.55501 1.48859C4.3962 1.24143 4.23738 0.994269 4.0821 0.750404C4.00798 0.638358 3.93387 0.526313 3.86681 0.410971C3.78211 0.262676 3.82093 0.114379 3.95504 0.0385835C4.08915 -0.0372122 4.2515 -0.00096154 4.34679 0.144039C4.57266 0.483472 4.795 0.8262 5.00675 1.17222C5.06322 1.2645 5.11263 1.27768 5.21851 1.24472C6.07258 0.987678 6.92665 0.987678 7.78073 1.24472C7.89013 1.27768 7.93601 1.25131 7.98895 1.16563C8.19365 0.836086 8.40187 0.509835 8.62068 0.18688C8.67362 0.111084 8.76185 0.0286971 8.85008 0.0122198C8.92773 -0.00425751 9.04419 0.0451746 9.11125 0.101198C9.20653 0.180289 9.19948 0.298925 9.13595 0.397789C9.01243 0.602108 8.87832 0.799836 8.75126 1.00086C8.64892 1.15904 8.54657 1.31722 8.43716 1.48859L8.44069 1.49188ZM10.1453 4.72803C10.0783 3.17916 8.58892 1.5512 6.45374 1.58086C4.30797 1.60723 2.90686 3.27144 2.86451 4.72803H10.1488H10.1453Z" fill="#410EAD"/>
<path d="M1.97862 8.29377C1.97862 8.90014 1.98568 9.5032 1.97862 10.1096C1.97156 10.6929 1.49865 11.0916 0.888089 11.0422C0.393997 11.0059 0.0128402 10.6171 0.00931102 10.0964C-0.00127667 8.89025 -0.00480589 7.68411 0.00931102 6.48126C0.0198987 5.72001 0.824562 5.28501 1.49864 5.6574C1.79157 5.81888 1.96803 6.06933 1.97156 6.38899C1.98215 7.02172 1.97156 7.65774 1.97156 8.29047H1.97509L1.97862 8.29377ZM1.41394 8.30036C1.41394 7.6907 1.41394 7.08104 1.41394 6.47138C1.41394 6.20115 1.21278 6.03308 0.944556 6.05944C0.715156 6.07922 0.570458 6.24729 0.570458 6.50763C0.570458 7.69729 0.570458 8.89025 0.570458 10.0799C0.570458 10.1326 0.577517 10.1887 0.591633 10.2381C0.65163 10.4556 0.905735 10.5808 1.13513 10.5017C1.31865 10.4391 1.41394 10.304 1.41394 10.0865C1.41394 9.49002 1.41394 8.89684 1.41394 8.30036Z" fill="#410EAD"/>
<path d="M11.024 8.28067C11.024 7.67431 11.017 7.07124 11.024 6.46487C11.0311 5.87498 11.5111 5.47953 12.1322 5.53555C12.6192 5.57839 12.9898 5.96396 12.9933 6.48135C13.0039 7.68749 13.0004 8.89363 12.9933 10.0965C12.9898 10.9039 12.111 11.2664 11.497 10.917C11.2111 10.7556 11.0487 10.515 11.024 10.1986C11.024 10.1756 11.0205 10.1492 11.0205 10.1261C11.0205 9.50988 11.0205 8.89692 11.0205 8.28067H11.024ZM11.5887 8.28726C11.5887 8.4092 11.5887 8.53113 11.5887 8.65306C11.5887 9.14079 11.5887 9.62852 11.5887 10.1162C11.5887 10.3634 11.7722 10.5282 12.0228 10.5216C12.2769 10.515 12.4322 10.337 12.4357 10.047C12.4357 8.87715 12.4357 7.70397 12.4357 6.53408C12.4357 6.48135 12.4322 6.42533 12.4216 6.3726C12.3828 6.17487 12.2099 6.04964 11.9981 6.05623C11.7581 6.06282 11.5922 6.2276 11.5922 6.47146C11.5922 7.07783 11.5922 7.6809 11.5922 8.28726H11.5887Z" fill="#410EAD"/>
<path d="M4.72107 2.98438C4.76695 2.98438 4.81636 2.98438 4.86224 2.98438C4.894 2.98438 4.92929 2.98438 4.954 2.99756C5.19398 3.12608 5.05987 3.34029 5.07752 3.51495C5.08811 3.63358 4.9787 3.67642 4.86224 3.68301C4.84812 3.68301 4.83047 3.68301 4.81636 3.68301C4.34344 3.6896 4.32932 3.67642 4.33991 3.23813C4.34344 3.0404 4.40344 2.98767 4.61166 2.98438C4.64695 2.98438 4.68578 2.98438 4.72107 2.98438Z" fill="#410EAD"/>
<path d="M8.27827 2.98457C8.32415 2.98457 8.37356 2.98457 8.41944 2.98457C8.45121 2.98457 8.4865 2.98457 8.5112 2.99446C8.75825 3.1065 8.63473 3.32071 8.65237 3.48878C8.66296 3.60741 8.57473 3.67332 8.44415 3.67992C8.44062 3.67992 8.43356 3.67992 8.43003 3.67992C7.85477 3.6931 7.90065 3.66344 7.92182 3.14605C7.92182 3.09003 8.02417 3.02412 8.09123 2.99116C8.14063 2.9681 8.21475 2.98787 8.27827 2.98787V2.98457Z" fill="#410EAD"/>
</svg>
