<svg width="15" height="17" viewBox="0 0 15 17" fill="none" xmlns="http://www.w3.org/2000/svg">
<path d="M14.9972 0C13.3399 1.51592 11.6856 3.03442 10.0255 4.55034C7.69122 6.67985 5.35127 8.80421 3.01416 10.9311C2.95467 10.9853 2.89518 11.0343 2.85269 11.0704C1.90368 10.2015 0.96034 9.33787 0 8.45874C0.0623229 8.39687 0.164306 8.2989 0.269121 8.20351C3.17564 5.56096 6.08215 2.92099 8.98867 0.278435C9.08499 0.190779 9.17564 0.0953897 9.26912 0.00257816C11.1785 0.00257816 13.0907 0.00257816 15 0.00257816L14.9972 0Z" fill="#410EAD"/>
<path d="M9.26641 16.9996C7.83581 15.6874 6.40238 14.3751 4.96896 13.0629C4.74516 12.8566 4.51003 12.6633 4.26074 12.4467C4.35989 12.3436 4.43355 12.2585 4.51853 12.1837C6.01712 10.8225 7.51853 9.46642 9.00862 8.09745C9.20975 7.91183 9.41372 7.84222 9.697 7.8448C11.3032 7.85769 12.9066 7.84995 14.5129 7.84995C14.646 7.84995 14.7763 7.84995 14.969 7.84995C13.2749 9.38392 11.6318 10.8715 9.9208 12.4209C10.4307 12.8618 10.901 13.2459 11.3457 13.6507C12.5667 14.7618 13.7792 15.8833 14.9945 16.9996H9.26357H9.26641Z" fill="#410EAD"/>
</svg>
