<svg width="15" height="15" viewBox="0 0 15 15" fill="none" xmlns="http://www.w3.org/2000/svg">
<path d="M15 1.63945V13.358C14.9898 13.3851 14.978 13.4106 14.9729 13.4394C14.8152 14.3396 14.0489 14.9975 13.1351 14.9975C9.37638 15.0008 5.61769 15.0008 1.859 14.9975C0.834982 14.9975 0.00254309 14.1633 0.00254309 13.141C-0.000847697 9.37722 -0.000847697 5.61345 0.00254309 1.84968C0.00254309 1.02063 0.575586 0.286522 1.37412 0.0661203C1.46228 0.0423848 1.55213 0.0220401 1.64029 0C5.54648 0 9.45267 0 13.3589 0C13.386 0.00847697 13.4114 0.0220401 13.4402 0.0271263C14.0116 0.132241 14.4558 0.428935 14.7372 0.934162C14.8576 1.15117 14.9135 1.40379 15 1.63945ZM7.49958 14.2464C9.34586 14.2464 11.1904 14.2464 13.0367 14.2464C13.7827 14.2464 14.2472 13.7869 14.2472 13.0461C14.2472 9.34501 14.2472 5.64397 14.2472 1.94292C14.2472 1.21729 13.781 0.75106 13.0588 0.75106C9.35264 0.75106 5.64651 0.75106 1.94207 0.75106C1.21814 0.75106 0.753603 1.21899 0.753603 1.94462C0.753603 5.65075 0.753603 9.35688 0.755298 13.0613C0.755298 13.2003 0.770557 13.3461 0.812942 13.4784C0.967222 13.965 1.38938 14.2464 1.95055 14.2464C3.80023 14.2464 5.6516 14.2464 7.50127 14.2464H7.49958Z" fill="#410EAD"/>
<path d="M3.74928 7.49749C3.74928 6.75999 3.74928 6.0225 3.74928 5.2867C3.74928 4.19995 4.56816 3.3726 5.65491 3.37599C5.93634 3.37599 6.22626 3.38107 6.49582 3.44889C7.29774 3.65234 7.8657 4.37796 7.87248 5.20871C7.88435 6.73626 7.88605 8.26381 7.87248 9.79305C7.86231 10.7849 7.07056 11.5783 6.07876 11.6241C5.63965 11.6444 5.19885 11.6461 4.79365 11.4291C4.13075 11.0748 3.76963 10.5221 3.75437 9.76932C3.73911 9.01317 3.75098 8.25533 3.75098 7.49919L3.74928 7.49749ZM4.50204 7.48393C4.50204 7.48393 4.50373 7.48393 4.50543 7.48393C4.50543 8.26042 4.49526 9.03521 4.50882 9.8117C4.5173 10.3135 4.88011 10.7425 5.37178 10.8391C5.5837 10.8798 5.80749 10.8747 6.0262 10.8713C6.62976 10.8612 7.11464 10.3831 7.11803 9.7778C7.12481 8.26042 7.12312 6.74304 7.11803 5.22566C7.11634 4.6967 6.75013 4.25929 6.22965 4.15587C6.06011 4.12196 5.88039 4.12874 5.70577 4.12874C4.96488 4.12874 4.50204 4.58989 4.50034 5.33247C4.50034 6.04962 4.50034 6.76678 4.50034 7.48393H4.50204Z" fill="#410EAD"/>
<path d="M13.1216 5.24042H12.3841C12.3688 5.15056 12.3587 5.0641 12.3383 4.98102C12.2146 4.48258 11.789 4.13672 11.2804 4.12993C11.0617 4.12654 10.8379 4.11976 10.6243 4.16045C10.119 4.25878 9.76471 4.70128 9.75284 5.21499C9.74775 5.48795 9.74606 5.7626 9.75284 6.03556C9.7664 6.63064 10.2445 7.10196 10.8413 7.12231C11.1176 7.13248 11.4025 7.124 11.6703 7.17995C12.5028 7.35288 13.1148 8.10563 13.1199 8.95503C13.1233 9.35853 13.1402 9.77221 13.0639 10.1638C12.9012 10.9997 12.1789 11.5846 11.3279 11.6219C10.8871 11.6422 10.4479 11.6422 10.0411 11.4269C9.40359 11.0878 9.05603 10.5589 8.99839 9.84002C8.99669 9.81629 9.00008 9.79255 9.00178 9.76034H9.74097C9.74606 9.79933 9.75114 9.83494 9.75453 9.87223C9.81218 10.4182 10.2767 10.8556 10.8277 10.8674C11.0515 10.8725 11.2804 10.8793 11.4974 10.8369C11.9925 10.742 12.3451 10.3147 12.3654 9.8112C12.3773 9.51959 12.3773 9.22459 12.3654 8.93299C12.34 8.34808 11.867 7.89371 11.2804 7.87676C11.0702 7.87167 10.8599 7.88015 10.6514 7.85472C9.70537 7.74112 9.00517 6.96294 8.99839 6.01352C8.995 5.62358 8.98143 5.22685 9.05264 4.84709C9.21031 4.00787 9.93933 3.4077 10.7921 3.37718C11.0922 3.36701 11.4025 3.37209 11.6941 3.43313C12.4739 3.59758 13.0673 4.31643 13.1182 5.11157C13.1199 5.15056 13.1182 5.18786 13.1182 5.24042H13.1216Z" fill="#410EAD"/>
<path d="M1.88281 7.50586H2.61861V11.6172H1.88281V7.50586Z" fill="#410EAD"/>
<path d="M1.88281 6.73735V6.01172H2.61522V6.73735H1.88281Z" fill="#410EAD"/>
</svg>
