<svg width="16" height="15" viewBox="0 0 16 15" fill="none" xmlns="http://www.w3.org/2000/svg">
<path d="M8.32118 0C10.4693 0 12.6173 4.40587e-08 14.7673 0.00192312C14.8462 0.00192312 14.9231 0.0384616 15.0019 0.0576923C14.9269 0.113462 14.8443 0.159615 14.7789 0.225C9.92502 5.075 5.07502 9.925 0.226946 14.7769C0.161561 14.8423 0.115407 14.925 0.0596379 15C0.0404072 14.9212 0.00386871 14.8442 0.00386871 14.7654C2.25581e-05 12.7538 0.00194559 10.7423 0.00194559 8.73077C0.0384841 8.7 0.0769455 8.67115 0.111561 8.63654C2.80771 5.82115 5.50387 3.00385 8.1981 0.186539C8.2481 0.132692 8.28079 0.0634616 8.3231 0.00192312L8.32118 0Z" fill="#410EAD"/>
<path d="M0.821289 15.0005C3.14052 12.6389 5.45975 10.2755 7.77898 7.91394C7.8059 7.88702 7.8386 7.86587 7.94052 7.78125C8.0059 7.87933 8.05783 7.98894 8.1386 8.07164C10.3424 10.3005 12.5501 12.5255 14.7578 14.7505C14.829 14.8236 14.9194 14.8774 15.0021 14.9409C14.9136 14.9601 14.8271 14.9966 14.7386 14.9966C10.1001 14.9986 5.46167 14.9986 0.821289 14.9986V15.0005Z" fill="#410EAD"/>
<path d="M0 7.79231C0 5.19423 0 2.59615 0 0C2.5 0 5 0 7.5 0C5.79231 1.77885 4.08654 3.55769 2.37692 5.33654C1.58654 6.15769 0.792308 6.975 0 7.79423V7.79231Z" fill="#410EAD"/>
</svg>
