<svg width="17" height="15" viewBox="0 0 17 15" fill="none" xmlns="http://www.w3.org/2000/svg">
<path d="M17 7.81613C16.7618 8.77181 16.0473 9.24511 15.272 9.64103C14.6508 9.9596 13.9876 10.1598 13.3151 10.3373C13.2544 10.351 13.1984 10.3692 13.1236 10.3919C13.1703 10.5421 13.217 10.6877 13.2637 10.8334C13.4646 11.4386 13.6093 12.0621 13.6607 12.6992C13.6934 13.0997 13.6747 13.4956 13.5533 13.8779C13.3338 14.5879 12.7547 14.9929 12.0401 14.9246C11.4003 14.8655 10.8398 14.5924 10.2981 14.2602C9.59753 13.8324 8.97638 13.2954 8.38325 12.722C8.33654 12.6765 8.28517 12.631 8.22912 12.5809C7.92088 12.854 7.62665 13.127 7.31841 13.3864C6.63187 13.9644 5.9033 14.4695 5.06731 14.7927C4.64231 14.9565 4.2033 15.0521 3.75028 14.9701C3.10577 14.8518 2.65742 14.3512 2.52665 13.6367C2.41924 13.0406 2.47061 12.4489 2.61072 11.871C2.73215 11.3704 2.89561 10.8789 3.04039 10.3828C3.05907 10.3191 3.08242 10.2554 3.1011 10.1917C2.7088 10.0415 2.32583 9.90954 1.95687 9.74115C1.38709 9.4863 0.840666 9.17684 0.425007 8.67624C-0.144773 7.98906 -0.140103 7.16535 0.429677 6.48271C0.854677 5.97756 1.40111 5.6681 1.98023 5.41325C2.37253 5.24032 2.77418 5.10379 3.15715 4.95816C2.99369 4.42116 2.82088 3.8887 2.6761 3.34715C2.50797 2.71002 2.41924 2.05924 2.51731 1.39936C2.6761 0.348105 3.40468 -0.166145 4.4088 0.047747C4.97391 0.170621 5.48297 0.434572 5.96869 0.748584C6.7066 1.22643 7.36511 1.80439 7.98627 2.42787C8.03764 2.47793 8.08902 2.52798 8.15907 2.59625C8.20577 2.55529 8.24781 2.51888 8.29451 2.47792C8.925 1.87721 9.58819 1.322 10.3261 0.871458C10.8632 0.548344 11.419 0.27074 12.0495 0.188824C13.0209 0.0568477 13.7448 0.634811 13.8849 1.65876C13.983 2.39601 13.8569 3.10595 13.6654 3.80679C13.572 4.1481 13.4599 4.48487 13.3571 4.82619C13.7214 4.94451 14.0857 5.05828 14.4453 5.18571C14.9777 5.37229 15.4868 5.60439 15.9538 5.93205C16.4582 6.28247 16.8552 6.72391 17 7.36559V7.81613ZM8.22912 10.1325C8.22912 10.1325 8.22912 10.1507 8.22912 10.1598C8.58407 10.1598 8.93901 10.1598 9.28929 10.1598C9.40138 10.1598 9.4761 10.1234 9.53682 10.0279C10.0319 9.31337 10.5316 8.60343 11.0313 7.89349C11.0967 7.79792 11.1014 7.72966 11.0313 7.63409C10.4709 6.79672 9.91511 5.95936 9.36401 5.12199C9.30797 5.03553 9.23792 5.00822 9.14451 5.01277C8.44863 5.02643 7.75275 5.03553 7.05687 5.05373C6.98215 5.05373 6.88407 5.10834 6.84204 5.1675C6.31896 5.90475 5.8099 6.64654 5.29149 7.38834C5.23545 7.46571 5.23545 7.52487 5.29149 7.60223C5.84726 8.41229 6.39836 9.22235 6.9588 10.0324C6.99149 10.0825 7.07555 10.1234 7.13627 10.1234C7.50055 10.1325 7.86484 10.1234 8.22912 10.1234V10.1325ZM7.65467 3.1105C6.87006 2.31409 6.06209 1.57685 5.08132 1.07625C4.76374 0.912416 4.4088 0.807746 4.06319 0.744033C3.64753 0.666668 3.33929 0.894213 3.26457 1.3311C3.20852 1.65421 3.1805 1.99553 3.20852 2.32319C3.27858 3.14236 3.54012 3.91601 3.82968 4.67601C3.86237 4.76247 3.9044 4.78523 3.98847 4.76702C4.81044 4.63505 5.63709 4.50307 6.45907 4.3711C6.51511 4.362 6.5805 4.33924 6.61786 4.29828C6.96347 3.9069 7.29973 3.51553 7.65467 3.1105ZM3.78764 10.3965C3.49808 11.1656 3.23654 11.962 3.19918 12.8085C3.18517 13.1134 3.2272 13.4319 3.29726 13.7277C3.37198 14.0463 3.6055 14.2238 3.92308 14.2602C4.25001 14.2966 4.55825 14.2147 4.86182 14.0964C5.53435 13.8324 6.13215 13.4274 6.69726 12.9677C7.04753 12.681 7.38379 12.3761 7.7294 12.0758C7.37445 11.6571 7.04286 11.2612 6.70193 10.8698C6.6739 10.8379 6.61319 10.8243 6.57116 10.8197C6.33297 10.7924 6.09478 10.7788 5.86127 10.7424C5.1794 10.6331 4.49753 10.5194 3.78764 10.401V10.3965ZM8.64945 3.11505C8.9577 3.48822 9.2566 3.83864 9.54149 4.19361C9.61154 4.28463 9.69094 4.31194 9.79368 4.32104C10.4288 4.3802 11.0593 4.44391 11.6898 4.51673C12.0074 4.55313 12.3203 4.61685 12.6613 4.67601C12.7874 4.25732 12.9275 3.8523 13.0302 3.43361C13.1657 2.88751 13.2591 2.32774 13.1843 1.75888C13.1096 1.19912 12.7827 0.862357 12.3017 0.907866C12.0354 0.935171 11.7646 0.998883 11.5124 1.0899C10.8305 1.34475 10.2327 1.76798 9.66759 2.22762C9.32198 2.50978 8.99039 2.81469 8.64945 3.11505ZM12.8527 9.70475C12.9368 9.68654 13.0115 9.66834 13.0863 9.65014C13.8615 9.4499 14.6135 9.1996 15.314 8.79002C15.6269 8.60798 15.9165 8.39864 16.1266 8.09373C16.3602 7.75241 16.3648 7.4293 16.122 7.09253C16.0192 6.9469 15.8885 6.81493 15.7484 6.70116C15.1412 6.20966 14.4313 5.94116 13.7027 5.70906C13.4926 5.6408 13.2824 5.59074 13.0769 5.53158C12.8948 5.9184 12.7267 6.28702 12.5445 6.64655C12.3624 7.00607 12.1569 7.35648 11.9701 7.71601C11.9467 7.76151 11.9654 7.84798 11.9887 7.89804C12.2316 8.40774 12.4791 8.91744 12.7267 9.42259C12.7687 9.51361 12.8107 9.60918 12.8574 9.70475H12.8527ZM8.74286 12.0667C8.74286 12.0667 8.76621 12.0985 8.78022 12.1167C9.33599 12.6583 9.91511 13.1634 10.5643 13.5776C11.022 13.8688 11.4937 14.1419 12.0401 14.201C12.5071 14.2556 12.806 14.0418 12.9135 13.5594C13.0162 13.1134 12.9648 12.6674 12.8901 12.2214C12.792 11.648 12.6239 11.0973 12.4277 10.5603C12.4044 10.5558 12.3951 10.5512 12.381 10.5512C11.5357 10.6559 10.6904 10.756 9.84506 10.8607C9.8077 10.8652 9.76099 10.888 9.73297 10.9198C9.40138 11.2976 9.07445 11.6798 8.73819 12.0667H8.74286ZM3.36731 9.49996C3.69891 8.86283 4.02583 8.23936 4.34808 7.62044C4.35742 7.60678 4.37143 7.58858 4.37143 7.57493C4.37143 7.51577 4.38078 7.45205 4.35742 7.40199C4.08654 6.85589 3.80632 6.31433 3.53544 5.76822C3.49341 5.68176 3.45138 5.64535 3.35797 5.68175C2.86292 5.88654 2.35385 6.06403 1.86814 6.29613C1.47116 6.48726 1.1022 6.73756 0.850007 7.12894C0.644512 7.4475 0.649183 7.76607 0.868688 8.07553C0.962095 8.20295 1.06951 8.32583 1.18627 8.42595C1.82611 8.9766 2.59204 9.24966 3.36731 9.49996ZM11.5357 7.06523C11.8206 6.49637 12.0962 5.94116 12.3904 5.34954C11.6525 5.24942 10.9519 5.15385 10.228 5.05828C10.6764 5.74547 11.0967 6.38714 11.5404 7.06523H11.5357ZM6.05275 10.0506C5.62775 9.41804 5.2261 8.82187 4.80577 8.1984C4.55358 8.699 4.31539 9.18594 4.05385 9.70475C4.73572 9.82307 5.37555 9.93684 6.04808 10.0506H6.05275ZM4.81979 6.79672C5.19808 6.23696 5.56237 5.70451 5.94533 5.14475C5.33352 5.25397 4.7544 5.35409 4.15193 5.45876C4.38544 5.92295 4.60028 6.35074 4.81979 6.79672ZM12.1709 9.86403C11.9467 9.39074 11.7319 8.94475 11.5124 8.48056C11.1387 9.02211 10.7838 9.54546 10.4008 10.1007C11.0033 10.0188 11.5731 9.94594 12.1709 9.86403ZM7.65 10.9016C7.8555 11.1337 8.03764 11.334 8.2338 11.5524C8.42995 11.3385 8.61676 11.1337 8.82693 10.9016H7.65ZM8.71017 4.28463C8.50467 4.04798 8.33654 3.8523 8.14973 3.6384C7.95358 3.8523 7.76676 4.05709 7.56127 4.28463H8.7055H8.71017Z" fill="#410EAD"/>
<path d="M8.50478 6.18652C9.24737 6.18652 9.85918 6.82365 9.85918 7.59275C9.85918 8.3664 9.2427 8.99898 8.50478 8.99898C7.7622 8.99898 7.15039 8.3573 7.15039 7.59275C7.15039 6.8191 7.7622 6.18652 8.50478 6.19108V6.18652Z" fill="#410EAD"/>
</svg>
