<svg width="17" height="15" viewBox="0 0 17 15" fill="none" xmlns="http://www.w3.org/2000/svg">
<path d="M0.0282954 9.77664C0.124065 9.83603 0.22201 9.89761 0.317779 9.957C1.43218 10.641 2.60753 11.1799 3.883 11.4812C5.56332 11.8771 7.22404 11.8397 8.84994 11.2019C9.10024 11.1029 9.33967 10.9754 9.59433 10.8566C9.57256 10.8214 9.56821 10.8038 9.55732 10.7972C8.67146 10.2385 7.91401 9.5215 7.18268 8.78028C5.28689 6.86015 3.55869 4.79264 1.88273 2.68115C1.80002 2.57778 1.71949 2.4744 1.64766 2.36003C3.77417 4.09761 5.90068 5.83519 8.25356 7.25605C7.41122 6.38726 6.66684 5.43929 5.94204 4.47812C5.21507 3.51255 4.50115 2.53379 3.80029 1.54843C4.44674 2.11809 5.08447 2.70095 5.7418 3.25741C6.40347 3.81828 7.07821 4.36595 7.75948 4.90482C8.44074 5.44369 9.13289 5.96716 9.82722 6.48844C10.5215 7.00751 11.2246 7.51559 11.9581 8.05446C12.0473 7.74433 12.1409 7.4672 12.2084 7.18127C12.6023 5.50307 12.3738 3.87986 11.7622 2.29405C11.4488 1.48244 11.0352 0.725825 10.5498 0C10.7153 0.116572 10.8829 0.228745 11.0461 0.347516C12.3107 1.27349 13.4534 2.32704 14.3501 3.63132C15.3448 5.08077 15.9238 6.66879 15.8999 8.45256C15.8911 9.1212 15.7997 9.78104 15.569 10.4123C15.5342 10.5047 15.5494 10.5641 15.6082 10.6366C16.1632 11.3317 16.6138 12.0839 16.8554 12.9505C17.0426 13.6235 17.073 14.2944 16.7966 14.9806C16.7531 14.9256 16.7204 14.886 16.6899 14.8442C16.4396 14.5033 16.1415 14.2108 15.7932 13.9776C15.027 13.4652 14.2261 13.4124 13.3924 13.7995C12.8548 14.0502 12.3281 14.3273 11.7796 14.5539C10.8284 14.9476 9.82722 15.0378 8.80858 14.9872C7.28934 14.9102 5.84192 14.5473 4.48374 13.8479C2.84696 13.0055 1.47789 11.8331 0.3809 10.3441C0.250306 10.1659 0.126241 9.98339 0 9.80524C0.00870628 9.79644 0.0174126 9.78544 0.0261189 9.77664H0.0282954Z" fill="#410EAD"/>
</svg>
