<svg width="8" height="4" viewBox="0 0 8 4" fill="none" xmlns="http://www.w3.org/2000/svg">
<path fill-rule="evenodd" clip-rule="evenodd" d="M0.38631 0.0291908C0.239835 0.065407 0.0609236 0.253185 0.0194704 0.414211C-0.0140123 0.544281 -0.00715258 0.604994 0.0623934 0.794036C0.0879709 0.863633 0.621309 1.33004 1.88219 2.3855C2.86315 3.20669 3.7058 3.906 3.75473 3.93952C3.85829 4.01048 4.12324 4.02145 4.23411 3.95937C4.38052 3.87744 7.89133 0.919016 7.92857 0.846242C8.15501 0.403687 7.8096 -0.0923726 7.36195 0.0324366C7.27408 0.0569338 6.76693 0.460915 5.62238 1.41808L4.00682 2.76912L2.40484 1.42884C0.983216 0.239484 0.658385 -0.00777703 0.528113 0.000183703C0.510147 0.00127702 0.446317 0.0143285 0.38631 0.0291908Z" fill="#222222"/>
</svg>
