<svg width="111" height="21" viewBox="0 0 111 21" fill="none" xmlns="http://www.w3.org/2000/svg">
<g opacity="0.7">
<path d="M10.0248 10.6413C9.38852 11.7204 8.27017 12.3921 7.01684 12.3921C6.03344 12.3921 5.20431 12.0258 4.52943 11.2928C3.85455 10.5599 3.50747 9.66413 3.50747 8.62584C3.50747 7.58764 3.85455 6.69183 4.52943 5.95892C5.20431 5.20568 6.03344 4.83922 7.01684 4.83922C8.25092 4.83922 9.38852 5.53139 10.0056 6.61042C10.0056 6.61042 10.8926 5.95892 12.6858 4.63567C11.4518 2.66091 9.35001 1.41907 7.01684 1.41907C5.14646 1.41907 3.54604 2.13156 2.21557 3.5363C0.90437 4.94096 0.248779 6.63075 0.248779 8.62584C0.248779 10.6007 0.90437 12.3108 2.23484 13.7155C3.56532 15.1203 5.14646 15.8124 7.01684 15.8124C9.33068 15.8124 11.4324 14.5705 12.6666 12.5958L10.0248 10.6413Z" fill="#2D2D2D"/>
<path d="M14.7166 14.034C15.3529 15.113 16.4713 15.7849 17.7246 15.7849C18.708 15.7849 19.5371 15.4184 20.212 14.6855C20.8869 13.9526 21.234 13.0569 21.234 12.0185C21.234 10.9803 20.8869 10.0844 20.212 9.35158C19.5371 8.59826 18.708 8.23189 17.7246 8.23189C16.4906 8.23189 15.3529 8.92405 14.7359 10.0031C14.7359 10.0031 13.8488 9.35158 12.0557 8.02833C13.2897 6.05349 15.3915 4.81165 17.7246 4.81165C19.595 4.81165 21.1954 5.52423 22.5258 6.92897C23.8371 8.33363 24.4927 10.0234 24.4927 12.0185C24.4927 13.9933 23.8371 15.7034 22.5066 17.1081C21.1761 18.5129 19.595 19.205 17.7246 19.205C15.4108 19.205 13.309 17.9632 12.0749 15.9884L14.7166 14.034Z" fill="#2D2D2D"/>
<path d="M35.6577 5.91785C34.3273 5.91785 33.1703 6.38612 32.2254 7.30217C31.2806 8.2184 30.7986 9.39908 30.7986 10.8446C30.7986 12.2901 31.2806 13.4912 32.2254 14.4276C33.1703 15.3641 34.3273 15.8324 35.6577 15.8324C37.181 15.8324 38.5693 15.1605 39.4178 13.9594L37.528 12.4936C37.0846 13.1247 36.4675 13.4504 35.6577 13.4504C34.9828 13.4504 34.3851 13.2061 33.8837 12.7175C33.3824 12.2086 33.1317 11.5978 33.1317 10.8446C33.1317 10.0913 33.3824 9.5009 33.8837 9.03262C34.3851 8.56443 34.9828 8.32013 35.6577 8.32013C36.4675 8.32013 37.0846 8.62551 37.528 9.2566L39.3984 7.77045C38.55 6.61001 37.181 5.91785 35.6577 5.91785Z" fill="#2D2D2D"/>
<path d="M42.6864 10.5595C42.6864 9.03256 43.689 8.3404 44.846 8.3404C45.868 8.3404 46.7549 9.15472 46.7549 10.4577V15.6287H49.1074V10.3356C49.1074 7.54642 47.7961 5.91779 45.4823 5.91779C44.9617 5.91779 44.4025 6.06027 43.8241 6.36565C43.2649 6.6507 42.8793 7.05781 42.6864 7.58716V0.950317H40.334V15.6287H42.6864V10.5595Z" fill="#2D2D2D"/>
<path d="M59.7685 15.6288V6.1214H57.416V7.30217C56.8183 6.34538 55.6229 5.91785 54.6201 5.91785C53.3667 5.91785 52.287 6.38612 51.3807 7.30217C50.4744 8.2184 50.031 9.39908 50.031 10.8649C50.031 12.3307 50.4938 13.5319 51.4 14.448C52.3062 15.3641 53.3861 15.812 54.6201 15.812C55.6229 15.812 56.8762 15.303 57.416 14.4073V15.6288H59.7685ZM57.416 10.8649C57.5125 13.2265 54.6201 14.2241 53.1933 12.7175C52.7112 12.2289 52.4606 11.6181 52.4606 10.8649C52.4606 10.1117 52.7112 9.5009 53.1933 9.03262C53.6946 8.54402 54.273 8.29972 54.9479 8.29972C55.6035 8.29972 56.182 8.52369 56.664 8.99197C57.1654 9.46024 57.416 10.071 57.416 10.8649Z" fill="#2D2D2D"/>
<path d="M61.374 6.12134V15.6287H63.7065V6.12134H61.374ZM62.5499 3.94294C63.3787 3.94294 64.0342 3.2712 64.0342 2.43647C64.0342 1.60173 63.3787 0.950317 62.5499 0.950317C61.721 0.950317 61.027 1.60173 61.027 2.43647C61.027 3.2712 61.7016 3.94294 62.5499 3.94294Z" fill="#2D2D2D"/>
<path d="M67.6559 10.5596C67.6559 9.0123 68.4657 8.34055 69.6227 8.34055C70.6833 8.34055 71.3388 9.09379 71.3388 10.4578V15.6288H73.6913V10.0098C73.6913 7.34292 72.4764 5.91785 70.3362 5.91785C69.2563 5.91785 68.138 6.54893 67.6559 7.52615V6.1214H65.3035V15.6288H67.6559V10.5596Z" fill="#2D2D2D"/>
<path d="M75.1836 6.1214V20.2502H77.5363V14.3665C77.9986 15.2827 79.1365 15.8324 80.3513 15.8324C81.5664 15.8324 82.6073 15.3845 83.4557 14.4684C84.323 13.5522 84.7476 12.351 84.7476 10.8649C84.7476 9.41941 84.323 8.2184 83.4557 7.30217C82.5884 6.38612 81.5664 5.91785 80.3513 5.91785C79.1365 5.91785 77.9986 6.48786 77.5363 7.404V6.1214H75.1836ZM77.5743 10.9056C77.5743 9.35842 78.6353 8.29972 79.9652 8.29972C80.621 8.29972 81.18 8.54402 81.6429 9.03262C82.1062 9.52123 82.3366 10.1523 82.3366 10.9056C82.3366 12.4325 81.2958 13.4708 79.9652 13.4708C78.6544 13.4708 77.5743 12.4732 77.5743 10.9056Z" fill="#2D2D2D"/>
<path d="M94.9765 15.6288V6.1214H92.624V7.30217C92.0257 6.34538 90.8309 5.91785 89.8279 5.91785C88.5747 5.91785 87.4951 6.38612 86.5883 7.30217C85.6823 8.2184 85.2388 9.39908 85.2388 10.8649C85.2388 12.3307 85.7012 13.5319 86.6072 14.448C87.514 15.3641 88.5936 15.812 89.8279 15.812C90.8309 15.812 92.0842 15.303 92.624 14.4073V15.6288H94.9765ZM92.624 10.8649C92.7202 13.2265 89.8279 14.2241 88.401 12.7175C87.9188 12.2289 87.6687 11.6181 87.6687 10.8649C87.6687 10.1117 87.9188 9.5009 88.401 9.03262C88.9022 8.54402 89.4806 8.29972 90.1554 8.29972C90.8112 8.29972 91.3897 8.52369 91.8719 8.99197C92.373 9.46024 92.624 10.071 92.624 10.8649Z" fill="#2D2D2D"/>
<path d="M99.9946 11.9846C100.689 12.1476 100.998 12.4122 100.979 12.8804C100.979 13.4301 100.477 13.8169 99.8012 13.8372C98.9529 13.8576 98.2016 13.3079 98.1432 12.6361H95.9453C95.9642 13.6133 96.3304 14.387 97.0447 14.9773C97.777 15.5473 98.6254 15.8324 99.57 15.8324C100.573 15.8324 101.44 15.5677 102.155 15.0587C102.887 14.5498 103.253 13.8169 103.253 12.9008C103.253 12.1476 102.964 10.6206 100.901 10.0506L99.3972 9.66371C98.7603 9.48057 98.4517 9.21594 98.4517 8.86981C98.4517 8.23873 98.8377 7.93326 99.5898 7.93326C100.207 7.93326 100.785 8.25906 100.804 8.91047H103.041C103.003 7.8926 102.637 7.13936 101.961 6.65076C101.287 6.16215 100.477 5.91785 99.5322 5.91785C98.6254 5.91785 97.8544 6.20281 97.1985 6.77291C96.5435 7.3225 96.2152 7.99442 96.2152 8.74766C96.2152 9.88769 96.4464 10.9667 98.7603 11.659L99.9946 11.9846Z" fill="#2D2D2D"/>
<path d="M107.69 11.9846C108.384 12.1476 108.693 12.4122 108.673 12.8804C108.673 13.4301 108.172 13.8169 107.497 13.8372C106.649 13.8576 105.897 13.3079 105.839 12.6361H103.641C103.66 13.6133 104.026 14.387 104.74 14.9773C105.473 15.5473 106.321 15.8324 107.266 15.8324C108.269 15.8324 109.136 15.5677 109.85 15.0587C110.583 14.5498 110.949 13.8169 110.949 12.9008C110.949 12.1476 110.66 10.6206 108.597 10.0506L107.092 9.66371C106.456 9.48057 106.148 9.21594 106.148 8.86981C106.148 8.23873 106.533 7.93326 107.286 7.93326C107.902 7.93326 108.481 8.25906 108.5 8.91047H110.737C110.698 7.8926 110.332 7.13936 109.656 6.65076C108.982 6.16215 108.172 5.91785 107.227 5.91785C106.321 5.91785 105.55 6.20281 104.894 6.77291C104.239 7.3225 103.91 7.99442 103.91 8.74766C103.91 9.88769 104.142 10.9667 106.456 11.659L107.69 11.9846Z" fill="#2D2D2D"/>
</g>
</svg>
