<svg width="94" height="31" viewBox="0 0 94 31" fill="none" xmlns="http://www.w3.org/2000/svg">
<g opacity="0.7">
<path d="M32.6676 15.6259C32.6428 14.907 32.756 14.1902 33.0002 13.5186C33.2445 12.847 33.6147 12.2344 34.0888 11.7177C34.5629 11.2011 35.1309 10.7908 35.7589 10.5118C36.387 10.2327 37.0619 10.0905 37.7432 10.0938C40.3103 10.0938 41.8298 11.6842 42.2882 13.5514L40.6772 14.1253C40.5354 13.4293 40.1606 12.8104 39.6218 12.3824C39.0828 11.9543 38.4159 11.7457 37.7432 11.7949C36.0797 11.7949 34.4162 13.0742 34.4162 15.6605C34.4162 18.2468 36.0404 19.4777 37.7628 19.4777C38.4392 19.4983 39.1027 19.2785 39.6466 18.8534C40.1906 18.4283 40.5834 17.8225 40.7623 17.1334L42.3275 17.6729C42.0596 18.725 41.4587 19.6486 40.6246 20.2902C39.7907 20.9318 38.7737 21.2527 37.7432 21.1994C37.0557 21.2131 36.373 21.0766 35.7379 20.7985C35.1027 20.5203 34.5289 20.1067 34.0524 19.5833C33.5758 19.06 33.2068 18.4383 32.9685 17.7573C32.7302 17.0763 32.6277 16.3507 32.6676 15.6259Z" fill="#2D2D2D"/>
<path d="M45.4315 20.943H43.7812V10.0654H45.4315V14.332C45.672 14.0319 45.9736 13.7933 46.3139 13.634C46.6542 13.4746 47.0243 13.3989 47.3963 13.4123C49.1057 13.4123 49.9308 14.7055 49.9308 16.3167V20.943H48.3263V16.6141C48.3564 16.4035 48.3412 16.1885 48.2817 15.9849C48.2223 15.7814 48.1202 15.5947 47.983 15.4385C47.8458 15.2825 47.6771 15.161 47.4894 15.0831C47.3016 15.0053 47.0997 14.9731 46.8985 14.989C46.699 14.9892 46.5017 15.0332 46.3189 15.118C46.1363 15.2031 45.9723 15.3272 45.8375 15.4826C45.7026 15.6379 45.5998 15.8211 45.5356 16.0208C45.4714 16.2204 45.4471 16.4317 45.4643 16.6417L45.4315 20.943Z" fill="#2D2D2D"/>
<path d="M53.6184 16.7523L55.3932 16.4619C55.7928 16.4065 55.904 16.1922 55.904 15.9363C55.904 15.3209 55.5111 14.823 54.5942 14.823C54.4175 14.8069 54.2394 14.829 54.0709 14.8878C53.9024 14.9466 53.747 15.041 53.6141 15.1651C53.4811 15.2893 53.3736 15.4407 53.2977 15.6101C53.222 15.7795 53.1795 15.9634 53.1731 16.1507L51.6668 15.7911C51.7912 14.5256 52.8784 13.3984 54.5811 13.3984C56.7161 13.3984 57.5282 14.6777 57.5282 16.1645V19.795C57.5245 20.1887 57.5529 20.582 57.6134 20.9705H56.0743C56.0215 20.6626 55.9996 20.3497 56.0089 20.037C55.779 20.409 55.4611 20.7113 55.0866 20.9139C54.7121 21.1164 54.2941 21.2122 53.8738 21.1918C53.5808 21.2173 53.2859 21.1796 53.0071 21.0814C52.7282 20.9831 52.4711 20.8261 52.2513 20.6199C52.0316 20.4136 51.8537 20.1626 51.7284 19.8818C51.6032 19.6009 51.5332 19.2961 51.5227 18.986C51.5227 17.6512 52.433 16.9321 53.6184 16.7523ZM55.904 17.9279V17.596L54.0965 17.8795C53.8508 17.8883 53.6179 17.9968 53.446 18.1821C53.274 18.3676 53.1763 18.6158 53.1731 18.8753C53.1751 19.0092 53.2035 19.1413 53.2565 19.263C53.3093 19.3848 53.3856 19.4936 53.4804 19.5826C53.5752 19.6717 53.6865 19.739 53.8072 19.7804C53.9279 19.8216 54.0553 19.8361 54.1817 19.8226C54.4201 19.8483 54.661 19.8163 54.8861 19.7289C55.1111 19.6417 55.3144 19.5013 55.4804 19.3187C55.6464 19.1361 55.7708 18.9159 55.8442 18.6749C55.9177 18.4339 55.9381 18.1785 55.904 17.9279Z" fill="#2D2D2D"/>
<path d="M60.331 9.91318C60.4739 9.91127 60.6158 9.9395 60.7484 9.99606C60.881 10.0525 61.0017 10.1363 61.1033 10.2424C61.2051 10.3486 61.2858 10.4749 61.3409 10.6143C61.396 10.7536 61.4244 10.9032 61.4244 11.0542C61.4244 11.3549 61.3113 11.6434 61.1098 11.856C60.9085 12.0688 60.6354 12.1883 60.3506 12.1883C60.0658 12.1883 59.7927 12.0688 59.5913 11.856C59.3899 11.6434 59.2769 11.3549 59.2769 11.0542C59.2768 10.7563 59.387 10.4702 59.5839 10.257C59.7809 10.0438 60.0489 9.92039 60.331 9.91318ZM59.5256 20.9774V13.6266H61.156V20.9429L59.5256 20.9774Z" fill="#2D2D2D"/>
<path d="M64.9418 20.9431H63.2914V13.6269H64.9024V14.6019C65.1115 14.2275 65.4123 13.9196 65.7729 13.7103C66.1336 13.501 66.5411 13.3981 66.9524 13.4125C68.642 13.4125 69.4541 14.7056 69.4541 16.3168V20.9431H67.8037V16.6141C67.8037 15.7153 67.4174 14.9891 66.3826 14.9891C66.1766 14.9904 65.9732 15.0378 65.7858 15.128C65.5984 15.2181 65.4311 15.3492 65.2951 15.5124C65.159 15.6756 65.0572 15.8675 64.9963 16.0753C64.9354 16.283 64.9169 16.502 64.9418 16.7179V20.9431Z" fill="#2D2D2D"/>
<path d="M71.4648 20.943V10.0654H73.1147V20.943H71.4648Z" fill="#2D2D2D"/>
<path d="M76.0618 9.91309C76.3483 9.91309 76.6232 10.0332 76.8257 10.2473C77.0286 10.4612 77.1421 10.7515 77.1421 11.0541C77.1406 11.2778 77.0766 11.4961 76.9584 11.6815C76.8399 11.867 76.6723 12.0112 76.4763 12.0963C76.2803 12.1812 76.065 12.203 75.8573 12.1591C75.6496 12.1151 75.4589 12.0073 75.3091 11.849C75.1593 11.6908 75.0572 11.4894 75.0156 11.27C74.974 11.0507 74.9947 10.8233 75.0751 10.6164C75.1556 10.4094 75.2922 10.2323 75.4678 10.1071C75.6434 9.98198 75.85 9.91448 76.0618 9.91309ZM75.2499 20.9773V13.6265H76.8867V20.9428L75.2499 20.9773Z" fill="#2D2D2D"/>
<path d="M80.6731 20.9436H79.0227V13.6275H80.6273V14.6024C80.837 14.2291 81.1381 13.922 81.4986 13.7129C81.8592 13.5037 82.2663 13.4002 82.6774 13.413C84.3734 13.413 85.1851 14.7062 85.1851 16.3174V20.9436H83.5348V16.6147C83.565 16.4042 83.5495 16.1891 83.4908 15.9856C83.4312 15.7821 83.3292 15.5954 83.1914 15.4393C83.0543 15.2831 82.8863 15.1617 82.6978 15.0837C82.5102 15.006 82.3079 14.9738 82.1072 14.9897C81.9016 14.991 81.6985 15.0382 81.5117 15.1285C81.3241 15.2188 81.1571 15.3499 81.0214 15.5133C80.8858 15.6766 80.7851 15.8686 80.7249 16.0763C80.6647 16.2842 80.6471 16.503 80.6731 16.7185V20.9436Z" fill="#2D2D2D"/>
<path d="M90.8301 16.7178L93.7383 20.943H91.7144L89.6774 17.928L88.8265 18.8754V20.9499H87.1885V10.0654H88.8265V16.5864L91.4859 13.6268H93.6796L90.8301 16.7178Z" fill="#2D2D2D"/>
<path d="M13.112 7.12693L20.2506 11.4557V20.1481L13.1317 24.5047L5.99312 20.1827V11.4903L13.112 7.12693ZM13.112 0.737305L10.4923 2.34162L3.36038 6.70504L0.740723 8.30943V11.5041V20.1896V23.3844L3.36038 24.9749L10.4989 29.3037L13.1185 30.8942L15.7383 29.2899L22.8572 24.9265L25.4768 23.329V20.1343V11.4419V8.24714L22.8572 6.65665L15.7186 2.32779L13.099 0.737305H13.112Z" fill="#2D2D2D"/>
</g>
</svg>
