<svg width="590" height="590" viewBox="0 0 590 590" fill="none" xmlns="http://www.w3.org/2000/svg">
<g id="Group 104526 1" clip-path="url(#clip0_18_392)">
<path id="Vector" d="M590 471.678H0V472.297H590V471.678Z" fill="#EDE2FF" fill-opacity="0.45"/>
<path id="Vector_2" d="M590 412.683H0V413.301H590V412.683Z" fill="#EDE2FF" fill-opacity="0.45"/>
<path id="Vector_3" d="M590 353.687H0V354.305H590V353.687Z" fill="#EDE2FF" fill-opacity="0.45"/>
<path id="Vector_4" d="M590 294.691H0V295.309H590V294.691Z" fill="#EDE2FF" fill-opacity="0.45"/>
<path id="Vector_5" d="M590 235.695H0V236.313H590V235.695Z" fill="#EDE2FF" fill-opacity="0.45"/>
<path id="Vector_6" d="M590 176.699H0V177.318H590V176.699Z" fill="#EDE2FF" fill-opacity="0.45"/>
<path id="Vector_7" d="M590 117.682H0V118.301H590V117.682Z" fill="#EDE2FF" fill-opacity="0.45"/>
<path id="Vector_8" d="M516.627 0H515.847V590H516.627V0Z" fill="#EDE2FF" fill-opacity="0.45"/>
<path id="Vector_9" d="M442.89 0H442.11V590H442.89V0Z" fill="#EDE2FF" fill-opacity="0.45"/>
<path id="Vector_10" d="M369.127 0H368.346V590H369.127V0Z" fill="#EDE2FF" fill-opacity="0.45"/>
<path id="Vector_11" d="M295.39 0H294.61V590H295.39V0Z" fill="#EDE2FF" fill-opacity="0.45"/>
<path id="Vector_12" d="M221.627 0H220.846V590H221.627V0Z" fill="#EDE2FF" fill-opacity="0.45"/>
<path id="Vector_13" d="M147.89 0H147.109V590H147.89V0Z" fill="#EDE2FF" fill-opacity="0.45"/>
<path id="Vector_14" d="M74.1273 0H73.3464V590H74.1273V0Z" fill="#EDE2FF" fill-opacity="0.45"/>
<path id="Vector_15" d="M590 516.085H0V516.394H590V516.085Z" fill="#EDE2FF" fill-opacity="0.45"/>
<path id="Vector_16" d="M590 501.351H0V501.66H590V501.351Z" fill="#EDE2FF" fill-opacity="0.45"/>
<path id="Vector_17" d="M590 486.597H0V486.906H590V486.597Z" fill="#EDE2FF" fill-opacity="0.45"/>
<path id="Vector_18" d="M590 471.843H0V472.152H590V471.843Z" fill="#EDE2FF" fill-opacity="0.45"/>
<path id="Vector_19" d="M590 457.089H0V457.398H590V457.089Z" fill="#EDE2FF" fill-opacity="0.45"/>
<path id="Vector_20" d="M590 442.335H0V442.644H590V442.335Z" fill="#EDE2FF" fill-opacity="0.45"/>
<path id="Vector_21" d="M590 427.602H0V427.911H590V427.602Z" fill="#EDE2FF" fill-opacity="0.45"/>
<path id="Vector_22" d="M590 412.848H0V413.157H590V412.848Z" fill="#EDE2FF" fill-opacity="0.45"/>
<path id="Vector_23" d="M590 398.093H0V398.402H590V398.093Z" fill="#EDE2FF" fill-opacity="0.45"/>
<path id="Vector_24" d="M590 383.339H0V383.649H590V383.339Z" fill="#EDE2FF" fill-opacity="0.45"/>
<path id="Vector_25" d="M590 368.585H0V368.894H590V368.585Z" fill="#EDE2FF" fill-opacity="0.45"/>
<path id="Vector_26" d="M590 353.852H0V354.161H590V353.852Z" fill="#EDE2FF" fill-opacity="0.45"/>
<path id="Vector_27" d="M590 339.097H0V339.406H590V339.097Z" fill="#EDE2FF" fill-opacity="0.45"/>
<path id="Vector_28" d="M590 324.343H0V324.652H590V324.343Z" fill="#EDE2FF" fill-opacity="0.45"/>
<path id="Vector_29" d="M590 309.589H0V309.898H590V309.589Z" fill="#EDE2FF" fill-opacity="0.45"/>
<path id="Vector_30" d="M590 294.835H0V295.144H590V294.835Z" fill="#EDE2FF" fill-opacity="0.45"/>
<path id="Vector_31" d="M590 280.102H0V280.411H590V280.102Z" fill="#EDE2FF" fill-opacity="0.45"/>
<path id="Vector_32" d="M590 265.347H0V265.656H590V265.347Z" fill="#EDE2FF" fill-opacity="0.45"/>
<path id="Vector_33" d="M590 250.593H0V250.902H590V250.593Z" fill="#EDE2FF" fill-opacity="0.45"/>
<path id="Vector_34" d="M590 235.839H0V236.148H590V235.839Z" fill="#EDE2FF" fill-opacity="0.45"/>
<path id="Vector_35" d="M590 221.085H0V221.394H590V221.085Z" fill="#EDE2FF" fill-opacity="0.45"/>
<path id="Vector_36" d="M590 206.352H0V206.661H590V206.352Z" fill="#EDE2FF" fill-opacity="0.45"/>
<path id="Vector_37" d="M590 191.598H0V191.907H590V191.598Z" fill="#EDE2FF" fill-opacity="0.45"/>
<path id="Vector_38" d="M590 176.843H0V177.152H590V176.843Z" fill="#EDE2FF" fill-opacity="0.45"/>
<path id="Vector_39" d="M590 162.089H0V162.398H590V162.089Z" fill="#EDE2FF" fill-opacity="0.45"/>
<path id="Vector_40" d="M590 147.335H0V147.644H590V147.335Z" fill="#EDE2FF" fill-opacity="0.45"/>
<path id="Vector_41" d="M590 132.602H0V132.911H590V132.602Z" fill="#EDE2FF" fill-opacity="0.45"/>
<path id="Vector_42" d="M590 117.847H0V118.156H590V117.847Z" fill="#EDE2FF" fill-opacity="0.45"/>
<path id="Vector_43" d="M590 103.093H0V103.402H590V103.093Z" fill="#EDE2FF" fill-opacity="0.45"/>
<path id="Vector_44" d="M590 88.3394H0V88.6485H590V88.3394Z" fill="#EDE2FF" fill-opacity="0.45"/>
<path id="Vector_45" d="M571.754 0H571.364V590H571.754V0Z" fill="#EDE2FF" fill-opacity="0.45"/>
<path id="Vector_46" d="M553.327 0H552.936V590H553.327V0Z" fill="#EDE2FF" fill-opacity="0.45"/>
<path id="Vector_47" d="M534.873 0H534.483V590H534.873V0Z" fill="#EDE2FF" fill-opacity="0.45"/>
<path id="Vector_48" d="M516.445 0H516.054V590H516.445V0Z" fill="#EDE2FF" fill-opacity="0.45"/>
<path id="Vector_49" d="M497.991 0H497.601V590H497.991V0Z" fill="#EDE2FF" fill-opacity="0.45"/>
<path id="Vector_50" d="M479.564 0H479.173V590H479.564V0Z" fill="#EDE2FF" fill-opacity="0.45"/>
<path id="Vector_51" d="M461.136 0H460.745V590H461.136V0Z" fill="#EDE2FF" fill-opacity="0.45"/>
<path id="Vector_52" d="M442.682 0H442.292V590H442.682V0Z" fill="#EDE2FF" fill-opacity="0.45"/>
<path id="Vector_53" d="M424.254 0H423.864V590H424.254V0Z" fill="#EDE2FF" fill-opacity="0.45"/>
<path id="Vector_54" d="M405.826 0H405.436V590H405.826V0Z" fill="#EDE2FF" fill-opacity="0.45"/>
<path id="Vector_55" d="M387.373 0H386.983V590H387.373V0Z" fill="#EDE2FF" fill-opacity="0.45"/>
<path id="Vector_56" d="M368.945 0H368.555V590H368.945V0Z" fill="#EDE2FF" fill-opacity="0.45"/>
<path id="Vector_57" d="M350.491 0H350.101V590H350.491V0Z" fill="#EDE2FF" fill-opacity="0.45"/>
<path id="Vector_58" d="M332.064 0H331.673V590H332.064V0Z" fill="#EDE2FF" fill-opacity="0.45"/>
<path id="Vector_59" d="M313.636 0H313.245V590H313.636V0Z" fill="#EDE2FF" fill-opacity="0.45"/>
<path id="Vector_60" d="M295.182 0H294.792V590H295.182V0Z" fill="#EDE2FF" fill-opacity="0.45"/>
<path id="Vector_61" d="M276.755 0H276.364V590H276.755V0Z" fill="#EDE2FF" fill-opacity="0.45"/>
<path id="Vector_62" d="M258.327 0H257.936V590H258.327V0Z" fill="#EDE2FF" fill-opacity="0.45"/>
<path id="Vector_63" d="M239.873 0H239.482V590H239.873V0Z" fill="#EDE2FF" fill-opacity="0.45"/>
<path id="Vector_64" d="M221.445 0H221.055V590H221.445V0Z" fill="#EDE2FF" fill-opacity="0.45"/>
<path id="Vector_65" d="M203.017 0H202.627V590H203.017V0Z" fill="#EDE2FF" fill-opacity="0.45"/>
<path id="Vector_66" d="M184.564 0H184.173V590H184.564V0Z" fill="#EDE2FF" fill-opacity="0.45"/>
<path id="Vector_67" d="M166.136 0H165.745V590H166.136V0Z" fill="#EDE2FF" fill-opacity="0.45"/>
<path id="Vector_68" d="M147.682 0H147.292V590H147.682V0Z" fill="#EDE2FF" fill-opacity="0.45"/>
<path id="Vector_69" d="M129.254 0H128.864V590H129.254V0Z" fill="#EDE2FF" fill-opacity="0.45"/>
<path id="Vector_70" d="M110.827 0H110.436V590H110.827V0Z" fill="#EDE2FF" fill-opacity="0.45"/>
<path id="Vector_71" d="M92.3728 0H91.9824V590H92.3728V0Z" fill="#EDE2FF" fill-opacity="0.45"/>
<path id="Vector_72" d="M73.9451 0H73.5547V590H73.9451V0Z" fill="#EDE2FF" fill-opacity="0.45"/>
<path id="Vector_73" d="M55.5171 0H55.1267V590H55.5171V0Z" fill="#EDE2FF" fill-opacity="0.45"/>
<path id="Vector_74" d="M37.0635 0H36.6731V590H37.0635V0Z" fill="#EDE2FF" fill-opacity="0.45"/>
<path id="Vector_75" d="M18.636 0H18.2456V590H18.636V0Z" fill="#EDE2FF" fill-opacity="0.45"/>
<path id="Vector_76" opacity="0.08" d="M296.434 54.2929C296.043 53.9024 295.41 53.9024 295.019 54.2929L288.655 60.6568C288.265 61.0474 288.265 61.6805 288.655 62.0711C289.046 62.4616 289.679 62.4616 290.07 62.0711L295.726 56.4142L301.383 62.0711C301.774 62.4616 302.407 62.4616 302.798 62.0711C303.188 61.6805 303.188 61.0474 302.798 60.6568L296.434 54.2929ZM295.019 535.707C295.41 536.098 296.043 536.098 296.434 535.707L302.797 529.343C303.188 528.953 303.188 528.319 302.797 527.929C302.407 527.538 301.774 527.538 301.383 527.929L295.726 533.586L290.07 527.929C289.679 527.538 289.046 527.538 288.655 527.929C288.265 528.319 288.265 528.953 288.655 529.343L295.019 535.707ZM294.726 55V535H296.726V55H294.726Z" fill="#410EAD"/>
<path id="Vector_77" opacity="0.08" d="M54.2929 293.566C53.9024 293.957 53.9024 294.59 54.2929 294.981L60.6568 301.345C61.0474 301.735 61.6805 301.735 62.0711 301.345C62.4616 300.954 62.4616 300.321 62.0711 299.93L56.4142 294.273L62.0711 288.617C62.4616 288.226 62.4616 287.593 62.0711 287.202C61.6805 286.812 61.0474 286.812 60.6568 287.202L54.2929 293.566ZM535.707 294.981C536.098 294.59 536.098 293.957 535.707 293.566L529.343 287.202C528.953 286.812 528.319 286.812 527.929 287.202C527.538 287.593 527.538 288.226 527.929 288.617L533.586 294.273L527.929 299.93C527.538 300.321 527.538 300.954 527.929 301.345C528.319 301.735 528.953 301.735 529.343 301.345L535.707 294.981ZM55 295.273H535V293.273H55V295.273Z" fill="#410EAD"/>
<path id="Vector_78" d="M297 453.5C384.537 453.5 455.5 382.537 455.5 295C455.5 207.463 384.537 136.5 297 136.5C209.463 136.5 138.5 207.463 138.5 295C138.5 382.537 209.463 453.5 297 453.5Z" stroke="#410EAD" stroke-width="3"/>
<path id="Vector_79" opacity="0.08" d="M295.035 54.9648C295.016 54.9453 294.984 54.9453 294.965 54.9648L294.646 55.283C294.627 55.3026 294.627 55.3342 294.646 55.3537C294.666 55.3733 294.698 55.3733 294.717 55.3537L295 55.0709L295.283 55.3537C295.302 55.3733 295.334 55.3733 295.354 55.3537C295.373 55.3342 295.373 55.3026 295.354 55.283L295.035 54.9648ZM294.965 535.035C294.984 535.055 295.016 535.055 295.035 535.035L295.354 534.717C295.373 534.698 295.373 534.666 295.354 534.646C295.334 534.627 295.302 534.627 295.283 534.646L295 534.929L294.717 534.646C294.698 534.627 294.666 534.627 294.646 534.646C294.627 534.666 294.627 534.698 294.646 534.717L294.965 535.035ZM294.95 55.0002V535H295.05V55.0002H294.95Z" fill="#410EAD"/>
<path id="Blockchain" opacity="0.25" d="M187.93 127H192.805C194.695 127 195.895 125.74 195.895 124.06C195.895 122.92 195.31 121.96 194.305 121.48C195.07 121.015 195.49 120.205 195.49 119.23C195.49 117.7 194.38 116.5 192.535 116.5H187.93V127ZM189.58 120.85V118.045H192.325C193.345 118.045 193.9 118.615 193.9 119.41C193.9 120.265 193.36 120.85 192.355 120.85H189.58ZM189.58 125.455V122.35H192.505C193.57 122.35 194.185 122.995 194.185 123.895C194.185 124.81 193.57 125.455 192.505 125.455H189.58ZM197.2 127H198.85V116.5H197.2V127ZM203.931 119.515C201.726 119.515 200.151 121.21 200.151 123.385C200.151 125.56 201.711 127.225 203.931 127.225C206.166 127.225 207.696 125.56 207.696 123.385C207.696 121.21 206.151 119.515 203.931 119.515ZM203.931 125.635C203.316 125.635 202.806 125.425 202.401 125.005C201.996 124.57 201.801 124.03 201.801 123.385C201.801 122.725 201.996 122.185 202.401 121.75C202.806 121.315 203.316 121.105 203.931 121.105C204.546 121.105 205.041 121.33 205.446 121.765C205.851 122.2 206.046 122.74 206.046 123.385C206.046 124.03 205.851 124.57 205.446 125.005C205.041 125.425 204.546 125.635 203.931 125.635ZM212.277 119.515C210.117 119.515 208.632 121.195 208.632 123.385C208.632 125.59 210.132 127.24 212.382 127.24C214.197 127.24 215.637 126.025 215.817 124.36L214.272 123.97C214.167 124.975 213.357 125.65 212.352 125.65C211.107 125.65 210.282 124.69 210.282 123.265C210.282 122.665 210.462 122.155 210.837 121.735C211.212 121.315 211.692 121.105 212.277 121.105C213.192 121.105 213.852 121.645 213.987 122.47L215.457 121.96C215.142 120.475 213.942 119.515 212.277 119.515ZM216.99 127H218.64V124.57L219.285 123.925L221.625 127H223.635L220.425 122.785L223.455 119.74H221.325L218.64 122.44V116.5H216.99V127ZM227.336 119.515C225.176 119.515 223.691 121.195 223.691 123.385C223.691 125.59 225.191 127.24 227.441 127.24C229.256 127.24 230.696 126.025 230.876 124.36L229.331 123.97C229.226 124.975 228.416 125.65 227.411 125.65C226.166 125.65 225.341 124.69 225.341 123.265C225.341 122.665 225.521 122.155 225.896 121.735C226.271 121.315 226.751 121.105 227.336 121.105C228.251 121.105 228.911 121.645 229.046 122.47L230.516 121.96C230.201 120.475 229.001 119.515 227.336 119.515ZM232.049 127H233.699V123.07C233.699 121.795 234.359 121 235.379 121C236.324 121 236.789 121.54 236.789 122.635V127H238.439V122.32C238.439 120.58 237.509 119.515 235.904 119.515C234.974 119.515 234.239 119.845 233.699 120.505V116.5H232.049V127ZM242.64 122.59C240.795 122.89 239.88 123.67 239.88 125.065C239.88 126.145 240.705 127.225 242.355 127.225C243.27 127.225 243.975 126.775 244.32 126.16V127H245.865V122.125C245.865 120.52 244.785 119.515 242.85 119.515C241.2 119.515 239.805 120.52 239.895 122.335L241.44 122.455C241.365 121.51 241.89 120.91 242.895 120.91C243.795 120.91 244.32 121.39 244.32 122.035V122.305L242.64 122.59ZM242.67 125.74C241.935 125.74 241.44 125.395 241.44 124.87C241.44 124.27 241.98 124 242.88 123.835L244.32 123.595V123.94C244.32 125.02 243.645 125.74 242.67 125.74ZM247.547 127H249.197V119.74H247.547V127ZM248.357 116.515C247.772 116.515 247.307 116.995 247.307 117.58C247.307 118.165 247.772 118.645 248.357 118.645C248.942 118.645 249.422 118.165 249.422 117.58C249.422 116.995 248.942 116.515 248.357 116.515ZM250.872 127H252.522V123.07C252.522 121.795 253.182 121 254.202 121C255.147 121 255.612 121.54 255.612 122.635V127H257.262V122.32C257.262 120.58 256.332 119.515 254.727 119.515C253.797 119.515 253.062 119.845 252.522 120.505V119.74H250.872V127Z" fill="#410EAD"/>
<path id="Dao" opacity="0.25" d="M155.93 162H159.755C162.65 162.06 164.825 159.66 164.78 156.765C164.825 153.855 162.65 151.455 159.755 151.5H155.93V162ZM157.58 160.35V153.15H159.74C161.675 153.15 163.07 154.68 163.07 156.765C163.07 158.85 161.675 160.35 159.74 160.35H157.58ZM164.936 162H166.736L167.876 159.195H172.511L173.636 162H175.451L171.161 151.5H169.226L164.936 162ZM168.506 157.62L170.186 153.45L171.866 157.62H168.506ZM180.968 151.275C177.863 151.215 175.553 153.735 175.598 156.78C175.553 159.81 177.863 162.27 180.968 162.225C184.043 162.285 186.338 159.795 186.293 156.78C186.338 153.735 184.043 151.215 180.968 151.275ZM180.953 160.635C178.793 160.635 177.248 159 177.248 156.78C177.248 154.545 178.793 152.865 180.953 152.865C183.098 152.865 184.643 154.545 184.643 156.78C184.643 159.015 183.098 160.635 180.953 160.635Z" fill="#410EAD"/>
<path id="Dapps" opacity="0.25" d="M108.93 199H112.755C115.65 199.06 117.825 196.66 117.78 193.765C117.825 190.855 115.65 188.455 112.755 188.5H108.93V199ZM110.58 197.35V190.15H112.74C114.675 190.15 116.07 191.68 116.07 193.765C116.07 195.85 114.675 197.35 112.74 197.35H110.58ZM121.702 194.59C119.857 194.89 118.942 195.67 118.942 197.065C118.942 198.145 119.767 199.225 121.417 199.225C122.332 199.225 123.037 198.775 123.382 198.16V199H124.927V194.125C124.927 192.52 123.847 191.515 121.912 191.515C120.262 191.515 118.867 192.52 118.957 194.335L120.502 194.455C120.427 193.51 120.952 192.91 121.957 192.91C122.857 192.91 123.382 193.39 123.382 194.035V194.305L121.702 194.59ZM121.732 197.74C120.997 197.74 120.502 197.395 120.502 196.87C120.502 196.27 121.042 196 121.942 195.835L123.382 195.595V195.94C123.382 197.02 122.707 197.74 121.732 197.74ZM126.609 202.375H128.259V198.145C128.859 198.88 129.654 199.24 130.659 199.24C132.624 199.24 134.049 197.515 134.049 195.37C134.049 193.21 132.624 191.515 130.659 191.515C129.654 191.515 128.844 191.875 128.259 192.595V191.74H126.609V202.375ZM130.314 197.65C129.114 197.65 128.259 196.69 128.259 195.37C128.259 194.05 129.099 193.105 130.314 193.105C131.559 193.105 132.399 194.05 132.399 195.37C132.399 196.69 131.529 197.65 130.314 197.65ZM135.354 202.375H137.004V198.145C137.604 198.88 138.399 199.24 139.404 199.24C141.369 199.24 142.794 197.515 142.794 195.37C142.794 193.21 141.369 191.515 139.404 191.515C138.399 191.515 137.589 191.875 137.004 192.595V191.74H135.354V202.375ZM139.059 197.65C137.859 197.65 137.004 196.69 137.004 195.37C137.004 194.05 137.844 193.105 139.059 193.105C140.304 193.105 141.144 194.05 141.144 195.37C141.144 196.69 140.274 197.65 139.059 197.65ZM143.59 196.465C143.74 197.29 144.115 197.965 144.715 198.475C145.315 198.97 146.035 199.225 146.89 199.225C148.63 199.225 149.875 198.235 149.875 196.78C149.875 195.385 148.885 194.59 146.92 194.395C145.975 194.29 145.705 194.065 145.705 193.66C145.705 193.255 146.125 193.03 146.77 193.03C147.475 193.03 147.97 193.405 148.15 194.125L149.56 193.69C149.2 192.355 148.075 191.5 146.77 191.5C145.24 191.5 144.07 192.415 144.07 193.66C144.07 194.98 144.985 195.805 146.74 195.985C147.88 196.105 148.27 196.39 148.27 196.855C148.27 197.35 147.775 197.71 146.89 197.71C145.93 197.71 145.3 197.125 145.135 196.165L143.59 196.465Z" fill="#410EAD"/>
<path id="Defi" opacity="0.25" d="M443.93 199H447.755C450.65 199.06 452.825 196.66 452.78 193.765C452.825 190.855 450.65 188.455 447.755 188.5H443.93V199ZM445.58 197.35V190.15H447.74C449.675 190.15 451.07 191.68 451.07 193.765C451.07 195.85 449.675 197.35 447.74 197.35H445.58ZM457.407 191.515C455.262 191.515 453.807 193.21 453.807 195.385C453.807 197.575 455.277 199.225 457.482 199.225C459.192 199.225 460.632 198.115 460.872 196.54L459.342 196.255C459.207 197.155 458.457 197.755 457.512 197.755C456.357 197.755 455.532 197.005 455.352 195.76H460.677V194.995C460.677 192.955 459.372 191.515 457.407 191.515ZM455.427 194.47C455.682 193.555 456.432 192.94 457.407 192.94C458.427 192.94 459.147 193.615 459.192 194.47H455.427ZM461.492 193.18H462.722V199H464.372V193.18H468.017V191.74H464.372V191.05C464.372 190.27 464.867 189.775 465.602 189.775C466.277 189.775 466.712 190.24 466.697 191.02L468.197 190.675C468.122 189.235 467.117 188.275 465.602 188.275C463.847 188.275 462.722 189.445 462.722 191.14V191.74H461.492V193.18ZM469.138 199H470.788V191.74H469.138V199ZM469.948 188.515C469.363 188.515 468.898 188.995 468.898 189.58C468.898 190.165 469.363 190.645 469.948 190.645C470.533 190.645 471.013 190.165 471.013 189.58C471.013 188.995 470.533 188.515 469.948 188.515Z" fill="#410EAD"/>
<path id="Wallet" opacity="0.25" d="M93.1802 237.5L95.8802 248H97.8902L99.9002 240.185L101.91 248H103.905L106.605 237.5H104.925L102.9 245.645L100.785 237.5H99.0002L96.9002 245.54L94.8752 237.5H93.1802ZM109.441 243.59C107.596 243.89 106.681 244.67 106.681 246.065C106.681 247.145 107.506 248.225 109.156 248.225C110.071 248.225 110.776 247.775 111.121 247.16V248H112.666V243.125C112.666 241.52 111.586 240.515 109.651 240.515C108.001 240.515 106.606 241.52 106.696 243.335L108.241 243.455C108.166 242.51 108.691 241.91 109.696 241.91C110.596 241.91 111.121 242.39 111.121 243.035V243.305L109.441 243.59ZM109.471 246.74C108.736 246.74 108.241 246.395 108.241 245.87C108.241 245.27 108.781 245 109.681 244.835L111.121 244.595V244.94C111.121 246.02 110.446 246.74 109.471 246.74ZM114.348 248H115.998V237.5H114.348V248ZM117.673 248H119.323V237.5H117.673V248ZM124.223 240.515C122.078 240.515 120.623 242.21 120.623 244.385C120.623 246.575 122.093 248.225 124.298 248.225C126.008 248.225 127.448 247.115 127.688 245.54L126.158 245.255C126.023 246.155 125.273 246.755 124.328 246.755C123.173 246.755 122.348 246.005 122.168 244.76H127.493V243.995C127.493 241.955 126.188 240.515 124.223 240.515ZM122.243 243.47C122.498 242.555 123.248 241.94 124.223 241.94C125.243 241.94 125.963 242.615 126.008 243.47H122.243ZM128.323 242.18H129.583V245.45C129.583 247.175 130.663 248.225 132.448 248.225C134.023 248.225 135.163 247.085 135.073 245.33L133.498 245.18C133.573 246.14 133.123 246.725 132.388 246.725C131.668 246.725 131.233 246.29 131.233 245.495V242.18H134.803V240.74H131.233V238.61H129.583V240.74H128.323V242.18Z" fill="#410EAD"/>
<path id="Dex" opacity="0.25" d="M458.93 248H462.755C465.65 248.06 467.825 245.66 467.78 242.765C467.825 239.855 465.65 237.455 462.755 237.5H458.93V248ZM460.58 246.35V239.15H462.74C464.675 239.15 466.07 240.68 466.07 242.765C466.07 244.85 464.675 246.35 462.74 246.35H460.58ZM469.418 248H476.753V246.41H471.068V243.425H476.138V241.835H471.068V239.09H476.753V237.5H469.418V248ZM481.415 242.75L477.62 248H479.705L482.495 244.1L485.3 248H487.415L483.575 242.735L487.415 237.5H485.345L482.51 241.415L479.69 237.5H477.575L481.415 242.75Z" fill="#410EAD"/>
<path id="Cardano" opacity="0.25" d="M345.955 461.275C342.85 461.215 340.66 463.705 340.705 466.78C340.705 469.915 342.88 472.225 346.105 472.225C348.64 472.27 350.785 470.5 351.025 468.16L349.405 467.815C349.225 469.495 347.785 470.635 346.075 470.635C343.855 470.635 342.355 468.985 342.355 466.585C342.355 464.545 343.825 462.865 345.94 462.865C347.545 462.865 348.67 463.81 348.925 465.265L350.44 464.755C350.05 462.685 348.295 461.275 345.955 461.275ZM354.786 467.59C352.941 467.89 352.026 468.67 352.026 470.065C352.026 471.145 352.851 472.225 354.501 472.225C355.416 472.225 356.121 471.775 356.466 471.16V472H358.011V467.125C358.011 465.52 356.931 464.515 354.996 464.515C353.346 464.515 351.951 465.52 352.041 467.335L353.586 467.455C353.511 466.51 354.036 465.91 355.041 465.91C355.941 465.91 356.466 466.39 356.466 467.035V467.305L354.786 467.59ZM354.816 470.74C354.081 470.74 353.586 470.395 353.586 469.87C353.586 469.27 354.126 469 355.026 468.835L356.466 468.595V468.94C356.466 470.02 355.791 470.74 354.816 470.74ZM359.693 472H361.343V467.995C361.343 466.735 361.898 466.03 362.693 466.03C363.368 466.03 363.773 466.51 363.773 467.425C363.773 467.56 363.773 467.65 363.758 467.725L365.393 467.47C365.453 465.49 364.598 464.5 363.218 464.5C362.393 464.5 361.763 464.845 361.343 465.43V464.74H359.693V472ZM369.534 464.515C367.569 464.515 366.144 466.24 366.144 468.37C366.144 470.53 367.569 472.225 369.534 472.225C370.539 472.225 371.349 471.865 371.934 471.145V472H373.584V461.5H371.934V465.595C371.334 464.875 370.539 464.515 369.534 464.515ZM369.879 470.635C368.634 470.635 367.794 469.69 367.794 468.37C367.794 467.725 367.989 467.185 368.379 466.75C368.769 466.315 369.264 466.105 369.879 466.105C370.479 466.105 370.974 466.315 371.349 466.75C371.739 467.185 371.934 467.725 371.934 468.37C371.934 469.69 371.094 470.635 369.879 470.635ZM377.784 467.59C375.939 467.89 375.024 468.67 375.024 470.065C375.024 471.145 375.849 472.225 377.499 472.225C378.414 472.225 379.119 471.775 379.464 471.16V472H381.009V467.125C381.009 465.52 379.929 464.515 377.994 464.515C376.344 464.515 374.949 465.52 375.039 467.335L376.584 467.455C376.509 466.51 377.034 465.91 378.039 465.91C378.939 465.91 379.464 466.39 379.464 467.035V467.305L377.784 467.59ZM377.814 470.74C377.079 470.74 376.584 470.395 376.584 469.87C376.584 469.27 377.124 469 378.024 468.835L379.464 468.595V468.94C379.464 470.02 378.789 470.74 377.814 470.74ZM382.691 472H384.341V468.07C384.341 466.795 385.001 466 386.021 466C386.966 466 387.431 466.54 387.431 467.635V472H389.081V467.32C389.081 465.58 388.151 464.515 386.546 464.515C385.616 464.515 384.881 464.845 384.341 465.505V464.74H382.691V472ZM394.167 464.515C391.962 464.515 390.387 466.21 390.387 468.385C390.387 470.56 391.947 472.225 394.167 472.225C396.402 472.225 397.932 470.56 397.932 468.385C397.932 466.21 396.387 464.515 394.167 464.515ZM394.167 470.635C393.552 470.635 393.042 470.425 392.637 470.005C392.232 469.57 392.037 469.03 392.037 468.385C392.037 467.725 392.232 467.185 392.637 466.75C393.042 466.315 393.552 466.105 394.167 466.105C394.782 466.105 395.277 466.33 395.682 466.765C396.087 467.2 396.282 467.74 396.282 468.385C396.282 469.03 396.087 469.57 395.682 470.005C395.277 470.425 394.782 470.635 394.167 470.635Z" fill="#410EAD"/>
<path id="Nft" opacity="0.25" d="M407.93 162H409.58L409.61 153.765L415.13 162H417.08V151.5H415.43V159.51L410.045 151.5H407.93V162ZM418.946 162H420.596V157.74H425.606V156.15H420.596V153.09H426.221V151.5H418.946V162ZM426.987 153.09H430.422V162H432.072V153.09H435.507V151.5H426.987V153.09Z" fill="#410EAD"/>
<path id="Web3" opacity="0.25" d="M269.18 99.4999L271.88 110H273.89L275.9 102.185L277.91 110H279.905L282.605 99.4999H280.925L278.9 107.645L276.785 99.4999H275L272.9 107.54L270.875 99.4999H269.18ZM286.029 102.515C283.884 102.515 282.429 104.21 282.429 106.385C282.429 108.575 283.899 110.225 286.104 110.225C287.814 110.225 289.254 109.115 289.494 107.54L287.964 107.255C287.829 108.155 287.079 108.755 286.134 108.755C284.979 108.755 284.154 108.005 283.974 106.76H289.299V105.995C289.299 103.955 287.994 102.515 286.029 102.515ZM284.049 105.47C284.304 104.555 285.054 103.94 286.029 103.94C287.049 103.94 287.769 104.615 287.814 105.47H284.049ZM290.802 110H292.437V109.13C293.022 109.865 293.817 110.225 294.852 110.225C296.802 110.225 298.227 108.53 298.227 106.37C298.227 104.225 296.802 102.5 294.852 102.5C293.847 102.5 293.037 102.86 292.437 103.595V99.4999H290.802V110ZM294.507 108.62C293.892 108.62 293.397 108.41 293.007 107.99C292.632 107.555 292.437 107.015 292.437 106.37C292.437 105.05 293.307 104.105 294.507 104.105C295.707 104.105 296.577 105.05 296.577 106.37C296.577 107.69 295.722 108.62 294.507 108.62ZM302.88 106.7C302.79 108.62 304.185 110.225 306.705 110.225C309.315 110.225 310.695 108.635 310.695 106.79C310.695 105.71 310.17 104.78 309.15 104.225C309.855 103.685 310.2 102.905 310.2 102.005C310.2 100.505 309 99.2749 306.72 99.2749C304.59 99.2749 303.3 100.595 303.27 102.29L304.935 102.56C304.935 101.615 305.52 100.865 306.735 100.865C307.875 100.865 308.535 101.375 308.535 102.215C308.535 103.04 307.92 103.58 306.705 103.595L305.775 103.61V105.125H306.765C308.145 105.125 309 105.725 309 106.79C309 107.915 308.145 108.635 306.72 108.635C305.34 108.635 304.62 107.84 304.62 106.685L304.635 106.43L302.88 106.7ZM312.645 107.99C312.03 107.99 311.55 108.44 311.55 109.025C311.55 109.64 312.03 110.12 312.645 110.12C313.23 110.12 313.68 109.64 313.68 109.025C313.68 108.44 313.23 107.99 312.645 107.99ZM318.271 99.2749C315.481 99.2749 314.161 101.675 314.161 104.72C314.161 107.795 315.451 110.225 318.271 110.225C319.651 110.225 320.671 109.715 321.346 108.68C322.021 107.645 322.351 106.325 322.351 104.72C322.351 101.69 321.031 99.2749 318.271 99.2749ZM318.271 108.635C316.711 108.635 315.811 107.285 315.811 104.72C315.811 102.215 316.726 100.865 318.271 100.865C319.786 100.865 320.701 102.245 320.701 104.72C320.701 107.285 319.831 108.635 318.271 108.635Z" fill="#410EAD"/>
<path id="SmartContract" opacity="0.25" d="M65.375 286.49C65.57 287.645 66.08 288.545 66.875 289.22C67.67 289.895 68.675 290.225 69.86 290.225C72.29 290.225 73.91 288.86 73.91 286.85C73.91 284.93 72.56 283.925 69.86 283.64C68.285 283.475 67.655 283.025 67.655 282.17C67.655 281.405 68.495 280.865 69.695 280.865C70.835 280.865 71.735 281.66 72.02 282.905L73.61 282.29C73.4 281.375 72.935 280.655 72.23 280.115C71.525 279.56 70.67 279.29 69.695 279.29C67.58 279.29 66.005 280.49 66.005 282.14C66.005 283.985 67.205 285.035 69.62 285.29C71.435 285.485 72.26 286.025 72.26 286.91C72.245 287.945 71.345 288.635 69.86 288.635C68.315 288.635 67.25 287.645 66.935 285.95L65.375 286.49ZM75.2296 290H76.8196V285.935C76.8196 284.66 77.3296 284 78.1546 284C78.9196 284 79.2646 284.405 79.2646 285.365V290H80.8246L80.7796 285.695C80.8546 284.555 81.3346 284 82.1146 284C82.8496 284 83.1946 284.405 83.1946 285.365V290H84.7996L84.7696 284.975C84.7696 283.34 84.0046 282.515 82.6246 282.515C81.7096 282.515 81.0046 282.98 80.5846 283.775C80.2846 282.935 79.6096 282.515 78.6346 282.515C77.8396 282.515 77.2246 282.89 76.8196 283.565V282.755H75.2296V290ZM88.9996 285.59C87.1546 285.89 86.2396 286.67 86.2396 288.065C86.2396 289.145 87.0646 290.225 88.7146 290.225C89.6296 290.225 90.3346 289.775 90.6796 289.16V290H92.2246V285.125C92.2246 283.52 91.1446 282.515 89.2096 282.515C87.5596 282.515 86.1646 283.52 86.2546 285.335L87.7996 285.455C87.7246 284.51 88.2496 283.91 89.2546 283.91C90.1546 283.91 90.6796 284.39 90.6796 285.035V285.305L88.9996 285.59ZM89.0296 288.74C88.2946 288.74 87.7996 288.395 87.7996 287.87C87.7996 287.27 88.3396 287 89.2396 286.835L90.6796 286.595V286.94C90.6796 288.02 90.0046 288.74 89.0296 288.74ZM93.9064 290H95.5564V285.995C95.5564 284.735 96.1114 284.03 96.9064 284.03C97.5814 284.03 97.9864 284.51 97.9864 285.425C97.9864 285.56 97.9864 285.65 97.9714 285.725L99.6064 285.47C99.6664 283.49 98.8114 282.5 97.4314 282.5C96.6064 282.5 95.9764 282.845 95.5564 283.43V282.74H93.9064V290ZM100.22 284.18H101.48V287.45C101.48 289.175 102.56 290.225 104.345 290.225C105.92 290.225 107.06 289.085 106.97 287.33L105.395 287.18C105.47 288.14 105.02 288.725 104.285 288.725C103.565 288.725 103.13 288.29 103.13 287.495V284.18H106.7V282.74H103.13V280.61H101.48V282.74H100.22V284.18ZM70.955 298.275C67.85 298.215 65.66 300.705 65.705 303.78C65.705 306.915 67.88 309.225 71.105 309.225C73.64 309.27 75.785 307.5 76.025 305.16L74.405 304.815C74.225 306.495 72.785 307.635 71.075 307.635C68.855 307.635 67.355 305.985 67.355 303.585C67.355 301.545 68.825 299.865 70.94 299.865C72.545 299.865 73.67 300.81 73.925 302.265L75.44 301.755C75.05 299.685 73.295 298.275 70.955 298.275ZM80.7733 301.515C78.5683 301.515 76.9933 303.21 76.9933 305.385C76.9933 307.56 78.5533 309.225 80.7733 309.225C83.0083 309.225 84.5383 307.56 84.5383 305.385C84.5383 303.21 82.9933 301.515 80.7733 301.515ZM80.7733 307.635C80.1583 307.635 79.6483 307.425 79.2433 307.005C78.8383 306.57 78.6433 306.03 78.6433 305.385C78.6433 304.725 78.8383 304.185 79.2433 303.75C79.6483 303.315 80.1583 303.105 80.7733 303.105C81.3883 303.105 81.8833 303.33 82.2883 303.765C82.6933 304.2 82.8883 304.74 82.8883 305.385C82.8883 306.03 82.6933 306.57 82.2883 307.005C81.8833 307.425 81.3883 307.635 80.7733 307.635ZM85.8498 309H87.4998V305.07C87.4998 303.795 88.1598 303 89.1798 303C90.1248 303 90.5898 303.54 90.5898 304.635V309H92.2398V304.32C92.2398 302.58 91.3098 301.515 89.7048 301.515C88.7748 301.515 88.0398 301.845 87.4998 302.505V301.74H85.8498V309ZM93.0281 303.18H94.2881V306.45C94.2881 308.175 95.3681 309.225 97.1531 309.225C98.7281 309.225 99.8681 308.085 99.7781 306.33L98.2031 306.18C98.2781 307.14 97.8281 307.725 97.0931 307.725C96.3731 307.725 95.9381 307.29 95.9381 306.495V303.18H99.5081V301.74H95.9381V299.61H94.2881V301.74H93.0281V303.18ZM100.996 309H102.646V304.995C102.646 303.735 103.201 303.03 103.996 303.03C104.671 303.03 105.076 303.51 105.076 304.425C105.076 304.56 105.076 304.65 105.061 304.725L106.696 304.47C106.756 302.49 105.901 301.5 104.521 301.5C103.696 301.5 103.066 301.845 102.646 302.43V301.74H100.996V309ZM110.167 304.59C108.322 304.89 107.407 305.67 107.407 307.065C107.407 308.145 108.232 309.225 109.882 309.225C110.797 309.225 111.502 308.775 111.847 308.16V309H113.392V304.125C113.392 302.52 112.312 301.515 110.377 301.515C108.727 301.515 107.332 302.52 107.422 304.335L108.967 304.455C108.892 303.51 109.417 302.91 110.422 302.91C111.322 302.91 111.847 303.39 111.847 304.035V304.305L110.167 304.59ZM110.197 307.74C109.462 307.74 108.967 307.395 108.967 306.87C108.967 306.27 109.507 306 110.407 305.835L111.847 305.595V305.94C111.847 307.02 111.172 307.74 110.197 307.74ZM118.343 301.515C116.183 301.515 114.698 303.195 114.698 305.385C114.698 307.59 116.198 309.24 118.448 309.24C120.263 309.24 121.703 308.025 121.883 306.36L120.338 305.97C120.233 306.975 119.423 307.65 118.418 307.65C117.173 307.65 116.348 306.69 116.348 305.265C116.348 304.665 116.528 304.155 116.903 303.735C117.278 303.315 117.758 303.105 118.343 303.105C119.258 303.105 119.918 303.645 120.053 304.47L121.523 303.96C121.208 302.475 120.008 301.515 118.343 301.515ZM122.369 303.18H123.629V306.45C123.629 308.175 124.709 309.225 126.494 309.225C128.069 309.225 129.209 308.085 129.119 306.33L127.544 306.18C127.619 307.14 127.169 307.725 126.434 307.725C125.714 307.725 125.279 307.29 125.279 306.495V303.18H128.849V301.74H125.279V299.61H123.629V301.74H122.369V303.18Z" fill="#410EAD"/>
<path id="Metavers" opacity="0.25" d="M333.93 127H335.58L335.595 119.575L338.76 127H340.5L343.68 119.53V127H345.33V116.5H343.29L339.63 125.11L335.97 116.5H333.93V127ZM350.322 119.515C348.177 119.515 346.722 121.21 346.722 123.385C346.722 125.575 348.192 127.225 350.397 127.225C352.107 127.225 353.547 126.115 353.787 124.54L352.257 124.255C352.122 125.155 351.372 125.755 350.427 125.755C349.272 125.755 348.447 125.005 348.267 123.76H353.592V122.995C353.592 120.955 352.287 119.515 350.322 119.515ZM348.342 122.47C348.597 121.555 349.347 120.94 350.322 120.94C351.342 120.94 352.062 121.615 352.107 122.47H348.342ZM354.422 121.18H355.682V124.45C355.682 126.175 356.762 127.225 358.547 127.225C360.122 127.225 361.262 126.085 361.172 124.33L359.597 124.18C359.672 125.14 359.222 125.725 358.487 125.725C357.767 125.725 357.332 125.29 357.332 124.495V121.18H360.902V119.74H357.332V117.61H355.682V119.74H354.422V121.18ZM364.822 122.59C362.977 122.89 362.062 123.67 362.062 125.065C362.062 126.145 362.887 127.225 364.537 127.225C365.452 127.225 366.157 126.775 366.502 126.16V127H368.047V122.125C368.047 120.52 366.967 119.515 365.032 119.515C363.382 119.515 361.987 120.52 362.077 122.335L363.622 122.455C363.547 121.51 364.072 120.91 365.077 120.91C365.977 120.91 366.502 121.39 366.502 122.035V122.305L364.822 122.59ZM364.852 125.74C364.117 125.74 363.622 125.395 363.622 124.87C363.622 124.27 364.162 124 365.062 123.835L366.502 123.595V123.94C366.502 125.02 365.827 125.74 364.852 125.74ZM368.806 119.74L371.716 127H373.441L376.366 119.74H374.641L372.586 124.855L370.531 119.74H368.806ZM380.395 119.515C378.25 119.515 376.795 121.21 376.795 123.385C376.795 125.575 378.265 127.225 380.47 127.225C382.18 127.225 383.62 126.115 383.86 124.54L382.33 124.255C382.195 125.155 381.445 125.755 380.5 125.755C379.345 125.755 378.52 125.005 378.34 123.76H383.665V122.995C383.665 120.955 382.36 119.515 380.395 119.515ZM378.415 122.47C378.67 121.555 379.42 120.94 380.395 120.94C381.415 120.94 382.135 121.615 382.18 122.47H378.415ZM385.168 127H386.818V122.995C386.818 121.735 387.373 121.03 388.168 121.03C388.843 121.03 389.248 121.51 389.248 122.425C389.248 122.56 389.248 122.65 389.233 122.725L390.868 122.47C390.928 120.49 390.073 119.5 388.693 119.5C387.868 119.5 387.238 119.845 386.818 120.43V119.74H385.168V127ZM391.441 124.465C391.591 125.29 391.966 125.965 392.566 126.475C393.166 126.97 393.886 127.225 394.741 127.225C396.481 127.225 397.726 126.235 397.726 124.78C397.726 123.385 396.736 122.59 394.771 122.395C393.826 122.29 393.556 122.065 393.556 121.66C393.556 121.255 393.976 121.03 394.621 121.03C395.326 121.03 395.821 121.405 396.001 122.125L397.411 121.69C397.051 120.355 395.926 119.5 394.621 119.5C393.091 119.5 391.921 120.415 391.921 121.66C391.921 122.98 392.836 123.805 394.591 123.985C395.731 124.105 396.121 124.39 396.121 124.855C396.121 125.35 395.626 125.71 394.741 125.71C393.781 125.71 393.151 125.125 392.986 124.165L391.441 124.465Z" fill="#410EAD"/>
<path id="Solana" opacity="0.25" d="M143.375 440.49C143.57 441.645 144.08 442.545 144.875 443.22C145.67 443.895 146.675 444.225 147.86 444.225C150.29 444.225 151.91 442.86 151.91 440.85C151.91 438.93 150.56 437.925 147.86 437.64C146.285 437.475 145.655 437.025 145.655 436.17C145.655 435.405 146.495 434.865 147.695 434.865C148.835 434.865 149.735 435.66 150.02 436.905L151.61 436.29C151.4 435.375 150.935 434.655 150.23 434.115C149.525 433.56 148.67 433.29 147.695 433.29C145.58 433.29 144.005 434.49 144.005 436.14C144.005 437.985 145.205 439.035 147.62 439.29C149.435 439.485 150.26 440.025 150.26 440.91C150.245 441.945 149.345 442.635 147.86 442.635C146.315 442.635 145.25 441.645 144.935 439.95L143.375 440.49ZM156.737 436.515C154.532 436.515 152.957 438.21 152.957 440.385C152.957 442.56 154.517 444.225 156.737 444.225C158.972 444.225 160.502 442.56 160.502 440.385C160.502 438.21 158.957 436.515 156.737 436.515ZM156.737 442.635C156.122 442.635 155.612 442.425 155.207 442.005C154.802 441.57 154.607 441.03 154.607 440.385C154.607 439.725 154.802 439.185 155.207 438.75C155.612 438.315 156.122 438.105 156.737 438.105C157.352 438.105 157.847 438.33 158.252 438.765C158.657 439.2 158.852 439.74 158.852 440.385C158.852 441.03 158.657 441.57 158.252 442.005C157.847 442.425 157.352 442.635 156.737 442.635ZM161.814 444H163.464V433.5H161.814V444ZM167.659 439.59C165.814 439.89 164.899 440.67 164.899 442.065C164.899 443.145 165.724 444.225 167.374 444.225C168.289 444.225 168.994 443.775 169.339 443.16V444H170.884V439.125C170.884 437.52 169.804 436.515 167.869 436.515C166.219 436.515 164.824 437.52 164.914 439.335L166.459 439.455C166.384 438.51 166.909 437.91 167.914 437.91C168.814 437.91 169.339 438.39 169.339 439.035V439.305L167.659 439.59ZM167.689 442.74C166.954 442.74 166.459 442.395 166.459 441.87C166.459 441.27 166.999 441 167.899 440.835L169.339 440.595V440.94C169.339 442.02 168.664 442.74 167.689 442.74ZM172.566 444H174.216V440.07C174.216 438.795 174.876 438 175.896 438C176.841 438 177.306 438.54 177.306 439.635V444H178.956V439.32C178.956 437.58 178.026 436.515 176.421 436.515C175.491 436.515 174.756 436.845 174.216 437.505V436.74H172.566V444ZM183.157 439.59C181.312 439.89 180.397 440.67 180.397 442.065C180.397 443.145 181.222 444.225 182.872 444.225C183.787 444.225 184.492 443.775 184.837 443.16V444H186.382V439.125C186.382 437.52 185.302 436.515 183.367 436.515C181.717 436.515 180.322 437.52 180.412 439.335L181.957 439.455C181.882 438.51 182.407 437.91 183.412 437.91C184.312 437.91 184.837 438.39 184.837 439.035V439.305L183.157 439.59ZM183.187 442.74C182.452 442.74 181.957 442.395 181.957 441.87C181.957 441.27 182.497 441 183.397 440.835L184.837 440.595V440.94C184.837 442.02 184.162 442.74 183.187 442.74Z" fill="#410EAD"/>
<path id="Cosmos" opacity="0.25" d="M204.955 461.275C201.85 461.215 199.66 463.705 199.705 466.78C199.705 469.915 201.88 472.225 205.105 472.225C207.64 472.27 209.785 470.5 210.025 468.16L208.405 467.815C208.225 469.495 206.785 470.635 205.075 470.635C202.855 470.635 201.355 468.985 201.355 466.585C201.355 464.545 202.825 462.865 204.94 462.865C206.545 462.865 207.67 463.81 207.925 465.265L209.44 464.755C209.05 462.685 207.295 461.275 204.955 461.275ZM214.773 464.515C212.568 464.515 210.993 466.21 210.993 468.385C210.993 470.56 212.553 472.225 214.773 472.225C217.008 472.225 218.538 470.56 218.538 468.385C218.538 466.21 216.993 464.515 214.773 464.515ZM214.773 470.635C214.158 470.635 213.648 470.425 213.243 470.005C212.838 469.57 212.643 469.03 212.643 468.385C212.643 467.725 212.838 467.185 213.243 466.75C213.648 466.315 214.158 466.105 214.773 466.105C215.388 466.105 215.883 466.33 216.288 466.765C216.693 467.2 216.888 467.74 216.888 468.385C216.888 469.03 216.693 469.57 216.288 470.005C215.883 470.425 215.388 470.635 214.773 470.635ZM219.341 469.465C219.491 470.29 219.866 470.965 220.466 471.475C221.066 471.97 221.786 472.225 222.641 472.225C224.381 472.225 225.626 471.235 225.626 469.78C225.626 468.385 224.636 467.59 222.671 467.395C221.726 467.29 221.456 467.065 221.456 466.66C221.456 466.255 221.876 466.03 222.521 466.03C223.226 466.03 223.721 466.405 223.901 467.125L225.311 466.69C224.951 465.355 223.826 464.5 222.521 464.5C220.991 464.5 219.821 465.415 219.821 466.66C219.821 467.98 220.736 468.805 222.491 468.985C223.631 469.105 224.021 469.39 224.021 469.855C224.021 470.35 223.526 470.71 222.641 470.71C221.681 470.71 221.051 470.125 220.886 469.165L219.341 469.465ZM226.837 472H228.427V467.935C228.427 466.66 228.937 466 229.762 466C230.527 466 230.872 466.405 230.872 467.365V472H232.432L232.387 467.695C232.462 466.555 232.942 466 233.722 466C234.457 466 234.802 466.405 234.802 467.365V472H236.407L236.377 466.975C236.377 465.34 235.612 464.515 234.232 464.515C233.317 464.515 232.612 464.98 232.192 465.775C231.892 464.935 231.217 464.515 230.242 464.515C229.447 464.515 228.832 464.89 228.427 465.565V464.755H226.837V472ZM241.492 464.515C239.287 464.515 237.712 466.21 237.712 468.385C237.712 470.56 239.272 472.225 241.492 472.225C243.727 472.225 245.257 470.56 245.257 468.385C245.257 466.21 243.712 464.515 241.492 464.515ZM241.492 470.635C240.877 470.635 240.367 470.425 239.962 470.005C239.557 469.57 239.362 469.03 239.362 468.385C239.362 467.725 239.557 467.185 239.962 466.75C240.367 466.315 240.877 466.105 241.492 466.105C242.107 466.105 242.602 466.33 243.007 466.765C243.412 467.2 243.607 467.74 243.607 468.385C243.607 469.03 243.412 469.57 243.007 470.005C242.602 470.425 242.107 470.635 241.492 470.635ZM246.06 469.465C246.21 470.29 246.585 470.965 247.185 471.475C247.785 471.97 248.505 472.225 249.36 472.225C251.1 472.225 252.345 471.235 252.345 469.78C252.345 468.385 251.355 467.59 249.39 467.395C248.445 467.29 248.175 467.065 248.175 466.66C248.175 466.255 248.595 466.03 249.24 466.03C249.945 466.03 250.44 466.405 250.62 467.125L252.03 466.69C251.67 465.355 250.545 464.5 249.24 464.5C247.71 464.5 246.54 465.415 246.54 466.66C246.54 467.98 247.455 468.805 249.21 468.985C250.35 469.105 250.74 469.39 250.74 469.855C250.74 470.35 250.245 470.71 249.36 470.71C248.4 470.71 247.77 470.125 247.605 469.165L246.06 469.465Z" fill="#410EAD"/>
<path id="Xrp" opacity="0.25" d="M448.02 393.75L444.225 399H446.31L449.1 395.1L451.905 399H454.02L450.18 393.735L454.02 388.5H451.95L449.115 392.415L446.295 388.5H444.18L448.02 393.75ZM455.125 399H456.775V394.815H459.355L461.32 399.015H463.12L461.035 394.635C462.31 394.2 463.075 393.09 463.075 391.65C463.075 389.82 461.8 388.5 459.805 388.5H455.125V399ZM456.775 393.225V390.09H459.7C460.78 390.09 461.425 390.69 461.425 391.65C461.425 392.625 460.78 393.225 459.7 393.225H456.775ZM464.515 399H466.165V394.815H469.105C471.145 394.815 472.375 393.51 472.375 391.65C472.375 389.82 471.13 388.5 469.105 388.5H464.515V399ZM466.165 393.225V390.09H469C470.095 390.09 470.725 390.675 470.725 391.65C470.725 392.655 470.125 393.225 469 393.225H466.165Z" fill="#410EAD"/>
<path id="Bnb" opacity="0.25" d="M121.93 399H126.805C128.695 399 129.895 397.74 129.895 396.06C129.895 394.92 129.31 393.96 128.305 393.48C129.07 393.015 129.49 392.205 129.49 391.23C129.49 389.7 128.38 388.5 126.535 388.5H121.93V399ZM123.58 392.85V390.045H126.325C127.345 390.045 127.9 390.615 127.9 391.41C127.9 392.265 127.36 392.85 126.355 392.85H123.58ZM123.58 397.455V394.35H126.505C127.57 394.35 128.185 394.995 128.185 395.895C128.185 396.81 127.57 397.455 126.505 397.455H123.58ZM131.378 399H133.028L133.058 390.765L138.578 399H140.528V388.5H138.878V396.51L133.493 388.5H131.378V399ZM142.394 399H147.269C149.159 399 150.359 397.74 150.359 396.06C150.359 394.92 149.774 393.96 148.769 393.48C149.534 393.015 149.954 392.205 149.954 391.23C149.954 389.7 148.844 388.5 146.999 388.5H142.394V399ZM144.044 392.85V390.045H146.789C147.809 390.045 148.364 390.615 148.364 391.41C148.364 392.265 147.824 392.85 146.819 392.85H144.044ZM144.044 397.455V394.35H146.969C148.034 394.35 148.649 394.995 148.649 395.895C148.649 396.81 148.034 397.455 146.969 397.455H144.044Z" fill="#410EAD"/>
<path id="Polygon" opacity="0.25" d="M83.9302 351H85.5802V346.815H88.5202C90.5602 346.815 91.7902 345.51 91.7902 343.65C91.7902 341.82 90.5452 340.5 88.5202 340.5H83.9302V351ZM85.5802 345.225V342.09H88.4152C89.5102 342.09 90.1402 342.675 90.1402 343.65C90.1402 344.655 89.5402 345.225 88.4152 345.225H85.5802ZM95.9024 343.515C93.6974 343.515 92.1224 345.21 92.1224 347.385C92.1224 349.56 93.6824 351.225 95.9024 351.225C98.1374 351.225 99.6674 349.56 99.6674 347.385C99.6674 345.21 98.1224 343.515 95.9024 343.515ZM95.9024 349.635C95.2874 349.635 94.7774 349.425 94.3724 349.005C93.9674 348.57 93.7724 348.03 93.7724 347.385C93.7724 346.725 93.9674 346.185 94.3724 345.75C94.7774 345.315 95.2874 345.105 95.9024 345.105C96.5174 345.105 97.0124 345.33 97.4174 345.765C97.8224 346.2 98.0174 346.74 98.0174 347.385C98.0174 348.03 97.8224 348.57 97.4174 349.005C97.0124 349.425 96.5174 349.635 95.9024 349.635ZM100.979 351H102.629V340.5H100.979V351ZM103.839 351.51C103.749 353.37 105.159 354.6 107.139 354.6C109.314 354.6 110.799 353.01 110.799 350.85V343.74H109.149V347.295C109.149 348.6 108.459 349.395 107.424 349.395C106.449 349.395 105.954 348.84 105.954 347.73V343.74H104.304L104.334 348.045C104.334 349.8 105.294 350.88 106.899 350.88C107.844 350.88 108.594 350.535 109.149 349.86V350.91C109.149 352.275 108.339 353.13 107.139 353.13C106.074 353.13 105.339 352.455 105.399 351.3L103.839 351.51ZM115.463 343.56C113.513 343.56 112.103 345.195 112.103 347.19C112.103 349.215 113.528 350.775 115.493 350.775C116.408 350.775 117.128 350.445 117.683 349.785V350.835C117.683 352.275 116.858 353.145 115.613 353.145C114.458 353.145 113.738 352.365 113.753 351.24L112.148 351.465C112.118 353.34 113.573 354.6 115.583 354.6C117.788 354.6 119.333 353.01 119.333 350.76V343.74H117.683V344.58C117.143 343.935 116.378 343.56 115.463 343.56ZM115.718 349.245C114.533 349.245 113.753 348.39 113.753 347.19C113.753 345.99 114.563 345.135 115.718 345.135C116.858 345.135 117.683 345.99 117.683 347.19C117.683 348.39 116.858 349.245 115.718 349.245ZM124.423 343.515C122.218 343.515 120.643 345.21 120.643 347.385C120.643 349.56 122.203 351.225 124.423 351.225C126.658 351.225 128.188 349.56 128.188 347.385C128.188 345.21 126.643 343.515 124.423 343.515ZM124.423 349.635C123.808 349.635 123.298 349.425 122.893 349.005C122.488 348.57 122.293 348.03 122.293 347.385C122.293 346.725 122.488 346.185 122.893 345.75C123.298 345.315 123.808 345.105 124.423 345.105C125.038 345.105 125.533 345.33 125.938 345.765C126.343 346.2 126.538 346.74 126.538 347.385C126.538 348.03 126.343 348.57 125.938 349.005C125.533 349.425 125.038 349.635 124.423 349.635ZM129.499 351H131.149V347.07C131.149 345.795 131.809 345 132.829 345C133.774 345 134.239 345.54 134.239 346.635V351H135.889V346.32C135.889 344.58 134.959 343.515 133.354 343.515C132.424 343.515 131.689 343.845 131.149 344.505V343.74H129.499V351Z" fill="#410EAD"/>
<path id="Polkadot" opacity="0.25" d="M458.93 351H460.58V346.815H463.52C465.56 346.815 466.79 345.51 466.79 343.65C466.79 341.82 465.545 340.5 463.52 340.5H458.93V351ZM460.58 345.225V342.09H463.415C464.51 342.09 465.14 342.675 465.14 343.65C465.14 344.655 464.54 345.225 463.415 345.225H460.58ZM470.902 343.515C468.697 343.515 467.122 345.21 467.122 347.385C467.122 349.56 468.682 351.225 470.902 351.225C473.137 351.225 474.667 349.56 474.667 347.385C474.667 345.21 473.122 343.515 470.902 343.515ZM470.902 349.635C470.287 349.635 469.777 349.425 469.372 349.005C468.967 348.57 468.772 348.03 468.772 347.385C468.772 346.725 468.967 346.185 469.372 345.75C469.777 345.315 470.287 345.105 470.902 345.105C471.517 345.105 472.012 345.33 472.417 345.765C472.822 346.2 473.017 346.74 473.017 347.385C473.017 348.03 472.822 348.57 472.417 349.005C472.012 349.425 471.517 349.635 470.902 349.635ZM475.979 351H477.629V340.5H475.979V351ZM479.304 351H480.954V348.57L481.599 347.925L483.939 351H485.949L482.739 346.785L485.769 343.74H483.639L480.954 346.44V340.5H479.304V351ZM489.089 346.59C487.244 346.89 486.329 347.67 486.329 349.065C486.329 350.145 487.154 351.225 488.804 351.225C489.719 351.225 490.424 350.775 490.769 350.16V351H492.314V346.125C492.314 344.52 491.234 343.515 489.299 343.515C487.649 343.515 486.254 344.52 486.344 346.335L487.889 346.455C487.814 345.51 488.339 344.91 489.344 344.91C490.244 344.91 490.769 345.39 490.769 346.035V346.305L489.089 346.59ZM489.119 349.74C488.384 349.74 487.889 349.395 487.889 348.87C487.889 348.27 488.429 348 489.329 347.835L490.769 347.595V347.94C490.769 349.02 490.094 349.74 489.119 349.74ZM497.011 343.515C495.046 343.515 493.621 345.24 493.621 347.37C493.621 349.53 495.046 351.225 497.011 351.225C498.016 351.225 498.826 350.865 499.411 350.145V351H501.061V340.5H499.411V344.595C498.811 343.875 498.016 343.515 497.011 343.515ZM497.356 349.635C496.111 349.635 495.271 348.69 495.271 347.37C495.271 346.725 495.466 346.185 495.856 345.75C496.246 345.315 496.741 345.105 497.356 345.105C497.956 345.105 498.451 345.315 498.826 345.75C499.216 346.185 499.411 346.725 499.411 347.37C499.411 348.69 498.571 349.635 497.356 349.635ZM506.146 343.515C503.941 343.515 502.366 345.21 502.366 347.385C502.366 349.56 503.926 351.225 506.146 351.225C508.381 351.225 509.911 349.56 509.911 347.385C509.911 345.21 508.366 343.515 506.146 343.515ZM506.146 349.635C505.531 349.635 505.021 349.425 504.616 349.005C504.211 348.57 504.016 348.03 504.016 347.385C504.016 346.725 504.211 346.185 504.616 345.75C505.021 345.315 505.531 345.105 506.146 345.105C506.761 345.105 507.256 345.33 507.661 345.765C508.066 346.2 508.261 346.74 508.261 347.385C508.261 348.03 508.066 348.57 507.661 349.005C507.256 349.425 506.761 349.635 506.146 349.635ZM510.623 345.18H511.883V348.45C511.883 350.175 512.963 351.225 514.748 351.225C516.323 351.225 517.463 350.085 517.373 348.33L515.798 348.18C515.873 349.14 515.423 349.725 514.688 349.725C513.968 349.725 513.533 349.29 513.533 348.495V345.18H517.103V343.74H513.533V341.61H511.883V343.74H510.623V345.18Z" fill="#410EAD"/>
<path id="Avalanche" opacity="0.25" d="M407.18 444H408.98L410.12 441.195H414.755L415.88 444H417.695L413.405 433.5H411.47L407.18 444ZM410.75 439.62L412.43 435.45L414.11 439.62H410.75ZM417.069 436.74L419.979 444H421.704L424.629 436.74H422.904L420.849 441.855L418.794 436.74H417.069ZM427.909 439.59C426.064 439.89 425.149 440.67 425.149 442.065C425.149 443.145 425.974 444.225 427.624 444.225C428.539 444.225 429.244 443.775 429.589 443.16V444H431.134V439.125C431.134 437.52 430.054 436.515 428.119 436.515C426.469 436.515 425.074 437.52 425.164 439.335L426.709 439.455C426.634 438.51 427.159 437.91 428.164 437.91C429.064 437.91 429.589 438.39 429.589 439.035V439.305L427.909 439.59ZM427.939 442.74C427.204 442.74 426.709 442.395 426.709 441.87C426.709 441.27 427.249 441 428.149 440.835L429.589 440.595V440.94C429.589 442.02 428.914 442.74 427.939 442.74ZM432.816 444H434.466V433.5H432.816V444ZM438.661 439.59C436.816 439.89 435.901 440.67 435.901 442.065C435.901 443.145 436.726 444.225 438.376 444.225C439.291 444.225 439.996 443.775 440.341 443.16V444H441.886V439.125C441.886 437.52 440.806 436.515 438.871 436.515C437.221 436.515 435.826 437.52 435.916 439.335L437.461 439.455C437.386 438.51 437.911 437.91 438.916 437.91C439.816 437.91 440.341 438.39 440.341 439.035V439.305L438.661 439.59ZM438.691 442.74C437.956 442.74 437.461 442.395 437.461 441.87C437.461 441.27 438.001 441 438.901 440.835L440.341 440.595V440.94C440.341 442.02 439.666 442.74 438.691 442.74ZM443.568 444H445.218V440.07C445.218 438.795 445.878 438 446.898 438C447.843 438 448.308 438.54 448.308 439.635V444H449.958V439.32C449.958 437.58 449.028 436.515 447.423 436.515C446.493 436.515 445.758 436.845 445.218 437.505V436.74H443.568V444ZM454.909 436.515C452.749 436.515 451.264 438.195 451.264 440.385C451.264 442.59 452.764 444.24 455.014 444.24C456.829 444.24 458.269 443.025 458.449 441.36L456.904 440.97C456.799 441.975 455.989 442.65 454.984 442.65C453.739 442.65 452.914 441.69 452.914 440.265C452.914 439.665 453.094 439.155 453.469 438.735C453.844 438.315 454.324 438.105 454.909 438.105C455.824 438.105 456.484 438.645 456.619 439.47L458.089 438.96C457.774 437.475 456.574 436.515 454.909 436.515ZM459.622 444H461.272V440.07C461.272 438.795 461.932 438 462.952 438C463.897 438 464.362 438.54 464.362 439.635V444H466.012V439.32C466.012 437.58 465.082 436.515 463.477 436.515C462.547 436.515 461.812 436.845 461.272 437.505V433.5H459.622V444ZM470.919 436.515C468.774 436.515 467.319 438.21 467.319 440.385C467.319 442.575 468.789 444.225 470.994 444.225C472.704 444.225 474.144 443.115 474.384 441.54L472.854 441.255C472.719 442.155 471.969 442.755 471.024 442.755C469.869 442.755 469.044 442.005 468.864 440.76H474.189V439.995C474.189 437.955 472.884 436.515 470.919 436.515ZM468.939 439.47C469.194 438.555 469.944 437.94 470.919 437.94C471.939 437.94 472.659 438.615 472.704 439.47H468.939Z" fill="#410EAD"/>
<path id="Ethereum" opacity="0.25" d="M263.93 489H271.265V487.41H265.58V484.425H270.65V482.835H265.58V480.09H271.265V478.5H263.93V489ZM272.014 483.18H273.274V486.45C273.274 488.175 274.354 489.225 276.139 489.225C277.714 489.225 278.854 488.085 278.764 486.33L277.189 486.18C277.264 487.14 276.814 487.725 276.079 487.725C275.359 487.725 274.924 487.29 274.924 486.495V483.18H278.494V481.74H274.924V479.61H273.274V481.74H272.014V483.18ZM279.983 489H281.633V485.07C281.633 483.795 282.293 483 283.313 483C284.258 483 284.723 483.54 284.723 484.635V489H286.373V484.32C286.373 482.58 285.443 481.515 283.838 481.515C282.908 481.515 282.173 481.845 281.633 482.505V478.5H279.983V489ZM291.279 481.515C289.134 481.515 287.679 483.21 287.679 485.385C287.679 487.575 289.149 489.225 291.354 489.225C293.064 489.225 294.504 488.115 294.744 486.54L293.214 486.255C293.079 487.155 292.329 487.755 291.384 487.755C290.229 487.755 289.404 487.005 289.224 485.76H294.549V484.995C294.549 482.955 293.244 481.515 291.279 481.515ZM289.299 484.47C289.554 483.555 290.304 482.94 291.279 482.94C292.299 482.94 293.019 483.615 293.064 484.47H289.299ZM296.052 489H297.702V484.995C297.702 483.735 298.257 483.03 299.052 483.03C299.727 483.03 300.132 483.51 300.132 484.425C300.132 484.56 300.132 484.65 300.117 484.725L301.752 484.47C301.812 482.49 300.957 481.5 299.577 481.5C298.752 481.5 298.122 481.845 297.702 482.43V481.74H296.052V489ZM306.103 481.515C303.958 481.515 302.503 483.21 302.503 485.385C302.503 487.575 303.973 489.225 306.178 489.225C307.888 489.225 309.328 488.115 309.568 486.54L308.038 486.255C307.903 487.155 307.153 487.755 306.208 487.755C305.053 487.755 304.228 487.005 304.048 485.76H309.373V484.995C309.373 482.955 308.068 481.515 306.103 481.515ZM304.123 484.47C304.378 483.555 305.128 482.94 306.103 482.94C307.123 482.94 307.843 483.615 307.888 484.47H304.123ZM317.266 481.74H315.616V485.67C315.616 486.945 314.956 487.74 313.936 487.74C312.991 487.74 312.526 487.2 312.526 486.105V481.74H310.876V486.42C310.876 488.16 311.806 489.225 313.411 489.225C314.341 489.225 315.076 488.895 315.616 488.235V489H317.266V481.74ZM318.947 489H320.537V484.935C320.537 483.66 321.047 483 321.872 483C322.637 483 322.982 483.405 322.982 484.365V489H324.542L324.497 484.695C324.572 483.555 325.052 483 325.832 483C326.567 483 326.912 483.405 326.912 484.365V489H328.517L328.487 483.975C328.487 482.34 327.722 481.515 326.342 481.515C325.427 481.515 324.722 481.98 324.302 482.775C324.002 481.935 323.327 481.515 322.352 481.515C321.557 481.515 320.942 481.89 320.537 482.565V481.755H318.947V489Z" fill="#410EAD"/>
<path id="CrossArrow" d="M295.19 294.413L341.19 230.913L387.19 167.413" stroke="#410EAD" stroke-width="2"/>
<path id="CircleDot" d="M388 172C391.314 172 394 169.314 394 166C394 162.686 391.314 160 388 160C384.686 160 382 162.686 382 166C382 169.314 384.686 172 388 172Z" fill="#09C928"/>
<path id="Vector_80" d="M295.5 297C297.433 297 299 295.433 299 293.5C299 291.567 297.433 290 295.5 290C293.567 290 292 291.567 292 293.5C292 295.433 293.567 297 295.5 297Z" fill="#410EAD"/>
<path id="HyperLedger" opacity="0.25" d="M467.93 290H469.58V285.425H475.025V290H476.675V279.5H475.025V283.835H469.58V279.5H467.93V290ZM477.98 290.51C477.89 292.37 479.3 293.6 481.28 293.6C483.455 293.6 484.94 292.01 484.94 289.85V282.74H483.29V286.295C483.29 287.6 482.6 288.395 481.565 288.395C480.59 288.395 480.095 287.84 480.095 286.73V282.74H478.445L478.475 287.045C478.475 288.8 479.435 289.88 481.04 289.88C481.985 289.88 482.735 289.535 483.29 288.86V289.91C483.29 291.275 482.48 292.13 481.28 292.13C480.215 292.13 479.48 291.455 479.54 290.3L477.98 290.51ZM486.619 293.375H488.269V289.145C488.869 289.88 489.664 290.24 490.669 290.24C492.634 290.24 494.059 288.515 494.059 286.37C494.059 284.21 492.634 282.515 490.669 282.515C489.664 282.515 488.854 282.875 488.269 283.595V282.74H486.619V293.375ZM490.324 288.65C489.124 288.65 488.269 287.69 488.269 286.37C488.269 285.05 489.109 284.105 490.324 284.105C491.569 284.105 492.409 285.05 492.409 286.37C492.409 287.69 491.539 288.65 490.324 288.65ZM498.589 282.515C496.444 282.515 494.989 284.21 494.989 286.385C494.989 288.575 496.459 290.225 498.664 290.225C500.374 290.225 501.814 289.115 502.054 287.54L500.524 287.255C500.389 288.155 499.639 288.755 498.694 288.755C497.539 288.755 496.714 288.005 496.534 286.76H501.859V285.995C501.859 283.955 500.554 282.515 498.589 282.515ZM496.609 285.47C496.864 284.555 497.614 283.94 498.589 283.94C499.609 283.94 500.329 284.615 500.374 285.47H496.609ZM503.362 290H505.012V285.995C505.012 284.735 505.567 284.03 506.362 284.03C507.037 284.03 507.442 284.51 507.442 285.425C507.442 285.56 507.442 285.65 507.427 285.725L509.062 285.47C509.122 283.49 508.267 282.5 506.887 282.5C506.062 282.5 505.432 282.845 505.012 283.43V282.74H503.362V290ZM467.93 309H475.205V307.41H469.58V298.5H467.93V309ZM479.4 301.515C477.255 301.515 475.8 303.21 475.8 305.385C475.8 307.575 477.27 309.225 479.475 309.225C481.185 309.225 482.625 308.115 482.865 306.54L481.335 306.255C481.2 307.155 480.45 307.755 479.505 307.755C478.35 307.755 477.525 307.005 477.345 305.76H482.67V304.995C482.67 302.955 481.365 301.515 479.4 301.515ZM477.42 304.47C477.675 303.555 478.425 302.94 479.4 302.94C480.42 302.94 481.14 303.615 481.185 304.47H477.42ZM487.188 301.515C485.223 301.515 483.798 303.24 483.798 305.37C483.798 307.53 485.223 309.225 487.188 309.225C488.193 309.225 489.003 308.865 489.588 308.145V309H491.238V298.5H489.588V302.595C488.988 301.875 488.193 301.515 487.188 301.515ZM487.533 307.635C486.288 307.635 485.448 306.69 485.448 305.37C485.448 304.725 485.643 304.185 486.033 303.75C486.423 303.315 486.918 303.105 487.533 303.105C488.133 303.105 488.628 303.315 489.003 303.75C489.393 304.185 489.588 304.725 489.588 305.37C489.588 306.69 488.748 307.635 487.533 307.635ZM495.903 301.56C493.953 301.56 492.543 303.195 492.543 305.19C492.543 307.215 493.968 308.775 495.933 308.775C496.848 308.775 497.568 308.445 498.123 307.785V308.835C498.123 310.275 497.298 311.145 496.053 311.145C494.898 311.145 494.178 310.365 494.193 309.24L492.588 309.465C492.558 311.34 494.013 312.6 496.023 312.6C498.228 312.6 499.773 311.01 499.773 308.76V301.74H498.123V302.58C497.583 301.935 496.818 301.56 495.903 301.56ZM496.158 307.245C494.973 307.245 494.193 306.39 494.193 305.19C494.193 303.99 495.003 303.135 496.158 303.135C497.298 303.135 498.123 303.99 498.123 305.19C498.123 306.39 497.298 307.245 496.158 307.245ZM504.683 301.515C502.538 301.515 501.083 303.21 501.083 305.385C501.083 307.575 502.553 309.225 504.758 309.225C506.468 309.225 507.908 308.115 508.148 306.54L506.618 306.255C506.483 307.155 505.733 307.755 504.788 307.755C503.633 307.755 502.808 307.005 502.628 305.76H507.953V304.995C507.953 302.955 506.648 301.515 504.683 301.515ZM502.703 304.47C502.958 303.555 503.708 302.94 504.683 302.94C505.703 302.94 506.423 303.615 506.468 304.47H502.703ZM509.456 309H511.106V304.995C511.106 303.735 511.661 303.03 512.456 303.03C513.131 303.03 513.536 303.51 513.536 304.425C513.536 304.56 513.536 304.65 513.521 304.725L515.156 304.47C515.216 302.49 514.361 301.5 512.981 301.5C512.156 301.5 511.526 301.845 511.106 302.43V301.74H509.456V309Z" fill="#410EAD"/>
</g>
<defs>
<clipPath id="clip0_18_392">
<rect width="590" height="590" fill="white"/>
</clipPath>
</defs>
</svg>
