<svg width="98" height="27" viewBox="0 0 98 27" fill="none" xmlns="http://www.w3.org/2000/svg">
<g opacity="0.7">
<path d="M22.6211 5.78107H22.6583C22.8216 5.79428 22.9808 5.88211 23.08 6.03797L23.1027 6.07533L23.6424 7.07452L23.7147 7.21066C24.7154 9.11452 25.253 11.2666 25.2798 13.456V13.8337C25.1703 20.9355 19.7369 26.689 13.0341 26.8031H12.6847C10.0238 26.7724 7.50357 25.8676 5.37815 24.1811L5.26237 24.089L4.51187 23.4785L4.48293 23.4543C4.25343 23.2413 4.2307 22.8724 4.43124 22.6286L4.45812 22.6L9.56073 17.1957L9.58961 17.1672C9.755 17.0135 9.99278 16.9805 10.1913 17.0816L10.2285 17.1013L10.7784 17.4351L10.8632 17.4856C11.4359 17.815 12.0768 17.9951 12.7302 18.0127H12.9038C15.1367 17.9731 16.9437 16.0582 16.983 13.6931V13.4911C16.9747 13.2408 16.9479 12.9861 16.8982 12.7379L16.8734 12.6128L16.768 12.1363L16.7597 12.0967C16.7328 11.9254 16.7803 11.7519 16.8859 11.6202L16.9127 11.5894L18.1635 10.2631L18.1904 10.2367C18.453 9.99296 18.8644 10.0676 19.036 10.3904L19.0526 10.4255L19.1125 10.5617C19.4061 11.2403 19.6004 11.9649 19.6893 12.7116L19.7059 12.8609L19.7203 13.0124C19.7328 13.1639 19.741 13.3155 19.7452 13.467V13.7393C19.6852 17.6833 16.6667 20.8806 12.9431 20.9443H12.6909C11.9465 20.9267 11.2106 20.784 10.5118 20.5205L10.3815 20.4699L8.29126 22.6835L8.41739 22.7538C9.73021 23.4697 11.1775 23.8518 12.6826 23.8759H12.9886C18.2029 23.7858 22.4287 19.3104 22.5114 13.7854V13.4494C22.497 12.4459 22.342 11.4533 22.0567 10.5046L22.005 10.3377L22.0008 10.3421L21.9471 10.1774C21.7093 9.46812 21.3971 8.78734 21.0167 8.14609L20.9278 7.999L20.9071 7.9639C20.7934 7.74862 20.8161 7.47851 20.9671 7.2919L20.996 7.25897L22.2283 5.95231C22.3378 5.83598 22.4784 5.78107 22.619 5.78107H22.6211ZM12.9948 0.475586C15.7198 0.475586 18.3041 1.38252 20.4791 3.09978L20.5949 3.19201L21.3495 3.80249L21.3785 3.82665C21.608 4.03966 21.6308 4.40856 21.4302 4.65234L21.4033 4.6831L16.2801 10.0874L16.2511 10.1159C16.0836 10.2697 15.8459 10.3026 15.6474 10.2016L15.6102 10.1818L15.0561 9.84804L14.9692 9.79748C14.3945 9.46812 13.7494 9.28802 13.0961 9.27047H12.9204C10.6792 9.31 8.86187 11.2249 8.82465 13.59V13.792C8.83291 14.0445 8.85982 14.297 8.90939 14.5452L8.93426 14.6703L9.03969 15.1469L9.04795 15.1864C9.07487 15.3577 9.02726 15.5312 8.91978 15.6629L8.89082 15.6937L7.63379 17.0179L7.60688 17.0442C7.34227 17.288 6.93084 17.2133 6.75717 16.8927L6.73856 16.8576L6.6786 16.7236C6.38502 16.0473 6.18861 15.327 6.0997 14.5869L6.08316 14.4376L6.07076 14.2948L6.06042 14.1521L6.05628 14.0929L6.05215 14.0335L6.04595 13.9106L6.04182 13.7876V13.5439C6.10177 9.59983 9.13482 6.40252 12.8748 6.33883H13.1292C13.8776 6.35638 14.6178 6.49913 15.3187 6.76263L15.449 6.81319L17.5474 4.59961L17.4193 4.52932C16.1002 3.81347 14.6467 3.43137 13.1354 3.40721H12.8273C7.59035 3.49725 3.34787 7.97485 3.2631 13.4977V13.8337C3.27964 14.8372 3.43264 15.8298 3.72002 16.7785L3.77171 16.9454H3.77378L3.82753 17.1057C4.06736 17.815 4.37955 18.4958 4.76204 19.137L4.85094 19.2841L4.87161 19.3192C4.98533 19.5345 4.96259 19.8046 4.80959 19.9912L4.78065 20.0242L3.54221 21.3308L3.51533 21.3571C3.2631 21.5899 2.87235 21.535 2.68627 21.2407L2.6656 21.2078L2.12392 20.2086L2.05155 20.0725C1.05502 18.1663 0.513334 16.0121 0.488525 13.8206V13.4473C0.600168 6.27515 6.16794 0.475586 12.9948 0.475586ZM37.3499 6.43327C39.1093 6.43327 40.5173 7.00641 41.9129 8.29109C42.0266 8.39864 42.0928 8.53921 42.0969 8.68856C42.101 8.8247 42.0555 8.95423 41.9687 9.05962L41.9418 9.09037L41.1396 9.96003C41.0279 10.1071 40.906 10.1445 40.8233 10.1511C40.7323 10.1577 40.5897 10.1313 40.4387 9.9688C39.591 9.18481 38.4416 8.71271 37.3727 8.71271C34.9164 8.71271 32.9172 10.9087 32.9172 13.6097C32.9172 16.3108 34.9226 18.487 37.3892 18.487C38.7372 18.487 39.6593 17.8853 40.4532 17.2353C40.6517 17.0728 40.8915 17.0574 41.0734 17.1957L41.1024 17.2199L41.9584 18.1071C42.0452 18.1861 42.0989 18.3113 42.1031 18.4475C42.1072 18.6056 42.0472 18.7681 41.9418 18.88C40.7054 20.1515 39.1176 20.8235 37.352 20.8235C33.5974 20.8235 30.5417 17.6042 30.5417 13.6448C30.5417 9.68549 33.5974 6.42667 37.352 6.42667L37.3499 6.43327ZM70.6489 6.43327C72.4084 6.43327 73.8164 7.00641 75.2119 8.29109C75.3256 8.39864 75.3918 8.53921 75.396 8.68856C75.4 8.8247 75.3546 8.95423 75.2678 9.05962L75.2409 9.09037L74.4387 9.96003C74.3271 10.1071 74.205 10.1445 74.1223 10.1511C74.0293 10.1577 73.8887 10.1313 73.7378 9.9688C72.8902 9.18481 71.7406 8.71271 70.6717 8.71271C68.2155 8.71271 66.2183 10.9087 66.2183 13.6097C66.2183 16.3108 68.2258 18.487 70.6903 18.487C72.0383 18.487 72.9604 17.8853 73.7543 17.2353C73.9528 17.0728 74.1927 17.0574 74.3746 17.1957L74.4035 17.2199L75.2594 18.1071C75.3463 18.1861 75.4001 18.3113 75.4042 18.4475C75.4083 18.6056 75.3484 18.7681 75.2429 18.88C74.0066 20.1515 72.4188 20.8235 70.6531 20.8235C66.8965 20.8235 63.8427 17.6042 63.8427 13.6448C63.8427 9.68549 66.8985 6.42667 70.6531 6.42667L70.6489 6.43327ZM46.941 6.62875C47.2057 6.62875 47.4372 6.86367 47.4558 7.14038V20.09C47.4558 20.369 47.2346 20.6148 46.9741 20.6347H45.7253C45.4627 20.6347 45.2291 20.4019 45.2105 20.1252V7.17331C45.2105 6.89442 45.4317 6.64847 45.6923 6.62875H46.9389H46.941ZM57.1379 6.62875C59.4431 6.62875 61.3163 8.58092 61.3163 10.9789C61.3163 12.6896 60.3343 14.2048 58.7361 14.9866L58.6575 15.0239L61.093 19.8111C61.186 19.9934 61.184 20.2109 61.091 20.3778C61.0041 20.5293 60.8532 20.6214 60.6733 20.6325H59.1992C58.9966 20.6325 58.8395 20.5095 58.7691 20.3865L58.7568 20.3624L56.3543 15.2896H53.8443V20.09C53.8443 20.369 53.6232 20.6148 53.3606 20.6347H52.1304C51.8575 20.6347 51.6342 20.4107 51.6156 20.1252V7.17331C51.6156 6.88565 51.8286 6.64847 52.0952 6.62875H57.1358H57.1379ZM80.238 6.62875C80.5026 6.62875 80.7342 6.86367 80.753 7.14038V18.4716H85.5765C85.8489 18.4716 86.0722 18.6978 86.091 18.9811V20.09C86.091 20.3778 85.8783 20.6148 85.6092 20.6347H79.0223C78.7494 20.6347 78.5261 20.4107 78.5075 20.1252V7.17331C78.5075 6.88565 78.7205 6.64847 78.9872 6.62875H80.2359H80.238ZM96.493 6.62875C96.7653 6.62875 96.9886 6.8549 97.0074 7.13821V8.26694C97.0074 8.55459 96.7948 8.79177 96.5281 8.81149H90.8425V12.4436H95.5916C95.8558 12.4436 96.0872 12.6786 96.1061 12.9553V14.0818C96.1061 14.3696 95.8934 14.6067 95.6243 14.6265H90.8425V18.4738H96.493C96.7653 18.4738 96.9886 18.7 97.0074 18.9833V20.0923C97.0074 20.3799 96.7948 20.6171 96.5281 20.6368H89.1305C88.8573 20.6368 88.634 20.4129 88.6152 20.1274V7.17331C88.6152 6.88565 88.8287 6.64847 89.0954 6.62875H96.493ZM56.9911 8.86857H53.8795V13.2606H56.9911C58.1178 13.2606 59.071 12.2329 59.071 11.0163C59.071 9.79974 58.1178 8.86857 56.9911 8.86857Z" fill="black"/>
</g>
</svg>
