<svg width="71" height="44" viewBox="0 0 71 44" fill="none" xmlns="http://www.w3.org/2000/svg">
<path d="M59.4036 17.4037H64.1657L61.6911 28.3345H56.9298L59.4036 17.4037ZM38.8872 17.4037H45.1373L46.0458 24.0535L49.9547 17.4037H56.1842L53.7096 28.3345H49.8273L51.7161 19.9994L46.8172 28.3345H43.3038L42.1897 19.9994L40.3063 28.3345H36.4122L38.8872 17.4037ZM18.6088 17.4037H24.8608L25.7685 24.0535L29.6758 17.4037H35.9066L33.434 28.3345H29.5521L31.4355 19.9994L26.5403 28.3345H23.0274L21.9113 19.9994L20.0279 28.3345H16.1382L18.6088 17.4037ZM10.7239 23.8685L14.6864 24.7654C14.2574 25.5501 13.6481 26.2563 12.8935 26.8435C12.1623 27.4032 11.3027 27.8322 10.3673 28.1042C9.23867 28.4108 8.05625 28.5547 6.87027 28.5299C5.51631 28.573 4.16511 28.397 2.89057 28.0115C1.8847 27.6478 1.06008 27.0032 0.55679 26.1875C-0.0134156 25.3179 -0.145663 24.2052 0.160048 22.8494C0.46198 21.1859 1.52974 19.6878 3.13418 18.6768C4.70559 17.7034 6.73393 17.217 9.20692 17.217C11.1449 17.217 12.6052 17.4951 13.5879 18.0514C14.0933 18.3506 14.5214 18.7322 14.8466 19.1735C15.1718 19.6147 15.3873 20.1065 15.4803 20.6193L11.1321 21.2821C11.091 21.0244 10.9907 20.7757 10.8369 20.5499C10.6261 20.2905 10.3349 20.0841 9.99467 19.953C9.60384 19.8073 9.17922 19.7364 8.75163 19.7454C8.25222 19.7338 7.75546 19.81 7.2933 19.9691C6.83115 20.1282 6.41383 20.3666 6.06819 20.6691C5.446 21.279 5.0492 22.0277 4.92628 22.8236C4.65332 24.0365 4.72484 24.8682 5.14082 25.3187C5.55681 25.7693 6.23237 25.9943 7.16752 25.9936C7.94974 26.026 8.72168 25.8332 9.35513 25.4471C9.9571 25.0214 10.4268 24.4796 10.7239 23.8682" fill="#1A1818"/>
<path d="M12.2402 16.06C32.6648 2.89635 51.3318 -1.69978 61.0427 11.235C61.1586 3.99579 55.3839 0.000686503 46.855 0C37.3074 0 24.3083 5.0022 12.2406 16.06" fill="url(#paint0_linear_249_1888)"/>
<path d="M8.12484 31.9363C5.83651 46.3996 30.4701 49.5671 54.8462 31.9277C33.8013 42.4518 15.5589 45.0533 8.12484 31.9363Z" fill="url(#paint1_linear_249_1888)"/>
<path d="M59.1404 33.3218L60.1231 29.418H61.0357L60.0576 33.3218H59.1404ZM58.0407 31.6783C58.0407 31.644 58.0407 31.6182 58.0407 31.6007C58.0572 31.4311 57.9968 31.2626 57.8716 31.1287C57.8145 31.0769 57.7447 31.036 57.6669 31.009C57.5891 30.9821 57.5053 30.9696 57.4212 30.9726C57.3264 30.9727 57.2326 30.9885 57.1452 31.0191C57.0577 31.0496 56.9783 31.0944 56.9115 31.1507C56.7464 31.2955 56.64 31.4802 56.6072 31.6786L58.0407 31.6783ZM58.8141 32.1427H56.5168C56.4949 32.3317 56.5626 32.5203 56.7051 32.6679C56.7641 32.7234 56.8366 32.7678 56.9178 32.7979C56.9989 32.8281 57.0868 32.8433 57.1755 32.8426C57.3267 32.8413 57.4743 32.8036 57.6005 32.7339C57.7268 32.6642 57.8264 32.5655 57.8875 32.4496L58.7064 32.5635C58.5685 32.8178 58.3457 33.0331 58.0648 33.1834C57.7937 33.3217 57.4815 33.3931 57.1641 33.3894C56.9596 33.3967 56.7556 33.3685 56.5647 33.3066C56.3739 33.2447 56.2003 33.1504 56.0549 33.0297C55.9105 32.9027 55.7982 32.7526 55.7248 32.5883C55.6514 32.424 55.6184 32.249 55.6279 32.0737C55.6223 31.7038 55.7574 31.342 56.0136 31.0409C56.1829 30.8411 56.4094 30.6802 56.6724 30.5732C56.9354 30.4662 57.2263 30.4164 57.5182 30.4285C57.7005 30.4211 57.8825 30.4459 58.0526 30.5013C58.2227 30.5567 58.3769 30.6415 58.5054 30.7501C58.7651 30.9966 58.8976 31.3194 58.8739 31.6477C58.8758 31.815 58.8545 31.9819 58.8104 32.1451M53.5697 33.3231H52.7831L52.1022 30.4947H53.003L53.2437 31.725C53.308 32.062 53.3494 32.2831 53.3617 32.3929C53.3776 32.3617 53.4521 32.2484 53.5844 32.0466C53.7166 31.8448 53.7948 31.7284 53.8239 31.6869L54.6682 30.4944H55.6553L53.5697 33.3231ZM50.7683 31.6783C50.7683 31.644 50.7683 31.6182 50.7683 31.6007C50.7839 31.4315 50.7244 31.2634 50.6012 31.1287C50.5436 31.0766 50.4731 31.0357 50.3947 31.0087C50.3163 30.9818 50.2319 30.9694 50.1472 30.9726C50.0527 30.9727 49.9592 30.9885 49.8721 31.0191C49.785 31.0497 49.7059 31.0944 49.6395 31.1507C49.4735 31.2953 49.3661 31.48 49.3324 31.6786L50.7683 31.6783ZM51.5413 32.1437H49.2436C49.2407 32.1665 49.2394 32.1894 49.2395 32.2124C49.231 32.3794 49.3003 32.5426 49.4327 32.6675C49.4917 32.7235 49.5641 32.7683 49.6453 32.7989C49.7265 32.8296 49.8145 32.8454 49.9036 32.8453C50.0546 32.8439 50.202 32.8059 50.328 32.7359C50.4539 32.666 50.5531 32.567 50.6135 32.4509L51.4324 32.5649C51.2958 32.8199 51.0727 33.0355 50.7908 33.1848C50.5214 33.3228 50.211 33.3942 49.8954 33.3908C49.6907 33.398 49.4864 33.3698 49.2953 33.3079C49.1042 33.246 48.9303 33.1517 48.7846 33.031C48.6396 32.9043 48.5269 32.7543 48.4531 32.5899C48.3794 32.4256 48.3462 32.2505 48.3555 32.0751C48.3499 31.7052 48.485 31.3434 48.7412 31.0422C48.9106 30.8426 49.1372 30.6819 49.4002 30.5749C49.6631 30.4678 49.9539 30.418 50.2459 30.4299C50.4285 30.4224 50.6111 30.4472 50.7816 30.5026C50.9521 30.558 51.1069 30.6428 51.2359 30.7515C51.4947 30.9983 51.6262 31.3211 51.6015 31.6491C51.6044 31.8164 51.5831 31.9834 51.538 32.1465M46.4172 33.3218L47.3999 29.418H48.3109L47.334 33.3218H46.4172Z" fill="#1A1818"/>
<path d="M66.0446 27.1067L63.9495 26.795C64.0896 26.2807 64.4465 25.8262 64.9547 25.5151C65.584 25.1877 66.3187 25.0318 67.058 25.0688C68.1004 25.0688 68.8525 25.2304 69.3144 25.5535C69.535 25.6981 69.7126 25.8836 69.8334 26.0955C69.9541 26.3073 70.0147 26.5397 70.0104 26.7744C70.0133 27.053 69.9146 27.3256 69.7275 27.5557C69.5063 27.8149 69.2131 28.025 68.8734 28.168C69.121 28.2124 69.3594 28.2875 69.5805 28.3908C69.8391 28.522 70.052 28.7078 70.1979 28.9297C70.352 29.1751 70.428 29.4496 70.4186 29.7267C70.4168 30.1182 70.2909 30.5023 70.0538 30.8396C69.8094 31.1954 69.4435 31.4816 69.0032 31.6613C68.4372 31.8724 67.8206 31.9709 67.2017 31.9493C66.6192 31.968 66.0376 31.8958 65.4866 31.7365C65.085 31.6039 64.7295 31.3891 64.4523 31.1118C64.1637 30.8068 63.9522 30.4557 63.8308 30.08L66.0418 29.8359C66.0812 30.1222 66.2231 30.3918 66.4487 30.6092C66.6383 30.7545 66.8881 30.8317 67.1448 30.8245C67.2851 30.8269 67.4243 30.8035 67.5528 30.7561C67.6812 30.7087 67.7957 30.6383 67.8883 30.5499C68.0954 30.3493 68.2026 30.0896 68.1876 29.8246C68.2068 29.5637 68.104 29.3069 67.901 29.1086C67.8005 29.022 67.6791 28.9545 67.5449 28.9104C67.4108 28.8663 67.267 28.8467 67.1231 28.8528C66.8807 28.8639 66.6409 28.8999 66.409 28.9599L66.5208 27.6425C66.6157 27.6547 66.7114 27.6618 66.8074 27.6638C66.9407 27.6674 67.0736 27.6488 67.1984 27.6093C67.3232 27.5697 67.4374 27.5098 67.5346 27.4331C67.6263 27.3639 67.6997 27.2791 67.7498 27.1845C67.8 27.0899 67.8258 26.9875 67.8257 26.8839C67.8308 26.7947 67.8142 26.7056 67.7768 26.6219C67.7394 26.5383 67.6821 26.4619 67.6083 26.3976C67.5285 26.3349 67.4343 26.2864 67.3314 26.2552C67.2286 26.224 67.1193 26.2106 67.0101 26.216C66.8936 26.2119 66.7773 26.2272 66.6679 26.261C66.5585 26.2947 66.4581 26.3463 66.3726 26.4127C66.1778 26.6084 66.0614 26.8507 66.0401 27.105" fill="#00A1ED"/>
<defs>
<linearGradient id="paint0_linear_249_1888" x1="13.6555" y1="16.06" x2="38.7295" y2="-10.4636" gradientUnits="userSpaceOnUse">
<stop stop-color="#1BA1ED"/>
<stop offset="0.521" stop-color="#97D7F4"/>
<stop offset="1" stop-color="#1BA1ED" stop-opacity="0.173"/>
</linearGradient>
<linearGradient id="paint1_linear_249_1888" x1="7.97681" y1="32.8814" x2="51.0833" y2="19.6596" gradientUnits="userSpaceOnUse">
<stop stop-color="#1BA1ED" stop-opacity="0.235"/>
<stop offset="0.503" stop-color="#1BA1ED" stop-opacity="0.808"/>
<stop offset="1" stop-color="#1BA1ED"/>
</linearGradient>
</defs>
</svg>
