<svg width="93" height="103" viewBox="0 0 93 103" fill="none" xmlns="http://www.w3.org/2000/svg">
<g filter="url(#filter0_d_2144_2492)">
<path d="M46.5 10L82.4401 30.75V72.25L46.5 93L10.5599 72.25V30.75L46.5 10Z" fill="white"/>
</g>
<path fill-rule="evenodd" clip-rule="evenodd" d="M64.7118 31.1735C65.5684 31.4207 66.3226 32.0156 66.6798 32.726C66.8484 33.0615 66.868 33.257 66.8931 34.8627L66.9206 36.6302L66.6859 36.8C66.4188 36.9931 66.3091 37.0063 66.0102 36.8811C65.6536 36.7317 65.6056 36.4997 65.6056 34.9257C65.6056 33.6307 65.5851 33.4118 65.4402 33.152C64.971 32.3107 64.0017 32.0347 63.077 32.4788C62.702 32.6589 62.5677 32.7824 62.3718 33.1271L62.1299 33.5528V38.9361V44.3195H63.8644H65.5989L65.624 41.5962L65.649 38.8728L65.8541 38.7202C66.1201 38.5223 66.5156 38.5254 66.7351 38.7273C66.9029 38.8816 66.9089 38.9936 66.9089 41.9888V45.0905L66.6848 45.2842C66.4618 45.4769 66.4511 45.4779 64.2965 45.5017L62.1321 45.5256L62.1093 57.6846L62.0865 69.8436L61.8575 70.2925C61.5354 70.924 61.0759 71.3572 60.4063 71.6602L59.831 71.9206H45.8832H31.9355L31.5158 71.7426C30.9263 71.4924 30.4761 71.1441 30.1708 70.7021C29.6736 69.9823 29.6329 69.7036 29.6329 67.0269V64.5986L29.8869 64.3651C30.137 64.1351 30.1554 64.1316 31.1033 64.1316H32.0658V56.767V49.4024L29.2535 46.801C26.632 44.3762 26.428 44.1671 26.2474 43.7203C26.0022 43.1142 26.0284 42.165 26.3059 41.5935C26.8265 40.5216 28.085 39.8442 29.354 39.9532C30.1262 40.0195 30.7183 40.2942 31.4415 40.9214L32.0599 41.4577L32.0846 37.2765L32.1093 33.0952L32.3129 32.7185C32.6382 32.1168 33.143 31.651 33.7846 31.3606L34.3647 31.0981L49.3552 31.083C61.5801 31.0707 64.4132 31.0873 64.7118 31.1735ZM34.1369 32.5371C33.9167 32.6778 33.6789 32.9255 33.5647 33.1332L33.3692 33.4886V38.0861V42.6835L34.8246 44.0195L36.28 45.3554L44.8079 45.3767C53.0547 45.3972 53.3418 45.403 53.5186 45.5501C53.743 45.7368 53.7641 46.2006 53.5577 46.4102C53.4205 46.5497 53.0586 46.5563 45.5638 46.5563C41.2462 46.5563 37.7137 46.5844 37.7137 46.6187C37.7137 46.6531 37.9397 46.8867 38.2158 47.138L38.718 47.5948H47.7186C56.6928 47.5948 56.72 47.5953 56.9482 47.7605C57.2351 47.9679 57.2622 48.3955 57.0034 48.6334C56.832 48.7909 56.7138 48.7932 48.4236 48.7932H40.0175L42.3623 50.9501L44.7072 53.1071H48.9754C53.1619 53.1071 53.2481 53.1103 53.4726 53.2727C53.7595 53.4802 53.7865 53.9077 53.5278 54.1456C53.3595 54.3004 53.2382 54.3054 49.6854 54.3054H46.0168L46.5765 54.8247L47.1363 55.3439H51.9829C56.7138 55.3439 56.8338 55.3478 57.0034 55.5037C57.2622 55.7416 57.2351 56.1692 56.9482 56.3767C56.7239 56.539 56.6363 56.5423 52.5602 56.5423C50.2728 56.5423 48.4012 56.5661 48.4012 56.5951C48.4012 56.6242 48.4667 56.839 48.5467 57.0722L48.6921 57.4964L52.7518 57.5186C56.6033 57.5397 56.8208 57.5487 56.9944 57.693C57.233 57.8916 57.2376 58.3242 57.0034 58.5395C56.8349 58.6944 56.7138 58.6992 53.0006 58.6992C49.3934 58.6992 49.1743 58.7073 49.2198 58.839C49.2464 58.916 49.4186 59.3923 49.6026 59.8975L49.9369 60.8162L51.6961 60.8562C53.3091 60.8928 53.4655 60.909 53.5784 61.0512C53.783 61.3088 53.7336 61.7002 53.4726 61.8889C53.2562 62.0454 53.1351 62.0545 51.2731 62.0545H49.3025L46.7013 61.2535L44.1001 60.4524L41.9707 58.4974L39.8412 56.5423H38.043C36.1311 56.5423 35.89 56.5036 35.7248 56.1702C35.5891 55.8965 35.603 55.7946 35.8084 55.5545C35.9875 55.3451 35.9948 55.3439 37.1987 55.3439C37.8643 55.3439 38.4088 55.3181 38.4088 55.2863C38.4088 55.2546 38.1853 55.021 37.9119 54.7671L37.4151 54.3054H36.735C36.1207 54.3054 36.0333 54.2856 35.8319 54.1004C35.652 53.935 35.6192 53.8462 35.6623 53.6411C35.6917 53.5012 35.7972 53.3245 35.8968 53.2484L36.078 53.1101L35.8966 52.8981C35.6891 52.6556 35.6758 52.5552 35.8141 52.276C35.936 52.03 36.2896 51.9047 36.5846 52.0028C36.7038 52.0425 38.5026 53.6375 40.5819 55.5472L44.3623 59.0195L45.5994 57.8801L46.8363 56.7408L41.3628 51.7087L35.8891 46.6767L34.6543 47.8121L33.4194 48.9474L34.1329 49.6194C34.9091 50.3507 34.9833 50.5287 34.6662 50.8994C34.4086 51.2007 34.0249 51.1836 33.6557 50.8546L33.3692 50.5993V57.3654V64.1316H43.0892C52.7911 64.1316 52.8096 64.1319 53.0381 64.2972C53.3251 64.5047 53.3521 64.9322 53.0933 65.1701C52.9214 65.3282 52.8037 65.3299 41.9279 65.3299H30.9362V67.3077C30.9362 68.3954 30.9743 69.4073 31.0208 69.5564C31.1605 70.0044 31.4765 70.3542 31.9308 70.5639L32.3606 70.7623H44.46H56.5593L56.3252 70.3029L56.091 69.8436L56.0644 67.5867L56.0377 65.3299H55.7385C55.0998 65.3299 54.8419 64.7049 55.3183 64.3113C55.5032 64.1586 55.6342 64.1316 56.1895 64.1316C56.7959 64.1316 56.8612 64.1484 57.097 64.3651L57.351 64.5986V67.0687C57.351 69.5003 57.3541 69.5443 57.5531 69.8909C57.6643 70.0846 57.9218 70.3508 58.1254 70.4827C58.448 70.6916 58.5706 70.7223 59.0809 70.7223C59.5704 70.7223 59.7239 70.6872 60.0185 70.508C60.2122 70.3901 60.4635 70.1565 60.5769 69.9887L60.7831 69.6838L60.8266 51.4295L60.87 33.1751L61.1045 32.7151L61.3391 32.2549L47.9264 32.2757L34.5137 32.2964L34.1369 32.5371ZM49.7567 34.4457C50.1777 34.617 50.2748 35.0483 49.9619 35.3569C49.787 35.5296 49.7501 35.5318 47.0945 35.5318C44.5201 35.5318 44.3968 35.5249 44.2305 35.372C44.0109 35.1702 44.0074 34.8066 44.2227 34.5621L44.3887 34.3734L46.938 34.3548C48.9446 34.3401 49.5447 34.3595 49.7567 34.4457ZM54.6891 36.736C54.8551 36.856 54.918 36.9751 54.918 37.1695C54.918 37.3639 54.8551 37.483 54.6891 37.6031C54.4615 37.7676 54.415 37.7687 47.0578 37.7687H39.6556L39.4666 37.5838C39.1994 37.3222 39.2171 36.9453 39.5067 36.736C39.7342 36.5714 39.7813 36.5704 47.0979 36.5704C54.4145 36.5704 54.4616 36.5714 54.6891 36.736ZM58.0964 39.9591C58.5163 40.1272 58.5844 40.3903 58.5523 41.7214C58.524 42.8955 58.5239 42.8957 58.2802 43.0883L58.0363 43.2809H47.0863H36.1363L35.8823 43.0474L35.6283 42.8139V41.6546C35.6283 41.017 35.6672 40.4013 35.7147 40.2865C35.9043 39.8279 35.4476 39.8455 47.1168 39.8489C55.876 39.8514 57.8776 39.8716 58.0964 39.9591ZM36.9492 41.5833L36.9234 42.0826H47.0937H57.2641V41.6166C57.2641 41.3603 57.2378 41.1264 57.2058 41.097C57.1737 41.0676 52.6087 41.0525 47.0613 41.0637L36.9751 41.084L36.9492 41.5833ZM28.4366 41.2476C28.0269 41.405 27.7481 41.6447 27.5391 42.0195C27.3351 42.3851 27.3225 43.0349 27.5127 43.3848C27.589 43.5254 28.3608 44.2964 29.2277 45.0983L30.8039 46.5561L31.9996 45.4588C32.6573 44.8553 33.1954 44.3238 33.1954 44.2776C33.1954 44.2314 32.5208 43.5771 31.6964 42.8236C30.1278 41.3899 29.727 41.1291 29.087 41.1257C28.9063 41.1248 28.6136 41.1796 28.4366 41.2476ZM32.9106 46.2989L31.7157 47.3995L32.1096 47.7549L32.5036 48.1104L33.7378 46.9756L34.9721 45.8408L34.6309 45.5195C34.4432 45.3428 34.2482 45.1982 34.1976 45.1982C34.1468 45.1982 33.5677 45.6935 32.9106 46.2989ZM57.0034 49.9915C57.2631 50.2303 57.2351 50.6569 56.946 50.866C56.7159 51.0325 56.6913 51.0331 50.5519 51.0116L44.3889 50.9901L44.2228 50.8015C44.0068 50.5563 44.0114 50.226 44.2339 50.0066L44.411 49.8317H50.6203C56.7138 49.8317 56.8328 49.8347 57.0034 49.9915ZM46.4925 58.7365C45.9939 59.1964 45.6047 59.5899 45.6274 59.6108C45.7075 59.6844 48.4012 60.5202 48.4012 60.4715C48.4012 60.3563 47.4887 57.9004 47.446 57.9004C47.4201 57.9004 46.991 58.2766 46.4925 58.7365Z" fill="#410EAD"/>
<defs>
<filter id="filter0_d_2144_2492" x="0.559944" y="0" width="91.8801" height="103" filterUnits="userSpaceOnUse" color-interpolation-filters="sRGB">
<feFlood flood-opacity="0" result="BackgroundImageFix"/>
<feColorMatrix in="SourceAlpha" type="matrix" values="0 0 0 0 0 0 0 0 0 0 0 0 0 0 0 0 0 0 127 0" result="hardAlpha"/>
<feOffset/>
<feGaussianBlur stdDeviation="5"/>
<feComposite in2="hardAlpha" operator="out"/>
<feColorMatrix type="matrix" values="0 0 0 0 0.596078 0 0 0 0 0.603922 0 0 0 0 0.976471 0 0 0 1 0"/>
<feBlend mode="normal" in2="BackgroundImageFix" result="effect1_dropShadow_2144_2492"/>
<feBlend mode="normal" in="SourceGraphic" in2="effect1_dropShadow_2144_2492" result="shape"/>
</filter>
</defs>
</svg>
