<svg width="236" height="83" viewBox="0 0 236 83" fill="none" xmlns="http://www.w3.org/2000/svg">
<g filter="url(#filter0_d_249_1851)">
<path d="M37.5 10L64.7798 25.75V57.25L37.5 73L10.2202 57.25V25.75L37.5 10Z" fill="white"/>
</g>
<path d="M89.69 28.5H93.5C94.8 28.5 95.765 28.805 96.395 29.415C97.025 30.015 97.34 30.95 97.34 32.22V35.28C97.34 36.55 97.025 37.49 96.395 38.1C95.765 38.7 94.8 39 93.5 39H89.69V37.095H90.68V30.39H89.69V28.5ZM93.5 37.11C94.19 37.11 94.67 36.95 94.94 36.63C95.22 36.3 95.36 35.79 95.36 35.1V32.22C95.36 31.62 95.22 31.165 94.94 30.855C94.67 30.545 94.19 30.39 93.5 30.39H92.66V37.11H93.5ZM101.02 35.895C101.03 36.115 101.08 36.32 101.17 36.51C101.27 36.69 101.4 36.85 101.56 36.99C101.73 37.12 101.92 37.225 102.13 37.305C102.35 37.375 102.58 37.41 102.82 37.41C103.29 37.41 103.65 37.33 103.9 37.17C104.15 37 104.33 36.8 104.44 36.57L106.06 37.47C105.97 37.66 105.845 37.86 105.685 38.07C105.525 38.27 105.315 38.455 105.055 38.625C104.805 38.795 104.495 38.935 104.125 39.045C103.765 39.155 103.34 39.21 102.85 39.21C102.29 39.21 101.78 39.12 101.32 38.94C100.86 38.76 100.46 38.5 100.12 38.16C99.7896 37.82 99.5296 37.405 99.3396 36.915C99.1596 36.425 99.0696 35.87 99.0696 35.25V35.16C99.0696 34.59 99.1646 34.07 99.3546 33.6C99.5546 33.13 99.8246 32.73 100.165 32.4C100.505 32.07 100.9 31.815 101.35 31.635C101.81 31.445 102.3 31.35 102.82 31.35C103.46 31.35 104.01 31.465 104.47 31.695C104.93 31.915 105.31 32.2 105.61 32.55C105.91 32.89 106.13 33.27 106.27 33.69C106.41 34.1 106.48 34.5 106.48 34.89V35.895H101.02ZM102.805 33.06C102.325 33.06 101.935 33.185 101.635 33.435C101.335 33.675 101.14 33.955 101.05 34.275H104.56C104.5 33.925 104.31 33.635 103.99 33.405C103.68 33.175 103.285 33.06 102.805 33.06ZM113.129 29.34C113.129 29.15 113.164 28.97 113.234 28.8C113.314 28.62 113.419 28.47 113.549 28.35C113.679 28.22 113.829 28.12 113.999 28.05C114.169 27.97 114.354 27.93 114.554 27.93C114.944 27.93 115.274 28.07 115.544 28.35C115.824 28.62 115.964 28.95 115.964 29.34C115.964 29.54 115.924 29.725 115.844 29.895C115.774 30.065 115.674 30.215 115.544 30.345C115.424 30.475 115.274 30.58 115.094 30.66C114.924 30.73 114.744 30.765 114.554 30.765C114.354 30.765 114.169 30.73 113.999 30.66C113.829 30.58 113.679 30.475 113.549 30.345C113.419 30.215 113.314 30.065 113.234 29.895C113.164 29.725 113.129 29.54 113.129 29.34ZM107.729 31.56H109.484V30.03C109.484 29.6 109.629 29.24 109.919 28.95C110.209 28.65 110.569 28.5 110.999 28.5H112.409V30.3H111.779C111.509 30.3 111.374 30.45 111.374 30.75V31.56H115.499V39H113.609V33.36H111.374V39H109.484V33.36H107.729V31.56ZM119.614 39H117.724V31.56H119.614V32.67H119.884C120.054 32.25 120.329 31.925 120.709 31.695C121.089 31.465 121.534 31.35 122.044 31.35C122.404 31.35 122.739 31.41 123.049 31.53C123.369 31.64 123.649 31.815 123.889 32.055C124.129 32.295 124.314 32.6 124.444 32.97C124.584 33.34 124.654 33.78 124.654 34.29V39H122.764V34.77C122.764 34.24 122.634 33.825 122.374 33.525C122.124 33.215 121.759 33.06 121.279 33.06C120.719 33.06 120.299 33.25 120.019 33.63C119.749 34 119.614 34.5 119.614 35.13V39ZM127.043 37.2H129.563V33.36H127.223V31.56H131.453V37.2H133.613V39H127.043V37.2ZM131.918 29.355C131.918 29.555 131.878 29.745 131.798 29.925C131.728 30.095 131.628 30.245 131.498 30.375C131.368 30.495 131.213 30.595 131.033 30.675C130.863 30.745 130.683 30.78 130.493 30.78C130.293 30.78 130.108 30.745 129.938 30.675C129.768 30.595 129.618 30.495 129.488 30.375C129.358 30.245 129.253 30.095 129.173 29.925C129.103 29.745 129.068 29.555 129.068 29.355C129.068 29.155 129.103 28.97 129.173 28.8C129.253 28.62 129.358 28.47 129.488 28.35C129.618 28.22 129.768 28.12 129.938 28.05C130.108 27.97 130.293 27.93 130.493 27.93C130.683 27.93 130.863 27.97 131.033 28.05C131.213 28.12 131.368 28.22 131.498 28.35C131.628 28.47 131.728 28.62 131.798 28.8C131.878 28.97 131.918 29.155 131.918 29.355ZM135.883 31.56H138.088V28.5H139.978V31.56H142.663V33.36H139.978V36.75C139.978 37.05 140.113 37.2 140.383 37.2H142.393V39H139.243C138.903 39 138.623 38.89 138.403 38.67C138.193 38.45 138.088 38.17 138.088 37.83V33.36H135.883V31.56ZM146.942 35.895C146.952 36.115 147.002 36.32 147.092 36.51C147.192 36.69 147.322 36.85 147.482 36.99C147.652 37.12 147.842 37.225 148.052 37.305C148.272 37.375 148.502 37.41 148.742 37.41C149.212 37.41 149.572 37.33 149.822 37.17C150.072 37 150.252 36.8 150.362 36.57L151.982 37.47C151.892 37.66 151.767 37.86 151.607 38.07C151.447 38.27 151.237 38.455 150.977 38.625C150.727 38.795 150.417 38.935 150.047 39.045C149.687 39.155 149.262 39.21 148.772 39.21C148.212 39.21 147.702 39.12 147.242 38.94C146.782 38.76 146.382 38.5 146.042 38.16C145.712 37.82 145.452 37.405 145.262 36.915C145.082 36.425 144.992 35.87 144.992 35.25V35.16C144.992 34.59 145.087 34.07 145.277 33.6C145.477 33.13 145.747 32.73 146.087 32.4C146.427 32.07 146.822 31.815 147.272 31.635C147.732 31.445 148.222 31.35 148.742 31.35C149.382 31.35 149.932 31.465 150.392 31.695C150.852 31.915 151.232 32.2 151.532 32.55C151.832 32.89 152.052 33.27 152.192 33.69C152.332 34.1 152.402 34.5 152.402 34.89V35.895H146.942ZM148.727 33.06C148.247 33.06 147.857 33.185 147.557 33.435C147.257 33.675 147.062 33.955 146.972 34.275H150.482C150.422 33.925 150.232 33.635 149.912 33.405C149.602 33.175 149.207 33.06 148.727 33.06ZM165.147 42H163.257V31.56H165.147V32.64H165.417C165.617 32.23 165.907 31.915 166.287 31.695C166.667 31.465 167.152 31.35 167.742 31.35C168.182 31.35 168.597 31.435 168.987 31.605C169.387 31.775 169.732 32.025 170.022 32.355C170.322 32.675 170.557 33.07 170.727 33.54C170.907 34.01 170.997 34.545 170.997 35.145V35.415C170.997 36.025 170.912 36.565 170.742 37.035C170.572 37.505 170.342 37.905 170.052 38.235C169.762 38.555 169.417 38.8 169.017 38.97C168.627 39.13 168.202 39.21 167.742 39.21C167.402 39.21 167.107 39.175 166.857 39.105C166.607 39.035 166.387 38.94 166.197 38.82C166.017 38.7 165.862 38.565 165.732 38.415C165.612 38.255 165.507 38.09 165.417 37.92H165.147V42ZM167.127 37.41C167.717 37.41 168.192 37.23 168.552 36.87C168.922 36.5 169.107 36 169.107 35.37V35.19C169.107 34.56 168.922 34.065 168.552 33.705C168.192 33.335 167.717 33.15 167.127 33.15C166.537 33.15 166.057 33.34 165.687 33.72C165.327 34.09 165.147 34.58 165.147 35.19V35.37C165.147 35.98 165.327 36.475 165.687 36.855C166.057 37.225 166.537 37.41 167.127 37.41ZM172.471 31.56H175.621V32.64H175.891C176.031 32.23 176.266 31.915 176.596 31.695C176.936 31.465 177.341 31.35 177.811 31.35C178.551 31.35 179.146 31.585 179.596 32.055C180.046 32.515 180.271 33.22 180.271 34.17V34.5L178.321 34.68V34.47C178.321 34.06 178.216 33.735 178.006 33.495C177.796 33.245 177.481 33.12 177.061 33.12C176.641 33.12 176.311 33.265 176.071 33.555C175.831 33.845 175.711 34.26 175.711 34.8V37.2H177.421V39H172.291V37.2H173.821V33.36H172.471V31.56ZM189.306 35.37C189.306 35.99 189.201 36.54 188.991 37.02C188.781 37.49 188.496 37.89 188.136 38.22C187.776 38.54 187.361 38.785 186.891 38.955C186.431 39.125 185.946 39.21 185.436 39.21C184.926 39.21 184.436 39.125 183.966 38.955C183.506 38.785 183.096 38.54 182.736 38.22C182.376 37.89 182.091 37.49 181.881 37.02C181.671 36.54 181.566 35.99 181.566 35.37V35.19C181.566 34.58 181.671 34.04 181.881 33.57C182.091 33.09 182.376 32.685 182.736 32.355C183.096 32.025 183.506 31.775 183.966 31.605C184.436 31.435 184.926 31.35 185.436 31.35C185.946 31.35 186.431 31.435 186.891 31.605C187.361 31.775 187.776 32.025 188.136 32.355C188.496 32.685 188.781 33.09 188.991 33.57C189.201 34.04 189.306 34.58 189.306 35.19V35.37ZM185.436 37.41C185.706 37.41 185.961 37.365 186.201 37.275C186.441 37.185 186.651 37.055 186.831 36.885C187.011 36.715 187.151 36.51 187.251 36.27C187.361 36.02 187.416 35.74 187.416 35.43V35.13C187.416 34.82 187.361 34.545 187.251 34.305C187.151 34.055 187.011 33.845 186.831 33.675C186.651 33.505 186.441 33.375 186.201 33.285C185.961 33.195 185.706 33.15 185.436 33.15C185.166 33.15 184.911 33.195 184.671 33.285C184.431 33.375 184.221 33.505 184.041 33.675C183.861 33.845 183.716 34.055 183.606 34.305C183.506 34.545 183.456 34.82 183.456 35.13V35.43C183.456 35.74 183.506 36.02 183.606 36.27C183.716 36.51 183.861 36.715 184.041 36.885C184.221 37.055 184.431 37.185 184.671 37.275C184.911 37.365 185.166 37.41 185.436 37.41ZM198.46 36.27C198.29 37.15 197.885 37.86 197.245 38.4C196.615 38.94 195.77 39.21 194.71 39.21C194.16 39.21 193.645 39.125 193.165 38.955C192.695 38.785 192.285 38.54 191.935 38.22C191.585 37.9 191.31 37.505 191.11 37.035C190.91 36.565 190.81 36.03 190.81 35.43V35.25C190.81 34.65 190.91 34.11 191.11 33.63C191.31 33.15 191.585 32.74 191.935 32.4C192.295 32.06 192.71 31.8 193.18 31.62C193.66 31.44 194.17 31.35 194.71 31.35C195.75 31.35 196.59 31.62 197.23 32.16C197.88 32.7 198.29 33.41 198.46 34.29L196.6 34.77C196.54 34.33 196.35 33.95 196.03 33.63C195.71 33.31 195.26 33.15 194.68 33.15C194.41 33.15 194.155 33.2 193.915 33.3C193.675 33.4 193.465 33.545 193.285 33.735C193.105 33.915 192.96 34.14 192.85 34.41C192.75 34.67 192.7 34.965 192.7 35.295V35.385C192.7 35.715 192.75 36.01 192.85 36.27C192.96 36.52 193.105 36.73 193.285 36.9C193.465 37.07 193.675 37.2 193.915 37.29C194.155 37.37 194.41 37.41 194.68 37.41C195.26 37.41 195.7 37.265 196 36.975C196.31 36.685 196.51 36.295 196.6 35.805L198.46 36.27ZM202.05 35.895C202.06 36.115 202.11 36.32 202.2 36.51C202.3 36.69 202.43 36.85 202.59 36.99C202.76 37.12 202.95 37.225 203.16 37.305C203.38 37.375 203.61 37.41 203.85 37.41C204.32 37.41 204.68 37.33 204.93 37.17C205.18 37 205.36 36.8 205.47 36.57L207.09 37.47C207 37.66 206.875 37.86 206.715 38.07C206.555 38.27 206.345 38.455 206.085 38.625C205.835 38.795 205.525 38.935 205.155 39.045C204.795 39.155 204.37 39.21 203.88 39.21C203.32 39.21 202.81 39.12 202.35 38.94C201.89 38.76 201.49 38.5 201.15 38.16C200.82 37.82 200.56 37.405 200.37 36.915C200.19 36.425 200.1 35.87 200.1 35.25V35.16C200.1 34.59 200.195 34.07 200.385 33.6C200.585 33.13 200.855 32.73 201.195 32.4C201.535 32.07 201.93 31.815 202.38 31.635C202.84 31.445 203.33 31.35 203.85 31.35C204.49 31.35 205.04 31.465 205.5 31.695C205.96 31.915 206.34 32.2 206.64 32.55C206.94 32.89 207.16 33.27 207.3 33.69C207.44 34.1 207.51 34.5 207.51 34.89V35.895H202.05ZM203.835 33.06C203.355 33.06 202.965 33.185 202.665 33.435C202.365 33.675 202.17 33.955 202.08 34.275H205.59C205.53 33.925 205.34 33.635 205.02 33.405C204.71 33.175 204.315 33.06 203.835 33.06ZM211.939 33.66C211.939 33.9 212.064 34.075 212.314 34.185C212.564 34.285 213.019 34.37 213.679 34.44C214.439 34.52 215.059 34.75 215.539 35.13C216.019 35.5 216.259 36.02 216.259 36.69V36.78C216.259 37.52 215.989 38.11 215.449 38.55C214.909 38.99 214.149 39.21 213.169 39.21C212.589 39.21 212.094 39.135 211.684 38.985C211.274 38.835 210.934 38.65 210.664 38.43C210.394 38.2 210.184 37.95 210.034 37.68C209.894 37.4 209.799 37.13 209.749 36.87L211.489 36.3C211.569 36.62 211.734 36.9 211.984 37.14C212.244 37.38 212.639 37.5 213.169 37.5C213.639 37.5 213.959 37.43 214.129 37.29C214.309 37.14 214.399 36.98 214.399 36.81C214.399 36.71 214.374 36.62 214.324 36.54C214.284 36.45 214.204 36.37 214.084 36.3C213.964 36.22 213.799 36.155 213.589 36.105C213.389 36.055 213.134 36.015 212.824 35.985C211.984 35.915 211.314 35.7 210.814 35.34C210.324 34.97 210.079 34.43 210.079 33.72V33.63C210.079 33.26 210.159 32.935 210.319 32.655C210.479 32.375 210.689 32.14 210.949 31.95C211.209 31.75 211.509 31.6 211.849 31.5C212.189 31.4 212.539 31.35 212.899 31.35C213.369 31.35 213.774 31.41 214.114 31.53C214.464 31.64 214.759 31.79 214.999 31.98C215.239 32.16 215.434 32.365 215.584 32.595C215.734 32.815 215.849 33.03 215.929 33.24L214.219 33.93C214.129 33.66 213.974 33.45 213.754 33.3C213.534 33.14 213.249 33.06 212.899 33.06C212.579 33.06 212.339 33.12 212.179 33.24C212.019 33.35 211.939 33.49 211.939 33.66ZM221.124 33.66C221.124 33.9 221.249 34.075 221.499 34.185C221.749 34.285 222.204 34.37 222.864 34.44C223.624 34.52 224.244 34.75 224.724 35.13C225.204 35.5 225.444 36.02 225.444 36.69V36.78C225.444 37.52 225.174 38.11 224.634 38.55C224.094 38.99 223.334 39.21 222.354 39.21C221.774 39.21 221.279 39.135 220.869 38.985C220.459 38.835 220.119 38.65 219.849 38.43C219.579 38.2 219.369 37.95 219.219 37.68C219.079 37.4 218.984 37.13 218.934 36.87L220.674 36.3C220.754 36.62 220.919 36.9 221.169 37.14C221.429 37.38 221.824 37.5 222.354 37.5C222.824 37.5 223.144 37.43 223.314 37.29C223.494 37.14 223.584 36.98 223.584 36.81C223.584 36.71 223.559 36.62 223.509 36.54C223.469 36.45 223.389 36.37 223.269 36.3C223.149 36.22 222.984 36.155 222.774 36.105C222.574 36.055 222.319 36.015 222.009 35.985C221.169 35.915 220.499 35.7 219.999 35.34C219.509 34.97 219.264 34.43 219.264 33.72V33.63C219.264 33.26 219.344 32.935 219.504 32.655C219.664 32.375 219.874 32.14 220.134 31.95C220.394 31.75 220.694 31.6 221.034 31.5C221.374 31.4 221.724 31.35 222.084 31.35C222.554 31.35 222.959 31.41 223.299 31.53C223.649 31.64 223.944 31.79 224.184 31.98C224.424 32.16 224.619 32.365 224.769 32.595C224.919 32.815 225.034 33.03 225.114 33.24L223.404 33.93C223.314 33.66 223.159 33.45 222.939 33.3C222.719 33.14 222.434 33.06 222.084 33.06C221.764 33.06 221.524 33.12 221.364 33.24C221.204 33.35 221.124 33.49 221.124 33.66ZM229.934 37.785C229.934 37.595 229.969 37.415 230.039 37.245C230.119 37.065 230.224 36.915 230.354 36.795C230.484 36.665 230.634 36.565 230.804 36.495C230.974 36.415 231.159 36.375 231.359 36.375C231.549 36.375 231.729 36.415 231.899 36.495C232.079 36.565 232.234 36.665 232.364 36.795C232.494 36.915 232.594 37.065 232.664 37.245C232.744 37.415 232.784 37.595 232.784 37.785V39.615C232.784 39.995 232.654 40.315 232.394 40.575C232.144 40.835 231.829 40.965 231.449 40.965H230.489V39.795H231.209C231.479 39.795 231.614 39.645 231.614 39.345V39.165C231.534 39.195 231.449 39.21 231.359 39.21C231.159 39.21 230.974 39.17 230.804 39.09C230.634 39.02 230.484 38.92 230.354 38.79C230.224 38.66 230.119 38.51 230.039 38.34C229.969 38.17 229.934 37.985 229.934 37.785Z" fill="#410EAD"/>
<path d="M92.9702 58.1477C92.2869 58.1477 91.6976 57.9969 91.2021 57.6953C90.7096 57.3906 90.3295 56.9659 90.0618 56.4212C89.7971 55.8733 89.6648 55.2363 89.6648 54.5099C89.6648 53.7836 89.7971 53.1435 90.0618 52.5895C90.3295 52.0324 90.7019 51.5985 91.179 51.2876C91.6591 50.9737 92.2192 50.8168 92.8594 50.8168C93.2287 50.8168 93.5934 50.8783 93.9535 51.0014C94.3136 51.1245 94.6413 51.3246 94.9368 51.6016C95.2322 51.8755 95.4677 52.2386 95.6431 52.6911C95.8185 53.1435 95.9062 53.7005 95.9062 54.3622V54.8239H90.4403V53.8821H94.7983C94.7983 53.482 94.7183 53.125 94.5582 52.8111C94.4013 52.4972 94.1766 52.2494 93.8842 52.0678C93.5949 51.8862 93.2533 51.7955 92.8594 51.7955C92.4254 51.7955 92.05 51.9032 91.733 52.1186C91.419 52.331 91.1774 52.608 91.0082 52.9496C90.8389 53.2912 90.7543 53.6574 90.7543 54.0483V54.6761C90.7543 55.2116 90.8466 55.6656 91.0312 56.038C91.219 56.4073 91.479 56.6889 91.8114 56.8828C92.1438 57.0736 92.5301 57.169 92.9702 57.169C93.2564 57.169 93.5149 57.129 93.7457 57.049C93.9796 56.9659 94.1812 56.8428 94.3505 56.6797C94.5198 56.5135 94.6506 56.3073 94.7429 56.0611L95.7955 56.3565C95.6847 56.7135 95.4985 57.0275 95.2369 57.2983C94.9753 57.5661 94.6521 57.7753 94.2674 57.9261C93.8827 58.0739 93.4503 58.1477 92.9702 58.1477ZM98.1856 50.9091L99.8845 53.8082L101.583 50.9091H102.839L100.549 54.4545L102.839 58H101.583L99.8845 55.2486L98.1856 58H96.93L99.1828 54.4545L96.93 50.9091H98.1856ZM107.477 50.9091V51.8324H103.803V50.9091H107.477ZM104.874 49.2102H105.963V55.9688C105.963 56.2765 106.008 56.5073 106.097 56.6612C106.189 56.812 106.306 56.9136 106.448 56.9659C106.593 57.0152 106.745 57.0398 106.905 57.0398C107.025 57.0398 107.124 57.0336 107.2 57.0213C107.277 57.0059 107.339 56.9936 107.385 56.9844L107.607 57.9631C107.533 57.9908 107.43 58.0185 107.297 58.0462C107.165 58.0769 106.997 58.0923 106.794 58.0923C106.486 58.0923 106.185 58.0262 105.889 57.8938C105.597 57.7615 105.354 57.5599 105.16 57.2891C104.969 57.0182 104.874 56.6766 104.874 56.2642V49.2102ZM109.116 58V50.9091H110.169V51.9801H110.243C110.372 51.6293 110.606 51.3446 110.944 51.1261C111.283 50.9076 111.665 50.7983 112.089 50.7983C112.169 50.7983 112.269 50.7998 112.389 50.8029C112.509 50.806 112.6 50.8106 112.662 50.8168V51.9247C112.625 51.9155 112.54 51.9016 112.408 51.8832C112.279 51.8616 112.142 51.8509 111.997 51.8509C111.652 51.8509 111.345 51.9232 111.074 52.0678C110.806 52.2094 110.594 52.4064 110.437 52.6587C110.283 52.908 110.206 53.1927 110.206 53.5128V58H109.116ZM116.04 58.1662C115.591 58.1662 115.183 58.0816 114.816 57.9123C114.45 57.7399 114.159 57.4922 113.944 57.169C113.729 56.8428 113.621 56.4489 113.621 55.9872C113.621 55.581 113.701 55.2517 113.861 54.9993C114.021 54.7438 114.235 54.5438 114.503 54.3991C114.77 54.2545 115.066 54.1468 115.389 54.076C115.715 54.0021 116.043 53.9437 116.372 53.9006C116.803 53.8452 117.152 53.8036 117.42 53.7759C117.691 53.7451 117.888 53.6944 118.011 53.6236C118.137 53.5528 118.2 53.4297 118.2 53.2543V53.2173C118.2 52.7618 118.076 52.4079 117.826 52.1555C117.58 51.9032 117.206 51.777 116.705 51.777C116.185 51.777 115.777 51.8909 115.481 52.1186C115.186 52.3464 114.978 52.5895 114.858 52.848L113.824 52.4787C114.009 52.0478 114.255 51.7124 114.563 51.4723C114.873 51.2292 115.212 51.0599 115.578 50.9645C115.948 50.866 116.311 50.8168 116.668 50.8168C116.895 50.8168 117.157 50.8445 117.453 50.8999C117.751 50.9522 118.039 51.0614 118.316 51.2276C118.596 51.3938 118.828 51.6446 119.013 51.9801C119.198 52.3156 119.29 52.7649 119.29 53.3281V58H118.2V57.0398H118.145C118.071 57.1937 117.948 57.3583 117.776 57.5337C117.603 57.7092 117.374 57.8584 117.088 57.9815C116.802 58.1046 116.452 58.1662 116.04 58.1662ZM116.206 57.1875C116.637 57.1875 117 57.1029 117.296 56.9336C117.594 56.7643 117.819 56.5458 117.97 56.2781C118.123 56.0103 118.2 55.7287 118.2 55.4332V54.4361C118.154 54.4915 118.053 54.5423 117.896 54.5884C117.742 54.6315 117.563 54.67 117.36 54.7038C117.16 54.7346 116.965 54.7623 116.774 54.7869C116.586 54.8085 116.434 54.8269 116.317 54.8423C116.034 54.8793 115.769 54.9393 115.523 55.0224C115.28 55.1024 115.083 55.224 114.932 55.3871C114.784 55.5471 114.71 55.7656 114.71 56.0426C114.71 56.4212 114.85 56.7074 115.13 56.9013C115.414 57.0921 115.772 57.1875 116.206 57.1875ZM124.159 58.1477C123.519 58.1477 122.957 57.9954 122.474 57.6907C121.994 57.386 121.618 56.9598 121.348 56.4119C121.08 55.8641 120.946 55.224 120.946 54.4915C120.946 53.7528 121.08 53.1081 121.348 52.5572C121.618 52.0063 121.994 51.5785 122.474 51.2738C122.957 50.9691 123.519 50.8168 124.159 50.8168C124.799 50.8168 125.359 50.9691 125.839 51.2738C126.323 51.5785 126.698 52.0063 126.966 52.5572C127.237 53.1081 127.372 53.7528 127.372 54.4915C127.372 55.224 127.237 55.8641 126.966 56.4119C126.698 56.9598 126.323 57.386 125.839 57.6907C125.359 57.9954 124.799 58.1477 124.159 58.1477ZM124.159 57.169C124.645 57.169 125.045 57.0444 125.359 56.7951C125.673 56.5458 125.906 56.218 126.056 55.8118C126.207 55.4055 126.283 54.9654 126.283 54.4915C126.283 54.0175 126.207 53.5759 126.056 53.1665C125.906 52.7572 125.673 52.4264 125.359 52.174C125.045 51.9216 124.645 51.7955 124.159 51.7955C123.673 51.7955 123.273 51.9216 122.959 52.174C122.645 52.4264 122.413 52.7572 122.262 53.1665C122.111 53.5759 122.036 54.0175 122.036 54.4915C122.036 54.9654 122.111 55.4055 122.262 55.8118C122.413 56.218 122.645 56.5458 122.959 56.7951C123.273 57.0444 123.673 57.169 124.159 57.169ZM129.035 58V50.9091H130.088V51.9801H130.162C130.291 51.6293 130.525 51.3446 130.863 51.1261C131.202 50.9076 131.584 50.7983 132.008 50.7983C132.088 50.7983 132.188 50.7998 132.308 50.8029C132.428 50.806 132.519 50.8106 132.581 50.8168V51.9247C132.544 51.9155 132.459 51.9016 132.327 51.8832C132.198 51.8616 132.061 51.8509 131.916 51.8509C131.571 51.8509 131.263 51.9232 130.993 52.0678C130.725 52.2094 130.513 52.4064 130.356 52.6587C130.202 52.908 130.125 53.1927 130.125 53.5128V58H129.035ZM136.334 58.1477C135.743 58.1477 135.221 57.9985 134.769 57.6999C134.316 57.3983 133.963 56.9736 133.707 56.4258C133.452 55.8749 133.324 55.224 133.324 54.473C133.324 53.7282 133.452 53.0819 133.707 52.5341C133.963 51.9863 134.318 51.5631 134.774 51.2646C135.229 50.966 135.755 50.8168 136.352 50.8168C136.814 50.8168 137.179 50.8937 137.446 51.0476C137.717 51.1984 137.924 51.3707 138.065 51.5646C138.21 51.7554 138.322 51.9124 138.402 52.0355H138.494V48.5455H139.584V58H138.531V56.9105H138.402C138.322 57.0398 138.208 57.2029 138.06 57.3999C137.913 57.5937 137.702 57.7676 137.428 57.9215C137.154 58.0723 136.789 58.1477 136.334 58.1477ZM136.482 57.169C136.919 57.169 137.288 57.0552 137.59 56.8274C137.891 56.5966 138.12 56.2781 138.277 55.8718C138.434 55.4625 138.513 54.9901 138.513 54.4545C138.513 53.9252 138.436 53.462 138.282 53.065C138.128 52.6649 137.9 52.354 137.599 52.1325C137.297 51.9078 136.925 51.7955 136.482 51.7955C136.02 51.7955 135.635 51.9139 135.328 52.1509C135.023 52.3848 134.794 52.7034 134.64 53.1065C134.489 53.5066 134.413 53.956 134.413 54.4545C134.413 54.9593 134.49 55.4179 134.644 55.8303C134.801 56.2396 135.032 56.5658 135.337 56.8089C135.645 57.049 136.026 57.169 136.482 57.169ZM141.731 58V50.9091H142.82V58H141.731ZM142.285 49.7273C142.072 49.7273 141.889 49.6549 141.735 49.5103C141.584 49.3656 141.509 49.1918 141.509 48.9886C141.509 48.7855 141.584 48.6116 141.735 48.467C141.889 48.3223 142.072 48.25 142.285 48.25C142.497 48.25 142.678 48.3223 142.829 48.467C142.983 48.6116 143.06 48.7855 143.06 48.9886C143.06 49.1918 142.983 49.3656 142.829 49.5103C142.678 49.6549 142.497 49.7273 142.285 49.7273ZM145.905 53.7344V58H144.816V50.9091H145.868V52.017H145.96C146.127 51.657 146.379 51.3677 146.718 51.1491C147.056 50.9276 147.493 50.8168 148.029 50.8168C148.509 50.8168 148.929 50.9152 149.289 51.1122C149.649 51.3061 149.929 51.6016 150.129 51.9986C150.329 52.3925 150.429 52.8911 150.429 53.4943V58H149.34V53.5682C149.34 53.0111 149.195 52.5772 148.906 52.2663C148.616 51.9524 148.219 51.7955 147.715 51.7955C147.367 51.7955 147.056 51.8709 146.782 52.0217C146.511 52.1725 146.297 52.3925 146.14 52.6818C145.983 52.9711 145.905 53.322 145.905 53.7344ZM154.507 58.1662C154.057 58.1662 153.65 58.0816 153.283 57.9123C152.917 57.7399 152.626 57.4922 152.411 57.169C152.195 56.8428 152.088 56.4489 152.088 55.9872C152.088 55.581 152.168 55.2517 152.328 54.9993C152.488 54.7438 152.702 54.5438 152.969 54.3991C153.237 54.2545 153.533 54.1468 153.856 54.076C154.182 54.0021 154.51 53.9437 154.839 53.9006C155.27 53.8452 155.619 53.8036 155.887 53.7759C156.158 53.7451 156.355 53.6944 156.478 53.6236C156.604 53.5528 156.667 53.4297 156.667 53.2543V53.2173C156.667 52.7618 156.543 52.4079 156.293 52.1555C156.047 51.9032 155.673 51.777 155.171 51.777C154.651 51.777 154.244 51.8909 153.948 52.1186C153.653 52.3464 153.445 52.5895 153.325 52.848L152.291 52.4787C152.475 52.0478 152.722 51.7124 153.029 51.4723C153.34 51.2292 153.679 51.0599 154.045 50.9645C154.414 50.866 154.777 50.8168 155.134 50.8168C155.362 50.8168 155.624 50.8445 155.919 50.8999C156.218 50.9522 156.506 51.0614 156.783 51.2276C157.063 51.3938 157.295 51.6446 157.48 51.9801C157.664 52.3156 157.757 52.7649 157.757 53.3281V58H156.667V57.0398H156.612C156.538 57.1937 156.415 57.3583 156.242 57.5337C156.07 57.7092 155.841 57.8584 155.555 57.9815C155.268 58.1046 154.919 58.1662 154.507 58.1662ZM154.673 57.1875C155.104 57.1875 155.467 57.1029 155.762 56.9336C156.061 56.7643 156.286 56.5458 156.436 56.2781C156.59 56.0103 156.667 55.7287 156.667 55.4332V54.4361C156.621 54.4915 156.519 54.5423 156.362 54.5884C156.209 54.6315 156.03 54.67 155.827 54.7038C155.627 54.7346 155.431 54.7623 155.241 54.7869C155.053 54.8085 154.901 54.8269 154.784 54.8423C154.501 54.8793 154.236 54.9393 153.99 55.0224C153.746 55.1024 153.55 55.224 153.399 55.3871C153.251 55.5471 153.177 55.7656 153.177 56.0426C153.177 56.4212 153.317 56.7074 153.597 56.9013C153.88 57.0921 154.239 57.1875 154.673 57.1875ZM159.745 58V50.9091H160.798V51.9801H160.872C161.001 51.6293 161.235 51.3446 161.573 51.1261C161.912 50.9076 162.294 50.7983 162.718 50.7983C162.798 50.7983 162.898 50.7998 163.018 50.8029C163.138 50.806 163.229 50.8106 163.291 50.8168V51.9247C163.254 51.9155 163.169 51.9016 163.037 51.8832C162.907 51.8616 162.771 51.8509 162.626 51.8509C162.281 51.8509 161.973 51.9232 161.703 52.0678C161.435 52.2094 161.222 52.4064 161.066 52.6587C160.912 52.908 160.835 53.1927 160.835 53.5128V58H159.745ZM165.5 60.6591C165.315 60.6591 165.15 60.6437 165.006 60.6129C164.861 60.5852 164.761 60.5575 164.706 60.5298L164.983 59.5696C165.247 59.6373 165.481 59.6619 165.684 59.6435C165.887 59.625 166.067 59.5342 166.224 59.3711C166.384 59.2111 166.531 58.951 166.663 58.5909L166.866 58.0369L164.244 50.9091H165.426L167.383 56.5597H167.457L169.414 50.9091H170.596L167.586 59.0341C167.451 59.4003 167.283 59.7035 167.083 59.9435C166.883 60.1867 166.651 60.3667 166.386 60.4837C166.124 60.6006 165.829 60.6591 165.5 60.6591ZM175.691 58V50.9091H176.743V51.9801H176.817C176.946 51.6293 177.18 51.3446 177.519 51.1261C177.857 50.9076 178.239 50.7983 178.664 50.7983C178.744 50.7983 178.844 50.7998 178.964 50.8029C179.084 50.806 179.174 50.8106 179.236 50.8168V51.9247C179.199 51.9155 179.114 51.9016 178.982 51.8832C178.853 51.8616 178.716 51.8509 178.571 51.8509C178.227 51.8509 177.919 51.9232 177.648 52.0678C177.38 52.2094 177.168 52.4064 177.011 52.6587C176.857 52.908 176.78 53.1927 176.78 53.5128V58H175.691ZM183.285 58.1477C182.601 58.1477 182.012 57.9969 181.517 57.6953C181.024 57.3906 180.644 56.9659 180.376 56.4212C180.112 55.8733 179.979 55.2363 179.979 54.5099C179.979 53.7836 180.112 53.1435 180.376 52.5895C180.644 52.0324 181.016 51.5985 181.493 51.2876C181.974 50.9737 182.534 50.8168 183.174 50.8168C183.543 50.8168 183.908 50.8783 184.268 51.0014C184.628 51.1245 184.956 51.3246 185.251 51.6016C185.547 51.8755 185.782 52.2386 185.958 52.6911C186.133 53.1435 186.221 53.7005 186.221 54.3622V54.8239H180.755V53.8821H185.113C185.113 53.482 185.033 53.125 184.873 52.8111C184.716 52.4972 184.491 52.2494 184.199 52.0678C183.909 51.8862 183.568 51.7955 183.174 51.7955C182.74 51.7955 182.364 51.9032 182.047 52.1186C181.733 52.331 181.492 52.608 181.323 52.9496C181.153 53.2912 181.069 53.6574 181.069 54.0483V54.6761C181.069 55.2116 181.161 55.6656 181.346 56.038C181.533 56.4073 181.794 56.6889 182.126 56.8828C182.458 57.0736 182.845 57.169 183.285 57.169C183.571 57.169 183.829 57.129 184.06 57.049C184.294 56.9659 184.496 56.8428 184.665 56.6797C184.834 56.5135 184.965 56.3073 185.057 56.0611L186.11 56.3565C185.999 56.7135 185.813 57.0275 185.551 57.2983C185.29 57.5661 184.967 57.7753 184.582 57.9261C184.197 58.0739 183.765 58.1477 183.285 58.1477ZM192.901 52.4972L191.922 52.7741C191.86 52.611 191.77 52.4525 191.65 52.2987C191.533 52.1417 191.373 52.0124 191.17 51.9109C190.966 51.8093 190.706 51.7585 190.389 51.7585C189.955 51.7585 189.594 51.8585 189.305 52.0586C189.018 52.2556 188.875 52.5064 188.875 52.8111C188.875 53.0819 188.974 53.2958 189.171 53.4528C189.368 53.6097 189.675 53.7405 190.094 53.8452L191.146 54.1037C191.78 54.2576 192.253 54.493 192.564 54.81C192.875 55.1239 193.03 55.5286 193.03 56.0241C193.03 56.4304 192.913 56.7936 192.679 57.1136C192.448 57.4337 192.125 57.6861 191.71 57.8707C191.294 58.0554 190.811 58.1477 190.26 58.1477C189.537 58.1477 188.938 57.9908 188.464 57.6768C187.99 57.3629 187.69 56.9044 187.564 56.3011L188.598 56.0426C188.697 56.4242 188.883 56.7105 189.157 56.9013C189.434 57.0921 189.795 57.1875 190.242 57.1875C190.749 57.1875 191.153 57.0798 191.451 56.8643C191.753 56.6458 191.904 56.3842 191.904 56.0795C191.904 55.8333 191.817 55.6271 191.645 55.4609C191.473 55.2917 191.208 55.1655 190.851 55.0824L189.669 54.8054C189.02 54.6515 188.543 54.413 188.238 54.0898C187.936 53.7636 187.786 53.3558 187.786 52.8665C187.786 52.4664 187.898 52.1125 188.123 51.8047C188.35 51.4969 188.66 51.2553 189.051 51.0799C189.445 50.9045 189.891 50.8168 190.389 50.8168C191.091 50.8168 191.642 50.9706 192.042 51.2784C192.445 51.5862 192.731 51.9924 192.901 52.4972ZM199.139 55.1009V50.9091H200.228V58H199.139V56.7997H199.065C198.899 57.1598 198.64 57.466 198.289 57.7184C197.938 57.9677 197.495 58.0923 196.96 58.0923C196.517 58.0923 196.123 57.9954 195.778 57.8015C195.433 57.6045 195.162 57.3091 194.965 56.9151C194.768 56.5181 194.67 56.018 194.67 55.4148V50.9091H195.759V55.3409C195.759 55.858 195.904 56.2704 196.193 56.5781C196.486 56.8859 196.858 57.0398 197.311 57.0398C197.581 57.0398 197.857 56.9705 198.137 56.832C198.42 56.6935 198.657 56.4812 198.848 56.195C199.042 55.9087 199.139 55.544 199.139 55.1009ZM203.313 48.5455V58H202.224V48.5455H203.313ZM208.392 50.9091V51.8324H204.718V50.9091H208.392ZM205.789 49.2102H206.878V55.9688C206.878 56.2765 206.923 56.5073 207.012 56.6612C207.104 56.812 207.221 56.9136 207.363 56.9659C207.508 57.0152 207.66 57.0398 207.82 57.0398C207.94 57.0398 208.039 57.0336 208.116 57.0213C208.192 57.0059 208.254 56.9936 208.3 56.9844L208.522 57.9631C208.448 57.9908 208.345 58.0185 208.212 58.0462C208.08 58.0769 207.912 58.0923 207.709 58.0923C207.401 58.0923 207.1 58.0262 206.804 57.8938C206.512 57.7615 206.269 57.5599 206.075 57.2891C205.884 57.0182 205.789 56.6766 205.789 56.2642V49.2102ZM214.927 52.4972L213.948 52.7741C213.887 52.611 213.796 52.4525 213.676 52.2987C213.559 52.1417 213.399 52.0124 213.196 51.9109C212.993 51.8093 212.733 51.7585 212.416 51.7585C211.982 51.7585 211.62 51.8585 211.331 52.0586C211.045 52.2556 210.902 52.5064 210.902 52.8111C210.902 53.0819 211 53.2958 211.197 53.4528C211.394 53.6097 211.702 53.7405 212.12 53.8452L213.173 54.1037C213.807 54.2576 214.279 54.493 214.59 54.81C214.901 55.1239 215.056 55.5286 215.056 56.0241C215.056 56.4304 214.939 56.7936 214.706 57.1136C214.475 57.4337 214.152 57.6861 213.736 57.8707C213.321 58.0554 212.837 58.1477 212.286 58.1477C211.563 58.1477 210.965 57.9908 210.491 57.6768C210.017 57.3629 209.717 56.9044 209.59 56.3011L210.625 56.0426C210.723 56.4242 210.909 56.7105 211.183 56.9013C211.46 57.0921 211.822 57.1875 212.268 57.1875C212.776 57.1875 213.179 57.0798 213.478 56.8643C213.779 56.6458 213.93 56.3842 213.93 56.0795C213.93 55.8333 213.844 55.6271 213.671 55.4609C213.499 55.2917 213.234 55.1655 212.877 55.0824L211.696 54.8054C211.046 54.6515 210.569 54.413 210.264 54.0898C209.963 53.7636 209.812 53.3558 209.812 52.8665C209.812 52.4664 209.924 52.1125 210.149 51.8047C210.377 51.4969 210.686 51.2553 211.077 51.0799C211.471 50.9045 211.917 50.8168 212.416 50.8168C213.117 50.8168 213.668 50.9706 214.068 51.2784C214.472 51.5862 214.758 51.9924 214.927 52.4972Z" fill="#59587B"/>
<path fill-rule="evenodd" clip-rule="evenodd" d="M51.3234 26.0715C51.9736 26.2591 52.546 26.7107 52.8172 27.2499C52.9452 27.5045 52.96 27.6529 52.9791 28.8717L53 30.2133L52.8218 30.3421C52.6191 30.4888 52.5358 30.4988 52.3089 30.4037C52.0383 30.2904 52.0018 30.1142 52.0018 28.9195C52.0018 27.9365 51.9863 27.7704 51.8763 27.5732C51.5201 26.9347 50.7844 26.7251 50.0825 27.0622C49.7979 27.1989 49.696 27.2927 49.5473 27.5543L49.3637 27.8775V31.9636V36.0497H50.6802H51.9968L52.0158 33.9826L52.0348 31.9155L52.1905 31.7997C52.3924 31.6494 52.6925 31.6518 52.8592 31.8051C52.9865 31.9222 52.9911 32.0072 52.9911 34.2807V36.6349L52.821 36.782C52.6517 36.9283 52.6436 36.929 51.0082 36.9471L49.3653 36.9652L49.348 46.1943L49.3307 55.4234L49.1569 55.7642C48.9124 56.2435 48.5637 56.5723 48.0554 56.8023L47.6187 57H37.0318H26.445L26.1264 56.8648C25.679 56.675 25.3373 56.4106 25.1056 56.0751C24.7282 55.5288 24.6972 55.3172 24.6972 53.2855V51.4423L24.89 51.2651C25.0799 51.0905 25.0938 51.0878 25.8134 51.0878H26.5439V45.4978V39.9078L24.4093 37.9333C22.4195 36.0928 22.2646 35.9341 22.1275 35.5949C21.9415 35.1349 21.9613 34.4144 22.172 33.9806C22.5671 33.167 23.5224 32.6529 24.4855 32.7356C25.0717 32.7859 25.5211 32.9944 26.0701 33.4705L26.5394 33.8776L26.5582 30.7038L26.5769 27.5301L26.7315 27.2442C26.9784 26.7874 27.3615 26.4339 27.8485 26.2135L28.2888 26.0142L39.6672 26.0027C48.9463 25.9934 51.0967 26.0061 51.3234 26.0715ZM28.116 27.1065C27.9488 27.2133 27.7683 27.4013 27.6816 27.5589L27.5332 27.8287V31.3183V34.808L28.6379 35.822L29.7426 36.836L36.2156 36.8522C42.4752 36.8678 42.6932 36.8721 42.8274 36.9838C42.9977 37.1255 43.0137 37.4775 42.8571 37.6367C42.7529 37.7425 42.4782 37.7476 36.7894 37.7476C33.5122 37.7476 30.8309 37.7689 30.8309 37.7949C30.8309 37.821 31.0024 37.9984 31.212 38.1891L31.5932 38.5359H38.425C45.2367 38.5359 45.2573 38.5362 45.4306 38.6616C45.6483 38.819 45.6689 39.1436 45.4724 39.3241C45.3424 39.4437 45.2526 39.4454 38.96 39.4454H32.5796L34.3594 41.0826L36.1392 42.7198H39.3789C42.5566 42.7198 42.622 42.7223 42.7924 42.8455C43.0102 43.003 43.0307 43.3276 42.8343 43.5081C42.7066 43.6256 42.6145 43.6294 39.9178 43.6294H37.1332L37.5581 44.0236L37.983 44.4177H41.6617C45.2526 44.4177 45.3437 44.4206 45.4724 44.539C45.6689 44.7196 45.6483 45.0441 45.4306 45.2016C45.2603 45.3248 45.1938 45.3273 42.0999 45.3273C40.3637 45.3273 38.9431 45.3453 38.9431 45.3674C38.9431 45.3895 38.9928 45.5525 39.0535 45.7295L39.1638 46.0515L42.2454 46.0684C45.1688 46.0844 45.3339 46.0912 45.4656 46.2007C45.6467 46.3515 45.6502 46.6798 45.4724 46.8432C45.3446 46.9608 45.2526 46.9645 42.4342 46.9645C39.6962 46.9645 39.5299 46.9706 39.5644 47.0706C39.5846 47.129 39.7153 47.4905 39.855 47.874L40.1088 48.5714L41.444 48.6017C42.6683 48.6295 42.787 48.6418 42.8728 48.7497C43.028 48.9453 42.9906 49.2423 42.7924 49.3856C42.6282 49.5043 42.5363 49.5113 41.123 49.5113H39.6272L37.6528 48.9032L35.6784 48.2952L34.0621 46.8112L32.4457 45.3273H31.0808C29.6296 45.3273 29.4467 45.2979 29.3212 45.0449C29.2183 44.8371 29.2287 44.7598 29.3847 44.5775C29.5207 44.4185 29.5262 44.4177 30.44 44.4177C30.9452 44.4177 31.3585 44.3981 31.3585 44.374C31.3585 44.3499 31.1888 44.1725 30.9813 43.9798L30.6042 43.6294H30.088C29.6218 43.6294 29.5554 43.6144 29.4025 43.4738C29.266 43.3483 29.2411 43.2809 29.2738 43.1251C29.2961 43.019 29.3762 42.8848 29.4518 42.8271L29.5893 42.7222L29.4516 42.5612C29.2941 42.3771 29.284 42.3009 29.389 42.089C29.4815 41.9023 29.7499 41.8072 29.9738 41.8817C30.0643 41.9118 31.4297 43.1224 33.0079 44.572L35.8774 47.2076L36.8164 46.3428L37.7553 45.4779L33.6006 41.6584L29.4459 37.8389L28.5087 38.7007L27.5713 39.5625L28.1129 40.0726C28.7021 40.6276 28.7584 40.7628 28.5177 41.0441C28.3222 41.2728 28.031 41.2599 27.7507 41.0101L27.5332 40.8163V45.9521V51.0878H34.9111C42.2752 51.0878 42.2892 51.0881 42.4627 51.2135C42.6805 51.371 42.701 51.6955 42.5046 51.8761C42.374 51.9961 42.2847 51.9974 34.0296 51.9974H25.6865V53.4986C25.6865 54.3242 25.7154 55.0923 25.7507 55.2054C25.8568 55.5455 26.0966 55.811 26.4414 55.9702L26.7677 56.1208H35.9515H45.1354L44.9577 55.7721L44.7799 55.4234L44.7597 53.7104L44.7394 51.9974H44.5124C44.0276 51.9974 43.8318 51.523 44.1934 51.2243C44.3338 51.1083 44.4332 51.0878 44.8547 51.0878C45.315 51.0878 45.3646 51.1006 45.5435 51.2651L45.7363 51.4423V53.3172C45.7363 55.1629 45.7386 55.1963 45.8897 55.4594C45.9741 55.6064 46.1696 55.8085 46.3241 55.9085C46.569 56.0671 46.662 56.0904 47.0493 56.0904C47.4209 56.0904 47.5374 56.0638 47.761 55.9277C47.908 55.8383 48.0988 55.6609 48.1849 55.5336L48.3414 55.3021L48.3744 41.4465L48.4074 27.5908L48.5854 27.2416L48.7634 26.8923L38.5827 26.908L28.402 26.9238L28.116 27.1065ZM39.972 28.5552C40.2915 28.6852 40.3652 29.0125 40.1277 29.2468C39.9949 29.3779 39.967 29.3796 37.9512 29.3796C35.9972 29.3796 35.9036 29.3744 35.7774 29.2583C35.6107 29.1051 35.6081 28.8291 35.7714 28.6435L35.8975 28.5003L37.8325 28.4862C39.3555 28.475 39.811 28.4898 39.972 28.5552ZM43.7158 30.2936C43.8418 30.3847 43.8896 30.4751 43.8896 30.6226C43.8896 30.7702 43.8418 30.8606 43.7158 30.9517C43.5431 31.0766 43.5078 31.0774 37.9234 31.0774H32.3049L32.1614 30.9371C31.9585 30.7385 31.972 30.4525 32.1918 30.2936C32.3645 30.1687 32.4002 30.1679 37.9538 30.1679C43.5074 30.1679 43.5431 30.1687 43.7158 30.2936ZM46.3021 32.7401C46.6208 32.8676 46.6725 33.0673 46.6481 34.0777C46.6266 34.9688 46.6266 34.969 46.4416 35.1152L46.2565 35.2614H37.945H29.6336L29.4408 35.0842L29.248 34.9069V34.027C29.248 33.543 29.2775 33.0757 29.3136 32.9885C29.4575 32.6405 29.1108 32.6538 37.9682 32.6564C44.6167 32.6583 46.136 32.6736 46.3021 32.7401ZM30.2506 33.9729L30.231 34.3519H37.9506H45.6703V33.9982C45.6703 33.8036 45.6504 33.6261 45.6261 33.6038C45.6017 33.5814 42.1367 33.57 37.926 33.5785L30.2703 33.5939L30.2506 33.9729ZM23.7892 33.7181C23.4782 33.8375 23.2666 34.0195 23.108 34.304C22.9532 34.5814 22.9436 35.0747 23.0879 35.3403C23.1459 35.447 23.7317 36.0322 24.3897 36.6409L25.5861 37.7474L26.4937 36.9145C26.9929 36.4565 27.4013 36.053 27.4013 36.0179C27.4013 35.9829 26.8893 35.4862 26.2635 34.9143C25.0729 33.8261 24.7687 33.6281 24.2829 33.6255C24.1457 33.6248 23.9235 33.6664 23.7892 33.7181ZM27.1851 37.5522L26.2782 38.3876L26.5772 38.6574L26.8762 38.9271L27.8131 38.0658L28.7499 37.2044L28.4909 36.9606C28.3485 36.8265 28.2005 36.7167 28.162 36.7167C28.1235 36.7167 27.6839 37.0927 27.1851 37.5522ZM45.4724 40.355C45.6696 40.5362 45.6483 40.8601 45.4289 41.0188C45.2542 41.1451 45.2355 41.1456 40.5756 41.1293L35.8976 41.1129L35.7715 40.9698C35.6076 40.7837 35.6111 40.533 35.7799 40.3664L35.9144 40.2337H40.6275C45.2526 40.2337 45.343 40.2359 45.4724 40.355ZM37.4943 46.9928C37.1159 47.3419 36.8204 47.6405 36.8377 47.6564C36.8984 47.7123 38.9431 48.3467 38.9431 48.3097C38.9431 48.2222 38.2505 46.3581 38.218 46.3581C38.1984 46.3581 37.8727 46.6437 37.4943 46.9928Z" fill="#410EAD"/>
<defs>
<filter id="filter0_d_249_1851" x="0.2202" y="0" width="74.5596" height="83" filterUnits="userSpaceOnUse" color-interpolation-filters="sRGB">
<feFlood flood-opacity="0" result="BackgroundImageFix"/>
<feColorMatrix in="SourceAlpha" type="matrix" values="0 0 0 0 0 0 0 0 0 0 0 0 0 0 0 0 0 0 127 0" result="hardAlpha"/>
<feOffset/>
<feGaussianBlur stdDeviation="5"/>
<feComposite in2="hardAlpha" operator="out"/>
<feColorMatrix type="matrix" values="0 0 0 0 0.596078 0 0 0 0 0.603922 0 0 0 0 0.976471 0 0 0 1 0"/>
<feBlend mode="normal" in2="BackgroundImageFix" result="effect1_dropShadow_249_1851"/>
<feBlend mode="normal" in="SourceGraphic" in2="effect1_dropShadow_249_1851" result="shape"/>
</filter>
</defs>
</svg>
