<svg width="57" height="33" viewBox="0 0 57 33" fill="none" xmlns="http://www.w3.org/2000/svg">
<g opacity="0.7">
<path d="M47.7305 13.1318H39.4531C39.6279 13.2 39.7866 13.3092 39.918 13.4515C40.0485 13.5932 40.158 13.7559 40.243 13.9335C40.3293 14.1136 40.3944 14.3046 40.4376 14.5023C40.4697 14.6468 40.49 14.7945 40.4987 14.9429V20.0113C40.4649 20.3698 40.3589 20.7157 40.1879 21.0246C40.0987 21.1863 39.9914 21.3355 39.8684 21.4686C39.7463 21.6014 39.6063 21.7129 39.4531 21.7996H44.3617C44.1689 21.7498 43.9903 21.6494 43.8417 21.5074C43.7037 21.3729 43.5888 21.2135 43.5021 21.0359C43.4135 20.8539 43.3512 20.6581 43.3174 20.4558C43.2806 20.2489 43.2618 20.0383 43.2618 19.8274V17.8778C43.5419 17.8778 43.8051 17.8866 44.0515 17.9044C44.2805 17.9183 44.5055 17.9752 44.7162 18.0725C44.9166 18.1695 45.0916 18.3182 45.2261 18.506C45.3896 18.7509 45.5008 19.0321 45.5515 19.3292V15.3641C45.4475 15.6409 45.3095 15.9015 45.1411 16.1382C45.0135 16.3125 44.8512 16.4532 44.6662 16.5503C44.4758 16.644 44.2708 16.6993 44.0618 16.7131C43.8349 16.7306 43.5682 16.7394 43.2618 16.7397V14.3566L44.7617 14.3667C44.9945 14.3667 45.236 14.3774 45.4861 14.3991C45.7323 14.4203 45.9766 14.464 46.2161 14.5297C46.4522 14.5946 46.6802 14.6889 46.8961 14.8109C47.1112 14.933 47.3029 15.0985 47.4607 15.2987C47.5193 15.3717 47.5728 15.4496 47.6207 15.5315C47.6702 15.6132 47.7072 15.7028 47.7305 15.797V13.1318Z" fill="#2D2D2D"/>
<path d="M48.52 13.1318V16.4147C48.5632 16.072 48.6908 15.7478 48.8898 15.477C49.0808 15.2227 49.3173 15.0128 49.5848 14.8599C49.8603 14.7027 50.1573 14.5946 50.4648 14.5402C50.7731 14.483 51.0872 14.4685 51.3991 14.497V20.1216C51.3865 20.2648 51.3596 20.4058 51.319 20.5427C51.2609 20.7412 51.1729 20.9278 51.059 21.0952C50.9456 21.2616 50.8094 21.4078 50.6547 21.5288C50.4959 21.6525 50.3179 21.7443 50.1292 21.7996H55.378C55.1683 21.7608 54.9697 21.6701 54.798 21.5341C54.6324 21.4021 54.4903 21.2388 54.3782 21.0521C54.2643 20.8635 54.1784 20.6568 54.123 20.4396C54.0667 20.2227 54.038 19.9984 54.038 19.7733V14.497H54.298C54.5159 14.5025 54.7331 14.5259 54.9479 14.5672C55.2233 14.6175 55.492 14.7049 55.7476 14.8272C56.0238 14.9616 56.2719 15.1552 56.4771 15.396C56.7079 15.6723 56.8607 16.0147 56.9169 16.3823V13.1318H48.52Z" fill="#2D2D2D"/>
<path d="M34.5148 21.3556C34.3882 21.4807 34.2449 21.5849 34.0901 21.6643C33.9501 21.7331 33.8599 21.7781 33.8198 21.7998H39.4685C39.3756 21.7784 39.2861 21.7419 39.2031 21.6918C39.1222 21.6423 39.0438 21.5879 38.9685 21.5291C38.7682 21.3759 38.5867 21.1956 38.4285 20.9927C38.2799 20.7978 38.1493 20.5873 38.0387 20.3646C37.9212 20.1271 37.8195 19.8808 37.734 19.6276L37.3237 18.3067L36.7692 16.5233L35.6995 13.1318H31.0107C31.1591 13.1717 31.3018 13.2322 31.4361 13.3112C31.5557 13.3881 31.6651 13.4827 31.7607 13.5924C31.8726 13.7218 31.952 13.8807 31.9905 14.0534C32.0237 14.2101 32.0237 14.3731 31.9905 14.5298C31.9593 14.6886 31.9159 14.8446 31.8609 14.9955C31.7274 15.3715 31.6258 15.6695 31.5555 15.8895C31.5345 15.9563 31.5121 16.0181 31.488 16.0796L30.6409 18.4518C30.5944 18.5893 30.5247 18.7916 30.4308 19.0588C30.3375 19.326 30.2327 19.6042 30.1161 19.8931C29.9994 20.182 29.8761 20.4531 29.7463 20.7058C29.6522 20.9062 29.5289 21.0892 29.3813 21.2473C29.2692 21.3476 29.1522 21.4416 29.0312 21.5291C28.9118 21.6154 28.8164 21.6805 28.7467 21.7237C28.7071 21.7466 28.6688 21.7721 28.6317 21.7998H32.8504C32.5511 21.732 32.2837 21.5513 32.0955 21.2904C31.9146 21.0229 31.815 20.7013 31.8107 20.3698C31.815 20.267 31.8302 20.1653 31.8561 20.0663C31.8855 19.9363 31.9225 19.8049 31.9659 19.6708C32.0088 19.5371 32.0537 19.409 32.1008 19.2862C32.1467 19.1632 32.1807 19.069 32.2005 19.0043H34.5698C34.5896 19.0626 34.6162 19.1438 34.65 19.2484C34.6832 19.353 34.718 19.4596 34.7547 19.5682C34.7912 19.6765 34.825 19.7813 34.8552 19.8824C34.8846 19.9833 34.9064 20.0592 34.9196 20.1095C34.9833 20.3539 34.9658 20.6147 34.8696 20.8462C34.7829 21.0392 34.6624 21.2123 34.5148 21.3556ZM32.4605 17.9752L33.3003 15.1585L34.1799 17.9752H32.4605Z" fill="#2D2D2D"/>
<path d="M26.0981 17.477C26.3018 17.3759 26.49 17.2411 26.6554 17.0773L26.7073 17.0212C26.7845 16.9387 26.8563 16.8505 26.9222 16.757C26.9306 16.7447 26.9405 16.7328 26.9489 16.7199C27.2819 16.2834 27.4422 15.7214 27.3945 15.1577H27.394C27.3808 14.911 27.3222 14.6699 27.2223 14.4484C27.1614 14.3134 27.0893 14.1847 27.0074 14.0638C26.874 13.8612 26.6995 13.6943 26.4976 13.5761C26.2894 13.4524 26.0677 13.3578 25.8376 13.294C25.6032 13.2292 25.3643 13.1858 25.1234 13.1646C24.8796 13.1424 24.6546 13.1316 24.4481 13.1318H18.9502C19.1361 13.1828 19.3108 13.2729 19.4646 13.3974C19.6145 13.5363 19.7355 13.7078 19.8194 13.9011C19.9379 14.1828 19.9962 14.4902 19.9896 14.8C19.9962 14.9883 19.9998 15.1799 20 15.3748V19.8165C19.9987 20.0119 19.9769 20.2066 19.9345 20.3965C19.8919 20.5936 19.8281 20.7844 19.7448 20.9653C19.6621 21.1448 19.5544 21.3091 19.425 21.4527C19.2944 21.5978 19.1402 21.7155 18.97 21.7996H23.7187C23.6147 21.7586 23.5127 21.7113 23.4133 21.6583C23.2964 21.5953 23.1898 21.511 23.0985 21.4095C22.9874 21.2827 22.8979 21.136 22.8338 20.9757C22.747 20.7519 22.6947 20.5138 22.6793 20.2716C22.6453 19.8753 22.6318 19.4775 22.6387 19.0796C22.6455 18.6756 22.6488 18.2784 22.6491 17.8883H22.9689C23.116 17.8883 23.2586 17.8877 23.3965 17.8864C24.6491 21.0562 25.0846 21.7996 26.331 21.7996H29.0736C28.1349 21.7996 26.9349 19.417 26.0981 17.477ZM22.4789 16.7073V14.4104C22.7257 14.4104 22.9702 14.4052 23.2137 14.3939C23.4344 14.3805 23.6555 14.4061 23.8683 14.4699C24.0555 14.527 24.2206 14.6485 24.3383 14.8165C24.4743 15.0507 24.5375 15.3261 24.5179 15.6024C24.5367 15.8617 24.4674 16.1198 24.3231 16.3279C24.1927 16.4874 24.02 16.5993 23.8285 16.6477C23.6126 16.7034 23.391 16.7273 23.169 16.7185C22.9289 16.7106 22.699 16.7073 22.4789 16.7073Z" fill="#2D2D2D"/>
<path d="M20.5082 3.06287C19.7919 3.4175 19.3145 4.1765 19.2722 5.02871L19.2704 5.02925C18.6873 4.58254 17.9337 4.48467 17.2696 4.76947C17.2965 4.86541 17.3287 4.95943 17.3668 5.05069C17.6176 5.64889 18.0942 6.10221 18.6743 6.29354C18.3557 6.82905 17.936 7.28483 17.4429 7.63094C17.2283 7.78049 16.9822 7.86873 16.7278 7.88715C16.0734 7.97127 15.4345 7.61225 15.1207 6.98436C14.7221 7.75739 13.8406 8.08508 13.0881 7.74008C12.9909 7.67877 12.895 7.6139 12.8035 7.54407C12.0202 6.95357 11.449 6.08708 11.1878 5.09248C11.1997 5.09194 11.2113 5.09055 11.2232 5.08918C11.8814 5.01001 12.4681 4.59985 12.8065 3.98297C12.8428 3.91727 12.876 3.84965 12.9059 3.78037C12.3718 3.35097 11.6808 3.21929 11.0434 3.42519C10.9787 3.44609 10.9143 3.47083 10.8509 3.49859C10.8727 2.6934 10.3152 1.48245 9.63186 1.04205C9.54467 0.987899 9.45486 0.939241 9.36277 0.896081L9.30237 0.869141L9.26079 0.92687C9.20704 1.00219 9.15755 1.08137 9.11297 1.16356C8.70988 1.9069 8.82095 3.24128 9.19787 3.93596C9.13044 3.94448 9.06269 3.95686 8.99652 3.97253C8.41921 4.10778 7.91977 4.49979 7.62103 5.05207C7.58522 5.11805 7.55249 5.18623 7.52309 5.25605C7.58016 5.30113 7.63953 5.3432 7.70063 5.38169C8.27083 5.74566 8.96712 5.79843 9.57866 5.52408C9.59004 5.51886 9.60119 5.51418 9.61186 5.50896C9.80791 6.43484 9.72704 7.40442 9.38079 8.27696C9.37953 8.27312 9.37897 8.26844 9.37771 8.26459C9.37241 8.28658 9.36506 8.30913 9.35898 8.33194C9.33566 8.38802 9.31131 8.44438 9.28617 8.49991C9.22506 8.63434 9.15755 8.76547 9.08403 8.89247C8.57344 9.58829 7.64941 9.75536 6.95772 9.27734C6.95543 9.9915 6.54909 10.6356 5.93578 10.897C5.79273 10.9581 5.64207 10.9966 5.48886 11.0108C4.82381 10.9985 4.17093 10.8135 3.58527 10.471C4.00885 10.0004 4.2252 9.35404 4.17829 8.69866C4.17118 8.5975 4.15749 8.41111 4.13922 8.3149C3.40848 8.41441 2.80531 9.12037 2.50119 9.49973H2.49941C2.09587 9.12037 1.35421 8.44355 0.542293 8.51036C0.355099 8.5428 0.172735 8.6019 0 8.68629C0.906522 9.42386 1.76993 10.2219 2.58514 11.0755C3.15762 11.6701 3.70727 12.3043 4.23206 12.9536C4.96154 13.8578 6.20744 15.684 6.20871 15.6835C6.53312 16.0105 6.96431 16.1862 7.40743 16.1714C7.46324 16.1623 7.50585 16.1114 7.50886 16.0502C7.51399 16.0026 7.43811 15.9737 7.39882 15.9548C7.09849 15.8379 6.87173 15.5649 6.79564 15.229C6.56101 14.4326 8.75937 12.9946 11.9725 12.1105C15.1864 11.2273 17.7673 11.3345 17.9165 12.1564C17.9988 12.4907 17.9213 12.8483 17.71 13.1078C17.6841 13.1452 17.6298 13.2106 17.6569 13.2497C17.6866 13.3022 17.7467 13.325 17.8 13.3041C18.1944 13.0864 18.4945 12.7084 18.6345 12.2531C18.7742 11.7979 18.9795 9.98959 19.2166 8.81633C19.3873 7.97292 19.5915 7.14079 19.8294 6.31992C20.1675 5.15213 20.5726 4.00854 21.0423 2.89573C20.8582 2.92541 20.6786 2.98177 20.5082 3.06287Z" fill="#2D2D2D"/>
<path d="M9.1559 13.8744C10.8913 13.0708 12.7188 12.5252 14.5892 12.2528C16.4595 11.9803 18.2376 12.642 18.2376 17.2833C18.2376 21.9244 15.1913 24.5739 11.0448 24.5739C6.89894 24.5739 4.71252 22.5933 4.71252 20.4833C4.71252 18.3732 6.11213 18.037 6.76324 18.037C7.41361 18.037 8.59052 18.674 8.59052 20.3275C8.59052 20.3275 7.4189 20.0158 7.4189 21.1143C7.4189 22.2125 8.80404 22.8968 10.7033 22.8968C12.6021 22.8968 15.2836 21.9948 15.2836 17.9771C15.2836 13.6899 13.4534 13.4984 12.1808 13.4984V20.8521C12.2024 21.2259 12.501 21.5162 12.8464 21.4986C13.1916 21.4813 12.177 22.1108 10.5212 22.1108C8.86515 22.1108 8.39337 21.5346 8.39337 21.5346C8.39337 21.5346 9.17717 21.5379 9.17717 20.7885C9.17717 20.0397 9.1559 13.8744 9.1559 13.8744Z" fill="#2D2D2D"/>
<path d="M55.077 29.2422C55.0255 29.0776 54.9598 28.9187 54.8804 28.7675C54.7444 28.5083 54.5567 28.2853 54.3305 28.1158L54.3292 28.1144C54.3016 28.0929 54.2744 28.0712 54.2473 28.0509L54.2417 28.047C54.1189 27.9538 53.9911 27.8688 53.8587 27.7924C52.9174 27.2492 51.9506 27.2467 51.1747 27.0491C51.0519 27.0183 50.9309 26.9796 50.8122 26.9333C50.7688 26.9149 50.726 26.896 50.6831 26.875C50.5187 26.7959 50.3655 26.6917 50.228 26.5661C50.1065 26.4523 50.0193 26.3014 49.9782 26.1331C49.9353 25.9962 49.9501 25.8455 50.018 25.721C50.1202 25.5525 50.2552 25.4104 50.4132 25.304C50.5819 25.1897 50.7655 25.1038 50.958 25.0495C51.1653 24.9909 51.3789 24.9637 51.5926 24.9678C51.8144 24.9714 52.0345 25.006 52.248 25.0712C52.4921 25.1371 52.731 25.224 52.9623 25.3312C53.1282 25.411 53.2847 25.5127 53.4275 25.6342C53.4973 25.6955 53.5637 25.7609 53.6272 25.8299C53.6941 25.9017 53.7636 25.9772 53.8371 26.0573C53.9099 26.1364 53.9921 26.2247 54.082 26.3228C54.172 26.4201 54.2835 26.5375 54.4167 26.6744V23.5001C54.4167 23.5001 54.1925 24.1068 53.3025 24.1068C53.0531 24.0996 52.8046 24.0779 52.5575 24.0419C52.3041 23.9982 52.0477 23.9537 51.7877 23.9059C51.5001 23.8572 51.2091 23.8374 50.9182 23.8471C50.518 23.8462 50.1193 23.9045 49.7334 24.0202C49.3657 24.1277 49.0187 24.3055 48.709 24.5453C48.0645 25.0384 47.6916 25.8527 47.719 26.7071C47.7023 27.0884 47.7837 27.4672 47.9541 27.8009C48.0782 28.0237 48.2314 28.2254 48.4091 28.3999L48.4114 28.4019C48.4168 28.4079 48.4234 28.4131 48.429 28.419C48.4487 28.437 48.4688 28.4555 48.4886 28.4734C48.52 28.5019 48.552 28.5295 48.5839 28.5569C49.2318 29.0958 50.1464 29.3566 51.2041 29.6188C51.2246 29.6241 51.2431 29.628 51.2631 29.6327L51.271 29.6346C51.3796 29.6606 51.4884 29.6906 51.5974 29.7248C51.7984 29.785 51.9929 29.8685 52.1773 29.9737C52.3269 30.0563 52.4596 30.1704 52.5676 30.3092C52.6585 30.4244 52.6887 30.5824 52.6473 30.727C52.5986 30.9753 52.4528 31.1886 52.2478 31.3115C52.0388 31.4299 51.8083 31.4965 51.5729 31.5064C51.3162 31.5207 51.0593 31.499 50.8079 31.4417C50.5806 31.3934 50.3569 31.3279 50.138 31.2463C49.7061 31.074 49.2933 30.8485 48.9086 30.5747C48.6529 30.385 48.4107 30.175 48.1839 29.9463C47.9424 29.7005 47.7291 29.4242 47.5488 29.1232V32.9083C47.9265 32.6717 48.3501 32.5337 48.7856 32.5051C48.7866 32.5064 48.7879 32.5078 48.7891 32.509C48.9294 32.4831 49.0712 32.4688 49.2133 32.4658C49.4308 32.462 49.6484 32.4801 49.8631 32.5199C50.0804 32.5595 50.2958 32.6117 50.508 32.6769C50.7363 32.7409 50.9684 32.788 51.2028 32.8176C51.4367 32.8468 51.6721 32.8613 51.9076 32.8613C52.3061 32.8606 52.7034 32.8114 53.0917 32.7149C53.4729 32.6247 53.8354 32.4594 54.1616 32.2272C54.4791 31.9992 54.7442 31.6955 54.9367 31.3392C55.1469 30.9274 55.2474 30.4604 55.2269 29.9903C55.2002 29.736 55.15 29.4853 55.0767 29.2422" fill="#2D2D2D"/>
<path d="M36.6029 25.8405C36.6029 25.7034 36.6095 25.5549 36.623 25.396C36.6362 25.2385 36.6627 25.0826 36.7031 24.9306C36.7412 24.7827 36.7967 24.6408 36.8677 24.5081C36.9385 24.378 37.0321 24.2637 37.1427 24.1719C37.2594 24.0746 37.3971 24.0113 37.5427 23.9883H33.8742C34.0763 23.9995 34.2702 24.079 34.4284 24.2158C34.5733 24.3473 34.6892 24.5119 34.7683 24.6977C34.8535 24.8949 34.9109 25.1049 34.9382 25.3207C34.9674 25.5288 34.9824 25.7388 34.9836 25.9491V29.828L31.5447 23.9883H27.386C27.5872 23.9918 27.7812 24.0701 27.9356 24.2098C28.0762 24.3451 28.1857 24.5138 28.2555 24.7029C28.3306 24.9045 28.381 25.1156 28.4057 25.3312C28.431 25.5362 28.4442 25.7427 28.4454 25.9491C28.4454 26.0354 28.4467 26.1643 28.4503 26.3334V30.4408C28.4485 30.6225 28.4442 30.8047 28.4353 30.9873C28.4288 31.1244 28.4186 31.2655 28.4057 31.4098C28.3929 31.5514 28.3661 31.6913 28.3253 31.8268C28.2859 31.9599 28.2286 32.0858 28.1558 32.201C28.0792 32.3194 27.9803 32.419 27.8657 32.4932C27.837 32.5121 27.807 32.5286 27.7759 32.5424C27.736 32.5597 27.6937 32.5763 27.6508 32.5908C27.6074 32.6048 27.5688 32.6194 27.5356 32.6339C27.5167 32.6436 27.4966 32.651 27.476 32.6554H31.0643C30.9649 32.598 30.8802 32.5457 30.8097 32.4984C30.7369 32.449 30.6669 32.3948 30.5999 32.3362C30.5367 32.2821 30.4782 32.2221 30.4249 32.157C30.2697 31.9505 30.1665 31.7042 30.1251 31.4417C30.0797 31.1811 30.0563 30.9166 30.0551 30.6514V26.8346L33.439 32.6554H37.5427C37.3971 32.632 37.2594 32.5688 37.1427 32.4715C37.0318 32.3796 36.9385 32.2656 36.8677 32.1353C36.7967 32.0028 36.7414 31.8609 36.7031 31.7133C36.6627 31.5607 36.6362 31.4049 36.6227 31.2471C36.6095 31.0879 36.6029 30.94 36.6029 30.8028V25.8405Z" fill="#2D2D2D"/>
<path d="M25.6401 29.2087V25.7722C25.6459 25.6172 25.6617 25.4626 25.6866 25.3098C25.7175 25.1157 25.7746 24.9274 25.8562 24.7515C25.9379 24.5797 26.05 24.4271 26.1859 24.3023C26.3429 24.162 26.5231 24.0554 26.7163 23.9875H21.9374C22.1335 24.0455 22.3146 24.1511 22.4673 24.2963C22.6233 24.4659 22.747 24.6665 22.8323 24.8873C22.9553 25.2246 23.0116 25.5863 22.9976 25.9487V30.4975C22.9976 30.6421 22.9943 30.8161 22.9873 31.0196C22.9918 31.3065 22.9338 31.5905 22.8173 31.8486C22.7285 32.037 22.6083 32.2061 22.4625 32.3468C22.4384 32.369 22.4104 32.39 22.3833 32.4116C21.2117 31.8942 19.9915 30.6187 19.0874 29.0886C18.5553 28.188 17.9545 26.995 17.4538 25.953C17.9243 25.315 18.3745 24.7215 18.7377 24.2687C19.4492 23.5232 20.3418 23.0118 21.3107 22.7941H17.4099C17.4099 22.7941 17.7675 23.35 17.2523 24.0257L14.667 27.4134V24.6324C14.6393 24.6453 14.6114 24.6591 14.5838 24.6718C14.4724 24.7207 14.357 24.7677 14.2399 24.8116C13.8829 24.9455 13.518 25.0531 13.1474 25.1333C13.0208 25.1613 12.8886 25.1877 12.756 25.2103C12.478 25.2656 12.1972 25.3037 11.9154 25.3249V30.3993L11.8987 30.7892C11.8901 30.8933 11.8787 30.9981 11.8642 31.1064C11.832 31.3456 11.7701 31.5787 11.6808 31.8C11.5958 32.0114 11.4713 32.2014 11.315 32.3577C11.1441 32.5225 10.9305 32.6264 10.7035 32.6555H15.7079C15.5027 32.6113 15.3173 32.493 15.1816 32.3206C15.0386 32.1365 14.9297 31.924 14.8615 31.6947C14.7814 31.4333 14.7276 31.1633 14.701 30.8892C14.6708 30.5965 14.6538 30.3092 14.6497 30.028C14.6492 29.9752 14.6485 29.9244 14.6485 29.8727C14.8475 29.5881 15.1557 29.148 15.5238 28.6287C15.7211 28.9891 15.9316 29.3638 16.149 29.7365C17.1833 31.511 18.0087 32.6588 19.3206 32.6588C20.6327 32.6588 26.6958 32.6555 26.6958 32.6555C26.5002 32.5709 26.3206 32.4479 26.1662 32.2926C26.013 32.1192 25.8894 31.9174 25.8017 31.6966C25.698 31.4314 25.6429 31.1466 25.6401 30.8585V29.2087Z" fill="#2D2D2D"/>
<path d="M43.1019 28.3537C43.2284 28.4872 43.3185 28.656 43.3623 28.8416C43.4093 29.0451 43.4286 29.2545 43.4197 29.464C43.4131 29.6914 43.4131 29.9206 43.4197 30.1518C43.4197 30.2675 43.4232 30.4031 43.4299 30.5587C43.4374 30.7091 43.4184 30.86 43.3733 31.0026C43.3241 31.1488 43.2325 31.2742 43.1125 31.36C42.934 31.4713 42.7285 31.5222 42.5231 31.5065C42.2613 31.52 42.0023 31.4441 41.7824 31.2897C41.5952 31.1461 41.4416 30.9573 41.334 30.7376C41.2257 30.5152 41.1478 30.2766 41.1031 30.0295V30.0347C40.8615 28.9183 40.8533 27.7571 41.0788 26.6366C41.1278 26.3889 41.2122 26.1511 41.3291 25.9315C41.4423 25.7207 41.597 25.5395 41.7824 25.4009C41.9904 25.2533 42.2329 25.1724 42.4815 25.1681C42.607 25.1618 42.7331 25.1708 42.8569 25.1953C42.989 25.2203 43.1138 25.2478 43.232 25.2764C43.8261 25.4147 44.3927 25.6659 44.9055 26.0186C45.4828 26.4288 45.9506 26.8439 46.1522 27.4435V23.5137C46.0411 23.8799 45.7913 24.1781 45.4656 24.3332C45.3665 24.3695 45.2647 24.397 45.1615 24.4154C45.1379 24.4187 45.1133 24.4215 45.0879 24.4234C45.0727 24.4248 45.0565 24.4248 45.0408 24.4253C44.8437 24.4239 44.6465 24.406 44.4518 24.3722C44.2392 24.3384 44.0299 24.284 43.8263 24.2092C43.6175 24.1336 43.4194 24.0704 43.232 24.0196C43.0435 23.9689 42.8521 23.9327 42.6588 23.9112C42.4612 23.8895 42.2626 23.8791 42.064 23.8793C41.6604 23.8774 41.2579 23.9263 40.8647 24.025C40.4896 24.1196 40.1284 24.2692 39.7908 24.4695C39.4583 24.6675 39.1559 24.9195 38.8942 25.217C38.6837 25.4578 38.5031 25.7273 38.3567 26.0186L38.3519 26.0277C37.8966 27.1886 37.7687 28.4697 37.9843 29.7092C38.0394 29.9583 38.1132 30.2024 38.2045 30.4388C38.2512 30.5587 38.3019 30.6744 38.3574 30.786C38.5652 31.2154 38.8485 31.5964 39.1917 31.9076C39.5394 32.2175 39.9397 32.4511 40.3699 32.5955C40.8576 32.7565 41.3669 32.8277 41.8765 32.8066C42.1071 32.7981 42.3361 32.7617 42.5593 32.6988C42.7921 32.6333 43.0268 32.5608 43.2634 32.4816C43.5001 32.4019 43.7375 32.3266 43.9777 32.254C44.2072 32.1837 44.4434 32.1415 44.6818 32.1292C44.9103 32.1185 45.1392 32.1479 45.3593 32.2161C45.5962 32.2936 45.8138 32.4288 45.9952 32.6116V29.9896C45.9959 29.7974 46.0099 29.6055 46.0373 29.4156C46.0634 29.2199 46.1121 29.0288 46.1829 28.8466C46.2519 28.6709 46.351 28.5109 46.4753 28.3754C46.6065 28.2338 46.7676 28.1296 46.9449 28.0719H42.4815C42.7098 28.0952 42.9261 28.1937 43.1019 28.3537Z" fill="#2D2D2D"/>
</g>
</svg>
