<svg width="125" height="27" viewBox="0 0 125 27" fill="none" xmlns="http://www.w3.org/2000/svg">
<g opacity="0.7">
<path d="M34.2265 24.6896C34.0922 24.6896 33.9822 24.6395 33.8967 24.5393C33.8112 24.4391 33.7684 24.3104 33.7684 24.153V10.2018C33.7684 10.0444 33.8112 9.91562 33.8967 9.81545C33.9822 9.71528 34.0922 9.66515 34.2265 9.66515H42.5259C42.6602 9.66515 42.7701 9.71528 42.8556 9.81545C42.9411 9.91562 42.9839 10.0444 42.9839 10.2018V11.9189C42.9839 12.062 42.9411 12.1836 42.8556 12.2838C42.7701 12.3838 42.6602 12.434 42.5259 12.434H36.5899V15.8037H42.1228C42.2571 15.8037 42.3671 15.8538 42.4525 15.954C42.5381 16.0541 42.5808 16.183 42.5808 16.3403V17.9286C42.5808 18.0717 42.5381 18.1933 42.4525 18.2934C42.3671 18.3937 42.2571 18.4437 42.1228 18.4437H36.5899V21.9208H42.6725C42.8068 21.9208 42.9167 21.9708 43.0022 22.071C43.0877 22.1713 43.1305 22.3 43.1305 22.4574V24.153C43.1305 24.3104 43.0877 24.4391 43.0022 24.5393C42.9167 24.6395 42.8068 24.6896 42.6725 24.6896H34.2265ZM45.7482 24.6896C45.6138 24.6896 45.5039 24.6395 45.4184 24.5393C45.3329 24.4391 45.2902 24.3104 45.2902 24.153V9.98713C45.2902 9.82979 45.3329 9.70103 45.4184 9.60078C45.5039 9.5006 45.6138 9.45056 45.7482 9.45056H47.5803C47.7024 9.45056 47.8062 9.5006 47.8917 9.60078C47.9772 9.70103 48.02 9.82979 48.02 9.98713V24.153C48.02 24.3104 47.9772 24.4391 47.8917 24.5393C47.8062 24.6395 47.7024 24.6896 47.5803 24.6896H45.7482ZM54.769 24.9042C53.3646 24.9042 52.247 24.4464 51.4165 23.5306C50.5979 22.6148 50.1647 21.2841 50.1157 19.5383C50.1157 19.4239 50.1157 19.2737 50.1157 19.0877C50.1157 18.8873 50.1157 18.7299 50.1157 18.6155C50.1647 17.5137 50.3781 16.5693 50.7569 15.7823C51.1357 14.981 51.667 14.3728 52.3506 13.9578C53.0347 13.5286 53.835 13.314 54.7509 13.314C55.777 13.314 56.6321 13.5644 57.3156 14.0652C58.0117 14.5517 58.5308 15.2243 58.8729 16.0827C59.227 16.927 59.4045 17.9 59.4045 19.0018V19.4955C59.4045 19.6386 59.3552 19.7601 59.2576 19.8604C59.1721 19.9605 59.0686 20.0106 58.9463 20.0106H52.9552C52.9552 20.0249 52.9552 20.0535 52.9552 20.0964C52.9552 20.125 52.9552 20.1537 52.9552 20.1823C52.9678 20.6401 53.0412 21.0623 53.175 21.4486C53.3219 21.8206 53.5236 22.1211 53.7796 22.3501C54.0487 22.579 54.3661 22.6935 54.7328 22.6935C55.0381 22.6935 55.2881 22.6435 55.4837 22.5432C55.6794 22.443 55.8378 22.3215 55.9601 22.1784C56.0943 22.0353 56.1925 21.9137 56.2533 21.8135C56.3629 21.6704 56.449 21.5845 56.5098 21.5559C56.5828 21.513 56.6929 21.4915 56.8393 21.4915H58.7446C58.8668 21.4915 58.9644 21.5344 59.0379 21.6204C59.1233 21.6919 59.1601 21.7992 59.148 21.9423C59.1354 22.1713 59.0318 22.4574 58.8367 22.8008C58.6531 23.1299 58.3784 23.459 58.0117 23.7881C57.6455 24.1029 57.1874 24.3676 56.6381 24.5822C56.1004 24.7969 55.4777 24.9042 54.769 24.9042ZM52.9552 18.0574H56.546V18.0145C56.546 17.4994 56.4732 17.0558 56.3262 16.6837C56.1925 16.2974 55.9908 15.997 55.7216 15.7823C55.4531 15.5676 55.1297 15.4603 54.7509 15.4603C54.3721 15.4603 54.0487 15.5676 53.7796 15.7823C53.511 15.997 53.3033 16.2974 53.1569 16.6837C53.0227 17.0558 52.9552 17.4994 52.9552 18.0145V18.0574ZM61.8586 24.6896C61.7368 24.6896 61.6327 24.6395 61.5472 24.5393C61.4617 24.4391 61.419 24.3104 61.419 24.153V14.0652C61.419 13.9078 61.4617 13.779 61.5472 13.6789C61.6327 13.5787 61.7368 13.5286 61.8586 13.5286H63.5621C63.6844 13.5286 63.7885 13.5787 63.8735 13.6789C63.9716 13.779 64.0204 13.9078 64.0204 14.0652V14.7949C64.2649 14.3943 64.6008 14.0509 65.0279 13.7647C65.4675 13.4785 65.9871 13.3283 66.5851 13.314C68.0026 13.2854 68.9733 13.9149 69.4985 15.2027C69.7796 14.6447 70.1825 14.194 70.7076 13.8505C71.2453 13.4928 71.8313 13.314 72.466 13.314C73.1013 13.314 73.6752 13.4857 74.1882 13.8291C74.7013 14.1582 75.1042 14.6734 75.3975 15.3745C75.7033 16.0613 75.8556 16.9485 75.8556 18.0359V24.153C75.8556 24.3104 75.813 24.4391 75.7274 24.5393C75.6419 24.6395 75.5384 24.6896 75.416 24.6896H73.6023C73.4801 24.6896 73.3765 24.6395 73.2904 24.5393C73.2055 24.4391 73.1621 24.3104 73.1621 24.153V18.2076C73.1621 17.621 73.0893 17.1631 72.9424 16.834C72.796 16.4906 72.6009 16.2473 72.3564 16.1043C72.1245 15.9611 71.8614 15.8896 71.5687 15.8896C71.3122 15.8896 71.0617 15.9611 70.8173 16.1043C70.5854 16.2473 70.3902 16.4906 70.2312 16.834C70.0844 17.1631 70.0115 17.621 70.0115 18.2076V24.153C70.0115 24.3104 69.9687 24.4391 69.8832 24.5393C69.7977 24.6395 69.6881 24.6896 69.5532 24.6896H67.7576C67.6238 24.6896 67.5136 24.6395 67.4281 24.5393C67.3427 24.4391 67.2999 24.3104 67.2999 24.153V18.2076C67.2999 17.621 67.2265 17.1631 67.08 16.834C66.9332 16.4906 66.738 16.2473 66.4936 16.1043C66.2617 15.9611 66.0052 15.8896 65.724 15.8896C65.4675 15.8896 65.2175 15.9683 64.973 16.1257C64.7291 16.2688 64.5274 16.5049 64.3684 16.834C64.2221 17.1631 64.1487 17.6138 64.1487 18.1861V24.153C64.1487 24.3104 64.1059 24.4391 64.0204 24.5393C63.9348 24.6395 63.8313 24.6896 63.7091 24.6896H61.8586ZM82.5095 24.9042C81.1052 24.9042 79.9875 24.4464 79.1571 23.5306C78.3387 22.6148 77.9046 21.2841 77.8564 19.5383C77.8564 19.4239 77.8564 19.2737 77.8564 19.0877C77.8564 18.8873 77.8564 18.7299 77.8564 18.6155C77.9046 17.5137 78.1189 16.5693 78.4977 15.7823C78.8759 14.981 79.4071 14.3728 80.0911 13.9578C80.7752 13.5286 81.5754 13.314 82.4914 13.314C83.5175 13.314 84.3723 13.5644 85.0561 14.0652C85.7531 14.5517 86.2709 15.2243 86.6136 16.0827C86.9671 16.927 87.1447 17.9 87.1447 19.0018V19.4955C87.1447 19.6386 87.0959 19.7601 86.9985 19.8604C86.9126 19.9605 86.8085 20.0106 86.6871 20.0106H80.6957C80.6957 20.0249 80.6957 20.0535 80.6957 20.0964C80.6957 20.125 80.6957 20.1537 80.6957 20.1823C80.7078 20.6401 80.7812 21.0623 80.9161 21.4486C81.0624 21.8206 81.2641 22.1211 81.5207 22.3501C81.7887 22.579 82.1066 22.6935 82.4733 22.6935C82.7784 22.6935 83.0286 22.6435 83.2243 22.5432C83.4192 22.443 83.5786 22.3215 83.7009 22.1784C83.8346 22.0353 83.9321 21.9137 83.994 21.8135C84.103 21.6704 84.1889 21.5845 84.25 21.5559C84.3235 21.513 84.4334 21.4915 84.5796 21.4915H86.4848C86.607 21.4915 86.7053 21.5344 86.778 21.6204C86.8639 21.6919 86.9002 21.7992 86.8887 21.9423C86.8763 22.1713 86.7722 22.4574 86.5773 22.8008C86.394 23.1299 86.119 23.459 85.7531 23.7881C85.3864 24.1029 84.9281 24.3676 84.3789 24.5822C83.8412 24.7969 83.2177 24.9042 82.5095 24.9042ZM80.6957 18.0574H84.2872V18.0145C84.2872 17.4994 84.2137 17.0558 84.0667 16.6837C83.9321 16.2974 83.7306 15.997 83.463 15.7823C83.1938 15.5676 82.8692 15.4603 82.4914 15.4603C82.1127 15.4603 81.7887 15.5676 81.5207 15.7823C81.2515 15.997 81.0443 16.2974 80.8974 16.6837C80.7625 17.0558 80.6957 17.4994 80.6957 18.0145V18.0574ZM89.5991 24.6896C89.4769 24.6896 89.3728 24.6395 89.2878 24.5393C89.2019 24.4391 89.1598 24.3104 89.1598 24.153V14.0652C89.1598 13.9078 89.2019 13.779 89.2878 13.6789C89.3728 13.5787 89.4769 13.5286 89.5991 13.5286H91.3945C91.5283 13.5286 91.639 13.5787 91.724 13.6789C91.8099 13.779 91.852 13.9078 91.852 14.0652V14.9023C92.17 14.4444 92.5796 14.0652 93.0801 13.7647C93.5806 13.4642 94.1917 13.314 94.9118 13.314C95.632 13.314 96.2613 13.5072 96.7997 13.8935C97.3489 14.2655 97.7759 14.8164 98.0815 15.5462C98.3986 16.2616 98.558 17.1345 98.558 18.1647V24.153C98.558 24.3104 98.5093 24.4391 98.411 24.5393C98.3259 24.6395 98.2227 24.6896 98.1005 24.6896H96.158C96.0234 24.6896 95.9136 24.6395 95.8277 24.5393C95.7426 24.4391 95.6997 24.3104 95.6997 24.153V18.2934C95.6997 17.5352 95.5411 16.9485 95.2232 16.5334C94.9184 16.1043 94.4667 15.8896 93.868 15.8896C93.294 15.8896 92.8356 16.1043 92.4937 16.5334C92.1518 16.9485 91.9809 17.5352 91.9809 18.2934V24.153C91.9809 24.3104 91.9379 24.4391 91.852 24.5393C91.767 24.6395 91.6629 24.6896 91.5407 24.6896H89.5991ZM105.409 24.6896C104.652 24.6896 104.004 24.5464 103.467 24.2603C102.93 23.9598 102.52 23.502 102.24 22.8866C101.971 22.2714 101.837 21.4987 101.837 20.5686V16.0613H100.407C100.273 16.0613 100.163 16.0112 100.078 15.911C99.9925 15.8109 99.9495 15.6821 99.9495 15.5247V14.0652C99.9495 13.9078 99.9925 13.779 100.078 13.6789C100.163 13.5787 100.273 13.5286 100.407 13.5286H101.837V9.98713C101.837 9.82979 101.88 9.70103 101.965 9.60078C102.063 9.5006 102.173 9.45056 102.294 9.45056H104.09C104.224 9.45056 104.335 9.5006 104.419 9.60078C104.506 9.70103 104.548 9.82979 104.548 9.98713V13.5286H106.838C106.96 13.5286 107.064 13.5787 107.149 13.6789C107.235 13.779 107.277 13.9078 107.277 14.0652V15.5247C107.277 15.6821 107.235 15.8109 107.149 15.911C107.064 16.0112 106.96 16.0613 106.838 16.0613H104.548V20.311C104.548 20.8548 104.628 21.2841 104.787 21.5989C104.958 21.8993 105.251 22.0495 105.665 22.0495H107.003C107.125 22.0495 107.229 22.0996 107.315 22.1999C107.4 22.3 107.443 22.4217 107.443 22.5647V24.153C107.443 24.3104 107.4 24.4391 107.315 24.5393C107.229 24.6395 107.125 24.6896 107.003 24.6896H105.409Z" fill="#2D2D2D"/>
<path d="M110.716 24.8117C110.584 24.8117 110.476 24.7634 110.392 24.6667C110.307 24.5701 110.266 24.4459 110.266 24.2942V10.8401C110.266 10.6883 110.307 10.5641 110.392 10.4674C110.476 10.3708 110.584 10.3225 110.716 10.3225H118.744C118.876 10.3225 118.983 10.3708 119.068 10.4674C119.151 10.5641 119.194 10.6883 119.194 10.8401V12.5994C119.194 12.7511 119.151 12.8754 119.068 12.972C118.983 13.0686 118.876 13.1168 118.744 13.1168H113.074V16.615H118.383C118.516 16.615 118.624 16.6632 118.708 16.7598C118.792 16.8564 118.834 16.9807 118.834 17.1324V18.8918C118.834 19.0299 118.792 19.1471 118.708 19.2437C118.624 19.3403 118.516 19.3886 118.383 19.3886H113.074V24.2942C113.074 24.4459 113.032 24.5701 112.948 24.6667C112.863 24.7634 112.755 24.8117 112.624 24.8117H110.716ZM121.894 24.8117C121.774 24.8117 121.672 24.7634 121.589 24.6667C121.504 24.5701 121.462 24.4459 121.462 24.2942V14.5658C121.462 14.414 121.504 14.2899 121.589 14.1932C121.672 14.0966 121.774 14.0483 121.894 14.0483H123.695C123.826 14.0483 123.934 14.0966 124.018 14.1932C124.102 14.2899 124.145 14.414 124.145 14.5658V24.2942C124.145 24.4459 124.102 24.5701 124.018 24.6667C123.934 24.7634 123.826 24.8117 123.695 24.8117H121.894ZM121.84 12.3924C121.72 12.3924 121.618 12.3442 121.534 12.2475C121.451 12.1509 121.409 12.0267 121.409 11.875V10.2191C121.409 10.0673 121.451 9.94305 121.534 9.84653C121.618 9.7361 121.72 9.68085 121.84 9.68085H123.73C123.862 9.68085 123.97 9.7361 124.055 9.84653C124.15 9.94305 124.198 10.0673 124.198 10.2191V11.875C124.198 12.0267 124.15 12.1509 124.055 12.2475C123.97 12.3442 123.862 12.3924 123.73 12.3924H121.84Z" fill="#2D2D2D"/>
<mask id="mask0_249_1806" style="mask-type:alpha" maskUnits="userSpaceOnUse" x="0" y="0" width="27" height="27">
<path d="M10.5081 20.1562C6.81705 22.0533 2.48774 20.1496 0.838334 15.9041C-0.811075 11.6586 0.84404 6.67885 4.53512 4.78167C8.22619 2.88454 12.5554 4.78828 14.2049 9.03378C15.8543 13.2793 14.1992 18.259 10.5081 20.1562Z" fill="black"/>
<path d="M23.8046 11.4964C21.2492 12.8098 18.2519 11.4919 17.11 8.55261C15.9682 5.6135 17.114 2.16602 19.6693 0.852575C22.2248 -0.460867 25.222 0.857128 26.3638 3.79632C27.5057 6.73554 26.3599 10.183 23.8046 11.4964Z" fill="black"/>
<path d="M22.0127 25.9948C19.9541 27.0529 17.5398 25.9912 16.6198 23.6235C15.7001 21.2558 16.6231 18.4787 18.6816 17.4207C20.74 16.3626 23.1544 17.4243 24.0743 19.792C24.9942 22.1597 24.0711 24.9368 22.0127 25.9948Z" fill="black"/>
</mask>
<g mask="url(#mask0_249_1806)">
<path d="M1.31334 18.9145C4.95722 26.7629 14.5214 30.2822 22.6758 26.7751C30.8301 23.2679 34.4865 14.0624 30.8426 6.21402C27.1988 -1.63441 17.6345 -5.15368 9.48022 -1.64651C1.32593 1.8606 -2.33051 11.0661 1.31334 18.9145Z" fill="#2D2D2D"/>
<path d="M6.92757 17.2145C8.8704 22.1947 13.9699 24.4278 18.3176 22.2024C22.6652 19.9769 24.6148 14.1356 22.672 9.15551C20.7292 4.17537 15.6297 1.9422 11.282 4.1677C6.93426 6.39311 4.98471 12.2343 6.92757 17.2145Z" fill="#2D2D2D"/>
</g>
</g>
</svg>
