<svg width="46" height="10" viewBox="0 0 46 10" fill="none" xmlns="http://www.w3.org/2000/svg">
<g opacity="0.5">
<path opacity="0.5" d="M45.5925 3.43639C45.5738 3.44306 45.5554 3.4497 45.5368 3.45637C45.5181 3.45969 45.4977 3.46137 45.4754 3.46137H45.4531H45.3137C45.2877 3.46137 45.2615 3.46137 45.2356 3.46137C45.2133 3.45805 45.1873 3.45637 45.1575 3.45637C45.1277 3.45637 45.0981 3.45805 45.0683 3.46137C45.0384 3.46137 45.0069 3.46137 44.9735 3.46137C44.9325 3.46137 44.8767 3.45305 44.8062 3.43639C44.7356 3.41641 44.6464 3.40642 44.5384 3.40642C44.5161 3.40642 44.4938 3.40809 44.4715 3.41142C44.4492 3.41142 44.425 3.41142 44.399 3.41142C44.3731 3.41142 44.2225 3.38976 43.9473 3.34648C43.8692 3.27322 43.8302 3.20161 43.8302 3.13168C43.8302 3.07506 43.8433 3.01679 43.8692 2.95684C43.9509 2.89023 44.0162 2.83196 44.0644 2.78201C44.1126 2.73205 44.1481 2.69042 44.1704 2.65712C44.2448 2.55722 44.319 2.4673 44.3934 2.38738C44.4715 2.30413 44.5477 2.22421 44.6221 2.1476C44.6369 2.13761 44.6556 2.11763 44.6779 2.08766C44.7038 2.05436 44.7317 2.0194 44.7615 1.98276C44.7914 1.94612 44.8209 1.9095 44.8508 1.87286C44.8806 1.8329 44.9065 1.80125 44.9288 1.77795C45.0256 1.68136 45.0739 1.57481 45.0739 1.45825C45.0739 1.34502 45.0089 1.28841 44.8787 1.28841C44.834 1.28841 44.7838 1.29507 44.7281 1.30839C44.6723 1.31838 44.6185 1.33337 44.5663 1.35335C44.5181 1.37333 44.4715 1.39664 44.4269 1.42328C44.3823 1.44992 44.3488 1.47823 44.3265 1.5082C44.3117 1.53484 44.2911 1.57147 44.2652 1.6181C44.2429 1.66473 44.215 1.71301 44.1815 1.76296C44.1481 1.80959 44.111 1.85121 44.07 1.88785C44.029 1.92114 43.9844 1.9378 43.9361 1.9378C43.8656 1.9378 43.8023 1.9145 43.7465 1.86786C43.6907 1.82123 43.6628 1.76296 43.6628 1.69303C43.6628 1.65974 43.6776 1.61143 43.7075 1.54816C43.7409 1.48489 43.78 1.42162 43.8246 1.35834C43.8728 1.29174 43.923 1.23179 43.9752 1.17851C44.0309 1.12523 44.0811 1.09026 44.1257 1.07361C44.3675 0.947062 44.6408 0.883789 44.9456 0.883789C45.0647 0.883789 45.1631 0.900441 45.2412 0.933742C45.3229 0.967043 45.3881 1.01034 45.4364 1.06362C45.4846 1.1169 45.5181 1.17851 45.5368 1.24845C45.5591 1.31838 45.5702 1.38998 45.5702 1.46324C45.5702 1.67305 45.4997 1.84788 45.3583 1.98775C45.3173 2.02771 45.2802 2.06935 45.2467 2.11263C45.2133 2.15592 45.1818 2.19755 45.1519 2.23752C45.126 2.27416 45.1017 2.30913 45.0794 2.34242C45.0571 2.37239 45.0404 2.39405 45.0292 2.40736C44.9882 2.42734 44.86 2.5722 44.6444 2.84195L44.4994 2.97183C44.6257 2.97183 44.7317 2.9785 44.8173 2.99181C44.9065 3.0018 44.9512 3.00347 44.9512 2.9968C45.0145 2.9968 45.0906 2.9968 45.1798 2.9968C45.2727 2.99348 45.3786 2.99181 45.4977 2.99181C45.5499 2.99181 45.5925 3.02178 45.626 3.08172C45.6631 3.13835 45.6818 3.19994 45.6818 3.26655C45.6818 3.35647 45.6519 3.41309 45.5925 3.43639Z" fill="#410EAD"/>
<g opacity="0.5">
<path d="M3.25006 8.78393C3.46478 8.88302 3.57214 9.02581 3.57214 9.21228C3.57214 9.33467 3.53636 9.42208 3.46478 9.47453C3.39972 9.52699 3.30212 9.56195 3.17198 9.57944C3.04836 9.60276 2.8922 9.6144 2.7035 9.6144C2.5148 9.62025 2.30335 9.62899 2.06911 9.64063C1.99103 9.61733 1.70474 9.59402 1.21023 9.57069C1.13866 9.57654 1.07034 9.57944 1.00527 9.57944C0.940209 9.58528 0.878395 9.58818 0.819836 9.58818C0.468478 9.58818 0.227733 9.54157 0.0975995 9.44831C0.0650682 9.2152 0.0390398 8.99958 0.0195199 8.80142C0.00650847 8.60328 0 8.42262 0 8.25943C0 8.00302 0.00975996 7.78155 0.0292799 7.59505C0.0553082 7.40273 0.0683197 7.23082 0.0683197 7.07928C0.0683197 6.89281 0.0585597 6.7471 0.0390398 6.64219L0.0975995 5.72431C0.123628 5.50286 0.152908 5.31344 0.185439 5.15609C0.224479 4.99874 0.270027 4.87928 0.322078 4.79768C0.361118 4.75107 0.556317 4.69278 0.907675 4.62284L1.53231 4.50046C1.57135 4.49464 1.65269 4.48589 1.77631 4.47423C1.89992 4.46259 2.0268 4.45093 2.15695 4.43926C2.29359 4.42762 2.41397 4.41888 2.51806 4.41304C2.62216 4.40722 2.67096 4.4043 2.66446 4.4043H2.7035C2.77509 4.4043 2.84664 4.44801 2.91822 4.53542C2.9963 4.62284 3.03534 4.72485 3.03534 4.84139C3.03534 4.89968 3.03208 4.95213 3.02558 4.99874C3.02558 5.04537 3.00606 5.08616 2.96702 5.12112C2.92798 5.15027 2.86293 5.17357 2.77182 5.19106C2.68072 5.20854 2.54734 5.22021 2.37167 5.22602C2.08536 5.23769 1.89016 5.26391 1.78607 5.3047H1.73727C1.5681 5.3047 1.35663 5.33967 1.10287 5.4096C1.07685 5.43875 1.05733 5.4912 1.04431 5.56695C1.0313 5.63689 1.02154 5.71267 1.01503 5.79424C1.00853 5.87002 1.00202 5.93703 0.995515 5.9953C0.995515 6.04775 0.995515 6.06524 0.995515 6.04775C0.989009 6.0769 0.982503 6.10605 0.975995 6.13517C0.975995 6.16432 0.975995 6.20221 0.975995 6.24881C0.975995 6.28963 0.975995 6.33623 0.975995 6.38868C0.982503 6.43531 0.989009 6.48776 0.995515 6.54604C1.19722 6.52855 1.35989 6.51107 1.48351 6.49358C1.61365 6.47028 1.7145 6.45862 1.78607 6.45862C1.92271 6.45862 2.05608 6.45572 2.18623 6.44988C2.31637 6.44406 2.43022 6.4528 2.52782 6.4761C2.63192 6.49358 2.71326 6.5344 2.77182 6.59849C2.83038 6.65678 2.85966 6.75294 2.85966 6.88696C2.85966 7.0385 2.80437 7.13758 2.69374 7.18419C2.58965 7.23082 2.40421 7.25704 2.13743 7.26286C1.82511 7.27453 1.63642 7.28619 1.57135 7.29783C1.53231 7.29783 1.49002 7.29783 1.44447 7.29783C1.40543 7.29201 1.35989 7.28909 1.30783 7.28909C1.2753 7.28909 1.23626 7.28909 1.19071 7.28909C1.15167 7.28327 1.11263 7.28327 1.07359 7.28909C1.03455 7.28909 0.998769 7.30075 0.966235 7.32405C0.940209 7.34154 0.927195 7.37651 0.927195 7.42896C0.927195 7.46392 0.927195 7.51055 0.927195 7.56882C0.933704 7.62127 0.936955 7.67083 0.936955 7.71743C0.936955 7.78737 0.933704 7.8573 0.927195 7.92724C0.927195 7.99717 0.923944 8.07295 0.917435 8.15452C0.917435 8.2303 0.914184 8.31772 0.907675 8.41678C0.907675 8.51586 0.907675 8.63243 0.907675 8.76645C0.946715 8.77229 1.02154 8.77811 1.13215 8.78393C1.24927 8.78978 1.36965 8.7956 1.49327 8.80142C1.62341 8.80726 1.74703 8.816 1.86415 8.82764C1.98127 8.83349 2.05935 8.83931 2.09839 8.84513C2.10488 8.84513 2.15045 8.84223 2.23503 8.83638C2.3196 8.83056 2.44325 8.82182 2.6059 8.81016C2.82712 8.79268 3.0028 8.78393 3.13294 8.78393H3.25006ZM12.4253 6.4761C12.3472 6.49358 12.2561 6.50233 12.152 6.50233C11.9763 6.50233 11.8527 6.49943 11.7811 6.49358C11.716 6.48776 11.6575 6.48195 11.6054 6.4761C11.5534 6.46446 11.4818 6.45572 11.3907 6.44988C11.3061 6.43824 11.1565 6.43239 10.9417 6.43239C10.8116 6.43239 10.727 6.44988 10.688 6.48484L9.7315 6.54604C9.42571 6.51691 9.27279 6.40035 9.27279 6.19636C9.27279 6.05068 9.36389 5.91373 9.54606 5.7855C9.61115 5.77386 9.70875 5.7622 9.83886 5.75053C9.969 5.73889 10.1382 5.73015 10.3464 5.72431C10.3789 5.72431 10.4115 5.72723 10.444 5.73305C10.4765 5.73305 10.5156 5.73305 10.5611 5.73305C10.7758 5.73305 11.0784 5.72431 11.4688 5.70682C11.5989 5.71267 11.7356 5.72141 11.8787 5.73305C12.0219 5.74471 12.178 5.75927 12.3472 5.77676C12.5099 5.8875 12.5912 6.01571 12.5912 6.1614C12.5912 6.27214 12.5359 6.37704 12.4253 6.4761ZM12.4253 8.15452C12.3472 8.17201 12.2138 8.18949 12.0251 8.20697C11.8364 8.21864 11.6184 8.2303 11.3712 8.24194C11.1239 8.24779 10.8572 8.25361 10.5709 8.25943C10.2911 8.25943 10.0211 8.25943 9.76078 8.25943C9.54607 8.25943 9.40619 8.21864 9.34111 8.13704C9.27605 8.05547 9.24351 7.96513 9.24351 7.86605C9.24351 7.74951 9.29883 7.64168 9.40942 7.5426C9.52005 7.51348 9.84539 7.49599 10.3854 7.49015C10.3854 7.48433 10.4342 7.48725 10.5318 7.49889C10.6294 7.51055 10.7791 7.51637 10.9808 7.51637C11.1304 7.51637 11.2345 7.49599 11.2931 7.45518C11.4037 7.44936 11.5404 7.44644 11.703 7.44644C11.8722 7.44644 12.0674 7.44354 12.2886 7.4377C12.5814 7.45518 12.7278 7.55719 12.7278 7.74366C12.7278 7.88937 12.627 8.02632 12.4253 8.15452Z" fill="#410EAD"/>
<path d="M24.4401 8.89739C24.4401 8.97317 24.3913 9.03726 24.2937 9.08971C24.2026 9.13634 24.1018 9.15964 23.9912 9.15964C23.861 9.15964 23.7634 9.12178 23.6984 9.046C23.6398 8.97024 23.5975 8.87408 23.5715 8.75752C23.5455 8.63513 23.5292 8.50111 23.5227 8.3554C23.5227 8.20971 23.5194 8.06984 23.5129 7.93579C23.4999 7.895 23.4836 7.83673 23.4641 7.76095C23.4446 7.6852 23.4283 7.58904 23.4153 7.47248C23.2396 7.29764 23.0282 7.21022 22.7809 7.21022C22.6898 7.21022 22.5988 7.21896 22.5076 7.23645C22.4165 7.24811 22.332 7.28016 22.2539 7.33261C22.1758 7.37924 22.1042 7.45209 22.0392 7.55115C21.9741 7.65023 21.9221 7.78428 21.883 7.95327C21.8895 7.98242 21.8928 8.03487 21.8928 8.11063C21.8928 8.17474 21.8863 8.25342 21.8733 8.34665C21.8668 8.43407 21.857 8.53608 21.844 8.65262V8.69633C21.844 8.71965 21.844 8.77792 21.844 8.87116C21.844 8.95858 21.831 9.05184 21.8049 9.1509C21.7789 9.24416 21.7301 9.32866 21.6585 9.40441C21.5935 9.48019 21.4959 9.51805 21.3657 9.51805C21.2486 9.51805 21.1445 9.48601 21.0534 9.42189C20.9623 9.36362 20.9168 9.29077 20.9168 9.20335C20.9168 9.19171 20.92 9.148 20.9265 9.07222C20.9396 8.99647 20.9526 8.91197 20.9656 8.81871C20.9851 8.71965 20.9981 8.62349 21.0046 8.53023C21.0176 8.43117 21.0241 8.3525 21.0241 8.2942C21.0241 8.19515 21.0144 8.09606 20.9949 7.99698V7.88334C20.9949 7.58612 20.9298 7.30638 20.7997 7.04413C20.7021 6.97419 20.5492 6.92759 20.3409 6.90426C20.3019 6.91592 20.2531 6.93341 20.1945 6.95671C20.136 6.98004 20.0774 7.02957 20.0189 7.10532C19.9603 7.17525 19.9082 7.27726 19.8627 7.41128C19.8172 7.54533 19.7846 7.72599 19.7651 7.95327L19.7358 8.31169C19.7749 8.48652 19.7944 8.63806 19.7944 8.76626C19.7944 8.91779 19.7651 9.04018 19.7065 9.13341C19.6545 9.22083 19.5341 9.26454 19.3454 9.26454C19.2478 9.26454 19.1665 9.2558 19.1014 9.23832C19.0429 9.21501 18.9941 9.16838 18.955 9.09845C18.9225 9.02269 18.8997 8.91487 18.8867 8.775C18.8737 8.62931 18.8672 8.43699 18.8672 8.19804C18.8672 8.00572 18.8802 7.81925 18.9062 7.63857C18.9322 7.4521 18.9713 7.21314 19.0233 6.92174C19.0038 6.82269 18.9745 6.73235 18.9355 6.65075C18.903 6.56333 18.8867 6.49632 18.8867 6.44969C18.8867 6.35063 18.9355 6.26321 19.0331 6.18743C19.1307 6.11168 19.2446 6.07379 19.3747 6.07379C19.4723 6.07379 19.5601 6.10001 19.6382 6.15247L19.8041 6.34478C19.8822 6.28651 19.9505 6.24281 20.0091 6.21366C20.0677 6.17869 20.1197 6.15247 20.1653 6.13498C20.2108 6.1175 20.2564 6.10876 20.3019 6.10876C20.3474 6.10294 20.3995 6.10001 20.4581 6.10001C20.5426 6.10001 20.6077 6.10001 20.6533 6.10001C20.7053 6.10001 20.7574 6.10876 20.8094 6.12624C20.8615 6.14372 20.92 6.17287 20.9851 6.21366C21.0567 6.24863 21.1543 6.304 21.2779 6.37975C21.356 6.42638 21.4601 6.57792 21.5902 6.83432L21.6488 6.77313C21.7008 6.73235 21.7724 6.69156 21.8635 6.65075C21.9546 6.60996 22.0522 6.57499 22.1563 6.54585C22.2669 6.51088 22.3775 6.48465 22.4881 6.46717C22.6052 6.44387 22.7093 6.4322 22.8004 6.4322C23.0152 6.4322 23.2006 6.45261 23.3568 6.4934C23.5129 6.52836 23.6463 6.58374 23.7569 6.65949C23.8675 6.72942 23.9651 6.82269 24.0497 6.93923C24.1343 7.04997 24.2156 7.17818 24.2937 7.32386V7.38506C24.2937 7.43169 24.3002 7.51618 24.3132 7.63857C24.3263 7.76095 24.3393 7.88334 24.3523 8.00572C24.3653 8.12811 24.3783 8.23593 24.3913 8.32917C24.4043 8.41659 24.4108 8.45448 24.4108 8.44281C24.4108 8.44866 24.4108 8.46904 24.4108 8.50401C24.4173 8.53315 24.4206 8.57104 24.4206 8.61765C24.4271 8.65846 24.4304 8.70217 24.4304 8.74878C24.4369 8.78959 24.4401 8.82163 24.4401 8.84494V8.89739ZM33.5407 4.36914L34.2727 5.00729L32.8185 6.30982L34.2532 7.6036L33.5407 8.25049L32.0865 6.96545L30.6518 8.24175L29.9393 7.59486L31.3545 6.30982L29.9295 5.02477L30.6518 4.36914L32.0865 5.64544L33.5407 4.36914ZM42.7851 8.55646C42.6615 8.78959 42.4599 8.97606 42.1799 9.11593C41.9003 9.24998 41.5879 9.31699 41.243 9.31699C41.1975 9.31699 41.1228 9.31117 41.0185 9.29951C40.9145 9.28787 40.7974 9.26454 40.6672 9.22957C40.5436 9.19461 40.4134 9.148 40.2768 9.08971C40.1468 9.02562 40.0263 8.94402 39.9156 8.84494C39.8052 8.74003 39.714 8.61475 39.6424 8.46904C39.571 8.32335 39.535 8.15144 39.535 7.95327C39.5286 7.69102 39.5676 7.45209 39.6521 7.23645C39.7433 7.02082 39.8864 6.80228 40.0816 6.58081L40.3939 6.2224C40.7583 6.00096 41.1683 5.89021 41.6236 5.89021C41.871 5.89021 42.0662 5.93102 42.2092 6.0126C42.359 6.0942 42.4337 6.21076 42.4337 6.36227C42.4337 6.47883 42.3849 6.57499 42.2873 6.65075C42.1964 6.72068 42.0759 6.75565 41.9262 6.75565C41.9198 6.75565 41.8938 6.75275 41.8481 6.74691C41.8091 6.73527 41.7636 6.7236 41.7115 6.71194C41.6596 6.7003 41.6075 6.69156 41.5553 6.68571C41.5034 6.67408 41.4611 6.66823 41.4284 6.66823C41.279 6.66823 41.1063 6.73817 40.9111 6.87803C40.7226 7.0179 40.5729 7.23937 40.4622 7.54241C40.4167 7.67064 40.3939 7.77554 40.3939 7.85711C40.3939 8.02031 40.4427 8.14851 40.5403 8.24175C40.6446 8.33501 40.7583 8.40785 40.8819 8.4603C41.0057 8.50693 41.1195 8.53897 41.2235 8.55646C41.3278 8.56812 41.383 8.57394 41.3894 8.57394C41.4806 8.57394 41.5718 8.55064 41.6627 8.50401C41.7539 8.4574 41.8353 8.40495 41.9067 8.34665C41.9847 8.28838 42.0466 8.23886 42.0921 8.19804C42.1378 8.15144 42.1574 8.12811 42.1507 8.12811C42.2159 8.07566 42.2906 8.04943 42.3751 8.04943C42.4794 8.04943 42.5737 8.09899 42.6582 8.19804C42.7494 8.29131 42.7948 8.38747 42.7948 8.48652C42.7948 8.51567 42.7918 8.53897 42.7851 8.55646Z" fill="#00012F"/>
</g>
</g>
</svg>
