<svg width="94" height="20" viewBox="0 0 94 20" fill="none" xmlns="http://www.w3.org/2000/svg">
<g opacity="0.7">
<path d="M10.5869 7.72362H6.08291V6.2459C6.08291 5.31439 6.0401 4.73134 5.95456 4.49677C5.86893 4.2622 5.66571 4.14491 5.34474 4.14491C5.06658 4.14491 4.87758 4.24543 4.77774 4.44647C4.67789 4.64759 4.62793 5.16356 4.62793 5.99456V13.8055C4.62793 14.536 4.67789 15.0168 4.77774 15.248C4.87758 15.4792 5.07726 15.5948 5.37687 15.5948C5.70491 15.5948 5.92777 15.4642 6.04544 15.2028C6.16312 14.9414 6.22204 14.4321 6.22204 13.6748V11.7446H5.31269V9.27171H10.5869V18.0075H7.75188L7.3346 16.8414C7.02792 17.344 6.64104 17.7209 6.17388 17.9723C5.70672 18.2235 5.15574 18.3492 4.52102 18.3492C3.76502 18.3492 3.05708 18.1766 2.39738 17.8315C1.73769 17.4864 1.23667 17.0592 0.894328 16.5498C0.551989 16.0405 0.338006 15.506 0.25238 14.9465C0.166837 14.3869 0.124023 13.5475 0.124023 12.4283V7.59295C0.124023 6.03817 0.213183 4.90892 0.391501 4.2052C0.56982 3.50157 1.08152 2.8565 1.92669 2.27015C2.77185 1.68372 3.86486 1.3905 5.2057 1.3905C6.5251 1.3905 7.61991 1.64523 8.49005 2.15452C9.36012 2.66389 9.92712 3.26865 10.1911 3.96898C10.4549 4.66931 10.5868 5.68631 10.5869 7.01999V7.72362ZM15.7004 9.83469H11.6458V8.94001C11.6458 7.90798 11.7724 7.11208 12.0256 6.55249C12.2788 5.99291 12.787 5.49865 13.5501 5.06973C14.3132 4.6409 15.3045 4.4264 16.5242 4.4264C17.9862 4.4264 19.2754 4.66931 20.0172 5.15522C20.7589 5.64114 21.2046 6.23756 21.3544 6.94458C21.5042 7.6516 21.5791 9.1076 21.5791 11.3124V18.0075H17.1875V16.8212C16.9236 17.2971 16.583 17.654 16.1658 17.8918C15.7485 18.1297 15.2511 18.2487 14.6734 18.2487C13.9174 18.2487 13.2238 18.0493 12.5926 17.6506C11.9614 17.2518 11.6458 16.3789 11.6458 15.0319V13.9362C11.6458 12.9376 11.8134 12.2574 12.1486 11.8955C12.4838 11.5336 13.3147 11.1114 14.6413 10.6288C16.0606 10.1061 16.8202 9.75424 16.92 9.57336C17.0199 9.39239 17.0698 9.02376 17.0698 8.46756C17.0698 7.77053 17.0145 7.31651 16.904 7.10539C16.7934 6.89436 16.6097 6.78881 16.353 6.78872C16.0606 6.78881 15.8787 6.87759 15.8074 7.05518C15.736 7.23276 15.7004 7.69347 15.7004 8.43742V9.83469ZM17.0698 11.6643C16.378 12.1401 15.9768 12.5389 15.8662 12.8605C15.7557 13.1822 15.7004 13.6446 15.7004 14.2478C15.7004 14.938 15.7485 15.3837 15.8448 15.5848C15.9412 15.7858 16.1319 15.8863 16.4172 15.8863C16.6882 15.8863 16.8647 15.8076 16.9467 15.6501C17.0287 15.4926 17.0698 15.0788 17.0698 14.4086V11.6643ZM27.1475 4.66766L27.0726 5.93426C27.4078 5.43167 27.8072 5.0547 28.2708 4.80336C28.7344 4.55211 29.2621 4.4264 29.8541 4.4264C31.0095 4.4264 31.9189 4.92908 32.5822 5.93426C32.946 5.43167 33.356 5.0547 33.8125 4.80336C34.269 4.55211 34.7753 4.4264 35.3316 4.4264C36.0662 4.4264 36.6742 4.59399 37.1557 4.92899C37.6371 5.26417 37.9455 5.67458 38.081 6.1605C38.2166 6.64632 38.2843 7.43544 38.2843 8.52786V18.0075H34.0906V9.31194C34.0906 8.1727 34.0496 7.46733 33.9676 7.19592C33.8856 6.92451 33.6948 6.78881 33.3953 6.78872C33.0885 6.78881 32.8907 6.92277 32.8015 7.19088C32.7123 7.4589 32.6678 8.16592 32.6678 9.31194V18.0075H28.4741V9.53313C28.4741 8.2263 28.4402 7.44222 28.3724 7.1808C28.3047 6.91947 28.1175 6.78881 27.8108 6.78872C27.6182 6.78881 27.4541 6.85744 27.3186 6.99479C27.1831 7.13224 27.1083 7.29974 27.0941 7.49748C27.0798 7.69521 27.0726 8.1157 27.0726 8.75904V18.0075H22.7385V4.66766H27.1475ZM49.5709 11.5737H43.9758V14.4589C43.9758 15.062 44.0221 15.4507 44.1149 15.625C44.2076 15.7992 44.3859 15.8863 44.6498 15.8863C44.9779 15.8863 45.1971 15.7708 45.3077 15.5395C45.4183 15.3083 45.4736 14.861 45.4736 14.1975V12.4383H49.5709V13.4235C49.5709 14.2478 49.5156 14.881 49.4051 15.3234C49.2946 15.7657 49.0361 16.2382 48.6296 16.7408C48.2229 17.2435 47.7076 17.6204 47.0836 17.8718C46.4596 18.123 45.6768 18.2487 44.7354 18.2487C43.8224 18.2487 43.0165 18.1248 42.3176 17.8767C41.6186 17.6288 41.0747 17.2887 40.6861 16.8564C40.2974 16.4242 40.0282 15.9483 39.8784 15.429C39.7286 14.9095 39.6537 14.154 39.6537 13.1621V9.27171C39.6537 8.10563 39.8213 7.18584 40.1565 6.51227C40.4917 5.83878 41.0409 5.32272 41.804 4.96418C42.5672 4.60571 43.4444 4.4264 44.4359 4.4264C45.6483 4.4264 46.6486 4.64255 47.4366 5.07477C48.2248 5.50708 48.7775 6.08005 49.0949 6.79376C49.4123 7.50755 49.5709 8.51109 49.5709 9.80454V11.5737ZM45.2382 9.40247V8.42734C45.2382 7.73709 45.1989 7.2914 45.1205 7.09036C45.0421 6.88932 44.8816 6.78881 44.6391 6.78872C44.3395 6.78881 44.1541 6.87421 44.0828 7.0451C44.0114 7.21599 43.9758 7.67671 43.9758 8.42734V9.40247H45.2382Z" fill="#2D2D2D"/>
<path d="M60.6649 6.28455H56.4819V5.07824C56.4819 4.51535 56.4284 4.1568 56.3214 4.00259C56.2144 3.84847 56.0361 3.77141 55.7865 3.77141C55.5154 3.77141 55.3104 3.87531 55.1714 4.08304C55.0323 4.29085 54.9627 4.60579 54.9627 5.02802C54.9627 5.57084 55.0412 5.97969 55.1981 6.2544C55.3479 6.5292 55.7722 6.8609 56.4712 7.2496C58.4753 8.36877 59.7377 9.28699 60.2583 10.004C60.779 10.7211 61.0393 11.8772 61.0393 13.4722C61.0393 14.6316 60.8949 15.4861 60.6061 16.0356C60.3172 16.5852 59.7591 17.0459 58.9318 17.4178C58.1044 17.7897 57.1416 17.9757 56.0433 17.9757C54.8379 17.9757 53.8091 17.7612 52.9569 17.3324C52.1045 16.9035 51.5464 16.3573 51.2825 15.6938C51.0187 15.0303 50.8867 14.0887 50.8867 12.869V11.8034H55.0697V13.7838C55.0697 14.3936 55.1286 14.7857 55.2462 14.9599C55.3639 15.1342 55.5726 15.2213 55.8721 15.2213C56.1716 15.2213 56.3946 15.1107 56.5407 14.8895C56.6869 14.6684 56.7601 14.34 56.7601 13.9044C56.7601 12.9461 56.6209 12.3195 56.3428 12.0246C56.0576 11.7298 55.355 11.2372 54.2352 10.5469C53.1155 9.84988 52.2334 9.3439 51.8696 9.02896C51.5059 8.71394 51.2046 8.27833 50.9656 7.72205C50.7267 7.16585 50.6072 6.45544 50.6072 5.59091C50.6072 4.34446 50.7766 3.2351 51.1154 2.65875C51.4542 2.0824 52.0016 1.63167 52.7576 1.30666C53.5136 0.981642 54.5669 0.819092 55.6367 0.819092C56.8064 0.819092 57.8031 0.996672 58.6269 1.35183C59.4506 1.70708 59.9963 2.15442 60.2637 2.69394C60.5311 3.23337 60.6648 4.34776 60.6649 5.64121V6.28455ZM67.0785 2.51488V4.12101H68.2914V6.23207H67.0785V13.8642C67.0785 14.7421 67.1266 15.2314 67.2229 15.3319C67.3192 15.4325 67.5332 15.4827 68.2392 15.4827V17.634H66.4954C65.5112 17.634 64.8087 17.5954 64.3878 17.5183C63.967 17.4413 63.5962 17.2637 63.2753 16.9856C62.9543 16.7074 62.7546 16.3891 62.6761 16.0305C62.5977 15.672 62.5585 14.8293 62.5585 13.5024V6.23207H61.6278V4.12101H62.5585V2.51488H67.0785ZM79.1151 8.97866V12.2457C79.1151 13.4454 79.051 14.325 78.9228 14.8846C78.7946 15.4442 78.5193 15.9669 78.0986 16.4528C77.6778 16.9387 77.138 17.2972 76.4781 17.5284C75.8182 17.7596 75.0606 17.8752 74.2052 17.8752C73.2491 17.8752 72.4395 17.7764 71.7763 17.5786C71.113 17.381 70.5977 17.0827 70.2304 16.6839C69.8631 16.2853 69.601 15.8027 69.4441 15.2364C69.2872 14.6701 69.2087 13.8207 69.2087 12.688V9.27023C69.2087 8.03038 69.3513 7.06194 69.6367 6.365C69.922 5.66806 70.4355 5.10847 71.1772 4.68624C71.9189 4.26401 72.8675 4.05289 74.0229 4.05289C74.9932 4.05289 75.8256 4.1886 76.5208 4.46001C77.216 4.73142 77.7526 5.08501 78.1306 5.52054C78.5086 5.95623 78.7675 6.40522 78.9064 6.86759C79.0461 7.33005 79.1151 8.03377 79.1151 8.97866ZM74.7935 7.97339C74.7935 7.28982 74.7541 6.85925 74.6752 6.68167C74.5971 6.50409 74.4295 6.4153 74.1723 6.41521C73.9159 6.4153 73.7447 6.50409 73.6592 6.68167C73.5736 6.85925 73.5308 7.28982 73.5308 7.97339V13.9949C73.5308 14.6248 73.5736 15.0353 73.6592 15.2264C73.7447 15.4173 73.9124 15.5128 74.1616 15.5128C74.4188 15.5128 74.5881 15.4258 74.6703 15.2515C74.7524 15.0772 74.7935 14.702 74.7935 14.1256V7.97339ZM84.712 4.29416L84.6372 5.47032C85.0218 4.99449 85.4466 4.63933 85.9101 4.40475C86.3736 4.17018 86.8798 4.05289 87.4295 4.05289C89.9934 3.95455 90.8882 5.43913 90.9195 7.98346V13.6029C90.9195 14.8159 90.843 15.6788 90.6894 16.1914C89.8397 17.9802 87.5166 18.2637 85.8887 17.5234C85.4318 17.2888 85.0152 16.9403 84.6372 16.4779V19.5339H80.3148V4.29416H84.712ZM85.9421 8.17442C85.9421 7.35012 85.9101 6.85091 85.846 6.67663C85.7819 6.50236 85.6036 6.4153 85.311 6.41521C85.0259 6.4153 84.8418 6.51582 84.7597 6.71686C84.6775 6.9179 84.6372 7.40381 84.6372 8.17442V13.7034C84.6372 14.5076 84.6799 15.0102 84.7654 15.2113C84.8509 15.4123 85.0366 15.5128 85.3217 15.5128C85.5995 15.5128 85.7729 15.4207 85.8402 15.2364C85.9085 15.0521 85.9421 14.6048 85.9421 13.8943V8.17442Z" fill="#2D2D2D"/>
<path d="M92.3657 4.2381V3.0271H92.8734C92.9761 3.0271 93.0533 3.03796 93.1067 3.05968C93.1593 3.08149 93.202 3.11989 93.2341 3.17497C93.2653 3.23005 93.2817 3.29086 93.2817 3.3575C93.2817 3.44342 93.2554 3.51588 93.2029 3.57478C93.1503 3.63369 93.0689 3.67113 92.9589 3.68712C92.9991 3.70753 93.0295 3.7276 93.0501 3.74741C93.0944 3.79042 93.1363 3.84411 93.1757 3.90849L93.3754 4.2381H93.1848L93.0328 3.98615C92.9884 3.91344 92.9523 3.85783 92.9235 3.81926C92.8948 3.78077 92.8693 3.75375 92.8471 3.73829C92.8241 3.72291 92.8011 3.71214 92.7773 3.70614C92.7609 3.70223 92.7321 3.70032 92.6935 3.70032H92.5177V4.2381H92.3657ZM92.5177 3.56158H92.843C92.9129 3.56158 92.9671 3.55402 93.0057 3.53882C93.0451 3.5237 93.0747 3.49946 93.0944 3.46619C93.115 3.43282 93.1256 3.3966 93.1256 3.3575C93.1256 3.30025 93.1059 3.25316 93.0665 3.21623C93.027 3.1794 92.9646 3.16089 92.88 3.16089H92.5177V3.56158Z" fill="#2D2D2D"/>
<path d="M93.7237 3.63925C93.7237 4.17912 93.3096 4.61672 92.7995 4.61672C92.2893 4.61672 91.8752 4.17912 91.8752 3.63925C91.8752 3.09947 92.2893 2.66187 92.7995 2.66187C93.3096 2.66187 93.7237 3.09947 93.7237 3.63925Z" stroke="#2D2D2D" stroke-width="0.18935"/>
</g>
</svg>
