<svg width="269" height="263" viewBox="0 0 269 263" fill="none" xmlns="http://www.w3.org/2000/svg">
<mask id="mask0_1286_41" style="mask-type:alpha" maskUnits="userSpaceOnUse" x="2" y="0" width="256" height="263">
<path d="M257.307 0H2V263H257.307V0Z" fill="#EEE9E9"/>
</mask>
<g mask="url(#mask0_1286_41)">
<path d="M310.057 249.199H-105.212V249.747H310.057V249.199Z" fill="#EDE2FF" fill-opacity="0.45"/>
<path d="M310.057 196.881H-105.212V197.429H310.057V196.881Z" fill="#EDE2FF" fill-opacity="0.45"/>
<path d="M310.057 144.562H-105.212V145.11H310.057V144.562Z" fill="#EDE2FF" fill-opacity="0.45"/>
<path d="M310.057 92.2422H-105.212V92.7904H310.057V92.2422Z" fill="#EDE2FF" fill-opacity="0.45"/>
<path d="M310.057 39.9229H-105.212V40.4711H310.057V39.9229Z" fill="#EDE2FF" fill-opacity="0.45"/>
<path d="M206.515 -116.778H205.965V406.449H206.515V-116.778Z" fill="#EDE2FF" fill-opacity="0.45"/>
<path d="M154.597 -116.778H154.047V406.449H154.597V-116.778Z" fill="#EDE2FF" fill-opacity="0.45"/>
<path d="M102.698 -116.778H102.148V406.449H102.698V-116.778Z" fill="#EDE2FF" fill-opacity="0.45"/>
<path d="M50.7796 -116.778H50.23V406.449H50.7796V-116.778Z" fill="#EDE2FF" fill-opacity="0.45"/>
<path d="M310.057 262.43H-105.212V262.704H310.057V262.43Z" fill="#EDE2FF" fill-opacity="0.45"/>
<path d="M310.057 249.346H-105.212V249.62H310.057V249.346Z" fill="#EDE2FF" fill-opacity="0.45"/>
<path d="M310.057 236.261H-105.212V236.536H310.057V236.261Z" fill="#EDE2FF" fill-opacity="0.45"/>
<path d="M310.057 223.177H-105.212V223.452H310.057V223.177Z" fill="#EDE2FF" fill-opacity="0.45"/>
<path d="M310.057 210.093H-105.212V210.368H310.057V210.093Z" fill="#EDE2FF" fill-opacity="0.45"/>
<path d="M310.057 197.026H-105.212V197.301H310.057V197.026Z" fill="#EDE2FF" fill-opacity="0.45"/>
<path d="M310.057 183.942H-105.212V184.217H310.057V183.942Z" fill="#EDE2FF" fill-opacity="0.45"/>
<path d="M310.057 170.857H-105.212V171.132H310.057V170.857Z" fill="#EDE2FF" fill-opacity="0.45"/>
<path d="M310.057 157.773H-105.212V158.048H310.057V157.773Z" fill="#EDE2FF" fill-opacity="0.45"/>
<path d="M310.057 144.689H-105.212V144.964H310.057V144.689Z" fill="#EDE2FF" fill-opacity="0.45"/>
<path d="M310.057 131.623H-105.212V131.898H310.057V131.623Z" fill="#EDE2FF" fill-opacity="0.45"/>
<path d="M310.057 118.539H-105.212V118.814H310.057V118.539Z" fill="#EDE2FF" fill-opacity="0.45"/>
<path d="M310.057 105.454H-105.212V105.729H310.057V105.454Z" fill="#EDE2FF" fill-opacity="0.45"/>
<path d="M310.057 92.3701H-105.212V92.6449H310.057V92.3701Z" fill="#EDE2FF" fill-opacity="0.45"/>
<path d="M310.057 79.2852H-105.212V79.56H310.057V79.2852Z" fill="#EDE2FF" fill-opacity="0.45"/>
<path d="M310.057 66.2197H-105.212V66.4945H310.057V66.2197Z" fill="#EDE2FF" fill-opacity="0.45"/>
<path d="M310.057 53.1357H-105.212V53.4105H310.057V53.1357Z" fill="#EDE2FF" fill-opacity="0.45"/>
<path d="M310.057 40.0508H-105.212V40.3256H310.057V40.0508Z" fill="#EDE2FF" fill-opacity="0.45"/>
<path d="M310.057 26.9668H-105.212V27.2416H310.057V26.9668Z" fill="#EDE2FF" fill-opacity="0.45"/>
<path d="M310.057 13.8818H-105.212V14.1566H310.057V13.8818Z" fill="#EDE2FF" fill-opacity="0.45"/>
<path d="M310.057 0.816406H-105.212V1.0912H310.057V0.816406Z" fill="#EDE2FF" fill-opacity="0.45"/>
<path d="M245.297 -116.778H245.023V406.449H245.297V-116.778Z" fill="#EDE2FF" fill-opacity="0.45"/>
<path d="M232.327 -116.778H232.052V406.449H232.327V-116.778Z" fill="#EDE2FF" fill-opacity="0.45"/>
<path d="M219.357 -116.778H219.082V406.449H219.357V-116.778Z" fill="#EDE2FF" fill-opacity="0.45"/>
<path d="M206.368 -116.778H206.094V406.449H206.368V-116.778Z" fill="#EDE2FF" fill-opacity="0.45"/>
<path d="M193.398 -116.778H193.123V406.449H193.398V-116.778Z" fill="#EDE2FF" fill-opacity="0.45"/>
<path d="M180.428 -116.778H180.153V406.449H180.428V-116.778Z" fill="#EDE2FF" fill-opacity="0.45"/>
<path d="M167.439 -116.778H167.164V406.449H167.439V-116.778Z" fill="#EDE2FF" fill-opacity="0.45"/>
<path d="M154.469 -116.778H154.194V406.449H154.469V-116.778Z" fill="#EDE2FF" fill-opacity="0.45"/>
<path d="M141.48 -116.778H141.205V406.449H141.48V-116.778Z" fill="#EDE2FF" fill-opacity="0.45"/>
<path d="M128.51 -116.778H128.235V406.449H128.51V-116.778Z" fill="#EDE2FF" fill-opacity="0.45"/>
<path d="M115.539 -116.778H115.265V406.449H115.539V-116.778Z" fill="#EDE2FF" fill-opacity="0.45"/>
<path d="M102.551 -116.778H102.276V406.449H102.551V-116.778Z" fill="#EDE2FF" fill-opacity="0.45"/>
<path d="M89.5807 -116.778H89.3059V406.449H89.5807V-116.778Z" fill="#EDE2FF" fill-opacity="0.45"/>
<path d="M76.6102 -116.778H76.3354V406.449H76.6102V-116.778Z" fill="#EDE2FF" fill-opacity="0.45"/>
<path d="M63.6215 -116.778H63.3467V406.449H63.6215V-116.778Z" fill="#EDE2FF" fill-opacity="0.45"/>
<path d="M50.6515 -116.778H50.3767V406.449H50.6515V-116.778Z" fill="#EDE2FF" fill-opacity="0.45"/>
<path d="M37.681 -116.778H37.4062V406.449H37.681V-116.778Z" fill="#EDE2FF" fill-opacity="0.45"/>
<path d="M24.6925 -116.778H24.4177V406.449H24.6925V-116.778Z" fill="#EDE2FF" fill-opacity="0.45"/>
<path d="M11.722 -116.778H11.4473V406.449H11.722V-116.778Z" fill="#EDE2FF" fill-opacity="0.45"/>
<path opacity="0.25" d="M12.0907 143.198H15.9907C17.5027 143.198 18.4627 142.19 18.4627 140.846C18.4627 139.934 17.9947 139.166 17.1907 138.782C17.8027 138.41 18.1387 137.762 18.1387 136.982C18.1387 135.758 17.2507 134.798 15.7747 134.798H12.0907V143.198ZM13.4107 138.278V136.034H15.6067C16.4227 136.034 16.8667 136.49 16.8667 137.126C16.8667 137.81 16.4347 138.278 15.6307 138.278H13.4107ZM13.4107 141.962V139.478H15.7507C16.6027 139.478 17.0947 139.994 17.0947 140.714C17.0947 141.446 16.6027 141.962 15.7507 141.962H13.4107ZM19.507 143.198H20.827V137.39H19.507V143.198ZM20.155 134.81C19.687 134.81 19.315 135.194 19.315 135.662C19.315 136.13 19.687 136.514 20.155 136.514C20.623 136.514 21.007 136.13 21.007 135.662C21.007 135.194 20.623 134.81 20.155 134.81ZM21.6871 138.542H22.6951V141.158C22.6951 142.538 23.5591 143.378 24.9871 143.378C26.2471 143.378 27.1591 142.466 27.0871 141.062L25.8271 140.942C25.8871 141.71 25.5271 142.178 24.9391 142.178C24.3631 142.178 24.0151 141.83 24.0151 141.194V138.542H26.8711V137.39H24.0151V135.686H22.6951V137.39H21.6871V138.542ZM30.6191 137.21C28.8911 137.21 27.7031 138.554 27.7031 140.306C27.7031 142.07 28.9031 143.39 30.7031 143.39C32.1551 143.39 33.3071 142.418 33.4511 141.086L32.2151 140.774C32.1311 141.578 31.4831 142.118 30.6791 142.118C29.6831 142.118 29.0231 141.35 29.0231 140.21C29.0231 139.73 29.1671 139.322 29.4671 138.986C29.7671 138.65 30.1511 138.482 30.6191 138.482C31.3511 138.482 31.8791 138.914 31.9871 139.574L33.1631 139.166C32.9111 137.978 31.9511 137.21 30.6191 137.21ZM37.0786 137.21C35.3146 137.21 34.0546 138.566 34.0546 140.306C34.0546 142.046 35.3026 143.378 37.0786 143.378C38.8666 143.378 40.0906 142.046 40.0906 140.306C40.0906 138.566 38.8546 137.21 37.0786 137.21ZM37.0786 142.106C36.5866 142.106 36.1786 141.938 35.8546 141.602C35.5306 141.254 35.3746 140.822 35.3746 140.306C35.3746 139.778 35.5306 139.346 35.8546 138.998C36.1786 138.65 36.5866 138.482 37.0786 138.482C37.5706 138.482 37.9666 138.662 38.2906 139.01C38.6146 139.358 38.7706 139.79 38.7706 140.306C38.7706 140.822 38.6146 141.254 38.2906 141.602C37.9666 141.938 37.5706 142.106 37.0786 142.106ZM41.1398 143.198H42.4598V137.39H41.1398V143.198ZM41.7878 134.81C41.3198 134.81 40.9478 135.194 40.9478 135.662C40.9478 136.13 41.3198 136.514 41.7878 136.514C42.2558 136.514 42.6398 136.13 42.6398 135.662C42.6398 135.194 42.2558 134.81 41.7878 134.81ZM43.7999 143.198H45.1199V140.054C45.1199 139.034 45.6479 138.398 46.4639 138.398C47.2199 138.398 47.5919 138.83 47.5919 139.706V143.198H48.9119V139.454C48.9119 138.062 48.1679 137.21 46.8839 137.21C46.1399 137.21 45.5519 137.474 45.1199 138.002V137.39H43.7999V143.198Z" fill="#410EAD"/>
</g>
<line x1="182.215" y1="64.4854" x2="182.215" y2="122.767" stroke="#410EAD" stroke-dasharray="3 3"/>
<line x1="181.206" y1="122.787" x2="128.671" y2="122.787" stroke="#410EAD" stroke-width="2"/>
<line y1="-1" x2="77.5685" y2="-1" transform="matrix(0.671043 -0.741419 0.743073 0.669211 129.671 123.765)" stroke="#410EAD" stroke-width="2"/>
<path d="M135.072 115.91C136.767 116.59 139.72 118.816 137.977 122.277" stroke="#410EAD"/>
<path opacity="0.25" d="M130.244 5.00774C129.854 4.61721 129.221 4.61721 128.83 5.00774L122.466 11.3717C122.076 11.7622 122.076 12.3954 122.466 12.7859C122.857 13.1764 123.49 13.1764 123.88 12.7859L129.537 7.12906L135.194 12.7859C135.584 13.1764 136.218 13.1764 136.608 12.7859C136.999 12.3954 136.999 11.7622 136.608 11.3717L130.244 5.00774ZM128.83 241.506C129.221 241.896 129.854 241.896 130.244 241.506L136.608 235.142C136.999 234.751 136.999 234.118 136.608 233.728C136.218 233.337 135.584 233.337 135.194 233.728L129.537 239.384L123.88 233.728C123.49 233.337 122.857 233.337 122.466 233.728C122.076 234.118 122.076 234.751 122.466 235.142L128.83 241.506ZM128.537 5.71484L128.537 240.799L130.537 240.799L130.537 5.71484L128.537 5.71484Z" fill="#410EAD"/>
<path opacity="0.25" d="M10.1484 121.704C9.75784 122.095 9.75784 122.728 10.1484 123.118L16.5123 129.482C16.9028 129.873 17.536 129.873 17.9265 129.482C18.3171 129.092 18.3171 128.459 17.9265 128.068L12.2697 122.411L17.9265 116.754C18.3171 116.364 18.3171 115.731 17.9265 115.34C17.536 114.95 16.9028 114.95 16.5123 115.34L10.1484 121.704ZM247.23 123.118C247.621 122.728 247.621 122.095 247.23 121.704L240.866 115.34C240.476 114.95 239.843 114.95 239.452 115.34C239.062 115.731 239.062 116.364 239.452 116.754L245.109 122.411L239.452 128.068C239.062 128.459 239.062 129.092 239.452 129.482C239.843 129.873 240.476 129.873 240.866 129.482L247.23 123.118ZM10.8555 123.411L246.523 123.411V121.411L10.8555 121.411V123.411Z" fill="#410EAD"/>
<path d="M203.926 100.368C205.377 105.187 206.378 110.203 206.877 115.367L205.882 115.463C206.122 117.946 206.245 120.465 206.245 123.012C206.245 125.559 206.122 128.077 205.882 130.561L206.877 130.657C206.378 135.821 205.377 140.837 203.926 145.656L202.968 145.368C201.501 150.239 199.566 154.906 197.217 159.318L198.099 159.788C195.689 164.314 192.847 168.574 189.63 172.513L188.855 171.88C185.664 175.786 182.099 179.372 178.214 182.582L178.851 183.353C174.927 186.595 170.682 189.459 166.171 191.889L165.696 191.009C161.294 193.38 156.635 195.333 151.771 196.815L152.063 197.772C147.247 199.239 142.233 200.251 137.071 200.756L136.973 199.761C134.491 200.004 131.973 200.128 129.426 200.128C126.879 200.128 124.361 200.004 121.878 199.761L121.781 200.756C116.619 200.251 111.605 199.239 106.789 197.772L107.081 196.815C102.217 195.333 97.558 193.38 93.1555 191.009L92.6813 191.889C88.1696 189.459 83.9244 186.595 80.0009 183.353L80.6379 182.582C76.7531 179.372 73.1876 175.786 69.9967 171.88L69.2223 172.513C66.0046 168.574 63.163 164.314 60.7525 159.788L61.6351 159.318C59.2856 154.906 57.3511 150.239 55.8838 145.368L54.9263 145.656C53.4745 140.837 52.474 135.821 51.9744 130.657L52.9698 130.561C52.7294 128.077 52.6064 125.559 52.6064 123.012C52.6064 120.465 52.7294 117.946 52.9698 115.463L51.9744 115.367C52.474 110.203 53.4745 105.187 54.9263 100.368L55.8838 100.656C57.3511 95.785 59.2856 91.1175 61.6351 86.706L60.7525 86.2359C63.163 81.7097 66.0046 77.4496 69.2223 73.5109L69.9967 74.1436C73.1876 70.2377 76.7531 66.6521 80.6379 63.442L80.0009 62.6711C83.9244 59.4291 88.1696 56.5651 92.6813 54.1347L93.1555 55.0151C97.558 52.6435 102.217 50.6904 107.081 49.2085L106.789 48.2519C111.605 46.7843 116.619 45.7729 121.781 45.2677L121.878 46.2629C124.361 46.0199 126.879 45.8955 129.426 45.8955C131.973 45.8955 134.491 46.0199 136.973 46.2629L137.071 45.2677C142.233 45.7729 147.247 46.7843 152.063 48.2519L151.771 49.2085C156.635 50.6904 161.294 52.6435 165.696 55.0151L166.171 54.1347C170.682 56.5651 174.927 59.4291 178.851 62.6711L178.214 63.442C182.099 66.6521 185.664 70.2377 188.855 74.1436L189.63 73.5109C192.847 77.4496 195.689 81.7097 198.099 86.2359L197.217 86.706C199.566 91.1175 201.501 95.785 202.968 100.656L203.926 100.368Z" stroke="#410EAD" stroke-width="2" stroke-dasharray="14 14"/>
<ellipse cx="181.224" cy="64.9757" rx="2.94585" ry="2.93855" fill="#09C928"/>
<path d="M147.6 111.121C148.256 111.121 148.796 111.529 149.22 112.345C149.604 113.081 149.796 113.941 149.796 114.925C149.796 116.077 149.548 117.037 149.052 117.805C148.644 118.429 148.16 118.741 147.6 118.741C146.944 118.741 146.404 118.333 145.98 117.517C145.596 116.781 145.404 115.921 145.404 114.937C145.404 113.785 145.652 112.825 146.148 112.057C146.556 111.433 147.04 111.121 147.6 111.121ZM146.46 115.441C146.5 116.721 146.792 117.453 147.336 117.637C147.416 117.669 147.504 117.685 147.6 117.685C148.312 117.685 148.692 116.937 148.74 115.441H146.46ZM147.6 112.177C147.016 112.177 146.652 112.725 146.508 113.821C146.484 114.013 146.468 114.213 146.46 114.421H148.74C148.692 112.925 148.312 112.177 147.6 112.177Z" fill="#FB5A5A"/>
<path opacity="0.25" d="M195.744 179.581H199.644C201.156 179.581 202.116 178.573 202.116 177.229C202.116 176.317 201.648 175.549 200.844 175.165C201.456 174.793 201.792 174.145 201.792 173.365C201.792 172.141 200.904 171.181 199.428 171.181H195.744V179.581ZM197.064 174.661V172.417H199.26C200.076 172.417 200.52 172.873 200.52 173.509C200.52 174.193 200.088 174.661 199.284 174.661H197.064ZM197.064 178.345V175.861H199.404C200.256 175.861 200.748 176.377 200.748 177.097C200.748 177.829 200.256 178.345 199.404 178.345H197.064ZM203.303 179.581H204.623L204.647 172.993L209.063 179.581H210.623V171.181H209.303V177.589L204.995 171.181H203.303V179.581ZM212.115 179.581H216.015C217.527 179.581 218.487 178.573 218.487 177.229C218.487 176.317 218.019 175.549 217.215 175.165C217.827 174.793 218.163 174.145 218.163 173.365C218.163 172.141 217.275 171.181 215.799 171.181H212.115V179.581ZM213.435 174.661V172.417H215.631C216.447 172.417 216.891 172.873 216.891 173.509C216.891 174.193 216.459 174.661 215.655 174.661H213.435ZM213.435 178.345V175.861H215.775C216.627 175.861 217.119 176.377 217.119 177.097C217.119 177.829 216.627 178.345 215.775 178.345H213.435Z" fill="#410EAD"/>
<path opacity="0.25" d="M213.144 137.686H214.584L215.496 135.442H219.204L220.104 137.686H221.556L218.124 129.286H216.576L213.144 137.686ZM216 134.182L217.344 130.846L218.688 134.182H216ZM221.055 131.878L223.383 137.686H224.763L227.103 131.878H225.723L224.079 135.97L222.435 131.878H221.055ZM229.727 134.158C228.251 134.398 227.519 135.022 227.519 136.138C227.519 137.002 228.179 137.866 229.499 137.866C230.231 137.866 230.795 137.506 231.071 137.014V137.686H232.307V133.786C232.307 132.502 231.443 131.698 229.895 131.698C228.575 131.698 227.459 132.502 227.531 133.954L228.767 134.05C228.707 133.294 229.127 132.814 229.931 132.814C230.651 132.814 231.071 133.198 231.071 133.714V133.93L229.727 134.158ZM229.751 136.678C229.163 136.678 228.767 136.402 228.767 135.982C228.767 135.502 229.199 135.286 229.919 135.154L231.071 134.962V135.238C231.071 136.102 230.531 136.678 229.751 136.678ZM233.652 137.686H234.972V129.286H233.652V137.686ZM238.329 134.158C236.853 134.398 236.121 135.022 236.121 136.138C236.121 137.002 236.781 137.866 238.101 137.866C238.833 137.866 239.397 137.506 239.673 137.014V137.686H240.909V133.786C240.909 132.502 240.045 131.698 238.497 131.698C237.177 131.698 236.061 132.502 236.133 133.954L237.369 134.05C237.309 133.294 237.729 132.814 238.533 132.814C239.253 132.814 239.673 133.198 239.673 133.714V133.93L238.329 134.158ZM238.353 136.678C237.765 136.678 237.369 136.402 237.369 135.982C237.369 135.502 237.801 135.286 238.521 135.154L239.673 134.962V135.238C239.673 136.102 239.133 136.678 238.353 136.678ZM242.254 137.686H243.574V134.542C243.574 133.522 244.102 132.886 244.918 132.886C245.674 132.886 246.046 133.318 246.046 134.194V137.686H247.366V133.942C247.366 132.55 246.622 131.698 245.338 131.698C244.594 131.698 244.006 131.962 243.574 132.49V131.878H242.254V137.686ZM251.327 131.698C249.599 131.698 248.411 133.042 248.411 134.794C248.411 136.558 249.611 137.878 251.411 137.878C252.863 137.878 254.015 136.906 254.159 135.574L252.923 135.262C252.839 136.066 252.191 136.606 251.387 136.606C250.391 136.606 249.731 135.838 249.731 134.698C249.731 134.218 249.875 133.81 250.175 133.474C250.475 133.138 250.859 132.97 251.327 132.97C252.059 132.97 252.587 133.402 252.695 134.062L253.871 133.654C253.619 132.466 252.659 131.698 251.327 131.698ZM255.098 137.686H256.418V134.542C256.418 133.522 256.946 132.886 257.762 132.886C258.518 132.886 258.89 133.318 258.89 134.194V137.686H260.21V133.942C260.21 132.55 259.466 131.698 258.182 131.698C257.438 131.698 256.85 131.962 256.418 132.49V129.286H255.098V137.686ZM264.135 131.698C262.419 131.698 261.255 133.054 261.255 134.794C261.255 136.546 262.431 137.866 264.195 137.866C265.563 137.866 266.715 136.978 266.907 135.718L265.683 135.49C265.575 136.21 264.975 136.69 264.219 136.69C263.295 136.69 262.635 136.09 262.491 135.094H266.751V134.482C266.751 132.85 265.707 131.698 264.135 131.698ZM262.551 134.062C262.755 133.33 263.355 132.838 264.135 132.838C264.951 132.838 265.527 133.378 265.563 134.062H262.551Z" fill="#410EAD"/>
<path opacity="0.25" d="M175.764 196.937C173.28 196.889 171.528 198.881 171.564 201.341C171.564 203.849 173.304 205.697 175.884 205.697C177.912 205.733 179.628 204.317 179.82 202.445L178.524 202.169C178.38 203.513 177.228 204.425 175.86 204.425C174.084 204.425 172.884 203.105 172.884 201.185C172.884 199.553 174.06 198.209 175.752 198.209C177.036 198.209 177.936 198.965 178.14 200.129L179.352 199.721C179.04 198.065 177.636 196.937 175.764 196.937ZM182.829 201.989C181.353 202.229 180.621 202.853 180.621 203.969C180.621 204.833 181.281 205.697 182.601 205.697C183.333 205.697 183.897 205.337 184.173 204.845V205.517H185.409V201.617C185.409 200.333 184.545 199.529 182.997 199.529C181.677 199.529 180.561 200.333 180.633 201.785L181.869 201.881C181.809 201.125 182.229 200.645 183.033 200.645C183.753 200.645 184.173 201.029 184.173 201.545V201.761L182.829 201.989ZM182.853 204.509C182.265 204.509 181.869 204.233 181.869 203.813C181.869 203.333 182.301 203.117 183.021 202.985L184.173 202.793V203.069C184.173 203.933 183.633 204.509 182.853 204.509ZM186.754 205.517H188.074V202.313C188.074 201.305 188.518 200.741 189.154 200.741C189.694 200.741 190.018 201.125 190.018 201.857C190.018 201.965 190.018 202.037 190.006 202.097L191.314 201.893C191.362 200.309 190.678 199.517 189.574 199.517C188.914 199.517 188.41 199.793 188.074 200.261V199.709H186.754V205.517ZM194.627 199.529C193.055 199.529 191.915 200.909 191.915 202.613C191.915 204.341 193.055 205.697 194.627 205.697C195.431 205.697 196.079 205.409 196.547 204.833V205.517H197.867V197.117H196.547V200.393C196.067 199.817 195.431 199.529 194.627 199.529ZM194.903 204.425C193.907 204.425 193.235 203.669 193.235 202.613C193.235 202.097 193.391 201.665 193.703 201.317C194.015 200.969 194.411 200.801 194.903 200.801C195.383 200.801 195.779 200.969 196.079 201.317C196.391 201.665 196.547 202.097 196.547 202.613C196.547 203.669 195.875 204.425 194.903 204.425ZM201.227 201.989C199.751 202.229 199.019 202.853 199.019 203.969C199.019 204.833 199.679 205.697 200.999 205.697C201.731 205.697 202.295 205.337 202.571 204.845V205.517H203.807V201.617C203.807 200.333 202.943 199.529 201.395 199.529C200.075 199.529 198.959 200.333 199.031 201.785L200.267 201.881C200.207 201.125 200.627 200.645 201.431 200.645C202.151 200.645 202.571 201.029 202.571 201.545V201.761L201.227 201.989ZM201.251 204.509C200.663 204.509 200.267 204.233 200.267 203.813C200.267 203.333 200.699 203.117 201.419 202.985L202.571 202.793V203.069C202.571 203.933 202.031 204.509 201.251 204.509ZM205.152 205.517H206.472V202.373C206.472 201.353 207 200.717 207.816 200.717C208.572 200.717 208.944 201.149 208.944 202.025V205.517H210.264V201.773C210.264 200.381 209.52 199.529 208.236 199.529C207.492 199.529 206.904 199.793 206.472 200.321V199.709H205.152V205.517ZM214.334 199.529C212.57 199.529 211.31 200.885 211.31 202.625C211.31 204.365 212.558 205.697 214.334 205.697C216.122 205.697 217.346 204.365 217.346 202.625C217.346 200.885 216.11 199.529 214.334 199.529ZM214.334 204.425C213.842 204.425 213.434 204.257 213.11 203.921C212.786 203.573 212.63 203.141 212.63 202.625C212.63 202.097 212.786 201.665 213.11 201.317C213.434 200.969 213.842 200.801 214.334 200.801C214.826 200.801 215.222 200.981 215.546 201.329C215.87 201.677 216.026 202.109 216.026 202.625C216.026 203.141 215.87 203.573 215.546 203.921C215.222 204.257 214.826 204.425 214.334 204.425Z" fill="#410EAD"/>
<path opacity="0.25" d="M144.216 219.272L141.18 223.472H142.848L145.08 220.352L147.324 223.472H149.016L145.944 219.26L149.016 215.072H147.36L145.092 218.204L142.836 215.072H141.144L144.216 219.272ZM149.9 223.472H151.22V220.124H153.284L154.856 223.484H156.296L154.628 219.98C155.648 219.632 156.26 218.744 156.26 217.592C156.26 216.128 155.24 215.072 153.644 215.072H149.9V223.472ZM151.22 218.852V216.344H153.56C154.424 216.344 154.94 216.824 154.94 217.592C154.94 218.372 154.424 218.852 153.56 218.852H151.22ZM157.412 223.472H158.732V220.124H161.084C162.716 220.124 163.7 219.08 163.7 217.592C163.7 216.128 162.704 215.072 161.084 215.072H157.412V223.472ZM158.732 218.852V216.344H161C161.876 216.344 162.38 216.812 162.38 217.592C162.38 218.396 161.9 218.852 161 218.852H158.732ZM167.724 223.472H173.544V222.2H169.044V215.072H167.724V223.472ZM176.9 217.484C175.184 217.484 174.02 218.84 174.02 220.58C174.02 222.332 175.196 223.652 176.96 223.652C178.328 223.652 179.48 222.764 179.672 221.504L178.448 221.276C178.34 221.996 177.74 222.476 176.984 222.476C176.06 222.476 175.4 221.876 175.256 220.88H179.516V220.268C179.516 218.636 178.472 217.484 176.9 217.484ZM175.316 219.848C175.52 219.116 176.12 218.624 176.9 218.624C177.716 218.624 178.292 219.164 178.328 219.848H175.316ZM183.131 217.484C181.559 217.484 180.419 218.864 180.419 220.568C180.419 222.296 181.559 223.652 183.131 223.652C183.935 223.652 184.583 223.364 185.051 222.788V223.472H186.371V215.072H185.051V218.348C184.571 217.772 183.935 217.484 183.131 217.484ZM183.407 222.38C182.411 222.38 181.739 221.624 181.739 220.568C181.739 220.052 181.895 219.62 182.207 219.272C182.519 218.924 182.915 218.756 183.407 218.756C183.887 218.756 184.283 218.924 184.583 219.272C184.895 219.62 185.051 220.052 185.051 220.568C185.051 221.624 184.379 222.38 183.407 222.38ZM190.103 217.52C188.543 217.52 187.415 218.828 187.415 220.424C187.415 222.044 188.555 223.292 190.127 223.292C190.859 223.292 191.435 223.028 191.879 222.5V223.34C191.879 224.492 191.219 225.188 190.223 225.188C189.299 225.188 188.723 224.564 188.735 223.664L187.451 223.844C187.427 225.344 188.591 226.352 190.199 226.352C191.963 226.352 193.199 225.08 193.199 223.28V217.664H191.879V218.336C191.447 217.82 190.835 217.52 190.103 217.52ZM190.307 222.068C189.359 222.068 188.735 221.384 188.735 220.424C188.735 219.464 189.383 218.78 190.307 218.78C191.219 218.78 191.879 219.464 191.879 220.424C191.879 221.384 191.219 222.068 190.307 222.068ZM197.127 217.484C195.411 217.484 194.247 218.84 194.247 220.58C194.247 222.332 195.423 223.652 197.187 223.652C198.555 223.652 199.707 222.764 199.899 221.504L198.675 221.276C198.567 221.996 197.967 222.476 197.211 222.476C196.287 222.476 195.627 221.876 195.483 220.88H199.743V220.268C199.743 218.636 198.699 217.484 197.127 217.484ZM195.543 219.848C195.747 219.116 196.347 218.624 197.127 218.624C197.943 218.624 198.519 219.164 198.555 219.848H195.543ZM200.945 223.472H202.265V220.268C202.265 219.26 202.709 218.696 203.345 218.696C203.885 218.696 204.209 219.08 204.209 219.812C204.209 219.92 204.209 219.992 204.197 220.052L205.505 219.848C205.553 218.264 204.869 217.472 203.765 217.472C203.105 217.472 202.601 217.748 202.265 218.216V217.664H200.945V223.472Z" fill="#410EAD"/>
<path opacity="0.25" d="M84.3066 19.558L86.4666 27.958H88.0746L89.6826 21.706L91.2906 27.958H92.8866L95.0466 19.558H93.7026L92.0826 26.074L90.3906 19.558H88.9626L87.2826 25.99L85.6626 19.558H84.3066ZM97.7857 21.97C96.0697 21.97 94.9057 23.326 94.9057 25.066C94.9057 26.818 96.0817 28.138 97.8457 28.138C99.2137 28.138 100.366 27.25 100.558 25.99L99.3337 25.762C99.2257 26.482 98.6257 26.962 97.8697 26.962C96.9457 26.962 96.2857 26.362 96.1417 25.366H100.402V24.754C100.402 23.122 99.3577 21.97 97.7857 21.97ZM96.2017 24.334C96.4057 23.602 97.0057 23.11 97.7857 23.11C98.6017 23.11 99.1777 23.65 99.2137 24.334H96.2017ZM101.604 27.958H102.912V27.262C103.38 27.85 104.016 28.138 104.844 28.138C106.404 28.138 107.544 26.782 107.544 25.054C107.544 23.338 106.404 21.958 104.844 21.958C104.04 21.958 103.392 22.246 102.912 22.834V19.558H101.604V27.958ZM104.568 26.854C104.076 26.854 103.68 26.686 103.368 26.35C103.068 26.002 102.912 25.57 102.912 25.054C102.912 23.998 103.608 23.242 104.568 23.242C105.528 23.242 106.224 23.998 106.224 25.054C106.224 26.11 105.54 26.854 104.568 26.854ZM111.267 25.318C111.195 26.854 112.311 28.138 114.327 28.138C116.415 28.138 117.519 26.866 117.519 25.39C117.519 24.526 117.099 23.782 116.283 23.338C116.847 22.906 117.123 22.282 117.123 21.562C117.123 20.362 116.163 19.378 114.339 19.378C112.635 19.378 111.603 20.434 111.579 21.79L112.911 22.006C112.911 21.25 113.379 20.65 114.351 20.65C115.263 20.65 115.791 21.058 115.791 21.73C115.791 22.39 115.299 22.822 114.327 22.834L113.583 22.846V24.058H114.375C115.479 24.058 116.163 24.538 116.163 25.39C116.163 26.29 115.479 26.866 114.339 26.866C113.235 26.866 112.659 26.23 112.659 25.306L112.671 25.102L111.267 25.318Z" fill="#410EAD"/>
<path opacity="0.25" d="M21.9066 58.8809H23.2266L23.2386 52.9409L25.7706 58.8809H27.1626L29.7066 52.9049V58.8809H31.0266V50.4809H29.3946L26.4666 57.3689L23.5386 50.4809H21.9066V58.8809ZM35.0201 52.8929C33.3041 52.8929 32.1401 54.2489 32.1401 55.9889C32.1401 57.7409 33.3161 59.0609 35.0801 59.0609C36.4481 59.0609 37.6001 58.1729 37.7921 56.9129L36.5681 56.6849C36.4601 57.4049 35.8601 57.8849 35.1041 57.8849C34.1801 57.8849 33.5201 57.2849 33.3761 56.2889H37.6361V55.6769C37.6361 54.0449 36.5921 52.8929 35.0201 52.8929ZM33.4361 55.2569C33.6401 54.5249 34.2401 54.0329 35.0201 54.0329C35.8361 54.0329 36.4121 54.5729 36.4481 55.2569H33.4361ZM38.2999 54.2249H39.3079V56.8409C39.3079 58.2209 40.1719 59.0609 41.5999 59.0609C42.8599 59.0609 43.7719 58.1489 43.6999 56.7449L42.4399 56.6249C42.4999 57.3929 42.1399 57.8609 41.5519 57.8609C40.9759 57.8609 40.6279 57.5129 40.6279 56.8769V54.2249H43.4839V53.0729H40.6279V51.3689H39.3079V53.0729H38.2999V54.2249ZM46.6201 55.3529C45.1441 55.5929 44.4121 56.2169 44.4121 57.3329C44.4121 58.1969 45.0721 59.0609 46.3921 59.0609C47.1241 59.0609 47.6881 58.7009 47.9641 58.2089V58.8809H49.2001V54.9809C49.2001 53.6969 48.3361 52.8929 46.7881 52.8929C45.4681 52.8929 44.3521 53.6969 44.4241 55.1489L45.6601 55.2449C45.6001 54.4889 46.0201 54.0089 46.8241 54.0089C47.5441 54.0089 47.9641 54.3929 47.9641 54.9089V55.1249L46.6201 55.3529ZM46.6441 57.8729C46.0561 57.8729 45.6601 57.5969 45.6601 57.1769C45.6601 56.6969 46.0921 56.4809 46.8121 56.3489L47.9641 56.1569V56.4329C47.9641 57.2969 47.4241 57.8729 46.6441 57.8729ZM49.8077 53.0729L52.1357 58.8809H53.5157L55.8557 53.0729H54.4757L52.8317 57.1649L51.1877 53.0729H49.8077ZM59.0787 52.8929C57.3627 52.8929 56.1987 54.2489 56.1987 55.9889C56.1987 57.7409 57.3747 59.0609 59.1387 59.0609C60.5067 59.0609 61.6587 58.1729 61.8507 56.9129L60.6267 56.6849C60.5187 57.4049 59.9187 57.8849 59.1627 57.8849C58.2387 57.8849 57.5787 57.2849 57.4347 56.2889H61.6947V55.6769C61.6947 54.0449 60.6507 52.8929 59.0787 52.8929ZM57.4947 55.2569C57.6987 54.5249 58.2987 54.0329 59.0787 54.0329C59.8947 54.0329 60.4707 54.5729 60.5067 55.2569H57.4947ZM62.8971 58.8809H64.2171V55.6769C64.2171 54.6689 64.6611 54.1049 65.2971 54.1049C65.8371 54.1049 66.1611 54.4889 66.1611 55.2209C66.1611 55.3289 66.1611 55.4009 66.1491 55.4609L67.4571 55.2569C67.5051 53.6729 66.8211 52.8809 65.7171 52.8809C65.0571 52.8809 64.5531 53.1569 64.2171 53.6249V53.0729H62.8971V58.8809ZM67.9157 56.8529C68.0357 57.5129 68.3357 58.0529 68.8157 58.4609C69.2957 58.8569 69.8717 59.0609 70.5557 59.0609C71.9477 59.0609 72.9437 58.2689 72.9437 57.1049C72.9437 55.9889 72.1517 55.3529 70.5797 55.1969C69.8237 55.1129 69.6077 54.9329 69.6077 54.6089C69.6077 54.2849 69.9437 54.1049 70.4597 54.1049C71.0237 54.1049 71.4197 54.4049 71.5637 54.9809L72.6917 54.6329C72.4037 53.5649 71.5037 52.8809 70.4597 52.8809C69.2357 52.8809 68.2997 53.6129 68.2997 54.6089C68.2997 55.6649 69.0317 56.3249 70.4357 56.4689C71.3477 56.5649 71.6597 56.7929 71.6597 57.1649C71.6597 57.5609 71.2637 57.8489 70.5557 57.8489C69.7877 57.8489 69.2837 57.3809 69.1517 56.6129L67.9157 56.8529ZM76.5279 52.8929C74.8119 52.8929 73.6479 54.2489 73.6479 55.9889C73.6479 57.7409 74.8239 59.0609 76.5879 59.0609C77.9559 59.0609 79.1079 58.1729 79.2999 56.9129L78.0759 56.6849C77.9679 57.4049 77.3679 57.8849 76.6119 57.8849C75.6879 57.8849 75.0279 57.2849 74.8839 56.2889H79.1439V55.6769C79.1439 54.0449 78.0999 52.8929 76.5279 52.8929ZM74.9439 55.2569C75.1479 54.5249 75.7479 54.0329 76.5279 54.0329C77.3439 54.0329 77.9199 54.5729 77.9559 55.2569H74.9439Z" fill="#410EAD"/>
<path opacity="0.25" d="M142.907 27.958H146.807C148.319 27.958 149.279 26.95 149.279 25.606C149.279 24.694 148.811 23.926 148.007 23.542C148.619 23.17 148.955 22.522 148.955 21.742C148.955 20.518 148.067 19.558 146.591 19.558H142.907V27.958ZM144.227 23.038V20.794H146.423C147.239 20.794 147.683 21.25 147.683 21.886C147.683 22.57 147.251 23.038 146.447 23.038H144.227ZM144.227 26.722V24.238H146.567C147.419 24.238 147.911 24.754 147.911 25.474C147.911 26.206 147.419 26.722 146.567 26.722H144.227ZM150.323 27.958H151.643V19.558H150.323V27.958ZM155.707 21.97C153.943 21.97 152.683 23.326 152.683 25.066C152.683 26.806 153.931 28.138 155.707 28.138C157.495 28.138 158.719 26.806 158.719 25.066C158.719 23.326 157.483 21.97 155.707 21.97ZM155.707 26.866C155.215 26.866 154.807 26.698 154.483 26.362C154.159 26.014 154.003 25.582 154.003 25.066C154.003 24.538 154.159 24.106 154.483 23.758C154.807 23.41 155.215 23.242 155.707 23.242C156.199 23.242 156.595 23.422 156.919 23.77C157.243 24.118 157.399 24.55 157.399 25.066C157.399 25.582 157.243 26.014 156.919 26.362C156.595 26.698 156.199 26.866 155.707 26.866ZM162.384 21.97C160.656 21.97 159.468 23.314 159.468 25.066C159.468 26.83 160.668 28.15 162.468 28.15C163.92 28.15 165.072 27.178 165.216 25.846L163.98 25.534C163.896 26.338 163.248 26.878 162.444 26.878C161.448 26.878 160.788 26.11 160.788 24.97C160.788 24.49 160.932 24.082 161.232 23.746C161.532 23.41 161.916 23.242 162.384 23.242C163.116 23.242 163.644 23.674 163.752 24.334L164.928 23.926C164.676 22.738 163.716 21.97 162.384 21.97ZM166.155 27.958H167.475V26.014L167.991 25.498L169.863 27.958H171.471L168.903 24.586L171.327 22.15H169.623L167.475 24.31V19.558H166.155V27.958ZM174.431 21.97C172.703 21.97 171.515 23.314 171.515 25.066C171.515 26.83 172.715 28.15 174.515 28.15C175.967 28.15 177.119 27.178 177.263 25.846L176.027 25.534C175.943 26.338 175.295 26.878 174.491 26.878C173.495 26.878 172.835 26.11 172.835 24.97C172.835 24.49 172.979 24.082 173.279 23.746C173.579 23.41 173.963 23.242 174.431 23.242C175.163 23.242 175.691 23.674 175.799 24.334L176.975 23.926C176.723 22.738 175.763 21.97 174.431 21.97ZM178.202 27.958H179.522V24.814C179.522 23.794 180.05 23.158 180.866 23.158C181.622 23.158 181.994 23.59 181.994 24.466V27.958H183.314V24.214C183.314 22.822 182.57 21.97 181.286 21.97C180.542 21.97 179.954 22.234 179.522 22.762V19.558L178.202 19.558V27.958ZM186.675 24.43C185.199 24.67 184.467 25.294 184.467 26.41C184.467 27.274 185.127 28.138 186.447 28.138C187.179 28.138 187.743 27.778 188.019 27.286V27.958H189.255V24.058C189.255 22.774 188.391 21.97 186.843 21.97C185.523 21.97 184.407 22.774 184.479 24.226L185.715 24.322C185.655 23.566 186.075 23.086 186.879 23.086C187.599 23.086 188.019 23.47 188.019 23.986V24.202L186.675 24.43ZM186.699 26.95C186.111 26.95 185.715 26.674 185.715 26.254C185.715 25.774 186.147 25.558 186.867 25.426L188.019 25.234V25.51C188.019 26.374 187.479 26.95 186.699 26.95ZM190.6 27.958H191.92V22.15H190.6V27.958ZM191.248 19.57C190.78 19.57 190.408 19.954 190.408 20.422C190.408 20.89 190.78 21.274 191.248 21.274C191.716 21.274 192.1 20.89 192.1 20.422C192.1 19.954 191.716 19.57 191.248 19.57ZM193.26 27.958H194.58V24.814C194.58 23.794 195.108 23.158 195.924 23.158C196.68 23.158 197.052 23.59 197.052 24.466V27.958H198.372V24.214C198.372 22.822 197.628 21.97 196.344 21.97C195.6 21.97 195.012 22.234 194.58 22.762V22.15H193.26V27.958Z" fill="#410EAD"/>
<path opacity="0.25" d="M194.907 60.876H196.227L196.251 54.288L200.667 60.876H202.227V52.476H200.907V58.884L196.599 52.476H194.907V60.876ZM203.719 60.876H205.039V57.468H209.047V56.196H205.039V53.748H209.539V52.476H203.719V60.876ZM210.152 53.748H212.9V60.876H214.22V53.748H216.968V52.476H210.152V53.748Z" fill="#410EAD"/>
<path opacity="0.25" d="M0.744 161.229H6.612V159.957H2.064V157.569H6.12V156.297H2.064L2.064 154.101H6.612V152.829H0.744L0.744 161.229ZM7.21153 156.573H8.21953V159.189C8.21953 160.569 9.08353 161.409 10.5115 161.409C11.7715 161.409 12.6835 160.497 12.6115 159.093L11.3515 158.973C11.4115 159.741 11.0515 160.209 10.4635 160.209C9.88753 160.209 9.53953 159.861 9.53953 159.225V156.573H12.3955V155.421H9.53953V153.717H8.21953V155.421H7.21153V156.573ZM13.5861 161.229H14.9061V158.085C14.9061 157.065 15.4341 156.429 16.2501 156.429C17.0061 156.429 17.3781 156.861 17.3781 157.737V161.229H18.6981V157.485C18.6981 156.093 17.9541 155.241 16.6701 155.241C15.9261 155.241 15.3381 155.505 14.9061 156.033V152.829H13.5861V161.229ZM22.6231 155.241C20.9071 155.241 19.7431 156.597 19.7431 158.337C19.7431 160.089 20.9191 161.409 22.6831 161.409C24.0511 161.409 25.2031 160.521 25.3951 159.261L24.1711 159.033C24.0631 159.753 23.4631 160.233 22.7071 160.233C21.7831 160.233 21.1231 159.633 20.9791 158.637H25.2391V158.025C25.2391 156.393 24.1951 155.241 22.6231 155.241ZM21.0391 157.605C21.2431 156.873 21.8431 156.381 22.6231 156.381C23.4391 156.381 24.0151 156.921 24.0511 157.605H21.0391ZM26.4415 161.229H27.7615V158.025C27.7615 157.017 28.2055 156.453 28.8415 156.453C29.3815 156.453 29.7055 156.837 29.7055 157.569C29.7055 157.677 29.7055 157.749 29.6935 157.809L31.0015 157.605C31.0495 156.021 30.3655 155.229 29.2615 155.229C28.6015 155.229 28.0975 155.505 27.7615 155.973V155.421H26.4415V161.229ZM34.4825 155.241C32.7665 155.241 31.6025 156.597 31.6025 158.337C31.6025 160.089 32.7785 161.409 34.5425 161.409C35.9105 161.409 37.0625 160.521 37.2545 159.261L36.0305 159.033C35.9225 159.753 35.3225 160.233 34.5665 160.233C33.6425 160.233 32.9825 159.633 32.8385 158.637H37.0985V158.025C37.0985 156.393 36.0545 155.241 34.4825 155.241ZM32.8985 157.605C33.1025 156.873 33.7025 156.381 34.4825 156.381C35.2985 156.381 35.8745 156.921 35.9105 157.605H32.8985ZM43.4129 155.421H42.0929V158.565C42.0929 159.585 41.5649 160.221 40.7489 160.221C39.9929 160.221 39.6209 159.789 39.6209 158.913V155.421H38.3009V159.165C38.3009 160.557 39.0449 161.409 40.3289 161.409C41.0729 161.409 41.6609 161.145 42.0929 160.617V161.229H43.4129V155.421ZM44.7579 161.229H46.0299V157.977C46.0299 156.957 46.4379 156.429 47.0979 156.429C47.7099 156.429 47.9859 156.753 47.9859 157.521V161.229H49.2339L49.1979 157.785C49.2579 156.873 49.6419 156.429 50.2659 156.429C50.8539 156.429 51.1299 156.753 51.1299 157.521V161.229H52.4139L52.3899 157.209C52.3899 155.901 51.7779 155.241 50.6739 155.241C49.9419 155.241 49.3779 155.613 49.0419 156.249C48.8019 155.577 48.2619 155.241 47.4819 155.241C46.8459 155.241 46.3539 155.541 46.0299 156.081V155.433H44.7579V161.229Z" fill="#410EAD"/>
<path opacity="0.25" d="M213.907 157.636H215.227V154.288H217.579C219.211 154.288 220.195 153.244 220.195 151.756C220.195 150.292 219.199 149.236 217.579 149.236H213.907V157.636ZM215.227 153.016V150.508H217.495C218.371 150.508 218.875 150.976 218.875 151.756C218.875 152.56 218.395 153.016 217.495 153.016H215.227ZM223.484 151.648C221.72 151.648 220.46 153.004 220.46 154.744C220.46 156.484 221.708 157.816 223.484 157.816C225.272 157.816 226.496 156.484 226.496 154.744C226.496 153.004 225.26 151.648 223.484 151.648ZM223.484 156.544C222.992 156.544 222.584 156.376 222.26 156.04C221.936 155.692 221.78 155.26 221.78 154.744C221.78 154.216 221.936 153.784 222.26 153.436C222.584 153.088 222.992 152.92 223.484 152.92C223.976 152.92 224.372 153.1 224.696 153.448C225.02 153.796 225.176 154.228 225.176 154.744C225.176 155.26 225.02 155.692 224.696 156.04C224.372 156.376 223.976 156.544 223.484 156.544ZM227.546 157.636H228.866V149.236H227.546V157.636ZM229.834 158.044C229.762 159.532 230.89 160.516 232.474 160.516C234.214 160.516 235.402 159.244 235.402 157.516V151.828H234.082V154.672C234.082 155.716 233.53 156.352 232.702 156.352C231.922 156.352 231.526 155.908 231.526 155.02V151.828H230.206L230.23 155.272C230.23 156.676 230.998 157.54 232.282 157.54C233.038 157.54 233.638 157.264 234.082 156.724V157.564C234.082 158.656 233.434 159.34 232.474 159.34C231.622 159.34 231.034 158.8 231.082 157.876L229.834 158.044ZM239.133 151.684C237.573 151.684 236.445 152.992 236.445 154.588C236.445 156.208 237.585 157.456 239.157 157.456C239.889 157.456 240.465 157.192 240.909 156.664V157.504C240.909 158.656 240.249 159.352 239.253 159.352C238.329 159.352 237.753 158.728 237.765 157.828L236.481 158.008C236.457 159.508 237.621 160.516 239.229 160.516C240.993 160.516 242.229 159.244 242.229 157.444V151.828H240.909V152.5C240.477 151.984 239.865 151.684 239.133 151.684ZM239.337 156.232C238.389 156.232 237.765 155.548 237.765 154.588C237.765 153.628 238.413 152.944 239.337 152.944C240.249 152.944 240.909 153.628 240.909 154.588C240.909 155.548 240.249 156.232 239.337 156.232ZM246.301 151.648C244.537 151.648 243.277 153.004 243.277 154.744C243.277 156.484 244.525 157.816 246.301 157.816C248.089 157.816 249.313 156.484 249.313 154.744C249.313 153.004 248.077 151.648 246.301 151.648ZM246.301 156.544C245.809 156.544 245.401 156.376 245.077 156.04C244.753 155.692 244.597 155.26 244.597 154.744C244.597 154.216 244.753 153.784 245.077 153.436C245.401 153.088 245.809 152.92 246.301 152.92C246.793 152.92 247.189 153.1 247.513 153.448C247.837 153.796 247.993 154.228 247.993 154.744C247.993 155.26 247.837 155.692 247.513 156.04C247.189 156.376 246.793 156.544 246.301 156.544ZM250.362 157.636H251.682V154.492C251.682 153.472 252.21 152.836 253.026 152.836C253.782 152.836 254.154 153.268 254.154 154.144V157.636H255.474V153.892C255.474 152.5 254.73 151.648 253.446 151.648C252.702 151.648 252.114 151.912 251.682 152.44V151.828H250.362V157.636Z" fill="#410EAD"/>
<path opacity="0.25" d="M46.9676 205.308H48.2876V201.96H50.6396C52.2716 201.96 53.2556 200.916 53.2556 199.428C53.2556 197.964 52.2596 196.908 50.6396 196.908H46.9676V205.308ZM48.2876 200.688V198.18H50.5556C51.4316 198.18 51.9356 198.648 51.9356 199.428C51.9356 200.232 51.4556 200.688 50.5556 200.688H48.2876ZM56.5454 199.32C54.7814 199.32 53.5214 200.676 53.5214 202.416C53.5214 204.156 54.7694 205.488 56.5454 205.488C58.3334 205.488 59.5574 204.156 59.5574 202.416C59.5574 200.676 58.3214 199.32 56.5454 199.32ZM56.5454 204.216C56.0534 204.216 55.6454 204.048 55.3214 203.712C54.9974 203.364 54.8414 202.932 54.8414 202.416C54.8414 201.888 54.9974 201.456 55.3214 201.108C55.6454 200.76 56.0534 200.592 56.5454 200.592C57.0374 200.592 57.4334 200.772 57.7574 201.12C58.0814 201.468 58.2374 201.9 58.2374 202.416C58.2374 202.932 58.0814 203.364 57.7574 203.712C57.4334 204.048 57.0374 204.216 56.5454 204.216ZM60.6066 205.308H61.9266V196.908H60.6066V205.308ZM63.2667 205.308H64.5867V203.364L65.1027 202.848L66.9747 205.308H68.5827L66.0147 201.936L68.4387 199.5H66.7347L64.5867 201.66V196.908H63.2667V205.308ZM71.0952 201.78C69.6192 202.02 68.8872 202.644 68.8872 203.76C68.8872 204.624 69.5472 205.488 70.8672 205.488C71.5992 205.488 72.1632 205.128 72.4392 204.636V205.308H73.6752V201.408C73.6752 200.124 72.8112 199.32 71.2632 199.32C69.9432 199.32 68.8272 200.124 68.8992 201.576L70.1352 201.672C70.0752 200.916 70.4952 200.436 71.2992 200.436C72.0192 200.436 72.4392 200.82 72.4392 201.336V201.552L71.0952 201.78ZM71.1192 204.3C70.5312 204.3 70.1352 204.024 70.1352 203.604C70.1352 203.124 70.5672 202.908 71.2872 202.776L72.4392 202.584V202.86C72.4392 203.724 71.8992 204.3 71.1192 204.3ZM77.4326 199.32C75.8606 199.32 74.7206 200.7 74.7206 202.404C74.7206 204.132 75.8606 205.488 77.4326 205.488C78.2366 205.488 78.8846 205.2 79.3526 204.624V205.308H80.6726V196.908H79.3526V200.184C78.8726 199.608 78.2366 199.32 77.4326 199.32ZM77.7086 204.216C76.7126 204.216 76.0406 203.46 76.0406 202.404C76.0406 201.888 76.1966 201.456 76.5086 201.108C76.8206 200.76 77.2166 200.592 77.7086 200.592C78.1886 200.592 78.5846 200.76 78.8846 201.108C79.1966 201.456 79.3526 201.888 79.3526 202.404C79.3526 203.46 78.6806 204.216 77.7086 204.216ZM84.7407 199.32C82.9767 199.32 81.7167 200.676 81.7167 202.416C81.7167 204.156 82.9647 205.488 84.7407 205.488C86.5287 205.488 87.7527 204.156 87.7527 202.416C87.7527 200.676 86.5167 199.32 84.7407 199.32ZM84.7407 204.216C84.2487 204.216 83.8407 204.048 83.5167 203.712C83.1927 203.364 83.0367 202.932 83.0367 202.416C83.0367 201.888 83.1927 201.456 83.5167 201.108C83.8407 200.76 84.2487 200.592 84.7407 200.592C85.2327 200.592 85.6287 200.772 85.9527 201.12C86.2767 201.468 86.4327 201.9 86.4327 202.416C86.4327 202.932 86.2767 203.364 85.9527 203.712C85.6287 204.048 85.2327 204.216 84.7407 204.216ZM88.3219 200.652H89.3299V203.268C89.3299 204.648 90.1939 205.488 91.6219 205.488C92.8819 205.488 93.7939 204.576 93.7219 203.172L92.4619 203.052C92.5219 203.82 92.1619 204.288 91.5739 204.288C90.9979 204.288 90.6499 203.94 90.6499 203.304V200.652H93.5059V199.5H90.6499V197.796H89.3299V199.5H88.3219V200.652Z" fill="#410EAD"/>
<path opacity="0.25" d="M75.3919 214.377C72.9079 214.329 71.1559 216.321 71.1919 218.781C71.1919 221.289 72.9319 223.137 75.5119 223.137C77.5399 223.173 79.2559 221.757 79.4479 219.885L78.1519 219.609C78.0079 220.953 76.8559 221.865 75.4879 221.865C73.7119 221.865 72.5119 220.545 72.5119 218.625C72.5119 216.993 73.6879 215.649 75.3799 215.649C76.6639 215.649 77.5639 216.405 77.7679 217.569L78.9799 217.161C78.6679 215.505 77.2639 214.377 75.3919 214.377ZM82.4566 219.429C80.9806 219.669 80.2486 220.293 80.2486 221.409C80.2486 222.273 80.9086 223.137 82.2286 223.137C82.9606 223.137 83.5246 222.777 83.8006 222.285V222.957H85.0366V219.057C85.0366 217.773 84.1726 216.969 82.6246 216.969C81.3046 216.969 80.1886 217.773 80.2606 219.225L81.4966 219.321C81.4366 218.565 81.8566 218.085 82.6606 218.085C83.3806 218.085 83.8006 218.469 83.8006 218.985V219.201L82.4566 219.429ZM82.4806 221.949C81.8926 221.949 81.4966 221.673 81.4966 221.253C81.4966 220.773 81.9286 220.557 82.6486 220.425L83.8006 220.233V220.509C83.8006 221.373 83.2606 221.949 82.4806 221.949ZM86.382 222.957H87.702V219.753C87.702 218.745 88.146 218.181 88.782 218.181C89.322 218.181 89.646 218.565 89.646 219.297C89.646 219.405 89.646 219.477 89.634 219.537L90.942 219.333C90.99 217.749 90.306 216.957 89.202 216.957C88.542 216.957 88.038 217.233 87.702 217.701V217.149H86.382V222.957ZM94.2549 216.969C92.6829 216.969 91.5429 218.349 91.5429 220.053C91.5429 221.781 92.6829 223.137 94.2549 223.137C95.0589 223.137 95.7069 222.849 96.1749 222.273V222.957H97.4949V214.557H96.1749V217.833C95.6949 217.257 95.0589 216.969 94.2549 216.969ZM94.5309 221.865C93.5349 221.865 92.8629 221.109 92.8629 220.053C92.8629 219.537 93.0189 219.105 93.3309 218.757C93.6429 218.409 94.0389 218.241 94.5309 218.241C95.0109 218.241 95.4069 218.409 95.7069 218.757C96.0189 219.105 96.1749 219.537 96.1749 220.053C96.1749 221.109 95.5029 221.865 94.5309 221.865ZM100.855 219.429C99.379 219.669 98.647 220.293 98.647 221.409C98.647 222.273 99.307 223.137 100.627 223.137C101.359 223.137 101.923 222.777 102.199 222.285V222.957H103.435V219.057C103.435 217.773 102.571 216.969 101.023 216.969C99.703 216.969 98.587 217.773 98.659 219.225L99.895 219.321C99.835 218.565 100.255 218.085 101.059 218.085C101.779 218.085 102.199 218.469 102.199 218.985V219.201L100.855 219.429ZM100.879 221.949C100.291 221.949 99.895 221.673 99.895 221.253C99.895 220.773 100.327 220.557 101.047 220.425L102.199 220.233V220.509C102.199 221.373 101.659 221.949 100.879 221.949ZM104.78 222.957H106.1V219.813C106.1 218.793 106.628 218.157 107.444 218.157C108.2 218.157 108.572 218.589 108.572 219.465V222.957H109.892V219.213C109.892 217.821 109.148 216.969 107.864 216.969C107.12 216.969 106.532 217.233 106.1 217.761V217.149H104.78V222.957ZM113.961 216.969C112.197 216.969 110.937 218.325 110.937 220.065C110.937 221.805 112.185 223.137 113.961 223.137C115.749 223.137 116.973 221.805 116.973 220.065C116.973 218.325 115.737 216.969 113.961 216.969ZM113.961 221.865C113.469 221.865 113.061 221.697 112.737 221.361C112.413 221.013 112.257 220.581 112.257 220.065C112.257 219.537 112.413 219.105 112.737 218.757C113.061 218.409 113.469 218.241 113.961 218.241C114.453 218.241 114.849 218.421 115.173 218.769C115.497 219.117 115.653 219.549 115.653 220.065C115.653 220.581 115.497 221.013 115.173 221.361C114.849 221.697 114.453 221.865 113.961 221.865Z" fill="#410EAD"/>
<path opacity="0.25" d="M29.8308 176.997C29.9868 177.921 30.3948 178.641 31.0308 179.181C31.6668 179.721 32.4708 179.985 33.4188 179.985C35.3628 179.985 36.6588 178.893 36.6588 177.285C36.6588 175.749 35.5788 174.945 33.4188 174.717C32.1588 174.585 31.6548 174.225 31.6548 173.541C31.6548 172.929 32.3268 172.497 33.2868 172.497C34.1988 172.497 34.9188 173.133 35.1468 174.129L36.4188 173.637C36.2508 172.905 35.8788 172.329 35.3148 171.897C34.7508 171.453 34.0668 171.237 33.2868 171.237C31.5948 171.237 30.3348 172.197 30.3348 173.517C30.3348 174.993 31.2948 175.833 33.2268 176.037C34.6788 176.193 35.3388 176.625 35.3388 177.333C35.3268 178.161 34.6068 178.713 33.4188 178.713C32.1828 178.713 31.3308 177.921 31.0788 176.565L29.8308 176.997ZM40.5205 173.817C38.7565 173.817 37.4965 175.173 37.4965 176.913C37.4965 178.653 38.7445 179.985 40.5205 179.985C42.3085 179.985 43.5325 178.653 43.5325 176.913C43.5325 175.173 42.2965 173.817 40.5205 173.817ZM40.5205 178.713C40.0285 178.713 39.6205 178.545 39.2965 178.209C38.9725 177.861 38.8165 177.429 38.8165 176.913C38.8165 176.385 38.9725 175.953 39.2965 175.605C39.6205 175.257 40.0285 175.089 40.5205 175.089C41.0125 175.089 41.4085 175.269 41.7325 175.617C42.0565 175.965 42.2125 176.397 42.2125 176.913C42.2125 177.429 42.0565 177.861 41.7325 178.209C41.4085 178.545 41.0125 178.713 40.5205 178.713ZM44.5817 179.805H45.9017V171.405H44.5817V179.805ZM49.2578 176.277C47.7818 176.517 47.0498 177.141 47.0498 178.257C47.0498 179.121 47.7098 179.985 49.0298 179.985C49.7618 179.985 50.3258 179.625 50.6018 179.133V179.805H51.8378V175.905C51.8378 174.621 50.9738 173.817 49.4258 173.817C48.1058 173.817 46.9898 174.621 47.0618 176.073L48.2978 176.169C48.2378 175.413 48.6578 174.933 49.4618 174.933C50.1818 174.933 50.6018 175.317 50.6018 175.833V176.049L49.2578 176.277ZM49.2818 178.797C48.6938 178.797 48.2978 178.521 48.2978 178.101C48.2978 177.621 48.7298 177.405 49.4498 177.273L50.6018 177.081V177.357C50.6018 178.221 50.0618 178.797 49.2818 178.797ZM53.1832 179.805H54.5032V176.661C54.5032 175.641 55.0312 175.005 55.8472 175.005C56.6032 175.005 56.9752 175.437 56.9752 176.313V179.805H58.2952V176.061C58.2952 174.669 57.5512 173.817 56.2672 173.817C55.5232 173.817 54.9352 174.081 54.5032 174.609V173.997H53.1832V179.805ZM61.6563 176.277C60.1803 176.517 59.4483 177.141 59.4483 178.257C59.4483 179.121 60.1083 179.985 61.4283 179.985C62.1603 179.985 62.7243 179.625 63.0003 179.133V179.805H64.2363V175.905C64.2363 174.621 63.3723 173.817 61.8243 173.817C60.5043 173.817 59.3883 174.621 59.4603 176.073L60.6963 176.169C60.6363 175.413 61.0563 174.933 61.8603 174.933C62.5803 174.933 63.0003 175.317 63.0003 175.833V176.049L61.6563 176.277ZM61.6803 178.797C61.0923 178.797 60.6963 178.521 60.6963 178.101C60.6963 177.621 61.1283 177.405 61.8483 177.273L63.0003 177.081V177.357C63.0003 178.221 62.4603 178.797 61.6803 178.797Z" fill="#410EAD"/>
</svg>
