<svg width="520" height="537" viewBox="0 0 520 537" fill="none" xmlns="http://www.w3.org/2000/svg">
<mask id="mask0_882_48" style="mask-type:alpha" maskUnits="userSpaceOnUse" x="0" y="0" width="520" height="537">
<path d="M520 0H0V537H520V0Z" fill="#EEE9E9"/>
</mask>
<g mask="url(#mask0_882_48)">
<path d="M627.44 508.822H-218.365V509.942H627.44V508.822Z" fill="#EDE2FF" fill-opacity="0.45"/>
<path d="M627.44 401.996H-218.365V403.115H627.44V401.996Z" fill="#EDE2FF" fill-opacity="0.45"/>
<path d="M627.44 295.17H-218.365V296.289H627.44V295.17Z" fill="#EDE2FF" fill-opacity="0.45"/>
<path d="M627.44 188.343H-218.365V189.462H627.44V188.343Z" fill="#EDE2FF" fill-opacity="0.45"/>
<path d="M627.44 81.5166H-218.365V82.636H627.44V81.5166Z" fill="#EDE2FF" fill-opacity="0.45"/>
<path d="M416.549 -238.44H415.429V829.899H416.549V-238.44Z" fill="#EDE2FF" fill-opacity="0.45"/>
<path d="M310.804 -238.44H309.684V829.899H310.804V-238.44Z" fill="#EDE2FF" fill-opacity="0.45"/>
<path d="M205.097 -238.44H203.978V829.899H205.097V-238.44Z" fill="#EDE2FF" fill-opacity="0.45"/>
<path d="M99.3527 -238.44H98.2333V829.899H99.3527V-238.44Z" fill="#EDE2FF" fill-opacity="0.45"/>
<path d="M627.44 535.837H-218.365V536.397H627.44V535.837Z" fill="#EDE2FF" fill-opacity="0.45"/>
<path d="M627.44 509.121H-218.365V509.681H627.44V509.121Z" fill="#EDE2FF" fill-opacity="0.45"/>
<path d="M627.44 482.404H-218.365V482.964H627.44V482.404Z" fill="#EDE2FF" fill-opacity="0.45"/>
<path d="M627.44 455.689H-218.365V456.249H627.44V455.689Z" fill="#EDE2FF" fill-opacity="0.45"/>
<path d="M627.44 428.973H-218.365V429.532H627.44V428.973Z" fill="#EDE2FF" fill-opacity="0.45"/>
<path d="M627.44 402.295H-218.365V402.855H627.44V402.295Z" fill="#EDE2FF" fill-opacity="0.45"/>
<path d="M627.44 375.578H-218.365V376.138H627.44V375.578Z" fill="#EDE2FF" fill-opacity="0.45"/>
<path d="M627.44 348.862H-218.365V349.422H627.44V348.862Z" fill="#EDE2FF" fill-opacity="0.45"/>
<path d="M627.44 322.147H-218.365V322.706H627.44V322.147Z" fill="#EDE2FF" fill-opacity="0.45"/>
<path d="M627.44 295.431H-218.365V295.99H627.44V295.431Z" fill="#EDE2FF" fill-opacity="0.45"/>
<path d="M627.44 268.752H-218.365V269.311H627.44V268.752Z" fill="#EDE2FF" fill-opacity="0.45"/>
<path d="M627.44 242.036H-218.365V242.596H627.44V242.036Z" fill="#EDE2FF" fill-opacity="0.45"/>
<path d="M627.44 215.32H-218.365V215.88H627.44V215.32Z" fill="#EDE2FF" fill-opacity="0.45"/>
<path d="M627.44 188.604H-218.365V189.163H627.44V188.604Z" fill="#EDE2FF" fill-opacity="0.45"/>
<path d="M627.44 161.888H-218.365V162.448H627.44V161.888Z" fill="#EDE2FF" fill-opacity="0.45"/>
<path d="M627.44 135.21H-218.365V135.77H627.44V135.21Z" fill="#EDE2FF" fill-opacity="0.45"/>
<path d="M627.44 108.494H-218.365V109.054H627.44V108.494Z" fill="#EDE2FF" fill-opacity="0.45"/>
<path d="M627.44 81.7776H-218.365V82.3373H627.44V81.7776Z" fill="#EDE2FF" fill-opacity="0.45"/>
<path d="M627.44 55.0615H-218.365V55.6212H627.44V55.0615Z" fill="#EDE2FF" fill-opacity="0.45"/>
<path d="M627.44 28.3458H-218.365V28.9055H627.44V28.3458Z" fill="#EDE2FF" fill-opacity="0.45"/>
<path d="M627.44 1.66711H-218.365V2.22681H627.44V1.66711Z" fill="#EDE2FF" fill-opacity="0.45"/>
<path d="M495.54 -238.44H494.98V829.899H495.54V-238.44Z" fill="#EDE2FF" fill-opacity="0.45"/>
<path d="M469.122 -238.44H468.563V829.899H469.122V-238.44Z" fill="#EDE2FF" fill-opacity="0.45"/>
<path d="M442.704 -238.44H442.145V829.899H442.704V-238.44Z" fill="#EDE2FF" fill-opacity="0.45"/>
<path d="M416.25 -238.44H415.691V829.899H416.25V-238.44Z" fill="#EDE2FF" fill-opacity="0.45"/>
<path d="M389.833 -238.44H389.273V829.899H389.833V-238.44Z" fill="#EDE2FF" fill-opacity="0.45"/>
<path d="M363.415 -238.44H362.855V829.899H363.415V-238.44Z" fill="#EDE2FF" fill-opacity="0.45"/>
<path d="M336.961 -238.44H336.401V829.899H336.961V-238.44Z" fill="#EDE2FF" fill-opacity="0.45"/>
<path d="M310.543 -238.44H309.983V829.899H310.543V-238.44Z" fill="#EDE2FF" fill-opacity="0.45"/>
<path d="M284.088 -238.44H283.528V829.899H284.088V-238.44Z" fill="#EDE2FF" fill-opacity="0.45"/>
<path d="M257.671 -238.44H257.111V829.899H257.671V-238.44Z" fill="#EDE2FF" fill-opacity="0.45"/>
<path d="M231.253 -238.44H230.694V829.899H231.253V-238.44Z" fill="#EDE2FF" fill-opacity="0.45"/>
<path d="M204.798 -238.44H204.239V829.899H204.798V-238.44Z" fill="#EDE2FF" fill-opacity="0.45"/>
<path d="M178.381 -238.44H177.822V829.899H178.381V-238.44Z" fill="#EDE2FF" fill-opacity="0.45"/>
<path d="M151.964 -238.44H151.404V829.899H151.964V-238.44Z" fill="#EDE2FF" fill-opacity="0.45"/>
<path d="M125.509 -238.44H124.949V829.899H125.509V-238.44Z" fill="#EDE2FF" fill-opacity="0.45"/>
<path d="M99.0918 -238.44H98.5321V829.899H99.0918V-238.44Z" fill="#EDE2FF" fill-opacity="0.45"/>
<path d="M72.6741 -238.44H72.1144V829.899H72.6741V-238.44Z" fill="#EDE2FF" fill-opacity="0.45"/>
<path d="M46.2195 -238.44H45.6598V829.899H46.2195V-238.44Z" fill="#EDE2FF" fill-opacity="0.45"/>
<path d="M19.8016 -238.44H19.2419V829.899H19.8016V-238.44Z" fill="#EDE2FF" fill-opacity="0.45"/>
<path opacity="0.25" d="M18.24 292H24.74C27.26 292 28.86 290.32 28.86 288.08C28.86 286.56 28.08 285.28 26.74 284.64C27.76 284.02 28.32 282.94 28.32 281.64C28.32 279.6 26.84 278 24.38 278H18.24V292ZM20.44 283.8V280.06H24.1C25.46 280.06 26.2 280.82 26.2 281.88C26.2 283.02 25.48 283.8 24.14 283.8H20.44ZM20.44 289.94V285.8H24.34C25.76 285.8 26.58 286.66 26.58 287.86C26.58 289.08 25.76 289.94 24.34 289.94H20.44ZM30.6005 292H32.8005V282.32H30.6005V292ZM31.6805 278.02C30.9005 278.02 30.2805 278.66 30.2805 279.44C30.2805 280.22 30.9005 280.86 31.6805 280.86C32.4605 280.86 33.1005 280.22 33.1005 279.44C33.1005 278.66 32.4605 278.02 31.6805 278.02ZM34.2341 284.24H35.9141V288.6C35.9141 290.9 37.3541 292.3 39.7341 292.3C41.8341 292.3 43.3541 290.78 43.2341 288.44L41.1341 288.24C41.2341 289.52 40.6341 290.3 39.6541 290.3C38.6941 290.3 38.1141 289.72 38.1141 288.66V284.24H42.8741V282.32H38.1141V279.48H35.9141V282.32H34.2341V284.24ZM49.1206 282.02C46.2406 282.02 44.2606 284.26 44.2606 287.18C44.2606 290.12 46.2606 292.32 49.2606 292.32C51.6806 292.32 53.6006 290.7 53.8406 288.48L51.7806 287.96C51.6406 289.3 50.5606 290.2 49.2206 290.2C47.5606 290.2 46.4606 288.92 46.4606 287.02C46.4606 286.22 46.7006 285.54 47.2006 284.98C47.7006 284.42 48.3406 284.14 49.1206 284.14C50.3406 284.14 51.2206 284.86 51.4006 285.96L53.3606 285.28C52.9406 283.3 51.3406 282.02 49.1206 282.02ZM59.8866 282.02C56.9466 282.02 54.8466 284.28 54.8466 287.18C54.8466 290.08 56.9266 292.3 59.8866 292.3C62.8666 292.3 64.9066 290.08 64.9066 287.18C64.9066 284.28 62.8466 282.02 59.8866 282.02ZM59.8866 290.18C59.0666 290.18 58.3866 289.9 57.8466 289.34C57.3066 288.76 57.0466 288.04 57.0466 287.18C57.0466 286.3 57.3066 285.58 57.8466 285C58.3866 284.42 59.0666 284.14 59.8866 284.14C60.7066 284.14 61.3666 284.44 61.9066 285.02C62.4466 285.6 62.7066 286.32 62.7066 287.18C62.7066 288.04 62.4466 288.76 61.9066 289.34C61.3666 289.9 60.7066 290.18 59.8866 290.18ZM66.6552 292H68.8552V282.32H66.6552V292ZM67.7352 278.02C66.9552 278.02 66.3352 278.66 66.3352 279.44C66.3352 280.22 66.9552 280.86 67.7352 280.86C68.5152 280.86 69.1552 280.22 69.1552 279.44C69.1552 278.66 68.5152 278.02 67.7352 278.02ZM71.0888 292H73.2888V286.76C73.2888 285.06 74.1688 284 75.5288 284C76.7888 284 77.4088 284.72 77.4088 286.18V292H79.6088V285.76C79.6088 283.44 78.3688 282.02 76.2288 282.02C74.9888 282.02 74.0088 282.46 73.2888 283.34V282.32H71.0888V292Z" fill="#410EAD"/>
</g>
<line x1="364.5" y1="150" x2="364.5" y2="269" stroke="#410EAD" stroke-dasharray="3 3"/>
<line x1="365" y1="268" x2="258" y2="268" stroke="#410EAD" stroke-width="2"/>
<line x1="257.258" y1="268.33" x2="363.275" y2="150.903" stroke="#410EAD" stroke-width="2"/>
<path d="M269 255C272.451 256.389 278.466 260.933 274.916 268" stroke="#410EAD"/>
<path opacity="0.25" d="M258.434 29.2929C258.043 28.9024 257.41 28.9024 257.019 29.2929L250.655 35.6569C250.265 36.0474 250.265 36.6805 250.655 37.0711C251.046 37.4616 251.679 37.4616 252.07 37.0711L257.726 31.4142L263.383 37.0711C263.774 37.4616 264.407 37.4616 264.798 37.0711C265.188 36.6805 265.188 36.0474 264.798 35.6569L258.434 29.2929ZM257.019 510.707C257.41 511.098 258.043 511.098 258.434 510.707L264.797 504.343C265.188 503.953 265.188 503.319 264.797 502.929C264.407 502.538 263.774 502.538 263.383 502.929L257.726 508.586L252.07 502.929C251.679 502.538 251.046 502.538 250.655 502.929C250.265 503.319 250.265 503.953 250.655 504.343L257.019 510.707ZM256.726 30L256.726 510L258.726 510L258.726 30L256.726 30Z" fill="#410EAD"/>
<path opacity="0.25" d="M15.2929 267.566C14.9024 267.957 14.9024 268.59 15.2929 268.98L21.6569 275.344C22.0474 275.735 22.6805 275.735 23.0711 275.344C23.4616 274.954 23.4616 274.321 23.0711 273.93L17.4142 268.273L23.0711 262.616C23.4616 262.226 23.4616 261.593 23.0711 261.202C22.6805 260.812 22.0474 260.812 21.6569 261.202L15.2929 267.566ZM496.707 268.98C497.098 268.59 497.098 267.957 496.707 267.566L490.343 261.202C489.953 260.812 489.319 260.812 488.929 261.202C488.538 261.593 488.538 262.226 488.929 262.616L494.586 268.273L488.929 273.93C488.538 274.321 488.538 274.954 488.929 275.344C489.319 275.735 489.953 275.735 490.343 275.344L496.707 268.98ZM16 269.273L496 269.273V267.273L16 267.273V269.273Z" fill="#410EAD"/>
<path d="M414.669 248.732C415.257 253.283 415.654 257.894 415.853 262.557L414.354 262.621C414.451 264.902 414.5 267.195 414.5 269.5C414.5 271.805 414.451 274.098 414.354 276.379L415.853 276.443C415.654 281.106 415.257 285.717 414.669 290.268L413.181 290.076C412.59 294.653 411.804 299.168 410.832 303.613L412.297 303.934C411.303 308.478 410.117 312.95 408.747 317.34L407.315 316.893C405.944 321.288 404.386 325.601 402.653 329.821L404.04 330.391C402.276 334.686 400.331 338.886 398.214 342.982L396.882 342.294C394.772 346.375 392.491 350.353 390.048 354.216L391.316 355.018C388.839 358.934 386.197 362.735 383.4 366.409L382.207 365.501C379.428 369.151 376.495 372.675 373.417 376.064L374.527 377.072C371.416 380.498 368.158 383.787 364.764 386.928L363.745 385.827C360.383 388.939 356.886 391.904 353.264 394.714L354.183 395.899C350.532 398.732 346.755 401.407 342.862 403.916L342.05 402.655C338.206 405.132 334.247 407.445 330.184 409.585L330.883 410.912C326.802 413.061 322.616 415.037 318.335 416.829L317.756 415.445C313.546 417.207 309.244 418.79 304.859 420.185L305.314 421.615C300.93 423.009 296.463 424.216 291.924 425.228L291.598 423.764C287.156 424.753 282.644 425.554 278.07 426.156L278.266 427.643C273.716 428.243 269.105 428.648 264.442 428.85L264.377 427.351C262.097 427.45 259.804 427.5 257.5 427.5C255.196 427.5 252.903 427.45 250.623 427.351L250.558 428.85C245.895 428.648 241.284 428.243 236.734 427.643L236.93 426.156C232.356 425.554 227.844 424.753 223.402 423.764L223.076 425.228C218.537 424.216 214.07 423.009 209.686 421.615L210.141 420.185C205.756 418.79 201.454 417.207 197.244 415.445L196.665 416.829C192.384 415.037 188.198 413.061 184.117 410.912L184.815 409.585C180.753 407.445 176.794 405.132 172.95 402.655L172.138 403.916C168.245 401.407 164.468 398.732 160.817 395.899L161.736 394.714C158.114 391.904 154.617 388.939 151.255 385.827L150.236 386.928C146.842 383.787 143.584 380.498 140.473 377.072L141.583 376.064C138.505 372.675 135.572 369.151 132.793 365.501L131.6 366.409C128.803 362.735 126.161 358.934 123.684 355.018L124.952 354.216C122.509 350.353 120.228 346.375 118.118 342.294L116.786 342.982C114.669 338.886 112.724 334.686 110.96 330.391L112.347 329.822C110.614 325.601 109.056 321.288 107.685 316.893L106.253 317.34C104.883 312.95 103.697 308.478 102.703 303.934L104.169 303.613C103.196 299.168 102.41 294.653 101.819 290.076L100.331 290.268C99.7433 285.717 99.3459 281.106 99.1475 276.443L100.646 276.379C100.549 274.098 100.5 271.805 100.5 269.5C100.5 267.195 100.549 264.902 100.646 262.621L99.1474 262.557C99.3459 257.894 99.7433 253.283 100.331 248.732L101.819 248.924C102.41 244.347 103.196 239.832 104.168 235.387L102.703 235.066C103.697 230.522 104.883 226.05 106.253 221.66L107.685 222.107C109.056 217.712 110.614 213.399 112.347 209.179L110.96 208.609C112.724 204.314 114.669 200.114 116.786 196.018L118.118 196.706C120.228 192.625 122.509 188.647 124.952 184.784L123.684 183.982C126.161 180.066 128.803 176.265 131.6 172.591L132.793 173.499C135.572 169.849 138.505 166.325 141.583 162.936L140.473 161.928C143.584 158.502 146.842 155.213 150.236 152.072L151.255 153.173C154.617 150.061 158.114 147.096 161.736 144.286L160.817 143.101C164.468 140.269 168.245 137.593 172.138 135.084L172.95 136.345C176.794 133.868 180.753 131.555 184.815 129.415L184.117 128.088C188.198 125.939 192.384 123.963 196.665 122.171L197.244 123.555C201.454 121.793 205.756 120.209 210.141 118.815L209.686 117.386C214.07 115.991 218.537 114.784 223.076 113.772L223.402 115.236C227.844 114.247 232.356 113.446 236.93 112.844L236.734 111.357C241.284 110.757 245.895 110.352 250.558 110.15L250.623 111.649C252.903 111.55 255.196 111.5 257.5 111.5C259.804 111.5 262.097 111.55 264.377 111.649L264.442 110.15C269.105 110.352 273.716 110.757 278.266 111.357L278.07 112.844C282.644 113.446 287.156 114.247 291.598 115.236L291.924 113.772C296.463 114.784 300.93 115.991 305.314 117.386L304.859 118.815C309.244 120.209 313.546 121.793 317.756 123.555L318.335 122.171C322.616 123.963 326.802 125.939 330.883 128.088L330.185 129.415C334.247 131.555 338.206 133.868 342.05 136.345L342.862 135.084C346.755 137.593 350.532 140.269 354.183 143.101L353.264 144.286C356.886 147.096 360.383 150.061 363.745 153.173L364.764 152.072C368.158 155.213 371.416 158.502 374.527 161.928L373.417 162.936C376.495 166.325 379.428 169.849 382.207 173.499L383.4 172.591C386.197 176.265 388.839 180.066 391.316 183.982L390.048 184.784C392.491 188.647 394.772 192.625 396.882 196.706L398.214 196.018C400.331 200.114 402.276 204.314 404.04 208.609L402.653 209.178C404.386 213.399 405.944 217.712 407.315 222.107L408.747 221.66C410.117 226.05 411.303 230.522 412.297 235.066L410.832 235.387C411.803 239.832 412.59 244.347 413.181 248.924L414.669 248.732Z" stroke="#410EAD" stroke-width="3" stroke-dasharray="14 14"/>
<circle cx="363" cy="151" r="6" fill="#09C928"/>
<path d="M287.1 250.222C288.029 250.222 288.794 250.8 289.395 251.956C289.939 252.999 290.211 254.217 290.211 255.611C290.211 257.243 289.86 258.603 289.157 259.691C288.579 260.575 287.893 261.017 287.1 261.017C286.171 261.017 285.406 260.439 284.805 259.283C284.261 258.24 283.989 257.022 283.989 255.628C283.989 253.996 284.34 252.636 285.043 251.548C285.621 250.664 286.307 250.222 287.1 250.222ZM285.485 256.342C285.542 258.155 285.955 259.192 286.726 259.453C286.839 259.498 286.964 259.521 287.1 259.521C288.109 259.521 288.647 258.461 288.715 256.342H285.485ZM287.1 251.718C286.273 251.718 285.757 252.494 285.553 254.047C285.519 254.319 285.496 254.602 285.485 254.897H288.715C288.647 252.778 288.109 251.718 287.1 251.718Z" fill="#FB5A5A"/>
<path opacity="0.25" d="M388.24 381H394.74C397.26 381 398.86 379.32 398.86 377.08C398.86 375.56 398.08 374.28 396.74 373.64C397.76 373.02 398.32 371.94 398.32 370.64C398.32 368.6 396.84 367 394.38 367H388.24V381ZM390.44 372.8V369.06H394.1C395.46 369.06 396.2 369.82 396.2 370.88C396.2 372.02 395.48 372.8 394.14 372.8H390.44ZM390.44 378.94V374.8H394.34C395.76 374.8 396.58 375.66 396.58 376.86C396.58 378.08 395.76 378.94 394.34 378.94H390.44ZM400.838 381H403.038L403.078 370.02L410.438 381H413.038V367H410.838V377.68L403.658 367H400.838V381ZM415.525 381H422.025C424.545 381 426.145 379.32 426.145 377.08C426.145 375.56 425.365 374.28 424.025 373.64C425.045 373.02 425.605 371.94 425.605 370.64C425.605 368.6 424.125 367 421.665 367H415.525V381ZM417.725 372.8V369.06H421.385C422.745 369.06 423.485 369.82 423.485 370.88C423.485 372.02 422.765 372.8 421.425 372.8H417.725ZM417.725 378.94V374.8H421.625C423.045 374.8 423.865 375.66 423.865 376.86C423.865 378.08 423.045 378.94 421.625 378.94H417.725Z" fill="#410EAD"/>
<path opacity="0.25" d="M420.24 292H422.64L424.16 288.26H430.34L431.84 292H434.26L428.54 278H425.96L420.24 292ZM425 286.16L427.24 280.6L429.48 286.16H425ZM433.425 282.32L437.305 292H439.605L443.505 282.32H441.205L438.465 289.14L435.725 282.32H433.425ZM447.878 286.12C445.418 286.52 444.198 287.56 444.198 289.42C444.198 290.86 445.298 292.3 447.498 292.3C448.718 292.3 449.658 291.7 450.118 290.88V292H452.178V285.5C452.178 283.36 450.738 282.02 448.158 282.02C445.958 282.02 444.098 283.36 444.218 285.78L446.278 285.94C446.178 284.68 446.878 283.88 448.218 283.88C449.418 283.88 450.118 284.52 450.118 285.38V285.74L447.878 286.12ZM447.918 290.32C446.938 290.32 446.278 289.86 446.278 289.16C446.278 288.36 446.998 288 448.198 287.78L450.118 287.46V287.92C450.118 289.36 449.218 290.32 447.918 290.32ZM454.421 292H456.621V278H454.421V292ZM462.214 286.12C459.754 286.52 458.534 287.56 458.534 289.42C458.534 290.86 459.634 292.3 461.834 292.3C463.054 292.3 463.994 291.7 464.454 290.88V292H466.514V285.5C466.514 283.36 465.074 282.02 462.494 282.02C460.294 282.02 458.434 283.36 458.554 285.78L460.614 285.94C460.514 284.68 461.214 283.88 462.554 283.88C463.754 283.88 464.454 284.52 464.454 285.38V285.74L462.214 286.12ZM462.254 290.32C461.274 290.32 460.614 289.86 460.614 289.16C460.614 288.36 461.334 288 462.534 287.78L464.454 287.46V287.92C464.454 289.36 463.554 290.32 462.254 290.32ZM468.757 292H470.957V286.76C470.957 285.06 471.837 284 473.197 284C474.457 284 475.077 284.72 475.077 286.18V292H477.277V285.76C477.277 283.44 476.037 282.02 473.897 282.02C472.657 282.02 471.677 282.46 470.957 283.34V282.32H468.757V292ZM483.878 282.02C480.998 282.02 479.018 284.26 479.018 287.18C479.018 290.12 481.018 292.32 484.018 292.32C486.438 292.32 488.358 290.7 488.598 288.48L486.538 287.96C486.398 289.3 485.318 290.2 483.978 290.2C482.318 290.2 481.218 288.92 481.218 287.02C481.218 286.22 481.458 285.54 481.958 284.98C482.458 284.42 483.098 284.14 483.878 284.14C485.098 284.14 485.978 284.86 486.158 285.96L488.118 285.28C487.698 283.3 486.098 282.02 483.878 282.02ZM490.163 292H492.363V286.76C492.363 285.06 493.243 284 494.603 284C495.863 284 496.483 284.72 496.483 286.18V292H498.683V285.76C498.683 283.44 497.443 282.02 495.303 282.02C494.063 282.02 493.083 282.46 492.363 283.34V278H490.163V292ZM505.225 282.02C502.365 282.02 500.425 284.28 500.425 287.18C500.425 290.1 502.385 292.3 505.325 292.3C507.605 292.3 509.525 290.82 509.845 288.72L507.805 288.34C507.625 289.54 506.625 290.34 505.365 290.34C503.825 290.34 502.725 289.34 502.485 287.68H509.585V286.66C509.585 283.94 507.845 282.02 505.225 282.02ZM502.585 285.96C502.925 284.74 503.925 283.92 505.225 283.92C506.585 283.92 507.545 284.82 507.605 285.96H502.585Z" fill="#410EAD"/>
<path opacity="0.25" d="M338.94 414.7C334.8 414.62 331.88 417.94 331.94 422.04C331.94 426.22 334.84 429.3 339.14 429.3C342.52 429.36 345.38 427 345.7 423.88L343.54 423.42C343.3 425.66 341.38 427.18 339.1 427.18C336.14 427.18 334.14 424.98 334.14 421.78C334.14 419.06 336.1 416.82 338.92 416.82C341.06 416.82 342.56 418.08 342.9 420.02L344.92 419.34C344.4 416.58 342.06 414.7 338.94 414.7ZM350.714 423.12C348.254 423.52 347.034 424.56 347.034 426.42C347.034 427.86 348.134 429.3 350.334 429.3C351.554 429.3 352.494 428.7 352.954 427.88V429H355.014V422.5C355.014 420.36 353.574 419.02 350.994 419.02C348.794 419.02 346.934 420.36 347.054 422.78L349.114 422.94C349.014 421.68 349.714 420.88 351.054 420.88C352.254 420.88 352.954 421.52 352.954 422.38V422.74L350.714 423.12ZM350.754 427.32C349.774 427.32 349.114 426.86 349.114 426.16C349.114 425.36 349.834 425 351.034 424.78L352.954 424.46V424.92C352.954 426.36 352.054 427.32 350.754 427.32ZM357.257 429H359.457V423.66C359.457 421.98 360.197 421.04 361.257 421.04C362.157 421.04 362.697 421.68 362.697 422.9C362.697 423.08 362.697 423.2 362.677 423.3L364.857 422.96C364.937 420.32 363.797 419 361.957 419C360.857 419 360.017 419.46 359.457 420.24V419.32H357.257V429ZM370.378 419.02C367.758 419.02 365.858 421.32 365.858 424.16C365.858 427.04 367.758 429.3 370.378 429.3C371.718 429.3 372.798 428.82 373.578 427.86V429H375.778V415H373.578V420.46C372.778 419.5 371.718 419.02 370.378 419.02ZM370.838 427.18C369.178 427.18 368.058 425.92 368.058 424.16C368.058 423.3 368.318 422.58 368.838 422C369.358 421.42 370.018 421.14 370.838 421.14C371.638 421.14 372.298 421.42 372.798 422C373.318 422.58 373.578 423.3 373.578 424.16C373.578 425.92 372.458 427.18 370.838 427.18ZM381.378 423.12C378.918 423.52 377.698 424.56 377.698 426.42C377.698 427.86 378.798 429.3 380.998 429.3C382.218 429.3 383.158 428.7 383.618 427.88V429H385.678V422.5C385.678 420.36 384.238 419.02 381.658 419.02C379.458 419.02 377.598 420.36 377.718 422.78L379.778 422.94C379.678 421.68 380.378 420.88 381.718 420.88C382.918 420.88 383.618 421.52 383.618 422.38V422.74L381.378 423.12ZM381.418 427.32C380.438 427.32 379.778 426.86 379.778 426.16C379.778 425.36 380.498 425 381.698 424.78L383.618 424.46V424.92C383.618 426.36 382.718 427.32 381.418 427.32ZM387.921 429H390.121V423.76C390.121 422.06 391.001 421 392.361 421C393.621 421 394.241 421.72 394.241 423.18V429H396.441V422.76C396.441 420.44 395.201 419.02 393.061 419.02C391.821 419.02 390.841 419.46 390.121 420.34V419.32H387.921V429ZM403.223 419.02C400.283 419.02 398.183 421.28 398.183 424.18C398.183 427.08 400.263 429.3 403.223 429.3C406.203 429.3 408.243 427.08 408.243 424.18C408.243 421.28 406.183 419.02 403.223 419.02ZM403.223 427.18C402.403 427.18 401.723 426.9 401.183 426.34C400.643 425.76 400.383 425.04 400.383 424.18C400.383 423.3 400.643 422.58 401.183 422C401.723 421.42 402.403 421.14 403.223 421.14C404.043 421.14 404.703 421.44 405.243 422.02C405.783 422.6 406.043 423.32 406.043 424.18C406.043 425.04 405.783 425.76 405.243 426.34C404.703 426.9 404.043 427.18 403.223 427.18Z" fill="#410EAD"/>
<path opacity="0.25" d="M274.36 456L269.3 463H272.08L275.8 457.8L279.54 463H282.36L277.24 455.98L282.36 449H279.6L275.82 454.22L272.06 449H269.24L274.36 456ZM283.834 463H286.034V457.42H289.474L292.094 463.02H294.494L291.714 457.18C293.414 456.6 294.434 455.12 294.434 453.2C294.434 450.76 292.734 449 290.074 449H283.834V463ZM286.034 455.3V451.12H289.934C291.374 451.12 292.234 451.92 292.234 453.2C292.234 454.5 291.374 455.3 289.934 455.3H286.034ZM296.353 463H298.553V457.42H302.473C305.193 457.42 306.833 455.68 306.833 453.2C306.833 450.76 305.173 449 302.473 449H296.353V463ZM298.553 455.3V451.12H302.333C303.793 451.12 304.633 451.9 304.633 453.2C304.633 454.54 303.833 455.3 302.333 455.3H298.553ZM313.541 463H323.241V460.88H315.741V449H313.541V463ZM328.834 453.02C325.974 453.02 324.034 455.28 324.034 458.18C324.034 461.1 325.994 463.3 328.934 463.3C331.214 463.3 333.134 461.82 333.454 459.72L331.414 459.34C331.234 460.54 330.234 461.34 328.974 461.34C327.434 461.34 326.334 460.34 326.094 458.68H333.194V457.66C333.194 454.94 331.454 453.02 328.834 453.02ZM326.194 456.96C326.534 455.74 327.534 454.92 328.834 454.92C330.194 454.92 331.154 455.82 331.214 456.96H326.194ZM339.218 453.02C336.598 453.02 334.698 455.32 334.698 458.16C334.698 461.04 336.598 463.3 339.218 463.3C340.558 463.3 341.638 462.82 342.418 461.86V463H344.618V449H342.418V454.46C341.618 453.5 340.558 453.02 339.218 453.02ZM339.678 461.18C338.018 461.18 336.898 459.92 336.898 458.16C336.898 457.3 337.158 456.58 337.678 456C338.198 455.42 338.858 455.14 339.678 455.14C340.478 455.14 341.138 455.42 341.638 456C342.158 456.58 342.418 457.3 342.418 458.16C342.418 459.92 341.298 461.18 339.678 461.18ZM350.838 453.08C348.238 453.08 346.358 455.26 346.358 457.92C346.358 460.62 348.258 462.7 350.878 462.7C352.098 462.7 353.058 462.26 353.798 461.38V462.78C353.798 464.7 352.698 465.86 351.038 465.86C349.498 465.86 348.538 464.82 348.558 463.32L346.418 463.62C346.378 466.12 348.318 467.8 350.998 467.8C353.938 467.8 355.998 465.68 355.998 462.68V453.32H353.798V454.44C353.078 453.58 352.058 453.08 350.838 453.08ZM351.178 460.66C349.598 460.66 348.558 459.52 348.558 457.92C348.558 456.32 349.638 455.18 351.178 455.18C352.698 455.18 353.798 456.32 353.798 457.92C353.798 459.52 352.698 460.66 351.178 460.66ZM362.545 453.02C359.685 453.02 357.745 455.28 357.745 458.18C357.745 461.1 359.705 463.3 362.645 463.3C364.925 463.3 366.845 461.82 367.165 459.72L365.125 459.34C364.945 460.54 363.945 461.34 362.685 461.34C361.145 461.34 360.045 460.34 359.805 458.68H366.905V457.66C366.905 454.94 365.165 453.02 362.545 453.02ZM359.905 456.96C360.245 455.74 361.245 454.92 362.545 454.92C363.905 454.92 364.865 455.82 364.925 456.96H359.905ZM368.909 463H371.109V457.66C371.109 455.98 371.849 455.04 372.909 455.04C373.809 455.04 374.349 455.68 374.349 456.9C374.349 457.08 374.349 457.2 374.329 457.3L376.509 456.96C376.589 454.32 375.449 453 373.609 453C372.509 453 371.669 453.46 371.109 454.24V453.32H368.909V463Z" fill="#410EAD"/>
<path opacity="0.25" d="M175.24 68L178.84 82H181.52L184.2 71.58L186.88 82H189.54L193.14 68H190.9L188.2 78.86L185.38 68H183L180.2 78.72L177.5 68H175.24ZM197.705 72.02C194.845 72.02 192.905 74.28 192.905 77.18C192.905 80.1 194.865 82.3 197.805 82.3C200.085 82.3 202.005 80.82 202.325 78.72L200.285 78.34C200.105 79.54 199.105 80.34 197.845 80.34C196.305 80.34 195.205 79.34 194.965 77.68H202.065V76.66C202.065 73.94 200.325 72.02 197.705 72.02ZM195.065 75.96C195.405 74.74 196.405 73.92 197.705 73.92C199.065 73.92 200.025 74.82 200.085 75.96H195.065ZM204.069 82H206.249V80.84C207.029 81.82 208.089 82.3 209.469 82.3C212.069 82.3 213.969 80.04 213.969 77.16C213.969 74.3 212.069 72 209.469 72C208.129 72 207.049 72.48 206.249 73.46V68H204.069V82ZM209.009 80.16C208.189 80.16 207.529 79.88 207.009 79.32C206.509 78.74 206.249 78.02 206.249 77.16C206.249 75.4 207.409 74.14 209.009 74.14C210.609 74.14 211.769 75.4 211.769 77.16C211.769 78.92 210.629 80.16 209.009 80.16ZM220.174 77.6C220.054 80.16 221.914 82.3 225.274 82.3C228.754 82.3 230.594 80.18 230.594 77.72C230.594 76.28 229.894 75.04 228.534 74.3C229.474 73.58 229.934 72.54 229.934 71.34C229.934 69.34 228.334 67.7 225.294 67.7C222.454 67.7 220.734 69.46 220.694 71.72L222.914 72.08C222.914 70.82 223.694 69.82 225.314 69.82C226.834 69.82 227.714 70.5 227.714 71.62C227.714 72.72 226.894 73.44 225.274 73.46L224.034 73.48V75.5H225.354C227.194 75.5 228.334 76.3 228.334 77.72C228.334 79.22 227.194 80.18 225.294 80.18C223.454 80.18 222.494 79.12 222.494 77.58L222.514 77.24L220.174 77.6Z" fill="#410EAD"/>
<path opacity="0.25" d="M56.24 135H58.44L58.46 125.1L62.68 135H65L69.24 125.04V135H71.44V121H68.72L63.84 132.48L58.96 121H56.24V135ZM78.0958 125.02C75.2358 125.02 73.2958 127.28 73.2958 130.18C73.2958 133.1 75.2558 135.3 78.1958 135.3C80.4758 135.3 82.3958 133.82 82.7158 131.72L80.6758 131.34C80.4958 132.54 79.4958 133.34 78.2358 133.34C76.6958 133.34 75.5958 132.34 75.3558 130.68H82.4558V129.66C82.4558 126.94 80.7158 125.02 78.0958 125.02ZM75.4558 128.96C75.7958 127.74 76.7958 126.92 78.0958 126.92C79.4558 126.92 80.4158 127.82 80.4758 128.96H75.4558ZM83.5622 127.24H85.2422V131.6C85.2422 133.9 86.6822 135.3 89.0622 135.3C91.1622 135.3 92.6822 133.78 92.5622 131.44L90.4622 131.24C90.5622 132.52 89.9622 133.3 88.9822 133.3C88.0222 133.3 87.4422 132.72 87.4422 131.66V127.24H92.2022V125.32H87.4422V122.48H85.2422V125.32H83.5622V127.24ZM97.4292 129.12C94.9692 129.52 93.7492 130.56 93.7492 132.42C93.7492 133.86 94.8492 135.3 97.0492 135.3C98.2692 135.3 99.2092 134.7 99.6692 133.88V135H101.729V128.5C101.729 126.36 100.289 125.02 97.7092 125.02C95.5092 125.02 93.6492 126.36 93.7692 128.78L95.8292 128.94C95.7292 127.68 96.4292 126.88 97.7692 126.88C98.9692 126.88 99.6692 127.52 99.6692 128.38V128.74L97.4292 129.12ZM97.4692 133.32C96.4892 133.32 95.8292 132.86 95.8292 132.16C95.8292 131.36 96.5492 131 97.7492 130.78L99.6692 130.46V130.92C99.6692 132.36 98.7692 133.32 97.4692 133.32ZM102.742 125.32L106.622 135H108.922L112.822 125.32H110.522L107.782 132.14L105.042 125.32H102.742ZM118.193 125.02C115.333 125.02 113.393 127.28 113.393 130.18C113.393 133.1 115.353 135.3 118.293 135.3C120.573 135.3 122.493 133.82 122.813 131.72L120.773 131.34C120.593 132.54 119.593 133.34 118.333 133.34C116.793 133.34 115.693 132.34 115.453 130.68H122.553V129.66C122.553 126.94 120.813 125.02 118.193 125.02ZM115.553 128.96C115.893 127.74 116.893 126.92 118.193 126.92C119.553 126.92 120.513 127.82 120.573 128.96H115.553ZM124.558 135H126.758V129.66C126.758 127.98 127.498 127.04 128.558 127.04C129.458 127.04 129.998 127.68 129.998 128.9C129.998 129.08 129.998 129.2 129.978 129.3L132.158 128.96C132.238 126.32 131.098 125 129.258 125C128.158 125 127.318 125.46 126.758 126.24V125.32H124.558V135ZM132.922 131.62C133.122 132.72 133.622 133.62 134.422 134.3C135.222 134.96 136.182 135.3 137.322 135.3C139.642 135.3 141.302 133.98 141.302 132.04C141.302 130.18 139.982 129.12 137.362 128.86C136.102 128.72 135.742 128.42 135.742 127.88C135.742 127.34 136.302 127.04 137.162 127.04C138.102 127.04 138.762 127.54 139.002 128.5L140.882 127.92C140.402 126.14 138.902 125 137.162 125C135.122 125 133.562 126.22 133.562 127.88C133.562 129.64 134.782 130.74 137.122 130.98C138.642 131.14 139.162 131.52 139.162 132.14C139.162 132.8 138.502 133.28 137.322 133.28C136.042 133.28 135.202 132.5 134.982 131.22L132.922 131.62ZM147.275 125.02C144.415 125.02 142.475 127.28 142.475 130.18C142.475 133.1 144.435 135.3 147.375 135.3C149.655 135.3 151.575 133.82 151.895 131.72L149.855 131.34C149.675 132.54 148.675 133.34 147.415 133.34C145.875 133.34 144.775 132.34 144.535 130.68H151.635V129.66C151.635 126.94 149.895 125.02 147.275 125.02ZM144.635 128.96C144.975 127.74 145.975 126.92 147.275 126.92C148.635 126.92 149.595 127.82 149.655 128.96H144.635Z" fill="#410EAD"/>
<path opacity="0.25" d="M284.24 82H290.74C293.26 82 294.86 80.32 294.86 78.08C294.86 76.56 294.08 75.28 292.74 74.64C293.76 74.02 294.32 72.94 294.32 71.64C294.32 69.6 292.84 68 290.38 68H284.24V82ZM286.44 73.8V70.06H290.1C291.46 70.06 292.2 70.82 292.2 71.88C292.2 73.02 291.48 73.8 290.14 73.8H286.44ZM286.44 79.94V75.8H290.34C291.76 75.8 292.58 76.66 292.58 77.86C292.58 79.08 291.76 79.94 290.34 79.94H286.44ZM296.6 82H298.8V68H296.6V82ZM305.574 72.02C302.634 72.02 300.534 74.28 300.534 77.18C300.534 80.08 302.614 82.3 305.574 82.3C308.554 82.3 310.594 80.08 310.594 77.18C310.594 74.28 308.534 72.02 305.574 72.02ZM305.574 80.18C304.754 80.18 304.074 79.9 303.534 79.34C302.994 78.76 302.734 78.04 302.734 77.18C302.734 76.3 302.994 75.58 303.534 75C304.074 74.42 304.754 74.14 305.574 74.14C306.394 74.14 307.054 74.44 307.594 75.02C308.134 75.6 308.394 76.32 308.394 77.18C308.394 78.04 308.134 78.76 307.594 79.34C307.054 79.9 306.394 80.18 305.574 80.18ZM316.703 72.02C313.823 72.02 311.843 74.26 311.843 77.18C311.843 80.12 313.843 82.32 316.843 82.32C319.263 82.32 321.183 80.7 321.423 78.48L319.363 77.96C319.223 79.3 318.143 80.2 316.803 80.2C315.143 80.2 314.043 78.92 314.043 77.02C314.043 76.22 314.283 75.54 314.783 74.98C315.283 74.42 315.923 74.14 316.703 74.14C317.923 74.14 318.803 74.86 318.983 75.96L320.943 75.28C320.523 73.3 318.923 72.02 316.703 72.02ZM322.987 82H325.187V78.76L326.047 77.9L329.167 82H331.847L327.567 76.38L331.607 72.32H328.767L325.187 75.92V68H322.987V82ZM336.781 72.02C333.901 72.02 331.921 74.26 331.921 77.18C331.921 80.12 333.921 82.32 336.921 82.32C339.341 82.32 341.261 80.7 341.501 78.48L339.441 77.96C339.301 79.3 338.221 80.2 336.881 80.2C335.221 80.2 334.121 78.92 334.121 77.02C334.121 76.22 334.361 75.54 334.861 74.98C335.361 74.42 336.001 74.14 336.781 74.14C338.001 74.14 338.881 74.86 339.061 75.96L341.021 75.28C340.601 73.3 339.001 72.02 336.781 72.02ZM343.065 82H345.265V76.76C345.265 75.06 346.145 74 347.505 74C348.765 74 349.385 74.72 349.385 76.18V82H351.585V75.76C351.585 73.44 350.345 72.02 348.205 72.02C346.965 72.02 345.985 72.46 345.265 73.34V68H343.065V82ZM357.187 76.12C354.727 76.52 353.507 77.56 353.507 79.42C353.507 80.86 354.607 82.3 356.807 82.3C358.027 82.3 358.967 81.7 359.427 80.88V82H361.487V75.5C361.487 73.36 360.047 72.02 357.467 72.02C355.267 72.02 353.407 73.36 353.527 75.78L355.587 75.94C355.487 74.68 356.187 73.88 357.527 73.88C358.727 73.88 359.427 74.52 359.427 75.38V75.74L357.187 76.12ZM357.227 80.32C356.247 80.32 355.587 79.86 355.587 79.16C355.587 78.36 356.307 78 357.507 77.78L359.427 77.46V77.92C359.427 79.36 358.527 80.32 357.227 80.32ZM363.729 82H365.929V72.32H363.729V82ZM364.809 68.02C364.029 68.02 363.409 68.66 363.409 69.44C363.409 70.22 364.029 70.86 364.809 70.86C365.589 70.86 366.229 70.22 366.229 69.44C366.229 68.66 365.589 68.02 364.809 68.02ZM368.163 82H370.363V76.76C370.363 75.06 371.243 74 372.603 74C373.863 74 374.483 74.72 374.483 76.18V82H376.683V75.76C376.683 73.44 375.443 72.02 373.303 72.02C372.063 72.02 371.083 72.46 370.363 73.34V72.32H368.163V82Z" fill="#410EAD"/>
<path opacity="0.25" d="M391.24 135H393.44L393.48 124.02L400.84 135H403.44V121H401.24V131.68L394.06 121H391.24V135ZM405.928 135H408.128V129.32H414.808V127.2H408.128V123.12H415.628V121H405.928V135ZM416.65 123.12H421.23V135H423.43V123.12H428.01V121H416.65V123.12Z" fill="#410EAD"/>
<path opacity="0.25" d="M19.24 339H29.02V336.88H21.44V332.9H28.2V330.78H21.44V327.12H29.02V325H19.24V339ZM30.0192 331.24H31.6992V335.6C31.6992 337.9 33.1392 339.3 35.5192 339.3C37.6192 339.3 39.1392 337.78 39.0192 335.44L36.9192 335.24C37.0192 336.52 36.4192 337.3 35.4392 337.3C34.4792 337.3 33.8992 336.72 33.8992 335.66V331.24H38.6592V329.32H33.8992V326.48H31.6992V329.32H30.0192V331.24ZM40.6434 339H42.8434V333.76C42.8434 332.06 43.7234 331 45.0834 331C46.3434 331 46.9634 331.72 46.9634 333.18V339H49.1634V332.76C49.1634 330.44 47.9234 329.02 45.7834 329.02C44.5434 329.02 43.5634 329.46 42.8434 330.34V325H40.6434V339ZM55.7052 329.02C52.8452 329.02 50.9052 331.28 50.9052 334.18C50.9052 337.1 52.8652 339.3 55.8052 339.3C58.0852 339.3 60.0052 337.82 60.3252 335.72L58.2852 335.34C58.1052 336.54 57.1052 337.34 55.8452 337.34C54.3052 337.34 53.2052 336.34 52.9652 334.68H60.0652V333.66C60.0652 330.94 58.3252 329.02 55.7052 329.02ZM53.0652 332.96C53.4052 331.74 54.4052 330.92 55.7052 330.92C57.0652 330.92 58.0252 331.82 58.0852 332.96H53.0652ZM62.0692 339H64.2692V333.66C64.2692 331.98 65.0092 331.04 66.0692 331.04C66.9692 331.04 67.5092 331.68 67.5092 332.9C67.5092 333.08 67.5092 333.2 67.4892 333.3L69.6692 332.96C69.7492 330.32 68.6092 329 66.7692 329C65.6692 329 64.8292 329.46 64.2692 330.24V329.32H62.0692V339ZM75.4708 329.02C72.6108 329.02 70.6708 331.28 70.6708 334.18C70.6708 337.1 72.6308 339.3 75.5708 339.3C77.8508 339.3 79.7708 337.82 80.0908 335.72L78.0508 335.34C77.8708 336.54 76.8708 337.34 75.6108 337.34C74.0708 337.34 72.9708 336.34 72.7308 334.68H79.8308V333.66C79.8308 330.94 78.0908 329.02 75.4708 329.02ZM72.8308 332.96C73.1708 331.74 74.1708 330.92 75.4708 330.92C76.8308 330.92 77.7908 331.82 77.8508 332.96H72.8308ZM90.3548 329.32H88.1548V334.56C88.1548 336.26 87.2748 337.32 85.9148 337.32C84.6548 337.32 84.0348 336.6 84.0348 335.14V329.32H81.8348V335.56C81.8348 337.88 83.0748 339.3 85.2148 339.3C86.4548 339.3 87.4348 338.86 88.1548 337.98V339H90.3548V329.32ZM92.5966 339H94.7166V333.58C94.7166 331.88 95.3966 331 96.4966 331C97.5166 331 97.9766 331.54 97.9766 332.82V339H100.057L99.9966 333.26C100.097 331.74 100.737 331 101.777 331C102.757 331 103.217 331.54 103.217 332.82V339H105.357L105.317 332.3C105.317 330.12 104.297 329.02 102.457 329.02C101.237 329.02 100.297 329.64 99.7366 330.7C99.3366 329.58 98.4366 329.02 97.1366 329.02C96.0766 329.02 95.2566 329.52 94.7166 330.42V329.34H92.5966V339Z" fill="#410EAD"/>
<path opacity="0.25" d="M415.24 339H417.44V333.42H421.36C424.08 333.42 425.72 331.68 425.72 329.2C425.72 326.76 424.06 325 421.36 325H415.24V339ZM417.44 331.3V327.12H421.22C422.68 327.12 423.52 327.9 423.52 329.2C423.52 330.54 422.72 331.3 421.22 331.3H417.44ZM431.203 329.02C428.263 329.02 426.163 331.28 426.163 334.18C426.163 337.08 428.243 339.3 431.203 339.3C434.183 339.3 436.223 337.08 436.223 334.18C436.223 331.28 434.163 329.02 431.203 329.02ZM431.203 337.18C430.383 337.18 429.703 336.9 429.163 336.34C428.623 335.76 428.363 335.04 428.363 334.18C428.363 333.3 428.623 332.58 429.163 332C429.703 331.42 430.383 331.14 431.203 331.14C432.023 331.14 432.683 331.44 433.223 332.02C433.763 332.6 434.023 333.32 434.023 334.18C434.023 335.04 433.763 335.76 433.223 336.34C432.683 336.9 432.023 337.18 431.203 337.18ZM437.972 339H440.172V325H437.972V339ZM441.785 339.68C441.665 342.16 443.545 343.8 446.185 343.8C449.085 343.8 451.065 341.68 451.065 338.8V329.32H448.865V334.06C448.865 335.8 447.945 336.86 446.565 336.86C445.265 336.86 444.605 336.12 444.605 334.64V329.32H442.405L442.445 335.06C442.445 337.4 443.725 338.84 445.865 338.84C447.125 338.84 448.125 338.38 448.865 337.48V338.88C448.865 340.7 447.785 341.84 446.185 341.84C444.765 341.84 443.785 340.94 443.865 339.4L441.785 339.68ZM457.284 329.08C454.684 329.08 452.804 331.26 452.804 333.92C452.804 336.62 454.704 338.7 457.324 338.7C458.544 338.7 459.504 338.26 460.244 337.38V338.78C460.244 340.7 459.144 341.86 457.484 341.86C455.944 341.86 454.984 340.82 455.004 339.32L452.864 339.62C452.824 342.12 454.764 343.8 457.444 343.8C460.384 343.8 462.444 341.68 462.444 338.68V329.32H460.244V330.44C459.524 329.58 458.504 329.08 457.284 329.08ZM457.624 336.66C456.044 336.66 455.004 335.52 455.004 333.92C455.004 332.32 456.084 331.18 457.624 331.18C459.144 331.18 460.244 332.32 460.244 333.92C460.244 335.52 459.144 336.66 457.624 336.66ZM469.23 329.02C466.29 329.02 464.19 331.28 464.19 334.18C464.19 337.08 466.27 339.3 469.23 339.3C472.21 339.3 474.25 337.08 474.25 334.18C474.25 331.28 472.19 329.02 469.23 329.02ZM469.23 337.18C468.41 337.18 467.73 336.9 467.19 336.34C466.65 335.76 466.39 335.04 466.39 334.18C466.39 333.3 466.65 332.58 467.19 332C467.73 331.42 468.41 331.14 469.23 331.14C470.05 331.14 470.71 331.44 471.25 332.02C471.79 332.6 472.05 333.32 472.05 334.18C472.05 335.04 471.79 335.76 471.25 336.34C470.71 336.9 470.05 337.18 469.23 337.18ZM475.999 339H478.199V333.76C478.199 332.06 479.079 331 480.439 331C481.699 331 482.319 331.72 482.319 333.18V339H484.519V332.76C484.519 330.44 483.279 329.02 481.139 329.02C479.899 329.02 478.919 329.46 478.199 330.34V329.32H475.999V339Z" fill="#410EAD"/>
<path opacity="0.25" d="M105.24 429H107.44V423.42H111.36C114.08 423.42 115.72 421.68 115.72 419.2C115.72 416.76 114.06 415 111.36 415H105.24V429ZM107.44 421.3V417.12H111.22C112.68 417.12 113.52 417.9 113.52 419.2C113.52 420.54 112.72 421.3 111.22 421.3H107.44ZM121.203 419.02C118.263 419.02 116.163 421.28 116.163 424.18C116.163 427.08 118.243 429.3 121.203 429.3C124.183 429.3 126.223 427.08 126.223 424.18C126.223 421.28 124.163 419.02 121.203 419.02ZM121.203 427.18C120.383 427.18 119.703 426.9 119.163 426.34C118.623 425.76 118.363 425.04 118.363 424.18C118.363 423.3 118.623 422.58 119.163 422C119.703 421.42 120.383 421.14 121.203 421.14C122.023 421.14 122.683 421.44 123.223 422.02C123.763 422.6 124.023 423.32 124.023 424.18C124.023 425.04 123.763 425.76 123.223 426.34C122.683 426.9 122.023 427.18 121.203 427.18ZM127.972 429H130.172V415H127.972V429ZM132.405 429H134.605V425.76L135.465 424.9L138.585 429H141.265L136.985 423.38L141.025 419.32H138.185L134.605 422.92V415H132.405V429ZM145.453 423.12C142.993 423.52 141.773 424.56 141.773 426.42C141.773 427.86 142.873 429.3 145.073 429.3C146.293 429.3 147.233 428.7 147.693 427.88V429H149.753V422.5C149.753 420.36 148.313 419.02 145.733 419.02C143.533 419.02 141.673 420.36 141.793 422.78L143.853 422.94C143.753 421.68 144.453 420.88 145.793 420.88C146.993 420.88 147.693 421.52 147.693 422.38V422.74L145.453 423.12ZM145.493 427.32C144.513 427.32 143.853 426.86 143.853 426.16C143.853 425.36 144.573 425 145.773 424.78L147.693 424.46V424.92C147.693 426.36 146.793 427.32 145.493 427.32ZM156.015 419.02C153.395 419.02 151.495 421.32 151.495 424.16C151.495 427.04 153.395 429.3 156.015 429.3C157.355 429.3 158.435 428.82 159.215 427.86V429H161.415V415H159.215V420.46C158.415 419.5 157.355 419.02 156.015 419.02ZM156.475 427.18C154.815 427.18 153.695 425.92 153.695 424.16C153.695 423.3 153.955 422.58 154.475 422C154.995 421.42 155.655 421.14 156.475 421.14C157.275 421.14 157.935 421.42 158.435 422C158.955 422.58 159.215 423.3 159.215 424.16C159.215 425.92 158.095 427.18 156.475 427.18ZM168.195 419.02C165.255 419.02 163.155 421.28 163.155 424.18C163.155 427.08 165.235 429.3 168.195 429.3C171.175 429.3 173.215 427.08 173.215 424.18C173.215 421.28 171.155 419.02 168.195 419.02ZM168.195 427.18C167.375 427.18 166.695 426.9 166.155 426.34C165.615 425.76 165.355 425.04 165.355 424.18C165.355 423.3 165.615 422.58 166.155 422C166.695 421.42 167.375 421.14 168.195 421.14C169.015 421.14 169.675 421.44 170.215 422.02C170.755 422.6 171.015 423.32 171.015 424.18C171.015 425.04 170.755 425.76 170.215 426.34C169.675 426.9 169.015 427.18 168.195 427.18ZM174.164 421.24H175.844V425.6C175.844 427.9 177.284 429.3 179.664 429.3C181.764 429.3 183.284 427.78 183.164 425.44L181.064 425.24C181.164 426.52 180.564 427.3 179.584 427.3C178.624 427.3 178.044 426.72 178.044 425.66V421.24H182.804V419.32H178.044V416.48H175.844V419.32H174.164V421.24Z" fill="#410EAD"/>
<path opacity="0.25" d="M177.94 448.7C173.8 448.62 170.88 451.94 170.94 456.04C170.94 460.22 173.84 463.3 178.14 463.3C181.52 463.36 184.38 461 184.7 457.88L182.54 457.42C182.3 459.66 180.38 461.18 178.1 461.18C175.14 461.18 173.14 458.98 173.14 455.78C173.14 453.06 175.1 450.82 177.92 450.82C180.06 450.82 181.56 452.08 181.9 454.02L183.92 453.34C183.4 450.58 181.06 448.7 177.94 448.7ZM189.714 457.12C187.254 457.52 186.034 458.56 186.034 460.42C186.034 461.86 187.134 463.3 189.334 463.3C190.554 463.3 191.494 462.7 191.954 461.88V463H194.014V456.5C194.014 454.36 192.574 453.02 189.994 453.02C187.794 453.02 185.934 454.36 186.054 456.78L188.114 456.94C188.014 455.68 188.714 454.88 190.054 454.88C191.254 454.88 191.954 455.52 191.954 456.38V456.74L189.714 457.12ZM189.754 461.32C188.774 461.32 188.114 460.86 188.114 460.16C188.114 459.36 188.834 459 190.034 458.78L191.954 458.46V458.92C191.954 460.36 191.054 461.32 189.754 461.32ZM196.257 463H198.457V457.66C198.457 455.98 199.197 455.04 200.257 455.04C201.157 455.04 201.697 455.68 201.697 456.9C201.697 457.08 201.697 457.2 201.677 457.3L203.857 456.96C203.937 454.32 202.797 453 200.957 453C199.857 453 199.017 453.46 198.457 454.24V453.32H196.257V463ZM209.378 453.02C206.758 453.02 204.858 455.32 204.858 458.16C204.858 461.04 206.758 463.3 209.378 463.3C210.718 463.3 211.798 462.82 212.578 461.86V463H214.778V449H212.578V454.46C211.778 453.5 210.718 453.02 209.378 453.02ZM209.838 461.18C208.178 461.18 207.058 459.92 207.058 458.16C207.058 457.3 207.318 456.58 207.838 456C208.358 455.42 209.018 455.14 209.838 455.14C210.638 455.14 211.298 455.42 211.798 456C212.318 456.58 212.578 457.3 212.578 458.16C212.578 459.92 211.458 461.18 209.838 461.18ZM220.378 457.12C217.918 457.52 216.698 458.56 216.698 460.42C216.698 461.86 217.798 463.3 219.998 463.3C221.218 463.3 222.158 462.7 222.618 461.88V463H224.678V456.5C224.678 454.36 223.238 453.02 220.658 453.02C218.458 453.02 216.598 454.36 216.718 456.78L218.778 456.94C218.678 455.68 219.378 454.88 220.718 454.88C221.918 454.88 222.618 455.52 222.618 456.38V456.74L220.378 457.12ZM220.418 461.32C219.438 461.32 218.778 460.86 218.778 460.16C218.778 459.36 219.498 459 220.698 458.78L222.618 458.46V458.92C222.618 460.36 221.718 461.32 220.418 461.32ZM226.921 463H229.121V457.76C229.121 456.06 230.001 455 231.361 455C232.621 455 233.241 455.72 233.241 457.18V463H235.441V456.76C235.441 454.44 234.201 453.02 232.061 453.02C230.821 453.02 229.841 453.46 229.121 454.34V453.32H226.921V463ZM242.223 453.02C239.283 453.02 237.183 455.28 237.183 458.18C237.183 461.08 239.263 463.3 242.223 463.3C245.203 463.3 247.243 461.08 247.243 458.18C247.243 455.28 245.183 453.02 242.223 453.02ZM242.223 461.18C241.403 461.18 240.723 460.9 240.183 460.34C239.643 459.76 239.383 459.04 239.383 458.18C239.383 457.3 239.643 456.58 240.183 456C240.723 455.42 241.403 455.14 242.223 455.14C243.043 455.14 243.703 455.44 244.243 456.02C244.783 456.6 245.043 457.32 245.043 458.18C245.043 459.04 244.783 459.76 244.243 460.34C243.703 460.9 243.043 461.18 242.223 461.18Z" fill="#410EAD"/>
<path opacity="0.25" d="M70.5 376.32C70.76 377.86 71.44 379.06 72.5 379.96C73.56 380.86 74.9 381.3 76.48 381.3C79.72 381.3 81.88 379.48 81.88 376.8C81.88 374.24 80.08 372.9 76.48 372.52C74.38 372.3 73.54 371.7 73.54 370.56C73.54 369.54 74.66 368.82 76.26 368.82C77.78 368.82 78.98 369.88 79.36 371.54L81.48 370.72C81.2 369.5 80.58 368.54 79.64 367.82C78.7 367.08 77.56 366.72 76.26 366.72C73.44 366.72 71.34 368.32 71.34 370.52C71.34 372.98 72.94 374.38 76.16 374.72C78.58 374.98 79.68 375.7 79.68 376.88C79.66 378.26 78.46 379.18 76.48 379.18C74.42 379.18 73 377.86 72.58 375.6L70.5 376.32ZM88.3163 371.02C85.3763 371.02 83.2763 373.28 83.2763 376.18C83.2763 379.08 85.3563 381.3 88.3163 381.3C91.2963 381.3 93.3363 379.08 93.3363 376.18C93.3363 373.28 91.2763 371.02 88.3163 371.02ZM88.3163 379.18C87.4963 379.18 86.8163 378.9 86.2763 378.34C85.7363 377.76 85.4763 377.04 85.4763 376.18C85.4763 375.3 85.7363 374.58 86.2763 374C86.8163 373.42 87.4963 373.14 88.3163 373.14C89.1363 373.14 89.7963 373.44 90.3363 374.02C90.8763 374.6 91.1363 375.32 91.1363 376.18C91.1363 377.04 90.8763 377.76 90.3363 378.34C89.7963 378.9 89.1363 379.18 88.3163 379.18ZM95.0848 381H97.2848V367H95.0848V381ZM102.878 375.12C100.418 375.52 99.1984 376.56 99.1984 378.42C99.1984 379.86 100.298 381.3 102.498 381.3C103.718 381.3 104.658 380.7 105.118 379.88V381H107.178V374.5C107.178 372.36 105.738 371.02 103.158 371.02C100.958 371.02 99.0984 372.36 99.2184 374.78L101.278 374.94C101.178 373.68 101.878 372.88 103.218 372.88C104.418 372.88 105.118 373.52 105.118 374.38V374.74L102.878 375.12ZM102.918 379.32C101.938 379.32 101.278 378.86 101.278 378.16C101.278 377.36 101.998 377 103.198 376.78L105.118 376.46V376.92C105.118 378.36 104.218 379.32 102.918 379.32ZM109.421 381H111.621V375.76C111.621 374.06 112.501 373 113.861 373C115.121 373 115.741 373.72 115.741 375.18V381H117.941V374.76C117.941 372.44 116.701 371.02 114.561 371.02C113.321 371.02 112.341 371.46 111.621 372.34V371.32H109.421V381ZM123.543 375.12C121.083 375.52 119.863 376.56 119.863 378.42C119.863 379.86 120.963 381.3 123.163 381.3C124.383 381.3 125.323 380.7 125.783 379.88V381H127.843V374.5C127.843 372.36 126.403 371.02 123.823 371.02C121.623 371.02 119.763 372.36 119.883 374.78L121.943 374.94C121.843 373.68 122.543 372.88 123.883 372.88C125.083 372.88 125.783 373.52 125.783 374.38V374.74L123.543 375.12ZM123.583 379.32C122.603 379.32 121.943 378.86 121.943 378.16C121.943 377.36 122.663 377 123.863 376.78L125.783 376.46V376.92C125.783 378.36 124.883 379.32 123.583 379.32Z" fill="#410EAD"/>
</svg>
