<svg width="123" height="34" viewBox="0 0 123 34" fill="none" xmlns="http://www.w3.org/2000/svg">
<g opacity="0.7">
<path d="M68.4228 29.0315C68.4228 29.7438 68.5133 29.8206 69.1956 29.6897L69.2244 29.682C70.313 29.4548 71.0405 28.5249 71.0415 27.3364C71.0457 23.642 71.0457 19.9465 71.0415 16.2521C71.0415 15.4588 70.9479 15.3794 70.1896 15.531C70.1598 15.5366 70.1299 15.5462 70.1021 15.5537C69.1132 15.8104 68.4352 16.6926 68.4249 17.7902C68.4126 19.6705 68.4218 21.5485 68.4218 23.4266H68.4198C68.4198 25.2949 68.4208 27.1632 68.4228 29.0315ZM55.3643 29.7881C55.7018 29.7946 55.8911 29.5944 56.0341 29.3053C57.7792 25.783 59.5253 22.2608 61.2736 18.7406C61.394 18.51 61.4588 18.2514 61.4588 17.9883C61.4372 17.5672 61.2438 17.1463 61.0029 16.7457C60.6171 16.1071 60.1387 15.5463 59.6602 14.9857C59.5954 14.9098 59.547 14.7722 59.4421 14.7973C59.3361 14.8211 59.3515 14.9672 59.3341 15.0658C59.1334 16.1872 58.9101 17.2999 58.4358 18.3369C57.5189 20.3332 56.4992 22.2729 55.5351 24.2427C55.496 24.3207 55.4672 24.4441 55.3581 24.4267C55.249 24.4083 55.2254 24.2806 55.1791 24.1908C54.2643 22.3355 53.3506 20.4791 52.4368 18.6216C52.0078 17.748 51.6878 16.8193 51.4871 15.8591C51.4234 15.5529 51.3513 15.2486 51.2824 14.9444C51.2556 14.8298 51.2144 14.7182 51.0941 14.8644C50.4561 15.6383 49.7863 16.3906 49.4107 17.3584C49.2183 17.853 49.2564 18.3272 49.4951 18.8056C51.2432 22.3031 52.9853 25.8026 54.7222 29.3054C54.8631 29.5868 55.0402 29.7827 55.3643 29.7881ZM19.3567 7.97238C19.3063 11.9092 19.3505 15.8462 19.2909 19.7831C19.2602 21.8289 19.2662 23.8769 19.2726 25.9249C19.2743 26.9641 19.0717 27.9134 18.3669 28.6939C18.302 28.7717 18.2422 28.8551 18.191 28.9439C18.0345 29.1874 18.0706 29.379 18.3053 29.5566C19.9053 30.7711 21.4384 32.0743 22.9726 33.3766C23.0425 33.4382 23.1043 33.53 23.2442 33.5118C22.7328 32.306 22.3851 31.0665 22.0918 29.8077C21.9787 29.3205 21.8654 28.8324 21.8253 28.3312C21.7265 27.1026 21.7554 25.8687 21.7327 24.6379C21.6936 22.5292 21.7131 20.4195 21.7039 18.3066C21.6967 17.5868 21.7389 16.8659 21.8294 16.1527C21.956 15.1926 22.1731 14.2624 22.7432 13.468C23.1157 12.9485 23.1218 12.9506 22.7576 12.4028C21.493 10.4976 20.8056 8.34904 20.3344 6.11045C19.9095 4.09508 19.6791 2.05031 19.4823 0H19.4061C19.3805 2.65969 19.3908 5.31608 19.3567 7.97238ZM119.34 29.6983C119.242 29.8996 119.168 30.1139 119.052 30.3976C120.181 30.0956 121.267 29.9158 122.196 29.2415C122.538 28.9914 122.754 28.6526 122.794 28.2023C122.823 27.87 122.866 27.5399 122.896 27.2076C123.036 25.6553 123.006 24.1009 122.969 22.5443C122.916 20.3643 122.071 18.5901 120.48 17.2046C119.328 16.201 118.02 15.6457 116.485 15.753C115.452 15.8244 114.452 16.0561 113.46 16.3419C111.966 16.7769 110.397 16.8625 108.866 16.592C107.92 16.4286 107.014 16.0852 106.068 15.9154C104.613 15.6535 103.191 15.6177 101.854 16.4305C99.8182 17.6701 98.5299 19.4583 98.3209 21.9458C98.159 23.9029 98.2359 25.8664 98.3812 27.8267C98.4506 28.7424 98.8899 29.2837 99.6547 29.6138C99.7653 29.6614 99.8752 29.7112 99.9858 29.7568C100.585 29.9992 101.206 30.1507 101.827 30.3056C101.921 30.3304 102.042 30.4009 102.109 30.3121C102.175 30.2243 102.08 30.1161 102.041 30.0241C101.657 29.1062 101.256 28.1969 101.122 27.187C101.045 26.6078 100.979 26.0277 100.95 25.4443C100.899 24.3585 100.834 23.2653 100.954 22.1893C101.209 19.8902 102.977 18.3282 105.193 18.353C106.995 18.3748 108.281 19.3717 108.821 21.1675C108.865 21.3168 108.908 21.4673 108.945 21.6188C109.475 23.826 110.006 26.0342 110.536 28.2424C110.553 28.3139 110.583 28.3809 110.625 28.4989C110.654 28.3994 110.667 28.3604 110.676 28.3203C111.156 26.3145 111.636 24.3088 112.118 22.303C112.267 21.686 112.413 21.0679 112.649 20.4779C112.867 19.9345 113.231 19.4691 113.696 19.14C114.494 18.5555 115.378 18.3184 116.351 18.352C118.398 18.4201 120.156 20.1878 120.296 22.3257C120.368 23.4027 120.313 24.4765 120.271 25.5503C120.215 26.9922 119.967 28.394 119.34 29.6983ZM80.3691 16.9839C79.9883 16.013 79.4018 15.6047 78.4068 15.6309C78.0601 15.6395 78.0035 15.6859 78.0035 16.0495C78.0035 18.4007 77.9675 20.7508 78.022 23.1008C78.0663 25.0676 78.8782 26.726 80.2549 28.0335C81.8672 29.5652 83.8016 30.0902 85.9488 29.7731C88.9524 29.3282 91.487 26.4197 91.6538 23.2546C91.7133 22.0952 91.6654 20.9348 91.6901 19.991V16.2357C91.6918 16.121 91.6868 16.0064 91.6736 15.8927C91.6629 15.7497 91.553 15.6383 91.4168 15.635C90.6388 15.541 89.9988 15.765 89.5553 16.4816C89.2142 17.038 89.0342 17.6875 89.0391 18.351C89.0317 19.8131 89.0474 21.2757 89.0317 22.7382C88.9945 25.9227 85.9001 28.0292 83.1368 26.7292C81.4928 25.9541 80.683 24.5524 80.6387 22.6819C80.6068 21.3031 80.6285 19.9237 80.6326 18.5447C80.6448 18.0111 80.5553 17.4807 80.3691 16.9839ZM9.06923 12.7774C8.94882 12.9387 9.00547 13.0598 9.12159 13.1886C9.56202 13.6791 9.82753 14.2721 10.0095 14.9099C10.235 15.6946 10.3215 16.5019 10.3565 17.3182C10.411 18.5717 10.3944 19.8252 10.3728 21.0798C10.3431 22.7511 10.3349 24.4224 10.3483 26.0937C10.3625 27.9372 10.1207 29.7329 9.55987 31.4843C9.34176 32.1662 9.12374 32.8493 8.8171 33.5724C8.86665 33.555 8.91471 33.5345 8.96113 33.5096C10.559 32.1565 12.1508 30.7948 13.8159 29.5316C14.0298 29.3692 14.0319 29.1655 13.9012 28.9557C13.7705 28.7457 13.6275 28.5444 13.4742 28.3528C13.0295 27.7964 12.8546 27.1469 12.8445 26.4369C12.8302 25.5071 12.8126 24.5783 12.8023 23.6485C12.7644 20.2236 12.7878 16.7977 12.7488 13.3696C12.6985 8.97239 12.6985 4.57559 12.6759 0.178684V0.00210071H12.616C12.4319 1.74823 12.2446 3.48869 11.9267 5.21317C11.4297 7.92052 10.6837 10.53 9.06923 12.7763V12.7774ZM10.1569 33.9566L10.1692 34C10.2195 33.974 10.273 33.9513 10.3235 33.9209C11.3752 33.3127 12.4925 32.8645 13.6308 32.4748C15.0814 31.979 16.5528 31.9249 18.0231 32.3492C19.2931 32.7162 20.5218 33.2282 21.6854 33.8755C21.7574 33.9156 21.8191 33.9957 21.9251 33.9729C21.9148 33.9524 21.9014 33.9328 21.886 33.9166C20.0555 32.437 18.224 30.9572 16.3924 29.4778C16.134 29.2686 15.9262 29.2892 15.6741 29.4959C13.8364 30.9876 11.9975 32.4748 10.1569 33.9566ZM0.774758 29.3844C0.774758 29.7978 0.831511 29.8509 1.22943 29.8466C1.79343 29.8444 2.33465 29.6128 2.73905 29.1993C3.26382 28.6819 3.43269 28.0281 3.43269 27.3006V16.6547C3.43269 16.4252 3.42845 16.1947 3.43269 15.9652C3.43656 15.7348 3.32464 15.6308 3.10341 15.6252C2.7164 15.6155 2.34712 15.6773 2.00655 15.8754C1.17912 16.3548 0.778995 17.1027 0.775774 18.0811C0.770517 19.9497 0.775774 21.8179 0.775774 23.6863C0.774758 25.586 0.774758 27.4857 0.774758 29.3844ZM31.2742 18.6518C31.2711 17.9777 31.1836 17.3183 30.8626 16.7154C30.485 16.0064 29.9613 15.5668 29.1309 15.6241C28.639 15.6566 28.6143 15.6535 28.6143 16.188V22.7067C28.6113 23.0196 28.6288 23.3324 28.6668 23.6431C28.7882 24.6129 29.0989 25.546 29.5774 26.3839C30.057 27.2238 30.6949 27.9512 31.4522 28.5217C32.2106 29.0932 33.0718 29.4959 33.9834 29.7059C34.8951 29.9148 35.8386 29.9276 36.7555 29.7416C38.3061 29.4244 39.7066 28.5552 40.719 27.2801C41.7295 26.0082 42.2892 24.4061 42.3037 22.7489C42.3098 21.6835 42.3037 20.6175 42.3037 19.5525V16.0733C42.3037 15.8808 42.3037 15.6729 42.0608 15.6416C41.3323 15.5508 40.6892 15.7001 40.2437 16.3821C39.8743 16.9459 39.6777 17.6148 39.6818 18.299C39.6767 19.678 39.6818 21.0571 39.6788 22.4361C39.6829 22.8334 39.6469 23.2306 39.5718 23.6192C39.1108 25.8458 37.166 27.3136 34.9877 27.0831C32.8918 26.8611 31.2958 24.9928 31.2824 22.7262C31.2711 21.3677 31.2824 20.0103 31.2742 18.6518ZM16.0485 4.40462C15.8738 9.98887 15.879 15.9998 16.0485 21.6189C16.1991 16.0022 16.204 9.98887 16.0485 4.40462Z" fill="#2D2D2D"/>
</g>
</svg>
