<svg width="88" height="32" viewBox="0 0 88 32" fill="none" xmlns="http://www.w3.org/2000/svg">
<g opacity="0.7">
<path d="M75.0901 29.6611V31.6045H87.7055V22.8402H85.8681V29.6611H75.0901ZM75.0901 0.737305V2.68063H85.8681V9.50212H87.7055V0.737305H75.0901ZM68.5847 15.771V11.2554H71.4687C72.8738 11.2554 73.3784 11.7507 73.3784 13.1038V13.9038C73.3784 15.2947 72.8919 15.771 71.4687 15.771H68.5847ZM73.1623 16.5712C74.4779 16.2092 75.3966 14.9133 75.3966 13.3703C75.3966 12.3986 75.0367 11.522 74.3513 10.8169C73.4869 9.94017 72.3331 9.50212 70.8371 9.50212H66.7823V22.8397H68.5847V17.5239H71.2879C72.6758 17.5239 73.2346 18.1336 73.2346 19.6582V22.8402H75.0728V19.963C75.0728 17.8671 74.6036 17.0669 73.1623 16.8382V16.5712ZM57.9879 17.0093H63.5388V15.2565H57.9879V11.2549H64.0793V9.50212H56.1493V22.8397H64.3497V21.0868H57.9879V17.0093ZM51.9501 17.7144V18.6288C51.9501 20.5533 51.2832 21.1823 49.6074 21.1823H49.2109C47.5347 21.1823 46.7238 20.6104 46.7238 17.962V14.3798C46.7238 11.7124 47.5708 11.1595 49.2467 11.1595H49.6069C51.2471 11.1595 51.7696 11.8075 51.7874 13.5985H53.77C53.5898 10.969 51.9318 9.3116 49.4447 9.3116C48.2373 9.3116 47.228 9.71194 46.4712 10.4738C45.3358 11.5981 44.7051 13.5036 44.7051 16.1709C44.7051 18.7432 45.2459 20.6488 46.363 21.8298C47.1198 22.611 48.1653 23.0302 49.1926 23.0302C50.2739 23.0302 51.2654 22.5727 51.7696 21.5821H52.0217V22.8397H53.6797V15.9616H48.7956V17.7144H51.9501ZM36.055 11.2549H38.0197C39.8761 11.2549 40.8854 11.7502 40.8854 14.4181V17.9237C40.8854 20.5911 39.8761 21.0868 38.0197 21.0868H36.055V11.2549ZM38.1815 22.8402C41.6238 22.8402 42.9032 20.0774 42.9032 16.1714C42.9032 12.2081 41.5335 9.50256 38.1452 9.50256H34.2523V22.8402H38.1815ZM25.5481 17.0093H31.0991V15.2565H25.5481V11.2549H31.6395V9.50212H23.7096V22.8397H31.9099V21.0868H25.5481V17.0093ZM14.9152 9.50212H13.077V22.8397H21.3673V21.0868H14.9152V9.50212ZM0.443359 22.8402V31.605H13.0587V29.6611H2.28144V22.8402H0.443359ZM0.443359 0.737305V9.50212H2.28144V2.68063H13.0587V0.737305H0.443359Z" fill="#2D2D2D"/>
</g>
</svg>
