<svg width="45" height="40" viewBox="0 0 45 40" fill="none" xmlns="http://www.w3.org/2000/svg">
<path d="M20.2527 15.0523C20.2527 13.857 20.2527 12.7186 20.2527 11.5802C20.2975 10.9592 20.1616 10.3385 19.862 9.79481C19.5623 9.25111 19.112 8.80819 18.5666 8.52075C17.049 7.6385 15.5877 6.71355 14.0982 5.80284C13.5927 5.46144 12.9986 5.27925 12.391 5.27925C11.7833 5.27925 11.1893 5.46144 10.6837 5.80284C9.27858 6.69933 7.71887 7.58158 6.21537 8.43538C5.68101 8.70721 5.23597 9.13017 4.93419 9.65299C4.63242 10.1758 4.48685 10.7761 4.51515 11.381C4.51515 13.1739 4.51515 14.9669 4.51515 16.7599C4.48273 17.3567 4.62048 17.9504 4.91197 18.4701C5.20346 18.9899 5.6364 19.4138 6.15917 19.6912C7.69077 20.5877 9.19427 21.5411 10.7118 22.5372C11.2071 22.8642 11.7857 23.0383 12.3769 23.0383C12.9682 23.0383 13.5467 22.8642 14.042 22.5372C19.6626 19.179 25.3393 15.8254 31.0723 12.4767C31.5502 12.1659 32.1062 12.0007 32.6742 12.0007C33.2421 12.0007 33.7981 12.1659 34.276 12.4767L43.3251 17.7844C43.8355 18.0533 44.2621 18.4604 44.5574 18.9604C44.8526 19.4604 45.0049 20.0336 44.9972 20.6162C44.9972 24.2021 44.9972 27.7881 44.9972 31.374C45.0219 31.9582 44.88 32.5372 44.5885 33.0418C44.297 33.5465 43.8681 33.9555 43.3532 34.22C40.3743 35.956 37.3954 37.7205 34.4306 39.4708C33.9108 39.8161 33.3028 40 32.6812 40C32.0596 40 31.4516 39.8161 30.9318 39.4708C28.0372 37.7632 25.1379 36.0556 22.234 34.3481C21.6204 34.06 21.11 33.5866 20.7729 32.9929C20.4357 32.3993 20.2884 31.7144 20.3511 31.0325C20.3511 30.0079 20.3511 28.9976 20.3511 27.9873C20.3558 27.8998 20.3782 27.8143 20.4169 27.736C20.4556 27.6577 20.5097 27.5882 20.5759 27.5319C21.981 26.7208 23.2738 25.9239 24.6368 25.1413H24.7913V28.6845C24.7587 29.2577 24.8898 29.8281 25.1689 30.3278C25.448 30.8275 25.8633 31.2351 26.3651 31.5021L31.1145 34.3481C31.5872 34.6518 32.1354 34.813 32.6952 34.813C33.2551 34.813 33.8033 34.6518 34.276 34.3481L38.8427 31.5021C39.3457 31.229 39.7611 30.816 40.0399 30.3118C40.3187 29.8075 40.4494 29.2331 40.4165 28.6561C40.4165 26.8062 40.4165 24.9705 40.4165 23.1349C40.4485 22.5546 40.3144 21.9774 40.0302 21.4725C39.7461 20.9676 39.324 20.5566 38.8146 20.2889C37.269 19.4066 35.7514 18.4959 34.2198 17.5994C33.7181 17.2688 33.1323 17.0927 32.5337 17.0927C31.935 17.0927 31.3492 17.2688 30.8475 17.5994C25.2269 20.9103 19.6064 24.2306 13.9858 27.5604C13.488 27.8806 12.9104 28.0507 12.3207 28.0507C11.731 28.0507 11.1534 27.8806 10.6556 27.5604C7.64862 25.7674 4.62756 24.0029 1.60651 22.2242C1.09719 21.9564 0.675069 21.5454 0.390899 21.0405C0.106729 20.5357 -0.0273955 19.9584 0.00464933 19.3782C0.00464933 15.7922 0.00464933 12.2063 0.00464933 8.62036C-0.0189409 8.08012 0.109945 7.54424 0.376217 7.0755C0.64249 6.60675 1.03513 6.22453 1.50815 5.9736C4.59946 4.18063 7.64861 2.3592 10.7118 0.523539C11.2251 0.181988 11.8259 0 12.4401 0C13.0544 0 13.6551 0.181988 14.1685 0.523539C17.0912 2.27382 20.0139 4.0241 22.9506 5.74592C23.5023 6.01237 23.9636 6.43847 24.2762 6.97036C24.5889 7.50225 24.7388 8.11605 24.707 8.7342C24.707 9.85837 24.707 10.9968 24.707 12.1209C24.7047 12.2054 24.6847 12.2883 24.6483 12.3644C24.612 12.4404 24.5602 12.5078 24.4963 12.5621C23.0911 13.3732 21.8124 14.1558 20.4775 14.9384L20.2527 15.0523Z" fill="black"/>
</svg>
