<svg width="77" height="86" viewBox="0 0 77 86" fill="none" xmlns="http://www.w3.org/2000/svg">
<g opacity="0.11">
<path fill-rule="evenodd" clip-rule="evenodd" d="M22.511 21.6224C29.2158 23.5337 36.9029 26.8074 44.696 31.3161C54.8115 37.1686 63.0394 43.9065 68.1807 50.0061C70.7571 53.0628 72.4852 55.8731 73.3311 58.2569C74.1804 60.6503 74.0578 62.347 73.3943 63.4986C72.7309 64.6502 71.3258 65.605 68.8327 66.0646C66.3497 66.5224 63.0569 66.4279 59.1271 65.7203C51.2851 64.3083 41.3481 60.5367 31.2326 54.6843C21.1171 48.8318 12.8892 42.0939 7.74789 35.9943C5.17147 32.9376 3.44336 30.1273 2.59748 27.7435C1.74821 25.3501 1.87076 23.6534 2.53425 22.5018C3.19773 21.3502 4.60282 20.3954 7.09586 19.9358C8.04743 19.7603 9.11792 19.666 10.2976 19.6562L10.8325 17.6558C5.92011 17.5972 2.33824 18.8357 0.803105 21.5002C-3.46612 28.9102 9.71062 44.5431 30.2342 56.4172C50.7577 68.2913 70.8563 71.9102 75.1255 64.5002C79.3947 57.0902 66.218 41.4573 45.6944 29.5832C37.7814 25.005 29.9317 21.6541 23.0279 19.6892L22.511 21.6224Z" fill="url(#paint0_linear_284_359)"/>
<path fill-rule="evenodd" clip-rule="evenodd" d="M44.696 54.6838C34.5805 60.5363 24.6435 64.3078 16.8015 65.7199C12.8717 66.4274 9.57892 66.522 7.09586 66.0642C4.60282 65.6045 3.19773 64.6498 2.53425 63.4982C1.87076 62.3466 1.74821 60.6498 2.59748 58.2564C3.44336 55.8726 5.17147 53.0623 7.7479 50.0056C12.8892 43.906 21.1171 37.1681 31.2326 31.3157C41.3481 25.4633 51.2851 21.6917 59.1271 20.2797C63.0569 19.5721 66.3497 19.4775 68.8327 19.9353C71.3258 20.395 72.7309 21.3497 73.3943 22.5013C74.0578 23.6529 74.1804 25.3497 73.3311 27.7431C73.0924 28.4159 72.7834 29.1226 72.4049 29.8593L73.8335 31.4265C76.013 27.482 76.5755 24.0166 75.1255 21.4998C70.8563 14.0898 50.7577 17.7086 30.2342 29.5827C9.71062 41.4569 -3.46612 57.0897 0.803104 64.4998C5.07233 71.9098 25.1709 68.2909 45.6944 56.4168C53.8662 51.6889 60.8733 46.3651 66.0781 41.2017L64.7302 39.723C59.6682 44.7567 52.7857 50.0034 44.696 54.6838Z" fill="url(#paint1_linear_284_359)"/>
<path fill-rule="evenodd" clip-rule="evenodd" d="M51.4245 43C51.4245 54.7057 49.7154 65.2163 47.0143 72.7289C45.6607 76.4938 44.0957 79.3992 42.4583 81.3255C40.8138 83.26 39.2874 84 37.9643 84C36.6412 84 35.1147 83.26 33.4703 81.3255C32.7939 80.5298 32.1299 79.567 31.488 78.4456L29.4955 78.9806C31.928 83.4187 34.8378 86 37.9643 86C46.5027 86 53.4245 66.7482 53.4245 43C53.4245 19.2518 46.5027 0 37.9643 0C29.4258 0 22.5041 19.2518 22.5041 43C22.5041 52.0446 23.508 60.4369 25.223 67.362L27.1549 66.8432C25.4929 60.1158 24.5041 51.9036 24.5041 43C24.5041 31.2943 26.2132 20.7837 28.9143 13.2711C30.2679 9.50622 31.8329 6.6008 33.4703 4.67449C35.1147 2.73998 36.6412 2 37.9643 2C39.2874 2 40.8138 2.73998 42.4583 4.67449C44.0957 6.6008 45.6607 9.50622 47.0143 13.2711C49.7154 20.7837 51.4245 31.2943 51.4245 43Z" fill="url(#paint2_linear_284_359)"/>
<ellipse cx="11.9365" cy="18.2965" rx="4.93261" ry="4.94295" fill="url(#paint3_linear_284_359)"/>
<ellipse cx="72.0674" cy="31.9484" rx="4.93261" ry="4.94295" fill="url(#paint4_linear_284_359)"/>
<ellipse cx="30.2576" cy="78.5534" rx="4.93261" ry="4.94295" fill="url(#paint5_linear_284_359)"/>
</g>
<defs>
<linearGradient id="paint0_linear_284_359" x1="37.9643" y1="17.6538" x2="37.9643" y2="68.3466" gradientUnits="userSpaceOnUse">
<stop stop-color="#410EAD"/>
<stop offset="1" stop-color="#7B3FE4"/>
</linearGradient>
<linearGradient id="paint1_linear_284_359" x1="37.9643" y1="17.6534" x2="37.9643" y2="68.3462" gradientUnits="userSpaceOnUse">
<stop stop-color="#410EAD"/>
<stop offset="1" stop-color="#7B3FE4"/>
</linearGradient>
<linearGradient id="paint2_linear_284_359" x1="37.9643" y1="0" x2="37.9643" y2="86" gradientUnits="userSpaceOnUse">
<stop stop-color="#410EAD"/>
<stop offset="1" stop-color="#7B3FE4"/>
</linearGradient>
<linearGradient id="paint3_linear_284_359" x1="11.9365" y1="13.3536" x2="11.9365" y2="23.2395" gradientUnits="userSpaceOnUse">
<stop stop-color="#410EAD"/>
<stop offset="1" stop-color="#7B3FE4"/>
</linearGradient>
<linearGradient id="paint4_linear_284_359" x1="72.0674" y1="27.0055" x2="72.0674" y2="36.8914" gradientUnits="userSpaceOnUse">
<stop stop-color="#410EAD"/>
<stop offset="1" stop-color="#7B3FE4"/>
</linearGradient>
<linearGradient id="paint5_linear_284_359" x1="30.2576" y1="73.6104" x2="30.2576" y2="83.4963" gradientUnits="userSpaceOnUse">
<stop stop-color="#410EAD"/>
<stop offset="1" stop-color="#7B3FE4"/>
</linearGradient>
</defs>
</svg>
