<svg width="23" height="11" viewBox="0 0 23 11" fill="none" xmlns="http://www.w3.org/2000/svg">
<path fill-rule="evenodd" clip-rule="evenodd" d="M17.1028 0.0418818C16.8223 0.121732 16.6639 0.393325 16.7364 0.670302C16.7569 0.748742 17.5048 1.49085 18.9755 2.89188L21.1839 4.99563L10.7728 5.0067L0.361706 5.01772L0.234778 5.10705C0.164977 5.15614 0.0784558 5.27551 0.0424989 5.37228C-0.0161107 5.53006 -0.0151668 5.56364 0.0519826 5.69745C0.0931531 5.77952 0.182326 5.88125 0.250195 5.9235C0.367998 5.99686 0.847977 6.00087 10.7792 6.01138L21.1847 6.02245L18.9978 8.10484C17.7949 9.25017 16.7893 10.2414 16.7631 10.3075C16.6531 10.5851 16.7653 10.8444 17.0434 10.9556C17.3575 11.0811 17.2963 11.1312 20.2274 8.34208C22.0687 6.58995 22.9674 5.70578 22.9876 5.62653C23.0041 5.56193 23.0041 5.45615 22.9876 5.39155C22.9674 5.31247 22.0733 4.43125 20.2523 2.69561C17.9415 0.49317 17.3565 -0.030919 17.245 0.00137995C17.238 0.00338795 17.1741 0.0216308 17.1028 0.0418818Z" fill="#410EAD"/>
</svg>
