<svg width="81" height="23" viewBox="0 0 81 23" fill="none" xmlns="http://www.w3.org/2000/svg">
<g opacity="0.7">
<path d="M29.765 18.1557V11.5101C29.7184 10.9618 29.8051 10.4098 30.0165 9.90797C30.2278 9.40607 30.5569 8.97142 30.9714 8.64623C31.771 8.05684 32.7473 7.80889 33.7086 7.95103V3.97484C32.865 3.97198 32.0361 4.21202 31.3087 4.67005C30.5872 5.11782 30.0394 5.82814 29.765 6.67191V4.25286H26.3922V18.1557H29.765ZM40.6553 18.5449C41.5596 18.5589 42.4573 18.3788 43.2957 18.0152C44.134 17.6517 44.896 17.1119 45.5367 16.4278C46.1774 15.7437 46.6839 14.9291 47.0263 14.032C47.3688 13.135 47.5402 12.1735 47.5307 11.2043C47.5384 10.1078 47.3184 9.0232 46.8869 8.02904C46.4554 7.0348 45.823 6.15594 45.0355 5.45587C44.2481 4.7558 43.3252 4.25216 42.3338 3.98145C41.3424 3.71065 40.3071 3.67954 39.3031 3.89022C38.2991 4.10099 37.3513 4.54842 36.5284 5.20001C35.7056 5.8516 35.0282 6.69111 34.5453 7.65781C34.0624 8.62451 33.7861 9.69416 33.7364 10.7894C33.6867 11.8846 33.8648 12.978 34.2579 13.9903C34.7837 15.3445 35.6732 16.5005 36.8135 17.3115C37.9538 18.1225 39.2933 18.5518 40.6618 18.5449H40.6553ZM40.6553 15.0693C40.1889 15.0825 39.725 14.9931 39.2921 14.8065C38.8592 14.62 38.4667 14.3404 38.1387 13.9848C37.5001 13.2313 37.1464 12.25 37.1464 11.2321C37.1464 10.2142 37.5001 9.23275 38.1387 8.47925C38.4636 8.11549 38.8559 7.82853 39.2904 7.63705C39.725 7.44548 40.1922 7.35356 40.6618 7.36711C41.1252 7.352 41.5865 7.43792 42.018 7.6195C42.4495 7.80116 42.842 8.07474 43.172 8.42373C43.8216 9.17132 44.1828 10.1549 44.1828 11.1765C44.1828 12.198 43.8216 13.1817 43.172 13.9292C42.8464 14.2882 42.4559 14.5721 42.0242 14.7634C41.5925 14.9547 41.1289 15.0493 40.6618 15.0415L40.6553 15.0693ZM49.1522 22.3265C50.6185 22.4708 52.0871 22.0761 53.3163 21.2073C54.5658 20.1767 55.5006 18.7707 56.0016 17.1686L60.7236 4.25277H57.1432L54.2828 12.9213L50.8906 4.25286H47.2324L52.551 16.7654C52.3214 17.5223 51.8825 18.1865 51.2926 18.6701C50.6532 19.0977 49.9039 19.2971 49.1522 19.2401V22.3265ZM66.7362 18.5588C67.5407 18.6031 68.3435 18.4422 69.0786 18.0893C69.8138 17.7365 70.4604 17.2018 70.9652 16.529V18.1557H74.3122V4.25286H70.9652V5.89339C70.4604 5.22069 69.8138 4.68595 69.0786 4.33313C68.3435 3.98023 67.5407 3.81933 66.7362 3.86364C65.8958 3.85652 65.0636 4.0427 64.2961 4.40967C63.5285 4.77656 62.8432 5.31573 62.2867 5.99069C61.0915 7.42524 60.4308 9.28105 60.4308 11.2043C60.4308 13.1275 61.0915 14.9833 62.2867 16.4179C62.8433 17.0928 63.5285 17.6318 64.2961 17.9988C65.0637 18.3658 65.8958 18.552 66.7362 18.5449V18.5588ZM67.3848 15.1389C66.9061 15.1589 66.4285 15.0731 65.9822 14.8865C65.5358 14.6999 65.13 14.4165 64.7904 14.0543C64.4533 13.6782 64.1901 13.2333 64.0163 12.7461C63.8425 12.259 63.7617 11.7394 63.7785 11.2182C63.7605 10.6988 63.8408 10.181 64.0147 9.6959C64.1886 9.21086 64.4525 8.76856 64.7904 8.39585C65.1282 8.03009 65.5332 7.74347 65.9799 7.55442C66.4266 7.36538 66.905 7.27789 67.3848 7.29761C67.8644 7.28041 68.3422 7.36911 68.7885 7.55799C69.2348 7.74695 69.6402 8.03208 69.9793 8.39585C70.6394 9.16559 71.0056 10.1728 71.0056 11.2182C71.0056 12.2635 70.6394 13.2708 69.9793 14.0404C69.636 14.4052 69.2259 14.6898 68.775 14.8764C68.324 15.0631 67.8418 15.1476 67.359 15.1249L67.3848 15.1389ZM80.0137 18.1557V0.0820312H76.6666V18.1557H80.0137Z" fill="#2D2D2D"/>
<path d="M17.0819 4.32507C17.1757 4.32507 17.2684 4.34671 17.3536 4.38841C17.4388 4.42994 17.5145 4.49066 17.5757 4.5666L21.9938 10.0853C22.1015 10.2116 22.1612 10.3764 22.1613 10.5474C22.1611 10.7185 22.1015 10.8834 21.9938 11.0097L12.6246 21.4883V4.32507H17.0819ZM10.1055 4.34575V21.4883L0.736552 11.0016C0.628802 10.8756 0.568977 10.7108 0.568848 10.5399C0.568848 10.3695 0.628583 10.2049 0.736552 10.0784L5.1639 4.56625C5.22521 4.49049 5.30108 4.42976 5.3863 4.38823C5.47186 4.34662 5.56475 4.32507 5.65872 4.32507L10.1055 4.34575Z" fill="#2D2D2D"/>
</g>
</svg>
