<svg width="236" height="83" viewBox="0 0 236 83" fill="none" xmlns="http://www.w3.org/2000/svg">
<path d="M95.39 31.71C95.39 31.29 95.225 30.925 94.895 30.615C94.575 30.305 94.12 30.15 93.53 30.15C93.03 30.15 92.635 30.255 92.345 30.465C92.055 30.665 91.91 30.94 91.91 31.29C91.91 31.47 91.945 31.635 92.015 31.785C92.085 31.925 92.205 32.055 92.375 32.175C92.555 32.285 92.785 32.385 93.065 32.475C93.355 32.565 93.72 32.65 94.16 32.73C95.26 32.93 96.1 33.265 96.68 33.735C97.26 34.205 97.55 34.9 97.55 35.82V36C97.55 36.49 97.46 36.935 97.28 37.335C97.11 37.725 96.86 38.06 96.53 38.34C96.2 38.62 95.8 38.835 95.33 38.985C94.86 39.135 94.33 39.21 93.74 39.21C93.05 39.21 92.44 39.115 91.91 38.925C91.39 38.725 90.955 38.455 90.605 38.115C90.255 37.765 89.99 37.36 89.81 36.9C89.63 36.43 89.54 35.92 89.54 35.37V34.92H91.52V35.28C91.52 35.91 91.7 36.415 92.06 36.795C92.43 37.165 93 37.35 93.77 37.35C94.37 37.35 94.815 37.22 95.105 36.96C95.395 36.7 95.54 36.39 95.54 36.03C95.54 35.86 95.51 35.7 95.45 35.55C95.39 35.39 95.285 35.25 95.135 35.13C94.985 35 94.78 34.885 94.52 34.785C94.26 34.685 93.93 34.6 93.53 34.53C93 34.44 92.515 34.325 92.075 34.185C91.635 34.035 91.25 33.84 90.92 33.6C90.6 33.36 90.35 33.06 90.17 32.7C89.99 32.34 89.9 31.9 89.9 31.38V31.29C89.9 30.86 89.985 30.465 90.155 30.105C90.335 29.735 90.58 29.415 90.89 29.145C91.21 28.875 91.59 28.665 92.03 28.515C92.48 28.365 92.98 28.29 93.53 28.29C94.15 28.29 94.7 28.38 95.18 28.56C95.66 28.73 96.06 28.965 96.38 29.265C96.71 29.565 96.955 29.91 97.115 30.3C97.285 30.69 97.37 31.1 97.37 31.53V32.07H95.39V31.71ZM101.845 34.29H102.205L104.185 31.56H106.255V31.65L103.855 35.055V35.325L106.495 38.91V39H104.335L102.205 36.09H101.845V39H99.9546V28.5H101.845V34.29ZM108.674 37.2H111.194V33.36H108.854V31.56H113.084V37.2H115.244V39H108.674V37.2ZM113.549 29.355C113.549 29.555 113.509 29.745 113.429 29.925C113.359 30.095 113.259 30.245 113.129 30.375C112.999 30.495 112.844 30.595 112.664 30.675C112.494 30.745 112.314 30.78 112.124 30.78C111.924 30.78 111.739 30.745 111.569 30.675C111.399 30.595 111.249 30.495 111.119 30.375C110.989 30.245 110.884 30.095 110.804 29.925C110.734 29.745 110.699 29.555 110.699 29.355C110.699 29.155 110.734 28.97 110.804 28.8C110.884 28.62 110.989 28.47 111.119 28.35C111.249 28.22 111.399 28.12 111.569 28.05C111.739 27.97 111.924 27.93 112.124 27.93C112.314 27.93 112.494 27.97 112.664 28.05C112.844 28.12 112.999 28.22 113.129 28.35C113.259 28.47 113.359 28.62 113.429 28.8C113.509 28.97 113.549 29.155 113.549 29.355ZM117.679 37.2H120.289V30.3H117.769V28.5H122.179V37.2H124.609V39H117.679V37.2ZM126.863 37.2H129.473V30.3H126.953V28.5H131.363V37.2H133.793V39H126.863V37.2ZM137.758 35.895C137.768 36.115 137.818 36.32 137.908 36.51C138.008 36.69 138.138 36.85 138.298 36.99C138.468 37.12 138.658 37.225 138.868 37.305C139.088 37.375 139.318 37.41 139.558 37.41C140.028 37.41 140.388 37.33 140.638 37.17C140.888 37 141.068 36.8 141.178 36.57L142.798 37.47C142.708 37.66 142.583 37.86 142.423 38.07C142.263 38.27 142.053 38.455 141.793 38.625C141.543 38.795 141.233 38.935 140.863 39.045C140.503 39.155 140.078 39.21 139.588 39.21C139.028 39.21 138.518 39.12 138.058 38.94C137.598 38.76 137.198 38.5 136.858 38.16C136.528 37.82 136.268 37.405 136.078 36.915C135.898 36.425 135.808 35.87 135.808 35.25V35.16C135.808 34.59 135.903 34.07 136.093 33.6C136.293 33.13 136.563 32.73 136.903 32.4C137.243 32.07 137.638 31.815 138.088 31.635C138.548 31.445 139.038 31.35 139.558 31.35C140.198 31.35 140.748 31.465 141.208 31.695C141.668 31.915 142.048 32.2 142.348 32.55C142.648 32.89 142.868 33.27 143.008 33.69C143.148 34.1 143.218 34.5 143.218 34.89V35.895H137.758ZM139.543 33.06C139.063 33.06 138.673 33.185 138.373 33.435C138.073 33.675 137.878 33.955 137.788 34.275H141.298C141.238 33.925 141.048 33.635 140.728 33.405C140.418 33.175 140.023 33.06 139.543 33.06ZM150.617 37.92H150.347C150.267 38.09 150.167 38.255 150.047 38.415C149.937 38.565 149.787 38.7 149.597 38.82C149.417 38.94 149.197 39.035 148.937 39.105C148.687 39.175 148.382 39.21 148.022 39.21C147.562 39.21 147.132 39.13 146.732 38.97C146.342 38.8 145.997 38.555 145.697 38.235C145.407 37.905 145.177 37.505 145.007 37.035C144.847 36.565 144.767 36.025 144.767 35.415V35.145C144.767 34.545 144.852 34.01 145.022 33.54C145.202 33.07 145.442 32.675 145.742 32.355C146.052 32.025 146.407 31.775 146.807 31.605C147.217 31.435 147.647 31.35 148.097 31.35C148.697 31.35 149.172 31.465 149.522 31.695C149.872 31.915 150.147 32.23 150.347 32.64H150.617V28.5H152.507V39H150.617V37.92ZM148.637 37.41C149.227 37.41 149.702 37.225 150.062 36.855C150.432 36.475 150.617 35.98 150.617 35.37V35.19C150.617 34.58 150.432 34.09 150.062 33.72C149.702 33.34 149.227 33.15 148.637 33.15C148.047 33.15 147.567 33.335 147.197 33.705C146.837 34.065 146.657 34.56 146.657 35.19V35.37C146.657 36 146.837 36.5 147.197 36.87C147.567 37.23 148.047 37.41 148.637 37.41ZM163.437 31.56H165.642V28.5H167.532V31.56H170.217V33.36H167.532V36.75C167.532 37.05 167.667 37.2 167.937 37.2H169.947V39H166.797C166.457 39 166.177 38.89 165.957 38.67C165.747 38.45 165.642 38.17 165.642 37.83V33.36H163.437V31.56ZM174.496 35.895C174.506 36.115 174.556 36.32 174.646 36.51C174.746 36.69 174.876 36.85 175.036 36.99C175.206 37.12 175.396 37.225 175.606 37.305C175.826 37.375 176.056 37.41 176.296 37.41C176.766 37.41 177.126 37.33 177.376 37.17C177.626 37 177.806 36.8 177.916 36.57L179.536 37.47C179.446 37.66 179.321 37.86 179.161 38.07C179.001 38.27 178.791 38.455 178.531 38.625C178.281 38.795 177.971 38.935 177.601 39.045C177.241 39.155 176.816 39.21 176.326 39.21C175.766 39.21 175.256 39.12 174.796 38.94C174.336 38.76 173.936 38.5 173.596 38.16C173.266 37.82 173.006 37.405 172.816 36.915C172.636 36.425 172.546 35.87 172.546 35.25V35.16C172.546 34.59 172.641 34.07 172.831 33.6C173.031 33.13 173.301 32.73 173.641 32.4C173.981 32.07 174.376 31.815 174.826 31.635C175.286 31.445 175.776 31.35 176.296 31.35C176.936 31.35 177.486 31.465 177.946 31.695C178.406 31.915 178.786 32.2 179.086 32.55C179.386 32.89 179.606 33.27 179.746 33.69C179.886 34.1 179.956 34.5 179.956 34.89V35.895H174.496ZM176.281 33.06C175.801 33.06 175.411 33.185 175.111 33.435C174.811 33.675 174.616 33.955 174.526 34.275H178.036C177.976 33.925 177.786 33.635 177.466 33.405C177.156 33.175 176.761 33.06 176.281 33.06ZM189.276 36.27C189.106 37.15 188.701 37.86 188.061 38.4C187.431 38.94 186.586 39.21 185.526 39.21C184.976 39.21 184.461 39.125 183.981 38.955C183.511 38.785 183.101 38.54 182.751 38.22C182.401 37.9 182.126 37.505 181.926 37.035C181.726 36.565 181.626 36.03 181.626 35.43V35.25C181.626 34.65 181.726 34.11 181.926 33.63C182.126 33.15 182.401 32.74 182.751 32.4C183.111 32.06 183.526 31.8 183.996 31.62C184.476 31.44 184.986 31.35 185.526 31.35C186.566 31.35 187.406 31.62 188.046 32.16C188.696 32.7 189.106 33.41 189.276 34.29L187.416 34.77C187.356 34.33 187.166 33.95 186.846 33.63C186.526 33.31 186.076 33.15 185.496 33.15C185.226 33.15 184.971 33.2 184.731 33.3C184.491 33.4 184.281 33.545 184.101 33.735C183.921 33.915 183.776 34.14 183.666 34.41C183.566 34.67 183.516 34.965 183.516 35.295V35.385C183.516 35.715 183.566 36.01 183.666 36.27C183.776 36.52 183.921 36.73 184.101 36.9C184.281 37.07 184.491 37.2 184.731 37.29C184.971 37.37 185.226 37.41 185.496 37.41C186.076 37.41 186.516 37.265 186.816 36.975C187.126 36.685 187.326 36.295 187.416 35.805L189.276 36.27ZM193.12 39H191.23V28.5H193.12V32.76H193.39C193.58 32.31 193.86 31.965 194.23 31.725C194.6 31.475 195.055 31.35 195.595 31.35C195.965 31.35 196.305 31.41 196.615 31.53C196.925 31.65 197.195 31.83 197.425 32.07C197.655 32.31 197.835 32.62 197.965 33C198.095 33.37 198.16 33.81 198.16 34.32V39H196.27V34.77C196.27 34.24 196.14 33.825 195.88 33.525C195.63 33.215 195.265 33.06 194.785 33.06C194.225 33.06 193.805 33.25 193.525 33.63C193.255 34 193.12 34.5 193.12 35.13V39ZM200.52 37.2H203.04V33.36H200.7V31.56H204.93V37.2H207.09V39H200.52V37.2ZM205.395 29.355C205.395 29.555 205.355 29.745 205.275 29.925C205.205 30.095 205.105 30.245 204.975 30.375C204.845 30.495 204.69 30.595 204.51 30.675C204.34 30.745 204.16 30.78 203.97 30.78C203.77 30.78 203.585 30.745 203.415 30.675C203.245 30.595 203.095 30.495 202.965 30.375C202.835 30.245 202.73 30.095 202.65 29.925C202.58 29.745 202.545 29.555 202.545 29.355C202.545 29.155 202.58 28.97 202.65 28.8C202.73 28.62 202.835 28.47 202.965 28.35C203.095 28.22 203.245 28.12 203.415 28.05C203.585 27.97 203.77 27.93 203.97 27.93C204.16 27.93 204.34 27.97 204.51 28.05C204.69 28.12 204.845 28.22 204.975 28.35C205.105 28.47 205.205 28.62 205.275 28.8C205.355 28.97 205.395 29.155 205.395 29.355ZM211.234 35.895C211.244 36.115 211.294 36.32 211.384 36.51C211.484 36.69 211.614 36.85 211.774 36.99C211.944 37.12 212.134 37.225 212.344 37.305C212.564 37.375 212.794 37.41 213.034 37.41C213.504 37.41 213.864 37.33 214.114 37.17C214.364 37 214.544 36.8 214.654 36.57L216.274 37.47C216.184 37.66 216.059 37.86 215.899 38.07C215.739 38.27 215.529 38.455 215.269 38.625C215.019 38.795 214.709 38.935 214.339 39.045C213.979 39.155 213.554 39.21 213.064 39.21C212.504 39.21 211.994 39.12 211.534 38.94C211.074 38.76 210.674 38.5 210.334 38.16C210.004 37.82 209.744 37.405 209.554 36.915C209.374 36.425 209.284 35.87 209.284 35.25V35.16C209.284 34.59 209.379 34.07 209.569 33.6C209.769 33.13 210.039 32.73 210.379 32.4C210.719 32.07 211.114 31.815 211.564 31.635C212.024 31.445 212.514 31.35 213.034 31.35C213.674 31.35 214.224 31.465 214.684 31.695C215.144 31.915 215.524 32.2 215.824 32.55C216.124 32.89 216.344 33.27 216.484 33.69C216.624 34.1 216.694 34.5 216.694 34.89V35.895H211.234ZM213.019 33.06C212.539 33.06 212.149 33.185 211.849 33.435C211.549 33.675 211.354 33.955 211.264 34.275H214.774C214.714 33.925 214.524 33.635 214.204 33.405C213.894 33.175 213.499 33.06 213.019 33.06ZM221.124 33.66C221.124 33.9 221.249 34.075 221.499 34.185C221.749 34.285 222.204 34.37 222.864 34.44C223.624 34.52 224.244 34.75 224.724 35.13C225.204 35.5 225.444 36.02 225.444 36.69V36.78C225.444 37.52 225.174 38.11 224.634 38.55C224.094 38.99 223.334 39.21 222.354 39.21C221.774 39.21 221.279 39.135 220.869 38.985C220.459 38.835 220.119 38.65 219.849 38.43C219.579 38.2 219.369 37.95 219.219 37.68C219.079 37.4 218.984 37.13 218.934 36.87L220.674 36.3C220.754 36.62 220.919 36.9 221.169 37.14C221.429 37.38 221.824 37.5 222.354 37.5C222.824 37.5 223.144 37.43 223.314 37.29C223.494 37.14 223.584 36.98 223.584 36.81C223.584 36.71 223.559 36.62 223.509 36.54C223.469 36.45 223.389 36.37 223.269 36.3C223.149 36.22 222.984 36.155 222.774 36.105C222.574 36.055 222.319 36.015 222.009 35.985C221.169 35.915 220.499 35.7 219.999 35.34C219.509 34.97 219.264 34.43 219.264 33.72V33.63C219.264 33.26 219.344 32.935 219.504 32.655C219.664 32.375 219.874 32.14 220.134 31.95C220.394 31.75 220.694 31.6 221.034 31.5C221.374 31.4 221.724 31.35 222.084 31.35C222.554 31.35 222.959 31.41 223.299 31.53C223.649 31.64 223.944 31.79 224.184 31.98C224.424 32.16 224.619 32.365 224.769 32.595C224.919 32.815 225.034 33.03 225.114 33.24L223.404 33.93C223.314 33.66 223.159 33.45 222.939 33.3C222.719 33.14 222.434 33.06 222.084 33.06C221.764 33.06 221.524 33.12 221.364 33.24C221.204 33.35 221.124 33.49 221.124 33.66ZM229.934 37.785C229.934 37.595 229.969 37.415 230.039 37.245C230.119 37.065 230.224 36.915 230.354 36.795C230.484 36.665 230.634 36.565 230.804 36.495C230.974 36.415 231.159 36.375 231.359 36.375C231.549 36.375 231.729 36.415 231.899 36.495C232.079 36.565 232.234 36.665 232.364 36.795C232.494 36.915 232.594 37.065 232.664 37.245C232.744 37.415 232.784 37.595 232.784 37.785V39.615C232.784 39.995 232.654 40.315 232.394 40.575C232.144 40.835 231.829 40.965 231.449 40.965H230.489V39.795H231.209C231.479 39.795 231.614 39.645 231.614 39.345V39.165C231.534 39.195 231.449 39.21 231.359 39.21C231.159 39.21 230.974 39.17 230.804 39.09C230.634 39.02 230.484 38.92 230.354 38.79C230.224 38.66 230.119 38.51 230.039 38.34C229.969 38.17 229.934 37.985 229.934 37.785Z" fill="#410EAD"/>
<path d="M89.9972 58V50.9091H91.0866V58H89.9972ZM90.5511 49.7273C90.3388 49.7273 90.1557 49.6549 90.0018 49.5103C89.851 49.3656 89.7756 49.1918 89.7756 48.9886C89.7756 48.7855 89.851 48.6116 90.0018 48.467C90.1557 48.3223 90.3388 48.25 90.5511 48.25C90.7635 48.25 90.9451 48.3223 91.0959 48.467C91.2498 48.6116 91.3267 48.7855 91.3267 48.9886C91.3267 49.1918 91.2498 49.3656 91.0959 49.5103C90.9451 49.6549 90.7635 49.7273 90.5511 49.7273ZM94.1716 53.7344V58H93.0821V50.9091H94.1347V52.017H94.227C94.3932 51.657 94.6456 51.3677 94.9841 51.1491C95.3227 50.9276 95.7597 50.8168 96.2952 50.8168C96.7753 50.8168 97.1954 50.9152 97.5555 51.1122C97.9156 51.3061 98.1956 51.6016 98.3957 51.9986C98.5957 52.3925 98.6958 52.8911 98.6958 53.4943V58H97.6063V53.5682C97.6063 53.0111 97.4616 52.5772 97.1723 52.2663C96.883 51.9524 96.486 51.7955 95.9813 51.7955C95.6335 51.7955 95.3227 51.8709 95.0487 52.0217C94.7779 52.1725 94.564 52.3925 94.407 52.6818C94.2501 52.9711 94.1716 53.322 94.1716 53.7344ZM104.749 53.4389V54.4545H100.613V53.4389H104.749ZM107.756 53.7344V58H106.666V48.5455H107.756V52.017H107.848C108.014 51.6508 108.263 51.36 108.596 51.1445C108.931 50.926 109.378 50.8168 109.935 50.8168C110.418 50.8168 110.841 50.9137 111.204 51.1076C111.567 51.2984 111.849 51.5923 112.049 51.9893C112.252 52.3833 112.354 52.8849 112.354 53.4943V58H111.264V53.5682C111.264 53.005 111.118 52.5695 110.826 52.2617C110.536 51.9509 110.135 51.7955 109.621 51.7955C109.264 51.7955 108.944 51.8709 108.66 52.0217C108.38 52.1725 108.159 52.3925 107.996 52.6818C107.836 52.9711 107.756 53.322 107.756 53.7344ZM117.227 58.1477C116.587 58.1477 116.026 57.9954 115.542 57.6907C115.062 57.386 114.687 56.9598 114.416 56.4119C114.148 55.8641 114.014 55.224 114.014 54.4915C114.014 53.7528 114.148 53.1081 114.416 52.5572C114.687 52.0063 115.062 51.5785 115.542 51.2738C116.026 50.9691 116.587 50.8168 117.227 50.8168C117.868 50.8168 118.428 50.9691 118.908 51.2738C119.391 51.5785 119.767 52.0063 120.034 52.5572C120.305 53.1081 120.441 53.7528 120.441 54.4915C120.441 55.224 120.305 55.8641 120.034 56.4119C119.767 56.9598 119.391 57.386 118.908 57.6907C118.428 57.9954 117.868 58.1477 117.227 58.1477ZM117.227 57.169C117.714 57.169 118.114 57.0444 118.428 56.7951C118.742 56.5458 118.974 56.218 119.125 55.8118C119.276 55.4055 119.351 54.9654 119.351 54.4915C119.351 54.0175 119.276 53.5759 119.125 53.1665C118.974 52.7572 118.742 52.4264 118.428 52.174C118.114 51.9216 117.714 51.7955 117.227 51.7955C116.741 51.7955 116.341 51.9216 116.027 52.174C115.713 52.4264 115.481 52.7572 115.33 53.1665C115.179 53.5759 115.104 54.0175 115.104 54.4915C115.104 54.9654 115.179 55.4055 115.33 55.8118C115.481 56.218 115.713 56.5458 116.027 56.7951C116.341 57.0444 116.741 57.169 117.227 57.169ZM126.572 55.1009V50.9091H127.662V58H126.572V56.7997H126.498C126.332 57.1598 126.074 57.466 125.723 57.7184C125.372 57.9677 124.929 58.0923 124.393 58.0923C123.95 58.0923 123.556 57.9954 123.212 57.8015C122.867 57.6045 122.596 57.3091 122.399 56.9151C122.202 56.5181 122.104 56.018 122.104 55.4148V50.9091H123.193V55.3409C123.193 55.858 123.338 56.2704 123.627 56.5781C123.919 56.8859 124.292 57.0398 124.744 57.0398C125.015 57.0398 125.291 56.9705 125.571 56.832C125.854 56.6935 126.091 56.4812 126.282 56.195C126.475 55.9087 126.572 55.544 126.572 55.1009ZM134.68 52.4972L133.701 52.7741C133.64 52.611 133.549 52.4525 133.429 52.2987C133.312 52.1417 133.152 52.0124 132.949 51.9109C132.746 51.8093 132.486 51.7585 132.169 51.7585C131.735 51.7585 131.373 51.8585 131.084 52.0586C130.798 52.2556 130.654 52.5064 130.654 52.8111C130.654 53.0819 130.753 53.2958 130.95 53.4528C131.147 53.6097 131.455 53.7405 131.873 53.8452L132.926 54.1037C133.56 54.2576 134.032 54.493 134.343 54.81C134.654 55.1239 134.809 55.5286 134.809 56.0241C134.809 56.4304 134.692 56.7936 134.458 57.1136C134.228 57.4337 133.904 57.6861 133.489 57.8707C133.074 58.0554 132.59 58.1477 132.039 58.1477C131.316 58.1477 130.718 57.9908 130.244 57.6768C129.77 57.3629 129.47 56.9044 129.343 56.3011L130.377 56.0426C130.476 56.4242 130.662 56.7105 130.936 56.9013C131.213 57.0921 131.575 57.1875 132.021 57.1875C132.529 57.1875 132.932 57.0798 133.23 56.8643C133.532 56.6458 133.683 56.3842 133.683 56.0795C133.683 55.8333 133.597 55.6271 133.424 55.4609C133.252 55.2917 132.987 55.1655 132.63 55.0824L131.449 54.8054C130.799 54.6515 130.322 54.413 130.017 54.0898C129.716 53.7636 129.565 53.3558 129.565 52.8665C129.565 52.4664 129.677 52.1125 129.902 51.8047C130.13 51.4969 130.439 51.2553 130.83 51.0799C131.224 50.9045 131.67 50.8168 132.169 50.8168C132.87 50.8168 133.421 50.9706 133.821 51.2784C134.225 51.5862 134.511 51.9924 134.68 52.4972ZM139.422 58.1477C138.739 58.1477 138.15 57.9969 137.654 57.6953C137.162 57.3906 136.782 56.9659 136.514 56.4212C136.249 55.8733 136.117 55.2363 136.117 54.5099C136.117 53.7836 136.249 53.1435 136.514 52.5895C136.782 52.0324 137.154 51.5985 137.631 51.2876C138.111 50.9737 138.671 50.8168 139.312 50.8168C139.681 50.8168 140.046 50.8783 140.406 51.0014C140.766 51.1245 141.093 51.3246 141.389 51.6016C141.684 51.8755 141.92 52.2386 142.095 52.6911C142.271 53.1435 142.358 53.7005 142.358 54.3622V54.8239H136.892V53.8821H141.25C141.25 53.482 141.17 53.125 141.01 52.8111C140.853 52.4972 140.629 52.2494 140.336 52.0678C140.047 51.8862 139.705 51.7955 139.312 51.7955C138.878 51.7955 138.502 51.9032 138.185 52.1186C137.871 52.331 137.63 52.608 137.46 52.9496C137.291 53.2912 137.206 53.6574 137.206 54.0483V54.6761C137.206 55.2116 137.299 55.6656 137.483 56.038C137.671 56.4073 137.931 56.6889 138.264 56.8828C138.596 57.0736 138.982 57.169 139.422 57.169C139.709 57.169 139.967 57.129 140.198 57.049C140.432 56.9659 140.633 56.8428 140.803 56.6797C140.972 56.5135 141.103 56.3073 141.195 56.0611L142.248 56.3565C142.137 56.7135 141.951 57.0275 141.689 57.2983C141.427 57.5661 141.104 57.7753 140.72 57.9261C140.335 58.0739 139.902 58.1477 139.422 58.1477Z" fill="#59587B"/>
<g filter="url(#filter0_d_249_1844)">
<path d="M37.5 10L64.7798 25.75V57.25L37.5 73L10.2202 57.25V25.75L37.5 10Z" fill="white"/>
</g>
<path fill-rule="evenodd" clip-rule="evenodd" d="M23.1361 26.2181C22.8322 26.314 22.3139 26.851 22.2208 27.1667C22.1137 27.5294 22.1137 33.6671 22.2208 34.0298C22.3213 34.3701 22.8341 34.8834 23.1742 34.9839C23.3559 35.0377 24.1497 35.0593 25.9408 35.0593H28.4525L29.9889 35.9832L31.5253 36.9072L31.5424 35.9832L31.5595 35.0593H33.6403C35.093 35.0593 35.7979 35.0365 35.9759 34.9839C36.316 34.8834 36.8289 34.3701 36.9293 34.0298C37.035 33.6718 37.0366 27.5283 36.931 27.1758C36.8905 27.0406 36.737 26.796 36.5897 26.6321C36.1156 26.1043 36.5769 26.1363 29.5486 26.1435C25.2205 26.1479 23.2875 26.1704 23.1361 26.2181ZM35.862 27.2806L36.014 27.4326V30.5982V33.7638L35.862 33.9158L35.7101 34.0679H33.1378H30.5657V34.6234V35.1789L29.6435 34.6234L28.7213 34.0679H26.0806H23.44L23.2881 33.9158L23.1361 33.7638V30.5982V27.4326L23.2881 27.2806L23.44 27.1285H29.5751H35.7101L35.862 27.2806ZM25.1173 29.1922C24.8134 29.288 24.2952 29.8251 24.202 30.1407C24.0305 30.7216 24.1514 31.1848 24.5889 31.6226C25.2153 32.2495 26.0099 32.2495 26.6363 31.6226C27.2413 31.0172 27.2594 30.247 26.6837 29.6061C26.2829 29.1601 25.7041 29.0071 25.1173 29.1922ZM29.0797 29.1922C28.7759 29.288 28.2576 29.8251 28.1644 30.1407C27.9929 30.7216 28.1138 31.1848 28.5514 31.6226C29.1778 32.2495 29.9724 32.2495 30.5987 31.6226C31.2037 31.0172 31.2218 30.247 30.6461 29.6061C30.2454 29.1601 29.6665 29.0071 29.0797 29.1922ZM33.0422 29.1922C32.7383 29.288 32.22 29.8251 32.1269 30.1407C31.9554 30.7216 32.0763 31.1848 32.5138 31.6226C33.1402 32.2495 33.9348 32.2495 34.5612 31.6226C35.1662 31.0172 35.1843 30.247 34.6085 29.6061C34.2078 29.1601 33.6289 29.0071 33.0422 29.1922ZM25.9559 30.2546C26.0518 30.3505 26.1079 30.4775 26.1079 30.5982C26.1079 30.7189 26.0518 30.8459 25.9559 30.9418C25.6488 31.2492 25.1173 31.0314 25.1173 30.5982C25.1173 30.3435 25.3581 30.1025 25.6126 30.1025C25.7332 30.1025 25.8601 30.1587 25.9559 30.2546ZM29.9184 30.2546C30.2255 30.562 30.0079 31.0939 29.5751 31.0939C29.4544 31.0939 29.3275 31.0377 29.2317 30.9418C29.1359 30.8459 29.0797 30.7189 29.0797 30.5982C29.0797 30.4775 29.1359 30.3505 29.2317 30.2546C29.3275 30.1587 29.4544 30.1025 29.5751 30.1025C29.6957 30.1025 29.8226 30.1587 29.9184 30.2546ZM33.8808 30.2546C34.188 30.562 33.9703 31.0939 33.5375 31.0939C33.4169 31.0939 33.29 31.0377 33.1942 30.9418C33.0983 30.8459 33.0422 30.7189 33.0422 30.5982C33.0422 30.4775 33.0983 30.3505 33.1942 30.2546C33.29 30.1587 33.4169 30.1025 33.5375 30.1025C33.6581 30.1025 33.785 30.1587 33.8808 30.2546ZM38.9858 30.1835C38.682 30.2794 38.1637 30.8164 38.0705 31.1321C37.963 31.4962 37.963 38.6224 38.0705 38.9865C38.171 39.3268 38.6839 39.8401 39.024 39.9407C39.1642 39.9821 39.5472 40.016 39.8753 40.016H40.4718V41.1625V42.3088L42.7622 41.1625L45.0527 40.016H48.3118C50.6896 40.016 51.6397 39.9956 51.8256 39.9407C52.1657 39.8401 52.6786 39.3268 52.7791 38.9865C52.8852 38.6271 52.8868 31.4951 52.7808 31.1412C52.7403 31.006 52.5867 30.7613 52.4395 30.5975C51.9654 30.0697 52.4267 30.1017 45.3983 30.1089C41.0702 30.1133 39.1372 30.1358 38.9858 30.1835ZM51.7118 31.246L51.8638 31.398V35.0593V38.7205L51.7118 38.8726L51.5598 39.0247H48.1823H44.8048L43.1336 39.8614L41.4624 40.698V39.8614V39.0247H40.3761C39.3053 39.0247 39.2876 39.0225 39.1378 38.8726L38.9858 38.7205V35.0593V31.398L39.1378 31.246L39.2898 31.0939H45.4248H51.5598L51.7118 31.246ZM45.9201 34.5636V37.042H45.4248H44.9295V35.555V34.0679H44.4342H43.9389V35.555V37.042H43.4436H42.9483V36.0506V35.0593H42.453H41.9577V36.0506V37.042H41.4624H40.9671V37.5377V38.0333H45.9201H50.8732V35.0593V32.0852H50.3779H49.8826V34.5636V37.042H49.3873H48.8919V35.0593V33.0766H48.3966H47.9013V35.0593V37.042H47.406H46.9107V34.5636V32.0852H46.4154H45.9201V34.5636ZM29.6804 38.0789C29.6657 38.1049 29.5595 38.5133 29.4444 38.9864C29.2776 39.6721 29.21 39.8572 29.111 39.8986C29.0427 39.9272 28.7306 40.0591 28.4173 40.1918L27.8478 40.433L27.0862 39.9771C26.6673 39.7264 26.2965 39.521 26.2621 39.5208C26.1813 39.5202 23.6313 42.0732 23.6318 42.1542C23.632 42.1879 23.8375 42.559 24.0884 42.9788L24.5447 43.7421L24.3006 44.3109C24.1663 44.6238 24.035 44.9346 24.0089 45.0016C23.9712 45.0981 23.7762 45.1695 23.0689 45.3458L22.1764 45.5683V47.4511V49.334L23.0689 49.5565C23.7762 49.7328 23.9712 49.8042 24.0089 49.9007C24.035 49.9677 24.1663 50.2785 24.3006 50.5914L24.5447 51.1602L24.0884 51.9235C23.8375 52.3433 23.632 52.7143 23.6318 52.7481C23.6313 52.8291 26.1813 55.382 26.2621 55.3815C26.2965 55.3813 26.6673 55.1759 27.0862 54.9252L27.8478 54.4693L28.4173 54.7106C28.7306 54.8433 29.0416 54.9744 29.1085 55.0019C29.2045 55.0412 29.2772 55.2404 29.4525 55.9449L29.6749 56.838H31.5563H33.4377L33.6605 55.943L33.8832 55.0482L34.3759 54.8543C34.6469 54.7476 34.9544 54.6154 35.0593 54.5604L35.2498 54.4603L36.0189 54.9207C36.4418 55.1739 36.816 55.3813 36.8504 55.3815C36.9313 55.382 39.4813 52.8291 39.4807 52.7481C39.4805 52.7143 39.2753 52.3438 39.0247 51.9245L38.5692 51.1624L38.8103 50.5924C38.9429 50.279 39.074 49.9677 39.1014 49.9007C39.1407 49.8047 39.3397 49.7319 40.0437 49.5565L40.9361 49.334V47.4511V45.5683L40.0437 45.3458C39.3397 45.1704 39.1407 45.0976 39.1014 45.0016C39.074 44.9346 38.9429 44.6233 38.8103 44.3099L38.5692 43.7399L39.0247 42.9777C39.2753 42.5585 39.4805 42.1874 39.4807 42.1531C39.4813 42.0721 36.9302 39.5202 36.8493 39.5208C36.8155 39.521 36.4418 39.7283 36.0189 39.9816L35.2498 40.4419L35.0593 40.3419C34.9544 40.2868 34.6469 40.1546 34.3759 40.048L33.8832 39.8541L33.6605 38.9592L33.4377 38.0643L31.5725 38.0479C30.5467 38.0389 29.6952 38.0528 29.6804 38.0789ZM32.8638 39.8451L33.076 40.6655L33.6644 40.8571C33.988 40.9625 34.4816 41.1678 34.7613 41.3134L35.2699 41.5782L36.0067 41.1457L36.7434 40.7132L37.5175 41.4954L38.2916 42.2775L37.8582 43.0061L37.4248 43.7347L37.6894 44.2437C37.8349 44.5236 38.0399 45.0159 38.1449 45.3376L38.3358 45.9227L39.1561 46.1382L39.9765 46.3537V47.4511V48.5486L39.1561 48.7641L38.3358 48.9796L38.1449 49.5646C38.0399 49.8864 37.8349 50.3787 37.6894 50.6586L37.4248 51.1676L37.8582 51.8962L38.2916 52.6247L37.5175 53.4069L36.7434 54.1891L36.0067 53.7565L35.2699 53.3241L34.7613 53.5888C34.4816 53.7345 33.988 53.9398 33.6644 54.0452L33.076 54.2367L32.8638 55.0572L32.6515 55.8776H31.5563H30.461L30.2488 55.0572L30.0366 54.2367L29.4481 54.0452C29.1245 53.9398 28.6304 53.7342 28.35 53.5882L27.8402 53.3228L27.2372 53.6813C26.9055 53.8784 26.5774 54.0762 26.508 54.1207C26.3914 54.1956 26.322 54.1415 25.5987 53.4132L24.8157 52.6247L25.2525 51.8978L25.6894 51.1709L25.424 50.6603C25.278 50.3795 25.0724 49.884 24.9672 49.5594L24.7758 48.9691L23.9559 48.7593L23.1361 48.5495V47.4511V46.3528L23.9559 46.143L24.7758 45.9331L24.9672 45.3428C25.0724 45.0182 25.278 44.5228 25.424 44.242L25.6894 43.7314L25.2525 43.0044L24.8157 42.2775L25.5987 41.489C26.322 40.7608 26.3914 40.7067 26.508 40.7815C26.5774 40.8261 26.9055 41.0239 27.2372 41.221L27.8402 41.5795L28.35 41.3141C28.6304 41.1681 29.1234 40.9627 29.4457 40.8576L30.0315 40.6666L30.2464 39.8456L30.4613 39.0247H31.5565H32.6515L32.8638 39.8451ZM30.5249 41.5947C29.2785 41.8211 28.2611 42.3638 27.344 43.2918C26.5466 44.0985 26.0332 45.0151 25.7556 46.1275C25.6086 46.7168 25.6086 48.1855 25.7556 48.7748C26.0332 49.8871 26.5466 50.8038 27.344 51.6105C28.4438 52.7233 29.7279 53.3007 31.2777 53.3792C32.9921 53.466 34.4885 52.8796 35.7346 51.6326C36.5824 50.784 37.0697 49.9257 37.3571 48.7742C37.504 48.1855 37.5039 46.7165 37.3569 46.1275C37.2028 45.5099 36.9141 44.8221 36.586 44.2912C36.1971 43.6618 35.3104 42.7845 34.6592 42.385C33.4443 41.6394 31.9021 41.3446 30.5249 41.5947ZM32.7336 42.6398C34.0246 42.9924 35.0041 43.6945 35.7111 44.7741C36.2566 45.6069 36.4756 46.3739 36.4756 47.4511C36.4756 48.8514 36.0151 49.9799 35.0492 50.9466C33.1282 52.8689 30.0214 52.881 28.0938 50.9736C27.1011 49.9913 26.6369 48.8689 26.6369 47.4511C26.6369 46.3706 26.855 45.6099 27.4075 44.7628C28.1366 43.6451 29.2839 42.8686 30.6276 42.5834C31.1238 42.478 32.2519 42.5083 32.7336 42.6398ZM30.8203 44.575C29.2504 44.9975 28.2792 46.6242 28.6792 48.1611C29.0934 49.7525 30.7164 50.7342 32.2657 50.3303C33.8513 49.917 34.8367 48.2913 34.4357 46.7506C34.0178 45.1446 32.3756 44.1565 30.8203 44.575ZM32.4882 45.723C32.9068 45.9463 33.0959 46.1434 33.3372 46.6081C33.4768 46.877 33.5017 47.0036 33.5029 47.4511C33.5041 47.9334 33.4865 48.0107 33.2939 48.3682C33.0596 48.803 32.8653 48.9908 32.3987 49.2334C32.1291 49.3736 32.0051 49.3978 31.5563 49.3978C31.1075 49.3978 30.9835 49.3736 30.7138 49.2334C30.2472 48.9908 30.053 48.803 29.8187 48.3682C29.6258 48.0103 29.6085 47.934 29.6103 47.4511C29.6126 46.8297 29.7596 46.4579 30.1617 46.0558C30.7798 45.4377 31.7052 45.3053 32.4882 45.723ZM46.4464 46.0561C45.9128 46.1554 45.5068 46.2908 45.0224 46.5308L44.6509 46.7148L43.2129 46.5445C42.422 46.4509 41.7583 46.3909 41.7379 46.4113C41.7175 46.4317 41.9119 46.9469 42.1698 47.5562C42.4277 48.1656 42.6387 48.6883 42.6387 48.7177C42.6387 48.7472 42.5716 48.9134 42.4896 49.0871C41.5118 51.1577 41.9278 53.6038 43.535 55.2345C45.6488 57.3792 49.0797 57.4042 51.2212 55.2904C53.3631 53.1763 53.388 49.7402 51.277 47.5986C50.0133 46.3165 48.1839 45.7323 46.4464 46.0561ZM48.7372 47.1662C49.4398 47.3901 49.9621 47.7163 50.5328 48.2874C51.3433 49.0984 51.7645 50.0026 51.8422 51.0982C51.9086 52.0349 51.6392 53.094 51.1499 53.8193C50.927 54.1498 50.8113 54.1891 50.8113 53.9344C50.8113 53.6924 50.5078 53.174 50.1942 52.8804C50.0277 52.7247 49.6868 52.4958 49.4366 52.3719L48.9816 52.1466L49.1689 51.7682C49.3539 51.3945 49.3563 51.3774 49.3563 50.3963V49.4029L49.1347 49.0001C48.4725 47.7966 46.9109 47.5961 45.9895 48.5965C45.5147 49.112 45.4558 49.3173 45.4558 50.4562C45.4558 51.4468 45.4559 51.4478 45.6465 51.7954L45.8372 52.1433L45.3789 52.3702C45.1268 52.4951 44.7844 52.7247 44.6179 52.8804C44.3043 53.174 44.0008 53.6924 44.0008 53.9344C44.0008 54.1891 43.885 54.1498 43.6621 53.8193C43.1746 53.0966 42.9033 52.034 42.9695 51.1069C43.0172 50.4394 43.1325 50.0414 43.4834 49.334L43.7634 48.7694L43.515 48.1878C43.22 47.4964 43.1835 47.5252 44.1866 47.6599L44.8366 47.7472L45.1526 47.5688C45.5639 47.3367 46.2177 47.092 46.6211 47.0193C47.177 46.919 48.1799 46.9886 48.7372 47.1662ZM47.9486 49.1037C48.3102 49.3739 48.3641 49.5149 48.3868 50.2502C48.4137 51.1188 48.3817 51.2774 48.1171 51.5867C47.9147 51.8233 47.9013 51.8662 47.9013 52.2779V52.7168L48.6993 53.117C49.1704 53.3532 49.5532 53.5882 49.6337 53.6906L49.7701 53.8639L48.5881 53.8808C47.9379 53.89 46.8741 53.89 46.224 53.8808L45.042 53.8639L45.1783 53.6906C45.2588 53.5882 45.6417 53.3532 46.1127 53.117L46.9107 52.7168V52.2633C46.9107 51.8626 46.8931 51.7934 46.7594 51.6677C46.4811 51.4059 46.4154 51.172 46.4154 50.441C46.4154 49.8511 46.4341 49.7276 46.5594 49.49C46.7566 49.116 47.0903 48.9247 47.488 48.9579C47.6531 48.9717 47.8591 49.0369 47.9486 49.1037ZM49.9754 55.046C49.714 55.2645 48.9919 55.6056 48.5185 55.7342C48.2452 55.8085 47.8919 55.8431 47.406 55.8431C46.9201 55.8431 46.5669 55.8085 46.2936 55.7342C45.8201 55.6056 45.098 55.2645 44.8366 55.046L44.6509 54.8907H47.406H50.1612L49.9754 55.046Z" fill="#410EAD"/>
<defs>
<filter id="filter0_d_249_1844" x="0.2202" y="0" width="74.5596" height="83" filterUnits="userSpaceOnUse" color-interpolation-filters="sRGB">
<feFlood flood-opacity="0" result="BackgroundImageFix"/>
<feColorMatrix in="SourceAlpha" type="matrix" values="0 0 0 0 0 0 0 0 0 0 0 0 0 0 0 0 0 0 127 0" result="hardAlpha"/>
<feOffset/>
<feGaussianBlur stdDeviation="5"/>
<feComposite in2="hardAlpha" operator="out"/>
<feColorMatrix type="matrix" values="0 0 0 0 0.597188 0 0 0 0 0.604669 0 0 0 0 0.975 0 0 0 1 0"/>
<feBlend mode="normal" in2="BackgroundImageFix" result="effect1_dropShadow_249_1844"/>
<feBlend mode="normal" in="SourceGraphic" in2="effect1_dropShadow_249_1844" result="shape"/>
</filter>
</defs>
</svg>
