<svg width="93" height="103" viewBox="0 0 93 103" fill="none" xmlns="http://www.w3.org/2000/svg">
<g filter="url(#filter0_d_2144_2485)">
<path d="M46.5 10L82.4401 30.75V72.25L46.5 93L10.5599 72.25V30.75L46.5 10Z" fill="white"/>
</g>
<path fill-rule="evenodd" clip-rule="evenodd" d="M27.5761 31.3667C27.1758 31.493 26.493 32.2006 26.3702 32.6164C26.2292 33.0943 26.2292 41.1804 26.3702 41.6583C26.5026 42.1067 27.1783 42.7829 27.6264 42.9154C27.8658 42.9861 28.9116 43.0146 31.2712 43.0146H34.5803L36.6045 44.2319L38.6286 45.4491L38.6511 44.2319L38.6736 43.0146H41.415C43.3289 43.0146 44.2576 42.9847 44.492 42.9154C44.9401 42.7829 45.6158 42.1067 45.7482 41.6583C45.8874 41.1866 45.8895 33.0929 45.7504 32.6285C45.6971 32.4504 45.4948 32.128 45.3008 31.9121C44.6761 31.2168 45.2839 31.2589 36.0243 31.2684C30.3222 31.2742 27.7756 31.3039 27.5761 31.3667ZM44.342 32.7665L44.5423 32.9668V37.1373V41.3078L44.342 41.5082L44.1419 41.7086H40.753H37.3643V42.4404V43.1722L36.1493 42.4404L34.9344 41.7086H31.4554H27.9765L27.7764 41.5082L27.5761 41.3078V37.1373V32.9668L27.7764 32.7665L27.9765 32.5661H36.0592H44.1419L44.342 32.7665ZM30.1863 35.2849C29.786 35.4112 29.1032 36.1188 28.9804 36.5346C28.7545 37.2999 28.9138 37.9101 29.4902 38.487C30.3154 39.3128 31.3623 39.3128 32.1875 38.487C32.9846 37.6893 33.0084 36.6746 32.2499 35.8303C31.722 35.2427 30.9593 35.0411 30.1863 35.2849ZM35.4067 35.2849C35.0063 35.4112 34.3235 36.1188 34.2008 36.5346C33.9748 37.2999 34.1341 37.9101 34.7106 38.487C35.5358 39.3128 36.5826 39.3128 37.4079 38.487C38.2049 37.6893 38.2288 36.6746 37.4703 35.8303C36.9423 35.2427 36.1797 35.0411 35.4067 35.2849ZM40.627 35.2849C40.2267 35.4112 39.5439 36.1188 39.4211 36.5346C39.1952 37.2999 39.3545 37.9101 39.9309 38.487C40.7561 39.3128 41.803 39.3128 42.6282 38.487C43.4253 37.6893 43.4491 36.6746 42.6906 35.8303C42.1627 35.2427 41.4 35.0411 40.627 35.2849ZM31.2911 36.6847C31.4174 36.811 31.4914 36.9783 31.4914 37.1373C31.4914 37.2963 31.4174 37.4637 31.2911 37.59C30.8866 37.9949 30.1863 37.708 30.1863 37.1373C30.1863 36.8018 30.5035 36.4843 30.8389 36.4843C30.9977 36.4843 31.165 36.5583 31.2911 36.6847ZM36.5115 36.6847C36.9162 37.0896 36.6294 37.7904 36.0592 37.7904C35.9003 37.7904 35.7331 37.7163 35.6069 37.59C35.4806 37.4637 35.4067 37.2963 35.4067 37.1373C35.4067 36.9783 35.4806 36.811 35.6069 36.6847C35.7331 36.5583 35.9003 36.4843 36.0592 36.4843C36.2181 36.4843 36.3853 36.5583 36.5115 36.6847ZM41.7319 36.6847C42.1365 37.0896 41.8498 37.7904 41.2796 37.7904C41.1207 37.7904 40.9535 37.7163 40.8273 37.59C40.701 37.4637 40.627 37.2963 40.627 37.1373C40.627 36.9783 40.701 36.811 40.8273 36.6847C40.9535 36.5583 41.1207 36.4843 41.2796 36.4843C41.4385 36.4843 41.6057 36.5583 41.7319 36.6847ZM48.4576 36.591C48.0572 36.7173 47.3744 37.4248 47.2517 37.8406C47.1101 38.3204 47.1101 47.7088 47.2517 48.1886C47.384 48.637 48.0597 49.3132 48.5078 49.4457C48.6925 49.5003 49.1971 49.5449 49.6294 49.5449H50.4152V51.0553V52.5656L53.4328 51.0553L56.4503 49.5449H60.7441C63.8768 49.5449 65.1285 49.5181 65.3735 49.4457C65.8215 49.3132 66.4972 48.637 66.6296 48.1886C66.7694 47.7151 66.7715 38.319 66.6318 37.8527C66.5785 37.6746 66.3762 37.3523 66.1822 37.1364C65.5576 36.441 66.1653 36.4832 56.9057 36.4926C51.2036 36.4984 48.657 36.5281 48.4576 36.591ZM65.2235 37.9908L65.4237 38.1911V43.0146V47.8381L65.2235 48.0385L65.0233 48.2389H60.5735H56.1238L53.9221 49.3412L51.7203 50.4434V49.3412V48.2389H50.2892C48.8784 48.2389 48.8551 48.236 48.6578 48.0385L48.4576 47.8381V43.0146V38.1911L48.6578 37.9908L48.858 37.7904H56.9406H65.0233L65.2235 37.9908ZM57.5932 42.3616V45.6267H56.9406H56.2881V43.6676V41.7086H55.6355H54.983V43.6676V45.6267H54.3305H53.6779V44.3207V43.0146H53.0254H52.3728V44.3207V45.6267H51.7203H51.0677V46.2798V46.9328H57.5932H64.1186V43.0146V39.0964H63.4661H62.8135V42.3616V45.6267H62.161H61.5085V43.0146V40.4025H60.8559H60.2034V43.0146V45.6267H59.5508H58.8983V42.3616V39.0964H58.2457H57.5932V42.3616ZM36.198 46.9928C36.1786 47.0272 36.0387 47.5652 35.887 48.1885C35.6673 49.0918 35.5782 49.3357 35.4479 49.3902C35.3579 49.428 34.9466 49.6017 34.534 49.7765L33.7836 50.0943L32.7803 49.4937C32.2284 49.1633 31.7399 48.8927 31.6946 48.8925C31.5881 48.8917 28.2285 52.2552 28.2292 52.3619C28.2295 52.4063 28.5002 52.8952 28.8308 53.4483L29.4319 54.4538L29.1103 55.2033C28.9333 55.6155 28.7604 56.025 28.726 56.1132C28.6763 56.2404 28.4195 56.3344 27.4875 56.5667L26.3118 56.8599V59.3404V61.8209L27.4875 62.1141C28.4195 62.3464 28.6763 62.4404 28.726 62.5676C28.7604 62.6558 28.9333 63.0653 29.1103 63.4775L29.4319 64.2269L28.8308 65.2325C28.5002 65.7856 28.2295 66.2744 28.2292 66.3189C28.2285 66.4256 31.5881 69.7891 31.6946 69.7883C31.7399 69.7881 32.2284 69.5175 32.7803 69.1871L33.7836 68.5865L34.534 68.9044C34.9466 69.0793 35.3564 69.252 35.4446 69.2882C35.571 69.34 35.6668 69.6025 35.8978 70.5306L36.1907 71.7072H38.6694H41.1481L41.4416 70.5281L41.735 69.3492L42.3842 69.0937C42.7412 68.9533 43.1463 68.7791 43.2844 68.7066L43.5355 68.5747L44.5487 69.1813C45.1059 69.5149 45.5989 69.7881 45.6442 69.7883C45.7507 69.7891 49.1103 66.4256 49.1095 66.3189C49.1093 66.2744 48.8389 65.7862 48.5088 65.2339L47.9086 64.2298L48.2263 63.4789C48.401 63.0659 48.5736 62.6558 48.6098 62.5676C48.6616 62.4411 48.9238 62.3452 49.8512 62.1141L51.027 61.8209V59.3404V56.8599L49.8512 56.5667C48.9238 56.3356 48.6616 56.2397 48.6098 56.1132C48.5736 56.025 48.401 55.6149 48.2263 55.2019L47.9086 54.451L48.5088 53.4469C48.8389 52.8946 49.1093 52.4057 49.1095 52.3604C49.1103 52.2538 45.7493 48.8917 45.6427 48.8925C45.5983 48.8927 45.1059 49.1659 44.5487 49.4995L43.5355 50.106L43.2844 49.9742C43.1463 49.9017 42.7412 49.7275 42.3842 49.587L41.735 49.3316L41.4416 48.1527L41.1481 46.9736L38.6908 46.952C37.3393 46.9401 36.2175 46.9585 36.198 46.9928ZM40.3919 49.3197L40.6716 50.4006L41.4468 50.653C41.8731 50.7918 42.5234 51.0623 42.8919 51.2542L43.5619 51.603L44.5326 51.0333L45.5032 50.4634L46.523 51.4939L47.5429 52.5244L46.9719 53.4843L46.401 54.4441L46.7495 55.1147C46.9413 55.4834 47.2113 56.1321 47.3496 56.556L47.6011 57.3267L48.6819 57.6106L49.7626 57.8946V59.3404V60.7862L48.6819 61.0702L47.6011 61.3541L47.3496 62.1248C47.2113 62.5487 46.9413 63.1974 46.7495 63.5661L46.401 64.2367L46.9719 65.1965L47.5429 66.1564L46.523 67.1869L45.5032 68.2174L44.5326 67.6475L43.5619 67.0778L42.8919 67.4266C42.5234 67.6185 41.8731 67.889 41.4468 68.0278L40.6716 68.2801L40.3919 69.3611L40.1123 70.4419H38.6694H37.2264L36.9468 69.3611L36.6672 68.2801L35.892 68.0278C35.4656 67.889 34.8146 67.6181 34.4452 67.4257L33.7736 67.076L32.9791 67.5483C32.5422 67.8081 32.1099 68.0686 32.0185 68.1273C31.8649 68.2259 31.7735 68.1547 30.8206 67.1952L29.7889 66.1564L30.3644 65.1987L30.9401 64.241L30.5904 63.5683C30.3981 63.1983 30.1272 62.5456 29.9885 62.118L29.7364 61.3403L28.6563 61.0638L27.5761 60.7874V59.3404V57.8934L28.6563 57.617L29.7364 57.3405L29.9885 56.5628C30.1272 56.1352 30.3981 55.4825 30.5904 55.1125L30.9401 54.4398L30.3644 53.4821L29.7889 52.5244L30.8206 51.4856C31.7735 50.5261 31.8649 50.4548 32.0185 50.5535C32.1099 50.6121 32.5422 50.8727 32.9791 51.1324L33.7736 51.6048L34.4452 51.2551C34.8146 51.0627 35.4642 50.7921 35.8887 50.6537L36.6606 50.402L36.9437 49.3204L37.2269 48.2389H38.6696H40.1123L40.3919 49.3197ZM37.3106 51.6248C35.6685 51.923 34.3281 52.6381 33.1198 53.8606C32.0694 54.9234 31.3929 56.1311 31.0273 57.5966C30.8335 58.3729 30.8335 60.3079 31.0273 61.0842C31.3929 62.5497 32.0694 63.7574 33.1198 64.8201C34.5689 66.2863 36.2606 67.047 38.3023 67.1503C40.561 67.2648 42.5325 66.4921 44.1742 64.8493C45.2912 63.7314 45.9331 62.6005 46.3117 61.0834C46.5052 60.3079 46.5051 58.3725 46.3115 57.5966C46.1085 56.7829 45.7281 55.8768 45.2959 55.1773C44.7835 54.3481 43.6153 53.1924 42.7574 52.6659C41.1568 51.6837 39.125 51.2953 37.3106 51.6248ZM40.2204 53.0017C41.9213 53.4661 43.2118 54.3912 44.1433 55.8135C44.8619 56.9106 45.1505 57.9211 45.1505 59.3404C45.1505 61.1852 44.5437 62.672 43.2711 63.9456C40.7404 66.4781 36.6473 66.494 34.1078 63.9812C32.7999 62.6869 32.1883 61.2082 32.1883 59.3404C32.1883 57.9169 32.4756 56.9146 33.2035 55.7987C34.1641 54.3261 35.6756 53.3031 37.4459 52.9273C38.0996 52.7885 39.5858 52.8284 40.2204 53.0017ZM37.6997 55.5513C35.6315 56.1079 34.352 58.2509 34.879 60.2757C35.4247 62.3723 37.5629 63.6657 39.604 63.1336C41.693 62.5891 42.9913 60.4473 42.463 58.4174C41.9123 56.3017 39.7488 54.9998 37.6997 55.5513ZM39.8972 57.0637C40.4487 57.3579 40.6978 57.6175 41.0157 58.2297C41.1996 58.5839 41.2324 58.7508 41.234 59.3404C41.2356 59.9758 41.2124 60.0776 40.9586 60.5486C40.6499 61.1215 40.394 61.3688 39.7793 61.6885C39.4241 61.8732 39.2607 61.9051 38.6694 61.9051C38.0781 61.9051 37.9147 61.8732 37.5595 61.6885C36.9448 61.3688 36.6888 61.1215 36.3802 60.5486C36.1261 60.077 36.1033 59.9766 36.1057 59.3404C36.1087 58.5217 36.3023 58.0319 36.8321 57.502C37.6464 56.6878 38.8656 56.5133 39.8972 57.0637ZM58.2865 57.5024C57.5836 57.6334 57.0486 57.8117 56.4104 58.1279L55.921 58.3703L54.0265 58.146C52.9846 58.0226 52.1101 57.9436 52.0833 57.9704C52.0564 57.9973 52.3125 58.676 52.6523 59.4788C52.9921 60.2817 53.2701 60.9703 53.2701 61.0091C53.2701 61.0479 53.1817 61.2668 53.0737 61.4957C51.7855 64.2237 52.3334 67.4462 54.4509 69.5947C57.2357 72.4202 61.7558 72.4531 64.5771 69.6683C67.399 66.8831 67.4318 62.3562 64.6507 59.5347C62.9857 57.8455 60.5756 57.0759 58.2865 57.5024ZM61.3045 58.965C62.2302 59.26 62.9184 59.6897 63.6702 60.4421C64.738 61.5107 65.2929 62.7019 65.3953 64.1453C65.4828 65.3794 65.1279 66.7746 64.4832 67.7302C64.1896 68.1656 64.0371 68.2175 64.0371 67.8818C64.0371 67.563 63.6372 66.8801 63.2241 66.4933C63.0047 66.2881 62.5556 65.9865 62.226 65.8233L61.6266 65.5265L61.8734 65.028C62.1171 64.5357 62.1202 64.5131 62.1202 63.2205V61.9117L61.8283 61.3811C60.9559 59.7955 58.8985 59.5314 57.6846 60.8493C57.0591 61.5285 56.9814 61.799 56.9814 63.2994C56.9814 64.6046 56.9816 64.6058 57.2327 65.0638L57.484 65.5221L56.8801 65.8211C56.5481 65.9856 56.0969 66.2881 55.8776 66.4933C55.4644 66.8801 55.0646 67.563 55.0646 67.8818C55.0646 68.2175 54.912 68.1656 54.6184 67.7302C53.9761 66.778 53.6187 65.3782 53.7059 64.1567C53.7687 63.2773 53.9207 62.753 54.3829 61.821L54.7518 61.0772L54.4246 60.3109C54.0359 59.4001 53.9878 59.4379 55.3093 59.6154L56.1657 59.7304L56.5821 59.4954C57.1238 59.1896 57.9852 58.8673 58.5167 58.7714C59.2491 58.6393 60.5704 58.731 61.3045 58.965ZM60.2656 61.5176C60.742 61.8736 60.813 62.0594 60.8429 63.0281C60.8783 64.1723 60.8362 64.3814 60.4876 64.7888C60.221 65.1005 60.2034 65.157 60.2034 65.6995V66.2777L61.2547 66.805C61.8753 67.1161 62.3797 67.4257 62.4857 67.5606L62.6653 67.789L61.1081 67.8112C60.2516 67.8234 58.8501 67.8234 57.9935 67.8112L56.4363 67.789L56.6159 67.5606C56.722 67.4257 57.2264 67.1161 57.8469 66.805L58.8983 66.2777V65.6803C58.8983 65.1523 58.8751 65.0611 58.6989 64.8955C58.3322 64.5506 58.2457 64.2425 58.2457 63.2795C58.2457 62.5023 58.2704 62.3396 58.4354 62.0266C58.6952 61.5338 59.1349 61.2818 59.6588 61.3255C59.8764 61.3437 60.1477 61.4295 60.2656 61.5176ZM62.9359 69.3463C62.5915 69.6341 61.6402 70.0836 61.0164 70.253C60.6564 70.3509 60.191 70.3965 59.5508 70.3965C58.9107 70.3965 58.4452 70.3509 58.0852 70.253C57.4615 70.0836 56.5101 69.6341 56.1657 69.3463L55.921 69.1417H59.5508H63.1806L62.9359 69.3463Z" fill="#410EAD"/>
<defs>
<filter id="filter0_d_2144_2485" x="0.559937" y="0" width="91.8801" height="103" filterUnits="userSpaceOnUse" color-interpolation-filters="sRGB">
<feFlood flood-opacity="0" result="BackgroundImageFix"/>
<feColorMatrix in="SourceAlpha" type="matrix" values="0 0 0 0 0 0 0 0 0 0 0 0 0 0 0 0 0 0 127 0" result="hardAlpha"/>
<feOffset/>
<feGaussianBlur stdDeviation="5"/>
<feComposite in2="hardAlpha" operator="out"/>
<feColorMatrix type="matrix" values="0 0 0 0 0.597188 0 0 0 0 0.604669 0 0 0 0 0.975 0 0 0 1 0"/>
<feBlend mode="normal" in2="BackgroundImageFix" result="effect1_dropShadow_2144_2485"/>
<feBlend mode="normal" in="SourceGraphic" in2="effect1_dropShadow_2144_2485" result="shape"/>
</filter>
</defs>
</svg>
