<svg width="508" height="65" viewBox="0 0 508 65" fill="none" xmlns="http://www.w3.org/2000/svg">
<path d="M390.139 32.1934C390.139 31.4512 390.275 30.7871 390.549 30.2012C390.822 29.5957 391.203 29.0879 391.691 28.6777C392.18 28.248 392.727 27.916 393.332 27.6816C393.957 27.4277 394.602 27.2715 395.266 27.2129V30.1426C394.758 30.2402 394.357 30.4453 394.064 30.7578C393.791 31.0703 393.654 31.5098 393.654 32.0762C393.654 32.5449 393.801 32.9258 394.094 33.2188C394.406 33.4922 394.797 33.7363 395.266 33.9512V37.0859C394.934 36.9883 394.592 36.8809 394.24 36.7637C393.908 36.627 393.576 36.4805 393.244 36.3242C392.209 35.7773 391.428 35.2012 390.9 34.5957C390.393 33.9902 390.139 33.1895 390.139 32.1934ZM399.924 30.9629C399.396 30.6895 398.83 30.4844 398.225 30.3477C397.639 30.2109 397.053 30.123 396.467 30.084V27.1836C397.346 27.2227 398.156 27.3496 398.898 27.5645C399.641 27.7598 400.363 28.082 401.066 28.5312L399.924 30.9629ZM391.691 40.3086C392.082 40.582 392.541 40.8359 393.068 41.0703C393.615 41.3047 394.299 41.4219 395.119 41.4219H395.266V44.1465C394.777 44.1465 394.328 44.127 393.918 44.0879C393.508 44.0684 393.098 44.0098 392.688 43.9121C392.297 43.7949 391.896 43.6387 391.486 43.4434C391.076 43.248 390.646 42.9941 390.197 42.6816L391.691 40.3086ZM396.467 34.4199C397.053 34.6152 397.648 34.8301 398.254 35.0645C398.859 35.2988 399.406 35.5918 399.895 35.9434C400.402 36.2949 400.812 36.7344 401.125 37.2617C401.457 37.7695 401.623 38.4141 401.623 39.1953C401.623 39.957 401.486 40.6211 401.213 41.1875C400.939 41.7539 400.568 42.2422 400.1 42.6523C399.65 43.0625 399.113 43.3848 398.488 43.6191C397.863 43.8535 397.189 44.0098 396.467 44.0879V41.3047C397.131 41.1875 397.639 40.9824 397.99 40.6895C398.361 40.377 398.547 39.9668 398.547 39.459C398.547 38.9512 398.342 38.5605 397.932 38.2871C397.541 37.9941 397.053 37.7402 396.467 37.5254V34.4199ZM409.68 36.4707C409.68 37.1543 409.709 37.7988 409.768 38.4043C409.826 38.9902 409.953 39.5078 410.148 39.957C410.344 40.4062 410.637 40.7676 411.027 41.041C411.418 41.3145 411.936 41.4512 412.58 41.4512C412.834 41.4512 413.195 41.4121 413.664 41.334C414.133 41.2559 414.582 41.1289 415.012 40.9531V43.1211C414.504 43.3945 413.947 43.6387 413.342 43.8535C412.756 44.0488 412.17 44.1465 411.584 44.1465C411.115 44.1465 410.695 44.0977 410.324 44C409.953 43.9219 409.602 43.7949 409.27 43.6191C408.957 43.4238 408.654 43.209 408.361 42.9746C408.068 42.7402 407.775 42.4766 407.482 42.1836C407.15 41.8516 406.887 41.4707 406.691 41.041C406.496 40.5918 406.35 40.1328 406.252 39.6641C406.174 39.1758 406.125 38.6875 406.105 38.1992C406.105 37.7109 406.105 37.2324 406.105 36.7637V27.4766H409.68V36.4707ZM419.787 27.4766V44H416.594L416.213 42.3008V27.4766H419.787ZM435.754 31.7539C435.461 31.4023 435.051 31.0801 434.523 30.7871C434.016 30.4746 433.332 30.2891 432.473 30.2305V27.418C433.547 27.4766 434.465 27.7109 435.227 28.1211C436.008 28.5117 436.711 29.0879 437.336 29.8496L435.754 31.7539ZM432.473 41.2168C433.176 41.1387 433.771 40.9727 434.26 40.7188C434.768 40.4453 435.246 40.1328 435.695 39.7812L437.014 41.6855C436.408 42.4473 435.754 43.0332 435.051 43.4434C434.348 43.834 433.488 44.0586 432.473 44.1172V41.2168ZM424.299 35.7383C424.299 34.625 424.455 33.5801 424.768 32.6035C425.1 31.627 425.578 30.7676 426.203 30.0254C426.828 29.2832 427.561 28.6875 428.4 28.2383C429.26 27.7695 430.217 27.4961 431.271 27.418V30.2598C430.295 30.4746 429.514 31.0801 428.928 32.0762C428.342 33.0527 428.049 34.2441 428.049 35.6504C428.049 36.373 428.117 37.0566 428.254 37.7012C428.41 38.3262 428.625 38.8828 428.898 39.3711C429.172 39.8594 429.504 40.2695 429.895 40.6016C430.305 40.9336 430.764 41.1387 431.271 41.2168V44.1172C430.197 44.0586 429.23 43.8047 428.371 43.3555C427.512 42.8867 426.779 42.2812 426.174 41.5391C425.568 40.7773 425.1 39.8984 424.768 38.9023C424.455 37.9062 424.299 36.8516 424.299 35.7383ZM452.893 31.7539C452.6 31.4023 452.189 31.0801 451.662 30.7871C451.154 30.4746 450.471 30.2891 449.611 30.2305V27.418C450.686 27.4766 451.604 27.7109 452.365 28.1211C453.146 28.5117 453.85 29.0879 454.475 29.8496L452.893 31.7539ZM449.611 41.2168C450.314 41.1387 450.91 40.9727 451.398 40.7188C451.906 40.4453 452.385 40.1328 452.834 39.7812L454.152 41.6855C453.547 42.4473 452.893 43.0332 452.189 43.4434C451.486 43.834 450.627 44.0586 449.611 44.1172V41.2168ZM441.438 35.7383C441.438 34.625 441.594 33.5801 441.906 32.6035C442.238 31.627 442.717 30.7676 443.342 30.0254C443.967 29.2832 444.699 28.6875 445.539 28.2383C446.398 27.7695 447.355 27.4961 448.41 27.418V30.2598C447.434 30.4746 446.652 31.0801 446.066 32.0762C445.48 33.0527 445.188 34.2441 445.188 35.6504C445.188 36.373 445.256 37.0566 445.393 37.7012C445.549 38.3262 445.764 38.8828 446.037 39.3711C446.311 39.8594 446.643 40.2695 447.033 40.6016C447.443 40.9336 447.902 41.1387 448.41 41.2168V44.1172C447.336 44.0586 446.369 43.8047 445.51 43.3555C444.65 42.8867 443.918 42.2812 443.312 41.5391C442.707 40.7773 442.238 39.8984 441.906 38.9023C441.594 37.9062 441.438 36.8516 441.438 35.7383ZM466.721 27.3301C467.775 27.4277 468.723 27.7109 469.562 28.1797C470.422 28.6484 471.154 29.2539 471.76 29.9961C472.365 30.7383 472.824 31.5879 473.137 32.5449C473.469 33.502 473.635 34.498 473.635 35.5332C473.635 36.002 473.605 36.4707 473.547 36.9395H463.498V34.3613H470.266C470.266 33.8535 470.178 33.3652 470.002 32.8965C469.846 32.4277 469.602 31.998 469.27 31.6074C468.957 31.1973 468.586 30.8555 468.156 30.582C467.727 30.3086 467.248 30.1426 466.721 30.084V27.3301ZM466.604 41.2461C466.818 41.2461 467.082 41.2266 467.395 41.1875C467.727 41.1289 468.068 41.041 468.42 40.9238C468.791 40.7871 469.152 40.6211 469.504 40.4258C469.875 40.2305 470.197 39.9961 470.471 39.7227L471.76 41.6855C471.115 42.4863 470.363 43.0918 469.504 43.502C468.645 43.9121 467.551 44.1172 466.223 44.1172C465.148 44.1172 464.143 43.9023 463.205 43.4727C462.268 43.0234 461.467 42.418 460.803 41.6562C460.139 40.8945 459.611 40.0059 459.221 38.9902C458.83 37.9746 458.635 36.8809 458.635 35.709C458.635 34.5957 458.811 33.541 459.162 32.5449C459.533 31.5488 460.031 30.6797 460.656 29.9375C461.281 29.1758 462.004 28.5605 462.824 28.0918C463.664 27.623 464.562 27.3594 465.52 27.3008V30.1133C464.797 30.25 464.201 30.543 463.732 30.9922C463.264 31.4414 462.893 31.959 462.619 32.5449C462.365 33.1113 462.18 33.6973 462.062 34.3027C461.965 34.9082 461.916 35.4258 461.916 35.8555C461.916 36.6172 462.004 37.3301 462.18 37.9941C462.375 38.6387 462.668 39.2051 463.059 39.6934C463.449 40.1621 463.928 40.543 464.494 40.8359C465.08 41.1094 465.783 41.2461 466.604 41.2461ZM478.117 32.1934C478.117 31.4512 478.254 30.7871 478.527 30.2012C478.801 29.5957 479.182 29.0879 479.67 28.6777C480.158 28.248 480.705 27.916 481.311 27.6816C481.936 27.4277 482.58 27.2715 483.244 27.2129V30.1426C482.736 30.2402 482.336 30.4453 482.043 30.7578C481.77 31.0703 481.633 31.5098 481.633 32.0762C481.633 32.5449 481.779 32.9258 482.072 33.2188C482.385 33.4922 482.775 33.7363 483.244 33.9512V37.0859C482.912 36.9883 482.57 36.8809 482.219 36.7637C481.887 36.627 481.555 36.4805 481.223 36.3242C480.188 35.7773 479.406 35.2012 478.879 34.5957C478.371 33.9902 478.117 33.1895 478.117 32.1934ZM487.902 30.9629C487.375 30.6895 486.809 30.4844 486.203 30.3477C485.617 30.2109 485.031 30.123 484.445 30.084V27.1836C485.324 27.2227 486.135 27.3496 486.877 27.5645C487.619 27.7598 488.342 28.082 489.045 28.5312L487.902 30.9629ZM479.67 40.3086C480.061 40.582 480.52 40.8359 481.047 41.0703C481.594 41.3047 482.277 41.4219 483.098 41.4219H483.244V44.1465C482.756 44.1465 482.307 44.127 481.896 44.0879C481.486 44.0684 481.076 44.0098 480.666 43.9121C480.275 43.7949 479.875 43.6387 479.465 43.4434C479.055 43.248 478.625 42.9941 478.176 42.6816L479.67 40.3086ZM484.445 34.4199C485.031 34.6152 485.627 34.8301 486.232 35.0645C486.838 35.2988 487.385 35.5918 487.873 35.9434C488.381 36.2949 488.791 36.7344 489.104 37.2617C489.436 37.7695 489.602 38.4141 489.602 39.1953C489.602 39.957 489.465 40.6211 489.191 41.1875C488.918 41.7539 488.547 42.2422 488.078 42.6523C487.629 43.0625 487.092 43.3848 486.467 43.6191C485.842 43.8535 485.168 44.0098 484.445 44.0879V41.3047C485.109 41.1875 485.617 40.9824 485.969 40.6895C486.34 40.377 486.525 39.9668 486.525 39.459C486.525 38.9512 486.32 38.5605 485.91 38.2871C485.52 37.9941 485.031 37.7402 484.445 37.5254V34.4199ZM493.82 32.1934C493.82 31.4512 493.957 30.7871 494.23 30.2012C494.504 29.5957 494.885 29.0879 495.373 28.6777C495.861 28.248 496.408 27.916 497.014 27.6816C497.639 27.4277 498.283 27.2715 498.947 27.2129V30.1426C498.439 30.2402 498.039 30.4453 497.746 30.7578C497.473 31.0703 497.336 31.5098 497.336 32.0762C497.336 32.5449 497.482 32.9258 497.775 33.2188C498.088 33.4922 498.479 33.7363 498.947 33.9512V37.0859C498.615 36.9883 498.273 36.8809 497.922 36.7637C497.59 36.627 497.258 36.4805 496.926 36.3242C495.891 35.7773 495.109 35.2012 494.582 34.5957C494.074 33.9902 493.82 33.1895 493.82 32.1934ZM503.605 30.9629C503.078 30.6895 502.512 30.4844 501.906 30.3477C501.32 30.2109 500.734 30.123 500.148 30.084V27.1836C501.027 27.2227 501.838 27.3496 502.58 27.5645C503.322 27.7598 504.045 28.082 504.748 28.5312L503.605 30.9629ZM495.373 40.3086C495.764 40.582 496.223 40.8359 496.75 41.0703C497.297 41.3047 497.98 41.4219 498.801 41.4219H498.947V44.1465C498.459 44.1465 498.01 44.127 497.6 44.0879C497.189 44.0684 496.779 44.0098 496.369 43.9121C495.979 43.7949 495.578 43.6387 495.168 43.4434C494.758 43.248 494.328 42.9941 493.879 42.6816L495.373 40.3086ZM500.148 34.4199C500.734 34.6152 501.33 34.8301 501.936 35.0645C502.541 35.2988 503.088 35.5918 503.576 35.9434C504.084 36.2949 504.494 36.7344 504.807 37.2617C505.139 37.7695 505.305 38.4141 505.305 39.1953C505.305 39.957 505.168 40.6211 504.895 41.1875C504.621 41.7539 504.25 42.2422 503.781 42.6523C503.332 43.0625 502.795 43.3848 502.17 43.6191C501.545 43.8535 500.871 44.0098 500.148 44.0879V41.3047C500.812 41.1875 501.32 40.9824 501.672 40.6895C502.043 40.377 502.229 39.9668 502.229 39.459C502.229 38.9512 502.023 38.5605 501.613 38.2871C501.223 37.9941 500.734 37.7402 500.148 37.5254V34.4199Z" fill="#410EAD"/>
<path d="M81.186 29.606H89.583V31.955H81.186V29.606ZM81.186 34.25H89.583V36.599H81.186V34.25Z" fill="black"/>
<path d="M180.186 29.606H188.583V31.955H180.186V29.606ZM180.186 34.25H188.583V36.599H180.186V34.25Z" fill="black"/>
<path d="M363.186 29.606H371.583V31.955H363.186V29.606ZM363.186 34.25H371.583V36.599H363.186V34.25Z" fill="black"/>
<path d="M111.64 16.9482C111.64 16.3792 111.744 15.8701 111.954 15.4209C112.164 14.9567 112.456 14.5674 112.83 14.2529C113.204 13.9235 113.624 13.6689 114.088 13.4893C114.567 13.2946 115.061 13.1748 115.57 13.1299V15.376C115.181 15.4508 114.874 15.6081 114.649 15.8477C114.44 16.0872 114.335 16.4242 114.335 16.8584C114.335 17.2178 114.447 17.5098 114.672 17.7344C114.911 17.944 115.211 18.1312 115.57 18.2959V20.6992C115.316 20.6243 115.054 20.542 114.784 20.4521C114.53 20.3473 114.275 20.235 114.021 20.1152C113.227 19.696 112.628 19.2542 112.224 18.79C111.834 18.3258 111.64 17.7119 111.64 16.9482ZM119.142 16.0049C118.737 15.7952 118.303 15.638 117.839 15.5332C117.39 15.4284 116.94 15.361 116.491 15.3311V13.1074C117.165 13.1374 117.786 13.2347 118.355 13.3994C118.924 13.5492 119.479 13.7962 120.018 14.1406L119.142 16.0049ZM112.83 23.1699C113.13 23.3796 113.481 23.5742 113.886 23.7539C114.305 23.9336 114.829 24.0234 115.458 24.0234H115.57V26.1123C115.196 26.1123 114.852 26.0973 114.537 26.0674C114.223 26.0524 113.908 26.0075 113.594 25.9326C113.294 25.8428 112.987 25.723 112.673 25.5732C112.358 25.4235 112.029 25.2288 111.685 24.9893L112.83 23.1699ZM116.491 18.6553C116.94 18.805 117.397 18.9697 117.861 19.1494C118.326 19.3291 118.745 19.5537 119.119 19.8232C119.508 20.0928 119.823 20.4297 120.062 20.834C120.317 21.2233 120.444 21.7174 120.444 22.3164C120.444 22.9004 120.34 23.4095 120.13 23.8438C119.92 24.278 119.636 24.6523 119.276 24.9668C118.932 25.2812 118.52 25.5283 118.041 25.708C117.562 25.8877 117.045 26.0075 116.491 26.0674V23.9336C117 23.8438 117.39 23.6865 117.659 23.4619C117.944 23.2223 118.086 22.9079 118.086 22.5186C118.086 22.1292 117.929 21.8298 117.614 21.6201C117.315 21.3955 116.94 21.2008 116.491 21.0361V18.6553ZM126.688 26H123.948V13.332H126.688V26ZM126.936 9.28906C126.936 9.73828 126.778 10.1201 126.464 10.4346C126.149 10.734 125.768 10.8838 125.318 10.8838C124.869 10.8838 124.487 10.7266 124.173 10.4121C123.873 10.0977 123.724 9.72331 123.724 9.28906C123.724 8.83984 123.881 8.45801 124.195 8.14355C124.51 7.8291 124.884 7.67188 125.318 7.67188C125.768 7.67188 126.149 7.8291 126.464 8.14355C126.778 8.45801 126.936 8.83984 126.936 9.28906ZM132.933 13.332L133.225 14.6123V26H130.507V13.332H132.933ZM139.94 14.7246C140.195 14.9792 140.39 15.2786 140.524 15.623C140.674 15.9525 140.779 16.3044 140.839 16.6787C140.914 17.0381 140.959 17.4049 140.974 17.7793C140.989 18.1536 140.996 18.5205 140.996 18.8799V25.5508V26H138.256V19.1045C138.256 18.5954 138.233 18.1087 138.188 17.6445C138.144 17.1803 138.039 16.7686 137.874 16.4092C137.709 16.0498 137.485 15.7728 137.2 15.5781C136.916 15.3685 136.519 15.2637 136.01 15.2637C135.8 15.2637 135.516 15.3011 135.156 15.376C134.812 15.4359 134.475 15.5407 134.146 15.6904V13.9609C134.55 13.7513 134.984 13.5716 135.448 13.4219C135.927 13.2721 136.392 13.1973 136.841 13.1973C137.515 13.1973 138.084 13.3395 138.548 13.624C139.012 13.8936 139.476 14.2604 139.94 14.7246ZM155.778 26.23C154.52 26.23 153.478 25.8773 152.65 25.172C151.837 24.4513 151.231 23.4317 150.833 22.113C150.434 20.779 150.235 19.1843 150.235 17.329C150.235 15.4583 150.419 13.856 150.787 12.522C151.155 11.188 151.745 10.1683 152.558 9.463C153.386 8.75767 154.459 8.405 155.778 8.405C157.05 8.405 158.101 8.75767 158.929 9.463C159.757 10.153 160.37 11.165 160.769 12.499C161.183 13.833 161.39 15.443 161.39 17.329C161.39 19.1843 161.198 20.779 160.815 22.113C160.447 23.4317 159.849 24.4513 159.021 25.172C158.208 25.8773 157.127 26.23 155.778 26.23ZM155.778 24.551C156.575 24.551 157.227 24.321 157.733 23.861C158.254 23.401 158.645 22.6803 158.906 21.699C159.166 20.7177 159.312 19.4373 159.343 17.858H152.282C152.312 19.422 152.443 20.6947 152.673 21.676C152.918 22.6573 153.294 23.3857 153.8 23.861C154.306 24.321 154.965 24.551 155.778 24.551ZM152.282 16.294H159.32C159.274 14.8987 159.12 13.7487 158.86 12.844C158.599 11.924 158.216 11.2417 157.71 10.797C157.204 10.337 156.56 10.107 155.778 10.107C154.996 10.107 154.352 10.337 153.846 10.797C153.355 11.2417 152.987 11.924 152.742 12.844C152.496 13.7487 152.343 14.8987 152.282 16.294Z" fill="#FB5A5A"/>
<path d="M116.354 47.6113C116.13 47.3418 115.815 47.0947 115.411 46.8701C115.022 46.6305 114.498 46.4883 113.839 46.4434V44.2871C114.662 44.332 115.366 44.5117 115.95 44.8262C116.549 45.1257 117.088 45.5674 117.567 46.1514L116.354 47.6113ZM113.839 54.8662C114.378 54.8063 114.835 54.679 115.209 54.4844C115.598 54.2747 115.965 54.0352 116.31 53.7656L117.32 55.2256C116.856 55.8096 116.354 56.2588 115.815 56.5732C115.276 56.8727 114.618 57.0449 113.839 57.0898V54.8662ZM107.572 50.666C107.572 49.8125 107.692 49.0114 107.932 48.2627C108.186 47.514 108.553 46.8551 109.032 46.2861C109.511 45.7171 110.073 45.2604 110.717 44.916C111.376 44.5566 112.109 44.347 112.918 44.2871V46.4658C112.169 46.6305 111.57 47.0947 111.121 47.8584C110.672 48.6071 110.447 49.5205 110.447 50.5986C110.447 51.1527 110.5 51.6768 110.604 52.1709C110.724 52.6501 110.889 53.0768 111.099 53.4512C111.308 53.8255 111.563 54.14 111.862 54.3945C112.177 54.6491 112.529 54.8063 112.918 54.8662V57.0898C112.094 57.0449 111.353 56.8503 110.694 56.5059C110.035 56.1465 109.474 55.6823 109.01 55.1133C108.546 54.5293 108.186 53.8555 107.932 53.0918C107.692 52.3281 107.572 51.5195 107.572 50.666ZM127.023 44.2646C127.847 44.3096 128.596 44.5117 129.27 44.8711C129.943 45.2155 130.505 45.6797 130.954 46.2637C131.418 46.8327 131.778 47.499 132.032 48.2627C132.287 49.0264 132.414 49.8424 132.414 50.7109C132.414 51.5794 132.279 52.3955 132.01 53.1592C131.755 53.9079 131.396 54.5667 130.932 55.1357C130.467 55.6898 129.898 56.139 129.225 56.4834C128.551 56.8278 127.817 57.0299 127.023 57.0898V54.9336C127.772 54.7689 128.379 54.2972 128.843 53.5186C129.322 52.7399 129.562 51.804 129.562 50.7109C129.562 50.1569 129.502 49.6403 129.382 49.1611C129.277 48.667 129.112 48.2253 128.888 47.8359C128.663 47.4466 128.394 47.1247 128.079 46.8701C127.765 46.6156 127.413 46.4508 127.023 46.376V44.2646ZM120.757 50.666C120.757 49.7975 120.884 48.9889 121.139 48.2402C121.393 47.4915 121.753 46.8402 122.217 46.2861C122.696 45.7171 123.265 45.2604 123.924 44.916C124.583 44.5716 125.309 44.362 126.103 44.2871V46.376C125.354 46.5407 124.755 47.0124 124.306 47.791C123.856 48.5697 123.632 49.5055 123.632 50.5986C123.632 51.1527 123.684 51.6768 123.789 52.1709C123.909 52.665 124.074 53.1068 124.283 53.4961C124.493 53.8854 124.747 54.2074 125.047 54.4619C125.361 54.7165 125.713 54.8737 126.103 54.9336V57.0898C125.279 57.0299 124.538 56.8278 123.879 56.4834C123.22 56.124 122.659 55.6598 122.194 55.0908C121.73 54.5218 121.371 53.8555 121.116 53.0918C120.877 52.3281 120.757 51.5195 120.757 50.666ZM135.648 47.9482C135.648 47.3792 135.753 46.8701 135.963 46.4209C136.173 45.9567 136.465 45.5674 136.839 45.2529C137.213 44.9235 137.632 44.6689 138.097 44.4893C138.576 44.2946 139.07 44.1748 139.579 44.1299V46.376C139.19 46.4508 138.883 46.6081 138.658 46.8477C138.449 47.0872 138.344 47.4242 138.344 47.8584C138.344 48.2178 138.456 48.5098 138.681 48.7344C138.92 48.944 139.22 49.1312 139.579 49.2959V51.6992C139.325 51.6243 139.062 51.542 138.793 51.4521C138.538 51.3473 138.284 51.235 138.029 51.1152C137.236 50.696 136.637 50.2542 136.232 49.79C135.843 49.3258 135.648 48.7119 135.648 47.9482ZM143.15 47.0049C142.746 46.7952 142.312 46.638 141.848 46.5332C141.398 46.4284 140.949 46.361 140.5 46.3311V44.1074C141.174 44.1374 141.795 44.2347 142.364 44.3994C142.933 44.5492 143.487 44.7962 144.026 45.1406L143.15 47.0049ZM136.839 54.1699C137.138 54.3796 137.49 54.5742 137.895 54.7539C138.314 54.9336 138.838 55.0234 139.467 55.0234H139.579V57.1123C139.205 57.1123 138.86 57.0973 138.546 57.0674C138.231 57.0524 137.917 57.0075 137.603 56.9326C137.303 56.8428 136.996 56.723 136.682 56.5732C136.367 56.4235 136.038 56.2288 135.693 55.9893L136.839 54.1699ZM140.5 49.6553C140.949 49.805 141.406 49.9697 141.87 50.1494C142.334 50.3291 142.754 50.5537 143.128 50.8232C143.517 51.0928 143.832 51.4297 144.071 51.834C144.326 52.2233 144.453 52.7174 144.453 53.3164C144.453 53.9004 144.348 54.4095 144.139 54.8438C143.929 55.278 143.645 55.6523 143.285 55.9668C142.941 56.2812 142.529 56.5283 142.05 56.708C141.571 56.8877 141.054 57.0075 140.5 57.0674V54.9336C141.009 54.8438 141.398 54.6865 141.668 54.4619C141.952 54.2223 142.095 53.9079 142.095 53.5186C142.095 53.1292 141.938 52.8298 141.623 52.6201C141.324 52.3955 140.949 52.2008 140.5 52.0361V49.6553ZM159.01 57.23C157.109 57.23 155.706 56.4403 154.801 54.861C153.912 53.2817 153.467 51.1043 153.467 48.329C153.467 46.4583 153.651 44.856 154.019 43.522C154.387 42.188 154.977 41.1683 155.79 40.463C156.618 39.7577 157.691 39.405 159.01 39.405C160.927 39.405 162.337 40.187 163.242 41.751C164.162 43.2997 164.622 45.4923 164.622 48.329C164.622 50.1843 164.43 51.779 164.047 53.113C163.679 54.4317 163.081 55.4513 162.253 56.172C161.44 56.8773 160.359 57.23 159.01 57.23ZM155.514 47.294H162.552C162.475 45.2087 162.161 43.66 161.609 42.648C161.057 41.6207 160.191 41.107 159.01 41.107C157.845 41.107 156.986 41.6207 156.434 42.648C155.897 43.66 155.591 45.2087 155.514 47.294ZM159.01 55.551C160.206 55.551 161.088 55.0297 161.655 53.987C162.222 52.929 162.529 51.2193 162.575 48.858H155.514C155.545 51.204 155.828 52.906 156.365 53.964C156.917 55.022 157.799 55.551 159.01 55.551Z" fill="#0BB326"/>
<line x1="106" y1="33.5" x2="166" y2="33.5" stroke="black"/>
<path d="M226.15 11.332C225.327 13.5332 224.593 15.4873 223.949 17.1943C223.305 18.8864 222.744 20.3763 222.265 21.6641C221.785 22.9368 221.359 24.015 220.984 24.8984C220.625 25.7819 220.288 26.5156 219.974 27.0996C219.674 27.6986 219.39 28.1628 219.12 28.4922C218.851 28.8366 218.574 29.0986 218.289 29.2783C218.005 29.458 217.69 29.5628 217.346 29.5928C217.016 29.6377 216.634 29.6602 216.2 29.6602C216.065 29.6602 215.908 29.6377 215.729 29.5928C215.549 29.5628 215.369 29.5179 215.189 29.458C215.025 29.4131 214.875 29.3607 214.74 29.3008C214.605 29.2559 214.516 29.2259 214.471 29.2109C214.531 28.9414 214.59 28.6868 214.65 28.4473C214.695 28.2376 214.74 28.0355 214.785 27.8408C214.845 27.6611 214.89 27.5339 214.92 27.459C215.04 27.459 215.219 27.4964 215.459 27.5713C215.714 27.6462 215.901 27.6836 216.021 27.6836C216.26 27.6836 216.47 27.6686 216.649 27.6387C216.844 27.6237 217.016 27.5563 217.166 27.4365C217.316 27.3317 217.458 27.167 217.593 26.9424C217.728 26.7327 217.877 26.4258 218.042 26.0215L218.896 24L223.41 11.332H226.15ZM218.424 22.8096L213.707 11.332H216.425L219.659 19.8447L219.345 20.6084L218.424 22.8096ZM234.978 11.2646C235.801 11.3096 236.55 11.5117 237.224 11.8711C237.897 12.2155 238.459 12.6797 238.908 13.2637C239.372 13.8327 239.732 14.499 239.986 15.2627C240.241 16.0264 240.368 16.8424 240.368 17.7109C240.368 18.5794 240.233 19.3955 239.964 20.1592C239.709 20.9079 239.35 21.5667 238.886 22.1357C238.422 22.6898 237.853 23.139 237.179 23.4834C236.505 23.8278 235.771 24.0299 234.978 24.0898V21.9336C235.726 21.7689 236.333 21.2972 236.797 20.5186C237.276 19.7399 237.516 18.804 237.516 17.7109C237.516 17.1569 237.456 16.6403 237.336 16.1611C237.231 15.667 237.066 15.2253 236.842 14.8359C236.617 14.4466 236.348 14.1247 236.033 13.8701C235.719 13.6156 235.367 13.4508 234.978 13.376V11.2646ZM228.711 17.666C228.711 16.7975 228.838 15.9889 229.093 15.2402C229.347 14.4915 229.707 13.8402 230.171 13.2861C230.65 12.7171 231.219 12.2604 231.878 11.916C232.537 11.5716 233.263 11.362 234.057 11.2871V13.376C233.308 13.5407 232.709 14.0124 232.26 14.791C231.811 15.5697 231.586 16.5055 231.586 17.5986C231.586 18.1527 231.638 18.6768 231.743 19.1709C231.863 19.665 232.028 20.1068 232.237 20.4961C232.447 20.8854 232.701 21.2074 233.001 21.4619C233.315 21.7165 233.667 21.8737 234.057 21.9336V24.0898C233.233 24.0299 232.492 23.8278 231.833 23.4834C231.174 23.124 230.613 22.6598 230.148 22.0908C229.684 21.5218 229.325 20.8555 229.07 20.0918C228.831 19.3281 228.711 18.5195 228.711 17.666ZM246.545 18.2275C246.545 18.7516 246.567 19.2458 246.612 19.71C246.657 20.1592 246.755 20.556 246.904 20.9004C247.054 21.2448 247.279 21.5218 247.578 21.7314C247.878 21.9411 248.274 22.0459 248.769 22.0459C248.963 22.0459 249.24 22.016 249.6 21.9561C249.959 21.8962 250.303 21.7988 250.633 21.6641V23.3262C250.243 23.5358 249.817 23.723 249.353 23.8877C248.903 24.0374 248.454 24.1123 248.005 24.1123C247.646 24.1123 247.324 24.0749 247.039 24C246.755 23.9401 246.485 23.8428 246.23 23.708C245.991 23.5583 245.759 23.3936 245.534 23.2139C245.31 23.0342 245.085 22.832 244.86 22.6074C244.606 22.3529 244.404 22.0609 244.254 21.7314C244.104 21.387 243.992 21.0352 243.917 20.6758C243.857 20.3014 243.82 19.9271 243.805 19.5527C243.805 19.1784 243.805 18.8115 243.805 18.4521V11.332H246.545V18.2275ZM254.294 11.332V24H251.846L251.554 22.6973V11.332H254.294ZM260.538 11.332L260.83 12.6348V19.5078V19.5527V24H258.112V11.332H260.538ZM261.751 11.8936C262.125 11.6839 262.575 11.5267 263.099 11.4219C263.623 11.3021 264.334 11.2422 265.232 11.2422V14.0723C264.813 13.9525 264.304 13.8851 263.705 13.8701C263.376 13.8701 263.039 13.9001 262.694 13.96C262.365 14.0049 262.05 14.0798 261.751 14.1846V11.8936ZM273.678 11.332H276.755L279.428 20.3389V24.0898H278.125L273.678 11.332ZM283.044 11.332H286.099L281.651 24.0898H280.349V20.3389L283.044 11.332ZM292.073 24H289.333V11.332H292.073V24ZM292.32 7.28906C292.32 7.73828 292.163 8.12012 291.849 8.43457C291.534 8.73405 291.152 8.88379 290.703 8.88379C290.254 8.88379 289.872 8.72656 289.558 8.41211C289.258 8.09766 289.108 7.72331 289.108 7.28906C289.108 6.83984 289.266 6.45801 289.58 6.14355C289.895 5.8291 290.269 5.67188 290.703 5.67188C291.152 5.67188 291.534 5.8291 291.849 6.14355C292.163 6.45801 292.32 6.83984 292.32 7.28906ZM295.6 14.9482C295.6 14.3792 295.704 13.8701 295.914 13.4209C296.124 12.9567 296.416 12.5674 296.79 12.2529C297.164 11.9235 297.584 11.6689 298.048 11.4893C298.527 11.2946 299.021 11.1748 299.53 11.1299V13.376C299.141 13.4508 298.834 13.6081 298.609 13.8477C298.4 14.0872 298.295 14.4242 298.295 14.8584C298.295 15.2178 298.407 15.5098 298.632 15.7344C298.871 15.944 299.171 16.1312 299.53 16.2959V18.6992C299.276 18.6243 299.014 18.542 298.744 18.4521C298.49 18.3473 298.235 18.235 297.98 18.1152C297.187 17.696 296.588 17.2542 296.184 16.79C295.794 16.3258 295.6 15.7119 295.6 14.9482ZM303.102 14.0049C302.697 13.7952 302.263 13.638 301.799 13.5332C301.35 13.4284 300.9 13.361 300.451 13.3311V11.1074C301.125 11.1374 301.746 11.2347 302.315 11.3994C302.884 11.5492 303.438 11.7962 303.978 12.1406L303.102 14.0049ZM296.79 21.1699C297.09 21.3796 297.441 21.5742 297.846 21.7539C298.265 21.9336 298.789 22.0234 299.418 22.0234H299.53V24.1123C299.156 24.1123 298.812 24.0973 298.497 24.0674C298.183 24.0524 297.868 24.0075 297.554 23.9326C297.254 23.8428 296.947 23.723 296.633 23.5732C296.318 23.4235 295.989 23.2288 295.645 22.9893L296.79 21.1699ZM300.451 16.6553C300.9 16.805 301.357 16.9697 301.821 17.1494C302.285 17.3291 302.705 17.5537 303.079 17.8232C303.468 18.0928 303.783 18.4297 304.022 18.834C304.277 19.2233 304.404 19.7174 304.404 20.3164C304.404 20.9004 304.299 21.4095 304.09 21.8438C303.88 22.278 303.596 22.6523 303.236 22.9668C302.892 23.2812 302.48 23.5283 302.001 23.708C301.522 23.8877 301.005 24.0075 300.451 24.0674V21.9336C300.96 21.8438 301.35 21.6865 301.619 21.4619C301.904 21.2223 302.046 20.9079 302.046 20.5186C302.046 20.1292 301.889 19.8298 301.574 19.6201C301.275 19.3955 300.9 19.2008 300.451 19.0361V16.6553ZM310.648 24H307.908V11.332H310.648V24ZM310.896 7.28906C310.896 7.73828 310.738 8.12012 310.424 8.43457C310.109 8.73405 309.728 8.88379 309.278 8.88379C308.829 8.88379 308.447 8.72656 308.133 8.41211C307.833 8.09766 307.684 7.72331 307.684 7.28906C307.684 6.83984 307.841 6.45801 308.155 6.14355C308.47 5.8291 308.844 5.67188 309.278 5.67188C309.728 5.67188 310.109 5.8291 310.424 6.14355C310.738 6.45801 310.896 6.83984 310.896 7.28906ZM320.419 11.2646C321.243 11.3096 321.991 11.5117 322.665 11.8711C323.339 12.2155 323.9 12.6797 324.35 13.2637C324.814 13.8327 325.173 14.499 325.428 15.2627C325.682 16.0264 325.81 16.8424 325.81 17.7109C325.81 18.5794 325.675 19.3955 325.405 20.1592C325.151 20.9079 324.791 21.5667 324.327 22.1357C323.863 22.6898 323.294 23.139 322.62 23.4834C321.946 23.8278 321.213 24.0299 320.419 24.0898V21.9336C321.168 21.7689 321.774 21.2972 322.238 20.5186C322.717 19.7399 322.957 18.804 322.957 17.7109C322.957 17.1569 322.897 16.6403 322.777 16.1611C322.673 15.667 322.508 15.2253 322.283 14.8359C322.059 14.4466 321.789 14.1247 321.475 13.8701C321.16 13.6156 320.808 13.4508 320.419 13.376V11.2646ZM314.152 17.666C314.152 16.7975 314.28 15.9889 314.534 15.2402C314.789 14.4915 315.148 13.8402 315.612 13.2861C316.091 12.7171 316.66 12.2604 317.319 11.916C317.978 11.5716 318.704 11.362 319.498 11.2871V13.376C318.749 13.5407 318.15 14.0124 317.701 14.791C317.252 15.5697 317.027 16.5055 317.027 17.5986C317.027 18.1527 317.08 18.6768 317.185 19.1709C317.304 19.665 317.469 20.1068 317.679 20.4961C317.888 20.8854 318.143 21.2074 318.442 21.4619C318.757 21.7165 319.109 21.8737 319.498 21.9336V24.0898C318.674 24.0299 317.933 23.8278 317.274 23.4834C316.616 23.124 316.054 22.6598 315.59 22.0908C315.126 21.5218 314.766 20.8555 314.512 20.0918C314.272 19.3281 314.152 18.5195 314.152 17.666ZM331.762 11.332L332.054 12.6123V24H329.336V11.332H331.762ZM338.77 12.7246C339.024 12.9792 339.219 13.2786 339.354 13.623C339.503 13.9525 339.608 14.3044 339.668 14.6787C339.743 15.0381 339.788 15.4049 339.803 15.7793C339.818 16.1536 339.825 16.5205 339.825 16.8799V23.5508V24H337.085V17.1045C337.085 16.5954 337.062 16.1087 337.018 15.6445C336.973 15.1803 336.868 14.7686 336.703 14.4092C336.538 14.0498 336.314 13.7728 336.029 13.5781C335.745 13.3685 335.348 13.2637 334.839 13.2637C334.629 13.2637 334.345 13.3011 333.985 13.376C333.641 13.4359 333.304 13.5407 332.975 13.6904V11.9609C333.379 11.7513 333.813 11.5716 334.277 11.4219C334.757 11.2721 335.221 11.1973 335.67 11.1973C336.344 11.1973 336.913 11.3395 337.377 11.624C337.841 11.8936 338.305 12.2604 338.77 12.7246Z" fill="#FB5A5A"/>
<path d="M212.884 47.2646C213.707 47.3096 214.456 47.5117 215.13 47.8711C215.804 48.2155 216.365 48.6797 216.814 49.2637C217.279 49.8327 217.638 50.499 217.893 51.2627C218.147 52.0264 218.274 52.8424 218.274 53.7109C218.274 54.5794 218.14 55.3955 217.87 56.1592C217.616 56.9079 217.256 57.5667 216.792 58.1357C216.328 58.6898 215.759 59.139 215.085 59.4834C214.411 59.8278 213.677 60.0299 212.884 60.0898V57.9336C213.632 57.7689 214.239 57.2972 214.703 56.5186C215.182 55.7399 215.422 54.804 215.422 53.7109C215.422 53.1569 215.362 52.6403 215.242 52.1611C215.137 51.667 214.973 51.2253 214.748 50.8359C214.523 50.4466 214.254 50.1247 213.939 49.8701C213.625 49.6156 213.273 49.4508 212.884 49.376V47.2646ZM206.617 53.666C206.617 52.7975 206.744 51.9889 206.999 51.2402C207.254 50.4915 207.613 49.8402 208.077 49.2861C208.556 48.7171 209.125 48.2604 209.784 47.916C210.443 47.5716 211.169 47.362 211.963 47.2871V49.376C211.214 49.5407 210.615 50.0124 210.166 50.791C209.717 51.5697 209.492 52.5055 209.492 53.5986C209.492 54.1527 209.545 54.6768 209.649 55.1709C209.769 55.665 209.934 56.1068 210.144 56.4961C210.353 56.8854 210.608 57.2074 210.907 57.4619C211.222 57.7165 211.574 57.8737 211.963 57.9336V60.0898C211.139 60.0299 210.398 59.8278 209.739 59.4834C209.08 59.124 208.519 58.6598 208.055 58.0908C207.59 57.5218 207.231 56.8555 206.977 56.0918C206.737 55.3281 206.617 54.5195 206.617 53.666ZM224.451 54.2275C224.451 54.7516 224.474 55.2458 224.519 55.71C224.563 56.1592 224.661 56.556 224.811 56.9004C224.96 57.2448 225.185 57.5218 225.484 57.7314C225.784 57.9411 226.181 58.0459 226.675 58.0459C226.869 58.0459 227.146 58.016 227.506 57.9561C227.865 57.8962 228.21 57.7988 228.539 57.6641V59.3262C228.15 59.5358 227.723 59.723 227.259 59.8877C226.81 60.0374 226.36 60.1123 225.911 60.1123C225.552 60.1123 225.23 60.0749 224.945 60C224.661 59.9401 224.391 59.8428 224.137 59.708C223.897 59.5583 223.665 59.3936 223.44 59.2139C223.216 59.0342 222.991 58.832 222.767 58.6074C222.512 58.3529 222.31 58.0609 222.16 57.7314C222.01 57.387 221.898 57.0352 221.823 56.6758C221.763 56.3014 221.726 55.9271 221.711 55.5527C221.711 55.1784 221.711 54.8115 221.711 54.4521V47.332H224.451V54.2275ZM232.2 47.332V60H229.752L229.46 58.6973V47.332H232.2ZM238.444 47.332L238.736 48.6348V55.5078V55.5527V60H236.019V47.332H238.444ZM239.657 47.8936C240.032 47.6839 240.481 47.5267 241.005 47.4219C241.529 47.3021 242.24 47.2422 243.139 47.2422V50.0723C242.719 49.9525 242.21 49.8851 241.611 49.8701C241.282 49.8701 240.945 49.9001 240.601 49.96C240.271 50.0049 239.957 50.0798 239.657 50.1846V47.8936ZM251.898 50.9482C251.898 50.3792 252.003 49.8701 252.213 49.4209C252.423 48.9567 252.715 48.5674 253.089 48.2529C253.463 47.9235 253.882 47.6689 254.347 47.4893C254.826 47.2946 255.32 47.1748 255.829 47.1299V49.376C255.44 49.4508 255.133 49.6081 254.908 49.8477C254.699 50.0872 254.594 50.4242 254.594 50.8584C254.594 51.2178 254.706 51.5098 254.931 51.7344C255.17 51.944 255.47 52.1312 255.829 52.2959V54.6992C255.575 54.6243 255.312 54.542 255.043 54.4521C254.788 54.3473 254.534 54.235 254.279 54.1152C253.486 53.696 252.887 53.2542 252.482 52.79C252.093 52.3258 251.898 51.7119 251.898 50.9482ZM259.4 50.0049C258.996 49.7952 258.562 49.638 258.098 49.5332C257.648 49.4284 257.199 49.361 256.75 49.3311V47.1074C257.424 47.1374 258.045 47.2347 258.614 47.3994C259.183 47.5492 259.737 47.7962 260.276 48.1406L259.4 50.0049ZM253.089 57.1699C253.388 57.3796 253.74 57.5742 254.145 57.7539C254.564 57.9336 255.088 58.0234 255.717 58.0234H255.829V60.1123C255.455 60.1123 255.11 60.0973 254.796 60.0674C254.481 60.0524 254.167 60.0075 253.853 59.9326C253.553 59.8428 253.246 59.723 252.932 59.5732C252.617 59.4235 252.288 59.2288 251.943 58.9893L253.089 57.1699ZM256.75 52.6553C257.199 52.805 257.656 52.9697 258.12 53.1494C258.584 53.3291 259.004 53.5537 259.378 53.8232C259.767 54.0928 260.082 54.4297 260.321 54.834C260.576 55.2233 260.703 55.7174 260.703 56.3164C260.703 56.9004 260.598 57.4095 260.389 57.8438C260.179 58.278 259.895 58.6523 259.535 58.9668C259.191 59.2812 258.779 59.5283 258.3 59.708C257.821 59.8877 257.304 60.0075 256.75 60.0674V57.9336C257.259 57.8438 257.648 57.6865 257.918 57.4619C258.202 57.2223 258.345 56.9079 258.345 56.5186C258.345 56.1292 258.188 55.8298 257.873 55.6201C257.574 55.3955 257.199 55.2008 256.75 55.0361V52.6553ZM270.114 47.2197C270.923 47.2946 271.649 47.5117 272.293 47.8711C272.952 48.2305 273.513 48.6947 273.978 49.2637C274.442 49.8327 274.794 50.484 275.033 51.2178C275.288 51.9515 275.415 52.7152 275.415 53.5088C275.415 53.8682 275.393 54.2275 275.348 54.5869H267.644V52.6104H272.832C272.832 52.221 272.765 51.8467 272.63 51.4873C272.51 51.1279 272.323 50.7985 272.068 50.499C271.829 50.1846 271.544 49.9225 271.215 49.7129C270.885 49.5033 270.519 49.376 270.114 49.3311V47.2197ZM270.024 57.8887C270.189 57.8887 270.391 57.8737 270.631 57.8438C270.885 57.7988 271.147 57.7314 271.417 57.6416C271.701 57.5368 271.979 57.4095 272.248 57.2598C272.533 57.11 272.78 56.9303 272.989 56.7207L273.978 58.2256C273.483 58.8395 272.907 59.3037 272.248 59.6182C271.589 59.9326 270.751 60.0898 269.732 60.0898C268.909 60.0898 268.138 59.9251 267.419 59.5957C266.7 59.2513 266.086 58.7871 265.577 58.2031C265.068 57.6191 264.664 56.9378 264.364 56.1592C264.065 55.3805 263.915 54.542 263.915 53.6436C263.915 52.79 264.05 51.9814 264.319 51.2178C264.604 50.4541 264.986 49.7878 265.465 49.2188C265.944 48.6348 266.498 48.1631 267.127 47.8037C267.771 47.4443 268.46 47.2422 269.193 47.1973V49.3535C268.639 49.4583 268.183 49.6829 267.823 50.0273C267.464 50.3717 267.179 50.7686 266.97 51.2178C266.775 51.652 266.633 52.1012 266.543 52.5654C266.468 53.0296 266.431 53.4264 266.431 53.7559C266.431 54.3398 266.498 54.8864 266.633 55.3955C266.783 55.8896 267.007 56.3239 267.307 56.6982C267.606 57.0576 267.973 57.3496 268.407 57.5742C268.856 57.7839 269.396 57.8887 270.024 57.8887ZM281.569 47.332L281.861 48.6348V55.5078V55.5527V60H279.144V47.332H281.569ZM282.782 47.8936C283.157 47.6839 283.606 47.5267 284.13 47.4219C284.654 47.3021 285.365 47.2422 286.264 47.2422V50.0723C285.844 49.9525 285.335 49.8851 284.736 49.8701C284.407 49.8701 284.07 49.9001 283.726 49.96C283.396 50.0049 283.082 50.0798 282.782 50.1846V47.8936ZM288.555 47.332H291.632L294.305 56.3389V60.0898H293.002L288.555 47.332ZM297.921 47.332H300.976L296.528 60.0898H295.226V56.3389L297.921 47.332ZM306.95 60H304.21V47.332H306.95V60ZM307.197 43.2891C307.197 43.7383 307.04 44.1201 306.726 44.4346C306.411 44.734 306.029 44.8838 305.58 44.8838C305.131 44.8838 304.749 44.7266 304.435 44.4121C304.135 44.0977 303.985 43.7233 303.985 43.2891C303.985 42.8398 304.143 42.458 304.457 42.1436C304.771 41.8291 305.146 41.6719 305.58 41.6719C306.029 41.6719 306.411 41.8291 306.726 42.1436C307.04 42.458 307.197 42.8398 307.197 43.2891ZM319.191 50.6113C318.967 50.3418 318.652 50.0947 318.248 49.8701C317.859 49.6305 317.335 49.4883 316.676 49.4434V47.2871C317.499 47.332 318.203 47.5117 318.787 47.8262C319.386 48.1257 319.925 48.5674 320.404 49.1514L319.191 50.6113ZM316.676 57.8662C317.215 57.8063 317.672 57.679 318.046 57.4844C318.435 57.2747 318.802 57.0352 319.146 56.7656L320.157 58.2256C319.693 58.8096 319.191 59.2588 318.652 59.5732C318.113 59.8727 317.454 60.0449 316.676 60.0898V57.8662ZM310.409 53.666C310.409 52.8125 310.529 52.0114 310.769 51.2627C311.023 50.514 311.39 49.8551 311.869 49.2861C312.348 48.7171 312.91 48.2604 313.554 47.916C314.213 47.5566 314.946 47.347 315.755 47.2871V49.4658C315.006 49.6305 314.407 50.0947 313.958 50.8584C313.509 51.6071 313.284 52.5205 313.284 53.5986C313.284 54.1527 313.337 54.6768 313.441 55.1709C313.561 55.6501 313.726 56.0768 313.936 56.4512C314.145 56.8255 314.4 57.14 314.699 57.3945C315.014 57.6491 315.366 57.8063 315.755 57.8662V60.0898C314.931 60.0449 314.19 59.8503 313.531 59.5059C312.872 59.1465 312.311 58.6823 311.847 58.1133C311.382 57.5293 311.023 56.8555 310.769 56.0918C310.529 55.3281 310.409 54.5195 310.409 53.666ZM329.793 47.2197C330.602 47.2946 331.328 47.5117 331.972 47.8711C332.631 48.2305 333.192 48.6947 333.656 49.2637C334.12 49.8327 334.472 50.484 334.712 51.2178C334.966 51.9515 335.094 52.7152 335.094 53.5088C335.094 53.8682 335.071 54.2275 335.026 54.5869H327.322V52.6104H332.511C332.511 52.221 332.443 51.8467 332.309 51.4873C332.189 51.1279 332.002 50.7985 331.747 50.499C331.507 50.1846 331.223 49.9225 330.894 49.7129C330.564 49.5033 330.197 49.376 329.793 49.3311V47.2197ZM329.703 57.8887C329.868 57.8887 330.07 57.8737 330.31 57.8438C330.564 57.7988 330.826 57.7314 331.096 57.6416C331.38 57.5368 331.657 57.4095 331.927 57.2598C332.211 57.11 332.458 56.9303 332.668 56.7207L333.656 58.2256C333.162 58.8395 332.586 59.3037 331.927 59.6182C331.268 59.9326 330.429 60.0898 329.411 60.0898C328.588 60.0898 327.816 59.9251 327.098 59.5957C326.379 59.2513 325.765 58.7871 325.256 58.2031C324.747 57.6191 324.342 56.9378 324.043 56.1592C323.743 55.3805 323.594 54.542 323.594 53.6436C323.594 52.79 323.729 51.9814 323.998 51.2178C324.283 50.4541 324.664 49.7878 325.144 49.2188C325.623 48.6348 326.177 48.1631 326.806 47.8037C327.45 47.4443 328.138 47.2422 328.872 47.1973V49.3535C328.318 49.4583 327.861 49.6829 327.502 50.0273C327.143 50.3717 326.858 50.7686 326.648 51.2178C326.454 51.652 326.312 52.1012 326.222 52.5654C326.147 53.0296 326.109 53.4264 326.109 53.7559C326.109 54.3398 326.177 54.8864 326.312 55.3955C326.461 55.8896 326.686 56.3239 326.985 56.6982C327.285 57.0576 327.652 57.3496 328.086 57.5742C328.535 57.7839 329.074 57.8887 329.703 57.8887ZM338.53 50.9482C338.53 50.3792 338.635 49.8701 338.845 49.4209C339.054 48.9567 339.346 48.5674 339.721 48.2529C340.095 47.9235 340.514 47.6689 340.979 47.4893C341.458 47.2946 341.952 47.1748 342.461 47.1299V49.376C342.072 49.4508 341.765 49.6081 341.54 49.8477C341.33 50.0872 341.226 50.4242 341.226 50.8584C341.226 51.2178 341.338 51.5098 341.562 51.7344C341.802 51.944 342.102 52.1312 342.461 52.2959V54.6992C342.206 54.6243 341.944 54.542 341.675 54.4521C341.42 54.3473 341.166 54.235 340.911 54.1152C340.118 53.696 339.519 53.2542 339.114 52.79C338.725 52.3258 338.53 51.7119 338.53 50.9482ZM346.032 50.0049C345.628 49.7952 345.194 49.638 344.729 49.5332C344.28 49.4284 343.831 49.361 343.382 49.3311V47.1074C344.056 47.1374 344.677 47.2347 345.246 47.3994C345.815 47.5492 346.369 47.7962 346.908 48.1406L346.032 50.0049ZM339.721 57.1699C340.02 57.3796 340.372 57.5742 340.776 57.7539C341.196 57.9336 341.72 58.0234 342.349 58.0234H342.461V60.1123C342.087 60.1123 341.742 60.0973 341.428 60.0674C341.113 60.0524 340.799 60.0075 340.484 59.9326C340.185 59.8428 339.878 59.723 339.563 59.5732C339.249 59.4235 338.92 59.2288 338.575 58.9893L339.721 57.1699ZM343.382 52.6553C343.831 52.805 344.288 52.9697 344.752 53.1494C345.216 53.3291 345.635 53.5537 346.01 53.8232C346.399 54.0928 346.714 54.4297 346.953 54.834C347.208 55.2233 347.335 55.7174 347.335 56.3164C347.335 56.9004 347.23 57.4095 347.021 57.8438C346.811 58.278 346.526 58.6523 346.167 58.9668C345.823 59.2812 345.411 59.5283 344.932 59.708C344.452 59.8877 343.936 60.0075 343.382 60.0674V57.9336C343.891 57.8438 344.28 57.6865 344.55 57.4619C344.834 57.2223 344.977 56.9079 344.977 56.5186C344.977 56.1292 344.819 55.8298 344.505 55.6201C344.205 55.3955 343.831 55.2008 343.382 55.0361V52.6553Z" fill="#09C928"/>
<line x1="205" y1="35.5" x2="349" y2="35.5" stroke="black"/>
<path d="M7.23633 38.9902C7.23633 39.6543 7.32422 40.1719 7.5 40.543C7.67578 40.9141 7.91992 41.1973 8.23242 41.3926C8.56445 41.5879 8.92578 41.7148 9.31641 41.7734C9.72656 41.8125 10.1562 41.832 10.6055 41.832V44C10.3516 44.0391 10.0977 44.0684 9.84375 44.0879C9.62891 44.1074 9.36523 44.1172 9.05273 44.1172C8.75977 44.1367 8.4668 44.1465 8.17383 44.1465C7.88086 44.1465 7.57813 44.1367 7.26562 44.1172C6.97266 44.0977 6.71875 44.0684 6.50391 44.0293C5.83984 43.9121 5.32227 43.6289 4.95117 43.1797C4.58008 42.7109 4.29688 42.2031 4.10156 41.6562C3.92578 41.0898 3.80859 40.543 3.75 40.0156C3.71094 39.4883 3.69141 39.0781 3.69141 38.7852V29.8789H1.52344V27.4766H3.69141V22.7891H7.23633V27.4766H9.87305V29.8789H7.23633V38.9902ZM17.6367 39.0195C17.6367 39.8984 17.8125 40.5527 18.1641 40.9824C18.5352 41.4121 19.0625 41.666 19.7461 41.7441V44.1172C19.668 44.1367 19.541 44.1465 19.3652 44.1465C18.7012 44.1465 18.0566 44.0586 17.4316 43.8828C16.8262 43.707 16.2891 43.4238 15.8203 43.0332C15.3516 42.6426 14.9805 42.125 14.707 41.4805C14.4531 40.8359 14.3262 40.0449 14.3262 39.1074C14.3262 38.209 14.5117 37.4375 14.8828 36.793C15.2734 36.1289 15.7617 35.5918 16.3477 35.1816C16.9531 34.752 17.6367 34.4395 18.3984 34.2441C19.1602 34.0293 19.9316 33.9219 20.7129 33.9219H22.002V36.002H21.3574C20.9668 36.002 20.5566 36.041 20.127 36.1191C19.6973 36.1973 19.2969 36.3438 18.9258 36.5586C18.5547 36.7734 18.2422 37.0859 17.9883 37.4961C17.7539 37.8867 17.6367 38.3945 17.6367 39.0195ZM26.748 39.1074C26.748 39.2637 26.7578 39.498 26.7773 39.8105C26.7969 40.1035 26.8359 40.4062 26.8945 40.7188C26.9531 41.0312 27.041 41.3145 27.1582 41.5684C27.2949 41.8223 27.4707 41.9883 27.6855 42.0664L26.748 44.0293C26.4941 44.0293 26.2207 43.9707 25.9277 43.8535C25.6543 43.7363 25.3809 43.5703 25.1074 43.3555C24.8535 43.1406 24.6289 42.9062 24.4336 42.6523C24.2578 42.3789 24.1211 42.0859 24.0234 41.7734C23.8281 42.2617 23.4375 42.7012 22.8516 43.0918C22.2852 43.4629 21.6504 43.7363 20.9473 43.9121V41.6855C21.416 41.5879 21.8359 41.4023 22.207 41.1289C22.5977 40.8359 22.9297 40.4941 23.2031 40.1035V33.9219C23.2031 32.9648 23.1543 32.2031 23.0566 31.6367C22.959 31.0703 22.793 30.6602 22.5586 30.4062C22.3242 30.1328 22.0312 29.9668 21.6797 29.9082C21.3477 29.8301 20.9473 29.791 20.4785 29.791C20.0488 29.791 19.6387 29.8496 19.248 29.9668C18.877 30.0645 18.5254 30.1914 18.1934 30.3477C17.8809 30.4844 17.5977 30.6406 17.3438 30.8164C17.1094 30.9922 16.9336 31.1289 16.8164 31.2266L15.498 29.2051C15.6934 28.9902 15.9863 28.7754 16.377 28.5605C16.7676 28.3262 17.2168 28.1211 17.7246 27.9453C18.2324 27.7695 18.7793 27.6328 19.3652 27.5352C19.9707 27.418 20.5957 27.3594 21.2402 27.3594C21.8262 27.3594 22.3926 27.418 22.9395 27.5352C23.5059 27.6523 24.0137 27.8477 24.4629 28.1211C24.9316 28.3945 25.332 28.7656 25.6641 29.2344C26.0156 29.6836 26.2598 30.25 26.3965 30.9336C26.5332 31.6172 26.6211 32.3105 26.6602 33.0137C26.7188 33.6973 26.748 34.3809 26.748 35.0645V38.873V39.1074ZM35.5078 27.4766L35.8887 29.1465V44H32.3438V27.4766H35.5078ZM44.6484 29.293C44.9805 29.625 45.2344 30.0156 45.4102 30.4648C45.6055 30.8945 45.7422 31.3535 45.8203 31.8418C45.918 32.3105 45.9766 32.7891 45.9961 33.2773C46.0156 33.7656 46.0254 34.2441 46.0254 34.7129V43.4141V44H42.4512V35.0059C42.4512 34.3418 42.4219 33.707 42.3633 33.1016C42.3047 32.4961 42.168 31.959 41.9531 31.4902C41.7383 31.0215 41.4453 30.6602 41.0742 30.4062C40.7031 30.1328 40.1855 29.9961 39.5215 29.9961C39.248 29.9961 38.877 30.0449 38.4082 30.1426C37.959 30.2207 37.5195 30.3574 37.0898 30.5527V28.2969C37.6172 28.0234 38.1836 27.7891 38.7891 27.5938C39.4141 27.3984 40.0195 27.3008 40.6055 27.3008C41.4844 27.3008 42.2266 27.4863 42.832 27.8574C43.4375 28.209 44.043 28.6875 44.6484 29.293ZM57.2784 44.3C54.7984 44.3 52.9684 43.27 51.7884 41.21C50.6284 39.15 50.0484 36.31 50.0484 32.69C50.0484 30.25 50.2884 28.16 50.7684 26.42C51.2484 24.68 52.0184 23.35 53.0784 22.43C54.1584 21.51 55.5584 21.05 57.2784 21.05C59.7784 21.05 61.6184 22.07 62.7984 24.11C63.9984 26.13 64.5984 28.99 64.5984 32.69C64.5984 35.11 64.3484 37.19 63.8484 38.93C63.3684 40.65 62.5884 41.98 61.5084 42.92C60.4484 43.84 59.0384 44.3 57.2784 44.3ZM52.7184 31.34H61.8984C61.7984 28.62 61.3884 26.6 60.6684 25.28C59.9484 23.94 58.8184 23.27 57.2784 23.27C55.7584 23.27 54.6384 23.94 53.9184 25.28C53.2184 26.6 52.8184 28.62 52.7184 31.34ZM57.2784 42.11C58.8384 42.11 59.9884 41.43 60.7284 40.07C61.4684 38.69 61.8684 36.46 61.9284 33.38H52.7184C52.7584 36.44 53.1284 38.66 53.8284 40.04C54.5484 41.42 55.6984 42.11 57.2784 42.11Z" fill="#410EAD"/>
</svg>
