<svg width="291" height="38" viewBox="0 0 291 38" fill="none" xmlns="http://www.w3.org/2000/svg">
<path d="M224.212 19.3096C224.212 18.889 224.289 18.5127 224.444 18.1807C224.599 17.8376 224.815 17.5498 225.092 17.3174C225.368 17.0739 225.678 16.8857 226.021 16.7529C226.376 16.609 226.741 16.5205 227.117 16.4873V18.1475C226.829 18.2028 226.603 18.319 226.437 18.4961C226.282 18.6732 226.204 18.9222 226.204 19.2432C226.204 19.5088 226.287 19.7246 226.453 19.8906C226.63 20.0456 226.852 20.1839 227.117 20.3057V22.082C226.929 22.0267 226.735 21.9658 226.536 21.8994C226.348 21.8219 226.16 21.7389 225.972 21.6504C225.385 21.3405 224.942 21.014 224.644 20.6709C224.356 20.3278 224.212 19.874 224.212 19.3096ZM229.757 18.6123C229.458 18.4574 229.137 18.3411 228.794 18.2637C228.462 18.1862 228.13 18.1364 227.798 18.1143V16.4707C228.296 16.4928 228.755 16.5648 229.176 16.6865C229.596 16.7972 230.006 16.9798 230.404 17.2344L229.757 18.6123ZM225.092 23.9082C225.313 24.0632 225.573 24.207 225.872 24.3398C226.182 24.4727 226.569 24.5391 227.034 24.5391H227.117V26.083C226.84 26.083 226.586 26.0719 226.354 26.0498C226.121 26.0387 225.889 26.0055 225.656 25.9502C225.435 25.8838 225.208 25.7952 224.976 25.6846C224.743 25.5739 224.5 25.43 224.245 25.2529L225.092 23.9082ZM227.798 20.5713C228.13 20.682 228.467 20.8037 228.811 20.9365C229.154 21.0693 229.464 21.2354 229.74 21.4346C230.028 21.6338 230.26 21.8828 230.438 22.1816C230.626 22.4694 230.72 22.8346 230.72 23.2773C230.72 23.709 230.642 24.0853 230.487 24.4062C230.332 24.7272 230.122 25.0039 229.856 25.2363C229.602 25.4688 229.298 25.6514 228.943 25.7842C228.589 25.917 228.207 26.0055 227.798 26.0498V24.4727C228.174 24.4062 228.462 24.29 228.661 24.124C228.871 23.9469 228.977 23.7145 228.977 23.4268C228.977 23.139 228.86 22.9176 228.628 22.7627C228.407 22.5967 228.13 22.4528 227.798 22.3311V20.5713ZM235.285 21.7334C235.285 22.1208 235.302 22.486 235.335 22.8291C235.368 23.1611 235.44 23.4544 235.551 23.709C235.661 23.9635 235.827 24.1683 236.049 24.3232C236.27 24.4782 236.563 24.5557 236.929 24.5557C237.073 24.5557 237.277 24.5335 237.543 24.4893C237.809 24.445 238.063 24.373 238.307 24.2734V25.502C238.019 25.6569 237.703 25.7952 237.36 25.917C237.028 26.0277 236.696 26.083 236.364 26.083C236.099 26.083 235.861 26.0553 235.65 26C235.44 25.9557 235.241 25.8838 235.053 25.7842C234.876 25.6735 234.704 25.5518 234.538 25.4189C234.372 25.2861 234.206 25.1367 234.04 24.9707C233.852 24.7826 233.702 24.5667 233.592 24.3232C233.481 24.0687 233.398 23.8086 233.343 23.543C233.299 23.2663 233.271 22.9896 233.26 22.7129C233.26 22.4362 233.26 22.165 233.26 21.8994V16.6367H235.285V21.7334ZM241.013 16.6367V26H239.203L238.987 25.0371V16.6367H241.013ZM250.061 19.0605C249.895 18.8613 249.662 18.6787 249.363 18.5127C249.076 18.3356 248.688 18.2305 248.201 18.1973V16.6035C248.81 16.6367 249.33 16.7695 249.762 17.002C250.204 17.2233 250.603 17.5498 250.957 17.9814L250.061 19.0605ZM248.201 24.4229C248.6 24.3786 248.937 24.2845 249.214 24.1406C249.502 23.9857 249.773 23.8086 250.027 23.6094L250.774 24.6885C250.431 25.1201 250.061 25.4521 249.662 25.6846C249.264 25.9059 248.777 26.0332 248.201 26.0664V24.4229ZM243.569 21.3184C243.569 20.6875 243.658 20.0954 243.835 19.542C244.023 18.9886 244.294 18.5016 244.648 18.0811C245.003 17.6605 245.418 17.3229 245.894 17.0684C246.381 16.8027 246.923 16.6478 247.521 16.6035V18.2139C246.967 18.3356 246.524 18.6787 246.192 19.2432C245.86 19.7965 245.694 20.4717 245.694 21.2686C245.694 21.6781 245.733 22.0654 245.811 22.4307C245.899 22.7848 246.021 23.1003 246.176 23.377C246.331 23.6536 246.519 23.8861 246.74 24.0742C246.973 24.2624 247.233 24.3786 247.521 24.4229V26.0664C246.912 26.0332 246.364 25.8893 245.877 25.6348C245.39 25.3691 244.975 25.026 244.632 24.6055C244.289 24.1738 244.023 23.6758 243.835 23.1113C243.658 22.5469 243.569 21.9492 243.569 21.3184ZM259.772 19.0605C259.606 18.8613 259.374 18.6787 259.075 18.5127C258.787 18.3356 258.4 18.2305 257.913 18.1973V16.6035C258.522 16.6367 259.042 16.7695 259.474 17.002C259.916 17.2233 260.315 17.5498 260.669 17.9814L259.772 19.0605ZM257.913 24.4229C258.312 24.3786 258.649 24.2845 258.926 24.1406C259.214 23.9857 259.485 23.8086 259.739 23.6094L260.486 24.6885C260.143 25.1201 259.772 25.4521 259.374 25.6846C258.976 25.9059 258.489 26.0332 257.913 26.0664V24.4229ZM253.281 21.3184C253.281 20.6875 253.37 20.0954 253.547 19.542C253.735 18.9886 254.006 18.5016 254.36 18.0811C254.715 17.6605 255.13 17.3229 255.605 17.0684C256.092 16.8027 256.635 16.6478 257.232 16.6035V18.2139C256.679 18.3356 256.236 18.6787 255.904 19.2432C255.572 19.7965 255.406 20.4717 255.406 21.2686C255.406 21.6781 255.445 22.0654 255.522 22.4307C255.611 22.7848 255.733 23.1003 255.888 23.377C256.043 23.6536 256.231 23.8861 256.452 24.0742C256.685 24.2624 256.945 24.3786 257.232 24.4229V26.0664C256.624 26.0332 256.076 25.8893 255.589 25.6348C255.102 25.3691 254.687 25.026 254.344 24.6055C254.001 24.1738 253.735 23.6758 253.547 23.1113C253.37 22.5469 253.281 21.9492 253.281 21.3184ZM267.608 16.5537C268.206 16.609 268.743 16.7695 269.219 17.0352C269.706 17.3008 270.121 17.6439 270.464 18.0645C270.807 18.485 271.067 18.9665 271.244 19.5088C271.432 20.0511 271.526 20.6156 271.526 21.2021C271.526 21.4678 271.51 21.7334 271.477 21.999H265.782V20.5381H269.617C269.617 20.2503 269.567 19.9736 269.468 19.708C269.379 19.4424 269.241 19.1989 269.053 18.9775C268.876 18.7451 268.665 18.5514 268.422 18.3965C268.178 18.2415 267.907 18.1475 267.608 18.1143V16.5537ZM267.542 24.4395C267.664 24.4395 267.813 24.4284 267.99 24.4062C268.178 24.373 268.372 24.3232 268.571 24.2568C268.782 24.1794 268.986 24.0853 269.186 23.9746C269.396 23.8639 269.578 23.7311 269.733 23.5762L270.464 24.6885C270.099 25.1423 269.673 25.4854 269.186 25.7178C268.699 25.9502 268.079 26.0664 267.326 26.0664C266.717 26.0664 266.147 25.9447 265.616 25.7012C265.085 25.4466 264.631 25.1035 264.255 24.6719C263.879 24.2402 263.58 23.7367 263.358 23.1611C263.137 22.5856 263.026 21.9658 263.026 21.3018C263.026 20.6709 263.126 20.0732 263.325 19.5088C263.535 18.9443 263.818 18.4518 264.172 18.0312C264.526 17.5996 264.936 17.251 265.4 16.9854C265.876 16.7197 266.385 16.5703 266.928 16.5371V18.1309C266.518 18.2083 266.181 18.3743 265.915 18.6289C265.649 18.8835 265.439 19.1768 265.284 19.5088C265.14 19.8298 265.035 20.1618 264.969 20.5049C264.913 20.848 264.886 21.1413 264.886 21.3848C264.886 21.8164 264.936 22.2204 265.035 22.5967C265.146 22.9619 265.312 23.2829 265.533 23.5596C265.755 23.8252 266.026 24.041 266.347 24.207C266.679 24.362 267.077 24.4395 267.542 24.4395ZM274.066 19.3096C274.066 18.889 274.144 18.5127 274.299 18.1807C274.454 17.8376 274.67 17.5498 274.946 17.3174C275.223 17.0739 275.533 16.8857 275.876 16.7529C276.23 16.609 276.595 16.5205 276.972 16.4873V18.1475C276.684 18.2028 276.457 18.319 276.291 18.4961C276.136 18.6732 276.059 18.9222 276.059 19.2432C276.059 19.5088 276.142 19.7246 276.308 19.8906C276.485 20.0456 276.706 20.1839 276.972 20.3057V22.082C276.784 22.0267 276.59 21.9658 276.391 21.8994C276.202 21.8219 276.014 21.7389 275.826 21.6504C275.24 21.3405 274.797 21.014 274.498 20.6709C274.21 20.3278 274.066 19.874 274.066 19.3096ZM279.611 18.6123C279.312 18.4574 278.992 18.3411 278.648 18.2637C278.316 18.1862 277.984 18.1364 277.652 18.1143V16.4707C278.15 16.4928 278.61 16.5648 279.03 16.6865C279.451 16.7972 279.86 16.9798 280.259 17.2344L279.611 18.6123ZM274.946 23.9082C275.168 24.0632 275.428 24.207 275.727 24.3398C276.036 24.4727 276.424 24.5391 276.889 24.5391H276.972V26.083C276.695 26.083 276.44 26.0719 276.208 26.0498C275.976 26.0387 275.743 26.0055 275.511 25.9502C275.289 25.8838 275.062 25.7952 274.83 25.6846C274.598 25.5739 274.354 25.43 274.1 25.2529L274.946 23.9082ZM277.652 20.5713C277.984 20.682 278.322 20.8037 278.665 20.9365C279.008 21.0693 279.318 21.2354 279.595 21.4346C279.882 21.6338 280.115 21.8828 280.292 22.1816C280.48 22.4694 280.574 22.8346 280.574 23.2773C280.574 23.709 280.497 24.0853 280.342 24.4062C280.187 24.7272 279.977 25.0039 279.711 25.2363C279.456 25.4688 279.152 25.6514 278.798 25.7842C278.444 25.917 278.062 26.0055 277.652 26.0498V24.4727C278.029 24.4062 278.316 24.29 278.516 24.124C278.726 23.9469 278.831 23.7145 278.831 23.4268C278.831 23.139 278.715 22.9176 278.482 22.7627C278.261 22.5967 277.984 22.4528 277.652 22.3311V20.5713ZM282.965 19.3096C282.965 18.889 283.042 18.5127 283.197 18.1807C283.352 17.8376 283.568 17.5498 283.845 17.3174C284.121 17.0739 284.431 16.8857 284.774 16.7529C285.129 16.609 285.494 16.5205 285.87 16.4873V18.1475C285.582 18.2028 285.355 18.319 285.189 18.4961C285.035 18.6732 284.957 18.9222 284.957 19.2432C284.957 19.5088 285.04 19.7246 285.206 19.8906C285.383 20.0456 285.604 20.1839 285.87 20.3057V22.082C285.682 22.0267 285.488 21.9658 285.289 21.8994C285.101 21.8219 284.913 21.7389 284.725 21.6504C284.138 21.3405 283.695 21.014 283.396 20.6709C283.109 20.3278 282.965 19.874 282.965 19.3096ZM288.51 18.6123C288.211 18.4574 287.89 18.3411 287.547 18.2637C287.215 18.1862 286.883 18.1364 286.551 18.1143V16.4707C287.049 16.4928 287.508 16.5648 287.929 16.6865C288.349 16.7972 288.759 16.9798 289.157 17.2344L288.51 18.6123ZM283.845 23.9082C284.066 24.0632 284.326 24.207 284.625 24.3398C284.935 24.4727 285.322 24.5391 285.787 24.5391H285.87V26.083C285.593 26.083 285.339 26.0719 285.106 26.0498C284.874 26.0387 284.642 26.0055 284.409 25.9502C284.188 25.8838 283.961 25.7952 283.729 25.6846C283.496 25.5739 283.253 25.43 282.998 25.2529L283.845 23.9082ZM286.551 20.5713C286.883 20.682 287.22 20.8037 287.563 20.9365C287.907 21.0693 288.216 21.2354 288.493 21.4346C288.781 21.6338 289.013 21.8828 289.19 22.1816C289.379 22.4694 289.473 22.8346 289.473 23.2773C289.473 23.709 289.395 24.0853 289.24 24.4062C289.085 24.7272 288.875 25.0039 288.609 25.2363C288.355 25.4688 288.05 25.6514 287.696 25.7842C287.342 25.917 286.96 26.0055 286.551 26.0498V24.4727C286.927 24.4062 287.215 24.29 287.414 24.124C287.624 23.9469 287.729 23.7145 287.729 23.4268C287.729 23.139 287.613 22.9176 287.381 22.7627C287.16 22.5967 286.883 22.4528 286.551 22.3311V20.5713Z" fill="#410EAD"/>
<path d="M47.006 16.826H52.293V18.305H47.006V16.826ZM47.006 19.75H52.293V21.229H47.006V19.75Z" fill="black"/>
<path d="M106.006 16.826H111.293V18.305H106.006V16.826ZM106.006 19.75H111.293V21.229H106.006V19.75Z" fill="black"/>
<path d="M207.006 16.826H212.293V18.305H207.006V16.826ZM207.006 19.75H212.293V21.229H207.006V19.75Z" fill="black"/>
<path d="M65.8555 7.27734C65.8555 6.98047 65.9102 6.71484 66.0195 6.48047C66.1289 6.23828 66.2812 6.03516 66.4766 5.87109C66.6719 5.69922 66.8906 5.56641 67.1328 5.47266C67.3828 5.37109 67.6406 5.30859 67.9062 5.28516V6.45703C67.7031 6.49609 67.543 6.57812 67.4258 6.70312C67.3164 6.82812 67.2617 7.00391 67.2617 7.23047C67.2617 7.41797 67.3203 7.57031 67.4375 7.6875C67.5625 7.79688 67.7188 7.89453 67.9062 7.98047V9.23438C67.7734 9.19531 67.6367 9.15234 67.4961 9.10547C67.3633 9.05078 67.2305 8.99219 67.0977 8.92969C66.6836 8.71094 66.3711 8.48047 66.1602 8.23828C65.957 7.99609 65.8555 7.67578 65.8555 7.27734ZM69.7695 6.78516C69.5586 6.67578 69.332 6.59375 69.0898 6.53906C68.8555 6.48438 68.6211 6.44922 68.3867 6.43359V5.27344C68.7383 5.28906 69.0625 5.33984 69.3594 5.42578C69.6562 5.50391 69.9453 5.63281 70.2266 5.8125L69.7695 6.78516ZM66.4766 10.5234C66.6328 10.6328 66.8164 10.7344 67.0273 10.8281C67.2461 10.9219 67.5195 10.9688 67.8477 10.9688H67.9062V12.0586C67.7109 12.0586 67.5312 12.0508 67.3672 12.0352C67.2031 12.0273 67.0391 12.0039 66.875 11.9648C66.7188 11.918 66.5586 11.8555 66.3945 11.7773C66.2305 11.6992 66.0586 11.5977 65.8789 11.4727L66.4766 10.5234ZM68.3867 8.16797C68.6211 8.24609 68.8594 8.33203 69.1016 8.42578C69.3438 8.51953 69.5625 8.63672 69.7578 8.77734C69.9609 8.91797 70.125 9.09375 70.25 9.30469C70.3828 9.50781 70.4492 9.76562 70.4492 10.0781C70.4492 10.3828 70.3945 10.6484 70.2852 10.875C70.1758 11.1016 70.0273 11.2969 69.8398 11.4609C69.6602 11.625 69.4453 11.7539 69.1953 11.8477C68.9453 11.9414 68.6758 12.0039 68.3867 12.0352V10.9219C68.6523 10.875 68.8555 10.793 68.9961 10.6758C69.1445 10.5508 69.2188 10.3867 69.2188 10.1836C69.2188 9.98047 69.1367 9.82422 68.9727 9.71484C68.8164 9.59766 68.6211 9.49609 68.3867 9.41016V8.16797ZM73.707 12H72.2773V5.39062H73.707V12ZM73.8359 3.28125C73.8359 3.51562 73.7539 3.71484 73.5898 3.87891C73.4258 4.03516 73.2266 4.11328 72.9922 4.11328C72.7578 4.11328 72.5586 4.03125 72.3945 3.86719C72.2383 3.70312 72.1602 3.50781 72.1602 3.28125C72.1602 3.04688 72.2422 2.84766 72.4062 2.68359C72.5703 2.51953 72.7656 2.4375 72.9922 2.4375C73.2266 2.4375 73.4258 2.51953 73.5898 2.68359C73.7539 2.84766 73.8359 3.04688 73.8359 3.28125ZM76.9648 5.39062L77.1172 6.05859V12H75.6992V5.39062H76.9648ZM80.6211 6.11719C80.7539 6.25 80.8555 6.40625 80.9258 6.58594C81.0039 6.75781 81.0586 6.94141 81.0898 7.13672C81.1289 7.32422 81.1523 7.51562 81.1602 7.71094C81.168 7.90625 81.1719 8.09766 81.1719 8.28516V11.7656V12H79.7422V8.40234C79.7422 8.13672 79.7305 7.88281 79.707 7.64062C79.6836 7.39844 79.6289 7.18359 79.543 6.99609C79.457 6.80859 79.3398 6.66406 79.1914 6.5625C79.043 6.45312 78.8359 6.39844 78.5703 6.39844C78.4609 6.39844 78.3125 6.41797 78.125 6.45703C77.9453 6.48828 77.7695 6.54297 77.5977 6.62109V5.71875C77.8086 5.60938 78.0352 5.51562 78.2773 5.4375C78.5273 5.35938 78.7695 5.32031 79.0039 5.32031C79.3555 5.32031 79.6523 5.39453 79.8945 5.54297C80.1367 5.68359 80.3789 5.875 80.6211 6.11719ZM88.884 12.12C88.228 12.12 87.684 11.936 87.252 11.568C86.828 11.192 86.512 10.66 86.304 9.972C86.096 9.276 85.992 8.444 85.992 7.476C85.992 6.5 86.088 5.664 86.28 4.968C86.472 4.272 86.78 3.74 87.204 3.372C87.636 3.004 88.196 2.82 88.884 2.82C89.548 2.82 90.096 3.004 90.528 3.372C90.96 3.732 91.28 4.26 91.488 4.956C91.704 5.652 91.812 6.492 91.812 7.476C91.812 8.444 91.712 9.276 91.512 9.972C91.32 10.66 91.008 11.192 90.576 11.568C90.152 11.936 89.588 12.12 88.884 12.12ZM88.884 11.244C89.3 11.244 89.64 11.124 89.904 10.884C90.176 10.644 90.38 10.268 90.516 9.756C90.652 9.244 90.728 8.576 90.744 7.752H87.06C87.076 8.568 87.144 9.232 87.264 9.744C87.392 10.256 87.588 10.636 87.852 10.884C88.116 11.124 88.46 11.244 88.884 11.244ZM87.06 6.936H90.732C90.708 6.208 90.628 5.608 90.492 5.136C90.356 4.656 90.156 4.3 89.892 4.068C89.628 3.828 89.292 3.708 88.884 3.708C88.476 3.708 88.14 3.828 87.876 4.068C87.62 4.3 87.428 4.656 87.3 5.136C87.172 5.608 87.092 6.208 87.06 6.936Z" fill="#FB5A5A"/>
<path d="M68.4023 28.1016C68.2852 27.9609 68.1211 27.832 67.9102 27.7148C67.707 27.5898 67.4336 27.5156 67.0898 27.4922V26.3672C67.5195 26.3906 67.8867 26.4844 68.1914 26.6484C68.5039 26.8047 68.7852 27.0352 69.0352 27.3398L68.4023 28.1016ZM67.0898 31.8867C67.3711 31.8555 67.6094 31.7891 67.8047 31.6875C68.0078 31.5781 68.1992 31.4531 68.3789 31.3125L68.9062 32.0742C68.6641 32.3789 68.4023 32.6133 68.1211 32.7773C67.8398 32.9336 67.4961 33.0234 67.0898 33.0469V31.8867ZM63.8203 29.6953C63.8203 29.25 63.8828 28.832 64.0078 28.4414C64.1406 28.0508 64.332 27.707 64.582 27.4102C64.832 27.1133 65.125 26.875 65.4609 26.6953C65.8047 26.5078 66.1875 26.3984 66.6094 26.3672V27.5039C66.2188 27.5898 65.9062 27.832 65.6719 28.2305C65.4375 28.6211 65.3203 29.0977 65.3203 29.6602C65.3203 29.9492 65.3477 30.2227 65.4023 30.4805C65.4648 30.7305 65.5508 30.9531 65.6602 31.1484C65.7695 31.3438 65.9023 31.5078 66.0586 31.6406C66.2227 31.7734 66.4062 31.8555 66.6094 31.8867V33.0469C66.1797 33.0234 65.793 32.9219 65.4492 32.7422C65.1055 32.5547 64.8125 32.3125 64.5703 32.0156C64.3281 31.7109 64.1406 31.3594 64.0078 30.9609C63.8828 30.5625 63.8203 30.1406 63.8203 29.6953ZM73.9688 26.3555C74.3984 26.3789 74.7891 26.4844 75.1406 26.6719C75.4922 26.8516 75.7852 27.0938 76.0195 27.3984C76.2617 27.6953 76.4492 28.043 76.582 28.4414C76.7148 28.8398 76.7812 29.2656 76.7812 29.7188C76.7812 30.1719 76.7109 30.5977 76.5703 30.9961C76.4375 31.3867 76.25 31.7305 76.0078 32.0273C75.7656 32.3164 75.4688 32.5508 75.1172 32.7305C74.7656 32.9102 74.3828 33.0156 73.9688 33.0469V31.9219C74.3594 31.8359 74.6758 31.5898 74.918 31.1836C75.168 30.7773 75.293 30.2891 75.293 29.7188C75.293 29.4297 75.2617 29.1602 75.1992 28.9102C75.1445 28.6523 75.0586 28.4219 74.9414 28.2188C74.8242 28.0156 74.6836 27.8477 74.5195 27.7148C74.3555 27.582 74.1719 27.4961 73.9688 27.457V26.3555ZM70.6992 29.6953C70.6992 29.2422 70.7656 28.8203 70.8984 28.4297C71.0312 28.0391 71.2188 27.6992 71.4609 27.4102C71.7109 27.1133 72.0078 26.875 72.3516 26.6953C72.6953 26.5156 73.0742 26.4062 73.4883 26.3672V27.457C73.0977 27.543 72.7852 27.7891 72.5508 28.1953C72.3164 28.6016 72.1992 29.0898 72.1992 29.6602C72.1992 29.9492 72.2266 30.2227 72.2812 30.4805C72.3438 30.7383 72.4297 30.9688 72.5391 31.1719C72.6484 31.375 72.7812 31.543 72.9375 31.6758C73.1016 31.8086 73.2852 31.8906 73.4883 31.9219V33.0469C73.0586 33.0156 72.6719 32.9102 72.3281 32.7305C71.9844 32.543 71.6914 32.3008 71.4492 32.0039C71.207 31.707 71.0195 31.3594 70.8867 30.9609C70.7617 30.5625 70.6992 30.1406 70.6992 29.6953ZM78.4688 28.2773C78.4688 27.9805 78.5234 27.7148 78.6328 27.4805C78.7422 27.2383 78.8945 27.0352 79.0898 26.8711C79.2852 26.6992 79.5039 26.5664 79.7461 26.4727C79.9961 26.3711 80.2539 26.3086 80.5195 26.2852V27.457C80.3164 27.4961 80.1562 27.5781 80.0391 27.7031C79.9297 27.8281 79.875 28.0039 79.875 28.2305C79.875 28.418 79.9336 28.5703 80.0508 28.6875C80.1758 28.7969 80.332 28.8945 80.5195 28.9805V30.2344C80.3867 30.1953 80.25 30.1523 80.1094 30.1055C79.9766 30.0508 79.8438 29.9922 79.7109 29.9297C79.2969 29.7109 78.9844 29.4805 78.7734 29.2383C78.5703 28.9961 78.4688 28.6758 78.4688 28.2773ZM82.3828 27.7852C82.1719 27.6758 81.9453 27.5938 81.7031 27.5391C81.4688 27.4844 81.2344 27.4492 81 27.4336V26.2734C81.3516 26.2891 81.6758 26.3398 81.9727 26.4258C82.2695 26.5039 82.5586 26.6328 82.8398 26.8125L82.3828 27.7852ZM79.0898 31.5234C79.2461 31.6328 79.4297 31.7344 79.6406 31.8281C79.8594 31.9219 80.1328 31.9688 80.4609 31.9688H80.5195V33.0586C80.3242 33.0586 80.1445 33.0508 79.9805 33.0352C79.8164 33.0273 79.6523 33.0039 79.4883 32.9648C79.332 32.918 79.1719 32.8555 79.0078 32.7773C78.8438 32.6992 78.6719 32.5977 78.4922 32.4727L79.0898 31.5234ZM81 29.168C81.2344 29.2461 81.4727 29.332 81.7148 29.4258C81.957 29.5195 82.1758 29.6367 82.3711 29.7773C82.5742 29.918 82.7383 30.0938 82.8633 30.3047C82.9961 30.5078 83.0625 30.7656 83.0625 31.0781C83.0625 31.3828 83.0078 31.6484 82.8984 31.875C82.7891 32.1016 82.6406 32.2969 82.4531 32.4609C82.2734 32.625 82.0586 32.7539 81.8086 32.8477C81.5586 32.9414 81.2891 33.0039 81 33.0352V31.9219C81.2656 31.875 81.4688 31.793 81.6094 31.6758C81.7578 31.5508 81.832 31.3867 81.832 31.1836C81.832 30.9805 81.75 30.8242 81.5859 30.7148C81.4297 30.5977 81.2344 30.4961 81 30.4102V29.168ZM90.6575 33.12C90.0015 33.12 89.4575 32.936 89.0255 32.568C88.6015 32.192 88.2855 31.66 88.0775 30.972C87.8695 30.276 87.7655 29.444 87.7655 28.476C87.7655 27.5 87.8615 26.664 88.0535 25.968C88.2455 25.272 88.5535 24.74 88.9775 24.372C89.4095 24.004 89.9695 23.82 90.6575 23.82C91.3215 23.82 91.8695 24.004 92.3015 24.372C92.7335 24.732 93.0535 25.26 93.2615 25.956C93.4775 26.652 93.5855 27.492 93.5855 28.476C93.5855 29.444 93.4855 30.276 93.2855 30.972C93.0935 31.66 92.7815 32.192 92.3495 32.568C91.9255 32.936 91.3615 33.12 90.6575 33.12ZM90.6575 32.244C91.0735 32.244 91.4135 32.124 91.6775 31.884C91.9495 31.644 92.1535 31.268 92.2895 30.756C92.4255 30.244 92.5015 29.576 92.5175 28.752H88.8335C88.8495 29.568 88.9175 30.232 89.0375 30.744C89.1655 31.256 89.3615 31.636 89.6255 31.884C89.8895 32.124 90.2335 32.244 90.6575 32.244ZM88.8335 27.936H92.5055C92.4815 27.208 92.4015 26.608 92.2655 26.136C92.1295 25.656 91.9295 25.3 91.6655 25.068C91.4015 24.828 91.0655 24.708 90.6575 24.708C90.2495 24.708 89.9135 24.828 89.6495 25.068C89.3935 25.3 89.2015 25.656 89.0735 26.136C88.9455 26.608 88.8655 27.208 88.8335 27.936Z" fill="#0BB326"/>
<line x1="63" y1="18.5" x2="92" y2="18.5" stroke="black"/>
<path d="M129.383 6.39062C128.953 7.53906 128.57 8.55859 128.234 9.44922C127.898 10.332 127.605 11.1094 127.355 11.7812C127.105 12.4453 126.883 13.0078 126.688 13.4688C126.5 13.9297 126.324 14.3125 126.16 14.6172C126.004 14.9297 125.855 15.1719 125.715 15.3438C125.574 15.5234 125.43 15.6602 125.281 15.7539C125.133 15.8477 124.969 15.9023 124.789 15.918C124.617 15.9414 124.418 15.9531 124.191 15.9531C124.121 15.9531 124.039 15.9414 123.945 15.918C123.852 15.9023 123.758 15.8789 123.664 15.8477C123.578 15.8242 123.5 15.7969 123.43 15.7656C123.359 15.7422 123.312 15.7266 123.289 15.7188C123.32 15.5781 123.352 15.4453 123.383 15.3203C123.406 15.2109 123.43 15.1055 123.453 15.0039C123.484 14.9102 123.508 14.8438 123.523 14.8047C123.586 14.8047 123.68 14.8242 123.805 14.8633C123.938 14.9023 124.035 14.9219 124.098 14.9219C124.223 14.9219 124.332 14.9141 124.426 14.8984C124.527 14.8906 124.617 14.8555 124.695 14.793C124.773 14.7383 124.848 14.6523 124.918 14.5352C124.988 14.4258 125.066 14.2656 125.152 14.0547L125.598 13L127.953 6.39062H129.383ZM125.352 12.3789L122.891 6.39062H124.309L125.996 10.832L125.832 11.2305L125.352 12.3789ZM133.988 6.35547C134.418 6.37891 134.809 6.48438 135.16 6.67188C135.512 6.85156 135.805 7.09375 136.039 7.39844C136.281 7.69531 136.469 8.04297 136.602 8.44141C136.734 8.83984 136.801 9.26562 136.801 9.71875C136.801 10.1719 136.73 10.5977 136.59 10.9961C136.457 11.3867 136.27 11.7305 136.027 12.0273C135.785 12.3164 135.488 12.5508 135.137 12.7305C134.785 12.9102 134.402 13.0156 133.988 13.0469V11.9219C134.379 11.8359 134.695 11.5898 134.938 11.1836C135.188 10.7773 135.312 10.2891 135.312 9.71875C135.312 9.42969 135.281 9.16016 135.219 8.91016C135.164 8.65234 135.078 8.42188 134.961 8.21875C134.844 8.01562 134.703 7.84766 134.539 7.71484C134.375 7.58203 134.191 7.49609 133.988 7.45703V6.35547ZM130.719 9.69531C130.719 9.24219 130.785 8.82031 130.918 8.42969C131.051 8.03906 131.238 7.69922 131.48 7.41016C131.73 7.11328 132.027 6.875 132.371 6.69531C132.715 6.51562 133.094 6.40625 133.508 6.36719V7.45703C133.117 7.54297 132.805 7.78906 132.57 8.19531C132.336 8.60156 132.219 9.08984 132.219 9.66016C132.219 9.94922 132.246 10.2227 132.301 10.4805C132.363 10.7383 132.449 10.9688 132.559 11.1719C132.668 11.375 132.801 11.543 132.957 11.6758C133.121 11.8086 133.305 11.8906 133.508 11.9219V13.0469C133.078 13.0156 132.691 12.9102 132.348 12.7305C132.004 12.543 131.711 12.3008 131.469 12.0039C131.227 11.707 131.039 11.3594 130.906 10.9609C130.781 10.5625 130.719 10.1406 130.719 9.69531ZM140.023 9.98828C140.023 10.2617 140.035 10.5195 140.059 10.7617C140.082 10.9961 140.133 11.2031 140.211 11.3828C140.289 11.5625 140.406 11.707 140.562 11.8164C140.719 11.9258 140.926 11.9805 141.184 11.9805C141.285 11.9805 141.43 11.9648 141.617 11.9336C141.805 11.9023 141.984 11.8516 142.156 11.7812V12.6484C141.953 12.7578 141.73 12.8555 141.488 12.9414C141.254 13.0195 141.02 13.0586 140.785 13.0586C140.598 13.0586 140.43 13.0391 140.281 13C140.133 12.9688 139.992 12.918 139.859 12.8477C139.734 12.7695 139.613 12.6836 139.496 12.5898C139.379 12.4961 139.262 12.3906 139.145 12.2734C139.012 12.1406 138.906 11.9883 138.828 11.8164C138.75 11.6367 138.691 11.4531 138.652 11.2656C138.621 11.0703 138.602 10.875 138.594 10.6797C138.594 10.4844 138.594 10.293 138.594 10.1055V6.39062H140.023V9.98828ZM144.066 6.39062V13H142.789L142.637 12.3203V6.39062H144.066ZM147.324 6.39062L147.477 7.07031V10.6562V10.6797V13H146.059V6.39062H147.324ZM147.957 6.68359C148.152 6.57422 148.387 6.49219 148.66 6.4375C148.934 6.375 149.305 6.34375 149.773 6.34375V7.82031C149.555 7.75781 149.289 7.72266 148.977 7.71484C148.805 7.71484 148.629 7.73047 148.449 7.76172C148.277 7.78516 148.113 7.82422 147.957 7.87891V6.68359ZM154.18 6.39062H155.785L157.18 11.0898V13.0469H156.5L154.18 6.39062ZM159.066 6.39062H160.66L158.34 13.0469H157.66V11.0898L159.066 6.39062ZM163.777 13H162.348V6.39062H163.777V13ZM163.906 4.28125C163.906 4.51562 163.824 4.71484 163.66 4.87891C163.496 5.03516 163.297 5.11328 163.062 5.11328C162.828 5.11328 162.629 5.03125 162.465 4.86719C162.309 4.70312 162.23 4.50781 162.23 4.28125C162.23 4.04688 162.312 3.84766 162.477 3.68359C162.641 3.51953 162.836 3.4375 163.062 3.4375C163.297 3.4375 163.496 3.51953 163.66 3.68359C163.824 3.84766 163.906 4.04688 163.906 4.28125ZM165.617 8.27734C165.617 7.98047 165.672 7.71484 165.781 7.48047C165.891 7.23828 166.043 7.03516 166.238 6.87109C166.434 6.69922 166.652 6.56641 166.895 6.47266C167.145 6.37109 167.402 6.30859 167.668 6.28516V7.45703C167.465 7.49609 167.305 7.57812 167.188 7.70312C167.078 7.82812 167.023 8.00391 167.023 8.23047C167.023 8.41797 167.082 8.57031 167.199 8.6875C167.324 8.79688 167.48 8.89453 167.668 8.98047V10.2344C167.535 10.1953 167.398 10.1523 167.258 10.1055C167.125 10.0508 166.992 9.99219 166.859 9.92969C166.445 9.71094 166.133 9.48047 165.922 9.23828C165.719 8.99609 165.617 8.67578 165.617 8.27734ZM169.531 7.78516C169.32 7.67578 169.094 7.59375 168.852 7.53906C168.617 7.48438 168.383 7.44922 168.148 7.43359V6.27344C168.5 6.28906 168.824 6.33984 169.121 6.42578C169.418 6.50391 169.707 6.63281 169.988 6.8125L169.531 7.78516ZM166.238 11.5234C166.395 11.6328 166.578 11.7344 166.789 11.8281C167.008 11.9219 167.281 11.9688 167.609 11.9688H167.668V13.0586C167.473 13.0586 167.293 13.0508 167.129 13.0352C166.965 13.0273 166.801 13.0039 166.637 12.9648C166.48 12.918 166.32 12.8555 166.156 12.7773C165.992 12.6992 165.82 12.5977 165.641 12.4727L166.238 11.5234ZM168.148 9.16797C168.383 9.24609 168.621 9.33203 168.863 9.42578C169.105 9.51953 169.324 9.63672 169.52 9.77734C169.723 9.91797 169.887 10.0938 170.012 10.3047C170.145 10.5078 170.211 10.7656 170.211 11.0781C170.211 11.3828 170.156 11.6484 170.047 11.875C169.938 12.1016 169.789 12.2969 169.602 12.4609C169.422 12.625 169.207 12.7539 168.957 12.8477C168.707 12.9414 168.438 13.0039 168.148 13.0352V11.9219C168.414 11.875 168.617 11.793 168.758 11.6758C168.906 11.5508 168.98 11.3867 168.98 11.1836C168.98 10.9805 168.898 10.8242 168.734 10.7148C168.578 10.5977 168.383 10.4961 168.148 10.4102V9.16797ZM173.469 13H172.039V6.39062H173.469V13ZM173.598 4.28125C173.598 4.51562 173.516 4.71484 173.352 4.87891C173.188 5.03516 172.988 5.11328 172.754 5.11328C172.52 5.11328 172.32 5.03125 172.156 4.86719C172 4.70312 171.922 4.50781 171.922 4.28125C171.922 4.04688 172.004 3.84766 172.168 3.68359C172.332 3.51953 172.527 3.4375 172.754 3.4375C172.988 3.4375 173.188 3.51953 173.352 3.68359C173.516 3.84766 173.598 4.04688 173.598 4.28125ZM178.566 6.35547C178.996 6.37891 179.387 6.48438 179.738 6.67188C180.09 6.85156 180.383 7.09375 180.617 7.39844C180.859 7.69531 181.047 8.04297 181.18 8.44141C181.312 8.83984 181.379 9.26562 181.379 9.71875C181.379 10.1719 181.309 10.5977 181.168 10.9961C181.035 11.3867 180.848 11.7305 180.605 12.0273C180.363 12.3164 180.066 12.5508 179.715 12.7305C179.363 12.9102 178.98 13.0156 178.566 13.0469V11.9219C178.957 11.8359 179.273 11.5898 179.516 11.1836C179.766 10.7773 179.891 10.2891 179.891 9.71875C179.891 9.42969 179.859 9.16016 179.797 8.91016C179.742 8.65234 179.656 8.42188 179.539 8.21875C179.422 8.01562 179.281 7.84766 179.117 7.71484C178.953 7.58203 178.77 7.49609 178.566 7.45703V6.35547ZM175.297 9.69531C175.297 9.24219 175.363 8.82031 175.496 8.42969C175.629 8.03906 175.816 7.69922 176.059 7.41016C176.309 7.11328 176.605 6.875 176.949 6.69531C177.293 6.51562 177.672 6.40625 178.086 6.36719V7.45703C177.695 7.54297 177.383 7.78906 177.148 8.19531C176.914 8.60156 176.797 9.08984 176.797 9.66016C176.797 9.94922 176.824 10.2227 176.879 10.4805C176.941 10.7383 177.027 10.9688 177.137 11.1719C177.246 11.375 177.379 11.543 177.535 11.6758C177.699 11.8086 177.883 11.8906 178.086 11.9219V13.0469C177.656 13.0156 177.27 12.9102 176.926 12.7305C176.582 12.543 176.289 12.3008 176.047 12.0039C175.805 11.707 175.617 11.3594 175.484 10.9609C175.359 10.5625 175.297 10.1406 175.297 9.69531ZM184.484 6.39062L184.637 7.05859V13H183.219V6.39062H184.484ZM188.141 7.11719C188.273 7.25 188.375 7.40625 188.445 7.58594C188.523 7.75781 188.578 7.94141 188.609 8.13672C188.648 8.32422 188.672 8.51562 188.68 8.71094C188.688 8.90625 188.691 9.09766 188.691 9.28516V12.7656V13H187.262V9.40234C187.262 9.13672 187.25 8.88281 187.227 8.64062C187.203 8.39844 187.148 8.18359 187.062 7.99609C186.977 7.80859 186.859 7.66406 186.711 7.5625C186.562 7.45312 186.355 7.39844 186.09 7.39844C185.98 7.39844 185.832 7.41797 185.645 7.45703C185.465 7.48828 185.289 7.54297 185.117 7.62109V6.71875C185.328 6.60938 185.555 6.51562 185.797 6.4375C186.047 6.35938 186.289 6.32031 186.523 6.32031C186.875 6.32031 187.172 6.39453 187.414 6.54297C187.656 6.68359 187.898 6.875 188.141 7.11719Z" fill="#FB5A5A"/>
<path d="M126.113 27.3555C126.543 27.3789 126.934 27.4844 127.285 27.6719C127.637 27.8516 127.93 28.0938 128.164 28.3984C128.406 28.6953 128.594 29.043 128.727 29.4414C128.859 29.8398 128.926 30.2656 128.926 30.7188C128.926 31.1719 128.855 31.5977 128.715 31.9961C128.582 32.3867 128.395 32.7305 128.152 33.0273C127.91 33.3164 127.613 33.5508 127.262 33.7305C126.91 33.9102 126.527 34.0156 126.113 34.0469V32.9219C126.504 32.8359 126.82 32.5898 127.062 32.1836C127.312 31.7773 127.438 31.2891 127.438 30.7188C127.438 30.4297 127.406 30.1602 127.344 29.9102C127.289 29.6523 127.203 29.4219 127.086 29.2188C126.969 29.0156 126.828 28.8477 126.664 28.7148C126.5 28.582 126.316 28.4961 126.113 28.457V27.3555ZM122.844 30.6953C122.844 30.2422 122.91 29.8203 123.043 29.4297C123.176 29.0391 123.363 28.6992 123.605 28.4102C123.855 28.1133 124.152 27.875 124.496 27.6953C124.84 27.5156 125.219 27.4062 125.633 27.3672V28.457C125.242 28.543 124.93 28.7891 124.695 29.1953C124.461 29.6016 124.344 30.0898 124.344 30.6602C124.344 30.9492 124.371 31.2227 124.426 31.4805C124.488 31.7383 124.574 31.9688 124.684 32.1719C124.793 32.375 124.926 32.543 125.082 32.6758C125.246 32.8086 125.43 32.8906 125.633 32.9219V34.0469C125.203 34.0156 124.816 33.9102 124.473 33.7305C124.129 33.543 123.836 33.3008 123.594 33.0039C123.352 32.707 123.164 32.3594 123.031 31.9609C122.906 31.5625 122.844 31.1406 122.844 30.6953ZM132.148 30.9883C132.148 31.2617 132.16 31.5195 132.184 31.7617C132.207 31.9961 132.258 32.2031 132.336 32.3828C132.414 32.5625 132.531 32.707 132.688 32.8164C132.844 32.9258 133.051 32.9805 133.309 32.9805C133.41 32.9805 133.555 32.9648 133.742 32.9336C133.93 32.9023 134.109 32.8516 134.281 32.7812V33.6484C134.078 33.7578 133.855 33.8555 133.613 33.9414C133.379 34.0195 133.145 34.0586 132.91 34.0586C132.723 34.0586 132.555 34.0391 132.406 34C132.258 33.9688 132.117 33.918 131.984 33.8477C131.859 33.7695 131.738 33.6836 131.621 33.5898C131.504 33.4961 131.387 33.3906 131.27 33.2734C131.137 33.1406 131.031 32.9883 130.953 32.8164C130.875 32.6367 130.816 32.4531 130.777 32.2656C130.746 32.0703 130.727 31.875 130.719 31.6797C130.719 31.4844 130.719 31.293 130.719 31.1055V27.3906H132.148V30.9883ZM136.191 27.3906V34H134.914L134.762 33.3203V27.3906H136.191ZM139.449 27.3906L139.602 28.0703V31.6562V31.6797V34H138.184V27.3906H139.449ZM140.082 27.6836C140.277 27.5742 140.512 27.4922 140.785 27.4375C141.059 27.375 141.43 27.3438 141.898 27.3438V28.8203C141.68 28.7578 141.414 28.7227 141.102 28.7148C140.93 28.7148 140.754 28.7305 140.574 28.7617C140.402 28.7852 140.238 28.8242 140.082 28.8789V27.6836ZM146.469 29.2773C146.469 28.9805 146.523 28.7148 146.633 28.4805C146.742 28.2383 146.895 28.0352 147.09 27.8711C147.285 27.6992 147.504 27.5664 147.746 27.4727C147.996 27.3711 148.254 27.3086 148.52 27.2852V28.457C148.316 28.4961 148.156 28.5781 148.039 28.7031C147.93 28.8281 147.875 29.0039 147.875 29.2305C147.875 29.418 147.934 29.5703 148.051 29.6875C148.176 29.7969 148.332 29.8945 148.52 29.9805V31.2344C148.387 31.1953 148.25 31.1523 148.109 31.1055C147.977 31.0508 147.844 30.9922 147.711 30.9297C147.297 30.7109 146.984 30.4805 146.773 30.2383C146.57 29.9961 146.469 29.6758 146.469 29.2773ZM150.383 28.7852C150.172 28.6758 149.945 28.5938 149.703 28.5391C149.469 28.4844 149.234 28.4492 149 28.4336V27.2734C149.352 27.2891 149.676 27.3398 149.973 27.4258C150.27 27.5039 150.559 27.6328 150.84 27.8125L150.383 28.7852ZM147.09 32.5234C147.246 32.6328 147.43 32.7344 147.641 32.8281C147.859 32.9219 148.133 32.9688 148.461 32.9688H148.52V34.0586C148.324 34.0586 148.145 34.0508 147.98 34.0352C147.816 34.0273 147.652 34.0039 147.488 33.9648C147.332 33.918 147.172 33.8555 147.008 33.7773C146.844 33.6992 146.672 33.5977 146.492 33.4727L147.09 32.5234ZM149 30.168C149.234 30.2461 149.473 30.332 149.715 30.4258C149.957 30.5195 150.176 30.6367 150.371 30.7773C150.574 30.918 150.738 31.0938 150.863 31.3047C150.996 31.5078 151.062 31.7656 151.062 32.0781C151.062 32.3828 151.008 32.6484 150.898 32.875C150.789 33.1016 150.641 33.2969 150.453 33.4609C150.273 33.625 150.059 33.7539 149.809 33.8477C149.559 33.9414 149.289 34.0039 149 34.0352V32.9219C149.266 32.875 149.469 32.793 149.609 32.6758C149.758 32.5508 149.832 32.3867 149.832 32.1836C149.832 31.9805 149.75 31.8242 149.586 31.7148C149.43 31.5977 149.234 31.4961 149 31.4102V30.168ZM155.973 27.332C156.395 27.3711 156.773 27.4844 157.109 27.6719C157.453 27.8594 157.746 28.1016 157.988 28.3984C158.23 28.6953 158.414 29.0352 158.539 29.418C158.672 29.8008 158.738 30.1992 158.738 30.6133C158.738 30.8008 158.727 30.9883 158.703 31.1758H154.684V30.1445H157.391C157.391 29.9414 157.355 29.7461 157.285 29.5586C157.223 29.3711 157.125 29.1992 156.992 29.043C156.867 28.8789 156.719 28.7422 156.547 28.6328C156.375 28.5234 156.184 28.457 155.973 28.4336V27.332ZM155.926 32.8984C156.012 32.8984 156.117 32.8906 156.242 32.875C156.375 32.8516 156.512 32.8164 156.652 32.7695C156.801 32.7148 156.945 32.6484 157.086 32.5703C157.234 32.4922 157.363 32.3984 157.473 32.2891L157.988 33.0742C157.73 33.3945 157.43 33.6367 157.086 33.8008C156.742 33.9648 156.305 34.0469 155.773 34.0469C155.344 34.0469 154.941 33.9609 154.566 33.7891C154.191 33.6094 153.871 33.3672 153.605 33.0625C153.34 32.7578 153.129 32.4023 152.973 31.9961C152.816 31.5898 152.738 31.1523 152.738 30.6836C152.738 30.2383 152.809 29.8164 152.949 29.418C153.098 29.0195 153.297 28.6719 153.547 28.375C153.797 28.0703 154.086 27.8242 154.414 27.6367C154.75 27.4492 155.109 27.3438 155.492 27.3203V28.4453C155.203 28.5 154.965 28.6172 154.777 28.7969C154.59 28.9766 154.441 29.1836 154.332 29.418C154.23 29.6445 154.156 29.8789 154.109 30.1211C154.07 30.3633 154.051 30.5703 154.051 30.7422C154.051 31.0469 154.086 31.332 154.156 31.5977C154.234 31.8555 154.352 32.082 154.508 32.2773C154.664 32.4648 154.855 32.6172 155.082 32.7344C155.316 32.8438 155.598 32.8984 155.926 32.8984ZM161.949 27.3906L162.102 28.0703V31.6562V31.6797V34H160.684V27.3906H161.949ZM162.582 27.6836C162.777 27.5742 163.012 27.4922 163.285 27.4375C163.559 27.375 163.93 27.3438 164.398 27.3438V28.8203C164.18 28.7578 163.914 28.7227 163.602 28.7148C163.43 28.7148 163.254 28.7305 163.074 28.7617C162.902 28.7852 162.738 28.8242 162.582 28.8789V27.6836ZM165.594 27.3906H167.199L168.594 32.0898V34.0469H167.914L165.594 27.3906ZM170.48 27.3906H172.074L169.754 34.0469H169.074V32.0898L170.48 27.3906ZM175.191 34H173.762V27.3906H175.191V34ZM175.32 25.2812C175.32 25.5156 175.238 25.7148 175.074 25.8789C174.91 26.0352 174.711 26.1133 174.477 26.1133C174.242 26.1133 174.043 26.0312 173.879 25.8672C173.723 25.7031 173.645 25.5078 173.645 25.2812C173.645 25.0469 173.727 24.8477 173.891 24.6836C174.055 24.5195 174.25 24.4375 174.477 24.4375C174.711 24.4375 174.91 24.5195 175.074 24.6836C175.238 24.8477 175.32 25.0469 175.32 25.2812ZM181.578 29.1016C181.461 28.9609 181.297 28.832 181.086 28.7148C180.883 28.5898 180.609 28.5156 180.266 28.4922V27.3672C180.695 27.3906 181.062 27.4844 181.367 27.6484C181.68 27.8047 181.961 28.0352 182.211 28.3398L181.578 29.1016ZM180.266 32.8867C180.547 32.8555 180.785 32.7891 180.98 32.6875C181.184 32.5781 181.375 32.4531 181.555 32.3125L182.082 33.0742C181.84 33.3789 181.578 33.6133 181.297 33.7773C181.016 33.9336 180.672 34.0234 180.266 34.0469V32.8867ZM176.996 30.6953C176.996 30.25 177.059 29.832 177.184 29.4414C177.316 29.0508 177.508 28.707 177.758 28.4102C178.008 28.1133 178.301 27.875 178.637 27.6953C178.98 27.5078 179.363 27.3984 179.785 27.3672V28.5039C179.395 28.5898 179.082 28.832 178.848 29.2305C178.613 29.6211 178.496 30.0977 178.496 30.6602C178.496 30.9492 178.523 31.2227 178.578 31.4805C178.641 31.7305 178.727 31.9531 178.836 32.1484C178.945 32.3438 179.078 32.5078 179.234 32.6406C179.398 32.7734 179.582 32.8555 179.785 32.8867V34.0469C179.355 34.0234 178.969 33.9219 178.625 33.7422C178.281 33.5547 177.988 33.3125 177.746 33.0156C177.504 32.7109 177.316 32.3594 177.184 31.9609C177.059 31.5625 176.996 31.1406 176.996 30.6953ZM187.109 27.332C187.531 27.3711 187.91 27.4844 188.246 27.6719C188.59 27.8594 188.883 28.1016 189.125 28.3984C189.367 28.6953 189.551 29.0352 189.676 29.418C189.809 29.8008 189.875 30.1992 189.875 30.6133C189.875 30.8008 189.863 30.9883 189.84 31.1758H185.82V30.1445H188.527C188.527 29.9414 188.492 29.7461 188.422 29.5586C188.359 29.3711 188.262 29.1992 188.129 29.043C188.004 28.8789 187.855 28.7422 187.684 28.6328C187.512 28.5234 187.32 28.457 187.109 28.4336V27.332ZM187.062 32.8984C187.148 32.8984 187.254 32.8906 187.379 32.875C187.512 32.8516 187.648 32.8164 187.789 32.7695C187.938 32.7148 188.082 32.6484 188.223 32.5703C188.371 32.4922 188.5 32.3984 188.609 32.2891L189.125 33.0742C188.867 33.3945 188.566 33.6367 188.223 33.8008C187.879 33.9648 187.441 34.0469 186.91 34.0469C186.48 34.0469 186.078 33.9609 185.703 33.7891C185.328 33.6094 185.008 33.3672 184.742 33.0625C184.477 32.7578 184.266 32.4023 184.109 31.9961C183.953 31.5898 183.875 31.1523 183.875 30.6836C183.875 30.2383 183.945 29.8164 184.086 29.418C184.234 29.0195 184.434 28.6719 184.684 28.375C184.934 28.0703 185.223 27.8242 185.551 27.6367C185.887 27.4492 186.246 27.3438 186.629 27.3203V28.4453C186.34 28.5 186.102 28.6172 185.914 28.7969C185.727 28.9766 185.578 29.1836 185.469 29.418C185.367 29.6445 185.293 29.8789 185.246 30.1211C185.207 30.3633 185.188 30.5703 185.188 30.7422C185.188 31.0469 185.223 31.332 185.293 31.5977C185.371 31.8555 185.488 32.082 185.645 32.2773C185.801 32.4648 185.992 32.6172 186.219 32.7344C186.453 32.8438 186.734 32.8984 187.062 32.8984ZM191.668 29.2773C191.668 28.9805 191.723 28.7148 191.832 28.4805C191.941 28.2383 192.094 28.0352 192.289 27.8711C192.484 27.6992 192.703 27.5664 192.945 27.4727C193.195 27.3711 193.453 27.3086 193.719 27.2852V28.457C193.516 28.4961 193.355 28.5781 193.238 28.7031C193.129 28.8281 193.074 29.0039 193.074 29.2305C193.074 29.418 193.133 29.5703 193.25 29.6875C193.375 29.7969 193.531 29.8945 193.719 29.9805V31.2344C193.586 31.1953 193.449 31.1523 193.309 31.1055C193.176 31.0508 193.043 30.9922 192.91 30.9297C192.496 30.7109 192.184 30.4805 191.973 30.2383C191.77 29.9961 191.668 29.6758 191.668 29.2773ZM195.582 28.7852C195.371 28.6758 195.145 28.5938 194.902 28.5391C194.668 28.4844 194.434 28.4492 194.199 28.4336V27.2734C194.551 27.2891 194.875 27.3398 195.172 27.4258C195.469 27.5039 195.758 27.6328 196.039 27.8125L195.582 28.7852ZM192.289 32.5234C192.445 32.6328 192.629 32.7344 192.84 32.8281C193.059 32.9219 193.332 32.9688 193.66 32.9688H193.719V34.0586C193.523 34.0586 193.344 34.0508 193.18 34.0352C193.016 34.0273 192.852 34.0039 192.688 33.9648C192.531 33.918 192.371 33.8555 192.207 33.7773C192.043 33.6992 191.871 33.5977 191.691 33.4727L192.289 32.5234ZM194.199 30.168C194.434 30.2461 194.672 30.332 194.914 30.4258C195.156 30.5195 195.375 30.6367 195.57 30.7773C195.773 30.918 195.938 31.0938 196.062 31.3047C196.195 31.5078 196.262 31.7656 196.262 32.0781C196.262 32.3828 196.207 32.6484 196.098 32.875C195.988 33.1016 195.84 33.2969 195.652 33.4609C195.473 33.625 195.258 33.7539 195.008 33.8477C194.758 33.9414 194.488 34.0039 194.199 34.0352V32.9219C194.465 32.875 194.668 32.793 194.809 32.6758C194.957 32.5508 195.031 32.3867 195.031 32.1836C195.031 31.9805 194.949 31.8242 194.785 31.7148C194.629 31.5977 194.434 31.4961 194.199 31.4102V30.168Z" fill="#09C928"/>
<line x1="122" y1="19.5" x2="195" y2="19.5" stroke="black"/>
<path d="M4.10059 23.1611C4.10059 23.5374 4.15039 23.8307 4.25 24.041C4.34961 24.2513 4.48796 24.4118 4.66504 24.5225C4.85319 24.6331 5.05794 24.7051 5.2793 24.7383C5.51172 24.7604 5.75521 24.7715 6.00977 24.7715V26C5.86589 26.0221 5.72201 26.0387 5.57812 26.0498C5.45638 26.0609 5.30697 26.0664 5.12988 26.0664C4.96387 26.0775 4.79785 26.083 4.63184 26.083C4.46582 26.083 4.29427 26.0775 4.11719 26.0664C3.95117 26.0553 3.80729 26.0387 3.68555 26.0166C3.30924 25.9502 3.01595 25.7897 2.80566 25.5352C2.59538 25.2695 2.4349 24.9818 2.32422 24.6719C2.22461 24.3509 2.1582 24.041 2.125 23.7422C2.10286 23.4434 2.0918 23.2109 2.0918 23.0449V17.998H0.863281V16.6367H2.0918V13.9805H4.10059V16.6367H5.59473V17.998H4.10059V23.1611ZM9.99414 23.1777C9.99414 23.6758 10.0938 24.0465 10.293 24.29C10.5033 24.5335 10.8021 24.6774 11.1895 24.7217V26.0664C11.1452 26.0775 11.0732 26.083 10.9736 26.083C10.5973 26.083 10.2321 26.0332 9.87793 25.9336C9.53483 25.834 9.23047 25.6735 8.96484 25.4521C8.69922 25.2308 8.48893 24.9375 8.33398 24.5723C8.1901 24.207 8.11816 23.7588 8.11816 23.2275C8.11816 22.7184 8.22331 22.2812 8.43359 21.916C8.65495 21.5397 8.93164 21.2354 9.26367 21.0029C9.60677 20.7594 9.99414 20.5824 10.4258 20.4717C10.8574 20.3499 11.2946 20.2891 11.7373 20.2891H12.4678V21.4678H12.1025C11.8812 21.4678 11.6488 21.4899 11.4053 21.5342C11.1618 21.5785 10.9349 21.6615 10.7246 21.7832C10.5143 21.9049 10.3372 22.082 10.1934 22.3145C10.0605 22.5358 9.99414 22.8236 9.99414 23.1777ZM15.1572 23.2275C15.1572 23.3161 15.1628 23.4489 15.1738 23.626C15.1849 23.792 15.207 23.9635 15.2402 24.1406C15.2734 24.3177 15.3232 24.4782 15.3896 24.6221C15.4671 24.766 15.5667 24.86 15.6885 24.9043L15.1572 26.0166C15.0133 26.0166 14.8584 25.9834 14.6924 25.917C14.5374 25.8506 14.3825 25.7565 14.2275 25.6348C14.0837 25.513 13.9564 25.3802 13.8457 25.2363C13.7461 25.0814 13.6686 24.9154 13.6133 24.7383C13.5026 25.015 13.2812 25.264 12.9492 25.4854C12.6283 25.6956 12.2686 25.8506 11.8701 25.9502V24.6885C12.1357 24.6331 12.3737 24.528 12.584 24.373C12.8053 24.207 12.9935 24.0133 13.1484 23.792V20.2891C13.1484 19.7467 13.1208 19.3151 13.0654 18.9941C13.0101 18.6732 12.916 18.4408 12.7832 18.2969C12.6504 18.1419 12.4844 18.0479 12.2852 18.0146C12.097 17.9704 11.8701 17.9482 11.6045 17.9482C11.361 17.9482 11.1286 17.9814 10.9072 18.0479C10.6969 18.1032 10.4977 18.1751 10.3096 18.2637C10.1325 18.3411 9.97201 18.4297 9.82812 18.5293C9.69531 18.6289 9.5957 18.7064 9.5293 18.7617L8.78223 17.6162C8.8929 17.4945 9.05892 17.3727 9.28027 17.251C9.50163 17.1182 9.75618 17.002 10.0439 16.9023C10.3317 16.8027 10.6416 16.7253 10.9736 16.6699C11.3167 16.6035 11.6709 16.5703 12.0361 16.5703C12.3682 16.5703 12.6891 16.6035 12.999 16.6699C13.32 16.7363 13.6077 16.847 13.8623 17.002C14.1279 17.1569 14.3548 17.3672 14.543 17.6328C14.7422 17.8874 14.8805 18.2083 14.958 18.5957C15.0355 18.9831 15.0853 19.376 15.1074 19.7744C15.1406 20.1618 15.1572 20.5492 15.1572 20.9365V23.0947V23.2275ZM20.1211 16.6367L20.3369 17.583V26H18.3281V16.6367H20.1211ZM25.3008 17.666C25.4889 17.8542 25.6328 18.0755 25.7324 18.3301C25.8431 18.5736 25.9206 18.8337 25.9648 19.1104C26.0202 19.376 26.0534 19.6471 26.0645 19.9238C26.0755 20.2005 26.0811 20.4717 26.0811 20.7373V25.668V26H24.0557V20.9033C24.0557 20.527 24.0391 20.1673 24.0059 19.8242C23.9727 19.4811 23.8952 19.1768 23.7734 18.9111C23.6517 18.6455 23.4857 18.4408 23.2754 18.2969C23.0651 18.1419 22.7718 18.0645 22.3955 18.0645C22.2406 18.0645 22.0303 18.0921 21.7646 18.1475C21.5101 18.1917 21.2611 18.2692 21.0176 18.3799V17.1016C21.3164 16.9466 21.6374 16.8138 21.9805 16.7031C22.3346 16.5924 22.6777 16.5371 23.0098 16.5371C23.5078 16.5371 23.9284 16.6423 24.2715 16.8525C24.6146 17.0518 24.9577 17.3229 25.3008 17.666ZM32.4578 26.17C31.5284 26.17 30.7578 25.9093 30.1458 25.388C29.5451 24.8553 29.0974 24.1017 28.8028 23.127C28.5081 22.141 28.3608 20.9623 28.3608 19.591C28.3608 18.2083 28.4968 17.024 28.7688 16.038C29.0408 15.052 29.4771 14.2983 30.0778 13.777C30.6898 13.2557 31.4831 12.995 32.4578 12.995C33.3984 12.995 34.1748 13.2557 34.7868 13.777C35.3988 14.287 35.8521 15.035 36.1468 16.021C36.4528 17.007 36.6058 18.197 36.6058 19.591C36.6058 20.9623 36.4641 22.141 36.1808 23.127C35.9088 24.1017 35.4668 24.8553 34.8548 25.388C34.2541 25.9093 33.4551 26.17 32.4578 26.17ZM32.4578 24.929C33.0471 24.929 33.5288 24.759 33.9028 24.419C34.2881 24.079 34.5771 23.5463 34.7698 22.821C34.9624 22.0957 35.0701 21.1493 35.0928 19.982H29.8738C29.8964 21.138 29.9928 22.0787 30.1628 22.804C30.3441 23.5293 30.6218 24.0677 30.9958 24.419C31.3698 24.759 31.8571 24.929 32.4578 24.929ZM29.8738 18.826H35.0758C35.0418 17.7947 34.9284 16.9447 34.7358 16.276C34.5431 15.596 34.2598 15.0917 33.8858 14.763C33.5118 14.423 33.0358 14.253 32.4578 14.253C31.8798 14.253 31.4038 14.423 31.0298 14.763C30.6671 15.0917 30.3951 15.596 30.2138 16.276C30.0324 16.9447 29.9191 17.7947 29.8738 18.826Z" fill="#410EAD"/>
</svg>
