<svg width="301" height="83" viewBox="0 0 301 83" fill="none" xmlns="http://www.w3.org/2000/svg">
<g filter="url(#filter0_d_249_1857)">
<path d="M37.5 10L64.7798 25.75V57.25L37.5 73L10.2202 57.25V25.75L37.5 10Z" fill="white"/>
</g>
<path d="M97.37 28.5V35.37C97.37 36.57 97.05 37.51 96.41 38.19C95.78 38.87 94.84 39.21 93.59 39.21C92.34 39.21 91.395 38.87 90.755 38.19C90.125 37.51 89.81 36.57 89.81 35.37V28.5H91.79V35.37C91.79 35.99 91.935 36.475 92.225 36.825C92.515 37.175 92.97 37.35 93.59 37.35C94.21 37.35 94.665 37.175 94.955 36.825C95.245 36.475 95.39 35.99 95.39 35.37V28.5H97.37ZM101.245 39H99.3546V31.56H101.245V32.67H101.515C101.685 32.25 101.96 31.925 102.34 31.695C102.72 31.465 103.165 31.35 103.675 31.35C104.035 31.35 104.37 31.41 104.68 31.53C105 31.64 105.28 31.815 105.52 32.055C105.76 32.295 105.945 32.6 106.075 32.97C106.215 33.34 106.285 33.78 106.285 34.29V39H104.395V34.77C104.395 34.24 104.265 33.825 104.005 33.525C103.755 33.215 103.39 33.06 102.91 33.06C102.35 33.06 101.93 33.25 101.65 33.63C101.38 34 101.245 34.5 101.245 35.13V39ZM116.009 39H114.119V33.78C114.119 33.57 114.064 33.415 113.954 33.315C113.854 33.205 113.719 33.15 113.549 33.15C113.349 33.15 113.189 33.21 113.069 33.33C112.959 33.45 112.904 33.63 112.904 33.87V39H111.014V33.78C111.014 33.57 110.954 33.415 110.834 33.315C110.724 33.205 110.589 33.15 110.429 33.15C110.249 33.15 110.099 33.21 109.979 33.33C109.859 33.45 109.799 33.63 109.799 33.87V39H107.909V31.56H109.799V32.28H110.069C110.129 32.01 110.264 31.79 110.474 31.62C110.694 31.44 110.979 31.35 111.329 31.35C111.659 31.35 111.939 31.44 112.169 31.62C112.399 31.79 112.554 32.01 112.634 32.28H112.904C112.984 32.01 113.149 31.79 113.399 31.62C113.659 31.44 113.979 31.35 114.359 31.35C114.859 31.35 115.259 31.52 115.559 31.86C115.859 32.19 116.009 32.65 116.009 33.24V39ZM122.539 37.92C122.339 38.39 122.059 38.725 121.699 38.925C121.339 39.115 120.919 39.21 120.439 39.21C119.989 39.21 119.564 39.125 119.164 38.955C118.774 38.785 118.429 38.535 118.129 38.205C117.829 37.875 117.589 37.475 117.409 37.005C117.239 36.535 117.154 36 117.154 35.4V35.16C117.154 34.57 117.239 34.04 117.409 33.57C117.579 33.1 117.809 32.7 118.099 32.37C118.389 32.04 118.724 31.79 119.104 31.62C119.494 31.44 119.909 31.35 120.349 31.35C120.879 31.35 121.304 31.44 121.624 31.62C121.954 31.8 122.214 32.08 122.404 32.46H122.674V31.56H124.564V36.75C124.564 37.05 124.699 37.2 124.969 37.2H125.254V39H123.964C123.624 39 123.344 38.9 123.124 38.7C122.914 38.5 122.809 38.24 122.809 37.92H122.539ZM120.859 37.41C121.409 37.41 121.849 37.23 122.179 36.87C122.509 36.5 122.674 36 122.674 35.37V35.19C122.674 34.56 122.509 34.065 122.179 33.705C121.849 33.335 121.409 33.15 120.859 33.15C120.309 33.15 119.869 33.335 119.539 33.705C119.209 34.065 119.044 34.56 119.044 35.19V35.37C119.044 36 119.209 36.5 119.539 36.87C119.869 37.23 120.309 37.41 120.859 37.41ZM126.698 31.56H128.903V28.5H130.793V31.56H133.478V33.36H130.793V36.75C130.793 37.05 130.928 37.2 131.198 37.2H133.208V39H130.058C129.718 39 129.438 38.89 129.218 38.67C129.008 38.45 128.903 38.17 128.903 37.83V33.36H126.698V31.56ZM143.353 36.27C143.183 37.15 142.778 37.86 142.138 38.4C141.508 38.94 140.663 39.21 139.603 39.21C139.053 39.21 138.538 39.125 138.058 38.955C137.588 38.785 137.178 38.54 136.828 38.22C136.478 37.9 136.203 37.505 136.003 37.035C135.803 36.565 135.703 36.03 135.703 35.43V35.25C135.703 34.65 135.803 34.11 136.003 33.63C136.203 33.15 136.478 32.74 136.828 32.4C137.188 32.06 137.603 31.8 138.073 31.62C138.553 31.44 139.063 31.35 139.603 31.35C140.643 31.35 141.483 31.62 142.123 32.16C142.773 32.7 143.183 33.41 143.353 34.29L141.493 34.77C141.433 34.33 141.243 33.95 140.923 33.63C140.603 33.31 140.153 33.15 139.573 33.15C139.303 33.15 139.048 33.2 138.808 33.3C138.568 33.4 138.358 33.545 138.178 33.735C137.998 33.915 137.853 34.14 137.743 34.41C137.643 34.67 137.593 34.965 137.593 35.295V35.385C137.593 35.715 137.643 36.01 137.743 36.27C137.853 36.52 137.998 36.73 138.178 36.9C138.358 37.07 138.568 37.2 138.808 37.29C139.048 37.37 139.303 37.41 139.573 37.41C140.153 37.41 140.593 37.265 140.893 36.975C141.203 36.685 141.403 36.295 141.493 35.805L143.353 36.27ZM147.197 39H145.307V28.5H147.197V32.76H147.467C147.657 32.31 147.937 31.965 148.307 31.725C148.677 31.475 149.132 31.35 149.672 31.35C150.042 31.35 150.382 31.41 150.692 31.53C151.002 31.65 151.272 31.83 151.502 32.07C151.732 32.31 151.912 32.62 152.042 33C152.172 33.37 152.237 33.81 152.237 34.32V39H150.347V34.77C150.347 34.24 150.217 33.825 149.957 33.525C149.707 33.215 149.342 33.06 148.862 33.06C148.302 33.06 147.882 33.25 147.602 33.63C147.332 34 147.197 34.5 147.197 35.13V39ZM156.127 35.895C156.137 36.115 156.187 36.32 156.277 36.51C156.377 36.69 156.507 36.85 156.667 36.99C156.837 37.12 157.027 37.225 157.237 37.305C157.457 37.375 157.687 37.41 157.927 37.41C158.397 37.41 158.757 37.33 159.007 37.17C159.257 37 159.437 36.8 159.547 36.57L161.167 37.47C161.077 37.66 160.952 37.86 160.792 38.07C160.632 38.27 160.422 38.455 160.162 38.625C159.912 38.795 159.602 38.935 159.232 39.045C158.872 39.155 158.447 39.21 157.957 39.21C157.397 39.21 156.887 39.12 156.427 38.94C155.967 38.76 155.567 38.5 155.227 38.16C154.897 37.82 154.637 37.405 154.447 36.915C154.267 36.425 154.177 35.87 154.177 35.25V35.16C154.177 34.59 154.272 34.07 154.462 33.6C154.662 33.13 154.932 32.73 155.272 32.4C155.612 32.07 156.007 31.815 156.457 31.635C156.917 31.445 157.407 31.35 157.927 31.35C158.567 31.35 159.117 31.465 159.577 31.695C160.037 31.915 160.417 32.2 160.717 32.55C161.017 32.89 161.237 33.27 161.377 33.69C161.517 34.1 161.587 34.5 161.587 34.89V35.895H156.127ZM157.912 33.06C157.432 33.06 157.042 33.185 156.742 33.435C156.442 33.675 156.247 33.955 156.157 34.275H159.667C159.607 33.925 159.417 33.635 159.097 33.405C158.787 33.175 158.392 33.06 157.912 33.06ZM168.987 37.92H168.717C168.637 38.09 168.537 38.255 168.417 38.415C168.307 38.565 168.157 38.7 167.967 38.82C167.787 38.94 167.567 39.035 167.307 39.105C167.057 39.175 166.752 39.21 166.392 39.21C165.932 39.21 165.502 39.13 165.102 38.97C164.712 38.8 164.367 38.555 164.067 38.235C163.777 37.905 163.547 37.505 163.377 37.035C163.217 36.565 163.137 36.025 163.137 35.415V35.145C163.137 34.545 163.222 34.01 163.392 33.54C163.572 33.07 163.812 32.675 164.112 32.355C164.422 32.025 164.777 31.775 165.177 31.605C165.587 31.435 166.017 31.35 166.467 31.35C167.067 31.35 167.542 31.465 167.892 31.695C168.242 31.915 168.517 32.23 168.717 32.64H168.987V28.5H170.877V39H168.987V37.92ZM167.007 37.41C167.597 37.41 168.072 37.225 168.432 36.855C168.802 36.475 168.987 35.98 168.987 35.37V35.19C168.987 34.58 168.802 34.09 168.432 33.72C168.072 33.34 167.597 33.15 167.007 33.15C166.417 33.15 165.937 33.335 165.567 33.705C165.207 34.065 165.027 34.56 165.027 35.19V35.37C165.027 36 165.207 36.5 165.567 36.87C165.937 37.23 166.417 37.41 167.007 37.41ZM181.806 31.56H184.011V28.5H185.901V31.56H188.586V33.36H185.901V36.75C185.901 37.05 186.036 37.2 186.306 37.2H188.316V39H185.166C184.826 39 184.546 38.89 184.326 38.67C184.116 38.45 184.011 38.17 184.011 37.83V33.36H181.806V31.56ZM190.84 31.56H193.99V32.64H194.26C194.4 32.23 194.635 31.915 194.965 31.695C195.305 31.465 195.71 31.35 196.18 31.35C196.92 31.35 197.515 31.585 197.965 32.055C198.415 32.515 198.64 33.22 198.64 34.17V34.5L196.69 34.68V34.47C196.69 34.06 196.585 33.735 196.375 33.495C196.165 33.245 195.85 33.12 195.43 33.12C195.01 33.12 194.68 33.265 194.44 33.555C194.2 33.845 194.08 34.26 194.08 34.8V37.2H195.79V39H190.66V37.2H192.19V33.36H190.84V31.56ZM205.2 37.92C205 38.39 204.72 38.725 204.36 38.925C204 39.115 203.58 39.21 203.1 39.21C202.65 39.21 202.225 39.125 201.825 38.955C201.435 38.785 201.09 38.535 200.79 38.205C200.49 37.875 200.25 37.475 200.07 37.005C199.9 36.535 199.815 36 199.815 35.4V35.16C199.815 34.57 199.9 34.04 200.07 33.57C200.24 33.1 200.47 32.7 200.76 32.37C201.05 32.04 201.385 31.79 201.765 31.62C202.155 31.44 202.57 31.35 203.01 31.35C203.54 31.35 203.965 31.44 204.285 31.62C204.615 31.8 204.875 32.08 205.065 32.46H205.335V31.56H207.225V36.75C207.225 37.05 207.36 37.2 207.63 37.2H207.915V39H206.625C206.285 39 206.005 38.9 205.785 38.7C205.575 38.5 205.47 38.24 205.47 37.92H205.2ZM203.52 37.41C204.07 37.41 204.51 37.23 204.84 36.87C205.17 36.5 205.335 36 205.335 35.37V35.19C205.335 34.56 205.17 34.065 204.84 33.705C204.51 33.335 204.07 33.15 203.52 33.15C202.97 33.15 202.53 33.335 202.2 33.705C201.87 34.065 201.705 34.56 201.705 35.19V35.37C201.705 36 201.87 36.5 202.2 36.87C202.53 37.23 202.97 37.41 203.52 37.41ZM211.459 39H209.569V31.56H211.459V32.67H211.729C211.899 32.25 212.174 31.925 212.554 31.695C212.934 31.465 213.379 31.35 213.889 31.35C214.249 31.35 214.584 31.41 214.894 31.53C215.214 31.64 215.494 31.815 215.734 32.055C215.974 32.295 216.159 32.6 216.289 32.97C216.429 33.34 216.499 33.78 216.499 34.29V39H214.609V34.77C214.609 34.24 214.479 33.825 214.219 33.525C213.969 33.215 213.604 33.06 213.124 33.06C212.564 33.06 212.144 33.25 211.864 33.63C211.594 34 211.459 34.5 211.459 35.13V39ZM221.124 33.66C221.124 33.9 221.249 34.075 221.499 34.185C221.749 34.285 222.204 34.37 222.864 34.44C223.624 34.52 224.244 34.75 224.724 35.13C225.204 35.5 225.444 36.02 225.444 36.69V36.78C225.444 37.52 225.174 38.11 224.634 38.55C224.094 38.99 223.334 39.21 222.354 39.21C221.774 39.21 221.279 39.135 220.869 38.985C220.459 38.835 220.119 38.65 219.849 38.43C219.579 38.2 219.369 37.95 219.219 37.68C219.079 37.4 218.984 37.13 218.934 36.87L220.674 36.3C220.754 36.62 220.919 36.9 221.169 37.14C221.429 37.38 221.824 37.5 222.354 37.5C222.824 37.5 223.144 37.43 223.314 37.29C223.494 37.14 223.584 36.98 223.584 36.81C223.584 36.71 223.559 36.62 223.509 36.54C223.469 36.45 223.389 36.37 223.269 36.3C223.149 36.22 222.984 36.155 222.774 36.105C222.574 36.055 222.319 36.015 222.009 35.985C221.169 35.915 220.499 35.7 219.999 35.34C219.509 34.97 219.264 34.43 219.264 33.72V33.63C219.264 33.26 219.344 32.935 219.504 32.655C219.664 32.375 219.874 32.14 220.134 31.95C220.394 31.75 220.694 31.6 221.034 31.5C221.374 31.4 221.724 31.35 222.084 31.35C222.554 31.35 222.959 31.41 223.299 31.53C223.649 31.64 223.944 31.79 224.184 31.98C224.424 32.16 224.619 32.365 224.769 32.595C224.919 32.815 225.034 33.03 225.114 33.24L223.404 33.93C223.314 33.66 223.159 33.45 222.939 33.3C222.719 33.14 222.434 33.06 222.084 33.06C221.764 33.06 221.524 33.12 221.364 33.24C221.204 33.35 221.124 33.49 221.124 33.66ZM229.439 42H227.549V31.56H229.439V32.64H229.709C229.909 32.23 230.199 31.915 230.579 31.695C230.959 31.465 231.444 31.35 232.034 31.35C232.474 31.35 232.889 31.435 233.279 31.605C233.679 31.775 234.024 32.025 234.314 32.355C234.614 32.675 234.849 33.07 235.019 33.54C235.199 34.01 235.289 34.545 235.289 35.145V35.415C235.289 36.025 235.204 36.565 235.034 37.035C234.864 37.505 234.634 37.905 234.344 38.235C234.054 38.555 233.709 38.8 233.309 38.97C232.919 39.13 232.494 39.21 232.034 39.21C231.694 39.21 231.399 39.175 231.149 39.105C230.899 39.035 230.679 38.94 230.489 38.82C230.309 38.7 230.154 38.565 230.024 38.415C229.904 38.255 229.799 38.09 229.709 37.92H229.439V42ZM231.419 37.41C232.009 37.41 232.484 37.23 232.844 36.87C233.214 36.5 233.399 36 233.399 35.37V35.19C233.399 34.56 233.214 34.065 232.844 33.705C232.484 33.335 232.009 33.15 231.419 33.15C230.829 33.15 230.349 33.34 229.979 33.72C229.619 34.09 229.439 34.58 229.439 35.19V35.37C229.439 35.98 229.619 36.475 229.979 36.855C230.349 37.225 230.829 37.41 231.419 37.41ZM241.938 37.92C241.738 38.39 241.458 38.725 241.098 38.925C240.738 39.115 240.318 39.21 239.838 39.21C239.388 39.21 238.963 39.125 238.563 38.955C238.173 38.785 237.828 38.535 237.528 38.205C237.228 37.875 236.988 37.475 236.808 37.005C236.638 36.535 236.553 36 236.553 35.4V35.16C236.553 34.57 236.638 34.04 236.808 33.57C236.978 33.1 237.208 32.7 237.498 32.37C237.788 32.04 238.123 31.79 238.503 31.62C238.893 31.44 239.308 31.35 239.748 31.35C240.278 31.35 240.703 31.44 241.023 31.62C241.353 31.8 241.613 32.08 241.803 32.46H242.073V31.56H243.963V36.75C243.963 37.05 244.098 37.2 244.368 37.2H244.653V39H243.363C243.023 39 242.743 38.9 242.523 38.7C242.313 38.5 242.208 38.24 242.208 37.92H241.938ZM240.258 37.41C240.808 37.41 241.248 37.23 241.578 36.87C241.908 36.5 242.073 36 242.073 35.37V35.19C242.073 34.56 241.908 34.065 241.578 33.705C241.248 33.335 240.808 33.15 240.258 33.15C239.708 33.15 239.268 33.335 238.938 33.705C238.608 34.065 238.443 34.56 238.443 35.19V35.37C238.443 36 238.608 36.5 238.938 36.87C239.268 37.23 239.708 37.41 240.258 37.41ZM245.948 31.56H249.098V32.64H249.368C249.508 32.23 249.743 31.915 250.073 31.695C250.413 31.465 250.818 31.35 251.288 31.35C252.028 31.35 252.623 31.585 253.073 32.055C253.523 32.515 253.748 33.22 253.748 34.17V34.5L251.798 34.68V34.47C251.798 34.06 251.693 33.735 251.483 33.495C251.273 33.245 250.958 33.12 250.538 33.12C250.118 33.12 249.788 33.265 249.548 33.555C249.308 33.845 249.188 34.26 249.188 34.8V37.2H250.898V39H245.768V37.2H247.298V33.36H245.948V31.56ZM257.157 35.895C257.167 36.115 257.217 36.32 257.307 36.51C257.407 36.69 257.537 36.85 257.697 36.99C257.867 37.12 258.057 37.225 258.267 37.305C258.487 37.375 258.717 37.41 258.957 37.41C259.427 37.41 259.787 37.33 260.037 37.17C260.287 37 260.467 36.8 260.577 36.57L262.197 37.47C262.107 37.66 261.982 37.86 261.822 38.07C261.662 38.27 261.452 38.455 261.192 38.625C260.942 38.795 260.632 38.935 260.262 39.045C259.902 39.155 259.477 39.21 258.987 39.21C258.427 39.21 257.917 39.12 257.457 38.94C256.997 38.76 256.597 38.5 256.257 38.16C255.927 37.82 255.667 37.405 255.477 36.915C255.297 36.425 255.207 35.87 255.207 35.25V35.16C255.207 34.59 255.302 34.07 255.492 33.6C255.692 33.13 255.962 32.73 256.302 32.4C256.642 32.07 257.037 31.815 257.487 31.635C257.947 31.445 258.437 31.35 258.957 31.35C259.597 31.35 260.147 31.465 260.607 31.695C261.067 31.915 261.447 32.2 261.747 32.55C262.047 32.89 262.267 33.27 262.407 33.69C262.547 34.1 262.617 34.5 262.617 34.89V35.895H257.157ZM258.942 33.06C258.462 33.06 258.072 33.185 257.772 33.435C257.472 33.675 257.277 33.955 257.187 34.275H260.697C260.637 33.925 260.447 33.635 260.127 33.405C259.817 33.175 259.422 33.06 258.942 33.06ZM266.567 39H264.677V31.56H266.567V32.67H266.837C267.007 32.25 267.282 31.925 267.662 31.695C268.042 31.465 268.487 31.35 268.997 31.35C269.357 31.35 269.692 31.41 270.002 31.53C270.322 31.64 270.602 31.815 270.842 32.055C271.082 32.295 271.267 32.6 271.397 32.97C271.537 33.34 271.607 33.78 271.607 34.29V39H269.717V34.77C269.717 34.24 269.587 33.825 269.327 33.525C269.077 33.215 268.712 33.06 268.232 33.06C267.672 33.06 267.252 33.25 266.972 33.63C266.702 34 266.567 34.5 266.567 35.13V39ZM281.121 36.27C280.951 37.15 280.546 37.86 279.906 38.4C279.276 38.94 278.431 39.21 277.371 39.21C276.821 39.21 276.306 39.125 275.826 38.955C275.356 38.785 274.946 38.54 274.596 38.22C274.246 37.9 273.971 37.505 273.771 37.035C273.571 36.565 273.471 36.03 273.471 35.43V35.25C273.471 34.65 273.571 34.11 273.771 33.63C273.971 33.15 274.246 32.74 274.596 32.4C274.956 32.06 275.371 31.8 275.841 31.62C276.321 31.44 276.831 31.35 277.371 31.35C278.411 31.35 279.251 31.62 279.891 32.16C280.541 32.7 280.951 33.41 281.121 34.29L279.261 34.77C279.201 34.33 279.011 33.95 278.691 33.63C278.371 33.31 277.921 33.15 277.341 33.15C277.071 33.15 276.816 33.2 276.576 33.3C276.336 33.4 276.126 33.545 275.946 33.735C275.766 33.915 275.621 34.14 275.511 34.41C275.411 34.67 275.361 34.965 275.361 35.295V35.385C275.361 35.715 275.411 36.01 275.511 36.27C275.621 36.52 275.766 36.73 275.946 36.9C276.126 37.07 276.336 37.2 276.576 37.29C276.816 37.37 277.071 37.41 277.341 37.41C277.921 37.41 278.361 37.265 278.661 36.975C278.971 36.685 279.171 36.295 279.261 35.805L281.121 36.27ZM288.086 31.56H289.976V40.83C289.976 41.17 289.866 41.45 289.646 41.67C289.436 41.89 289.161 42 288.821 42H284.396V40.2H287.681C287.951 40.2 288.086 40.05 288.086 39.75V37.92H287.816C287.486 38.78 286.776 39.21 285.686 39.21C285.316 39.21 284.971 39.15 284.651 39.03C284.331 38.91 284.051 38.725 283.811 38.475C283.571 38.225 283.381 37.915 283.241 37.545C283.111 37.165 283.046 36.72 283.046 36.21V31.56H284.936V35.82C284.936 36.35 285.061 36.765 285.311 37.065C285.561 37.355 285.936 37.5 286.436 37.5C287.006 37.5 287.421 37.32 287.681 36.96C287.951 36.59 288.086 36.09 288.086 35.46V31.56ZM294.226 37.785C294.226 37.595 294.261 37.415 294.331 37.245C294.411 37.065 294.516 36.915 294.646 36.795C294.776 36.665 294.926 36.565 295.096 36.495C295.266 36.415 295.451 36.375 295.651 36.375C295.841 36.375 296.021 36.415 296.191 36.495C296.371 36.565 296.526 36.665 296.656 36.795C296.786 36.915 296.886 37.065 296.956 37.245C297.036 37.415 297.076 37.595 297.076 37.785V39.615C297.076 39.995 296.946 40.315 296.686 40.575C296.436 40.835 296.121 40.965 295.741 40.965H294.781V39.795H295.501C295.771 39.795 295.906 39.645 295.906 39.345V39.165C295.826 39.195 295.741 39.21 295.651 39.21C295.451 39.21 295.266 39.17 295.096 39.09C294.926 39.02 294.776 38.92 294.646 38.79C294.516 38.66 294.411 38.51 294.331 38.34C294.261 38.17 294.226 37.985 294.226 37.785Z" fill="#410EAD"/>
<path d="M92.8778 58.1477C92.2377 58.1477 91.676 57.9954 91.1928 57.6907C90.7127 57.386 90.3372 56.9598 90.0664 56.4119C89.7987 55.8641 89.6648 55.224 89.6648 54.4915C89.6648 53.7528 89.7987 53.1081 90.0664 52.5572C90.3372 52.0063 90.7127 51.5785 91.1928 51.2738C91.676 50.9691 92.2377 50.8168 92.8778 50.8168C93.518 50.8168 94.0781 50.9691 94.5582 51.2738C95.0414 51.5785 95.4169 52.0063 95.6847 52.5572C95.9555 53.1081 96.0909 53.7528 96.0909 54.4915C96.0909 55.224 95.9555 55.8641 95.6847 56.4119C95.4169 56.9598 95.0414 57.386 94.5582 57.6907C94.0781 57.9954 93.518 58.1477 92.8778 58.1477ZM92.8778 57.169C93.3641 57.169 93.7642 57.0444 94.0781 56.7951C94.392 56.5458 94.6244 56.218 94.7752 55.8118C94.926 55.4055 95.0014 54.9654 95.0014 54.4915C95.0014 54.0175 94.926 53.5759 94.7752 53.1665C94.6244 52.7572 94.392 52.4264 94.0781 52.174C93.7642 51.9216 93.3641 51.7955 92.8778 51.7955C92.3916 51.7955 91.9915 51.9216 91.6776 52.174C91.3636 52.4264 91.1313 52.7572 90.9805 53.1665C90.8297 53.5759 90.7543 54.0175 90.7543 54.4915C90.7543 54.9654 90.8297 55.4055 90.9805 55.8118C91.1313 56.218 91.3636 56.5458 91.6776 56.7951C91.9915 57.0444 92.3916 57.169 92.8778 57.169ZM100.912 50.9091V51.8324H97.0892V50.9091H100.912ZM98.2341 58V49.9304C98.2341 49.5241 98.3295 49.1856 98.5203 48.9148C98.7111 48.6439 98.9589 48.4408 99.2636 48.3054C99.5683 48.17 99.8899 48.1023 100.228 48.1023C100.496 48.1023 100.715 48.1238 100.884 48.1669C101.053 48.21 101.179 48.25 101.263 48.2869L100.949 49.2287C100.893 49.2102 100.816 49.1871 100.718 49.1594C100.622 49.1317 100.496 49.1179 100.339 49.1179C99.9791 49.1179 99.7191 49.2087 99.559 49.3903C99.4021 49.5719 99.3236 49.8381 99.3236 50.1889V58H98.2341ZM105.596 50.9091V51.8324H101.774V50.9091H105.596ZM102.919 58V49.9304C102.919 49.5241 103.014 49.1856 103.205 48.9148C103.396 48.6439 103.643 48.4408 103.948 48.3054C104.253 48.17 104.574 48.1023 104.913 48.1023C105.181 48.1023 105.399 48.1238 105.569 48.1669C105.738 48.21 105.864 48.25 105.947 48.2869L105.633 49.2287C105.578 49.2102 105.501 49.1871 105.402 49.1594C105.307 49.1317 105.181 49.1179 105.024 49.1179C104.664 49.1179 104.404 49.2087 104.244 49.3903C104.087 49.5719 104.008 49.8381 104.008 50.1889V58H102.919ZM109.804 58.1477C109.121 58.1477 108.532 57.9969 108.036 57.6953C107.544 57.3906 107.164 56.9659 106.896 56.4212C106.631 55.8733 106.499 55.2363 106.499 54.5099C106.499 53.7836 106.631 53.1435 106.896 52.5895C107.164 52.0324 107.536 51.5985 108.013 51.2876C108.493 50.9737 109.053 50.8168 109.693 50.8168C110.063 50.8168 110.427 50.8783 110.787 51.0014C111.148 51.1245 111.475 51.3246 111.771 51.6016C112.066 51.8755 112.302 52.2386 112.477 52.6911C112.653 53.1435 112.74 53.7005 112.74 54.3622V54.8239H107.274V53.8821H111.632C111.632 53.482 111.552 53.125 111.392 52.8111C111.235 52.4972 111.011 52.2494 110.718 52.0678C110.429 51.8862 110.087 51.7955 109.693 51.7955C109.259 51.7955 108.884 51.9032 108.567 52.1186C108.253 52.331 108.011 52.608 107.842 52.9496C107.673 53.2912 107.588 53.6574 107.588 54.0483V54.6761C107.588 55.2116 107.681 55.6656 107.865 56.038C108.053 56.4073 108.313 56.6889 108.645 56.8828C108.978 57.0736 109.364 57.169 109.804 57.169C110.09 57.169 110.349 57.129 110.58 57.049C110.814 56.9659 111.015 56.8428 111.184 56.6797C111.354 56.5135 111.485 56.3073 111.577 56.0611L112.629 56.3565C112.519 56.7135 112.332 57.0275 112.071 57.2983C111.809 57.5661 111.486 57.7753 111.101 57.9261C110.717 58.0739 110.284 58.1477 109.804 58.1477ZM114.398 58V50.9091H115.45V51.9801H115.524C115.653 51.6293 115.887 51.3446 116.226 51.1261C116.564 50.9076 116.946 50.7983 117.371 50.7983C117.451 50.7983 117.551 50.7998 117.671 50.8029C117.791 50.806 117.881 50.8106 117.943 50.8168V51.9247C117.906 51.9155 117.821 51.9016 117.689 51.8832C117.56 51.8616 117.423 51.8509 117.278 51.8509C116.934 51.8509 116.626 51.9232 116.355 52.0678C116.087 52.2094 115.875 52.4064 115.718 52.6587C115.564 52.908 115.487 53.1927 115.487 53.5128V58H114.398ZM119.234 58V50.9091H120.324V58H119.234ZM119.788 49.7273C119.576 49.7273 119.393 49.6549 119.239 49.5103C119.088 49.3656 119.013 49.1918 119.013 48.9886C119.013 48.7855 119.088 48.6116 119.239 48.467C119.393 48.3223 119.576 48.25 119.788 48.25C120.001 48.25 120.182 48.3223 120.333 48.467C120.487 48.6116 120.564 48.7855 120.564 48.9886C120.564 49.1918 120.487 49.3656 120.333 49.5103C120.182 49.6549 120.001 49.7273 119.788 49.7273ZM123.409 53.7344V58H122.319V50.9091H123.372V52.017H123.464C123.631 51.657 123.883 51.3677 124.221 51.1491C124.56 50.9276 124.997 50.8168 125.532 50.8168C126.013 50.8168 126.433 50.9152 126.793 51.1122C127.153 51.3061 127.433 51.6016 127.633 51.9986C127.833 52.3925 127.933 52.8911 127.933 53.4943V58H126.844V53.5682C126.844 53.0111 126.699 52.5772 126.41 52.2663C126.12 51.9524 125.723 51.7955 125.219 51.7955C124.871 51.7955 124.56 51.8709 124.286 52.0217C124.015 52.1725 123.801 52.3925 123.644 52.6818C123.487 52.9711 123.409 53.322 123.409 53.7344ZM132.786 60.8068C132.26 60.8068 131.807 60.7391 131.429 60.6037C131.05 60.4714 130.735 60.2959 130.483 60.0774C130.233 59.862 130.035 59.6312 129.887 59.3849L130.755 58.7756C130.853 58.9048 130.978 59.0526 131.129 59.2188C131.28 59.388 131.486 59.5342 131.747 59.6573C132.012 59.7835 132.358 59.8466 132.786 59.8466C133.359 59.8466 133.831 59.7081 134.203 59.4311C134.576 59.1541 134.762 58.7202 134.762 58.1293V56.6889H134.67C134.59 56.8182 134.476 56.9782 134.328 57.169C134.183 57.3568 133.974 57.5245 133.7 57.6722C133.429 57.8169 133.063 57.8892 132.601 57.8892C132.029 57.8892 131.515 57.7538 131.06 57.483C130.607 57.2121 130.249 56.8182 129.984 56.3011C129.722 55.7841 129.592 55.1562 129.592 54.4176C129.592 53.6913 129.719 53.0588 129.975 52.5202C130.23 51.9786 130.586 51.56 131.041 51.2646C131.497 50.966 132.023 50.8168 132.62 50.8168C133.082 50.8168 133.448 50.8937 133.719 51.0476C133.993 51.1984 134.202 51.3707 134.347 51.5646C134.494 51.7554 134.608 51.9124 134.688 52.0355H134.799V50.9091H135.851V58.2031C135.851 58.8125 135.713 59.308 135.436 59.6896C135.162 60.0743 134.793 60.3559 134.328 60.5344C133.866 60.716 133.352 60.8068 132.786 60.8068ZM132.749 56.9105C133.186 56.9105 133.556 56.8105 133.857 56.6104C134.159 56.4104 134.388 56.1226 134.545 55.7472C134.702 55.3717 134.78 54.9223 134.78 54.3991C134.78 53.8883 134.704 53.4374 134.55 53.0465C134.396 52.6557 134.168 52.3494 133.866 52.1278C133.565 51.9062 133.192 51.7955 132.749 51.7955C132.288 51.7955 131.903 51.9124 131.595 52.1463C131.29 52.3802 131.061 52.6941 130.907 53.0881C130.756 53.482 130.681 53.919 130.681 54.3991C130.681 54.8916 130.758 55.3271 130.912 55.7056C131.069 56.0811 131.3 56.3765 131.604 56.592C131.912 56.8043 132.294 56.9105 132.749 56.9105ZM144.586 50.9091V51.8324H140.911V50.9091H144.586ZM141.982 49.2102H143.072V55.9688C143.072 56.2765 143.116 56.5073 143.206 56.6612C143.298 56.812 143.415 56.9136 143.556 56.9659C143.701 57.0152 143.853 57.0398 144.013 57.0398C144.133 57.0398 144.232 57.0336 144.309 57.0213C144.386 57.0059 144.447 56.9936 144.494 56.9844L144.715 57.9631C144.641 57.9908 144.538 58.0185 144.406 58.0462C144.273 58.0769 144.106 58.0923 143.903 58.0923C143.595 58.0923 143.293 58.0262 142.998 57.8938C142.705 57.7615 142.462 57.5599 142.268 57.2891C142.078 57.0182 141.982 56.6766 141.982 56.2642V49.2102ZM149.029 58.1477C148.389 58.1477 147.827 57.9954 147.344 57.6907C146.864 57.386 146.489 56.9598 146.218 56.4119C145.95 55.8641 145.816 55.224 145.816 54.4915C145.816 53.7528 145.95 53.1081 146.218 52.5572C146.489 52.0063 146.864 51.5785 147.344 51.2738C147.827 50.9691 148.389 50.8168 149.029 50.8168C149.669 50.8168 150.229 50.9691 150.71 51.2738C151.193 51.5785 151.568 52.0063 151.836 52.5572C152.107 53.1081 152.242 53.7528 152.242 54.4915C152.242 55.224 152.107 55.8641 151.836 56.4119C151.568 56.9598 151.193 57.386 150.71 57.6907C150.229 57.9954 149.669 58.1477 149.029 58.1477ZM149.029 57.169C149.515 57.169 149.916 57.0444 150.229 56.7951C150.543 56.5458 150.776 56.218 150.927 55.8118C151.077 55.4055 151.153 54.9654 151.153 54.4915C151.153 54.0175 151.077 53.5759 150.927 53.1665C150.776 52.7572 150.543 52.4264 150.229 52.174C149.916 51.9216 149.515 51.7955 149.029 51.7955C148.543 51.7955 148.143 51.9216 147.829 52.174C147.515 52.4264 147.283 52.7572 147.132 53.1665C146.981 53.5759 146.906 54.0175 146.906 54.4915C146.906 54.9654 146.981 55.4055 147.132 55.8118C147.283 56.218 147.515 56.5458 147.829 56.7951C148.143 57.0444 148.543 57.169 149.029 57.169ZM156.989 50.9091V51.8324H153.314V50.9091H156.989ZM154.385 49.2102H155.475V55.9688C155.475 56.2765 155.52 56.5073 155.609 56.6612C155.701 56.812 155.818 56.9136 155.96 56.9659C156.104 57.0152 156.257 57.0398 156.417 57.0398C156.537 57.0398 156.635 57.0336 156.712 57.0213C156.789 57.0059 156.851 56.9936 156.897 56.9844L157.118 57.9631C157.045 57.9908 156.941 58.0185 156.809 58.0462C156.677 58.0769 156.509 58.0923 156.306 58.0923C155.998 58.0923 155.697 58.0262 155.401 57.8938C155.109 57.7615 154.866 57.5599 154.672 57.2891C154.481 57.0182 154.385 56.6766 154.385 56.2642V49.2102ZM160.715 58.1662C160.265 58.1662 159.858 58.0816 159.491 57.9123C159.125 57.7399 158.834 57.4922 158.619 57.169C158.403 56.8428 158.296 56.4489 158.296 55.9872C158.296 55.581 158.376 55.2517 158.536 54.9993C158.696 54.7438 158.91 54.5438 159.177 54.3991C159.445 54.2545 159.741 54.1468 160.064 54.076C160.39 54.0021 160.718 53.9437 161.047 53.9006C161.478 53.8452 161.827 53.8036 162.095 53.7759C162.366 53.7451 162.563 53.6944 162.686 53.6236C162.812 53.5528 162.875 53.4297 162.875 53.2543V53.2173C162.875 52.7618 162.751 52.4079 162.501 52.1555C162.255 51.9032 161.881 51.777 161.379 51.777C160.859 51.777 160.452 51.8909 160.156 52.1186C159.861 52.3464 159.653 52.5895 159.533 52.848L158.499 52.4787C158.683 52.0478 158.93 51.7124 159.237 51.4723C159.548 51.2292 159.887 51.0599 160.253 50.9645C160.622 50.866 160.985 50.8168 161.343 50.8168C161.57 50.8168 161.832 50.8445 162.127 50.8999C162.426 50.9522 162.714 51.0614 162.991 51.2276C163.271 51.3938 163.503 51.6446 163.688 51.9801C163.872 52.3156 163.965 52.7649 163.965 53.3281V58H162.875V57.0398H162.82C162.746 57.1937 162.623 57.3583 162.45 57.5337C162.278 57.7092 162.049 57.8584 161.763 57.9815C161.476 58.1046 161.127 58.1662 160.715 58.1662ZM160.881 57.1875C161.312 57.1875 161.675 57.1029 161.97 56.9336C162.269 56.7643 162.494 56.5458 162.644 56.2781C162.798 56.0103 162.875 55.7287 162.875 55.4332V54.4361C162.829 54.4915 162.727 54.5423 162.57 54.5884C162.417 54.6315 162.238 54.67 162.035 54.7038C161.835 54.7346 161.64 54.7623 161.449 54.7869C161.261 54.8085 161.109 54.8269 160.992 54.8423C160.709 54.8793 160.444 54.9393 160.198 55.0224C159.954 55.1024 159.758 55.224 159.607 55.3871C159.459 55.5471 159.385 55.7656 159.385 56.0426C159.385 56.4212 159.525 56.7074 159.805 56.9013C160.088 57.0921 160.447 57.1875 160.881 57.1875ZM167.043 48.5455V58H165.953V48.5455H167.043ZM178.493 50.9091L175.871 58H174.763L172.14 50.9091H173.322L175.28 56.5597H175.354L177.311 50.9091H178.493ZM179.931 58V50.9091H181.02V58H179.931ZM180.485 49.7273C180.272 49.7273 180.089 49.6549 179.935 49.5103C179.785 49.3656 179.709 49.1918 179.709 48.9886C179.709 48.7855 179.785 48.6116 179.935 48.467C180.089 48.3223 180.272 48.25 180.485 48.25C180.697 48.25 180.879 48.3223 181.029 48.467C181.183 48.6116 181.26 48.7855 181.26 48.9886C181.26 49.1918 181.183 49.3656 181.029 49.5103C180.879 49.6549 180.697 49.7273 180.485 49.7273ZM188.038 52.4972L187.06 52.7741C186.998 52.611 186.907 52.4525 186.787 52.2987C186.67 52.1417 186.51 52.0124 186.307 51.9109C186.104 51.8093 185.844 51.7585 185.527 51.7585C185.093 51.7585 184.732 51.8585 184.442 52.0586C184.156 52.2556 184.013 52.5064 184.013 52.8111C184.013 53.0819 184.111 53.2958 184.308 53.4528C184.505 53.6097 184.813 53.7405 185.232 53.8452L186.284 54.1037C186.918 54.2576 187.391 54.493 187.701 54.81C188.012 55.1239 188.168 55.5286 188.168 56.0241C188.168 56.4304 188.051 56.7936 187.817 57.1136C187.586 57.4337 187.263 57.6861 186.847 57.8707C186.432 58.0554 185.949 58.1477 185.398 58.1477C184.675 58.1477 184.076 57.9908 183.602 57.6768C183.128 57.3629 182.828 56.9044 182.702 56.3011L183.736 56.0426C183.834 56.4242 184.021 56.7105 184.294 56.9013C184.571 57.0921 184.933 57.1875 185.379 57.1875C185.887 57.1875 186.29 57.0798 186.589 56.8643C186.89 56.6458 187.041 56.3842 187.041 56.0795C187.041 55.8333 186.955 55.6271 186.783 55.4609C186.61 55.2917 186.346 55.1655 185.989 55.0824L184.807 54.8054C184.158 54.6515 183.68 54.413 183.376 54.0898C183.074 53.7636 182.923 53.3558 182.923 52.8665C182.923 52.4664 183.036 52.1125 183.26 51.8047C183.488 51.4969 183.797 51.2553 184.188 51.0799C184.582 50.9045 185.028 50.8168 185.527 50.8168C186.229 50.8168 186.78 50.9706 187.18 51.2784C187.583 51.5862 187.869 51.9924 188.038 52.4972ZM189.808 58V50.9091H190.897V58H189.808ZM190.362 49.7273C190.149 49.7273 189.966 49.6549 189.812 49.5103C189.662 49.3656 189.586 49.1918 189.586 48.9886C189.586 48.7855 189.662 48.6116 189.812 48.467C189.966 48.3223 190.149 48.25 190.362 48.25C190.574 48.25 190.756 48.3223 190.906 48.467C191.06 48.6116 191.137 48.7855 191.137 48.9886C191.137 49.1918 191.06 49.3656 190.906 49.5103C190.756 49.6549 190.574 49.7273 190.362 49.7273ZM193.04 58V48.5455H194.13V52.0355H194.222C194.302 51.9124 194.413 51.7554 194.555 51.5646C194.699 51.3707 194.905 51.1984 195.173 51.0476C195.444 50.8937 195.81 50.8168 196.272 50.8168C196.869 50.8168 197.395 50.966 197.851 51.2646C198.306 51.5631 198.662 51.9863 198.917 52.5341C199.173 53.0819 199.3 53.7282 199.3 54.473C199.3 55.224 199.173 55.8749 198.917 56.4258C198.662 56.9736 198.308 57.3983 197.855 57.6999C197.403 57.9985 196.881 58.1477 196.29 58.1477C195.835 58.1477 195.47 58.0723 195.196 57.9215C194.922 57.7676 194.712 57.5937 194.564 57.3999C194.416 57.2029 194.302 57.0398 194.222 56.9105H194.093V58H193.04ZM194.111 54.4545C194.111 54.9901 194.19 55.4625 194.347 55.8718C194.504 56.2781 194.733 56.5966 195.035 56.8274C195.336 57.0552 195.706 57.169 196.143 57.169C196.598 57.169 196.978 57.049 197.283 56.8089C197.591 56.5658 197.822 56.2396 197.975 55.8303C198.132 55.4179 198.211 54.9593 198.211 54.4545C198.211 53.956 198.134 53.5066 197.98 53.1065C197.829 52.7034 197.6 52.3848 197.292 52.1509C196.987 51.9139 196.604 51.7955 196.143 51.7955C195.699 51.7955 195.327 51.9078 195.025 52.1325C194.724 52.354 194.496 52.6649 194.342 53.065C194.188 53.462 194.111 53.9252 194.111 54.4545ZM200.967 58V50.9091H202.056V58H200.967ZM201.521 49.7273C201.309 49.7273 201.125 49.6549 200.972 49.5103C200.821 49.3656 200.745 49.1918 200.745 48.9886C200.745 48.7855 200.821 48.6116 200.972 48.467C201.125 48.3223 201.309 48.25 201.521 48.25C201.733 48.25 201.915 48.3223 202.066 48.467C202.219 48.6116 202.296 48.7855 202.296 48.9886C202.296 49.1918 202.219 49.3656 202.066 49.5103C201.915 49.6549 201.733 49.7273 201.521 49.7273ZM205.141 48.5455V58H204.052V48.5455H205.141ZM207.137 58V50.9091H208.226V58H207.137ZM207.691 49.7273C207.478 49.7273 207.295 49.6549 207.141 49.5103C206.991 49.3656 206.915 49.1918 206.915 48.9886C206.915 48.7855 206.991 48.6116 207.141 48.467C207.295 48.3223 207.478 48.25 207.691 48.25C207.903 48.25 208.085 48.3223 208.236 48.467C208.389 48.6116 208.466 48.7855 208.466 48.9886C208.466 49.1918 208.389 49.3656 208.236 49.5103C208.085 49.6549 207.903 49.7273 207.691 49.7273ZM213.306 50.9091V51.8324H209.631V50.9091H213.306ZM210.702 49.2102H211.791V55.9688C211.791 56.2765 211.836 56.5073 211.925 56.6612C212.018 56.812 212.135 56.9136 212.276 56.9659C212.421 57.0152 212.573 57.0398 212.733 57.0398C212.853 57.0398 212.952 57.0336 213.029 57.0213C213.106 57.0059 213.167 56.9936 213.213 56.9844L213.435 57.9631C213.361 57.9908 213.258 58.0185 213.126 58.0462C212.993 58.0769 212.825 58.0923 212.622 58.0923C212.315 58.0923 212.013 58.0262 211.718 57.8938C211.425 57.7615 211.182 57.5599 210.988 57.2891C210.797 57.0182 210.702 56.6766 210.702 56.2642V49.2102ZM215.646 60.6591C215.461 60.6591 215.297 60.6437 215.152 60.6129C215.008 60.5852 214.907 60.5575 214.852 60.5298L215.129 59.5696C215.394 59.6373 215.628 59.6619 215.831 59.6435C216.034 59.625 216.214 59.5342 216.371 59.3711C216.531 59.2111 216.677 58.951 216.809 58.5909L217.013 58.0369L214.39 50.9091H215.572L217.53 56.5597H217.604L219.561 50.9091H220.743L217.733 59.0341C217.597 59.4003 217.43 59.7035 217.23 59.9435C217.03 60.1867 216.797 60.3667 216.532 60.4837C216.271 60.6006 215.975 60.6591 215.646 60.6591Z" fill="#59587B"/>
<path fill-rule="evenodd" clip-rule="evenodd" d="M33.0466 26.0714C32.2875 26.3115 31.767 26.8657 31.5716 27.642L31.5009 27.9227H29.9972C29.1051 27.9227 28.3628 27.9506 28.1724 27.9914C27.1294 28.2146 26.2902 29.0535 26.0721 30.091C25.9752 30.5514 25.9764 54.3748 26.0732 54.8275C26.2959 55.8681 27.1321 56.7044 28.1724 56.9271C28.6233 57.0236 44.6951 57.0246 45.153 56.9282C46.1806 56.7117 47.0389 55.8535 47.2537 54.8275C47.2967 54.6219 47.3209 53.5959 47.3209 51.9738V49.4411L47.5666 49.2708L47.8124 49.1004L48.5274 49.8137L49.2423 50.5269L49.1294 50.8897C48.9035 51.6159 49.0315 52.575 49.4354 53.1825C49.5341 53.331 50.3182 54.1503 51.1778 55.0031C52.894 56.7058 53.0313 56.8054 53.8559 56.9469C54.7153 57.0942 55.5617 56.8179 56.197 56.1825C56.8323 55.547 57.1086 54.7005 56.9612 53.8409C56.8198 53.0162 56.7202 52.8789 55.0179 51.1624C54.1652 50.3026 53.346 49.5184 53.1975 49.4196C52.5902 49.0156 51.6312 48.8876 50.9052 49.1136L50.5424 49.2266L49.8317 48.5138L49.121 47.8011L49.4596 47.2652C50.5755 45.4989 50.8372 43.2994 50.1664 41.3266C49.7104 39.9859 48.7181 38.6506 47.6282 37.911L47.324 37.7046L47.3225 34.0583C47.3214 31.5747 47.299 30.3096 47.2522 30.091C47.029 29.0477 46.1903 28.2084 45.153 27.9902C44.9666 27.951 44.2016 27.9227 43.3283 27.9227H41.8245L41.7522 27.635C41.585 26.97 41.1694 26.4669 40.5457 26.1744L40.2053 26.0148L36.7535 26.0027C34.0188 25.9931 33.2488 26.0074 33.0466 26.0714ZM39.8983 27.8967C39.976 27.9745 39.9934 28.1521 39.9934 28.8658V29.7397H36.6627H33.332V28.8658C33.332 28.1521 33.3495 27.9745 33.4272 27.8967C33.5113 27.8126 33.8886 27.8015 36.6627 27.8015C39.4369 27.8015 39.8141 27.8126 39.8983 27.8967ZM31.5153 30.2873C31.5153 30.962 31.6367 31.2504 31.9982 31.4349C32.2313 31.5538 32.3468 31.5568 36.6627 31.5568C40.9786 31.5568 41.0942 31.5538 41.3272 31.4349C41.6888 31.2504 41.8101 30.962 41.8101 30.2873V29.7397H43.2962C44.6661 29.7397 44.801 29.7493 45.0213 29.8617C45.1751 29.9402 45.3038 30.0688 45.3823 30.2227C45.4999 30.4534 45.5042 30.5741 45.5042 33.6689V36.8759L45.1862 36.7914C44.2041 36.5301 42.8564 36.5495 41.8404 36.8395L41.3559 36.9777L35.8149 37.008C30.6611 37.0362 30.2602 37.0458 30.0777 37.1456C29.8521 37.2688 29.638 37.6443 29.638 37.9166C29.638 38.2171 29.8522 38.566 30.1209 38.7032C30.3534 38.8218 30.4703 38.8251 34.4267 38.8251H38.4936L38.2832 39.058C38.0107 39.3597 37.6303 39.9222 37.4271 40.3242L37.2662 40.6422H33.813C30.4717 40.6422 30.3522 40.6461 30.1209 40.7641C29.8522 40.9012 29.638 41.2502 29.638 41.5507C29.638 41.8512 29.8522 42.2002 30.1209 42.3373C30.3514 42.4549 30.4723 42.4592 33.5306 42.4592H36.7013L36.6465 42.8984C36.6164 43.1399 36.6051 43.5488 36.6215 43.8069L36.6513 44.2763H33.5056C30.4724 44.2763 30.3513 44.2807 30.1209 44.3982C29.8522 44.5354 29.638 44.8843 29.638 45.1848C29.638 45.4854 29.8522 45.8343 30.1209 45.9715C30.3519 46.0893 30.4719 46.0934 33.7181 46.0934H37.0763L37.3192 46.5931C37.4529 46.8679 37.6861 47.2699 37.8375 47.4865L38.1129 47.8802L34.1934 47.9104C30.5917 47.9382 30.2579 47.9495 30.0777 48.048C29.8521 48.1713 29.638 48.5467 29.638 48.819C29.638 49.1195 29.8522 49.4685 30.1209 49.6056C30.3547 49.7249 30.4682 49.7275 35.3603 49.7275H40.3607L40.6464 49.8713C41.1049 50.1021 41.8066 50.315 42.4792 50.4275C43.2042 50.5487 44.4396 50.5199 45.05 50.3676C45.2498 50.3178 45.4337 50.276 45.4587 50.2748C45.4838 50.2736 45.5042 51.2141 45.5042 52.3647C45.5042 54.3418 45.4974 54.4698 45.3823 54.6957C45.3038 54.8497 45.1751 54.9783 45.0213 55.0568C44.7853 55.1772 44.6809 55.1787 36.6627 55.1787C28.6445 55.1787 28.5401 55.1772 28.3042 55.0568C28.1503 54.9783 28.0217 54.8497 27.9432 54.6957C27.8222 54.4585 27.8213 54.3665 27.8238 42.4465C27.8262 30.9978 27.8314 30.4267 27.9354 30.2316C27.9954 30.119 28.1509 29.9624 28.2811 29.8836C28.5129 29.7433 28.5479 29.7404 30.0165 29.74L31.5153 29.7397V30.2873ZM30.108 33.4988C29.8523 33.6338 29.638 33.9911 29.638 34.2824C29.638 34.583 29.8522 34.9319 30.1209 35.069C30.3559 35.1889 30.4653 35.191 36.6627 35.191C42.8601 35.191 42.9696 35.1889 43.2045 35.069C43.4732 34.9319 43.6874 34.583 43.6874 34.2824C43.6874 33.9819 43.4732 33.6329 43.2045 33.4958C42.9694 33.3759 42.8629 33.3739 36.65 33.3766C30.4816 33.3792 30.3291 33.382 30.108 33.4988ZM44.2735 38.4665C45.2093 38.5957 46.1709 39.0238 46.9208 39.645C47.5996 40.2073 48.3202 41.3499 48.5618 42.2472C48.7009 42.764 48.7467 43.8107 48.6552 44.381C48.3088 46.5378 46.5554 48.2914 44.3977 48.639C43.8276 48.7309 42.7815 48.6852 42.2643 48.5459C41.6943 48.3924 40.832 47.9461 40.3464 47.5535C38.5011 46.0612 37.9207 43.5182 38.9362 41.3744C39.901 39.3376 42.0607 38.161 44.2735 38.4665ZM45.8069 41.0087C45.7237 41.043 44.9954 41.73 44.1885 42.5354L42.7215 43.9997L42.0685 43.3561C41.5442 42.8393 41.3703 42.704 41.1863 42.6695C40.8797 42.6119 40.4602 42.774 40.2873 43.0168C40.1166 43.2567 40.0707 43.7139 40.1938 43.9483C40.344 44.234 42.2411 46.0782 42.4345 46.1264C42.528 46.1498 42.7293 46.1549 42.8818 46.1377C43.1529 46.1071 43.2005 46.0648 45.0601 44.2071C46.1421 43.1262 46.9787 42.2426 47.0018 42.1564C47.1624 41.556 46.8109 41.0205 46.2226 40.9692C46.0773 40.9566 45.8902 40.9743 45.8069 41.0087ZM52.1672 50.9168C52.4646 51.1138 54.9624 53.6397 55.0765 53.8589C55.1408 53.9825 55.1934 54.1676 55.1934 54.2702C55.1934 54.5707 54.9792 54.9197 54.7105 55.0568C54.4109 55.2096 54.1618 55.2114 53.8739 55.0627C53.5535 54.8973 50.9144 52.2232 50.8609 52.0098C50.7827 51.6983 50.8663 51.3075 51.0534 51.1097C51.1488 51.0089 51.2814 50.9036 51.348 50.8758C51.5561 50.7892 52.0086 50.8119 52.1672 50.9168ZM30.108 51.6695C29.8523 51.8045 29.638 52.1618 29.638 52.4531C29.638 52.7537 29.8522 53.1026 30.1209 53.2397C30.3559 53.3596 30.4653 53.3617 36.6627 53.3617C42.8601 53.3617 42.9696 53.3596 43.2045 53.2397C43.4732 53.1026 43.6874 52.7537 43.6874 52.4531C43.6874 52.1526 43.4732 51.8036 43.2045 51.6665C42.9694 51.5466 42.8629 51.5446 36.65 51.5473C30.4816 51.5499 30.3291 51.5527 30.108 51.6695Z" fill="#410EAD"/>
<defs>
<filter id="filter0_d_249_1857" x="0.220215" y="0" width="74.5596" height="83" filterUnits="userSpaceOnUse" color-interpolation-filters="sRGB">
<feFlood flood-opacity="0" result="BackgroundImageFix"/>
<feColorMatrix in="SourceAlpha" type="matrix" values="0 0 0 0 0 0 0 0 0 0 0 0 0 0 0 0 0 0 127 0" result="hardAlpha"/>
<feOffset/>
<feGaussianBlur stdDeviation="5"/>
<feComposite in2="hardAlpha" operator="out"/>
<feColorMatrix type="matrix" values="0 0 0 0 0.596078 0 0 0 0 0.603922 0 0 0 0 0.976471 0 0 0 1 0"/>
<feBlend mode="normal" in2="BackgroundImageFix" result="effect1_dropShadow_249_1857"/>
<feBlend mode="normal" in="SourceGraphic" in2="effect1_dropShadow_249_1857" result="shape"/>
</filter>
</defs>
</svg>
