<svg width="93" height="103" viewBox="0 0 93 103" fill="none" xmlns="http://www.w3.org/2000/svg">
<g filter="url(#filter0_d_2144_2499)">
<path d="M46.5 10L82.4401 30.75V72.25L46.5 93L10.5599 72.25V30.75L46.5 10Z" fill="white"/>
</g>
<path fill-rule="evenodd" clip-rule="evenodd" d="M40.6328 31.1734C39.6327 31.4898 38.947 32.2199 38.6896 33.2426L38.5965 33.6124H36.6153C35.44 33.6124 34.4622 33.6492 34.2113 33.7029C32.8371 33.997 31.7315 35.1022 31.4441 36.4691C31.3166 37.0757 31.3181 68.462 31.4457 69.0584C31.739 70.4293 32.8407 71.5312 34.2113 71.8246C34.8053 71.9517 55.9793 71.9531 56.5825 71.826C57.9364 71.5408 59.0671 70.4102 59.3501 69.0584C59.4068 68.7876 59.4386 67.4358 59.4386 65.2989V61.9621L59.7624 61.7378L60.0862 61.5133L61.0282 62.453L61.9701 63.3926L61.8213 63.8706C61.5236 64.8273 61.6923 66.0909 62.2244 66.8912C62.3545 67.0869 63.3875 68.1663 64.52 69.2898C66.781 71.533 66.9618 71.6643 68.0482 71.8506C69.1805 72.0448 70.2955 71.6807 71.1325 70.8436C71.9695 70.0064 72.3335 68.8912 72.1394 67.7587C71.9531 66.6721 71.8219 66.4913 69.5791 64.2298C68.4557 63.0971 67.3765 62.0639 67.1809 61.9338C66.3808 61.4016 65.1173 61.2329 64.1608 61.5306L63.6829 61.6794L62.7466 60.7404L61.8103 59.8015L62.2562 59.0954C63.7264 56.7684 64.0713 53.8707 63.1875 51.2715C62.5868 49.5052 61.2795 47.746 59.8435 46.7716L59.4428 46.4997L59.4407 41.6958C59.4393 38.4238 59.4098 36.7571 59.3482 36.4691C59.0541 35.0946 57.9491 33.9888 56.5825 33.7014C56.3369 33.6497 55.329 33.6124 54.1785 33.6124H52.1973L52.1021 33.2334C51.8818 32.3573 51.3343 31.6945 50.5126 31.3091L50.0642 31.0988L45.5166 31.0829C41.9136 31.0703 40.8992 31.0891 40.6328 31.1734ZM49.6596 33.5782C49.762 33.6806 49.785 33.9147 49.785 34.8549V36.0063H45.3969H41.0089V34.8549C41.0089 33.9147 41.0318 33.6806 41.1342 33.5782C41.245 33.4674 41.7421 33.4528 45.3969 33.4528C49.0518 33.4528 49.5488 33.4674 49.6596 33.5782ZM38.6154 36.7277C38.6154 37.6166 38.7753 37.9966 39.2516 38.2396C39.5587 38.3963 39.7109 38.4002 45.3969 38.4002C51.0829 38.4002 51.2352 38.3963 51.5422 38.2396C52.0185 37.9966 52.1784 37.6166 52.1784 36.7277V36.0063H54.1363C55.9411 36.0063 56.1187 36.0189 56.409 36.167C56.6117 36.2704 56.7812 36.4399 56.8846 36.6426C57.0395 36.9465 57.0452 37.1056 57.0452 41.1828V45.408L56.6263 45.2966C55.3324 44.9524 53.5569 44.9779 52.2183 45.3599L51.5801 45.5421L44.28 45.582C37.4901 45.6191 36.9618 45.6318 36.7214 45.7632C36.4242 45.9256 36.1421 46.4203 36.1421 46.779C36.1421 47.1749 36.4243 47.6346 36.7783 47.8153C37.0846 47.9715 37.2387 47.9759 42.4511 47.9759H47.809L47.5318 48.2828C47.1728 48.6802 46.6717 49.4214 46.4039 49.9509L46.192 50.3698H41.6426C37.2405 50.3698 37.083 50.375 36.7783 50.5305C36.4243 50.7111 36.1421 51.1708 36.1421 51.5668C36.1421 51.9627 36.4243 52.4225 36.7783 52.6031C37.082 52.7581 37.2413 52.7638 41.2705 52.7638H45.4478L45.3756 53.3423C45.3359 53.6605 45.321 54.1991 45.3426 54.5392L45.3818 55.1577H41.2375C37.2414 55.1577 37.0819 55.1634 36.7783 55.3183C36.4243 55.499 36.1421 55.9587 36.1421 56.3546C36.1421 56.7506 36.4243 57.2103 36.7783 57.391C37.0827 57.5462 37.2407 57.5516 41.5175 57.5516H45.9417L46.2618 58.2099C46.4379 58.572 46.7452 59.1017 46.9447 59.3869L47.3075 59.9056L42.1437 59.9455C37.3986 59.9821 36.9589 59.9969 36.7214 60.1267C36.4242 60.2891 36.1421 60.7838 36.1421 61.1425C36.1421 61.5384 36.4243 61.9981 36.7783 62.1788C37.0864 62.3359 37.236 62.3394 43.681 62.3394H50.2689L50.6452 62.5289C51.2494 62.8329 52.1738 63.1135 53.0599 63.2616C54.015 63.4213 55.6426 63.3834 56.4468 63.1827C56.7101 63.117 56.9524 63.062 56.9853 63.0605C57.0183 63.0589 57.0452 64.2979 57.0452 65.8138C57.0452 68.4186 57.0363 68.5872 56.8846 68.8849C56.7812 69.0876 56.6117 69.2571 56.409 69.3605C56.0981 69.5192 55.9605 69.5212 45.3969 69.5212C34.8333 69.5212 34.6958 69.5192 34.3848 69.3605C34.1821 69.2571 34.0127 69.0876 33.9093 68.8849C33.7499 68.5723 33.7487 68.4511 33.752 52.747C33.7552 37.6638 33.7621 36.9114 33.899 36.6543C33.978 36.5059 34.183 36.2997 34.3544 36.1958C34.6599 36.011 34.706 36.0071 36.6408 36.0067L38.6154 36.0063V36.7277ZM36.7613 40.9587C36.4245 41.1366 36.1421 41.6074 36.1421 41.9911C36.1421 42.3871 36.4243 42.8468 36.7783 43.0274C37.0879 43.1854 37.2321 43.1881 45.3969 43.1881C53.5617 43.1881 53.7059 43.1854 54.0155 43.0274C54.3695 42.8468 54.6517 42.3871 54.6517 41.9911C54.6517 41.5952 54.3695 41.1355 54.0155 40.9548C53.7058 40.7968 53.5654 40.7942 45.3802 40.7977C37.2536 40.8011 37.0527 40.8049 36.7613 40.9587ZM55.4238 47.5035C56.6567 47.6737 57.9236 48.2376 58.9115 49.0561C59.8059 49.7969 60.7551 51.3022 61.0735 52.4845C61.2568 53.1652 61.3171 54.5443 61.1965 55.2956C60.7401 58.1371 58.4301 60.4474 55.5875 60.9054C54.8364 61.0264 53.4582 60.9663 52.7768 60.7827C52.0259 60.5805 50.8898 59.9925 50.2501 59.4753C47.819 57.5091 47.0543 54.1588 48.3922 51.3345C49.6633 48.6512 52.5086 47.101 55.4238 47.5035ZM57.4441 50.8527C57.3344 50.8979 56.3749 51.8031 55.3119 52.8641L53.3792 54.7933L52.5189 53.9454C51.828 53.2645 51.599 53.0862 51.3565 53.0407C50.9526 52.9649 50.3999 53.1785 50.1722 53.4984C49.9472 53.8144 49.8868 54.4168 50.049 54.7255C50.2468 55.1019 52.7462 57.5316 53.001 57.5952C53.1243 57.626 53.3895 57.6326 53.5903 57.6099C53.9475 57.5696 54.0102 57.514 56.4601 55.0665C57.8856 53.6425 58.9879 52.4783 59.0182 52.3648C59.2299 51.5738 58.7668 50.8682 57.9917 50.8007C57.8002 50.7841 57.5538 50.8074 57.4441 50.8527ZM65.8234 63.9063C66.2153 64.1657 69.506 67.4935 69.6563 67.7824C69.741 67.9453 69.8104 68.189 69.8104 68.3242C69.8104 68.7202 69.5282 69.1799 69.1742 69.3605C68.7795 69.5619 68.4513 69.5643 68.0719 69.3684C67.6499 69.1504 64.1729 65.6274 64.1024 65.3462C63.9994 64.9359 64.1096 64.421 64.3561 64.1604C64.4818 64.0275 64.6564 63.8888 64.7442 63.8523C65.0183 63.7382 65.6145 63.768 65.8234 63.9063ZM36.7613 64.8979C36.4245 65.0758 36.1421 65.5466 36.1421 65.9303C36.1421 66.3263 36.4243 66.786 36.7783 66.9666C37.0879 67.1245 37.2321 67.1273 45.3969 67.1273C53.5617 67.1273 53.7059 67.1245 54.0155 66.9666C54.3695 66.786 54.6517 66.3263 54.6517 65.9303C54.6517 65.5343 54.3695 65.0746 54.0155 64.894C53.7058 64.736 53.5654 64.7334 45.3802 64.7369C37.2536 64.7403 37.0527 64.744 36.7613 64.8979Z" fill="#410EAD"/>
<defs>
<filter id="filter0_d_2144_2499" x="0.559937" y="0" width="91.8801" height="103" filterUnits="userSpaceOnUse" color-interpolation-filters="sRGB">
<feFlood flood-opacity="0" result="BackgroundImageFix"/>
<feColorMatrix in="SourceAlpha" type="matrix" values="0 0 0 0 0 0 0 0 0 0 0 0 0 0 0 0 0 0 127 0" result="hardAlpha"/>
<feOffset/>
<feGaussianBlur stdDeviation="5"/>
<feComposite in2="hardAlpha" operator="out"/>
<feColorMatrix type="matrix" values="0 0 0 0 0.596078 0 0 0 0 0.603922 0 0 0 0 0.976471 0 0 0 1 0"/>
<feBlend mode="normal" in2="BackgroundImageFix" result="effect1_dropShadow_2144_2499"/>
<feBlend mode="normal" in="SourceGraphic" in2="effect1_dropShadow_2144_2499" result="shape"/>
</filter>
</defs>
</svg>
