<svg width="96" height="30" viewBox="0 0 96 30" fill="none" xmlns="http://www.w3.org/2000/svg">
<g opacity="0.7">
<path fill-rule="evenodd" clip-rule="evenodd" d="M13.851 0.606384C21.3968 0.606384 27.5139 7.10362 27.5139 15.1184C27.5139 23.1331 21.3968 29.6303 13.851 29.6303C6.3052 29.6303 0.18811 23.1331 0.18811 15.1184C0.18811 7.10362 6.3052 0.606384 13.851 0.606384ZM18.2561 11.4611L8.62289 11.5116L6.30901 15.1528L11.7332 15.1549L9.39038 18.8209L19.0861 18.7549L21.3928 15.125L15.9497 15.153L18.2561 11.4611Z" fill="#2D2D2D"/>
<path d="M37.0426 20.8582V18.1855L42.7725 10.6908H37.1786V8.0722H46.4111V10.5463L40.5452 18.1855H46.5301V20.8582H37.0426ZM53.06 16.9394H52.703C52.3969 16.9394 52.0852 16.9575 51.7678 16.9935C51.4617 17.0177 51.184 17.0719 50.9346 17.1561C50.6966 17.2404 50.4982 17.3668 50.3396 17.5353C50.1808 17.6918 50.1015 17.9025 50.1015 18.1674C50.1015 18.336 50.1356 18.4805 50.2035 18.6009C50.2829 18.7212 50.3791 18.8175 50.4926 18.8897C50.6059 18.962 50.7362 19.0162 50.8837 19.0523C51.031 19.0764 51.1727 19.0884 51.3088 19.0884C51.8754 19.0884 52.3062 18.9259 52.6009 18.6009C52.907 18.2638 53.06 17.8123 53.06 17.2463V16.9394ZM47.9422 13.0928C48.4408 12.587 49.019 12.2078 49.6764 11.955C50.3451 11.7022 51.0253 11.5758 51.7168 11.5758C52.4309 11.5758 53.0316 11.6721 53.519 11.8647C54.0177 12.0453 54.4202 12.3342 54.7263 12.7315C55.0323 13.1168 55.2534 13.6104 55.3894 14.2125C55.5367 14.8023 55.6104 15.5066 55.6104 16.3253V20.8582H53.06V19.9011H53.009C52.7935 20.2742 52.4649 20.5632 52.0228 20.768C51.592 20.9727 51.1217 21.0749 50.6116 21.0749C50.2716 21.0749 49.9201 21.0269 49.5574 20.9304C49.1947 20.8341 48.8604 20.6776 48.5543 20.4609C48.2595 20.2442 48.0157 19.9553 47.8232 19.5941C47.6304 19.2329 47.5341 18.7875 47.5341 18.2577C47.5341 17.6076 47.6985 17.0839 48.0272 16.6865C48.3672 16.2892 48.7979 15.9823 49.3194 15.7655C49.8521 15.5488 50.4416 15.4043 51.0877 15.3321C51.7338 15.2599 52.3629 15.2237 52.975 15.2237V15.0792C52.975 14.6338 52.8275 14.3088 52.5329 14.104C52.2381 13.8874 51.8754 13.779 51.4447 13.779C51.048 13.779 50.6627 13.8693 50.2885 14.0499C49.9258 14.2304 49.614 14.4472 49.3534 14.7L47.9422 13.0928ZM67.111 16.3253C67.111 16.9514 67.0204 17.5534 66.839 18.1313C66.6576 18.7092 66.3913 19.2209 66.0398 19.6664C65.6998 20.0998 65.2804 20.449 64.7817 20.7138C64.283 20.9786 63.7162 21.1111 63.0814 21.1111C62.56 21.1111 62.0669 21.0027 61.6022 20.786C61.1375 20.5573 60.7747 20.2503 60.514 19.865H60.48V25.1925H57.6915V11.8647H60.344V12.9663H60.3949C60.6557 12.6051 61.0128 12.2921 61.4661 12.0273C61.9309 11.7503 62.475 11.6119 63.0984 11.6119C63.7105 11.6119 64.266 11.7383 64.7646 11.9911C65.2634 12.244 65.6828 12.587 66.0228 13.0205C66.3743 13.4539 66.6407 13.9595 66.822 14.5375C67.0148 15.1034 67.111 15.6994 67.111 16.3253ZM64.4076 16.3253C64.4076 16.0364 64.3623 15.7535 64.2716 15.4765C64.1923 15.1997 64.0676 14.9589 63.8975 14.7542C63.7389 14.5375 63.5349 14.3629 63.2854 14.2304C63.0361 14.098 62.7471 14.0318 62.4183 14.0318C62.101 14.0318 61.8176 14.098 61.5681 14.2304C61.3188 14.3629 61.1035 14.5375 60.922 14.7542C60.752 14.9709 60.616 15.2176 60.514 15.4946C60.4234 15.7716 60.3779 16.0545 60.3779 16.3434C60.3779 16.6324 60.4234 16.9152 60.514 17.1922C60.616 17.4692 60.752 17.7159 60.922 17.9326C61.1035 18.1494 61.3188 18.3239 61.5681 18.4564C61.8176 18.5888 62.101 18.655 62.4183 18.655C62.7471 18.655 63.0361 18.5888 63.2854 18.4564C63.5349 18.3239 63.7389 18.1494 63.8975 17.9326C64.0676 17.7159 64.1923 17.4692 64.2716 17.1922C64.3623 16.9033 64.4076 16.6143 64.4076 16.3253ZM78.2857 16.3253C78.2857 16.9514 78.195 17.5534 78.0137 18.1313C77.8323 18.7092 77.5659 19.2209 77.2145 19.6664C76.8745 20.0998 76.4551 20.449 75.9563 20.7138C75.4576 20.9786 74.8909 21.1111 74.256 21.1111C73.7347 21.1111 73.2416 21.0027 72.7769 20.786C72.312 20.5573 71.9494 20.2503 71.6886 19.865H71.6546V25.1925H68.8662V11.8647H71.5186V12.9663H71.5696C71.8304 12.6051 72.1874 12.2921 72.6408 12.0273C73.1056 11.7503 73.6497 11.6119 74.2731 11.6119C74.8851 11.6119 75.4405 11.7383 75.9393 11.9911C76.4381 12.244 76.8575 12.587 77.1975 13.0205C77.5489 13.4539 77.8153 13.9595 77.9967 14.5375C78.1894 15.1034 78.2857 15.6994 78.2857 16.3253ZM75.5823 16.3253C75.5823 16.0364 75.537 15.7535 75.4463 15.4765C75.3669 15.1997 75.2422 14.9589 75.0722 14.7542C74.9134 14.5375 74.7094 14.3629 74.4601 14.2304C74.2107 14.098 73.9217 14.0318 73.5929 14.0318C73.2756 14.0318 72.9921 14.098 72.7428 14.2304C72.4935 14.3629 72.2781 14.5375 72.0967 14.7542C71.9267 14.9709 71.7906 15.2176 71.6886 15.4946C71.5979 15.7716 71.5526 16.0545 71.5526 16.3434C71.5526 16.6324 71.5979 16.9152 71.6886 17.1922C71.7906 17.4692 71.9267 17.7159 72.0967 17.9326C72.2781 18.1494 72.4935 18.3239 72.7428 18.4564C72.9921 18.5888 73.2756 18.655 73.5929 18.655C73.9217 18.655 74.2107 18.5888 74.4601 18.4564C74.7094 18.3239 74.9134 18.1494 75.0722 17.9326C75.2422 17.7159 75.3669 17.4692 75.4463 17.1922C75.537 16.9033 75.5823 16.6143 75.5823 16.3253ZM85.8731 15.3321C85.8731 14.8626 85.7308 14.4592 85.4477 14.1221C85.1754 13.7851 84.7623 13.6165 84.2069 13.6165C83.9345 13.6165 83.6851 13.6646 83.4585 13.7609C83.2319 13.8451 83.0331 13.9656 82.863 14.1221C82.6937 14.2786 82.5571 14.4653 82.4557 14.6819C82.3534 14.8866 82.2962 15.1034 82.2855 15.3321H85.8731ZM88.4398 16.4698C88.4398 16.5901 88.4398 16.7107 88.4398 16.831C88.4398 16.9514 88.4341 17.0658 88.4235 17.1741H82.2855C82.3076 17.427 82.3763 17.6557 82.4892 17.8604C82.6143 18.0651 82.7673 18.2457 82.9481 18.4022C83.1411 18.5467 83.3505 18.6611 83.5771 18.7453C83.8151 18.8295 84.0589 18.8718 84.3083 18.8718C84.7509 18.8718 85.1246 18.7875 85.4306 18.6189C85.7365 18.4383 85.986 18.2096 86.179 17.9326L88.1176 19.2329C87.72 19.8469 87.1933 20.3225 86.5356 20.6596C85.8894 20.9847 85.1361 21.1472 84.2748 21.1472C83.6401 21.1472 83.0389 21.0449 82.472 20.8402C81.9052 20.6235 81.407 20.3165 80.976 19.9192C80.5564 19.5099 80.2222 19.0102 79.9728 18.4203C79.7348 17.8303 79.6158 17.1561 79.6158 16.3976C79.6158 15.6632 79.7348 15.001 79.9728 14.4111C80.2109 13.8091 80.5343 13.3034 80.9416 12.8941C81.3498 12.4727 81.8316 12.1476 82.3869 11.9189C82.9423 11.6901 83.5435 11.5758 84.1897 11.5758C84.813 11.5758 85.3856 11.6901 85.9066 11.9189C86.4285 12.1356 86.8759 12.4546 87.2497 12.876C87.6243 13.2974 87.9131 13.8091 88.1176 14.4111C88.3327 15.0131 88.4398 15.6994 88.4398 16.4698ZM95.6616 14.2846C95.5364 14.2485 95.4121 14.2244 95.287 14.2125C95.1741 14.2004 95.0604 14.1944 94.9475 14.1944C94.5729 14.1944 94.2555 14.2666 93.9954 14.4111C93.7459 14.5555 93.5414 14.7301 93.3827 14.9348C93.2355 15.1395 93.1275 15.3621 93.0597 15.6029C92.9918 15.8438 92.9582 16.0545 92.9582 16.2351V20.8582H90.169V11.8647H92.856V13.165H92.8895C93.1055 12.7074 93.4114 12.3342 93.8081 12.0453C94.2048 11.7564 94.6637 11.6119 95.1855 11.6119C95.2984 11.6119 95.4064 11.6179 95.5086 11.6299C95.6215 11.642 95.7123 11.66 95.7802 11.6841L95.6616 14.2846Z" fill="#2D2D2D"/>
</g>
</svg>
