<svg width="15" height="15" viewBox="0 0 15 15" fill="none" xmlns="http://www.w3.org/2000/svg">
<path d="M1.97378 9.13458C1.69039 9.10065 1.42297 9.09866 1.1755 9.0328C0.654623 8.8931 0.257479 8.58776 0.0678877 8.0589C-0.0199229 7.81542 -0.0239144 7.56596 0.0638963 7.32049C0.8043 5.28089 1.54271 3.23929 2.29109 1.20169C2.46672 0.724714 2.74212 0.311605 3.24304 0.118022C3.41068 0.0521643 3.59828 0.0062634 3.77789 0.0062634C6.27051 -0.00171939 8.76314 -0.00171944 11.2558 0.00426765C11.7647 0.00426765 12.1778 0.233773 12.4512 0.658856C12.6188 0.918297 12.7505 1.20767 12.8563 1.49705C13.5368 3.36303 14.1795 5.24497 14.8919 7.09897C15.2372 7.99903 14.7083 8.74941 13.9699 8.99488C13.7324 9.07271 13.469 9.0807 13.2155 9.10065C13.1018 9.11063 13.0459 9.12061 13.024 9.25632C12.7984 10.6533 12.5689 12.0483 12.3294 13.4433C12.2057 14.1697 11.8545 14.7265 11.1021 14.9381C10.9544 14.98 10.7948 14.99 10.6391 14.99C8.57554 14.9939 6.51199 14.978 4.45044 14.9979C3.50647 15.0079 2.87982 14.3952 2.72815 13.587C2.55652 12.667 2.41283 11.743 2.25717 10.8209C2.16137 10.2562 2.06758 9.69138 1.97378 9.13458ZM11.7946 8.03096C12.3494 8.03096 12.8783 8.04493 13.4071 8.02298C13.5568 8.01699 13.7045 7.91721 13.8462 7.84337C13.948 7.79148 13.9599 7.70367 13.918 7.58792C13.2155 5.65209 12.521 3.71227 11.8186 1.77645C11.7507 1.58885 11.6489 1.41323 11.5531 1.2396C11.4873 1.11787 11.3755 1.07197 11.2318 1.07197C8.75515 1.07396 6.28049 1.07396 3.80383 1.07197C3.66014 1.07197 3.54838 1.11787 3.48252 1.2396C3.37675 1.43518 3.27098 1.63276 3.19514 1.84031C2.50862 3.71626 1.83009 5.59621 1.14956 7.47416C1.04777 7.75755 1.07971 7.83738 1.35511 7.95912C1.42496 7.99105 1.50279 8.02497 1.57663 8.02697C2.12146 8.03296 2.66628 8.03096 3.22708 8.03096C3.22708 7.97708 3.22708 7.93317 3.22708 7.88927C3.22708 7.39832 3.22308 6.90738 3.22907 6.41644C3.23306 6.1131 3.46855 5.88758 3.76392 5.88758C4.06128 5.88758 4.28879 6.1111 4.29677 6.41445C4.30076 6.54816 4.29677 6.68187 4.29677 6.81558C4.29677 7.21472 4.29677 7.61586 4.29677 8.02098H6.973C6.973 7.49212 6.973 6.97524 6.973 6.45835C6.973 6.11908 7.19851 5.88359 7.51583 5.88559C7.82316 5.88758 8.04269 6.12108 8.04269 6.45436C8.04469 6.91736 8.04269 7.38036 8.04269 7.84337C8.04269 7.90324 8.04269 7.96111 8.04269 8.01899H10.7189C10.7189 7.94515 10.7189 7.88527 10.7189 7.82341C10.7189 7.35442 10.7149 6.88743 10.7189 6.41844C10.7229 6.08715 10.9863 5.85765 11.3156 5.88758C11.587 5.91153 11.7866 6.14303 11.7886 6.44239C11.7906 6.96526 11.7886 7.48813 11.7886 8.02896L11.7946 8.03096ZM3.06742 9.11063C3.06742 9.14057 3.06742 9.15254 3.06742 9.16252C3.25701 10.3041 3.44261 11.4476 3.63619 12.5891C3.69008 12.9064 3.74396 13.2258 3.83177 13.5351C3.89763 13.7666 4.05729 13.9223 4.33269 13.9223C6.45013 13.9183 8.56956 13.9203 10.687 13.9223C10.8886 13.9223 11.0342 13.8424 11.126 13.6728C11.1859 13.561 11.2398 13.4393 11.2598 13.3176C11.4314 12.3257 11.595 11.3298 11.7607 10.336C11.8285 9.93086 11.8944 9.52574 11.9642 9.11063H3.06742Z" fill="#410EAD"/>
</svg>
