<svg width="15" height="15" viewBox="0 0 15 15" fill="none" xmlns="http://www.w3.org/2000/svg">
<path d="M7.17615 14.9985C6.90044 14.9686 6.62472 14.9405 6.34901 14.9089C6.28227 14.9019 6.21378 14.8914 6.14881 14.8703C5.99953 14.8247 5.92051 14.6948 5.94334 14.5438C5.96441 14.4051 6.08032 14.305 6.2331 14.3068C6.32091 14.3068 6.40871 14.3208 6.49477 14.3331C10 14.8422 13.2981 12.6548 14.1972 9.22435C14.7276 7.20191 14.2499 4.86698 12.9802 3.29397C12.8819 3.3203 12.7818 3.35541 12.6782 3.37648C12.0863 3.49411 11.4963 3.08681 11.3874 2.48815C11.2785 1.88423 11.6807 1.29611 12.2725 1.19428C12.8994 1.08719 13.4772 1.49624 13.5738 2.10368C13.6107 2.34419 13.5826 2.57242 13.4684 2.78485C13.4228 2.86912 13.4351 2.92178 13.4877 2.99025C14.076 3.76973 14.5081 4.62997 14.7399 5.57975C14.8523 6.0362 14.8997 6.51021 14.9752 6.97544C14.984 7.03162 14.991 7.08955 14.9998 7.14749V7.93926C14.991 7.99017 14.9805 8.04284 14.9734 8.09375C14.9383 8.36411 14.9172 8.63798 14.8663 8.90483C14.5818 10.3988 13.9022 11.6892 12.8327 12.7689C11.7123 13.9012 10.3653 14.6123 8.7918 14.8844C8.50906 14.9335 8.22281 14.9616 7.93832 15.0002H7.17615V14.9985ZM12.4727 2.80943C12.7642 2.81294 13.0065 2.57418 13.0065 2.28275C13.0065 1.99834 12.773 1.75958 12.4867 1.75607C12.1952 1.75081 11.9546 1.99132 11.9546 2.28275C11.9546 2.56891 12.1864 2.80416 12.4727 2.80767V2.80943Z" fill="#410EAD"/>
<path d="M7.20628 10.9023C6.92705 10.9023 6.66187 10.9304 6.40372 10.897C4.97422 10.7127 4.00131 9.32752 4.2823 7.91778C4.34025 7.6246 4.46669 7.44378 4.77577 7.42446C4.80914 7.42271 4.84251 7.40866 4.87412 7.39989C4.87763 7.39989 4.87939 7.39286 4.8829 7.38935C4.76875 7.22257 4.64231 7.06106 4.54221 6.8855C4.20503 6.28333 4.16639 5.64605 4.33674 4.98595C4.3701 4.85604 4.4544 4.77879 4.58435 4.74192C5.02163 4.61903 5.46067 4.61377 5.90146 4.7191C5.95766 4.73315 6.01386 4.74895 6.07005 4.76299C6.07356 4.76299 6.07883 4.76123 6.09639 4.75597C6.0841 4.67346 6.07005 4.58743 6.05776 4.50141C5.91375 3.45859 6.38791 2.49126 7.29935 1.96634C7.44336 1.88382 7.56804 1.88734 7.71029 1.96634C8.6428 2.49652 9.12926 3.55339 8.9273 4.62254C8.91852 4.66468 8.91325 4.70681 8.90798 4.74017C9.16789 4.70857 9.42078 4.65239 9.67366 4.65063C9.91952 4.65063 10.1654 4.70154 10.4112 4.74017C10.557 4.76299 10.6378 4.8613 10.6712 5.00351C10.8731 5.83214 10.7484 6.59056 10.2023 7.26295C10.1724 7.29982 10.1426 7.33668 10.0969 7.39286C10.197 7.41393 10.2795 7.435 10.3621 7.4508C10.5394 7.48415 10.6343 7.58949 10.6834 7.7668C11.0751 9.20112 10.0828 10.7092 8.60768 10.8953C8.34602 10.9286 8.07557 10.9005 7.79459 10.9005V11.1481C7.79459 11.6607 7.79459 12.1733 7.79459 12.686C7.79459 12.7299 7.79634 12.7737 7.79107 12.8176C7.76824 12.9862 7.63829 13.1003 7.48375 13.0915C7.32745 13.0827 7.2133 12.9616 7.20979 12.786C7.20452 12.4788 7.20803 12.1716 7.20803 11.8626C7.20803 11.5466 7.20803 11.2288 7.20803 10.9023H7.20628ZM8.38289 4.24509C8.37236 3.50599 8.11596 2.98985 7.60492 2.6001C7.53292 2.54393 7.48024 2.53866 7.40121 2.59484C6.35982 3.34799 6.35982 4.95259 7.3977 5.70399C7.48199 5.76543 7.53468 5.75841 7.61195 5.69872C8.11772 5.30371 8.37763 4.78932 8.38289 4.24509ZM10.1777 5.68994C10.1724 5.5969 10.1636 5.5056 10.1601 5.41256C10.1566 5.3002 10.0986 5.25807 9.98977 5.24402C8.72534 5.06671 7.62424 6.18151 7.81566 7.44553C7.82971 7.53682 7.85605 7.57544 7.9544 7.59125C9.10818 7.77734 10.1759 6.86619 10.1777 5.68994ZM4.82495 8.41462C4.82143 9.58384 5.90673 10.5143 7.04296 10.3194C7.13779 10.3036 7.1694 10.2685 7.18345 10.1737C7.35731 9.00801 6.4564 7.95114 5.27628 7.96343C4.7986 7.9687 4.84953 7.93183 4.82495 8.41462ZM4.82495 5.68994C4.82319 6.86619 5.88917 7.77734 7.04296 7.58949C7.12725 7.57545 7.16589 7.55087 7.18169 7.45958C7.36609 6.30089 6.46167 5.22998 5.28857 5.237C4.79509 5.24051 4.84953 5.2054 4.82495 5.68994ZM9.73161 7.95992C8.54797 7.9529 7.64531 9.00274 7.81742 10.1807C7.82971 10.2668 7.85781 10.3019 7.94913 10.3177C9.09062 10.5178 10.1865 9.58559 10.1724 8.40935C10.1671 7.93359 10.2005 7.98801 9.73337 7.95992H9.73161Z" fill="#410EAD"/>
<path d="M2.02736 11.7083C2.65606 11.4274 3.28827 11.7311 3.51657 12.2279C3.70799 12.6422 3.66935 13.0408 3.38661 13.3971C3.09509 13.7641 2.70171 13.8975 2.25039 13.7851C1.79906 13.671 1.52334 13.3673 1.42851 12.9091C1.37758 12.6651 1.4127 12.4298 1.52861 12.2139C1.57427 12.1314 1.56549 12.0787 1.51105 12.0085C1.06499 11.4168 0.712003 10.7725 0.459118 10.0756C0.0938404 9.07137 -0.0554319 8.03733 0.0183262 6.96993C0.11667 5.54088 0.580292 4.24174 1.43202 3.09183C2.62796 1.47494 4.21727 0.472493 6.20171 0.114353C7.13598 -0.0541833 8.06674 -0.0313606 8.99574 0.149465C9.22755 0.19511 9.34345 0.368914 9.26443 0.558517C9.20472 0.70072 9.09057 0.751632 8.94481 0.734076C8.73758 0.705987 8.53036 0.665608 8.32313 0.64103C6.5986 0.442648 5.00929 0.8201 3.58506 1.8085C1.93252 2.9549 0.938546 4.53844 0.65405 6.52928C0.38536 8.41829 0.852495 10.1388 1.98521 11.6767C1.99399 11.6872 2.00628 11.696 2.02384 11.7135L2.02736 11.7083ZM2.52259 12.1858C2.23107 12.1858 1.99048 12.4245 1.99223 12.7142C1.99399 12.9986 2.23107 13.2356 2.51556 13.2374C2.80006 13.2391 3.04065 13.0056 3.04416 12.7212C3.04943 12.4281 2.81411 12.1858 2.52259 12.184V12.1858Z" fill="#410EAD"/>
<path d="M10.2036 1.10288C10.0438 1.10463 9.90158 0.964184 9.90334 0.806181C9.90334 0.648178 10.0368 0.52002 10.1949 0.52002C10.3529 0.52002 10.4864 0.649933 10.4881 0.804425C10.4899 0.960672 10.3564 1.09936 10.2054 1.10112L10.2036 1.10288Z" fill="#410EAD"/>
<path d="M4.8231 14.4768C4.66329 14.4768 4.52983 14.3522 4.52456 14.1977C4.51929 14.0362 4.65803 13.8957 4.81784 13.8975C4.97589 13.901 5.10584 14.0309 5.1076 14.1871C5.1076 14.3504 4.98467 14.4751 4.8231 14.4768Z" fill="#410EAD"/>
</svg>
