<svg width="14" height="15" viewBox="0 0 14 15" fill="none" xmlns="http://www.w3.org/2000/svg">
<path d="M6.52624 12.4732C6.73413 12.5654 6.76172 12.6085 6.76172 12.8378C6.76172 13.4494 6.76172 14.059 6.76172 14.6706C6.76172 14.9156 6.68261 14.9999 6.45265 14.9999C5.404 14.9999 4.35535 14.9999 3.3067 14.9999C3.07489 14.9999 2.99762 14.9175 2.99762 14.6725C2.99762 14.061 2.99762 13.4514 2.99762 12.8398C2.99762 12.6085 3.02522 12.5654 3.23127 12.4752C3.23127 12.2792 3.23863 12.0812 3.22943 11.8833C3.21839 11.6578 3.10984 11.4814 2.95163 11.3344C2.46594 10.8777 1.9876 10.4151 1.50007 9.96428C1.25355 9.73691 1.09901 9.46641 1.01622 9.12927C0.701627 7.84342 0.375994 6.5615 0.0485203 5.27762C-0.0747421 4.79738 0.0338024 4.40536 0.409109 4.09958C0.442224 4.07214 0.464301 4.00549 0.466141 3.95649C0.477179 3.43706 0.793614 3.01955 1.24067 2.94114C1.70796 2.85882 2.15502 3.16264 2.31508 3.65855C2.64807 4.6935 2.98474 5.72649 3.32509 6.75947C3.34349 6.81632 3.39132 6.87512 3.441 6.90648C4.09778 7.32203 4.75825 7.7317 5.41503 8.14332C6.15829 8.60984 6.52992 9.30176 6.52808 10.223C6.52808 10.9738 6.52808 11.7264 6.52808 12.4732H6.52624ZM6.05526 12.4889C6.05526 12.4419 6.05526 12.4066 6.05526 12.3713C6.05526 11.6245 6.06262 10.8777 6.05342 10.1309C6.04422 9.48993 5.7793 8.98814 5.27153 8.63924C5.11516 8.53143 4.95142 8.43538 4.79136 8.33542C4.25968 8.0022 3.728 7.66897 3.19263 7.33967C2.90931 7.16522 2.59104 7.27499 2.48801 7.57881C2.40338 7.82578 2.48801 8.05904 2.71982 8.20409C3.15216 8.47263 3.5845 8.73528 4.01499 9.00578C4.1493 9.09007 4.18425 9.22532 4.11802 9.35272C4.05179 9.47817 3.91749 9.51934 3.78871 9.44093C3.32509 9.15867 2.85964 8.88229 2.40522 8.58239C2.04464 8.34522 1.88642 7.86107 2.0428 7.44356C2.11087 7.25931 2.10351 7.10838 2.03912 6.93981C2.02256 6.89668 2.01152 6.84964 1.99864 6.80652C1.79811 6.14595 1.59942 5.48735 1.39889 4.82679C1.32346 4.57981 1.13213 4.4328 0.903998 4.43868C0.708986 4.44456 0.525012 4.59549 0.486378 4.81307C0.46798 4.92087 0.477179 5.0424 0.504775 5.15021C0.830409 6.45565 1.1634 7.75914 1.48903 9.06262C1.53687 9.25668 1.62702 9.41349 1.76867 9.54678C2.26172 10.0094 2.74742 10.4798 3.2423 10.9404C3.55874 11.2344 3.71696 11.5951 3.70592 12.042C3.70224 12.191 3.70592 12.34 3.70592 12.4929H6.05894L6.05526 12.4889ZM3.47043 14.4843H6.28155V13.0044H3.47043V14.4843ZM2.81733 6.74967C2.65543 6.2518 2.49905 5.76961 2.34267 5.28742C2.18262 4.79543 2.0244 4.30343 1.86434 3.81144C1.77971 3.55074 1.53871 3.39001 1.30506 3.43706C1.09717 3.47822 0.942633 3.68403 0.946312 3.92513C1.46328 3.98001 1.76316 4.29755 1.88826 4.82287C1.91769 4.94439 1.96001 5.06004 1.9968 5.17961C2.16606 5.73433 2.33347 6.28708 2.50457 6.84572C2.61127 6.8124 2.70878 6.783 2.81733 6.74967Z" fill="#410EAD"/>
<path d="M10.763 12.4736C10.9709 12.5657 10.9985 12.6088 10.9985 12.8381C10.9985 13.4497 10.9985 14.0593 10.9985 14.6709C10.9985 14.9159 10.9194 15.0002 10.6894 15.0002C9.64075 15.0002 8.5921 15.0002 7.54345 15.0002C7.31164 15.0002 7.23438 14.9178 7.23438 14.6728C7.23438 14.0613 7.23438 13.4517 7.23438 12.8401C7.23438 12.6108 7.26197 12.5657 7.46986 12.4755C7.46986 11.7542 7.47906 11.0289 7.46802 10.3037C7.4533 9.31188 7.84701 8.58467 8.65833 8.0966C9.29304 7.71437 9.91855 7.31451 10.5459 6.9166C10.6029 6.88132 10.6563 6.81271 10.6765 6.74607C11.0169 5.71308 11.3535 4.68009 11.6902 3.64514C11.8503 3.15119 12.29 2.85913 12.7554 2.9395C13.2043 3.0179 13.5208 3.43541 13.5336 3.95484C13.5336 4.00777 13.5631 4.07637 13.5999 4.10774C13.9549 4.40568 14.0727 4.78202 13.9568 5.24657C13.6643 6.41481 13.3699 7.58304 13.0774 8.75128C12.8456 9.67842 12.8879 9.59414 12.2127 10.2331C11.8319 10.5938 11.4529 10.9584 11.0684 11.3132C10.8568 11.5072 10.7501 11.7424 10.7648 12.0404C10.7722 12.1854 10.7648 12.3324 10.7648 12.4755L10.763 12.4736ZM10.292 12.4853C10.292 12.3207 10.2939 12.1697 10.292 12.0188C10.2828 11.5837 10.4374 11.2308 10.7446 10.9447C11.2432 10.4821 11.7417 10.0156 12.2256 9.53533C12.3452 9.41772 12.45 9.24915 12.4942 9.0845C12.8382 7.76338 13.1675 6.43833 13.4987 5.11328C13.5778 4.79574 13.4508 4.52916 13.1914 4.4488C12.9431 4.37235 12.6855 4.54288 12.5935 4.84082C12.3654 5.58959 12.1354 6.33836 11.9147 7.08909C11.8926 7.16358 11.8999 7.26354 11.9275 7.33607C12.0306 7.61833 12.0508 7.9045 11.9147 8.16912C11.8319 8.32789 11.7141 8.49058 11.5743 8.58467C11.1328 8.88261 10.671 9.14919 10.2184 9.42948C10.1191 9.49025 10.0087 9.50593 9.93695 9.41184C9.88544 9.3452 9.856 9.23151 9.86704 9.14723C9.87624 9.08254 9.95719 9.0159 10.0216 8.9767C10.43 8.71992 10.8421 8.46706 11.2542 8.21617C11.3959 8.12992 11.5062 8.01623 11.5302 7.83394C11.5559 7.63205 11.5007 7.45956 11.337 7.34195C11.1659 7.2165 10.9874 7.22042 10.8108 7.33019C10.1393 7.74965 9.46598 8.16716 8.79447 8.58859C8.22783 8.94533 7.94267 9.47653 7.93899 10.1783C7.93531 10.8996 7.93899 11.6189 7.93899 12.3403C7.93899 12.3854 7.93899 12.4304 7.93899 12.4834H10.292V12.4853ZM7.71271 13.0008V14.4866H10.5165V13.0008H7.71271ZM13.0516 3.92544C13.0424 3.67259 12.8897 3.47461 12.6837 3.43737C12.4482 3.39425 12.2219 3.54518 12.1373 3.80588C11.8282 4.7487 11.521 5.69348 11.2137 6.63826C11.2027 6.6755 11.1935 6.71275 11.1825 6.75195C11.2928 6.78527 11.3885 6.81467 11.4915 6.84604C11.7049 6.14431 11.922 5.45238 12.1226 4.75654C12.2642 4.26455 12.5567 3.98033 13.0498 3.92544H13.0516Z" fill="#410EAD"/>
<path d="M6.99907 0.7381C7.37438 0.351954 7.8104 0.12458 8.31265 0.0324536C9.60046 -0.202762 10.8975 0.871389 11.0005 2.2572C11.0612 3.07261 10.8184 3.76454 10.2756 4.34082C9.26195 5.41693 8.25194 6.495 7.24008 7.57307C7.04139 7.78476 6.95124 7.78476 6.75071 7.57307C5.71494 6.46952 4.66997 5.3738 3.64523 4.25849C2.53219 3.04713 2.85231 1.0478 4.26706 0.27943C5.11518 -0.1812 6.16199 -0.0420314 6.87581 0.626373C6.91261 0.659695 6.9494 0.694977 6.99723 0.74006L6.99907 0.7381ZM6.97332 7.12616C7.01563 7.0948 7.02851 7.08696 7.03771 7.07716C8.03485 6.01477 9.04118 4.95826 10.0273 3.88411C10.7356 3.11182 10.7061 1.86321 9.99233 1.09876C9.27667 0.334313 8.11763 0.310792 7.37622 1.0478C7.30447 1.11836 7.23824 1.19677 7.16649 1.26733C7.05611 1.37318 6.93468 1.37318 6.8243 1.26733C6.75255 1.19677 6.68632 1.12032 6.61457 1.0478C6.0001 0.43428 5.07103 0.332353 4.35721 0.798864C3.29568 1.49079 3.13747 3.00597 4.02974 3.96251C4.95881 4.95826 5.89339 5.94812 6.82614 6.94191C6.87765 6.99679 6.92181 7.06147 6.97332 7.12616Z" fill="#410EAD"/>
<path d="M6.29102 4.21941C6.05921 4.21941 5.84948 4.21941 5.63975 4.21941C5.43738 4.21941 5.35092 4.12924 5.35092 3.91755C5.35092 3.61569 5.34908 3.31187 5.35092 3.01001C5.35092 2.80615 5.43922 2.71795 5.63239 2.71599C5.84764 2.71599 6.06105 2.71599 6.29102 2.71599C6.29102 2.47881 6.29102 2.25732 6.29102 2.03386C6.29102 1.79865 6.37013 1.71436 6.59274 1.7124C6.86686 1.7124 7.14098 1.7124 7.4151 1.7124C7.61747 1.7124 7.70026 1.80257 7.7021 2.01622C7.7021 2.23968 7.7021 2.46509 7.7021 2.71403C7.90447 2.71403 8.10316 2.71403 8.30185 2.71403C8.57414 2.71403 8.64405 2.78655 8.64405 3.07077C8.64405 3.34715 8.64405 3.62353 8.64405 3.89991C8.64405 4.1312 8.56126 4.21745 8.34049 4.21745C8.13444 4.21745 7.93023 4.21745 7.70394 4.21745C7.70394 4.44678 7.70394 4.67024 7.70394 4.89173C7.70394 5.13675 7.62483 5.21907 7.39486 5.22103C7.12074 5.22103 6.84662 5.22103 6.5725 5.22103C6.38117 5.22103 6.2947 5.12891 6.29286 4.92505C6.29102 4.69572 6.29286 4.46834 6.29286 4.21941H6.29102ZM7.23297 2.22204H6.76199C6.76199 2.43765 6.76199 2.64542 6.76199 2.85124C6.76199 3.14526 6.69576 3.21582 6.41244 3.21582C6.21927 3.21582 6.02426 3.21582 5.83109 3.21582V3.71761C6.03162 3.71761 6.22295 3.71761 6.41244 3.71761C6.69944 3.71761 6.76199 3.78622 6.76199 4.09592C6.76199 4.30173 6.76199 4.50755 6.76199 4.7114H7.21641C7.22193 4.69376 7.22929 4.68396 7.22929 4.67612C7.22929 4.47814 7.23113 4.28017 7.23113 4.0822C7.23113 3.78622 7.29736 3.71761 7.57884 3.71761C7.77201 3.71761 7.96702 3.71761 8.16203 3.71761V3.21582C7.9523 3.21582 7.75177 3.21582 7.55124 3.21582C7.30472 3.21582 7.23113 3.13546 7.23113 2.86888C7.23113 2.65718 7.23113 2.44353 7.23113 2.22204H7.23297Z" fill="#410EAD"/>
</svg>
