<svg width="15" height="14" viewBox="0 0 15 14" fill="none" xmlns="http://www.w3.org/2000/svg">
<path d="M0.00510847 12.0799C0.00510847 11.921 0.00510847 11.7637 0.00510847 11.6048C0.0136225 11.5788 0.0255422 11.5529 0.0306507 11.5253C0.197526 10.6204 0.745832 10.0334 1.65684 9.74634C1.69089 9.73498 1.72495 9.72363 1.76752 9.70904C0.803727 9.01334 0.665799 8.07925 0.837783 7.42895C1.09831 6.44946 1.78965 5.90782 2.83178 5.7343C2.83178 5.6824 2.83178 5.63213 2.83178 5.58186C2.83178 5.0013 2.82837 4.41912 2.83518 3.83856C2.83518 3.71693 2.80283 3.66179 2.67682 3.62125C1.97867 3.39746 1.28392 3.16718 0.589173 2.93528C0.366105 2.86068 0.250313 2.71149 0.250313 2.51202C0.250313 2.31418 0.36951 2.16174 0.589173 2.08876C1.77263 1.69794 2.95608 1.30711 4.13954 0.916288C4.177 0.904936 4.21446 0.891963 4.25192 0.887098C4.36771 0.874125 4.45285 0.91791 4.49031 1.02656C4.52607 1.13521 4.4835 1.21954 4.38304 1.27306C4.33195 1.30063 4.27406 1.31522 4.21957 1.33306C3.0906 1.70442 1.96334 2.07741 0.834378 2.44878C0.788402 2.46337 0.744129 2.48283 0.658988 2.51526C1.40823 2.76176 2.10978 2.99366 2.81475 3.22556C2.905 2.80392 3.00887 2.70338 3.38519 2.64013C4.2417 2.4958 5.10333 2.40337 5.97176 2.35958C7.61157 2.27688 9.23946 2.36769 10.8571 2.63365C11.2675 2.70176 11.3884 2.82501 11.4463 3.22718C12.1564 2.99366 12.8613 2.76014 13.568 2.52662C13.5288 2.48121 13.4982 2.46824 13.4675 2.45688C11.4599 1.79524 9.4506 1.13359 7.44299 0.468705C7.23014 0.398972 7.0258 0.398972 6.81465 0.471948C6.35149 0.630872 5.88662 0.78331 5.42005 0.932505C5.35023 0.955208 5.25317 0.97629 5.19868 0.9471C5.13398 0.913045 5.06927 0.828717 5.05905 0.758985C5.04203 0.651954 5.12887 0.585466 5.23615 0.55141C5.70272 0.398972 6.16929 0.253021 6.63075 0.0892315C6.9628 -0.0275294 7.28293 -0.0291511 7.61668 0.0811231C9.62429 0.746012 11.6319 1.40604 13.6395 2.0693C13.9188 2.16174 14.0124 2.28823 14.0141 2.56716C14.0141 3.00501 14.0175 3.44124 14.0124 3.8791C14.0124 3.96829 14.0414 4.00559 14.1265 4.03964C14.6561 4.25046 14.8383 4.82778 14.5335 5.29807C14.5045 5.34347 14.4943 5.42131 14.5148 5.46996C14.6544 5.817 14.8094 6.15756 14.949 6.5046C15.1227 6.9311 14.8349 7.33003 14.3581 7.3349C14.0414 7.33814 13.723 7.33165 13.4062 7.33652C13.173 7.33976 12.9448 7.33652 12.7575 7.14678C12.5787 7.68842 12.5855 8.2025 12.7796 8.7117C12.7915 8.74576 12.8579 8.77333 12.9022 8.77981C13.2513 8.83495 13.4931 9.10739 13.4829 9.4447C13.4812 9.51119 13.4692 9.57768 13.4607 9.65065C13.5033 9.65228 13.5374 9.6539 13.5697 9.65552C13.9579 9.67822 14.2304 9.91986 14.261 10.2685C14.29 10.5961 14.0414 10.8815 13.6685 10.9594C13.6242 10.9691 13.568 11.0145 13.5544 11.0534C13.3705 11.5675 13.3688 12.0848 13.5578 12.5972C13.5748 12.6427 13.6344 12.6929 13.6838 12.7043C14.0584 12.7902 14.2985 13.0756 14.261 13.4032C14.2202 13.7616 13.9341 14 13.5408 14C9.78606 14 6.03136 14 2.27496 14C1.24476 14 0.354185 13.3448 0.081735 12.3978C0.0510844 12.2908 0.027245 12.1837 0 12.0751L0.00510847 12.0799ZM9.21391 10.9642C9.13558 10.9642 9.08109 10.9642 9.02831 10.9642C6.81635 10.9642 4.6044 10.9642 2.39245 10.9642C2.34307 10.9642 2.29539 10.9626 2.24601 10.9658C1.86628 10.995 1.58702 11.1718 1.44569 11.5075C1.30265 11.8432 1.36736 12.1578 1.62448 12.427C1.82031 12.6313 2.07402 12.701 2.3635 12.701C5.18166 12.6978 7.99811 12.6994 10.8163 12.701C10.8793 12.701 10.9457 12.6978 11.0053 12.7108C11.1262 12.7367 11.1892 12.8162 11.1773 12.9346C11.1653 13.0465 11.0938 13.1097 10.9746 13.1178C10.9218 13.1211 10.8673 13.1194 10.8129 13.1194C8.01513 13.1194 5.21742 13.1194 2.4197 13.1194C2.3618 13.1194 2.3022 13.1194 2.24431 13.1194C1.32649 13.0935 0.704964 12.2194 1.01998 11.3988C1.22432 10.8653 1.72325 10.5507 2.36521 10.5507C6.06201 10.5507 9.75881 10.5507 13.4539 10.5507C13.5084 10.5507 13.5629 10.5556 13.614 10.5474C13.7417 10.528 13.8183 10.4518 13.8251 10.3318C13.8319 10.2134 13.7689 10.1242 13.6412 10.0966C13.5765 10.082 13.505 10.082 13.4386 10.082C9.76222 10.082 6.08415 10.082 2.40778 10.082C2.35329 10.082 2.3005 10.082 2.24601 10.0836C1.25838 10.1242 0.471679 10.8621 0.447839 11.7718C0.420595 12.7837 1.24476 13.5897 2.31412 13.5897C6.03987 13.5897 9.76562 13.5897 13.4914 13.5897C13.5356 13.5897 13.5799 13.5946 13.6225 13.5849C13.7468 13.5589 13.8217 13.4811 13.8251 13.3611C13.8285 13.2475 13.7655 13.1648 13.6463 13.1356C13.5901 13.1227 13.5305 13.121 13.4726 13.121C12.9942 13.121 12.5157 13.121 12.0372 13.121C11.8686 13.121 11.7783 13.0497 11.7749 12.9232C11.7698 12.7918 11.8669 12.7059 12.0355 12.7043C12.3488 12.701 12.6604 12.7043 12.9737 12.7043C13.0197 12.7043 13.0657 12.6994 13.1253 12.6978C12.938 12.1172 12.9414 11.5496 13.1202 10.9804H11.0019C11.0019 11.0388 11.0019 11.0891 11.0019 11.1394C11.0019 11.4605 11.0036 11.7815 11.0019 12.1026C11.0002 12.3118 10.869 12.3978 10.6647 12.3264C10.5098 12.2713 10.3582 12.2064 10.2015 12.1562C10.1471 12.1383 10.0772 12.1399 10.0227 12.1562C9.8695 12.2048 9.72305 12.2664 9.57321 12.3216C9.35355 12.3994 9.22243 12.3135 9.21902 12.088C9.21562 11.9307 9.21902 11.7718 9.21902 11.6145C9.21902 11.4069 9.21902 11.1977 9.21902 10.9739L9.21391 10.9642ZM12.7881 6.15756H12.5821C10.1215 6.15756 7.66095 6.15756 5.19868 6.15756C4.46648 6.15756 3.73427 6.14296 3.00206 6.16404C2.24941 6.1835 1.70111 6.54514 1.38779 7.18732C0.815647 8.35655 1.72495 9.65876 3.10423 9.65876C6.30721 9.66039 9.5102 9.65876 12.7132 9.65876C12.7472 9.65876 12.7813 9.65876 12.8154 9.65714C12.955 9.64579 13.0452 9.55822 13.0469 9.43335C13.0503 9.30199 12.9601 9.20956 12.8137 9.19821C12.7609 9.19334 12.7064 9.19496 12.6519 9.19496C10.445 9.19496 8.2382 9.19496 6.03136 9.19496C5.96835 9.19496 5.90365 9.19496 5.84235 9.18199C5.72656 9.15604 5.67207 9.07658 5.68058 8.96631C5.68909 8.8609 5.7538 8.79603 5.86619 8.78144C5.92408 8.77495 5.98368 8.77657 6.04158 8.77657C8.06792 8.77657 10.0943 8.77657 12.1206 8.77657C12.1819 8.77657 12.2449 8.77657 12.3318 8.77657C12.1427 8.18952 12.1513 7.61869 12.325 7.04462H5.66525C5.66015 7.07381 5.65333 7.09651 5.65333 7.11921C5.65333 7.46301 5.65504 7.80681 5.65163 8.15222C5.64993 8.36953 5.51541 8.45386 5.30256 8.37926C5.15271 8.32574 5.00456 8.2625 4.85131 8.21547C4.79342 8.19763 4.71849 8.19763 4.65889 8.21547C4.49713 8.26574 4.34217 8.3371 4.18211 8.39061C4.00161 8.45061 3.87219 8.36304 3.86709 8.17979C3.86368 8.0306 3.86709 7.8814 3.86709 7.73383C3.86709 7.50842 3.86709 7.28138 3.86709 7.06245C3.51801 7.06245 3.18256 7.02678 2.85902 7.07056C2.38905 7.13543 2.08084 7.60572 2.16427 8.05006C2.24771 8.48791 2.60871 8.77333 3.09741 8.77657C3.66786 8.77981 4.24 8.77657 4.81044 8.77657C4.98924 8.77657 5.08119 8.84955 5.08289 8.9809C5.08289 9.11226 4.98754 9.19334 4.81555 9.19334C4.23489 9.19496 3.65253 9.20307 3.07187 9.19334C2.09957 9.1755 1.46101 8.2998 1.79306 7.4549C2.0008 6.92786 2.49973 6.61811 3.1485 6.61811C6.23399 6.61811 9.31949 6.61811 12.4067 6.61811C12.451 6.61811 12.4952 6.62298 12.5378 6.61487C12.5667 6.61001 12.6076 6.59217 12.6178 6.56946C12.6757 6.43811 12.7268 6.30351 12.7847 6.15431L12.7881 6.15756ZM10.9968 4.59912C10.9968 4.1564 10.9968 3.73315 10.9968 3.30989C10.9968 3.07637 10.9968 3.06988 10.7516 3.04231C9.92399 2.9515 9.09642 2.83798 8.26545 2.78446C6.64778 2.68068 5.03862 2.78771 3.43968 3.05528C3.30856 3.07637 3.2711 3.1315 3.2711 3.24826C3.27451 3.65693 3.2711 4.06721 3.2728 4.47587C3.2728 4.51155 3.27962 4.54723 3.28472 4.5975H3.46352C5.13738 4.5975 6.81295 4.5975 8.48681 4.5975C8.5413 4.5975 8.59579 4.59426 8.64688 4.60237C8.75756 4.61696 8.82227 4.68183 8.83249 4.78724C8.8427 4.89265 8.79162 4.97049 8.68434 4.99968C8.62985 5.01589 8.56855 5.01427 8.51065 5.01427C6.82657 5.01427 5.14249 5.01427 3.45841 5.01427C3.40051 5.01427 3.34432 5.01427 3.28132 5.01427V5.72619H10.9865V5.01427C10.5728 5.01427 10.1692 5.01427 9.76392 5.01427C9.52893 5.01427 9.42336 4.94616 9.42677 4.79859C9.43017 4.65588 9.52723 4.59588 9.76052 4.59588C10.1641 4.59588 10.5694 4.59588 10.9934 4.59588L10.9968 4.59912ZM11.4361 5.73916C11.5042 5.73916 11.5553 5.73916 11.6081 5.73916C11.9793 5.73916 12.3488 5.74241 12.72 5.73916C13.0367 5.73592 12.9414 5.78944 13.0691 5.51375C13.1014 5.44402 13.1287 5.38402 13.0691 5.29807C12.749 4.83427 12.9414 4.26181 13.4812 4.0364C13.5186 4.02018 13.5714 3.98126 13.5714 3.95207C13.5782 3.6326 13.5748 3.31313 13.5748 2.98717C13.5408 2.99204 13.522 2.99204 13.5033 2.9969C12.846 3.21421 12.1887 3.43314 11.528 3.64558C11.431 3.67639 11.4327 3.73152 11.4327 3.80288C11.4327 4.38344 11.4327 4.964 11.4327 5.54456V5.73916H11.4361ZM13.4829 5.65484C13.3432 5.98404 13.1917 6.32459 13.0521 6.67001C12.9942 6.81272 13.081 6.91813 13.2445 6.91813C13.6106 6.92137 13.9767 6.91975 14.3428 6.91813C14.5335 6.91813 14.6084 6.81272 14.5369 6.64406C14.4092 6.33756 14.2781 6.03269 14.1487 5.72781C14.135 5.69538 14.1146 5.66457 14.1078 5.65484H13.4829ZM10.5506 11.8415V10.9723H9.66686V11.8545C9.96485 11.6421 10.2509 11.6599 10.5506 11.8415ZM5.20209 7.90573V7.04624H4.31492V7.90897C4.61462 7.71275 4.9041 7.72248 5.20209 7.90573ZM13.3586 4.83264C13.362 5.06941 13.5629 5.25752 13.8081 5.25428C14.0516 5.25104 14.2491 5.05482 14.2457 4.81967C14.2423 4.58453 14.0414 4.39641 13.7945 4.39966C13.5476 4.4029 13.3569 4.59264 13.3603 4.83264H13.3586Z" fill="#410EAD"/>
</svg>
