<svg width="16" height="15" viewBox="0 0 16 15" fill="none" xmlns="http://www.w3.org/2000/svg">
<path d="M1.32084 5.69196C1.34931 5.49588 1.35311 5.3105 1.40626 5.13938C1.68528 4.21961 2.89629 3.87737 3.65174 4.51907C4.16614 4.95578 4.65016 5.4228 5.12279 5.90051C5.55177 6.33366 5.57645 6.88623 5.24048 7.4905C5.53279 7.76144 5.827 8.03416 6.1307 8.3158C5.98644 8.43701 5.86117 8.54217 5.73399 8.64912C5.46256 8.39244 5.17025 8.11616 4.87224 7.8363C4.5021 8.05377 4.12628 8.11794 3.70869 8.05377C3.94975 8.28015 4.18702 8.51009 4.43187 8.7329C4.46414 8.76142 4.53437 8.75964 4.58752 8.75786C4.95766 8.75429 5.23099 8.89689 5.38473 9.21774C5.5252 9.51364 5.44548 9.82201 5.16645 10.0858C5.00321 10.2409 4.83807 10.3978 4.67104 10.5493C4.39961 10.7988 4.06933 10.8701 3.75804 10.7382C3.42397 10.5974 3.26642 10.3443 3.27212 10.0038C3.27401 9.90222 3.24175 9.82914 3.16392 9.75962C2.92096 9.53859 2.68749 9.30865 2.44074 9.0894C2.39138 9.04484 2.30787 9.00919 2.24143 9.01097C1.7669 9.02523 1.37778 8.86302 1.0551 8.54039C0.857696 8.34253 0.647004 8.15715 0.443904 7.96464C0.043399 7.58319 -0.100859 7.13222 0.0718709 6.61886C0.246499 6.10015 0.639412 5.80247 1.21075 5.70978C1.24871 5.70443 1.28667 5.69552 1.31704 5.69196H1.32084ZM2.19208 8.50831C2.30977 8.53683 2.40847 8.48157 2.50148 8.38353C2.61916 8.25876 2.75013 8.14646 2.87541 8.02703C3.06902 7.84343 3.06712 7.66875 2.87161 7.48159C2.44453 7.07339 2.02315 6.65985 1.59227 6.25523C1.55241 6.21779 1.47459 6.1964 1.41575 6.19819C1.05131 6.20532 0.774179 6.36039 0.622328 6.67411C0.470478 6.98783 0.516033 7.29086 0.76279 7.54576C1.01714 7.80778 1.29047 8.05199 1.56 8.29797C1.72704 8.44948 1.93394 8.51365 2.19018 8.50831H2.19208ZM2.86402 8.7739C3.05193 8.94858 3.23226 9.13218 3.42966 9.29974C3.67262 9.50472 3.87382 9.71328 3.81498 10.0591C3.80359 10.1233 3.8947 10.2391 3.96873 10.2694C4.04276 10.2997 4.17942 10.2837 4.24016 10.2338C4.45655 10.0555 4.66155 9.86479 4.85136 9.6598C4.90261 9.60454 4.9121 9.47442 4.88173 9.40312C4.85326 9.33895 4.74696 9.29439 4.66534 9.2623C4.61409 9.24091 4.54386 9.25161 4.48502 9.25874C4.3028 9.27835 4.16993 9.21239 4.04655 9.08762C3.80169 8.84163 3.54545 8.60634 3.2892 8.36392C3.14304 8.50474 3.01397 8.6313 2.86592 8.7739H2.86402ZM3.42776 5.81673C3.44295 5.8096 3.45813 5.80069 3.47142 5.79356C3.47142 5.56005 3.47142 5.32833 3.47142 5.09482C3.47142 5.0663 3.45813 5.02708 3.43536 5.01282C3.293 4.91657 3.16013 4.79001 3.00068 4.73654C2.65522 4.62246 2.34014 4.7098 2.09528 4.96826C1.88269 5.19286 1.82195 5.45667 1.91685 5.74187H2.58879C2.59828 5.72761 2.60967 5.71513 2.61916 5.70087C2.50527 5.61887 2.39138 5.53688 2.28509 5.45845C2.42745 5.31941 2.54513 5.20533 2.66661 5.08412C2.92476 5.33189 3.17531 5.57431 3.42587 5.81495L3.42776 5.81673ZM4.00479 5.54936C4.00479 5.78821 4.01049 5.98963 4.0029 6.19106C3.9991 6.29088 4.02757 6.36574 4.10729 6.43704C4.31609 6.62242 4.51729 6.8185 4.72039 7.00922C4.75645 7.04309 4.79631 7.07339 4.84567 7.11617C4.99752 6.77393 4.95955 6.47626 4.71469 6.22136C4.50021 5.99676 4.26294 5.79178 4.0029 5.54936H4.00479ZM2.36671 6.25523C2.35722 6.2677 2.34773 6.28196 2.33824 6.29444C2.48629 6.42635 2.63245 6.55825 2.7805 6.68837C2.80708 6.71333 2.84124 6.74898 2.87161 6.74898C3.13355 6.75433 3.3936 6.75254 3.70299 6.75254C3.51508 6.57964 3.36513 6.44061 3.21138 6.30514C3.17911 6.27662 3.12596 6.25701 3.08041 6.25701C2.84314 6.25166 2.60398 6.25523 2.36481 6.25523H2.36671ZM3.40309 7.25699C3.68401 7.57071 4.1054 7.65092 4.46794 7.45663C4.35595 7.38355 4.26294 7.2766 4.15854 7.26412C3.91938 7.23738 3.67452 7.25521 3.40309 7.25521V7.25699Z" fill="#410EAD"/>
<path d="M4.00879 3.84513V3.35138H5.23878C4.62758 2.83446 4.34096 2.24445 4.47383 1.51362C4.55355 1.07691 4.78323 0.715064 5.14577 0.428082C5.86516 -0.138753 7.09515 -0.238573 8.00435 0.732889C8.52823 0.182097 9.1698 -0.103103 9.96891 0.0341493C10.4207 0.110797 10.8022 0.319349 11.0964 0.650894C11.4551 1.05374 11.6089 1.52075 11.5501 2.04481C11.4912 2.56352 11.2179 2.97349 10.7718 3.34069H11.7247V3.838C11.6696 3.83979 11.6165 3.84513 11.5633 3.84513C11.1742 3.84513 10.787 3.8487 10.3979 3.84513C10.2897 3.84513 10.2138 3.87187 10.136 3.94495C9.51906 4.52961 8.89837 5.11071 8.27768 5.69359C8.0537 5.90392 7.94931 5.90214 7.72343 5.69002C7.10274 5.10714 6.48395 4.52427 5.85947 3.94674C5.80062 3.89326 5.70002 3.85226 5.6184 3.85226C5.08693 3.84335 4.55545 3.8487 4.00879 3.8487V3.84513ZM9.09008 3.34425C9.13374 3.34425 9.17929 3.34425 9.22295 3.34425C9.48869 3.34247 9.78669 3.40842 10.0126 3.31751C10.246 3.22482 10.4112 2.98062 10.601 2.79881C11.1685 2.25158 11.1742 1.42806 10.6181 0.900444C10.0543 0.365694 9.1755 0.365694 8.58518 0.900444C8.4618 1.01274 8.34412 1.13039 8.21884 1.24268C8.06699 1.37815 7.93602 1.37815 7.78417 1.2409C7.63991 1.11078 7.50514 0.971744 7.35519 0.846969C6.79145 0.367477 5.93349 0.390649 5.39632 0.893314C4.85346 1.40133 4.82878 2.21593 5.34887 2.74355C5.53299 2.93071 5.72849 3.10896 5.924 3.28721C6.04548 3.39951 6.2258 3.36921 6.29983 3.22839C6.51052 2.83267 6.72311 2.43696 6.93191 2.04124C6.98885 1.93073 7.06098 1.84517 7.20334 1.84517C7.3476 1.84517 7.41593 1.93429 7.47287 2.04303C7.68167 2.44052 7.89616 2.83446 8.10305 3.23195C8.14861 3.3193 8.20366 3.35138 8.30615 3.34782C8.5662 3.34069 8.82814 3.34603 9.08818 3.34603L9.09008 3.34425ZM6.55418 3.84513C7.02492 4.28541 7.51843 4.74886 7.98727 5.18914C8.4599 4.7453 8.94203 4.29254 9.41656 3.84513C9.03693 3.84513 8.63263 3.82909 8.23023 3.85048C7.93602 3.86652 7.76898 3.77205 7.65699 3.51537C7.53172 3.23017 7.36658 2.96101 7.20524 2.65977C6.97746 3.07509 6.76297 3.4619 6.55418 3.84335V3.84513Z" fill="#410EAD"/>
<path d="M8.82029 11.2604C9.06894 11.2604 9.31949 11.2604 9.56815 11.2604C10.2724 11.2604 10.9785 11.2604 11.6827 11.2604C12.1705 11.2604 12.5292 11.5759 12.533 12.0038C12.5368 12.4369 12.1762 12.7595 11.6827 12.7613C11.1436 12.7613 10.6064 12.7613 10.0674 12.7613C10.0066 12.7613 9.94777 12.7613 9.87565 12.7613V15.0001H9.34417C9.34227 14.9538 9.33658 14.9039 9.33658 14.854C9.33658 14.1035 9.33658 13.3531 9.33658 12.6027C9.33658 12.3371 9.42009 12.2604 9.70481 12.2604C10.3654 12.2604 11.0259 12.2604 11.6865 12.2604C11.8212 12.2604 11.9465 12.2248 11.9731 12.0982C11.9902 12.0144 11.9617 11.9004 11.9066 11.8344C11.8649 11.7827 11.7491 11.7649 11.6656 11.7631C11.0392 11.7578 10.4109 11.7595 9.78453 11.7595C9.38972 11.7595 8.99681 11.7595 8.602 11.7595C8.36284 11.7595 8.27173 11.6704 8.26983 11.4458C8.26983 11.4048 8.27552 11.3621 8.26983 11.3211C8.22427 11.0341 8.31728 10.8095 8.56404 10.6223C8.74056 10.4886 8.8051 10.2908 8.8051 10.0769C8.8051 9.88436 8.8089 9.69185 8.8051 9.49756C8.79561 9.08045 8.44256 8.75604 8.00409 8.75604C7.56752 8.75604 7.21637 9.08402 7.20877 9.5029C7.20498 9.67937 7.21257 9.85762 7.20688 10.0341C7.19928 10.2836 7.27521 10.51 7.4878 10.658C7.84465 10.9075 7.74405 11.2515 7.72317 11.5724C7.71368 11.7132 7.56942 11.7595 7.41947 11.7578C6.776 11.756 6.13253 11.7578 5.48717 11.7578C5.11514 11.7578 4.7431 11.7578 4.37107 11.7578C4.1338 11.7578 4.00663 11.8469 4.01043 12.0109C4.01232 12.1749 4.1376 12.2569 4.37866 12.2569C5.02213 12.2569 5.66559 12.2569 6.31096 12.2569C6.59188 12.2569 6.6735 12.3353 6.6735 12.6045C6.6735 13.3495 6.6735 14.0946 6.6735 14.8397V15.0001H6.14772V12.756H5.95411C5.42074 12.756 4.88926 12.756 4.35588 12.756C3.84149 12.756 3.47895 12.4458 3.47705 12.0091C3.47705 11.5706 3.83959 11.2551 4.34829 11.2551C5.23662 11.2551 6.12494 11.2551 7.01327 11.2551H7.24294C7.19738 11.1642 7.1822 11.0858 7.13095 11.0412C6.80068 10.7453 6.65262 10.3852 6.6754 9.95922C6.68679 9.73106 6.66591 9.49756 6.70767 9.27474C6.82155 8.63839 7.44604 8.1999 8.12747 8.25694C8.8013 8.31398 9.32519 8.83981 9.34037 9.47973C9.34417 9.6562 9.33658 9.83445 9.34227 10.0109C9.35366 10.4084 9.2075 10.7417 8.9076 11.0234C8.85255 11.0751 8.82408 11.1535 8.78232 11.2195C8.79751 11.2319 8.81269 11.2444 8.82598 11.2569L8.82029 11.2604Z" fill="#410EAD"/>
<path d="M11.2009 7.25144H13.3344C13.3344 7.10528 13.3344 6.9609 13.3344 6.8183C13.3344 6.31741 13.6647 6.00548 14.1924 6.00369C14.5208 6.00369 14.8472 6.00191 15.1756 6.00369C15.6539 6.00726 15.9975 6.32454 15.9975 6.77195C16.0013 7.76302 16.0013 8.75231 15.9975 9.74338C15.9975 10.1819 15.6539 10.5027 15.187 10.5063C14.8377 10.5099 14.4866 10.5099 14.1373 10.5063C13.6799 10.5009 13.342 10.1801 13.3344 9.75051C13.3306 9.59008 13.3344 9.42966 13.3344 9.26389H11.2028C11.2028 9.41362 11.2028 9.56156 11.2028 9.71129C11.199 10.1908 10.8669 10.5045 10.3582 10.5081C10.2025 10.5081 10.0488 10.5081 9.88173 10.5081V10.0072C10.0412 10.0072 10.2006 10.009 10.3601 10.0072C10.5688 10.0036 10.6694 9.91272 10.6694 9.72021C10.6694 8.74518 10.6694 7.77015 10.6694 6.79691C10.6694 6.60083 10.5707 6.50814 10.3639 6.50636C10.0355 6.50279 9.709 6.50458 9.38062 6.50636C9.16613 6.50636 9.07312 6.60083 9.07122 6.8076C9.06933 7.11063 9.06933 7.41187 9.06743 7.71489C9.06743 7.72381 9.05983 7.73272 9.05224 7.74876H8.56253C8.56253 7.36018 8.52836 6.96803 8.57202 6.58479C8.61188 6.2372 8.95544 6.00904 9.33127 6.00548C9.69191 6.00013 10.0526 6.00013 10.4132 6.00548C10.8517 6.01261 11.1895 6.33167 11.2009 6.74343C11.2047 6.9092 11.2009 7.07498 11.2009 7.25144ZM15.466 8.25677C15.466 7.77193 15.466 7.28709 15.466 6.80225C15.466 6.59727 15.3673 6.50636 15.1509 6.50636C14.8283 6.50458 14.5075 6.50458 14.1848 6.50636C13.9665 6.50636 13.8697 6.59905 13.8697 6.80225C13.8697 7.77193 13.8697 8.74161 13.8697 9.71129C13.8697 9.91628 13.9684 10.0072 14.1848 10.009C14.5018 10.0108 14.8169 10.009 15.1338 10.009C15.373 10.009 15.466 9.91985 15.466 9.69703C15.466 9.21754 15.466 8.73805 15.466 8.25856V8.25677ZM11.2104 7.76302V8.74874H13.323V7.76302H11.2104Z" fill="#410EAD"/>
<path d="M5.68093 14.182C5.62969 14.3317 5.57844 14.4779 5.52339 14.6418C4.1928 14.2283 3.05962 13.5456 2.12004 12.5848C1.07038 11.5118 0.413626 10.2533 0.128906 8.80238C0.227609 8.78456 0.313025 8.7703 0.398441 8.75604C0.48006 8.74356 0.559782 8.73286 0.637605 8.72217C1.26019 11.4102 2.94004 13.2212 5.68093 14.182Z" fill="#410EAD"/>
<path d="M15.0082 11.1321C13.968 12.8433 12.4704 14.0072 10.4869 14.6472C10.4299 14.4885 10.3787 14.3424 10.3198 14.1712C11.2176 13.8878 12.0357 13.4725 12.7627 12.9057C13.4859 12.3406 14.0762 11.6704 14.5413 10.8896C14.7007 10.9734 14.8488 11.0501 15.0101 11.1339L15.0082 11.1321Z" fill="#410EAD"/>
<path d="M12.1211 1.66156C12.2236 1.51718 12.3147 1.38706 12.4153 1.24268C14.0363 2.27831 15.122 3.66688 15.6896 5.43333C15.5149 5.48146 15.3574 5.52424 15.179 5.57415C14.9246 4.77559 14.5469 4.03942 14.0268 3.37098C13.5029 2.70076 12.8728 2.13393 12.1211 1.66156Z" fill="#410EAD"/>
<path d="M3.59084 1.24463C3.69334 1.39079 3.78445 1.51913 3.88315 1.66173C2.70062 2.41038 1.8085 3.38719 1.20679 4.60464C1.07961 4.55117 0.965727 4.50304 0.851839 4.45313C0.811978 4.4353 0.775914 4.41391 0.726562 4.39074C1.37003 3.0913 2.31719 2.04854 3.59084 1.24463Z" fill="#410EAD"/>
</svg>
