<svg width="15" height="15" viewBox="0 0 15 15" fill="none" xmlns="http://www.w3.org/2000/svg">
<path d="M0 11.5927C0.0701249 11.3242 0.118544 11.0491 0.213714 10.789C0.684552 9.50876 1.98019 8.71176 3.37768 8.82753C4.69837 8.93827 5.85042 9.98696 6.09585 11.3058C6.46317 13.274 4.96885 15.0492 2.98698 14.9989C1.48765 14.9603 0.222062 13.8075 0.0283839 12.3058C0.023375 12.2639 0.0100178 12.2219 0.00166964 12.18C0.00166964 11.9837 0.00166964 11.7874 0.00166964 11.591L0 11.5927ZM3.07715 9.46178C1.69468 9.47688 0.627784 10.5725 0.644481 11.9602C0.659508 13.2874 1.77149 14.368 3.10887 14.3579C4.44291 14.3462 5.52818 13.2303 5.51148 11.8847C5.49478 10.5356 4.40117 9.44668 3.07715 9.46178Z" fill="#410EAD"/>
<path d="M7.4417 7.80905C6.54844 7.80905 5.65519 7.8124 4.76193 7.80905C3.56814 7.80234 2.61811 7.01876 2.38603 5.85597C2.0855 4.34921 3.20082 2.96159 4.72854 2.94481C4.88882 2.94313 5.05078 2.94145 5.21106 2.94481C5.42311 2.94984 5.56837 3.09246 5.56169 3.27871C5.55501 3.4616 5.41309 3.58577 5.20438 3.58745C4.83372 3.5908 4.46473 3.56731 4.10576 3.7049C3.35442 3.99182 2.88525 4.79218 2.99545 5.61267C3.10899 6.44995 3.74679 7.07916 4.5599 7.15299C4.66175 7.16138 4.76527 7.16641 4.86712 7.16641C6.65363 7.16641 8.44015 7.16641 10.2267 7.16641C11.3804 7.16641 12.3187 7.91811 12.5758 9.04063C12.9081 10.4887 11.8011 11.9233 10.3235 11.9434C9.33841 11.9568 8.35165 11.9468 7.36657 11.9468C7.13616 11.9468 6.99591 11.8209 6.99925 11.6212C7.00092 11.4249 7.14283 11.3024 7.37491 11.3008C8.32661 11.3008 9.2783 11.3008 10.23 11.3008C11.1617 11.3008 11.8779 10.6581 11.9898 9.72857C12.1017 8.80908 11.3921 7.9114 10.4721 7.8275C10.1482 7.7973 9.81927 7.80905 9.49202 7.80905C8.80913 7.80737 8.12458 7.80905 7.4417 7.80905Z" fill="#410EAD"/>
<path d="M10.103 2.48013C10.103 1.10928 11.1733 0.0169681 12.534 0.000189079C13.9966 -0.0182678 15.1687 1.31734 14.98 2.77208C14.8865 3.48184 14.5994 4.11273 14.1786 4.67147C13.7796 5.20169 13.3338 5.69834 12.8963 6.19836C12.7027 6.41984 12.4439 6.43662 12.2485 6.23695C11.5222 5.50035 10.8343 4.73187 10.4019 3.77211C10.2166 3.36271 10.103 2.93316 10.1047 2.48013H10.103ZM12.5507 5.63291C13.1468 4.98691 13.7245 4.3426 14.0968 3.5456C14.3055 3.0976 14.4174 2.62946 14.3222 2.1328C14.1185 1.05056 13.1702 0.584099 12.4222 0.654571C11.2501 0.765313 10.5288 1.7989 10.7959 2.9533C10.8861 3.34425 11.0564 3.69996 11.2668 4.0389C11.6274 4.61945 12.0765 5.12786 12.5491 5.63291H12.5507Z" fill="#410EAD"/>
<path d="M6.88557 3.58614C6.73029 3.58614 6.57335 3.5895 6.41807 3.58614C6.22606 3.58111 6.09082 3.4452 6.09082 3.26566C6.09082 3.08613 6.22439 2.94686 6.41807 2.94518C6.73363 2.94015 7.05086 2.94015 7.36642 2.94518C7.55843 2.94854 7.69701 3.08948 7.69701 3.26566C7.69701 3.44352 7.55843 3.58111 7.36642 3.58614C7.20614 3.59117 7.04585 3.58614 6.88557 3.58614Z" fill="#410EAD"/>
<path d="M8.9926 3.58558C8.84233 3.58558 8.69039 3.58894 8.54012 3.58558C8.3381 3.58055 8.19952 3.448 8.20119 3.26175C8.20119 3.07718 8.34144 2.94462 8.54513 2.94295C8.85235 2.93959 9.15789 2.93959 9.4651 2.94295C9.66546 2.94462 9.80905 3.08557 9.80738 3.26678C9.80571 3.44967 9.66379 3.58223 9.4601 3.58558C9.30482 3.58894 9.14954 3.58558 8.9926 3.58558Z" fill="#410EAD"/>
<path d="M2.09186 10.2002C2.12358 10.2119 2.19037 10.227 2.25048 10.2589C3.11368 10.7019 3.97521 11.1482 4.84009 11.5929C4.97032 11.66 5.06549 11.7506 5.06716 11.9066C5.06883 12.0694 4.97032 12.1633 4.83508 12.2321C3.97688 12.6734 3.11869 13.1181 2.26049 13.5594C2.08518 13.65 1.95328 13.6433 1.84141 13.5359C1.71953 13.4201 1.71452 13.2842 1.77129 13.1315C1.9082 12.7657 2.04177 12.3966 2.16699 12.0258C2.19037 11.9553 2.19037 11.8613 2.16699 11.7892C2.03676 11.4049 1.8915 11.0257 1.7596 10.6415C1.68113 10.4116 1.82973 10.2002 2.09353 10.2002H2.09186ZM4.04868 11.91C3.57116 11.6633 3.11702 11.4284 2.63282 11.1784C2.70128 11.3714 2.75137 11.5341 2.81648 11.6902C2.87993 11.8395 2.87993 11.9788 2.81648 12.1281C2.75137 12.2841 2.70128 12.4486 2.63282 12.6415C3.12036 12.3882 3.57283 12.155 4.04701 11.91H4.04868Z" fill="#410EAD"/>
<path d="M13.9266 2.47997C13.9366 3.2367 13.3188 3.86592 12.5558 3.87263C11.8028 3.87934 11.175 3.25516 11.17 2.49339C11.1633 1.73834 11.7744 1.11248 12.5274 1.10409C13.3004 1.0957 13.9149 1.69975 13.9249 2.47997H13.9266ZM13.2871 2.485C13.2821 2.07392 12.9565 1.74673 12.5491 1.74673C12.1417 1.74673 11.8111 2.07895 11.8128 2.485C11.8128 2.89441 12.1601 3.23503 12.5658 3.22664C12.9615 3.21825 13.2921 2.87931 13.2871 2.485Z" fill="#410EAD"/>
</svg>
