<svg width="16" height="15" viewBox="0 0 16 15" fill="none" xmlns="http://www.w3.org/2000/svg">
<path d="M16 4.94413C15.9824 4.99579 15.9632 5.04594 15.9456 5.09761C15.808 5.49728 15.4384 5.76929 14.992 5.79817C14.5728 5.82704 14.1504 5.59301 13.9712 5.21614C13.9232 5.11433 13.8688 5.08089 13.752 5.08241C13.288 5.09001 12.8256 5.08545 12.3616 5.08545H12.2224C12.144 5.4988 12.0704 5.89542 11.992 6.31181C12.1536 6.31181 12.3328 6.31181 12.5104 6.31181C12.7504 6.31181 12.848 6.38779 12.9024 6.61118C12.976 6.90903 13.0512 7.20688 13.1184 7.50625C13.136 7.58375 13.1696 7.61414 13.2528 7.6111C13.3872 7.60654 13.5248 7.60199 13.6592 7.6111C13.7728 7.6187 13.8304 7.58527 13.88 7.48041C14.064 7.08379 14.48 6.8604 14.9408 6.89535C15.3744 6.92878 15.752 7.22359 15.8704 7.62022C16.0224 8.1293 15.7392 8.66574 15.2208 8.85113C14.7008 9.03653 14.1136 8.81314 13.8832 8.3299C13.8336 8.22352 13.776 8.19617 13.664 8.20073C13.44 8.20832 13.216 8.20376 12.992 8.20225C12.7232 8.20225 12.6304 8.13082 12.5696 7.88008C12.4912 7.55792 12.4144 7.23727 12.3328 6.90447C12.1376 6.90447 11.952 6.90143 11.7648 6.90751C11.7328 6.90751 11.6912 6.93942 11.672 6.96677C11.2448 7.56855 10.8192 8.17185 10.3952 8.77667C10.104 9.19153 9.8768 9.63223 9.7728 10.1246C9.7632 10.1687 9.7712 10.2371 9.8 10.2659C10.2512 10.7264 10.2832 11.1184 9.896 11.661C10.1296 11.9269 10.2256 12.2354 10.1184 12.5788C10.0144 12.9177 9.768 13.1305 9.4016 13.2414C9.4016 13.4177 9.4016 13.5939 9.4016 13.7717C9.3984 14.4738 8.9136 14.9662 8.1744 14.9875C7.592 15.0042 7.008 15.0042 6.424 14.9875C5.6832 14.9662 5.2016 14.4784 5.1952 13.7733C5.1952 13.7383 5.192 13.7034 5.1952 13.6699C5.2256 13.4162 5.1952 13.2323 4.8912 13.094C4.4544 12.8934 4.2112 12.2308 4.6864 11.6762C4.6128 11.5303 4.5168 11.3965 4.4736 11.2476C4.3664 10.8829 4.4736 10.5623 4.7616 10.3024C4.8288 10.2431 4.8432 10.196 4.824 10.1124C4.7168 9.66262 4.5232 9.2508 4.2592 8.86785C4.2288 8.8253 4.1568 8.79795 4.0992 8.78579C4.0352 8.77211 3.9648 8.78427 3.8976 8.78123C3.5296 8.77059 3.2816 8.55176 3.256 8.20225C3.2512 8.12626 3.2256 8.09131 3.152 8.06548C2.9728 8.00165 2.7984 7.92263 2.6176 7.86033C2.576 7.84513 2.5072 7.85273 2.4736 7.87704C2.1456 8.12626 1.8304 8.11259 1.5296 7.82993C1.3488 7.65973 1.168 7.48801 0.9888 7.31477C0.7088 7.04428 0.6976 6.73427 0.9456 6.43794C0.9744 6.40299 0.9824 6.33156 0.9664 6.28749C0.9008 6.11577 0.8256 5.94709 0.7472 5.78145C0.7296 5.74346 0.6848 5.69331 0.6512 5.69179C0.3056 5.68419 0.1088 5.50184 0 5.20854V4.10984C0.1216 3.83326 0.3152 3.65243 0.6528 3.64635C0.6864 3.64635 0.7296 3.59316 0.7488 3.55517C0.8224 3.39713 0.8816 3.233 0.9616 3.078C1.0048 2.9929 0.9952 2.94275 0.9296 2.87285C0.7104 2.6373 0.7136 2.3045 0.9392 2.07807C1.1536 1.86228 1.376 1.65257 1.6016 1.44742C1.7936 1.27418 2.0928 1.2058 2.2896 1.35624C2.5152 1.52948 2.688 1.47022 2.8928 1.36384C2.9696 1.32433 3.056 1.2985 3.1408 1.27722C3.224 1.25595 3.2512 1.21947 3.2576 1.13437C3.2816 0.795493 3.528 0.567546 3.8864 0.556909C4.1824 0.547791 4.48 0.559948 4.776 0.55235C4.8688 0.55083 4.9712 0.535634 5.0528 0.496123C6.0944 0.00679708 7.1856 -0.110216 8.32 0.0994955C8.5136 0.134447 8.6176 0.275774 8.5904 0.438376C8.5616 0.607057 8.4064 0.702795 8.2064 0.678481C7.9904 0.652646 7.7744 0.617695 7.5568 0.605537C6.832 0.562987 6.136 0.675441 5.4784 0.973292C5.44 0.990008 5.3984 1.04927 5.4016 1.08727C5.4048 1.15109 5.3648 1.23315 5.48 1.27114C5.696 1.34105 5.904 1.42919 6.1248 1.51277C6.1312 1.50821 6.1488 1.49757 6.1648 1.48389C6.4896 1.21492 6.816 1.22403 7.1184 1.50821C7.3024 1.68297 7.488 1.85773 7.6704 2.03248C7.944 2.2969 7.9552 2.61299 7.7136 2.89868C7.6816 2.93515 7.6752 3.01418 7.6912 3.06128C7.752 3.22389 7.8352 3.37889 7.8944 3.54149C7.9248 3.62659 7.9648 3.65243 8.0576 3.66003C8.4128 3.68434 8.648 3.92748 8.6528 4.26636C8.656 4.53382 8.656 4.80128 8.6528 5.06722C8.6496 5.42281 8.4112 5.66444 8.04 5.68723C7.9584 5.69179 7.9264 5.71914 7.8992 5.79057C7.8352 5.95773 7.7632 6.12185 7.6848 6.28293C7.6512 6.35132 7.6576 6.39235 7.7104 6.45161C7.9568 6.72667 7.9456 7.0458 7.68 7.30414C7.488 7.49257 7.2992 7.68557 7.0912 7.85729C6.9856 7.94391 6.848 8.01381 6.7136 8.0442C6.4752 8.09739 6.2816 7.98342 6.1248 7.82993C5.9312 7.90743 5.752 7.98798 5.5664 8.05028C5.4592 8.08523 5.4048 8.12018 5.3888 8.2448C5.3728 8.36941 5.2976 8.49554 5.2176 8.59887C5.1536 8.67941 5.04 8.725 4.9744 8.76907C5.1472 9.19761 5.3168 9.61856 5.4896 10.0471H9.1488C9.28 9.45139 9.544 8.91192 9.904 8.41652C10.2016 8.00469 10.5104 7.60047 10.8112 7.19168C10.872 7.10962 10.9216 7.01844 10.992 6.90903C10.6912 6.90903 10.4224 6.90903 10.1536 6.90903C10.096 6.90903 10.0384 6.91207 9.9824 6.90295C9.8288 6.87711 9.7168 6.73427 9.7296 6.5899C9.744 6.43186 9.8768 6.31789 10.0608 6.31637C10.4304 6.31333 10.8 6.31181 11.1696 6.31637C11.272 6.31789 11.32 6.28597 11.344 6.19479C11.392 6.01244 11.456 5.83464 11.4944 5.65076C11.5328 5.46992 11.5488 5.28453 11.576 5.08393C10.952 5.08393 10.3584 5.08393 9.7664 5.08393C9.6992 5.08393 9.6304 5.08393 9.5648 5.06874C9.4176 5.03834 9.3232 4.91677 9.328 4.77696C9.3328 4.6326 9.4432 4.51407 9.5984 4.49583C9.6544 4.48975 9.712 4.48975 9.7696 4.48975C10.3104 4.48975 10.8528 4.49127 11.3936 4.49127C11.448 4.49127 11.5024 4.48671 11.6064 4.48215C11.5184 4.09768 11.4336 3.73753 11.3552 3.37737C11.3328 3.27252 11.2752 3.25124 11.1696 3.25276C10.7952 3.25884 10.4192 3.25732 10.0448 3.25276C9.8656 3.25124 9.7328 3.12663 9.7264 2.96859C9.72 2.81206 9.848 2.67378 10.0256 2.66466C10.2176 2.65402 10.4112 2.66162 10.6032 2.6601C10.736 2.6601 10.8688 2.6601 11.0016 2.6601C11.0128 2.64642 11.0224 2.63274 11.0336 2.62059C10.8432 2.382 10.6528 2.14494 10.464 1.90635C10.4176 1.84861 10.3664 1.78782 10.3456 1.71944C10.304 1.58875 10.3744 1.45502 10.496 1.39271C10.6256 1.32737 10.7648 1.34712 10.8784 1.4611C11.2032 1.7863 11.464 2.15406 11.6784 2.55372C11.7024 2.59779 11.7568 2.65402 11.8016 2.65706C11.9776 2.66922 12.1536 2.66162 12.3312 2.66162C12.4176 2.3121 12.4976 1.97474 12.584 1.6389C12.6336 1.4459 12.7264 1.37448 12.936 1.37144C13.176 1.36688 13.416 1.36384 13.6544 1.37144C13.7744 1.376 13.832 1.34105 13.8848 1.23163C14.0848 0.81069 14.5584 0.588821 15.0464 0.670882C15.488 0.743825 15.8592 1.12222 15.904 1.54316C15.9536 2.02185 15.68 2.44887 15.2208 2.61451C14.7728 2.77559 14.2192 2.65402 13.9984 2.25435C13.8336 1.95802 13.624 1.94435 13.352 1.96258C13.3312 1.96258 13.3104 1.96562 13.2896 1.96258C13.1856 1.9489 13.1344 1.98234 13.1104 2.09023C13.0496 2.38504 12.9712 2.67833 12.8992 2.97163C12.848 3.1783 12.7488 3.25276 12.5264 3.25428C12.3456 3.25428 12.1664 3.25428 11.9968 3.25428C12.072 3.67066 12.144 4.07185 12.2176 4.48519C12.2576 4.48671 12.3088 4.49127 12.36 4.49127C12.824 4.49127 13.2864 4.48671 13.7504 4.49431C13.8688 4.49583 13.92 4.45936 13.968 4.35906C14.1472 3.97763 14.5584 3.74664 14.984 3.774C15.4416 3.80287 15.808 4.07337 15.9472 4.48063C15.9632 4.52622 15.9808 4.57181 15.9984 4.6174V4.94413H16ZM6.6 1.879C6.5408 1.94586 6.4848 2.01729 6.4192 2.07959C6.2784 2.2118 6.1568 2.21332 5.9808 2.13886C5.6688 2.00665 5.3536 1.88204 5.0336 1.76655C4.8608 1.70424 4.7808 1.62066 4.7776 1.43982C4.776 1.34712 4.7776 1.25595 4.7776 1.16173H3.8784C3.8784 1.25595 3.8784 1.33953 3.8784 1.42311C3.8752 1.62978 3.7984 1.7012 3.5936 1.77263C3.288 1.879 2.9856 1.99905 2.6896 2.12974C2.4976 2.21484 2.3776 2.21484 2.2272 2.06896C2.1632 2.00665 2.1136 1.92763 2.0752 1.879C1.832 2.10847 1.6256 2.30298 1.4032 2.51421C1.4624 2.56436 1.5376 2.61907 1.6016 2.68137C1.7408 2.81662 1.7424 2.92756 1.6624 3.09624C1.5216 3.39257 1.3936 3.69346 1.272 3.99587C1.208 4.15543 1.1248 4.23293 0.944 4.24205C0.8416 4.24661 0.7392 4.24205 0.6368 4.24205V5.09153C0.7264 5.09153 0.8048 5.09153 0.8816 5.09153C1.1264 5.09153 1.2048 5.16751 1.2848 5.3833C1.3872 5.6614 1.5056 5.93645 1.64 6.20087C1.7504 6.41818 1.752 6.51392 1.568 6.68716C1.5104 6.74187 1.4416 6.78594 1.4064 6.81329C1.64 7.03516 1.8432 7.22967 2.0688 7.44394C2.1248 7.38316 2.1872 7.30262 2.2624 7.23575C2.376 7.13242 2.5024 7.12634 2.6496 7.18864C2.976 7.32693 3.3072 7.45458 3.6384 7.57919C3.7856 7.6339 3.872 7.72052 3.8752 7.874C3.8768 7.97126 3.8752 8.07004 3.8752 8.17641H4.7744C4.7744 8.08067 4.7744 7.99253 4.7744 7.90591C4.7776 7.71596 4.8528 7.63998 5.04 7.57311C5.3552 7.45914 5.6656 7.33757 5.9712 7.20384C6.1584 7.12178 6.272 7.12178 6.4208 7.26614C6.4848 7.32845 6.5328 7.40747 6.5792 7.46522C6.824 7.23271 7.0288 7.0382 7.2528 6.82393C7.184 6.76618 7.1008 6.7054 7.0288 6.63549C6.912 6.52304 6.912 6.39843 6.9792 6.25406C7.1216 5.94861 7.256 5.6386 7.3824 5.32708C7.4416 5.18119 7.5392 5.09761 7.704 5.09153C7.8064 5.08849 7.9088 5.09153 8.0144 5.09153V4.24205C7.904 4.24205 7.8064 4.24661 7.7072 4.24205C7.5248 4.23293 7.4416 4.15543 7.3776 3.99739C7.2528 3.69042 7.12 3.38497 6.9792 3.08408C6.9072 2.92756 6.9088 2.81662 7.0352 2.69201C7.1056 2.62211 7.1856 2.56132 7.2576 2.49902C7.0304 2.28475 6.8272 2.09479 6.5936 1.87444L6.6 1.879ZM5.8208 13.2779C5.8208 13.4496 5.8208 13.6107 5.8208 13.7733C5.824 14.1638 6.056 14.3918 6.4672 14.3994C6.7328 14.4039 6.9984 14.3994 7.264 14.3994C7.5552 14.3994 7.848 14.4024 8.1392 14.3978C8.448 14.3918 8.6928 14.2459 8.7408 13.9967C8.7856 13.7641 8.7744 13.521 8.7872 13.2779H5.8208ZM7.2992 11.3586C7.8928 11.3586 8.4848 11.3586 9.0784 11.3586C9.1456 11.3586 9.216 11.3585 9.2784 11.3388C9.4544 11.2871 9.5584 11.1154 9.5296 10.9422C9.4992 10.7644 9.3424 10.6443 9.1248 10.6428C7.9184 10.6428 6.7104 10.6428 5.504 10.6428C5.2352 10.6428 5.064 10.7856 5.064 11.0014C5.064 11.2187 5.2336 11.357 5.5056 11.3586C6.104 11.3586 6.7024 11.3586 7.3008 11.3586H7.2992ZM7.296 11.9527C6.9632 11.9527 6.6304 11.9527 6.2976 11.9527C6.0224 11.9527 5.7456 11.9497 5.4704 11.9527C5.2272 11.9573 5.0624 12.1108 5.0624 12.3159C5.0624 12.518 5.2192 12.6594 5.4576 12.673C5.4944 12.6746 5.5312 12.673 5.5664 12.673C6.7216 12.673 7.8768 12.673 9.032 12.673C9.0944 12.673 9.1568 12.673 9.2192 12.6639C9.432 12.6335 9.5712 12.439 9.5264 12.2384C9.4864 12.0606 9.328 11.9527 9.0912 11.9527C8.4928 11.9512 7.8944 11.9527 7.296 11.9527ZM15.2848 1.67841C15.2912 1.44134 15.1008 1.24987 14.8528 1.24683C14.6144 1.24379 14.4144 1.42615 14.4064 1.65257C14.4 1.88508 14.5968 2.08263 14.84 2.08567C15.0768 2.08871 15.2784 1.90483 15.2848 1.67841ZM14.9296 4.36666C14.688 4.36666 14.496 4.54902 14.4944 4.78C14.4928 5.01403 14.6928 5.20702 14.936 5.2055C15.1728 5.20247 15.3712 5.01403 15.3744 4.78912C15.3776 4.55662 15.176 4.36514 14.9296 4.36666ZM15.2848 7.90591C15.2848 7.67341 15.0992 7.49105 14.856 7.48649C14.608 7.48193 14.4064 7.66581 14.4048 7.90136C14.4048 8.13386 14.608 8.32838 14.8496 8.32382C15.088 8.32078 15.2816 8.13386 15.2832 7.90591H15.2848Z" fill="#410EAD"/>
<path d="M9.24957 0.85471C9.24637 0.687549 9.38557 0.550781 9.55997 0.550781C9.72477 0.550781 9.86717 0.68299 9.87197 0.839514C9.87677 0.996037 9.74077 1.13584 9.57437 1.14192C9.39997 1.14952 9.25277 1.01883 9.24957 0.853191V0.85471Z" fill="#410EAD"/>
<path d="M4.78895 5.59015C4.78895 5.76643 4.69295 5.8804 4.54735 5.91383C4.41615 5.94423 4.27375 5.88496 4.20815 5.76035C4.15535 5.65853 4.12335 5.5476 4.06735 5.4473C4.04495 5.40627 3.98255 5.36068 3.93615 5.35916C3.68175 5.35004 3.42575 5.35156 3.17135 5.35916C3.12975 5.35916 3.07375 5.40323 3.05135 5.44122C3.00655 5.51721 2.97935 5.60535 2.94415 5.68741C2.85935 5.88344 2.70575 5.96398 2.53295 5.90168C2.34895 5.83633 2.28175 5.67677 2.36335 5.47466C2.64175 4.79385 2.92335 4.11457 3.20335 3.43377C3.22415 3.38362 3.24495 3.33196 3.26575 3.28181C3.31855 3.16024 3.41455 3.09185 3.55375 3.09033C3.69935 3.09033 3.80015 3.15872 3.85295 3.28789C4.00495 3.65564 4.15695 4.02187 4.30895 4.38963C4.45295 4.73915 4.59695 5.08715 4.73935 5.43666C4.76335 5.49593 4.77935 5.55824 4.78735 5.58711L4.78895 5.59015ZM3.78735 4.75434C3.71055 4.57047 3.64175 4.40483 3.55855 4.20271C3.47375 4.40786 3.40495 4.57503 3.33135 4.75434H3.78735Z" fill="#410EAD"/>
<path d="M5.88963 4.49759C5.88963 4.83799 5.88963 5.17991 5.88963 5.52031C5.88963 5.57958 5.88963 5.64037 5.87523 5.69659C5.84643 5.82576 5.71843 5.91846 5.58083 5.91998C5.44323 5.91998 5.31202 5.83032 5.28162 5.70267C5.26722 5.64037 5.26562 5.57502 5.26562 5.5112C5.26562 4.83951 5.26562 4.16631 5.26562 3.49463C5.26562 3.47031 5.26562 3.44448 5.26562 3.42016C5.27363 3.21349 5.39522 3.08736 5.58242 3.08888C5.76322 3.09192 5.88162 3.21349 5.88802 3.41408C5.89282 3.54325 5.88802 3.6709 5.88802 3.80007C5.88802 4.03258 5.88802 4.26509 5.88802 4.49759H5.88963Z" fill="#410EAD"/>
</svg>
