<svg width="15" height="15" viewBox="0 0 15 15" fill="none" xmlns="http://www.w3.org/2000/svg">
<path d="M10.2675 0C10.3408 0.0822238 10.4288 0.157298 10.4874 0.248459C10.8906 0.883012 11.3891 1.4264 12.1148 1.70704C12.3933 1.81429 12.703 1.85182 13.0017 1.89472C13.2326 1.9269 13.3389 2.00733 13.3389 2.23613C13.3389 3.99322 13.3426 5.74852 13.3297 7.5056C13.3243 8.21166 13.1776 8.89983 12.9632 9.57371C12.9486 9.62018 12.9339 9.66487 12.9193 9.71135C14.3083 10.1761 15.089 11.0913 14.9919 12.5463C14.9149 13.7028 14.2076 14.5036 13.108 14.8503C11.7757 15.2686 10.7037 14.786 9.93032 13.7046C9.45935 13.9512 8.99571 14.2104 8.51741 14.4392C8.00429 14.6841 7.45452 14.8325 6.89741 14.954C6.64085 15.0112 6.40079 14.9433 6.15889 14.8861C3.08383 14.1389 0.728971 11.7008 0.157208 8.65495C0.0655789 8.16339 0.0160994 7.65754 0.0106017 7.15883C-0.00772408 5.53044 0.00327138 3.90027 0.00327138 2.27009C0.00327138 2.00376 0.0967326 1.90902 0.367954 1.8983C1.22193 1.86434 1.87433 1.455 2.41311 0.845475C2.57254 0.66494 2.69899 0.459381 2.84376 0.266334C2.9134 0.175172 2.99037 0.0893737 3.06367 0C3.84435 0 4.62502 0 5.4057 0C5.45518 0.0464743 5.53215 0.0840114 5.54864 0.137636C5.5743 0.228797 5.58896 0.33962 5.55964 0.427206C5.52115 0.541605 5.40387 0.584504 5.27925 0.584504C4.92373 0.584504 4.56821 0.584504 4.21453 0.584504C3.96896 0.584504 3.7234 0.589866 3.47966 0.582717C3.38254 0.579142 3.32939 0.611316 3.27625 0.689965C2.84926 1.34418 2.30682 1.884 1.57012 2.20396C1.27141 2.33265 0.948879 2.40415 0.602523 2.51319C0.602523 2.52213 0.602523 2.57396 0.602523 2.6258C0.602523 4.1237 0.60069 5.62161 0.602523 7.11951C0.608021 10.0438 2.33247 12.6821 5.06118 13.8958C5.53031 14.105 6.0416 14.2194 6.53823 14.3677C6.62803 14.3945 6.73615 14.3856 6.83144 14.3677C7.82103 14.1622 8.72816 13.7671 9.55648 13.2005C9.64078 13.1415 9.66643 13.0915 9.63895 12.9878C9.19913 11.3397 10.4361 9.72743 12.1899 9.66666C12.2852 9.66308 12.3163 9.62555 12.342 9.54869C12.6095 8.76935 12.7415 7.97035 12.7415 7.1499C12.7415 5.63769 12.7415 4.12549 12.7415 2.61329C12.7415 2.57039 12.736 2.52749 12.736 2.50604C12.4391 2.42024 12.1496 2.36125 11.8802 2.254C11.1032 1.94477 10.5332 1.39244 10.0843 0.71499C10.022 0.622041 9.96148 0.586291 9.84603 0.586291C9.25044 0.591654 8.65485 0.589866 8.0611 0.589866C7.83569 0.589866 7.72207 0.53088 7.67443 0.384307C7.62678 0.239521 7.68176 0.130486 7.87051 0.00357503C8.67135 0.00357503 9.47218 0.00357503 10.2712 0.00357503L10.2675 0ZM12.2797 10.2458C11.105 10.2458 10.1502 11.1735 10.1484 12.3175C10.1466 13.4597 11.1013 14.3999 12.2687 14.4035C13.4507 14.407 14.411 13.474 14.411 12.3246C14.411 11.1914 13.4415 10.2458 12.2797 10.2458Z" fill="#410EAD"/>
<path d="M6.72526 0C6.85538 0.0661365 6.95983 0.150148 6.9525 0.309233C6.94517 0.443293 6.83705 0.557692 6.70144 0.580929C6.57316 0.602379 6.43755 0.53088 6.3844 0.412907C6.32759 0.289571 6.36425 0.14121 6.4742 0.0607741C6.50535 0.037537 6.54201 0.0196622 6.57499 0C6.62447 0 6.67578 0 6.72526 0Z" fill="#410EAD"/>
<path d="M5.22072 7.0428C5.22072 6.57091 5.18407 6.09365 5.22989 5.62533C5.29403 4.94073 5.93543 4.42415 6.6483 4.42236C7.35567 4.42236 7.98608 4.94609 8.07404 5.62533C8.10153 5.83268 8.09786 6.0436 8.0997 6.25274C8.10336 6.78898 8.10703 7.32701 8.0997 7.86325C8.0887 8.54785 7.3575 8.9554 6.77658 8.60505C6.53651 8.46027 6.37525 8.24756 6.36791 7.97407C6.35142 7.2859 6.35509 6.59951 6.35875 5.91133C6.35875 5.74688 6.49253 5.63427 6.6483 5.63248C6.80407 5.62891 6.93784 5.73973 6.94518 5.90418C6.958 6.15264 6.95251 6.4011 6.95251 6.64956C6.95251 7.04459 6.95251 7.43962 6.95251 7.83465C6.95251 8.00446 7.02764 8.10456 7.15959 8.13495C7.33735 8.17606 7.48945 8.0563 7.49861 7.85789C7.50594 7.68272 7.50045 7.50754 7.50045 7.33058C7.50045 6.83724 7.50594 6.34569 7.50045 5.85234C7.48945 5.21421 6.83889 4.81382 6.27629 5.09624C5.96841 5.24996 5.80715 5.50915 5.80348 5.84162C5.79432 6.64598 5.79065 7.45213 5.80348 8.25649C5.81448 8.8839 6.29644 9.36294 6.93785 9.40584C7.19624 9.42372 7.4583 9.41657 7.71852 9.41299C8.12719 9.40763 8.45522 9.5542 8.69712 9.88131C8.78141 9.99392 8.88587 10.0958 8.99399 10.1852C9.1296 10.296 9.16809 10.4408 9.07829 10.5838C8.99583 10.7125 8.82173 10.7715 8.68612 10.6821C8.54868 10.5909 8.4039 10.4837 8.31594 10.3496C8.13085 10.069 7.88529 9.97783 7.55359 9.99392C7.25488 10.0082 6.94884 10.01 6.65746 9.95638C5.80715 9.80087 5.21156 9.08588 5.19873 8.24398C5.19323 7.84359 5.19873 7.44319 5.19873 7.04459C5.20606 7.04459 5.21339 7.04459 5.22072 7.04459V7.0428Z" fill="#410EAD"/>
<path d="M2.7207 6.74256C2.74453 6.251 2.73536 5.75587 2.79767 5.26789C3.00292 3.64486 4.43599 2.26315 6.10363 2.04686C8.32105 1.76087 10.2709 3.20157 10.5898 5.36441C10.6173 5.5521 10.6246 5.74336 10.6264 5.93283C10.6301 6.61564 10.6264 7.29846 10.6264 7.98128C10.6264 8.02954 10.6283 8.07959 10.6191 8.12785C10.5898 8.27621 10.456 8.37809 10.3076 8.36916C10.1646 8.36201 10.0473 8.25118 10.029 8.10819C10.0235 8.05992 10.0253 8.00988 10.0253 7.96161C10.0253 7.25914 10.029 6.55666 10.0253 5.85418C10.0162 4.28299 8.9203 2.97814 7.34612 2.6546C5.57769 2.29175 3.79459 3.43037 3.42808 5.16779C3.3731 5.4234 3.35111 5.68973 3.34561 5.95071C3.33462 6.61922 3.34195 7.28774 3.34195 7.95625C3.34195 8.00987 3.34195 8.0635 3.33645 8.11712C3.31812 8.25655 3.20817 8.35665 3.06706 8.36916C2.93511 8.37988 2.805 8.30123 2.76652 8.17254C2.74636 8.10819 2.74269 8.03848 2.74269 7.97055C2.74086 7.56122 2.74269 7.1501 2.74269 6.74077C2.73536 6.74077 2.72803 6.74077 2.7207 6.74077V6.74256Z" fill="#410EAD"/>
<path d="M8.74127 6.99416C8.74127 6.51154 8.77793 6.02535 8.73394 5.54809C8.64048 4.55783 7.77001 3.80352 6.73644 3.76956C5.72302 3.73559 4.8104 4.44343 4.62715 5.41403C4.59599 5.57669 4.585 5.74293 4.585 5.90916C4.58133 6.64024 4.585 7.3731 4.58316 8.10418C4.58316 8.70298 4.33393 9.17845 3.82265 9.51807C3.78599 9.5431 3.74568 9.56633 3.70536 9.58421C3.55692 9.65034 3.39199 9.60208 3.31319 9.4716C3.23256 9.33575 3.26005 9.16951 3.40482 9.08729C3.85013 8.83347 3.99674 8.44916 3.98575 7.96654C3.97108 7.25513 3.97658 6.54193 3.98391 5.83051C3.99491 4.54889 4.84889 3.51395 6.1152 3.24046C7.64356 2.90978 9.19942 4.00193 9.33503 5.51949C9.37718 5.99496 9.35885 6.474 9.36435 6.95126C9.36801 7.35165 9.36435 7.75205 9.36435 8.15065C9.36801 8.56177 9.56227 8.86564 9.92329 9.07299C9.96177 9.09444 10.0039 9.1141 10.0369 9.1427C10.1469 9.23386 10.1743 9.38044 10.1084 9.5002C10.0406 9.61996 9.89946 9.67894 9.76385 9.63962C9.7162 9.62532 9.67039 9.60566 9.62824 9.58063C9.0858 9.2714 8.78709 8.81202 8.76693 8.19713C8.7541 7.79673 8.7651 7.39634 8.7651 6.99773C8.75777 6.99773 8.75044 6.99773 8.74311 6.99773L8.74127 6.99416Z" fill="#410EAD"/>
<path d="M7.19465 11.3432C6.53676 11.3378 5.96316 11.1197 5.44271 10.7229C5.2448 10.5727 4.98823 10.4852 4.74634 10.4065C4.63821 10.3708 4.49161 10.4119 4.37616 10.4512C4.21855 10.5048 4.06279 10.4798 3.97665 10.3529C3.89236 10.2242 3.92717 10.0508 4.06462 9.95071C4.29002 9.78626 4.54842 9.77554 4.81048 9.81665C5.18615 9.87563 5.53251 10.0204 5.82206 10.2617C6.24721 10.6121 6.73468 10.7694 7.28628 10.764C7.36692 10.764 7.44572 10.7604 7.52635 10.7676C7.69678 10.7801 7.80857 10.8945 7.8104 11.0482C7.81223 11.2055 7.70777 11.3253 7.53918 11.3414C7.42556 11.3521 7.31011 11.3432 7.19465 11.3432Z" fill="#410EAD"/>
<path d="M11.8437 12.7446C12.2487 12.3496 12.6446 11.9635 13.0386 11.5774C13.0771 11.5398 13.1155 11.5005 13.1595 11.4683C13.2786 11.3825 13.4399 11.3933 13.5444 11.4898C13.6488 11.5863 13.6672 11.7418 13.5829 11.8634C13.5554 11.9027 13.5187 11.9384 13.4839 11.9724C13.0257 12.4211 12.5658 12.8697 12.1058 13.3166C11.8914 13.5239 11.7429 13.5186 11.5414 13.2969C11.3526 13.0896 11.162 12.8822 10.9751 12.6731C10.8816 12.5676 10.8578 12.4461 10.9275 12.321C10.9953 12.2012 11.1107 12.1494 11.2445 12.1833C11.316 12.2012 11.3874 12.253 11.4406 12.3067C11.5762 12.4425 11.7008 12.5891 11.8456 12.7464L11.8437 12.7446Z" fill="#410EAD"/>
</svg>
