<svg width="14" height="15" viewBox="0 0 14 15" fill="none" xmlns="http://www.w3.org/2000/svg">
<path d="M4.32687 12.3715C4.24375 12.3715 4.1825 12.3715 4.12125 12.3715C2.86781 12.3715 1.61437 12.3715 0.360937 12.3715C0.0678124 12.3715 0 12.3004 0 11.9933C0 11.4204 0 10.8451 0 10.2722C0.004375 8.68851 1.01281 7.39134 2.49156 7.0659C2.58562 7.04527 2.67969 7.03152 2.78031 7.01319C1.56844 5.90394 1.90313 4.2057 2.74313 3.46544C3.63781 2.67476 4.95469 2.73206 5.77281 3.61441C6.58 4.4853 6.65656 6.02083 5.58031 7.01319C5.68531 7.03152 5.78156 7.0361 5.86687 7.06819C6.17969 7.18278 6.48813 7.30883 6.79875 7.42342C6.85125 7.44176 6.93656 7.45322 6.96719 7.42342C7.59281 6.85047 8.56844 6.91464 9.12406 7.5701C9.13281 7.58156 9.14812 7.58843 9.16781 7.60448C9.19406 7.55635 9.21594 7.50822 9.24219 7.46467C9.63375 6.7863 10.2134 6.45169 10.9616 6.51815C11.7075 6.58461 12.2347 7.01777 12.4819 7.75574C12.7312 8.49141 12.5737 9.16521 12.0444 9.71983C11.9372 9.83213 11.8956 9.93068 11.9022 10.0865C11.9153 10.3959 11.9066 10.7053 11.9066 11.0376C11.9678 10.9987 12.0116 10.9735 12.0509 10.9437C12.5519 10.5816 13.0528 10.2172 13.5516 9.85276C13.65 9.78171 13.7462 9.73129 13.8644 9.79775C13.9781 9.86192 14 9.97193 14 10.098C14 11.6037 14 13.1117 14 14.6175C14 14.7481 13.9825 14.8627 13.8622 14.9314C13.7353 15.0025 13.6369 14.9314 13.5384 14.8604C13.0441 14.4983 12.5475 14.1385 12.0531 13.7764C12.0159 13.7489 11.9766 13.7236 11.9109 13.6778C11.9109 13.8749 11.9109 14.0468 11.9109 14.221C11.9109 14.3722 11.9109 14.5212 11.9109 14.6725C11.9109 14.9131 11.8256 15.0002 11.5938 15.0002C10.5656 15.0002 9.5375 15.0002 8.50719 15.0002C7.76562 15.0002 7.02406 15.0002 6.28031 15.0002C5.95 15.0002 5.89094 14.9383 5.89094 14.5854C5.89094 14.3768 5.89094 14.1683 5.89094 13.9574C5.89094 13.9482 5.88656 13.9368 5.87781 13.907C5.68094 13.907 5.4775 13.907 5.27625 13.907C5.05531 13.907 4.83656 13.907 4.61562 13.907C4.41656 13.907 4.32688 13.8107 4.32469 13.5999C4.32469 13.1988 4.32469 12.7978 4.32469 12.3738L4.32687 12.3715ZM2.39094 11.8444H4.32687C4.32687 11.606 4.32687 11.3814 4.32687 11.1568C4.32687 10.9093 4.41219 10.8222 4.65281 10.8199C5.01156 10.8199 5.36812 10.8199 5.72688 10.8199C5.77938 10.8199 5.83406 10.8199 5.89312 10.8199C5.89312 10.5518 5.89312 10.3111 5.89312 10.0705C5.89312 9.8115 5.97625 9.72671 6.22781 9.72671C6.42031 9.72671 6.61062 9.72671 6.83156 9.72671C6.40062 9.14917 6.32844 8.551 6.60406 7.90471C6.25625 7.68469 5.88656 7.5426 5.48625 7.53572C4.62219 7.52197 3.75594 7.50822 2.89188 7.53572C1.70625 7.57697 0.627812 8.63121 0.522812 9.8688C0.468125 10.5128 0.49875 11.1637 0.492188 11.8123C0.492188 11.8214 0.500937 11.8306 0.509687 11.8466H1.89656C1.89656 11.7596 1.89656 11.6816 1.89656 11.6014C1.89656 11.1774 1.89656 10.7534 1.89656 10.3317C1.89656 10.1667 2.00156 10.0636 2.14156 10.0636C2.27719 10.0636 2.37344 10.1644 2.38437 10.3203C2.38875 10.373 2.38437 10.428 2.38437 10.4807C2.38437 10.9299 2.38437 11.3791 2.38437 11.8421L2.39094 11.8444ZM6.39844 10.2515V14.4754H11.4078V10.2515H6.39844ZM2.48063 5.20952C2.47844 6.1973 3.23313 6.99943 4.18031 7.00631C5.11656 7.01548 5.89094 6.21105 5.8975 5.22556C5.90406 4.23091 5.13625 3.41961 4.18906 3.41961C3.24844 3.41961 2.485 4.21945 2.48281 5.20952H2.48063ZM10.8084 9.72441C11.5259 9.72441 12.0969 9.13312 12.0991 8.3837C12.1012 7.62969 11.5259 7.02006 10.8106 7.01777C10.0909 7.01777 9.51344 7.62052 9.51344 8.37224C9.51344 9.13083 10.08 9.72441 10.8084 9.72212V9.72441ZM13.5034 10.5357C13.4706 10.5495 13.4553 10.5541 13.4444 10.5609C12.9566 10.9139 12.4688 11.2668 11.9875 11.6266C11.9438 11.6587 11.9131 11.7389 11.9131 11.7962C11.9066 12.1767 11.9044 12.5571 11.9131 12.9353C11.9131 12.9994 11.9591 13.0865 12.0116 13.1232C12.4688 13.4647 12.9325 13.797 13.3941 14.1316C13.4247 14.1545 13.4597 14.1706 13.5034 14.1958V10.5334V10.5357ZM7.97344 9.72671C8.55969 9.72671 9.02344 9.2523 9.02563 8.64497C9.02781 8.04451 8.5575 7.54718 7.98438 7.5426C7.41125 7.53801 6.93875 8.03076 6.93656 8.6358C6.93656 9.25001 7.38719 9.72671 7.97563 9.72671H7.97344ZM4.82781 11.3424V13.3799H5.88438V11.3424H4.82781ZM9.54406 9.71754C9.45656 9.61211 9.38875 9.52732 9.31656 9.44023C9.25531 9.5319 9.19844 9.6167 9.13063 9.71754H9.54187H9.54406Z" fill="#410EAD"/>
<path d="M12.7203 3.00917C12.7203 3.7013 12.7203 4.39343 12.7203 5.08327C12.7203 5.65622 12.3988 5.99083 11.8519 5.99083C10.5219 5.99083 9.19187 5.99083 7.85969 5.99083C7.32813 5.99083 7 5.64476 7 5.08556C7 3.69213 7 2.29641 7 0.902978C7 0.346065 7.3325 0.00229182 7.86406 0C9.19406 0 10.5241 0 11.8562 0C12.39 0 12.7181 0.33919 12.7203 0.898395C12.7225 1.59969 12.7203 2.30328 12.7203 3.00458V3.00917ZM12.2259 3.00229C12.2259 2.30558 12.2259 1.60886 12.2259 0.909854C12.2259 0.625668 12.1231 0.517952 11.8562 0.517952C10.5262 0.517952 9.19406 0.517952 7.86406 0.517952C7.60375 0.517952 7.49219 0.634835 7.49219 0.912146C7.49219 2.30099 7.49219 3.68984 7.49219 5.07868C7.49219 5.36745 7.59719 5.47746 7.87281 5.47746C9.19844 5.47746 10.5241 5.47746 11.8497 5.47746C12.1253 5.47746 12.2259 5.37204 12.2259 5.07639C12.2259 4.38426 12.2259 3.69213 12.2259 3V3.00229Z" fill="#410EAD"/>
<path d="M7.29955 12.3758C7.29955 11.9106 7.29955 11.4431 7.29955 10.9778C7.29955 10.6776 7.47455 10.5699 7.72174 10.7188C8.48299 11.1772 9.24424 11.6379 10.0033 12.0985C10.268 12.259 10.2658 12.4675 9.99893 12.6279C9.24424 13.0863 8.48736 13.5447 7.73049 14.0007C7.47893 14.152 7.29955 14.0443 7.29736 13.7395C7.29736 13.2834 7.29736 12.8296 7.29736 12.3735L7.29955 12.3758ZM9.4608 12.3644C8.89861 12.0229 8.35611 11.6952 7.80049 11.356V13.3705C8.35611 13.0336 8.89643 12.7059 9.4608 12.3644Z" fill="#410EAD"/>
<path d="M9.8681 3.19013C9.4481 3.19013 9.03029 3.19013 8.61029 3.19013C8.41779 3.19013 8.30185 3.09616 8.29748 2.94032C8.2931 2.7776 8.41342 2.67676 8.61467 2.67676C9.4481 2.67676 10.2815 2.67676 11.1128 2.67676C11.3119 2.67676 11.419 2.76385 11.4234 2.92657C11.4278 3.09616 11.3184 3.19013 11.1106 3.19013C10.6972 3.19013 10.2837 3.19013 9.8681 3.19013Z" fill="#410EAD"/>
<path d="M9.85685 4.391C9.4281 4.391 8.99935 4.391 8.56841 4.391C8.40654 4.391 8.30372 4.29245 8.29716 4.14807C8.2906 4.00139 8.39779 3.89138 8.56404 3.87992C8.59904 3.87763 8.63622 3.87992 8.67122 3.87992C8.90091 3.87992 9.1306 3.87992 9.36029 3.87992C9.92247 3.87992 10.4847 3.87992 11.0468 3.87992C11.0928 3.87992 11.1387 3.87993 11.1847 3.88222C11.3334 3.90055 11.4253 4.00139 11.4231 4.14348C11.4209 4.28558 11.3247 4.38642 11.1759 4.391C11.0031 4.39788 10.8281 4.39329 10.6553 4.39329C10.3906 4.39329 10.1237 4.39329 9.85904 4.39329L9.85685 4.391Z" fill="#410EAD"/>
<path d="M9.06492 1.47357C9.23336 1.47357 9.4018 1.46898 9.57023 1.47357C9.73211 1.47815 9.83055 1.57441 9.83492 1.72108C9.83711 1.87005 9.74086 1.98006 9.58117 1.98235C9.23992 1.98923 8.89648 1.98923 8.55523 1.98235C8.39773 1.98006 8.29492 1.86547 8.29492 1.72338C8.29492 1.57899 8.39992 1.47586 8.55742 1.47128C8.72586 1.46669 8.8943 1.47128 9.06273 1.47128L9.06492 1.47357Z" fill="#410EAD"/>
</svg>
