<svg width="19" height="15" viewBox="0 0 19 15" fill="none" xmlns="http://www.w3.org/2000/svg">
<path d="M15.0409 9.14593C15.5541 9.14593 16.0419 9.15143 16.5269 9.14318C16.6989 9.14043 16.8258 9.1872 16.933 9.31653C17.0458 9.45411 17.1755 9.58068 17.2996 9.71001C17.4744 9.89437 17.6238 9.88061 17.7592 9.67149C17.9284 9.41008 18.2132 9.29727 18.5036 9.37707C18.7884 9.45411 18.983 9.6935 18.9971 9.97417C19.0083 10.2548 18.8307 10.5107 18.5572 10.607C18.2752 10.7061 17.9678 10.6208 17.7958 10.3676C17.7169 10.2521 17.6379 10.1915 17.4998 10.2136C17.308 10.2438 17.1586 10.175 17.0571 10.0182C16.7864 9.6027 16.4113 9.45411 15.9094 9.5229C15.619 9.56142 15.3173 9.5229 15.0212 9.53391C14.9507 9.53391 14.883 9.58344 14.8153 9.61646C14.7984 9.62471 14.7956 9.65773 14.7843 9.67974C14.57 10.0842 14.3585 10.4915 14.1273 10.9262C14.7167 10.9262 15.2806 10.9345 15.8446 10.9207C16.0532 10.9152 16.197 10.9785 16.3324 11.1326C16.6369 11.4821 16.9612 11.815 17.2798 12.1534C17.4603 12.3461 17.6267 12.3323 17.7592 12.1204C17.9227 11.8618 18.216 11.7407 18.5008 11.815C18.7771 11.8865 18.983 12.1314 18.9971 12.4121C19.0112 12.6873 18.8279 12.9569 18.5628 13.0505C18.278 13.1523 17.9735 13.0725 17.7987 12.8138C17.7112 12.6845 17.6182 12.6432 17.4772 12.6625C17.2967 12.6873 17.167 12.6157 17.0486 12.4836C16.7356 12.1314 16.4142 11.7847 16.0814 11.449C16.0081 11.3747 15.8756 11.3197 15.7684 11.317C15.2158 11.3032 14.6631 11.317 14.1104 11.3059C13.9271 11.3032 13.8171 11.3555 13.71 11.5068C12.74 12.8991 11.5275 14.0328 10.0105 14.8555C9.64953 15.0509 9.37319 15.0454 9.0179 14.8555C7.51497 14.0438 6.30811 12.9239 5.34657 11.5481C5.21968 11.3665 5.08715 11.3004 4.86721 11.3059C4.33991 11.3225 3.81261 11.317 3.28532 11.3059C3.11331 11.3032 2.99488 11.3472 2.88209 11.4765C2.58038 11.8177 2.25892 12.1424 1.95439 12.4809C1.83596 12.613 1.70907 12.6873 1.52578 12.6625C1.38761 12.6432 1.28892 12.6763 1.20151 12.8111C1.03232 13.067 0.72215 13.1495 0.440173 13.0505C0.172296 12.9569 -0.0109896 12.69 0.00310922 12.4121C0.0172081 12.1342 0.217412 11.8893 0.496568 11.815C0.781365 11.738 1.07462 11.859 1.24099 12.1177C1.37634 12.3295 1.54552 12.3433 1.72035 12.1562C2.04462 11.8122 2.36889 11.471 2.68189 11.1188C2.80596 10.9785 2.93567 10.918 3.12741 10.9207C3.70828 10.9317 4.29197 10.9262 4.89822 10.9262C4.65854 10.4667 4.43296 10.0319 4.19892 9.59995C4.17636 9.55867 4.09177 9.53116 4.03538 9.53116C3.53346 9.52565 3.02872 9.5229 2.5268 9.53116C2.45067 9.53116 2.36043 9.58344 2.2984 9.63572C2.18279 9.73753 2.07564 9.8531 1.98259 9.97417C1.84724 10.1475 1.68933 10.2356 1.45529 10.2163C1.38198 10.2108 1.28046 10.2768 1.22971 10.3401C1.02105 10.6015 0.739068 10.7033 0.448632 10.6015C0.169475 10.5025 -0.00816991 10.2548 0.000289386 9.97417C0.00874869 9.68525 0.214592 9.44035 0.507848 9.36606C0.803923 9.29177 1.0718 9.41009 1.25509 9.70176C1.34532 9.84484 1.50887 9.87236 1.63857 9.76504C1.65831 9.74853 1.67523 9.73202 1.68933 9.71001C2.00232 9.19546 2.47322 9.06338 3.05128 9.13217C3.35017 9.16794 3.65471 9.13768 3.97898 9.13768C3.81825 8.68916 3.67163 8.26541 3.5109 7.84717C3.49398 7.80039 3.40375 7.75361 3.34453 7.75361C2.71009 7.74811 2.07564 7.74536 1.44119 7.75361C1.3707 7.75361 1.28328 7.81965 1.23817 7.88019C1.03796 8.14434 0.758807 8.25441 0.462732 8.1636C0.194854 8.08381 0.000289386 7.81965 0.000289386 7.54174C0.000289386 7.26382 0.200493 7.00242 0.468371 6.92538C0.778545 6.83732 1.05206 6.95289 1.25227 7.24181C1.2861 7.29409 1.3566 7.35463 1.41017 7.35738C2.05308 7.36563 2.69317 7.36288 3.36145 7.36288C3.2543 6.90061 3.15279 6.4576 3.04564 5.98708C2.85389 5.98708 2.65369 6.00634 2.46195 5.97882C2.32942 5.95956 2.18279 5.89902 2.08128 5.81647C1.92901 5.6954 1.8134 5.53306 1.67805 5.39273C1.52014 5.23313 1.36506 5.24689 1.24099 5.42575C1.05206 5.70366 0.775725 5.80822 0.47401 5.71742C0.194853 5.63487 0.00310922 5.38447 0.00310922 5.10656C0.00310922 4.81764 0.200493 4.55899 0.488109 4.47919C0.770086 4.39939 1.04642 4.51221 1.24099 4.76536C1.29456 4.83415 1.40453 4.90019 1.48631 4.89743C1.68933 4.89193 1.83596 4.95797 1.95157 5.11481C2.00514 5.18635 2.0841 5.23864 2.13203 5.31293C2.33224 5.61561 2.61985 5.65688 2.97232 5.57433C2.92157 5.10931 2.87363 4.64154 2.81442 4.17376C2.80878 4.12698 2.75238 4.08296 2.71291 4.04168C2.39145 3.69498 2.07 3.35103 1.74855 3.00708C1.53706 2.78419 1.3848 2.7897 1.20715 3.02909C1.03232 3.26573 0.739068 3.36203 0.465551 3.27398C0.183574 3.18318 0.000289386 2.93829 0.000289386 2.65487C0.000289386 2.3742 0.192033 2.12656 0.468371 2.04126C0.747528 1.95596 1.05488 2.04126 1.20433 2.29166C1.29738 2.44575 1.40735 2.4595 1.55962 2.47601C1.69215 2.49252 1.84442 2.55031 1.93747 2.64111C2.27866 2.97681 2.5973 3.33452 2.92721 3.68948C4.37939 2.67963 5.83721 1.70831 7.23863 0.665451C7.88436 0.18667 8.53008 -0.0747339 9.34218 0.018821C9.73131 0.0628469 10.1345 0.0353308 10.5293 0.0215727C10.7492 0.0133178 10.9212 0.0793566 11.0989 0.203179C12.6864 1.31483 14.2768 2.42098 15.8671 3.52713C15.932 3.57391 16.0025 3.61518 16.0871 3.67021C16.4085 3.32626 16.73 2.99332 17.0373 2.64937C17.1558 2.51454 17.2826 2.44299 17.4631 2.46776C17.6069 2.48702 17.6971 2.44024 17.7789 2.30817C17.9425 2.04401 18.2414 1.95046 18.529 2.04126C18.8053 2.12656 18.9942 2.37696 18.9942 2.65762C18.9942 2.93828 18.8053 3.18593 18.5262 3.27398C18.2442 3.36203 17.9481 3.25747 17.7705 3.00432C17.6295 2.80346 17.449 2.7897 17.277 2.9713C16.9471 3.32076 16.62 3.67021 16.2957 4.02517C16.2478 4.07745 16.197 4.14349 16.1914 4.20953C16.1406 4.66355 16.0983 5.11756 16.0532 5.58259C16.3578 5.62661 16.6397 5.64312 16.8371 5.34595C16.9133 5.23313 17.0204 5.13958 17.1191 5.04052C17.1642 4.99649 17.2262 4.9222 17.2714 4.9277C17.59 4.96347 17.7507 4.75985 17.9566 4.57825C18.2273 4.34161 18.6615 4.43516 18.8702 4.72683C19.0845 5.02126 19.0168 5.41474 18.7179 5.62661C18.4218 5.83849 18.0214 5.7752 17.7958 5.48353C17.5844 5.21112 17.4969 5.20837 17.2516 5.46977C17.2178 5.50554 17.1783 5.53581 17.1529 5.57708C16.933 5.92104 16.62 6.05311 16.2111 5.98708C16.0335 5.95956 15.9545 6.02009 15.9207 6.20996C15.8558 6.58968 15.7543 6.96115 15.6641 7.36288C16.3239 7.36288 16.964 7.36563 17.6069 7.35738C17.6577 7.35738 17.7197 7.28033 17.7564 7.22805C17.9425 6.95564 18.2216 6.84558 18.5233 6.92813C18.794 7.00242 18.9942 7.26107 18.9999 7.53899C19.0055 7.8169 18.811 8.08105 18.5431 8.1636C18.247 8.25716 17.965 8.14709 17.762 7.88844C17.7084 7.81965 17.5985 7.75912 17.5139 7.75636C16.9132 7.74536 16.3098 7.74536 15.7092 7.75636C15.6387 7.75636 15.5287 7.8114 15.5062 7.86643C15.3455 8.27642 15.2045 8.69466 15.0466 9.14043L15.0409 9.14593ZM9.66645 0.417805C9.16735 0.417805 8.82898 0.40955 8.49343 0.423308C8.38628 0.42606 8.26221 0.459079 8.17761 0.519615C6.57881 1.62576 4.98282 2.74017 3.38401 3.84632C3.2543 3.93712 3.20636 4.02517 3.22046 4.18201C3.41221 6.66948 4.10023 9.00009 5.50166 11.1051C6.48011 12.5717 7.72363 13.7686 9.32808 14.5831C9.45779 14.6492 9.56776 14.6657 9.69183 14.5831C10.2953 14.1814 10.941 13.8264 11.4965 13.3697C12.8641 12.2498 13.8284 10.8299 14.5446 9.23948C15.2693 7.63254 15.6641 5.95406 15.7882 4.20953C15.8023 4.02792 15.743 3.92061 15.588 3.81605C14.2824 2.91627 12.9684 2.03025 11.691 1.09195C11.0284 0.604915 10.3686 0.22244 9.66363 0.420557L9.66645 0.417805ZM0.973109 2.70715C0.973109 2.67138 0.973109 2.63561 0.970289 2.59984C0.865958 2.53105 0.767266 2.42098 0.654475 2.40722C0.499388 2.38796 0.392237 2.50628 0.397877 2.66588C0.403516 2.82547 0.507848 2.94104 0.668574 2.91077C0.778545 2.88876 0.871598 2.77869 0.973109 2.70715ZM18.6333 2.72641L18.639 2.61635C18.5403 2.54205 18.4472 2.42648 18.3372 2.40722C18.1821 2.37971 18.0694 2.48977 18.0637 2.64937C18.0581 2.80896 18.1568 2.93003 18.3175 2.90802C18.4303 2.89426 18.529 2.7897 18.6333 2.72366V2.72641ZM0.71933 4.80938C0.679854 4.80938 0.643197 4.80938 0.60372 4.80938C0.533226 4.90844 0.420435 5.002 0.403516 5.11206C0.378138 5.26615 0.502208 5.37071 0.662935 5.37071C0.820842 5.37071 0.947731 5.26615 0.922353 5.11206C0.905435 5.00475 0.792644 4.91119 0.71933 4.81214V4.80938ZM18.6361 5.15609C18.6361 5.12032 18.6361 5.08454 18.6333 5.04602C18.529 4.97998 18.4303 4.87542 18.3175 4.85891C18.1568 4.8369 18.0581 4.95797 18.0609 5.11481C18.0637 5.27441 18.1765 5.38722 18.3316 5.36246C18.4416 5.3432 18.5346 5.22763 18.6361 5.15609ZM0.609359 7.85267H0.72215C0.792644 7.75086 0.902615 7.65731 0.919534 7.54999C0.942092 7.3959 0.820842 7.29684 0.657295 7.2996C0.493749 7.2996 0.375318 7.40141 0.403516 7.5555C0.423255 7.66281 0.536045 7.75361 0.609359 7.84992V7.85267ZM18.2752 7.85267C18.3119 7.85267 18.3513 7.85267 18.388 7.85267C18.4557 7.75361 18.5685 7.65731 18.5826 7.54999C18.6051 7.3959 18.4839 7.2996 18.3203 7.30235C18.1568 7.3051 18.0383 7.40691 18.0665 7.561C18.0863 7.66831 18.2019 7.75912 18.2752 7.85542V7.85267ZM0.970289 10.0567C0.970289 10.0209 0.970289 9.98517 0.970289 9.9494C0.868778 9.87786 0.772906 9.76504 0.660115 9.74853C0.507847 9.72652 0.395057 9.83934 0.395057 10.0017C0.395057 10.1613 0.499388 10.2796 0.657295 10.2521C0.770086 10.2328 0.865958 10.1255 0.96747 10.0567H0.970289ZM18.6333 10.065C18.6333 10.0292 18.6333 9.99343 18.6361 9.9549C18.5346 9.88336 18.4444 9.7678 18.3344 9.74578C18.1793 9.71827 18.0665 9.83108 18.0609 9.99068C18.0553 10.1475 18.1568 10.2713 18.3147 10.2493C18.4275 10.2356 18.5262 10.1283 18.6305 10.065H18.6333ZM0.970289 12.5084C0.970289 12.4726 0.970289 12.4369 0.973109 12.4011C0.871598 12.3295 0.778545 12.2195 0.668574 12.1975C0.510668 12.1672 0.403516 12.2828 0.397877 12.4396C0.392237 12.602 0.502208 12.7175 0.654475 12.6983C0.764446 12.6845 0.865958 12.5744 0.970289 12.5057V12.5084ZM18.6361 12.5057C18.6361 12.4699 18.6361 12.4369 18.639 12.4011C18.5403 12.3295 18.4472 12.2222 18.3372 12.1975C18.1821 12.1645 18.075 12.2773 18.0637 12.4314C18.0524 12.602 18.1652 12.7203 18.3288 12.701C18.4387 12.6873 18.5346 12.5744 18.6361 12.5029V12.5057Z" fill="#410EAD"/>
<path d="M9.63272 1.33697C10.1572 1.19113 10.645 1.48005 11.1413 1.83776C12.2523 2.64399 13.3858 3.41994 14.5194 4.19315C14.7421 4.34449 14.8324 4.49582 14.7957 4.76548C14.4263 7.55287 13.4817 10.0954 11.4458 12.1481C10.9467 12.6516 10.3264 13.0396 9.76243 13.4826C9.59888 13.6092 9.45225 13.6009 9.26897 13.4909C7.81961 12.6213 6.74246 11.4161 5.91626 9.98255C4.95754 8.31782 4.43025 6.52377 4.2103 4.63341C4.19339 4.47932 4.24132 4.37751 4.37103 4.2867C5.74144 3.33739 7.10903 2.38258 8.47943 1.43328C8.56684 1.37274 8.69092 1.34247 8.79807 1.33697C9.03493 1.32321 9.27461 1.33147 9.63272 1.33147V1.33697ZM9.61016 1.7222C9.30562 1.7222 9.09696 1.71394 8.89112 1.72495C8.80652 1.73045 8.70783 1.74971 8.64016 1.79649C7.33461 2.69902 6.03469 3.6043 4.7376 4.51509C4.67557 4.55911 4.62199 4.67193 4.63327 4.74622C4.83065 6.43847 5.31283 8.05091 6.13057 9.56155C6.88908 10.9649 7.89574 12.1563 9.26615 13.0368C9.44097 13.1497 9.56504 13.1607 9.74551 13.0423C10.535 12.5278 11.2259 11.9114 11.8068 11.1823C13.3125 9.29464 14.071 7.12087 14.3925 4.77924C14.415 4.6224 14.3445 4.54811 14.2261 4.46831C13.1179 3.70061 12.0013 2.94116 10.9101 2.15145C10.4843 1.84327 10.0641 1.59837 9.61016 1.71944V1.7222Z" fill="#410EAD"/>
<path d="M7.57109 6.62824C7.57109 6.25402 7.59083 5.90732 7.56827 5.56337C7.4865 4.43245 8.27039 3.41711 9.87766 3.61522C10.8025 3.72804 11.4173 4.40769 11.437 5.32123C11.4455 5.74497 11.437 6.17148 11.437 6.62824C11.5921 6.62824 11.7218 6.631 11.8487 6.62824C12.015 6.62274 12.0968 6.70804 12.0968 6.86213C12.0884 7.69037 12.125 8.52411 12.0545 9.34684C11.9615 10.4035 10.9464 11.2647 9.85792 11.3308C9.04865 11.3775 8.29295 11.2702 7.68106 10.6924C7.19324 10.2356 6.93383 9.67703 6.92537 9.01665C6.91691 8.33149 6.92255 7.64909 6.92537 6.96394C6.92537 6.66126 6.95638 6.631 7.26374 6.62824C7.35397 6.62824 7.4442 6.62824 7.57391 6.62824H7.57109ZM7.32295 7.02448C7.32295 7.75916 7.32013 8.46632 7.32577 9.17074C7.32577 9.28906 7.36243 9.41013 7.39627 9.52294C7.66696 10.4392 8.44804 10.9483 9.57031 10.9455C10.842 10.94 11.6908 10.12 11.6992 8.87631C11.7049 8.32874 11.6992 7.78392 11.6992 7.23635C11.6992 7.16756 11.688 7.09877 11.6823 7.02448H7.32013H7.32295ZM11.0197 6.61449C11.0197 6.08342 11.0676 5.56062 11.0084 5.04882C10.9351 4.42145 10.3401 4.00045 9.64362 3.98944C8.73566 3.97569 8.12095 4.31964 8.02507 5.00479C7.94894 5.53035 8.01098 6.07242 8.01098 6.61449H8.41702C8.43112 6.59247 8.43958 6.58422 8.43958 6.57871C8.44522 6.18523 8.4424 5.79175 8.45368 5.39827C8.46496 4.99103 8.699 4.61681 9.06557 4.52051C9.49417 4.40769 9.93406 4.37467 10.2865 4.72963C10.498 4.94426 10.5741 5.21116 10.5741 5.50008C10.5741 5.8688 10.5741 6.23476 10.5741 6.61449H11.0197ZM10.1737 6.61724C10.1737 6.19074 10.1878 5.789 10.1681 5.39002C10.1512 5.07358 9.94534 4.87271 9.67464 4.84795C9.21502 4.80667 8.9274 4.91399 8.88792 5.23868C8.83717 5.69269 8.87383 6.15772 8.87383 6.61999H10.1709L10.1737 6.61724Z" fill="#410EAD"/>
<path d="M9.50307 9.73458C8.91374 9.73183 8.55563 9.11822 8.83478 8.60917C8.89964 8.4881 8.94193 8.34502 8.95039 8.21019C8.97577 7.86623 9.19571 7.6296 9.51717 7.63235C9.83016 7.6351 10.0332 7.86073 10.067 8.20193C10.0811 8.34502 10.1262 8.49636 10.1939 8.62568C10.4618 9.14023 10.0924 9.74284 9.50307 9.73733V9.73458ZM9.58484 9.34936C9.6356 9.31083 9.77658 9.25305 9.83016 9.15124C9.88092 9.05493 9.88656 8.87057 9.8217 8.79903C9.67225 8.63394 9.66097 8.46058 9.66379 8.26522C9.66379 8.1524 9.66379 8.00932 9.50025 8.03684C9.43821 8.04784 9.3649 8.17992 9.35926 8.26247C9.34798 8.45508 9.3367 8.62568 9.19853 8.79353C9.01807 9.01641 9.20699 9.33835 9.58484 9.34936Z" fill="#410EAD"/>
</svg>
