<svg width="15" height="15" viewBox="0 0 15 15" fill="none" xmlns="http://www.w3.org/2000/svg">
<path d="M14.9998 6.54365C14.9421 6.60508 14.8914 6.6736 14.829 6.72322C14.4598 7.01856 14.0859 7.30681 13.7167 7.59979C13.629 7.67067 13.5389 7.72974 13.4236 7.6754C13.3059 7.61869 13.3012 7.50765 13.3035 7.39423C13.3035 7.295 13.3035 7.19576 13.3035 7.07763C13.2366 7.07763 13.1789 7.07763 13.1235 7.07763C11.4596 7.07763 9.79558 7.07763 8.1316 7.07763C7.84312 7.07763 7.79004 7.02328 7.79004 6.72794C7.79004 6.26248 7.79004 5.79938 7.79004 5.33392C7.79004 5.21106 7.82927 5.11655 7.96313 5.09765C8.09468 5.08111 8.18007 5.1709 8.18007 5.33156C8.18238 5.71669 8.18007 6.10181 8.18007 6.48694C8.18007 6.54128 8.18007 6.59563 8.18007 6.66887C8.25161 6.66887 8.307 6.66887 8.3647 6.66887C9.99867 6.66887 11.635 6.66887 13.2689 6.66887C13.6613 6.66887 13.6682 6.67596 13.7143 7.08944C13.9728 6.88624 14.2221 6.6925 14.4875 6.48458C14.229 6.28138 13.9797 6.08528 13.712 5.87499C13.7051 5.96478 13.7028 6.0333 13.6959 6.09945C13.682 6.22704 13.6059 6.2932 13.4812 6.30265C13.442 6.30501 13.4028 6.30265 13.3635 6.30265C11.9488 6.30265 10.5318 6.30265 9.11706 6.30265C9.08245 6.30265 9.04783 6.30265 9.01552 6.30265C8.89089 6.30265 8.81012 6.23885 8.79627 6.1089C8.78473 5.99313 8.87474 5.91043 9.01552 5.90098C9.06398 5.89862 9.11245 5.90098 9.16092 5.90098C10.4787 5.90098 11.7965 5.90098 13.1143 5.90098H13.3035C13.3035 5.76158 13.2897 5.63635 13.3082 5.51585C13.3197 5.43788 13.3659 5.33156 13.4259 5.30085C13.4859 5.27013 13.6036 5.29139 13.6636 5.33629C14.0767 5.64817 14.4806 5.9695 14.8844 6.29083C14.9283 6.32628 14.9606 6.37826 14.9998 6.42315V6.54365Z" fill="#410EAD"/>
<path d="M10.8297 5.49455C10.3312 5.49455 9.83266 5.49455 9.33647 5.49455C9.06645 5.49455 9.03183 5.46148 9.00645 5.17795C8.94413 4.45731 8.43871 3.89262 7.73943 3.76503C6.92013 3.61618 6.08699 4.2612 6.00391 5.10943C5.97929 5.36618 5.84082 5.49455 5.58849 5.49455C4.60765 5.49455 3.6268 5.49455 2.64365 5.49455C2.38747 5.49455 2.31131 5.41186 2.32978 5.14959C2.34362 4.96058 2.36439 4.77156 2.37363 4.58254C2.38055 4.43368 2.45209 4.34626 2.58826 4.29901C2.83289 4.21395 3.07753 4.12889 3.31754 4.02965C3.37524 4.00603 3.42832 3.94223 3.45832 3.88553C3.5091 3.78866 3.51833 3.66816 3.57833 3.5831C3.73527 3.35391 3.69834 3.14835 3.5691 2.92625C3.47448 2.76323 3.40755 2.58602 3.32678 2.41354C3.276 2.30722 3.28985 2.21507 3.35909 2.12056C3.65911 1.71653 4.0076 1.36212 4.40224 1.0526C4.50148 0.976994 4.59611 0.976993 4.70227 1.02897C4.93998 1.14711 5.17538 1.26525 5.4154 1.37393C5.46848 1.39756 5.54695 1.39992 5.60234 1.37866C5.78466 1.31014 5.96467 1.23217 6.14007 1.14711C6.19084 1.12348 6.24162 1.0715 6.26239 1.01952C6.35701 0.769072 6.44471 0.513896 6.52779 0.25872C6.56934 0.128769 6.6478 0.0626126 6.77935 0.0460734C7.2617 -0.0153578 7.74173 -0.0153578 8.22408 0.0460734C8.3487 0.0626126 8.42486 0.12877 8.46641 0.251632C8.54718 0.497357 8.6395 0.738357 8.71796 0.986445C8.74797 1.08095 8.79412 1.1353 8.88644 1.16838C9.0526 1.22744 9.20954 1.31014 9.3734 1.36685C9.43802 1.39047 9.52572 1.3952 9.58803 1.36685C9.82574 1.26289 10.0565 1.14475 10.2896 1.02897C10.4073 0.969905 10.5089 0.976994 10.615 1.06205C10.9958 1.36448 11.3328 1.70944 11.6282 2.09693C11.709 2.20326 11.7228 2.30485 11.6628 2.42772C11.5474 2.66399 11.4436 2.90735 11.3282 3.14363C11.2889 3.2216 11.2866 3.28303 11.3235 3.36572C11.402 3.53112 11.4574 3.70832 11.5382 3.87371C11.5682 3.93751 11.6259 4.00366 11.6882 4.02965C11.9282 4.12889 12.1728 4.21159 12.4175 4.29901C12.549 4.3439 12.6183 4.42896 12.6252 4.57309C12.6367 4.77156 12.6575 4.97239 12.6713 5.17086C12.6875 5.40477 12.6067 5.49219 12.3782 5.49455C11.8613 5.49455 11.3443 5.49455 10.825 5.49455H10.8297ZM12.279 5.0858C12.2698 4.9842 12.2536 4.89442 12.2559 4.807C12.2582 4.70067 12.219 4.65106 12.1175 4.61798C11.889 4.54473 11.6674 4.45495 11.4413 4.37698C11.3212 4.33445 11.2474 4.25884 11.2035 4.13598C11.1158 3.89734 11.0212 3.66343 10.9197 3.43188C10.8666 3.31138 10.8666 3.20742 10.9243 3.08928C11.0351 2.86719 11.132 2.638 11.2405 2.4159C11.2774 2.33793 11.282 2.28123 11.2197 2.21743C10.9843 1.9788 10.7512 1.74016 10.5181 1.4968C10.4535 1.43064 10.3981 1.42355 10.315 1.46844C10.0981 1.58186 9.87421 1.68109 9.65727 1.79214C9.54187 1.85121 9.43802 1.84884 9.32263 1.7945C9.09645 1.69054 8.86567 1.59367 8.63488 1.50152C8.51487 1.45427 8.44333 1.38102 8.40179 1.2558C8.32332 1.0148 8.23331 0.778523 8.15484 0.535161C8.12946 0.45719 8.09022 0.421749 8.00945 0.421749C7.6725 0.421749 7.33786 0.424112 7.00091 0.421749C6.91782 0.421749 6.8809 0.45719 6.85551 0.535161C6.77704 0.77616 6.68473 1.01243 6.60857 1.2558C6.56934 1.38102 6.49318 1.45427 6.37547 1.50152C6.14469 1.59367 5.9139 1.69054 5.68773 1.7945C5.57233 1.84648 5.46617 1.84885 5.35309 1.78978C5.13615 1.67873 4.91228 1.57713 4.69304 1.46608C4.61918 1.42828 4.5638 1.42119 4.50148 1.48498C4.26608 1.73071 4.02837 1.97407 3.78835 2.21507C3.72373 2.27886 3.73065 2.33557 3.76758 2.41354C3.87605 2.63564 3.97529 2.86482 4.08376 3.08692C4.14146 3.20506 4.14146 3.30902 4.08837 3.42952C3.98683 3.66107 3.8899 3.89498 3.8022 4.13362C3.75604 4.25648 3.6845 4.33209 3.56218 4.37462C3.32678 4.45495 3.09368 4.54237 2.86059 4.62979C2.82366 4.64397 2.76827 4.67232 2.76366 4.70304C2.74289 4.82826 2.74058 4.95585 2.72904 5.0858H4.82228C4.98614 3.53348 6.25085 2.58129 7.49479 2.57893C8.73643 2.57657 10.015 3.5193 10.1812 5.0858H12.2767H12.279ZM5.25385 5.09289C5.30924 5.09289 5.36924 5.0858 5.42463 5.09289C5.5631 5.11415 5.60926 5.06217 5.63696 4.91332C5.82389 3.85717 6.87397 3.15072 7.89175 3.38226C8.68104 3.56183 9.228 4.15016 9.38263 4.98184C9.38955 5.02201 9.42879 5.08108 9.45648 5.08344C9.55572 5.09761 9.65496 5.08816 9.7542 5.08816C9.77497 3.99894 8.60488 2.93571 7.46017 2.97824C6.2947 3.02313 5.16615 4.09109 5.25385 5.08816V5.09289Z" fill="#410EAD"/>
<path d="M1.69975 5.90104C1.7736 5.90104 1.8313 5.90104 1.889 5.90104C3.21602 5.90104 4.54305 5.90104 5.87238 5.90104C5.93008 5.90104 6.00163 5.88686 6.04547 5.91521C6.1101 5.96011 6.18625 6.02862 6.20241 6.09951C6.22549 6.2011 6.14933 6.27671 6.04547 6.29798C5.9947 6.30979 5.93931 6.30506 5.88392 6.30506C4.47381 6.30506 3.0637 6.30506 1.65129 6.30506C1.35588 6.30506 1.31203 6.26254 1.30049 5.96483C1.30049 5.94593 1.29588 5.92466 1.29126 5.87977C1.03047 6.08533 0.78122 6.27907 0.515815 6.487C0.776605 6.69255 1.02585 6.8863 1.2728 7.08241C1.28664 7.06351 1.29588 7.05642 1.29588 7.04933C1.32126 6.69492 1.34665 6.67129 1.70437 6.67129C3.34527 6.67129 4.98385 6.67129 6.62475 6.67129C6.68245 6.67129 6.74014 6.67129 6.82323 6.67129C6.82323 6.59804 6.82323 6.53661 6.82323 6.47282C6.82323 6.09714 6.82323 5.72383 6.82323 5.34815C6.82323 5.18513 6.89015 5.10243 7.01247 5.0977C7.14171 5.09534 7.21095 5.1804 7.21095 5.35288C7.21095 5.82307 7.21095 6.29325 7.21095 6.76107C7.21095 7.01389 7.14633 7.07768 6.89708 7.07768C5.22849 7.07768 3.55759 7.07768 1.889 7.07768C1.8313 7.07768 1.7736 7.07768 1.69745 7.07768C1.69745 7.20527 1.71129 7.32577 1.69283 7.44154C1.68129 7.52188 1.64206 7.63529 1.58436 7.66128C1.51743 7.69199 1.39511 7.67546 1.3328 7.6282C0.924308 7.32104 0.522739 7.00207 0.123477 6.6831C-0.0426896 6.55079 -0.0403817 6.41139 0.125785 6.27671C0.522739 5.9601 0.919693 5.64586 1.32357 5.34107C1.38588 5.29381 1.51051 5.26546 1.57282 5.29854C1.63513 5.32925 1.67667 5.44503 1.69052 5.52772C1.70898 5.63877 1.69514 5.75691 1.69514 5.89631L1.69975 5.90104Z" fill="#410EAD"/>
<path d="M6.30177 12.5854C6.22792 12.5854 6.17253 12.5854 6.11484 12.5854C5.41786 12.5854 4.71857 12.5854 4.0216 12.5854C3.47694 12.5854 3.09845 12.2971 2.98536 11.8009C2.96228 11.6946 2.95998 11.5836 2.95998 11.4725C2.95767 10.8629 2.95998 10.2533 2.95998 9.63193C2.79381 9.59177 2.63457 9.55396 2.47532 9.51143C1.99298 9.37912 1.79681 8.90657 2.04837 8.4671C2.25377 8.11033 2.47071 7.76064 2.68765 7.41096C2.78458 7.25265 2.98075 7.23611 3.03614 7.38497C3.06383 7.45821 3.04306 7.57399 3.00152 7.64487C2.81458 7.97329 2.61379 8.29226 2.41993 8.61359C2.25607 8.88294 2.323 9.05306 2.62303 9.12867C2.85843 9.18774 3.09614 9.24444 3.35001 9.30824V9.47127C3.35001 10.1352 3.35001 10.8015 3.35001 11.4654C3.35001 11.9521 3.57387 12.179 4.0516 12.179C5.29554 12.179 6.54179 12.179 7.78573 12.1813C7.88728 12.1813 7.95421 12.153 8.02114 12.0703C8.36501 11.6474 8.71581 11.2315 9.06429 10.8133C9.07583 10.7991 9.08968 10.7826 9.10353 10.7684C9.20046 10.6645 9.31354 10.6455 9.39894 10.7212C9.48664 10.7968 9.49125 10.9173 9.40355 11.0283C9.2697 11.1937 9.13353 11.3567 8.99506 11.5198C8.72504 11.8435 8.45963 12.1695 8.185 12.4861C8.14115 12.5381 8.05576 12.5783 7.99114 12.5783C7.61957 12.5877 7.25031 12.583 6.87874 12.583C6.82566 12.583 6.77489 12.583 6.70334 12.583C6.70334 12.6586 6.70334 12.7177 6.70334 12.7767C6.70334 13.4005 6.70334 14.0266 6.70334 14.6504C6.70334 14.7 6.70334 14.7496 6.69873 14.7992C6.68488 14.9197 6.61795 14.9977 6.49794 14.993C6.37563 14.9883 6.32024 14.9032 6.3087 14.7851C6.30408 14.7449 6.3087 14.7047 6.3087 14.6646C6.3087 14.029 6.3087 13.3958 6.3087 12.7602V12.583L6.30177 12.5854Z" fill="#410EAD"/>
<path d="M10.7515 12.557C10.7515 11.8671 10.7469 11.1771 10.7538 10.4896C10.7538 10.3431 10.7861 10.1942 10.8254 10.0501C11.0261 9.30586 11.2339 8.5616 11.4369 7.81733C11.4693 7.70156 11.4877 7.58342 11.5131 7.46765C11.5408 7.34242 11.6147 7.27154 11.7439 7.2928C11.8754 7.31643 11.9193 7.41567 11.8962 7.53853C11.8593 7.73936 11.8177 7.94019 11.7647 8.1363C11.5754 8.83804 11.3769 9.53741 11.1877 10.2391C11.16 10.3384 11.1462 10.4447 11.1462 10.5487C11.1438 11.9214 11.1462 13.2965 11.1462 14.6693C11.1462 14.9032 11.0838 15.0048 10.9431 15.0001C10.8115 14.9953 10.7538 14.8961 10.7538 14.6716C10.7538 13.9675 10.7538 13.2634 10.7538 12.5594L10.7515 12.557Z" fill="#410EAD"/>
</svg>
