<svg width="15" height="15" viewBox="0 0 15 15" fill="none" xmlns="http://www.w3.org/2000/svg">
<path d="M4.37234 11.1789C4.33556 11.0829 4.30197 10.993 4.26679 10.897H2.47889C2.35895 11.3276 2.09349 11.6436 1.64571 11.7938C1.31468 11.9053 0.988441 11.8774 0.676598 11.7225C0.049714 11.4097 -0.18057 10.66 0.153662 10.0621C0.433521 9.5634 1.24751 9.13281 2.07429 9.73068C2.36055 9.51848 2.64841 9.30629 2.96025 9.0755C2.6596 8.85246 2.36855 8.63717 2.0695 8.41413C1.74166 8.6635 1.37545 8.77347 0.961255 8.67744C0.6734 8.61084 0.436719 8.46214 0.25601 8.23291C-0.113404 7.76205 -0.0798208 7.10687 0.33597 6.67783C0.79174 6.20697 1.41063 6.16979 2.0727 6.58489C2.35895 6.3727 2.6516 6.1574 2.96185 5.92817C2.6564 5.70203 2.36535 5.48673 2.07749 5.27299C1.25071 5.74075 0.483096 5.58586 0.129674 4.88732C-0.186967 4.26002 0.110483 3.49951 0.775748 3.2362C1.43622 2.97289 2.263 3.29351 2.48049 4.10668H4.26679C4.30037 4.01839 4.33556 3.92701 4.37554 3.82633C3.60952 3.25944 2.84511 2.69409 2.0711 2.12101C1.74806 2.36573 1.38824 2.47725 0.978846 2.38741C0.69419 2.32546 0.460707 2.18296 0.278399 1.96302C-0.0958127 1.51075 -0.0878168 0.871056 0.297589 0.429623C0.676598 -0.0102601 1.33227 -0.127975 1.85201 0.149275C2.42452 0.455954 2.61642 1.02904 2.37814 1.73998C3.13936 2.30377 3.90377 2.86912 4.67778 3.44221C5.0408 3.16805 5.4438 3.06273 5.88997 3.20832C6.33455 3.35392 6.60162 3.6637 6.72475 4.10513H7.99771C7.99771 3.88054 7.99771 3.65905 7.99771 3.43911C7.99931 2.98838 8.31755 2.66002 8.74933 2.66157C9.18112 2.66157 9.49456 2.99148 9.49616 3.44375C9.49616 3.49797 9.49616 3.55373 9.49616 3.61723C9.71685 3.63891 9.89596 3.64046 10.0751 3.46234C10.9434 2.59961 11.831 1.75547 12.7073 0.898936C12.8337 0.775025 12.9632 0.69913 13.1455 0.723912C13.1807 0.728558 13.2191 0.720814 13.2543 0.723912C13.427 0.740949 13.5501 0.713069 13.6541 0.539594C13.8204 0.265442 14.1866 0.175606 14.4952 0.28093C14.8023 0.386255 15.0054 0.677445 14.9942 0.994967C14.983 1.30319 14.7591 1.57735 14.4521 1.66099C14.1354 1.74772 13.8028 1.62536 13.6205 1.35895C13.5821 1.30165 13.5229 1.21336 13.475 1.21491C13.3134 1.21801 13.1455 1.1545 12.9952 1.30319C12.1028 2.17986 11.1993 3.04414 10.307 3.91926C10.163 4.06021 10.0175 4.13766 9.8128 4.11287C9.71525 4.10203 9.6161 4.11132 9.50895 4.11132V4.8362C9.87517 4.8362 10.2382 4.8393 10.6012 4.83156C10.6476 4.83156 10.6988 4.78199 10.7371 4.74482C11.324 4.17948 11.9109 3.61413 12.4931 3.04414C12.5954 2.94346 12.7025 2.88616 12.8513 2.89855C12.9392 2.90629 13.0288 2.8939 13.1167 2.90164C13.3582 2.91868 13.5517 2.90629 13.7116 2.66157C13.8828 2.39671 14.2586 2.35179 14.556 2.48035C14.8471 2.60581 15.0278 2.90939 14.9958 3.21607C14.9622 3.5243 14.7303 3.77522 14.4105 3.84956C14.105 3.91926 13.7788 3.7938 13.6221 3.5212C13.5549 3.40348 13.4734 3.39574 13.3534 3.38025C12.9888 3.33069 12.7361 3.46544 12.4899 3.72565C12.0101 4.23059 11.4936 4.6999 10.9962 5.1878C10.8971 5.28538 10.7915 5.3272 10.6508 5.32565C10.2718 5.31946 9.89276 5.3241 9.50735 5.3241V6.04124C9.55213 6.04433 9.59531 6.04898 9.64009 6.04898C10.2654 6.04898 10.8891 6.05208 11.5143 6.04588C11.5911 6.04588 11.6839 6.00406 11.7398 5.9514C11.9973 5.71597 12.2468 5.4728 12.4915 5.22497C12.5922 5.12275 12.7009 5.07163 12.8497 5.07938C13.0256 5.08867 13.2047 5.07473 13.3806 5.08402C13.4909 5.09022 13.5517 5.06079 13.6093 4.96011C13.7868 4.64724 14.1706 4.52178 14.5112 4.64569C14.8519 4.7696 15.0566 5.1212 14.9846 5.45731C14.9078 5.81355 14.5912 6.06447 14.225 6.04743C13.9435 6.03504 13.7276 5.90493 13.5965 5.66331C13.5517 5.57967 13.4973 5.57347 13.4158 5.56108C13.016 5.49913 12.7073 5.62304 12.4595 5.93746C12.3219 6.11248 12.1476 6.26428 11.9733 6.40677C11.8934 6.47183 11.775 6.52449 11.6727 6.52604C11.0122 6.53688 10.3501 6.53068 9.68966 6.53068H9.50895V7.25092C9.55693 7.25246 9.60171 7.25711 9.64648 7.25711C10.8955 7.25711 12.146 7.25711 13.395 7.25866C13.4909 7.25866 13.5485 7.24162 13.5997 7.14714C13.7628 6.84975 14.105 6.71345 14.4345 6.79864C14.7655 6.88383 14.9942 7.16882 14.9942 7.49719C14.9942 7.82555 14.7655 8.1121 14.4361 8.19883C14.1066 8.28402 13.7676 8.14772 13.5965 7.85343C13.5565 7.78373 13.5245 7.73727 13.4254 7.73881C12.1492 7.74346 10.8747 7.74191 9.59851 7.74191C9.56812 7.74191 9.53774 7.74501 9.50096 7.74656V8.46679H9.66567C10.3165 8.46679 10.9674 8.47144 11.6183 8.46369C11.7846 8.46214 11.9029 8.51171 12.0165 8.62633C12.2564 8.87105 12.5042 9.10958 12.7585 9.34191C12.8145 9.39302 12.9072 9.41471 12.9872 9.43175C13.0576 9.44569 13.1327 9.43175 13.2047 9.43484C13.3998 9.44724 13.5485 9.4302 13.6733 9.22884C13.8412 8.95469 14.2138 8.88499 14.5208 9.00425C14.8247 9.12197 15.0166 9.41936 14.991 9.73533C14.9654 10.0482 14.7303 10.3084 14.4041 10.3828C14.0954 10.454 13.7644 10.3208 13.6061 10.042C13.5501 9.94288 13.4925 9.9088 13.379 9.915C13.1871 9.92584 12.992 9.92894 12.8017 9.91345C12.7073 9.9057 12.597 9.86543 12.5282 9.80348C12.2516 9.55256 11.9877 9.28615 11.7174 9.02749C11.6807 8.99186 11.6231 8.95314 11.5751 8.95314C10.8891 8.94849 10.2014 8.95004 9.50575 8.95004V9.67647C9.85598 9.67647 10.203 9.68886 10.55 9.67182C10.7675 9.66253 10.9194 9.73378 11.0698 9.88247C11.6215 10.4323 12.1876 10.9682 12.7441 11.5134C12.8193 11.5878 12.896 11.6265 13.0032 11.6141C13.0592 11.6079 13.1183 11.6095 13.1743 11.6141C13.3838 11.6281 13.5501 11.6188 13.6861 11.3973C13.8524 11.1262 14.2186 11.0643 14.5224 11.1835C14.8279 11.3028 15.0182 11.5986 14.9926 11.9146C14.967 12.2275 14.7319 12.4877 14.4073 12.562C14.0986 12.6333 13.7676 12.5001 13.6093 12.2213C13.5533 12.1237 13.4957 12.0881 13.3822 12.0943C13.1999 12.1051 13.0176 12.0912 12.8353 12.0989C12.6993 12.1051 12.5986 12.0587 12.5042 11.9657C11.9173 11.3926 11.3288 10.8226 10.7355 10.2558C10.6812 10.2031 10.5868 10.1675 10.5084 10.1644C10.1774 10.1551 9.84478 10.1597 9.50575 10.1597V10.8861C9.59051 10.8861 9.67847 10.8954 9.76322 10.8846C10.0079 10.8521 10.179 10.9512 10.3501 11.1185C11.2233 11.9781 12.106 12.8254 12.9872 13.6788C13.0832 13.7717 13.3998 13.8414 13.5197 13.7841C13.5597 13.7655 13.5805 13.7082 13.6061 13.6664C13.7948 13.3597 14.1706 13.2296 14.5112 13.3535C14.8519 13.4774 15.0566 13.829 14.9862 14.1651C14.911 14.5214 14.5944 14.7723 14.2266 14.7568C13.9451 14.7444 13.7276 14.6159 13.5981 14.3742C13.5533 14.2921 13.5037 14.2612 13.4174 14.2751C13.0336 14.3402 12.7713 14.176 12.5106 13.9127C11.7286 13.1243 10.913 12.3653 10.1246 11.5816C9.94553 11.4035 9.76802 11.3229 9.51055 11.3864C9.50256 11.4267 9.49296 11.4794 9.47857 11.532C9.38741 11.8914 9.05318 12.1268 8.68057 12.0927C8.30476 12.0587 8.01211 11.7535 8.00251 11.3833C7.99771 11.2238 8.00251 11.0627 8.00251 10.8939H6.73115C6.61441 11.3183 6.35374 11.6343 5.91396 11.7845C5.47098 11.9347 5.06319 11.8434 4.68578 11.5568C3.91817 12.1253 3.15055 12.6922 2.38614 13.2575C2.61482 14.0195 2.40853 14.588 1.80563 14.8761C1.2667 15.1332 0.61423 14.9799 0.254411 14.5121C-0.110206 14.0366 -0.0702256 13.3861 0.350363 12.9586C0.806133 12.4954 1.42822 12.4614 2.07749 12.8749C2.84031 12.3111 3.60792 11.7427 4.37874 11.1742L4.37234 11.1789ZM4.67299 5.27299C4.37873 5.49138 4.09088 5.70513 3.78703 5.92972C4.09408 6.1574 4.38513 6.3727 4.67299 6.58644C5.46459 5.98393 6.49927 6.37115 6.73115 7.25092H7.98652V4.60232H6.73275C6.50247 5.48054 5.47098 5.8786 4.67299 5.27144V5.27299ZM4.67299 8.41723C4.37714 8.63717 4.08768 8.85246 3.78703 9.07705C4.09568 9.30629 4.38513 9.52003 4.67778 9.73688C5.0456 9.45653 5.4502 9.3574 5.89637 9.50454C6.34415 9.65169 6.60801 9.97076 6.72635 10.3983H7.98652V7.74966H6.73435C6.47848 8.67279 5.42781 9.00116 4.67299 8.41723ZM8.99561 7.38722C8.99561 7.29583 8.99561 7.206 8.99561 7.11461C8.99561 5.89409 8.99561 4.67357 8.99561 3.4546C8.99561 3.26099 8.90606 3.15102 8.75253 3.14792C8.59101 3.14482 8.49826 3.25789 8.49666 3.45924C8.49666 3.47473 8.49666 3.49022 8.49666 3.50416C8.49666 6.0908 8.49666 8.67744 8.49666 11.2641C8.49666 11.309 8.49186 11.3555 8.49986 11.4004C8.52225 11.532 8.60381 11.6079 8.74134 11.6157C8.86927 11.6234 8.97802 11.5274 8.99401 11.3957C9.00041 11.3462 8.99721 11.2951 8.99721 11.2439C8.99721 9.95837 8.99721 8.67279 8.99721 7.38722H8.99561ZM1.99753 1.20562C1.99593 0.810649 1.6601 0.485383 1.25231 0.483834C0.836518 0.482286 0.497489 0.810649 0.499088 1.21336C0.500687 1.60833 0.836518 1.93359 1.24431 1.93514C1.6585 1.93669 1.99913 1.60678 1.99753 1.20562ZM1.99753 4.3483C1.99434 3.95334 1.6569 3.62962 1.24911 3.62962C0.834919 3.62962 0.495889 3.95953 0.499088 4.36224C0.502286 4.75721 0.839716 5.08093 1.24751 5.08093C1.6617 5.08093 2.00073 4.74946 1.99753 4.3483ZM5.49177 3.62962C5.08398 3.63117 4.74815 3.95644 4.74815 4.35295C4.74815 4.75411 5.08718 5.08402 5.50297 5.08093C5.91076 5.07938 6.24659 4.75256 6.24819 4.3576C6.24819 3.95644 5.90916 3.62652 5.49337 3.62962H5.49177ZM1.99753 7.50184C1.99753 7.10687 1.6617 6.78005 1.25551 6.77696C0.839716 6.77386 0.499088 7.10222 0.499088 7.50338C0.499088 7.89835 0.83332 8.22516 1.24111 8.22826C1.65531 8.23136 1.99753 7.903 1.99753 7.50184ZM6.24659 7.50648C6.24659 7.11152 5.91556 6.78315 5.50937 6.77696C5.09358 6.77231 4.74975 7.09758 4.74815 7.49874C4.74655 7.8999 5.08718 8.22981 5.50137 8.22826C5.90916 8.22671 6.245 7.8999 6.24659 7.50648ZM1.99753 10.6476C1.99753 10.2527 1.6617 9.92584 1.25391 9.92274C0.838117 9.91965 0.497489 10.248 0.499088 10.6492C0.499088 11.0441 0.834919 11.371 1.24111 11.374C1.65531 11.3771 1.99753 11.0472 1.99753 10.6476ZM5.48858 11.374C5.89637 11.3787 6.2386 11.0581 6.24659 10.6647C6.25459 10.2619 5.92036 9.92739 5.50617 9.92274C5.09677 9.9181 4.75615 10.2372 4.74815 10.6321C4.74015 11.0348 5.07438 11.3694 5.48858 11.374ZM1.25391 14.5214C1.6617 14.5183 1.99753 14.193 1.99753 13.7981C1.99753 13.3969 1.6585 13.0685 1.24271 13.0701C0.834919 13.0732 0.500687 13.3984 0.499088 13.7934C0.499088 14.1946 0.838117 14.5245 1.25391 14.5214ZM2.37334 4.88577C2.68839 5.11965 2.99223 5.34733 3.30088 5.56883C3.33126 5.59051 3.40323 5.59825 3.43041 5.57812C3.74705 5.35043 4.0589 5.1181 4.37234 4.88422C4.33396 4.78354 4.29718 4.69216 4.26359 4.60387H2.47889C2.44371 4.6968 2.41013 4.78664 2.37334 4.88577ZM4.37234 6.97367C4.06049 6.74288 3.75185 6.5121 3.44001 6.28751C3.41122 6.26737 3.34565 6.25963 3.32167 6.27667C3.00183 6.50745 2.68679 6.74288 2.37334 6.97521C2.41172 7.07744 2.44531 7.16573 2.47889 7.25401H4.26679C4.30197 7.15798 4.33556 7.06815 4.37074 6.97367H4.37234ZM4.26679 7.75275H2.47889C2.44371 7.85033 2.41013 7.93862 2.37494 8.0331C2.68839 8.26544 2.99543 8.49467 3.30727 8.71926C3.33446 8.73939 3.40163 8.74714 3.42561 8.7301C3.74545 8.49932 4.0589 8.26389 4.37394 8.03155C4.33396 7.92933 4.30037 7.84104 4.26679 7.7543V7.75275ZM4.37394 10.1225C4.0573 9.88712 3.75345 9.66098 3.4448 9.43794C3.41442 9.41626 3.34246 9.40851 3.31527 9.42865C2.99863 9.65479 2.68679 9.88867 2.37174 10.121C2.41013 10.2217 2.44531 10.3131 2.48049 10.4029H4.26679C4.28278 10.3564 4.29558 10.3131 4.31157 10.2712C4.32916 10.2248 4.34995 10.1783 4.37234 10.1225H4.37394ZM14.233 1.20871C14.3673 1.21491 14.4872 1.10958 14.4936 0.979478C14.5 0.849371 14.3913 0.733205 14.257 0.727009C14.1226 0.720814 14.0027 0.824589 13.9963 0.956245C13.9899 1.08635 14.0986 1.20252 14.233 1.20871ZM14.2458 3.38645C14.3817 3.38645 14.4936 3.27493 14.4936 3.14482C14.4936 3.01316 14.3785 2.90474 14.2442 2.90474C14.1082 2.90474 13.9963 3.01626 13.9963 3.14637C13.9963 3.27802 14.1114 3.38645 14.2458 3.38645ZM14.2458 5.56418C14.3817 5.56418 14.4936 5.45111 14.492 5.321C14.492 5.18935 14.3769 5.08093 14.241 5.08248C14.105 5.08248 13.9931 5.194 13.9947 5.32565C13.9947 5.45731 14.1098 5.56573 14.2458 5.56418ZM14.2442 7.26021C14.1082 7.26021 13.9947 7.36863 13.9947 7.50029C13.9947 7.63194 14.1066 7.74191 14.2426 7.74191C14.3769 7.74191 14.492 7.63194 14.492 7.50184C14.492 7.37018 14.3801 7.26021 14.2442 7.26021ZM14.492 9.67957C14.492 9.54791 14.3801 9.43794 14.2442 9.43794C14.1082 9.43794 13.9947 9.54636 13.9947 9.67802C13.9947 9.80967 14.1066 9.91964 14.2426 9.91964C14.3769 9.91964 14.492 9.80968 14.492 9.67957ZM14.2458 11.6172C14.1098 11.6172 13.9963 11.7256 13.9963 11.8558C13.9963 11.9874 14.1082 12.0974 14.2426 12.0989C14.3769 12.0989 14.492 11.9905 14.4936 11.8589C14.4936 11.7272 14.3817 11.6172 14.2474 11.6172H14.2458ZM14.2426 14.2767C14.3769 14.2767 14.492 14.1682 14.4936 14.0381C14.4936 13.9065 14.3817 13.7965 14.2474 13.795C14.1114 13.795 13.9979 13.9034 13.9979 14.0335C13.9979 14.1651 14.1098 14.2751 14.2442 14.2767H14.2426Z" fill="#410EAD"/>
<path d="M7.00586 5.33008H7.48722V5.79939H7.00586V5.33008Z" fill="#410EAD"/>
<path d="M7.49104 6.30469V6.7678H7.00488V6.30469H7.49104Z" fill="#410EAD"/>
<path d="M7.00977 8.23438H7.48952V8.69904H7.00977V8.23438Z" fill="#410EAD"/>
<path d="M7.48793 9.67789H7.00977V9.20703H7.48793V9.67789Z" fill="#410EAD"/>
</svg>
