<svg width="15" height="16" viewBox="0 0 15 16" fill="none" xmlns="http://www.w3.org/2000/svg">
<path d="M7.79328 0C7.92079 0.0285029 8.04981 0.0510051 8.17582 0.0855086C8.31233 0.123012 8.44735 0.165017 8.57786 0.216022C8.77138 0.291029 8.83738 0.406541 8.77738 0.543054C8.72037 0.670567 8.59736 0.69757 8.41434 0.622562C7.12121 0.090009 5.65557 0.772577 5.24452 2.09871C4.83348 3.42484 5.63156 4.79748 6.9967 5.11251C8.30783 5.41404 9.63546 4.50645 9.83648 3.15932C9.93849 2.47825 9.76898 1.86319 9.33993 1.32163C9.29793 1.26763 9.24693 1.22112 9.20792 1.16412C9.13892 1.06361 9.14042 0.957096 9.23192 0.873087C9.32343 0.789079 9.42844 0.792079 9.52295 0.870087C9.56796 0.906091 9.60546 0.954095 9.64296 0.9991C10.4605 1.9772 10.5251 3.34383 9.80348 4.39544C9.78398 4.42394 9.76748 4.45245 9.75698 4.46745C10.0165 4.72547 10.2715 4.9775 10.5371 5.24152C10.5716 5.21902 10.6301 5.17702 10.6916 5.13801C12.3837 4.0369 14.709 5.10951 14.973 7.11371C14.9775 7.14671 14.991 7.17672 15 7.20972V7.79628C14.991 7.82778 14.976 7.85929 14.973 7.89229C14.763 9.49145 13.1773 10.5971 11.6037 10.243C11.1476 10.141 10.7426 9.93699 10.393 9.65047C10.1425 9.90099 9.89799 10.144 9.64746 10.3945C9.66847 10.423 9.69697 10.462 9.72697 10.4995C10.8116 11.9307 10.315 13.9784 8.68437 14.7315C8.39634 14.865 8.07231 14.916 7.76478 15.0045H7.23672C7.20372 14.9955 7.17222 14.982 7.13921 14.979C5.47405 14.778 4.33993 13.0978 4.79748 11.4836C4.89499 11.1416 5.07201 10.8236 5.21602 10.486C4.991 10.2625 4.73897 10.012 4.47945 9.75398C4.45245 9.77048 4.41494 9.79298 4.38044 9.81848C2.81428 10.8911 0.643564 10.1155 0.115512 8.29283C0.0690069 8.12631 0.0375038 7.9583 0 7.79328C0 7.59826 0 7.40324 0 7.20672C0.0090009 7.18422 0.0210021 7.16322 0.0255026 7.14071C0.340534 4.961 2.80378 3.9619 4.54545 5.30453C4.57096 5.32403 4.59796 5.34353 4.60546 5.34954C4.86049 5.09451 5.10351 4.84999 5.35104 4.60246C5.33603 4.58296 5.31203 4.55146 5.28803 4.52145C4.06691 2.93729 4.82898 0.640564 6.75368 0.10201C6.90369 0.060006 7.05671 0.0330033 7.20822 0C7.40324 0 7.59826 0 7.79478 0H7.79328ZM10.0405 9.31893C9.13141 8.0258 9.17192 6.77318 10.153 5.55806C9.91299 5.31953 9.67597 5.08101 9.44195 4.84848C8.21932 5.82958 6.9652 5.87009 5.68707 4.964C5.44704 5.20402 5.20402 5.44705 4.952 5.69907C5.39004 6.23912 5.62106 6.86469 5.60156 7.57876C5.58206 8.29733 5.31053 8.91389 4.84248 9.42694C5.09001 9.67447 5.33003 9.91299 5.56556 10.147C5.73807 10.0255 5.91809 9.89199 6.10561 9.77048C6.21962 9.69697 6.34714 9.73447 6.41164 9.83799C6.47615 9.9445 6.44615 10.0615 6.33213 10.1425C6.31263 10.156 6.29013 10.168 6.27063 10.1815C5.30603 10.7801 4.89799 11.9397 5.27753 12.9988C5.65407 14.0504 6.70417 14.685 7.82328 14.538C8.9454 14.3909 9.77948 13.4803 9.86499 12.3102C9.94149 11.2616 9.20942 10.237 8.17132 9.93249C7.84729 9.83798 7.51875 9.82748 7.18572 9.85149C7.05221 9.86049 6.9607 9.78248 6.9472 9.66697C6.93219 9.54996 7.0027 9.45545 7.13021 9.42394C7.15872 9.41644 7.18722 9.41344 7.21722 9.41044C7.9583 9.34743 8.62886 9.53345 9.22292 9.985C9.25743 10.0105 9.29193 10.0345 9.31443 10.051C9.56496 9.80198 9.80498 9.56046 10.0435 9.32193L10.0405 9.31893ZM14.562 7.49475C14.5605 6.19262 13.4909 5.12901 12.1902 5.13351C10.8926 5.13951 9.83949 6.19562 9.83799 7.49625C9.83648 8.80138 10.8956 9.86349 12.1992 9.86499C13.4984 9.86499 14.5635 8.79688 14.562 7.49475ZM5.16352 7.49775C5.16352 6.19262 4.09841 5.12901 2.79778 5.13351C1.50015 5.13801 0.441044 6.19712 0.439544 7.49325C0.436544 8.79688 1.50015 9.86499 2.80078 9.86499C4.10441 9.86499 5.16502 8.80288 5.16502 7.49775H5.16352Z" fill="#410EAD"/>
<path d="M7.50656 4.22751C7.20502 4.19751 6.923 4.14201 6.67697 3.97849C6.56296 3.90198 6.46245 3.79547 6.37844 3.68446C6.30343 3.58545 6.34094 3.45194 6.44145 3.39043C6.54796 3.32592 6.64547 3.34393 6.73098 3.43544C7.05801 3.78647 7.69407 3.86748 8.09461 3.60495C8.15762 3.56295 8.20863 3.50144 8.26113 3.44444C8.34964 3.34843 8.46365 3.32742 8.56116 3.39343C8.66167 3.46244 8.68567 3.58845 8.61367 3.70396C8.50415 3.88098 8.34364 4.00399 8.15162 4.0685C7.9416 4.13901 7.72108 4.17651 7.50505 4.22901L7.50656 4.22751Z" fill="#410EAD"/>
<path d="M6.5528 1.87646C6.80033 1.88697 7.01785 1.95447 7.17537 2.15399C7.27588 2.28301 7.26987 2.42252 7.16486 2.50503C7.06285 2.58454 6.94434 2.56053 6.83783 2.43602C6.69832 2.2755 6.42529 2.277 6.28428 2.44052C6.17927 2.56203 6.05625 2.58454 5.95424 2.50203C5.85523 2.42102 5.84773 2.28751 5.94224 2.16299C6.09526 1.95897 6.31428 1.89147 6.5528 1.87646Z" fill="#410EAD"/>
<path d="M8.44121 1.87646C8.69024 1.89147 8.90776 1.96047 9.06077 2.16449C9.15378 2.28901 9.14628 2.42402 9.04727 2.50353C8.94526 2.58454 8.82375 2.56053 8.71874 2.43902C8.57772 2.277 8.3047 2.2755 8.16518 2.43752C8.05867 2.56053 7.94016 2.58454 7.83665 2.50503C7.73464 2.42552 7.72564 2.29051 7.82015 2.16599C7.97616 1.95747 8.19969 1.88997 8.44121 1.87646Z" fill="#410EAD"/>
<path d="M7.45743 12.7437C7.80997 12.7527 8.101 12.8067 8.35152 12.9852C8.45653 13.0587 8.54954 13.1592 8.62305 13.2657C8.69206 13.3647 8.66656 13.4757 8.56455 13.5492C8.46254 13.6227 8.36203 13.6047 8.27502 13.5162C7.93298 13.1697 7.40943 13.0797 6.97589 13.3017C6.88888 13.3467 6.81237 13.4217 6.74336 13.4952C6.64285 13.5987 6.53484 13.6242 6.43283 13.5507C6.32932 13.4757 6.30982 13.3467 6.39383 13.2267C6.57535 12.9657 6.84537 12.8472 7.1424 12.7842C7.26092 12.7587 7.38393 12.7542 7.45593 12.7452L7.45743 12.7437Z" fill="#410EAD"/>
<path d="M6.5723 12.1859C6.32477 12.1739 6.10575 12.1079 5.94823 11.9069C5.84622 11.7778 5.85222 11.6368 5.95723 11.5558C6.05925 11.4763 6.18076 11.5018 6.28577 11.6248C6.42528 11.7868 6.70131 11.7853 6.83932 11.6218C6.94283 11.5003 7.06585 11.4763 7.16786 11.5588C7.26687 11.6398 7.27437 11.7733 7.18136 11.8994C7.02834 12.1049 6.80932 12.1694 6.5723 12.1859Z" fill="#410EAD"/>
<path d="M8.44294 12.1859C8.19841 12.1724 7.97339 12.1063 7.81888 11.8963C7.72587 11.7703 7.73487 11.6368 7.83688 11.5573C7.93889 11.4778 8.0604 11.5018 8.16541 11.6248C8.30342 11.7868 8.57945 11.7853 8.71897 11.6233C8.82248 11.5033 8.94699 11.4778 9.0475 11.5588C9.14801 11.6398 9.15551 11.7733 9.061 11.8993C8.90799 12.1033 8.68896 12.1709 8.44444 12.1874L8.44294 12.1859Z" fill="#410EAD"/>
<path d="M12.199 8.22106C12.4181 8.22106 12.6386 8.21806 12.8576 8.22106C13.0196 8.22406 13.1186 8.30507 13.1231 8.43258C13.1276 8.56609 13.0241 8.6576 12.8576 8.6591C12.4181 8.6606 11.98 8.6621 11.5405 8.6591C11.371 8.6591 11.2825 8.5826 11.2795 8.44758C11.275 8.30657 11.3665 8.22406 11.542 8.22256C11.761 8.21956 11.9815 8.22256 12.2005 8.22256L12.199 8.22106Z" fill="#410EAD"/>
<path d="M11.4779 7.14812C11.4779 7.19163 11.4824 7.23663 11.4779 7.27863C11.4614 7.40615 11.3699 7.48416 11.2514 7.47966C11.1299 7.47515 11.0503 7.39415 11.0443 7.26213C11.0398 7.19013 11.0413 7.11662 11.0443 7.04311C11.0503 6.9021 11.1299 6.81659 11.2544 6.81209C11.3774 6.80909 11.4674 6.8946 11.4809 7.02961C11.4854 7.06861 11.4809 7.10762 11.4809 7.14662C11.4809 7.14662 11.4809 7.14662 11.4794 7.14662L11.4779 7.14812Z" fill="#410EAD"/>
<path d="M13.356 7.15401C13.356 7.19752 13.3605 7.24252 13.356 7.28452C13.3395 7.40754 13.2435 7.49004 13.125 7.47954C13.0005 7.46904 12.93 7.39704 12.9209 7.27252C12.9149 7.19451 12.9164 7.11651 12.9209 7.04C12.927 6.90199 13.0125 6.81498 13.137 6.81348C13.2585 6.81348 13.3485 6.90049 13.359 7.037C13.362 7.076 13.359 7.11501 13.359 7.15401C13.359 7.15401 13.359 7.15401 13.3575 7.15401H13.356Z" fill="#410EAD"/>
<path d="M2.80387 8.05739C3.07689 8.04839 3.34392 8.09189 3.57494 8.23891C3.70996 8.32442 3.82847 8.44893 3.93048 8.57494C4.00099 8.66345 3.96948 8.77596 3.87497 8.84497C3.77596 8.91698 3.66645 8.91398 3.58545 8.81947C3.24191 8.42193 2.81137 8.43843 2.36732 8.56744C2.25031 8.60194 2.1468 8.70395 2.05379 8.79246C1.95178 8.88847 1.84227 8.92148 1.74326 8.85247C1.63525 8.77896 1.61275 8.65295 1.69826 8.53144C1.92478 8.2104 2.26081 8.09939 2.62985 8.05589C2.68686 8.04989 2.74686 8.05589 2.80537 8.05589L2.80387 8.05739Z" fill="#410EAD"/>
<path d="M4.19463 6.8422C4.17063 6.8722 4.13462 6.95171 4.07312 6.98921C3.9291 7.07772 3.77309 7.14823 3.61857 7.21874C3.48656 7.27874 3.36354 7.23524 3.30954 7.11823C3.25853 7.00571 3.29904 6.8947 3.42505 6.8272C3.57057 6.74919 3.71758 6.67418 3.8676 6.60667C4.03261 6.53167 4.19013 6.62468 4.19463 6.8422Z" fill="#410EAD"/>
<path d="M2.13451 7.2636C2.058 7.24109 2.019 7.23359 1.9845 7.21709C1.83598 7.14509 1.68747 7.07458 1.54195 6.99657C1.41744 6.93056 1.37844 6.81505 1.43094 6.70404C1.48495 6.59153 1.60346 6.54503 1.72647 6.60203C1.88999 6.67704 2.0505 6.75805 2.20652 6.84506C2.30253 6.89756 2.34603 6.99657 2.29953 7.09408C2.26502 7.16609 2.18252 7.21559 2.13301 7.2651L2.13451 7.2636Z" fill="#410EAD"/>
</svg>
