<svg width="15" height="15" viewBox="0 0 15 15" fill="none" xmlns="http://www.w3.org/2000/svg">
<path d="M8.10287 0C8.40319 0.0494397 8.70752 0.0830586 9.00585 0.148319C11.3264 0.658536 13.1864 2.61635 13.5248 4.93803C13.6049 5.48583 13.5848 6.04746 13.6189 6.60118C13.6249 6.70402 13.6489 6.81476 13.697 6.90573C14.0954 7.6671 14.4878 8.43441 14.9123 9.18391C15.1545 9.61107 14.8662 10.056 14.3997 10.0204C14.1835 10.0046 13.9652 10.0204 13.747 10.0165C13.6529 10.0165 13.6109 10.0481 13.6149 10.145C13.6189 10.2577 13.6189 10.3705 13.6149 10.4812C13.6089 10.6394 13.5188 10.7304 13.3806 10.7245C13.2505 10.7185 13.1744 10.6295 13.1724 10.4733C13.1704 10.3408 13.1684 10.2103 13.1724 10.0778C13.1804 9.79301 13.3946 9.58338 13.6849 9.57943C13.9212 9.57547 14.1595 9.57943 14.3957 9.57943C14.5739 9.57943 14.5939 9.54779 14.5118 9.39354C14.1074 8.63414 13.705 7.87277 13.2965 7.11536C13.2084 6.95122 13.1644 6.7851 13.1684 6.59723C13.1804 5.91298 13.1924 5.22676 12.9982 4.56229C12.3455 2.33157 10.8779 0.933421 8.55736 0.520105C6.90156 0.225445 5.40593 0.674357 4.11452 1.75016C4.0965 1.76598 4.07849 1.78378 4.06047 1.7996C4.05846 1.80158 4.05846 1.80751 4.05446 1.81938C4.06247 1.83125 4.07248 1.84707 4.08649 1.86091C4.28871 2.06262 4.48893 2.26236 4.71318 2.48385C4.78125 2.4087 4.83931 2.33751 4.90539 2.27225C5.11561 2.0646 5.31183 2.0646 5.52206 2.26829C5.69825 2.44034 5.87444 2.61239 6.04462 2.78642C6.09668 2.83981 6.13873 2.85366 6.21081 2.81806C6.32093 2.76269 6.43505 2.71325 6.55118 2.67765C6.63527 2.65194 6.65529 2.61041 6.65529 2.52933C6.65129 2.28609 6.65129 2.04087 6.65529 1.79763C6.65729 1.51681 6.80345 1.37838 7.08776 1.3764C7.45816 1.3764 7.82857 1.3764 8.19897 1.3764C8.46926 1.3764 8.60942 1.51681 8.61342 1.78181C8.61743 2.03098 8.61743 2.28016 8.61342 2.52933C8.61342 2.61041 8.63544 2.65392 8.71954 2.67567C8.80964 2.69941 8.90374 2.72907 8.97782 2.78049C9.11597 2.87343 9.20206 2.82597 9.30017 2.7172C9.44833 2.55504 9.61051 2.40277 9.77068 2.25049C9.95889 2.07053 10.1571 2.07053 10.3433 2.25049C10.6176 2.51747 10.8919 2.78642 11.1602 3.05933C11.3344 3.23533 11.3324 3.43902 11.1582 3.61503C10.954 3.8207 10.7457 4.02043 10.5435 4.22017C10.6116 4.38233 10.6657 4.53461 10.7377 4.67699C10.7558 4.71457 10.8238 4.75016 10.8679 4.75214C11.1101 4.76005 11.3524 4.75214 11.5947 4.7561C11.899 4.75807 12.0392 4.8965 12.0412 5.19512C12.0412 5.55109 12.0412 5.90705 12.0412 6.26499C12.0412 6.54779 11.901 6.69018 11.6167 6.69413C11.3804 6.69809 11.1422 6.70006 10.9059 6.69413C10.8038 6.69215 10.7397 6.71193 10.7137 6.82267C10.6917 6.91166 10.6576 7.00263 10.6076 7.07976C10.5315 7.19446 10.5675 7.26565 10.6596 7.35069C10.8318 7.50494 10.992 7.67106 11.1542 7.8352C11.3344 8.01714 11.3364 8.22083 11.1542 8.40277C10.8839 8.6737 10.6116 8.94462 10.3353 9.20962C10.1551 9.38365 9.95288 9.38167 9.77268 9.20962C9.59849 9.0435 9.4243 8.87739 9.26013 8.70138C9.17804 8.61239 9.10796 8.59855 9.00785 8.66381C8.94979 8.6994 8.88372 8.73104 8.81764 8.74291C8.64145 8.77257 8.5954 8.87145 8.60742 9.03955C8.62343 9.25313 8.61342 9.46869 8.60942 9.68424C8.60541 9.93935 8.46126 10.0798 8.20097 10.0817C7.82056 10.0837 7.44014 10.0837 7.05973 10.0817C6.80345 10.0817 6.65529 9.9354 6.65129 9.68029C6.64728 9.42716 6.64728 9.17205 6.65129 8.91891C6.65129 8.84377 6.62926 8.80619 6.55318 8.78246C6.43705 8.74489 6.32093 8.69743 6.21281 8.64205C6.13472 8.6025 6.09068 8.6203 6.03461 8.67765C5.86243 8.85366 5.68824 9.02571 5.51205 9.19578C5.31383 9.3876 5.11361 9.38958 4.9154 9.19973C4.83531 9.12063 4.75923 9.03757 4.69315 8.96836C4.42086 9.23731 4.16057 9.49439 3.88628 9.76532C4.10051 9.94133 4.10051 10.2083 4.0965 10.4812C4.0905 10.9163 4.0965 11.3494 4.0965 11.7844C4.0965 11.9703 4.01842 12.0712 3.87827 12.0732C3.73411 12.0751 3.65202 11.9703 3.65202 11.7765C3.65202 11.2881 3.65402 10.7996 3.64802 10.3111C3.64802 10.2261 3.60797 10.143 3.57994 10.0323C3.22556 10.3784 2.9012 10.6908 2.58286 11.0092C2.54682 11.0468 2.5328 11.114 2.52479 11.1694C2.51478 11.2465 2.5268 11.3256 2.52079 11.4028C2.50677 11.5807 2.52479 11.7172 2.717 11.8299C2.98329 11.9842 3.05337 12.3263 2.94125 12.6091C2.83113 12.886 2.55282 13.06 2.2505 13.0382C1.95618 13.0185 1.69189 12.795 1.62982 12.5122C1.56375 12.2116 1.69189 11.907 1.96619 11.7666C2.05829 11.7192 2.07831 11.6678 2.07831 11.5768C2.0683 10.8194 2.06229 10.8925 2.58286 10.3784C2.79909 10.1648 3.01533 9.95319 3.23757 9.73368C2.28253 8.64799 1.794 7.3942 1.74995 5.94858C1.62982 5.94858 1.51369 5.94067 1.39757 5.95254C1.36353 5.95649 1.32549 6.00593 1.30346 6.0435C1.13328 6.33619 0.812931 6.47264 0.496587 6.38167C0.198262 6.29664 -0.0159715 5.99802 0.00204816 5.69347C0.0220699 5.36321 0.268338 5.1002 0.606706 5.04878C0.864987 5.00923 1.1533 5.13975 1.28144 5.38101C1.3375 5.48583 1.39957 5.51944 1.50969 5.50758C1.58777 5.49967 1.66786 5.50758 1.75996 5.50758C1.86007 4.08372 2.40266 2.85168 3.39374 1.80751C3.22556 1.6414 3.06939 1.47923 2.9012 1.32894C2.85515 1.28741 2.77707 1.26566 2.713 1.26566C2.29254 1.25972 1.87208 1.26566 1.45163 1.25972C1.36553 1.25972 1.3355 1.2973 1.29946 1.36256C1.13528 1.66315 0.798916 1.79367 0.478567 1.69281C0.176238 1.59591 -0.0319888 1.28148 0.00405038 0.976928C0.0460961 0.636783 0.308382 0.381674 0.654759 0.363876C0.935064 0.350033 1.15731 0.470666 1.29145 0.713909C1.3395 0.8029 1.39356 0.822676 1.48566 0.822676C1.8861 0.818721 2.28653 0.822676 2.68697 0.820698C2.91922 0.818721 3.10943 0.893869 3.2696 1.05999C3.41176 1.20831 3.55992 1.35267 3.68406 1.47923C4.05646 1.23006 4.39883 0.972973 4.76724 0.759393C5.49603 0.334212 6.2929 0.100857 7.13581 0.0257086C7.17986 0.0217535 7.22191 0.00791035 7.26595 0C7.54226 0 7.82056 0 8.09686 0H8.10287ZM8.17294 9.63085C8.17294 9.36585 8.17294 9.10876 8.17294 8.8497C8.17294 8.57482 8.25103 8.47396 8.50731 8.38299C8.65146 8.33157 8.79161 8.27422 8.92977 8.20896C9.17003 8.09624 9.29817 8.11206 9.48837 8.29993C9.67658 8.48582 9.86078 8.67369 10.037 8.8497C10.2993 8.59261 10.5455 8.34937 10.8038 8.09624C10.6156 7.91232 10.4194 7.72248 10.2252 7.52867C10.063 7.36849 10.045 7.23203 10.1451 7.02439C10.2072 6.89189 10.2712 6.75939 10.3193 6.62096C10.4334 6.3085 10.5015 6.25511 10.8358 6.25511C11.0861 6.25511 11.3384 6.25511 11.5927 6.25511V5.19314C11.3164 5.19314 11.0501 5.19314 10.7838 5.19314C10.5215 5.19314 10.4194 5.11602 10.3333 4.87673C10.2812 4.73434 10.2252 4.59393 10.1591 4.45748C10.039 4.2083 10.055 4.08767 10.2512 3.89387C10.4394 3.70797 10.6276 3.52406 10.7938 3.35992C10.5355 3.10283 10.2892 2.85959 10.033 2.60448C9.84676 2.79037 9.65255 2.99011 9.45033 3.18391C9.30417 3.3263 9.16402 3.3441 8.97782 3.25906C8.84768 3.19973 8.71954 3.13843 8.58539 3.08899C8.20898 2.95254 8.17494 2.90705 8.17494 2.50165C8.17494 2.27422 8.17494 2.0468 8.17494 1.82333H7.10178C7.10178 2.10811 7.10178 2.38101 7.10178 2.65392C7.10178 2.8675 7.01768 2.97231 6.81546 3.04746C6.65329 3.10679 6.49311 3.17007 6.33694 3.24324C6.1107 3.34805 5.97855 3.33223 5.80236 3.15821C5.61015 2.96836 5.42195 2.77653 5.23975 2.59657C4.98147 2.85366 4.7352 3.0969 4.47692 3.35201C4.66512 3.5379 4.86734 3.73171 5.06356 3.92946C5.21372 4.07976 5.22974 4.21621 5.14164 4.40804C5.07757 4.54449 5.0115 4.68292 4.96145 4.82333C4.84932 5.13579 4.77725 5.19116 4.44488 5.19116C4.19461 5.19116 3.94434 5.19116 3.69006 5.19116V6.25313C3.97637 6.25313 4.25267 6.25115 4.52898 6.25313C4.75322 6.25511 4.85533 6.33817 4.93542 6.54779C4.99749 6.71193 5.06756 6.87409 5.13964 7.0323C5.23174 7.23006 5.21172 7.36453 5.05755 7.52274C4.97947 7.60382 4.89738 7.68292 4.81729 7.76005C4.69716 7.87475 4.57703 7.9855 4.46491 8.08833C4.7332 8.35333 4.97746 8.59459 5.23374 8.84772C5.42395 8.65787 5.62016 8.46012 5.82038 8.26433C5.97255 8.11602 6.1127 8.09822 6.30491 8.18325C6.47109 8.25642 6.63927 8.32564 6.80946 8.3909C7.01969 8.47 7.09777 8.57284 7.09977 8.7963C7.09977 8.99604 7.09977 9.19578 7.09977 9.39749C7.09977 9.47264 7.09977 9.54779 7.09977 9.62294H8.17094L8.17294 9.63085ZM2.20445 5.95451C2.24849 7.27356 2.69097 8.42056 3.5439 9.39749C3.8122 9.13249 4.07048 8.87739 4.34878 8.6025C4.28471 8.54713 4.20462 8.4878 4.13655 8.42056C3.93233 8.21885 3.93233 8.02505 4.13254 7.82333C4.30273 7.65326 4.47091 7.48121 4.6471 7.31707C4.71318 7.25379 4.7352 7.20237 4.68715 7.11733C4.63509 7.02439 4.59104 6.92353 4.56101 6.82267C4.53298 6.72577 4.48693 6.69215 4.38282 6.69611C4.13054 6.70402 3.87827 6.70402 3.628 6.69611C3.37572 6.6882 3.24157 6.54581 3.23757 6.29664C3.23757 6.18589 3.23757 6.07515 3.23757 5.95649H2.20645L2.20445 5.95451ZM3.71609 2.14173C2.97929 2.71127 2.14638 4.59196 2.23848 5.49967H3.23757C3.23757 5.38497 3.23757 5.28016 3.23757 5.17337C3.23957 4.90046 3.37772 4.76203 3.65803 4.7561C3.88027 4.75214 4.10251 4.74819 4.32475 4.7561C4.4589 4.76203 4.549 4.7383 4.57903 4.588C4.59505 4.50296 4.63509 4.41991 4.68114 4.34674C4.74321 4.25181 4.71318 4.19248 4.6391 4.12327C4.46691 3.96308 4.30073 3.79499 4.13455 3.62689C3.93433 3.42518 3.93433 3.23138 4.13855 3.02966C4.22064 2.94858 4.31674 2.87937 4.39683 2.81213C4.14856 2.56493 3.93233 2.35333 3.71809 2.13975L3.71609 2.14173ZM0.947077 1.05603C0.955085 0.927488 0.846968 0.81081 0.712822 0.8029C0.580678 0.79499 0.462549 0.901779 0.454541 1.0323C0.446532 1.16084 0.556652 1.2795 0.688796 1.28543C0.818937 1.29334 0.939068 1.18457 0.947077 1.05603ZM0.706815 5.48385C0.576674 5.47989 0.458545 5.59262 0.454541 5.72116C0.450536 5.8497 0.562659 5.96638 0.694802 5.97033C0.824944 5.97429 0.943072 5.86157 0.947077 5.73302C0.951081 5.60448 0.836957 5.4878 0.706815 5.48385ZM2.55282 12.354C2.55282 12.2235 2.4387 12.1147 2.30455 12.1147C2.17041 12.1147 2.06029 12.2254 2.06229 12.3579C2.06229 12.4885 2.17641 12.5992 2.30856 12.5972C2.4407 12.5972 2.55282 12.4825 2.55082 12.354H2.55282Z" fill="#410EAD"/>
<path d="M7.05995 14.9998C6.12494 14.9998 5.19192 14.9998 4.2569 14.9998C3.85847 14.9998 3.65625 14.8001 3.65625 14.4045C3.65625 13.8924 3.65625 13.3802 3.65625 12.866C3.65625 12.7018 3.75436 12.597 3.8905 12.6049C4.01864 12.6109 4.10073 12.7058 4.10073 12.8581C4.10073 13.3604 4.10073 13.8627 4.10073 14.367C4.10073 14.4962 4.16747 14.5608 4.30095 14.5608C6.14496 14.5608 7.98696 14.5608 9.83097 14.5608C9.96311 14.5608 10.0292 14.4955 10.0292 14.365C10.0292 13.9695 10.0292 13.574 10.0292 13.1784C10.0292 12.7928 10.2314 12.597 10.6258 12.597C11.1344 12.597 11.6429 12.597 12.1535 12.597C12.7562 12.597 13.1666 12.1916 13.1706 11.5944C13.1706 11.545 13.1706 11.4975 13.1706 11.4481C13.1786 11.3215 13.2487 11.2503 13.3748 11.2384C13.495 11.2266 13.5891 11.3096 13.6111 11.4342C13.7292 12.1343 13.1866 12.8937 12.4758 13.0044C12.2476 13.04 12.0133 13.0321 11.7811 13.0361C11.3947 13.04 11.0103 13.04 10.6238 13.0361C10.5097 13.0361 10.4677 13.0717 10.4677 13.1864C10.4737 13.5957 10.4697 14.0071 10.4677 14.4164C10.4677 14.7981 10.2614 14.9998 9.87101 14.9998C8.93199 14.9998 7.99297 14.9998 7.05395 14.9998H7.05995Z" fill="#410EAD"/>
<path d="M10.0751 5.68937C10.0751 6.92537 9.14811 7.97349 7.96883 8.11192C6.70746 8.26024 5.57222 7.49689 5.27189 6.3044C5.23385 6.15213 5.29192 6.03347 5.42005 6.00381C5.5542 5.97217 5.65431 6.03743 5.70036 6.19564C5.91059 6.92932 6.3791 7.41976 7.12391 7.62741C8.24313 7.93789 9.37436 7.21805 9.5986 6.06709C9.81284 4.97547 8.99795 3.89768 7.86672 3.77507C6.86363 3.6663 5.95063 4.28924 5.70236 5.25233C5.69035 5.29979 5.68835 5.36505 5.65631 5.38878C5.58624 5.43822 5.50014 5.49755 5.42005 5.49557C5.31394 5.49557 5.24386 5.40658 5.24987 5.29386C5.25387 5.21278 5.2739 5.12972 5.29792 5.05061C5.61627 3.98667 6.67943 3.24112 7.7626 3.32418C8.95791 3.41515 9.88091 4.24969 10.0511 5.39471C10.0671 5.50546 10.0691 5.61818 10.0731 5.69333L10.0751 5.68937Z" fill="#410EAD"/>
</svg>
