<svg width="15" height="16" viewBox="0 0 15 16" fill="none" xmlns="http://www.w3.org/2000/svg">
<path d="M11.9523 13.5853C11.8703 13.5559 11.813 13.5373 11.7588 13.5141C11.4647 13.384 11.1722 13.2494 10.875 13.1256C10.8209 13.1023 10.7342 13.107 10.6831 13.1348C10.2218 13.3887 9.74047 13.5884 9.23588 13.7354C9.17552 13.7524 9.11051 13.8159 9.08574 13.8747C8.96192 14.1719 8.84893 14.4737 8.73748 14.7755C8.68021 14.9334 8.58115 15.0046 8.40934 15.0031C7.7995 14.9969 7.18966 14.9984 6.57982 15.0031C6.42039 15.0031 6.32443 14.9396 6.27025 14.7941C6.15417 14.483 6.03653 14.1719 5.91116 13.8654C5.88949 13.8112 5.82603 13.7524 5.77031 13.7354C5.26572 13.5884 4.7828 13.3902 4.32309 13.1364C4.26892 13.107 4.17605 13.107 4.11723 13.1302C3.81541 13.254 3.51668 13.3871 3.21949 13.5249C3.0771 13.5915 2.9641 13.5729 2.85266 13.4599C2.42082 13.0219 1.98588 12.5869 1.54785 12.1566C1.43021 12.0405 1.41164 11.926 1.48129 11.7774C1.6175 11.4864 1.74906 11.1923 1.87134 10.8936C1.89611 10.8317 1.89456 10.7326 1.86205 10.6754C1.61285 10.2188 1.41473 9.74202 1.26924 9.24207C1.25221 9.18171 1.18875 9.11515 1.13148 9.09039C0.8343 8.96656 0.534023 8.85202 0.230649 8.74213C0.0727714 8.68486 -0.00152414 8.59044 2.36829e-05 8.41554C0.00621497 7.8057 0.00621497 7.19585 2.36829e-05 6.58601C2.36829e-05 6.41885 0.0681279 6.32443 0.219815 6.26871C0.52164 6.15726 0.823465 6.04427 1.12065 5.92045C1.18256 5.89413 1.25066 5.82448 1.26924 5.75947C1.41628 5.26572 1.60512 4.78899 1.86205 4.34322C1.91004 4.25963 1.91468 4.19153 1.87444 4.10485C1.73978 3.81231 1.61595 3.51513 1.47819 3.22414C1.40699 3.074 1.43331 2.96101 1.55094 2.84492C1.98588 2.41772 2.41617 1.98588 2.84492 1.55094C2.96101 1.43331 3.074 1.41009 3.22414 1.47974C3.51977 1.61905 3.82005 1.75061 4.12188 1.87444C4.18069 1.89766 4.27201 1.89611 4.32619 1.86515C4.78589 1.60976 5.26881 1.41319 5.7734 1.26614C5.82912 1.25067 5.88949 1.18875 5.91271 1.13458C6.03653 0.832754 6.15262 0.526285 6.26561 0.219816C6.32133 0.0681294 6.4173 -0.0015226 6.58291 2.52223e-05C7.19276 0.00466869 7.8026 0.00621651 8.41244 2.52223e-05C8.5858 -0.0015226 8.68176 0.0727729 8.73903 0.230651C8.84893 0.532476 8.96346 0.834302 9.08729 1.13148C9.11206 1.18875 9.17861 1.25067 9.23898 1.26924C9.73892 1.41628 10.2172 1.60976 10.6692 1.86979C10.7481 1.91623 10.8116 1.91623 10.8921 1.87908C11.1846 1.74442 11.4818 1.6206 11.7728 1.48284C11.9214 1.41319 12.0359 1.43176 12.152 1.5494C12.5838 1.98743 13.0188 2.42237 13.4552 2.85421C13.5682 2.96565 13.5884 3.0771 13.5218 3.22104C13.3856 3.51358 13.2618 3.81076 13.1271 4.10176C13.0884 4.18689 13.0869 4.25499 13.1348 4.34012C13.3933 4.78589 13.5806 5.26262 13.7292 5.75638C13.7478 5.82139 13.8128 5.89259 13.8747 5.9189C14.1719 6.04272 14.4737 6.15726 14.7755 6.26716C14.935 6.32598 15.0015 6.42658 15 6.59839C14.9938 7.20359 14.9938 7.80724 15 8.41244C15.0015 8.58425 14.9319 8.68331 14.7724 8.74058C14.4753 8.84893 14.1812 8.96811 13.884 9.078C13.7958 9.11051 13.7478 9.1554 13.7215 9.25136C13.5853 9.74821 13.3856 10.2203 13.1379 10.6723C13.1054 10.7311 13.1023 10.8286 13.1271 10.8905C13.2509 11.1939 13.384 11.4911 13.5218 11.7882C13.5884 11.9322 13.5651 12.0436 13.4537 12.1551C13.0157 12.5869 12.5838 13.025 12.1473 13.4568C12.0901 13.5141 12.0111 13.5481 11.9508 13.5884L11.9523 13.5853ZM3.13127 1.9704C3.1065 1.98898 3.074 2.0091 3.04769 2.03541C2.71181 2.36974 2.37903 2.70717 2.0416 3.0384C1.98124 3.09722 1.97195 3.14365 2.00755 3.2195C2.13757 3.4981 2.2552 3.78136 2.38522 4.05842C2.44868 4.19462 2.44404 4.31071 2.3651 4.44228C2.06172 4.93913 1.84193 5.47313 1.70263 6.03963C1.66703 6.18358 1.59119 6.26561 1.45652 6.31514C1.16863 6.42039 0.88383 6.53803 0.595935 6.64173C0.509257 6.67269 0.484492 6.71603 0.484492 6.8058C0.489136 7.2686 0.490683 7.73295 0.484492 8.19575C0.484492 8.29636 0.523188 8.33505 0.608318 8.36601C0.896213 8.47126 1.18101 8.58735 1.46891 8.6926C1.59428 8.73903 1.66703 8.81488 1.69799 8.94644C1.83884 9.52223 2.06172 10.0655 2.36974 10.5717C2.44249 10.6924 2.44868 10.8007 2.38986 10.9277C2.2583 11.2109 2.13757 11.4988 2.006 11.7805C1.9704 11.8563 1.97659 11.9028 2.03851 11.9631C2.37748 12.2944 2.70871 12.6334 3.04769 12.963C3.08174 12.9955 3.16687 13.011 3.21021 12.994C3.49346 12.8764 3.77516 12.7525 4.05068 12.621C4.19308 12.5529 4.31381 12.5591 4.44692 12.6411C4.94377 12.946 5.47932 13.1627 6.04427 13.302C6.18203 13.3361 6.26097 13.4104 6.30895 13.5404C6.4142 13.8283 6.53029 14.1131 6.63554 14.401C6.66495 14.4815 6.69745 14.5201 6.79497 14.5201C7.26396 14.514 7.7314 14.514 8.20039 14.5201C8.29635 14.5201 8.33041 14.483 8.35981 14.4025C8.46507 14.1146 8.58115 13.8298 8.68641 13.5419C8.73439 13.4119 8.81333 13.3376 8.95108 13.3036C9.52687 13.1627 10.0686 12.9383 10.5763 12.6303C10.6908 12.5606 10.7976 12.5544 10.9184 12.6101C11.2063 12.7432 11.4973 12.8671 11.7851 12.9986C11.8548 13.0311 11.8981 13.0265 11.9539 12.9692C12.2851 12.6318 12.621 12.2959 12.9584 11.9647C13.0203 11.9043 13.0265 11.8579 12.9909 11.7821C12.8593 11.4988 12.7386 11.2125 12.607 10.9292C12.5482 10.8038 12.5529 10.6939 12.6256 10.5732C12.9336 10.0671 13.1581 9.52378 13.2989 8.94799C13.3314 8.81642 13.4026 8.74058 13.528 8.69415C13.8205 8.5858 14.1084 8.46816 14.4025 8.36136C14.4892 8.33041 14.514 8.28707 14.514 8.19729C14.5093 7.7345 14.5078 7.27015 14.514 6.80735C14.514 6.70674 14.4768 6.66805 14.3901 6.63709C14.1069 6.53338 13.8267 6.42039 13.5435 6.31669C13.4088 6.26716 13.3314 6.18667 13.2958 6.04273C13.1565 5.47158 12.9336 4.93448 12.6272 4.43144C12.5544 4.31226 12.5482 4.20236 12.607 4.07544C12.7386 3.79219 12.8593 3.50584 12.9909 3.22259C13.0265 3.14675 13.0203 3.10031 12.9599 3.03995C12.621 2.70871 12.2866 2.37284 11.9554 2.03541C11.8997 1.97969 11.8563 1.97195 11.7867 2.00446C11.5034 2.13447 11.2171 2.25675 10.9338 2.38832C10.8038 2.44868 10.6908 2.44404 10.5639 2.36819C10.0624 2.06327 9.52378 1.84039 8.95263 1.70108C8.81487 1.66703 8.73594 1.59273 8.68795 1.46427C8.57961 1.17173 8.46197 0.882284 8.35517 0.589746C8.32576 0.509259 8.28552 0.484494 8.20194 0.486041C7.73295 0.490685 7.2655 0.490685 6.79651 0.486041C6.70055 0.486041 6.6665 0.523189 6.63709 0.603676C6.52874 0.896215 6.41111 1.18566 6.30276 1.4782C6.25787 1.59738 6.18512 1.66858 6.05975 1.69953C5.47932 1.84039 4.93293 2.06792 4.42061 2.37748C4.30607 2.44713 4.20081 2.45332 4.07854 2.39605C3.79993 2.26759 3.51822 2.14531 3.23807 2.02148C3.20556 2.00755 3.17306 1.99362 3.12817 1.9735L3.13127 1.9704Z" fill="#410EAD"/>
<path d="M6.98695 8.49313C6.98695 8.99772 6.98695 9.48064 6.98695 9.96356C6.98695 10.2282 6.91111 10.3025 6.64488 10.3041C6.07064 10.3056 5.7456 9.98214 5.7456 9.4079C5.7456 9.09214 5.7456 8.77484 5.7456 8.45444C5.61249 8.43431 5.48711 8.42503 5.36793 8.39562C4.73797 8.23929 4.35101 7.66969 4.41757 7.00877C4.47793 6.41441 5.00264 5.93458 5.62796 5.90672C5.82918 5.89743 6.03195 5.88969 6.23162 5.90672C6.71608 5.95006 7.16186 5.82159 7.58441 5.60799C8.09674 5.3495 8.59669 5.0709 9.09973 4.79538C9.25761 4.70871 9.41858 4.67465 9.59194 4.73347C9.81947 4.81086 9.95722 5.00279 9.96032 5.26747C9.96651 5.58477 9.96496 5.90208 9.96032 6.21938C9.95877 6.31689 9.98354 6.36797 10.0795 6.40976C10.4107 6.55371 10.5887 6.81529 10.5918 7.17748C10.5934 7.54586 10.4138 7.81054 10.078 7.95913C9.98973 7.99783 9.95877 8.04117 9.96032 8.13558C9.96651 8.42193 9.96032 8.70983 9.96342 8.99617C9.96496 9.22525 9.88602 9.41099 9.68016 9.52553C9.46966 9.64162 9.2669 9.60911 9.06723 9.48219C8.47131 9.10452 7.86457 8.74698 7.18198 8.54421C7.12471 8.52718 7.06589 8.51325 6.98695 8.49158V8.49313ZM8.64312 5.63276C8.61217 5.64204 8.59669 5.64204 8.58431 5.64978C8.09519 5.9191 7.59525 6.16675 7.0566 6.32463C7.02565 6.33392 6.99005 6.39428 6.9885 6.43143C6.98386 6.919 6.98386 7.40811 6.9885 7.89567C6.9885 7.93592 7.03958 8.00402 7.07827 8.01331C7.58286 8.14178 8.0565 8.34609 8.51311 8.59374C8.55025 8.61386 8.5905 8.62934 8.64003 8.65256V5.6343L8.64312 5.63276ZM6.49475 7.95139V6.40512C6.16661 6.40512 5.84466 6.37571 5.5289 6.41286C5.12957 6.45929 4.87108 6.81684 4.89275 7.21773C4.91287 7.60933 5.22244 7.92818 5.62023 7.9483C5.90503 7.96223 6.19292 7.95139 6.49475 7.95139ZM9.47895 7.15581C9.47895 6.85399 9.47895 6.55216 9.47895 6.25034C9.47895 5.94387 9.48204 5.63585 9.47585 5.32938C9.47585 5.28295 9.43251 5.20401 9.40156 5.19937C9.28702 5.18389 9.13069 5.3526 9.13069 5.47333C9.13069 6.57538 9.13224 7.67743 9.12759 8.78103C9.12759 8.90795 9.15545 8.99463 9.27309 9.04106C9.32726 9.06273 9.38143 9.08285 9.43561 9.10297C9.44954 9.04261 9.47585 8.98379 9.47585 8.92343C9.47895 8.33525 9.4774 7.74553 9.4774 7.15581H9.47895ZM6.23007 8.4436C6.23007 8.81508 6.22542 9.17108 6.23162 9.52863C6.23471 9.68805 6.34615 9.78556 6.4932 9.78866V8.44515H6.23007V8.4436ZM9.97115 7.45764C10.16 7.2688 10.1476 7.00877 9.97115 6.94221V7.45764Z" fill="#410EAD"/>
<path d="M4.90193 11.5112C4.91431 11.5715 4.92514 11.6041 4.92669 11.6381C4.93288 11.7712 4.87252 11.8625 4.74405 11.8981C4.62022 11.9322 4.51188 11.8827 4.47318 11.7666C4.37876 11.4756 4.29208 11.1799 4.22088 10.8828C4.18683 10.7419 4.31375 10.6274 4.48247 10.6196C4.73321 10.6073 4.98551 10.598 5.2378 10.5918C5.41426 10.5871 5.5288 10.6785 5.53499 10.8224C5.54118 10.9663 5.43747 11.0623 5.25947 11.0747C5.23471 11.0762 5.21149 11.0793 5.15113 11.084C5.21304 11.1289 5.25019 11.1583 5.29043 11.1815C7.88922 12.7479 11.2712 11.1707 11.7402 8.17253C11.8919 7.20359 11.7263 6.29038 11.2604 5.42824C11.248 5.40657 11.2356 5.3849 11.2232 5.36168C11.1489 5.21464 11.1845 5.07534 11.3115 5.01033C11.4322 4.94841 11.5761 4.98556 11.6411 5.12641C11.7975 5.46848 11.9755 5.80591 12.0823 6.165C12.9181 8.97585 10.9957 11.8919 8.0858 12.2433C6.99923 12.3749 5.98385 12.152 5.04123 11.5963C5.00253 11.5731 4.96384 11.5499 4.90038 11.5127L4.90193 11.5112Z" fill="#410EAD"/>
<path d="M10.0995 3.48561C10.0902 3.43144 10.0778 3.39429 10.0762 3.3556C10.0731 3.23022 10.132 3.142 10.2542 3.1064C10.3781 3.0708 10.4895 3.11568 10.5282 3.23177C10.6242 3.52276 10.7108 3.81839 10.782 4.11558C10.8161 4.25798 10.6938 4.37561 10.5267 4.38335C10.2697 4.39573 10.0128 4.40502 9.75584 4.41121C9.58403 4.41585 9.4695 4.31525 9.46795 4.16975C9.46795 4.0289 9.56856 3.93912 9.73882 3.92829C9.76358 3.92674 9.78835 3.92519 9.83788 3.9221C9.80228 3.88805 9.78216 3.86328 9.75739 3.8478C7.23289 2.30927 4.02735 3.66826 3.33083 6.48065C3.05996 7.57341 3.21629 8.61819 3.75803 9.6057C3.8509 9.77596 3.82768 9.91217 3.69457 9.98647C3.56146 10.0608 3.43144 10.0081 3.33547 9.84252C1.91612 7.39077 3.04603 4.13415 5.68816 3.08318C7.17407 2.49191 8.61355 2.62038 9.99421 3.42525C10.0236 3.44227 10.053 3.45775 10.0979 3.48252L10.0995 3.48561Z" fill="#410EAD"/>
</svg>
