<svg width="15" height="15" viewBox="0 0 15 15" fill="none" xmlns="http://www.w3.org/2000/svg">
<path d="M15 10.3251C15 10.3251 14.9903 10.3324 14.9903 10.3348C14.8904 10.9071 14.4275 11.3211 13.7137 11.287C13.3872 11.2723 13.0608 11.2845 12.7246 11.2845V10.8438C13.09 10.8438 13.4506 10.8462 13.8111 10.8438C13.9086 10.8438 14.0085 10.834 14.0986 10.8072C14.3861 10.7196 14.5566 10.4663 14.5566 10.1327C14.5566 8.30632 14.5566 6.48239 14.5566 4.65602C14.5566 4.6268 14.5566 4.59758 14.5542 4.56836C14.5201 4.20795 14.2399 3.94983 13.8769 3.95957C13.8769 4.02045 13.8769 4.08376 13.8769 4.14464C13.8769 5.59843 13.8769 7.05465 13.8769 8.50844C13.8769 8.94921 13.6552 9.25604 13.2703 9.34614C13.1899 9.36562 13.1046 9.36562 13.0242 9.36562C11.1094 9.36562 9.19451 9.36562 7.28209 9.36562C6.75099 9.36562 6.43916 9.05148 6.43672 8.51818C6.43672 8.187 6.43672 7.85339 6.43672 7.5222C6.43672 7.50759 6.4416 7.49298 6.44647 7.46376H7.17977V3.95226C6.91909 3.9547 6.65842 3.90356 6.40262 3.99609C6.13463 4.09594 5.98115 4.33702 5.98115 4.65359C5.98115 5.31839 5.98115 5.98075 5.98115 6.64555C5.98115 6.74295 5.95435 6.80383 5.86909 6.85984C5.38428 7.17641 4.90191 7.50029 4.40249 7.83634C4.45852 7.8753 4.49994 7.90452 4.54135 7.93375C4.98474 8.2284 5.4257 8.52549 5.87152 8.81771C5.95679 8.87372 5.98359 8.93216 5.98359 9.032C5.97872 9.38754 5.98115 9.7455 5.98359 10.101C5.98359 10.5856 6.24913 10.8486 6.73881 10.8486C8.51725 10.8486 10.2932 10.8486 12.0717 10.8486H12.269V11.2894H12.1033C11.2385 11.2894 10.3736 11.2894 9.51122 11.287C9.39672 11.287 9.34312 11.3113 9.30902 11.4306C9.06296 12.2732 8.5879 12.9697 7.94961 13.5638C7.8278 13.6758 7.70599 13.7903 7.58661 13.9048C7.28209 14.1945 7.00436 14.4965 7.08963 14.9884H6.91422C5.5134 14.9884 4.11014 15.0225 2.70932 14.9738C1.93217 14.947 1.24029 14.6426 0.865112 13.8828C0.740865 13.6296 0.706758 13.3544 0.735993 13.0573C0.823696 13.0573 0.908964 13.0671 0.986922 13.0549C1.06732 13.0427 1.15258 13.0184 1.21593 12.9721C1.25491 12.9429 1.28901 12.843 1.26709 12.8114C1.22323 12.7456 1.14771 12.6726 1.07706 12.6628C0.926017 12.6409 0.767663 12.6555 0.597129 12.6555C0.597129 12.4558 0.594693 12.2756 0.597129 12.0954C0.597129 12.0151 0.580076 11.9688 0.489936 11.9591C0.424158 11.9493 0.35838 11.925 0.295039 11.8982C0.053854 11.7959 -0.0216686 11.662 0.00512971 11.4038C0.0441091 11.0094 0.175664 10.6441 0.370561 10.3032C0.438775 10.1838 0.463138 10.0645 0.46801 9.93058C0.494808 8.97112 0.645853 8.03846 1.07706 7.16667C1.31337 6.68938 1.62277 6.2681 2.04667 5.91257C2.14169 6.02458 2.23183 6.13173 2.32684 6.24375C2.2708 6.29488 2.22208 6.34115 2.17336 6.38986C1.57649 6.96699 1.25978 7.69267 1.0795 8.48653C0.955251 9.03687 0.906527 9.59452 0.899219 10.157C0.899219 10.2301 0.87242 10.3105 0.835877 10.3738C0.648289 10.6855 0.504553 11.0118 0.450956 11.3771C0.436339 11.4769 0.472882 11.5134 0.555713 11.5256C0.709194 11.55 0.862676 11.5743 1.03077 11.5987V12.205C1.423 12.2415 1.68611 12.4242 1.71048 12.826C1.7324 13.1791 1.51071 13.3788 1.18669 13.4786C1.22811 13.7124 1.34505 13.895 1.51071 14.046C1.86883 14.3699 2.2976 14.5428 2.7751 14.5476C4.01026 14.5598 5.24542 14.5525 6.48058 14.5525H6.64624C6.75099 14.1044 7.05308 13.8 7.36248 13.4981C7.61828 13.2497 7.87652 13.0037 8.11284 12.7383C8.47827 12.3292 8.72432 11.8495 8.88024 11.304C8.8169 11.3016 8.76574 11.2967 8.71458 11.2967C8.03975 11.2967 7.36736 11.2991 6.69252 11.2967C6.13707 11.2943 5.71073 10.9801 5.57674 10.4809C5.54751 10.3689 5.53776 10.2496 5.53533 10.1351C5.53045 9.84778 5.52802 9.558 5.53533 9.27065C5.53776 9.16837 5.50122 9.11236 5.41839 9.05879C4.85562 8.68865 4.2953 8.31363 3.73497 7.94105C3.69599 7.91426 3.65701 7.88504 3.60585 7.84852C3.65701 7.80955 3.69842 7.7779 3.74228 7.75111C4.3026 7.3761 4.8605 7.00108 5.42326 6.63094C5.50122 6.5798 5.53533 6.52622 5.53289 6.43125C5.52558 6.11955 5.53045 5.80785 5.53045 5.47911C4.51699 5.38414 3.55469 5.48398 2.65085 6.0051C2.57777 5.88821 2.50224 5.77133 2.42185 5.64226C2.88717 5.3403 3.3939 5.18202 3.92499 5.08948C4.45121 4.99695 4.98231 4.98477 5.53289 5.04078C5.53289 4.91415 5.53289 4.7997 5.53289 4.68281C5.53533 3.98635 6.00308 3.52124 6.70471 3.51637C6.86062 3.51637 7.0141 3.51637 7.18464 3.51637C7.18464 3.44088 7.18464 3.38487 7.18464 3.32643C7.18464 2.54961 7.18464 1.77523 7.18464 0.998415C7.18464 0.409107 7.31376 0.216729 7.84485 0C10.0131 0 12.1813 0 14.3495 0C14.486 0.0779251 14.6541 0.129064 14.7515 0.238646C14.8636 0.365274 14.9147 0.545476 14.9927 0.701326V2.78095H13.8793V3.50906C14.3812 3.54803 14.7345 3.77937 14.9196 4.24448C14.9488 4.31997 14.9683 4.40033 14.9927 4.47826V10.3372L15 10.3251ZM13.4725 0.431023H11.7452C11.7452 0.645317 11.7379 0.854741 11.7477 1.06416C11.7501 1.13478 11.7793 1.21758 11.8256 1.27115C12.0668 1.5585 12.3202 1.83854 12.5614 2.12589C12.6052 2.17947 12.6369 2.26226 12.6393 2.33288C12.6466 2.73712 12.6442 3.14379 12.6393 3.54803C12.6393 3.63082 12.6612 3.67709 12.7368 3.71849C13.0145 3.86947 13.1339 4.16169 13.051 4.46608C12.9731 4.76073 12.7173 4.95555 12.4152 4.95311C12.118 4.95068 11.867 4.7583 11.7891 4.47339C11.7062 4.16899 11.8207 3.87434 12.096 3.72336C12.1764 3.67952 12.2008 3.62839 12.2008 3.54072C12.1959 3.19493 12.2032 2.8467 12.1959 2.50091C12.1959 2.42542 12.1594 2.33775 12.1131 2.28174C11.8987 2.02118 11.6794 1.76549 11.4504 1.51954C11.3432 1.40509 11.2945 1.2882 11.3018 1.12991C11.314 0.898574 11.3043 0.664798 11.3043 0.433458H10.8633C10.8633 0.820649 10.8633 1.20053 10.8633 1.58042C10.8633 1.60477 10.856 1.63399 10.8633 1.65347C10.8828 1.68756 10.9096 1.72409 10.9413 1.74357C11.4115 2.02118 11.4139 2.63971 10.9486 2.91732C10.9072 2.94167 10.8658 3.00986 10.8633 3.05856C10.856 3.53098 10.8633 4.00584 10.8584 4.47826C10.8584 4.56349 10.8828 4.60732 10.9583 4.64872C11.37 4.87275 11.7769 5.10409 12.1837 5.333C12.3324 5.41579 12.5321 5.4718 12.6076 5.60086C12.6832 5.72993 12.6344 5.93205 12.6344 6.10251C12.6344 6.38499 12.6344 6.66503 12.6344 6.95481H12.1935C12.1935 6.8988 12.1935 6.84523 12.1935 6.79409C12.1935 6.52135 12.1886 6.24618 12.1935 5.97344C12.1935 5.87847 12.1643 5.8249 12.079 5.77863C11.7111 5.57895 11.3457 5.36952 10.9803 5.16497C10.9437 5.14549 10.9072 5.13088 10.8487 5.10409V6.95481H10.4126V4.27857C10.3858 4.28101 10.3761 4.27857 10.3688 4.28344C10.1178 4.4539 9.86691 4.62193 9.61841 4.79483C9.19451 5.08461 9.19208 5.08461 9.214 5.59599C9.214 5.6447 9.25785 5.71045 9.30171 5.73723C9.57943 5.90769 9.70124 6.19017 9.61841 6.50187C9.54289 6.78435 9.28709 6.9816 8.99231 6.98403C8.69265 6.98647 8.43685 6.78922 8.35646 6.49457C8.27363 6.1853 8.39056 5.89795 8.68291 5.73967C8.75843 5.69827 8.77305 5.652 8.77061 5.57895C8.76818 5.37926 8.77549 5.17958 8.76818 4.97746C8.7633 4.87762 8.79741 4.81918 8.88024 4.76317C9.35774 4.44173 9.83036 4.11298 10.3079 3.79154C10.3834 3.7404 10.4224 3.68683 10.4175 3.58942C10.4102 3.42383 10.4102 3.25824 10.4175 3.09265C10.4199 3.00012 10.398 2.94898 10.3079 2.90027C9.8864 2.66406 9.85473 2.04553 10.264 1.79228C10.398 1.70948 10.4321 1.62669 10.4175 1.49032C10.4126 1.44648 10.4175 1.40265 10.4175 1.35882V0.438329H9.96192C9.96192 0.569827 9.94487 0.69402 9.96436 0.813343C10.0277 1.2054 9.90345 1.51467 9.57456 1.7387C9.26516 1.94813 9.1531 2.23548 9.21157 2.60318C9.22375 2.68598 9.23593 2.73712 9.31389 2.78826C9.4089 2.84914 9.50148 2.93193 9.56238 3.02934C9.74753 3.3313 9.63303 3.74771 9.33338 3.92548C9.01667 4.11298 8.60739 4.00584 8.42954 3.69414C8.24439 3.37026 8.34428 2.97089 8.66586 2.79313C8.76087 2.74199 8.78279 2.68354 8.78036 2.58614C8.77305 2.40594 8.76818 2.2233 8.78279 2.04553C8.78767 1.96761 8.82664 1.87751 8.88024 1.8215C9.06296 1.62425 9.26029 1.44161 9.45031 1.25167C9.47955 1.22245 9.52096 1.18349 9.5234 1.14696C9.53071 0.910749 9.52584 0.674539 9.52584 0.428588C9.03616 0.428588 8.56841 0.428588 8.10065 0.428588C7.75715 0.428588 7.6329 0.552781 7.6329 0.896138C7.6329 3.02934 7.6329 5.16254 7.6329 7.29573C7.6329 7.34687 7.63777 7.39801 7.64265 7.46376H12.7611C12.7611 7.79494 12.7611 8.11151 12.7611 8.42808C12.7611 8.49627 12.7611 8.56445 12.7709 8.63264C12.7952 8.8104 12.9244 8.92242 13.0998 8.92242C13.2679 8.92242 13.397 8.81771 13.4262 8.64725C13.4384 8.57663 13.4408 8.50114 13.4408 8.42808C13.4408 5.94422 13.4408 3.45792 13.4408 0.974063C13.4408 0.796297 13.4628 0.616095 13.4749 0.433458L13.4725 0.431023ZM6.87281 7.90209C6.87281 8.10177 6.87281 8.29171 6.87281 8.47922C6.87281 8.81284 6.97756 8.91998 7.30889 8.91998C8.94358 8.91998 10.5807 8.91998 12.2154 8.91998C12.269 8.91998 12.3202 8.91998 12.3372 8.91998V7.90209H6.87281ZM14.5493 2.32314C14.5493 1.78741 14.5566 1.26872 14.5469 0.747594C14.5444 0.552781 14.3812 0.418847 14.2009 0.426153C14.0182 0.433458 13.8818 0.572262 13.8793 0.771945C13.8745 1.13235 13.8793 1.49275 13.8793 1.85316C13.8793 2.00657 13.8793 2.16242 13.8793 2.32314H14.5517H14.5493ZM12.6344 4.30293C12.6393 4.18117 12.554 4.0862 12.4347 4.07889C12.3056 4.07158 12.2081 4.15682 12.2032 4.28344C12.1984 4.41007 12.2909 4.50748 12.4176 4.50991C12.5346 4.50991 12.632 4.41981 12.6369 4.30049L12.6344 4.30293ZM8.99718 6.10251C8.86806 6.10251 8.77792 6.19261 8.78036 6.32167C8.78036 6.44099 8.87293 6.53353 8.99231 6.53596C9.11168 6.53596 9.21644 6.43125 9.214 6.31193C9.21157 6.19261 9.11655 6.10251 8.99718 6.10251ZM10.8584 2.33532C10.8633 2.21843 10.7732 2.12102 10.6538 2.11128C10.5247 2.10398 10.4272 2.18921 10.4224 2.31827C10.4175 2.44003 10.5028 2.535 10.6221 2.54231C10.7464 2.54961 10.8536 2.45707 10.8584 2.33532ZM9.214 3.35565C9.214 3.23876 9.12143 3.14135 9.00449 3.13892C8.87537 3.13405 8.78279 3.22415 8.78036 3.35321C8.78036 3.48228 8.87293 3.57481 8.99962 3.57238C9.11655 3.57238 9.21157 3.47254 9.21157 3.35808L9.214 3.35565Z" fill="#410EAD"/>
<path d="M9.26758 9.84033H9.68661V10.2665H9.26758V9.84033Z" fill="#410EAD"/>
<path d="M10.5684 9.84277V10.2665H10.147V9.84277H10.5684Z" fill="#410EAD"/>
</svg>
