<svg width="15" height="15" viewBox="0 0 15 15" fill="none" xmlns="http://www.w3.org/2000/svg">
<path d="M8.18838 11.7806C8.88526 12.0242 9.58891 12.2457 10.274 12.518C10.6173 12.6533 10.8778 12.6245 11.1941 12.43C12.0635 11.8956 12.9566 11.3984 13.8429 10.8911C14.3216 10.6171 14.8815 10.8674 14.9864 11.3951C15.0473 11.6995 14.9018 12.0089 14.5956 12.2034C13.9343 12.6228 13.2695 13.0388 12.6065 13.4566C12.2766 13.6646 11.9485 13.8726 11.6187 14.0806C11.0622 14.429 10.4414 14.5795 9.80034 14.664C8.76517 14.801 7.72999 14.7655 6.69482 14.6725C5.35518 14.5524 4.01723 14.4121 2.67759 14.2852C2.52366 14.27 2.36636 14.2835 2.19383 14.2835C2.19383 14.4374 2.19721 14.593 2.19383 14.7486C2.19045 14.9245 2.11771 14.9989 1.94349 14.9989C1.38193 15.0006 0.82036 15.0006 0.258794 14.9989C0.0778074 14.9989 0 14.9211 0 14.7401C0 13.3534 0 11.9667 0 10.5799C0 10.3973 0.0761159 10.3229 0.258794 10.3229C0.82036 10.3229 1.38193 10.3212 1.94349 10.3229C2.1194 10.3229 2.19045 10.3956 2.19383 10.5732C2.19721 10.7287 2.19383 10.8843 2.19383 11.0585C2.39004 11.0585 2.57272 11.045 2.75032 11.0602C3.37447 11.116 3.95295 10.9824 4.52467 10.7254C5.252 10.399 6.0047 10.1267 6.74387 9.82737C7.03818 9.70899 7.33081 9.69715 7.63358 9.79354C7.70462 9.81553 7.78243 9.82398 7.85685 9.82568C8.52498 9.82906 9.19311 9.8206 9.86124 9.83244C10.3399 9.84259 10.6731 10.2434 10.6275 10.7169C10.5936 11.0636 10.2943 11.3528 9.88999 11.4153C9.40623 11.4915 8.91909 11.5557 8.43533 11.6318C8.34569 11.6453 8.25942 11.6893 8.17146 11.7198C8.17823 11.74 8.185 11.7603 8.19176 11.7806H8.18838ZM6.025 10.5765C5.22493 10.8945 4.42994 11.209 3.64341 11.5219C4.30139 12.337 4.26756 13.1471 3.49287 13.9402C4.75978 14.0586 5.99624 14.1871 7.23608 14.2852C8.1241 14.3546 9.01212 14.3444 9.90014 14.226C10.1505 14.1922 10.2621 14.0992 10.3044 13.8523C10.3501 13.5817 10.4414 13.3179 10.5125 13.049C10.4786 13.0338 10.46 13.0253 10.4414 13.0202C9.57369 12.7175 8.70766 12.4131 7.83824 12.1155C7.78412 12.0969 7.70969 12.107 7.65388 12.1273C6.94853 12.3759 6.19245 11.9785 6.03176 11.2479C5.98609 11.0382 6.025 10.8099 6.025 10.5782V10.5765ZM1.32949 12.655C1.32949 13.306 1.85723 13.8371 2.50337 13.8337C3.14781 13.8303 3.67048 13.306 3.67048 12.6634C3.67048 12.014 3.14105 11.4813 2.49491 11.4847C1.85215 11.4881 1.32949 12.0123 1.3278 12.655H1.32949ZM1.76758 14.5676C1.76758 14.4307 1.77773 14.3089 1.76251 14.1888C1.75574 14.1313 1.71514 14.0586 1.66778 14.0265C0.642756 13.3635 0.644448 11.9548 1.67455 11.2919C1.71007 11.2699 1.76081 11.2327 1.76251 11.2006C1.77265 11.0518 1.76589 10.9029 1.76589 10.7575H0.434706V14.5676H1.76758ZM11.4461 13.6781C11.4935 13.6493 11.529 13.6307 11.5628 13.6105C12.2733 13.164 12.9837 12.7175 13.6941 12.2694C13.9343 12.1189 14.1762 11.9717 14.4096 11.8128C14.5737 11.7012 14.6143 11.5117 14.5212 11.3612C14.4248 11.2023 14.2387 11.16 14.0561 11.2564C14.0375 11.2665 14.0205 11.2767 14.0036 11.2868C13.0581 11.8331 12.1126 12.3776 11.1687 12.9238C11.1349 12.9425 11.1045 12.9678 11.0639 12.9949C11.1924 13.2266 11.3176 13.4498 11.4461 13.6781ZM8.03953 10.9723C8.04291 10.5292 7.68263 10.1605 7.23608 10.1521C6.78954 10.1436 6.41234 10.5174 6.41234 10.9672C6.41234 11.4103 6.77939 11.7789 7.22255 11.7789C7.66402 11.7789 8.03445 11.4153 8.03784 10.9723H8.03953ZM8.44379 11.2006C8.76009 11.1549 9.05441 11.116 9.34872 11.0687C9.54832 11.0382 9.75129 11.0145 9.94243 10.9587C10.1369 10.9029 10.2232 10.7406 10.1961 10.563C10.1691 10.3888 10.0287 10.2603 9.83417 10.2586C9.32335 10.2535 8.81253 10.2569 8.30171 10.2586C8.28987 10.2586 8.27803 10.2688 8.25773 10.2789C8.43026 10.5596 8.49961 10.859 8.44379 11.2023V11.2006ZM10.6901 14.0434C10.8338 13.9876 10.9488 13.9436 11.0774 13.8946C10.9996 13.7559 10.9269 13.6291 10.8389 13.4735C10.7848 13.6781 10.7425 13.8455 10.6901 14.0434Z" fill="#410EAD"/>
<path d="M7.76725 4.49843H6.11131C6.00475 4.78931 5.8153 4.99901 5.50238 5.07342C5.0829 5.17151 4.65834 4.92967 4.53317 4.52211C4.408 4.11792 4.61267 3.6833 5.0034 3.52095C5.40089 3.35691 5.86435 3.52095 6.04196 3.91499C6.10285 4.05028 6.17727 4.06888 6.30244 4.06888C6.78789 4.06381 7.27334 4.06719 7.76725 4.06719C7.77571 4.01138 7.78247 3.96403 7.78924 3.91499C7.82307 3.69176 7.95162 3.57507 8.20027 3.54294C8.53518 3.49897 8.71616 3.28926 8.68402 2.98655C8.66542 2.80391 8.61806 2.76163 8.43707 2.76163C7.6979 2.76163 6.96042 2.75994 6.22125 2.76332C6.09439 2.76332 6.00136 2.72611 5.91341 2.63648C5.58695 2.30333 5.25374 1.98032 4.92897 1.64547C4.84778 1.56261 4.7852 1.54231 4.67018 1.58628C4.3302 1.71819 3.95469 1.59643 3.73988 1.30386C3.52506 1.0113 3.52675 0.61726 3.74495 0.328074C3.96484 0.0371978 4.34035 -0.0744176 4.68033 0.0507269C5.02201 0.175871 5.23851 0.503953 5.21652 0.865857C5.21314 0.930121 5.20976 1.00453 5.17931 1.05696C5.09981 1.19394 5.15056 1.2785 5.25374 1.37827C5.55312 1.66408 5.84067 1.96341 6.13837 2.25429C6.17727 2.29318 6.23817 2.31348 6.2906 2.33377C6.31767 2.34392 6.3498 2.33546 6.38025 2.33546C7.05853 2.33546 7.73511 2.33546 8.41001 2.33546C8.56055 2.03105 8.82103 1.83319 9.05784 1.61842C9.205 1.48482 9.41474 1.51695 9.59742 1.67084C9.76149 1.80951 9.93909 1.84334 10.1336 1.75878C10.2977 1.68775 10.3941 1.55753 10.4161 1.37658C10.4634 1.00453 10.5852 0.89968 10.9607 0.89968C11.1282 0.89968 11.294 0.896298 11.4614 0.89968C11.7185 0.908136 11.8775 1.05696 11.8944 1.31232C11.908 1.52371 11.9993 1.68099 12.1972 1.76216C12.3934 1.84334 12.5693 1.79937 12.7317 1.66239C12.9381 1.4882 13.1495 1.49665 13.3423 1.68099C13.481 1.8129 13.618 1.94988 13.75 2.08855C13.936 2.28303 13.9479 2.49274 13.7736 2.69906C13.6383 2.85971 13.5842 3.0339 13.6654 3.23177C13.7466 3.42963 13.9039 3.51926 14.1136 3.54124C14.4029 3.57338 14.5348 3.72389 14.5365 4.01138C14.5365 4.1991 14.5399 4.38512 14.5365 4.57284C14.5314 4.82482 14.3775 4.98886 14.1255 5.00746C13.9157 5.02269 13.7567 5.11062 13.6705 5.3068C13.5859 5.50297 13.6316 5.67885 13.7669 5.8412C13.9479 6.05766 13.9377 6.26229 13.7466 6.46185C13.6163 6.59714 13.4844 6.72905 13.3491 6.85927C13.1495 7.05206 12.9397 7.0622 12.7283 6.88294C12.5659 6.74596 12.3917 6.69861 12.1955 6.78316C11.9993 6.86772 11.9096 7.02331 11.8944 7.23639C11.8775 7.49006 11.7134 7.64395 11.4597 7.64903C11.2872 7.65241 11.1164 7.64903 10.9438 7.64903C10.592 7.64903 10.4584 7.53403 10.4161 7.18566C10.3907 6.97088 10.2757 6.8339 10.0744 6.76625C9.90695 6.71044 9.75641 6.75103 9.6194 6.85757C9.3437 7.07404 9.16609 7.06728 8.92083 6.81022C8.75168 6.63265 8.59945 6.43986 8.43538 6.25553C8.41339 6.23185 8.36941 6.21663 8.33558 6.21663C7.65223 6.21494 6.96888 6.21325 6.28722 6.21663C6.23986 6.21663 6.18066 6.24707 6.14514 6.28259C5.82376 6.59883 5.50915 6.92015 5.18608 7.2347C5.11504 7.30234 5.12688 7.35477 5.15732 7.43256C5.32816 7.87902 5.09643 8.361 4.64819 8.50644C4.21349 8.6468 3.73988 8.3982 3.61302 7.96189C3.47939 7.50866 3.74664 7.03176 4.21349 6.93875C4.3691 6.90662 4.54332 6.94044 4.70232 6.97765C4.78858 6.99794 4.83594 6.99625 4.89684 6.93368C5.23344 6.59206 5.57681 6.25384 5.91341 5.91223C5.99798 5.82598 6.08763 5.78877 6.20772 5.78877C6.95704 5.79215 7.70467 5.78708 8.45399 5.79385C8.60114 5.79385 8.65189 5.7262 8.67726 5.60613C8.73477 5.32878 8.56562 5.07173 8.28822 5.01592C7.86197 4.92967 7.83829 4.906 7.76556 4.49167L7.76725 4.49843ZM13.454 6.14222C12.9245 5.53848 13.2882 4.6388 14.1069 4.57791V3.97925C13.3034 3.9319 12.9161 3.02037 13.4523 2.41494C13.3085 2.27458 13.1664 2.13252 13.0176 1.98708C12.7351 2.23061 12.4069 2.31009 12.0433 2.16296C11.6745 2.01414 11.5003 1.7165 11.4648 1.32754C11.2889 1.32754 11.1265 1.33261 10.9658 1.32585C10.8728 1.32247 10.8491 1.36136 10.8373 1.44761C10.7848 1.82474 10.5683 2.07333 10.208 2.18833C9.86636 2.29995 9.56189 2.21201 9.3031 1.9837C9.15425 2.13083 9.01048 2.27289 8.86839 2.41494C9.3623 2.94427 9.1052 3.90484 8.21887 3.98601V4.57791C9.08998 4.74026 9.34877 5.37613 8.88024 6.13377C9.02401 6.28089 9.16609 6.42464 9.30648 6.56839C9.98307 6.06274 10.6123 6.32317 10.8677 7.22286H11.4665C11.5071 6.45508 12.3849 6.01539 13.0328 6.57177C13.1715 6.43141 13.3085 6.29273 13.454 6.1456V6.14222ZM5.70705 4.27689C5.70705 4.05704 5.53114 3.88285 5.31125 3.88624C5.09981 3.88793 4.92559 4.06042 4.92052 4.27013C4.91544 4.48321 5.09812 4.66924 5.31125 4.67262C5.52606 4.67431 5.70705 4.49505 5.70705 4.27689ZM4.79366 0.818505C4.79366 0.602039 4.61098 0.422778 4.39447 0.42616C4.18304 0.429543 4.00882 0.602039 4.00544 0.813432C4.00205 1.0299 4.17966 1.21254 4.39616 1.21254C4.61267 1.21254 4.79197 1.03328 4.79197 0.816814L4.79366 0.818505ZM4.79366 7.73189C4.79366 7.51374 4.61436 7.34124 4.39278 7.34462C4.17966 7.348 4.00882 7.51712 4.00544 7.7302C4.00205 7.94498 4.18473 8.12931 4.39785 8.131C4.61098 8.131 4.79366 7.94836 4.79197 7.73359L4.79366 7.73189Z" fill="#410EAD"/>
<path d="M2.7789 12.6648C2.77552 12.8187 2.64697 12.9404 2.49135 12.9371C2.3442 12.9337 2.22241 12.8102 2.22072 12.6648C2.21903 12.5126 2.34589 12.3857 2.49981 12.3857C2.65543 12.3857 2.78059 12.5109 2.77721 12.6648H2.7789Z" fill="#410EAD"/>
<path d="M7.23293 10.6877C7.38685 10.6894 7.50695 10.8163 7.50357 10.9719C7.50018 11.1291 7.37671 11.2441 7.21771 11.2374C7.06886 11.2323 6.95215 11.1105 6.95215 10.9617C6.95215 10.8078 7.07901 10.6844 7.23293 10.6861V10.6877Z" fill="#410EAD"/>
<path d="M11.1668 2.52002C12.1326 2.52171 12.9242 3.31655 12.9226 4.2805C12.9209 5.24276 12.1242 6.0376 11.1617 6.03929C10.1908 6.03929 9.40092 5.24276 9.40431 4.26866C9.40769 3.29964 10.1959 2.51833 11.1668 2.52171V2.52002ZM9.82886 4.27204C9.82717 5.00769 10.4175 5.60804 11.1516 5.61312C11.8857 5.61819 12.498 5.00769 12.4963 4.27543C12.4929 3.54316 11.8941 2.94619 11.1617 2.9445C10.426 2.9445 9.83225 3.5364 9.82886 4.27204Z" fill="#410EAD"/>
</svg>
