<svg width="15" height="16" viewBox="0 0 15 16" fill="none" xmlns="http://www.w3.org/2000/svg">
<path d="M6.74477 10.6701V9.94306C6.4614 9.8107 6.1743 9.70816 5.92076 9.55156C5.18437 9.09668 4.73321 8.433 4.55797 7.58103C4.54679 7.52696 4.49459 7.46544 4.44425 7.43934C4.15529 7.28647 4.00242 7.05344 4.00055 6.72532C4.00055 6.56872 3.99683 6.41212 4.00055 6.25739C4.00801 5.96843 4.13665 5.74471 4.39019 5.60862C4.47781 5.56202 4.50204 5.51168 4.50204 5.4166C4.49832 4.62988 4.49832 3.84315 4.50018 3.05643C4.50204 1.54823 5.49011 0.345771 6.96848 0.0530801C8.6165 -0.273168 10.2813 0.944204 10.4696 2.61459C10.4882 2.77492 10.4976 2.93711 10.4976 3.09744C10.5013 3.86739 10.4994 4.6392 10.4976 5.40914C10.4976 5.49863 10.5106 5.55456 10.6038 5.60303C10.8592 5.73726 10.9879 5.96097 10.9972 6.24993C11.0028 6.41212 11.0009 6.57245 10.9972 6.73464C10.9935 7.05716 10.8406 7.28461 10.5591 7.43748C10.505 7.4673 10.4509 7.53255 10.4379 7.59221C10.175 8.73315 9.49271 9.49191 8.38533 9.8629C8.27534 9.90018 8.23805 9.94493 8.24365 10.0568C8.25297 10.2432 8.24737 10.4315 8.24737 10.6198C8.24737 10.6291 8.25297 10.6403 8.26042 10.672C8.37228 10.644 8.48787 10.6254 8.59786 10.5881C10.0911 10.0698 10.9711 9.03143 11.2134 7.46544C11.275 7.06649 11.549 6.77752 11.9237 6.75515C12.291 6.73278 12.6471 6.97886 12.6937 7.34426C12.7235 7.57543 12.6862 7.82338 12.6377 8.05269C12.181 10.2041 10.5609 11.7719 8.40584 12.1671C8.35923 12.1765 8.31449 12.1858 8.2567 12.1988V13.0042C8.31076 13.0042 8.36669 13.0042 8.42075 13.0042C8.85326 13.0042 9.28578 13.0042 9.71829 13.0042C10.175 13.0061 10.492 13.323 10.4957 13.7816C10.4957 13.9438 10.4994 14.1041 10.4957 14.2663C10.4845 14.6765 10.1676 15.0008 9.75557 15.0008C8.2511 15.0046 6.74477 15.0046 5.2403 15.0008C4.82829 15.0008 4.50764 14.6765 4.49832 14.2682C4.49459 14.0911 4.49459 13.914 4.49832 13.7369C4.5095 13.3286 4.83016 13.0079 5.2403 13.0042C5.73433 12.9986 6.22836 13.0042 6.73545 13.0042V12.2063C6.49123 12.1485 6.23955 12.1075 5.99906 12.0273C3.87192 11.3189 2.6359 9.85171 2.28542 7.63882C2.21458 7.18766 2.50913 6.80362 2.94165 6.75515C3.36297 6.70668 3.71905 7.00869 3.77684 7.45985C3.97259 9.01279 5.08929 10.2712 6.60308 10.6403C6.64223 10.6496 6.68325 10.6552 6.74104 10.6664L6.74477 10.6701ZM6.74477 2.00498C6.67952 2.00498 6.62732 2.00498 6.57698 2.00498C6.15939 2.00498 5.74365 2.00311 5.32605 2.00684C5.27758 2.00684 5.20301 2.03294 5.1881 2.0665C5.13031 2.20259 5.09116 2.34614 5.03709 2.50833H6.73545V3.00796H5.0054V3.51131H6.73917V4.00907H5.00913V4.51243H6.73731V5.01578H5.00726V5.49677H9.99047V5.00646H8.25856V4.50311H9.98674V3.99975H8.25483V3.50199H9.98488V2.99864H8.25856V2.49901H9.95319C9.90844 2.35546 9.86743 2.23428 9.83201 2.10938C9.80777 2.02548 9.75744 2.00125 9.67168 2.00311C9.28578 2.00871 8.89987 2.00498 8.51583 2.00498C8.43007 2.00498 8.34245 2.00498 8.26229 2.00498V1.4923H9.47593C8.41329 0.0922299 6.37005 0.274929 5.5274 1.50908H6.74477V2.00498ZM7.49793 11.7551C8.747 11.7551 9.92895 11.2779 10.8238 10.3998C11.6087 9.628 12.0654 8.69027 12.2127 7.59967C12.2388 7.40392 12.1605 7.27901 12.0058 7.25664C11.8529 7.23613 11.7429 7.3424 11.7149 7.53069C11.6981 7.64441 11.6832 7.75813 11.6571 7.86812C11.26 9.53852 10.244 10.6571 8.5904 11.1008C6.94797 11.5407 5.51062 11.0859 4.34358 9.84612C3.73023 9.19362 3.39094 8.40131 3.27722 7.51391C3.25484 7.33121 3.12621 7.22495 2.97334 7.25664C2.82233 7.28833 2.75708 7.40951 2.78318 7.61272C3.09265 9.98408 5.10421 11.7533 7.49607 11.7533L7.49793 11.7551ZM9.92895 7.51205H5.06506C5.21047 8.46283 6.15379 9.51801 7.52217 9.50309C8.92411 9.48818 9.80404 8.38639 9.92895 7.51205ZM7.51285 6.00385C6.6124 6.00385 5.7101 6.00385 4.80965 6.00385C4.58407 6.00385 4.49832 6.09147 4.49645 6.31518C4.49645 6.42517 4.49645 6.5333 4.49645 6.64329C4.49645 6.93039 4.56916 7.0031 4.85626 7.0031C6.21531 7.0031 7.57437 7.0031 8.93529 7.0031C9.35662 7.0031 9.77981 7.0031 10.2011 7.0031C10.4043 7.0031 10.4957 6.90989 10.4976 6.70668C10.4994 6.58737 10.4976 6.46619 10.4976 6.34687C10.4976 6.08028 10.4193 6.00385 10.1545 6.00385C9.27459 6.00385 8.39465 6.00385 7.51471 6.00385H7.51285ZM7.48116 14.5049C8.21568 14.5049 8.95021 14.5049 9.68473 14.5049C9.90844 14.5049 9.99606 14.4173 9.99793 14.1917C9.99793 14.0724 9.99793 13.9513 9.99793 13.8319C9.99793 13.5877 9.91404 13.5038 9.66982 13.5038C8.99308 13.5038 8.31635 13.5038 7.63776 13.5038C6.86222 13.5038 6.08481 13.5038 5.30928 13.5038C5.08556 13.5038 4.99981 13.5915 4.99608 13.8152C4.99608 13.9345 4.99608 14.0557 4.99608 14.175C4.99608 14.4192 5.07997 14.5031 5.32419 14.5031C6.0438 14.5031 6.76155 14.5031 7.48116 14.5031V14.5049ZM7.25931 10.0064V10.741H7.73656V10.0064H7.25931ZM7.25558 12.9967H7.73656V12.2585H7.25558V12.9967Z" fill="#410EAD"/>
<path d="M1.49889 3.76089C1.49889 4.1673 1.15772 4.50474 0.751311 4.50474C0.335577 4.50474 -0.00185659 4.16357 7.68788e-06 3.74971C0.00187196 3.34143 0.339306 3.00772 0.747582 3.00586C1.16145 3.00586 1.49889 3.34329 1.49889 3.76089ZM0.743854 3.50548C0.609626 3.50921 0.499634 3.62293 0.501498 3.75716C0.501498 3.89698 0.62454 4.01257 0.764361 4.00511C0.898588 3.99765 1.00485 3.8802 0.999259 3.74598C0.993667 3.61175 0.878082 3.50362 0.743854 3.50735V3.50548Z" fill="#410EAD"/>
<path d="M14.9999 3.7501C14.9999 4.1677 14.6624 4.50514 14.2467 4.50327C13.8384 4.50327 13.5028 4.16584 13.501 3.75756C13.4991 3.34369 13.8366 3.00439 14.2542 3.00439C14.6606 3.00439 14.9999 3.34183 14.9999 3.74824V3.7501ZM14.243 4.00365C14.3772 4.00737 14.4928 3.89925 14.4984 3.76502C14.5058 3.6252 14.3884 3.50402 14.2486 3.50588C14.1143 3.50588 14.0025 3.61774 14.0006 3.75197C14.0006 3.8862 14.1087 3.99992 14.243 4.00365Z" fill="#410EAD"/>
<path d="M1.5121 5.50589C1.91851 5.50962 2.25408 5.85078 2.25035 6.25906C2.24662 6.67479 1.90546 7.01036 1.48973 7.00477C1.08145 6.99918 0.749608 6.65988 0.751473 6.2516C0.753337 5.83773 1.0945 5.50216 1.5121 5.50589ZM1.5065 6.00552C1.37228 6.00179 1.25669 6.11178 1.2511 6.24414C1.24551 6.37837 1.35177 6.49582 1.486 6.50328C1.62582 6.51074 1.747 6.39701 1.74886 6.25533C1.74886 6.1211 1.64073 6.00738 1.5065 6.00365V6.00552Z" fill="#410EAD"/>
<path d="M14.2504 6.25343C14.2504 6.67103 13.9093 7.0066 13.4954 7.00474C13.0871 7.00101 12.7534 6.66544 12.7534 6.25716C12.7534 5.84329 13.0927 5.50586 13.5103 5.50586C13.9167 5.50586 14.2542 5.84702 14.2523 6.25343H14.2504ZM13.7508 6.26089C13.7545 6.12666 13.6445 6.01108 13.5103 6.00735C13.3779 6.00176 13.2586 6.10989 13.253 6.24411C13.2456 6.38393 13.3593 6.50511 13.501 6.50698C13.6352 6.50698 13.7489 6.39698 13.7508 6.26276V6.26089Z" fill="#410EAD"/>
<path d="M1.50463 0.506266C1.9185 0.508131 2.25594 0.853022 2.24848 1.26689C2.24289 1.67517 1.90545 2.00514 1.49531 2.00328C1.0889 2.00328 0.751465 1.66398 0.751465 1.25757C0.751465 0.841836 1.09076 0.502538 1.50463 0.504402V0.506266ZM1.49531 1.50365C1.62954 1.50552 1.74326 1.39739 1.74885 1.26316C1.75258 1.12893 1.64632 1.01335 1.51209 1.00589C1.37227 0.998435 1.25109 1.11402 1.25109 1.25384C1.25109 1.38807 1.36108 1.49993 1.49531 1.50365Z" fill="#410EAD"/>
<path d="M14.2504 1.25158C14.2504 1.66731 13.913 2.00474 13.4973 2.00474C13.0909 2.00474 12.7534 1.66545 12.7534 1.25903C12.7534 0.843301 13.0927 0.504003 13.5066 0.505867C13.9149 0.507731 14.2504 0.843301 14.2504 1.25158ZM13.7508 1.2609C13.7545 1.12667 13.6445 1.01109 13.5103 1.00736C13.3705 1.00176 13.2512 1.11735 13.253 1.25903C13.253 1.39326 13.3649 1.50512 13.501 1.50512C13.6352 1.50512 13.7489 1.39513 13.7508 1.2609Z" fill="#410EAD"/>
<path d="M3.99531 2.50446V3.00222C3.65042 3.00222 3.30926 3.00222 2.9681 3.00036C2.93081 3.00036 2.88234 2.97985 2.85624 2.95375C2.60083 2.69648 2.34916 2.43548 2.09375 2.17075C2.20001 2.06449 2.31001 1.95636 2.43864 1.82959C2.63253 2.02534 2.82082 2.22482 3.02029 2.41311C3.07436 2.46344 3.16012 2.49886 3.23282 2.50259C3.48077 2.51378 3.73058 2.50632 3.99718 2.50632L3.99531 2.50446Z" fill="#410EAD"/>
<path d="M11.0049 3.00604V2.50641C11.2547 2.50641 11.5026 2.50082 11.7487 2.50828C11.8569 2.512 11.9333 2.47845 12.006 2.40015C12.1887 2.20813 12.3789 2.02356 12.5709 1.83154C12.6865 1.95459 12.7927 2.06644 12.9139 2.19694C12.7704 2.34049 12.6193 2.49336 12.4665 2.64437C12.0153 3.08434 12.2167 2.99672 11.5903 3.00604C11.4001 3.00977 11.2081 3.00604 11.0049 3.00604Z" fill="#410EAD"/>
<path d="M12.5559 5.67778C12.3919 5.50813 12.2222 5.3478 12.0693 5.17256C11.9575 5.04206 11.8344 4.99173 11.6648 5.00291C11.4523 5.01783 11.2397 5.00664 11.0142 5.00664V4.51074C11.3553 4.51074 11.7021 4.51074 12.047 4.51261C12.0843 4.51261 12.129 4.53684 12.157 4.56481C12.4086 4.81835 12.6585 5.07562 12.912 5.33662C12.802 5.44102 12.6901 5.54914 12.5541 5.67778H12.5559Z" fill="#410EAD"/>
<path d="M2.08594 5.31761C2.33202 5.07152 2.57624 4.82357 2.82419 4.58122C2.86148 4.54393 2.923 4.51224 2.9752 4.51037C3.31077 4.50478 3.6482 4.50665 3.99123 4.50665V5.00441C3.80107 5.00441 3.60905 5.01932 3.42262 5.00068C3.18959 4.97644 3.01808 5.04915 2.8708 5.23185C2.74216 5.39218 2.58556 5.532 2.43829 5.68673C2.31338 5.55623 2.20712 5.44438 2.08594 5.31574V5.31761Z" fill="#410EAD"/>
<path d="M3.99336 3.51318V3.99417H2.00977V3.51318H3.99336Z" fill="#410EAD"/>
<path d="M11.0088 3.99417V3.51318H12.9886V3.99417H11.0088Z" fill="#410EAD"/>
<path d="M9.01943 8.13116C8.65776 8.69417 8.16373 8.97568 7.51123 9.00737V8.51147C7.97171 8.48351 8.33338 8.28217 8.58692 7.88135C8.7286 7.96338 8.86656 8.04354 9.01943 8.13116Z" fill="#410EAD"/>
<path d="M6.65735 8.19824C6.79717 8.28213 6.9258 8.35857 7.07681 8.44992C7.02834 8.58788 6.97614 8.73702 6.91089 8.92158C6.70768 8.80227 6.52125 8.69228 6.32178 8.57483C6.45228 8.42941 6.55854 8.3101 6.65921 8.19824H6.65735Z" fill="#410EAD"/>
</svg>
