<svg width="15" height="15" viewBox="0 0 15 15" fill="none" xmlns="http://www.w3.org/2000/svg">
<path d="M15 4.18707C14.9436 4.38173 14.8173 4.52517 14.6756 4.6652C13.9242 5.41142 13.1746 6.16107 12.4283 6.91412C12.3788 6.96364 12.3361 7.0439 12.3361 7.1105C12.331 8.52611 12.3327 9.94172 12.3327 11.359V11.4598C12.3942 11.4632 12.4454 11.4683 12.4966 11.4683C12.9457 11.4683 13.3948 11.4683 13.8439 11.4683C14.2879 11.47 14.5116 11.6937 14.515 12.1343C14.5167 12.5202 14.5167 12.9061 14.515 13.2921C14.5116 13.7326 14.2879 13.9563 13.8457 13.958C13.3487 13.9597 12.8501 13.958 12.3327 13.958C12.3327 14.2056 12.3327 14.443 12.3327 14.6821C12.3327 14.9279 12.2644 14.998 12.0219 14.998C9.00457 14.998 5.98551 14.998 2.96816 14.998C2.73422 14.998 2.66421 14.9262 2.66421 14.6906C2.66421 14.2022 2.66421 13.7138 2.66421 13.2255C2.66421 13.0257 2.73934 12.9215 2.87937 12.9198C3.02451 12.9181 3.10306 13.0257 3.10306 13.234C3.10306 13.6199 3.10306 14.0058 3.10306 14.3918C3.10306 14.4396 3.10306 14.4891 3.10306 14.5489H11.8836V13.9597C11.7555 13.9597 11.6343 13.9597 11.5131 13.9597C11.1323 13.9563 10.7515 13.9649 10.3707 13.9461C10.0974 13.9324 9.87716 13.7155 9.86862 13.444C9.85326 12.9574 9.85326 12.4673 9.86862 11.9806C9.87716 11.7091 10.0992 11.5008 10.3741 11.482C10.6166 11.4649 10.8625 11.4717 11.1066 11.47C11.3611 11.47 11.6138 11.47 11.8802 11.47V7.52203C11.4704 7.93186 11.0435 8.36047 10.62 8.78396C10.6097 8.78396 10.6302 8.78396 10.6507 8.78908C10.7754 8.80787 10.8454 8.88129 10.8437 9.00595C10.8437 9.14085 10.7566 9.21086 10.6302 9.22111C10.4987 9.23135 10.3655 9.21599 10.2358 9.22965C10.1657 9.23648 10.0855 9.26551 10.0343 9.31161C9.8857 9.4431 9.74738 9.58654 9.5715 9.75901C9.84984 9.75901 10.0804 9.75901 10.3126 9.75901C10.4048 9.75901 10.4987 9.7573 10.5909 9.75901C10.7515 9.76413 10.8471 9.8478 10.8471 9.97929C10.8471 10.1125 10.7532 10.1962 10.5909 10.1962C10.1709 10.1979 9.7508 10.203 9.33073 10.1927C9.18899 10.1893 9.09678 10.2371 9.00116 10.3328C8.16101 11.178 7.31745 12.0182 6.4756 12.8634C6.3629 12.9761 6.24849 13.0615 6.07943 13.0393C6.05211 13.0359 6.01113 13.053 5.99234 13.0752C5.66619 13.485 5.20513 13.6302 4.72017 13.7292C4.61942 13.7497 4.51697 13.7651 4.41622 13.7685C4.18911 13.777 3.99785 13.6131 4.01664 13.3962C4.06103 12.8856 4.17544 12.3939 4.51184 11.9823C4.52721 11.9635 4.54087 11.943 4.55966 11.9277C4.67065 11.8338 4.75603 11.745 4.76116 11.5708C4.76286 11.4683 4.89435 11.3676 4.96778 11.2668C4.98485 11.2446 5.00534 11.2241 5.05145 11.1729C4.84824 11.1729 4.67577 11.1729 4.50331 11.1729C4.3906 11.1729 4.2779 11.1729 4.16691 11.1644C4.04737 11.1541 3.98078 11.0807 3.97565 10.9629C3.97224 10.8382 4.03713 10.7545 4.16349 10.7443C4.30864 10.7323 4.45549 10.7358 4.60235 10.7341C4.8619 10.7341 5.11975 10.7392 5.37931 10.7306C5.44932 10.7289 5.52958 10.6948 5.58252 10.6487C5.73279 10.5172 5.8711 10.3737 6.04016 10.2081C5.96502 10.203 5.92575 10.1962 5.88476 10.1962C5.35711 10.1962 4.82946 10.1962 4.30181 10.1962C4.25229 10.1962 4.20277 10.1996 4.15495 10.191C4.04737 10.1705 3.98078 10.1039 3.97565 9.99124C3.96882 9.87854 4.02347 9.8017 4.13105 9.77267C4.18569 9.7573 4.24716 9.7573 4.30522 9.7573C4.97461 9.7573 5.64399 9.75388 6.31167 9.75901C6.43632 9.75901 6.52 9.72315 6.60367 9.63435C6.72491 9.50286 6.86152 9.38504 7.02203 9.23135C6.92299 9.22623 6.87347 9.22282 6.82224 9.22282C5.98722 9.22282 5.1522 9.22282 4.31718 9.22282C4.25912 9.22282 4.19935 9.22282 4.143 9.20916C4.02859 9.18183 3.96882 9.10328 3.97736 8.98375C3.9859 8.86422 4.05762 8.79933 4.17374 8.78567C4.22155 8.78054 4.27107 8.78225 4.32059 8.78225C5.31613 8.78225 6.31337 8.78225 7.30891 8.78396C7.40966 8.78396 7.48309 8.75834 7.55139 8.68492C7.68288 8.54319 7.82461 8.4117 7.94756 8.24265H7.77851C6.62587 8.24265 5.47323 8.24265 4.32059 8.24265C4.25741 8.24265 4.19252 8.24265 4.13105 8.22899C4.02859 8.20508 3.97565 8.13165 3.97565 8.02749C3.97565 7.92332 4.02517 7.84648 4.12763 7.82087C4.19252 7.8055 4.26253 7.80379 4.33084 7.80379C5.64399 7.80379 6.95885 7.80208 8.27201 7.80379C8.38129 7.80379 8.46326 7.77647 8.54181 7.6945C8.95164 7.27614 9.36829 6.8646 9.78324 6.44965C9.81569 6.41721 9.84813 6.38135 9.90107 6.32329H9.74909C8.84064 6.32329 7.93219 6.32329 7.02374 6.32158C6.92982 6.32158 6.87518 6.35061 6.81883 6.42404C6.12042 7.31883 4.89435 7.63986 3.84075 7.201C3.73317 7.1566 3.66828 7.16514 3.59144 7.25223C3.46849 7.39055 3.3353 7.52033 3.19869 7.64669C3.12697 7.71158 3.10477 7.78159 3.10477 7.87722C3.10819 9.26892 3.10648 10.6606 3.10648 12.0523C3.10648 12.2777 3.03647 12.3853 2.88961 12.387C2.74105 12.3904 2.66762 12.2811 2.66762 12.0592C2.66762 10.8331 2.66762 9.60874 2.66762 8.38267V8.19313C2.61127 8.24435 2.5737 8.2768 2.53784 8.31266C2.0785 8.77201 1.62086 9.23306 1.1598 9.68899C0.808032 10.0356 0.282087 9.96904 0.0754662 9.55239C-0.0440666 9.31161 -0.02016 9.07938 0.13694 8.86251C0.179631 8.80445 0.232567 8.75151 0.283795 8.70029C1.0471 7.93698 1.80869 7.17197 2.57541 6.41379C2.67104 6.31987 2.67445 6.24986 2.61127 6.13716C2.12802 5.27652 2.12972 4.41076 2.60273 3.545C2.64201 3.47158 2.66421 3.38107 2.66421 3.2974C2.66762 2.30698 2.66933 1.31486 2.66421 0.324446C2.66421 0.187837 2.68811 0.0734273 2.81277 0H12.1893C12.302 0.0734273 12.3395 0.175884 12.3378 0.310785C12.3327 0.809408 12.3378 1.30632 12.3361 1.80495C12.3361 1.98937 12.2559 2.09012 12.1158 2.09012C11.9758 2.09012 11.8973 1.98937 11.8973 1.80324C11.8973 1.40366 11.8973 1.00237 11.8973 0.602787C11.8973 0.551559 11.8973 0.50033 11.8973 0.452517H3.11672V2.9166C3.58119 2.51531 4.10543 2.31723 4.70139 2.27625C4.70139 2.10719 4.69627 1.95009 4.70139 1.7947C4.70822 1.63248 4.78848 1.55563 4.95241 1.55393C5.15732 1.55051 5.36223 1.55222 5.56715 1.55393C5.73962 1.55393 5.83695 1.6376 5.83695 1.77421C5.83695 1.90911 5.7362 1.98937 5.56373 1.99278C5.42542 1.99278 5.28539 1.99278 5.13854 1.99278C5.13854 2.07475 5.14195 2.13452 5.13854 2.19257C5.13171 2.27966 5.17098 2.30528 5.25466 2.32065C6.19384 2.50678 6.84103 3.0498 7.20304 3.93434C7.22353 3.98557 7.25256 4.04533 7.29525 4.07778C7.69654 4.39027 8.09954 4.69593 8.50937 5.01014C8.9431 4.63446 9.37512 4.2622 9.80203 3.88311C9.83789 3.85067 9.85326 3.78065 9.85326 3.72772C9.85667 3.18982 9.85496 2.65363 9.85496 2.11573C9.85496 2.07816 9.84813 2.0406 9.84472 1.99278H9.67737C8.68183 1.99278 7.68459 1.99278 6.68905 1.99278C6.63953 1.99278 6.59001 1.9962 6.5422 1.98937C6.42096 1.97058 6.34582 1.89886 6.34582 1.7725C6.34582 1.64614 6.41925 1.57442 6.5422 1.55734C6.59001 1.55051 6.63953 1.55393 6.68905 1.55393C7.77338 1.55393 8.85772 1.55393 9.94205 1.55393C10.2443 1.55393 10.2955 1.60686 10.2955 1.91594C10.2955 3.18982 10.2955 4.46541 10.2955 5.73929C10.2955 5.79222 10.3007 5.84687 10.3058 5.93566C10.8385 5.40118 11.344 4.89743 11.8426 4.38856C11.8768 4.35441 11.8887 4.2844 11.8904 4.23146C11.8939 3.77724 11.8904 3.32301 11.8939 2.86879C11.8939 2.70486 11.9758 2.61094 12.1073 2.60752C12.2456 2.60411 12.331 2.70144 12.3327 2.8722C12.3344 3.10102 12.3327 3.33155 12.3327 3.56037C12.3327 3.66454 12.3327 3.76699 12.3327 3.88482C12.3652 3.86433 12.3754 3.86091 12.3822 3.85408C12.6589 3.57745 12.9338 3.30082 13.2121 3.02589C13.5315 2.70998 13.8952 2.70998 14.2162 3.02589C14.3665 3.17274 14.5099 3.32472 14.6636 3.46987C14.8105 3.60989 14.9402 3.75846 15 3.95654V4.19048V4.18707ZM6.93153 4.81547C6.90421 3.61502 5.94453 2.68949 4.75774 2.71852C3.57949 2.74755 2.6625 3.70723 2.68982 4.88719C2.71544 6.04836 3.68536 6.98926 4.82946 6.96023C6.01625 6.9312 6.95885 5.96981 6.93153 4.81547ZM13.0362 5.64878C12.734 5.34654 12.4283 5.04258 12.1329 4.74716C10.0462 6.83216 7.94756 8.93081 5.85744 11.0209C6.15627 11.3181 6.46194 11.6237 6.76077 11.9208C8.85089 9.83243 10.9478 7.73378 13.0345 5.64878H13.0362ZM12.7494 13.514C13.1507 13.514 13.54 13.5175 13.9276 13.514C14.0489 13.514 14.0762 13.4218 14.0762 13.3194C14.0762 12.9147 14.0779 12.5117 14.0762 12.107C14.0762 11.9482 14.0335 11.9106 13.873 11.9089C13.5861 11.9055 13.2975 11.9089 13.0106 11.9089C12.9253 11.9089 12.8399 11.9089 12.7511 11.9089V13.5175L12.7494 13.514ZM11.4208 11.9072C11.0913 11.9072 10.7754 11.9072 10.4595 11.9072C10.3433 11.9072 10.2989 11.9806 10.2989 12.0899C10.2989 12.5048 10.2989 12.9181 10.2989 13.333C10.2989 13.4628 10.3672 13.5175 10.4919 13.5158C10.6524 13.5158 10.8129 13.5158 10.9752 13.5158C11.1237 13.5158 11.2723 13.5158 11.4243 13.5158V11.9055L11.4208 11.9072ZM2.97328 6.63578C2.94767 6.65798 2.9323 6.66993 2.91864 6.6836C2.12802 7.47251 1.3391 8.26314 0.548475 9.05205C0.531399 9.06913 0.514323 9.08621 0.498954 9.10499C0.416989 9.21086 0.420404 9.32527 0.504077 9.40895C0.584335 9.4892 0.708991 9.4892 0.808032 9.40895C0.838769 9.38504 0.864383 9.35601 0.893413 9.32869C1.66696 8.55685 2.4388 7.7833 3.21064 7.01146C3.23967 6.98243 3.26699 6.94998 3.29773 6.91583C3.18503 6.8185 3.08257 6.73141 2.97328 6.63578ZM14.0215 4.69081C14.1769 4.53542 14.3374 4.38003 14.4911 4.21951C14.5833 4.12388 14.5799 4.0146 14.4877 3.92068C14.2811 3.70893 14.0711 3.49719 13.8576 3.29057C13.7671 3.20348 13.6595 3.20348 13.569 3.29057C13.4034 3.44767 13.2463 3.6116 13.0943 3.76358C13.4051 4.07436 13.7056 4.37661 14.0198 4.69252L14.0215 4.69081ZM7.40966 4.71984C7.33624 5.11259 7.26452 5.4951 7.1945 5.87419H8.91748C8.39666 5.47461 7.89804 5.09381 7.40966 4.71984ZM9.84813 4.42613C9.5049 4.72496 9.1907 4.99818 8.86626 5.27994C9.1002 5.45924 9.32731 5.62829 9.54589 5.80417C9.63639 5.8776 9.7286 5.90663 9.84643 5.86906V4.42613H9.84813ZM11.8768 11.9106V13.5055H12.2917V11.9106H11.8768ZM5.04291 12.1087C4.727 12.2965 4.42817 12.9539 4.49135 13.3194C4.93875 13.234 5.39126 13.1606 5.6679 12.7661C5.61325 12.691 5.57056 12.6329 5.5108 12.551C5.42029 12.6517 5.3537 12.7371 5.27685 12.8105C5.16927 12.9147 5.04291 12.9181 4.95241 12.8293C4.8602 12.7388 4.8602 12.6124 4.96607 12.5048C5.04291 12.4263 5.13512 12.3597 5.23246 12.2794C5.14878 12.2043 5.09926 12.1582 5.04291 12.107V12.1087ZM12.7699 4.12388C12.6725 4.21268 12.5701 4.3066 12.4983 4.37149C12.804 4.68569 13.1046 4.99477 13.3914 5.29018C13.4853 5.2031 13.5844 5.11259 13.6766 5.02721C13.3709 4.72155 13.067 4.42101 12.7682 4.12218L12.7699 4.12388ZM5.23246 11.6323C5.54324 11.9413 5.8489 12.247 6.14774 12.5424C6.23995 12.457 6.3424 12.3614 6.4312 12.2777C6.11871 11.9669 5.81304 11.663 5.50397 11.3539C5.41859 11.441 5.32296 11.5383 5.23246 11.6305V11.6323Z" fill="#410EAD"/>
<path d="M8.67324 3.72098C8.24804 3.71928 7.90481 3.37092 7.90823 2.94573C7.90994 2.52224 8.26512 2.17218 8.68519 2.1773C9.10868 2.18242 9.45874 2.53761 9.45362 2.95597C9.44849 3.38117 9.10014 3.72269 8.67495 3.72098H8.67324ZM8.68007 2.61957C8.50589 2.61957 8.35221 2.76814 8.34879 2.94231C8.34367 3.12332 8.49735 3.28042 8.67836 3.28042C8.85425 3.28042 9.00452 3.13527 9.00964 2.95768C9.01476 2.77838 8.85937 2.61957 8.68007 2.61787V2.61957Z" fill="#410EAD"/>
</svg>
