<svg width="15" height="16" viewBox="0 0 15 16" fill="none" xmlns="http://www.w3.org/2000/svg">
<path d="M7.50367 15.0024C3.36846 15.0024 -0.00977783 11.6217 2.12641e-05 7.4865C0.00982035 3.36109 3.37336 0.00244977 7.49633 0C11.634 0 15.0098 3.37824 15 7.5159C14.9902 11.6389 11.6266 15 7.50367 15.0024ZM14.3508 7.511C14.3508 3.72365 11.3057 0.656539 7.53797 0.654089C3.72613 0.64919 0.656561 3.69181 0.651661 7.47671C0.649211 11.2861 3.69428 14.3508 7.48408 14.3532C11.2886 14.3532 14.3508 11.3057 14.3508 7.511Z" fill="#410EAD"/>
<path d="M10.6518 9.35556C11.1662 9.27471 11.4994 8.97829 11.8326 8.68187C11.9134 8.61082 11.9746 8.49813 12.0677 8.45894C12.178 8.41239 12.3544 8.3683 12.4278 8.42219C12.5209 8.49078 12.5944 8.66717 12.5773 8.78476C12.5528 8.95624 12.4621 9.12773 12.3691 9.27961C11.7885 10.2424 11.0584 11.0704 10.1471 11.7294C9.70125 12.0528 9.68165 12.0479 9.25539 11.6804C9.08146 11.5334 8.90998 11.384 8.71889 11.2223C8.46167 11.4991 8.22404 11.7735 7.96681 12.0234C7.86147 12.1238 7.70224 12.2438 7.5773 12.234C6.36466 12.1213 5.22797 11.8053 4.3387 10.9014C4.3044 10.8671 4.26031 10.8377 4.24071 10.796C4.15007 10.5976 3.96878 10.3698 4.01288 10.2032C4.04718 10.0709 4.36075 10.0121 4.63512 9.87981C4.63512 9.41435 4.63512 8.83865 4.63512 8.26541C4.63512 7.69216 4.63512 7.10666 4.63512 6.41338C4.3632 6.59221 4.10842 6.6902 3.95653 6.87393C3.48128 7.44963 3.04767 8.05473 2.59936 8.65002C2.54792 8.71616 2.52832 8.81906 2.46707 8.86315C2.34948 8.94399 2.2025 9.05423 2.08246 9.03953C1.98937 9.02729 1.84483 8.83865 1.84973 8.73331C1.86443 8.30215 1.83993 7.8416 1.98447 7.44963C2.86394 5.0954 4.54693 3.56184 6.92811 2.79016C7.03835 2.75342 7.28088 2.83671 7.31272 2.92245C7.35927 3.04004 7.30047 3.23602 7.21963 3.35361C7.09959 3.53 6.91341 3.65983 6.77132 3.82152C6.54349 4.08364 6.45285 4.38252 6.56799 4.72303C7.0604 4.82103 7.07265 4.83817 7.07509 5.36243C7.07509 6.65346 7.07509 7.94694 7.07509 9.23797C7.07509 9.62503 7.21718 9.72547 7.592 9.60788C8.0844 9.45355 8.15055 9.36535 8.15055 8.8411C8.15055 7.91019 8.14075 6.98173 8.15544 6.05081C8.16279 5.6858 8.04765 5.40162 7.80268 5.1395C7.70714 5.03661 7.61404 4.78918 7.66549 4.71814C7.75123 4.603 7.98396 4.49276 8.11135 4.5295C8.57681 4.66669 8.88303 4.46581 9.27009 4.22818C9.93888 3.81662 10.691 3.5349 11.421 3.22867C11.5361 3.17968 11.7689 3.24827 11.8522 3.34381C11.9134 3.41486 11.8644 3.65003 11.7885 3.76027C11.4945 4.18653 11.1515 4.58095 10.8673 5.01456C10.7449 5.20319 10.6689 5.45797 10.664 5.68335C10.6444 6.88863 10.6542 8.09637 10.6542 9.34821L10.6518 9.35556ZM11.0854 9.99985C10.3112 10.1248 9.94868 9.86756 9.98787 9.12773C10.0344 8.24826 10.0075 7.36389 9.99522 6.48197C9.98542 5.69804 9.90458 4.90187 10.6052 4.29677C10.5636 4.26248 10.5244 4.22818 10.4827 4.19633C9.89233 4.603 9.30194 5.00966 8.71644 5.41632C8.73849 5.55351 8.78014 5.6956 8.78014 5.83523C8.78504 7.01847 8.78994 8.20416 8.77524 9.3874C8.77524 9.52459 8.70174 9.71322 8.5964 9.78182C8.31958 9.968 8.02071 10.1493 7.70714 10.2497C6.9722 10.4849 6.43571 10.0684 6.43571 9.30656C6.43571 8.26786 6.43571 7.22915 6.43571 6.19045C6.43571 5.83523 6.5386 5.44327 6.10254 5.22279C6.01679 5.17869 5.96045 5.02191 5.94575 4.90922C5.9041 4.6079 5.8943 4.30167 5.86981 4.0077C4.70372 4.47806 3.09421 6.11206 2.90313 6.96948C3.25835 6.66815 3.63807 6.26884 4.09127 5.98467C4.72821 5.58291 5.27451 5.92342 5.27696 6.6755C5.28186 7.72646 5.28921 8.77741 5.26961 9.82836C5.26471 10.0733 5.15692 10.3183 5.08343 10.6172C5.61503 11.0777 6.33771 11.3252 7.09224 11.5138C7.40092 11.5922 7.61649 11.5236 7.81003 11.2688C7.98396 11.0385 8.19954 10.8401 8.39062 10.6221C8.58171 10.4041 8.77034 10.4065 8.98347 10.5927C9.22355 10.8083 9.47587 11.0116 9.7527 11.2468C10.2133 10.8156 10.6493 10.4065 11.0878 9.9974L11.0854 9.99985Z" fill="#410EAD"/>
</svg>
