<svg width="15" height="15" viewBox="0 0 15 15" fill="none" xmlns="http://www.w3.org/2000/svg">
<path d="M7.67489 0C7.75914 0.0250469 7.84339 0.0478168 7.92536 0.0774177C8.41719 0.255023 8.74735 0.721805 8.75191 1.24324C8.75646 1.75328 8.43768 2.22917 7.95041 2.41133C7.83428 2.45459 7.81151 2.51152 7.81151 2.62309C7.81607 3.27203 7.81379 3.92098 7.81151 4.56992C7.81151 4.62912 7.81151 4.68832 7.80013 4.74525C7.77053 4.90008 7.63846 5.0071 7.49046 5.00255C7.34473 4.99799 7.22405 4.89553 7.19445 4.74525C7.18306 4.68832 7.18306 4.62912 7.18306 4.56992C7.18306 3.91187 7.18306 3.25382 7.18306 2.59349C7.18306 2.50469 7.16712 2.45687 7.07377 2.42272C6.54095 2.22006 6.20851 1.71457 6.2495 1.18631C6.29504 0.58974 6.67529 0.159389 7.26959 0.025047C7.2878 0.020493 7.30374 0.00910801 7.32196 0.00227704C7.43808 0.00227704 7.55649 0.00227704 7.67261 0.00227704L7.67489 0ZM8.12118 1.25234C8.12118 0.906242 7.84567 0.626172 7.50184 0.623895C7.16029 0.623895 6.88022 0.903965 6.87795 1.24779C6.87795 1.59389 7.15346 1.87396 7.49729 1.87396C7.84111 1.87396 8.11891 1.59617 8.12118 1.25007V1.25234Z" fill="#410EAD"/>
<path d="M14.9999 13.9441C14.9817 13.9988 14.9612 14.0511 14.9453 14.1058C14.7358 14.8025 13.9958 15.1669 13.3104 14.9141C12.641 14.6659 12.3154 13.8963 12.6114 13.2405C12.6592 13.1358 12.6455 13.0811 12.5681 13.006C12.1833 12.6303 11.8076 12.2478 11.4273 11.8675C11.3955 11.8356 11.3636 11.806 11.3363 11.7719C11.2179 11.6307 11.2224 11.4577 11.3476 11.337C11.4706 11.2163 11.6459 11.214 11.7825 11.337C11.9123 11.4554 12.033 11.5829 12.156 11.7081C12.4497 12.0019 12.7434 12.2933 13.0349 12.5893C13.0827 12.6394 13.1214 12.6645 13.1966 12.628C13.9685 12.25 14.8428 12.7328 14.9772 13.5229C14.9772 13.5365 14.9908 13.5479 14.9999 13.5593V13.9396V13.9441ZM13.126 13.7483C13.126 14.0899 13.4106 14.3745 13.7521 14.3745C14.0914 14.3745 14.3783 14.0876 14.3783 13.746C14.3783 13.4045 14.0937 13.1221 13.7521 13.1221C13.4106 13.1221 13.1282 13.4045 13.1282 13.7483H13.126Z" fill="#410EAD"/>
<path d="M1.87324 5.45109C1.87324 5.87006 1.87324 6.26398 1.87324 6.66017C1.87324 7.99676 1.87324 9.33563 1.87324 10.6722C1.87324 10.72 1.87552 10.7701 1.87097 10.818C1.85047 10.9842 1.70702 11.1049 1.54991 11.098C1.3928 11.0912 1.26984 10.9682 1.25618 10.8066C1.25162 10.7542 1.2539 10.6996 1.2539 10.6449C1.2539 8.85291 1.2539 7.06092 1.2539 5.26893C1.2539 5.18696 1.24707 5.10271 1.24707 5.02074C1.24707 4.86135 1.32221 4.7475 1.47022 4.69285C2.80225 4.20558 4.13429 3.7183 5.46633 3.23103C5.67126 3.15589 5.84203 3.21281 5.91262 3.37675C5.99004 3.55208 5.90807 3.72969 5.70314 3.8071C5.12251 4.02342 4.54187 4.23518 3.96124 4.44922C3.47624 4.62682 2.99124 4.80443 2.4812 4.99342C2.54951 5.02302 2.59732 5.04351 2.64514 5.06173C4.2322 5.64691 5.81926 6.2321 7.40633 6.81273C7.46097 6.83322 7.53384 6.83778 7.58621 6.81728C9.21198 6.22299 10.8355 5.62414 12.4567 5.02529C12.4704 5.02074 12.4817 5.00935 12.5113 4.98886C12.3907 4.94332 12.2814 4.90006 12.1721 4.86135C11.2203 4.51069 10.2685 4.16232 9.319 3.81166C9.12318 3.7388 9.03665 3.60218 9.07536 3.43596C9.12318 3.23103 9.30989 3.1445 9.53759 3.22647C10.1 3.4314 10.6624 3.64088 11.2248 3.84581C11.9899 4.12588 12.7527 4.40595 13.5178 4.68375C13.6817 4.74295 13.7568 4.85224 13.7568 5.02757C13.7546 6.89243 13.7523 8.75728 13.75 10.6221C13.75 10.6813 13.75 10.7405 13.7477 10.7975C13.7341 10.966 13.6043 11.0912 13.4426 11.0935C13.281 11.0935 13.1466 10.9705 13.1307 10.802C13.1261 10.7542 13.1307 10.7041 13.1307 10.6563C13.1307 8.9827 13.1307 7.30684 13.1307 5.63325V5.44426C12.7254 5.59226 12.3383 5.73571 11.9512 5.87916C10.6192 6.36872 9.2894 6.86055 7.95736 7.34782C7.86628 7.38198 7.81618 7.41386 7.81618 7.52998C7.82074 9.72272 7.81846 11.9132 7.81846 14.1059C7.81846 14.1401 7.82074 14.1742 7.82302 14.2243C7.87539 14.2061 7.92093 14.1947 7.96419 14.1788C8.85677 13.8509 9.74935 13.523 10.6419 13.1997C10.7239 13.1701 10.8241 13.1541 10.9083 13.1701C11.0472 13.1974 11.1224 13.3044 11.1315 13.4433C11.1406 13.5913 11.0654 13.7006 10.9311 13.753C10.7057 13.8441 10.4734 13.9238 10.2457 14.008C9.37592 14.3268 8.50839 14.6501 7.6363 14.9644C7.55661 14.994 7.44959 14.994 7.36989 14.9644C6.30199 14.5773 5.23636 14.1833 4.17072 13.7917C4.12974 13.7758 4.08875 13.7621 4.04777 13.7439C3.89293 13.6665 3.82918 13.5048 3.89293 13.35C3.95441 13.1951 4.1138 13.1132 4.27547 13.1701C4.65345 13.3021 5.02687 13.441 5.40258 13.5799C5.95133 13.7803 6.50008 13.983 7.05112 14.1833C7.08755 14.197 7.12398 14.2084 7.18546 14.2289C7.18546 14.1629 7.18546 14.1128 7.18546 14.0627C7.18546 11.895 7.18546 9.72728 7.18773 7.55958C7.18773 7.43663 7.14903 7.38425 7.03518 7.34327C5.35476 6.72848 3.67662 6.10914 1.99848 5.4898C1.96204 5.47614 1.92561 5.46475 1.87324 5.44881V5.45109Z" fill="#410EAD"/>
<path d="M1.25382 12.4732C1.43142 12.5233 1.61131 12.5598 1.78208 12.6258C1.86633 12.6577 1.91187 12.6463 1.97107 12.5871C2.35588 12.1977 2.74297 11.8129 3.13006 11.4258C3.17104 11.3848 3.21203 11.3416 3.25985 11.3074C3.38508 11.2186 3.53992 11.2323 3.64921 11.3347C3.75851 11.4372 3.78128 11.5943 3.6993 11.7218C3.66515 11.7742 3.61961 11.8197 3.57407 11.8653C3.19154 12.2501 2.809 12.6326 2.42419 13.0129C2.35588 13.0789 2.33539 13.129 2.37865 13.2246C2.6018 13.7074 2.50161 14.2607 2.13274 14.6318C1.77297 14.9939 1.21966 15.0986 0.75288 14.8937C0.272436 14.6842 -0.0235732 14.2037 0.00147372 13.6755C0.0333516 13.022 0.584383 12.5028 1.25609 12.471L1.25382 12.4732ZM1.25382 13.1245C0.912269 13.1245 0.627646 13.4022 0.623092 13.7438C0.618538 14.0831 0.903162 14.3722 1.24471 14.3745C1.58398 14.3791 1.87088 14.0945 1.87544 13.7529C1.87771 13.4114 1.59764 13.1267 1.25609 13.1245H1.25382Z" fill="#410EAD"/>
</svg>
