<svg width="15" height="15" viewBox="0 0 15 15" fill="none" xmlns="http://www.w3.org/2000/svg">
<path d="M0 5.65857C0.0250455 5.5553 0.0438295 5.4489 0.0720058 5.34563C0.187841 4.89498 0.422644 4.51319 0.763889 4.19711C0.835895 4.1314 0.86094 4.07194 0.848417 3.97179C0.745104 3.15187 1.19279 2.47278 1.98486 2.21929C2.03495 2.20365 2.0913 2.15045 2.10696 2.10037C2.46385 1.01445 3.19331 0.310323 4.31096 0.0724844C5.43488 -0.165355 6.38974 0.188275 7.15676 1.04262C7.16929 1.05826 7.18181 1.07078 7.20372 1.09895C7.24129 1.06765 7.2726 1.03949 7.30077 1.01132C9.02579 -0.703622 11.8872 -0.152837 12.8515 2.07847C12.8859 2.15983 12.9329 2.20052 13.0143 2.22242C14.589 2.66055 15.4061 4.30977 14.7988 5.8213C14.7675 5.90267 14.7706 5.959 14.8176 6.03411C15.1745 6.6068 14.9898 7.33596 14.4043 7.66456C14.3198 7.7115 14.2885 7.7647 14.276 7.85232C14.0067 9.53597 12.288 10.4466 10.7508 9.72374C10.7007 9.69871 10.6162 9.69871 10.5692 9.72374C9.25119 10.4654 7.85178 10.3371 6.69342 9.36385C6.67777 9.35134 6.66211 9.34195 6.6402 9.3263C6.56193 9.38576 6.48679 9.44835 6.40853 9.50468C5.14999 10.4185 3.34984 9.93655 2.72057 8.51264C2.67361 8.40624 2.61726 8.37494 2.50455 8.36869C1.31489 8.31236 0.281762 7.45801 0.0438295 6.34392C0.0313067 6.27821 0.0156535 6.21249 0 6.14677C0 5.98091 0 5.81504 0 5.64918V5.65857ZM5.05294 0.591975C3.82571 0.591975 2.87084 1.35556 2.63604 2.41958C2.57969 2.67307 2.52647 2.72314 2.26975 2.75756C1.6937 2.83267 1.28671 3.42101 1.45264 3.98431C1.52465 4.23467 1.46203 4.37549 1.26793 4.53197C0.366291 5.26113 0.356899 6.51291 1.23975 7.26399C1.68118 7.63952 2.20088 7.80538 2.78006 7.79912C3.02112 7.79599 3.09625 7.8492 3.17452 8.0839C3.63473 9.464 5.36288 9.84266 6.35531 8.77864C6.57132 8.54706 6.70281 8.54706 6.92509 8.77864C7.82986 9.73313 9.28876 9.89273 10.372 9.14792C10.5536 9.02274 10.7007 9.01648 10.8917 9.12914C12.1158 9.84892 13.6655 8.99458 13.7124 7.57693C13.7218 7.34848 13.775 7.2765 13.9911 7.20765C14.4106 7.06996 14.5483 6.59428 14.2666 6.26569C14.0599 6.02785 14.0599 6.01533 14.2008 5.72429C14.805 4.48502 14.0662 3.00792 12.7137 2.74817C12.5259 2.71375 12.432 2.61674 12.3662 2.44149C11.9749 1.42441 11.2392 0.79539 10.1654 0.62327C9.07901 0.44802 8.1805 0.829814 7.48549 1.68416C7.26634 1.95329 7.08163 1.94703 6.88752 1.65599C6.41792 0.954993 5.75421 0.610752 5.05294 0.582587V0.591975Z" fill="#410EAD"/>
<path d="M7.41357 15.0001C7.39165 14.9844 7.3666 14.9688 7.34469 14.95C7.23198 14.8655 7.18189 14.7559 7.22572 14.6213C7.26955 14.4867 7.36661 14.4115 7.51062 14.4146C7.64524 14.4146 7.73916 14.4898 7.77986 14.6213C7.82369 14.759 7.7736 14.8686 7.66089 14.95C7.63898 14.9656 7.61393 14.9813 7.59201 15.0001H7.4167H7.41357Z" fill="#410EAD"/>
<path d="M10.394 11.5361C10.394 10.8974 10.9106 10.3777 11.543 10.3809C12.1785 10.3809 12.692 10.9006 12.692 11.5392C12.692 12.1716 12.1785 12.6851 11.5493 12.6882C10.9137 12.6882 10.394 12.1748 10.394 11.5392V11.5361ZM10.9795 11.5298C10.9795 11.846 11.2299 12.0996 11.5399 12.1028C11.8467 12.1028 12.1003 11.8554 12.1034 11.5486C12.1097 11.2324 11.8623 10.9757 11.5493 10.9694C11.2393 10.9632 10.9795 11.2199 10.9764 11.533L10.9795 11.5298Z" fill="#410EAD"/>
<path d="M9.11031 14.3874C8.5593 14.3874 8.11475 13.9491 8.11475 13.3981C8.11475 12.8502 8.55931 12.3994 9.10718 12.3994C9.65192 12.3994 10.1059 12.8471 10.1059 13.3918C10.1059 13.9397 9.66131 14.3874 9.11344 14.3874H9.11031ZM9.5173 13.395C9.5173 13.1727 9.32946 12.9849 9.10718 12.9849C8.8849 12.9849 8.70019 13.1696 8.69706 13.395C8.69706 13.6204 8.87551 13.802 9.10405 13.802C9.32946 13.802 9.51417 13.6204 9.51417 13.395H9.5173Z" fill="#410EAD"/>
<path d="M6.62162 5.1175C6.62162 4.914 6.62162 4.70738 6.62162 4.50388C6.62162 4.30352 6.73746 4.1689 6.90965 4.16577C7.08183 4.16577 7.20706 4.29726 7.20706 4.49449C7.20706 5.07367 7.20706 5.65598 7.20706 6.23515C7.20706 6.40421 7.12566 6.51692 6.98165 6.55448C6.85329 6.58892 6.72807 6.52944 6.64354 6.38543C6.49326 6.12871 6.34612 5.87199 6.16454 5.62154C6.16454 5.7092 6.16454 5.79999 6.16454 5.88765C6.16454 6.0254 6.16767 6.16002 6.15828 6.29777C6.14889 6.45117 6.02679 6.56075 5.87965 6.56388C5.73877 6.56701 5.6198 6.46682 5.58849 6.32281C5.58223 6.28838 5.5791 6.25394 5.5791 6.22263C5.5791 5.65285 5.5791 5.07993 5.5791 4.51014C5.5791 4.49449 5.5791 4.48197 5.5791 4.46631C5.58849 4.31917 5.65737 4.21586 5.80451 4.17516C5.92974 4.13759 6.0581 4.19707 6.13636 4.32856C6.26785 4.55084 6.39621 4.77625 6.52457 4.99853C6.54962 5.03923 6.57466 5.07993 6.59658 5.12063C6.60597 5.12063 6.61223 5.1175 6.62162 5.11437V5.1175Z" fill="#410EAD"/>
<path d="M3.57219 5.3682C3.57219 5.24297 3.56906 5.11461 3.57219 4.98939C3.58785 4.52604 3.96353 4.16602 4.42687 4.16602C4.88708 4.16602 5.2659 4.53231 5.27529 4.99565C5.28155 5.24297 5.28155 5.49343 5.27529 5.74075C5.26277 6.20097 4.87769 6.56726 4.42061 6.56726C3.96666 6.56726 3.59098 6.2041 3.57219 5.75015C3.56906 5.62492 3.57219 5.49656 3.57219 5.37133V5.3682ZM4.69298 5.37133C4.69298 5.2555 4.69611 5.13653 4.69298 5.02069C4.68672 4.86103 4.57401 4.75145 4.42687 4.75145C4.2766 4.75145 4.16389 4.86103 4.16076 5.02069C4.1545 5.24924 4.1545 5.47778 4.16076 5.70632C4.16389 5.86598 4.27973 5.97869 4.42687 5.97869C4.57401 5.97869 4.68672 5.86598 4.69298 5.70632C4.69611 5.59361 4.69298 5.48404 4.69298 5.37133Z" fill="#410EAD"/>
<path d="M1.5844 5.36488C1.5844 5.24279 1.58127 5.12069 1.5844 4.99859C1.59692 4.57282 1.91938 4.22218 2.34829 4.16896C2.75528 4.11887 3.15914 4.39437 3.27184 4.79823C3.3282 5.00172 3.25619 5.16765 3.09026 5.21774C2.91494 5.26783 2.78032 5.18017 2.71145 4.97355C2.66136 4.82014 2.54552 4.73561 2.4109 4.7544C2.26376 4.77631 2.1761 4.88589 2.17297 5.05808C2.17297 5.26157 2.17297 5.4682 2.17297 5.67169C2.17297 5.84075 2.26376 5.95345 2.4109 5.97537C2.54552 5.99415 2.66136 5.91275 2.71458 5.75622C2.78345 5.54646 2.91807 5.46193 3.09339 5.51203C3.25932 5.55899 3.33133 5.72804 3.27497 5.93154C3.16227 6.3354 2.75841 6.61403 2.35142 6.56081C1.92251 6.50445 1.60005 6.15695 1.58753 5.73117C1.5844 5.60908 1.58753 5.48698 1.58753 5.36488H1.5844Z" fill="#410EAD"/>
<path d="M7.47014 5.36476C7.47014 5.24266 7.47014 5.12056 7.47014 4.99847C7.48266 4.56643 7.81452 4.21266 8.24655 4.16883C8.66294 4.12813 9.06366 4.41929 9.16071 4.82941C9.20454 5.01725 9.12628 5.17379 8.96974 5.21762C8.79756 5.26771 8.65667 5.17692 8.59406 4.98594C8.54084 4.81689 8.42813 4.73236 8.29038 4.75427C8.14637 4.77619 8.05871 4.88576 8.05558 5.05795C8.05558 5.26144 8.05558 5.46807 8.05558 5.67157C8.05558 5.84375 8.14637 5.95333 8.29038 5.97524C8.425 5.99403 8.54084 5.9095 8.59093 5.75296C8.65667 5.54947 8.79755 5.45868 8.97287 5.50877C9.1388 5.55886 9.21081 5.72166 9.15132 5.92828C9.03549 6.33527 8.63476 6.61077 8.2309 6.55755C7.79886 6.5012 7.48266 6.15682 7.47014 5.72792C7.46701 5.60582 7.47014 5.48372 7.47014 5.36163V5.36476Z" fill="#410EAD"/>
<path d="M10.0743 4.75156V5.07402C10.1526 5.07402 10.2309 5.07089 10.306 5.07402C10.4719 5.08341 10.594 5.20864 10.5909 5.36517C10.5909 5.51857 10.4782 5.64067 10.3185 5.65633C10.2434 5.66259 10.1651 5.65633 10.0774 5.65633C10.0743 5.71894 10.0712 5.7659 10.0681 5.81286C10.0681 5.85982 10.0681 5.90991 10.0681 5.98192C10.1776 5.98192 10.2778 5.98192 10.378 5.98192C10.5564 5.98818 10.6848 6.10714 10.6848 6.26994C10.6848 6.42961 10.5596 6.5611 10.3843 6.56736C10.1808 6.57362 9.97413 6.57362 9.77064 6.56736C9.59845 6.5611 9.48575 6.44839 9.48575 6.2762C9.48262 5.67198 9.48262 5.06462 9.48575 4.4604C9.48575 4.28195 9.60471 4.17238 9.78629 4.16925C9.98666 4.16299 10.187 4.16299 10.3874 4.16925C10.5627 4.17551 10.6911 4.30387 10.6879 4.46353C10.6879 4.6232 10.5564 4.74529 10.3811 4.75156C10.2841 4.75156 10.187 4.75156 10.0743 4.75156Z" fill="#410EAD"/>
<path d="M11.5337 5.66253C11.5337 5.87542 11.5368 6.06952 11.5337 6.26363C11.5306 6.38886 11.4742 6.48904 11.3521 6.53913C11.2425 6.58609 11.1298 6.57357 11.0547 6.48904C10.9983 6.42642 10.9545 6.32937 10.9545 6.24484C10.9451 5.6594 10.9482 5.07396 10.9514 4.48852C10.9514 4.27564 11.0641 4.16606 11.2801 4.16606C11.4304 4.16606 11.5838 4.15667 11.734 4.17859C12.1066 4.23807 12.3727 4.56366 12.3633 4.92682C12.3508 5.30877 12.0596 5.61557 11.6714 5.65314C11.6339 5.65627 11.5963 5.65627 11.5368 5.6594L11.5337 5.66253ZM11.5431 4.75776V5.05831C11.6933 5.0677 11.7841 5.00822 11.7685 4.90491C11.7528 4.77968 11.6683 4.73898 11.5431 4.75776Z" fill="#410EAD"/>
<path d="M13.4182 4.75763C13.4182 5.21471 13.4182 5.6624 13.4182 6.11322C13.4182 6.16644 13.4182 6.21966 13.4182 6.27288C13.4088 6.44194 13.2867 6.56404 13.1301 6.56404C12.9705 6.56404 12.8358 6.43881 12.8358 6.26349C12.8327 5.94103 12.8358 5.61857 12.8358 5.29611C12.8358 5.11766 12.8358 4.93608 12.8358 4.7545C12.7858 4.7545 12.7544 4.75137 12.72 4.74823C12.551 4.73258 12.432 4.60735 12.4351 4.45082C12.4351 4.29428 12.5603 4.16906 12.7294 4.16279C12.983 4.15653 13.2366 4.15966 13.4902 4.16279C13.6874 4.16279 13.822 4.28489 13.822 4.45708C13.822 4.62301 13.6968 4.73571 13.5027 4.74823C13.4839 4.74823 13.4651 4.74823 13.4244 4.7545L13.4182 4.75763Z" fill="#410EAD"/>
<path d="M9.79934 1.29618C10.6446 1.31809 11.421 1.88475 11.7091 2.69246C11.7811 2.89283 11.7216 3.05249 11.5557 3.11824C11.3897 3.18398 11.2426 3.09945 11.1612 2.89909C10.9107 2.26982 10.4474 1.93171 9.77429 1.88162C9.54575 1.86596 9.42366 1.76265 9.42992 1.57481C9.43618 1.3901 9.56767 1.28991 9.79934 1.29618Z" fill="#410EAD"/>
<path d="M9.06039 1.84711C9.06039 2.01303 8.93516 2.14452 8.76923 2.14452C8.6127 2.14452 8.48121 2.01616 8.47808 1.85963C8.47495 1.69996 8.6127 1.55908 8.77236 1.55908C8.9289 1.55908 9.05726 1.68744 9.06039 1.84711Z" fill="#410EAD"/>
</svg>
