<svg width="15" height="15" viewBox="0 0 15 15" fill="none" xmlns="http://www.w3.org/2000/svg">
<path d="M0 7.49711C0.0295527 7.47403 0.0472846 7.46537 0.062061 7.45094C1.51901 6.03117 2.97891 4.61427 4.43586 3.19161C4.47723 3.15121 4.51861 3.1339 4.57771 3.1339C5.1333 3.13967 5.68889 3.14256 6.24744 3.14833C6.27699 3.14833 6.30655 3.14833 6.3361 3.14833C6.35087 3.12524 6.3627 3.10504 6.37452 3.08484C6.65231 2.60581 6.93306 2.12678 7.21086 1.64775C7.2345 1.60735 7.26405 1.58715 7.30838 1.57561C9.09041 1.111 10.8754 0.646402 12.6574 0.1818C12.8732 0.124086 13.0918 0.0692571 13.3076 0.0115426C13.3253 0.00577116 13.343 0.00288573 13.3667 0C13.3785 0.0432859 13.3903 0.0808003 13.4021 0.1212C13.9282 2.03732 14.4572 3.95344 14.9862 5.86668C15.0039 5.93305 14.995 5.98211 14.9625 6.03694C14.6788 6.50154 14.3981 6.96903 14.1173 7.43363C14.1055 7.45383 14.0937 7.47691 14.0789 7.5C14.0907 7.5202 14.1025 7.5404 14.1144 7.55771C14.401 8.03386 14.6877 8.50712 14.9744 8.98038C15.0009 9.02366 15.0069 9.06406 14.9921 9.11312C14.5547 10.6916 14.1203 12.273 13.6859 13.8544C13.5854 14.2209 13.4849 14.5873 13.3815 14.9567C13.3785 14.9711 13.3726 14.9827 13.3667 15C13.346 14.9971 13.3253 14.9913 13.3046 14.9885C11.7679 14.5873 10.2341 14.1862 8.69736 13.788C8.23043 13.6668 7.76349 13.5427 7.29952 13.4244C7.25814 13.4129 7.2345 13.3955 7.21677 13.3609C6.93602 12.879 6.65527 12.3971 6.37452 11.9123C6.34792 11.8661 6.32132 11.8517 6.26813 11.8517C5.70072 11.8574 5.13035 11.8603 4.56294 11.8661C4.52156 11.8661 4.48905 11.8546 4.4595 11.8257C2.99369 10.3973 1.52492 8.96883 0.0591056 7.54329C0.0472845 7.53174 0.0325081 7.52309 0.00591067 7.50288L0 7.49711ZM11.1709 12.7722C11.1532 12.7376 11.1414 12.7203 11.1295 12.7001C10.2577 11.2284 9.38594 9.75952 8.51413 8.2878C8.49049 8.2474 8.46389 8.23297 8.41661 8.23297C6.67004 8.23297 4.92052 8.23297 3.17396 8.23297C3.15327 8.23297 3.13554 8.23297 3.10303 8.23586C3.12372 8.25606 3.13259 8.27049 3.14736 8.28492C4.24672 9.37861 5.34608 10.4694 6.44544 11.5631C6.47204 11.5891 6.50455 11.6064 6.54001 11.615C7.98218 11.9758 9.4214 12.3365 10.8606 12.6972C10.9581 12.7232 11.0586 12.7462 11.1709 12.7722ZM11.168 2.22778C11.1384 2.23355 11.1177 2.23644 11.1 2.24221C9.58099 2.62312 8.06198 3.00115 6.54297 3.38207C6.50455 3.39073 6.47204 3.40804 6.44249 3.4369C5.946 3.93036 5.44952 4.42382 4.95303 4.91728C4.35311 5.51462 3.75319 6.10908 3.15327 6.70643C3.1385 6.72085 3.12372 6.73817 3.10894 6.7526C3.10894 6.75548 3.1119 6.76125 3.11485 6.76414C3.1385 6.76414 3.16214 6.76414 3.18874 6.76414C4.92644 6.76414 6.66413 6.76414 8.39888 6.76414C8.41365 6.76414 8.42843 6.76414 8.44321 6.76414C8.4698 6.76414 8.48754 6.75837 8.49936 6.73528C8.50527 6.72374 8.51413 6.70931 8.52004 6.69777C9.39185 5.22893 10.2637 3.7601 11.1325 2.29127C11.1414 2.27395 11.1532 2.25664 11.168 2.22778ZM12.4712 12.0219C12.4712 12.0219 12.4801 12.0219 12.486 12.0219C12.4919 12.0046 12.5008 11.9844 12.5037 11.9671C12.9234 10.4983 13.346 9.03232 13.7656 7.56349C13.7775 7.5202 13.7775 7.48269 13.7656 7.4394C13.343 5.97057 12.9234 4.50462 12.5037 3.03578C12.4978 3.01847 12.4919 2.99827 12.4831 2.97807C12.4476 3.0127 9.82036 7.43651 9.79081 7.50866C10.6833 9.01212 11.5758 10.5185 12.4683 12.0248L12.4712 12.0219Z" fill="#410EAD"/>
</svg>
