<svg width="15" height="14" viewBox="0 0 15 14" fill="none" xmlns="http://www.w3.org/2000/svg">
<path d="M7.82375 11.8844V13.2999C8.01336 13.2999 8.19223 13.2999 8.37467 13.2999C8.6072 13.2999 8.74672 13.4068 8.7503 13.5784C8.75388 13.7501 8.61436 13.8667 8.3854 13.8667C6.9616 13.8667 5.53422 13.8667 4.11042 13.8667C3.8922 13.8667 3.75626 13.7566 3.75268 13.5914C3.74911 13.4197 3.88862 13.3063 4.114 13.3031C4.29645 13.3031 4.47889 13.3031 4.67207 13.3031V11.8876H4.46458C3.31982 11.8876 2.17505 11.8876 1.02671 11.8876C0.379204 11.8876 0 11.541 0 10.9515C0 8.84282 0 6.73091 0 4.62224C0 4.023 0.379203 3.68289 1.04102 3.68289C2.03554 3.68289 3.03363 3.68289 4.06034 3.68289C4.06034 3.61487 4.06034 3.55332 4.06034 3.49178C4.06034 2.63665 4.06034 1.78152 4.06034 0.926391C4.06034 0.349826 4.4467 0 5.07989 0C8.04913 0 11.0148 0 13.984 0C14.6065 0 14.9964 0.349826 14.9964 0.913434C14.9964 2.99943 14.9928 5.08543 15 7.17467C15 7.58604 14.8819 7.91643 14.5099 8.09782C14.6566 8.48328 14.8426 8.84606 14.932 9.22504C15.3112 10.8608 13.9661 12.5128 12.1345 12.7039C11.14 12.8075 10.2707 12.5549 9.51944 11.9653C9.47293 11.9297 9.41212 11.8908 9.35488 11.8908C8.84689 11.8844 8.34248 11.8876 7.82018 11.8876L7.82375 11.8844ZM8.91844 8.20471H8.6716C7.48748 8.20471 6.30336 8.20471 5.11925 8.20471C4.43239 8.20471 4.06392 7.86784 4.06392 7.23945C4.06392 6.30982 4.06392 5.37695 4.06392 4.44732V4.24326H3.85285C2.92273 4.24326 1.99261 4.24326 1.06249 4.24326C0.719056 4.24326 0.626043 4.32748 0.626043 4.64491C0.626043 6.2418 0.626043 7.83869 0.626043 9.43558V9.61373H8.43549C8.47484 9.11815 8.62151 8.66143 8.91844 8.20795V8.20471ZM8.44622 7.63787C8.75388 7.63787 9.04007 7.64111 9.32626 7.63463C9.38707 7.63463 9.4622 7.599 9.50871 7.55689C10.8109 6.51389 12.6318 6.51065 13.9304 7.55365C14.077 7.67026 14.2523 7.64434 14.331 7.47591C14.3632 7.40789 14.3704 7.32691 14.3704 7.25241C14.3704 5.64256 14.3704 4.03272 14.3704 2.42611C14.3704 2.37428 14.3632 2.32246 14.3596 2.27063H8.43907V7.63463L8.44622 7.63787ZM7.79871 7.63787V2.27063H4.68996V2.47146C4.68996 3.89667 4.68996 5.32513 4.68996 6.75034C4.68996 6.94469 4.68638 7.13904 4.68996 7.33339C4.69354 7.51478 4.80444 7.63463 4.99761 7.63463C5.92774 7.63787 6.85786 7.63463 7.79871 7.63463V7.63787ZM9.06511 9.79189C9.06153 11.1491 10.2385 12.2342 11.7231 12.2374C13.1791 12.2374 14.3704 11.162 14.3775 9.84371C14.3847 8.44765 13.2256 7.3593 11.7303 7.35606C10.2456 7.35606 9.06869 8.42821 9.06511 9.79189ZM8.43191 10.1968H0.626043C0.626043 10.4365 0.626043 10.6632 0.626043 10.8932C0.626043 11.2398 0.711901 11.3175 1.09468 11.3175C3.6239 11.3175 6.15669 11.3175 8.68591 11.3175H8.87551C8.72526 10.9418 8.58216 10.579 8.42833 10.1968H8.43191ZM14.3775 1.69083C14.3775 1.44465 14.3775 1.21791 14.3775 0.987935C14.3775 0.641348 14.2953 0.563608 13.9089 0.563608C10.9933 0.563608 8.08133 0.563608 5.16575 0.563608C5.10136 0.563608 5.03339 0.55713 4.97257 0.566848C4.82232 0.586282 4.70785 0.6705 4.70427 0.806543C4.68996 1.09806 4.70069 1.38959 4.70069 1.68759H14.3847L14.3775 1.69083ZM7.17267 13.2966V11.8973H5.33031V13.2966H7.17267Z" fill="#410EAD"/>
<path d="M11.387 3.39418C10.7359 3.39418 10.0848 3.39418 9.43375 3.39418C9.2191 3.39418 9.09032 3.30348 9.06528 3.148C9.04023 2.96985 9.18691 2.83057 9.41228 2.83057C9.97036 2.83057 10.532 2.83057 11.0901 2.83057C11.8521 2.83057 12.614 2.83057 13.376 2.83057C13.5907 2.83057 13.7195 2.92126 13.7445 3.07674C13.7731 3.25813 13.6193 3.39418 13.376 3.39418C12.7106 3.39418 12.0488 3.39418 11.3834 3.39418H11.387Z" fill="#410EAD"/>
<path d="M11.3939 4.52845C10.75 4.52845 10.106 4.52845 9.46209 4.52845C9.21168 4.52845 9.07216 4.42804 9.06501 4.25313C9.06143 4.07173 9.2081 3.96484 9.46567 3.96484C10.7607 3.96484 12.0557 3.96484 13.3507 3.96484C13.6011 3.96484 13.7442 4.06526 13.7478 4.24017C13.7514 4.42156 13.6047 4.52845 13.3471 4.52845C12.6961 4.52845 12.045 4.52845 11.3939 4.52845Z" fill="#410EAD"/>
<path d="M12.1882 5.09521C12.5853 5.09521 12.9823 5.09521 13.3794 5.09521C13.6084 5.09521 13.7479 5.20534 13.7479 5.37702C13.7479 5.54869 13.6084 5.65882 13.3794 5.65882C12.5853 5.65882 11.7911 5.65882 10.9969 5.65882C10.7679 5.65882 10.6284 5.54869 10.6284 5.37702C10.6284 5.20534 10.7679 5.09521 10.9969 5.09521C11.394 5.09521 11.7911 5.09521 12.1882 5.09521Z" fill="#410EAD"/>
<path d="M7.18708 3.68254C7.18708 4.15221 6.75779 4.53119 6.23549 4.52795C5.7275 4.52471 5.30895 4.13602 5.31252 3.67606C5.3161 3.20639 5.74539 2.82417 6.26411 2.83065C6.7721 2.83713 7.18708 3.21934 7.18708 3.68254ZM6.56103 3.67606C6.56103 3.52382 6.42151 3.3975 6.25338 3.3975C6.07808 3.3975 5.93141 3.5303 5.93857 3.68902C5.94572 3.84126 6.08882 3.96434 6.25695 3.9611C6.42509 3.95786 6.56103 3.8283 6.56103 3.67606Z" fill="#410EAD"/>
<path d="M6.25319 5.09516C6.45353 5.09516 6.65744 5.09193 6.85777 5.09516C7.05811 5.10164 7.18689 5.21825 7.18689 5.37697C7.18689 5.53569 7.05453 5.65553 6.8542 5.65877C6.44995 5.66201 6.04571 5.66201 5.64504 5.65877C5.4447 5.65877 5.31592 5.53569 5.31592 5.37697C5.31592 5.21501 5.44828 5.10164 5.64861 5.09516C5.84895 5.08869 6.05286 5.09516 6.25319 5.09516Z" fill="#410EAD"/>
<path d="M11.3406 11.2914C11.312 11.3465 11.2905 11.4016 11.2548 11.4501C11.1617 11.5797 11.033 11.6283 10.872 11.57C10.7146 11.5117 10.6287 11.3659 10.7003 11.2266C10.7754 11.0809 10.7253 10.9999 10.5929 10.9254C10.5536 10.9027 10.5214 10.8736 10.4928 10.8412C10.3676 10.6987 10.2638 10.5529 10.0098 10.6663C9.95259 10.6922 9.7773 10.5821 9.71648 10.4978C9.63778 10.3877 9.68786 10.2549 9.81307 10.1707C9.87389 10.1286 9.94901 10.1059 10.0206 10.0703V9.43865C9.70575 9.26373 9.6342 9.16332 9.70933 8.99813C9.78445 8.82969 9.92397 8.80378 10.2674 8.88476C10.4176 8.75519 10.5679 8.6321 10.7038 8.50254C10.736 8.47015 10.7468 8.39889 10.736 8.35678C10.6681 8.13976 10.7146 8.00371 10.8863 7.93893C11.0616 7.87091 11.2047 7.94217 11.3192 8.13652C11.3442 8.17863 11.405 8.22721 11.4515 8.23045C11.6518 8.24017 11.8522 8.23369 12.0632 8.23369C12.0919 8.17863 12.1205 8.12032 12.1527 8.06526C12.2385 7.9195 12.4103 7.86443 12.5641 7.92921C12.7108 7.99076 12.793 8.14299 12.7143 8.28552C12.6392 8.42804 12.675 8.50902 12.8109 8.58676C12.8789 8.62886 12.9326 8.69041 12.9898 8.74871C13.0399 8.80054 13.0864 8.8556 13.1329 8.90743C13.4763 8.8135 13.6373 8.83941 13.7053 8.98841C13.7876 9.16656 13.7053 9.28965 13.3905 9.45484C13.3905 9.63623 13.3869 9.81762 13.3905 9.99902C13.3905 10.0411 13.4262 10.0962 13.462 10.1156C13.7053 10.2452 13.7804 10.3683 13.7017 10.527C13.623 10.6857 13.4692 10.7181 13.1973 10.6339C13.1794 10.6274 13.1615 10.6242 13.1472 10.6209C12.9898 10.757 12.8288 10.8833 12.6857 11.0226C12.6571 11.0517 12.6607 11.1262 12.6786 11.1748C12.743 11.3724 12.6929 11.5085 12.5176 11.5765C12.3494 11.6413 12.1885 11.5765 12.1026 11.3918C12.0597 11.2979 12.0024 11.2785 11.8951 11.2882C11.7162 11.3011 11.5338 11.2914 11.3335 11.2914H11.3406ZM11.7341 8.77139C11.1403 8.76491 10.6502 9.19247 10.6359 9.73341C10.6216 10.2679 11.1152 10.7246 11.7162 10.7343C12.3029 10.744 12.7859 10.31 12.8002 9.75932C12.8145 9.2281 12.328 8.77786 11.7341 8.77139Z" fill="#410EAD"/>
<path d="M6.26764 10.4719C6.37138 10.4719 6.47512 10.4655 6.57887 10.4719C6.75416 10.4849 6.87221 10.6015 6.87579 10.7473C6.87579 10.893 6.75774 11.0226 6.58602 11.0291C6.36423 11.0388 6.14243 11.0388 5.92421 11.0291C5.74891 11.0226 5.63086 10.8995 5.63086 10.7537C5.63086 10.5983 5.75249 10.4817 5.93852 10.4687C6.04941 10.4622 6.16031 10.4687 6.27121 10.4687L6.26764 10.4719Z" fill="#410EAD"/>
<path d="M7.97068 1.41515C7.20869 1.41515 6.44671 1.41515 5.68472 1.41515C5.47008 1.41515 5.34129 1.32445 5.31625 1.16897C5.29121 0.99082 5.43788 0.854776 5.66326 0.851537C6.021 0.848298 6.37874 0.851537 6.73648 0.851537C7.89555 0.851537 9.05463 0.851537 10.2137 0.851537C10.3139 0.851537 10.4462 0.864494 10.4999 0.922798C10.5679 0.994059 10.6144 1.12362 10.5965 1.21756C10.5714 1.36008 10.4319 1.41515 10.2709 1.41515C9.73791 1.41515 9.20488 1.41515 8.66827 1.41515C8.43216 1.41515 8.19963 1.41515 7.96352 1.41515H7.97068Z" fill="#410EAD"/>
<path d="M11.7089 1.4119C11.6517 1.4119 11.5908 1.41837 11.5336 1.4119C11.3655 1.38598 11.2653 1.29529 11.2546 1.13981C11.2438 0.994048 11.3655 0.867722 11.5372 0.854766C11.6409 0.845048 11.7447 0.848287 11.8484 0.854766C12.0487 0.861244 12.1811 0.971375 12.1883 1.13009C12.1918 1.29529 12.0559 1.4119 11.8448 1.41837C11.7983 1.41837 11.7554 1.41837 11.7089 1.41837V1.4119Z" fill="#410EAD"/>
<path d="M13.2831 0.848633C13.301 0.848633 13.3224 0.848633 13.3403 0.848633C13.6051 0.848633 13.7482 0.949045 13.7482 1.13044C13.7482 1.31183 13.6015 1.41224 13.3403 1.41224C13.2759 1.41224 13.2115 1.41224 13.1436 1.41224C12.9432 1.40252 12.8145 1.28915 12.8145 1.13044C12.8145 0.96848 12.9432 0.85835 13.1436 0.848633C13.1901 0.848633 13.233 0.848633 13.2795 0.848633H13.2831Z" fill="#410EAD"/>
<path d="M11.7157 10.1809C11.4689 10.1809 11.2578 9.98654 11.2578 9.76304C11.2578 9.53306 11.4832 9.33547 11.7336 9.34195C11.984 9.34843 12.1879 9.54602 12.1808 9.76952C12.1736 9.99302 11.959 10.1841 11.7121 10.1809H11.7157Z" fill="#410EAD"/>
</svg>
