<svg width="15" height="17" viewBox="0 0 15 17" fill="none" xmlns="http://www.w3.org/2000/svg">
<path d="M7.53284 0C7.60641 0.0491292 7.67735 0.100844 7.75617 0.142216C10.113 1.48163 12.4724 2.82364 14.8318 4.16047C14.9527 4.23028 15 4.30268 15 4.44232C14.9947 7.15735 14.9947 9.87497 15 12.59C15 12.7219 14.9632 12.7969 14.845 12.8641C12.4409 14.2242 10.0394 15.5895 7.63794 16.9573C7.5381 17.0142 7.46453 17.0142 7.36469 16.9573C4.96059 15.5869 2.55386 14.219 0.144508 12.8538C0.0367838 12.7943 0 12.7271 0 12.6081C0.00262743 9.88014 0.00525486 7.15476 0 4.4268C0 4.29493 0.0446664 4.23287 0.155018 4.17081C2.54335 2.81847 4.93169 1.46095 7.31739 0.10343C7.36994 0.0749866 7.41724 0.0362005 7.46453 0C7.48818 0 7.5092 0 7.53284 0ZM6.99422 1.43768C6.9154 1.47905 6.86022 1.50491 6.80767 1.53335C4.92118 2.60385 3.03731 3.67693 1.15081 4.74485C1.04309 4.80432 1.00631 4.86896 1.00631 4.99049C1.01156 7.14184 1.00893 9.29059 1.00893 11.4419C1.00893 11.4936 1.00893 11.5479 1.00893 11.6229C1.08776 11.5816 1.14293 11.5557 1.19285 11.5273C1.91014 11.1213 2.6248 10.7128 3.34472 10.3094C3.46033 10.2447 3.50762 10.1749 3.50762 10.0379C3.50236 8.83033 3.50762 7.6202 3.49974 6.41265C3.49974 6.28595 3.53915 6.21872 3.65213 6.15408C4.72675 5.54901 5.79874 4.93878 6.8681 4.32596C6.92328 4.29493 6.98896 4.2277 6.98896 4.17598C6.99685 3.27356 6.99422 2.36854 6.99422 1.43509V1.43768ZM8.00315 1.43768V1.60316C8.00315 2.43577 8.00578 3.2658 8.00053 4.09841C8.00053 4.22253 8.04519 4.282 8.15029 4.34147C9.21965 4.94395 10.2838 5.55419 11.3531 6.15667C11.4609 6.21614 11.4976 6.28078 11.4976 6.40231C11.4924 7.62278 11.4976 8.84067 11.4924 10.0611C11.4924 10.1672 11.516 10.2292 11.6159 10.2861C12.3699 10.7076 13.1188 11.1368 13.8676 11.5635C13.8991 11.5816 13.9359 11.5945 13.9884 11.6178V11.4704C13.9884 9.30352 13.9884 7.13666 13.9911 4.96722C13.9911 4.85345 13.9464 4.80432 13.8544 4.75002C11.9522 3.67176 10.0525 2.59092 8.15292 1.51266C8.11088 1.48939 8.06621 1.4687 8.00315 1.43768ZM13.4761 12.4917C13.4419 12.4659 13.4209 12.4504 13.3973 12.4349C12.6274 11.9979 11.8576 11.5609 11.0904 11.1187C10.9932 11.0618 10.9354 11.1032 10.8644 11.1446C9.79769 11.7496 8.73095 12.3547 7.66684 12.9675C7.54335 13.0399 7.45402 13.0348 7.33316 12.9649C6.26905 12.3547 5.19968 11.7496 4.13557 11.142C4.04099 11.0877 3.97267 11.0851 3.87809 11.142C3.13452 11.5686 2.38833 11.9901 1.64477 12.4142C1.60799 12.4349 1.57383 12.4607 1.53179 12.4892C1.57383 12.515 1.60799 12.5357 1.64214 12.5564C3.55491 13.645 5.47031 14.731 7.38308 15.8222C7.48292 15.8791 7.55386 15.8636 7.64319 15.8118C9.06989 14.9999 10.4966 14.188 11.9233 13.3761C12.4383 13.0839 12.9559 12.7891 13.4813 12.4917H13.4761ZM4.51655 7.39007C4.50867 7.44695 4.50342 7.4754 4.50342 7.50125C4.50342 8.37007 4.50079 9.23888 4.50867 10.1103C4.50867 10.1672 4.57173 10.2473 4.6269 10.2783C5.3731 10.7102 6.12454 11.1342 6.87336 11.5583C6.90489 11.5764 6.94167 11.5893 6.97583 11.6048C6.98371 11.5842 6.99159 11.5738 6.99159 11.566C6.99159 10.674 6.99422 9.78188 6.98896 8.89239C6.98896 8.83809 6.92853 8.76569 6.87861 8.73724C6.43983 8.48125 5.99317 8.23044 5.55176 7.97962C5.21545 7.78827 4.88177 7.59951 4.51918 7.39265L4.51655 7.39007ZM8.00315 11.6074C8.04256 11.5997 8.0557 11.5997 8.06358 11.5945C8.84393 11.1523 9.62165 10.7128 10.3967 10.2628C10.4467 10.2344 10.4861 10.1413 10.4887 10.0767C10.494 9.23371 10.494 8.39334 10.4913 7.55038C10.4913 7.50384 10.4834 7.45988 10.4782 7.403C10.4362 7.4211 10.4151 7.42885 10.3967 7.4392C9.63216 7.8736 8.8702 8.31059 8.10299 8.73983C8.00841 8.79154 8.00315 8.85619 8.00315 8.94152C8.00315 9.6164 8.00315 10.2939 8.00315 10.9687C8.00315 11.1782 8.00315 11.3876 8.00315 11.6074ZM9.98423 6.5316C9.92118 6.49281 9.88439 6.46954 9.84498 6.44627C9.10405 6.02479 8.36311 5.60849 7.62743 5.18184C7.53021 5.12754 7.46453 5.12754 7.36994 5.18184C6.63689 5.60332 5.90121 6.01962 5.16553 6.43593C5.11823 6.46178 5.07357 6.49023 5.01314 6.52901C5.77772 6.96342 6.52654 7.37972 7.26484 7.81413C7.43825 7.91497 7.55912 7.91756 7.7299 7.81413C8.46821 7.37972 9.21702 6.96342 9.98161 6.52901L9.98423 6.5316Z" fill="#410EAD"/>
</svg>
