<svg width="15" height="10" viewBox="0 0 15 10" fill="none" xmlns="http://www.w3.org/2000/svg">
<path d="M7.53293 0.00221334C8.22441 0.00221334 8.91633 0.0105691 9.6078 0.000542192C12.0769 -0.0353875 14.1924 1.71848 14.4973 4.04932C14.6421 5.15521 14.8097 6.259 14.9755 7.36238C15.1387 8.44779 14.4731 9.47513 13.3535 9.8478C12.0894 10.2685 10.8231 9.79724 10.2184 8.67883C9.93946 8.16328 9.66233 7.64647 9.39057 7.12758C9.34587 7.04193 9.29849 7.00517 9.19166 7.00559C8.06484 7.00935 6.93845 7.00935 5.81163 7.00559C5.71374 7.00559 5.66546 7.03525 5.62255 7.11672C5.33202 7.66736 5.04819 8.22219 4.73799 8.76322C4.27358 9.57373 3.53339 10.0003 2.55138 9.99026C1.55194 9.97982 0.770176 9.57122 0.28029 8.73732C0.0407105 8.32956 -0.0437681 7.88002 0.0210435 7.42087C0.196258 6.1767 0.360746 4.93044 0.581105 3.69337C0.909633 1.85176 2.60904 0.333519 4.59272 0.0640459C4.87297 0.0260272 5.15859 0.00806237 5.44153 0.00472007C6.13881 -0.00363568 6.83565 0.00179555 7.53293 0.00179555V0.00221334ZM12.4725 9.0164C12.5511 9.00637 12.6682 8.99885 12.7822 8.97629C13.4978 8.83299 14.0204 8.19085 13.9207 7.56083C13.7271 6.34005 13.5367 5.11886 13.3204 3.90184C13.0258 2.24197 11.4704 1.01326 9.66948 1.0049C8.2025 0.998219 6.73553 0.996966 5.2681 1.00532C3.52668 1.01535 1.93947 2.24824 1.65027 3.84962C1.44913 4.96344 1.30878 6.08687 1.14608 7.20696C1.11569 7.41753 1.0701 7.63519 1.09736 7.842C1.17782 8.45322 1.68469 8.91237 2.33772 9.00637C2.9997 9.10205 3.524 8.84009 3.83822 8.25435C4.18061 7.61681 4.52344 6.97968 4.86135 6.34005C4.98293 6.10985 5.16574 6.00373 5.446 6.00499C6.81822 6.01125 8.19044 6.01042 9.56265 6.0054C9.859 6.00415 10.0561 6.1157 10.1866 6.36428C10.5272 7.01394 10.8745 7.6611 11.2254 8.30616C11.4753 8.76531 11.8847 8.99593 12.4729 9.0164H12.4725Z" fill="#410EAD"/>
<path d="M5.36214 3.00509C5.55077 3.00509 5.72196 3.00258 5.8936 3.00551C6.22436 3.01094 6.43176 3.20396 6.43265 3.50267C6.43354 3.80265 6.22749 3.99859 5.89896 4.00527C5.72687 4.00862 5.55479 4.00569 5.36214 4.00569C5.36214 4.17072 5.36348 4.32488 5.36214 4.47946C5.35857 4.81077 5.15385 5.00922 4.82085 5.00671C4.49545 5.0042 4.29566 4.80743 4.29163 4.48406C4.28984 4.33324 4.29163 4.182 4.29163 4.00611C4.11105 4.00611 3.93539 4.00903 3.75973 4.00569C3.36371 3.99817 3.13128 3.6936 3.24794 3.3389C3.31633 3.13252 3.48842 3.01261 3.73828 3.00676C3.91572 3.00258 4.09317 3.00593 4.29163 3.00593C4.29163 2.8409 4.29029 2.68632 4.29163 2.53215C4.29476 2.20085 4.49903 2.0024 4.83247 2.00491C5.15787 2.00741 5.35812 2.20377 5.36214 2.52714C5.36393 2.67796 5.36214 2.8292 5.36214 3.00593V3.00509Z" fill="#410EAD"/>
<path d="M10.1847 2.00391C10.5033 2.00517 10.7179 2.20821 10.7166 2.50693C10.7152 2.80481 10.4975 3.00577 10.1784 3.00451C9.8597 3.00326 9.64515 2.80022 9.64649 2.50108C9.64783 2.20278 9.86462 2.00266 10.1847 2.00391Z" fill="#410EAD"/>
<path d="M9.64571 3.5079C9.64437 3.80578 9.42714 4.00674 9.10755 4.00549C8.78885 4.00423 8.5743 3.80161 8.5752 3.50247C8.57654 3.20417 8.79288 3.00405 9.11291 3.00489C9.43205 3.00614 9.6466 3.20877 9.64526 3.50748L9.64571 3.5079Z" fill="#410EAD"/>
<path d="M11.2595 4.00503C10.9395 4.00795 10.7204 3.80867 10.7173 3.5112C10.7142 3.21123 10.927 3.00735 11.2452 3.00443C11.5657 3.0015 11.7847 3.20079 11.7874 3.49783C11.7905 3.79697 11.5769 4.0021 11.2595 4.00461V4.00503Z" fill="#410EAD"/>
<path d="M10.7166 4.50254C10.7179 4.80126 10.5029 5.00472 10.1847 5.00598C9.86506 5.00723 9.64783 4.80669 9.64649 4.50839C9.64515 4.20926 9.85925 4.00663 10.1784 4.00538C10.4984 4.00412 10.7152 4.20466 10.7166 4.50254Z" fill="#410EAD"/>
</svg>
