<svg width="17" height="15" viewBox="0 0 17 15" fill="none" xmlns="http://www.w3.org/2000/svg">
<path d="M2.82999 4.39965C2.82999 4.23175 2.84649 4.07776 2.82307 3.93043C2.81136 3.85705 2.73522 3.78533 2.67347 3.73141C2.04312 3.17546 1.78918 2.47164 1.96699 1.63272C2.14374 0.799924 2.66069 0.272335 3.44809 0.0621893C4.32865 -0.172418 5.24915 0.274003 5.67346 1.1107C6.10416 1.96017 5.9306 2.98978 5.24648 3.63745C4.96698 3.90208 4.94356 3.97713 5.01649 4.39631C5.07186 4.39965 5.12989 4.40632 5.18845 4.40632C5.84488 4.40687 6.50078 4.40632 7.1849 4.40632C7.1849 4.02161 7.1849 3.65691 7.1849 3.29166C7.1849 2.93029 7.24133 2.85858 7.60176 2.78241C7.60176 2.65899 7.60176 2.52946 7.60176 2.39992C7.60176 1.98352 7.59909 1.56768 7.60282 1.15128C7.60548 0.853294 7.71994 0.730431 8.00051 0.727096C8.33911 0.722648 8.67824 0.722092 9.01683 0.727096C9.28622 0.730987 9.40388 0.854406 9.40654 1.13794C9.4108 1.60938 9.40814 2.08137 9.40814 2.55281C9.40814 2.62786 9.40814 2.70291 9.40814 2.77296C9.78986 2.87692 9.82499 2.92418 9.82499 3.32001C9.82499 3.67248 9.82499 4.02494 9.82499 4.40576H10.0747C11.3636 4.40576 12.6525 4.42411 13.9414 4.39909C14.8028 4.38241 15.4512 4.75767 15.9559 5.44982C16.4537 6.13307 16.7188 6.92195 16.8535 7.75753C17.1352 9.50097 17.025 11.2116 16.3978 12.8672C16.1636 13.4854 15.8415 14.0502 15.3512 14.4905C14.5973 15.1671 13.6848 15.1693 12.9245 14.4989C12.5263 14.1481 12.233 13.7106 12.0205 13.2202C11.6835 12.4419 11.1171 12.0855 10.3036 12.0944C9.09456 12.1083 7.88552 12.105 6.67647 12.0955C5.88801 12.0894 5.33326 12.4425 5.00318 13.193C4.78491 13.6889 4.49476 14.1347 4.09334 14.4928C3.33788 15.1666 2.42218 15.1705 1.66726 14.4961C1.07259 13.9652 0.718551 13.2675 0.483236 12.5075C-0.121553 10.5539 -0.189166 8.58811 0.454488 6.62842C0.573742 6.26594 0.75635 5.91737 0.959189 5.59659C1.39202 4.91111 1.98243 4.45913 2.82946 4.39854L2.82999 4.39965ZM4.99254 5.08401C4.99254 5.35809 5.00691 5.60771 4.98828 5.85455C4.97177 6.07081 5.04098 6.19756 5.21614 6.32376C6.22767 7.05316 6.47842 8.50305 5.79324 9.56713C5.10008 10.6434 3.72014 10.9409 2.68092 10.2381C1.30098 9.30472 1.29779 7.20882 2.67347 6.26038C2.73416 6.21869 2.81987 6.15142 2.82254 6.09249C2.83691 5.76282 2.82946 5.43203 2.82946 5.08846C2.38864 5.11737 2.05963 5.31973 1.77693 5.61883C1.43461 5.9813 1.20355 6.41827 1.05289 6.89638C0.506661 8.62536 0.552979 10.3616 1.03745 12.0928C1.22485 12.7632 1.50701 13.3914 1.99787 13.8879C2.57231 14.4694 3.21863 14.4789 3.76432 13.8718C4.02785 13.5788 4.25146 13.2286 4.42448 12.8678C4.89298 11.891 5.633 11.4129 6.67061 11.414C7.87274 11.4151 9.0754 11.4229 10.2775 11.4117C11.3668 11.4017 12.1462 11.8848 12.6067 12.9239C12.7867 13.3297 13.023 13.6983 13.3552 13.9885C13.8599 14.4299 14.4067 14.4322 14.9055 13.9846C15.0551 13.8501 15.2053 13.7 15.307 13.5265C15.5034 13.1913 15.7031 12.8494 15.8367 12.4842C16.3792 11.0042 16.4574 9.47317 16.2168 7.91987C16.1023 7.18158 15.8809 6.47887 15.4438 5.87067C15.0663 5.34586 14.5835 5.07234 13.9292 5.07567C11.0394 5.09124 8.15011 5.08234 5.26033 5.08234C5.18153 5.08234 5.10221 5.08234 4.99254 5.08234V5.08401ZM5.25341 2.10138C5.2582 1.3264 4.66778 0.695407 3.92564 0.682064C3.19308 0.669278 2.57178 1.30138 2.56486 2.06747C2.55741 2.85246 3.15528 3.49124 3.90328 3.4968C4.63956 3.50236 5.24808 2.87303 5.25287 2.10138H5.25341ZM2.83212 7.01369C2.3189 7.47845 2.16078 8.24732 2.41579 8.89444C2.67453 9.551 3.34108 9.9902 3.99644 9.93571C4.72634 9.87456 5.30185 9.37366 5.47701 8.66428C5.63513 8.02383 5.36148 7.27331 4.99094 7.04704C4.99094 7.20159 4.99626 7.34503 4.98987 7.48846C4.96166 8.11779 4.49689 8.58756 3.907 8.58644C3.31552 8.58533 2.85608 8.11556 2.83265 7.48457C2.82733 7.34114 2.83212 7.1977 2.83212 7.01424V7.01369ZM3.49387 4.1567C3.49121 4.18005 3.48216 4.22008 3.48216 4.26011C3.48163 5.31917 3.48003 6.37824 3.48269 7.43731C3.48323 7.71973 3.65891 7.91209 3.90221 7.91542C4.1503 7.91876 4.32918 7.73697 4.33078 7.44954C4.33504 6.57783 4.33078 5.70555 4.32919 4.83384C4.32919 4.60368 4.32919 4.37352 4.32919 4.15726H3.49387V4.1567ZM7.84239 4.37352H9.1659V3.51014H7.84239V4.37352ZM8.74212 1.42981H8.27522V2.78186H8.74212V1.42925V1.42981Z" fill="#410EAD"/>
<path d="M7.18478 8.25124C7.18478 7.85652 7.18265 7.46181 7.18584 7.06709C7.18797 6.80746 7.3019 6.67904 7.54946 6.67682C8.18619 6.67126 8.82293 6.67181 9.45966 6.67682C9.70668 6.67904 9.82381 6.80746 9.82487 7.06542C9.82754 7.85486 9.82754 8.64429 9.82487 9.43373C9.82381 9.70003 9.70189 9.82233 9.44156 9.82345C8.81813 9.82623 8.19471 9.82623 7.57129 9.82345C7.30297 9.82233 7.18797 9.69836 7.18637 9.41427C7.18424 9.02678 7.18584 8.63873 7.18637 8.25124H7.18478ZM9.16631 9.13019V7.37452H7.84387V9.13019H9.16631Z" fill="#410EAD"/>
<path d="M11.7047 10.4562C11.1233 10.454 10.6916 9.99479 10.6958 9.38437C10.7001 8.79118 11.1404 8.33364 11.709 8.33252C12.2845 8.33086 12.7311 8.79785 12.7306 9.39938C12.7306 10.0026 12.2877 10.459 11.7047 10.4568V10.4562ZM11.7047 9.01967C11.4933 9.02245 11.3427 9.18145 11.3437 9.39938C11.3448 9.61564 11.5003 9.77853 11.7074 9.78075C11.9224 9.78298 12.0838 9.61119 12.0774 9.38603C12.071 9.16644 11.9187 9.01633 11.7047 9.01911V9.01967Z" fill="#410EAD"/>
<path d="M14.9264 7.11816C14.9216 7.7208 14.475 8.17056 13.8888 8.16333C13.3229 8.15666 12.889 7.69134 12.8911 7.09481C12.8933 6.49217 13.3389 6.03575 13.9213 6.03908C14.4995 6.04242 14.9312 6.50607 14.9264 7.11816ZM14.278 7.1076C14.2806 6.89134 14.1279 6.72678 13.9197 6.72122C13.7105 6.71566 13.5518 6.87077 13.5444 7.08814C13.5364 7.31274 13.6977 7.48786 13.9112 7.48731C14.1156 7.48731 14.2753 7.32164 14.278 7.1076Z" fill="#410EAD"/>
<path d="M11.7137 6.03962C12.2914 6.03962 12.7332 6.50494 12.7306 7.10869C12.7279 7.71078 12.2823 8.16721 11.7004 8.16332C11.1308 8.15942 10.6963 7.70188 10.6958 7.1048C10.6953 6.49771 11.134 6.03906 11.7143 6.03906L11.7137 6.03962ZM12.0763 7.1326C12.0928 6.91467 11.9528 6.74122 11.7451 6.72231C11.529 6.70286 11.356 6.85852 11.3442 7.08201C11.3336 7.29716 11.48 7.4695 11.6866 7.48396C11.8942 7.49841 12.0598 7.34942 12.0757 7.1326H12.0763Z" fill="#410EAD"/>
<path d="M13.8995 10.4562C13.3218 10.4529 12.8853 9.98756 12.8917 9.38103C12.8975 8.79173 13.3431 8.33252 13.9101 8.33252C14.4867 8.33252 14.9264 8.79562 14.9259 9.40271C14.9254 10.0076 14.4846 10.4601 13.8995 10.4568V10.4562ZM13.917 9.02022C13.703 9.01688 13.5508 9.16643 13.5444 9.38603C13.538 9.6123 13.6972 9.78353 13.9128 9.7813C14.1194 9.77964 14.2753 9.61619 14.2769 9.40048C14.2785 9.18255 14.1284 9.02356 13.917 9.02022Z" fill="#410EAD"/>
</svg>
