<svg width="18" height="15" viewBox="0 0 18 15" fill="none" xmlns="http://www.w3.org/2000/svg">
<path d="M17.9929 9.85175C17.9431 10.0427 17.9051 10.2383 17.8411 10.4246C17.457 11.5244 16.3969 12.2675 15.1994 12.2721C13.4422 12.2767 11.6874 12.2721 9.93018 12.2721C9.86141 12.2721 9.79264 12.2721 9.71201 12.2721V13.6342C9.77129 13.6342 9.83295 13.6342 9.89461 13.6342C10.6558 13.6342 11.417 13.6319 12.1782 13.6365C12.5126 13.6365 12.7782 13.8619 12.8517 14.1817C12.9181 14.4716 12.764 14.7937 12.477 14.9203C12.368 14.9686 12.2399 14.9962 12.1213 14.9962C10.0369 15.0008 7.95244 15.0008 5.86799 14.9985C5.44351 14.9985 5.13049 14.6994 5.13286 14.3106C5.13524 13.9263 5.44352 13.6388 5.86088 13.6365C6.59838 13.6342 7.33588 13.6365 8.07338 13.6365C8.13741 13.6365 8.20144 13.6365 8.27969 13.6365V12.2744C8.21092 12.2744 8.14452 12.2744 8.07575 12.2744C6.33041 12.2744 4.58745 12.2744 2.84211 12.2744C1.46433 12.2721 0.335551 11.3794 0.0580988 10.0749C0.0201567 9.89316 0.00355708 9.7022 0.00355708 9.51584C-0.00118569 7.26572 -0.00118569 5.0156 0.00355708 2.76548C0.00355708 1.20328 1.24142 0 2.85159 0C6.94935 0 11.0495 0 15.1472 0C16.589 0 17.7439 0.964008 17.9644 2.34215C17.9692 2.36976 17.9834 2.39276 17.9953 2.41807V6.2718C17.981 6.30171 17.9668 6.33392 17.9549 6.36383C17.8221 6.68363 17.4973 6.86769 17.1724 6.80557C16.8262 6.74115 16.5914 6.46967 16.5914 6.11535C16.589 4.99029 16.5914 3.86523 16.5914 2.74017C16.5914 2.10517 16.1764 1.5737 15.5622 1.41265C15.4294 1.37814 15.2848 1.36203 15.1472 1.36203C11.0542 1.35973 6.9612 1.35973 2.86819 1.36203C2.02398 1.36203 1.41453 1.95102 1.41453 2.76778C1.41453 5.011 1.41453 7.25652 1.41453 9.49973C1.41453 10.3165 2.02398 10.9055 2.86819 10.9055C6.9612 10.9055 11.0542 10.9055 15.1472 10.9055C15.9511 10.9055 16.5629 10.3395 16.5938 9.57796C16.608 9.19374 16.838 8.92225 17.1937 8.86703C17.5352 8.81411 17.8293 9.00047 17.9739 9.36169C17.981 9.37779 17.9905 9.3916 18 9.4054V9.84944L17.9929 9.85175Z" fill="#410EAD"/>
<path d="M9.7002 6.12688C9.7002 5.46887 9.7002 4.80856 9.7002 4.15055C9.7002 3.6881 9.9895 3.40741 10.4662 3.40971C10.9381 3.40971 11.4123 3.3821 11.8795 3.51094C13.1458 3.86066 14.0019 5.04323 13.9141 6.32244C13.824 7.60625 12.7996 8.67609 11.4858 8.83024C11.1112 8.87396 10.727 8.86935 10.3476 8.85785C9.98002 8.84635 9.70731 8.54495 9.70494 8.17223C9.7002 7.49121 9.70494 6.8079 9.70494 6.12688H9.7002ZM11.1135 7.49121C11.8985 7.51192 12.5482 6.84011 12.5103 6.06246C12.4771 5.34693 11.7775 4.70963 11.1135 4.79245V7.49121Z" fill="#410EAD"/>
<path d="M6.92808 7.5001C7.17233 7.5001 7.37627 7.4978 7.58258 7.5001C7.98572 7.507 8.29163 7.79459 8.29637 8.17192C8.30111 8.55614 7.99283 8.85984 7.58258 8.86214C6.81663 8.86674 6.0483 8.86444 5.28234 8.86214C4.95272 8.86214 4.69898 8.70108 4.58989 8.4319C4.47844 8.15811 4.54484 7.88202 4.78909 7.65885C5.41751 7.07907 6.02933 6.48318 6.53206 5.79526C6.62217 5.67102 6.70517 5.53757 6.77868 5.40183C6.89962 5.17406 6.8522 4.9854 6.653 4.85426C6.45855 4.72541 6.19058 4.74152 6.0483 4.91408C5.97716 4.9992 5.92736 5.12344 5.91313 5.23388C5.86807 5.63651 5.56216 5.9172 5.16614 5.89649C4.78198 5.87578 4.49741 5.56748 4.50453 5.17406C4.52112 4.17094 5.39142 3.38179 6.44906 3.40939C7.47587 3.437 8.30111 4.28137 8.2608 5.26839C8.24657 5.59509 8.13274 5.89649 7.94778 6.16107C7.66084 6.5752 7.34307 6.96863 7.03954 7.36896C7.01345 7.40347 6.98262 7.43568 6.93045 7.4978L6.92808 7.5001Z" fill="#410EAD"/>
</svg>
