<svg width="15" height="16" viewBox="0 0 15 16" fill="none" xmlns="http://www.w3.org/2000/svg">
<path d="M3.77858 13.069H2.42719V14.99C2.36799 14.9941 2.32512 15.0002 2.28021 15.0002C1.94747 15.0002 1.61473 15.0002 1.28198 15.0002C0.514426 15.0002 0 14.4878 0 13.7223C0 11.9116 0 10.1029 0 8.29223C0 6.92655 0 5.55883 0 4.19316C0 3.40519 0.508302 2.89893 1.29627 2.89893C1.98625 2.89893 2.67624 2.89893 3.37643 2.89893V3.38273C3.32131 3.38273 3.26824 3.38273 3.21516 3.38273C2.56396 3.38273 1.91481 3.38273 1.26361 3.38273C0.812466 3.38273 0.483805 3.69098 0.483805 4.10742C0.483805 4.5259 0.812466 4.8321 1.26361 4.83415C1.64126 4.83415 2.01892 4.83415 2.4129 4.83415V12.5689H3.60915C3.55811 12.4138 3.50912 12.2647 3.46217 12.1137C3.23149 11.3727 3.57036 10.5949 4.27667 10.2928C4.46244 10.2132 4.67474 10.1662 4.8748 10.1642C6.46298 10.154 8.05117 10.154 9.63732 10.1601C10.66 10.1642 11.3582 11.1318 11.0561 12.1096C11.0112 12.2586 10.9601 12.4036 10.907 12.5669H12.5749V4.84435C12.634 4.84027 12.6769 4.83415 12.7198 4.83415C13.0627 4.83415 13.4057 4.83415 13.7486 4.83415C14.1896 4.83415 14.5162 4.52386 14.5162 4.1115C14.5162 3.6971 14.1916 3.38477 13.7548 3.38273C13.0484 3.38273 12.3442 3.38273 11.6256 3.38273V2.90505C11.6705 2.90301 11.7175 2.89893 11.7665 2.89893C12.4217 2.89893 13.077 2.89893 13.7323 2.89893C14.4794 2.89893 15 3.41539 15 4.16049C15 7.35116 15 10.5439 15 13.7345C15 14.4796 14.4815 14.9981 13.7343 15.0002C13.3567 15.0002 12.979 15.0002 12.5851 15.0002V13.0731H10.7356C10.6151 13.4324 10.4947 13.7937 10.3722 14.1571C10.2069 14.6511 9.8292 14.9634 9.35357 14.9981C8.86364 15.0328 8.43903 14.792 8.21856 14.3082C8.11854 14.0877 7.99605 14.0122 7.75517 14.0264C7.35915 14.0509 6.95904 14.0366 6.56097 14.0305C6.46502 14.0305 6.41399 14.0591 6.37725 14.1448C6.3405 14.2326 6.29763 14.3184 6.24864 14.4021C6.00572 14.8185 5.63827 15.0308 5.15651 14.9941C4.67678 14.9573 4.33792 14.6981 4.16848 14.2449C4.02559 13.8591 3.9031 13.463 3.77041 13.0711L3.77858 13.069ZM7.27545 10.6439C6.47523 10.6439 5.67297 10.6398 4.87275 10.6439C4.19298 10.65 3.7153 11.2951 3.91943 11.9422C4.1399 12.6485 4.38283 13.3467 4.61962 14.0469C4.71353 14.3286 4.91562 14.4919 5.20958 14.5102C5.50558 14.5286 5.71992 14.3857 5.85465 14.1224C5.93835 13.9611 6.01184 13.7958 6.10166 13.6386C6.12616 13.5937 6.1976 13.5508 6.2466 13.5488C6.92229 13.5426 7.59594 13.5426 8.27164 13.5488C8.32471 13.5488 8.39616 13.5998 8.42474 13.6488C8.50844 13.7856 8.57172 13.9346 8.64521 14.0775C8.80035 14.3857 9.03511 14.5388 9.32295 14.5082C9.63936 14.4755 9.82512 14.2857 9.92311 13.9897C10.1375 13.3344 10.36 12.6832 10.5763 12.0279C10.8213 11.2869 10.3559 10.6398 9.57403 10.6398C8.80852 10.6398 8.043 10.6398 7.27749 10.6398L7.27545 10.6439ZM0.483805 5.08319C0.483805 5.36082 0.483805 5.61395 0.483805 5.86504C0.483805 8.48616 0.483805 11.1093 0.483805 13.7304C0.483805 14.1408 0.710397 14.4531 1.08397 14.5C1.35955 14.5327 1.6433 14.5062 1.92501 14.5062V5.31795C1.67188 5.31795 1.431 5.31795 1.19012 5.31795C0.941072 5.31795 0.718563 5.23221 0.483805 5.08115V5.08319ZM13.0709 14.5164C13.2832 14.5164 13.4833 14.5164 13.6833 14.5164C14.2386 14.5164 14.5182 14.2347 14.5182 13.6794C14.5182 10.8766 14.5182 8.07176 14.5182 5.26896V5.07503C14.0651 5.42614 13.5527 5.28529 13.0689 5.32816V14.5164H13.0709Z" fill="#410EAD"/>
<path d="M7.74485 7.73862V8.21017H7.26513V7.74678C7.09161 7.69371 6.9283 7.65492 6.77724 7.59164C6.67313 7.54877 6.55881 7.48957 6.49145 7.40383C6.39755 7.28543 6.29752 7.27727 6.17708 7.31605C5.96273 7.3875 5.74431 7.44874 5.53813 7.54265C5.1911 7.70187 4.85223 7.88151 4.51132 8.05299C4.46845 8.07544 4.4215 8.09382 4.36638 8.11831C4.29902 7.14662 4.55419 6.30149 5.24825 5.61763C5.39523 5.47269 5.57283 5.36246 5.72798 5.22773C5.77289 5.18894 5.81371 5.11545 5.81167 5.06034C5.77084 4.08456 6.06276 3.22514 6.6915 2.478C6.7752 2.37798 6.85481 2.27387 6.94463 2.17792C7.24471 1.85334 7.74689 1.84109 8.04902 2.16159C8.61448 2.76584 9.03704 3.4497 9.15136 4.28666C9.18606 4.53979 9.1881 4.79904 9.19014 5.05421C9.19014 5.14199 9.21464 5.1869 9.28609 5.2359C10.3027 5.92384 10.7171 6.89757 10.6477 8.12444C10.566 8.08361 10.4946 8.04891 10.4252 8.0142C10.1047 7.85498 9.79031 7.68146 9.46369 7.54061C9.23097 7.43854 8.97988 7.37525 8.73492 7.30176C8.69613 7.28952 8.62672 7.30176 8.60223 7.3283C8.39197 7.57327 8.1123 7.66921 7.80609 7.71616C7.7918 7.7182 7.77955 7.72637 7.75098 7.73862H7.74485ZM7.74485 7.24052C7.83875 7.21603 7.9102 7.19765 7.98165 7.17724C8.13067 7.13233 8.23274 7.05272 8.26132 6.88328C8.2899 6.71589 8.35726 6.55462 8.39809 6.38927C8.50424 5.94017 8.65734 5.49311 8.69817 5.03788C8.78799 4.03965 8.37359 3.21494 7.69994 2.50454C7.58154 2.38002 7.41823 2.3841 7.29983 2.51271C7.18143 2.64335 7.06712 2.77808 6.96096 2.91894C6.40163 3.65587 6.17504 4.48263 6.35059 5.39308C6.4445 5.88097 6.5976 6.35661 6.72825 6.83837C6.80174 7.10783 6.95892 7.22215 7.26513 7.22011V6.7853H7.74689V7.24461L7.74485 7.24052ZM10.1088 7.28747C10.0863 6.75672 9.49635 5.84422 9.08807 5.72378C8.98601 6.08307 8.88598 6.44235 8.79616 6.76284C9.25342 6.94452 9.68415 7.11804 10.1088 7.28543V7.28747ZM5.90762 5.6952C5.34216 6.10552 5.00533 6.63424 4.88081 7.2936C5.32378 7.11804 5.7586 6.94452 6.20566 6.76692C6.20566 6.7853 6.20974 6.77101 6.20566 6.75672C6.10971 6.41377 6.01377 6.06878 5.90762 5.6952Z" fill="#410EAD"/>
<path d="M10.152 5.31156H9.68652V2.90479H10.152V5.31156Z" fill="#410EAD"/>
<path d="M5.81787 0.48584H6.2833V2.64561H5.81787V0.48584Z" fill="#410EAD"/>
<path d="M8.72266 0.48584H9.18809V2.64561H8.72266V0.48584Z" fill="#410EAD"/>
<path d="M4.85254 2.90479H5.31389V5.06864H4.85254V2.90479Z" fill="#410EAD"/>
<path d="M5.31553 0.00390625V1.9228H4.8501V0.00390625H5.31553Z" fill="#410EAD"/>
<path d="M9.68652 0H10.152V1.91889H9.68652V0Z" fill="#410EAD"/>
<path d="M3.88281 1.9375H4.34824V3.85435H3.88281V1.9375Z" fill="#410EAD"/>
<path d="M10.6582 1.9375H11.1236V3.85435H10.6582V1.9375Z" fill="#410EAD"/>
<path d="M5.79542 9.18632H5.33203V8.23096H5.79542V9.18632Z" fill="#410EAD"/>
<path d="M9.20264 8.229H9.66807V9.18232H9.20264V8.229Z" fill="#410EAD"/>
<path d="M6.76515 9.67021H6.30176V8.71484H6.76515V9.67021Z" fill="#410EAD"/>
<path d="M8.23291 9.66799V8.71875H8.70243V9.66799H8.23291Z" fill="#410EAD"/>
<path d="M6.2913 12.0952C6.2913 11.9339 6.28721 11.7726 6.2913 11.6114C6.29742 11.3378 6.49748 11.1337 6.77102 11.1296C7.09764 11.1235 7.4263 11.1235 7.75292 11.1296C8.01626 11.1357 8.21835 11.3378 8.22448 11.6052C8.2306 11.9319 8.2306 12.2605 8.22448 12.5871C8.22039 12.8525 8.0183 13.0566 7.75292 13.0628C7.42017 13.0689 7.08743 13.0689 6.75469 13.0628C6.49952 13.0566 6.29946 12.8525 6.2913 12.5953C6.28517 12.4299 6.2913 12.2626 6.2913 12.0972V12.0952ZM6.78123 12.5688H7.73046V11.6195H6.78123V12.5688Z" fill="#410EAD"/>
<path d="M4.3667 11.6112H4.83213V11.1396H5.31798V11.6051H5.79362V12.0909H5.32819V12.5666H4.84234V12.1011H4.3667V11.6092V11.6112Z" fill="#410EAD"/>
<path d="M9.19842 11.6133V11.1377H9.67814V11.6133L9.68222 11.6093H9.19434L9.19842 11.6133Z" fill="#410EAD"/>
<path d="M9.19634 12.0932H8.7207V11.6135C8.87993 11.6135 9.03712 11.6135 9.19634 11.6135L9.19226 11.6094V12.0973L9.19634 12.0932Z" fill="#410EAD"/>
<path d="M9.67627 11.6135H10.1519V12.0932H9.67627L9.68035 12.0973V11.6094L9.67627 11.6135Z" fill="#410EAD"/>
<path d="M9.67814 12.0933V12.5689H9.19842C9.19842 12.4097 9.19842 12.2525 9.19842 12.0933L9.19434 12.0973H9.68222L9.67814 12.0933Z" fill="#410EAD"/>
<path d="M1.4455 6.28153H0.978027V5.81201H1.4455V6.28153Z" fill="#410EAD"/>
<path d="M0.975586 6.77734H1.44102V7.24482H0.975586V6.77734Z" fill="#410EAD"/>
<path d="M1.44519 7.75098V8.21437H0.973633V7.75098H1.44519Z" fill="#410EAD"/>
<path d="M14.024 12.089H13.5586V11.6235H14.024V12.089Z" fill="#410EAD"/>
<path d="M14.0244 13.0585H13.561V12.5869H14.0244V13.0585Z" fill="#410EAD"/>
<path d="M14.0265 14.0241H13.561V13.5566H14.0265V14.0241Z" fill="#410EAD"/>
<path d="M8.22673 4.58682C8.22877 4.98897 7.90011 5.31968 7.5 5.31764C7.10601 5.31764 6.77939 4.99306 6.77735 4.59703C6.77531 4.19488 7.10397 3.86418 7.50408 3.86622C7.90011 3.86622 8.22469 4.1908 8.22673 4.58682ZM7.74292 4.6052C7.74905 4.47455 7.64494 4.36023 7.51429 4.35207C7.38364 4.34594 7.26932 4.45005 7.26116 4.5807C7.25503 4.71135 7.35914 4.82566 7.48979 4.83383C7.62044 4.83995 7.73476 4.73584 7.74292 4.6052Z" fill="#410EAD"/>
</svg>
