<svg width="17" height="15" viewBox="0 0 17 15" fill="none" xmlns="http://www.w3.org/2000/svg">
<path d="M0 12.3617C0.0433214 12.0949 0.08172 11.8272 0.131933 11.5613C0.157533 11.4279 0.198885 11.2972 0.241222 11.1674C0.285528 11.0304 0.4086 10.9597 0.540533 10.9874C0.684282 11.017 0.775848 11.1316 0.729572 11.2748C0.394816 12.299 0.53758 13.3509 0.506073 14.3921C0.505089 14.436 0.51395 14.479 0.519857 14.5309H3.5622C3.56614 14.4664 3.57205 14.4073 3.57205 14.3482C3.57205 13.8048 3.57205 13.2623 3.57205 12.7189C3.57205 12.3894 3.65475 12.2963 4.01216 12.222C4.21695 12.179 4.42273 12.1441 4.62555 12.0949C5.10405 11.9785 5.41912 11.6266 5.43586 11.1763C5.44472 10.9382 5.53333 10.7403 5.69382 10.5559C6.18807 9.98831 6.67643 9.41713 7.16675 8.84685C7.29573 8.69734 7.28489 8.65347 7.10275 8.55947C6.71187 8.35714 6.22746 8.43413 5.93307 8.75553C5.69283 9.01784 5.47524 9.29806 5.23008 9.55679C4.81754 9.99189 4.10471 9.98652 3.70005 9.55679C3.53464 9.38132 3.46178 9.17362 3.46079 8.94533C3.45784 8.44219 3.45587 7.93995 3.46079 7.43681C3.46079 7.33296 3.49131 7.22821 3.51199 7.12526C3.52085 7.08139 3.53464 7.03662 3.55334 6.99544C3.89401 6.23805 4.01117 5.45201 3.94816 4.63732C3.92847 4.38306 3.94521 4.12702 3.91862 3.86291C3.89499 3.9041 3.87038 3.94528 3.8497 3.98735C3.35347 4.99542 2.86118 6.00528 2.35708 7.00977C2.25961 7.20404 2.12767 7.38757 1.98786 7.56035C1.82147 7.76537 1.69151 7.98113 1.6216 8.22912C1.44044 8.86565 1.25238 9.50039 1.06728 10.136C1.05645 10.1745 1.04661 10.2139 1.03184 10.2524C0.98064 10.3858 0.855599 10.453 0.72465 10.4198C0.583855 10.384 0.507058 10.2649 0.546441 10.1244C0.638007 9.79851 0.73548 9.47443 0.83 9.14855C0.939288 8.77523 1.02593 8.39474 1.16476 8.03037C1.26124 7.7788 1.42272 7.54603 1.56548 7.31058C1.67674 7.12705 1.82541 6.95963 1.91993 6.76984C2.42108 5.76983 2.91238 4.76534 3.4027 3.75996C3.50805 3.5433 3.63802 3.35351 3.87924 3.23802C3.91961 3.21922 3.94225 3.14044 3.94324 3.08851C3.94717 2.26397 3.94619 1.43943 3.94619 0.614895C3.94619 0.189645 4.14606 0.00522063 4.60783 0.00522063C6.26684 0.00522063 7.92586 0.00522063 9.58487 0.00522063C9.64591 0.00522063 9.70794 0.00522063 9.76603 0.0159638C9.8891 0.0392407 9.95704 0.112652 9.96098 0.228141C9.9659 0.342735 9.90387 0.422414 9.78375 0.452853C9.72173 0.468967 9.65281 0.468967 9.58684 0.468967C7.94456 0.468967 6.30229 0.471653 4.66001 0.466282C4.49952 0.466282 4.44439 0.494035 4.44537 0.654287C4.45128 3.52003 4.45029 6.38577 4.45029 9.2524V9.40639C4.64819 9.4225 4.78013 9.34103 4.88745 9.21749C5.09618 8.97666 5.29998 8.73225 5.51265 8.49411C6.001 7.94621 6.81328 7.82625 7.44538 8.20673C7.80968 8.42607 7.87466 8.77254 7.60587 9.08768C7.13425 9.63916 6.65969 10.1888 6.18611 10.7394C6.14278 10.7896 6.10242 10.8406 6.04236 10.9149C6.13097 10.9149 6.18906 10.9149 6.24813 10.9149C7.42569 10.9149 8.60423 10.9149 9.78179 10.9149C9.83692 10.9149 9.89403 10.9095 9.94719 10.9203C10.0811 10.948 10.1628 11.0259 10.1559 11.1548C10.149 11.282 10.0683 11.3572 9.92652 11.3706C9.87138 11.376 9.81625 11.3733 9.76111 11.3733C8.53925 11.3733 7.31739 11.3742 6.09454 11.3715C5.97934 11.3715 5.92716 11.393 5.8927 11.5076C5.72926 12.051 5.34134 12.3984 4.74074 12.5461C4.65016 12.5685 4.5586 12.5882 4.45128 12.6132C4.45128 12.7448 4.44537 12.88 4.4562 13.0134C4.45916 13.0465 4.51134 13.0868 4.55072 13.1038C4.58715 13.119 4.63736 13.1074 4.68167 13.1074C7.22484 13.1074 9.76899 13.1074 12.3122 13.1074C12.4671 13.1074 12.5445 13.0364 12.5445 12.8943C12.5445 12.8039 12.5445 12.7144 12.5445 12.6114C12.4401 12.5882 12.3407 12.5658 12.2413 12.5425C11.5501 12.3778 11.0864 11.8469 11.045 11.1978C11.0371 11.0814 10.983 10.9498 10.9052 10.8567C10.4099 10.2649 9.90092 9.68213 9.39878 9.09484C9.1172 8.76627 9.18316 8.4216 9.56813 8.1951C10.1717 7.84057 10.9554 7.93726 11.43 8.43771C11.6643 8.68481 11.878 8.94891 12.0995 9.20585C12.2068 9.33029 12.3368 9.41355 12.5455 9.40639V9.24703C12.5455 6.38129 12.5445 3.51555 12.5484 0.648915C12.5484 0.507464 12.513 0.458224 12.3496 0.462701C11.9183 0.472548 11.4871 0.466282 11.0558 0.466282C10.9298 0.466282 10.8117 0.430471 10.7851 0.312296C10.7683 0.23978 10.792 0.142196 10.8382 0.0813181C10.8727 0.0347643 10.9712 0.00701116 11.0411 0.00611589C11.5274 -0.000150957 12.0148 -0.00373201 12.5012 0.00611589C12.8359 0.0123827 13.0486 0.223665 13.0496 0.534322C13.0526 1.37408 13.0526 2.21384 13.0476 3.05359C13.0476 3.15924 13.0683 3.22638 13.1815 3.27831C13.3716 3.36604 13.4789 3.52629 13.5635 3.69998C14.0647 4.72237 14.5639 5.74565 15.0739 6.76446C15.1684 6.95426 15.3171 7.12167 15.4283 7.3052C15.5731 7.54603 15.7542 7.77969 15.834 8.03843C16.1924 9.19779 16.537 10.3616 16.8491 11.5317C16.9544 11.9275 16.9712 12.3473 16.9879 12.7574C17.0106 13.3151 16.9948 13.8738 16.9928 14.4315C16.9928 14.786 16.7792 14.9893 16.3932 14.991C15.4362 14.9964 14.4802 14.9991 13.5232 14.9982C13.1382 14.9982 12.9157 14.7923 12.9147 14.444C12.9127 14.1074 12.9147 13.7717 12.9147 13.3966C12.6853 13.6025 12.4195 13.5631 12.1645 13.5631C9.67053 13.5631 7.17659 13.5631 4.68265 13.5649C4.47589 13.5649 4.27307 13.564 4.08403 13.3921C4.08403 13.6893 4.08403 13.9472 4.08403 14.2059C4.08403 14.2811 4.08403 14.3563 4.08403 14.4324C4.08206 14.7986 3.8625 15 3.45587 15C2.7263 15 1.99574 14.9955 1.26617 14.9937C1.08894 14.9937 0.911719 14.983 0.73548 14.9955C0.389893 15.0233 0.13981 14.9167 0 14.6249C0 13.8702 0 13.1164 0 12.3617ZM13.0811 3.86649C13.0693 3.86918 13.0575 3.87187 13.0457 3.87455C13.0457 4.33203 13.0614 4.78951 13.0407 5.2461C13.022 5.66508 13.085 6.06437 13.2465 6.4556C13.3263 6.64808 13.3912 6.84593 13.4503 7.04468C13.4887 7.1745 13.5252 7.30968 13.5271 7.44307C13.535 7.94532 13.5311 8.44846 13.5271 8.95159C13.5252 9.18526 13.4464 9.39654 13.2731 9.5738C12.8635 9.9901 12.1635 9.98652 11.7549 9.55411C11.5137 9.29896 11.299 9.02322 11.0627 8.76448C10.7654 8.43771 10.2869 8.35714 9.896 8.55589C9.70203 8.65437 9.69219 8.69555 9.82609 8.85222C10.3135 9.41803 10.7979 9.98652 11.2892 10.5496C11.4526 10.7376 11.5452 10.94 11.554 11.1835C11.5698 11.6311 11.8888 11.983 12.3693 12.0984C12.5829 12.1495 12.7995 12.1889 13.0142 12.2336C13.3263 12.299 13.4159 12.4019 13.4168 12.6956C13.4178 13.2533 13.4228 13.812 13.4139 14.3697C13.4119 14.513 13.4631 14.5452 13.6118 14.5434C14.5078 14.5363 15.4037 14.5345 16.2987 14.5389C16.4415 14.5389 16.4897 14.5085 16.4877 14.3724C16.4789 13.8442 16.4986 13.316 16.4789 12.7887C16.4651 12.4181 16.4543 12.0385 16.3578 11.6822C16.0486 10.5264 15.7089 9.37685 15.3604 8.23091C15.2905 7.99993 15.1349 7.78954 15.006 7.57557C14.8839 7.37414 14.7244 7.18971 14.619 6.98201C14.2281 6.21209 13.853 5.435 13.472 4.66059C13.342 4.39649 13.2111 4.13149 13.0801 3.86739L13.0811 3.86649Z" fill="#410EAD"/>
<path d="M8.4565 5.38359C8.25762 5.38359 8.05873 5.38807 7.85985 5.3827C7.56644 5.37464 7.40399 5.22065 7.40104 4.95297C7.39808 4.74706 7.3971 4.54115 7.40104 4.33524C7.40596 4.08546 7.57038 3.927 7.84311 3.92252C8.25663 3.91626 8.67114 3.91536 9.08565 3.92252C9.34952 3.927 9.51394 4.08636 9.51886 4.32718C9.52379 4.53757 9.5228 4.74885 9.51886 4.96013C9.51493 5.21886 9.35247 5.37285 9.06793 5.3818C8.86412 5.38807 8.65933 5.3827 8.45552 5.38359H8.4565ZM7.92089 4.39612V4.90373H9.00294V4.39612H7.92089Z" fill="#410EAD"/>
<path d="M10.9412 6.05409C11.145 6.05409 11.3498 6.0514 11.5536 6.05409C11.8136 6.05857 11.9849 6.19733 11.9977 6.43189C12.0095 6.66735 12.0105 6.9037 11.9977 7.13915C11.9839 7.36744 11.8165 7.50442 11.5625 7.5071C11.149 7.51158 10.7345 7.51158 10.3209 7.5071C10.0541 7.50442 9.89069 7.35133 9.88577 7.10871C9.88183 6.88758 9.88183 6.66735 9.88577 6.44622C9.89069 6.21345 10.0571 6.06036 10.3121 6.05499C10.5218 6.05051 10.7315 6.05409 10.9412 6.05409ZM10.3987 6.51963V7.04067H11.4778V6.51963H10.3987Z" fill="#410EAD"/>
<path d="M6.02295 7.50803C5.8792 7.50803 5.73545 7.51341 5.59268 7.50714C5.20968 7.49102 4.96255 7.14097 5.13092 6.83032C5.26679 6.57875 5.42235 6.33524 5.59268 6.10157C5.79846 5.81957 6.25826 5.82673 6.46108 6.11232C6.62255 6.33882 6.77221 6.57427 6.90611 6.8151C7.08235 7.13292 6.8431 7.49013 6.45321 7.50714C6.31044 7.51341 6.16669 7.50803 6.02295 7.50803ZM6.47191 7.04339C6.31438 6.7954 6.17556 6.57696 6.02196 6.33345C5.86738 6.57964 5.72757 6.80167 5.57595 7.04339H6.47191Z" fill="#410EAD"/>
<path d="M10.9431 5.45624C10.7994 5.45624 10.6556 5.46161 10.5119 5.45624C10.1259 5.44013 9.88076 5.09097 10.0501 4.77763C10.187 4.52606 10.3425 4.28076 10.5138 4.04799C10.7186 3.77046 11.1686 3.77494 11.3734 4.05426C11.5408 4.28434 11.6934 4.52517 11.8292 4.77137C12.0006 5.08292 11.7574 5.43834 11.3744 5.45535C11.2306 5.46161 11.0869 5.45624 10.9431 5.45624ZM10.9402 4.28255C10.7826 4.53143 10.6428 4.75256 10.4941 4.98802H11.3891C11.2355 4.74719 11.0957 4.52517 10.9411 4.28255H10.9402Z" fill="#410EAD"/>
<path d="M8.46205 3.40447C8.3183 3.40447 8.17455 3.40984 8.0308 3.40447C7.64682 3.38835 7.40067 3.03472 7.57002 2.72407C7.70491 2.47697 7.85752 2.23704 8.0249 2.00696C8.23363 1.71958 8.68456 1.71779 8.89329 2.00517C9.06067 2.23436 9.21427 2.47518 9.34915 2.72228C9.51949 3.03472 9.2763 3.38835 8.89231 3.40536C8.74856 3.41163 8.60481 3.40626 8.46106 3.40626L8.46205 3.40447ZM8.91003 2.93893C8.75447 2.69452 8.61466 2.47429 8.46008 2.23167C8.30058 2.48234 8.16175 2.70168 8.0121 2.93893H8.91003Z" fill="#410EAD"/>
<path d="M8.47054 5.84133C8.97465 5.84492 9.38817 6.2263 9.37931 6.68199C9.37143 7.14215 8.95791 7.50921 8.45085 7.50563C7.94773 7.50205 7.53421 7.11977 7.5411 6.66408C7.54898 6.20392 7.96152 5.83775 8.46956 5.84133H8.47054ZM8.86634 6.66945C8.86437 6.46354 8.6773 6.29523 8.45282 6.29971C8.23424 6.30419 8.05702 6.46802 8.05505 6.66766C8.05308 6.87447 8.23523 7.04457 8.45971 7.04546C8.6842 7.04546 8.86733 6.87536 8.86536 6.66856L8.86634 6.66945Z" fill="#410EAD"/>
<path d="M11.8553 2.59895C11.8562 3.0618 11.4506 3.43334 10.9426 3.43334C10.4365 3.43334 10.0239 3.06091 10.022 2.60253C10.021 2.14505 10.4325 1.76994 10.9386 1.76904C11.4486 1.76904 11.8533 2.13521 11.8553 2.59895ZM11.3482 2.59448C11.3452 2.39036 11.1523 2.22115 10.9298 2.22742C10.7122 2.23369 10.532 2.40199 10.531 2.59895C10.531 2.80218 10.721 2.97586 10.9435 2.97407C11.168 2.97228 11.3521 2.79949 11.3482 2.59448Z" fill="#410EAD"/>
<path d="M6.03 1.76898C6.53706 1.77166 6.93975 2.14499 6.93582 2.60873C6.93286 3.0689 6.52131 3.43596 6.0113 3.43238C5.50522 3.42969 5.10253 3.05547 5.10548 2.59172C5.10844 2.13066 5.51901 1.7654 6.02902 1.76808L6.03 1.76898ZM6.43171 2.5971C6.42876 2.39566 6.23381 2.22288 6.01228 2.22825C5.79567 2.23272 5.61254 2.40103 5.61057 2.5971C5.6086 2.79853 5.79961 2.9749 6.02114 2.9749C6.24267 2.9749 6.43467 2.79853 6.43171 2.5971Z" fill="#410EAD"/>
<path d="M6.93727 4.66017C6.93432 5.12033 6.52277 5.48739 6.01374 5.4847C5.50767 5.48202 5.10497 5.10869 5.10793 4.64495C5.11088 4.18389 5.52046 3.81862 6.03146 3.8213C6.53852 3.82399 6.94121 4.19642 6.93826 4.66017H6.93727ZM6.43317 4.65838C6.43711 4.45784 6.2461 4.28057 6.02457 4.27968C5.80796 4.27878 5.62188 4.44172 5.61301 4.63958C5.60415 4.84101 5.78925 5.02006 6.01275 5.02633C6.23231 5.0326 6.42923 4.86071 6.43415 4.65838H6.43317Z" fill="#410EAD"/>
<path d="M8.50055 12.1076C8.75457 12.1076 9.00859 12.105 9.26261 12.1076C9.46051 12.1103 9.56291 12.1936 9.56094 12.3395C9.55897 12.4828 9.44968 12.5687 9.25769 12.5696C8.74965 12.5714 8.24161 12.5714 7.73356 12.5696C7.5396 12.5696 7.43031 12.4845 7.42637 12.3431C7.42244 12.1927 7.52975 12.1103 7.73849 12.1076C7.99251 12.105 8.24653 12.1076 8.50055 12.1076Z" fill="#410EAD"/>
</svg>
