<svg width="16" height="15" viewBox="0 0 16 15" fill="none" xmlns="http://www.w3.org/2000/svg">
<path d="M7.73734 0C7.73915 0.732694 7.74126 1.46539 7.74217 2.19808C7.74307 2.87223 7.74217 3.54638 7.74217 4.22053V4.3859C7.91176 4.15867 8.06717 3.95618 8.21444 3.74796C8.23858 3.71386 8.23043 3.65411 8.23043 3.60643C8.23133 2.94707 8.23103 2.2874 8.23103 1.62804V1.46207H8.70572V3.26423C8.87591 3.15227 9.02619 3.05842 9.16893 2.95461C9.19458 2.93621 9.1973 2.87585 9.1976 2.83481C9.20001 2.5421 9.1988 2.24968 9.1988 1.94671H9.67077V2.69268C9.89861 2.6287 10.1056 2.56111 10.3175 2.51252C12.4398 2.02758 14.605 3.49448 14.949 5.64518C15.1114 6.66063 14.9055 7.5937 14.3443 8.45314C14.3026 8.51711 14.28 8.60553 14.2794 8.68278C14.2752 9.67922 14.2767 10.676 14.2767 11.6724C14.2767 11.73 14.2767 11.7877 14.2767 11.855H13.8044V9.10707C13.6267 9.25011 13.4709 9.3687 13.3252 9.49846C13.2989 9.5217 13.3095 9.5908 13.3095 9.63878C13.3089 10.6404 13.3089 11.6416 13.3089 12.6432V12.8233H12.8327V9.7785C12.6571 9.85002 12.5017 9.91309 12.3393 9.97888V14.0319H11.8661V10.1074C11.6721 10.1264 11.4965 10.1439 11.3115 10.1621C11.5212 11.5113 11.1781 12.6833 10.2176 13.646C9.47703 14.3886 8.56298 14.7652 7.51554 14.7634C6.30998 14.7613 5.30116 14.2911 4.52803 13.3632C3.7549 12.4356 3.49961 11.358 3.69515 10.1633C3.50957 10.1439 3.33695 10.1258 3.14684 10.1062V14.0322H2.66974V9.98129C2.50528 9.91309 2.35349 9.85032 2.17726 9.7773V12.823H1.69594C1.69594 12.7567 1.69594 12.6993 1.69594 12.6417C1.69594 11.6549 1.69383 10.6681 1.69865 9.68133C1.69926 9.55338 1.67331 9.46346 1.55803 9.39133C1.44064 9.3177 1.33985 9.21812 1.21069 9.1125V11.8535H0.728167C0.728167 11.7976 0.728167 11.7415 0.728167 11.6854C0.728167 10.6838 0.729374 9.68254 0.725753 8.68097C0.725753 8.60794 0.706742 8.52375 0.667512 8.464C0.313839 7.92927 0.091134 7.34806 0.0241415 6.70891C0.0211238 6.68055 0.00814775 6.65339 0 6.62563C0 6.41077 0 6.19561 0 5.98075C0.0184079 5.87121 0.037721 5.76197 0.0552236 5.65212C0.406482 3.48663 2.5602 2.02758 4.6928 2.51313C4.90343 2.56111 5.10984 2.6281 5.33225 2.69027V1.94309H5.80663C5.80663 2.24154 5.80572 2.53274 5.80753 2.82425C5.80753 2.8665 5.80482 2.92927 5.82926 2.94707C5.97501 3.0539 6.12801 3.15046 6.30243 3.26604V1.46267H6.7744V1.63045C6.7744 2.28952 6.7741 2.94888 6.775 3.60794C6.775 3.65562 6.76806 3.71477 6.7925 3.74917C6.93947 3.95709 7.09427 4.15927 7.26326 4.3856V4.21842C7.26326 3.53009 7.26266 2.84145 7.26326 2.15312C7.26417 1.43551 7.26658 0.717907 7.26809 0H7.73704H7.73734ZM7.82334 6.99922C8.17702 7.08914 8.50775 7.14316 8.81586 7.25723C9.93572 7.67186 10.7079 8.44921 11.1343 9.56545C11.1687 9.65598 11.2113 9.68978 11.303 9.67469C11.3462 9.66775 11.3908 9.67137 11.4346 9.66745C13.3994 9.49635 14.8156 7.65073 14.4719 5.70885C14.2003 4.17466 12.9631 3.04484 11.361 2.91538C9.88231 2.79619 8.48633 3.6867 7.9522 5.12825C7.72316 5.74627 7.68091 6.38059 7.82365 6.99861L7.82334 6.99922ZM4.1134 10.8893C4.10918 12.7506 5.62768 14.2733 7.49261 14.2782C9.36538 14.283 10.8899 12.766 10.8923 10.8953C10.8947 9.03374 9.37504 7.5086 7.51313 7.50407C5.64277 7.49955 4.11763 9.01835 4.1134 10.8896V10.8893ZM2.49804 4.15535C2.73674 5.10924 2.96367 6.01575 3.19995 6.95878C3.50776 6.19048 3.80047 5.4599 4.10677 4.69552C4.36267 5.29121 4.60408 5.8528 4.85726 6.44215C4.95323 6.25174 5.04315 6.08576 5.12071 5.91436C5.15903 5.82956 5.21003 5.80482 5.29996 5.80542C5.8027 5.80934 6.30575 5.80723 6.8085 5.80723C6.93947 5.80723 7.07043 5.80723 7.22464 5.80723C7.02215 4.67771 6.45211 3.82009 5.44782 3.30346C4.2157 2.66944 3.00018 2.76239 1.87217 3.56932C1.03446 4.16833 0.595389 5.01147 0.495202 6.05076C0.807834 6.05076 1.09542 6.04593 1.383 6.05317C1.49919 6.05619 1.56407 6.0242 1.61778 5.91285C1.87428 5.38174 2.14195 4.85575 2.406 4.32826C2.42893 4.2827 2.45398 4.23803 2.49804 4.15535ZM0.510592 6.5363C0.583318 8.30104 2.19355 9.71513 3.82159 9.66383C4.42211 8.1233 5.53805 7.24184 7.19144 7.02094C7.2183 6.78647 7.24485 6.55169 7.27141 6.31933C7.23429 6.30696 7.22102 6.29851 7.20744 6.29851C6.6558 6.2973 6.10417 6.29489 5.55254 6.30062C5.50999 6.30092 5.45024 6.34981 5.42821 6.39176C5.27672 6.68115 5.13338 6.97447 4.98702 7.26658C4.93633 7.36798 4.88472 7.46907 4.82316 7.59008C4.58537 7.03694 4.35904 6.51005 4.12216 5.95962C3.77633 6.82298 3.44167 7.65767 3.09313 8.52767C2.83964 7.51614 2.59672 6.54656 2.34383 5.53745C2.18752 5.84857 2.04569 6.11534 1.92015 6.38964C1.86764 6.50432 1.80518 6.54294 1.67874 6.53992C1.28946 6.53027 0.899873 6.5363 0.509988 6.5363H0.510592Z" fill="#410EAD"/>
<path d="M1.20145 12.3516V12.8214H0.739746V12.3516H1.20145Z" fill="#410EAD"/>
<path d="M13.8086 12.3486H14.2667V12.8218H13.8086V12.3486Z" fill="#410EAD"/>
<path d="M2.16855 13.3193V13.7907H1.70654V13.3193H2.16855Z" fill="#410EAD"/>
<path d="M13.2972 13.7934H12.8428V13.3218H13.2972V13.7934Z" fill="#410EAD"/>
<path d="M2.67529 14.5288H3.13247V14.9987H2.67529V14.5288Z" fill="#410EAD"/>
<path d="M12.334 14.9999H11.8696V14.5352H12.334V14.9999Z" fill="#410EAD"/>
<path d="M8.70366 0.495117V0.958633H8.24316V0.495117H8.70366Z" fill="#410EAD"/>
<path d="M6.76804 0.494629V0.959352H6.30664V0.494629H6.76804Z" fill="#410EAD"/>
<path d="M11.1297 8.90219C10.7682 8.35961 10.4193 7.83634 10.0705 7.31308C9.86498 7.00467 9.65676 6.69807 9.45638 6.38604C9.42953 6.3444 9.41836 6.25991 9.4425 6.22309C9.99745 5.37995 10.5584 4.54073 11.13 3.68311C11.1644 3.73048 11.1928 3.767 11.2181 3.80532C11.7459 4.59656 12.2719 5.389 12.8027 6.17813C12.86 6.26353 12.8615 6.32147 12.803 6.40807C12.2719 7.1969 11.7459 7.98934 11.2184 8.78027C11.1946 8.81588 11.168 8.84968 11.1294 8.90219H11.1297ZM10.8828 4.9282C10.5959 5.35883 10.3333 5.75293 10.0596 6.16364C10.3448 6.2581 10.6085 6.34531 10.8828 6.43614V4.9282ZM12.2082 6.16304C11.9303 5.7466 11.6656 5.35007 11.3844 4.92881V6.43916C11.6608 6.34651 11.9227 6.2587 12.2082 6.16304ZM10.3231 6.76295C10.3161 6.7717 10.3095 6.78015 10.3025 6.78891C10.489 7.06804 10.6752 7.34718 10.8617 7.62631C10.8931 7.41477 10.8955 7.21651 10.8904 7.01825C10.8895 6.98898 10.8587 6.94462 10.8318 6.93466C10.6638 6.8731 10.493 6.81938 10.3231 6.76295ZM11.3783 7.61575C11.3874 7.61967 11.3968 7.6233 11.4058 7.62722C11.5917 7.34808 11.7776 7.06895 11.9635 6.79011C11.9559 6.78196 11.9487 6.77412 11.9411 6.76597C11.754 6.82844 11.567 6.8909 11.3783 6.95367V7.61575Z" fill="#410EAD"/>
<path d="M6.54346 9.20021H7.25714V8.7207H7.73846V9.18935C8.17753 9.22798 8.49771 9.42201 8.64799 9.83091C8.79586 10.2332 8.68963 10.5868 8.39541 10.888C9.02761 11.5178 8.65252 12.5366 7.74721 12.5963V13.0625H7.26951V12.5909H6.54346V9.19991V9.20021ZM7.02629 12.1014C7.28762 12.1014 7.53658 12.1117 7.78403 12.0984C8.03087 12.0854 8.21797 11.879 8.22974 11.6358C8.2409 11.4046 8.06558 11.1656 7.83352 11.1469C7.56856 11.1258 7.30029 11.1421 7.02598 11.1421V12.1014H7.02629ZM7.029 9.68757V10.6357C7.05616 10.6403 7.07517 10.646 7.09418 10.646C7.31327 10.6466 7.53265 10.6505 7.75144 10.6454C8.01578 10.639 8.21465 10.445 8.22974 10.1879C8.24392 9.94498 8.06437 9.71292 7.80998 9.6921C7.55468 9.67127 7.29667 9.68757 7.0293 9.68757H7.029Z" fill="#410EAD"/>
<path d="M5.28286 9.04395C5.39753 9.139 5.51251 9.23436 5.63895 9.33938C5.15823 9.95891 4.97717 10.6506 5.14133 11.4161C5.25751 11.959 5.54027 12.4072 5.96848 12.7614C6.80589 13.4549 8.06879 13.5334 9.05286 12.7554C9.15274 12.8749 9.25293 12.995 9.35342 13.1151C8.33887 14.0135 6.55542 14.1037 5.40085 12.8918C4.25866 11.6929 4.44757 9.96102 5.28316 9.04425L5.28286 9.04395Z" fill="#410EAD"/>
<path d="M9.72617 12.7443C9.60275 12.6408 9.48778 12.5439 9.3728 12.4477C10.2832 11.2723 9.95159 9.86724 9.16277 9.13063C8.34498 8.36685 7.01931 8.19062 5.95135 9.02682C5.85237 8.90853 5.75309 8.78963 5.65381 8.67103C6.56183 7.84298 8.30152 7.63748 9.5092 8.79627C10.7114 9.94993 10.6233 11.7177 9.72587 12.744L9.72617 12.7443Z" fill="#410EAD"/>
</svg>
