<svg width="15" height="15" viewBox="0 0 15 15" fill="none" xmlns="http://www.w3.org/2000/svg">
<path d="M14.9988 6.86145C14.9622 6.86354 14.9346 6.86614 14.9069 6.86614C13.7159 6.86614 12.5255 6.86614 11.3345 6.86614C11.2416 6.86614 11.2416 6.86614 11.2217 6.77029C11.065 6.00716 10.7114 5.34872 10.1519 4.80437C9.62019 4.28658 8.98815 3.95372 8.25738 3.8063C8.01293 3.75682 7.76638 3.73181 7.51878 3.73286C5.78563 3.73806 4.35701 4.88095 3.89682 6.42597C3.77041 6.85051 3.71922 7.28443 3.74691 7.72512C3.85712 9.46966 5.10867 10.7959 6.61303 11.1543C6.846 11.21 7.08158 11.2413 7.32081 11.259C7.49893 11.272 7.67497 11.2658 7.85047 11.2507C8.29656 11.2116 8.72645 11.1017 9.12918 10.9032C10.2245 10.362 10.9135 9.4957 11.1998 8.31011C11.2066 8.2825 11.2107 8.25437 11.217 8.22676C11.2369 8.13873 11.2369 8.13821 11.3304 8.13821C11.7357 8.13821 12.1416 8.13821 12.5469 8.13821C13.3205 8.13821 14.0946 8.13821 14.8682 8.13821C14.9074 8.13821 14.9471 8.14133 14.9983 8.14342C14.9983 8.17988 15.0009 8.21009 14.9983 8.23979C14.84 9.73689 14.2942 11.0767 13.3372 12.242C12.3594 13.4333 11.1251 14.249 9.64526 14.6923C9.30156 14.7955 8.95106 14.8694 8.59534 14.9189C8.32686 14.9564 8.05732 14.9731 7.78727 14.9913C7.53236 15.0085 7.2785 14.9976 7.02621 14.9809C6.19881 14.9267 5.40014 14.7434 4.63333 14.4241C3.87332 14.1073 3.18225 13.6812 2.56483 13.1379C1.49924 12.2003 0.752283 11.0543 0.330226 9.6999C0.193893 9.26182 0.103004 8.81331 0.0502473 8.35751C0.00637001 7.98037 -0.00930047 7.60219 0.00532528 7.22349C0.0418897 6.2723 0.247695 5.35862 0.632666 4.48661C0.945552 3.77765 1.35716 3.13068 1.87168 2.55038C2.73982 1.57055 3.79235 0.860026 5.02875 0.42246C5.43775 0.277646 5.85667 0.17138 6.28447 0.101057C6.49759 0.0661559 6.71332 0.0468822 6.92905 0.0286503C7.11919 0.012502 7.31037 0.000520912 7.50155 0C7.6922 0 7.88338 0.013023 8.07404 0.025004C8.20201 0.0328176 8.32895 0.0479239 8.4564 0.0614676C8.77973 0.0963687 9.09836 0.156795 9.41125 0.242224C11.4688 0.802725 13.0264 2.01072 14.0847 3.85475C14.4859 4.55381 14.7544 5.30549 14.899 6.09884C14.9387 6.31658 14.9664 6.53693 14.9978 6.75623C15.0025 6.78853 14.9983 6.82238 14.9983 6.86249L14.9988 6.86145Z" fill="#410EAD"/>
</svg>
