<svg width="15" height="15" viewBox="0 0 15 15" fill="none" xmlns="http://www.w3.org/2000/svg">
<path d="M0.000663325 12.2979C0.531172 12.2618 0.859477 12.5061 0.985578 13.0306C1.04398 13.2752 1.10305 13.5192 1.22915 13.7653C1.34132 13.3503 1.47538 12.94 1.55701 12.5196C1.60878 12.2546 1.76807 12.281 1.94328 12.2837C2.11451 12.2864 2.28575 12.2404 2.33951 12.5115C2.42512 12.9386 2.55919 13.3563 2.72577 13.7916C2.80143 13.4908 2.87643 13.1901 2.95209 12.8893C3.06625 12.4315 3.37287 12.2422 3.87196 12.3215C3.72728 12.8062 3.58525 13.286 3.44057 13.7659C3.36955 14.0018 3.29455 14.2364 3.22221 14.4723C3.09611 14.8825 2.91293 14.9961 2.50609 14.8764C2.4291 14.8541 2.35543 14.7298 2.32889 14.6379C2.19947 14.1918 2.0873 13.7409 1.90943 13.2874C1.84107 13.5544 1.77338 13.8207 1.70502 14.0877C1.63865 14.3452 1.57162 14.6027 1.50923 14.8427C1.47604 14.8596 1.46675 14.8683 1.45613 14.869C0.791781 14.9217 0.797091 14.9204 0.601303 14.2762C0.406841 13.6368 0.201098 13.0008 0 12.3634C0 12.3411 0 12.3182 0 12.2958L0.000663325 12.2979Z" fill="#410EAD"/>
<path d="M1.50781 2.18311C2.4403 2.85428 3.30906 3.47949 4.19907 4.11957C3.47698 5.38351 2.76617 6.6292 2.00292 7.96614C1.83435 5.99588 1.6744 4.12903 1.50848 2.18378L1.50781 2.18311Z" fill="#410EAD"/>
<path d="M15 14.8671C14.6921 14.8651 14.339 14.9564 14.0888 14.8327C13.8571 14.7184 13.735 14.3744 13.524 14.0729C13.2764 14.7401 12.8696 15.0827 12.1382 14.8212C12.4441 14.3893 12.7561 13.9493 13.0793 13.493C12.8098 13.1105 12.5424 12.7306 12.2265 12.2811C12.549 12.2811 12.8424 12.2014 13.0508 12.3034C13.2605 12.4055 13.3846 12.6887 13.5545 12.9023C13.7071 12.6982 13.822 12.4075 14.027 12.3075C14.2408 12.2034 14.5401 12.2845 14.8666 12.2845C14.5593 12.7171 14.2852 13.103 13.9939 13.5133C14.3323 13.9466 14.6662 14.373 15 14.7995V14.8671Z" fill="#410EAD"/>
<path d="M10.0461 3.99662C8.27931 5.37952 6.52319 6.72727 4.80224 8.11963C4.31311 8.51503 3.8306 8.7374 3.21005 8.65359C2.99303 8.62453 2.76936 8.64886 2.4707 8.64886C4.12395 5.75464 5.75132 2.90638 7.41253 0C8.30055 1.34708 9.16268 2.6563 10.0461 3.99662Z" fill="#410EAD"/>
<path d="M13.4943 2.3291C13.3092 4.4947 13.13 6.58391 12.9501 8.68395H5.38672C8.10519 6.5535 10.7626 4.47036 13.4943 2.3291Z" fill="#410EAD"/>
<path d="M12.9287 9.44434V10.7286H2.01562V9.44434H12.9287Z" fill="#410EAD"/>
<path d="M6.7583 12.2465V14.869C6.48486 14.8433 6.20544 14.992 5.96519 14.7446C5.4057 15.1481 4.73072 15.0697 4.2761 14.533C3.82213 13.9977 3.83474 13.136 4.30132 12.6169C4.63847 12.2417 5.44419 11.9511 5.87891 12.3593C6.21274 12.3168 6.46694 12.2843 6.75896 12.2471L6.7583 12.2465ZM4.71347 13.5868C4.71745 13.9484 5.01279 14.2498 5.36322 14.2505C5.70369 14.2505 6.01828 13.9342 6.02359 13.5861C6.0289 13.2252 5.70369 12.9007 5.3453 12.9089C4.99155 12.917 4.70882 13.2198 4.7128 13.5868H4.71347Z" fill="#410EAD"/>
<path d="M7.17792 14.8589C7.12084 14.5547 7.15403 14.3053 7.35181 14.0633C7.65246 13.6956 7.9166 13.2962 8.23385 12.8589H7.17858V12.3066H9.02098C9.19952 13.1887 8.36858 13.5861 8.10841 14.3012H9.02364V14.8589H7.17792Z" fill="#410EAD"/>
<path d="M11.4868 12.411C11.68 12.3231 11.8552 12.244 12.0715 12.146V12.9287C11.5373 13.0821 11.4994 13.1348 11.4981 13.7188C11.4981 14.0669 11.4954 14.415 11.4935 14.7631C11.4935 14.7847 11.4835 14.8057 11.4722 14.8543H10.7607V12.3015C11.0143 12.3015 11.2791 12.1656 11.4862 12.4116L11.4868 12.411Z" fill="#410EAD"/>
<path d="M9.43262 12.2949H10.1454V14.8634H9.43262V12.2949Z" fill="#410EAD"/>
<path d="M10.245 11.691C10.0346 11.8451 9.92443 11.987 9.79767 12.0046C9.60254 12.0323 9.46981 11.8937 9.47578 11.6761C9.48175 11.4611 9.61117 11.3239 9.81094 11.3638C9.93771 11.3895 10.0419 11.5308 10.245 11.6903V11.691Z" fill="#410EAD"/>
</svg>
