<svg width="15" height="15" viewBox="0 0 15 15" fill="none" xmlns="http://www.w3.org/2000/svg">
<path d="M0.000391209 1.59488C0.0829502 1.54159 0.158858 1.46322 0.249242 1.43893C2.04715 0.958898 3.84662 0.483964 5.64727 0.0149084C5.75291 -0.0125218 5.87969 0.0011934 5.98768 0.0294073C7.6189 0.454966 9.24817 0.886012 10.8782 1.31627C11.0383 1.35859 11.1975 1.40523 11.3587 1.44324C11.505 1.47772 11.5704 1.56354 11.57 1.71362C11.5676 3.3606 11.5692 5.00759 11.5645 6.65457C11.5637 6.87872 11.5344 7.10286 11.5183 7.327C11.514 7.38931 11.5101 7.45161 11.5074 7.49354C11.84 7.5727 12.164 7.62442 12.4711 7.72748C14.0659 8.26276 15.1204 9.85841 14.989 11.5148C14.8504 13.2625 13.5835 14.6622 11.8826 14.9463C11.7875 14.9624 11.6932 14.982 11.5982 15H10.9244C10.8974 14.9914 10.8708 14.9784 10.843 14.9749C10.1321 14.8934 9.49154 14.6356 8.93946 14.181C8.69726 13.9816 8.48401 13.7476 8.2516 13.5239C7.74489 13.949 7.18928 14.328 6.59024 14.6399C6.34883 14.7657 6.10193 14.8801 5.85738 15H5.71105C5.67309 14.9792 5.6367 14.9557 5.59719 14.9385C4.04891 14.2566 2.77179 13.2347 1.77834 11.8643C0.855718 10.592 0.289152 9.17423 0.0845154 7.61345C0.0524308 7.36776 0.0277805 7.12128 0 6.8748C0 5.11496 0 3.35512 0 1.59488H0.000391209ZM1.61127 2.74421C1.61127 2.80416 1.61127 2.85785 1.61127 2.91114C1.61127 4.04048 1.59679 5.16982 1.61792 6.29876C1.6277 6.81915 1.65979 7.34777 1.76308 7.85601C2.2467 10.2373 3.56999 12.0129 5.69344 13.1877C5.74078 13.2139 5.82608 13.2139 5.87421 13.1888C6.4756 12.8765 7.02104 12.4843 7.51209 12.0176C7.552 11.9795 7.58017 11.8984 7.57156 11.844C7.50348 11.3992 7.50661 10.9564 7.60364 10.5179C7.87675 9.28199 8.5877 8.39325 9.72827 7.84661C9.77796 7.8227 9.83352 7.75452 9.83861 7.70201C9.88478 7.2263 9.9466 6.74979 9.95325 6.2729C9.96968 5.14866 9.95834 4.02441 9.95834 2.90017V2.74891C9.92429 2.73559 9.90669 2.72697 9.88791 2.72187C8.56853 2.37469 7.24915 2.02632 5.9286 1.68384C5.83939 1.66072 5.73413 1.66033 5.64531 1.68305C4.77199 1.9072 3.90062 2.138 3.02886 2.36763C2.55815 2.49146 2.08823 2.61725 1.61088 2.74421H1.61127ZM7.70811 12.4494C7.67016 12.48 7.63534 12.5062 7.60286 12.5344C7.10438 12.9706 6.55816 13.3346 5.9732 13.6438C5.83586 13.7163 5.72279 13.7124 5.59014 13.6383C2.74049 12.054 1.25834 9.63192 1.17695 6.3693C1.14604 5.13337 1.17187 3.89627 1.17187 2.65957C1.17187 2.4413 1.21413 2.38918 1.42541 2.33354C2.82031 1.96715 4.21442 1.59841 5.61088 1.23751C5.722 1.2089 5.85386 1.20851 5.96498 1.23751C7.36105 1.59841 8.75556 1.96715 10.1505 2.33354C10.3516 2.38644 10.3977 2.44404 10.3977 2.65095C10.3977 3.89745 10.3985 5.14356 10.397 6.39007C10.397 6.56562 10.3883 6.74196 10.3758 6.91712C10.359 7.15419 10.334 7.39088 10.3128 7.62756C10.5425 7.59386 10.7636 7.56565 10.9827 7.52528C11.0167 7.51901 11.0633 7.45867 11.066 7.42066C11.0919 7.06015 11.1255 6.69924 11.1271 6.33834C11.1337 4.8916 11.1298 3.44485 11.1298 1.99811V1.84254C11.0891 1.82922 11.0617 1.81824 11.0336 1.8108C9.3233 1.35977 7.61343 0.908348 5.90238 0.460844C5.82686 0.441251 5.73726 0.444778 5.66136 0.464371C4.58144 0.744942 3.50269 1.02982 2.42395 1.31431C1.76504 1.48791 1.10653 1.66228 0.445271 1.83705C0.443314 1.8829 0.439793 1.9217 0.439793 1.96049C0.439793 3.44642 0.423751 4.93235 0.447618 6.41789C0.456618 6.99118 0.502005 7.57427 0.621736 8.13345C1.25404 11.0869 2.95569 13.2029 5.68288 14.4902C5.73883 14.5164 5.83 14.5176 5.88438 14.4902C6.24905 14.3048 6.61959 14.1265 6.96587 13.9102C7.3364 13.679 7.68229 13.4087 8.02974 13.1618C7.91471 12.9071 7.81454 12.6853 7.70811 12.4486V12.4494ZM14.5566 11.2668C14.564 9.46264 13.0917 7.96965 11.2945 7.95986C9.4669 7.95006 7.97653 9.41444 7.96675 11.2299C7.95696 13.0576 9.4219 14.5498 11.2355 14.5595C13.0623 14.5693 14.5488 13.0956 14.5566 11.2668Z" fill="#410EAD"/>
<path d="M4.8237 6.20356C4.6621 6.20356 4.50677 6.20513 4.35182 6.20317C4.20118 6.20121 4.10649 6.12009 4.1018 5.99431C4.09671 5.86225 4.19296 5.76938 4.34986 5.76507C4.50481 5.76076 4.66015 5.76429 4.82409 5.76429V4.00405C4.67306 4.00405 4.51889 4.00523 4.36473 4.00405C4.20196 4.00249 4.10571 3.92411 4.1018 3.79363C4.09788 3.65726 4.19805 3.56752 4.3663 3.56517C4.5948 3.56243 4.8237 3.56439 5.0749 3.56439C5.0749 3.3955 5.06981 3.2364 5.07607 3.07731C5.0839 2.88177 5.26271 2.76617 5.40396 2.87119C5.4603 2.91312 5.501 3.0052 5.50843 3.07848C5.52408 3.23248 5.51312 3.38883 5.51312 3.5542H6.05582C6.05582 3.40647 6.05465 3.25678 6.05582 3.10748C6.05778 2.93506 6.13916 2.83396 6.27259 2.83396C6.40523 2.83396 6.49131 2.9378 6.49405 3.1067C6.4964 3.24345 6.48896 3.38061 6.49835 3.51697C6.50109 3.55812 6.5367 3.62121 6.57113 3.63257C7.53875 3.95076 7.8326 5.28622 6.90489 5.97275C6.90176 5.97511 6.90058 5.9802 6.8955 5.98961C6.95302 6.03976 7.01366 6.08796 7.06922 6.14165C7.75669 6.81133 7.52389 7.96457 6.62787 8.31294C6.52379 8.3533 6.48309 8.40071 6.49209 8.512C6.50266 8.63818 6.49796 8.76593 6.49327 8.89289C6.48701 9.05238 6.39741 9.14211 6.26085 9.13584C6.13173 9.12996 6.05856 9.04258 6.05621 8.88388C6.05387 8.72909 6.05582 8.57392 6.05582 8.41169H5.51352C5.51352 8.57313 5.51547 8.72792 5.51312 8.8827C5.51039 9.04728 5.43096 9.13741 5.2944 9.13584C5.16059 9.13467 5.0792 9.04258 5.07529 8.87917C5.07177 8.72792 5.0745 8.57705 5.0745 8.40346C4.88122 8.40346 4.69771 8.40346 4.5142 8.40346C4.45551 8.40346 4.39682 8.40503 4.33852 8.40307C4.19844 8.39797 4.10727 8.31725 4.1018 8.19577C4.09632 8.06803 4.18749 7.97163 4.33382 7.96575C4.49385 7.95948 4.65428 7.96418 4.82331 7.96418V6.20317L4.8237 6.20356ZM5.27836 5.75958C5.60977 5.75958 5.92709 5.77251 6.24246 5.75645C6.65134 5.73529 6.99253 5.37634 7.02658 4.95941C7.06179 4.52954 6.77616 4.09575 6.35789 4.0405C6.00574 3.99426 5.64264 4.03109 5.27797 4.03109V5.75998L5.27836 5.75958ZM5.27992 7.96222C5.58629 7.96222 5.88288 7.96771 6.17947 7.96105C6.62904 7.95125 6.99723 7.59427 7.02736 7.14951C7.05788 6.69809 6.75503 6.28193 6.30546 6.22981C5.97052 6.19102 5.62738 6.22198 5.27992 6.22198V7.96222Z" fill="#410EAD"/>
<path d="M11.2695 13.8251C9.84096 13.8251 8.69766 12.6758 8.69922 11.2416C8.70079 9.83681 9.85778 8.69218 11.2754 8.69336C12.6726 8.69454 13.8269 9.85444 13.8241 11.2553C13.8214 12.6735 12.6761 13.8255 11.2695 13.8251ZM9.13862 11.2522C9.13432 12.4246 10.0808 13.3788 11.2542 13.3859C12.4144 13.3925 13.3785 12.4403 13.3847 11.2812C13.391 10.1029 12.4472 9.13812 11.2832 9.13303C10.0996 9.12793 9.14293 10.0735 9.13862 11.2522Z" fill="#410EAD"/>
<path d="M10.9588 11.7289C11.3947 11.2795 11.7977 10.8625 12.2027 10.4472C12.3607 10.2849 12.4828 10.261 12.5888 10.3625C12.6992 10.4687 12.6734 10.5961 12.5078 10.7599C12.061 11.2027 11.615 11.6459 11.1673 12.0883C10.9975 12.2564 10.9079 12.2556 10.7365 12.0863C10.4728 11.8261 10.2095 11.5652 9.94696 11.3034C9.85579 11.2125 9.83505 11.1086 9.91213 11.0009C9.97748 10.9096 10.0741 10.8931 10.1731 10.9343C10.2201 10.9539 10.26 10.9962 10.2968 11.0342C10.5061 11.2517 10.7139 11.4711 10.9584 11.7282L10.9588 11.7289Z" fill="#410EAD"/>
</svg>
