<svg width="15" height="15" viewBox="0 0 15 15" fill="none" xmlns="http://www.w3.org/2000/svg">
<path d="M5.58465 5.55316C5.3579 3.9901 5.74112 2.61687 6.82009 1.47158C7.73822 0.49705 8.88907 0.0137571 10.2278 0.000255032C12.8984 -0.0271461 15.0567 2.157 14.9971 4.84788C14.9654 6.28266 14.3808 7.47918 13.2725 8.39295C12.1641 9.30672 10.879 9.62283 9.45258 9.41394C9.68609 11.2101 9.17063 12.7323 7.77992 13.9065C6.77918 14.7516 5.59776 15.1015 4.29561 14.9748C1.69607 14.7218 -0.214863 12.4451 0.0194365 9.81305C0.268033 7.02289 2.86519 5.0647 5.58465 5.55276V5.55316ZM4.75745 13.5058C4.89049 13.4947 5.02432 13.4876 5.15656 13.4717C7.37565 13.2017 8.66986 10.8054 7.67548 8.80317C7.63577 8.72335 7.56984 8.64711 7.49797 8.59389C7.07583 8.28255 6.70929 7.9176 6.40073 7.49348C6.35347 7.42875 6.28556 7.36958 6.21408 7.33384C5.56916 7.01217 4.89049 6.91011 4.17925 7.03957C2.52724 7.34059 1.36765 8.84408 1.50784 10.5036C1.6512 12.2005 3.06017 13.4987 4.75785 13.5058H4.75745ZM14.5007 4.74423C14.5051 2.40481 12.62 0.510949 10.2762 0.500227C7.93043 0.489902 6.02625 2.38018 6.0195 4.72676C6.01274 7.07333 7.90501 8.97592 10.2504 8.97949C12.5958 8.98307 14.4964 7.08921 14.5007 4.74383V4.74423ZM5.92022 6.66152C5.86184 6.50505 5.7979 6.37043 5.76256 6.22866C5.73436 6.11587 5.66963 6.08291 5.56916 6.06504C5.10731 5.98205 4.64507 5.96656 4.17925 6.02891C1.80687 6.34779 0.131424 8.59151 0.564283 10.948C0.892699 12.7358 1.97048 13.9236 3.73646 14.3612C5.49014 14.7957 6.9837 14.2516 8.11549 12.8423C8.91568 11.8463 9.15713 10.6847 8.92997 9.42824C8.91965 9.37185 8.89185 9.29203 8.84936 9.27257C8.68972 9.1995 8.52055 9.14708 8.33033 9.07798C8.61506 10.0076 8.57058 10.9047 8.17942 11.7732C7.78468 12.6497 7.13937 13.285 6.25896 13.6703C4.75864 14.3271 3.03158 13.9351 1.93911 12.6993C0.879198 11.5004 0.719556 9.71853 1.53603 8.32663C2.2985 7.02647 3.98824 6.09205 5.91982 6.66191L5.92022 6.66152Z" fill="#410EAD"/>
<path d="M12.0054 10.7306C12.0054 10.5582 12.0034 10.4097 12.0058 10.2616C12.0097 10.04 12.0987 9.86684 12.3088 9.7759C12.5181 9.68536 12.7059 9.73421 12.8691 9.8863C13.4779 10.4538 14.0879 11.0205 14.6947 11.5903C14.9425 11.8227 14.946 12.1268 14.7002 12.358C14.0906 12.9318 13.4767 13.5013 12.8643 14.0723C12.7043 14.2216 12.5188 14.2633 12.3155 14.1807C12.1035 14.0946 12.0105 13.923 12.0058 13.7006C12.0026 13.5481 12.005 13.3956 12.005 13.2265C11.9379 13.2265 11.885 13.2265 11.8322 13.2265C11.094 13.2265 10.3553 13.2265 9.6171 13.2257C9.55833 13.2257 9.49638 13.2257 9.44118 13.2094C9.32403 13.174 9.26049 13.0887 9.26486 12.9648C9.26923 12.8405 9.34309 12.765 9.45945 12.7324C9.49678 12.7221 9.53808 12.7245 9.57739 12.7245C10.3752 12.7245 11.173 12.7229 11.9708 12.7245C12.302 12.7253 12.503 12.9314 12.5053 13.2658C12.5061 13.404 12.5053 13.5422 12.5053 13.7233C13.1391 13.1323 13.7475 12.5645 14.3746 11.9799C13.7571 11.4013 13.1455 10.8283 12.5049 10.2278C12.5049 10.4037 12.5053 10.5443 12.5049 10.6845C12.5034 11.0177 12.3056 11.2266 11.972 11.2294C11.4172 11.2341 10.8621 11.2325 10.3069 11.2298C10.1222 11.229 10.0043 11.1198 10.0103 10.9688C10.0162 10.8223 10.129 10.7306 10.3101 10.7302C10.8156 10.7294 11.3211 10.7302 11.8263 10.7302C11.8799 10.7302 11.9331 10.7302 12.0042 10.7302L12.0054 10.7306Z" fill="#410EAD"/>
<path d="M0.654816 2.98962C1.27392 3.56901 1.88271 4.13928 2.52087 4.73694C2.52087 4.56816 2.52087 4.43711 2.52087 4.30646C2.52167 3.94231 2.71785 3.74375 3.07883 3.74335C3.62367 3.74295 4.16852 3.74255 4.71376 3.74335C4.90914 3.74335 5.01557 3.8331 5.01478 3.99195C5.01398 4.14881 4.90557 4.24094 4.71098 4.24173C4.20585 4.24332 3.70032 4.24213 3.19518 4.24253C3.14236 4.24253 3.08915 4.24253 3.02045 4.24253C3.02045 4.4113 3.01965 4.5638 3.02045 4.71589C3.02204 4.93589 2.92752 5.1011 2.72698 5.19084C2.52087 5.28298 2.32986 5.24048 2.16545 5.0872C1.5527 4.51694 0.939153 3.94747 0.328782 3.37443C0.0873341 3.14767 0.0845544 2.8411 0.32362 2.61633C0.93677 2.03931 1.55349 1.46588 2.17062 0.892834C2.32986 0.745106 2.51651 0.700629 2.71943 0.790378C2.91998 0.879332 3.01886 1.04096 3.02005 1.26096C3.02085 1.41425 3.02005 1.56754 3.02005 1.74743C3.08399 1.74743 3.14038 1.74743 3.19717 1.74743C3.9501 1.74743 4.70304 1.74704 5.45637 1.74743C5.63944 1.74743 5.73475 1.81256 5.75858 1.94639C5.7836 2.08578 5.70576 2.20531 5.56757 2.2343C5.52428 2.24343 5.47901 2.24462 5.43453 2.24462C4.65181 2.24502 3.86909 2.24621 3.08637 2.24462C2.71586 2.24383 2.52246 2.04527 2.52048 1.67198C2.51968 1.5453 2.52048 1.41822 2.52048 1.25024C1.88191 1.84592 1.27273 2.4138 0.654816 2.99041V2.98962Z" fill="#410EAD"/>
<path d="M4.50896 8.25249C4.5455 8.04599 4.44026 7.74021 4.77384 7.74418C5.09511 7.74815 4.99583 8.04241 5.02204 8.24653C5.05857 8.25726 5.09471 8.26798 5.13124 8.2787C5.63558 8.42246 5.92628 8.75604 6.00967 9.2711C6.03747 9.44305 5.95527 9.57569 5.81191 9.60071C5.65822 9.62771 5.54464 9.52962 5.51605 9.34536C5.46999 9.04514 5.27143 8.80329 4.98749 8.75365C4.62968 8.69051 4.35726 8.73459 4.13964 9.03362C3.83704 9.4494 4.20477 9.88584 4.53318 9.95613C4.64795 9.98075 4.76868 9.97916 4.88702 9.98353C5.41121 10.0038 5.87862 10.3941 5.98902 10.9064C6.09982 11.4215 5.75829 11.9918 5.21782 12.1506C5.05341 12.1991 4.99781 12.2598 5.01171 12.4286C5.0268 12.6128 4.92633 12.7197 4.77503 12.7236C4.61976 12.7276 4.50856 12.6164 4.52365 12.4262C4.53716 12.2542 4.47322 12.2006 4.31477 12.1486C3.86682 12.0017 3.60909 11.6741 3.53006 11.2102C3.4971 11.0176 3.5809 10.8818 3.73498 10.8568C3.88668 10.8326 3.9943 10.9362 4.02686 11.1383C4.07968 11.466 4.32708 11.6951 4.66106 11.7261C5.05698 11.7626 5.35959 11.5954 5.47793 11.275C5.59706 10.9513 5.33258 10.5514 4.95334 10.4934C4.81712 10.4728 4.67655 10.4811 4.53914 10.4652C4.01653 10.4049 3.56739 9.93627 3.5257 9.41366C3.48837 8.94348 3.85292 8.4435 4.34058 8.29657C4.39221 8.28108 4.44542 8.26877 4.50817 8.25249H4.50896Z" fill="#410EAD"/>
<path d="M14.0015 4.73561C14.0083 6.80062 12.3364 8.47606 10.2647 8.48043C8.19648 8.4848 6.52302 6.81531 6.51905 4.74474C6.51547 2.67496 8.18258 1.00349 10.2543 0.999519C12.3221 0.995548 13.9948 2.66344 14.0015 4.73561ZM10.2615 1.49393C8.47605 1.49195 7.02061 2.9446 7.01426 4.73402C7.0083 6.51708 8.45977 7.97569 10.2504 7.98523C12.035 7.99476 13.5083 6.52502 13.5063 4.7368C13.5044 2.95056 12.0489 1.49592 10.2615 1.49393Z" fill="#410EAD"/>
<path d="M11.4258 4.73627C12.0965 5.39588 11.6847 6.44189 10.7554 6.4959C10.7554 6.57691 10.7598 6.65951 10.7546 6.74171C10.7455 6.88825 10.6431 6.98594 10.5068 6.98395C10.377 6.98237 10.2781 6.89063 10.2654 6.75005C10.2583 6.66745 10.2642 6.58366 10.2642 6.49193H10.0081C10.0081 6.57651 10.012 6.65911 10.0073 6.74092C9.99933 6.87951 9.90283 6.97681 9.77377 6.98356C9.64629 6.99031 9.5355 6.90135 9.51644 6.76554C9.50412 6.67857 9.5069 6.58922 9.50214 6.48279C9.34845 6.48279 9.20112 6.48398 9.05419 6.48279C8.87509 6.48081 8.76271 6.3851 8.76271 6.23658C8.76271 6.08925 8.87469 5.99314 9.05419 5.98759C9.11813 5.9856 9.18206 5.98759 9.25434 5.98759V4.99082C9.17928 4.99082 9.10264 4.99399 9.02599 4.99002C8.87231 4.98208 8.7639 4.87764 8.76271 4.74143C8.76151 4.60601 8.87032 4.49839 9.02242 4.49005C9.09589 4.48608 9.16975 4.48926 9.25315 4.48926V3.49209C9.17412 3.49209 9.10026 3.49646 9.02758 3.4913C8.86238 3.47978 8.75556 3.37216 8.7631 3.23039C8.77065 3.0922 8.87588 2.99967 9.03672 2.99689C9.18881 2.99411 9.34131 2.99609 9.49777 2.99609C9.53113 2.78602 9.44654 2.49533 9.77218 2.50367C10.0768 2.51161 9.99258 2.78443 10.0164 2.98378H10.2519C10.2555 2.9119 10.2579 2.83526 10.2626 2.75901C10.2729 2.59818 10.3667 2.49771 10.5072 2.49612C10.6546 2.49414 10.7515 2.59778 10.757 2.76696C10.7594 2.83566 10.757 2.90436 10.757 2.98497C11.2006 3.02111 11.531 3.22086 11.6899 3.63664C11.8503 4.056 11.732 4.42294 11.4262 4.73627H11.4258ZM9.77139 4.48727C10.1256 4.48727 10.4663 4.49521 10.8063 4.48449C11.0461 4.47695 11.2391 4.26925 11.2558 4.03098C11.2733 3.7804 11.1089 3.52823 10.8698 3.51235C10.5076 3.48852 10.1431 3.50599 9.77178 3.50599V4.48688L9.77139 4.48727ZM9.77258 5.98242C10.1212 5.98242 10.4612 5.99235 10.8007 5.97925C11.0719 5.96852 11.263 5.74217 11.2566 5.47371C11.2503 5.20884 11.043 4.99836 10.7721 4.9928C10.4953 4.98724 10.2185 4.99122 9.94175 4.99082C9.88496 4.99082 9.82778 4.99082 9.77297 4.99082V5.98203L9.77258 5.98242Z" fill="#410EAD"/>
</svg>
