<svg width="15" height="15" viewBox="0 0 15 15" fill="none" xmlns="http://www.w3.org/2000/svg">
<path d="M5.74891 0.487305C8.04221 0.509428 9.86499 2.43206 9.74516 4.71701C9.62576 6.99068 7.60342 8.71671 5.3381 8.47836C3.21472 8.25463 1.63785 6.41381 1.75516 4.28414C1.80192 3.43971 2.0925 2.68126 2.62021 2.01714C2.74129 1.86479 2.89033 1.84433 3.00932 1.95578C3.11787 2.05763 3.11828 2.18286 3.00389 2.33104C2.70037 2.723 2.48494 3.15711 2.35928 3.63714C1.82656 5.66997 3.25689 7.75164 5.34144 7.97621C7.23394 8.17991 8.8989 6.91513 9.21036 5.03758C9.52974 3.11161 8.10608 1.24367 6.1614 1.02995C5.31555 0.936864 4.5386 1.12095 3.8251 1.58011C3.71238 1.65274 3.60425 1.70116 3.48067 1.6135C3.32703 1.50455 3.34122 1.30336 3.5149 1.18523C3.97748 0.87133 4.48558 0.663873 5.03625 0.569536C5.2713 0.529464 5.51094 0.514437 5.74849 0.488139L5.74891 0.487305Z" fill="#410EAD"/>
<path d="M5.2373 10.495C5.24315 10.0583 5.31329 9.63424 5.45524 9.22225C5.51619 9.04568 5.64144 8.97305 5.78547 9.02398C5.93076 9.07532 5.98378 9.20514 5.9316 9.38296C5.92116 9.41802 5.90905 9.45225 5.89862 9.48689C5.69112 10.1802 5.6953 10.8736 5.91406 11.5619C6.39961 13.0884 7.87962 14.0994 9.46568 13.9958C11.0806 13.8907 12.4082 12.7044 12.6929 11.1115C13.024 9.26065 11.8425 7.4933 10.0022 7.08674C9.75668 7.03247 9.65314 6.92394 9.69238 6.76115C9.73121 6.59961 9.86773 6.54702 10.1145 6.59878C11.7648 6.94398 13.052 8.38282 13.2227 10.0725C13.4406 12.2285 11.9443 14.1511 9.80636 14.4625C7.60199 14.7835 5.5308 13.1906 5.27613 10.9767C5.25776 10.8168 5.25025 10.6552 5.23772 10.4945L5.2373 10.495Z" fill="#410EAD"/>
<path d="M14.295 4.50217C14.034 4.50217 13.8019 4.503 13.5702 4.50217C13.3343 4.50133 13.2537 4.41827 13.25 4.18243C13.2412 3.66232 13.2696 3.13763 13.2124 2.62295C13.068 1.32144 11.7516 0.33967 10.4557 0.521664C9.98519 0.587617 9.56352 0.754167 9.18986 1.04803C9.04332 1.16324 8.8997 1.15238 8.80577 1.02883C8.711 0.904437 8.73938 0.77629 8.88927 0.653151C10.548 -0.70805 13.1406 0.167693 13.6541 2.26856C13.7142 2.514 13.7343 2.77155 13.7468 3.02492C13.7623 3.34174 13.7506 3.65982 13.7506 4.00252C13.9242 4.00252 14.0933 4.00252 14.2628 4.00252C14.3981 4.00252 14.5338 4.00544 14.6691 4.00168C14.7897 3.99834 14.8987 4.01713 14.9663 4.13108C15.0364 4.24921 14.9851 4.34981 14.9208 4.44999C14.515 5.08614 14.1104 5.72312 13.7055 6.35968C13.5518 6.60095 13.3999 6.84347 13.2441 7.0839C13.0968 7.31139 12.9018 7.31098 12.7548 7.08098C12.1921 6.19939 11.6314 5.31655 11.069 4.43455C11.006 4.33562 10.9588 4.2225 11.0419 4.13275C11.1041 4.06597 11.2135 4.01295 11.3049 4.00836C11.6113 3.99333 11.9186 4.00252 12.2501 4.00252C12.2501 3.92154 12.2501 3.84599 12.2501 3.77043C12.2501 3.51539 12.2468 3.25993 12.2522 3.00489C12.2555 2.8542 12.3591 2.75569 12.4968 2.7536C12.6346 2.75193 12.7457 2.84961 12.7473 2.99821C12.7528 3.41479 12.7528 3.83138 12.7477 4.24796C12.7457 4.41034 12.645 4.49883 12.4735 4.50133C12.2288 4.50467 11.9841 4.50217 11.7061 4.50217C12.1399 5.18423 12.5615 5.84751 12.9999 6.53667C13.4354 5.85293 13.857 5.19007 14.295 4.50217Z" fill="#410EAD"/>
<path d="M1.24956 11.0015C0.929761 11.0015 0.628747 10.9994 0.327734 11.0023C0.206661 11.0036 0.0989476 10.9844 0.0321486 10.8696C-0.0367379 10.7506 0.0171187 10.6513 0.0809953 10.5511C0.637515 9.67787 1.19236 8.80421 1.7493 7.93097C1.89751 7.69847 2.10167 7.69721 2.24946 7.92888C2.80932 8.80588 3.36709 9.68454 3.92653 10.5615C3.98874 10.6588 4.0284 10.7565 3.96661 10.8679C3.90566 10.9777 3.80504 11.0028 3.68814 11.0015C3.3817 10.999 3.07568 11.0007 2.75003 11.0007C2.75003 11.2958 2.75003 11.58 2.75003 11.8643C2.75003 11.9165 2.75337 11.9691 2.74753 12.0204C2.73208 12.1577 2.62687 12.2546 2.4962 12.2483C2.35801 12.2412 2.25864 12.164 2.25614 12.0283C2.24695 11.5913 2.24779 11.1539 2.25656 10.7168C2.25948 10.5787 2.37137 10.5031 2.53335 10.5014C2.77675 10.4989 3.02015 10.5006 3.29486 10.5006C2.859 9.81561 2.43691 9.15275 2.00063 8.46652C1.56519 9.15025 1.14477 9.8106 0.705566 10.5006C0.944373 10.5006 1.15896 10.5006 1.37356 10.5006C1.68501 10.5006 1.7468 10.5653 1.75139 10.8725C1.75849 11.3768 1.73135 11.886 1.78855 12.3848C1.93843 13.6876 3.24894 14.6618 4.54943 14.4798C5.01452 14.4147 5.4316 14.249 5.80192 13.9618C5.95388 13.8437 6.09166 13.8462 6.18643 13.9639C6.28955 14.0916 6.26241 14.2265 6.10752 14.3521C4.39621 15.7409 1.72509 14.7766 1.32221 12.6081C1.23745 12.1532 1.27085 11.676 1.25081 11.209C1.24831 11.1472 1.25081 11.085 1.25081 11.0007L1.24956 11.0015Z" fill="#410EAD"/>
<path d="M6.50919 6.50385C6.47538 6.9054 6.42611 6.99807 6.25243 7.00058C6.07458 7.00308 6.02072 6.90457 5.99067 6.51261H5.50637C5.47923 6.70588 5.56774 6.99682 5.24419 6.99264C4.93357 6.98847 5.01456 6.70922 4.99411 6.50176C4.85174 6.50176 4.71773 6.50176 4.58371 6.50176C4.37997 6.50093 4.2756 6.43414 4.25264 6.29055C4.23093 6.15572 4.30649 6.05971 4.49353 5.99001L4.49353 3.01506C4.47683 3.0088 4.45429 3.00087 4.43174 2.99252C4.30232 2.94577 4.23343 2.85269 4.25431 2.71703C4.27602 2.57385 4.37371 2.50414 4.51816 2.50331C4.67305 2.50247 4.82794 2.50331 4.99244 2.50331C5.01707 2.29543 4.93065 2.02662 5.25671 2.007C5.43248 1.99656 5.48592 2.10968 5.5047 2.49037H5.99275C6.02031 2.30003 5.92888 1.99823 6.26412 2.01284C6.57516 2.0262 6.47663 2.31046 6.50544 2.49788C7.38217 2.85645 7.56587 3.39283 7.08784 4.20053C7.53873 4.54824 7.75082 4.99864 7.60344 5.56507C7.45983 6.11774 7.06947 6.41202 6.50877 6.50468L6.50919 6.50385ZM5.00538 6.00128C5.4855 6.00128 5.9485 6.00629 6.4115 5.99961C6.82649 5.99376 7.1538 5.65357 7.15046 5.24658C7.14671 4.8371 6.81939 4.50942 6.40106 4.50316C6.10965 4.49857 5.81824 4.50316 5.52641 4.50149C5.35065 4.50066 5.2517 4.41133 5.24878 4.2573C5.24586 4.09618 5.34731 4.00309 5.53142 4.00226C5.79695 4.00101 6.06247 4.00435 6.328 4.00142C6.63068 3.99808 6.84903 3.78228 6.84569 3.49468C6.84277 3.21584 6.62484 3.0063 6.32884 3.00296C6.06331 3.00004 5.79778 3.00212 5.53226 3.00212C5.35733 3.00212 5.1824 3.00212 5.00538 3.00212V6.00128Z" fill="#410EAD"/>
<path d="M7.74499 9.75132C7.77129 9.24458 7.9721 8.84678 8.36288 8.54415C8.94987 8.09 10.2796 8.07205 10.7944 8.99621C10.8198 9.04171 10.8465 9.08679 10.8662 9.13438C10.9267 9.28089 10.8791 9.4153 10.7476 9.47666C10.6228 9.5351 10.4967 9.48877 10.4178 9.35644C10.3727 9.28047 10.3343 9.19908 10.2792 9.13104C9.94142 8.71195 9.48134 8.68857 9.0125 8.78792C8.59876 8.87516 8.35411 9.1636 8.26643 9.57935C8.26017 9.60982 8.256 9.64071 8.25308 9.67201C8.25099 9.69247 8.25308 9.71334 8.25308 9.75132C8.42759 9.75132 8.59834 9.75132 8.7691 9.75132C9.08681 9.75132 9.40452 9.74924 9.72182 9.75216C9.89383 9.75383 10.0003 9.85442 9.99903 10.003C9.99778 10.1512 9.8909 10.2493 9.71764 10.2501C9.29055 10.2526 8.86387 10.251 8.43677 10.251C8.38041 10.251 8.32447 10.251 8.25934 10.251V10.751C8.30985 10.751 8.36413 10.751 8.41882 10.751C8.84049 10.751 9.26216 10.7506 9.68425 10.751C9.88464 10.751 9.99653 10.8395 9.99945 10.9961C10.0024 11.1576 9.88715 11.2503 9.67798 11.2507C9.26132 11.2515 8.84508 11.2507 8.42842 11.2507C8.37248 11.2507 8.31612 11.2507 8.26059 11.2507C8.24222 11.7549 8.65387 12.2057 9.16321 12.2454C9.3181 12.2575 9.47759 12.2608 9.63081 12.24C9.97858 12.1928 10.2358 12.0058 10.3977 11.6915C10.4892 11.5145 10.6228 11.4573 10.7601 11.5312C10.8971 11.6051 10.9313 11.7524 10.8395 11.9227C10.5631 12.4362 10.1322 12.715 9.54981 12.7484C9.19828 12.7684 8.85134 12.7484 8.5353 12.566C8.03514 12.278 7.78089 11.8384 7.74457 11.2607C7.55043 11.2273 7.25652 11.3229 7.25944 10.9973C7.26236 10.6855 7.54125 10.7661 7.74206 10.7464V10.251C7.67986 10.251 7.61514 10.2518 7.55002 10.251C7.36256 10.248 7.25401 10.1583 7.25151 10.0047C7.249 9.85108 7.3588 9.75508 7.5425 9.75132C7.60429 9.75007 7.6665 9.75132 7.7454 9.75132H7.74499Z" fill="#410EAD"/>
<path d="M12.3315 2.28873C12.187 2.28998 12.0789 2.17811 12.0806 2.02909C12.0823 1.87924 12.1896 1.76904 12.334 1.76904C12.4718 1.76904 12.5753 1.88467 12.5757 2.03995C12.5757 2.18145 12.4722 2.28748 12.3319 2.28873H12.3315Z" fill="#410EAD"/>
<path d="M2.66516 12.7162C2.81254 12.7142 2.91691 12.8206 2.91607 12.9721C2.91524 13.1266 2.81337 13.233 2.66767 13.2322C2.52572 13.2313 2.42552 13.122 2.42385 12.9654C2.42218 12.8239 2.52488 12.7179 2.66558 12.7158L2.66516 12.7162Z" fill="#410EAD"/>
</svg>
