<svg width="15" height="16" viewBox="0 0 15 16" fill="none" xmlns="http://www.w3.org/2000/svg">
<path d="M0 1.25028C0.165653 0.708419 0.585072 0.48132 1.04287 0.31684C1.86487 0.0212782 2.71585 -0.0329916 3.57505 0.0158513C4.19184 0.050918 4.80041 0.141924 5.37256 0.407847C5.51472 0.473806 5.65257 0.55688 5.77945 0.652061C6.05711 0.859957 6.19182 1.14174 6.19026 1.51579C6.18282 3.31755 6.18047 5.11931 6.19143 6.92107C6.19417 7.35523 6.02499 7.65663 5.69682 7.88039C5.33693 8.12628 4.93435 8.25444 4.52002 8.3325C3.42467 8.53873 2.33285 8.52913 1.25238 8.22104C1.093 8.17554 0.935959 8.11417 0.784404 8.04404C0.42451 7.87789 0.125317 7.64077 0 7.21872V1.25028ZM5.30677 2.45967C3.82764 2.93975 2.35909 2.93515 0.879567 2.45507C0.879567 2.53606 0.879567 2.61788 0.879567 2.69971C0.879567 3.38601 0.877609 3.39436 1.51085 3.57345C2.43193 3.83436 3.36554 3.84981 4.29836 3.66654C4.59677 3.60768 4.88461 3.48078 5.17284 3.3714C5.22845 3.35011 5.29776 3.26787 5.30129 3.20984C5.31539 2.96145 5.30716 2.71181 5.30716 2.45967H5.30677ZM5.30677 4.36621C3.81864 4.84629 2.35204 4.84044 0.879567 4.3612C0.879567 4.59247 0.872518 4.81665 0.884266 5.03957C0.887791 5.10303 0.932043 5.19195 0.98217 5.2195C1.13686 5.30508 1.29859 5.38523 1.46621 5.43407C2.4053 5.70751 3.35731 5.72797 4.30972 5.53802C4.60813 5.47874 4.89519 5.34975 5.18302 5.24037C5.23472 5.22075 5.29855 5.14227 5.30129 5.08758C5.31421 4.84921 5.30677 4.61001 5.30677 4.36621ZM0.879567 6.2214C0.879567 6.47439 0.874476 6.71317 0.883875 6.95113C0.885833 7.00039 0.930477 7.06927 0.972771 7.09098C1.1349 7.17363 1.29859 7.26005 1.47091 7.31014C2.4053 7.58274 3.35261 7.60153 4.30032 7.41576C4.59873 7.35732 4.88618 7.22874 5.1748 7.12062C5.22845 7.10058 5.29777 7.02627 5.3009 6.97283C5.3146 6.73029 5.30677 6.48649 5.30677 6.22433C4.58111 6.50778 3.84174 6.59336 3.09141 6.59253C2.34107 6.59169 1.60288 6.50027 0.879959 6.22099L0.879567 6.2214ZM0.924211 1.42478C1.05971 1.48782 1.1721 1.55085 1.29037 1.59385C2.03287 1.86228 2.79965 1.90695 3.57466 1.85852C4.0583 1.82847 4.53529 1.75249 4.98956 1.56129C5.08081 1.52288 5.16579 1.4682 5.26487 1.41476C4.44874 0.786066 1.6812 0.789406 0.924211 1.42436V1.42478Z" fill="#410EAD"/>
<path d="M8.82522 16.0002V15.0647H9.69774V14.1308H7.07471V8.47754H14.9998V14.1199H12.3525V15.0592H13.2231V16.0002H8.82483H8.82522ZM7.95192 13.1765H14.1202V9.41516H7.95192V13.1765ZM10.5949 14.132V15.05H11.4561V14.132H10.5949Z" fill="#410EAD"/>
<path d="M10.1371 5.80652C9.65502 5.29304 9.16158 4.76746 8.6748 4.24939C9.1608 3.73341 9.65463 3.20908 10.134 2.7002C10.3215 2.89891 10.5244 3.11306 10.7445 3.34642C10.6243 3.4583 10.4794 3.59356 10.3341 3.72882C10.3439 3.74552 10.354 3.76222 10.3638 3.77891H12.336V7.52061H11.4658V4.7278H10.3466C10.5021 4.8735 10.6454 5.0075 10.7711 5.12522C10.5303 5.38405 10.327 5.6028 10.1371 5.80735V5.80652Z" fill="#410EAD"/>
<path d="M6.3407 12.6943C5.85392 13.2112 5.35971 13.7359 4.87606 14.2498C4.68339 14.0431 4.4821 13.8269 4.26475 13.594C4.38459 13.4733 4.524 13.3326 4.69435 13.1615H2.67871V9.41602H3.543V12.2067H4.66028C4.51186 12.0602 4.37166 11.9216 4.24125 11.793C4.47309 11.5463 4.67516 11.3309 4.8694 11.1238C5.35187 11.6386 5.84453 12.1646 6.3407 12.6939V12.6943Z" fill="#410EAD"/>
</svg>
