<svg width="15" height="16" viewBox="0 0 15 16" fill="none" xmlns="http://www.w3.org/2000/svg">
<path d="M1.25021 10.5006C1.31406 10.5006 1.35997 10.5006 1.40547 10.5006C1.51398 10.5006 1.62249 10.5006 1.74979 10.5006C1.74979 10.567 1.74979 10.6221 1.74979 10.6776C1.74979 11.3491 1.74854 12.0211 1.74979 12.6926C1.75229 13.7377 2.50814 14.4985 3.55112 14.4994C6.18092 14.5015 8.81114 14.5015 11.4409 14.4994C12.4935 14.4985 13.2469 13.7394 13.2498 12.6839C13.2498 12.5695 13.2498 12.4547 13.2498 12.3404C13.2506 12.09 13.3166 12.0178 13.5991 11.991C13.2661 11.6834 12.9497 11.3909 12.6254 11.0912C12.3007 11.3909 11.9852 11.6822 11.6621 11.9806C11.9614 12.0382 11.9998 12.0866 11.9998 12.3905C11.9998 13.0975 11.5945 13.5006 10.8842 13.5006C8.62416 13.5006 6.36373 13.5006 4.10371 13.5006C3.40672 13.5006 2.99979 13.0929 2.99937 12.3946C2.99937 11.7707 2.99937 11.1463 2.99937 10.5115H3.49937C3.49937 10.5695 3.49937 10.625 3.49937 10.6805C3.49937 11.269 3.49854 11.8575 3.49937 12.4455C3.49979 12.7957 3.70179 12.9998 4.05029 13.0002C6.35204 13.0011 8.65379 13.0011 10.956 13.0002C11.2748 13.0002 11.4743 12.817 11.4923 12.5006C11.342 12.5006 11.1922 12.4986 11.0424 12.5011C10.9155 12.5031 10.817 12.4606 10.7681 12.3374C10.7181 12.2118 10.7736 12.1171 10.8646 12.0336C11.3817 11.5574 11.8975 11.0799 12.4151 10.6041C12.5703 10.4614 12.6801 10.4618 12.8374 10.6066C13.3508 11.0791 13.8625 11.5532 14.3762 12.0257C14.471 12.1129 14.5336 12.2089 14.4793 12.3416C14.4255 12.4718 14.3174 12.5048 14.1868 12.5011C14.0474 12.4973 13.9075 12.5002 13.7748 12.5002C13.746 12.759 13.7398 13.0098 13.6872 13.2502C13.4672 14.2611 12.5661 14.9948 11.5298 14.9973C8.84244 15.0031 6.15546 15.0044 3.46807 14.9973C2.24895 14.994 1.25897 13.991 1.25021 12.7719C1.24478 12.0228 1.24937 11.2732 1.24937 10.5006H1.25021Z" fill="#410EAD"/>
<path d="M3.75559 2.50172C3.91711 2.50172 4.06778 2.50297 4.21803 2.50172C4.33907 2.50047 4.4313 2.54554 4.4793 2.66073C4.52813 2.77843 4.48598 2.87401 4.39875 2.95497C3.8712 3.44287 3.34408 3.93118 2.81403 4.41658C2.68047 4.53886 2.56403 4.53427 2.42713 4.40865C1.90543 3.92993 1.38581 3.44871 0.864947 2.96875C0.773962 2.88486 0.71887 2.79053 0.768953 2.66449C0.817785 2.54137 0.916282 2.49922 1.04316 2.50172C1.1884 2.50464 1.33364 2.50255 1.48556 2.50255C1.49975 2.30431 1.50268 2.11316 1.52813 1.92451C1.67463 0.848967 2.61369 0.00881789 3.69883 0.00589636C6.31861 -0.00161616 8.93798 -0.00245111 11.5578 0.00631349C12.7101 0.0100697 13.7009 0.964994 13.7426 2.11691C13.7706 2.89195 13.7493 3.66825 13.7497 4.44412C13.7497 4.45873 13.7431 4.47292 13.7381 4.49462H13.251V4.3306C13.251 3.65906 13.2522 2.98711 13.251 2.31558C13.2485 1.2609 12.4926 0.504226 11.4388 0.503392C8.89749 0.50214 6.35576 0.50214 3.81444 0.503392C2.76019 0.503809 2.00434 1.26132 2.00101 2.31432C2.00101 2.41867 2.00101 2.52259 2.00101 2.62693C2.00101 2.91407 1.95468 2.97 1.66169 3.02134C1.98598 3.32058 2.30151 3.6119 2.62621 3.91199C2.94883 3.61441 3.26478 3.32309 3.57112 3.04053C3.47721 2.99212 3.36369 2.9675 3.3111 2.89738C3.25893 2.8281 3.25393 2.71291 3.25351 2.61775C3.24934 1.90656 3.65334 1.50297 4.36202 1.50297C6.54399 1.50297 8.72637 1.50297 10.9083 1.50297C11.5878 1.50297 12.0006 1.91324 12.0014 2.58895C12.0018 3.21875 12.0014 3.84855 12.0014 4.49045H11.5014V4.32726C11.5014 3.73878 11.5022 3.1503 11.5014 2.56224C11.501 2.20331 11.2994 2.00339 10.9392 2.00297C8.73097 2.00297 6.5227 2.00297 4.31486 2.00297C3.98139 2.00297 3.78189 2.17618 3.75726 2.50297L3.75559 2.50172Z" fill="#410EAD"/>
<path d="M2.4904 9.99986C1.11436 9.99986 -0.00291582 8.87132 5.71654e-06 7.48401C0.00292725 6.12299 1.13106 4.99987 2.49333 5.00196C3.88022 5.00404 5.00167 6.12341 4.99917 7.50279C4.99666 8.88676 3.87813 10.0003 2.4904 10.0003V9.99986ZM4.49958 7.49528C4.49791 6.39553 3.60267 5.50362 2.49833 5.50154C1.40234 5.49945 0.498336 6.40346 0.500423 7.49903C0.502092 8.60295 1.3965 9.50028 2.49458 9.50028C3.6056 9.50028 4.50167 8.60421 4.5 7.49528H4.49958Z" fill="#410EAD"/>
<path d="M12.5076 9.99986C11.1149 9.99944 9.99757 8.87883 10.0005 7.48484C10.0034 6.11589 11.1274 5.00321 12.5084 5.00195C13.8761 5.0007 15.0047 6.13259 15.0001 7.50195C14.9955 8.88092 13.8782 10.0007 12.5076 10.0003V9.99986ZM10.5005 7.49736C10.498 8.59711 11.3911 9.49569 12.4926 9.5007C13.5894 9.50571 14.498 8.60587 14.5001 7.51197C14.5022 6.40721 13.6107 5.50404 12.5151 5.50154C11.4024 5.49861 10.5034 6.38968 10.5005 7.49736Z" fill="#410EAD"/>
<path d="M5.97392 11.1111C5.81824 11.0331 5.6801 10.9638 5.52734 10.8874C6.6922 8.55813 7.85414 6.23467 9.02609 3.8916C9.17467 3.96464 9.31657 4.03434 9.47434 4.11197C8.30823 6.44377 7.14629 8.76722 5.97392 11.1111Z" fill="#410EAD"/>
<path d="M1.68232 6.55288C1.78291 6.68561 1.87598 6.80873 1.96613 6.92809C1.96154 6.94604 1.96196 6.96148 1.95653 6.9644C1.7466 7.0654 1.75995 7.24988 1.74201 7.44687C1.71363 7.76073 1.80127 7.98068 2.08508 8.1326C2.23032 8.21023 2.35386 8.32792 2.50077 8.43769C2.73574 8.26156 2.97364 8.08627 3.20611 7.90472C3.23491 7.88218 3.24743 7.82375 3.24827 7.7816C3.25286 7.5942 3.25369 7.40681 3.24785 7.21941C3.24618 7.17392 3.22615 7.11382 3.19276 7.08752C2.96822 6.91098 2.73783 6.74195 2.50494 6.56666C2.44484 6.60839 2.38975 6.64596 2.31546 6.69729C2.2203 6.57083 2.12514 6.44479 2.01663 6.30038C2.14685 6.20647 2.26246 6.09921 2.39852 6.03452C2.46613 6.00238 2.59176 6.01824 2.65561 6.0629C2.98783 6.29579 3.31337 6.53953 3.63057 6.79245C3.69359 6.84295 3.74159 6.94854 3.74493 7.03118C3.75828 7.34295 3.75912 7.65597 3.74451 7.96774C3.74033 8.05372 3.6865 8.16265 3.61972 8.21649C3.31129 8.46398 2.98992 8.6952 2.67397 8.9331C2.55252 9.0245 2.4365 9.01699 2.31713 8.926C2.0062 8.69019 1.68817 8.46315 1.38474 8.21774C1.31505 8.1614 1.26162 8.04662 1.2562 7.95564C1.23992 7.67016 1.2562 7.38302 1.24785 7.09712C1.24326 6.94061 1.29251 6.82667 1.42565 6.74278C1.51246 6.68811 1.59134 6.62091 1.68274 6.55247L1.68232 6.55288Z" fill="#410EAD"/>
<path d="M12.7504 8.99467H12.2571V8.50886H11.7613V8.00093C12.0272 8.00093 12.2909 8.00009 12.5547 8.00134C12.649 8.00176 12.7463 7.99675 12.745 7.87447C12.7438 7.75176 12.6453 7.75009 12.5518 7.75051C12.4583 7.75051 12.3627 7.75635 12.2713 7.74091C11.9925 7.69458 11.7818 7.46587 11.7534 7.18999C11.7254 6.91787 11.8732 6.65702 12.1348 6.55477C12.2329 6.51679 12.2584 6.46838 12.2525 6.3728C12.245 6.25469 12.2509 6.13574 12.2509 6.00928H12.7442V6.49843H13.2429V7.00093C13.0226 7.00093 12.8009 7.00093 12.5793 7.00093C12.5117 7.00093 12.4391 6.98674 12.3777 7.00677C12.3293 7.02263 12.2943 7.08023 12.2534 7.11946C12.2951 7.16287 12.3306 7.23048 12.3807 7.24467C12.4583 7.26595 12.5459 7.24926 12.629 7.25135C12.9403 7.25969 13.1883 7.47088 13.2429 7.77305C13.2934 8.0531 13.139 8.33983 12.859 8.45001C12.7659 8.48674 12.745 8.53348 12.7492 8.62113C12.755 8.74008 12.7504 8.85944 12.7504 8.99467Z" fill="#410EAD"/>
</svg>
