<svg width="15" height="16" viewBox="0 0 15 16" fill="none" xmlns="http://www.w3.org/2000/svg">
<path d="M1.21074 10.1325C0.631046 9.67759 0.26156 9.13367 0.0919238 8.45177C-0.195119 7.29805 0.233071 6.07089 1.16887 5.36807C2.10986 4.66079 3.36248 4.61094 4.34447 5.2421C4.52317 5.35694 4.57583 5.49492 4.49555 5.63958C4.41224 5.79003 4.26073 5.81095 4.07513 5.69789C2.72193 4.87355 1.04068 5.53899 0.612917 7.06793C0.236093 8.41438 1.0424 9.78798 2.38395 10.0849C3.67888 10.3715 4.96 9.43635 5.14906 8.06853C5.22589 7.51393 5.11841 6.99849 4.84993 6.51555C4.82834 6.47727 4.80374 6.44033 4.78432 6.40116C4.71482 6.25828 4.75065 6.11318 4.87237 6.03751C4.99453 5.9614 5.1374 5.99344 5.22416 6.1292C5.45552 6.49107 5.60832 6.88633 5.65926 7.31719C5.79177 8.43352 5.42142 9.34287 4.58101 10.0533C4.56116 10.0702 4.54217 10.0875 4.49037 10.1329C4.7977 10.1329 5.06877 10.1329 5.33984 10.1329C5.60617 10.1334 5.68947 10.2184 5.69077 10.4877C5.6912 10.6377 5.69336 10.7877 5.6899 10.9377C5.67998 11.3837 5.34977 11.7264 4.91597 11.7309C4.37728 11.7362 3.83859 11.7322 3.2999 11.7322C3.24162 11.7322 3.18335 11.7322 3.10566 11.7322C3.10566 11.9138 3.10091 12.0843 3.10954 12.2539C3.11127 12.289 3.16177 12.3238 3.19328 12.3549C3.30033 12.4613 3.42809 12.5521 3.51097 12.6754C3.57097 12.7649 3.61802 12.8014 3.72247 12.8009C6.24327 12.7978 8.7645 12.7978 11.2853 12.8009C11.3828 12.8009 11.4295 12.7693 11.4856 12.6847C11.5654 12.565 11.6729 12.4573 11.7886 12.3732C11.8633 12.3189 11.9038 12.2779 11.8987 12.1818C11.8909 12.0389 11.8965 11.8951 11.8965 11.7322C11.8166 11.7322 11.7484 11.7335 11.6802 11.7322C11.4929 11.7278 11.3768 11.6214 11.3807 11.4598C11.3846 11.3036 11.4964 11.2016 11.6764 11.2003C12.064 11.1981 12.452 11.1994 12.8401 11.1994C13.2601 11.1994 13.6805 11.1994 14.1005 11.1994C14.41 11.1994 14.4838 11.1237 14.4825 10.8095C14.4825 10.7708 14.4825 10.7321 14.4825 10.6795H9.83109C9.83109 10.7721 9.81944 10.8714 9.83368 10.9666C9.85613 11.1193 9.95497 11.1963 10.1043 11.1985C10.2606 11.2007 10.4168 11.1967 10.5731 11.2003C10.7496 11.2039 10.8623 11.3111 10.861 11.4678C10.8597 11.624 10.747 11.7286 10.5692 11.7318C10.4022 11.7349 10.2351 11.7362 10.0681 11.7313C9.65239 11.7184 9.32434 11.3815 9.31182 10.9537C9.30664 10.7819 9.30837 10.6092 9.31096 10.4374C9.31441 10.2322 9.40981 10.1365 9.61311 10.1343C9.89325 10.1312 10.173 10.1316 10.4531 10.1307C10.4578 10.1307 10.463 10.1276 10.4859 10.12C10.4466 10.0835 10.4147 10.0524 10.381 10.0226C9.48275 9.22848 9.11629 8.22833 9.39988 7.04167C9.68606 5.84389 10.4613 5.1108 11.6328 4.85619C12.3351 4.70352 13.0024 4.84596 13.6196 5.22474C13.8324 5.35516 13.8903 5.49848 13.7966 5.6516C13.7064 5.79849 13.5626 5.80917 13.3585 5.68365C12.0208 4.86154 10.3145 5.56792 9.90663 7.11244C9.55527 8.4442 10.3776 9.80757 11.7027 10.0893C12.9959 10.3644 14.2697 9.43101 14.4557 8.07387C14.5334 7.50725 14.4229 6.98203 14.1428 6.49152C14.113 6.43944 14.0767 6.38647 14.0646 6.32905C14.0357 6.19508 14.0806 6.08781 14.2049 6.02594C14.3271 5.96496 14.4531 6.00502 14.5382 6.13988C14.7648 6.49819 14.9154 6.88855 14.9663 7.31363C15.101 8.43664 14.7268 9.34955 13.8795 10.0617C13.8631 10.0755 13.8471 10.0898 13.7975 10.1338C13.9032 10.1338 13.9744 10.1338 14.0457 10.1338C14.2667 10.1338 14.4872 10.1312 14.7082 10.1347C14.899 10.1378 14.994 10.2366 14.9983 10.4343C15.0013 10.5843 14.9996 10.7343 14.9987 10.8843C14.9957 11.3944 14.672 11.7313 14.1799 11.7331C13.6576 11.7349 13.1349 11.7331 12.6122 11.7331C12.5535 11.7331 12.4948 11.7331 12.414 11.7331C12.414 11.916 12.4063 12.0923 12.4197 12.2663C12.4227 12.306 12.4935 12.3473 12.5401 12.3758C12.8513 12.5659 12.9976 12.9389 12.8971 13.2928C12.7991 13.6373 12.4801 13.8803 12.1309 13.8638C11.8331 13.8496 11.6159 13.6974 11.4662 13.4312C11.4407 13.3858 11.3738 13.3373 11.3259 13.3373C10.2325 13.3319 9.13873 13.3333 8.04538 13.3337C8.02553 13.3337 8.0061 13.339 7.97071 13.3444C7.99617 13.3929 8.0143 13.4312 8.03545 13.4677C8.40062 14.0962 8.76752 14.7229 9.12881 15.3536C9.17974 15.4426 9.23672 15.4716 9.33427 15.4689C9.57124 15.4618 9.80821 15.4644 10.0452 15.4671C10.2252 15.4689 10.3378 15.5695 10.3426 15.7253C10.3473 15.8868 10.2304 15.999 10.0443 15.999C8.34753 16.0003 6.65074 16.0003 4.95395 15.999C4.77396 15.999 4.6613 15.8962 4.65698 15.7408C4.65223 15.5793 4.76921 15.4693 4.95568 15.4675C5.20344 15.4649 5.45121 15.4707 5.69897 15.4635C5.74818 15.4622 5.81767 15.4328 5.84098 15.3932C6.23291 14.73 6.61923 14.0628 7.00598 13.3965C7.01332 13.3836 7.01289 13.3662 7.0198 13.3346H6.87261C5.82199 13.3346 4.7718 13.3359 3.72161 13.3324C3.61845 13.3324 3.56363 13.3586 3.51183 13.4592C3.35946 13.7557 3.02926 13.9137 2.72322 13.8585C2.39215 13.7984 2.13834 13.538 2.07878 13.1971C2.02482 12.8868 2.16899 12.5476 2.44999 12.3932C2.56697 12.3287 2.59632 12.2565 2.58855 12.135C2.58035 12.0091 2.58682 11.8818 2.58682 11.7353C2.43747 11.7353 2.29892 11.7353 2.16079 11.7353C1.71361 11.7353 1.26643 11.7367 0.819674 11.7353C0.327601 11.7331 0.00386867 11.3966 0.00127881 10.8861C0.000415528 10.7361 -0.00131128 10.5861 0.00171022 10.4361C0.00559501 10.2389 0.100557 10.141 0.291775 10.1365C0.437238 10.1334 0.582702 10.1356 0.728166 10.1356C0.872335 10.1356 1.0165 10.1356 1.20902 10.1356L1.21074 10.1325ZM5.17452 10.6764H0.530905C0.49033 11.1255 0.554214 11.199 0.973771 11.199C1.99072 11.199 3.00767 11.199 4.02462 11.199C4.30994 11.199 4.59483 11.2012 4.88014 11.1981C5.07179 11.1959 5.16762 11.097 5.17366 10.9025C5.17582 10.8313 5.17366 10.7596 5.17366 10.6764H5.17452ZM7.50151 13.5839C7.12943 14.2235 6.77506 14.8333 6.41593 15.4506H8.58839C8.22451 14.8253 7.87143 14.219 7.50151 13.5839ZM3.10436 13.0573C3.10005 12.9131 2.97875 12.7956 2.83933 12.8C2.69948 12.8045 2.58553 12.9291 2.58984 13.0733C2.59416 13.2175 2.71545 13.3355 2.85444 13.3306C2.99429 13.3261 3.10825 13.2011 3.10393 13.0573H3.10436ZM12.4132 13.0626C12.4119 12.9184 12.2932 12.7987 12.1533 12.8C12.013 12.8014 11.8974 12.9238 11.8987 13.068C11.9004 13.2126 12.0187 13.3324 12.1585 13.3306C12.2984 13.3293 12.4149 13.2064 12.4132 13.0626Z" fill="#410EAD"/>
<path d="M7.31395 1.86774C7.23237 1.61403 7.15942 1.37724 7.07784 1.14355C7.06619 1.10973 7.01094 1.09059 6.97381 1.06922C6.96173 1.0621 6.94187 1.07056 6.9259 1.06744C6.49599 0.989102 6.16837 1.13821 5.89341 1.49385C5.6832 1.76581 5.41515 1.98926 5.1812 2.24297C5.07156 2.36181 4.952 2.40454 4.79488 2.40365C3.80383 2.39831 2.81277 2.40276 1.82129 2.39831C1.71036 2.39787 1.63093 2.4268 1.55281 2.50959C1.28303 2.79713 1.00764 3.07843 0.73139 3.35885C0.587653 3.50485 0.412406 3.50129 0.31356 3.35529C0.235432 3.24001 0.239749 3.11849 0.333847 3.02013C0.680888 2.65558 1.02966 2.29238 1.38835 1.9403C1.44447 1.8851 1.55626 1.87086 1.64259 1.87041C2.63364 1.86596 3.6247 1.86552 4.61618 1.87041C4.74826 1.87086 4.84495 1.83926 4.94077 1.73688C5.27659 1.37635 5.62579 1.02961 5.96506 0.672631C6.05873 0.574263 6.16017 0.529752 6.29441 0.532868C6.59051 0.539544 6.88705 0.539099 7.18316 0.533313C7.3528 0.530197 7.45423 0.602749 7.50646 0.770555C7.61955 1.13465 7.74084 1.49608 7.85696 1.85261C7.87638 1.85929 7.88717 1.8673 7.89624 1.86552C8.30025 1.78273 8.59722 2.01018 8.89031 2.23807C8.98786 2.31374 9.047 2.30528 9.13074 2.21448C9.36469 1.96122 9.60166 1.71018 9.85244 1.47471C9.93143 1.40083 10.0545 1.35053 10.1619 1.34074C10.3812 1.32026 10.6031 1.33273 10.8241 1.3354C11.0036 1.33762 11.1163 1.43866 11.1206 1.59445C11.1249 1.75647 11.0088 1.86285 10.821 1.86774C10.8051 1.86774 10.7882 1.87041 10.7727 1.86774C10.3497 1.78718 10.0329 1.94875 9.77388 2.29505C9.6336 2.48244 9.45145 2.63689 9.28656 2.80469C9.12814 2.96627 9.0362 2.97428 8.84671 2.84564C8.65808 2.71745 8.47291 2.58303 8.2804 2.46063C8.21781 2.42057 8.13796 2.40944 8.024 2.37071C8.17464 2.83897 8.30802 3.25826 8.44831 3.67532C8.45823 3.70515 8.52341 3.73141 8.56312 3.73185C8.83247 3.73675 9.10182 3.73986 9.37116 3.73052C9.43116 3.72829 9.50195 3.68779 9.54684 3.64283C9.82525 3.36464 10.0972 3.07932 10.3721 2.79757C10.5327 2.63333 10.6303 2.62487 10.809 2.76152C11.0774 2.96627 11.3403 3.17858 11.6127 3.37755C11.6813 3.42784 11.7758 3.46123 11.8596 3.46434C12.1449 3.47502 12.4306 3.47057 12.716 3.46657C12.7656 3.46568 12.8295 3.45589 12.8623 3.42384C13.0764 3.21286 13.284 2.99475 13.4929 2.77843C13.5184 2.75217 13.5417 2.72368 13.59 2.66849C13.4446 2.66849 13.3289 2.67161 13.2132 2.6676C13.0462 2.66226 12.937 2.55944 12.9326 2.40899C12.9283 2.25232 13.041 2.13837 13.2149 2.13614C13.5434 2.13258 13.8723 2.13214 14.2008 2.13614C14.3817 2.13837 14.4797 2.23985 14.4814 2.42769C14.4853 2.76641 14.4848 3.10514 14.4814 3.44387C14.4797 3.61612 14.3765 3.72874 14.2306 3.73319C14.0787 3.73764 13.9712 3.62102 13.966 3.4412C13.9625 3.32547 13.9656 3.20974 13.9656 3.06464C13.9129 3.11048 13.8771 3.13808 13.846 3.16968C13.6168 3.4047 13.3945 3.64728 13.1567 3.87206C13.085 3.93972 12.9711 3.99179 12.8748 3.99491C12.482 4.00871 12.0884 4.00648 11.6956 3.99625C11.6062 3.99402 11.5056 3.95485 11.4318 3.90099C11.1638 3.70693 10.9044 3.49951 10.6268 3.28541C10.4533 3.46568 10.2655 3.62725 10.1179 3.82132C9.84554 4.18052 9.5136 4.33453 9.06944 4.2731C8.83117 4.24016 8.58514 4.26242 8.34299 4.26865C8.16601 4.2731 8.06587 4.19565 8.01105 4.02117C7.84228 3.48348 7.66487 2.94891 7.48704 2.40143C7.20043 2.40143 6.91554 2.39698 6.63109 2.40543C6.58231 2.40677 6.52706 2.45484 6.48778 2.4949C6.12736 2.86167 5.77514 3.23689 5.40781 3.59609C5.33098 3.67087 5.20278 3.72696 5.09789 3.72829C4.08526 3.73808 3.07262 3.73185 2.05999 3.73853C1.98057 3.73897 1.88388 3.78304 1.82561 3.83957C1.55583 4.10307 1.29727 4.37815 1.03397 4.64877C0.866495 4.82103 0.722758 4.84506 0.600603 4.72355C0.477153 4.6007 0.49744 4.44758 0.661896 4.27755C0.96232 3.96687 1.26576 3.6593 1.56274 3.34505C1.66029 3.24223 1.76518 3.19772 1.90546 3.19817C2.91291 3.20262 3.91994 3.20262 4.92739 3.19594C5.00682 3.1955 5.1048 3.15277 5.16221 3.09579C5.51486 2.74505 5.86147 2.38718 6.20376 2.02531C6.30908 1.91403 6.42045 1.8584 6.57368 1.86463C6.81411 1.87442 7.05539 1.8673 7.31438 1.8673L7.31395 1.86774Z" fill="#410EAD"/>
<path d="M13.4648 7.73102C13.4351 7.79689 13.4139 7.86589 13.3764 7.92419C13.0531 8.4285 12.7289 8.93147 12.4013 9.43266C12.2545 9.65744 12.0585 9.65789 11.9118 9.43355C11.5846 8.93236 11.2626 8.42761 10.9345 7.92642C10.8482 7.79467 10.8448 7.67627 10.932 7.54318C11.2596 7.04244 11.5816 6.53724 11.9092 6.03605C12.0521 5.8175 12.2601 5.81661 12.4021 6.03427C12.7298 6.53546 13.0539 7.03888 13.3772 7.54274C13.4117 7.5966 13.4325 7.66025 13.4648 7.73057V7.73102ZM12.7595 7.5463C12.561 7.24007 12.3633 6.93517 12.1557 6.61514C11.9437 6.94318 11.7482 7.24585 11.5544 7.54496C11.9558 7.74437 12.3486 7.74259 12.7591 7.5463H12.7595ZM11.7301 8.19215C11.8678 8.40491 12.0059 8.61767 12.1565 8.85091C12.3072 8.61812 12.444 8.40625 12.5813 8.19393C12.2916 8.27984 12.0167 8.2785 11.7301 8.19215Z" fill="#410EAD"/>
<path d="M3.7505 6.99231C3.75481 7.1935 3.66417 7.31412 3.52043 7.33059C3.37238 7.3475 3.25929 7.24068 3.23512 7.06085C3.20102 6.80759 3.0357 6.6518 2.81901 6.66871C2.61873 6.68429 2.45902 6.86323 2.46075 7.06976C2.46247 7.29542 2.62391 7.45077 2.8734 7.46724C3.32188 7.49661 3.65683 7.79751 3.73927 8.24439C3.81395 8.65033 3.60115 9.06116 3.20879 9.24544C3.12418 9.28505 3.09656 9.33179 3.10433 9.41992C3.10994 9.4858 3.10951 9.55345 3.1026 9.61933C3.08749 9.76532 2.97699 9.87081 2.84318 9.86325C2.70074 9.85568 2.58333 9.76755 2.59801 9.62912C2.6252 9.37452 2.51859 9.25434 2.31442 9.13639C2.07745 8.99974 1.96867 8.74825 1.9445 8.46828C1.9281 8.27822 2.02565 8.14691 2.18147 8.13445C2.32996 8.12288 2.43485 8.22792 2.45945 8.41309C2.48924 8.63653 2.62564 8.78164 2.81901 8.79677C3.0003 8.81101 3.16778 8.68727 3.21915 8.50166C3.2895 8.2484 3.11037 8.01783 2.82764 7.99869C2.40334 7.97021 2.07615 7.70581 1.97429 7.31011C1.86076 6.86812 2.0563 6.42524 2.46377 6.23117C2.56434 6.18355 2.60276 6.1288 2.58981 6.02019C2.58247 5.9601 2.58247 5.8969 2.59197 5.8377C2.61484 5.69393 2.69988 5.6058 2.84275 5.60357C2.98563 5.6009 3.10864 5.6917 3.09397 5.82835C3.06462 6.09987 3.19497 6.21738 3.39914 6.34334C3.63223 6.48711 3.72978 6.7426 3.7505 6.99275V6.99231Z" fill="#410EAD"/>
<path d="M13.2956 0.534631C13.1833 0.534631 13.0711 0.537302 12.9593 0.534186C12.7841 0.52929 12.6718 0.420684 12.6744 0.263561C12.677 0.11267 12.7854 0.00495401 12.9515 0.00317358C13.2852 -0.000832382 13.6184 -0.00127749 13.9521 0.00317358C14.1226 0.00539912 14.2206 0.108664 14.2227 0.286706C14.227 0.630329 14.227 0.974397 14.2227 1.31846C14.2206 1.48805 14.1118 1.59977 13.9655 1.59977C13.8187 1.59977 13.716 1.48805 13.7082 1.31757C13.7052 1.25659 13.7073 1.19562 13.7073 1.13464C13.7073 1.07544 13.7073 1.01624 13.7073 0.900509C13.4415 1.1787 13.2028 1.41461 12.9813 1.66654C12.8467 1.81921 12.699 1.88687 12.4992 1.87084C12.3118 1.85615 12.1228 1.86995 11.9346 1.86684C11.7559 1.86417 11.6437 1.76224 11.6402 1.60645C11.6368 1.44443 11.7576 1.30867 11.9389 1.34027C12.4185 1.4244 12.7603 1.22588 13.0418 0.848877C13.1186 0.746057 13.2291 0.669944 13.3245 0.581367C13.315 0.565789 13.3051 0.55021 13.2956 0.534631Z" fill="#410EAD"/>
</svg>
