<svg width="16" height="15" viewBox="0 0 16 15" fill="none" xmlns="http://www.w3.org/2000/svg">
<path d="M13.53 15H1.5312C1.5024 14.991 1.47402 14.9781 1.44439 14.9734C0.906449 14.8849 0.492036 14.6211 0.228699 14.1749C0.123113 13.9964 0.0742854 13.7882 0 13.5936C0 10.8 0 8.00684 0 5.21326C0.00959867 5.18586 0.0221186 5.15924 0.028796 5.13106C0.18154 4.46212 0.612228 4.03743 1.31126 3.85111C1.40391 3.82645 1.50073 3.81588 1.60632 3.7967C1.5362 3.61547 1.46943 3.44677 1.40558 3.27728C1.18564 2.69289 1.44898 2.13707 2.06747 1.92374C3.87703 1.29982 5.68826 0.680977 7.50157 0.0668352C8.09377 -0.133965 8.68513 0.131029 8.91007 0.682934C9.02693 0.969456 9.14044 1.25793 9.24269 1.54954C9.2815 1.65993 9.332 1.69868 9.46054 1.69789C10.4133 1.69202 11.3661 1.69124 12.3189 1.69672C12.9252 1.70024 13.3952 2.14372 13.4039 2.71129C13.4089 3.02873 13.4052 3.34578 13.4052 3.66323C13.4052 3.70941 13.4052 3.7556 13.4052 3.79905C14.4431 3.90943 15.0607 4.55684 15.0612 5.51152C15.0612 5.98984 15.0612 6.46855 15.0612 6.94687V7.17311C15.0979 7.18525 15.1167 7.19308 15.1367 7.19777C15.6742 7.32812 15.9968 7.71014 15.9981 8.22682C16.0002 8.99832 16.0014 9.76942 15.9972 10.5409C15.9947 11.0157 15.67 11.4056 15.1838 11.534C15.1455 11.5441 15.1066 11.5539 15.0612 11.5657C15.0612 11.6259 15.0612 11.6792 15.0612 11.7324C15.0612 12.2937 15.0674 12.8554 15.0582 13.4167C15.0474 14.1142 14.5524 14.7221 13.8442 14.9237C13.7407 14.953 13.6347 14.9746 13.5295 14.9996L13.53 15ZM14.1238 11.5692C13.5204 11.5692 12.9424 11.5754 12.3648 11.568C11.1119 11.552 10.0794 10.5836 10.0623 9.41753C10.0444 8.17672 11.079 7.18525 12.4052 7.17546C12.9206 7.17155 13.4365 7.17468 13.9519 7.17468C14.0066 7.17468 14.0616 7.17468 14.1238 7.17468C14.1238 6.58128 14.1259 6.0102 14.123 5.43911C14.1209 4.99563 13.7895 4.68484 13.3138 4.68484C9.46012 4.68366 5.60646 4.68366 1.75322 4.68484C1.26744 4.68484 0.938166 4.99445 0.938166 5.4485C0.936914 8.08043 0.937331 10.7127 0.938166 13.3447C0.938166 13.8062 1.26953 14.1185 1.76073 14.1189C5.60896 14.1197 9.45761 14.1201 13.3058 14.1189C13.7883 14.1189 14.1213 13.8058 14.1234 13.3549C14.1259 12.8029 14.1238 12.251 14.1238 11.6995C14.1238 11.6616 14.1238 11.624 14.1238 11.5704V11.5692ZM8.29701 1.68067C8.21354 1.46069 8.13383 1.24502 8.04995 1.0313C7.98985 0.878254 7.93143 0.853986 7.76241 0.911917C5.98456 1.51823 4.20714 2.12494 2.42972 2.73203C2.26362 2.78879 2.23524 2.84554 2.29408 2.99937C2.38005 3.22405 2.47813 3.4452 2.55408 3.67262C2.59122 3.78378 2.65132 3.80727 2.76609 3.80727C4.11992 3.80375 5.47333 3.80492 6.82716 3.80492H6.98491C6.99242 3.77791 6.99451 3.77322 6.99451 3.76852C6.99618 3.41232 6.99368 3.05574 7.00035 2.69954C7.00912 2.22592 7.35843 1.82354 7.85171 1.72373C7.99152 1.69554 8.13759 1.69554 8.29701 1.68106V1.68067ZM13.5926 8.05342C13.2178 8.05342 12.843 8.05225 12.4678 8.0542C12.3744 8.0546 12.2796 8.05538 12.1878 8.07025C11.447 8.19159 10.9417 8.79517 11.0026 9.48094C11.0635 10.1648 11.6695 10.685 12.4215 10.6893C13.2232 10.694 14.0249 10.6908 14.8266 10.69C15.0119 10.69 15.0599 10.6458 15.0599 10.4759C15.0607 9.73889 15.0607 9.00145 15.0599 8.2644C15.0599 8.09217 15.0161 8.05381 14.8254 8.05342C14.4143 8.05264 14.0028 8.05342 13.5913 8.05342H13.5926ZM7.93727 3.79474H12.4674C12.4674 3.4636 12.4674 3.14224 12.4674 2.82088C12.4674 2.60325 12.437 2.5739 12.2087 2.5739C10.8715 2.5739 9.53482 2.5739 8.19768 2.5739C8.16638 2.5739 8.13508 2.5739 8.1042 2.57468C7.99778 2.57859 7.93852 2.63222 7.9381 2.73047C7.93602 3.08118 7.93727 3.4319 7.93727 3.79435V3.79474Z" fill="#410EAD"/>
<path d="M12.3998 9.8108C12.1482 9.80767 11.9362 9.6057 11.937 9.36928C11.9378 9.12464 12.1553 8.92736 12.4182 8.93323C12.6728 8.9391 12.8785 9.14069 12.8731 9.37906C12.8677 9.61548 12.6502 9.81393 12.3994 9.8108H12.3998Z" fill="#410EAD"/>
</svg>
