<svg width="15" height="15" viewBox="0 0 15 15" fill="none" xmlns="http://www.w3.org/2000/svg">
<path d="M0.000390753 9.52032C0.0582319 9.20523 0.0977045 8.88505 0.177041 8.57543C0.685886 6.58664 2.41604 5.07537 4.45494 4.82721C7.15666 4.49842 9.59498 6.27389 10.1156 8.94885C10.6521 11.704 8.76762 14.4381 6.00258 14.9156C5.82593 14.9462 5.64889 14.972 5.47185 14.9998H4.71092C4.60149 14.9818 4.49246 14.9614 4.38264 14.9466C2.34178 14.6698 0.624918 13.1186 0.149683 11.113C0.0848075 10.8398 0.0492431 10.5595 0 10.2824C0 10.0284 0 9.77435 0 9.52071L0.000390753 9.52032ZM5.11581 5.42569C2.70837 5.40103 0.669081 7.39609 0.643678 9.80018C0.617493 12.2935 2.57315 14.3293 5.01967 14.3555C7.51544 14.3825 9.53206 12.4192 9.56137 9.93366C9.59068 7.47242 7.59712 5.45113 5.11581 5.42569Z" fill="#410EAD"/>
<path d="M14.9998 4.14678C14.9818 6.24556 13.4131 8.01947 11.339 8.26489C11.1795 8.28368 11.0185 8.29268 10.8579 8.29464C10.6601 8.29699 10.5237 8.1686 10.5167 7.98855C10.5097 7.80811 10.6472 7.67855 10.8505 7.65232C11.1827 7.60927 11.5238 7.59204 11.8428 7.50006C13.3982 7.05228 14.4249 5.56958 14.3346 3.9358C14.2459 2.3302 13.0367 0.973939 11.4461 0.696815C9.43609 0.346495 7.56486 1.7603 7.35108 3.79254C7.33935 3.9041 7.34326 4.01683 7.33584 4.12916C7.32177 4.33544 7.18733 4.474 7.00794 4.47087C6.81957 4.46774 6.69646 4.3237 6.6949 4.10529C6.68278 2.13254 8.21362 0.343363 10.1599 0.0552795C12.4341 -0.28134 14.4558 1.13168 14.906 3.37881C14.9564 3.63128 14.9693 3.89118 14.9994 4.14756L14.9998 4.14678Z" fill="#410EAD"/>
<path d="M10.2059 3.14313C10.1969 3.29656 10.2676 3.42769 10.3931 3.51223C10.5818 3.63984 10.7839 3.74826 10.9809 3.86295C11.195 3.98781 11.4217 4.09467 11.6238 4.23714C12.4484 4.81957 12.1467 5.93003 11.376 6.25608C11.2255 6.31949 11.1458 6.38877 11.1493 6.56099C11.1528 6.72735 11.0239 6.84595 10.8652 6.85769C10.6952 6.87022 10.5373 6.77197 10.531 6.60288C10.5236 6.39816 10.4193 6.32458 10.2481 6.25647C9.95771 6.14061 9.74901 5.92259 9.61535 5.63725C9.51765 5.42901 9.56689 5.24544 9.74198 5.16089C9.91081 5.07948 10.0773 5.14836 10.1859 5.34525C10.3954 5.72414 10.8363 5.84392 11.1997 5.62002C11.5104 5.42862 11.5741 5.08495 11.3139 4.83092C11.161 4.68219 10.9641 4.56867 10.7698 4.47512C10.4744 4.33343 10.1793 4.198 9.94403 3.96119C9.32224 3.33531 9.47896 2.42331 10.2794 2.05303C10.4306 1.98296 10.5248 1.91446 10.524 1.72698C10.5232 1.55005 10.6792 1.42989 10.8453 1.43419C11.0129 1.43889 11.1458 1.56219 11.1513 1.74381C11.1556 1.88902 11.2189 1.95948 11.3518 2.00723C11.6785 2.12505 11.9134 2.3509 12.0607 2.6656C12.1565 2.87031 12.1021 3.05506 11.9251 3.13686C11.752 3.21671 11.5855 3.14391 11.4854 2.94468C11.2881 2.55248 10.7315 2.43975 10.3962 2.7247C10.27 2.83195 10.2055 2.96855 10.2059 3.14234V3.14313Z" fill="#410EAD"/>
<path d="M14.9763 9.06829C14.8829 11.2728 13.9695 13.0036 12.0291 14.1274C11.3835 14.5012 10.6757 14.6938 9.93392 14.7587C9.74086 14.7756 9.58649 14.6574 9.56655 14.482C9.54467 14.2906 9.66309 14.1356 9.86279 14.1207C12.1116 13.9552 14.0051 12.038 14.299 9.64564C14.3345 9.35638 14.3283 9.06125 14.333 8.76886C14.3369 8.53792 14.4479 8.39036 14.6398 8.38214C14.8281 8.37431 14.9653 8.52031 14.9751 8.74576C14.9798 8.85301 14.9759 8.96065 14.9759 9.0679L14.9763 9.06829Z" fill="#410EAD"/>
<path d="M6.28105 0.665468C5.53146 0.598535 4.82643 0.674079 4.15305 0.933198C2.3799 1.61466 1.30085 2.89107 0.933094 4.76205C0.908863 4.88613 0.89792 5.01295 0.877598 5.13821C0.848286 5.31904 0.699776 5.43569 0.526643 5.41807C0.349993 5.39967 0.21946 5.24154 0.241736 5.05679C0.428548 3.49073 1.12577 2.20022 2.35372 1.21228C3.40346 0.367598 4.6146 -0.0249945 5.96058 0.00123058C6.07236 0.00357909 6.18413 0.0145388 6.2959 0.0243243C6.48897 0.0411553 6.62028 0.182066 6.61051 0.358987C6.60074 0.542171 6.45028 0.670165 6.28105 0.666251V0.665468Z" fill="#410EAD"/>
<path d="M6.8598 9.03106C6.82541 9.14066 6.77539 9.33285 6.70308 9.51603C6.65384 9.64089 6.66439 9.72074 6.77773 9.80294C7.24241 10.14 7.43235 10.6828 7.27954 11.2097C7.12751 11.7334 6.66674 12.0955 6.10201 12.1264C5.96053 12.1342 5.898 12.1953 5.90191 12.3354C5.90503 12.4622 5.90464 12.5894 5.90191 12.7163C5.89683 12.9409 5.76199 13.0901 5.57284 13.0858C5.38564 13.0815 5.26409 12.9394 5.26097 12.7182C5.25901 12.5863 5.26136 12.4544 5.25979 12.3225C5.25823 12.1914 5.19453 12.1252 5.05969 12.128C4.9233 12.1307 4.78651 12.1287 4.65012 12.1287C4.53013 12.1287 4.46956 12.1886 4.46917 12.3084C4.46839 12.4501 4.47151 12.5918 4.4676 12.7331C4.46135 12.9515 4.33199 13.0936 4.14518 13.0936C3.95837 13.0936 3.83057 12.9503 3.82705 12.7327C3.82471 12.5961 3.82705 12.4591 3.82588 12.3225C3.82471 12.1918 3.761 12.1248 3.62617 12.1276C3.4847 12.1303 3.34322 12.1307 3.20174 12.1276C2.99578 12.1225 2.86173 11.9921 2.86329 11.8031C2.86486 11.6168 3.00164 11.4903 3.20878 11.4853C3.24786 11.4841 3.28694 11.4853 3.32563 11.4853C3.85715 11.4853 3.82783 11.5401 3.82666 10.976C3.8251 10.2973 3.82666 9.61819 3.82666 8.93947C3.82666 8.81735 3.82666 8.69522 3.82666 8.5731C3.82627 8.33277 3.79032 8.29754 3.54449 8.29715C3.43233 8.29715 3.32016 8.2995 3.208 8.29598C3.00985 8.28971 2.87424 8.16368 2.86955 7.98558C2.86447 7.80162 3.00125 7.66423 3.20604 7.6564C3.34713 7.65092 3.489 7.65366 3.63047 7.65483C3.76491 7.65601 3.82666 7.58751 3.82705 7.45639C3.82705 7.31469 3.82432 7.173 3.82901 7.0317C3.83526 6.84577 3.96618 6.7123 4.13893 6.70838C4.30581 6.70447 4.4465 6.82424 4.46252 7.00273C4.47581 7.15304 4.47034 7.3053 4.46917 7.45639C4.468 7.58986 4.52584 7.65601 4.66223 7.65327C4.79863 7.65014 4.93541 7.65092 5.07181 7.65327C5.20117 7.65523 5.25901 7.58712 5.26057 7.46421C5.26253 7.32252 5.25862 7.18083 5.26253 7.03952C5.26761 6.83755 5.38994 6.70721 5.57206 6.70369C5.75574 6.70016 5.88862 6.82346 5.89995 7.02308C5.90855 7.17417 5.91051 7.32643 5.90113 7.47713C5.89136 7.62978 5.94646 7.71042 6.09184 7.77539C6.58975 7.99811 6.83205 8.3997 6.86058 9.03106H6.8598ZM5.39931 10.2171C5.15583 10.2171 4.91236 10.2155 4.66888 10.2178C4.51059 10.2194 4.47034 10.2593 4.46917 10.4198C4.46682 10.7075 4.46682 10.9952 4.46917 11.2829C4.47034 11.4379 4.51685 11.4841 4.67122 11.4849C5.13395 11.4864 5.59668 11.4884 6.05902 11.4837C6.43264 11.4802 6.6812 11.2261 6.68511 10.8562C6.68902 10.4821 6.43772 10.2249 6.05667 10.2178C5.83742 10.2139 5.61856 10.2171 5.39931 10.2171ZM5.13629 8.31281C5.13629 8.30772 5.13629 8.30302 5.13629 8.29793C4.97567 8.29793 4.81504 8.29676 4.65481 8.29833C4.5403 8.2995 4.46956 8.35234 4.46956 8.47486C4.46878 8.78173 4.46956 9.0886 4.46956 9.39547C4.46956 9.50076 4.52427 9.56965 4.62549 9.57004C4.98505 9.57122 5.34616 9.58257 5.70376 9.55204C6.01329 9.52581 6.20635 9.26122 6.20635 8.93556C6.20635 8.6099 6.01173 8.35547 5.70415 8.31711C5.51773 8.29402 5.32584 8.31281 5.13668 8.31281H5.13629Z" fill="#410EAD"/>
</svg>
