<svg width="15" height="15" viewBox="0 0 15 15" fill="none" xmlns="http://www.w3.org/2000/svg">
<path d="M3.65575 12.9954C3.34781 13.4449 3.12091 13.8965 2.99531 14.3922C2.88996 14.8116 2.65495 14.9922 2.21533 14.9922C1.74127 14.9922 1.26518 14.9922 0.791121 14.9922C0.545987 14.9922 0.491287 14.928 0.535857 14.6872C0.671593 13.9507 1.02005 13.3225 1.52855 12.7787C1.78179 12.5077 2.05731 12.2549 2.33081 11.984C2.29637 11.9418 2.26598 11.9017 2.23357 11.8636C1.8142 11.3859 1.48195 10.8561 1.23682 10.2742C1.15781 10.0855 1.20441 10.0032 1.41307 9.97514C1.46575 9.96711 1.51842 9.94905 1.56907 9.95507C1.82231 9.98718 1.98843 9.84469 2.16063 9.69017C2.79879 9.12023 3.44506 8.55832 4.10955 7.97233C4.02041 7.94222 3.94951 7.92015 3.88063 7.89807C3.71855 7.8459 3.67804 7.77365 3.74084 7.61511C4.01028 6.9348 4.4418 6.39296 5.11643 6.06384C5.14074 6.0518 5.16302 6.03976 5.18531 6.02771C5.18936 6.02571 5.19139 6.01969 5.20152 6.00163C4.8166 5.89326 4.4337 5.7869 4.05283 5.68053C2.93655 5.37148 1.82028 5.06243 0.706033 4.75138C0.635126 4.73131 0.558142 4.68916 0.50952 4.63498C0.280593 4.38413 0.120547 4.09113 0.0151995 3.76803C-0.0232927 3.64963 0.0111476 3.56534 0.120546 3.52721C0.426458 3.41684 0.734396 3.30847 1.04436 3.21415C1.12337 3.19007 1.22466 3.20411 1.30773 3.22619C2.75828 3.62555 4.20882 4.03093 5.65937 4.4343C5.69584 4.44433 5.74446 4.44433 5.76269 4.46841C5.80524 4.5246 5.87209 4.60086 5.85994 4.65304C5.84778 4.70321 5.75459 4.75338 5.68773 4.76944C5.63303 4.78148 5.56618 4.74736 5.5054 4.73131C4.13589 4.35001 2.76638 3.97072 1.40092 3.57939C1.17604 3.51517 0.977504 3.54728 0.770862 3.61351C0.637152 3.65565 0.507494 3.71184 0.331241 3.77606C0.47508 3.99681 0.59866 4.1995 0.734396 4.39416C0.762758 4.4343 0.831639 4.45035 0.886339 4.46641C2.51517 4.91995 4.14197 5.37148 5.7708 5.82101C5.82955 5.83707 5.89438 5.84509 5.95718 5.84309C6.28335 5.83305 6.61155 5.82101 6.92151 5.98958V4.88784C6.79996 4.88784 6.68245 4.90389 6.57103 4.88383C6.26917 4.82964 6.11723 4.62294 6.04835 4.34198C6.03619 4.29181 6.03011 4.23964 6.02403 4.18746C5.99567 3.97273 5.89843 3.71987 5.7708 3.53323C5.18531 2.68435 5.69381 1.35784 6.70069 1.09896C6.76146 1.0829 6.83237 1.03273 6.86276 0.978547C7.34493 0.145716 8.19378 -0.181397 9.12164 0.0975519C9.31613 0.15575 9.5248 0.167791 9.72942 0.187859C9.93808 0.207927 10.0009 0.316296 9.88541 0.488882C9.82666 0.575176 9.75778 0.653442 9.68282 0.747763C10.1447 0.9645 10.4628 1.33777 10.795 1.701C10.9065 1.82141 11.0847 1.87961 11.2306 1.97393C11.2914 2.01407 11.3866 2.06223 11.3907 2.11441C11.3967 2.18063 11.342 2.26893 11.2853 2.3171C11.0908 2.48366 10.8619 2.58802 10.6026 2.61812C10.5722 2.62214 10.5438 2.63016 10.5053 2.63819C10.5459 2.75659 10.5884 2.86095 10.6188 2.97132C10.6755 3.17201 10.6228 3.25027 10.4162 3.2583C10.2379 3.26633 10.0576 3.2583 9.87325 3.2583C9.82261 4.01487 9.76993 4.78148 9.71726 5.57016C10.1386 5.68856 10.5965 5.81499 11.0665 5.94744C11.1557 5.74676 11.2407 5.55611 11.3238 5.36546C11.4879 5.00022 11.7817 4.88182 12.1646 5.01026C12.3226 5.06444 12.3651 5.15475 12.3388 5.30727C12.2922 5.56815 12.2537 5.83305 12.2112 6.10397C12.6812 6.1421 13.0944 6.31469 13.4854 6.54548C13.684 6.66388 13.8339 6.81238 13.8886 7.04317C13.8987 7.08531 13.9575 7.12946 14.0041 7.14752C14.1905 7.21776 14.3829 7.27596 14.5713 7.34419C14.9117 7.46661 15.0677 7.7596 14.9725 8.08872C14.8793 8.40981 14.5531 8.61451 14.2249 8.54226C14.0628 8.50614 13.9048 8.44393 13.7286 8.38774C13.7448 8.63859 13.761 8.8774 13.7751 9.11622C13.8481 10.3444 13.8278 11.5706 13.6414 12.7907C13.605 13.0235 13.53 13.0717 13.3092 12.9733C13.0985 12.879 12.8959 12.7706 12.6771 12.6623C12.7257 12.9352 12.7825 13.2081 12.823 13.4811C12.8858 13.9105 12.9405 14.34 12.9952 14.7694C13.0154 14.924 12.9506 14.9942 12.7926 14.9962C12.5596 14.9982 12.3287 15.0002 12.0957 14.9962C11.7371 14.9922 11.4798 14.7474 11.4555 14.3922C11.3846 13.2603 11.1759 12.1545 10.8173 11.0789C10.791 10.9986 10.7241 10.9183 10.6553 10.8642C10.5033 10.7458 10.3372 10.6434 10.1549 10.519C10.1224 10.7598 10.0779 10.9826 10.0637 11.2093C10.0252 11.8395 9.98873 12.4696 9.9705 13.1018C9.95632 13.6557 9.96847 14.2095 9.96645 14.7634C9.96645 14.9521 9.91985 14.9982 9.73549 14.9982C8.26874 14.9982 6.80198 15.0022 5.33523 14.9982C4.68694 14.9962 4.19262 14.5226 4.16628 13.8784C4.1521 13.4971 3.93533 13.2483 3.65778 13.0014L3.65575 12.9954ZM9.84084 10.4387C9.57139 10.6334 9.34044 10.816 9.09531 10.9745C8.82789 11.1491 8.54021 11.1572 8.25253 11.0187C8.11072 10.9505 7.96688 10.8842 7.82912 10.808C7.14233 10.4247 6.569 9.91894 6.12736 9.26873C6.03619 9.13628 6.05037 9.01989 6.1618 8.97975C6.28132 8.9356 6.34413 9.01186 6.4049 9.09815C6.90125 9.82061 7.56575 10.3444 8.3599 10.7157C8.5706 10.814 8.76103 10.804 8.95755 10.6835C9.58355 10.2982 10.0029 9.75238 10.248 9.07207C10.3109 8.89747 10.3352 8.70883 10.3777 8.52621C10.3635 8.5222 10.3493 8.51818 10.3352 8.51417C10.3149 8.54828 10.2926 8.5824 10.2744 8.61852C10.0414 9.04196 9.73549 9.40319 9.34855 9.69619C8.88664 10.0454 8.3984 10.0434 7.94662 9.67813C7.90205 9.642 7.87774 9.53564 7.89597 9.47744C7.92231 9.38914 8.0074 9.35703 8.10261 9.4052C8.19581 9.45336 8.29102 9.49952 8.38219 9.54969C8.6334 9.68415 8.86435 9.65605 9.08923 9.48547C9.55924 9.13428 9.9077 8.69077 10.1326 8.15093C10.2197 7.93821 10.2217 7.91413 10.0353 7.7877C9.84692 7.65926 9.70916 7.49872 9.61597 7.29001C9.53493 7.10739 9.38096 7.01908 9.17837 7.00704C9.15001 7.0813 9.12975 7.15154 9.09936 7.21776C8.87651 7.70943 8.37409 7.91212 7.91218 7.6693C7.70554 7.56093 7.53131 7.39637 7.3429 7.25589C7.31251 7.23382 7.28617 7.20572 7.25173 7.17361C7.21324 7.26592 7.17272 7.34218 7.15449 7.42246C7.14233 7.47062 7.14841 7.53885 7.17475 7.57498C7.45432 7.94022 7.78455 8.25328 8.17757 8.49811C8.43486 8.65866 8.7509 8.62053 8.95552 8.39376C9.06289 8.27335 9.14596 8.13287 9.23712 7.99842C9.29587 7.91413 9.36678 7.87199 9.46402 7.92617C9.55721 7.98035 9.57545 8.06665 9.51872 8.15495C9.42148 8.30345 9.33031 8.45798 9.21281 8.59043C8.88056 8.96169 8.38219 9.02992 7.97093 8.74495C7.71769 8.57036 7.48674 8.35964 7.25173 8.15695C7.14233 8.06263 7.05319 7.94624 6.96608 7.85192C6.77362 8.07668 6.59737 8.30546 6.39478 8.51015C6.2712 8.63458 6.12128 8.77305 5.96123 8.80917C5.73028 8.86135 5.58644 8.99982 5.42234 9.13428C5.33725 9.20452 5.31497 9.27475 5.34536 9.3771C5.47704 9.83867 5.59859 10.3043 5.73838 10.7618C5.83157 11.0709 5.88425 11.3799 5.87007 11.703C5.84576 12.2308 5.83157 12.7586 5.81334 13.2864C5.80929 13.4008 5.81334 13.5132 5.81334 13.6296H9.64635C9.61799 12.5579 9.63015 11.4983 9.83881 10.4327L9.84084 10.4387ZM7.91826 3.24626C7.99322 3.10578 8.09046 2.98537 8.11882 2.85091C8.15731 2.6703 8.13503 2.47764 8.15934 2.29302C8.16744 2.22278 8.21404 2.12043 8.26671 2.10237C8.31939 2.08431 8.42676 2.13648 8.46525 2.19067C8.61719 2.40138 8.80763 2.55792 9.03656 2.67231C9.41337 2.86095 9.8145 2.93119 10.2683 2.91915C10.1873 2.78268 10.1143 2.68033 10.0637 2.56795C10.0313 2.49571 9.99076 2.38533 10.0232 2.33516C10.0536 2.287 10.1751 2.27094 10.2521 2.27897C10.4689 2.30506 10.6735 2.29502 10.8457 2.19468C10.6856 2.03414 10.5236 1.88563 10.3777 1.72509C10.0536 1.36988 9.72131 1.03072 9.21281 0.936404C9.16621 0.928377 9.10544 0.854124 9.10139 0.807967C9.09936 0.753783 9.13988 0.681538 9.18445 0.643408C9.24928 0.589224 9.33436 0.561128 9.44781 0.50293C9.16824 0.438712 8.93729 0.364459 8.70026 0.338371C8.50577 0.316296 8.29913 0.32633 8.10667 0.366466C7.62653 0.464801 7.32061 0.781879 7.10182 1.2013C7.06332 1.27556 6.98026 1.36586 6.90733 1.37389C6.08886 1.4642 5.65937 2.4656 5.91464 3.11381C5.96731 3.24826 6.05848 3.36867 6.14154 3.50915C6.32184 3.31048 6.50823 3.23422 6.73513 3.2583C6.96811 3.28439 7.116 3.43089 7.24768 3.64762C7.31656 3.52721 7.38342 3.43891 7.42191 3.34058C7.55967 2.97534 7.5698 2.96932 7.91826 3.24224V3.24626ZM11.8789 9.57176C11.8931 9.55772 11.9073 9.54367 11.9214 9.52962C11.9235 9.50353 11.9255 9.47744 11.9275 9.45135C11.9559 9.15435 11.9741 8.85734 12.0187 8.56434C12.0268 8.50815 12.1261 8.464 12.1828 8.41383C12.2334 8.47203 12.2942 8.5222 12.3287 8.58842C12.3489 8.62856 12.3226 8.69077 12.3205 8.74295C12.274 9.58782 12.2213 10.4307 12.1808 11.2756C12.1666 11.5806 12.278 11.8595 12.509 12.0622C12.7237 12.2509 12.9709 12.4054 13.2038 12.572C13.2342 12.594 13.2768 12.5981 13.3315 12.6161C13.5138 11.2294 13.5179 9.85673 13.3963 8.47403C12.8453 8.50012 12.3712 8.29342 11.9032 8.04257C11.8708 8.24927 11.8505 8.4359 11.806 8.61852C11.7918 8.68274 11.729 8.76904 11.6723 8.78308C11.2266 8.88744 10.8416 8.59043 10.8194 8.13889C10.8112 7.97233 10.8052 7.80576 10.7869 7.63919C10.7829 7.59906 10.7444 7.54086 10.71 7.53083C10.4912 7.46259 10.2663 7.4044 10.0455 7.34218L10.0171 7.38031C10.0556 7.4064 10.0941 7.43249 10.1326 7.45657C10.5459 7.71947 10.7059 8.10478 10.6897 8.57839C10.6897 8.62454 10.7059 8.68876 10.7383 8.71485C11.1151 9.00383 11.498 9.2868 11.8789 9.56976V9.57176ZM7.75011 3.5513C7.59006 3.70381 7.46445 3.85834 7.30441 3.96871C7.08966 4.11722 6.9985 4.06906 6.93569 3.8182C6.8972 3.66568 6.78578 3.57538 6.64599 3.57939C6.50012 3.5834 6.36844 3.70381 6.35223 3.85834C6.3421 3.96269 6.3421 4.06705 6.34818 4.1714C6.35831 4.32794 6.40288 4.47443 6.56293 4.54467C6.71892 4.61491 6.83035 4.5246 6.94987 4.44032C7.00052 4.40219 7.09776 4.37811 7.14841 4.40219C7.19703 4.42426 7.21932 4.51457 7.24566 4.57678C7.25579 4.60287 7.24768 4.63899 7.24768 4.6711C7.24363 4.99219 7.36924 5.24305 7.66704 5.38352C7.99321 5.53805 8.31939 5.70261 8.65771 5.82703C9.05074 5.96952 9.13785 5.91734 9.30803 5.53203C9.34855 5.44172 9.38096 5.3454 9.39312 5.24907C9.42148 5.01628 9.43769 4.78148 9.45592 4.54668C9.46605 4.42426 9.47213 4.29984 9.48023 4.1714C9.41945 4.17542 9.37083 4.19549 9.33842 4.17943C9.28372 4.15334 9.20876 4.1112 9.1966 4.06304C9.18445 4.01487 9.22497 3.93861 9.26548 3.89446C9.29587 3.86035 9.36475 3.86235 9.40932 3.83626C9.44781 3.81218 9.49846 3.77205 9.50049 3.73592C9.51062 3.5533 9.50454 3.37269 9.50454 3.22418C9.15406 3.06364 8.81978 2.91112 8.48348 2.75659C8.43486 3.0536 8.31331 3.32653 8.03981 3.51718C7.93649 3.58942 7.83519 3.62555 7.75011 3.5533V3.5513ZM4.09132 7.62113C4.65655 7.80175 5.14074 8.09675 5.57834 8.47403C5.70192 8.58039 5.84373 8.56033 5.96934 8.46199C6.49607 8.04858 6.83845 7.51276 6.98837 6.86657C7.0613 6.54949 6.85263 6.23642 6.51836 6.18425C5.37372 6.00965 4.4884 6.65786 4.08929 7.62113H4.09132ZM1.58933 10.2762C2.08973 11.3257 2.79677 12.1405 3.74692 12.6924C4.05891 12.4616 4.34658 12.2469 4.63832 12.0301C4.64237 12.0341 4.62413 12.008 4.60388 11.986C4.27163 11.6288 3.96166 11.2555 3.72868 10.822C3.68817 10.7478 3.62334 10.6735 3.5504 10.6294C2.95276 10.2661 2.29434 10.226 1.58933 10.2742V10.2762ZM2.56581 12.2348C1.80407 12.9091 1.08083 13.6075 0.876209 14.6731C1.34217 14.6731 1.79597 14.6731 2.24775 14.6731C2.49693 14.6731 2.5962 14.5748 2.67724 14.34C2.78664 14.0149 2.90819 13.6938 3.04595 13.3787C3.12699 13.1941 3.24652 13.0255 3.34579 12.8529C3.08242 12.6462 2.82513 12.4415 2.56581 12.2368V12.2348ZM5.41019 8.72087C5.12048 8.53022 4.85104 8.35362 4.58159 8.17301C4.48637 8.10879 4.41952 8.12685 4.33443 8.2011C3.71855 8.74897 3.10065 9.29081 2.48073 9.83466C2.44629 9.86476 2.40172 9.88282 2.36322 9.9049C2.37335 9.91895 2.38348 9.93299 2.39564 9.94704C2.8069 9.98918 3.20397 10.0815 3.57877 10.2621C3.61523 10.2802 3.69627 10.2481 3.73476 10.216C4.12171 9.8768 4.50258 9.53364 4.8875 9.19047C5.0516 9.04397 5.2157 8.89747 5.41221 8.72288L5.41019 8.72087ZM12.6447 14.6691C12.6447 14.631 12.6487 14.6069 12.6447 14.5808C12.5495 13.9888 12.434 13.3968 12.3651 12.8027C12.3145 12.3592 12.0106 12.0301 11.889 11.6227C11.885 11.6087 11.8708 11.5966 11.8586 11.5886C11.654 11.4702 11.4474 11.3518 11.2144 11.2174C11.2326 11.2916 11.2428 11.3297 11.2509 11.3699C11.3603 11.8274 11.4899 12.279 11.571 12.7425C11.6621 13.2623 11.7087 13.7881 11.7675 14.3119C11.7918 14.5326 11.8708 14.653 12.0511 14.6651C12.2436 14.6791 12.4401 14.6671 12.6427 14.6671L12.6447 14.6691ZM13.5442 7.4365C13.5442 7.4365 13.5401 7.4365 13.5381 7.4365C13.5462 7.35824 13.5746 7.27395 13.5543 7.20371C13.5239 7.09534 13.4895 6.95888 13.4085 6.89667C13.0965 6.65786 12.7338 6.51337 12.3469 6.43911C12.1362 6.39898 11.9478 6.53143 11.9275 6.74214C11.9032 6.99099 11.8951 7.24184 11.8951 7.49069C11.8951 7.55892 11.9377 7.65324 11.9903 7.69338C12.3489 7.95427 12.7541 8.1128 13.1978 8.15495C13.376 8.171 13.4915 8.0526 13.5098 7.87399C13.5239 7.7295 13.532 7.583 13.5442 7.4365ZM5.46894 14.6611C5.46894 14.5969 5.46894 14.5407 5.46894 14.4845C5.47501 14.1453 5.46691 13.8062 5.4892 13.467C5.51958 13.0014 5.3251 12.6502 4.97664 12.3653C4.9503 12.3432 4.89561 12.3271 4.86724 12.3392C4.54715 12.4596 4.27568 12.6462 4.05283 12.9151C4.11158 12.9854 4.1602 13.0436 4.21085 13.1038C4.38508 13.3125 4.47422 13.5513 4.48435 13.8202C4.50258 14.356 4.89966 14.7052 5.47096 14.6591L5.46894 14.6611ZM11.8283 11.1953C11.8485 11.1873 11.8708 11.1812 11.8911 11.1732C11.8911 10.7919 11.8951 10.4126 11.887 10.0313C11.887 9.97714 11.8445 9.9069 11.7999 9.87479C11.4231 9.60789 11.0422 9.347 10.6613 9.08611C10.6472 9.07608 10.6269 9.07207 10.6309 9.07407C10.4912 9.34901 10.3595 9.61391 10.2237 9.87881C10.1488 10.0273 10.1609 10.1196 10.2967 10.2119C10.6654 10.4628 11.0382 10.7076 11.4129 10.9525C11.5467 11.0408 11.6905 11.115 11.8303 11.1973L11.8283 11.1953ZM5.80929 14.6591H8.43081V13.9848H5.80929V14.6591ZM7.24566 5.53002C7.24566 5.72669 7.24566 5.92336 7.24566 6.12003C7.2416 6.68796 7.50902 7.09534 8.00334 7.36025C8.35788 7.55089 8.70633 7.4064 8.82384 7.01909C8.83802 6.97293 8.81371 6.9067 8.78737 6.86055C8.70633 6.71605 8.55642 6.5836 8.54021 6.4351C8.5078 6.14411 8.33154 6.05782 8.09856 5.9635C7.80886 5.8471 7.54144 5.68254 7.24566 5.53002ZM8.82181 6.21234C8.85625 6.52139 8.97781 6.63779 9.26143 6.68997C9.38906 6.71405 9.50859 6.77225 9.63015 6.82242C9.7598 6.8766 9.87933 6.94885 10.011 6.993C10.2156 7.06123 10.4263 7.1114 10.635 7.16759C10.6715 7.17762 10.712 7.17762 10.7728 7.18565C10.7181 6.84851 10.7403 6.53745 10.9369 6.24445C10.4689 6.11401 10.0292 5.98758 9.5876 5.87319C9.54911 5.86316 9.47618 5.91132 9.44579 5.95346C9.29182 6.15816 9.10544 6.27857 8.82384 6.21435L8.82181 6.21234ZM11.5122 8.44393C11.5446 8.20512 11.5932 7.9643 11.6034 7.72147C11.6135 7.44252 11.571 7.16157 11.5831 6.88262C11.5912 6.72208 11.6297 6.53745 11.7209 6.41302C11.8303 6.26452 11.8748 6.11401 11.8951 5.94343C11.9154 5.78288 11.9478 5.62434 11.968 5.4638C11.9761 5.4056 11.962 5.3454 11.9579 5.2872C11.883 5.29924 11.7979 5.29322 11.7351 5.32733C11.6824 5.35543 11.6419 5.42567 11.6155 5.48587C11.4413 5.87118 11.2732 6.2585 11.105 6.64782C11.0827 6.69799 11.0685 6.7582 11.0706 6.81238C11.0928 7.25589 11.1172 7.6994 11.1476 8.1409C11.1638 8.3777 11.2468 8.44393 11.5102 8.44594L11.5122 8.44393ZM4.52892 11.4421C4.78418 11.107 4.92599 10.7638 5.06578 10.4146C5.19341 10.0996 5.14682 9.81058 5.02526 9.49952C4.64845 9.83667 4.2777 10.1658 3.90089 10.5029C4.11158 10.816 4.31214 11.119 4.52892 11.4421ZM5.52161 12.4094C5.52161 11.8114 5.63911 11.2174 5.34941 10.6755C5.16708 11.0086 4.97867 11.3498 4.77608 11.7191C5.00703 11.9318 5.25622 12.1626 5.52161 12.4094ZM8.77927 14.6611H9.63217V13.9828H8.77927V14.6611ZM13.8744 7.44453C13.8562 7.66729 13.842 7.86195 13.8258 8.06464C13.9372 8.10678 14.0446 8.14692 14.154 8.18706C14.1844 8.19709 14.2127 8.21114 14.2431 8.21716C14.4194 8.2573 14.5835 8.17702 14.6443 8.0225C14.701 7.876 14.6503 7.72348 14.5085 7.66729C14.31 7.58902 14.1054 7.52481 13.8764 7.44654L13.8744 7.44453Z" fill="#410EAD"/>
<path d="M7.49496 9.0124C7.43419 9.05454 7.37949 9.11675 7.31263 9.13482C7.21944 9.1589 7.06142 8.99835 7.08978 8.90604C7.11004 8.84383 7.185 8.77559 7.24983 8.75753C7.33897 8.73345 7.46863 8.87794 7.49496 9.0124Z" fill="#410EAD"/>
<path d="M8.6741 4.19729C8.53228 4.16117 8.42086 4.15314 8.33172 4.10498C8.28107 4.07688 8.2284 3.97453 8.24258 3.92436C8.25879 3.87219 8.35198 3.81198 8.41276 3.80997C8.50797 3.80596 8.61535 3.83205 8.69841 3.87821C8.75108 3.90831 8.80376 3.99862 8.79768 4.05681C8.7916 4.111 8.71056 4.15916 8.6741 4.19729Z" fill="#410EAD"/>
</svg>
