<svg width="15" height="15" viewBox="0 0 15 15" fill="none" xmlns="http://www.w3.org/2000/svg">
<path d="M7.9709 0.00417279C8.25039 0.0417271 8.52987 0.0730224 8.80936 0.118922C11.7419 0.598782 14.2177 2.96888 14.8204 5.87725C14.8914 6.21941 14.9226 6.56991 14.9748 6.91833C14.9811 6.95589 14.9915 6.99344 14.9998 7.031V7.93856C14.9623 8.22648 14.931 8.51648 14.883 8.8044C14.7036 9.86217 14.3011 10.8323 13.6983 11.719C13.594 11.8734 13.4167 11.9151 13.2791 11.8233C13.1352 11.7274 13.1039 11.5542 13.2186 11.3852C13.7463 10.6028 14.1176 9.75368 14.2844 8.82734C14.6724 6.67006 14.1822 4.72767 12.7764 3.04398C11.6564 1.70246 10.2068 0.917994 8.47982 0.6572C8.18573 0.613387 7.88747 0.605041 7.59129 0.588351C7.37646 0.577919 7.26592 0.517415 7.22212 0.367198C7.18249 0.229498 7.24298 0.116836 7.41609 0H7.97298L7.9709 0.00417279Z" fill="#410EAD"/>
<path d="M5.09276 2.93594C7.64778 1.62989 10.4489 2.63342 11.7817 4.63423C13.1312 6.66008 12.8997 9.30766 11.2123 11.0748C9.54997 12.8148 6.8844 13.1611 4.82579 11.9052C4.27515 11.5693 3.80169 11.1436 3.40957 10.6304C3.01954 10.1213 2.73379 9.5601 2.55651 8.94463C2.37713 8.32499 2.31456 7.69282 2.37088 7.04814C2.42719 6.40972 2.60031 5.80468 2.8944 5.19755C2.23739 5.42287 1.59498 5.48755 0.904605 5.3582C0.81909 5.76712 0.710632 6.16144 0.658488 6.56411C0.420715 8.38549 0.823261 10.0608 1.90784 11.5442C3.0842 13.1591 4.6777 14.1063 6.66332 14.3566C8.35693 14.5715 9.91706 14.1835 11.3416 13.2488C11.3541 13.2404 11.3646 13.2321 11.3771 13.2237C11.5544 13.109 11.7296 13.1319 11.8255 13.2822C11.9173 13.424 11.8735 13.6034 11.7045 13.7078C11.3917 13.8976 11.083 14.0979 10.7555 14.2544C6.53609 16.2719 1.56161 14.0312 0.285142 9.53507C-0.127833 8.0788 -0.0861187 6.62461 0.370657 5.18086C0.406115 5.07028 0.414458 4.94093 0.391515 4.82826C0.0139967 2.95264 1.24875 1.02902 3.11757 0.584629C3.68906 0.449016 4.25429 0.444843 4.82787 0.563765C5.03644 0.607579 5.14699 0.70981 5.19079 0.922617C5.32219 1.55061 5.31176 2.17234 5.13239 2.7899C5.11987 2.83163 5.10944 2.87335 5.09276 2.93803V2.93594ZM0.94632 4.25452C0.973434 4.21488 1.00263 4.17732 1.02766 4.13768C1.52615 3.39703 2.15605 2.79616 2.91734 2.33508C3.15511 2.19112 3.32614 2.20572 3.42626 2.3768C3.5222 2.54371 3.45546 2.69393 3.22394 2.83371C2.46891 3.29271 1.85987 3.89984 1.39475 4.65301C1.36555 4.701 1.34052 4.75107 1.31341 4.79906C1.31967 4.81575 1.32592 4.83244 1.33218 4.84913C1.59707 4.83035 1.86404 4.8387 2.12267 4.79071C3.82255 4.48193 4.8967 2.9881 4.66518 1.27938C4.6485 1.1542 4.59427 1.1083 4.47747 1.09161C3.52429 0.966431 2.67539 1.20427 1.95373 1.84061C1.23624 2.47486 0.915034 3.29062 0.94632 4.25452ZM5.63088 6.18648C5.60794 6.18439 5.58499 6.17813 5.55996 6.17813C4.78407 6.17813 4.00818 6.17813 3.23228 6.17605C3.14468 6.17605 3.11757 6.2136 3.09671 6.28871C2.96322 6.78317 2.89857 7.28598 2.94445 7.79505C2.97574 8.14139 3.04665 8.48563 3.0988 8.81736H5.62879C5.61628 8.37089 5.59125 7.93692 5.59125 7.50296C5.59125 7.069 5.61419 6.63504 5.62879 6.18439L5.63088 6.18648ZM9.3852 8.8278C9.42066 8.8278 9.47489 8.8278 9.52703 8.8278C10.2696 8.8278 11.01 8.82571 11.7525 8.82988C11.8505 8.82988 11.8839 8.79859 11.9089 8.70887C12.1217 7.90772 12.1217 7.10864 11.9152 6.30749C11.8881 6.20108 11.838 6.17396 11.7337 6.17396C10.987 6.17813 10.2404 6.17605 9.49366 6.17605C9.45194 6.17605 9.40814 6.1823 9.38729 6.18439V8.8278H9.3852ZM6.23366 6.18439C6.15648 7.07318 6.15231 7.94736 6.23574 8.81945H8.76574C8.84499 7.93692 8.84708 7.06483 8.76574 6.18439H6.23574H6.23366ZM8.72819 5.58352C8.59888 5.07654 8.49459 4.59042 8.3465 4.11891C8.25473 3.83099 8.11916 3.54725 7.95856 3.29062C7.65821 2.81702 7.34118 2.81285 7.04918 3.28854C6.86772 3.58271 6.72172 3.91027 6.61743 4.23991C6.47977 4.67179 6.39634 5.12244 6.28371 5.58352H8.73028H8.72819ZM8.69482 9.42449H6.31083C6.32751 9.53716 6.34211 9.6373 6.36089 9.73744C6.47352 10.3425 6.61117 10.9413 6.90526 11.4858C7.00121 11.6631 7.13261 11.8259 7.27444 11.9698C7.42044 12.1159 7.57687 12.1117 7.73121 11.9698C7.84384 11.8655 7.95021 11.7445 8.02739 11.6131C8.41951 10.9413 8.56759 10.1923 8.69482 9.42449ZM6.48603 3.05904C5.63505 3.22595 4.76739 3.73293 4.12706 4.43186C3.8142 4.77193 3.55557 5.14956 3.36786 5.58352H5.71639C5.85197 4.70517 6.03551 3.84977 6.48603 3.05904ZM8.50711 3.04443C8.97431 3.85811 9.1516 4.71977 9.28926 5.58144H11.6482C10.9829 4.25869 9.95669 3.41998 8.50711 3.04443ZM8.52171 11.9427C9.7064 11.7821 11.3958 10.4051 11.6211 9.42241H9.28926C9.15577 10.2987 8.97014 11.1562 8.52379 11.9427H8.52171ZM6.47977 11.9406C6.03343 11.1562 5.84988 10.2966 5.71431 9.42449H3.38037C3.84132 10.5991 5.16993 11.7049 6.47977 11.9406Z" fill="#410EAD"/>
<path d="M12.8872 12.6013C12.883 12.7619 12.7412 12.8955 12.5827 12.8871C12.4283 12.8788 12.3011 12.7453 12.3053 12.5888C12.3074 12.426 12.4471 12.2967 12.6098 12.303C12.7662 12.3092 12.8935 12.4448 12.8893 12.5992L12.8872 12.6013Z" fill="#410EAD"/>
</svg>
