<svg width="15" height="16" viewBox="0 0 15 16" fill="none" xmlns="http://www.w3.org/2000/svg">
<path d="M7.4981 0.00389114C7.95219 0.159533 8.41003 0.319066 8.86412 0.470817C10.8118 1.12062 12.7595 1.76654 14.7035 2.41245C14.741 2.42412 14.7823 2.4358 14.8161 2.45525C14.9024 2.50584 14.9024 2.58755 14.8123 2.63035C14.741 2.66537 14.6622 2.68872 14.5871 2.71206C12.2529 3.48638 9.91866 4.26459 7.58442 5.03502C7.4981 5.06226 7.38552 5.06226 7.2992 5.03502C6.58617 4.80545 5.87689 4.56809 5.16386 4.33074C3.50512 3.77821 1.84263 3.22568 0.183887 2.67315C0.165123 2.66537 0.142607 2.66537 0.127595 2.6537C0.0825617 2.61868 0.0412808 2.57977 0 2.54086C0.0412808 2.50195 0.0788089 2.44747 0.127595 2.43191C0.8031 2.20234 1.48236 1.97665 2.15786 1.75097C3.85788 1.18677 5.55415 0.622568 7.25417 0.0583656C7.29545 0.0428014 7.33298 0.0194553 7.37426 0C7.41554 0 7.45307 0 7.49435 0L7.4981 0.00389114ZM5.16761 2.49416C5.2239 2.5214 5.24267 2.52918 5.26518 2.53696C5.93693 2.77432 6.60869 3.01556 7.28419 3.24903C7.34048 3.26848 7.41179 3.2607 7.46808 3.24124C7.92968 3.0856 8.38752 2.92218 8.84911 2.76265C9.10055 2.67315 9.35574 2.58755 9.64095 2.48638C8.89039 2.22568 8.17361 1.97665 7.45307 1.73152C7.41929 1.71984 7.37426 1.72763 7.33673 1.7393C6.6237 1.98444 5.91442 2.23346 5.16386 2.49416H5.16761ZM7.70451 3.36965C7.70451 3.36965 7.70075 3.393 7.697 3.40078C8.365 3.63813 9.033 3.8716 9.701 4.10506C9.74603 4.12062 9.80983 4.10506 9.85862 4.0856C10.5266 3.86381 11.1946 3.64202 11.8589 3.41634C11.9264 3.393 11.9977 3.36576 12.084 3.33463C12.0465 3.31907 12.0352 3.31128 12.0202 3.30739C11.5436 3.14397 11.0595 3.00778 10.5979 2.80545C10.1438 2.607 9.73102 2.61479 9.27693 2.80545C8.76655 3.02335 8.22615 3.17899 7.70075 3.36576L7.70451 3.36965ZM7.06653 3.38521C6.97646 3.35408 6.92768 3.33463 6.87889 3.31517C6.42105 3.15175 5.94819 3.01556 5.50161 2.81712C5.06629 2.62257 4.66474 2.61868 4.22566 2.80934C3.76031 3.01167 3.27245 3.15175 2.76957 3.32685C2.83712 3.35019 2.8784 3.36576 2.91968 3.38132C3.38503 3.53696 3.85413 3.69261 4.32323 3.84825C4.56341 3.92607 4.79984 4.06615 5.04002 4.06615C5.27644 4.06615 5.51662 3.92218 5.75305 3.84047C6.17712 3.69261 6.60118 3.54475 7.06653 3.38132V3.38521ZM14.4596 2.55642C14.422 2.53697 14.4033 2.5214 14.3807 2.51362C13.6902 2.28405 12.9997 2.05058 12.3054 1.8249C12.2492 1.80545 12.1778 1.81712 12.1178 1.83658C11.8138 1.93774 11.5098 2.04669 11.2059 2.15175C10.8944 2.2607 10.5829 2.36965 10.2564 2.48249C10.2902 2.50195 10.3014 2.51362 10.3165 2.51751C10.992 2.75097 11.6637 2.98443 12.3392 3.2179C12.373 3.22957 12.4218 3.23346 12.4556 3.2179C13.1198 3 13.7803 2.77821 14.4596 2.55253V2.55642ZM7.72702 1.607C7.75705 1.62646 7.76455 1.63424 7.77581 1.63813C8.27493 1.81323 8.78531 1.9572 9.26943 2.16732C9.72727 2.36576 10.1476 2.37354 10.6054 2.16732C11.0145 1.98444 11.4536 1.86381 11.9114 1.70428C11.8326 1.67315 11.7913 1.6537 11.7463 1.63813C11.1721 1.44747 10.5942 1.27237 10.0312 1.06226C9.7648 0.961089 9.53212 0.96498 9.26943 1.07004C8.76655 1.26459 8.25617 1.42802 7.73078 1.6109L7.72702 1.607ZM2.92343 1.70428C2.98723 1.73152 3.02476 1.74708 3.06229 1.75875C3.62521 1.9572 4.18813 2.15953 4.7548 2.35409C4.8186 2.37743 4.90492 2.37354 4.96871 2.35409C5.63296 2.1284 6.2972 1.89494 6.96145 1.66537C6.99898 1.6537 7.03651 1.63424 7.10031 1.6109C6.46608 1.393 5.85813 1.17899 5.25017 0.976654C5.19763 0.961089 5.13384 0.976654 5.07754 0.992218C4.7473 1.09728 4.4208 1.21012 4.09056 1.31907C3.71152 1.44358 3.33249 1.57198 2.92719 1.70817L2.92343 1.70428ZM0.394045 2.54475C1.08831 2.77432 1.73755 2.99222 2.38678 3.20623C2.43932 3.22179 2.50687 3.21401 2.55941 3.19455C3.18238 2.98054 3.80534 2.76654 4.42831 2.54864C4.46208 2.53697 4.49211 2.51751 4.5484 2.49416C3.90667 2.26848 3.29496 2.05058 2.68326 1.83658C2.63822 1.82101 2.57442 1.82879 2.52564 1.84436C2.21415 1.94553 1.90642 2.05058 1.59494 2.15175C1.2084 2.28016 0.825617 2.40856 0.397797 2.54864L0.394045 2.54475ZM9.42329 4.22568C9.367 4.19844 9.35199 4.19066 9.33322 4.18288C8.70275 3.96109 8.07228 3.73541 7.44181 3.51362C7.38927 3.49416 7.32172 3.49805 7.26918 3.51751C6.66873 3.71984 6.07204 3.92996 5.47159 4.14008C5.44157 4.15175 5.41905 4.17121 5.37026 4.19844C6.00073 4.40856 6.60869 4.607 7.21289 4.81712C7.37426 4.87549 7.51687 4.87159 7.67824 4.81712C8.24866 4.61868 8.81909 4.43191 9.4308 4.22957L9.42329 4.22568ZM9.34448 0.832685C8.72152 0.626459 8.13983 0.431907 7.55815 0.241245C7.48309 0.217899 7.38927 0.217899 7.31422 0.241245C6.76255 0.416343 6.21464 0.603113 5.66673 0.782101C5.6217 0.797665 5.58042 0.817121 5.49786 0.844358C5.99698 1.01556 6.45858 1.15564 6.90141 1.33852C7.24291 1.4786 7.55064 1.48249 7.89215 1.33852C8.34999 1.14786 8.82659 1.00389 9.34073 0.824903L9.34448 0.832685Z" fill="#410EAD"/>
<path d="M7.56199 15.9996C7.51695 15.9879 7.46816 15.9724 7.41938 15.9568C5.04385 15.1669 2.66833 14.377 0.292804 13.5871C0.259029 13.5755 0.2215 13.5716 0.195231 13.5482C0.165208 13.5249 0.123927 13.486 0.12768 13.4587C0.131433 13.4198 0.168961 13.3731 0.202737 13.3576C0.334085 13.3031 0.469185 13.2642 0.600534 13.2175C2.86723 12.451 5.13392 11.6805 7.40437 10.9179C7.50194 10.8867 7.62578 10.8867 7.7196 10.9179C10.0801 11.7117 12.4369 12.5093 14.7936 13.3109C14.8687 13.3381 14.9325 13.4081 15 13.4548C14.9325 13.4976 14.8687 13.5599 14.7974 13.5871C12.4369 14.377 10.0764 15.163 7.71585 15.949C7.66706 15.9646 7.62203 15.9801 7.56949 15.9957L7.56199 15.9996ZM9.68232 13.3926C9.68232 13.3926 9.6598 13.3731 9.64854 13.3731C8.94677 13.128 8.245 12.879 7.53947 12.6377C7.48693 12.6183 7.41938 12.6299 7.36684 12.6494C6.70635 12.8751 6.04585 13.1085 5.38536 13.3381C5.35158 13.3498 5.31781 13.3692 5.26527 13.3926C6.00832 13.6494 6.72511 13.8984 7.4419 14.1436C7.49443 14.1591 7.56199 14.1436 7.61452 14.128C8.27127 13.9023 8.92425 13.6688 9.58099 13.4393C9.61477 13.4276 9.64479 13.412 9.67857 13.3965L9.68232 13.3926ZM7.81342 14.2642C7.87722 14.2914 7.911 14.3031 7.94477 14.3148C8.44389 14.4899 8.95052 14.6416 9.43839 14.8401C9.78365 14.9801 10.0951 14.9801 10.4441 14.8439C11.0033 14.626 11.5812 14.4548 12.1667 14.2603C12.1367 14.2408 12.1216 14.2253 12.1029 14.2175C11.4236 13.9801 10.7444 13.7467 10.0651 13.5093C10.0313 13.4976 9.9863 13.4938 9.94877 13.5093C9.24699 13.7545 8.54522 13.9996 7.80967 14.2603L7.81342 14.2642ZM2.85222 14.2253C2.88974 14.2408 2.90851 14.2486 2.92727 14.2564C3.64406 14.4938 4.35709 14.735 5.07388 14.9685C5.13017 14.9879 5.20147 14.9762 5.25776 14.9568C5.85821 14.7506 6.45491 14.5404 7.0516 14.3264C7.09288 14.3109 7.13417 14.2914 7.19796 14.2603C6.45866 14.0035 5.74563 13.7545 5.03259 13.5132C4.9763 13.4938 4.905 13.5015 4.84495 13.521C4.22574 13.7311 3.61028 13.9451 2.99107 14.1591C2.94979 14.1747 2.91226 14.1941 2.85222 14.2175V14.2253ZM14.591 13.4587C14.546 13.4393 14.5309 13.4315 14.5122 13.4237C13.8029 13.1825 13.0936 12.9412 12.3843 12.7078C12.3318 12.6922 12.2642 12.7 12.2117 12.7194C11.889 12.8284 11.5662 12.9451 11.2435 13.058C10.9395 13.1669 10.6318 13.272 10.309 13.3848C10.3503 13.4043 10.3653 13.4159 10.3841 13.4237C11.0634 13.6611 11.7426 13.8945 12.4219 14.128C12.4744 14.1436 12.5382 14.1397 12.5945 14.1202C12.9022 14.0229 13.2062 13.9179 13.5102 13.8167C13.8629 13.7 14.212 13.5832 14.591 13.4587ZM7.7759 12.5054C7.81718 12.5249 7.83219 12.5327 7.85095 12.5366C8.54522 12.7778 9.23573 13.0229 9.93 13.2564C9.9863 13.2759 10.0576 13.2642 10.1176 13.2447C10.7031 13.0424 11.2848 12.8362 11.8665 12.6299C11.904 12.6183 11.9415 12.5988 12.0053 12.5716C11.251 12.3148 10.5267 12.0696 9.80241 11.8284C9.75737 11.8128 9.69358 11.8284 9.64479 11.8478C9.16443 12.0113 8.68407 12.1786 8.20371 12.3459C8.06861 12.3926 7.92976 12.4432 7.77214 12.5015L7.7759 12.5054ZM5.46041 15.0891C5.51295 15.1124 5.52797 15.1202 5.54298 15.1241C6.18846 15.3381 6.83019 15.556 7.47567 15.7661C7.53572 15.7856 7.61452 15.77 7.67832 15.7506C8.28252 15.556 8.88297 15.3537 9.48342 15.1513C9.52095 15.1397 9.55848 15.1202 9.62227 15.0969C8.91299 14.8517 8.23374 14.6144 7.55448 14.3848C7.50945 14.3692 7.44565 14.3887 7.39686 14.4081C6.84895 14.5988 6.30479 14.7934 5.76064 14.984C5.67432 15.0152 5.58426 15.0463 5.46417 15.0891H5.46041ZM7.15293 12.5132C7.11165 12.4899 7.08913 12.4782 7.06662 12.4704C6.49244 12.272 5.91826 12.0696 5.34032 11.8751C5.28403 11.8556 5.21273 11.8634 5.15268 11.8829C4.48093 12.1085 3.80918 12.3342 3.13743 12.5638C3.10365 12.5755 3.07363 12.591 3.02109 12.6144C3.40012 12.7467 3.75664 12.8712 4.11316 12.9918C4.38711 13.0852 4.66482 13.2525 4.94253 13.2525C5.22399 13.2525 5.50545 13.0852 5.78691 12.9879C6.23725 12.8323 6.68383 12.6727 7.15293 12.5093V12.5132ZM4.65731 13.3848C3.99307 13.1552 3.3701 12.9373 2.74714 12.7272C2.70586 12.7117 2.64956 12.735 2.60453 12.7506C2.27053 12.8634 1.93653 12.9762 1.60628 13.0891C1.25727 13.2058 0.904511 13.3264 0.540489 13.4471C0.570511 13.4665 0.581769 13.4782 0.596781 13.4821C1.21975 13.6922 1.84646 13.8984 2.46943 14.1046C2.50321 14.1163 2.54824 14.1163 2.58577 14.1046C3.26502 13.8712 3.94428 13.6338 4.66107 13.3848H4.65731ZM5.5805 11.7389C5.65556 11.77 5.70059 11.7934 5.74563 11.8089C6.27853 11.9957 6.80767 12.1825 7.34057 12.3615C7.41938 12.3887 7.5207 12.3887 7.59951 12.3615C8.16243 12.1747 8.7216 11.9762 9.28077 11.7778C9.3258 11.7622 9.37084 11.7428 9.44214 11.7117C9.37459 11.6844 9.33706 11.6689 9.29578 11.6533C8.90174 11.5171 8.49643 11.4081 8.11365 11.2447C7.73461 11.0813 7.3856 11.0891 7.00657 11.2447C6.55248 11.4315 6.07963 11.5677 5.58426 11.735L5.5805 11.7389Z" fill="#410EAD"/>
<path d="M7.24316 7.04302H8.06503V9.6617C8.54539 9.70061 9.00323 9.70839 9.4348 9.4905C9.98646 9.21034 10.1966 8.70061 10.2379 8.10528C10.2529 7.86404 10.2417 7.61112 10.1966 7.37376C10.069 6.72007 9.56615 6.28038 8.92067 6.25703C8.4253 6.23758 7.92617 6.24536 7.4308 6.24147C7.37076 6.24147 7.31071 6.24147 7.24316 6.24147V5.58388C7.85862 5.58388 8.47033 5.56443 9.07828 5.59166C9.35224 5.60334 9.63745 5.68116 9.89264 5.78622C10.6507 6.10139 11.041 6.71618 11.1161 7.54497C11.1611 8.03524 11.1161 8.52162 10.9209 8.98466C10.6057 9.7512 10.0052 10.1286 9.25092 10.2843C8.58667 10.4205 7.92242 10.3699 7.24316 10.3115V7.04302Z" fill="#410EAD"/>
<path d="M6.0346 7.78954C6.41738 7.88293 6.70635 8.05803 6.88273 8.38877C7.17545 8.92962 7.02158 9.61834 6.53372 10.0074C6.28979 10.202 6.00833 10.3071 5.70435 10.3537C5.15644 10.4355 4.6273 10.3849 4.11691 10.1436C4.00808 10.093 3.97806 10.0386 4.02309 9.91795C4.08314 9.75453 4.12442 9.58332 4.16945 9.4199C4.39837 9.49383 4.61228 9.57943 4.8337 9.6339C5.08514 9.69616 5.34033 9.70394 5.59177 9.62612C5.8995 9.53274 6.09089 9.31095 6.12466 9.00355C6.15844 8.68838 6.01959 8.40044 5.71936 8.27593C5.51671 8.19032 5.28404 8.16698 5.06637 8.12807C4.95379 8.10861 4.83745 8.12807 4.70235 8.12807C4.70235 8.01133 4.70235 7.91017 4.70235 7.809C4.70235 7.70783 4.70235 7.60277 4.70235 7.47437C4.8337 7.47437 4.95004 7.47437 5.07013 7.47437C5.31031 7.47437 5.53923 7.43157 5.74188 7.2876C5.92952 7.1553 6.01583 6.96853 5.98581 6.73896C5.95579 6.5055 5.81318 6.35375 5.60302 6.2876C5.20523 6.16309 4.82995 6.27203 4.46968 6.45102C4.4284 6.47048 4.39087 6.49382 4.33458 6.52495C4.27453 6.32651 4.21074 6.13585 4.1582 5.94129C4.15069 5.91406 4.19572 5.8518 4.23325 5.83235C4.6348 5.59888 5.07013 5.52106 5.52046 5.52884C5.8357 5.53663 6.13592 5.60277 6.40237 5.79344C7.0366 6.2448 7.01408 7.19032 6.35734 7.61056C6.25976 7.67281 6.15844 7.7234 6.02709 7.79344L6.0346 7.78954Z" fill="#410EAD"/>
<path d="M14.8237 7.89106C14.8237 9.3541 14.8237 10.8171 14.8237 12.2802C14.8237 12.3619 14.8575 12.4903 14.7336 12.4903C14.6098 12.4903 14.6398 12.3658 14.6398 12.2841C14.6398 9.34242 14.6398 6.40079 14.6398 3.46305C14.6398 3.42803 14.6285 3.38523 14.6435 3.3541C14.6661 3.31519 14.7073 3.28795 14.7374 3.25293C14.7636 3.28406 14.8049 3.3113 14.8162 3.35021C14.8312 3.39301 14.8199 3.44359 14.8199 3.49028C14.8199 4.95721 14.8199 6.42414 14.8199 7.89495L14.8237 7.89106Z" fill="#410EAD"/>
<path d="M0.116296 7.86376C0.116296 6.39684 0.116296 4.92991 0.116296 3.45909C0.116296 3.37349 0.0750162 3.2373 0.206364 3.2373C0.33396 3.2373 0.296432 3.37738 0.296432 3.46298C0.296432 6.38905 0.296432 9.31512 0.296432 12.2373C0.296432 12.3229 0.341465 12.4591 0.210116 12.463C0.0600043 12.4669 0.116296 12.319 0.116296 12.2334C0.116296 10.7743 0.116296 9.31902 0.116296 7.85987V7.86376Z" fill="#410EAD"/>
<path d="M2.72819 7.85998C2.72819 8.98838 2.72819 10.1168 2.72819 11.2452C2.72819 11.3152 2.67565 11.4475 2.65689 11.4475C2.53304 11.432 2.57057 11.3191 2.57057 11.2413C2.57057 8.98449 2.57057 6.72768 2.57057 4.47087C2.57057 4.39305 2.52929 4.27632 2.65313 4.26465C2.6719 4.26465 2.72819 4.40083 2.72819 4.47866C2.73194 5.60706 2.72819 6.73547 2.72819 7.86387V7.85998Z" fill="#410EAD"/>
<path d="M12.3769 7.87569C12.3769 9.0002 12.3769 10.1247 12.3769 11.2492C12.3769 11.3232 12.3244 11.4632 12.3019 11.4632C12.1705 11.4555 12.2193 11.3348 12.2193 11.257C12.2193 8.99631 12.2193 6.7395 12.2193 4.4788C12.2193 4.40876 12.2719 4.27647 12.2906 4.28036C12.4182 4.29203 12.3769 4.40876 12.3769 4.48658C12.3769 5.61499 12.3769 6.74728 12.3769 7.87569Z" fill="#410EAD"/>
</svg>
