<svg width="15" height="15" viewBox="0 0 15 15" fill="none" xmlns="http://www.w3.org/2000/svg">
<path d="M7.67489 0C7.75914 0.0250469 7.84339 0.0478168 7.92536 0.0774177C8.41719 0.255023 8.74735 0.721805 8.75191 1.24324C8.75646 1.75328 8.43768 2.22917 7.95041 2.41133C7.83428 2.45459 7.81151 2.51152 7.81151 2.62309C7.81607 3.27203 7.81379 3.92098 7.81151 4.56992C7.81151 4.62912 7.81151 4.68832 7.80013 4.74525C7.77053 4.90008 7.63846 5.0071 7.49046 5.00255C7.34473 4.99799 7.22405 4.89553 7.19445 4.74525C7.18306 4.68832 7.18306 4.62912 7.18306 4.56992C7.18306 3.91187 7.18306 3.25382 7.18306 2.59349C7.18306 2.50469 7.16712 2.45687 7.07377 2.42272C6.54095 2.22006 6.20851 1.71457 6.2495 1.18631C6.29504 0.58974 6.67529 0.159389 7.26959 0.025047C7.2878 0.020493 7.30374 0.00910801 7.32196 0.00227704C7.43808 0.00227704 7.55649 0.00227704 7.67261 0.00227704L7.67489 0ZM8.12118 1.25234C8.12118 0.906242 7.84567 0.626172 7.50184 0.623895C7.16029 0.623895 6.88022 0.903965 6.87795 1.24779C6.87795 1.59389 7.15346 1.87396 7.49729 1.87396C7.84111 1.87396 8.11891 1.59617 8.12118 1.25007V1.25234Z" fill="#410EAD"/>
<path d="M14.9999 13.9446C14.9817 13.9993 14.9612 14.0516 14.9453 14.1063C14.7358 14.803 13.9958 15.1674 13.3104 14.9146C12.641 14.6664 12.3154 13.8968 12.6114 13.241C12.6592 13.1363 12.6455 13.0816 12.5681 13.0065C12.1833 12.6308 11.8076 12.2483 11.4273 11.868C11.3955 11.8361 11.3636 11.8065 11.3363 11.7724C11.2179 11.6312 11.2224 11.4581 11.3476 11.3375C11.4706 11.2168 11.6459 11.2145 11.7825 11.3375C11.9123 11.4559 12.033 11.5834 12.156 11.7086C12.4497 12.0023 12.7434 12.2938 13.0349 12.5898C13.0827 12.6399 13.1214 12.6649 13.1966 12.6285C13.9685 12.2505 14.8428 12.7333 14.9772 13.5234C14.9772 13.537 14.9908 13.5484 14.9999 13.5598V13.9401V13.9446ZM13.126 13.7488C13.126 14.0903 13.4106 14.375 13.7521 14.375C14.0914 14.375 14.3783 14.0881 14.3783 13.7465C14.3783 13.405 14.0937 13.1226 13.7521 13.1226C13.4106 13.1226 13.1282 13.405 13.1282 13.7488H13.126Z" fill="#410EAD"/>
<path d="M1.87324 5.4506C1.87324 5.86957 1.87324 6.26349 1.87324 6.65968C1.87324 7.99628 1.87324 9.33515 1.87324 10.6717C1.87324 10.7196 1.87552 10.7696 1.87097 10.8175C1.85047 10.9837 1.70702 11.1044 1.54991 11.0975C1.3928 11.0907 1.26984 10.9677 1.25618 10.8061C1.25162 10.7537 1.2539 10.6991 1.2539 10.6444C1.2539 8.85242 1.2539 7.06043 1.2539 5.26844C1.2539 5.18647 1.24707 5.10222 1.24707 5.02025C1.24707 4.86086 1.32221 4.74701 1.47022 4.69237C2.80225 4.20509 4.13429 3.71781 5.46633 3.23054C5.67126 3.1554 5.84203 3.21232 5.91262 3.37627C5.99004 3.55159 5.90807 3.7292 5.70314 3.80662C5.12251 4.02293 4.54187 4.23469 3.96124 4.44873C3.47624 4.62633 2.99124 4.80394 2.4812 4.99293C2.54951 5.02253 2.59732 5.04302 2.64514 5.06124C4.2322 5.64642 5.81926 6.23161 7.40633 6.81224C7.46097 6.83273 7.53384 6.83729 7.58621 6.8168C9.21198 6.2225 10.8355 5.62365 12.4567 5.02481C12.4704 5.02025 12.4817 5.00887 12.5113 4.98837C12.3907 4.94283 12.2814 4.89957 12.1721 4.86086C11.2203 4.51021 10.2685 4.16183 9.319 3.81117C9.12318 3.73831 9.03665 3.60169 9.07536 3.43547C9.12318 3.23054 9.30989 3.14401 9.53759 3.22598C10.1 3.43091 10.6624 3.6404 11.2248 3.84533C11.9899 4.12539 12.7527 4.40546 13.5178 4.68326C13.6817 4.74246 13.7568 4.85175 13.7568 5.02708C13.7546 6.89194 13.7523 8.75679 13.75 10.6216C13.75 10.6808 13.75 10.74 13.7477 10.797C13.7341 10.9655 13.6043 11.0907 13.4426 11.093C13.281 11.093 13.1466 10.97 13.1307 10.8015C13.1261 10.7537 13.1307 10.7036 13.1307 10.6558C13.1307 8.98221 13.1307 7.30635 13.1307 5.63276V5.44377C12.7254 5.59178 12.3383 5.73523 11.9512 5.87868C10.6192 6.36823 9.2894 6.86006 7.95736 7.34733C7.86628 7.38149 7.81618 7.41337 7.81618 7.52949C7.82074 9.72223 7.81846 11.9127 7.81846 14.1054C7.81846 14.1396 7.82074 14.1737 7.82302 14.2238C7.87539 14.2056 7.92093 14.1942 7.96419 14.1783C8.85677 13.8504 9.74935 13.5225 10.6419 13.1992C10.7239 13.1696 10.8241 13.1537 10.9083 13.1696C11.0472 13.1969 11.1224 13.3039 11.1315 13.4428C11.1406 13.5908 11.0654 13.7001 10.9311 13.7525C10.7057 13.8436 10.4734 13.9233 10.2457 14.0075C9.37592 14.3263 8.50839 14.6496 7.6363 14.9639C7.55661 14.9935 7.44959 14.9935 7.36989 14.9639C6.30199 14.5768 5.23636 14.1829 4.17072 13.7912C4.12974 13.7753 4.08875 13.7616 4.04777 13.7434C3.89293 13.666 3.82918 13.5043 3.89293 13.3495C3.95441 13.1946 4.1138 13.1127 4.27547 13.1696C4.65345 13.3017 5.02687 13.4406 5.40258 13.5795C5.95133 13.7798 6.50008 13.9825 7.05112 14.1829C7.08755 14.1965 7.12398 14.2079 7.18546 14.2284C7.18546 14.1624 7.18546 14.1123 7.18546 14.0622C7.18546 11.8945 7.18546 9.72679 7.18773 7.55909C7.18773 7.43614 7.14903 7.38377 7.03518 7.34278C5.35476 6.72799 3.67662 6.10865 1.99848 5.48931C1.96204 5.47565 1.92561 5.46426 1.87324 5.44833V5.4506Z" fill="#410EAD"/>
<path d="M1.25382 12.4737C1.43142 12.5238 1.61131 12.5603 1.78208 12.6263C1.86633 12.6582 1.91187 12.6468 1.97107 12.5876C2.35588 12.1982 2.74297 11.8134 3.13006 11.4263C3.17104 11.3853 3.21203 11.3421 3.25985 11.3079C3.38508 11.2191 3.53992 11.2328 3.64921 11.3352C3.75851 11.4377 3.78128 11.5948 3.6993 11.7223C3.66515 11.7747 3.61961 11.8202 3.57407 11.8658C3.19154 12.2506 2.809 12.6331 2.42419 13.0134C2.35588 13.0794 2.33539 13.1295 2.37865 13.2251C2.6018 13.7079 2.50161 14.2612 2.13274 14.6323C1.77297 14.9944 1.21966 15.0991 0.75288 14.8942C0.272436 14.6847 -0.0235732 14.2042 0.00147372 13.676C0.0333516 13.0225 0.584383 12.5033 1.25609 12.4714L1.25382 12.4737ZM1.25382 13.1249C0.912269 13.1249 0.627646 13.4027 0.623092 13.7443C0.618538 14.0836 0.903162 14.3727 1.24471 14.375C1.58398 14.3796 1.87088 14.0949 1.87544 13.7534C1.87771 13.4118 1.59764 13.1272 1.25609 13.1249H1.25382Z" fill="#410EAD"/>
</svg>
