<svg width="15" height="15" viewBox="0 0 15 15" fill="none" xmlns="http://www.w3.org/2000/svg">
<path d="M11.0398 15C10.8145 14.922 10.5748 14.8757 10.3697 14.763C9.65048 14.3671 9.25475 13.7574 9.25475 12.9251C9.24898 11.2664 9.25475 9.60477 9.25475 7.94604C9.25475 6.7121 10.0087 5.70935 11.1929 5.35679C11.8342 5.16607 12.4639 4.93488 13.0156 4.54765C13.2293 4.39738 13.4315 4.22111 13.5991 4.02171C13.9052 3.66338 13.8937 3.30216 13.5991 2.93226C13.2958 2.5537 12.8885 2.31385 12.4581 2.10579C11.6378 1.71277 10.7654 1.48737 9.87289 1.34866C8.43731 1.12326 6.99595 1.10592 5.55458 1.28798C4.44251 1.42958 3.35644 1.68099 2.35124 2.19826C2.02484 2.36587 1.71866 2.56815 1.47025 2.84268C1.06875 3.28193 1.07163 3.69806 1.4818 4.1373C1.85731 4.53898 2.32524 4.79617 2.82495 5.00424C3.17157 5.14873 3.52686 5.26721 3.88503 5.37991C4.99422 5.73535 5.73656 6.73522 5.73945 7.8998C5.74234 9.55854 5.73945 11.2202 5.73945 12.8789C5.73945 13.9683 5.0491 14.7862 3.97458 14.9769C3.95724 14.9798 3.93991 14.9913 3.92258 15H3.48353C2.99249 14.9046 2.5361 14.7168 2.0855 14.503C1.62623 14.2833 1.19584 14.0204 0.820334 13.6736C0.395725 13.2835 0.106874 12.8182 0 12.246V3.25303C0.0722125 2.91781 0.187753 2.59994 0.392836 2.31963C0.730791 1.85437 1.17273 1.51627 1.66666 1.24174C2.94049 0.536633 4.32986 0.236095 5.75967 0.0887165C6.79086 -0.0182055 7.82495 -0.0268746 8.85903 0.0540394C9.88733 0.134953 10.9012 0.293891 11.8833 0.617547C12.7123 0.889187 13.5037 1.24174 14.1623 1.83126C14.7082 2.31963 15.0029 2.91204 15 3.66916C14.9855 6.42601 14.9913 9.18287 14.9942 11.9397C14.9942 12.4021 14.8613 12.8124 14.5985 13.1852C14.3039 13.6013 13.9168 13.9221 13.4835 14.1822C12.8683 14.5521 12.2155 14.8411 11.5078 14.9942H11.0398V15ZM1.17273 5.42326C1.17273 5.48972 1.17273 5.52151 1.17273 5.55619C1.17273 7.69752 1.16984 9.84174 1.17851 11.9831C1.17851 12.1536 1.25361 12.3356 1.34026 12.4859C1.42692 12.6333 1.5569 12.7633 1.68977 12.876C2.18659 13.3008 2.77585 13.5609 3.38821 13.769C3.99191 13.9741 4.56672 13.5638 4.56961 12.9251C4.57249 11.252 4.57249 9.57588 4.56961 7.90269C4.56961 7.2496 4.16522 6.70632 3.54419 6.50404C3.29 6.42023 3.03293 6.34221 2.78163 6.24974C2.22126 6.04745 1.68977 5.78737 1.17273 5.42326ZM13.8244 5.4406C13.7926 5.45504 13.7781 5.45793 13.7666 5.46371C13.0878 5.93764 12.331 6.24107 11.5424 6.47514C10.8261 6.68898 10.4304 7.2207 10.4275 7.96916C10.4275 9.06149 10.4275 10.1567 10.4275 11.2491C10.4275 11.8155 10.4217 12.3819 10.4275 12.9483C10.4333 13.5522 10.9994 13.9568 11.5742 13.7776C11.7215 13.7314 11.8688 13.6765 12.0133 13.6187C12.5245 13.4077 13.0156 13.1592 13.4229 12.772C13.6915 12.5148 13.8301 12.2171 13.8301 11.827C13.8186 9.75793 13.8244 7.68885 13.8244 5.61976V5.4406Z" fill="#410EAD"/>
<path d="M7.50145 9.20564C7.28192 9.20564 7.0624 9.20564 6.84287 9.20564C6.51069 9.20564 6.25362 8.97167 6.23629 8.65682C6.21896 8.33909 6.44426 8.05602 6.77355 8.04446C7.25593 8.02424 7.73831 8.02424 8.22069 8.04446C8.54997 8.0589 8.77239 8.34487 8.75217 8.6626C8.73195 8.97745 8.47487 9.20564 8.1427 9.20564C7.92895 9.20564 7.7152 9.20564 7.49856 9.20564H7.50145Z" fill="#410EAD"/>
</svg>
