<svg width="15" height="15" viewBox="0 0 15 15" fill="none" xmlns="http://www.w3.org/2000/svg">
<path d="M0 10.9262C0.112694 10.6806 0.306298 10.5939 0.575031 10.5997C1.26276 10.6113 1.95048 10.6026 2.6122 10.6026C2.71912 10.4755 2.80291 10.3599 2.90405 10.2588C3.51376 9.64628 4.12924 9.04243 4.73317 8.42414C5.49313 7.64694 6.35712 7.0142 7.33092 6.52592C8.05621 6.16188 8.70059 5.68516 9.32474 5.07553C9.22072 4.98885 9.1138 4.91374 9.02134 4.82417C8.80173 4.61037 8.80462 4.36189 9.02134 4.14231C10.2552 2.89706 11.4891 1.6547 12.7229 0.412332C13.1361 -0.00371579 13.7025 -0.110617 14.2168 0.117631C14.7052 0.334323 15.0144 0.828379 14.9941 1.37155C14.9797 1.73559 14.8265 2.03607 14.5723 2.29321C13.714 3.1542 12.8587 4.01808 12.0034 4.88195C11.6364 5.25177 11.2666 5.62448 10.8996 5.9943C10.6655 6.23122 10.4228 6.23122 10.1858 5.9943C10.102 5.91052 10.0269 5.82384 9.93156 5.71694C9.76396 5.90474 9.60793 6.06942 9.46345 6.24278C9.04734 6.73683 8.70637 7.2829 8.41452 7.85785C7.96952 8.73617 7.38871 9.51337 6.68943 10.2068C6.30511 10.5882 5.92368 10.9724 5.53937 11.3567C5.50469 11.3914 5.47291 11.426 5.41511 11.4867H5.60872C8.55611 11.4867 11.5035 11.4867 14.4538 11.4867C14.8381 11.4867 14.997 11.6427 14.997 12.0241C14.997 12.8186 14.9884 13.6161 14.9999 14.4106C15.0028 14.6822 14.9248 14.8844 14.6734 15H0.323636C0.179156 14.9307 0.07224 14.8238 0 14.6764V10.9291V10.9262ZM0.884218 14.1101H14.1041V12.3621H13.977C10.8331 12.3621 7.69212 12.3621 4.54823 12.3621C4.51067 12.3621 4.47021 12.3593 4.43265 12.365C4.24771 12.4055 4.10034 12.3361 3.9732 12.2061C3.77671 12.0039 3.56866 11.8074 3.37505 11.6023C3.29126 11.5156 3.20746 11.478 3.0832 11.478C2.4186 11.4838 1.75688 11.4809 1.09227 11.4809H0.884218V14.1072V14.1101ZM10.5702 5.1102C10.6077 5.06109 10.6424 5.00908 10.6857 4.96285C11.1856 4.45724 11.6884 3.95163 12.1883 3.44601C12.772 2.85661 13.3557 2.2701 13.9423 1.6807C14.0695 1.55068 14.1475 1.40911 14.1041 1.22131C14.0637 1.05663 13.9626 0.946837 13.7978 0.900609C13.6129 0.848603 13.4655 0.912167 13.3355 1.04218C12.2201 2.16609 11.1018 3.29288 9.98646 4.41679C9.96624 4.43701 9.9489 4.46013 9.93445 4.47746C10.1425 4.6826 10.3419 4.88195 10.5702 5.1102ZM4.34307 11.3018C4.36041 11.2874 4.38641 11.2642 4.40953 11.2411C4.98167 10.6691 5.57115 10.1086 6.12307 9.51915C6.49871 9.11755 6.8368 8.68128 7.16621 8.24212C7.36559 7.97631 7.51008 7.67294 7.68056 7.38691C7.63433 7.37246 7.61121 7.38113 7.59098 7.39269C6.99573 7.70183 6.42069 8.04854 5.93524 8.51081C5.19261 9.21578 4.4731 9.94675 3.74492 10.6662C3.73625 10.6748 3.73048 10.6893 3.72759 10.6951C3.92986 10.8973 4.12924 11.0967 4.34307 11.3076V11.3018Z" fill="#410EAD"/>
<path d="M3.54573 6.5956C3.56595 5.91374 4.15254 5.33879 4.83449 5.33301C5.09455 5.33301 5.29105 5.51214 5.29971 5.75772C5.30838 5.99464 5.12634 6.18822 4.87494 6.21133C4.59754 6.23444 4.4415 6.38468 4.42128 6.65049C4.39816 6.92208 4.20455 7.10699 3.95605 7.08965C3.70754 7.07232 3.53706 6.87007 3.54573 6.5956Z" fill="#410EAD"/>
<path d="M2.27113 2.69741C2.95308 2.71185 3.531 3.29547 3.54255 3.97733C3.54544 4.23736 3.37207 4.4396 3.12645 4.45116C2.88373 4.46561 2.68723 4.2807 2.66412 4.02067C2.641 3.74619 2.49074 3.59595 2.21912 3.57284C1.95616 3.55261 1.77412 3.35904 1.78568 3.11634C1.79724 2.86498 1.99951 2.69163 2.27113 2.69741Z" fill="#410EAD"/>
<path d="M2.66397 8.37753C2.66397 8.63756 2.48482 8.83692 2.24209 8.84559C2.00514 8.85426 1.80865 8.67512 1.78842 8.42376C1.76242 8.13484 1.62082 7.99038 1.33764 7.96726C1.07758 7.94415 0.895534 7.74768 0.909982 7.50499C0.92443 7.26519 1.11803 7.08894 1.37232 7.09183C2.06582 7.09183 2.66108 7.68701 2.66686 8.38042L2.66397 8.37753Z" fill="#410EAD"/>
</svg>
