<svg width="15" height="13" viewBox="0 0 15 13" fill="none" xmlns="http://www.w3.org/2000/svg">
<path d="M15.0002 3.59027C14.9448 3.65157 14.8914 3.71696 14.8341 3.77622C14.6127 4.00712 14.3774 4.22781 14.1699 4.47097C13.9959 4.67531 13.8536 4.67531 13.6816 4.47506C13.47 4.22781 13.2427 3.99282 13.0035 3.77418C12.8078 3.5964 12.8097 3.45132 13.0074 3.26946C13.2466 3.05082 13.472 2.81379 13.6855 2.56654C13.8536 2.37242 13.9959 2.37037 14.1639 2.5645C14.3814 2.81379 14.6206 3.04265 14.8499 3.27968C14.9013 3.33281 14.9508 3.38593 15.0002 3.43906V3.59027ZM14.3834 3.52693C14.2331 3.37163 14.071 3.20203 13.9208 3.04673C13.7725 3.20203 13.6124 3.36959 13.472 3.51671C13.6223 3.67201 13.7863 3.84161 13.9267 3.98669C14.071 3.83957 14.2351 3.6761 14.3834 3.52693Z" fill="#410EAD"/>
<path d="M3.2847 0.82757H11.7163V0.451588C11.6551 0.451588 11.5918 0.451588 11.5305 0.451588C9.52392 0.451588 7.5193 0.451588 5.51271 0.451588C5.45933 0.451588 5.40596 0.453631 5.35258 0.447501C5.23396 0.435241 5.16477 0.365766 5.15686 0.243163C5.14895 0.11443 5.21419 0.0326943 5.33676 0.00817372C5.38026 1.8726e-07 5.42375 0 5.46724 0C7.53709 0 9.60695 0 11.6748 0C12.0267 0 12.1671 0.143037 12.1671 0.500629C12.1671 1.46511 12.1671 2.42754 12.1671 3.39201C12.1671 3.45127 12.1789 3.53301 12.1473 3.56775C12.09 3.62905 12.005 3.69852 11.9279 3.70261C11.8073 3.70874 11.7361 3.60861 11.7322 3.48192C11.7262 3.31641 11.7322 3.1509 11.7322 2.97312H3.2847V11.6963H11.7282V11.5083C11.7282 9.23405 11.7282 6.95772 11.7282 4.68343C11.7282 4.61804 11.7282 4.55061 11.742 4.48931C11.7697 4.3708 11.8547 4.31154 11.9694 4.3238C12.0781 4.33401 12.1473 4.40145 12.1611 4.51792C12.1671 4.56287 12.1651 4.60783 12.1651 4.65483C12.1651 7.26218 12.1651 9.87158 12.1651 12.4789C12.1651 12.859 12.0287 13 11.663 13C8.93479 13 6.20662 13 3.47844 13C3.03363 13 2.83594 12.7957 2.83594 12.3359C2.83594 8.44734 2.83594 4.55674 2.83594 0.668186C2.83594 0.208425 3.03165 0.00613024 3.47844 0.00408686C3.76114 0.00408686 4.04385 0.00408691 4.32853 0.00613029C4.44121 0.00613029 4.54203 0.0613017 4.54994 0.181861C4.5539 0.25951 4.51238 0.353505 4.46098 0.414807C4.42935 0.453631 4.34434 0.455675 4.28306 0.455675C4.02408 0.459761 3.7651 0.455675 3.50612 0.455675C3.27877 0.455675 3.27284 0.461805 3.27482 0.690664C3.27482 0.735618 3.27877 0.778529 3.28273 0.831657L3.2847 0.82757ZM3.2847 2.49701H11.7203V1.30163H3.28273V2.49701H3.2847ZM3.2847 12.1643C3.26625 12.4149 3.36905 12.5402 3.5931 12.5402C6.23825 12.5402 8.88339 12.5402 11.5285 12.5402C11.5898 12.5402 11.6531 12.5402 11.7163 12.5402V12.1643H3.2847Z" fill="#410EAD"/>
<path d="M7.50355 6.68623C8.05512 6.68623 8.60668 6.68623 9.15825 6.68623C9.99449 6.68623 10.55 7.2645 10.552 8.1309C10.552 8.94825 10.552 9.76561 10.552 10.583C10.552 11.1081 10.2258 11.3983 9.72365 11.3022C9.22546 11.2082 8.88938 10.9058 8.73321 10.4052C8.67785 10.2274 8.63831 10.0455 8.5968 9.86369C8.56319 9.71861 8.48016 9.64709 8.33782 9.64709C7.7823 9.64709 7.2248 9.64709 6.66928 9.64709C6.52694 9.64709 6.44391 9.71861 6.4103 9.86369C6.36879 10.0496 6.3253 10.2376 6.26994 10.4195C6.10783 10.9589 5.61953 11.3227 5.07785 11.3165C4.73189 11.3124 4.465 11.0448 4.45511 10.6892C4.45116 10.538 4.45116 10.3868 4.45511 10.2356C4.45907 10.0905 4.5421 9.99855 4.66467 9.99446C4.79317 9.99038 4.88609 10.0864 4.89202 10.2356C4.89597 10.3725 4.89202 10.5074 4.89399 10.6443C4.89795 10.7975 4.96516 10.8629 5.11343 10.8609C5.44754 10.8609 5.75989 10.6116 5.85874 10.2621C5.90619 10.0925 5.94177 9.9209 5.98329 9.74926C6.07225 9.39575 6.31739 9.19346 6.67324 9.19346C7.2248 9.19141 7.77637 9.19346 8.32793 9.19346C8.69169 9.19346 8.93485 9.39575 9.02382 9.75947C9.06533 9.92499 9.09894 10.0925 9.14441 10.2581C9.24128 10.6034 9.5398 10.8486 9.87192 10.8609C10.04 10.867 10.1092 10.8057 10.1111 10.634C10.1111 9.76152 10.1151 8.88899 10.1092 8.01647C10.1052 7.54854 9.74737 7.18073 9.27884 7.1419C8.92695 7.1133 8.6963 7.27064 8.58691 7.61392C8.56517 7.68136 8.5454 7.74879 8.52167 7.81417C8.48411 7.92043 8.40899 7.97765 8.29828 7.97765C7.76648 7.97765 7.23469 7.97765 6.70289 7.97765C6.58625 7.97765 6.51311 7.91021 6.47752 7.79783C6.41821 7.61188 6.36286 7.42389 6.29564 7.23998C6.2818 7.19912 6.22843 7.14599 6.19284 7.14599C6.00701 7.1419 5.82118 7.13373 5.63732 7.16029C5.20833 7.21955 4.9019 7.58736 4.89399 8.03486C4.88806 8.38837 4.89399 8.74187 4.89399 9.09333C4.89399 9.28132 4.81096 9.38349 4.66862 9.38145C4.53024 9.37941 4.45511 9.28132 4.45511 9.09946C4.45511 8.75617 4.45314 8.41289 4.45511 8.0696C4.46104 7.2829 5.02645 6.69644 5.78955 6.68827C6.36088 6.68214 6.93222 6.68827 7.50355 6.68827V6.68623ZM6.73057 7.14395C6.76615 7.25429 6.78592 7.34828 6.82744 7.43002C6.84721 7.47089 6.90454 7.51993 6.94605 7.51993C7.31574 7.52606 7.68741 7.52606 8.05709 7.51993C8.09466 7.51993 8.15199 7.49949 8.16385 7.47293C8.20536 7.37076 8.23304 7.26042 8.26863 7.1419H6.73057V7.14395Z" fill="#410EAD"/>
<path d="M5.66283 5.05805H4.49446C4.49248 5.1071 4.48655 5.15409 4.48655 5.20313C4.48655 5.48512 4.48655 5.76711 4.48655 6.04909C4.48655 6.20235 4.39957 6.30247 4.27502 6.30656C4.15047 6.31065 4.05162 6.21052 4.04965 6.0634C4.04767 5.48921 4.03581 4.91297 4.0536 4.34083C4.07139 3.77072 4.54784 3.33957 5.10731 3.34979C5.64504 3.36 6.08787 3.81159 6.09775 4.37557C6.10764 4.92932 6.10171 5.48512 6.09973 6.03888C6.09973 6.20644 6.0167 6.30656 5.88622 6.3086C5.75179 6.31065 5.66283 6.20439 5.66085 6.0307C5.65887 5.76302 5.66085 5.49738 5.66085 5.2297C5.66085 5.17657 5.66085 5.1214 5.66085 5.0601L5.66283 5.05805ZM4.49446 4.58195H5.65492C5.68853 4.28157 5.62527 4.03432 5.36826 3.88107C5.16069 3.75642 4.9452 3.76664 4.74751 3.90354C4.51423 4.06497 4.46085 4.30609 4.49446 4.5799V4.58195Z" fill="#410EAD"/>
<path d="M10.5182 5.05797H9.34981C9.34784 5.1111 9.34191 5.16218 9.34191 5.21531C9.34191 5.48708 9.34191 5.75885 9.34191 6.03266C9.34191 6.20431 9.24701 6.31056 9.11258 6.30647C8.9821 6.30239 8.90303 6.20226 8.90303 6.03266C8.90303 5.48912 8.8971 4.94354 8.90303 4.4C8.91093 3.80333 9.36168 3.34766 9.92906 3.34766C10.4945 3.34766 10.9472 3.8115 10.9551 4.40409C10.961 4.94763 10.9571 5.49321 10.9551 6.03675C10.9551 6.20022 10.8681 6.30443 10.7396 6.30647C10.6052 6.31056 10.5182 6.2043 10.5162 6.03062C10.5162 5.70981 10.5162 5.389 10.5162 5.05797H10.5182ZM10.5103 4.59003C10.5439 4.28148 10.4727 4.03423 10.2137 3.87689C10.0121 3.75633 9.75113 3.77881 9.56925 3.92798C9.3597 4.09962 9.31423 4.32848 9.35575 4.59003H10.5123H10.5103Z" fill="#410EAD"/>
<path d="M6.91409 5.05939C6.91409 5.11865 6.91409 5.17382 6.91409 5.22695C6.91409 5.50485 6.91606 5.78071 6.91409 6.05861C6.91211 6.20777 6.81524 6.3079 6.69069 6.30586C6.57405 6.30586 6.47916 6.2139 6.47916 6.08108C6.47718 5.48646 6.46137 4.89184 6.48509 4.29721C6.50881 3.74754 6.99514 3.33273 7.54473 3.34704C8.06664 3.36134 8.51738 3.81089 8.52727 4.35238C8.53715 4.91636 8.53122 5.48033 8.52924 6.04635C8.52924 6.20777 8.43633 6.30994 8.30585 6.30586C8.1813 6.30177 8.09234 6.20164 8.09234 6.04839C8.09036 5.72145 8.09234 5.39451 8.09234 5.05939H6.91606H6.91409ZM8.08048 4.58737C8.11606 4.3013 8.06071 4.05814 7.81755 3.89671C7.60997 3.7598 7.39053 3.7598 7.18493 3.89671C6.94176 4.05814 6.88641 4.3013 6.92397 4.58737H8.08048Z" fill="#410EAD"/>
<path d="M2.18353 9.05443C2.12817 9.13821 2.09456 9.22403 2.03526 9.26899C1.74465 9.48763 1.49555 9.74714 1.286 10.0475C1.17529 10.2069 0.991434 10.2089 0.878748 10.0496C0.663262 9.74714 0.410214 9.48354 0.115651 9.26285C-0.0385503 9.14638 -0.0385503 8.95839 0.115651 8.84192C0.410214 8.62123 0.661285 8.35764 0.878748 8.05522C0.991434 7.89788 1.17529 7.89992 1.286 8.0593C1.49753 8.35968 1.74465 8.61919 2.03526 8.83783C2.09456 8.88279 2.1262 8.96861 2.18155 9.05239L2.18353 9.05443ZM1.08237 8.58241C0.926195 8.73975 0.764086 8.90322 0.625701 9.04421C0.775948 9.2036 0.93608 9.37115 1.08237 9.52645C1.23064 9.37115 1.39275 9.20155 1.53114 9.05647C1.38682 8.90322 1.22669 8.73362 1.08237 8.58037V8.58241Z" fill="#410EAD"/>
<path d="M13.3139 0.388852C13.3929 0.444024 13.4661 0.482848 13.5214 0.538019C13.7112 0.726011 13.8892 0.924218 14.0809 1.10812C14.2213 1.24503 14.2213 1.39828 14.0789 1.53519C13.8872 1.71909 13.7013 1.91117 13.5234 2.10938C13.391 2.2565 13.2447 2.25446 13.1122 2.10734C12.9343 1.90913 12.7485 1.71705 12.5567 1.53315C12.4144 1.39624 12.4163 1.24299 12.5567 1.10608C12.7485 0.922175 12.9264 0.723967 13.1162 0.533932C13.1695 0.480805 13.2368 0.44198 13.3139 0.384766V0.388852ZM13.6005 1.32268C13.5056 1.22051 13.4107 1.12243 13.3317 1.0366C13.2348 1.13673 13.1399 1.23481 13.047 1.33085C13.134 1.42076 13.2269 1.51884 13.3178 1.6108C13.4107 1.5168 13.5037 1.42076 13.6005 1.32063V1.32268Z" fill="#410EAD"/>
<path d="M2.5887 11.2531C2.53335 11.3348 2.49578 11.4084 2.44241 11.4656C2.26053 11.6618 2.06877 11.8457 1.89084 12.0439C1.75839 12.191 1.61407 12.189 1.47964 12.0418C1.30171 11.8436 1.11588 11.6536 0.92412 11.4677C0.783757 11.3328 0.783757 11.1755 0.92412 11.0406C1.11588 10.8567 1.30171 10.6646 1.47964 10.4664C1.61012 10.3234 1.76234 10.3234 1.89084 10.4684C2.06877 10.6667 2.26251 10.8506 2.44438 11.0447C2.49578 11.0998 2.53137 11.1693 2.58672 11.2511L2.5887 11.2531ZM1.68722 10.9813C1.5943 11.0692 1.49348 11.1632 1.40452 11.2449C1.50139 11.3512 1.5943 11.4513 1.67536 11.5412C1.7742 11.4431 1.8691 11.3471 1.96597 11.2531C1.87305 11.1611 1.7742 11.0672 1.68722 10.9813Z" fill="#410EAD"/>
<path d="M6.1118 8.11876C6.43207 8.16168 6.5151 8.2148 6.50719 8.37214C6.50126 8.52335 6.41625 8.5724 6.10983 8.59692C6.09006 8.76447 6.14146 8.99742 5.87259 9.00355C5.72828 9.00764 5.67688 8.90138 5.65513 8.59692C5.49104 8.57444 5.25579 8.62757 5.26963 8.34354C5.28149 8.09833 5.49104 8.14124 5.64722 8.12694C5.69862 7.79182 5.74805 7.70804 5.89236 7.71417C6.03668 7.7203 6.08413 7.80817 6.1118 8.11672V8.11876Z" fill="#410EAD"/>
<path d="M9.12286 7.71387C9.24147 7.71387 9.34625 7.8283 9.34032 7.9509C9.33439 8.07146 9.23752 8.16545 9.1189 8.16545C8.99436 8.16545 8.90144 8.06329 8.9054 7.93251C8.90935 7.81195 9.0082 7.71387 9.12286 7.71591V7.71387Z" fill="#410EAD"/>
<path d="M8.71514 8.13281C8.83573 8.13281 8.93853 8.24111 8.93458 8.36576C8.93062 8.48632 8.83178 8.5844 8.71514 8.5844C8.59257 8.5844 8.49372 8.47814 8.49767 8.35145C8.50163 8.23089 8.5985 8.13281 8.71514 8.13281Z" fill="#410EAD"/>
<path d="M9.74154 8.35974C9.74154 8.48643 9.63874 8.5886 9.51815 8.58452C9.40151 8.58043 9.30859 8.4803 9.30859 8.35974C9.30859 8.23305 9.41139 8.12884 9.53199 8.13293C9.64863 8.13702 9.74154 8.23918 9.74154 8.35974Z" fill="#410EAD"/>
<path d="M7.09237 8.40243C7.21692 8.40039 7.31774 8.50052 7.31774 8.62721C7.31774 8.74368 7.21692 8.84993 7.10423 8.85198C6.98364 8.85606 6.88281 8.74981 6.88281 8.62312C6.88281 8.49847 6.97375 8.40448 7.09237 8.40039V8.40243Z" fill="#410EAD"/>
<path d="M8.12197 8.62943C8.12197 8.74999 8.0251 8.85012 7.91043 8.85216C7.79182 8.8542 7.68506 8.74386 7.68704 8.62126C7.68902 8.49457 7.79379 8.39649 7.91636 8.40262C8.03498 8.40875 8.12394 8.50683 8.12197 8.62943Z" fill="#410EAD"/>
<path d="M9.12253 8.55374C9.23917 8.55374 9.33604 8.65387 9.33802 8.77239C9.33999 8.89499 9.23522 9.00533 9.11462 9.00329C8.99403 9.00329 8.89716 8.89295 8.90309 8.76626C8.90704 8.64365 9.00194 8.5517 9.12253 8.55374Z" fill="#410EAD"/>
<path d="M5.4829 1.67578C5.99888 1.67578 6.51683 1.67578 7.03281 1.67578C7.21667 1.67578 7.31947 1.75956 7.31749 1.90055C7.31749 2.04155 7.21074 2.12737 7.02886 2.12941C5.99492 2.12941 4.96296 2.12941 3.92902 2.12941C3.71749 2.12941 3.59887 1.99251 3.66016 1.82495C3.70563 1.7003 3.8025 1.67578 3.91914 1.67578C4.44105 1.67782 4.96296 1.67578 5.4829 1.67578Z" fill="#410EAD"/>
</svg>
