<svg width="15" height="16" viewBox="0 0 15 16" fill="none" xmlns="http://www.w3.org/2000/svg">
<path d="M13.0531 14.8598H12.8041C9.49652 14.8598 6.18891 14.8598 2.88415 14.8598C2.03436 14.8598 1.40202 14.3759 1.2704 13.6331C1.25609 13.552 1.25323 13.4683 1.25323 13.3846C1.25323 12.3854 1.25323 11.3862 1.25323 10.387C1.25323 10.3451 1.25037 10.3033 1.25609 10.2614C1.28757 10.1071 1.39343 10.0155 1.56511 10.0129C1.73679 10.0129 1.84551 10.1045 1.87126 10.2588C1.88843 10.3582 1.87699 10.4602 1.87699 10.5622C1.87699 11.496 1.87699 12.4298 1.87699 13.3637C1.87699 13.9313 2.26612 14.287 2.88987 14.287C4.46643 14.287 6.04012 14.287 7.61668 14.287H7.80266V5.47468C7.74257 5.51391 7.69393 5.5453 7.64815 5.57931C7.37919 5.77549 7.11023 5.97428 6.84127 6.17046C6.5809 6.35879 6.40636 6.3274 6.24613 6.0606C5.5909 4.95154 4.93567 3.84248 4.28903 2.7308C4.22322 2.61571 4.15169 2.56863 4.00576 2.57386C3.62236 2.58432 3.23895 2.57386 2.85268 2.57909C2.28043 2.5817 1.88271 2.94529 1.87985 3.46843C1.87985 5.3125 1.87985 7.15658 1.87985 9.00065C1.87985 9.06081 1.88557 9.12098 1.87413 9.17852C1.84265 9.33285 1.73679 9.4244 1.56511 9.4244C1.39343 9.4244 1.28757 9.33023 1.25895 9.17591C1.24751 9.11836 1.25323 9.0582 1.25323 8.99804C1.25323 7.33183 1.25323 5.66563 1.25323 3.99942V3.80324C0.932771 3.86079 0.666673 4.16682 0.632338 4.50425C0.626616 4.57487 0.626616 4.64811 0.626616 4.71874C0.626616 7.96222 0.626616 11.2031 0.626616 14.4466C0.626616 15.1005 0.989996 15.4301 1.71103 15.4301C4.22322 15.4301 6.73541 15.4301 9.25046 15.4301C9.30768 15.4301 9.36777 15.4274 9.42499 15.4301C9.61097 15.4431 9.73115 15.5609 9.72829 15.7178C9.72829 15.8669 9.60811 15.9794 9.43358 15.9977C9.38207 16.0029 9.33057 15.9977 9.27621 15.9977C6.74399 15.9977 4.21178 15.9977 1.67956 15.9977C0.652367 15.9977 0 15.3987 0 14.457C0 11.1978 0 7.93606 0 4.67689C0 3.92356 0.389132 3.43181 1.17026 3.19116C1.22462 3.17547 1.28184 3.11792 1.30187 3.06823C1.55653 2.36983 2.10303 2.00625 2.9099 2.00363C3.28759 2.00363 3.66528 2.00102 4.04296 2.00363C4.15455 2.00363 4.2175 1.97224 4.27186 1.88331C4.60949 1.33401 4.95856 0.789944 5.29333 0.240645C5.39634 0.0706242 5.53368 0 5.74827 0C7.33627 0.00523142 8.92427 0.00523142 10.5123 0C10.7183 0 10.8499 0.065393 10.9529 0.230183C11.2877 0.779481 11.6367 1.32355 11.9744 1.87285C12.0316 1.96701 12.0974 2.00625 12.2176 2.00363C12.6153 1.99579 13.013 1.9984 13.4079 2.00363C14.3206 2.00886 14.9987 2.62617 14.9987 3.4632C15.0016 6.7773 14.9987 10.0914 14.9987 13.4055C14.9987 14.0751 14.5638 14.593 13.8599 14.8023C13.7913 14.8232 13.714 14.8938 13.6911 14.9566C13.4651 15.5975 12.8928 15.9924 12.1604 15.9951C11.6911 15.9951 11.2219 15.9951 10.7555 15.9951C10.5094 15.9951 10.3635 15.8904 10.3578 15.7152C10.352 15.5347 10.5037 15.4248 10.7612 15.4248C11.2362 15.4248 11.7111 15.4275 12.1861 15.4248C12.5838 15.4222 12.9043 15.2156 13.0531 14.8546V14.8598ZM8.44644 14.287C10.1403 14.287 11.8141 14.2922 13.4851 14.2844C13.9916 14.2818 14.3721 13.892 14.3721 13.4134C14.3721 10.094 14.3721 6.77469 14.3721 3.45535C14.3721 2.94529 13.9658 2.58432 13.405 2.57909C13.0216 2.57647 12.6382 2.58432 12.2519 2.57647C12.1089 2.57386 12.0345 2.61309 11.9658 2.72818C11.342 3.79801 10.7097 4.8626 10.0831 5.92981C9.81699 6.38233 9.7197 6.39802 9.27907 6.07368C9.00725 5.87488 8.73543 5.6787 8.44358 5.46422V14.287H8.44644ZM5.60807 0.899804C5.33339 1.33663 5.07874 1.74991 4.8155 2.15796C4.75255 2.25736 4.74969 2.3306 4.80978 2.43261C5.27903 3.21994 5.74255 4.00988 6.20894 4.79721C6.35772 5.04832 6.50365 5.29681 6.66388 5.56623C7.03012 5.29943 7.38205 5.04047 7.73685 4.78413C7.02726 3.48936 6.32911 2.21027 5.61093 0.899804H5.60807ZM8.51797 4.78413C8.87563 5.0457 9.2247 5.29943 9.58808 5.56623C9.631 5.4956 9.66534 5.44067 9.69967 5.38313C10.2204 4.50164 10.7183 3.60706 11.2705 2.74126C11.4822 2.40907 11.4937 2.16058 11.2505 1.85192C11.0244 1.56158 10.8528 1.23461 10.6439 0.899804C9.92858 2.20504 9.23043 3.48412 8.51797 4.78413ZM10.1146 0.588534H6.14027C6.38061 1.02797 6.61523 1.4491 6.83841 1.87546C6.88992 1.97486 6.95286 2.01148 7.0759 2.00886C7.70538 2.00363 8.33771 1.99055 8.96719 2.0141C9.25618 2.02456 9.40496 1.94609 9.51655 1.70021C9.68823 1.32616 9.90855 0.967812 10.1146 0.588534ZM7.22754 2.5817C7.52798 3.13362 7.81696 3.65938 8.12598 4.22437C8.435 3.65938 8.72398 3.12839 9.02155 2.5817H7.22468H7.22754Z" fill="#410EAD"/>
<path d="M11.4134 7.71875C11.8569 7.71875 12.2975 7.71875 12.741 7.71875C12.9728 7.71875 13.1158 7.82599 13.1187 7.99601C13.1244 8.17127 12.9756 8.28897 12.7353 8.28897C11.8512 8.28897 10.967 8.28897 10.08 8.28897C9.83684 8.28897 9.69092 8.1765 9.69092 8.00125C9.69092 7.82599 9.8397 7.71875 10.0829 7.71875C10.5264 7.71875 10.967 7.71875 11.4105 7.71875H11.4134Z" fill="#410EAD"/>
</svg>
