<svg width="15" height="15" viewBox="0 0 15 15" fill="none" xmlns="http://www.w3.org/2000/svg">
<path d="M9.69874 15H1.28893C1.2581 14.9904 1.22727 14.9769 1.19645 14.9692C0.639646 14.8343 0.263951 14.4991 0.0732126 13.9577C0.0443129 13.8768 0.0250464 13.7939 0 13.7111C0 9.57071 0 5.43035 0 1.28998C0.00963323 1.25916 0.0231197 1.22833 0.0308263 1.19558C0.181105 0.501985 0.776438 0.00298334 1.48544 0.00298334C4.16156 -0.000869949 6.83767 -0.00279665 9.51378 0.00876323C9.7392 0.00876323 9.98388 0.0742694 10.1843 0.176382C10.7449 0.461525 11.0012 0.94704 10.9992 1.5732C10.9992 2.83323 10.9992 4.09325 10.9992 5.35135C10.9992 5.40723 10.9992 5.46503 10.9992 5.5209C11.0204 5.53631 11.0416 5.5498 11.0628 5.56521C11.0879 5.51897 11.1052 5.46117 11.1399 5.42649C11.845 4.71749 12.5521 4.00848 13.263 3.30333C13.5559 3.01241 13.9104 2.92571 14.3015 3.05286C14.6868 3.1781 14.918 3.45746 14.9855 3.85628C15.0452 4.21463 14.92 4.51712 14.6656 4.77143C13.5251 5.91008 12.3903 7.05258 11.242 8.18352C11.0647 8.35885 10.9896 8.52839 10.9915 8.77886C11.0031 10.3028 10.9973 11.8249 10.9973 13.3489C10.9973 13.4317 10.9954 13.5146 10.9896 13.5974C10.953 14.2178 10.5233 14.7592 9.93186 14.9345C9.85287 14.9576 9.77388 14.9769 9.69489 14.9981L9.69874 15ZM7.77209 7.5092C7.69888 7.75388 7.65264 7.99086 7.55823 8.20664C7.46383 8.42243 7.32126 8.61509 7.20181 8.81546C7.37906 8.87326 7.56787 8.93684 7.76439 9.00042C7.78173 8.97345 7.79907 8.94455 7.82026 8.9195C7.99173 8.69023 8.14779 8.44555 8.34045 8.23747C8.68147 7.86948 9.05139 7.52461 9.40011 7.16433C9.45405 7.10846 9.49644 7.01598 9.49644 6.93891C9.50222 5.17603 9.50029 3.41507 9.50029 1.65219C9.50029 1.60595 9.49451 1.55779 9.49259 1.51347H1.51049V13.4953H9.48873V9.94255C9.36543 10.0177 9.25754 10.0909 9.14386 10.1545C8.90881 10.2855 8.90881 10.2836 8.95891 10.5552C8.96276 10.5745 8.96661 10.5938 8.96661 10.613C8.97817 11.0716 8.99359 11.5301 8.99551 11.9887C8.99551 12.4376 8.67762 12.7497 8.22678 12.7497C6.40995 12.7516 4.59505 12.7497 2.77822 12.7497C2.32161 12.7497 2.00371 12.4356 1.99793 11.979C1.99408 11.6284 1.98445 11.2758 1.99793 10.9251C2.02876 10.1545 2.364 9.54374 3.01906 9.13529C3.25796 8.98501 3.53732 8.90024 3.80127 8.78271C3.4853 8.43591 3.3042 7.99857 3.25218 7.51305C2.6607 7.47066 2.31776 7.21442 2.2561 6.77322C2.2272 6.57092 2.2561 6.3744 2.36014 6.1933C2.52583 5.91008 2.78786 5.781 3.09034 5.74632C3.02098 5.48815 2.93814 5.24731 2.8919 5.0007C2.75896 4.30326 2.93043 3.72334 3.57008 3.33801C3.60668 3.31682 3.63558 3.28021 3.66063 3.24553C4.50643 2.12229 5.76453 2.03945 6.91473 2.57891C7.12281 2.67717 7.16327 2.94112 7.01107 3.11452C6.98795 3.14149 6.94363 3.14727 6.89354 3.17039C8.2788 4.00077 8.48302 4.49785 7.99173 5.75595C8.51578 5.91586 8.79129 6.26266 8.74505 6.70386C8.6911 7.20093 8.38284 7.45525 7.77209 7.51305V7.5092ZM4.51799 14.002H4.36771C3.45062 14.002 2.53161 14.002 1.61453 14.002C1.18296 14.002 0.99993 13.819 0.99993 13.3893C0.99993 9.46474 0.99993 5.54017 0.99993 1.61366C0.99993 1.18209 1.18296 0.99906 1.61453 0.99906C4.20202 0.99906 6.7895 0.99906 9.37892 0.99906C9.8259 0.99906 10.0012 1.17246 10.0012 1.61751C10.0012 3.19929 10.0012 4.78107 10.0012 6.36284C10.0012 6.41679 10.0012 6.47266 10.0012 6.52661C10.0166 6.53239 10.032 6.53817 10.0475 6.54395C10.1708 6.41294 10.2999 6.2877 10.4155 6.15091C10.4598 6.09697 10.4983 6.01797 10.4983 5.94861C10.5021 4.48822 10.5041 3.02975 10.5022 1.56935C10.5022 0.914287 10.086 0.500058 9.42901 0.500058C6.81262 0.500058 4.19431 0.500058 1.57792 0.500058C0.92479 0.500058 0.502855 0.918141 0.502855 1.56935C0.502855 5.52283 0.502855 9.47823 0.502855 13.4317C0.502855 14.081 0.92479 14.4991 1.57792 14.501C2.5162 14.501 3.45255 14.501 4.39083 14.501C4.43899 14.501 4.48716 14.501 4.52184 14.501V14.002H4.51799ZM7.53511 9.43777C7.30584 9.37997 7.10547 9.32795 6.90317 9.28171C6.73363 9.24125 6.57564 9.26437 6.40803 9.33373C5.83967 9.56493 5.24819 9.58034 4.67982 9.36263C4.41009 9.25859 4.16348 9.25281 3.89953 9.31832C3.19823 9.49364 2.66648 9.87512 2.54895 10.6265C2.47767 11.0851 2.50849 11.559 2.50849 12.0272C2.50849 12.1717 2.62217 12.2487 2.784 12.2487C4.59505 12.2487 6.4061 12.2487 8.21715 12.2487C8.40596 12.2487 8.50036 12.1582 8.50036 11.9732C8.50229 11.613 8.50422 11.2507 8.49651 10.8905C8.49458 10.7768 8.46761 10.6631 8.44835 10.5302C8.1921 10.667 7.9609 10.7922 7.72971 10.9155C7.50043 11.0388 7.29043 11.0195 7.1363 10.8673C6.97831 10.7113 6.96097 10.5109 7.08621 10.2759C7.22878 10.01 7.37135 9.74411 7.53511 9.43777ZM3.75118 6.54395C3.75118 6.82139 3.74733 7.10075 3.75118 7.37819C3.75889 7.7192 3.861 8.03132 4.0633 8.3049C4.45441 8.83473 4.99194 9.02547 5.63544 8.9985C6.49473 8.96382 7.2018 8.2972 7.23841 7.43984C7.2596 6.92928 7.24804 6.41486 7.24804 5.9043C7.24804 5.7521 7.2018 5.71549 7.05153 5.73283C6.41188 5.8099 5.79921 5.73861 5.22314 5.42457C4.98038 5.29355 4.71643 5.19722 4.45826 5.09704C4.30798 5.03731 4.14807 5.0296 4.01706 5.14713C3.84944 5.30126 3.7454 5.48815 3.74733 5.72512C3.74925 5.99871 3.74733 6.27229 3.74733 6.54395H3.75118ZM6.42344 2.91993C5.60269 2.59818 4.7145 2.72533 4.15 3.43241C4.02284 3.5904 3.89183 3.72526 3.72421 3.84086C3.36585 4.09133 3.23099 4.71363 3.44292 5.05272C3.82825 4.54216 4.1577 4.4439 4.7646 4.67317C5.00543 4.76565 5.24626 4.86199 5.4736 4.98336C5.94948 5.24153 6.45234 5.30704 6.97639 5.22998C7.21336 5.1953 7.42337 5.20108 7.57557 5.41686C7.83952 5.0797 7.80484 4.55372 7.49851 4.19151C7.2519 3.89866 6.92822 3.72334 6.57757 3.59233C6.25967 3.47287 6.19032 3.24938 6.38876 2.9758C6.40225 2.95653 6.41381 2.93727 6.42729 2.91607L6.42344 2.91993ZM12.7197 4.56528C12.7005 4.5807 12.685 4.59226 12.6716 4.60574C11.2998 5.97559 9.92801 7.34543 8.56202 8.71913C8.44642 8.83473 8.36357 8.97923 8.27687 9.09483C8.49651 9.31447 8.69496 9.51291 8.91459 9.73255C9.04946 9.62466 9.20937 9.52062 9.34231 9.38768C10.6852 8.05251 12.0242 6.71157 13.3632 5.37255C13.3921 5.34365 13.4191 5.31089 13.4384 5.28777C13.1956 5.04502 12.9625 4.80997 12.7197 4.56721V4.56528ZM10.5022 8.98501C10.4887 8.9773 10.4771 8.97152 10.4636 8.96382C10.3422 9.08905 10.2247 9.21813 10.0995 9.33759C10.0263 9.40695 9.9993 9.48016 9.9993 9.58034C10.0031 10.8596 10.0012 12.1389 9.9993 13.4163C9.9993 13.8113 9.81048 14.0001 9.41745 14.0001C8.49073 14.0001 7.56209 14.0001 6.63537 14.0001C6.58335 14.0001 6.53133 14.0001 6.48895 14.0001V14.4952C6.50051 14.4952 6.51977 14.4991 6.53904 14.4991C7.52933 14.4991 8.52156 14.4991 9.51185 14.4971C9.60819 14.4971 9.70645 14.4779 9.79892 14.4509C10.2401 14.316 10.5002 13.9423 10.5002 13.4356C10.5002 11.9906 10.5002 10.5456 10.5002 9.10061C10.5002 9.06208 10.5002 9.02354 10.5002 8.98501H10.5022ZM13.8198 4.91401C14.0067 4.72712 14.1975 4.54794 14.3766 4.35528C14.5539 4.16454 14.5597 3.88132 14.4017 3.68673C14.2398 3.48829 13.947 3.41315 13.7485 3.56728C13.5096 3.75224 13.3035 3.97765 13.0877 4.18188C13.342 4.4362 13.5752 4.66932 13.8218 4.91401H13.8198ZM5.50443 14.0039C5.42544 14.0039 5.34837 14.0039 5.26938 14.0039C5.25974 14.0039 5.25011 14.0039 5.24048 14.0039C5.10369 14.0174 5.01313 14.108 5.00735 14.239C5.00157 14.37 5.08442 14.4856 5.21736 14.4952C5.40617 14.5068 5.59883 14.5068 5.78765 14.4952C5.91673 14.4875 6.00921 14.3642 6.00343 14.2409C5.99765 14.1157 5.89939 14.0136 5.76838 14.0058C5.68168 14.0001 5.59305 14.0058 5.50443 14.0058V14.0039ZM3.2464 6.25495C3.05181 6.23761 2.89768 6.27807 2.80327 6.44376C2.73006 6.57285 2.73391 6.70771 2.81676 6.83102C2.91694 6.9813 3.06722 7.0179 3.24447 6.99286V6.25302L3.2464 6.25495ZM7.76439 6.99478C7.95898 7.0179 8.10926 6.96974 8.20366 6.8079C8.2788 6.67496 8.27302 6.53624 8.18247 6.41101C8.08228 6.26844 7.93778 6.23761 7.76439 6.25688V6.99478ZM7.59869 10.3799C7.59869 10.3799 7.61218 10.3972 7.61796 10.4069C7.82411 10.2951 8.03026 10.1853 8.25761 10.0639C8.15357 9.94641 8.06109 9.84044 7.95512 9.72099C7.82797 9.95604 7.71237 10.168 7.59869 10.3818V10.3799Z" fill="#410EAD"/>
</svg>
