<svg width="15" height="15" viewBox="0 0 15 15" fill="none" xmlns="http://www.w3.org/2000/svg">
<path d="M11.9641 0.0022769C12.0455 0.0273223 12.1293 0.0500908 12.2107 0.0796899C12.6728 0.248177 12.9697 0.660287 12.9769 1.14981C12.9816 1.49134 12.9769 1.83287 12.9769 2.17439C12.9769 2.22676 12.9769 2.27913 12.9769 2.34971C13.3001 2.34971 13.6113 2.34971 13.925 2.34971C14.0734 2.34971 14.2243 2.34743 14.3703 2.3702C14.7103 2.42712 14.9545 2.68669 14.9904 3.01227C14.9976 3.08058 15 3.14889 15 3.21719C15 6.42528 15 9.63336 15 12.8392C15 13.1056 14.9425 13.3424 14.7199 13.5222C14.5595 13.652 14.3703 13.7021 14.1644 13.7021C13.7071 13.7021 13.2498 13.7044 12.7949 13.7021C12.6943 13.7021 12.6512 13.7317 12.6225 13.8228C12.5435 14.0755 12.4549 14.3237 12.3663 14.5741C12.2682 14.8519 12.0527 15.0045 11.7749 14.9999C11.5044 14.9976 11.2937 14.8451 11.1979 14.5741C11.1117 14.3305 11.0231 14.0846 10.9465 13.8364C10.9154 13.734 10.8651 13.7021 10.7526 13.7021C9.7518 13.7066 8.751 13.7044 7.7502 13.7044C5.63607 13.7044 3.51955 13.7044 1.40543 13.7044C0.711094 13.7044 0.177175 13.3173 0.0335194 12.7048C0.00478836 12.5864 0 12.4635 0 12.3405C0 9.11424 0 5.88566 0 2.65936C0 1.82831 0.56265 1.29781 1.43895 1.29781C1.68555 1.29781 1.93216 1.29781 2.17877 1.29781C2.57861 1.30236 2.83001 1.53915 2.83959 1.91939C2.84198 2.056 2.83959 2.19033 2.83959 2.33605H10.585C10.585 2.06283 10.585 1.79644 10.585 1.53004C10.585 1.35928 10.5778 1.18624 10.597 1.01775C10.6568 0.512291 11.004 0.147996 11.5235 0.0273224C11.5475 0.0227687 11.569 0.00910741 11.593 0C11.7151 0 11.8396 0 11.9617 0L11.9641 0.0022769ZM2.8348 2.79597C2.8348 2.87111 2.8348 2.93714 2.8348 3.00544C2.8348 5.64204 2.8348 8.27636 2.8348 10.913C2.8348 11.3774 2.59537 11.6006 2.10455 11.6028C1.8316 11.6028 1.56105 11.5983 1.28811 11.6028C0.871508 11.6119 0.514765 11.9307 0.46688 12.3223C0.402235 12.8528 0.804469 13.2627 1.40064 13.2627C4.46049 13.2627 7.51796 13.2627 10.5778 13.2627C10.6257 13.2627 10.676 13.2581 10.7454 13.2536C10.5084 12.7344 10.5874 12.2016 10.585 11.678C10.5802 8.77954 10.5826 5.87883 10.5826 2.9804V2.7937H2.8348V2.79597ZM12.8093 13.2627C13.3001 13.2627 13.755 13.2718 14.2123 13.2558C14.3105 13.2513 14.4278 13.167 14.4924 13.0873C14.5427 13.0236 14.5355 12.912 14.5355 12.821C14.5355 10.0295 14.5355 7.23811 14.5355 4.44669C14.5355 4.01637 14.5355 3.58832 14.5355 3.15799C14.5355 2.90299 14.4158 2.79142 14.15 2.78914C13.913 2.78914 13.6784 2.78914 13.4413 2.78914C13.2905 2.78914 13.1373 2.78914 12.9769 2.78914C12.9769 3.25362 12.9769 3.69761 12.9769 4.14159C12.9769 4.3283 12.8955 4.4262 12.747 4.42848C12.5962 4.42848 12.5172 4.33285 12.5148 4.14615C12.5148 3.86837 12.5148 3.59287 12.5148 3.30599H12.0263V12.3223H12.5148V12.1379C12.5148 9.88381 12.5148 7.62745 12.5148 5.37337C12.5148 5.31873 12.5124 5.26636 12.5172 5.21171C12.5315 5.10015 12.6057 5.03412 12.7183 5.02046C12.8332 5.0068 12.9218 5.05917 12.9553 5.16618C12.9745 5.22538 12.9745 5.2914 12.9745 5.35288C12.9745 7.53866 12.9745 9.72671 12.9745 11.9125C12.9745 12.3588 13.0223 12.8118 12.8069 13.2627H12.8093ZM0.464485 11.407C0.694334 11.3251 0.907422 11.2112 1.13248 11.1816C1.44613 11.1406 1.76696 11.1634 2.08539 11.1611C2.34637 11.1611 2.37271 11.1338 2.37271 10.8811C2.37271 9.32371 2.37271 7.76634 2.37271 6.21125C2.37271 4.7996 2.37271 3.39023 2.37271 1.97858C2.37271 1.77594 2.332 1.73724 2.1237 1.73724C1.87231 1.73724 1.62091 1.73724 1.36951 1.73724C1.15882 1.73724 0.96249 1.78961 0.794892 1.91711C0.541101 2.10836 0.457302 2.36565 0.457302 2.66619C0.459697 5.54186 0.457302 8.41525 0.457302 11.2909C0.457302 11.3387 0.462091 11.3865 0.462091 11.4093L0.464485 11.407ZM11.5379 12.3269V3.30827H11.0567V12.3269H11.5379ZM12.5148 1.83742C12.5148 1.62112 12.5148 1.41165 12.5148 1.20445C12.5148 1.15209 12.5148 1.09744 12.5052 1.04508C12.4453 0.687609 12.1413 0.439433 11.7725 0.441709C11.411 0.443986 11.0998 0.69444 11.0615 1.04735C11.0351 1.30691 11.0567 1.56875 11.0567 1.8397H12.5148V1.83742ZM11.0878 12.7777C11.0878 12.7982 11.0878 12.8141 11.0926 12.8255C11.2745 13.3628 11.4517 13.9025 11.6409 14.4398C11.6576 14.4876 11.7342 14.5536 11.7773 14.5491C11.8324 14.5445 11.9066 14.4853 11.9258 14.4352C12.0311 14.1552 12.1245 13.8729 12.2203 13.5883C12.3113 13.3219 12.3998 13.0532 12.4932 12.7777H11.0902H11.0878ZM11.0567 2.84606H12.5028V2.29279H11.0567V2.84606Z" fill="#410EAD"/>
<path d="M6.60824 10.0343C6.60824 9.66777 6.60824 9.31258 6.60824 8.95739C6.60824 8.55211 6.61064 8.14684 6.60585 7.74156C6.60585 7.68919 6.57472 7.61177 6.53163 7.58901C5.84208 7.20422 5.14775 6.82626 4.45581 6.44603C4.44863 6.44147 4.43665 6.44147 4.40074 6.43464C4.40074 6.61224 4.40074 6.78528 4.40074 6.95832C4.40074 7.01979 4.40792 7.10404 4.37201 7.14047C4.31694 7.19739 4.21638 7.26569 4.14934 7.25431C4.07512 7.24292 3.9602 7.14957 3.9578 7.0881C3.94344 6.75795 3.94344 6.42553 3.96978 6.09539C3.98175 5.93601 4.11104 5.81762 4.25948 5.73565C5.01367 5.32126 5.76786 4.9046 6.52444 4.49249C6.73753 4.37637 6.9578 4.37865 7.1685 4.49249C7.92029 4.90232 8.66969 5.31443 9.4191 5.72882C9.64176 5.85177 9.7495 6.04075 9.74711 6.28665C9.74711 7.09721 9.74711 7.90777 9.74711 8.71832C9.74711 8.97106 9.63458 9.16003 9.40712 9.28526C8.66491 9.69282 7.92508 10.1004 7.18286 10.5057C6.95302 10.6309 6.72556 10.6286 6.49811 10.5011C5.76068 10.0958 5.02325 9.69054 4.28582 9.28754C4.06315 9.16459 3.94344 8.98244 3.93865 8.73882C3.93386 8.52935 3.93386 8.31988 3.93865 8.10813C3.94104 7.94875 4.03442 7.85312 4.17329 7.8554C4.30976 7.8554 4.39595 7.9533 4.39835 8.11496C4.40074 8.31077 4.38877 8.50658 4.40553 8.70011C4.41032 8.77069 4.4582 8.86632 4.52045 8.90047C5.19563 9.28071 5.878 9.64956 6.55796 10.023C6.56515 10.0275 6.57712 10.0275 6.61303 10.0343H6.60824ZM7.07033 10.0435C7.11104 10.0275 7.13498 10.023 7.15653 10.0116C7.82213 9.645 8.48773 9.27843 9.15573 8.91413C9.26108 8.85721 9.28741 8.7798 9.28741 8.67279C9.28502 7.96469 9.28741 7.25659 9.28741 6.54848C9.28741 6.51206 9.28262 6.47563 9.28023 6.42553C9.22037 6.45513 9.17488 6.4779 9.13179 6.50067C8.49252 6.85131 7.85325 7.20422 7.21159 7.5503C7.11104 7.60494 7.06794 7.65959 7.07033 7.77571C7.07752 8.47926 7.07273 9.18053 7.07273 9.88407C7.07273 9.93189 7.07273 9.97742 7.07273 10.0412L7.07033 10.0435ZM4.64256 6.02709C4.67847 6.05213 4.69284 6.06579 4.7096 6.0749C5.39196 6.45058 6.07432 6.82854 6.75908 7.19739C6.80457 7.22243 6.89795 7.21105 6.94823 7.18373C7.60665 6.82854 8.26267 6.46652 8.9187 6.1045C8.95701 6.08401 8.99292 6.05896 9.0432 6.02709C8.32971 5.63547 7.63538 5.25296 6.93865 4.875C6.88837 4.84768 6.7926 4.85223 6.73993 4.87955C6.04559 5.25296 5.35365 5.63547 4.64256 6.02481V6.02709Z" fill="#410EAD"/>
</svg>
