<svg width="15" height="15" viewBox="0 0 15 15" fill="none" xmlns="http://www.w3.org/2000/svg">
<path d="M12.9963 7.48408C12.9987 10.5221 10.5415 12.9902 7.50718 12.9949C4.4752 12.9996 2.00391 10.5315 2.00391 7.49821C2.00391 4.46257 4.47284 1.9992 7.50954 2.00391C10.5297 2.00862 12.994 4.46964 12.9963 7.48408ZM12.4286 8.27066C12.3108 8.36486 12.2095 8.45436 12.0987 8.52972C11.6511 8.82645 11.1988 8.78406 10.8313 8.39077C10.5321 8.07048 10.3554 7.68897 10.3719 7.23445C10.3719 7.17086 10.3719 7.10492 10.3719 7.04604C10.28 7.04604 10.207 7.05075 10.134 7.04604C10.0609 7.03898 9.98789 7.02956 9.91957 7.00836C9.70048 6.94007 9.62745 6.78699 9.7099 6.57268C9.73817 6.49968 9.78058 6.43374 9.81356 6.36308C10.002 5.95331 10.0044 5.66599 9.71697 5.34335C9.54028 5.14553 9.39186 4.90767 9.28585 4.6651C9.05733 4.13051 9.1657 3.63831 9.55677 3.20969C9.6086 3.15317 9.67221 3.11078 9.75231 3.04013C8.68511 2.52202 7.60848 2.37836 6.4871 2.6068C5.4835 2.81169 4.62833 3.28976 3.90037 4.03631C4.11711 4.1046 4.31029 4.15642 4.49875 4.22471C4.85684 4.35659 5.20316 4.50967 5.46937 4.79934C5.75207 5.10549 5.8039 5.4823 5.61072 5.85204C5.55182 5.96273 5.46937 6.05693 5.41283 6.16762C5.32566 6.33718 5.23849 6.5091 5.18195 6.69043C5.15839 6.76344 5.19373 6.87884 5.2432 6.94478C5.26676 6.97539 5.38456 6.94713 5.45523 6.933C5.74736 6.87177 6.03948 6.77286 6.33396 6.75402C6.68499 6.73047 6.87817 6.97304 6.8499 7.32394C6.82398 7.63009 6.68734 7.89621 6.5083 8.13172C6.27507 8.44258 6.01357 8.73461 5.7662 9.0337C5.65783 9.16558 5.5424 9.2951 5.45052 9.43876C5.33508 9.61303 5.35864 9.70724 5.48115 9.8768C5.62014 10.0746 5.77327 10.2748 5.86515 10.4962C6.09838 11.0614 6.1667 11.6313 5.7662 12.1659C8.54376 13.2822 11.9315 11.4994 12.4333 8.26831L12.4286 8.27066ZM6.37401 7.24387C6.25622 7.25093 6.1667 7.24387 6.08424 7.26506C5.90755 7.30981 5.73558 7.36633 5.5636 7.42756C5.14661 7.57593 4.76968 7.36397 4.68016 6.92829C4.63539 6.70927 4.68016 6.49968 4.77203 6.30656C4.86627 6.1111 4.9817 5.92505 5.09714 5.74135C5.29503 5.43049 5.26912 5.24209 4.97228 5.02307C4.8592 4.94064 4.73905 4.86057 4.60948 4.81112C4.31264 4.70043 4.00874 4.61329 3.70954 4.51203C3.57055 4.46493 3.49281 4.50732 3.408 4.62742C1.71649 7.03662 2.46801 10.3831 5.03353 11.8456C5.20551 11.9445 5.32095 11.9257 5.42696 11.7585C5.48115 11.6737 5.51884 11.5701 5.53062 11.4712C5.5848 11.0096 5.4411 10.5998 5.13955 10.2607C4.77439 9.84854 4.80266 9.44583 5.11834 9.03605C5.2809 8.82645 5.47643 8.64511 5.63899 8.43552C5.86044 8.1482 6.0654 7.84911 6.268 7.54767C6.31983 7.46995 6.33396 7.36633 6.37401 7.24858V7.24387ZM10.3413 6.53265C10.3813 6.52558 10.4355 6.51381 10.4897 6.50439C10.7418 6.45493 10.8666 6.54678 10.8808 6.80583C10.8878 6.95655 10.8737 7.10728 10.8713 7.258C10.8666 7.57122 10.9891 7.83498 11.1988 8.05635C11.3778 8.24476 11.5663 8.26124 11.7901 8.13172C12.0139 8.00219 12.1671 7.80908 12.2707 7.57357C12.4427 7.1897 12.4686 6.79877 12.3697 6.38663C12.061 5.12669 11.3802 4.12345 10.3177 3.37925C10.2612 3.33922 10.2188 3.3086 10.141 3.35806C9.69341 3.64302 9.54499 4.12345 9.79236 4.58739C9.89601 4.78286 10.0421 4.95477 10.1787 5.1314C10.3248 5.3198 10.452 5.52234 10.4379 5.76726C10.4237 6.01925 10.3743 6.26653 10.3389 6.53265H10.3413Z" fill="#410EAD"/>
<path d="M0.842242 11.0498C0.641994 10.4964 0.401697 9.97122 0.262702 9.4225C-0.34982 7.00388 0.107216 4.78308 1.6503 2.82369C2.93895 1.18929 4.65637 0.277894 6.72481 0.0447452C7.90273 -0.0871368 9.05003 0.0753607 10.1573 0.494557C10.3505 0.567563 10.4235 0.699445 10.3575 0.850167C10.2986 0.984405 10.162 1.02915 9.98531 0.963209C9.45289 0.760676 8.90397 0.624084 8.33857 0.558143C6.7837 0.37445 5.32072 0.66412 3.97553 1.46248C2.05079 2.60702 0.917629 4.305 0.576031 6.51167C0.349869 7.9718 0.601945 9.36833 1.27336 10.6872C1.2875 10.7154 1.30634 10.739 1.32519 10.7696C1.49717 10.6707 1.65737 10.5623 1.8317 10.487C1.91416 10.4516 2.04608 10.4446 2.1144 10.4893C2.17801 10.5294 2.22513 10.6612 2.21099 10.7413C2.14032 11.177 2.05079 11.6103 1.95892 12.0413C1.92829 12.1897 1.79165 12.265 1.64559 12.2179C1.22153 12.079 0.797481 11.94 0.378139 11.7822C0.307463 11.7563 0.227364 11.6504 0.225008 11.5774C0.222652 11.4973 0.283905 11.3866 0.352224 11.3371C0.514778 11.2194 0.696179 11.1275 0.835174 11.0475L0.842242 11.0498ZM1.53251 11.6551C1.56313 11.4973 1.59376 11.3489 1.62674 11.1746C1.43356 11.2877 1.2663 11.3842 1.07076 11.4973C1.24509 11.5562 1.37938 11.6033 1.53015 11.6551H1.53251Z" fill="#410EAD"/>
<path d="M13.672 4.22512C13.5001 4.32404 13.3422 4.43001 13.1726 4.50537C13.0901 4.5407 12.97 4.54776 12.8852 4.51479C12.7698 4.4724 12.758 4.34759 12.7792 4.23219C12.8616 3.81299 12.9417 3.39615 13.0289 2.97931C13.0642 2.80504 13.1962 2.72732 13.3681 2.78384C13.7781 2.91808 14.188 3.05232 14.5908 3.20304C14.6686 3.2313 14.7604 3.33492 14.7652 3.41028C14.7699 3.49271 14.7063 3.6081 14.6356 3.66227C14.4777 3.78002 14.2987 3.86716 14.1267 3.96607C14.2587 4.27222 14.4071 4.56189 14.5131 4.8704C15.4696 7.65406 15.0219 10.1999 13.1208 12.4418C11.8627 13.9255 10.2137 14.738 8.28185 14.9547C7.09215 15.0889 5.93778 14.9241 4.81875 14.4978C4.60672 14.4177 4.55018 14.1869 4.70802 14.0598C4.80697 13.9797 4.90827 13.9985 5.01664 14.0409C5.54906 14.2434 6.09562 14.38 6.66338 14.446C8.36902 14.6438 9.94744 14.2788 11.3704 13.325C13.0972 12.1663 14.1102 10.5366 14.4212 8.48538C14.6427 7.0182 14.3906 5.61695 13.7121 4.29577C13.7027 4.27693 13.6909 4.26045 13.6697 4.23219L13.672 4.22512ZM13.3681 3.82241C13.5613 3.70937 13.7286 3.61281 13.9265 3.49977C13.7545 3.4409 13.6179 3.3938 13.4694 3.34199C13.4365 3.49742 13.4082 3.64343 13.3705 3.82241H13.3681Z" fill="#410EAD"/>
<path d="M8.71078 9.10469C8.60712 9.09056 8.50346 9.08114 8.40452 9.05759C8.08176 8.97988 7.86503 8.74673 7.82262 8.44057C7.78493 8.16739 7.95455 7.84475 8.20663 7.68932C8.3786 7.58334 8.54351 7.46559 8.71784 7.35961C9.02175 7.17357 9.56831 7.23244 9.82981 7.47501C10.0513 7.6799 10.056 8.01196 9.8463 8.26159C9.70966 8.42409 9.57773 8.58894 9.44816 8.7585C9.27618 8.98223 9.03353 9.09763 8.71078 9.10469ZM8.71078 8.59601C8.86862 8.60778 8.98641 8.5442 9.08065 8.41467C9.19608 8.25688 9.32094 8.10616 9.44816 7.95544C9.51412 7.87772 9.50941 7.82355 9.41282 7.79529C9.23613 7.73877 9.0618 7.7058 8.89453 7.83062C8.78381 7.9154 8.66837 7.99547 8.54822 8.06377C8.41394 8.13913 8.28908 8.23098 8.32913 8.39818C8.36918 8.5701 8.53409 8.58188 8.68015 8.59365C8.68957 8.59365 8.70135 8.59365 8.71313 8.59365L8.71078 8.59601Z" fill="#410EAD"/>
</svg>
