<svg width="16" height="15" viewBox="0 0 16 15" fill="none" xmlns="http://www.w3.org/2000/svg">
<path d="M5.33552 14.495H9.66788C9.61324 14.3056 9.56043 14.1272 9.51126 13.9469C9.46756 13.7812 9.5313 13.6482 9.6697 13.6045C9.81356 13.5608 9.94468 13.6428 9.99567 13.814C10.0722 14.0725 10.145 14.333 10.216 14.5934C10.2943 14.8738 10.1996 14.9995 9.91008 14.9995C8.47871 14.9995 7.04552 14.9995 5.61415 14.9995C5.42111 14.9995 5.22808 15.0013 5.03686 14.9995C4.80559 14.9958 4.70179 14.8629 4.7637 14.6407C4.89118 14.1745 5.01137 13.7065 5.15523 13.2458C5.36102 12.5884 5.81811 12.1932 6.48645 12.042C6.57932 12.0202 6.61939 11.9911 6.62485 11.8964C6.6376 11.7197 6.65945 11.5449 6.68312 11.3682C6.69587 11.2827 6.67402 11.2317 6.59389 11.1952C6.49919 11.1515 6.40996 11.0987 6.32073 11.0441C6.14226 10.933 6.01661 10.7673 6.01114 10.5633C6.00022 10.1008 5.97654 9.63275 6.03664 9.17748C6.12405 8.49639 6.7414 8.02291 7.42795 7.99924C8.30389 7.96828 8.81925 8.54556 8.94673 9.06822C8.97587 9.18841 8.99408 9.31406 8.9959 9.43789C9.00318 9.75476 8.99408 10.0735 8.99954 10.3903C9.005 10.7218 8.87024 10.9731 8.56976 11.1042C8.35123 11.1989 8.30389 11.3209 8.32938 11.5558C8.36216 11.8454 8.38948 12.0566 8.75369 12.1131C9.05781 12.1604 9.30184 12.3789 9.5058 12.6175C9.62235 12.7541 9.62235 12.9052 9.5058 13.0036C9.39289 13.0983 9.25267 13.0837 9.13612 12.9508C8.9358 12.7231 8.6936 12.5702 8.39494 12.5265C8.31845 12.5155 8.22012 12.5374 8.15456 12.5793C7.99248 12.6831 7.84133 12.8033 7.69018 12.9234C7.56088 13.0254 7.43887 13.0272 7.30775 12.9234C7.1475 12.7978 6.98542 12.6758 6.8197 12.5611C6.77418 12.5301 6.70498 12.5082 6.65034 12.5155C6.1022 12.5847 5.67971 13.0163 5.58319 13.5663C5.5413 13.8103 5.45753 14.0489 5.39198 14.2893C5.37376 14.353 5.35555 14.4186 5.3337 14.495H5.33552ZM8.50056 9.91138C8.50056 9.91138 8.4951 9.91138 8.49328 9.91138C8.49328 9.70924 8.51695 9.50345 8.48964 9.30496C8.40769 8.73131 7.85226 8.39077 7.24766 8.52553C6.82335 8.62023 6.51194 8.97716 6.50284 9.39419C6.49555 9.74202 6.49373 10.0917 6.50648 10.4395C6.5083 10.5123 6.56475 10.6107 6.62667 10.6507C6.78692 10.7545 6.96175 10.8365 7.13475 10.9221C7.36785 11.0368 7.60823 11.0368 7.84315 10.9275C8.02162 10.8438 8.20008 10.7564 8.36398 10.6489C8.42954 10.6052 8.48599 10.5069 8.4951 10.4267C8.51513 10.2574 8.50056 10.0844 8.50056 9.9132V9.91138ZM7.52446 12.4208C7.61916 12.3516 7.73935 12.266 7.8559 12.1732C7.87957 12.155 7.89778 12.1112 7.89414 12.0821C7.87593 11.8818 7.85044 11.6815 7.82494 11.4757C7.70839 11.4848 7.60095 11.4994 7.4935 11.4994C7.38788 11.4994 7.28226 11.4848 7.18392 11.4775C7.17299 11.4939 7.16753 11.4994 7.16753 11.503C7.16025 11.5649 7.16389 11.6287 7.14568 11.6869C7.04006 12.0366 7.13475 12.2879 7.52264 12.4172L7.52446 12.4208Z" fill="#410EAD"/>
<path d="M6.75049 2.0039C6.57566 2.0039 6.42269 2.02211 6.27518 1.99661C6.18595 1.98205 6.07122 1.92013 6.03298 1.84729C5.99838 1.78173 6.02387 1.64514 6.07487 1.58141C6.47186 1.08607 6.8816 0.601665 7.28953 0.115436C7.42064 -0.0411773 7.5809 -0.0375352 7.71384 0.120899C8.11812 0.603486 8.52058 1.08789 8.92304 1.57048C8.99406 1.65607 9.04141 1.76534 8.96674 1.85457C8.90847 1.92377 8.80649 1.98205 8.71543 1.99661C8.56975 2.02029 8.41678 2.00208 8.24742 2.00208V2.18054C8.24742 2.68498 8.24742 3.18942 8.24742 3.69386C8.24742 3.90875 8.15818 3.9998 7.94694 4.00163C7.64464 4.00345 7.34416 4.00345 7.04186 4.00163C6.83972 4.00163 6.75049 3.90693 6.74867 3.70115C6.74867 3.19671 6.74867 2.69227 6.74867 2.18783C6.74867 2.13137 6.74867 2.07492 6.74867 2.00208L6.75049 2.0039ZM7.75026 3.49719C7.75026 2.98182 7.75026 2.47738 7.75026 1.97476C7.75026 1.54681 7.75208 1.54499 8.17093 1.49946C8.17457 1.49946 8.17639 1.49217 8.18732 1.47214C7.96333 1.20444 7.73751 0.933102 7.50077 0.649013C7.26221 0.936744 7.03458 1.20809 6.79237 1.49946C6.85065 1.5031 6.87432 1.50492 6.89982 1.50674C7.18026 1.51221 7.24946 1.58323 7.24946 1.85821C7.24946 2.09677 7.24946 2.33716 7.24946 2.57572C7.24946 2.88166 7.24946 3.18578 7.24946 3.49901H7.75026V3.49719Z" fill="#410EAD"/>
<path d="M2.50737 6.25453V6.50402C2.735 6.50402 2.95718 6.50402 3.17935 6.50402C3.38513 6.50402 3.5035 6.60054 3.49986 6.7608C3.49622 6.91559 3.38149 7.003 3.18299 7.00482C2.89162 7.00482 2.60024 7.00482 2.30887 7.00482C2.09398 7.00482 2.00293 6.91559 2.00293 6.70252C2.00293 6.23997 2.00293 5.77559 2.00293 5.31304C2.00293 5.09633 2.09216 5.00709 2.30341 5.00527C2.60571 5.00345 2.90619 5.00345 3.20849 5.00527C3.39059 5.00527 3.5035 5.10543 3.50168 5.25658C3.49986 5.40773 3.38695 5.50243 3.20302 5.50243C2.97539 5.50243 2.74775 5.50243 2.51101 5.50243V5.75192C2.65488 5.75192 2.80421 5.75192 2.95171 5.75192C3.13564 5.75374 3.24855 5.84661 3.25037 5.99776C3.25219 6.14891 3.13929 6.24725 2.95718 6.25089C2.81149 6.25271 2.66762 6.25089 2.50737 6.25089V6.25453Z" fill="#410EAD"/>
<path d="M6.50997 5.75354C6.66294 5.75354 6.81227 5.75172 6.9616 5.75354C7.13642 5.75536 7.24387 5.85006 7.24933 5.99574C7.25479 6.14689 7.14006 6.25069 6.9616 6.25252C6.81591 6.25434 6.67022 6.25252 6.51361 6.25252V6.502C6.74671 6.502 6.98527 6.50018 7.22201 6.502C7.39319 6.50383 7.50064 6.60581 7.50064 6.75331C7.50064 6.88989 7.39866 6.99734 7.24933 6.99916C6.91607 7.00462 6.58281 7.00462 6.24955 6.99916C6.10205 6.99734 6.00371 6.899 6.00371 6.75149C6.00007 6.25252 6.00007 5.75172 6.00371 5.25274C6.00371 5.10341 6.10205 5.0069 6.25138 5.00507C6.58463 4.99961 6.91789 4.99961 7.25115 5.00507C7.40048 5.0069 7.50064 5.11434 7.50064 5.25092C7.50064 5.39296 7.39684 5.49859 7.2384 5.50041C6.99984 5.50587 6.76128 5.50041 6.51361 5.50041V5.7499L6.50997 5.75354Z" fill="#410EAD"/>
<path d="M11.9989 6.4963H12.4997C12.4997 6.17033 12.4997 5.84982 12.4997 5.52748C12.4997 5.45464 12.4997 5.3818 12.4997 5.30895C12.5015 5.11592 12.598 4.99937 12.7547 5.00301C12.9058 5.00665 12.9987 5.11774 12.9987 5.30349C12.9987 5.64585 12.9987 5.99004 12.9987 6.3324C12.9987 6.4617 13.0005 6.59282 12.9987 6.72211C12.995 6.89876 12.904 6.9971 12.731 6.99892C12.4087 7.00256 12.0863 7.00256 11.764 6.99892C11.5983 6.9971 11.5018 6.90058 11.5018 6.73486C11.4981 6.24681 11.4981 5.75694 11.5018 5.26889C11.5018 5.10864 11.6074 5.00483 11.7476 5.00301C11.8951 5.00301 11.9971 5.11046 11.9989 5.28164C12.0026 5.68228 11.9989 6.08109 11.9989 6.4963Z" fill="#410EAD"/>
<path d="M14 6.25408C14 6.42162 14.0018 6.57095 14 6.7221C13.9963 6.89328 13.898 7.00254 13.7523 7.00254C13.6066 7.00254 13.5028 6.8951 13.5028 6.72392C13.501 6.24497 13.501 5.76603 13.5028 5.28891C13.5028 5.10316 13.5975 5.00846 13.7796 5.00664C14.091 5.003 14.4043 5.003 14.7157 5.00664C14.9087 5.00664 14.9979 5.10133 15.0016 5.29801C15.0034 5.522 15.0052 5.746 15.0016 5.96817C14.9998 6.1612 14.9069 6.25226 14.7102 6.25408C14.4826 6.2559 14.2531 6.25408 14.0018 6.25408H14ZM14.4953 5.51654H14.0091V5.746H14.4953V5.51654Z" fill="#410EAD"/>
<path d="M4.74878 6.38164C4.92725 6.26509 5.03105 6.12305 5.00555 5.89359C4.9837 5.69327 4.99827 5.48749 5.00191 5.28535C5.00373 5.11417 5.10207 5.0049 5.24958 5.0049C5.39709 5.0049 5.49907 5.11235 5.50089 5.28353C5.50453 5.59494 5.50817 5.90816 5.49725 6.21957C5.49543 6.29605 5.46083 6.38529 5.40983 6.44174C5.26415 6.60382 5.10754 6.75679 4.9491 6.90794C4.81252 7.03723 4.68869 7.03723 4.55211 6.90612C4.39913 6.75861 4.24252 6.6111 4.1023 6.45267C4.04949 6.39257 4.00942 6.29787 4.0076 6.21775C3.99668 5.9118 4.00214 5.60404 4.00396 5.29628C4.00396 5.11417 4.10594 5.00308 4.25709 5.0049C4.40824 5.00673 4.50111 5.11963 4.50294 5.30356C4.50294 5.5057 4.52115 5.71148 4.49929 5.9118C4.47198 6.14126 4.59217 6.26692 4.75242 6.38164H4.74878Z" fill="#410EAD"/>
<path d="M2.76019 9.50296C3.17358 9.5066 3.50684 9.85261 3.49955 10.2696C3.49409 10.6757 3.14808 11.0072 2.74198 11.0017C2.32678 10.9944 1.99352 10.6502 2.00262 10.235C2.00991 9.82893 2.35227 9.49932 2.76019 9.50296ZM2.99876 10.2514C2.99876 10.1167 2.88767 10.0038 2.75473 10.0019C2.62179 10.0001 2.50524 10.1094 2.5016 10.2423C2.49614 10.3825 2.61451 10.5009 2.75291 10.4991C2.88767 10.4973 2.99876 10.3844 2.99876 10.2496V10.2514Z" fill="#410EAD"/>
<path d="M12.2484 13.7494C12.2484 14.1665 11.9079 14.5034 11.4926 14.4997C11.0847 14.4961 10.7515 14.1592 10.7515 13.7513C10.7515 13.3361 11.0902 13.001 11.5072 13.001C11.9133 13.001 12.2502 13.3415 12.2484 13.7494ZM11.7476 13.7458C11.744 13.611 11.631 13.5018 11.4963 13.5018C11.3615 13.5018 11.2504 13.6147 11.2486 13.7494C11.2486 13.8897 11.367 14.0062 11.5072 14.0008C11.642 13.9953 11.7494 13.8806 11.7476 13.7458Z" fill="#410EAD"/>
<path d="M0.500342 6.50377C0.751652 6.50377 0.979287 6.50377 1.20692 6.50377C1.38903 6.50377 1.50012 6.60575 1.4983 6.7569C1.49647 6.90258 1.38721 7.00092 1.21421 7.00274C0.902802 7.00456 0.589575 7.00638 0.27817 7.00274C0.096062 7.00092 0.00136581 6.9044 0.00136581 6.72047C-0.000455271 6.24153 -0.000455271 5.76258 0.00136581 5.28546C0.00136581 5.11428 0.103346 5.00684 0.250854 5.00684C0.398362 5.00684 0.498521 5.1161 0.498521 5.28728C0.500342 5.6861 0.498521 6.08674 0.498521 6.50559L0.500342 6.50377Z" fill="#410EAD"/>
<path d="M8.50014 6.50363C8.74781 6.50363 8.97544 6.50363 9.20308 6.50363C9.38701 6.50363 9.4981 6.60197 9.4981 6.75312C9.4981 6.90427 9.38519 7.00079 9.20126 7.00261C8.89896 7.00443 8.59848 7.00443 8.29618 7.00261C8.09222 7.00261 8.00117 6.90974 7.99934 6.7076C7.99752 6.23958 7.99934 5.77156 7.99934 5.30354C7.99934 5.11961 8.09586 5.0067 8.24519 5.00488C8.39634 5.00488 8.4965 5.11597 8.4965 5.29808C8.49832 5.69325 8.4965 6.08661 8.4965 6.50363H8.50014Z" fill="#410EAD"/>
<path d="M5.00575 9.00571C4.98754 9.38996 4.93291 9.49558 4.75626 9.50105C4.57597 9.50651 4.51588 9.39542 4.4922 9.00207C4.41936 9.00207 4.34288 9.00389 4.26821 9.00207C4.10796 8.99479 4.00233 8.89645 4.00051 8.75622C3.99869 8.61418 4.10249 8.5122 4.26093 8.50491C4.33377 8.50127 4.40479 8.50491 4.4922 8.50491C4.5177 8.30095 4.43029 8.0023 4.76355 8.01504C5.06038 8.02597 4.98208 8.29913 5.00393 8.49581C5.20061 8.52677 5.49198 8.43753 5.48834 8.75987C5.48469 9.06763 5.20607 8.99296 5.00393 9.00935L5.00575 9.00571Z" fill="#410EAD"/>
<path d="M9.99363 9.76178C9.60391 9.73264 9.50922 9.68347 9.50011 9.51411C9.49101 9.34111 9.58206 9.29012 9.99363 9.23731C10.0155 9.04427 9.93171 8.77657 10.2559 8.75654C10.4307 8.74562 10.4853 8.86399 10.5035 9.25188C10.5509 9.25188 10.6 9.25188 10.6492 9.25188C10.8769 9.25188 10.9934 9.33565 10.9952 9.49772C10.9989 9.66526 10.8787 9.75085 10.6419 9.75267C10.6 9.75267 10.56 9.75267 10.5035 9.75267C10.4799 9.95663 10.5636 10.2553 10.2322 10.2425C9.93535 10.2316 10.0137 9.96028 9.9918 9.76178H9.99363Z" fill="#410EAD"/>
<path d="M12.2555 10.9922C12.6561 11.0268 12.7508 11.0796 12.749 11.2544C12.749 11.4201 12.6616 11.4675 12.2573 11.5166C12.2318 11.7079 12.3174 11.9774 11.9932 11.9992C11.8184 12.0102 11.7638 11.8918 11.7437 11.5021C11.6654 11.5021 11.5853 11.5057 11.5052 11.5021C11.3558 11.493 11.2539 11.3946 11.252 11.258C11.2484 11.116 11.354 11.0122 11.5106 11.0049C11.5835 11.0013 11.6563 11.0049 11.7437 11.0049C11.7692 10.8028 11.6818 10.5023 12.0133 10.515C12.3119 10.5241 12.2336 10.7973 12.2555 10.9958V10.9922Z" fill="#410EAD"/>
<path d="M3.74169 12.7647C3.33923 12.7191 3.25182 12.6718 3.25 12.5024C3.25 12.3276 3.34105 12.2766 3.74169 12.2402C3.76901 12.0453 3.67978 11.7467 4.01668 11.7613C4.31351 11.774 4.23338 12.0472 4.25524 12.242C4.45374 12.2712 4.74511 12.1837 4.73965 12.5061C4.73418 12.8157 4.45374 12.7337 4.25342 12.7556C4.23338 12.9613 4.31169 13.2272 3.98754 13.2454C3.81818 13.2545 3.76537 13.1416 3.73987 12.7629L3.74169 12.7647Z" fill="#410EAD"/>
</svg>
