<svg width="15" height="15" viewBox="0 0 15 15" fill="none" xmlns="http://www.w3.org/2000/svg">
<path d="M0 15C0 10.0008 0 5.00156 0 0H15V15H0ZM7.25156 7.2375V7.05937C7.25156 6.375 7.25156 5.69297 7.25156 5.00859C7.25156 4.85859 7.22813 4.68984 7.39922 4.6125C7.56094 4.5375 7.67344 4.65469 7.79063 4.74375C8.11406 4.9875 8.60625 4.99687 8.94844 4.77422C9.30937 4.5375 9.49453 4.08516 9.39375 3.67969C9.20625 2.92266 8.36016 2.62969 7.74375 3.10547C7.64062 3.18516 7.54219 3.26719 7.40156 3.19687C7.25859 3.12656 7.25391 2.99766 7.25391 2.85938C7.25391 2.13281 7.25391 1.40391 7.25391 0.677344C7.25391 0.621094 7.24922 0.564844 7.24687 0.50625H0.50625V7.2375H2.45859C2.24766 6.49219 2.42578 5.87109 3.05625 5.43516C3.58359 5.06953 4.16484 5.05547 4.70859 5.40469C5.37891 5.83594 5.56172 6.47109 5.35547 7.2375H7.24922H7.25156ZM7.24453 12.2273C6.43359 12.518 5.76328 12.1758 5.40703 11.6836C5.05078 11.1891 5.02266 10.4953 5.38359 9.97734C5.84063 9.31875 6.47578 9.13594 7.24219 9.38438V7.75078C7.17422 7.75078 7.11563 7.75078 7.05703 7.75078C6.37266 7.75078 5.69063 7.75078 5.00625 7.75078C4.88438 7.75078 4.76719 7.73438 4.70625 7.6125C4.64766 7.49766 4.68984 7.39453 4.75781 7.29844C4.90781 7.08047 4.96172 6.84141 4.93125 6.57656C4.87969 6.11953 4.48828 5.72344 4.04063 5.68359C3.52266 5.63906 3.07734 5.92266 2.93203 6.38203C2.82656 6.72187 2.88047 7.03359 3.07734 7.32891C3.21797 7.5375 3.11719 7.73203 2.86641 7.75078C2.82187 7.75312 2.77969 7.75078 2.73516 7.75078C2.05078 7.75078 1.36875 7.75078 0.684375 7.75078H0.510938V14.4914H7.24922V12.2297L7.24453 12.2273ZM7.76016 2.48906C8.54297 2.22656 9.19453 2.38828 9.67734 3.05625C10.0383 3.55781 10.0406 4.24453 9.66563 4.76016C9.1875 5.42109 8.53359 5.57344 7.76484 5.31563V7.24453C7.83281 7.24453 7.88906 7.24453 7.94766 7.24453C8.7 7.24453 9.45234 7.24453 10.2047 7.24453C10.268 7.24453 10.3312 7.24453 10.3945 7.25859C10.5375 7.28672 10.6266 7.41563 10.582 7.55156C10.5563 7.62422 10.4953 7.68984 10.4344 7.74375C10.0992 8.04141 9.98672 8.46562 10.1414 8.88516C10.3313 9.40547 10.9266 9.67266 11.4656 9.48047C11.9766 9.29766 12.2578 8.7 12.0727 8.18906C12 7.99219 11.8805 7.83047 11.7164 7.69922C11.6273 7.62656 11.5828 7.53047 11.6227 7.41328C11.6625 7.29844 11.7563 7.25156 11.8711 7.24453C11.9156 7.24219 11.9578 7.24453 12.0023 7.24453C12.7734 7.24453 13.5445 7.24453 14.318 7.24453C14.3766 7.24453 14.4328 7.24453 14.4984 7.24453V0.50625H7.76484V2.49141L7.76016 2.48906ZM7.75313 7.75547V7.95C7.75313 8.53125 7.75313 9.1125 7.75313 9.69375C7.75313 9.83906 7.77422 9.99609 7.61016 10.0781C7.44844 10.1602 7.34297 10.0453 7.23047 9.96328C6.88828 9.71484 6.39141 9.71484 6.04922 9.95859C5.66719 10.2328 5.51484 10.6945 5.65781 11.1375C5.78906 11.5383 6.18984 11.8289 6.61172 11.8359C6.87656 11.8406 7.10859 11.7516 7.3125 11.5852C7.40156 11.5125 7.5 11.4797 7.61016 11.5336C7.72266 11.5898 7.74844 11.6906 7.75078 11.8031C7.75078 11.843 7.75078 11.8805 7.75078 11.9203C7.75078 12.7172 7.75078 13.5117 7.75078 14.3086V14.4867H14.4937V7.76016H12.4289C12.75 8.56172 12.6445 9.20859 12.1242 9.675C11.6484 10.1016 10.9219 10.2094 10.3805 9.88594C9.53203 9.37969 9.39609 8.63437 9.75 7.75547H7.75078H7.75313Z" fill="#410EAD"/>
<path d="M4.01252 2.48418C4.00783 2.43496 4.00784 2.38574 3.99377 2.34121C3.97268 2.27324 3.9469 2.20527 3.91174 2.14199C3.7969 1.93809 3.20393 1.94277 3.07971 2.14668C3.0094 2.26621 2.97658 2.38105 3.02815 2.50527C3.08674 2.6459 3.1969 2.73262 3.35158 2.74434C3.44768 2.75371 3.54612 2.74434 3.64455 2.74902C4.08049 2.76309 4.44143 3.08652 4.48596 3.49902C4.53752 3.95605 4.2844 4.33574 3.85315 4.45762C3.82033 4.46699 3.78987 4.47871 3.75002 4.49043V4.73418H3.25549C3.2508 4.65449 3.24846 4.57246 3.24377 4.49512C2.69065 4.29121 2.44924 3.97012 2.51018 3.50605H2.9883C2.99299 3.55996 2.98596 3.61621 3.00705 3.65605C3.06096 3.75449 3.10549 3.88574 3.19221 3.93262C3.39612 4.04043 3.6258 4.04277 3.83205 3.92324C3.97033 3.84356 4.0219 3.67949 3.9844 3.52949C3.94924 3.38887 3.80627 3.26465 3.65862 3.25293C3.5719 3.2459 3.48284 3.25293 3.39612 3.25059C2.9344 3.24121 2.57112 2.93418 2.51487 2.50762C2.45393 2.04356 2.71174 1.66152 3.17815 1.52793C3.1969 1.52324 3.21565 1.51856 3.24846 1.50918V1.26074H3.74768V1.50684C4.0219 1.56543 4.25393 1.69199 4.3758 1.94277C4.45549 2.10215 4.48362 2.2873 4.53987 2.48652H4.01018L4.01252 2.48418Z" fill="#410EAD"/>
<path d="M2.26406 10.7486H2.49844C2.51953 10.4908 2.59219 10.2635 2.76562 10.076C2.925 9.90487 3.11719 9.78065 3.34687 9.76659C3.72422 9.74784 4.10625 9.7619 4.49297 9.7619V10.2494C4.15781 10.2494 3.82969 10.2447 3.50391 10.2494C3.21328 10.2541 3.01406 10.4556 3.01641 10.7463H3.48984V11.2431H3.00938V11.4939H3.4875V11.9978H3.01875C3.01172 12.2908 3.21562 12.4877 3.52734 12.4947C3.78984 12.5017 4.05469 12.4947 4.31719 12.4947C4.37109 12.4947 4.42266 12.4947 4.48828 12.4947V12.9658C4.08047 12.9658 3.67266 13.001 3.27656 12.9564C2.86641 12.9096 2.56406 12.5346 2.51484 12.1197C2.51016 12.0822 2.50078 12.0447 2.49141 12.0025C2.41406 11.9978 2.34141 11.9931 2.26172 11.9861V11.501C2.33906 11.4939 2.41172 11.4892 2.48906 11.4822V11.2478C2.41641 11.2431 2.34609 11.2408 2.26406 11.2361V10.7416V10.7486Z" fill="#410EAD"/>
<path d="M10.7604 4.24707H11.2432V4.00566H10.7627V3.50644H11.2807C11.2408 3.40098 11.2268 3.31426 11.1799 3.25332C10.8963 2.88769 10.6033 2.52676 10.3057 2.15645C10.4346 2.05098 10.5588 1.95254 10.6947 1.84473C10.9643 2.18223 11.2291 2.51035 11.501 2.84785C11.7705 2.5127 12.033 2.18457 12.3049 1.84473C12.4338 1.94785 12.558 2.04395 12.6963 2.15176C12.5955 2.27832 12.5018 2.39785 12.4057 2.51973C12.2111 2.76348 12.0119 3.00488 11.8221 3.25332C11.7775 3.31191 11.7611 3.39395 11.7189 3.49473H12.2416V3.99629H11.7588V4.24473H12.2416V4.7416H11.7518V5.23848H11.2549V4.74863H10.758V4.24707H10.7604Z" fill="#410EAD"/>
<path d="M10.7625 11.2502H11.243V11.7447H10.7555C10.7438 12.0846 10.7954 12.4291 10.5821 12.7431H11.9907V13.2353C11.9579 13.24 11.925 13.2471 11.8922 13.2471C11.2829 13.2471 10.6735 13.2471 10.0618 13.2471C10.0266 13.2471 9.99379 13.2471 9.95863 13.24C9.78285 13.2096 9.69613 13.0197 9.79223 12.8697C9.83207 12.8088 9.88129 12.7502 9.93754 12.708C10.268 12.4642 10.2868 12.1244 10.2352 11.7541C10.1602 11.7494 10.0852 11.7447 10.0032 11.7377V11.2549C10.0829 11.2502 10.1579 11.2455 10.2539 11.2385C10.2539 11.1353 10.2493 11.0322 10.2539 10.9338C10.2774 10.5869 10.5657 10.2752 10.9102 10.2588C11.2641 10.24 11.6204 10.2541 11.9883 10.2541V10.7486C11.7235 10.7486 11.461 10.7486 11.1985 10.7486C10.7836 10.7486 10.7227 10.8142 10.7579 11.2478L10.7625 11.2502Z" fill="#410EAD"/>
</svg>
