<svg width="15" height="10" viewBox="0 0 15 10" fill="none" xmlns="http://www.w3.org/2000/svg">
<path d="M3.52058 8.00973C3.00326 7.66312 2.51191 7.35197 2.04437 7.01718C1.33874 6.51302 0.708865 5.93403 0.137432 5.30384C-0.0314008 5.11675 -0.0508814 4.89619 0.113622 4.71895C1.48376 3.23209 3.08551 2.02094 5.10068 1.31985C5.92319 1.03232 6.77818 0.886591 7.66347 0.910223C8.6072 0.935825 9.50331 1.14458 10.3583 1.50103C10.512 1.56602 10.5986 1.54632 10.7133 1.43801C11.1765 1.00278 11.6505 0.577403 12.1245 0.150054C12.4189 -0.115808 12.8756 -0.0134016 12.9774 0.339112C13.025 0.502568 12.9774 0.6483 12.8497 0.770399C12.7393 0.876744 12.6224 0.979151 12.5077 1.08156C9.31283 3.98635 6.12017 6.89311 2.92317 9.79396C2.8236 9.88455 2.68074 9.96135 2.54438 9.99089C2.33658 10.0342 2.13961 9.91803 2.04654 9.7467C1.9513 9.57142 1.98593 9.37252 2.14827 9.22482C2.55737 8.84867 2.97079 8.47449 3.38421 8.10032C3.42534 8.06487 3.47512 8.03927 3.51841 8.00973H3.52058ZM5.40371 6.24125C4.73271 5.24673 4.97081 4.1695 5.62233 3.49598C5.96649 3.1415 6.39073 2.90517 6.89506 2.79095C7.60286 2.63143 8.26521 2.74763 8.83015 3.06666C9.14617 2.77914 9.44487 2.50737 9.73708 2.23953C9.08556 1.99533 8.38426 1.83385 7.64832 1.81612C6.64398 1.79052 5.70241 2.02488 4.8063 2.41875C3.41235 3.02924 2.25 3.91742 1.20887 4.94542C1.19155 4.96117 1.1829 4.98284 1.16774 5.00647C2.07468 5.91237 3.07902 6.69814 4.23271 7.29879C4.62665 6.94234 5.00977 6.59574 5.40155 6.24125H5.40371ZM6.16346 5.5697C6.80848 4.98284 7.44485 4.40385 8.07906 3.82486C8.09204 3.81304 8.10287 3.79729 8.11585 3.78153C7.65481 3.52552 6.87342 3.64368 6.44268 4.02967C5.99679 4.42945 5.86692 5.10691 6.16562 5.56773L6.16346 5.5697Z" fill="#410EAD"/>
<path d="M13.8451 4.9923C13.6135 4.77567 13.4014 4.56101 13.1698 4.36605C12.8213 4.07458 12.462 3.79494 12.1005 3.51529C11.9468 3.39516 11.8538 3.2573 11.8819 3.07218C11.936 2.72755 12.3602 2.55621 12.6676 2.76693C13.4945 3.33411 14.2326 3.98596 14.8862 4.71659C15.0507 4.89974 15.0334 5.11834 14.8538 5.31527C14.1828 6.05575 13.423 6.71548 12.5832 7.29644C11.6135 7.96996 10.5659 8.5135 9.38836 8.83056C8.41 9.09446 7.41865 9.15944 6.40998 8.99993C6.0918 8.94872 5.90132 8.74194 5.93812 8.48002C5.97491 8.22991 6.23033 8.04676 6.52903 8.096C8.08316 8.35201 9.48577 7.96799 10.8148 7.27084C11.9576 6.67216 12.936 5.89032 13.8451 4.99033V4.9923Z" fill="#410EAD"/>
</svg>
