<svg width="15" height="15" viewBox="0 0 15 15" fill="none" xmlns="http://www.w3.org/2000/svg">
<path d="M7.82375 11.8844V13.2999C8.01336 13.2999 8.19223 13.2999 8.37467 13.2999C8.6072 13.2999 8.74672 13.4068 8.7503 13.5784C8.75388 13.7501 8.61436 13.8667 8.3854 13.8667C6.9616 13.8667 5.53422 13.8667 4.11042 13.8667C3.8922 13.8667 3.75626 13.7566 3.75268 13.5914C3.74911 13.4197 3.88862 13.3063 4.114 13.3031C4.29645 13.3031 4.47889 13.3031 4.67207 13.3031V11.8876H4.46458C3.31982 11.8876 2.17505 11.8876 1.02671 11.8876C0.379204 11.8876 0 11.541 0 10.9515C0 8.84282 0 6.73091 0 4.62224C0 4.023 0.379203 3.68289 1.04102 3.68289C2.03554 3.68289 3.03363 3.68289 4.06034 3.68289C4.06034 3.61487 4.06034 3.55332 4.06034 3.49178C4.06034 2.63665 4.06034 1.78152 4.06034 0.926391C4.06034 0.349826 4.4467 0 5.07989 0C8.04913 0 11.0148 0 13.984 0C14.6065 0 14.9964 0.349826 14.9964 0.913434C14.9964 2.99943 14.9928 5.08543 15 7.17467C15 7.58604 14.8819 7.91643 14.5099 8.09782C14.6566 8.48328 14.8426 8.84606 14.932 9.22504C15.3112 10.8608 13.9661 12.5128 12.1345 12.7039C11.14 12.8075 10.2707 12.5549 9.51944 11.9653C9.47293 11.9297 9.41212 11.8908 9.35488 11.8908C8.84689 11.8844 8.34248 11.8876 7.82018 11.8876L7.82375 11.8844ZM8.91844 8.20471H8.6716C7.48748 8.20471 6.30336 8.20471 5.11925 8.20471C4.43239 8.20471 4.06392 7.86784 4.06392 7.23945C4.06392 6.30982 4.06392 5.37695 4.06392 4.44732V4.24326H3.85285C2.92273 4.24326 1.99261 4.24326 1.06249 4.24326C0.719056 4.24326 0.626043 4.32748 0.626043 4.64491C0.626043 6.2418 0.626043 7.83869 0.626043 9.43558V9.61373H8.43549C8.47484 9.11815 8.62151 8.66143 8.91844 8.20795V8.20471ZM8.44622 7.63787C8.75388 7.63787 9.04007 7.64111 9.32626 7.63463C9.38707 7.63463 9.4622 7.599 9.50871 7.55689C10.8109 6.51389 12.6318 6.51065 13.9304 7.55365C14.077 7.67026 14.2523 7.64434 14.331 7.47591C14.3632 7.40789 14.3704 7.32691 14.3704 7.25241C14.3704 5.64256 14.3704 4.03272 14.3704 2.42611C14.3704 2.37428 14.3632 2.32246 14.3596 2.27063H8.43907V7.63463L8.44622 7.63787ZM7.79871 7.63787V2.27063H4.68996V2.47146C4.68996 3.89667 4.68996 5.32513 4.68996 6.75034C4.68996 6.94469 4.68638 7.13904 4.68996 7.33339C4.69354 7.51478 4.80444 7.63463 4.99761 7.63463C5.92774 7.63787 6.85786 7.63463 7.79871 7.63463V7.63787ZM9.06511 9.79189C9.06153 11.1491 10.2385 12.2342 11.7231 12.2374C13.1791 12.2374 14.3704 11.162 14.3775 9.84371C14.3847 8.44765 13.2256 7.3593 11.7303 7.35606C10.2456 7.35606 9.06869 8.42821 9.06511 9.79189ZM8.43191 10.1968H0.626043C0.626043 10.4365 0.626043 10.6632 0.626043 10.8932C0.626043 11.2398 0.711901 11.3175 1.09468 11.3175C3.6239 11.3175 6.15669 11.3175 8.68591 11.3175H8.87551C8.72526 10.9418 8.58216 10.579 8.42833 10.1968H8.43191ZM14.3775 1.69083C14.3775 1.44465 14.3775 1.21791 14.3775 0.987935C14.3775 0.641348 14.2953 0.563608 13.9089 0.563608C10.9933 0.563608 8.08133 0.563608 5.16575 0.563608C5.10136 0.563608 5.03339 0.55713 4.97257 0.566848C4.82232 0.586282 4.70785 0.6705 4.70427 0.806543C4.68996 1.09806 4.70069 1.38959 4.70069 1.68759H14.3847L14.3775 1.69083ZM7.17267 13.2966V11.8973H5.33031V13.2966H7.17267Z" fill="#410EAD"/>
<path d="M6.24253 14.9973C5.33745 14.9973 4.43237 14.9973 3.52729 14.9973C3.43428 14.9973 3.31265 14.9844 3.25541 14.9325C3.18386 14.8645 3.12305 14.7382 3.14451 14.6604C3.17313 14.573 3.29476 14.505 3.39135 14.4434C3.4307 14.4175 3.50583 14.4337 3.56307 14.4337C5.35176 14.4337 7.14403 14.4337 8.93273 14.4337C8.97924 14.4337 9.02574 14.4337 9.06867 14.4337C9.25112 14.4499 9.37633 14.5698 9.36917 14.722C9.36559 14.8678 9.24396 14.9844 9.06867 14.9941C8.91126 15.0038 8.75744 14.9941 8.60003 14.9941C7.81301 14.9941 7.02598 14.9941 6.23538 14.9941L6.24253 14.9973Z" fill="#410EAD"/>
<path d="M10.607 14.9973C10.5033 14.9973 10.3995 15.0038 10.2958 14.9973C10.1241 14.9844 10.0024 14.8678 10.0024 14.7188C10.0024 14.5698 10.1205 14.4467 10.2922 14.437C10.514 14.4273 10.7358 14.4273 10.954 14.437C11.1257 14.4435 11.2474 14.5665 11.2474 14.7155C11.2474 14.8613 11.1293 14.9779 10.9576 14.9973C10.9433 14.9973 10.9326 14.9973 10.9183 14.9973C10.8145 14.9973 10.7108 14.9973 10.607 14.9973Z" fill="#410EAD"/>
<path d="M11.387 3.39369C10.7359 3.39369 10.0848 3.39369 9.43375 3.39369C9.2191 3.39369 9.09032 3.30299 9.06528 3.14751C9.04023 2.96936 9.18691 2.83008 9.41228 2.83008C9.97036 2.83008 10.532 2.83008 11.0901 2.83008C11.8521 2.83008 12.614 2.83008 13.376 2.83008C13.5907 2.83008 13.7195 2.92077 13.7445 3.07625C13.7731 3.25764 13.6193 3.39369 13.376 3.39369C12.7106 3.39369 12.0488 3.39369 11.3834 3.39369H11.387Z" fill="#410EAD"/>
<path d="M11.3939 4.52845C10.75 4.52845 10.106 4.52845 9.46209 4.52845C9.21168 4.52845 9.07216 4.42804 9.06501 4.25313C9.06143 4.07173 9.2081 3.96484 9.46567 3.96484C10.7607 3.96484 12.0557 3.96484 13.3507 3.96484C13.6011 3.96484 13.7442 4.06526 13.7478 4.24017C13.7514 4.42156 13.6047 4.52845 13.3471 4.52845C12.6961 4.52845 12.045 4.52845 11.3939 4.52845Z" fill="#410EAD"/>
<path d="M12.1882 5.0957C12.5853 5.0957 12.9823 5.0957 13.3794 5.0957C13.6084 5.0957 13.7479 5.20583 13.7479 5.37751C13.7479 5.54918 13.6084 5.65931 13.3794 5.65931C12.5853 5.65931 11.7911 5.65931 10.9969 5.65931C10.7679 5.65931 10.6284 5.54918 10.6284 5.37751C10.6284 5.20583 10.7679 5.0957 10.9969 5.0957C11.394 5.0957 11.7911 5.0957 12.1882 5.0957Z" fill="#410EAD"/>
<path d="M7.18708 3.68205C7.18708 4.15172 6.75779 4.5307 6.23549 4.52746C5.7275 4.52422 5.30895 4.13553 5.31252 3.67557C5.3161 3.2059 5.74539 2.82368 6.26411 2.83016C6.7721 2.83664 7.18708 3.21886 7.18708 3.68205ZM6.56103 3.67557C6.56103 3.52333 6.42151 3.39701 6.25338 3.39701C6.07808 3.39701 5.93141 3.52981 5.93857 3.68853C5.94572 3.84077 6.08882 3.96385 6.25695 3.96062C6.42509 3.95738 6.56103 3.82781 6.56103 3.67557Z" fill="#410EAD"/>
<path d="M6.25319 5.09468C6.45353 5.09468 6.65744 5.09144 6.85777 5.09468C7.05811 5.10115 7.18689 5.21776 7.18689 5.37648C7.18689 5.5352 7.05453 5.65504 6.8542 5.65828C6.44995 5.66152 6.04571 5.66152 5.64504 5.65828C5.4447 5.65828 5.31592 5.5352 5.31592 5.37648C5.31592 5.21452 5.44828 5.10115 5.64861 5.09468C5.84895 5.0882 6.05286 5.09468 6.25319 5.09468Z" fill="#410EAD"/>
<path d="M11.3401 11.2914C11.3115 11.3465 11.29 11.4016 11.2543 11.4501C11.1613 11.5797 11.0325 11.6283 10.8715 11.57C10.7141 11.5117 10.6282 11.3659 10.6998 11.2266C10.7749 11.0809 10.7248 10.9999 10.5925 10.9254C10.5531 10.9027 10.5209 10.8736 10.4923 10.8412C10.3671 10.6987 10.2633 10.5529 10.0093 10.6663C9.9521 10.6922 9.77681 10.5821 9.71599 10.4978C9.63729 10.3877 9.68737 10.2549 9.81258 10.1707C9.8734 10.1286 9.94852 10.1059 10.0201 10.0703V9.43865C9.70526 9.26373 9.63371 9.16332 9.70884 8.99813C9.78396 8.82969 9.92348 8.80378 10.2669 8.88476C10.4172 8.75519 10.5674 8.6321 10.7034 8.50254C10.7355 8.47015 10.7463 8.39889 10.7355 8.35678C10.6676 8.13976 10.7141 8.00371 10.8858 7.93893C11.0611 7.87091 11.2042 7.94217 11.3187 8.13652C11.3437 8.17863 11.4045 8.22721 11.451 8.23045C11.6514 8.24017 11.8517 8.23369 12.0628 8.23369C12.0914 8.17863 12.12 8.12032 12.1522 8.06526C12.2381 7.9195 12.4098 7.86443 12.5636 7.92921C12.7103 7.99076 12.7925 8.14299 12.7138 8.28552C12.6387 8.42804 12.6745 8.50902 12.8104 8.58676C12.8784 8.62886 12.9321 8.69041 12.9893 8.74871C13.0394 8.80054 13.0859 8.8556 13.1324 8.90743C13.4758 8.8135 13.6368 8.83941 13.7048 8.98841C13.7871 9.16656 13.7048 9.28965 13.39 9.45484C13.39 9.63623 13.3864 9.81762 13.39 9.99902C13.39 10.0411 13.4257 10.0962 13.4615 10.1156C13.7048 10.2452 13.7799 10.3683 13.7012 10.527C13.6225 10.6857 13.4687 10.7181 13.1968 10.6339C13.1789 10.6274 13.161 10.6242 13.1467 10.6209C12.9893 10.757 12.8283 10.8833 12.6852 11.0226C12.6566 11.0517 12.6602 11.1262 12.6781 11.1748C12.7425 11.3724 12.6924 11.5085 12.5171 11.5765C12.349 11.6413 12.188 11.5765 12.1021 11.3918C12.0592 11.2979 12.0019 11.2785 11.8946 11.2882C11.7158 11.3011 11.5333 11.2914 11.333 11.2914H11.3401ZM11.7336 8.77139C11.1398 8.76491 10.6497 9.19247 10.6354 9.73341C10.6211 10.2679 11.1148 10.7246 11.7158 10.7343C12.3024 10.744 12.7854 10.31 12.7997 9.75932C12.814 9.2281 12.3275 8.77786 11.7336 8.77139Z" fill="#410EAD"/>
<path d="M6.26764 10.4719C6.37138 10.4719 6.47512 10.4655 6.57887 10.4719C6.75416 10.4849 6.87221 10.6015 6.87579 10.7473C6.87579 10.893 6.75774 11.0226 6.58602 11.0291C6.36423 11.0388 6.14243 11.0388 5.92421 11.0291C5.74891 11.0226 5.63086 10.8995 5.63086 10.7537C5.63086 10.5983 5.75249 10.4817 5.93852 10.4687C6.04941 10.4622 6.16031 10.4687 6.27121 10.4687L6.26764 10.4719Z" fill="#410EAD"/>
<path d="M7.97019 1.41466C7.2082 1.41466 6.44622 1.41466 5.68424 1.41466C5.46959 1.41466 5.34081 1.32396 5.31576 1.16848C5.29072 0.990331 5.43739 0.854288 5.66277 0.851049C6.02051 0.84781 6.37825 0.851049 6.73599 0.851049C7.89506 0.851049 9.05414 0.851049 10.2132 0.851049C10.3134 0.851049 10.4457 0.864006 10.4994 0.92231C10.5674 0.993571 10.6139 1.12314 10.596 1.21707C10.571 1.35959 10.4314 1.41466 10.2705 1.41466C9.73742 1.41466 9.20439 1.41466 8.66778 1.41466C8.43167 1.41466 8.19914 1.41466 7.96303 1.41466H7.97019Z" fill="#410EAD"/>
<path d="M11.7089 1.4119C11.6517 1.4119 11.5908 1.41837 11.5336 1.4119C11.3655 1.38598 11.2653 1.29529 11.2546 1.13981C11.2438 0.994048 11.3655 0.867722 11.5372 0.854766C11.6409 0.845048 11.7447 0.848287 11.8484 0.854766C12.0487 0.861244 12.1811 0.971375 12.1883 1.13009C12.1918 1.29529 12.0559 1.4119 11.8448 1.41837C11.7983 1.41837 11.7554 1.41837 11.7089 1.41837V1.4119Z" fill="#410EAD"/>
<path d="M13.2831 0.848633C13.301 0.848633 13.3224 0.848633 13.3403 0.848633C13.6051 0.848633 13.7482 0.949045 13.7482 1.13044C13.7482 1.31183 13.6015 1.41224 13.3403 1.41224C13.2759 1.41224 13.2115 1.41224 13.1436 1.41224C12.9432 1.40252 12.8145 1.28915 12.8145 1.13044C12.8145 0.96848 12.9432 0.85835 13.1436 0.848633C13.1901 0.848633 13.233 0.848633 13.2795 0.848633H13.2831Z" fill="#410EAD"/>
<path d="M11.7157 10.1809C11.4689 10.1809 11.2578 9.98654 11.2578 9.76304C11.2578 9.53306 11.4832 9.33547 11.7336 9.34195C11.984 9.34843 12.1879 9.54602 12.1808 9.76952C12.1736 9.99302 11.959 10.1841 11.7121 10.1809H11.7157Z" fill="#410EAD"/>
</svg>
