<svg width="15" height="15" viewBox="0 0 15 15" fill="none" xmlns="http://www.w3.org/2000/svg">
<path d="M0 14.9975C0 14.6149 0 14.2349 0 13.8523C0 13.5453 0.125649 13.3112 0.399564 13.1728C0.495058 13.125 0.485005 13.057 0.485005 12.979C0.485005 11.4237 0.485005 9.86829 0.485005 8.31292C0.485005 7.59312 0.485005 6.87584 0.485005 6.15604C0.485005 5.3406 0.987603 4.84228 1.80181 4.84228C2.22148 4.84228 2.64115 4.84228 3.0784 4.84228C2.72407 3.4203 2.37226 2.01091 2.00787 0.556208C3.02815 1.39178 4.01323 2.19966 5.0134 3.02013C5.60144 2.01091 6.17943 1.0193 6.775 0C7.36807 1.0193 7.95108 2.01594 8.53661 3.02013C9.53175 2.2047 10.5168 1.39933 11.5019 0.591443C11.512 0.596477 11.522 0.598993 11.5321 0.604027C11.1803 2.01091 10.831 3.41527 10.4741 4.84228C10.6953 4.84228 10.8988 4.84228 11.1024 4.84228C11.419 4.84732 11.7407 4.82466 12.0523 4.86745C12.6529 4.9505 13.0625 5.45134 13.0675 6.06544C13.0725 6.89094 13.0675 7.71896 13.0675 8.54446C13.0675 8.59731 13.0675 8.65017 13.0675 8.71057H13.7887C13.7887 8.65772 13.7963 8.61242 13.7963 8.5646C13.7963 7.2005 13.7963 5.83389 13.7963 4.4698C13.7963 4.38171 13.7862 4.32383 13.6857 4.28356C13.251 4.11242 13.0047 3.67953 13.0751 3.24413C13.1504 2.78104 13.5249 2.44631 13.9898 2.42366C14.4446 2.40101 14.8442 2.69547 14.9698 3.14849C14.9774 3.17617 14.9899 3.20134 15 3.22903V3.55117C14.9095 3.87584 14.7386 4.14262 14.4145 4.27097C14.2989 4.31628 14.2687 4.37416 14.2687 4.49245C14.2712 6.61409 14.2712 8.73574 14.2687 10.8574C14.2687 11.3305 13.9722 11.625 13.5023 11.63C13.359 11.63 13.2133 11.63 13.0625 11.63C13.0625 12.1208 13.0625 12.5914 13.0675 13.0596C13.0675 13.0973 13.1153 13.1476 13.153 13.1703C13.3615 13.2886 13.5173 13.4597 13.5299 13.6963C13.55 14.1292 13.5349 14.5646 13.5349 15H0V14.9975ZM12.5775 13.0872C12.58 13.0268 12.585 12.9841 12.585 12.9413C12.585 10.6661 12.585 8.39094 12.585 6.11829C12.585 5.61745 12.2935 5.33054 11.7884 5.33054C8.44865 5.33054 5.10638 5.33054 1.76663 5.33054C1.259 5.33054 0.967498 5.62248 0.967498 6.13339C0.967498 8.39849 0.967498 10.6636 0.967498 12.9287C0.967498 12.979 0.967498 13.0319 0.967498 13.0898C1.65606 13.0898 2.31948 13.0646 2.98291 13.0998C3.37745 13.12 3.68403 13.0319 3.91271 12.7072C3.97554 12.6191 4.05847 12.599 4.16653 12.599C5.76478 12.6015 7.36053 12.6141 8.95879 12.5914C9.3684 12.5864 9.6976 12.6518 9.94639 12.9992C9.98409 13.052 10.0846 13.0872 10.1575 13.0872C10.9139 13.0923 11.6728 13.0923 12.4292 13.0923H12.5775V13.0872ZM13.0725 14.5294C13.0725 14.3129 13.0725 14.1116 13.0725 13.9128C13.0725 13.6409 12.9972 13.568 12.7207 13.568C11.9342 13.568 11.1476 13.5478 10.361 13.5755C9.97403 13.5906 9.66494 13.5176 9.44379 13.1904C9.38097 13.0998 9.29301 13.0872 9.18998 13.0872C7.71486 13.0898 6.23974 13.1049 4.76462 13.0797C4.36505 13.0721 4.05847 13.1502 3.81722 13.4748C3.77701 13.5277 3.67901 13.5629 3.60613 13.5629C2.89244 13.5705 2.17876 13.568 1.46758 13.568C1.23388 13.568 0.997654 13.5654 0.763947 13.568C0.603116 13.5705 0.500084 13.6435 0.495058 13.7794C0.485006 14.026 0.492545 14.2752 0.492545 14.5294H13.0751H13.0725ZM3.57598 4.83725C3.61367 4.83725 3.6388 4.84228 3.66393 4.84228C5.7296 4.84228 7.79527 4.84228 9.86095 4.8448C9.96147 4.8448 9.99162 4.80453 10.0117 4.71644C10.16 4.1099 10.3133 3.50336 10.4641 2.89681C10.547 2.56711 10.6274 2.2349 10.7103 1.9052L10.6852 1.88758C9.9288 2.50671 9.17239 3.12584 8.40593 3.75252C7.86061 2.81879 7.32535 1.90017 6.77752 0.958892C6.22969 1.90017 5.69191 2.82131 5.1491 3.75252C4.38264 3.12332 3.62372 2.50168 2.83465 1.85487C3.08846 2.87416 3.33222 3.84815 3.57849 4.83473L3.57598 4.83725ZM13.0851 9.21896V11.1418C13.1127 11.1443 13.1253 11.1493 13.1404 11.1493C13.2585 11.1493 13.3741 11.1493 13.4922 11.1493C13.7134 11.1468 13.7988 11.0587 13.8013 10.8347C13.8013 10.3867 13.8013 9.93624 13.8013 9.48825C13.8013 9.40268 13.8013 9.3146 13.8013 9.21896H13.0851ZM14.5225 3.38255C14.52 3.11577 14.3014 2.90185 14.035 2.90436C13.7712 2.90688 13.555 3.13087 13.5575 3.39513C13.5626 3.66191 13.7812 3.87584 14.0476 3.87332C14.314 3.87081 14.525 3.65185 14.5225 3.38255Z" fill="#410EAD"/>
<path d="M1.4624 5.80859H1.65339C4.93032 5.80859 8.20725 5.80859 11.4842 5.80859C11.934 5.80859 12.1024 5.97722 12.1024 6.42772C12.1024 8.12403 12.1024 9.82285 12.1024 11.5192C12.1024 11.9369 11.924 12.1156 11.5043 12.1156C8.2173 12.1156 4.93032 12.1156 1.64334 12.1156C1.58554 12.1156 1.52774 12.1156 1.4624 12.1156V5.80859ZM8.22484 6.30692H5.33994V10.6458H8.22484V6.30692ZM4.8298 11.6198V7.28091H1.9449V11.6198H4.8298ZM8.72241 7.27588V11.6148H11.6073V7.27588H8.72241ZM4.83483 6.30943H1.94741V6.76749H4.83483V6.30943ZM8.72241 6.77H11.6073V6.30692H8.72241V6.77ZM8.22735 11.1542H5.33994V11.6148H8.22735V11.1542Z" fill="#410EAD"/>
<path d="M4.84766 14.0462V13.5781H5.31758V14.0462H4.84766Z" fill="#410EAD"/>
<path d="M7.01122 14.0513H6.54883V13.5781H7.01122V14.0513Z" fill="#410EAD"/>
<path d="M8.2373 14.0458V13.5752H8.69969V14.0458H8.2373Z" fill="#410EAD"/>
<path d="M6.77501 2.90234C7.17457 2.90234 7.50126 3.22701 7.50377 3.62718C7.50377 4.02734 7.1796 4.35453 6.78003 4.35704C6.38047 4.35704 6.05378 4.03238 6.05127 3.63221C6.05127 3.23204 6.37544 2.90486 6.77501 2.90234ZM6.53628 3.62466C6.53376 3.75805 6.64182 3.86879 6.77501 3.8713C6.9082 3.8713 7.01626 3.7656 7.01626 3.62969C7.01626 3.49882 6.91825 3.39815 6.78757 3.39312C6.65187 3.38808 6.5413 3.49127 6.53879 3.62466H6.53628Z" fill="#410EAD"/>
<path d="M9.20519 4.35413C9.06948 4.35665 8.96143 4.25346 8.96143 4.11756C8.96143 3.98668 9.05943 3.88098 9.18759 3.87343C9.31827 3.86588 9.43387 3.97158 9.44141 4.10497C9.44643 4.23836 9.34089 4.35162 9.2077 4.35413H9.20519Z" fill="#410EAD"/>
<path d="M4.59875 4.10715C4.60126 4.23802 4.49571 4.34876 4.36253 4.35379C4.22934 4.35631 4.11877 4.25312 4.11625 4.11973C4.11374 3.98886 4.2218 3.87561 4.35247 3.87309C4.48064 3.87057 4.59623 3.97879 4.60126 4.10715H4.59875Z" fill="#410EAD"/>
<path d="M7.73737 7.27832C7.75245 7.57782 7.74994 7.84711 7.5866 8.11641C7.23478 8.69778 6.92065 9.29929 6.59145 9.89325C6.56632 9.94107 6.53868 9.98637 6.50099 10.0468C6.36277 9.96876 6.22707 9.89577 6.08132 9.81523C6.46078 9.13067 6.83521 8.45366 7.22473 7.75147H5.81494V7.27832H7.73737Z" fill="#410EAD"/>
<path d="M2.43018 8.72274V8.24707H4.35763C4.34004 8.49875 4.39533 8.74036 4.25209 8.98449C3.88519 9.60613 3.54594 10.2454 3.19412 10.8771C3.17151 10.9199 3.14638 10.9602 3.11371 11.0155C2.97549 10.94 2.83979 10.867 2.69153 10.7865C3.07099 10.1019 3.44542 9.42492 3.83493 8.72274H2.43018Z" fill="#410EAD"/>
<path d="M9.89098 11.0189C9.74774 10.9383 9.61455 10.8653 9.47131 10.7848C9.85077 10.1002 10.2252 9.42323 10.6122 8.72608H9.20996V8.25293H11.1349C11.1223 8.50964 11.1676 8.7588 11.0168 9.013C10.6524 9.62457 10.3182 10.2563 9.97139 10.8804C9.94878 10.9232 9.92365 10.9635 9.89098 11.0214V11.0189Z" fill="#410EAD"/>
</svg>
