<svg width="15" height="15" viewBox="0 0 15 15" fill="none" xmlns="http://www.w3.org/2000/svg">
<path d="M6.19973 13.6441H5.99589C4.29483 13.6441 2.59377 13.6441 0.892706 13.6441C0.424094 13.6441 0.103095 13.4085 0.0164018 12.9997C0.00234343 12.9304 0 12.8588 0 12.7872C0 9.48414 0 6.1834 0 2.88035C0 2.36064 0.335057 2.02572 0.862246 2.01879C1.10592 2.01648 1.3496 2.01879 1.61905 2.01879C1.61905 1.96335 1.61905 1.91484 1.61905 1.86634C1.61905 1.51986 1.61905 1.17108 1.61905 0.824608C1.6214 0.369572 1.93302 0.0415769 2.39226 0.00461975C2.4485 1.05839e-07 2.50707 0 2.56331 0C6.39421 0 10.2275 0 14.0584 0C14.1755 0 14.2997 0.00462 14.4122 0.0346477C14.7613 0.127041 14.9956 0.434247 14.9979 0.79458C15.0026 1.3166 14.9979 1.83631 14.9979 2.35833C14.9979 5.14398 14.9979 7.92963 14.9979 10.7153C14.9979 11.3089 14.6816 11.6207 14.0748 11.623C13.8475 11.623 13.6202 11.623 13.3789 11.623C13.3789 12.0434 13.3812 12.4453 13.3789 12.8472C13.3742 13.2191 13.1282 13.5286 12.7626 13.6164C12.6689 13.6395 12.5682 13.6395 12.4698 13.6395C11.8465 13.6395 11.2256 13.6395 10.6023 13.6395C10.5461 13.6395 10.4899 13.6395 10.4172 13.6395C10.4172 13.7458 10.4172 13.8382 10.4172 13.9282C10.4172 14.1893 10.4172 14.4503 10.4172 14.7113C10.4172 14.933 10.354 15 10.1337 15C8.91534 15 7.69695 15 6.47856 15C6.26534 15 6.19973 14.933 6.19739 14.7228C6.19739 14.3694 6.19739 14.0183 6.19739 13.6395L6.19973 13.6441ZM2.0244 2.95427V3.06745C2.0244 5.63828 2.0244 8.20912 2.0244 10.78C2.0244 11.0664 2.18139 11.2234 2.47896 11.2234C3.73952 11.2234 4.99774 11.2234 6.25831 11.2234C6.28877 11.2234 6.31923 11.2119 6.38483 11.198C6.30751 11.1703 6.27002 11.1565 6.23019 11.1426C5.93028 11.0387 5.82016 10.7823 5.97246 10.5097C6.65194 9.29935 7.33377 8.08901 8.01795 6.88097C8.16322 6.62458 8.44673 6.6292 8.59434 6.88328C8.72321 7.10502 8.84739 7.32907 8.97157 7.55313C9.52219 8.53018 10.0728 9.50724 10.6234 10.4866C10.7921 10.7869 10.6914 11.034 10.361 11.1495C10.3259 11.1611 10.2931 11.1819 10.2251 11.2142C10.3024 11.2211 10.3376 11.2257 10.3727 11.2257C11.6216 11.2257 12.8728 11.2257 14.1216 11.2257C14.4426 11.2257 14.5902 11.071 14.5902 10.7499C14.5902 8.2045 14.5902 5.65907 14.5902 3.11364V2.95658H14.3676C11.9098 2.95658 9.4519 2.95658 6.99403 2.95889C6.80424 2.95889 6.65663 2.90114 6.52776 2.76255C6.29346 2.51078 6.04509 2.27056 5.80844 2.01879C5.74049 1.94718 5.6702 1.91484 5.56711 1.91484C5.01649 1.91946 4.46821 1.91484 3.91759 1.91715C3.86839 1.91715 3.81919 1.92177 3.76061 1.92408C3.76061 2.03496 3.75592 2.12966 3.76061 2.22667C3.79107 2.90807 3.67157 2.97274 3.02957 2.95658C2.6992 2.94734 2.36883 2.95658 2.01737 2.95658L2.0244 2.95427ZM6.94248 12.1289C6.93311 12.0296 6.92842 11.951 6.91437 11.8725C6.86985 11.63 6.86516 11.6277 6.61445 11.6277C5.25548 11.6277 3.89885 11.6277 2.53988 11.6277C1.93771 11.6277 1.61671 11.3112 1.61671 10.7199C1.61671 8.0174 1.61671 5.3126 1.61671 2.6101C1.61671 2.55005 1.61671 2.4923 1.61671 2.41839C1.36366 2.41839 1.1317 2.41839 0.899734 2.41839C0.555305 2.41839 0.405349 2.56622 0.405349 2.90345C0.405349 6.19033 0.405349 9.4749 0.405349 12.7618C0.405349 13.1013 0.550619 13.2445 0.897391 13.2445C2.60782 13.2445 4.31826 13.2445 6.02869 13.2445C6.08258 13.2445 6.13647 13.2399 6.19739 13.2376C6.19739 13.1106 6.19739 13.0043 6.19739 12.8958C6.19739 12.7826 6.1927 12.6717 6.19739 12.5585C6.20911 12.2929 6.37312 12.1358 6.64257 12.1289C6.73395 12.1289 6.82533 12.1289 6.94014 12.1289H6.94248ZM14.5949 2.55698C14.5949 1.94949 14.6019 1.36049 14.5879 0.773791C14.5855 0.676779 14.5129 0.547429 14.4309 0.494303C14.3325 0.429628 14.1896 0.406529 14.0677 0.404219C11.5536 0.3996 9.03952 0.3996 6.52307 0.3996C5.18519 0.3996 3.8473 0.3996 2.50942 0.3996C2.17202 0.3996 2.0244 0.547429 2.0244 0.875424C2.0244 1.33046 2.0244 1.78549 2.0244 2.24053C2.0244 2.33985 2.0244 2.44148 2.0244 2.54312H3.36463C3.36463 2.33292 3.36463 2.13428 3.36463 1.93332C3.36698 1.65845 3.5099 1.51525 3.78638 1.51525C4.41432 1.51525 5.04226 1.51525 5.66786 1.51525C5.81781 1.51525 5.93731 1.56375 6.04041 1.67231C6.28643 1.9287 6.53948 2.17816 6.78315 2.43687C6.8675 2.52695 6.95654 2.55929 7.08072 2.55929C9.5175 2.55698 11.9543 2.55698 14.3911 2.55698C14.452 2.55698 14.5129 2.55698 14.5949 2.55698ZM7.35486 12.1173H9.26914C9.29726 11.4221 9.637 10.9647 10.3071 10.743C9.72135 9.69895 9.13793 8.66415 8.55451 7.62704C8.54045 7.62935 8.52639 7.63397 8.51467 7.63628C8.51467 7.89267 8.51936 8.15137 8.51467 8.40776C8.51233 8.51863 8.53576 8.58793 8.64823 8.64798C8.88956 8.77964 8.995 9.06375 8.92705 9.32245C8.85676 9.58808 8.61777 9.77749 8.34129 9.79135C8.06246 9.8052 7.81879 9.64583 7.72741 9.38944C7.63134 9.12381 7.70398 8.8166 7.93828 8.68032C8.09761 8.58793 8.12573 8.48168 8.11635 8.3223C8.10464 8.12827 8.11635 7.93425 8.11401 7.74022C8.11401 7.70326 8.10464 7.66631 8.09527 7.58546C7.4931 8.65722 6.91202 9.68971 6.3286 10.7245C6.99169 10.9624 7.33846 11.4152 7.36189 12.1127L7.35486 12.1173ZM10.0072 12.5354H6.62383V14.5889H10.0072V12.5354ZM12.9759 11.6438C12.9501 11.6369 12.936 11.6277 12.922 11.6277C11.9074 11.6277 10.8905 11.6253 9.87599 11.6277C9.8385 11.6277 9.77758 11.6577 9.76821 11.6877C9.72604 11.824 9.69792 11.9649 9.66043 12.1289C9.76587 12.1289 9.82679 12.1289 9.88771 12.1289C10.279 12.1289 10.4219 12.2698 10.4219 12.6555C10.4219 12.8472 10.4219 13.039 10.4219 13.2399C11.1717 13.2399 11.9004 13.2445 12.6314 13.2376C12.8118 13.2376 12.9688 13.0782 12.9735 12.8981C12.9852 12.48 12.9782 12.0619 12.9782 11.6461L12.9759 11.6438ZM8.30849 9.39406C8.43267 9.39406 8.53108 9.29242 8.53342 9.16769C8.53342 9.04527 8.43267 8.94364 8.30849 8.94595C8.18665 8.94595 8.08824 9.04989 8.08824 9.17462C8.08824 9.30859 8.17727 9.39637 8.31083 9.39406H8.30849Z" fill="#410EAD"/>
<path d="M6.53022 5.52025C6.46227 5.51794 6.43416 5.51563 6.40604 5.51563C5.84605 5.51563 5.28606 5.51563 4.72607 5.51563C4.63938 5.51563 4.59017 5.53642 4.548 5.62188C4.39101 5.94526 4.00675 6.11156 3.64358 6.02148C3.2804 5.93371 3.02969 5.60109 3.04141 5.2269C3.05312 4.85964 3.30852 4.56398 3.67169 4.49238C4.0583 4.41846 4.4285 4.5917 4.56205 4.94048C4.61829 5.08831 4.69092 5.12065 4.83854 5.12065C5.64689 5.11372 6.45525 5.11603 7.26594 5.11603H7.46276C7.46276 5.00516 7.45807 4.90583 7.46276 4.80651C7.47448 4.57784 7.61037 4.43001 7.84234 4.42077C8.15396 4.40922 8.46559 4.40922 8.77487 4.42077C9.01152 4.43001 9.14742 4.58477 9.15679 4.82037C9.15913 4.91045 9.15679 5.00285 9.15679 5.10679C9.22005 5.11141 9.26926 5.11603 9.31846 5.11603C10.1596 5.11603 10.9984 5.11603 11.8396 5.11603C11.9403 5.11603 12.0013 5.10217 12.0411 4.98668C12.1606 4.63328 12.5167 4.4277 12.8846 4.47852C13.2946 4.53626 13.5711 4.82037 13.5969 5.20842C13.6203 5.57568 13.3977 5.89444 13.0416 6.003C12.6667 6.11618 12.2824 5.97066 12.0997 5.63112C12.0505 5.53873 11.9966 5.51332 11.8982 5.51332C11.3593 5.51794 10.8204 5.51332 10.2815 5.51332C10.2369 5.51332 10.1948 5.51332 10.1502 5.51332C10.1502 5.52256 10.1479 5.5318 10.1456 5.54104C10.1784 5.56182 10.2112 5.58261 10.244 5.60109C11.2234 6.14852 11.8771 6.95465 12.1887 8.02179C12.2215 8.13497 12.2684 8.17193 12.3808 8.16269C12.4535 8.15576 12.5261 8.16269 12.5987 8.16731C12.8026 8.1881 12.9455 8.32899 12.9502 8.52995C12.9572 8.84178 12.9572 9.1536 12.9502 9.46543C12.9455 9.67562 12.7862 9.82807 12.5683 9.83269C12.2567 9.83962 11.945 9.83962 11.6357 9.83269C11.4296 9.82807 11.2726 9.69641 11.2632 9.49315C11.2468 9.16746 11.2468 8.83947 11.2632 8.51378C11.2726 8.30821 11.4178 8.18579 11.6311 8.165C11.685 8.16038 11.7412 8.15576 11.7974 8.15114C11.5444 7.02163 10.483 5.9083 9.19194 5.62881C9.18257 5.6727 9.17554 5.71427 9.16616 5.75816C9.13102 5.94988 8.99278 6.08154 8.79362 6.08616C8.48199 6.09308 8.17036 6.09308 7.86108 6.08616C7.62443 6.08154 7.50494 5.93833 7.4651 5.64498C6.53022 5.77433 5.20874 6.71443 4.84322 8.15114C4.91117 8.15576 4.97443 8.16038 5.0377 8.16731C5.24857 8.1881 5.3915 8.31514 5.40087 8.5184C5.41258 8.83947 5.41258 9.16284 5.40087 9.48391C5.3915 9.6941 5.23686 9.83038 5.02129 9.835C4.70967 9.84193 4.39804 9.84193 4.08876 9.835C3.8732 9.83038 3.71621 9.67562 3.71387 9.46312C3.70684 9.15591 3.70684 8.84871 3.71387 8.54381C3.71855 8.31745 3.87319 8.17886 4.11687 8.165C4.40741 8.14652 4.40507 8.14652 4.49879 7.87165C4.83619 6.8715 5.47585 6.11849 6.40604 5.60109C6.43884 5.58261 6.47165 5.56182 6.5396 5.52025H6.53022ZM8.75613 4.8273H7.8728V5.68425H8.75613V4.8273ZM12.5308 9.44233V8.57384H11.6521V9.44233H12.5308ZM4.10984 8.56922V9.43309H4.9838V8.56922H4.10984ZM4.23168 5.24769C4.22934 5.03288 4.05127 4.85964 3.83336 4.86195C3.61546 4.86426 3.44442 5.0398 3.44676 5.25693C3.4491 5.47405 3.62483 5.64036 3.84742 5.63574C4.08173 5.63112 4.23637 5.47405 4.23168 5.24538V5.24769ZM12.7862 5.63805C13.0228 5.63805 13.1751 5.49022 13.1751 5.25693C13.1751 5.03519 13.0088 4.86426 12.7885 4.86426C12.573 4.86426 12.3926 5.0398 12.3902 5.25C12.3902 5.46019 12.5683 5.63805 12.7838 5.63805H12.7862Z" fill="#410EAD"/>
<path d="M11.605 1.46682C11.6097 1.15962 11.8604 0.912466 12.1721 0.910156C12.486 0.910156 12.7485 1.16655 12.7461 1.47606C12.7461 1.78789 12.4837 2.04197 12.1674 2.03735C11.8487 2.03504 11.6004 1.78096 11.605 1.46451V1.46682ZM12.3619 1.51764V1.44604C12.2986 1.40215 12.2353 1.32362 12.1721 1.32592C12.1182 1.32592 12.0338 1.41139 12.0174 1.47144C11.9916 1.56846 12.0666 1.64699 12.1674 1.63544C12.2353 1.6262 12.2962 1.55922 12.3619 1.51764Z" fill="#410EAD"/>
<path d="M11.3617 1.48106C11.3593 1.79288 11.0969 2.04465 10.7806 2.03772C10.4737 2.0331 10.2183 1.77902 10.2183 1.47413C10.2183 1.16461 10.4807 0.905909 10.7947 0.908218C11.111 0.908218 11.364 1.16692 11.3617 1.47875V1.48106ZM10.7548 1.66353C10.7783 1.66353 10.8017 1.66353 10.8275 1.66353C10.8696 1.60117 10.9399 1.54111 10.9516 1.47182C10.968 1.37249 10.8813 1.30089 10.7876 1.31937C10.7267 1.33323 10.6424 1.41638 10.6377 1.47182C10.633 1.53187 10.7126 1.59886 10.7548 1.66122V1.66353Z" fill="#410EAD"/>
<path d="M14.1288 1.47642C14.1288 1.78594 13.8664 2.04233 13.5501 2.03771C13.2361 2.0354 12.976 1.77208 12.983 1.46487C12.9901 1.16228 13.2478 0.910513 13.5548 0.908203C13.8687 0.908203 14.1311 1.1669 14.1288 1.47411V1.47642ZM13.5829 1.28932C13.5594 1.28932 13.536 1.28932 13.5149 1.29163C13.4727 1.35631 13.3978 1.4256 13.4025 1.48566C13.4071 1.5411 13.4962 1.61963 13.5571 1.63118C13.6532 1.64966 13.7328 1.56881 13.7164 1.47411C13.7047 1.40713 13.6297 1.34938 13.5829 1.28701V1.28932Z" fill="#410EAD"/>
</svg>
