<svg width="15" height="15" viewBox="0 0 15 15" fill="none" xmlns="http://www.w3.org/2000/svg">
<path d="M9.94189 11.7006C9.96571 12.2954 9.98953 12.888 10.0134 13.4915H11.0247C11.0636 13.2199 11.1113 12.9398 11.1459 12.6596C11.1654 12.5087 11.2304 12.4182 11.382 12.3687C11.5595 12.3105 11.7328 12.2372 11.8995 12.1553C12.0295 12.0928 12.1356 12.1036 12.246 12.1876C12.4734 12.3622 12.7029 12.5303 12.913 12.6898C13.1663 12.4376 13.4111 12.1963 13.6752 11.9355C13.5345 11.748 13.3807 11.5282 13.2118 11.3213C13.0906 11.1726 13.0689 11.0411 13.1663 10.8687C13.2465 10.7265 13.3028 10.567 13.3547 10.4097C13.4024 10.261 13.4912 10.192 13.6449 10.1727C13.9243 10.1403 14.2015 10.0951 14.4873 10.0541V8.99383C14.2101 8.95288 13.9286 8.90547 13.6471 8.87315C13.4933 8.85591 13.4046 8.78479 13.3547 8.63824C13.2963 8.46153 13.2227 8.28912 13.1404 8.12318C13.0776 7.99388 13.0884 7.88828 13.175 7.77837C13.3504 7.55209 13.5193 7.32365 13.6796 7.11246C13.4262 6.86031 13.1815 6.61464 12.9216 6.35603C12.7289 6.49826 12.508 6.65343 12.3001 6.82152C12.1507 6.94221 12.0186 6.9616 11.8454 6.86462C11.6981 6.78058 11.5314 6.7267 11.369 6.67282C11.2304 6.62757 11.1676 6.54352 11.1481 6.40344C11.1113 6.12113 11.068 5.84097 11.0268 5.55219H9.96138C9.91807 5.84528 9.8726 6.14052 9.82712 6.45301C9.66254 6.43146 9.50662 6.4099 9.33338 6.3862C9.39185 5.99182 9.44166 5.60822 9.50879 5.22677C9.53044 5.10178 9.63872 5.0479 9.76865 5.0479C10.0025 5.0479 10.2364 5.0479 10.4789 5.0479C10.4833 5.00911 10.4919 4.97463 10.4919 4.94015C10.4919 4.4531 10.4963 3.96606 10.4876 3.47901C10.4876 3.41005 10.4356 3.326 10.3815 3.27644C9.37453 2.33467 9.58891 0.686047 10.8016 0.0610774C11.068 -0.0768469 11.2412 0.0265965 11.2412 0.321841C11.2412 0.720528 11.2434 1.11922 11.2412 1.5179C11.2412 1.60411 11.2715 1.63643 11.3516 1.67307C11.6137 1.79375 11.8649 1.79806 12.1291 1.67738C12.2135 1.63859 12.2482 1.60626 12.246 1.51144C12.2417 1.11275 12.2438 0.714063 12.246 0.315375C12.246 0.0309065 12.4236 -0.0746918 12.6791 0.0546122C13.894 0.670961 14.117 2.32174 13.11 3.26351C13.0256 3.34324 12.9931 3.41867 12.9953 3.53074C12.9996 4.26561 12.9974 5.00265 12.9974 5.72459C13.0862 5.79787 13.1707 5.85605 13.2421 5.92717C13.5496 6.22888 13.855 6.5349 14.1603 6.83876C14.3206 6.99824 14.3249 7.08875 14.1885 7.27193C14.0326 7.47882 13.881 7.69001 13.7186 7.89259C13.6579 7.96802 13.6687 8.02836 13.6904 8.11672C13.751 8.35593 13.8961 8.43782 14.1343 8.44644C14.3401 8.45291 14.5458 8.50032 14.7515 8.53264C14.9204 8.55851 14.9962 8.64255 14.9984 8.81496C15.0005 9.29123 15.0005 9.7675 14.9984 10.2459C14.9984 10.4162 14.9204 10.4981 14.7472 10.5239C14.4743 10.5649 14.2015 10.6101 13.9286 10.6403C13.8355 10.6511 13.8073 10.6963 13.7619 10.7696C13.6363 10.9786 13.6709 11.1424 13.8355 11.3148C13.9741 11.4614 14.0845 11.6338 14.2036 11.7976C14.3206 11.9549 14.3162 12.0583 14.1798 12.1963C13.8507 12.5281 13.5193 12.8579 13.1858 13.1854C13.0451 13.3234 12.9433 13.3298 12.7852 13.2156C12.5665 13.0561 12.3499 12.8945 12.1377 12.7286C12.0684 12.6747 12.0121 12.6768 11.9277 12.6984C11.6873 12.7609 11.592 12.9031 11.5877 13.1488C11.5834 13.3384 11.5357 13.5281 11.5076 13.7177C11.4729 13.9462 11.4036 14.0044 11.1654 14.0044C10.7864 14.0044 10.4053 14.0044 10.0004 14.0044C10.0004 14.2242 10.0004 14.4397 10.0004 14.6552C10.0004 14.9203 9.9224 15 9.65821 15C6.55502 15 3.44967 15 0.346483 15C0.0779587 15 0 14.9224 0 14.6595C0 13.944 0 13.2285 0 12.5152C0 11.3041 0.64749 10.3537 1.77789 9.8968C2.39939 9.64681 3.02306 9.40114 3.64457 9.14899C3.68788 9.13175 3.74418 9.07572 3.74418 9.04124C3.73985 8.92487 3.75068 8.74384 3.68571 8.70505C2.94294 8.26973 2.48385 7.63829 2.29328 6.79135C2.12004 6.79135 1.95113 6.79135 1.78006 6.79135C1.32313 6.78704 1.0048 6.4724 1.00047 6.01984C1.00047 5.78062 0.996138 5.54357 1.00047 5.30436C1.0048 5.01773 1.1304 4.78929 1.38593 4.65784C1.49637 4.6018 1.5007 4.53284 1.49854 4.43586C1.47905 3.52858 1.73891 2.71181 2.34959 2.03512C3.31541 0.96405 4.53026 0.576138 5.92269 0.957585C7.30862 1.33688 8.14451 2.28295 8.43469 3.68805C8.48666 3.94451 8.48233 4.21174 8.49533 4.47681C8.49966 4.55439 8.50832 4.60396 8.59061 4.64706C8.85913 4.78498 8.99123 5.01558 8.99556 5.31513C8.99989 5.55865 8.99989 5.80218 8.99556 6.0457C8.98906 6.33879 8.8548 6.56291 8.59494 6.70084C8.51698 6.74178 8.49316 6.78489 8.49533 6.86678C8.50182 7.01117 8.49966 7.15771 8.49533 7.3021C8.4845 7.71156 8.16833 8.02836 7.75688 8.03698C7.55982 8.04129 7.34327 7.98957 7.16786 8.05206C6.99679 8.11456 6.87119 8.29559 6.72177 8.42058C6.62865 8.49601 6.52904 8.56282 6.42942 8.62747C6.25618 8.73738 6.19555 8.87315 6.24968 9.07141C6.25618 9.09512 6.28217 9.12313 6.30382 9.13391C6.95348 9.39467 7.6053 9.65328 8.27444 9.92051C8.164 9.0434 8.41087 8.31283 9.08435 7.75467C9.58458 7.33874 10.1714 7.18788 10.8211 7.26116C12.0598 7.39908 12.9585 8.57575 12.7722 9.84724C12.586 11.1252 11.3148 12.054 9.94406 11.7049L9.94189 11.7006ZM9.49146 14.4936C9.49146 13.7867 9.50879 13.0928 9.48713 12.401C9.46115 11.5476 9.07135 10.873 8.30259 10.4938C7.62479 10.1597 6.90584 9.90973 6.19771 9.62095C5.98333 10.1834 5.59786 10.5153 4.99802 10.5175C4.39167 10.5196 4.00188 10.1877 3.78749 9.62742C3.14866 9.88172 2.50984 10.1188 1.88617 10.3903C0.974483 10.7847 0.511062 11.4959 0.491573 12.4829C0.480745 13.11 0.489407 13.7371 0.491573 14.3643C0.491573 14.4095 0.498069 14.4526 0.500235 14.4957H1.99228V11.7782H2.49468V14.4936H7.49486V11.7782H7.99726V14.4957H9.49146V14.4936ZM2.74371 5.29573C2.74371 5.65132 2.73938 5.9832 2.74371 6.31508C2.76104 7.76329 4.12315 8.80849 5.53723 8.46153C5.83824 8.3861 6.11759 8.26111 6.39477 8.02836H5.00018V7.53485H5.15826C5.64767 7.53485 6.13708 7.52192 6.62648 7.54131C6.82138 7.54778 6.91017 7.47451 6.99462 7.31719C7.33894 6.67498 7.21984 5.98536 7.24366 5.3022C6.95348 5.28065 6.68495 5.22031 6.48356 5.03066C6.2865 4.84533 6.11759 4.62982 5.93135 4.42293C5.7841 4.53931 5.63251 4.64921 5.49392 4.77421C5.06081 5.16428 4.55625 5.32806 3.97589 5.3022C3.57094 5.2828 3.16599 5.29789 2.74588 5.29789L2.74371 5.29573ZM10.4963 11.2954C11.5725 11.2674 12.3868 10.3386 12.2482 9.27399C12.1291 8.35377 11.252 7.65553 10.349 7.76544C9.34421 7.88828 8.64042 8.73307 8.75086 9.69207C8.78551 9.99378 8.85913 10.2761 9.13415 10.4722C9.26625 10.567 9.37236 10.7071 9.46115 10.8429C9.55859 10.9916 9.68853 11.0864 9.84877 11.1338C10.061 11.1963 10.2797 11.2416 10.4941 11.2933L10.4963 11.2954ZM7.2285 4.79576C7.35626 3.97683 6.89934 3.06955 6.14141 2.62345C5.35099 2.15796 4.36785 2.21614 3.63374 2.76784C2.97975 3.25704 2.65276 4.09967 2.7697 4.79791C3.22662 4.79791 3.68355 4.7936 4.14264 4.79791C4.48479 4.80222 4.78579 4.70094 5.04999 4.48327C5.29902 4.27854 5.55239 4.08028 5.80575 3.88201C5.966 3.75702 6.09593 3.77426 6.21937 3.93373C6.36229 4.11907 6.50088 4.30656 6.64381 4.49189C6.79106 4.6837 6.98596 4.78498 7.23066 4.7936L7.2285 4.79576ZM10.7453 0.711908C10.048 1.31748 10.0935 2.41441 10.8211 2.98335C10.951 3.08464 11.0008 3.19454 10.9987 3.35402C10.9922 3.86262 10.9965 4.36906 10.9965 4.87765C10.9965 4.93153 10.9965 4.98756 10.9965 5.01127C11.1827 5.05652 11.3408 5.09531 11.5054 5.13626V3.31738H11.9991V6.41853C12.1334 6.31939 12.2373 6.2375 12.3478 6.16638C12.4582 6.09526 12.5015 6.01337 12.4994 5.87545C12.4907 5.03713 12.4994 4.19665 12.4929 3.35833C12.4929 3.19886 12.5383 3.08895 12.6683 2.98766C13.0732 2.66655 13.2703 2.23985 13.2421 1.72263C13.2205 1.33257 13.0624 1.00069 12.7462 0.705442C12.7462 1.08473 12.7441 1.42523 12.7462 1.76358C12.7462 1.91228 12.6899 2.0071 12.5492 2.06098C12.0583 2.24632 11.5631 2.25853 11.0636 2.09762C11.0398 2.089 11.0138 2.08253 10.99 2.07391C10.7864 2.00495 10.7475 1.94892 10.7475 1.73341C10.7475 1.40368 10.7475 1.07396 10.7475 0.714063L10.7453 0.711908ZM7.99726 4.54362C8.01891 3.28075 7.54033 2.29373 6.42942 1.69246C5.32934 1.09551 4.22492 1.1774 3.21146 1.91012C2.32577 2.55018 1.9533 3.45531 1.99661 4.53931H2.23698C2.28029 3.00059 3.44317 1.91659 4.80095 1.82177C5.47443 1.77436 6.0916 1.95107 6.63298 2.35622C7.36059 2.90146 7.71574 3.64495 7.75039 4.54362H7.99726ZM4.24658 8.92271C4.24658 9.08003 4.23792 9.2158 4.24658 9.34726C4.27473 9.69854 4.56491 9.98301 4.91573 10.0196C5.2752 10.0563 5.62385 9.82784 5.70614 9.47872C5.74728 9.30631 5.73862 9.12098 5.75378 8.92056C5.23839 9.05848 4.75115 9.06279 4.24225 8.92271H4.24658ZM2.23265 6.29138V5.0479C2.06157 5.0479 1.90132 5.04359 1.74324 5.0479C1.59382 5.05437 1.49854 5.14704 1.49637 5.29358C1.48988 5.54141 1.48988 5.78925 1.49637 6.03708C1.5007 6.19009 1.59815 6.28276 1.75623 6.28707C1.91215 6.29138 2.0659 6.28707 2.23481 6.28707L2.23265 6.29138ZM7.74606 6.2806C7.93662 6.2806 8.12719 6.29569 8.31342 6.27414C8.43036 6.2612 8.491 6.15561 8.49316 6.03492C8.49316 5.7914 8.49316 5.55003 8.49316 5.30651C8.49316 5.17721 8.42603 5.07376 8.30043 5.06083C8.11853 5.04144 7.93229 5.05652 7.74606 5.05652V6.2806ZM7.46237 7.53485C7.56848 7.53485 7.6616 7.54131 7.75472 7.53485C7.89115 7.52407 7.97993 7.44434 7.98859 7.30857C7.99942 7.14047 7.99076 6.97022 7.99076 6.79782H7.71141C7.62912 7.04349 7.54899 7.28055 7.46237 7.53485Z" fill="#410EAD"/>
<path d="M12.4582 7.22641C12.5643 7.11866 12.6726 7.00875 12.7874 6.89453C12.9 7.01306 13.0083 7.12728 13.123 7.24796C13.0169 7.3471 12.9022 7.45485 12.7787 7.56907C12.6791 7.46347 12.5708 7.3471 12.4561 7.22641H12.4582Z" fill="black"/>
<path d="M12.4561 11.8061C12.5665 11.6941 12.6748 11.582 12.7874 11.4678C12.9 11.5863 13.0104 11.7005 13.1252 11.8212C13.0191 11.9225 12.9043 12.0324 12.783 12.1466C12.6791 12.0389 12.5687 11.9246 12.4561 11.8061Z" fill="black"/>
<path d="M10.2495 6.53018V6.05176H10.7324V6.53018H10.2495Z" fill="black"/>
<path d="M13.4998 9.76553V9.28711H13.9827V9.76553H13.4998Z" fill="black"/>
<path d="M10.2537 12.5176H10.7344V12.996H10.2537V12.5176Z" fill="black"/>
<path d="M3.98678 5.7998V6.28038H3.50171V5.7998H3.98678Z" fill="black"/>
<path d="M6.00049 6.28311V5.80469H6.4834V6.28311H6.00049Z" fill="black"/>
</svg>
