<svg width="15" height="15" viewBox="0 0 15 15" fill="none" xmlns="http://www.w3.org/2000/svg">
<path d="M0.00333643 10.1071C0.0517148 9.85005 0.0817427 9.58627 0.151808 9.33585C0.230214 9.06039 0.33698 8.79161 0.448751 8.52783C0.547175 8.29578 0.710661 8.22232 0.880819 8.30079C1.05098 8.38092 1.08101 8.54954 0.975907 8.77825C0.425396 9.97859 0.425396 11.1789 1.05765 12.3375C1.80001 13.6998 2.98111 14.406 4.53088 14.401C6.08733 14.3943 7.2434 13.6631 7.99744 12.2991C8.01579 12.2658 8.03247 12.229 8.04748 12.194C8.05082 12.1856 8.04748 12.1756 8.04581 12.1639C8.00244 12.1639 7.96074 12.1639 7.91736 12.1639C7.77556 12.1639 7.68715 12.0871 7.64711 11.9586C7.60874 11.83 7.63377 11.7015 7.75888 11.6397C8.01078 11.5145 8.26936 11.3976 8.53293 11.2991C8.66639 11.2491 8.7865 11.3192 8.84823 11.446C8.95833 11.6748 9.06176 11.9051 9.15685 12.1405C9.21357 12.2808 9.15685 12.426 9.0384 12.4995C8.90495 12.5813 8.77149 12.5479 8.61801 12.391C8.598 12.4244 8.57798 12.4544 8.56129 12.4861C7.8473 13.8868 6.70123 14.6915 5.15813 14.9452C5.04803 14.9636 4.93959 14.982 4.82949 15.0003H4.15553C4.01206 14.9786 3.86693 14.9653 3.7268 14.9352C1.87341 14.5479 0.678965 13.4444 0.15014 11.6264C0.076738 11.3709 0.0483783 11.1038 0 10.8417C0 10.598 0 10.3542 0 10.1088L0.00333643 10.1071Z" fill="#410EAD"/>
<path d="M6.93822 2.84297C6.98493 2.83963 7.01663 2.83629 7.04999 2.83462C7.20513 2.82795 7.31857 2.90474 7.35861 3.04665C7.39698 3.18521 7.34026 3.32044 7.20013 3.38722C6.97992 3.49239 6.75805 3.59089 6.53284 3.68438C6.36102 3.7545 6.21421 3.69106 6.13414 3.5191C6.03905 3.31543 5.95063 3.11008 5.86222 2.90474C5.78882 2.73279 5.82552 2.58754 5.95731 2.50407C6.08242 2.42394 6.22255 2.45065 6.34934 2.57753C6.35935 2.58754 6.36936 2.59422 6.38103 2.60257C6.50448 2.39389 6.61625 2.18354 6.74804 1.98654C8.25444 -0.267231 11.4674 -0.674579 13.4876 1.13178C15.266 2.7211 15.5162 5.45567 14.0248 7.32046C13.0306 8.56421 11.7077 9.11179 10.1228 8.99994C9.02015 8.92314 8.08095 8.4824 7.28854 7.70277C6.06074 6.49575 4.3408 6.21862 2.79103 6.95318C2.5825 7.05168 2.41902 7.01495 2.33727 6.84967C2.25553 6.6844 2.32726 6.52914 2.53079 6.4273C4.22736 5.58255 6.29262 5.9081 7.67223 7.26036C8.25444 7.83132 8.92673 8.21195 9.72581 8.3622C12.053 8.79793 14.0815 7.22697 14.3718 5.05834C14.6521 2.95816 13.3225 1.08503 11.2522 0.660988C9.54231 0.310402 7.78401 1.15682 6.99494 2.71442C6.97492 2.75282 6.95991 2.79289 6.93822 2.84297Z" fill="#410EAD"/>
<path d="M8.47446 6.65913C8.39439 6.59569 8.28929 6.55062 8.23924 6.47048C8.03906 6.14828 7.85222 5.81605 7.66705 5.48383C7.57529 5.32023 7.60866 5.19001 7.75546 5.07315C7.7638 5.06647 7.77048 5.05979 7.77882 5.05645C8.09077 4.91121 8.21089 4.66747 8.14582 4.33191C8.13582 4.28182 8.11246 4.22172 8.07576 4.19C7.97233 4.10152 7.85555 4.02806 7.74879 3.94459C7.60866 3.83441 7.57696 3.70085 7.66538 3.54392C7.85222 3.2117 8.0424 2.88282 8.23424 2.5556C8.32432 2.40201 8.45611 2.36194 8.62293 2.42204C8.64128 2.42872 8.6613 2.43373 8.67632 2.44375C8.96325 2.66245 9.23017 2.58899 9.48707 2.38866C9.52044 2.36194 9.55046 2.31687 9.5588 2.2768C9.58049 2.14658 9.59217 2.01637 9.60552 1.88448C9.6272 1.68414 9.7323 1.58398 9.92915 1.58231C10.2995 1.58064 10.6698 1.58064 11.0419 1.58231C11.237 1.58231 11.3405 1.6758 11.3655 1.86611C11.3672 1.88114 11.3705 1.89617 11.3688 1.90952C11.3271 2.26345 11.5206 2.46211 11.8226 2.58231C11.866 2.59901 11.926 2.59901 11.9677 2.58231C12.0962 2.53557 12.2179 2.4738 12.3447 2.42371C12.5116 2.35694 12.645 2.397 12.7351 2.54892C12.9286 2.87614 13.1188 3.20502 13.3056 3.53724C13.3957 3.69751 13.3623 3.83441 13.2172 3.9496C13.2055 3.95795 13.1939 3.96963 13.1822 3.97464C12.8669 4.11488 12.7651 4.36363 12.8268 4.69084C12.8369 4.74092 12.8619 4.79935 12.8986 4.83274C13.002 4.92122 13.1188 4.99468 13.2255 5.07982C13.364 5.19001 13.3957 5.3269 13.309 5.48049C13.1221 5.81105 12.9319 6.1416 12.7384 6.46881C12.6483 6.6224 12.5166 6.66247 12.3497 6.6007C12.3364 6.59569 12.3214 6.59235 12.3097 6.58401C12.0278 6.38367 11.7575 6.40704 11.4989 6.62574C11.4639 6.65579 11.4255 6.70087 11.4189 6.74427C11.3938 6.88284 11.3838 7.02474 11.3655 7.16498C11.3421 7.33693 11.237 7.4371 11.0619 7.43877C10.6815 7.44211 10.3012 7.44211 9.92081 7.43877C9.74064 7.43877 9.63221 7.33359 9.61052 7.15496C9.60885 7.13493 9.60718 7.11656 9.60552 7.09653C9.55714 6.63409 9.55881 6.63242 9.14008 6.43042C9.10171 6.41205 9.03832 6.42541 8.99328 6.44377C8.83146 6.50721 8.67131 6.57733 8.47947 6.65746L8.47446 6.65913ZM8.2943 5.4037C8.40607 5.59736 8.51116 5.77766 8.61793 5.96297C8.75139 5.90454 8.87317 5.85278 8.99328 5.80103C9.11506 5.74761 9.22349 5.76597 9.33693 5.83943C9.52377 5.95963 9.71729 6.07148 9.9158 6.17499C10.0242 6.23175 10.0976 6.30354 10.1127 6.42541C10.131 6.56564 10.1477 6.70421 10.166 6.84945H10.8083C10.825 6.71756 10.8467 6.58901 10.8567 6.4588C10.8684 6.31021 10.9501 6.22841 11.0802 6.1633C11.2671 6.07148 11.4489 5.96631 11.6207 5.84944C11.7425 5.76764 11.8559 5.74427 11.9894 5.8027C12.1078 5.85612 12.228 5.90621 12.3564 5.9613C12.4665 5.77098 12.5699 5.59068 12.6784 5.4037C12.5666 5.32023 12.4615 5.24176 12.3547 5.16497C12.2396 5.08316 12.2046 4.97465 12.2113 4.83608C12.2213 4.61905 12.2213 4.40035 12.2113 4.18165C12.2046 4.04142 12.2446 3.93457 12.3597 3.85444C12.4665 3.77931 12.5699 3.69918 12.68 3.61905C12.5699 3.42873 12.4665 3.24843 12.3581 3.06145C12.2213 3.11988 12.0962 3.1733 11.9727 3.22672C11.8543 3.27848 11.7508 3.25677 11.6424 3.18833C11.4539 3.06979 11.2621 2.9546 11.0652 2.85276C10.9451 2.79099 10.8734 2.71086 10.86 2.57563C10.8467 2.44208 10.8267 2.30852 10.81 2.1783H10.166C10.151 2.31186 10.1343 2.43707 10.1227 2.56395C10.1093 2.71754 10.0226 2.80268 9.88578 2.86779C9.70728 2.95293 9.53211 3.05143 9.3703 3.16495C9.23517 3.26011 9.11005 3.28182 8.96325 3.2117C8.85482 3.15995 8.74305 3.11487 8.62127 3.06312C8.51116 3.25344 8.40773 3.43207 8.2993 3.61905C8.41274 3.70419 8.51617 3.78432 8.62293 3.85945C8.73304 3.93791 8.77141 4.03975 8.76473 4.17498C8.75472 4.39701 8.75472 4.62072 8.76473 4.84443C8.77141 4.98466 8.73137 5.09151 8.61626 5.17164C8.51283 5.24343 8.41274 5.32189 8.29763 5.40704L8.2943 5.4037Z" fill="#410EAD"/>
<path d="M4.52079 13.4153C4.33561 13.4153 4.15044 13.417 3.96527 13.4153C3.76675 13.412 3.65665 13.3135 3.63496 13.1182C3.63496 13.1082 3.63496 13.0981 3.63329 13.0898C3.60327 12.777 3.44868 12.5494 3.16953 12.407C3.1345 12.3886 3.07611 12.397 3.03607 12.412C2.91763 12.4571 2.80419 12.5138 2.68742 12.5622C2.49223 12.644 2.35878 12.604 2.25368 12.4237C2.06851 12.1081 1.885 11.7909 1.70483 11.4738C1.60307 11.2934 1.63143 11.1649 1.79492 11.0397C1.89501 10.9629 2.00511 10.8961 2.09853 10.811C2.14024 10.7726 2.16193 10.7041 2.1736 10.6457C2.18528 10.5856 2.16026 10.5172 2.1736 10.4571C2.21698 10.2634 2.11855 10.1616 1.97175 10.0581C1.56304 9.7709 1.56304 9.74419 1.81494 9.30679C1.9584 9.05804 2.10187 8.80763 2.24701 8.55888C2.35878 8.36856 2.48556 8.32682 2.68908 8.41196C2.69742 8.4153 2.70743 8.42031 2.71577 8.42365C2.99826 8.54608 3.26796 8.52437 3.52486 8.35854C3.55823 8.33684 3.58325 8.28341 3.58992 8.24168C3.60994 8.11146 3.61995 7.97957 3.63496 7.84936C3.65665 7.65904 3.76342 7.55887 3.95359 7.55887C4.32894 7.5572 4.70429 7.5572 5.08131 7.55887C5.26815 7.55887 5.36824 7.65236 5.39327 7.83767C5.39327 7.84769 5.3966 7.8577 5.3966 7.86605C5.37158 8.20495 5.51171 8.43701 5.83701 8.54719C5.88539 8.56388 5.94878 8.5739 5.99549 8.55888C6.12394 8.5138 6.24572 8.45203 6.37251 8.40028C6.546 8.33183 6.67612 8.3719 6.77121 8.53383C6.96139 8.85771 7.1499 9.18158 7.3334 9.5088C7.42515 9.67074 7.39346 9.80763 7.24999 9.92282C7.23831 9.93117 7.2283 9.94286 7.21496 9.94787C6.90467 10.0898 6.79123 10.3335 6.85629 10.6624C6.8663 10.7141 6.88966 10.7726 6.92636 10.806C7.02645 10.8911 7.13822 10.9629 7.24165 11.043C7.39513 11.1616 7.42682 11.2968 7.33173 11.4654C7.14656 11.7926 6.95972 12.1182 6.76788 12.4404C6.67279 12.6006 6.54267 12.6374 6.3675 12.5706C6.35916 12.5672 6.34749 12.5656 6.34081 12.5606C6.05388 12.3502 5.78029 12.3936 5.51838 12.6073C5.48502 12.634 5.45499 12.6774 5.44832 12.7175C5.42496 12.8561 5.41328 12.998 5.39493 13.1382C5.36991 13.3185 5.26481 13.4137 5.07964 13.417C4.89447 13.4203 4.7093 13.417 4.52412 13.417L4.52079 13.4153ZM6.38419 9.03133C6.24739 9.09143 6.13062 9.13985 6.01551 9.1916C5.88706 9.24836 5.77696 9.22833 5.65851 9.14986C5.47668 9.02966 5.2865 8.92115 5.09299 8.82265C4.97454 8.76088 4.89947 8.68242 4.88613 8.54552C4.87278 8.41196 4.85276 8.27841 4.83608 8.14819H4.19215C4.1788 8.26839 4.16379 8.37857 4.15545 8.49043C4.14377 8.66405 4.06036 8.7709 3.89687 8.84268C3.72004 8.92115 3.55322 9.02299 3.39474 9.13484C3.26462 9.22499 3.14451 9.25337 3.00104 9.18492C2.8876 9.1315 2.77249 9.08475 2.64905 9.03133C2.53728 9.22332 2.43385 9.40362 2.32708 9.58893C2.44386 9.67741 2.54895 9.75755 2.65572 9.83434C2.76082 9.90947 2.79752 10.008 2.79251 10.1365C2.78417 10.3652 2.7825 10.5923 2.79251 10.821C2.79752 10.9562 2.76082 11.0581 2.65071 11.1365C2.54395 11.2133 2.44052 11.2918 2.32708 11.3769C2.43551 11.5656 2.53894 11.7442 2.64905 11.9345C2.77416 11.8794 2.88927 11.831 3.00438 11.7793C3.14117 11.7175 3.25961 11.7359 3.3864 11.8227C3.55322 11.9379 3.73172 12.0414 3.91522 12.1282C4.05869 12.1966 4.14043 12.2901 4.15378 12.447C4.16546 12.5723 4.18047 12.6958 4.19548 12.8193H4.83942C4.8561 12.6858 4.87779 12.5606 4.88613 12.4354C4.89614 12.2784 4.98455 12.1966 5.11968 12.1298C5.30151 12.0397 5.48001 11.9395 5.6485 11.8243C5.77529 11.7375 5.89373 11.7158 6.03052 11.7793C6.14396 11.831 6.26074 11.8794 6.38752 11.9345C6.49763 11.7459 6.60105 11.5639 6.71116 11.3753C6.60105 11.2951 6.49763 11.215 6.39086 11.1399C6.26908 11.0547 6.23571 10.9429 6.24406 10.7976C6.25573 10.5889 6.2574 10.3803 6.24406 10.1716C6.23405 10.0197 6.27408 9.90613 6.3992 9.81932C6.50263 9.74753 6.60272 9.67074 6.71116 9.5906C6.60272 9.40362 6.49929 9.22332 6.38752 9.03133H6.38419Z" fill="#410EAD"/>
<path d="M1.81998 7.50099C1.81998 7.65959 1.69152 7.78981 1.53471 7.79148C1.37456 7.79315 1.23443 7.65458 1.2361 7.49598C1.23777 7.33572 1.3779 7.20216 1.53971 7.20717C1.6982 7.21218 1.81998 7.34072 1.81998 7.50099Z" fill="#410EAD"/>
<path d="M11.5091 4.52532C11.5091 5.07624 11.0453 5.53367 10.4898 5.53534C9.9293 5.53534 9.45719 5.07123 9.4622 4.51697C9.46553 3.93266 9.91095 3.48691 10.4915 3.49025C11.072 3.49192 11.5124 3.93767 11.5108 4.52532H11.5091ZM10.9236 4.51196C10.9252 4.27323 10.7317 4.07456 10.4915 4.07122C10.2529 4.06789 10.0511 4.26488 10.0461 4.50028C10.0411 4.74736 10.2396 4.94769 10.4865 4.94602C10.7317 4.94602 10.9202 4.7557 10.9219 4.51196H10.9236Z" fill="#410EAD"/>
<path d="M4.52596 9.46096C5.08314 9.46429 5.54023 9.9234 5.53857 10.476C5.53857 11.062 5.09315 11.506 4.51261 11.5044C3.93374 11.5027 3.48833 11.0519 3.48999 10.471C3.48999 9.91505 3.96043 9.45762 4.52596 9.46096ZM4.95302 10.481C4.94969 10.2339 4.76285 10.0486 4.51762 10.0486C4.26738 10.0486 4.0722 10.2473 4.07721 10.4943C4.08221 10.7281 4.28907 10.9284 4.52429 10.9251C4.76285 10.9217 4.95636 10.7214 4.95469 10.4827L4.95302 10.481Z" fill="#410EAD"/>
</svg>
