<svg width="17" height="15" viewBox="0 0 17 15" fill="none" xmlns="http://www.w3.org/2000/svg">
<path d="M16.9931 12.1942C16.9747 12.2369 16.954 12.2817 16.9402 12.3244C16.7376 12.9302 16.1047 13.2443 15.4834 13.0446C15.4373 13.0289 15.389 13.0132 15.343 12.9953C15.2118 12.9436 15.0921 12.9593 14.9932 13.0603C14.9011 13.1568 14.8827 13.2667 14.9379 13.3879C15.0576 13.6482 15.0875 13.9152 15.007 14.1912C14.8712 14.6489 14.4776 14.9563 13.9759 14.9967C13.5364 15.0326 13.083 14.7745 12.8851 14.3684C12.8114 14.2159 12.7585 14.0476 12.5422 14.0453C12.3258 14.0453 12.2729 14.2136 12.1969 14.3662C11.9323 14.9002 11.2994 15.1358 10.7378 14.9159C10.1832 14.6983 9.90473 14.1104 10.0842 13.545C10.1026 13.4889 10.128 13.435 10.1464 13.3789C10.1878 13.2578 10.1763 13.1433 10.075 13.0513C9.97607 12.9594 9.861 12.9436 9.73903 12.9953C9.50428 13.0962 9.26033 13.1388 9.01178 13.085C8.56991 12.9908 8.26612 12.7327 8.13954 12.3109C8.01296 11.8891 8.11653 11.5121 8.43642 11.1958C8.45944 11.1733 8.48475 11.1509 8.50777 11.1284C8.51007 11.1262 8.51237 11.1195 8.52388 11.0903H8.32596C6.14651 11.0903 3.96707 11.0903 1.78763 11.0903C0.9338 11.0903 0.252581 10.5877 0.0546586 9.80688C0.0178359 9.65655 0.00172606 9.49724 0.00172606 9.34242C-0.000575354 6.74191 -0.000575354 4.14365 0.00172606 1.54314C0.00172606 0.643396 0.655329 0.00168281 1.5782 0.00168281C5.16381 -0.000560938 8.74712 -0.000560938 12.3327 0.00168281C13.2533 0.00168281 13.9046 0.647883 13.9069 1.54987C13.9092 3.0644 13.9069 4.58118 13.9069 6.09571C13.9069 6.16078 13.9069 6.22361 13.9069 6.29765C13.9667 6.30887 14.0197 6.32009 14.0726 6.32682C14.7837 6.42779 15.2233 7.11886 14.9978 7.78301C14.9863 7.81891 14.9725 7.85481 14.9563 7.88847C14.8896 8.0231 14.8919 8.15099 15.007 8.26093C15.122 8.37312 15.2509 8.35517 15.3913 8.30357C16.107 8.03656 16.7584 8.35517 16.9701 9.07541C16.977 9.1001 16.9885 9.12478 17 9.14946V9.50622C16.878 9.93253 16.6226 10.2377 16.1876 10.3947C16.0679 10.4374 16.0196 10.5451 16.0242 10.6707C16.0288 10.7986 16.1047 10.8727 16.2129 10.9332C16.374 11.023 16.5604 11.1015 16.6755 11.2339C16.8159 11.3977 16.8941 11.6109 16.9977 11.8038V12.192L16.9931 12.1942ZM13.4052 2.87593H0.49423C0.49423 2.93202 0.49423 2.97465 0.49423 3.01729C0.49423 5.1309 0.49423 7.24451 0.49423 9.35813C0.49423 10.0918 1.02586 10.6034 1.78533 10.6057C4.15348 10.6057 6.51934 10.6057 8.8875 10.6057C8.93813 10.6057 8.99107 10.5989 9.0417 10.5967L9.06701 10.5428C8.97956 10.48 8.89901 10.4015 8.80235 10.3588C8.19938 10.0941 7.92781 9.47256 8.16946 8.89816C8.41111 8.32825 9.06011 8.06797 9.67229 8.29908C9.81497 8.35293 9.95076 8.37985 10.0727 8.26542C10.2016 8.14426 10.1763 8.00515 10.1142 7.86379C10.0083 7.61698 9.99218 7.36343 10.0727 7.1054C10.2177 6.64992 10.6228 6.34477 11.1199 6.31784C11.5871 6.29092 12.022 6.56466 12.2269 7.02238C12.289 7.1615 12.3695 7.2692 12.5375 7.2692C12.7056 7.2692 12.7907 7.16374 12.8482 7.02238C12.9357 6.80474 13.0761 6.62299 13.2809 6.50632C13.3845 6.44798 13.4052 6.37843 13.4052 6.27297C13.4006 5.40912 13.4052 4.54752 13.4052 3.68368C13.4052 3.42116 13.4052 3.1564 13.4052 2.87593ZM15.2141 8.8488C14.8436 8.83309 14.526 8.58628 14.4339 8.24074C14.3787 8.03432 14.4339 7.84808 14.5076 7.65961C14.5996 7.42177 14.5628 7.19964 14.3879 7.01116C14.213 6.82269 13.9897 6.76211 13.7389 6.82493C13.4995 6.88551 13.3684 7.05828 13.2763 7.27368C13.1405 7.58781 12.8828 7.75385 12.5352 7.7516C12.1969 7.7516 11.9484 7.58556 11.8034 7.28266C11.7781 7.22881 11.7551 7.17271 11.7252 7.12111C11.5986 6.90122 11.3454 6.77557 11.0992 6.80474C10.823 6.83839 10.6182 7.01341 10.5445 7.2692C10.4939 7.44196 10.5445 7.59678 10.6067 7.75609C10.7862 8.21381 10.5353 8.68949 10.0566 8.81065C9.8541 8.86226 9.66538 8.81514 9.47436 8.74334C9.12915 8.61096 8.76783 8.75905 8.63204 9.07766C8.49396 9.39852 8.64125 9.74405 8.97956 9.89887C9.02559 9.91907 9.07162 9.93702 9.11534 9.95945C9.40072 10.1053 9.55261 10.3342 9.55491 10.6483C9.55721 10.9669 9.40762 11.2047 9.11534 11.3528C9.0509 11.3842 8.98416 11.4089 8.92202 11.4426C8.65736 11.5839 8.52618 11.8779 8.60443 12.1583C8.68268 12.4343 8.93583 12.6273 9.23271 12.6138C9.35009 12.6093 9.46746 12.5645 9.58253 12.5286C9.90013 12.4276 10.1878 12.4769 10.4248 12.7058C10.6642 12.9347 10.7194 13.2151 10.6182 13.5248C10.5952 13.5921 10.5675 13.6549 10.5468 13.7222C10.4617 14.0229 10.6136 14.328 10.9081 14.4559C11.1958 14.5816 11.541 14.4806 11.709 14.2181C11.7505 14.1553 11.7781 14.0835 11.8103 14.0162C11.9553 13.72 12.2015 13.5607 12.5329 13.5607C12.8713 13.5607 13.1221 13.72 13.2694 14.0229C13.297 14.0812 13.32 14.1418 13.3523 14.1979C13.488 14.429 13.7619 14.5502 14.0312 14.4963C14.305 14.4425 14.5168 14.2405 14.5375 13.969C14.5467 13.8367 14.5122 13.6931 14.4661 13.5629C14.3419 13.2039 14.4293 12.8539 14.7285 12.6362C14.9863 12.4478 15.2647 12.4388 15.5593 12.5532C15.9413 12.7013 16.305 12.5622 16.4431 12.2256C16.5788 11.8958 16.42 11.5548 16.0564 11.3955C15.9759 11.3596 15.893 11.3237 15.824 11.272C15.3338 10.9063 15.4442 10.1793 16.0242 9.92804C16.42 9.75527 16.5834 9.42544 16.4431 9.08663C16.3004 8.7411 15.9413 8.61769 15.5271 8.76578C15.4258 8.80168 15.3154 8.82187 15.2095 8.8488H15.2141ZM0.496531 2.36211H13.4006C13.4006 2.03901 13.4075 1.73162 13.3983 1.42647C13.3914 1.21107 13.3062 1.01586 13.1635 0.849821C12.938 0.587302 12.6411 0.486333 12.2959 0.486333C8.73331 0.486333 5.17071 0.486333 1.60812 0.486333C1.56439 0.486333 1.51836 0.486333 1.47463 0.488577C0.945307 0.526721 0.528751 0.903671 0.498832 1.39954C0.480421 1.71591 0.49423 2.03452 0.49423 2.36211H0.496531Z" fill="#410EAD"/>
<path d="M6.13946 7.6527V4.08738C5.79425 4.14123 5.46285 4.19283 5.13144 4.24668C4.94043 4.27585 4.74941 4.30951 4.55839 4.33643C4.36967 4.36336 4.2431 4.28707 4.22238 4.13674C4.20167 3.99987 4.29833 3.88993 4.48014 3.85852C4.98185 3.7755 5.48356 3.69472 5.98527 3.61843C6.10724 3.60048 6.18779 3.56907 6.24763 3.44567C6.39492 3.13827 6.76085 2.97672 7.09455 3.04628C7.45588 3.12257 7.71133 3.41425 7.72514 3.78223C7.73435 4.01333 7.72974 4.24669 7.72514 4.47779C7.72514 4.5653 7.75046 4.62139 7.8264 4.67749C8.67102 5.29003 8.66872 6.45454 7.83101 7.0783C7.77577 7.11869 7.73435 7.20619 7.72974 7.27351C7.71594 7.48217 7.72744 7.69309 7.72514 7.904C7.72054 8.30563 7.4881 8.61303 7.12677 8.69829C6.74474 8.78579 6.40643 8.61976 6.21081 8.25402C6.18779 8.21364 6.14177 8.16652 6.10034 8.15754C5.94384 8.12389 5.78505 8.10594 5.61704 8.07901C5.56181 8.4784 5.34087 8.72297 4.92432 8.78579C4.93812 8.96081 4.92892 9.10889 5.15446 9.19191C5.41912 9.28839 5.53649 9.59354 5.47435 9.86953C5.41452 10.1298 5.17287 10.3407 4.8967 10.3452C4.38348 10.3542 3.86796 10.3542 3.35245 10.3452C3.08088 10.3407 2.84844 10.1388 2.7817 9.88074C2.71265 9.61374 2.82082 9.33776 3.06937 9.20089C3.16833 9.14704 3.20055 9.09768 3.17984 8.98773C3.09929 8.55918 3.03025 8.12613 2.9497 7.69757C2.94049 7.64372 2.89446 7.5809 2.84613 7.55397C2.52163 7.37447 2.27308 7.12991 2.1396 6.78886C2.09587 6.67667 2.01532 6.68564 1.93247 6.66994C1.61027 6.6116 1.38934 6.43434 1.28347 6.13592C1.17991 5.84872 1.23744 5.58172 1.43767 5.34837C1.57575 5.18906 1.75296 5.09034 1.96699 5.07687C2.06826 5.07014 2.10508 5.02975 2.1442 4.94674C2.38125 4.41945 2.80011 4.12103 3.38006 4.03577C3.58719 4.00436 3.71147 4.0784 3.73218 4.23322C3.75289 4.37682 3.65163 4.48003 3.45831 4.51593C2.9474 4.61017 2.60449 4.8884 2.54465 5.34612C2.49862 5.69615 2.49632 6.05964 2.54465 6.40742C2.61139 6.86514 2.92899 7.14337 3.39387 7.22414C4.29143 7.37896 5.19358 7.51583 6.09344 7.65719C6.10264 7.65719 6.11415 7.65494 6.13946 7.65046V7.6527ZM7.22803 5.88238C7.22803 5.83302 7.22803 5.7859 7.22803 5.73654C7.22803 5.10155 7.22803 4.46433 7.22803 3.82935C7.22803 3.63863 7.10836 3.51971 6.94266 3.51747C6.77235 3.51747 6.66189 3.62965 6.65038 3.82262C6.65038 3.85403 6.65038 3.88768 6.65038 3.9191C6.65038 5.22272 6.65038 6.52634 6.65038 7.82996C6.65038 7.89951 6.63887 7.98478 6.67339 8.03414C6.72863 8.11042 6.81148 8.20017 6.89663 8.21812C6.97488 8.23383 7.09455 8.18223 7.15209 8.12164C7.20732 8.06331 7.22343 7.95561 7.22573 7.8681C7.23034 7.20619 7.22803 6.54204 7.22803 5.88014V5.88238ZM3.46982 7.73347C3.54577 8.18671 3.61941 8.61527 3.69306 9.04158C3.69766 9.06402 3.73448 9.09992 3.7575 9.09992C3.98534 9.10441 4.21318 9.10216 4.46173 9.10216C4.39269 8.6938 4.33055 8.31236 4.25921 7.93317C4.2523 7.89502 4.18326 7.84791 4.13493 7.83893C3.9255 7.79854 3.71147 7.76937 3.46982 7.73347ZM4.11422 9.8628C4.34666 9.8628 4.5768 9.8628 4.80924 9.8628C4.91281 9.8628 4.98875 9.83138 4.98875 9.72144C4.98875 9.61823 4.91051 9.58906 4.81615 9.58906C4.35817 9.58906 3.90018 9.58906 3.4422 9.58906C3.34324 9.58906 3.25809 9.62047 3.26269 9.73041C3.26729 9.83811 3.35245 9.86504 3.45141 9.8628C3.67234 9.86055 3.89328 9.8628 4.11422 9.8628ZM7.73205 6.468C8.03353 6.1808 8.02663 5.53011 7.73205 5.29676V6.468ZM2.01302 5.57274C1.82891 5.61089 1.72534 5.73205 1.73685 5.8936C1.74836 6.0529 1.85422 6.15612 2.01302 6.16285V5.57274ZM4.77242 7.9399C4.78623 8.02741 4.79313 8.09023 4.80924 8.15081C4.82305 8.19793 4.85297 8.28095 4.86908 8.27871C4.92892 8.27198 5.00717 8.25403 5.04169 8.21139C5.08541 8.15754 5.09462 8.07452 5.12454 7.99375C4.99566 7.97356 4.899 7.95785 4.77472 7.93766L4.77242 7.9399Z" fill="#410EAD"/>
<path d="M12.5375 12.6247C11.4443 12.6292 10.5307 11.7564 10.5192 10.6951C10.5076 9.60241 11.3868 8.71164 12.4961 8.69369C13.916 8.66901 14.9172 10.0265 14.4385 11.3256C14.4247 11.366 14.4086 11.4064 14.3901 11.4445C14.3234 11.5702 14.1945 11.6195 14.0702 11.5702C13.9483 11.5231 13.8861 11.3974 13.9368 11.2628C14.0334 11.0003 14.0841 10.7355 14.0472 10.455C13.9529 9.76172 13.343 9.20975 12.6319 9.18058C11.8632 9.15142 11.1958 9.63607 11.0554 10.3428C10.9311 10.9756 11.1336 11.5029 11.6768 11.8708C12.2061 12.2298 12.7699 12.2321 13.3338 11.9224C13.3568 11.909 13.3798 11.8933 13.4051 11.8798C13.5432 11.808 13.679 11.8372 13.7526 11.9539C13.824 12.066 13.7918 12.2074 13.6652 12.2904C13.3269 12.5148 12.9518 12.6247 12.5421 12.6225L12.5375 12.6247Z" fill="#410EAD"/>
<path d="M11.3777 10.6501C11.38 10.0241 11.8978 9.52148 12.5399 9.52148C13.1843 9.52148 13.709 10.0375 13.7067 10.6658C13.7021 11.2873 13.1797 11.7944 12.5422 11.7966C11.8978 11.7966 11.3777 11.2851 11.38 10.6523L11.3777 10.6501ZM12.3305 11.2626C12.5537 11.3546 12.8161 11.3053 13.0071 11.1213C13.2027 10.935 13.2556 10.677 13.159 10.4526C12.8874 10.7174 12.6089 10.9889 12.3305 11.2604V11.2626ZM12.7654 10.06C12.4893 9.95677 12.2062 10.0286 12.0221 10.2507C11.861 10.4437 11.8288 10.7107 11.9346 10.87C12.2085 10.603 12.4847 10.3337 12.7654 10.0577V10.06Z" fill="#410EAD"/>
<path d="M2.36305 1.46421C2.35844 1.90174 1.98791 2.25625 1.54604 2.24728C1.09727 2.2383 0.745149 1.8793 0.752053 1.44177C0.758957 1.00873 1.11568 0.669922 1.56215 0.669922C2.01323 0.669922 2.36765 1.02219 2.36535 1.46421H2.36305ZM1.55295 1.76039C1.72095 1.76263 1.85673 1.63249 1.86364 1.4687C1.87054 1.29593 1.73706 1.15906 1.55985 1.15682C1.38955 1.15682 1.25606 1.28022 1.24916 1.44626C1.24225 1.61903 1.37804 1.75814 1.55064 1.76039H1.55295Z" fill="#410EAD"/>
<path d="M5.09701 0.669922C5.54578 0.669922 5.90711 1.01995 5.90711 1.45972C5.90711 1.89501 5.53658 2.25401 5.0924 2.24728C4.65514 2.24279 4.29381 1.88828 4.28691 1.46197C4.28231 1.02892 4.64823 0.669922 5.09701 0.669922ZM5.10621 1.15682C4.9313 1.15457 4.78632 1.29144 4.78862 1.45972C4.78862 1.61903 4.9313 1.75814 5.09471 1.76263C5.26041 1.76712 5.4031 1.63474 5.41 1.47319C5.4169 1.30266 5.28342 1.1613 5.10851 1.15906L5.10621 1.15682Z" fill="#410EAD"/>
<path d="M2.51953 1.46197C2.51953 1.02443 2.87855 0.669922 3.32733 0.669922C3.77611 0.669922 4.14203 1.02668 4.13973 1.45972C4.13743 1.88604 3.7738 2.24055 3.33653 2.24728C2.89466 2.25401 2.51953 1.89501 2.51953 1.46197ZM3.33423 1.76039C3.49763 1.75814 3.64032 1.61679 3.64032 1.45748C3.64032 1.2892 3.49763 1.15233 3.32273 1.15457C3.14782 1.15682 3.01203 1.29817 3.01894 1.4687C3.02584 1.63025 3.17083 1.76263 3.33423 1.75814V1.76039Z" fill="#410EAD"/>
</svg>
