<svg width="15" height="16" viewBox="0 0 15 16" fill="none" xmlns="http://www.w3.org/2000/svg">
<path d="M7.49795 13.3379C5.33895 13.3379 3.17995 13.3379 1.02095 13.3379C0.503287 13.3379 0.137634 13.0575 0.026705 12.5755C0.00410849 12.4725 0 12.363 0 12.2578C0 9.19951 0 6.14118 0 3.08286C0 2.41248 0.382087 2.00719 1.00657 2.00719C2.51438 2.00719 4.02219 2.00719 5.53205 2.00719C5.57929 2.00719 5.62859 2.005 5.67379 2.01157C5.81964 2.03348 5.93057 2.1693 5.93673 2.32485C5.94289 2.48039 5.83813 2.62718 5.69228 2.65566C5.62038 2.6688 5.54437 2.6688 5.47042 2.6688C4.00986 2.6688 2.5493 2.6688 1.08874 2.6688C0.706656 2.6688 0.618324 2.76301 0.618324 3.16173C0.618324 6.16967 0.618324 9.1776 0.618324 12.1834C0.618324 12.5733 0.710764 12.6719 1.08053 12.6719C5.36154 12.6719 9.64256 12.6719 13.9236 12.6719C14.2872 12.6719 14.3796 12.5711 14.3796 12.179C14.3796 10.3957 14.3796 8.61238 14.3796 6.82909C14.3796 6.76775 14.3796 6.70422 14.3837 6.64287C14.4002 6.46323 14.5234 6.34055 14.6878 6.34055C14.8583 6.34055 14.9836 6.46542 14.9979 6.65383C15 6.68669 15 6.72174 15 6.7546C15 8.59486 15 10.4329 15 12.2732C15 12.7924 14.7412 13.178 14.3057 13.2963C14.1845 13.3291 14.0551 13.3335 13.9277 13.3335C11.7851 13.3335 9.64051 13.3335 7.49795 13.3335V13.3379Z" fill="#410EAD"/>
<path d="M6.94549 6.65424C7.00095 6.4965 7.03382 6.36725 7.08928 6.25114C7.1468 6.13064 7.22692 6.02549 7.29676 5.91156C7.39742 5.74726 7.31525 5.53475 7.13448 5.49313C7.00095 5.46246 6.86332 5.43836 6.73185 5.40111C6.44426 5.32006 6.25937 5.07907 6.25116 4.76579C6.24294 4.4788 6.24294 4.18961 6.25116 3.90262C6.25937 3.5762 6.45658 3.33083 6.76061 3.25634C6.86332 3.23005 6.96808 3.21034 7.0708 3.18843C7.34195 3.13366 7.42618 2.93868 7.26184 2.70427C6.84278 2.1018 6.89002 1.79071 7.39536 1.31312C7.50218 1.21234 7.59668 1.09842 7.69939 0.991076C7.93768 0.745709 8.24582 0.710657 8.52725 0.901254C8.61763 0.960405 8.70391 1.02613 8.79019 1.08966C9.00794 1.24521 9.18665 1.16415 9.23801 0.885919C9.26266 0.758854 9.27909 0.629598 9.30991 0.504723C9.3777 0.224304 9.61188 0.0161797 9.88509 0.00741656C10.1706 -0.00134656 10.4562 -0.00353733 10.7417 0.00741656C11.0108 0.0161797 11.2368 0.215541 11.3087 0.493769C11.3477 0.651506 11.3724 0.813623 11.4052 0.97355C11.436 1.1291 11.6435 1.22111 11.7709 1.13348C11.8818 1.0568 11.9886 0.975741 12.1016 0.899063C12.3687 0.71942 12.6747 0.743518 12.9048 0.97355C13.0979 1.16634 13.2848 1.36789 13.4656 1.57163C13.6751 1.80605 13.6998 2.13466 13.5416 2.41289C13.4841 2.51367 13.4204 2.61006 13.3588 2.70865C13.2109 2.94744 13.2848 3.13366 13.5478 3.18843C13.6464 3.20814 13.745 3.22786 13.8436 3.25196C14.1743 3.33083 14.3695 3.57181 14.3798 3.92891C14.388 4.19838 14.388 4.47003 14.3798 4.74169C14.3695 5.09002 14.1743 5.3332 13.8559 5.41426C13.7532 5.44055 13.6484 5.46026 13.5457 5.48217C13.2828 5.54132 13.2129 5.72097 13.3629 5.95976C13.4245 6.05835 13.4882 6.15474 13.5457 6.25552C13.7039 6.53375 13.6772 6.86017 13.4656 7.09678C13.2869 7.29833 13.1041 7.49112 12.9151 7.68391C12.6891 7.91394 12.3789 7.9468 12.1139 7.77154C12.0235 7.71239 11.9373 7.64885 11.8489 7.58532C11.6168 7.42101 11.4463 7.49331 11.3888 7.78468C11.3662 7.90079 11.3477 8.0169 11.321 8.13301C11.245 8.45287 11.0149 8.65661 10.7047 8.66757C10.4459 8.67633 10.1871 8.67633 9.92823 8.66757C9.61188 8.6588 9.3777 8.44849 9.3058 8.11987C9.28115 8.00376 9.26266 7.88765 9.24006 7.77154C9.18871 7.49988 9.00999 7.42101 8.7984 7.57437C8.70186 7.64447 8.60736 7.71458 8.5067 7.77811C8.24787 7.94461 7.95001 7.91832 7.7302 7.69924C7.533 7.50426 7.33374 7.3049 7.16118 7.08582C7.06463 6.96314 7.01739 6.79664 6.9496 6.65205L6.94549 6.65424ZM13.0178 2.04922C12.8206 1.85424 12.6337 1.66803 12.4385 1.47524C12.2742 1.58916 12.0893 1.71184 11.9106 1.83891C11.7832 1.92873 11.6599 1.92873 11.5223 1.85862C11.3806 1.78414 11.2327 1.7228 11.0848 1.66584C10.9471 1.61107 10.867 1.51467 10.8383 1.36351C10.8054 1.1751 10.7766 0.986695 10.7314 0.800479C10.7191 0.754472 10.6575 0.69094 10.6143 0.686558C10.4192 0.671223 10.224 0.666841 10.0289 0.673413C9.9878 0.673413 9.92412 0.736946 9.9118 0.782952C9.86044 0.977931 9.82347 1.17729 9.78649 1.37665C9.75773 1.52344 9.67762 1.61326 9.5482 1.66584C9.4044 1.7228 9.25855 1.77757 9.12503 1.85205C8.9648 1.93968 8.82716 1.92873 8.68131 1.817C8.51492 1.68993 8.34237 1.57601 8.16776 1.45114C7.98287 1.66145 7.81032 1.85862 7.62955 2.06456C7.74048 2.24639 7.85757 2.44575 7.97877 2.64292C8.05477 2.7678 8.05888 2.89267 8.00136 3.02631C7.93357 3.18405 7.86989 3.34616 7.81237 3.50828C7.76102 3.65287 7.67474 3.74269 7.53094 3.77337C7.31936 3.81718 7.10983 3.86538 6.88797 3.91357V4.74607C7.09339 4.79427 7.30292 4.84466 7.51451 4.89066C7.66858 4.92352 7.76718 5.01554 7.81648 5.17546C7.86168 5.32005 7.91098 5.46465 7.97877 5.59609C8.0671 5.77136 8.05477 5.92471 7.9459 6.08245C7.82881 6.25552 7.72404 6.43516 7.6049 6.62576C7.8021 6.81636 7.99109 6.99819 8.19035 7.19098C8.34853 7.08363 8.53546 6.95657 8.72034 6.82731C8.84154 6.74187 8.96069 6.7353 9.09421 6.80321C9.23596 6.8777 9.38386 6.94342 9.53177 6.99819C9.68172 7.05515 9.76389 7.15812 9.79265 7.32462C9.82757 7.54589 9.87688 7.76277 9.92002 7.98842H10.7006C10.7458 7.76935 10.7972 7.55027 10.8341 7.329C10.865 7.14716 10.9574 7.04201 11.1217 6.98505C11.2512 6.94123 11.3826 6.88865 11.5018 6.81855C11.6682 6.72215 11.8099 6.73968 11.9578 6.85579C12.1201 6.98067 12.2885 7.0924 12.4632 7.21727C12.646 7.00695 12.8185 6.80978 12.9993 6.59947C12.8945 6.42421 12.7754 6.22485 12.6542 6.02987C12.5741 5.90061 12.5679 5.77355 12.6337 5.63115C12.7014 5.48436 12.7631 5.33539 12.8103 5.17984C12.8658 5.00458 12.9685 4.91038 13.139 4.8819C13.3054 4.85342 13.4718 4.81837 13.6361 4.77455C13.6772 4.7636 13.7409 4.7154 13.7429 4.68254C13.7512 4.42403 13.747 4.16771 13.747 3.90481C13.5272 3.85661 13.3157 3.80623 13.102 3.7646C12.9562 3.73612 12.8699 3.64849 12.8206 3.50171C12.7672 3.34397 12.7117 3.18405 12.6398 3.03288C12.5659 2.87953 12.5761 2.74589 12.6665 2.60568C12.7836 2.42604 12.8966 2.23982 13.0219 2.03827L13.0178 2.04922Z" fill="#410EAD"/>
<path d="M8.75098 10.3369C10.0842 10.3369 11.4174 10.3369 12.7526 10.3369C12.9704 10.3369 13.0998 10.4421 13.1183 10.6261C13.1368 10.8035 13.0423 10.9525 12.8779 10.9898C12.8122 11.0051 12.7424 11.0051 12.6725 11.0051C10.0534 11.0051 7.43216 11.0051 4.81302 11.0051C4.80275 11.0051 4.79248 11.0051 4.7822 11.0051C4.51515 11.0051 4.37547 10.8868 4.37341 10.6699C4.37341 10.453 4.5131 10.3369 4.78015 10.3369C6.10308 10.3369 7.426 10.3369 8.74893 10.3369H8.75098Z" fill="#410EAD"/>
<path d="M8.74695 15.3277C8.74695 15.0012 8.74284 14.6879 8.74695 14.3725C8.75312 14.0942 8.96881 13.9299 9.1845 14.0329C9.32008 14.0986 9.37349 14.2191 9.37349 14.3747C9.37144 14.6879 9.37349 15.0034 9.37349 15.343C9.59946 15.343 9.80899 15.3364 10.0185 15.343C10.1746 15.3496 10.2712 15.446 10.302 15.6103C10.3308 15.7592 10.2589 15.9126 10.1253 15.9695C10.074 15.9915 10.0124 16.0002 9.95484 16.0002C8.31556 16.0002 6.67629 16.0002 5.03701 16.0002C4.82337 16.0002 4.68779 15.871 4.68368 15.6782C4.67957 15.4788 4.81721 15.3452 5.03907 15.3408C5.22805 15.3364 5.41704 15.3408 5.62247 15.3408C5.62247 14.9947 5.61836 14.6682 5.62247 14.344C5.62452 14.1556 5.75188 14.0176 5.91417 14.0066C6.06618 13.9957 6.20176 14.1074 6.23257 14.2739C6.2449 14.344 6.2449 14.4185 6.2449 14.493C6.2449 14.769 6.2449 15.0429 6.2449 15.3298H8.74285L8.74695 15.3277Z" fill="#410EAD"/>
<path d="M2.65414 10.3369C2.80616 10.3369 2.96022 10.3325 3.11224 10.3369C3.29712 10.3435 3.42859 10.4793 3.43064 10.6633C3.4327 10.8386 3.31355 10.9898 3.13689 10.9963C2.81027 11.0073 2.48364 11.0073 2.15702 10.9963C1.9783 10.9898 1.86737 10.8386 1.87354 10.6568C1.8797 10.4771 2.0009 10.3501 2.17962 10.3391C2.18989 10.3391 2.20016 10.3391 2.21043 10.3391C2.35833 10.3391 2.50624 10.3391 2.65414 10.3391V10.3369Z" fill="#410EAD"/>
<path d="M10.3287 2.33223C10.4396 2.34537 10.5505 2.34975 10.6594 2.37385C10.8566 2.41767 10.9573 2.56664 10.9285 2.76162C10.9018 2.93688 10.7601 3.03327 10.5649 3.03108C10.3718 3.02889 10.1705 3.01137 9.98563 3.05956C9.33033 3.23483 8.94208 3.94245 9.0941 4.64131C9.24406 5.32921 9.89525 5.78051 10.5382 5.64468C11.2141 5.50228 11.6516 4.84067 11.5448 4.12428C11.5078 3.8833 11.6064 3.70803 11.7954 3.67298C11.9823 3.64012 12.1323 3.78033 12.1631 4.01912C12.3069 5.1189 11.629 6.13323 10.6348 6.3063C9.60765 6.48375 8.67298 5.78927 8.4655 4.69169C8.23748 3.48457 9.16394 2.3147 10.3287 2.33223Z" fill="#410EAD"/>
</svg>
