<svg width="20" height="15" viewBox="0 0 20 15" fill="none" xmlns="http://www.w3.org/2000/svg">
<path d="M12.1324 12.4207C12.2671 13.0424 12.388 13.6301 12.5226 14.2126C12.5336 14.257 12.6353 14.3118 12.6985 14.3118C13.0503 14.3223 13.4048 14.3118 13.7565 14.3197C14.0176 14.3249 14.1632 14.4738 14.1467 14.6906C14.133 14.8839 13.9901 14.9988 13.74 14.9988C13.1245 15.0015 12.5117 14.9988 11.8961 14.9988C10.0659 14.9988 8.23576 14.9988 6.40834 14.9988C6.33964 14.9988 6.27369 14.9988 6.20499 14.9988C5.97141 14.9884 5.82027 14.8604 5.81477 14.6671C5.81202 14.479 5.96316 14.3249 6.19125 14.3197C6.55948 14.3092 6.92496 14.3197 7.2932 14.3118C7.35915 14.3118 7.46907 14.2674 7.48006 14.2256C7.64219 13.6353 7.78784 13.0397 7.94447 12.4207H7.65318C5.48501 12.4207 3.31959 12.4207 1.15141 12.4207C0.387468 12.4207 0 12.055 0 11.3314C0 7.92258 0 4.51637 0 1.10754C0 0.381371 0.39846 0.00783607 1.1679 0.00783607C7.04862 0.00783607 12.9266 0.0130606 18.8073 0C19.53 0 20.0055 0.470183 20 1.1415C19.9807 4.52682 19.9807 7.91475 20 11.3027C20.0027 12.0158 19.4943 12.439 18.7991 12.4337C16.6776 12.4102 14.5534 12.4259 12.432 12.4259H12.1297L12.1324 12.4207ZM0.719976 9.54472H19.2745C19.2745 9.46113 19.2745 9.3906 19.2745 9.32268C19.2745 6.60085 19.2745 3.8764 19.2745 1.15456C19.2745 0.767966 19.1948 0.692214 18.7908 0.692214C12.9266 0.692214 7.06236 0.692214 1.20088 0.692214C0.788676 0.692214 0.722724 0.754905 0.722724 1.15456C0.722724 3.8764 0.722724 6.60085 0.722724 9.32268C0.722724 9.39321 0.722724 9.46374 0.722724 9.54472H0.719976ZM19.2717 10.2552H0.722724C0.722724 10.6732 0.711733 11.078 0.730969 11.4803C0.733717 11.5613 0.835392 11.6632 0.92058 11.7102C0.994776 11.752 1.11019 11.7363 1.20637 11.7363C7.06236 11.7363 12.9184 11.7363 18.7743 11.7363C18.843 11.7363 18.909 11.7415 18.9777 11.7363C19.1591 11.7154 19.269 11.6214 19.2717 11.4437C19.2772 11.0519 19.2717 10.6627 19.2717 10.2552ZM11.396 12.4207C10.6925 12.4207 10.0192 12.4207 9.34595 12.4207C9.13161 12.4207 8.85131 12.358 8.71666 12.4599C8.57926 12.5617 8.58201 12.8334 8.5298 13.0319C8.42262 13.4498 8.32095 13.8704 8.21378 14.304H11.7999C11.6653 13.6719 11.5334 13.0554 11.396 12.4181V12.4207Z" fill="#410EAD"/>
<path d="M2.98158 7.4085C2.93212 7.29618 2.8964 7.17602 2.8277 7.07676C2.748 6.95921 2.62984 6.97227 2.49519 7.0219C2.01704 7.20214 1.86315 7.14467 1.60209 6.71367C1.57186 6.66404 1.54163 6.61441 1.5114 6.56478C1.29156 6.19908 1.33004 6.02146 1.66529 5.74979C1.74498 5.68449 1.81918 5.58262 1.83567 5.48597C1.86315 5.3423 1.78071 5.24827 1.62132 5.18558C1.1734 5.01056 1.0992 4.846 1.22561 4.39933C1.2421 4.34447 1.25584 4.28962 1.27233 4.23476C1.39324 3.80637 1.55537 3.69927 2.01429 3.74107C2.34405 3.77241 2.48694 3.59218 2.36878 3.2944C2.20665 2.88952 2.26985 2.71711 2.66007 2.50031C2.73701 2.45851 2.81396 2.41411 2.89365 2.37231C3.23715 2.18685 3.4405 2.22603 3.69606 2.51598C3.784 2.61524 3.84171 2.74585 4.03132 2.70667C4.16048 2.68054 4.24017 2.64398 4.29513 2.52121C4.50672 2.05625 4.64962 1.99617 5.16899 2.12939C5.25693 2.15028 5.34212 2.17118 5.43005 2.1973C5.74333 2.28873 5.87523 2.48464 5.83126 2.79548C5.80928 2.94959 5.75706 3.11677 5.96591 3.19513C6.0456 3.22387 6.14178 3.23954 6.22697 3.22909C6.38636 3.21081 6.54849 3.12983 6.70238 3.14289C7.06511 3.16901 7.4993 3.91869 7.33167 4.22692C7.26297 4.35231 7.12832 4.44896 7.0129 4.54822C6.85077 4.68927 6.88375 4.93742 7.07885 5.02885C7.19152 5.08109 7.31793 5.12288 7.41411 5.19864C7.74112 5.46507 7.53227 5.77592 7.46907 6.07109C7.41961 6.29834 7.29045 6.46552 7.03763 6.50731C6.95245 6.52298 6.85901 6.50992 6.76833 6.49948C6.42208 6.45768 6.26819 6.63792 6.39185 6.94093C6.55948 7.35625 6.49353 7.52343 6.08683 7.74807C6.02912 7.77942 5.96866 7.81076 5.91095 7.84211C5.51524 8.05892 5.32563 8.02496 5.03984 7.69322C4.81725 7.43462 4.58642 7.46596 4.44077 7.77419C4.2594 8.15556 4.08353 8.23654 3.65759 8.12944C3.5779 8.10855 3.49821 8.08504 3.42126 8.06414C3.01181 7.95704 2.90464 7.8186 2.98433 7.40327L2.98158 7.4085ZM6.63368 5.81771C6.68864 5.7942 6.75459 5.76286 6.81779 5.73412C6.76283 5.6871 6.71612 5.61658 6.65291 5.59829C6.33414 5.50687 6.18026 5.31879 6.21598 4.99489C6.22423 4.91914 6.21048 4.83555 6.183 4.76502C6.07034 4.48552 6.15553 4.28178 6.41659 4.12766C6.46055 4.10154 6.50727 4.0702 6.5375 4.03102C6.55948 4.00228 6.57047 3.95004 6.55673 3.92392C6.54299 3.90041 6.48529 3.88735 6.44956 3.88996C6.4001 3.8978 6.35063 3.91869 6.30392 3.9422C6.04286 4.07542 5.81752 4.0493 5.62516 3.82205C5.59219 3.78286 5.55097 3.74629 5.50425 3.7254C5.14976 3.56606 4.97114 3.32574 5.09205 2.93915C5.09755 2.92609 5.10029 2.9078 5.09205 2.89735C5.07281 2.86339 5.05358 2.81115 5.0261 2.80593C4.99587 2.8007 4.94366 2.83205 4.92442 2.86078C4.88595 2.92086 4.85572 2.98616 4.83099 3.05408C4.75405 3.2735 4.60016 3.36753 4.35558 3.36231C4.21544 3.3597 4.06979 3.38059 3.93514 3.41716C3.70431 3.47986 3.53118 3.42761 3.38279 3.24476C3.31684 3.16379 3.20692 3.11155 3.11624 3.04624C3.13547 3.15595 3.13272 3.2735 3.17394 3.37015C3.26463 3.5765 3.22341 3.73323 3.06128 3.89257C2.94311 4.00751 2.86892 4.16685 2.748 4.27917C2.65457 4.36537 2.52267 4.42545 2.39626 4.4594C2.30283 4.48553 2.19016 4.44112 2.08574 4.44373C2.03902 4.44373 1.9923 4.4803 1.94559 4.5012C1.97307 4.53777 1.9923 4.59785 2.02528 4.60568C2.42649 4.70233 2.58587 4.95048 2.54465 5.33186C2.53916 5.37365 2.5529 5.41806 2.56938 5.45724C2.69304 5.76024 2.58587 5.97705 2.30832 6.14684C2.25611 6.17818 2.23688 6.26177 2.20115 6.31924C2.2726 6.31924 2.34954 6.3323 2.4155 6.3114C2.60511 6.25655 2.78922 6.13639 2.98708 6.28528C3.05028 6.33491 3.09975 6.40283 3.1712 6.44201C3.52844 6.64576 3.83621 6.8704 3.66858 7.33797C3.66034 7.35887 3.70706 7.41633 3.73728 7.42417C3.76476 7.432 3.81972 7.40327 3.83621 7.37715C3.87468 7.31707 3.90491 7.24916 3.92964 7.18385C4.00934 6.96966 4.15773 6.86779 4.4023 6.86779C4.57268 6.86779 4.7458 6.83905 4.91343 6.80248C5.0893 6.7633 5.22121 6.81032 5.33113 6.9357C5.38883 7.001 5.4383 7.07414 5.50425 7.13161C5.53997 7.16296 5.60043 7.17079 5.64989 7.18908C5.65814 7.13945 5.69111 7.07676 5.66913 7.0428C5.46303 6.71106 5.53448 6.43417 5.84225 6.19908C5.86973 6.17818 5.89172 6.14423 5.9082 6.11288C6.0511 5.82032 6.27094 5.68188 6.63917 5.80726L6.63368 5.81771Z" fill="#410EAD"/>
<path d="M10.9288 5.29191C10.7364 5.59491 10.5468 5.90053 10.3517 6.20354C10.1346 6.54573 9.84608 6.54573 9.62624 6.20877C9.43113 5.90576 9.24152 5.59753 9.02443 5.25534C9.01344 5.34154 9.00519 5.39117 9.00519 5.4408C9.00519 5.93188 9.00519 6.42557 9.00519 6.91665C9.00519 7.18831 8.87054 7.33982 8.64246 7.3372C8.41162 7.3372 8.28796 7.18831 8.28796 6.91143C8.28796 5.96322 8.28796 5.01502 8.28796 4.06682C8.28796 3.87613 8.34018 3.72202 8.54353 3.66455C8.75787 3.60447 8.89802 3.70896 9.00244 3.88136C9.32121 4.39595 9.64548 4.90531 9.98348 5.44341C10.0384 5.36505 10.0824 5.31019 10.1181 5.25273C10.4067 4.7956 10.698 4.33848 10.9838 3.87875C11.0854 3.71418 11.2201 3.61492 11.4262 3.66455C11.6323 3.71418 11.701 3.8683 11.701 4.05637C11.701 5.02025 11.701 5.98151 11.701 6.94539C11.701 7.19876 11.5553 7.34504 11.3355 7.34504C11.1129 7.34504 10.9838 7.19876 10.9838 6.94016C10.9838 6.39945 10.9838 5.85874 10.9838 5.31803L10.937 5.30236L10.9288 5.29191Z" fill="#410EAD"/>
<path d="M16.837 5.88024C16.837 6.23549 16.837 6.56723 16.837 6.90158C16.837 7.18891 16.7051 7.34303 16.4661 7.33781C16.238 7.33258 16.1171 7.18369 16.1171 6.90419C16.1171 5.94815 16.1171 4.99473 16.1171 4.03869C16.1171 3.75658 16.2462 3.63903 16.543 3.64164C16.9112 3.64426 17.2767 3.64164 17.645 3.64687C18.321 3.65732 18.8266 4.14317 18.8211 4.77531C18.8156 5.38916 18.3017 5.8724 17.6395 5.88024C17.3839 5.88285 17.1311 5.88024 16.837 5.88024ZM16.848 5.19325C17.1393 5.19325 17.4224 5.2037 17.7027 5.19064C17.9307 5.17758 18.0956 4.9895 18.0984 4.7727C18.1011 4.55328 17.9472 4.35737 17.7192 4.34169C17.4306 4.32602 17.1421 4.33647 16.8453 4.33647V5.19064L16.848 5.19325Z" fill="#410EAD"/>
<path d="M13.8526 6.16233C14.0642 5.72088 14.2539 5.31861 14.4435 4.91895C14.6028 4.58199 14.7595 4.24241 14.9216 3.90545C15.037 3.66513 15.2376 3.57893 15.441 3.67558C15.6334 3.76439 15.6883 3.95247 15.5756 4.19278C15.1222 5.15404 14.6688 6.1127 14.2154 7.07396C14.1439 7.22807 14.0423 7.3404 13.8471 7.33778C13.6658 7.33517 13.5669 7.22808 13.4982 7.0818C13.042 6.11531 12.5831 5.14882 12.1269 4.18233C12.0197 3.95508 12.0829 3.75394 12.278 3.67297C12.4786 3.58677 12.6738 3.67297 12.7837 3.90022C13.1354 4.63946 13.4844 5.37869 13.8554 6.16494L13.8526 6.16233Z" fill="#410EAD"/>
<path d="M17.5487 10.6416C17.6641 10.6468 17.7795 10.6416 17.8867 10.6625C18.0736 10.6938 18.1752 10.8166 18.1752 10.989C18.1752 11.1614 18.0763 11.2999 17.8867 11.3155C17.6504 11.3338 17.4085 11.3364 17.1722 11.3155C16.9853 11.2999 16.8837 11.1666 16.8837 10.9916C16.8837 10.8166 16.9853 10.6938 17.1722 10.6625C17.2959 10.6416 17.425 10.6468 17.5459 10.6416H17.5487Z" fill="#410EAD"/>
<path d="M13.6329 11.3237C13.5285 11.3237 13.4213 11.3341 13.3196 11.3237C13.1218 11.3002 13.0091 11.1853 13.0063 10.9946C13.0063 10.8039 13.1135 10.6785 13.3114 10.6602C13.5175 10.6419 13.7291 10.6445 13.9379 10.6602C14.1385 10.6733 14.2429 10.8039 14.2567 10.9893C14.2704 11.1644 14.1248 11.308 13.9242 11.3263C13.828 11.3368 13.7291 11.3263 13.6329 11.3263V11.3237Z" fill="#410EAD"/>
<path d="M15.5921 11.3237C15.4876 11.3237 15.3805 11.3315 15.2788 11.3237C15.0754 11.3028 14.9655 11.1774 14.9628 10.9946C14.9628 10.8117 15.0699 10.6759 15.2705 10.6602C15.4794 10.6445 15.691 10.6419 15.8971 10.6602C16.1004 10.6759 16.2241 10.8248 16.2104 11.0102C16.1966 11.2009 16.0785 11.308 15.8833 11.3263C15.7872 11.3368 15.6882 11.3263 15.5921 11.3263V11.3237Z" fill="#410EAD"/>
<path d="M5.73792 5.11949C5.73792 5.84305 5.12786 6.42294 4.36666 6.41772C3.62195 6.4125 3.02014 5.82738 3.02014 5.11688C3.02014 4.40899 3.63295 3.8291 4.3804 3.8291C5.12786 3.8291 5.73242 4.40638 5.73517 5.11949H5.73792ZM4.38865 4.51348C4.0369 4.51348 3.74561 4.78514 3.74287 5.11949C3.74287 5.45646 4.02866 5.72812 4.38315 5.72812C4.73215 5.72812 5.00695 5.46691 5.01519 5.13517C5.02069 4.7982 4.73764 4.51609 4.38865 4.51348Z" fill="#410EAD"/>
</svg>
