<svg width="15" height="15" viewBox="0 0 15 15" fill="none" xmlns="http://www.w3.org/2000/svg">
<path d="M8.63379 9.84287C6.2303 11.7733 2.94181 11.2014 1.20964 8.9938C-0.484719 6.83308 -0.388277 3.72178 1.43089 1.76015C3.3446 -0.304937 6.32485 -0.586008 8.51655 1.09261C10.6818 2.7517 11.389 5.9235 9.82325 8.49022C10.2468 8.91378 10.6723 9.34124 11.1054 9.77455C11.1356 9.76089 11.1659 9.74918 11.198 9.73552C11.4873 9.61255 11.7578 9.64768 11.9828 9.8702C12.9151 10.7973 13.8454 11.7284 14.7702 12.6633C15.0708 12.9678 15.0765 13.3933 14.7872 13.7095C14.46 14.0687 14.1253 14.4239 13.7868 14.7733C13.4956 15.0719 13.0777 15.0759 12.7846 14.7831C11.8561 13.8579 10.9314 12.9307 10.0067 12.0016C9.77597 11.7713 9.73248 11.4942 9.8327 11.1838C9.84783 11.1389 9.84026 11.0589 9.81001 11.0277C9.42424 10.6314 9.0328 10.243 8.63379 9.84287ZM5.32828 10.5163C7.98895 10.526 10.1769 8.27746 10.1863 5.52141C10.1958 2.76732 8.03245 0.518755 5.35476 0.50314C2.67896 0.487525 0.491049 2.72828 0.483485 5.49214C0.47403 8.25014 2.64871 10.5046 5.32828 10.5163ZM11.4855 10.1396C11.4136 10.1903 11.3436 10.2274 11.2888 10.284C10.9768 10.61 10.6704 10.9379 10.3622 11.2677C10.2317 11.4063 10.2298 11.5273 10.3603 11.6581C11.2699 12.5716 12.1814 13.4831 13.0928 14.3946C13.2309 14.5332 13.3387 14.5313 13.471 14.3927C13.7887 14.0589 14.1045 13.7232 14.4184 13.3855C14.5508 13.243 14.5489 13.1337 14.4109 12.9951C13.5013 12.0817 12.5898 11.1701 11.6783 10.2606C11.6311 10.2137 11.563 10.1864 11.4873 10.1396H11.4855ZM9.00254 9.51495C9.40155 9.91314 9.79677 10.3113 10.1731 10.688C10.3698 10.5007 10.5607 10.3191 10.7631 10.1278C10.3508 9.71405 9.94616 9.31001 9.54148 8.90402C9.35994 9.10896 9.18408 9.30805 9.00254 9.51495Z" fill="#410EAD"/>
<path d="M5.33945 0.99513C7.75429 1.00099 9.70961 3.02313 9.70582 5.51177C9.70204 8.00042 7.73538 10.0265 5.32811 10.0226C2.91706 10.0187 0.959846 7.99065 0.963629 5.50201C0.967411 3.00947 2.9284 0.989274 5.33945 0.99513ZM5.32811 1.49481C3.17423 1.50262 1.44017 3.3003 1.44773 5.52153C1.45529 7.73301 3.20071 9.52873 5.34135 9.52483C7.48766 9.52093 9.22929 7.71154 9.22361 5.49421C9.21794 3.28273 7.46875 1.48895 5.33 1.49481H5.32811Z" fill="#410EAD"/>
<path d="M7.29877 4.96357C7.30255 5.18804 7.23259 5.51205 7.05483 5.79897C6.73525 6.31427 6.58586 6.87446 6.60477 7.48539C6.61044 7.67278 6.54426 7.82893 6.40432 7.95385C6.36839 7.98508 6.34192 8.04558 6.33813 8.09438C6.3249 8.28176 6.25493 8.43206 6.10932 8.54917C6.07339 8.57845 6.05259 8.64091 6.04881 8.69165C6.02422 9.00981 5.81621 9.21476 5.50419 9.21866C5.39262 9.21866 5.28294 9.21866 5.17137 9.21866C4.88016 9.21281 4.67025 9.02152 4.64567 8.72679C4.6381 8.63115 4.59461 8.57649 4.53977 8.50623C4.45657 8.39887 4.41307 8.25639 4.35256 8.12951C4.32419 8.07096 4.30907 7.99483 4.26368 7.9558C4.12375 7.82893 4.05567 7.67473 4.06134 7.4893C4.08025 6.88422 3.92141 6.33769 3.62452 5.81459C3.08936 4.86988 3.41461 3.66948 4.33365 3.10343C5.24134 2.5452 6.42512 2.83798 6.99054 3.75731C7.19666 4.09108 7.29877 4.45413 7.30066 4.96357H7.29877ZM4.7875 5.53547C4.71185 5.53157 4.64567 5.52962 4.58137 5.52181C4.22775 5.47887 3.97814 5.18413 3.99137 4.83279C4.0065 4.48731 4.28259 4.20624 4.6173 4.19648C4.9539 4.18477 5.23378 4.45218 5.27538 4.81718C5.28294 4.88745 5.31698 4.95576 5.33967 5.02603C5.35669 4.95576 5.37938 4.88745 5.38695 4.81718C5.42666 4.45413 5.71031 4.18672 6.04692 4.19648C6.38163 4.20819 6.65772 4.48731 6.67474 4.83475C6.69175 5.18023 6.43647 5.47887 6.08474 5.52376C6.01666 5.53157 5.94858 5.53352 5.87862 5.53937V6.97596H6.15092C6.17551 6.3982 6.43458 5.91804 6.69365 5.43397C6.84304 5.15485 6.84871 4.8406 6.78063 4.53611C6.6407 3.90565 6.25682 3.49576 5.64791 3.35718C5.03711 3.21859 4.5133 3.42354 4.14455 3.94469C3.77391 4.46975 3.73798 5.03774 4.06323 5.60964C4.2391 5.91999 4.39416 6.2401 4.46413 6.59534C4.48871 6.72221 4.50762 6.84908 4.53032 6.974H4.7856V5.53352L4.7875 5.53547ZM5.27916 6.25181C5.27916 6.45871 5.27727 6.66756 5.28105 6.87446C5.28105 6.91154 5.3132 6.94668 5.33211 6.98376C5.35102 6.94863 5.38317 6.9135 5.38506 6.87836C5.38884 6.46261 5.38884 6.04881 5.38506 5.63306C5.38506 5.59988 5.34724 5.5667 5.32833 5.53352C5.3132 5.5667 5.28294 5.59793 5.28294 5.63111C5.27916 5.83801 5.28105 6.04686 5.28105 6.25376L5.27916 6.25181ZM4.55868 7.50491C4.55868 7.51663 4.55868 7.53029 4.55868 7.542H6.10743C6.10743 7.53029 6.10743 7.51663 6.10743 7.50491H4.55868ZM5.86349 8.07681H4.8291C4.93121 8.16855 5.73868 8.17246 5.86349 8.07681ZM5.87672 5.02408C5.99208 5.02994 6.10743 5.05921 6.16416 4.9382C6.18685 4.89135 6.17551 4.79181 6.14147 4.76058C6.09986 4.72349 6.00531 4.70592 5.95804 4.72935C5.84079 4.7879 5.87105 4.90697 5.87672 5.02408ZM4.77993 5.02018C4.8083 4.81523 4.7648 4.71373 4.64756 4.70202C4.55679 4.69226 4.4698 4.78205 4.47548 4.87574C4.48304 4.99675 4.57759 5.0436 4.77804 5.02213L4.77993 5.02018ZM5.55336 8.70141C5.55336 8.69166 5.55336 8.67994 5.55336 8.67018H5.13733C5.13733 8.67994 5.13733 8.69166 5.13733 8.70141H5.55336Z" fill="#410EAD"/>
<path d="M3.3239 3.77274C3.31823 3.96793 3.16694 4.10261 3.03268 4.04405C2.86816 3.97183 2.70932 3.87619 2.56371 3.76884C2.46916 3.69857 2.46159 3.57755 2.52589 3.4741C2.59018 3.3648 2.69419 3.3121 2.80954 3.3687C2.95515 3.43897 3.09508 3.52095 3.22557 3.61659C3.28041 3.65563 3.30499 3.73956 3.3239 3.77274Z" fill="#410EAD"/>
<path d="M7.58988 4.10583C7.50101 4.0258 7.40078 3.97505 7.3762 3.90088C7.35162 3.82476 7.37053 3.68422 7.42537 3.63933C7.55963 3.52612 7.71658 3.43243 7.87732 3.36802C7.94162 3.34264 8.07588 3.39339 8.12126 3.4539C8.16665 3.51441 8.17988 3.68032 8.13828 3.71545C7.97754 3.85794 7.79033 3.96724 7.58988 4.10388V4.10583Z" fill="#410EAD"/>
<path d="M5.56834 2.25769C5.56834 2.33967 5.5759 2.4236 5.56834 2.50557C5.55132 2.6383 5.46244 2.70857 5.34141 2.71247C5.2185 2.71638 5.11827 2.64806 5.10693 2.51729C5.0918 2.34357 5.0918 2.16595 5.10693 1.99028C5.11827 1.8595 5.22228 1.79509 5.3433 1.799C5.46622 1.80485 5.55132 1.87707 5.56645 2.0098C5.5759 2.09178 5.56645 2.17571 5.56645 2.25769H5.56834Z" fill="#410EAD"/>
<path d="M3.86268 2.21687C3.88348 2.22663 3.95155 2.23053 3.97235 2.26566C4.07825 2.43938 4.18793 2.6131 4.25979 2.80243C4.28059 2.85708 4.20306 3.00152 4.13876 3.03275C4.06691 3.06593 3.91941 3.05032 3.87213 2.99371C3.76056 2.85903 3.67168 2.69508 3.60361 2.53112C3.53931 2.37302 3.66979 2.21296 3.86268 2.21687Z" fill="#410EAD"/>
<path d="M6.66914 3.07212C6.45356 3.06626 6.34389 2.88669 6.42331 2.71492C6.4876 2.57634 6.56513 2.43971 6.65023 2.31284C6.72776 2.19963 6.84312 2.18597 6.95847 2.25038C7.07004 2.31479 7.11164 2.428 7.06247 2.54316C6.9944 2.69736 6.90741 2.8457 6.81286 2.98428C6.77882 3.03503 6.6994 3.05455 6.66914 3.07017V3.07212Z" fill="#410EAD"/>
</svg>
