<svg width="15" height="22" viewBox="0 0 15 22" fill="none" xmlns="http://www.w3.org/2000/svg">
<path d="M5.87426 22C5.66941 21.9167 5.45053 21.8549 5.26532 21.7446C4.87525 21.5135 4.66759 21.156 4.58341 20.7286C4.56938 20.6587 4.51606 20.57 4.45432 20.5351C4.11477 20.3308 3.94359 20.0459 3.94359 19.6615C3.94359 18.7315 3.94359 17.7987 3.9464 16.8687C3.9464 16.7424 3.91553 16.6644 3.79767 16.5918C3.4918 16.401 3.32062 16.1134 3.28975 15.7693C3.17189 14.4953 2.64152 13.3717 1.94838 12.3019C1.69582 11.9121 1.43485 11.5304 1.18229 11.1407C-0.602457 8.38823 -0.347093 4.90196 1.81649 2.50432C4.5806 -0.562633 9.37921 -0.852931 12.525 1.85652C12.741 2.04199 12.7803 2.2167 12.6428 2.37529C12.4997 2.54195 12.3033 2.53119 12.0788 2.34035C10.7037 1.16841 9.09298 0.612 7.25772 0.649631C4.0811 0.714142 1.23841 3.11179 0.761358 6.12229C0.491962 7.82914 0.859575 9.40428 1.79404 10.8692C2.27671 11.6245 2.76218 12.3825 3.19995 13.162C3.6293 13.9308 3.85941 14.7694 3.94921 15.6403C3.98569 15.9817 4.18212 16.1564 4.53851 16.1591C6.51127 16.1591 8.48403 16.1591 10.4596 16.1591C10.7907 16.1591 11.0068 15.9978 11.0349 15.7048C11.1668 14.3528 11.714 13.154 12.4436 12.0116C12.8757 11.3342 13.364 10.6784 13.6895 9.95531C14.7138 7.69743 14.5286 5.50944 13.0946 3.44241C13.0778 3.41822 13.061 3.39403 13.0441 3.36983C12.9206 3.18168 12.9459 3.00427 13.1115 2.89676C13.2742 2.78924 13.4622 2.82687 13.5969 3.00427C14.0151 3.55799 14.3518 4.1574 14.5763 4.8052C15.3536 7.0577 15.0477 9.18924 13.7709 11.2106C13.3079 11.9444 12.8336 12.6755 12.4099 13.4281C12.0058 14.1458 11.7954 14.9307 11.7084 15.7425C11.6691 16.1053 11.4951 16.3876 11.1892 16.608C11.1163 16.6617 11.0573 16.7773 11.0545 16.866C11.0461 17.7611 11.0405 18.6562 11.0517 19.5513C11.0573 19.9894 10.9198 20.3362 10.4989 20.5512C10.4568 20.5727 10.4175 20.6345 10.4091 20.6829C10.2968 21.363 9.89836 21.793 9.19961 21.9651C9.17997 21.9704 9.16313 21.9892 9.1463 22H5.87146H5.87426ZM4.62269 18.632H10.3614V18.0514H10.106C9.03685 18.0514 7.96769 18.0514 6.89853 18.0514C6.82276 18.0514 6.74699 18.0568 6.67403 18.046C6.50566 18.0218 6.40463 17.9197 6.3906 17.7584C6.37657 17.5971 6.45795 17.4789 6.62071 17.4305C6.69648 17.409 6.78347 17.409 6.86485 17.409C7.94805 17.409 9.03124 17.409 10.1172 17.409H10.3586V16.8176H4.63111V17.4117C4.86964 17.4117 5.09414 17.409 5.31583 17.4117C5.56277 17.417 5.70589 17.538 5.70589 17.7342C5.70589 17.9331 5.56839 18.0514 5.31583 18.0541C5.08572 18.0568 4.85842 18.0541 4.62269 18.0541V18.6347V18.632ZM4.61428 19.3013C4.61428 19.3658 4.61428 19.4142 4.61428 19.4626C4.60866 19.9491 4.65356 19.9921 5.15587 19.9921C6.69367 19.9921 8.23428 19.9921 9.77208 19.9921C10.3474 19.9921 10.4119 19.9276 10.3726 19.3712C10.3726 19.3524 10.3614 19.3309 10.353 19.3013H4.61428ZM5.26812 20.6507C5.35511 21.0619 5.6638 21.3441 6.06228 21.3495C7.01919 21.3603 7.97611 21.3603 8.93022 21.3495C9.33712 21.3441 9.67106 21.0323 9.71034 20.6507H5.26532H5.26812Z" fill="#410EAD"/>
<path d="M10.2098 11.6482C9.93199 11.6509 9.73275 11.5434 9.57841 11.3687C9.46897 11.2477 9.37075 11.2423 9.23044 11.3176C9.06768 11.4036 8.8937 11.4762 8.71691 11.5273C8.55695 11.573 8.51767 11.6563 8.51767 11.8068C8.51767 12.331 8.20337 12.6239 7.65055 12.6266C7.5383 12.6266 7.42605 12.6266 7.3138 12.6266C6.80308 12.6213 6.48036 12.3283 6.47475 11.8417C6.47475 11.6697 6.43266 11.5703 6.24464 11.5434C6.1801 11.5353 6.11275 11.5084 6.05662 11.4762C5.75075 11.3015 5.49258 11.2396 5.1839 11.5353C4.96782 11.7423 4.62546 11.7074 4.3729 11.5192C4.16244 11.3633 3.966 11.1778 3.80605 10.9735C3.57313 10.6806 3.62926 10.3069 3.93233 10.022C4.06141 9.90105 4.09789 9.79891 3.98845 9.65645C3.95758 9.61613 3.93513 9.56775 3.9211 9.52205C3.82289 9.18068 3.68819 8.92533 3.22516 8.92533C2.92771 8.92533 2.72566 8.66997 2.68357 8.3743C2.64989 8.14313 2.64709 7.90122 2.66954 7.67005C2.71163 7.26955 3.03434 7.00882 3.47211 7.01688C3.67135 7.01957 3.7836 6.9685 3.81447 6.77766C3.81727 6.75078 3.83411 6.7239 3.84814 6.69702C4.03896 6.37715 4.15121 6.09492 3.78921 5.76699C3.55068 5.55195 3.64329 5.15682 3.88182 4.90416C3.99687 4.7832 4.12034 4.66762 4.24662 4.55472C4.58056 4.25367 5.03517 4.24292 5.34946 4.5601C5.52625 4.74019 5.66095 4.72675 5.88825 4.6488C6.25867 4.51978 6.52807 4.39882 6.51404 3.93381C6.50562 3.61125 6.8592 3.3774 7.21839 3.35859C7.39799 3.35052 7.57759 3.35052 7.75718 3.35859C8.19495 3.37471 8.52609 3.68383 8.51486 4.10584C8.50644 4.3585 8.59063 4.46333 8.83757 4.56816C9.19677 4.72138 9.46616 4.79933 9.78046 4.46333C9.99934 4.23217 10.4287 4.28862 10.6869 4.50096C10.844 4.63267 10.9927 4.77514 11.1302 4.92566C11.4081 5.22671 11.394 5.65947 11.0657 5.94708C10.8693 6.11911 10.8749 6.24813 10.9731 6.47392C11.1162 6.80454 11.2172 7.06258 11.6971 7.03839C12.0647 7.01957 12.3201 7.37976 12.3341 7.748C12.3397 7.89047 12.3341 8.03562 12.3341 8.17808C12.3285 8.65116 12.0142 8.97371 11.5259 8.96564C11.279 8.96027 11.1611 9.03016 11.1106 9.26132C11.0797 9.40647 10.9759 9.53549 10.9394 9.67795C10.9198 9.7559 10.9338 9.87686 10.9871 9.93331C11.4501 10.4252 11.4445 10.7585 10.9591 11.2289C10.743 11.4386 10.5381 11.667 10.2154 11.6482H10.2098ZM4.78822 6.17287C4.74332 6.2992 4.70403 6.42822 4.65352 6.55456C4.58337 6.72659 4.49357 6.89324 4.42622 7.06795C4.26907 7.47921 4.03616 7.65393 3.57033 7.65124C3.38231 7.65124 3.30935 7.71306 3.32619 7.88778C3.3318 7.94423 3.3318 8.00336 3.32619 8.05981C3.30093 8.25871 3.37389 8.33935 3.59839 8.33667C4.00529 8.3286 4.25224 8.51945 4.38974 8.87963C4.46831 9.0866 4.55811 9.29089 4.65352 9.49248C4.80506 9.81504 4.77138 10.1134 4.51602 10.3634C4.26065 10.6134 4.33923 10.6026 4.53566 10.7961C4.55531 10.8176 4.58056 10.8338 4.5974 10.858C4.7321 11.0381 4.84715 11.0192 5.0043 10.8606C5.2765 10.5892 5.58518 10.5596 5.94718 10.7236C6.12959 10.8042 6.3148 10.8848 6.50281 10.9467C6.96303 11.0999 7.12579 11.2934 7.13701 11.7638C7.13982 11.9358 7.20717 11.9977 7.37835 11.9815C7.43728 11.9761 7.49901 11.9735 7.55794 11.9815C7.78244 12.0111 7.85821 11.9251 7.8526 11.7074C7.84137 11.3257 8.03781 11.0837 8.41945 10.9494C8.5794 10.8929 8.74216 10.8338 8.8937 10.7612C9.41846 10.5166 9.62892 10.5381 10.0583 10.9225C10.1677 11.0219 10.2463 11.0165 10.3361 10.9144C10.3782 10.866 10.4315 10.823 10.4792 10.7773C10.6176 10.6429 10.6186 10.5085 10.482 10.3741C10.1789 10.0758 10.134 9.79622 10.3136 9.41722C10.4034 9.22906 10.4764 9.03284 10.5522 8.83931C10.6756 8.52482 10.931 8.34473 11.2818 8.33129C11.3407 8.33129 11.4024 8.32591 11.4614 8.33129C11.6017 8.33935 11.6746 8.28828 11.6634 8.14582C11.6578 8.08131 11.6634 8.0168 11.6634 7.95229C11.6634 7.75697 11.5615 7.65841 11.3575 7.65661C10.9057 7.65124 10.6672 7.48996 10.5129 7.08946C10.4371 6.89593 10.3473 6.70777 10.2603 6.51693C10.1228 6.21588 10.1761 5.94439 10.395 5.69979C10.4483 5.64065 10.5073 5.58421 10.569 5.53045C10.656 5.44981 10.6644 5.37455 10.569 5.29391C10.5297 5.26165 10.496 5.22402 10.4568 5.18908C10.193 4.9391 10.2266 4.90416 9.94041 5.17564C9.65137 5.44981 9.34269 5.48744 8.97508 5.32616C8.77303 5.23746 8.56257 5.15951 8.35771 5.07887C8.03219 4.95254 7.86382 4.72138 7.84979 4.38807C7.84698 4.32356 7.84418 4.25905 7.84979 4.19454C7.86101 4.05477 7.79647 3.99563 7.65335 4.00638C7.60846 4.00907 7.56356 4.00638 7.51866 4.00638C7.15666 4.00638 7.15385 4.00638 7.14543 4.35044C7.13701 4.69718 6.96584 4.93104 6.6347 5.06275C6.39337 5.15951 6.15204 5.24821 5.9079 5.3396C5.61044 5.4525 5.33824 5.40949 5.0941 5.21058C4.78261 4.95523 4.79103 4.96329 4.49357 5.22671C4.33081 5.37186 4.33923 5.46863 4.49918 5.60302C4.67597 5.74817 4.77138 5.9417 4.79103 6.18093L4.78822 6.17287Z" fill="#410EAD"/>
<path d="M5.0437 7.96147C5.07738 6.65513 6.18583 5.61489 7.52719 5.63909C8.8882 5.66328 9.98543 6.74652 9.95175 8.04211C9.91808 9.32695 8.78718 10.3752 7.46826 10.343C6.10445 10.3107 5.01564 9.24094 5.04651 7.96147H5.0437ZM5.71719 7.95878C5.68913 8.88881 6.48048 9.6737 7.46826 9.69789C8.42798 9.72208 9.2502 8.96139 9.27826 8.03405C9.30352 7.09864 8.51778 6.31107 7.53561 6.28419C6.56186 6.26 5.74525 7.01263 5.71719 7.95878Z" fill="#410EAD"/>
</svg>
