<svg width="15" height="16" viewBox="0 0 15 16" fill="none" xmlns="http://www.w3.org/2000/svg">
<path d="M5.96325 5.46877C5.89215 5.27979 5.83053 5.10261 5.75944 4.9278C5.74285 4.89 5.70019 4.85457 5.65991 4.83803C5.53667 4.7837 5.41107 4.73882 5.2831 4.69157C5.1575 4.64432 5.09114 4.55692 5.09114 4.42227C5.09114 4.10099 5.09114 3.77735 5.09114 3.45608C5.09114 3.32142 5.1575 3.22221 5.28784 3.19386C5.61962 3.11826 5.79262 2.92219 5.91111 2.59619C6.00353 2.34342 6.0296 2.14971 5.89926 1.91112C5.76181 1.66071 5.78551 1.61583 5.99405 1.40794C6.18364 1.21896 6.37797 1.02997 6.56518 0.836261C6.67894 0.718145 6.80691 0.687436 6.94436 0.772479C7.21926 0.942566 7.46335 0.921305 7.76432 0.789015C8.03211 0.673262 8.19326 0.538609 8.27384 0.26458C8.34256 0.023623 8.40418 0 8.64827 0C8.93502 0 9.2194 0 9.50615 0C9.65308 0 9.76683 0.0566958 9.80001 0.200797C9.87348 0.536247 10.0844 0.694522 10.402 0.822088C10.665 0.92603 10.8641 0.930754 11.1034 0.800827C11.3262 0.677986 11.3925 0.701609 11.5727 0.881146C11.7717 1.07958 11.966 1.27802 12.1675 1.47409C12.2789 1.58276 12.3144 1.7056 12.2338 1.83789C12.0608 2.11664 12.0798 2.36468 12.2125 2.66942C12.3286 2.93637 12.4685 3.09464 12.7434 3.1726C12.978 3.23874 13.004 3.30489 13.004 3.55057C13.004 3.83641 13.0017 4.11989 13.004 4.40573C13.004 4.55456 12.9424 4.66558 12.8002 4.69629C12.4685 4.76716 12.3073 4.9656 12.1841 5.28215C12.0822 5.54673 12.0656 5.75225 12.203 5.99557C12.3239 6.21054 12.2978 6.27905 12.1272 6.44914C11.9708 6.60505 11.8167 6.76333 11.658 6.91451C11.594 6.97593 11.5821 7.02318 11.6177 7.10822C12.1153 8.27521 12.0585 9.41621 11.4542 10.5312C11.4115 10.6092 11.4115 10.6588 11.4802 10.7226C11.7054 10.9305 11.9186 11.1502 12.1462 11.358C12.1888 11.3958 12.2694 11.4171 12.3263 11.41C12.5395 11.384 12.7197 11.436 12.8737 11.5872C13.5112 12.2061 14.151 12.8203 14.7885 13.4392C15.0658 13.7109 15.0705 14.0416 14.8027 14.3228C14.5847 14.5519 14.362 14.781 14.1392 15.0055C13.8809 15.2653 13.5396 15.2724 13.2766 15.0196C12.6272 14.3983 11.985 13.77 11.338 13.1463C11.1627 12.9762 11.1176 12.7754 11.1698 12.5416C11.1816 12.4896 11.1698 12.414 11.1366 12.3762C10.9281 12.1376 10.71 11.9085 10.4967 11.677C9.1649 12.6124 7.80698 12.7353 6.36375 12.0927C6.25473 12.4683 6.20734 12.8416 6.20023 13.2219C6.19786 13.3518 6.20023 13.4794 6.19312 13.6093C6.17653 13.8456 6.06278 14.0322 5.85897 14.1479C5.77129 14.1976 5.7547 14.2542 5.75944 14.3417C5.77603 14.6535 5.65517 14.8897 5.38263 15.0551C5.33524 15.0834 5.31628 15.1897 5.31391 15.2582C5.30443 15.6338 5.11247 15.922 4.76411 15.9717C4.47973 16.0095 4.18113 16.0095 3.89675 15.9717C3.55786 15.9244 3.35879 15.6386 3.35879 15.27C3.35879 15.1472 3.33509 15.0692 3.2166 14.9984C2.9891 14.8637 2.8943 14.644 2.90852 14.3842C2.91326 14.2684 2.88719 14.1952 2.77581 14.1267C2.54357 13.9873 2.45825 13.7558 2.46536 13.4912C2.47721 13.0258 2.45351 12.5628 2.30658 12.1211C2.19046 11.7738 2.04116 11.4265 1.85632 11.1124C1.52691 10.5549 1.35391 9.97372 1.38709 9.31936C1.45818 7.9752 2.60281 6.74915 3.94651 6.61686C4.20245 6.59088 4.46077 6.61686 4.71908 6.61214C4.77596 6.61214 4.85653 6.59796 4.8826 6.56017C5.17409 6.13259 5.53193 5.77351 5.96561 5.47586L5.96325 5.46877ZM11.3333 6.50111C11.357 6.47748 11.3973 6.44205 11.4352 6.40425C11.703 6.13967 11.7077 6.13731 11.549 5.79714C11.4779 5.64595 11.4897 5.51838 11.5679 5.37192C11.6722 5.17821 11.767 4.97741 11.8262 4.76716C11.8831 4.55928 11.9826 4.43408 12.1935 4.36793C12.485 4.2758 12.4827 4.26163 12.4827 3.95925C12.4827 3.61908 12.485 3.60963 12.158 3.49624C11.9803 3.43481 11.8902 3.32851 11.8381 3.15134C11.7788 2.9529 11.7101 2.74974 11.6035 2.57257C11.485 2.37413 11.4779 2.20405 11.5821 2.00325C11.7125 1.75048 11.703 1.74339 11.4992 1.54023C11.2504 1.29219 11.2456 1.2851 10.9304 1.43393C10.7622 1.51425 10.6247 1.49771 10.4612 1.41267C10.2384 1.29691 9.99197 1.22841 9.76446 1.1221C9.67204 1.07722 9.58199 0.9969 9.52748 0.909494C9.45402 0.789015 9.41847 0.647276 9.36633 0.512624C9.26443 0.512624 9.17911 0.512624 9.0938 0.512624C8.72648 0.512624 8.72174 0.512623 8.59613 0.857522C8.53926 1.01344 8.4421 1.09848 8.28332 1.14573C8.07477 1.20951 7.86149 1.28274 7.6719 1.39141C7.47757 1.5048 7.31405 1.51189 7.11499 1.41031C6.85193 1.27565 6.84482 1.28747 6.63628 1.49535C6.38982 1.74103 6.38271 1.74339 6.53201 2.05049C6.61258 2.21586 6.60784 2.35523 6.51542 2.5206C6.40877 2.71194 6.31635 2.9151 6.26184 3.12535C6.20734 3.33324 6.09596 3.44426 5.89926 3.50805C5.60777 3.6049 5.61251 3.61435 5.61251 3.91909C5.61251 4.25454 5.61014 4.26399 5.9277 4.37502C6.1078 4.4388 6.21208 4.53802 6.25236 4.73173C6.28554 4.89 6.36138 5.03883 6.41588 5.1853C6.71922 5.08135 6.99649 4.9845 7.27377 4.89C6.69079 3.65687 7.3259 2.608 8.07477 2.19223C8.92554 1.72213 9.99908 1.93238 10.6105 2.69068C11.2101 3.43245 11.2693 4.64905 10.3356 5.47822C10.665 5.81131 10.9944 6.14676 11.3357 6.49402L11.3333 6.50111ZM11.4281 8.65791C11.4281 6.82711 9.93746 5.33885 8.09847 5.34121C6.26184 5.34121 4.7807 6.8153 4.77596 8.6461C4.77122 10.4816 6.25473 11.9675 8.09373 11.9722C9.93272 11.9746 11.4257 10.4934 11.4281 8.66027V8.65791ZM3.59578 10.4155C3.44174 10.4155 3.30192 10.4226 3.1621 10.4155C2.63599 10.3824 2.25445 9.86505 2.37531 9.35479C2.47721 8.92012 2.84928 8.64373 3.29955 8.66736C3.72612 8.69098 4.06974 9.0217 4.1124 9.46346C4.12662 9.6052 4.1124 9.7493 4.1124 9.89576H4.45366C4.14795 8.9532 4.19298 8.02953 4.56741 7.1224C4.52001 7.11295 4.49869 7.10586 4.47736 7.1035C3.20001 6.98775 1.97481 8.05552 1.89897 9.33117C1.86579 9.89576 2.01509 10.3989 2.31606 10.8714C2.57675 11.2824 2.76159 11.7266 2.85876 12.2061C2.90141 12.4211 2.93222 12.6384 2.96777 12.8534H3.59341V10.4178L3.59578 10.4155ZM7.56052 3.94271C7.56052 4.20966 7.63398 4.46479 7.76432 4.69393C7.8212 4.79315 7.88518 4.83331 8.00605 4.82858C8.58429 4.8026 9.1412 4.91599 9.6673 5.15695C9.7692 5.20419 9.8403 5.19711 9.92798 5.13096C10.4849 4.71283 10.684 3.95925 10.3948 3.33087C10.1057 2.70013 9.41847 2.35051 8.74543 2.48989C8.05581 2.63163 7.56289 3.23874 7.56052 3.94271ZM12.4448 11.9085C12.4116 11.9297 12.3808 11.9415 12.3594 11.9628C12.1414 12.1849 11.9258 12.4093 11.7054 12.6313C11.6343 12.7022 11.6722 12.7518 11.7291 12.8061C12.3523 13.4085 12.9756 14.0086 13.5965 14.6133C13.6747 14.6889 13.7268 14.6818 13.7979 14.6086C13.9946 14.4007 14.1913 14.1952 14.3951 13.9968C14.4804 13.9141 14.4804 13.8574 14.3951 13.7747C13.7766 13.1818 13.1652 12.5864 12.549 11.9935C12.5182 11.9652 12.4827 11.9415 12.4471 11.9108L12.4448 11.9085ZM5.06271 11.0604V12.8487H5.66938C5.74048 12.5132 5.81158 12.1896 5.87793 11.8636C5.88504 11.8305 5.86608 11.7785 5.84001 11.7549C5.58407 11.521 5.32339 11.2919 5.06271 11.058V11.0604ZM4.13847 10.4273V12.8463H4.52001V10.4178C4.4347 10.4178 4.36123 10.4178 4.28777 10.4178C4.24037 10.4178 4.19298 10.4226 4.14084 10.4273H4.13847ZM2.98673 13.3802C2.96777 13.6778 3.01517 13.7274 3.29718 13.7274C3.99628 13.7274 4.69538 13.7274 5.39685 13.7274C5.64806 13.7274 5.71441 13.64 5.65517 13.3802H2.9891H2.98673ZM3.43463 14.2519C3.39434 14.5424 3.44174 14.5991 3.71901 14.5991C4.12662 14.5991 4.5366 14.5991 4.94421 14.5991C5.21438 14.5991 5.26888 14.5283 5.21438 14.2519H3.43463ZM3.59104 9.89576C3.59104 9.73749 3.60526 9.59811 3.5863 9.4611C3.56023 9.27447 3.39197 9.16108 3.19764 9.17762C3.0128 9.19179 2.87298 9.3477 2.87061 9.53197C2.87061 9.71859 3.00569 9.87686 3.19053 9.89104C3.3185 9.90049 3.44648 9.89104 3.5863 9.89104L3.59104 9.89576ZM11.1011 11.0509C10.9968 11.1691 10.9186 11.2588 10.8759 11.3108C11.1082 11.5659 11.3238 11.8045 11.549 12.0526C11.6461 11.951 11.7291 11.8636 11.7883 11.8022C11.5561 11.5494 11.3357 11.3084 11.1011 11.0509ZM4.77833 15.1259H3.87779C3.85172 15.426 3.89201 15.4708 4.17402 15.4708C4.27592 15.4708 4.37782 15.4708 4.47973 15.4708C4.76411 15.4708 4.79965 15.4307 4.77833 15.1259Z" fill="#410EAD"/>
<path d="M1.06946 7.90668C1.06472 8.13582 0.889354 8.26575 0.730575 8.19015C0.51492 8.08621 0.304004 7.96337 0.102568 7.83108C-0.0135544 7.75312 -0.0301431 7.6232 0.0480615 7.50272C0.123896 7.3846 0.240018 7.33972 0.367989 7.40823C0.567056 7.51217 0.763753 7.6232 0.95334 7.74604C1.01733 7.7862 1.04813 7.87597 1.06709 7.90668H1.06946Z" fill="#410EAD"/>
<path d="M4.58861 5.61301C4.58861 5.71459 4.59335 5.81617 4.58861 5.91775C4.5815 6.08075 4.47723 6.18941 4.3303 6.18941C4.18337 6.18941 4.07673 6.08311 4.07436 5.92011C4.06962 5.71695 4.06962 5.51379 4.07436 5.31063C4.0791 5.15708 4.181 5.05314 4.32082 5.04605C4.46538 5.04133 4.57913 5.14763 4.58861 5.30827C4.59335 5.40985 4.58861 5.51143 4.58861 5.61301Z" fill="#410EAD"/>
<path d="M2.24501 6.7303C2.20709 6.70196 2.12178 6.65943 2.07438 6.59093C1.96063 6.4232 1.86347 6.24367 1.7663 6.06413C1.6881 5.92003 1.73075 5.77593 1.85873 5.70269C1.98196 5.63182 2.12178 5.66726 2.20709 5.80191C2.32084 5.98381 2.42986 6.16807 2.52702 6.35942C2.61707 6.53896 2.48673 6.73739 2.24501 6.7303Z" fill="#410EAD"/>
<path d="M10.9326 8.65542C10.9326 10.2193 9.66478 11.4808 8.09595 11.4784C6.52949 11.4784 5.26399 10.2098 5.26636 8.64597C5.26636 7.08684 6.53896 5.82772 8.11254 5.83008C9.67189 5.83244 10.9326 7.09629 10.9326 8.65306V8.65542ZM10.416 8.65542C10.416 7.37976 9.38514 6.35215 8.1078 6.34979C6.82098 6.34979 5.78536 7.37976 5.78536 8.65778C5.78536 9.9358 6.82334 10.9658 8.11017 10.9634C9.38514 10.961 10.416 9.92871 10.416 8.65542Z" fill="#410EAD"/>
</svg>
