<svg width="16" height="15" viewBox="0 0 16 15" fill="none" xmlns="http://www.w3.org/2000/svg">
<path d="M16 14.2664C15.9891 14.2938 15.9763 14.3194 15.9672 14.3484C15.838 14.7516 15.4921 14.9975 15.0387 14.9992C13.8462 15.0009 12.6537 14.9992 11.4631 14.9992C10.1195 14.9992 8.77769 14.9992 7.43409 14.9992C6.755 14.9992 6.37996 14.6491 6.37814 14.0153C6.37814 13.9573 6.37814 13.9009 6.37814 13.8275H5.588C5.39502 13.8275 5.20203 13.8275 5.01087 13.8275C4.74506 13.8275 4.59577 13.7198 4.59941 13.5302C4.60123 13.3458 4.74688 13.2416 5.00359 13.2416C5.40412 13.2416 5.80465 13.2416 6.20518 13.2416H6.37814C6.37814 13.0776 6.38178 12.9221 6.37814 12.7684C6.37268 12.5617 6.43094 12.3755 6.5511 12.2013C6.57476 12.1654 6.57476 12.0903 6.5511 12.0561C6.43094 11.8819 6.3745 11.6957 6.37632 11.489C6.37996 11.0978 6.3836 10.7084 6.37632 10.3172C6.37086 10.0422 6.40363 9.78256 6.613 9.55538C6.27801 9.24278 5.94301 8.94386 5.62805 8.62614C5.48422 8.48266 5.33676 8.42971 5.12739 8.43141C4.21709 8.44166 3.30497 8.43483 2.39467 8.43654C1.35329 8.43654 0.63233 9.11638 0.63051 10.0969C0.63051 11.0927 0.63051 12.0886 0.63051 13.0844C0.63051 13.1322 0.63051 13.1801 0.63051 13.2416C0.961858 13.2416 1.27682 13.2416 1.59361 13.2416C1.75018 13.2416 1.90675 13.2398 2.0615 13.2416C2.27269 13.245 2.41288 13.3663 2.40923 13.5405C2.40559 13.7079 2.26905 13.8257 2.06514 13.8275C1.58086 13.8292 1.09658 13.8275 0.612304 13.8275C0.519453 13.8275 0.424782 13.8292 0.331932 13.8275C0.135307 13.8206 0.00786499 13.7079 0.00786499 13.5234C0.00786499 12.3123 -0.0139822 11.1012 0.0151474 9.89017C0.0424563 8.78329 1.07292 7.86602 2.2563 7.85406C3.18299 7.84381 4.10967 7.85235 5.03636 7.85064C5.0928 7.85064 5.14923 7.85064 5.22388 7.85064C5.22388 7.61834 5.2257 7.39457 5.22024 7.17251C5.22024 7.14176 5.182 7.10589 5.15288 7.08539C4.45923 6.59857 4.05323 5.95289 3.93672 5.14836C3.93672 5.13981 3.92761 5.13127 3.90941 5.10224C3.80381 5.10224 3.68547 5.10736 3.56713 5.10224C2.86985 5.06807 2.31274 4.5283 2.2909 3.86895C2.26905 3.21473 2.79884 2.64421 3.49431 2.57247C3.63268 2.5588 3.81474 2.5998 3.9003 2.53147C3.98405 2.46315 3.96585 2.28892 3.99862 2.16081C4.28445 1.03001 5.28214 0.182772 6.51104 0.0256222C6.54017 0.0222059 6.5693 0.00854074 6.59661 0C6.80416 0 7.01353 0 7.22108 0C7.24474 0.00854074 7.26841 0.0204977 7.29208 0.023914C8.61383 0.203269 9.59514 1.0693 9.86094 2.29404C9.89735 2.46258 10.0102 2.5514 10.1996 2.56051C11.1809 2.60663 11.8163 3.50683 11.4194 4.32503C11.3101 4.5505 11.2792 4.76402 11.2828 4.99804C11.2847 5.10053 11.2847 5.20302 11.2828 5.30551C11.2664 5.81795 10.8295 6.24499 10.2851 6.27402C10.0521 6.28598 9.81725 6.27402 9.58239 6.28427C9.52595 6.28598 9.44949 6.31844 9.41854 6.35943C9.21281 6.63957 8.96703 6.88042 8.67755 7.08539C8.64478 7.10931 8.60291 7.1503 8.60109 7.18447C8.59381 7.40311 8.59745 7.62004 8.59745 7.85235C8.67027 7.85235 8.72671 7.85235 8.78315 7.85235C9.69345 7.85235 10.6037 7.83869 11.514 7.85577C12.4935 7.87627 13.1999 8.31868 13.6187 9.15054C13.6624 9.23595 13.7079 9.26157 13.8025 9.25987C14.2231 9.25474 14.6455 9.25474 15.066 9.25987C15.4757 9.26328 15.8179 9.50413 15.949 9.86797C15.9636 9.90896 15.98 9.94996 15.9945 9.99095V11.6906C15.929 11.8204 15.8616 11.9485 15.8016 12.08C15.7888 12.1091 15.7888 12.1518 15.8016 12.1808C15.8616 12.3123 15.929 12.4404 15.9945 12.5703V14.2699L16 14.2664ZM8.68302 6.27744C8.53555 6.27744 8.41903 6.27744 8.30069 6.27744C7.86921 6.27744 7.43773 6.27915 7.00442 6.27402C6.82965 6.27061 6.70767 6.14933 6.70038 5.99731C6.6931 5.84699 6.81144 5.72059 6.98258 5.69838C7.03355 5.69155 7.08635 5.69325 7.13915 5.69325C7.74723 5.69325 8.35713 5.69155 8.96521 5.69496C9.06534 5.69496 9.12542 5.66934 9.14363 5.5771C9.19278 5.31917 9.27107 5.06295 9.28199 4.80331C9.30384 4.25329 9.28563 3.69985 9.2911 3.14982C9.2911 3.04221 9.25468 2.98072 9.15819 2.92776C8.79043 2.72449 8.34438 2.77061 8.00757 3.06442C7.69807 3.33601 7.33759 3.48633 6.91157 3.48804C6.47281 3.48974 6.10323 3.3343 5.78826 3.05417C5.5352 2.82698 5.23116 2.75695 4.89435 2.83723C4.57757 2.91239 4.53751 2.96193 4.54115 3.26427C4.54662 3.87408 4.50656 4.48901 4.57575 5.09199C4.6777 5.99047 5.23298 6.61395 6.13964 6.91116C7.05358 7.21009 7.88013 7.01536 8.58834 6.39189C8.61565 6.36626 8.63932 6.33552 8.68484 6.28427L8.68302 6.27744ZM11.1827 11.8358C12.4462 11.8358 13.7115 11.8358 14.975 11.8358C15.2718 11.8358 15.3755 11.7367 15.3755 11.4548C15.3755 11.0346 15.3755 10.6161 15.3755 10.1959C15.3755 9.95337 15.2608 9.84405 15.006 9.84405C12.4626 9.84405 9.91738 9.84405 7.37401 9.84405C7.11912 9.84405 7.00442 9.95337 7.00442 10.1959C7.00442 10.611 7.00442 11.0261 7.00442 11.4412C7.00442 11.7435 7.10274 11.8375 7.42134 11.8375C8.67573 11.8375 9.92831 11.8375 11.1827 11.8375V11.8358ZM11.2027 12.4216C9.92831 12.4216 8.65389 12.4216 7.37947 12.4216C7.12276 12.4216 7.00624 12.5293 7.00624 12.7701C7.00624 13.1954 7.00624 13.6191 7.00624 14.0444C7.00624 14.3126 7.11548 14.4151 7.40314 14.4151C9.93195 14.4151 12.4608 14.4151 14.9877 14.4151C15.2663 14.4151 15.3755 14.3126 15.3774 14.0512C15.3774 13.6361 15.3774 13.2211 15.3774 12.806C15.3774 12.5173 15.2736 12.4216 14.9641 12.4216C13.7097 12.4216 12.4571 12.4216 11.2027 12.4216ZM4.63218 2.28208C5.31855 2.14543 5.76278 2.24109 6.21064 2.61859C6.66397 2.99951 7.15371 2.99951 7.60158 2.61347C7.92929 2.33333 8.31161 2.19497 8.75584 2.22059C8.90877 2.22913 9.05806 2.25988 9.21099 2.28038C8.98341 1.25549 7.90016 0.514152 6.7459 0.585894C5.73183 0.649096 4.69226 1.47755 4.63218 2.28038V2.28208ZM7.54878 9.24791H12.9596C12.9596 9.23083 12.9632 9.22058 12.9596 9.21204C12.9487 9.18983 12.9341 9.16933 12.9195 9.14884C12.5918 8.69959 12.1367 8.44679 11.5577 8.43996C10.5437 8.42629 9.52959 8.43483 8.51552 8.43654C8.46819 8.43654 8.40628 8.44679 8.37533 8.47583C8.10407 8.72351 7.83826 8.97631 7.54878 9.2462V9.24791ZM7.9748 7.4424C7.25931 7.67812 6.5602 7.67812 5.85017 7.44069C5.85017 7.59784 5.85563 7.73962 5.84834 7.87968C5.84288 7.97534 5.87747 8.04367 5.9503 8.10858C6.136 8.27256 6.31442 8.44337 6.49284 8.61419C6.62938 8.74571 6.76411 8.88066 6.90247 9.01902C7.25749 8.68422 7.59066 8.37505 7.91836 8.06246C7.94749 8.03512 7.96934 7.9873 7.97116 7.94972C7.97662 7.78915 7.97298 7.62859 7.97298 7.44069L7.9748 7.4424ZM9.9192 4.5078C10.2942 4.54709 10.6147 4.49243 10.8113 4.173C10.966 3.92191 10.9497 3.66568 10.7712 3.42996C10.5619 3.15324 10.2578 3.11395 9.9192 3.15153V4.5078ZM3.90395 4.5078V3.14982C3.54893 3.11395 3.23761 3.16349 3.03552 3.46071C2.8662 3.7101 2.87167 3.97144 3.04644 4.21571C3.25217 4.50438 3.55985 4.54538 3.90395 4.5078ZM10.6474 5.05953C10.429 5.07491 10.2123 5.08686 9.99749 5.10736C9.95926 5.11078 9.89918 5.13811 9.89371 5.16373C9.85184 5.33284 9.82089 5.50365 9.7863 5.67447C10.4454 5.77695 10.7458 5.55319 10.6493 5.05953H10.6474Z" fill="#410EAD"/>
<path d="M3.81651 13.5321C3.81651 13.6927 3.67268 13.8294 3.49973 13.8277C3.33405 13.826 3.19569 13.6944 3.19386 13.539C3.19204 13.3784 3.33769 13.2418 3.50883 13.2452C3.6745 13.2486 3.81287 13.3784 3.81469 13.5339L3.81651 13.5321Z" fill="#410EAD"/>
<path d="M9.54952 10.5459C10.0065 10.5459 10.4653 10.5459 10.9223 10.5459C11.1535 10.5459 11.2937 10.6552 11.2991 10.8312C11.3046 11.0139 11.1589 11.1318 10.9223 11.1318C10.012 11.1318 9.10166 11.1318 8.19136 11.1318C7.95286 11.1318 7.81085 11.0173 7.81631 10.8312C7.81996 10.6535 7.96014 10.5459 8.19136 10.5459C8.64469 10.5459 9.09619 10.5459 9.54952 10.5459Z" fill="#410EAD"/>
<path d="M12.3096 10.8433C12.306 10.681 12.4371 10.5512 12.6064 10.546C12.7794 10.5409 12.9305 10.6776 12.9286 10.8398C12.9286 10.9953 12.7848 11.1285 12.6191 11.1302C12.4498 11.1302 12.3115 11.0055 12.3096 10.8433Z" fill="#410EAD"/>
<path d="M14.2595 11.1304C14.0884 11.1338 13.9409 10.9972 13.9409 10.8383C13.9409 10.6829 14.0811 10.5513 14.2468 10.5479C14.4143 10.5445 14.5563 10.6692 14.5636 10.8263C14.5708 10.9886 14.4343 11.1287 14.2595 11.1321V11.1304Z" fill="#410EAD"/>
<path d="M9.56607 13.7099C9.1091 13.7099 8.65031 13.7099 8.19334 13.7099C7.95302 13.7099 7.81283 13.5955 7.81648 13.411C7.82012 13.2333 7.95848 13.1257 8.19152 13.124C9.10182 13.124 10.0121 13.124 10.9224 13.124C11.1591 13.124 11.3047 13.2419 11.2993 13.4229C11.2938 13.6006 11.1536 13.7082 10.9242 13.7099C10.4709 13.7099 10.0194 13.7099 9.56607 13.7099Z" fill="#410EAD"/>
<path d="M12.3096 13.4103C12.3133 13.2497 12.4517 13.1233 12.621 13.125C12.7885 13.1267 12.9286 13.26 12.9305 13.4171C12.9305 13.5794 12.7794 13.716 12.6064 13.7092C12.4371 13.7041 12.306 13.5726 12.3096 13.4103Z" fill="#410EAD"/>
<path d="M14.5636 13.4137C14.5636 13.576 14.4216 13.7109 14.2486 13.7092C14.0829 13.7075 13.9428 13.576 13.9409 13.4205C13.9391 13.26 14.0866 13.1233 14.2577 13.125C14.4252 13.1267 14.5618 13.2565 14.5636 13.4137Z" fill="#410EAD"/>
</svg>
