<svg width="15" height="16" viewBox="0 0 15 16" fill="none" xmlns="http://www.w3.org/2000/svg">
<path d="M5.11956 13.8744C5.187 13.3369 5.25444 12.8147 5.32189 12.2741H5.11649C3.62661 12.2741 2.13673 12.2741 0.646843 12.2741C0.20233 12.2741 0 12.0756 0 11.6358C0 8.32525 0 5.01164 0 1.70109C0 1.27353 0.20233 1.06891 0.63458 1.06891C2.19804 1.06891 3.75843 1.06891 5.32189 1.06891C5.3832 1.06891 5.44451 1.06891 5.50583 1.06891L5.4813 1.04142C5.6591 0.861233 5.82465 0.665776 6.01778 0.503913C6.07909 0.451995 6.21705 0.458103 6.30595 0.482535C6.41018 0.510021 6.49908 0.589426 6.59718 0.644398C6.76272 0.742126 6.84549 0.708532 6.89454 0.516129C6.91907 0.418401 6.94053 0.320672 6.96812 0.225997C7.00797 0.0794044 7.103 0 7.25935 0C7.42183 0 7.5843 0 7.74372 0C7.90006 0 7.9951 0.0763503 8.03495 0.222943C8.05947 0.320672 8.084 0.418401 8.10852 0.513075C8.15757 0.702424 8.24034 0.739072 8.40589 0.641344C8.50092 0.586372 8.59289 0.510021 8.69405 0.476427C8.77376 0.44894 8.90558 0.43367 8.95769 0.476427C9.15389 0.641344 9.32863 0.836801 9.51257 1.01699C9.50337 1.03226 9.49418 1.04753 9.48191 1.05974C9.54322 1.05974 9.60147 1.05974 9.66278 1.05974C11.2293 1.05974 12.7989 1.05974 14.3654 1.05974C14.7977 1.05974 15 1.26131 15 1.69193C15 5.00248 15 8.31609 15 11.6266C15 12.0664 14.8007 12.2649 14.3532 12.2649C12.8633 12.2649 11.3734 12.2649 9.88351 12.2649H9.67811C9.74556 12.8055 9.813 13.3277 9.88044 13.8652C10.2269 13.8652 10.5671 13.8652 10.9044 13.8652C11.3029 13.8652 11.5175 14.076 11.5175 14.4699C11.5175 14.7937 11.5175 15.1143 11.5175 15.4381C11.5144 15.7801 11.2937 16 10.9473 16C8.64807 16 6.35193 16 4.05273 16C3.70938 16 3.48559 15.7771 3.48253 15.4381C3.48253 15.0991 3.47946 14.7601 3.48253 14.4211C3.48559 14.0943 3.71245 13.8713 4.04353 13.8683C4.39914 13.8683 4.75475 13.8683 5.11956 13.8683V13.8744ZM1.61251 9.59267H13.3844V2.67837H9.91723C9.88657 2.83718 9.78847 2.91964 9.63213 2.94713C9.54016 2.9624 9.44819 2.98988 9.35622 3.01737C9.21214 3.06013 9.17229 3.14869 9.24586 3.27696C9.30411 3.37774 9.36542 3.47547 9.42367 3.57625C9.49418 3.69842 9.48191 3.81141 9.38381 3.9122C9.26425 4.03741 9.14163 4.15652 9.01594 4.27868C8.91171 4.38251 8.79215 4.39168 8.66646 4.31838C8.5653 4.2573 8.4672 4.19622 8.36603 4.14125C8.24647 4.07406 8.15144 4.11376 8.11465 4.24509C8.08093 4.35808 8.05947 4.47108 8.02882 4.58408C7.98896 4.72456 7.90006 4.80092 7.74985 4.80397C7.58124 4.80397 7.4157 4.80397 7.24709 4.80397C7.09074 4.80397 6.99877 4.72151 6.96199 4.57492C6.93746 4.47414 6.91294 4.3703 6.88535 4.26646C6.84243 4.10155 6.75046 4.0649 6.60331 4.15346C6.09442 4.46192 6.1404 4.44665 5.72961 4.03436C5.46904 3.77171 5.45678 3.74423 5.65297 3.43882C5.86143 3.11204 5.83384 3.03875 5.45064 2.96545C5.2759 2.93186 5.1073 2.88605 5.07971 2.67837H1.61864V5.33537C1.74433 5.33537 1.85469 5.32926 1.96505 5.33537C2.56898 5.38118 3.13611 5.27123 3.69712 5.02386C4.40834 4.7093 5.16554 4.69097 5.87676 5.00553C6.50828 5.28345 7.14592 5.38423 7.82342 5.33537C8.29859 5.30178 8.69099 5.44531 8.95463 5.86982C9.00981 5.83928 9.05886 5.81485 9.10791 5.78736C9.59534 5.50639 10.0828 5.22542 10.5702 4.94445C10.7879 4.81924 11.0178 4.74594 11.2722 4.77954C11.7474 4.84367 12.1091 5.1674 12.2072 5.61328C12.3053 6.06528 12.1153 6.51727 11.6922 6.7677C10.5855 7.42126 9.47578 8.07177 8.3599 8.71006C7.74372 9.06432 7.06622 9.24451 6.35806 9.19565C5.61312 9.14678 4.87431 9.02462 4.13243 8.95438C3.61128 8.90552 3.0932 8.74365 2.55671 8.86581C2.24402 8.93911 1.9252 8.97576 1.60944 9.03073V9.58962L1.61251 9.59267ZM9.91723 2.13476C11.0638 2.13476 12.1919 2.13476 13.317 2.13476C13.7124 2.13476 13.927 2.34549 13.927 2.74251C13.927 5.00553 13.927 7.26551 13.927 9.52854C13.927 9.92556 13.7155 10.1393 13.3201 10.1393C9.43593 10.1393 5.55487 10.1393 1.67075 10.1393C1.28449 10.1393 1.07296 9.92556 1.07296 9.5377C1.07296 8.63676 1.07296 7.73583 1.07296 6.83795C1.07296 5.46669 1.07296 4.09238 1.07296 2.72113C1.07296 2.36076 1.29368 2.14087 1.65543 2.13781C1.83323 2.13781 2.01104 2.13781 2.19191 2.13781C3.15144 2.13781 4.11098 2.13781 5.07971 2.13781C5.11036 1.95152 5.23605 1.88127 5.40466 1.85073C5.4813 1.83852 5.56101 1.8263 5.63151 1.79271C5.69896 1.75911 5.75414 1.69803 5.81239 1.64917C5.80319 1.63695 5.79399 1.62474 5.78173 1.61252H0.548743V11.7244H14.4543V1.61252H9.21827C9.21827 1.6339 9.21827 1.64306 9.21827 1.65528C9.26119 1.82936 9.42367 1.80187 9.54322 1.83241C9.7149 1.88127 9.88657 1.91182 9.92029 2.13781L9.91723 2.13476ZM6.168 6.93567C6.75659 6.93567 7.32373 6.93567 7.89393 6.93567C8.32312 6.93567 8.57449 6.73716 8.57143 6.39817C8.57143 6.06528 8.32005 5.86982 7.90313 5.86982C7.72532 5.86982 7.54445 5.85761 7.36665 5.86982C6.87615 5.91258 6.41938 5.81485 5.97793 5.60412C5.2054 5.23764 4.42367 5.24069 3.6542 5.61023C3.22808 5.81485 2.78663 5.90952 2.31453 5.87288C2.08461 5.85455 1.85162 5.86982 1.61557 5.86982V8.48406C1.82403 8.45047 2.02023 8.41687 2.21643 8.38633C2.48621 8.34663 2.76211 8.25806 3.02575 8.28555C3.95769 8.37717 4.88657 8.50239 5.81239 8.6276C6.6217 8.73754 7.3973 8.64898 8.11159 8.24279C9.21827 7.61061 10.3158 6.96316 11.4163 6.31876C11.6983 6.15385 11.7811 5.83317 11.6248 5.57358C11.4684 5.31399 11.1527 5.23764 10.8676 5.3995C10.3127 5.71712 9.75782 6.03474 9.20601 6.36152C9.16002 6.389 9.11711 6.45619 9.10791 6.51117C9.01288 7.10059 8.58982 7.47013 7.98896 7.47013C7.43102 7.47013 6.87308 7.47013 6.31514 7.47013C6.26609 7.47013 6.22011 7.46402 6.168 7.46097V6.93567ZM10.9749 14.415H4.03434V15.4625H10.9749V14.415ZM5.86144 12.2741C5.79399 12.8085 5.72961 13.3308 5.66217 13.8622H9.3409C9.27345 13.3277 9.20601 12.8024 9.14163 12.2741H5.8645H5.86144ZM6.37339 3.25253C6.33354 3.32583 6.26303 3.44493 6.20172 3.56709C6.18026 3.60985 6.18026 3.66482 6.17106 3.71369C6.22624 3.70758 6.27836 3.70452 6.33047 3.69231C6.36113 3.68315 6.38872 3.66177 6.41631 3.64039C6.58492 3.50907 6.75659 3.48769 6.94053 3.6068C6.97118 3.62817 7.01104 3.64344 7.04782 3.6526C7.25322 3.68925 7.34519 3.81752 7.38197 4.01603C7.3973 4.1046 7.45555 4.184 7.4954 4.26646C7.53832 4.18095 7.6027 4.09849 7.62109 4.00993C7.65788 3.82058 7.74678 3.69231 7.94298 3.65566C7.97977 3.64955 8.01962 3.63428 8.05028 3.6129C8.24034 3.48769 8.41202 3.51517 8.58982 3.64344C8.6542 3.68925 8.7431 3.69842 8.82281 3.72285C8.79828 3.6465 8.79215 3.55793 8.74923 3.4938C8.62354 3.31666 8.58063 3.14564 8.71245 2.95629C8.72777 2.93491 8.74004 2.90742 8.7431 2.87994C8.78602 2.65089 8.93317 2.54705 9.15389 2.5104C9.23053 2.49819 9.29798 2.44016 9.37155 2.40351C9.30104 2.36686 9.2336 2.30884 9.15696 2.29662C8.93624 2.25692 8.78295 2.15919 8.7431 1.92709C8.73697 1.89654 8.72471 1.86295 8.70632 1.83546C8.59289 1.66444 8.61435 1.50563 8.73084 1.34071C8.78296 1.26742 8.79522 1.16969 8.82587 1.08418C8.73697 1.11472 8.645 1.13304 8.5653 1.1758C8.43961 1.24604 8.32925 1.30407 8.17597 1.25215C7.86327 1.1422 7.58737 1.01088 7.58124 0.619966C7.58124 0.613858 7.58124 0.607749 7.57511 0.604695C7.55058 0.583317 7.52299 0.540561 7.49847 0.543615C7.47394 0.543615 7.43716 0.583317 7.42796 0.610804C7.3973 0.69937 7.38811 0.797098 7.35438 0.882611C7.32679 0.952853 7.29001 1.04753 7.23176 1.07196C6.94666 1.19718 6.65849 1.41706 6.34273 1.12388C6.30595 1.09028 6.22931 1.09945 6.17106 1.09028C6.18332 1.14526 6.18026 1.20939 6.21091 1.24909C6.37339 1.45677 6.42857 1.67055 6.26303 1.90265C6.24463 1.93014 6.23544 1.96373 6.22931 1.99733C6.19559 2.15919 6.09136 2.2447 5.93194 2.27219C5.86757 2.28441 5.80012 2.29662 5.73881 2.32105C5.69589 2.33938 5.66524 2.38213 5.62845 2.41267C5.66524 2.43711 5.69896 2.46765 5.73881 2.48902C5.7664 2.50429 5.80319 2.50429 5.83691 2.51346C6.11588 2.5837 6.36726 2.90742 6.37646 3.25864L6.37339 3.25253Z" fill="#410EAD"/>
<path d="M12.3267 11.1958V10.6797H12.8478V11.1958H12.3267Z" fill="#410EAD"/>
<path d="M7.50156 1.33496C8.09323 1.33496 8.57146 1.8175 8.56839 2.40998C8.56533 2.99024 8.08403 3.46667 7.50156 3.46972C6.9099 3.46972 6.4286 2.99329 6.42554 2.40387C6.42554 1.81444 6.90684 1.33496 7.50156 1.33802V1.33496ZM8.03191 2.40387C8.03191 2.11374 7.79586 1.87247 7.50463 1.86636C7.2134 1.86025 6.96815 2.09541 6.96202 2.38554C6.95589 2.68484 7.19807 2.92916 7.4985 2.92916C7.78973 2.92916 8.03191 2.69095 8.03191 2.40081V2.40387Z" fill="#410EAD"/>
</svg>
