<svg width="16" height="16" viewBox="0 0 16 16" fill="none" xmlns="http://www.w3.org/2000/svg">
<path d="M11.5245 10.6953V11.7876C11.582 11.7903 11.6395 11.7956 11.6945 11.7956C12.045 11.7956 12.3929 11.7956 12.7434 11.7956C13.0076 11.7956 13.2561 11.8461 13.4784 12.0002C13.7531 12.1916 13.9126 12.4494 13.9074 12.7975C13.9048 12.9676 13.9074 13.1351 13.9074 13.3051C13.9074 13.6427 13.8446 13.7091 13.515 13.7091C11.9927 13.7091 10.4703 13.7091 8.94794 13.7091H8.74391C8.77792 13.7755 8.80408 13.826 8.83285 13.8765C9.14412 14.44 9.33246 15.0459 9.40831 15.6864C9.42924 15.8671 9.32199 15.9894 9.14151 16C9.11012 16 9.07611 16 9.04472 16C6.15171 16 3.25869 16 0.363056 16C0.0570138 16 -0.0371532 15.891 0.012546 15.5881C0.34213 13.6028 1.44336 12.2846 3.31885 11.6308C3.34501 11.6229 3.36855 11.6096 3.39209 11.5989C3.39209 11.5989 3.39471 11.591 3.39471 11.5883C3.24038 11.4607 3.0782 11.3438 2.93957 11.2029C2.20716 10.4801 1.98482 9.38777 2.36149 8.42305C2.39288 8.34066 2.41119 8.24499 2.41119 8.15463C2.4138 6.26504 2.41119 4.3728 2.41119 2.48321C2.41119 1.64339 2.93172 1.10655 3.7583 1.10655C5.68349 1.10655 7.60868 1.10655 9.53387 1.10655C9.63588 1.10655 9.71174 1.10123 9.7876 0.992268C9.91315 0.816863 10.0806 0.676008 10.2375 0.524522C10.3421 0.420874 10.4625 0.450108 10.5828 0.505919C10.8365 0.620197 11.1216 0.503261 11.2184 0.234839C11.2786 0.0674068 11.3832 -0.00966476 11.5585 0.000965829C11.7206 0.00893877 11.8802 0.00628112 12.0424 0.000965829C12.2045 -0.00434947 12.3013 0.0700647 12.3589 0.224208C12.4661 0.511234 12.7382 0.622855 13.018 0.497945C13.1645 0.431504 13.2875 0.450108 13.3947 0.57236C13.5438 0.737134 13.6903 0.901908 13.8472 1.05871C13.8786 1.0906 13.9414 1.10389 13.9885 1.10389C14.2291 1.1092 14.4724 1.10389 14.7157 1.10655C15.469 1.11984 15.9974 1.66465 16 2.43271C16 4.49239 16 6.55206 16 8.61174C16 8.86953 16 9.12467 16 9.38246C15.9948 10.1346 15.4507 10.6874 14.7157 10.69C13.7217 10.6927 12.7251 10.69 11.7311 10.69C11.6683 10.69 11.6029 10.69 11.5245 10.69V10.6953ZM14.6346 8.4576V2.50181H14.3155C14.3155 2.61343 14.3128 2.71177 14.3155 2.8101C14.3207 2.98019 14.2448 3.08384 14.0879 3.1423C13.8159 3.24595 13.7008 3.53032 13.8237 3.8014C13.8943 3.96086 13.8682 4.08311 13.7478 4.19739C13.6301 4.30901 13.515 4.42595 13.4052 4.54554C13.2901 4.67311 13.1645 4.6864 13.0128 4.6173C12.7486 4.4977 12.4687 4.61464 12.3667 4.89104C12.3066 5.05315 12.2045 5.12491 12.0371 5.11694C11.875 5.11162 11.7154 5.11162 11.5532 5.11694C11.3832 5.12491 11.2838 5.04518 11.2263 4.88572C11.1242 4.60932 10.8444 4.49505 10.5776 4.6173C10.4258 4.6864 10.3003 4.66779 10.1852 4.54023C10.0753 4.42063 9.96285 4.3037 9.84253 4.19207C9.71697 4.07514 9.70128 3.94757 9.7719 3.79343C9.89223 3.52235 9.77452 3.24595 9.49987 3.13699C9.35077 3.07852 9.27229 2.98285 9.28276 2.81541C9.28799 2.70911 9.28276 2.6028 9.28276 2.4965H3.78184V6.98526C3.83939 6.96932 3.88385 6.95603 3.93094 6.94008C5.14464 6.54675 6.45252 7.1208 6.98352 8.29282C7.04106 8.42039 7.10646 8.45228 7.23463 8.45228C9.6385 8.44963 12.0424 8.45228 14.4462 8.45228H14.6346V8.4576ZM8.83808 15.4738C8.64452 13.9191 7.19278 11.9976 4.79152 11.9497C2.37457 11.9019 0.792039 13.7862 0.569701 15.4738H8.83808ZM2.70415 9.38246C2.70415 10.5066 3.59612 11.4156 4.69997 11.4209C5.80381 11.4235 6.70886 10.5146 6.71148 9.39575C6.71409 8.26625 5.81689 7.34936 4.7052 7.34936C3.60397 7.34936 2.70677 8.26093 2.70415 9.38246ZM13.8159 1.64339C13.8891 1.94636 13.9152 1.96762 14.1925 1.96762C14.3442 1.96762 14.4933 1.96762 14.645 1.96762C15.0374 1.96762 15.163 2.09785 15.163 2.49915C15.163 4.52162 15.163 6.54143 15.163 8.5639C15.163 8.91737 15.0976 8.98381 14.7497 8.98381C12.3039 8.98381 9.85561 8.98381 7.40988 8.98381H7.23986C7.20847 9.39309 7.17708 9.77845 7.14831 10.1718H7.29217C9.7379 10.1718 12.1862 10.1718 14.632 10.1718C15.197 10.1718 15.4847 9.87944 15.4847 9.30539C15.4847 7.13143 15.4847 4.95748 15.4847 2.78352C15.4847 2.64267 15.4899 2.49915 15.4847 2.3583C15.469 1.98889 15.1813 1.66465 14.8281 1.64871C14.4959 1.63276 14.1637 1.64605 13.8159 1.64605V1.64339ZM13.3921 13.1882C13.3921 13.0686 13.3921 12.965 13.3921 12.864C13.3921 12.5823 13.2927 12.4414 13.0259 12.3643C12.9291 12.3351 12.8245 12.3271 12.7251 12.3271C11.0327 12.3271 9.3403 12.3271 7.64792 12.3271C7.60606 12.3271 7.5616 12.3351 7.53021 12.3378C7.78655 12.5902 8.04028 12.8347 8.28093 13.0872C8.35155 13.1616 8.41433 13.1935 8.51373 13.1909C9.66466 13.1882 10.813 13.1909 11.9639 13.1909H13.3921V13.1882ZM10.9961 10.7086H7.42558V11.7876H10.9961V10.7086ZM2.93434 7.53539C3.16975 7.40783 3.26915 7.25368 3.26654 6.97729C3.24823 5.48635 3.25869 3.99541 3.25869 2.50181C3.25869 2.09253 3.38425 1.96762 3.7923 1.96762C5.66779 1.96762 7.5459 1.96762 9.42139 1.96762C9.68035 1.96762 9.72482 1.9251 9.77452 1.64605C9.73267 1.64339 9.69081 1.63808 9.64896 1.63808C7.67669 1.63808 5.7018 1.63808 3.72952 1.63808C3.24038 1.63808 2.93957 1.95434 2.93957 2.45132C2.93957 4.0964 2.93957 5.74148 2.93957 7.38391C2.93957 7.43175 2.93957 7.47693 2.93957 7.53274L2.93434 7.53539ZM13.8446 2.58951C13.7949 2.50713 13.7766 2.4274 13.74 2.41942C13.502 2.36361 13.4209 2.18821 13.3686 1.9756C13.3502 1.89853 13.3136 1.82145 13.2692 1.75236C13.1828 1.61416 13.1671 1.47862 13.2535 1.33776C13.3058 1.25272 13.2849 1.19425 13.2168 1.12515C13.1488 1.05871 13.0939 1.03213 13.0076 1.08529C12.8689 1.17033 12.7382 1.15704 12.5995 1.072C12.4949 1.00821 12.3772 0.960376 12.2595 0.928485C12.1078 0.88862 12.011 0.806233 11.9717 0.654747C11.9482 0.564387 11.9011 0.52718 11.8017 0.52718C11.6971 0.52718 11.6422 0.559072 11.6186 0.660062C11.582 0.814206 11.48 0.891278 11.3283 0.931142C11.2158 0.960376 11.1007 1.00556 11.0013 1.06668C10.8574 1.15704 10.7214 1.17565 10.5802 1.08263C10.4912 1.02416 10.4363 1.06934 10.3735 1.13047C10.3081 1.19159 10.2872 1.2474 10.3369 1.32713C10.4258 1.4733 10.4075 1.6115 10.3212 1.75767C10.261 1.85866 10.2192 1.9756 10.1878 2.08988C10.1486 2.24136 10.0701 2.34501 9.921 2.38487C9.82945 2.40879 9.79283 2.45663 9.79544 2.55762C9.79544 2.66127 9.82422 2.7224 9.92623 2.74632C10.0727 2.78086 10.146 2.88185 10.1878 3.02537C10.2244 3.15559 10.2767 3.28316 10.3421 3.4001C10.4128 3.52766 10.4206 3.64726 10.3526 3.77217C10.3055 3.85721 10.2977 3.92099 10.3788 3.99807C10.4546 4.06982 10.5148 4.08843 10.6037 4.03527C10.7371 3.95289 10.8627 3.97415 10.9961 4.05388C11.1007 4.11766 11.2184 4.1655 11.3361 4.19739C11.4852 4.23725 11.5872 4.31698 11.6239 4.47113C11.6474 4.57478 11.7102 4.59869 11.8096 4.59869C11.9116 4.59869 11.9534 4.55883 11.977 4.46847C12.0162 4.31698 12.1156 4.23725 12.2673 4.19739C12.385 4.1655 12.5027 4.11766 12.6074 4.05388C12.7408 3.97415 12.8663 3.95289 12.9997 4.03793C13.0861 4.09374 13.1488 4.07514 13.2221 4.00072C13.2927 3.92897 13.3032 3.8705 13.2561 3.78811C13.175 3.65257 13.1881 3.52501 13.2665 3.38681C13.3293 3.2805 13.379 3.16091 13.4078 3.04131C13.447 2.88185 13.5333 2.78884 13.6851 2.73303C13.7426 2.71177 13.7871 2.64267 13.8472 2.5842L13.8446 2.58951ZM6.00261 11.6069C6.30342 11.6813 6.57023 11.8753 6.88935 11.7797V10.7086C6.7481 10.8814 6.62777 11.0488 6.48391 11.195C6.34004 11.3411 6.17525 11.4607 6.00261 11.6069Z" fill="#410EAD"/>
<path d="M6.16663 3.23997C6.8882 3.22506 7.52054 3.78192 7.57153 4.48547C7.57918 4.58242 7.61998 4.62717 7.69902 4.67192C8.13247 4.91058 8.56338 5.15421 8.99173 5.40032C9.07843 5.45004 9.14217 5.44756 9.23396 5.40778C10.1595 5.00256 11.1947 5.64147 11.1998 6.62096C11.1998 6.91431 11.0188 7.02121 10.7612 6.87702C10.5241 6.74526 10.2895 6.61101 10.0524 6.47926C9.96573 6.42953 9.74646 6.49666 9.69801 6.58367C9.64957 6.66819 9.70311 6.87453 9.7847 6.92177C10.0244 7.0585 10.2666 7.19026 10.5063 7.32947C10.7536 7.47118 10.7485 7.68 10.4986 7.82171C9.62662 8.31145 8.50983 7.73967 8.42824 6.76018C8.42059 6.66819 8.39 6.61599 8.30841 6.57124C7.88005 6.33507 7.45169 6.09641 7.02844 5.85278C6.93155 5.79809 6.85761 5.79311 6.75562 5.83786C5.81987 6.2406 4.78467 5.57932 4.79997 4.59485C4.80507 4.32885 4.98355 4.22444 5.22068 4.35371C5.4629 4.48547 5.70258 4.62468 5.94225 4.75893C6.09779 4.84594 6.29922 4.72164 6.31451 4.54513C6.32471 4.41586 6.27882 4.34376 6.15898 4.2841C5.93205 4.16974 5.71278 4.03798 5.49095 3.9112C5.25382 3.77447 5.24873 3.54824 5.49605 3.4314C5.70258 3.33195 5.93205 3.27726 6.15133 3.2002C6.15643 3.21511 6.16153 3.22754 6.16663 3.24246V3.23997ZM5.47565 5.06222C5.73062 5.48236 6.25587 5.58429 6.68932 5.31331C6.80661 5.23873 6.91625 5.22133 7.03864 5.29094C7.61743 5.61909 8.19877 5.94476 8.78011 6.27043C8.88465 6.33009 8.93819 6.41462 8.92799 6.53643C8.92289 6.59113 8.92289 6.6483 8.92799 6.70548C8.95604 7.13308 9.34615 7.5035 9.77705 7.48609C9.62407 7.39908 9.49148 7.31704 9.35635 7.24744C9.24161 7.18777 9.19061 7.09827 9.19061 6.97397C9.19061 6.80492 9.19061 6.63588 9.19061 6.46931C9.19061 6.34501 9.24671 6.258 9.3589 6.19585C9.50168 6.12127 9.64192 6.04172 9.7796 5.95719C9.90709 5.88012 10.0218 5.8851 10.1468 5.96216C10.2717 6.03923 10.4043 6.10884 10.5675 6.19834C10.2946 5.76328 9.74646 5.65141 9.3181 5.92239C9.18806 6.00443 9.07333 6.01188 8.94074 5.93482C8.3798 5.61412 7.81886 5.2984 7.25282 4.98516C7.11768 4.91058 7.05904 4.81114 7.07433 4.65949C7.09728 4.41089 7.01059 4.19709 6.84231 4.01312C6.68677 3.84407 6.493 3.75458 6.25587 3.75209C6.37826 3.8391 6.50574 3.91617 6.63578 3.98578C6.76072 4.05041 6.81681 4.14986 6.81426 4.2841C6.81426 4.44321 6.81426 4.59982 6.81426 4.75893C6.81426 4.8882 6.75817 4.98267 6.64088 5.04482C6.49299 5.12437 6.34766 5.20393 6.20488 5.28845C6.09524 5.35309 5.9907 5.35309 5.87851 5.28845C5.74592 5.21139 5.60824 5.13681 5.4731 5.06222H5.47565Z" fill="#410EAD"/>
<path d="M10.4003 2.39388C10.4003 1.51419 11.1183 0.799805 11.9988 0.799805C12.8764 0.799805 13.5973 1.52009 13.6003 2.39683C13.6003 3.27948 12.8734 4.00567 11.987 3.99977C11.1065 3.99386 10.3973 3.27653 10.4003 2.39388ZM11.9958 1.38135C11.4344 1.38135 10.9824 1.84186 10.9853 2.40569C10.9853 2.96067 11.4403 3.41232 11.9929 3.41527C12.5543 3.41527 13.0152 2.96067 13.0182 2.39979C13.0182 1.84186 12.5572 1.3784 11.9958 1.38135Z" fill="#410EAD"/>
</svg>
