<svg width="15" height="15" viewBox="0 0 15 15" fill="none" xmlns="http://www.w3.org/2000/svg">
<path d="M14.9952 14.149C14.9079 14.3066 14.7771 14.3575 14.5978 14.3575C11.2493 14.3526 7.90083 14.3551 4.55234 14.3551C4.2519 14.3551 4.15983 14.2629 4.15983 13.9599C4.15983 13.5647 4.15014 13.1695 4.16467 12.7743C4.17194 12.578 4.00234 12.5973 3.90784 12.527C3.81577 12.4567 3.77943 12.5586 3.73582 12.6046C3.08889 13.2907 2.44682 13.9793 1.7999 14.6654C1.43888 15.046 0.898569 15.1066 0.467289 14.823C0.0505452 14.5466 -0.121483 13.9962 0.0917347 13.5453C0.154731 13.4071 0.258916 13.2786 0.367948 13.1744C1.04637 12.527 1.73206 11.887 2.41774 11.2494C2.49285 11.1791 2.50012 11.1306 2.45167 11.0409C1.51399 9.24679 2.21664 7.07934 4.03626 6.16048C4.1356 6.10957 4.16225 6.05623 4.16225 5.94956C4.15983 4.09971 4.16225 2.24745 4.15741 0.397607C4.15741 0.218199 4.20586 0.0848551 4.36578 0C6.96315 0 9.56053 0 12.1579 0C12.2354 0.0654597 12.3178 0.12607 12.3881 0.198803C13.1925 1.00129 13.9969 1.8062 14.8013 2.61111C14.8716 2.68385 14.9346 2.76385 15 2.84143V14.1514L14.9952 14.149ZM14.3991 13.7611V3.21965C14.3361 3.21965 14.2828 3.21965 14.2295 3.21965C13.5366 3.21965 12.8436 3.21965 12.1506 3.21965C11.872 3.21965 11.7751 3.12024 11.7751 2.83901C11.7751 2.14077 11.7751 1.44254 11.7751 0.744301V0.591562H4.75345V5.89379C5.18473 5.78227 5.61843 5.76288 6.05213 5.81136C6.48826 5.85985 6.90016 5.99077 7.28783 6.19443C7.67065 6.39808 8.00986 6.65992 8.29819 6.98237C8.59136 7.30966 8.81669 7.67818 8.97418 8.08791C9.13167 8.49764 9.21405 8.92191 9.21163 9.36073C9.20678 10.3838 8.84335 11.2639 8.10193 11.9646C7.15457 12.8592 6.02548 13.1283 4.75587 12.864V13.7635H14.4015L14.3991 13.7611ZM2.62127 9.36316C2.61158 11.0142 3.95146 12.3622 5.60874 12.3743C7.26117 12.3864 8.6059 11.053 8.62286 9.38983C8.63982 7.73636 7.29025 6.37626 5.62812 6.37141C3.97326 6.36656 2.63096 7.70242 2.62127 9.36316ZM2.81753 11.6712C2.5607 11.9112 2.28691 12.1658 2.01554 12.4228C1.59637 12.818 1.17721 13.2132 0.755617 13.6059C0.624779 13.7296 0.554514 13.8702 0.595703 14.0496C0.636893 14.2241 0.743502 14.3429 0.920376 14.3939C1.08998 14.4448 1.2402 14.4011 1.36135 14.2751C2.01796 13.5792 2.66973 12.881 3.32392 12.1828C3.33119 12.1731 3.33119 12.1561 3.32392 12.1803C3.14705 12.0034 2.98713 11.8434 2.81753 11.6736V11.6712ZM12.3687 1.03766V2.62324H13.9533C13.4251 2.09471 12.8993 1.56861 12.3687 1.03766Z" fill="#410EAD"/>
<path d="M9.9988 4C11.1952 4 12.3892 4 13.5857 4C13.8603 4 13.9975 4.16529 14 4.49174C14 4.82645 13.8578 5 13.5783 5C11.1928 5 8.80727 5 6.42175 5C6.3531 5 6.282 5 6.2158 4.97107C6.08586 4.92149 5.9976 4.71488 6.00005 4.49174C6.00005 4.26033 6.10057 4.05785 6.23787 4.01653C6.30161 4 6.36536 4 6.4291 4C7.62063 4 8.80972 4 10.0013 4H9.9988Z" fill="#410EAD"/>
<path d="M8.49775 1.00066C9.20609 1.00066 9.91444 1.00066 10.6228 1.00066C10.6688 1.00066 10.7171 0.996533 10.7608 1.00891C10.9011 1.04605 11.0023 1.26065 11 1.50825C10.9977 1.74761 10.8988 1.95395 10.7631 1.99109C10.7171 2.00347 10.6711 1.99934 10.6251 1.99934C9.20839 1.99934 7.7917 1.99934 6.3773 1.99934C6.3451 1.99934 6.31291 1.99934 6.28071 1.99934C6.11512 1.98283 5.99553 1.76824 6.00013 1.49175C6.00243 1.22351 6.11742 1.02129 6.27841 1.00479C6.3244 1.00066 6.3704 1.00479 6.4164 1.00479C7.11095 1.00479 7.8055 1.00479 8.50004 1.00479L8.49775 1.00066Z" fill="#410EAD"/>
<path d="M11.9967 11C12.5399 11 13.0807 11 13.6239 11C13.675 11 13.7284 11 13.7772 11.0166C13.9071 11.0581 14 11.2614 14 11.4938C14 11.7178 13.9164 11.9253 13.7957 11.971C13.733 11.9959 13.6657 12 13.6007 12C12.5352 12 11.4697 12 10.4042 12C10.3578 12 10.3114 12 10.2649 11.9917C10.1025 11.9585 9.99335 11.7427 10.0003 11.4772C10.0073 11.2158 10.1164 11.0249 10.2742 11.0042C10.3253 10.9959 10.3764 11.0042 10.4274 11.0042C10.9521 11.0042 11.4744 11.0042 11.999 11.0042L11.9967 11Z" fill="#410EAD"/>
<path d="M12.0014 8.00619C12.5273 8.00619 13.0558 8.00619 13.5818 8.00619C13.6382 8.00619 13.6973 8.00619 13.7511 8.02268C13.8948 8.06392 13.9974 8.26186 14 8.49278C14 8.71546 13.9102 8.91753 13.7768 8.97113C13.7229 8.99175 13.6639 9 13.6075 9C12.5325 9 11.46 9 10.385 9C10.344 9 10.3029 8.99588 10.2619 8.9835C10.1002 8.93814 9.99505 8.73608 10.0002 8.48041C10.0053 8.22887 10.1182 8.0268 10.2824 8.01031C10.4517 7.99381 10.6236 8.00206 10.793 8.00206C11.1958 8.00206 11.5986 8.00206 12.0014 8.00206V8.00619Z" fill="#410EAD"/>
<path d="M9.5025 12.9963C9.40599 12.9963 9.30783 13.0046 9.21133 12.9963C9.08654 12.984 9.00169 12.7866 9.00002 12.511C8.99836 12.2396 9.08155 12.0216 9.20467 12.0093C9.401 11.9969 9.599 11.9969 9.79533 12.0093C9.92011 12.0175 10.0016 12.2313 9.99998 12.5069C9.99998 12.7825 9.91512 12.984 9.79033 12.9922C9.69383 13.0005 9.59733 12.9922 9.49917 12.9922L9.5025 12.9963Z" fill="#410EAD"/>
<path d="M5.11532 9.26452C5.55715 8.8706 5.97903 8.49448 6.39806 8.11581C6.50638 8.01923 6.63751 7.96587 6.77148 8.02432C6.8684 8.06752 6.96817 8.16155 6.99382 8.2505C7.01663 8.33183 6.97387 8.46144 6.90546 8.52497C6.39806 8.99259 5.88211 9.45005 5.36331 9.9075C5.21794 10.0346 5.02125 10.0295 4.87017 9.89987C4.61362 9.67877 4.36277 9.45513 4.11478 9.2264C3.9637 9.08662 3.9637 8.91381 4.10337 8.78674C4.2459 8.65713 4.44544 8.65967 4.60792 8.79945C4.7761 8.94431 4.93858 9.09933 5.11817 9.26198L5.11532 9.26452Z" fill="#410EAD"/>
</svg>
