<svg width="15" height="15" viewBox="0 0 15 15" fill="none" xmlns="http://www.w3.org/2000/svg">
<path d="M10.4412 0C10.6671 0.0716044 10.8995 0.132359 11.0841 0.318965C10.9799 0.438305 10.8735 0.557646 10.7583 0.687836C10.5498 0.50774 10.3044 0.496891 10.0503 0.496891C8.31047 0.499061 6.57068 0.496891 4.83089 0.496891C4.41604 0.496891 4.1163 0.705195 4.03159 1.06973C4.00118 1.19992 4.00987 1.33878 3.99901 1.49067H7.99553V1.99407H4.01856V3.32852C4.15756 3.30899 4.29657 3.29814 4.43124 3.26776C4.46382 3.26125 4.50292 3.19399 4.50292 3.15493C4.50943 2.94229 4.50726 2.72748 4.50726 2.50615H5.00465V3.25257C5.16973 3.28295 5.31742 3.30682 5.46512 3.3372C6.7944 3.61927 7.82828 4.76061 7.97598 6.11458C7.98684 6.21873 8.02376 6.25562 8.13019 6.25128C8.33436 6.2426 8.53853 6.24911 8.75139 6.24911V6.75034C8.54722 6.75034 8.34522 6.75685 8.14105 6.74817C8.01942 6.74166 7.98467 6.78723 7.97381 6.90223C7.84783 8.21714 6.78137 9.39753 5.48467 9.66442C5.33263 9.6948 5.17841 9.71649 5.01117 9.74687V10.4868H4.50726C4.50726 10.272 4.50509 10.0593 4.50726 9.84451C4.50726 9.7664 4.48554 9.73385 4.40083 9.72517C2.8891 9.57112 1.66843 8.36252 1.52073 6.81543C1.52073 6.80024 1.51421 6.78723 1.5077 6.75468H0.762695V6.24911H1.48815C1.54897 5.98873 1.59024 5.73703 1.66843 5.49835C1.95948 4.60872 2.53724 3.96211 3.37998 3.55852C3.47338 3.51295 3.50596 3.46305 3.50596 3.36107C3.50161 2.68191 3.50379 2.00492 3.50379 1.32577C3.50379 0.785478 3.7275 0.37538 4.21838 0.12802C4.33784 0.0672647 4.47468 0.0412268 4.60283 0C6.54896 0 8.49292 0 10.4391 0H10.4412ZM7.48727 6.24911C7.38084 4.82787 6.12759 3.81239 5.01117 3.78418V4.23768H4.50726V3.78201C3.20188 3.83192 2.06591 5.04919 2.04202 6.24911H2.49162V6.75251H2.0203C2.10718 7.49893 2.41995 8.10431 3.00422 8.61422C3.00857 7.85695 3.31917 7.31232 3.93602 6.94779C3.39519 6.26864 3.37346 5.62854 3.86651 5.11646C4.28789 4.67815 4.99379 4.61523 5.48684 4.97542C5.74097 5.16202 5.91039 5.40938 5.97555 5.71533C6.0798 6.1992 5.92125 6.60496 5.56721 6.94996C5.87781 7.11921 6.11021 7.34487 6.27746 7.63563C6.44688 7.92856 6.50769 8.24969 6.51421 8.61422C7.09414 8.10648 7.41342 7.50327 7.49379 6.74383H7.01812V6.24694H7.48727V6.24911ZM5.009 9.23262C5.35435 9.20442 5.6606 9.11762 5.95165 8.97007C5.98206 8.95488 6.00813 8.89413 6.00813 8.85507C6.00813 8.67932 6.00813 8.50356 5.98858 8.32997C5.93211 7.81355 5.51291 7.37091 4.99597 7.27327C4.47902 7.17563 3.93819 7.4295 3.67972 7.86997C3.49075 8.19328 3.50596 8.54262 3.5103 8.89413C3.5103 8.918 3.52985 8.95489 3.5494 8.96356C3.84697 9.11111 4.15974 9.20875 4.5116 9.22828V8.76177H5.009V9.23045V9.23262ZM4.7527 6.746C5.16538 6.74817 5.50205 6.42052 5.50856 6.00826C5.51725 5.60033 5.16538 5.24665 4.75487 5.24882C4.34653 5.24882 4.01204 5.58731 4.00987 5.99741C4.00987 6.41185 4.33567 6.74166 4.75053 6.74383L4.7527 6.746Z" fill="#410EAD"/>
<path d="M11.0293 5.01014H11.5115V7.11921C11.5853 7.05629 11.6331 7.0194 11.6766 6.97817C12.339 6.39449 13.0015 5.80863 13.6683 5.22712C14.0745 4.87127 14.6457 4.95155 14.9042 5.39203C15.0562 5.64807 15.0258 6.07552 14.8217 6.30986C14.422 6.77204 14.0158 7.2277 13.6118 7.68337C12.856 8.54045 12.0979 9.39536 11.3442 10.2546C11.2965 10.3089 11.2617 10.387 11.2487 10.4586C11.101 11.3742 10.4298 11.9753 9.5002 11.997C8.93765 12.01 8.37726 11.9992 7.81471 11.9992C7.69742 11.9992 7.57579 11.9753 7.54104 11.8494C7.51932 11.7757 7.54321 11.6824 7.56493 11.6042C7.57362 11.5695 7.62357 11.5392 7.6605 11.5175C7.91897 11.3634 8.01888 11.1334 8.01019 10.8405C7.99933 10.489 8.00368 10.1353 8.15572 9.80763C8.43374 9.20659 8.90289 8.86158 9.55667 8.76177C9.61097 8.75309 9.67396 8.7379 9.71306 8.70536C10.1583 8.31696 10.6014 7.92639 11.0293 7.54884V5.01014ZM11.0098 9.87055C11.0336 9.84452 11.0575 9.82065 11.0814 9.79461C12.1131 8.62724 13.1449 7.45987 14.1744 6.29251C14.2743 6.17967 14.3764 6.06684 14.4654 5.94533C14.5436 5.83901 14.5284 5.72184 14.4481 5.61986C14.372 5.52005 14.2656 5.48316 14.1483 5.51788C14.081 5.5374 14.018 5.58514 13.9637 5.63288C12.717 6.72864 11.4702 7.82657 10.2257 8.92451C10.1931 8.95272 10.154 8.97007 10.1257 8.98743C10.4363 9.29772 10.7165 9.5798 11.0098 9.87272V9.87055ZM8.37292 11.4849C8.41202 11.4914 8.42939 11.4979 8.44677 11.4979C8.83773 11.4936 9.2287 11.5044 9.61749 11.4827C10.1952 11.4502 10.6557 11.0097 10.7383 10.4325C10.7448 10.3891 10.7296 10.324 10.6992 10.2937C10.3755 9.96386 10.0475 9.63621 9.71523 9.31074C9.68482 9.28253 9.63052 9.26083 9.58925 9.26517C9.04842 9.32593 8.59447 9.79244 8.52279 10.3306C8.47283 10.7124 8.58144 11.1117 8.37075 11.4827L8.37292 11.4849Z" fill="#410EAD"/>
<path d="M11.5144 0.998047C12.3941 0.998047 13.2738 0.998047 14.1534 0.998047C14.4423 0.998047 14.5205 1.07616 14.5205 1.36258C14.5205 2.2891 14.5205 3.21778 14.5205 4.1443C14.5205 4.42204 14.4401 4.50232 14.1643 4.50232C12.4006 4.50232 10.6369 4.50232 8.87325 4.50232C8.5974 4.50232 8.5127 4.4177 8.5127 4.14647C8.5127 3.21344 8.5127 2.28259 8.5127 1.34956C8.5127 1.08484 8.59958 0.998047 8.86456 0.998047C9.74858 0.998047 10.6326 0.998047 11.5166 0.998047H11.5144ZM9.01878 3.98807H14.0101V1.50579H9.01878V3.98807Z" fill="#410EAD"/>
<path d="M3.50811 11.2501V10.0068H4.0055V11.2501C4.07501 11.2501 4.12931 11.2501 4.18144 11.2501C4.681 11.2501 5.17839 11.2501 5.67796 11.2501C5.91905 11.2501 6.01028 11.3391 6.01245 11.5735C6.01245 12.194 6.01245 12.8124 6.01245 13.433C6.01245 13.6565 5.9234 13.7476 5.70185 13.7476C3.90342 13.7476 2.10498 13.7476 0.30655 13.7476C0.0936916 13.7476 0.00463867 13.6543 0.00463867 13.4417C0.00463867 12.8168 0.00463867 12.1919 0.00463867 11.5669C0.00463867 11.3413 0.0980354 11.2523 0.330442 11.2501C1.33174 11.2501 2.33522 11.2501 3.33652 11.2501C3.38865 11.2501 3.44078 11.2501 3.51245 11.2501H3.50811ZM0.508547 13.2399H5.50202V11.7579H0.508547V13.2399Z" fill="#410EAD"/>
<path d="M11.5162 11.5078C11.5162 11.6358 11.5162 11.7487 11.5162 11.8593C11.5119 12.519 11.5205 13.1764 11.4988 13.836C11.4793 14.4805 10.9254 15.0012 10.2152 14.9991C9.41368 14.9969 8.61221 14.9991 7.81073 14.9991C6.80291 14.9991 5.79726 14.9991 4.78945 14.9991C4.3507 14.9991 3.99666 14.8233 3.73385 14.4675C3.71864 14.4479 3.70778 14.4262 3.69475 14.4045C3.69041 14.3959 3.6904 14.385 3.68823 14.3655C3.81855 14.2895 3.95322 14.2114 4.09657 14.1268C4.14436 14.1832 4.1878 14.2418 4.23993 14.2895C4.39848 14.4371 4.58962 14.4978 4.80248 14.4978C6.61177 14.4978 8.41889 14.4978 10.2282 14.4978C10.6735 14.4978 10.9754 14.2136 11.0058 13.7709C11.0231 13.5192 11.0079 13.2654 11.0079 13.0007H6.51838V12.5016H11.0101V11.5078H11.514H11.5162Z" fill="#410EAD"/>
<path d="M1.49652 3.50062C1.11425 3.50062 0.734143 3.50062 0.351867 3.50062C0.0803648 3.50062 0 3.42034 0 3.15345C0 2.54806 0 1.94268 0 1.3373C0 1.08994 0.0890529 1.00098 0.334491 1.00098C1.11207 1.00098 1.88966 1.00098 2.66507 1.00098C2.91268 1.00098 2.99956 1.0856 3.00173 1.33513C3.00173 1.94485 3.00173 2.55674 3.00173 3.16647C3.00173 3.42034 2.92137 3.50062 2.66724 3.50062C2.27628 3.50062 1.88531 3.50062 1.49435 3.50062H1.49652ZM2.49348 2.99071V1.50655H0.508253V2.99071H2.49348Z" fill="#410EAD"/>
<path d="M7.75221 13.5137V13.9937H7.27002V13.5137H7.75221Z" fill="#410EAD"/>
<path d="M9.50854 3.00781H13.5051V3.49435C13.4508 3.49652 13.403 3.50086 13.3552 3.50086C12.128 3.50086 10.9008 3.50086 9.67578 3.50303C9.54329 3.50303 9.48899 3.47045 9.50419 3.33362C9.51505 3.23153 9.50636 3.12945 9.50636 3.00781H9.50854Z" fill="#410EAD"/>
<path d="M11.0229 2.00488H13.5056V2.48924H11.0229V2.00488Z" fill="#410EAD"/>
<path d="M10.5037 2.00879V2.48881H9.51758V2.00879H10.5037Z" fill="#410EAD"/>
<path d="M2.76318 12.74V12.2578H4.99819V12.74H2.76318Z" fill="#410EAD"/>
<path d="M2.25075 12.2578V12.7378H1.0127V12.2578H2.25075Z" fill="#410EAD"/>
<path d="M1.99103 2.00684V2.48685H1.00928V2.00684H1.99103Z" fill="#410EAD"/>
</svg>
