<svg width="15" height="15" viewBox="0 0 15 15" fill="none" xmlns="http://www.w3.org/2000/svg">
<path fill-rule="evenodd" clip-rule="evenodd" d="M4.64062 0.0996094C4.50697 0.233262 4.5056 0.351387 4.63623 0.478594L4.73145 0.571289L4.24582 0.810352C2.72473 1.55912 1.54611 2.73056 0.8054 4.22982C0.340693 5.17046 0.0595312 6.32136 0.0588281 7.28596C0.058623 7.59059 0.0636328 7.61977 0.129287 7.69611C0.187207 7.76344 0.22377 7.77832 0.331289 7.77832C0.566396 7.77832 0.643887 7.64065 0.644619 7.22168C0.646025 6.40192 0.916494 5.32866 1.33368 4.48737C1.97754 3.18897 2.98541 2.14336 4.2605 1.45107C4.49464 1.32393 4.90022 1.13959 5.03622 1.09846L5.10665 1.07719L5.04354 1.17926C4.90564 1.40241 5.02148 1.66992 5.25606 1.66992C5.40469 1.66992 5.48845 1.58021 5.81399 1.07241C6.12943 0.580371 6.151 0.502529 6.01318 0.352881C5.94226 0.275859 5.86887 0.249551 5.39912 0.132715C5.10571 0.059707 4.83744 0 4.80293 0C4.76845 0 4.69541 0.0448242 4.64062 0.0996094ZM7.30939 0.12457C7.20103 0.217764 7.17967 0.397148 7.26416 0.504375C7.34464 0.606445 7.48468 0.64415 7.78415 0.644355C8.58073 0.644912 9.62684 0.906738 10.4849 1.32029C10.7167 1.43203 10.937 1.52344 10.9743 1.52344C11.1706 1.52344 11.3097 1.33816 11.2498 1.15661C11.2115 1.04062 11.1436 0.987012 10.8451 0.837188C9.88767 0.356777 8.68896 0.0585938 7.71492 0.0585938C7.41606 0.0585938 7.37909 0.0645996 7.30939 0.12457ZM11.863 1.78485C11.801 1.84688 11.7773 1.89876 11.7773 1.97303C11.7773 2.09364 11.8864 2.2401 11.9967 2.26781C12.1107 2.29641 12.2677 2.2154 12.323 2.09944C12.4625 1.80686 12.0934 1.55443 11.863 1.78485ZM6.36064 2.41395C6.23889 2.48142 6.21308 2.56896 6.21196 2.91855L6.21094 3.24437L5.98389 3.32481C5.85902 3.36908 5.67958 3.44423 5.58516 3.49181L5.41348 3.57832L5.17327 3.34386C4.9188 3.09548 4.82487 3.04857 4.6921 3.10356C4.57134 3.1536 3.11376 4.62618 3.09018 4.72201C3.05889 4.84922 3.10072 4.92328 3.34597 5.175L3.57832 5.41348L3.49181 5.58516C3.44423 5.67958 3.36908 5.85902 3.32481 5.98389L3.24437 6.21094H2.92444C2.57063 6.21094 2.46633 6.24331 2.40806 6.37125C2.35289 6.4923 2.35896 8.53037 2.41479 8.63833C2.47787 8.76029 2.57572 8.78906 2.92726 8.78906H3.24437L3.32481 9.01611C3.36908 9.14098 3.44423 9.32042 3.49181 9.41484L3.57832 9.58652L3.34386 9.82673C3.09548 10.0812 3.04857 10.1751 3.10356 10.3079C3.1536 10.4287 4.62618 11.8862 4.72201 11.9098C4.84922 11.9411 4.92328 11.8993 5.175 11.654L5.41348 11.4217L5.58516 11.5082C5.67958 11.5558 5.85902 11.6309 5.98389 11.6752L6.21094 11.7556V12.0756C6.21094 12.4294 6.24331 12.5337 6.37125 12.5919C6.47997 12.6415 8.52003 12.6415 8.62875 12.5919C8.7564 12.5338 8.78906 12.4292 8.78906 12.0786V11.7618L8.94287 11.708C9.02745 11.6785 9.20766 11.6027 9.3433 11.5396L9.58989 11.425L9.8267 11.6557C10.0767 11.8993 10.1509 11.9411 10.278 11.9098C10.3738 11.8862 11.8464 10.4287 11.8964 10.3079C11.9514 10.1751 11.9045 10.0812 11.6561 9.82673L11.4217 9.58652L11.5082 9.41484C11.5558 9.32042 11.6309 9.14098 11.6752 9.01611L11.7556 8.78906H12.0756C12.4294 8.78906 12.5337 8.75669 12.5919 8.62875C12.6415 8.52003 12.6415 6.47997 12.5919 6.37125C12.5337 6.24331 12.4294 6.21094 12.0756 6.21094H11.7556L11.6752 5.98389C11.6309 5.85902 11.5558 5.67958 11.5082 5.58516L11.4217 5.41348L11.6561 5.17327C11.9045 4.9188 11.9514 4.82487 11.8964 4.6921C11.8464 4.57134 10.3738 3.11376 10.278 3.09018C10.1509 3.05892 10.0767 3.10069 9.8267 3.34433L9.58989 3.57501L9.3433 3.46037C9.20766 3.39732 9.02745 3.32153 8.94287 3.29197L8.78906 3.23821V2.92418C8.78906 2.57587 8.76003 2.47772 8.63833 2.41479C8.52422 2.35579 6.46696 2.355 6.36064 2.41395ZM12.7936 2.7189C12.6598 2.8585 12.6819 2.98438 12.8866 3.24938C13.3173 3.80698 13.7557 4.5796 13.9005 5.03622L13.9228 5.10665L13.8207 5.04354C13.5976 4.90564 13.3301 5.02148 13.3301 5.25606C13.3301 5.40416 13.4185 5.4866 13.9279 5.81353C14.4201 6.1294 14.4976 6.15091 14.6471 6.01318C14.7241 5.94226 14.7504 5.86887 14.8673 5.39912C14.9403 5.10571 15 4.83744 15 4.80293C15 4.76845 14.9552 4.69541 14.9004 4.64062C14.7668 4.507 14.6485 4.50565 14.5186 4.63623L14.4239 4.73145L14.2366 4.33869C13.9426 3.72208 13.4389 2.93558 13.1908 2.70565C13.081 2.60382 12.898 2.60991 12.7936 2.7189ZM8.20324 3.24463C8.20339 3.6583 8.22398 3.6849 8.64732 3.81832C8.83002 3.87589 9.11133 3.99053 9.27246 4.07309C9.67649 4.2801 9.7101 4.2774 9.97263 4.0166C10.0878 3.9022 10.1948 3.80859 10.2103 3.80859C10.2477 3.80859 11.1914 4.75166 11.1914 4.78901C11.1914 4.80492 11.1007 4.91057 10.9898 5.02371C10.879 5.13688 10.7803 5.26374 10.7707 5.30563C10.7575 5.36235 10.7942 5.46311 10.9145 5.70114C11.0033 5.87678 11.1233 6.16998 11.1812 6.35268C11.3152 6.77602 11.3419 6.79661 11.7554 6.79676L12.041 6.79688V7.5V8.20312L11.7554 8.20324C11.3419 8.20339 11.3152 8.22398 11.1812 8.64732C11.1233 8.83002 11.0033 9.12322 10.9145 9.29886C10.7942 9.53689 10.7575 9.63765 10.7707 9.69437C10.7803 9.73626 10.879 9.86312 10.9898 9.97629C11.1007 10.0894 11.1914 10.1948 11.1914 10.2103C11.1914 10.2477 10.2483 11.1914 10.211 11.1914C10.1951 11.1914 10.0894 11.1007 9.97629 10.9898C9.86312 10.879 9.73626 10.7803 9.69437 10.7707C9.63765 10.7575 9.53689 10.7942 9.29886 10.9145C9.12322 11.0033 8.83002 11.1233 8.64732 11.1812C8.22398 11.3152 8.20339 11.3419 8.20324 11.7554L8.20312 12.041H7.5H6.79688L6.79676 11.7554C6.79661 11.3419 6.77602 11.3152 6.35268 11.1812C6.16998 11.1233 5.87678 11.0033 5.70114 10.9145C5.46311 10.7942 5.36235 10.7575 5.30563 10.7707C5.26374 10.7803 5.13688 10.879 5.02371 10.9898C4.91057 11.1007 4.80492 11.1914 4.78901 11.1914C4.75166 11.1914 3.80859 10.2477 3.80859 10.2103C3.80859 10.1948 3.9022 10.0878 4.0166 9.97263C4.27828 9.70919 4.28103 9.67544 4.07376 9.27246C3.99085 9.11133 3.87592 8.83002 3.81835 8.64732C3.6849 8.22398 3.6583 8.20339 3.24463 8.20324L2.95898 8.20312V7.5V6.79688L3.24463 6.79676C3.6583 6.79661 3.6849 6.77602 3.81832 6.35268C3.87589 6.16998 3.99053 5.88867 4.07309 5.72754C4.2801 5.32351 4.2774 5.2899 4.0166 5.02737C3.9022 4.91218 3.80859 4.80492 3.80859 4.78901C3.80859 4.75166 4.75228 3.80859 4.78969 3.80859C4.80524 3.80859 4.91218 3.9022 5.02737 4.0166C5.2899 4.2774 5.32351 4.2801 5.72754 4.07309C5.88867 3.99053 6.16998 3.87589 6.35268 3.81832C6.77602 3.6849 6.79661 3.6583 6.79676 3.24463L6.79688 2.95898H7.5H8.20312L8.20324 3.24463ZM6.22559 5.34064C5.13545 5.97311 5.05128 6.02766 5.01873 6.12305C4.96931 6.26801 4.96931 8.73199 5.01873 8.87695C5.05128 8.97234 5.13545 9.02689 6.22559 9.65936C7.10124 10.1674 7.42219 10.3395 7.49531 10.3405C7.57075 10.3415 7.85824 10.1892 8.75083 9.67529C9.43529 9.28122 9.92818 8.97937 9.95669 8.93684C9.9997 8.87262 10.0049 8.71805 10.0049 7.5C10.0049 6.28195 9.9997 6.12738 9.95669 6.06316C9.92818 6.02062 9.43529 5.71878 8.75083 5.32471C7.85824 4.81081 7.57075 4.6585 7.49531 4.65949C7.42219 4.66046 7.10124 4.83264 6.22559 5.34064ZM8.30177 5.7445C8.72285 5.98746 9.07787 6.19635 9.09067 6.20871C9.11127 6.22854 7.55643 7.14844 7.50226 7.14844C7.46877 7.14844 5.91551 6.24841 5.90903 6.22526C5.90191 6.19966 7.44114 5.30646 7.4961 5.30432C7.51814 5.30344 7.88068 5.50151 8.30177 5.7445ZM6.41317 7.20703L7.20454 7.66113L7.20577 8.60382L7.20703 9.54647L6.56982 9.17915C6.21935 8.97712 5.85023 8.76434 5.74951 8.7063L5.56641 8.6008V7.66711C5.56641 7.09307 5.57707 6.73717 5.59412 6.74317C5.60936 6.74854 5.97794 6.95728 6.41317 7.20703ZM9.43359 7.66945V8.60065L9.35303 8.64812C9.30873 8.67425 8.93956 8.88741 8.53271 9.12187L7.79297 9.54811L7.79414 8.60464L7.79528 7.66113L8.59248 7.20229C9.03091 6.94992 9.39952 6.74229 9.41162 6.74086C9.42372 6.73945 9.43359 7.15731 9.43359 7.66945ZM14.4956 7.26416C14.3941 7.3442 14.3559 7.48436 14.3554 7.77832C14.354 8.56022 14.0985 9.61192 13.7152 10.4132C13.087 11.7265 12.1308 12.7534 10.8545 13.4852C10.6223 13.6183 9.98074 13.916 9.92602 13.916C9.91037 13.916 9.92502 13.8716 9.95854 13.8173C10.0944 13.5974 9.97667 13.3301 9.74394 13.3301C9.59531 13.3301 9.51155 13.4198 9.18601 13.9276C8.87057 14.4196 8.849 14.4975 8.98682 14.6471C9.05774 14.7241 9.13113 14.7504 9.60088 14.8673C9.89429 14.9403 10.1626 15 10.1971 15C10.2316 15 10.3046 14.9552 10.3594 14.9004C10.4939 14.7658 10.4945 14.6488 10.361 14.5153L10.2631 14.4174L10.3537 14.3816C10.8347 14.1917 11.6199 13.7288 12.1289 13.335C12.7032 12.8908 13.4147 12.0925 13.8436 11.4111C14.5122 10.3489 14.9403 8.90689 14.9412 7.71404C14.9414 7.41592 14.9354 7.37909 14.8754 7.30939C14.7822 7.20103 14.6029 7.17967 14.4956 7.26416ZM0.352881 8.98682C0.275859 9.05774 0.249551 9.13113 0.132715 9.60088C0.059707 9.89429 0 10.1626 0 10.1971C0 10.2316 0.0448242 10.3046 0.0996094 10.3594C0.233262 10.493 0.351387 10.4944 0.478594 10.3638L0.571289 10.2686L0.810352 10.7542C1.44354 12.0405 2.38189 13.0839 3.58887 13.8436C4.65105 14.5122 6.09311 14.9403 7.28596 14.9412C7.59059 14.9414 7.61977 14.9364 7.69611 14.8707C7.76344 14.8128 7.77832 14.7762 7.77832 14.6687C7.77832 14.4336 7.64065 14.3561 7.22168 14.3554C6.68965 14.3545 5.95359 14.2218 5.3349 14.0153C3.90325 13.5374 2.65333 12.5852 1.81761 11.3359C1.49543 10.8542 1.20724 10.3036 1.09951 9.96378L1.07719 9.89335L1.17926 9.95645C1.40241 10.0944 1.66992 9.97852 1.66992 9.74394C1.66992 9.59508 1.57957 9.51056 1.07317 9.18568C0.581572 8.8703 0.502969 8.84862 0.352881 8.98682Z" fill="#410EAD"/>
</svg>
