<svg width="15" height="12" viewBox="0 0 15 12" fill="none" xmlns="http://www.w3.org/2000/svg">
<path fill-rule="evenodd" clip-rule="evenodd" d="M3.81474 1.19915C1.8584 1.86385 0.222826 2.43233 0.180119 2.46239C0.0829807 2.53081 0 2.68399 0 2.79484C0 2.913 0.0861757 3.06505 0.191316 3.13242C0.240149 3.16373 0.90889 3.40392 1.67741 3.66621L3.07471 4.14307L3.08351 5.59644L3.09227 7.0498L3.16171 7.1854C3.34447 7.54222 3.85598 7.84345 4.69303 8.08725C6.36598 8.57452 8.64122 8.57556 10.3094 8.08985C11.1459 7.8463 11.663 7.5418 11.8456 7.1854L11.915 7.0498L11.9238 5.59742L11.9326 4.14505L12.4642 3.96307C12.7566 3.86298 13.0131 3.77701 13.0343 3.77199C13.0658 3.76452 13.0728 4.10858 13.0728 5.66533V7.56781L12.8955 7.65869C12.26 7.98426 12.0176 8.71056 12.3331 9.34311C12.4327 9.54284 12.7183 9.81804 12.9185 9.90717L13.0705 9.97488L13.079 10.8562C13.0871 11.7014 13.09 11.7407 13.1492 11.817C13.3385 12.061 13.6865 12.061 13.8758 11.817C13.935 11.7407 13.9379 11.7014 13.946 10.8562L13.9545 9.97488L14.1061 9.90717C14.1896 9.86994 14.3323 9.7696 14.4234 9.68419C15.0714 9.07638 14.9221 8.06482 14.1241 7.65592L13.9518 7.56761L13.9593 5.50897L13.9668 3.45036L14.3598 3.31502C14.5759 3.24057 14.787 3.15558 14.8288 3.12617C15.0753 2.95256 15.0515 2.58748 14.7839 2.43675C14.7369 2.41029 13.1225 1.85359 11.1963 1.19963C8.59022 0.314848 7.65293 0.00806827 7.53296 0.000600954C7.38323 -0.00869797 7.11811 0.0767676 3.81474 1.19915ZM10.3078 1.79758C11.8205 2.31068 13.0977 2.74598 13.1461 2.76492L13.234 2.79929L13.0728 2.85661C12.9842 2.88811 11.6956 3.32916 10.2093 3.83674L7.50699 4.75956L6.0031 4.24581C3.98683 3.55702 3.39523 3.35526 2.57026 3.07508C2.18643 2.94472 1.85213 2.82716 1.82736 2.81383C1.79553 2.7967 1.95754 2.73 2.37865 2.58674C2.70665 2.47519 3.97748 2.04293 5.20269 1.62617C6.42791 1.20938 7.45894 0.867542 7.49388 0.8665C7.52882 0.865457 8.79508 1.28444 10.3078 1.79758ZM5.73212 5.05192C7.15097 5.53687 7.44965 5.63017 7.54761 5.61898C7.6121 5.61163 8.41057 5.35044 9.32201 5.03853C10.2334 4.72665 10.9952 4.47147 11.0147 4.47147C11.0421 4.47147 11.0503 4.74519 11.0503 5.65353V6.83559L10.9551 6.90432C10.5554 7.19264 9.54894 7.46056 8.44161 7.57342C7.77328 7.64152 6.69793 7.60864 5.96479 7.4977C5.1541 7.37501 4.3655 7.13034 4.05222 6.90432L3.95696 6.83559V5.65353C3.95696 4.69689 3.96429 4.47147 3.99541 4.47147C4.01658 4.47147 4.79808 4.73265 5.73212 5.05192ZM13.75 8.42407C13.9464 8.55023 14.0092 8.80657 13.8862 8.98032C13.7378 9.18999 13.5407 9.25091 13.3293 9.15249C12.9094 8.95713 13.0475 8.36011 13.5125 8.36011C13.607 8.36011 13.6817 8.3802 13.75 8.42407Z" fill="#410EAD"/>
</svg>
