<svg width="17" height="15" viewBox="0 0 17 15" fill="none" xmlns="http://www.w3.org/2000/svg">
<path d="M9.9193 13.6808C9.9193 14.0046 9.9193 14.3164 9.9193 14.6282C9.9193 14.8993 9.82277 15 9.55909 15C8.85751 15 8.15592 15 7.45198 15C7.18595 15 7.08942 14.9017 7.08707 14.633C7.08707 14.3212 7.08707 14.0094 7.08707 13.688C6.8893 13.6281 6.68919 13.5897 6.51026 13.5106C6.07942 13.3187 5.65329 13.1148 5.23422 12.8965C5.12122 12.8366 5.06471 12.8414 4.98231 12.9325C4.82693 13.1052 4.65977 13.2683 4.49497 13.4314C4.32075 13.6065 4.18185 13.6041 4.00763 13.429C3.62152 13.0405 3.24012 12.6471 2.84225 12.2418C2.7928 12.2897 2.74572 12.3305 2.70099 12.3761C2.27015 12.8126 1.84166 13.2515 1.41082 13.6904C1.19658 13.9087 1.07651 13.9063 0.859916 13.688C0.62684 13.4506 0.391409 13.2131 0.158332 12.9733C-0.0535557 12.7574 -0.0535557 12.6327 0.163041 12.4121C0.968215 11.5918 1.77103 10.7691 2.58092 9.95363C2.67509 9.85769 2.68921 9.78334 2.64213 9.65862C2.55502 9.43077 2.49381 9.19332 2.41847 8.94388C2.11712 8.94388 1.81106 8.94388 1.505 8.94388C1.22954 8.94388 1.13537 8.84794 1.13537 8.56252C1.13537 7.85257 1.13537 7.14263 1.13537 6.43508C1.13537 6.15446 1.22954 6.06092 1.50971 6.05852C1.81106 6.05852 2.11005 6.05852 2.42789 6.05852C2.59975 5.33898 2.87285 4.66741 3.28721 4.02223C3.0918 3.83035 2.89639 3.64087 2.7057 3.44659C2.49616 3.23553 2.49852 3.10841 2.70334 2.89735C3.12947 2.46322 3.55325 2.0291 3.97938 1.59738C4.19126 1.38152 4.31369 1.38391 4.53028 1.60457C4.69273 1.77007 4.85283 1.94036 5.02234 2.09866C5.0553 2.12984 5.14476 2.14663 5.18007 2.12504C5.7663 1.75568 6.39254 1.48705 7.08471 1.31916C7.08471 1.00975 7.08471 0.697953 7.08471 0.386153C7.08471 0.0911417 7.17417 0 7.46611 0C8.16298 0 8.85751 0 9.55438 0C9.82042 0 9.91695 0.0983371 9.91695 0.369364C9.91695 0.681164 9.91695 0.992964 9.91695 1.27358C10.376 1.45587 10.8139 1.62376 11.2471 1.80604C11.4261 1.88279 11.5956 1.98593 11.758 2.09386C11.8663 2.16581 11.9346 2.17061 12.0241 2.06748C12.1606 1.90918 12.3136 1.76767 12.4596 1.61896C12.6927 1.38152 12.8057 1.37912 13.0364 1.61417C13.4084 1.99312 13.778 2.36968 14.1618 2.76303C14.2512 2.64791 14.3336 2.54237 14.4302 2.42005C14.4302 2.42005 14.3972 2.37928 14.3619 2.3409C14.1406 2.11545 13.9193 1.88999 13.7003 1.66453C13.6109 1.57099 13.5544 1.45107 13.6297 1.34074C13.6862 1.25919 13.7992 1.16565 13.8863 1.16326C14.8304 1.15126 15.7745 1.15366 16.7185 1.15846C16.8857 1.15846 16.9964 1.27358 16.9964 1.44627C17.0011 2.40806 17.0034 3.36984 16.9893 4.33163C16.9893 4.42037 16.8928 4.5331 16.8104 4.59066C16.6997 4.66501 16.582 4.60505 16.4925 4.51391C16.243 4.25728 15.9958 4.00064 15.7392 3.73441C15.6944 3.77279 15.6568 3.79677 15.6261 3.83035C15.2165 4.24528 14.8092 4.66501 14.3972 5.07755C14.3266 5.1495 14.3054 5.20707 14.343 5.3102C14.4302 5.55005 14.5008 5.79949 14.5832 6.06092C14.8869 6.06092 15.1977 6.06092 15.5108 6.06092C15.7651 6.06092 15.8639 6.16166 15.8639 6.42069C15.8639 7.14263 15.8639 7.86457 15.8639 8.58411C15.8639 8.84314 15.7651 8.94388 15.5108 8.94388C15.2 8.94388 14.8869 8.94388 14.5714 8.94388C14.3996 9.67061 14.1241 10.335 13.7192 10.9706C13.9122 11.1649 14.1053 11.3567 14.2936 11.551C14.5008 11.7645 14.5031 11.8916 14.3007 12.1003C13.8722 12.5392 13.4413 12.9757 13.0105 13.4146C12.8127 13.6161 12.6856 13.6137 12.4855 13.4122C12.3183 13.2419 12.1559 13.0668 11.9817 12.9061C11.9464 12.8726 11.8498 12.8606 11.8098 12.887C11.2283 13.2539 10.6044 13.5154 9.9193 13.6856V13.6808ZM9.35191 14.4124C9.35191 14.1246 9.35191 13.8487 9.35191 13.5729C9.35191 13.2659 9.40135 13.1988 9.70035 13.134C10.4255 12.9781 11.0894 12.6807 11.7015 12.2586C11.9275 12.1027 12.0193 12.1122 12.21 12.3065C12.389 12.4888 12.5632 12.6711 12.7139 12.827C13.0647 12.4696 13.3966 12.1314 13.7403 11.7813C13.5826 11.6278 13.4084 11.4575 13.2365 11.2824C13.0317 11.0761 13.0223 10.9874 13.18 10.7523C13.5944 10.1287 13.884 9.45235 14.0393 8.71362C14.1029 8.41142 14.1688 8.36105 14.4725 8.36105C14.748 8.36105 15.0211 8.36105 15.2942 8.36105V6.62936C15.0211 6.62936 14.7574 6.62936 14.4937 6.62936C14.1641 6.62936 14.1123 6.58379 14.037 6.25999C13.9899 6.05373 13.9334 5.85225 13.8651 5.59082C13.7262 5.74432 13.6344 5.86185 13.5261 5.96019C13.4343 6.04413 13.4225 6.12328 13.4531 6.2432C13.6109 6.8788 13.6485 7.52399 13.5614 8.17397C13.1941 10.9514 10.7504 12.9253 8.00995 12.6591C5.14711 12.3809 3.0353 9.6946 3.46143 6.80444C3.76984 4.70099 4.94229 3.23793 6.92462 2.57355C8.87163 1.91877 10.6232 2.38647 12.1135 3.82555C12.283 3.98865 12.429 4.17813 12.5608 4.32683C12.954 3.92869 13.3472 3.53534 13.7192 3.15878C13.4013 2.83499 13.0717 2.5016 12.7209 2.14663C12.5538 2.32411 12.3772 2.51599 12.1959 2.70307C12.0288 2.87336 11.9252 2.88535 11.7298 2.74624C11.1012 2.30492 10.4114 2.00752 9.66503 1.84202C9.41312 1.78686 9.35897 1.7125 9.35897 1.44388C9.35897 1.15846 9.35897 0.870643 9.35897 0.582827H7.65916C7.65916 0.870643 7.65916 1.14647 7.65916 1.42229C7.65916 1.7221 7.60737 1.79405 7.3225 1.85401C6.59266 2.01231 5.92168 2.30732 5.30485 2.73425C5.08119 2.89015 4.99173 2.87816 4.79632 2.68148C4.61739 2.5016 4.44318 2.31932 4.28073 2.15382C3.93229 2.50879 3.60504 2.84458 3.2566 3.19955C3.43082 3.37224 3.61681 3.55213 3.80045 3.73921C3.9676 3.9095 3.97938 4.01743 3.84518 4.2141C3.41199 4.85449 3.1177 5.55724 2.95761 6.31756C2.90346 6.57419 2.82812 6.62936 2.56679 6.63176C2.28427 6.63176 2.00411 6.63176 1.71924 6.63176V8.34906C1.74043 8.35625 1.7522 8.36105 1.76397 8.36105C2.01824 8.36105 2.27015 8.36105 2.52441 8.36105C2.84225 8.36105 2.90817 8.40902 2.97173 8.71842C3.12476 9.44995 3.41199 10.1215 3.82164 10.7403C3.98644 10.9874 3.97702 11.0737 3.76749 11.2872C3.59327 11.4623 3.4167 11.6374 3.27308 11.7765C3.62858 12.1386 3.95819 12.4768 4.29721 12.8222C4.4573 12.6591 4.63387 12.4744 4.8128 12.2921C4.97996 12.1218 5.0859 12.1075 5.27896 12.2442C5.91226 12.6903 6.60914 12.9877 7.36017 13.1532C7.59324 13.2035 7.6521 13.2851 7.6521 13.5273C7.6521 13.82 7.6521 14.1126 7.6521 14.4148H9.35191V14.4124ZM12.9187 6.5646C12.7633 6.72769 12.6197 6.874 12.4831 7.0275C12.4572 7.05628 12.4572 7.11625 12.4549 7.15942C12.4478 7.42805 12.4596 7.70147 12.4337 7.9677C12.2053 10.2079 10.077 11.8556 7.89695 11.4886C5.77101 11.1289 4.33488 9.20291 4.56795 7.02271C4.89285 3.99105 8.38194 2.41525 10.8022 4.2141C11.1647 4.48273 11.4684 4.83291 11.7698 5.12072C11.8734 5.01759 12.0052 4.88807 12.1394 4.75376C10.8493 2.91174 8.26422 2.28094 6.19949 3.51615C4.1583 4.73937 3.38138 7.39687 4.44318 9.54589C5.5238 11.7381 8.07117 12.7047 10.2701 11.7405C12.615 10.7115 13.3354 8.23873 12.9187 6.5598V6.5646ZM16.4219 3.63367V1.73889H14.5596C14.7292 1.90198 14.8681 2.0315 14.9999 2.16581C15.2141 2.38168 15.2141 2.5064 14.9999 2.72705C13.3072 4.45395 11.612 6.17845 9.9193 7.90534C9.69564 8.13319 9.57792 8.13319 9.35662 7.90534C8.74214 7.28174 8.13002 6.65574 7.51555 6.03214C7.47082 5.98657 7.42373 5.9434 7.38135 5.90262C7.35781 5.91222 7.34604 5.91222 7.33662 5.91941C6.63504 6.63176 5.93345 7.3465 5.23422 8.06364C5.19891 8.09962 5.17066 8.17397 5.18243 8.21954C5.22951 8.42101 5.29308 8.61769 5.35665 8.84074C5.42728 8.77119 5.47436 8.72801 5.51909 8.68244C6.04175 8.15238 6.56205 7.61992 7.08471 7.08986C7.30837 6.86201 7.42609 6.85961 7.64739 7.08507C8.26187 7.70867 8.87399 8.33467 9.48846 8.95827C9.53319 9.00384 9.58028 9.04701 9.6462 9.10937C9.8369 8.9103 10.0205 8.71602 10.2065 8.52415C11.9487 6.74688 13.6933 4.96962 15.4378 3.19236C15.6685 2.95731 15.7815 2.95731 16.0146 3.19476C16.1417 3.32667 16.2642 3.46099 16.4243 3.63128L16.4219 3.63367ZM9.59676 7.35609C10.1924 6.74928 10.7598 6.17365 11.3295 5.59562C10.6868 4.50192 9.14002 3.67205 7.51084 4.18292C5.83693 4.70579 5.10945 6.27199 5.12593 7.3417C5.17537 7.29373 5.2201 7.25775 5.26012 7.21698C5.86518 6.60058 6.47024 5.98417 7.07529 5.37016C7.31779 5.12312 7.42609 5.12312 7.66387 5.36537C8.20536 5.91701 8.74921 6.46866 9.28834 7.02271C9.399 7.13783 9.50494 7.25775 9.59911 7.35849L9.59676 7.35609ZM7.36958 7.61273C6.82809 8.16437 6.30779 8.70403 5.77571 9.22929C5.658 9.34442 5.66742 9.42117 5.75923 9.5387C6.64916 10.6852 7.80748 11.1744 9.21065 10.8698C10.5973 10.5676 11.459 9.65142 11.8169 8.25312C11.8663 8.06364 11.8757 7.86457 11.904 7.66789C11.6897 7.82619 11.5202 8.00128 11.3507 8.17397C10.8634 8.67045 10.376 9.16933 9.88634 9.66342C9.7027 9.8505 9.56851 9.8481 9.38487 9.66821C9.3472 9.62984 9.30953 9.59146 9.27186 9.55309C8.64326 8.9103 8.01466 8.26991 7.36958 7.61033V7.61273ZM0.732784 12.6831C0.871688 12.8222 1.0153 12.9685 1.17539 13.1316C1.28605 13.0117 1.40376 12.8774 1.52854 12.7502C2.07709 12.189 2.628 11.6302 3.1742 11.0689C3.21187 11.0305 3.2566 10.9466 3.24012 10.913C3.15537 10.7403 3.04942 10.5772 2.95761 10.4165C2.20658 11.1816 1.46733 11.9348 0.732784 12.6831Z" fill="#410EAD"/>
</svg>
