<svg width="15" height="15" viewBox="0 0 15 15" fill="none" xmlns="http://www.w3.org/2000/svg">
<path d="M8.67445 9.49072C8.51727 9.63741 8.384 9.76704 8.24391 9.89325C7.17438 10.8689 5.91351 11.0736 4.55696 10.729C3.6412 10.4971 3.06373 9.86938 2.80745 8.96197C2.41792 7.58722 2.83137 6.15106 3.87014 5.33918C4.56038 4.79678 5.38046 4.55117 6.23471 4.42154C6.84977 4.32943 7.46825 4.27485 8.08672 4.21686C8.25757 4.19981 8.34983 4.15546 8.33616 3.96784C8.31566 3.71199 8.32933 3.45273 8.30541 3.2003C8.22682 2.39523 7.70402 1.95176 6.90102 1.9927C6.18004 2.03022 5.65382 2.44299 5.44538 3.13548C5.34287 3.48002 5.23011 3.53801 4.86107 3.48684C4.4032 3.42544 3.9419 3.37086 3.4806 3.3231C3.03639 3.27534 2.94413 3.15595 3.05006 2.72954C3.32 1.64133 3.97265 0.866971 5.00801 0.440559C6.35089 -0.115482 7.71769 -0.142772 9.08791 0.345043C10.2565 0.76122 10.9092 1.59016 10.9433 2.84211C10.9775 4.22368 10.9946 5.60867 10.9741 6.99365C10.9638 7.72026 11.1518 8.34111 11.6267 8.89033C11.883 9.18712 11.8591 9.32357 11.5652 9.57942C11.1518 9.9376 10.7349 10.2958 10.318 10.6472C10.0754 10.8518 9.88407 10.8655 9.66196 10.6403C9.37835 10.3538 9.12208 10.0365 8.85897 9.72951C8.80088 9.66129 8.75304 9.58624 8.6847 9.49754L8.67445 9.49072ZM8.33616 6.33869C8.33616 6.18177 8.32933 6.02485 8.33616 5.86793C8.343 5.71442 8.28149 5.65984 8.13115 5.67348C7.82703 5.70077 7.5195 5.71442 7.21539 5.74853C5.97843 5.89522 5.34629 6.66958 5.4488 7.90106C5.52055 8.77776 6.30647 9.25534 7.11971 8.91421C7.45116 8.77435 7.69719 8.53897 7.89195 8.23878C8.27124 7.65545 8.33958 7.0073 8.33616 6.33528V6.33869Z" fill="#410EAD"/>
<path d="M6.95542 14.9931C5.24692 14.9965 3.71269 14.4371 2.32197 13.4853C1.5839 12.9804 0.900498 12.4005 0.196595 11.8513C-0.00842463 11.691 -0.0494286 11.4931 0.0564985 11.3328C0.162426 11.1725 0.353777 11.1452 0.589551 11.268C1.41305 11.6944 2.22288 12.1481 3.05663 12.5472C4.25599 13.1203 5.5237 13.4751 6.86317 13.5058C8.08304 13.5331 9.27899 13.3489 10.4442 13.0043C11.1344 12.7996 11.8042 12.5302 12.4841 12.2914C12.5696 12.2607 12.6516 12.2129 12.7404 12.1958C12.9454 12.1549 13.1231 12.2163 13.229 12.4073C13.3316 12.5916 13.2837 12.7621 13.1368 12.902C13.0343 12.9975 12.9215 13.0828 12.8053 13.1612C11.1823 14.2801 8.92362 14.9931 6.95884 14.9999L6.95542 14.9931Z" fill="#410EAD"/>
<path d="M13.817 10.6064C14.0426 10.6303 14.2578 10.6406 14.4697 10.6781C14.8763 10.7531 15.013 10.893 14.9993 11.2955C14.9652 12.1484 14.6952 12.9159 14.0904 13.547C14.0391 13.6016 13.9776 13.6732 13.9161 13.6766C13.7931 13.6868 13.6359 13.6971 13.5505 13.6323C13.4822 13.5777 13.4514 13.4071 13.4788 13.3048C13.6018 12.834 13.7487 12.3735 13.8854 11.9061C13.9469 11.6946 13.8478 11.606 13.6462 11.6196C13.2327 11.6469 12.8227 11.6742 12.4092 11.7049C12.3443 11.7083 12.2691 11.739 12.2145 11.7185C12.0949 11.6742 11.9138 11.623 11.8899 11.5377C11.8591 11.4286 11.9206 11.2171 12.0094 11.1625C12.3272 10.9783 12.6655 10.8145 13.0175 10.702C13.2737 10.6201 13.5574 10.6337 13.8205 10.6064H13.817Z" fill="#410EAD"/>
</svg>
