<svg width="15" height="15" viewBox="0 0 15 15" fill="none" xmlns="http://www.w3.org/2000/svg">
<path d="M13.1242 14.9935C13.0689 14.9229 13.0027 14.8566 12.9585 14.7771C12.7176 14.3486 12.479 13.9179 12.2426 13.485C12.2028 13.4121 12.1608 13.3767 12.0681 13.3613C11.9598 13.3414 11.8405 13.2906 11.7631 13.2155C11.6019 13.0587 11.3964 12.9328 11.3522 12.681C11.3478 12.6611 11.2793 12.6434 11.2417 12.6434C10.992 12.6434 10.7446 12.6478 10.4949 12.6478C10.3226 12.6478 10.1745 12.5838 10.0398 12.4755C9.98232 12.4292 9.89837 12.3938 9.82545 12.3938C7.87229 12.3894 5.92134 12.3894 3.96818 12.3894C2.90985 12.3894 1.84932 12.3806 0.790985 12.3938C0.399912 12.3982 0.132567 12.2613 0 11.888V10.1607C0.0729121 10.0614 0.154662 9.97963 0.291648 10.0304C0.426425 10.079 0.441891 10.1917 0.439682 10.3176C0.437472 10.777 0.439682 11.2342 0.439682 11.6936C0.439682 11.8836 0.503756 11.9499 0.69156 11.9499C3.67433 11.9499 6.65488 11.9499 9.63765 11.9499C9.67521 11.9499 9.71277 11.9454 9.7658 11.941C9.7437 11.8792 9.72603 11.8306 9.70835 11.782C9.42996 11.0487 9.14936 10.3176 8.87318 9.58205C8.73619 9.21981 8.93062 8.87745 9.2996 8.82886C9.38798 8.81781 9.4852 8.83548 9.56916 8.86641C10.4551 9.19772 11.3389 9.53346 12.2205 9.8714C12.5099 9.98184 12.6513 10.2027 12.6513 10.5186C12.6513 10.7571 12.6447 10.9957 12.6469 11.2364C12.6469 11.2762 12.6734 11.3424 12.7 11.3513C12.985 11.4308 13.1286 11.6738 13.3164 11.8681C13.354 11.9057 13.4136 11.9454 13.4644 11.9476C13.7384 11.9543 14.0102 11.9521 14.2841 11.9521C14.5007 11.9521 14.5603 11.8924 14.5603 11.6738C14.5603 9.67482 14.5603 7.67367 14.5603 5.67473C14.5603 5.44943 14.6266 5.34341 14.7746 5.33899C14.9271 5.33458 15 5.44502 15 5.67915C15 7.67367 15 9.6704 15 11.6649C15 12.1486 14.7548 12.3938 14.2709 12.3938C14.1273 12.3938 13.9814 12.3938 13.7914 12.3938C13.8665 12.4424 13.9041 12.4689 13.9439 12.491C14.2422 12.6567 14.5404 12.8201 14.8387 12.988C14.989 13.0719 15.0354 13.1934 14.9691 13.3105C14.9006 13.4319 14.7768 13.4562 14.6266 13.3723C14.1648 13.1183 13.703 12.8643 13.2457 12.6037C13.1507 12.5484 13.0977 12.5639 13.0247 12.639C12.8679 12.8046 12.7 12.9593 12.5365 13.1205C12.8171 13.6263 13.0888 14.1167 13.3606 14.607C13.4644 14.7948 13.4468 14.8743 13.27 15.0002H13.1242V14.9935ZM9.75696 9.40535C9.75696 9.40535 9.7437 9.4186 9.73707 9.42523C9.98453 9.67261 10.2408 9.91557 10.4795 10.1718C10.5943 10.2955 10.6916 10.3529 10.8772 10.2999C11.1489 10.2204 11.4627 10.3971 11.5952 10.6577C11.7322 10.925 11.6792 11.2563 11.4649 11.4683C11.2572 11.6738 10.928 11.7246 10.665 11.592C10.4021 11.4595 10.2209 11.1503 10.3027 10.8764C10.3624 10.682 10.2894 10.5826 10.1657 10.47C9.98674 10.3043 9.81882 10.1276 9.64649 9.95312C9.57358 9.88023 9.50508 9.80293 9.43438 9.72562C9.42554 9.73445 9.41449 9.74108 9.40566 9.74991C9.70172 10.5274 9.99558 11.3049 10.3005 12.078C10.3248 12.1398 10.4353 12.1994 10.506 12.2017C10.8374 12.2105 11.1688 12.2017 11.5002 12.1906C11.551 12.1906 11.6129 12.1619 11.6527 12.1266C11.8118 11.9764 11.9686 11.8217 12.1167 11.6605C12.1608 11.6119 12.1918 11.5346 12.194 11.4706C12.2072 11.1989 12.205 10.925 12.2095 10.6511C12.2124 10.442 12.1167 10.3006 11.9222 10.227C11.1997 9.95312 10.475 9.67703 9.75254 9.40314L9.75696 9.40535ZM12.6447 11.8151C12.3641 12.0956 12.0924 12.3695 11.8272 12.6346C11.909 12.7229 12.004 12.8245 12.0879 12.9151C12.3685 12.6346 12.6403 12.3607 12.9099 12.0912C12.8237 12.0007 12.7287 11.9013 12.6447 11.8151ZM10.9744 11.2254C11.1158 11.2298 11.2262 11.126 11.2307 10.9868C11.2351 10.841 11.1224 10.724 10.981 10.724C10.8462 10.724 10.7313 10.8411 10.7291 10.9736C10.7291 11.1083 10.8374 11.2232 10.9766 11.2254H10.9744Z" fill="#410EAD"/>
<path d="M0 0.501623C0.134777 0.12834 0.402121 -0.0063946 0.793195 0.000231721C1.73 0.0134844 2.66681 0.00464895 3.60583 0.00464895C3.65444 0.00464895 3.70526 0.000231502 3.75166 0.0090666C3.86434 0.0333631 3.93283 0.104044 3.93283 0.223317C3.93283 0.342591 3.86655 0.413272 3.75166 0.437569C3.70526 0.448613 3.65444 0.441986 3.60583 0.441986C2.65356 0.441986 1.70128 0.441986 0.749006 0.441986C0.483871 0.441986 0.437472 0.48837 0.437472 0.76005C0.437472 1.13554 0.437472 1.50882 0.437472 1.89094H14.5581C14.5581 1.79376 14.5581 1.69878 14.5581 1.6038C14.5581 1.31003 14.5581 1.01848 14.5581 0.724709C14.5581 0.499414 14.5007 0.441986 14.2709 0.441986C11.551 0.441986 8.83341 0.441986 6.11357 0.441986C5.66505 0.441986 5.21432 0.441986 4.7658 0.441986C4.61997 0.441986 4.52276 0.349218 4.52276 0.223317C4.52276 0.0974174 4.61776 0.00906644 4.76359 0.00244012C4.77905 0.00244012 4.79231 0.00244012 4.80778 0.00244012C7.98056 0.00244012 11.1533 0.00244012 14.3283 0.00244012C14.7304 0.00244012 14.9956 0.269702 14.9978 0.673908C14.9978 1.93733 14.9978 3.20074 14.9978 4.46416C14.9978 4.64749 14.9183 4.74689 14.7746 4.74468C14.6332 4.74468 14.5581 4.64528 14.5581 4.45754C14.5581 3.80816 14.5581 3.15878 14.5581 2.51161V2.34595H0.439682C0.439682 2.39896 0.439682 2.45418 0.439682 2.51161C0.439682 4.68283 0.439682 6.85406 0.439682 9.02528C0.439682 9.05841 0.439682 9.09375 0.439682 9.12688C0.44631 9.25278 0.426425 9.36543 0.291648 9.41403C0.154662 9.46483 0.0729121 9.38089 0 9.2815V0.501623Z" fill="#410EAD"/>
<path d="M3.95057 5.8465C4.19361 6.06958 4.28641 6.33684 4.18699 6.65491C4.0964 6.94426 3.83347 7.14084 3.53078 7.14967C3.31204 7.1563 3.09109 7.1563 2.87236 7.15409C2.7177 7.15409 2.63595 7.07237 2.63374 6.91996C2.63153 6.3015 2.63153 5.68305 2.63374 5.06459C2.63374 4.90998 2.71328 4.83267 2.87015 4.83046C3.0447 4.82604 3.22145 4.82604 3.396 4.83046C3.90197 4.84151 4.19582 5.32081 3.98151 5.78244C3.97267 5.80453 3.96162 5.82441 3.95057 5.85091V5.8465ZM3.08447 6.14026V6.71013C3.2325 6.71013 3.36728 6.71455 3.50426 6.71013C3.66334 6.7035 3.77161 6.59527 3.78265 6.44728C3.7937 6.28825 3.6987 6.15793 3.5352 6.14247C3.38716 6.12701 3.23692 6.14026 3.08447 6.14026ZM3.08005 5.2678V5.68967C3.19936 5.68967 3.30983 5.6963 3.4203 5.68967C3.54624 5.68084 3.61253 5.59911 3.61032 5.47321C3.60811 5.35615 3.54182 5.27884 3.4203 5.27222C3.30983 5.26559 3.19936 5.27222 3.07784 5.27222L3.08005 5.2678Z" fill="#410EAD"/>
<path d="M8.9924 5.75453C8.9924 6.13223 8.9924 6.47018 8.9924 6.80591C8.9924 6.85009 8.99461 6.89426 8.9924 6.93844C8.98135 7.06655 8.89739 7.15048 8.77808 7.15269C8.65214 7.15269 8.55713 7.06876 8.55713 6.93181C8.55492 6.30673 8.55713 5.68165 8.55713 5.05877C8.55713 4.94833 8.61237 4.87103 8.71842 4.8401C8.83111 4.80918 8.91507 4.85998 8.97914 4.95496C9.23986 5.32603 9.50057 5.69711 9.76129 6.06818C9.79001 6.11015 9.82315 6.14991 9.8806 6.22721C9.8806 5.95333 9.8806 5.7214 9.8806 5.49169C9.8806 5.35033 9.87618 5.20897 9.8806 5.06761C9.88723 4.91741 9.9734 4.83127 10.1038 4.83127C10.2363 4.83127 10.3159 4.91741 10.3159 5.07423C10.3159 5.68385 10.3159 6.29348 10.3159 6.9031C10.3159 7.01795 10.2783 7.10851 10.1656 7.14385C10.0463 7.1814 9.96014 7.12839 9.89165 7.029C9.61767 6.63584 9.3437 6.24709 9.06752 5.85614C9.05205 5.83405 9.03217 5.81196 8.99019 5.75895L8.9924 5.75453Z" fill="#410EAD"/>
<path d="M10.6277 5.98773C10.6277 5.69617 10.6277 5.40241 10.6277 5.11085C10.6277 4.8966 10.694 4.83033 10.9039 4.82812C11.0541 4.82812 11.2066 4.82812 11.3568 4.82812C11.8363 4.83475 12.1699 5.08434 12.3025 5.54598C12.4063 5.91484 12.3975 6.27929 12.2163 6.62607C12.0395 6.96401 11.7611 7.14955 11.3701 7.15175C11.2044 7.15175 11.0386 7.15617 10.8729 7.15175C10.7116 7.15175 10.6321 7.07224 10.6321 6.90879C10.6299 6.60177 10.6321 6.29475 10.6321 5.98773H10.6299H10.6277ZM11.0784 5.27209V6.70558C11.3634 6.71884 11.6485 6.75418 11.8097 6.4582C11.9843 6.13351 11.9777 5.79778 11.7921 5.48413C11.6286 5.20362 11.3458 5.26767 11.0784 5.27209Z" fill="#410EAD"/>
<path d="M4.978 6.35907C4.978 6.56448 4.978 6.72351 4.978 6.88475C4.978 7.05704 4.89404 7.15202 4.75705 7.15202C4.61786 7.15202 4.54053 7.05925 4.54053 6.88254C4.54053 6.28838 4.54053 5.69422 4.54053 5.10006C4.54053 4.90127 4.61344 4.82839 4.81229 4.82618C4.96253 4.82618 5.11499 4.82397 5.26523 4.82618C5.64084 4.83501 5.92365 5.06914 5.98993 5.42475C6.04959 5.74503 5.86399 6.05426 5.52594 6.19783C5.50827 6.20445 5.49059 6.21108 5.45303 6.22654C5.57234 6.36348 5.68503 6.4938 5.79992 6.62412C5.8419 6.67271 5.88609 6.71689 5.92586 6.76769C6.02749 6.89359 6.02528 7.01728 5.92144 7.10342C5.82643 7.18294 5.69607 7.16748 5.59886 7.05925C5.4442 6.88917 5.29616 6.71689 5.14371 6.5446C5.09952 6.4938 5.05312 6.44521 4.98021 6.36127L4.978 6.35907ZM4.98905 5.27014V5.80025C5.10394 5.80025 5.2122 5.80908 5.31605 5.80025C5.45524 5.78478 5.56351 5.66109 5.5613 5.53519C5.5613 5.40929 5.45082 5.28781 5.31163 5.27456C5.20778 5.26572 5.10173 5.27456 4.98905 5.27456V5.27014Z" fill="#410EAD"/>
<path d="M8.23672 6.8957C8.23672 7.04148 8.18148 7.11878 8.07543 7.14529C7.96937 7.17179 7.87879 7.13645 7.82797 7.03706C7.7882 6.95975 7.75727 6.87582 7.73075 6.79409C7.70645 6.71899 7.66447 6.68807 7.58051 6.69028C7.37503 6.69691 7.17176 6.6947 6.96628 6.69028C6.88453 6.69028 6.84034 6.71237 6.81825 6.79188C6.79394 6.8714 6.76301 6.94871 6.72545 7.0216C6.668 7.13645 6.55532 7.18063 6.44485 7.13866C6.33659 7.09669 6.27914 6.97963 6.32333 6.86256C6.56858 6.22865 6.81825 5.59252 7.07675 4.96302C7.10327 4.90117 7.2049 4.84816 7.28002 4.83491C7.3905 4.81503 7.45457 4.90117 7.49213 4.99836C7.6954 5.51521 7.89867 6.02986 8.10194 6.54671C8.15055 6.67261 8.19916 6.80072 8.23672 6.8957ZM7.03698 6.23969H7.5076C7.42806 6.0409 7.35735 5.85757 7.27119 5.64332C7.18723 5.85757 7.11431 6.0409 7.03698 6.23969Z" fill="#410EAD"/>
<path d="M1.76074 9.13843C1.62818 9.13843 1.49782 9.14064 1.36525 9.13843C1.12 9.13181 0.956503 8.98603 0.947665 8.74085C0.936618 8.46917 0.938828 8.19529 0.947665 7.92361C0.956503 7.67181 1.11337 7.52603 1.37188 7.52161C1.46689 7.52161 1.5398 7.51719 1.60387 7.4178C1.67458 7.30515 1.85575 7.31619 1.92866 7.43105C1.97727 7.50615 2.02809 7.52161 2.10542 7.52161C2.42358 7.52382 2.56278 7.66739 2.57603 7.98766C2.57824 8.04288 2.6136 8.11135 2.65558 8.1489C2.77047 8.25713 2.77268 8.39628 2.65778 8.50451C2.6158 8.54427 2.57824 8.61054 2.57603 8.66575C2.56057 8.99707 2.41916 9.13843 2.08112 9.14064C1.97285 9.14064 1.8668 9.14064 1.75854 9.14064L1.76074 9.13843ZM1.39618 7.96557V8.69005H2.12531V7.96557H1.39618Z" fill="#410EAD"/>
<path d="M13.2281 9.13829C13.1066 9.13829 12.9851 9.13829 12.8636 9.13829C12.594 9.13387 12.4372 8.98147 12.4283 8.71421C12.4261 8.62144 12.4283 8.54634 12.3289 8.48229C12.214 8.4094 12.2383 8.25036 12.3399 8.15318C12.3819 8.11342 12.4217 8.04937 12.4239 7.99415C12.4372 7.66504 12.5719 7.53251 12.9034 7.51926C12.9564 7.51926 13.0205 7.48613 13.0558 7.44637C13.1685 7.31605 13.3165 7.31605 13.4292 7.44637C13.4646 7.48613 13.5286 7.51926 13.5794 7.52147C13.9175 7.53472 14.0545 7.67167 14.0567 8.00961C14.0567 8.23269 14.0567 8.45799 14.0567 8.68107C14.0545 8.98809 13.8998 9.1405 13.5971 9.14271C13.4756 9.14271 13.3541 9.14271 13.2326 9.14271L13.2281 9.13829ZM13.606 8.69212V7.96985H12.8746V8.69212H13.606Z" fill="#410EAD"/>
<path d="M1.76306 2.84303C1.88458 2.84303 2.0061 2.84303 2.12762 2.84303C2.4038 2.84524 2.56509 2.99764 2.56951 3.27595C2.56951 3.36651 2.57614 3.43498 2.66673 3.49462C2.78162 3.57192 2.7772 3.74421 2.6601 3.81931C2.57835 3.87232 2.57172 3.93195 2.57172 4.01147C2.5673 4.30745 2.41927 4.45543 2.11878 4.45985C2.03703 4.45985 1.97959 4.46869 1.92656 4.55041C1.84923 4.66969 1.67026 4.66969 1.59072 4.55041C1.54212 4.47752 1.4913 4.46206 1.41176 4.45985C1.0936 4.45543 0.947772 4.30966 0.945562 3.9938C0.945562 3.75967 0.943353 3.52554 0.945562 3.29141C0.949981 2.99543 1.10464 2.84082 1.3985 2.84082C1.52002 2.84082 1.64154 2.84082 1.76306 2.84082V2.84303ZM1.39629 3.2892V4.01368H2.1232V3.2892H1.39629Z" fill="#410EAD"/>
<path d="M14.0544 3.64872C14.0544 3.77462 14.0566 3.90273 14.0544 4.02863C14.0455 4.30252 13.8975 4.45492 13.6279 4.46155C13.5329 4.46155 13.46 4.46818 13.3959 4.56536C13.323 4.6758 13.1617 4.65371 13.0645 4.55432C13.0247 4.51235 12.9607 4.47038 12.9054 4.46817C12.5652 4.4505 12.437 4.3224 12.4238 3.98004C12.4238 3.93144 12.3906 3.87181 12.3553 3.84088C12.2227 3.72603 12.2227 3.58467 12.3553 3.4676C12.3951 3.43226 12.4238 3.36821 12.426 3.3152C12.4392 2.9883 12.5829 2.84473 12.9054 2.84473C13.1396 2.84473 13.3738 2.84473 13.608 2.84473C13.8931 2.84473 14.0499 2.99934 14.0566 3.28648C14.0588 3.40796 14.0566 3.52945 14.0566 3.65093L14.0544 3.64872ZM13.6036 4.01538V3.2909H12.8745V4.01538H13.6036Z" fill="#410EAD"/>
<path d="M3.63688 8.11061C3.70096 8.11061 3.76282 8.10619 3.8269 8.11061C3.95284 8.11945 4.02354 8.19675 4.03017 8.31603C4.03679 8.43088 3.97272 8.52144 3.85783 8.5347C3.71421 8.55237 3.56618 8.55237 3.42257 8.5347C3.30326 8.52144 3.23697 8.43088 3.24802 8.30498C3.25907 8.17908 3.3364 8.11503 3.46013 8.1084C3.51757 8.10619 3.57723 8.1084 3.63467 8.1084L3.63688 8.11061Z" fill="#410EAD"/>
<path d="M11.3566 8.54412C11.2881 8.54412 11.2196 8.55516 11.1533 8.54412C11.034 8.52203 10.9611 8.44031 10.97 8.31882C10.9788 8.19955 11.0495 8.12004 11.1776 8.11562C11.2992 8.1112 11.4207 8.1112 11.5422 8.11562C11.6659 8.12004 11.7411 8.18851 11.7521 8.31441C11.7632 8.43368 11.6858 8.53087 11.5621 8.54854C11.4958 8.55737 11.4273 8.54854 11.3588 8.54854L11.3566 8.54412Z" fill="#410EAD"/>
<path d="M3.63692 3.87024C3.57284 3.87024 3.51098 3.87466 3.4469 3.87024C3.3298 3.8592 3.2591 3.79294 3.24805 3.67587C3.237 3.54997 3.30108 3.46162 3.4226 3.44616C3.56179 3.42849 3.70541 3.42849 3.84461 3.44395C3.96613 3.4572 4.03683 3.54335 4.0302 3.66704C4.02357 3.78852 3.95287 3.86362 3.82693 3.87245C3.76506 3.87687 3.70099 3.87245 3.63692 3.87245V3.87024Z" fill="#410EAD"/>
<path d="M11.3588 3.87021C11.2947 3.87021 11.2329 3.87462 11.1688 3.87021C11.0428 3.85916 10.9721 3.78185 10.9677 3.66037C10.9633 3.53668 11.0362 3.45275 11.1555 3.43949C11.2903 3.42624 11.4295 3.42403 11.5621 3.43949C11.6814 3.45275 11.7521 3.53447 11.7477 3.66037C11.7432 3.78627 11.6703 3.85474 11.5466 3.868C11.4847 3.87462 11.4207 3.868 11.3566 3.868L11.3588 3.87021Z" fill="#410EAD"/>
<path d="M10.0729 3.86995C10.0088 3.86995 9.94697 3.87437 9.8829 3.86995C9.75696 3.85891 9.68626 3.78381 9.68184 3.66233C9.67742 3.53863 9.74812 3.45249 9.86964 3.44145C10.0044 3.4282 10.1414 3.42599 10.2762 3.44145C10.3955 3.4547 10.4684 3.53642 10.4618 3.66233C10.4574 3.78823 10.3844 3.85891 10.2607 3.86995C10.1988 3.87658 10.1348 3.86995 10.0707 3.86995H10.0729Z" fill="#410EAD"/>
<path d="M4.92472 3.86995C4.86064 3.86995 4.79878 3.87437 4.7347 3.86995C4.61097 3.85891 4.54027 3.78823 4.53364 3.66233C4.52922 3.53642 4.59993 3.4547 4.71924 3.44145C4.85401 3.42599 4.991 3.4282 5.12578 3.44145C5.2473 3.4547 5.318 3.53863 5.31358 3.66233C5.30916 3.78381 5.23846 3.85891 5.11252 3.86995C5.05066 3.87437 4.98658 3.86995 4.92251 3.86995H4.92472Z" fill="#410EAD"/>
<path d="M4.91403 8.54365C4.84996 8.54365 4.78588 8.55028 4.72402 8.54365C4.60029 8.52598 4.52296 8.4288 4.53401 8.30952C4.54726 8.18583 4.62017 8.11736 4.7439 8.11074C4.861 8.10632 4.97811 8.10632 5.093 8.11074C5.22336 8.11515 5.30952 8.19688 5.31615 8.31394C5.32278 8.43322 5.2344 8.53261 5.10184 8.54586C5.03997 8.55249 4.9759 8.54586 4.91182 8.54586L4.91403 8.54365Z" fill="#410EAD"/>
<path d="M10.0685 8.11036C10.1325 8.11036 10.1944 8.10594 10.2585 8.11036C10.3822 8.1192 10.4551 8.18767 10.464 8.31357C10.4706 8.43947 10.4021 8.52561 10.2828 8.53886C10.1436 8.55432 9.99997 8.55432 9.86078 8.53886C9.74147 8.5234 9.67297 8.43284 9.68402 8.31136C9.69507 8.18988 9.76798 8.1192 9.89392 8.11257C9.95137 8.11036 10.011 8.11257 10.0685 8.11257V8.11036Z" fill="#410EAD"/>
<path d="M8.78259 8.5434C8.7141 8.5434 8.64561 8.55444 8.57932 8.54119C8.46001 8.5191 8.38931 8.43959 8.39594 8.3159C8.40256 8.1922 8.47548 8.11931 8.60142 8.11269C8.72294 8.10827 8.84446 8.10827 8.96598 8.11269C9.08971 8.11711 9.16483 8.18558 9.17587 8.31148C9.18692 8.43075 9.10959 8.52794 8.98586 8.54561C8.91958 8.55444 8.85108 8.54561 8.78259 8.54561V8.5434Z" fill="#410EAD"/>
<path d="M6.20204 3.868C6.13797 3.868 6.0761 3.87463 6.01203 3.868C5.89493 3.85475 5.82864 3.78407 5.82202 3.66479C5.81539 3.54552 5.87725 3.45717 5.98994 3.44392C6.13797 3.42625 6.29042 3.42625 6.43845 3.44392C6.55114 3.45717 6.61079 3.54994 6.60195 3.667C6.59312 3.78407 6.52462 3.85475 6.40531 3.86579C6.33903 3.87242 6.27054 3.86579 6.20204 3.86579V3.868Z" fill="#410EAD"/>
<path d="M6.21089 8.11036C6.26834 8.11036 6.328 8.10815 6.38544 8.11036C6.5158 8.11698 6.59976 8.19871 6.60418 8.31577C6.6086 8.43284 6.52906 8.53223 6.40312 8.54107C6.27276 8.5499 6.14019 8.55211 6.00983 8.54107C5.8861 8.53002 5.80877 8.42621 5.82203 8.30694C5.83529 8.18325 5.91041 8.11698 6.03414 8.11036C6.09158 8.10815 6.15124 8.11036 6.20868 8.11036H6.21089Z" fill="#410EAD"/>
<path d="M8.7915 3.86991C8.72742 3.86991 8.66556 3.87433 8.60149 3.86991C8.47776 3.86108 8.40705 3.7904 8.3938 3.66671C8.38275 3.54964 8.46671 3.44583 8.59044 3.43699C8.7208 3.42595 8.85336 3.42595 8.98372 3.43699C9.10745 3.44804 9.18699 3.54964 9.17594 3.66891C9.1649 3.79482 9.08978 3.86108 8.96605 3.86991C8.9086 3.87433 8.84894 3.86991 8.7915 3.86991Z" fill="#410EAD"/>
<path d="M7.49869 3.86979C7.43462 3.86979 7.37275 3.8742 7.30868 3.86979C7.18495 3.85874 7.11204 3.78585 7.10762 3.66216C7.1032 3.53626 7.1739 3.45454 7.29321 3.44128C7.42799 3.42582 7.56498 3.42582 7.69975 3.44128C7.81906 3.45454 7.89198 3.53626 7.88756 3.66216C7.88314 3.78585 7.81243 3.85874 7.6887 3.86979C7.62684 3.87641 7.56277 3.86979 7.49869 3.86979Z" fill="#410EAD"/>
<path d="M7.49898 8.11062C7.56305 8.11062 7.62492 8.1062 7.68899 8.11062C7.80609 8.11945 7.87679 8.18572 7.88784 8.30278C7.9011 8.42868 7.83702 8.51924 7.71771 8.5347C7.5741 8.55237 7.42607 8.55237 7.28245 8.5347C7.16314 8.51924 7.09907 8.42868 7.11011 8.30278C7.12116 8.18572 7.19186 8.11945 7.30896 8.10841C7.37083 8.10399 7.4349 8.10841 7.49898 8.10841V8.11062Z" fill="#410EAD"/>
<path d="M13.4622 5.41436C13.4578 5.48283 13.4622 5.5513 13.449 5.61757C13.4291 5.72801 13.3495 5.78543 13.2435 5.78764C13.1374 5.78764 13.0468 5.73463 13.0336 5.62419C13.0181 5.48504 13.0181 5.34368 13.0336 5.20453C13.0446 5.0963 13.133 5.03887 13.2435 5.04108C13.3517 5.04108 13.4291 5.10292 13.449 5.21115C13.4622 5.27742 13.4578 5.34589 13.4622 5.41436Z" fill="#410EAD"/>
<path d="M1.54444 6.56027C1.54444 6.50284 1.54003 6.44321 1.54444 6.38578C1.5577 6.25988 1.63945 6.19141 1.75876 6.19141C1.87144 6.19141 1.95761 6.25546 1.96866 6.37473C1.97971 6.50063 1.98192 6.62653 1.96866 6.75243C1.95761 6.87613 1.87144 6.9446 1.74992 6.94018C1.63503 6.93576 1.55991 6.8695 1.54665 6.75243C1.54003 6.69059 1.54665 6.62653 1.54665 6.56248L1.54444 6.56027Z" fill="#410EAD"/>
<path d="M13.462 6.5734C13.4576 6.63524 13.462 6.6993 13.451 6.76114C13.4333 6.87158 13.3582 6.93343 13.2521 6.93785C13.1373 6.94226 13.0489 6.88263 13.0334 6.76777C13.0179 6.64408 13.0202 6.51597 13.0268 6.39007C13.0334 6.26638 13.1152 6.19791 13.2367 6.18907C13.3494 6.18024 13.4422 6.2708 13.4554 6.3967C13.462 6.45412 13.4554 6.51376 13.4554 6.57119C13.4554 6.57119 13.4598 6.57119 13.462 6.57119V6.5734Z" fill="#410EAD"/>
<path d="M1.53784 5.41183C1.54005 5.34999 1.53784 5.28593 1.54889 5.22409C1.56656 5.10702 1.64169 5.04297 1.75879 5.04297C1.87589 5.04297 1.95764 5.10481 1.9709 5.22188C1.98415 5.34557 1.98415 5.47368 1.9731 5.59958C1.96206 5.72327 1.87589 5.79174 1.75437 5.78953C1.63506 5.78512 1.55552 5.71444 1.54447 5.58854C1.54005 5.53111 1.54447 5.47147 1.54447 5.41404C1.54447 5.41404 1.54005 5.41404 1.53784 5.41404V5.41183Z" fill="#410EAD"/>
<path d="M3.51526 1.17549C3.51084 1.29918 3.40921 1.39195 3.28327 1.38311C3.16617 1.37649 3.07337 1.27709 3.07779 1.16224C3.08221 1.04738 3.18163 0.950195 3.29652 0.950195C3.41584 0.950195 3.51747 1.05401 3.51526 1.17549Z" fill="#410EAD"/>
<path d="M2.29771 0.949626C2.41702 0.954043 2.51866 1.06448 2.50982 1.18155C2.50098 1.29861 2.40377 1.38696 2.28446 1.38255C2.15852 1.38034 2.06793 1.28094 2.07677 1.15283C2.0834 1.03577 2.18282 0.943 2.29771 0.947417V0.949626Z" fill="#410EAD"/>
<path d="M1.50019 1.16695C1.50019 1.29285 1.4074 1.38782 1.27925 1.38341C1.15994 1.3812 1.06714 1.28622 1.06714 1.16915C1.06714 1.04988 1.17098 0.946068 1.29029 0.948277C1.4074 0.950486 1.50019 1.04767 1.50019 1.16474V1.16695Z" fill="#410EAD"/>
</svg>
