<svg width="15" height="15" viewBox="0 0 15 15" fill="none" xmlns="http://www.w3.org/2000/svg">
<path d="M14.9957 9.24638C14.9099 9.45877 14.7811 9.63039 14.545 9.68403C14.1609 9.76984 13.8261 9.49309 13.8261 9.08762C13.8261 8.10721 13.8261 7.12679 13.8261 6.14637C13.8261 5.28181 13.8261 4.41938 13.8261 3.55481C13.8261 2.19467 12.7959 1.16921 11.4332 1.16921C8.81276 1.16921 6.19236 1.16921 3.56981 1.16921C2.20059 1.16921 1.17475 2.19682 1.17475 3.56769C1.17475 6.18285 1.17475 8.79801 1.17475 11.4132C1.17475 12.7926 2.20059 13.8138 3.58269 13.8138C5.3983 13.8138 7.21391 13.8138 9.02952 13.8138C9.22696 13.8138 9.3965 13.8674 9.52527 14.0197C9.6755 14.2 9.71198 14.4038 9.62185 14.6226C9.52956 14.8457 9.35358 14.9808 9.11536 14.983C7.18172 14.9873 5.24807 15.0259 3.31657 14.9701C1.47521 14.9186 0.0137037 13.3525 0.00726534 11.5097C-0.0013191 8.82589 -0.00346521 6.14208 0.00726534 3.46042C0.0137037 1.71197 1.36361 0.22955 3.09981 0.025744C3.132 0.0214533 3.1642 0.00858133 3.19639 0C6.06574 0 8.93509 0 11.8066 0C11.8388 0.00858133 11.871 0.0235986 11.9032 0.025744C13.326 0.19308 14.5214 1.22927 14.882 2.62159C14.9313 2.80824 14.9614 3.00132 15 3.19011V9.25067L14.9957 9.24638Z" fill="#410EAD"/>
<path d="M14.9958 13.0805C14.9614 13.2178 14.9378 13.3551 14.8949 13.4902C14.427 14.9726 12.5749 15.4875 11.4332 14.4277C10.6434 13.694 9.89231 12.9174 9.14546 12.1408C8.55099 11.5208 8.23551 10.7549 8.08743 9.9161C8.00373 9.44627 7.90286 8.97859 7.81058 8.5109C7.72259 8.06467 8.07026 7.71069 8.51236 7.79865C9.14761 7.92737 9.785 8.04322 10.416 8.19339C11.1242 8.36073 11.738 8.719 12.2552 9.22744C12.9698 9.92897 13.6738 10.6369 14.3798 11.347C14.706 11.6753 14.9013 12.0722 14.97 12.5313C14.9743 12.5591 14.9872 12.587 14.9958 12.6128V13.0805ZM9.12829 9.12447C9.16477 9.31111 9.20126 9.4763 9.22701 9.64364C9.33861 10.3237 9.59185 10.9373 10.0833 11.4328C10.7808 12.1365 11.4783 12.838 12.1844 13.5331C12.5685 13.9128 13.1651 13.9021 13.5407 13.5267C13.9141 13.1513 13.9248 12.5549 13.5471 12.1708C12.8475 11.4629 12.1414 10.7635 11.4354 10.0598C10.8044 9.43125 9.99103 9.25104 9.12829 9.12232V9.12447Z" fill="#410EAD"/>
<path d="M7.48232 6.61199C6.17104 6.61199 4.85762 6.61199 3.54635 6.61199C3.11498 6.61199 2.82955 6.22998 2.96261 5.83939C3.03772 5.6162 3.2416 5.45953 3.47553 5.44236C3.50987 5.44021 3.5442 5.44236 3.57854 5.44236C6.1925 5.44236 8.80861 5.44236 11.4226 5.44236C11.6994 5.44236 11.9076 5.54537 12.0192 5.80291C12.1887 6.1935 11.9033 6.61199 11.4634 6.61414C10.6242 6.61843 9.7851 6.61414 8.94597 6.61414C8.4588 6.61414 7.96949 6.61414 7.48232 6.61414V6.61199Z" fill="#410EAD"/>
<path d="M8.8171 3.09766C9.69915 3.09766 10.5833 3.09766 11.4654 3.09766C11.886 3.09766 12.165 3.48396 12.0363 3.87026C11.9569 4.10633 11.7401 4.26514 11.4783 4.26729C11.1134 4.27158 10.7464 4.26729 10.3816 4.26729C8.97162 4.26729 7.56162 4.26729 6.15377 4.26729C5.7224 4.26729 5.43697 3.88528 5.57003 3.49469C5.65373 3.24788 5.87263 3.09766 6.15592 3.09766C7.04441 3.09766 7.93075 3.09766 8.81924 3.09766H8.8171Z" fill="#410EAD"/>
<path d="M4.5698 8.95303C4.22857 8.95303 3.88734 8.95303 3.54611 8.95303C3.18986 8.95303 2.93018 8.70193 2.93018 8.36714C2.93018 8.03234 3.18986 7.7834 3.54611 7.78125C4.22857 7.78125 4.91104 7.78125 5.5935 7.78125C5.94975 7.78125 6.20943 8.0302 6.20943 8.36499C6.20943 8.69979 5.94975 8.94873 5.5935 8.95088C5.25227 8.95088 4.91104 8.95088 4.5698 8.95088V8.95303Z" fill="#410EAD"/>
<path d="M4.39382 3.61898C4.39597 4.0246 4.06761 4.3551 3.66415 4.35724C3.25853 4.35724 2.93018 4.02889 2.93018 3.62327C2.93018 3.2241 3.25424 2.89789 3.65342 2.8936C4.05903 2.8893 4.39168 3.21551 4.39382 3.61898Z" fill="#410EAD"/>
</svg>
