<svg width="9" height="15" viewBox="0 0 9 15" fill="none" xmlns="http://www.w3.org/2000/svg">
<path d="M0 7.50358C0 5.4899 0 3.47622 0 1.46016C0 0.555909 0.559335 0 1.47549 0C3.49344 0 5.51139 0 7.53174 0C8.43584 0 9 0.555909 9 1.44823C9 5.48274 9 9.51726 9 13.5494C9 14.4417 8.43584 15 7.53416 15C5.50897 15 3.4862 15 1.46102 15C0.56898 15 0 14.4393 0 13.5589C0 11.5381 0 9.51964 0 7.49881V7.50358ZM7.08813 0.54398C6.96035 1.11182 6.83981 1.66296 6.71203 2.20932C6.62041 2.6006 6.34557 2.83203 5.94294 2.83681C4.97857 2.84396 4.0142 2.84635 3.04983 2.83681C2.65443 2.83203 2.38441 2.6006 2.29038 2.22125C2.25663 2.08526 2.2277 1.94926 2.19877 1.81327C2.10233 1.39097 2.0083 0.968666 1.90946 0.539208C1.75034 0.539208 1.60327 0.539208 1.45861 0.539208C0.863113 0.539208 0.542459 0.858915 0.542459 1.453C0.542459 5.48751 0.542459 9.52203 0.542459 13.5565C0.542459 14.1482 0.865524 14.4703 1.45861 14.4703C3.47656 14.4703 5.49692 14.4703 7.51487 14.4703C8.14653 14.4703 8.45995 14.1626 8.45995 13.5351C8.45995 9.51726 8.45995 5.49944 8.45995 1.48163C8.45995 1.42675 8.45995 1.36949 8.45995 1.31462C8.44066 0.923334 8.15135 0.594083 7.75837 0.551137C7.54139 0.527278 7.32199 0.546366 7.09054 0.546366L7.08813 0.54398ZM2.46638 0.54398C2.58452 1.07364 2.70024 1.59615 2.81838 2.11627C2.84972 2.24988 2.95339 2.30237 3.08599 2.30237C3.30538 2.30237 3.52478 2.30237 3.74658 2.30237C4.45058 2.30237 5.15698 2.30237 5.86097 2.30237C6.00804 2.30237 6.14064 2.27374 6.17921 2.11389C6.29976 1.59377 6.41548 1.07126 6.53362 0.541594H2.46879L2.46638 0.54398Z" fill="#410EAD"/>
<path d="M2.66171 12.0586C2.85458 11.9942 3.01612 11.9369 3.18006 11.8845C3.3657 11.8248 3.51036 11.8845 3.5634 12.0419C3.61403 12.1898 3.53929 12.3235 3.35847 12.3879C2.97754 12.5239 2.5942 12.6551 2.21087 12.7839C1.9987 12.8555 1.86128 12.7768 1.80583 12.5597C1.70698 12.1755 1.61296 11.7914 1.52134 11.4073C1.47553 11.2116 1.54545 11.0804 1.70939 11.0399C1.86851 10.9993 1.99388 11.09 2.04692 11.2856C2.06862 11.3667 2.0855 11.4478 2.10479 11.529C2.12407 11.6101 2.14818 11.6888 2.17711 11.7986C2.22051 11.7246 2.24944 11.6745 2.27837 11.622C2.72439 10.8108 3.17283 9.99722 3.61885 9.18603C3.64778 9.13354 3.67671 9.07389 3.72011 9.03333C3.81413 8.94028 3.92745 8.91881 4.04317 8.988C4.15408 9.0548 4.20712 9.15739 4.16613 9.28862C4.14684 9.35065 4.11309 9.4103 4.08175 9.46995C3.64055 10.2716 3.19935 11.0756 2.75815 11.8773C2.72922 11.9298 2.7027 11.9823 2.66171 12.0658V12.0586Z" fill="#410EAD"/>
<path d="M6.81823 4.48968C6.71697 4.67339 6.63741 4.82131 6.55544 4.96685C6.24443 5.52992 5.93583 6.0906 5.62482 6.65366C5.60795 6.6823 5.59589 6.71331 5.5766 6.74194C5.48258 6.89225 5.34033 6.93997 5.20532 6.86839C5.06308 6.79443 5.01968 6.64174 5.10888 6.4795C5.4223 5.9045 5.73814 5.33428 6.05156 4.76167C6.14076 4.59704 6.22996 4.4348 6.34087 4.23439C6.14799 4.29881 5.99611 4.35129 5.84422 4.4014C5.63447 4.47059 5.49704 4.42049 5.43677 4.25825C5.37891 4.10078 5.45847 3.96955 5.6634 3.89798C6.03468 3.76914 6.40596 3.6403 6.77966 3.51624C6.99905 3.44228 7.13165 3.50908 7.18952 3.72858C7.29077 4.11748 7.3848 4.50638 7.47642 4.89766C7.51981 5.08137 7.44507 5.21975 7.2956 5.25793C7.13406 5.29849 7.00387 5.21021 6.95083 5.02173C6.92914 4.94061 6.91226 4.85949 6.89056 4.77837C6.86886 4.69725 6.84716 4.61613 6.81582 4.49445L6.81823 4.48968Z" fill="#410EAD"/>
</svg>
