<svg width="15" height="15" viewBox="0 0 15 15" fill="none" xmlns="http://www.w3.org/2000/svg">
<path d="M10.4449 7.14682C10.9235 8.9027 10.5412 10.4047 9.16957 11.6154C8.18833 12.4813 6.38092 13.0452 4.52004 12.059C4.42111 12.1739 4.32219 12.2942 4.22059 12.4118C3.6404 13.1013 3.06289 13.7962 2.48002 14.483C2.11106 14.916 1.63781 15.087 1.08436 14.9588C0.54428 14.8331 0.186006 14.4857 0.0496487 13.9485C-0.09473 13.3766 0.0790594 12.8929 0.528238 12.5134C1.15388 11.9815 1.78487 11.4577 2.41318 10.9285C2.58964 10.7788 2.76611 10.6319 2.93455 10.4902C2.13779 8.83856 2.20731 7.25639 3.38907 5.84527C4.56282 4.44217 6.10286 4.08404 7.85679 4.56511C7.57071 3.31167 7.81401 2.18117 8.67227 1.21637C9.37544 0.427961 10.2711 0.0244018 11.3299 0.0110389C13.4394 -0.0156869 15.1239 1.76692 14.9928 3.86222C14.8565 6.04037 12.7336 7.7428 10.4422 7.15216L10.4449 7.14682ZM11.3754 0.476067C11.1989 0.492103 11.0224 0.497447 10.8513 0.529518C8.75515 0.909024 7.63755 3.10321 8.56264 5.01945C8.6081 5.11031 8.60275 5.18247 8.56264 5.27334C8.30597 5.83191 8.05464 6.39048 7.80332 6.94905C7.76321 7.03457 7.70439 7.12544 7.7953 7.21096C7.89155 7.30183 7.97176 7.22432 8.05197 7.17622C8.52789 6.88223 9.0038 6.59092 9.47437 6.29159C9.5626 6.23547 9.62677 6.2328 9.715 6.29159C10.3781 6.70584 11.1 6.85818 11.87 6.73524C13.4688 6.48135 14.6372 5.01143 14.5143 3.42125C14.3859 1.75623 13.0304 0.486757 11.378 0.47874L11.3754 0.476067ZM8.06534 5.18515C7.44237 4.90185 6.81406 4.78693 6.15099 4.86176C4.02541 5.09962 2.56023 7.08802 2.97733 9.1753C3.27678 10.6773 4.51737 11.8506 6.02265 12.059C7.56804 12.2728 9.07599 11.4924 9.77115 10.1027C10.2818 9.07909 10.3005 8.03411 9.83799 6.98379C9.76313 6.81275 9.62142 6.77266 9.46635 6.86887C9.41555 6.90094 9.36475 6.93301 9.30593 6.9731C9.68292 7.71608 9.78986 8.48578 9.57062 9.28755C9.3487 10.0973 8.87279 10.7201 8.15892 11.1557C6.94774 11.8987 5.38631 11.7169 4.35427 10.7254C3.32758 9.73922 3.09497 8.17576 3.7928 6.93836C4.14573 6.31297 4.65372 5.85062 5.3168 5.57267C6.1697 5.21454 7.01993 5.24662 7.87016 5.62612C7.937 5.47646 7.9985 5.34283 8.06801 5.18782L8.06534 5.18515ZM4.05215 11.8612C3.742 11.5512 3.4479 11.2572 3.14042 10.9472C3.00139 11.0648 2.79284 11.2385 2.5843 11.4123C2.00946 11.8933 1.43729 12.377 0.862447 12.8581C0.581711 13.0933 0.440006 13.3846 0.504174 13.7481C0.571016 14.1222 0.798279 14.3761 1.16457 14.475C1.54691 14.5793 1.87042 14.4563 2.12175 14.157C2.6244 13.561 3.12438 12.9623 3.62703 12.3664C3.78745 12.1739 3.94787 11.9815 4.04947 11.8612H4.05215ZM5.6724 9.66706H7.39959C7.43435 9.34902 7.47178 9.03366 7.50654 8.71562H5.5601C5.59753 9.039 5.63497 9.35169 5.66972 9.66706H5.6724ZM7.24719 7.26174H5.66972C5.63229 7.57977 5.59753 7.88979 5.5601 8.20783H7.48782C7.47713 7.87109 7.4905 7.53969 7.24719 7.26174ZM5.17509 7.25372C4.85692 7.25372 4.54143 7.25372 4.22594 7.25372C4.1992 7.25372 4.15909 7.28045 4.14573 7.3045C4.00669 7.59047 3.91312 7.88712 3.89707 8.20783H5.08151C5.1136 7.88712 5.14568 7.5771 5.17777 7.25105L5.17509 7.25372ZM5.07884 8.71562H3.8944C3.91579 9.03098 4.00402 9.31962 4.13236 9.5949C4.1484 9.62697 4.18583 9.66973 4.21257 9.66973C4.53341 9.67507 4.85425 9.6724 5.17509 9.6724C5.14301 9.34368 5.11092 9.03366 5.07884 8.71562ZM7.99315 8.71028C7.96107 9.03633 7.92898 9.34635 7.89422 9.66973C8.21507 9.66973 8.53056 9.66973 8.84605 9.66973C8.87012 9.66973 8.90755 9.65102 8.91824 9.62964C9.05995 9.341 9.15887 9.039 9.17224 8.71028H7.99048H7.99315ZM7.26056 10.1588H5.81143C5.9157 10.4635 6.02532 10.7548 6.25258 10.9793C6.44509 11.169 6.6269 11.169 6.81941 10.9793C7.04667 10.7521 7.15896 10.4635 7.26056 10.1588ZM5.81678 6.75929H7.30067C7.15094 6.48936 7.03865 6.23547 6.87823 6.01632C6.66433 5.72233 6.42637 5.73035 6.19376 6.00563C6.00928 6.22478 5.90233 6.48402 5.81678 6.75929ZM7.98246 8.2105H9.17492C9.16155 7.8791 9.02519 7.4408 8.88081 7.24036C8.57869 7.41675 8.27656 7.59046 7.95572 7.78022C7.96374 7.90316 7.97443 8.05817 7.98513 8.21318L7.98246 8.2105ZM4.49063 6.76998C4.65372 6.76998 4.77939 6.76998 4.90505 6.76998C5.03339 6.76998 5.18846 6.80473 5.28471 6.74593C5.36492 6.69782 5.37294 6.5348 5.4184 6.42255C5.47722 6.27823 5.54139 6.13658 5.61625 5.97088C5.16707 6.14727 4.80612 6.39315 4.49063 6.76998ZM4.49063 10.1561C4.80612 10.533 5.16707 10.7815 5.60021 10.9472C5.50395 10.6933 5.41305 10.4501 5.3168 10.2123C5.3061 10.1882 5.266 10.1615 5.23926 10.1588C5.0013 10.1535 4.76067 10.1588 4.49063 10.1588V10.1561ZM8.58136 10.1561C8.31399 10.1561 8.08138 10.1561 7.85145 10.1561C7.81936 10.1561 7.76589 10.1775 7.75519 10.2042C7.65627 10.4474 7.56536 10.6907 7.46911 10.9472C7.90225 10.7815 8.26319 10.533 8.57869 10.1561H8.58136ZM7.4397 5.96554C7.49852 6.07779 7.53328 6.14995 7.5814 6.24081C7.61349 6.17133 7.63488 6.12322 7.66161 6.06175C7.59477 6.03235 7.53862 6.0083 7.4397 5.96554Z" fill="#410EAD"/>
<path d="M14.99 14.9875H8.23633V12.5875H10.1614V14.5037H10.6426V10.6499H12.5784V14.4984H13.065V8.22852H14.99V14.9848V14.9875ZM13.5596 8.71492V14.5037H14.5088V8.71492H13.5596ZM12.0864 14.5064V11.139H11.1373V14.5064H12.0864ZM9.66675 14.5064V13.0686H8.72026V14.5064H9.66675Z" fill="#410EAD"/>
<path d="M4.11628 3.38883C4.11628 3.67746 4.11628 3.94472 4.11628 4.21198C4.11628 4.47924 4.00666 4.67968 3.76068 4.79193C3.52807 4.89616 3.29279 4.84271 3.08691 4.63692C2.70458 4.25741 2.32224 3.87791 1.94525 3.49306C1.87306 3.4209 1.80087 3.38615 1.6966 3.38615C1.38378 3.39417 1.07096 3.3915 0.760813 3.38615C0.316983 3.38348 0.00683594 3.07614 0.00683594 2.63516C0.00683594 2.00443 0.00683594 1.37638 0.00683594 0.745649C0.00683594 0.312692 0.316983 0 0.750119 0C2.67517 0 4.59754 0 6.52259 0C6.94771 0 7.26053 0.310019 7.2632 0.732286C7.26588 1.37103 7.26855 2.01245 7.2632 2.6512C7.26053 3.07346 6.94771 3.38081 6.52259 3.38348C5.78198 3.38615 5.04137 3.38348 4.30077 3.38348C4.24729 3.38348 4.19114 3.38348 4.12163 3.38348L4.11628 3.38883ZM3.63235 2.90509C3.71256 2.90509 3.76603 2.90509 3.82218 2.90509C4.70449 2.90509 5.58413 2.90509 6.46645 2.90509C6.69371 2.90509 6.77659 2.82224 6.77659 2.59507C6.77659 1.99107 6.77659 1.38707 6.77659 0.783065C6.77659 0.574604 6.69104 0.486409 6.48516 0.486409C4.5815 0.486409 2.67784 0.486409 0.774182 0.486409C0.579004 0.486409 0.490772 0.577276 0.488099 0.775047C0.488099 1.38974 0.488099 2.00443 0.488099 2.61645C0.488099 2.81422 0.57633 2.89974 0.774182 2.90242C1.01481 2.90242 1.26079 2.92647 1.49875 2.89707C1.88643 2.84897 2.16984 2.97992 2.42384 3.27658C2.73132 3.6347 3.08692 3.95274 3.4238 4.28414C3.45588 4.31621 3.52807 4.34561 3.56283 4.33225C3.59759 4.31621 3.6163 4.24672 3.62967 4.19862C3.64037 4.1612 3.62967 4.11844 3.62967 4.07835C3.62967 3.69083 3.62967 3.30598 3.62967 2.90242L3.63235 2.90509Z" fill="#410EAD"/>
<path d="M9.19897 2.17812V1.70508H10.362C10.4262 2.0151 10.4904 2.33313 10.5572 2.66186C10.6535 2.66186 10.7444 2.66186 10.8353 2.66186C11.5919 2.66186 12.3459 2.66186 13.1025 2.66186C13.648 2.66186 13.9421 3.12956 13.7041 3.61864C13.6132 3.8084 13.517 3.99548 13.4154 4.19859C13.6266 4.34024 13.787 4.52732 13.7817 4.78656C13.779 4.9389 13.7362 5.10994 13.6587 5.2409C13.4902 5.52953 13.1239 5.63376 12.8111 5.5135C12.4582 5.37987 12.3058 5.07252 12.3673 4.60482H11.3486C11.3486 4.74112 11.37 4.8801 11.3433 5.00838C11.2764 5.32909 10.993 5.55092 10.6722 5.56161C10.3513 5.5723 10.0546 5.36383 9.95563 5.06183C9.85403 4.74914 9.96899 4.40973 10.2551 4.23334C10.3406 4.17988 10.3567 4.13178 10.338 4.04091C10.2176 3.45829 10.0973 2.87834 9.98771 2.29572C9.96899 2.19683 9.93156 2.17545 9.84066 2.17812C9.62944 2.18347 9.42089 2.17812 9.19897 2.17812ZM10.6508 3.1456C10.7096 3.44225 10.7711 3.71753 10.8192 3.99548C10.8353 4.09169 10.8727 4.11574 10.9663 4.11574C11.5812 4.11307 12.1935 4.11574 12.8084 4.1104C12.8619 4.1104 12.9368 4.05962 12.9635 4.01151C13.0678 3.8271 13.156 3.63735 13.2496 3.4476C13.3565 3.23112 13.3057 3.14827 13.0705 3.14827C12.4876 3.14827 11.9021 3.14827 11.3192 3.14827C11.1026 3.14827 10.8861 3.14827 10.6535 3.14827L10.6508 3.1456ZM13.0598 4.59681C12.9288 4.59681 12.8218 4.71173 12.8245 4.84268C12.8245 4.97364 12.9395 5.08054 13.0705 5.07787C13.2015 5.07787 13.3084 4.96295 13.3057 4.83199C13.3057 4.70104 13.1908 4.59413 13.0598 4.59681ZM10.4048 4.83467C10.4048 4.96562 10.5118 5.07787 10.6428 5.07787C10.7738 5.07787 10.8861 4.97097 10.8861 4.84001C10.8861 4.70905 10.7791 4.59681 10.6481 4.59681C10.5171 4.59681 10.4048 4.70371 10.4048 4.83467Z" fill="#410EAD"/>
<path d="M2.98543 11.6982C3.0897 11.8025 3.19665 11.9095 3.30894 12.0218C3.19397 12.126 3.08435 12.2276 2.96939 12.3319C2.88115 12.233 2.77421 12.1153 2.67261 12.003C2.76084 11.9175 2.87046 11.8105 2.98543 11.6982Z" fill="#410EAD"/>
<path d="M2.61368 12.7107C2.5094 12.815 2.40513 12.922 2.29551 13.0343C2.19124 12.9193 2.08696 12.807 1.98804 12.6974C2.08162 12.6091 2.19391 12.5049 2.30888 12.3926C2.39444 12.4835 2.50138 12.5931 2.61368 12.7107Z" fill="#410EAD"/>
<path d="M1.62989 13.6918C1.51759 13.5822 1.41332 13.4753 1.30103 13.363C1.40263 13.2667 1.5069 13.1678 1.60315 13.0742C1.70742 13.1785 1.81437 13.2881 1.91865 13.3951C1.83041 13.486 1.72881 13.5902 1.62989 13.6918Z" fill="#410EAD"/>
<path d="M2.42398 1.69162C2.42398 2.09267 2.09511 2.42153 1.69406 2.42153C1.29836 2.42153 0.974842 2.09535 0.972168 1.69964C0.972168 1.29859 1.29836 0.969727 1.70208 0.969727C2.09779 0.969727 2.4213 1.29592 2.42398 1.69162ZM1.45878 1.6836C1.45343 1.81461 1.5577 1.92958 1.68871 1.93492C1.81972 1.94027 1.93469 1.836 1.94004 1.70499C1.94539 1.57398 1.84111 1.45901 1.7101 1.45366C1.57909 1.44832 1.46412 1.55259 1.45878 1.6836Z" fill="#410EAD"/>
<path d="M3.63771 0.969743C4.03876 0.969743 4.36495 1.30395 4.3596 1.705C4.35425 2.09804 4.02539 2.42155 3.63236 2.41888C3.23131 2.41888 2.90512 2.08467 2.91047 1.68362C2.91581 1.29058 3.242 0.967069 3.63771 0.969743ZM3.63771 1.45368C3.5067 1.45368 3.39708 1.56063 3.3944 1.69164C3.3944 1.82265 3.50135 1.93494 3.63236 1.93494C3.76337 1.93494 3.87566 1.82799 3.87566 1.69698C3.87566 1.56597 3.76872 1.45368 3.63771 1.45368Z" fill="#410EAD"/>
<path d="M5.56271 0.969727C5.96377 0.969727 6.29263 1.29592 6.29263 1.69697C6.29263 2.09267 5.96644 2.41619 5.57073 2.41886C5.16968 2.41886 4.84082 2.09267 4.84082 1.69162C4.84082 1.29592 5.16701 0.9724 5.56004 0.969727H5.56271ZM5.56271 1.45366C5.4317 1.45366 5.32476 1.56863 5.32743 1.69964C5.32743 1.83065 5.4424 1.9376 5.57341 1.93492C5.70442 1.93492 5.81137 1.81996 5.80869 1.68895C5.80869 1.55794 5.69372 1.45099 5.56271 1.45366Z" fill="#410EAD"/>
</svg>
