<svg width="15" height="15" viewBox="0 0 15 15" fill="none" xmlns="http://www.w3.org/2000/svg">
<path d="M0.00186869 13.7137C0.00186869 11.2234 0.00186869 8.73302 0.00186869 6.24268C0.0822225 6.16041 0.15697 6.0688 0.244799 5.99589C0.805407 5.54157 1.36788 5.08912 1.9341 4.64041C2.02379 4.56936 2.05369 4.49458 2.05369 4.3824C2.04996 3.06058 2.05369 1.73688 2.04809 0.415057C2.04809 0.233703 2.09294 0.0916116 2.25551 0H5.97608C6.16295 0.0953509 6.23209 0.201919 6.20032 0.34775C6.16482 0.508538 6.04896 0.585193 5.83219 0.585193C5.80229 0.585193 5.77426 0.585193 5.74436 0.585193C4.7633 0.585193 3.78223 0.585193 2.80117 0.585193C2.74885 0.585193 2.69839 0.585193 2.63859 0.585193C2.63859 0.637542 2.63859 0.671195 2.63859 0.704849C2.63859 3.18584 2.63859 5.66683 2.64233 8.14596C2.64233 8.21326 2.68344 8.29552 2.73203 8.34414C3.4739 9.09385 4.21951 9.83797 4.96512 10.5839C4.99502 10.6139 5.02865 10.64 5.07163 10.6793C5.75184 9.97445 6.57032 9.58744 7.54952 9.5893C7.21689 9.25838 6.89548 8.94055 6.57032 8.6171C6.55164 8.63393 6.51987 8.66384 6.4881 8.69376C6.4526 8.72741 6.41709 8.76106 6.37972 8.79098C5.97608 9.12003 5.51638 9.23969 5.00997 9.1219C3.814 8.83959 3.37673 7.40184 4.21577 6.50069C4.53158 6.16228 4.87168 5.84445 5.19497 5.51165C5.26411 5.44061 5.32578 5.35274 5.36502 5.26112C5.9929 3.79534 6.61517 2.32955 7.23932 0.861897C7.3776 0.536582 7.58129 0.493581 7.82796 0.742241C8.23159 1.14608 8.63523 1.54992 9.03887 1.95563C9.07624 1.99302 9.10054 2.0435 9.12483 2.07902C9.71347 1.79297 10.2404 1.81914 10.6833 2.26412C11.1243 2.70722 11.1542 3.23632 10.859 3.82525C11.3504 4.30948 11.8513 4.79933 12.3633 5.30413C12.3633 5.21812 12.3633 5.14708 12.3633 5.07603C12.3633 4.81241 12.3595 4.5488 12.3651 4.28518C12.3707 4.10757 12.5034 3.9823 12.6623 3.98604C12.8174 3.98978 12.9351 4.1113 12.9463 4.28331C12.95 4.34127 12.9538 4.4011 12.9463 4.45905C12.9351 4.55067 12.9706 4.60862 13.0453 4.66658C13.634 5.11903 14.2151 5.57709 14.8019 6.03141C14.929 6.1305 15 6.24081 15 6.41281C14.9963 8.76106 14.9981 11.1112 14.9944 13.4594C14.9944 13.594 14.9813 13.7343 14.9477 13.8651C14.7814 14.5419 14.1815 15 13.4639 15C9.48549 15 5.50891 15 1.53046 15C1.49682 15 1.46132 15 1.42768 14.9981C1.00723 14.9738 0.661517 14.7981 0.377476 14.4896C0.173788 14.2671 0.0747477 13.996 0 13.7118L0.00186869 13.7137ZM13.1556 14.4092C13.122 14.3737 13.1051 14.3531 13.0846 14.3363C11.8064 13.1752 10.5376 12.003 9.24629 10.855C8.23159 9.95388 6.83007 9.93706 5.80042 10.8176C5.0137 11.4888 4.26436 12.203 3.49819 12.8985C3.48698 12.9098 3.48138 12.9266 3.46829 12.9528C3.53744 12.9528 3.59163 12.9528 3.64395 12.9528C4.06441 12.9528 4.48299 12.9509 4.90345 12.9528C5.13891 12.9546 5.27906 13.1322 5.21552 13.336C5.17441 13.4669 5.06042 13.538 4.87916 13.538C4.22512 13.538 3.57107 13.5361 2.91703 13.5417C2.84789 13.5417 2.7638 13.5716 2.71147 13.6165C2.44612 13.8464 2.18824 14.0858 1.92849 14.3232C1.90233 14.3456 1.88177 14.3755 1.85374 14.4092H13.1556ZM0.58677 7.0784C0.58677 7.13636 0.58677 7.19058 0.58677 7.24293C0.58677 8.57971 0.58677 9.91649 0.58677 11.2551C0.58677 11.9974 0.58677 12.7396 0.58677 13.48C0.58677 13.7885 0.708235 14.0353 0.945559 14.2297C1.02404 14.2952 1.0801 14.3045 1.16606 14.226C2.28167 13.2052 3.40102 12.1881 4.52224 11.171C4.55401 11.143 4.59512 11.1224 4.61754 11.1093C3.26087 9.75196 1.92849 8.41892 0.58677 7.07653V7.0784ZM10.3843 11.0906C11.5653 12.1638 12.7445 13.2369 13.9292 14.312C14.2563 14.1119 14.4114 13.8315 14.4114 13.4576C14.4114 11.3692 14.4114 9.28082 14.4114 7.19058C14.4114 7.15131 14.4058 7.11018 14.402 7.06905C13.0622 8.40957 11.7317 9.74074 10.3843 11.0887V11.0906ZM9.92837 10.683C9.96013 10.655 9.97695 10.6438 9.99003 10.6288C10.7562 9.86227 11.5224 9.09759 12.2848 8.32731C12.3296 8.28244 12.3558 8.20204 12.3577 8.13661C12.3633 7.30649 12.3614 6.47825 12.3614 5.64814C12.3614 5.59766 12.3614 5.54531 12.3614 5.521C12.2642 5.5827 12.1727 5.66122 12.068 5.70796C10.7338 6.28007 9.39953 6.84843 8.06528 7.4168C8.01296 7.43924 7.9625 7.46354 7.89336 7.49719C8.17366 7.77764 8.44089 8.045 8.70998 8.31422C9.04447 8.64888 9.04447 8.7218 8.70624 9.0602C8.51377 9.25277 8.32129 9.44347 8.10826 9.65474C8.84639 9.7987 9.42569 10.1689 9.93023 10.683H9.92837ZM7.12533 2.62495C6.73103 3.55229 6.33674 4.48149 5.94058 5.40695C5.90694 5.48548 5.92376 5.52848 5.97982 5.58457C6.43952 6.04263 6.89921 6.50069 7.35518 6.96248C7.42058 7.02792 7.4729 7.03727 7.55699 7.00174C8.44649 6.61847 9.33786 6.23894 10.2292 5.8594C10.2629 5.84445 10.2928 5.82388 10.3096 5.81453C9.24816 4.75072 8.19048 3.69251 7.1272 2.62682L7.12533 2.62495ZM5.57244 6.03889C5.24542 6.34738 4.89411 6.64465 4.58577 6.98118C4.25688 7.33828 4.3036 7.91225 4.64744 8.27309C4.9838 8.62645 5.57805 8.7031 5.93497 8.38527C6.28628 8.07304 6.58714 7.70472 6.90108 7.36819C6.47315 6.94005 6.01159 6.47825 5.57244 6.03889ZM11.5037 5.31347C10.2124 4.02156 8.92301 2.72965 7.63174 1.43774C7.57568 1.56862 7.51962 1.71819 7.44674 1.86215C7.39068 1.97432 7.40189 2.04537 7.49533 2.13698C7.98119 2.61 8.4577 3.09423 8.93609 3.57285C9.56771 4.20479 10.1975 4.83672 10.8328 5.46491C10.8721 5.50418 10.9543 5.54157 10.9991 5.52474C11.1785 5.46304 11.3486 5.37891 11.5037 5.31347ZM2.04622 5.30039C1.59773 5.66122 1.17167 6.0015 0.764296 6.33055C1.19783 6.7643 1.62576 7.19058 2.04622 7.61124V5.30039ZM12.9519 7.62059C13.378 7.19432 13.8022 6.76991 14.2338 6.33616C13.819 6.01458 13.3929 5.68179 12.9519 5.33778V7.62059ZM7.03189 8.16652C7.32528 8.45818 7.60932 8.74236 7.87841 9.01159C7.99053 8.90876 8.112 8.79471 8.22038 8.69376C7.9326 8.40583 7.64856 8.12165 7.36078 7.83373C7.25427 7.9403 7.13841 8.05808 7.03002 8.16839L7.03189 8.16652ZM10.4385 3.31297C10.5002 3.06431 10.4441 2.8437 10.2573 2.66422C10.0779 2.49408 9.86483 2.44921 9.63311 2.50904C9.9022 2.77639 10.1657 3.04001 10.4385 3.31297Z" fill="#410EAD"/>
<path d="M12.6828 0C13.0024 0.130809 13.0435 0.338233 12.7987 0.584901C12.4474 0.936215 12.0979 1.29127 11.7429 1.63698C11.6793 1.69864 11.5878 1.76591 11.5093 1.76591C11.4215 1.76591 11.3019 1.71172 11.2552 1.64258C11.2084 1.57344 11.2178 1.45197 11.2309 1.35854C11.2383 1.30435 11.3 1.25576 11.3448 1.21091C11.6775 0.874548 12.0101 0.538184 12.3483 0.209294C12.4362 0.125202 12.552 0.0691416 12.6548 0C12.6641 0 12.6735 0 12.6847 0H12.6828Z" fill="#410EAD"/>
<path d="M10.4572 0C10.6235 0.0784851 10.6833 0.211162 10.6739 0.388688C10.6665 0.549396 10.6758 0.710103 10.6702 0.868942C10.6627 1.04647 10.5525 1.16233 10.3936 1.1698C10.2404 1.17728 10.1077 1.06702 10.0965 0.893235C10.0834 0.689548 10.0909 0.48586 10.0946 0.282173C10.0965 0.136415 10.1956 0.0597982 10.3133 0H10.459L10.4572 0Z" fill="#410EAD"/>
<path d="M4.2345 3.28096C4.45874 3.28096 4.68299 3.27909 4.90723 3.28096C5.10905 3.28283 5.24173 3.40055 5.2436 3.57061C5.2436 3.74066 5.11279 3.86399 4.91284 3.86586C4.46996 3.8696 4.02521 3.8696 3.58233 3.86586C3.38238 3.86586 3.25157 3.74066 3.25344 3.56874C3.25718 3.40242 3.38425 3.2847 3.57672 3.28096C3.79536 3.27722 4.01586 3.28096 4.2345 3.28096Z" fill="#410EAD"/>
<path d="M4.12049 2.22638C3.93922 2.22638 3.75983 2.23011 3.57856 2.22638C3.37861 2.22264 3.24781 2.0993 3.25154 1.92739C3.25528 1.76107 3.38235 1.64334 3.5767 1.64147C3.9467 1.63774 4.3167 1.63774 4.68857 1.64147C4.87917 1.64334 5.00811 1.76668 5.00811 1.93112C5.00811 2.09744 4.88104 2.2189 4.69044 2.22451C4.49983 2.23011 4.31109 2.22451 4.12049 2.22451V2.22638Z" fill="#410EAD"/>
<path d="M12.3838 2.28286C12.4959 2.28286 12.608 2.27352 12.7183 2.28473C12.864 2.29968 12.9649 2.42301 12.9668 2.56317C12.9668 2.70145 12.8678 2.83413 12.722 2.84347C12.4903 2.85655 12.2567 2.85655 12.025 2.84347C11.8774 2.836 11.7783 2.70706 11.7783 2.5669C11.7783 2.42115 11.8811 2.29781 12.0362 2.28286C12.1521 2.27165 12.2698 2.28099 12.3856 2.28099L12.3838 2.28286Z" fill="#410EAD"/>
<path d="M6.09192 1.92948C6.09379 2.08085 5.95738 2.221 5.80601 2.22474C5.65465 2.22661 5.5145 2.09019 5.51076 1.93883C5.50889 1.78746 5.64531 1.64731 5.79667 1.64357C5.94804 1.6417 6.08819 1.77812 6.09192 1.92948Z" fill="#410EAD"/>
<path d="M6.43192 13.2429C6.43192 13.398 6.29924 13.5344 6.14414 13.5362C5.98904 13.5362 5.85636 13.4054 5.85449 13.2485C5.85449 13.0896 5.98343 12.9569 6.13853 12.9551C6.29177 12.9551 6.42818 13.0896 6.43005 13.2447L6.43192 13.2429Z" fill="#410EAD"/>
</svg>
