<svg width="16" height="15" viewBox="0 0 16 15" fill="none" xmlns="http://www.w3.org/2000/svg">
<path d="M15.0024 11.0454C14.9637 11.1229 14.9321 11.2029 14.8861 11.2756C14.7553 11.4767 14.5711 11.593 14.3312 11.6051C14.1761 11.6124 14.0186 11.61 13.8635 11.61C12.252 11.61 10.643 11.61 9.03153 11.61C8.622 11.61 8.3409 11.4113 8.25366 11.0575C8.2367 10.9872 8.23428 10.9121 8.23428 10.8394C8.23428 10.5753 8.24882 10.3111 8.22943 10.0494C8.20035 9.62535 8.41118 9.25216 8.94914 9.18189V8.71662C8.59292 8.67543 8.34817 8.50338 8.25609 8.15685C8.22943 8.05992 8.23428 7.9533 8.23428 7.85152C8.23185 7.58739 8.23428 7.32568 8.23428 7.06154C8.23428 6.6302 8.47418 6.3588 8.90067 6.29579C8.91521 6.29579 8.92733 6.2861 8.94914 6.27883V5.81357C8.59534 5.77237 8.35059 5.60032 8.25609 5.2538C8.2367 5.1811 8.2367 5.09871 8.23428 5.02116C8.23428 4.7328 8.23428 4.44443 8.23428 4.15848C8.2367 3.68837 8.52992 3.39274 9.00245 3.39031C9.86513 3.38789 10.7302 3.39031 11.5929 3.39031C12.4168 3.39031 13.2431 3.40485 14.067 3.38547C14.5202 3.37335 14.8425 3.51632 15.0024 3.95736V5.21745C14.9346 5.40888 14.8522 5.59305 14.6632 5.6924C14.5444 5.75299 14.4136 5.78933 14.2851 5.8378V6.29095C14.6729 6.32003 14.8934 6.53812 15.0024 6.88707V8.11808C14.9394 8.29983 14.8643 8.47915 14.6898 8.5785C14.5662 8.64877 14.4257 8.68997 14.2851 8.74813V9.19401C14.6729 9.22308 14.891 9.44118 15.0024 9.79013V11.0502V11.0454ZM11.6123 3.87254C10.7472 3.87254 9.88451 3.87254 9.01941 3.87254C8.80132 3.87254 8.71408 3.95735 8.71166 4.1706C8.71166 4.45412 8.71166 4.73764 8.71166 5.01874C8.71166 5.23441 8.7989 5.32407 9.01457 5.32407C10.7472 5.32407 12.4798 5.32407 14.2124 5.32407C14.4305 5.32407 14.5154 5.23926 14.5178 5.02359C14.5202 4.75461 14.5178 4.48562 14.5178 4.21907C14.5178 3.94039 14.4475 3.87012 14.1737 3.87012C13.3207 3.87012 12.4653 3.87012 11.6123 3.87012V3.87254ZM11.6123 11.1302C12.4822 11.1302 13.3498 11.1302 14.2197 11.1302C14.4281 11.1302 14.5154 11.0454 14.5178 10.8394C14.5202 10.551 14.5202 10.2627 14.5178 9.97672C14.5178 9.76105 14.4305 9.67866 14.2124 9.67866C12.4798 9.67866 10.7472 9.67866 9.01457 9.67866C8.80132 9.67866 8.71408 9.76832 8.71408 9.98399C8.71408 10.253 8.71408 10.5219 8.71408 10.7885C8.71408 11.0551 8.79163 11.1302 9.05091 11.1326C9.9039 11.1326 10.7593 11.1326 11.6123 11.1326V11.1302ZM11.6123 8.22955C12.4774 8.22955 13.3401 8.22955 14.2052 8.22955C14.433 8.22955 14.5178 8.14716 14.5202 7.92422C14.5226 7.6407 14.5226 7.35718 14.5202 7.07608C14.5202 6.86041 14.433 6.7756 14.2149 6.7756C12.4822 6.7756 10.7496 6.7756 9.01699 6.7756C8.80374 6.7756 8.71651 6.86526 8.71408 7.08093C8.71408 7.34991 8.71408 7.61889 8.71408 7.88545C8.71408 8.15443 8.79163 8.22955 9.06545 8.22955C9.91359 8.22955 10.7642 8.22955 11.6123 8.22955ZM13.7884 5.81841H9.45317V6.28368H13.7884V5.81841ZM9.4459 9.18674H13.786V8.71662H9.4459V9.18674Z" fill="#410EAD"/>
<path d="M10.7253 0.00484662C11.3602 0.404683 11.9975 0.802097 12.6324 1.20193C12.8917 1.36429 12.8917 1.54846 12.6324 1.71082C12.0363 2.084 11.4402 2.45476 10.8465 2.82794C10.7471 2.89094 10.6478 2.93941 10.5339 2.87156C10.42 2.80613 10.4054 2.6995 10.4079 2.58077C10.4103 2.45476 10.4079 2.32875 10.4079 2.18093H2.91758V1.69628C2.98301 1.69628 3.04359 1.69628 3.1066 1.69628C5.57105 1.69628 8.0355 1.69628 10.5024 1.69628C10.8416 1.69628 10.8901 1.74232 10.8949 2.084C10.8949 2.11792 10.8998 2.15185 10.9022 2.21728C11.3166 1.95799 11.714 1.71082 12.1284 1.45153C11.7164 1.19466 11.3214 0.947492 10.8949 0.678511C10.8949 0.775441 10.8949 0.845716 10.8949 0.913567C10.8901 1.12197 10.8077 1.20436 10.5969 1.20436C9.84082 1.20436 9.08476 1.20436 8.32629 1.20436C6.4313 1.20436 4.53874 1.20436 2.64376 1.20436C2.58075 1.20436 2.51775 1.20436 2.44263 1.20436V0.731823H10.4054C10.4054 0.581581 10.4103 0.450725 10.4054 0.322293C10.3982 0.174474 10.4491 0.0678511 10.5799 0C10.6284 0 10.6768 0 10.7253 0V0.00484662Z" fill="#410EAD"/>
<path d="M6.06062 5.82068V6.28594C6.41684 6.32471 6.66159 6.49677 6.75367 6.84571C6.78032 6.94749 6.77548 7.05896 6.77548 7.16558C6.7779 7.42487 6.77548 7.68174 6.77548 7.94103C6.77306 8.37236 6.53558 8.64377 6.10908 8.70677C6.09454 8.70677 6.08243 8.71647 6.06062 8.72374V9.189C6.41684 9.22777 6.65916 9.39982 6.75367 9.74877C6.77548 9.83116 6.77548 9.92325 6.77548 10.0105C6.7779 10.2843 6.77548 10.5581 6.77548 10.8295C6.77548 11.319 6.48227 11.6098 5.99035 11.6123C5.16159 11.6123 4.33042 11.6123 3.50166 11.6123C2.6196 11.6123 1.73511 11.5977 0.853047 11.6171C0.283582 11.6316 -0.0314409 11.2294 0.0024847 10.7714C0.0218707 10.5242 0.00490801 10.2746 0.00490801 10.025C0.00490801 9.52583 0.220577 9.27139 0.724614 9.18658V8.72131C0.66161 8.7092 0.598605 8.6995 0.538024 8.68254C0.227847 8.5953 0.0121778 8.32632 0.00733132 8.00645C0.00248481 7.66962 6.15596e-05 7.33279 0.00733132 6.99596C0.0146011 6.6155 0.278735 6.35379 0.722191 6.28594V5.82068C0.659186 5.80614 0.593759 5.79645 0.530754 5.77948C0.227847 5.69225 0.0146007 5.42569 0.00975417 5.11309C0.00248441 4.77141 0.00248441 4.42973 0.00975417 4.08805C0.0194472 3.71972 0.310238 3.42408 0.678572 3.39742C0.717344 3.395 0.756117 3.39258 0.794889 3.39258C2.52752 3.39258 4.26014 3.39258 5.99277 3.39258C6.3926 3.39258 6.66886 3.59371 6.75609 3.94266C6.77306 4.01293 6.77548 4.08805 6.7779 4.16075C6.7779 4.42488 6.76579 4.68902 6.78275 4.95073C6.81183 5.37965 6.59373 5.7504 6.06304 5.82068H6.06062ZM3.39746 3.87238C2.52752 3.87238 1.65999 3.87238 0.790042 3.87238C0.581642 3.87238 0.494405 3.9572 0.491982 4.16317C0.489559 4.45154 0.489559 4.73991 0.491982 5.02585C0.491982 5.24152 0.579219 5.32391 0.797312 5.32391C2.52509 5.32391 4.25287 5.32391 5.98065 5.32391C6.21328 5.32391 6.29567 5.23667 6.29567 5.00162C6.29567 4.73748 6.29567 4.47335 6.29567 4.21164C6.29567 3.9475 6.21813 3.86996 5.95642 3.86996C5.10343 3.86996 4.24802 3.86996 3.39504 3.86996L3.39746 3.87238ZM3.37565 11.13C4.24076 11.13 5.10343 11.13 5.96854 11.13C6.22055 11.13 6.2981 11.0501 6.30052 10.7956C6.30052 10.5315 6.30052 10.2673 6.30052 10.0056C6.30052 9.76089 6.21813 9.6785 5.9758 9.6785C4.25287 9.6785 2.52994 9.6785 0.807005 9.6785C0.576796 9.6785 0.496828 9.75847 0.494405 9.98383C0.494405 10.2577 0.494405 10.5315 0.494405 10.8029C0.494405 11.0573 0.571949 11.13 0.831237 11.13C1.67938 11.13 2.52994 11.13 3.37808 11.13H3.37565ZM3.39019 8.22939C4.24803 8.22939 5.10828 8.22939 5.96611 8.22939C6.21086 8.22939 6.29567 8.147 6.29567 7.9071C6.29567 7.63327 6.29567 7.35944 6.29567 7.08804C6.29567 6.86268 6.20844 6.77302 5.98792 6.77302C4.25529 6.77302 2.52267 6.77302 0.790042 6.77302C0.581642 6.77302 0.494405 6.85783 0.491982 7.06623C0.489559 7.34006 0.491982 7.61389 0.491982 7.88529C0.491982 8.15669 0.564679 8.22939 0.843354 8.22939C1.69149 8.22939 2.54205 8.22939 3.39019 8.22939ZM5.56385 5.81583H1.22623V6.28594H5.56628V5.81583H5.56385ZM1.22138 9.18415H5.56143V8.71889H1.2238V9.18415H1.22138Z" fill="#410EAD"/>
<path d="M4.10743 12.7825C3.6882 13.0442 3.29321 13.2914 2.88368 13.5482C3.29806 13.8075 3.69305 14.0523 4.11712 14.3188C4.11712 14.2292 4.11712 14.1686 4.11712 14.108C4.11954 13.8705 4.19466 13.7954 4.43457 13.7954C5.96606 13.7954 7.49998 13.7954 9.03148 13.7954C10.1486 13.7954 11.2657 13.7954 12.3828 13.7954H12.5694V14.2703H4.60419C4.60419 14.4279 4.60419 14.5684 4.60419 14.709C4.60177 14.9707 4.41276 15.0773 4.18982 14.9392C3.57189 14.5563 2.95638 14.171 2.3433 13.7833C2.13247 13.65 2.13247 13.4537 2.3433 13.3204C2.96123 12.9303 3.58158 12.5426 4.20436 12.1573C4.4176 12.024 4.60419 12.1355 4.60662 12.3899C4.60662 12.5305 4.60662 12.671 4.60662 12.8237H12.0945V13.3059H11.9151C9.44585 13.3059 6.97656 13.3059 4.50726 13.3059C4.1777 13.3059 4.12439 13.255 4.11954 12.9279C4.11954 12.8891 4.1147 12.8527 4.10985 12.7849L4.10743 12.7825Z" fill="#410EAD"/>
<path d="M1.45157 1.71094V2.16893H0.983887V1.71094H1.45157Z" fill="#410EAD"/>
<path d="M2.42079 1.71094V2.16651H1.95068V1.71094H2.42079Z" fill="#410EAD"/>
<path d="M13.0614 13.2968H12.5913V12.834H13.0614V13.2968Z" fill="#410EAD"/>
<path d="M13.563 12.834H14.0258V13.2968H13.563V12.834Z" fill="#410EAD"/>
</svg>
