<svg width="15" height="16" viewBox="0 0 15 16" fill="none" xmlns="http://www.w3.org/2000/svg">
<path d="M14.998 3.92659C14.998 3.92659 14.9902 3.93437 14.9883 3.93826C14.7567 4.71657 14.3676 5.01622 13.5484 4.99677C13.2118 4.98898 12.9296 5.06487 12.6494 5.25555C12.1786 5.57661 11.6843 5.86264 11.2018 6.16812C11.087 6.24012 10.9741 6.28876 10.8496 6.2012C10.7329 6.11753 10.7367 6.00079 10.7659 5.87237C10.8263 5.59217 10.8788 5.31004 10.9352 5.01428C10.8282 5.00649 10.7309 5.00455 10.6356 4.99482C9.98373 4.92283 9.50896 4.43054 9.49729 3.77676C9.48172 2.9284 9.48366 2.0781 9.49729 1.22974C9.50701 0.624602 9.91368 0.157615 10.5052 0.0272483C10.5285 0.0214109 10.55 0.00973624 10.5733 0.00195312C11.696 0.00195312 12.8207 0.00195312 13.9434 0.00195312C13.9881 0.0175194 14.0329 0.0350313 14.0776 0.0467059C14.4921 0.16929 14.7742 0.433916 14.926 0.836692C14.9552 0.916469 14.9747 1.00208 14.9999 1.08575V3.92853L14.998 3.92659ZM11.3574 5.47543C11.4256 5.43651 11.4703 5.41122 11.5131 5.38398C11.9353 5.12129 12.3537 4.85278 12.7818 4.59593C12.8732 4.54145 12.988 4.51421 13.095 4.50643C13.3032 4.49281 13.5153 4.50643 13.7255 4.50059C14.1866 4.48892 14.4979 4.17565 14.4999 3.72034C14.5018 2.90505 14.5018 2.08977 14.4999 1.27449C14.4999 0.821126 14.1769 0.500072 13.7216 0.500072C12.7409 0.498126 11.7583 0.498126 10.7776 0.500072C10.3281 0.500072 10.0032 0.811397 9.9993 1.25893C9.99151 2.08394 9.99346 2.90895 9.9993 3.73396C10.0032 4.17759 10.3126 4.48308 10.7562 4.50059C10.8885 4.50643 11.0208 4.50059 11.1512 4.50059C11.4489 4.50059 11.5345 4.60956 11.4742 4.90531C11.4372 5.08627 11.4003 5.26723 11.3594 5.47543H11.3574Z" fill="#410EAD"/>
<path d="M8.98955 0V0.500065C8.92534 0.500065 8.86891 0.500065 8.81248 0.500065C7.32785 0.500065 5.84517 0.500065 4.36054 0.500065C3.74568 0.500065 3.42851 0.863926 3.50635 1.49241H8.73465V1.99053H2.99266C3.01212 1.59748 2.93234 1.1986 3.07438 0.819173C3.23199 0.40083 3.53942 0.143988 3.97139 0.0330782C4.00446 0.0252951 4.0356 0.0136205 4.06673 0.00194582C5.70702 0.00194582 7.34926 0.00194582 8.98955 0.00194582V0Z" fill="#410EAD"/>
<path d="M9.73083 7.24009H9.24828C9.24828 7.09221 9.24828 6.94239 9.24828 6.79256C9.24828 6.62717 9.24828 6.45984 9.24828 6.29445C9.24244 5.81773 8.93306 5.50446 8.45635 5.50446C7.50875 5.50251 6.56116 5.50446 5.61356 5.50446C5.31391 5.50446 5.24192 5.43247 5.24192 5.13282C5.24192 4.93824 5.24192 4.74366 5.24192 4.5413C5.07069 4.56659 4.91697 4.588 4.74185 4.61329C4.74185 4.79814 4.74185 4.98105 4.74185 5.16589C4.74185 5.34101 4.74185 5.51808 4.74185 5.6932C4.7438 5.91307 4.83525 6.00258 5.05707 6.00452C5.51044 6.00452 5.96575 6.00452 6.41912 6.00452C6.66428 6.00452 6.74211 6.08236 6.74211 6.32947C6.74211 7.98922 6.74211 9.65091 6.74211 11.3107C6.74211 11.3671 6.74211 11.4255 6.74211 11.4936H7.23829V9.51082H7.7403V11.4955H8.2462V10.509H8.74627C8.74627 10.725 8.74627 10.9332 8.74627 11.1414C8.74627 11.3321 8.75016 11.5228 8.74627 11.7134C8.74237 11.9061 8.64898 12.0014 8.4544 12.0034C7.81424 12.0073 7.17408 12.0073 6.53392 12.0034C6.31988 12.0034 6.2401 11.9041 6.2401 11.657C6.2401 10.007 6.2401 8.35502 6.2401 6.705V6.50264C6.00661 6.50264 5.78868 6.50264 5.56881 6.50264C5.37423 6.50264 5.17771 6.50654 4.98313 6.50264C4.56284 6.48902 4.24763 6.16992 4.24179 5.74963C4.2379 5.39939 4.24179 5.04915 4.24179 4.68529C3.84485 4.74171 3.46348 4.79425 3.08405 4.84873C2.74159 4.89738 2.39914 4.94797 2.05473 4.99467C1.86794 5.01996 1.74536 4.92267 1.74536 4.73782C1.74341 3.9167 1.74341 3.09753 1.74536 2.27641C1.74536 2.07405 1.87378 1.97482 2.07419 2.01763C3.06654 2.22777 4.05889 2.43986 5.05123 2.65195C5.19522 2.68308 5.33726 2.71032 5.48125 2.7434C5.6875 2.7901 5.74198 2.85626 5.74198 3.0664C5.74198 3.65208 5.74198 4.23776 5.74198 4.82538C5.74198 4.87792 5.74198 4.93045 5.74198 4.99467H6.46387C6.46387 4.99467 6.47165 4.97521 6.46776 4.96937C6.16033 4.48682 6.18951 3.95757 6.29459 3.43804C6.41133 2.86015 6.9795 2.46515 7.54961 2.50407C8.1781 2.54688 8.67427 2.99051 8.72681 3.60343C8.75405 3.9206 8.72875 4.24554 8.69568 4.56465C8.68011 4.71253 8.58477 4.85068 8.5225 5.00245C8.58477 5.01023 8.65092 5.01218 8.71708 5.0258C9.25411 5.12698 9.67051 5.53754 9.72305 6.0843C9.76002 6.46567 9.73083 6.85094 9.73083 7.24593V7.24009ZM5.23414 3.20066C4.23595 2.98662 3.24944 2.77648 2.2532 2.56244V4.46152C3.25139 4.31948 4.23984 4.17938 5.23414 4.03734V3.20066ZM8.24036 4.00816H8.25204C8.2462 3.88557 8.24815 3.76299 8.23258 3.64235C8.18394 3.27265 7.86483 3.00024 7.49513 3.00024C7.12349 3.00024 6.80049 3.27265 6.75963 3.6443C6.73628 3.86611 6.73433 4.09377 6.75379 4.31559C6.78687 4.71447 7.10987 5.00245 7.49708 5.00245C7.88429 5.00245 8.1995 4.71447 8.24036 4.31559C8.25009 4.21441 8.24036 4.11128 8.24036 4.00816Z" fill="#410EAD"/>
<path d="M2.99853 5.51073H3.48887V12.5039H9.23864V13H3.48887C3.51222 13.3483 3.43828 13.6869 3.54141 14.0118C3.64064 14.3212 3.92862 14.5041 4.2808 14.5041C5.33152 14.5041 6.3803 14.5041 7.43102 14.5041C8.14317 14.5041 8.85727 14.5041 9.56943 14.5041H9.73676V14.9964C9.69006 14.9983 9.63947 15.0022 9.58888 15.0022C7.82601 15.0022 6.06313 15.0022 4.30026 15.0022C3.53557 15.0022 2.9927 14.473 2.9927 13.7083C2.9888 11.0134 2.9927 8.31849 2.9927 5.62359C2.9927 5.59051 2.99659 5.55743 3.00048 5.50879L2.99853 5.51073Z" fill="#410EAD"/>
<path d="M11.4977 9.60064V6.51074H11.9997V6.68197C11.9997 7.78523 11.9997 8.88848 11.9977 9.99174C11.9977 10.1026 12.025 10.1863 12.1086 10.2603C12.2176 10.3556 12.3188 10.4607 12.4258 10.5619C12.2974 10.6844 12.1865 10.7934 12.0619 10.914C12.0308 10.8849 11.9899 10.8459 11.9491 10.807C11.1299 9.98979 10.3107 9.17062 9.4935 8.35145C9.32033 8.17827 9.12186 8.08877 8.8728 8.1413C8.42333 8.2347 8.22097 8.75812 8.49143 9.12781C8.53229 9.1823 8.58093 9.23094 8.62763 9.27958C9.28725 9.9392 9.94687 10.5988 10.6065 11.2584C10.7797 11.4316 10.7894 11.4978 10.6668 11.706C10.4664 12.0484 10.2835 12.3948 10.2426 12.8014C10.192 13.3015 10.2913 13.7685 10.5792 14.1771C10.7116 14.3658 10.7699 14.5526 10.7485 14.7745C10.7427 14.8426 10.7485 14.9107 10.7485 14.9904H10.2679C10.2679 14.9904 10.2543 14.9768 10.2543 14.969C10.2893 14.7025 10.1706 14.4904 10.05 14.2627C9.59468 13.4085 9.61998 12.5485 10.0967 11.7079C10.1706 11.5756 10.1609 11.5075 10.0539 11.4044C9.44097 10.8031 8.83389 10.1941 8.22875 9.58313C7.78122 9.13171 7.74425 8.47403 8.12951 8.02067C8.56731 7.50698 9.30866 7.4739 9.80483 7.95451C10.1726 8.31059 10.5326 8.67834 10.8925 9.04025C11.0813 9.23094 11.2661 9.42357 11.4548 9.61426C11.4685 9.60842 11.484 9.60258 11.4977 9.59675V9.60064Z" fill="#410EAD"/>
<path d="M13.7451 14.9961H13.245C13.245 14.9319 13.245 14.8755 13.245 14.819C13.245 13.2469 13.2391 11.6766 13.2469 10.1044C13.2508 9.4915 13.064 8.95641 12.6613 8.49526C12.5426 8.35906 12.4317 8.21702 12.3052 8.06719C12.4317 7.96407 12.5523 7.86288 12.6807 7.75781C13.2489 8.34738 13.7139 8.9856 13.7353 9.83396C13.7567 10.6979 13.7431 11.5618 13.7451 12.4257C13.7451 13.2216 13.7451 14.0174 13.7451 14.8113C13.7451 14.8696 13.7451 14.928 13.7451 14.9981V14.9961Z" fill="#410EAD"/>
<path d="M0.182854 2.49426C0.223715 2.32693 0.260685 2.1771 0.303492 2.00977C0.63622 2.09149 0.959219 2.17321 1.29973 2.25688C1.26082 2.41643 1.22385 2.57015 1.18104 2.74138C0.84831 2.65966 0.525311 2.57988 0.180908 2.49426H0.182854Z" fill="#410EAD"/>
<path d="M1.18105 4.26172C1.22385 4.431 1.26082 4.58083 1.30168 4.74622C0.96701 4.82989 0.640119 4.91161 0.3035 4.99528C0.262638 4.82794 0.225668 4.68006 0.182861 4.51078C0.515589 4.42711 0.838589 4.34733 1.18105 4.26172Z" fill="#410EAD"/>
<path d="M0.984564 3.2627V3.74136H0V3.2627H0.984564Z" fill="#410EAD"/>
<path d="M8.74037 6.25977V7.24238H8.25977V6.25977H8.74037Z" fill="#410EAD"/>
<path d="M7.73842 13.5176V13.9962H7.25781V13.5176H7.73842Z" fill="#410EAD"/>
<path d="M11.1358 1.75305C11.5133 1.86007 11.7293 1.66743 11.881 1.35222C11.9141 1.28217 11.9647 1.21991 12.0095 1.15764C12.1476 0.959172 12.348 0.957226 12.4842 1.1557C12.5971 1.32109 12.7099 1.48648 12.815 1.65576C12.8617 1.73165 12.9181 1.75694 13.0057 1.75499C13.2392 1.74916 13.4746 1.75499 13.7081 1.75305C13.8327 1.75305 13.928 1.79002 13.9786 1.91066C14.0292 2.03324 13.9786 2.12664 13.893 2.21225C13.712 2.39126 13.5369 2.57417 13.354 2.74929C13.2937 2.80766 13.2781 2.86214 13.2995 2.94192C13.3637 3.18125 13.4182 3.42447 13.4824 3.6638C13.5116 3.77471 13.4941 3.87006 13.4085 3.94205C13.317 4.02183 13.2139 4.01793 13.1088 3.96345C12.8559 3.83503 12.6068 3.70466 12.35 3.58597C12.2935 3.56068 12.206 3.56068 12.1515 3.58597C11.9083 3.69688 11.6689 3.82141 11.4316 3.944C11.3168 4.00237 11.2039 4.03739 11.091 3.944C10.9782 3.85254 10.9938 3.73191 11.0268 3.60932C11.0852 3.38361 11.1455 3.15595 11.1922 2.9283C11.2039 2.87576 11.1806 2.79599 11.1436 2.75512C10.9704 2.57028 10.7895 2.39126 10.6085 2.2142C10.5151 2.12469 10.4703 2.02157 10.5248 1.89898C10.5774 1.78029 10.6805 1.74721 10.8031 1.75305C10.9159 1.75694 11.0268 1.75305 11.1397 1.75305H11.1358ZM12.2488 1.7044C12.1554 1.8445 12.0678 1.96514 11.9881 2.09161C11.9161 2.20642 11.8168 2.25895 11.6826 2.25311C11.5853 2.24922 11.486 2.25311 11.3888 2.25311C11.4627 2.36986 11.5464 2.45353 11.632 2.53136C11.737 2.6267 11.7682 2.73567 11.7254 2.87382C11.6865 3.00029 11.6631 3.13066 11.6261 3.28048C11.7837 3.20265 11.9238 3.14233 12.0542 3.06645C12.1865 2.99056 12.3072 2.99056 12.4395 3.06645C12.5718 3.14039 12.7099 3.20071 12.8695 3.27854C12.8306 3.11704 12.8053 2.98862 12.7664 2.86409C12.7255 2.72983 12.7625 2.6267 12.8598 2.53525C12.9473 2.45353 13.0329 2.37181 13.1205 2.29008C13.0193 2.25506 12.9395 2.24922 12.8578 2.25701C12.6808 2.27452 12.5601 2.20252 12.4745 2.04881C12.4103 1.93595 12.3305 1.83283 12.2468 1.70635L12.2488 1.7044Z" fill="#410EAD"/>
</svg>
