<svg width="15" height="15" viewBox="0 0 15 15" fill="none" xmlns="http://www.w3.org/2000/svg">
<path d="M12.1323 14.9985C11.7992 14.8776 11.6711 14.6486 11.6889 14.3206C11.7105 13.9121 11.6889 13.4999 11.7204 13.0932C11.748 12.7598 11.9372 12.4831 12.2131 12.2706C12.2979 12.2047 12.288 12.146 12.2841 12.0599C12.2722 11.8089 12.2427 11.5488 12.292 11.3051C12.3905 10.8123 12.9049 10.4789 13.4272 10.5247C13.985 10.5723 14.4166 10.9864 14.4304 11.5012C14.4363 11.71 14.4028 11.9189 14.3929 12.1277C14.3929 12.1625 14.4067 12.2138 14.4343 12.234C14.8443 12.5527 15.0079 12.9649 14.996 13.4523C14.9882 13.7344 14.9822 14.0183 14.998 14.3023C15.0177 14.6302 14.8975 14.8702 14.5605 15.0003H13.5514C13.4528 14.9234 13.3622 14.8428 13.4193 14.7035C13.4765 14.568 13.5987 14.557 13.7307 14.5588C13.9357 14.5625 14.1407 14.5551 14.3456 14.5606C14.4639 14.5643 14.5211 14.524 14.5211 14.4104C14.5191 14.0403 14.527 13.6684 14.5171 13.2984C14.5092 13.0016 14.3791 12.7543 14.115 12.5656C13.8923 12.7506 13.6381 12.8587 13.3425 12.8587C13.0468 12.8587 12.7926 12.7506 12.5718 12.5656C12.3235 12.7451 12.1836 12.9759 12.1717 13.2562C12.1579 13.6465 12.1678 14.0367 12.1658 14.4269C12.1658 14.5185 12.2111 14.5625 12.3097 14.5606C12.4201 14.5606 12.5304 14.5643 12.6408 14.5606C12.7768 14.5551 12.899 14.5789 12.9463 14.7127C12.9936 14.8464 12.9148 14.9344 12.7965 15.0003H12.1343L12.1323 14.9985ZM13.9692 11.6844C13.9692 11.6844 13.9633 11.6844 13.9593 11.6844C13.9593 11.6312 13.9613 11.5763 13.9593 11.5232C13.9455 11.2044 13.6736 10.9589 13.3405 10.9589C13.0054 10.9589 12.7374 11.2062 12.7275 11.525C12.7236 11.6367 12.7236 11.7485 12.7275 11.8602C12.7374 12.1479 12.964 12.3769 13.2715 12.4135C13.5671 12.4483 13.8588 12.2651 13.9318 11.9866C13.9574 11.8896 13.9554 11.7851 13.9672 11.6844H13.9692Z" fill="#410EAD"/>
<path d="M5.40939 10.0468V8.85236C5.35224 8.85236 5.29705 8.85236 5.24187 8.85236C4.5757 8.85236 3.90756 8.85786 3.2414 8.85053C2.44712 8.84137 1.85782 8.33207 1.77898 7.6011C1.70015 6.87379 2.34463 6.17213 3.133 6.15381C3.8307 6.13732 4.53037 6.14832 5.22807 6.14648C5.28523 6.14648 5.34238 6.14648 5.40742 6.14648V4.94469C5.35618 4.94469 5.30099 4.94469 5.24581 4.94469C4.52643 4.94469 3.80705 4.94652 3.08766 4.94835C2.9024 4.94835 2.79794 4.87141 2.79597 4.73217C2.79597 4.59294 2.89452 4.5105 3.08175 4.5105C4.34313 4.50684 5.60254 4.50684 6.86392 4.50684C7.05707 4.50684 7.14379 4.58561 7.14379 4.76698C7.14576 5.28361 7.14773 5.80207 7.14379 6.31869C7.14379 6.51289 7.04919 6.58617 6.81859 6.58617C5.63605 6.58617 4.45547 6.58617 3.27293 6.58617C2.80385 6.58617 2.44121 6.81883 2.2993 7.19806C2.07856 7.78613 2.53384 8.40352 3.21183 8.40902C4.39832 8.41818 5.58677 8.41268 6.77326 8.41268C7.08072 8.41268 7.14379 8.4713 7.14379 8.75343C7.14379 9.23159 7.14379 9.70974 7.14379 10.1879C7.14379 10.4187 7.0689 10.4902 6.82844 10.4902C5.63605 10.4902 4.44365 10.4975 3.25125 10.4902C1.61737 10.4792 0.330367 9.46059 0.0445855 7.96384C-0.207691 6.64479 0.633887 5.2433 1.98002 4.7395C2.1436 4.67904 2.26777 4.71202 2.3269 4.83477C2.38799 4.95934 2.3269 5.07659 2.1574 5.14438C1.5405 5.3917 1.07734 5.79107 0.769879 6.34617C-0.138709 7.99132 1.14435 10.0065 3.13103 10.0468C3.85632 10.0615 4.57964 10.0505 5.30493 10.0505C5.3345 10.0505 5.36603 10.0468 5.40348 10.045L5.40939 10.0468ZM6.66486 4.95568H5.89818V6.13366H6.66486V4.95568ZM6.66486 8.86152H5.90015V10.0413H6.66486V8.86152Z" fill="#410EAD"/>
<path d="M13.3344 9.73476C12.9934 9.73476 12.6525 9.73476 12.3095 9.73476C11.9213 9.73292 11.6926 9.51858 11.6907 9.1595C11.6907 8.7986 11.6907 8.43769 11.6907 8.07679C11.6907 7.6426 11.8681 7.27803 12.2248 6.99773C12.2918 6.9446 12.2918 6.90064 12.2879 6.82552C12.276 6.56355 12.2406 6.29424 12.2898 6.04142C12.3923 5.53029 12.8988 5.21885 13.4724 5.27015C13.9907 5.31595 14.4145 5.74097 14.4263 6.24111C14.4302 6.44996 14.3967 6.65698 14.3869 6.86583C14.3869 6.90064 14.4026 6.9501 14.4302 6.97208C14.8303 7.28169 14.9979 7.68474 14.99 8.16106C14.9841 8.48716 14.99 8.81509 14.99 9.14118C14.988 9.52041 14.7613 9.73109 14.3573 9.73292C14.0163 9.73292 13.6754 9.73292 13.3324 9.73292L13.3344 9.73476ZM12.5579 7.31101C12.3214 7.48505 12.1814 7.71405 12.1716 7.99435C12.1578 8.38456 12.1676 8.77478 12.1657 9.165C12.1657 9.24744 12.1992 9.29507 12.2938 9.29507C12.9915 9.29507 13.6892 9.29691 14.3869 9.28958C14.4322 9.28958 14.513 9.21996 14.513 9.18149C14.513 8.74364 14.5209 8.30396 14.4894 7.86611C14.4736 7.63344 14.3218 7.44291 14.1129 7.30734C13.5729 7.69023 13.2004 7.69023 12.5579 7.30917V7.31101ZM12.7195 6.42798C12.7195 6.42798 12.7254 6.42798 12.7274 6.42798C12.7274 6.48111 12.7274 6.53423 12.7274 6.58919C12.7372 6.91163 12.9974 7.15345 13.3364 7.15529C13.6754 7.15529 13.9434 6.91712 13.9572 6.59836C13.9631 6.48111 13.9631 6.36386 13.9572 6.24844C13.9414 5.96631 13.7089 5.73731 13.4172 5.70983C13.1018 5.68052 12.8259 5.84723 12.751 6.1257C12.7254 6.22279 12.7293 6.32722 12.7215 6.42981L12.7195 6.42798Z" fill="#410EAD"/>
<path d="M14.1148 2.04763C13.5708 2.43418 13.149 2.43418 12.5636 2.05129C12.3133 2.23083 12.1774 2.46899 12.1675 2.76211C12.1576 3.13767 12.1675 3.51324 12.1616 3.8888C12.1616 4.00421 12.2168 4.04269 12.335 4.04269C13.0071 4.04085 13.6792 4.04085 14.3513 4.04269C14.4735 4.04269 14.5208 3.99322 14.5188 3.8833C14.5148 3.72209 14.5148 3.56087 14.5188 3.39965C14.5227 3.24393 14.6055 3.15783 14.7474 3.15599C14.8873 3.15416 14.9839 3.2421 14.9879 3.39049C14.9938 3.58102 14.9977 3.77155 14.9879 3.96208C14.9682 4.26802 14.7316 4.47687 14.4005 4.47871C13.6969 4.48237 12.9933 4.48237 12.2897 4.47871C11.9369 4.47871 11.6925 4.25154 11.6925 3.92544C11.6925 3.47293 11.6866 3.01676 11.7221 2.56609C11.7477 2.23266 11.9408 1.95786 12.2187 1.74535C12.2976 1.68489 12.2897 1.62993 12.2858 1.54749C12.2739 1.29101 12.2424 1.0272 12.2936 0.778046C12.3922 0.287067 12.8987 -0.0353666 13.4328 0.00310559C13.961 0.0434098 14.3986 0.44462 14.4262 0.941095C14.438 1.1591 14.4025 1.37711 14.3946 1.59695C14.3946 1.64092 14.4163 1.69771 14.4498 1.72519C14.6725 1.90656 14.8361 2.12274 14.9228 2.38655C14.982 2.56425 14.9347 2.68517 14.7927 2.7273C14.6449 2.77127 14.5346 2.70349 14.4735 2.52578C14.4084 2.33342 14.2961 2.17587 14.1167 2.04763H14.1148ZM12.7194 1.16277C12.7194 1.16277 12.7253 1.16277 12.7272 1.16277C12.7272 1.22139 12.7272 1.28002 12.7272 1.33864C12.7391 1.65008 13.0012 1.89374 13.3303 1.89924C13.6555 1.90656 13.9354 1.66474 13.9551 1.35879C13.963 1.23238 13.963 1.10598 13.9551 0.979567C13.9354 0.693773 13.691 0.464772 13.3895 0.44462C13.0919 0.422636 12.814 0.604005 12.745 0.875142C12.7213 0.968575 12.7272 1.0675 12.7194 1.1646V1.16277Z" fill="#410EAD"/>
<path d="M8.65926 5.44167V5.24747C8.65926 4.23803 8.65926 3.22677 8.65926 2.21733C8.65926 1.95718 8.72036 1.90039 9.00023 1.90039C9.55208 1.90039 10.102 1.90039 10.6538 1.90039C10.8686 1.90039 10.9731 1.9755 10.9711 2.12206C10.9692 2.26679 10.8627 2.33824 10.6459 2.33824C10.2045 2.33824 9.76297 2.33824 9.32345 2.33824C9.2663 2.33824 9.21111 2.33824 9.13228 2.33824V2.52144C9.13228 3.53088 9.13228 4.54215 9.13228 5.55159C9.13228 5.8154 9.06132 5.88135 8.77948 5.88135C8.61196 5.88135 8.44246 5.88501 8.27493 5.88135C8.09952 5.87768 8.00098 5.79524 8.00098 5.65967C8.00098 5.52227 8.09558 5.44533 8.27493 5.4435C8.39516 5.44167 8.51538 5.4435 8.65926 5.4435V5.44167Z" fill="#410EAD"/>
<path d="M8.65938 9.55696C8.5155 9.55696 8.39133 9.5588 8.26717 9.55696C8.09767 9.5533 8.00503 9.47819 8.00109 9.34811C7.99715 9.21255 8.09373 9.12461 8.26519 9.11911C8.44258 9.11362 8.62193 9.11728 8.80128 9.11911C9.05356 9.11911 9.13239 9.19239 9.13239 9.42506C9.13239 10.2934 9.13239 11.1618 9.13239 12.0302C9.13239 12.2335 9.13239 12.4387 9.13239 12.6604H9.31372C9.74337 12.6604 10.175 12.6604 10.6047 12.6604C10.6421 12.6604 10.6776 12.6604 10.715 12.6604C10.8766 12.6695 10.9712 12.752 10.9712 12.8839C10.9712 13.0158 10.8786 13.0982 10.7111 13.0982C10.1178 13.1001 9.5246 13.1001 8.93136 13.0982C8.74018 13.0982 8.66135 13.0195 8.66135 12.8344C8.66135 12.0925 8.66135 11.3505 8.66135 10.6104C8.66135 10.2696 8.66135 9.92703 8.66135 9.5588L8.65938 9.55696Z" fill="#410EAD"/>
<path d="M9.48319 7.28142C9.88723 7.28142 10.2913 7.28142 10.6953 7.28142C10.8155 7.28142 10.9141 7.3144 10.9574 7.42615C11.0106 7.55989 10.92 7.69729 10.7584 7.71194C10.6184 7.72477 10.4765 7.71927 10.3346 7.71927C9.68422 7.71927 9.03382 7.71927 8.38343 7.71927C8.32627 7.71927 8.26714 7.71927 8.20999 7.71378C8.07005 7.69546 7.98924 7.60752 7.9991 7.48478C8.00895 7.35837 8.08976 7.28692 8.22378 7.28325C8.50168 7.27776 8.77958 7.27959 9.05748 7.27959C9.19938 7.27959 9.34129 7.27959 9.48319 7.27959V7.28142Z" fill="#410EAD"/>
</svg>
