<svg width="15" height="15" viewBox="0 0 15 15" fill="none" xmlns="http://www.w3.org/2000/svg">
<path d="M2.65973 6.28096H3.95081C3.82925 5.92256 3.70978 5.57044 3.58822 5.22042C2.79177 2.93168 4.4748 0.278237 7.08212 0.0204388C9.28913 -0.197537 11.2614 1.35135 11.5758 3.54997C11.668 4.19133 11.5548 4.80334 11.3515 5.40696C11.253 5.6962 11.1482 5.98334 11.0392 6.28935H11.2069C12.2046 6.28935 13.2022 6.28935 14.1999 6.28935C14.7029 6.28935 14.9984 6.58487 14.9984 7.08789C14.9984 9.45628 14.9984 11.8268 14.9984 14.1952C14.9984 14.7066 14.705 15 14.1915 15C9.9724 15 5.7554 15 1.53631 15C0.618297 15 0 14.3838 0 13.4658C0 10.9402 0 8.41461 0 5.88902C0 4.97101 0.616202 4.35481 1.53631 4.35271C1.66835 4.35271 1.7983 4.35271 1.93035 4.35271C2.34534 4.359 2.65553 4.6671 2.66182 5.08209C2.66601 5.43002 2.66182 5.77794 2.66182 6.12586C2.66182 6.17616 2.66182 6.22437 2.66182 6.28306L2.65973 6.28096ZM7.50131 11.8687C7.53903 11.81 7.56419 11.7744 7.58724 11.7346C8.15314 10.7537 8.73371 9.77906 9.28075 8.78769C9.88018 7.70409 10.4293 6.59325 10.8422 5.42163C11.0749 4.76142 11.2216 4.09282 11.056 3.39278C10.706 1.92354 9.81102 0.942645 8.34387 0.59053C6.86205 0.234223 5.59821 0.697422 4.64247 1.88581C3.99692 2.68855 3.73703 3.62124 3.93614 4.65033C4.0619 5.29588 4.31341 5.9016 4.57959 6.50103C5.397 8.34125 6.40304 10.0788 7.44681 11.7974C7.45939 11.8184 7.47406 11.8352 7.50131 11.8708V11.8687ZM9.99546 10.6761C10.052 10.7138 10.1086 10.739 10.1506 10.7809C11.3389 11.9672 12.5273 13.1514 13.7073 14.344C13.8352 14.4739 13.9588 14.5305 14.1412 14.52C14.4493 14.5054 14.5122 14.453 14.5122 14.1449C14.5122 11.8121 14.5122 9.47724 14.5122 7.14448C14.5122 7.09418 14.5247 7.03759 14.508 6.99357C14.4807 6.92651 14.4472 6.85105 14.3906 6.81123C14.2607 6.71691 13.8918 6.76722 13.7765 6.88249C12.5609 8.09813 11.3452 9.31376 10.1317 10.5294C10.0961 10.565 10.0646 10.6007 9.99546 10.6761ZM2.65973 6.7735C2.65973 6.84896 2.65973 6.90974 2.65973 6.96842C2.65973 8.58019 2.65973 10.194 2.65973 11.8058C2.65973 12.2774 2.35582 12.5792 1.88214 12.5813C1.72075 12.5813 1.55937 12.5771 1.39798 12.5834C0.926398 12.6044 0.530269 12.9837 0.484158 13.4553C0.438048 13.9206 0.750341 14.3628 1.20096 14.4823C1.30366 14.5096 1.37912 14.4949 1.45247 14.4089C1.58452 14.2559 1.72914 14.1155 1.86747 13.9688C3.1334 12.6421 4.39934 11.3154 5.66528 9.98865C5.71977 9.93206 5.7596 9.89014 5.71139 9.79792C5.20627 8.81912 4.70954 7.83614 4.20442 6.85734C4.18556 6.81961 4.12478 6.77769 4.08495 6.77769C3.61756 6.77141 3.14808 6.7735 2.65763 6.7735H2.65973ZM4.00531 14.5054H11.427C10.4125 13.4909 9.37926 12.4576 8.34597 11.4244C8.33339 11.4453 8.30614 11.4872 8.2789 11.5312C8.09655 11.8268 7.9184 12.1244 7.73186 12.4178C7.59353 12.6379 7.4007 12.6358 7.26028 12.4157C7.16806 12.2711 7.08003 12.1244 6.9899 11.9798C6.93122 11.8834 6.87044 11.789 6.81175 11.6968C5.87068 12.64 4.94009 13.5685 4.00531 14.5054ZM0.484158 12.4618C0.733573 12.2606 0.985084 12.137 1.27223 12.1097C1.45247 12.093 1.63482 12.0971 1.81507 12.0971C2.11269 12.0971 2.17766 12.0322 2.17766 11.7325C2.17766 9.55479 2.17766 7.37922 2.17766 5.20156C2.17766 5.17222 2.17766 5.14078 2.17766 5.11144C2.17138 4.93119 2.08544 4.84316 1.90729 4.83897C1.78573 4.83687 1.66626 4.83897 1.5447 4.83897C0.880288 4.83897 0.484158 5.2351 0.484158 5.9016C0.484158 8.02896 0.484158 10.1542 0.484158 12.2816C0.484158 12.3319 0.484158 12.3822 0.484158 12.4639V12.4618ZM13.1813 6.80913C13.175 6.79656 13.1708 6.78398 13.1645 6.77141C12.8941 6.77141 12.6237 6.7756 12.3534 6.76931C12.2444 6.76722 12.1668 6.79656 12.0893 6.8762C11.4165 7.55738 10.7479 8.24275 10.0583 8.90506C9.63496 9.30957 9.27027 9.74762 9.01456 10.2758C8.92234 10.4665 8.81126 10.6468 8.69808 10.8249C8.64149 10.913 8.64568 10.9654 8.72323 11.0408C9.85922 12.1705 10.991 13.3044 12.1228 14.4362C12.1543 14.4676 12.1941 14.5096 12.2297 14.5096C12.5441 14.5158 12.8564 14.5137 13.1708 14.5137C13.1771 14.5012 13.1834 14.4865 13.1875 14.4739C13.1456 14.4383 13.0995 14.4069 13.0618 14.3691C11.9027 13.2122 10.7458 12.0531 9.58885 10.8962C9.38135 10.6887 9.38135 10.5986 9.58675 10.3932C10.6096 9.37035 11.6303 8.34754 12.6531 7.32683C12.827 7.15286 13.0052 6.981 13.1813 6.80913ZM2.01418 14.5158C2.43965 14.5158 2.8274 14.5179 3.21305 14.5117C3.26335 14.5117 3.32413 14.4718 3.36396 14.4341C3.63852 14.1658 3.9068 13.8954 4.17717 13.6251C4.9359 12.8664 5.69462 12.1097 6.44916 11.3468C6.48479 11.3091 6.52461 11.2231 6.50574 11.1917C6.34855 10.9067 6.18088 10.6258 6.00901 10.3345C4.6781 11.7283 3.35767 13.1095 2.01418 14.5179V14.5158ZM11.4919 6.7735C11.2907 6.7735 11.1105 6.7777 10.9302 6.77141C10.8443 6.76722 10.8066 6.80285 10.773 6.8762C10.6159 7.21993 10.4524 7.55947 10.291 7.90111C10.2763 7.93255 10.2658 7.96818 10.2491 8.01429C10.6662 7.5993 11.0686 7.19688 11.4919 6.7735Z" fill="#410EAD"/>
<path d="M7.49925 7.25569C5.76592 7.25569 4.35327 5.84303 4.35327 4.1118C4.35327 2.37847 5.76383 0.96582 7.49716 0.96582C9.23048 0.96582 10.6431 2.37638 10.6431 4.1097C10.6431 5.84303 9.23258 7.25569 7.49925 7.25778V7.25569ZM7.50554 1.44788C6.0363 1.44579 4.83953 2.63837 4.83743 4.10551C4.83743 5.56847 6.02582 6.76524 7.48458 6.77153C8.95382 6.77782 10.1569 5.58733 10.1611 4.12018C10.1653 2.65094 8.97269 1.44998 7.50764 1.44788H7.50554Z" fill="#410EAD"/>
<path d="M9.67472 4.10963C9.67472 4.33599 9.67472 4.56235 9.67472 4.79081C9.67472 4.98992 9.58669 5.07795 9.38968 5.07795C9.09834 5.08004 8.80491 5.07795 8.51358 5.07795C8.31447 5.07795 8.22644 4.98992 8.22644 4.7929C8.22644 4.34018 8.22644 3.88537 8.22644 3.43265C8.22644 3.23354 8.31447 3.14551 8.51149 3.14551C8.80282 3.14551 9.09625 3.14551 9.38758 3.14551C9.58669 3.14551 9.67472 3.23354 9.67472 3.43055C9.67682 3.65691 9.67472 3.88327 9.67472 4.11173V4.10963ZM8.71689 3.63386V4.58331H9.18218V3.63386H8.71689Z" fill="#410EAD"/>
<path d="M6.5267 3.14365V3.62152H5.81408V3.87094C5.9608 3.87094 6.10541 3.87094 6.24794 3.87094C6.43657 3.87303 6.52669 3.96106 6.52879 4.1476C6.53089 4.36977 6.53089 4.58984 6.52879 4.81201C6.52669 4.96501 6.44705 5.06981 6.31291 5.074C5.98804 5.08238 5.66108 5.07609 5.32783 5.07609V4.60032H6.03625V4.3509C5.88953 4.3509 5.74492 4.3509 5.6003 4.3509C5.41166 4.34881 5.32363 4.26078 5.31944 4.07215C5.31735 3.85627 5.31735 3.63829 5.31944 3.42241C5.31944 3.23378 5.40957 3.14365 5.59611 3.14156C5.90211 3.13946 6.20811 3.14156 6.5267 3.14156V3.14365Z" fill="#410EAD"/>
<path d="M7.97499 3.14342V3.62129H7.26866V3.86442H7.73186V4.34438H7.26657V4.58751H7.9708V5.07167C7.63964 5.07167 7.3043 5.08005 6.96895 5.06748C6.84738 5.06329 6.77612 4.96058 6.77403 4.83483C6.77193 4.35067 6.76983 3.86861 6.77403 3.38445C6.77403 3.23983 6.86834 3.14552 7.01296 3.14342C7.32945 3.13713 7.64593 3.14342 7.97499 3.14342Z" fill="#410EAD"/>
</svg>
