<svg width="15" height="15" viewBox="0 0 15 15" fill="none" xmlns="http://www.w3.org/2000/svg">
<path d="M8.46686 0.00481726C8.75342 0.0674402 9.01349 0.175826 9.20855 0.409458C9.40361 0.640681 9.4903 0.908033 9.4903 1.20429C9.4903 1.61856 9.4903 2.03525 9.4903 2.44952C9.4903 2.69519 9.39397 2.83248 9.21337 2.84453C9.03517 2.85657 8.92439 2.72891 8.89791 2.47601H0.597207V12.2404H6.85584C6.66319 11.9056 6.47536 11.5804 6.28512 11.2505C6.11897 11.3251 5.96485 11.407 5.8011 11.4648C4.99679 11.7442 4.12506 11.3709 3.7494 10.5929C3.3906 9.84866 3.64104 8.92136 4.3442 8.47577C4.79692 8.18915 5.27132 7.93384 5.73126 7.66168C5.79628 7.62314 5.85889 7.57015 5.90464 7.51234C6.98347 6.13705 8.05989 4.76175 9.13631 3.38646C9.223 3.27566 9.32173 3.1745 9.46381 3.22267C9.55531 3.25398 9.64923 3.33106 9.6998 3.41536C10.0345 3.97656 10.3596 4.54498 10.6823 5.11099C10.7256 5.18807 10.7642 5.21697 10.8629 5.1953C11.4288 5.07246 12.0043 5.33499 12.2861 5.83116C12.5654 6.32733 12.498 6.93188 12.1103 7.36783C12.0886 7.39191 12.067 7.41841 12.0381 7.45213C12.2283 7.7821 12.4161 8.10967 12.6064 8.43965C12.7677 8.71904 12.9315 8.99603 13.088 9.27542C13.2252 9.51869 13.1217 9.72101 12.8424 9.75954C11.7322 9.91851 10.6221 10.0751 9.4903 10.2364V10.405C9.4903 11.5274 9.4903 12.6498 9.4903 13.7746C9.4903 14.3696 9.17484 14.8055 8.63302 14.9548C8.51743 14.9861 8.39221 14.9982 8.2718 14.9982C5.91909 15.0006 3.56639 15.0006 1.21368 14.9982C0.493659 14.9982 0.00240815 14.5044 0.00240815 13.7795C0.00240815 9.59576 0.00240809 5.41207 0 1.22596C0 0.575649 0.431049 0.0915258 0.987318 0.0168599C1.00177 0.0168599 1.01381 0.00481715 1.02585 0C3.50618 0 5.98652 0 8.46686 0V0.00481726ZM0.587575 12.8377C0.587575 13.1773 0.585167 13.5049 0.587575 13.83C0.592391 14.1817 0.825976 14.4177 1.17997 14.4177C3.55675 14.4177 5.93354 14.4177 8.31033 14.4177C8.66432 14.4177 8.89791 14.1817 8.90272 13.8276C8.90754 13.529 8.90272 13.2327 8.90272 12.934C8.90272 12.9027 8.89309 12.8714 8.88827 12.8377H0.587575ZM8.5102 5.13267C8.48612 5.16398 8.47649 5.17603 8.46926 5.18807C7.795 6.04793 7.12314 6.9102 6.44647 7.76765C6.38867 7.84232 6.40071 7.89049 6.44165 7.95793C6.79323 8.56007 7.14481 9.16222 7.48435 9.77159C7.55178 9.89442 7.62402 9.9161 7.74924 9.89683C8.33682 9.80771 8.9268 9.72582 9.51438 9.64152C10.0008 9.57168 10.4872 9.50183 10.9905 9.42957C10.1622 7.99406 9.34099 6.57059 8.50779 5.13026L8.5102 5.13267ZM8.90513 1.87387C8.90513 1.66433 8.90513 1.47164 8.90513 1.27654C8.90513 0.802055 8.69563 0.590101 8.21642 0.590101C5.90224 0.590101 3.59047 0.590101 1.27629 0.590101C1.22331 0.590101 1.16793 0.590101 1.11495 0.59251C0.847649 0.614187 0.61888 0.806873 0.597207 1.067C0.575535 1.33194 0.592391 1.59929 0.592391 1.87146H8.90754L8.90513 1.87387ZM5.91669 8.22287C5.46637 8.49263 5.01847 8.74072 4.59223 9.02252C4.30326 9.21521 4.17082 9.5211 4.17563 9.86793C4.18527 10.7398 5.06181 11.2336 5.83963 10.8073C6.21529 10.6001 6.58373 10.3785 6.95457 10.1642C6.97384 10.1521 6.98829 10.1353 7.00996 10.116C6.64634 9.48497 6.28512 8.86115 5.91669 8.22287ZM12.3872 9.23207C11.3806 7.49067 10.3861 5.76372 9.37952 4.02232C9.23985 4.20055 9.12186 4.36193 8.99182 4.51367C8.91717 4.60038 8.90995 4.663 8.97015 4.76657C9.3434 5.40002 9.70943 6.0383 10.0779 6.67657C10.5691 7.5292 11.0604 8.38184 11.5564 9.23207C11.5805 9.27542 11.6383 9.33323 11.6744 9.33082C11.9056 9.30914 12.1368 9.2706 12.3872 9.23447V9.23207ZM7.88891 10.4653C8.12491 10.8747 8.34886 11.2553 8.56559 11.6406C8.61857 11.737 8.68599 11.8454 8.68359 11.9465C8.67877 12.0477 8.59449 12.144 8.54632 12.238H8.89791V10.3207C8.56318 10.3689 8.23809 10.4147 7.88891 10.4653ZM8.00209 11.8333C7.76851 11.4287 7.53974 11.0361 7.31097 10.6363C7.12796 10.7422 6.95939 10.8386 6.7836 10.9422C7.01718 11.3492 7.24595 11.7418 7.47713 12.1392C7.66255 12.0332 7.82871 11.9345 8.0045 11.8333H8.00209ZM11.0556 5.75168C11.2867 6.15391 11.5035 6.52724 11.7298 6.91743C11.9032 6.63562 11.9201 6.37068 11.7659 6.10814C11.6142 5.85284 11.3782 5.73963 11.0531 5.75168H11.0556Z" fill="#410EAD"/>
<path d="M14.9999 4.51572C14.906 4.59761 14.8241 4.69636 14.7206 4.75898C14.3184 4.99984 13.9115 5.22865 13.5069 5.46229C13.4684 5.48396 13.4323 5.50805 13.3913 5.52491C13.2541 5.58272 13.1023 5.53695 13.0301 5.41893C12.9482 5.29128 12.9723 5.13954 13.0903 5.03838C13.1264 5.00707 13.1698 4.98057 13.2107 4.95649C13.6369 4.71081 14.0632 4.46273 14.4894 4.21946C14.7302 4.08217 14.8675 4.12312 14.9999 4.36879V4.51572Z" fill="#410EAD"/>
<path d="M3.54246 3.90416C2.90913 3.90416 2.2734 3.90416 1.64007 3.90416C1.58709 3.90416 1.5317 3.90416 1.47872 3.89935C1.33665 3.88008 1.23791 3.77169 1.23069 3.6344C1.22347 3.4923 1.30053 3.37669 1.4426 3.34056C1.49799 3.32611 1.55819 3.32129 1.61599 3.32129C2.8995 3.32129 4.18301 3.32129 5.46653 3.32129C5.50506 3.32129 5.54599 3.32129 5.58212 3.32852C5.74827 3.35742 5.85182 3.47544 5.84701 3.62718C5.84219 3.78374 5.72178 3.90176 5.5484 3.90657C5.30518 3.91139 5.05956 3.90657 4.81634 3.90657C4.39252 3.90657 3.96628 3.90657 3.54246 3.90657V3.90416Z" fill="#410EAD"/>
<path d="M2.92342 5.31133C2.4707 5.31133 2.01557 5.31133 1.56285 5.31133C1.42559 5.31133 1.31241 5.26797 1.25221 5.1355C1.17996 4.98135 1.26184 4.79589 1.428 4.74772C1.49302 4.72845 1.56285 4.72363 1.63028 4.72363C2.49719 4.72363 3.36651 4.72363 4.23343 4.72363C4.29122 4.72363 4.35142 4.72604 4.40681 4.74049C4.55852 4.77662 4.64039 4.88983 4.63317 5.03675C4.62595 5.17885 4.51999 5.29206 4.37069 5.3041C4.24065 5.31373 4.10821 5.30892 3.97576 5.30892C3.62418 5.30892 3.2726 5.30892 2.92342 5.30892V5.31133Z" fill="#410EAD"/>
<path d="M3.75182 6.71721C3.40024 6.71721 3.05106 6.71721 2.69948 6.71721C2.48516 6.71721 2.35031 6.6016 2.3479 6.42818C2.3479 6.25477 2.48275 6.13434 2.69467 6.13193C3.39542 6.12952 4.09858 6.13193 4.79934 6.13193C5.01366 6.13193 5.14851 6.24995 5.15092 6.42337C5.15092 6.59678 5.01607 6.7148 4.80416 6.7148C4.45257 6.7148 4.1034 6.7148 3.75182 6.7148V6.71721Z" fill="#410EAD"/>
<path d="M13.377 6.93155C13.389 6.71959 13.5166 6.58471 13.678 6.61843C13.9862 6.68347 14.292 6.76536 14.593 6.85929C14.7351 6.90506 14.7929 7.0568 14.752 7.19408C14.7086 7.33619 14.5738 7.43253 14.4269 7.39881C14.1427 7.33137 13.861 7.25671 13.5816 7.17481C13.4492 7.13628 13.377 7.03271 13.3794 6.93155H13.377Z" fill="#410EAD"/>
<path d="M12.5149 3.37173C12.4499 3.60055 12.3753 3.8968 12.2813 4.18824C12.238 4.32312 12.0911 4.37851 11.9562 4.34479C11.8214 4.31107 11.7154 4.19305 11.7467 4.05336C11.8118 3.74988 11.8912 3.4488 11.9851 3.15255C12.0261 3.02008 12.1826 2.96468 12.3126 3.00322C12.4451 3.04176 12.5246 3.15496 12.5173 3.37173H12.5149Z" fill="#410EAD"/>
<path d="M1.52672 6.1348C1.69047 6.13962 1.82532 6.28172 1.8181 6.44069C1.81087 6.59725 1.67602 6.72008 1.51709 6.71768C1.34852 6.71527 1.2233 6.58279 1.23052 6.41419C1.23775 6.25764 1.37019 6.13239 1.52913 6.1348H1.52672Z" fill="#410EAD"/>
<path d="M5.56506 5.30813C5.40613 5.31295 5.27368 5.1853 5.27127 5.02633C5.26887 4.86977 5.39649 4.73248 5.55061 4.72767C5.70232 4.72285 5.84199 4.85532 5.84681 5.01188C5.85163 5.16844 5.724 5.30332 5.56506 5.30813Z" fill="#410EAD"/>
<path d="M4.74408 13.3027C4.90061 13.3027 5.03546 13.4304 5.03787 13.5869C5.03787 13.7387 4.90302 13.8784 4.75131 13.8808C4.5996 13.8808 4.45993 13.7459 4.45752 13.5942C4.45752 13.44 4.58756 13.3051 4.74408 13.3027Z" fill="#410EAD"/>
<path d="M4.73428 1.52971C4.40197 1.52971 4.06965 1.52971 3.73974 1.52971C3.55432 1.52971 3.43632 1.43578 3.40983 1.28163C3.37853 1.09617 3.5206 0.946838 3.73974 0.94443C4.19728 0.942021 4.65722 0.94443 5.11476 0.94443C5.32908 0.94443 5.5434 0.942021 5.76013 0.94443C5.96 0.946838 6.09486 1.06727 6.09486 1.23587C6.09486 1.40447 5.96 1.5273 5.76013 1.5273C5.41818 1.52971 5.07623 1.5273 4.73428 1.5273V1.52971Z" fill="#410EAD"/>
</svg>
