<svg width="18" height="15" viewBox="0 0 18 15" fill="none" xmlns="http://www.w3.org/2000/svg">
<path d="M9.00493 0C11.5588 0 14.115 0 16.6689 0C17.364 0 17.8767 0.401119 17.9852 1.02145C18 1.10308 18 1.18937 18 1.27332C18 5.42211 18 9.57089 18 13.7197C18 14.5009 17.47 15 16.6417 15C11.5489 15 6.45851 15 1.36565 15C0.527527 15.0023 0 14.5033 0 13.7103C0 9.57322 0 5.4361 0 1.29897C0 0.494403 0.522597 0 1.37551 0C3.91947 0 6.46343 0 9.00493 0ZM17.645 4.05084H0.354971C0.354971 4.12546 0.354971 4.1861 0.354971 4.24673C0.354971 7.39272 0.354971 10.5387 0.354971 13.6824C0.354971 14.3283 0.709943 14.6642 1.3977 14.6642C6.4659 14.6642 11.5341 14.6642 16.6023 14.6642C17.2876 14.6642 17.645 14.3283 17.645 13.6824C17.645 10.5364 17.645 7.39039 17.645 4.24673V4.05084ZM17.645 3.69403C17.645 3.63806 17.645 3.58908 17.645 3.53778C17.645 2.77518 17.645 2.01259 17.645 1.25C17.645 0.697294 17.2629 0.338153 16.6738 0.335821C11.5588 0.335821 6.44371 0.335821 1.32868 0.335821C0.732128 0.335821 0.357436 0.694962 0.357436 1.26632C0.357436 2.01726 0.357436 2.76819 0.357436 3.51912C0.357436 3.57276 0.357436 3.62873 0.357436 3.6917H17.645V3.69403Z" fill="#410EAD"/>
<path d="M4.43961 11.6069C4.57519 11.0892 4.71077 10.5785 4.84142 10.0678C4.85128 10.0328 4.82663 9.96748 4.79705 9.94649C4.03534 9.44276 3.67051 8.70116 3.46837 7.88493C3.34758 7.40452 3.32047 6.90078 3.2687 6.40638C3.24651 6.20815 3.31307 6.15918 3.52753 6.15918C4.94249 6.15918 6.35991 6.15918 7.77486 6.15918C7.97946 6.15918 8.04109 6.21282 8.03863 6.39006C8.0263 7.24593 7.871 8.07149 7.46673 8.84575C7.23994 9.27718 6.9466 9.65964 6.51767 9.93716C6.4807 9.96282 6.44865 10.0398 6.46098 10.0841C6.5793 10.5575 6.70255 11.0309 6.83567 11.4997C6.84799 11.544 6.92194 11.5859 6.97618 11.6023C7.03534 11.6209 7.10436 11.6046 7.17092 11.6069C7.28924 11.6116 7.36073 11.6699 7.36319 11.7842C7.36812 11.9754 7.36812 12.1643 7.36319 12.3555C7.36073 12.5118 7.24734 12.5444 7.10683 12.5444C6.54972 12.5444 5.99261 12.5444 5.4355 12.5444C5.0263 12.5444 4.6171 12.5444 4.20789 12.5444C3.98357 12.5444 3.93674 12.5001 3.93674 12.2879C3.93674 12.1363 3.93427 11.9847 3.93674 11.8332C3.9392 11.6489 3.98604 11.6093 4.18324 11.6069C4.26459 11.6069 4.3484 11.6069 4.43961 11.6069ZM3.62121 6.50433C3.64586 7.3089 3.79376 8.06916 4.19557 8.76645C4.34101 9.01832 4.52589 9.26319 4.74035 9.46608C5.28513 9.9838 5.96056 9.98614 6.53 9.49407C6.66804 9.37513 6.7913 9.2352 6.89976 9.08828C7.23254 8.64285 7.42975 8.13679 7.53575 7.60507C7.6097 7.24593 7.64668 6.87979 7.70337 6.502H3.62121V6.50433ZM6.48809 11.5976C6.35744 11.1009 6.22926 10.6158 6.10847 10.1634H5.18653C5.06574 10.6251 4.93756 11.1079 4.80691 11.5976H6.48563H6.48809ZM4.30157 12.1946H6.99836V11.9498H4.30157V12.1946Z" fill="#410EAD"/>
<path d="M13.8587 7.63713C12.9171 7.63713 11.9754 7.63713 11.0338 7.63713C10.7872 7.63713 10.7478 7.59748 10.7478 7.36194C10.7478 7.04711 10.7478 6.73461 10.7478 6.41978C10.7478 6.20989 10.7996 6.15858 11.0165 6.15625C12.9121 6.15625 14.8078 6.15625 16.7034 6.15625C16.9154 6.15625 16.9721 6.20756 16.9721 6.40112C16.9721 6.73228 16.9721 7.06343 16.9721 7.39226C16.9721 7.58815 16.9204 7.63479 16.7059 7.63479C15.7593 7.63479 14.8103 7.63479 13.8637 7.63479L13.8587 7.63713ZM11.1077 7.28964H16.6048V6.5084H11.1077V7.28964Z" fill="#410EAD"/>
<path d="M13.8564 12.2087C14.7857 12.2087 15.7175 12.2087 16.6468 12.2087C16.7011 12.2087 16.7652 12.1924 16.8046 12.2157C16.8687 12.253 16.9525 12.3136 16.955 12.3649C16.955 12.4209 16.881 12.4932 16.8219 12.5328C16.78 12.5608 16.706 12.5445 16.6493 12.5445C14.7882 12.5445 12.927 12.5445 11.0684 12.5445C11.0437 12.5445 11.0215 12.5445 10.9969 12.5445C10.8638 12.5468 10.7479 12.5119 10.7528 12.3649C10.7578 12.2273 10.8712 12.2063 10.9969 12.2063C11.9509 12.2063 12.9049 12.2063 13.8588 12.2063L13.8564 12.2087Z" fill="#410EAD"/>
<path d="M13.8561 8.50751C14.7854 8.50751 15.7172 8.50751 16.6465 8.50751C16.7008 8.50751 16.7649 8.49118 16.8043 8.5145C16.8659 8.55182 16.9522 8.61245 16.9547 8.66609C16.9571 8.72206 16.8807 8.79202 16.8216 8.834C16.787 8.85965 16.718 8.84333 16.6663 8.84333C14.7928 8.84333 12.9218 8.84333 11.0483 8.84333C11.0138 8.84333 10.9769 8.84333 10.9423 8.84333C10.824 8.83633 10.7328 8.7757 10.7575 8.66842C10.7723 8.60546 10.8709 8.52616 10.9448 8.5145C11.0952 8.49118 11.2505 8.50751 11.4058 8.50751C12.2242 8.50751 13.0401 8.50751 13.8585 8.50751H13.8561Z" fill="#410EAD"/>
<path d="M13.8561 11.3064C12.9144 11.3064 11.9727 11.3064 11.0286 11.3064C10.9695 11.3064 10.898 11.3158 10.8561 11.2878C10.8043 11.2528 10.7451 11.1805 10.755 11.1339C10.7649 11.0756 10.8314 11.0149 10.8906 10.9823C10.9349 10.9566 11.0064 10.9706 11.0656 10.9706C12.9267 10.9706 14.7879 10.9706 16.6465 10.9706C16.6761 10.9706 16.7057 10.9706 16.7353 10.9706C16.8635 10.9706 16.967 11.0149 16.9621 11.1502C16.9571 11.2761 16.8585 11.3088 16.7353 11.3088C15.7764 11.3088 14.815 11.3088 13.8561 11.3088V11.3064Z" fill="#410EAD"/>
<path d="M13.8562 10.0766C12.9367 10.0766 12.0197 10.0766 11.1003 10.0766C11.0534 10.0766 11.0066 10.0766 10.9573 10.0766C10.8365 10.0719 10.7428 10.0276 10.7477 9.89933C10.7527 9.78273 10.8439 9.74075 10.9573 9.74075C10.9918 9.74075 11.0288 9.74075 11.0633 9.74075C12.9244 9.74075 14.7831 9.74075 16.6442 9.74075C16.7773 9.74075 16.9351 9.71276 16.9597 9.89933C16.977 10.0229 16.8735 10.0766 16.6417 10.0766C15.7124 10.0766 14.7806 10.0766 13.8513 10.0766H13.8562Z" fill="#410EAD"/>
<path d="M12.1677 2.75842C10.7921 2.75842 9.41664 2.75842 8.04112 2.75842C7.61466 2.75842 7.43471 2.58818 7.43225 2.18939C7.43225 2.04247 7.42978 1.89788 7.43225 1.75096C7.44211 1.49443 7.62699 1.3102 7.89568 1.28221C7.95484 1.27755 8.01401 1.27988 8.07317 1.27988C10.7946 1.27988 13.5161 1.27988 16.2375 1.27988C16.7207 1.27988 16.8932 1.44313 16.8932 1.89322C16.8932 2.00982 16.8932 2.12876 16.8932 2.24536C16.8858 2.56486 16.6862 2.75376 16.3435 2.75376C14.9507 2.75376 13.558 2.75376 12.1627 2.75376L12.1677 2.75842ZM12.1504 2.4226C12.9984 2.4226 13.8464 2.4226 14.6944 2.4226C15.2392 2.4226 15.7839 2.42027 16.3312 2.4226C16.484 2.4226 16.5506 2.3643 16.5456 2.22204C16.5432 2.11477 16.5456 2.00982 16.5456 1.90255C16.5456 1.63436 16.5284 1.6157 16.2449 1.6157C13.5235 1.6157 10.8045 1.6157 8.08303 1.6157C8.04112 1.6157 7.99922 1.6157 7.95977 1.6157C7.85378 1.62036 7.79461 1.66934 7.79461 1.77428C7.79461 1.90255 7.79461 2.03314 7.79461 2.16141C7.79461 2.40628 7.80694 2.42027 8.06577 2.42027C9.42896 2.42027 10.7921 2.42027 12.1553 2.42027L12.1504 2.4226Z" fill="#410EAD"/>
<path d="M2.66971 2.03157C2.71408 2.58894 2.49962 2.80116 1.908 2.75918C1.81926 2.75218 1.73052 2.75918 1.64177 2.75918C1.31392 2.75451 1.11425 2.56561 1.10685 2.25545C1.10439 2.0992 1.10192 1.94062 1.10685 1.78437C1.11425 1.48353 1.31392 1.29229 1.62945 1.28297C1.78968 1.2783 1.94991 1.28063 2.11014 1.28297C2.47004 1.28763 2.66724 1.4742 2.66971 1.81468C2.66971 1.88698 2.66971 1.95927 2.66971 2.0339V2.03157ZM2.31474 2.01524C2.3172 1.60946 2.34925 1.61412 1.88828 1.61645C1.46182 1.61879 1.46429 1.61645 1.46182 2.01757C1.45936 2.45601 1.45196 2.42103 1.88089 2.42103C2.33939 2.42103 2.3172 2.45134 2.31474 2.01291V2.01524Z" fill="#410EAD"/>
<path d="M4.77489 2.02459C4.81927 2.59595 4.6122 2.76153 4.00579 2.76852C3.26873 2.77785 3.17999 2.49334 3.21203 2.00826C3.2145 1.96395 3.21203 1.91964 3.21203 1.873C3.21203 1.45323 3.39445 1.28065 3.8357 1.27832C3.96635 1.27832 4.097 1.27832 4.22518 1.27832C4.57029 1.28298 4.76503 1.46489 4.77243 1.78672C4.77243 1.86601 4.77243 1.94297 4.77243 2.02226L4.77489 2.02459ZM3.97374 2.42104C4.44211 2.42104 4.41992 2.46069 4.41992 2.0106C4.41992 1.61647 4.41992 1.61881 4.00826 1.61647C3.55715 1.61647 3.56454 1.58849 3.56701 2.03858C3.56947 2.42104 3.56701 2.42104 3.97374 2.42104Z" fill="#410EAD"/>
<path d="M6.08873 2.75842C5.4626 2.80273 5.28511 2.56719 5.32455 2.03548C5.33195 1.93986 5.32455 1.84425 5.32948 1.75096C5.34427 1.47811 5.53901 1.29387 5.82989 1.28454C6.01231 1.27755 6.19719 1.27755 6.3796 1.28454C6.66555 1.29387 6.85783 1.46411 6.88248 1.7323C6.89727 1.90954 6.89481 2.09145 6.88741 2.26869C6.87262 2.58352 6.67541 2.75609 6.34016 2.75842C6.25635 2.75842 6.175 2.75842 6.09119 2.75842H6.08873ZM6.10598 2.4226C6.50779 2.4226 6.53491 2.47624 6.53244 2.04014C6.53244 1.59005 6.54477 1.6157 6.09119 1.61803C5.67952 1.61803 5.67952 1.61803 5.67706 2.01216C5.67706 2.46225 5.65487 2.42494 6.10352 2.4226H6.10598Z" fill="#410EAD"/>
<path d="M4.80204 9.04821C4.82916 8.8803 4.8686 8.7054 4.88339 8.52583C4.88832 8.45586 4.85874 8.36491 4.8119 8.31127C4.69358 8.17835 4.55307 8.06407 4.42735 7.93814C4.28684 7.79588 4.33121 7.66529 4.53335 7.62564C4.71823 7.59066 4.90804 7.57433 5.09292 7.53236C5.15701 7.51836 5.23096 7.47172 5.26301 7.41808C5.35915 7.26417 5.43556 7.09859 5.52677 6.94234C5.62291 6.77443 5.77821 6.77443 5.87681 6.94234C5.94337 7.05428 6.01732 7.16622 6.05923 7.28749C6.13072 7.48805 6.27369 7.56034 6.48076 7.56967C6.59908 7.57433 6.71987 7.59066 6.8308 7.62098C6.90722 7.64197 7.01321 7.68861 7.03294 7.74691C7.05266 7.80521 7.00089 7.90549 6.95159 7.96146C6.84559 8.08273 6.7248 8.19234 6.60155 8.29495C6.5128 8.36724 6.49308 8.4442 6.51527 8.54682C6.54731 8.7054 6.57936 8.86631 6.59415 9.02723C6.59908 9.09486 6.5769 9.19047 6.52759 9.23245C6.48569 9.2651 6.37969 9.2581 6.31806 9.23245C6.10607 9.14849 5.90393 8.97359 5.69686 8.97359C5.49719 8.97359 5.29752 9.14616 5.09292 9.23711C4.9179 9.31407 4.79711 9.23711 4.80697 9.04821H4.80204ZM5.70179 7.36445C5.58347 7.75391 5.32464 7.92415 4.90064 7.91482C5.26547 8.1317 5.33943 8.42321 5.21617 8.79868C5.55142 8.53049 5.86449 8.5678 6.19727 8.79868C6.03458 8.41622 6.15537 8.1387 6.49555 7.91016C6.07402 7.91948 5.81272 7.75391 5.70179 7.36445Z" fill="#410EAD"/>
</svg>
