<svg width="18" height="15" viewBox="0 0 18 15" fill="none" xmlns="http://www.w3.org/2000/svg">
<path d="M9.01717 0C10.99 0 12.9667 0 14.9396 0C16.7216 0 18 1.29663 18 3.10803C18 6.06124 18 9.01445 18 11.9715C18 13.4346 17.046 14.6267 15.6379 14.9364C15.4357 14.9789 15.2258 14.9983 15.0197 14.9983C11.0015 14.9983 6.98707 15.0022 2.96884 14.9983C1.30888 14.9983 0 13.6707 0 11.9831C0 8.9951 0 6.00705 0 3.01901C0 1.33146 1.30507 0.00387061 2.96884 0.00387061C4.98368 8.86758e-08 6.99852 0.00387061 9.01336 0.00387061L9.01717 0ZM9.00191 1.30437C7.03286 1.30437 5.06381 1.30437 3.09858 1.30437C1.98813 1.30437 1.2898 2.0088 1.2898 3.13125C1.2898 6.03802 1.2898 8.94478 1.2898 11.8515C1.2898 12.9933 1.9805 13.6939 3.09858 13.6978C7.03668 13.6978 10.971 13.6978 14.9091 13.6978C16.0195 13.6978 16.7178 12.9933 16.7178 11.8709C16.7178 8.95639 16.7178 6.04576 16.7178 3.13125C16.7178 2.01654 16.0195 1.30824 14.9281 1.30824C12.9515 1.30824 10.9786 1.30824 9.00191 1.30824V1.30437Z" fill="#7B3FE4"/>
<path d="M3.86176 8.47623C3.86176 9.02197 3.86176 9.52901 3.86176 10.0399C3.86176 10.4695 3.59083 10.7637 3.21304 10.7598C2.84289 10.756 2.57959 10.4618 2.57959 10.0438C2.57959 8.34463 2.57959 6.64934 2.57959 4.95018C2.57959 4.50507 2.83908 4.238 3.28173 4.24187C3.8236 4.24574 4.36929 4.21478 4.90352 4.28445C5.76975 4.40057 6.41084 5.17854 6.42992 6.06489C6.43755 6.35518 6.43755 6.65321 6.39176 6.93576C6.25438 7.79888 5.50263 8.44913 4.64022 8.47236C4.38837 8.4801 4.13651 8.47236 3.86176 8.47236V8.47623ZM3.86939 7.17573C3.96861 7.17573 4.04874 7.17573 4.12888 7.17573C4.28915 7.17573 4.44942 7.18347 4.60969 7.17186C4.91116 7.15251 5.12867 6.92415 5.14393 6.6145C5.15156 6.4442 5.15156 6.2739 5.14393 6.10747C5.12867 5.82492 4.94168 5.58495 4.67075 5.56172C4.40745 5.53463 4.14033 5.55785 3.86939 5.55785V7.1796V7.17573Z" fill="#7B3FE4"/>
<path d="M8.36069 8.47623C8.36069 9.0181 8.36069 9.52514 8.36069 10.036C8.36069 10.4657 8.09358 10.7637 7.71198 10.7598C7.33419 10.7598 7.07471 10.4618 7.07471 10.0283C7.07471 8.34463 7.07471 6.66095 7.07471 4.9734C7.07471 4.49733 7.32656 4.238 7.79211 4.24187C8.32635 4.24574 8.86822 4.21478 9.39483 4.28445C10.2725 4.40057 10.9098 5.18241 10.9289 6.08424C10.9327 6.36679 10.9365 6.65708 10.8907 6.93576C10.7533 7.79888 10.0054 8.44913 9.14297 8.47623C8.89112 8.48397 8.63544 8.47623 8.36069 8.47623ZM8.36833 7.17186C8.63163 7.17186 8.87585 7.18347 9.12389 7.17186C9.40627 7.15251 9.61997 6.93189 9.64286 6.6416C9.65431 6.45194 9.65813 6.26229 9.64286 6.07263C9.62378 5.80169 9.42154 5.58107 9.15442 5.55785C8.89875 5.5385 8.63926 5.55398 8.37214 5.55398V7.17573L8.36833 7.17186Z" fill="#7B3FE4"/>
<path d="M11.6083 7.49295C11.6083 6.94334 11.5511 6.38985 11.6197 5.84798C11.7419 4.86486 12.6615 4.17204 13.6498 4.24558C14.6229 4.31525 15.4128 5.15902 15.4281 6.14214C15.4357 6.52919 15.1762 6.82722 14.8252 6.84657C14.4588 6.86593 14.1726 6.59499 14.1459 6.19633C14.1192 5.8054 13.8483 5.53447 13.4896 5.54221C13.1232 5.54995 12.8599 5.84024 12.8599 6.24277C12.8599 7.0788 12.8599 7.91097 12.8599 8.747C12.8599 9.15341 13.1194 9.44369 13.4819 9.45531C13.8445 9.46692 14.1154 9.19598 14.1421 8.78571C14.1688 8.40252 14.455 8.13546 14.8175 8.15094C15.1724 8.16642 15.4319 8.46445 15.4281 8.84763C15.4166 9.83075 14.6306 10.6745 13.6537 10.7519C12.673 10.8293 11.7419 10.1326 11.6197 9.15341C11.5511 8.60766 11.6083 8.04257 11.6083 7.48908V7.49295Z" fill="#7B3FE4"/>
</svg>
