<svg width="15" height="16" viewBox="0 0 15 16" fill="none" xmlns="http://www.w3.org/2000/svg">
<path d="M7.50497 3.38281C9.77958 3.38281 11.6264 5.23745 11.6212 7.51205C11.616 9.77883 9.76653 11.623 7.49976 11.6204C5.22515 11.6204 3.37834 9.76579 3.38356 7.49119C3.38877 5.22441 5.23558 3.38281 7.50497 3.38542V3.38281ZM10.1422 9.99795C11.0656 9.07715 11.4673 7.4964 10.8543 6.06695C10.223 4.59315 8.74401 3.72713 7.10848 3.87321C5.59817 4.00624 4.27827 5.18528 3.93656 6.70864C3.63658 8.04158 4.16871 9.37452 4.86518 9.9849C5.03212 9.64841 5.25645 9.35626 5.53817 9.10584C5.81728 8.85804 6.13812 8.68066 6.49288 8.54763C5.55382 7.73638 5.76772 6.59387 6.32854 6.04347C6.96241 5.42004 7.96407 5.39396 8.6188 5.99391C8.9266 6.27563 9.10919 6.62778 9.14832 7.04513C9.2031 7.6503 8.97616 8.14331 8.50142 8.54241C9.24745 8.81891 9.79262 9.29365 10.1448 9.99534L10.1422 9.99795ZM7.4841 11.1509C8.29013 11.1457 9.01007 10.9109 9.65698 10.444C9.75088 10.3762 9.79262 10.3136 9.71958 10.2092C9.57872 10.0058 9.46134 9.78144 9.29179 9.60146C8.77792 9.05106 8.12579 8.83978 7.37977 8.87108C6.41723 8.91281 5.71816 9.35887 5.2695 10.2118C5.21472 10.3162 5.23819 10.371 5.32949 10.4362C5.97379 10.9031 6.69373 11.1405 7.47889 11.1483L7.4841 11.1509ZM7.50236 8.39372C8.16231 8.39372 8.68662 7.87463 8.68923 7.2199C8.68923 6.56256 8.15709 6.03043 7.49715 6.03043C6.84242 6.03043 6.31289 6.55995 6.31028 7.20947C6.31028 7.86942 6.83459 8.39372 7.50236 8.39111V8.39372Z" fill="#410EAD"/>
<path d="M1.76891 12.3587C1.58631 12.1083 1.41415 11.8866 1.25503 11.6518C-0.915232 8.40688 -0.205723 4.00374 2.88012 1.59872C4.18437 0.581404 5.6686 0.057097 7.31977 0.00231866C7.37977 0.00231866 7.44237 -0.00289832 7.50237 0.00231866C7.64062 0.0153611 7.73974 0.114484 7.73192 0.239691C7.72409 0.375333 7.64584 0.458805 7.51019 0.469239C7.29369 0.487498 7.07197 0.48489 6.85546 0.505757C4.00438 0.797908 1.68543 2.62124 0.816806 5.35755C0.0759943 7.69215 0.490744 9.86242 1.95672 11.8266C1.9828 11.8631 2.0141 11.8944 2.07671 11.9623C2.05845 11.6571 2.0428 11.391 2.02715 11.1275C2.02715 11.1014 2.02193 11.078 2.01932 11.0519C2.00889 10.8902 2.08975 10.7806 2.228 10.765C2.37147 10.7493 2.4732 10.8484 2.48885 11.018C2.49928 11.1354 2.5045 11.2501 2.51233 11.3675C2.53841 11.7692 2.5671 12.1683 2.58797 12.57C2.60101 12.7918 2.50972 12.8804 2.28799 12.8674C1.78977 12.8361 1.29416 12.8022 0.795938 12.7683C0.769853 12.7683 0.746376 12.7631 0.720291 12.7604C0.568999 12.737 0.475093 12.6405 0.485527 12.5126C0.495961 12.377 0.605518 12.2883 0.764636 12.2961C0.973315 12.3066 1.17939 12.3248 1.38807 12.3379C1.50806 12.3457 1.62544 12.3509 1.7663 12.3587H1.76891Z" fill="#410EAD"/>
<path d="M13.241 2.66519C13.3584 2.81909 13.4758 2.96777 13.588 3.12428C14.694 4.68677 15.1635 6.42141 14.9496 8.32561C14.587 11.5732 12.2237 14.1712 9.02831 14.8416C8.564 14.9381 8.08143 14.9512 7.60668 15.0033C7.57538 15.006 7.54669 15.0033 7.51538 15.0033C7.3667 14.9929 7.26758 14.8964 7.26758 14.766C7.26758 14.6408 7.36148 14.5443 7.50495 14.5338C7.72667 14.5182 7.951 14.5156 8.17533 14.4973C11.1203 14.2286 13.6349 12.074 14.3209 9.19685C14.8348 7.03962 14.4201 5.05456 13.108 3.26253C13.0689 3.21036 13.0271 3.15819 12.9854 3.10602C12.9776 3.09559 12.9645 3.08776 12.9254 3.05646C12.9437 3.346 12.9593 3.60946 12.975 3.87552C12.975 3.91726 12.9854 3.95639 12.9854 3.99812C12.9802 4.13637 12.8863 4.2355 12.7585 4.23811C12.6202 4.23811 12.5367 4.16246 12.5185 4.02943C12.5002 3.90944 12.5002 3.78684 12.4924 3.66424C12.4663 3.2521 12.4376 2.84256 12.4141 2.43042C12.4011 2.21131 12.4924 2.12001 12.7141 2.13305C13.2228 2.16435 13.7288 2.19827 14.2349 2.23478C14.4227 2.24783 14.527 2.34695 14.5166 2.48781C14.5061 2.63649 14.3862 2.71735 14.1905 2.70431C13.8853 2.68605 13.5827 2.66519 13.2775 2.64693C13.2697 2.64693 13.2619 2.65475 13.2436 2.66519H13.241Z" fill="#410EAD"/>
</svg>
