<svg width="17" height="16" viewBox="0 0 17 16" fill="none" xmlns="http://www.w3.org/2000/svg">
<path d="M7.88831 13.1064C7.88831 13.6193 7.88831 14.1321 7.88831 14.6472C7.88831 14.9113 7.79701 14.9971 7.52312 14.9971C6.71287 14.9971 5.90261 14.9971 5.09464 14.9971C4.83216 14.9971 4.7363 14.9069 4.73402 14.656C4.73174 14.1827 4.72945 13.7073 4.73402 13.2341C4.7363 13.058 4.67696 12.9304 4.53317 12.8159C3.48326 11.9751 2.4402 11.1255 1.39029 10.2847C1.12553 10.0734 1 9.81811 1 9.48576C1.00456 7.92303 1 6.36251 1.00228 4.79978C1.00228 4.45642 1.13694 4.34197 1.49985 4.37719C2.25532 4.45202 2.83277 5.0463 2.84419 5.77924C2.85332 6.36031 2.85103 6.93918 2.84419 7.52025C2.84419 7.68752 2.90125 7.79537 3.05645 7.86801C3.16144 7.91643 3.26187 7.97366 3.35545 8.03528C3.58825 8.18716 3.80736 8.29281 4.11092 8.17175C4.36655 8.0705 4.64044 8.16074 4.8664 8.31261C5.5146 8.75062 6.16052 9.19302 6.7996 9.64423C6.916 9.72787 7.01414 9.84893 7.08718 9.97219C7.31314 10.342 7.5391 10.7117 7.73539 11.0969C7.8244 11.2708 7.87233 11.4777 7.88146 11.6714C7.902 12.1512 7.88831 12.631 7.88831 13.1108V13.1064Z" stroke="#410EAD" stroke-width="0.4" stroke-miterlimit="10"/>
<path d="M16 7.16003C16 7.93479 15.9955 8.71175 16 9.48651C16.0023 9.81886 15.8722 10.0742 15.6097 10.2855C14.5644 11.1241 13.5259 11.9693 12.4806 12.8056C12.3276 12.9289 12.2637 13.0632 12.266 13.2525C12.2751 13.7103 12.2706 14.1681 12.2683 14.6259C12.2683 14.9142 12.1793 15.0001 11.8894 15.0001C11.086 15.0001 10.2803 15.0001 9.47691 15.0001C9.20302 15.0001 9.11173 14.9142 9.11173 14.6501C9.11173 13.6508 9.1026 12.6516 9.11857 11.6545C9.12086 11.463 9.18248 11.2561 9.2715 11.0822C9.46322 10.7081 9.67777 10.3449 9.90372 9.98834C9.9973 9.84087 10.1251 9.70001 10.2712 9.59656C10.8578 9.17836 11.4558 8.77998 12.0469 8.36839C12.3893 8.13068 12.7499 8.07785 13.1425 8.23192C13.1904 8.25173 13.2657 8.24073 13.3136 8.21432C13.5328 8.10206 13.7427 7.9744 13.9618 7.85995C14.1079 7.78512 14.1581 7.67507 14.1558 7.51879C14.149 6.95533 14.149 6.39187 14.1558 5.82841C14.1627 5.03384 14.7538 4.42636 15.5709 4.36913C15.8471 4.34932 15.9978 4.48138 15.9978 4.74991C15.9978 5.55328 15.9978 6.35665 15.9978 7.16003H16Z" stroke="#410EAD" stroke-width="0.4" stroke-miterlimit="10"/>
<path d="M14.4114 0.543652H2.59993C2.59765 0.600879 2.59308 0.660307 2.59308 0.717533C2.59308 1.24798 2.59308 1.77843 2.59308 2.30667C2.59308 2.3617 2.59308 2.41892 2.58395 2.47395C2.55656 2.61922 2.45842 2.69845 2.30778 2.70506C2.16399 2.70946 2.04759 2.59941 2.04074 2.44974C2.03161 2.23844 2.03618 2.02494 2.03618 1.81364C2.03618 1.32281 2.03618 0.831986 2.03618 0.341158C2.03618 0.0880407 2.12975 0 2.38995 0C6.46176 0 10.5336 0 14.6054 0C14.8724 0 14.966 0.08584 14.966 0.336757C14.966 1.02788 14.966 1.7212 14.966 2.41232C14.966 2.5862 14.8542 2.70066 14.699 2.70506C14.5461 2.70946 14.4296 2.5928 14.4137 2.42553C14.4091 2.38151 14.4137 2.33529 14.4137 2.29126C14.4137 1.77182 14.4137 1.25458 14.4137 0.735142V0.545854L14.4114 0.543652Z" fill="#410EAD"/>
<path d="M13.0215 4.29163C13.0215 4.58657 13.0261 4.88151 13.0215 5.17865C13.0078 5.89398 12.444 6.39361 11.6703 6.38481C10.8897 6.376 10.3442 5.87637 10.3397 5.15884C10.3351 4.61298 10.3625 4.06493 10.3351 3.52128C10.2803 2.44718 11.312 1.99817 12.1542 2.25349C12.6837 2.41416 13.0078 2.82135 13.0215 3.3584C13.0306 3.67095 13.0215 3.98349 13.0215 4.29384V4.29163ZM12.4669 4.30044C12.4669 4.01651 12.4669 3.73258 12.4669 3.44644C12.4669 3.43984 12.4669 3.43544 12.4669 3.42883C12.4577 3.02385 12.1062 2.7025 11.6726 2.7069C11.2503 2.7091 10.8966 3.03265 10.8943 3.42883C10.892 4.0077 10.892 4.58877 10.8943 5.16764C10.8943 5.57263 11.2093 5.84556 11.6703 5.84996C12.1359 5.85436 12.4577 5.58143 12.4646 5.16984C12.4692 4.87931 12.4646 4.59097 12.4646 4.30044H12.4669Z" fill="#410EAD"/>
<path d="M5.2247 2.16626C5.36849 2.17287 5.51685 2.16186 5.65608 2.19047C6.27233 2.32034 6.52796 2.82877 6.4321 3.41865C6.40927 3.56391 6.29059 3.63435 6.13767 3.61894C5.99159 3.60573 5.90942 3.51769 5.89573 3.37903C5.8866 3.29099 5.89573 3.20074 5.89116 3.1105C5.87291 2.86179 5.71086 2.71212 5.45294 2.70771C5.28633 2.70551 5.11743 2.70331 4.95081 2.70771C4.71344 2.71432 4.55139 2.86839 4.54226 3.0995C4.53541 3.27118 4.53541 3.44506 4.54226 3.61894C4.55139 3.84784 4.71344 4.00192 4.9531 4.01292C5.11971 4.01952 5.28861 4.01292 5.45522 4.01512C5.98931 4.01953 6.40014 4.36949 6.44123 4.88233C6.46177 5.13104 6.4572 5.38636 6.42068 5.63287C6.35678 6.06207 5.9642 6.37682 5.51457 6.39003C5.31828 6.39663 5.12199 6.39663 4.92571 6.39003C4.41445 6.37462 4.00818 5.98504 3.98764 5.49201C3.98307 5.38636 3.98079 5.27851 3.98992 5.17506C4.00361 5.0342 4.09491 4.95056 4.2387 4.94175C4.38249 4.93075 4.48977 4.99678 4.52172 5.13544C4.54226 5.23229 4.5377 5.33353 4.53998 5.43478C4.55139 5.6945 4.70888 5.85078 4.97592 5.85518C5.13797 5.85958 5.30002 5.85958 5.46207 5.85518C5.70857 5.84857 5.87747 5.69891 5.89345 5.46119C5.90486 5.28952 5.90486 5.11563 5.89345 4.94175C5.87747 4.70184 5.71085 4.55437 5.46207 4.54997C5.28861 4.54557 5.11515 4.55217 4.94168 4.54777C4.40988 4.53236 4.00361 4.14278 3.98764 3.62994C3.98307 3.45606 3.98307 3.28438 3.98764 3.1105C3.99905 2.56685 4.4076 2.17727 4.96907 2.17067C5.0558 2.17067 5.14254 2.17067 5.22927 2.17067C5.22927 2.17067 5.22927 2.16626 5.22927 2.16406L5.2247 2.16626Z" fill="#410EAD"/>
<path d="M7.71943 2.70722V4.01463C7.91115 4.01463 8.09375 4.01463 8.27862 4.01463C8.62555 4.01463 8.97247 4.01463 9.3194 4.01463C9.50427 4.01463 9.61611 4.11587 9.62068 4.26995C9.62524 4.43282 9.51112 4.54507 9.32168 4.54727C8.85379 4.55168 8.38361 4.54727 7.91572 4.54727C7.85409 4.54727 7.79247 4.54727 7.71943 4.54727V5.85468C7.78106 5.85468 7.84268 5.85468 7.90431 5.85468C8.36079 5.85468 8.81727 5.85468 9.27603 5.85468C9.49971 5.85468 9.61839 5.94933 9.62068 6.12101C9.62068 6.29269 9.50199 6.38953 9.27832 6.38953C8.68945 6.38953 8.09831 6.38953 7.50945 6.38953C7.25839 6.38953 7.15796 6.29489 7.15796 6.05718C7.15796 4.86862 7.15796 3.68007 7.15796 2.49152C7.15796 2.26261 7.26067 2.16797 7.49804 2.16797C8.09375 2.16797 8.68945 2.16797 9.28516 2.16797C9.49743 2.16797 9.61383 2.26261 9.6184 2.42769C9.62296 2.59937 9.49971 2.70282 9.2806 2.70282C8.76706 2.70282 8.25123 2.70282 7.71943 2.70282V2.70722Z" fill="#410EAD"/>
<path d="M8.48176 7.74321C7.04156 7.74321 5.60136 7.74321 4.16344 7.74321C4.11094 7.74321 4.05845 7.74321 4.00824 7.74321C3.83934 7.7322 3.7275 7.62875 3.72294 7.48569C3.72065 7.34482 3.83021 7.23257 3.99682 7.21276C4.05388 7.20616 4.11323 7.20836 4.17029 7.20836C7.05069 7.20836 9.9288 7.20836 12.8092 7.20836C12.8845 7.20836 12.9598 7.20836 13.0329 7.22377C13.1767 7.25238 13.252 7.35363 13.2451 7.49009C13.2383 7.62655 13.1584 7.719 13.0101 7.73881C12.9484 7.74761 12.8822 7.74541 12.8206 7.74541C11.3758 7.74541 9.9288 7.74541 8.48404 7.74541L8.48176 7.74321Z" fill="#410EAD"/>
</svg>
