<svg width="15" height="15" viewBox="0 0 15 15" fill="none" xmlns="http://www.w3.org/2000/svg">
<path d="M8.70924 4.05831C9.52233 3.63459 10.3155 3.94293 10.7041 4.47409C11.0808 4.98932 11.1864 5.89447 10.4311 6.56885C10.4829 6.64644 10.5367 6.72402 10.5905 6.8036C10.8117 7.12786 11.0369 7.45013 11.2561 7.77638C11.4873 8.12252 11.4913 8.50846 11.2681 8.82277C11.0469 9.13709 10.6383 9.28231 10.2497 9.20074C10.166 9.18284 10.0584 9.19279 9.98467 9.23257C9.0281 9.74184 8.07352 10.2571 7.12093 10.7723C7.07709 10.7962 7.03324 10.8201 6.97346 10.8539C7.06911 10.9971 7.16876 11.1284 7.24847 11.2716C7.29829 11.3592 7.32619 11.4626 7.34413 11.5621C7.36406 11.6655 7.3521 11.773 7.36605 11.8784C7.41587 12.2603 7.67096 12.5349 8.04562 12.6164C8.26085 12.6642 8.3027 12.7179 8.29473 12.9367C8.27878 13.3982 8.52789 13.7285 8.9723 13.8717C9.05201 13.8976 9.14169 13.997 9.15764 14.0746C9.17159 14.1442 9.10383 14.2556 9.04006 14.3054C8.84077 14.4586 8.62355 14.5899 8.4143 14.7311C7.72477 15.1966 6.89374 15.0474 6.41745 14.3651C5.90727 13.633 5.40308 12.8969 4.89689 12.1629C4.86501 12.1171 4.83511 12.0733 4.79924 12.0236C4.3369 12.2703 3.88651 12.519 3.43214 12.7537C2.78645 13.0879 2.14275 13.066 1.53692 12.6701C1.32369 12.5309 1.14433 12.326 0.982906 12.1231C0.759705 11.8426 0.570383 11.5382 0.367111 11.2438C-0.200855 10.4202 -0.105198 9.44941 0.622198 8.76508C2.42773 7.06221 4.23725 5.36332 6.04677 3.66642C6.13446 3.58286 6.17432 3.50727 6.16834 3.38194C6.14443 2.95821 6.39353 2.59814 6.79011 2.46287C7.18271 2.32759 7.60519 2.46287 7.84832 2.80702C8.13729 3.21882 8.42028 3.63658 8.70924 4.05831ZM6.39752 3.97874C4.90486 5.38321 3.42417 6.77376 1.94147 8.16828C2.75656 9.35989 3.56167 10.5356 4.37078 11.7192C6.15838 10.7564 7.93601 9.79754 9.72162 8.8367C8.61159 7.21539 7.51153 5.60602 6.39752 3.97874ZM1.59472 8.49453C1.34561 8.72927 1.11045 8.94412 0.883263 9.16693C0.420918 9.62248 0.331239 10.3108 0.677998 10.8579C0.917142 11.2358 1.17422 11.6059 1.44326 11.9659C1.82589 12.4752 2.51343 12.6582 3.08737 12.4016C3.38032 12.2703 3.65932 12.1032 3.95626 11.946C3.16908 10.7942 2.38588 9.65232 1.59472 8.49453ZM10.4829 8.75513C10.6662 8.74718 10.8177 8.67954 10.9074 8.51442C11.001 8.34533 10.9652 8.18618 10.8595 8.033C9.73357 6.3918 8.60761 4.74861 7.48164 3.10741C7.31822 2.86869 7.04719 2.81498 6.82399 2.97214C6.60478 3.12532 6.56891 3.37796 6.73431 3.62066C7.04321 4.07423 7.3521 4.5278 7.66299 4.98137C8.46811 6.15706 9.27322 7.33276 10.0763 8.51243C10.176 8.65965 10.2936 8.76309 10.4829 8.75712V8.75513ZM8.43024 14.1502C8.09145 13.8996 7.8842 13.5832 7.83836 13.1754C7.8284 13.0819 7.79452 13.0421 7.70882 13.0044C7.23054 12.7955 6.92762 12.4334 6.9057 11.9082C6.89175 11.572 6.73431 11.3333 6.54898 11.0827C6.10656 11.3214 5.66813 11.5581 5.23369 11.7928C5.23767 11.8167 5.23767 11.8267 5.24166 11.8346C5.77973 12.6144 6.31382 13.3982 6.85787 14.1741C7.03125 14.4208 7.28833 14.5262 7.59125 14.5342C7.92804 14.5441 8.1632 14.3392 8.43223 14.1502H8.43024ZM10.1521 6.16701C10.5825 5.81888 10.6483 5.18826 10.3155 4.74265C10.0066 4.32886 9.38283 4.19558 8.99024 4.47011C9.37685 5.03309 9.76147 5.59607 10.1541 6.16701H10.1521Z" fill="#410EAD"/>
<path d="M2.83417 3.44954C2.25425 3.44954 1.67234 3.44954 1.09241 3.44954C0.63206 3.44954 0.380959 3.20286 0.378966 2.74134C0.37498 2.11668 0.37498 1.49203 0.378966 0.867383C0.380959 0.437687 0.665939 0.15918 1.0944 0.15918C2.25027 0.15918 3.40613 0.15918 4.56199 0.15918C5.01835 0.15918 5.28739 0.425751 5.28938 0.883298C5.29138 1.50198 5.29138 2.12265 5.28938 2.74134C5.28739 3.20286 5.03629 3.44755 4.57395 3.44954C3.99402 3.44954 3.41211 3.44954 2.83218 3.44954H2.83417ZM2.06493 1.74866C1.73013 2.15249 1.40131 2.55036 1.06053 2.96215H4.5859C4.24313 2.54837 3.9163 2.15448 3.58947 1.76059C3.50577 1.82027 3.43403 1.86802 3.36428 1.91775C3.29453 1.96748 3.22677 2.01921 3.15503 2.06695C2.95574 2.20024 2.70065 2.19825 2.50336 2.06098C2.35987 1.96152 2.21639 1.85807 2.06294 1.75065L2.06493 1.74866ZM1.35148 0.640599C1.38736 0.674417 1.39931 0.688343 1.41326 0.698289C1.85568 1.01658 2.30009 1.33289 2.74051 1.65317C2.81624 1.70887 2.87204 1.69694 2.94179 1.64521C3.36228 1.34084 3.78477 1.04045 4.20726 0.736087C4.24114 0.712215 4.27103 0.682375 4.32085 0.638609H1.35348L1.35148 0.640599ZM4.81309 2.49665V0.879319C4.52412 1.0882 4.25309 1.28315 3.97409 1.48408C4.25309 1.82226 4.52213 2.14652 4.81309 2.49665ZM0.859246 0.877329V2.4688C1.14622 2.12066 1.41127 1.80038 1.68429 1.47214C1.40928 1.2752 1.14423 1.08223 0.859246 0.877329Z" fill="#410EAD"/>
<path d="M10.9394 13.8141C10.9155 14.0429 10.8517 14.1026 10.6125 14.1026C10.3495 14.1026 10.0864 14.1026 9.82537 14.1026C9.64003 14.1026 9.55035 14.019 9.55035 13.838C9.54637 13.0622 9.54637 12.2863 9.55035 11.5085C9.55035 11.3235 9.63804 11.2419 9.82138 11.2379C10.0645 11.234 10.3056 11.2379 10.5488 11.2379C10.8716 11.2379 10.9135 11.2757 10.9414 11.6C11.049 11.6398 11.1307 11.6219 11.2104 11.5204C11.4097 11.2598 11.6249 11.0111 11.8262 10.7525C11.872 10.6929 11.9059 10.6133 11.9179 10.5377C11.9418 10.3845 11.9557 10.2273 11.9577 10.0722C11.9617 9.89513 12.0155 9.75986 12.1909 9.68625C12.3782 9.60668 12.5675 9.60071 12.717 9.73797C12.8306 9.84341 12.9382 9.98465 12.9841 10.1299C13.0638 10.3825 13.0957 10.6491 13.1455 10.9097C13.1535 10.9535 13.1574 10.9972 13.1654 11.0489C13.4763 11.0489 13.7792 11.0489 14.0821 11.0489C14.5305 11.0489 14.7318 11.2698 14.6959 11.7134C14.6939 11.7452 14.7218 11.785 14.7438 11.8128C14.949 12.0675 14.9291 12.3559 14.6959 12.5847C14.6601 12.6205 14.6481 12.6822 14.6262 12.7339C14.6222 12.7419 14.6302 12.7558 14.6262 12.7638C14.5704 12.901 14.4966 13.0323 14.4628 13.1755C14.4309 13.3168 14.4687 13.4779 14.4229 13.6112C14.3412 13.844 14.1459 13.9474 13.8988 13.9454C13.0299 13.9434 12.161 13.9454 11.2921 13.9315C11.1765 13.9315 11.0609 13.8559 10.9394 13.8141ZM10.9334 12.0953C10.9334 12.4057 10.9334 12.7021 10.9334 13.0005C10.9334 13.1895 11.1985 13.466 11.3918 13.468C12.2248 13.47 13.0578 13.468 13.8908 13.466C13.9307 13.466 13.9685 13.4222 14.0084 13.4003C13.9705 13.3765 13.9366 13.3387 13.8968 13.3287C13.7433 13.2949 13.6557 13.2054 13.6656 13.0801C13.6756 12.9448 13.7792 12.8652 13.9426 12.8632C13.9685 12.8632 13.9964 12.8712 14.0184 12.8632C14.0642 12.8433 14.106 12.8155 14.1479 12.7916C14.11 12.7677 14.0742 12.7339 14.0343 12.724C13.8769 12.6921 13.8031 12.6146 13.8091 12.4733C13.8151 12.338 13.9068 12.2545 14.0602 12.2505C14.1399 12.2485 14.2236 12.2624 14.3013 12.2505C14.3412 12.2445 14.3751 12.2008 14.4109 12.1749C14.3711 12.157 14.3332 12.1252 14.2934 12.1212C14.2057 12.1132 14.112 12.1311 14.0263 12.1132C13.8709 12.0794 13.7971 11.978 13.8111 11.8506C13.825 11.7233 13.9167 11.6537 14.0821 11.6418C14.1319 11.6378 14.1818 11.6199 14.2316 11.6079C14.2316 11.59 14.2276 11.5721 14.2256 11.5542C14.1798 11.5463 14.1339 11.5343 14.0881 11.5324C13.7493 11.5284 13.4125 11.5264 13.0737 11.5264C12.7648 11.5264 12.717 11.4687 12.6891 11.1564C12.6632 10.8818 12.6154 10.6093 12.5656 10.3388C12.5516 10.2651 12.4998 10.1975 12.4659 10.1279C12.4141 10.3089 12.4121 10.476 12.3822 10.6372C12.3603 10.7545 12.3224 10.8838 12.2507 10.9773C12.0434 11.2558 11.8063 11.5125 11.601 11.793C11.4496 12.0018 11.2822 12.1351 11.0111 12.0854C10.9932 12.0814 10.9733 12.0914 10.9374 12.0973L10.9334 12.0953ZM10.4591 13.6212V11.7213H10.0266V13.6212H10.4591Z" fill="#410EAD"/>
<path d="M12.5774 0.708616C12.8245 0.509682 13.0995 0.386343 13.4164 0.358493C14.3052 0.282898 15.0346 0.979165 14.9987 1.8684C14.9828 2.29014 14.8293 2.66413 14.6001 3.00829C14.1159 3.73638 13.4522 4.27549 12.7189 4.73304C12.6531 4.77481 12.5176 4.77879 12.4538 4.73901C11.7065 4.2735 11.0309 3.72644 10.5446 2.97845C10.3035 2.60843 10.1461 2.20857 10.166 1.75699C10.1899 1.18407 10.459 0.752381 10.9731 0.501725C11.4853 0.251069 11.9915 0.300802 12.4638 0.623074C12.5016 0.648935 12.5375 0.676786 12.5794 0.706626L12.5774 0.708616ZM12.5794 4.2735C13.0477 3.96913 13.4742 3.62498 13.8468 3.21518C14.1338 2.89887 14.3789 2.55671 14.4885 2.13497C14.6201 1.63565 14.4407 1.17213 14.0342 0.945346C13.6117 0.710605 13.1334 0.802114 12.7767 1.18606C12.6571 1.31536 12.5216 1.31934 12.396 1.19799C12.3701 1.17412 12.3482 1.14627 12.3243 1.12041C12.0074 0.806093 11.553 0.730498 11.1664 0.925453C10.7838 1.11842 10.5785 1.53419 10.6423 1.97383C10.6861 2.27024 10.8057 2.53284 10.9711 2.77752C11.3916 3.39621 11.9616 3.85773 12.5794 4.2735Z" fill="#410EAD"/>
<path d="M13.5958 8.39731C12.9621 8.39731 12.4459 7.89003 12.4419 7.25941C12.4379 6.61885 12.9481 6.10361 13.5898 6.09963C14.2255 6.09565 14.7477 6.61885 14.7457 7.25345C14.7437 7.88406 14.2275 8.39532 13.5958 8.39532V8.39731ZM14.2714 7.24549C14.2714 6.86553 13.9665 6.56712 13.5858 6.56911C13.2151 6.57309 12.9142 6.87348 12.9122 7.24549C12.9102 7.62147 13.2171 7.92982 13.5938 7.92982C13.9724 7.92982 14.2754 7.62545 14.2734 7.24549H14.2714Z" fill="#410EAD"/>
<path d="M8.01385 0C8.57783 0 9.02423 0.439643 9.02822 1.00064C9.03021 1.56163 8.5878 2.00923 8.02581 2.01321C7.46582 2.01719 7.01543 1.57157 7.01343 1.01257C7.01144 0.451579 7.45386 0.00397871 8.01585 0.00198938L8.01385 0ZM8.01983 1.54571C8.31477 1.54571 8.5579 1.30301 8.56189 1.00859C8.56388 0.710192 8.31079 0.457547 8.01186 0.463515C7.71891 0.469483 7.47379 0.71815 7.47777 1.00859C7.47977 1.30102 7.72688 1.54372 8.01983 1.54372V1.54571Z" fill="#410EAD"/>
<path d="M6.82203 8.4646C6.76823 8.53025 6.72638 8.61977 6.66061 8.64762C6.59485 8.67547 6.49919 8.64762 6.42346 8.62772C6.38759 8.61778 6.35969 8.56605 6.33378 8.52826C6.04282 8.10055 5.74987 7.67085 5.46091 7.24315C5.35529 7.08599 5.36525 6.95867 5.48482 6.87313C5.60639 6.78759 5.74389 6.82738 5.85151 6.98652C6.14047 7.41025 6.42944 7.83398 6.71641 8.2597C6.75428 8.31739 6.78018 8.38304 6.82203 8.46659V8.4646Z" fill="#410EAD"/>
<path d="M4.4225 7.61523C4.50221 7.67491 4.57993 7.70873 4.62178 7.76841C4.93267 8.20806 5.23758 8.65168 5.54248 9.09729C5.63216 9.22858 5.60426 9.36386 5.48868 9.44144C5.37907 9.51306 5.24754 9.4872 5.15986 9.36386C4.84897 8.91825 4.53609 8.47264 4.23716 8.01907C4.1973 7.9574 4.20129 7.84202 4.23118 7.76841C4.25509 7.70873 4.34677 7.67491 4.42449 7.61722L4.4225 7.61523Z" fill="#410EAD"/>
</svg>
