<svg width="183" height="159" viewBox="0 0 183 159" fill="none" xmlns="http://www.w3.org/2000/svg">
<path d="M38.8203 112.09L68.6098 141.901" stroke="black" stroke-miterlimit="10"/>
<path d="M40.708 110.387L74.9867 144.691" stroke="black" stroke-miterlimit="10"/>
<path d="M42.7832 108.871L76.4969 142.61" stroke="black" stroke-miterlimit="10"/>
<path d="M45.0596 107.562L77.8084 140.335" stroke="black" stroke-miterlimit="10"/>
<path d="M47.5557 106.469L78.9008 137.837" stroke="black" stroke-miterlimit="10"/>
<path d="M50.3027 105.629L79.7404 135.088" stroke="black" stroke-miterlimit="10"/>
<path d="M53.3574 105.094L80.2766 132.033" stroke="black" stroke-miterlimit="10"/>
<path d="M56.8086 104.957L80.4121 128.578" stroke="black" stroke-miterlimit="10"/>
<path d="M60.835 105.414L79.9505 124.531" stroke="black" stroke-miterlimit="10"/>
<path d="M66.1318 107.121L78.1999 119.19" stroke="black" stroke-miterlimit="10"/>
<path d="M44.5625 150.172L45.9001 151.513" stroke="black" stroke-miterlimit="10"/>
<path d="M33.8711 139.453L39.8429 145.441" stroke="black" stroke-miterlimit="10"/>
<path d="M45.8281 147.824L50.0191 152.018" stroke="black" stroke-miterlimit="10"/>
<path d="M32.1553 134.141L41.6715 143.664" stroke="black" stroke-miterlimit="10"/>
<path d="M31.6943 130.09L53.0107 151.422" stroke="black" stroke-miterlimit="10"/>
<path d="M31.8301 126.637L54.8043 149.628" stroke="black" stroke-miterlimit="10"/>
<path d="M32.3652 123.582L60.7813 152.019" stroke="black" stroke-miterlimit="10"/>
<path d="M33.2051 120.832L64.3689 152.019" stroke="black" stroke-miterlimit="10"/>
<path d="M34.2979 118.332L67.0466 151.105" stroke="black" stroke-miterlimit="10"/>
<path d="M35.6094 116.055L65.0234 145.49" stroke="black" stroke-miterlimit="10"/>
<path d="M37.1211 113.977L66.8175 143.695" stroke="black" stroke-miterlimit="10"/>
<path d="M73.2856 112.09L43.4961 141.901" stroke="black" stroke-miterlimit="10"/>
<path d="M71.3999 110.387L37.1211 144.691" stroke="black" stroke-miterlimit="10"/>
<path d="M69.3231 108.871L35.6094 142.61" stroke="black" stroke-miterlimit="10"/>
<path d="M67.0466 107.562L34.2979 140.335" stroke="black" stroke-miterlimit="10"/>
<path d="M64.5502 106.469L33.2051 137.837" stroke="black" stroke-miterlimit="10"/>
<path d="M61.8028 105.629L32.3652 135.088" stroke="black" stroke-miterlimit="10"/>
<path d="M58.7492 105.094L31.8301 132.033" stroke="black" stroke-miterlimit="10"/>
<path d="M55.2979 104.957L31.6943 128.578" stroke="black" stroke-miterlimit="10"/>
<path d="M51.2698 105.414L32.1543 124.531" stroke="black" stroke-miterlimit="10"/>
<path d="M45.9743 107.121L33.9062 119.19" stroke="black" stroke-miterlimit="10"/>
<path d="M67.5426 150.168L66.2061 151.51" stroke="black" stroke-miterlimit="10"/>
<path d="M78.2353 139.453L72.2656 145.442" stroke="black" stroke-miterlimit="10"/>
<path d="M66.2663 147.836L62.0889 152.016" stroke="black" stroke-miterlimit="10"/>
<path d="M79.9493 134.141L70.4336 143.663" stroke="black" stroke-miterlimit="10"/>
<path d="M80.412 130.09L59.0957 151.422" stroke="black" stroke-miterlimit="10"/>
<path d="M80.2759 126.637L57.3018 149.628" stroke="black" stroke-miterlimit="10"/>
<path d="M79.7416 123.582L51.3408 152.004" stroke="black" stroke-miterlimit="10"/>
<path d="M78.9014 120.832L47.7188 152.038" stroke="black" stroke-miterlimit="10"/>
<path d="M77.8083 118.332L45.0596 151.105" stroke="black" stroke-miterlimit="10"/>
<path d="M76.498 116.055L47.084 145.49" stroke="black" stroke-miterlimit="10"/>
<path d="M74.9855 113.977L45.2891 143.695" stroke="black" stroke-miterlimit="10"/>
<path d="M40.4807 157.748L47.0843 145.489L43.4966 141.898L31.667 153.353V157.726" stroke="black" stroke-miterlimit="10"/>
<path d="M71.6251 157.748L65.0215 145.489L68.6098 141.898L80.4387 153.353V157.726" stroke="black" stroke-miterlimit="10"/>
<path d="M56.0545 157.751H47.085V152.018H52.4167L56.0425 148.391L56.0545 157.751Z" stroke="black" stroke-miterlimit="10"/>
<path d="M56.0537 157.751H52.416V152.018L56.0417 148.391L56.0537 157.751Z" stroke="black" stroke-miterlimit="10"/>
<path d="M56.0527 157.751H65.0215V152.018H59.6897L56.064 148.391L56.0527 157.751Z" stroke="black" stroke-miterlimit="10"/>
<path d="M56.0527 157.751H59.6897V152.018L56.064 148.391L56.0527 157.751Z" stroke="black" stroke-miterlimit="10"/>
<path d="M47.0841 152.019C46.1226 151.638 45.1864 151.196 44.2812 150.695" stroke="black" stroke-miterlimit="10"/>
<path d="M38.8207 146.577C35.1143 142.865 32.7034 138.056 31.946 132.863C31.1886 127.671 32.1252 122.373 34.6167 117.755C37.1082 113.138 41.0216 109.448 45.7756 107.234C50.5296 105.02 55.8705 104.4 61.0048 105.465C66.1392 106.531 70.7931 109.225 74.2751 113.149C77.7572 117.072 79.8816 122.015 80.3328 127.243C80.784 132.471 79.5379 137.705 76.7797 142.168C74.0214 146.631 69.8981 150.084 65.0223 152.015" stroke="black" stroke-miterlimit="10"/>
<path d="M104.48 42.8438H84.2197V48.2922H104.48V42.8438Z" stroke="url(#paint0_linear_3684_21)" stroke-miterlimit="10"/>
<path d="M101.624 39.6328H87.0762V42.8483H101.624V39.6328Z" stroke="url(#paint1_linear_3684_21)" stroke-miterlimit="10"/>
<path d="M101.624 48.2969H87.0762V52.8522H101.624V48.2969Z" stroke="url(#paint2_linear_3684_21)" stroke-miterlimit="10"/>
<path d="M96.4477 39.6319V28.1992H92.253L91.4521 39.6319" stroke="url(#paint3_linear_3684_21)" stroke-miterlimit="10"/>
<path d="M92.252 54.7734H96.4469" stroke="url(#paint4_linear_3684_21)" stroke-miterlimit="10"/>
<path d="M92.252 56.8203H96.4469" stroke="url(#paint5_linear_3684_21)" stroke-miterlimit="10"/>
<path d="M92.252 58.8672H96.4469" stroke="url(#paint6_linear_3684_21)" stroke-miterlimit="10"/>
<path d="M92.252 60.9141H96.4469" stroke="url(#paint7_linear_3684_21)" stroke-miterlimit="10"/>
<path d="M92.252 62.9609H96.4469" stroke="url(#paint8_linear_3684_21)" stroke-miterlimit="10"/>
<path d="M92.252 65.0078H96.4469" stroke="url(#paint9_linear_3684_21)" stroke-miterlimit="10"/>
<path d="M92.252 67.0586H96.4469" stroke="url(#paint10_linear_3684_21)" stroke-miterlimit="10"/>
<path d="M92.252 69.1055H96.4469" stroke="url(#paint11_linear_3684_21)" stroke-miterlimit="10"/>
<path d="M92.252 71.1523H96.4469" stroke="url(#paint12_linear_3684_21)" stroke-miterlimit="10"/>
<path d="M92.252 73.1992H96.4469" stroke="url(#paint13_linear_3684_21)" stroke-miterlimit="10"/>
<path d="M92.252 75.2461H96.4469" stroke="url(#paint14_linear_3684_21)" stroke-miterlimit="10"/>
<path d="M92.252 77.293H96.4469" stroke="url(#paint15_linear_3684_21)" stroke-miterlimit="10"/>
<path d="M92.252 79.3398H96.4469" stroke="url(#paint16_linear_3684_21)" stroke-miterlimit="10"/>
<path d="M92.252 81.3906H96.4469" stroke="url(#paint17_linear_3684_21)" stroke-miterlimit="10"/>
<path d="M92.252 83.4375H96.4469" stroke="url(#paint18_linear_3684_21)" stroke-miterlimit="10"/>
<path d="M92.252 85.4844H96.4469" stroke="url(#paint19_linear_3684_21)" stroke-miterlimit="10"/>
<path d="M92.252 87.5312H96.4469" stroke="url(#paint20_linear_3684_21)" stroke-miterlimit="10"/>
<path d="M92.252 89.5781H96.4469" stroke="url(#paint21_linear_3684_21)" stroke-miterlimit="10"/>
<path d="M92.252 91.625H96.4469" stroke="url(#paint22_linear_3684_21)" stroke-miterlimit="10"/>
<path d="M92.252 93.6719H96.4469" stroke="url(#paint23_linear_3684_21)" stroke-miterlimit="10"/>
<path d="M92.252 95.7227H96.4469" stroke="url(#paint24_linear_3684_21)" stroke-miterlimit="10"/>
<path d="M92.252 97.7734H96.4469" stroke="url(#paint25_linear_3684_21)" stroke-miterlimit="10"/>
<path d="M92.252 99.8203H96.4469" stroke="url(#paint26_linear_3684_21)" stroke-miterlimit="10"/>
<path d="M92.252 101.867H96.4469" stroke="url(#paint27_linear_3684_21)" stroke-miterlimit="10"/>
<path d="M92.252 103.914H96.4469" stroke="url(#paint28_linear_3684_21)" stroke-miterlimit="10"/>
<path d="M92.252 105.961H96.4469" stroke="url(#paint29_linear_3684_21)" stroke-miterlimit="10"/>
<path d="M92.252 108.008H96.4469" stroke="url(#paint30_linear_3684_21)" stroke-miterlimit="10"/>
<path d="M92.252 110.059H96.4469" stroke="url(#paint31_linear_3684_21)" stroke-miterlimit="10"/>
<path d="M92.252 112.102H96.4469" stroke="url(#paint32_linear_3684_21)" stroke-miterlimit="10"/>
<path d="M92.252 114.148H96.4469" stroke="url(#paint33_linear_3684_21)" stroke-miterlimit="10"/>
<path d="M92.252 116.195H96.4469" stroke="url(#paint34_linear_3684_21)" stroke-miterlimit="10"/>
<path d="M92.252 118.242H96.4469" stroke="url(#paint35_linear_3684_21)" stroke-miterlimit="10"/>
<path d="M92.252 120.289H96.4469" stroke="url(#paint36_linear_3684_21)" stroke-miterlimit="10"/>
<path d="M92.252 122.34H96.4469" stroke="url(#paint37_linear_3684_21)" stroke-miterlimit="10"/>
<path d="M92.252 124.387H96.4469" stroke="url(#paint38_linear_3684_21)" stroke-miterlimit="10"/>
<path d="M92.252 126.434H96.4469" stroke="url(#paint39_linear_3684_21)" stroke-miterlimit="10"/>
<path d="M92.252 128.48H96.4469" stroke="url(#paint40_linear_3684_21)" stroke-miterlimit="10"/>
<path d="M92.252 130.527H96.4469" stroke="url(#paint41_linear_3684_21)" stroke-miterlimit="10"/>
<path d="M92.252 132.578H96.4469" stroke="url(#paint42_linear_3684_21)" stroke-miterlimit="10"/>
<path d="M92.252 134.625H96.4469" stroke="url(#paint43_linear_3684_21)" stroke-miterlimit="10"/>
<path d="M92.252 136.676H96.4469" stroke="url(#paint44_linear_3684_21)" stroke-miterlimit="10"/>
<path d="M92.252 138.723H96.4469" stroke="url(#paint45_linear_3684_21)" stroke-miterlimit="10"/>
<path d="M92.252 140.77H96.4469" stroke="url(#paint46_linear_3684_21)" stroke-miterlimit="10"/>
<path d="M92.252 142.816H96.4469" stroke="url(#paint47_linear_3684_21)" stroke-miterlimit="10"/>
<path d="M92.252 144.863H96.4469" stroke="url(#paint48_linear_3684_21)" stroke-miterlimit="10"/>
<path d="M92.252 146.91H96.4469" stroke="url(#paint49_linear_3684_21)" stroke-miterlimit="10"/>
<path d="M92.252 148.957H96.4469" stroke="url(#paint50_linear_3684_21)" stroke-miterlimit="10"/>
<path d="M92.252 151.008H96.4469" stroke="url(#paint51_linear_3684_21)" stroke-miterlimit="10"/>
<path d="M92.252 153.055H96.4469" stroke="url(#paint52_linear_3684_21)" stroke-miterlimit="10"/>
<path d="M92.252 155.102H96.4469" stroke="url(#paint53_linear_3684_21)" stroke-miterlimit="10"/>
<path d="M92 157H96.1949" stroke="url(#paint54_linear_3684_21)" stroke-miterlimit="10"/>
<path d="M96.4482 157.749V52.8477" stroke="url(#paint55_linear_3684_21)" stroke-miterlimit="10"/>
<path d="M90.5261 52.8477L85.7188 157.749" stroke="url(#paint56_linear_3684_21)" stroke-miterlimit="10"/>
<path d="M92.2529 39.6319V28.1992H96.4476L97.2484 39.6319" stroke="url(#paint57_linear_3684_21)" stroke-miterlimit="10"/>
<path d="M92.252 157.749V52.8477" stroke="url(#paint58_linear_3684_21)" stroke-miterlimit="10"/>
<path d="M98.1729 52.8477L102.98 157.749" stroke="url(#paint59_linear_3684_21)" stroke-miterlimit="10"/>
<path d="M95.158 28.1962H93.54V11.6084L95.158 5V28.1962Z" stroke="url(#paint60_linear_3684_21)" stroke-miterlimit="10"/>
<path d="M32.0193 157.996H22.8545" stroke="black" stroke-miterlimit="10" stroke-linecap="square"/>
<path d="M86 158H3" stroke="black" stroke-miterlimit="10" stroke-linecap="round"/>
<path d="M182 158H103" stroke="black" stroke-miterlimit="10" stroke-linecap="round"/>
<path d="M182 146.578H106.718V151.721H182V146.578Z" stroke="black" stroke-miterlimit="10" stroke-linecap="square"/>
<path d="M113.105 151.723H109.282V157.752H113.105V151.723Z" stroke="black" stroke-miterlimit="10" stroke-linecap="square"/>
<path d="M121.395 151.723H117.572V157.752H121.395V151.723Z" stroke="black" stroke-miterlimit="10" stroke-linecap="square"/>
<path d="M129.688 151.723H125.865V157.752H129.688V151.723Z" stroke="black" stroke-miterlimit="10" stroke-linecap="square"/>
<path d="M137.978 151.723H134.155V157.752H137.978V151.723Z" stroke="black" stroke-miterlimit="10" stroke-linecap="square"/>
<path d="M146.271 151.723H142.448V157.752H146.271V151.723Z" stroke="black" stroke-miterlimit="10" stroke-linecap="square"/>
<path d="M154.561 151.723H150.738V157.752H154.561V151.723Z" stroke="black" stroke-miterlimit="10" stroke-linecap="square"/>
<path d="M162.853 151.723H159.03V157.752H162.853V151.723Z" stroke="black" stroke-miterlimit="10" stroke-linecap="square"/>
<path d="M171.144 151.723H167.321V157.752H171.144V151.723Z" stroke="black" stroke-miterlimit="10" stroke-linecap="square"/>
<path d="M179.436 151.723H175.613V157.752H179.436V151.723Z" stroke="black" stroke-miterlimit="10" stroke-linecap="square"/>
<path d="M144.358 146.577C153.824 146.577 161.498 144.598 161.498 142.156C161.498 139.714 153.824 137.734 144.358 137.734C134.892 137.734 127.219 139.714 127.219 142.156C127.219 144.598 134.892 146.577 144.358 146.577Z" stroke="black" stroke-miterlimit="10"/>
<path d="M127.219 142.156H161.498" stroke="black" stroke-miterlimit="10"/>
<path d="M126.952 146.578V89.6992C123.865 89.697 120.822 90.4361 118.079 91.8545C115.337 93.273 112.974 95.3293 111.19 97.8508V146.578" stroke="black" stroke-miterlimit="10"/>
<path d="M162.294 146.576V74.543C165.381 74.5407 168.424 75.2798 171.167 76.6982C173.909 78.1166 176.272 80.173 178.056 82.6945V146.576" stroke="black" stroke-miterlimit="10"/>
<path d="M168.851 75.6875V146.579" stroke="black" stroke-miterlimit="10"/>
<path d="M172.397 77.3945V146.576" stroke="black" stroke-miterlimit="10"/>
<path d="M119.071 91.3789V146.579" stroke="black" stroke-miterlimit="10"/>
<path d="M115.887 93.1836V146.577" stroke="black" stroke-miterlimit="10"/>
<path d="M126.946 96.793C130.576 99.1605 135.826 100.648 141.666 100.648V137.791" stroke="black" stroke-miterlimit="10"/>
<path d="M162.296 81.6641C158.345 84.2416 152.629 85.8614 146.271 85.8614V137.733" stroke="black" stroke-miterlimit="10"/>
<path d="M126.946 99.9492C130.576 102.317 135.826 103.805 141.666 103.805" stroke="black" stroke-miterlimit="10"/>
<path d="M126.946 103.801C130.576 106.168 135.826 107.656 141.666 107.656" stroke="black" stroke-miterlimit="10"/>
<path d="M126.946 107.66C130.576 110.028 135.826 111.516 141.666 111.516" stroke="black" stroke-miterlimit="10"/>
<path d="M126.946 111.516C130.576 113.883 135.826 115.371 141.666 115.371" stroke="black" stroke-miterlimit="10"/>
<path d="M126.946 115.367C130.576 117.735 135.826 119.222 141.666 119.222" stroke="black" stroke-miterlimit="10"/>
<path d="M126.946 119.227C130.576 121.594 135.826 123.082 141.666 123.082" stroke="black" stroke-miterlimit="10"/>
<path d="M126.946 123.082C130.576 125.45 135.826 126.937 141.666 126.937" stroke="black" stroke-miterlimit="10"/>
<path d="M126.946 126.934C130.576 129.301 135.826 130.789 141.666 130.789" stroke="black" stroke-miterlimit="10"/>
<path d="M126.946 130.793C130.576 133.16 135.826 134.648 141.666 134.648" stroke="black" stroke-miterlimit="10"/>
<path d="M126.946 134.645C129.99 136.521 133.4 137.722 136.947 138.167" stroke="black" stroke-miterlimit="10"/>
<path d="M126.946 138.504C127.78 139.044 128.654 139.52 129.559 139.929" stroke="black" stroke-miterlimit="10"/>
<path d="M162.296 84.8242C158.345 87.4018 152.629 89.0215 146.271 89.0215" stroke="black" stroke-miterlimit="10"/>
<path d="M162.296 88.1875C158.345 90.765 152.629 92.3848 146.271 92.3848" stroke="black" stroke-miterlimit="10"/>
<path d="M162.296 91.5508C158.345 94.1283 152.629 95.7481 146.271 95.7481" stroke="black" stroke-miterlimit="10"/>
<path d="M162.296 94.9219C158.345 97.4994 152.629 99.1192 146.271 99.1192" stroke="black" stroke-miterlimit="10"/>
<path d="M162.296 98.2852C158.345 100.863 152.629 102.482 146.271 102.482" stroke="black" stroke-miterlimit="10"/>
<path d="M162.296 101.652C158.345 104.23 152.629 105.85 146.271 105.85" stroke="black" stroke-miterlimit="10"/>
<path d="M162.296 105.02C158.345 107.597 152.629 109.217 146.271 109.217" stroke="black" stroke-miterlimit="10"/>
<path d="M162.296 108.387C158.345 110.964 152.629 112.584 146.271 112.584" stroke="black" stroke-miterlimit="10"/>
<path d="M162.296 111.75C158.345 114.328 152.629 115.947 146.271 115.947" stroke="black" stroke-miterlimit="10"/>
<path d="M162.296 115.121C158.345 117.699 152.629 119.318 146.271 119.318" stroke="black" stroke-miterlimit="10"/>
<path d="M162.296 118.484C158.345 121.062 152.629 122.682 146.271 122.682" stroke="black" stroke-miterlimit="10"/>
<path d="M162.296 121.848C158.345 124.425 152.629 126.045 146.271 126.045" stroke="black" stroke-miterlimit="10"/>
<path d="M162.296 125.219C158.345 127.796 152.629 129.416 146.271 129.416" stroke="black" stroke-miterlimit="10"/>
<path d="M162.296 128.582C158.345 131.16 152.629 132.779 146.271 132.779" stroke="black" stroke-miterlimit="10"/>
<path d="M162.296 131.949C158.345 134.527 152.629 136.147 146.271 136.147" stroke="black" stroke-miterlimit="10"/>
<path d="M162.295 135.312C159.871 136.838 157.206 137.94 154.414 138.573" stroke="black" stroke-miterlimit="10"/>
<path d="M162.295 138.684C161.444 139.235 160.554 139.726 159.633 140.151" stroke="black" stroke-miterlimit="10"/>
<path d="M21.6777 157.999V69.4219H3.97559V157.999" stroke="black" stroke-miterlimit="10" stroke-linecap="square"/>
<path d="M3.97651 71.6133H1V157.996H3.97651V71.6133Z" stroke="black" stroke-miterlimit="10" stroke-linecap="square"/>
<path d="M24.6552 71.6133H21.6787V157.996H24.6552V71.6133Z" stroke="black" stroke-miterlimit="10" stroke-linecap="square"/>
<path d="M20.343 71.6133H5.31055V75.0997H20.343V71.6133Z" stroke="black" stroke-miterlimit="10" stroke-linecap="square"/>
<path d="M12.8271 71.6133V75.0997" stroke="black" stroke-miterlimit="10" stroke-linecap="square"/>
<path d="M9.99512 71.6133V75.0997" stroke="black" stroke-miterlimit="10" stroke-linecap="square"/>
<path d="M7.16211 71.6133V75.0997" stroke="black" stroke-miterlimit="10" stroke-linecap="square"/>
<path d="M15.6602 71.6133V75.0997" stroke="black" stroke-miterlimit="10" stroke-linecap="square"/>
<path d="M18.4922 71.6133V75.0997" stroke="black" stroke-miterlimit="10" stroke-linecap="square"/>
<path d="M20.343 77.1211H5.31055V80.6076H20.343V77.1211Z" stroke="black" stroke-miterlimit="10" stroke-linecap="square"/>
<path d="M12.8271 77.1211V80.6076" stroke="black" stroke-miterlimit="10" stroke-linecap="square"/>
<path d="M9.99512 77.1211V80.6076" stroke="black" stroke-miterlimit="10" stroke-linecap="square"/>
<path d="M7.16211 77.1211V80.6076" stroke="black" stroke-miterlimit="10" stroke-linecap="square"/>
<path d="M15.6602 77.1211V80.6076" stroke="black" stroke-miterlimit="10" stroke-linecap="square"/>
<path d="M18.4922 77.1211V80.6076" stroke="black" stroke-miterlimit="10" stroke-linecap="square"/>
<path d="M20.343 82.625H5.31055V86.1114H20.343V82.625Z" stroke="black" stroke-miterlimit="10" stroke-linecap="square"/>
<path d="M12.8271 82.625V86.1114" stroke="black" stroke-miterlimit="10" stroke-linecap="square"/>
<path d="M9.99512 82.625V86.1114" stroke="black" stroke-miterlimit="10" stroke-linecap="square"/>
<path d="M7.16211 82.625V86.1114" stroke="black" stroke-miterlimit="10" stroke-linecap="square"/>
<path d="M15.6602 82.625V86.1114" stroke="black" stroke-miterlimit="10" stroke-linecap="square"/>
<path d="M18.4922 82.625V86.1114" stroke="black" stroke-miterlimit="10" stroke-linecap="square"/>
<path d="M20.343 88.1289H5.31055V91.6154H20.343V88.1289Z" stroke="black" stroke-miterlimit="10" stroke-linecap="square"/>
<path d="M12.8271 88.1289V91.6154" stroke="black" stroke-miterlimit="10" stroke-linecap="square"/>
<path d="M9.99512 88.1289V91.6154" stroke="black" stroke-miterlimit="10" stroke-linecap="square"/>
<path d="M7.16211 88.1289V91.6154" stroke="black" stroke-miterlimit="10" stroke-linecap="square"/>
<path d="M15.6602 88.1289V91.6154" stroke="black" stroke-miterlimit="10" stroke-linecap="square"/>
<path d="M18.4922 88.1289V91.6154" stroke="black" stroke-miterlimit="10" stroke-linecap="square"/>
<path d="M20.343 93.6406H5.31055V97.1271H20.343V93.6406Z" stroke="black" stroke-miterlimit="10" stroke-linecap="square"/>
<path d="M12.8271 93.6406V97.1271" stroke="black" stroke-miterlimit="10" stroke-linecap="square"/>
<path d="M9.99512 93.6406V97.1271" stroke="black" stroke-miterlimit="10" stroke-linecap="square"/>
<path d="M7.16211 93.6406V97.1271" stroke="black" stroke-miterlimit="10" stroke-linecap="square"/>
<path d="M15.6602 93.6406V97.1271" stroke="black" stroke-miterlimit="10" stroke-linecap="square"/>
<path d="M18.4922 93.6406V97.1271" stroke="black" stroke-miterlimit="10" stroke-linecap="square"/>
<path d="M20.343 99.1406H5.31055V102.627H20.343V99.1406Z" stroke="black" stroke-miterlimit="10" stroke-linecap="square"/>
<path d="M12.8271 99.1406V102.627" stroke="black" stroke-miterlimit="10" stroke-linecap="square"/>
<path d="M9.99512 99.1406V102.627" stroke="black" stroke-miterlimit="10" stroke-linecap="square"/>
<path d="M7.16211 99.1406V102.627" stroke="black" stroke-miterlimit="10" stroke-linecap="square"/>
<path d="M15.6602 99.1406V102.627" stroke="black" stroke-miterlimit="10" stroke-linecap="square"/>
<path d="M18.4922 99.1406V102.627" stroke="black" stroke-miterlimit="10" stroke-linecap="square"/>
<path d="M20.343 104.645H5.31055V108.131H20.343V104.645Z" stroke="black" stroke-miterlimit="10" stroke-linecap="square"/>
<path d="M12.8271 104.645V108.131" stroke="black" stroke-miterlimit="10" stroke-linecap="square"/>
<path d="M9.99512 104.645V108.131" stroke="black" stroke-miterlimit="10" stroke-linecap="square"/>
<path d="M7.16211 104.645V108.131" stroke="black" stroke-miterlimit="10" stroke-linecap="square"/>
<path d="M15.6602 104.645V108.131" stroke="black" stroke-miterlimit="10" stroke-linecap="square"/>
<path d="M18.4922 104.645V108.131" stroke="black" stroke-miterlimit="10" stroke-linecap="square"/>
<path d="M20.343 110.152H5.31055V113.639H20.343V110.152Z" stroke="black" stroke-miterlimit="10" stroke-linecap="square"/>
<path d="M12.8271 110.152V113.639" stroke="black" stroke-miterlimit="10" stroke-linecap="square"/>
<path d="M9.99512 110.152V113.639" stroke="black" stroke-miterlimit="10" stroke-linecap="square"/>
<path d="M7.16211 110.152V113.639" stroke="black" stroke-miterlimit="10" stroke-linecap="square"/>
<path d="M15.6602 110.152V113.639" stroke="black" stroke-miterlimit="10" stroke-linecap="square"/>
<path d="M18.4922 110.152V113.639" stroke="black" stroke-miterlimit="10" stroke-linecap="square"/>
<path d="M20.343 115.656H5.31055V119.143H20.343V115.656Z" stroke="black" stroke-miterlimit="10" stroke-linecap="square"/>
<path d="M12.8271 115.656V119.143" stroke="black" stroke-miterlimit="10" stroke-linecap="square"/>
<path d="M9.99512 115.656V119.143" stroke="black" stroke-miterlimit="10" stroke-linecap="square"/>
<path d="M7.16211 115.656V119.143" stroke="black" stroke-miterlimit="10" stroke-linecap="square"/>
<path d="M15.6602 115.656V119.143" stroke="black" stroke-miterlimit="10" stroke-linecap="square"/>
<path d="M18.4922 115.656V119.143" stroke="black" stroke-miterlimit="10" stroke-linecap="square"/>
<path d="M20.343 121.16H5.31055V124.647H20.343V121.16Z" stroke="black" stroke-miterlimit="10" stroke-linecap="square"/>
<path d="M12.8271 121.16V124.647" stroke="black" stroke-miterlimit="10" stroke-linecap="square"/>
<path d="M9.99512 121.16V124.647" stroke="black" stroke-miterlimit="10" stroke-linecap="square"/>
<path d="M7.16211 121.16V124.647" stroke="black" stroke-miterlimit="10" stroke-linecap="square"/>
<path d="M15.6602 121.16V124.647" stroke="black" stroke-miterlimit="10" stroke-linecap="square"/>
<path d="M18.4922 121.16V124.647" stroke="black" stroke-miterlimit="10" stroke-linecap="square"/>
<path d="M20.343 126.668H5.31055V130.154H20.343V126.668Z" stroke="black" stroke-miterlimit="10" stroke-linecap="square"/>
<path d="M12.8271 126.668V130.154" stroke="black" stroke-miterlimit="10" stroke-linecap="square"/>
<path d="M9.99512 126.668V130.154" stroke="black" stroke-miterlimit="10" stroke-linecap="square"/>
<path d="M7.16211 126.668V130.154" stroke="black" stroke-miterlimit="10" stroke-linecap="square"/>
<path d="M15.6602 126.668V130.154" stroke="black" stroke-miterlimit="10" stroke-linecap="square"/>
<path d="M18.4922 126.668V130.154" stroke="black" stroke-miterlimit="10" stroke-linecap="square"/>
<path d="M20.343 132.172H5.31055V135.658H20.343V132.172Z" stroke="black" stroke-miterlimit="10" stroke-linecap="square"/>
<path d="M12.8271 132.172V135.658" stroke="black" stroke-miterlimit="10" stroke-linecap="square"/>
<path d="M9.99512 132.172V135.658" stroke="black" stroke-miterlimit="10" stroke-linecap="square"/>
<path d="M7.16211 132.172V135.658" stroke="black" stroke-miterlimit="10" stroke-linecap="square"/>
<path d="M15.6602 132.172V135.658" stroke="black" stroke-miterlimit="10" stroke-linecap="square"/>
<path d="M18.4922 132.172V135.658" stroke="black" stroke-miterlimit="10" stroke-linecap="square"/>
<path d="M20.343 137.676H5.31055V141.162H20.343V137.676Z" stroke="black" stroke-miterlimit="10" stroke-linecap="square"/>
<path d="M12.8271 137.676V141.162" stroke="black" stroke-miterlimit="10" stroke-linecap="square"/>
<path d="M9.99512 137.676V141.162" stroke="black" stroke-miterlimit="10" stroke-linecap="square"/>
<path d="M7.16211 137.676V141.162" stroke="black" stroke-miterlimit="10" stroke-linecap="square"/>
<path d="M15.6602 137.676V141.162" stroke="black" stroke-miterlimit="10" stroke-linecap="square"/>
<path d="M18.4922 137.676V141.162" stroke="black" stroke-miterlimit="10" stroke-linecap="square"/>
<path d="M20.343 143.184H5.31055V146.67H20.343V143.184Z" stroke="black" stroke-miterlimit="10" stroke-linecap="square"/>
<path d="M12.8271 143.184V146.67" stroke="black" stroke-miterlimit="10" stroke-linecap="square"/>
<path d="M9.99512 143.184V146.67" stroke="black" stroke-miterlimit="10" stroke-linecap="square"/>
<path d="M7.16211 143.184V146.67" stroke="black" stroke-miterlimit="10" stroke-linecap="square"/>
<path d="M15.6602 143.184V146.67" stroke="black" stroke-miterlimit="10" stroke-linecap="square"/>
<path d="M18.4922 143.184V146.67" stroke="black" stroke-miterlimit="10" stroke-linecap="square"/>
<path d="M20.343 148.688H5.31055V152.174H20.343V148.688Z" stroke="black" stroke-miterlimit="10" stroke-linecap="square"/>
<path d="M12.8271 148.688V152.174" stroke="black" stroke-miterlimit="10" stroke-linecap="square"/>
<path d="M9.99512 148.688V152.174" stroke="black" stroke-miterlimit="10" stroke-linecap="square"/>
<path d="M7.16211 148.688V152.174" stroke="black" stroke-miterlimit="10" stroke-linecap="square"/>
<path d="M15.6602 148.688V152.174" stroke="black" stroke-miterlimit="10" stroke-linecap="square"/>
<path d="M18.4922 148.688V152.174" stroke="black" stroke-miterlimit="10" stroke-linecap="square"/>
<path d="M8.80536 59.3125H7.4668V69.4179H8.80536V59.3125Z" stroke="black" stroke-miterlimit="10" stroke-linecap="square"/>
<path d="M17.7292 52.168H16.3906V69.4176H17.7292V52.168Z" stroke="black" stroke-miterlimit="10" stroke-linecap="square"/>
<defs>
<linearGradient id="paint0_linear_3684_21" x1="94.35" y1="42.8438" x2="94.35" y2="48.2922" gradientUnits="userSpaceOnUse">
<stop offset="0.293022" stop-color="#CF9615"/>
<stop offset="1" stop-color="#F1CD39"/>
</linearGradient>
<linearGradient id="paint1_linear_3684_21" x1="94.3503" y1="39.6328" x2="94.3503" y2="42.8483" gradientUnits="userSpaceOnUse">
<stop offset="0.293022" stop-color="#CF9615"/>
<stop offset="1" stop-color="#F1CD39"/>
</linearGradient>
<linearGradient id="paint2_linear_3684_21" x1="94.3503" y1="48.2969" x2="94.3503" y2="52.8522" gradientUnits="userSpaceOnUse">
<stop offset="0.293022" stop-color="#CF9615"/>
<stop offset="1" stop-color="#F1CD39"/>
</linearGradient>
<linearGradient id="paint3_linear_3684_21" x1="93.9499" y1="28.1992" x2="93.9499" y2="39.6319" gradientUnits="userSpaceOnUse">
<stop offset="0.293022" stop-color="#CF9615"/>
<stop offset="1" stop-color="#F1CD39"/>
</linearGradient>
<linearGradient id="paint4_linear_3684_21" x1="94.3494" y1="54.7734" x2="94.3494" y2="55.7734" gradientUnits="userSpaceOnUse">
<stop offset="0.293022" stop-color="#CF9615"/>
<stop offset="1" stop-color="#F1CD39"/>
</linearGradient>
<linearGradient id="paint5_linear_3684_21" x1="94.3494" y1="56.8203" x2="94.3494" y2="57.8203" gradientUnits="userSpaceOnUse">
<stop offset="0.293022" stop-color="#CF9615"/>
<stop offset="1" stop-color="#F1CD39"/>
</linearGradient>
<linearGradient id="paint6_linear_3684_21" x1="94.3494" y1="58.8672" x2="94.3494" y2="59.8672" gradientUnits="userSpaceOnUse">
<stop offset="0.293022" stop-color="#CF9615"/>
<stop offset="1" stop-color="#F1CD39"/>
</linearGradient>
<linearGradient id="paint7_linear_3684_21" x1="94.3494" y1="60.9141" x2="94.3494" y2="61.9141" gradientUnits="userSpaceOnUse">
<stop offset="0.293022" stop-color="#CF9615"/>
<stop offset="1" stop-color="#F1CD39"/>
</linearGradient>
<linearGradient id="paint8_linear_3684_21" x1="94.3494" y1="62.9609" x2="94.3494" y2="63.9609" gradientUnits="userSpaceOnUse">
<stop offset="0.293022" stop-color="#CF9615"/>
<stop offset="1" stop-color="#F1CD39"/>
</linearGradient>
<linearGradient id="paint9_linear_3684_21" x1="94.3494" y1="65.0078" x2="94.3494" y2="66.0078" gradientUnits="userSpaceOnUse">
<stop offset="0.293022" stop-color="#CF9615"/>
<stop offset="1" stop-color="#F1CD39"/>
</linearGradient>
<linearGradient id="paint10_linear_3684_21" x1="94.3494" y1="67.0586" x2="94.3494" y2="68.0586" gradientUnits="userSpaceOnUse">
<stop offset="0.293022" stop-color="#CF9615"/>
<stop offset="1" stop-color="#F1CD39"/>
</linearGradient>
<linearGradient id="paint11_linear_3684_21" x1="94.3494" y1="69.1055" x2="94.3494" y2="70.1055" gradientUnits="userSpaceOnUse">
<stop offset="0.293022" stop-color="#CF9615"/>
<stop offset="1" stop-color="#F1CD39"/>
</linearGradient>
<linearGradient id="paint12_linear_3684_21" x1="94.3494" y1="71.1523" x2="94.3494" y2="72.1523" gradientUnits="userSpaceOnUse">
<stop offset="0.293022" stop-color="#CF9615"/>
<stop offset="1" stop-color="#F1CD39"/>
</linearGradient>
<linearGradient id="paint13_linear_3684_21" x1="94.3494" y1="73.1992" x2="94.3494" y2="74.1992" gradientUnits="userSpaceOnUse">
<stop offset="0.293022" stop-color="#CF9615"/>
<stop offset="1" stop-color="#F1CD39"/>
</linearGradient>
<linearGradient id="paint14_linear_3684_21" x1="94.3494" y1="75.2461" x2="94.3494" y2="76.2461" gradientUnits="userSpaceOnUse">
<stop offset="0.293022" stop-color="#CF9615"/>
<stop offset="1" stop-color="#F1CD39"/>
</linearGradient>
<linearGradient id="paint15_linear_3684_21" x1="94.3494" y1="77.293" x2="94.3494" y2="78.293" gradientUnits="userSpaceOnUse">
<stop offset="0.293022" stop-color="#CF9615"/>
<stop offset="1" stop-color="#F1CD39"/>
</linearGradient>
<linearGradient id="paint16_linear_3684_21" x1="94.3494" y1="79.3398" x2="94.3494" y2="80.3398" gradientUnits="userSpaceOnUse">
<stop offset="0.293022" stop-color="#CF9615"/>
<stop offset="1" stop-color="#F1CD39"/>
</linearGradient>
<linearGradient id="paint17_linear_3684_21" x1="94.3494" y1="81.3906" x2="94.3494" y2="82.3906" gradientUnits="userSpaceOnUse">
<stop offset="0.293022" stop-color="#CF9615"/>
<stop offset="1" stop-color="#F1CD39"/>
</linearGradient>
<linearGradient id="paint18_linear_3684_21" x1="94.3494" y1="83.4375" x2="94.3494" y2="84.4375" gradientUnits="userSpaceOnUse">
<stop offset="0.293022" stop-color="#CF9615"/>
<stop offset="1" stop-color="#F1CD39"/>
</linearGradient>
<linearGradient id="paint19_linear_3684_21" x1="94.3494" y1="85.4844" x2="94.3494" y2="86.4844" gradientUnits="userSpaceOnUse">
<stop offset="0.293022" stop-color="#CF9615"/>
<stop offset="1" stop-color="#F1CD39"/>
</linearGradient>
<linearGradient id="paint20_linear_3684_21" x1="94.3494" y1="87.5312" x2="94.3494" y2="88.5312" gradientUnits="userSpaceOnUse">
<stop offset="0.293022" stop-color="#CF9615"/>
<stop offset="1" stop-color="#F1CD39"/>
</linearGradient>
<linearGradient id="paint21_linear_3684_21" x1="94.3494" y1="89.5781" x2="94.3494" y2="90.5781" gradientUnits="userSpaceOnUse">
<stop offset="0.293022" stop-color="#CF9615"/>
<stop offset="1" stop-color="#F1CD39"/>
</linearGradient>
<linearGradient id="paint22_linear_3684_21" x1="94.3494" y1="91.625" x2="94.3494" y2="92.625" gradientUnits="userSpaceOnUse">
<stop offset="0.293022" stop-color="#CF9615"/>
<stop offset="1" stop-color="#F1CD39"/>
</linearGradient>
<linearGradient id="paint23_linear_3684_21" x1="94.3494" y1="93.6719" x2="94.3494" y2="94.6719" gradientUnits="userSpaceOnUse">
<stop offset="0.293022" stop-color="#CF9615"/>
<stop offset="1" stop-color="#F1CD39"/>
</linearGradient>
<linearGradient id="paint24_linear_3684_21" x1="94.3494" y1="95.7227" x2="94.3494" y2="96.7227" gradientUnits="userSpaceOnUse">
<stop offset="0.293022" stop-color="#CF9615"/>
<stop offset="1" stop-color="#F1CD39"/>
</linearGradient>
<linearGradient id="paint25_linear_3684_21" x1="94.3494" y1="97.7734" x2="94.3494" y2="98.7734" gradientUnits="userSpaceOnUse">
<stop offset="0.293022" stop-color="#CF9615"/>
<stop offset="1" stop-color="#F1CD39"/>
</linearGradient>
<linearGradient id="paint26_linear_3684_21" x1="94.3494" y1="99.8203" x2="94.3494" y2="100.82" gradientUnits="userSpaceOnUse">
<stop offset="0.293022" stop-color="#CF9615"/>
<stop offset="1" stop-color="#F1CD39"/>
</linearGradient>
<linearGradient id="paint27_linear_3684_21" x1="94.3494" y1="101.867" x2="94.3494" y2="102.867" gradientUnits="userSpaceOnUse">
<stop offset="0.293022" stop-color="#CF9615"/>
<stop offset="1" stop-color="#F1CD39"/>
</linearGradient>
<linearGradient id="paint28_linear_3684_21" x1="94.3494" y1="103.914" x2="94.3494" y2="104.914" gradientUnits="userSpaceOnUse">
<stop offset="0.293022" stop-color="#CF9615"/>
<stop offset="1" stop-color="#F1CD39"/>
</linearGradient>
<linearGradient id="paint29_linear_3684_21" x1="94.3494" y1="105.961" x2="94.3494" y2="106.961" gradientUnits="userSpaceOnUse">
<stop offset="0.293022" stop-color="#CF9615"/>
<stop offset="1" stop-color="#F1CD39"/>
</linearGradient>
<linearGradient id="paint30_linear_3684_21" x1="94.3494" y1="108.008" x2="94.3494" y2="109.008" gradientUnits="userSpaceOnUse">
<stop offset="0.293022" stop-color="#CF9615"/>
<stop offset="1" stop-color="#F1CD39"/>
</linearGradient>
<linearGradient id="paint31_linear_3684_21" x1="94.3494" y1="110.059" x2="94.3494" y2="111.059" gradientUnits="userSpaceOnUse">
<stop offset="0.293022" stop-color="#CF9615"/>
<stop offset="1" stop-color="#F1CD39"/>
</linearGradient>
<linearGradient id="paint32_linear_3684_21" x1="94.3494" y1="112.102" x2="94.3494" y2="113.102" gradientUnits="userSpaceOnUse">
<stop offset="0.293022" stop-color="#CF9615"/>
<stop offset="1" stop-color="#F1CD39"/>
</linearGradient>
<linearGradient id="paint33_linear_3684_21" x1="94.3494" y1="114.148" x2="94.3494" y2="115.148" gradientUnits="userSpaceOnUse">
<stop offset="0.293022" stop-color="#CF9615"/>
<stop offset="1" stop-color="#F1CD39"/>
</linearGradient>
<linearGradient id="paint34_linear_3684_21" x1="94.3494" y1="116.195" x2="94.3494" y2="117.195" gradientUnits="userSpaceOnUse">
<stop offset="0.293022" stop-color="#CF9615"/>
<stop offset="1" stop-color="#F1CD39"/>
</linearGradient>
<linearGradient id="paint35_linear_3684_21" x1="94.3494" y1="118.242" x2="94.3494" y2="119.242" gradientUnits="userSpaceOnUse">
<stop offset="0.293022" stop-color="#CF9615"/>
<stop offset="1" stop-color="#F1CD39"/>
</linearGradient>
<linearGradient id="paint36_linear_3684_21" x1="94.3494" y1="120.289" x2="94.3494" y2="121.289" gradientUnits="userSpaceOnUse">
<stop offset="0.293022" stop-color="#CF9615"/>
<stop offset="1" stop-color="#F1CD39"/>
</linearGradient>
<linearGradient id="paint37_linear_3684_21" x1="94.3494" y1="122.34" x2="94.3494" y2="123.34" gradientUnits="userSpaceOnUse">
<stop offset="0.293022" stop-color="#CF9615"/>
<stop offset="1" stop-color="#F1CD39"/>
</linearGradient>
<linearGradient id="paint38_linear_3684_21" x1="94.3494" y1="124.387" x2="94.3494" y2="125.387" gradientUnits="userSpaceOnUse">
<stop offset="0.293022" stop-color="#CF9615"/>
<stop offset="1" stop-color="#F1CD39"/>
</linearGradient>
<linearGradient id="paint39_linear_3684_21" x1="94.3494" y1="126.434" x2="94.3494" y2="127.434" gradientUnits="userSpaceOnUse">
<stop offset="0.293022" stop-color="#CF9615"/>
<stop offset="1" stop-color="#F1CD39"/>
</linearGradient>
<linearGradient id="paint40_linear_3684_21" x1="94.3494" y1="128.48" x2="94.3494" y2="129.48" gradientUnits="userSpaceOnUse">
<stop offset="0.293022" stop-color="#CF9615"/>
<stop offset="1" stop-color="#F1CD39"/>
</linearGradient>
<linearGradient id="paint41_linear_3684_21" x1="94.3494" y1="130.527" x2="94.3494" y2="131.527" gradientUnits="userSpaceOnUse">
<stop offset="0.293022" stop-color="#CF9615"/>
<stop offset="1" stop-color="#F1CD39"/>
</linearGradient>
<linearGradient id="paint42_linear_3684_21" x1="94.3494" y1="132.578" x2="94.3494" y2="133.578" gradientUnits="userSpaceOnUse">
<stop offset="0.293022" stop-color="#CF9615"/>
<stop offset="1" stop-color="#F1CD39"/>
</linearGradient>
<linearGradient id="paint43_linear_3684_21" x1="94.3494" y1="134.625" x2="94.3494" y2="135.625" gradientUnits="userSpaceOnUse">
<stop offset="0.293022" stop-color="#CF9615"/>
<stop offset="1" stop-color="#F1CD39"/>
</linearGradient>
<linearGradient id="paint44_linear_3684_21" x1="94.3494" y1="136.676" x2="94.3494" y2="137.676" gradientUnits="userSpaceOnUse">
<stop offset="0.293022" stop-color="#CF9615"/>
<stop offset="1" stop-color="#F1CD39"/>
</linearGradient>
<linearGradient id="paint45_linear_3684_21" x1="94.3494" y1="138.723" x2="94.3494" y2="139.723" gradientUnits="userSpaceOnUse">
<stop offset="0.293022" stop-color="#CF9615"/>
<stop offset="1" stop-color="#F1CD39"/>
</linearGradient>
<linearGradient id="paint46_linear_3684_21" x1="94.3494" y1="140.77" x2="94.3494" y2="141.77" gradientUnits="userSpaceOnUse">
<stop offset="0.293022" stop-color="#CF9615"/>
<stop offset="1" stop-color="#F1CD39"/>
</linearGradient>
<linearGradient id="paint47_linear_3684_21" x1="94.3494" y1="142.816" x2="94.3494" y2="143.816" gradientUnits="userSpaceOnUse">
<stop offset="0.293022" stop-color="#CF9615"/>
<stop offset="1" stop-color="#F1CD39"/>
</linearGradient>
<linearGradient id="paint48_linear_3684_21" x1="94.3494" y1="144.863" x2="94.3494" y2="145.863" gradientUnits="userSpaceOnUse">
<stop offset="0.293022" stop-color="#CF9615"/>
<stop offset="1" stop-color="#F1CD39"/>
</linearGradient>
<linearGradient id="paint49_linear_3684_21" x1="94.3494" y1="146.91" x2="94.3494" y2="147.91" gradientUnits="userSpaceOnUse">
<stop offset="0.293022" stop-color="#CF9615"/>
<stop offset="1" stop-color="#F1CD39"/>
</linearGradient>
<linearGradient id="paint50_linear_3684_21" x1="94.3494" y1="148.957" x2="94.3494" y2="149.957" gradientUnits="userSpaceOnUse">
<stop offset="0.293022" stop-color="#CF9615"/>
<stop offset="1" stop-color="#F1CD39"/>
</linearGradient>
<linearGradient id="paint51_linear_3684_21" x1="94.3494" y1="151.008" x2="94.3494" y2="152.008" gradientUnits="userSpaceOnUse">
<stop offset="0.293022" stop-color="#CF9615"/>
<stop offset="1" stop-color="#F1CD39"/>
</linearGradient>
<linearGradient id="paint52_linear_3684_21" x1="94.3494" y1="153.055" x2="94.3494" y2="154.055" gradientUnits="userSpaceOnUse">
<stop offset="0.293022" stop-color="#CF9615"/>
<stop offset="1" stop-color="#F1CD39"/>
</linearGradient>
<linearGradient id="paint53_linear_3684_21" x1="94.3494" y1="155.102" x2="94.3494" y2="156.102" gradientUnits="userSpaceOnUse">
<stop offset="0.293022" stop-color="#CF9615"/>
<stop offset="1" stop-color="#F1CD39"/>
</linearGradient>
<linearGradient id="paint54_linear_3684_21" x1="94.0975" y1="157" x2="94.0975" y2="158" gradientUnits="userSpaceOnUse">
<stop offset="0.293022" stop-color="#CF9615"/>
<stop offset="1" stop-color="#F1CD39"/>
</linearGradient>
<linearGradient id="paint55_linear_3684_21" x1="96.9482" y1="52.8477" x2="96.9482" y2="157.749" gradientUnits="userSpaceOnUse">
<stop offset="0.293022" stop-color="#CF9615"/>
<stop offset="1" stop-color="#F1CD39"/>
</linearGradient>
<linearGradient id="paint56_linear_3684_21" x1="88.1224" y1="52.8477" x2="88.1224" y2="157.749" gradientUnits="userSpaceOnUse">
<stop offset="0.293022" stop-color="#CF9615"/>
<stop offset="1" stop-color="#F1CD39"/>
</linearGradient>
<linearGradient id="paint57_linear_3684_21" x1="94.7507" y1="28.1992" x2="94.7507" y2="39.6319" gradientUnits="userSpaceOnUse">
<stop offset="0.293022" stop-color="#CF9615"/>
<stop offset="1" stop-color="#F1CD39"/>
</linearGradient>
<linearGradient id="paint58_linear_3684_21" x1="92.752" y1="52.8477" x2="92.752" y2="157.749" gradientUnits="userSpaceOnUse">
<stop offset="0.293022" stop-color="#CF9615"/>
<stop offset="1" stop-color="#F1CD39"/>
</linearGradient>
<linearGradient id="paint59_linear_3684_21" x1="100.577" y1="52.8477" x2="100.577" y2="157.749" gradientUnits="userSpaceOnUse">
<stop offset="0.293022" stop-color="#CF9615"/>
<stop offset="1" stop-color="#F1CD39"/>
</linearGradient>
<linearGradient id="paint60_linear_3684_21" x1="94.349" y1="5" x2="94.349" y2="28.1962" gradientUnits="userSpaceOnUse">
<stop offset="0.293022" stop-color="#CF9615"/>
<stop offset="1" stop-color="#F1CD39"/>
</linearGradient>
</defs>
</svg>
