<svg width="36" height="25" viewBox="0 0 36 25" fill="none" xmlns="http://www.w3.org/2000/svg">
<path d="M31.5577 3.12176C27.1466 -0.0896284 22.9202 0.000627632 22.9202 0.000627632L22.4883 0.480744C27.7325 2.01135 30.1696 4.26213 30.1696 4.26213C22.6665 0.243307 13.1098 0.272144 5.30575 4.26213C5.30575 4.26213 7.83524 1.89113 13.3881 0.360527L13.0798 0.000252618C13.0798 0.000252618 8.88423 -0.0896284 4.44231 3.12138C4.44231 3.12138 0 10.8942 0 20.4681C0 20.4681 2.59147 24.7899 9.40891 25C9.40891 25 10.5503 23.6795 11.4757 22.5391C7.55808 21.3988 6.07718 19.0278 6.07718 19.0278C8.53854 20.5262 11.0272 21.4639 14.1288 22.059C19.1747 23.0694 25.4513 22.0305 30.1392 19.0278C30.1392 19.0278 28.5967 21.4587 24.5555 22.5691C25.4809 23.6795 26.5915 24.97 26.5915 24.97C33.4089 24.7599 36 20.4381 36 20.4685C35.9996 10.8946 31.5577 3.12176 31.5577 3.12176ZM12.2468 17.6773C10.5191 17.6773 9.10018 16.2066 9.10018 14.376C9.22645 9.99169 15.2986 10.0052 15.3933 14.376C15.3933 16.2066 14.0048 17.6773 12.2468 17.6773ZM23.5061 17.6773C21.7785 17.6773 20.3595 16.2066 20.3595 14.376C20.4981 10.0003 26.4945 9.99843 26.6527 14.376C26.6527 16.2066 25.2646 17.6773 23.5061 17.6773Z" fill="#6665D2"/>
</svg>
