<svg width="239" height="155" viewBox="0 0 239 155" fill="none" xmlns="http://www.w3.org/2000/svg">
<path d="M65.565 152.465V150.932H66.5529V149.401H67.2886L68.508 144.259L67.7853 144.185V142.654H68.7686V141.121H69.5318V139.588H70.52V92.0156H8.5332V153.998H64.2902V152.465H65.565Z" stroke="black" stroke-linecap="round" stroke-linejoin="round"/>
<path d="M70.3043 83.8592H3.33114L1 80.9375H70.3043V83.8592Z" stroke="black" stroke-linecap="round" stroke-linejoin="round"/>
<path d="M12.4423 83.8594H10.3262V92.0184H12.4423V83.8594Z" stroke="black" stroke-linecap="round" stroke-linejoin="round"/>
<path d="M18.3661 83.8594H16.25V92.0184H18.3661V83.8594Z" stroke="black" stroke-linecap="round" stroke-linejoin="round"/>
<path d="M24.2919 83.8594H22.1758V92.0184H24.2919V83.8594Z" stroke="black" stroke-linecap="round" stroke-linejoin="round"/>
<path d="M30.2169 83.8594H28.1006V92.0184H30.2169V83.8594Z" stroke="black" stroke-linecap="round" stroke-linejoin="round"/>
<path d="M36.1427 83.8594H34.0264V92.0184H36.1427V83.8594Z" stroke="black" stroke-linecap="round" stroke-linejoin="round"/>
<path d="M42.0685 83.8594H39.9521V92.0184H42.0685V83.8594Z" stroke="black" stroke-linecap="round" stroke-linejoin="round"/>
<path d="M47.9916 83.8594H45.877V92.0184H47.9916V83.8594Z" stroke="black" stroke-linecap="round" stroke-linejoin="round"/>
<path d="M53.9171 83.8594H51.8008V92.0184H53.9171V83.8594Z" stroke="black" stroke-linecap="round" stroke-linejoin="round"/>
<path d="M59.8417 83.8594H57.7256V92.0184H59.8417V83.8594Z" stroke="black" stroke-linecap="round" stroke-linejoin="round"/>
<path d="M65.7682 83.8594H63.6504V92.0184H65.7682V83.8594Z" stroke="black" stroke-linecap="round" stroke-linejoin="round"/>
<path d="M65.6361 92.0156H29.0273V94.5092H65.6361V92.0156Z" stroke="black" stroke-linecap="round" stroke-linejoin="round"/>
<path d="M64.5783 94.5117H30.084V96.4268H64.5783V94.5117Z" stroke="black" stroke-linecap="round" stroke-linejoin="round"/>
<path d="M63.207 96.4258H31.4541V153.999H63.207V96.4258Z" stroke="black" stroke-linecap="round" stroke-linejoin="round"/>
<path d="M58.1234 121.617H36.5381V153.998H58.1234V121.617Z" stroke="black" stroke-linecap="round" stroke-linejoin="round"/>
<path d="M35.1904 121.617H33.0986V124.258H35.1904V121.617Z" stroke="black" stroke-linecap="round" stroke-linejoin="round"/>
<path d="M35.1904 125.23H33.0986V127.871H35.1904V125.23Z" stroke="black" stroke-linecap="round" stroke-linejoin="round"/>
<path d="M35.1904 128.844H33.0986V131.483H35.1904V128.844Z" stroke="black" stroke-linecap="round" stroke-linejoin="round"/>
<path d="M35.1904 132.457H33.0986V135.096H35.1904V132.457Z" stroke="black" stroke-linecap="round" stroke-linejoin="round"/>
<path d="M35.1904 136.07H33.0986V138.711H35.1904V136.07Z" stroke="black" stroke-linecap="round" stroke-linejoin="round"/>
<path d="M35.1904 139.688H33.0986V142.328H35.1904V139.688Z" stroke="black" stroke-linecap="round" stroke-linejoin="round"/>
<path d="M35.1904 143.301H33.0986V145.941H35.1904V143.301Z" stroke="black" stroke-linecap="round" stroke-linejoin="round"/>
<path d="M35.1904 146.918H33.0986V149.557H35.1904V146.918Z" stroke="black" stroke-linecap="round" stroke-linejoin="round"/>
<path d="M35.1904 150.531H33.0986V153.172H35.1904V150.531Z" stroke="black" stroke-linecap="round" stroke-linejoin="round"/>
<path d="M61.5635 121.617H59.4717V124.258H61.5635V121.617Z" stroke="black" stroke-linecap="round" stroke-linejoin="round"/>
<path d="M61.5635 125.23H59.4717V127.871H61.5635V125.23Z" stroke="black" stroke-linecap="round" stroke-linejoin="round"/>
<path d="M61.5635 128.844H59.4717V131.483H61.5635V128.844Z" stroke="black" stroke-linecap="round" stroke-linejoin="round"/>
<path d="M61.5635 132.457H59.4717V135.096H61.5635V132.457Z" stroke="black" stroke-linecap="round" stroke-linejoin="round"/>
<path d="M61.5635 136.07H59.4717V138.711H61.5635V136.07Z" stroke="black" stroke-linecap="round" stroke-linejoin="round"/>
<path d="M61.5635 139.688H59.4717V142.328H61.5635V139.688Z" stroke="black" stroke-linecap="round" stroke-linejoin="round"/>
<path d="M61.5635 143.301H59.4717V145.941H61.5635V143.301Z" stroke="black" stroke-linecap="round" stroke-linejoin="round"/>
<path d="M61.5635 146.918H59.4717V149.557H61.5635V146.918Z" stroke="black" stroke-linecap="round" stroke-linejoin="round"/>
<path d="M61.5635 150.531H59.4717V153.172H61.5635V150.531Z" stroke="black" stroke-linecap="round" stroke-linejoin="round"/>
<path d="M47.3308 100.715C47.2444 100.707 34.0264 101.586 34.0264 119.147H60.6353C60.6352 101.586 47.417 100.707 47.3308 100.715Z" stroke="black" stroke-linecap="round" stroke-linejoin="round"/>
<path d="M55.4619 104.555V119.15" stroke="black" stroke-linecap="round" stroke-linejoin="round"/>
<path d="M52.0498 102.148V119.153" stroke="black" stroke-linecap="round" stroke-linejoin="round"/>
<path d="M48.6387 100.922V119.148" stroke="black" stroke-linecap="round" stroke-linejoin="round"/>
<path d="M45.2295 101.121V119.15" stroke="black" stroke-linecap="round" stroke-linejoin="round"/>
<path d="M41.8164 102.582V119.153" stroke="black" stroke-linecap="round" stroke-linejoin="round"/>
<path d="M38.4072 105.379V119.153" stroke="black" stroke-linecap="round" stroke-linejoin="round"/>
<path d="M60.3971 115.266H34.2637" stroke="black" stroke-linecap="round" stroke-linejoin="round"/>
<path d="M59.6984 111.84H34.96" stroke="black" stroke-linecap="round" stroke-linejoin="round"/>
<path d="M58.3444 108.418H36.3164" stroke="black" stroke-linecap="round" stroke-linejoin="round"/>
<path d="M55.9006 104.992H38.7627" stroke="black" stroke-linecap="round" stroke-linejoin="round"/>
<path d="M55.6084 125.023H39.0547V153.999H55.6084V125.023Z" stroke="black" stroke-linecap="round" stroke-linejoin="round"/>
<path d="M54.5784 154V142.674C54.5798 142.405 54.5112 142.14 54.3792 141.906C54.2471 141.672 54.0564 141.476 53.8258 141.339C53.5952 141.202 53.3329 141.127 53.0649 141.123C52.7968 141.119 52.5324 141.186 52.2979 141.316V135.448C52.302 134.742 52.167 134.043 51.9008 133.389C51.6346 132.736 51.2424 132.142 50.7467 131.642C50.251 131.141 49.6617 130.744 49.0125 130.473C48.3634 130.202 47.6673 130.063 46.9642 130.062C46.2612 130.063 45.565 130.202 44.9159 130.473C44.2667 130.744 43.6774 131.141 43.1817 131.642C42.686 132.142 42.2938 132.736 42.0276 133.389C41.7614 134.043 41.6264 134.742 41.6306 135.448V141.123C41.4276 141.123 41.2265 141.163 41.0389 141.241C40.8514 141.319 40.6809 141.433 40.5373 141.577C40.3937 141.721 40.2797 141.892 40.2019 142.08C40.1242 142.268 40.0841 142.47 40.084 142.674V154L54.5784 154Z" stroke="black" stroke-linecap="round" stroke-linejoin="round"/>
<path d="M46.3496 141.124V135.449C46.3502 134.45 46.6291 133.472 47.1547 132.625C47.6803 131.777 48.4316 131.094 49.3237 130.653C48.5113 130.247 47.6091 130.057 46.7028 130.1C45.7964 130.143 44.9161 130.417 44.1453 130.898C43.3745 131.378 42.7389 132.049 42.2988 132.845C41.8586 133.642 41.6286 134.538 41.6306 135.449V141.124C41.4276 141.124 41.2265 141.164 41.0389 141.242C40.8514 141.32 40.6809 141.434 40.5373 141.578C40.3937 141.722 40.2797 141.893 40.2019 142.081C40.1242 142.269 40.0841 142.471 40.084 142.675V154H44.8032V142.675C44.8036 142.263 44.9667 141.869 45.2567 141.578C45.5467 141.287 45.9397 141.124 46.3496 141.124Z" stroke="black" stroke-linecap="round" stroke-linejoin="round"/>
<path d="M69.4319 58.5234H69.396H10.9805V61.8127H70.7293L69.4319 58.5234Z" stroke="black" stroke-linecap="round" stroke-linejoin="round"/>
<path d="M64.5785 67.9258H30.2178V74.7284H64.5785V67.9258Z" stroke="black" stroke-linecap="round" stroke-linejoin="round"/>
<path d="M89.7477 139.59H69.5312V141.123H89.7477V139.59Z" stroke="black" stroke-linecap="round" stroke-linejoin="round"/>
<path d="M90.5109 141.121H68.7676V142.654H90.5109V141.121Z" stroke="black" stroke-linecap="round" stroke-linejoin="round"/>
<path d="M88.7416 83.053L89.6726 78.8125H88.3964L87.5841 83.053H86.6513L87.3693 78.8125H86.0931L85.494 83.053H84.5611L85.0659 78.8125H82.4563L82.1959 83.053H81.2631L81.4291 78.8125H80.1529L80.1058 83.053H79.1729L79.1258 78.8125H77.8496L78.0156 83.053H77.0828L76.8225 78.8125H74.2129L74.7159 83.053H73.7865L73.1874 78.8125H71.9095L72.6275 83.053H71.6947L70.8824 78.8125H69.6062L70.5373 83.053H69.6045C69.6045 83.053 69.9105 87.3065 69.9105 88.8979H89.3682C89.3682 86.7753 89.4952 84.7359 89.6465 83.053H88.7416Z" stroke="black" stroke-linecap="round" stroke-linejoin="round"/>
<path d="M88.1184 15.6597C88.1185 15.8779 88.0758 16.0941 87.9926 16.2957C87.9094 16.4974 87.7875 16.6806 87.6338 16.8349C87.48 16.9893 87.2975 17.1117 87.0966 17.1952C86.8957 17.2786 86.6804 17.3216 86.463 17.3215H72.8151C72.5978 17.3214 72.3826 17.2784 72.1819 17.1948C71.9811 17.1113 71.7988 16.9888 71.6452 16.8345C71.4916 16.6802 71.3698 16.497 71.2867 16.2954C71.2037 16.0939 71.161 15.8778 71.1611 15.6597V15.6597C71.1608 15.2189 71.3348 14.7961 71.645 14.4841C71.9551 14.1721 72.376 13.9966 72.8151 13.9961H86.4631C86.6806 13.9962 86.896 14.0393 87.0969 14.123C87.2978 14.2066 87.4804 14.3292 87.6341 14.4837C87.7878 14.6382 87.9097 14.8215 87.9928 15.0233C88.076 15.2251 88.1187 15.4413 88.1185 15.6597H88.1184Z" stroke="black" stroke-linecap="round" stroke-linejoin="round"/>
<path d="M79.6388 1C79.6388 1 72.8164 9.34858 72.8164 12.8846V13.9941H86.4629V12.8846C86.4629 9.3486 79.6388 1 79.6388 1Z" stroke="black" stroke-linecap="round" stroke-linejoin="round"/>
<path d="M81.0895 26.1888V20.1231C81.0895 19.7371 80.9368 19.367 80.665 19.0942C80.3931 18.8213 80.0244 18.668 79.64 18.668C79.2555 18.668 78.8868 18.8213 78.615 19.0942C78.3431 19.367 78.1904 19.7371 78.1904 20.1231V26.1888H81.0895Z" stroke="black" stroke-linecap="round" stroke-linejoin="round"/>
<path d="M75.8934 26.1881V20.1224C75.8934 19.3184 75.4817 18.668 74.9738 18.668C74.4659 18.668 74.0557 19.3184 74.0557 20.1224V26.1881H75.8934Z" stroke="black" stroke-linecap="round" stroke-linejoin="round"/>
<path d="M85.2235 26.1881V20.1224C85.2235 19.3184 84.8116 18.668 84.3037 18.668C83.7958 18.668 83.3857 19.3184 83.3857 20.1224V26.1881H85.2235Z" stroke="black" stroke-linecap="round" stroke-linejoin="round"/>
<path d="M87.7388 50.4062H71.54V55.8903H87.7388V50.4062Z" stroke="black" stroke-linecap="round" stroke-linejoin="round"/>
<path d="M91.3565 57.2077C91.3565 57.9349 90.6955 58.5247 89.8816 58.5247H69.3968C68.5828 58.5247 67.9219 57.9349 67.9219 57.2077C67.9219 56.4805 68.5828 55.8906 69.3968 55.8906H89.8816C90.6955 55.8906 91.3565 56.4805 91.3565 57.2077V57.2077Z" stroke="black" stroke-linecap="round" stroke-linejoin="round"/>
<path d="M93.512 77.4967C93.512 78.2239 92.7305 78.8138 91.767 78.8138H67.5135C66.5482 78.8138 65.7686 78.2238 65.7686 77.4967C65.7686 76.7695 66.5483 76.1797 67.5135 76.1797H91.7669C92.7305 76.1797 93.5119 76.7695 93.5119 77.4967H93.512Z" stroke="black" stroke-linecap="round" stroke-linejoin="round"/>
<path d="M72.5019 62.7639H71.1033L69.4316 58.5234H71.1033L72.5019 62.7639Z" stroke="black" stroke-linecap="round" stroke-linejoin="round"/>
<path d="M75.6369 62.7639H74.2388L73.1807 58.5234H74.8523L75.6369 62.7639Z" stroke="black" stroke-linecap="round" stroke-linejoin="round"/>
<path d="M78.7719 62.7639H77.3735L76.9307 58.5234H78.601L78.7719 62.7639Z" stroke="black" stroke-linecap="round" stroke-linejoin="round"/>
<path d="M81.9046 62.7639H80.5078L80.6771 58.5234H82.349L81.9046 62.7639Z" stroke="black" stroke-linecap="round" stroke-linejoin="round"/>
<path d="M85.0399 62.7639H83.6416L84.4262 58.5234H86.0981L85.0399 62.7639Z" stroke="black" stroke-linecap="round" stroke-linejoin="round"/>
<path d="M88.1737 62.7639H86.7754L88.1737 58.5234H89.8469L88.1737 62.7639Z" stroke="black" stroke-linecap="round" stroke-linejoin="round"/>
<path d="M70.5373 83.0527H69.6045L68.5791 78.8125H69.6063L70.5373 83.0527Z" stroke="black" stroke-linecap="round" stroke-linejoin="round"/>
<path d="M72.6271 83.0527H71.6943L70.8818 78.8125H71.9091L72.6271 83.0527Z" stroke="black" stroke-linecap="round" stroke-linejoin="round"/>
<path d="M74.7167 83.0527H73.7873L73.1865 78.8125H74.2137L74.7167 83.0527Z" stroke="black" stroke-linecap="round" stroke-linejoin="round"/>
<path d="M78.0162 83.0527H77.0828L76.8223 78.8125H77.85L78.0162 83.0527Z" stroke="black" stroke-linecap="round" stroke-linejoin="round"/>
<path d="M80.1056 83.0527H79.1721L79.125 78.8125H80.1529L80.1056 83.0527Z" stroke="black" stroke-linecap="round" stroke-linejoin="round"/>
<path d="M82.1959 83.0527H81.2627L81.4287 78.8125H82.4567L82.1959 83.0527Z" stroke="black" stroke-linecap="round" stroke-linejoin="round"/>
<path d="M85.4918 83.0527H84.5605L85.0653 78.8125H86.0925L85.4918 83.0527Z" stroke="black" stroke-linecap="round" stroke-linejoin="round"/>
<path d="M87.5842 83.0527H86.6514L87.3694 78.8125H88.3963L87.5842 83.0527Z" stroke="black" stroke-linecap="round" stroke-linejoin="round"/>
<path d="M89.6722 83.0527H88.7412L89.6722 78.8125H90.6994L89.6722 83.0527Z" stroke="black" stroke-linecap="round" stroke-linejoin="round"/>
<path d="M88.1728 62.7639H86.7745L88.1728 58.5234H86.0973L85.0391 62.7639H83.6408L84.4254 58.5234H82.3483L81.9039 62.7639H80.5071L80.6764 58.5234H78.5994L78.7702 62.7639H77.3719L76.929 58.5234H74.852L75.6366 62.7639H74.2385L73.1803 58.5234H71.103L72.5016 62.7639H71.103L70.9678 62.4175V76.178H88.3096V62.416L88.1728 62.7639Z" stroke="black" stroke-linecap="round" stroke-linejoin="round"/>
<path d="M87.7389 31.992C87.7386 32.2232 87.6468 32.4448 87.4838 32.6082C87.3208 32.7715 87.0999 32.8632 86.8696 32.863H72.4077C72.1776 32.8628 71.9571 32.771 71.7944 32.6077C71.6317 32.4444 71.5402 32.223 71.54 31.992C71.5402 31.7611 71.6317 31.5397 71.7944 31.3764C71.9571 31.2131 72.1776 31.1213 72.4077 31.1211H86.8696C87.0999 31.1209 87.3208 31.2126 87.4838 31.3759C87.6468 31.5392 87.7386 31.7609 87.7389 31.992V31.992Z" stroke="black" stroke-linecap="round" stroke-linejoin="round"/>
<path d="M86.4627 38.8682H72.8163L70.3047 35.2518L88.9746 35.25L86.4627 38.8682Z" stroke="black" stroke-linecap="round" stroke-linejoin="round"/>
<path d="M76.6028 88.9023H70.5195V139.592H76.6028V88.9023Z" stroke="black" stroke-linecap="round" stroke-linejoin="round"/>
<path d="M82.6992 88.9023H76.6143V139.592H82.6992V88.9023Z" stroke="black" stroke-linecap="round" stroke-linejoin="round"/>
<path d="M88.76 88.9023H82.6768V139.592H88.76V88.9023Z" stroke="black" stroke-linecap="round" stroke-linejoin="round"/>
<path d="M91.4948 142.652H67.7852V144.257H91.4948V142.652Z" stroke="black" stroke-linecap="round" stroke-linejoin="round"/>
<path d="M91.991 149.404H67.2881L68.5075 144.262H90.7716L91.991 149.404Z" stroke="black" stroke-linecap="round" stroke-linejoin="round"/>
<path d="M92.7271 149.402H66.5527V150.933H92.7271V149.402Z" stroke="black" stroke-linecap="round" stroke-linejoin="round"/>
<path d="M93.7149 150.934H65.5645V152.466H93.7149V150.934Z" stroke="black" stroke-linecap="round" stroke-linejoin="round"/>
<path d="M94.9881 152.465H64.29V153.998H94.9881V152.465Z" stroke="black" stroke-linecap="round" stroke-linejoin="round"/>
<path d="M86.4628 17.3203H72.8164V31.1219H86.4628V17.3203Z" stroke="black" stroke-linecap="round" stroke-linejoin="round"/>
<path d="M86.4628 32.8633H72.8164V35.2514H86.4628V32.8633Z" stroke="black" stroke-linecap="round" stroke-linejoin="round"/>
<path d="M86.4628 38.8672H72.8164V50.4069H86.4628V38.8672Z" stroke="black" stroke-linecap="round" stroke-linejoin="round"/>
<path d="M69.3964 55.892H71.5403V53.8086H11.9658V57.2091H67.9215C67.9215 56.4819 68.5825 55.892 69.3964 55.892Z" stroke="black" stroke-linecap="round" stroke-linejoin="round"/>
<path d="M67.9212 57.2109H10.3262V58.528H69.3961C68.5822 58.528 67.9212 57.9382 67.9212 57.2109Z" stroke="black" stroke-linecap="round" stroke-linejoin="round"/>
<path d="M70.9689 62.4213L70.7299 61.8164H7.7041L9.71641 65.7645H70.9689V62.4213Z" stroke="black" stroke-linecap="round" stroke-linejoin="round"/>
<path d="M67.5127 76.179H70.9685V65.7617H9.71582V77.4959H65.7675C65.7675 76.7688 66.5473 76.179 67.5127 76.179Z" stroke="black" stroke-linecap="round" stroke-linejoin="round"/>
<path d="M68.5791 78.8134H67.5128C66.5475 78.8134 65.7679 78.2234 65.7679 77.4963H8.51771C8.35812 77.4932 8.19952 77.5222 8.05119 77.5813C7.90285 77.6405 7.76776 77.7288 7.65382 77.841C7.53987 77.9532 7.44935 78.0871 7.38756 78.2348C7.32577 78.3826 7.29395 78.5412 7.29395 78.7014C7.29395 78.8617 7.32577 79.0203 7.38756 79.168C7.44935 79.3158 7.53987 79.4497 7.65382 79.5619C7.76776 79.6741 7.90285 79.7623 8.05119 79.8215C8.19952 79.8807 8.35812 79.9096 8.51771 79.9065H68.8428L68.5791 78.8134Z" stroke="black" stroke-linecap="round" stroke-linejoin="round"/>
<path d="M68.8434 79.9102H8.49414V80.9382H69.0926L68.8434 79.9102Z" stroke="black" stroke-linecap="round" stroke-linejoin="round"/>
<path d="M70.3039 88.902H69.91C69.91 87.7436 69.7471 85.1699 69.6593 83.8594H3.33079C3.33079 83.8594 3.15177 85.7189 5.30378 86.2582C5.30378 86.2582 4.40846 88.3075 6.55878 88.902C6.55878 88.902 6.20074 92.0184 8.53177 92.0184H70.3039V88.902Z" stroke="black" stroke-linecap="round" stroke-linejoin="round"/>
<path d="M173.438 152.465V150.932H172.448V149.401H171.712L170.493 144.259L171.217 144.185V142.654H170.234V141.121H169.469V139.588H168.482V92.0156H230.468V153.998H174.71V152.465H173.438Z" stroke="black" stroke-linecap="round" stroke-linejoin="round"/>
<path d="M168.697 83.8592H235.669L238 80.9375H168.697V83.8592Z" stroke="black" stroke-linecap="round" stroke-linejoin="round"/>
<path d="M228.675 83.8594H226.559V92.0184H228.675V83.8594Z" stroke="black" stroke-linecap="round" stroke-linejoin="round"/>
<path d="M222.75 83.8594H220.634V92.0184H222.75V83.8594Z" stroke="black" stroke-linecap="round" stroke-linejoin="round"/>
<path d="M216.824 83.8594H214.71V92.0184H216.824V83.8594Z" stroke="black" stroke-linecap="round" stroke-linejoin="round"/>
<path d="M210.9 83.8594H208.785V92.0184H210.9V83.8594Z" stroke="black" stroke-linecap="round" stroke-linejoin="round"/>
<path d="M204.976 83.8594H202.859V92.0184H204.976V83.8594Z" stroke="black" stroke-linecap="round" stroke-linejoin="round"/>
<path d="M199.05 83.8594H196.934V92.0184H199.05V83.8594Z" stroke="black" stroke-linecap="round" stroke-linejoin="round"/>
<path d="M193.124 83.8594H191.008V92.0184H193.124V83.8594Z" stroke="black" stroke-linecap="round" stroke-linejoin="round"/>
<path d="M187.201 83.8594H185.085V92.0184H187.201V83.8594Z" stroke="black" stroke-linecap="round" stroke-linejoin="round"/>
<path d="M181.276 83.8594H179.159V92.0184H181.276V83.8594Z" stroke="black" stroke-linecap="round" stroke-linejoin="round"/>
<path d="M175.351 83.8594H173.234V92.0184H175.351V83.8594Z" stroke="black" stroke-linecap="round" stroke-linejoin="round"/>
<path d="M209.974 92.0156H173.365V94.5092H209.974V92.0156Z" stroke="black" stroke-linecap="round" stroke-linejoin="round"/>
<path d="M208.916 94.5117H174.424V96.4268H208.916V94.5117Z" stroke="black" stroke-linecap="round" stroke-linejoin="round"/>
<path d="M207.546 96.4258H175.793V153.999H207.546V96.4258Z" stroke="black" stroke-linecap="round" stroke-linejoin="round"/>
<path d="M202.462 121.617H180.878V153.998H202.462V121.617Z" stroke="black" stroke-linecap="round" stroke-linejoin="round"/>
<path d="M205.902 121.617H203.812V124.258H205.902V121.617Z" stroke="black" stroke-linecap="round" stroke-linejoin="round"/>
<path d="M205.902 125.23H203.812V127.871H205.902V125.23Z" stroke="black" stroke-linecap="round" stroke-linejoin="round"/>
<path d="M205.902 128.844H203.812V131.483H205.902V128.844Z" stroke="black" stroke-linecap="round" stroke-linejoin="round"/>
<path d="M205.902 132.457H203.812V135.096H205.902V132.457Z" stroke="black" stroke-linecap="round" stroke-linejoin="round"/>
<path d="M205.902 136.07H203.812V138.711H205.902V136.07Z" stroke="black" stroke-linecap="round" stroke-linejoin="round"/>
<path d="M205.902 139.688H203.812V142.328H205.902V139.688Z" stroke="black" stroke-linecap="round" stroke-linejoin="round"/>
<path d="M205.902 143.301H203.812V145.941H205.902V143.301Z" stroke="black" stroke-linecap="round" stroke-linejoin="round"/>
<path d="M205.902 146.918H203.812V149.557H205.902V146.918Z" stroke="black" stroke-linecap="round" stroke-linejoin="round"/>
<path d="M205.902 150.531H203.812V153.172H205.902V150.531Z" stroke="black" stroke-linecap="round" stroke-linejoin="round"/>
<path d="M179.53 121.617H177.438V124.258H179.53V121.617Z" stroke="black" stroke-linecap="round" stroke-linejoin="round"/>
<path d="M179.53 125.23H177.438V127.871H179.53V125.23Z" stroke="black" stroke-linecap="round" stroke-linejoin="round"/>
<path d="M179.53 128.844H177.438V131.483H179.53V128.844Z" stroke="black" stroke-linecap="round" stroke-linejoin="round"/>
<path d="M179.53 132.457H177.438V135.096H179.53V132.457Z" stroke="black" stroke-linecap="round" stroke-linejoin="round"/>
<path d="M179.53 136.07H177.438V138.711H179.53V136.07Z" stroke="black" stroke-linecap="round" stroke-linejoin="round"/>
<path d="M179.53 139.688H177.438V142.328H179.53V139.688Z" stroke="black" stroke-linecap="round" stroke-linejoin="round"/>
<path d="M179.53 143.301H177.438V145.941H179.53V143.301Z" stroke="black" stroke-linecap="round" stroke-linejoin="round"/>
<path d="M179.53 146.918H177.438V149.557H179.53V146.918Z" stroke="black" stroke-linecap="round" stroke-linejoin="round"/>
<path d="M179.53 150.531H177.438V153.172H179.53V150.531Z" stroke="black" stroke-linecap="round" stroke-linejoin="round"/>
<path d="M191.671 100.715C191.756 100.707 204.976 101.586 204.976 119.147H178.365C178.365 101.586 191.585 100.707 191.671 100.715Z" stroke="black" stroke-linecap="round" stroke-linejoin="round"/>
<path d="M183.54 104.555V119.15" stroke="black" stroke-linecap="round" stroke-linejoin="round"/>
<path d="M186.949 102.148V119.153" stroke="black" stroke-linecap="round" stroke-linejoin="round"/>
<path d="M190.361 100.922V119.148" stroke="black" stroke-linecap="round" stroke-linejoin="round"/>
<path d="M193.771 101.121V119.15" stroke="black" stroke-linecap="round" stroke-linejoin="round"/>
<path d="M197.183 102.582V119.153" stroke="black" stroke-linecap="round" stroke-linejoin="round"/>
<path d="M200.594 105.379V119.153" stroke="black" stroke-linecap="round" stroke-linejoin="round"/>
<path d="M178.604 115.266H204.736" stroke="black" stroke-linecap="round" stroke-linejoin="round"/>
<path d="M179.303 111.84H204.04" stroke="black" stroke-linecap="round" stroke-linejoin="round"/>
<path d="M180.657 108.418H202.685" stroke="black" stroke-linecap="round" stroke-linejoin="round"/>
<path d="M183.102 104.992H200.238" stroke="black" stroke-linecap="round" stroke-linejoin="round"/>
<path d="M199.947 125.023H183.394V153.999H199.947V125.023Z" stroke="black" stroke-linecap="round" stroke-linejoin="round"/>
<path d="M184.423 153.997V142.671C184.423 142.26 184.586 141.865 184.875 141.574C185.165 141.284 185.558 141.12 185.968 141.12C186.225 141.121 186.477 141.188 186.702 141.313V135.445C186.7 134.741 186.837 134.043 187.105 133.392C187.372 132.741 187.765 132.149 188.26 131.651C188.756 131.152 189.344 130.757 189.992 130.487C190.64 130.217 191.335 130.078 192.036 130.078C192.738 130.078 193.432 130.217 194.08 130.487C194.728 130.757 195.317 131.152 195.813 131.651C196.308 132.149 196.701 132.741 196.968 133.392C197.236 134.043 197.372 134.741 197.371 135.445V141.12C197.781 141.12 198.174 141.283 198.464 141.574C198.754 141.865 198.917 142.259 198.917 142.671V153.997L184.423 153.997Z" stroke="black" stroke-linecap="round" stroke-linejoin="round"/>
<path d="M192.65 141.124V135.449C192.65 134.45 192.371 133.472 191.846 132.625C191.321 131.777 190.57 131.094 189.678 130.653C190.49 130.247 191.392 130.057 192.299 130.1C193.205 130.143 194.085 130.417 194.856 130.898C195.627 131.378 196.263 132.049 196.703 132.845C197.143 133.642 197.373 134.538 197.371 135.449V141.124C197.781 141.124 198.174 141.287 198.464 141.578C198.754 141.869 198.917 142.263 198.917 142.675V154H194.197V142.675C194.196 142.471 194.156 142.269 194.079 142.081C194.001 141.893 193.887 141.722 193.743 141.578C193.6 141.434 193.429 141.32 193.242 141.242C193.054 141.164 192.853 141.124 192.65 141.124V141.124Z" stroke="black" stroke-linecap="round" stroke-linejoin="round"/>
<path d="M169.568 58.5234H169.604H228.02V61.8127H168.272L169.568 58.5234Z" stroke="black" stroke-linecap="round" stroke-linejoin="round"/>
<path d="M208.785 67.9258H174.424V74.7284H208.785V67.9258Z" stroke="black" stroke-linecap="round" stroke-linejoin="round"/>
<path d="M169.47 139.59H149.255V141.123H169.47V139.59Z" stroke="black" stroke-linecap="round" stroke-linejoin="round"/>
<path d="M170.234 141.121H148.49V142.654H170.234V141.121Z" stroke="black" stroke-linecap="round" stroke-linejoin="round"/>
<path d="M150.258 83.053L149.327 78.8125H150.603L151.417 83.053H152.348L151.632 78.8125H152.908L153.507 83.053H154.439L153.934 78.8125H156.544L156.806 83.053H157.737L157.571 78.8125H158.847L158.895 83.053H159.827L159.875 78.8125H161.152L160.986 83.053H161.917L162.177 78.8125H164.788L164.284 83.053H165.215L165.814 78.8125H167.09L166.372 83.053H167.305L168.119 78.8125H169.395L168.462 83.053H169.395C169.395 83.053 169.089 87.3065 169.089 88.8979H149.633C149.633 86.7753 149.506 84.7359 149.353 83.053H150.258Z" stroke="black" stroke-linecap="round" stroke-linejoin="round"/>
<path d="M150.883 15.6597C150.883 15.8779 150.925 16.0939 151.008 16.2956C151.091 16.4972 151.213 16.6804 151.366 16.8348C151.52 16.9891 151.702 17.1116 151.903 17.1951C152.104 17.2786 152.319 17.3215 152.537 17.3215H166.184C166.402 17.3216 166.617 17.2787 166.818 17.1952C167.019 17.1117 167.202 16.9893 167.355 16.835C167.509 16.6807 167.631 16.4974 167.714 16.2958C167.797 16.0941 167.84 15.878 167.84 15.6597V15.6597C167.84 15.4413 167.797 15.2251 167.714 15.0233C167.631 14.8215 167.509 14.6381 167.356 14.4836C167.202 14.3292 167.019 14.2066 166.818 14.1229C166.617 14.0393 166.402 13.9962 166.184 13.9961H152.537C152.319 13.9962 152.104 14.0394 151.903 14.1231C151.702 14.2068 151.52 14.3294 151.366 14.4839C151.213 14.6384 151.091 14.8217 151.008 15.0235C150.925 15.2252 150.882 15.4414 150.883 15.6597V15.6597Z" stroke="black" stroke-linecap="round" stroke-linejoin="round"/>
<path d="M159.361 1C159.361 1 166.185 9.34858 166.185 12.8846V13.9941H152.537V12.8846C152.537 9.3486 159.361 1 159.361 1Z" stroke="black" stroke-linecap="round" stroke-linejoin="round"/>
<path d="M157.912 26.1903V20.1246C157.911 19.9331 157.948 19.7433 158.021 19.5661C158.093 19.389 158.2 19.2279 158.334 19.0922C158.469 18.9565 158.629 18.8488 158.805 18.7754C158.981 18.7019 159.17 18.6641 159.361 18.6641C159.552 18.6641 159.741 18.7019 159.917 18.7754C160.093 18.8488 160.253 18.9565 160.388 19.0922C160.522 19.2279 160.629 19.389 160.701 19.5661C160.774 19.7433 160.811 19.9331 160.81 20.1246V26.1903H157.912Z" stroke="black" stroke-linecap="round" stroke-linejoin="round"/>
<path d="M163.109 26.1881V20.1224C163.109 19.3184 163.52 18.668 164.028 18.668C164.535 18.668 164.947 19.3184 164.947 20.1224V26.1881H163.109Z" stroke="black" stroke-linecap="round" stroke-linejoin="round"/>
<path d="M153.777 26.1881V20.1224C153.777 19.3184 154.188 18.668 154.695 18.668C155.203 18.668 155.615 19.3184 155.615 20.1224V26.1881H153.777Z" stroke="black" stroke-linecap="round" stroke-linejoin="round"/>
<path d="M167.461 50.4062H151.261V55.8903H167.461V50.4062Z" stroke="black" stroke-linecap="round" stroke-linejoin="round"/>
<path d="M147.644 57.2077C147.644 57.9349 148.304 58.5247 149.118 58.5247H169.603C170.419 58.5247 171.078 57.9349 171.078 57.2077C171.078 56.4805 170.419 55.8906 169.603 55.8906H149.118C148.304 55.8906 147.644 56.4805 147.644 57.2077V57.2077Z" stroke="black" stroke-linecap="round" stroke-linejoin="round"/>
<path d="M145.49 77.4967C145.49 78.2239 146.272 78.8138 147.235 78.8138H171.487C172.452 78.8138 173.234 78.2238 173.234 77.4967C173.234 76.7695 172.452 76.1797 171.487 76.1797H147.235C146.272 76.1797 145.49 76.7695 145.49 77.4967H145.49Z" stroke="black" stroke-linecap="round" stroke-linejoin="round"/>
<path d="M166.497 62.7639H167.895L169.567 58.5234H167.895L166.497 62.7639Z" stroke="black" stroke-linecap="round" stroke-linejoin="round"/>
<path d="M163.364 62.7639H164.762L165.82 58.5234H164.149L163.364 62.7639Z" stroke="black" stroke-linecap="round" stroke-linejoin="round"/>
<path d="M160.23 62.7639H161.627L162.071 58.5234H160.401L160.23 62.7639Z" stroke="black" stroke-linecap="round" stroke-linejoin="round"/>
<path d="M157.096 62.7639H158.491L158.322 58.5234H156.65L157.096 62.7639Z" stroke="black" stroke-linecap="round" stroke-linejoin="round"/>
<path d="M153.962 62.7639H155.359L154.576 58.5234H152.902L153.962 62.7639Z" stroke="black" stroke-linecap="round" stroke-linejoin="round"/>
<path d="M150.828 62.7639H152.224L150.828 58.5234H149.154L150.828 62.7639Z" stroke="black" stroke-linecap="round" stroke-linejoin="round"/>
<path d="M168.463 83.0527H169.395L170.423 78.8125H169.395L168.463 83.0527Z" stroke="black" stroke-linecap="round" stroke-linejoin="round"/>
<path d="M166.374 83.0527H167.305L168.119 78.8125H167.09L166.374 83.0527Z" stroke="black" stroke-linecap="round" stroke-linejoin="round"/>
<path d="M164.284 83.0527H165.215L165.814 78.8125H164.789L164.284 83.0527Z" stroke="black" stroke-linecap="round" stroke-linejoin="round"/>
<path d="M160.985 83.0527H161.917L162.178 78.8125H161.152L160.985 83.0527Z" stroke="black" stroke-linecap="round" stroke-linejoin="round"/>
<path d="M158.897 83.0527H159.83L159.877 78.8125H158.848L158.897 83.0527Z" stroke="black" stroke-linecap="round" stroke-linejoin="round"/>
<path d="M156.806 83.0527H157.738L157.572 78.8125H156.544L156.806 83.0527Z" stroke="black" stroke-linecap="round" stroke-linejoin="round"/>
<path d="M153.507 83.0527H154.438L153.934 78.8125H152.908L153.507 83.0527Z" stroke="black" stroke-linecap="round" stroke-linejoin="round"/>
<path d="M151.417 83.0527H152.349L151.632 78.8125H150.604L151.417 83.0527Z" stroke="black" stroke-linecap="round" stroke-linejoin="round"/>
<path d="M149.326 83.0527H150.257L149.326 78.8125H148.301L149.326 83.0527Z" stroke="black" stroke-linecap="round" stroke-linejoin="round"/>
<path d="M150.828 62.7639H152.224L150.828 58.5234H152.902L153.96 62.7639H155.358L154.575 58.5234H156.651L157.095 62.7639H158.492L158.322 58.5234H160.399L160.23 62.7639H161.627L162.07 58.5234H164.147L163.364 62.7639H164.762L165.82 58.5234H167.896L166.497 62.7639H167.896L168.033 62.4175V76.178H150.689V62.416L150.828 62.7639Z" stroke="black" stroke-linecap="round" stroke-linejoin="round"/>
<path d="M151.261 31.992C151.261 32.2232 151.353 32.4448 151.516 32.6082C151.679 32.7715 151.9 32.8632 152.13 32.863H166.594C166.824 32.8628 167.044 32.771 167.207 32.6077C167.37 32.4444 167.461 32.223 167.461 31.992V31.992C167.461 31.7611 167.37 31.5397 167.207 31.3764C167.044 31.2131 166.824 31.1213 166.594 31.1211H152.13C151.9 31.1209 151.679 31.2126 151.516 31.3759C151.353 31.5392 151.261 31.7608 151.261 31.992V31.992Z" stroke="black" stroke-linecap="round" stroke-linejoin="round"/>
<path d="M152.537 38.8682H166.185L168.697 35.2518L150.027 35.25L152.537 38.8682Z" stroke="black" stroke-linecap="round" stroke-linejoin="round"/>
<path d="M168.483 88.9023H162.399V139.592H168.483V88.9023Z" stroke="black" stroke-linecap="round" stroke-linejoin="round"/>
<path d="M162.386 88.9023H156.303V139.592H162.386V88.9023Z" stroke="black" stroke-linecap="round" stroke-linejoin="round"/>
<path d="M156.324 88.9023H150.242V139.592H156.324V88.9023Z" stroke="black" stroke-linecap="round" stroke-linejoin="round"/>
<path d="M171.217 142.652H147.508V144.257H171.217V142.652Z" stroke="black" stroke-linecap="round" stroke-linejoin="round"/>
<path d="M147.011 149.404H171.712L170.492 144.262H148.228L147.011 149.404Z" stroke="black" stroke-linecap="round" stroke-linejoin="round"/>
<path d="M172.448 149.402H146.275V150.933H172.448V149.402Z" stroke="black" stroke-linecap="round" stroke-linejoin="round"/>
<path d="M173.438 150.934H145.287V152.466H173.438V150.934Z" stroke="black" stroke-linecap="round" stroke-linejoin="round"/>
<path d="M174.71 152.465H144.012V153.998H174.71V152.465Z" stroke="black" stroke-linecap="round" stroke-linejoin="round"/>
<path d="M166.185 17.3203H152.537V31.1219H166.185V17.3203Z" stroke="black" stroke-linecap="round" stroke-linejoin="round"/>
<path d="M166.185 32.8633H152.537V35.2514H166.185V32.8633Z" stroke="black" stroke-linecap="round" stroke-linejoin="round"/>
<path d="M166.185 38.8672H152.537V50.4069H166.185V38.8672Z" stroke="black" stroke-linecap="round" stroke-linejoin="round"/>
<path d="M169.604 55.892H167.462V53.8086H227.036V57.2091H171.079C171.079 56.4819 170.42 55.892 169.604 55.892Z" stroke="black" stroke-linecap="round" stroke-linejoin="round"/>
<path d="M171.079 57.2109H228.675V58.528H169.604C170.419 58.528 171.079 57.9382 171.079 57.2109Z" stroke="black" stroke-linecap="round" stroke-linejoin="round"/>
<path d="M168.032 62.4213L168.271 61.8164H231.297L229.284 65.7645H168.032V62.4213Z" stroke="black" stroke-linecap="round" stroke-linejoin="round"/>
<path d="M171.487 76.179H168.032V65.7617H229.284V77.4959H173.233C173.233 76.7688 172.452 76.179 171.487 76.179Z" stroke="black" stroke-linecap="round" stroke-linejoin="round"/>
<path d="M170.421 78.8134H171.486C172.451 78.8134 173.233 78.2234 173.233 77.4963H230.483C230.642 77.4932 230.801 77.5222 230.949 77.5813C231.098 77.6405 231.233 77.7288 231.347 77.841C231.461 77.9532 231.551 78.0871 231.613 78.2348C231.675 78.3826 231.707 78.5412 231.707 78.7014C231.707 78.8617 231.675 79.0203 231.613 79.168C231.551 79.3158 231.461 79.4497 231.347 79.5619C231.233 79.6741 231.098 79.7623 230.949 79.8215C230.801 79.8807 230.642 79.9096 230.483 79.9065H170.156L170.421 78.8134Z" stroke="black" stroke-linecap="round" stroke-linejoin="round"/>
<path d="M170.158 79.9102H230.507V80.9382H169.91L170.158 79.9102Z" stroke="black" stroke-linecap="round" stroke-linejoin="round"/>
<path d="M168.697 88.902H169.089C169.089 87.7436 169.252 85.1699 169.34 83.8594H235.669C235.669 83.8594 235.848 85.7189 233.696 86.2582C233.696 86.2582 234.593 88.3075 232.441 88.902C232.441 88.902 232.799 92.0184 230.468 92.0184H168.697V88.902Z" stroke="black" stroke-linecap="round" stroke-linejoin="round"/>
<path d="M149.632 88.9008C149.632 86.7782 149.505 84.7388 149.352 83.0559H149.326L148.688 80.4219H90.3101L89.6718 83.0559H89.6458C89.4945 84.7389 89.3675 86.7783 89.3675 88.9008H88.7588V139.59H89.747V141.123H90.5104V142.656H91.4936V144.26H90.7708L91.9902 149.403H92.7259V150.934H93.7141V152.467H94.987V153.999H97.7496C97.7496 150.934 96.0403 150.934 96.0403 150.934V121.619C97.6828 121.619 97.7641 120.38 97.7561 118.921H93.1636V116.015H95.2015C96.3605 89.3223 119.499 85.5656 119.499 85.5656C119.499 85.5656 142.637 89.3223 143.796 116.015H145.834V118.921H141.244C141.234 120.38 141.317 121.619 142.958 121.619V150.934C142.958 150.934 141.25 150.934 141.25 153.999H144.011V152.467H145.286V150.934H146.274V149.403H147.01L148.227 144.26H147.506V142.656H148.489V141.123H149.253V139.59H150.241V88.9008H149.632Z" stroke="url(#paint0_linear_3590_27156)" stroke-linecap="round" stroke-linejoin="round"/>
<path d="M95.4353 62.7656H93.2246V76.1798H95.4353V62.7656Z" stroke="black" stroke-linecap="round" stroke-linejoin="round"/>
<path d="M102.627 62.7656H100.417V76.1798H102.627V62.7656Z" stroke="black" stroke-linecap="round" stroke-linejoin="round"/>
<path d="M109.819 62.7656H107.608V76.1798H109.819V62.7656Z" stroke="black" stroke-linecap="round" stroke-linejoin="round"/>
<path d="M117.011 62.7656H114.799V76.1798H117.011V62.7656Z" stroke="black" stroke-linecap="round" stroke-linejoin="round"/>
<path d="M124.201 62.7656H121.99V76.1798H124.201V62.7656Z" stroke="black" stroke-linecap="round" stroke-linejoin="round"/>
<path d="M131.393 62.7656H129.183V76.1798H131.393V62.7656Z" stroke="black" stroke-linecap="round" stroke-linejoin="round"/>
<path d="M138.585 62.7656H136.374V76.1798H138.585V62.7656Z" stroke="black" stroke-linecap="round" stroke-linejoin="round"/>
<path d="M145.778 62.7656H143.565V76.1798H145.778V62.7656Z" stroke="black" stroke-linecap="round" stroke-linejoin="round"/>
<path d="M93.1641 116.012H99.4393C99.4393 116.012 99.5289 117.513 98.6417 117.513C98.6417 117.513 98.8908 118.917 97.893 118.917H93.1641V116.012Z" stroke="url(#paint1_linear_3590_27156)" stroke-linecap="round" stroke-linejoin="round"/>
<path d="M145.836 116.012H139.561C139.561 116.012 139.473 117.513 140.359 117.513C140.359 117.513 140.11 118.917 141.107 118.917H145.836V116.012Z" stroke="url(#paint2_linear_3590_27156)" stroke-linecap="round" stroke-linejoin="round"/>
<path d="M143.797 116.016C142.638 89.3231 119.5 85.5664 119.5 85.5664C119.5 85.5664 96.3612 89.3231 95.2021 116.016H97.8067C98.9967 92.2548 119.5 88.9015 119.5 88.9015C119.5 88.9015 140.004 92.2548 141.194 116.016H143.797Z" stroke="url(#paint3_linear_3590_27156)" stroke-linecap="round" stroke-linejoin="round"/>
<path d="M102.073 87.6569C102.073 88.1744 101.92 88.6803 101.634 89.1105C101.347 89.5407 100.94 89.876 100.464 90.0739C99.9873 90.2719 99.4632 90.3237 98.9575 90.2227C98.4519 90.1217 97.9875 89.8724 97.623 89.5065C97.2584 89.1406 97.0101 88.6744 96.9095 88.1668C96.8089 87.6592 96.8604 87.1331 97.0577 86.655C97.2549 86.1768 97.5889 85.7681 98.0174 85.4805C98.446 85.1929 98.9499 85.0392 99.4654 85.0391C100.157 85.0392 100.82 85.315 101.309 85.806C101.798 86.2969 102.073 86.9627 102.073 87.6569V87.6569Z" stroke="url(#paint4_linear_3590_27156)" stroke-linecap="round" stroke-linejoin="round"/>
<path d="M100.729 87.6588C100.729 87.9094 100.655 88.1542 100.516 88.3625C100.377 88.5708 100.18 88.7331 99.9492 88.8289C99.7186 88.9247 99.4648 88.9497 99.22 88.9008C98.9752 88.8518 98.7504 88.7312 98.5739 88.554C98.3974 88.3768 98.2771 88.1511 98.2284 87.9053C98.1797 87.6596 98.2046 87.4049 98.3 87.1733C98.3955 86.9418 98.5571 86.7439 98.7646 86.6046C98.9721 86.4653 99.216 86.3908 99.4656 86.3906C99.8007 86.3907 100.122 86.5243 100.359 86.7621C100.596 86.9999 100.729 87.3225 100.729 87.6588Z" stroke="url(#paint5_linear_3590_27156)" stroke-linecap="round" stroke-linejoin="round"/>
<path d="M142.142 87.6569C142.142 88.1747 141.989 88.6808 141.703 89.1113C141.416 89.5418 141.009 89.8773 140.532 90.0754C140.056 90.2735 139.532 90.3253 139.026 90.2243C138.52 90.1233 138.055 89.874 137.691 89.5079C137.326 89.1418 137.077 88.6753 136.977 88.1675C136.876 87.6597 136.928 87.1333 137.125 86.655C137.323 86.1767 137.657 85.7678 138.086 85.4802C138.515 85.1926 139.019 85.039 139.535 85.0391C140.226 85.0392 140.889 85.3151 141.378 85.806C141.867 86.2969 142.142 86.9627 142.142 87.6569V87.6569Z" stroke="url(#paint6_linear_3590_27156)" stroke-linecap="round" stroke-linejoin="round"/>
<path d="M140.798 87.6588C140.798 87.9096 140.724 88.1548 140.585 88.3633C140.446 88.5718 140.249 88.7344 140.018 88.8303C139.787 88.9263 139.533 88.9514 139.288 88.9024C139.043 88.8535 138.818 88.7327 138.641 88.5554C138.465 88.378 138.344 88.152 138.296 87.906C138.247 87.66 138.272 87.4051 138.368 87.1734C138.463 86.9417 138.625 86.7436 138.833 86.6043C139.041 86.465 139.285 86.3906 139.535 86.3906C139.87 86.3907 140.191 86.5243 140.428 86.7621C140.665 86.9999 140.798 87.3225 140.798 87.6588V87.6588Z" stroke="url(#paint7_linear_3590_27156)" stroke-linecap="round" stroke-linejoin="round"/>
<path d="M152.537 32.86H152.13C152.016 32.8607 151.903 32.8386 151.797 32.7951C151.691 32.7516 151.595 32.6876 151.514 32.6066C151.433 32.5257 151.368 32.4295 151.324 32.3235C151.281 32.2175 151.258 32.1039 151.258 31.9891C151.258 31.8743 151.281 31.7607 151.324 31.6547C151.368 31.5487 151.433 31.4525 151.514 31.3715C151.595 31.2906 151.691 31.2265 151.797 31.1831C151.903 31.1396 152.016 31.1175 152.13 31.1181H152.537V27.3711H86.4629V31.1181H86.8698C86.9841 31.1175 87.0975 31.1396 87.2033 31.1831C87.3091 31.2265 87.4053 31.2906 87.4864 31.3715C87.5675 31.4525 87.6318 31.5487 87.6757 31.6547C87.7196 31.7607 87.7422 31.8743 87.7422 31.9891C87.7422 32.1039 87.7196 32.2175 87.6757 32.3235C87.6318 32.4295 87.5675 32.5257 87.4864 32.6066C87.4053 32.6876 87.3091 32.7516 87.2033 32.7951C87.0975 32.8386 86.9841 32.8607 86.8698 32.86H86.4629V34.0546H152.537V32.86Z" stroke="black" stroke-linecap="round" stroke-linejoin="round"/>
<path d="M151.281 37.0602L150.085 35.2511H152.536V34.0586H87.541V35.2511H88.9737L87.7168 37.0602H151.281Z" stroke="black" stroke-linecap="round" stroke-linejoin="round"/>
<path d="M89.8812 58.5256H149.119C148.305 58.5256 147.644 57.9358 147.644 57.2086C147.644 56.4813 148.305 55.8915 149.119 55.8915H151.261V50.4074H152.537V38.8677L151.282 37.0586H87.7179L86.4629 38.8677V50.4074H87.7391V55.8915H89.8812C90.6952 55.8915 91.3561 56.4814 91.3561 57.2086C91.3561 57.9358 90.6952 58.5256 89.8812 58.5256Z" stroke="black" stroke-linecap="round" stroke-linejoin="round"/>
<path d="M150.69 76.1797V62.7656H88.3105V76.1797H91.7664H147.235H150.69Z" stroke="black" stroke-linecap="round" stroke-linejoin="round"/>
<path d="M150.69 62.7639V62.416L150.828 62.7639L149.155 58.5234H149.119H89.8813H89.847L88.1738 62.7639L88.3106 62.416V62.7639H150.69Z" stroke="black" stroke-linecap="round" stroke-linejoin="round"/>
<path d="M148.301 78.8138H147.235C146.272 78.8138 145.49 78.2238 145.49 77.4967C145.49 76.7697 146.272 76.1797 147.235 76.1797H91.7661C92.7298 76.1797 93.5111 76.7695 93.5111 77.4967C93.5111 78.224 92.7297 78.8138 91.7661 78.8138H90.6999L90.6494 79.0263H148.352L148.301 78.8138Z" stroke="url(#paint8_linear_3590_27156)" stroke-linecap="round" stroke-linejoin="round"/>
<path d="M148.352 78.9961H90.6491L90.3105 80.4193H148.688L148.352 78.9961Z" stroke="url(#paint9_linear_3590_27156)" stroke-linecap="round" stroke-linejoin="round"/>
<path d="M97.7499 154.001C97.7499 150.935 96.0406 150.935 96.0406 150.935V121.62C97.683 121.62 97.7644 120.381 97.7564 118.922H93.1641V150.935H93.4879V152.468H94.761V154.001H97.7499Z" stroke="url(#paint10_linear_3590_27156)" stroke-linecap="round" stroke-linejoin="round"/>
<path d="M141.244 118.922C141.234 120.381 141.317 121.62 142.958 121.62V150.935C142.958 150.935 141.25 150.935 141.25 154.001H143.785V152.468H145.058V150.935H145.834V118.922H141.244Z" stroke="url(#paint11_linear_3590_27156)" stroke-linecap="round" stroke-linejoin="round"/>
<path d="M93.1641 82.3984V116.017H95.202C96.361 89.3237 119.499 85.567 119.499 85.567C119.499 85.567 142.638 89.3237 143.797 116.017H145.835V82.3984H93.1641Z" stroke="url(#paint12_linear_3590_27156)" stroke-linecap="round" stroke-linejoin="round"/>
<defs>
<linearGradient id="paint0_linear_3590_27156" x1="119.5" y1="80.4219" x2="119.5" y2="153.999" gradientUnits="userSpaceOnUse">
<stop offset="0.293022" stop-color="#CF9615"/>
<stop offset="1" stop-color="#F1CD39"/>
</linearGradient>
<linearGradient id="paint1_linear_3590_27156" x1="96.303" y1="116.012" x2="96.303" y2="118.917" gradientUnits="userSpaceOnUse">
<stop offset="0.293022" stop-color="#CF9615"/>
<stop offset="1" stop-color="#F1CD39"/>
</linearGradient>
<linearGradient id="paint2_linear_3590_27156" x1="142.697" y1="116.012" x2="142.697" y2="118.917" gradientUnits="userSpaceOnUse">
<stop offset="0.293022" stop-color="#CF9615"/>
<stop offset="1" stop-color="#F1CD39"/>
</linearGradient>
<linearGradient id="paint3_linear_3590_27156" x1="119.5" y1="85.5664" x2="119.5" y2="116.016" gradientUnits="userSpaceOnUse">
<stop offset="0.293022" stop-color="#CF9615"/>
<stop offset="1" stop-color="#F1CD39"/>
</linearGradient>
<linearGradient id="paint4_linear_3590_27156" x1="99.4664" y1="85.0391" x2="99.4664" y2="90.273" gradientUnits="userSpaceOnUse">
<stop offset="0.293022" stop-color="#CF9615"/>
<stop offset="1" stop-color="#F1CD39"/>
</linearGradient>
<linearGradient id="paint5_linear_3590_27156" x1="99.4665" y1="86.3906" x2="99.4665" y2="88.9252" gradientUnits="userSpaceOnUse">
<stop offset="0.293022" stop-color="#CF9615"/>
<stop offset="1" stop-color="#F1CD39"/>
</linearGradient>
<linearGradient id="paint6_linear_3590_27156" x1="139.535" y1="85.0391" x2="139.535" y2="90.2746" gradientUnits="userSpaceOnUse">
<stop offset="0.293022" stop-color="#CF9615"/>
<stop offset="1" stop-color="#F1CD39"/>
</linearGradient>
<linearGradient id="paint7_linear_3590_27156" x1="139.535" y1="86.3906" x2="139.535" y2="88.9268" gradientUnits="userSpaceOnUse">
<stop offset="0.293022" stop-color="#CF9615"/>
<stop offset="1" stop-color="#F1CD39"/>
</linearGradient>
<linearGradient id="paint8_linear_3590_27156" x1="119.501" y1="76.1797" x2="119.501" y2="79.0263" gradientUnits="userSpaceOnUse">
<stop offset="0.293022" stop-color="#CF9615"/>
<stop offset="1" stop-color="#F1CD39"/>
</linearGradient>
<linearGradient id="paint9_linear_3590_27156" x1="119.499" y1="78.9961" x2="119.499" y2="80.4193" gradientUnits="userSpaceOnUse">
<stop offset="0.293022" stop-color="#CF9615"/>
<stop offset="1" stop-color="#F1CD39"/>
</linearGradient>
<linearGradient id="paint10_linear_3590_27156" x1="95.4604" y1="118.922" x2="95.4604" y2="154.001" gradientUnits="userSpaceOnUse">
<stop offset="0.293022" stop-color="#CF9615"/>
<stop offset="1" stop-color="#F1CD39"/>
</linearGradient>
<linearGradient id="paint11_linear_3590_27156" x1="143.539" y1="118.922" x2="143.539" y2="154.001" gradientUnits="userSpaceOnUse">
<stop offset="0.293022" stop-color="#CF9615"/>
<stop offset="1" stop-color="#F1CD39"/>
</linearGradient>
<linearGradient id="paint12_linear_3590_27156" x1="119.499" y1="82.3984" x2="119.499" y2="116.017" gradientUnits="userSpaceOnUse">
<stop offset="0.293022" stop-color="#CF9615"/>
<stop offset="1" stop-color="#F1CD39"/>
</linearGradient>
</defs>
</svg>
