<svg width="36" height="36" viewBox="0 0 36 36" fill="none" xmlns="http://www.w3.org/2000/svg">
<g clip-path="url(#clip0_3627_28526)">
<path d="M36 18C36 8.05887 27.9411 0 18 0C8.05887 0 0 8.05887 0 18C0 27.9411 8.05887 36 18 36C27.9411 36 36 27.9411 36 18Z" fill="#0077B5"/>
<path d="M9.27142 6.48047C7.72963 6.48047 6.48047 7.73248 6.48047 9.2771C6.48047 10.8217 7.72963 12.0737 9.27142 12.0737C10.8132 12.0737 12.0624 10.8217 12.0624 9.2771C12.0624 7.73248 10.8132 6.48047 9.27142 6.48047ZM23.8893 13.7619V13.7638C23.5741 13.7627 23.2682 13.7753 22.868 13.796C21.9904 13.8415 19.9408 14.7924 19.1904 16.3104C19.1904 15.6513 19.1979 15.046 19.1979 14.1428C18.299 14.1428 17.1226 14.1485 14.6657 14.1485C14.6657 16.9066 14.6354 26.6744 14.6354 29.5205H19.3931C19.3931 27.8321 19.4158 23.5911 19.4158 20.9278C19.4158 20.0336 19.9564 17.9683 22.1746 17.9683C24.1887 17.9683 24.7533 19.6658 24.7533 20.9278C24.7533 23.7015 24.7325 27.6221 24.7325 29.5205H29.5186C29.5186 27.6649 29.5356 22.6244 29.4788 19.4443C29.4098 15.583 27.0644 13.9355 24.9598 13.8055C24.5268 13.7788 24.2045 13.7631 23.8893 13.7619V13.7619ZM6.88215 14.2091V29.5129H11.6531V14.2091H6.88215Z" fill="white"/>
</g>
<defs>
<clipPath id="clip0_3627_28526">
<rect width="36" height="36" fill="white"/>
</clipPath>
</defs>
</svg>
