<svg width="27" height="23" viewBox="0 0 27 23" fill="none" xmlns="http://www.w3.org/2000/svg">
<path d="M27.0005 5.875L20.5654 11.2512V22.9811H25.0815C25.5749 22.9865 26.0508 22.7739 26.4089 22.3881C26.7669 22.0023 26.979 21.4735 27.0005 20.9134V5.875Z" fill="#4CAF50"/>
<path d="M0 5.875L6.41848 11.2888V22.9999H1.91893C1.42279 23.0052 0.944476 22.7899 0.585996 22.4001C0.227516 22.0103 0.0172363 21.4768 0 20.9134V5.875Z" fill="#1E88E5"/>
<path d="M20.5628 2.28125L13.4992 8.2026L6.43555 2.28125V11.2479L13.4992 17.1692L20.5628 11.2479V2.28125Z" fill="#E53935"/>
<path d="M0 3.08309V5.86519L6.41848 11.279V2.29358L4.41684 0.62056C3.93873 0.216469 3.35845 -0.00113015 2.76259 0.000228555C2.40276 -0.0047354 2.04562 0.0712038 1.71171 0.223677C1.37781 0.376151 1.07373 0.602149 0.816977 0.888668C0.560224 1.17519 0.355864 1.51657 0.215654 1.89318C0.0754449 2.26978 0.00215444 2.67418 0 3.08309Z" fill="#C62828"/>
<path d="M27.0005 3.08309V5.86519L20.5654 11.2414V2.29358L22.5836 0.62056C23.0617 0.216469 23.642 -0.00113015 24.2379 0.000228555C24.5977 -0.0047354 24.9548 0.0712038 25.2887 0.223677C25.6226 0.376151 25.9267 0.602149 26.1835 0.888668C26.4402 1.17519 26.6446 1.51657 26.7848 1.89318C26.925 2.26978 26.9983 2.67418 27.0005 3.08309Z" fill="#FBC02D"/>
</svg>
