<svg width="36" height="36" viewBox="0 0 36 36" fill="none" xmlns="http://www.w3.org/2000/svg">
<g clip-path="url(#clip0_3627_28529)">
<path d="M18 0C27.9396 0 36 8.0604 36 18C36 27.9396 27.9396 36 18 36C8.0604 36 0 27.9396 0 18C0 8.0604 8.0604 0 18 0Z" fill="#1DA1F2"/>
<path d="M13.8236 27.1437C22.3124 27.1437 26.96 20.1093 26.96 14.0073C26.96 13.8093 26.96 13.6077 26.9456 13.4097C27.8492 12.7545 28.6304 11.9481 29.2496 11.0193C28.4072 11.3937 27.5144 11.6385 26.6 11.7465C27.5648 11.1705 28.2848 10.2633 28.6304 9.19414C27.7232 9.73054 26.7332 10.1121 25.7 10.3137C23.9504 8.45614 21.0272 8.36614 19.1696 10.1121C17.9708 11.2389 17.4632 12.9201 17.834 14.5221C14.1224 14.3349 10.6628 12.5817 8.31924 9.69814C7.09524 11.8077 7.71804 14.5041 9.74844 15.8613C9.01404 15.8397 8.29404 15.6417 7.65324 15.2853C7.65324 15.3033 7.65324 15.3249 7.65324 15.3429C7.65324 17.5389 9.20124 19.4325 11.3576 19.8681C10.6772 20.0517 9.96444 20.0805 9.27324 19.9473C9.87804 21.8265 11.6096 23.1153 13.586 23.1549C11.9516 24.4401 9.93204 25.1385 7.85484 25.1349C7.48764 25.1349 7.12044 25.1133 6.75684 25.0665C8.85924 26.4237 11.318 27.1437 13.8236 27.1401" fill="white"/>
</g>
<defs>
<clipPath id="clip0_3627_28529">
<rect width="36" height="36" fill="white"/>
</clipPath>
</defs>
</svg>
