<svg width="263" height="212" viewBox="0 0 263 212" fill="none" xmlns="http://www.w3.org/2000/svg">
<path d="M85.207 210.133V106H112.879V210.133H85.207Z" stroke="black"/>
<path d="M102.315 210.133V106H112.879V210.133H102.315Z" stroke="black"/>
<path d="M86.5176 210.135V109.547H86.8009V210.135H86.5176Z" stroke="black"/>
<path d="M89.2031 210.135V109.547H89.4862V210.135H89.2031Z" stroke="black"/>
<path d="M91.8867 210.135V109.547H92.1698V210.135H91.8867Z" stroke="black"/>
<path d="M94.5713 210.135V109.547H94.8544V210.135H94.5713Z" stroke="black"/>
<path d="M97.2568 210.135V109.547H97.5399V210.135H97.2568Z" stroke="black"/>
<path d="M99.9414 210.135V109.547H100.225V210.135H99.9414Z" stroke="black"/>
<path d="M103.429 210.135V109.547H103.712V210.135H103.429Z" stroke="black"/>
<path d="M106.113 210.135V109.547H106.396V210.135H106.113Z" stroke="black"/>
<path d="M108.797 210.135V109.547H109.08V210.135H108.797Z" stroke="black"/>
<path d="M111.482 210.135V109.547H111.766V210.135H111.482Z" stroke="black"/>
<path d="M88.0947 105.002V104.312H91.9927V105.002H88.0947Z" stroke="black"/>
<path d="M95.2129 105.002V104.312H99.1108V105.002H95.2129Z" stroke="black"/>
<path d="M0 210.695H118.412V210.695H0V210.695Z" stroke="black"/>
<path d="M150.292 210.695H262.935V210.695H150.292V210.695Z" stroke="black"/>
<path d="M240.968 210.137V141.883H255.936V210.137H240.968Z" stroke="black"/>
<path d="M256.937 210.137V141.883H262.5V210.137H256.937Z" stroke="black"/>
<path d="M240.968 146.326V145.531H262.499V146.326H240.968Z" stroke="black"/>
<path d="M240.968 150.635V149.84H262.499V150.635H240.968Z" stroke="black"/>
<path d="M240.968 154.947V154.152H262.499V154.947H240.968Z" stroke="black"/>
<path d="M240.968 159.252V158.457H262.499V159.252H240.968Z" stroke="black"/>
<path d="M240.968 163.561V162.766H262.499V163.561H240.968Z" stroke="black"/>
<path d="M240.968 167.869V167.074H262.499V167.869H240.968Z" stroke="black"/>
<path d="M240.968 172.178V171.383H262.499V172.178H240.968Z" stroke="black"/>
<path d="M240.968 176.487V175.691H262.499V176.487H240.968Z" stroke="black"/>
<path d="M240.968 180.795V180H262.499V180.795H240.968Z" stroke="black"/>
<path d="M240.968 185.104V184.309H262.499V185.104H240.968Z" stroke="black"/>
<path d="M240.968 189.412V188.617H262.499V189.412H240.968Z" stroke="black"/>
<path d="M240.968 193.721V192.926H262.499V193.721H240.968Z" stroke="black"/>
<path d="M240.968 198.03V197.234H262.499V198.03H240.968Z" stroke="black"/>
<path d="M240.968 202.334V201.539H262.499V202.334H240.968Z" stroke="black"/>
<path d="M240.968 206.647V205.852H262.499V206.647H240.968Z" stroke="black"/>
<path d="M133.935 75.1849H127.92V42.6914L133.935 43.8098V75.1849Z" stroke="url(#paint0_linear_4116_21872)"/>
<path d="M125.744 42.2408V15.6562H130.429V42.2408H125.744Z" stroke="url(#paint1_linear_4116_21872)"/>
<path d="M127.921 42.2408V15.6562H130.428V42.2408H127.921Z" stroke="url(#paint2_linear_4116_21872)"/>
<path d="M126.92 62.5827H123.566V37.6923L126.92 36.7991V62.5827Z" stroke="url(#paint3_linear_4116_21872)"/>
<path d="M131.272 210.498H123.467V57.3129C124.338 56.9025 125.763 56.5164 127.259 56.3572C128.792 56.194 130.278 56.2829 131.272 56.7326V210.498Z" stroke="url(#paint4_linear_4116_21872)"/>
<path d="M127.312 56.2086C128.827 56.0457 130.294 56.1345 131.275 56.582V59.5076C128.698 59.2088 126.088 59.3663 123.566 59.9725V57.1615C124.428 56.7524 125.834 56.3674 127.312 56.2086Z" stroke="url(#paint5_linear_4116_21872)"/>
<path d="M127.312 84.5914C128.827 84.4286 130.294 84.5174 131.275 84.9648V87.8906C128.698 87.5919 126.088 87.7493 123.566 88.3553V85.5442C124.428 85.1352 125.834 84.7502 127.312 84.5914Z" stroke="url(#paint6_linear_4116_21872)"/>
<path d="M136.736 76.8384V210.499H132.271V75.0877C133.917 75.1705 135.489 75.7862 136.736 76.8384Z" stroke="url(#paint7_linear_4116_21872)"/>
<path d="M132.274 87.967V85.0962C133.866 85.1814 135.388 85.793 136.596 86.838V89.4435C135.328 88.5543 133.83 88.0401 132.274 87.967Z" stroke="url(#paint8_linear_4116_21872)"/>
<path d="M132.274 129.983V127.112C133.866 127.197 135.388 127.809 136.596 128.854V131.459C135.328 130.57 133.83 130.056 132.274 129.983Z" stroke="url(#paint9_linear_4116_21872)"/>
<path d="M140.987 118.932V210.497H137.736V117.242C138.299 117.301 138.849 117.456 139.364 117.702C139.98 117.997 140.532 118.415 140.987 118.932Z" stroke="url(#paint10_linear_4116_21872)"/>
<path d="M145.238 155.916V210.496H141.987V154.226C142.55 154.285 143.1 154.441 143.615 154.687C144.231 154.981 144.782 155.399 145.238 155.916Z" stroke="url(#paint11_linear_4116_21872)"/>
<path d="M149.793 186.841V210.5H146.238V185.148C146.864 185.204 147.476 185.362 148.047 185.616C148.711 185.91 149.304 186.328 149.793 186.841Z" stroke="url(#paint12_linear_4116_21872)"/>
<path d="M129.146 210.499H122.556V104.585C123.294 104.185 124.5 103.806 125.771 103.649C127.076 103.488 128.319 103.578 129.146 104.005V210.499Z" stroke="url(#paint13_linear_4116_21872)"/>
<path d="M127.02 210.497H121.341V143.674C121.979 143.282 123.024 142.909 124.126 142.754C125.258 142.595 126.318 142.685 127.02 143.094V210.497Z" stroke="url(#paint14_linear_4116_21872)"/>
<path d="M124.592 210.497H118.912V177.024C119.551 176.631 120.595 176.257 121.697 176.101C122.83 175.942 123.889 176.032 124.592 176.442V210.497Z" stroke="url(#paint15_linear_4116_21872)"/>
<mask id="path-50-inside-1_4116_21872" fill="white">
<path d="M128.52 0H127.651V15.1558H128.52V0Z"/>
</mask>
<path d="M127.651 0V-1H126.651V0H127.651ZM128.52 0H129.52V-1H128.52V0ZM128.52 15.1558V16.1558H129.52V15.1558H128.52ZM127.651 15.1558H126.651V16.1558H127.651V15.1558ZM127.651 1H128.52V-1H127.651V1ZM127.52 0V15.1558H129.52V0H127.52ZM128.52 14.1558H127.651V16.1558H128.52V14.1558ZM128.651 15.1558V0H126.651V15.1558H128.651Z" fill="url(#paint16_linear_4116_21872)" mask="url(#path-50-inside-1_4116_21872)"/>
<path d="M125.804 126.438C127.114 126.277 128.363 126.367 129.195 126.794V129.729C126.98 129.446 124.731 129.6 122.575 130.181V127.373C123.317 126.974 124.528 126.595 125.804 126.438Z" stroke="url(#paint17_linear_4116_21872)"/>
<path d="M131.275 127.077V129.929L130.193 129.845V127.03L131.275 127.077Z" stroke="url(#paint18_linear_4116_21872)"/>
<path d="M132.274 167.74V164.87C133.866 164.955 135.388 165.566 136.596 166.612V169.217C135.328 168.328 133.83 167.814 132.274 167.74Z" stroke="url(#paint19_linear_4116_21872)"/>
<path d="M144.062 170.341C143.396 170.03 142.68 169.841 141.95 169.78V166.912C142.534 166.97 143.106 167.126 143.64 167.375C144.272 167.669 144.838 168.087 145.304 168.602V171.108C144.923 170.805 144.506 170.547 144.062 170.341Z" stroke="url(#paint20_linear_4116_21872)"/>
<path d="M139.708 132.571C139.041 132.261 138.326 132.071 137.596 132.011V129.143C138.18 129.201 138.751 129.357 139.286 129.606C139.918 129.9 140.483 130.317 140.95 130.832V133.339C140.569 133.036 140.152 132.778 139.708 132.571Z" stroke="url(#paint21_linear_4116_21872)"/>
<path d="M124.028 164.199C125.159 164.04 126.218 164.13 126.92 164.537V167.481C125.018 167.216 123.082 167.365 121.244 167.918V165.116C121.882 164.726 122.926 164.353 124.028 164.199Z" stroke="url(#paint22_linear_4116_21872)"/>
<path d="M130.194 167.731V164.859H131.275V167.731H130.194Z" stroke="url(#paint23_linear_4116_21872)"/>
<path d="M129.194 164.836V167.706L127.92 167.655V164.786L129.194 164.836Z" stroke="url(#paint24_linear_4116_21872)"/>
<path d="M137.597 169.758V166.887H140.951V169.758H137.597Z" stroke="url(#paint25_linear_4116_21872)"/>
<path d="M133.934 43.8049V75.1799H132.274V43.4961L133.934 43.8049Z" stroke="url(#paint26_linear_4116_21872)"/>
<path d="M133.935 59.8807C133.393 59.7296 132.836 59.6336 132.274 59.5943V56.7941C132.838 56.8356 133.394 56.9386 133.935 57.1014V59.8807Z" stroke="url(#paint27_linear_4116_21872)"/>
<path d="M179.503 210.136H159.79V114.488L179.503 94.3468V210.136Z" stroke="black"/>
<path d="M161.725 210.135V118.891H161.848V210.135H161.725Z" stroke="black"/>
<path d="M164.344 210.135V118.891H164.468V210.135H164.344Z" stroke="black"/>
<path d="M166.965 210.135V118.891H167.089V210.135H166.965Z" stroke="black"/>
<path d="M169.585 210.135V118.891H169.709V210.135H169.585Z" stroke="black"/>
<path d="M172.205 210.135V118.891H172.329V210.135H172.205Z" stroke="black"/>
<path d="M174.826 210.135V118.891H174.95V210.135H174.826Z" stroke="black"/>
<path d="M177.445 210.135V118.891H177.569V210.135H177.445Z" stroke="black"/>
<path d="M179.218 86.8909L179.379 86.7424V86.5236V77.5938H179.502V92.9178L176.446 96.0399V89.4509L179.218 86.8909Z" stroke="black"/>
<path d="M214.865 113.472L231.206 130.168V210.136H214.865V113.472Z" stroke="black"/>
<mask id="path-73-inside-2_4116_21872" fill="white">
<path d="M229.147 210.641H230.088V133.408H229.147V210.641Z"/>
</mask>
<path d="M230.088 210.641V211.641H231.088V210.641H230.088ZM229.147 210.641H228.147V211.641H229.147V210.641ZM229.147 133.408V132.408H228.147V133.408H229.147ZM230.088 133.408H231.088V132.408H230.088V133.408ZM230.088 209.641H229.147V211.641H230.088V209.641ZM230.147 210.641V133.408H228.147V210.641H230.147ZM229.147 134.408H230.088V132.408H229.147V134.408ZM229.088 133.408V210.641H231.088V133.408H229.088Z" fill="black" mask="url(#path-73-inside-2_4116_21872)"/>
<mask id="path-75-inside-3_4116_21872" fill="white">
<path d="M226.953 210.641H227.895V133.408H226.953V210.641Z"/>
</mask>
<path d="M227.895 210.641V211.641H228.895V210.641H227.895ZM226.953 210.641H225.953V211.641H226.953V210.641ZM226.953 133.408V132.408H225.953V133.408H226.953ZM227.895 133.408H228.895V132.408H227.895V133.408ZM227.895 209.641H226.953V211.641H227.895V209.641ZM227.953 210.641V133.408H225.953V210.641H227.953ZM226.953 134.408H227.895V132.408H226.953V134.408ZM226.895 133.408V210.641H228.895V133.408H226.895Z" fill="black" mask="url(#path-75-inside-3_4116_21872)"/>
<mask id="path-77-inside-4_4116_21872" fill="white">
<path d="M224.759 210.641H225.7V133.408H224.759V210.641Z"/>
</mask>
<path d="M225.7 210.641V211.641H226.7V210.641H225.7ZM224.759 210.641H223.759V211.641H224.759V210.641ZM224.759 133.408V132.408H223.759V133.408H224.759ZM225.7 133.408H226.7V132.408H225.7V133.408ZM225.7 209.641H224.759V211.641H225.7V209.641ZM225.759 210.641V133.408H223.759V210.641H225.759ZM224.759 134.408H225.7V132.408H224.759V134.408ZM224.7 133.408V210.641H226.7V133.408H224.7Z" fill="black" mask="url(#path-77-inside-4_4116_21872)"/>
<mask id="path-79-inside-5_4116_21872" fill="white">
<path d="M222.565 210.641H223.506V133.408H222.565V210.641Z"/>
</mask>
<path d="M223.506 210.641V211.641H224.506V210.641H223.506ZM222.565 210.641H221.565V211.641H222.565V210.641ZM222.565 133.408V132.408H221.565V133.408H222.565ZM223.506 133.408H224.506V132.408H223.506V133.408ZM223.506 209.641H222.565V211.641H223.506V209.641ZM223.565 210.641V133.408H221.565V210.641H223.565ZM222.565 134.408H223.506V132.408H222.565V134.408ZM222.506 133.408V210.641H224.506V133.408H222.506Z" fill="black" mask="url(#path-79-inside-5_4116_21872)"/>
<mask id="path-81-inside-6_4116_21872" fill="white">
<path d="M220.371 210.641H221.312V133.408H220.371V210.641Z"/>
</mask>
<path d="M221.312 210.641V211.641H222.312V210.641H221.312ZM220.371 210.641H219.371V211.641H220.371V210.641ZM220.371 133.408V132.408H219.371V133.408H220.371ZM221.312 133.408H222.312V132.408H221.312V133.408ZM221.312 209.641H220.371V211.641H221.312V209.641ZM221.371 210.641V133.408H219.371V210.641H221.371ZM220.371 134.408H221.312V132.408H220.371V134.408ZM220.312 133.408V210.641H222.312V133.408H220.312Z" fill="black" mask="url(#path-81-inside-6_4116_21872)"/>
<mask id="path-83-inside-7_4116_21872" fill="white">
<path d="M218.178 210.641H219.119V133.408H218.178V210.641Z"/>
</mask>
<path d="M219.119 210.641V211.641H220.119V210.641H219.119ZM218.178 210.641H217.178V211.641H218.178V210.641ZM218.178 133.408V132.408H217.178V133.408H218.178ZM219.119 133.408H220.119V132.408H219.119V133.408ZM219.119 209.641H218.178V211.641H219.119V209.641ZM219.178 210.641V133.408H217.178V210.641H219.178ZM218.178 134.408H219.119V132.408H218.178V134.408ZM218.119 133.408V210.641H220.119V133.408H218.119Z" fill="black" mask="url(#path-83-inside-7_4116_21872)"/>
<mask id="path-85-inside-8_4116_21872" fill="white">
<path d="M215.984 210.641H216.925V133.408H215.984V210.641Z"/>
</mask>
<path d="M216.925 210.641V211.641H217.925V210.641H216.925ZM215.984 210.641H214.984V211.641H215.984V210.641ZM215.984 133.408V132.408H214.984V133.408H215.984ZM216.925 133.408H217.925V132.408H216.925V133.408ZM216.925 209.641H215.984V211.641H216.925V209.641ZM216.984 210.641V133.408H214.984V210.641H216.984ZM215.984 134.408H216.925V132.408H215.984V134.408ZM215.925 133.408V210.641H217.925V133.408H215.925Z" fill="black" mask="url(#path-85-inside-8_4116_21872)"/>
<path d="M217.26 109.208V114.489L214.865 112.043V106.996L214.967 107.09L217.26 109.208Z" stroke="black"/>
<path d="M185.782 129.434H199.225C201.609 135.296 204.701 147.844 207.216 161.476C209.731 175.113 211.655 189.764 211.718 199.787H185.782V129.434Z" stroke="black"/>
<path d="M188.974 129.434H199.223C201.291 134.517 203.892 144.633 206.188 156.134C208.487 167.652 210.47 180.511 211.301 191.006C209.165 190.791 207.01 189.314 204.886 186.575C202.589 183.615 200.397 179.264 198.377 173.742C194.38 162.817 191.095 147.415 188.974 129.434Z" stroke="black"/>
<path d="M210.692 172.445H185.782V171.832H210.599C210.63 172.036 210.662 172.241 210.692 172.445Z" stroke="black"/>
<path d="M211.271 176.409H185.782V175.797H211.185C211.214 176.001 211.243 176.205 211.271 176.409Z" stroke="black"/>
<path d="M210.068 168.476H185.782V167.863H209.967C210.001 168.067 210.035 168.272 210.068 168.476Z" stroke="black"/>
<path d="M185.781 188.3V187.688H212.622C212.641 187.892 212.66 188.096 212.679 188.3H185.781Z" stroke="black"/>
<path d="M209.398 164.515H185.782V163.902H209.291C209.327 164.106 209.362 164.311 209.398 164.515Z" stroke="black"/>
<path d="M211.799 180.37H185.782V179.758H211.721C211.747 179.962 211.773 180.167 211.799 180.37Z" stroke="black"/>
<path d="M212.273 184.335H185.782V183.723H212.203C212.226 183.927 212.25 184.132 212.273 184.335Z" stroke="black"/>
<path d="M206.276 148.659H185.782V148.047H206.138C206.184 148.251 206.23 148.455 206.276 148.659Z" stroke="black"/>
<path d="M204.39 140.73H185.782V140.117H204.233C204.286 140.32 204.338 140.524 204.39 140.73Z" stroke="black"/>
<path d="M208.686 160.55H185.782V159.938H208.572C208.61 160.142 208.648 160.346 208.686 160.55Z" stroke="black"/>
<path d="M202.138 132.804H185.782V132.191H201.938C202.004 132.392 202.071 132.596 202.138 132.804Z" stroke="black"/>
<path d="M203.328 136.765H185.782V136.152H203.155C203.212 136.354 203.27 136.558 203.328 136.765Z" stroke="black"/>
<path d="M205.366 144.695H185.782V144.082L205.22 144.082C205.269 144.285 205.318 144.489 205.366 144.695Z" stroke="black"/>
<path d="M207.929 156.585H185.782V155.973H207.808C207.849 156.176 207.889 156.381 207.929 156.585Z" stroke="black"/>
<path d="M207.127 152.624H185.782V152.012H207C207.042 152.215 207.085 152.419 207.127 152.624Z" stroke="black"/>
<path d="M197.14 121.613C197.14 122.497 196.877 123.361 196.384 124.097C195.892 124.832 195.192 125.405 194.372 125.744C193.553 126.082 192.651 126.171 191.781 125.998C190.911 125.826 190.112 125.4 189.485 124.774C188.859 124.149 188.432 123.352 188.259 122.485C188.086 121.617 188.175 120.718 188.514 119.902C188.853 119.085 189.428 118.386 190.165 117.895C190.902 117.403 191.769 117.141 192.656 117.141C193.245 117.141 193.828 117.256 194.372 117.481C194.917 117.706 195.411 118.036 195.827 118.451C196.243 118.866 196.573 119.359 196.799 119.902C197.024 120.444 197.14 121.026 197.14 121.613Z" stroke="black"/>
<path d="M216.804 210.136H183.862V124.934L185.489 124.934C185.539 159.737 190.773 178.225 197.368 188.024C200.689 192.959 204.355 195.69 207.869 197.181C211.155 198.576 214.279 198.873 216.804 198.905V210.136Z" stroke="black"/>
<path d="M192.654 126.211H195.894L197.428 128.436H192.654H187.883L189.416 126.211H192.654Z" stroke="black"/>
<path d="M8.05273 210.136V166.172H31.3949V210.136H8.05273Z" stroke="black"/>
<path d="M32.3955 210.136V166.172H41.5V210.136H32.3955Z" stroke="black"/>
<path d="M12.4123 168.541H11.9123V169.041V210.136H11.752V168.113H37.8017V210.136H37.6413V169.041V168.541H37.1413H12.4123Z" stroke="black"/>
<path d="M12.9121 175.488V174.91H36.6412V175.488H12.9121Z" stroke="black"/>
<path d="M12.9121 178.828V178.25H36.6412V178.828H12.9121Z" stroke="black"/>
<path d="M12.9121 182.16V181.582H36.6412V182.16H12.9121Z" stroke="black"/>
<path d="M12.9121 185.5V184.922H36.6412V185.5H12.9121Z" stroke="black"/>
<path d="M12.9121 188.839V188.262H36.6412V188.839H12.9121Z" stroke="black"/>
<path d="M12.9121 192.171V191.594H36.6412V192.171H12.9121Z" stroke="black"/>
<path d="M12.9121 195.511V194.934H36.6412V195.511H12.9121Z" stroke="black"/>
<path d="M12.9121 198.847V198.27H36.6412V198.847H12.9121Z" stroke="black"/>
<path d="M12.9121 202.187V201.609H36.6412V202.187H12.9121Z" stroke="black"/>
<path d="M12.9121 205.523V204.945H36.6412V205.523H12.9121Z" stroke="black"/>
<path d="M12.9121 208.859V208.281H36.6412V208.859H12.9121Z" stroke="black"/>
<mask id="path-122-inside-9_4116_21872" fill="white">
<path d="M16.1051 174.409H15.4824V169.039H16.1051V174.409ZM19.6981 169.039H19.0749V174.409H19.6977L19.6981 169.039ZM23.291 169.039H22.6682V174.409H23.291V169.039ZM26.8839 169.039H26.2611V174.409H26.8839V169.039ZM30.4768 169.039H29.8541V174.409H30.4768V169.039ZM34.0697 169.039H33.447V174.409H34.0697V169.039Z"/>
</mask>
<path d="M16.1051 174.409V175.409H17.1051V174.409H16.1051ZM15.4824 174.409H14.4824V175.409H15.4824V174.409ZM15.4824 169.039V168.039H14.4824V169.039H15.4824ZM16.1051 169.039H17.1051V168.039H16.1051V169.039ZM19.6981 169.039L20.6981 169.039L20.6981 168.039H19.6981V169.039ZM19.0749 169.039V168.039H18.0749V169.039H19.0749ZM19.0749 174.409H18.0749V175.409H19.0749V174.409ZM19.6977 174.409V175.409H20.6976L20.6977 174.409L19.6977 174.409ZM23.291 169.039H24.291V168.039H23.291V169.039ZM22.6682 169.039V168.039H21.6682V169.039H22.6682ZM22.6682 174.409H21.6682V175.409H22.6682V174.409ZM23.291 174.409V175.409H24.291V174.409H23.291ZM26.8839 169.039H27.8839V168.039H26.8839V169.039ZM26.2611 169.039V168.039H25.2611V169.039H26.2611ZM26.2611 174.409H25.2611V175.409H26.2611V174.409ZM26.8839 174.409V175.409H27.8839V174.409H26.8839ZM30.4768 169.039H31.4768V168.039H30.4768V169.039ZM29.8541 169.039V168.039H28.8541V169.039H29.8541ZM29.8541 174.409H28.8541V175.409H29.8541V174.409ZM30.4768 174.409V175.409H31.4768V174.409H30.4768ZM34.0697 169.039H35.0697V168.039H34.0697V169.039ZM33.447 169.039V168.039H32.447V169.039H33.447ZM33.447 174.409H32.447V175.409H33.447V174.409ZM34.0697 174.409V175.409H35.0697V174.409H34.0697ZM16.1051 173.409H15.4824V175.409H16.1051V173.409ZM16.4824 174.409V169.039H14.4824V174.409H16.4824ZM15.4824 170.039H16.1051V168.039H15.4824V170.039ZM15.1051 169.039V174.409H17.1051V169.039H15.1051ZM19.6981 168.039H19.0749V170.039H19.6981V168.039ZM18.0749 169.039V174.409H20.0749V169.039H18.0749ZM19.0749 175.409H19.6977V173.409H19.0749V175.409ZM20.6977 174.409L20.6981 169.039L18.6981 169.039L18.6977 174.409L20.6977 174.409ZM23.291 168.039H22.6682V170.039H23.291V168.039ZM21.6682 169.039V174.409H23.6682V169.039H21.6682ZM22.6682 175.409H23.291V173.409H22.6682V175.409ZM24.291 174.409V169.039H22.291V174.409H24.291ZM26.8839 168.039H26.2611V170.039H26.8839V168.039ZM25.2611 169.039V174.409H27.2611V169.039H25.2611ZM26.2611 175.409H26.8839V173.409H26.2611V175.409ZM27.8839 174.409V169.039H25.8839V174.409H27.8839ZM30.4768 168.039H29.8541V170.039H30.4768V168.039ZM28.8541 169.039V174.409H30.8541V169.039H28.8541ZM29.8541 175.409H30.4768V173.409H29.8541V175.409ZM31.4768 174.409V169.039H29.4768V174.409H31.4768ZM34.0697 168.039H33.447V170.039H34.0697V168.039ZM32.447 169.039V174.409H34.447V169.039H32.447ZM33.447 175.409H34.0697V173.409H33.447V175.409ZM35.0697 174.409V169.039H33.0697V174.409H35.0697Z" fill="black" mask="url(#path-122-inside-9_4116_21872)"/>
<path d="M49.5518 210.137V143.52H76.6002V210.137H49.5518Z" stroke="black"/>
<path d="M69.4102 210.137V143.52H76.6005V210.137H69.4102Z" stroke="black"/>
<path d="M52.6426 210.137V143.52H52.7252V210.137H52.6426Z" stroke="black"/>
<path d="M63.0361 210.137V143.52H63.1188V210.137H63.0361Z" stroke="black"/>
<path d="M73.4277 210.137V143.52H73.5102V210.137H73.4277Z" stroke="black"/>
<path d="M49.5518 145.913V145.68H76.6002V145.913H49.5518Z" stroke="black"/>
<path d="M49.5518 149.765V149.531H76.6002V149.765H49.5518Z" stroke="black"/>
<path d="M49.5518 153.62V153.387H76.6002V153.62H49.5518Z" stroke="black"/>
<path d="M49.5518 157.476V157.242H76.6002V157.476H49.5518Z" stroke="black"/>
<path d="M49.5518 161.327V161.094H76.6002V161.327H49.5518Z" stroke="black"/>
<path d="M49.5518 165.183V164.949H76.6002V165.183H49.5518Z" stroke="black"/>
<path d="M49.5518 169.038V168.805H76.6002V169.038H49.5518Z" stroke="black"/>
<path d="M49.5518 172.89V172.656H76.6002V172.89H49.5518Z" stroke="black"/>
<path d="M49.5518 176.745V176.512H76.6002V176.745H49.5518Z" stroke="black"/>
<path d="M49.5518 180.601V180.367H76.6002V180.601H49.5518Z" stroke="black"/>
<path d="M49.5518 184.46V184.227H76.6002V184.46H49.5518Z" stroke="black"/>
<path d="M49.5518 188.308V188.074H76.6002V188.308H49.5518Z" stroke="black"/>
<path d="M49.5518 192.167V191.934H76.6002V192.167H49.5518Z" stroke="black"/>
<path d="M49.5518 196.019V195.785H76.6002V196.019H49.5518Z" stroke="black"/>
<path d="M49.5518 199.874V199.641H76.6002V199.874H49.5518Z" stroke="black"/>
<path d="M49.5518 203.726V203.492H76.6002V203.726H49.5518Z" stroke="black"/>
<path d="M49.5518 207.585V207.352H76.6002V207.585H49.5518Z" stroke="black"/>
<path d="M52.6426 142.588V114.578H73.5095V142.588H52.6426Z" stroke="black"/>
<path d="M68.125 142.588V114.578H73.5103V142.588H68.125Z" stroke="black"/>
<mask id="path-148-inside-10_4116_21872" fill="white">
<path d="M55.3968 114.078H54.5527V143.088H55.3968V114.078Z"/>
</mask>
<path d="M54.5527 114.078V113.078H53.5527V114.078H54.5527ZM55.3968 114.078H56.3968V113.078H55.3968V114.078ZM55.3968 143.088V144.088H56.3968V143.088H55.3968ZM54.5527 143.088H53.5527V144.088H54.5527V143.088ZM54.5527 115.078H55.3968V113.078H54.5527V115.078ZM54.3968 114.078V143.088H56.3968V114.078H54.3968ZM55.3968 142.088H54.5527V144.088H55.3968V142.088ZM55.5527 143.088V114.078H53.5527V143.088H55.5527Z" fill="black" mask="url(#path-148-inside-10_4116_21872)"/>
<mask id="path-150-inside-11_4116_21872" fill="white">
<path d="M63.4994 114.078H62.6553V143.088H63.4994V114.078Z"/>
</mask>
<path d="M62.6553 114.078V113.078H61.6553V114.078H62.6553ZM63.4994 114.078H64.4994V113.078H63.4994V114.078ZM63.4994 143.088V144.088H64.4994V143.088H63.4994ZM62.6553 143.088H61.6553V144.088H62.6553V143.088ZM62.6553 115.078H63.4994V113.078H62.6553V115.078ZM62.4994 114.078V143.088H64.4994V114.078H62.4994ZM63.4994 142.088H62.6553V144.088H63.4994V142.088ZM63.6553 143.088V114.078H61.6553V143.088H63.6553Z" fill="black" mask="url(#path-150-inside-11_4116_21872)"/>
<mask id="path-152-inside-12_4116_21872" fill="white">
<path d="M71.6008 114.078H70.7568V143.088H71.6008V114.078Z"/>
</mask>
<path d="M70.7568 114.078V113.078H69.7568V114.078H70.7568ZM71.6008 114.078H72.6008V113.078H71.6008V114.078ZM71.6008 143.088V144.088H72.6008V143.088H71.6008ZM70.7568 143.088H69.7568V144.088H70.7568V143.088ZM70.7568 115.078H71.6008V113.078H70.7568V115.078ZM70.6008 114.078V143.088H72.6008V114.078H70.6008ZM71.6008 142.088H70.7568V144.088H71.6008V142.088ZM71.7568 143.088V114.078H69.7568V143.088H71.7568Z" fill="black" mask="url(#path-152-inside-12_4116_21872)"/>
<path d="M52.6426 116.905V116.672H73.5095V116.905H52.6426Z" stroke="black"/>
<path d="M52.6426 120.761V120.527H73.5095V120.761H52.6426Z" stroke="black"/>
<path d="M52.6426 124.612V124.379H73.5095V124.612H52.6426Z" stroke="black"/>
<path d="M52.6426 128.472V128.238H73.5095V128.472H52.6426Z" stroke="black"/>
<path d="M52.6426 132.323V132.09H73.5095V132.323H52.6426Z" stroke="black"/>
<path d="M52.6426 136.179V135.945H73.5095V136.179H52.6426Z" stroke="black"/>
<path d="M52.6426 140.034V139.801H73.5095V140.034H52.6426Z" stroke="black"/>
<path d="M55.0527 113.578V93.3008H71.1005V113.578H55.0527Z" stroke="black"/>
<path d="M67.123 113.578V93.3008H71.1012V113.578H67.123Z" stroke="black"/>
<mask id="path-163-inside-13_4116_21872" fill="white">
<path d="M57.0886 92.8008H56.4307V114.078H57.0886V92.8008Z"/>
</mask>
<path d="M56.4307 92.8008V91.8008H55.4307V92.8008H56.4307ZM57.0886 92.8008H58.0886V91.8008H57.0886V92.8008ZM57.0886 114.078V115.078H58.0886V114.078H57.0886ZM56.4307 114.078H55.4307V115.078H56.4307V114.078ZM56.4307 93.8008H57.0886V91.8008H56.4307V93.8008ZM56.0886 92.8008V114.078H58.0886V92.8008H56.0886ZM57.0886 113.078H56.4307V115.078H57.0886V113.078ZM57.4307 114.078V92.8008H55.4307V114.078H57.4307Z" fill="black" mask="url(#path-163-inside-13_4116_21872)"/>
<mask id="path-165-inside-14_4116_21872" fill="white">
<path d="M63.4062 92.8008H62.748V114.078H63.4062V92.8008Z"/>
</mask>
<path d="M62.748 92.8008V91.8008H61.748V92.8008H62.748ZM63.4062 92.8008H64.4062V91.8008H63.4062V92.8008ZM63.4062 114.078V115.078H64.4062V114.078H63.4062ZM62.748 114.078H61.748V115.078H62.748V114.078ZM62.748 93.8008H63.4062V91.8008H62.748V93.8008ZM62.4062 92.8008V114.078H64.4062V92.8008H62.4062ZM63.4062 113.078H62.748V115.078H63.4062V113.078ZM63.748 114.078V92.8008H61.748V114.078H63.748Z" fill="black" mask="url(#path-165-inside-14_4116_21872)"/>
<mask id="path-167-inside-15_4116_21872" fill="white">
<path d="M69.7224 92.8008H69.0645V114.078H69.7224V92.8008Z"/>
</mask>
<path d="M69.0645 92.8008V91.8008H68.0645V92.8008H69.0645ZM69.7224 92.8008H70.7224V91.8008H69.7224V92.8008ZM69.7224 114.078V115.078H70.7224V114.078H69.7224ZM69.0645 114.078H68.0645V115.078H69.0645V114.078ZM69.0645 93.8008H69.7224V91.8008H69.0645V93.8008ZM68.7224 92.8008V114.078H70.7224V92.8008H68.7224ZM69.7224 113.078H69.0645V115.078H69.7224V113.078ZM70.0645 114.078V92.8008H68.0645V114.078H70.0645Z" fill="black" mask="url(#path-167-inside-15_4116_21872)"/>
<path d="M55.0527 95.6084V95.375H71.1005V95.6084H55.0527Z" stroke="black"/>
<path d="M55.0527 99.4562V99.2227H71.1005V99.4562H55.0527Z" stroke="black"/>
<path d="M55.0527 103.316V103.082H71.1005V103.316H55.0527Z" stroke="black"/>
<path d="M55.0527 107.167V106.934H71.1005V107.167H55.0527Z" stroke="black"/>
<path d="M55.0527 111.022V110.789H71.1005V111.022H55.0527Z" stroke="black"/>
<defs>
<linearGradient id="paint0_linear_4116_21872" x1="130.928" y1="42.0898" x2="130.928" y2="75.6849" gradientUnits="userSpaceOnUse">
<stop offset="0.293022" stop-color="#CF9615"/>
<stop offset="1" stop-color="#F1CD39"/>
</linearGradient>
<linearGradient id="paint1_linear_4116_21872" x1="128.086" y1="15.1562" x2="128.086" y2="42.7408" gradientUnits="userSpaceOnUse">
<stop offset="0.293022" stop-color="#CF9615"/>
<stop offset="1" stop-color="#F1CD39"/>
</linearGradient>
<linearGradient id="paint2_linear_4116_21872" x1="129.175" y1="15.1562" x2="129.175" y2="42.7408" gradientUnits="userSpaceOnUse">
<stop offset="0.293022" stop-color="#CF9615"/>
<stop offset="1" stop-color="#F1CD39"/>
</linearGradient>
<linearGradient id="paint3_linear_4116_21872" x1="125.243" y1="36.1484" x2="125.243" y2="63.0827" gradientUnits="userSpaceOnUse">
<stop offset="0.293022" stop-color="#CF9615"/>
<stop offset="1" stop-color="#F1CD39"/>
</linearGradient>
<linearGradient id="paint4_linear_4116_21872" x1="127.369" y1="55.7812" x2="127.369" y2="210.998" gradientUnits="userSpaceOnUse">
<stop offset="0.293022" stop-color="#CF9615"/>
<stop offset="1" stop-color="#F1CD39"/>
</linearGradient>
<linearGradient id="paint5_linear_4116_21872" x1="127.421" y1="55.6328" x2="127.421" y2="60.6166" gradientUnits="userSpaceOnUse">
<stop offset="0.293022" stop-color="#CF9615"/>
<stop offset="1" stop-color="#F1CD39"/>
</linearGradient>
<linearGradient id="paint6_linear_4116_21872" x1="127.421" y1="84.0156" x2="127.421" y2="88.9994" gradientUnits="userSpaceOnUse">
<stop offset="0.293022" stop-color="#CF9615"/>
<stop offset="1" stop-color="#F1CD39"/>
</linearGradient>
<linearGradient id="paint7_linear_4116_21872" x1="134.503" y1="74.5781" x2="134.503" y2="210.999" gradientUnits="userSpaceOnUse">
<stop offset="0.293022" stop-color="#CF9615"/>
<stop offset="1" stop-color="#F1CD39"/>
</linearGradient>
<linearGradient id="paint8_linear_4116_21872" x1="134.435" y1="84.5859" x2="134.435" y2="90.486" gradientUnits="userSpaceOnUse">
<stop offset="0.293022" stop-color="#CF9615"/>
<stop offset="1" stop-color="#F1CD39"/>
</linearGradient>
<linearGradient id="paint9_linear_4116_21872" x1="134.435" y1="126.602" x2="134.435" y2="132.502" gradientUnits="userSpaceOnUse">
<stop offset="0.293022" stop-color="#CF9615"/>
<stop offset="1" stop-color="#F1CD39"/>
</linearGradient>
<linearGradient id="paint10_linear_4116_21872" x1="139.362" y1="116.715" x2="139.362" y2="210.997" gradientUnits="userSpaceOnUse">
<stop offset="0.293022" stop-color="#CF9615"/>
<stop offset="1" stop-color="#F1CD39"/>
</linearGradient>
<linearGradient id="paint11_linear_4116_21872" x1="143.613" y1="153.699" x2="143.613" y2="210.996" gradientUnits="userSpaceOnUse">
<stop offset="0.293022" stop-color="#CF9615"/>
<stop offset="1" stop-color="#F1CD39"/>
</linearGradient>
<linearGradient id="paint12_linear_4116_21872" x1="148.015" y1="184.625" x2="148.015" y2="211" gradientUnits="userSpaceOnUse">
<stop offset="0.293022" stop-color="#CF9615"/>
<stop offset="1" stop-color="#F1CD39"/>
</linearGradient>
<linearGradient id="paint13_linear_4116_21872" x1="125.851" y1="103.074" x2="125.851" y2="210.999" gradientUnits="userSpaceOnUse">
<stop offset="0.293022" stop-color="#CF9615"/>
<stop offset="1" stop-color="#F1CD39"/>
</linearGradient>
<linearGradient id="paint14_linear_4116_21872" x1="124.181" y1="142.18" x2="124.181" y2="210.997" gradientUnits="userSpaceOnUse">
<stop offset="0.293022" stop-color="#CF9615"/>
<stop offset="1" stop-color="#F1CD39"/>
</linearGradient>
<linearGradient id="paint15_linear_4116_21872" x1="121.752" y1="175.527" x2="121.752" y2="210.997" gradientUnits="userSpaceOnUse">
<stop offset="0.293022" stop-color="#CF9615"/>
<stop offset="1" stop-color="#F1CD39"/>
</linearGradient>
<linearGradient id="paint16_linear_4116_21872" x1="128.086" y1="0" x2="128.086" y2="15.1558" gradientUnits="userSpaceOnUse">
<stop offset="0.293022" stop-color="#CF9615"/>
<stop offset="1" stop-color="#F1CD39"/>
</linearGradient>
<linearGradient id="paint17_linear_4116_21872" x1="125.885" y1="125.863" x2="125.885" y2="130.847" gradientUnits="userSpaceOnUse">
<stop offset="0.293022" stop-color="#CF9615"/>
<stop offset="1" stop-color="#F1CD39"/>
</linearGradient>
<linearGradient id="paint18_linear_4116_21872" x1="130.734" y1="126.508" x2="130.734" y2="130.47" gradientUnits="userSpaceOnUse">
<stop offset="0.293022" stop-color="#CF9615"/>
<stop offset="1" stop-color="#F1CD39"/>
</linearGradient>
<linearGradient id="paint19_linear_4116_21872" x1="134.435" y1="164.359" x2="134.435" y2="170.26" gradientUnits="userSpaceOnUse">
<stop offset="0.293022" stop-color="#CF9615"/>
<stop offset="1" stop-color="#F1CD39"/>
</linearGradient>
<linearGradient id="paint20_linear_4116_21872" x1="143.627" y1="166.387" x2="143.627" y2="172.286" gradientUnits="userSpaceOnUse">
<stop offset="0.293022" stop-color="#CF9615"/>
<stop offset="1" stop-color="#F1CD39"/>
</linearGradient>
<linearGradient id="paint21_linear_4116_21872" x1="139.273" y1="128.617" x2="139.273" y2="134.517" gradientUnits="userSpaceOnUse">
<stop offset="0.293022" stop-color="#CF9615"/>
<stop offset="1" stop-color="#F1CD39"/>
</linearGradient>
<linearGradient id="paint22_linear_4116_21872" x1="124.082" y1="163.625" x2="124.082" y2="168.609" gradientUnits="userSpaceOnUse">
<stop offset="0.293022" stop-color="#CF9615"/>
<stop offset="1" stop-color="#F1CD39"/>
</linearGradient>
<linearGradient id="paint23_linear_4116_21872" x1="130.734" y1="164.359" x2="130.734" y2="168.231" gradientUnits="userSpaceOnUse">
<stop offset="0.293022" stop-color="#CF9615"/>
<stop offset="1" stop-color="#F1CD39"/>
</linearGradient>
<linearGradient id="paint24_linear_4116_21872" x1="128.557" y1="164.266" x2="128.557" y2="168.226" gradientUnits="userSpaceOnUse">
<stop offset="0.293022" stop-color="#CF9615"/>
<stop offset="1" stop-color="#F1CD39"/>
</linearGradient>
<linearGradient id="paint25_linear_4116_21872" x1="139.274" y1="166.387" x2="139.274" y2="170.258" gradientUnits="userSpaceOnUse">
<stop offset="0.293022" stop-color="#CF9615"/>
<stop offset="1" stop-color="#F1CD39"/>
</linearGradient>
<linearGradient id="paint26_linear_4116_21872" x1="133.104" y1="42.8945" x2="133.104" y2="75.6799" gradientUnits="userSpaceOnUse">
<stop offset="0.293022" stop-color="#CF9615"/>
<stop offset="1" stop-color="#F1CD39"/>
</linearGradient>
<linearGradient id="paint27_linear_4116_21872" x1="133.105" y1="56.2734" x2="133.105" y2="60.5683" gradientUnits="userSpaceOnUse">
<stop offset="0.293022" stop-color="#CF9615"/>
<stop offset="1" stop-color="#F1CD39"/>
</linearGradient>
</defs>
</svg>
