<svg width="36" height="36" viewBox="0 0 36 36" fill="none" xmlns="http://www.w3.org/2000/svg">
<path fill-rule="evenodd" clip-rule="evenodd" d="M12.9696 9.14316C12.6205 8.30728 12.3559 8.2755 11.8271 8.25412C11.6471 8.24372 11.4466 8.23331 11.2241 8.23331C10.5362 8.23331 9.81703 8.43441 9.38306 8.87878C8.85431 9.4185 7.54228 10.6777 7.54228 13.2595C7.54228 15.8417 9.42525 18.3389 9.67922 18.6885C9.94388 19.0372 13.3504 24.4131 18.6398 26.604C22.7762 28.3182 24.0036 28.1593 24.9449 27.9585C26.3202 27.6623 28.0446 26.6459 28.4785 25.4188C28.9122 24.1912 28.9122 23.1435 28.7851 22.9213C28.6583 22.6991 28.3089 22.5726 27.7802 22.3076C27.2514 22.043 24.6805 20.7731 24.194 20.6038C23.7178 20.4241 23.263 20.4877 22.9036 20.9956C22.3957 21.7046 21.8987 22.4243 21.4965 22.858C21.1793 23.1967 20.6606 23.2391 20.2269 23.0591C19.645 22.8161 18.016 22.2441 16.0059 20.4559C14.4506 19.0699 13.3928 17.3452 13.0863 16.8266C12.7794 16.2976 13.0545 15.9905 13.2978 15.705C13.5624 15.3768 13.8161 15.1442 14.0805 14.8371C14.3452 14.5302 14.4931 14.3716 14.6624 14.0116C14.8424 13.6626 14.7153 13.3026 14.5884 13.0379C14.4613 12.7727 13.4035 10.1905 12.9696 9.14316ZM17.9947 0C8.07159 0 0 8.07384 0 17.9997C0 21.9361 1.26956 25.587 3.42759 28.55L1.18462 35.2378L8.10338 33.0266C10.9491 34.9102 14.3449 36 18.0053 36C27.9284 36 36 27.9256 36 18.0003C36 8.07441 27.9284 0.0005625 18.0053 0.0005625H17.9949V0H17.9947Z" fill="#67C15E"/>
</svg>
