<svg width="15" height="15" viewBox="0 0 15 15" fill="none" xmlns="http://www.w3.org/2000/svg">
<path d="M0 4.79683C0.086936 4.51924 0.138657 4.22363 0.267411 3.96699C0.686684 3.13201 1.38217 2.68565 2.30912 2.59998C2.37698 2.59373 2.44558 2.59447 2.51381 2.59447C4.96415 2.59447 7.41413 2.59263 9.86448 2.59484C10.9668 2.59594 11.8842 3.23385 12.2323 4.26775C12.3225 4.53541 12.3625 4.83249 12.3636 5.11597C12.3735 7.57239 12.3728 10.0288 12.3677 12.4852C12.3651 13.7055 11.6065 14.6648 10.4353 14.9354C10.2379 14.981 10.0292 14.9931 9.8256 14.9935C7.39983 14.9972 4.97406 14.9862 2.54829 15.0001C1.3719 15.0067 0.449719 14.2736 0.134622 13.3228C0.0766651 13.1478 0.0440182 12.9643 0 12.7845C0 10.1218 0 7.45915 0 4.79646L0 4.79683ZM6.18859 14.1162C7.41377 14.1162 8.63931 14.1199 9.86448 14.1151C10.8035 14.1115 11.4869 13.446 11.4895 12.5154C11.4961 10.0343 11.4965 7.55291 11.4895 5.07185C11.4869 4.15009 10.7951 3.47688 9.87439 3.47615C7.4189 3.47431 4.96342 3.47431 2.50794 3.47615C1.56742 3.47688 0.880364 4.1648 0.879631 5.10641C0.877797 7.56798 0.878163 10.0296 0.880731 12.4915C0.880731 12.6272 0.893203 12.7665 0.924749 12.8981C1.10412 13.6412 1.72735 14.1144 2.52738 14.1162C3.74778 14.1188 4.96819 14.117 6.18859 14.117V14.1162Z" fill="#410EAD"/>
<path d="M14.9982 7.20567C14.9982 8.27229 14.9978 9.33927 14.9982 10.4059C14.9982 10.5986 14.9274 10.7515 14.7517 10.8379C14.6005 10.9122 14.4468 10.9011 14.3074 10.8037C14.1673 10.7059 14.1185 10.5633 14.1189 10.396C14.1204 9.79409 14.1196 9.19221 14.1196 8.59033C14.1196 7.22001 14.1251 5.85006 14.1182 4.47974C14.1112 3.10575 13.5195 2.0542 12.3442 1.34533C11.7834 1.00707 11.1634 0.878016 10.5105 0.879486C8.58251 0.883163 6.65451 0.880957 4.72615 0.880222C4.65315 0.880222 4.57905 0.879487 4.50753 0.868456C4.28817 0.834263 4.13007 0.641234 4.13851 0.425778C4.14731 0.204806 4.31348 0.0272204 4.53394 0.00626308C4.58712 0.00111566 4.64105 0.00111566 4.69497 0.00111566C6.6325 0.00111566 8.57041 0.00405704 10.5083 1.26382e-05C11.7096 -0.00256107 12.7576 0.387908 13.6307 1.21738C14.3515 1.90235 14.7949 2.74175 14.9376 3.73006C14.9795 4.01941 14.9934 4.31429 14.9956 4.60696C15.0029 5.47319 14.9982 6.33906 14.9982 7.2053V7.20567Z" fill="#410EAD"/>
<path d="M6.46716 8.84013C6.46716 8.07684 6.4668 7.31356 6.46716 6.55027C6.46716 6.35577 6.56364 6.21973 6.75292 6.2098C7.39998 6.17561 8.05145 6.12855 8.69265 6.25282C9.37823 6.38555 9.80961 6.86757 9.83456 7.56872C9.86464 8.41363 9.86684 9.26149 9.83456 10.1064C9.80521 10.8748 9.26892 11.4058 8.4942 11.4605C7.95498 11.4984 7.41172 11.4914 6.8703 11.4855C6.56657 11.4822 6.4668 11.358 6.4668 11.0561C6.4668 10.3174 6.4668 9.57842 6.4668 8.83977L6.46716 8.84013ZM7.41612 10.655C7.70444 10.655 7.98726 10.6719 8.26714 10.6509C8.65303 10.6219 8.8944 10.3788 8.90137 9.99279C8.91568 9.22472 8.91384 8.45628 8.9021 7.68821C8.8966 7.33856 8.67945 7.07457 8.35701 7.04148C8.04925 7.00986 7.73599 7.03449 7.41612 7.03449V10.655Z" fill="#410EAD"/>
<path d="M5.0708 8.68934C5.38406 8.82685 5.60929 9.01509 5.7252 9.31879C6.05094 10.17 5.63166 11.1608 4.81476 11.4189C4.27994 11.5877 3.73448 11.5932 3.21066 11.3656C2.74077 11.1612 2.46492 10.7983 2.4099 10.2788C2.37945 9.9909 2.48326 9.86258 2.76828 9.85082C2.87025 9.8464 2.97406 9.84898 3.07457 9.86405C3.24734 9.88942 3.32804 9.95965 3.32951 10.131C3.33245 10.4523 3.5474 10.6542 3.93843 10.6968C4.04444 10.7086 4.15338 10.706 4.26013 10.6968C4.59503 10.6671 4.78688 10.4994 4.8386 10.1619C4.86575 9.98538 4.86868 9.79934 4.84741 9.62212C4.81219 9.33056 4.62255 9.1618 4.32065 9.11731C4.24362 9.10591 4.16512 9.10334 4.08736 9.09561C3.88011 9.07576 3.78473 8.95774 3.78657 8.72427C3.7884 8.48601 3.89258 8.36064 4.1079 8.35512C4.34523 8.3485 4.56789 8.30512 4.65996 8.0551C4.7645 7.77199 4.79018 7.47749 4.61044 7.21203C4.55799 7.13481 4.45124 7.05797 4.36247 7.04915C4.16292 7.02966 3.95457 7.02966 3.75795 7.06532C3.56721 7.09989 3.4733 7.25394 3.45643 7.45065C3.43039 7.76133 3.33061 7.85141 3.02028 7.85325C2.57643 7.85582 2.46969 7.73375 2.53645 7.29291C2.59514 6.90649 2.78479 6.5936 3.1329 6.41896C3.78327 6.09283 4.44867 6.09577 5.10124 6.42153C5.38113 6.56124 5.52859 6.81567 5.59205 7.11606C5.65881 7.433 5.6423 7.7492 5.5495 8.05878C5.47173 8.31872 5.33674 8.54116 5.07043 8.6897L5.0708 8.68934Z" fill="#410EAD"/>
</svg>
