<svg width="12" height="15" viewBox="0 0 12 15" fill="none" xmlns="http://www.w3.org/2000/svg">
<path d="M8.72803 0C8.83842 0.084921 8.97509 0.150666 9.05218 0.260242C9.18973 0.456565 9.15906 0.674802 9.03466 0.877517C8.83053 1.2099 8.62641 1.54319 8.41965 1.88105C8.5572 2.00523 8.69562 2.12029 8.8244 2.2463C9.55856 2.96767 9.97207 3.85888 10.1 4.89803C10.1368 5.19844 9.95542 5.46417 9.66894 5.51804C9.61375 5.52808 9.55768 5.53174 9.50161 5.53174C7.16861 5.53174 4.83473 5.53265 2.50172 5.53174C2.07332 5.53174 1.85868 5.25962 1.9165 4.82498C2.07507 3.63425 2.61299 2.67729 3.52148 1.94223C3.53988 1.92762 3.55652 1.91118 3.58544 1.88561C3.43212 1.6345 3.28056 1.38522 3.12812 1.13593C3.0703 1.04097 3.00897 0.948741 2.95466 0.85195C2.7663 0.519571 2.88369 0.168929 3.22887 0.028307C3.24552 0.0219151 3.26041 0.0100444 3.27618 0.000913129C3.35152 0.000913129 3.42599 0.000913129 3.50133 0.000913129C3.69144 0.0721372 3.81497 0.214585 3.91747 0.391732C4.08918 0.687586 4.27579 0.975222 4.45013 1.27016C4.49568 1.34778 4.53686 1.36056 4.62009 1.33134C5.54172 0.997137 6.46511 0.99805 7.38675 1.33134C7.46998 1.36148 7.51115 1.34687 7.55671 1.27016C7.73105 0.975222 7.91766 0.688499 8.08937 0.391732C8.19187 0.215498 8.3154 0.0721372 8.50551 0.00182626C8.58085 0.00182626 8.65532 0.00182626 8.73066 0.00182626L8.72803 0ZM8.9269 4.42868C8.59224 3.17769 7.40427 2.13581 5.93158 2.17325C4.35901 2.21343 3.31998 3.40597 3.07906 4.42868H8.9269Z" fill="#410EAD"/>
<path d="M6.00041 12.2178C5.10067 12.2178 4.20094 12.2178 3.3012 12.2178C2.84389 12.2178 2.46191 12.048 2.17544 11.6672C1.9827 11.4106 1.89772 11.1147 1.89684 10.7951C1.89334 9.54507 1.89421 8.295 1.89684 7.04493C1.89684 6.71529 2.122 6.47605 2.41723 6.47513C2.7151 6.47513 2.9385 6.70889 2.93938 7.04036C2.94201 8.25573 2.94026 9.47202 2.94113 10.6883C2.94113 11.0271 3.03662 11.1275 3.35727 11.1275C5.11907 11.1275 6.88087 11.1275 8.64267 11.1275C8.96331 11.1275 9.0588 11.0271 9.05968 10.6892C9.05968 9.48298 9.05968 8.27674 9.05968 7.07141C9.05968 6.75181 9.23052 6.52535 9.49772 6.48152C9.80523 6.43039 10.0856 6.66872 10.1022 7.00201C10.1101 7.16272 10.1048 7.32434 10.1048 7.48505C10.1048 8.5735 10.1048 9.66287 10.1048 10.7513C10.1048 11.2334 9.94014 11.6361 9.56693 11.9347C9.31112 12.1393 9.01675 12.2187 8.69961 12.2187C7.79988 12.2187 6.90014 12.2187 6.00041 12.2187V12.2178Z" fill="#410EAD"/>
<path d="M0.0125333 8.15233C0.0125333 7.60536 -0.0049883 7.0584 0.0169137 6.51235C0.0431962 5.8485 0.673975 5.28784 1.30826 5.33258C1.56407 5.35085 1.77258 5.57274 1.78397 5.83937C1.79711 6.1334 1.60875 6.37264 1.33191 6.41373C1.08924 6.44934 1.04894 6.49682 1.04894 6.7525C1.04894 7.69028 1.04894 8.62715 1.04894 9.56494C1.04894 9.80692 1.09975 9.86718 1.32403 9.89914C1.62277 9.94115 1.81463 10.1959 1.78222 10.5082C1.75155 10.7977 1.49136 11.0095 1.20313 10.9785C0.610021 10.9145 0.198262 10.5703 0.0467005 9.9932C0.00990508 9.8544 0.00464859 9.70373 0.00289643 9.55855C-0.00236005 9.09011 0.00114427 8.62076 0.00114427 8.15233C0.00464859 8.15233 0.009029 8.15233 0.0125333 8.15233Z" fill="#410EAD"/>
<path d="M11.9882 8.17464C11.9882 8.71613 12.0058 9.25944 11.9839 9.80001C11.9576 10.4511 11.3478 11.0072 10.7197 10.9834C10.4481 10.9734 10.2282 10.7497 10.2159 10.4721C10.2028 10.1753 10.3894 9.94063 10.6689 9.90046C10.9054 9.86667 10.951 9.81188 10.951 9.55803C10.951 8.62025 10.951 7.68338 10.951 6.7456C10.951 6.50088 10.9045 6.44609 10.675 6.41413C10.385 6.37395 10.1932 6.12376 10.2168 5.81694C10.2387 5.5357 10.4718 5.32568 10.7547 5.33116C11.4092 5.34394 12.0101 5.89273 11.9996 6.70907C11.9935 7.1976 11.9988 7.68521 11.9988 8.17373C11.9953 8.17373 11.9909 8.17373 11.9874 8.17373L11.9882 8.17464Z" fill="#410EAD"/>
<path d="M3.3834 13.7022C3.37814 13.3973 3.58665 13.1589 3.87751 13.1379C4.14384 13.1188 4.38301 13.3297 4.42243 13.6191C4.42856 13.6621 4.42944 13.7077 4.4417 13.7488C4.47412 13.8538 4.55559 13.9241 4.65196 13.9004C4.72555 13.883 4.79038 13.8054 4.84645 13.7433C4.87098 13.7169 4.86573 13.6602 4.87186 13.6164C4.91216 13.3151 5.16622 13.1032 5.44394 13.1425C5.74093 13.1836 5.93805 13.442 5.90739 13.7488C5.83905 14.4254 5.41766 14.8994 4.81229 14.9825C4.06148 15.0856 3.39742 14.4912 3.3834 13.7022Z" fill="#410EAD"/>
<path d="M8.61711 13.7092C8.60046 14.3895 8.12037 14.9154 7.44491 14.993C6.85531 15.0606 6.26133 14.6068 6.12378 13.9694C6.09487 13.8352 6.08874 13.6863 6.11152 13.5512C6.1562 13.2937 6.39186 13.1202 6.63366 13.1357C6.89123 13.1522 7.09185 13.3448 7.12777 13.6096C7.1339 13.6526 7.13916 13.6964 7.14967 13.7393C7.17596 13.8498 7.25393 13.9037 7.35468 13.9046C7.45718 13.9055 7.53164 13.8452 7.56143 13.7393C7.57194 13.7028 7.57282 13.6626 7.5772 13.6243C7.614 13.3293 7.86017 13.1129 8.13088 13.1385C8.42437 13.1659 8.62412 13.4014 8.61711 13.7101V13.7092Z" fill="#410EAD"/>
</svg>
