<svg width="15" height="15" viewBox="0 0 15 15" fill="none" xmlns="http://www.w3.org/2000/svg">
<path d="M0.000782565 6.13923C0.0641703 6.07657 0.119732 5.99866 0.192511 5.95294C0.870604 5.52488 1.553 5.10528 2.23031 4.67637C2.36491 4.59085 2.47838 4.59339 2.61103 4.67722C3.28443 5.10317 3.95978 5.52572 4.63787 5.94277C4.78265 6.03169 4.84056 6.14389 4.8386 6.32553C4.83116 7.09655 4.83743 7.86757 4.83312 8.63858C4.83234 8.74613 4.85973 8.80922 4.94894 8.86172C5.20562 9.0133 5.45683 9.17546 5.70999 9.33381C5.80272 9.39182 5.86572 9.48158 5.83441 9.59421C5.81328 9.67042 5.75498 9.76272 5.69199 9.78982C5.62821 9.81734 5.52726 9.79617 5.46113 9.75806C5.20719 9.61241 4.95833 9.45533 4.71182 9.29486C4.63513 9.2449 4.57761 9.2449 4.50014 9.29401C3.87683 9.68778 3.24921 10.0727 2.62746 10.469C2.47877 10.5638 2.3563 10.5608 2.20762 10.4664C1.544 10.0434 0.874125 9.63189 0.208554 9.21187C0.131471 9.16318 0.069257 9.08655 0 9.02304C0 8.06149 0 7.10036 0 6.13881L0.000782565 6.13923ZM2.1857 9.86307V9.67254C2.1857 9.07638 2.18297 8.48066 2.18805 7.8845C2.18923 7.77018 2.1591 7.70583 2.0648 7.64824C1.57726 7.35059 1.09403 7.04489 0.608836 6.74216C0.568925 6.71718 0.527058 6.69643 0.469148 6.66468C0.469148 7.3688 0.468365 8.04836 0.471495 8.7275C0.471495 8.7601 0.499668 8.80625 0.527058 8.82361C1.06898 9.16615 1.61287 9.50487 2.18531 9.86307H2.1857ZM4.11864 6.22561C4.10494 6.2074 4.09986 6.19682 4.09203 6.19174C3.55637 5.85598 3.02148 5.51895 2.48308 5.18954C2.44552 5.16625 2.37078 5.1798 2.32813 5.20563C2.03428 5.38261 1.74473 5.56722 1.45361 5.7497C1.20945 5.90255 0.965294 6.0554 0.705482 6.21799C1.27089 6.57026 1.81868 6.91406 2.36961 7.25067C2.40287 7.27099 2.47134 7.25151 2.51125 7.22738C2.80041 7.05209 3.08644 6.87088 3.37364 6.69178C3.62132 6.53681 3.86939 6.38184 4.11903 6.22603L4.11864 6.22561ZM4.35889 6.67272C4.32641 6.68839 4.30489 6.69601 4.28533 6.70829C3.77001 7.02965 3.25391 7.3489 2.7425 7.67704C2.69711 7.70625 2.65876 7.79178 2.65798 7.85148C2.65172 8.4743 2.65407 9.09755 2.65485 9.72038C2.65485 9.75891 2.66268 9.79744 2.66855 9.85291C3.16117 9.54551 3.63697 9.24829 4.13155 8.93962C4.07755 8.90406 4.03804 8.87654 3.99734 8.85113C3.78644 8.71903 3.57437 8.58905 3.36503 8.4544C3.22221 8.36253 3.18074 8.22746 3.24804 8.09663C3.31768 7.96114 3.45346 7.93108 3.60332 8.01915C3.64206 8.04159 3.67884 8.06699 3.71718 8.0907C3.92691 8.22111 4.13664 8.35109 4.35928 8.48912V6.67272H4.35889Z" fill="#410EAD"/>
<path d="M9.91855 2.8647C9.91855 3.26059 9.92128 3.65647 9.91659 4.05235C9.91542 4.14846 9.94241 4.20351 10.0218 4.25135C10.3157 4.42833 10.6049 4.61421 10.8952 4.79712C10.9946 4.85978 11.0552 4.96055 11.0118 5.0736C10.9813 5.15362 10.9026 5.23322 10.8283 5.26582C10.7758 5.28911 10.6866 5.24719 10.626 5.21078C10.3533 5.04735 10.0813 4.88137 9.81642 4.70312C9.7143 4.63411 9.64113 4.64384 9.54174 4.70693C8.93251 5.09392 8.31742 5.47033 7.70858 5.85859C7.56068 5.95301 7.43938 5.95385 7.2903 5.85817C6.67403 5.46313 6.05111 5.08037 5.43249 4.68957C5.35306 4.63919 5.2928 4.63114 5.20868 4.68618C4.934 4.86698 4.65384 5.03803 4.37446 5.21036C4.21404 5.30943 4.07709 5.2853 4.00509 5.15108C3.93231 5.01517 3.98161 4.87291 4.13891 4.77383C4.41281 4.6015 4.68592 4.42749 4.96295 4.26236C5.05138 4.20986 5.08229 4.14762 5.0819 4.03838C5.0776 3.26778 5.08347 2.49719 5.07681 1.72617C5.07525 1.53395 5.13981 1.41582 5.29476 1.32097C5.96933 0.908579 6.63999 0.488563 7.3083 0.0647358C7.44212 -0.0203683 7.55481 -0.0220619 7.68863 0.0626188C8.36594 0.491527 9.04481 0.917047 9.72682 1.33622C9.86885 1.42344 9.92285 1.53733 9.92011 1.70839C9.91424 2.09369 9.91815 2.47898 9.91815 2.86428L9.91855 2.8647ZM9.21424 1.6055C8.64492 1.24942 8.1026 0.907732 7.55598 0.57409C7.5192 0.55165 7.44407 0.571973 7.40064 0.598224C7.06923 0.799764 6.74133 1.00723 6.41265 1.21343C6.21193 1.33918 6.0112 1.46535 5.81086 1.59068C5.82064 1.61185 5.8226 1.62498 5.82925 1.62921C6.36453 1.96497 6.89941 2.30115 7.43625 2.6331C7.46755 2.65258 7.52585 2.65724 7.55559 2.63903C8.10104 2.30285 8.64375 1.96201 9.21424 1.60508V1.6055ZM9.43883 2.06447C9.40675 2.07887 9.38444 2.08564 9.36488 2.09792C8.84526 2.4214 8.32524 2.74361 7.80914 3.07344C7.76845 3.09969 7.73714 3.18099 7.73675 3.2373C7.73128 3.79661 7.73362 4.35635 7.73362 4.91609C7.73362 5.01898 7.73362 5.12187 7.73362 5.2527C8.23603 4.93938 8.71418 4.64088 9.20915 4.33222C9.13442 4.28268 9.08198 4.24669 9.02838 4.21324C8.86404 4.10993 8.69696 4.0117 8.53536 3.90374C8.41485 3.82287 8.38433 3.68357 8.44771 3.5612C8.50914 3.44265 8.63866 3.4037 8.76583 3.46805C8.80965 3.49049 8.85152 3.51844 8.89378 3.54469C9.06946 3.65393 9.24476 3.76317 9.43883 3.88426V2.06447ZM7.26487 5.2527C7.26487 5.17564 7.26487 5.12949 7.26487 5.08334C7.26487 4.4766 7.26213 3.86986 7.26721 3.26313C7.268 3.15473 7.23748 3.09376 7.15022 3.03999C6.65016 2.73345 6.15362 2.42013 5.65591 2.10977C5.62813 2.09242 5.59839 2.07971 5.562 2.06108V3.88172C5.79051 3.73903 5.99907 3.60397 6.21232 3.47779C6.38605 3.3749 6.57425 3.47525 6.58169 3.67044C6.58638 3.79577 6.5183 3.87325 6.42244 3.9321C6.2174 4.05785 6.01433 4.18742 5.78934 4.32883C6.28627 4.63961 6.76089 4.93684 7.26526 5.25228L7.26487 5.2527Z" fill="#410EAD"/>
<path d="M14.9969 7.57619C14.9969 8.00382 14.9934 8.43188 14.9989 8.85952C15.0008 9.01364 14.9504 9.11737 14.8252 9.19443C14.1353 9.62122 13.4471 10.051 12.7608 10.4845C12.6308 10.5667 12.5197 10.5595 12.3926 10.479C11.7696 10.0849 11.1424 9.69871 10.5203 9.30367C10.4275 9.24482 10.3598 9.24567 10.2695 9.30537C10.0327 9.46245 9.78975 9.60937 9.54793 9.75714C9.3922 9.8524 9.26425 9.82742 9.1903 9.69447C9.11478 9.55941 9.16291 9.41503 9.31982 9.31595C9.56437 9.16183 9.80775 9.00644 10.0562 8.85994C10.1411 8.80998 10.1666 8.75028 10.1662 8.64824C10.1622 7.86664 10.1669 7.08504 10.1615 6.30343C10.1603 6.13365 10.2198 6.03034 10.3532 5.94778C11.0352 5.52734 11.7149 5.10224 12.3922 4.67333C12.5205 4.59204 12.6308 4.58611 12.76 4.66783C13.442 5.09843 14.1259 5.52607 14.8122 5.94947C14.9468 6.03246 15.0028 6.14085 15.0001 6.30852C14.993 6.73107 14.9977 7.15363 14.9977 7.57619H14.9969ZM12.8104 9.84563C12.848 9.83166 12.8621 9.82869 12.8742 9.82149C13.4021 9.49293 13.9303 9.16649 14.4546 8.83158C14.4949 8.80575 14.5247 8.72361 14.5254 8.6673C14.5305 8.03939 14.5286 7.41191 14.5282 6.784C14.5282 6.75013 14.5239 6.71668 14.52 6.66121C13.9546 7.01433 13.4068 7.35475 12.8621 7.70109C12.8316 7.72057 12.814 7.78831 12.8128 7.83404C12.8081 8.08173 12.8104 8.32984 12.8104 8.57796C12.8104 8.99374 12.8104 9.40952 12.8104 9.84563ZM10.8658 6.21706C11.3752 6.53504 11.8659 6.82845 12.3433 7.14558C12.5139 7.25906 12.6367 7.26752 12.8112 7.15066C13.2913 6.8293 13.7859 6.53292 14.2883 6.21833C14.2312 6.17938 14.1878 6.14762 14.1424 6.11925C13.7499 5.87368 13.343 5.65182 12.9697 5.37618C12.6903 5.16998 12.4747 5.17083 12.1934 5.37449C11.7735 5.67891 11.3216 5.93126 10.8662 6.21706H10.8658ZM12.3315 9.85367C12.337 9.80668 12.3417 9.78593 12.3417 9.76518C12.3421 9.12118 12.3452 8.47676 12.3374 7.83277C12.3366 7.77307 12.281 7.69135 12.2294 7.65833C11.743 7.3467 11.252 7.04312 10.7621 6.73742C10.7257 6.71498 10.6873 6.69678 10.6443 6.67349V8.48523C10.9131 8.31799 11.1647 8.15709 11.4202 8.00425C11.5505 7.92634 11.6839 7.96995 11.7485 8.09655C11.8107 8.21891 11.7763 8.34974 11.6554 8.43866C11.6151 8.4683 11.5713 8.49201 11.5294 8.51826C11.3126 8.65459 11.0955 8.79135 10.8642 8.937C11.3611 9.24736 11.8369 9.54459 12.3311 9.85367H12.3315Z" fill="#410EAD"/>
<path d="M5.0792 12.0243C5.0792 11.6123 5.08351 11.2003 5.07725 10.7888C5.07451 10.6118 5.1289 10.4958 5.27719 10.4052C5.95607 9.98981 6.63142 9.56767 7.30364 9.13961C7.44372 9.05027 7.55759 9.05197 7.6961 9.13961C8.36871 9.5664 9.04407 9.98854 9.72255 10.4052C9.86302 10.4915 9.92093 10.602 9.92015 10.7748C9.91585 11.6144 9.91545 12.454 9.92015 13.2936C9.92132 13.4731 9.85989 13.5858 9.71473 13.6747C9.04055 14.0884 8.36911 14.5075 7.7008 14.9322C7.5568 15.0237 7.43903 15.022 7.29504 14.9301C6.62281 14.502 5.94707 14.0807 5.26897 13.6641C5.13359 13.5807 5.07568 13.4736 5.07764 13.3072C5.08272 12.8795 5.0792 12.4519 5.0792 12.0238V12.0243ZM9.44944 11.1313C9.40248 11.1529 9.38018 11.1605 9.36022 11.1728C8.84451 11.4937 8.32802 11.813 7.81622 12.1411C7.77201 12.1695 7.73718 12.2563 7.7364 12.3164C7.73053 12.9397 7.73288 13.5629 7.73327 14.1862C7.73327 14.2247 7.73992 14.2632 7.74462 14.3161C8.29985 13.9698 8.84099 13.6345 9.37822 13.2919C9.41657 13.2674 9.44474 13.1912 9.44631 13.1378C9.45374 12.9109 9.44944 12.6839 9.44944 12.4566C9.44944 12.0243 9.44944 11.5924 9.44944 11.1313ZM5.56361 11.1241C5.55539 11.1707 5.54913 11.1902 5.54913 11.2101C5.54835 11.8596 5.54561 12.5091 5.55305 13.1586C5.55383 13.2132 5.61213 13.286 5.66182 13.3178C6.15758 13.6336 6.65646 13.9431 7.15535 14.2535C7.18626 14.273 7.22069 14.2857 7.26491 14.3073C7.26491 13.7403 7.24143 13.1895 7.27351 12.6429C7.29386 12.2952 7.19095 12.1056 6.90375 11.951C6.45143 11.7071 6.02298 11.4112 5.564 11.125L5.56361 11.1241ZM9.21428 10.6757C8.64809 10.3226 8.11008 9.98388 7.56776 9.65405C7.52667 9.62907 7.44529 9.64304 7.39951 9.67141C6.89554 9.98007 6.39469 10.2947 5.89346 10.6088C5.86255 10.6283 5.83516 10.6545 5.7976 10.6838C6.35087 11.0297 6.88967 11.368 7.43081 11.7016C7.46485 11.7228 7.52785 11.727 7.56072 11.7071C8.10577 11.3714 8.64809 11.0305 9.21467 10.6757H9.21428Z" fill="#410EAD"/>
</svg>
