<svg width="15" height="15" viewBox="0 0 15 15" fill="none" xmlns="http://www.w3.org/2000/svg">
<path d="M0 14.6159V0.380483C0.0635136 0.190541 0.192338 0.0653112 0.380483 0H14.6159C14.8981 0.100663 15 0.303188 15 0.599185C14.9958 5.19793 14.997 9.79608 14.997 14.3948C14.997 14.828 14.8286 14.997 14.3954 14.997C9.79668 14.997 5.19853 14.9958 0.599784 15C0.304386 15 0.100663 14.8993 0.000599185 14.6159H0ZM1.764 7.5036C1.78617 7.67257 1.79396 7.84453 1.83351 8.00931C2.1325 9.25621 3.3093 10.0501 4.57837 9.86378C5.05293 9.79428 5.47296 9.59835 5.83846 9.28737C5.97627 9.16993 6.03499 9.01953 5.99545 8.84218C5.9577 8.67201 5.84925 8.55756 5.67968 8.50903C5.52808 8.46529 5.39027 8.50244 5.26804 8.59951C5.06731 8.75829 4.84921 8.87813 4.59875 8.94583C3.83119 9.15315 2.98274 8.69837 2.73828 7.9398C2.49501 7.18543 2.91204 6.36215 3.68559 6.09491C4.25122 5.89958 4.76832 6.01222 5.24047 6.37353C5.48674 6.56228 5.74858 6.53531 5.91156 6.31961C6.07214 6.10749 6.01941 5.85044 5.77555 5.65751C5.23748 5.23089 4.62631 5.05832 3.94324 5.12243C2.73288 5.23628 1.76939 6.29144 1.7646 7.5036H1.764ZM8.02249 7.056C8.02249 6.75222 8.02489 6.4706 8.02189 6.18838C8.0189 5.90437 7.83794 5.71023 7.58029 5.70664C7.31485 5.70304 7.1291 5.89538 7.12371 6.18838C7.11952 6.41727 7.12371 6.64676 7.12251 6.87625C7.12251 6.93257 7.11772 6.9883 7.11472 7.05421C6.80554 7.05421 6.51374 7.05061 6.22194 7.0554C6.01881 7.0584 5.86003 7.17884 5.80131 7.35919C5.70784 7.6456 5.90797 7.93201 6.21655 7.9404C6.51254 7.94819 6.80914 7.9422 7.12311 7.9422C7.12311 8.04526 7.12191 8.13154 7.12311 8.21723C7.12731 8.4557 7.11712 8.69597 7.14169 8.93265C7.16386 9.14476 7.3496 9.28497 7.55992 9.28977C7.77383 9.29456 7.94999 9.16633 8.00092 8.95782C8.01889 8.88352 8.02069 8.80383 8.02129 8.72593C8.02369 8.46948 8.02189 8.21243 8.02189 7.9434C8.30411 7.9434 8.56655 7.9446 8.82839 7.9428C8.9009 7.9428 8.97639 7.9428 9.0459 7.92422C9.25142 7.8691 9.38863 7.66298 9.36586 7.45746C9.3419 7.23636 9.17292 7.06439 8.95063 7.0578C8.64924 7.04941 8.34725 7.056 8.02129 7.056H8.02249ZM11.8711 7.941C12.1982 7.941 12.5002 7.94759 12.8016 7.9392C13.0425 7.93261 13.2186 7.73728 13.2186 7.4994C13.2186 7.26033 13.0431 7.07218 12.8028 7.0566C12.7297 7.05181 12.6566 7.05361 12.5835 7.05361C12.3516 7.05361 12.1191 7.05361 11.8717 7.05361C11.8717 6.98051 11.8717 6.92838 11.8717 6.87565C11.8711 6.62699 11.877 6.37833 11.8669 6.12966C11.8567 5.87621 11.6655 5.70424 11.4181 5.70724C11.1742 5.71083 10.9885 5.89299 10.9825 6.14524C10.9771 6.37892 10.9807 6.61321 10.9807 6.84749C10.9807 6.9134 10.9807 6.97871 10.9807 7.05481C10.6595 7.05481 10.3623 7.04881 10.0657 7.0566C9.79728 7.06319 9.61333 7.2771 9.6349 7.54134C9.65347 7.76844 9.83383 7.93681 10.0789 7.941C10.3749 7.94639 10.6709 7.9422 10.9807 7.9422C10.9807 8.00871 10.9807 8.05664 10.9807 8.10398C10.9807 8.35264 10.9765 8.6013 10.9825 8.84996C10.9891 9.12619 11.2012 9.31074 11.475 9.28677C11.6997 9.2676 11.8633 9.08844 11.8687 8.83858C11.8747 8.54738 11.8699 8.25557 11.8699 7.9404L11.8711 7.941Z" fill="#410EAD"/>
</svg>
