<svg width="15" height="11" viewBox="0 0 15 11" fill="none" xmlns="http://www.w3.org/2000/svg">
<path d="M8.84049 2.72597C8.84049 2.4745 8.83915 2.22853 8.84049 1.98256C8.84228 1.74806 8.93713 1.65261 9.16843 1.65032C9.31875 1.64894 9.46863 1.65032 9.64356 1.65032C9.64356 1.58791 9.64356 1.5333 9.64356 1.47869C9.64356 1.08955 9.64132 0.699944 9.64446 0.3108C9.64625 0.10705 9.74601 0.00425696 9.94421 0.00242138C10.2735 -0.0012498 10.6028 -0.000332003 10.9321 0.00242138C11.1513 0.00379807 11.2493 0.103379 11.2501 0.327779C11.2524 0.761896 11.2506 1.19601 11.2506 1.65078C11.4108 1.65078 11.5593 1.64986 11.7083 1.65078C11.9611 1.65216 12.0528 1.74439 12.0541 2C12.0555 2.24459 12.0541 2.48918 12.0541 2.74984C12.3033 2.74984 12.536 2.74984 12.769 2.74984C13.0232 2.7503 13.0925 2.8049 13.1489 3.06051C13.3878 4.14213 13.6267 5.22329 13.8602 6.30583C13.8871 6.42973 13.9372 6.50269 14.0557 6.54904C14.2844 6.63899 14.5067 6.74637 14.7309 6.84733C14.9881 6.96297 15.0297 7.05521 14.9487 7.32917C14.7067 8.14968 14.4642 8.96972 14.2222 9.79023C14.211 9.82786 14.2029 9.86641 14.1877 9.92606C14.3519 9.91551 14.504 9.90082 14.6561 9.89624C14.8691 9.89027 14.993 9.98893 14.9997 10.1587C15.0065 10.334 14.8794 10.4419 14.6593 10.4437C14.3193 10.4465 13.9976 10.5245 13.6889 10.6709C12.7793 11.1018 11.8725 11.0976 10.9576 10.6718C10.2663 10.3501 9.56124 10.3464 8.86823 10.6731C7.956 11.1027 7.0536 11.1059 6.13913 10.6745C5.44344 10.3464 4.73208 10.3478 4.03415 10.6768C3.12729 11.1045 2.22534 11.1114 1.32161 10.6754C1.00351 10.5222 0.670653 10.4432 0.319002 10.4437C0.12036 10.4437 0.00135337 10.3386 1.11923e-05 10.172C-0.00133099 10.0045 0.118123 9.89715 0.314528 9.89532C0.727919 9.89211 1.1252 9.97425 1.49743 10.1583C2.27635 10.5433 3.05347 10.5515 3.83417 10.1674C3.90441 10.133 3.97554 10.0881 4.05026 10.0775C4.26501 10.0477 4.29677 9.92056 4.29051 9.72186C4.2753 9.2368 4.28559 8.75129 4.28559 8.24604H4.09455C2.86109 8.24604 1.62763 8.24604 0.394612 8.24604C0.344504 8.24604 0.293501 8.24926 0.244288 8.24329C0.098885 8.22539 -0.0066997 8.10654 0.00180076 7.96474C0.0107486 7.81284 0.0957533 7.72382 0.240708 7.70042C0.29529 7.6917 0.352109 7.69674 0.408033 7.69674C1.80345 7.69674 3.19842 7.69674 4.59384 7.69674H4.80814V7.14699H4.61979C3.21363 7.14699 1.80703 7.14699 0.400875 7.14699C0.339582 7.14699 0.276052 7.15341 0.217444 7.13964C0.0832262 7.10706 0.00224816 7.0162 0.00314294 6.87165C0.00359033 6.72755 0.0845684 6.63715 0.219234 6.60503C0.272473 6.59218 0.330187 6.59814 0.386111 6.59814C1.9153 6.59814 3.44449 6.59814 4.97368 6.59814C5.28059 6.59814 5.35799 6.67799 5.35843 6.99371C5.35843 7.28557 5.35843 7.57743 5.35843 7.86975C5.35799 8.16115 5.27522 8.24512 4.98933 8.24696C4.94012 8.24696 4.89091 8.24696 4.8323 8.24696V9.9022C5.53292 9.82419 6.17224 10.0647 6.82946 10.3859C6.80709 10.2891 6.7977 10.2363 6.78248 10.1858C6.50063 9.24644 6.21787 8.30754 5.93557 7.36863C5.84072 7.05337 5.87517 6.97811 6.17537 6.84044C6.39907 6.73765 6.62634 6.6422 6.84467 6.52839C6.9082 6.49535 6.97576 6.41872 6.99186 6.34988C7.24554 5.26643 7.4916 4.18068 7.73856 3.09539C7.80657 2.79664 7.8607 2.75167 8.16001 2.75121C8.37207 2.75121 8.58414 2.74984 8.7962 2.748C8.80604 2.748 8.81544 2.7402 8.84183 2.72827L8.84049 2.72597ZM14.0817 8.37591C12.9552 7.91656 11.8434 7.46317 10.72 7.00473V9.98389C10.8873 10.0536 11.0542 10.1156 11.2153 10.1913C11.9543 10.5387 12.6912 10.5414 13.4222 10.1734C13.4911 10.1385 13.5609 10.0601 13.586 9.98572C13.7041 9.63512 13.807 9.27948 13.9153 8.92521C13.9698 8.7467 14.0235 8.56865 14.0817 8.37591ZM10.1751 7.01804C9.04629 7.47877 7.93676 7.93124 6.81649 8.3883C7.01736 9.05829 7.21153 9.71222 7.4142 10.3634C7.42583 10.401 7.50368 10.4387 7.55155 10.44C7.90857 10.4487 8.23964 10.3455 8.57071 10.212C8.8736 10.0894 9.19035 9.99444 9.5089 9.92423C9.7223 9.87696 9.94868 9.89348 10.1755 9.88109V7.01758L10.1751 7.01804ZM14.4052 7.30714C14.3716 7.28787 14.3537 7.27502 14.3336 7.26584C13.0733 6.69956 11.8134 6.13236 10.5509 5.57205C10.4869 5.5436 10.3871 5.55507 10.3196 5.5849C9.39481 5.99653 8.47229 6.41413 7.54976 6.83081C7.19945 6.98912 6.8487 7.14699 6.48899 7.30898C6.54581 7.49483 6.59861 7.66646 6.65408 7.84864C6.72209 7.82478 6.77443 7.80917 6.82499 7.78852C7.95242 7.3255 9.08074 6.86568 10.205 6.39577C10.3795 6.32281 10.5285 6.3274 10.6999 6.39852C11.8206 6.86247 12.9444 7.31907 14.0674 7.77751C14.122 7.8 14.1779 7.81973 14.2419 7.84451C14.2987 7.65728 14.3501 7.48932 14.4052 7.3076V7.30714ZM7.59003 6.20946C7.72693 6.14888 7.82938 6.09474 7.93765 6.05802C8.06113 6.01626 8.12019 5.94192 8.15061 5.80747C8.27364 5.26184 8.41099 4.71942 8.54253 4.17609C8.60964 3.89846 8.66959 3.84844 8.94473 3.84844C9.93839 3.84844 10.9316 3.84844 11.9253 3.84844C12.225 3.84844 12.2805 3.89295 12.3521 4.18802C12.4863 4.74283 12.6196 5.29763 12.757 5.85152C12.7695 5.90154 12.7968 5.96716 12.8362 5.98781C12.9766 6.06215 13.1256 6.12089 13.2983 6.19753C13.076 5.21136 12.8608 4.25731 12.6465 3.30602H8.24993C8.03205 4.26511 7.81551 5.21916 7.59048 6.209L7.59003 6.20946ZM9.38542 2.20742V2.73882H11.507V2.20742H9.38542ZM9.92363 4.40416V5.18658C10.2806 4.89243 10.6269 4.91445 10.9728 5.17419V4.40416H9.92363ZM10.707 1.64252V0.561358H10.1916V1.64206H10.707V1.64252ZM8.73312 5.69228C8.94876 5.59546 9.1313 5.51607 9.31115 5.43025C9.33933 5.41694 9.37199 5.37381 9.37244 5.34444C9.37691 5.03239 9.37512 4.72034 9.37512 4.40508H9.04808C8.94608 4.8213 8.84496 5.2343 8.73267 5.69274L8.73312 5.69228ZM11.5195 4.40462C11.5195 4.72263 11.5186 5.02459 11.5208 5.32654C11.5208 5.35683 11.5338 5.40455 11.5539 5.41419C11.745 5.50597 11.9391 5.59133 12.1615 5.69182C12.0496 5.2343 11.9485 4.8213 11.8465 4.40508H11.519L11.5195 4.40462Z" fill="#410EAD"/>
</svg>
