<svg width="13" height="15" viewBox="0 0 13 15" fill="none" xmlns="http://www.w3.org/2000/svg">
<path d="M2.27776 15C2.17744 14.9773 2.07712 14.9566 1.97717 14.9323C0.490879 14.5722 -0.362055 12.9648 0.148645 11.4748C0.323548 10.9653 0.509429 10.4588 0.706668 9.95786C1.29422 8.46475 2.89182 7.67964 4.38795 8.14147C4.74041 8.25028 5.09135 8.36299 5.44305 8.47375C5.46841 8.48158 5.49491 8.48667 5.54261 8.49841C5.44986 8.24206 5.37528 8.00175 5.27344 7.77397C5.23899 7.69687 5.14435 7.63072 5.06258 7.59628C3.76481 7.04718 2.9645 6.06129 2.69306 4.64567C2.47538 3.51028 2.72713 2.46687 3.39532 1.5346C3.50019 1.38823 3.62398 1.35535 3.7315 1.43754C3.83788 1.51895 3.83902 1.65123 3.73491 1.798C2.71426 3.23514 2.84146 5.16112 4.04042 6.40062C4.36864 6.73994 4.7476 7.00295 5.18334 7.16811C5.46273 7.27418 5.63536 7.46478 5.73266 7.75205C5.9121 8.2808 6.10328 8.80564 6.28992 9.33166C6.30696 9.37941 6.32778 9.42598 6.36337 9.51443C6.40009 9.42715 6.42205 9.38214 6.4387 9.33518C6.62913 8.79977 6.82296 8.26593 7.00619 7.72818C7.09932 7.45538 7.26817 7.27887 7.52938 7.17555C8.92861 6.62331 9.78911 5.18343 9.66948 3.605C9.55591 2.10367 8.47356 0.824639 7.02853 0.511927C6.1313 0.317803 5.29427 0.496663 4.5284 1.02111C4.34669 1.14557 4.22516 1.14831 4.14528 1.02581C4.06427 0.901741 4.11008 0.783153 4.28801 0.657912C6.44628 -0.862596 9.44499 0.385121 10.011 3.03906C10.4217 4.96504 9.45218 6.86323 7.68536 7.58376C7.5415 7.64246 7.45178 7.73365 7.40332 7.88473C7.3329 8.10586 7.25037 8.32268 7.16216 8.57238C7.30148 8.53833 7.41505 8.51641 7.52598 8.48275C7.96021 8.35125 8.38762 8.19 8.8279 8.08707C10.2722 7.75009 11.7308 8.54107 12.2904 9.95473C12.4922 10.4643 12.6765 10.9813 12.8594 11.4987C13.0066 11.9151 13.0324 12.3461 12.9639 12.7828C12.9404 12.9312 12.8439 13.0122 12.725 12.9942C12.5985 12.975 12.5247 12.8607 12.547 12.7108C12.6072 12.3069 12.5671 11.9159 12.4134 11.5257C12.0299 13.1464 11.0498 14.0634 9.44233 14.294C9.49041 14.3202 9.5313 14.3456 9.57446 14.366C10.4766 14.7851 11.5328 14.5049 12.1405 13.6865C12.1492 13.6748 12.1571 13.6627 12.1654 13.6513C12.2752 13.5026 12.3896 13.4709 12.5005 13.5589C12.6091 13.6454 12.6114 13.7675 12.5024 13.919C12.1829 14.3621 11.7717 14.6787 11.2648 14.854C11.0876 14.9155 10.9025 14.9519 10.7212 14.9996H10.1828C10.1613 14.991 10.1404 14.9777 10.1185 14.975C9.73195 14.9292 9.38063 14.7851 9.05202 14.5742C8.67193 14.33 8.29752 14.0752 7.90834 13.8466C7.72322 13.7378 7.51613 13.6415 7.30867 13.6067C6.82864 13.5265 6.34217 13.5366 5.85607 13.5801C5.54072 13.6083 5.26398 13.7202 5.00163 13.8944C4.64879 14.1284 4.29823 14.3683 3.93101 14.5765C3.67774 14.7202 3.39987 14.82 3.12918 14.9284C3.03037 14.9679 2.92021 14.9765 2.81496 14.9988H2.27663L2.27776 15ZM3.7474 13.8423C4.09758 13.8446 4.42846 13.7934 4.72224 13.5652C5.06144 13.3018 5.4491 13.1449 5.87727 13.1417C6.3717 13.1378 6.86763 13.1382 7.36092 13.1691C7.77546 13.195 8.10747 13.449 8.44857 13.6674C8.53489 13.7225 8.63218 13.7734 8.73023 13.7922C10.0087 14.038 11.2693 13.3496 11.785 12.1163C12.0784 11.415 12.1325 10.6843 11.83 9.98291C11.322 8.80525 10.006 8.20096 8.80065 8.54538C8.21953 8.71132 7.63879 8.87766 7.05881 9.04908C7.01906 9.06082 6.97704 9.10818 6.96 9.14927C6.89981 9.29721 6.85362 9.45142 6.79608 9.60053C6.7162 9.80679 6.56061 9.91716 6.36299 9.91638C6.16575 9.91559 6.01053 9.80366 5.93217 9.5974C5.87008 9.4342 5.82087 9.26551 5.7531 9.10505C5.73076 9.0526 5.67474 8.99624 5.62249 8.97941C5.21287 8.8483 4.79833 8.7348 4.39022 8.59939C3.73907 8.38374 3.09625 8.38882 2.47084 8.67844C1.81931 8.9802 1.3105 9.45572 1.09963 10.1723C0.563944 11.9934 1.90411 13.8353 3.74664 13.8423H3.7474ZM0.590066 11.5461C0.193317 12.2083 0.478765 13.4227 1.17572 14.0368C1.95257 14.7213 3.02507 14.6548 3.5301 14.292C1.94992 14.0658 0.969779 13.148 0.590066 11.5461Z" fill="#410EAD"/>
<path d="M4.27302 4.01961C4.27302 4.20356 4.2734 4.35893 4.27302 4.5147C4.27226 4.72996 4.20563 4.83094 4.06442 4.83328C3.91905 4.83563 3.84864 4.72957 3.84826 4.50687C3.84788 4.34093 3.85242 4.17499 3.84636 4.00904C3.84334 3.91824 3.83009 3.82627 3.80926 3.73781C3.76535 3.54878 3.84864 3.4071 4.05117 3.3437C4.71444 3.13666 5.38036 2.93823 6.03984 2.71984C6.26699 2.64469 6.47255 2.64587 6.69856 2.72101C7.34934 2.93666 8.00579 3.13353 8.65959 3.33861C8.84737 3.39771 8.93368 3.49633 8.93444 3.64428C8.9352 3.793 8.84737 3.89397 8.66262 3.95268C8.50059 4.00434 8.33856 4.05718 8.17502 4.10258C8.09514 4.12489 8.06258 4.16246 8.06409 4.25365C8.06977 4.56597 8.0675 4.87829 8.06599 5.19061C8.06485 5.45675 7.97816 5.57925 7.73549 5.64618C7.3395 5.75577 6.9435 5.86731 6.54448 5.9632C6.42978 5.99059 6.29841 5.98824 6.18332 5.96085C5.78847 5.86653 5.39777 5.75498 5.00557 5.64931C4.75987 5.58317 4.66144 5.45245 4.66068 5.18748C4.65955 4.87986 4.65538 4.57224 4.66333 4.265C4.66598 4.16129 4.6338 4.11589 4.53878 4.0971C4.45701 4.08105 4.37789 4.05053 4.2734 4.01882L4.27302 4.01961ZM5.08507 4.27009C5.08507 4.56088 5.08961 4.82898 5.0828 5.09707C5.08015 5.19688 5.11763 5.22858 5.20546 5.2501C5.49885 5.32212 5.79263 5.3957 6.08111 5.4861C6.27342 5.54638 6.45287 5.55264 6.64556 5.48767C6.86892 5.41213 7.10061 5.36204 7.32927 5.30255C7.53673 5.24854 7.64059 5.11143 7.64084 4.89121C7.64084 4.68965 7.64084 4.48848 7.64084 4.274C7.25848 4.39259 6.90451 4.51157 6.54486 4.60824C6.42902 4.63955 6.29159 4.63681 6.17575 4.60511C5.81648 4.50727 5.46289 4.3879 5.08507 4.27009ZM8.16252 3.65015C8.0993 3.62627 8.06939 3.61336 8.03835 3.60396C7.5833 3.46072 7.12522 3.32687 6.67396 3.17149C6.46309 3.09908 6.26926 3.08813 6.06104 3.17345C5.88652 3.24468 5.70101 3.28773 5.52081 3.34409C5.21227 3.44076 4.90373 3.5386 4.55923 3.64741C5.17366 3.8384 5.75023 4.01843 6.32756 4.19612C6.35633 4.20512 6.39305 4.20082 6.42296 4.19142C6.9912 4.01569 7.55907 3.8384 8.1629 3.65054L8.16252 3.65015Z" fill="#410EAD"/>
<path d="M4.21028 11.7454C4.21028 11.9035 4.21331 12.0592 4.20952 12.2146C4.20385 12.453 4.06567 12.5954 3.83625 12.5986C3.62387 12.6017 3.41186 12.6017 3.19948 12.5986C2.97233 12.5954 2.82885 12.4514 2.8209 12.2166C2.8156 12.0573 2.81977 11.8976 2.81977 11.7219C2.65963 11.7219 2.51463 11.7234 2.36964 11.7219C2.11637 11.7184 1.97516 11.5759 1.97062 11.3152C1.96721 11.1055 1.96646 10.8957 1.97062 10.6863C1.97592 10.435 2.1194 10.2894 2.36207 10.2851C2.50744 10.2824 2.65319 10.2847 2.81901 10.2847C2.81901 10.1415 2.81901 10.0069 2.81901 9.87261C2.81977 9.54464 2.95038 9.40766 3.2627 9.40726C3.45123 9.40726 3.64014 9.40453 3.82868 9.40805C4.06491 9.41235 4.20422 9.55638 4.20915 9.80178C4.21255 9.95676 4.2099 10.1117 4.2099 10.2851C4.36777 10.2851 4.51239 10.2836 4.657 10.2851C4.91973 10.2883 5.0564 10.4292 5.05905 10.7016C5.06094 10.916 5.06284 11.1309 5.05829 11.3454C5.05337 11.5735 4.9133 11.7156 4.69221 11.7219C4.54608 11.7262 4.39995 11.7246 4.25382 11.7266C4.24549 11.7266 4.23716 11.7336 4.21028 11.7458V11.7454ZM3.78552 12.1602C3.78552 11.979 3.78363 11.8142 3.7859 11.6495C3.7893 11.4025 3.90515 11.2851 4.14555 11.2831C4.30455 11.282 4.46317 11.2831 4.62445 11.2831V10.7239C4.45939 10.7239 4.30417 10.7246 4.14933 10.7239C3.89871 10.7227 3.78817 10.6096 3.7859 10.3489C3.78438 10.1853 3.7859 10.0213 3.7859 9.85892H3.24491C3.24491 10.0374 3.24605 10.2029 3.24491 10.3685C3.24264 10.6115 3.13323 10.7223 2.89473 10.7239C2.73156 10.725 2.56839 10.7239 2.40333 10.7239V11.2831C2.56499 11.2831 2.71945 11.2828 2.87353 11.2831C3.13853 11.2843 3.2434 11.3916 3.24491 11.6628C3.24567 11.8264 3.24491 11.99 3.24491 12.1602H3.7859H3.78552Z" fill="#410EAD"/>
<path d="M10.2049 11.0516C9.7601 11.054 9.40159 10.6869 9.40234 10.2289C9.40272 9.78081 9.76048 9.409 10.1943 9.40626C10.6331 9.40353 10.9996 9.78003 10.998 10.2325C10.9969 10.6829 10.6422 11.0493 10.2049 11.0516ZM10.1996 10.6117C10.4041 10.6117 10.5695 10.4438 10.5718 10.2344C10.574 10.0239 10.3965 9.84187 10.1924 9.84657C9.99179 9.85087 9.82673 10.027 9.82862 10.2344C9.83052 10.4446 9.99482 10.6117 10.1993 10.6117H10.1996Z" fill="#410EAD"/>
<path d="M8.75257 12.5989C8.31077 12.5938 7.96362 12.2201 7.97081 11.7567C7.97763 11.3066 8.33614 10.9504 8.77756 10.9551C9.21822 10.9594 9.56841 11.3359 9.56084 11.7974C9.55327 12.2455 9.1921 12.604 8.75257 12.5993V12.5989ZM8.76355 11.395C8.55912 11.3958 8.39709 11.5633 8.39633 11.7751C8.39558 11.9872 8.55534 12.1563 8.75977 12.159C8.9695 12.1617 9.13797 11.988 9.13532 11.7719C9.13267 11.5618 8.96761 11.3946 8.76355 11.3954V11.395Z" fill="#410EAD"/>
<path d="M6.49862 12.2198C6.38089 12.2198 6.26277 12.2238 6.14503 12.2187C6.02162 12.2132 5.93719 12.1247 5.93416 12.0085C5.93114 11.8927 6.01177 11.7897 6.13367 11.7854C6.37861 11.7772 6.62393 11.7772 6.86849 11.7858C6.98964 11.7901 7.06952 11.8954 7.06535 12.0108C7.06081 12.1271 6.97639 12.2132 6.85221 12.2183C6.73448 12.223 6.61674 12.2195 6.49862 12.2191V12.2198Z" fill="#410EAD"/>
</svg>
