<svg width="13" height="15" viewBox="0 0 13 15" fill="none" xmlns="http://www.w3.org/2000/svg">
<path d="M9.4661 0C9.6371 0.0994314 9.68394 0.246561 9.6898 0.430747C9.73391 1.75711 8.87465 3.0233 7.56799 3.53403C7.24396 3.66062 6.90236 3.72189 6.55061 3.71529C6.28944 3.71052 6.18169 3.59788 6.16022 3.35645C6.05754 2.20327 6.85591 0.873602 8.15671 0.317373C8.49206 0.173913 8.86255 0.103834 9.21664 0C9.29979 0 9.38295 0 9.4661 0ZM6.79969 3.09301C7.82721 3.12457 9.23342 1.5876 9.03432 0.650524C7.6203 0.935242 6.79149 2.19666 6.79969 3.09301Z" fill="#410EAD"/>
<path d="M3.83845 3.61884C4.53375 3.60086 5.00145 3.72561 5.46055 3.88631C5.70338 3.97107 5.9466 4.05656 6.18748 4.14572C6.46114 4.24698 6.72661 4.24148 7.00536 4.14572C7.52107 3.9685 8.03366 3.7678 8.56617 3.65296C9.91069 3.36274 11.6218 3.84742 12.5197 5.08426C12.6642 5.28312 12.6247 5.43649 12.3921 5.58839C11.7819 5.98685 11.3294 6.49905 11.0979 7.17159C10.7067 8.30826 11.183 9.63316 12.2324 10.3083C12.403 10.418 12.5853 10.5126 12.7684 10.6033C12.9808 10.7082 13.0452 10.8304 12.9695 11.0457C12.7052 11.7953 12.3468 12.5038 11.856 13.1452C11.5539 13.5403 11.2388 13.9318 10.8859 14.2866C10.3909 14.7845 9.76859 15.0516 9.02762 14.9639C8.73833 14.9298 8.45607 14.8322 8.17421 14.753C7.81816 14.6528 7.47188 14.5108 7.10959 14.4433C6.63019 14.3541 6.16288 14.4609 5.71041 14.6286C5.40239 14.7427 5.09241 14.8586 4.77307 14.9379C4.11759 15.1008 3.53473 14.9349 3.01081 14.5453C2.43537 14.1175 2.01764 13.5634 1.61631 12.9995C0.765246 11.8023 0.254607 10.4811 0.0660447 9.05638C-0.07606 7.98171 -0.0120348 6.91732 0.488064 5.9186C1.19351 4.51042 2.38032 3.73845 3.83845 3.61847V3.61884ZM11.8318 5.22368C11.7854 5.17378 11.7479 5.12719 11.7038 5.08683C10.8496 4.30972 9.82676 4.02427 8.67235 4.24551C8.17382 4.34091 7.69558 4.53794 7.21578 4.70781C6.79571 4.85641 6.38736 4.86008 5.97237 4.70561C5.72642 4.61389 5.47578 4.53464 5.231 4.44071C4.56147 4.18424 3.8814 4.13618 3.19313 4.35632C1.94034 4.75661 1.18922 5.59829 0.833956 6.77203C0.56224 7.66911 0.59152 8.5772 0.771493 9.48383C1.10294 11.1532 1.90286 12.6033 3.12871 13.8456C3.58431 14.3075 4.13164 14.5379 4.80937 14.3193C5.05415 14.2404 5.29347 14.1446 5.53395 14.0544C6.11096 13.8383 6.71022 13.7429 7.31885 13.8658C7.71081 13.945 8.09066 14.0867 8.46622 14.2235C9.28255 14.5214 9.9025 14.4073 10.5025 13.8118C11.005 13.3132 11.4149 12.7482 11.7647 12.1476C11.9677 11.799 12.1321 11.431 12.3136 11.0729C9.93217 9.92631 9.61946 6.80321 11.8322 5.22405L11.8318 5.22368Z" fill="#410EAD"/>
<path d="M1.78966 7.39981C1.76702 7.62105 1.74516 7.8001 1.73149 7.97988C1.67684 8.68911 1.78966 9.38073 1.99931 10.0588C2.22027 10.7735 2.53376 11.4501 2.96788 12.076C3.02176 12.1534 3.06236 12.2554 3.06158 12.3457C3.06041 12.4697 2.97296 12.5636 2.83788 12.5959C2.68406 12.6326 2.55679 12.5845 2.47832 12.4558C2.26204 12.101 2.02702 11.7539 1.84354 11.3844C1.43245 10.5574 1.15722 9.68746 1.10725 8.7724C1.08265 8.32257 1.12677 7.86798 1.15995 7.41705C1.1744 7.22186 1.33056 7.11435 1.50506 7.1305C1.67254 7.14591 1.79044 7.27469 1.79005 7.40054L1.78966 7.39981Z" fill="#410EAD"/>
<path d="M2.01214 5.91349C2.05352 5.94614 2.16049 5.99641 2.21124 6.07786C2.33109 6.27049 2.10974 6.65427 1.87355 6.68729C1.72129 6.70857 1.6112 6.64693 1.54483 6.52035C1.42888 6.29947 1.68694 5.90872 2.01175 5.91312L2.01214 5.91349Z" fill="#410EAD"/>
</svg>
