<svg width="15" height="15" viewBox="0 0 15 15" fill="none" xmlns="http://www.w3.org/2000/svg">
<path d="M4.76771 9.7595C4.74392 9.85328 4.72973 9.93914 4.7001 10.0196C4.5532 10.416 4.14714 10.5914 3.67848 10.4614C3.32417 10.363 3.06376 10.1446 2.87471 9.79743C2.77413 9.91913 2.68148 10.0267 2.59384 10.1384C2.20489 10.6339 2.00499 11.1979 2.00207 11.8268C1.9979 12.7104 2.00082 13.5936 2.00082 14.4997H2.1882C3.58375 14.4997 4.97929 14.4997 6.37484 14.4997C6.427 14.4997 6.48001 14.4947 6.53092 14.5035C6.66572 14.5273 6.7471 14.6102 6.74793 14.7482C6.74876 14.8861 6.66697 14.9686 6.53301 14.9949C6.49294 15.0028 6.44996 14.9987 6.40822 14.9987C4.8879 14.9987 3.36715 14.9987 1.84683 14.9987C1.57932 14.9987 1.50128 14.9215 1.50086 14.6577C1.50086 13.722 1.49878 12.7859 1.50128 11.8502C1.50378 11.0678 1.75501 10.3726 2.25164 9.767C2.39019 9.5982 2.53625 9.43523 2.66771 9.26101C2.7132 9.20057 2.73532 9.11638 2.74909 9.03969C2.82755 8.59871 2.67439 8.26111 2.32801 7.9706C2.0267 7.7176 1.77046 7.41084 1.49627 7.12575C1.43785 7.06489 1.38944 7.03947 1.29554 7.06489C0.991721 7.147 0.723379 7.06406 0.524314 6.82107C0.318154 6.56932 0.286437 6.28298 0.434588 5.98997C0.477156 5.90619 0.462549 5.85076 0.419982 5.7774C0.261814 5.50482 0.0581581 5.25265 0.0155906 4.92547C-0.0369928 4.52367 0.0414649 4.16231 0.281011 3.82053C0.844404 3.01695 1.63232 2.57139 2.55169 2.29547C3.19313 2.10291 3.82288 1.86992 4.45221 1.63901C4.60745 1.58191 4.75477 1.47979 4.87913 1.36851C5.06443 1.20262 5.2251 1.00881 5.39871 0.829171C5.58859 0.632859 5.78307 0.670371 5.87697 0.922534C6.01301 1.28723 6.14823 1.65235 6.27718 2.01955C6.42074 2.42801 6.37609 2.8173 6.1378 3.18158C6.0898 3.25494 6.04223 3.3283 5.98505 3.41582C6.27218 3.53128 6.39278 3.76593 6.47834 4.03227C6.54678 4.24442 6.63108 4.45157 6.70787 4.66122C6.88773 5.15262 6.80719 5.42062 6.37692 5.73406C6.49503 5.9087 6.61438 6.08375 6.73165 6.26006C6.85477 6.4447 6.85059 6.56849 6.67031 6.68602C6.34646 6.89734 6.17744 7.15117 6.13529 7.56547C6.0752 8.15315 5.69501 8.57079 5.15248 8.82253C5.06318 8.86421 4.96636 8.89005 4.8783 8.93382C4.82989 8.95758 4.75769 9.00509 4.75894 9.03969C4.76061 9.09345 4.80485 9.15931 4.85034 9.19598C4.98806 9.30644 5.13746 9.4023 5.27852 9.509C5.91745 9.99165 6.3306 10.6214 6.50755 11.4029C6.54761 11.5801 6.48 11.7105 6.33311 11.7472C6.1908 11.7826 6.06894 11.6939 6.02595 11.5142C5.85401 10.794 5.45964 10.2284 4.84783 9.81201C4.82279 9.79492 4.79734 9.77909 4.76771 9.75991V9.7595ZM5.52641 1.41769C5.45713 1.49105 5.40372 1.54065 5.35781 1.59691C5.12703 1.88075 4.82947 2.05289 4.48309 2.16709C3.74776 2.40967 3.02244 2.68267 2.28502 2.919C1.57682 3.14574 1.04723 3.58963 0.639496 4.19065C0.561873 4.30485 0.525983 4.45699 0.504699 4.59703C0.444187 4.99716 0.714615 5.27474 0.885303 5.58234C0.907004 5.58443 0.918272 5.58943 0.926618 5.58609C1.77672 5.27725 2.62681 4.96881 3.47482 4.65538C3.51113 4.64204 3.54953 4.58494 3.55495 4.5441C3.60044 4.21524 3.78824 4.00976 4.09331 3.89973C4.47933 3.76052 4.86661 3.62339 5.25097 3.47918C5.31483 3.45542 5.38243 3.41207 5.42124 3.3583C5.53392 3.20284 5.63408 3.0382 5.73758 2.87607C5.8561 2.69059 5.89366 2.48428 5.83106 2.27796C5.74551 1.99579 5.6345 1.7207 5.52558 1.41811L5.52641 1.41769ZM5.8899 5.90744C5.5598 6.02707 5.23845 6.14419 4.91669 6.26006C4.688 6.34217 4.44261 6.35342 4.26358 6.19379C4.08079 6.03082 3.93055 6.06791 3.75277 6.15544C3.72021 6.17128 3.68599 6.18712 3.65052 6.19295C3.52157 6.21379 3.49444 6.28882 3.49778 6.41219C3.51364 6.99987 3.51572 7.58714 3.29245 8.14732C3.28077 8.1765 3.27993 8.22901 3.29788 8.24777C3.50946 8.46617 3.73148 8.71041 4.06534 8.65165C4.48935 8.57704 4.9071 8.44783 5.24972 8.16899C5.37492 8.0673 5.46256 7.91933 5.56731 7.79262C5.45296 7.75928 5.37534 7.76053 5.2973 7.75886C5.11367 7.75553 5.00183 7.66092 5.00183 7.50962C5.00183 7.3579 5.11284 7.26287 5.29688 7.26037C5.42458 7.25871 5.55228 7.26037 5.68875 7.26037C5.68875 7.19035 5.69334 7.14367 5.68792 7.09782C5.66496 6.90026 5.74634 6.76063 5.91035 6.65268C6.02094 6.57974 6.11902 6.48805 6.22543 6.4026C6.109 6.23088 6.00175 6.07291 5.88949 5.90744H5.8899ZM3.67932 5.11553C3.44812 5.20014 3.23862 5.27683 3.0287 5.35352C2.37016 5.59401 1.71078 5.83367 1.05265 6.07583C0.864436 6.14502 0.796412 6.29757 0.877373 6.45428C0.947067 6.58891 1.06934 6.6235 1.25297 6.55515C2.08053 6.24714 2.90809 5.93829 3.73524 5.62902C3.77196 5.61527 3.8066 5.59485 3.8475 5.57442C3.79074 5.41979 3.73732 5.27516 3.6789 5.11553H3.67932ZM6.33102 5.0751L6.30097 5.04551C6.29847 5.03008 6.29805 5.01425 6.29262 4.99966C6.1716 4.66372 6.05767 4.32486 5.92412 3.99351C5.87488 3.87097 5.75385 3.83095 5.62114 3.87764C5.47424 3.9289 5.32734 3.98058 5.18295 4.03727C5.01018 4.10479 4.95467 4.21983 5.01644 4.39572C5.12077 4.69373 5.22927 4.99049 5.34195 5.28558C5.40163 5.4423 5.5189 5.49815 5.67748 5.44772C5.83064 5.39895 5.98672 5.35269 6.12861 5.27975C6.20999 5.23765 6.26425 5.1447 6.33102 5.07468V5.0751ZM4.24855 9.1393C3.87755 9.20349 3.55954 9.10096 3.25406 8.89339C3.25406 9.05552 3.24404 9.19598 3.25614 9.33395C3.28786 9.69698 3.60587 9.99415 3.96101 10.0046C4.1196 10.0092 4.23895 9.9258 4.24605 9.78075C4.25648 9.56944 4.24855 9.3577 4.24855 9.1393ZM1.89357 6.84983C2.24746 7.1741 2.57131 7.47086 2.88764 7.76011C3.03079 7.36374 3.00074 6.91026 2.9974 6.43803C2.63349 6.57391 2.28669 6.70311 1.89357 6.84983ZM4.45429 4.30444C4.4184 4.31694 4.36499 4.33445 4.31199 4.35362C4.05241 4.4474 4.00525 4.54535 4.09748 4.80168C4.19054 5.06009 4.28444 5.31851 4.37959 5.57651C4.46014 5.79491 4.56948 5.84618 4.78983 5.77032C4.85702 5.74739 4.92254 5.71989 4.96343 5.70446C4.79316 5.23598 4.62707 4.77959 4.45429 4.30485V4.30444Z" fill="#410EAD"/>
<path d="M9.80905 7.56024C9.56533 7.6907 9.33246 7.82949 9.08749 7.94078C8.95352 8.00163 8.79995 8.03789 8.65221 8.04831C8.36718 8.06832 8.1535 7.85784 8.20901 7.58067C8.25784 7.33642 8.36676 7.10093 8.47318 6.87294C8.53119 6.74874 8.68768 6.73123 8.80036 6.80084C8.91096 6.86877 8.94851 7.00006 8.89092 7.12927C8.8325 7.25973 8.76948 7.38852 8.70897 7.51773C8.72149 7.5319 8.73401 7.54607 8.74653 7.56024C8.96646 7.44687 9.18681 7.33392 9.41384 7.21722C8.41809 6.05018 8.66431 4.57805 9.48854 3.75487C10.309 2.93586 11.7822 2.6837 12.9549 3.67943C13.0717 3.45519 13.1852 3.23679 13.2987 3.01881C13.2875 3.00547 13.2762 2.99171 13.2649 2.97838C13.1506 3.02881 13.0337 3.07466 12.9223 3.13051C12.7466 3.21804 12.6056 3.19344 12.5309 3.05423C12.457 2.91627 12.5083 2.77331 12.6903 2.69204C12.8831 2.60576 13.0826 2.52031 13.2883 2.47989C13.5921 2.42028 13.8271 2.62952 13.782 2.93545C13.7474 3.17094 13.6476 3.40018 13.5529 3.62233C13.4865 3.77821 13.3801 3.91742 13.2916 4.06414C14.07 5.20741 13.7778 6.52867 13.0216 7.28349C12.2563 8.04748 10.93 8.32382 9.80988 7.56108L9.80905 7.56024ZM9.82699 6.89712C10.6767 6.29526 12.3439 4.61848 12.6277 4.08373C11.9704 3.39184 10.6642 3.24971 9.81364 4.12749C8.96479 5.0036 9.16135 6.28401 9.82699 6.89753V6.89712ZM13.2286 5.25243C13.1907 4.98193 13.1155 4.73685 12.9774 4.52428C12.5367 5.00443 12.1231 5.48709 11.6749 5.93431C11.2234 6.38487 10.7372 6.80042 10.2677 7.2293C10.9534 7.71613 12.0847 7.5294 12.5584 6.98881C11.9508 6.3707 12.2809 5.35329 13.2291 5.25243H13.2286ZM13.2078 5.77718C12.9887 5.79802 12.8426 5.91305 12.7762 6.11604C12.7149 6.30401 12.7616 6.47365 12.909 6.60077C13.0809 6.39487 13.2257 5.99558 13.2073 5.77718H13.2078Z" fill="#410EAD"/>
<path d="M9.64764 11.4532C9.49699 11.2519 9.35134 11.0572 9.19651 10.8505C8.88894 11.0647 8.58679 11.2748 8.28506 11.4853C7.96956 11.7058 7.65615 11.9296 7.33815 12.1467C6.65999 12.6102 5.85663 12.6169 5.16846 12.1659C4.82041 11.9375 4.47402 11.707 4.12931 11.4736C3.99368 11.3815 3.96363 11.244 4.04084 11.1227C4.11804 11.0018 4.25743 10.9747 4.39682 11.0547C4.42853 11.0727 4.45775 11.0943 4.48821 11.1143C4.79119 11.3161 5.09501 11.5174 5.39715 11.7199C5.96388 12.1001 6.53562 12.0976 7.09818 11.7066C7.70456 11.2848 8.31094 10.8622 8.91273 10.4337C8.97157 10.392 9.02081 10.3095 9.03542 10.2382C9.0951 9.94313 9.14059 9.64512 9.18858 9.34753C9.23991 9.03034 9.40517 8.8357 9.68145 8.77318C9.93935 8.71483 10.2048 8.81069 10.3467 9.0937C10.5236 9.44589 10.7732 9.55176 11.1525 9.51591C11.5189 9.4809 11.8912 9.50716 12.2614 9.50883C12.6349 9.5105 12.9099 9.72473 12.9863 10.0707C13.058 10.3954 12.8882 10.7159 12.5502 10.8622C11.7831 11.1948 11.0265 11.5578 10.1964 11.7191C10.1288 11.732 10.0625 11.7729 10.0057 11.815C9.27956 12.3556 8.55591 12.8999 7.83018 13.4409C6.87116 14.1553 5.72601 14.1911 4.72734 13.5355C4.1965 13.1875 3.66941 12.8336 3.14233 12.4806C2.99585 12.3827 2.96121 12.2459 3.0405 12.1209C3.12313 11.9909 3.26544 11.9713 3.42277 12.0692C3.44489 12.083 3.46618 12.098 3.48788 12.1122C3.96447 12.4289 4.44147 12.7449 4.91723 13.0633C5.82784 13.6726 6.71674 13.6518 7.59063 12.9983C8.22831 12.5214 8.86515 12.0442 9.50241 11.5666C9.5479 11.5324 9.59172 11.4965 9.64806 11.4528L9.64764 11.4532ZM9.52077 10.407C9.53454 10.4358 9.55166 10.4891 9.58296 10.5325C9.71775 10.7171 9.86507 10.893 9.9911 11.0835C10.0666 11.1977 10.1405 11.2135 10.2715 11.1869C10.9927 11.0401 11.6383 10.6975 12.3106 10.4237C12.4258 10.3766 12.5218 10.3137 12.4942 10.174C12.4654 10.0269 12.3494 10.0061 12.2184 10.0069C11.6771 10.0098 11.1358 10.0036 10.595 10.0107C10.4297 10.0127 10.3204 9.9548 10.2361 9.81518C10.1372 9.65096 10.0274 9.49216 9.91431 9.33669C9.88886 9.30168 9.82542 9.2675 9.78828 9.275C9.7503 9.28292 9.70231 9.33877 9.69438 9.38045C9.63345 9.71223 9.58087 10.0457 9.52077 10.407Z" fill="#410EAD"/>
<path d="M10.2462 0C10.3175 0.0395959 10.3902 0.0629366 10.439 0.110035C10.6823 0.344692 10.9214 0.583518 11.1572 0.825261C11.2874 0.958637 11.2853 1.08493 11.1522 1.2208C10.9193 1.45838 10.6844 1.69387 10.4457 1.92603C10.3117 2.05607 10.1852 2.05357 10.0496 1.92061C9.81174 1.68803 9.57594 1.45296 9.34349 1.21538C9.21287 1.08201 9.21537 0.956136 9.3485 0.82026C9.58179 0.582684 9.81674 0.34761 10.0559 0.11587C10.1051 0.068355 10.1752 0.0420967 10.2458 0L10.2462 0ZM9.88268 1.0049C10.015 1.13536 10.1423 1.2604 10.2537 1.37002C10.3705 1.25748 10.4966 1.13619 10.6026 1.03449C10.4832 0.908621 10.3605 0.778997 10.2357 0.646871C10.1193 0.765242 9.99912 0.886947 9.88268 1.0049Z" fill="#410EAD"/>
<path d="M7.76474 3.01774C7.99344 3.01774 8.22255 3.01566 8.45124 3.01816C8.71082 3.02149 8.8235 3.20572 8.69496 3.42537C8.46126 3.82383 8.22338 4.2202 7.98133 4.61366C7.85572 4.81789 7.64622 4.81873 7.52102 4.61533C7.27897 4.22187 7.04109 3.8255 6.80697 3.42745C6.67718 3.20655 6.78777 3.02149 7.04652 3.01816C7.28565 3.01524 7.52519 3.01732 7.76432 3.01732L7.76474 3.01774ZM7.44674 3.52415C7.55023 3.69629 7.64413 3.85175 7.75097 4.02848C7.85947 3.84842 7.95295 3.69254 8.05437 3.52415H7.44674Z" fill="#410EAD"/>
<path d="M13.9987 2.01951C13.7645 2.01951 13.5304 2.01826 13.2963 2.01993C13.1778 2.02076 13.0601 1.99159 13.0338 1.87238C13.0142 1.78444 13.0313 1.6619 13.0818 1.58896C13.3013 1.27344 13.5375 0.969596 13.7708 0.664083C13.9127 0.478191 14.0905 0.479441 14.2332 0.666167C14.4665 0.97168 14.7027 1.27594 14.9218 1.59146C14.9719 1.66357 14.9869 1.78736 14.966 1.8753C14.9381 1.99409 14.8191 2.02076 14.701 2.01993C14.4669 2.01784 14.2328 2.0191 13.9987 2.0191V2.01951ZM13.9949 1.1955C13.9127 1.30679 13.8409 1.40348 13.7641 1.50685H14.2382C14.1673 1.4114 14.1093 1.33263 14.0504 1.25469C14.0383 1.23885 14.0233 1.22551 13.9949 1.19592V1.1955Z" fill="#410EAD"/>
<path d="M15.0002 8.25612C14.9997 8.6725 14.6609 9.01011 14.2465 9.00761C13.8387 9.00553 13.5032 8.66959 13.502 8.26279C13.5007 7.84849 13.8392 7.5113 14.2561 7.51172C14.6625 7.51172 15.0006 7.85016 15.0002 8.25612ZM14.2473 8.50828C14.3813 8.50995 14.4952 8.40033 14.4994 8.26654C14.5035 8.12691 14.3859 8.00813 14.2456 8.01104C14.1117 8.01355 14.0007 8.12691 14.0015 8.26071C14.0019 8.39492 14.1129 8.50703 14.2473 8.5087V8.50828Z" fill="#410EAD"/>
<path d="M10.2448 6.01193C9.83083 6.00901 9.49489 5.66516 9.50156 5.25044C9.50824 4.84365 9.84586 4.51521 10.2565 4.51563C10.663 4.51646 11.0006 4.85532 10.9998 5.26128C10.9989 5.67766 10.6596 6.01443 10.2448 6.01193ZM10.2494 5.01537C10.1155 5.01537 10.0028 5.12707 10.0011 5.26086C9.99944 5.39507 10.1088 5.50886 10.2427 5.51261C10.3825 5.51636 10.5015 5.39882 10.499 5.25919C10.4965 5.1254 10.3834 5.01495 10.2494 5.01495V5.01537Z" fill="#410EAD"/>
</svg>
