<svg width="15" height="15" viewBox="0 0 15 15" fill="none" xmlns="http://www.w3.org/2000/svg">
<path d="M5.86731 9.2129C5.61904 8.96787 5.36411 8.72953 5.12753 8.47407C5.05784 8.39893 5.00485 8.2758 5.00402 8.17436C4.99484 7.23184 4.9986 6.28931 4.9986 5.34679C4.9986 5.0788 4.9214 4.99991 4.65812 4.99991C3.38801 4.99991 2.11791 4.99991 0.847804 4.99991C0.57993 4.99991 0.501487 5.07713 0.50107 5.34052C0.500653 5.78841 0.501487 6.2363 0.500653 6.68419C0.500653 6.88246 0.409275 6.99683 0.254059 6.9985C0.0984247 7.00059 0.00204024 6.88538 0.001623 6.69003C0.000371248 6.21626 -0.00129775 5.7425 0.001623 5.26831C0.00454374 4.82168 0.324574 4.50277 0.772699 4.50068C1.38689 4.49776 2.00108 4.49985 2.61527 4.49985C2.67118 4.49985 2.72751 4.49985 2.79802 4.49985C2.7225 4.0841 2.7225 3.68255 2.84726 3.29644C2.93113 3.03639 3.05171 2.78677 3.1748 2.54175C3.26075 2.37102 3.40304 2.33095 3.53489 2.4065C3.673 2.4854 3.69845 2.63149 3.59706 2.79846C3.30832 3.27431 3.18982 3.7844 3.27953 4.33831C3.28454 4.3692 3.28954 4.40008 3.29705 4.43014C3.30206 4.45017 3.31082 4.46896 3.31959 4.49359H3.99887C3.99887 4.40927 3.99887 4.3237 3.99887 4.23771C3.99887 3.92548 4.00179 3.61284 3.99762 3.30061C3.99595 3.16578 4.05061 3.07521 4.16493 3.00758C4.54964 2.77967 4.9335 2.5501 5.31487 2.31634C5.44004 2.23954 5.55228 2.23745 5.67829 2.31467C6.05966 2.54843 6.44353 2.778 6.82865 3.00508C6.94923 3.07646 7.00014 3.17288 6.99889 3.31272C6.99471 3.77104 7.00348 4.22936 6.99179 4.68727C6.98929 4.7791 6.94381 4.90892 6.87496 4.95316C6.45938 5.21989 6.03129 5.467 5.60653 5.71954C5.57565 5.7379 5.53977 5.74667 5.50388 5.76128V6.24173C5.80931 6.24632 6.09721 6.18997 6.36717 6.06558C6.5178 5.99587 6.64965 5.9942 6.79694 6.06725C6.95883 6.14781 7.12907 6.21209 7.33728 6.30142C7.28262 6.12986 7.24673 5.98835 7.19291 5.85395C7.11989 5.67154 7.14701 5.52627 7.27302 5.36682C7.93728 4.52698 7.89681 3.32148 7.18999 2.52088C6.46898 1.70399 5.29317 1.51198 4.36563 2.0588C4.33433 2.07716 4.30429 2.09803 4.27258 2.11557C4.12488 2.19696 3.97967 2.16565 3.90624 2.03709C3.83489 1.9127 3.87286 1.77996 4.01264 1.69022C4.53837 1.35211 5.11584 1.20059 5.73629 1.26153C6.99346 1.38509 7.95564 2.26333 8.19889 3.49721C8.31239 4.072 8.22935 4.62549 7.98944 5.1577C7.97483 5.19025 7.96065 5.22281 7.94646 5.25495C8.30196 5.17189 8.6537 5.09007 9.01503 5.00576C8.99959 4.9853 8.97915 4.95316 8.95411 4.92519C8.65077 4.58417 8.49639 4.18679 8.49681 3.7293C8.49723 3.08355 8.49514 2.43781 8.49723 1.79207C8.50057 0.767727 9.25912 0.00594262 10.2814 0.00135104C10.9214 -0.00157087 11.5619 0.00135104 12.202 9.87916e-05C12.3284 9.87916e-05 12.4427 0.0380837 12.4694 0.165396C12.4861 0.244705 12.4648 0.359077 12.4144 0.417515C12.3668 0.472614 12.2587 0.496407 12.1769 0.497242C11.5577 0.503503 10.9381 0.500164 10.3189 0.500998C9.527 0.501833 8.99793 1.03112 8.99667 1.82296C8.99584 2.45284 8.99459 3.08314 8.99667 3.71302C8.99918 4.43139 9.49612 4.95441 10.2134 4.99908C10.4086 5.01118 10.4925 5.09801 10.4946 5.29586C10.4967 5.48662 10.495 5.6778 10.5238 5.87941C10.6748 5.65275 10.8317 5.42985 10.9753 5.1986C11.0641 5.05501 11.1751 4.99449 11.3466 4.99657C11.9554 5.0045 12.5646 5.00033 13.1738 4.99949C13.9569 4.99824 14.491 4.46812 14.4927 3.68922C14.4939 3.05934 14.4943 2.42904 14.4927 1.79916C14.4906 1.06785 14.0007 0.548167 13.2722 0.500998C13.0978 0.489728 12.9935 0.39414 12.9952 0.247209C12.9973 0.0948523 13.1124 9.87916e-05 13.2935 0.00176846C14.1814 0.0105342 14.9625 0.761884 14.9863 1.65975C15.0051 2.38313 15.0038 3.10735 14.9871 3.83073C14.9663 4.724 14.2131 5.46992 13.3185 5.49455C12.8087 5.50874 12.2984 5.49831 11.7885 5.49914C11.7326 5.49914 11.6762 5.49914 11.6087 5.52502C11.6633 5.55758 11.7171 5.59056 11.7722 5.6227C14.0917 6.98055 14.7105 10.084 13.0853 12.2066C13.0598 12.2396 13.0365 12.2751 13.006 12.3026C12.9034 12.3949 12.789 12.407 12.6801 12.3214C12.5717 12.2362 12.5516 12.1198 12.6213 12.0008C12.6735 11.9115 12.7423 11.8318 12.8016 11.7462C14.1777 9.74552 13.4258 6.94465 11.2331 5.90362C11.2056 5.89068 11.1764 5.88108 11.1359 5.8648C10.9189 6.19038 10.7032 6.51346 10.4783 6.85115C10.6928 6.99516 10.8981 7.13375 11.1042 7.27107C11.2152 7.34496 11.2736 7.44138 11.2302 7.57579C11.1751 7.74568 10.9924 7.79451 10.8221 7.68223C10.4358 7.42719 10.0473 7.17465 9.66844 6.90876C9.5441 6.82152 9.45857 6.81317 9.32964 6.90458C8.95203 7.17215 8.56148 7.42176 8.1772 7.67973C8.07956 7.74526 7.98067 7.77573 7.87135 7.71187C7.7032 7.61336 7.70654 7.39713 7.88429 7.27608C8.21934 7.04734 8.55815 6.82402 8.8957 6.59862C9.0384 6.50345 9.18318 6.41078 9.3238 6.31269C9.44146 6.23087 9.55287 6.23046 9.6697 6.3131C9.7665 6.38156 9.86747 6.44501 9.98388 6.52181V5.53713C9.20321 5.42651 8.46677 5.56969 7.74117 5.90654C7.81878 6.15156 7.90181 6.39033 7.9669 6.6341C7.98735 6.71132 7.98485 6.81609 7.94813 6.88329C7.87803 7.01019 7.75286 7.02355 7.62142 6.96678C7.36857 6.85783 7.11363 6.75348 6.86286 6.63994C6.78442 6.60446 6.73685 6.61281 6.6751 6.675C6.23866 7.11496 5.92238 7.62755 5.71752 8.21151C5.68664 8.29875 5.70166 8.35135 5.76592 8.41396C6.05632 8.6978 6.34089 8.98749 6.62879 9.27384C6.71933 9.36358 6.78317 9.45959 6.72642 9.59233C6.67093 9.72298 6.56203 9.75095 6.43226 9.74928C6.13143 9.74635 5.83059 9.74844 5.51765 9.74844C5.53643 10.2147 5.64575 10.6451 5.82266 11.0579C6.84951 13.4572 9.8149 14.2519 11.9062 12.6929C11.9792 12.6386 12.0881 12.5906 12.1707 12.6027C12.2429 12.6136 12.3463 12.7083 12.3551 12.776C12.366 12.8611 12.3201 12.9884 12.2537 13.0427C11.8477 13.375 11.3892 13.6175 10.8889 13.7782C8.56232 14.5254 6.07176 13.2906 5.25437 10.9852C5.23893 10.9414 5.22308 10.8976 5.21139 10.8654C5.05659 10.9197 4.90638 10.9719 4.74866 11.0274C5.00861 11.8426 5.44255 12.5656 6.08553 13.1441C7.5071 14.4231 9.16274 14.8305 10.9836 14.2582C12.822 13.6805 13.9732 12.389 14.3838 10.5044C14.7096 9.00794 14.3537 7.63548 13.4249 6.41579C13.4028 6.38699 13.3786 6.35944 13.3578 6.3298C13.2664 6.19957 13.2797 6.05305 13.3895 5.96748C13.5034 5.87857 13.6532 5.88859 13.7458 6.02217C13.9682 6.34191 14.2077 6.65539 14.3846 6.99975C16.0507 10.2377 14.1363 14.1843 10.5634 14.8944C7.81961 15.4395 5.10458 13.8274 4.26591 11.1551C4.25047 11.1059 4.23336 11.057 4.21333 10.9982C4.1545 10.9982 4.09775 10.9982 4.04143 10.9982C2.9691 10.9982 1.89677 10.9982 0.824438 10.9982C0.306215 10.9982 0.00204024 10.6918 0.001623 10.1713C0.00120575 9.38487 0.00120575 8.59888 0.001623 7.81246C0.001623 7.63298 0.0696346 7.53154 0.203154 7.50399C0.367967 7.46977 0.499818 7.59499 0.500235 7.7941C0.501904 8.43984 0.50107 9.08558 0.50107 9.73133C0.50107 9.89287 0.498566 10.0544 0.501904 10.2155C0.505242 10.4004 0.597454 10.4969 0.781044 10.4973C2.09287 10.499 3.40429 10.499 4.71612 10.4973C4.90096 10.4973 4.99484 10.4017 4.99776 10.218C5.0011 9.9943 4.99693 9.77015 4.99901 9.54641C5.0011 9.34146 5.09039 9.25172 5.29442 9.24921C5.4801 9.24712 5.66578 9.24879 5.85187 9.24879C5.85729 9.23669 5.86272 9.22458 5.86773 9.21248L5.86731 9.2129ZM4.73615 3.25052C4.98608 3.40079 5.20764 3.5352 5.43128 3.66627C5.45924 3.68255 5.50806 3.69716 5.53059 3.68422C5.77009 3.54689 6.00625 3.40329 6.26203 3.25052C6.01168 3.10025 5.79053 2.96501 5.56605 2.83603C5.53267 2.81682 5.47134 2.81223 5.43963 2.83018C5.21098 2.96083 4.98691 3.09942 4.73615 3.25052ZM6.49694 3.6934C6.24742 3.84283 6.02127 3.97724 5.79721 4.11457C5.7751 4.12835 5.7509 4.16132 5.7509 4.18553C5.74756 4.46771 5.74881 4.74946 5.74881 5.0571C5.99874 4.90683 6.22114 4.77492 6.44144 4.63885C6.46731 4.62299 6.49443 4.58458 6.49485 4.5562C6.49902 4.27778 6.49735 3.99937 6.49735 3.6934H6.49694ZM5.24811 4.65847C5.24811 4.50945 5.25103 4.36377 5.24602 4.21851C5.24477 4.18303 5.22641 4.13336 5.19929 4.11624C4.97606 3.97599 4.74908 3.84242 4.50791 3.69716V4.49108C4.6406 4.49901 4.76744 4.49108 4.88677 4.5178C5.00527 4.54409 5.11626 4.60545 5.24811 4.65847ZM5.50514 7.40674C5.66327 7.16296 5.80347 6.94674 5.9541 6.71508C5.79429 6.72927 5.65201 6.74179 5.50514 6.75473V7.40674Z" fill="#410EAD"/>
<path d="M1.0003 7.74382C1.0003 7.1035 0.999883 6.46277 1.0003 5.82245C1.0003 5.58661 1.08458 5.50104 1.31824 5.50063C2.27082 5.49979 3.2234 5.49979 4.17598 5.50063C4.41173 5.50063 4.49768 5.58578 4.49768 5.8187C4.49851 7.10476 4.4981 8.39123 4.49768 9.67729C4.49768 9.91272 4.41256 9.99912 4.17932 9.99912C3.22674 9.99996 2.27416 9.99996 1.32158 9.99912C1.08584 9.99912 1.0003 9.91397 0.999883 9.68063C0.999048 9.03489 0.999883 8.38915 0.999883 7.7434L1.0003 7.74382ZM3.98864 9.49655V6.01154H1.51268V9.49655H3.98864Z" fill="#410EAD"/>
<path d="M11.7443 4.49969C11.302 4.49969 10.8597 4.50094 10.4174 4.49969C9.93882 4.49802 9.62255 4.18495 9.62088 3.70993C9.61921 3.23617 9.61921 2.7624 9.62088 2.28863C9.62255 1.82029 9.93799 1.50472 10.4032 1.50055C10.4291 1.50055 10.4554 1.49846 10.4812 1.50055C10.6632 1.5185 10.8021 1.49679 10.9089 1.30061C11.0233 1.09023 11.2498 1.00466 11.4935 1.0009C11.655 0.998397 11.816 0.998397 11.9775 1.0009C12.2783 1.00508 12.5087 1.13614 12.6514 1.40162C12.6918 1.47717 12.7344 1.50305 12.8183 1.50264C12.9789 1.50264 13.1437 1.49638 13.2989 1.52935C13.629 1.59948 13.8605 1.88833 13.8651 2.22518C13.8718 2.74069 13.8731 3.2562 13.8651 3.77129C13.8589 4.17828 13.5309 4.49384 13.1178 4.49843C12.6601 4.50344 12.202 4.49969 11.7438 4.49969H11.7443ZM11.7447 4.00004C12.187 4.00004 12.6292 4.00129 13.0719 3.99962C13.2689 3.99879 13.3661 3.90779 13.3674 3.71828C13.3703 3.23951 13.3703 2.76031 13.3674 2.28112C13.3661 2.09662 13.2714 2.00479 13.0865 2.00145C12.9096 1.99811 12.7327 2.00145 12.5558 2.00061C12.3489 1.99894 12.2792 1.93967 12.2433 1.7343C12.217 1.58403 12.1302 1.50431 11.9779 1.5018C11.8269 1.4993 11.6758 1.49888 11.5252 1.5018C11.3525 1.50514 11.2749 1.57652 11.2448 1.75183C11.2152 1.92506 11.1359 1.99727 10.9628 2.0002C10.7858 2.00312 10.6089 2.0002 10.432 2.00103C10.2084 2.0027 10.1216 2.08952 10.1212 2.31409C10.1199 2.77242 10.1199 3.23032 10.1212 3.68865C10.1216 3.91196 10.2096 3.9992 10.4341 4.00004C10.8714 4.00129 11.3087 4.00004 11.7455 4.00004H11.7447Z" fill="#410EAD"/>
<path d="M7.4968 9.63097C7.4968 9.90145 7.49806 10.1719 7.4968 10.4424C7.49555 10.6357 7.39666 10.7517 7.24103 10.7476C7.09082 10.7438 6.99819 10.6315 6.99777 10.4458C6.99652 9.81588 6.99903 9.186 6.9961 8.55612C6.99527 8.40919 7.04075 8.2944 7.19054 8.2585C7.342 8.22177 7.43296 8.30817 7.49722 8.43841C7.65077 8.75064 7.80807 9.06119 7.98123 9.40807C7.98916 9.33669 7.99625 9.30121 7.99625 9.26573C7.9975 9.0157 7.99416 8.76608 7.99834 8.51605C8.00084 8.35618 8.10348 8.25141 8.24535 8.25057C8.38721 8.24974 8.49445 8.35451 8.49486 8.51354C8.49778 9.16931 8.49653 9.82507 8.49611 10.4812C8.49611 10.6186 8.42852 10.7129 8.29542 10.7417C8.16816 10.7693 8.07344 10.7092 8.01544 10.5939C7.85272 10.2704 7.69082 9.94653 7.52851 9.62304C7.51808 9.62596 7.50765 9.62888 7.49722 9.6318L7.4968 9.63097Z" fill="#410EAD"/>
<path d="M9.50329 8.74968V9.25016C9.65976 9.25016 9.80914 9.24807 9.95851 9.25058C10.1325 9.2535 10.2406 9.34784 10.2439 9.49435C10.2472 9.64671 10.1354 9.74647 9.95392 9.74939C9.80872 9.75148 9.66352 9.74981 9.49578 9.74981C9.49578 9.94182 9.49578 10.1272 9.49578 10.3121C9.49578 10.3747 9.4987 10.4373 9.49453 10.4995C9.4841 10.6481 9.38187 10.7483 9.24585 10.7483C9.10983 10.7483 8.99926 10.6477 8.99842 10.4991C8.99467 9.83287 8.99467 9.16626 8.99842 8.50006C8.99926 8.35104 9.09648 8.25462 9.24543 8.25212C9.5784 8.24669 9.91136 8.24669 10.2443 8.25212C10.3929 8.25462 10.4934 8.36273 10.4938 8.49881C10.4943 8.64073 10.3899 8.74509 10.2306 8.74843C9.99231 8.75302 9.75364 8.74968 9.50329 8.74968Z" fill="#410EAD"/>
<path d="M11.284 11.4933C11.2193 11.581 11.1826 11.6682 11.1171 11.7129C10.6322 12.0447 10.1415 12.3674 9.65334 12.6938C9.54569 12.766 9.44138 12.7631 9.33415 12.6913C8.85056 12.3674 8.36488 12.046 7.88212 11.7204C7.73817 11.6236 7.70771 11.4825 7.79241 11.3585C7.87586 11.2358 8.01606 11.2137 8.16293 11.3101C8.571 11.5785 8.97907 11.8477 9.38213 12.1241C9.47059 12.1846 9.52817 12.1817 9.61454 12.1224C10.0176 11.8465 10.4228 11.5726 10.8358 11.3118C10.9063 11.2671 11.0278 11.2608 11.1079 11.288C11.175 11.3109 11.2164 11.409 11.2844 11.4925L11.284 11.4933Z" fill="#410EAD"/>
<path d="M11.9942 8.7494C11.9942 9.2958 11.9942 9.82007 11.9942 10.3448C11.9942 10.3969 11.9967 10.4491 11.9929 10.5009C11.9816 10.6491 11.8798 10.7492 11.7438 10.7488C11.6082 10.7488 11.5006 10.6482 11.4968 10.5C11.491 10.2508 11.4947 10.0008 11.4947 9.75162C11.4947 9.42478 11.4947 9.09794 11.4947 8.74982C11.405 8.74982 11.3236 8.75441 11.2427 8.74898C11.095 8.73938 10.9953 8.63503 10.9961 8.49895C10.9969 8.36287 11.0971 8.25518 11.2456 8.25309C11.5782 8.24767 11.9107 8.24767 12.2433 8.25309C12.3914 8.2556 12.4919 8.36371 12.4924 8.49979C12.4928 8.63586 12.393 8.73938 12.2449 8.7494C12.1682 8.75441 12.0905 8.75024 11.9937 8.75024L11.9942 8.7494Z" fill="#410EAD"/>
<path d="M12.9916 9.50739C12.9874 9.64263 12.8702 9.75324 12.7354 9.74865C12.5998 9.74448 12.4901 9.6276 12.4943 9.49236C12.4984 9.35628 12.6144 9.24692 12.75 9.25109C12.8856 9.25527 12.9954 9.37214 12.9912 9.50697L12.9916 9.50739Z" fill="#410EAD"/>
<path d="M2.73415 7.99874C2.5781 7.99874 2.42163 8.00208 2.266 7.9979C2.10619 7.99331 2.00146 7.89104 2.00146 7.74954C2.00146 7.60762 2.10578 7.50285 2.26558 7.50118C2.58812 7.497 2.91107 7.497 3.2336 7.50118C3.39341 7.50326 3.49814 7.6072 3.49814 7.74912C3.49814 7.89104 3.39382 7.99373 3.23402 7.99832C3.06754 8.00291 2.90105 7.99915 2.73457 7.99915L2.73415 7.99874Z" fill="#410EAD"/>
<path d="M2.74296 8.99797C2.58691 8.99797 2.43044 9.00089 2.27439 8.99714C2.10582 8.99338 1.99692 8.88861 2.00109 8.74168C2.00485 8.60059 2.10999 8.50124 2.27189 8.49957C2.58941 8.49624 2.90694 8.49624 3.22447 8.49957C3.39262 8.50124 3.50194 8.6081 3.49818 8.75462C3.49443 8.8957 3.38886 8.99338 3.22739 8.99714C3.06633 9.00089 2.90485 8.99797 2.74338 8.99797H2.74296Z" fill="#410EAD"/>
<path d="M2.99827 6.99741C2.90981 6.99741 2.82094 7.00325 2.7329 6.99616C2.59479 6.98447 2.50007 6.87845 2.50049 6.74821C2.50049 6.61798 2.59562 6.50903 2.73415 6.50235C2.91065 6.49401 3.08798 6.49401 3.26489 6.50235C3.403 6.50903 3.49771 6.61923 3.4973 6.74905C3.49688 6.87928 3.40175 6.98405 3.26322 6.99574C3.17518 7.00284 3.08631 6.99699 2.99785 6.99699L2.99827 6.99741Z" fill="#410EAD"/>
<path d="M11.7412 3.7509C11.3273 3.74923 10.9902 3.4057 10.9952 2.99037C11.0002 2.58297 11.339 2.2507 11.7475 2.25196C12.1618 2.25321 12.4985 2.59674 12.4935 3.01207C12.4885 3.41905 12.1493 3.75215 11.7412 3.7509ZM11.4959 2.99788C11.4938 3.13312 11.6056 3.24791 11.7408 3.25C11.8756 3.25209 11.9907 3.1398 11.9928 3.00456C11.9949 2.86932 11.8831 2.75453 11.7479 2.75244C11.6127 2.75035 11.498 2.86222 11.4959 2.99746V2.99788Z" fill="#410EAD"/>
</svg>
