<svg width="15" height="15" viewBox="0 0 15 15" fill="none" xmlns="http://www.w3.org/2000/svg">
<path d="M1.04559 4.56309C0.316727 4.32385 0.0383423 3.90891 0.00291151 3.17622C-0.0211308 2.67904 0.102877 2.27033 0.406569 1.87159C0.815288 1.33329 1.17466 0.758854 1.54795 0.196878C1.64158 0.0573191 1.75167 0 1.92123 0C5.64526 0.0037382 9.36928 0.0037382 13.092 0C13.254 0 13.3628 0.0510887 13.4539 0.18691C13.9361 0.908382 14.4258 1.62362 14.9066 2.3451C14.9585 2.4236 14.9851 2.52951 14.9926 2.62422C15.0066 2.79866 14.9964 2.97311 14.9964 3.14881C14.9964 3.91265 14.7054 4.31388 13.9626 4.56434V4.74876C13.9626 7.52998 13.9626 10.3124 13.9626 13.0937C13.9626 13.4189 13.8968 13.4849 13.5678 13.4849C12.5669 13.4849 11.566 13.4824 10.5651 13.4887C10.4588 13.4887 10.3424 13.5223 10.25 13.5746C9.49709 13.9946 8.74545 14.4182 8.0014 14.8519C7.65975 15.0512 7.3434 15.0487 7.00175 14.8481C6.26277 14.4145 5.51619 13.9946 4.76708 13.5784C4.66585 13.5223 4.53678 13.4899 4.42037 13.4887C3.41945 13.4812 2.41853 13.4849 1.41761 13.4849C1.12025 13.4849 1.04432 13.4114 1.04432 13.1211C1.04432 10.3336 1.04432 7.54742 1.04432 4.75997V4.56434L1.04559 4.56309ZM12.634 4.11202C12.3935 4.4036 12.0557 4.57805 11.6368 4.57929C11.2142 4.57929 10.8738 4.39737 10.6068 4.07713C10.088 4.69019 9.17568 4.7986 8.5278 4.07962C8.26334 4.40235 7.92042 4.58054 7.49651 4.57929C7.07388 4.57929 6.73602 4.39238 6.46649 4.07214C6.1919 4.40484 5.85278 4.57929 5.43394 4.57929C5.0113 4.57929 4.67218 4.39612 4.40139 4.07214C4.12806 4.39986 3.79147 4.57805 3.37263 4.57929C2.94872 4.58054 2.6096 4.39861 2.36918 4.11326C2.10092 4.28024 1.84658 4.43849 1.57072 4.61045V12.9666H3.68897C3.63203 12.9304 3.60419 12.9092 3.57382 12.893C3.25115 12.7248 3.10943 12.4619 3.11069 12.103C3.11576 10.8096 3.11449 9.51745 3.11069 8.22404C3.11069 7.88386 3.25115 7.63465 3.55358 7.47017C3.71302 7.38294 3.86992 7.29073 4.02936 7.20102C5.03914 6.62658 6.05018 6.05339 7.05869 5.47646C7.33201 5.3207 7.60787 5.28706 7.88499 5.44406C9.09723 6.1294 10.3082 6.81723 11.5154 7.5088C11.7672 7.65334 11.8925 7.88386 11.8937 8.16921C11.8963 9.50499 11.8963 10.8395 11.8937 12.1753C11.8937 12.4681 11.7621 12.6937 11.509 12.8494C11.4546 12.8831 11.399 12.9167 11.3218 12.9653H13.4388V4.61045C13.1616 4.43849 12.9073 4.28148 12.634 4.11077V4.11202ZM11.3787 10.1866C11.3787 9.5349 11.3762 8.88321 11.38 8.23151C11.38 8.08199 11.3256 7.98355 11.194 7.90878C10.0298 7.24961 8.86566 6.58795 7.70404 5.9238C7.56231 5.8428 7.4421 5.8453 7.29911 5.92629C6.15141 6.58297 5.00244 7.23715 3.84968 7.88511C3.69151 7.97482 3.62444 8.08448 3.62444 8.2664C3.63077 9.53739 3.63077 10.8084 3.62444 12.0806C3.62444 12.2613 3.68644 12.3734 3.84588 12.4632C4.99865 13.1124 6.14762 13.7653 7.29532 14.4232C7.44463 14.5092 7.56738 14.5055 7.71416 14.422C8.86693 13.7628 10.021 13.1074 11.1763 12.4544C11.318 12.3747 11.3812 12.2725 11.38 12.1093C11.3737 11.4688 11.3774 10.8271 11.3774 10.1866H11.3787ZM14.2499 2.28529C13.8538 1.70088 13.4767 1.14015 13.092 0.584405C13.0617 0.540793 12.9769 0.514625 12.9187 0.514625C9.30854 0.510887 5.6984 0.512133 2.08826 0.509641C1.98956 0.509641 1.93515 0.542039 1.88201 0.621787C1.53656 1.1389 1.18605 1.65353 0.838065 2.1694C0.815288 2.20305 0.797573 2.23918 0.769734 2.28529H14.2499ZM2.07814 2.80863H0.533107C0.533107 3.01174 0.517923 3.20737 0.536903 3.39927C0.57613 3.79427 0.935499 4.08585 1.33916 4.06965C1.73269 4.0547 2.06043 3.73695 2.07688 3.34693C2.08447 3.17373 2.07814 2.99928 2.07814 2.80863ZM4.14198 2.81113H2.59695C2.59695 2.99679 2.59062 3.16999 2.59695 3.34444C2.6134 3.74194 2.94746 4.06093 3.34859 4.0709C3.75224 4.08087 4.10529 3.78181 4.13945 3.38681C4.1559 3.19865 4.14198 3.008 4.14198 2.81113ZM4.66206 2.8049C4.66206 2.98433 4.65952 3.14632 4.66206 3.30955C4.66965 3.70829 4.97081 4.03227 5.36308 4.06841C5.75914 4.10454 6.12737 3.84536 6.19064 3.4516C6.2248 3.24226 6.19697 3.0242 6.19697 2.8049H4.66206ZM8.27472 2.80988H6.72969C6.72969 2.9943 6.72463 3.16875 6.72969 3.34195C6.74488 3.73944 7.07767 4.05968 7.4788 4.0709C7.88246 4.08087 8.23676 3.7843 8.27093 3.3893C8.28738 3.20114 8.27346 3.0105 8.27346 2.81113L8.27472 2.80988ZM10.3424 2.80988H8.79733C8.79733 3.00427 8.78721 3.18993 8.79986 3.3731C8.82643 3.76063 9.16682 4.06716 9.56289 4.0709C9.96654 4.07464 10.3145 3.7681 10.3411 3.3731C10.3538 3.18993 10.3436 3.00551 10.3436 2.80988H10.3424ZM10.8624 2.8049C10.8624 2.99181 10.8574 3.16501 10.8624 3.33821C10.8764 3.71702 11.18 4.03102 11.5609 4.06716C11.9393 4.1033 12.3024 3.86654 12.3771 3.49771C12.4227 3.27466 12.4087 3.0404 12.4214 2.8049H10.8612H10.8624ZM12.9288 2.80739C12.9288 2.98807 12.9237 3.16127 12.9288 3.33323C12.9415 3.71328 13.2401 4.02729 13.6222 4.06716C14.0056 4.10703 14.3713 3.8653 14.4473 3.48774C14.4903 3.26968 14.4764 3.03916 14.4878 2.80614H12.9288V2.80739Z" fill="#410EAD"/>
<path d="M4.79089 10.1835C4.79089 10.6321 4.79089 11.0795 4.79089 11.528C4.79089 11.7087 4.79468 11.8882 4.78962 12.0688C4.78582 12.2308 4.67827 12.338 4.53148 12.3367C4.38596 12.3367 4.27588 12.2296 4.27588 12.0663C4.27334 10.9748 4.27461 9.88323 4.27588 8.79168C4.27588 8.65212 4.348 8.55492 4.48593 8.53C4.6441 8.5001 4.73521 8.58981 4.79215 8.72813C5.10217 9.49446 5.41472 10.2595 5.726 11.0259C5.74752 11.0795 5.77029 11.133 5.8247 11.1879V11.0333C5.8247 10.0689 5.8247 9.10444 5.8247 8.14123C5.8247 8.08889 5.81964 8.03407 5.8285 7.98298C5.85381 7.84591 5.93985 7.76367 6.08284 7.76367C6.22583 7.76367 6.31061 7.84716 6.33719 7.98423C6.34478 8.02535 6.34098 8.06896 6.34098 8.11132C6.34098 9.57296 6.34098 11.0358 6.34098 12.4975C6.34098 12.5398 6.35617 12.5947 6.33465 12.6221C6.27518 12.7018 6.20812 12.814 6.1284 12.8289C6.04868 12.8439 5.94365 12.7654 5.8614 12.7093C5.82344 12.6844 5.81458 12.6171 5.79434 12.5673C5.47166 11.7723 5.14772 10.976 4.82505 10.181C4.81366 10.181 4.80227 10.1823 4.79089 10.1835Z" fill="#410EAD"/>
<path d="M7.50407 10.5586C7.50407 11.4034 7.50407 12.2246 7.50407 13.0445C7.50407 13.0869 7.50407 13.1292 7.50407 13.1716C7.50154 13.3672 7.39904 13.4869 7.23834 13.4819C7.0827 13.4781 6.98779 13.3635 6.98779 13.1741C6.98779 12.3691 6.98779 11.5642 6.98779 10.758C6.98779 9.58667 6.98779 8.41662 6.98779 7.24531C6.98779 6.8852 7.39904 6.64596 7.71412 6.82165C8.01275 6.98863 8.31138 7.15809 8.60875 7.3288C8.78717 7.43098 8.84158 7.56929 8.76186 7.70636C8.68214 7.84467 8.53156 7.86959 8.35441 7.77115C8.08361 7.62038 7.81282 7.46836 7.54203 7.31634C7.53823 7.31509 7.53191 7.31759 7.51672 7.32132V10.0477C7.74829 10.0477 7.98238 10.0477 8.21648 10.0477C8.28102 10.0477 8.34555 10.0452 8.41008 10.049C8.5632 10.0602 8.66696 10.1648 8.66569 10.3032C8.66569 10.4415 8.56067 10.5511 8.40755 10.5549C8.15448 10.5611 7.9014 10.5574 7.64832 10.5574C7.60657 10.5574 7.56481 10.5574 7.50407 10.5574V10.5586Z" fill="#410EAD"/>
<path d="M10.0876 8.76184C10.0876 9.85838 10.0876 10.9225 10.0876 11.9854C10.0876 12.049 10.0889 12.1125 10.0876 12.1761C10.0826 12.3505 9.98385 12.4614 9.83201 12.4639C9.68016 12.4652 9.57387 12.3543 9.5726 12.181C9.56881 11.9318 9.5726 11.6839 9.5726 11.4347C9.5726 10.5026 9.56881 9.57054 9.5764 8.63973C9.5764 8.50266 9.53844 8.42416 9.41317 8.37182C9.33471 8.33818 9.26132 8.29207 9.18919 8.24597C9.05633 8.15999 9.01963 8.02542 9.08923 7.9033C9.16009 7.78119 9.30308 7.73135 9.43721 7.80486C9.8725 8.04535 10.3053 8.29207 10.7342 8.54253C10.8696 8.62228 10.9 8.76558 10.8279 8.88645C10.7557 9.00607 10.6153 9.0447 10.4761 8.97617C10.3533 8.91511 10.2344 8.84408 10.0889 8.76184H10.0876Z" fill="#410EAD"/>
</svg>
