<svg width="15" height="15" viewBox="0 0 15 15" fill="none" xmlns="http://www.w3.org/2000/svg">
<path d="M2.22242 15.0002C2.12234 14.9793 2.02115 14.9584 1.92218 14.9365C0.496638 14.6217 -0.356243 13.189 0.144144 11.8961C0.573364 10.7888 1.01593 9.68353 1.50742 8.59914C2.03116 7.44385 3.0108 6.83075 4.34739 6.80677C6.03314 6.77653 7.72 6.79217 9.40574 6.80156C10.7212 6.80886 11.8265 7.55125 12.3135 8.73052C12.7283 9.73462 13.142 10.7387 13.5545 11.7439C14.1628 13.2245 13.2565 14.7124 11.5863 14.9772C11.5674 14.9803 11.5496 14.9929 11.5307 15.0002H10.9681C10.9492 14.9929 10.9314 14.9803 10.9125 14.9772C10.3053 14.9011 9.80605 14.6363 9.38684 14.2234C8.92426 13.7687 8.45279 13.3214 7.98687 12.8689C7.83787 12.724 7.66218 12.652 7.44534 12.6552C7.08173 12.6604 6.717 12.6635 6.35339 12.6541C6.10097 12.6479 5.90415 12.7282 5.73179 12.8992C5.26254 13.3621 4.78551 13.8167 4.3107 14.2755C3.97711 14.5977 3.58013 14.8187 3.11533 14.9292C3.00524 14.9553 2.89516 14.9762 2.78396 15.0002H2.2213H2.22242ZM6.8838 7.9704C6.05093 7.9704 5.21806 7.95789 4.3852 7.97353C3.56234 7.98917 2.95632 8.35828 2.64496 9.07252C2.18795 10.1235 1.76762 11.1881 1.33395 12.2485C1.21275 12.5446 1.22609 12.8428 1.36286 13.1317C1.71869 13.8824 2.75505 14.067 3.38331 13.4841C3.89371 13.0097 4.38742 12.5207 4.88781 12.0379C5.27033 11.6698 5.73402 11.4832 6.28333 11.4853C6.65807 11.4863 7.0328 11.4915 7.40753 11.4842C8.00466 11.4728 8.49949 11.675 8.91092 12.0796C9.37683 12.5394 9.85387 12.9899 10.3242 13.4455C10.5622 13.677 10.848 13.8125 11.1916 13.8261C12.1156 13.8605 12.735 13.0222 12.3969 12.1912C11.9833 11.1766 11.5652 10.1632 11.1471 9.14967C10.8357 8.39582 10.1686 7.9704 9.30233 7.9704C8.49504 7.9704 7.68886 7.9704 6.88157 7.9704H6.8838Z" fill="#410EAD"/>
<path d="M3.75223 4.59339C3.75223 3.70503 3.75223 2.81667 3.75223 1.92935C3.75223 1.49455 3.75112 1.06079 3.75223 0.625995C3.75334 0.267313 4.01465 0.00664318 4.3716 0.00455782C4.73521 0.00247246 5.00097 0.264185 5.00097 0.631209C5.00097 1.97314 5.0032 3.31611 5.00097 4.65804C5.00097 5.27843 4.5673 5.75181 3.92125 5.85087C3.32746 5.94158 2.75146 5.59541 2.55352 5.01776C2.14321 3.81555 1.73956 2.6123 1.33258 1.40905C1.3159 1.36108 1.29589 1.31312 1.25363 1.27037C1.25363 1.32251 1.25363 1.3736 1.25363 1.42573C1.25363 2.69989 1.25474 3.97404 1.25363 5.24715C1.25363 5.67778 0.845538 5.96243 0.427437 5.83001C0.165012 5.7466 0.00488874 5.52659 0.00488874 5.24194C0.00488874 4.29519 0.00488874 3.34843 0.00488874 2.40168C0.00488874 2.0065 0.00377677 1.61133 0.00488874 1.21511C0.00711268 0.586373 0.441893 0.10674 1.09128 0.0128993C1.68619 -0.0726005 2.25552 0.273569 2.45456 0.854342C2.86821 2.06489 3.27519 3.27857 3.68551 4.49017C3.69774 4.52562 3.7122 4.56107 3.72443 4.59652C3.73333 4.59548 3.74222 4.59444 3.75112 4.59339H3.75223Z" fill="#410EAD"/>
<path d="M7.50071 2.34759C8.14565 2.34759 8.76502 2.34446 9.38439 2.34863C9.68351 2.35072 9.92035 2.54049 9.98596 2.81367C10.046 3.06391 9.91368 3.34022 9.65904 3.4497C9.55896 3.4935 9.43998 3.51435 9.32879 3.51644C8.78281 3.52269 8.23572 3.51956 7.68974 3.51956C7.63303 3.51956 7.57743 3.51956 7.50071 3.51956C7.50071 3.58108 7.50071 3.63217 7.50071 3.68431C7.50071 4.19626 7.50071 4.70926 7.50071 5.22122C7.50071 5.60075 7.23828 5.86455 6.87022 5.86142C6.50883 5.8583 6.25196 5.59554 6.25196 5.22435C6.25196 4.0774 6.24974 2.93045 6.25196 1.7835C6.25419 0.7794 7.08038 0.0078163 8.15455 0.00468826C8.55041 0.00364558 8.94516 0.00364558 9.34102 0.00468826C9.72131 0.00677362 9.9993 0.254932 9.9993 0.589632C9.9993 0.924332 9.72242 1.17353 9.34102 1.17562C8.95628 1.1777 8.57042 1.17562 8.18568 1.17562C7.75313 1.17562 7.50182 1.41543 7.50071 1.82417C7.50071 1.99412 7.50071 2.16304 7.50071 2.34759Z" fill="#410EAD"/>
<path d="M13.7488 1.17513C13.7488 1.25542 13.7488 1.31381 13.7488 1.37115C13.7488 2.66408 13.7499 3.957 13.7488 5.24888C13.7488 5.67742 13.3363 5.96207 12.9204 5.82757C12.6591 5.74311 12.5012 5.52415 12.5012 5.23741C12.5012 3.94449 12.5012 2.65156 12.5012 1.35968C12.5012 1.30234 12.5012 1.24499 12.5012 1.17409C12.2955 1.17409 12.1042 1.17513 11.913 1.17409C11.5315 1.17096 11.2536 0.925929 11.2524 0.591229C11.2513 0.255486 11.5282 0.00419979 11.9063 0.00315711C12.718 0.00107175 13.5298 0.00211443 14.3415 0.00315711C14.7218 0.00315711 14.9998 0.252358 14.9998 0.587058C14.9998 0.921758 14.7229 1.17096 14.3426 1.17409C14.1514 1.17513 13.9601 1.17409 13.7499 1.17409L13.7488 1.17513Z" fill="#410EAD"/>
<path d="M4.98708 10.3136C4.7847 10.3136 4.58121 10.3167 4.37883 10.3136C4.02412 10.3073 3.75391 10.0519 3.75391 9.72863C3.75391 9.4054 4.02523 9.14786 4.37883 9.14473C4.79471 9.14056 5.21059 9.14056 5.62646 9.14473C5.98118 9.1489 6.25139 9.4054 6.25139 9.72967C6.25139 10.0529 5.98007 10.3084 5.62646 10.3146C5.41297 10.3188 5.20058 10.3146 4.98708 10.3146V10.3136Z" fill="#410EAD"/>
<path d="M8.76591 9.14208C8.96829 9.14208 9.17178 9.13895 9.37416 9.14208C9.72888 9.14834 9.99909 9.40379 9.99909 9.72703C9.99909 10.0503 9.72777 10.3078 9.37305 10.3109C8.95717 10.3151 8.54129 10.3151 8.12542 10.3109C7.7707 10.3068 7.50049 10.0492 7.50049 9.72598C7.50049 9.40275 7.77181 9.14729 8.12653 9.14104C8.34003 9.13791 8.55241 9.14104 8.76591 9.14104V9.14208Z" fill="#410EAD"/>
</svg>
