<svg width="15" height="15" viewBox="0 0 15 15" fill="none" xmlns="http://www.w3.org/2000/svg">
<path d="M7.90699 15H4.09979C3.94372 14.9135 3.78608 14.8294 3.63157 14.7405C2.65679 14.1786 1.68709 13.6076 0.706051 13.0573C0.355959 12.8609 0.0903589 12.6194 0 12.2171V2.78404C0.085665 2.42635 0.297285 2.17824 0.618431 1.99469C1.71017 1.37088 2.79291 0.730246 3.88348 0.104088C3.99222 0.0414719 4.13265 0.00625045 4.259 0.00546775C5.41567 -0.00196788 6.57234 -0.00040248 7.72901 0.00194561C8.17494 0.00272831 8.48944 0.322852 8.49452 0.770946C8.49609 0.92592 8.49452 1.08089 8.49452 1.25348C8.5665 1.25348 8.624 1.25348 8.68111 1.25348C10.4969 1.25348 12.3127 1.26405 14.1281 1.24722C14.7078 1.24174 15.0031 1.64639 15 2.11327C14.9863 4.3737 14.9941 6.63413 14.9937 8.89457C14.9937 9.45537 14.6968 9.75279 14.1367 9.75279C12.8188 9.75279 11.501 9.75279 10.1832 9.75279H10.0021V11.7495C10.0631 11.7495 10.1159 11.7495 10.1683 11.7495C10.7688 11.7495 11.3688 11.7479 11.9692 11.7502C12.2775 11.7514 12.4828 11.9518 12.4957 12.2598C12.5012 12.3913 12.4973 12.5235 12.4973 12.655C12.4965 13.0609 12.3115 13.2471 11.9078 13.2475C10.829 13.2475 9.75055 13.2475 8.67172 13.2475H8.49413C8.49413 13.6029 8.49922 13.9347 8.49257 14.2662C8.48631 14.5656 8.33923 14.7836 8.0748 14.9217C8.02004 14.9503 7.96293 14.9742 7.9066 15H7.90699ZM7.99579 7.50058C7.99579 5.28437 7.99579 3.06816 7.99579 0.851564C7.99579 0.576837 7.92108 0.500133 7.65196 0.500133C6.54887 0.500133 5.44618 0.500133 4.3431 0.500133C4.0775 0.500133 3.99926 0.575272 3.99926 0.836693C3.99887 5.27889 3.99887 9.72149 3.99926 14.1637C3.99926 14.4247 4.07789 14.5006 4.34271 14.5006C5.43092 14.5006 6.51914 14.5006 7.60775 14.5006C7.93203 14.5006 7.99579 14.438 7.99579 14.1199C7.99579 11.9134 7.99579 9.70661 7.99579 7.50019V7.50058ZM13.4889 2.76526H8.50274V8.23866H13.4889V2.76526ZM3.48958 0.923181C3.41799 0.962316 3.37144 0.986971 3.32568 1.01319C2.49797 1.49064 1.67301 1.97239 0.841785 2.44318C0.597308 2.58172 0.494432 2.768 0.495214 3.0486C0.50069 5.25502 0.498343 7.46105 0.498343 9.66748C0.498343 9.70661 0.493649 9.74653 0.50069 9.7841C0.505384 9.80836 0.522204 9.84006 0.542545 9.84946C0.687276 9.91559 0.834353 9.97665 0.997469 10.0467V9.84985C0.997469 7.91698 0.997469 5.9841 0.997469 4.05123C0.997469 3.78277 0.995513 3.5143 0.998251 3.24584C1.00021 3.05721 1.07375 2.89754 1.24351 2.8087C1.59282 2.62555 1.94409 2.44514 2.302 2.2792C2.57934 2.15045 2.90244 2.30856 2.97637 2.59698C2.99788 2.68034 2.99554 2.77113 2.99554 2.85879C2.99632 5.47496 2.99632 8.09152 2.99632 10.7077C2.99632 10.7515 2.99123 10.7965 2.99866 10.8392C3.00375 10.8689 3.01901 10.9108 3.04169 10.9218C3.18447 10.9887 3.33115 11.0478 3.48958 11.1155V0.923181ZM8.50313 2.25298H8.68228C10.2489 2.25298 11.8155 2.26159 13.3821 2.24751C13.8241 2.24359 14.0029 2.52654 14.0009 2.86388C13.9908 4.62143 13.9962 6.37898 13.9962 8.13652C13.9962 8.56701 13.8116 8.7529 13.3829 8.7529C11.8163 8.7529 10.2497 8.7529 8.68306 8.7529C8.62595 8.7529 8.56845 8.7529 8.50548 8.7529V9.24639C8.55398 9.24913 8.59231 9.25265 8.63065 9.25265C10.4754 9.25265 12.3205 9.25304 14.1652 9.25265C14.4121 9.25265 14.495 9.16616 14.495 8.91335C14.495 6.63844 14.495 4.36353 14.495 2.08823C14.495 1.82954 14.4167 1.75323 14.1508 1.75323C12.3205 1.75323 10.4902 1.75323 8.65998 1.75323C8.60835 1.75323 8.55672 1.75754 8.50274 1.75988V2.25259L8.50313 2.25298ZM3.48527 14.0784C3.49153 14.0295 3.49623 14.0107 3.49623 13.9915C3.49662 13.2499 3.49505 12.5087 3.49936 11.7671C3.49975 11.6724 3.45163 11.643 3.37966 11.6121C2.46199 11.22 1.54471 10.8263 0.627427 10.4337C0.589876 10.4177 0.549977 10.4079 0.497952 10.3911C0.497952 10.9284 0.504993 11.4454 0.495214 11.962C0.489738 12.2371 0.59809 12.4198 0.837091 12.5545C1.52006 12.9399 2.19678 13.3368 2.87584 13.7289C3.07259 13.8424 3.27013 13.9551 3.48527 14.0784ZM8.51213 9.76023V10.5026C8.60679 10.5026 8.68541 10.4956 8.76208 10.5042C8.90759 10.5202 8.9956 10.6212 8.99247 10.757C8.98935 10.8924 8.89781 10.9855 8.74917 10.9965C8.6682 11.0024 8.58684 10.9977 8.50587 10.9977V11.7381H9.48182V9.76062H8.51173L8.51213 9.76023ZM11.99 12.2609H8.50391V12.7392H11.99V12.2609ZM2.48702 6.49403V4.79832C2.15179 4.85467 1.82791 4.90907 1.50833 4.96268V6.49403H2.48702ZM2.48976 7.00905H1.50324C1.5009 7.06384 1.49699 7.11119 1.49699 7.15893C1.49659 7.5542 1.5052 7.94946 1.49229 8.34433C1.48721 8.49813 1.52867 8.55566 1.68357 8.57327C1.95113 8.6034 2.21634 8.65741 2.48976 8.70241V7.00944V7.00905ZM1.49738 4.45628C1.78645 4.40736 2.05831 4.35061 2.3329 4.3197C2.47685 4.30326 2.50189 4.24417 2.49915 4.11502C2.49093 3.73972 2.49641 3.36402 2.49641 2.98872C2.49641 2.91319 2.49641 2.83727 2.49641 2.73473C2.16275 2.90262 1.8549 3.05642 1.54901 3.21414C1.52515 3.22666 1.49972 3.26462 1.49972 3.29084C1.49659 3.67515 1.49738 4.05945 1.49738 4.45667V4.45628ZM2.49563 10.6905C2.49563 10.2005 2.49641 9.73871 2.49328 9.27691C2.49328 9.25187 2.46394 9.20882 2.44282 9.20491C2.13341 9.14972 1.82322 9.10002 1.49738 9.04641C1.49738 9.44363 1.4962 9.82285 1.50011 10.2017C1.50011 10.2306 1.53219 10.2733 1.55996 10.2858C1.86116 10.4197 2.1647 10.5484 2.49602 10.6909L2.49563 10.6905Z" fill="#410EAD"/>
<path d="M4.50137 6.25611C4.49785 5.42684 5.16791 4.74902 5.99131 4.74902C6.81784 4.74902 7.49064 5.41745 7.49651 6.24398C7.50238 7.06816 6.82723 7.74871 6.00344 7.74871C5.17104 7.74871 4.5045 7.08655 4.50098 6.25572L4.50137 6.25611ZM5.00128 6.24554C4.99932 6.79969 5.43821 7.24466 5.98975 7.24779C6.54677 7.25131 6.99778 6.80282 6.99739 6.24632C6.99739 5.70117 6.54481 5.24956 5.99796 5.24799C5.45033 5.24643 5.00284 5.69413 5.00088 6.24515L5.00128 6.24554Z" fill="#410EAD"/>
<path d="M4.50099 2.75571C4.49708 1.92488 5.16363 1.25293 5.99133 1.25293C6.82373 1.25293 7.49105 1.91431 7.49653 2.74397C7.50201 3.56228 6.83311 4.24283 6.01793 4.24831C5.17732 4.25418 4.50491 3.59241 4.50099 2.75571ZM5.0009 2.74201C4.99816 3.29655 5.43705 3.74543 5.98585 3.74934C6.54209 3.75326 6.99623 3.30438 6.9974 2.74984C6.99858 2.19999 6.55421 1.75542 6.0015 1.75268C5.448 1.74994 5.00364 2.18943 5.0009 2.74201Z" fill="#410EAD"/>
<path d="M6.00278 8.25293C6.84222 8.26076 7.5029 8.93153 7.49664 9.77019C7.49077 10.5912 6.80662 11.2569 5.97736 11.2487C5.15161 11.2405 4.49054 10.5603 4.5011 9.72988C4.51166 8.90531 5.18251 8.24549 6.00278 8.25332V8.25293ZM6.00043 8.75268C5.44733 8.74994 5.00336 9.19021 5.00101 9.74319C4.99866 10.2969 5.43872 10.7462 5.98713 10.7501C6.54181 10.754 6.99673 10.3032 6.99751 9.74866C6.99829 9.19882 6.55393 8.75503 6.00043 8.75229V8.75268Z" fill="#410EAD"/>
<path d="M6.00418 12.0017C6.23771 12.0017 6.47162 11.9997 6.70515 12.0024C6.88352 12.0044 6.99109 12.0956 6.99618 12.2419C7.00126 12.3918 6.88704 12.4998 6.70671 12.501C6.23458 12.5041 5.76205 12.5041 5.28992 12.501C5.1049 12.4998 4.99889 12.3997 5.00202 12.2431C5.00515 12.0917 5.10529 12.0044 5.28835 12.0024C5.52696 11.9997 5.76557 12.0017 6.00418 12.0017Z" fill="#410EAD"/>
<path d="M5.99683 13.0034C6.15799 13.0034 6.31915 13.0006 6.47992 13.0041C6.63951 13.0077 6.73652 13.0981 6.742 13.2397C6.74747 13.3869 6.64851 13.4972 6.48735 13.5C6.16034 13.5059 5.83332 13.5059 5.50631 13.5C5.34945 13.4972 5.24071 13.3787 5.24736 13.2393C5.25401 13.1032 5.35884 13.0073 5.51335 13.0038C5.67451 13.0002 5.83528 13.003 5.99644 13.003L5.99683 13.0034Z" fill="#410EAD"/>
<path d="M13.0263 6.99817C12.9649 7.07918 12.9273 7.17506 12.8608 7.20402C12.7881 7.23533 12.6868 7.21459 12.6015 7.19698C12.5608 7.18837 12.5284 7.13593 12.4939 7.10149C11.3803 5.98771 10.267 4.87354 9.15378 3.75937C9.11584 3.72141 9.07437 3.6854 9.04543 3.64118C8.97463 3.53434 8.98323 3.42594 9.07085 3.33358C9.15847 3.24161 9.26604 3.22674 9.37674 3.2921C9.41782 3.31636 9.45263 3.35276 9.48705 3.3872C10.6113 4.51115 11.7359 5.63471 12.8577 6.76101C12.9199 6.82324 12.9618 6.9062 13.0259 6.99817H13.0263Z" fill="#410EAD"/>
<path d="M13.0198 5.50045C12.9662 5.5752 12.931 5.66873 12.8649 5.70278C12.7984 5.73722 12.6998 5.72235 12.6188 5.70826C12.5782 5.70122 12.543 5.65073 12.5085 5.61668C11.8807 4.98935 11.2533 4.36124 10.6262 3.73312C10.5953 3.70221 10.5617 3.67168 10.5398 3.63489C10.4796 3.53158 10.4843 3.4267 10.566 3.33786C10.6517 3.24433 10.7585 3.22789 10.8715 3.28933C10.9008 3.30538 10.9267 3.32964 10.9505 3.35351C11.5991 4.00159 12.248 4.64927 12.8942 5.29969C12.9431 5.34861 12.9701 5.41945 13.0198 5.50045Z" fill="#410EAD"/>
<path d="M13.0184 4.02221C12.9613 4.08874 12.9159 4.18462 12.8443 4.21241C12.772 4.24059 12.6468 4.23237 12.5916 4.18501C12.4027 4.02417 12.2302 3.84337 12.0604 3.66178C11.9709 3.56629 11.9845 3.41875 12.0722 3.32953C12.1668 3.23325 12.31 3.2223 12.4144 3.32092C12.5885 3.4845 12.7567 3.65513 12.921 3.8285C12.9617 3.87154 12.9777 3.93768 13.0188 4.02221H13.0184Z" fill="#410EAD"/>
<path d="M2.74916 12.2164C2.74447 12.4223 2.57549 12.5518 2.4198 12.4802C2.06228 12.3158 1.71141 12.137 1.36288 11.9538C1.24631 11.8924 1.2201 11.7456 1.28034 11.6337C1.34528 11.5124 1.48023 11.4666 1.61987 11.5343C1.94806 11.6928 2.27312 11.8583 2.59935 12.0215C2.62086 12.0325 2.64629 12.0438 2.65881 12.0626C2.69753 12.1213 2.73078 12.184 2.74956 12.2164H2.74916Z" fill="#410EAD"/>
<path d="M6.24257 6.25332C6.24257 6.34098 6.24766 6.42903 6.2414 6.51631C6.23201 6.6478 6.14282 6.73624 6.01883 6.74407C5.88348 6.75229 5.77435 6.68928 5.76261 6.55857C5.74384 6.35155 5.74579 6.14061 5.76496 5.93359C5.77669 5.80757 5.887 5.75004 6.01178 5.752C6.13304 5.75396 6.23084 5.85023 6.24062 5.97585C6.24766 6.06782 6.24218 6.16096 6.24218 6.25332C6.24218 6.25332 6.24218 6.25332 6.24257 6.25332Z" fill="#410EAD"/>
<path d="M6.24219 2.74556C6.24219 2.83831 6.24767 2.93106 6.24063 3.02342C6.23085 3.151 6.13579 3.24179 6.01414 3.25079C5.89523 3.2594 5.77045 3.18113 5.76067 3.05629C5.74502 2.85357 5.74228 2.64694 5.76184 2.445C5.77436 2.31469 5.88115 2.24933 6.01688 2.25637C6.14049 2.26264 6.23124 2.35186 6.24102 2.48257C6.24767 2.56984 6.24219 2.6579 6.24219 2.74556Z" fill="#410EAD"/>
<path d="M6.24161 9.7497C6.24161 9.84244 6.24787 9.93559 6.24005 10.0272C6.22948 10.1528 6.13013 10.2479 6.00887 10.2487C5.8833 10.2494 5.77495 10.1896 5.76361 10.0639C5.74522 9.85692 5.74327 9.6456 5.76322 9.43896C5.77573 9.30825 5.88604 9.24642 6.02139 9.25581C6.14499 9.26442 6.23222 9.35365 6.24122 9.48632C6.24709 9.57359 6.24239 9.66164 6.24239 9.7493H6.24122L6.24161 9.7497Z" fill="#410EAD"/>
</svg>
