<svg width="15" height="13" viewBox="0 0 15 13" fill="none" xmlns="http://www.w3.org/2000/svg">
<path d="M0.00234814 6.68589C0.0915776 6.46458 0.23638 6.29236 0.491153 6.20768C0.52481 6.19629 0.548292 6.1415 0.562772 6.10236C0.687223 5.7711 0.807762 5.43877 0.931039 5.10715C1.00735 4.90184 1.11185 4.86021 1.33257 4.9449C1.61944 5.0552 1.90552 5.16657 2.20765 5.28328C2.42055 4.80257 2.6718 4.34962 3.12616 4.00128C3.08624 3.96214 3.0522 3.92727 3.01619 3.89418C2.67806 3.5864 2.34267 3.27613 1.99984 2.97262C1.88752 2.873 1.86169 2.77266 1.90787 2.6378C2.06284 2.18521 2.20843 1.72977 2.36145 1.27682C2.38767 1.19961 2.39041 1.14624 2.31684 1.08041C2.08241 0.871547 2.04719 0.560923 2.21313 0.31043C2.3775 0.062784 2.70389 -0.0532111 3.0111 0.0272027C3.31519 0.106905 3.52417 0.367004 3.51713 0.65628C3.51008 0.943422 3.2921 1.19107 2.97275 1.25476C2.87021 1.27504 2.83304 1.3188 2.80564 1.40491C2.67884 1.8052 2.54461 2.20336 2.4092 2.60116C2.38376 2.67588 2.39041 2.72747 2.45733 2.78689C2.79273 3.08435 3.12264 3.38715 3.45295 3.68959C3.50421 3.73656 3.54452 3.76395 3.62671 3.73122C4.28889 3.46792 4.95537 3.49958 5.62224 3.72019C5.71343 3.75043 5.805 3.7789 5.89306 3.80701C5.90637 3.79349 5.91654 3.78779 5.91771 3.78103C5.9819 3.36011 6.18893 3.19679 6.66051 3.19679C6.86049 3.19679 7.06087 3.20035 7.26085 3.19394C7.30429 3.19252 7.36808 3.16654 7.38609 3.13488C7.56572 2.82069 7.73792 2.50295 7.91677 2.17845C7.57629 1.88739 7.24011 1.59812 6.90002 1.3124C6.87223 1.28927 6.82175 1.2818 6.78105 1.27931C6.43274 1.2576 6.16857 1.05123 6.10517 0.747724C6.04843 0.476239 6.21202 0.188742 6.49379 0.0642073C6.78105 -0.062818 7.12075 0.00265163 7.33169 0.225035C7.54498 0.450265 7.55789 0.753062 7.36535 1.01281C7.35204 1.03095 7.33717 1.04839 7.31408 1.07756C7.48236 1.22131 7.64791 1.36293 7.81384 1.50489C7.98095 1.64793 8.14884 1.7899 8.31517 1.93365C8.45919 2.05854 8.47054 2.12045 8.38092 2.28555C8.2232 2.57554 8.06431 2.86517 7.9062 3.15516C7.90229 3.16227 7.90424 3.17188 7.9015 3.19643C8.06157 3.19643 8.22007 3.19643 8.37857 3.19643C8.80437 3.19714 9.02196 3.37256 9.08106 3.76111C9.08301 3.77392 9.09006 3.78566 9.09906 3.80985C9.2423 3.76431 9.3871 3.72517 9.52407 3.67037C9.56164 3.65543 9.58512 3.5953 9.5996 3.55189C9.75145 3.09823 9.89469 2.64243 10.054 2.1909C10.0923 2.08238 10.1651 1.97421 10.252 1.89131C10.5686 1.58922 10.8962 1.2971 11.2233 1.00427C11.2883 0.946268 11.3137 0.898945 11.284 0.810703C11.1889 0.529611 11.3231 0.237133 11.5987 0.0891142C11.8746 -0.0589041 12.2197 -0.0194088 12.4483 0.186251C12.6765 0.391555 12.723 0.706094 12.563 0.95801C12.4037 1.20921 12.0796 1.33375 11.7716 1.25084C11.6797 1.22594 11.6241 1.23732 11.5568 1.29995C11.2398 1.59527 10.9153 1.88455 10.596 2.17809C10.5565 2.21439 10.5173 2.25993 10.5013 2.30797C10.3686 2.69723 10.241 3.08826 10.1131 3.47859C10.1052 3.50243 10.1048 3.52876 10.0994 3.56399C10.643 3.50634 11.147 3.59316 11.6288 3.83689C11.6578 3.79562 11.6871 3.75613 11.7137 3.71556C12.0276 3.2402 12.3407 2.76447 12.6545 2.28946C12.7676 2.11867 12.8592 2.09377 13.0533 2.18094C13.2721 2.27914 13.4905 2.37699 13.7069 2.47911C13.7746 2.51113 13.8216 2.5122 13.8893 2.46844C14.166 2.28911 14.5076 2.30583 14.7542 2.49975C15.0027 2.69545 15.0708 3.00998 14.9217 3.27364C14.7773 3.52876 14.461 3.6686 14.1617 3.61024C13.8325 3.54584 13.6126 3.3046 13.5914 2.99789C13.5883 2.95234 13.5504 2.89079 13.5081 2.86873C13.3433 2.78298 13.1707 2.71039 12.9809 2.62393C12.6545 3.11815 12.3301 3.60953 12.0049 4.10198C12.6581 4.72572 12.9113 5.50886 13.1203 6.30553C13.2568 6.82679 13.3586 7.35589 13.476 7.88142C13.4799 7.8985 13.4858 7.91487 13.4952 7.94689C13.6713 7.88249 13.8431 7.82307 14.0106 7.75475C14.0376 7.74372 14.0599 7.69391 14.0603 7.66153C14.0638 7.32422 14.0583 6.98691 14.0654 6.6496C14.0669 6.56563 14.0106 6.54926 13.9523 6.51901C13.6462 6.35961 13.5175 6.03369 13.6415 5.73943C13.764 5.44873 14.1033 5.27687 14.4297 5.33949C14.7745 5.40603 15.0144 5.67609 14.9984 5.99028C14.9866 6.21942 14.8696 6.40124 14.6489 6.51083C14.5507 6.55958 14.5276 6.61295 14.5291 6.70653C14.535 7.0748 14.526 7.44342 14.5342 7.81168C14.5378 7.96895 14.4689 8.05969 14.3092 8.11235C14.094 8.18351 13.8838 8.26713 13.6693 8.34042C13.5918 8.36675 13.5597 8.39913 13.5848 8.47741C13.6051 8.54075 13.6224 8.60977 13.6153 8.67418C13.586 8.95562 13.7409 9.11432 14.0161 9.20398C14.4301 9.33919 14.5679 9.60463 14.5401 10.0024C14.5045 10.5109 14.528 11.0229 14.5331 11.5331C14.5354 11.7473 14.4395 11.8936 14.2337 11.996C13.6478 12.2878 13.0635 12.5824 12.4823 12.8824C12.2788 12.9873 12.0929 12.9856 11.8898 12.8806C11.322 12.5871 10.7514 12.2971 10.1761 12.0153C9.944 11.9014 9.83638 11.7459 9.84068 11.5036C9.85046 10.9489 9.84694 10.3938 9.84186 9.83911C9.84029 9.66405 9.8579 9.5018 10.0614 9.35876C9.81681 9.24027 9.60743 9.12072 9.3824 9.03426C8.92686 8.85955 8.44197 8.8044 7.9516 8.7948C7.62481 8.78839 7.29764 8.79266 6.97047 8.79871C6.92115 8.79978 6.84797 8.82433 6.82762 8.85849C6.44918 9.49859 6.07739 10.1415 5.70051 10.7898C5.72986 10.8133 5.75217 10.8357 5.77878 10.8525C6.17131 11.1008 6.56541 11.3467 6.95638 11.5972C7.02095 11.6385 7.06478 11.6441 7.1364 11.6054C7.43305 11.4449 7.76218 11.483 7.99543 11.6954C8.22242 11.9021 8.26742 12.2159 8.10618 12.4675C7.94573 12.7176 7.62051 12.8375 7.31212 12.7603C6.99982 12.6821 6.79005 12.4284 6.79983 12.1245C6.80257 12.0427 6.77479 11.9975 6.70199 11.9523C6.24254 11.6669 5.78661 11.3773 5.3299 11.0887C5.13226 10.9638 5.11152 10.8898 5.22188 10.6998C5.54749 10.1391 5.87349 9.57901 6.1991 9.01825C6.22376 8.97555 6.24645 8.93214 6.29029 8.85244C6.08248 8.90403 5.90558 8.93997 5.73417 8.99192C5.38234 9.0983 5.07121 9.26696 4.80352 9.50429C4.56949 9.71173 4.32411 9.90885 4.08734 10.1142C4.03176 10.1622 3.98206 10.2191 3.94449 10.2796C3.42751 11.1037 2.91287 11.9295 2.39785 12.7546C2.37867 12.7856 2.36028 12.8169 2.34032 12.8472C2.21352 13.0407 2.0378 13.0517 1.88908 12.8728C1.58617 12.5081 1.28678 12.1409 0.981133 11.7783C0.949824 11.7413 0.880554 11.7032 0.835157 11.7089C0.46141 11.7544 0.160457 11.5947 0.0313086 11.2709C0.0234814 11.251 0.0105666 11.2332 0 11.2143C0 11.1254 0 11.0368 0 10.9478C0.00665308 10.9418 0.0176111 10.9364 0.0191765 10.9293C0.0997961 10.5863 0.537725 10.3355 0.961174 10.4874C1.32005 10.6162 1.5353 11.0257 1.32122 11.3844C1.30713 11.4082 1.3087 11.4559 1.32592 11.4773C1.57091 11.7797 1.81981 12.0797 2.08163 12.397C2.37945 11.9203 2.66593 11.4609 2.93792 11.0254C2.74537 11.0489 2.54421 11.1047 2.34893 11.0909C1.93644 11.0613 1.68597 10.813 1.52708 10.4874C1.31535 10.0537 1.27269 9.58897 1.34001 9.12926C1.45194 8.36533 1.59713 7.60531 1.74702 6.84636C1.82333 6.45959 1.94113 6.07959 2.04249 5.68641C1.80651 5.59461 1.5666 5.50139 1.31379 5.40283C1.22338 5.6487 1.14198 5.8846 1.04923 6.11695C1.01362 6.2059 1.02457 6.25251 1.11576 6.31122C1.40576 6.49802 1.48638 6.83569 1.32357 7.11643C1.16429 7.39147 0.813632 7.52312 0.488805 7.42812C0.232466 7.35162 0.0915776 7.17336 0.00234814 6.9524V6.68589ZM13.15 8.76348C13.15 8.72612 13.1539 8.70371 13.1496 8.68236C12.9892 7.92981 12.8389 7.17513 12.6635 6.42508C12.5356 5.8782 12.3595 5.34198 12.0444 4.85452C11.5846 4.14325 10.8418 3.83761 9.95574 4.01729C9.4912 4.11158 9.04544 4.26672 8.5582 4.2781C7.71835 4.29767 6.87811 4.32863 6.04295 4.23612C5.74669 4.20338 5.461 4.09877 5.16748 4.03722C4.41529 3.87924 3.7402 3.98776 3.20717 4.53749C2.95866 4.79368 2.78881 5.09541 2.66945 5.41599C2.20334 6.66917 1.93526 7.96148 1.79985 9.27586C1.76267 9.63416 1.79711 9.99673 1.96931 10.3316C2.16499 10.7123 2.50469 10.7856 2.8526 10.5127C3.38837 10.0924 3.92571 9.67294 4.43956 9.23067C4.86731 8.8624 5.35847 8.61725 5.92554 8.49912C6.85071 8.30662 7.78684 8.32619 8.72022 8.43436C9.30374 8.50196 9.8489 8.68378 10.3095 9.02928C10.4262 9.11681 10.5099 9.14741 10.6453 9.06379C10.778 8.98195 10.9193 9.02074 10.987 9.12997C11.0551 9.23956 11.0132 9.35556 10.8715 9.43099C10.7201 9.51176 10.5616 9.58185 10.414 9.66796C10.3678 9.695 10.3201 9.75869 10.3193 9.80637C10.3127 10.37 10.313 10.9339 10.3193 11.4976C10.3197 11.5456 10.3647 11.6135 10.4109 11.6374C10.9705 11.9263 11.5333 12.2106 12.0988 12.4899C12.1466 12.5134 12.2327 12.5141 12.2804 12.4906C12.8459 12.2113 13.4087 11.9267 13.9683 11.6377C14.0145 11.6139 14.0603 11.5459 14.0607 11.4983C14.0669 10.9347 14.0669 10.3707 14.0607 9.80708C14.0603 9.75941 14.0133 9.69251 13.9668 9.66832C13.4071 9.3794 12.8443 9.0951 12.2784 8.81579C12.2311 8.7923 12.1473 8.79551 12.0969 8.81757C11.9387 8.88624 11.7892 8.97128 11.6347 9.04671C11.4844 9.12001 11.3482 9.09083 11.2809 8.97519C11.2163 8.86382 11.2597 8.75352 11.4049 8.67738C11.5654 8.59305 11.7317 8.51762 11.889 8.42938C12.0937 8.31409 12.2882 8.31801 12.4937 8.4308C12.705 8.54679 12.9254 8.64962 13.1508 8.76277L13.15 8.76348ZM6.4073 3.85077H8.59812C8.61417 3.67215 8.57151 3.62376 8.40714 3.62341C7.80249 3.62234 7.19824 3.62234 6.59359 3.62341C6.43039 3.62341 6.38656 3.67536 6.4073 3.85077ZM3.04789 0.650232C3.05454 0.53566 2.95279 0.433897 2.82599 0.427848C2.69997 0.4218 2.58805 0.514311 2.58139 0.629595C2.57513 0.744166 2.67649 0.845929 2.8029 0.851978C2.92853 0.858027 3.04085 0.765159 3.0475 0.650232H3.04789ZM7.03191 0.637778C7.03073 0.522495 6.92311 0.426781 6.79631 0.427848C6.66912 0.428916 6.56424 0.526409 6.56541 0.642048C6.56659 0.757687 6.67421 0.853401 6.80062 0.851978C6.92742 0.85091 7.03269 0.752706 7.03152 0.637778H7.03191ZM11.9618 0.851978C12.0882 0.84842 12.192 0.748436 12.188 0.633508C12.1841 0.518225 12.0742 0.42429 11.9481 0.427848C11.8213 0.431407 11.718 0.531034 11.7219 0.645962C11.7258 0.760534 11.8366 0.855536 11.9622 0.851978H11.9618ZM14.2924 2.77159C14.1656 2.77479 14.0619 2.87371 14.0654 2.98899C14.0689 3.10463 14.1777 3.19857 14.3045 3.19572C14.4313 3.19252 14.535 3.09325 14.5319 2.97832C14.5284 2.86303 14.4192 2.76874 14.2928 2.77159H14.2924ZM14.5315 5.96039C14.5276 5.8451 14.418 5.75117 14.2916 5.75473C14.1648 5.75829 14.0615 5.85791 14.0654 5.97284C14.0693 6.08848 14.1789 6.18206 14.3053 6.1785C14.4321 6.17494 14.5354 6.07496 14.5315 5.96003V5.96039ZM0.71227 6.6069C0.585471 6.60334 0.476282 6.69692 0.472368 6.81256C0.468455 6.92784 0.571773 7.02712 0.698573 7.03103C0.824981 7.03459 0.934561 6.9403 0.938475 6.82537C0.942388 6.71044 0.83907 6.61081 0.71227 6.60726V6.6069ZM0.710314 11.2922C0.837113 11.2898 0.941214 11.1905 0.938475 11.0756C0.935735 10.9603 0.826938 10.8656 0.700138 10.8681C0.573339 10.8706 0.469237 10.9695 0.471977 11.0848C0.474716 11.2004 0.583514 11.2947 0.709922 11.2922H0.710314ZM7.49919 11.9334C7.372 11.9348 7.26711 12.0323 7.26868 12.1476C7.27025 12.2633 7.37748 12.3586 7.50428 12.3576C7.63108 12.3561 7.73635 12.2583 7.73518 12.1434C7.73361 12.0281 7.62638 11.9324 7.49958 11.9334H7.49919Z" fill="#410EAD"/>
<path d="M5.09262 4.90137C6.09802 4.90813 6.8326 5.61086 6.7962 6.46445C6.76098 7.29172 5.95478 7.94037 5.03548 7.88059C3.87354 7.80552 3.15853 6.64414 3.7037 5.71084C3.74322 5.64324 3.82267 5.57279 3.89937 5.55251C3.96043 5.53614 4.08096 5.57599 4.11071 5.62402C4.15141 5.68949 4.16354 5.7998 4.13027 5.86704C4.01443 6.10046 3.95416 6.33458 4.00856 6.5897C4.13928 7.20206 4.80615 7.58349 5.4648 7.42052C6.12894 7.25614 6.49486 6.60749 6.25456 6.02182C6.01544 5.43936 5.28634 5.16716 4.66448 5.42833C4.63787 5.43936 4.61204 5.45181 4.58542 5.4632C4.43866 5.52475 4.3103 5.49273 4.24729 5.37887C4.18702 5.27035 4.22968 5.15826 4.3647 5.08924C4.61204 4.96292 4.87972 4.90315 5.09262 4.90172V4.90137Z" fill="#410EAD"/>
<path d="M10.3091 5.75377C9.79294 5.79256 9.60039 5.60611 9.60157 5.11331C9.60274 4.62869 9.78394 4.46715 10.3119 4.4668C10.8449 4.4668 11.0288 4.62549 11.0269 5.1222C11.0249 5.58369 10.8606 5.79434 10.3095 5.75377H10.3091ZM10.5432 4.91227H10.0876V5.31968H10.5432V4.91227Z" fill="#410EAD"/>
<path d="M10.319 6.60454C10.8422 6.5654 11.0269 6.7579 11.0265 7.24501C11.0265 7.72784 10.8438 7.89187 10.3162 7.89152C9.79023 7.89116 9.59847 7.73852 9.6016 7.23575C9.60434 6.77355 9.76675 6.56398 10.319 6.60454ZM10.0881 7.03685V7.44817H10.5377V7.03685H10.0881Z" fill="#410EAD"/>
<path d="M9.13955 5.56327C9.22252 5.56327 9.30548 5.56113 9.38845 5.56398C9.64479 5.57181 9.83616 5.74544 9.84399 5.98135C9.84869 6.12332 9.84791 6.26529 9.84399 6.40726C9.83851 6.63925 9.6671 6.81751 9.41467 6.83601C9.23543 6.84918 9.05306 6.84847 8.87382 6.83672C8.62139 6.82 8.44606 6.64138 8.4398 6.41188C8.43628 6.27881 8.43745 6.14573 8.43902 6.01266C8.44215 5.7394 8.63313 5.56683 8.93409 5.56362C9.00257 5.56291 9.07067 5.56362 9.13916 5.56362L9.13955 5.56327ZM8.91334 6.40406H9.3681V5.99772H8.91334V6.40406Z" fill="#410EAD"/>
<path d="M11.4861 5.56373C12.0508 5.52103 12.1933 5.74555 12.198 6.19743C12.2039 6.73222 11.9659 6.85 11.4775 6.84964C11.0102 6.84928 10.7367 6.72546 10.7817 6.20989C10.7879 6.13944 10.7813 6.06792 10.7828 5.99711C10.7895 5.74093 10.982 5.56836 11.2666 5.56409C11.3397 5.56302 11.4129 5.56409 11.4861 5.56409V5.56373ZM11.7104 6.4159V5.9996H11.2638V6.4159C11.373 6.4159 11.4697 6.4159 11.5663 6.4159C11.6094 6.4159 11.6528 6.4159 11.7104 6.4159Z" fill="#410EAD"/>
<path d="M5.15729 5.7002C5.57721 5.7002 5.92044 6.01331 5.91887 6.39545C5.9173 6.77689 5.57095 7.08751 5.15064 7.08466C4.73736 7.08182 4.39845 6.77226 4.39649 6.39617C4.39492 6.01367 4.73736 5.70055 5.15729 5.70055V5.7002ZM5.15064 6.65769C5.30561 6.66125 5.44141 6.54667 5.44924 6.40506C5.45746 6.25918 5.32596 6.13037 5.16472 6.12682C5.00936 6.12326 4.87395 6.23747 4.86612 6.37909C4.8579 6.52533 4.9894 6.65377 5.15064 6.65769Z" fill="#410EAD"/>
<path d="M13.8288 10.4411C13.8288 10.5788 13.8319 10.7165 13.828 10.8538C13.8237 10.9901 13.7274 11.0794 13.5948 11.079C13.4617 11.079 13.3639 10.9897 13.3623 10.8535C13.3584 10.5784 13.3584 10.303 13.3623 10.028C13.3643 9.89169 13.4621 9.80273 13.5952 9.80273C13.7282 9.80273 13.8241 9.89204 13.8284 10.0283C13.8327 10.1657 13.8292 10.3034 13.8292 10.4411H13.8288Z" fill="#410EAD"/>
</svg>
