<svg width="13" height="15" viewBox="0 0 13 15" fill="none" xmlns="http://www.w3.org/2000/svg">
<path d="M6.50038 15C5.81082 14.5895 5.12164 14.1783 4.43131 13.7694C3.18649 13.0318 1.94052 12.2959 0.695318 11.5591C0.666922 11.5423 0.640829 11.5211 0.602456 11.4941C0.863392 11.3394 1.11512 11.1906 1.36646 11.0413C1.8254 10.7691 2.28588 10.4993 2.74213 10.2231C2.82233 10.1746 2.87989 10.1738 2.96124 10.2223C3.67114 10.6461 4.38373 11.066 5.09747 11.4828C5.15349 11.5157 5.22755 11.5164 5.29317 11.5321C5.3066 11.4683 5.33116 11.4048 5.33116 11.341C5.33346 10.3101 5.32809 9.27879 5.33653 8.2479C5.33807 8.0505 5.27091 7.9373 5.10437 7.84056C4.24789 7.34431 3.39716 6.83709 2.54413 6.33379C2.35495 6.22216 2.26976 6.2719 2.26976 6.49555C2.26899 7.33608 2.26899 8.17662 2.27053 9.01676C2.27053 9.09823 2.26516 9.16168 2.18189 9.21064C1.48158 9.6219 0.78396 10.0386 0.085188 10.4534C0.0656178 10.4648 0.0445127 10.4734 0.00268611 10.4938V10.3207C0.00268611 8.0975 0.0038373 5.87396 0 3.65081C0 3.53174 0.0387567 3.47103 0.137375 3.41345C2.03722 2.30188 3.93592 1.18756 5.835 0.0740267C5.87529 0.0505261 5.91711 0.030159 5.97314 0C5.97583 0.0638431 5.98005 0.110061 5.98005 0.15667C5.98005 0.948247 5.97813 1.73982 5.98273 2.5314C5.9835 2.63637 5.95587 2.6959 5.86339 2.74995C5.14505 3.16905 4.42978 3.59323 3.71642 4.02016C3.66078 4.05345 3.59593 4.11534 3.58826 4.17174C3.58289 4.2113 3.65886 4.2771 3.71182 4.30882C4.57943 4.82505 5.4505 5.33501 6.31696 5.85281C6.46585 5.94172 6.58787 5.94838 6.7406 5.85672C7.60629 5.33736 8.47774 4.8274 9.34651 4.31391C9.53032 4.20503 9.53147 4.12826 9.34651 4.0182C8.63162 3.59362 7.91635 3.16866 7.19839 2.74917C7.10706 2.6959 7.07598 2.63833 7.07675 2.53179C7.08135 1.69635 7.07943 0.861295 7.07943 0.0015667C7.12855 0.0238922 7.16577 0.0368175 7.19916 0.0564013C9.09785 1.18051 10.9958 2.30579 12.8949 3.42951C12.9616 3.46907 13 3.50824 13 3.59754C12.9973 5.85986 12.9977 8.12218 12.9973 10.3845C12.9973 10.4084 12.9931 10.4323 12.99 10.4671C12.9536 10.4519 12.9225 10.4421 12.8949 10.4264C12.2064 10.0332 11.5192 9.63757 10.8285 9.24824C10.7425 9.19968 10.7241 9.14249 10.7245 9.05123C10.7276 8.20599 10.7264 7.36076 10.726 6.51513C10.726 6.27543 10.6658 6.239 10.4666 6.35611C9.59248 6.87077 8.71949 7.387 7.84421 7.89853C7.7218 7.96981 7.66654 8.06382 7.66692 8.2056C7.66846 9.25608 7.66692 10.3066 7.66846 11.3574C7.66846 11.5662 7.73561 11.6022 7.9152 11.4965C8.63546 11.0715 9.35495 10.6446 10.0771 10.2227C10.1224 10.1965 10.2018 10.1785 10.2406 10.2012C10.9716 10.6266 11.6988 11.0586 12.4474 11.5016C12.368 11.5493 12.3043 11.5885 12.2398 11.6261C10.3722 12.7267 8.50422 13.8273 6.63661 14.9283C6.59977 14.9503 6.56485 14.9757 6.52916 14.9992H6.50038V15Z" fill="#410EAD"/>
</svg>
