<svg width="15" height="15" viewBox="0 0 15 15" fill="none" xmlns="http://www.w3.org/2000/svg">
<path d="M0 14.6162C0.0909896 14.4529 0.232529 14.3961 0.415286 14.4093C0.540494 14.4187 0.666479 14.4109 0.807241 14.4109C0.807241 14.344 0.807241 14.2911 0.807241 14.2382C0.807241 13.8821 0.805686 13.5259 0.807241 13.1697C0.808796 12.9387 0.876455 12.854 1.09732 12.798C1.48461 12.7 1.8719 12.6004 2.26074 12.5095C2.35717 12.4869 2.40695 12.441 2.4435 12.35C2.56637 12.0374 2.69469 11.7263 2.83079 11.4192C2.872 11.3258 2.85878 11.2589 2.80901 11.1781C2.60215 10.8413 2.39995 10.5023 2.19697 10.1632C2.07332 9.95633 2.08576 9.8529 2.25452 9.68337C2.59515 9.34119 2.93733 8.99901 3.27951 8.65838C3.44827 8.4904 3.55404 8.47718 3.76013 8.60006C4.10386 8.80459 4.4476 9.00912 4.78745 9.21909C4.86755 9.26886 4.9321 9.26886 5.01609 9.23231C5.3295 9.09777 5.64758 8.9749 5.95943 8.83569C6.01853 8.80925 6.07919 8.73771 6.0963 8.67549C6.20051 8.29521 6.29228 7.91103 6.38794 7.52841C6.45171 7.27411 6.53492 7.20801 6.79778 7.20801C7.26595 7.20801 7.73489 7.20801 8.20306 7.20801C8.46359 7.20801 8.5468 7.27489 8.61057 7.53152C8.70467 7.90948 8.80266 8.28665 8.89209 8.66616C8.91309 8.75637 8.95198 8.80848 9.03908 8.84347C9.36026 8.97101 9.67756 9.10944 10.0003 9.23387C10.0571 9.25564 10.145 9.2502 10.1971 9.21987C10.5478 9.01845 10.8923 8.80536 11.2399 8.5985C11.4437 8.47641 11.5502 8.4904 11.7205 8.65994C12.0596 8.99745 12.3971 9.33574 12.7354 9.67481C12.9166 9.85601 12.9275 9.954 12.793 10.1788C12.5877 10.5217 12.3785 10.8623 12.1786 11.2092C12.1506 11.2582 12.1428 11.3406 12.1631 11.3935C12.2906 11.7201 12.4321 12.0413 12.5612 12.3679C12.5939 12.4511 12.6421 12.4885 12.7253 12.5087C13.1188 12.6028 13.5108 12.7015 13.9027 12.8003C14.1174 12.854 14.1882 12.9395 14.1897 13.1596C14.1928 13.5204 14.1905 13.8821 14.1905 14.2429C14.1905 14.2958 14.1905 14.3479 14.1905 14.4124C14.3577 14.4124 14.5086 14.4101 14.6587 14.4124C14.8601 14.4163 14.9938 14.5338 14.9954 14.7033C14.997 14.8728 14.8624 14.9918 14.6625 14.998C14.6384 14.998 14.6136 14.998 14.5894 14.998C9.86498 14.998 5.14052 14.998 0.416064 15.0004C0.234084 15.0004 0.092545 14.9568 0.00155538 14.7927V14.617L0 14.6162ZM10.6116 14.4008H13.6033C13.6033 14.0633 13.6072 13.7366 13.5979 13.41C13.5971 13.3711 13.5287 13.3136 13.482 13.3011C13.1243 13.2055 12.765 13.1168 12.4041 13.0313C12.2556 12.9963 12.1537 12.9224 12.0938 12.7746C11.9142 12.3267 11.7268 11.8826 11.5409 11.4378C11.4904 11.3173 11.488 11.2037 11.5596 11.0894C11.6529 10.9409 11.7408 10.7892 11.831 10.6384C11.9601 10.4222 12.09 10.206 12.2082 10.0092C11.9274 9.73003 11.6614 9.46562 11.3869 9.19265C11.0455 9.39796 10.6886 9.60793 10.3363 9.82491C10.2079 9.90423 10.089 9.91434 9.94975 9.85446C9.58735 9.69814 9.22806 9.53016 8.85399 9.40651C8.52891 9.29919 8.36093 9.11255 8.30805 8.77192C8.2575 8.44297 8.15173 8.12256 8.07086 7.8006H6.92299C6.82189 8.20111 6.71768 8.59617 6.62591 8.99434C6.58936 9.15299 6.50848 9.25098 6.35838 9.31086C5.92443 9.48506 5.49126 9.66159 5.06198 9.84746C4.90644 9.91512 4.77657 9.90034 4.6358 9.81246C4.32239 9.61571 4.00354 9.42595 3.68313 9.24009C3.64425 9.21754 3.56182 9.20976 3.53615 9.23464C3.27951 9.48039 3.02988 9.73392 2.77402 9.99055C2.98944 10.3483 3.1963 10.7014 3.41172 11.0482C3.49727 11.1858 3.50738 11.3142 3.44438 11.4627C3.2624 11.8881 3.08276 12.315 2.914 12.7459C2.8479 12.9146 2.73902 12.9994 2.5656 13.0383C2.20941 13.1184 1.85557 13.2102 1.50172 13.3035C1.45972 13.3144 1.39751 13.3618 1.39673 13.3929C1.38895 13.7281 1.39206 14.0633 1.39206 14.4047H4.3815C4.37761 14.3635 4.37528 14.33 4.37139 14.2966C4.2594 13.1728 4.61558 12.2256 5.47726 11.4946C5.73312 11.2776 6.05275 11.1353 6.34905 10.9689C6.45715 10.9082 6.57691 10.9222 6.67646 11.0078C6.76667 11.0855 6.79 11.1866 6.76512 11.2994C6.73556 11.43 6.63058 11.4837 6.52092 11.5296C5.91044 11.7878 5.46093 12.2147 5.17863 12.8135C4.9391 13.3214 4.87455 13.8525 4.98576 14.4031H10.0182C10.152 13.5772 9.96997 12.847 9.42714 12.2139C9.15495 11.8959 8.81821 11.6727 8.43481 11.5086C8.25439 11.4316 8.18906 11.2714 8.25439 11.1182C8.32049 10.9619 8.48225 10.8981 8.65879 10.972C9.6029 11.367 10.2282 12.0522 10.5245 13.0336C10.6598 13.48 10.6746 13.9349 10.6116 14.4016V14.4008Z" fill="#410EAD"/>
<path d="M0.000488281 5.36056C0.0595926 5.28434 0.111698 5.20035 0.179357 5.1327C1.23001 4.07816 2.283 3.02596 3.336 1.97298C3.57397 1.73501 3.69995 1.73501 3.93637 1.97064C4.99947 3.03373 6.06257 4.09682 7.1249 5.15991C7.163 5.19802 7.19255 5.2439 7.21511 5.2719C8.45552 4.0315 9.67883 2.80821 10.9332 1.55303C10.8454 1.47604 10.7326 1.38505 10.6292 1.28395C10.3881 1.04831 10.1517 0.808788 9.91447 0.57004C9.69049 0.34529 9.70293 0.186643 9.95879 0H14.7921C14.9554 0.0909887 15.0006 0.232527 14.9998 0.414504C14.9951 1.88821 14.9974 3.36192 14.9974 4.83562C14.9974 4.85973 14.9974 4.88461 14.9974 4.90872C15.0006 5.04248 14.9508 5.14903 14.8271 5.20735C14.6957 5.26879 14.5775 5.22913 14.4795 5.1327C14.2571 4.91417 14.0362 4.69253 13.8161 4.47089C13.6824 4.33635 13.5502 4.19948 13.4117 4.05794C13.362 4.10538 13.3239 4.14037 13.2865 4.1777C12.372 5.09226 11.4574 6.00681 10.5428 6.92136C10.3235 7.14067 10.161 7.17333 10.0179 7.02635C9.87714 6.8817 9.90902 6.72616 10.1229 6.51152C11.0374 5.59697 11.952 4.68242 12.8673 3.76864C12.9055 3.73131 12.9529 3.70332 12.984 3.67921C12.4233 3.1185 11.8828 2.57801 11.3509 2.04608C10.14 3.25615 8.91514 4.48022 7.66228 5.73229C7.81237 5.87149 7.9788 6.01381 8.13123 6.1709C8.23932 6.28289 8.23855 6.4322 8.15378 6.54496C8.07601 6.6484 7.9298 6.69506 7.81471 6.63751C7.74705 6.60329 7.68716 6.54807 7.63273 6.49364C6.34487 5.20735 5.0578 3.92029 3.7715 2.63167C3.73106 2.59123 3.70229 2.53757 3.66807 2.49013C3.64629 2.48625 3.62374 2.48314 3.60197 2.47925C3.57086 2.52902 3.54753 2.58734 3.50709 2.62778C2.52875 3.60922 1.54809 4.58832 0.568201 5.56897C0.474878 5.6623 0.36989 5.75484 0.236906 5.70274C0.145916 5.6693 0.0782572 5.5752 0.000488281 5.50754C0.000488281 5.45854 0.000488281 5.40955 0.000488281 5.36133V5.36056ZM14.4041 0.598814H10.8181C12.0103 1.791 13.2095 2.99018 14.4041 4.18548V0.598814Z" fill="#410EAD"/>
<path d="M0 9.46121C0.0591044 9.38422 0.110432 9.30023 0.178091 9.23179C1.45661 7.95017 2.73669 6.67089 4.01754 5.39083C4.05876 5.34961 4.10075 5.30761 4.14819 5.27417C4.27262 5.1863 4.42116 5.19952 4.52226 5.30139C4.62025 5.40016 4.63969 5.56192 4.54481 5.67468C4.42194 5.81933 4.28273 5.9492 4.15053 6.08607C4.12097 6.11718 4.09298 6.14984 4.03621 6.21206C4.09531 6.25639 4.15597 6.29138 4.20341 6.33882C4.6568 6.7891 5.10942 7.24093 5.5597 7.69432C5.61102 7.74564 5.66624 7.80086 5.69424 7.86541C5.74401 7.98128 5.72612 8.09871 5.62969 8.18737C5.53015 8.27913 5.41194 8.29624 5.29295 8.22859C5.23462 8.19514 5.18485 8.14615 5.13664 8.09793C4.67702 7.63988 4.21818 7.18105 3.76013 6.72066C3.7228 6.68333 3.69869 6.63278 3.66836 6.58846C3.64581 6.58534 3.62325 6.58223 3.59992 6.57835C3.56881 6.62812 3.54548 6.68644 3.50504 6.72688C2.52671 7.70832 1.54605 8.68742 0.566935 9.66807C0.473612 9.76139 0.369402 9.85472 0.23564 9.80261C0.145428 9.76917 0.0777689 9.67507 0 9.60819C0 9.5592 0 9.5102 0 9.46199V9.46121Z" fill="#410EAD"/>
<path d="M9.49916 7.84304C9.34673 7.84304 9.2083 7.70617 9.20752 7.55297C9.20675 7.39821 9.34129 7.26445 9.49682 7.26367C9.65625 7.26367 9.78457 7.39199 9.78535 7.55141C9.78535 7.70773 9.65314 7.84304 9.49916 7.84304Z" fill="#410EAD"/>
<path d="M7.79672 11.0417C7.79672 11.1988 7.6684 11.3287 7.50975 11.3325C7.35111 11.3364 7.20723 11.1964 7.20801 11.0386C7.20879 10.8838 7.341 10.7532 7.49887 10.7501C7.66529 10.7469 7.7975 10.876 7.79672 11.0417Z" fill="#410EAD"/>
</svg>
