<svg width="16" height="15" viewBox="0 0 16 15" fill="none" xmlns="http://www.w3.org/2000/svg">
<path d="M0 8.37843C0.0907924 8.16319 0.252419 8.08139 0.485661 8.08492C1.12512 8.09353 1.76497 8.08805 2.40443 8.08805H2.58328C2.58328 8.02113 2.58328 7.96477 2.58328 7.90842C2.58328 7.03454 2.58328 6.16066 2.58328 5.28679C2.58328 4.82461 2.82474 4.58393 3.2881 4.58315C3.42976 4.58315 3.57143 4.58001 3.71271 4.58432C3.86651 4.58902 3.95495 4.67042 3.95652 4.79995C3.95808 4.92949 3.87081 5.01519 3.71819 5.02028C3.55734 5.02576 3.39611 5.02263 3.23487 5.02263C3.09829 5.02263 3.02315 5.08916 3.02315 5.2273C3.02315 6.16458 3.02394 7.10185 3.02511 8.03913C3.02511 8.04813 3.03059 8.05713 3.03685 8.07709H8.93993C8.93993 8.03717 8.93993 7.99099 8.93993 7.94481C8.93993 7.05646 8.93993 6.16771 8.93993 5.27935C8.93993 5.06685 8.89609 5.02263 8.68124 5.02263C7.36788 5.02224 6.05413 5.02263 4.74077 5.02263C4.50636 5.02263 4.39561 4.94945 4.39874 4.79878C4.40187 4.65202 4.50871 4.58315 4.73412 4.58315C6.04748 4.58315 7.36123 4.58315 8.67459 4.58315C9.14264 4.58315 9.37902 4.81835 9.37902 5.28287C9.37902 6.15675 9.37902 7.03063 9.37902 7.90451V8.07591H9.83141C9.9316 7.06507 10.0318 6.05265 10.1304 5.05785C10.0173 5.01245 9.90577 4.9921 9.82476 4.93105C9.63104 4.7843 9.63143 4.08927 9.82554 3.94329C9.89755 3.8889 10.004 3.85524 10.0948 3.85485C11.169 3.84898 12.2433 3.84898 13.3175 3.8525C13.5907 3.85328 13.7155 3.98986 13.7183 4.2642C13.7194 4.38121 13.7198 4.49861 13.7183 4.61563C13.7151 4.87196 13.6153 4.98349 13.3567 5.02145C13.3379 5.02419 13.3199 5.03006 13.2878 5.03789C13.3167 5.34079 13.3445 5.64096 13.3743 5.94073C13.4674 6.8827 13.5609 7.82467 13.6545 8.76625C13.748 9.70822 13.8419 10.6502 13.9351 11.5918C13.9832 12.0774 14.0313 12.5627 14.0767 13.0488C14.09 13.1924 14.0188 13.2883 13.8967 13.3059C13.7641 13.325 13.6666 13.2527 13.6459 13.1032C13.6193 12.911 13.6036 12.7173 13.5825 12.5161H11.2297V14.5527H13.7809C13.7664 14.3797 13.7504 14.2122 13.7382 14.0443C13.7253 13.8682 13.7942 13.7673 13.9304 13.7555C14.0658 13.7438 14.1562 13.8338 14.175 14.0056C14.1945 14.1844 14.2094 14.3637 14.2278 14.5601C14.3914 14.5601 14.546 14.5633 14.7002 14.5594C14.8254 14.5562 14.9385 14.5734 14.9878 14.7081C15.0379 14.8446 14.9553 14.9276 14.8563 15C9.9042 15 4.9521 15 0 15C0 14.9022 0 14.8047 0 14.7073C0.0704424 14.5907 0.173758 14.5504 0.308773 14.559C0.449266 14.5676 0.590542 14.5609 0.749429 14.5609C0.749429 14.4924 0.749429 14.4353 0.749429 14.3782C0.749429 13.7434 0.749429 13.109 0.749429 12.4743C0.749429 12.4206 0.748646 12.3659 0.759213 12.3138C0.779954 12.2097 0.851179 12.1537 0.954886 12.1487C1.06485 12.1432 1.14547 12.1941 1.17365 12.3032C1.18813 12.3588 1.18774 12.4191 1.18813 12.4774C1.18891 13.1122 1.18852 13.7465 1.18852 14.3813C1.18852 14.4376 1.18852 14.494 1.18852 14.5488H3.53856C3.53856 13.9716 3.53777 13.4057 3.53856 12.8402C3.53934 12.5247 3.67905 12.3776 3.99095 12.3772C5.31918 12.3749 6.64702 12.3749 7.97526 12.3772C8.28442 12.3776 8.43196 12.5306 8.43274 12.8394C8.43431 13.3567 8.43313 13.8745 8.43313 14.3919C8.43313 14.4439 8.43313 14.496 8.43313 14.5511H10.7691V9.29692H1.18891C1.18891 9.36462 1.18891 9.42254 1.18891 9.48085C1.18891 10.1105 1.18891 10.7402 1.18852 11.3699C1.18852 11.4282 1.18852 11.4885 1.17443 11.544C1.14625 11.6532 1.06603 11.7045 0.955669 11.699C0.851962 11.6939 0.780737 11.6383 0.759604 11.5339C0.749038 11.4818 0.74982 11.427 0.74982 11.3734C0.749038 10.7386 0.74982 10.1043 0.74982 9.4695C0.74982 9.41236 0.74982 9.35484 0.74982 9.2887C0.45318 9.2797 0.135797 9.35601 0.000391281 8.99362V8.37843H0ZM13.0303 7.06937C13.0346 7.04315 13.0401 7.02867 13.0385 7.01458C12.9774 6.38373 12.9141 5.75288 12.8557 5.12164C12.8456 5.0105 12.7755 5.02145 12.7015 5.02145C12.0378 5.02185 11.3741 5.02145 10.7104 5.02224C10.6685 5.02224 10.6266 5.0285 10.5761 5.03241C10.5084 5.71492 10.4419 6.38804 10.3746 7.06937H13.0307H13.0303ZM11.2281 12.0567H13.5394C13.4713 11.3718 13.4044 10.6987 13.3371 10.0217H11.2281V12.0567ZM11.2328 9.28635V9.56577H13.2784C13.2807 9.53916 13.285 9.52038 13.2835 9.50198C13.222 8.87074 13.1586 8.2395 13.1003 7.60826C13.0925 7.52568 13.0518 7.51512 12.9857 7.5159C12.7708 7.51746 12.556 7.51629 12.3411 7.51629C11.7161 7.51629 11.0912 7.51472 10.4662 7.51942C10.4173 7.51942 10.3323 7.55973 10.3265 7.59221C10.2987 7.74914 10.292 7.90959 10.2764 8.08766C10.3421 8.08766 10.3942 8.08766 10.4462 8.08766C10.8172 8.08766 11.1882 8.08531 11.5596 8.08883C11.8034 8.09118 11.9537 8.23676 11.9635 8.47705C11.9693 8.61832 11.9693 8.76038 11.9635 8.90166C11.9533 9.13529 11.8042 9.27931 11.5706 9.28596C11.4594 9.28909 11.3479 9.28635 11.2328 9.28635ZM11.5173 8.5377H0.447309V8.83787H11.5169V8.5377H11.5173ZM3.99017 12.8261V14.5519H5.75945V12.8261H3.99017ZM7.98778 12.8257H6.21889V14.5511H7.98778V12.8257ZM10.1433 4.57297H13.2729V4.30216H10.1433V4.57297Z" fill="#410EAD"/>
<path d="M5.48546 6.18257C5.48899 6.35907 5.42363 6.507 5.30192 6.63027C5.06203 6.87252 4.82331 7.11633 4.57754 7.35309C4.31964 7.6016 3.93847 7.59846 3.69857 7.35426C3.45868 7.10967 3.45594 6.74298 3.7021 6.48704C3.94552 6.23462 4.19285 5.98533 4.44722 5.74387C4.64211 5.55916 4.87692 5.51728 5.12347 5.62842C5.35749 5.73409 5.47568 5.92546 5.48507 6.18257H5.48546ZM4.78652 6.52617C4.86831 6.44164 4.95715 6.37864 5.00293 6.29293C5.03346 6.23501 5.02837 6.12935 4.99393 6.0726C4.94306 5.99003 4.84444 5.98846 4.76421 6.05186C4.68164 6.11683 4.60533 6.18962 4.5294 6.25615C4.62607 6.3575 4.69925 6.43421 4.78691 6.52617H4.78652ZM4.21007 6.59309C4.14432 6.66197 4.07114 6.73202 4.00578 6.80834C3.93964 6.88543 3.94082 6.97114 4.01283 7.04353C4.08405 7.11554 4.17093 7.11711 4.2492 7.05567C4.32864 6.99383 4.40026 6.92222 4.48362 6.84786C4.38382 6.75472 4.3036 6.67997 4.21007 6.5927V6.59309Z" fill="#410EAD"/>
<path d="M9.86908 0.937929C9.86908 0.7086 9.86712 0.47927 9.86986 0.249941C9.87143 0.0969245 9.95165 0.00495805 10.0788 0.00065324C10.2111 -0.00404292 10.3058 0.0918368 10.307 0.249158C10.3105 0.663986 10.3078 1.07842 10.3086 1.49325C10.3093 1.82002 10.4561 1.97304 10.7852 1.99261C11.2337 2.01922 11.5906 2.38395 11.6031 2.83205C11.6078 3.00267 11.607 3.17369 11.6031 3.34432C11.6 3.48599 11.5178 3.57287 11.3926 3.57678C11.2619 3.58108 11.1703 3.49147 11.166 3.3451C11.1613 3.18895 11.1668 3.03281 11.164 2.87666C11.1597 2.61955 10.9926 2.44657 10.7379 2.43053C10.2009 2.39726 9.87182 2.04818 9.86869 1.50851C9.86751 1.31832 9.86869 1.12812 9.86869 0.937537L9.86908 0.937929Z" fill="#410EAD"/>
<path d="M13.7189 1.62654C13.7189 1.79247 13.7204 1.9584 13.7189 2.12394C13.7138 2.53877 13.4418 2.80919 13.0293 2.81193C12.9221 2.81271 12.8145 2.8088 12.7072 2.8135C12.5624 2.82015 12.485 2.89959 12.4795 3.04439C12.476 3.14184 12.4818 3.23967 12.4775 3.33712C12.4709 3.48779 12.3867 3.57662 12.2572 3.57741C12.1257 3.5778 12.0435 3.48974 12.0396 3.33868C12.0369 3.23145 12.0369 3.12423 12.04 3.017C12.0502 2.66439 12.3198 2.39045 12.6716 2.3748C12.7738 2.3701 12.8763 2.37323 12.9788 2.37284C13.2144 2.37206 13.2786 2.30709 13.279 2.06681C13.2798 1.73534 13.2798 1.40347 13.279 1.072C13.279 0.960861 13.3115 0.867721 13.4218 0.823498C13.5666 0.765579 13.711 0.862633 13.7161 1.027C13.7224 1.22659 13.7177 1.42696 13.7177 1.62693C13.7177 1.62693 13.7181 1.62693 13.7185 1.62693L13.7189 1.62654Z" fill="#410EAD"/>
<path d="M7.32878 5.79681C7.66025 5.79681 7.99172 5.79564 8.32319 5.7972C8.48599 5.79798 8.58148 5.87782 8.585 6.00853C8.58852 6.14472 8.48795 6.23473 8.32045 6.23512C7.65242 6.23668 6.98479 6.23668 6.31676 6.23512C6.14887 6.23473 6.0526 6.14511 6.05729 6.00579C6.06199 5.87156 6.15161 5.79798 6.3195 5.7972C6.65566 5.79564 6.99222 5.79681 7.32878 5.79681Z" fill="#410EAD"/>
<path d="M7.32851 6.87933C7.65998 6.87933 7.99145 6.87815 8.32292 6.87972C8.48651 6.8805 8.5816 6.95955 8.58513 7.09066C8.58865 7.22684 8.48885 7.31725 8.32058 7.31764C7.65294 7.31959 6.98491 7.31959 6.31727 7.31764C6.14899 7.31725 6.05272 7.22724 6.05781 7.08831C6.06251 6.95408 6.15173 6.8805 6.32001 6.87972C6.65618 6.87815 6.99274 6.87933 7.3289 6.87933H7.32851Z" fill="#410EAD"/>
<path d="M12.3924 1.07901C12.3924 1.342 12.3936 1.60498 12.3924 1.86836C12.3916 2.04994 12.3094 2.14935 12.167 2.14661C12.0288 2.14426 11.9541 2.05073 11.9537 1.87384C11.9529 1.33808 11.9529 0.801939 11.9537 0.266186C11.9537 0.0986894 12.041 -0.00306055 12.176 7.02227e-05C12.3059 0.00280965 12.3908 0.101038 12.392 0.260316C12.3944 0.533085 12.3928 0.805853 12.3928 1.07862L12.3924 1.07901Z" fill="#410EAD"/>
<path d="M10.8091 1.14149C10.8091 1.04913 10.8028 0.955991 10.8107 0.864024C10.8201 0.75249 10.8905 0.686744 10.9997 0.675004C11.1163 0.662872 11.2173 0.717269 11.2271 0.832325C11.2447 1.03935 11.2447 1.24989 11.2286 1.45731C11.2196 1.57236 11.1214 1.62793 11.0036 1.61776C10.8858 1.60719 10.8165 1.53792 10.8091 1.41895C10.8032 1.3266 10.8079 1.23385 10.8079 1.14149C10.8079 1.14149 10.8083 1.14149 10.8087 1.14149H10.8091Z" fill="#410EAD"/>
<path d="M8.65956 10.8223C8.65956 10.627 8.65604 10.4317 8.66034 10.2365C8.66621 9.96917 8.80201 9.83142 9.07047 9.82555C9.34363 9.81968 9.61758 9.82007 9.89074 9.82555C10.1639 9.83103 10.3056 9.97504 10.3079 10.2466C10.3114 10.6274 10.311 11.0082 10.3079 11.389C10.3056 11.67 10.1631 11.8093 9.88095 11.8112C9.6074 11.8132 9.33385 11.8144 9.06069 11.8108C8.81101 11.8077 8.67326 11.6711 8.66034 11.423C8.65995 11.4132 8.65995 11.4035 8.65995 11.3937C8.65995 11.2031 8.65995 11.0129 8.65995 10.8223H8.65956ZM9.85786 11.3663V10.2642C9.62345 10.2642 9.39999 10.2603 9.17692 10.2689C9.14953 10.2701 9.10413 10.337 9.10256 10.375C9.09474 10.5695 9.09904 10.7644 9.09904 10.9593C9.09904 11.0931 9.09904 11.227 9.09904 11.3659H9.85786V11.3663Z" fill="#410EAD"/>
<path d="M3.99167 10.8103C3.99167 10.6248 3.98972 10.4393 3.99167 10.2538C3.99519 9.97788 4.13099 9.83191 4.4018 9.82564C4.68005 9.81938 4.95869 9.81899 5.23694 9.82564C5.4964 9.83191 5.63572 9.97123 5.63924 10.2287C5.64472 10.624 5.64511 11.0196 5.63924 11.4153C5.63533 11.6728 5.49131 11.8082 5.23263 11.8109C4.95439 11.8141 4.67575 11.8141 4.3975 11.8109C4.14273 11.8078 3.99911 11.6661 3.99285 11.411C3.98776 11.211 3.99167 11.0106 3.99167 10.8103ZM4.43976 10.2733V11.364H5.19272V10.2733H4.43976Z" fill="#410EAD"/>
<path d="M6.32816 10.8101C6.32816 10.6098 6.32542 10.4098 6.32895 10.2094C6.33286 9.99299 6.46083 9.84115 6.67646 9.83215C6.99306 9.81884 7.31123 9.81884 7.62783 9.83293C7.84385 9.84272 7.96908 9.99378 7.97104 10.2137C7.97417 10.6188 7.97456 11.0242 7.97104 11.4296C7.96908 11.6578 7.82311 11.8053 7.59495 11.8096C7.29714 11.8147 6.99893 11.8151 6.70151 11.8096C6.47453 11.8053 6.33521 11.6558 6.32856 11.4257C6.32856 11.4159 6.32856 11.4061 6.32856 11.3964C6.32856 11.2011 6.32856 11.0058 6.32856 10.8105L6.32816 10.8101ZM6.77665 10.2705V11.3619H7.52334V10.2705H6.77665Z" fill="#410EAD"/>
<path d="M1.66442 10.8243C1.66442 10.6239 1.66207 10.424 1.6652 10.2236C1.66872 9.98683 1.79513 9.83851 2.0272 9.82951C2.33441 9.81777 2.64279 9.81777 2.9496 9.83029C3.17267 9.83929 3.30612 9.99035 3.30847 10.2142C3.31277 10.6192 3.31316 11.0247 3.30847 11.4301C3.30573 11.6583 3.1578 11.8054 2.92964 11.8093C2.63183 11.8144 2.33362 11.8144 2.0362 11.8093C1.81431 11.8054 1.67577 11.661 1.6652 11.4395C1.66481 11.4297 1.66442 11.4199 1.66442 11.4102C1.66442 11.2149 1.66442 11.0196 1.66442 10.8243ZM2.11329 10.2709V11.362H2.86077V10.2709H2.11329Z" fill="#410EAD"/>
</svg>
