<svg width="15" height="15" viewBox="0 0 15 15" fill="none" xmlns="http://www.w3.org/2000/svg">
<path d="M10.873 14.9991C10.6366 14.9267 10.4346 14.8073 10.3278 14.5717C10.1963 14.2813 10.2436 14.0112 10.4112 13.7917C10.3548 13.5987 10.2687 13.4304 10.2663 13.2609C10.264 13.0911 10.3454 12.9204 10.4029 12.7032C10.2002 12.4277 10.1826 12.0942 10.4389 11.7521C10.1947 11.4222 10.1849 11.084 10.4374 10.7521C10.0585 10.2527 10.2961 9.58189 10.981 9.48248C10.3223 8.93767 9.97867 8.24843 10.0092 7.39795C10.0342 6.69658 10.318 6.10637 10.8405 5.63435C11.8295 4.74081 13.3841 4.80304 14.3078 5.76468C15.2636 6.75959 15.2859 8.46487 14.0284 9.48796C14.3336 9.53571 14.5728 9.66643 14.691 9.95214C14.8076 10.2339 14.7583 10.4966 14.5685 10.7435C14.8123 11.0743 14.8225 11.412 14.5685 11.749C14.8166 12.0825 14.817 12.4155 14.5693 12.749C14.8139 13.0813 14.8201 13.414 14.5814 13.731C14.6374 13.8656 14.7102 13.9858 14.7364 14.1149C14.8111 14.4895 14.6057 14.8292 14.2456 14.9603C14.2147 14.9717 14.1853 14.9866 14.1552 14.9999H10.873V14.9991ZM12.5 9.49579C13.6064 9.49814 14.5051 8.60303 14.5055 7.49853C14.5062 6.39873 13.6178 5.50715 12.5156 5.50128C11.4076 5.49541 10.5094 6.38269 10.5023 7.49071C10.4953 8.59246 11.3931 9.49383 12.4996 9.49618L12.5 9.49579ZM12.5121 10.9983C12.019 10.9983 11.5254 10.996 11.0323 10.9995C10.8573 11.0007 10.7521 11.1056 10.756 11.2547C10.7595 11.3979 10.8616 11.4891 11.0303 11.4985C11.0597 11.5001 11.089 11.4993 11.1184 11.4993C12.0413 11.4993 12.9646 11.4993 13.8875 11.4993C13.9411 11.4993 13.9955 11.4993 14.0479 11.4903C14.1814 11.466 14.2589 11.3615 14.2491 11.2277C14.2385 11.0797 14.1376 10.9995 13.9477 10.9987C13.4691 10.9968 12.9904 10.9979 12.5117 10.9987L12.5121 10.9983ZM12.5016 13.0014C12.2675 13.0014 12.0335 13.0014 11.7994 13.0014C11.536 13.0014 11.273 13.0014 11.0096 13.0022C10.8879 13.0022 10.7869 13.0605 10.7728 13.1764C10.7626 13.2598 10.7971 13.3705 10.8522 13.4331C10.8965 13.4836 11.0018 13.4977 11.08 13.4981C11.8601 13.5024 12.6401 13.5009 13.4201 13.5009C13.6053 13.5009 13.7908 13.504 13.9759 13.4997C14.1493 13.4958 14.253 13.3948 14.2499 13.2429C14.2468 13.0915 14.145 13.0022 13.9642 13.0018C13.4765 13.0003 12.9892 13.0014 12.5016 13.0011V13.0014ZM12.516 14.0007C12.0335 14.0007 11.5505 14.0003 11.0679 14.0007C10.8667 14.0007 10.7564 14.0895 10.7556 14.2476C10.7552 14.4042 10.8695 14.4993 11.0656 14.4993C12.026 14.5001 12.9865 14.5001 13.947 14.4993C14.1434 14.4993 14.253 14.4038 14.2499 14.2425C14.2468 14.0872 14.1419 14.0011 13.9493 14.0007C13.4714 13.9999 12.9935 14.0007 12.516 14.0007ZM12.5094 10.4962C12.9978 10.4962 13.4863 10.4981 13.9747 10.4954C14.1462 10.4946 14.2456 10.403 14.2503 10.2574C14.255 10.1048 14.1528 10.0065 13.9787 9.99676C13.9544 9.9952 13.9297 9.99637 13.9055 9.99637C12.9728 9.99637 12.0397 9.99598 11.107 9.99715C11.0444 9.99715 10.9779 9.99911 10.9196 10.0191C10.8053 10.0578 10.7481 10.1474 10.7583 10.2684C10.7685 10.3882 10.8366 10.4668 10.9571 10.4891C11.0096 10.4985 11.064 10.4966 11.1176 10.497C11.5814 10.4973 12.0456 10.497 12.5094 10.497V10.4962ZM12.5086 12.0007C12.2108 12.0007 11.9129 12.0007 11.6147 12.0007C11.4096 12.0007 11.2045 11.9975 10.9994 12.0038C10.8589 12.0081 10.7661 12.1016 10.7567 12.2296C10.747 12.3619 10.8358 12.4719 10.9763 12.495C11.0194 12.502 11.064 12.5009 11.1078 12.5009C12.0405 12.5009 12.9736 12.5013 13.9062 12.5005C13.9642 12.5005 14.0248 12.4985 14.0796 12.4817C14.2029 12.4437 14.2597 12.3517 14.2483 12.2242C14.2374 12.1024 14.1669 12.0281 14.0464 12.0073C13.9986 11.9991 13.9489 12.0007 13.9004 12.0007C13.4366 12.0003 12.9724 12.0007 12.5086 12.0007Z" fill="#410EAD"/>
<path d="M0.000782794 7.11745C0.0696671 6.88535 0.223874 6.71432 0.392562 6.54876C0.785907 6.16207 1.17221 5.76755 1.56281 5.37812C2.1315 4.81139 2.87396 4.81335 3.44382 5.38125C3.62699 5.56364 3.80899 5.74681 4.03325 5.97146C4.06809 5.91471 4.09 5.85639 4.13032 5.81569C5.2853 4.65718 6.44185 3.50024 7.5988 2.34408C8.1941 1.74917 8.92443 1.75308 9.5209 2.35112C9.8618 2.69281 10.2039 3.03292 10.5362 3.36482C11.2219 2.67872 11.9009 2.00005 12.6183 1.28224C12.5757 1.25172 12.5068 1.21375 12.4524 1.16091C12.2688 0.981658 12.2019 0.76522 12.2908 0.519429C12.3816 0.26894 12.5757 0.142131 12.8367 0.120996C13.2551 0.0865534 13.6739 0.0575907 14.0927 0.0258883C14.2093 0.0172777 14.3264 0.00162223 14.443 5.66751e-05C14.7585 -0.00424859 15.0172 0.237238 15.0003 0.551131C14.9706 1.10651 14.9244 1.66111 14.8735 2.21531C14.8512 2.45954 14.7091 2.63214 14.477 2.71433C14.2434 2.79691 14.0336 2.73821 13.8567 2.56913C13.7972 2.51238 13.7483 2.44427 13.6857 2.37069C13.4469 2.61257 13.2317 2.83175 13.0148 3.04897C12.515 3.55034 12.0144 4.05131 11.5142 4.55229C10.9256 5.14133 10.1902 5.1425 9.60114 4.55386C9.25633 4.20904 8.91347 3.86227 8.56279 3.50924C8.51465 3.55425 8.47511 3.58908 8.43832 3.62587C7.26416 4.79965 6.09156 5.97499 4.91544 7.1468C4.37767 7.68261 3.6266 7.67987 3.08727 7.14797C2.92758 6.99025 2.76868 6.83134 2.61134 6.67087C2.57768 6.63643 2.55185 6.59455 2.51154 6.54132C2.10802 6.94798 1.72759 7.3331 1.34442 7.71588C1.27945 7.78085 1.209 7.84504 1.13072 7.8924C0.733853 8.13192 0.218786 7.94915 0.0536201 7.51471C0.0367904 7.47009 0.0180038 7.42625 0 7.38203C0 7.29396 0 7.20629 0 7.11823L0.000782794 7.11745ZM8.55965 3.0114C8.71777 3.00748 8.83871 3.08185 8.94635 3.18987C9.2665 3.51198 9.6031 3.81922 9.90564 4.15699C10.2861 4.58086 10.8109 4.57656 11.214 4.15307C11.9279 3.40396 12.672 2.68341 13.4035 1.95073C13.6273 1.72647 13.7209 1.72725 13.9491 1.95504C14.0285 2.03449 14.1044 2.11786 14.189 2.19144C14.2211 2.21923 14.2817 2.24584 14.3131 2.23332C14.3467 2.22001 14.3784 2.16052 14.3819 2.11903C14.4254 1.61336 14.4626 1.1069 14.5029 0.601228C14.5087 0.524908 14.481 0.49164 14.4027 0.499859C14.3056 0.510035 14.2082 0.517472 14.1107 0.524908C13.7068 0.555828 13.3025 0.584008 12.899 0.618841C12.8524 0.622755 12.7859 0.652109 12.7706 0.687725C12.7569 0.719819 12.7906 0.785964 12.8215 0.820797C12.9056 0.915904 12.9996 1.00162 13.0888 1.09203C13.263 1.26815 13.2657 1.38126 13.0943 1.55269C12.3839 2.26502 11.6731 2.97695 10.9608 3.68732C10.6943 3.95307 10.4125 3.94838 10.1424 3.67871C9.80388 3.34055 9.47237 2.99496 9.12325 2.66815C9.01092 2.56287 8.86063 2.47598 8.71269 2.43488C8.42502 2.35504 8.1804 2.4658 7.97218 2.6748C6.72718 3.92255 5.47982 5.16873 4.23286 6.41451C4.06182 6.58555 3.94245 6.58516 3.77141 6.41451C3.53971 6.1836 3.30997 5.95072 3.07748 5.72058C2.71702 5.36364 2.28571 5.36285 1.92876 5.71941C1.50019 6.1472 1.07279 6.57616 0.645399 7.00512C0.607434 7.04308 0.567904 7.08105 0.539724 7.12606C0.478276 7.2243 0.486887 7.32371 0.563207 7.40981C0.642659 7.49905 0.744029 7.5288 0.853617 7.47165C0.908411 7.44308 0.956161 7.39768 1.00078 7.35385C1.37847 6.9789 1.75342 6.60121 2.13228 6.22704C2.3589 6.00317 2.64461 6.00434 2.87357 6.22704C3.045 6.39377 3.21251 6.5652 3.38159 6.73428C3.78942 7.1421 4.21407 7.14367 4.61916 6.73858C5.79646 5.56129 6.97453 4.38399 8.15065 3.20552C8.26572 3.09046 8.38979 3.00513 8.55965 3.01218V3.0114Z" fill="#410EAD"/>
<path d="M5.86171 14.9991C5.79948 14.9737 5.73607 14.951 5.67502 14.9228C5.32238 14.7592 5.05976 14.2461 5.43549 13.7549C5.18735 13.3307 5.18657 13.122 5.43275 12.7569C5.01475 12.1956 5.37482 11.5491 5.98461 11.4943C5.20379 10.8289 4.87032 10.0027 5.05349 9.00229C5.16778 8.37803 5.49576 7.86922 6.00809 7.49153C7.06366 6.71345 8.50827 6.86649 9.3752 7.83517C10.2351 8.79603 10.2856 10.4833 9.02843 11.4939C9.33997 11.5299 9.57246 11.6723 9.69301 11.9569C9.81199 12.2387 9.75367 12.5013 9.5662 12.7463C9.81903 13.0809 9.81825 13.4183 9.56698 13.7502C9.91649 14.2109 9.71806 14.6731 9.43078 14.8625C9.34311 14.9205 9.24017 14.9545 9.14389 14.9995H5.86171V14.9991ZM7.48088 11.4986C8.55876 11.5205 9.47539 10.6402 9.49927 9.56041C9.52354 8.44222 8.65661 7.51971 7.56151 7.49936C6.44253 7.47862 5.52746 8.34359 5.50594 9.44299C5.48402 10.5714 6.35251 11.4755 7.48088 11.4986ZM7.50123 12.0015C7.16973 12.0011 6.83822 12.0007 6.50672 12.0015C6.33607 12.0015 6.16543 11.998 5.99478 12.005C5.8574 12.0105 5.7623 12.1068 5.7529 12.2328C5.74312 12.36 5.83783 12.4739 5.97639 12.4958C6.02414 12.5033 6.07345 12.5017 6.12237 12.5017C6.66366 12.5017 7.20495 12.5017 7.74585 12.5017C8.12119 12.5017 8.49653 12.5017 8.87227 12.5017C8.91141 12.5017 8.95054 12.5036 8.98929 12.5005C9.15015 12.4884 9.257 12.3843 9.25387 12.2445C9.25074 12.1036 9.14389 12.0038 8.97911 12.0027C8.48675 11.9999 7.99438 12.0015 7.50163 12.0015H7.50123ZM7.51063 13.0019C7.02296 13.0019 6.53529 13.0031 6.04762 13.0011C5.91846 13.0007 5.81709 13.0383 5.76973 13.1674C5.70202 13.3514 5.8347 13.5009 6.06875 13.5013C7.02452 13.5025 7.98029 13.5021 8.93606 13.5013C9.13254 13.5013 9.25035 13.407 9.25387 13.2539C9.25739 13.097 9.13724 13.0027 8.9298 13.0023C8.457 13.0015 7.98382 13.0023 7.51102 13.0023L7.51063 13.0019ZM7.5075 14.5001C7.99008 14.5001 8.47305 14.5013 8.95563 14.4997C9.13684 14.4993 9.25426 14.3972 9.25348 14.2485C9.25309 14.0993 9.13724 14.0019 8.95328 14.0015C8.55328 14.0003 8.15368 14.0011 7.75368 14.0011C7.18812 14.0011 6.62218 14.0027 6.05662 13.9999C5.93451 13.9995 5.83314 14.0285 5.77717 14.1447C5.69185 14.3216 5.82335 14.4986 6.0441 14.4997C6.53177 14.5021 7.01944 14.5005 7.5071 14.5005L7.5075 14.5001Z" fill="#410EAD"/>
<path d="M0.000976562 11.2194C0.0565537 11.0143 0.0968667 10.8029 0.170448 10.6045C0.576708 9.51096 1.68081 8.89805 2.74813 9.00647C3.981 9.13171 4.89607 10.1223 4.98765 11.2671C5.05654 12.1293 4.75438 12.8432 4.1039 13.4111C4.0855 13.4272 4.06554 13.4417 4.04832 13.4585C4.04206 13.4644 4.04088 13.4753 4.03345 13.4941C4.2992 13.5246 4.51446 13.6389 4.65067 13.8745C4.88041 14.2706 4.70389 14.774 4.27728 14.9454C4.23814 14.961 4.20057 14.981 4.16221 14.9994H0.85068C0.815846 14.9841 0.781796 14.9673 0.746571 14.954C0.413891 14.826 0.226025 14.5258 0.258118 14.1716C0.288255 13.8381 0.541875 13.5685 0.882382 13.5082C0.911736 13.5031 0.941091 13.4973 0.990797 13.4879C0.624849 13.1982 0.352443 12.8624 0.195496 12.4483C0.109782 12.2225 0.0643814 11.9814 0.000976562 11.7474C0.000976562 11.5716 0.000976562 11.3959 0.000976562 11.2202V11.2194ZM0.500388 11.4922C0.498039 12.5959 1.39627 13.4992 2.49842 13.5012C3.59979 13.5031 4.5035 12.6002 4.5035 11.4984C4.5035 10.4022 3.60918 9.50314 2.51251 9.49687C1.41271 9.49022 0.503127 10.3928 0.500779 11.4926L0.500388 11.4922ZM2.50038 14.0006C2.0225 14.0006 1.54461 14.0002 1.06712 14.0006C0.864378 14.0006 0.756747 14.0867 0.755573 14.2464C0.754398 14.4072 0.863596 14.4992 1.06242 14.4992C2.02289 14.5 2.98335 14.5 3.94382 14.4992C4.13756 14.4992 4.25302 14.4002 4.24988 14.2436C4.24675 14.0906 4.13795 14.001 3.94812 14.0006C3.46554 13.9998 2.98257 14.0006 2.49999 14.0006H2.50038Z" fill="#410EAD"/>
<path d="M12.52 6.00146C12.6331 6.00655 12.711 6.07505 12.7513 6.20381C12.7674 6.25469 12.8112 6.30127 12.8523 6.33962C12.9337 6.41516 13.0327 6.47465 13.1047 6.55763C13.2198 6.69031 13.2077 6.83825 13.0922 6.93375C12.976 7.03003 12.8445 7.00146 12.7188 6.87661C12.6613 6.81907 12.5783 6.76741 12.5 6.75528C12.3779 6.73649 12.2668 6.85273 12.255 6.97798C12.2437 7.09618 12.3251 7.21125 12.4452 7.23747C12.5357 7.25704 12.6304 7.25782 12.7188 7.28287C13.0057 7.36467 13.2202 7.61907 13.2464 7.90322C13.2769 8.23159 13.1509 8.48443 12.8648 8.65077C12.7995 8.68873 12.7529 8.71848 12.7407 8.80811C12.7251 8.92552 12.6351 8.99167 12.5126 8.99519C12.3826 8.99911 12.291 8.93179 12.2676 8.80889C12.2503 8.71965 12.2002 8.68678 12.1353 8.63981C12.0347 8.56701 11.9388 8.47934 11.8656 8.37993C11.7865 8.27308 11.8265 8.12983 11.9286 8.05586C12.0343 7.97954 12.1658 7.99285 12.2597 8.09108C12.2832 8.11574 12.3004 8.14666 12.3243 8.17015C12.4108 8.25468 12.513 8.2723 12.6194 8.2175C12.7208 8.16506 12.7654 8.07386 12.7474 7.96114C12.7294 7.84882 12.6609 7.77798 12.5466 7.75762C12.4985 7.74901 12.4496 7.74588 12.4014 7.73962C12.0789 7.69696 11.8351 7.46526 11.7678 7.13688C11.7051 6.83277 11.8515 6.51105 12.1314 6.35489C12.2026 6.31536 12.2519 6.28013 12.2668 6.18855C12.2852 6.07231 12.3865 6.00499 12.5196 6.00264L12.52 6.00146Z" fill="#410EAD"/>
<path d="M8.19862 8.79476C8.15948 8.8429 8.11721 8.94466 8.04715 8.96893C7.97004 8.99594 7.86515 8.96228 7.77826 8.93566C7.73913 8.92392 7.71643 8.86365 7.68277 8.82881C7.60214 8.74545 7.49255 8.71648 7.40449 8.77872C7.3356 8.82725 7.2769 8.9247 7.26281 9.00885C7.24441 9.11727 7.31995 9.20141 7.4311 9.2339C7.47259 9.24603 7.51721 9.24956 7.56065 9.25308C7.88433 9.27891 8.15791 9.50787 8.2311 9.81589C8.30899 10.1439 8.16926 10.4781 7.87768 10.6417C7.80136 10.6844 7.75243 10.727 7.73482 10.8214C7.71251 10.9404 7.61701 10.9971 7.49607 10.9936C7.37474 10.9901 7.28707 10.927 7.2675 10.8073C7.2538 10.7243 7.20801 10.691 7.14617 10.646C7.04206 10.5701 6.94148 10.4809 6.86398 10.3787C6.78453 10.2742 6.82484 10.1294 6.927 10.055C7.0268 9.98223 7.17122 9.99672 7.25968 10.0903C7.28316 10.1149 7.29921 10.1466 7.32386 10.1697C7.41036 10.2523 7.51016 10.2754 7.61819 10.2178C7.71995 10.1638 7.76222 10.0742 7.74539 9.96149C7.72738 9.84094 7.65263 9.77323 7.53286 9.75327C7.44206 9.73801 7.34656 9.73527 7.26085 9.70474C6.95557 9.59554 6.78179 9.37284 6.75831 9.05112C6.736 8.7474 6.86672 8.51022 7.12895 8.35563C7.20566 8.31062 7.25302 8.26874 7.27103 8.1752C7.29412 8.05661 7.3904 7.99711 7.50938 8.00064C7.62797 8.00416 7.71916 8.06717 7.73834 8.18772C7.75282 8.27735 7.80057 8.31492 7.87298 8.35563C8.02875 8.44369 8.15752 8.56032 8.19822 8.79398L8.19862 8.79476Z" fill="#410EAD"/>
<path d="M2.55818 10.7515C2.37814 10.7484 2.26934 10.8435 2.25603 10.9699C2.24194 11.1041 2.32805 11.2212 2.46268 11.245C2.52961 11.2568 2.59928 11.2552 2.66503 11.2701C2.98088 11.3425 3.20397 11.5891 3.24703 11.9081C3.28695 12.2028 3.12922 12.4994 2.86112 12.6568C2.8118 12.6857 2.76914 12.7452 2.74879 12.8004C2.70261 12.9253 2.62315 13.0028 2.49047 12.9965C2.36601 12.9906 2.29126 12.9151 2.25407 12.7922C2.23881 12.7413 2.19302 12.6963 2.1527 12.6572C2.05955 12.5668 1.94801 12.4916 1.86817 12.391C1.77345 12.2713 1.80554 12.1249 1.91826 12.0431C2.03216 11.9605 2.16679 11.9856 2.26895 12.0991C2.3163 12.1515 2.36992 12.2102 2.43255 12.2349C2.56444 12.2865 2.712 12.1906 2.74448 12.049C2.77579 11.9131 2.67912 11.7762 2.53196 11.7515C2.46034 11.7394 2.38558 11.7398 2.31552 11.7222C2.01963 11.6482 1.79693 11.4012 1.75936 11.1108C1.71826 10.7934 1.86229 10.4979 2.13705 10.3468C2.2028 10.3108 2.25212 10.283 2.26308 10.1918C2.27717 10.0732 2.37071 10.0055 2.48969 10.0012C2.61533 9.99652 2.71435 10.0603 2.73587 10.1856C2.75231 10.2818 2.81063 10.3139 2.87834 10.3625C2.97188 10.4294 3.06112 10.5096 3.13078 10.6004C3.22433 10.7225 3.19849 10.8681 3.09008 10.9515C2.97501 11.0404 2.8392 11.0133 2.72804 10.8932C2.66895 10.8294 2.59341 10.7805 2.55701 10.7511L2.55818 10.7515Z" fill="#410EAD"/>
</svg>
