<svg width="17" height="15" viewBox="0 0 17 15" fill="none" xmlns="http://www.w3.org/2000/svg">
<path d="M0 10.4666C0.077635 10.0516 0.157932 9.63704 0.232461 9.22117C0.478231 7.85337 0.723558 6.48558 0.966223 5.11735C1.0789 4.4807 1.43159 4.03783 2.05045 3.80878C2.52558 3.63328 2.99671 3.44473 3.48115 3.2971C3.85779 3.18214 4.20116 3.30538 4.49129 3.56317C4.56937 3.63241 4.64346 3.70557 4.71932 3.77699C4.8666 3.91459 5.04095 3.98078 5.24502 3.98035C6.17486 3.97904 7.10427 3.97904 8.03411 3.98035C8.24483 3.98035 8.42273 3.91067 8.57312 3.76784C8.63256 3.71123 8.69245 3.65419 8.7519 3.59758C9.07797 3.28709 9.46747 3.17213 9.89557 3.31583C10.4173 3.49089 10.9323 3.68989 11.4372 3.90763C11.9775 4.1406 12.2215 4.59827 12.3196 5.14696C12.5179 6.25827 12.7179 7.36957 12.9176 8.48088C12.9202 8.49656 12.9256 8.5118 12.9353 8.54663C13.0515 8.53226 13.1687 8.51702 13.2867 8.50352C15.0701 8.29842 16.7186 9.52687 16.9657 11.2452C17.223 13.0332 16.007 14.6693 14.2068 14.958C12.3781 15.2511 10.6422 13.986 10.3911 12.1797C10.3849 12.134 10.3703 12.0813 10.3401 12.0486C10.0043 11.6811 9.66533 11.3171 9.3264 10.9526C9.31531 10.9408 9.30156 10.9317 9.29446 10.9256C9.12943 10.9809 8.97283 11.0536 8.80824 11.085C8.26435 11.1886 7.81673 11.0127 7.47115 10.5929C7.40904 10.5171 7.35004 10.4849 7.25111 10.4862C6.84164 10.4914 6.43217 10.4853 6.0227 10.4914C5.96059 10.4923 5.87896 10.5202 5.84126 10.5641C5.34617 11.1424 4.74061 11.2692 4.04855 10.9317C4.03436 10.9247 4.01794 10.9221 3.98822 10.9134C3.77306 11.162 3.55524 11.4142 3.33697 11.6654C2.95323 12.107 2.48609 12.404 1.88409 12.4623C0.979088 12.5503 0.204513 11.9764 0.0337157 11.0928C0.0266176 11.0571 0.0115343 11.0227 0 10.9879C0 10.8141 0 10.6403 0 10.4662V10.4666ZM7.17525 9.82908C7.18412 9.75418 7.19255 9.68494 7.20053 9.61614C7.28527 8.88412 8.00173 8.34893 8.73904 8.46738C9.52248 8.59323 10.0726 9.31784 9.85698 10.0429C9.75317 10.3913 9.84411 10.5942 10.0726 10.8102C10.16 10.8925 10.2305 10.9918 10.3108 11.0819C10.3374 11.1115 10.3707 11.135 10.4084 11.1681C10.6098 10.2145 11.1116 9.48375 11.9336 8.96947C12.0485 8.89762 12.2206 8.85364 12.2672 8.75261C12.3151 8.6494 12.2437 8.49177 12.2202 8.35851C12.0339 7.31644 11.8422 6.27525 11.6608 5.23275C11.5885 4.81818 11.3613 4.54689 10.9607 4.40188C10.6032 4.27255 10.2483 4.13581 9.89602 3.99254C9.59613 3.87061 9.34592 3.90022 9.12144 4.15192C8.80691 4.50508 8.39877 4.64356 7.92143 4.63659C7.10249 4.62484 6.28311 4.61831 5.46461 4.63877C4.92073 4.65227 4.46335 4.50596 4.10179 4.09967C3.93587 3.91329 3.73003 3.87061 3.50067 3.9564C3.05704 4.12275 2.6143 4.29171 2.17555 4.47025C1.8974 4.58347 1.72172 4.79467 1.6605 5.08687C1.59706 5.38951 1.5385 5.69347 1.48394 5.99786C1.21421 7.50457 0.943598 9.01128 0.680082 10.5193C0.555866 11.2308 1.00216 11.8009 1.69244 11.8196C2.11256 11.8309 2.45415 11.6502 2.72965 11.3523C2.98606 11.0749 3.23006 10.7862 3.47228 10.4966C3.50378 10.4592 3.51309 10.376 3.49357 10.3299C3.39686 10.0973 3.35605 9.85738 3.39553 9.61222C3.41372 9.49987 3.38222 9.45284 3.28862 9.39753C2.35522 8.84319 2.00564 7.70401 2.46746 6.74076C2.93061 5.77534 4.06585 5.31287 5.09418 5.67039C6.47875 6.15201 6.94633 7.86382 5.99564 8.96729C5.9597 9.0091 5.90736 9.07355 5.91845 9.11274C5.98499 9.34963 6.06795 9.5826 6.14958 9.82951H7.17613L7.17525 9.82908ZM11.0246 11.7364C11.0242 13.1756 12.2171 14.3466 13.6833 14.3457C15.1415 14.3449 16.334 13.1782 16.3375 11.7482C16.3415 10.3081 15.1508 9.13233 13.6864 9.13059C12.2193 9.12885 11.0251 10.2976 11.0242 11.7364H11.0246ZM4.46024 6.19948C3.75043 6.1973 3.17106 6.61927 2.99183 7.21324C2.80728 7.8255 3.05616 8.48567 3.59383 8.82228C3.68078 8.87672 3.73535 8.87976 3.82053 8.80661C4.26105 8.42862 4.7588 8.34371 5.29781 8.57625C5.40916 8.62415 5.45707 8.58757 5.5143 8.51136C5.86699 8.0428 5.93885 7.53723 5.68244 7.01075C5.42558 6.48253 4.97307 6.22909 4.4598 6.19991L4.46024 6.19948ZM9.23457 9.78161C9.23368 9.40494 8.9187 9.0975 8.53763 9.10142C8.16321 9.10534 7.85444 9.40885 7.85 9.77726C7.84557 10.1505 8.16099 10.464 8.54162 10.4649C8.92403 10.4657 9.23501 10.1592 9.23457 9.78118V9.78161ZM4.04678 9.78553C4.04767 10.1631 4.36087 10.4683 4.74327 10.4649C5.11858 10.4614 5.42513 10.1596 5.42957 9.78945C5.434 9.41495 5.12036 9.10272 4.73884 9.10142C4.35776 9.10011 4.04589 9.40798 4.04678 9.78553Z" fill="#410EAD"/>
<path d="M6.63449 0.000435558C7.44189 0.0126286 8.13794 0.283052 8.71954 0.829561C8.85751 0.959329 8.88501 1.11827 8.80383 1.25501C8.72886 1.38086 8.57713 1.45097 8.43429 1.40002C8.35 1.36997 8.27369 1.3077 8.20537 1.24717C7.37224 0.513413 6.15448 0.451577 5.25968 1.10216C5.17983 1.16008 5.10663 1.22627 5.0321 1.29115C4.85376 1.44661 4.65324 1.45445 4.51882 1.30988C4.38263 1.16313 4.40437 0.9737 4.58315 0.809094C5.1612 0.277391 5.84838 0.0130639 6.63493 0L6.63449 0.000435558Z" fill="#410EAD"/>
<path d="M6.63106 1.30566C7.07336 1.31307 7.4571 1.45503 7.77696 1.75158C7.93356 1.89659 7.95219 2.08863 7.82753 2.22841C7.70021 2.37125 7.50767 2.37604 7.33998 2.24061C6.86929 1.85958 6.41368 1.86088 5.9359 2.24453C5.77442 2.37429 5.58987 2.37125 5.46033 2.23625C5.33123 2.10213 5.3441 1.90269 5.4967 1.75942C5.81479 1.46112 6.19764 1.31742 6.63062 1.3061L6.63106 1.30566Z" fill="#410EAD"/>
<path d="M6.63466 3.26116C6.451 3.25767 6.30238 3.10265 6.31037 2.92237C6.31791 2.74818 6.46874 2.6084 6.64664 2.61188C6.82364 2.61493 6.97093 2.76081 6.97226 2.93412C6.97359 3.11354 6.81788 3.26464 6.6351 3.26159L6.63466 3.26116Z" fill="#410EAD"/>
<path d="M8.65346 7.43216C8.47069 7.42563 8.32518 7.26756 8.33494 7.08728C8.3447 6.91222 8.49597 6.77723 8.6752 6.78289C8.85886 6.78855 9.00748 6.94749 8.9955 7.12516C8.98396 7.29761 8.82736 7.43826 8.65302 7.43216H8.65346Z" fill="#410EAD"/>
<path d="M10.2841 8.22706C10.1018 8.22271 9.96027 8.079 9.96293 7.9009C9.96559 7.72366 10.1129 7.58257 10.2939 7.58301C10.4806 7.58344 10.6324 7.7376 10.6244 7.91919C10.6164 8.09686 10.4673 8.23185 10.2841 8.2275V8.22706Z" fill="#410EAD"/>
<path d="M10.1803 6.49522C9.99575 6.49348 9.85645 6.35544 9.85645 6.17385C9.85645 5.99575 10.0011 5.8503 10.1799 5.84769C10.3613 5.84508 10.5214 6.00402 10.5161 6.18169C10.5108 6.35805 10.3622 6.49697 10.1803 6.49566V6.49522Z" fill="#410EAD"/>
<path d="M13.6878 13.7448C13.5738 13.6625 13.4554 13.6167 13.4012 13.5318C13.0592 12.9936 12.7247 12.451 12.4062 11.8993C12.3574 11.8143 12.3623 11.6537 12.4124 11.567C12.7287 11.0205 13.0605 10.4823 13.3964 9.94663C13.5383 9.72019 13.8258 9.72193 13.9686 9.94968C14.304 10.4853 14.6301 11.027 14.9584 11.5666C15.0302 11.6846 15.0245 11.803 14.9526 11.9206C14.6257 12.4549 14.304 12.9927 13.9686 13.5222C13.9141 13.6085 13.8001 13.659 13.6883 13.7452L13.6878 13.7448ZM13.6816 10.7427C13.478 11.0758 13.2877 11.385 13.1013 11.6959C13.088 11.7181 13.0903 11.7617 13.104 11.7847C13.2903 12.0952 13.4798 12.4035 13.6816 12.7336C13.8821 12.4048 14.068 12.1044 14.2486 11.8008C14.2663 11.7708 14.2707 11.7138 14.2539 11.685C14.0716 11.3771 13.8835 11.0727 13.6821 10.7427H13.6816Z" fill="#410EAD"/>
</svg>
