<svg width="17" height="15" viewBox="0 0 17 15" fill="none" xmlns="http://www.w3.org/2000/svg">
<path d="M0.000886931 6.1393C0.0727267 6.07663 0.135697 5.99872 0.21818 5.95299C0.986688 5.52491 1.76007 5.1053 2.5277 4.67638C2.68024 4.59085 2.80885 4.59339 2.95918 4.67722C3.72236 5.10319 4.48777 5.52576 5.25628 5.94283C5.42036 6.03175 5.48599 6.14395 5.48377 6.3256C5.47534 7.09665 5.48244 7.8677 5.47756 8.63875C5.47667 8.7463 5.50772 8.80939 5.60882 8.86189C5.89973 9.01347 6.18443 9.17565 6.47134 9.334C6.57644 9.39201 6.64784 9.48178 6.61236 9.59441C6.58842 9.67062 6.52234 9.76293 6.45095 9.79003C6.37866 9.81755 6.26425 9.79638 6.18931 9.75827C5.9015 9.61262 5.61947 9.45553 5.34009 9.29505C5.25317 9.24509 5.18798 9.24509 5.10018 9.2942C4.39376 9.68798 3.68245 10.0729 2.9778 10.4692C2.80929 10.564 2.67049 10.5611 2.50198 10.4667C1.74988 10.0437 0.990679 9.63209 0.236362 9.21206C0.149001 9.16337 0.0784916 9.08673 0 9.02321C0 8.06162 0 7.10046 0 6.13887L0.000886931 6.1393ZM2.47714 9.86328V9.67274C2.47714 9.07657 2.47404 8.48081 2.4798 7.88464C2.48113 7.77031 2.44699 7.70595 2.34011 7.64837C1.78757 7.3507 1.2399 7.04499 0.690017 6.74225C0.644784 6.71726 0.597335 6.69652 0.531703 6.66476C0.531703 7.36891 0.530816 8.0485 0.534364 8.72767C0.534364 8.76027 0.566292 8.80642 0.597334 8.82378C1.21152 9.16633 1.82792 9.50507 2.4767 9.86328H2.47714ZM4.66781 6.22567C4.65229 6.20747 4.64653 6.19688 4.63766 6.1918C4.03057 5.85603 3.42436 5.51898 2.81417 5.18956C2.7716 5.16627 2.6869 5.17982 2.63856 5.20565C2.30552 5.38264 1.97737 5.56725 1.64744 5.74975C1.37072 5.9026 1.094 6.05546 0.79955 6.21805C1.44034 6.57034 2.06118 6.91416 2.68557 7.25077C2.72326 7.2711 2.80086 7.25162 2.8461 7.22749C3.17381 7.05219 3.49798 6.87097 3.82347 6.69186C4.10418 6.53689 4.38533 6.38192 4.66825 6.2261L4.66781 6.22567ZM4.94009 6.67281C4.90329 6.68847 4.8789 6.69609 4.85672 6.70837C4.27269 7.02975 3.68778 7.34901 3.10818 7.67716C3.05674 7.70638 3.01328 7.79191 3.01239 7.85161C3.0053 8.47446 3.00796 9.09773 3.00885 9.72059C3.00885 9.75912 3.01771 9.79765 3.02437 9.85312C3.58268 9.54571 4.12192 9.24847 4.68245 8.9398C4.62125 8.90423 4.57646 8.87671 4.53034 8.8513C4.29132 8.7192 4.05096 8.58921 3.81372 8.45456C3.65186 8.36268 3.60485 8.22761 3.68112 8.09677C3.76006 7.96128 3.91394 7.93121 4.08378 8.01928C4.12768 8.04172 4.16937 8.06713 4.21283 8.09084C4.45052 8.22125 4.68821 8.35125 4.94054 8.48928V6.67281H4.94009Z" fill="#410EAD"/>
<path d="M11.2407 2.86482C11.2407 3.26072 11.2438 3.65662 11.2385 4.05251C11.2372 4.14863 11.2678 4.20368 11.3578 4.25152C11.6908 4.42851 12.0185 4.61439 12.3476 4.79731C12.4602 4.85998 12.529 4.96075 12.4797 5.0738C12.4451 5.15383 12.356 5.23343 12.2718 5.26604C12.2123 5.28933 12.1112 5.24741 12.0425 5.21099C11.7334 5.04755 11.4252 4.88157 11.125 4.70331C11.0092 4.63429 10.9263 4.64403 10.8137 4.70712C10.1232 5.09413 9.4261 5.47055 8.73608 5.85883C8.56846 5.95325 8.43099 5.9541 8.26203 5.8584C7.56359 5.46335 6.85761 5.08058 6.1565 4.68976C6.06648 4.63938 5.99819 4.63133 5.90285 4.68638C5.59154 4.86718 5.27403 5.03824 4.9574 5.21057C4.77558 5.30965 4.62037 5.28552 4.53878 5.15129C4.4563 5.01537 4.51217 4.8731 4.69044 4.77402C5.00086 4.60169 5.31039 4.42766 5.62436 4.26253C5.72458 4.21003 5.75961 4.14778 5.75917 4.03854C5.75429 3.26792 5.76094 2.49729 5.7534 1.72624C5.75163 1.53401 5.8248 1.41587 6.00041 1.32103C6.76492 0.908616 7.52501 0.488583 8.28243 0.0647385C8.43409 -0.020369 8.56181 -0.0220628 8.71347 0.0626213C9.48109 0.491546 10.2505 0.917084 11.0234 1.33627C11.1844 1.4235 11.2456 1.5374 11.2425 1.70846C11.2358 2.09377 11.2403 2.47908 11.2403 2.8644L11.2407 2.86482ZM10.4425 1.60557C9.79727 1.24947 9.18264 0.907769 8.56314 0.574114C8.52145 0.551672 8.43631 0.571996 8.38708 0.598248C8.01148 0.799797 7.63986 1.00727 7.26736 1.21348C7.03987 1.33923 6.81237 1.46541 6.58532 1.59075C6.59641 1.61192 6.59863 1.62504 6.60617 1.62928C7.21281 1.96505 7.81902 2.30125 8.42744 2.63321C8.46291 2.65269 8.52899 2.65734 8.56269 2.63914C9.18087 2.30294 9.79594 1.96209 10.4425 1.60514V1.60557ZM10.697 2.06455C10.6607 2.07895 10.6354 2.08573 10.6132 2.098C10.0243 2.4215 9.43497 2.74372 8.85005 3.07357C8.80393 3.09982 8.76846 3.18111 8.76801 3.23743C8.7618 3.79677 8.76446 4.35653 8.76446 4.91629C8.76446 5.01918 8.76446 5.12207 8.76446 5.25291C9.33386 4.93958 9.87576 4.64107 10.4367 4.3324C10.352 4.28286 10.2926 4.24686 10.2319 4.21341C10.0456 4.1101 9.85625 4.01187 9.6731 3.90389C9.53652 3.82302 9.50193 3.68371 9.57377 3.56135C9.64339 3.44279 9.79018 3.40383 9.9343 3.46819C9.98397 3.49063 10.0314 3.51858 10.0793 3.54483C10.2784 3.65408 10.4771 3.76332 10.697 3.88442V2.0654V2.06455ZM8.2332 5.25291C8.2332 5.17585 8.2332 5.1297 8.2332 5.08354C8.2332 4.47678 8.2301 3.87002 8.23587 3.26326C8.23675 3.15486 8.20216 3.09389 8.10327 3.04012C7.53654 2.73356 6.97379 2.42023 6.40972 2.10986C6.37823 2.0925 6.34453 2.0798 6.30329 2.06117V3.88188C6.56226 3.73918 6.79863 3.60411 7.04031 3.47793C7.2372 3.37504 7.45051 3.47539 7.45893 3.67059C7.46425 3.79592 7.38709 3.87341 7.27845 3.93226C7.04607 4.05802 6.81592 4.18759 6.56093 4.32901C7.12412 4.6398 7.66203 4.93704 8.23365 5.25249L8.2332 5.25291Z" fill="#410EAD"/>
<path d="M16.9966 7.57631C16.9966 8.00396 16.9926 8.43204 16.9988 8.85969C17.001 9.01382 16.9438 9.11756 16.8019 9.19462C16.0201 9.62143 15.24 10.0512 14.4622 10.4848C14.315 10.5669 14.189 10.5597 14.0449 10.4793C13.3389 10.0851 12.6281 9.69891 11.923 9.30386C11.8179 9.24501 11.7412 9.24585 11.6387 9.30556C11.3704 9.46264 11.095 9.60957 10.821 9.75735C10.6445 9.85262 10.4995 9.82763 10.4157 9.69468C10.3301 9.55961 10.3846 9.41522 10.5625 9.31614C10.8396 9.16202 11.1154 9.00662 11.397 8.86012C11.4933 8.81015 11.5221 8.75045 11.5217 8.64841C11.5172 7.86677 11.5225 7.08514 11.5163 6.3035C11.515 6.13371 11.5824 6.0304 11.7336 5.94783C12.5066 5.52737 13.2768 5.10226 14.0445 4.67333C14.1899 4.59204 14.315 4.58611 14.4613 4.66783C15.2343 5.09845 16.0094 5.5261 16.7872 5.94952C16.9398 6.03251 17.0032 6.14091 17.0001 6.30858C16.9921 6.73116 16.9974 7.15373 16.9974 7.57631H16.9966ZM14.5185 9.84584C14.5611 9.83187 14.5771 9.8289 14.5908 9.82171C15.189 9.49313 15.7877 9.16667 16.3819 8.83175C16.4276 8.80592 16.4613 8.72377 16.4622 8.66746C16.468 8.03953 16.4657 7.41202 16.4653 6.78409C16.4653 6.75021 16.4604 6.71676 16.456 6.66129C15.8152 7.01443 15.1943 7.35486 14.5771 7.70121C14.5425 7.72069 14.5225 7.78844 14.5212 7.83417C14.5159 8.08187 14.5185 8.32999 14.5185 8.57812C14.5185 8.99392 14.5185 9.40972 14.5185 9.84584ZM12.3146 6.21712C12.8919 6.53511 13.448 6.82854 13.989 7.14569C14.1824 7.25916 14.3216 7.26763 14.5194 7.15077C15.0635 6.82939 15.6241 6.533 16.1935 6.2184C16.1287 6.17944 16.0795 6.14768 16.028 6.11931C15.5833 5.87373 15.1221 5.65186 14.699 5.37621C14.3824 5.17001 14.138 5.17085 13.8192 5.37452C13.3434 5.67896 12.8312 5.93132 12.315 6.21712H12.3146ZM13.9757 9.85389C13.9819 9.80689 13.9873 9.78614 13.9873 9.76539C13.9877 9.12137 13.9913 8.47692 13.9824 7.8329C13.9815 7.7732 13.9185 7.69148 13.86 7.65845C13.3088 7.34681 12.7522 7.04322 12.197 6.73751C12.1558 6.71507 12.1123 6.69686 12.0636 6.67357V8.48539C12.3682 8.31814 12.6534 8.15724 12.9429 8.00438C13.0906 7.92647 13.2418 7.97009 13.315 8.09669C13.3855 8.21906 13.3465 8.3499 13.2094 8.43881C13.1638 8.46845 13.1141 8.49216 13.0667 8.51842C12.821 8.65476 12.5749 8.79152 12.3128 8.93718C12.876 9.24755 13.4152 9.54479 13.9753 9.85389H13.9757Z" fill="#410EAD"/>
<path d="M5.75623 12.0244C5.75623 11.6124 5.76111 11.2004 5.75402 10.7888C5.75091 10.6118 5.81255 10.4958 5.98062 10.4052C6.75002 9.98984 7.51542 9.56769 8.27728 9.13961C8.43604 9.05027 8.56508 9.05197 8.72206 9.13961C9.48436 9.56642 10.2498 9.98857 11.0187 10.4052C11.1779 10.4916 11.2436 10.6021 11.2427 10.7749C11.2378 11.6145 11.2373 12.4542 11.2427 13.2938C11.244 13.4733 11.1744 13.586 11.0099 13.6749C10.2458 14.0886 9.48481 14.5077 8.72739 14.9324C8.56419 15.0239 8.43071 15.0222 8.26752 14.9303C7.50567 14.5022 6.73982 14.0809 5.97131 13.6643C5.81787 13.5809 5.75224 13.4737 5.75446 13.3073C5.76023 12.8797 5.75623 12.452 5.75623 12.024V12.0244ZM10.7092 11.1314C10.656 11.153 10.6307 11.1606 10.6081 11.1729C10.0236 11.4938 9.43824 11.8131 8.8582 12.1412C8.80809 12.1696 8.76863 12.2564 8.76774 12.3165C8.76109 12.9398 8.76375 13.5631 8.76419 14.1864C8.76419 14.2249 8.77173 14.2634 8.77705 14.3164C9.40632 13.97 10.0196 13.6346 10.6285 13.2921C10.6719 13.2675 10.7039 13.1913 10.7056 13.138C10.7141 12.911 10.7092 12.6841 10.7092 12.4567C10.7092 12.0244 10.7092 11.5925 10.7092 11.1314ZM6.30523 11.1242C6.29592 11.1708 6.28882 11.1902 6.28882 11.2101C6.28794 11.8597 6.28483 12.5092 6.29326 13.1587C6.29415 13.2133 6.36022 13.2862 6.41654 13.3179C6.9784 13.6338 7.5438 13.9433 8.10921 14.2537C8.14424 14.2732 8.18327 14.2859 8.23338 14.3075C8.23338 13.7405 8.20677 13.1896 8.24313 12.643C8.26619 12.2954 8.14956 12.1057 7.82407 11.9511C7.31143 11.7072 6.82585 11.4113 6.30568 11.125L6.30523 11.1242ZM10.4427 10.6758C9.80099 10.3227 9.19124 9.98392 8.57661 9.65407C8.53005 9.62909 8.43781 9.64306 8.38592 9.67143C7.81475 9.9801 7.24713 10.2947 6.67907 10.6089C6.64403 10.6284 6.61299 10.6546 6.57042 10.6838C7.19746 11.0298 7.8081 11.3681 8.4214 11.7017C8.45998 11.7229 8.53138 11.7271 8.56863 11.7072C9.18636 11.3715 9.80099 11.0306 10.4431 10.6758H10.4427Z" fill="#410EAD"/>
</svg>
