<svg width="15" height="15" viewBox="0 0 15 15" fill="none" xmlns="http://www.w3.org/2000/svg">
<path d="M0 14.5016C0.136119 14.5058 0.272239 14.5133 0.408358 14.5136C0.989356 14.5152 1.57035 14.5142 2.16342 14.5142V10.6466H1.70647V9.19908H2.66444C2.66444 8.92394 2.66444 8.6666 2.66444 8.40956C2.66444 7.81191 2.91102 7.48609 3.48417 7.32438C3.73287 7.25409 3.98066 7.18048 4.23057 7.11531C4.32474 7.09088 4.35914 7.05105 4.36397 6.94697C4.37272 6.75751 4.335 6.60606 4.19616 6.46155C4.01749 6.27571 3.91758 6.03617 3.89434 5.77702C3.85964 5.38844 3.82312 4.99685 3.95652 4.61793C4.14214 4.09057 4.5176 3.76596 5.06147 3.66006C5.5978 3.55538 6.05354 3.73066 6.41633 4.13613C6.6605 4.40916 6.77941 4.73438 6.77338 5.10063C6.76915 5.35857 6.77217 5.61923 6.73686 5.87356C6.69913 6.14478 6.55577 6.37527 6.36472 6.57318C6.30767 6.63231 6.25908 6.99554 6.30647 7.05859C6.32639 7.08514 6.37045 7.09812 6.40606 7.10837C6.66351 7.18289 6.92096 7.25922 7.18022 7.3271C7.63929 7.44717 7.91243 7.73347 7.98698 8.22824H8.21244C8.54957 8.22824 8.8864 8.22975 9.22353 8.22674C9.27363 8.22613 9.34003 8.221 9.37142 8.19023C9.79305 7.77752 10.2102 7.35998 10.6155 6.95632C10.4314 6.81966 10.2416 6.70683 10.087 6.55749C9.83591 6.31523 9.70855 6.0051 9.69014 5.65453C9.66689 5.20532 9.6503 4.76093 9.88541 4.3449C10.3587 3.50801 11.6082 3.38915 12.2227 4.12768C12.4602 4.41338 12.5867 4.73589 12.5834 5.10727C12.5812 5.33655 12.5909 5.56795 12.5634 5.79452C12.5242 6.11883 12.3627 6.39126 12.1167 6.6317C12.5562 6.87879 12.6184 7.28245 12.5791 7.73619H13.5371C13.5434 7.78778 13.5522 7.82458 13.5522 7.86169C13.5528 8.85274 13.5585 9.84379 13.5507 10.8348C13.5446 11.6051 13.1822 12.1508 12.4723 12.4573C12.3703 12.5014 12.2595 12.5243 12.1309 12.5635C12.1442 12.7204 12.1563 12.8833 12.1726 13.0462C12.2169 13.4879 12.268 13.9293 12.3048 14.3715C12.3144 14.4865 12.3504 14.5176 12.4617 14.517C13.248 14.5127 14.0345 14.5148 14.821 14.5148C14.8787 14.5148 14.9363 14.5148 15 14.5148V15H0C0 14.834 0 14.6678 0 14.5019V14.5016ZM2.67229 11.6102V14.513C2.84915 14.513 3.01877 14.5182 3.18779 14.5088C3.2222 14.507 3.26475 14.4566 3.28437 14.4189C3.41657 14.1634 3.54635 13.9066 3.6704 13.6472C3.70752 13.5697 3.7543 13.544 3.83941 13.5443C5.15322 13.547 6.46703 13.547 7.78054 13.5443C7.86626 13.5443 7.91123 13.5721 7.94805 13.6493C8.06968 13.9045 8.19705 14.157 8.32743 14.4078C8.34916 14.4497 8.39474 14.5061 8.43246 14.5085C8.60148 14.5194 8.7714 14.5133 8.94465 14.5133V11.606H3.87925V11.1263H8.94284V10.6517H2.675V11.1359H3.38035V11.6102H2.67229ZM3.15218 9.18762H6.57086C6.49691 8.90463 6.54641 8.65725 6.74259 8.44727C6.94088 8.23518 7.20165 8.21497 7.46906 8.22764C7.46001 8.02219 7.34743 7.88673 7.12318 7.81825C6.83464 7.72985 6.5446 7.64478 6.25214 7.57026C6.20234 7.55759 6.1299 7.59319 6.08071 7.62577C5.94791 7.71417 5.83352 7.83756 5.69166 7.90302C5.31047 8.07831 4.89517 7.96547 4.57524 7.63512C4.53601 7.5947 4.45603 7.55578 4.40773 7.56785C4.11045 7.64297 3.81617 7.73076 3.52251 7.81885C3.3058 7.88402 3.16455 8.02732 3.15519 8.25781C3.14312 8.56312 3.15218 8.86964 3.15218 9.18701V9.18762ZM9.44596 11.1305C9.50572 11.1305 9.55371 11.1305 9.6014 11.1305C10.158 11.1305 10.7145 11.1308 11.2711 11.1305C11.8107 11.1302 12.1032 10.8379 12.1035 10.2981C12.1038 9.39548 12.1035 8.49283 12.1035 7.58987V7.49574C12.0036 7.62788 11.9079 7.78687 11.7817 7.916C11.3012 8.40835 10.8141 8.89498 10.3215 9.37527C10.2074 9.48629 10.1573 9.59641 10.1643 9.7563C10.1773 10.0468 10.1679 10.3386 10.1679 10.6448H9.44596V11.1308V11.1305ZM10.1727 5.33746C10.1727 5.42434 10.1661 5.53687 10.1739 5.6485C10.2062 6.10737 10.5699 6.47 11.0477 6.52521C11.4808 6.57529 11.9456 6.2908 12.0407 5.85787C12.1041 5.56885 12.1056 5.25751 12.0823 4.96034C12.05 4.54643 11.7555 4.24142 11.3574 4.14065C10.9889 4.04743 10.5874 4.19798 10.3502 4.51777C10.1733 4.7561 10.1525 5.03003 10.1724 5.33746H10.1727ZM4.36518 5.34681C4.36518 5.42887 4.36005 5.53174 4.36608 5.63372C4.39385 6.10345 4.75271 6.46879 5.23833 6.52521C5.66963 6.57559 6.13896 6.28989 6.23222 5.85847C6.2959 5.56493 6.2959 5.24846 6.26964 4.94677C6.23493 4.54582 5.98805 4.27883 5.60353 4.16207C5.21902 4.04532 4.88159 4.14639 4.60633 4.43872C4.36971 4.69003 4.33983 5.00258 4.36488 5.34711L4.36518 5.34681ZM2.18274 10.1533H9.66659V9.6851H2.18274V10.1533ZM12.584 8.23488C12.584 8.30759 12.584 8.36551 12.584 8.42314C12.5809 9.11612 12.5921 9.8094 12.571 10.5018C12.5532 11.0828 12.0567 11.5773 11.4739 11.5975C10.8545 11.6189 10.234 11.6072 9.61408 11.6099C9.55824 11.6099 9.50241 11.6099 9.44717 11.6099V12.0908C9.47796 12.0935 9.5015 12.0971 9.52474 12.0971C10.2962 12.0971 11.0676 12.0989 11.8391 12.0953C11.9453 12.0947 12.0546 12.0808 12.1569 12.0528C12.7276 11.8962 13.0687 11.4391 13.0708 10.8279C13.0735 10.0031 13.0717 9.17827 13.0711 8.35345C13.0711 8.31574 13.0663 8.27802 13.0632 8.23428H12.5843L12.584 8.23488ZM8.52482 9.19546C8.91537 9.19546 9.30592 9.19999 9.69617 9.19124C9.76861 9.18973 9.85764 9.15232 9.90925 9.10164C10.4347 8.58514 10.9544 8.06262 11.4751 7.5413C11.5025 7.51384 11.5297 7.48518 11.5526 7.45411C11.6384 7.33796 11.6296 7.18802 11.5333 7.0948C11.4407 7.00489 11.2979 6.99584 11.1853 7.0767C11.1422 7.10777 11.1035 7.14608 11.0658 7.1838C10.5889 7.65926 10.1115 8.13412 9.63762 8.6126C9.57062 8.68018 9.50361 8.70884 9.40794 8.70853C8.72945 8.70491 8.05097 8.70612 7.37248 8.70763C7.3097 8.70763 7.22942 8.69918 7.18837 8.73267C7.12016 8.78848 7.03596 8.87507 7.03505 8.94928C7.03445 9.0238 7.11684 9.11189 7.18415 9.16891C7.22429 9.2027 7.30518 9.19456 7.36765 9.19486C7.75338 9.19697 8.1388 9.19576 8.52452 9.19576L8.52482 9.19546ZM10.6738 12.5874H9.44868V14.5025H10.8648C10.8008 13.8611 10.738 13.2321 10.6738 12.5874ZM3.78901 14.501H7.82883C7.7579 14.3583 7.70056 14.2295 7.62993 14.1082C7.6085 14.0717 7.55025 14.0355 7.5089 14.0352C6.37558 14.0312 5.24226 14.0315 4.10894 14.0346C4.0697 14.0346 4.01266 14.0617 3.99455 14.0934C3.92241 14.2195 3.86265 14.3522 3.78901 14.5007V14.501ZM11.8345 14.5133C11.7681 13.8538 11.7045 13.2203 11.6411 12.5889H11.1624C11.1745 12.7168 11.1847 12.8326 11.1962 12.9485C11.2448 13.4387 11.2925 13.929 11.3459 14.4186C11.3495 14.4527 11.3951 14.507 11.4241 14.5091C11.5539 14.5191 11.6851 14.5133 11.8342 14.5133H11.8345ZM4.85503 6.93581C4.79134 7.18048 4.90513 7.31503 5.08048 7.42364C5.25946 7.53436 5.42969 7.51807 5.60021 7.40584C5.76682 7.29633 5.85344 7.15544 5.78915 6.93822C5.4813 7.03295 5.17012 7.03627 4.85503 6.93581Z" fill="#410EAD"/>
<path d="M11.6069 0C11.6099 0.590406 11.6129 1.18081 11.6156 1.77122C11.6165 1.98059 11.6156 2.18996 11.6156 2.42166C11.5468 2.42166 11.4904 2.42166 11.4336 2.42166C10.7741 2.42166 10.1147 2.42468 9.45551 2.41895C9.32905 2.41774 9.23548 2.45636 9.14071 2.5366C8.6074 2.98703 8.06957 3.43202 7.5103 3.89783V2.42498H5.80322V0H11.6066H11.6069ZM6.30514 0.492055V1.93805H7.99472V2.86303C8.35146 2.56677 8.67833 2.28952 9.01274 2.02222C9.07431 1.97305 9.16697 1.93926 9.24575 1.93835C9.82192 1.93142 10.3981 1.93473 10.9743 1.93473C11.0256 1.93473 11.0766 1.93473 11.1255 1.93473V0.492055H6.30514Z" fill="#410EAD"/>
<path d="M9.67218 0.97998V1.44247H7.75293V0.97998H9.67218Z" fill="#410EAD"/>
<path d="M6.78613 0.974609H7.25546V1.44102H6.78613V0.974609Z" fill="#410EAD"/>
<path d="M10.1748 1.44154V0.977539H10.6402V1.44154H10.1748Z" fill="#410EAD"/>
</svg>
