<svg width="15" height="15" viewBox="0 0 15 15" fill="none" xmlns="http://www.w3.org/2000/svg">
<path d="M7.51385 0.000521231C9.25139 0.000521231 10.9889 -0.00107504 12.7261 0.00131937C13.8191 0.00291563 14.7222 0.734805 14.9497 1.8043C14.9836 1.96353 14.9976 2.12994 14.9976 2.29276C15.0003 5.76265 15.0007 9.23254 14.9988 12.7024C14.998 13.9998 14.0059 14.9947 12.7117 14.9951C9.23662 14.9967 5.76194 14.9971 2.28686 14.9951C1.00187 14.9943 0.00579657 13.9974 0.00459937 12.7128C0.00220497 10.836 0.00380124 8.95918 0.00459937 7.08237C0.00459937 7.03767 -0.00936798 6.97901 0.0133789 6.95108C0.0588725 6.89521 0.125118 6.82098 0.182982 6.82058C0.240847 6.82058 0.31228 6.89201 0.352985 6.94988C0.379324 6.98739 0.362962 7.05603 0.362962 7.1107C0.362962 8.96277 0.362962 10.8144 0.362962 12.6665C0.362962 13.8106 1.18624 14.6375 2.32677 14.6375C5.77671 14.6379 9.22704 14.6379 12.677 14.6375C13.8175 14.6375 14.6412 13.811 14.6412 12.6669C14.6416 9.22177 14.6416 5.77662 14.6412 2.33187C14.6412 1.18016 13.8179 0.359283 12.6642 0.359283C9.22425 0.359283 5.78389 0.359283 2.34393 0.359283C1.18185 0.359283 0.362962 1.17937 0.362563 2.34265C0.362563 3.3882 0.362563 4.43376 0.362563 5.47892C0.362563 5.5284 0.377727 5.59225 0.353384 5.62497C0.310285 5.68204 0.242044 5.75547 0.18418 5.75587C0.126315 5.75587 0.0572763 5.68284 0.014177 5.62617C-0.0105652 5.59385 0.00459937 5.53 0.00459937 5.48051C0.00459937 4.42498 0.00380124 3.36985 0.00459937 2.31431C0.00539751 0.988612 0.991493 0.00171843 2.3164 0.000920298C4.04875 0.000122163 5.7815 0.000521231 7.51385 0.000521231Z" fill="#410EAD"/>
<path d="M7.9269 9.82492C6.62315 9.80936 5.56881 9.31771 4.86446 8.18635C4.47018 7.55343 4.34048 6.84828 4.3736 6.1124C4.4163 5.15983 4.76509 4.34054 5.4894 3.70443C6.90489 2.46093 8.94652 2.50323 10.3464 3.63379C10.6845 3.90675 10.7307 4.36488 10.4729 4.70249C10.2211 5.03292 9.75064 5.10954 9.40664 4.85414C8.98882 4.54367 8.53787 4.34293 8.0111 4.31181C6.91367 4.24636 5.97865 5.09318 5.94593 6.19301C5.9136 7.27249 6.48826 8.04628 7.5003 8.25579C8.15916 8.39227 8.76654 8.25419 9.29769 7.83118C9.51958 7.65479 9.76301 7.58256 10.0364 7.66238C10.3281 7.74738 10.5156 7.94691 10.5755 8.24422C10.6374 8.55269 10.538 8.81249 10.2918 9.01362C9.60378 9.57511 8.81123 9.83131 7.9273 9.82492H7.9269ZM5.58757 6.53581C5.58158 5.46671 5.96429 4.75198 6.65747 4.30742C7.46877 3.78703 8.57778 3.83891 9.44176 4.43791C9.5112 4.4862 9.57624 4.54167 9.64847 4.58477C9.88552 4.72684 10.1796 4.60991 10.2598 4.34493C10.3129 4.17014 10.2567 4.01091 10.0819 3.87762C9.30488 3.28541 8.42773 3.0316 7.46119 3.17447C6.48307 3.31893 5.69332 3.79342 5.16495 4.64662C4.77507 5.27595 4.6745 5.97272 4.75232 6.69943C4.86565 7.75775 5.37446 8.56467 6.30908 9.08226C6.99268 9.46097 7.73495 9.52283 8.49677 9.42625C9.09577 9.35043 9.61854 9.09902 10.0835 8.7207C10.2694 8.56946 10.3045 8.33161 10.1725 8.14924C10.0352 7.96048 9.79174 7.92257 9.59021 8.06064C9.54512 8.09137 9.50361 8.12769 9.45892 8.15921C8.62567 8.74943 7.73575 8.83364 6.82348 8.39227C5.96508 7.97724 5.60832 7.23298 5.58717 6.53461L5.58757 6.53581Z" fill="#410EAD"/>
<path d="M3.52634 12.3668C3.52953 12.5867 3.5878 12.7886 3.73545 12.9574C3.95693 13.2101 4.273 13.2148 4.50406 12.971C4.528 12.9459 4.54835 12.9171 4.5723 12.892C4.64892 12.8122 4.73711 12.795 4.82331 12.8681C4.90951 12.9411 4.90512 13.0305 4.84486 13.1215C4.57349 13.5313 4.01759 13.6295 3.62371 13.3374C3.02312 12.8916 3.01593 11.8429 3.61094 11.3903C4.00802 11.0886 4.5699 11.1828 4.84366 11.5962C4.90392 11.6872 4.91071 11.777 4.82451 11.8496C4.73951 11.9215 4.64413 11.9123 4.57389 11.8261C4.41347 11.6306 4.22431 11.5009 3.96571 11.5998C3.68357 11.708 3.57862 11.9538 3.53313 12.2315C3.52594 12.2754 3.52834 12.3209 3.52634 12.3664V12.3668Z" fill="#410EAD"/>
<path d="M8.03948 12.0786C8.44613 11.9621 8.68916 12.0232 8.88111 12.2814C9.07825 12.5468 9.08783 12.9295 8.90386 13.2048C8.71709 13.4842 8.40622 13.5759 8.09375 13.4506C8.05185 13.4339 7.99239 13.4375 7.94929 13.4534C7.80882 13.5061 7.6863 13.4447 7.68431 13.2958C7.67872 12.7942 7.68072 12.2921 7.68271 11.7901C7.68311 11.6792 7.74736 11.6081 7.8571 11.6069C7.97523 11.6058 8.03668 11.68 8.03908 11.7981C8.04107 11.8871 8.03908 11.9765 8.03908 12.0786H8.03948ZM8.67519 12.7599C8.67519 12.546 8.53951 12.3736 8.36791 12.3696C8.19192 12.3652 8.04147 12.5444 8.04107 12.7595C8.04107 12.9773 8.18673 13.1513 8.36671 13.1473C8.5415 13.1434 8.67519 12.9757 8.67519 12.7603V12.7599Z" fill="#410EAD"/>
<path d="M6.37598 12.7785C6.37598 12.9525 6.38037 13.1265 6.37479 13.3001C6.3688 13.4857 6.2395 13.5503 6.07948 13.4585C6.04875 13.441 5.99607 13.4322 5.96654 13.4465C5.48167 13.6776 4.94533 13.2494 5.00678 12.6664C5.06385 12.1216 5.49444 11.8766 6.01642 12.0742C6.04356 12.0845 6.08107 12.0809 6.10981 12.0718C6.27542 12.0207 6.37119 12.0833 6.37558 12.2565C6.37997 12.4301 6.37638 12.6041 6.37638 12.7781L6.37598 12.7785ZM6.01044 12.7749C6.01044 12.5099 5.856 12.3284 5.66963 12.3443C5.48008 12.3607 5.33322 12.5786 5.36275 12.7993C5.38909 12.996 5.5148 13.1373 5.67123 13.1464C5.82048 13.1552 5.95936 13.0439 6.00006 12.8787C6.01044 12.836 6.00924 12.7905 6.01084 12.7749H6.01044Z" fill="#410EAD"/>
<path d="M9.89608 13.5064C9.46628 13.508 9.1159 13.16 9.1167 12.7318C9.1175 12.3112 9.46189 11.962 9.88291 11.9557C10.3075 11.9489 10.6659 12.3013 10.6683 12.7271C10.6707 13.1589 10.3279 13.5048 9.89608 13.5064ZM9.89329 13.1477C10.1251 13.1477 10.3107 12.9629 10.3099 12.7326C10.3091 12.5036 10.1212 12.3152 9.89289 12.3144C9.66701 12.3132 9.47546 12.5056 9.47546 12.733C9.47546 12.9621 9.66262 13.1477 9.89368 13.1477H9.89329Z" fill="#410EAD"/>
<path d="M10.8323 12.7254C10.8323 12.5414 10.8287 12.3574 10.8335 12.1739C10.8378 11.9971 10.9264 11.936 11.0944 11.9763C11.1387 11.9871 11.1902 11.9811 11.2361 11.9715C11.5426 11.9065 11.8403 12.0901 11.8678 12.4001C11.8958 12.7106 11.8838 13.0255 11.8786 13.3384C11.877 13.4457 11.804 13.5119 11.6895 13.5036C11.5825 13.496 11.5294 13.4281 11.5282 13.3248C11.525 13.0814 11.5266 12.8375 11.5258 12.5941C11.5258 12.5494 11.5274 12.5039 11.5194 12.4604C11.5015 12.3642 11.434 12.296 11.3435 12.3227C11.286 12.3395 11.2122 12.4229 11.2086 12.4804C11.193 12.713 11.2018 12.9473 11.2014 13.1807C11.2014 13.2254 11.2046 13.2705 11.1998 13.3148C11.1874 13.425 11.1391 13.5072 11.0154 13.5076C10.8841 13.5084 10.8283 13.4242 10.8251 13.3064C10.8199 13.1129 10.8235 12.9185 10.8235 12.725C10.8267 12.725 10.8295 12.725 10.8327 12.725L10.8323 12.7254Z" fill="#410EAD"/>
<path d="M6.63599 12.7296C6.63599 12.546 6.634 12.362 6.63639 12.1785C6.63879 12.0025 6.72658 11.9382 6.89299 11.975C6.94288 11.9861 6.99875 11.9793 7.05063 11.9714C7.33596 11.9259 7.59016 12.1062 7.63765 12.3896C7.65801 12.5109 7.6173 12.6035 7.49439 12.6266C7.37866 12.6486 7.30683 12.5831 7.28847 12.465C7.27331 12.368 7.22222 12.305 7.11926 12.3189C7.01511 12.3329 6.99236 12.4115 6.99316 12.5065C6.99555 12.7647 6.99516 13.0229 6.99316 13.2811C6.99236 13.4299 6.92971 13.5054 6.81398 13.5054C6.69865 13.5054 6.63679 13.4299 6.6356 13.2807C6.634 13.0971 6.6352 12.9132 6.6352 12.7296H6.63599Z" fill="#410EAD"/>
<path d="M0.00511526 6.28903C0.00511526 6.24434 0.00192272 6.19924 0.00591339 6.15495C0.0150919 6.0452 0.0757502 5.97656 0.18709 5.97856C0.29843 5.98055 0.357093 6.05159 0.361881 6.16133C0.365473 6.24075 0.363478 6.32016 0.36268 6.39957C0.361482 6.5157 0.307209 6.59631 0.187888 6.59791C0.0601865 6.59951 0.00511526 6.5157 0.00471619 6.39319C0.00471619 6.35847 0.00471619 6.32375 0.00471619 6.28903H0.00551433H0.00511526Z" fill="#410EAD"/>
</svg>
