<svg width="15" height="13" viewBox="0 0 15 13" fill="none" xmlns="http://www.w3.org/2000/svg">
<path d="M2.66883 12.9787C1.97743 12.9787 1.28603 12.9942 0.595475 12.9733C0.115233 12.9586 -0.14042 12.5307 0.0799704 12.1117C0.378442 11.5445 0.707139 10.9925 1.02996 10.4376C2.92658 7.17413 4.82488 3.91148 6.72443 0.649656C6.81217 0.499362 6.90494 0.348658 7.01619 0.214745C7.25589 -0.0735568 7.68995 -0.069871 7.93217 0.215565C7.9985 0.293783 8.05811 0.379373 8.11017 0.46742C8.70879 1.4859 9.30699 2.50437 9.90142 3.5249C10.2624 4.14491 10.2616 4.77066 9.9031 5.39108C8.81668 7.27201 7.72774 9.15171 6.6388 11.031C6.43268 11.3865 6.22698 11.7423 6.00953 12.0912C5.66488 12.6449 5.16365 12.9647 4.49156 12.9811C3.88454 12.9959 3.27668 12.9844 2.66883 12.9844C2.66883 12.9828 2.66883 12.9807 2.66883 12.9791V12.9787Z" fill="#410EAD"/>
<path d="M11.9539 12.9813C11.1424 12.9813 10.331 12.9739 9.51949 12.9842C9.07787 12.9899 8.71056 12.5292 8.99098 12.0546C9.33059 11.48 9.66684 10.9034 10.0081 10.3301C10.4443 9.59786 10.8817 8.86605 11.3233 8.13711C11.4325 7.95692 11.5492 7.77796 11.783 7.72472C12.0236 7.66984 12.2334 7.71899 12.3913 7.90737C12.4899 8.02531 12.5764 8.15513 12.6553 8.28658C13.3572 9.45249 14.0566 10.6196 14.7551 11.7876C14.8261 11.9063 14.8937 12.0284 14.9482 12.1549C15.112 12.537 14.8723 12.9322 14.4504 12.9727C14.2526 12.9916 14.0532 12.9969 13.8547 12.9981C13.2212 13.001 12.5873 12.9993 11.9539 12.9993V12.9813Z" fill="#410EAD"/>
</svg>
