<svg width="17" height="15" viewBox="0 0 17 15" fill="none" xmlns="http://www.w3.org/2000/svg">
<path d="M9.36153 9.39966C9.36153 9.84136 9.37245 10.2454 9.35868 10.6489C9.34015 11.2003 9.56575 11.5886 10.0502 11.8538C10.6116 12.1605 11.1577 12.4959 11.711 12.8174C12.1309 13.0611 12.5474 13.074 12.9706 12.815C13.5267 12.4744 14.0876 12.1424 14.6495 11.8109C15.0636 11.5667 15.2731 11.2161 15.2655 10.7257C15.255 10.0412 15.2584 9.35673 15.2645 8.67224C15.2688 8.19954 15.0727 7.85181 14.6647 7.61665C14.0791 7.27941 13.4982 6.93454 12.9131 6.59635C12.4999 6.35785 12.0905 6.3507 11.6688 6.59778C9.54675 7.84179 7.42093 9.07864 5.29605 10.3179C4.87763 10.5621 4.46253 10.5759 4.03509 10.3241C2.89618 9.65343 1.75253 8.99088 0.6103 8.32642C0.206602 8.09174 -0.000946632 7.7483 3.24574e-06 7.27464C0.00285288 5.92378 0.0019031 4.57245 0.000478286 3.22159C0.000478286 2.78466 0.18143 2.46794 0.565655 2.24565C1.73543 1.56927 2.89808 0.88001 4.06216 0.193611C4.49435 -0.0611061 4.91752 -0.0677838 5.35399 0.193134C6.46345 0.855683 7.57718 1.5106 8.69186 2.16409C9.11266 2.4107 9.33208 2.76224 9.32068 3.25975C9.31071 3.68809 9.32068 4.11692 9.31593 4.54526C9.31546 4.60155 9.29171 4.68454 9.25134 4.70887C8.72796 5.0213 8.19983 5.32515 7.65175 5.64331C7.64557 5.57271 7.6375 5.52358 7.6375 5.47397C7.63655 5.06948 7.63702 4.66451 7.63702 4.26002C7.63702 3.79971 7.44895 3.45103 7.0481 3.21301C6.4568 2.86194 5.8731 2.49846 5.28323 2.14501C4.87193 1.8984 4.45873 1.89077 4.03983 2.14024C3.46943 2.47986 2.89666 2.81567 2.32008 3.14384C1.89359 3.38663 1.68129 3.74152 1.68604 4.23664C1.69269 4.91493 1.69126 5.5937 1.68604 6.27199C1.68271 6.74899 1.87649 7.10292 2.28968 7.34667C2.87671 7.69297 3.45518 8.05405 4.03983 8.40465C4.45113 8.65125 4.86338 8.65602 5.28323 8.40942C7.429 7.14824 9.57667 5.89039 11.7248 4.63303C12.1318 4.39501 12.5403 4.3888 12.954 4.63112C14.0891 5.29605 15.2265 5.95813 16.365 6.61734C16.7943 6.86585 17.0028 7.22646 17 7.72874C16.9924 9.06195 16.9928 10.3952 17 11.7284C17.0028 12.2364 16.7953 12.5975 16.3545 12.8503C15.2389 13.4899 14.1285 14.1396 13.0205 14.7921C12.565 15.0602 12.1299 15.0759 11.6655 14.7988C10.5759 14.1496 9.47979 13.5114 8.37745 12.8841C7.89586 12.6103 7.6489 12.2321 7.67644 11.6673C7.69497 11.2814 7.67739 10.8936 7.68309 10.5068C7.68404 10.451 7.70636 10.368 7.74673 10.3436C8.26964 10.0307 8.79777 9.72641 9.36248 9.39823L9.36153 9.39966Z" fill="#410EAD"/>
</svg>
