<svg width="11" height="15" viewBox="0 0 11 15" fill="none" xmlns="http://www.w3.org/2000/svg">
<path d="M7.70382 12.2852V11.7859C7.69401 11.781 7.68184 11.7693 7.66888 11.7685C7.33318 11.744 7.32729 11.7386 7.27075 11.3889C7.26564 11.3582 7.26054 11.3274 7.26015 11.2962C7.25779 11.0842 7.18005 10.9495 6.96999 10.8855C6.86084 10.8522 6.79291 10.8522 6.71164 10.9296C6.62094 11.0165 6.52239 11.0942 6.42462 11.1719C6.30212 11.2692 6.20161 11.268 6.0956 11.159C5.89182 10.9491 5.69236 10.735 5.49212 10.5213C5.38964 10.4124 5.3865 10.2956 5.47131 10.1721C5.5518 10.0549 5.62561 9.93144 5.71081 9.81836C5.76146 9.75102 5.75086 9.69864 5.72848 9.62215C5.66409 9.40223 5.55572 9.29664 5.317 9.28583C4.84977 9.26505 4.86704 9.21267 4.87097 8.7479C4.87254 8.54046 4.8694 8.33302 4.87215 8.12557C4.8745 7.94515 4.93497 7.87282 5.10066 7.84164C5.15838 7.83083 5.21649 7.82002 5.2746 7.81088C5.61266 7.75808 5.61462 7.75891 5.72063 7.41678C5.7328 7.3777 5.71906 7.31535 5.6955 7.28043C5.61344 7.15821 5.51999 7.0443 5.43401 6.92457C5.33467 6.78614 5.33703 6.68678 5.44853 6.56623C5.64407 6.35504 5.84352 6.14843 6.04023 5.93808C6.1431 5.82833 6.25108 5.81919 6.36847 5.90898C6.42816 5.9543 6.49451 5.99171 6.54791 6.04409C6.70143 6.19499 6.85495 6.24821 7.05087 6.11476C7.12508 6.06446 7.18437 6.03869 7.18672 5.9306C7.19026 5.79134 7.21382 5.65249 7.23109 5.51364C7.25151 5.35317 7.31904 5.28167 7.47178 5.27876C7.76075 5.27377 8.05013 5.27626 8.3391 5.27876C8.47064 5.27959 8.54838 5.354 8.57154 5.49077C8.59628 5.63877 8.6112 5.78926 8.64732 5.93393C8.66146 5.99088 8.71289 6.047 8.76079 6.08275C8.96025 6.23158 9.11927 6.16756 9.29477 6.00127C9.60456 5.70778 9.6238 5.72066 9.91553 6.02912C10.0647 6.18668 10.2151 6.34299 10.3627 6.50221C10.4845 6.63357 10.4903 6.72046 10.393 6.87386C10.3576 6.92998 10.3199 6.98444 10.2834 7.03931C10.0922 7.32615 10.0903 7.32699 10.2359 7.64002C10.2528 7.6766 10.3031 7.71111 10.3423 7.71817C10.4868 7.74436 10.6337 7.75725 10.7793 7.77804C10.9285 7.79924 10.9968 7.87615 10.9984 8.03453C11.0012 8.33551 10.9996 8.63607 10.9992 8.93705C10.9992 9.07631 10.934 9.16195 10.8052 9.18814C10.6659 9.21683 10.5269 9.24925 10.3859 9.26588C10.3003 9.27586 10.2701 9.32159 10.2289 9.39517C10.1083 9.61009 10.1527 9.76682 10.3058 9.95098C10.5916 10.2948 10.5795 10.3064 10.2744 10.6319C10.133 10.7828 9.99288 10.9354 9.84957 11.0846C9.71568 11.2239 9.63322 11.2285 9.4746 11.1112C9.41845 11.0697 9.35681 11.0339 9.30773 10.9844C9.16599 10.8414 9.02778 10.8065 8.83971 10.9134C8.73252 10.9741 8.68344 11.0306 8.67795 11.1516C8.67323 11.2655 8.65635 11.3785 8.64536 11.492C8.62573 11.6916 8.55191 11.7622 8.35913 11.7652C8.2967 11.766 8.23466 11.7652 8.15574 11.7652V11.9485C8.15574 12.6282 8.15692 13.3075 8.15574 13.9872C8.15417 14.6203 7.79216 14.9998 7.19065 14.9998C5.11283 14.9998 3.03501 14.9998 0.957197 14.9998C0.368639 14.9998 0.00113428 14.6132 0.000349008 13.9938C-0.00043626 13.5373 0.000349008 13.0809 0.000349008 12.6244C0.000349008 12.3497 0.0600295 12.2856 0.319168 12.2856C2.71541 12.2856 5.11165 12.2856 7.50829 12.2856C7.57072 12.2856 7.63315 12.2856 7.70422 12.2856L7.70382 12.2852ZM7.65121 5.76473C7.63354 5.92104 7.61312 6.07485 7.59938 6.22867C7.58721 6.36461 7.52125 6.4386 7.39914 6.48308C7.23816 6.54212 7.07993 6.61279 6.92759 6.69344C6.81176 6.75496 6.71556 6.74706 6.61426 6.66725C6.49373 6.57246 6.36926 6.48308 6.26089 6.40202C6.12975 6.53339 6.01039 6.65228 5.88828 6.77492C5.98291 6.90129 6.07204 7.02476 6.16588 7.14407C6.25265 7.25424 6.25068 7.36107 6.19179 7.48787C6.11876 7.64501 6.05515 7.8088 6.00411 7.97509C5.96446 8.10437 5.89692 8.17712 5.77089 8.19749C5.62208 8.2216 5.47445 8.25278 5.31504 8.28271C5.31504 8.38955 5.31425 8.48725 5.31504 8.58494C5.31779 8.84642 5.2852 8.82106 5.52549 8.84227C5.60834 8.84975 5.69079 8.86264 5.77363 8.8722C5.893 8.88633 5.96446 8.95077 6.0049 9.07548C6.05869 9.24094 6.12112 9.40556 6.19768 9.56062C6.26482 9.69698 6.26521 9.81213 6.17687 9.93476C6.08892 10.0562 6.00843 10.1842 5.93501 10.2935C6.06065 10.4336 6.17098 10.5567 6.2872 10.6864C6.4101 10.5845 6.53024 10.4872 6.64764 10.3862C6.74305 10.3043 6.83728 10.3031 6.94722 10.3571C7.10623 10.4353 7.26918 10.5072 7.43487 10.5679C7.54441 10.6082 7.60802 10.6727 7.62569 10.7953C7.65003 10.9616 7.68105 11.127 7.70853 11.2887H8.21896C8.23545 11.1299 8.25312 10.9765 8.26647 10.8231C8.27864 10.6831 8.3446 10.5999 8.47221 10.5533C8.62848 10.496 8.78435 10.4315 8.9312 10.3517C9.05056 10.2869 9.14989 10.284 9.25747 10.3704C9.37723 10.4669 9.50248 10.5563 9.59789 10.6286C9.72981 10.4951 9.84878 10.3746 9.97285 10.2495C9.88569 10.1318 9.79735 10.0083 9.7039 9.88862C9.62616 9.78843 9.62184 9.68908 9.67249 9.57185C9.74552 9.40307 9.81462 9.23096 9.86881 9.0547C9.90925 8.92333 9.98345 8.85806 10.1075 8.83852C10.2559 8.81524 10.4036 8.78614 10.5469 8.76037V8.21994C10.3914 8.19999 10.2457 8.17712 10.0997 8.16382C9.96971 8.15176 9.90139 8.07901 9.85899 7.95222C9.80363 7.78677 9.74277 7.62214 9.66699 7.46667C9.60535 7.34029 9.60535 7.23387 9.68427 7.12038C9.77339 6.99275 9.85781 6.86055 9.93084 6.75039C9.80716 6.60905 9.69526 6.48142 9.581 6.35047C9.46439 6.449 9.35053 6.53879 9.24334 6.6369C9.13654 6.73459 9.03367 6.74083 8.90724 6.67307C8.76433 6.59574 8.61434 6.52715 8.46082 6.47976C8.32301 6.43736 8.25783 6.35421 8.23584 6.21079C8.1581 5.70861 8.15653 5.70861 7.68105 5.75226C7.67634 5.75226 7.67202 5.75558 7.65121 5.76473ZM0.442062 12.7604C0.442062 13.1869 0.441277 13.596 0.442062 14.005C0.442847 14.3463 0.618355 14.5317 0.943455 14.5317C3.03502 14.5322 5.12697 14.5322 7.21853 14.5317C7.53578 14.5317 7.71011 14.3488 7.71168 14.0138C7.71364 13.6404 7.71246 13.2671 7.71168 12.8938C7.71168 12.8498 7.705 12.8057 7.70147 12.7604H0.442062Z" fill="#410EAD"/>
<path d="M7.71133 2.23756H0.442106V2.44334C0.442106 5.38452 0.442106 8.3257 0.442106 11.2669C0.442106 11.5171 0.371431 11.634 0.219875 11.6335C0.0687108 11.6335 0 11.5184 0 11.2661C0 7.85803 0 4.45 0 1.04197C0 0.379317 0.358082 0.000184762 0.983155 0.000184762C3.06568 0.000184762 5.14861 -0.000230953 7.23113 0.000184762C7.68149 0.000184762 8.02975 0.277467 8.13066 0.715214C8.14911 0.794616 8.15422 0.879422 8.15461 0.961733C8.15579 1.76573 8.15539 2.56972 8.15304 3.37371C8.15304 3.43357 8.15147 3.51755 8.11692 3.54831C8.05645 3.60318 7.9685 3.65847 7.89508 3.6539C7.77297 3.64683 7.71407 3.53958 7.7129 3.41154C7.71015 3.08479 7.71172 2.75804 7.71172 2.43128C7.71172 2.37017 7.71172 2.30906 7.71172 2.23673L7.71133 2.23756ZM7.71133 1.74993C7.71133 1.50549 7.71133 1.27768 7.71133 1.04986C7.71133 0.632487 7.55584 0.46828 7.15968 0.46828C5.09717 0.46828 3.03467 0.46828 0.972554 0.46828C0.93329 0.46828 0.894027 0.466201 0.855156 0.469943C0.638815 0.489897 0.457026 0.662834 0.44721 0.886904C0.435038 1.17084 0.444069 1.4556 0.444069 1.74993H7.71133Z" fill="#410EAD"/>
<path d="M4.87482 2.98684C4.85008 3.07373 4.83948 3.12403 4.82181 3.17184C4.40523 4.28221 3.98708 5.39217 3.57167 6.50338C3.52887 6.61811 3.47115 6.70832 3.3463 6.71498C3.17904 6.72412 3.0797 6.54869 3.14959 6.36037C3.36239 5.78752 3.57874 5.21632 3.79351 4.64388C4.00082 4.09098 4.20734 3.53767 4.41544 2.98518C4.47983 2.81474 4.59644 2.73991 4.71894 2.8085C4.78648 2.84633 4.82967 2.9328 4.87482 2.98643V2.98684Z" fill="#410EAD"/>
<path d="M6.25241 4.75437C5.9968 4.49496 5.77065 4.26591 5.54528 4.03643C5.50994 4.00068 5.47421 3.96451 5.4428 3.92502C5.35917 3.81818 5.35956 3.69139 5.44123 3.60159C5.52761 3.50639 5.656 3.50057 5.75691 3.60035C5.89276 3.73504 6.02076 3.87846 6.15189 4.01814C6.32112 4.19856 6.49152 4.37773 6.65761 4.56106C6.77579 4.69118 6.77658 4.81257 6.65682 4.94227C6.36588 5.2578 6.07219 5.57042 5.77654 5.88096C5.66307 6.00027 5.53428 6.00276 5.44044 5.898C5.35289 5.79989 5.35681 5.66603 5.46479 5.55337C5.71646 5.29231 5.97285 5.03664 6.25202 4.75395L6.25241 4.75437Z" fill="#410EAD"/>
<path d="M1.90903 4.75562C2.15835 5.00754 2.38843 5.23993 2.61812 5.47273C2.64639 5.50141 2.67466 5.53051 2.70058 5.56169C2.79638 5.67809 2.79756 5.81652 2.7049 5.9084C2.61302 5.99944 2.49405 5.99736 2.38961 5.89385C2.28949 5.79449 2.19565 5.68848 2.09906 5.58539C1.90275 5.37503 1.70564 5.16551 1.51051 4.95433C1.37387 4.80592 1.37191 4.69742 1.50619 4.55275C1.79124 4.24554 2.07747 3.93999 2.36488 3.63527C2.48659 3.50598 2.6142 3.49476 2.71196 3.59993C2.80541 3.70053 2.79363 3.84354 2.67349 3.96909C2.42966 4.22392 2.1823 4.47501 1.90903 4.75603V4.75562Z" fill="#410EAD"/>
<path d="M7.93736 7.27832C8.58678 7.27915 9.11526 7.84078 9.11055 8.52547C9.10623 9.20266 8.57814 9.76222 7.94011 9.76513C7.29423 9.76845 6.7626 9.20641 6.76221 8.52089C6.76221 7.83039 7.2848 7.27749 7.93697 7.27832H7.93736ZM8.15527 9.23592C8.4737 9.16068 8.70221 8.79651 8.66373 8.45105C8.61622 8.02578 8.30172 7.73478 7.90281 7.74683C7.5408 7.75764 7.23062 8.07317 7.20549 8.45604C7.18115 8.82478 7.40691 9.17855 7.71199 9.23384C7.71199 9.15985 7.71199 9.08793 7.71199 9.01601C7.71238 8.79817 7.70728 8.58034 7.71591 8.3625C7.72141 8.21991 7.82585 8.12388 7.94482 8.13012C8.06026 8.13594 8.14428 8.22989 8.15331 8.36708C8.15724 8.42902 8.15527 8.49138 8.15527 8.55373C8.15527 8.77988 8.15527 9.00603 8.15527 9.23592Z" fill="#410EAD"/>
<path d="M4.07403 13.9662C3.75561 13.9662 3.43718 13.9678 3.11876 13.9653C2.9617 13.9641 2.86825 13.8851 2.85491 13.7537C2.84038 13.6095 2.94089 13.5006 3.10344 13.4985C3.41205 13.4943 3.72066 13.4968 4.02927 13.4968C4.36223 13.4968 4.69557 13.4952 5.02853 13.4977C5.20796 13.4989 5.29826 13.58 5.29787 13.7301C5.29787 13.878 5.20325 13.9645 5.02892 13.9658C4.71049 13.9683 4.39207 13.9666 4.07364 13.9666L4.07403 13.9662Z" fill="#410EAD"/>
<path d="M4.64051 1.34448C4.45912 1.34448 4.27811 1.34739 4.09672 1.34365C3.95654 1.34074 3.86349 1.25219 3.85682 1.12498C3.84975 0.992783 3.94437 0.880955 4.08847 0.878877C4.45558 0.873057 4.82309 0.873057 5.1902 0.878877C5.33783 0.881371 5.42539 0.9853 5.4195 1.12373C5.414 1.25884 5.33155 1.3399 5.18392 1.34323C5.00291 1.34739 4.82152 1.34406 4.64012 1.34406L4.64051 1.34448Z" fill="#410EAD"/>
</svg>
