<svg width="15" height="15" viewBox="0 0 15 15" fill="none" xmlns="http://www.w3.org/2000/svg">
<path d="M7.6504 14.9996H7.35029C7.3354 14.9978 7.32094 14.9943 7.30604 14.9943C6.95949 14.986 6.61557 14.9518 6.27384 14.8957C5.7573 14.8112 5.25522 14.6723 4.76803 14.4818C3.91107 14.1463 3.13955 13.6714 2.46003 13.0511C1.41424 12.0971 0.693102 10.9389 0.295729 9.58007C0.138445 9.04215 0.0451261 8.49328 0.0140197 7.9339C0.0100767 7.86206 0.00481929 7.78978 0 7.71794C0 7.57295 0 7.42795 0 7.28296C0.00219059 7.26456 0.0056955 7.24617 0.00613362 7.22777C0.0201534 6.80111 0.0718511 6.37884 0.160351 5.96094C0.380286 4.92321 0.796935 3.9709 1.41994 3.1119C2.29004 1.91209 3.41907 1.04389 4.79914 0.504653C5.547 0.212477 6.32422 0.0504001 7.12642 0.00966192C7.75862 -0.0223154 8.38513 0.0249937 9.00506 0.152903C9.92204 0.342138 10.7764 0.687756 11.5628 1.1972C12.7238 1.94933 13.6123 2.94544 14.2261 4.18467C14.6901 5.12165 14.9424 6.1147 14.9919 7.15856C15.016 7.668 14.9858 8.17482 14.9056 8.67901C14.8211 9.21255 14.6817 9.73076 14.4828 10.2328C13.9277 11.6332 13.0357 12.7708 11.8042 13.6386C10.9464 14.2431 9.99959 14.6447 8.97089 14.8515C8.61908 14.9225 8.26377 14.968 7.90495 14.986C7.82039 14.9904 7.73584 14.9952 7.65084 15L7.6504 14.9996ZM7.50714 8.65579C7.51941 8.66981 7.52685 8.6777 7.53386 8.68646C7.85413 9.07676 8.17308 9.46793 8.49422 9.85779C8.62609 10.0177 8.75008 10.1846 8.90342 10.3256C9.24866 10.6428 9.65216 10.8092 10.1236 10.8079C10.8149 10.8066 11.5063 10.8079 12.1976 10.8079C12.2686 10.8079 12.2774 10.7991 12.2774 10.7282C12.2774 10.2971 12.2774 9.86567 12.2774 9.43464C12.2774 9.35623 12.2686 9.34747 12.1884 9.34747C11.5396 9.34747 10.8907 9.34659 10.2419 9.34834C10.1253 9.34834 10.0351 9.30498 9.96235 9.21562C9.51766 8.672 9.07209 8.12883 8.62697 7.58565C8.58535 7.5344 8.54373 7.48359 8.50123 7.43146C8.51087 7.41919 8.51831 7.40912 8.5262 7.39992C9.00156 6.8217 9.47735 6.24392 9.9514 5.66438C10.0338 5.56363 10.1315 5.51676 10.2625 5.5172C10.9074 5.51983 11.5527 5.51852 12.1976 5.51852C12.2699 5.51852 12.2791 5.50932 12.2791 5.43616C12.2791 5.00381 12.2791 4.57146 12.2791 4.13867C12.2791 4.06859 12.2743 4.06377 12.2046 4.06377C11.5185 4.06377 10.832 4.06289 10.1459 4.06464C10.0438 4.06464 9.94044 4.06946 9.83968 4.08479C9.37659 4.15401 9.002 4.38442 8.70889 4.74142C7.4883 6.2264 6.27252 7.71487 5.05544 9.20291C4.97438 9.30235 4.87581 9.34922 4.747 9.34878C4.10078 9.34659 3.45456 9.34791 2.80833 9.34791C2.73867 9.34791 2.72903 9.35798 2.72903 9.4285C2.72903 9.8648 2.72903 10.3011 2.72903 10.7369C2.72903 10.7983 2.73911 10.8079 2.80176 10.8079C3.49793 10.8079 4.19453 10.8092 4.8907 10.8066C5.00023 10.8066 5.11064 10.797 5.21841 10.7786C5.65522 10.7028 6.00659 10.4759 6.28742 10.1416C6.67691 9.67732 7.05719 9.2051 7.44142 8.73639C7.46245 8.71055 7.48392 8.68514 7.50802 8.65579H7.50714ZM6.79082 5.34505C6.70758 5.24342 6.62828 5.14355 6.54591 5.04674C6.41185 4.88905 6.28479 4.72303 6.13802 4.57803C5.78797 4.23285 5.36387 4.06026 4.86792 4.06289C4.18052 4.0664 3.49311 4.06377 2.8057 4.06377C2.73035 4.06377 2.71983 4.07428 2.71983 4.15138C2.71983 4.5776 2.71983 5.00381 2.71983 5.42959C2.71983 5.43967 2.71983 5.44974 2.71983 5.45938C2.71983 5.49442 2.74042 5.51195 2.77241 5.51676C2.7873 5.51895 2.8022 5.51808 2.81709 5.51808C3.46463 5.51808 4.11173 5.51895 4.75927 5.51764C4.87931 5.51764 4.97263 5.56188 5.04799 5.65519C5.28413 5.9478 5.52291 6.23822 5.7608 6.52952C5.77 6.54047 5.77964 6.55099 5.79016 6.56369C6.12488 6.15587 6.4561 5.75243 6.78994 5.34549L6.79082 5.34505Z" fill="#410EAD"/>
</svg>
