<svg width="15" height="11" viewBox="0 0 15 11" fill="none" xmlns="http://www.w3.org/2000/svg">
<path d="M0.965035 8.7094V8.52417C0.965035 6.09941 0.965035 3.67426 0.965035 1.2495C0.965035 0.47416 1.46493 0 2.28164 0C5.75946 0 9.23768 0 12.7155 0C13.5326 0 14.0325 0.47416 14.0325 1.2495C14.0325 3.67426 14.0325 6.09941 14.0325 8.52417V8.70901C14.1287 8.70901 14.2127 8.70672 14.2968 8.7094C14.6904 8.72241 14.9971 9.02321 15 9.39672C15.006 10.2379 14.2839 10.9585 13.396 10.9972C13.3455 10.9994 13.2954 10.9998 13.2449 10.9998C9.41388 10.9998 5.58327 11.0002 1.75225 10.9998C0.906034 10.9998 0.23884 10.5173 0.0468851 9.76449C0.0153641 9.64049 -0.000396538 9.51 7.57788e-06 9.38256C7.57788e-06 9.02359 0.306731 8.72738 0.685387 8.70978C0.770656 8.70595 0.856328 8.70901 0.965035 8.70901V8.7094ZM1.44917 8.6983H13.5488V8.53182C13.5488 6.10247 13.5488 3.67312 13.5488 1.24376C13.5488 0.726357 13.2663 0.45847 12.7212 0.45847C9.23849 0.45847 5.75623 0.45847 2.27356 0.45847C1.7369 0.45847 1.44917 0.728653 1.44917 1.23266C1.44917 3.66661 1.44917 6.10094 1.44917 8.53489C1.44917 8.58655 1.44917 8.63821 1.44917 8.69791V8.6983ZM7.50443 9.1671C5.2818 9.1671 3.05957 9.1671 0.836931 9.1671C0.533844 9.1671 0.442514 9.27196 0.494241 9.55975C0.599715 10.1468 1.08546 10.5414 1.7179 10.5414C5.57316 10.5429 9.42883 10.5429 13.2841 10.5414C13.9149 10.5414 14.4003 10.1441 14.5041 9.55592C14.5546 9.26966 14.4633 9.1671 14.157 9.1671C11.9396 9.1671 9.72181 9.1671 7.50443 9.1671Z" fill="#410EAD"/>
<path d="M7.48597 8.25032C5.75151 8.25032 4.01745 8.25032 2.28299 8.25032C2.00334 8.25032 1.93262 8.18449 1.93262 7.92311C1.93262 5.6985 1.93262 3.47351 1.93262 1.2489C1.93262 0.983687 2.00172 0.91748 2.27814 0.91748C5.75676 0.91748 9.23539 0.91748 12.714 0.91748C12.9937 0.91748 13.0644 0.983304 13.0644 1.24469C13.0644 3.46968 13.0644 5.69429 13.0644 7.91929C13.0644 8.18373 12.9945 8.25108 12.7189 8.25108C10.9747 8.25108 9.23013 8.25108 7.48597 8.25108V8.25032ZM2.42362 7.7819H12.5685V1.38322H2.42321V7.7819H2.42362Z" fill="#410EAD"/>
<path d="M11.6063 9.63525V10.0761H8.72168V9.63525H11.6063Z" fill="#410EAD"/>
<path d="M12.104 10.0758V9.63574H13.0549V10.0758H12.104Z" fill="#410EAD"/>
<path d="M3.14294 4.56881C3.14294 3.9056 3.14253 3.24201 3.14294 2.5788C3.14334 2.12071 3.44279 1.83484 3.92248 1.83407C4.53229 1.8333 5.1421 1.8333 5.75191 1.83407C6.22553 1.83484 6.52983 2.11956 6.53023 2.5654C6.53145 3.91134 6.53145 5.25728 6.53023 6.60284C6.53023 7.0483 6.22513 7.33264 5.7511 7.33341C5.14614 7.33456 4.54158 7.33418 3.93662 7.33341C3.44239 7.33303 3.14334 7.05213 3.14294 6.58754C3.14213 5.91476 3.14294 5.24159 3.14294 4.56881ZM3.62707 5.94882H6.04691C6.04691 5.90595 6.04691 5.87304 6.04691 5.84013C6.04691 4.75748 6.04691 3.67445 6.04691 2.59181C6.04691 2.36831 5.96609 2.29254 5.72887 2.29216C5.13967 2.29177 4.55007 2.29177 3.96087 2.29216C3.70264 2.29216 3.62747 2.36296 3.62747 2.60597C3.62747 3.41193 3.62747 4.21827 3.62747 5.02422V5.94882H3.62707ZM3.62707 6.42183C3.62707 6.5022 3.62424 6.5684 3.62747 6.63461C3.63515 6.78539 3.72446 6.87341 3.8857 6.87418C4.51976 6.87685 5.15382 6.87685 5.78747 6.87418C5.94831 6.87341 6.03762 6.78501 6.04529 6.63384C6.04893 6.56457 6.0457 6.49492 6.0457 6.42183H3.62666H3.62707Z" fill="#410EAD"/>
<path d="M11.3701 5.49389C11.3725 6.51033 10.504 7.33312 9.4299 7.33312C8.37556 7.33312 7.50227 6.50995 7.49903 5.51264C7.4958 4.49888 8.35697 3.67034 9.41737 3.66651C10.4951 3.66307 11.3676 4.47936 11.3701 5.49351V5.49389ZM10.8859 5.50192C10.8871 4.7438 10.2349 4.12422 9.43717 4.12498C8.63621 4.12613 7.9864 4.73921 7.98276 5.49771C7.97912 6.25316 8.63419 6.87504 9.43192 6.87427C10.2345 6.87351 10.8843 6.25966 10.8855 5.50192H10.8859Z" fill="#410EAD"/>
<path d="M7.75293 2.52637H8.21605V2.97221H7.75293V2.52637Z" fill="#410EAD"/>
<path d="M9.18422 2.97239H8.7207V2.53076H9.18422V2.97239Z" fill="#410EAD"/>
<path d="M9.68506 2.52734H10.1506V2.97051H9.68506V2.52734Z" fill="#410EAD"/>
<path d="M11.1256 2.5332V2.96871H10.6548V2.5332H11.1256Z" fill="#410EAD"/>
<path d="M10.3019 5.22936C9.9996 5.51677 9.6852 5.8191 9.36595 6.11684C9.26735 6.20907 9.14288 6.22169 9.03942 6.13023C8.87091 5.98098 8.71492 5.8191 8.54883 5.65837C8.65915 5.5581 8.76746 5.45936 8.90081 5.33805C8.98083 5.43832 9.06529 5.54356 9.15015 5.64956C9.44273 5.36981 9.70015 5.12374 9.96606 4.86963C10.0893 5.00166 10.1912 5.11034 10.3023 5.22975L10.3019 5.22936Z" fill="#410EAD"/>
</svg>
