<svg width="15" height="16" viewBox="0 0 15 16" fill="none" xmlns="http://www.w3.org/2000/svg">
<path d="M8.85949 12.5826C8.94311 12.7494 9.01299 12.8984 9.09378 13.0414C9.11115 13.0721 9.16609 13.0879 9.20649 13.0976C9.77525 13.2325 10.1538 13.7015 10.1606 14.2852C10.1622 14.4213 10.1618 14.5575 10.1606 14.6936C10.159 14.9198 10.077 15.0022 9.84918 15.0022C8.59409 15.0026 7.33941 15.0022 6.08433 15.0022C5.76682 15.0022 5.44932 15.0034 5.13181 15.0018C4.92499 15.0006 4.83692 14.9142 4.83894 14.7061C4.84137 14.49 4.82763 14.2691 4.86601 14.0586C4.95811 13.5541 5.27481 13.2394 5.76642 13.1085C5.86014 13.0835 5.91548 13.0471 5.95305 12.9615C6.00556 12.8423 6.06696 12.7272 6.13806 12.5821H5.96517C5.05304 12.5821 4.14091 12.5821 3.22838 12.5821C2.71254 12.5821 2.41846 12.2913 2.41846 11.7803C2.41846 10.0562 2.41846 8.33256 2.41846 6.60849C2.41846 6.10395 2.71294 5.80704 3.21344 5.80664C6.071 5.80664 8.92857 5.80664 11.7861 5.80664C12.2806 5.80664 12.5795 6.10314 12.5795 6.59435C12.5803 8.32852 12.5803 10.0623 12.5795 11.7965C12.5795 12.2808 12.2802 12.5813 11.7987 12.5817C10.8813 12.5826 9.9643 12.5817 9.04693 12.5817H8.85868L8.85949 12.5826ZM5.55636 10.6468C4.7327 9.44343 5.08697 8.1318 5.84075 7.4269C6.65956 6.66141 7.89202 6.55234 8.82637 7.16715C9.29334 7.47416 9.62013 7.89467 9.79262 8.42466C10.0495 9.21399 9.9126 9.9508 9.44563 10.6367H12.0964V10.4776C12.0964 9.19742 12.0964 7.9173 12.0964 6.63717C12.0964 6.36086 12.0257 6.29138 11.7465 6.29138C8.91443 6.29138 6.08272 6.29138 3.2506 6.29138C2.97268 6.29138 2.9028 6.36127 2.9028 6.63878C2.9028 7.91891 2.9028 9.19904 2.9028 10.4792V10.6468H5.55636ZM5.56444 9.19136C5.56202 10.2558 6.42688 11.1255 7.49251 11.1303C8.5541 11.1352 9.4331 10.2639 9.43512 9.2051C9.43714 8.13543 8.5743 7.26168 7.51392 7.25926C6.43698 7.25683 5.56727 8.11927 5.56444 9.19177V9.19136ZM12.096 11.1307H11.9312C10.9843 11.1307 10.0374 11.1287 9.09015 11.1344C9.00209 11.1348 8.90231 11.1671 8.82839 11.2156C8.0124 11.7516 6.9597 11.7464 6.15139 11.2006C6.08999 11.159 6.00475 11.134 5.93043 11.1336C4.96821 11.1291 4.0064 11.1307 3.04418 11.1311C3.00055 11.1311 2.95693 11.136 2.9028 11.1396C2.9028 11.3444 2.9028 11.5399 2.9028 11.7355C2.9028 12.034 2.96743 12.0986 3.26514 12.0986C6.08595 12.0986 8.90675 12.0986 11.7272 12.0986C11.7675 12.0986 11.8079 12.1002 11.8479 12.0978C11.999 12.0877 12.0911 11.9996 12.0943 11.8478C12.0992 11.6163 12.0956 11.3848 12.0956 11.1307H12.096ZM9.67022 14.511C9.74859 13.8598 9.34262 13.5258 8.78355 13.5432C7.90858 13.5706 7.03201 13.5504 6.15624 13.5504C5.56162 13.5504 5.25259 13.9099 5.33742 14.5106H9.67022V14.511ZM8.55451 13.0596C8.47937 12.9077 8.41474 12.7672 8.33879 12.633C8.32264 12.6044 8.26527 12.5854 8.22649 12.585C7.74296 12.5817 7.25943 12.5821 6.7763 12.5842C6.73995 12.5842 6.6838 12.5931 6.67047 12.6165C6.59089 12.7579 6.52141 12.9045 6.44345 13.0592H8.55451V13.0596Z" fill="#410EAD"/>
<path d="M2.42453 0.483887C3.75233 0.483079 4.83735 1.5685 4.83815 2.89912C4.83896 4.23702 3.75192 5.32325 2.41444 5.32082C1.08745 5.3184 0.00283487 4.23257 7.19744e-06 2.90316C-0.00322443 1.56769 1.0822 0.484695 2.42453 0.483887ZM1.70873 3.08535C1.35002 2.57798 1.37547 2.06052 1.76367 1.70383C2.11955 1.37703 2.66085 1.36289 3.03693 1.6707C3.45098 2.00962 3.48895 2.51577 3.1363 3.08858C3.53702 3.33337 3.78101 3.69168 3.86301 4.16673C4.48268 3.52 4.58811 2.2839 3.73859 1.48408C2.94038 0.733126 1.65823 0.804222 0.946469 1.64444C0.181786 2.54728 0.487579 3.71066 0.97919 4.15542C1.05836 3.68764 1.30235 3.33458 1.70873 3.08535ZM2.32678 4.83891C2.71376 4.83891 3.04258 4.76175 3.28859 4.62723C3.32737 4.60582 3.37584 4.56624 3.38311 4.52786C3.48733 3.98374 3.0543 3.43274 2.49603 3.38952C1.96484 3.34832 1.37991 3.75833 1.45505 4.52503C1.45868 4.56179 1.50756 4.60582 1.54634 4.62602C1.8186 4.76821 2.10985 4.83729 2.32637 4.83931L2.32678 4.83891ZM2.42534 1.9361C2.16116 1.93327 1.94221 2.14494 1.93615 2.40953C1.9301 2.67129 2.14419 2.8963 2.40555 2.90276C2.67579 2.90922 2.9012 2.69109 2.90241 2.42165C2.90362 2.15787 2.68832 1.93893 2.42534 1.9361Z" fill="#410EAD"/>
<path d="M14.9998 2.89961C15.0006 4.2375 13.9131 5.32373 12.5761 5.32131C11.2491 5.31889 10.1645 4.23266 10.1616 2.90365C10.1588 1.56818 11.2438 0.485183 12.5866 0.484375C13.9144 0.483568 14.9994 1.56939 15.0002 2.90001L14.9998 2.89961ZM14.023 4.16964C14.65 3.5112 14.7469 2.27025 13.8885 1.47366C13.0867 0.729979 11.7997 0.812789 11.0976 1.65705C10.3418 2.56595 10.6581 3.72489 11.1416 4.1555C11.2184 3.68247 11.4729 3.33144 11.8687 3.08341C11.5145 2.58453 11.5359 2.07312 11.9148 1.71441C12.2695 1.37832 12.8188 1.36055 13.199 1.672C13.6114 2.01011 13.649 2.51101 13.2983 3.08987C13.695 3.33305 13.9406 3.6853 14.023 4.16964ZM12.5744 4.84061C12.8867 4.83859 13.1832 4.76951 13.4595 4.62328C13.4971 4.60349 13.5399 4.55743 13.5451 4.51866C13.6328 3.89253 13.1331 3.34961 12.5118 3.39001C11.9738 3.42475 11.6074 3.86344 11.611 4.46049C11.6114 4.54693 11.6352 4.59621 11.7156 4.63459C11.9879 4.76507 12.2723 4.83657 12.5744 4.84061ZM12.5805 2.90325C12.8447 2.90244 13.062 2.68754 13.064 2.42416C13.066 2.15432 12.8431 1.93295 12.5736 1.93699C12.3094 1.94103 12.097 2.15836 12.0978 2.42335C12.0986 2.68511 12.3187 2.90405 12.5805 2.90325Z" fill="#410EAD"/>
<path d="M5.56445 2.66205C5.56445 1.88565 5.56445 1.10926 5.56445 0.333261C5.56445 0.0751353 5.63918 0 5.8965 0C6.96496 0 8.03341 0 9.10187 0C9.35959 0 9.43513 0.0751353 9.43513 0.33205C9.43513 1.88485 9.43513 3.43724 9.43513 4.99003C9.43513 5.24735 9.35959 5.32329 9.10308 5.32329C8.03463 5.32329 6.96617 5.32329 5.89771 5.32329C5.63999 5.32329 5.56486 5.24816 5.56486 4.99084C5.56486 4.21444 5.56486 3.43805 5.56486 2.66205H5.56445ZM8.9415 4.83209V0.495651H6.05566V4.83249H8.9415V4.83209Z" fill="#410EAD"/>
<path d="M0.254906 6.05607H0.725511V6.22411C0.725511 7.18108 0.725511 8.13804 0.725511 9.0946C0.725511 9.5034 0.902847 9.67872 1.3169 9.67872C1.51726 9.67872 1.71762 9.67872 1.92646 9.67872V10.1618C1.5726 10.1425 1.20743 10.2289 0.860432 10.0932C0.4791 9.94412 0.252482 9.64842 0.247231 9.23841C0.233496 8.19096 0.242787 7.14351 0.243191 6.09606C0.243191 6.08677 0.248039 6.07748 0.254502 6.05566L0.254906 6.05607Z" fill="#410EAD"/>
<path d="M13.0713 10.1631V9.67914C13.2983 9.67914 13.5181 9.67995 13.7382 9.67914C14.0779 9.67752 14.273 9.48444 14.2735 9.14511C14.2747 8.1732 14.2735 7.20129 14.2735 6.22938C14.2735 6.17525 14.2735 6.12072 14.2735 6.05811H14.7574V6.19787C14.7574 7.17988 14.7586 8.16189 14.7574 9.1439C14.7566 9.74943 14.347 10.1602 13.7451 10.1631C13.5245 10.1643 13.3036 10.1631 13.0713 10.1631Z" fill="#410EAD"/>
<path d="M7.24917 7.74658H7.72543C7.73108 7.76557 7.7432 7.78496 7.74037 7.80152C7.71331 7.95906 7.77673 8.04834 7.91811 8.13074C8.1209 8.2491 8.20936 8.45512 8.22633 8.70072H7.75411C7.74078 8.66961 7.72947 8.63084 7.70967 8.59731C7.64948 8.4939 7.55657 8.44865 7.44145 8.47895C7.32794 8.50844 7.26048 8.59004 7.26048 8.71041C7.26048 8.83766 7.33278 8.91805 7.45397 8.94713C7.52668 8.9645 7.60505 8.96006 7.67736 8.97904C7.96699 9.05579 8.14837 9.24525 8.20896 9.5369C8.26753 9.81805 8.1726 10.0528 7.95649 10.2386C7.91488 10.2741 7.85631 10.2911 7.81955 10.3303C7.7844 10.3678 7.75734 10.4199 7.74522 10.47C7.7327 10.5213 7.74239 10.5779 7.74239 10.6397H7.28027C7.27502 10.6336 7.2629 10.6256 7.2633 10.6187C7.28229 10.4515 7.23058 10.342 7.07021 10.2495C6.87349 10.1364 6.78745 9.93076 6.77614 9.6896H7.24715C7.25401 9.70777 7.26128 9.7308 7.27098 9.75302C7.32874 9.88188 7.44347 9.94853 7.559 9.91298C7.67776 9.87622 7.74401 9.79301 7.73997 9.66536C7.73593 9.53973 7.6414 9.45328 7.50164 9.43753C7.44185 9.43107 7.38085 9.42743 7.32309 9.41208C7.03346 9.33452 6.85208 9.14588 6.79108 8.85422C6.73211 8.57307 6.81694 8.32383 7.04638 8.1574C7.19342 8.05076 7.31824 7.96229 7.24917 7.74699V7.74658Z" fill="#410EAD"/>
<path d="M6.53906 1.44387V0.978516H8.45784V1.44387H6.53906Z" fill="#410EAD"/>
<path d="M6.54199 1.94336H8.46037V2.40912H6.54199V1.94336Z" fill="#410EAD"/>
<path d="M6.53906 3.37697V2.91162H8.45542V3.37697H6.53906Z" fill="#410EAD"/>
<path d="M8.46079 3.88184V4.34759H6.54443V3.88184H8.46079Z" fill="#410EAD"/>
</svg>
