<svg width="16" height="15" viewBox="0 0 16 15" fill="none" xmlns="http://www.w3.org/2000/svg">
<path d="M0 0.617108C0.0946989 0.313446 0.270401 0.0892205 0.597543 0.0203485C0.668371 0.00547845 0.742721 0.00273923 0.815507 0.00273923C3.15481 0.00156527 5.49371 0.00273923 7.83262 0C8.02163 0 8.16954 0.0630022 8.30142 0.196442C8.8027 0.703198 9.30672 1.20722 9.81347 1.70849C9.93948 1.83293 10.0017 1.97342 9.99974 2.15147C9.99504 2.5467 10.0021 2.94232 9.99583 3.33755C9.99426 3.43812 10.026 3.47921 10.1207 3.51247C12.0017 4.17145 13.1952 5.46867 13.6312 7.41195C13.9528 8.84692 13.6644 10.1919 12.8552 11.4222C12.8262 11.4664 12.7965 11.5102 12.7441 11.5901C12.7883 11.6198 12.8399 11.6433 12.8775 11.6808C13.5036 12.3042 14.1285 12.9291 14.7531 13.5545C15.088 13.8898 15.0853 14.251 14.7496 14.5903C14.5887 14.7527 14.4361 14.9241 14.2099 15H13.9462C13.7924 14.8936 13.6194 14.8063 13.4876 14.6776C12.8763 14.0816 12.2764 13.4739 11.6726 12.8704C11.6358 12.8337 11.5975 12.7988 11.5591 12.7621C11.5231 12.7863 11.4989 12.802 11.4746 12.8184C10.2694 13.6327 8.95061 13.9125 7.51878 13.6554C7.24682 13.6065 6.97603 13.5114 6.70406 13.5095C4.77682 13.4966 2.84958 13.5028 0.922336 13.5028C0.38897 13.5028 0.203094 13.3796 0.000391318 12.8912V0.617108H0ZM8.49708 13.2469C11.1471 13.2309 13.2625 11.1123 13.2477 8.48886C13.2328 5.84707 11.0982 3.73591 8.45834 3.75117C5.83807 3.76644 3.73278 5.91516 3.75 8.55578C3.76722 11.1381 5.91673 13.2622 8.49708 13.2465V13.2469ZM5.79542 13.0019C3.58839 11.664 2.78462 9.02105 3.51051 6.86489C3.86192 5.82164 4.46455 4.95761 5.34971 4.30293C6.58588 3.38842 7.97193 3.08359 9.48907 3.34186V2.27082C9.47185 2.26377 9.46324 2.25712 9.45463 2.25712C9.15214 2.25556 8.84926 2.25595 8.54677 2.2536C8.07015 2.25008 7.75905 1.94289 7.75201 1.46666C7.7481 1.19822 7.75162 0.929771 7.75083 0.661327C7.75083 0.610065 7.74536 0.558802 7.74223 0.501278H7.5947C5.34423 0.501278 3.09337 0.501278 0.842899 0.501278C0.57602 0.501278 0.499322 0.580325 0.499322 0.854247C0.499322 4.78347 0.499322 8.7123 0.499322 12.6415C0.499322 12.9284 0.574455 13.0023 0.866378 13.0023C2.45317 13.0023 4.03958 13.0023 5.62637 13.0023C5.66902 13.0023 5.71168 13.0023 5.79581 13.0023L5.79542 13.0019ZM11.9732 12.4556C11.9998 12.4838 12.0354 12.5226 12.0725 12.5597C12.3242 12.8117 12.5762 13.0638 12.8282 13.3154C13.1941 13.6809 13.5596 14.0471 13.9262 14.4118C14.0464 14.5312 14.098 14.53 14.2201 14.4118C14.2796 14.3539 14.3375 14.2948 14.3958 14.2358C14.539 14.0906 14.539 14.0467 14.3919 13.8996C13.7748 13.2813 13.1573 12.6638 12.5398 12.0463C12.51 12.0166 12.4768 11.9904 12.456 11.9724C12.2952 12.1336 12.1438 12.2854 11.9735 12.456L11.9732 12.4556ZM8.25759 0.889466C8.25759 1.11369 8.2435 1.32774 8.26542 1.53788C8.27285 1.6091 8.36559 1.72141 8.42821 1.72767C8.65361 1.75076 8.88292 1.73667 9.10871 1.73667C8.82735 1.45649 8.54991 1.18021 8.25798 0.889074L8.25759 0.889466Z" fill="#410EAD"/>
<path d="M8.49931 12.765C6.35176 12.7356 4.58613 11.188 4.28482 9.0541C3.96707 6.80285 5.59339 4.63142 7.84464 4.30546C8.04226 4.27689 8.24261 4.26241 8.44179 4.25302C8.62767 4.24402 8.74311 4.34068 8.74976 4.49133C8.75641 4.64551 8.6398 4.74139 8.4461 4.75117C6.89335 4.82708 5.74874 5.55141 5.0878 6.95781C4.05473 9.15623 5.44312 11.7742 7.83642 12.1905C9.93349 12.5552 11.8764 11.1649 12.2114 9.05958C12.4868 7.328 11.4585 5.5882 9.8024 4.98439C9.75662 4.96757 9.70966 4.95387 9.66544 4.93391C9.53005 4.87287 9.47291 4.75312 9.51596 4.62556C9.56096 4.49133 9.68892 4.42246 9.83175 4.46668C9.95267 4.50425 10.0708 4.55081 10.1871 4.60129C11.8635 5.32601 12.8973 7.03373 12.7338 8.87175C12.5608 10.8127 11.1329 12.3322 9.26865 12.6781C9.01546 12.7251 8.75602 12.7372 8.49931 12.7654V12.765Z" fill="#410EAD"/>
<path d="M7.71696 9.62794C7.89853 9.3861 8.06797 9.1607 8.23702 8.9353C8.73752 8.2685 9.23762 7.6013 9.73812 6.93449C9.76747 6.89575 9.79603 6.85506 9.83086 6.82179C9.92165 6.7357 10.0574 6.7271 10.1513 6.80458C10.2484 6.8848 10.2797 6.98732 10.2237 7.10472C10.203 7.14815 10.1725 7.18729 10.1431 7.22603C9.42976 8.1781 8.71599 9.12979 8.00184 10.0815C7.83749 10.3002 7.70679 10.308 7.5123 10.1136C7.29864 9.8999 7.08381 9.68663 6.87093 9.4718C6.73397 9.33366 6.71988 9.1834 6.83102 9.07539C6.9445 8.96504 7.08498 8.9803 7.22781 9.12392C7.38904 9.28632 7.54713 9.45223 7.71696 9.62794Z" fill="#410EAD"/>
<path d="M4.24876 2.99932C3.45829 2.99932 2.66822 2.99932 1.87776 2.99932C1.82415 2.99932 1.77015 3.00089 1.71693 2.99385C1.5921 2.9778 1.49818 2.87801 1.50053 2.7571C1.50327 2.63188 1.5651 2.54305 1.6911 2.51292C1.74237 2.50078 1.79715 2.49961 1.85037 2.49961C3.45047 2.49883 5.05057 2.49883 6.65067 2.49961C6.70389 2.49961 6.75906 2.50078 6.80993 2.5137C6.93476 2.54539 6.99698 2.63344 6.99777 2.75945C6.99855 2.88115 6.90581 2.97819 6.7798 2.99424C6.72697 3.00089 6.67258 2.99932 6.61897 2.99932C5.82851 2.99932 5.03844 2.99932 4.24797 2.99932H4.24876Z" fill="#410EAD"/>
<path d="M4.24719 1.2542C5.05213 1.2542 5.85707 1.25342 6.66201 1.25537C6.72892 1.25537 6.81462 1.2499 6.85767 1.28668C6.92106 1.34107 6.99463 1.43381 6.98954 1.50503C6.98406 1.58369 6.90502 1.669 6.83732 1.72652C6.79741 1.76057 6.7164 1.75313 6.65418 1.75313C5.05408 1.7543 3.45398 1.75391 1.85389 1.75391C1.82454 1.75391 1.79519 1.75509 1.76623 1.75313C1.60657 1.74178 1.49818 1.6373 1.50053 1.49799C1.50287 1.35672 1.61009 1.25616 1.77406 1.25537C2.38373 1.25303 2.9938 1.2542 3.60347 1.2542C3.8183 1.2542 4.03274 1.2542 4.24758 1.2542H4.24719Z" fill="#410EAD"/>
<path d="M3.12547 4.2503C2.6868 4.2503 2.24814 4.25108 1.80947 4.2503C1.61655 4.2503 1.4972 4.15129 1.49955 3.99829C1.50189 3.84998 1.61851 3.75215 1.80125 3.75215C2.68837 3.75137 3.5751 3.75215 4.46221 3.75098C4.5937 3.75098 4.70796 3.79754 4.72988 3.92668C4.74396 4.00846 4.70679 4.11803 4.65396 4.18495C4.616 4.23308 4.51465 4.24717 4.44147 4.24795C4.00281 4.25343 3.56414 4.25069 3.12547 4.25069V4.2503Z" fill="#410EAD"/>
<path d="M2.50812 5.00321C2.74174 5.00321 2.97575 5.00164 3.20937 5.0036C3.38898 5.00555 3.49229 5.09477 3.49542 5.24465C3.49855 5.4 3.39094 5.50096 3.20663 5.50174C2.73431 5.50448 2.26159 5.50448 1.78927 5.50174C1.61083 5.50057 1.49422 5.39061 1.4997 5.24191C1.50518 5.09673 1.61435 5.00516 1.79162 5.0036C2.03032 5.00125 2.26903 5.00321 2.50773 5.00321H2.50812Z" fill="#410EAD"/>
<path d="M2.49357 11.7487C2.25957 11.7487 2.02595 11.7499 1.79194 11.7483C1.61272 11.7468 1.49532 11.6427 1.49963 11.4932C1.50393 11.3488 1.61741 11.251 1.78959 11.2502C2.2623 11.2486 2.73463 11.2486 3.20734 11.2502C3.39087 11.251 3.49926 11.3496 3.49574 11.5057C3.49222 11.6552 3.38695 11.7468 3.20969 11.7483C2.97098 11.7503 2.73228 11.7487 2.49357 11.7487Z" fill="#410EAD"/>
<path d="M2.24477 6.74767C2.08354 6.74767 1.92232 6.75158 1.76149 6.74649C1.60653 6.7418 1.504 6.6428 1.50009 6.50623C1.49657 6.37161 1.59831 6.25578 1.74936 6.25226C2.0812 6.24483 2.41342 6.24483 2.74526 6.25148C2.90101 6.25461 2.9961 6.36066 2.99571 6.50153C2.99492 6.64436 2.90022 6.74102 2.74291 6.74649C2.577 6.75197 2.41108 6.74767 2.24516 6.74767H2.24477Z" fill="#410EAD"/>
<path d="M2.25329 10.4974C2.09207 10.4974 1.93084 10.5009 1.77001 10.4966C1.60605 10.4923 1.49961 10.3917 1.5 10.2501C1.5 10.1104 1.60761 10.0027 1.77001 10C2.09207 9.99492 2.41451 9.99453 2.73657 10.0004C2.90092 10.0035 2.99914 10.11 2.99562 10.2567C2.9921 10.3988 2.89661 10.4911 2.73696 10.4962C2.57613 10.5009 2.4149 10.4974 2.25368 10.4974H2.25329Z" fill="#410EAD"/>
<path d="M2.12818 8.75397C2.25027 8.75397 2.37236 8.75006 2.49445 8.75475C2.64707 8.76062 2.75037 8.86315 2.75037 9.00011C2.75037 9.12885 2.65176 9.2439 2.5101 9.2482C2.25183 9.25681 1.99239 9.2572 1.73412 9.24742C1.59403 9.24194 1.4962 9.12181 1.50011 8.99385C1.50403 8.86237 1.60381 8.76141 1.74743 8.75554C1.87421 8.75006 2.00139 8.75436 2.12818 8.75436C2.12818 8.75436 2.12818 8.75436 2.12818 8.75397Z" fill="#410EAD"/>
<path d="M2.11353 7.99893C1.99222 7.99893 1.87052 8.00285 1.74921 7.99776C1.60325 7.9915 1.4972 7.87997 1.49955 7.74614C1.5019 7.6174 1.60403 7.50666 1.74295 7.50313C1.99535 7.49687 2.24853 7.49726 2.50093 7.50274C2.6465 7.50587 2.75294 7.62092 2.7502 7.75436C2.74785 7.88897 2.64142 7.99306 2.49271 7.99815C2.36632 8.00245 2.23992 7.99893 2.11353 7.99893Z" fill="#410EAD"/>
</svg>
