<svg width="15" height="14" viewBox="0 0 15 14" fill="none" xmlns="http://www.w3.org/2000/svg">
<path d="M1.22792 12.9706C1.10151 12.9706 0.99763 12.9642 0.894583 12.9718C0.2133 13.0208 -0.00572749 12.7716 0.000113266 12.1027C0.0193043 9.84087 0.00720553 7.57902 0.00720553 5.31717C0.00720553 4.24694 0.00428518 3.1763 0.0117947 2.10607C0.0126291 2.00492 0.0535142 1.88515 0.11818 1.80705C0.584606 1.24463 1.06355 0.69191 1.53415 0.13272C1.61425 0.0376332 1.70228 -0.000401432 1.82827 3.1917e-06C4.56049 0.00243094 7.29313 0.00162159 10.0253 0.00243084C10.4171 0.00243084 10.657 0.235494 10.6587 0.615436C10.6599 0.941968 10.6587 1.2689 10.6587 1.61041H10.8581C11.9824 1.61041 13.1063 1.61041 14.2307 1.61041C14.7334 1.61041 14.9996 1.87018 15 2.35896C15 3.86861 15 5.37827 15 6.88752C15 7.36538 14.7313 7.62636 14.2369 7.62717C13.5185 7.62838 12.8005 7.62717 12.0821 7.62717C12.0208 7.62717 11.9599 7.62717 11.8798 7.62717C11.8798 7.70243 11.8798 7.7611 11.8798 7.82017C11.8798 9.65798 11.8798 11.4958 11.8798 13.3332C11.8798 13.7876 11.6608 14 11.1931 14C8.10165 14 5.01023 14 1.9188 14C1.45363 14 1.22834 13.7831 1.22792 13.3344C1.22792 13.2191 1.22792 13.1038 1.22792 12.9698V12.9706ZM0.409383 2.19185V2.35896C0.409383 5.67162 0.409383 8.98387 0.409383 12.2965C0.409383 12.5466 0.446514 12.5818 0.710599 12.5818C3.79201 12.5818 6.87385 12.5818 9.95526 12.5818C10.2239 12.5818 10.2573 12.5482 10.2573 12.282C10.2573 10.954 10.2573 9.62601 10.2573 8.29763V8.13012C10.1797 8.17017 10.1251 8.19648 10.0725 8.22601C9.70286 8.43237 9.33405 8.63994 8.96442 8.8463C8.69658 8.99601 8.56599 8.92278 8.56558 8.62335C8.56558 8.29642 8.56558 7.96989 8.56558 7.62798C8.27354 7.62798 7.99902 7.62879 7.72451 7.62798C7.23764 7.62595 6.96938 7.367 6.96897 6.89804C6.96855 5.37827 6.96855 3.85809 6.96897 2.33833C6.96897 1.87099 7.24014 1.61081 7.72576 1.61041C8.51176 1.6096 9.29776 1.61041 10.0838 1.61041C10.1388 1.61041 10.1935 1.61041 10.2573 1.61041C10.2573 1.28509 10.2573 0.982835 10.2573 0.680176C10.2573 0.427691 10.2202 0.391679 9.95943 0.391679C7.36197 0.391679 4.7645 0.391679 2.16703 0.391679H1.9868C1.9868 0.795899 1.98847 1.17867 1.98639 1.56145C1.98388 1.9689 1.75776 2.18902 1.34057 2.19185C1.03935 2.19388 0.738134 2.19185 0.408966 2.19185H0.409383ZM8.96817 8.38948C9.03242 8.35671 9.07748 8.33567 9.12087 8.31139C9.70619 7.98405 10.2894 7.65266 10.8785 7.3322C10.977 7.27838 11.1013 7.2448 11.2139 7.24439C12.2286 7.23792 13.2432 7.24116 14.2578 7.23994C14.4973 7.23994 14.5974 7.14769 14.5978 6.92393C14.5987 5.38434 14.5991 3.84474 14.5978 2.30515C14.5978 2.09636 14.4973 2.00127 14.2803 2.00127C12.0846 2.00046 9.88851 2.00046 7.6928 2.00127C7.4671 2.00127 7.36989 2.09393 7.36947 2.31526C7.36822 3.8496 7.36822 5.38434 7.36947 6.91867C7.36947 7.14648 7.46835 7.23832 7.70407 7.23954C8.02656 7.24116 8.34947 7.23954 8.67196 7.23994C8.90976 7.24035 8.96775 7.29578 8.96817 7.52359C8.96901 7.8048 8.96817 8.08642 8.96817 8.38908V8.38948ZM11.4809 7.65104C11.2306 7.57497 11.0466 7.68179 10.8522 7.78416C10.7075 7.86064 10.6532 7.94358 10.6541 8.10948C10.6628 9.50786 10.6591 10.9062 10.6591 12.3046C10.6591 12.7562 10.4371 12.9702 9.96986 12.9702C7.25308 12.9702 4.53671 12.9702 1.81992 12.9702H1.62968C1.62968 13.1009 1.62968 13.2114 1.62968 13.3218C1.62968 13.5731 1.66932 13.612 1.92673 13.612C5.01273 13.612 8.09915 13.612 11.1852 13.612C11.443 13.612 11.4809 13.5743 11.4809 13.3202C11.4809 11.4824 11.4809 9.64503 11.4809 7.80723V7.65064V7.65104ZM1.5913 0.738847C1.58045 0.731159 1.56961 0.723876 1.55876 0.716188C1.25796 1.06902 0.957162 1.42185 0.633418 1.80179C0.922952 1.80179 1.17118 1.80827 1.419 1.79896C1.54624 1.79411 1.59047 1.69902 1.59088 1.58573C1.59214 1.3033 1.59088 1.02087 1.59088 0.738442L1.5913 0.738847Z" fill="#410EAD"/>
<path d="M5.75683 3.83975C5.76976 4.3253 5.76767 4.80842 5.56658 5.26727C5.242 6.00773 4.68546 6.50137 3.89571 6.74253C3.80893 6.76923 3.69796 6.76235 3.6091 6.73605C2.5102 6.41195 1.78428 5.45339 1.76425 4.30345C1.758 3.9405 1.76592 3.57715 1.76175 3.2138C1.76008 3.06449 1.82516 2.98195 1.97369 2.94149C2.53356 2.78935 3.09136 2.62952 3.65123 2.479C3.72174 2.45999 3.80685 2.4612 3.87777 2.48022C4.43807 2.63114 4.99586 2.78975 5.55532 2.94311C5.69508 2.98155 5.76392 3.05721 5.75891 3.20368C5.75182 3.4153 5.75724 3.62733 5.75724 3.83935L5.75683 3.83975ZM5.3559 4.04611C5.3559 3.7827 5.34881 3.60588 5.35882 3.42987C5.36466 3.32386 5.32628 3.27975 5.22281 3.25224C4.76723 3.13085 4.31416 3.00097 3.859 2.87837C3.80268 2.8634 3.73509 2.85975 3.6796 2.87473C3.20942 3.00218 2.74175 3.13692 2.27198 3.26438C2.19313 3.28582 2.16184 3.31536 2.16309 3.39709C2.1681 3.73496 2.15725 4.07363 2.16935 4.41108C2.20064 5.27617 2.79807 6.05912 3.63496 6.33467C3.71089 6.35975 3.81144 6.36097 3.88695 6.33507C4.44766 6.14409 4.85651 5.78276 5.12769 5.27091C5.34714 4.85698 5.37718 4.4123 5.35632 4.04571L5.3559 4.04611Z" fill="#410EAD"/>
<path d="M5.34844 9.63149C6.54037 9.63149 7.73272 9.63149 8.92465 9.63149C8.9768 9.63149 9.02895 9.62987 9.08068 9.63553C9.19249 9.64767 9.26091 9.72253 9.24297 9.81883C9.23004 9.88802 9.16037 9.95721 9.09779 10.0033C9.05982 10.0313 8.98723 10.0183 8.93049 10.0183C6.53078 10.0187 4.13064 10.0187 1.73093 10.0183C1.6842 10.0183 1.63706 10.0183 1.59075 10.0126C1.47477 9.99767 1.41261 9.92889 1.41511 9.81802C1.41803 9.70715 1.48103 9.64039 1.59993 9.63311C1.65166 9.62987 1.70381 9.63108 1.75596 9.63108C2.95332 9.63108 4.15067 9.63108 5.34802 9.63108L5.34844 9.63149Z" fill="#410EAD"/>
<path d="M5.33546 11.1912C4.13894 11.1912 2.94284 11.1912 1.74632 11.1912C1.68916 11.1912 1.63117 11.1941 1.57485 11.1864C1.4643 11.1714 1.39713 11.0957 1.41924 10.9982C1.43509 10.9298 1.50643 10.8651 1.56901 10.8186C1.6028 10.7935 1.66956 10.8089 1.72129 10.8089C4.12976 10.8089 6.53782 10.8089 8.9463 10.8089C8.99803 10.8089 9.06604 10.7943 9.09858 10.8198C9.1599 10.8683 9.24001 10.9416 9.23875 11.0031C9.2375 11.065 9.15573 11.1374 9.0919 11.1815C9.0531 11.2082 8.98093 11.1912 8.92377 11.1912C7.72725 11.1912 6.53115 11.1912 5.33463 11.1912H5.33546Z" fill="#410EAD"/>
<path d="M4.59074 8.45436C5.56364 8.45436 6.53654 8.45274 7.50944 8.4576C7.58496 8.4576 7.68049 8.48309 7.73056 8.53164C7.83027 8.62794 7.76852 8.79465 7.63043 8.83026C7.5762 8.84401 7.51737 8.8428 7.46022 8.8428C5.55071 8.8432 3.6412 8.8432 1.73169 8.8432C1.70582 8.8432 1.67954 8.84401 1.65367 8.8432C1.49305 8.83713 1.41128 8.77037 1.41212 8.64615C1.41295 8.5195 1.4918 8.45557 1.65576 8.45557C2.63408 8.45477 3.61199 8.45557 4.59032 8.45557L4.59074 8.45436Z" fill="#410EAD"/>
<path d="M3.89104 7.27463C4.60319 7.27463 5.31535 7.27463 6.0275 7.27463C6.07423 7.27463 6.12179 7.2718 6.16768 7.27787C6.27532 7.29244 6.33664 7.35839 6.34123 7.46076C6.34582 7.57041 6.28449 7.64203 6.17102 7.66145C6.12554 7.66914 6.07757 7.66591 6.03084 7.66591C4.5961 7.66591 3.16136 7.66591 1.72662 7.66591C1.69033 7.66591 1.65361 7.66752 1.61732 7.66469C1.48965 7.65538 1.41122 7.59267 1.41414 7.46359C1.41706 7.34302 1.49299 7.28313 1.61398 7.27544C1.65528 7.27302 1.697 7.27423 1.73872 7.27423C2.4563 7.27423 3.17346 7.27423 3.89104 7.27423V7.27463Z" fill="#410EAD"/>
<path d="M11.0294 6.75527C10.5141 6.75527 9.99889 6.75688 9.48324 6.75527C8.72978 6.75284 8.34345 6.10827 8.7181 5.47584C9.23834 4.59659 9.76067 3.71816 10.2855 2.84134C10.6593 2.217 11.4274 2.22024 11.8016 2.847C12.3227 3.72018 12.8425 4.59376 13.3611 5.46856C13.742 6.1111 13.3569 6.75405 12.5909 6.75567C12.0703 6.75688 11.55 6.75567 11.0294 6.75567V6.75527ZM11.031 6.36521C11.5617 6.36521 12.092 6.36602 12.6226 6.36521C13.0419 6.36399 13.2376 6.03625 13.0273 5.6818C12.5017 4.79486 11.9739 3.90873 11.4445 3.02382C11.2375 2.67787 10.8462 2.67503 10.6405 3.01897C10.1086 3.90833 9.57877 4.79891 9.05102 5.6907C8.84576 6.03746 9.04267 6.3644 9.45486 6.36561C9.98012 6.36723 10.5054 6.36561 11.031 6.36561V6.36521Z" fill="#410EAD"/>
<path d="M3.64048 4.77155C3.85867 4.54941 4.06935 4.33374 4.28171 4.11929C4.40561 3.99426 4.50491 3.9797 4.6042 4.0679C4.69974 4.15328 4.69098 4.26172 4.57375 4.3827C4.33845 4.62467 4.1019 4.86542 3.86409 5.10536C3.73226 5.23889 3.67051 5.24617 3.51115 5.15149C3.33843 5.04871 3.16654 4.94473 2.99591 4.83952C2.84822 4.74848 2.81401 4.65137 2.88744 4.54212C2.95961 4.4353 3.06308 4.426 3.21327 4.51501C3.35428 4.59837 3.49446 4.68334 3.64089 4.77114L3.64048 4.77155Z" fill="#410EAD"/>
<path d="M10.8438 4.5323C10.8438 4.35589 10.8438 4.17947 10.8438 4.00305C10.8433 3.87438 10.9126 3.80034 11.0407 3.79791C11.1625 3.79548 11.2384 3.86953 11.2401 3.98646C11.2451 4.36438 11.2459 4.7423 11.2397 5.12022C11.2376 5.24161 11.1608 5.31889 11.0269 5.30999C10.9022 5.30149 10.845 5.22421 10.8446 5.10646C10.8433 4.91508 10.8446 4.72369 10.8446 4.5319L10.8438 4.5323Z" fill="#410EAD"/>
<path d="M11.241 5.62097C11.2397 5.72294 11.1442 5.81964 11.0399 5.81115C10.9222 5.80144 10.8446 5.73791 10.8467 5.61733C10.8488 5.49837 10.9227 5.43323 11.0436 5.42837C11.1492 5.42392 11.2422 5.51941 11.241 5.62138V5.62097Z" fill="#410EAD"/>
</svg>
