<svg width="15" height="11" viewBox="0 0 15 11" fill="none" xmlns="http://www.w3.org/2000/svg">
<path d="M3.89994 1.22372C3.89994 0.92921 3.89911 0.634294 3.89994 0.339786C3.90076 0.0721994 3.96914 0.00285564 4.23482 0.00285564C5.90014 0.00285564 7.56505 0.00407906 9.23038 0C9.37661 0 9.48164 0.0473174 9.58173 0.148478C10.2041 0.777061 10.8294 1.4036 11.458 2.02607C11.5494 2.11662 11.5918 2.20759 11.5811 2.33526C11.5704 2.46049 11.5786 2.58735 11.5786 2.72604C12.0317 2.72604 12.4671 2.72767 12.9029 2.72277C12.9404 2.72236 12.982 2.68239 13.0133 2.6522C13.1459 2.52453 13.2716 2.38951 13.4079 2.26592C13.4928 2.18882 13.5179 2.1203 13.4825 2.002C13.3614 1.60022 13.5994 1.18497 14.0043 1.06423C14.3915 0.948789 14.8063 1.1658 14.939 1.55779C15.0382 1.85149 14.9661 2.11254 14.7552 2.332C14.5402 2.55512 14.2721 2.6159 13.9788 2.52127C13.8832 2.49027 13.8326 2.50862 13.7691 2.5747C13.6064 2.74439 13.433 2.90388 13.2699 3.07357C13.1781 3.16943 13.0734 3.20981 12.9412 3.20818C12.5507 3.2041 12.1602 3.20696 11.7694 3.20696C11.7133 3.20696 11.6577 3.20696 11.5782 3.20696C11.5782 3.3897 11.5782 3.56102 11.5782 3.73193C11.5782 3.90284 11.5782 4.06641 11.5782 4.25691C11.7681 4.25691 11.9452 4.25691 12.1224 4.25691C12.1841 4.25691 12.2459 4.25364 12.3073 4.25895C12.4486 4.27118 12.545 4.36623 12.5487 4.49064C12.5524 4.62076 12.4523 4.72763 12.304 4.73375C12.1244 4.74109 11.9444 4.7362 11.7644 4.7362C11.7088 4.7362 11.6528 4.7362 11.5877 4.7362V5.79757C11.6462 5.80042 11.7002 5.80491 11.7541 5.80491C12.2731 5.80532 12.7921 5.80205 13.3111 5.80777C13.4264 5.80899 13.4903 5.78125 13.5467 5.67152C13.7102 5.35417 14.076 5.20651 14.4237 5.29747C14.7503 5.38273 14.9843 5.68417 14.983 6.01784C14.9818 6.37965 14.7334 6.69618 14.3862 6.77817C14.0381 6.86057 13.7045 6.70557 13.5294 6.3874C13.5043 6.34171 13.4495 6.28012 13.4079 6.27971C12.8069 6.27278 12.206 6.27482 11.5918 6.27482V7.33456C11.8213 7.33456 12.0503 7.33578 12.2789 7.33415C12.4222 7.33293 12.5165 7.39615 12.5454 7.53647C12.5738 7.67597 12.4618 7.79916 12.3011 7.80242C12.0705 7.80732 11.8394 7.80365 11.5935 7.80365V8.84381C11.6429 8.84626 11.6969 8.85197 11.7512 8.85197C12.1471 8.85278 12.5429 8.85564 12.9383 8.85034C13.0763 8.8483 13.1838 8.88705 13.2794 8.98902C13.4367 9.15667 13.6089 9.31045 13.7667 9.4781C13.8363 9.55234 13.8927 9.56254 13.9907 9.52827C14.3264 9.4108 14.6856 9.54541 14.8747 9.844C15.0708 10.1536 15.0345 10.5117 14.7816 10.7683C14.5336 11.0196 14.1543 11.0722 13.8466 10.898C13.5624 10.7373 13.4116 10.3922 13.4915 10.0565C13.5183 9.94352 13.4973 9.86684 13.4116 9.78893C13.2489 9.64127 13.12 9.42426 12.9309 9.34676C12.7419 9.26926 12.4964 9.32595 12.2752 9.32514C12.0499 9.32432 11.8241 9.32514 11.5782 9.32514C11.5782 9.40101 11.5782 9.46546 11.5782 9.53032C11.5782 9.86779 11.4055 10.0365 11.0601 10.0365C9.09692 10.0365 7.13379 10.0365 5.17025 10.0365C4.85144 10.0365 4.53303 10.0378 4.21422 10.0361C3.97738 10.0349 3.90076 9.95984 3.89953 9.72448C3.89788 9.34349 3.89911 8.9621 3.89911 8.5803C3.79161 8.53462 3.722 8.56235 3.65115 8.6419C3.24336 9.10079 3.3278 9.03675 2.80469 8.83239C2.53283 8.72592 2.26427 8.61049 1.99118 8.50729C1.84578 8.45222 1.75845 8.36003 1.79511 8.20788C1.87255 7.88523 1.73127 7.67434 1.50266 7.45734C1.31154 7.27623 1.13648 7.18241 0.8708 7.22891C0.647549 7.26807 0.583704 7.21341 0.495145 7.00538C0.346036 6.65417 0.201045 6.30092 0.0453459 5.95257C-0.023442 5.79838 -0.0102609 5.66745 0.133081 5.57893C0.400819 5.41332 0.448187 5.17918 0.446952 4.88182C0.446128 4.60363 0.38599 4.40131 0.152853 4.23529C-0.0308563 4.10435 -0.0304444 4.03582 0.0568791 3.82738C0.203929 3.47536 0.354273 3.12415 0.497204 2.7705C0.554458 2.62855 0.647961 2.54289 0.802013 2.57878C1.12742 2.65465 1.34161 2.51433 1.55827 2.28631C1.72962 2.10602 1.82271 1.94204 1.79305 1.68914C1.75928 1.40524 1.79017 1.38443 2.06367 1.27144C2.39979 1.13275 2.73796 0.998146 3.07242 0.855379C3.22112 0.792153 3.33851 0.810917 3.44108 0.93696C3.50533 1.01609 3.57083 1.09727 3.64909 1.16172C3.70799 1.21026 3.78749 1.23392 3.85792 1.26859C3.87152 1.2535 3.88511 1.23881 3.8987 1.22372H3.89994ZM11.0893 9.5552V2.47803C10.5295 2.47803 9.98004 2.47803 9.43098 2.47803C9.16324 2.47803 9.08045 2.39767 9.08003 2.13253C9.0788 1.63897 9.08004 1.14499 9.07921 0.651426C9.07921 0.59799 9.07303 0.544555 9.06974 0.490711H4.38928V9.5552H11.0889H11.0893ZM3.89088 1.70301C3.56877 1.79764 3.39618 1.61245 3.23966 1.40034C3.19229 1.33589 3.14451 1.32896 3.07201 1.36118C2.89489 1.44032 2.71407 1.51129 2.53489 1.58553C2.2618 1.69852 2.25603 1.69934 2.29434 1.99099C2.31329 2.13661 2.27416 2.24593 2.16665 2.34464C2.03072 2.46865 1.89314 2.59347 1.77534 2.73379C1.5698 2.97853 1.34161 3.14577 0.996431 3.06582C0.960595 3.05766 0.888512 3.08907 0.874508 3.12048C0.754232 3.39215 0.64343 3.66789 0.530568 3.94078C0.612949 4.01216 0.679265 4.0762 0.752584 4.13168C0.88151 4.22876 0.94 4.34909 0.928055 4.51348C0.91611 4.68072 0.928055 4.84919 0.925172 5.01684C0.915286 5.62339 1.00632 5.43045 0.555694 5.84284C0.548692 5.84937 0.544985 5.85957 0.535099 5.87629C0.63272 6.10962 0.739403 6.34579 0.828786 6.58809C0.872448 6.70638 0.925583 6.76186 1.06069 6.73534C1.30618 6.68762 1.51049 6.75166 1.66907 6.95969C1.75475 7.07227 1.86308 7.17099 1.97264 7.26236C2.20537 7.45571 2.37013 7.66945 2.28734 7.99618C2.27786 8.03371 2.31452 8.11121 2.34912 8.12671C2.61892 8.24541 2.89366 8.35351 3.17499 8.46813C3.36034 8.23521 3.52922 7.98068 3.88387 8.0798V7.13346C3.82332 7.11959 3.76936 7.10531 3.71417 7.09552C2.73219 6.92339 1.93434 6.0313 1.88491 5.04906C1.826 3.88082 2.61892 2.90021 3.78419 2.69218C3.82497 2.68484 3.8847 2.6212 3.88593 2.58245C3.89458 2.30304 3.89046 2.02321 3.89046 1.70423L3.89088 1.70301ZM3.88058 3.16127C3.00075 3.28242 2.31123 4.07416 2.37837 5.02581C2.4348 5.82979 3.17087 6.59543 3.88058 6.60073V3.16168V3.16127ZM9.58544 1.9812H10.6634C10.312 1.63244 9.94009 1.26328 9.58544 0.911262V1.9812ZM14.2099 10.5215C14.3775 10.5236 14.4941 10.4138 14.4949 10.2535C14.4957 10.1051 14.3734 9.97208 14.2338 9.96963C14.0719 9.96718 13.9397 10.0957 13.9405 10.2552C13.9409 10.4118 14.0497 10.5191 14.2103 10.5211L14.2099 10.5215ZM13.9397 6.03497C13.938 6.19568 14.0558 6.31398 14.2165 6.31234C14.3586 6.31071 14.4908 6.17814 14.4892 6.03905C14.4875 5.88649 14.3713 5.76453 14.2239 5.76004C14.0719 5.75514 13.9417 5.8816 13.9397 6.03497ZM14.2132 2.05748C14.3779 2.05993 14.49 1.95836 14.4949 1.80254C14.4999 1.65447 14.3804 1.53413 14.2251 1.53128C14.0628 1.52802 13.9442 1.6357 13.9417 1.78744C13.9397 1.93429 14.0612 2.05544 14.2132 2.05748Z" fill="#410EAD"/>
<path d="M8.84967 2.90818C8.92382 2.90818 8.98395 2.90655 9.04409 2.90818C9.21627 2.91308 9.30977 3.00037 9.31059 3.17373C9.31348 3.71787 9.31389 4.26202 9.31059 4.80617C9.30977 4.97096 9.20638 5.07375 9.03997 5.07457C8.17209 5.07783 7.30462 5.07824 6.43674 5.07702C6.28681 5.07702 6.17642 4.97341 6.17518 4.81555C6.17024 4.26651 6.17065 3.71706 6.17766 3.16802C6.17972 2.99262 6.27569 2.91308 6.45034 2.90736C6.50553 2.90573 6.56114 2.90736 6.63899 2.90736C6.60233 2.47417 6.70118 2.09808 7.04348 1.81907C7.24902 1.65142 7.48998 1.56658 7.75401 1.5731C8.0996 1.58167 8.38752 1.72158 8.60706 1.9908C8.82249 2.25512 8.85668 2.57003 8.85009 2.90859L8.84967 2.90818ZM8.7883 3.40583H6.67318V4.57937H8.7883V3.40583ZM7.16252 2.89431H8.33726C8.36404 2.60103 8.33356 2.34038 8.06706 2.1715C7.85287 2.03567 7.63167 2.03812 7.41584 2.1715C7.14151 2.34038 7.1205 2.60062 7.16211 2.89472L7.16252 2.89431Z" fill="#410EAD"/>
<path d="M6.95019 7.49184C6.4938 7.49184 6.037 7.49225 5.58061 7.49184C5.40061 7.49184 5.28569 7.40129 5.27951 7.25771C5.27333 7.11494 5.40226 7.00439 5.58144 7.00439C6.48927 7.00439 7.39752 7.00439 8.30535 7.00562C8.50307 7.00562 8.60728 7.09291 8.60728 7.25077C8.60728 7.41026 8.50636 7.49143 8.30453 7.49143C7.85308 7.49184 7.40164 7.49143 6.95019 7.49143V7.49184Z" fill="#410EAD"/>
<path d="M8.71771 5.79856C9.1082 5.79856 9.49868 5.79856 9.88916 5.79856C10.0082 5.79856 10.1161 5.81936 10.1717 5.94051C10.2364 6.08123 10.1577 6.23787 10.0045 6.2705C9.95466 6.28111 9.90234 6.28192 9.85127 6.28233C9.13744 6.28682 8.4232 6.2909 7.70937 6.29335C7.61711 6.29335 7.52401 6.29253 7.4334 6.27825C7.28717 6.255 7.21344 6.16322 7.21797 6.02861C7.2225 5.90216 7.31024 5.80304 7.45481 5.79652C7.69578 5.78591 7.93757 5.79162 8.17894 5.79121C8.35853 5.79081 8.53853 5.79121 8.71812 5.79121C8.71812 5.79366 8.71812 5.79611 8.71812 5.79896L8.71771 5.79856Z" fill="#410EAD"/>
<path d="M8.92593 8.68758C8.603 8.68758 8.28007 8.68962 7.95672 8.68676C7.77549 8.68554 7.6791 8.60273 7.67539 8.4563C7.67169 8.3017 7.77137 8.20462 7.95507 8.2038C8.60629 8.20095 9.25751 8.20095 9.90873 8.2038C10.0863 8.20462 10.2004 8.31108 10.1958 8.45507C10.1913 8.59539 10.0846 8.68554 9.91038 8.68676C9.58209 8.68921 9.25422 8.68758 8.92593 8.68758Z" fill="#410EAD"/>
<path d="M6.23633 8.68936C6.00526 8.68936 5.77377 8.69303 5.5431 8.68814C5.38328 8.68447 5.2836 8.58983 5.2766 8.45074C5.27042 8.32877 5.38823 8.20273 5.53651 8.20151C6.00402 8.19743 6.47153 8.19865 6.93863 8.2064C7.09433 8.20926 7.19195 8.32347 7.18577 8.46216C7.18001 8.59799 7.0865 8.68406 6.92998 8.6861C6.6989 8.68936 6.46782 8.68691 6.23633 8.68691C6.23633 8.68773 6.23633 8.68855 6.23633 8.68936Z" fill="#410EAD"/>
<path d="M6.02968 5.79143C6.17344 5.79143 6.3176 5.78735 6.46095 5.79265C6.63559 5.79877 6.75463 5.90646 6.75134 6.04474C6.74804 6.17853 6.63601 6.28336 6.46754 6.28826C6.16973 6.29642 5.87151 6.29764 5.57371 6.29438C5.40236 6.29234 5.28167 6.18302 5.27837 6.04515C5.27549 5.90687 5.39412 5.79673 5.56753 5.78939C5.72117 5.78286 5.87563 5.78816 6.02968 5.78816C6.02968 5.78939 6.02968 5.79061 6.02968 5.79184V5.79143Z" fill="#410EAD"/>
<path d="M9.63834 7.49108C9.53577 7.49108 9.4328 7.49435 9.33023 7.49027C9.19224 7.48497 9.0938 7.39074 9.08638 7.26429C9.07856 7.13213 9.17412 7.01424 9.31664 7.00853C9.53206 6.99956 9.74831 6.99997 9.96374 7.00853C10.0972 7.01383 10.1961 7.12886 10.1956 7.25042C10.1956 7.37973 10.0894 7.48211 9.94685 7.49068C9.94191 7.49068 9.93655 7.49068 9.93161 7.49068C9.83399 7.49068 9.73637 7.49068 9.63875 7.49068L9.63834 7.49108Z" fill="#410EAD"/>
</svg>
