<svg width="15" height="15" viewBox="0 0 15 15" fill="none" xmlns="http://www.w3.org/2000/svg">
<path d="M10.5437 14.9995C10.4365 14.9126 10.4118 14.7992 10.4134 14.665C10.4192 14.2413 10.4157 13.8175 10.4157 13.3453C10.3336 13.3934 10.2772 13.4185 10.2303 13.4553C9.89107 13.7229 9.42196 13.7381 9.07219 13.4897C8.73063 13.2471 8.58587 12.8081 8.71655 12.4126C8.85192 12.003 9.23612 11.7342 9.66727 11.7514C9.88363 11.76 10.0746 11.8382 10.244 11.9736C10.2823 12.0041 10.3351 12.0166 10.3813 12.0378C10.3926 11.9877 10.4134 11.9376 10.4138 11.8875C10.4165 11.4971 10.4146 11.1066 10.4157 10.7162C10.4165 10.4838 10.4787 10.4223 10.7123 10.4215C11.1074 10.4208 11.503 10.427 11.8981 10.4192C12.1325 10.4145 12.3289 10.4744 12.431 10.6985C12.5327 10.9216 12.4776 11.1219 12.3152 11.3046C12.1646 11.474 12.1392 11.6731 12.2424 11.8762C12.3422 12.0718 12.5097 12.1708 12.7311 12.1598C12.9463 12.1493 13.1008 12.0393 13.1814 11.841C13.2667 11.6309 13.2225 11.4396 13.0691 11.2733C12.9263 11.1187 12.8954 10.938 12.9576 10.7428C13.0171 10.5561 13.1861 10.4274 13.3884 10.4247C13.8469 10.4188 14.3059 10.4196 14.7648 10.4235C14.926 10.4251 14.9941 10.5119 14.9945 10.6966C14.9952 11.3312 14.9945 11.9658 14.9945 12.6C14.9945 13.1857 14.9855 13.7714 14.998 14.3571C15.0046 14.6759 14.89 14.8935 14.5844 14.9999H10.5429L10.5437 14.9995ZM10.8551 10.868C10.8551 10.9313 10.8551 10.9834 10.8551 11.0358C10.8551 11.348 10.8598 11.6606 10.8535 11.9728C10.8469 12.3136 10.5879 12.5401 10.2643 12.4724C10.1481 12.4482 10.0409 12.3625 9.9388 12.2913C9.71735 12.1368 9.42861 12.1602 9.24708 12.357C9.06632 12.553 9.06202 12.8508 9.23769 13.0507C9.41101 13.2487 9.72792 13.3023 9.92315 13.127C10.1227 12.9482 10.3426 12.9196 10.5871 12.9318C10.7792 12.9412 10.852 13.0085 10.8543 13.2025C10.8574 13.4905 10.8551 13.7784 10.8555 14.0664C10.8555 14.226 10.8555 14.3856 10.8555 14.5593H11.0147C12.1325 14.5593 13.2499 14.5593 14.3677 14.5593C14.5559 14.5593 14.5563 14.559 14.5563 14.3719C14.5563 13.2542 14.5563 12.1368 14.5563 11.019C14.5563 10.9681 14.5563 10.9173 14.5563 10.8711H13.3454C13.3884 10.9415 13.4119 10.9908 13.4451 11.0323C13.6932 11.3433 13.7331 11.7608 13.5453 12.1031C13.2769 12.5926 12.6458 12.7506 12.1806 12.4451C11.7123 12.1375 11.6051 11.5018 11.9455 11.0577C11.985 11.0061 12.0151 10.9478 12.0656 10.8676H10.8551V10.868Z" fill="#410EAD"/>
<path d="M0.000488281 0.385843C0.131946 0.0896713 0.361998 -0.00305377 0.68008 7.61899e-05C1.87572 0.0122048 3.07137 0.00477117 4.2674 0.00516241C4.51545 0.00516241 4.57922 0.0681528 4.57961 0.315419C4.5804 0.6961 4.57844 1.07678 4.58157 1.45746C4.58196 1.51224 4.60309 1.56701 4.61443 1.62139C4.66412 1.59792 4.72085 1.58344 4.76272 1.55019C5.09606 1.28571 5.55968 1.26575 5.90906 1.50519C6.25884 1.74464 6.41064 2.18909 6.27957 2.58972C6.14537 2.99936 5.75961 3.27049 5.33041 3.25327C5.1031 3.24428 4.90474 3.16016 4.73063 3.01344C4.70051 2.98801 4.65473 2.98136 4.616 2.9661C4.60426 3.00601 4.58196 3.04552 4.58196 3.08543C4.57922 3.48567 4.58118 3.88592 4.58001 4.28616C4.57922 4.51934 4.51662 4.58272 4.2854 4.58311C3.88046 4.5839 3.47513 4.5792 3.07019 4.58507C2.84484 4.5882 2.66212 4.51817 2.56549 4.30768C2.46611 4.09171 2.50993 3.89218 2.66995 3.71338C2.82488 3.54045 2.85931 3.34013 2.75368 3.13042C2.65156 2.92815 2.47902 2.82956 2.2521 2.84521C2.03731 2.86007 1.8855 2.97471 1.8096 3.17463C1.72901 3.38669 1.78417 3.57175 1.93324 3.74116C2.13121 3.96612 2.11438 4.30416 1.88785 4.46887C1.79943 4.53303 1.67501 4.5749 1.56547 4.57803C1.13158 4.59016 0.696512 4.59016 0.262622 4.57725C0.174201 4.57451 0.088127 4.49861 0.00087946 4.45635C0.00087946 3.09952 0.00087946 1.74268 0.00087946 0.385452L0.000488281 0.385843ZM2.92387 4.13475H4.14064C4.14064 4.07332 4.14064 4.0209 4.14064 3.96886C4.14064 3.65665 4.13633 3.34443 4.1422 3.03222C4.14846 2.69614 4.39221 2.47587 4.71577 2.53025C4.82766 2.54903 4.93721 2.62415 5.03189 2.69497C5.28894 2.88746 5.6305 2.8409 5.80108 2.57877C5.94154 2.36319 5.90671 2.08424 5.71813 1.91248C5.51782 1.73016 5.22869 1.7282 5.0139 1.91757C4.83862 2.07211 4.64534 2.11671 4.43251 2.02633C4.21145 1.93243 4.1379 1.74503 4.13985 1.51615C4.14259 1.21372 4.14064 0.911285 4.13985 0.608853C4.13985 0.557208 4.13516 0.505955 4.13203 0.44453C4.0753 0.44453 4.03226 0.44453 3.98923 0.44453C2.86714 0.44453 1.74505 0.44453 0.622958 0.44453C0.440247 0.44453 0.439073 0.445704 0.439073 0.63624C0.439073 1.75324 0.439073 2.87064 0.439073 3.98764C0.439073 4.03498 0.439073 4.08232 0.439073 4.13123H1.65115C1.60655 4.06002 1.5819 4.01111 1.54903 3.96886C1.34598 3.70868 1.28338 3.41916 1.37063 3.10147C1.4747 2.72431 1.79787 2.44927 2.17424 2.40819C2.5694 2.36515 2.94069 2.55608 3.13084 2.8992C3.31785 3.23645 3.28146 3.64843 3.04007 3.95712C3.00407 4.0029 2.97551 4.05493 2.92348 4.13397L2.92387 4.13475Z" fill="#410EAD"/>
<path d="M1.96287 14.9996C1.8545 14.9331 1.77899 14.8451 1.82398 14.7109C1.86897 14.5771 1.98283 14.5587 2.1092 14.5591C2.72893 14.5618 3.34866 14.5602 3.96878 14.5602H4.13272V13.3493C4.05564 13.3963 4.00165 13.4244 3.95313 13.4597C3.62292 13.7018 3.26807 13.7425 2.90812 13.552C2.53487 13.3544 2.36312 13.023 2.40694 12.6048C2.44841 12.2049 2.67768 11.9315 3.05836 11.8008C3.38231 11.6897 3.68278 11.7554 3.9547 11.9604C4.00126 11.9956 4.05212 12.0242 4.12841 12.0739V10.8602C4.05016 10.8602 3.96957 10.8602 3.88897 10.8602C3.62527 10.8602 3.36196 10.8567 3.09827 10.8614C2.86626 10.8653 2.6675 10.8035 2.565 10.5793C2.46288 10.3563 2.51609 10.156 2.67885 9.97328C2.82479 9.80935 2.85413 9.61646 2.75984 9.41497C2.66868 9.22052 2.50905 9.11841 2.29543 9.1145C2.0869 9.11097 1.93079 9.21035 1.83181 9.39267C1.72734 9.58477 1.75669 9.81013 1.91592 9.98854C2.04699 10.1353 2.09355 10.2996 2.05051 10.4889C1.99926 10.7155 1.80755 10.8559 1.53642 10.8591C1.20934 10.863 0.882648 10.8598 0.555567 10.8606C0.522311 10.8606 0.489056 10.8653 0.439759 10.8688C0.439759 10.9213 0.439759 10.9686 0.439759 11.0159C0.439759 12.1337 0.439759 13.2511 0.439759 14.3689C0.439759 14.5591 0.440541 14.5598 0.624035 14.5602C0.721455 14.5602 0.819266 14.5626 0.916686 14.5598C1.03993 14.5563 1.153 14.5688 1.20621 14.7042C1.2602 14.8419 1.17452 14.9221 1.08375 15H0.410024C0.212446 14.939 0.0860738 14.8005 0 14.6193V10.5484C0.086465 10.4404 0.200317 10.4169 0.334514 10.4193C0.710109 10.4259 1.0857 10.4232 1.4613 10.4193C1.51412 10.4189 1.56693 10.3927 1.61975 10.3782C1.59667 10.3324 1.58102 10.2812 1.55011 10.2425C1.27898 9.9052 1.25902 9.43806 1.50394 9.08515C1.74534 8.73773 2.19097 8.58905 2.59043 8.72325C2.99967 8.86058 3.26767 9.24596 3.24811 9.67554C3.23794 9.89699 3.15617 10.0914 3.01493 10.2628C2.98754 10.2961 2.98011 10.3465 2.96368 10.3888C3.00437 10.3997 3.04506 10.4197 3.08575 10.4197C3.4856 10.422 3.88584 10.4205 4.28569 10.4216C4.51653 10.422 4.57873 10.485 4.57913 10.719C4.5803 11.1141 4.57443 11.5093 4.58147 11.9045C4.58539 12.1384 4.52435 12.3348 4.30017 12.4366C4.07716 12.5379 3.87841 12.4812 3.69452 12.32C3.4809 12.1326 3.18786 12.1478 2.99263 12.3399C2.80209 12.5273 2.7837 12.8223 2.9492 13.032C3.13348 13.2656 3.46917 13.2977 3.70235 13.0927C3.84476 12.9675 3.99852 12.9107 4.18514 12.9448C4.39524 12.9831 4.56582 13.1498 4.57091 13.3634C4.58186 13.8364 4.58147 14.3098 4.57169 14.7825C4.57013 14.8556 4.49344 14.9276 4.45119 15H1.9617L1.96287 14.9996Z" fill="#410EAD"/>
<path d="M7.50159 3.96288C7.64322 3.96288 7.78485 3.95897 7.92609 3.96366C8.2477 3.97501 8.4621 4.19489 8.4664 4.51532C8.46836 4.66634 8.45701 4.81893 8.47188 4.96838C8.47775 5.02746 8.52548 5.09945 8.57595 5.13388C8.7121 5.22699 8.85569 5.31189 9.00476 5.38193C9.06344 5.40931 9.15499 5.41127 9.21368 5.38506C9.35101 5.32363 9.47581 5.23521 9.60845 5.16322C9.88388 5.01377 10.1816 5.09201 10.3436 5.36041C10.4919 5.6065 10.6362 5.85533 10.7751 6.10729C10.9269 6.38312 10.8467 6.67812 10.5795 6.84283C10.4508 6.92226 10.3205 6.99855 10.1871 7.06936C10.1026 7.11436 10.0732 7.17148 10.0799 7.2689C10.0905 7.42383 10.0905 7.58033 10.0799 7.73526C10.0732 7.83268 10.103 7.8898 10.1875 7.9348C10.3209 8.00561 10.4512 8.0823 10.5799 8.16133C10.8416 8.32252 10.9269 8.61556 10.7814 8.88356C10.6394 9.14452 10.4907 9.40236 10.3358 9.65588C10.1808 9.9098 9.88584 9.9857 9.62175 9.84603C9.48403 9.77325 9.34944 9.69422 9.21642 9.61284C9.14091 9.56668 9.0787 9.5655 9.00163 9.61558C8.86312 9.70557 8.7121 9.77678 8.57595 9.86989C8.52548 9.90432 8.47814 9.97631 8.47227 10.0354C8.4574 10.1852 8.46914 10.3374 8.46679 10.4884C8.46249 10.8026 8.25357 11.0276 7.94018 11.0381C7.64283 11.0479 7.3447 11.0487 7.04775 11.0374C6.74141 11.0256 6.53483 10.8007 6.53013 10.4947C6.52779 10.3386 6.53796 10.1817 6.52505 10.0268C6.52035 9.97161 6.47458 9.90354 6.42685 9.87185C6.28561 9.77717 6.13811 9.69031 5.98513 9.61676C5.93075 9.59054 5.84389 9.58976 5.78873 9.6148C5.65218 9.6774 5.52659 9.76465 5.39435 9.83703C5.11148 9.99118 4.81492 9.91254 4.64903 9.63593C4.50349 9.39375 4.36186 9.14883 4.22453 8.90195C4.06803 8.62065 4.14941 8.32174 4.42367 8.15624C4.55278 8.07799 4.68424 8.00287 4.81687 7.93088C4.89512 7.88824 4.9229 7.83268 4.91742 7.74152C4.90803 7.5815 4.90803 7.42031 4.91742 7.26029C4.9229 7.16874 4.89395 7.11318 4.81609 7.07093C4.68776 7.00129 4.561 6.92812 4.43541 6.8534C4.15098 6.68438 4.06568 6.38547 4.22492 6.09947C4.36225 5.85259 4.50427 5.60807 4.64942 5.36549C4.81531 5.08888 5.11226 5.01103 5.39474 5.16596C5.52307 5.23638 5.64983 5.30915 5.77386 5.38662C5.85367 5.43631 5.91979 5.43787 6.00156 5.38349C6.13498 5.29468 6.27465 5.21408 6.41785 5.1417C6.49883 5.10062 6.53444 5.05093 6.53092 4.96016C6.52583 4.81384 6.52818 4.66751 6.52974 4.52119C6.53326 4.19176 6.74806 3.97188 7.07748 3.9621C7.21872 3.9578 7.36035 3.96132 7.50198 3.96132L7.50159 3.96288ZM6.96833 10.1989C6.96833 10.2866 6.97107 10.3746 6.96755 10.4622C6.96363 10.5632 7.01371 10.6035 7.10918 10.6031C7.36779 10.6023 7.6264 10.6019 7.88501 10.6031C7.99182 10.6039 8.03173 10.5522 8.0286 10.4485C8.0243 10.2975 8.02547 10.1461 8.02821 9.9947C8.03212 9.76465 8.13698 9.59798 8.34199 9.48921C8.49653 9.40705 8.64872 9.3198 8.797 9.22669C8.9938 9.10266 9.1902 9.09718 9.3913 9.20908C9.52315 9.28263 9.65422 9.35775 9.78372 9.436C9.87136 9.48882 9.93513 9.48178 9.98834 9.3867C10.1143 9.16135 10.2434 8.93756 10.3745 8.71494C10.4289 8.6226 10.4085 8.56353 10.3158 8.51384C10.1828 8.44263 10.0529 8.36477 9.923 8.28809C9.71878 8.1672 9.62957 7.98683 9.63935 7.75013C9.64639 7.58502 9.64639 7.41914 9.63935 7.25442C9.62918 7.01772 9.71721 6.83696 9.92144 6.71607C10.047 6.64173 10.1726 6.56622 10.3021 6.49854C10.4054 6.44455 10.4324 6.38195 10.369 6.2767C10.2383 6.05956 10.1124 5.83968 9.98873 5.61863C9.93592 5.52434 9.87332 5.51417 9.7849 5.56738C9.65148 5.64797 9.5165 5.72661 9.37957 5.80095C9.18277 5.90776 8.98989 5.89837 8.79818 5.77787C8.6499 5.68475 8.49809 5.59711 8.34316 5.51534C8.13815 5.40697 8.03251 5.24069 8.02821 5.01024C8.02547 4.85922 8.0243 4.70781 8.02821 4.5564C8.03134 4.4535 7.99378 4.3999 7.8858 4.40069C7.62718 4.40225 7.36857 4.40225 7.10996 4.40069C7.00315 4.3999 6.96324 4.45116 6.96637 4.55484C6.97067 4.70586 6.9695 4.85727 6.96676 5.00868C6.96246 5.23873 6.85761 5.4054 6.65298 5.51456C6.49844 5.59672 6.34664 5.68475 6.19836 5.77747C6.00156 5.90033 5.80516 5.90737 5.60406 5.7943C5.47221 5.72035 5.34075 5.64602 5.21164 5.56777C5.124 5.51495 5.06062 5.52199 5.00741 5.61746C4.88143 5.84281 4.75232 6.0666 4.62086 6.28883C4.56609 6.38156 4.58682 6.43946 4.67994 6.48915C4.81335 6.55996 4.94246 6.6386 5.07275 6.71529C5.28285 6.8397 5.36892 7.02594 5.35523 7.26812C5.34662 7.42305 5.34662 7.57955 5.35523 7.73448C5.36892 7.98292 5.27893 8.17033 5.06062 8.29474C4.93346 8.36712 4.80983 8.44537 4.68072 8.51384C4.58839 8.56314 4.5653 8.62026 4.62047 8.71376C4.75193 8.93599 4.88104 9.15978 5.00702 9.38553C5.05984 9.48021 5.12283 9.4896 5.21086 9.43639C5.33997 9.35814 5.47182 9.2842 5.60328 9.20986C5.81024 9.09249 6.01017 9.10579 6.2101 9.23294C6.35368 9.3241 6.50157 9.4094 6.6522 9.48843C6.8576 9.5968 6.96129 9.76347 6.96755 9.99352C6.9695 10.0616 6.96754 10.1301 6.96833 10.1985V10.1989Z" fill="#410EAD"/>
<path d="M10.8556 0.444293C10.8556 0.822235 10.8548 1.18257 10.8576 1.54291C10.8576 1.57029 10.8854 1.62116 10.8987 1.62076C10.9335 1.61959 10.9738 1.60316 11.0008 1.57968C11.2117 1.39815 11.4538 1.31755 11.7308 1.34376C12.1424 1.38289 12.4707 1.66771 12.5689 2.06874C12.6663 2.46624 12.5028 2.87783 12.1596 3.10045C11.8165 3.32268 11.3768 3.30273 11.0505 3.05076C11.0008 3.01281 10.9464 2.98112 10.8779 2.93574C10.8662 2.99951 10.8568 3.02768 10.8568 3.05546C10.8556 3.41071 10.856 3.76635 10.856 4.13647C10.919 4.13921 10.9707 4.14351 11.0223 4.14351C11.32 4.14429 11.6178 4.14664 11.9151 4.14312C12.1432 4.14038 12.3337 4.20963 12.4323 4.42716C12.5302 4.64391 12.4824 4.84149 12.3247 5.02146C12.151 5.21943 12.1393 5.46709 12.279 5.66819C12.4112 5.85833 12.6561 5.93815 12.8748 5.86225C13.2187 5.74253 13.3306 5.32311 13.101 5.0332C13.0388 4.95456 12.9734 4.86692 12.9488 4.77302C12.8596 4.4342 13.0849 4.15329 13.4464 4.14586C13.7587 4.13921 14.0709 4.14429 14.3831 4.14429C14.4355 4.14429 14.4879 4.14429 14.556 4.14429V3.9874C14.556 2.87001 14.556 1.75261 14.556 0.63522C14.556 0.508457 14.4943 0.444814 14.371 0.444293C14.083 0.444293 13.795 0.445466 13.5075 0.44351C13.3416 0.442336 13.2379 0.351568 13.243 0.216979C13.2477 0.0874775 13.3467 0.00570745 13.5075 0.00531621C13.8295 0.00375123 14.1515 0.00179509 14.4735 0.00570754C14.7732 0.00961998 14.9934 0.225196 14.9942 0.524106C14.9969 1.79291 14.9962 3.06133 14.995 4.33013C14.995 4.5015 14.916 4.58053 14.7434 4.58209C14.3385 4.58483 13.9335 4.58209 13.5286 4.58483C13.4789 4.58483 13.4288 4.60674 13.3792 4.61809C13.3991 4.66386 13.4101 4.71707 13.4402 4.75502C13.7653 5.16348 13.7289 5.73392 13.3533 6.0786C12.9875 6.4139 12.4253 6.41468 12.0614 6.08017C11.6788 5.72844 11.6405 5.17287 11.9672 4.75894C11.9981 4.71981 12.0129 4.66817 12.0348 4.62239C11.9859 4.60948 11.9374 4.58522 11.8885 4.58483C11.4934 4.5817 11.0982 4.58405 10.7027 4.58288C10.4816 4.58209 10.4174 4.51715 10.4167 4.29257C10.4155 3.89233 10.421 3.49209 10.4147 3.09224C10.4112 2.86375 10.4718 2.67243 10.6893 2.5711C10.9116 2.46742 11.1123 2.51789 11.2958 2.68025C11.4707 2.83519 11.6886 2.85944 11.8799 2.75381C12.0724 2.64778 12.1667 2.4815 12.1565 2.26006C12.1471 2.05739 12.0137 1.87586 11.8165 1.80856C11.6084 1.73775 11.4268 1.78822 11.2625 1.93415C11.0677 2.10708 10.7969 2.11765 10.6041 1.96858C10.4804 1.87312 10.4178 1.74518 10.4174 1.58868C10.4163 1.14462 10.4147 0.700558 10.4174 0.256495C10.4186 0.0839564 10.4984 0.0060987 10.6698 0.00531621C11.2457 0.00335999 11.8212 0.00375123 12.3971 0.00531621C12.5571 0.00570745 12.653 0.0906076 12.6538 0.222848C12.6546 0.356263 12.5591 0.442727 12.3999 0.443119C11.9218 0.445075 11.4437 0.443901 10.9652 0.443901C10.9366 0.443901 10.9081 0.443901 10.856 0.443901L10.8556 0.444293Z" fill="#410EAD"/>
<path d="M8.37239 2.10932C8.44516 2.10932 8.51793 2.10736 8.5907 2.10971C8.71707 2.11362 8.79298 2.18522 8.8051 2.30494C8.81762 2.42701 8.75072 2.52325 8.63061 2.53499C8.45807 2.55142 8.28123 2.55103 8.10869 2.53421C7.98779 2.52247 7.92559 2.42701 7.93811 2.30259C7.95023 2.18639 8.02144 2.11871 8.13921 2.11088C8.21667 2.1058 8.29453 2.1101 8.372 2.1101C8.372 2.1101 8.372 2.10971 8.372 2.10932H8.37239Z" fill="#410EAD"/>
<path d="M2.10514 6.62232C2.10514 6.54955 2.1024 6.47678 2.10592 6.40401C2.11179 6.27724 2.18691 6.20408 2.30663 6.19469C2.4287 6.1853 2.52142 6.25494 2.53238 6.37545C2.54764 6.54368 2.54725 6.71544 2.53238 6.88328C2.52142 7.00339 2.43222 7.07147 2.30702 7.06247C2.18339 7.05347 2.11375 6.97914 2.10631 6.85511C2.10162 6.77764 2.10553 6.69979 2.10553 6.62232H2.10514Z" fill="#410EAD"/>
<path d="M12.8909 8.37767C12.8909 8.45044 12.8933 8.52321 12.8909 8.59599C12.8866 8.72275 12.8135 8.79748 12.6941 8.80921C12.5725 8.82095 12.4762 8.75327 12.4653 8.63315C12.4492 8.46022 12.4496 8.28377 12.4672 8.11123C12.4794 7.99034 12.5756 7.92891 12.6996 7.94222C12.8158 7.95474 12.8823 8.02712 12.8902 8.14449C12.8952 8.22196 12.8909 8.29981 12.8913 8.37728L12.8909 8.37767Z" fill="#410EAD"/>
<path d="M6.62454 12.8948C6.54707 12.8948 6.46882 12.8991 6.39175 12.8936C6.26537 12.8846 6.19573 12.8056 6.19026 12.6855C6.18478 12.5704 6.25129 12.4793 6.36514 12.4695C6.53807 12.4546 6.71452 12.4535 6.88706 12.4703C7.00756 12.482 7.07056 12.5771 7.05804 12.7015C7.0463 12.8177 6.97509 12.8858 6.85733 12.8936C6.77986 12.8991 6.702 12.8948 6.62454 12.8948Z" fill="#410EAD"/>
<path d="M12.889 7.08663C12.889 7.12537 12.8937 7.16488 12.8882 7.20283C12.8679 7.34564 12.7262 7.43093 12.5952 7.37576C12.4426 7.31121 12.4512 7.17388 12.4528 7.04047C12.4543 6.92388 12.4915 6.83037 12.612 6.79085C12.7795 6.73647 12.8921 6.8558 12.889 7.08624V7.08663Z" fill="#410EAD"/>
<path d="M7.08288 2.11125C7.12162 2.11125 7.16113 2.10655 7.19908 2.11203C7.3415 2.13198 7.42679 2.2744 7.37123 2.40546C7.30668 2.55766 7.16896 2.54983 7.03554 2.54749C6.91895 2.54553 6.82545 2.50836 6.78632 2.38747C6.73233 2.22001 6.85127 2.10812 7.08249 2.11125H7.08288Z" fill="#410EAD"/>
<path d="M9.66251 2.11174C9.70124 2.11174 9.74076 2.10704 9.77871 2.11252C9.91564 2.13208 9.99546 2.26119 9.95438 2.39343C9.9176 2.51276 9.80649 2.55971 9.59834 2.54797C9.47275 2.54093 9.38238 2.48811 9.35734 2.35861C9.32682 2.20211 9.44341 2.10821 9.66251 2.11174Z" fill="#410EAD"/>
<path d="M2.10685 5.33883C2.10685 5.3001 2.10216 5.26059 2.10764 5.22263C2.12798 5.08022 2.26961 4.99532 2.40107 5.05088C2.55365 5.11543 2.54466 5.25354 2.5427 5.38617C2.54113 5.50277 2.50358 5.59627 2.38268 5.63501C2.21405 5.68861 2.10333 5.57045 2.10685 5.33883Z" fill="#410EAD"/>
<path d="M2.0542 7.91064C2.11758 7.80657 2.15201 7.70054 2.22478 7.64342C2.31242 7.57495 2.42119 7.60782 2.49396 7.70054C2.56908 7.79562 2.56516 8.05423 2.48731 8.14343C2.41062 8.23146 2.30225 8.26433 2.21657 8.18999C2.14614 8.12857 2.11562 8.02136 2.0542 7.91064Z" fill="#410EAD"/>
<path d="M12.8923 9.69106C12.8915 9.70436 12.8943 9.74896 12.8868 9.79161C12.8622 9.93128 12.7139 10.0095 12.5856 9.94967C12.4502 9.88629 12.4521 9.76187 12.4521 9.63746C12.4521 9.52282 12.4772 9.42384 12.5942 9.37532C12.764 9.30529 12.8915 9.42853 12.8919 9.69106H12.8923Z" fill="#410EAD"/>
<path d="M5.33529 12.893C5.29655 12.893 5.25704 12.8977 5.21909 12.8922C5.07667 12.8723 4.9906 12.7307 5.04655 12.5992C5.11423 12.4396 5.25978 12.4544 5.39593 12.4572C5.51408 12.4599 5.60329 12.5076 5.63498 12.6297C5.67723 12.7925 5.56025 12.8958 5.33568 12.8926L5.33529 12.893Z" fill="#410EAD"/>
<path d="M7.88498 12.8963C7.87246 12.8959 7.82786 12.8986 7.78522 12.8908C7.64593 12.8657 7.56807 12.7163 7.62872 12.5887C7.69288 12.4538 7.8173 12.4557 7.94171 12.4561C8.05635 12.4565 8.15494 12.4823 8.20306 12.5997C8.27271 12.7703 8.15064 12.8959 7.88498 12.8963Z" fill="#410EAD"/>
<path d="M7.49585 5.80371C8.43327 5.80293 9.19855 6.56938 9.19659 7.50719C9.19464 8.43679 8.43054 9.19971 7.50055 9.20089C6.56391 9.20206 5.79824 8.43444 5.79981 7.49741C5.80137 6.5682 6.56586 5.80489 7.49585 5.8041V5.80371ZM8.75722 7.49858C8.75566 6.80764 8.18992 6.24347 7.4982 6.24308C6.80726 6.24308 6.24074 6.80764 6.23917 7.49819C6.23761 8.195 6.80844 8.76465 7.50524 8.76113C8.1954 8.75761 8.75879 8.18952 8.75722 7.49819V7.49858Z" fill="#410EAD"/>
<path d="M6.70752 7.49016C6.71261 7.05588 7.07294 6.7065 7.51035 6.71198C7.94424 6.71706 8.29402 7.07779 8.28893 7.51442C8.28345 7.94831 7.92233 8.29847 7.4861 8.293C7.05221 8.28752 6.70243 7.92679 6.70791 7.49016H6.70752ZM7.84878 7.50229C7.84878 7.3098 7.6872 7.14978 7.49431 7.15174C7.3073 7.15369 7.15119 7.30784 7.14728 7.49486C7.14337 7.68774 7.30143 7.85089 7.49431 7.85285C7.6868 7.8548 7.84839 7.69517 7.84878 7.50229Z" fill="#410EAD"/>
</svg>
