<svg width="15" height="11" viewBox="0 0 15 11" fill="none" xmlns="http://www.w3.org/2000/svg">
<path d="M0.000782898 1.43097C0.154227 0.950414 0.522181 0.714491 0.92967 0.53164C1.57437 0.242645 2.25626 0.115354 2.94872 0.0510871C4.10425 -0.0558868 5.25077 -0.00654625 6.37812 0.311058C6.76134 0.418861 7.13164 0.562323 7.46006 0.806538C7.76382 1.03251 7.93918 1.32316 7.9157 1.73572C7.89965 2.01393 7.91687 2.29464 7.91022 2.57368C7.90787 2.66821 7.94114 2.70636 8.02138 2.73704C8.32123 2.85189 8.60424 2.99909 8.84928 3.22257C8.87903 3.24994 8.96632 3.23957 9.0086 3.21345C9.67287 2.79799 10.3896 2.59773 11.1599 2.61473C13.1254 2.65785 14.7949 4.30019 14.9812 6.37332C15.1851 8.6405 13.7098 10.6419 11.5929 10.9529C10.5896 11.1001 9.66269 10.8633 8.82266 10.2617C8.73968 10.2024 8.68448 10.1937 8.59406 10.2542C8.11494 10.5735 7.5771 10.7273 7.02752 10.8273C5.63086 11.081 4.23812 11.0661 2.85595 10.7099C2.47116 10.6108 2.09851 10.4711 1.7607 10.2439C1.40527 10.005 1.19507 9.68868 1.22951 9.21684C1.24869 8.95438 1.22951 8.68943 1.23499 8.42531C1.23695 8.3341 1.20994 8.29097 1.12735 8.25822C0.968031 8.19437 0.810672 8.12222 0.660359 8.03805C0.354253 7.86681 0.10608 7.63462 0.000391523 7.26767V5.68421C0.0775052 5.42341 0.225078 5.2161 0.438021 5.06683C0.575416 4.97022 0.715161 4.85413 0.869388 4.81391C1.19193 4.73016 1.28353 4.53404 1.23812 4.20731C1.22286 4.09702 1.20524 4.04229 1.09955 4C0.634524 3.813 0.194546 3.58578 0 3.04553V1.43097H0.000782898ZM14.4981 6.81034C14.5009 4.79525 12.959 3.16038 11.0515 3.15623C9.15147 3.15167 7.60763 4.78737 7.6045 6.80868C7.60137 8.81672 9.14677 10.4508 11.0574 10.4591C12.9383 10.4674 14.4958 8.81589 14.4981 6.81034ZM3.9508 2.63048C4.34028 2.6027 4.73094 2.58695 5.11886 2.54424C5.70289 2.48039 6.2783 2.36512 6.8181 2.10847C6.97193 2.03508 7.12146 1.9393 7.25299 1.82776C7.45615 1.65487 7.45262 1.49233 7.24673 1.3186C7.12577 1.21702 6.99268 1.11419 6.84863 1.06361C6.44741 0.922634 6.04383 0.775441 5.63008 0.691272C4.71842 0.505933 3.7954 0.496811 2.87317 0.598395C2.25078 0.666808 1.63504 0.780831 1.06158 1.06278C0.904617 1.1399 0.755087 1.24563 0.621998 1.36338C0.468945 1.49897 0.476382 1.6387 0.615735 1.78879C0.656444 1.83274 0.699503 1.88042 0.750782 1.90654C0.995823 2.03093 1.23617 2.17564 1.49295 2.26395C2.28992 2.53678 3.11625 2.60892 3.95041 2.6309L3.9508 2.63048ZM2.22729 4.32341L2.21751 4.35284C2.36978 4.41462 2.5197 4.48345 2.67432 4.53694C3.35699 4.77286 4.06236 4.86325 4.77635 4.89186C5.7021 4.92876 6.61768 4.85413 7.51721 4.60121C7.66243 4.56057 7.75795 4.48138 7.84954 4.35575C8.01904 4.12397 8.21476 3.91293 8.40265 3.69649C8.42692 3.6683 8.47076 3.65917 8.5056 3.64134C8.49777 3.61854 8.48994 3.59615 8.48211 3.57335C8.26956 3.45684 8.05661 3.33991 7.84093 3.22174C7.58963 3.64466 7.21698 3.84783 6.81849 3.99792C5.61951 4.45028 4.37708 4.50999 3.12212 4.4254C2.82306 4.40509 2.52557 4.35782 2.22729 4.32299V4.32341ZM2.2316 8.59987C3.98564 9.29893 5.76669 9.27903 7.57827 8.84616C7.46123 8.55468 7.35907 8.3001 7.26199 8.05837C5.63438 8.8047 3.94376 8.79848 2.2316 8.60029V8.59987ZM1.22247 5.19951C1.01344 5.338 0.818109 5.44497 0.647833 5.58636C0.45955 5.74309 0.466596 5.89567 0.643919 6.06401C0.715943 6.13243 0.795014 6.19918 0.881914 6.24189C1.08899 6.34347 1.29684 6.45003 1.51448 6.5201C2.46333 6.82734 3.43919 6.88953 4.42405 6.85097C4.57006 6.84517 4.71646 6.83314 4.86207 6.81863C5.00182 6.80454 5.14078 6.78339 5.27974 6.76556C4.70237 6.72617 4.12812 6.68844 3.55858 6.61049C2.98669 6.53254 2.42888 6.38037 1.91492 6.0893C1.58807 5.90438 1.30976 5.66887 1.22325 5.1991L1.22247 5.19951ZM6.68031 10.3508C6.90735 10.3015 7.11755 10.2588 7.3258 10.207C7.35711 10.1991 7.40017 10.1489 7.40095 10.1174C7.40761 9.89683 7.40448 9.67583 7.40448 9.44613C7.17313 9.48883 6.95784 9.52656 6.74372 9.57176C6.71828 9.57715 6.68384 9.62525 6.68305 9.65385C6.67796 9.88024 6.68031 10.107 6.68031 10.3508ZM1.74308 7.15697C1.74308 7.39579 1.74112 7.6172 1.74543 7.8382C1.74582 7.86474 1.77714 7.90786 1.80023 7.91325C2.01591 7.96549 2.23277 8.0111 2.45981 8.06086V7.29753C2.22729 7.25192 1.99869 7.20672 1.74269 7.15655L1.74308 7.15697ZM2.45746 3.81424V3.04801C2.21829 3.0024 1.98734 2.95887 1.7423 2.91201C1.7423 3.14835 1.73995 3.35981 1.74465 3.57086C1.74543 3.60278 1.77283 3.65669 1.79632 3.66249C2.012 3.71722 2.22964 3.76324 2.45746 3.81424ZM2.98708 3.87727C3.22507 3.89178 3.45485 3.90588 3.69128 3.92039V3.1525C3.45367 3.13923 3.2239 3.12679 2.98708 3.11352V3.87727ZM4.92784 3.11228C4.68319 3.12638 4.45341 3.13965 4.22285 3.15333V3.92163C4.46359 3.90588 4.69336 3.89095 4.92784 3.87561V3.11228ZM3.68619 8.16907V7.40077C3.44663 7.38709 3.22077 7.37465 2.97847 7.36097C2.97847 7.59606 2.97494 7.81623 2.98238 8.03598C2.98355 8.06873 3.03405 8.12388 3.06536 8.1272C3.26774 8.14751 3.47168 8.15581 3.68619 8.16907ZM4.92314 8.12346V7.36055C4.68162 7.37548 4.45145 7.38957 4.22481 7.40326V8.1699C4.46476 8.15373 4.69141 8.13881 4.92314 8.12346ZM5.45824 5.44249V6.20913C5.69741 6.19379 5.92483 6.17886 6.15813 6.16394V5.40102C5.91896 5.41512 5.69193 5.4288 5.45824 5.44249ZM4.92236 6.20789V5.44207C4.68436 5.42797 4.45772 5.41471 4.22324 5.40102V6.16601C4.45889 6.18011 4.68553 6.19379 4.92236 6.2083V6.20789ZM5.45354 10.4545C5.69662 10.44 5.92679 10.4263 6.155 10.413V9.64805C5.91309 9.66298 5.68645 9.67707 5.45354 9.69117V10.4545ZM4.22246 9.64929V10.4147C4.46124 10.4275 4.6918 10.44 4.92196 10.4528V9.68993C4.68397 9.67624 4.45772 9.66298 4.22246 9.64971V9.64929ZM2.97925 9.44654C2.97925 9.67707 2.97768 9.90304 2.98121 10.129C2.98121 10.1526 3.00665 10.192 3.02622 10.197C3.24543 10.2505 3.46542 10.2982 3.69911 10.3504C3.69911 10.1 3.70263 9.88314 3.69558 9.66671C3.69441 9.63229 3.64939 9.57756 3.6169 9.5701C3.41218 9.52408 3.2055 9.48883 2.97964 9.44654H2.97925ZM2.97847 5.19661C2.97847 5.42963 2.97612 5.64565 2.98081 5.86167C2.9816 5.89401 3.01096 5.9475 3.03562 5.95372C3.25052 6.00679 3.46698 6.05157 3.69284 6.10091V5.33758C3.45955 5.29156 3.23094 5.24637 2.97847 5.19661ZM5.45471 3.81424C5.6794 3.76407 5.89234 3.71805 6.10411 3.66664C6.12877 3.66042 6.164 3.62227 6.16439 3.59822C6.16909 3.3735 6.16713 3.14877 6.16713 2.9087C5.91387 2.95928 5.68292 3.00489 5.45471 3.0505V3.81424ZM6.16713 7.16029C5.91857 7.20838 5.68762 7.25316 5.45706 7.29794V8.05961C5.6794 8.01069 5.88843 7.96715 6.09589 7.91657C6.12368 7.90952 6.16322 7.86557 6.164 7.83779C6.16948 7.61803 6.16713 7.39787 6.16713 7.1607V7.16029ZM1.23264 7.71547C1.23264 7.49323 1.23421 7.28177 1.23069 7.07073C1.2303 7.04087 1.21307 6.99526 1.19154 6.9849C0.968422 6.8771 0.742561 6.77468 0.516701 6.67061C0.457593 7.27016 0.623172 7.51769 1.23225 7.71547H1.23264ZM1.75756 8.96101C1.66871 9.51869 1.92393 9.89392 2.46568 9.99053C2.46568 9.78239 2.4692 9.5759 2.46255 9.36942C2.46137 9.33045 2.42614 9.27447 2.39248 9.25789C2.1858 9.15506 1.97481 9.06135 1.75796 8.96101H1.75756ZM0.514743 2.42151C0.470511 3.02645 0.708506 3.36893 1.23264 3.45518C1.23264 3.24247 1.23499 3.03101 1.2303 2.81997C1.22951 2.78887 1.20211 2.74326 1.17589 2.73041C0.960593 2.62551 0.742561 2.52724 0.515135 2.42193L0.514743 2.42151ZM7.40369 2.41819C7.16844 2.52683 6.95119 2.62592 6.7359 2.72916C6.71163 2.74077 6.68266 2.77809 6.68227 2.80421C6.67796 3.02272 6.67992 3.24123 6.67992 3.46015C6.69284 3.47135 6.70576 3.48254 6.71867 3.49374C6.905 3.3681 7.09915 3.25325 7.27295 3.11104C7.34028 3.05589 7.38373 2.94145 7.39821 2.84733C7.41896 2.71216 7.40369 2.57078 7.40369 2.41861V2.41819ZM1.75874 4.71357C1.6597 5.25549 1.91375 5.63363 2.46529 5.74226C2.46529 5.52914 2.46764 5.3181 2.46294 5.10747C2.46216 5.07554 2.43515 5.02786 2.40853 5.015C2.19324 4.91052 1.97521 4.81267 1.75874 4.71357ZM6.67953 6.09677C6.83376 6.06733 6.97193 6.04245 7.10894 6.0126C7.1336 6.00721 7.16726 5.98316 7.17353 5.96035C7.24281 5.71116 7.3074 5.46073 7.37512 5.20449C7.16648 5.24305 6.96528 5.27705 6.76604 5.32141C6.73237 5.32888 6.68462 5.38236 6.68344 5.41595C6.67601 5.63695 6.67953 5.85877 6.67953 6.09718V6.09677ZM6.68579 6.99817V7.73745C6.83454 7.65577 6.96763 7.58569 7.09641 7.50899C7.11872 7.49572 7.1379 7.45094 7.13595 7.42274C7.12146 7.22953 7.10111 7.03673 7.08154 6.8319C6.94767 6.88829 6.81849 6.94261 6.68579 6.99817ZM8.30048 9.82427C8.16622 9.66712 8.05035 9.53154 7.92078 9.38062V10.0167C8.0527 9.9499 8.16857 9.89144 8.30048 9.82468V9.82427Z" fill="#410EAD"/>
<path d="M11.0413 9.68863C9.54365 9.68531 8.32431 8.38753 8.32666 6.79992C8.32901 5.21356 9.55344 3.91868 11.0503 3.91992C12.5526 3.92117 13.7786 5.22641 13.7724 6.81817C13.7661 8.40536 12.5421 9.69195 11.0409 9.68863H11.0413ZM13.2635 6.79744C13.2572 5.49717 12.2618 4.45355 11.0362 4.46308C9.81296 4.47262 8.83436 5.51873 8.83867 6.81153C8.84297 8.1031 9.83331 9.15086 11.0491 9.15086C12.2696 9.15086 13.2702 8.08776 13.2639 6.79744H13.2635Z" fill="#410EAD"/>
<path d="M12.3075 6.81602C12.3075 7.00219 12.3059 7.18836 12.3079 7.37453C12.3095 7.50638 12.257 7.60133 12.1494 7.66642C11.8448 7.85176 11.5407 8.03751 11.2373 8.22493C11.125 8.29458 11.0185 8.29085 10.9065 8.22119C10.6079 8.03544 10.308 7.85218 10.007 7.67098C9.89311 7.60257 9.84222 7.50638 9.84379 7.36748C9.84731 7.00012 9.84731 6.63317 9.84379 6.26581C9.84261 6.12691 9.89272 6.03113 10.007 5.96272C10.3084 5.78194 10.6079 5.59826 10.9062 5.41209C11.0181 5.34202 11.1238 5.33788 11.2365 5.40795C11.5352 5.59329 11.835 5.77738 12.1361 5.95816C12.2547 6.02906 12.3114 6.12857 12.3079 6.27328C12.304 6.45405 12.3067 6.63524 12.3067 6.81644L12.3075 6.81602ZM11.7791 6.81436C11.8969 6.464 11.7286 6.27452 11.4428 6.15635C11.4381 6.15469 11.4334 6.15262 11.4299 6.1493C11.1911 5.91918 10.9774 5.97516 10.7096 6.13977C10.4384 6.30645 10.3358 6.47852 10.3347 6.8181C10.3331 7.16099 10.4462 7.32436 10.7112 7.49601C10.9887 7.67555 11.1833 7.65813 11.4514 7.48606C11.7117 7.31896 11.893 7.16265 11.7791 6.81478V6.81436Z" fill="#410EAD"/>
</svg>
