<svg width="15" height="15" viewBox="0 0 15 15" fill="none" xmlns="http://www.w3.org/2000/svg">
<path d="M3.37949 4.2142C3.448 4.46799 3.51859 4.69675 3.56831 4.93009C3.58961 5.03111 3.58878 5.14757 3.5612 5.24692C3.48058 5.53745 3.37698 5.8213 3.29218 6.11058C3.27171 6.17987 3.27129 6.26544 3.29176 6.33515C3.37656 6.62443 3.48058 6.90828 3.55995 7.19923C3.58794 7.30234 3.59003 7.42548 3.56246 7.52816C3.4835 7.81911 3.37823 8.10255 3.29427 8.39224C3.27296 8.46613 3.27422 8.55671 3.29552 8.63143C3.36779 8.88648 3.44424 9.14111 3.53781 9.38906C3.6059 9.56981 3.61551 9.73845 3.53614 9.91544C3.50272 9.98974 3.48685 10.072 3.46262 10.1505C3.4739 10.1592 3.48476 10.168 3.49604 10.1767C3.61217 10.0515 3.72454 9.92337 3.84443 9.80231C4.22959 9.41369 4.61726 9.02799 5.00492 8.64145C5.18664 8.45986 5.29651 8.46028 5.48073 8.64395C6.80247 9.96052 8.12379 11.2771 9.44427 12.5945C9.48396 12.6337 9.51028 12.6863 9.54328 12.7327L9.58464 12.6984C9.53033 12.4935 9.46892 12.2902 9.42589 12.0827C9.40668 11.9905 9.40584 11.8853 9.43091 11.7951C9.51028 11.5096 9.61262 11.2308 9.69116 10.9448C9.71664 10.8521 9.71873 10.7407 9.69241 10.6489C9.61012 10.3592 9.50986 10.0741 9.41503 9.7877C9.33817 9.55478 9.44762 9.35859 9.55456 9.17242C9.6143 9.06889 9.74171 9.06221 9.8499 9.11731C9.9581 9.17242 10.0299 9.28178 9.97857 9.38823C9.86661 9.61948 9.93596 9.82986 10.0283 10.0298C10.2626 10.5366 10.2814 11.035 10.0262 11.5376C9.88583 11.8139 9.90128 12.0911 10.002 12.3787C10.0826 12.6087 10.1352 12.8487 10.1958 13.0858C10.2564 13.3233 10.1026 13.4794 9.86494 13.416C9.60886 13.3475 9.35697 13.2632 9.10047 13.1948C9.04157 13.1789 8.96638 13.1835 8.90956 13.206C8.72074 13.2803 8.53443 13.3617 8.3523 13.4506C8.22071 13.5149 8.1004 13.5229 7.96588 13.4552C7.7896 13.3663 7.60746 13.2874 7.42282 13.2173C7.36392 13.1948 7.28162 13.1956 7.22272 13.2186C7.02889 13.2937 6.84508 13.3964 6.64874 13.4623C6.55517 13.4936 6.43319 13.4924 6.33961 13.4607C6.14327 13.3943 5.95905 13.2924 5.76522 13.2177C5.70631 13.1952 5.62402 13.1948 5.56512 13.2177C5.37588 13.2903 5.19082 13.3751 5.00785 13.4619C4.89631 13.5149 4.79062 13.5283 4.68034 13.4648C4.66697 13.4569 4.65151 13.4531 4.63731 13.4469C4.41716 13.3542 4.20077 13.1989 3.97644 13.186C3.75128 13.1731 3.51818 13.302 3.28842 13.3688C3.22868 13.3864 3.16936 13.4068 3.10837 13.4202C2.87736 13.4703 2.73366 13.32 2.79381 13.0866C2.88154 12.7439 2.97804 12.4037 3.06242 12.0602C3.07997 11.9892 3.07829 11.9045 3.05783 11.8344C2.97219 11.5451 2.86566 11.2621 2.78838 10.9707C2.75872 10.8584 2.76165 10.7244 2.79172 10.6117C2.86775 10.3258 2.97219 10.0469 3.0549 9.76266C3.07495 9.69337 3.07453 9.60821 3.05407 9.53892C2.9655 9.23962 2.86023 8.94575 2.7746 8.64562C2.75037 8.56172 2.7512 8.45903 2.77543 8.37513C2.86065 8.08042 2.96676 7.79198 3.05281 7.49769C3.07579 7.41921 3.07704 7.32279 3.05448 7.24431C2.97302 6.95963 2.86817 6.6812 2.79172 6.39485C2.7629 6.28715 2.76499 6.159 2.79381 6.05088C2.87068 5.76495 2.97469 5.48652 3.05699 5.20142C3.07997 5.12169 3.08373 5.0261 3.06409 4.94595C2.9843 4.61743 2.88989 4.29268 2.80509 3.96541C2.73032 3.67739 2.88404 3.53003 3.17145 3.6131C3.39118 3.67655 3.61217 3.73791 3.82856 3.81221C3.94636 3.85271 4.05289 3.85354 4.1544 3.78633C4.59804 3.49413 5.04001 3.48328 5.48366 3.7855C5.59812 3.86356 5.71216 3.85479 5.83247 3.78717C5.9273 3.73374 6.03006 3.69367 6.13199 3.65443C6.27444 3.59974 6.40185 3.64858 6.46159 3.77381C6.52175 3.89946 6.47997 4.03679 6.34295 4.10233C6.1462 4.19667 5.94526 4.28516 5.74015 4.35863C5.67582 4.38159 5.58475 4.36572 5.51708 4.33943C5.31865 4.26178 5.12816 4.16411 4.92973 4.08647C4.87041 4.06351 4.79522 4.07937 4.72754 4.08187C4.70833 4.08229 4.68827 4.09565 4.67031 4.10608C4.28682 4.32732 3.89415 4.45171 3.46638 4.22589C3.45009 4.21712 3.42753 4.22004 3.38032 4.21378L3.37949 4.2142ZM5.23134 9.129C5.19541 9.16323 5.15698 9.19746 5.12106 9.23378C4.6511 9.70672 4.18155 10.1797 3.71243 10.6535C3.58794 10.7791 3.39703 10.8918 3.3632 11.0392C3.3281 11.1932 3.4292 11.3894 3.50105 11.5538C3.61468 11.8127 3.61217 12.0614 3.51901 12.3232C3.46262 12.481 3.43003 12.6475 3.38158 12.8283C3.46262 12.8057 3.51567 12.7986 3.56162 12.7765C3.88328 12.6237 4.19158 12.6458 4.49277 12.8341C4.56713 12.8804 4.65068 12.9176 4.73506 12.9397C4.79856 12.9564 4.87793 12.9606 4.93725 12.9376C5.13108 12.8629 5.31531 12.7619 5.51123 12.6943C5.60021 12.6638 5.71676 12.6625 5.80574 12.693C6.00208 12.7598 6.18546 12.8629 6.38013 12.9347C6.44822 12.9597 6.5418 12.9581 6.61073 12.933C6.78618 12.8692 6.95787 12.7924 7.12413 12.7068C7.26282 12.6358 7.38856 12.6417 7.52516 12.708C7.69811 12.7919 7.87523 12.8675 8.05236 12.943C8.09371 12.9606 8.14927 12.9856 8.18353 12.9714C8.39282 12.8863 8.59793 12.7907 8.8068 12.6976C7.61038 11.5038 6.42775 10.3233 5.23092 9.129H5.23134Z" fill="#410EAD"/>
<path d="M6.99166 4.5025C6.99166 3.93981 6.99041 3.37712 6.99208 2.81484C6.99375 2.30725 7.21641 1.92321 7.65963 1.67693C8.56906 1.17101 9.48057 0.668421 10.3938 0.168759C10.7873 -0.0466342 11.195 -0.0608269 11.5898 0.154984C12.5255 0.667169 13.4583 1.1852 14.3857 1.71283C14.7876 1.94158 14.9927 2.30933 14.9952 2.77143C15.001 3.9277 15.0019 5.0844 14.9952 6.24067C14.9923 6.71529 14.7721 7.08054 14.3623 7.31973C13.9939 7.5347 13.6179 7.73716 13.244 7.94295C13.0757 8.0352 12.9232 8.00389 12.8518 7.86948C12.7803 7.73465 12.8388 7.59815 13.0101 7.50256C13.3556 7.31013 13.6998 7.11477 14.0482 6.92776C14.354 6.76371 14.4993 6.51534 14.4981 6.16804C14.4947 5.06353 14.4947 3.95943 14.4981 2.85491C14.4989 2.52097 14.3615 2.27636 14.0695 2.11439C13.1726 1.61765 12.2761 1.12008 11.3805 0.621669C11.1119 0.472229 10.8483 0.474317 10.5788 0.625008C9.6932 1.12008 8.80508 1.61181 7.9178 2.10396C7.63206 2.26258 7.49086 2.50218 7.4917 2.83028C7.49337 3.95024 7.49337 5.07021 7.4917 6.19017C7.49128 6.51743 7.62747 6.7587 7.91446 6.91774C8.80216 7.40948 9.68944 7.90204 10.5763 8.39586C10.8399 8.54238 11.1006 8.54488 11.3642 8.39795C11.5689 8.28399 11.7736 8.17045 11.9799 8.05941C12.1441 7.97092 12.2853 7.99972 12.3613 8.13163C12.4378 8.26395 12.3906 8.40629 12.2322 8.49646C12.0062 8.62503 11.7807 8.75568 11.548 8.87214C11.1637 9.06458 10.771 9.06625 10.3938 8.85921C9.47222 8.3537 8.55277 7.84318 7.63749 7.32641C7.20722 7.08346 6.995 6.70152 6.99292 6.20686C6.99083 5.63916 6.9925 5.07104 6.9925 4.50334L6.99166 4.5025Z" fill="#410EAD"/>
<path d="M1.73807 8.50308C1.73807 6.70062 1.73807 4.89775 1.73807 3.09529C1.73807 2.5543 2.03759 2.25709 2.58149 2.25668C3.76955 2.25668 4.95803 2.25668 6.14609 2.25668C6.1983 2.25668 6.25177 2.25125 6.3019 2.26252C6.42848 2.29091 6.50326 2.37314 6.50409 2.50463C6.50493 2.63612 6.4314 2.7196 6.30525 2.74966C6.25553 2.76135 6.20165 2.75634 6.14943 2.75634C4.96137 2.75634 3.77289 2.75634 2.58483 2.75634C2.31664 2.75634 2.2381 2.83315 2.2381 3.09738C2.2381 6.70271 2.2381 10.3076 2.2381 13.913C2.2381 14.1864 2.31455 14.2603 2.59402 14.2603C3.03683 14.2603 3.48005 14.2598 3.92286 14.2603C4.12171 14.2603 4.23575 14.3513 4.23784 14.5065C4.23993 14.6622 4.12421 14.7591 3.92954 14.7595C3.46042 14.7608 2.99129 14.7616 2.52259 14.7595C2.05555 14.7574 1.73848 14.4402 1.73848 13.9722C1.73723 12.1489 1.73807 10.3252 1.73807 8.50183V8.50308Z" fill="#410EAD"/>
<path d="M7.77452 14.7618C6.88891 14.7618 6.00329 14.7618 5.11768 14.7618C5.07089 14.7618 5.02369 14.7643 4.97732 14.7597C4.83863 14.7455 4.74296 14.6441 4.74171 14.5138C4.74046 14.3836 4.83529 14.2788 4.97272 14.2642C5.02411 14.2588 5.07674 14.2617 5.12896 14.2617C6.8793 14.2617 8.62964 14.2617 10.38 14.2617C10.6749 14.2617 10.7443 14.1912 10.7443 13.891C10.7443 12.5578 10.7443 11.2245 10.7443 9.89165C10.7443 9.83948 10.7397 9.78646 10.7472 9.73554C10.7681 9.59987 10.8495 9.52098 10.9874 9.51221C11.1165 9.50386 11.2247 9.60238 11.2418 9.73804C11.2468 9.77895 11.2443 9.82111 11.2443 9.86285C11.2443 11.217 11.2443 12.5707 11.2443 13.9249C11.2443 14.4638 10.9431 14.7618 10.3996 14.7618C9.52445 14.7618 8.64928 14.7618 7.7741 14.7618H7.77452Z" fill="#410EAD"/>
<path d="M8.49301 4.2689C8.49301 4.68925 8.49384 5.0641 8.49301 5.43853C8.49259 5.63807 8.40403 5.75244 8.24988 5.75661C8.08988 5.76121 7.99338 5.64266 7.99338 5.43645C7.99255 4.81698 7.99464 4.19752 7.99171 3.57805C7.99088 3.43488 8.0243 3.31591 8.17343 3.26999C8.31714 3.22575 8.40737 3.3084 8.48716 3.41568C8.81049 3.84938 9.13633 4.28142 9.4818 4.74143C9.48723 4.6688 9.49308 4.62622 9.49308 4.58364C9.49392 4.2401 9.49225 3.89655 9.49392 3.55301C9.49475 3.36976 9.59292 3.25789 9.74456 3.25872C9.89578 3.25956 9.9927 3.37143 9.99312 3.55551C9.99437 4.19084 9.99312 4.82575 9.99437 5.46108C9.99437 5.59423 9.95218 5.69859 9.81976 5.74326C9.68524 5.78876 9.59167 5.72322 9.51313 5.61803C9.2111 5.21354 8.90741 4.8103 8.60371 4.40707C8.57697 4.37117 8.54731 4.33736 8.49217 4.26973L8.49301 4.2689Z" fill="#410EAD"/>
<path d="M6.2413 6.76021C6.24046 7.31288 5.7893 7.76078 5.23537 7.75911C4.69022 7.75744 4.2424 7.30996 4.24073 6.76521C4.23906 6.21087 4.68562 5.76046 5.23871 5.75879C5.79097 5.75712 6.24213 6.20753 6.2413 6.76021ZM5.21783 7.25778C5.4902 7.26989 5.72455 7.05783 5.74001 6.78567C5.75504 6.51559 5.54074 6.27515 5.27172 6.26013C4.99266 6.24426 4.75204 6.46174 4.7416 6.73975C4.73116 7.01191 4.94629 7.24567 5.21783 7.25778Z" fill="#410EAD"/>
<path d="M11.004 4.25793C11.233 4.25793 11.4556 4.2571 11.6783 4.25793C11.8775 4.25876 11.9912 4.34809 11.9941 4.50338C11.997 4.66325 11.8792 4.75717 11.6712 4.75759C11.4531 4.75843 11.2346 4.75759 10.9944 4.75759C10.9944 5.00304 10.9969 5.24014 10.9936 5.47766C10.9915 5.64838 10.8896 5.75775 10.7429 5.75692C10.6068 5.75608 10.4973 5.65548 10.4965 5.50646C10.4927 4.83983 10.4927 4.17319 10.4965 3.50656C10.4973 3.35795 10.5955 3.26195 10.7446 3.25944C11.078 3.25401 11.4113 3.25401 11.7447 3.25944C11.8934 3.26195 11.9937 3.37089 11.9937 3.50739C11.9937 3.64348 11.893 3.75159 11.7443 3.75493C11.5007 3.76077 11.2568 3.7566 11.0036 3.7566V4.25751L11.004 4.25793Z" fill="#410EAD"/>
<path d="M12.9959 3.75698C12.9032 3.75698 12.8263 3.76074 12.7499 3.75615C12.6007 3.74738 12.4996 3.6472 12.4971 3.51195C12.4946 3.37587 12.594 3.26275 12.7411 3.26024C13.079 3.2544 13.4174 3.2544 13.7558 3.26024C13.8953 3.26275 13.9918 3.37003 13.996 3.49985C14.0002 3.63509 13.9003 3.74404 13.7545 3.75531C13.6772 3.76116 13.5987 3.75656 13.4972 3.75656C13.4972 3.81751 13.4972 3.87219 13.4972 3.92688C13.4972 4.43155 13.4976 4.9358 13.4972 5.44047C13.4972 5.63917 13.4074 5.75354 13.2528 5.7573C13.0928 5.76106 12.9976 5.64334 12.9972 5.4363C12.9963 4.93705 12.9972 4.43781 12.9972 3.93815C12.9972 3.88263 12.9972 3.82669 12.9972 3.75698H12.9959Z" fill="#410EAD"/>
<path d="M0 1.25977H0.975113V2.24615H0V1.25977Z" fill="#410EAD"/>
<path d="M12.252 15.0001V14.02H13.2379V15.0001H12.252Z" fill="#410EAD"/>
</svg>
