<svg width="15" height="15" viewBox="0 0 15 15" fill="none" xmlns="http://www.w3.org/2000/svg">
<path d="M0.000391202 3.1814C0.0899916 2.96089 0.16042 2.7291 0.275453 2.52391C0.35801 2.37637 0.500432 2.26471 0.619377 2.1333C0.31184 1.3315 0.433134 0.710702 0.98756 0.280175C1.47665 -0.0991567 2.15706 -0.0927069 2.6481 0.295896C3.18531 0.721183 3.30308 1.35488 2.98811 2.14821C3.02685 2.18207 3.06832 2.21634 3.10784 2.25262C3.4099 2.52875 3.58832 2.8714 3.60592 3.28983C3.61766 3.5708 3.61649 3.85299 3.60945 4.13436C3.60123 4.45403 3.37782 4.68502 3.06676 4.68663C2.22749 4.69187 1.38822 4.68985 0.548949 4.68743C0.269192 4.68663 0.109946 4.50885 0 4.26739C0 3.90539 0 3.54339 0 3.18099L0.000391202 3.1814ZM2.68879 2.49892C2.0968 2.93106 1.50951 2.92743 0.924566 2.49892C0.678067 2.66097 0.501997 2.87946 0.470304 3.17293C0.436655 3.48534 0.443698 3.8034 0.447219 4.11864C0.44761 4.15814 0.535254 4.2307 0.582598 4.23111C1.39644 4.23796 2.21027 4.23594 3.02411 4.23675C3.11841 4.23675 3.17357 4.19765 3.17279 4.09566C3.17084 3.81469 3.18414 3.53211 3.16066 3.25275C3.13288 2.9238 2.95994 2.67428 2.68879 2.49892ZM0.877614 1.41011C0.878396 1.93899 1.29471 2.3667 1.80844 2.3663C2.32061 2.3663 2.7377 1.93537 2.73731 1.40728C2.73653 0.877591 2.32178 0.452305 1.80609 0.452708C1.29118 0.453111 0.877223 0.88001 0.878005 1.41011H0.877614Z" fill="#410EAD"/>
<path d="M0.000488281 13.4708C0.0634824 13.2987 0.103783 13.1121 0.195731 12.9581C0.308807 12.7694 0.465315 12.6082 0.61204 12.424C0.316241 11.6048 0.438708 11.0022 1.00213 10.5769C1.49709 10.2036 2.16459 10.2145 2.64937 10.6039C3.18815 11.0364 3.30279 11.6548 2.9886 12.4582C3.30005 12.6948 3.53599 13.002 3.57942 13.4039C3.62011 13.7812 3.61189 14.1662 3.59741 14.5468C3.5892 14.764 3.38378 14.9632 3.16858 14.9785C2.87748 14.9991 2.58364 14.995 2.29136 14.9894C2.16342 14.987 2.08008 14.8805 2.08321 14.7624C2.08673 14.6435 2.1732 14.5504 2.3031 14.5472C2.5273 14.5411 2.75188 14.5456 2.97647 14.5439C3.15254 14.5427 3.17328 14.5222 3.17328 14.3464C3.17328 14.1001 3.1815 13.853 3.16663 13.6075C3.1455 13.258 2.97491 12.9944 2.69085 12.8057C2.10316 13.2326 1.52056 13.2374 0.925837 12.8061C0.63356 12.9956 0.465315 13.2697 0.444969 13.6285C0.430492 13.8788 0.443012 14.1311 0.4391 14.3823C0.437143 14.5004 0.493486 14.5443 0.600302 14.5439C0.82489 14.5427 1.04909 14.5431 1.27367 14.5439C1.4654 14.5447 1.55969 14.6173 1.56243 14.7632C1.56517 14.9144 1.46657 14.9942 1.26859 14.9958C1.07335 14.9978 0.877711 14.9874 0.683251 14.9982C0.350673 15.0168 0.117477 14.8858 0.000879484 14.5568C0.000879484 14.1948 0.000879484 13.8328 0.000879484 13.4704L0.000488281 13.4708ZM1.81206 10.7567C1.29911 10.7543 0.880059 11.1824 0.878102 11.7108C0.876146 12.2397 1.28932 12.6711 1.80267 12.6755C2.31288 12.6799 2.73467 12.249 2.73741 11.7209C2.74015 11.1932 2.32345 10.7591 1.81206 10.7571V10.7567Z" fill="#410EAD"/>
<path d="M7.39778 11.6808C5.51109 11.69 3.95775 10.0998 3.95071 8.1515C3.94328 6.18994 5.47431 4.60046 7.379 4.5928C9.28174 4.58514 10.8315 6.16858 10.8359 8.1249C10.8402 10.0796 9.30091 11.6719 7.39739 11.6812L7.39778 11.6808ZM7.39152 11.2281C9.04345 11.2273 10.3933 9.84096 10.3965 8.14223C10.3996 6.43222 9.05519 5.0459 7.3923 5.0451C5.72902 5.04429 4.38697 6.42778 4.38971 8.14102C4.39206 9.84217 5.74037 11.2289 7.39152 11.2281Z" fill="#410EAD"/>
<path d="M12.0055 12.4532C11.6952 11.6321 11.8146 11.0174 12.3682 10.5876C12.8569 10.2083 13.5248 10.2107 14.0162 10.5929C14.5613 11.0169 14.681 11.6353 14.3719 12.4565C14.4169 12.496 14.4658 12.5359 14.512 12.5794C14.8187 12.8689 14.9827 13.228 14.9948 13.6565C15.0014 13.8928 14.9967 14.129 14.9964 14.3652C14.9956 14.7671 14.7839 14.9925 14.3915 14.9953C13.7279 14.9997 13.0643 14.9965 12.4007 14.9965C12.2493 14.9965 12.0978 15.0009 11.9468 14.9945C11.5955 14.9792 11.3865 14.7603 11.3853 14.3987C11.3842 14.0822 11.374 13.7634 11.4049 13.4497C11.4421 13.0732 11.6107 12.8257 12.0059 12.4528L12.0055 12.4532ZM12.3064 12.806C12.027 12.9906 11.8553 13.2482 11.8326 13.5912C11.8157 13.8412 11.824 14.0931 11.8236 14.3443C11.8236 14.522 11.8443 14.543 12.018 14.5438C12.3592 14.5454 12.7004 14.5442 13.0416 14.5442C13.4802 14.5442 13.9188 14.545 14.3574 14.5438C14.5362 14.5434 14.5566 14.5208 14.5566 14.333C14.5566 14.1068 14.5648 13.8807 14.5542 13.6553C14.537 13.2853 14.3707 13.0019 14.071 12.806C13.4747 13.2361 12.8925 13.2337 12.3064 12.806ZM14.1187 11.7135C14.118 11.1859 13.6997 10.7565 13.1867 10.7569C12.6757 10.7577 12.2583 11.1907 12.2594 11.7184C12.2606 12.246 12.682 12.679 13.1918 12.6754C13.7056 12.6717 14.1199 12.242 14.1191 11.7131L14.1187 11.7135Z" fill="#410EAD"/>
<path d="M14.3636 2.14874C14.8351 2.50711 15.0253 2.98722 14.9975 3.57093C14.9885 3.75636 14.9994 3.943 14.9951 4.12884C14.9877 4.43682 14.767 4.67466 14.4689 4.68595C14.2153 4.69562 13.9614 4.69159 13.7075 4.68796C13.558 4.68554 13.4684 4.59524 13.4684 4.46101C13.4684 4.32596 13.5576 4.23929 13.7083 4.23768C13.9329 4.23486 14.1574 4.23365 14.3816 4.23808C14.5041 4.2405 14.5632 4.19415 14.5581 4.06192C14.5468 3.76604 14.5601 3.46773 14.5268 3.17507C14.4931 2.8808 14.319 2.6619 14.0784 2.50388C13.2908 2.92312 12.9163 2.92353 12.311 2.49945C12.036 2.67198 11.8638 2.92433 11.8357 3.25811C11.8126 3.53263 11.8263 3.81078 11.8235 4.08732C11.8224 4.19656 11.8767 4.23889 11.9789 4.23768C12.2132 4.23526 12.4476 4.23607 12.6816 4.23768C12.8455 4.23849 12.941 4.3179 12.9457 4.45294C12.9508 4.59484 12.8518 4.68715 12.6839 4.68917C12.4398 4.69159 12.1956 4.6928 11.9519 4.68917C11.6154 4.68393 11.3927 4.45819 11.3845 4.11352C11.3802 3.93776 11.3912 3.7612 11.3818 3.58544C11.3505 2.99649 11.5356 2.50953 12.0152 2.14874C11.8098 1.7682 11.7586 1.37153 11.8916 0.957936C11.9886 0.656809 12.1694 0.417762 12.4237 0.240392C12.9273 -0.111125 13.6026 -0.0712167 14.071 0.331495C14.4767 0.680593 14.767 1.38 14.3632 2.14914L14.3636 2.14874ZM13.1894 0.45364C12.6734 0.45364 12.2586 0.878926 12.2586 1.40862C12.2586 1.9371 12.6757 2.36763 13.1875 2.36723C13.7012 2.36723 14.1183 1.93831 14.1183 1.41063C14.1183 0.880538 13.7044 0.454043 13.1894 0.45364Z" fill="#410EAD"/>
<path d="M5.01439 12.7451C4.95297 12.7382 4.91384 12.7386 4.87706 12.7289C4.77024 12.7007 4.7096 12.629 4.70921 12.5137C4.70842 12.3992 4.7632 12.3149 4.87276 12.2964C5.08874 12.2601 5.30589 12.2291 5.52383 12.2118C5.64473 12.2021 5.72689 12.2795 5.74489 12.4065C5.77502 12.6145 5.8028 12.8233 5.82275 13.0329C5.83567 13.1667 5.74528 13.274 5.62516 13.2865C5.50231 13.2994 5.41857 13.2179 5.37045 13.016C5.24133 13.1849 5.12278 13.3397 5.00422 13.4945C4.95883 13.5533 4.91658 13.6154 4.8665 13.6698C4.77963 13.7646 4.65404 13.7734 4.56483 13.698C4.47171 13.619 4.45175 13.4973 4.52961 13.3888C4.66851 13.1954 4.81602 13.0083 4.95962 12.8188C4.97409 12.7999 4.98818 12.7805 5.014 12.7451H5.01439Z" fill="#410EAD"/>
<path d="M9.98503 12.7497C10.1368 12.95 10.2859 13.1411 10.4279 13.3374C10.4671 13.3914 10.5172 13.4688 10.5054 13.522C10.4882 13.5994 10.4307 13.7047 10.3689 13.724C10.2988 13.7458 10.1783 13.7119 10.1263 13.6563C9.98151 13.5011 9.86139 13.3221 9.7311 13.1524C9.70136 13.1137 9.67084 13.0762 9.63054 13.0258C9.6102 13.0847 9.60746 13.1484 9.57733 13.1689C9.50612 13.2173 9.41965 13.2782 9.34296 13.2737C9.23106 13.2673 9.16337 13.1665 9.17393 13.0472C9.1935 12.8271 9.21932 12.6074 9.2561 12.3897C9.27879 12.2563 9.377 12.1982 9.50534 12.2119C9.68962 12.2317 9.87352 12.2559 10.057 12.2837C10.219 12.3083 10.2922 12.3873 10.2883 12.5199C10.2844 12.6513 10.2034 12.7223 10.0414 12.738C10.0277 12.7392 10.0144 12.7436 9.98581 12.7501L9.98503 12.7497Z" fill="#410EAD"/>
<path d="M9.97622 3.53632C10.0349 3.53632 10.0682 3.53228 10.1003 3.53712C10.2106 3.55365 10.2759 3.62016 10.2861 3.73505C10.2959 3.84873 10.2497 3.94548 10.1413 3.96483C9.91166 4.00554 9.67925 4.03577 9.44684 4.05069C9.34158 4.05754 9.26685 3.97853 9.2512 3.86364C9.22303 3.65523 9.19408 3.44642 9.17373 3.2372C9.16082 3.1074 9.24064 3.00703 9.35606 2.98647C9.48714 2.96309 9.57439 3.04169 9.62604 3.25091C9.73442 3.11022 9.83263 2.98324 9.93044 2.85586C9.98483 2.78491 10.0373 2.71275 10.0928 2.64261C10.2004 2.50636 10.3256 2.48015 10.432 2.57045C10.5353 2.65752 10.5408 2.78289 10.4414 2.91673C10.3174 3.08402 10.1895 3.24889 10.0639 3.41498C10.04 3.44642 10.0181 3.47867 9.97661 3.53712L9.97622 3.53632Z" fill="#410EAD"/>
<path d="M5.36884 3.25158C5.42322 3.0347 5.51634 2.9565 5.6529 2.98955C5.78554 3.0218 5.83836 3.12943 5.81449 3.31043C5.7914 3.48417 5.77575 3.65912 5.74915 3.83246C5.72371 4.00016 5.63998 4.06788 5.47682 4.05337C5.3121 4.03846 5.14816 4.01306 4.98383 3.99371C4.79289 3.97154 4.70485 3.89495 4.70798 3.75063C4.71111 3.60833 4.79602 3.54262 5.01865 3.52731C4.91888 3.39589 4.82732 3.27536 4.73576 3.15483C4.66964 3.06775 4.60117 2.9827 4.53896 2.89321C4.45562 2.77348 4.46657 2.65335 4.56282 2.57112C4.6622 2.48606 4.7878 2.50138 4.88366 2.61747C4.96583 2.71664 5.04134 2.82145 5.1196 2.92425C5.19746 3.02583 5.27493 3.12782 5.36884 3.25117V3.25158Z" fill="#410EAD"/>
<path d="M7.14932 9.67915C7.14932 9.13857 7.15088 8.66209 7.1458 8.1852C7.14541 8.14933 7.10119 8.10377 7.06598 8.0808C6.9799 8.02476 6.886 7.98163 6.79718 7.92882C6.47203 7.73573 6.32179 7.44226 6.36326 7.06092C6.40826 6.64732 6.62111 6.35385 7.00729 6.20712C7.04798 6.1914 7.09102 6.18172 7.14932 6.16398C7.14932 6.08618 7.14736 6.00717 7.14971 5.92897C7.1548 5.76813 7.24401 5.66775 7.37547 5.67097C7.50342 5.6742 7.5985 5.77054 7.58402 5.92373C7.56798 6.09545 7.62236 6.16439 7.78748 6.20551C7.92912 6.24058 8.06332 6.32886 8.18657 6.41472C8.30317 6.49575 8.31373 6.62716 8.239 6.73117C8.16583 6.83356 8.04689 6.84686 7.92716 6.7743C7.82543 6.71262 7.71979 6.6582 7.58832 6.58524C7.58832 7.00125 7.58676 7.37212 7.59145 7.74258C7.59184 7.77524 7.62823 7.81716 7.65875 7.83691C7.70335 7.86553 7.75813 7.87722 7.80782 7.89698C8.293 8.09007 8.53871 8.45166 8.52424 8.95072C8.51015 9.43204 8.18618 9.8795 7.74248 10.0291C7.69631 10.0448 7.64936 10.0577 7.58754 10.0762C7.58754 10.173 7.59145 10.2729 7.58676 10.3721C7.5805 10.5035 7.49285 10.595 7.37743 10.5991C7.26396 10.6031 7.16693 10.5136 7.15206 10.3862C7.14619 10.3366 7.14971 10.2858 7.14932 10.2354C7.14932 10.1911 7.14932 10.1468 7.12193 10.1387C6.88208 10.0375 6.63754 9.94682 6.40435 9.83112C6.25332 9.75655 6.22045 9.61264 6.29401 9.49452C6.36522 9.38004 6.48103 9.36956 6.62854 9.44454C6.78701 9.52516 6.95251 9.59127 7.14893 9.67875L7.14932 9.67915ZM7.59928 8.31904V9.5828C7.89077 9.50581 8.09541 9.20186 8.08523 8.87373C8.07623 8.58953 7.89429 8.3795 7.59928 8.31863V8.31904ZM7.14149 7.59424V6.6582C6.94312 6.71585 6.81009 6.90088 6.7964 7.12824C6.78309 7.35277 6.88169 7.48943 7.14149 7.59424Z" fill="#410EAD"/>
</svg>
