<svg width="15" height="16" viewBox="0 0 15 16" fill="none" xmlns="http://www.w3.org/2000/svg">
<path d="M14.9999 13.1711C14.9737 13.366 14.9603 13.5632 14.919 13.7546C14.6648 14.942 13.7882 15.7745 12.6011 15.9655C11.2786 16.1784 9.95875 15.3899 9.51268 14.1218C8.97071 12.5798 9.92362 10.866 11.5283 10.4977C13.0255 10.1543 14.5114 11.0473 14.8906 12.5233C14.9402 12.717 14.9636 12.9175 14.9993 13.1152V13.1717L14.9999 13.1711ZM13.6237 13.231C13.6555 12.4346 13.0177 11.7658 12.1974 11.7359C11.4079 11.7071 10.7371 12.3527 10.7176 13.1937C10.6998 13.9636 11.2813 14.6657 12.1467 14.6855C12.9407 14.7036 13.602 14.0992 13.6232 13.231H13.6237Z" fill="#410EAD"/>
<path d="M0.00111498 10.5161C0.0563157 10.5189 0.112074 10.5252 0.167275 10.5252C1.40344 10.5252 2.63904 10.5252 3.8752 10.5252C3.9304 10.5252 3.9856 10.5252 4.05251 10.5252V11.8305C3.99954 11.8333 3.94155 11.839 3.88357 11.839C3.09849 11.8396 2.31285 11.8424 1.52778 11.8367C1.39563 11.8356 1.34712 11.8689 1.35493 12.0084C1.36608 12.2135 1.35771 12.4197 1.35771 12.6411H3.57913V13.8662H1.35939C1.35939 14.0961 1.3566 14.3108 1.36385 14.5243C1.36441 14.5463 1.42853 14.583 1.46421 14.5847C1.64989 14.5909 1.83556 14.5881 2.0218 14.5881C2.6396 14.5881 3.25796 14.5881 3.87576 14.5881H4.06366C4.06366 14.6824 4.06366 14.7649 4.06366 14.8474C4.06366 15.1394 4.05697 15.4314 4.06645 15.7229C4.07091 15.854 4.03021 15.8907 3.90308 15.8901C2.85761 15.8856 1.81214 15.8878 0.766676 15.8873C0.511303 15.8873 0.255931 15.8845 0 15.8828C0 14.0939 0 12.305 0 10.5161H0.00111498Z" fill="#410EAD"/>
<path d="M8.22692 4.16451C8.43322 4.3656 8.63897 4.56668 8.8503 4.77229C8.94286 4.66949 9.03709 4.55482 9.14136 4.45033C9.65322 3.93688 10.3084 3.83746 10.9195 4.22213C11.2156 4.40853 11.4698 4.66384 11.7336 4.89938C11.7704 4.93214 11.7826 5.05754 11.7525 5.09143C11.3856 5.5049 10.9831 5.87262 10.4227 5.9918C9.92978 6.09686 9.52051 5.92289 9.1631 5.58793C9.09508 5.52411 9.03095 5.45689 8.98021 5.40662C8.78785 5.5981 8.59492 5.78958 8.39977 5.98446C8.54809 5.9935 8.70477 5.98954 8.85643 6.01496C9.42907 6.11099 9.79763 6.45215 9.97383 7.0074C10.0943 7.38755 10.1266 7.77899 10.0987 8.17664C10.0931 8.25855 10.0647 8.31164 9.97717 8.31673C9.43687 8.34779 8.90661 8.31221 8.43211 8.01566C7.98326 7.73549 7.81263 7.29943 7.80371 6.78372C7.80316 6.73684 7.80148 6.68996 7.79925 6.64251C7.79925 6.63404 7.792 6.62613 7.7881 6.61822C7.65149 6.68544 7.55113 6.88991 7.55057 7.11472C7.5489 7.7643 7.5489 8.41388 7.54834 9.06346C7.54834 9.30352 7.54555 9.54358 7.54946 9.78364C7.55113 9.8791 7.52046 9.92316 7.42121 9.91638C7.32921 9.91017 7.23609 9.91525 7.12737 9.91525C7.12458 9.85764 7.12067 9.80849 7.12067 9.75879C7.12067 8.93524 7.12179 8.11112 7.12012 7.28757C7.11956 6.88596 7.21769 6.53349 7.52158 6.24655C7.86114 5.92571 8.17841 5.58116 8.50683 5.24846C8.6189 5.13492 8.6228 5.09934 8.5085 4.98298C7.98995 4.45654 7.47084 3.93066 6.95117 3.40535C6.84467 3.29747 6.7917 3.2986 6.68353 3.40761C6.16386 3.93292 5.64475 4.4588 5.12676 4.98524C5.01245 5.10103 5.01468 5.12871 5.13289 5.25015C5.48528 5.61166 5.83656 5.97486 6.19063 6.3341C6.3802 6.52615 6.49172 6.75717 6.49339 7.02548C6.50008 7.98007 6.49618 8.93524 6.49618 9.90283H6.08859C6.08859 9.85425 6.08859 9.80059 6.08859 9.74636C6.08859 8.88948 6.08692 8.03317 6.08747 7.17629C6.08747 6.9865 6.04287 6.81366 5.92354 6.66454C5.90459 6.64081 5.87838 6.62387 5.83879 6.58828C5.82875 6.75717 5.83098 6.90573 5.80868 7.0509C5.7111 7.67844 5.33306 8.05181 4.74426 8.21844C4.398 8.31673 4.04337 8.34723 3.68373 8.32124C3.57835 8.3139 3.5304 8.25911 3.52761 8.16252C3.51478 7.69934 3.54043 7.24012 3.73614 6.81027C4.001 6.2296 4.47606 5.99745 5.08327 5.9918C5.12954 5.9918 5.17582 5.98954 5.2221 5.98785C5.22489 5.98785 5.22712 5.98107 5.22489 5.98446C5.03253 5.79806 4.84072 5.61279 4.64166 5.42017C4.57363 5.484 4.47494 5.5885 4.3651 5.67887C3.88836 6.07258 3.36981 6.12511 2.81836 5.8568C2.45593 5.68057 2.16209 5.41452 1.89947 5.11289C1.86434 5.07279 1.8543 4.95417 1.88497 4.91972C2.24963 4.5102 2.64886 4.14644 3.2031 4.02386C3.6263 3.9301 4.00378 4.0425 4.33666 4.31194C4.50282 4.44694 4.65727 4.59662 4.81674 4.74009C4.98736 4.56329 5.18976 4.35374 5.40834 4.12723C5.347 4.12723 5.29069 4.1261 5.23437 4.12723C4.35729 4.14305 3.85993 3.61887 3.72388 2.81621C3.67704 2.54 3.68206 2.25532 3.66533 1.97402C3.6592 1.87687 3.69656 1.80118 3.80138 1.79835C4.27756 1.78423 4.74927 1.80683 5.18921 2.02147C5.68936 2.26548 5.92856 2.6846 5.96313 3.23477C5.96982 3.34039 5.96425 3.44715 5.96425 3.57594C6.17557 3.34943 6.36738 3.14383 6.56198 2.9354C6.47611 2.85406 6.36069 2.75351 6.25419 2.64337C5.79084 2.16494 5.69438 1.56112 5.98488 0.95955C6.16107 0.594092 6.4237 0.295851 6.722 0.0303711C6.75936 -0.0029551 6.8692 -0.0114279 6.9021 0.0179443C7.29185 0.368151 7.63588 0.757898 7.77193 1.28377C7.89794 1.77124 7.7658 2.20166 7.44519 2.58067C7.32698 2.72019 7.21992 2.86931 7.11789 3.00035C7.26565 3.14439 7.46693 3.34039 7.66264 3.53188C7.67045 3.39293 7.66655 3.22968 7.69108 3.07096C7.79535 2.40387 8.20963 2.0226 8.83691 1.88703C9.15083 1.81925 9.48037 1.82321 9.80321 1.79722C9.88629 1.79045 9.95598 1.82321 9.961 1.91754C9.9939 2.54791 9.95598 3.16473 9.53055 3.67592C9.28744 3.96794 8.95512 4.0956 8.58489 4.12271C8.47114 4.13118 8.35628 4.12384 8.24197 4.12384C8.23807 4.13683 8.23417 4.14983 8.22971 4.16338L8.22692 4.16451ZM7.93084 3.45223C7.94199 3.54035 7.94311 3.63186 7.96764 3.71602C7.98047 3.76008 8.02786 3.8143 8.0708 3.82673C8.50125 3.951 9.07333 3.75838 9.34989 3.39857C9.62924 3.03594 9.70005 2.61004 9.71121 2.16607C9.71344 2.08417 9.66994 2.05536 9.59746 2.0627C9.41346 2.08134 9.22667 2.08756 9.04601 2.12484C8.33676 2.27283 7.93865 2.75577 7.93029 3.4528L7.93084 3.45223ZM5.16133 6.27027C4.61099 6.27649 4.19615 6.50807 3.9642 7.02774C3.83651 7.31412 3.79023 7.61914 3.78354 7.93263C3.78131 8.02978 3.81755 8.07553 3.91346 8.06593C4.08352 8.04786 4.25581 8.03938 4.42364 8.00662C5.14683 7.86428 5.55721 7.37681 5.55721 6.67188C5.55721 6.30077 5.52933 6.27197 5.16189 6.27027H5.16133ZM8.07749 6.82552C8.08474 7.19098 8.27989 7.59711 8.74268 7.84282C9.0488 8.00549 9.38223 8.05577 9.72347 8.06706C9.82272 8.07045 9.85896 8.02131 9.84949 7.92924C9.8322 7.76148 9.82161 7.59202 9.7915 7.42652C9.65991 6.69222 9.1737 6.27197 8.46668 6.27197C8.10314 6.27197 8.07693 6.29965 8.07749 6.82609V6.82552ZM5.28957 3.86514C5.37655 3.85384 5.46744 3.85328 5.54996 3.82673C5.5968 3.81204 5.65702 3.76008 5.66538 3.71602C5.74177 3.30368 5.67932 2.91337 5.40611 2.58971C5.04033 2.15703 4.53516 2.06779 4.00657 2.06722C3.97925 2.06722 3.92628 2.14291 3.92795 2.18132C3.93855 2.36829 3.9497 2.55695 3.9865 2.73996C4.12757 3.44207 4.6149 3.85497 5.29013 3.86514H5.28957ZM3.49304 5.70881C3.85268 5.71164 4.33332 5.43768 4.54074 5.08352C4.56193 5.04737 4.56862 4.9762 4.54743 4.944C4.32384 4.60566 3.88725 4.26731 3.37539 4.31476C2.97616 4.35148 2.65889 4.55369 2.36226 4.80223C2.13588 4.99202 2.13644 5.02026 2.36282 5.21287C2.6812 5.48344 3.02746 5.69356 3.49304 5.70825V5.70881ZM10.1712 5.70881C10.6758 5.68622 11.06 5.41904 11.409 5.08183C11.476 5.01743 11.4431 4.95078 11.3789 4.90446C11.1726 4.75478 10.9775 4.5825 10.755 4.46388C10.1049 4.11819 9.49654 4.37859 9.09898 4.92197C9.07222 4.95869 9.0672 5.04737 9.09229 5.08239C9.35826 5.4535 9.70228 5.693 10.1712 5.70881ZM6.12427 1.62777C6.14044 2.09433 6.38076 2.44511 6.75044 2.71849C6.7772 2.73826 6.83631 2.7473 6.8614 2.73092C7.23331 2.48521 7.5673 2.00678 7.49593 1.4826C7.43515 1.03863 7.18981 0.694635 6.90154 0.374365C6.83909 0.305453 6.78557 0.311102 6.72869 0.378884C6.6629 0.457963 6.59209 0.532523 6.52964 0.614427C6.30382 0.908714 6.13989 1.23011 6.12427 1.62777Z" fill="#410EAD"/>
<path d="M9.15322 11.8395C8.66254 11.8395 8.18414 11.8395 7.70629 11.8395C7.50611 11.8395 7.505 11.8395 7.505 12.0389C7.505 13.2528 7.505 14.4672 7.505 15.6811C7.505 15.8185 7.43549 15.8873 7.29646 15.8873C6.97139 15.8873 6.64632 15.8822 6.32125 15.8901C6.19691 15.8929 6.1668 15.8505 6.16736 15.728C6.17182 14.4949 6.17015 13.2624 6.17015 12.0293C6.17015 11.9032 6.10584 11.8399 5.97722 11.8395C5.54063 11.8395 5.10405 11.835 4.66746 11.8424C4.54145 11.8446 4.50911 11.8011 4.51134 11.6808C4.51803 11.3374 4.51468 10.994 4.51301 10.6505C4.51301 10.5669 4.52974 10.5234 4.62843 10.5234C6.11941 10.5263 7.61038 10.5257 9.1008 10.5263C9.11474 10.5263 9.12812 10.5302 9.15377 10.5336V11.8395H9.15322Z" fill="#410EAD"/>
<path d="M11.2417 0.698511C11.3186 0.811481 11.3911 0.917672 11.4636 1.02443C11.4524 1.03573 11.4413 1.04759 11.4307 1.05889C11.3944 1.02895 11.3521 1.00409 11.3231 0.968509C11.2673 0.900162 11.2316 0.808657 11.1642 0.75895C11.109 0.71828 11.0197 0.716586 10.9467 0.71828C10.9322 0.71828 10.9166 0.812611 10.9077 0.864577C10.8976 0.923321 10.8943 0.983195 10.8881 1.0425C10.8737 1.04137 10.8597 1.04025 10.8452 1.03968V0.301421C10.9846 0.301421 11.1279 0.288994 11.2673 0.307634C11.3186 0.314413 11.3855 0.387843 11.4 0.442634C11.4145 0.497424 11.3805 0.572549 11.3509 0.629599C11.3348 0.661231 11.2835 0.673657 11.2428 0.698511H11.2417ZM11.0984 0.634118C11.109 0.634118 11.1558 0.645415 11.1809 0.627339C11.235 0.5878 11.2785 0.532445 11.3264 0.483867C11.2785 0.442633 11.2366 0.385583 11.1814 0.364684C11.124 0.34322 11.0526 0.348304 10.9902 0.357906C10.9601 0.362425 10.9194 0.400835 10.9121 0.430772C10.8748 0.584411 10.9166 0.634118 11.0989 0.634118H11.0984Z" fill="#410EAD"/>
</svg>
