<svg width="15" height="15" viewBox="0 0 15 15" fill="none" xmlns="http://www.w3.org/2000/svg">
<path d="M3.91408 6.74152C4.57953 6.99359 5.09552 7.41177 5.47277 7.98622C5.77037 7.83981 6.05812 7.69877 6.34497 7.55774C5.38148 6.58257 5.29555 5.41757 6.12793 4.59597C6.87304 3.86079 8.15651 3.87423 8.89848 4.61747C9.52366 5.24385 9.80336 6.62645 8.65638 7.55729C8.94368 7.69788 9.23143 7.83891 9.52992 7.98532C9.90628 7.41088 10.4214 6.99269 11.0949 6.73972C10.6013 6.29423 10.3677 5.76143 10.4863 5.10505C10.5592 4.70119 10.7413 4.35778 11.0685 4.09988C11.7518 3.56081 12.7918 3.632 13.3727 4.25256C13.8659 4.77954 14.1174 5.90201 13.1883 6.73256C13.2358 6.7554 13.277 6.77733 13.3199 6.79524C13.9693 7.06926 14.4749 7.50848 14.8262 8.11964C15.3011 8.94571 14.7515 9.91103 13.7992 9.91774C12.8836 9.92401 11.9675 9.91909 11.0519 9.91909C10.9915 9.91909 10.9311 9.91909 10.8635 9.91909C10.8568 9.9755 10.8514 10.0185 10.8461 10.0615C10.7575 10.768 10.2267 11.269 9.51337 11.2753C8.17306 11.2869 6.83276 11.2829 5.49291 11.2766C4.87131 11.2739 4.21302 10.8401 4.14097 9.91909C4.07966 9.91909 4.01567 9.91909 3.95167 9.91909C3.03606 9.91909 2.12 9.92222 1.20439 9.91774C0.572498 9.91506 0.0963443 9.49553 0.0104218 8.87363C-0.0244843 8.622 0.0296651 8.38425 0.152284 8.16397C0.488814 7.55818 0.974813 7.11403 1.60625 6.82927C1.67114 6.80017 1.73738 6.77286 1.82464 6.7357C1.34446 6.31124 1.11712 5.79545 1.20707 5.16549C1.26793 4.74193 1.45141 4.38017 1.79018 4.1066C2.46593 3.55992 3.5234 3.62842 4.10741 4.25749C4.7563 4.95685 4.68828 5.90783 3.91453 6.74196L3.91408 6.74152ZM7.48837 10.7429C8.14666 10.7429 8.80495 10.7487 9.46325 10.7411C10.1475 10.7335 10.5203 10.087 10.1833 9.49105C9.65433 8.55618 8.83673 8.0677 7.7797 7.94682C6.58126 7.80981 5.31032 8.48365 4.78807 9.56358C4.71513 9.71402 4.68649 9.91237 4.71021 10.078C4.76973 10.4899 5.10267 10.7393 5.54661 10.7416C6.19371 10.7452 6.84082 10.7425 7.48837 10.7425V10.7429ZM9.97654 8.28396C10.2276 8.64439 10.4594 8.98287 10.7002 9.3142C10.7302 9.35583 10.8098 9.38001 10.8666 9.38001C11.8373 9.38404 12.808 9.38539 13.7786 9.3818C14.3519 9.38001 14.6495 8.85885 14.3483 8.36769C13.7862 7.45073 12.9547 7.01732 11.8861 7.10866C11.0465 7.1803 10.4044 7.61236 9.97654 8.28396ZM5.02928 8.28083C4.51017 7.51117 3.7673 7.0697 2.78903 7.09926C1.83359 7.12791 1.1122 7.58191 0.633361 8.40664C0.370223 8.8593 0.665581 9.37688 1.18649 9.38046C2.17952 9.38718 3.1721 9.38359 4.16513 9.38046C4.21168 9.38046 4.27657 9.35539 4.30207 9.31957C4.54105 8.98646 4.77331 8.64886 5.02973 8.28083H5.02928ZM7.5 7.37148C8.30463 7.37193 8.90699 6.77733 8.90833 5.98171C8.90967 5.19146 8.29971 4.58523 7.50314 4.58478C6.70612 4.58433 6.09616 5.18788 6.09526 5.97858C6.09437 6.7742 6.69582 7.37058 7.5 7.37148ZM2.86287 4.27405C2.23233 4.27629 1.71769 4.7885 1.72127 5.41085C1.72485 6.03499 2.24217 6.54317 2.87137 6.54048C3.50147 6.5378 4.01701 6.02425 4.01432 5.40234C4.01164 4.7791 3.49387 4.27181 2.86242 4.27405H2.86287ZM12.1336 6.54004C12.7628 6.54183 13.2801 6.0332 13.2828 5.40906C13.2855 4.78671 12.7704 4.2754 12.1398 4.2736C11.5088 4.27226 10.9915 4.77999 10.9897 5.40279C10.9875 6.02425 11.5044 6.53735 12.134 6.53959L12.1336 6.54004Z" fill="#410EAD"/>
<path d="M7.49995 15.0001C4.64974 14.8855 2.43544 13.7022 0.976997 11.211C0.946566 11.1586 0.895997 11.0919 0.90808 11.0458C0.934036 10.9468 0.973417 10.8317 1.04636 10.7695C1.13721 10.6916 1.26206 10.7211 1.34843 10.8116C1.39766 10.8631 1.43078 10.9298 1.46837 10.9916C2.71738 13.0413 4.52712 14.2551 6.92266 14.4297C9.8127 14.6402 12.0221 13.429 13.5476 10.9674C13.5682 10.9343 13.5852 10.8984 13.6072 10.8667C13.7007 10.7292 13.8385 10.6894 13.9692 10.7605C14.1035 10.834 14.1563 10.9911 14.065 11.1362C13.8332 11.5038 13.6143 11.8844 13.3431 12.2215C12.1071 13.759 10.4916 14.6361 8.54489 14.9088C8.19762 14.9576 7.84543 14.9706 7.49995 14.9997V15.0001Z" fill="#410EAD"/>
<path d="M7.39019 0.000447488C9.66938 0.0496983 11.5328 0.789355 13.0159 2.40523C13.0687 2.46299 13.1197 2.52209 13.1685 2.58298C13.2857 2.73028 13.283 2.88072 13.1631 2.98504C13.0472 3.08578 12.8915 3.06026 12.763 2.93311C12.4498 2.62327 12.158 2.28568 11.813 2.01615C10.2538 0.799206 8.47362 0.364903 6.5256 0.616978C4.97452 0.817563 3.63958 1.47394 2.54228 2.59686C2.4407 2.70073 2.34806 2.81267 2.25095 2.92057C2.12162 3.06385 1.95962 3.08892 1.84058 2.9846C1.71662 2.87624 1.71572 2.72536 1.84685 2.56999C2.82959 1.40857 4.06785 0.652796 5.53301 0.263715C5.80734 0.190735 6.08748 0.132529 6.36852 0.0953673C6.74398 0.0461165 7.12348 0.0241776 7.39109 0L7.39019 0.000447488Z" fill="#410EAD"/>
<path d="M7.69931 13.4123C5.65283 13.3572 4.12009 12.6484 2.93105 11.2197C2.79993 11.0621 2.79948 10.8938 2.92702 10.7912C3.05859 10.6856 3.21164 10.7174 3.3459 10.8808C4.57119 12.3699 6.17015 12.9829 8.0609 12.8154C9.51397 12.6865 10.7223 12.0413 11.6473 10.8951C11.8017 10.7039 11.9874 10.6771 12.1122 10.8253C12.204 10.9341 12.1905 11.0769 12.0737 11.2193C11.2436 12.2311 10.1973 12.9126 8.92549 13.2197C8.46232 13.3317 7.98124 13.3693 7.69886 13.4118L7.69931 13.4123Z" fill="#410EAD"/>
<path d="M7.47765 1.60152C8.74635 1.6163 9.88438 1.96911 10.9065 2.68638C10.9521 2.71817 11.0009 2.74906 11.0372 2.79026C11.1289 2.89547 11.1405 3.01412 11.0551 3.12651C10.9714 3.23665 10.8577 3.27112 10.7288 3.20754C10.6693 3.17799 10.6156 3.1368 10.561 3.0983C8.73203 1.81912 6.25996 1.8227 4.43143 3.10725C4.19648 3.27202 4.04388 3.2747 3.93871 3.11576C3.83892 2.96487 3.89396 2.82966 4.12354 2.66937C5.13805 1.96195 6.26757 1.61809 7.4781 1.60107L7.47765 1.60152Z" fill="#410EAD"/>
</svg>
