<svg width="15" height="15" viewBox="0 0 15 15" fill="none" xmlns="http://www.w3.org/2000/svg">
<path d="M0.000366794 14.6161C0.0917138 14.4525 0.232953 14.396 0.415281 14.4092C0.540378 14.4183 0.66621 14.411 0.807449 14.411C0.807449 14.3439 0.807449 14.291 0.807449 14.2386C0.807449 13.8824 0.805982 13.5261 0.808183 13.1696C0.80965 12.9384 0.877519 12.8537 1.09837 12.7979C1.48577 12.7004 1.8728 12.6006 2.26166 12.5096C2.35815 12.4868 2.40804 12.4414 2.44399 12.35C2.56726 12.0374 2.69492 11.726 2.83102 11.4189C2.87248 11.3254 2.85854 11.2586 2.80901 11.1775C2.60211 10.8411 2.3996 10.5018 2.1971 10.1628C2.07347 9.95554 2.08594 9.85246 2.25469 9.6826C2.5955 9.34033 2.93741 8.99842 3.27969 8.65761C3.44844 8.48959 3.55446 8.47675 3.76027 8.59928C4.10365 8.80398 4.44776 9.00796 4.78747 9.21853C4.86781 9.26842 4.93164 9.26806 5.01565 9.2321C5.32894 9.0971 5.64737 8.97457 5.95884 8.8359C6.0179 8.80949 6.0788 8.73795 6.09604 8.67558C6.20023 8.29515 6.29194 7.91106 6.38732 7.52806C6.45079 7.27383 6.53443 7.20779 6.79747 7.20779C7.26594 7.20743 7.73442 7.20743 8.20326 7.20779C8.46409 7.20779 8.547 7.27493 8.61083 7.53099C8.70512 7.90922 8.80307 8.28635 8.89185 8.66605C8.91312 8.75666 8.95164 8.80875 9.03859 8.84324C9.35995 8.9709 9.67728 9.10957 10.0001 9.23357C10.0566 9.25522 10.1447 9.24971 10.1968 9.21963C10.5475 9.01786 10.8919 8.80545 11.2397 8.59818C11.4437 8.47638 11.5497 8.49032 11.7199 8.65981C12.0589 8.99732 12.3968 9.33592 12.7347 9.67453C12.9155 9.85613 12.9269 9.95371 12.7923 10.1782C12.5868 10.5212 12.3777 10.862 12.1778 11.2084C12.1495 11.2575 12.1422 11.3401 12.1627 11.3921C12.29 11.719 12.4313 12.0404 12.5604 12.3665C12.5931 12.4494 12.6411 12.4868 12.7248 12.507C13.118 12.6013 13.5102 12.7004 13.9024 12.799C14.117 12.853 14.1874 12.9384 14.1892 13.1582C14.1922 13.5192 14.19 13.8805 14.1903 14.2419C14.1903 14.2943 14.1903 14.3472 14.1903 14.4117C14.358 14.4117 14.5084 14.4095 14.6588 14.4121C14.8602 14.4158 14.9941 14.5332 14.9952 14.7027C14.9963 14.8725 14.8628 14.991 14.6621 14.9972C14.6379 14.998 14.6133 14.9972 14.5887 14.9972C9.86401 14.9972 5.13965 14.9965 0.414914 14.9998C0.232953 14.9998 0.091347 14.9558 0 14.7922V14.6164L0.000366794 14.6161ZM10.6124 14.4004H13.6041C13.6041 14.0632 13.6081 13.7364 13.599 13.4099C13.5979 13.3713 13.5296 13.313 13.4827 13.3005C13.125 13.2052 12.7655 13.1164 12.4052 13.0309C12.2566 12.9957 12.1543 12.9219 12.0952 12.7745C11.9158 12.3269 11.7284 11.8823 11.5424 11.4373C11.4921 11.3166 11.4896 11.2036 11.5615 11.0891C11.6546 10.9406 11.7427 10.7887 11.8329 10.6379C11.9624 10.4218 12.0919 10.2057 12.2101 10.0084C11.9294 9.72956 11.6634 9.46506 11.3887 9.19175C11.0475 9.39682 10.6905 9.60703 10.3384 9.82421C10.2103 9.90308 10.0911 9.91336 9.95169 9.85356C9.58924 9.69728 9.23009 9.52926 8.85626 9.40599C8.53086 9.29887 8.36284 9.11214 8.31038 8.77133C8.25975 8.44226 8.15373 8.12163 8.07302 7.80027H6.9255C6.82461 8.20124 6.71969 8.59598 6.62798 8.99402C6.59129 9.1525 6.51059 9.25081 6.36054 9.31098C5.92655 9.48487 5.4933 9.66169 5.06407 9.84769C4.90816 9.91519 4.77903 9.90088 4.63815 9.81247C4.32449 9.61547 4.0057 9.42617 3.68506 9.24018C3.64618 9.2178 3.56364 9.21009 3.53832 9.23431C3.28152 9.4801 3.03243 9.7336 2.77636 9.99003C2.99134 10.3481 3.19861 10.7006 3.41432 11.0477C3.4998 11.1849 3.51044 11.3133 3.44697 11.4619C3.26538 11.8874 3.08562 12.3144 2.9165 12.7451C2.85047 12.9139 2.74151 12.9986 2.56836 13.0375C2.21177 13.1175 1.85812 13.2096 1.50484 13.3024C1.46339 13.3134 1.40029 13.3603 1.39955 13.3919C1.39185 13.7268 1.39479 14.0621 1.39479 14.4037H4.38246C4.37879 14.3622 4.37585 14.3292 4.37255 14.2958C4.26029 13.1718 4.61651 12.2245 5.47825 11.4938C5.73395 11.277 6.05385 11.1343 6.34954 10.9677C6.45776 10.9068 6.57735 10.9207 6.67714 11.0066C6.76739 11.0844 6.79086 11.1856 6.76555 11.2982C6.7362 11.4285 6.63091 11.4824 6.52122 11.5286C5.91114 11.7865 5.46101 12.2139 5.17853 12.8122C4.93861 13.3203 4.87441 13.8515 4.98557 14.4022H10.0181C10.152 13.5764 9.97003 12.8464 9.42709 12.2124C9.15488 11.8947 8.81774 11.671 8.43474 11.5073C8.25388 11.4299 8.18895 11.27 8.25425 11.117C8.32065 10.9611 8.48244 10.8973 8.65853 10.971C9.60245 11.3657 10.2276 12.0514 10.5244 13.0327C10.6594 13.4792 10.674 13.9345 10.6117 14.4011L10.6124 14.4004Z" fill="#410EAD"/>
<path d="M0.000366794 5.36013C0.0597974 5.28382 0.111524 5.19981 0.179392 5.13194C1.23043 4.0776 2.28331 3.02509 3.33582 1.97222C3.57354 1.73449 3.69974 1.73376 3.93599 1.97001C4.99914 3.03316 6.06229 4.09594 7.1247 5.15982C7.16249 5.19761 7.1922 5.24347 7.21495 5.27208C8.45492 4.03174 9.67838 2.80828 10.9334 1.55327C10.8457 1.47623 10.7327 1.38525 10.6296 1.28436C10.389 1.04884 10.1524 0.808917 9.91464 0.57046C9.69086 0.345578 9.70333 0.186729 9.9594 0H14.7923C14.956 0.0909802 15.0007 0.232953 15 0.414914C14.9952 1.88894 14.9974 3.3626 14.9974 4.83662C14.9974 4.8612 14.9971 4.88542 14.9974 4.90999C15.0004 5.04353 14.9508 5.15065 14.8268 5.20862C14.6955 5.26988 14.5774 5.23063 14.4794 5.13414C14.2567 4.91513 14.0363 4.69392 13.8158 4.47234C13.6819 4.3377 13.5502 4.20123 13.4115 4.05926C13.362 4.10658 13.3235 4.14217 13.2864 4.17922C12.3718 5.09342 11.4573 6.00799 10.5427 6.92256C10.3233 7.14194 10.1604 7.17423 10.0177 7.02748C9.87685 6.88258 9.90877 6.7274 10.123 6.51279C11.0376 5.59822 11.9518 4.68364 12.8671 3.76981C12.9049 3.73202 12.9526 3.70451 12.9838 3.68066C12.4228 3.12011 11.8825 2.57973 11.3501 2.04705C10.1388 3.25731 8.91422 4.48114 7.66141 5.73322C7.81146 5.87226 7.97801 6.01496 8.12989 6.17161C8.23848 6.2835 8.23737 6.43318 8.15263 6.54544C8.07449 6.64926 7.92885 6.69585 7.81366 6.63788C7.74579 6.60377 7.68599 6.54874 7.63133 6.49408C6.3433 5.20788 5.05637 3.92022 3.77017 2.63182C3.72945 2.5911 3.70121 2.53791 3.66709 2.49022C3.64508 2.48655 3.6227 2.48288 3.60069 2.47921C3.5695 2.5291 3.54639 2.58707 3.50567 2.62742C2.5269 3.60876 1.5463 4.58826 0.566792 5.56887C0.47361 5.66205 0.36869 5.75486 0.235521 5.70277C0.145275 5.66755 0.0777734 5.57364 0 5.50577C0 5.45698 0 5.40818 0 5.35939L0.000366794 5.36013ZM14.4039 0.598341H10.8178C12.0101 1.79099 13.209 2.98951 14.4039 4.18472V0.598341Z" fill="#410EAD"/>
<path d="M0.000366794 9.46108C0.0594305 9.38441 0.110423 9.30003 0.178292 9.23216C1.45678 7.95037 2.73711 6.67078 4.0178 5.39119C4.05889 5.3501 4.10071 5.30791 4.14804 5.27453C4.2724 5.18685 4.42098 5.20005 4.52223 5.30167C4.62018 5.40036 4.63999 5.56214 4.54461 5.67477C4.42208 5.81967 4.2823 5.94954 4.15024 6.08638C4.12052 6.11719 4.09264 6.15021 4.03614 6.21258C4.09557 6.25697 4.15574 6.29218 4.20343 6.33951C4.65723 6.79001 5.1092 7.24197 5.56006 7.69504C5.61106 7.7464 5.66682 7.80143 5.69433 7.86599C5.74422 7.98192 5.72625 8.09931 5.62977 8.18809C5.53035 8.28017 5.41185 8.29742 5.29299 8.22955C5.23503 8.19653 5.18477 8.14701 5.13671 8.09931C4.67704 7.64148 4.21774 7.18254 3.76027 6.72214C3.72322 6.68472 3.699 6.63446 3.66856 6.59007C3.64581 6.58677 3.62307 6.58347 3.60032 6.58016C3.56914 6.63006 3.54639 6.68802 3.50567 6.72874C2.52727 7.71008 1.54666 8.68922 0.567159 9.66982C0.473977 9.763 0.369423 9.85619 0.235888 9.80446C0.145275 9.76924 0.0777734 9.67569 0 9.60819C0 9.5594 0 9.51061 0 9.46182L0.000366794 9.46108Z" fill="#410EAD"/>
<path d="M9.50027 7.84233C9.34766 7.84233 9.20972 7.70512 9.20899 7.55215C9.20825 7.39733 9.34252 7.26343 9.4988 7.2627C9.65802 7.26233 9.78678 7.39073 9.78678 7.55031C9.78678 7.70696 9.65435 7.84196 9.50027 7.84233Z" fill="#410EAD"/>
<path d="M7.79731 11.0422C7.79694 11.1992 7.66891 11.3291 7.51042 11.3327C7.35158 11.3368 7.2074 11.1966 7.2085 11.0389C7.20924 10.8844 7.3413 10.7535 7.49905 10.7505C7.6656 10.7476 7.79767 10.8767 7.79731 11.0422Z" fill="#410EAD"/>
</svg>
