<svg width="16" height="15" viewBox="0 0 16 15" fill="none" xmlns="http://www.w3.org/2000/svg">
<path d="M1.33545 3.24352C1.33545 3.13742 1.33545 3.0497 1.33545 2.9624C1.33545 2.32164 1.33456 1.68046 1.33589 1.0397C1.33634 0.835019 1.43341 0.743123 1.65116 0.743123C3.3954 0.742288 5.13963 0.742288 6.88386 0.743123C7.1074 0.743123 7.20047 0.836272 7.20091 1.05473C7.20225 1.72181 7.20091 2.38889 7.20091 3.05555V3.23433H8.79285V2.99373C8.63566 2.99373 8.47669 2.9954 8.31772 2.99373C8.09997 2.99081 8.00289 2.90142 8.00156 2.69716C7.99933 2.39516 7.99933 2.09274 8.00156 1.79032C8.00289 1.58564 8.09908 1.49625 8.31727 1.49374C8.47179 1.49165 8.62631 1.49374 8.79241 1.49374C8.79552 1.43276 8.79998 1.38263 8.80042 1.33209C8.80309 1.07395 8.88592 0.993747 9.15622 0.99333C9.64515 0.992912 10.1341 0.999595 10.6226 0.98957C10.8025 0.985811 10.9877 0.962837 11.1596 0.914383C12.1789 0.626165 13.1951 0.327922 14.2121 0.0334381C14.5287 -0.0580398 14.6668 0.0359442 14.6672 0.342959C14.6672 0.71806 14.6672 1.09316 14.6672 1.49333C14.7581 1.49333 14.844 1.49207 14.9299 1.49333C15.385 1.50126 15.7359 1.83209 15.7328 2.24938C15.7297 2.65873 15.3806 2.98412 14.9335 2.99331C14.8511 2.99498 14.7688 2.99331 14.6766 2.99331V3.24352C14.8471 3.24352 15.0123 3.24185 15.1775 3.24352C15.654 3.24853 15.9987 3.56683 15.9987 4.01419C16.0004 6.66663 16.0004 9.31866 15.9987 11.9711C15.9987 12.4331 15.6527 12.7476 15.1504 12.748C13.1951 12.7493 11.2398 12.7485 9.28446 12.7485C9.21856 12.7485 9.1531 12.7485 9.07695 12.7485V13.4987H10.3941C10.916 13.4987 10.9334 13.5149 10.9334 14.0095C10.9334 14.2388 10.9347 14.4682 10.933 14.6975C10.9312 14.9042 10.8363 14.9991 10.6217 14.9991C8.87167 15.0003 7.1221 15.0003 5.37207 14.9991C5.16635 14.9991 5.06883 14.9038 5.06749 14.7079C5.06482 14.4005 5.06482 14.0931 5.06749 13.7856C5.06927 13.5922 5.16857 13.5007 5.37786 13.4999C5.88817 13.4978 6.39893 13.4991 6.92127 13.4991V12.7485H6.72667C4.78784 12.7485 2.84946 12.7485 0.910634 12.7485C0.31438 12.7485 0 12.4515 0 11.8884C0 9.29359 0 6.69838 0 4.10358C0 3.53842 0.312154 3.24394 0.910189 3.24352C1.04289 3.24352 1.17603 3.24352 1.33322 3.24352H1.33545ZM7.2018 3.75145C7.2018 4.15746 7.20314 4.5522 7.20136 4.94735C7.20047 5.14492 7.10384 5.2435 6.90167 5.2435C5.14631 5.24517 3.39094 5.24517 1.63558 5.2435C1.43831 5.2435 1.33812 5.14785 1.33634 4.96322C1.33322 4.60901 1.33545 4.25479 1.335 3.90016C1.335 3.85045 1.3301 3.80032 1.32743 3.74352C1.18405 3.74352 1.05669 3.74352 0.929337 3.74352C0.609613 3.74352 0.535248 3.81202 0.535248 4.10859C0.535248 6.42729 0.535248 8.74598 0.535248 11.0647V11.2384H15.4683C15.4683 11.1887 15.4683 11.1482 15.4683 11.1077C15.4683 8.7631 15.4683 6.4181 15.4683 4.0735C15.4683 4.03716 15.4821 3.98954 15.463 3.96615C15.3997 3.88888 15.3334 3.77234 15.2515 3.75855C15.0653 3.72764 14.8694 3.74895 14.6686 3.74895C14.6686 3.8847 14.6686 4.00375 14.6686 4.12321C14.6686 4.45612 14.5385 4.54718 14.2023 4.44944C13.1479 4.1441 12.0943 3.83708 11.0389 3.53591C10.9151 3.50083 10.7811 3.49832 10.6453 3.47994C10.6288 3.55889 10.6146 3.61361 10.6061 3.66916C10.5384 4.10692 10.473 4.5451 10.4048 4.98285C10.3754 5.17124 10.2873 5.24183 10.0811 5.24392C9.87537 5.24559 9.67009 5.24434 9.46436 5.24392C9.14419 5.24392 9.06938 5.175 9.06894 4.87968C9.06894 4.50583 9.06894 4.13198 9.06894 3.75062H7.20225L7.2018 3.75145ZM6.65676 4.73724V1.25481H1.87738V4.73724H6.65676ZM15.4665 11.7597H0.542818C0.513874 12.1929 0.5682 12.2485 1.0086 12.2485C5.68423 12.2485 10.3603 12.2485 15.0359 12.2485C15.0969 12.2485 15.1588 12.2526 15.2189 12.2459C15.3641 12.2292 15.4509 12.1495 15.4648 12.0125C15.4732 11.931 15.4661 11.8479 15.4661 11.7597H15.4665ZM14.1302 0.597761C14.1093 0.597761 14.0919 0.594001 14.0772 0.598178C13.1496 0.865093 12.223 1.1341 11.295 1.39809C11.1984 1.42566 11.201 1.48163 11.201 1.55139C11.2019 2.01003 11.2046 2.46825 11.1992 2.92648C11.1979 3.02631 11.2286 3.06766 11.3355 3.09774C12.0417 3.29615 12.7449 3.50417 13.4493 3.70843C13.6729 3.77317 13.8977 3.83541 14.1302 3.90141V0.597761ZM5.60897 14.4886H10.3937V14.0078H5.60897V14.4886ZM9.3468 1.49959V2.98078H10.6595V1.49959H9.3468ZM8.53191 12.7585H7.48056V13.4865H8.53191V12.7585ZM9.90298 4.73808C9.96621 4.32538 10.029 3.91686 10.0927 3.50542H9.61443V4.73808H9.90298ZM14.6784 1.99959V2.48162C15.0373 2.51546 15.1976 2.4411 15.1998 2.2452C15.202 2.05096 15.0511 1.97745 14.6784 1.99959ZM8.54393 1.99917V2.48329H8.79063V1.99917H8.54393Z" fill="#410EAD"/>
<path d="M4.80178 10.7476C3.67963 10.7476 2.55748 10.7476 1.43533 10.7476C1.15212 10.7476 1.06885 10.6695 1.06885 10.4034C1.06885 9.13189 1.06885 7.86039 1.06885 6.58889C1.06885 6.32281 1.15167 6.24512 1.43533 6.24512C3.67963 6.24512 5.92393 6.24512 8.16823 6.24512C8.45189 6.24512 8.53471 6.32323 8.53471 6.58889C8.53471 7.86039 8.53471 9.13189 8.53471 10.4034C8.53471 10.6691 8.451 10.7472 8.16779 10.7472C7.04564 10.7472 5.92349 10.7472 4.80133 10.7472L4.80178 10.7476ZM7.99234 10.2413V6.95647C7.92599 6.99198 7.87345 7.01788 7.82357 7.0467C6.8978 7.58095 5.97024 8.11311 5.04803 8.65278C4.87525 8.75387 4.73543 8.75721 4.56043 8.65445C3.63911 8.11352 2.71111 7.58262 1.78533 7.04837C1.73145 7.01746 1.67623 6.98864 1.61256 6.95397V10.2417H7.99234V10.2413ZM7.30569 6.75806H2.30054C3.08026 7.20793 3.82969 7.63191 4.56844 8.07259C4.74256 8.1766 4.86234 8.17785 5.0369 8.07342C5.77565 7.63274 6.52508 7.20835 7.30524 6.75806H7.30569Z" fill="#410EAD"/>
<path d="M14.4013 6.74574C14.4623 6.74574 14.5055 6.74574 14.5483 6.74574C14.8586 6.74824 14.9343 6.818 14.9343 7.10246C14.9343 8.03478 14.9343 8.96669 14.9343 9.89901C14.9343 10.1726 14.8528 10.2474 14.5558 10.2474C13.118 10.2474 11.6801 10.2474 10.2422 10.2474C9.94789 10.2474 9.86863 10.1722 9.86818 9.89525C9.86818 9.68723 9.86818 9.47921 9.86818 9.24697C9.70387 9.24697 9.54579 9.24864 9.38726 9.24697C9.16817 9.24446 9.06932 9.15549 9.06887 8.95248C9.06754 7.98382 9.06754 7.01516 9.06887 6.04649C9.06887 5.8343 9.16595 5.74574 9.39661 5.74574C10.9565 5.74491 12.5168 5.74491 14.0767 5.74574C14.3047 5.74574 14.3991 5.83597 14.4009 6.05025C14.4027 6.27373 14.4009 6.49762 14.4009 6.74574H14.4013ZM10.4132 7.25283V9.73485H14.392V7.25283H10.4132ZM9.86774 8.74071C9.86774 8.17973 9.86774 7.63378 9.86774 7.08784C9.86774 6.82301 9.95101 6.74574 10.2356 6.74574C11.3844 6.74574 12.5333 6.74574 13.6822 6.74574C13.7409 6.74574 13.7993 6.74574 13.854 6.74574V6.25326H9.60991V8.74071H9.86729H9.86774Z" fill="#410EAD"/>
<path d="M3.46884 2.99323C3.46884 2.7589 3.46661 2.52415 3.46928 2.28981C3.4724 2.03794 3.65408 1.92808 3.89365 2.03835C4.40129 2.27227 4.90938 2.50619 5.40945 2.75389C5.49316 2.79566 5.56975 2.89883 5.59336 2.98739C5.62497 3.10601 5.52522 3.18538 5.41256 3.23801C4.90626 3.47443 4.40174 3.7142 3.89365 3.94769C3.65408 4.05797 3.4724 3.94811 3.46928 3.69665C3.46617 3.46232 3.46884 3.22757 3.46884 2.99323ZM4.00676 3.33742C4.25613 3.21963 4.48056 3.11353 4.73616 2.99282C4.47699 2.87126 4.24856 2.76433 4.00676 2.65113V3.33742Z" fill="#410EAD"/>
<path d="M13.8586 8.23873H12.0142V7.75586H13.8586V8.23873Z" fill="#410EAD"/>
<path d="M13.8606 8.75781V9.23901H12.5483V8.75781H13.8606Z" fill="#410EAD"/>
<path d="M11.9981 8.75977V9.23512H10.9463V8.75977H11.9981Z" fill="#410EAD"/>
<path d="M10.9385 8.23623V7.75879H11.4564V8.23623H10.9385Z" fill="#410EAD"/>
</svg>
