<svg width="15" height="13" viewBox="0 0 15 13" fill="none" xmlns="http://www.w3.org/2000/svg">
<path d="M15 1.28417C14.9121 1.71329 14.822 2.14209 14.7373 2.57184C14.2336 5.11748 13.7311 7.66376 13.2281 10.2097C13.1168 10.7727 13.0052 11.3357 12.8933 11.8987C12.8846 11.9428 12.8749 11.9866 12.864 12.03C12.634 12.9512 11.7741 13.2877 11.0229 12.7263C10.4993 12.3349 10.0065 11.8997 9.50036 11.4837C9.18868 11.2274 8.87793 10.9705 8.55721 10.7059C8.29166 10.9561 8.03015 11.2022 7.76896 11.4485C7.49624 11.706 7.22414 11.9645 6.9508 12.2214C6.63008 12.5231 6.26198 12.7046 5.81846 12.6176C5.3422 12.5243 5.0539 12.1968 4.89463 11.7466C4.65557 11.0705 4.42804 10.3906 4.19615 9.7119C3.96768 9.0425 3.73797 8.37374 3.5145 7.70274C3.47616 7.58803 3.42037 7.52828 3.30131 7.49441C2.48002 7.26084 1.65905 7.02503 0.843378 6.77133C0.642966 6.70903 0.442243 6.60454 0.277986 6.47194C-0.082319 6.18149 -0.0932279 5.70317 0.250246 5.39227C0.400166 5.2568 0.585305 5.14624 0.772626 5.07275C4.98439 3.4173 9.19772 1.76792 13.4132 0.123979C13.6052 0.0492105 13.8193 0.00543588 14.0244 0.000323509C14.4807 -0.0111793 14.8357 0.285019 14.957 0.736824C14.971 0.789226 14.9857 0.841627 15 0.89371V1.28385V1.28417ZM1.1348 5.89233C1.13667 5.90351 1.13885 5.91501 1.14072 5.9262C1.96918 6.16967 2.797 6.41539 3.62702 6.65279C3.70088 6.67388 3.80187 6.66206 3.87075 6.62627C5.92973 5.55267 7.98652 4.47428 10.0433 3.39653C10.4469 3.18501 10.8503 2.97317 11.2545 2.76292C11.4269 2.67345 11.5961 2.68176 11.7482 2.80733C11.891 2.92524 11.9455 3.08851 11.8907 3.26393C11.8579 3.36809 11.7859 3.46651 11.7114 3.54831C10.5532 4.81489 9.39158 6.07829 8.23088 7.34232C7.89675 7.70626 7.56325 8.07051 7.22414 8.44052C7.26435 8.47695 7.29552 8.50762 7.32887 8.5351C8.69684 9.66493 10.0645 10.7948 11.4331 11.9233C11.7834 12.2122 11.9511 12.1432 12.0412 11.6846C12.299 10.372 12.5589 9.05976 12.8179 7.74716C13.2434 5.59261 13.6697 3.43807 14.0902 1.28225C14.1126 1.1669 14.0843 1.04069 14.0796 0.919591C13.958 0.934928 13.8275 0.925342 13.7165 0.968797C9.78275 2.50347 5.85087 4.04261 1.91868 5.58175C1.65687 5.68432 1.39568 5.78848 1.13449 5.89201L1.1348 5.89233ZM5.53015 10.8925C5.55041 10.8322 5.56381 10.8012 5.5716 10.7689C5.75581 10.0084 5.93502 9.24636 6.12796 8.48781C6.16193 8.35425 6.23143 8.21462 6.32245 8.11429C7.29303 7.0458 8.2714 5.98467 9.24727 4.9213C9.28561 4.87944 9.32333 4.83694 9.36135 4.79476C9.35636 4.78774 9.35107 4.78103 9.34608 4.774C7.67889 5.64725 6.0117 6.52051 4.33765 7.39696C4.73411 8.55938 5.12714 9.71158 5.53015 10.8922V10.8925ZM6.27943 11.5913C6.28847 11.5958 6.2972 11.6003 6.30624 11.6051C6.82332 11.1168 7.3404 10.6283 7.86434 10.1337C7.5165 9.84674 7.18362 9.57227 6.83548 9.28502C6.64722 10.0666 6.46333 10.829 6.27943 11.5913Z" fill="#410EAD"/>
</svg>
