<svg width="15" height="15" viewBox="0 0 15 15" fill="none" xmlns="http://www.w3.org/2000/svg">
<path d="M14.9999 3.92596C14.9968 3.92973 14.9924 3.93318 14.9908 3.93757C14.7594 4.71473 14.3697 5.01605 13.5505 4.99628C13.2133 4.98812 12.9313 5.06502 12.6522 5.25428C12.1803 5.57444 11.6867 5.86195 11.2038 6.16609C11.0891 6.23829 10.9755 6.28694 10.8524 6.19874C10.7353 6.11493 10.7403 5.99754 10.7682 5.86917C10.8292 5.58856 10.8803 5.30607 10.9381 5.01197C10.8301 5.00507 10.7337 5.00256 10.6383 4.9922C9.9861 4.92032 9.51103 4.42848 9.49941 3.77404C9.48465 2.92532 9.48591 2.07598 9.49909 1.22726C9.50851 0.622416 9.91576 0.155369 10.5064 0.025424C10.5296 0.020402 10.5513 0.00878853 10.5736 0C11.697 0 12.8208 0 13.9443 0C13.9889 0.0153799 14.0331 0.0323292 14.078 0.045512C14.4928 0.16761 14.7751 0.432207 14.9261 0.835852C14.9563 0.916518 14.9754 1.00126 14.9996 1.08381V3.92565L14.9999 3.92596ZM11.3582 5.47525C11.4261 5.4357 11.4713 5.41059 11.5149 5.38329C11.9372 5.11963 12.3564 4.85158 12.7831 4.59546C12.8736 4.54116 12.9897 4.51291 13.0965 4.506C13.3056 4.49219 13.5163 4.506 13.7264 4.50067C14.1867 4.48905 14.4985 4.17581 14.5 3.72037C14.5025 2.90524 14.5029 2.08979 14.5 1.27465C14.4985 0.8211 14.1773 0.500946 13.7226 0.499691C12.7407 0.49718 11.7592 0.497493 10.7774 0.499691C10.3283 0.500632 10.0024 0.810428 9.99803 1.25802C9.99018 2.08288 9.99112 2.90806 9.99771 3.73293C10.0012 4.17675 10.3104 4.48278 10.7547 4.50004C10.8863 4.50506 11.0185 4.50098 11.1504 4.5013C11.4477 4.50255 11.5341 4.61021 11.4738 4.90525C11.4371 5.08573 11.4006 5.26653 11.3586 5.47431L11.3582 5.47525Z" fill="#410EAD"/>
<path d="M8.9912 0.000313883V0.499377C8.92746 0.499377 8.87063 0.499377 8.81411 0.499377C7.32987 0.499377 5.84564 0.499377 4.36171 0.499377C3.74723 0.499377 3.42885 0.862217 3.50766 1.49123H8.7375V1.9884H2.9924C3.01092 1.59512 2.93148 1.19775 3.07498 0.816705C3.23229 0.398936 3.53968 0.141244 3.97174 0.030446C4.00408 0.0222852 4.03548 0.0103579 4.06719 0C5.70874 0 7.34997 0 8.99152 0L8.9912 0.000313883Z" fill="#410EAD"/>
<path d="M9.73197 7.23898H9.25C9.25 7.0902 9.25 6.94079 9.25 6.79107C9.25 6.62503 9.25157 6.45899 9.24968 6.29295C9.24435 5.81555 8.93475 5.50418 8.45843 5.50293C7.5108 5.50073 6.56317 5.5023 5.61523 5.5023C5.31569 5.5023 5.24347 5.42979 5.24315 5.13036C5.24315 4.93638 5.24315 4.74209 5.24315 4.53901C5.0714 4.56412 4.91754 4.58641 4.74359 4.61183C4.74359 4.79639 4.74359 4.98032 4.74359 5.16394C4.74359 5.33971 4.74234 5.51548 4.74391 5.69125C4.74579 5.91034 4.83653 6.00073 5.05884 6.00168C5.51319 6.00325 5.96753 6.00168 6.42188 6.0023C6.66648 6.00262 6.74403 6.07983 6.74403 6.32811C6.74466 7.9882 6.74435 9.64797 6.74435 11.3081C6.74435 11.3655 6.74435 11.4226 6.74435 11.4901H7.24045V9.5083H7.74315V11.492H8.24836V10.5064H8.74949C8.74949 10.723 8.74949 10.9311 8.74949 11.1392C8.74949 11.3297 8.75263 11.5202 8.74855 11.7105C8.74447 11.9035 8.65153 11.9992 8.45748 12.0002C7.81757 12.0033 7.17765 12.0036 6.53774 12.0002C6.32297 11.9989 6.24384 11.9003 6.24384 11.654C6.24353 10.0036 6.24384 8.35355 6.24384 6.70319V6.50137C6.00992 6.50137 5.7917 6.50137 5.57316 6.50137C5.37786 6.50137 5.18224 6.50576 4.98694 6.4998C4.56682 6.48693 4.25125 6.16772 4.2456 5.74744C4.24089 5.39715 4.24466 5.04655 4.24466 4.68246C3.84778 4.73833 3.46722 4.79137 3.08666 4.84536C2.74347 4.89401 2.4009 4.94454 2.05771 4.99194C1.8712 5.01768 1.74937 4.92037 1.74874 4.73456C1.74592 3.9144 1.74592 3.09393 1.74843 2.27377C1.74906 2.07164 1.87654 1.97214 2.07749 2.01451C3.07002 2.22449 4.06192 2.43699 5.05413 2.64885C5.19731 2.6793 5.3408 2.70786 5.48336 2.74082C5.68965 2.78821 5.74303 2.85444 5.74334 3.0638C5.74428 3.6498 5.74366 4.2355 5.74366 4.8215C5.74366 4.87455 5.74366 4.92728 5.74366 4.991H6.46615C6.46772 4.98346 6.474 4.97122 6.47055 4.96557C6.16252 4.48409 6.19298 3.95332 6.29722 3.43511C6.4134 2.85727 6.98235 2.46178 7.55193 2.50102C8.18117 2.54465 8.67602 2.98721 8.72846 3.59927C8.75577 3.9166 8.73097 4.24177 8.69674 4.55973C8.68105 4.70694 8.58653 4.84567 8.52405 4.99665C8.58685 5.00386 8.65341 5.00732 8.71841 5.01924C9.25534 5.12 9.67137 5.53055 9.72538 6.07669C9.76275 6.45711 9.7326 6.84412 9.7326 7.23803L9.73197 7.23898ZM5.23499 3.20033C4.2365 2.98658 3.25056 2.77535 2.25427 2.56191V4.46055C3.25245 4.31836 4.24026 4.17774 5.23499 4.03619V3.20033ZM8.2424 4.00699H8.25433C8.24805 3.8849 8.25025 3.76217 8.23423 3.64196C8.18462 3.27221 7.86718 2.99945 7.49573 3.00008C7.12365 3.00071 6.79992 3.2719 6.76067 3.64353C6.73712 3.86544 6.73587 4.093 6.75408 4.31553C6.78673 4.71447 7.11015 5.0023 7.49698 5.00167C7.88382 5.00135 8.19907 4.7129 8.24083 4.31428C8.2515 4.2129 8.2424 4.10963 8.2424 4.00731V4.00699Z" fill="#410EAD"/>
<path d="M2.99966 5.50781H3.48917V12.5H9.24024V12.9953H3.49043C3.51303 13.3444 3.43987 13.6811 3.54381 14.0076C3.6424 14.3167 3.93064 14.5 4.28294 14.5004C5.33293 14.5016 6.38292 14.5007 7.4329 14.5007C8.14598 14.5007 8.85905 14.5007 9.57181 14.5007H9.74011V14.9931C9.69364 14.9953 9.64246 14.9994 9.59128 14.9994C7.82822 14.9997 6.06547 15.0004 4.30241 14.9994C3.53753 14.9988 2.99526 14.4702 2.99401 13.7059C2.98992 11.0116 2.99244 8.31732 2.99275 5.623C2.99275 5.58973 2.99683 5.55646 2.99997 5.50813L2.99966 5.50781Z" fill="#410EAD"/>
<path d="M11.4988 9.59862V6.50977H12.0006V6.68114C12.0006 7.78442 12.0022 8.88738 11.9984 9.99065C11.9981 10.1018 12.0248 10.1853 12.1095 10.2587C12.2191 10.3538 12.3206 10.4583 12.4264 10.5597C12.2989 10.6831 12.1874 10.791 12.0631 10.9112C12.032 10.8817 11.9902 10.8438 11.9504 10.8039C11.1318 9.98626 10.3126 9.16861 9.49494 8.34971C9.32131 8.17582 9.12286 8.08699 8.87387 8.1391C8.42517 8.23294 8.22171 8.75523 8.49174 9.12592C8.53162 9.18085 8.5806 9.22981 8.62864 9.27784C9.28771 9.93761 9.94772 10.5964 10.6071 11.2559C10.7795 11.4282 10.7902 11.4944 10.6677 11.7035C10.4674 12.0456 10.284 12.3915 10.2432 12.798C10.1929 13.2989 10.2925 13.7647 10.5798 14.1737C10.7129 14.3633 10.7704 14.5494 10.7497 14.7716C10.7434 14.8391 10.7487 14.9075 10.7487 14.9872H10.2674C10.2636 14.9819 10.2532 14.9734 10.2539 14.9668C10.2897 14.7007 10.1707 14.4888 10.0491 14.2609C9.59416 13.4072 9.61897 12.5475 10.0956 11.7076C10.1703 11.576 10.159 11.507 10.0532 11.4031C9.43968 10.8014 8.83273 10.1931 8.22767 9.58293C7.78086 9.1322 7.74256 8.47337 8.12908 8.02108C8.56741 7.50789 9.30906 7.47462 9.80485 7.95454C10.1732 8.3111 10.5321 8.67739 10.8935 9.04086C11.0825 9.23076 11.2681 9.42379 11.4552 9.61525C11.4696 9.60929 11.4841 9.60364 11.4988 9.59768V9.59862Z" fill="#410EAD"/>
<path d="M13.7473 14.9927H13.2471C13.2471 14.929 13.2471 14.8718 13.2471 14.8147C13.2471 13.2438 13.2421 11.6731 13.2496 10.1022C13.2524 9.48856 13.0659 8.95466 12.6637 8.49294C12.5453 8.35704 12.4332 8.21579 12.3076 8.06419C12.4332 7.9603 12.5557 7.85923 12.6828 7.75439C13.2512 8.34354 13.7165 8.98196 13.7375 9.83037C13.7589 10.6932 13.7463 11.5573 13.7473 12.4205C13.7482 13.2155 13.7473 14.0109 13.7473 14.8059C13.7473 14.864 13.7473 14.9221 13.7473 14.9927Z" fill="#410EAD"/>
<path d="M0.183594 2.49296C0.225041 2.32529 0.262092 2.17646 0.303539 2.00879C0.636369 2.09137 0.959153 2.17144 1.30078 2.2559C1.26184 2.41635 1.22479 2.56864 1.18303 2.74008C0.850512 2.65781 0.527728 2.57806 0.183594 2.49296Z" fill="#410EAD"/>
<path d="M1.18195 4.25928C1.22402 4.4282 1.26139 4.57766 1.30283 4.74314C0.967491 4.82697 0.64094 4.90861 0.304341 4.99276C0.262894 4.82572 0.225529 4.67657 0.184082 4.50921C0.517855 4.42569 0.840324 4.345 1.18195 4.25959V4.25928Z" fill="#410EAD"/>
<path d="M0.985619 3.2627V3.74216H0V3.2627H0.985305H0.985619Z" fill="#410EAD"/>
<path d="M8.74129 6.25732V7.23949H8.26025V6.25732H8.74129Z" fill="#410EAD"/>
<path d="M7.73951 13.5137V13.9928H7.25879V13.5137H7.73951Z" fill="#410EAD"/>
<path d="M11.1366 1.75264C11.5146 1.8603 11.73 1.6679 11.8823 1.35245C11.9159 1.28277 11.9661 1.22094 12.011 1.15722C12.1501 0.95948 12.3492 0.957283 12.4855 1.15502C12.5988 1.3195 12.7115 1.48491 12.817 1.65472C12.8641 1.73067 12.92 1.75673 13.0076 1.75453C13.2419 1.74888 13.4761 1.75453 13.7103 1.75202C13.8341 1.75045 13.9304 1.78843 13.9807 1.90895C14.0319 2.03168 13.9804 2.1249 13.8947 2.20965C13.7144 2.38824 13.5383 2.57092 13.3549 2.74606C13.294 2.80444 13.2795 2.85812 13.3012 2.93815C13.3659 3.17796 13.4199 3.42058 13.4843 3.66007C13.5141 3.77118 13.4956 3.86566 13.4105 3.93879C13.3191 4.01757 13.2155 4.01381 13.11 3.96045C12.8579 3.8327 12.607 3.70213 12.3504 3.5838C12.2946 3.55806 12.2069 3.55775 12.1511 3.58317C11.9074 3.69428 11.6691 3.81764 11.4311 3.94036C11.3158 3.99968 11.2025 4.03327 11.0901 3.94224C10.9764 3.84996 10.9937 3.72975 11.0251 3.60671C11.0829 3.38041 11.1438 3.15442 11.1909 2.9256C11.2019 2.87255 11.1789 2.79314 11.1422 2.75328C10.9695 2.56778 10.7877 2.39044 10.6062 2.2131C10.5136 2.1227 10.4681 2.02101 10.5224 1.89797C10.5742 1.78027 10.6775 1.747 10.8003 1.7517C10.9124 1.7561 11.0248 1.75264 11.1369 1.75264H11.1366ZM12.2493 1.70399C12.1551 1.84335 12.0682 1.96482 11.9894 2.09163C11.9174 2.20745 11.8189 2.2583 11.6848 2.25328C11.5868 2.24951 11.4882 2.25265 11.3899 2.25265C11.4647 2.37004 11.5469 2.45227 11.633 2.53074C11.7375 2.62585 11.7689 2.73508 11.7265 2.87287C11.6876 2.99936 11.6634 3.13056 11.6279 3.27997C11.7862 3.20181 11.9247 3.14123 12.055 3.06622C12.1872 2.99057 12.3081 2.99057 12.4406 3.06465C12.5721 3.13809 12.7106 3.19836 12.8707 3.27651C12.8315 3.11549 12.8064 2.98681 12.7684 2.86188C12.7275 2.72849 12.7637 2.62428 12.8622 2.53325C12.9499 2.45259 13.0356 2.36941 13.1222 2.28749C13.0221 2.25296 12.9404 2.24669 12.8604 2.25422C12.6839 2.27085 12.5633 2.19929 12.477 2.04643C12.4132 1.93375 12.3335 1.82986 12.249 1.70431L12.2493 1.70399Z" fill="#410EAD"/>
</svg>
