<svg width="15" height="15" viewBox="0 0 15 15" fill="none" xmlns="http://www.w3.org/2000/svg">
<path d="M0 11.5172C0.0375586 11.3421 0.068075 11.1649 0.113458 10.9913C0.250391 10.4662 0.508215 10.0056 0.889669 9.62043C1.66236 8.84075 2.4284 8.05364 3.22104 7.29429C4.13536 6.41803 5.2183 6.16817 6.43739 6.52439C6.45617 6.52986 6.47456 6.53612 6.49373 6.54003C6.50233 6.54159 6.51172 6.53768 6.53676 6.53377C6.51172 6.4411 6.48473 6.35039 6.46282 6.2585C6.19913 5.13551 6.43974 4.12982 7.2316 3.29344C8.01954 2.46136 8.82627 1.64376 9.66547 0.863683C10.5669 0.0253496 11.651 -0.204566 12.8188 0.182146C13.9874 0.56925 14.7073 1.40289 14.9378 2.61347C15.1455 3.70518 14.829 4.66003 14.0508 5.45184C13.3157 6.20024 12.5751 6.94316 11.8247 7.67592C10.8963 8.58307 9.80045 8.85131 8.55202 8.48767C8.52932 8.48102 8.50585 8.47594 8.46516 8.46538C8.50741 8.64876 8.55632 8.81925 8.58488 8.99325C8.76094 10.0681 8.46829 11.005 7.71242 11.7831C6.95108 12.5667 6.17213 13.3343 5.39396 14.1011C4.8877 14.5996 4.27425 14.8874 3.56768 14.9746C3.5399 14.9781 3.51329 14.9914 3.4863 15H2.87128C2.84428 14.991 2.81768 14.9777 2.7899 14.9742C1.48513 14.8104 0.430359 13.8864 0.10133 12.6144C0.0602503 12.4553 0.0340375 12.2922 0.000782489 12.1311C0.000782489 11.9262 0.000782489 11.7214 0.000782489 11.5165L0 11.5172ZM7.12909 6.42351C7.3697 6.18108 7.59153 5.96211 7.80554 5.73571C7.8384 5.70091 7.84818 5.63014 7.84544 5.57735C7.81806 5.0487 7.99803 4.60334 8.37244 4.23227C8.65687 3.95074 8.93856 3.66647 9.22181 3.38377C9.69834 2.9079 10.1663 2.42344 10.6541 1.9593C11.5544 1.1022 13.0465 1.4764 13.4264 2.65844C13.6909 3.48074 13.3662 4.12865 12.7805 4.62289C12.6639 4.72142 12.4976 4.70305 12.3947 4.59747C12.2911 4.49073 12.2793 4.33119 12.3795 4.21193C12.4636 4.11105 12.5645 4.02425 12.6514 3.92532C12.9006 3.64105 12.9835 3.30791 12.8998 2.94388C12.7058 2.10085 11.6878 1.79547 11.0536 2.38473C11.0356 2.40115 11.018 2.41835 11.0008 2.43556C10.2586 3.17692 9.5168 3.91867 8.77424 4.66003C8.61774 4.81644 8.50428 4.99474 8.45655 5.23561C8.87205 5.13942 9.2269 5.21136 9.51641 5.50228C9.80436 5.79202 9.86265 6.15019 9.77541 6.54941C9.99607 6.50484 10.162 6.40787 10.3063 6.27218C10.3881 6.19555 10.4632 6.1107 10.5497 6.03992C10.667 5.94412 10.8325 5.95781 10.9358 6.06104C11.0356 6.16074 11.0563 6.32419 10.9636 6.43485C10.6295 6.83251 10.2269 7.1461 9.68934 7.14493C9.38065 7.14414 9.1776 7.24933 8.99489 7.46869C8.89865 7.58443 8.78245 7.68374 8.67604 7.79127C8.65139 7.8163 8.63144 7.84601 8.60483 7.87925C8.64004 7.8945 8.66156 7.90623 8.68465 7.91366C9.65921 8.22256 10.5516 8.06068 11.2958 7.36272C12.1244 6.58499 12.9237 5.77481 13.7108 4.95486C14.3094 4.3308 14.5281 3.56168 14.3615 2.71279C14.1647 1.71023 13.5641 1.02517 12.5884 0.722527C11.6013 0.415972 10.7136 0.649408 9.97338 1.37044C9.21829 2.10593 8.47181 2.85003 7.73981 3.6086C7.52346 3.83304 7.33175 4.09932 7.19443 4.3785C6.87479 5.03032 6.86423 5.70952 7.1287 6.42312L7.12909 6.42351ZM7.86696 8.59676C7.64357 8.8212 7.43074 9.02844 7.22729 9.24428C7.18387 9.29042 7.15061 9.37018 7.15374 9.43236C7.17995 9.97313 6.99216 10.4236 6.60836 10.8005C6.2985 11.1047 5.99373 11.4144 5.68622 11.721C5.22612 12.1788 4.77503 12.6461 4.30203 13.0903C3.90297 13.4653 3.40962 13.5892 2.87597 13.4891C2.21596 13.3656 1.76173 12.971 1.56377 12.3325C1.36072 11.6776 1.5176 11.0879 2.0043 10.5984C2.73356 9.86482 3.46987 9.13753 4.19835 8.40282C4.58098 8.0165 5.03324 7.82255 5.5798 7.85501C5.62479 7.85774 5.68582 7.85305 5.71399 7.82568C5.94482 7.60398 6.16978 7.37562 6.40922 7.13711C6.33215 7.10934 6.27855 7.08588 6.22299 7.07063C5.26759 6.80357 4.40257 6.98383 3.68426 7.66497C2.86658 8.44035 2.06885 9.2388 1.29225 10.0552C0.622064 10.7598 0.425664 11.6162 0.693661 12.5507C1.241 14.4592 3.61306 15.0442 5.04263 13.6299C5.77111 12.9093 6.48981 12.1784 7.21908 11.4582C7.69991 10.9831 7.98668 10.4201 8.04419 9.74478C8.07706 9.3565 8.01954 8.98113 7.86735 8.59715L7.86696 8.59676ZM5.22612 8.46421C5.00547 8.50839 4.83606 8.59911 4.69561 8.7387C3.92135 9.50939 3.14475 10.2781 2.37832 11.0566C1.94992 11.4918 1.96635 12.1855 2.39475 12.6113C2.82355 13.0375 3.50703 13.043 3.95226 12.6219C4.06924 12.5112 4.18113 12.3955 4.29498 12.2817C4.93661 11.6404 5.57824 10.9988 6.22025 10.3579C6.37753 10.2007 6.49294 10.022 6.54067 9.77997C6.13653 9.87264 5.78403 9.80812 5.49568 9.52581C5.20226 9.23841 5.12949 8.88376 5.22612 8.46421ZM8.71907 5.77481C8.66391 5.80492 8.54732 5.84598 8.46008 5.92105C8.30163 6.05752 8.16078 6.21392 8.0125 6.36212C7.31962 7.0546 6.62753 7.74787 5.93309 8.43879C5.80593 8.56509 5.74177 8.70976 5.78207 8.8865C5.8208 9.0562 5.92761 9.17038 6.09819 9.21691C6.28129 9.26696 6.43113 9.20752 6.5618 9.07653C7.39552 8.24211 8.23003 7.40886 9.06414 6.57522C9.09153 6.54785 9.1197 6.5197 9.14161 6.48802C9.24372 6.33866 9.2582 6.1803 9.17525 6.01881C9.09427 5.86201 8.95812 5.7885 8.71907 5.77481Z" fill="#410EAD"/>
<path d="M11.9595 5.32569C11.9595 5.48874 11.8366 5.61309 11.6751 5.61504C11.508 5.617 11.3765 5.48523 11.3805 5.31944C11.384 5.16108 11.5147 5.03556 11.6743 5.03712C11.8351 5.03869 11.9599 5.16499 11.9595 5.32608V5.32569Z" fill="#410EAD"/>
</svg>
