<svg width="15" height="22" viewBox="0 0 15 22" fill="none" xmlns="http://www.w3.org/2000/svg">
<path d="M7.58715 22C6.94104 21.5694 6.46143 20.9627 5.94716 20.3961C4.50776 18.8088 3.26783 17.063 2.02221 15.3224C1.40792 14.4636 0.785112 13.6117 0.165144 12.7569C-0.0428382 12.4699 -0.0547719 12.2942 0.131616 11.9906C0.968091 10.6283 1.80797 9.2689 2.63877 7.90377C2.69843 7.80561 2.69161 7.66783 2.7223 7.55015C2.76606 7.38137 2.77856 7.19078 2.86777 7.05013C3.69459 5.7493 4.54697 4.46568 5.3664 3.16025C5.93125 2.26069 6.45916 1.33701 6.99503 0.41908C7.12231 0.200934 7.24449 -0.0017113 7.53203 1.08989e-05C7.80877 0.0017331 7.93379 0.194046 8.05426 0.407599C9.71016 3.34051 11.3592 6.27744 13.0333 9.20002C13.6181 10.2213 14.2664 11.2052 14.887 12.2058C15.0444 12.4601 15.0393 12.5859 14.8597 12.8287C13.9607 14.0446 13.0623 15.2604 12.165 16.478C12.04 16.6474 11.9008 16.784 11.6706 16.7381C11.2854 16.6612 11.1473 16.2668 11.4007 15.9465C11.8434 15.3873 12.294 14.8351 12.7401 14.2782C12.9134 14.0618 13.0833 13.8431 13.2368 13.5985C12.885 13.7547 12.5372 13.9194 12.1809 14.0652C11.0535 14.5274 9.92439 14.986 8.79242 15.4384C8.57648 15.5245 8.34805 15.5819 8.12188 15.6376C7.973 15.6744 7.83491 15.6921 7.71899 15.8276C7.5809 15.9895 7.31211 15.9281 7.18596 15.7478C7.14164 15.6847 7.0797 15.6095 7.01207 15.5905C5.32151 15.1118 3.73721 14.3615 2.13984 13.645C2.05176 13.6054 1.96368 13.5664 1.87503 13.5273C1.85685 13.5474 1.83923 13.5675 1.82104 13.587C3.78721 15.9034 5.75282 18.2192 7.72865 20.547C8.0696 20.2284 8.38214 19.9276 8.70491 19.6389C8.92767 19.4397 9.16065 19.2519 9.39705 19.07C9.57434 18.9333 9.76357 18.9477 9.89655 19.086C10.0358 19.2307 10.0471 19.411 9.90337 19.5906C9.32431 20.3145 8.74298 21.0361 8.15484 21.7526C8.07187 21.8536 7.94629 21.9185 7.84002 22H7.58488H7.58715ZM13.522 11.5876C11.736 8.60184 9.95735 5.62759 8.17814 2.65392C8.2736 4.94675 7.93265 7.2103 7.83605 9.50714C8.86743 9.61736 9.81642 9.96755 10.7489 10.3648C11.678 10.7609 12.598 11.1788 13.522 11.5876ZM6.90751 9.48188V2.75266C6.88706 2.78481 6.85296 2.83476 6.82171 2.88642C5.85965 4.50529 4.90157 6.12646 3.92928 7.73844C3.8412 7.88425 3.66277 7.97496 3.52411 8.08862C3.4366 8.16038 3.31499 8.20918 3.26044 8.29988C2.63593 9.33894 2.02107 10.3843 1.40451 11.4285C1.3744 11.4791 1.35394 11.5353 1.30848 11.6335C3.12179 10.7362 4.83849 9.72357 6.90751 9.48246V9.48188ZM7.78604 10.5187V14.6496C9.62606 13.6795 11.4644 12.8884 13.4334 12.4326C13.1839 12.3006 12.9407 12.188 12.6924 12.0887C11.5809 11.645 10.4745 11.1886 9.35329 10.7718C8.86402 10.5898 8.34123 10.5129 7.78604 10.5187ZM1.59033 12.5876C3.41046 13.3545 5.1533 14.1628 7.05412 14.5664C7.00014 13.2225 6.94729 11.9044 6.89331 10.568C6.7234 10.6122 6.56486 10.6478 6.41029 10.6949C6.2955 10.7293 6.18071 10.7695 6.07388 10.8223C4.64812 11.5244 3.18486 12.1289 1.5909 12.5882L1.59033 12.5876Z" fill="#410EAD"/>
</svg>
