<svg width="15" height="15" viewBox="0 0 15 15" fill="none" xmlns="http://www.w3.org/2000/svg">
<path d="M13.9721 0C14.1501 0.0741061 14.3452 0.122899 14.503 0.227821C14.8383 0.451607 14.9942 0.790221 14.9957 1.1901C15.0001 2.30793 15.0023 3.42576 14.9957 4.54358C14.9913 5.24576 14.4821 5.73809 13.7704 5.74029C12.8136 5.74322 11.8568 5.74102 10.9 5.74102C10.8468 5.74102 10.7933 5.74102 10.7166 5.74102C10.7166 5.79899 10.7173 5.84998 10.7166 5.90097C10.7122 6.17392 10.7258 6.44907 10.6979 6.71981C10.6623 7.06172 10.3883 7.29762 10.0453 7.32036C9.98692 7.32403 9.92822 7.32293 9.86952 7.32293C8.02421 7.32293 6.17926 7.32366 4.33395 7.32073C4.23269 7.32073 4.16225 7.35008 4.09182 7.42162C3.78108 7.73895 3.46375 8.05005 3.15155 8.36629C3.04039 8.47891 2.91823 8.55082 2.76084 8.48405C2.60676 8.41875 2.58365 8.27824 2.58438 8.12893C2.58585 7.86625 2.58475 7.60358 2.58475 7.32293C2.51138 7.32293 2.44938 7.32293 2.38774 7.32293C1.85983 7.3222 1.58138 7.04632 1.58138 6.5217C1.58138 5.11589 1.58138 3.71007 1.58138 2.30426C1.58138 2.21621 1.58065 2.12853 1.58138 2.04049C1.58615 1.58228 1.87597 1.29025 2.33455 1.28952C3.44247 1.28769 4.55076 1.28879 5.65868 1.28879C6.1224 1.28879 6.58611 1.28879 7.04982 1.28879C7.09715 1.28879 7.14484 1.28879 7.16245 1.28879C7.22225 1.0628 7.25013 0.84635 7.33634 0.656316C7.49703 0.30046 7.79272 0.095751 8.17719 0.0216449C8.19553 0.0179762 8.21241 0.00733724 8.23039 0C10.1439 0 12.0579 0 13.9714 0H13.9721ZM11.1051 0.585878C10.2217 0.585878 9.33831 0.585512 8.45454 0.585878C8.02641 0.585878 7.79199 0.819203 7.79162 1.24513C7.79089 2.32884 7.79089 3.41218 7.79162 4.49589C7.79162 4.92182 8.02641 5.15478 8.45454 5.15478C10.2166 5.15514 11.9786 5.15514 13.7407 5.15478C14.1783 5.15478 14.4105 4.92402 14.4109 4.48819C14.4116 3.40961 14.4116 2.33067 14.4109 1.2521C14.4109 0.816634 14.1787 0.585878 13.7407 0.585878C12.862 0.585145 11.9834 0.585878 11.1047 0.585878H11.1051ZM7.20574 1.8842C7.17126 1.87943 7.15695 1.8754 7.14301 1.8754C5.54202 1.87503 3.94104 1.8754 2.34005 1.87356C2.20174 1.87356 2.16579 1.94143 2.16653 2.06543C2.16983 2.58784 2.16799 3.10989 2.16799 3.6323C2.16799 4.59861 2.16799 5.56529 2.16799 6.53161C2.16799 6.71247 2.19184 6.73558 2.3694 6.73669C2.50624 6.73742 2.64271 6.73669 2.77955 6.73669C3.07598 6.73742 3.17026 6.8328 3.17136 7.13326C3.17173 7.24699 3.17136 7.36108 3.17136 7.47481L3.21722 7.49719C3.25354 7.4517 3.28472 7.40144 3.32654 7.36145C3.53785 7.16004 3.72092 6.8871 3.97295 6.78291C4.22535 6.67872 4.54783 6.73779 4.83985 6.73742C6.51421 6.73522 8.1882 6.73632 9.86255 6.73632C9.90658 6.73632 9.95867 6.75099 9.99242 6.73228C10.0445 6.70367 10.1216 6.65341 10.1234 6.60975C10.1351 6.32397 10.1293 6.03745 10.1293 5.74029C10.0588 5.74029 10.006 5.74029 9.95317 5.74029C9.45534 5.74029 8.95751 5.74102 8.45967 5.74029C7.70137 5.73882 7.20721 5.24246 7.20611 4.48159C7.20501 3.68109 7.20611 2.8806 7.20611 2.08011C7.20611 2.01737 7.20611 1.95501 7.20611 1.88347L7.20574 1.8842Z" fill="#410EAD"/>
<path d="M0 11.0428C0.0256803 10.9503 0.0484258 10.8568 0.0774079 10.765C0.296791 10.0687 0.920823 9.59548 1.65455 9.58191C2.16192 9.57237 2.67002 9.58191 3.17776 9.57677C3.26287 9.57604 3.35275 9.5588 3.43163 9.52725C5.02858 8.88744 6.62406 8.2447 8.21991 7.60232C8.25146 7.58948 8.28264 7.57517 8.31456 7.56343C8.56843 7.46805 8.75626 7.59352 8.75736 7.86499C8.75956 8.4461 8.7581 9.02685 8.7581 9.60795C8.7581 9.72498 8.7581 9.84165 8.7581 9.96491C9.42175 10.1858 9.80989 10.6282 9.77357 11.341C9.74129 11.972 9.36562 12.362 8.7581 12.5539V12.7079C8.7581 13.3279 8.74379 13.9483 8.76397 14.5676C8.77497 14.901 8.58824 15.0775 8.23312 14.9319C6.77264 14.3324 5.30556 13.7484 3.84068 13.1592C3.78712 13.1375 3.73245 13.1188 3.65981 13.0917C3.65981 13.1768 3.65981 13.2476 3.65981 13.3188C3.65981 13.7583 3.66128 14.1974 3.65908 14.6369C3.65798 14.8842 3.54609 14.9953 3.30029 14.9964C2.94407 14.9983 2.58748 14.9983 2.23125 14.9964C1.98546 14.995 1.8765 14.8842 1.87613 14.634C1.87466 14.0782 1.87576 13.522 1.87576 12.9622C1.69013 12.9442 1.50927 12.9424 1.33538 12.9068C0.661452 12.7692 0.150047 12.231 0.0267809 11.5472C0.0227454 11.5248 0.00953835 11.5039 0.0003668 11.4823C0.0003668 11.3359 0.0003668 11.1895 0.0003668 11.0428H0ZM6.86068 8.79059C6.82473 8.80086 6.80566 8.80453 6.78841 8.8115C5.77624 9.21871 4.7648 9.62813 3.75116 10.0313C3.65835 10.0684 3.65871 10.126 3.65871 10.2012C3.65981 10.9085 3.66128 11.6162 3.65688 12.3235C3.65615 12.4214 3.68366 12.4687 3.77648 12.5058C5.20137 13.0752 6.62443 13.6482 8.04785 14.2201C8.0849 14.2352 8.12416 14.244 8.16635 14.2572V8.2557C7.97191 8.33384 7.79068 8.41602 7.60285 8.47875C7.48215 8.51911 7.44216 8.57927 7.44289 8.70914C7.44913 9.65565 7.44656 10.6022 7.44583 11.5487C7.44583 11.6121 7.44693 11.6763 7.43703 11.7383C7.41575 11.8722 7.29358 11.9742 7.16151 11.9775C7.03458 11.9805 6.91315 11.8913 6.8816 11.7636C6.86655 11.7027 6.86142 11.6385 6.86105 11.5758C6.85922 11.1612 6.86032 10.7463 6.86032 10.3318C6.86032 9.82477 6.86032 9.31777 6.86032 8.79022L6.86068 8.79059ZM3.0666 10.1689C2.57794 10.1689 2.10395 10.1476 1.6329 10.174C1.01547 10.2089 0.564967 10.7093 0.587713 11.2911C0.611192 11.9005 1.08591 12.3517 1.71875 12.3587C2.13807 12.3635 2.55776 12.3598 2.97745 12.3594C3.00533 12.3594 3.03321 12.3547 3.06697 12.3517V10.1689H3.0666ZM3.06293 14.4043V12.9534H2.46825V14.4043H3.06293ZM8.75773 10.6051V11.9196C9.03508 11.8044 9.20016 11.5468 9.1976 11.2541C9.19539 10.9686 9.02701 10.7126 8.75773 10.6051Z" fill="#410EAD"/>
<path d="M11.7609 10.9808C12.0192 10.9808 12.2774 10.9786 12.5357 10.9815C12.7371 10.9837 12.8578 11.0875 12.8652 11.257C12.8725 11.4342 12.7533 11.5619 12.5504 11.5641C12.0192 11.57 11.4883 11.5696 10.9571 11.5648C10.7561 11.563 10.628 11.4353 10.6324 11.2644C10.6365 11.0912 10.763 10.9833 10.9718 10.9815C11.2348 10.9789 11.4979 10.9808 11.7613 10.9808H11.7609Z" fill="#410EAD"/>
<path d="M11.0525 13.8048C10.9472 13.7428 10.8632 13.7109 10.8023 13.654C10.6178 13.4812 10.4402 13.3007 10.2645 13.1191C10.1254 12.9757 10.1188 12.7966 10.2399 12.6781C10.3599 12.5607 10.5297 12.5651 10.6699 12.7002C10.8588 12.8825 11.0433 13.0696 11.2271 13.2571C11.3203 13.3521 11.3625 13.4757 11.2935 13.5891C11.2414 13.6745 11.1394 13.7299 11.0525 13.8044V13.8048Z" fill="#410EAD"/>
<path d="M11.3386 9.01698C11.2807 9.11971 11.2509 9.20518 11.1941 9.26572C11.025 9.44731 10.8474 9.62157 10.6684 9.79363C10.5268 9.92974 10.3595 9.93487 10.2384 9.81711C10.1192 9.70082 10.1199 9.52509 10.252 9.38715C10.4303 9.20078 10.6141 9.01955 10.7997 8.84016C10.8955 8.74734 11.0198 8.71102 11.1328 8.78366C11.2143 8.83612 11.2671 8.93334 11.3383 9.01735L11.3386 9.01698Z" fill="#410EAD"/>
<path d="M9.83679 2.86694C9.83679 2.50631 9.83569 2.14569 9.83679 1.7847C9.83789 1.46222 10.0532 1.33382 10.3302 1.49304C10.9594 1.85403 11.5878 2.21686 12.2152 2.58115C12.5006 2.74661 12.4973 2.99607 12.2089 3.16336C11.5897 3.52252 10.97 3.88058 10.3497 4.2379C10.0529 4.40886 9.83753 4.28743 9.83643 3.94918C9.83533 3.58855 9.83643 3.22793 9.83643 2.86694H9.83679ZM10.4322 2.22823V3.51335C10.8071 3.29653 11.1652 3.08926 11.5449 2.86987C11.1612 2.64829 10.8046 2.44285 10.4322 2.22823Z" fill="#410EAD"/>
<path d="M4.80355 3.66134C4.34498 3.66134 3.88603 3.66501 3.42746 3.65804C3.34014 3.65657 3.22678 3.63713 3.17285 3.581C3.11195 3.51716 3.06756 3.39463 3.08481 3.31209C3.10168 3.23028 3.1978 3.15764 3.27264 3.09821C3.30823 3.06996 3.37573 3.07656 3.42856 3.07656C4.35562 3.07546 5.28304 3.07546 6.2101 3.0762C6.43462 3.0762 6.56156 3.17708 6.56926 3.35464C6.57697 3.53807 6.45076 3.65951 6.23835 3.66061C5.75996 3.66317 5.28194 3.66134 4.80355 3.66134Z" fill="#410EAD"/>
<path d="M4.26164 5.30207C3.97879 5.30207 3.69558 5.30353 3.41272 5.3017C3.19518 5.30023 3.06714 5.18907 3.06787 5.00858C3.06824 4.82808 3.19628 4.71765 3.41456 4.71692C3.9854 4.71545 4.55623 4.71545 5.12707 4.71692C5.33912 4.71765 5.47596 4.83578 5.47559 5.01004C5.47486 5.18394 5.33802 5.30023 5.1256 5.3017C4.83762 5.30353 4.55 5.30207 4.26201 5.30207H4.26164Z" fill="#410EAD"/>
<path d="M6.27982 5.29965C6.12354 5.29745 5.99477 5.16355 5.9966 5.00506C5.99844 4.84658 6.13124 4.71524 6.28716 4.71781C6.44491 4.72038 6.57147 4.85245 6.56964 5.0124C6.56781 5.17162 6.4361 5.30185 6.27982 5.29965Z" fill="#410EAD"/>
<path d="M7.14938 13.1753C6.9942 13.1705 6.86213 13.0319 6.8658 12.8781C6.86983 12.7226 7.00667 12.5916 7.16259 12.5953C7.32034 12.599 7.44654 12.7321 7.44324 12.8913C7.43957 13.0487 7.30383 13.1801 7.14938 13.1753Z" fill="#410EAD"/>
</svg>
