<svg width="15" height="15" viewBox="0 0 15 15" fill="none" xmlns="http://www.w3.org/2000/svg">
<path d="M0.000391261 4.83533C0.0590903 4.51485 0.0880485 4.18576 0.183532 3.87662C0.30367 3.48766 0.468418 3.11122 0.631601 2.73713C0.721998 2.52973 0.89653 2.47104 1.05737 2.55791C1.21781 2.64478 1.24481 2.81069 1.14346 3.01574C0.261015 4.80403 0.372543 6.53049 1.61266 8.09416C2.77372 9.55844 4.35116 10.1239 6.17866 9.72866C8.05899 9.32209 9.26897 8.1196 9.71821 6.24835C10.3248 3.7201 8.70898 1.22628 6.16183 0.686661C5.05633 0.452658 3.99819 0.618182 3.0003 1.15154C2.75494 1.28263 2.58589 1.26267 2.49471 1.08658C2.40666 0.916752 2.48062 0.769228 2.71894 0.638139C5.81981 -1.06562 9.73465 0.808359 10.3459 4.28945C10.3822 4.49633 10.5003 4.61789 10.7004 4.65415C12.9373 5.05877 14.6395 6.82749 14.9503 9.07009C15.3146 11.697 13.6432 14.1853 11.0706 14.8356C10.7932 14.9057 10.5044 14.9319 10.2207 14.9793C10.2023 14.9824 10.1851 14.993 10.1675 15H9.40554C9.37306 14.9918 9.34097 14.9793 9.3081 14.9761C6.8854 14.7421 4.96789 12.9186 4.62705 10.5199C4.61413 10.4283 4.58087 10.3876 4.48539 10.3739C2.38318 10.0695 0.707128 8.57391 0.169444 6.51483C0.0911791 6.2147 0.0555684 5.90322 0 5.59721C0 5.34325 0 5.08929 0 4.83572L0.000391261 4.83533ZM10.3635 6.13213C12.274 6.46005 13.5728 8.13525 13.4734 9.98967C13.3795 11.7443 12.0055 13.2191 10.2864 13.4461C8.25074 13.7149 6.38763 12.2624 6.127 10.3638C5.82334 10.3908 5.52006 10.4178 5.216 10.4444C5.44727 12.478 7.34834 14.5023 9.98744 14.4119C12.5135 14.3254 14.537 12.1282 14.4083 9.56744C14.2748 6.90732 12.0936 5.36595 10.4445 5.2239C10.4175 5.52364 10.3909 5.82378 10.3631 6.13213H10.3635ZM9.85948 7.61833C10.1827 7.67037 10.3181 7.90477 10.3972 8.19551C10.4418 8.35986 10.5052 8.51912 10.5494 8.68386C10.5776 8.78874 10.6249 8.83256 10.7407 8.82748C10.9697 8.81691 11.1998 8.82004 11.4291 8.82591C11.7195 8.83295 11.9316 8.98674 12.0083 9.23522C12.0873 9.49075 12.004 9.72475 11.7672 9.90084C11.5794 10.0405 11.3911 10.1806 11.1974 10.3117C11.1219 10.363 11.1121 10.4111 11.1407 10.4917C11.217 10.7073 11.2953 10.9233 11.3544 11.1444C11.3849 11.2583 11.4033 11.3894 11.3782 11.5017C11.2898 11.902 10.8347 12.0738 10.4891 11.8421C10.2512 11.6829 10.0234 11.5087 9.78943 11.3401C9.56325 11.5044 9.34645 11.6621 9.12926 11.8198C8.98056 11.9278 8.81933 11.983 8.63424 11.938C8.2883 11.8539 8.1036 11.5326 8.20808 11.1824C8.28869 10.9132 8.38066 10.6475 8.46675 10.3818C8.21552 10.1978 7.97602 10.0214 7.73458 9.84762C7.71149 9.83119 7.66883 9.82023 7.64535 9.83001C7.33738 9.96188 7.03136 10.0977 6.72182 10.2342C6.87522 11.6144 8.17951 12.993 9.98549 12.8838C11.6917 12.7805 12.994 11.2943 12.888 9.5917C12.7968 8.13329 11.4236 6.66353 10.2215 6.72849C10.1013 7.02393 9.98275 7.31624 9.85987 7.61833H9.85948ZM8.24604 9.43988C8.24095 9.45514 8.23586 9.47001 8.23117 9.48527C8.43975 9.63592 8.64832 9.78658 8.8569 9.93684C9.13513 10.1372 9.15 10.1841 9.04317 10.5117C8.95591 10.7785 8.86942 11.0458 8.7802 11.3201C8.80642 11.3174 8.81738 11.3193 8.82325 11.315C9.00952 11.1812 9.19579 11.0478 9.38089 10.9124C9.65351 10.7133 9.92627 10.7128 10.1992 10.9108C10.3893 11.0489 10.5795 11.1875 10.7701 11.3256C10.6969 11.0098 10.5995 10.7148 10.504 10.4193C10.4371 10.2131 10.4672 10.1231 10.6449 9.9928C10.7865 9.88871 10.9294 9.78658 11.071 9.68288C11.1822 9.60188 11.2929 9.52009 11.404 9.4387C11.0702 9.40975 10.7498 9.41092 10.4293 9.40935C10.2379 9.40857 10.1553 9.34909 10.0943 9.16752C10.0262 8.96443 9.96318 8.75939 9.89627 8.55552C9.86418 8.4569 9.82857 8.35947 9.78161 8.22329C9.66891 8.57078 9.57186 8.87639 9.4705 9.18005C9.41493 9.34713 9.33002 9.4074 9.15705 9.40896C8.90816 9.41092 8.65928 9.40779 8.41001 9.41092C8.35522 9.4117 8.30083 9.42931 8.24643 9.43909L8.24604 9.43988Z" fill="#410EAD"/>
<path d="M8.90759 5.2178C8.9068 7.24948 7.25032 8.90589 5.21777 8.90707C3.17974 8.90824 1.52012 7.24517 1.52442 5.20684C1.52873 3.17555 3.18874 1.52265 5.22129 1.52539C7.25384 1.52813 8.90837 3.18533 8.90759 5.2178ZM8.32177 5.21662C8.32177 3.50855 6.93139 2.11471 5.22403 2.11118C3.50884 2.10766 2.11102 3.50151 2.11063 5.21506C2.11063 6.92234 3.50141 8.31736 5.20798 8.32088C6.92239 8.32441 8.32138 6.92978 8.32177 5.21662Z" fill="#410EAD"/>
<path d="M1.99931 1.75715C2.00088 1.91954 1.87839 2.04789 1.71795 2.05219C1.55477 2.05611 1.41663 1.91993 1.41897 1.75715C1.42132 1.60101 1.55516 1.46875 1.7109 1.46875C1.87057 1.46875 1.99736 1.59632 1.99892 1.75754L1.99931 1.75715Z" fill="#410EAD"/>
<path d="M6.53844 5.8105C6.62728 6.08598 6.72041 6.35246 6.79907 6.62286C6.90199 6.97504 6.6985 7.301 6.342 7.37065C6.17295 7.40352 6.02385 7.35148 5.88806 7.25404C5.66657 7.09517 5.44664 6.93434 5.22085 6.77078C4.98331 6.94217 4.75595 7.11826 4.51646 7.27674C4.16309 7.51113 3.70602 7.33152 3.62345 6.9226C3.60075 6.80991 3.62462 6.67999 3.65632 6.56612C3.72598 6.31372 3.81403 6.06603 3.8966 5.81128C3.65906 5.63832 3.42192 5.47554 3.19612 5.29867C2.8858 5.05605 2.88306 4.60253 3.20043 4.38222C3.30922 4.3067 3.46027 4.27187 3.59567 4.26052C3.82342 4.24096 4.0543 4.25152 4.28362 4.257C4.37089 4.25896 4.41276 4.23313 4.43819 4.14548C4.50315 3.92086 4.5779 3.69899 4.65303 3.4779C4.74695 3.20124 4.95005 3.04903 5.21537 3.04981C5.4803 3.05059 5.68144 3.20359 5.77575 3.48103C5.84462 3.68412 5.91858 3.88604 5.97259 4.09304C6.00546 4.21904 6.05907 4.26639 6.19173 4.25856C6.396 4.24643 6.60145 4.25426 6.8065 4.25583C7.13287 4.25778 7.35084 4.39826 7.43537 4.65848C7.52146 4.92379 7.43145 5.16053 7.16848 5.35345C6.96069 5.50606 6.75133 5.65672 6.53844 5.81128V5.8105ZM3.57258 4.84044C3.63245 4.88975 3.65984 4.91518 3.68998 4.9367C3.9189 5.10262 4.14939 5.26658 4.37754 5.43367C4.53133 5.54597 4.56537 5.64732 4.50941 5.82615C4.4468 6.02611 4.37871 6.22412 4.31414 6.42329C4.27931 6.5309 4.24723 6.6393 4.20261 6.78525C4.49768 6.57042 4.75634 6.37986 5.01736 6.19203C5.16137 6.08833 5.27524 6.08833 5.42042 6.19085C5.56404 6.29181 5.70453 6.39747 5.84658 6.49999C5.96202 6.58334 6.07785 6.66551 6.19369 6.74808C6.12442 6.4366 6.02933 6.14664 5.93541 5.85589C5.86575 5.64067 5.89432 5.55419 6.07942 5.41841C6.30365 5.25445 6.52905 5.09166 6.75328 4.92731C6.78068 4.90736 6.80416 4.88153 6.84916 4.84005C6.50009 4.84005 6.18312 4.84083 5.86615 4.84005C5.66539 4.83927 5.58322 4.78135 5.5206 4.59235C5.4349 4.3333 5.35312 4.07347 5.26898 3.81404C5.25528 3.77217 5.2365 3.73225 5.20715 3.65829C5.1011 3.99052 5.00875 4.28283 4.91405 4.57474C4.84674 4.78214 4.7673 4.83966 4.55168 4.84044C4.2394 4.84123 3.92751 4.84044 3.57219 4.84044H3.57258Z" fill="#410EAD"/>
</svg>
