<svg width="15" height="9" viewBox="0 0 15 9" fill="none" xmlns="http://www.w3.org/2000/svg">
<path d="M14.9997 4.14931C14.8349 6.10865 14.4019 7.68812 12.6974 8.57328C11.3168 9.29122 10.0879 9.09674 8.87018 8.03891C7.0676 6.47398 6.90289 2.877 8.55371 1.16121C10.471 -0.829028 13.6746 -0.16743 14.5999 2.4317C14.8201 3.05149 14.9034 3.71854 14.9997 4.14749V4.14931ZM14.0114 4.35469C13.7042 3.49498 13.5117 2.66253 13.1212 1.93187C12.3014 0.3942 10.2471 0.359664 9.27548 1.81372C8.20948 3.40773 8.23354 5.63426 9.33285 7.20828C10.3304 8.63689 12.2773 8.57328 13.0935 7.01198C13.5191 6.19953 13.7042 5.26711 14.0095 4.35469H14.0114Z" fill="#410EAD"/>
<path d="M0.977324 8.79517H0.129708C0.0908436 8.69702 0.0316217 8.61523 0.0316217 8.53344C0.0205176 5.99247 0.031622 3.45151 0.00016032 0.912358C-0.00909313 0.236221 0.383253 0.196235 0.910699 0.188965C0.932908 0.37254 0.973622 0.55066 0.973622 0.726965C0.977324 3.38426 0.977324 6.04337 0.977324 8.79699V8.79517Z" fill="#410EAD"/>
<path d="M7.32515 8.79153H2.69287V0.254395H7.28443C7.3233 0.323462 7.36216 0.390711 7.39917 0.459778C7.14193 0.590644 6.89209 0.816022 6.62559 0.834198C5.8594 0.886908 5.08581 0.874185 4.31592 0.848739C3.81254 0.832381 3.57565 0.990509 3.59231 1.51579C3.61637 2.26463 3.59786 3.01347 3.59786 3.85864H6.38129C6.2684 4.75652 5.64842 4.52024 5.1839 4.54023C4.69902 4.56022 4.21414 4.54569 3.66263 4.54569V8.08086C4.89889 8.19174 6.12035 8.29897 7.3381 8.42257C7.3455 8.42257 7.32885 8.63704 7.32145 8.79335L7.32515 8.79153Z" fill="#410EAD"/>
</svg>
