<svg width="16" height="15" viewBox="0 0 16 15" fill="none" xmlns="http://www.w3.org/2000/svg">
<path d="M7.25792 2.29197C7.37431 2.17454 7.48731 2.05711 7.60707 1.94611C7.6408 1.91555 7.69478 1.8882 7.73863 1.8882C8.37452 1.88338 9.0104 1.88499 9.64629 1.88499C9.65472 1.88499 9.66316 1.89142 9.67834 1.89625C9.20606 2.34505 8.73379 2.79225 8.27163 3.2314C8.37958 3.45821 8.50102 3.6609 8.57523 3.87806C8.9986 5.099 8.75403 6.19125 7.83478 7.13229C7.41479 7.5634 6.96275 7.96716 6.49891 8.40792C6.56975 8.46261 6.64059 8.50926 6.69963 8.56717C7.16684 9.02402 7.66779 9.45674 8.08946 9.94897C8.66463 10.6198 8.86703 11.4144 8.73547 12.2766C8.57692 13.3238 8.00345 14.1088 7.03359 14.6123C6.13796 15.0772 5.19678 15.1207 4.25223 14.7587C3.34141 14.4097 2.70552 13.7855 2.38168 12.9024C1.9853 11.8246 2.15566 10.8096 2.89443 9.91197C3.23177 9.50178 3.64839 9.15271 4.02958 8.77629C4.38379 9.1141 4.7245 9.43904 5.07365 9.77202C4.77848 10.0535 4.4715 10.3399 4.17126 10.6342C3.80525 10.9946 3.6214 11.4321 3.65176 11.934C3.70405 12.7962 4.37198 13.4847 5.27268 13.5812C6.23747 13.6842 7.09431 13.0649 7.26467 12.1898C7.38443 11.5753 7.21407 11.0428 6.74685 10.5989C5.6505 9.55486 4.55583 8.51087 3.46116 7.46527C3.12888 7.14677 2.79154 6.83148 2.57227 6.42289C2.3665 6.04165 2.24168 5.64432 2.2012 5.21804C2.12867 4.46842 2.31758 3.78154 2.76456 3.17027C3.34647 2.3724 4.14934 1.91716 5.16979 1.81903C5.91194 1.74665 6.59505 1.91716 7.25623 2.29518L7.25792 2.29197ZM5.49026 7.40736C5.93218 6.98269 6.36566 6.57088 6.79071 6.15425C7.36081 5.59606 7.4384 4.7998 7.12973 4.18852C6.77047 3.48073 5.97097 3.09145 5.17991 3.22174C4.27415 3.37135 3.62983 4.12418 3.65345 4.98157C3.66525 5.45611 3.86091 5.85987 4.2168 6.19447C4.63848 6.59019 5.05678 6.99234 5.49026 7.40575V7.40736Z" fill="#410EAD"/>
<path d="M9.41177 4.92737C9.41514 3.1965 10.9214 1.72301 12.856 1.80344C14.5899 1.87583 16.0068 3.22385 16 4.95311C15.9933 6.74349 14.4483 8.12047 12.6131 8.08347C10.8539 8.04647 9.3949 6.62446 9.41177 4.92737ZM12.6991 6.67915C13.7179 6.69684 14.5309 5.87484 14.5292 4.95471C14.5258 3.97668 13.7196 3.19811 12.7008 3.19811C11.7107 3.19811 10.8741 3.98311 10.8741 4.91932C10.8741 5.93758 11.7428 6.69202 12.6991 6.67915Z" fill="#410EAD"/>
<path d="M1.42508 1.8916V7.98825H0.00488281V1.8916H1.42508Z" fill="#410EAD"/>
<path d="M0 1.36089V0H1.43201C1.43201 0.0643446 1.43201 0.1303 1.43201 0.197861C1.43201 0.543714 1.43201 0.891173 1.43201 1.23703C1.43201 1.30298 1.43875 1.36411 1.33418 1.3625C0.893951 1.35928 0.455409 1.3625 0 1.3625V1.36089Z" fill="#410EAD"/>
</svg>
