<svg width="16" height="15" viewBox="0 0 16 15" fill="none" xmlns="http://www.w3.org/2000/svg">
<path d="M7.50862 12.281C6.8925 12.2514 6.27973 12.2652 5.67322 12.127C3.71258 11.68 2.20569 9.96269 2.02578 7.95697C1.80872 5.53634 3.38574 3.37452 5.75503 2.859C6.04806 2.79513 6.35278 2.76049 6.65249 2.75673C7.33915 2.74838 8.02956 2.7296 8.71288 2.78261C10.7077 2.93789 12.4325 4.45898 12.8754 6.41168C13.4811 9.08401 11.7947 11.6683 9.09399 12.1671C8.57638 12.2627 8.03791 12.246 7.50862 12.281ZM6.75851 11.7501C9.10192 11.7459 11.0083 9.83162 11.0016 7.48904C10.9949 5.15148 9.0894 3.25096 6.75183 3.25054C4.40843 3.25054 2.49956 5.16025 2.50123 7.50365C2.5029 9.84664 4.41552 11.7543 6.75851 11.7501ZM12.5114 7.75786H11.5117C11.4587 8.09097 11.4065 8.41572 11.3543 8.74381H12.3353C12.3937 8.41822 12.4513 8.09472 12.5118 7.75786H12.5114ZM12.5148 7.24276C12.4501 6.89589 12.39 6.57322 12.3315 6.25932H11.3543C11.4078 6.59284 11.4595 6.91801 11.5117 7.24276H12.5148ZM10.6589 10.2495C10.9181 10.2495 11.1815 10.2503 11.4445 10.2482C11.4674 10.2482 11.4975 10.2361 11.5117 10.2194C11.7563 9.92971 11.9596 9.61456 12.1203 9.25015C11.8118 9.25015 11.5263 9.24764 11.2412 9.25307C11.2061 9.2539 11.1565 9.28813 11.1394 9.32027C10.9791 9.62207 10.8246 9.92679 10.6589 10.249V10.2495ZM12.1161 5.74255C11.9604 5.38524 11.7571 5.07551 11.5184 4.78749C11.5013 4.76704 11.4658 4.75201 11.4386 4.75201C11.1769 4.7495 10.9148 4.75034 10.651 4.75034C10.8338 5.08887 11.0079 5.41153 11.1865 5.74255H12.1161ZM10.9841 4.24985C10.4047 3.77482 9.79442 3.48096 9.14199 3.34697C9.47134 3.62205 9.81571 3.9109 10.1626 4.19725C10.1951 4.22439 10.2427 4.24651 10.2841 4.24776C10.5011 4.25277 10.7186 4.25027 10.9845 4.25027L10.9841 4.24985ZM10.9828 10.7504C10.7132 10.7504 10.4869 10.7491 10.2611 10.752C10.2331 10.752 10.201 10.7675 10.1789 10.7854C9.82573 11.0793 9.47384 11.3748 9.14283 11.6524C9.79233 11.5197 10.4047 11.2258 10.9828 10.7504Z" fill="#410EAD"/>
<path d="M1.74295 5.75049V6.2443H1.01204C1.00703 6.28938 1.00119 6.31902 1.00119 6.34824C1.00077 6.87335 1.00244 7.39889 0.998682 7.924C0.998265 8.00749 1.02331 8.05048 1.09886 8.09097C1.41736 8.26253 1.56262 8.59605 1.4758 8.93291C1.38855 9.27103 1.09093 9.50228 0.74489 9.50019C0.406361 9.4981 0.112913 9.2681 0.0265067 8.93709C-0.0615693 8.60023 0.0820237 8.26212 0.398847 8.0939C0.483584 8.04923 0.502368 7.99914 0.50195 7.91315C0.499028 7.30455 0.500281 6.69637 0.500698 6.08777C0.500698 5.83147 0.580425 5.75132 0.834635 5.75091C1.13476 5.75007 1.43531 5.75091 1.74295 5.75091V5.75049ZM0.999517 8.75092C0.999517 8.61651 0.889318 8.5038 0.754908 8.50172C0.614237 8.49963 0.497776 8.61734 0.501533 8.75801C0.50529 8.89242 0.619246 9.00179 0.753655 8.9997C0.888065 8.99761 0.998682 8.88574 0.9991 8.75133L0.999517 8.75092Z" fill="#410EAD"/>
<path d="M13.2593 9.50021V9.00014H13.9881C13.9931 8.95923 14.0015 8.925 14.0015 8.89077C14.0023 8.36983 14.0002 7.84931 14.004 7.32836C14.0044 7.24571 13.9823 7.20147 13.9054 7.16014C13.5849 6.98816 13.44 6.65548 13.5268 6.31779C13.6141 5.97884 13.9117 5.748 14.2586 5.75051C14.5979 5.75301 14.8901 5.98301 14.9766 6.3157C15.0642 6.65339 14.921 6.98816 14.6 7.15806C14.5124 7.20439 14.5007 7.25865 14.5011 7.34172C14.5032 7.95116 14.5028 8.56059 14.5019 9.16961C14.5019 9.41547 14.4189 9.49896 14.1755 9.49937C13.8741 9.50021 13.5732 9.49937 13.2593 9.49937V9.50021ZM14.2561 6.74898C14.3905 6.74606 14.5007 6.63336 14.5007 6.49895C14.5007 6.35911 14.3792 6.24348 14.2394 6.25058C14.1058 6.25726 13.9981 6.37455 14.0027 6.50813C14.0073 6.64254 14.1225 6.75149 14.2561 6.74856V6.74898Z" fill="#410EAD"/>
<path d="M2.81025 11.0638C2.9434 11.1974 3.05319 11.3076 3.16297 11.4174C2.99099 11.5956 2.82778 11.776 2.65079 11.9417C2.60529 11.9847 2.51722 11.9964 2.44834 11.9976C2.16241 12.0035 1.87647 12.0022 1.59054 11.9989C1.5058 11.9976 1.45404 12.0139 1.40813 12.0999C1.23865 12.4188 0.903045 12.562 0.566186 12.4747C0.228909 12.3871 -0.00150775 12.089 0.00099678 11.743C0.00350131 11.4045 0.233501 11.1118 0.564516 11.0259C0.901793 10.9382 1.23824 11.0814 1.40729 11.399C1.45237 11.4838 1.50246 11.5038 1.58845 11.5017C1.80134 11.4971 2.01506 11.4942 2.22794 11.5026C2.34566 11.5071 2.43624 11.4804 2.51304 11.3865C2.60154 11.2784 2.70213 11.1803 2.81025 11.0638ZM0.738581 11.9993C0.872157 12.0055 0.990287 11.8999 0.99947 11.7659C1.00907 11.6269 0.895115 11.5038 0.754861 11.5013C0.621286 11.4988 0.506077 11.6086 0.501903 11.7426C0.497311 11.8766 0.605006 11.993 0.738581 11.9997V11.9993Z" fill="#410EAD"/>
<path d="M3.17388 3.54608C3.04114 3.68801 2.93512 3.80071 2.80405 3.94055C2.69301 3.81824 2.59575 3.69552 2.48096 3.59158C2.4267 3.54233 2.34071 3.50768 2.26682 3.50392C2.04893 3.49265 1.82937 3.50476 1.61105 3.49766C1.50628 3.49432 1.4491 3.52354 1.39441 3.62205C1.21116 3.9514 0.825049 4.0808 0.479424 3.94639C0.139643 3.81407 -0.0598848 3.45175 0.016086 3.10362C0.0958135 2.7367 0.415141 2.48291 0.783308 2.50253C1.06507 2.51756 1.2792 2.65238 1.40986 2.90284C1.44993 2.98006 1.49459 3.00343 1.57766 3.00176C1.86401 2.99717 2.15078 2.99091 2.43672 3.0051C2.53105 3.0097 2.63875 3.05394 2.71263 3.11405C2.8771 3.24804 3.02403 3.40332 3.1743 3.5465L3.17388 3.54608ZM0.756592 3.00093C0.622182 2.99801 0.507392 3.10529 0.501548 3.24011C0.495704 3.37995 0.611747 3.49975 0.752001 3.49891C0.886411 3.49766 0.997862 3.38663 0.999115 3.25222C1.00037 3.11781 0.890585 3.00427 0.756175 3.00135L0.756592 3.00093Z" fill="#410EAD"/>
<path d="M11.8223 11.436C11.9496 11.31 12.0598 11.2002 12.2067 11.0549C12.3094 11.1726 12.4029 11.2983 12.5164 11.4026C12.5736 11.4552 12.6655 11.4916 12.7435 11.4957C12.9614 11.5082 13.181 11.4949 13.3993 11.5024C13.4999 11.5057 13.5529 11.4765 13.6034 11.3843C13.7624 11.0937 14.0889 10.9493 14.3961 11.0161C14.7196 11.0862 14.9525 11.3342 14.9968 11.6556C15.0398 11.9674 14.8665 12.2838 14.5756 12.4257C14.2199 12.599 13.7912 12.4633 13.5976 12.1043C13.5529 12.0213 13.5053 11.9975 13.4181 11.9987C13.1371 12.0033 12.855 12.0117 12.5749 11.9945C12.4718 11.9883 12.3566 11.9357 12.2752 11.8693C12.1149 11.7391 11.9746 11.5842 11.8231 11.4365L11.8223 11.436ZM14.2537 11.9987C14.3882 11.997 14.4996 11.886 14.5009 11.7516C14.5025 11.6118 14.3819 11.4949 14.2421 11.5007C14.1081 11.5062 13.9995 11.6218 14.0029 11.7558C14.0062 11.8902 14.1198 12.0004 14.2537 11.9991V11.9987Z" fill="#410EAD"/>
<path d="M11.8345 3.56382C12.0031 3.39601 12.163 3.22529 12.337 3.07042C12.3884 3.02451 12.4786 3.0053 12.5516 3.00322C12.8425 2.9957 13.1339 2.99737 13.4248 3.00197C13.5079 3.00322 13.5513 2.97901 13.5922 2.90304C13.763 2.58413 14.0965 2.43886 14.4329 2.52485C14.7719 2.61126 15.0031 2.90763 15.0019 3.25367C15.0006 3.59262 14.7723 3.88607 14.4417 3.97372C14.1052 4.06305 13.7655 3.92029 13.5968 3.60514C13.5526 3.52291 13.5062 3.49661 13.4178 3.4987C13.189 3.50412 12.9598 3.49327 12.7319 3.50454C12.6589 3.5083 12.5729 3.54461 12.5195 3.5947C12.4059 3.69989 12.3099 3.82345 12.2026 3.9445C12.0649 3.80216 11.9572 3.69071 11.8349 3.56423L11.8345 3.56382ZM14.501 3.25701C14.5047 3.12302 14.397 3.00697 14.263 3.00155C14.1224 2.9957 14.003 3.1105 14.0034 3.25158C14.0034 3.38599 14.1144 3.49786 14.2493 3.49953C14.3832 3.5012 14.4972 3.39184 14.501 3.25743V3.25701Z" fill="#410EAD"/>
<path d="M9.3418 12.9412C9.45158 12.8106 9.55134 12.6916 9.66154 12.5605C9.73751 12.6227 9.80847 12.6799 9.8786 12.738C10.1186 12.9375 10.3616 13.1341 10.5974 13.3386C10.7619 13.481 10.8975 13.602 11.1626 13.5169C11.4573 13.4221 11.7908 13.6387 11.9281 13.9272C12.0696 14.224 12.002 14.5754 11.7595 14.8C11.5182 15.0233 11.1605 15.0634 10.8758 14.8985C10.5987 14.7382 10.4442 14.4043 10.5214 14.0987C10.5494 13.9873 10.5302 13.9251 10.4388 13.8516C10.074 13.5582 9.71748 13.2543 9.3418 12.9408V12.9412ZM11.2507 14.4991C11.3847 14.4991 11.4978 14.3889 11.5007 14.2549C11.5036 14.115 11.3851 13.9973 11.2448 14.0011C11.1108 14.0048 11.001 14.1192 11.0027 14.2532C11.0044 14.3876 11.1167 14.4991 11.2507 14.4995V14.4991Z" fill="#410EAD"/>
<path d="M5.25093 2.49738H4.77298C4.76589 2.48235 4.7517 2.46774 4.7542 2.45605C4.80763 2.17638 4.67656 1.98144 4.46743 1.81948C4.41859 1.7815 4.37727 1.73308 4.33469 1.68758C4.19402 1.53731 4.07965 1.40916 3.81417 1.48429C3.50611 1.57154 3.18302 1.3382 3.05863 1.03515C2.93466 0.732517 3.01439 0.397328 3.2615 0.184025C3.51321 -0.0330344 3.86467 -0.0605844 4.14643 0.114733C4.42569 0.28838 4.56469 0.621483 4.46994 0.938724C4.43529 1.05393 4.46451 1.11696 4.54382 1.1921C4.72916 1.367 4.90113 1.55651 5.08855 1.72932C5.20919 1.84077 5.26763 1.96308 5.25344 2.12796C5.243 2.24567 5.25135 2.36505 5.25135 2.49738H5.25093ZM3.9995 0.75798C4.00368 0.623988 3.8964 0.507527 3.76199 0.501683C3.62173 0.495422 3.50193 0.609795 3.50152 0.750884C3.50152 0.885294 3.61213 0.99758 3.74654 0.999667C3.88054 1.00175 3.99491 0.89239 3.99908 0.758397L3.9995 0.75798Z" fill="#410EAD"/>
<path d="M10.2683 2.49292H9.75612C9.75612 2.31342 9.74611 2.13268 9.76155 1.95444C9.76698 1.89183 9.82667 1.82629 9.87551 1.77579C10.0746 1.57 10.2771 1.36755 10.4824 1.16802C10.5434 1.10833 10.5668 1.06032 10.5384 0.967239C10.4344 0.626623 10.5743 0.28058 10.8706 0.104846C11.1628 -0.0683845 11.5352 -0.0224681 11.7777 0.216715C12.0206 0.456732 12.072 0.825316 11.9033 1.12169C11.7305 1.42515 11.3803 1.56791 11.0309 1.46355C10.9466 1.43851 10.8969 1.45061 10.8427 1.51239C10.7771 1.58628 10.7033 1.65265 10.634 1.72319C10.4248 1.93733 10.1331 2.10805 10.2687 2.49292H10.2683ZM11.5005 0.756441C11.5039 0.622031 11.3958 0.506823 11.2618 0.501814C11.1211 0.496387 11.0021 0.611596 11.003 0.752684C11.0038 0.887094 11.1148 0.998546 11.2497 0.999798C11.3837 1.00105 11.4972 0.891268 11.5005 0.756859V0.756441Z" fill="#410EAD"/>
<path d="M5.0633 12.5824C5.19145 12.7056 5.30332 12.8129 5.42687 12.9314C5.13175 13.2257 4.84415 13.5179 4.54945 13.8026C4.46722 13.8823 4.43633 13.9491 4.47181 14.0685C4.56573 14.3874 4.41588 14.7305 4.12911 14.8975C3.83483 15.069 3.46541 15.0219 3.22372 14.7818C2.9812 14.541 2.93069 14.1728 3.09975 13.8781C3.26588 13.5884 3.60817 13.4327 3.92499 13.5283C4.05314 13.5671 4.12118 13.5325 4.20466 13.4461C4.486 13.1547 4.77486 12.8713 5.0633 12.582V12.5824ZM3.99971 14.2475C3.99845 14.1136 3.88659 14.0017 3.75218 14.0008C3.6186 14 3.50464 14.1106 3.50172 14.2446C3.49838 14.3849 3.61693 14.503 3.75677 14.4992C3.89118 14.4955 4.00096 14.382 3.99971 14.248V14.2475Z" fill="#410EAD"/>
<path d="M7.75144 2.24712H7.25136C7.25136 2.03549 7.24719 1.82469 7.25303 1.61431C7.25596 1.51246 7.2355 1.4511 7.13198 1.39683C6.82893 1.23696 6.69077 0.88758 6.77843 0.559069C6.86608 0.229306 7.1612 0.00139398 7.50056 0.000976562C7.83993 0.000976562 8.13588 0.228054 8.22437 0.556982C8.31245 0.885911 8.17554 1.23446 7.87291 1.396C7.77147 1.45027 7.74684 1.50912 7.74977 1.61264C7.75644 1.81927 7.75185 2.02631 7.75185 2.24754L7.75144 2.24712ZM7.49681 0.999449C7.6308 1.00195 7.74559 0.893007 7.75018 0.758597C7.75477 0.624605 7.6475 0.508144 7.51351 0.501465C7.37325 0.494787 7.25303 0.60916 7.25262 0.749831C7.2522 0.884241 7.3624 0.996945 7.49681 0.999032V0.999449Z" fill="#410EAD"/>
<path d="M7.25102 12.7573H7.75109C7.75109 12.9802 7.75484 13.2019 7.749 13.4231C7.74691 13.5062 7.77196 13.5496 7.84835 13.5905C8.16684 13.7616 8.31252 14.096 8.22611 14.4316C8.13887 14.7705 7.84167 15.0018 7.49646 15.0001C7.15751 14.9985 6.86407 14.7689 6.77724 14.4383C6.68875 14.1014 6.83193 13.7625 7.14791 13.5943C7.2314 13.55 7.25477 13.5016 7.25269 13.4143C7.24768 13.2015 7.25102 12.9882 7.25102 12.7573ZM7.74984 14.2567C7.75401 14.1231 7.64548 14.0071 7.51149 14.0012C7.37833 13.9954 7.2602 14.1023 7.25227 14.2358C7.24392 14.3757 7.35788 14.498 7.49813 14.4992C7.63212 14.5005 7.74608 14.3911 7.74984 14.2567Z" fill="#410EAD"/>
<path d="M8.89982 4.74617C8.79922 4.87557 8.70405 4.99788 8.60053 5.13104C7.89425 4.60801 7.11075 4.39846 6.24502 4.54539C5.56504 4.6606 4.99484 4.98243 4.52608 5.48877C3.70668 6.3737 3.33851 8.02794 4.43383 9.4238C4.31528 9.52273 4.19631 9.62208 4.07735 9.72142C3.18448 8.7864 2.81256 6.8337 4.01098 5.32597C5.25698 3.75897 7.48142 3.60745 8.89941 4.74659L8.89982 4.74617Z" fill="#410EAD"/>
<path d="M5.40869 10.725C5.47172 10.5743 5.531 10.4315 5.59403 10.2808C6.81707 10.7083 7.93451 10.5384 8.85743 9.62087C9.78202 8.70171 9.95901 7.58678 9.53324 6.3462C9.60128 6.31656 9.67516 6.28275 9.74988 6.25145C9.82126 6.22139 9.89347 6.19342 9.96527 6.16504C10.4315 7.09088 10.3814 8.65872 9.3934 9.79703C8.41956 10.9186 6.71689 11.3265 5.40953 10.725H5.40869Z" fill="#410EAD"/>
<path d="M4.67559 6.66009C4.82586 6.72145 4.96945 6.7803 5.1168 6.84083C4.85424 7.70281 5.03248 8.43955 5.78676 8.94756C6.49972 9.42801 7.22311 9.33534 7.91478 8.82108C8.01997 8.94004 8.12474 9.05859 8.2291 9.17672C7.64429 9.75485 6.46215 10.0237 5.4787 9.35454C4.61756 8.76848 4.25148 7.5709 4.67517 6.65967L4.67559 6.66009Z" fill="#410EAD"/>
<path d="M5.58811 6.18074C5.47916 6.05677 5.37731 5.94073 5.27588 5.8251C5.81519 5.27702 6.93513 4.99401 7.90146 5.5663C8.75467 6.07138 9.21843 7.19717 8.91663 8.05747C8.7672 8.01865 8.61692 7.97941 8.46123 7.93892C8.59981 7.08112 8.34017 6.40156 7.57504 5.96201C7.08707 5.68192 6.32903 5.6022 5.58811 6.18033V6.18074Z" fill="#410EAD"/>
<path d="M5.75149 7.49356C5.75525 6.94173 6.20815 6.49634 6.76207 6.50052C7.31265 6.50469 7.7572 6.96052 7.75094 7.51485C7.74468 8.05917 7.29511 8.5008 6.74829 8.50039C6.19688 8.49955 5.74773 8.04623 5.75149 7.49398V7.49356ZM6.7533 7.99906C7.02588 7.99781 7.24878 7.77449 7.25045 7.5015C7.25212 7.23101 7.02629 7.00268 6.75664 7.00059C6.47697 6.9985 6.24864 7.22725 6.25198 7.50609C6.25532 7.77825 6.48114 7.9999 6.75372 7.99865L6.7533 7.99906Z" fill="#410EAD"/>
</svg>
