<svg width="16" height="15" viewBox="0 0 16 15" fill="none" xmlns="http://www.w3.org/2000/svg">
<path d="M0 3.63286V2.87124C0.123675 2.58123 0.349108 2.49238 0.654773 2.49395C2.20736 2.50217 3.76035 2.49786 5.31333 2.49747C5.37399 2.49747 5.43505 2.49199 5.49571 2.48886V1.51081C5.12782 1.42941 5.00453 1.27638 5.00375 0.908874C5.00375 0.776981 5.0014 0.645087 5.00453 0.513584C5.01158 0.204397 5.21392 0.00127197 5.5235 0.000880597C7.67685 -0.000293533 9.8306 -0.000293533 11.984 0.000880597C12.2837 0.000880597 12.4884 0.200874 12.5037 0.501451C12.51 0.62317 12.5053 0.74567 12.5053 0.867389C12.5053 1.26581 12.3988 1.40749 12.0113 1.51668C12.0094 1.55739 12.0051 1.60083 12.0051 1.64388C12.0051 3.27944 12.0063 4.91501 12.0016 6.55057C12.0016 6.66916 12.0505 6.70516 12.1495 6.73921C13.9044 7.34076 15.05 9.01311 15.0015 10.898C14.9553 12.6987 13.6962 14.3229 11.9476 14.8204C11.6544 14.9037 11.348 14.9413 11.0474 15H10.4615C10.3468 14.9816 10.2329 14.9613 10.1179 14.9456C8.44121 14.7135 6.99742 13.3903 6.62562 11.7379C6.57161 11.4972 6.5399 11.2514 6.49607 10.999C6.43345 10.999 6.37553 10.999 6.31721 10.999C4.66717 10.999 3.01673 10.9993 1.36669 10.9978C1.26023 10.9978 1.14986 10.9947 1.04772 10.968C0.704478 10.8776 0.499788 10.5841 0.499788 10.197C0.499005 8.19083 0.499788 6.18463 0.499788 4.17844C0.499788 4.12208 0.499788 4.06572 0.499788 4.00192C0.237566 3.98823 0.100975 3.83363 0.000782771 3.63286H0ZM6.01194 1.50181V10.4906H6.50938C6.61153 9.23228 7.13049 8.18887 8.12341 7.40768C9.11477 6.62806 10.2505 6.36897 11.4889 6.56231V1.50181H6.01194ZM0.998402 4.00936V4.16004C0.998402 6.16193 0.998402 8.16382 0.998402 10.1657C0.998402 10.2049 0.995662 10.2448 1.0031 10.2823C1.02502 10.3919 1.08568 10.4831 1.20114 10.4874C1.46218 10.4976 1.72401 10.4906 1.99759 10.4906C1.99759 10.4236 1.99759 10.3708 1.99759 10.318C1.99759 9.89801 1.99641 9.47807 1.99798 9.05812C1.99954 8.69962 2.20306 8.49845 2.56391 8.49806C3.01791 8.49728 3.47229 8.49728 3.92629 8.49806C4.30514 8.49845 4.50083 8.69531 4.50201 9.07808C4.50318 9.49803 4.50201 9.91797 4.50279 10.3379C4.50279 10.3892 4.50748 10.4401 4.50983 10.4866H5.49023V4.00936H0.998402ZM7.00251 10.7528C7.00368 12.8189 8.68191 14.4986 10.7472 14.5006C12.8156 14.5026 14.5048 12.8142 14.5032 10.7453C14.5021 8.68044 12.8235 7.00339 10.7554 7.00065C8.68191 6.99791 7.00134 8.6777 7.00251 10.7524V10.7528ZM5.51137 0.506539V0.98715H11.9961V0.506539H5.51137ZM5.49571 3.00978H0.508007V3.48844H5.49532V3.00978H5.49571ZM3.99282 10.4906V9.00685H2.5099V10.4906H3.99282Z" fill="#410EAD"/>
<path d="M7.49749 2.25343C7.59025 2.25343 7.683 2.2503 7.77576 2.25421C8.01332 2.26439 8.2141 2.42799 8.23719 2.66438C8.25833 2.88159 8.25911 3.1035 8.23993 3.32072C8.21801 3.57081 8.0145 3.74066 7.76206 3.74849C7.59612 3.75358 7.43017 3.75201 7.26423 3.74927C6.97735 3.74419 6.77227 3.55711 6.75427 3.27101C6.74292 3.09137 6.74252 2.90938 6.75427 2.72974C6.77227 2.44208 6.975 2.25852 7.26384 2.25265C7.34172 2.25108 7.42 2.25265 7.49827 2.25265C7.49827 2.25265 7.49827 2.25343 7.49827 2.25382L7.49749 2.25343ZM7.26266 2.75752V3.24361H7.74327V2.75752H7.26266Z" fill="#410EAD"/>
<path d="M9.25685 3.0011C9.25685 2.90365 9.25177 2.80581 9.25764 2.70835C9.2729 2.45826 9.47289 2.26258 9.72611 2.25396C9.90654 2.2477 10.0874 2.24849 10.2678 2.25357C10.5335 2.26101 10.7386 2.46022 10.7503 2.72714C10.7586 2.90717 10.7582 3.08838 10.7503 3.2688C10.7386 3.54042 10.5296 3.7408 10.2556 3.74824C10.0948 3.75255 9.93354 3.75098 9.7723 3.74902C9.4635 3.74472 9.26077 3.54316 9.25411 3.23515C9.25255 3.15726 9.25411 3.07899 9.25411 3.00071C9.2549 3.00071 9.25529 3.00071 9.25607 3.00071L9.25685 3.0011ZM10.2423 3.24415V2.75884H9.76329V3.24415H10.2423Z" fill="#410EAD"/>
<path d="M7.50594 5.7457C7.41319 5.7457 7.32043 5.74923 7.22768 5.74492C6.98815 5.73396 6.78855 5.57272 6.76585 5.33554C6.74472 5.11363 6.74472 4.88663 6.76585 4.66472C6.78816 4.4295 6.98737 4.262 7.22611 4.25143C7.40653 4.2436 7.58735 4.24399 7.76778 4.25065C8.01904 4.25965 8.21864 4.43381 8.24095 4.68429C8.25934 4.89211 8.25974 5.10424 8.24095 5.31206C8.21786 5.57115 8.01747 5.73749 7.75447 5.7457C7.6715 5.74844 7.58852 5.7461 7.50555 5.7461C7.50555 5.7461 7.50555 5.7457 7.50555 5.74531L7.50594 5.7457ZM7.26055 5.24083H7.74273V4.75435H7.26055V5.24083Z" fill="#410EAD"/>
<path d="M9.99518 5.74546C9.90242 5.74546 9.80927 5.74976 9.71691 5.74467C9.46486 5.73019 9.26761 5.53411 9.25743 5.28128C9.25039 5.10086 9.25156 4.92004 9.25626 4.73962C9.26369 4.46487 9.46447 4.26057 9.73843 4.25079C9.91377 4.24453 10.0899 4.24453 10.2656 4.25079C10.5376 4.26097 10.7415 4.46644 10.7513 4.73962C10.7572 4.90517 10.7556 5.07151 10.7521 5.23745C10.7462 5.53646 10.5423 5.7392 10.2437 5.74663C10.1607 5.74859 10.0778 5.74663 9.99478 5.74663C9.99478 5.74624 9.99478 5.74546 9.99478 5.74507L9.99518 5.74546ZM9.76505 4.75606V5.23549H10.246V4.75606H9.76505Z" fill="#410EAD"/>
<path d="M4.25404 4.50223C4.33232 4.50223 4.4102 4.50027 4.48848 4.50262C4.78553 4.51162 4.98592 4.69909 5.00118 4.99341C5.01018 5.16366 5.00979 5.33508 5.00118 5.50572C4.98631 5.79808 4.78279 5.99298 4.48965 6.0012C4.32879 6.0059 4.16755 6.00629 4.00669 6.0012C3.71942 5.99181 3.52021 5.80082 3.50377 5.51472C3.49438 5.35426 3.49751 5.19262 3.50103 5.03176C3.50847 4.70027 3.70298 4.50888 4.03448 4.50262C4.10767 4.50106 4.18085 4.50262 4.25404 4.50262V4.50223ZM4.49317 5.01493H4.01295V5.49437H4.49317V5.01493Z" fill="#410EAD"/>
<path d="M4.25561 6.50185C4.3288 6.50185 4.40199 6.50106 4.47518 6.50185C4.78515 6.50576 4.99023 6.70027 5.00197 7.00907C5.00823 7.16993 5.00823 7.33117 5.00197 7.49203C4.98944 7.80004 4.78358 7.99534 4.47361 7.99847C4.31275 8.00004 4.15151 8.00199 3.99026 7.9973C3.72725 7.98947 3.52609 7.80591 3.50691 7.54134C3.49321 7.35192 3.4936 7.16053 3.50534 6.97111C3.52256 6.69127 3.7253 6.50811 4.00631 6.50185C4.08928 6.49989 4.17225 6.50185 4.25522 6.50185H4.25561ZM4.49357 7.49164V7.01142H4.00865V7.49164H4.49357Z" fill="#410EAD"/>
<path d="M2.99732 5.25751C2.99732 5.34048 3.00045 5.42345 2.99693 5.50643C2.98401 5.79135 2.78832 5.98938 2.50262 6.00073C2.33707 6.00739 2.17073 6.00661 2.00479 6.00073C1.71399 5.99095 1.5097 5.78861 1.49952 5.49899C1.49365 5.33344 1.49365 5.1671 1.49952 5.00116C1.5093 4.70919 1.71047 4.51155 2.00479 4.50294C2.16564 4.49824 2.32689 4.49863 2.48775 4.50254C2.79419 4.51037 2.98753 4.70293 2.99771 5.0082C3.00045 5.09118 2.9981 5.17415 2.9981 5.25712C2.9981 5.25712 2.99771 5.25712 2.99732 5.25712V5.25751ZM2.48696 5.4939V5.01133H2.00948V5.4939H2.48696Z" fill="#410EAD"/>
<path d="M2.25341 6.50263C2.34617 6.50263 2.43892 6.49872 2.53168 6.50341C2.77825 6.51633 2.97785 6.70341 2.99233 6.94958C3.00368 7.1441 3.00329 7.34018 2.99389 7.53469C2.98137 7.79495 2.77864 7.9883 2.51759 7.99691C2.34695 8.00238 2.17592 8.00082 2.00528 7.99769C1.7227 7.99221 1.5141 7.79496 1.50079 7.51316C1.49257 7.33783 1.49257 7.16171 1.50079 6.98637C1.5141 6.70419 1.72192 6.5085 2.00489 6.50185C2.08786 6.49989 2.17083 6.50185 2.2538 6.50185C2.2538 6.50185 2.2538 6.50263 2.2538 6.50302L2.25341 6.50263ZM2.0041 7.48772H2.48941V7.01064H2.0041V7.48772Z" fill="#410EAD"/>
<path d="M7.50147 10.7422C7.5046 8.95006 8.96561 7.49609 10.7589 7.50001C12.5494 7.50392 14.0077 8.96806 14.0038 10.7578C13.9999 12.5476 12.5342 14.0059 10.744 14.0016C8.95269 13.9973 7.49834 12.5355 7.50147 10.7426V10.7422ZM8.00087 10.7527C8.00204 12.2662 9.23918 13.5029 10.7507 13.5022C12.2626 13.5014 13.5013 12.2646 13.5044 10.7539C13.5071 9.23537 12.2669 7.99706 10.7452 7.9994C9.23135 8.00214 7.99969 9.23772 8.00087 10.7527Z" fill="#410EAD"/>
<path d="M11.7502 9.95563C11.7534 10.1251 11.6579 10.2429 11.5123 10.2499C11.3698 10.2566 11.2692 10.1509 11.2512 9.97637C11.2238 9.70397 11.0254 9.50867 10.7667 9.49889C10.5299 9.48989 10.3057 9.66914 10.2606 9.90357C10.2133 10.149 10.3526 10.3963 10.5914 10.4699C10.6829 10.4981 10.7835 10.4973 10.8798 10.5118C11.2958 10.5744 11.5788 10.8065 11.7029 11.2053C11.8297 11.6119 11.7181 11.9677 11.4023 12.2511C11.3174 12.3274 11.2082 12.3806 11.1025 12.428C11.0301 12.46 10.9925 12.4925 10.9996 12.5759C11.0058 12.6483 11.0031 12.7231 10.9921 12.7947C10.9722 12.9238 10.8837 12.9935 10.76 12.9978C10.6364 13.0021 10.5475 12.9371 10.5131 12.8111C10.5119 12.8064 10.5107 12.8017 10.5096 12.797C10.4849 12.689 10.2736 12.3829 10.1816 12.3168C9.92562 12.1321 9.77847 11.8835 9.75694 11.5669C9.74442 11.3783 9.83169 11.2636 9.98433 11.2523C10.1327 11.2413 10.2364 11.3481 10.2548 11.5317C10.283 11.8131 10.5072 12.0151 10.7741 12.0002C11.0477 11.9849 11.2583 11.7587 11.2516 11.4875C11.2457 11.2487 11.0727 11.0495 10.8348 11.0112C10.7197 10.9924 10.6004 10.9908 10.4884 10.9611C10.0814 10.8542 9.78355 10.4934 9.75772 10.0887C9.72915 9.64135 9.96241 9.24528 10.3679 9.08677C10.4837 9.04176 10.5045 8.98032 10.5021 8.8723C10.4963 8.62299 10.5835 8.50088 10.7518 8.50049C10.9197 8.50049 11.005 8.62025 10.9988 8.87269C10.996 8.98345 11.0215 9.04215 11.1358 9.08638C11.4966 9.22571 11.7432 9.58773 11.7502 9.95602V9.95563Z" fill="#410EAD"/>
</svg>
