<svg width="21" height="15" viewBox="0 0 21 15" fill="none" xmlns="http://www.w3.org/2000/svg">
<path d="M5.45991 1.66871C5.45991 1.2671 5.45876 0.864946 5.45991 0.463344C5.46107 0.0984538 5.55679 0.00389406 5.92874 0.00389406C8.2602 0.00389406 10.5911 0.00556235 12.9225 0C13.1272 0 13.2743 0.0645237 13.4144 0.20247C14.2858 1.05963 15.1611 1.91401 16.0411 2.76282C16.1692 2.88631 16.2286 3.01035 16.2136 3.18445C16.1986 3.35521 16.2101 3.5282 16.2101 3.71732C16.8444 3.71732 17.454 3.71955 18.0641 3.71287C18.1166 3.71232 18.1748 3.6578 18.2186 3.61664C18.4043 3.44254 18.5802 3.25843 18.7711 3.08989C18.8899 2.98476 18.925 2.89131 18.8754 2.73C18.7059 2.18211 19.0392 1.61586 19.6061 1.45122C20.1481 1.2938 20.7288 1.58972 20.9145 2.12426C21.0535 2.52475 20.9526 2.88074 20.6573 3.18C20.3563 3.48426 19.9809 3.56714 19.5703 3.43809C19.4365 3.39582 19.3656 3.42085 19.2768 3.51096C19.049 3.74235 18.8062 3.95984 18.5779 4.19123C18.4493 4.32195 18.3028 4.37702 18.1177 4.37479C17.571 4.36923 17.0243 4.37312 16.4771 4.37312C16.3987 4.37312 16.3208 4.37312 16.2095 4.37312C16.2095 4.62232 16.2095 4.85594 16.2095 5.089C16.2095 5.32206 16.2095 5.54511 16.2095 5.80487C16.4754 5.80487 16.7233 5.80487 16.9713 5.80487C17.0578 5.80487 17.1443 5.80042 17.2302 5.80765C17.428 5.82434 17.563 5.95394 17.5681 6.1236C17.5733 6.30103 17.4332 6.44677 17.2256 6.45511C16.9742 6.46512 16.7222 6.45845 16.4702 6.45845C16.3923 6.45845 16.3139 6.45845 16.2228 6.45845V7.90577C16.3047 7.90967 16.3802 7.91579 16.4558 7.91579C17.1824 7.91634 17.909 7.91189 18.6355 7.91968C18.797 7.92135 18.8864 7.88352 18.9654 7.7339C19.1943 7.30115 19.7064 7.09979 20.1931 7.22383C20.6504 7.34008 20.978 7.75114 20.9762 8.20614C20.9745 8.69952 20.6268 9.13116 20.1406 9.24296C19.6534 9.35532 19.1863 9.14395 18.9412 8.71009C18.906 8.64779 18.8293 8.5638 18.7711 8.56324C17.9297 8.55379 17.0884 8.55657 16.2286 8.55657V10.0017C16.5498 10.0017 16.8704 10.0033 17.1904 10.0011C17.3911 9.99944 17.5232 10.0857 17.5635 10.277C17.6033 10.4672 17.4465 10.6352 17.2216 10.6397C16.8986 10.6463 16.5751 10.6413 16.2309 10.6413V12.0597C16.3001 12.0631 16.3756 12.0709 16.4517 12.0709C17.0059 12.072 17.5601 12.0759 18.1137 12.0686C18.3069 12.0659 18.4574 12.1187 18.5911 12.2578C18.8114 12.4864 19.0525 12.6961 19.2733 12.9247C19.3708 13.0259 19.4498 13.0398 19.587 12.9931C20.057 12.8329 20.5599 13.0165 20.8246 13.4236C21.0991 13.8458 21.0483 14.3342 20.6942 14.6841C20.3471 15.0267 19.816 15.0985 19.3852 14.8609C18.9873 14.6418 18.7763 14.1712 18.8881 13.7134C18.9256 13.5594 18.8962 13.4548 18.7763 13.3485C18.5485 13.1472 18.368 12.8513 18.1033 12.7456C17.8386 12.6399 17.4949 12.7172 17.1852 12.7161C16.8698 12.715 16.5538 12.7161 16.2095 12.7161C16.2095 12.8196 16.2095 12.9074 16.2095 12.9959C16.2095 13.4561 15.9677 13.6862 15.4841 13.6862C12.7357 13.6862 9.98731 13.6862 7.23835 13.6862C6.79201 13.6862 6.34625 13.6878 5.89991 13.6856C5.56833 13.6839 5.46107 13.5816 5.45934 13.2607C5.45703 12.7411 5.45876 12.221 5.45876 11.7004C5.30825 11.6381 5.21079 11.6759 5.11161 11.7844C4.54071 12.4102 4.65893 12.3228 3.92656 12.0442C3.54596 11.899 3.16998 11.7416 2.78765 11.6008C2.58409 11.5258 2.46183 11.4 2.51316 11.1926C2.62157 10.7526 2.42377 10.465 2.10372 10.1691C1.83615 9.92213 1.59107 9.79419 1.21912 9.8576C0.906568 9.911 0.817185 9.83647 0.693202 9.55279C0.48445 9.07387 0.281463 8.59217 0.0634842 8.11714C-0.0328188 7.90689 -0.0143653 7.72833 0.186314 7.60763C0.561146 7.3818 0.627462 7.06252 0.625732 6.65703C0.624579 6.27767 0.540386 6.00178 0.213994 5.77539C-0.0431988 5.59684 -0.0426222 5.50339 0.0796307 5.21916C0.2855 4.73913 0.495983 4.26021 0.696086 3.77795C0.776242 3.58438 0.907145 3.46757 1.12282 3.51652C1.57838 3.61998 1.87825 3.42864 2.18157 3.1177C2.42147 2.87184 2.55179 2.64824 2.51027 2.30337C2.46299 1.91623 2.50624 1.88786 2.88914 1.73379C3.3597 1.54467 3.83314 1.36111 4.30139 1.16643C4.50957 1.08021 4.67392 1.1058 4.81751 1.27767C4.90747 1.38558 4.99916 1.49627 5.10872 1.58416C5.19119 1.65035 5.30248 1.68261 5.40109 1.72989C5.42012 1.70931 5.43915 1.68929 5.45818 1.66871H5.45991ZM15.525 13.0298V3.37913C14.7413 3.37913 13.9721 3.37913 13.2034 3.37913C12.8285 3.37913 12.7126 3.26955 12.712 2.908C12.7103 2.23495 12.712 1.56135 12.7109 0.888308C12.7109 0.815441 12.7022 0.742575 12.6976 0.669152H6.14499V13.0298H15.5244H15.525ZM5.44723 2.32228C4.99627 2.45133 4.75465 2.1988 4.53552 1.90956C4.4692 1.82167 4.40231 1.81222 4.30082 1.85616C4.05285 1.96407 3.7997 2.06085 3.54885 2.16209C3.16652 2.31616 3.15844 2.31728 3.21207 2.71498C3.2386 2.91356 3.18382 3.06263 3.03331 3.19724C2.84301 3.36634 2.6504 3.53654 2.48548 3.72789C2.19772 4.06163 1.87825 4.28969 1.395 4.18067C1.34483 4.16954 1.24392 4.21237 1.22431 4.2552C1.05592 4.62565 0.900801 5.00167 0.742795 5.37379C0.858128 5.47113 0.950972 5.55846 1.05362 5.63411C1.23411 5.76649 1.316 5.93058 1.29928 6.15475C1.28255 6.3828 1.29928 6.61253 1.29524 6.84114C1.2814 7.66826 1.40884 7.40516 0.777972 7.96751C0.768169 7.97642 0.762978 7.99032 0.749139 8.01313C0.885808 8.33129 1.03516 8.65335 1.1603 8.98376C1.22143 9.14507 1.29582 9.22071 1.48496 9.18456C1.82866 9.11948 2.11468 9.20681 2.3367 9.49049C2.45664 9.64401 2.60831 9.77862 2.7617 9.90322C3.08751 10.1669 3.31818 10.4583 3.20227 10.9039C3.18901 10.9551 3.24033 11.0607 3.28877 11.0819C3.66649 11.2437 4.05112 11.3911 4.44498 11.5474C4.70448 11.2298 4.94091 10.8827 5.43742 11.0179V9.72744C5.35265 9.70853 5.27711 9.68906 5.19984 9.67572C3.82507 9.44098 2.70807 8.2245 2.63887 6.88508C2.55641 5.29202 3.66649 3.95483 5.29787 3.67115C5.35496 3.66114 5.43858 3.57437 5.44031 3.52153C5.45242 3.1405 5.44665 2.75893 5.44665 2.32395L5.44723 2.32228ZM5.43281 4.31082C4.20105 4.47603 3.23572 5.55568 3.32971 6.85338C3.40872 7.94972 4.43922 8.99377 5.43281 9.001V4.31138V4.31082ZM13.4196 2.70164H14.9287C14.4369 2.22605 13.9161 1.72266 13.4196 1.24263V2.70164ZM19.8938 14.3475C20.1285 14.3503 20.2917 14.2007 20.2929 13.9821C20.294 13.7796 20.1228 13.5983 19.9273 13.5949C19.7007 13.5916 19.5155 13.7668 19.5167 13.9843C19.5173 14.1979 19.6695 14.3442 19.8944 14.347L19.8938 14.3475ZM19.5155 8.2295C19.5132 8.44866 19.6782 8.60997 19.9031 8.60774C20.102 8.60552 20.2871 8.42474 20.2848 8.23507C20.2825 8.02703 20.1199 7.86072 19.9134 7.8546C19.7006 7.84792 19.5184 8.02036 19.5155 8.2295ZM19.8984 2.80565C20.1291 2.80899 20.286 2.67049 20.2929 2.458C20.2998 2.25609 20.1326 2.092 19.9152 2.08811C19.688 2.08366 19.5219 2.2305 19.5184 2.43742C19.5155 2.63767 19.6857 2.80287 19.8984 2.80565Z" fill="#410EAD"/>
<path d="M12.1591 3.96557C12.2629 3.96557 12.3471 3.96334 12.4313 3.96557C12.6723 3.97224 12.8032 4.09128 12.8044 4.32768C12.8084 5.06969 12.809 5.81171 12.8044 6.55373C12.8032 6.77845 12.6585 6.91862 12.4255 6.91973C11.2105 6.92418 9.996 6.92474 8.78097 6.92307C8.57107 6.92307 8.41652 6.78179 8.41479 6.56652C8.40787 5.81783 8.40845 5.06858 8.41825 4.31989C8.42113 4.08071 8.5555 3.97224 8.8 3.96445C8.87727 3.96223 8.95512 3.96445 9.06411 3.96445C9.01279 3.37373 9.15119 2.86088 9.6304 2.48042C9.91815 2.25181 10.2555 2.13611 10.6251 2.14501C11.109 2.15669 11.5121 2.34748 11.8194 2.71459C12.121 3.07503 12.1689 3.50445 12.1597 3.96612L12.1591 3.96557ZM12.0732 4.64417H9.11198V6.24446H12.0732V4.64417ZM9.79705 3.94665H11.4417C11.4792 3.54672 11.4365 3.19129 11.0634 2.96101C10.7635 2.77578 10.4539 2.77912 10.1517 2.96101C9.76764 3.19129 9.73824 3.54617 9.79648 3.94721L9.79705 3.94665Z" fill="#410EAD"/>
<path d="M9.49941 10.216C8.86046 10.216 8.22094 10.2165 7.582 10.216C7.32999 10.216 7.1691 10.0925 7.16045 9.89669C7.1518 9.70201 7.3323 9.55127 7.58315 9.55127C8.85412 9.55127 10.1257 9.55127 11.3966 9.55294C11.6734 9.55294 11.8193 9.67197 11.8193 9.88724C11.8193 10.1047 11.678 10.2154 11.3955 10.2154C10.7635 10.216 10.1314 10.2154 9.49941 10.2154V10.216Z" fill="#410EAD"/>
<path d="M11.9739 7.90761C12.5206 7.90761 13.0673 7.90761 13.614 7.90761C13.7806 7.90761 13.9317 7.93598 14.0096 8.10118C14.1001 8.29308 13.99 8.50667 13.7754 8.55117C13.7057 8.56564 13.6324 8.56675 13.5609 8.5673C12.5616 8.57342 11.5616 8.57899 10.5623 8.58232C10.4331 8.58232 10.3028 8.58121 10.1759 8.56174C9.97118 8.53004 9.86796 8.40488 9.8743 8.22133C9.88064 8.04889 10.0035 7.91373 10.2059 7.90483C10.5432 7.89037 10.8817 7.89815 11.2197 7.8976C11.4711 7.89704 11.7231 7.8976 11.9745 7.8976C11.9745 7.90093 11.9745 7.90427 11.9745 7.90817L11.9739 7.90761Z" fill="#410EAD"/>
<path d="M12.2655 11.8467C11.8134 11.8467 11.3613 11.8495 10.9087 11.8456C10.6549 11.8439 10.52 11.731 10.5148 11.5313C10.5096 11.3205 10.6492 11.1881 10.9063 11.187C11.8181 11.1831 12.7298 11.1831 13.6415 11.187C13.89 11.1881 14.0497 11.3333 14.0434 11.5296C14.0371 11.721 13.8877 11.8439 13.6438 11.8456C13.1842 11.8489 12.7251 11.8467 12.2655 11.8467Z" fill="#410EAD"/>
<path d="M8.50069 11.849C8.17718 11.849 7.8531 11.854 7.53017 11.8474C7.30642 11.8424 7.16687 11.7133 7.15706 11.5236C7.14841 11.3573 7.31334 11.1855 7.52094 11.1838C8.17545 11.1782 8.82997 11.1799 9.48391 11.1905C9.70189 11.1944 9.83856 11.3501 9.82991 11.5392C9.82183 11.7244 9.69093 11.8418 9.4718 11.8446C9.14829 11.849 8.82478 11.8457 8.50069 11.8457C8.50069 11.8468 8.50069 11.8479 8.50069 11.849Z" fill="#410EAD"/>
<path d="M8.21109 7.89736C8.41234 7.89736 8.61418 7.8918 8.81486 7.89903C9.05936 7.90737 9.22602 8.05422 9.22141 8.24278C9.21679 8.42523 9.05994 8.56818 8.82408 8.57485C8.40715 8.58598 7.98965 8.58765 7.57272 8.5832C7.33283 8.58041 7.16387 8.43134 7.15925 8.24334C7.15522 8.05477 7.32129 7.90459 7.56407 7.89458C7.77917 7.88568 7.99542 7.89291 8.21109 7.89291C8.21109 7.89458 8.21109 7.89625 8.21109 7.89791V7.89736Z" fill="#410EAD"/>
<path d="M13.2636 10.2153C13.12 10.2153 12.9758 10.2198 12.8322 10.2142C12.6391 10.207 12.5012 10.0785 12.4909 9.90607C12.4799 9.72585 12.6137 9.5651 12.8132 9.55731C13.1148 9.54507 13.4176 9.54563 13.7192 9.55731C13.906 9.56454 14.0444 9.7214 14.0438 9.88716C14.0438 10.0635 13.895 10.2031 13.6955 10.2148C13.6886 10.2148 13.6811 10.2148 13.6742 10.2148C13.5375 10.2148 13.4008 10.2148 13.2642 10.2148L13.2636 10.2153Z" fill="#410EAD"/>
</svg>
