<svg width="15" height="15" viewBox="0 0 15 15" fill="none" xmlns="http://www.w3.org/2000/svg">
<path d="M0 1.45189C0.0465636 1.28656 0.0825624 1.11672 0.142039 0.956314C0.316163 0.486579 0.770451 0.00084454 1.49551 0.00289578C5.13256 0.0139725 8.77 0.0193057 12.4074 2.4055e-05C13.316 -0.00489893 13.8474 0.746677 13.9147 1.46051C13.9268 1.58769 13.9303 1.71609 13.9303 1.84368C13.9311 3.93759 13.9303 6.0315 13.9346 8.12541C13.9346 8.20705 13.9652 8.31535 14.0196 8.36622C14.3694 8.6936 14.3435 9.20108 14.0368 9.47431C14.0262 9.48374 14.0211 9.49974 14.0156 9.50877C14.0779 9.66794 14.133 9.8263 14.2027 9.97727C14.2219 10.0191 14.2813 10.0626 14.3259 10.0667C14.7618 10.1098 14.9974 10.3728 14.999 10.8289C14.9993 10.9926 15.0013 11.1567 14.9986 11.3204C14.9911 11.7065 14.7204 12.0035 14.3533 12.0133C14.252 12.0162 14.1992 12.0445 14.1812 12.1479C14.1753 12.1828 14.1632 12.2181 14.1463 12.2484C14.0391 12.4425 14.0059 12.602 14.1769 12.8084C14.3584 13.0279 14.3036 13.3786 14.1131 13.6006C13.9761 13.7602 13.831 13.9132 13.6791 14.0576C13.4201 14.3042 13.0445 14.3017 12.7901 14.0478C12.7119 13.9694 12.65 13.9567 12.5663 14.0162C12.5624 14.019 12.5573 14.0207 12.553 14.0219C12.3104 14.0974 12.1339 14.1987 12.1061 14.5257C12.0827 14.8038 11.7892 14.9889 11.5102 14.9967C11.3298 15.0016 11.149 15.0004 10.9683 14.9975C10.6012 14.9922 10.3258 14.7308 10.3035 14.344C10.296 14.2119 10.2459 14.1696 10.1387 14.1228C9.92078 14.0277 9.74314 13.9271 9.50993 14.1491C9.31663 14.3325 8.9856 14.257 8.78213 14.0633C8.6307 13.9189 8.48357 13.7676 8.34662 13.6084C8.11067 13.3335 8.1138 12.9454 8.35719 12.6767C8.43231 12.5938 8.44131 12.5327 8.38653 12.4408C8.35093 12.3809 8.3298 12.3112 8.30436 12.2447C8.24697 12.0932 8.13833 12.0174 7.97842 12.0174C7.24592 12.0174 6.51382 12.0183 5.78132 12.017C5.59507 12.017 5.47298 11.9198 5.44911 11.761C5.4182 11.5555 5.55046 11.4021 5.76606 11.4012C6.26887 11.3992 6.77168 11.4004 7.27449 11.4004C7.32692 11.4004 7.37974 11.4004 7.44978 11.4004C7.44978 11.2027 7.449 11.0201 7.44978 10.8376C7.45252 10.3699 7.68652 10.1094 8.13063 10.0667C8.17446 10.0626 8.23315 10.0171 8.25232 9.9744C8.31884 9.82712 8.37127 9.67287 8.43271 9.51246C8.4018 9.47677 8.36501 9.43697 8.33058 9.39472C8.10833 9.12067 8.11224 8.73504 8.34545 8.47125C8.47145 8.32848 8.60409 8.19228 8.73791 8.05772C9.0083 7.78572 9.38433 7.7767 9.65979 8.04377C9.73453 8.11638 9.79166 8.1332 9.87305 8.07167C9.90005 8.05115 9.93331 8.03557 9.96578 8.02736C10.1783 7.9728 10.3007 7.87105 10.3199 7.60439C10.3399 7.32871 10.5907 7.1244 10.8571 7.10061C11.0657 7.08174 11.2766 7.08174 11.4859 7.09035C11.8628 7.10594 12.1124 7.36112 12.1386 7.75742C12.1457 7.86039 12.1738 7.90921 12.2697 7.93916C12.3855 7.97567 12.4931 8.04131 12.6082 8.08233C12.6481 8.09669 12.7173 8.09341 12.7436 8.06633C12.9036 7.90141 13.093 7.82962 13.3254 7.84316V4.73306H0.588893C0.588893 4.79214 0.588893 4.8467 0.588893 4.90086C0.588893 6.68749 0.585762 8.47453 0.593588 10.2612C0.594371 10.4556 0.629195 10.662 0.698063 10.8421C0.839319 11.2117 1.10501 11.4111 1.50412 11.4029C2.02141 11.3922 2.53909 11.4 3.05676 11.4004C3.28097 11.4004 3.41479 11.5186 3.41284 11.7106C3.41049 11.9013 3.27589 12.0166 3.0505 12.017C2.54769 12.0178 2.0441 11.9977 1.54208 12.0215C0.644847 12.0642 0.138517 11.3438 0.0285642 10.6747C0.0230861 10.6406 0.0101735 10.6078 0.000391225 10.5746C0.000391225 7.53342 0.000391225 4.49225 0.000391225 1.45107L0 1.45189ZM0.596327 4.08938H13.3371C13.3371 3.95318 13.3371 3.82641 13.3371 3.69924C13.336 2.99771 13.3465 2.29619 13.3297 1.59507C13.3152 0.985031 12.9423 0.624423 12.3679 0.624423C11.8894 0.624423 11.4108 0.624423 10.9327 0.624423C7.78356 0.624423 4.63445 0.625653 1.48534 0.622371C1.21026 0.622371 0.990748 0.720421 0.823667 0.946057C0.655412 1.17334 0.588893 1.43672 0.588893 1.72102C0.588893 2.46357 0.588893 3.20571 0.588893 3.94826C0.588893 3.99297 0.593588 4.03769 0.596327 4.08938ZM13.6905 13.1419C13.6654 13.1083 13.647 13.0792 13.6244 13.0537C13.5704 12.9947 13.5136 12.938 13.4592 12.8794C13.3164 12.7255 13.3125 12.6193 13.4029 12.4244C13.5066 12.2004 13.6056 11.9715 13.6811 11.7356C13.7707 11.4558 13.8223 11.4008 14.1049 11.4008C14.4449 11.4008 14.4089 11.4275 14.4093 11.0771C14.4098 10.828 14.2902 10.6997 14.0505 10.6923C13.8443 10.6862 13.7683 10.6086 13.6975 10.397C13.6177 10.157 13.5277 9.91861 13.4201 9.69133C13.307 9.45215 13.3074 9.36149 13.4835 9.17441C13.6364 9.0125 13.6366 8.85169 13.4843 8.69196C13.3212 8.52103 13.1575 8.51925 12.9932 8.68663C12.8324 8.85032 12.7326 8.85319 12.5354 8.75432C12.3084 8.64027 12.0741 8.53853 11.8362 8.45238C11.6245 8.37566 11.5533 8.29607 11.5505 8.05403C11.5479 7.82538 11.4398 7.71106 11.2261 7.71106C10.9932 7.71106 10.8755 7.8314 10.8732 8.07208C10.8708 8.30551 10.8024 8.38181 10.5934 8.45689C10.3688 8.53771 10.1462 8.63043 9.93409 8.74201C9.7001 8.86509 9.6148 8.86468 9.42972 8.67391C9.17264 8.40889 9.23759 8.4093 8.97777 8.67883C8.81317 8.8495 8.81069 9.02098 8.97034 9.19329C9.13351 9.36928 9.13586 9.46282 9.03373 9.686C8.92886 9.91491 8.83574 10.1516 8.75748 10.3916C8.68509 10.6127 8.60644 10.6895 8.37753 10.6927C8.04298 10.6973 8.04142 10.6973 8.04337 11.0402C8.04533 11.4558 7.99876 11.3967 8.38419 11.4008C8.61583 11.4033 8.68626 11.4726 8.75983 11.702C8.83378 11.9333 8.92065 12.1618 9.02473 12.3797C9.14564 12.6328 9.14446 12.721 8.95547 12.92C8.70152 13.1871 8.71091 13.1165 8.95782 13.3799C9.20825 13.6465 9.20981 13.6449 9.46884 13.3832C9.61793 13.2326 9.71888 13.2277 9.90318 13.3212C10.1172 13.4299 10.3344 13.5358 10.5594 13.6141C10.8333 13.7097 10.8873 13.7663 10.8884 14.0699C10.8896 14.4186 10.8571 14.3809 11.1866 14.3817C11.4352 14.3822 11.5615 14.2543 11.5654 13.9977C11.5654 13.9825 11.5654 13.9669 11.5662 13.9518C11.5693 13.7934 11.6499 13.7023 11.788 13.6461C12.0549 13.5374 12.3206 13.425 12.5816 13.3023C12.7248 13.2346 12.8449 13.2465 12.9564 13.3581C13.0233 13.425 13.0895 13.4939 13.1536 13.5641C13.2068 13.6223 13.2558 13.6334 13.3145 13.5698C13.4193 13.4554 13.5285 13.3454 13.6337 13.2318C13.656 13.2076 13.6701 13.1748 13.6909 13.1423L13.6905 13.1419Z" fill="#410EAD"/>
<path d="M6.60739 8.06C6.36597 7.77528 6.13276 7.50124 5.90111 7.22637C5.8076 7.1156 5.7849 6.99007 5.85259 6.85879C5.91755 6.73284 6.0275 6.67623 6.15937 6.70782C6.22549 6.72382 6.29593 6.76812 6.34249 6.82104C6.616 7.13365 6.88521 7.44996 7.15051 7.76995C7.29959 7.95005 7.30272 8.16338 7.15637 8.34143C6.88912 8.66634 6.616 8.98593 6.34093 9.30387C6.21689 9.44746 6.03415 9.45812 5.91129 9.34079C5.78647 9.22182 5.78021 9.03803 5.90464 8.8887C6.13198 8.61588 6.36401 8.34676 6.60739 8.06041V8.06Z" fill="#410EAD"/>
<path d="M2.3294 8.06476C2.53991 8.31296 2.7469 8.55665 2.9535 8.80116C2.98911 8.84341 3.02668 8.88403 3.0572 8.92998C3.14876 9.06741 3.12959 9.24053 3.01455 9.34556C2.90107 9.44894 2.72695 9.44894 2.61621 9.33038C2.48317 9.18802 2.36109 9.03459 2.23431 8.88526C2.08484 8.70967 1.93302 8.53573 1.78707 8.35727C1.62899 8.16363 1.62859 7.95317 1.78785 7.76159C2.05119 7.44569 2.31766 7.13226 2.58608 6.8213C2.71325 6.67402 2.88855 6.65925 3.01494 6.77535C3.14485 6.89432 3.14915 7.08386 3.01963 7.23934C2.82047 7.4781 2.61739 7.71359 2.41665 7.95112C2.38809 7.98476 2.36226 8.02127 2.32861 8.06558L2.3294 8.06476Z" fill="#410EAD"/>
<path d="M5.05071 6.82157C4.99475 7.06772 4.9298 7.35079 4.86563 7.63427C4.73611 8.20616 4.60659 8.77804 4.47707 9.34993C4.47355 9.3647 4.46846 9.37947 4.46455 9.39383C4.41095 9.58623 4.26734 9.68756 4.10613 9.64695C3.94179 9.60551 3.85062 9.4488 3.89327 9.25393C4.01378 8.70625 4.13978 8.1598 4.2646 7.61294C4.33503 7.30484 4.40195 6.99551 4.47981 6.68947C4.52012 6.5307 4.66411 6.44168 4.8038 6.46793C4.9521 6.49542 5.05384 6.62424 5.0511 6.82157H5.05071Z" fill="#410EAD"/>
<path d="M4.42737 11.4014C4.5968 11.3985 4.72788 11.5306 4.72905 11.705C4.73023 11.8785 4.59758 12.0176 4.43246 12.0168C4.27633 12.016 4.14173 11.8802 4.13547 11.7177C4.12921 11.5487 4.26224 11.4043 4.42737 11.4014Z" fill="#410EAD"/>
<path d="M10.102 3.41509C9.65324 3.41509 9.20365 3.42411 8.75523 3.41263C8.25242 3.3995 7.85134 2.99499 7.79852 2.46987C7.74961 1.98414 8.0599 1.5103 8.52123 1.37861C8.61867 1.35072 8.72314 1.33677 8.82448 1.33636C9.67359 1.33307 10.5231 1.33102 11.3722 1.33595C11.8006 1.33841 12.127 1.53697 12.3058 1.95132C12.4737 2.34024 12.4189 2.71274 12.1618 3.0434C11.965 3.29653 11.6997 3.41345 11.3906 3.41591C10.9609 3.41878 10.5317 3.41673 10.102 3.41673V3.4155V3.41509ZM10.1064 1.95747C9.67202 1.95747 9.23769 1.95296 8.80375 1.95911C8.55723 1.96281 8.38467 2.14414 8.38624 2.37716C8.38741 2.611 8.56036 2.79397 8.8057 2.79561C9.66459 2.80012 10.5231 2.79848 11.382 2.79684C11.5506 2.79684 11.6856 2.72259 11.7631 2.55972C11.8992 2.27378 11.7063 1.96445 11.38 1.9587C10.9555 1.95132 10.5309 1.95706 10.1067 1.95706L10.1064 1.95747Z" fill="#410EAD"/>
<path d="M6.29903 2.38363C6.29629 2.95101 5.851 3.41541 5.30946 3.41541C4.76361 3.41541 4.31206 2.9387 4.31793 2.36805C4.3238 1.79985 4.77026 1.33504 5.30946 1.33545C5.85648 1.33586 6.30177 1.80765 6.29903 2.38363ZM5.70975 2.37297C5.70818 2.14323 5.52389 1.95575 5.3032 1.95944C5.08603 1.96313 4.91504 2.14405 4.91347 2.37215C4.91191 2.60517 5.08994 2.79634 5.30946 2.79593C5.52662 2.79593 5.71131 2.60107 5.71014 2.37297H5.70975Z" fill="#410EAD"/>
<path d="M1.75343 2.38159C1.75108 1.80437 2.19676 1.33381 2.74339 1.33545C3.28572 1.3375 3.7271 1.80027 3.72945 2.37051C3.73218 2.94855 3.28846 3.41664 2.73909 3.41541C2.19637 3.41418 1.75538 2.95183 1.75343 2.38159ZM3.13781 2.38077C3.13977 2.14693 2.96369 1.95944 2.74144 1.95903C2.52623 1.95903 2.34819 2.13954 2.3431 2.36436C2.33762 2.59492 2.5141 2.79019 2.73283 2.79594C2.94999 2.80168 3.13547 2.61133 3.13781 2.38077Z" fill="#410EAD"/>
<path d="M9.42188 11.044C9.42188 9.99785 10.2299 9.15274 11.2281 9.15479C12.2239 9.15684 13.0354 10.0102 13.0311 11.051C13.0272 12.0831 12.213 12.9348 11.2289 12.9369C10.2362 12.9389 9.42188 12.086 9.42188 11.044ZM10.0139 11.0501C10.0166 11.75 10.5617 12.319 11.2273 12.3174C11.8913 12.3153 12.4379 11.7418 12.4395 11.0452C12.4411 10.3408 11.8921 9.77057 11.2156 9.77468C10.5468 9.77837 10.0115 10.347 10.0143 11.0501H10.0139Z" fill="#410EAD"/>
</svg>
