<svg width="15" height="15" viewBox="0 0 15 15" fill="none" xmlns="http://www.w3.org/2000/svg">
<path d="M9.35762 11.9336V12.9801C9.41048 12.9829 9.45851 12.9874 9.50653 12.9878C9.72284 12.989 9.93956 12.9837 10.1559 12.991C10.4654 13.0015 10.6991 13.2311 10.7071 13.5394C10.7152 13.8413 10.7148 14.1436 10.7071 14.4454C10.6999 14.7425 10.4824 14.9656 10.1873 14.9943C10.1373 14.9991 10.0869 14.9999 10.0364 14.9999C8.34507 14.9999 6.65373 15.0003 4.96238 14.9991C4.87723 14.9991 4.78926 14.9963 4.70814 14.9749C4.46802 14.9116 4.30215 14.6969 4.29691 14.4398C4.29085 14.148 4.29085 13.8558 4.2961 13.564C4.30215 13.2303 4.53541 12.997 4.86956 12.9898C5.12462 12.9841 5.38008 12.9886 5.64441 12.9886V11.9336C5.57984 11.9336 5.52132 11.9336 5.46281 11.9336C4.04831 11.9336 2.63381 11.9357 1.21931 11.9328C0.593788 11.9316 0.110721 11.5422 0.0231469 10.9562C-0.00994542 10.7338 0.00216152 10.5042 0.00216152 10.2782C0.00216152 8.03843 0.00337231 5.79824 0.00619727 3.55845C0.0070044 3.00193 0.302011 2.57617 0.792746 2.41111C0.844806 2.39336 0.898884 2.37035 0.952558 2.36874C1.09946 2.3643 1.21891 2.34614 1.26088 2.16453C1.27178 2.11651 1.39648 2.08584 1.47397 2.06445C1.5793 2.03539 1.69068 2.02934 1.79641 2.0019C1.88479 1.97889 1.90376 1.9119 1.85291 1.83886C1.80166 1.76541 1.74597 1.69277 1.6818 1.63062C1.52643 1.4813 1.51594 1.40744 1.64185 1.22867C1.85937 0.919938 2.13137 0.66892 2.45261 0.471173C2.59063 0.386021 2.68628 0.406199 2.79806 0.525654C2.86949 0.601928 2.94658 0.674167 3.02971 0.737123C3.10639 0.795236 3.17943 0.771829 3.20324 0.677799C3.2323 0.561975 3.25288 0.442923 3.26216 0.323871C3.27548 0.15276 3.33561 0.0659933 3.49704 0.042183C3.87276 -0.0131055 4.24888 -0.0219839 4.62218 0.0639755C4.79168 0.103121 4.84132 0.183027 4.82961 0.355753C4.82235 0.459066 4.82679 0.567222 4.8506 0.667306C4.87683 0.777076 4.95714 0.812589 5.0548 0.734701C5.11735 0.685063 5.17547 0.628564 5.22995 0.569643C5.36191 0.427184 5.47047 0.411042 5.62544 0.520004C5.93417 0.737526 6.18115 1.01235 6.38334 1.33077C6.46607 1.46112 6.43701 1.56605 6.3333 1.66653C6.26469 1.73272 6.19205 1.79689 6.13636 1.87316C6.04152 2.0027 6.0617 2.0584 6.21586 2.0927C6.30263 2.11207 6.39827 2.09552 6.48383 2.11772C6.5597 2.1375 6.66987 2.17382 6.69045 2.22991C6.73686 2.35582 6.81959 2.34695 6.91564 2.34695C9.05494 2.34654 11.1942 2.34654 13.3335 2.34695C13.5095 2.34695 13.6863 2.34251 13.8618 2.35138C14.5342 2.38448 14.995 2.85907 14.9978 3.53302C15.0027 4.81677 14.9995 6.1001 14.9995 7.38385C14.9995 8.48114 15.0003 9.57844 14.9995 10.6757C14.9987 11.4566 14.52 11.9332 13.7355 11.9336C12.3412 11.9345 10.9469 11.9336 9.55254 11.9336H9.35762ZM0.476351 10.0244H14.5289C14.5313 9.96868 14.5358 9.91985 14.5358 9.87062C14.5358 7.78176 14.5362 5.69291 14.5358 3.60405C14.5358 3.08708 14.2609 2.81427 13.7411 2.81427C11.4763 2.81427 9.21112 2.81427 6.94631 2.81427H6.79417C6.77399 3.01565 6.76552 3.19685 6.73565 3.37442C6.68682 3.6658 6.64162 3.69405 6.345 3.66822C6.31514 3.6658 6.28083 3.65813 6.25541 3.66862C6.17026 3.70333 6.03304 3.73077 6.01852 3.78767C5.99955 3.86112 6.07461 3.96242 6.1182 4.04717C6.13515 4.08066 6.17591 4.10205 6.20658 4.12828C6.35791 4.25823 6.37163 4.3684 6.25299 4.53346C6.03869 4.83129 5.77517 5.07666 5.46281 5.26916C5.31066 5.36319 5.213 5.34302 5.09596 5.20782C5.03462 5.13679 4.96682 5.06617 4.88894 5.01492C4.78683 4.94752 4.70047 4.98465 4.67182 5.1037C4.65003 5.19531 4.64155 5.29217 4.64195 5.387C4.64195 5.53673 4.58263 5.63278 4.43815 5.68362C4.04629 5.82245 3.65443 5.77483 3.26378 5.68564C3.14917 5.65941 3.11688 5.56296 3.12092 5.44996C3.12455 5.34503 3.13383 5.23647 3.11365 5.13518C3.08298 4.98142 3.00146 4.956 2.87716 5.05043C2.81784 5.09563 2.76699 5.15334 2.71614 5.20863C2.59224 5.34302 2.48086 5.35916 2.33235 5.25423C2.04138 5.04841 1.80005 4.79457 1.60714 4.49472C1.47921 4.29536 1.49091 4.22877 1.66122 4.06856C1.73346 4.00076 1.79884 3.92125 1.84767 3.8357C1.86421 3.80664 1.83031 3.71059 1.80126 3.70131C1.6927 3.6658 1.57768 3.64683 1.46347 3.63472C1.28671 3.61576 1.21084 3.5524 1.19026 3.37442C1.16927 3.19161 1.15555 3.00799 1.13901 2.82557C0.730597 2.84373 0.471508 3.13349 0.471508 3.57217C0.470297 5.67596 0.471105 7.78015 0.471508 9.88393C0.471508 9.92792 0.47514 9.97232 0.477562 10.0244H0.476351ZM14.5164 10.5131H0.479983C0.45133 10.8061 0.472315 11.0732 0.700733 11.2831C0.864581 11.4332 1.06233 11.4619 1.27541 11.4615C3.83684 11.4574 6.39827 11.4554 8.9597 11.455C10.5598 11.455 12.16 11.4595 13.7605 11.4599C14.3134 11.4599 14.6213 11.0769 14.5172 10.5131H14.5164ZM1.61562 2.52129V3.13672C1.91345 3.18313 2.18142 3.25376 2.29764 3.54392C2.4171 3.84296 2.25204 4.07542 2.05994 4.3107C2.20079 4.46405 2.338 4.61337 2.47683 4.7643C2.52566 4.72435 2.55189 4.70175 2.57973 4.68036C3.01034 4.34903 3.41027 4.48302 3.55273 5.00523C3.57816 5.09765 3.58138 5.23002 3.64273 5.26957C3.72021 5.31921 3.84693 5.29297 3.95226 5.29862C3.97728 5.29983 4.00271 5.2954 4.02773 5.29741C4.16211 5.30831 4.22305 5.26472 4.25251 5.11419C4.36027 4.56978 4.83365 4.39908 5.27717 4.73C5.31712 4.75986 5.35626 4.79053 5.41438 4.83533C5.56531 4.69731 5.71503 4.5601 5.86718 4.42087C5.65611 4.17389 5.53787 3.91682 5.65611 3.62423C5.77718 3.32478 6.06008 3.25941 6.36639 3.22712V2.6129C5.78969 2.57496 5.37362 2.08826 5.93578 1.43408C5.8014 1.28678 5.66459 1.13706 5.52536 0.984508C5.28443 1.18145 5.04592 1.33157 4.75092 1.20042C4.4543 1.06805 4.40506 0.781918 4.37641 0.485701H3.77025C3.68066 1.25611 3.10558 1.44578 2.56117 0.960698C2.41306 1.09549 2.26334 1.2323 2.11362 1.3683C2.61283 1.95872 2.3384 2.48053 1.61562 2.52169V2.52129ZM7.48749 14.533C8.34305 14.533 9.19861 14.531 10.0538 14.535C10.1982 14.5358 10.2527 14.4818 10.2487 14.3393C10.2422 14.1129 10.2479 13.8865 10.2467 13.6601C10.2459 13.4785 10.2196 13.4519 10.036 13.4523C9.34672 13.4539 8.65743 13.4591 7.96814 13.4587C6.97174 13.4583 5.97574 13.4539 4.97933 13.4523C4.79975 13.4523 4.75939 13.4938 4.75858 13.6746C4.75778 13.8909 4.75778 14.1072 4.75858 14.324C4.75939 14.5112 4.78078 14.5326 4.96602 14.5326C5.80624 14.5326 6.64687 14.5326 7.48709 14.5326L7.48749 14.533ZM8.87979 11.9441H6.12909V12.9688H8.87979V11.9441Z" fill="#410EAD"/>
<path d="M10.7176 3.56604C11.5178 3.56604 12.3181 3.56523 13.118 3.56604C13.7019 3.56685 14.0195 3.88688 14.02 4.47487C14.0208 5.82883 14.0208 7.18239 14.02 8.53635C14.02 9.08884 13.6676 9.4472 13.1168 9.44801C11.5061 9.45003 9.89592 9.45003 8.28529 9.44801C7.73684 9.4472 7.41117 9.11951 7.41076 8.57389C7.40995 7.1949 7.40995 5.81592 7.41076 4.43694C7.41076 3.8897 7.73483 3.56766 8.2865 3.56644C9.09686 3.56443 9.90722 3.56604 10.7172 3.56604H10.7176ZM13.5474 5.60889C13.4905 5.60606 13.4558 5.60284 13.4215 5.60284C11.6204 5.60284 9.81924 5.60364 8.01813 5.60041C7.90432 5.60041 7.87365 5.63472 7.87406 5.7461C7.87809 6.67672 7.87567 7.60775 7.87688 8.53837C7.87688 8.84831 8.00844 8.97705 8.31838 8.97705C9.90802 8.97705 11.4981 8.97705 13.0877 8.97705C13.4114 8.97705 13.547 8.84226 13.5474 8.52061C13.5474 7.70541 13.5474 6.89061 13.5474 6.07541V5.60929V5.60889ZM7.88293 5.12663H13.5474C13.5474 4.91597 13.5474 4.7154 13.5474 4.51482C13.5474 4.14637 13.432 4.03176 13.0591 4.03176C11.4948 4.03176 9.93103 4.03176 8.36681 4.03176C8.31152 4.03176 8.25583 4.03135 8.20135 4.03862C8.02458 4.06283 7.89585 4.17583 7.88657 4.35098C7.87325 4.60563 7.88293 4.86149 7.88293 5.12623V5.12663Z" fill="#410EAD"/>
<path d="M3.96401 7.43434C4.59802 7.43434 5.23202 7.42668 5.86562 7.43717C6.27967 7.44403 6.5884 7.64702 6.75507 8.02718C6.92296 8.40936 6.86969 8.7766 6.60132 9.10026C6.40317 9.33917 6.1352 9.44733 5.82889 9.44814C4.58631 9.45056 3.34373 9.45459 2.10075 9.44693C1.53697 9.44329 1.1326 9.05748 1.08659 8.51227C1.04341 7.99974 1.39451 7.54532 1.91229 7.44968C2.00027 7.43354 2.09268 7.43434 2.18268 7.43434C2.77632 7.43313 3.36997 7.43354 3.96361 7.43354C3.96361 7.43394 3.96361 7.43434 3.96361 7.43515L3.96401 7.43434ZM3.95312 8.97677C4.56694 8.97677 5.18117 8.97758 5.79499 8.97677C6.11502 8.97637 6.3733 8.74069 6.37935 8.44729C6.38541 8.15794 6.12995 7.90208 5.80992 7.90087C4.58187 7.89643 3.35423 7.89683 2.12618 7.90087C1.80292 7.90167 1.5519 8.14744 1.5519 8.44084C1.5519 8.7427 1.80776 8.97718 2.14151 8.97758C2.74525 8.97839 3.34939 8.97758 3.95312 8.97758V8.97677Z" fill="#410EAD"/>
<path d="M7.50401 10.7599C7.61983 10.7599 7.73565 10.7558 7.85148 10.7607C7.99959 10.7667 8.0803 10.8479 8.08474 10.9835C8.08918 11.1235 8.01815 11.2179 7.87166 11.224C7.62548 11.2341 7.3785 11.2341 7.13232 11.224C6.98623 11.2179 6.91642 11.1227 6.92166 10.9818C6.92691 10.8462 7.00802 10.7667 7.15654 10.7611C7.27196 10.7566 7.38818 10.7603 7.50401 10.7603V10.7599Z" fill="#410EAD"/>
<path d="M3.96193 4.47674C3.09184 4.47593 2.39327 3.77211 2.3965 2.8988C2.39972 2.0392 3.10637 1.33619 3.96677 1.3374C4.82556 1.33861 5.5326 2.04485 5.53543 2.90364C5.53825 3.7709 4.83201 4.47714 3.96193 4.47634V4.47674ZM5.06205 2.90364C5.05962 2.28941 4.57131 1.80715 3.95507 1.81119C3.34972 1.81523 2.86382 2.30273 2.86261 2.90647C2.8614 3.51343 3.35981 4.01264 3.96596 4.01103C4.57615 4.00941 5.06447 3.51625 5.06205 2.90364Z" fill="#410EAD"/>
<path d="M11.8814 7.2765C11.7163 7.09812 11.5654 6.93105 11.41 6.76841C11.2841 6.63644 11.2679 6.50367 11.3729 6.40036C11.4742 6.30068 11.6029 6.31036 11.7316 6.43264C11.9504 6.64007 12.1675 6.84912 12.3838 7.05898C12.5069 7.17843 12.5085 7.30475 12.3874 7.42662C12.1747 7.64051 11.9609 7.85279 11.7454 8.06345C11.6247 8.18129 11.502 8.18896 11.4003 8.0921C11.2942 7.99081 11.2982 7.85763 11.4189 7.73495C11.5767 7.57433 11.7385 7.41775 11.8814 7.2765Z" fill="#410EAD"/>
<path d="M11.1626 6.36021C11.1569 6.39007 11.1525 6.42478 11.1436 6.45868C10.9987 7.02286 10.8534 7.58705 10.7086 8.15164C10.7049 8.16617 10.7041 8.1815 10.6993 8.19603C10.6525 8.33486 10.5076 8.42324 10.3817 8.39055C10.2594 8.35867 10.192 8.22388 10.2315 8.07213C10.3131 7.76139 10.3998 7.45185 10.4834 7.14151C10.5592 6.86023 10.6323 6.57814 10.7094 6.29725C10.7453 6.16609 10.8425 6.10637 10.9713 6.12009C11.1028 6.13421 11.1509 6.23309 11.1622 6.36021H11.1626Z" fill="#410EAD"/>
<path d="M9.49122 7.24856C9.65466 7.40918 9.81367 7.56213 9.96904 7.71872C10.0994 7.84947 10.1115 7.98305 10.0078 8.08758C9.90124 8.19492 9.77775 8.18241 9.64134 8.04762C9.43795 7.84584 9.23495 7.64365 9.03357 7.43945C8.89636 7.29982 8.89636 7.18561 9.03357 7.05082C9.24545 6.84338 9.45853 6.63716 9.67322 6.43215C9.80116 6.30987 9.92989 6.30059 10.0312 6.40188C10.1369 6.50721 10.1244 6.63999 9.99204 6.76913C9.83062 6.92652 9.66636 7.08108 9.49081 7.24856H9.49122Z" fill="#410EAD"/>
<path d="M9.69263 4.83319C9.29068 4.83319 8.88872 4.83319 8.48637 4.83319C8.36207 4.83319 8.25674 4.80211 8.21719 4.6653C8.17684 4.52446 8.24867 4.39612 8.39194 4.36868C8.45529 4.35657 8.52188 4.3598 8.58726 4.3598C9.35605 4.3594 10.1252 4.35658 10.894 4.36344C10.9812 4.36424 11.0942 4.39451 11.1471 4.45383C11.1935 4.5063 11.2072 4.63867 11.1725 4.6992C11.1342 4.76579 11.0244 4.82511 10.9441 4.82754C10.5272 4.84005 10.1099 4.83319 9.69303 4.83359L9.69263 4.83319Z" fill="#410EAD"/>
<path d="M11.8444 4.35596C12.0943 4.35959 12.1951 4.43385 12.1867 4.61061C12.1786 4.78172 12.0826 4.83499 11.7855 4.83338C11.5684 4.83216 11.4659 4.76114 11.4639 4.60455C11.4627 4.47904 11.5224 4.39268 11.6495 4.36847C11.7129 4.35636 11.7791 4.35959 11.844 4.35596H11.8444Z" fill="#410EAD"/>
<path d="M12.8346 4.36255C13.0925 4.35932 13.1922 4.42429 13.1942 4.59298C13.1962 4.7645 13.0953 4.83351 12.8415 4.83351C12.7914 4.83351 12.741 4.83593 12.6918 4.83068C12.5505 4.81494 12.4706 4.72697 12.4742 4.59258C12.4783 4.45658 12.5521 4.38071 12.6849 4.36376C12.7341 4.3577 12.7846 4.36295 12.8346 4.36295V4.36255Z" fill="#410EAD"/>
<path d="M3.45994 8.67353C3.12861 8.67353 2.79688 8.67434 2.46556 8.67353C2.28274 8.67273 2.19194 8.59847 2.18629 8.45076C2.18064 8.29297 2.26902 8.2062 2.4591 8.2054C3.127 8.20217 3.7953 8.20257 4.46321 8.2054C4.65207 8.2062 4.74046 8.29378 4.734 8.45198C4.72794 8.60049 4.63876 8.67313 4.45433 8.67353C4.123 8.67474 3.79127 8.67353 3.45994 8.67353Z" fill="#410EAD"/>
</svg>
