<svg width="15" height="15" viewBox="0 0 15 15" fill="none" xmlns="http://www.w3.org/2000/svg">
<path fill-rule="evenodd" clip-rule="evenodd" d="M5.20687 0.0247784C4.98453 0.117657 4.89051 0.325672 4.94229 0.61026C4.97397 0.784549 4.96573 0.843966 4.90984 0.843966C4.86198 0.843966 4.30805 1.10418 4.05065 1.24756C3.05417 1.80266 2.11796 2.67132 1.51449 3.60069C0.788149 4.71939 0.414049 5.91042 0.363098 7.26655C0.339299 7.90013 0.385338 8.39666 0.487357 8.60629C0.610998 8.86035 0.891051 9.00094 1.17743 8.95273C1.34855 8.9239 1.55777 8.77175 1.63902 8.61705C1.70676 8.48801 1.70732 8.47916 1.68808 7.82523C1.67232 7.28995 1.67808 7.09029 1.71824 6.7777C1.83464 5.87206 2.14664 5.02381 2.62794 4.30454C2.88063 3.92689 3.03087 3.7443 3.39402 3.37344C3.69305 3.06806 3.7458 3.00034 3.7458 2.92163C3.7458 2.80799 3.64893 2.72089 3.52255 2.72089C3.35578 2.72089 2.66106 3.45585 2.26122 4.05526C1.86721 4.64599 1.5174 5.48248 1.36658 6.19468C1.25465 6.72333 1.22588 7.10035 1.24521 7.78584L1.26277 8.40775L1.18634 8.46769C1.08782 8.54494 1.02152 8.54338 0.927911 8.46162C0.86028 8.40255 0.848925 8.36182 0.819714 8.07304C0.780353 7.68381 0.803652 6.93234 0.868399 6.50405C1.03693 5.38925 1.49937 4.30439 2.18291 3.4203C2.9029 2.48909 3.95131 1.69664 5.03036 1.26797C5.18407 1.20692 5.34219 1.12656 5.38175 1.0894L5.45368 1.02183L5.40752 0.734928C5.38213 0.57715 5.36398 0.444886 5.36719 0.441015C5.3804 0.424973 7.06016 1.06046 7.06016 1.08151C7.06016 1.10861 5.71387 2.22233 5.6811 2.22233C5.66878 2.22233 5.64283 2.12065 5.62345 1.99639C5.54864 1.51667 5.45971 1.50822 4.67224 1.90583C4.24945 2.1193 4.14784 2.20013 4.14784 2.32304C4.14784 2.43351 4.25489 2.54492 4.36106 2.54492C4.39307 2.54492 4.53359 2.48084 4.67332 2.40254C4.81306 2.32424 4.98933 2.233 5.06499 2.19983L5.20257 2.13954L5.22275 2.26157C5.25958 2.48416 5.38719 2.62449 5.59773 2.67396C5.77353 2.71525 5.8807 2.64774 6.66302 2.00305C7.44414 1.35936 7.5291 1.26871 7.52942 1.07858C7.5296 0.97101 7.42849 0.767305 7.34945 0.716013C7.23057 0.638883 5.52143 0.015863 5.39808 0.00471881C5.33336 -0.00114656 5.24732 0.00788612 5.20687 0.0247784ZM12.7671 0.0458644C12.662 0.0737249 12.5097 0.134666 12.4288 0.181267C12.2497 0.284468 10.8646 1.64547 10.7231 1.85733C10.6687 1.93885 10.5936 2.09062 10.5562 2.19459C10.4897 2.37932 10.488 2.41301 10.4779 3.67401C10.4706 4.58795 10.4777 5.00993 10.5021 5.12056C10.5454 5.3164 10.7231 5.51415 10.8991 5.56237C10.9723 5.58242 11.3481 5.59465 11.8942 5.59474L12.7716 5.59492L12.8606 5.5062C12.932 5.43509 12.9459 5.40162 12.9306 5.33757C12.8878 5.15686 12.8775 5.15501 11.9108 5.15501C11.0707 5.15501 11.0289 5.1524 10.9727 5.09636C10.9157 5.03961 10.9139 4.99976 10.9155 3.87196C10.9167 3.04902 10.9275 2.67634 10.9522 2.6046C10.9723 2.54654 11.0302 2.47425 11.0873 2.43597C11.1833 2.37163 11.2111 2.36896 11.7869 2.36896C12.4267 2.36896 12.5255 2.35166 12.674 2.21359C12.8378 2.06129 12.8552 1.97892 12.857 1.35103C12.8589 0.696804 12.8782 0.601403 13.0289 0.500401C13.1257 0.435501 13.1499 0.43339 13.7965 0.43339C14.406 0.43339 14.4684 0.438053 14.5129 0.487028C14.5573 0.535946 14.5616 0.738946 14.5616 2.80218V5.06372L14.4962 5.10935C14.445 5.1451 14.3461 5.15501 14.0402 5.15501C13.6889 5.15501 13.6437 5.16091 13.5908 5.21367C13.5032 5.301 13.5123 5.45796 13.6095 5.53412C13.679 5.58864 13.7269 5.59489 14.0728 5.59474C14.5267 5.59457 14.644 5.56785 14.7973 5.42981C15.0147 5.23402 15.0055 5.35781 14.9963 2.75021C14.9882 0.450604 14.9873 0.417113 14.9267 0.301419C14.8929 0.2369 14.809 0.14452 14.7403 0.0961307L14.6155 0.00815006L13.7869 0.00166882C13.081 -0.00384463 12.93 0.00269526 12.7671 0.0458644ZM12.365 1.89231C12.3289 1.91862 12.1598 1.92906 11.7689 1.92906H11.2233L11.8113 1.3422L12.3994 0.75534L12.4074 1.30545C12.4146 1.7968 12.4101 1.85947 12.365 1.89231ZM11.7001 3.02149C11.5752 3.11565 11.59 3.32971 11.7257 3.39136C11.7758 3.41414 12.1069 3.42473 12.7699 3.42473H13.7406L13.8128 3.35273C13.8525 3.31314 13.885 3.24657 13.885 3.20478C13.885 3.16299 13.8525 3.09642 13.8128 3.05682L13.7406 2.98483H12.7447C11.9935 2.98483 11.7368 2.99383 11.7001 3.02149ZM11.6965 3.95995C11.5901 4.05526 11.5831 4.1799 11.6787 4.27521C11.7352 4.33158 11.7767 4.33386 12.739 4.33386H13.7406L13.8128 4.26187C13.8525 4.22227 13.885 4.1557 13.885 4.11391C13.885 4.07212 13.8525 4.00555 13.8128 3.96596L13.7406 3.89396H12.7554C11.7752 3.89396 11.7698 3.89428 11.6965 3.95995ZM7.10031 4.21356C6.9647 4.24817 6.83873 4.34806 6.78293 4.46528C6.74745 4.5398 6.64832 5.12762 6.64832 5.26347C6.64832 5.26786 6.56559 5.31303 6.46446 5.36379C6.36335 5.41456 6.22541 5.49383 6.15796 5.53993L6.03529 5.62381L5.72008 5.48958C5.33427 5.32529 5.24429 5.30875 5.07864 5.37183C4.9134 5.43473 4.86924 5.486 4.64667 5.87329C4.33541 6.41493 4.363 6.55748 4.84874 6.91791L5.14074 7.13458L5.14065 7.50116L5.14056 7.86775L4.84968 8.08242C4.36347 8.44124 4.3352 8.58702 4.64667 9.12904C4.86924 9.51633 4.9134 9.56759 5.07864 9.6305C5.24429 9.69358 5.33427 9.67704 5.72008 9.51275L6.03529 9.37852L6.15796 9.4624C6.22541 9.5085 6.36335 9.58777 6.46446 9.63854C6.56559 9.6893 6.64832 9.73446 6.64832 9.73886C6.64832 9.74329 6.66755 9.90145 6.69106 10.0903C6.7413 10.4941 6.7919 10.6166 6.95228 10.7224C7.06766 10.7985 7.0819 10.8004 7.52869 10.8004C7.95559 10.8004 7.99422 10.7958 8.09565 10.733C8.26762 10.6264 8.31563 10.5192 8.36726 10.1269C8.39262 9.93412 8.41335 9.76684 8.41335 9.75511C8.41335 9.74338 8.49519 9.69232 8.59524 9.64164C8.69526 9.59097 8.8332 9.51102 8.90174 9.46401L9.02638 9.37852L9.34159 9.51275C9.7274 9.67704 9.81739 9.69358 9.98303 9.6305C10.1471 9.56803 10.1905 9.51794 10.415 9.13171C10.5626 8.87788 10.6032 8.78119 10.6121 8.66248C10.6284 8.44525 10.5608 8.34566 10.2198 8.08403L9.92835 7.86042L9.92526 7.50266L9.9222 7.14493L10.2068 6.93008C10.5622 6.66174 10.6049 6.60183 10.6049 6.37208C10.6049 6.20905 10.5911 6.17239 10.4171 5.87352C10.1902 5.48406 10.1472 5.43432 9.98303 5.37183C9.81739 5.30875 9.7274 5.32529 9.34159 5.48958L9.02638 5.62381L8.90174 5.53832C8.8332 5.49131 8.69526 5.41136 8.59524 5.36068C8.49519 5.31001 8.41335 5.25895 8.41335 5.24722C8.41335 5.23549 8.39262 5.06821 8.36726 4.87547C8.31563 4.48296 8.2675 4.37565 8.09565 4.26978C7.9981 4.20966 7.94571 4.20207 7.58967 4.19638C7.37125 4.19289 7.15103 4.20063 7.10031 4.21356ZM7.87602 4.66379C7.89187 4.68397 7.92618 4.88392 7.95224 5.10815C7.99186 5.44887 8.01031 5.52714 8.06452 5.58471C8.10024 5.62257 8.14369 5.65357 8.16107 5.6536C8.22988 5.65366 8.55544 5.82865 8.72627 5.9574C8.83158 6.03676 8.93813 6.09347 8.98193 6.09347C9.02324 6.09347 9.22586 6.02089 9.43222 5.93218C9.63856 5.84346 9.81665 5.77088 9.82798 5.77088C9.85225 5.77088 10.1784 6.33328 10.1784 6.3751C10.1784 6.39082 10.0195 6.52141 9.82539 6.66535C9.63126 6.80926 9.46505 6.95005 9.45611 6.97821C9.44714 7.00636 9.45438 7.13555 9.4722 7.26529C9.49556 7.43535 9.49574 7.56565 9.47285 7.73235C9.44984 7.89986 9.45002 7.98268 9.47356 8.03295C9.49138 8.07113 9.6573 8.21407 9.84218 8.35062C10.0271 8.48716 10.1784 8.61168 10.1784 8.62732C10.1784 8.66908 9.85219 9.23145 9.82798 9.23145C9.81665 9.23145 9.63856 9.15886 9.43222 9.07015C9.22586 8.98144 9.02324 8.90885 8.98193 8.90885C8.93813 8.90885 8.83158 8.96557 8.72627 9.04493C8.55544 9.17368 8.22988 9.34867 8.16107 9.34873C8.14369 9.34876 8.10024 9.37976 8.06452 9.41762C8.01031 9.47518 7.99186 9.55346 7.95224 9.89418C7.92618 10.1184 7.89187 10.3184 7.87602 10.3385C7.85616 10.3638 7.74896 10.3752 7.53084 10.3752C7.31259 10.3752 7.20557 10.3638 7.18583 10.3385C7.17012 10.3184 7.13611 10.1181 7.11028 9.89356C7.05595 9.42087 7.04824 9.40823 6.73657 9.2801C6.6314 9.23685 6.45931 9.13611 6.35414 9.05622C6.24333 8.97205 6.13131 8.91053 6.08774 8.90991C6.04638 8.90932 5.84372 8.98144 5.63739 9.07015C5.43103 9.15886 5.25114 9.23145 5.23764 9.23145C5.21146 9.23145 4.8826 8.66787 4.88428 8.62585C4.88481 8.61212 5.03816 8.48875 5.22499 8.35164C5.41185 8.21454 5.57776 8.07846 5.59373 8.04922C5.61285 8.01415 5.61241 7.91189 5.59238 7.74862C5.57149 7.57853 5.57149 7.4238 5.59238 7.2537C5.61241 7.09044 5.61285 6.98818 5.59373 6.9531C5.57776 6.92386 5.41185 6.78779 5.22499 6.65069C5.03816 6.51358 4.88481 6.3902 4.88428 6.37648C4.8826 6.33445 5.21146 5.77088 5.23764 5.77088C5.25114 5.77088 5.43103 5.84346 5.63739 5.93218C5.84372 6.02089 6.04638 6.09301 6.08774 6.09242C6.13131 6.0918 6.24333 6.03028 6.35414 5.94611C6.45931 5.86622 6.6314 5.76548 6.73657 5.72223C7.04824 5.5941 7.05595 5.58146 7.11028 5.10877C7.13611 4.88418 7.17012 4.68397 7.18583 4.66379C7.20557 4.63851 7.31259 4.62713 7.53084 4.62713C7.74896 4.62713 7.85616 4.63851 7.87602 4.66379ZM13.8192 6.0623C13.6758 6.1084 13.5421 6.20779 13.4552 6.33281L13.3702 6.45508L13.3689 7.33737C13.3679 8.12627 13.3608 8.25445 13.3026 8.54831C13.0685 9.73056 12.5571 10.7148 11.7385 11.5589C11.2743 12.0376 10.7354 12.4341 10.1533 12.7251L9.87034 12.8665L9.83839 12.7252C9.79535 12.5347 9.70401 12.4154 9.55604 12.3563C9.36006 12.2782 9.24213 12.3148 8.96184 12.541C7.6488 13.6004 7.53084 13.7144 7.53084 13.9237C7.53084 14.0284 7.62456 14.2169 7.70487 14.2739C7.74838 14.3048 8.19999 14.4841 8.7085 14.6724C9.70151 15.0401 9.7697 15.0543 9.9387 14.9285C10.1211 14.7928 10.1643 14.6414 10.1104 14.327C10.0873 14.1922 10.0892 14.1866 10.1692 14.1567C10.3606 14.085 10.7999 13.8729 11.0544 13.7292C12.8235 12.7304 14.0974 11.0255 14.5353 9.07015C14.6854 8.4003 14.7434 7.5312 14.6812 6.8853C14.6387 6.44373 14.5639 6.27647 14.3493 6.1431C14.2052 6.05356 13.9618 6.01649 13.8192 6.0623ZM7.18092 6.19668C6.55244 6.37258 6.13672 6.96061 6.18611 7.60381C6.22562 8.11841 6.56568 8.57426 7.0531 8.766C7.29511 8.8612 7.76635 8.86129 8.00813 8.76618C8.37647 8.62125 8.68708 8.30105 8.81531 7.93412C8.88933 7.72238 8.88933 7.27995 8.81531 7.06821C8.68655 6.69975 8.37191 6.37639 8.00813 6.23867C7.78762 6.15518 7.39949 6.13547 7.18092 6.19668ZM14.1347 6.54071C14.2024 6.59907 14.2148 6.6406 14.2424 6.89996C14.3101 7.53721 14.2278 8.52109 14.0498 9.20212C13.8836 9.83807 13.5414 10.6112 13.1866 11.1524C12.8209 11.71 12.2411 12.3441 11.7196 12.757C11.249 13.1295 10.5824 13.5155 10.0313 13.7344C9.8776 13.7954 9.71948 13.8758 9.67992 13.9129L9.60799 13.9805L9.65415 14.2674C9.67953 14.4252 9.69804 14.5571 9.69527 14.5605C9.68386 14.5748 8.00151 13.9412 8.00151 13.9226C8.00151 13.8985 9.31091 12.813 9.36506 12.7923C9.39192 12.782 9.41278 12.8427 9.43805 13.0049C9.50038 13.4045 9.58387 13.4554 9.93703 13.3088C11.3544 12.7207 12.5045 11.644 13.1803 10.2726C13.6711 9.2767 13.8499 8.42244 13.8169 7.23101L13.7993 6.59426L13.8755 6.53449C13.9738 6.45742 14.04 6.459 14.1347 6.54071ZM7.82898 6.64206C7.94827 6.67987 8.03022 6.73538 8.1646 6.86935C8.36173 7.06587 8.44277 7.24992 8.44277 7.50116C8.44277 7.75241 8.36173 7.93646 8.1646 8.13298C7.96748 8.3295 7.78285 8.4103 7.53084 8.4103C7.20168 8.4103 6.87427 8.20601 6.7133 7.90024C6.64573 7.77191 6.63443 7.71475 6.63443 7.50116C6.63443 7.28758 6.64573 7.23042 6.7133 7.10208C6.81473 6.90944 7.04542 6.70315 7.22684 6.64288C7.41414 6.58068 7.63438 6.58036 7.82898 6.64206ZM0.425404 10.4303C0.275758 10.4981 0.0798386 10.7175 0.0345948 10.8681C0.0130907 10.9397 0 11.2051 0 11.57C0 12.1843 0.0201803 12.3123 0.143645 12.4813C0.19892 12.5569 0.198802 12.5586 0.133231 12.6469C0.0155912 12.8051 0 12.9083 0 13.5285C0 14.1684 0.0185917 14.2765 0.16053 14.462C0.201538 14.5156 0.304646 14.5979 0.389662 14.6449L0.544221 14.7302H1.9662H3.38817L3.44442 14.661C3.51093 14.5791 3.51719 14.4561 3.45895 14.3766C3.41891 14.322 3.36002 14.3191 2.01506 14.305L0.612881 14.2903L0.52707 14.1946L0.44126 14.0988V13.5251V12.9514L0.527247 12.8657L0.613234 12.78H3.11432H5.61541L5.69796 12.8508L5.7805 12.9216V13.5246V14.1277L5.69899 14.209L5.61747 14.2903L4.91269 14.2996L4.20794 14.3088L4.14846 14.3842C4.07059 14.4829 4.07345 14.5476 4.16005 14.6479L4.23109 14.7302H4.93226C5.7152 14.7302 5.78648 14.7176 5.97769 14.5454C6.21112 14.3352 6.22176 14.2908 6.22176 13.5278C6.22176 12.8159 6.21297 12.7632 6.06656 12.5967C6.02599 12.5506 6.02599 12.5402 6.06656 12.4941C6.20658 12.3348 6.22062 12.2626 6.23135 11.6453C6.23974 11.1626 6.2328 11.0228 6.19376 10.8889C6.13704 10.6944 5.99228 10.5219 5.81348 10.4356C5.6901 10.376 5.65327 10.3752 3.11629 10.3758C0.68513 10.3765 0.537719 10.3794 0.425404 10.4303ZM5.66695 10.8579C5.78321 10.9391 5.79948 11.0397 5.78971 11.6169L5.7805 12.1629L5.69893 12.2442L5.61739 12.3254H3.11515H0.612939L0.5271 12.2297L0.44126 12.1339V11.5602V10.9865L0.527247 10.9008L0.613234 10.8151H3.10944C5.2504 10.8151 5.61436 10.8212 5.66695 10.8579ZM1.08844 10.979C0.826068 11.092 0.653741 11.3899 0.694308 11.6604C0.720666 11.836 0.868782 12.0433 1.02687 12.1258C1.38556 12.313 1.84861 12.0982 1.93654 11.7038C2.04553 11.2152 1.54114 10.7841 1.08844 10.979ZM2.40869 11.0143C2.21021 11.1177 2.09192 11.295 2.06989 11.5222C2.02818 11.9527 2.47817 12.3021 2.89684 12.1644C3.14554 12.0826 3.3246 11.8337 3.32351 11.5714C3.32148 11.082 2.84077 10.7893 2.40869 11.0143ZM3.80822 11.415C3.71556 11.5073 3.71382 11.6346 3.80407 11.7191C3.87023 11.7811 3.893 11.7829 4.60793 11.7829C5.33898 11.7829 5.3441 11.7824 5.40767 11.715C5.49251 11.625 5.48918 11.5045 5.3994 11.415L5.32721 11.343H4.60381H3.88041L3.80822 11.415ZM1.44186 11.4254C1.57227 11.5307 1.49043 11.7536 1.32137 11.7536C1.23965 11.7536 1.11786 11.6395 1.11786 11.5629C1.11786 11.4943 1.2395 11.3723 1.30795 11.3723C1.34543 11.3723 1.40571 11.3962 1.44186 11.4254ZM2.8175 11.418C2.89684 11.4734 2.90561 11.6213 2.83421 11.6999C2.76996 11.7707 2.63282 11.7682 2.55931 11.6949C2.48415 11.62 2.48476 11.5467 2.56145 11.4496C2.63044 11.3621 2.72146 11.3509 2.8175 11.418ZM1.07373 12.9522C0.583875 13.1752 0.559076 13.8458 1.03199 14.0807C1.23547 14.1818 1.41006 14.1828 1.60886 14.0841C1.97252 13.9034 2.06642 13.4395 1.80172 13.1312C1.61125 12.9094 1.32328 12.8385 1.07373 12.9522ZM2.40869 12.9792C1.98596 13.1994 1.95169 13.7766 2.345 14.0519C2.5704 14.2097 2.89622 14.1892 3.10779 14.0041C3.46101 13.6949 3.36811 13.1231 2.93532 12.9429C2.76708 12.8728 2.58952 12.8851 2.40869 12.9792ZM3.80822 13.3799C3.76851 13.4195 3.736 13.486 3.736 13.5278C3.736 13.5696 3.76851 13.6362 3.80822 13.6758L3.88041 13.7478H4.61205C5.3388 13.7478 5.34413 13.7473 5.40767 13.6799C5.49251 13.5899 5.48918 13.4694 5.3994 13.3799L5.32721 13.3079H4.60381H3.88041L3.80822 13.3799ZM1.44186 13.3903C1.57227 13.4956 1.49043 13.7185 1.32137 13.7185C1.23965 13.7185 1.11786 13.6044 1.11786 13.5278C1.11786 13.4592 1.2395 13.3372 1.30795 13.3372C1.34543 13.3372 1.40571 13.3611 1.44186 13.3903ZM2.8175 13.3829C2.89684 13.4383 2.90561 13.5862 2.83421 13.6648C2.73152 13.778 2.50047 13.6895 2.50047 13.537C2.50047 13.4538 2.6112 13.3372 2.69027 13.3372C2.72431 13.3372 2.78156 13.3578 2.8175 13.3829Z" fill="#410EAD"/>
</svg>
