<svg width="15" height="15" viewBox="0 0 15 15" fill="none" xmlns="http://www.w3.org/2000/svg">
<path fill-rule="evenodd" clip-rule="evenodd" d="M9.0439 0.0607453L8.96673 0.121461V0.599395V1.0773L8.71046 1.15545C8.56953 1.19841 8.29923 1.30791 8.10986 1.39881L7.76549 1.56405L7.4334 1.23621C7.14246 0.94901 7.08906 0.908396 7.00243 0.908396C6.91299 0.908396 6.84835 0.963661 6.32433 1.48795C5.7995 2.01306 5.74508 2.07683 5.74508 2.16676C5.74508 2.25402 5.7852 2.30662 6.07615 2.60068L6.40722 2.93532L6.26719 3.20705C6.19017 3.35649 6.08124 3.6158 6.02513 3.78329L5.92309 4.08778L5.45074 4.10243L4.97839 4.11708L4.90777 4.19931C4.84396 4.27359 4.83716 4.30811 4.83716 4.55745V4.83337L2.92614 4.84152C1.03058 4.8496 1.01418 4.85016 0.897962 4.91301C0.833529 4.94789 0.738636 5.02041 0.687119 5.07418C0.490218 5.27971 0.502577 5.0181 0.502577 8.97694V12.564L0.322429 12.577C0.169605 12.5881 0.131502 12.6026 0.0711399 12.6728L0 12.7556L0.00966495 13.4195L0.0193299 14.0834L0.128456 14.3042C0.261862 14.5742 0.456801 14.7655 0.730348 14.8952L0.927249 14.9885L6.43334 14.9975C10.5305 15.0042 11.9806 14.9978 12.1005 14.9725C12.5621 14.875 12.9366 14.5018 13.0341 14.0421C13.0522 13.9567 13.067 13.631 13.067 13.3185C13.067 12.7642 13.0653 12.7481 12.9982 12.6701C12.9405 12.6029 12.9005 12.588 12.7493 12.577L12.5691 12.564V10.8533C12.5691 9.91239 12.5769 9.14256 12.5865 9.14256C12.596 9.14256 12.6373 9.16894 12.6783 9.20117C12.7192 9.2334 12.7934 9.25978 12.8432 9.25978C12.9216 9.25978 13.0102 9.18315 13.5128 8.68022C14.0368 8.15593 14.0921 8.09126 14.0921 8.00177C14.0921 7.91509 14.0515 7.86167 13.7644 7.57057L13.4368 7.2383L13.6019 6.89376C13.6928 6.70428 13.8022 6.43388 13.8452 6.29284L13.9233 6.03644H14.4009H14.8786L14.9393 5.95922C14.9973 5.88541 15 5.84699 15 5.08177V4.28153L14.9294 4.19931L14.8588 4.11708L14.3806 4.10243C13.9312 4.08866 13.9017 4.08424 13.892 4.02918C13.8651 3.87613 13.7228 3.50198 13.588 3.22944L13.4388 2.92785L13.7654 2.59661C14.0515 2.30645 14.0921 2.25306 14.0921 2.16641C14.0921 2.07692 14.0368 2.01224 13.5128 1.48795C12.9888 0.963661 12.9242 0.908396 12.8347 0.908396C12.7481 0.908396 12.6948 0.948951 12.4048 1.23521L12.0737 1.56206L11.7723 1.41223C11.6065 1.32983 11.3432 1.22109 11.1873 1.1706L10.9037 1.07882L10.8944 0.610061L10.8851 0.1413L10.8029 0.0706498L10.7207 0H9.92089C9.15608 0 9.11768 0.00266658 9.0439 0.0607453ZM10.4018 0.921406C10.4018 1.4544 10.4066 1.46199 10.8116 1.56971C11.1798 1.66764 11.5294 1.8126 11.7918 1.97626C12.1176 2.17942 12.1372 2.17455 12.5176 1.79514L12.8331 1.48045L13.1767 1.82426L13.5203 2.16808L13.2058 2.48373C12.8266 2.86432 12.8217 2.88392 13.0248 3.20989C13.1884 3.47245 13.3332 3.82218 13.4311 4.19061C13.5388 4.59578 13.5464 4.60059 14.0791 4.60059H14.5021V5.08409V5.56759H14.0683C13.5723 5.56759 13.5342 5.58315 13.4772 5.80945C13.3585 6.28012 13.1466 6.7909 12.9516 7.0767C12.9187 7.12505 12.8916 7.20944 12.8915 7.26421C12.8913 7.35144 12.9295 7.40261 13.1982 7.67548L13.5052 7.98714L13.1611 8.33049L12.8171 8.67383L12.5247 8.37831C12.3639 8.21577 12.2003 8.07013 12.1612 8.05466C12.1049 8.03239 12.0621 8.04203 11.9562 8.10096C11.4336 8.39144 11.1114 8.52213 10.6144 8.64512C10.4263 8.69165 10.4018 8.76218 10.4018 9.25831V9.67002H9.91858H9.43533V9.22915C9.43533 8.80602 9.43258 8.78551 9.3668 8.71972C9.32785 8.68072 9.24259 8.64175 9.16911 8.62932C8.94925 8.59216 8.49031 8.42496 8.24701 8.29336C8.11935 8.22429 7.95988 8.1382 7.89263 8.10207C7.82199 8.06409 7.74028 8.04209 7.69913 8.04994C7.659 8.05762 7.49511 8.19687 7.32398 8.3687L7.02006 8.6738L6.67546 8.3299L6.33086 7.98603L6.64017 7.67556C6.88666 7.42822 6.94998 7.34772 6.95182 7.2795C6.95326 7.22688 6.89644 7.09328 6.8043 6.93267C6.60857 6.5915 6.49564 6.31584 6.40566 5.95981C6.30509 5.5617 6.31464 5.56759 5.77112 5.56759H5.33505V5.08409V4.60059H5.74701C6.26462 4.60059 6.33447 4.5697 6.37655 4.32221C6.42939 4.01162 6.61589 3.56006 6.89905 3.0571C6.93999 2.9844 6.96237 2.9059 6.95428 2.8635C6.94661 2.82332 6.80755 2.65946 6.63569 2.48813L6.33075 2.18405L6.67391 1.83982L7.01705 1.4956L7.32855 1.8027C7.67851 2.14774 7.74593 2.17388 7.94219 2.04052C8.22259 1.84993 8.74608 1.63344 9.19359 1.52297C9.41958 1.46718 9.43533 1.42864 9.43533 0.932161V0.498153H9.91858H10.4018V0.921406ZM9.47927 1.96451C9.03078 2.03422 8.54226 2.22487 8.15484 2.48133C7.9317 2.62907 7.59346 2.9524 7.41146 3.19193C7.22798 3.43344 6.96688 3.96064 6.88871 4.24748C6.4894 5.71264 7.19819 7.25735 8.57135 7.91453C9.25507 8.24176 10.0305 8.31314 10.7547 8.11555C11.0417 8.03725 11.5684 7.77607 11.8104 7.59205C13.3587 6.41454 13.4881 4.14437 12.0829 2.81207C11.633 2.38559 11.1552 2.13098 10.5656 2.0036C10.3117 1.94874 9.71808 1.92738 9.47927 1.96451ZM10.4543 2.4786C11.4952 2.69281 12.3141 3.51883 12.5265 4.56891C12.5933 4.89916 12.5727 5.48823 12.4835 5.79644C12.337 6.30245 11.9956 6.81804 11.5918 7.14307C11.3635 7.32689 10.9036 7.57535 10.7313 7.60805L10.6361 7.62613V7.13987V6.65359L10.7984 6.54977C11.1326 6.33586 11.3943 5.99802 11.5177 5.62115C11.6188 5.31242 11.6188 4.79715 11.5177 4.48841C11.3818 4.07345 11.0721 3.70215 10.6974 3.50518C10.4483 3.37422 10.315 3.36602 10.2282 3.47637C10.1706 3.54963 10.1675 3.58969 10.1675 4.26146V4.96934L10.0398 5.09472L9.91208 5.22014L9.79106 5.07887L9.67002 4.93757L9.66981 4.23617C9.66964 3.55652 9.66767 3.53269 9.60596 3.46697C9.51341 3.36842 9.3789 3.37944 9.13976 3.50515C8.83772 3.66397 8.58209 3.93482 8.42505 4.2624C8.27727 4.5707 8.23436 4.75147 8.23498 5.06354C8.23553 5.36422 8.29844 5.61512 8.44283 5.89279C8.57832 6.15339 8.85872 6.45535 9.06865 6.56679L9.20103 6.63706V7.12792C9.20103 7.69945 9.22332 7.67261 8.87503 7.52046C8.03184 7.15212 7.44052 6.39417 7.29575 5.49615C7.25135 5.22084 7.27454 4.68718 7.34229 4.42477C7.41548 4.14135 7.63024 3.7059 7.81748 3.46128C8.19479 2.96829 8.76075 2.60897 9.36211 2.48068C9.63891 2.42161 10.1724 2.42061 10.4543 2.4786ZM9.51705 5.48396C9.92901 5.90027 9.90537 5.90021 10.3198 5.48554L10.6361 5.16906V4.60035V4.03164L10.766 4.15911C10.8374 4.22923 10.9358 4.36798 10.9848 4.46746C11.308 5.12444 11.0573 5.88122 10.4077 6.20933C10.309 6.25914 10.2146 6.32545 10.1979 6.35672C10.1795 6.39115 10.1675 6.67399 10.1675 7.07476V7.73602H9.91858H9.66963V7.07476C9.66963 6.67399 9.65766 6.39115 9.63923 6.35672C9.62254 6.32545 9.52987 6.26002 9.43337 6.21126C9.0321 6.0086 8.78125 5.64967 8.71732 5.18665C8.6742 4.8746 8.82492 4.42843 9.05943 4.17382L9.18639 4.03594L9.19435 4.60091L9.20232 5.16587L9.51705 5.48396ZM4.84173 5.62883C4.85579 6.04133 4.84844 6.03644 5.45153 6.03644H5.91296L6.00694 6.33304C6.05863 6.49617 6.17028 6.76556 6.25504 6.93168L6.40915 7.23373L6.09073 7.55082C5.91562 7.7252 5.76473 7.8978 5.75539 7.93437C5.74608 7.97097 5.75384 8.03807 5.77267 8.08355C5.81645 8.18933 6.85037 9.21688 6.94066 9.24436C7.06271 9.28152 7.13182 9.23692 7.45314 8.91394L7.77006 8.59536L8.07196 8.74955C8.23799 8.83436 8.50723 8.94606 8.67028 8.99778L8.96673 9.09181V9.55348C8.96673 9.96428 8.97291 10.0228 9.02267 10.0843L9.07864 10.1535L9.89817 10.1621L10.7177 10.1708L10.8014 10.0988L10.8851 10.0269L10.8997 9.55427L10.9144 9.08167L11.2187 8.97958C11.3861 8.92344 11.6463 8.81396 11.7969 8.73625C11.9474 8.65857 12.0774 8.60172 12.0856 8.60995C12.0938 8.61816 12.1005 9.51275 12.1005 10.598V12.571H6.53585H0.971181V9.02403V5.47701L1.04308 5.4051L1.11495 5.33316H2.97332H4.83168L4.84173 5.62883ZM1.59545 5.83152C1.56027 5.8457 1.51743 5.88356 1.50026 5.91565C1.47877 5.95582 1.46907 6.90501 1.46907 8.96616V11.9583L1.54097 12.0302L1.61285 12.1022H6.53585H11.4589L11.5307 12.0302L11.6026 11.9583V11.2977V10.637H11.3683H11.134V11.1205V11.604H6.53585H1.93768V8.95242V6.30081L3.14579 6.29316L4.35391 6.28551L4.36241 6.04376L4.37093 5.80201L3.01517 5.80386C2.26954 5.80488 1.63065 5.81734 1.59545 5.83152ZM3.40206 13.2752C3.40206 13.3886 3.42019 13.5247 3.44233 13.5777C3.49977 13.7153 3.65505 13.8826 3.79466 13.9573L3.9146 14.0215H6.53585H9.1571L9.27844 13.9566C9.43188 13.8745 9.59164 13.6891 9.63563 13.5422C9.65435 13.4797 9.66963 13.3478 9.66963 13.2489V13.0692H11.1213H12.5731L12.5638 13.5478C12.5546 14.0222 12.5537 14.0277 12.4659 14.1697C12.411 14.2584 12.3225 14.3468 12.2338 14.4017L12.0905 14.4904L6.5594 14.4979L1.02832 14.5055L0.904551 14.4433C0.735122 14.3583 0.655488 14.2801 0.572897 14.1177C0.507615 13.9894 0.502577 13.947 0.502577 13.5243V13.0692H1.95232H3.40206V13.2752ZM9.19506 13.2494C9.17212 13.5662 9.43261 13.538 6.53128 13.538H4.01444L3.94257 13.4661C3.88352 13.407 3.87067 13.3651 3.87067 13.2317V13.0692H6.53936H9.20806L9.19506 13.2494Z" fill="#410EAD"/>
</svg>
