<svg width="15" height="15" viewBox="0 0 15 15" fill="none" xmlns="http://www.w3.org/2000/svg">
<path fill-rule="evenodd" clip-rule="evenodd" d="M3.38313 0.0303851C3.269 0.0855948 3.25512 0.174241 3.25512 0.848537V1.49309L3.13046 1.42112C2.90725 1.29221 2.72122 1.25619 2.27852 1.25619C1.91114 1.25619 1.85819 1.26276 1.75441 1.32101C1.69091 1.35665 1.60993 1.43249 1.57443 1.48951C1.51721 1.58141 1.51014 1.63152 1.51219 1.9302C1.5141 2.20425 1.52651 2.29729 1.57863 2.42837C1.70977 2.75822 1.98939 3.03958 2.30911 3.1635C2.44351 3.21561 2.55688 3.23164 2.86648 3.2423L3.25512 3.2557V3.74778V4.23986L3.04613 4.13266L2.83711 4.02547L2.35915 4.01565C1.8063 4.00431 1.71878 4.02816 1.58793 4.2257C1.42537 4.4711 1.48101 5.07483 1.69684 5.40791C1.96986 5.82916 2.33545 6.0022 2.95447 6.00308L3.25512 6.00352V6.49633V6.98918L3.05713 6.89133C2.82347 6.77587 2.609 6.73607 2.22851 6.7376C1.68572 6.73977 1.49729 6.90296 1.49585 7.37207C1.49456 7.79528 1.61482 8.11925 1.8667 8.37106C2.13945 8.64377 2.47249 8.75762 2.99847 8.75797L3.25512 8.75814V9.12445V9.49076L1.83986 9.4914C0.52664 9.49199 0.416146 9.49594 0.307266 9.54614C0.171518 9.60874 0.0750457 9.70503 0.0305785 9.82234C-0.0101341 9.92968 -0.0102221 10.8098 0.0304906 10.9174C0.0958714 11.0904 0.309994 11.249 0.477978 11.249C0.546879 11.249 0.552364 11.2716 0.8612 12.8241C1.03352 13.6905 1.19585 14.4576 1.22195 14.529C1.28686 14.7066 1.47999 14.8926 1.66228 14.9531C1.79378 14.9967 1.98215 15.001 3.43422 14.9936C5.04232 14.9854 5.06027 14.9847 5.17915 14.9211C5.31675 14.8476 5.47446 14.6794 5.52914 14.5479C5.54973 14.4984 5.65415 14.0161 5.76121 13.4762C5.86824 12.9362 5.96563 12.4702 5.97762 12.4405C5.99619 12.3946 6.10891 12.4743 6.74016 12.98L7.48094 13.5734L7.41016 13.6493C7.29527 13.7726 7.26735 13.8531 7.25151 14.1069C7.22088 14.5973 7.29489 14.812 7.5367 14.9341L7.66735 15H10.2654H12.8636L12.9943 14.9341C13.0796 14.8911 13.1483 14.8273 13.1919 14.7509C13.254 14.6419 13.2581 14.6047 13.2506 14.219L13.2426 13.8043L13.148 13.6868L13.0534 13.5693L13.9001 12.8915C14.9395 12.0595 14.9991 11.9848 14.9997 11.5128L15 11.2637L14.5225 10.1229C14.2599 9.4955 14.0137 8.92046 13.9754 8.84503C13.9372 8.7696 13.8377 8.64667 13.7544 8.57185C13.625 8.4556 13.5546 8.42076 13.2699 8.33194L12.9367 8.22805L13.3463 7.40703L13.7559 6.58601V6.35854C13.7559 5.73222 13.5121 4.97218 13.125 4.39177C12.6269 3.64518 11.8396 3.07037 11.0086 2.84684C10.7566 2.77903 10.6626 2.76907 10.2654 2.76795C9.85656 2.76684 9.7813 2.77487 9.51749 2.84787C9.16362 2.9458 8.70481 3.15999 8.39574 3.37154C8.08943 3.58121 7.61933 4.05676 7.41286 4.36578C7.02383 4.94806 6.81892 5.55856 6.76366 6.29991L6.74703 6.52303L7.15747 7.36759C7.38318 7.83209 7.55776 8.22161 7.54538 8.23321C7.53303 8.24479 7.41732 8.28344 7.28826 8.31907C6.77378 8.46111 6.62703 8.60286 6.39349 9.18347L6.26986 9.49076H5.01181H3.75377V9.12445V8.75814L4.01042 8.75797C4.35833 8.75773 4.57702 8.71785 4.7988 8.61417C5.26609 8.3957 5.54354 7.88376 5.50688 7.30757C5.49098 7.05795 5.4319 6.93628 5.27674 6.83369C5.17322 6.76526 5.12195 6.75407 4.85955 6.74243C4.46735 6.72506 4.19773 6.76922 3.95176 6.89107L3.75377 6.98918V6.49633V6.00352H4.04565C4.38745 6.00352 4.58711 5.96677 4.80971 5.86292C5.01636 5.76653 5.27609 5.50698 5.37447 5.29863C5.53723 4.95383 5.55806 4.43268 5.41756 4.22055C5.29035 4.02851 5.19989 4.00437 4.64974 4.01565L4.17177 4.02547L3.96276 4.13266L3.75377 4.23986V3.74778V3.2557L4.14241 3.2423C4.59791 3.2266 4.78288 3.17016 5.02513 2.973C5.36206 2.69876 5.49901 2.38831 5.49901 1.89875C5.49901 1.61687 5.49244 1.5793 5.42618 1.48272C5.29263 1.28799 5.19493 1.25619 4.73037 1.25619C4.28766 1.25619 4.10164 1.29221 3.87843 1.42112L3.75377 1.49309V0.830251V0.167413L3.66803 0.0817559C3.5793 -0.00689017 3.49251 -0.0225388 3.38313 0.0303851ZM2.75912 1.79454C3.05303 1.89951 3.22843 2.15991 3.24943 2.5225L3.26266 2.75072H2.9709C2.57495 2.75072 2.40802 2.69841 2.2271 2.51769C2.06715 2.35787 1.99385 2.16698 1.99385 1.91021V1.75437L2.32384 1.75566C2.51476 1.75639 2.6982 1.7728 2.75912 1.79454ZM5.00679 1.97503C4.98641 2.24449 4.90724 2.41987 4.74243 2.56083C4.5801 2.69961 4.39159 2.75072 4.04175 2.75072H3.75377V2.56546C3.75377 2.21606 3.89456 1.96747 4.17013 1.83027C4.30858 1.76134 4.35478 1.75437 4.67306 1.75437H5.02351L5.00679 1.97503ZM10.8521 3.32433C11.7084 3.5505 12.5052 4.21633 12.9154 5.04855C13.0386 5.29845 13.1685 5.66614 13.2081 5.87637L13.2254 5.969L12.8674 5.7988C11.9893 5.38139 11.1373 5.21661 10.0308 5.25022C9.42609 5.26859 8.97631 5.33476 8.48565 5.47756C8.15939 5.57251 7.63578 5.78517 7.4255 5.9081L7.29876 5.98222L7.31862 5.86834C7.32953 5.80569 7.37717 5.6368 7.42448 5.49304C7.79356 4.37129 8.78448 3.47668 9.87918 3.27697C10.0823 3.23993 10.6342 3.26677 10.8521 3.32433ZM2.83876 4.58489C3.11521 4.72253 3.25512 4.97575 3.25512 5.33845V5.51258L2.91047 5.49913C2.53168 5.48436 2.41949 5.45095 2.25036 5.30259C2.09965 5.17036 2.02186 4.9909 2.00209 4.72965L1.98537 4.50899H2.33583C2.65411 4.50899 2.70031 4.51597 2.83876 4.58489ZM5.00712 4.72535C4.98221 5.05458 4.84656 5.27952 4.59524 5.4084C4.46254 5.47645 4.39898 5.48811 4.09842 5.49951L3.75377 5.51258V5.32369C3.75377 4.9706 3.89353 4.72259 4.17013 4.58489C4.30858 4.51597 4.35478 4.50899 4.67306 4.50899H5.02351L5.00712 4.72535ZM11.1694 5.81509C11.3406 5.8405 11.4909 5.86766 11.5036 5.87552C11.5163 5.88334 11.5267 6.04967 11.5267 6.24514C11.5267 6.56965 11.5323 6.60637 11.5905 6.66832C11.6256 6.7056 11.6788 6.73613 11.7088 6.73613C11.8268 6.73613 11.9586 6.81731 11.9909 6.90991C12.0475 7.07202 11.9498 7.21344 11.7565 7.24928C11.6093 7.27657 11.54 7.36181 11.483 7.58596C11.3701 8.02913 11.0793 8.45238 10.7737 8.61792C10.4599 8.78806 10.0655 8.7832 9.73008 8.60509C9.42066 8.44075 9.20959 8.13205 9.05061 7.61128C8.96505 7.33107 8.92272 7.27794 8.76116 7.24799C8.5928 7.21676 8.52152 7.14502 8.52152 7.0067C8.52152 6.85432 8.56784 6.80385 8.75843 6.7485C8.98626 6.68233 9.00418 6.64376 9.00418 6.21982V5.86306L9.26083 5.82643C9.92238 5.73201 10.583 5.72812 11.1694 5.81509ZM8.5046 6.14272C8.50372 6.27508 8.49747 6.28569 8.37709 6.35857C7.87349 6.6636 7.89608 7.39522 8.41722 7.65908C8.51891 7.71054 8.56666 7.75605 8.59039 7.82397C8.6084 7.87558 8.61975 7.92088 8.61568 7.92463C8.60943 7.93032 8.46746 7.97266 8.11642 8.0735C8.07368 8.08578 8.0005 7.95649 7.69823 7.33491C7.41829 6.7592 7.3395 6.57226 7.36423 6.54246C7.45991 6.42729 8.32288 6.0126 8.48354 6.0046C8.49565 6.00402 8.50512 6.06614 8.5046 6.14272ZM12.2559 6.07537C12.4873 6.154 12.9937 6.40915 13.1233 6.51233L13.205 6.57742L12.8319 7.32345C12.6267 7.73377 12.455 8.07362 12.4504 8.07869C12.4433 8.08654 11.9342 7.9404 11.9163 7.92534C11.9128 7.92241 11.9246 7.87215 11.9426 7.81369C11.9638 7.74479 11.9976 7.7018 12.0387 7.69146C12.1626 7.66043 12.3345 7.50611 12.42 7.34927C12.6046 7.01054 12.5016 6.60209 12.1772 6.38586C12.0295 6.28742 12.0254 6.28086 12.0254 6.14409C12.0254 6.06679 12.0296 6.00352 12.0349 6.00352C12.0401 6.00352 12.1396 6.03584 12.2559 6.07537ZM2.83732 7.33324C3.11219 7.47241 3.25512 7.72745 3.25512 8.07872V8.26802L2.91039 8.25381C2.55303 8.23913 2.46466 8.21361 2.27174 8.06955C2.13602 7.96818 2.02421 7.73767 2.00353 7.51663C1.97561 7.21763 1.96877 7.22291 2.35704 7.24202C2.63502 7.2557 2.71363 7.27065 2.83732 7.33324ZM4.99694 7.47417C4.99404 7.66558 4.98045 7.72273 4.90648 7.85512C4.74539 8.14339 4.48486 8.25997 4.00165 8.25997H3.75377L3.75394 8.07681C3.75403 7.97609 3.76776 7.84455 3.78445 7.7845C3.8527 7.5389 4.12027 7.3052 4.3844 7.26048C4.44893 7.24955 4.61392 7.24248 4.75105 7.24477L5.00037 7.24896L4.99694 7.47417ZM8.91595 8.52336C9.02494 8.69303 9.26755 8.92298 9.4507 9.03024C9.90745 9.29767 10.5135 9.31147 10.9993 9.06555C11.2035 8.96219 11.4436 8.75395 11.57 8.57062C11.6322 8.48034 11.7008 8.40649 11.7225 8.40649C11.7853 8.40649 13.2639 8.84799 13.3501 8.89248C13.393 8.91466 13.4537 8.96533 13.485 9.00512C13.5725 9.11616 14.5186 11.4074 14.5186 11.5082C14.5186 11.6244 14.4714 11.7451 14.3919 11.8318C14.3568 11.8702 14.0342 12.1375 13.6753 12.4258L13.0226 12.95V11.6946C13.0226 10.2188 13.0215 10.2108 12.777 9.97255C12.6739 9.87212 12.5826 9.81266 12.4938 9.78817C12.394 9.76065 11.8446 9.75409 10.1921 9.76059C7.76966 9.77014 7.95057 9.75411 7.72542 9.97903C7.52016 10.1841 7.52453 10.151 7.50825 11.6197L7.49358 12.9428L6.81895 12.4053C6.09964 11.8322 6.01367 11.7381 6.01279 11.5232C6.01209 11.3441 6.94681 9.10417 7.0778 8.97101C7.16049 8.88694 7.26444 8.84817 7.99231 8.62985C8.44397 8.49434 8.81546 8.38208 8.8178 8.38035C8.82015 8.37862 8.86432 8.44294 8.91595 8.52336ZM6.04165 10.0106C6.04165 10.0225 5.97381 10.1939 5.89089 10.3915L5.74015 10.7508H3.11902H0.497924V10.3699V9.98893H3.26979C4.79431 9.98893 6.04165 9.99869 6.04165 10.0106ZM12.427 10.3234L12.5093 10.3941L12.5174 11.9498L12.5255 13.5055H10.2662H8.00689V11.9797C8.00689 10.4153 8.00956 10.3762 8.12167 10.2902C8.15722 10.263 8.66117 10.2543 10.2565 10.2536L12.3447 10.2527L12.427 10.3234ZM1.86247 12.4285C2.12098 13.7313 2.12406 13.7399 2.33117 13.7399C2.45539 13.7399 2.58049 13.6334 2.58049 13.5277C2.58049 13.4901 2.48149 12.9658 2.3605 12.3626C2.23951 11.7594 2.14051 11.2621 2.14051 11.2575C2.14051 11.2528 2.9034 11.249 3.83581 11.249H5.53113L5.51896 11.4397C5.5123 11.5446 5.52163 11.6892 5.53976 11.7611C5.56973 11.8801 5.55043 12.0023 5.3232 13.1308C5.09453 14.2667 5.06748 14.3754 4.99876 14.4359L4.92376 14.5018H3.3987C1.68818 14.5018 1.72675 14.5062 1.67422 14.3038C1.65859 14.2435 1.51873 13.5546 1.36345 12.7729C1.20817 11.9912 1.07438 11.3285 1.0662 11.3003C1.05271 11.2539 1.0789 11.249 1.33987 11.249H1.62843L1.86247 12.4285ZM10.0599 11.2764C9.81998 11.3493 9.61622 11.5522 9.54614 11.7879C9.4915 11.9717 9.49191 12.0218 9.54957 12.2181C9.60765 12.4158 9.83489 12.6524 10.0195 12.7075C10.2078 12.7637 10.4083 12.7516 10.5751 12.674C11.1749 12.3949 11.129 11.5066 10.5039 11.2938C10.3647 11.2464 10.1821 11.2393 10.0599 11.2764ZM10.4488 11.8375C10.5244 11.93 10.5148 12.0868 10.4281 12.1734C10.3354 12.2661 10.206 12.2671 10.0999 12.1759C9.91737 12.0191 10.0553 11.72 10.2926 11.758C10.3502 11.7672 10.4206 11.803 10.4488 11.8375ZM12.7587 14.2527V14.5018H10.2654H7.77224V14.2527V14.0036H10.2654H12.7587V14.2527Z" fill="#410EAD"/>
</svg>
