<svg width="15" height="15" viewBox="0 0 15 15" fill="none" xmlns="http://www.w3.org/2000/svg">
<path d="M0.00229048 2.40391C2.22858 1.6558 4.44343 0.935715 6.63536 0.159576C7.2492 -0.0581739 7.76912 -0.0495505 8.37609 0.163888C10.4718 0.90122 12.5859 1.58897 14.6931 2.29827C14.7916 2.33061 14.8878 2.37373 15 2.41685C14.8855 3.37193 14.7732 4.31839 14.6564 5.26485C14.4801 6.7007 14.3014 8.13441 14.1273 9.57026C14.0449 10.2451 13.9716 10.9199 13.8754 11.5904C13.8617 11.6788 13.7632 11.7866 13.6738 11.8318C11.6697 12.8861 9.66331 13.9339 7.65231 14.9752C7.56528 15.0205 7.40037 14.9989 7.30417 14.9493C5.32753 13.9274 3.35318 12.9033 1.38571 11.862C1.25515 11.793 1.13834 11.6076 1.12002 11.4653C0.872652 9.59613 0.639029 7.72478 0.407696 5.85342C0.26798 4.71939 0.139716 3.58321 0 2.40607L0.00229048 2.40391ZM2.87219 11.4308C3.39212 11.4308 3.83417 11.4179 4.27393 11.4373C4.50756 11.4481 4.59459 11.3532 4.67018 11.1657C4.89006 10.6137 5.1443 10.0748 5.36189 9.52283C5.44892 9.30293 5.55886 9.21669 5.81997 9.221C6.94228 9.23609 8.06688 9.23394 9.18919 9.221C9.42281 9.21884 9.54421 9.28137 9.62895 9.49481C9.8557 10.0704 10.1031 10.6396 10.3573 11.2045C10.3985 11.2972 10.5245 11.4179 10.6161 11.4222C11.1017 11.4438 11.5896 11.433 12.1301 11.433C10.5772 8.14734 9.04947 4.91774 7.50115 1.64502C5.94824 4.92852 4.42281 8.15597 2.87219 11.433V11.4308Z" fill="#410EAD"/>
<path d="M6.11523 7.86513C6.57561 6.82381 7.02224 5.81051 7.50094 4.72607C7.97735 5.80405 8.42398 6.81518 8.88894 7.86513H6.11523Z" fill="#410EAD"/>
</svg>
