<svg width="15" height="15" viewBox="0 0 15 15" fill="none" xmlns="http://www.w3.org/2000/svg">
<path d="M7.58736 15H7.41078C7.38476 14.9888 7.3606 14.974 7.33271 14.9684C5.34387 14.5688 3.35502 14.1692 1.36617 13.7752C1.26766 13.7548 1.23978 13.7139 1.23234 13.6228C1.15613 12.7475 1.07435 11.874 0.996283 10.9986C0.894052 9.87052 0.79368 8.74427 0.69145 7.61616C0.589219 6.48804 0.483271 5.36179 0.381041 4.23368C0.275093 3.07769 0.171004 1.91984 0.0650557 0.763846C0.0427508 0.512947 0.0223048 0.262049 0 0H15V0.176558C14.9926 0.19886 14.9796 0.221162 14.9758 0.243464C14.9052 1.00545 14.8364 1.7693 14.7677 2.53128C14.6654 3.6594 14.5669 4.78565 14.4628 5.91377C14.3401 7.25375 14.2156 8.59559 14.0929 9.93557C13.9814 11.164 13.8717 12.3944 13.7621 13.6228C13.7546 13.7139 13.7249 13.7548 13.6264 13.7734C11.9182 14.1116 10.2119 14.4517 8.50558 14.7956C8.19703 14.8569 7.89034 14.9294 7.58178 14.9981L7.58736 15ZM8.13197 2.50898V8.12725H10.487C10.487 8.17185 10.4888 8.20159 10.487 8.22946C10.4182 8.99703 10.3494 9.76459 10.2751 10.5322C10.2714 10.5712 10.2138 10.6288 10.1729 10.6381C9.79182 10.7217 9.40892 10.7942 9.02602 10.8723C8.72677 10.9317 8.42751 10.9931 8.13569 11.0525V12.3163C8.18216 12.3107 8.21561 12.3107 8.24907 12.3033C9.27695 12.0989 10.3048 11.8926 11.3327 11.69C11.4126 11.6751 11.4331 11.6324 11.4387 11.5618C11.461 11.2904 11.4888 11.0172 11.513 10.7459C11.5967 9.8222 11.6822 8.90038 11.7658 7.97671C11.7993 7.61801 11.829 7.25932 11.8625 6.88205H9.3829V3.74861H12.1487C12.1859 3.33044 12.223 2.92343 12.2602 2.50898H8.13383H8.13197ZM3.36431 9.3836C3.37546 9.51741 3.38662 9.64379 3.39777 9.76831C3.45167 10.3612 3.50743 10.954 3.55762 11.5469C3.56506 11.6305 3.59108 11.6733 3.68216 11.69C4.55762 11.861 5.43309 12.0375 6.30669 12.2122C6.49071 12.2494 6.67472 12.281 6.86245 12.3163V2.50712H5.62454V10.7979C5.36989 10.7496 5.13383 10.6957 4.89405 10.6604C4.75465 10.6399 4.70632 10.5805 4.7119 10.4429C4.71561 10.3221 4.69517 10.1995 4.68216 10.0787C4.65985 9.84636 4.63755 9.61591 4.61524 9.3836H3.36431Z" fill="#410EAD"/>
</svg>
