<svg width="17" height="15" viewBox="0 0 17 15" fill="none" xmlns="http://www.w3.org/2000/svg">
<path d="M8.50263 9.5998C9.06982 8.60457 9.61075 7.65202 10.1543 6.70214C11.3596 4.58093 12.5701 2.46238 13.7675 0.335824C13.8909 0.117032 14.0275 0.0423223 14.2743 0.0449905C15.1566 0.0609997 16.0389 0.0503269 17 0.0503269C14.1588 5.04786 11.3491 9.99203 8.50263 15.0002C5.65879 10.0054 2.84384 5.05586 0 0.0529951C1.01097 0.0529951 1.94578 0.0423223 2.8806 0.0663361C3.00402 0.0690043 3.16157 0.239769 3.23509 0.373179C4.84476 3.18546 6.44393 6.00307 8.04572 8.81802C8.18489 9.0635 8.32932 9.30897 8.5 9.5998H8.50263Z" fill="#410EAD"/>
<path d="M3.72852 0.0527787C4.66071 0.0527787 5.51675 0.0447741 6.36753 0.0634515C6.47257 0.0634515 6.60912 0.207534 6.67476 0.319598C7.19994 1.22145 7.70936 2.1313 8.22404 3.03849C8.30281 3.17991 8.38947 3.31598 8.49975 3.50276C8.89889 2.80369 9.27702 2.13664 9.6604 1.47493C9.93086 1.00799 10.1068 0.364958 10.5112 0.127488C10.9156 -0.109981 11.551 0.0581151 12.0841 0.0527787C12.4465 0.0501105 12.8062 0.0527787 13.2657 0.0527787C11.6666 2.86773 10.0937 5.63465 8.49713 8.44426C6.90059 5.63465 5.33293 2.87306 3.72852 0.0527787Z" fill="#410EAD"/>
</svg>
