<svg width="15" height="15" viewBox="0 0 15 15" fill="none" xmlns="http://www.w3.org/2000/svg">
<path fill-rule="evenodd" clip-rule="evenodd" d="M13.2933 0.0182491C12.9736 0.101358 12.6802 0.367802 12.5671 0.677876C12.5161 0.817673 12.5065 0.896873 12.5165 1.09302C12.5295 1.34523 12.5849 1.49972 12.7365 1.7056C12.776 1.75923 12.8037 1.81479 12.7982 1.82909C12.7926 1.8434 12.3287 2.72666 11.7673 3.79189L10.7464 5.72868L10.452 5.72965L10.1575 5.73059L9.20361 4.2507C8.38412 2.97934 8.25478 2.76359 8.28574 2.71966C8.30558 2.69154 8.35773 2.59355 8.40164 2.5019C8.47066 2.35774 8.48145 2.29845 8.48145 2.06257C8.48145 1.80946 8.47424 1.77613 8.38096 1.59822C8.27065 1.38783 8.11843 1.23606 7.91238 1.13105C7.71867 1.03234 7.28133 1.03234 7.08762 1.13105C6.74745 1.30442 6.53256 1.62873 6.51164 2.00031C6.50376 2.14044 6.51521 2.26615 6.54495 2.36526C6.58072 2.48451 6.58271 2.52426 6.55441 2.55347C6.5347 2.57386 6.19711 2.86751 5.80421 3.20607L5.08989 3.82161L4.93271 3.73962C4.57336 3.55217 4.12893 3.62046 3.82743 3.90941L3.74815 3.9854L3.12252 3.6623L2.49688 3.3392L2.48473 3.07963C2.47427 2.8563 2.45874 2.79322 2.37349 2.62812C2.26397 2.41607 2.10706 2.26585 1.8873 2.16271C1.68612 2.06827 1.30491 2.06694 1.10692 2.15998C0.91292 2.25115 0.689092 2.47848 0.595049 2.67987C0.486299 2.91272 0.47918 3.28975 0.579258 3.51447C0.743203 3.88263 1.04921 4.10672 1.42163 4.13144C1.69313 4.14947 1.90011 4.08642 2.108 3.92241L2.26772 3.79637L2.88832 4.11687L3.50895 4.43736L3.50868 4.65885C3.50818 5.0839 3.72524 5.43894 4.09365 5.61561C4.33263 5.7302 4.65978 5.73105 4.89609 5.6177C5.22067 5.46197 5.41488 5.20161 5.48013 4.83464C5.50969 4.66839 5.50772 4.60825 5.4675 4.44612C5.44134 4.34062 5.41992 4.24391 5.41992 4.23118C5.41992 4.21846 5.75552 3.91905 6.16567 3.56586L6.9114 2.92366L7.06655 3.0051C7.24415 3.09833 7.53691 3.13365 7.7136 3.08321L7.82467 3.05145L8.79006 4.54859L9.75542 6.0457L9.66829 6.17501C9.55254 6.34686 9.48155 6.64179 9.50704 6.84491C9.59812 7.57058 10.315 7.97431 10.9439 7.65409C11.2804 7.48284 11.4839 7.1498 11.4892 6.7621C11.493 6.47878 11.421 6.28248 11.2107 6.0034C11.1957 5.9834 11.587 5.2107 12.2168 4.01664L13.2476 2.06257H13.5018C13.7302 2.06257 13.7761 2.05239 13.952 1.96283C14.1651 1.85436 14.3139 1.69936 14.4212 1.47406C14.4765 1.35817 14.4873 1.28566 14.4873 1.03243C14.4873 0.762166 14.4787 0.71278 14.4086 0.575164C14.3058 0.37365 14.045 0.128566 13.8658 0.0650905C13.6879 0.00206978 13.4352 -0.018624 13.2933 0.0182491ZM13.6724 0.564651C13.7903 0.610614 13.9387 0.768438 13.977 0.888601C14.086 1.22994 13.7885 1.60171 13.4447 1.55402C13.1702 1.51593 12.9912 1.28524 13.0142 0.999039C13.0416 0.656485 13.3634 0.444184 13.6724 0.564651ZM7.73555 1.63243C7.88508 1.7142 7.99805 1.90581 7.99805 2.07772C7.99805 2.34114 7.75471 2.5928 7.5 2.5928C7.24529 2.5928 7.00195 2.34114 7.00195 2.07772C7.00195 1.90581 7.11492 1.7142 7.26445 1.63243C7.42632 1.5439 7.57368 1.5439 7.73555 1.63243ZM1.71967 2.6563C2.04457 2.81894 2.08614 3.29463 1.79552 3.52387C1.55429 3.71414 1.18805 3.62003 1.05381 3.33326C0.848057 2.89369 1.29211 2.44224 1.71967 2.6563ZM4.64218 4.17162C5.0545 4.28999 5.12399 4.88427 4.75087 5.10114C4.41911 5.29396 4.01367 5.06012 4.01367 4.6759C4.01367 4.42291 4.14076 4.23603 4.35911 4.16795C4.4705 4.13326 4.51037 4.13374 4.64218 4.17162ZM12.3219 4.50393L12.2461 4.59713V8.80864V13.0201L12.3317 13.1087L12.4174 13.1972H13.505H14.5925L14.6644 13.1229L14.7363 13.0485V8.80397V4.55944L14.6644 4.48508L14.5925 4.4107H13.4951H12.3978L12.3219 4.50393ZM14.2383 8.80397V12.6822H13.4912H12.7441V8.80397V4.92578H13.4912H14.2383V8.80397ZM6.33709 5.51396L6.25488 5.5871V9.31905V13.051L6.33709 13.1241L6.4193 13.1972H7.5H8.5807L8.66291 13.1241L8.74512 13.051V9.31905V5.5871L8.66291 5.51396L8.5807 5.44085H7.5H6.4193L6.33709 5.51396ZM8.26172 9.31905V12.6822H7.5H6.73828V9.31905V5.95592H7.5H8.26172V9.31905ZM10.7542 6.29751C10.9749 6.45127 11.0505 6.73099 10.9378 6.97661C10.8456 7.17761 10.5911 7.28972 10.368 7.22758C10.0523 7.13968 9.907 6.76062 10.0742 6.46088C10.1961 6.24227 10.5522 6.15671 10.7542 6.29751ZM0.390088 6.50151C0.354902 6.51617 0.312041 6.55532 0.294873 6.58849C0.273369 6.63006 0.263672 7.64245 0.263672 9.84866V13.0485L0.335596 13.1229L0.40749 13.1972H1.49505H2.58264L2.66827 13.1087L2.75391 13.0201V9.83412V6.64812L2.66827 6.55956L2.58264 6.47099L1.51837 6.4729C0.933018 6.47396 0.425303 6.48684 0.390088 6.50151ZM2.25586 9.83412V12.6822H1.50879H0.761719V9.83412V6.98607H1.50879H2.25586V9.83412ZM3.4089 8.04569C3.24519 8.1155 3.25195 8.00534 3.25195 10.5969C3.25195 12.2806 3.26153 13.004 3.28447 13.0561C3.30237 13.0967 3.34913 13.1451 3.38839 13.1636C3.43644 13.1862 3.80001 13.1972 4.49991 13.1972C5.59119 13.1972 5.67645 13.1876 5.72399 13.0595C5.73398 13.0326 5.74219 11.9233 5.74219 10.5944V8.17828L5.66663 8.10481L5.59104 8.03136L4.53138 8.02515C3.94855 8.02173 3.44344 8.03097 3.4089 8.04569ZM5.24414 10.6067V12.6822H4.49707H3.75V10.6067V8.53129H4.49707H5.24414V10.6067ZM9.31854 10.1866C9.25913 10.2647 9.25781 10.2963 9.25781 11.6385C9.25781 12.3931 9.26602 13.0326 9.27601 13.0595C9.32364 13.1879 9.40764 13.1972 10.5184 13.1972H11.5768L11.6624 13.1087L11.748 13.0201V11.6378V10.2555L11.6761 10.1812L11.6042 10.1068H10.4917H9.37925L9.31854 10.1866ZM11.25 11.652V12.6822H10.5029H9.75586V11.652V10.6219H10.5029H11.25V11.652ZM0.0719238 13.5443C0.000351556 13.6183 0 13.6217 0 14.2243C0 14.8209 0.00105468 14.8313 0.0706934 14.915L0.141416 15H7.5H14.8586L14.9293 14.915C14.9989 14.8313 15 14.8209 15 14.2243C15 13.6217 14.9996 13.6183 14.9281 13.5443L14.8562 13.4699H7.5H0.143818L0.0719238 13.5443ZM14.502 14.2425V14.5001H7.5H0.498047V14.2425V13.985H7.5H14.502V14.2425Z" fill="#410EAD"/>
</svg>
