<svg width="15" height="14" viewBox="0 0 15 14" fill="none" xmlns="http://www.w3.org/2000/svg">
<path fill-rule="evenodd" clip-rule="evenodd" d="M6.65002 0.40891C6.2233 0.633812 4.89855 1.33636 3.70614 1.97017L1.53812 3.12253L0.844209 4.23C0.0752361 5.4572 0 5.59021 0 5.72237C0 5.94267 0.0705485 6.00935 0.750281 6.43157L1.39163 6.82993L1.40628 8.65509C1.42058 10.437 1.42237 10.4823 1.4814 10.5678C1.57096 10.6975 7.35914 13.9987 7.49924 14C7.5936 14.0009 9.22091 13.0537 12.9008 10.8561C13.5252 10.4832 13.5937 10.418 13.5939 10.1966C13.5941 10.0651 13.4956 9.88822 13.3881 9.8267C13.2057 9.72236 13.1916 9.72971 10.4885 11.3365C9.07858 12.1746 7.91512 12.8603 7.90302 12.8604C7.89092 12.8605 7.88104 11.7459 7.88104 10.3835C7.88104 9.00999 7.89221 7.91982 7.90609 7.93651C7.91986 7.95308 8.16933 8.2891 8.46049 8.68328C9.00598 9.42188 9.05596 9.47123 9.25823 9.47123C9.30939 9.47123 10.2948 8.8791 12.0298 7.80569C13.5105 6.88964 14.7635 6.11256 14.8141 6.07882C14.9181 6.00957 15.0005 5.8473 15 5.7128C14.9996 5.59832 14.9979 5.59534 14.1815 4.20272C13.8053 3.56118 13.4698 3.01679 13.4359 2.99297C13.2534 2.86452 7.58104 0 7.50932 0C7.462 0 7.09018 0.176944 6.65002 0.40891ZM9.94594 2.12162C11.2595 2.79199 12.3343 3.34898 12.3343 3.35934C12.3343 3.3697 11.246 4.0228 9.91585 4.81066L7.49739 6.24309L5.06848 4.85697C3.73257 4.09461 2.6422 3.46805 2.64548 3.4646C2.68199 3.42621 7.49514 0.890391 7.52156 0.895617C7.5414 0.899545 8.63235 1.45125 9.94594 2.12162ZM13.5608 4.69824C13.8196 5.13936 14.0382 5.52065 14.0467 5.54558C14.0598 5.58416 12.1386 6.79543 9.49045 8.41812L9.32222 8.52119L8.70574 7.683L8.08929 6.84479L8.24152 6.75204C8.32525 6.70101 9.03976 6.27708 9.82933 5.81001C10.6189 5.34291 11.667 4.72161 12.1585 4.42937C12.65 4.13712 13.0607 3.89759 13.0712 3.89711C13.0818 3.8966 13.3021 4.25711 13.5608 4.69824ZM4.58964 5.52594L6.90869 6.84792L6.29276 7.68472L5.67687 8.52151L5.58508 8.46139C5.5346 8.42832 4.47154 7.77075 3.22273 7.00013C1.97392 6.2295 0.947981 5.59503 0.942854 5.59015C0.937727 5.58527 1.15406 5.22356 1.4236 4.78636L1.91366 3.99141L2.09211 4.09768C2.19026 4.15613 3.31414 4.79884 4.58964 5.52594ZM3.99912 8.43893C5.09063 9.1136 5.69732 9.47117 5.75058 9.4712C5.94348 9.47129 6.01159 9.40271 6.56505 8.65126L7.10466 7.91861L7.11233 9.15187C7.11652 9.83016 7.11652 10.9483 7.11233 11.6366L7.10466 12.8882L4.64366 11.4847L2.18267 10.0812L2.17502 8.69823L2.1674 7.31527L2.24827 7.36098C2.29277 7.3861 3.08064 7.87119 3.99912 8.43893ZM12.9859 8.17234C12.6048 8.42357 12.7677 9.05922 13.2132 9.05922C13.4632 9.05922 13.6525 8.85456 13.6525 8.58429C13.6525 8.31403 13.4632 8.10937 13.2132 8.10937C13.1332 8.10937 13.0438 8.13414 12.9859 8.17234Z" fill="#410EAD"/>
</svg>
