<svg width="15" height="15" viewBox="0 0 15 15" fill="none" xmlns="http://www.w3.org/2000/svg">
<path fill-rule="evenodd" clip-rule="evenodd" d="M0.227418 0.0594139C0.160461 0.0947776 0.0949405 0.162165 0.0589276 0.232746C0.000966983 0.346367 0 0.400247 0 3.54416C0 6.68936 0.000937686 6.74189 0.0589862 6.85569C0.0969624 6.93014 0.159201 6.99237 0.233659 7.03034C0.348145 7.08873 0.396494 7.08932 5.11527 7.08932C9.6423 7.08932 9.88026 7.09189 9.86151 7.14059C9.74814 7.43475 9.74641 7.47231 9.73612 9.84906L9.72613 12.1547L9.557 12.3413C9.46399 12.4439 9.36498 12.56 9.33696 12.5993L9.28603 12.6707L9.22239 12.5828C9.10738 12.4241 8.83791 12.1544 8.66271 12.0227C8.3235 11.7677 7.69259 11.5134 7.39912 11.5134C7.23415 11.5134 7.25973 11.4731 7.44905 11.4347C8.21362 11.2797 8.81907 10.5247 8.81907 9.72621C8.81907 8.77822 8.01005 7.96931 7.06194 7.96931C6.11382 7.96931 5.3048 8.77822 5.3048 9.72621C5.3048 10.5268 5.91011 11.2797 6.67918 11.4356C6.8943 11.4792 6.886 11.4973 6.63705 11.5274C6.01003 11.603 5.30187 12.0444 4.90998 12.6038L4.86424 12.6691L4.8185 12.6038C4.4266 12.0444 3.71845 11.603 3.09143 11.5274C2.84247 11.4973 2.83418 11.4792 3.04929 11.4356C3.68721 11.3063 4.24361 10.7449 4.38063 10.0924C4.50584 9.49607 4.33518 8.92823 3.89992 8.49299C3.35726 7.95041 2.59114 7.82102 1.89087 8.15365C1.4637 8.35658 1.11089 8.75548 0.965229 9.2003C0.86393 9.50957 0.86393 9.94285 0.965229 10.2521C1.15611 10.8349 1.69114 11.3145 2.28569 11.4358C2.46385 11.4721 2.47282 11.5134 2.30254 11.5134C2.16576 11.5134 1.76405 11.6354 1.52585 11.7493C0.78786 12.1021 0.295488 12.702 0.0724654 13.5204C0.0422544 13.6312 0.0186658 13.8699 0.00861498 14.1663C-0.00627076 14.6061 -0.00325259 14.6444 0.0553527 14.7593C0.0969331 14.8407 0.156886 14.9018 0.233659 14.941C0.348613 14.9996 0.39119 15 7.50147 15C14.6118 15 14.6543 14.9996 14.7693 14.941C14.8443 14.9028 14.906 14.8408 14.9447 14.7648C15.0041 14.6485 15.0045 14.6216 14.9962 11.0955L14.9877 7.54345L14.9214 7.30906C14.711 6.56539 14.1948 5.93761 13.5232 5.60847C13.2665 5.48269 12.8733 5.36115 12.72 5.36025C12.6783 5.35998 12.6243 5.347 12.6001 5.33139C12.5658 5.30918 12.5735 5.30288 12.6354 5.30253C12.749 5.30188 13.0702 5.17965 13.2621 5.06409C13.753 4.76835 14.1228 4.1028 14.1228 3.51486C14.1228 2.56687 13.3138 1.75795 12.3657 1.75795C11.5647 1.75795 10.8211 2.35545 10.6533 3.13397C10.616 3.30684 10.612 3.18695 10.6099 1.83633C10.6076 0.405228 10.6053 0.343818 10.5486 0.232629C10.5106 0.15818 10.4484 0.0959495 10.3739 0.0579782C10.2593 -0.000472925 10.2128 -0.0010003 5.29762 0.000288845C0.416566 0.00157799 0.335222 0.00251555 0.227418 0.0594139ZM9.72848 3.54416V6.21035H5.30378H0.879079V3.54416V0.877965H5.30378H9.72848V3.54416ZM5.50189 1.81734C5.43494 1.85271 5.36942 1.92009 5.3334 1.99068C5.27673 2.10175 5.27447 2.16137 5.27447 3.54416C5.27447 4.92753 5.2767 4.98654 5.33346 5.09776C5.3998 5.22776 5.56861 5.33139 5.71401 5.33139C5.85941 5.33139 6.02823 5.22776 6.09457 5.09776C6.15133 4.98654 6.15355 4.92753 6.15355 3.54416C6.15355 2.16078 6.15133 2.10178 6.09457 1.99056C5.98644 1.77864 5.72175 1.70129 5.50189 1.81734ZM3.74373 2.69631C3.67678 2.73167 3.61126 2.79906 3.57524 2.86964C3.51963 2.97866 3.51632 3.04116 3.51632 3.98364C3.51632 4.92654 3.5196 4.98856 3.5753 5.09776C3.64164 5.22776 3.81046 5.33139 3.95586 5.33139C4.10126 5.33139 4.27007 5.22776 4.33641 5.09776C4.39211 4.98856 4.3954 4.92654 4.3954 3.98364C4.3954 3.04075 4.39211 2.97872 4.33641 2.86952C4.22828 2.6576 3.96359 2.58026 3.74373 2.69631ZM12.7235 2.71702C12.8947 2.79273 13.0865 2.98402 13.1666 3.15891C13.2604 3.36394 13.2543 3.68204 13.1523 3.90008C12.8818 4.47861 12.2107 4.61972 11.7796 4.1887C11.2921 3.70126 11.4534 2.91362 12.0871 2.68676C12.2704 2.62113 12.5352 2.63373 12.7235 2.71702ZM1.98558 3.63387C1.78679 3.73882 1.75816 3.84183 1.75816 4.45242C1.75816 4.92551 1.76446 4.99451 1.81714 5.09776C1.88349 5.22776 2.0523 5.33139 2.1977 5.33139C2.3431 5.33139 2.51191 5.22776 2.57825 5.09776C2.63094 4.99451 2.63724 4.92551 2.63724 4.45242C2.63724 3.97933 2.63094 3.91034 2.57825 3.80709C2.47012 3.59517 2.20543 3.51782 1.98558 3.63387ZM10.8144 4.32992C10.9558 4.61644 11.2226 4.91549 11.4694 5.06409C11.6603 5.17912 11.9828 5.30209 12.0935 5.30209C12.2294 5.30209 12.1415 5.33631 11.8966 5.37882C11.4894 5.44949 11.0057 5.66906 10.7215 5.91232L10.6076 6.00983L10.6099 4.85757C10.612 3.79668 10.6155 3.72042 10.6531 3.89574C10.6756 4.00049 10.7482 4.19585 10.8144 4.32992ZM12.732 6.25442C13.3915 6.39288 13.9413 6.94259 14.0798 7.60205C14.1162 7.77526 14.1225 8.27856 14.1207 10.8396C14.1189 13.5357 14.1141 13.8468 14.0775 13.6445C13.8903 12.6093 13.0198 11.723 12.0141 11.5434C11.6605 11.4803 11.6606 11.4804 11.8676 11.4372C12.5109 11.3028 13.0636 10.7453 13.2007 10.0924C13.3259 9.49607 13.1553 8.92823 12.72 8.49299C12.3776 8.15064 11.947 7.97016 11.4693 7.96878C11.2653 7.96822 10.903 8.05319 10.7271 8.14287L10.6076 8.20387L10.6081 8.00549C10.6093 7.50744 10.7846 7.08278 11.1323 6.73506C11.5679 6.2996 12.1352 6.12914 12.732 6.25442ZM3.02433 8.92837C3.19551 9.00408 3.3873 9.19537 3.46738 9.37026C3.55403 9.55947 3.55403 9.89295 3.46738 10.0822C3.38765 10.2563 3.19668 10.4472 3.02254 10.5269C2.82937 10.6154 2.50148 10.6131 2.29736 10.522C2.12262 10.444 1.93775 10.264 1.8412 10.0778C1.74427 9.89096 1.7443 9.56141 1.84123 9.37462C2.02048 9.02934 2.34606 8.83632 2.71228 8.85826C2.80998 8.86412 2.95039 8.89568 3.02433 8.92837ZM7.41972 8.92837C7.59091 9.00408 7.78269 9.19537 7.86278 9.37026C7.94942 9.55947 7.94942 9.89295 7.86278 10.0822C7.78304 10.2563 7.59208 10.4472 7.41793 10.5269C7.2287 10.6136 6.89517 10.6136 6.70594 10.5269C6.32952 10.3546 6.11593 9.92225 6.21116 9.52531C6.33795 8.99682 6.9221 8.70828 7.41972 8.92837ZM11.8444 8.92837C12.0156 9.00408 12.2074 9.19537 12.2875 9.37026C12.3741 9.55947 12.3741 9.89295 12.2875 10.0822C12.2077 10.2563 12.0168 10.4472 11.8426 10.5269C11.6534 10.6136 11.3199 10.6136 11.1306 10.5269C10.7542 10.3546 10.5406 9.92225 10.6359 9.52531C10.7627 8.99682 11.3468 8.70828 11.8444 8.92837ZM11.0573 11.425C11.2861 11.4838 11.2854 11.4846 10.9445 11.5504C10.8156 11.5753 10.687 11.605 10.6588 11.6163C10.6131 11.6347 10.6076 11.616 10.6076 11.4427V11.2485L10.7276 11.3098C10.7936 11.3435 10.942 11.3953 11.0573 11.425ZM3.03282 12.4072C3.69237 12.5456 4.24214 13.0953 4.38063 13.7548C4.4043 13.8676 4.42391 13.9962 4.4242 14.0405L4.4247 14.121H2.65189H0.879079L0.879577 14.0405C0.87987 13.9962 0.899386 13.8676 0.922974 13.7548C1.11719 12.8259 2.08436 12.2081 3.03282 12.4072ZM7.42822 12.407C7.94081 12.5143 8.42747 12.8812 8.65248 13.33C8.75733 13.5391 8.84778 13.8664 8.8489 14.0405L8.8494 14.121H7.07659H5.30378L5.30428 14.0405C5.30536 13.8699 5.39544 13.5405 5.49852 13.33C5.64668 13.0274 5.96789 12.7062 6.27076 12.5576C6.64727 12.373 7.02844 12.3234 7.42822 12.407ZM11.8529 12.4072C12.5125 12.5456 13.0622 13.0953 13.2007 13.7548C13.2244 13.8676 13.244 13.9962 13.2443 14.0405L13.2448 14.121H11.4866H9.72848L9.72897 14.0405C9.73006 13.8699 9.82013 13.5405 9.92322 13.33C10.0714 13.0274 10.3926 12.7062 10.6955 12.5576C11.0721 12.3729 11.4535 12.3233 11.8529 12.4072Z" fill="#410EAD"/>
</svg>
