<svg width="15" height="15" viewBox="0 0 15 15" fill="none" xmlns="http://www.w3.org/2000/svg">
<path fill-rule="evenodd" clip-rule="evenodd" d="M3.32007 0.0110726C2.79257 0.0915135 2.43744 0.203004 2.00986 0.422354C1.01869 0.930791 0.302488 1.8763 0.0600279 2.99646C-0.0200093 3.36608 -0.0200093 4.12924 0.0600279 4.49886C0.380928 5.98138 1.51648 7.11532 2.99059 7.42525C3.11378 7.45117 3.25591 7.47236 3.30645 7.47236C3.35699 7.47236 3.39836 7.48644 3.39836 7.50366C3.39836 7.52087 3.35255 7.53527 3.29659 7.53565C3.14409 7.53665 2.69139 7.64348 2.44367 7.73694C1.22382 8.19705 0.337215 9.22788 0.0600279 10.5085C-0.0200093 10.8781 -0.0200093 11.6412 0.0600279 12.0109C0.386815 13.5205 1.54579 14.6549 3.06957 14.9566C3.19548 14.9815 3.48196 15 3.74281 15C4.00365 15 4.29013 14.9815 4.41605 14.9566C5.93976 14.6549 7.10622 13.5121 7.42198 12.0115C7.44791 11.8884 7.46911 11.7463 7.46911 11.6958C7.46911 11.6453 7.4832 11.604 7.50042 11.604C7.51765 11.604 7.53205 11.6497 7.53243 11.7057C7.5328 11.7616 7.55967 11.9271 7.59217 12.0735C7.91082 13.5089 9.04678 14.6264 10.5065 14.9406C10.8388 15.0121 11.6074 15.0207 11.9313 14.9566C13.4802 14.6499 14.6498 13.4808 14.9566 11.9326C15.0207 11.6089 15.0121 10.8405 14.9405 10.5085C14.6262 9.04934 13.5082 7.91388 12.0722 7.59537C11.9258 7.56288 11.7602 7.53602 11.7043 7.53565C11.6483 7.53527 11.6025 7.52087 11.6025 7.50366C11.6025 7.48644 11.6439 7.47236 11.6944 7.47236C11.7449 7.47236 11.8871 7.45117 12.0103 7.42525C13.5126 7.10937 14.6545 5.94486 14.9566 4.42061C14.9815 4.29475 15 4.00839 15 3.74766C15 3.48693 14.9815 3.20057 14.9566 3.07471C14.6547 1.55159 13.5198 0.39312 12.0096 0.0664735C11.6398 -0.0135292 10.8763 -0.0135292 10.5065 0.0664735C9.04499 0.382572 7.91082 1.49845 7.59217 2.93386C7.55967 3.08019 7.5328 3.2457 7.53243 3.30164C7.53205 3.35757 7.51765 3.40336 7.50042 3.40336C7.4832 3.40336 7.46911 3.36202 7.46911 3.3115C7.46911 3.26098 7.44791 3.11891 7.42198 2.99577C7.11621 1.54274 6.0052 0.412651 4.55696 0.0815601C4.29724 0.0221528 3.53285 -0.0213854 3.32007 0.0110726ZM4.4317 0.56696C4.87983 0.673912 5.33557 0.879459 5.66858 1.12488C5.88794 1.28651 6.23874 1.64083 6.39008 1.85364C6.55964 2.09202 6.76775 2.52102 6.85336 2.80866C6.97126 3.20476 6.99941 3.46074 6.99941 4.1371V4.74926H7.50042H8.00144L8.00156 4.13109C8.00175 3.23128 8.07953 2.8358 8.36937 2.26091C8.99242 1.02507 10.3961 0.310081 11.7538 0.537006C13.1283 0.766748 14.1624 1.76152 14.4569 3.13731C14.51 3.38552 14.51 4.15253 14.4569 4.37366C14.2033 5.42907 13.6073 6.20383 12.6985 6.65937C12.1719 6.92329 11.7509 7.00255 10.8744 7.00273L10.256 7.00286V7.50366V8.00446H10.8644C11.5492 8.00446 11.8465 8.03676 12.2118 8.15085C13.4037 8.5231 14.2688 9.51684 14.4685 10.7432C14.7562 12.51 13.5486 14.1801 11.7747 14.4687C11.0835 14.5812 10.4224 14.4752 9.77065 14.1472C9.44587 13.9838 9.19608 13.7941 8.90583 13.4905C8.63175 13.2037 8.52278 13.0517 8.36123 12.7308C8.08007 12.1721 8.00175 11.7684 8.00156 10.8762L8.00144 10.2581H7.50042H6.99941V10.8702C6.99941 11.547 6.97119 11.8035 6.8533 12.1977C6.70296 12.7004 6.43329 13.1525 6.05358 13.5383C5.59328 14.0061 5.07861 14.2868 4.36908 14.4571C4.14785 14.5102 3.38051 14.5102 3.13219 14.4571C1.96201 14.2069 1.03306 13.3935 0.657802 12.2907C0.143353 10.7788 0.839452 9.08449 2.27107 8.36416C2.82967 8.08308 3.23377 8.00477 4.1264 8.00458L4.74484 8.00446V7.50366V7.00286H4.13241C3.79554 7.00286 3.41862 6.98783 3.29477 6.96946C1.73696 6.73834 0.581147 5.47179 0.495473 3.90194C0.416626 2.45732 1.34911 1.10842 2.74077 0.653974C3.24229 0.490181 3.95614 0.453466 4.4317 0.56696ZM2.47837 1.78481C2.40848 1.85467 2.40619 1.87683 2.38593 2.68468C2.3745 3.14019 2.36511 3.79812 2.36508 4.14674C2.36501 4.73887 2.36915 4.78469 2.42764 4.84316C2.46775 4.88326 2.53201 4.90576 2.60641 4.90576C2.71237 4.90576 2.7465 4.88038 2.99529 4.6163C3.14531 4.45711 3.27464 4.33388 3.28275 4.34242C3.29083 4.351 3.4907 4.66084 3.7269 5.03096C3.9631 5.40108 4.1909 5.73559 4.23314 5.77433C4.36194 5.89243 4.44642 5.86586 4.92993 5.55524C5.43934 5.22793 5.52736 5.13926 5.47645 5.00448C5.45822 4.95622 5.2492 4.61514 5.01197 4.24652C4.77471 3.87793 4.57434 3.56002 4.5667 3.54008C4.55805 3.51761 4.68581 3.45951 4.90319 3.38712C5.09592 3.32292 5.28005 3.24398 5.31236 3.21168C5.37987 3.1442 5.39043 2.97211 5.33196 2.89258C5.28171 2.82422 2.73648 1.71316 2.63014 1.71316C2.58609 1.71316 2.51779 1.7454 2.47837 1.78481ZM12.3488 1.79351C11.4719 1.95211 10.7109 2.57316 10.3621 3.41472C10.2912 3.5859 10.2035 3.68606 9.55715 4.33451L8.83184 5.06217L9.01161 5.24189L9.19141 5.42158L9.84893 4.76491L10.5065 4.10821L10.7019 4.30355L10.8973 4.49889L10.2404 5.15616L9.5834 5.8134L9.76317 5.99312L9.94297 6.17281L10.6709 5.44766C11.333 4.78814 11.4167 4.71536 11.595 4.644C12.1608 4.41761 12.6849 3.93396 12.9609 3.38349C13.1614 2.9835 13.2614 2.5659 13.2619 2.12648C13.2621 1.9256 13.2529 1.88888 13.1852 1.82131C13.1154 1.75151 13.0846 1.74471 12.8486 1.74728C12.7058 1.74882 12.4808 1.76963 12.3488 1.79351ZM12.7459 2.42411C12.6547 3.15381 12.1806 3.81502 11.5246 4.12739L11.3371 4.21669L11.0645 3.94551L10.792 3.67433L10.8384 3.56234C11.043 3.06924 11.54 2.58693 12.0363 2.39973C12.2359 2.32445 12.5443 2.25146 12.6786 2.24774L12.7683 2.24526L12.7459 2.42411ZM3.84263 2.75423L4.42785 3.00911L4.19829 3.09769C3.95336 3.19221 3.86959 3.29156 3.91478 3.43388C3.92637 3.47041 4.13914 3.81568 4.38758 4.20114C4.63602 4.5866 4.84733 4.92291 4.85716 4.94849C4.8829 5.01559 4.49254 5.26271 4.44476 5.20956C4.42613 5.18881 4.2008 4.84454 3.94399 4.44449C3.3662 3.5444 3.35615 3.53789 3.03042 3.85271L2.86603 4.01158L2.86612 3.66835C2.86618 3.47958 2.87539 3.10442 2.8866 2.83464L2.90692 2.3442L3.08219 2.4218C3.17857 2.46446 3.52079 2.61407 3.84263 2.75423ZM7.26363 5.27942C7.11448 5.3151 6.84578 5.47229 6.76024 5.57392C6.71765 5.6245 6.64485 5.73781 6.59844 5.82576C6.51668 5.98063 6.51405 6.00167 6.51405 6.50206C6.51405 7.09034 6.54314 7.19595 6.77414 7.44657L6.89892 7.58191L6.61801 7.70445C6.30619 7.84048 6.08941 8.01394 5.93963 8.24725C5.79462 8.47311 5.74687 8.70576 5.74687 9.18622C5.74687 9.58764 5.74981 9.60655 5.82374 9.68041L5.90059 9.75726H7.50042H9.10026L9.1771 9.68041C9.2511 9.60648 9.25395 9.58805 9.25323 9.18744C9.25204 8.55346 9.17854 8.3327 8.86409 8.01886C8.71323 7.8683 8.61637 7.80458 8.38832 7.70586L8.10192 7.58191L8.22671 7.44657C8.4733 7.17905 8.48555 7.12308 8.49654 6.21304L8.50631 5.40756L8.42752 5.32881C8.34968 5.251 8.34276 5.25009 7.85411 5.25325C7.58209 5.25504 7.31636 5.26681 7.26363 5.27942ZM8.00144 6.29658C8.00144 6.60716 7.98703 6.88026 7.96803 6.9304C7.92021 7.05654 7.81982 7.15438 7.64916 7.24124L7.50042 7.31692L7.35168 7.24124C7.05367 7.08959 6.99941 6.97575 6.99941 6.50206C6.99941 6.14105 7.02461 6.03087 7.13459 5.91121C7.2481 5.78761 7.36888 5.7534 7.69613 5.75208L8.00144 5.75086V6.29658ZM7.97514 8.07257C8.61572 8.35589 8.75296 8.52438 8.75296 9.02728V9.25646H7.50042H6.24788V9.02728C6.24788 8.52363 6.38197 8.35743 7.01544 8.07576C7.25633 7.96865 7.47249 7.8806 7.49576 7.88013C7.51902 7.87966 7.73474 7.96624 7.97514 8.07257ZM3.3264 9.06928C3.26913 9.11429 3.23534 9.18418 3.20907 9.31186C3.13767 9.65872 3.05983 9.69722 2.77713 9.52557C2.49932 9.3569 2.45639 9.36695 2.15296 9.67184C1.84981 9.97642 1.84011 10.0182 2.00798 10.2944C2.1797 10.577 2.14118 10.6548 1.79417 10.7261C1.52262 10.782 1.48824 10.8419 1.48824 11.2597C1.48824 11.6774 1.52262 11.7373 1.79417 11.7932C2.14118 11.8645 2.1797 11.9423 2.00798 12.2249C1.83923 12.5026 1.84928 12.5455 2.1543 12.8488C2.45902 13.1518 2.50079 13.1615 2.77713 12.9937C3.05983 12.8221 3.13767 12.8606 3.20907 13.2075C3.26493 13.4789 3.3249 13.5133 3.74281 13.5133C4.16072 13.5133 4.22068 13.4789 4.27654 13.2075C4.34794 12.8606 4.42578 12.8221 4.70848 12.9937C4.9863 13.1624 5.02923 13.1524 5.33265 12.8475C5.63495 12.5437 5.64526 12.5007 5.4807 12.23C5.42043 12.1308 5.37111 12.0295 5.37111 12.0049C5.37111 11.9099 5.45753 11.8499 5.6611 11.8035C5.96741 11.7336 5.99738 11.6851 5.99738 11.2597C5.99738 10.8342 5.96741 10.7857 5.6611 10.7158C5.45753 10.6694 5.37111 10.6094 5.37111 10.5144C5.37111 10.4898 5.42043 10.3885 5.4807 10.2894C5.64613 10.0171 5.63549 9.97294 5.33131 9.67049C5.0266 9.36748 4.98482 9.35777 4.70848 9.52557C4.42578 9.69722 4.34794 9.65872 4.27654 9.31186C4.22068 9.04042 4.16072 9.00606 3.74281 9.00606C3.45309 9.00606 3.39573 9.01476 3.3264 9.06928ZM3.837 9.63988C3.91425 9.94224 3.90708 9.9346 4.25553 10.0848C4.49492 10.1881 4.59466 10.1848 4.78486 10.0679C4.92439 9.98205 4.9465 9.97673 4.98864 10.0188C5.03076 10.0609 5.02519 10.0827 4.93732 10.2196C4.8178 10.4058 4.81417 10.5062 4.91813 10.7471C5.06843 11.0955 5.06079 11.0883 5.36328 11.1655C5.46192 11.1907 5.49636 11.2151 5.49636 11.2597C5.49636 11.3043 5.46192 11.3286 5.36328 11.3538C5.06079 11.431 5.06843 11.4239 4.91813 11.7722C4.81417 12.0131 4.8178 12.1135 4.93732 12.2997C5.02519 12.4366 5.03076 12.4584 4.98864 12.5005C4.9465 12.5426 4.92439 12.5373 4.78486 12.4514C4.59466 12.3345 4.49492 12.3312 4.25553 12.4345C3.90708 12.5847 3.91425 12.5771 3.837 12.8794C3.81182 12.978 3.78743 13.0125 3.74281 13.0125C3.69818 13.0125 3.67379 12.978 3.64861 12.8794C3.57136 12.5771 3.57854 12.5847 3.23008 12.4345C2.98903 12.3306 2.88854 12.3342 2.70229 12.4537C2.56229 12.5435 2.54431 12.5478 2.49922 12.5027C2.4541 12.4576 2.45845 12.4397 2.54829 12.2997C2.66781 12.1135 2.67145 12.0131 2.56749 11.7722C2.41718 11.4239 2.42482 11.431 2.12233 11.3538C2.0237 11.3286 1.98925 11.3043 1.98925 11.2597C1.98925 11.2151 2.0237 11.1907 2.12233 11.1655C2.42482 11.0883 2.41718 11.0955 2.56749 10.7471C2.67145 10.5062 2.66781 10.4058 2.54829 10.2196C2.45845 10.0796 2.4541 10.0617 2.49922 10.0166C2.54431 9.9715 2.56229 9.97585 2.70229 10.0657C2.88854 10.1851 2.98903 10.1888 3.23008 10.0848C3.57854 9.9346 3.57136 9.94224 3.64861 9.63988C3.67379 9.54129 3.69818 9.50686 3.74281 9.50686C3.78743 9.50686 3.81182 9.54129 3.837 9.63988ZM10.0055 9.54776C9.83835 9.60044 9.58775 9.86784 9.53783 10.0468C9.49083 10.2152 9.50527 10.4252 9.57316 10.5612C9.61803 10.6511 9.61587 10.6569 9.48351 10.803C9.31795 10.9858 9.23838 11.2247 9.26315 11.4646C9.27959 11.624 9.37215 11.8493 9.46425 11.9541C9.50577 12.0014 9.50182 12.0185 9.42664 12.117C9.32947 12.2444 9.25398 12.4713 9.25398 12.6361C9.25398 12.9966 9.51977 13.3657 9.85 13.4637C10.0974 13.5372 12.4186 13.5372 12.6661 13.4637C12.9963 13.3657 13.2621 12.9966 13.2621 12.6361C13.2621 12.4713 13.1866 12.2444 13.0894 12.117C13.0143 12.0185 13.0103 12.0014 13.0518 11.9541C13.2637 11.7129 13.3135 11.2805 13.1625 10.9936C13.1172 10.9075 13.0381 10.7973 12.9868 10.7486C12.8965 10.663 12.895 10.6571 12.9412 10.5646C13.0107 10.4254 13.0257 10.2166 12.9782 10.0468C12.9249 9.85551 12.6766 9.59966 12.4913 9.54492C12.3211 9.49468 10.1662 9.49715 10.0055 9.54776ZM11.0075 11.5121V13.0167L10.4914 13.0067L9.97522 12.9968L9.87295 12.8945C9.78493 12.8064 9.77065 12.7705 9.77065 12.6369C9.77065 12.5032 9.78493 12.4673 9.87301 12.3792C9.97002 12.2823 9.98925 12.2763 10.2409 12.2659L10.5065 12.2548V12.0109V11.7669L10.2409 11.7559C9.98925 11.7454 9.97002 11.7395 9.87301 11.6425C9.78493 11.5544 9.77065 11.5185 9.77065 11.3849C9.77065 11.2512 9.78493 11.2153 9.87301 11.1272C9.97002 11.0303 9.98925 11.0243 10.2409 11.0139L10.5065 11.0028V10.7556V10.5085H10.3329C10.1239 10.5085 10.0055 10.4179 10.0055 10.2581C10.0055 10.1971 10.0339 10.1329 10.0824 10.0845C10.1564 10.0105 10.1748 10.0077 10.5834 10.0077H11.0075V11.5121ZM12.4337 10.0845C12.4822 10.1329 12.5106 10.1971 12.5106 10.2581C12.5106 10.4179 12.3922 10.5085 12.1832 10.5085H12.0096V10.7556V11.0028L12.2751 11.0139C12.5268 11.0243 12.5461 11.0303 12.6431 11.1272C12.7312 11.2153 12.7454 11.2512 12.7454 11.3849C12.7454 11.5185 12.7312 11.5544 12.6431 11.6425C12.5461 11.7395 12.5268 11.7454 12.2751 11.7559L12.0096 11.7669V12.0109V12.2548L12.2751 12.2659C12.5268 12.2763 12.5461 12.2823 12.6431 12.3792C12.7312 12.4673 12.7454 12.5032 12.7454 12.6369C12.7454 12.7705 12.7312 12.8064 12.6431 12.8945L12.5409 12.9968L12.0247 13.0067L11.5085 13.0167V11.5121V10.0077H11.9327C12.3413 10.0077 12.3597 10.0105 12.4337 10.0845ZM3.4923 10.5494C3.43202 10.5684 3.31178 10.655 3.22507 10.7418C3.00378 10.9635 2.94265 11.1974 3.02936 11.4908C3.08018 11.6627 3.33958 11.922 3.51159 11.9728C3.80518 12.0595 4.03925 11.9984 4.26054 11.7772C4.56654 11.4713 4.57568 11.0822 4.2845 10.7585C4.08184 10.5332 3.78906 10.4559 3.4923 10.5494ZM3.91644 11.0861C4.07178 11.2413 3.96172 11.5101 3.74281 11.5101C3.61408 11.5101 3.4923 11.3883 3.4923 11.2597C3.4923 11.131 3.61408 11.0093 3.74281 11.0093C3.8038 11.0093 3.868 11.0376 3.91644 11.0861Z" fill="#410EAD"/>
</svg>
