<svg width="15" height="15" viewBox="0 0 15 15" fill="none" xmlns="http://www.w3.org/2000/svg">
<path fill-rule="evenodd" clip-rule="evenodd" d="M1.94474 0.0632168C0.988437 0.273201 0.266023 1.00482 0.067796 1.96402C-0.0141535 2.36042 -0.0160693 3.50322 0.0645118 3.88826C0.212224 4.59374 0.70396 5.23288 1.3375 5.54293C1.88108 5.80891 1.97746 5.82243 3.33119 5.82243C4.39513 5.82243 4.56243 5.81383 4.83025 5.74537C5.50403 5.57317 6.06078 5.13996 6.3679 4.549C6.6392 4.02693 6.67083 3.85321 6.6693 2.89187C6.66805 2.08827 6.66348 2.03818 6.56393 1.73918C6.30354 0.957115 5.77474 0.41207 5.01217 0.139763L4.67812 0.0204697L3.44653 0.012147C2.4658 0.00554346 2.15989 0.0159371 1.94474 0.0632168ZM10.3082 0.0582154C9.54606 0.225882 8.93437 0.702039 8.61236 1.37826C8.33699 1.95651 8.35333 1.56991 8.35333 7.50261C8.35333 11.8856 8.36307 12.9149 8.40619 13.0902C8.57948 13.7945 9.08548 14.4329 9.70636 14.7305C10.2425 14.9875 10.4404 15.0125 11.8135 14.996C12.9906 14.982 13.0101 14.9804 13.3272 14.8748C14.0786 14.6246 14.6351 14.0669 14.8938 13.3051L15 12.9925V7.50261V2.0127L14.8938 1.70011C14.5991 0.832078 13.9386 0.244677 13.0514 0.0615366C12.6626 -0.0187216 10.6689 -0.0211441 10.3082 0.0582154ZM4.56243 1.75403C4.75526 1.84156 4.9156 2.0247 4.96963 2.21905C5.02347 2.41282 5.02132 3.41773 4.96662 3.61462C4.94117 3.70625 4.85644 3.8375 4.76159 3.93222C4.52947 4.16408 4.36045 4.19026 3.19771 4.17459L2.24767 4.16178L2.05839 4.04455C1.93418 3.96762 1.83784 3.86814 1.77814 3.75513C1.69326 3.5945 1.68712 3.53851 1.68712 2.92325C1.68712 2.21046 1.71722 2.08116 1.92769 1.89048C2.1509 1.68819 2.18081 1.68374 3.32924 1.68299C4.28988 1.68237 4.42128 1.68995 4.56243 1.75403ZM12.8809 1.74375C13.0575 1.83292 13.1777 1.95061 13.2639 2.11859C13.336 2.25899 13.3383 2.42974 13.3383 7.50261C13.3383 12.5755 13.336 12.7462 13.2639 12.8866C13.1777 13.0546 13.0575 13.1723 12.8809 13.2615C12.7746 13.3151 12.595 13.3245 11.6884 13.3238C10.7375 13.323 10.6038 13.3151 10.463 13.2512C10.2702 13.1637 10.1099 12.9805 10.0558 12.7862C9.99987 12.5849 9.99987 2.42036 10.0558 2.21905C10.1099 2.0247 10.2702 1.84156 10.463 1.75403C10.6038 1.69011 10.7375 1.68221 11.6884 1.68143C12.595 1.68069 12.7746 1.69011 12.8809 1.74375ZM1.94474 7.56544C0.988437 7.77543 0.266023 8.50705 0.067796 9.46624C-0.0225987 9.90344 -0.0225987 12.604 0.067796 13.0412C0.18728 13.6194 0.512732 14.1469 0.95493 14.4791C1.24883 14.6999 1.39091 14.7739 1.74577 14.8909C2.00256 14.9756 2.093 14.982 3.21194 14.9957C4.58018 15.0125 4.78357 14.9873 5.30807 14.7358C5.89653 14.4538 6.33623 13.9398 6.56542 13.266L6.67177 12.9534V11.2537V9.554L6.56581 9.24141C6.29924 8.45497 5.77365 7.91391 5.01217 7.64199L4.67812 7.5227L3.44653 7.51437C2.4658 7.50777 2.15989 7.51816 1.94474 7.56544ZM4.56243 9.25626C4.75526 9.34379 4.9156 9.52693 4.96963 9.72128C5.02367 9.91575 5.02367 12.5917 4.96963 12.7862C4.9156 12.9805 4.75526 13.1637 4.56243 13.2512C4.42168 13.3151 4.288 13.323 3.33706 13.3238C2.43045 13.3245 2.25087 13.3151 2.14457 13.2615C1.96796 13.1723 1.84773 13.0546 1.76152 12.8866C1.69224 12.7516 1.68712 12.6395 1.68712 11.2537C1.68712 9.868 1.69224 9.75582 1.76152 9.62082C1.84562 9.45694 1.96503 9.3382 2.13675 9.24774C2.23535 9.19577 2.42533 9.18581 3.32924 9.18522C4.28988 9.1846 4.42128 9.19218 4.56243 9.25626Z" fill="#410EAD"/>
</svg>
