<svg width="15" height="15" viewBox="0 0 15 15" fill="none" xmlns="http://www.w3.org/2000/svg">
<path fill-rule="evenodd" clip-rule="evenodd" d="M1.30606 0.0354965C0.751712 0.150384 0.307558 0.516912 0.0944569 1.0354L0.0115791 1.23701L0.00237046 7.39172C-0.00429573 11.8564 0.00274252 13.5947 0.028012 13.7223C0.14819 14.3287 0.706413 14.8566 1.34277 14.9657C1.44394 14.983 1.84487 14.9972 2.23368 14.9972H2.94061L3.04116 14.9123C3.17681 14.7977 3.18332 14.6262 3.05654 14.5063L2.97137 14.4257L2.1891 14.411C1.42708 14.3968 1.40243 14.3944 1.2363 14.3203C1.01328 14.2207 0.81608 14.0354 0.713886 13.8294C0.633519 13.6674 0.631473 13.6485 0.621427 12.9823L0.611195 12.3008H3.32012H6.02901L6.14761 12.4349C6.29988 12.6071 6.47093 12.7234 6.68146 12.7979C6.79671 12.8386 7.2395 12.9031 8.09671 13.0039C8.78286 13.0847 9.39844 13.1587 9.4647 13.1686L9.58513 13.1866L9.56417 13.4242C9.5269 13.8465 9.30298 14.1687 8.9337 14.3313C8.7886 14.3952 8.75868 14.3965 7.13578 14.411L5.48539 14.4257L5.40016 14.5063C5.27266 14.6269 5.27976 14.7976 5.41715 14.9137L5.51934 15L7.19925 14.9906C8.84934 14.9813 8.88242 14.98 9.06272 14.9158C9.33774 14.8178 9.51106 14.7125 9.7063 14.5246C10.0023 14.2398 10.1958 13.7874 10.1967 13.3779C10.197 13.245 10.1553 13.2481 10.8414 13.3293C11.5564 13.4138 11.9256 13.3775 12.3518 13.1809C12.5092 13.1083 12.7004 12.9406 13.5957 12.0898C14.6193 11.1172 14.6579 11.0765 14.7823 10.8354C15.0927 10.2342 15.071 9.59863 14.7181 8.95402C14.5903 8.7207 14.2672 8.33609 14.125 8.24802C13.9124 8.11637 13.6385 8.25195 13.6385 8.48882C13.6385 8.59614 13.6604 8.6309 13.8489 8.8231C14.3931 9.37791 14.5223 10.0193 14.2085 10.6088C14.0911 10.8293 12.2638 12.566 12.0418 12.668C11.7933 12.7822 11.4995 12.8073 11.023 12.7549C9.49211 12.5866 6.96411 12.269 6.87642 12.234C6.65771 12.1466 6.50361 11.9373 6.49626 11.7175C6.49065 11.55 6.55037 11.4113 6.65765 11.3424C6.73228 11.2945 6.82616 11.2897 7.68545 11.2897C8.60914 11.2897 8.63369 11.2882 8.74206 11.2245C8.80308 11.1886 8.86937 11.1253 8.88933 11.0839C8.94285 10.9729 8.93339 10.8038 8.868 10.7025C8.83641 10.6535 7.96249 9.816 6.92594 8.84139C5.88939 7.86675 5.00139 7.01069 4.95262 6.93903C4.8522 6.79149 4.84283 6.70937 4.91197 6.58299C5.00273 6.41708 5.23834 6.33516 5.40084 6.41307C5.43808 6.43091 6.21532 7.1497 7.12803 8.01036C8.72324 9.51457 8.79195 9.57518 8.9026 9.57518C9.07633 9.57518 9.21883 9.44426 9.21883 9.28471C9.21883 9.167 9.20326 9.14924 8.58129 8.55631C8.23065 8.22205 7.90655 7.9047 7.8611 7.85107C7.64778 7.59937 7.8912 7.22264 8.22904 7.28158C8.29676 7.29339 8.5102 7.47461 9.03689 7.96748L9.75271 8.63732H9.89453C10.0148 8.63732 10.0485 8.62363 10.1166 8.54714C10.2027 8.45045 10.2201 8.32466 10.1622 8.21774C10.1432 8.18254 9.91295 7.94837 9.65064 7.69738C9.17443 7.24172 9.17372 7.24084 9.17372 7.10614C9.17372 6.94357 9.27433 6.81242 9.43829 6.76128C9.62379 6.70342 9.71172 6.75632 10.1973 7.21784C10.6576 7.65544 10.7571 7.72877 10.8906 7.72877C11.0009 7.72877 11.1523 7.59697 11.1754 7.48097C11.202 7.34694 11.1628 7.2875 10.8441 6.97804C10.5935 6.73469 10.569 6.70073 10.5691 6.59703C10.5693 6.36515 10.7935 6.17599 11.014 6.2216C11.0812 6.23549 11.2236 6.34533 11.4721 6.57493C11.8159 6.89263 11.8387 6.90814 11.9629 6.90814C12.1468 6.90814 12.2743 6.78718 12.2743 6.61254C12.2743 6.49293 12.2605 6.47526 11.9084 6.14241C11.4594 5.71799 11.3011 5.63508 10.941 5.63573C10.6758 5.63619 10.4978 5.6973 10.3116 5.85184L10.1969 5.94704L10.197 5.21864L10.1971 4.49022L10.4049 4.38863C11.0075 4.09409 11.4705 3.55687 11.6611 2.93099C11.7173 2.74638 11.7307 2.62915 11.7306 2.32141C11.7305 1.86819 11.6849 1.67751 11.4852 1.29563C11.2331 0.813569 10.8715 0.472246 10.3674 0.240536C9.8177 -0.0121292 10.2334 0.00873818 5.60808 0.00164561C2.22559 -0.00354193 1.46561 0.00243693 1.30606 0.0354965ZM7.59243 0.595077C7.59243 0.60469 7.50729 0.700293 7.40327 0.807561C7.18245 1.03517 6.94104 1.47379 6.86042 1.79387C6.7906 2.07121 6.79119 2.58029 6.8617 2.84896C6.95505 3.20482 7.18635 3.61458 7.43725 3.8685C7.94029 4.37767 8.48279 4.61428 9.20472 4.6394L9.56129 4.65182L9.56956 5.39493L9.57781 6.13804L9.43497 6.15653C9.25814 6.17945 9.04498 6.2667 8.91538 6.36919C8.82407 6.44141 8.63137 6.67294 8.60842 6.73803C8.60235 6.75524 8.51875 6.74706 8.39771 6.71737C8.16901 6.66131 7.96239 6.67534 7.75751 6.76092C7.60564 6.82435 7.37211 7.02001 7.27984 7.16116L7.21488 7.26051L6.54324 6.62086C5.76627 5.88086 5.67527 5.8211 5.29347 5.80023C5.0764 5.78833 5.03572 5.79531 4.85821 5.87468C4.6284 5.97746 4.45532 6.13265 4.34299 6.33663C4.27503 6.46005 4.2621 6.52247 4.26104 6.73229C4.2589 7.1497 4.19358 7.07437 6.23467 9.00731L8.03352 10.7108L7.32464 10.7072C6.64258 10.7037 6.61033 10.7061 6.47202 10.7712C6.14051 10.927 5.91556 11.2224 5.8707 11.5608L5.85029 11.7147H3.23284H0.61535L0.623504 6.51981L0.63169 1.32494L0.699251 1.18669C0.839489 0.899735 1.14471 0.667263 1.45743 0.609174C1.60824 0.581155 7.59243 0.56741 7.59243 0.595077ZM9.6543 0.621659C10.0062 0.691501 10.3011 0.846336 10.57 1.10246C10.7077 1.23361 10.8449 1.39938 10.9041 1.50624C11.0309 1.73496 11.1271 2.08669 11.1271 2.32141C11.1271 2.55764 11.0304 2.90936 10.9031 3.13612C10.7756 3.36308 10.4726 3.66894 10.2491 3.79623C9.84958 4.02369 9.35271 4.10942 8.92567 4.02463C8.22436 3.88533 7.65851 3.38685 7.48655 2.75682C7.42358 2.52607 7.42358 2.11676 7.48655 1.88601C7.7297 0.995162 8.69608 0.431508 9.6543 0.621659ZM10.0264 1.58007C9.99226 1.5985 9.74344 1.78938 9.47348 2.00421L8.98257 2.3948L8.74485 2.16016C8.54433 1.96227 8.49153 1.92552 8.40779 1.92564C8.25924 1.92581 8.1594 1.98077 8.10282 2.09348C8.01504 2.26837 8.06297 2.34316 8.61996 2.90025C8.78658 3.0669 8.83393 3.09808 8.92025 3.09808C8.97665 3.09808 9.05323 3.08275 9.0905 3.06402C9.20959 3.00415 10.3654 2.07127 10.4215 1.98968C10.5943 1.73871 10.299 1.43262 10.0264 1.58007ZM4.68725 3.59359C4.54341 3.67867 4.51566 3.81244 4.528 4.3615L4.53839 4.82354L4.62945 4.91331C4.80631 5.08769 5.10418 5.00334 5.15472 4.76457C5.16532 4.71442 5.174 4.48339 5.174 4.25115C5.174 3.70206 5.12576 3.58287 4.88996 3.54954C4.81893 3.53949 4.7553 3.55332 4.68725 3.59359ZM2.75293 4.35203C2.66606 4.42539 2.64845 4.46076 2.64845 4.56199C2.64845 4.6794 2.66345 4.69778 3.06857 5.07787C3.46696 5.45164 3.49511 5.47204 3.61238 5.47204C3.82092 5.47204 3.96702 5.28966 3.9037 5.10836C3.88485 5.05437 3.71494 4.869 3.48922 4.65616C3.15306 4.33916 3.09155 4.2935 2.98203 4.27961C2.87469 4.26601 2.84288 4.27606 2.75293 4.35203ZM6.1752 4.68925C5.76534 5.07667 5.76311 5.07952 5.76311 5.21419C5.76311 5.32943 5.77734 5.3609 5.85851 5.42547C5.96598 5.51096 6.09496 5.52301 6.22199 5.45944C6.31234 5.41424 6.89999 4.85915 6.98349 4.74013C7.1214 4.54359 6.95797 4.29971 6.68834 4.29971C6.60001 4.29971 6.53536 4.34878 6.1752 4.68925ZM2.02195 6.11491C1.85436 6.21151 1.82915 6.42247 1.96877 6.56022L2.05404 6.64437H2.64702C3.20617 6.64437 3.24394 6.64088 3.30973 6.58294C3.47208 6.43994 3.45422 6.21987 3.27172 6.11465C3.18562 6.06503 3.11213 6.05841 2.64705 6.05841C2.18116 6.05841 2.10858 6.06497 2.02195 6.11491ZM3.51521 7.23375C3.4127 7.28856 2.75483 7.91288 2.70416 8.00341C2.5696 8.24389 2.84384 8.50658 3.10643 8.38879C3.25126 8.32384 3.91949 7.67601 3.93843 7.58223C3.96094 7.47077 3.90935 7.32387 3.83053 7.27508C3.7311 7.21347 3.58813 7.19474 3.51521 7.23375ZM12.8048 7.30075C12.764 7.32209 12.7122 7.37109 12.6896 7.4096C12.5177 7.70274 12.9255 7.99691 13.1758 7.76033C13.4261 7.52373 13.1149 7.13827 12.8048 7.30075ZM4.12586 13.1358C4.01582 13.2233 3.9868 13.3375 4.04252 13.4635C4.12493 13.6499 4.14062 13.6526 5.12687 13.643L6.01661 13.6344L6.09139 13.5521C6.20115 13.4314 6.19446 13.2609 6.07555 13.1485L5.98492 13.0628H5.10126H4.21757L4.12586 13.1358ZM4.02025 14.496C3.93704 14.5662 3.91967 14.6021 3.91967 14.7041C3.91967 14.8061 3.93704 14.842 4.02025 14.9123C4.19221 15.0575 4.41954 15.0099 4.50785 14.8102C4.56291 14.6856 4.53346 14.5712 4.42382 14.484C4.29611 14.3824 4.14952 14.3868 4.02025 14.496Z" fill="#410EAD"/>
</svg>
