<svg width="15" height="15" viewBox="0 0 15 15" fill="none" xmlns="http://www.w3.org/2000/svg">
<path d="M0.0107306 12.0712C0.109986 11.8781 0.297767 11.9345 0.474818 11.9184V11.7253C0.474818 9.00859 0.488232 6.28922 0.466771 3.57253C0.461406 2.86453 0.863794 2.58025 1.37885 2.55612V1.63893C1.31179 1.63625 1.24472 1.63357 1.18034 1.62821C1.01134 1.61211 0.914763 1.45925 0.992558 1.31175C1.68467 0.0298372 3.16009 -0.4663 4.31897 0.563521C4.53089 0.751249 4.6999 0.992613 4.86353 1.22593C5.02449 1.45389 4.93328 1.60943 4.64893 1.62821C4.62478 1.62821 4.60332 1.63625 4.57113 1.64162V2.55075C4.94401 2.56685 5.24446 2.71703 5.4081 3.09248C5.75415 2.4703 6.08948 1.86421 6.4248 1.25811C6.62331 0.898749 6.8245 0.544748 7.01765 0.182702C7.08472 0.0566558 7.17592 -0.00502626 7.32078 0.00301922C7.43345 0.0110647 7.54612 0.0137465 7.65611 0.00301922C7.82511 -0.0130717 7.92437 0.0593376 8.00484 0.206838C8.47698 1.07039 8.95448 1.93125 9.4293 2.79212C9.45881 2.84844 9.491 2.90207 9.53928 2.99057C9.54465 2.9128 9.54733 2.86721 9.54733 2.82162C9.54733 2.16725 9.54733 1.51289 9.54733 0.861204C9.54733 0.63593 9.61976 0.563521 9.8451 0.563521C10.3682 0.563521 10.8886 0.563521 11.4117 0.563521C11.5003 0.563521 11.5566 0.539384 11.6022 0.464293C11.6773 0.343611 11.7605 0.228293 11.8436 0.115656C11.9617 -0.03989 12.1146 -0.0372082 12.2299 0.115656C12.3158 0.228293 12.3962 0.343611 12.4714 0.464293C12.5196 0.539384 12.576 0.563521 12.6618 0.560839C13.1849 0.558157 13.7053 0.560839 14.2284 0.560839C14.4538 0.560839 14.5235 0.633249 14.5235 0.861204C14.5235 1.50484 14.5235 2.14848 14.5235 2.79212C14.5235 2.97716 14.4431 3.07371 14.2982 3.06835C14.1587 3.06298 14.0836 2.9718 14.0836 2.7948C14.0836 2.54271 14.0836 2.29062 14.0836 2.01707C13.7966 2.01707 13.5176 2.01171 13.2439 2.01707C13.0857 2.02243 12.981 1.96612 12.8925 1.83471C12.6162 1.42707 12.3319 1.02748 12.0395 0.609112C12.0046 0.654703 11.9724 0.692249 11.9456 0.729794C11.6827 1.10525 11.4171 1.48071 11.1596 1.85884C11.0818 1.97148 10.9906 2.01975 10.8538 2.01707C10.5721 2.01171 10.2877 2.01707 9.99264 2.01707V11.905H10.5453C10.5453 11.8486 10.5453 11.795 10.5453 11.7387C10.5453 10.8617 10.5453 9.9821 10.5453 9.10514C10.5453 8.64386 10.8833 8.33814 11.3152 8.4025C11.5941 8.44273 11.8249 8.67605 11.857 8.95764C11.8651 9.03005 11.8678 9.10246 11.8678 9.17755C11.8678 10.0277 11.8678 10.8751 11.8678 11.7253C11.8678 11.7843 11.8678 11.8406 11.8678 11.9076H12.0716C12.1816 11.7253 12.2058 11.5295 12.2031 11.3203C12.195 10.5587 12.1977 9.79705 12.2031 9.03809C12.2031 8.7565 12.348 8.55268 12.6028 8.44541C12.8523 8.34082 13.0937 8.38105 13.2976 8.56073C13.4532 8.6975 13.5202 8.87718 13.5202 9.08368C13.5202 9.60128 13.5202 10.1189 13.5202 10.6365C13.5202 10.6901 13.5202 10.7437 13.5202 10.7866C13.708 10.7679 13.8851 10.7491 14.0836 10.7276C14.0836 10.6821 14.0836 10.6257 14.0836 10.5694C14.0836 8.432 14.0836 6.29458 14.0836 4.15717C14.0836 4.09817 14.0809 4.03917 14.0943 3.98285C14.1238 3.86485 14.2124 3.81926 14.3277 3.82999C14.4377 3.83803 14.5074 3.89971 14.5209 4.01503C14.5262 4.06867 14.5235 4.1223 14.5235 4.17594C14.5235 6.20608 14.5235 8.23623 14.5235 10.2637C14.5235 10.3227 14.5235 10.379 14.5235 10.4514C14.5986 10.4326 14.663 10.4112 14.7274 10.4031C14.8535 10.3817 14.9501 10.4487 14.9769 10.5748C15.001 10.6981 14.9554 10.7974 14.8347 10.8242C14.6496 10.8671 14.5235 10.969 14.4404 11.1406C14.3814 11.264 14.2714 11.2721 14.1507 11.2345C13.759 11.1138 13.5149 11.2211 13.3539 11.5992C13.3056 11.7146 13.2252 11.7628 13.1018 11.7521C13.0159 11.7441 12.922 11.728 12.8416 11.7441C12.745 11.7655 12.6538 11.8191 12.5599 11.8567C12.5652 11.8755 12.5679 11.8969 12.5733 11.9157H12.7235C13.3915 11.9157 14.0594 11.9157 14.7301 11.9157C14.8991 11.9157 14.9984 12.0042 14.9849 12.1463C14.9742 12.2616 14.9125 12.3367 14.7945 12.3528C14.7516 12.3582 14.706 12.3555 14.663 12.3555C9.88534 12.3555 5.10765 12.3555 0.329959 12.3555C0.182416 12.3555 0.0563344 12.3367 0 12.1785V12.0605L0.0107306 12.0712ZM0.914763 6.6164H5.01644C5.01644 5.7904 5.01644 4.97781 5.01376 4.16253C5.01376 4.12767 4.97352 4.07671 4.93865 4.06062C4.43164 3.82194 4.19557 3.39553 4.14192 2.86721C4.10704 2.51857 4.1285 2.16457 4.12582 1.81593C4.12582 1.75962 4.12582 1.7033 4.12582 1.6443H1.82416C1.82416 2.00634 1.84026 2.36034 1.82148 2.70898C1.7866 3.30703 1.5559 3.79244 0.987193 4.06599C0.946954 4.08476 0.917445 4.16253 0.917445 4.21349C0.91208 4.80885 0.914763 5.40422 0.914763 5.99958C0.914763 6.2034 0.914763 6.40722 0.914763 6.61908V6.6164ZM5.46175 9.6415H9.55002V7.07768H5.46175V9.6415ZM0.920128 9.6415H5.00303V7.08304H0.920128V9.6415ZM5.45907 6.62177H9.54733V4.10085H5.45907V6.62177ZM9.39174 3.64494C9.37028 3.60203 9.36223 3.57789 9.3515 3.55912C8.79621 2.55344 8.24091 1.54775 7.68562 0.542066C7.6105 0.407975 7.40394 0.413339 7.32883 0.54743C6.77622 1.54239 6.2236 2.54003 5.67099 3.53767C5.6549 3.56985 5.64417 3.60471 5.62807 3.64494H9.39442H9.39174ZM5.01108 10.1055H0.925493V11.9211H1.47542C1.47542 11.8621 1.47542 11.8084 1.47542 11.7575C1.47542 11.4115 1.47542 11.0656 1.47542 10.7169C1.47542 10.556 1.55054 10.4675 1.69808 10.4648C1.99048 10.4595 2.28288 10.4595 2.57528 10.4648C2.71746 10.4648 2.79257 10.5533 2.79257 10.7035C2.79526 10.9288 2.79257 11.1514 2.79257 11.3766C2.79257 11.5563 2.79257 11.7333 2.79257 11.9184H3.12253C3.12253 11.8567 3.12253 11.8031 3.12253 11.7521C3.12253 11.4115 3.12253 11.0682 3.12253 10.7276C3.12253 10.5614 3.19496 10.4702 3.33446 10.4675C3.63222 10.4621 3.92999 10.4621 4.22776 10.4675C4.35384 10.4675 4.42359 10.5453 4.43968 10.6686C4.44773 10.7169 4.45041 10.7625 4.4531 10.7974C4.64088 10.7598 4.82061 10.7276 5.00571 10.6901V10.1081L5.01108 10.1055ZM6.88084 11.9211C6.9023 11.7441 6.84328 11.6636 6.67696 11.6234C6.45967 11.5751 6.4248 11.5268 6.43821 11.3016C6.45431 11.0709 6.31481 10.8644 6.09752 10.8001C5.8856 10.7357 5.65758 10.8242 5.54223 11.02C5.39737 11.264 5.38664 11.264 5.11301 11.1809C4.87158 11.1085 4.65429 11.1594 4.48529 11.3445C4.33775 11.5081 4.28141 11.7011 4.34311 11.9211H6.87816H6.88084ZM5.46175 10.4782C5.80244 10.3012 6.12435 10.2959 6.44358 10.4729C6.4865 10.497 6.5482 10.4916 6.59917 10.4916C7.53003 10.4916 8.46088 10.4916 9.39174 10.4916H9.54733V10.1028H5.45907V10.4782H5.46175ZM6.81914 10.9368C6.85401 11.0441 6.85938 11.1862 6.92108 11.2211C7.20007 11.3766 7.34493 11.5966 7.34225 11.9184H8.54404V10.9368H6.81914ZM4.30824 1.18034C3.92463 0.721749 3.48737 0.434793 2.89988 0.456248C2.358 0.475021 1.95292 0.751249 1.60151 1.18034H4.30824ZM11.012 10.261V11.9184H11.4332V10.261H11.012ZM11.2293 1.02211H10.0061V1.58798C10.2689 1.58798 10.5211 1.58798 10.776 1.58798C10.8028 1.58798 10.8377 1.57725 10.8511 1.55848C10.9745 1.38684 11.0952 1.21252 11.2293 1.02479V1.02211ZM14.0916 1.02211H12.8684C12.9998 1.20984 13.1179 1.38148 13.2413 1.55043C13.2547 1.56921 13.2895 1.58798 13.3137 1.58798C13.5712 1.58798 13.8287 1.58798 14.0916 1.58798V1.02211ZM9.54733 11.9211V10.9395H9.00545V11.9211H9.54733ZM12.6645 10.261V11.3257C12.7557 11.3176 12.8362 11.3016 12.9167 11.3069C13.0347 11.315 13.0883 11.2372 13.091 11.1541C13.1018 10.8591 13.0964 10.5641 13.0964 10.261H12.6645ZM2.34726 11.9184V10.9127H1.92342V11.9184H2.34726ZM13.0964 9.80778C13.0964 9.54496 13.1018 9.29823 13.0964 9.0515C13.0937 8.92546 12.9945 8.83964 12.8764 8.84232C12.7611 8.845 12.6699 8.904 12.6645 9.022C12.6538 9.28214 12.6618 9.54228 12.6618 9.80778H13.0991H13.0964ZM11.4359 9.80778C11.4359 9.53959 11.4439 9.27677 11.4332 9.01664C11.4278 8.90668 11.3393 8.84768 11.2293 8.845C11.1113 8.84232 11.0174 8.904 11.012 9.01932C10.9986 9.27946 11.0067 9.54228 11.0067 9.81046H11.4332L11.4359 9.80778ZM3.83878 11.9211C3.89512 11.6931 3.95682 11.4812 3.99706 11.264C4.01852 11.1487 3.99974 11.028 3.99974 10.9073H3.57321V11.9184H3.8361L3.83878 11.9211ZM0.928176 3.58326C1.15351 3.44648 1.2635 3.25339 1.33593 3.02007C1.01402 3.01739 0.882572 3.19976 0.928176 3.58326ZM5.00839 3.58326C5.03522 3.18098 4.9145 3.01471 4.60869 3.02007C4.67575 3.25071 4.78037 3.44648 5.00839 3.58326Z" fill="#410EAD"/>
<path d="M0.0107422 14.7076C0.0804895 14.5923 0.182428 14.5601 0.316557 14.5601C5.11034 14.5627 9.90413 14.5601 14.6979 14.5601C14.8213 14.5601 14.9367 14.5627 14.985 14.7049C15.0306 14.839 14.9662 14.9276 14.8589 15C9.90949 15 4.96012 15 0.0107422 15C0.0107422 14.9034 0.0107422 14.8042 0.0107422 14.7076Z" fill="#410EAD"/>
<path d="M0.0107422 13.3905C0.0804895 13.2751 0.182428 13.2402 0.31924 13.2402C1.0194 13.2456 1.72223 13.2402 2.42239 13.2456C2.50018 13.2456 2.60212 13.2832 2.64773 13.3395C2.7604 13.479 2.65577 13.6775 2.46799 13.6802C1.7276 13.6855 0.987204 13.6855 0.24681 13.6748C0.166332 13.6748 0.0885372 13.5836 0.0107422 13.5353C0.0107422 13.487 0.0107422 13.4387 0.0107422 13.3878V13.3905Z" fill="#410EAD"/>
<path d="M9.29257 13.6829C7.50597 13.6829 5.71936 13.6829 3.93276 13.6829C3.88447 13.6829 3.8335 13.6829 3.78522 13.6802C3.65645 13.6668 3.59744 13.5863 3.58939 13.4629C3.58134 13.3422 3.66718 13.2483 3.79595 13.2456C4.06421 13.2402 4.33247 13.2402 4.60072 13.2402C7.95933 13.2402 11.3152 13.2402 14.6738 13.2402C14.7141 13.2402 14.7516 13.2402 14.7919 13.2402C14.9153 13.2536 14.9877 13.3261 14.9984 13.4495C15.0092 13.5648 14.9206 13.6614 14.7946 13.6775C14.7463 13.6829 14.698 13.6802 14.647 13.6802C12.8604 13.6802 11.0738 13.6802 9.28721 13.6802L9.29257 13.6829Z" fill="#410EAD"/>
<path d="M11.8838 4.95937C11.8838 5.13106 11.8865 5.30006 11.8838 5.47175C11.8784 5.63538 11.8006 5.71318 11.637 5.71586C11.358 5.71854 11.0817 5.71854 10.8027 5.71586C10.6525 5.71586 10.564 5.63002 10.564 5.47979C10.5586 5.13374 10.5505 4.78769 10.5666 4.44163C10.5854 4.06875 10.8778 3.80854 11.2427 3.81659C11.5968 3.82195 11.865 4.09289 11.8811 4.46577C11.8892 4.6321 11.8811 4.79842 11.8811 4.96205L11.8838 4.95937ZM11.4385 5.26787C11.4385 4.98351 11.4438 4.70721 11.4358 4.4309C11.4331 4.32091 11.3473 4.25922 11.2373 4.25385C11.1193 4.24848 11.0227 4.3075 11.0173 4.42285C11.0039 4.70184 11.0119 4.98351 11.0119 5.26787H11.4385Z" fill="#410EAD"/>
<path d="M12.2165 4.94049C12.2165 4.7849 12.2138 4.62931 12.2165 4.47372C12.2246 4.10084 12.5009 3.82185 12.8603 3.81648C13.2279 3.81112 13.5229 4.08742 13.5337 4.46299C13.5417 4.79831 13.539 5.13632 13.5337 5.47164C13.5337 5.6326 13.4478 5.71576 13.2869 5.71844C13.0079 5.72112 12.7316 5.7238 12.4526 5.71844C12.2916 5.71844 12.2165 5.6326 12.2138 5.46896C12.2112 5.29459 12.2138 5.11754 12.2138 4.94317L12.2165 4.94049ZM13.0964 5.27045C13.0964 4.99414 13.1018 4.73393 13.0964 4.47104C13.0937 4.34495 13.0186 4.26179 12.8845 4.25643C12.7611 4.25106 12.6672 4.31813 12.6645 4.43884C12.6538 4.71247 12.6618 4.98877 12.6618 5.27045H13.0991H13.0964Z" fill="#410EAD"/>
<path d="M11.8839 7.25784C11.8839 7.41879 11.8839 7.57975 11.8839 7.7407C11.8812 7.93385 11.8088 8.00628 11.6183 8.00896C11.3554 8.00896 11.0925 8.00896 10.8296 8.00896C10.6419 8.00896 10.5641 7.93385 10.5614 7.74339C10.5587 7.42147 10.5533 7.09956 10.5614 6.77765C10.5694 6.39136 10.8645 6.10164 11.2293 6.10701C11.5915 6.11237 11.8678 6.39404 11.8812 6.77765C11.8866 6.93861 11.8812 7.09956 11.8812 7.26052L11.8839 7.25784ZM11.4413 7.56365C11.4413 7.28735 11.4466 7.02445 11.4413 6.76156C11.4386 6.63548 11.3393 6.54427 11.2267 6.54963C11.1033 6.555 11.0147 6.62475 11.0094 6.74546C10.9986 7.0164 11.0067 7.28735 11.0067 7.56365H11.444H11.4413Z" fill="#410EAD"/>
<path d="M12.2165 7.24696C12.2165 7.08601 12.2138 6.92505 12.2165 6.7641C12.2246 6.39658 12.5036 6.11223 12.863 6.10418C13.2118 6.09613 13.5149 6.36707 13.531 6.72654C13.5471 7.07796 13.539 7.42938 13.5337 7.77811C13.5337 7.92297 13.4478 8.00345 13.303 8.00345C13.0213 8.00613 12.7369 8.00613 12.4553 8.00345C12.2997 8.00345 12.2219 7.92566 12.2165 7.77007C12.2138 7.5957 12.2165 7.41865 12.2165 7.24428V7.24696ZM13.0964 7.56082C13.0964 7.28452 13.0991 7.02699 13.0964 6.76946C13.0937 6.6407 13.0186 6.55754 12.8899 6.54681C12.7772 6.53876 12.6752 6.60046 12.6699 6.71581C12.6565 6.9948 12.6645 7.27647 12.6645 7.56082H13.0991H13.0964Z" fill="#410EAD"/>
<path d="M12.7477 2.60445C12.7504 3.00415 12.4339 3.34216 12.0529 3.34216C11.672 3.34216 11.3501 3.00952 11.3501 2.60981C11.3501 2.21279 11.6613 1.88551 12.0395 1.88283C12.4285 1.88015 12.745 2.20206 12.7477 2.60445ZM12.0529 2.90221C12.1924 2.90221 12.3131 2.75735 12.3078 2.59908C12.3024 2.44349 12.1844 2.32009 12.0449 2.32009C11.9 2.32009 11.782 2.45959 11.79 2.61786C11.7954 2.77077 11.9188 2.90221 12.0529 2.89953V2.90221Z" fill="#410EAD"/>
<path d="M3.1279 5.33734C3.1279 5.11469 3.1279 4.88935 3.1279 4.6667C3.13058 4.47623 3.2057 4.40112 3.39348 4.39844C3.65637 4.39844 3.91926 4.39844 4.18216 4.39844C4.36726 4.39844 4.44774 4.47087 4.44774 4.6506C4.45042 5.11737 4.45042 5.58682 4.44774 6.05359C4.44774 6.2226 4.36189 6.30039 4.19021 6.30308C3.92195 6.30576 3.65369 6.30576 3.38811 6.30308C3.21106 6.30308 3.13058 6.21991 3.1279 6.04018C3.12522 5.8068 3.1279 5.57341 3.1279 5.34003V5.33734ZM4.00243 4.84643H3.57858V5.85777H4.00243V4.84643Z" fill="#410EAD"/>
<path d="M2.79518 5.36667C2.79518 5.59201 2.79518 5.81466 2.79518 6.04C2.79518 6.21973 2.71738 6.30021 2.54033 6.30289C2.27207 6.30558 2.00381 6.30558 1.73555 6.30289C1.5585 6.30289 1.47802 6.21705 1.47534 6.04C1.47534 5.57859 1.47534 5.11451 1.47534 4.6531C1.47534 4.48142 1.55582 4.40094 1.72482 4.40094C1.99845 4.39826 2.26939 4.39826 2.54301 4.40094C2.7147 4.40094 2.78981 4.47873 2.79249 4.6531C2.79249 4.89185 2.79249 5.1306 2.79249 5.36935L2.79518 5.36667ZM2.34987 4.84893H1.9287V5.8549H2.34987V4.84893Z" fill="#410EAD"/>
<path d="M3.56257 2.92667C3.56257 3.05812 3.57599 3.19225 3.56257 3.32102C3.52233 3.64293 3.25676 3.86558 2.93753 3.85217C2.62903 3.84144 2.3715 3.58391 2.36077 3.26468C2.35272 3.03666 2.35272 2.80596 2.36077 2.57794C2.37419 2.25871 2.6344 2.00386 2.94289 1.99582C3.26212 1.98777 3.5277 2.21042 3.56525 2.53233C3.57867 2.6611 3.56525 2.79523 3.56525 2.92667H3.56257ZM2.79267 2.92936C2.79267 3.0313 2.78999 3.13323 2.79267 3.23517C2.79535 3.34248 2.849 3.40954 2.96435 3.41222C3.07166 3.41222 3.12531 3.34516 3.12799 3.2459C3.13336 3.0313 3.13336 2.81937 3.12799 2.60476C3.12531 2.50014 3.06629 2.4304 2.95094 2.43576C2.84632 2.44113 2.79535 2.50819 2.79267 2.61013C2.78999 2.71743 2.79267 2.82474 2.79267 2.92936Z" fill="#410EAD"/>
<path d="M7.67212 8.34667C7.67212 8.12134 7.67212 7.89868 7.67212 7.67334C7.67212 7.47752 7.74455 7.40509 7.93501 7.4024C8.19791 7.39972 8.4608 7.39972 8.72638 7.4024C8.91684 7.4024 8.99195 7.48288 8.99464 7.67334C8.99464 8.1267 8.99464 8.58006 8.99464 9.03342C8.99464 9.22388 8.91684 9.30168 8.72906 9.30436C8.4608 9.30704 8.19254 9.30704 7.92428 9.30436C7.74991 9.30436 7.67748 9.22925 7.6748 9.05219C7.67212 8.81881 7.6748 8.58274 7.6748 8.34936L7.67212 8.34667ZM8.54664 8.85637V7.8504H8.12279V8.85637H8.54664Z" fill="#410EAD"/>
<path d="M7.33961 8.35453C7.33961 8.58255 7.33961 8.81326 7.33961 9.04128C7.33961 9.22637 7.26718 9.2988 7.08477 9.30149C6.81651 9.30417 6.54825 9.30417 6.27999 9.30149C6.10026 9.30149 6.02246 9.21833 6.02246 9.03859C6.02246 8.57987 6.02246 8.12115 6.02246 7.66243C6.02246 7.48269 6.10294 7.40221 6.28267 7.39953C6.55093 7.39417 6.81919 7.39417 7.08745 7.39953C7.26987 7.40221 7.33961 7.47733 7.3423 7.66243C7.3423 7.89045 7.3423 8.12115 7.3423 8.34917L7.33961 8.35453ZM6.46509 7.85021V8.8535H6.89162V7.85021H6.46509Z" fill="#410EAD"/>
<path d="M4.4505 8.36259C4.4505 8.58792 4.45319 8.81058 4.4505 9.03592C4.44782 9.22906 4.37271 9.30149 4.18225 9.30418C3.91935 9.30686 3.65646 9.30686 3.39088 9.30418C3.20578 9.30418 3.13067 9.22906 3.12799 9.04665C3.12531 8.58256 3.12531 8.11847 3.12799 7.65707C3.12799 7.4827 3.20578 7.40759 3.38015 7.4049C3.64841 7.39954 3.91667 7.39954 4.18493 7.4049C4.37271 7.4049 4.44514 7.4827 4.44782 7.67853C4.45051 7.90655 4.44782 8.13725 4.44782 8.36527L4.4505 8.36259ZM3.5733 8.86423C3.69938 8.86423 3.81741 8.8696 3.93277 8.86155C3.96227 8.86155 4.00788 8.81326 4.00788 8.78644C4.01324 8.47794 4.01056 8.16676 4.01056 7.85289H3.5733V8.86691V8.86423Z" fill="#410EAD"/>
<path d="M2.79518 8.35458C2.79518 8.5826 2.79518 8.81331 2.79518 9.04133C2.79518 9.22374 2.72006 9.29885 2.53765 9.30154C2.26939 9.30422 2.00113 9.30422 1.73287 9.30154C1.55314 9.30154 1.47534 9.21838 1.47534 9.03864C1.47534 8.57992 1.47534 8.1212 1.47534 7.66248C1.47534 7.48274 1.55314 7.40226 1.73555 7.39958C2.00381 7.3969 2.27207 7.39422 2.54033 7.39958C2.72275 7.40226 2.79249 7.48006 2.79518 7.66248C2.79518 7.8905 2.79518 8.1212 2.79518 8.34922V8.35458ZM1.92333 7.84757V8.85355H2.34718V7.84757H1.92333Z" fill="#410EAD"/>
<path d="M7.33961 5.34539C7.33961 5.57341 7.33961 5.80411 7.33961 6.03213C7.33961 6.2226 7.26181 6.30039 7.07671 6.30308C6.81382 6.30576 6.55093 6.30576 6.28803 6.30308C6.10294 6.30308 6.02246 6.21992 6.01978 6.03213C6.01978 5.57341 6.01978 5.11737 6.01978 4.65865C6.01978 4.47891 6.10025 4.40112 6.27999 4.39844C6.54824 4.39844 6.8165 4.39844 7.08476 4.39844C7.2645 4.39844 7.33961 4.47623 7.33961 4.65865C7.33961 4.88667 7.33961 5.11737 7.33961 5.34539ZM6.88893 5.85777V4.84643H6.46777V5.85777H6.88893Z" fill="#410EAD"/>
<path d="M7.67233 5.33716C7.67233 5.10914 7.67233 4.87844 7.67233 4.65042C7.67502 4.47605 7.75013 4.40094 7.9245 4.40094C8.19812 4.39826 8.46906 4.39826 8.74269 4.40094C8.91169 4.40094 8.99217 4.48142 8.99485 4.65578C8.99753 5.11719 8.99753 5.58128 8.99485 6.04268C8.99485 6.21973 8.90901 6.30289 8.73196 6.30558C8.46906 6.30826 8.20617 6.30558 7.94328 6.30558C7.75281 6.30558 7.67502 6.22778 7.67233 6.04C7.66965 5.80661 7.67233 5.57323 7.67233 5.33984V5.33716ZM8.54418 5.86027V4.84893H8.12301V5.86027H8.54418Z" fill="#410EAD"/>
<path d="M6.89692 2.6154C6.89692 2.45444 6.89423 2.29349 6.89692 2.13253C6.8996 1.96085 6.98008 1.88305 7.14908 1.88037C7.38783 1.88037 7.62658 1.88037 7.86533 1.88037C8.02897 1.88037 8.11213 1.95817 8.11481 2.1218C8.12018 2.44908 8.12018 2.77367 8.11481 3.10095C8.11481 3.25117 8.02629 3.33702 7.87606 3.3397C7.62658 3.34506 7.37978 3.34506 7.1303 3.3397C6.98008 3.33702 6.8996 3.24849 6.89692 3.09558C6.89155 2.93463 6.89692 2.77367 6.89692 2.61272V2.6154ZM7.6695 2.89707V2.33105H7.34759V2.89707H7.6695Z" fill="#410EAD"/>
</svg>
