<svg width="15" height="15" viewBox="0 0 15 15" fill="none" xmlns="http://www.w3.org/2000/svg">
<path d="M9.21634 0.00417138C9.31936 0.0396273 9.42883 0.0667407 9.52541 0.112625C10.1779 0.423386 10.3281 1.25347 9.8216 1.76654C9.75721 1.83119 9.75936 1.87916 9.77009 1.96676C9.81946 2.30881 9.85165 2.65502 9.87526 2.99915C9.94394 4.01069 10.004 5.02431 10.0663 6.03793C10.0706 6.12762 10.1028 6.18184 10.1865 6.2173C10.2637 6.25067 10.3367 6.29655 10.4097 6.33827C10.5664 6.43212 10.6243 6.57812 10.5621 6.72202C10.502 6.85759 10.3625 6.91599 10.1843 6.88053C10.165 6.87636 10.1457 6.87219 10.1393 6.87011C10.1393 7.19338 10.165 7.51665 10.1328 7.83367C10.0985 8.1778 10.2187 8.39054 10.5514 8.51151C10.6887 8.56156 10.8111 8.65333 10.9677 8.74301C10.9763 8.57616 10.9849 8.42808 10.9914 8.28C10.9978 8.10898 11.0128 7.93795 11.0064 7.76902C11.0064 7.71479 10.9549 7.65848 10.9162 7.61259C10.8926 7.5834 10.8475 7.57297 10.8132 7.55211C10.6866 7.47703 10.6351 7.36649 10.6673 7.22884C10.6995 7.0891 10.8025 7.01819 10.9484 7.00359C10.9785 7.0015 11.0085 7.00359 11.0493 7.00359C11.0708 6.69283 11.0879 6.38624 11.1115 6.08173C11.1716 5.29336 11.2189 4.50499 11.3047 3.7187C11.3262 3.51222 11.294 3.37457 11.1674 3.20772C10.8347 2.7739 10.942 2.16073 11.3777 1.81868C11.8113 1.47872 12.4423 1.52043 12.8265 1.91671C13.2085 2.30881 13.2192 2.93241 12.8393 3.32451C12.7556 3.41003 12.7556 3.47885 12.7728 3.58939C12.82 3.87304 12.8436 4.16086 12.863 4.44659C12.9402 5.61455 13.0153 6.78251 13.084 7.95255C13.0926 8.08395 13.1291 8.17363 13.26 8.21952C13.3115 8.23829 13.3588 8.26957 13.4038 8.29668C13.5476 8.38428 13.6034 8.51985 13.5519 8.65959C13.5047 8.7889 13.3781 8.85981 13.215 8.84521C13.1913 8.84521 13.1656 8.83895 13.1334 8.83478C13.1291 8.86189 13.1248 8.88484 13.1248 8.90778C13.1291 9.90263 13.1355 10.8975 13.1398 11.8944C13.1398 11.9486 13.1334 12.005 13.1484 12.055C13.3759 12.8371 13.6077 13.6192 13.8417 14.4118C14.125 14.4118 14.4062 14.4076 14.6852 14.4118C14.917 14.416 15.0715 14.6287 14.9664 14.8122C14.9191 14.8936 14.8054 14.9415 14.7152 14.9895C14.6766 15.0104 14.6165 14.9937 14.5671 14.9937C9.85594 14.9937 5.14475 14.9937 0.433558 14.9937C0.392778 14.9937 0.354144 14.9937 0.313364 14.9937C0.12878 14.9853 0 14.8665 0 14.7038C0 14.5348 0.130926 14.4118 0.324096 14.4097C0.560192 14.4055 0.796288 14.4034 1.03238 14.4097C1.13326 14.4139 1.16975 14.3763 1.19551 14.2866C1.40585 13.5608 1.62263 12.835 1.83511 12.1092C1.85014 12.0592 1.86087 12.005 1.86087 11.9507C1.86731 10.9309 1.8716 9.91097 1.87589 8.89109C1.87589 8.87649 1.8716 8.86189 1.86945 8.84938C1.85872 8.84521 1.85228 8.83687 1.8437 8.83687C1.62692 8.85564 1.50028 8.79307 1.45521 8.64499C1.40585 8.49065 1.4638 8.34883 1.65697 8.27166C1.87589 8.18406 1.91238 8.03598 1.92526 7.83159C2.01111 6.45923 2.1077 5.08688 2.20213 3.71453C2.22145 3.44131 2.2236 3.44131 2.05833 3.19729C1.75784 2.75096 1.85872 2.14404 2.28799 1.81451C2.72369 1.47872 3.33754 1.51835 3.72603 1.90628C4.11022 2.29004 4.13168 2.90321 3.76681 3.30157C3.67881 3.39751 3.65949 3.47051 3.6831 3.6019C3.73676 3.89807 3.75178 4.20257 3.76681 4.5029C3.77539 4.65515 3.64661 4.76986 3.49208 4.77612C3.32896 4.78446 3.20018 4.68852 3.17442 4.52584C3.15296 4.38193 3.14867 4.23385 3.13579 4.08786C3.1272 3.98566 3.11432 3.88347 3.11003 3.78127C3.10574 3.68116 3.04779 3.6603 2.96193 3.66239C2.87394 3.66239 2.8074 3.67282 2.80096 3.78544C2.71296 5.07437 2.62281 6.36538 2.53267 7.65431C2.53052 7.68768 2.53267 7.72105 2.53267 7.78362C2.67003 7.71062 2.79023 7.64388 2.91042 7.57922C3.03276 7.51248 3.1594 7.452 3.2753 7.37483C3.31823 7.34563 3.35257 7.28098 3.35471 7.22884C3.36115 7.1037 3.34398 6.97647 3.34398 6.84925C3.34184 6.66571 3.45559 6.54057 3.62515 6.53015C3.78398 6.5218 3.91491 6.63234 3.94066 6.80336C3.94925 6.86593 3.95139 6.9285 3.95569 6.99942C4.12095 6.9869 4.26046 7.02236 4.32915 7.18087C4.39568 7.33312 4.33344 7.4812 4.14242 7.57505C4.01578 7.63554 3.97715 7.71271 3.99003 7.84827C4.01364 8.134 4.01793 8.42182 4.03081 8.74093C4.22183 8.63247 4.38495 8.51776 4.56524 8.44477C4.81636 8.34257 4.90866 8.18406 4.88719 7.9171C4.86144 7.5688 4.88075 7.21632 4.88075 6.86385C4.8829 6.86385 4.86573 6.86593 4.84641 6.87011C4.6511 6.91808 4.50729 6.85968 4.4472 6.70951C4.3871 6.56143 4.43646 6.40084 4.61246 6.3341C4.88719 6.22981 4.95373 6.05462 4.96661 5.77931C5.01168 4.76986 5.0868 3.7625 5.15978 2.75513C5.18124 2.4694 5.22846 2.18575 5.26065 1.90002C5.26495 1.86874 5.25421 1.82077 5.23275 1.802C4.59315 1.22844 4.89792 0.181451 5.76719 0.0166853C5.77577 0.0166853 5.78221 0.00625693 5.7908 0C5.91099 0 6.03119 0 6.15138 0C6.20718 0.0187708 6.26084 0.0396273 6.31665 0.0583981C6.96484 0.279476 7.23528 1.03448 6.86825 1.5976C6.7223 1.82077 6.70299 1.89793 6.72016 2.15447C6.77382 2.89487 6.82747 3.63319 6.88113 4.37359C6.8983 4.60093 6.91333 4.82826 6.9305 5.05351C7.15372 5.04308 7.2782 5.10774 7.32328 5.24956C7.37264 5.4039 7.30825 5.52487 7.12367 5.62915C7.1065 5.63958 7.08933 5.65 7.07216 5.65835C6.98416 5.69172 6.96269 5.75012 6.96913 5.84188C6.9906 6.14847 7.00347 6.45506 7.0142 6.76374C7.02064 6.9285 7.0142 7.09118 7.0142 7.25803H7.99508C8.01439 6.79919 8.02942 6.35078 8.05517 5.90237C8.06376 5.76889 8.03371 5.68963 7.90278 5.62915C7.71176 5.54155 7.64952 5.4039 7.69888 5.25582C7.7461 5.11191 7.8663 5.04934 8.07234 5.05977C8.08093 5.05977 8.08952 5.05143 8.09595 5.04725C8.15176 4.27765 8.20542 3.50805 8.26337 2.74053C8.28269 2.484 8.30415 2.22538 8.34708 1.97093C8.3621 1.87916 8.35781 1.82911 8.29127 1.7582C7.72679 1.17839 8.00366 0.241935 8.79566 0.0333704C8.82785 0.0250279 8.86005 0.0125139 8.89224 0C9.00171 0 9.11331 0 9.22278 0L9.21634 0.00417138ZM5.05675 14.4014C5.13831 13.9175 5.23061 13.4378 5.29714 12.956C5.38514 12.3053 5.66416 11.763 6.20289 11.3626C7.4864 10.4115 9.20346 11.1123 9.60268 12.541C9.70999 12.9247 9.74863 13.3273 9.81946 13.7194C9.86024 13.9467 9.89887 14.1761 9.93536 14.3993H10.1865C10.1715 14.1323 10.15 13.8758 10.1436 13.6172C10.135 13.2689 10.1543 12.9247 10.2959 12.5973C10.414 12.3241 10.6072 12.1343 10.9184 12.0821C11.1888 12.0362 11.4099 12.1384 11.6095 12.3011C11.8907 12.5326 12.0924 12.8267 12.2512 13.1416C12.4401 13.517 12.6032 13.905 12.7814 14.2866C12.8029 14.3325 12.8458 14.3951 12.8866 14.4034C12.9853 14.4201 13.0905 14.4097 13.1935 14.4097C13.1935 14.3722 13.1935 14.3576 13.1892 14.345C12.996 13.6839 12.8029 13.0227 12.6011 12.3658C12.5839 12.3095 12.5131 12.2531 12.4509 12.2239C10.8411 11.4731 9.22922 10.7285 7.61947 9.97771C7.52932 9.936 7.46064 9.93391 7.36835 9.97771C5.75431 10.7306 4.13812 11.4773 2.52194 12.226C2.43823 12.2657 2.39101 12.3136 2.3674 12.4033C2.18711 13.0269 2.00253 13.6484 1.82009 14.2721C1.80721 14.3159 1.79862 14.3596 1.78789 14.4097H2.14633C2.29228 14.0843 2.4275 13.759 2.57989 13.442C2.7752 13.0353 2.99628 12.639 3.34613 12.3324C3.85481 11.8861 4.48798 12.0321 4.71119 12.6619C4.79061 12.8893 4.82924 13.1375 4.83783 13.3773C4.8507 13.7173 4.82066 14.0572 4.80992 14.4055H5.05461L5.05675 14.4014ZM9.30648 14.4014C9.30648 14.3659 9.31078 14.3367 9.30648 14.3096C9.21848 13.7861 9.14551 13.2584 9.0339 12.7391C8.8858 12.0404 8.22259 11.5253 7.50357 11.5148C6.82104 11.5044 6.12992 12.0091 5.97324 12.6828C5.84231 13.2459 5.76719 13.8216 5.66631 14.4014H9.30863H9.30648ZM10.5964 10.6952C10.6093 10.6639 10.6179 10.643 10.6265 10.6201C10.7617 10.2322 11.118 10.0069 11.5043 10.0632C11.9229 10.1237 12.1954 10.4324 12.2019 10.8516C12.204 11.0184 12.1997 11.1832 12.204 11.3501C12.204 11.3918 12.2212 11.4523 12.2534 11.4731C12.335 11.5232 12.4272 11.5565 12.5303 11.6045C12.5303 11.1999 12.526 10.8182 12.5324 10.4386C12.5324 10.3427 12.5002 10.2926 12.4165 10.2447C11.045 9.4709 9.6778 8.69296 8.3063 7.92127C8.23761 7.88164 8.14747 7.86079 8.06591 7.86079C7.6903 7.85453 7.31254 7.85244 6.93694 7.86079C6.8425 7.86287 6.73733 7.88998 6.65577 7.93587C5.40446 8.63873 4.15744 9.34576 2.91042 10.0528C2.76018 10.1383 2.55842 10.1988 2.47901 10.3281C2.40389 10.4512 2.4554 10.6493 2.4554 10.8161C2.4554 11.0727 2.4554 11.3271 2.4554 11.6024C2.52838 11.5711 2.5756 11.5419 2.62711 11.5273C2.75803 11.4898 2.80525 11.4126 2.79237 11.2792C2.7795 11.129 2.78594 10.9767 2.79237 10.8266C2.80311 10.4345 3.07784 10.13 3.47276 10.0674C3.8591 10.0069 4.22827 10.2217 4.36134 10.5888C4.37422 10.6243 4.38924 10.6576 4.40427 10.6973C4.44505 10.6806 4.47724 10.6639 4.50944 10.6535C4.66827 10.6097 4.71978 10.5158 4.71119 10.3531C4.69617 10.0966 4.69832 9.83589 4.71978 9.57936C4.75197 9.20811 5.07178 8.92238 5.44738 8.89944C5.85304 8.87441 6.19645 9.108 6.29089 9.48133C6.31665 9.58144 6.32094 9.68781 6.33596 9.80252C6.41109 9.76915 6.47762 9.73161 6.54845 9.71075C6.6665 9.67529 6.6944 9.6023 6.68796 9.48967C6.67723 9.32491 6.68367 9.15806 6.68582 8.9912C6.69011 8.51359 7.02923 8.16737 7.49284 8.16737C7.95644 8.16737 8.29771 8.50942 8.30415 8.98703C8.3063 9.17265 8.302 9.35828 8.3063 9.5439C8.3063 9.58561 8.32561 9.64401 8.35781 9.66487C8.44151 9.71701 8.53381 9.75038 8.63898 9.79835C8.64542 9.72952 8.64971 9.67738 8.654 9.62524C8.70337 9.17683 9.05751 8.87649 9.51039 8.89944C9.93965 8.92029 10.2595 9.25817 10.2659 9.69824C10.268 9.88803 10.2895 10.082 10.2616 10.2676C10.2251 10.5096 10.3324 10.6284 10.5514 10.6868C10.5599 10.6889 10.5707 10.691 10.5943 10.6952H10.5964ZM12.4573 7.77945C12.4573 7.65639 12.4616 7.55002 12.4573 7.44574C12.4444 7.16835 12.4294 6.89096 12.4101 6.61357C12.3414 5.67086 12.2684 4.72815 12.1997 3.78753C12.1933 3.68742 12.1353 3.66864 12.0495 3.66864C11.9593 3.66864 11.8907 3.67907 11.8864 3.78961C11.8821 3.91684 11.8649 4.04198 11.8563 4.1692C11.7833 5.19325 11.7082 6.21939 11.6374 7.24552C11.6353 7.28306 11.6524 7.33938 11.6803 7.35606C11.9336 7.49997 12.1912 7.63762 12.4573 7.78362V7.77945ZM9.45029 5.81268C9.45029 5.75429 9.45029 5.72092 9.45029 5.68755C9.37087 4.53419 9.29146 3.38083 9.21419 2.22955C9.20775 2.12736 9.17127 2.08356 9.05966 2.08147C8.95234 2.08147 8.90298 2.11276 8.89654 2.21912C8.87936 2.48191 8.85146 2.74471 8.83429 3.0075C8.78063 3.76667 8.73127 4.52584 8.6819 5.28502C8.67976 5.32673 8.69263 5.39347 8.72268 5.41016C8.95663 5.54572 9.19702 5.67295 9.45244 5.81268H9.45029ZM5.5547 5.81268C5.7908 5.68337 5.99255 5.56658 6.20075 5.4623C6.30162 5.41224 6.33382 5.35384 6.32523 5.24539C6.25011 4.23385 6.17928 3.22232 6.1106 2.2087C6.10416 2.11484 6.06123 2.08147 5.9668 2.08356C5.88309 2.08564 5.80153 2.07939 5.79938 2.19618C5.79938 2.24415 5.7865 2.29212 5.78436 2.34218C5.72426 3.17018 5.66202 3.99609 5.60621 4.82409C5.58475 5.14319 5.57187 5.46438 5.5547 5.81268ZM2.80955 14.3993H4.2111C4.21968 14.0176 4.24329 13.6422 4.23042 13.2689C4.22398 13.0999 4.16603 12.9247 4.10164 12.7641C4.05012 12.6369 3.94495 12.6181 3.8312 12.7016C3.74105 12.7683 3.6552 12.8476 3.58437 12.9352C3.23881 13.3731 3.01989 13.8737 2.8074 14.3993H2.80955ZM12.1826 14.4014C12.101 14.2095 12.0323 14.0322 11.9508 13.8633C11.7726 13.492 11.5945 13.1187 11.2961 12.8204C11.2232 12.7454 11.103 12.664 11.0107 12.6703C10.8712 12.6765 10.8368 12.8288 10.8089 12.9477C10.6952 13.4315 10.7467 13.9133 10.8046 14.4034H12.1826V14.4014ZM9.5018 7.91293C9.5018 7.54794 9.48248 7.19755 9.50824 6.84925C9.52756 6.57186 9.41166 6.42378 9.16268 6.32158C8.98668 6.25067 8.82571 6.1443 8.63898 6.04419C8.61966 6.48635 8.60034 6.8993 8.58746 7.31435C8.58746 7.3498 8.60893 7.40403 8.63683 7.42072C8.92229 7.58757 9.21205 7.75025 9.5018 7.91293ZM5.51177 7.89833C5.7865 7.7419 6.07626 7.58131 6.36172 7.41029C6.39606 7.38943 6.41323 7.3206 6.41109 7.27472C6.4025 6.90556 6.38748 6.53432 6.37245 6.16516C6.37245 6.1297 6.35957 6.09633 6.35099 6.04628C6.08055 6.19436 5.82728 6.32992 5.57616 6.47175C5.54397 6.49052 5.51392 6.53849 5.51392 6.57394C5.50963 7.01193 5.51177 7.44991 5.51177 7.89833ZM11.6224 7.99635C11.6031 8.00261 11.5837 8.00678 11.5644 8.01304C11.5644 8.3384 11.5644 8.66584 11.5644 8.9912C11.5644 9.02875 11.5794 9.08714 11.6052 9.10383C11.9035 9.27902 12.2062 9.44796 12.4981 9.61273C12.4981 9.24774 12.4981 8.89318 12.4959 8.53862C12.4959 8.50733 12.468 8.46354 12.4401 8.44894C12.1675 8.29669 11.8928 8.1486 11.6202 7.99844L11.6224 7.99635ZM2.48545 9.61273C2.78379 9.44379 3.08428 9.27694 3.37618 9.10383C3.40622 9.08506 3.42125 9.0204 3.4191 8.97869C3.41481 8.70547 3.40193 8.43225 3.39335 8.15903C3.39335 8.10898 3.38691 8.05892 3.38262 7.9901C3.08642 8.15069 2.81384 8.29669 2.54555 8.44894C2.5155 8.46562 2.4876 8.51776 2.4876 8.55322C2.4833 8.89944 2.48545 9.24565 2.48545 9.61273ZM6.42182 1.04908C6.42182 0.796715 6.21577 0.592322 5.96036 0.590237C5.70709 0.590237 5.48816 0.796715 5.48602 1.04282C5.48387 1.28893 5.69636 1.49958 5.95177 1.49958C6.21148 1.49958 6.41967 1.30144 6.42182 1.04908ZM12.511 2.64042C12.5152 2.38806 12.3113 2.1795 12.0559 2.17324C11.8048 2.16698 11.5816 2.37346 11.5752 2.61957C11.5687 2.86359 11.7812 3.07841 12.0345 3.08258C12.2963 3.08675 12.5067 2.89279 12.511 2.64042ZM9.52326 1.04491C9.52326 0.79463 9.31292 0.590237 9.05751 0.590237C8.8021 0.590237 8.58746 0.798801 8.58746 1.04491C8.58746 1.2931 8.79995 1.49749 9.05751 1.49749C9.31722 1.49749 9.52326 1.29518 9.52326 1.04282V1.04491ZM2.95764 3.08258C3.2152 3.08049 3.42554 2.86984 3.42125 2.62374C3.41696 2.37763 3.19803 2.16907 2.94476 2.17324C2.6915 2.17741 2.47901 2.38806 2.48116 2.63625C2.48545 2.88653 2.69579 3.08675 2.9555 3.08467L2.95764 3.08258ZM5.31646 10.2634C5.58976 10.1786 5.72498 10.0083 5.72211 9.75246C5.72211 9.72744 5.72211 9.70449 5.72211 9.67947C5.71353 9.56058 5.65129 9.48759 5.52465 9.48342C5.39802 9.47924 5.3229 9.55016 5.3186 9.66904C5.31002 9.863 5.31646 10.057 5.31646 10.2634ZM9.66921 10.2739C9.66921 10.0549 9.6778 9.86092 9.66707 9.66695C9.65848 9.50844 9.49107 9.42919 9.36014 9.50844C9.26141 9.56684 9.20775 10.0173 9.29146 10.0945C9.29575 10.0987 9.30005 10.0987 9.30434 10.1008C9.42024 10.155 9.53614 10.2092 9.67136 10.2718L9.66921 10.2739ZM7.29323 9.32073H7.70318C7.70318 9.20185 7.71176 9.07046 7.70103 8.93906C7.69244 8.82435 7.62162 8.74927 7.49284 8.75135C7.3662 8.75553 7.30181 8.83061 7.29537 8.94741C7.28894 9.07254 7.29537 9.19977 7.29537 9.31865L7.29323 9.32073ZM3.39764 11.1644C3.50925 11.1144 3.5951 11.0664 3.68739 11.0372C3.83764 10.9892 3.82691 10.8704 3.78398 10.7786C3.75393 10.716 3.6552 10.6514 3.58437 10.6472C3.46847 10.6409 3.39979 10.7265 3.39764 10.8474C3.39764 10.9434 3.39764 11.0414 3.39764 11.1644ZM11.6009 11.1665C11.6009 11.0289 11.6073 10.9183 11.6009 10.8078C11.5923 10.7014 11.5086 10.6284 11.4099 10.6451C11.3369 10.6555 11.2468 10.7244 11.2167 10.789C11.1824 10.8662 11.1609 10.9809 11.2961 11.0289C11.3927 11.0643 11.485 11.1123 11.6009 11.1665Z" fill="#410EAD"/>
<path d="M3.55222 5.32861C3.71963 5.32861 3.85056 5.45167 3.85271 5.61226C3.85485 5.77494 3.71319 5.91259 3.54578 5.90842C3.38481 5.90425 3.24959 5.76868 3.25173 5.61435C3.25173 5.45584 3.38695 5.32861 3.55222 5.32861Z" fill="#410EAD"/>
</svg>
