<svg width="15" height="12" viewBox="0 0 15 12" fill="none" xmlns="http://www.w3.org/2000/svg">
<path d="M0.00199791 7.72716C0.0879063 7.5705 0.219766 7.51959 0.399574 7.52351C0.867075 7.5333 1.33458 7.52742 1.82006 7.52742C1.82006 7.12599 1.82006 6.73434 1.81606 6.3427C1.81606 6.31528 1.76811 6.28004 1.73415 6.26045C1.58031 6.16842 1.42048 6.08617 1.26865 5.99218C1.16076 5.9256 1.11082 5.82377 1.13279 5.69649C1.15677 5.56333 1.24667 5.48891 1.37653 5.4615C1.77411 5.37338 2.11175 5.18147 2.37347 4.87403C2.40743 4.83487 2.4334 4.77416 2.4354 4.72325C2.4414 4.40798 2.4354 4.09074 2.4394 3.77547C2.4394 3.69323 2.40743 3.66581 2.33551 3.63056C2.12174 3.52874 1.90597 3.42691 1.70618 3.29962C1.4964 3.16451 1.51239 2.91973 1.72816 2.79832C2.31953 2.46346 2.67515 1.96608 2.84696 1.32182C2.92888 1.01438 2.99281 0.708897 2.97083 0.389707C2.96684 0.34271 2.97083 0.293754 2.97882 0.246757C3.0028 0.0979324 3.12667 -0.00193682 3.27451 0.00393784C3.41835 0.0098125 3.53423 0.109682 3.54822 0.25459C3.5582 0.368167 3.55021 0.481744 3.55021 0.610986C3.62413 0.610986 3.67808 0.610986 3.73002 0.610986C4.5012 0.610986 5.27238 0.610986 6.04555 0.610986C6.08951 0.610986 6.13346 0.609028 6.17741 0.610986C6.35522 0.624694 6.47709 0.748062 6.4731 0.906678C6.4691 1.06725 6.34723 1.18279 6.16343 1.18279C5.45618 1.18475 4.74694 1.18279 4.03969 1.18279C3.85988 1.18279 3.68008 1.18279 3.48229 1.18279C3.34044 1.9132 3.02677 2.54767 2.42541 3.0666C2.60123 3.10576 2.77304 3.15471 2.95085 3.18409C3.05474 3.20171 3.16462 3.19584 3.27251 3.19584C6.0955 3.19584 8.91849 3.19584 11.7395 3.19584C12.0292 3.19584 12.3129 3.17234 12.6046 3.03331C12.4567 2.89427 12.3109 2.77678 12.189 2.63775C11.8574 2.26372 11.6716 1.81921 11.5677 1.3414C11.5397 1.21803 11.4858 1.17691 11.3519 1.17887C10.5468 1.1867 9.73961 1.18279 8.93447 1.18279C8.88652 1.18279 8.83658 1.18279 8.78863 1.17887C8.64878 1.16516 8.54489 1.06334 8.5289 0.928218C8.51292 0.797017 8.59483 0.667775 8.72869 0.62861C8.79262 0.610986 8.86255 0.60707 8.93048 0.60707C9.71164 0.60707 10.4928 0.60707 11.274 0.60707C11.3279 0.60707 11.3799 0.60707 11.4538 0.60707C11.4538 0.507201 11.4538 0.419081 11.4538 0.329002C11.4558 0.129264 11.5677 0.00197953 11.7395 2.13096e-05C11.9153 -0.00193691 12.0491 0.131222 12.0352 0.334877C12.0072 0.734354 12.0931 1.11229 12.213 1.48827C12.3868 2.03853 12.7184 2.46346 13.2219 2.75915C13.5176 2.93344 13.5296 3.15863 13.2379 3.3427C13.0581 3.45432 12.8623 3.54244 12.6685 3.63056C12.5986 3.66189 12.5586 3.68735 12.5606 3.77155C12.5646 4.08683 12.5606 4.40406 12.5646 4.71933C12.5646 4.77025 12.5906 4.83095 12.6265 4.87012C12.8623 5.14427 13.158 5.32834 13.5116 5.42625C13.5575 5.43996 13.6075 5.44779 13.6534 5.4615C13.7693 5.49871 13.8472 5.5692 13.8692 5.69061C13.8912 5.81202 13.8472 5.91189 13.7453 5.97651C13.5955 6.07246 13.4357 6.15667 13.2818 6.25066C13.2439 6.27416 13.1919 6.3192 13.1899 6.35445C13.1839 6.7363 13.1859 7.11816 13.1859 7.51959C13.2479 7.51959 13.2998 7.51959 13.3498 7.51959C13.7753 7.51959 14.1989 7.51959 14.6244 7.51959C14.8981 7.51959 15 7.6175 15 7.8799C15 9.13316 15 10.3884 15 11.6416C15 11.8982 14.8981 11.998 14.6364 11.998C13.2698 11.998 11.9013 11.998 10.5348 11.998C7.15637 11.998 3.77597 11.998 0.397576 12C0.217768 12 0.0859084 11.953 0 11.7963V7.71737L0.00199791 7.72716ZM14.4126 8.11097H0.595365V11.4243H2.29156C2.29156 11.1071 2.28356 10.7957 2.29156 10.4863C2.30754 9.88708 2.80701 9.41906 3.41036 9.42298C4.01572 9.4269 4.5032 9.90274 4.51518 10.5C4.51918 10.7683 4.51518 11.0366 4.51518 11.3048C4.51518 11.346 4.52118 11.3871 4.52318 11.4341H6.27131C6.27131 11.3675 6.27131 11.3146 6.27131 11.2637C6.27131 10.9426 6.26332 10.6214 6.27531 10.3022C6.29728 9.64622 6.85069 9.13316 7.51798 9.13708C8.18327 9.14295 8.7227 9.66776 8.73269 10.3277C8.73868 10.6488 8.73269 10.968 8.73269 11.2892C8.73269 11.3342 8.73269 11.3812 8.73269 11.4262H10.4908C10.4908 11.3734 10.4908 11.3264 10.4908 11.2794C10.4908 11.017 10.4848 10.7526 10.4928 10.4902C10.5088 9.92037 10.9663 9.45627 11.5377 9.42494C12.1171 9.39361 12.6305 9.78917 12.7025 10.3571C12.7404 10.6547 12.7144 10.9582 12.7184 11.2598C12.7184 11.3146 12.7184 11.3695 12.7184 11.4262H14.4086V8.11293L14.4126 8.11097ZM12.8443 5.82769L12.8483 5.78461C12.5506 5.61424 12.2929 5.39884 12.0791 5.13252C12.0392 5.08356 11.9552 5.04048 11.8913 5.04048C10.7825 5.03461 9.67368 5.03657 8.56686 5.03461C8.48695 5.03461 8.443 5.05811 8.39105 5.12469C8.33711 5.19127 8.23522 5.25589 8.1533 5.25784C7.72376 5.27155 7.29422 5.27351 6.86468 5.25784C6.77477 5.25393 6.68887 5.16189 6.60096 5.11098C6.55501 5.08552 6.51106 5.03852 6.4651 5.03852C5.3423 5.03461 4.2195 5.03461 3.0967 5.03852C3.04076 5.03852 2.96883 5.07965 2.93287 5.12469C2.73708 5.36946 2.50932 5.57312 2.23961 5.73565C2.21364 5.75132 2.19166 5.7709 2.16769 5.78656C2.16769 5.80027 2.16969 5.81202 2.17168 5.82573C2.36947 5.84531 2.56526 5.88252 2.76305 5.88447C3.92981 5.89035 5.09656 5.88643 6.26332 5.88643C8.2512 5.88643 10.2371 5.88643 12.225 5.88447C12.4307 5.88447 12.6385 5.84531 12.8443 5.82573V5.82769ZM3.03676 4.45106H6.55701V3.7833H3.03676V4.45106ZM11.9712 3.7833H8.45099V4.45302H11.9712V3.7833ZM8.14332 11.4243C8.14731 11.391 8.14931 11.3734 8.14931 11.3538C8.14931 11.0091 8.1533 10.6665 8.14931 10.3218C8.14332 10.0046 7.89957 9.74609 7.58191 9.71084C7.26026 9.67363 6.96058 9.8812 6.88266 10.1945C6.88066 10.2043 6.87667 10.2121 6.87667 10.2219C6.87667 10.6214 6.87667 11.0209 6.87667 11.4243H8.14531H8.14332ZM2.87693 11.4204H3.92981C3.92981 11.111 3.9338 10.8114 3.92981 10.5098C3.92581 10.22 3.70005 9.9987 3.41436 9.99282C3.12866 9.98891 2.88892 10.2024 2.87893 10.4902C2.86894 10.7957 2.87693 11.1012 2.87693 11.4184V11.4204ZM12.1351 11.4262C12.1351 11.1149 12.1391 10.8133 12.1351 10.5137C12.1311 10.2161 11.9013 9.99282 11.6096 9.99282C11.3179 9.99282 11.0882 10.2161 11.0822 10.5137C11.0762 10.7957 11.0822 11.0777 11.0822 11.3597C11.0822 11.3812 11.0922 11.4027 11.0982 11.4262H12.1351ZM7.90557 7.51763V6.4739H7.10442V7.51763H7.90557ZM7.84963 4.68604V3.77939H7.16436V4.68604H7.84963ZM2.98681 7.51567V6.46998H2.41942V7.51567H2.98681ZM3.59217 6.46803V7.51176H4.15956V6.46803H3.59217ZM5.32832 7.51763V6.4739H4.76092V7.51763H5.32832ZM6.50107 7.51763V6.4739H5.93367V7.51763H6.50107ZM9.08831 6.47194H8.51492V7.51372H9.08831V6.47194ZM10.2531 7.51763V6.4739H9.68567V7.51763H10.2531ZM11.4238 7.51763V6.4739H10.8564V7.51763H11.4238ZM12.5966 7.51763V6.4739H12.0292V7.51763H12.5966Z" fill="#410EAD"/>
<path d="M7.50793 1.18272C7.3461 1.18272 7.21624 1.06326 7.21224 0.906607C7.20825 0.747991 7.3481 0.608957 7.50793 0.612874C7.66376 0.614832 7.79562 0.746033 7.79562 0.900732C7.79562 1.05739 7.66975 1.18272 7.50793 1.18467V1.18272Z" fill="#410EAD"/>
</svg>
