<svg width="15" height="12" viewBox="0 0 15 12" fill="none" xmlns="http://www.w3.org/2000/svg">
<path d="M14.9952 11.7899C14.9095 11.9493 14.7762 12 14.5976 12C9.86429 11.9952 5.13095 11.9976 0.395238 11.9976C0.0928571 11.9976 0 11.9034 0 11.6016C0 10.4789 0 9.35375 0 8.23103C0 8.08857 0.042857 7.97509 0.133333 7.86886C0.392857 7.55981 0.645238 7.24593 0.895238 6.92963C0.935714 6.87651 0.964286 6.79925 0.966667 6.73165C0.97619 6.50469 0.966667 6.27531 0.971429 6.04835C0.971429 5.84554 1.09048 5.71033 1.25952 5.7055C1.43571 5.70309 1.55476 5.84071 1.55714 6.05318C1.55714 6.23668 1.55714 6.42018 1.55714 6.60127C1.55714 6.61092 1.5619 6.62058 1.56667 6.65197C1.80238 6.65197 2.04524 6.64955 2.2881 6.65197C2.46667 6.65438 2.59524 6.77511 2.6 6.93929C2.60476 7.10347 2.47857 7.23627 2.30476 7.24351C2.17857 7.24834 2.05238 7.24351 1.88571 7.24351C2.00952 7.39562 2.12381 7.51876 2.21667 7.6588C2.3119 7.79884 2.42381 7.84471 2.59286 7.8423C3.56429 7.83264 4.53571 7.83747 5.50714 7.83747H5.67619V7.24351C5.45238 7.24351 5.22857 7.24351 5.00476 7.24351C4.78333 7.24351 4.65952 7.13728 4.65476 6.95378C4.65238 6.76303 4.77857 6.65197 5.00714 6.64956C5.22619 6.64956 5.44524 6.64956 5.68571 6.64956C5.68571 6.38879 5.68571 6.13286 5.68571 5.87693C5.68571 5.57753 5.74524 5.50027 6.0381 5.44474C6.0381 4.91839 6.0381 4.38962 6.0381 3.86085C6.0381 3.58078 6.10238 3.5011 6.39048 3.45039C6.39048 3.40211 6.39048 3.34899 6.39048 3.29587C6.39048 2.8661 6.40238 2.43391 6.3881 2.00413C6.36667 1.37879 6.61905 0.946598 7.21191 0.726883C7.21191 0.589258 7.20952 0.451634 7.21191 0.314009C7.21667 0.125682 7.34286 -0.00469913 7.50952 0.00012979C7.67143 0.00495871 7.79048 0.13051 7.79524 0.314009C7.8 0.451634 7.79524 0.591673 7.79524 0.717224C7.91667 0.782415 8.03571 0.830704 8.13809 0.903138C8.45 1.12527 8.60952 1.43915 8.61429 1.82546C8.61905 2.36389 8.61429 2.90231 8.61429 3.44074C8.94762 3.54697 8.96667 3.57353 8.96667 3.9357C8.96667 4.44032 8.96667 4.94495 8.96667 5.44715C9.25952 5.50993 9.31905 5.58236 9.31905 5.87934C9.31905 6.13045 9.31905 6.38155 9.31905 6.64473H13.4476C13.4476 6.44433 13.4476 6.24875 13.4476 6.05318C13.4476 5.84312 13.5738 5.70309 13.7476 5.70791C13.919 5.71274 14.031 5.84795 14.0333 6.05318C14.0333 6.25117 14.0429 6.44915 14.031 6.64714C14.0238 6.79201 14.069 6.89824 14.1595 7.00448C14.4071 7.29663 14.6476 7.59844 14.8881 7.89542C14.9286 7.94371 14.9619 7.99682 15 8.04994V11.7924L14.9952 11.7899ZM2.52857 8.44108V11.3916H5.44048V8.44108H2.52857ZM9.55476 11.394H12.4643V8.4435H9.55476V11.394ZM8.95238 11.3988V8.44591H6.04286V11.394H6.62143C6.62143 11.0728 6.62143 10.7614 6.62143 10.4499C6.62143 10.2181 6.72857 10.0877 6.91667 10.0902C7.10238 10.0902 7.20476 10.2205 7.20714 10.4572C7.20714 10.73 7.20714 11.0004 7.20714 11.2732C7.20714 11.3143 7.21191 11.3578 7.21667 11.3964H7.8C7.8 11.1936 7.8 10.998 7.8 10.8C7.8 10.6527 7.79286 10.503 7.80714 10.3558C7.82143 10.1892 7.94762 10.0877 8.10476 10.0926C8.2619 10.0974 8.37381 10.2109 8.38333 10.3775C8.38809 10.4861 8.38333 10.5948 8.38571 10.7034C8.38571 10.9352 8.38571 11.1646 8.38571 11.3988H8.95476H8.95238ZM1.92381 11.3988V8.44833H0.595238V11.3988H1.92381ZM13.0738 8.44108V11.3916H14.4024V8.44108H13.0738ZM6.27381 7.45116C6.62143 7.2073 6.94524 6.97792 7.26905 6.75096C7.45952 6.61575 7.5381 6.61817 7.73095 6.75096C8.02381 6.95619 8.31429 7.16384 8.60714 7.36906C8.64048 7.39321 8.67857 7.41252 8.71905 7.43667V6.07008H6.27619V7.45116H6.27381ZM9.31905 7.83988C10.3595 7.83988 11.3833 7.83506 12.4071 7.84471C12.5786 7.84471 12.6881 7.79884 12.7833 7.6588C12.8762 7.52118 12.9905 7.39562 13.1048 7.25558H9.31905V7.83988ZM8.36429 5.45923V4.0685H6.62619V5.4544H7.20476C7.20476 5.3385 7.20476 5.22985 7.20476 5.1212C7.20952 4.92563 7.32381 4.80249 7.49762 4.80249C7.67143 4.80249 7.78571 4.92563 7.79048 5.1212C7.79286 5.23227 7.79048 5.34333 7.79048 5.45923H8.36429ZM6.98095 2.40976V3.45281H8.01429V2.40976H6.98095ZM8.01905 1.80373C7.98095 1.48261 7.76667 1.28704 7.48333 1.29187C7.20476 1.29911 6.99286 1.50917 6.97857 1.80373H8.01905ZM8.23333 7.83023C8.07143 7.71433 7.9381 7.62017 7.80238 7.526C7.59762 7.38275 7.39444 7.38275 7.19286 7.526C7.05714 7.62258 6.92143 7.71916 6.75952 7.83264H8.23333V7.83023ZM1.59762 7.83023C1.47381 7.68053 1.36905 7.55256 1.25714 7.41735C1.14286 7.55739 1.0381 7.68536 0.921429 7.83023H1.6H1.59762ZM14.0762 7.83023C13.95 7.67812 13.8452 7.54773 13.7357 7.41252C13.6167 7.55981 13.5143 7.68536 13.3976 7.83023H14.0762Z" fill="#410EAD"/>
<path d="M3.33329 6.95623C3.33091 6.79204 3.45233 6.65925 3.61186 6.65442C3.77376 6.64959 3.91424 6.78722 3.91424 6.9514C3.91424 7.11075 3.78091 7.24355 3.62376 7.24596C3.46424 7.24596 3.33567 7.118 3.33329 6.95623Z" fill="#410EAD"/>
<path d="M4.5666 9.59795C4.40469 9.59795 4.2785 9.46998 4.27612 9.30821C4.27612 9.14886 4.40708 9.01365 4.56184 9.00882C4.72374 9.00641 4.86184 9.14644 4.85946 9.31063C4.85708 9.4724 4.7285 9.59795 4.5666 9.59795Z" fill="#410EAD"/>
<path d="M3.68786 10.5104C3.69024 10.6746 3.55452 10.8122 3.39262 10.8098C3.23786 10.8098 3.1069 10.677 3.10452 10.5177C3.10214 10.3535 3.23786 10.2159 3.39976 10.2183C3.55452 10.2183 3.68548 10.3511 3.68786 10.5104Z" fill="#410EAD"/>
<path d="M4.57618 10.8098C4.41428 10.8123 4.27856 10.677 4.27856 10.5129C4.27856 10.3559 4.40952 10.2207 4.56428 10.2183C4.72618 10.2159 4.8619 10.3511 4.8619 10.5153C4.8619 10.6722 4.73095 10.8074 4.57618 10.8098Z" fill="#410EAD"/>
<path d="M3.39045 9.59792C3.22855 9.5955 3.10474 9.46512 3.10474 9.30335C3.10474 9.144 3.24045 9.0112 3.39521 9.00879C3.55712 9.00879 3.69283 9.15124 3.68807 9.31542C3.68093 9.47719 3.55236 9.60033 3.39045 9.59792Z" fill="#410EAD"/>
<path d="M10.4238 9.59795C10.2619 9.59795 10.1357 9.46757 10.1333 9.3058C10.1333 9.14644 10.2643 9.01123 10.4214 9.00882C10.5833 9.00641 10.7214 9.14644 10.719 9.31063C10.7166 9.4724 10.5857 9.59795 10.4238 9.59795Z" fill="#410EAD"/>
<path d="M10.426 10.2183C10.5879 10.2183 10.7212 10.3583 10.7189 10.5201C10.7141 10.677 10.5831 10.8098 10.4284 10.8098C10.2665 10.8098 10.1331 10.6698 10.1355 10.508C10.1403 10.3511 10.2712 10.2183 10.426 10.2183Z" fill="#410EAD"/>
<path d="M11.6095 10.2184C11.7714 10.2256 11.9 10.3705 11.8905 10.5323C11.8809 10.6892 11.7429 10.8148 11.5881 10.8099C11.4262 10.8027 11.2976 10.6578 11.3071 10.4961C11.3167 10.3391 11.4548 10.2136 11.6095 10.2184Z" fill="#410EAD"/>
<path d="M11.6022 9.59795C11.4403 9.59795 11.3118 9.47481 11.307 9.31304C11.3022 9.14886 11.4403 9.0064 11.6022 9.00882C11.7594 9.01123 11.8903 9.14644 11.8903 9.3058C11.8903 9.46757 11.7641 9.59553 11.6022 9.59795Z" fill="#410EAD"/>
<path d="M6.91203 9.59755C6.75012 9.59755 6.62155 9.472 6.61917 9.31023C6.61679 9.14604 6.75727 9.00359 6.91679 9.00842C7.07393 9.01325 7.20488 9.15087 7.2025 9.30781C7.2025 9.46958 7.07155 9.59755 6.91203 9.59755Z" fill="#410EAD"/>
<path d="M8.38088 9.30284C8.38088 9.46702 8.25945 9.59499 8.09755 9.5974C7.93088 9.5974 7.79516 9.46461 7.79993 9.29801C7.80469 9.14107 7.9404 9.00586 8.09516 9.00586C8.25231 9.00586 8.38088 9.13866 8.38326 9.30042L8.38088 9.30284Z" fill="#410EAD"/>
</svg>
