<svg width="15" height="9" viewBox="0 0 15 9" fill="none" xmlns="http://www.w3.org/2000/svg">
<path d="M15 8.6543C14.8998 8.91473 14.7086 9 14.4353 9C9.81105 8.99539 5.18904 8.9977 0.564759 8.99539C0.496453 8.99539 0.428147 8.99539 0.359842 8.98387C0.148095 8.94699 -0.00445441 8.75801 9.92936e-05 8.54368C0.00237615 8.32243 0.166309 8.13345 0.387164 8.11502C0.539713 8.10119 0.694539 8.11271 0.842534 8.11271C0.742353 7.84768 0.62851 7.60569 0.560205 7.35218C0.398548 6.74605 0.457746 6.13302 0.571589 5.5292C1.09071 2.78206 3.15126 0.70096 5.86527 0.170891C7.49322 -0.147151 9.08929 -0.041137 10.608 0.657172C12.6344 1.59055 13.9208 3.16232 14.3989 5.37709C14.5378 6.0247 14.6107 6.68844 14.4399 7.34526C14.3739 7.59877 14.26 7.84076 14.1621 8.10349C14.4672 8.12193 14.8452 8.01592 15 8.44458V8.652V8.6543ZM7.61389 0.89916C6.86936 0.903769 6.25006 0.970604 5.64442 1.14576C3.77284 1.68735 2.43178 2.83967 1.71001 4.6857C1.42085 5.42319 1.28652 6.19524 1.37987 6.99265C1.4459 7.57573 1.80564 7.95139 2.37486 8.06431C2.86438 8.16341 3.33341 8.09197 3.75691 7.83154C4.06428 7.64487 4.35116 7.41901 4.64032 7.20237C5.09342 6.86129 5.52602 6.48563 5.99733 6.1745C6.61663 5.76888 7.30652 5.62369 8.04194 5.7781C8.63392 5.90255 9.13711 6.21138 9.60614 6.58242C10.0205 6.91199 10.4235 7.25538 10.8447 7.57573C11.3252 7.94217 11.8557 8.1565 12.4795 8.08736C13.0761 8.02052 13.4882 7.68865 13.5952 7.09175C13.6476 6.80136 13.6498 6.49024 13.6225 6.19524C13.4859 4.5866 12.7823 3.27295 11.5483 2.2589C10.3712 1.29095 8.99366 0.901464 7.61162 0.892246L7.61389 0.89916ZM10.0456 8.09888C9.85432 7.93986 9.69266 7.79236 9.51962 7.661C9.18037 7.40288 8.8525 7.12863 8.49048 6.90738C7.84385 6.51098 7.16991 6.51328 6.521 6.90047C6.2068 7.08714 5.91991 7.31991 5.62848 7.54116C5.40535 7.7117 5.19588 7.89838 4.95681 8.09888H10.0478H10.0456Z" fill="#410EAD"/>
<path d="M2.83024 6.61252C2.55019 6.61252 2.34983 6.37745 2.39309 6.08937C2.63443 4.46689 3.53379 3.32379 4.9295 2.55173C5.55336 2.20834 6.22503 2.01475 6.93313 1.94561C7.21774 1.91795 7.43176 2.07006 7.46592 2.32588C7.50007 2.57478 7.32475 2.79142 7.03787 2.82368C6.39579 2.89743 5.7856 3.07258 5.22549 3.40215C4.22368 3.98983 3.5429 4.82412 3.297 5.99027C3.27878 6.07784 3.26968 6.16542 3.25146 6.253C3.20592 6.46733 3.03516 6.61252 2.82797 6.61252H2.83024Z" fill="#410EAD"/>
</svg>
