<svg width="18" height="15" viewBox="0 0 18 15" fill="none" xmlns="http://www.w3.org/2000/svg">
<path d="M0.28194 5.93457H0V5.38051C0.0882593 5.37574 0.174067 5.37096 0.28194 5.36618C0.29665 5.28499 0.308908 5.19901 0.328521 5.11543C0.426587 4.67123 0.627622 4.27957 0.978208 3.97389C1.1204 3.8497 1.18169 3.72552 1.15718 3.5488C1.14982 3.50342 1.15718 3.45805 1.15718 3.40073H1.7137C1.7137 3.40073 1.73332 3.41506 1.73332 3.42223C1.68919 3.70403 1.82157 3.89508 2.02506 4.08852C2.34378 4.39182 2.51539 4.78347 2.57913 5.21812C2.58649 5.26349 2.5963 5.30887 2.60855 5.36618C2.69926 5.37096 2.78752 5.37335 2.88804 5.37812V5.93218C2.80469 5.93695 2.72133 5.93934 2.62326 5.94412V6.7752H4.35168C4.35168 6.62235 4.35168 6.46951 4.35168 6.31906C4.35168 6.0683 4.3909 6.01576 4.63852 5.92262V5.1011H5.21956V5.9274H6.15854C6.28112 5.45455 6.38899 4.97214 6.53364 4.50167C6.67093 4.0527 6.67093 3.59895 6.68074 3.13803C6.70771 2.0562 7.22991 1.2705 8.21793 0.778538C8.30373 0.735551 8.39444 0.687789 8.48761 0.67346C8.67883 0.64719 8.73767 0.554052 8.71316 0.377328C8.69845 0.257921 8.71071 0.133737 8.71071 0H9.28194V0.597039C9.39717 0.635249 9.50014 0.663907 9.5982 0.704505C10.6451 1.1296 11.2898 1.89858 11.2996 2.99713C11.307 4.01688 11.6257 4.95303 11.8366 5.92979H12.7682V5.1011H13.3517V5.91546C13.8494 6.0683 13.5625 6.47668 13.6728 6.7752H15.3816V5.94412H15.1169V5.38051C15.2027 5.37574 15.2909 5.37096 15.3964 5.3638C15.4111 5.28499 15.4209 5.20618 15.438 5.12737C15.5336 4.68317 15.7322 4.28674 16.0804 3.98344C16.2275 3.85448 16.2937 3.72552 16.2691 3.54402C16.2618 3.49865 16.2691 3.45327 16.2691 3.39834H16.8232C16.8232 3.39834 16.8453 3.41745 16.8428 3.42461C16.7987 3.69925 16.9237 3.88792 17.1248 4.07658C17.4508 4.38226 17.6249 4.78109 17.6886 5.22051C17.696 5.26588 17.7083 5.31126 17.7181 5.36618C17.8112 5.37096 17.8995 5.37335 18 5.37812V5.93457H17.7205V6.15189C17.7205 8.96036 17.7205 11.7664 17.7205 14.5749C17.7205 14.9236 17.6421 15 17.2841 15C11.763 15 6.2419 15 0.718333 15C0.360393 15 0.28194 14.9236 0.28194 14.5749C0.28194 11.7736 0.28194 8.9723 0.28194 6.1686V5.93457ZM6.10706 7.64687V14.4245H6.67584C6.67584 14.3528 6.67584 14.2907 6.67584 14.2262C6.67584 12.9414 6.66848 11.6542 6.68074 10.3694C6.68319 10.1138 6.73223 9.85114 6.81313 9.60993C7.09017 8.77408 8.06347 8.10062 9.36775 8.27018C10.6843 8.43974 11.3732 9.41649 11.334 10.5724C11.2923 11.7927 11.3242 13.0131 11.3242 14.2334V14.4197H11.8954V7.64687H6.1046H6.10706ZM7.83792 14.4268C7.83792 13.7773 7.83792 13.1468 7.83792 12.5163C7.83792 11.8309 8.33315 11.3222 8.99755 11.3222C9.66195 11.3222 10.1596 11.8285 10.1621 12.5115C10.1621 13.0895 10.1621 13.6674 10.1621 14.2453C10.1621 14.3074 10.1621 14.3695 10.1621 14.4268H10.726C10.7333 14.4053 10.7407 14.3958 10.7407 14.3839C10.7407 12.9987 10.7505 11.6136 10.7358 10.2261C10.7284 9.64098 10.3092 9.12275 9.73549 8.93886C9.35059 8.81468 8.96323 8.75975 8.54645 8.86005C7.71288 9.05827 7.25443 9.58367 7.25443 10.4147C7.25443 11.6876 7.25443 12.9629 7.25443 14.2358V14.4268H7.83547H7.83792ZM2.62081 8.49706V14.4245H3.18959C3.18959 14.3528 3.18959 14.2883 3.18959 14.2262C3.18959 13.1993 3.18959 12.1748 3.18959 11.1479C3.18959 10.8374 3.27785 10.7539 3.60147 10.7539C3.91528 10.7539 4.23154 10.7539 4.54536 10.7539C4.83955 10.7539 4.93272 10.847 4.93272 11.136C4.93272 12.1676 4.93272 13.1993 4.93272 14.2334C4.93272 14.2955 4.93272 14.36 4.93272 14.4221H5.50395V8.49706H2.62081ZM15.3865 8.50183H12.4985V14.4245H13.0697V14.2215C13.0697 13.1826 13.0697 12.1462 13.0697 11.1073C13.0697 10.8542 13.1703 10.7562 13.4326 10.7539C13.7586 10.7539 14.0872 10.7539 14.4132 10.7539C14.7221 10.7539 14.8129 10.8422 14.8129 11.1431C14.8129 12.1748 14.8129 13.2065 14.8129 14.2406V14.4268H15.3841V8.50183H15.3865ZM15.3865 7.35552C15.3081 7.35552 15.2419 7.35552 15.1757 7.35552C14.5898 7.35552 14.0014 7.35552 13.4154 7.35552C13.1776 7.35552 13.0746 7.25044 13.0697 7.02118C13.0697 6.854 13.0697 6.68444 13.0697 6.51966H4.93026C4.93026 6.69639 4.93026 6.86117 4.93026 7.02595C4.92536 7.24566 4.82239 7.35313 4.59684 7.35313C4.21683 7.35552 3.83438 7.35313 3.45437 7.35313C3.17734 7.35313 2.9003 7.35313 2.61836 7.35313V7.90718H5.51376C5.51376 7.73523 5.51376 7.57761 5.51376 7.42C5.51621 7.1764 5.61673 7.07133 5.86434 7.07133C7.95805 7.07133 10.0518 7.07133 12.1455 7.07133C12.3808 7.07133 12.4862 7.1764 12.4887 7.40806C12.4887 7.57523 12.4887 7.74479 12.4887 7.91196H15.3865V7.35552ZM0.867883 14.4197H2.01525V8.50183H0.867883V14.4197ZM17.1248 14.4292V8.49944H15.9896V14.4292H17.1248ZM8.42141 14.4221H9.58104C9.58104 13.7438 9.5884 13.0799 9.57859 12.4136C9.57369 12.1175 9.304 11.8858 9.00245 11.8858C8.69109 11.8858 8.42631 12.1199 8.42386 12.428C8.41651 13.0871 8.42141 13.7486 8.42141 14.4221ZM2.01525 7.91435V5.95367H0.875239V7.91435H2.01525ZM17.1321 5.94889H15.9872V7.90957H17.1321V5.94889ZM8.42877 5.9274H9.56878V4.25092H8.42877V5.9274ZM9.57859 3.66821C9.61291 2.84429 9.4413 2.08725 9 1.36364C8.56116 2.09441 8.38464 2.84907 8.42631 3.66821H9.57859ZM3.78289 11.327V14.4197H4.34187V11.327H3.78289ZM13.6606 11.327V14.4221H14.2196V11.327H13.6606ZM7.83302 4.24853H7.19314C7.04849 4.80974 6.90629 5.36618 6.7641 5.92979H7.83302V4.24853ZM11.2433 5.93218C11.0986 5.3638 10.954 4.80736 10.8118 4.2533H10.1645V5.93218H11.2433ZM8.33315 1.36602C7.40643 1.89619 7.15146 2.78937 7.2863 3.66582H7.84037C7.81095 2.87056 7.9605 2.11829 8.33315 1.36602ZM10.726 3.67059C10.8657 2.67235 10.4244 1.69559 9.68156 1.38991C10.0518 2.11829 10.1866 2.88012 10.1645 3.67059H10.726ZM1.44402 4.31301C1.1155 4.60914 0.924272 4.94587 0.880142 5.36618H2.01035C1.96132 4.94348 1.77499 4.60436 1.44402 4.31301ZM16.5535 4.31301C16.2275 4.60914 16.0338 4.94587 15.9921 5.36618H17.1223C17.0733 4.94348 16.887 4.60436 16.5535 4.31301Z" fill="#410EAD"/>
</svg>
