<svg width="7" height="15" viewBox="0 0 7 15" fill="none" xmlns="http://www.w3.org/2000/svg">
<path d="M0.132382 14.9944C0.0448432 14.9175 -0.0339417 14.8388 0.01508 14.7001C0.0641017 14.5652 0.169148 14.5502 0.284699 14.5539C0.35298 14.5558 0.419509 14.5539 0.503547 14.5539C0.503547 14.4171 0.503547 14.2915 0.503547 14.1659C0.507048 13.8492 0.668119 13.6786 0.960499 13.6767C1.04629 13.6767 1.13208 13.6767 1.24062 13.6767C1.24062 13.6018 1.24062 13.5343 1.24062 13.4687C1.24062 13.1126 1.24062 12.7565 1.24062 12.4004C1.24062 12.108 1.32466 11.9936 1.57852 11.8868C1.61354 11.8718 1.6468 11.795 1.64855 11.7462C1.65381 11.1071 1.66256 10.4679 1.64855 9.82881C1.64155 9.5233 1.71508 9.29839 1.97945 9.15407C2.02672 9.12783 2.05999 9.02849 2.05999 8.96289C2.06524 8.25066 2.07049 7.53842 2.05999 6.82619C2.05648 6.56941 2.13002 6.37823 2.34711 6.26203C2.45216 6.20767 2.47842 6.1252 2.47667 6.00337C2.47142 5.42234 2.48017 4.84318 2.47142 4.26215C2.46792 4.04099 2.51694 3.85543 2.68501 3.72048C2.84784 3.58928 2.90036 3.42247 2.88985 3.20317C2.87235 2.86205 2.88985 2.52093 2.88285 2.17981C2.87935 1.98113 2.92837 1.81057 3.07894 1.69062C3.26102 1.5463 3.31879 1.36074 3.30129 1.12083C3.28203 0.858428 3.30129 0.594152 3.29603 0.331751C3.29253 0.198676 3.31529 0.0824691 3.42034 0H3.58491C3.68996 0.0843434 3.71272 0.198675 3.70922 0.333625C3.70397 0.665375 3.70221 0.997126 3.71097 1.32888C3.71272 1.40197 3.74423 1.49944 3.79501 1.54255C4.06463 1.76371 4.15391 2.04861 4.1224 2.40472C4.10314 2.62776 4.1189 2.85268 4.1189 3.0776C4.1189 3.26503 4.04712 3.36624 3.91756 3.36811C3.7845 3.37186 3.70922 3.2669 3.70922 3.07197C3.70922 2.81332 3.70922 2.55467 3.70922 2.29601C3.70922 2.12733 3.64035 1.988 3.50263 1.87805C3.36431 1.97738 3.28728 2.09734 3.29428 2.29789C3.31004 2.69336 3.29428 3.08884 3.30129 3.48432C3.30304 3.63239 3.27152 3.75609 3.15772 3.84231C2.93187 4.01287 2.86885 4.24153 2.88285 4.53392C2.90561 5.01562 2.89336 5.49919 2.88635 5.98276C2.8846 6.10459 2.92137 6.16081 3.02817 6.18331C3.1122 6.20205 3.19274 6.23766 3.29954 6.27327C3.29954 6.11583 3.29954 5.97151 3.29954 5.82906C3.29954 5.65288 3.30304 5.4767 3.29954 5.30239C3.29603 5.17119 3.3363 5.06622 3.44835 5.01562C3.67595 4.91253 3.74423 4.73447 3.71272 4.48144C3.69696 4.3465 3.70747 4.2078 3.71097 4.07097C3.71447 3.90603 3.788 3.81232 3.91056 3.81045C4.03836 3.8067 4.11715 3.90604 4.1189 4.0766C4.1224 4.28089 4.12415 4.48707 4.1189 4.69137C4.11715 4.78321 4.13466 4.85068 4.21694 4.89379C4.46555 5.02312 4.54084 5.24053 4.53558 5.52918C4.52333 6.28077 4.53383 7.03236 4.52858 7.78396C4.52858 7.88892 4.55659 7.95077 4.64063 8.00887C4.92776 8.20755 5.0223 8.49432 4.93126 8.85418C4.90325 8.96289 4.82796 9.03411 4.73167 9.01162C4.66164 8.99475 4.59161 8.92165 4.54609 8.85418C4.51633 8.81107 4.52333 8.7286 4.53208 8.66862C4.56009 8.49619 4.48656 8.39123 4.3465 8.3275C4.31324 8.31251 4.26771 8.30314 4.23445 8.31438C4.08213 8.36311 3.92982 8.41559 3.781 8.47557C3.75124 8.48682 3.71272 8.53368 3.71272 8.56554C3.70922 9.27777 3.70922 9.99 3.70922 10.7229C3.88605 10.7004 4.05062 10.6816 4.21519 10.6554C4.53033 10.6066 4.52858 10.6066 4.52858 10.2674C4.52858 10.0818 4.52683 9.89629 4.52858 9.71073C4.53208 9.55704 4.60912 9.46708 4.72642 9.46333C4.85072 9.45958 4.93301 9.55329 4.93651 9.71448C4.94001 9.98813 4.94001 10.2618 4.93651 10.5335C4.93651 10.6179 4.95752 10.6666 5.03631 10.6947C5.26216 10.7753 5.35145 10.9515 5.3497 11.2008C5.34619 11.9618 5.3497 12.7227 5.3497 13.4856C5.3497 13.5437 5.3497 13.6018 5.3497 13.6805C5.57555 13.6805 5.79264 13.6805 6.00974 13.6805C6.34063 13.6805 6.4947 13.8454 6.49645 14.1997C6.49645 14.3159 6.49645 14.4321 6.49645 14.5595C6.58049 14.5595 6.64702 14.5614 6.7153 14.5595C6.83085 14.5558 6.9359 14.5689 6.98492 14.7057C7.03394 14.8444 6.95516 14.9232 6.86762 15H0.132382V14.9944ZM3.26627 9.22716C3.27678 9.20655 3.28553 9.19905 3.28553 9.19155C3.28728 8.39685 3.28903 7.60215 3.28728 6.80745C3.28728 6.77558 3.25227 6.72685 3.2225 6.71561C3.06843 6.65563 2.91261 6.5994 2.7568 6.55067C2.66225 6.52068 2.47317 6.67062 2.47142 6.77371C2.46967 7.50094 2.47142 8.22629 2.47142 8.95352C2.47142 8.98538 2.50118 9.04161 2.52569 9.04723C2.77255 9.11283 3.01941 9.16906 3.26277 9.22716H3.26627ZM2.46967 13.6711C2.46967 13.2344 2.46967 12.8089 2.46792 12.3854C2.46792 12.3591 2.4329 12.3085 2.41189 12.3085C2.21756 12.2973 2.02147 12.2916 1.82538 12.2879C1.69057 12.286 1.64155 12.3516 1.6468 12.5034C1.65906 12.8389 1.6503 13.1763 1.6503 13.5137C1.6503 13.5643 1.65556 13.6168 1.65731 13.6692H2.46967V13.6711ZM3.70221 8.03136C3.81251 7.99388 3.89305 7.95639 3.97709 7.93765C4.08739 7.91328 4.11715 7.85143 4.1154 7.73335C4.11015 6.98738 4.1119 6.23954 4.1119 5.49357C4.1119 5.36986 3.99635 5.21429 3.90706 5.21617C3.81602 5.21617 3.70221 5.37174 3.70221 5.49544C3.70221 6.28639 3.70221 7.07547 3.70221 7.86643V8.03136ZM4.53383 11.049V13.6674H4.93301C4.93301 13.5999 4.93301 13.5418 4.93301 13.4837C4.93301 12.7565 4.93301 12.0292 4.93301 11.3039C4.93301 11.1221 4.84197 11.0265 4.66864 11.0302C4.62838 11.0302 4.58811 11.0415 4.53383 11.049ZM4.10139 13.6711V11.1108C3.96483 11.1296 3.84053 11.1483 3.71447 11.1671V13.673H4.10139V13.6711ZM2.45916 11.8493C2.46266 11.8324 2.46967 11.8193 2.46967 11.8043C2.46967 11.064 2.46967 10.3236 2.47317 9.58141C2.47317 9.4727 2.40839 9.46333 2.34186 9.45958C2.22456 9.45021 2.06349 9.62452 2.06174 9.75197C2.06174 10.3274 2.06174 10.9028 2.06174 11.4763C2.06174 11.7425 2.18663 11.8699 2.4364 11.8587C2.4364 11.8587 2.44516 11.8549 2.46091 11.8474L2.45916 11.8493ZM3.26102 11.913C3.27678 11.8943 3.28203 11.8905 3.28203 11.8868C3.28553 11.1764 3.28903 10.4661 3.28903 9.75572C3.28903 9.7276 3.25752 9.68075 3.23301 9.67325C3.12446 9.64138 3.01416 9.62077 2.89161 9.59265V11.8868C3.01941 11.8962 3.14197 11.9055 3.26102 11.913ZM0.916729 14.5427H2.87235V14.1266H0.916729V14.5427ZM6.07627 14.1266H4.12065V14.5427H6.07627V14.1266ZM3.28028 13.6711V12.3572C3.14547 12.3479 3.02116 12.3385 2.89161 12.331V13.673H3.28028V13.6711ZM3.30129 14.121V14.5464H3.68821V14.121H3.30129Z" fill="#410EAD"/>
</svg>
