<svg width="9" height="15" viewBox="0 0 9 15" fill="none" xmlns="http://www.w3.org/2000/svg">
<path d="M5.81835 6.15453C5.7508 5.38379 5.69924 4.55214 5.59791 3.72811C5.55169 3.35702 5.56236 3.09439 5.95701 2.98782C6.37299 2.87554 6.54898 2.58437 6.58987 2.11621C6.64142 1.51104 6.76942 0.913474 6.88141 0.31591C6.90274 0.201725 6.99874 0.104669 7.05918 0C7.11962 0.104669 7.21562 0.199822 7.23517 0.312103C7.3525 0.949632 7.46805 1.58906 7.55338 2.2323C7.5996 2.58818 7.7276 2.84509 8.06358 2.93263C8.52045 3.05252 8.56845 3.35511 8.52045 3.81185C8.16846 7.1289 8.14002 10.4402 8.76755 13.7307C8.82266 14.0218 8.89732 14.3092 8.97198 14.5965C9.03954 14.8611 8.99865 15 8.69644 15C6.07434 14.9924 3.45046 14.9924 0.828352 15C0.599029 15 0.513699 14.8972 0.483478 14.6765C0.0959401 11.8542 -0.199158 9.02626 0.167048 6.17166C0.289709 5.21441 0.488811 4.27239 0.935013 3.42362C1.15545 3.00495 1.43099 2.59769 1.75453 2.26465C2.54383 1.45395 3.34735 1.44253 4.12776 2.25514C4.49219 2.63385 4.83173 3.0982 5.02727 3.593C5.3597 4.43035 5.56947 5.32479 5.81835 6.15643V6.15453ZM5.10549 14.6555C5.17482 14.1379 5.24771 13.6564 5.30282 13.1712C5.57836 10.8094 5.74724 8.44392 5.41481 6.0727C5.24949 4.8966 4.98105 3.74334 4.23086 2.82035C3.30646 1.68231 2.58649 1.68802 1.65676 2.82987C1.08434 3.5321 0.805241 4.39609 0.627472 5.29244C0.0106105 8.41728 0.378594 11.5231 0.785687 14.6422H1.33855C1.33322 14.5509 1.33144 14.4843 1.32433 14.4177C1.16256 12.5793 1.05234 10.7371 1.23367 8.89305C1.32433 7.97386 1.45055 7.05658 1.97141 6.27633C2.46561 5.53603 3.36868 5.49226 3.87177 6.22494C4.11887 6.58653 4.30731 7.02614 4.41752 7.46194C4.86017 9.22989 4.77484 11.0378 4.69129 12.8419C4.66285 13.4433 4.60774 14.0428 4.56329 14.6651C4.70551 14.6651 4.79439 14.6651 4.8815 14.6651C4.94372 14.6651 5.00594 14.6594 5.10727 14.6536L5.10549 14.6555ZM4.20064 14.6479C4.22198 14.5927 4.24686 14.5566 4.25042 14.5185C4.43708 12.5717 4.54196 10.621 4.33575 8.67039C4.25575 7.91677 4.12776 7.16506 3.70822 6.51802C3.29224 5.87858 2.59894 5.84623 2.2114 6.5085C1.96786 6.92337 1.79897 7.41056 1.69587 7.89013C1.38122 9.34408 1.43099 10.8285 1.48432 12.3072C1.51277 13.0874 1.59454 13.8677 1.65143 14.6479H4.20064ZM6.90808 10.8684C6.66809 11.0207 6.49387 11.1082 6.3481 11.2319C6.20944 11.348 6.02278 11.4869 5.99256 11.6449C5.88412 12.1949 5.83613 12.7582 5.75613 13.3767C6.12056 13.1673 6.45299 12.9866 6.77475 12.7867C6.83697 12.7487 6.90097 12.6421 6.90097 12.5679C6.91163 12.0331 6.9063 11.4964 6.9063 10.8684H6.90808ZM8.36223 13.3386C8.28935 12.762 8.22357 12.2006 8.14713 11.6411C8.13469 11.5573 8.0938 11.4489 8.03336 11.4051C7.78626 11.2319 7.52672 11.0778 7.25295 10.9065C7.09296 12.6364 7.14629 12.7582 8.2929 13.3367C8.30357 13.3424 8.31779 13.3367 8.36223 13.3367V13.3386ZM6.91519 8.52575C6.87608 8.50672 6.83697 8.48769 6.79964 8.46676C6.58276 8.70084 6.23255 8.90256 6.17567 9.1728C6.05656 9.75133 6.08856 10.3679 6.05656 11.0302C6.31077 10.8684 6.52054 10.7485 6.71609 10.6039C6.79964 10.543 6.90452 10.4326 6.90808 10.3413C6.92585 9.73611 6.91697 9.13093 6.91697 8.52575H6.91519ZM6.88852 13.0836C6.29477 13.5308 5.43081 13.5898 5.5197 14.6479H6.88852V13.0836ZM7.24228 14.6441H8.60933C8.69466 13.5727 7.82181 13.5403 7.24228 13.0988V14.6441ZM8.07069 11.0435C8.04403 10.5697 7.97114 10.1738 8.01381 9.7913C8.08847 9.12332 7.76315 8.78077 7.21917 8.49911C7.21917 9.14806 7.21384 9.76465 7.22628 10.3793C7.22628 10.4517 7.30628 10.543 7.37206 10.5906C7.58005 10.739 7.79693 10.8684 8.07069 11.0435ZM6.91697 4.10492C6.63253 4.35042 6.42277 4.5217 6.22366 4.70629C6.14544 4.78051 6.037 4.88899 6.03878 4.98034C6.05123 5.44278 6.09389 5.90523 6.13122 6.42667C6.31433 6.27823 6.45299 6.18688 6.56854 6.06508C6.69653 5.93187 6.88497 5.78153 6.90097 5.62357C6.94541 5.15922 6.91697 4.68726 6.91697 4.10302V4.10492ZM6.13478 8.51434L6.24322 8.57904C6.46365 8.3697 6.83164 8.19081 6.87608 7.94532C6.97385 7.41246 6.9063 6.84344 6.9063 6.21162C6.69831 6.38099 6.55254 6.47234 6.4441 6.59604C6.32499 6.73306 6.16322 6.89482 6.149 7.05659C6.10989 7.53997 6.13478 8.02715 6.13478 8.51434ZM7.98181 8.60188C7.98181 8.19272 7.93203 7.84636 7.99247 7.52093C8.12047 6.83773 7.72582 6.56369 7.22095 6.2611C7.22095 6.65884 7.26717 7.01472 7.21206 7.34966C7.10362 8.00812 7.47516 8.29358 7.98358 8.59998L7.98181 8.60188ZM7.97647 6.39241C8.08314 5.5189 8.33201 4.62256 7.26895 4.23624C7.03429 5.40853 7.16407 5.8291 7.97647 6.39241ZM6.8583 2.88886C6.55432 3.04301 6.28055 3.17432 6.01567 3.32466C5.95523 3.35892 5.89123 3.46549 5.89657 3.534C5.91612 3.82327 5.96234 4.11063 5.99967 4.41512C6.89563 3.85752 6.9863 3.69957 6.8583 2.88886ZM8.11691 4.47412C8.1578 4.12395 8.19869 3.8461 8.21824 3.57016C8.22357 3.49404 8.18446 3.37224 8.12936 3.34179C7.85026 3.18193 7.55872 3.04301 7.28139 2.90218C6.97741 3.79472 7.63871 4.0288 8.11691 4.47602V4.47412ZM7.28673 2.46067C7.21562 2.05151 7.14984 1.6747 7.08407 1.29789C7.06452 1.2998 7.04496 1.3017 7.02541 1.3036C6.96496 1.68612 6.90452 2.06864 6.8423 2.46067H7.28673Z" fill="#410EAD"/>
<path d="M2.97044 4.56939C2.42469 4.5751 2.07804 4.27822 2.07448 3.80626C2.07093 3.25056 2.5829 2.45698 2.94733 2.45508C3.31176 2.45508 3.8184 3.23724 3.8184 3.80435C3.8184 4.27822 3.5002 4.56558 2.97044 4.56939ZM2.89756 4.23825C3.32954 4.23825 3.52153 4.07269 3.51442 3.75678C3.50553 3.43135 3.1571 2.81286 2.97044 2.79382C2.76601 2.77289 2.36602 3.44848 2.38558 3.79865C2.40691 4.18307 2.6789 4.21732 2.89933 4.24016L2.89756 4.23825Z" fill="#410EAD"/>
</svg>
