<svg width="6" height="15" viewBox="0 0 6 15" fill="none" xmlns="http://www.w3.org/2000/svg">
<path d="M3.06817 0C3.19298 0.0803238 3.24543 0.198007 3.24001 0.349315C3.23639 0.429639 3.24543 0.509963 3.24001 0.590286C3.22915 0.73599 3.25629 0.844334 3.38471 0.943338C3.52037 1.04795 3.57283 1.22354 3.58006 1.40286C3.5873 1.57098 3.58006 1.7391 3.58549 1.90909C3.58549 1.94832 3.60538 2.00249 3.63252 2.02491C3.83148 2.18182 3.91288 2.39477 3.92554 2.64508C3.92554 2.65816 3.92735 2.67123 3.92554 2.68244C3.86947 2.99253 4.00151 3.24097 4.16611 3.48008C4.26378 3.62391 4.35422 3.77335 4.44285 3.92279C4.56043 4.11893 4.48446 4.4533 4.17334 4.41407C4.09737 4.40473 4.0196 4.41407 3.93458 4.41407V5.29577C4.01598 5.29577 4.10099 5.29577 4.1842 5.29577C4.40125 5.2995 4.4935 5.37983 4.49893 5.60399C4.50616 5.88232 4.50435 6.16065 4.49531 6.43711C4.49169 6.5193 4.51701 6.5604 4.57851 6.59776C5.30927 7.04608 5.7488 7.70548 5.92064 8.56102C5.96043 8.75903 5.91521 8.83749 5.74518 8.93836C5.70539 8.96077 5.67102 9.02615 5.66922 9.07285C5.66922 9.10834 5.71624 9.16252 5.75604 9.17746C5.88808 9.2335 5.96043 9.368 5.92787 9.53798C5.82839 10.0629 5.62038 10.5318 5.27128 10.9334C5.09221 11.1389 4.89867 11.3257 4.66714 11.4658C4.61469 11.4975 4.60203 11.5274 4.64001 11.5853C4.84983 11.9029 5.05784 12.2204 5.26043 12.5436C5.30022 12.6071 5.3165 12.693 5.32012 12.7696C5.32916 12.9284 5.34001 13.0928 5.32012 13.2497C5.28032 13.5411 5.39971 13.7634 5.56431 13.9801C5.70177 14.1613 5.82296 14.3537 5.94958 14.5442C6.02012 14.6526 6.01108 14.7721 5.95681 14.8804C5.90798 14.9757 5.81754 15 5.71624 15C3.90564 15 2.09504 15 0.284442 15C0.184958 15 0.0927103 14.9757 0.043873 14.8804C-0.0103908 14.7721 -0.0212437 14.6526 0.051108 14.5442C0.24284 14.2547 0.439998 13.9689 0.629921 13.6793C0.657053 13.6382 0.671524 13.5803 0.673332 13.5299C0.678759 13.3281 0.684185 13.1245 0.673332 12.9228C0.66248 12.7341 0.707699 12.5697 0.8108 12.4166C0.991679 12.1494 1.16171 11.8748 1.34439 11.6077C1.39866 11.5274 1.37876 11.5012 1.31003 11.4545C0.63173 11.0006 0.226561 10.3543 0.0691959 9.53985C0.0348289 9.36426 0.10718 9.24284 0.264545 9.17559C0.293486 9.16252 0.331471 9.11395 0.327853 9.0878C0.320618 9.03549 0.298913 8.96824 0.260928 8.94209C0.0601522 8.81133 0.0348288 8.75903 0.0818574 8.52366C0.186767 7.99876 0.409249 7.53736 0.763772 7.14321C0.957313 6.92839 1.16532 6.73599 1.41675 6.59589C1.48005 6.5604 1.50176 6.51744 1.49995 6.43524C1.49091 6.15691 1.4891 5.87858 1.49633 5.60212C1.50176 5.37796 1.59401 5.29577 1.81106 5.2939C1.89246 5.2939 1.97385 5.2939 2.06248 5.2939V4.4122C1.9829 4.4122 1.9015 4.4122 1.82191 4.4122C1.70434 4.4122 1.59582 4.40473 1.53613 4.2721C1.47644 4.14321 1.49272 4.02553 1.55964 3.91345C1.71701 3.65006 1.88341 3.39228 2.04078 3.12889C2.06429 3.08966 2.06791 3.03362 2.06972 2.98506C2.07696 2.75529 2.03716 2.51806 2.14931 2.30324C2.19634 2.21357 2.25422 2.12204 2.33019 2.05853C2.3953 2.00249 2.41339 1.95205 2.41701 1.86986C2.42605 1.64944 2.4351 1.42715 2.46765 1.20859C2.48755 1.07036 2.57075 0.960149 2.68833 0.87609C2.72631 0.849938 2.74983 0.780822 2.75525 0.728518C2.7643 0.603362 2.76068 0.476339 2.75706 0.349315C2.75344 0.199875 2.8059 0.0821918 2.9289 0H3.07541H3.06817ZM3.00125 11.3948C3.00125 11.4041 3.00306 11.4153 3.00486 11.4247C3.21468 11.3836 3.4245 11.3462 3.63432 11.3014C3.93097 11.2397 4.19324 11.1034 4.44828 10.9371C4.77567 10.7223 5.03071 10.4421 5.20616 10.0946C5.2966 9.91532 5.47206 9.7472 5.28394 9.48007C5.08678 9.20174 5.11392 8.86177 5.32193 8.5741C5.39428 8.47323 5.37981 8.39851 5.34182 8.30511C5.21702 7.99315 5.04156 7.72042 4.80642 7.47758C4.51701 7.17684 4.17696 6.97136 3.7935 6.85181C3.41908 6.73412 3.032 6.68369 2.6413 6.76027C2.42786 6.80137 2.21804 6.86301 2.01184 6.93213C1.57049 7.0797 1.21959 7.36924 0.953695 7.75031C0.812609 7.95392 0.723979 8.19863 0.615451 8.42653C0.604598 8.44894 0.615451 8.49004 0.628113 8.51245C0.657053 8.56289 0.696847 8.60399 0.725788 8.65442C0.861447 8.88792 0.866873 9.30635 0.67695 9.53611C0.597363 9.63138 0.608216 9.69489 0.642583 9.79016C0.883152 10.4552 1.3462 10.9016 1.95938 11.1781C2.28497 11.3257 2.63587 11.4153 3.00125 11.3948ZM1.17075 13.0386V13.4234H4.8227V13.0367C4.6997 13.0367 4.58213 13.0423 4.46637 13.0367C4.33614 13.0293 4.23484 12.9116 4.22037 12.7696C4.2059 12.6164 4.26559 12.5156 4.40306 12.4689C4.4519 12.4521 4.50074 12.4315 4.555 12.411C4.47903 12.2951 4.4103 12.1775 4.3289 12.0691C4.29996 12.0299 4.24389 11.9888 4.20048 11.9888C3.39737 11.9832 2.59427 11.9851 1.79117 11.9869C1.75861 11.9869 1.70977 11.9944 1.69349 12.0168C1.60486 12.1438 1.52527 12.2783 1.43122 12.4278C1.49633 12.4278 1.53974 12.4278 1.58315 12.4278C2.0444 12.4278 2.50383 12.4259 2.96507 12.4278C3.12424 12.4278 3.26533 12.5305 3.29246 12.6351C3.34492 12.8425 3.20383 13.0461 2.9922 13.0405C2.59789 13.0293 2.20176 13.0367 1.80564 13.0367C1.59762 13.0367 1.38961 13.0367 1.17256 13.0367L1.17075 13.0386ZM0.772816 14.4078H5.21521C5.13562 14.2864 5.0687 14.1743 4.99092 14.0697C4.96921 14.0399 4.91495 14.0193 4.87696 14.0193C3.62166 14.0174 2.36636 14.0174 1.10925 14.0193C1.06946 14.0193 1.017 14.0399 0.995297 14.0697C0.917519 14.1743 0.850594 14.2864 0.771007 14.4097L0.772816 14.4078ZM2.56171 4.41781V5.28269H3.42812V4.41968H3.2382C3.2382 4.51681 3.24543 4.60648 3.2382 4.69427C3.22735 4.80635 3.19479 4.91096 3.08083 4.95579C2.92166 5.0193 2.77334 4.90909 2.75525 4.70922C2.74621 4.61395 2.75525 4.51868 2.75525 4.41594H2.56352L2.56171 4.41781ZM4.00151 5.88418H1.98651V6.11395H4.00151V5.88418ZM3.76275 3.82379C3.71029 3.72852 3.66507 3.65193 3.62347 3.57347C3.5873 3.50623 3.54027 3.4726 3.45887 3.47447C3.17489 3.48007 2.8891 3.47634 2.60512 3.47634C2.41882 3.47634 2.2723 3.62204 2.25783 3.82565H3.76456L3.76275 3.82379ZM2.56352 2.88232H3.43717C3.43717 2.82067 3.43717 2.7665 3.43717 2.71233C3.43717 2.54608 3.39918 2.50685 3.23458 2.50685C3.11701 2.50685 2.99944 2.50685 2.88187 2.50685C2.54905 2.50685 2.53096 2.52553 2.56352 2.88232ZM3.08988 1.89228C3.08988 1.74097 3.09711 1.5934 3.08626 1.4477C3.08264 1.41034 3.02476 1.37671 2.9922 1.34122C2.96145 1.37484 2.909 1.4066 2.90719 1.44396C2.89815 1.5934 2.90357 1.74284 2.90357 1.89228H3.09169H3.08988Z" fill="#410EAD"/>
<path d="M4.04685 9.05226C4.05227 9.64068 3.57475 10.1338 2.99413 10.1338C2.42074 10.1338 1.9396 9.65002 1.94141 9.06534C1.94141 8.43209 2.41351 7.98564 2.98689 7.98003C3.54038 7.97443 4.03237 8.40407 4.04685 9.05226ZM3.00317 9.57904C3.11532 9.53047 3.23108 9.48751 3.33961 9.4296C3.48974 9.34927 3.56028 9.20918 3.55485 9.03732C3.54943 8.8636 3.45356 8.73657 3.30886 8.65998C3.12979 8.56472 2.93986 8.55538 2.74813 8.62636C2.50756 8.71416 2.30679 9.01864 2.51842 9.31378C2.62875 9.46883 2.79516 9.55289 3.00317 9.57904Z" fill="#410EAD"/>
<path d="M4.00505 12.7431C4.00143 12.9057 3.8929 13.0364 3.76448 13.0327C3.64148 13.0289 3.53114 12.8795 3.53657 12.7263C3.542 12.5563 3.63605 12.4536 3.78076 12.4592C3.92546 12.4648 4.00866 12.5694 4.00505 12.7431Z" fill="#410EAD"/>
</svg>
