<svg width="15" height="15" viewBox="0 0 15 15" fill="none" xmlns="http://www.w3.org/2000/svg">
<path d="M0 6.50604H0.499114C0.499114 6.25572 0.491523 6.01679 0.50291 5.77974C0.506705 5.70579 0.538967 5.61856 0.590207 5.56546C0.937499 5.20895 1.29049 4.85623 1.64537 4.5073C1.72507 4.42955 1.75544 4.34801 1.75354 4.23802C1.74785 3.73549 1.75354 3.23296 1.74975 2.73043C1.74975 2.63372 1.76872 2.56735 1.86741 2.54459C2.20521 2.45926 2.28492 2.24118 2.26214 1.90932C2.22988 1.44851 2.25455 0.983907 2.25455 0.511719H2.75367C2.75367 0.570505 2.75367 0.621706 2.75367 0.674804C2.75367 1.1925 2.75557 1.7102 2.75177 2.2279C2.75177 2.32651 2.77454 2.3872 2.87133 2.41374C3.19775 2.49908 3.29074 2.70578 3.26227 3.03764C3.22811 3.45483 3.25088 3.87582 3.25658 4.29681C3.25658 4.36128 3.29074 4.43903 3.33439 4.48455C3.68927 4.84864 4.05364 5.20136 4.40663 5.56735C4.45976 5.62235 4.49582 5.71716 4.49962 5.79491C4.511 6.02627 4.50341 6.25952 4.50341 6.50604H4.99494V14.9978H4.50721V7.01047H0.508603V14.9997H0.00189782V6.50604H0ZM1.35121 5.49529H3.63993C3.38752 5.24308 3.15599 5.00793 2.92067 4.77658C2.8998 4.75572 2.85804 4.75193 2.82578 4.75193C2.60564 4.75003 2.3855 4.75003 2.16726 4.75193C2.1312 4.75193 2.08755 4.7671 2.06288 4.78986C1.83135 5.01362 1.60552 5.24118 1.34932 5.4934L1.35121 5.49529ZM2.00784 6.49656H2.99089V6.01489H2.00784V6.49656ZM3.51088 6.49656H3.99291V6.01489H3.51088V6.49656ZM2.26214 4.24181H2.74418V3.76394H2.26214V4.24181ZM1.49165 6.49656V6.01299H1.01151V6.49656H1.49165ZM2.76505 3.25003C2.71761 3.11349 2.82768 2.97506 2.68345 2.86697C2.54681 2.76267 2.39689 2.77405 2.30769 2.88783C2.24127 2.97316 2.26025 3.12298 2.23937 3.25193H2.76316L2.76505 3.25003Z" fill="#410EAD"/>
<path d="M13.4856 0.00189638C13.8936 0.142225 14.0815 0.438054 14.1137 0.859041C14.1327 1.10177 14.1896 1.34071 14.2086 1.58344C14.22 1.72187 14.2693 1.77687 14.4041 1.75411C14.4231 1.75032 14.442 1.75601 14.48 1.7598C14.499 1.93995 14.5198 2.122 14.535 2.30405C14.5977 2.99432 14.6603 3.68458 14.7172 4.37485C14.7248 4.47536 14.7609 4.51518 14.8614 4.5038C14.9032 4.49811 14.9487 4.5038 15 4.5038V14.9905H14.5123V5.01581C14.4382 5.00823 14.3794 5.00254 14.3073 4.99495C14.2238 4.08281 14.1403 3.17637 14.0568 2.26233C13.9714 2.25664 13.8936 2.25285 13.8063 2.24716C13.7475 1.84893 13.6886 1.45449 13.6298 1.05816C13.6127 0.94248 13.5975 0.826803 13.5729 0.711126C13.5463 0.589761 13.4647 0.510115 13.3394 0.50253C13.1497 0.493048 12.9618 0.500633 12.7549 0.500633V1.244H12.2596V0.50253C12.0603 0.50253 11.8744 0.493048 11.6922 0.506322C11.546 0.515804 11.4739 0.621999 11.453 0.762328C11.3866 1.20038 11.3221 1.64033 11.2576 2.07839C11.25 2.13148 11.2405 2.18268 11.2291 2.24526C11.1494 2.25095 11.0735 2.25475 10.9824 2.26043C10.8989 3.17068 10.8154 4.07713 10.7319 4.99116C10.656 4.99875 10.5896 5.00443 10.508 5.01202V14.9905H10.0107V4.51139C10.0999 4.5057 10.1815 4.50001 10.2802 4.49432C10.3637 3.58597 10.4472 2.67952 10.5307 1.7617C10.6123 1.7579 10.6882 1.75222 10.7793 1.74653C10.8287 1.4488 10.8932 1.15487 10.9217 0.855248C10.9596 0.436158 11.1399 0.138433 11.5498 0H13.4856V0.00189638Z" fill="#410EAD"/>
<path d="M9.49835 14.9946H9.00873V13.3638C8.95559 13.4093 8.92332 13.4339 8.89486 13.4605C8.56275 13.7923 8.23633 14.128 7.89663 14.4523C7.78846 14.5566 7.73342 14.6628 7.7543 14.8107C7.76189 14.8676 7.7543 14.9264 7.7543 14.9927H7.26657C7.26277 14.9586 7.24759 14.9207 7.25518 14.8865C7.29693 14.6684 7.19066 14.5243 7.04074 14.3821C6.69914 14.0559 6.37082 13.7165 6.01404 13.36V14.9908H5.50544C5.50544 14.9415 5.50544 14.8903 5.50544 14.8391C5.50544 11.6571 5.50544 8.47312 5.50354 5.29106C5.50354 5.18866 5.53201 5.1185 5.60602 5.04833C5.7939 4.87007 5.97988 4.68803 6.15448 4.49839C6.20761 4.4415 6.24747 4.34858 6.24936 4.27273C6.25506 3.41369 6.25316 2.55465 6.25316 1.69561C6.25316 1.63872 6.25316 1.57993 6.25316 1.51166H6.75038V2.24934H8.25341V1.50977H8.75822V1.67664C8.75822 2.54137 8.75632 3.40421 8.76201 4.26894C8.76201 4.34479 8.80377 4.43771 8.85501 4.4946C9.03719 4.69182 9.23456 4.87387 9.41864 5.06919C9.46229 5.1166 9.50025 5.19245 9.50025 5.25693C9.50404 8.46932 9.50404 11.6817 9.50404 14.8941C9.50404 14.9226 9.50025 14.951 9.49835 14.9946ZM7.76568 13.8928C8.1813 13.4757 8.56465 13.0888 8.95369 12.7057C9.0334 12.6261 8.98785 12.5825 8.93092 12.5275C8.62348 12.2222 8.31604 11.915 8.0105 11.6078C7.93648 11.5338 7.86627 11.4542 7.79605 11.3764C7.78656 11.384 7.77517 11.3916 7.76568 11.3973V13.8928ZM7.2419 13.8891V11.3669C6.82629 11.7822 6.42965 12.1748 6.03871 12.573C6.01973 12.592 6.02732 12.6697 6.052 12.6925C6.43724 13.085 6.82818 13.4719 7.2438 13.8891H7.2419ZM7.76758 7.61597V10.104C7.78846 10.1002 7.79984 10.1021 7.80364 10.0964C8.19078 9.71142 8.57793 9.32836 8.96128 8.93772C8.98405 8.91496 8.98026 8.83152 8.95749 8.80877C8.57224 8.41622 8.1813 8.02748 7.76758 7.61597ZM7.24759 7.61407C6.82818 8.03127 6.43724 8.42381 6.0444 8.81446C5.97419 8.88462 6.02922 8.92444 6.07477 8.96996C6.43724 9.33216 6.79782 9.69436 7.16029 10.0547C7.18117 10.0755 7.20964 10.0907 7.24949 10.1191V7.61407H7.24759ZM7.90612 6.98449C8.27049 7.35048 8.63866 7.72027 8.99354 8.07678V5.90168C8.62348 6.27147 8.25531 6.63936 7.90612 6.98449ZM6.01594 5.8903V8.10712C6.3879 7.73165 6.75607 7.35997 7.11854 6.99397C6.76176 6.63746 6.3936 6.26957 6.01594 5.8903ZM6.01214 11.8391C6.38031 11.4712 6.75227 11.0995 7.09008 10.762C6.7333 10.4055 6.36513 10.0376 6.01214 9.68488V11.8391ZM7.90612 10.7298C8.27429 11.0976 8.64435 11.4674 8.99165 11.8145V9.64505C8.61778 10.0186 8.24962 10.3865 7.90612 10.7279V10.7298ZM7.2381 6.35111V4.16464C6.86994 4.53253 6.50177 4.90042 6.14309 5.25882C6.50177 5.61534 6.86804 5.98133 7.2381 6.35111ZM7.76758 6.33594C8.13385 5.97374 8.50582 5.60775 8.84552 5.2721C8.48494 4.91179 8.11487 4.54201 7.76758 4.19498V6.33594ZM7.5 3.13682C7.7562 3.39662 7.99152 3.63366 8.24582 3.89156V2.76893H6.76556V3.87829C7.01227 3.62987 7.2438 3.39472 7.5 3.13682Z" fill="#410EAD"/>
<path d="M1.50295 14.9947H1.00574V8.25514H1.74587V7.51367H3.24511V8.25135H3.99283V14.9928H3.507V8.75957H2.75169V8.00862H2.25637V8.75008H1.50106V14.9947H1.50295Z" fill="#410EAD"/>
<path d="M2.74424 14.9926H2.26221V9.26562H2.74424V14.9926Z" fill="#410EAD"/>
<path d="M14.0074 6.50977V6.99144H11.0165V6.50977H14.0074Z" fill="#410EAD"/>
<path d="M14.0074 9.50781V9.98759H11.0184V9.50781H14.0074Z" fill="#410EAD"/>
<path d="M11.0184 12.9914V12.5098H14.0036V12.9914H11.0184Z" fill="#410EAD"/>
<path d="M11.7644 2.2435V1.76562H13.2485V2.2435H11.7644Z" fill="#410EAD"/>
<path d="M12.2464 3.99347H11.7625V2.76465H12.2464V3.99347Z" fill="#410EAD"/>
<path d="M12.7623 2.76074H13.2482V3.99336H12.7623V2.76074Z" fill="#410EAD"/>
<path d="M13.2655 5.99267V5.25879H13.7456V5.99267H13.2655Z" fill="#410EAD"/>
<path d="M12.7512 5.25879V5.99457H12.2654V5.25879H12.7512Z" fill="#410EAD"/>
<path d="M11.751 5.25879V5.99646H11.2709V5.25879H11.751Z" fill="#410EAD"/>
<path d="M11.7491 11.9947H11.2709V11.2627H11.7491V11.9947Z" fill="#410EAD"/>
<path d="M12.2635 11.2568H12.7475V11.9926H12.2635V11.2568Z" fill="#410EAD"/>
<path d="M13.7494 11.2627V11.9947H13.2693V11.2627H13.7494Z" fill="#410EAD"/>
<path d="M11.7492 8.26416V8.99235H11.269V8.26416H11.7492Z" fill="#410EAD"/>
<path d="M12.7492 8.2627V8.99278H12.2672V8.2627H12.7492Z" fill="#410EAD"/>
<path d="M13.2655 8.99089V8.2627H13.7456V8.99089H13.2655Z" fill="#410EAD"/>
</svg>
