<svg width="15" height="15" viewBox="0 0 15 15" fill="none" xmlns="http://www.w3.org/2000/svg">
<path d="M1.99465 8.59141C2.24372 8.47415 2.48044 8.36099 2.74187 8.23755V7.0155C2.82832 7.00933 2.90243 7.00521 2.99506 6.99904C2.99506 6.9188 2.99506 6.84268 2.99506 6.7645C3.00124 6.47031 3.12886 6.23988 3.38823 6.09999C3.4788 6.05061 3.5035 5.99712 3.49527 5.90454C3.42528 5.08778 3.62289 4.30188 3.7958 3.49541C4.06752 3.58593 4.11486 3.37814 4.20749 3.20326C4.82915 2.02853 5.81103 1.3887 7.12845 1.25497C7.16344 1.25086 7.20049 1.2488 7.2499 1.24469V0.504046H7.74599V1.22411C8.02388 1.27349 8.28736 1.30229 8.54055 1.37224C9.60889 1.66644 10.3808 2.31861 10.8501 3.32259C10.916 3.46249 10.9839 3.53038 11.1363 3.50158C11.161 3.49746 11.1857 3.50569 11.2248 3.50981C11.3236 4.30188 11.5583 5.07338 11.5068 5.87779C11.5006 5.98683 11.5233 6.05061 11.6324 6.11027C11.8732 6.24194 11.9946 6.46208 12.0091 6.73776C12.0132 6.82005 12.0091 6.90235 12.0091 6.99493C12.0955 7.0011 12.1696 7.00727 12.2581 7.01344V8.2355C12.5196 8.35894 12.7625 8.47209 13.0115 8.58936C13.0115 8.20464 13.0156 7.80551 13.0074 7.40639C13.0074 7.35496 12.9539 7.2953 12.9086 7.25826C12.7872 7.16157 12.7522 7.0443 12.7583 6.89206C12.7707 6.60198 12.7625 6.30983 12.7625 6.00946C12.8448 6.00535 12.9168 6.00123 13.0136 5.99712C13.0136 5.94363 13.0136 5.88808 13.0136 5.83459C13.0136 5.25031 13.0074 4.66603 13.0177 4.08174C13.0198 3.91716 12.9868 3.78549 12.851 3.69291C12.7378 3.61473 12.7419 3.52215 12.7789 3.39871C13.0074 2.66219 13.238 1.92772 13.4397 1.18502C13.5056 0.9402 13.4953 0.672747 13.5117 0.413524C13.52 0.279797 13.5117 0.146071 13.5117 0.00411466H14.0119C14.0119 0.267453 14.0078 0.530791 14.014 0.79413C14.0161 0.901111 14.0305 1.01221 14.0613 1.11507C14.2898 1.88863 14.5224 2.66219 14.7592 3.43163C14.7921 3.53655 14.7839 3.61062 14.6933 3.67234C14.5348 3.78137 14.506 3.93156 14.508 4.11672C14.5183 4.73598 14.5121 5.35729 14.5121 5.99095C14.5945 5.99506 14.6686 6.00124 14.7612 6.00535C14.7612 6.36127 14.7695 6.71513 14.753 7.06693C14.7489 7.13688 14.6459 7.1986 14.5986 7.27061C14.5595 7.33233 14.5142 7.40433 14.5142 7.47223C14.5101 8.70868 14.4957 9.94308 14.5183 11.1795C14.5286 11.6877 14.6295 12.1938 14.6686 12.704C14.7118 13.2595 14.7324 13.815 14.7612 14.3725C14.7633 14.4137 14.7612 14.4528 14.7612 14.5042C14.8456 14.5083 14.9156 14.5104 15 14.5145V15H0V14.5186C0.0720461 14.5145 0.148209 14.5104 0.230548 14.5042C0.234664 14.4733 0.242898 14.4425 0.24084 14.4137C0.195554 13.3871 0.380815 12.379 0.479621 11.3626C0.487855 11.2803 0.491972 11.196 0.491972 11.1137C0.491972 9.92045 0.491972 8.72514 0.496089 7.53189C0.496089 7.40639 0.473446 7.30764 0.370523 7.23563C0.259366 7.15951 0.236723 7.05459 0.24084 6.92498C0.249074 6.62461 0.242898 6.32218 0.242898 6.00946C0.329354 6.00535 0.403458 6.00123 0.49403 5.99712V5.75641C0.49403 5.19888 0.487855 4.64134 0.498147 4.08174C0.500206 3.91716 0.469329 3.78549 0.331412 3.69085C0.218197 3.61267 0.220255 3.52215 0.259366 3.39665C0.487855 2.66013 0.710169 1.9236 0.924249 1.18297C0.967476 1.03072 0.983944 0.868194 0.992178 0.707722C1.00247 0.475243 0.994236 0.240708 0.994236 0H1.49444C1.49444 0.263338 1.49033 0.526677 1.4965 0.790015C1.49856 0.896996 1.51297 1.00809 1.54385 1.11096C1.77233 1.88452 2.00494 2.65807 2.24166 3.42957C2.27254 3.53244 2.26636 3.60856 2.17785 3.67028C2.02141 3.77932 1.98847 3.92744 1.99259 4.11466C2.00494 4.73392 1.99671 5.35523 1.99671 5.98889C2.07904 5.99301 2.15315 5.99712 2.24578 6.00329C2.24578 6.35921 2.25401 6.71307 2.2396 7.06487C2.23755 7.13071 2.13668 7.18831 2.09757 7.25621C2.0564 7.32616 2.00494 7.40639 2.00288 7.48457C1.99259 7.85489 1.99876 8.22315 1.99876 8.58319L1.99465 8.59141ZM10.2347 10.5027C10.2347 10.0501 10.2758 9.60362 10.2264 9.16747C10.0885 7.93924 9.1231 6.95584 7.93742 6.78919C6.66941 6.6102 5.48785 7.26032 4.9753 8.4042C4.6727 9.08106 4.76328 9.79084 4.74681 10.5027H10.2326H10.2347ZM4.75093 7.76025C5.44463 6.77891 6.35035 6.2584 7.51544 6.26046C8.67435 6.26252 9.57596 6.79125 10.2635 7.76642V7.01344C10.3499 7.00727 10.424 7.00316 10.4981 6.99904C10.5023 6.97435 10.5084 6.95789 10.5084 6.94349C10.4837 6.55877 10.5928 6.244 10.9654 6.06295C10.986 6.05267 11.0066 6.01564 11.0066 5.99095C11.0107 5.74818 11.0066 5.50542 11.0066 5.26677H3.99959C3.99959 5.50336 3.99341 5.72761 4.00371 5.95186C4.00371 5.99918 4.05105 6.0609 4.09428 6.08764C4.35982 6.244 4.49568 6.47236 4.49979 6.78096C4.49979 6.85297 4.49979 6.92292 4.49979 6.99904C4.59037 7.00521 4.66653 7.01138 4.75299 7.01756V7.76231L4.75093 7.76025ZM5.24907 14.5083C5.24907 14.4404 5.24907 14.3828 5.24907 14.3273C5.24907 13.7389 5.24702 13.1484 5.25113 12.56C5.25113 12.4427 5.26554 12.3193 5.30054 12.2061C5.44257 11.7453 5.91396 11.449 6.38123 11.519C6.8732 11.591 7.24166 11.9901 7.24784 12.4777C7.25607 13.097 7.2499 13.7183 7.25196 14.3375C7.25196 14.3931 7.25196 14.4486 7.25196 14.5001H7.75216C7.75216 13.8479 7.75216 13.206 7.75216 12.5662C7.75216 11.9593 8.17826 11.5108 8.75051 11.5108C9.32277 11.5108 9.75299 11.9572 9.75504 12.5621C9.75504 13.1566 9.75504 13.7512 9.75504 14.3437C9.75504 14.3993 9.75504 14.4528 9.75504 14.5042H10.245V11.0211H4.7571V14.5062H5.25113L5.24907 14.5083ZM10.3788 3.49541C9.90119 2.3433 8.67229 1.67261 7.19432 1.7549C5.85838 1.82897 4.92384 2.75682 4.64594 3.49541H10.3808H10.3788ZM3.99959 7.50514C3.99959 7.26444 3.99959 7.04636 3.99959 6.82622C3.99959 6.62049 3.90284 6.50117 3.74228 6.50528C3.58584 6.5094 3.49938 6.62049 3.49938 6.82417C3.49938 7.04636 3.49938 7.27061 3.49938 7.49691C3.40881 7.50309 3.33265 7.50926 3.2606 7.51337V11.5005H4.24043V7.50309H3.99959V7.50514ZM11.7538 11.5025V7.50103H11.515C11.515 7.35702 11.515 7.22123 11.515 7.08751C11.515 6.97847 11.5191 6.86737 11.515 6.75833C11.5089 6.60815 11.408 6.50734 11.2721 6.50322C11.1301 6.49911 11.021 6.60403 11.0189 6.76245C11.0148 7.00521 11.0189 7.25003 11.0189 7.49691C10.9263 7.50309 10.8501 7.5072 10.776 7.51132V11.5005H11.76L11.7538 11.5025ZM14.049 11.5169H13.4891C13.4006 12.5127 13.203 13.4961 13.2791 14.5042H14.259C14.3351 13.4961 14.1375 12.5168 14.049 11.5169ZM1.73528 14.5062C1.80939 13.492 1.61383 12.5086 1.52326 11.5169H0.965418C0.876904 12.5147 0.679292 13.4961 0.755455 14.5062H1.73322H1.73528ZM3.2606 12.0169V14.5001H4.24249V12.0169H3.2606ZM10.774 12.0169V14.5001H11.7559V12.0169H10.774ZM2.00906 10.5109C2.00906 10.8051 1.98847 11.087 2.01317 11.3647C2.10375 12.381 2.29312 13.3871 2.24784 14.4137C2.24784 14.4425 2.25401 14.4733 2.25607 14.5001H2.73364V10.5109H2.007H2.00906ZM12.2725 14.5042H12.7583C12.7625 14.4754 12.7666 14.4569 12.7666 14.4363C12.7233 13.4837 12.886 12.5477 12.9765 11.6054C13.0115 11.2454 13.0136 10.8833 13.0321 10.5212H12.2725V14.5062V14.5042ZM6.75587 14.5062C6.75587 13.852 6.75587 13.2122 6.75587 12.5724C6.75587 12.2391 6.55208 12.0128 6.25772 12.0107C5.9613 12.0107 5.75545 12.2349 5.75545 12.5662C5.75545 13.171 5.75545 13.7759 5.75545 14.3787C5.75545 14.4198 5.75957 14.4589 5.76163 14.5042H6.75793L6.75587 14.5062ZM9.26101 14.5062C9.26101 13.85 9.26101 13.204 9.26101 12.56C9.26101 12.2411 9.05311 12.0148 8.76492 12.0128C8.46851 12.0107 8.2606 12.237 8.2606 12.5662C8.2606 13.1649 8.2606 13.7656 8.2606 14.3643C8.2606 14.4095 8.2606 14.4548 8.2606 14.5083H9.26307L9.26101 14.5062ZM13.5303 7.51337V10.9985H14.0119V7.51337H13.5303ZM1.00659 7.51337V10.9985H1.49033V7.51337H1.00659ZM1.00659 3.75874V5.99095H1.48827V3.75874H1.00659ZM13.5303 3.75874V5.99095H14.0119V3.75874H13.5303ZM13.0033 10.0048C13.0774 9.39377 12.7563 8.87738 12.2787 8.80949V10.0048H13.0033ZM2.74187 8.80538C2.23755 8.90413 1.92054 9.42669 2.01523 9.99863H2.74187V8.80538ZM1.26389 1.93595C1.25154 1.93595 1.23713 1.93595 1.22478 1.93595C1.0951 2.37005 0.965418 2.80209 0.835735 3.23824H1.65706C1.52326 2.79386 1.39358 2.36387 1.26389 1.93389V1.93595ZM14.1807 3.24647C14.0449 2.79797 13.9152 2.36593 13.7855 1.93389H13.7485C13.6188 2.37005 13.4891 2.80414 13.3553 3.24647H14.1807ZM5.26348 4.00768V4.74421H5.99218V4.00768H5.26348ZM7.24372 4.74626V4.01385H6.51091V4.74626H7.24372ZM7.76657 4.00974V4.74215H8.49732V4.00974H7.76657ZM9.02017 4.00974V4.74626H9.75093V4.00974H9.02017ZM14.2569 6.51762H13.2668C13.2668 6.62666 13.2668 6.72542 13.2668 6.82417C13.2668 6.94349 13.3285 7.00521 13.4479 7.00727C13.5776 7.00727 13.7073 7.00521 13.837 7.00727C14.3104 7.02167 14.2692 6.98258 14.2651 6.55671C14.2651 6.54643 14.261 6.5382 14.2548 6.51762H14.2569ZM1.73734 6.51762H0.743104C0.743104 6.62666 0.743104 6.72336 0.743104 6.82211C0.743104 6.94966 0.811033 7.00933 0.938658 7.00933C1.05805 7.00933 1.17744 7.00727 1.29683 7.00933C1.77645 7.02167 1.75998 7.00933 1.73734 6.51762ZM4.74681 4.00562C4.58213 4.00562 4.43186 4.00151 4.2816 4.00974C4.24866 4.00974 4.19926 4.05294 4.19103 4.0838C4.14162 4.30188 4.10045 4.52201 4.05723 4.74215H4.74681V4.00357V4.00562ZM10.8007 4.01797H10.2697V4.74832H10.9242C10.8831 4.49733 10.8419 4.25456 10.8007 4.01797Z" fill="#410EAD"/>
<path d="M7.74362 8.49894H7.26221V7.2666H7.74362V8.49894Z" fill="#410EAD"/>
<path d="M6.25562 8.49685V7.76855H6.7432V8.49685H6.25562Z" fill="#410EAD"/>
<path d="M8.74816 8.49901H8.2688V7.7666H8.74816V8.49901Z" fill="#410EAD"/>
<path d="M5.74069 9.75184H5.25928V9.02148H5.74069V9.75184Z" fill="#410EAD"/>
<path d="M6.74533 9.75156H6.26392V9.01709H6.74533V9.75156Z" fill="#410EAD"/>
<path d="M7.74352 9.75166H7.26416V9.01514H7.74352V9.75166Z" fill="#410EAD"/>
<path d="M8.26465 9.01318H8.74606V9.74765H8.26465V9.01318Z" fill="#410EAD"/>
<path d="M9.26514 9.74755V9.01514H9.74655V9.74755H9.26514Z" fill="#410EAD"/>
</svg>
