<svg width="15" height="16" viewBox="0 0 15 16" fill="none" xmlns="http://www.w3.org/2000/svg">
<path d="M0.00192634 11.0737C0.0134841 11.0486 0.0269682 11.0236 0.0346734 10.9966C0.173367 10.5555 0.562479 10.282 1.00938 10.3147C1.4505 10.3455 1.79916 10.6807 1.86851 11.1372C1.87429 11.17 1.87621 11.2027 1.88007 11.2432H5.61708C5.65176 10.8541 5.82705 10.5651 6.18149 10.3937C6.21231 10.3783 6.24313 10.3301 6.24313 10.2955C6.24313 9.37276 6.24313 8.45006 6.23928 7.52929C6.23928 7.52544 6.23542 7.52159 6.22001 7.5004C6.14103 7.5004 6.04857 7.50232 5.95804 7.5004C5.75192 7.49462 5.62479 7.37519 5.62479 7.17293C5.62093 6.55844 5.62093 5.94202 5.62479 5.32753C5.62479 5.12913 5.74807 5.01355 5.94648 5.00584C6.03894 5.00199 6.12948 5.00584 6.2335 5.00584V2.49973C6.12948 2.49973 6.03316 2.50358 5.93685 2.49973C5.74807 2.49203 5.62671 2.3726 5.62479 2.18382C5.62093 1.75425 5.61515 1.32469 5.62479 0.895126C5.63634 0.436667 6.00812 0.0552601 6.46658 0.00902899C6.93082 -0.0372021 7.36423 0.272932 7.46825 0.727538C7.48366 0.793032 7.49137 0.860452 7.50678 0.943283C7.78609 0.943283 8.06733 0.943283 8.3505 0.943283C8.63751 0.943283 8.74731 1.05308 8.74924 1.34203C8.74924 1.61941 8.74924 1.8968 8.74924 2.18574H9.37143C9.37143 1.91028 9.37143 1.63868 9.37143 1.36707C9.37143 1.03767 9.46775 0.943283 9.801 0.943283C10.1631 0.943283 10.5234 0.943283 10.8855 0.943283C11.1263 0.943283 11.2438 1.06271 11.2457 1.3035C11.2457 1.59437 11.2457 1.88717 11.2457 2.18574H11.8679C11.8679 1.98734 11.8718 1.79856 11.8679 1.60978C11.8525 0.995293 11.893 0.920168 12.5421 0.941357C12.7309 0.947136 12.9216 0.941357 13.1162 0.941357C13.1393 0.62737 13.2529 0.371173 13.5014 0.192027C13.8038 -0.0275705 14.1332 -0.0603176 14.4684 0.101491C14.7978 0.261374 14.9808 0.538761 14.9924 0.904757C15.0059 1.32854 14.9981 1.75425 14.9943 2.17804C14.9943 2.37452 14.8691 2.49203 14.6707 2.49973C14.5782 2.50358 14.4877 2.49973 14.3837 2.49973V5.00392C14.4723 5.00392 14.5628 5.00199 14.6533 5.00392C14.871 5.0097 14.9924 5.12527 14.9943 5.33909C14.9962 5.94973 14.9962 6.55844 14.9943 7.16907C14.9943 7.37326 14.8672 7.49462 14.663 7.5004C14.5724 7.50232 14.48 7.5004 14.3798 7.5004C14.376 7.55626 14.3721 7.60056 14.3721 7.64294C14.3721 8.50785 14.3721 9.37083 14.3702 10.2357C14.3702 10.3321 14.3991 10.3802 14.4858 10.4245C14.8132 10.594 14.9847 10.8714 14.9924 11.2374C15.002 11.6477 14.9962 12.058 14.9924 12.4683C14.9924 12.6918 14.8729 12.8054 14.6456 12.8112C14.559 12.8112 14.4723 12.8112 14.3721 12.8112C14.3721 12.8979 14.3721 12.9634 14.3721 13.0308C14.3721 13.549 14.3682 14.0652 14.374 14.5834C14.376 14.7722 14.3182 14.9147 14.1448 15.0014H0.851423C0.678056 14.9166 0.620268 14.7741 0.622194 14.5853C0.627973 14.0498 0.62412 13.5124 0.622194 12.9769C0.622194 12.9248 0.616415 12.8748 0.612562 12.8073C0.485427 12.8073 0.365996 12.8343 0.265829 12.7996C0.165662 12.765 0.0866834 12.6687 0 12.5993C0 12.0908 0 11.5841 0 11.0756L0.00192634 11.0737ZM13.7364 12.8093C13.6401 12.8093 13.5573 12.8093 13.4744 12.8093C13.2394 12.8035 13.1239 12.6898 13.1239 12.4548C13.1239 12.0503 13.1162 11.6439 13.1239 11.2393C13.1316 10.8733 13.303 10.594 13.6285 10.4245C13.7229 10.3744 13.7461 10.3205 13.7461 10.2223C13.7422 9.36891 13.7461 8.51363 13.7441 7.66028C13.7441 7.60827 13.7403 7.55819 13.7383 7.5081H6.88458C6.88073 7.53892 6.87688 7.56396 6.87688 7.58708C6.87688 8.48088 6.87688 9.37276 6.87495 10.2666C6.87495 10.3532 6.91541 10.3821 6.9809 10.4149C7.30259 10.5805 7.48366 10.8502 7.49522 11.2085C7.50871 11.6323 7.501 12.058 7.49715 12.4818C7.49715 12.6802 7.37386 12.7977 7.17546 12.8054C7.07914 12.8093 6.98283 12.8054 6.88458 12.8054V14.3657H13.7345V12.8073L13.7364 12.8093ZM11.2611 4.99429H13.7364V2.49973C13.6555 2.49973 13.5842 2.49973 13.511 2.49973C13.2279 2.4978 13.1239 2.39378 13.1239 2.10869C13.1239 1.92955 13.1239 1.75233 13.1239 1.57318H12.5017C12.5017 1.87176 12.5036 2.1607 12.5017 2.44772C12.4997 2.69621 12.3784 2.81179 12.1299 2.81372C11.7735 2.81372 11.4172 2.81372 11.0608 2.81372C10.7179 2.81372 10.6293 2.72318 10.6274 2.3803C10.6274 2.11255 10.6274 1.84672 10.6274 1.57703H9.99748C9.99748 1.88717 10.0013 2.18574 9.99748 2.48239C9.99555 2.69043 9.8742 2.81179 9.67001 2.81372C9.26549 2.81757 8.85904 2.81757 8.45452 2.81372C8.25803 2.81372 8.1386 2.69236 8.12705 2.49395C8.12127 2.37645 8.12512 2.25894 8.12512 2.14337C8.12512 1.95459 8.12512 1.76581 8.12512 1.57511H7.50293C7.50293 1.78507 7.50678 1.98348 7.50293 2.18382C7.49907 2.3726 7.37964 2.49203 7.19087 2.49973C7.09455 2.50358 6.99824 2.49973 6.89422 2.49973V4.99236H9.37914C9.37914 4.87871 9.37721 4.77661 9.37914 4.67452C9.3907 4.19102 9.76055 3.7942 10.2344 3.75568C10.7083 3.71522 11.1359 4.02921 11.2284 4.50115C11.2592 4.65718 11.2534 4.82092 11.265 4.99429H11.2611ZM1.26172 14.3657H6.23928V12.8093C6.15837 12.8093 6.0871 12.8093 6.01583 12.8093C5.73266 12.8073 5.62671 12.7033 5.62671 12.4202C5.62671 12.241 5.62671 12.0638 5.62671 11.8827H1.88584C1.88199 11.9039 1.87621 11.9135 1.87621 11.9232C1.87621 12.0946 1.87621 12.2641 1.87621 12.4356C1.87621 12.6975 1.76641 12.8054 1.50059 12.8093C1.42353 12.8093 1.34648 12.8093 1.26172 12.8093V14.3657ZM6.25469 6.86857H14.3663V5.63382H13.7461C13.7461 5.73591 13.7499 5.83415 13.7461 5.93047C13.7383 6.12502 13.617 6.2483 13.4359 6.2483C13.2587 6.2483 13.1316 6.11924 13.1258 5.93047C13.1219 5.83415 13.1258 5.73784 13.1258 5.63574H12.5036C12.5036 5.73398 12.5074 5.82645 12.5036 5.91698C12.494 6.12117 12.3707 6.2483 12.1896 6.2483C12.0085 6.2483 11.8853 6.11924 11.8756 5.91505C11.8718 5.82452 11.8756 5.73206 11.8756 5.63382H11.2515C11.2515 5.74169 11.2554 5.84378 11.2515 5.94395C11.2419 6.1231 11.1128 6.24638 10.9414 6.24638C10.768 6.24638 10.6428 6.12502 10.6332 5.94202C10.6274 5.84186 10.6332 5.73976 10.6332 5.63767H10.0013C10.0013 5.74169 10.0033 5.83415 10.0013 5.92661C9.99363 6.1231 9.8742 6.24638 9.69505 6.24638C9.51205 6.24638 9.38684 6.11732 9.38106 5.91698C9.37914 5.82259 9.38106 5.72628 9.38106 5.63767H8.75887C8.75887 5.72628 8.75887 5.80526 8.75887 5.88231C8.75502 6.10961 8.63944 6.24445 8.44681 6.24638C8.25611 6.24638 8.13475 6.11154 8.12897 5.88809C8.12897 5.80718 8.12897 5.72435 8.12897 5.63767H7.50678C7.50678 5.74169 7.50871 5.83415 7.50678 5.92661C7.49907 6.11732 7.37386 6.24638 7.19857 6.2483C7.01943 6.2483 6.89422 6.12695 6.88651 5.93239C6.88266 5.83608 6.88651 5.73976 6.88651 5.63767H6.26239V6.86857H6.25469ZM6.87495 1.87368C6.87495 1.54814 6.88266 1.23801 6.8711 0.925946C6.86532 0.746801 6.71892 0.623518 6.55326 0.62737C6.3876 0.633149 6.25661 0.758359 6.24891 0.941357C6.2412 1.16095 6.24698 1.38055 6.24505 1.59822C6.24505 1.68876 6.24505 1.7793 6.24505 1.87176H6.8711L6.87495 1.87368ZM14.376 1.87176C14.376 1.59245 14.376 1.33047 14.376 1.06849C14.376 1.02419 14.376 0.979883 14.374 0.937504C14.3567 0.762211 14.2392 0.640854 14.0774 0.631223C13.9233 0.621592 13.7672 0.729464 13.7595 0.893199C13.7441 1.21682 13.7557 1.54236 13.7557 1.87368H14.376V1.87176ZM1.25017 12.1813C1.25017 11.8519 1.25787 11.536 1.24631 11.2201C1.24054 11.0486 1.09221 10.9311 0.932328 10.935C0.772445 10.9388 0.643383 11.0602 0.627973 11.2336C0.618341 11.3491 0.62412 11.4666 0.62412 11.5841C0.62412 11.7826 0.62412 11.979 0.62412 12.1813H1.24824H1.25017ZM6.87495 12.1813C6.87495 11.8558 6.88266 11.5437 6.8711 11.2336C6.86532 11.0544 6.71892 10.9311 6.55326 10.935C6.3876 10.9408 6.25661 11.066 6.25083 11.249C6.24313 11.4782 6.24891 11.7074 6.24698 11.9367C6.24698 12.0176 6.24698 12.0965 6.24698 12.1813H6.87303H6.87495ZM13.7499 12.1755H14.3702C14.3702 11.85 14.3779 11.5341 14.3663 11.2201C14.3605 11.0544 14.2219 10.9408 14.0658 10.935C13.9059 10.9311 13.7576 11.0486 13.7518 11.2201C13.7403 11.536 13.748 11.8519 13.748 12.1755H13.7499ZM9.99555 4.99043H10.6293C10.61 4.78239 10.689 4.56279 10.4733 4.4241C10.3596 4.3509 10.2383 4.35668 10.1323 4.43566C9.93777 4.58206 10.011 4.79202 9.99555 4.99043Z" fill="#410EAD"/>
<path d="M10.3056 13.1233C10.1111 13.1233 9.91653 13.1252 9.72005 13.1233C9.49853 13.1214 9.37717 13 9.37332 12.7785C9.37139 12.5743 9.36947 12.3682 9.37332 12.164C9.38488 11.6555 9.80096 11.2509 10.3076 11.249C10.8142 11.249 11.2322 11.6497 11.2457 12.1602C11.2515 12.3701 11.2495 12.5801 11.2457 12.7881C11.2418 12.9981 11.1185 13.1195 10.9028 13.1214C10.7025 13.1233 10.5021 13.1214 10.3037 13.1214L10.3056 13.1233ZM10.6293 12.4934C10.61 12.2796 10.689 12.0581 10.4675 11.9213C10.3538 11.85 10.2324 11.8558 10.1265 11.9386C9.93387 12.087 10.0128 12.2969 9.99166 12.4934H10.6293Z" fill="#410EAD"/>
<path d="M10.3037 9.99687C10.1034 9.99687 9.90303 10.0007 9.70463 9.99687C9.49659 9.99302 9.37908 9.87359 9.37523 9.66748C9.37138 9.45366 9.36945 9.23791 9.37523 9.02409C9.39064 8.52711 9.8125 8.12451 10.3095 8.12451C10.8084 8.12451 11.2283 8.52518 11.2457 9.02409C11.2534 9.23791 11.2514 9.45366 11.2457 9.66748C11.2418 9.87359 11.1224 9.99302 10.9163 9.99687C10.7121 10.0007 10.506 9.99687 10.3018 9.99687H10.3037ZM9.99742 9.36505H10.6273C10.6081 9.15893 10.687 8.93934 10.4732 8.79872C10.3673 8.72937 10.2459 8.72937 10.1419 8.80257C9.93386 8.94704 10.0071 9.16279 9.99742 9.36505Z" fill="#410EAD"/>
</svg>
