<svg width="12" height="15" viewBox="0 0 12 15" fill="none" xmlns="http://www.w3.org/2000/svg">
<path d="M0.15394 15C0.0455509 14.9307 -0.0332779 14.8459 0.0140193 14.7092C0.0613165 14.5763 0.177589 14.557 0.307656 14.5589C0.597351 14.5628 0.887047 14.5589 1.19842 14.5589C1.19842 14.5012 1.19842 14.4492 1.19842 14.3972C1.19842 13.9619 1.19645 13.5285 1.20039 13.0932C1.20039 13.0181 1.21813 12.9372 1.24966 12.8679C1.56497 12.1822 1.75613 11.4619 1.85467 10.7184C1.87438 10.574 1.86255 10.4257 1.86649 10.2793C1.87241 10.1233 1.96503 10.025 2.09904 10.0289C2.2291 10.0328 2.31385 10.1252 2.31385 10.2774C2.31779 11.121 2.54245 11.9164 2.86368 12.6888C2.95433 12.9083 3.00951 13.1202 2.99374 13.3532C2.98783 13.4553 2.99374 13.5574 2.99374 13.6691H3.60072C3.60072 13.4746 3.59481 13.2762 3.60467 13.0797C3.60861 13.0066 3.63028 12.9122 3.67955 12.8717C3.73276 12.8274 3.84706 12.8043 3.90619 12.8313C3.97122 12.8621 4.03822 12.9565 4.04414 13.0297C4.06187 13.2377 4.05005 13.4476 4.05005 13.6691H4.66491C4.66491 13.4938 4.65703 13.3186 4.66885 13.1452C4.67476 13.0412 4.69447 12.9314 4.73586 12.8371C5.04526 12.1379 5.23839 11.4099 5.33298 10.6549C5.34875 10.5297 5.33496 10.4006 5.3389 10.2754C5.34284 10.1271 5.43152 10.0328 5.56159 10.0308C5.68968 10.0308 5.78625 10.1252 5.78625 10.2716C5.79019 11.1903 6.05032 12.0493 6.41491 12.8852C6.44447 12.9545 6.45629 13.0354 6.45629 13.1125C6.46023 13.5362 6.45629 13.9619 6.45629 14.3856C6.45629 14.4376 6.45629 14.4896 6.45629 14.5493H7.50274V14.3875C7.50274 13.0066 7.50274 11.6256 7.50274 10.2446C7.50274 10.1194 7.48895 9.9923 7.47318 9.86711C7.45545 9.73807 7.40224 9.63599 7.26626 9.5705C7.11451 9.49731 7.05736 9.35093 7.05736 9.19107C7.05736 8.07782 7.05342 6.96457 7.05736 5.85325C7.05736 5.62791 7.18743 5.48923 7.41012 5.41604C7.44953 5.40256 7.49683 5.34285 7.4988 5.30241C7.50866 5.13677 7.49092 4.9692 7.50866 4.80549C7.51654 4.72074 7.55595 4.62444 7.6131 4.56088C7.83382 4.32205 8.07228 4.09863 8.29497 3.86173C8.3403 3.81358 8.38168 3.73269 8.37577 3.67298C8.33044 3.20688 8.43883 2.79471 8.69108 2.38639C9.01231 1.86636 9.17785 1.27699 9.2823 0.677991C9.30595 0.548947 9.2961 0.41605 9.29807 0.283154C9.30201 0.102106 9.38478 -0.00189975 9.52864 2.62859e-05C9.66659 0.00195232 9.74345 0.102106 9.74739 0.27545C9.7671 1.17491 10.1021 1.97614 10.5534 2.74078C10.6342 2.87753 10.6815 3.00657 10.6756 3.16643C10.6677 3.37059 10.6224 3.59786 10.6953 3.77506C10.7682 3.95225 10.9535 4.09671 11.117 4.2219C11.4678 4.48962 11.6196 4.8209 11.5467 5.2504C11.5388 5.29663 11.5467 5.34478 11.5467 5.38908C11.925 5.50849 11.996 5.60672 11.996 5.98615C11.996 6.18068 11.996 6.37713 11.996 6.57166C11.996 6.77005 11.9171 6.8702 11.7693 6.86635C11.6235 6.86442 11.5486 6.76042 11.5467 6.56203C11.5467 6.32898 11.5467 6.09593 11.5467 5.84747C11.3516 5.84747 11.1722 5.85133 10.9949 5.84747C10.9278 5.84555 10.8372 5.84555 10.7978 5.8051C10.7426 5.74925 10.6914 5.65102 10.7052 5.58553C10.719 5.52005 10.8096 5.45649 10.8806 5.41989C10.9357 5.391 11.0146 5.40641 11.0914 5.40256V4.98076H7.96586V5.40256C8.02104 5.40641 8.07425 5.40834 8.12746 5.41026C8.27526 5.41797 8.36395 5.49501 8.36789 5.61828C8.37183 5.74732 8.28512 5.83977 8.12943 5.84555C7.95995 5.85325 7.79047 5.84747 7.62099 5.8494C7.59142 5.8494 7.56186 5.85325 7.52048 5.8571V9.19685H11.5486V9.03699C11.5486 8.56896 11.5486 8.09901 11.5486 7.63098C11.5486 7.58669 11.5447 7.54239 11.5526 7.50001C11.5782 7.3806 11.6531 7.30741 11.7812 7.31319C11.9093 7.31897 11.992 7.39023 11.992 7.51542C11.996 8.09708 11.9979 8.67682 11.9901 9.25848C11.9901 9.40872 11.8876 9.51272 11.7595 9.59939C11.6964 9.64177 11.6275 9.7111 11.6097 9.77851C11.5723 9.92297 11.5506 10.0751 11.5486 10.2254C11.5447 11.7142 11.5447 13.203 11.5486 14.6918C11.5486 14.8267 11.5171 14.9307 11.3929 14.9981H11.2432C11.1289 14.9249 11.0875 14.8209 11.0954 14.6861C11.1032 14.5166 11.0973 14.3451 11.0973 14.1737C11.0973 13.8675 11.0973 13.5613 11.0973 13.2512H10.3485C10.3485 13.7384 10.3445 14.2161 10.3504 14.6918C10.3504 14.8267 10.3189 14.9307 10.1947 14.9961H10.045C9.93067 14.921 9.89322 14.817 9.89716 14.6841C9.90505 14.4703 9.89914 14.2546 9.89914 14.0408C9.89914 13.7789 9.89914 13.517 9.89914 13.2512H9.15026C9.15026 13.7384 9.14632 14.2161 9.15223 14.6938C9.15223 14.8286 9.1207 14.9326 8.99458 14.9961H8.8448C8.73444 14.9191 8.69503 14.8151 8.69897 14.6822C8.70685 14.4241 8.70094 14.166 8.70094 13.9079C8.70094 13.6903 8.70094 13.4727 8.70094 13.2512H7.95207C7.95207 13.7404 7.94813 14.2161 7.95404 14.6938C7.95404 14.8286 7.92251 14.9326 7.79441 14.9961H6.14492C6.02865 14.9133 6.00303 14.7997 6.005 14.6649C6.01091 14.3047 6.005 13.9445 6.005 13.5844C6.005 13.4746 6.005 13.3629 6.005 13.2454H5.10832C5.10832 13.3012 5.10832 13.3552 5.10832 13.4072C5.10832 13.8251 5.10438 14.245 5.11029 14.6629C5.11029 14.7978 5.08665 14.9114 4.97431 14.9942H4.79498C4.68068 14.9095 4.65309 14.7958 4.659 14.661C4.66688 14.4819 4.659 14.3028 4.659 14.1256H4.04611C4.04611 14.3182 4.04019 14.5031 4.04808 14.688C4.05399 14.8228 4.01654 14.9268 3.89436 14.9942H3.74459C3.62831 14.921 3.5889 14.819 3.59481 14.6841C3.6027 14.4973 3.59678 14.3086 3.59678 14.1294H2.9898C2.9898 14.322 2.98389 14.5012 2.9898 14.6822C2.99571 14.8151 2.9563 14.9191 2.84397 14.9961H2.69419C2.57595 14.9345 2.53457 14.8382 2.53654 14.7072C2.54245 14.2739 2.53851 13.8386 2.53851 13.4052C2.53851 13.3532 2.53851 13.3012 2.53851 13.2473H1.63986C1.63986 13.307 1.63986 13.359 1.63986 13.411C1.63986 13.8347 1.63592 14.2585 1.64183 14.6841C1.64183 14.817 1.60636 14.921 1.49403 14.9961H0.146057L0.15394 15ZM8.70291 11.0439C8.70291 10.8051 8.70291 10.5817 8.70291 10.3583C8.70291 10.1907 8.79356 10.0867 8.93151 10.0886C9.06946 10.0886 9.15026 10.1888 9.15223 10.3621C9.15223 10.5855 9.15223 10.8089 9.15223 11.0362H9.9011C9.9011 10.807 9.9011 10.5875 9.9011 10.3698C9.9011 10.1907 9.99176 10.0848 10.1317 10.0886C10.2696 10.0925 10.3485 10.1907 10.3485 10.364C10.3485 10.5875 10.3485 10.8089 10.3485 11.0362H11.123V9.65525H7.93827V11.042H8.70488L8.70291 11.0439ZM9.16012 12.7947H9.9011C9.9011 12.6926 9.89716 12.6002 9.9011 12.5077C9.90899 12.3729 10.0056 12.2804 10.1277 12.2804C10.2499 12.2804 10.3425 12.3748 10.3465 12.5096C10.3504 12.604 10.3465 12.7003 10.3465 12.7947H11.0835V11.4965H10.3623C10.3248 11.7623 10.2755 11.8336 10.1317 11.8374C9.97993 11.8413 9.92081 11.7604 9.88534 11.4985H9.15815V12.7947H9.16012ZM8.2595 4.47036C8.27724 4.48769 8.293 4.50503 8.31074 4.52236H10.7938C10.5554 4.33939 10.4509 4.0447 10.0982 4.08322C9.97796 4.09671 9.89914 3.98692 9.90505 3.86558C9.91096 3.74424 9.98585 3.66913 10.1139 3.65757C10.1474 3.65372 10.1809 3.64987 10.2164 3.64601V3.22999H8.84086V3.65757C8.96502 3.65757 9.07932 3.65564 9.19362 3.65757C9.35522 3.66142 9.4439 3.73461 9.44784 3.86558C9.45178 4.00233 9.36113 4.089 9.19756 4.09478C9.06355 4.09863 8.92757 4.09285 8.79356 4.09863C8.74824 4.09863 8.69306 4.11404 8.65955 4.14101C8.52357 4.24694 8.39351 4.36057 8.26147 4.47228L8.2595 4.47036ZM8.69306 12.7966V11.4946H7.96389V12.7966H8.69306ZM9.52864 1.63138C9.36704 2.00503 9.2015 2.38639 9.03596 2.76582H10.0213C9.85184 2.37868 9.68827 1.99925 9.52667 1.63138H9.52864ZM2.40647 12.8005C2.30202 12.4904 2.19954 12.1899 2.09313 11.876C1.98671 12.1918 1.8862 12.4942 1.78372 12.8005H2.40647ZM5.87493 12.8005C5.76851 12.4865 5.66801 12.1861 5.56356 11.874C5.45714 12.1899 5.35663 12.4923 5.25219 12.8005H5.87493Z" fill="#410EAD"/>
<path d="M9.51294 8.77139C8.66159 8.76947 7.96001 8.0838 7.95607 7.24982C7.95213 6.39659 8.66356 5.70129 9.53659 5.70707C10.4076 5.71092 11.1013 6.39851 11.0974 7.24982C11.0935 8.09728 10.3879 8.77332 9.51294 8.77139ZM8.77589 8.03372C9.08923 8.35922 9.65089 8.42663 10.0707 8.19936C10.5219 7.95475 10.7466 7.43857 10.6126 6.94936C10.5022 6.54875 10.0963 6.18665 9.75928 6.19243V6.79335C9.78687 6.78372 9.8046 6.77794 9.82234 6.77409C9.94847 6.73364 10.0509 6.76253 10.112 6.88195C10.1692 6.99751 10.1239 7.08996 10.0273 7.16315C9.96817 7.20745 9.8992 7.24212 9.84796 7.29412C9.8046 7.33842 9.76125 7.40005 9.75731 7.45591C9.74745 7.56762 9.74942 7.69088 9.62527 7.7217C9.53264 7.74481 9.42623 7.70629 9.32572 7.69474C9.32572 7.68125 9.32572 7.66585 9.32572 7.65236C9.14441 7.77948 8.96311 7.90468 8.77983 8.03372H8.77589ZM8.51181 7.6774C8.76406 7.50213 9.01632 7.32879 9.26463 7.15159C9.28433 7.13811 9.3001 7.10344 9.3001 7.0784C9.30207 6.7818 9.3001 6.48519 9.3001 6.18858C8.74436 6.22902 8.16891 6.96284 8.50984 7.6774H8.51181Z" fill="#410EAD"/>
</svg>
