<svg width="15" height="14" viewBox="0 0 15 14" fill="none" xmlns="http://www.w3.org/2000/svg">
<path d="M15 13.8979C14.9308 14 14.8259 14 14.7151 14C12.6396 14 10.5641 14 8.48663 14C5.76612 14 3.04562 14 0.325122 14C0.265765 14 0.208387 14 0.149031 13.9962C0.0520822 13.9865 -0.0191454 13.9268 0.00459718 13.8382C0.018447 13.7824 0.0975888 13.7343 0.156945 13.7015C0.194538 13.6823 0.251915 13.6977 0.317207 13.6977C0.321165 13.6418 0.3271 13.5917 0.3271 13.5417C0.3271 13.2798 0.3271 13.0179 0.3271 12.7579C0.3271 12.3304 0.426028 12.2129 0.857351 12.1224V8.50978C0.744574 8.50978 0.629818 8.50978 0.515062 8.50978C0.414156 8.50978 0.338971 8.47512 0.333036 8.36728C0.3271 8.25173 0.404264 8.20937 0.511105 8.20744C0.643668 8.20552 0.774252 8.20744 0.906814 8.20744C2.00095 8.20744 3.09509 8.20744 4.18922 8.20744H4.38312C4.38312 8.14004 4.38312 8.08612 4.38312 8.03028C4.38312 6.78434 4.38312 5.5384 4.38312 4.29438C4.38312 3.84377 4.63637 3.5992 5.09738 3.59727C5.24379 3.59727 5.3902 3.59727 5.55244 3.59727C5.55442 3.5395 5.56036 3.48943 5.56036 3.43937C5.56036 3.08696 5.55442 2.73648 5.56431 2.38407C5.56629 2.30127 5.6019 2.20498 5.6573 2.14336C6.05301 1.69081 6.45664 1.24597 6.8563 0.795356C6.98095 0.654778 7.1333 0.573898 7.33907 0.573898C7.33907 0.435247 7.33907 0.308149 7.33907 0.181052C7.33907 0.0770633 7.37468 -0.00189123 7.4934 3.44826e-05C7.61211 3.44826e-05 7.64772 0.0809146 7.64574 0.184903C7.64574 0.312001 7.64574 0.439098 7.64574 0.573898C7.89108 0.575824 8.04739 0.700996 8.18984 0.862756C8.56379 1.29027 8.94763 1.70815 9.31959 2.13566C9.37895 2.20498 9.41654 2.3109 9.4205 2.4014C9.43237 2.74803 9.42446 3.09466 9.42446 3.44322C9.42446 3.48943 9.42446 3.53565 9.42446 3.5992C9.50162 3.5992 9.56295 3.60305 9.62627 3.5992C10.392 3.54335 10.6254 3.81873 10.6096 4.55628C10.5819 5.71171 10.6017 6.86714 10.6017 8.02257C10.6017 8.07842 10.6017 8.13426 10.6017 8.21129H10.7995C11.9906 8.21129 13.1837 8.21129 14.3748 8.21129C14.5786 8.21129 14.6538 8.25173 14.6538 8.3615C14.6538 8.47512 14.5845 8.51363 14.3787 8.51363C14.3016 8.51363 14.2224 8.51363 14.1334 8.51363V12.1282C14.1611 12.134 14.1928 12.1398 14.2244 12.1455C14.5014 12.1937 14.6518 12.3593 14.6577 12.6366C14.6636 12.9351 14.6577 13.2355 14.6577 13.5359C14.6577 13.586 14.6617 13.638 14.6636 13.6553C14.7903 13.7073 14.8932 13.7477 14.9941 13.7882V13.9018L15 13.8979ZM10.293 11.3579V11.2154C10.293 8.91033 10.293 6.60332 10.293 4.29824C10.293 4.00553 10.1763 3.89384 9.87556 3.89384C8.29273 3.89384 6.70989 3.89384 5.12705 3.89384C4.80851 3.89384 4.69771 4.00168 4.69771 4.31557C4.69771 6.61102 4.69771 8.9084 4.69771 11.2039C4.69771 11.2539 4.70364 11.304 4.70562 11.3579H10.293ZM1.18777 8.51556V12.1282H3.64908C3.7025 11.9241 3.72031 11.718 3.81132 11.5524C3.92212 11.3502 4.15954 11.3579 4.37718 11.3656V8.51556H1.18777ZM13.8089 8.51941H10.6136V11.3637C10.8312 11.356 11.0706 11.3464 11.1794 11.5505C11.2724 11.7199 11.2882 11.9299 11.3397 12.1263H13.8089V8.51941ZM10.9816 13.688C10.9816 13.068 10.9816 12.4633 10.9816 11.8605C10.9816 11.718 10.9143 11.6718 10.7343 11.6718C8.57566 11.6718 6.41707 11.6718 4.25847 11.6718C4.05864 11.6718 4.01115 11.72 4.00917 11.9164C4.00917 12.3959 4.00917 12.8773 4.00917 13.3568C4.00917 13.4647 4.00917 13.5725 4.00917 13.6842H4.50579C4.50579 13.3029 4.50381 12.9332 4.50579 12.5634C4.50777 12.2399 4.74519 12.0069 5.06374 12.0069C5.38031 12.0069 5.61576 12.2418 5.61773 12.5673C5.61971 12.8908 5.61773 13.2143 5.61773 13.5359C5.61773 13.586 5.61773 13.636 5.61773 13.6842H6.12424C6.12424 13.3029 6.12028 12.9332 6.12424 12.5634C6.13018 12.236 6.36562 12.0069 6.68219 12.0069C6.99876 12.0069 7.23025 12.238 7.23421 12.5673C7.23816 12.8908 7.23421 13.2143 7.23421 13.5359C7.23421 13.586 7.23816 13.636 7.24014 13.6861H7.74863C7.74863 13.3125 7.74863 12.9466 7.74863 12.5827C7.75061 12.2418 7.97616 12.0088 8.29866 12.0069C8.61919 12.0069 8.85464 12.2399 8.85859 12.5769C8.86255 12.8946 8.85859 13.2143 8.85859 13.5321C8.85859 13.5821 8.86255 13.6322 8.86651 13.6861H9.3651C9.3651 13.6264 9.3651 13.5744 9.3651 13.5224C9.3651 13.1989 9.36114 12.8754 9.3651 12.5538C9.36906 12.2399 9.60648 12.0088 9.91909 12.0069C10.2317 12.0069 10.4711 12.236 10.477 12.548C10.481 12.7618 10.477 12.9755 10.477 13.1893C10.477 13.3549 10.477 13.5186 10.477 13.688H10.9737H10.9816ZM5.88879 2.45725V3.58379H9.10195V2.45725H5.88879ZM13.9336 13.688H14.353C14.353 13.3549 14.353 13.0275 14.353 12.7021C14.353 12.4883 14.3075 12.444 14.0879 12.444C13.2094 12.444 12.3309 12.444 11.4525 12.444H11.31V13.6842H11.7176C11.7176 13.4974 11.7077 13.3202 11.7235 13.1469C11.7275 13.0911 11.7868 13.0179 11.8383 12.9948C11.8759 12.9774 11.959 13.0179 11.9966 13.0564C12.0262 13.0872 12.0243 13.1546 12.0262 13.2047C12.0302 13.3645 12.0262 13.5243 12.0262 13.69H12.3507C12.3507 13.5186 12.3507 13.353 12.3507 13.1873C12.3507 13.0834 12.3705 12.989 12.5011 12.9851C12.6396 12.9832 12.6614 13.0795 12.6614 13.1912C12.6594 13.3549 12.6614 13.5205 12.6614 13.69H12.9839C12.9839 13.5186 12.9839 13.353 12.9839 13.1893C12.9839 13.0853 13.0076 12.9909 13.1362 12.9871C13.2727 12.9832 13.3024 13.0776 13.3004 13.1893C13.3004 13.3549 13.3004 13.5186 13.3004 13.6861H13.6229C13.6229 13.5051 13.613 13.3337 13.6289 13.1642C13.6348 13.1026 13.6862 13.0198 13.7416 12.9929C13.8366 12.9447 13.9296 13.0294 13.9336 13.1565C13.9395 13.3318 13.9336 13.5051 13.9336 13.688ZM3.69261 12.4421C3.49673 12.4421 3.31273 12.4421 3.12872 12.4421C2.37687 12.4421 1.62503 12.4421 0.873179 12.4421C0.758423 12.4421 0.651582 12.4691 0.647625 12.5923C0.637732 12.9563 0.643668 13.3202 0.643668 13.688H1.06114C1.06114 13.5186 1.06114 13.3568 1.06114 13.197C1.06114 13.0891 1.07895 12.9871 1.21942 12.9871C1.35792 12.9871 1.37573 13.0872 1.37375 13.197C1.37177 13.3607 1.37375 13.5263 1.37375 13.688H1.69625C1.69625 13.5725 1.69625 13.4647 1.69625 13.3549C1.69625 13.0583 1.72593 12.9851 1.85058 12.9832C1.97919 12.9813 2.01282 13.0583 2.01282 13.3491V13.6842H2.33532C2.33532 13.5109 2.33532 13.3491 2.33532 13.1873C2.33532 13.0814 2.35511 12.989 2.48372 12.9851C2.62419 12.9813 2.64398 13.0814 2.64398 13.1912C2.64398 13.3568 2.64398 13.5205 2.64398 13.688H2.96846C2.96846 13.5301 2.96846 13.378 2.96846 13.2278C2.96846 13.1161 2.96055 12.9967 3.12081 12.9851C3.23161 12.9774 3.27711 13.0506 3.27909 13.222C3.27909 13.3761 3.27909 13.5321 3.27909 13.6861H3.69261V12.444V12.4421ZM8.92191 2.13758C8.61919 1.79865 8.32241 1.49632 8.06124 1.16509C7.87723 0.932082 7.66553 0.837722 7.37073 0.872384C7.25201 0.885864 7.15902 0.91475 7.07988 1.00718C6.80882 1.31915 6.52984 1.62534 6.25483 1.93345C6.19943 1.99508 6.14403 2.05863 6.0728 2.13951H8.92191V2.13758ZM6.92951 13.69C6.92951 13.2971 6.93347 12.9177 6.92753 12.5384C6.92555 12.3978 6.80882 12.3034 6.68021 12.3073C6.54567 12.3111 6.44674 12.4151 6.44279 12.5653C6.43883 12.7829 6.44279 13.0025 6.44279 13.2201C6.44279 13.3741 6.44279 13.5301 6.44279 13.69H6.93149H6.92951ZM8.55192 13.69C8.55192 13.3125 8.55192 12.9486 8.55192 12.5827C8.55192 12.4151 8.44705 12.3034 8.30262 12.3073C8.16412 12.3111 8.0652 12.4151 8.06322 12.5788C8.05926 12.8407 8.06322 13.1007 8.06322 13.3626C8.06322 13.4704 8.06322 13.5783 8.06322 13.69H8.5539H8.55192ZM10.1723 13.69C10.1723 13.3106 10.1723 12.9447 10.1723 12.5788C10.1723 12.4151 10.0774 12.3111 9.9369 12.3073C9.79049 12.3034 9.69354 12.4113 9.69156 12.5827C9.68958 12.9197 9.69156 13.2567 9.69156 13.5956C9.69156 13.6264 9.70145 13.6572 9.70739 13.69H10.1743H10.1723ZM5.30512 13.69C5.30512 13.3125 5.30512 12.9466 5.30512 12.5827C5.30512 12.4113 5.20422 12.3034 5.0578 12.3073C4.91733 12.3111 4.82434 12.4151 4.82236 12.5788C4.82038 12.912 4.82236 13.2451 4.82236 13.5763C4.82236 13.6129 4.83027 13.6476 4.83423 13.688H5.30314L5.30512 13.69Z" fill="#410EAD"/>
<path d="M5.66139 9.89991C5.60401 9.89991 5.54466 9.90377 5.48728 9.89991C5.39231 9.89221 5.3191 9.83637 5.33691 9.74778C5.34878 9.69001 5.42199 9.61298 5.47739 9.60335C5.59808 9.58025 5.72866 9.58987 5.85331 9.59758C5.9463 9.60335 6.02149 9.66305 5.99577 9.75549C5.97994 9.81326 5.90871 9.8691 5.84738 9.89606C5.79593 9.91917 5.72273 9.90184 5.66139 9.90184V9.89991Z" fill="#410EAD"/>
<path d="M9.32348 9.89985C9.26017 9.89985 9.18696 9.91911 9.1375 9.89407C9.07814 9.86519 9.00098 9.79971 9.00098 9.74964C9.00098 9.69958 9.07814 9.61292 9.13354 9.60329C9.26017 9.58211 9.39669 9.58211 9.52331 9.60329C9.57673 9.61292 9.65588 9.7015 9.6539 9.75157C9.65192 9.80164 9.5708 9.86519 9.51144 9.89407C9.46 9.91718 9.38877 9.89985 9.32546 9.89985H9.32348Z" fill="#410EAD"/>
<path d="M9.32546 7.3581C9.26214 7.3581 9.18894 7.37736 9.13947 7.35232C9.08012 7.32344 9.00296 7.25796 9.00098 7.20789C9.00098 7.15783 9.07814 7.07117 9.13156 7.06154C9.25819 7.04036 9.39471 7.03843 9.52133 7.06154C9.57673 7.07117 9.6539 7.15975 9.6539 7.20982C9.6539 7.25989 9.57278 7.32536 9.51342 7.35425C9.46198 7.37736 9.39075 7.36003 9.32744 7.36003L9.32546 7.3581Z" fill="#410EAD"/>
<path d="M5.66506 7.35835C5.60174 7.35835 5.52854 7.3776 5.47907 7.35257C5.41972 7.32368 5.34058 7.25821 5.34058 7.20814C5.34058 7.15807 5.41972 7.07141 5.47512 7.06179C5.60174 7.0406 5.73826 7.0406 5.86489 7.06179C5.91831 7.07141 5.99547 7.16 5.9935 7.21007C5.9935 7.26013 5.91238 7.32561 5.85302 7.35257C5.80158 7.37568 5.73035 7.35835 5.66704 7.35835H5.66506Z" fill="#410EAD"/>
<path d="M5.65311 4.81616C5.58979 4.81616 5.51659 4.83734 5.46712 4.81038C5.40975 4.77957 5.34248 4.71217 5.33852 4.65632C5.33456 4.61203 5.41568 4.53115 5.4691 4.52152C5.59573 4.50226 5.73225 4.50034 5.85888 4.52152C5.91428 4.53115 5.9855 4.61396 5.99144 4.66788C5.99737 4.71217 5.92219 4.78727 5.86679 4.80845C5.80546 4.83349 5.72434 4.81423 5.65113 4.81423L5.65311 4.81616Z" fill="#410EAD"/>
<path d="M6.88393 9.90031C6.82457 9.90031 6.76719 9.90416 6.70784 9.90031C6.61287 9.89261 6.53768 9.84061 6.55945 9.74625C6.5733 9.68848 6.64452 9.61145 6.7019 9.60182C6.82457 9.58064 6.95713 9.58064 7.0798 9.60182C7.1352 9.61145 7.21632 9.69811 7.21434 9.7501C7.21434 9.80017 7.13322 9.86565 7.07189 9.89453C7.02045 9.91957 6.94724 9.90031 6.88393 9.90031Z" fill="#410EAD"/>
<path d="M8.10488 10.4451C8.16819 10.4451 8.2414 10.4258 8.29284 10.4508C8.35219 10.4797 8.42144 10.5413 8.42936 10.5972C8.43529 10.6396 8.35813 10.7281 8.30867 10.7358C8.1761 10.7551 8.03563 10.7551 7.90109 10.7358C7.84964 10.7281 7.7705 10.6376 7.77644 10.5972C7.78435 10.5413 7.85756 10.4797 7.91692 10.4528C7.96836 10.4277 8.04156 10.447 8.10488 10.447V10.4451Z" fill="#410EAD"/>
<path d="M6.88598 7.05395C6.94929 7.05395 7.0225 7.03469 7.07394 7.05973C7.13528 7.08861 7.21442 7.15409 7.21442 7.20608C7.21442 7.25615 7.13528 7.34281 7.0779 7.35243C6.95523 7.37554 6.82267 7.37554 6.7 7.35243C6.6446 7.34281 6.56348 7.26 6.56348 7.20801C6.56348 7.15794 6.63866 7.08861 6.69802 7.05973C6.74946 7.03469 6.82267 7.05395 6.88598 7.05395Z" fill="#410EAD"/>
<path d="M6.87413 10.7492C6.80686 10.7454 6.72772 10.7608 6.67232 10.7319C6.6189 10.7049 6.5635 10.6337 6.56152 10.5798C6.56152 10.5355 6.63275 10.4584 6.68221 10.4507C6.81676 10.4334 6.95723 10.4315 7.0898 10.4507C7.14124 10.4584 7.21444 10.5413 7.21642 10.5913C7.21642 10.6395 7.14717 10.7126 7.09177 10.7338C7.02846 10.7589 6.94734 10.7396 6.87413 10.7396C6.87413 10.7415 6.87413 10.7454 6.87413 10.7473V10.7492Z" fill="#410EAD"/>
<path d="M9.31955 4.81611C9.25624 4.81611 9.18303 4.83536 9.13356 4.81033C9.07421 4.78144 8.99902 4.71212 8.99902 4.66205C8.99902 4.61198 9.07817 4.52918 9.13554 4.51955C9.25821 4.49836 9.3888 4.49644 9.51147 4.51955C9.56884 4.52918 9.64997 4.61006 9.65194 4.66012C9.65194 4.71019 9.57874 4.78337 9.51938 4.81033C9.46398 4.83536 9.38682 4.81611 9.31955 4.81611Z" fill="#410EAD"/>
<path d="M6.87799 4.81613C6.81467 4.81613 6.73949 4.83732 6.69002 4.81036C6.63265 4.77955 6.56538 4.71215 6.56142 4.6563C6.55746 4.61201 6.63858 4.53113 6.69002 4.5215C6.81269 4.50032 6.94526 4.49839 7.06793 4.5215C7.1253 4.53113 7.20247 4.60623 7.21434 4.66208C7.23413 4.75066 7.16092 4.80843 7.06595 4.81806C7.00264 4.82384 6.93932 4.81806 6.87601 4.81806C6.87601 4.81806 6.87601 4.81806 6.87601 4.81613H6.87799Z" fill="#410EAD"/>
<path d="M8.10683 9.89985C8.04352 9.89985 7.97031 9.91911 7.91887 9.89407C7.85753 9.86519 7.78631 9.80356 7.77839 9.74579C7.77246 9.70343 7.8516 9.61099 7.90106 9.60329C8.03362 9.58211 8.17608 9.58211 8.30864 9.60329C8.35811 9.61099 8.43725 9.7015 8.43131 9.74387C8.42538 9.79971 8.35415 9.86326 8.29479 9.89215C8.24335 9.91718 8.17014 9.89792 8.10683 9.89792V9.89985Z" fill="#410EAD"/>
<path d="M8.09293 7.36028C8.03358 7.36028 7.96631 7.37954 7.91882 7.35643C7.85749 7.32562 7.77835 7.26207 7.77637 7.212C7.77637 7.16193 7.85551 7.07527 7.91091 7.06372C8.03358 7.04061 8.16614 7.04061 8.28881 7.06372C8.34619 7.07335 8.41742 7.15038 8.43127 7.20815C8.45303 7.30058 8.37587 7.35258 8.2809 7.3622C8.21758 7.36798 8.15427 7.3622 8.09096 7.3622L8.09293 7.36028Z" fill="#410EAD"/>
<path d="M5.65328 6.50882C5.59393 6.50882 5.52666 6.52808 5.47917 6.50497C5.41982 6.47416 5.34661 6.41446 5.33869 6.35861C5.33276 6.31625 5.4119 6.22574 5.46136 6.21804C5.59393 6.19685 5.7344 6.19685 5.86895 6.21804C5.92039 6.22574 5.99755 6.31432 5.99162 6.35669C5.9837 6.41253 5.91445 6.47608 5.8551 6.50304C5.79772 6.52808 5.72055 6.50882 5.65328 6.50882Z" fill="#410EAD"/>
<path d="M9.33759 10.445C9.39694 10.445 9.46421 10.4258 9.5117 10.4489C9.57105 10.4797 9.65217 10.5413 9.65415 10.5914C9.65415 10.6414 9.57501 10.7262 9.51961 10.7358C9.39101 10.757 9.25449 10.757 9.12786 10.7358C9.07444 10.7262 9.00717 10.6376 9.00321 10.5817C9.00123 10.5394 9.08037 10.472 9.13775 10.4508C9.19711 10.4277 9.27229 10.445 9.34154 10.445H9.33759Z" fill="#410EAD"/>
<path d="M6.88584 6.50884C6.82253 6.50884 6.74932 6.5281 6.69788 6.50306C6.63852 6.47418 6.56927 6.41255 6.56136 6.35671C6.55542 6.31434 6.63259 6.22576 6.68403 6.21806C6.81659 6.1988 6.95707 6.1988 7.09161 6.21806C7.14305 6.22576 7.22219 6.31627 7.21428 6.35863C7.20439 6.41448 7.13316 6.4761 7.0738 6.50306C7.02236 6.5281 6.94915 6.50884 6.88584 6.50884Z" fill="#410EAD"/>
<path d="M8.10874 6.50713C8.04147 6.50713 7.9643 6.52639 7.90693 6.50136C7.85153 6.47825 7.77832 6.41085 7.77832 6.36078C7.77832 6.31264 7.84955 6.22598 7.89901 6.21828C8.03157 6.19709 8.17205 6.19517 8.30461 6.21828C8.35606 6.22598 8.42531 6.31456 8.42926 6.37041C8.43124 6.41277 8.3521 6.47825 8.2967 6.50328C8.24328 6.52639 8.17205 6.50906 8.10874 6.50906V6.50713Z" fill="#410EAD"/>
<path d="M9.32169 6.50718C9.25244 6.50718 9.17528 6.52644 9.11988 6.50141C9.06448 6.47637 9.00314 6.40897 8.99919 6.35505C8.99523 6.31269 9.06448 6.22603 9.10998 6.22025C9.24848 6.20099 9.39292 6.19907 9.53142 6.22025C9.58088 6.22795 9.66002 6.32039 9.65211 6.36083C9.64221 6.41667 9.56901 6.47637 9.50965 6.50526C9.45821 6.52837 9.385 6.51103 9.32169 6.51103C9.32169 6.51103 9.32169 6.51104 9.32169 6.50911V6.50718Z" fill="#410EAD"/>
<path d="M8.10485 4.51391C8.16817 4.51391 8.24137 4.49465 8.29281 4.51969C8.35217 4.54857 8.4234 4.61019 8.43131 4.66604C8.43725 4.71033 8.36008 4.80084 8.31062 4.80854C8.17806 4.82973 8.0356 4.82973 7.90304 4.80854C7.8516 4.80084 7.77246 4.71033 7.77839 4.66797C7.78631 4.61212 7.85753 4.54857 7.91689 4.51969C7.96833 4.49465 8.04154 4.51391 8.10485 4.51391Z" fill="#410EAD"/>
<path d="M5.66909 10.7418C5.60182 10.7418 5.52466 10.761 5.46728 10.736C5.41188 10.7129 5.33472 10.6378 5.34065 10.5973C5.34857 10.5415 5.42178 10.4625 5.47717 10.4529C5.59984 10.4317 5.73241 10.4317 5.85508 10.4529C5.91048 10.4625 5.9916 10.5453 5.9916 10.5935C5.9916 10.6435 5.91443 10.7109 5.85508 10.7398C5.80363 10.7649 5.73043 10.7456 5.66712 10.7456L5.66909 10.7418Z" fill="#410EAD"/>
<path d="M9.32944 5.36498C9.39275 5.36498 9.46596 5.34573 9.5174 5.37076C9.57676 5.39965 9.64601 5.4632 9.65392 5.51904C9.65986 5.55948 9.57676 5.64614 9.52532 5.65384C9.39275 5.6731 9.25228 5.6731 9.11774 5.65384C9.06827 5.64614 8.99902 5.55948 8.99902 5.51134C8.99902 5.46319 9.07025 5.39579 9.12565 5.37461C9.18303 5.3515 9.26019 5.36884 9.32746 5.36884L9.32944 5.36498Z" fill="#410EAD"/>
<path d="M5.66315 5.6576C5.59588 5.6576 5.51871 5.67686 5.46133 5.65182C5.40594 5.62872 5.33669 5.55746 5.33866 5.50932C5.33866 5.46118 5.41385 5.3803 5.46529 5.3726C5.5939 5.35334 5.73042 5.35141 5.85704 5.3726C5.91244 5.38222 5.99159 5.46696 5.98961 5.51702C5.98961 5.56709 5.90849 5.63064 5.84913 5.6576C5.79769 5.68071 5.72448 5.66338 5.66117 5.66338C5.66117 5.66338 5.66117 5.66338 5.66117 5.66145L5.66315 5.6576Z" fill="#410EAD"/>
<path d="M8.11078 5.36694C8.17805 5.36694 8.25719 5.34768 8.31259 5.37271C8.36601 5.39775 8.42735 5.46515 8.4313 5.51907C8.43526 5.56143 8.36403 5.64617 8.31853 5.65194C8.18003 5.66927 8.0356 5.6712 7.8971 5.65194C7.84763 5.64424 7.77443 5.55758 7.77641 5.50944C7.77641 5.4613 7.84961 5.39582 7.90699 5.37271C7.96437 5.34961 8.04153 5.36694 8.1088 5.36694H8.11078Z" fill="#410EAD"/>
<path d="M8.11674 7.90695C8.18005 7.90695 8.25326 7.88769 8.3047 7.91273C8.3601 7.93776 8.42935 8.00323 8.42935 8.0533C8.42935 8.10145 8.3601 8.18618 8.31064 8.19388C8.17808 8.21314 8.0376 8.21506 7.90306 8.19388C7.85162 8.18618 7.7705 8.09952 7.77643 8.05715C7.78435 8.00131 7.85557 7.93776 7.91493 7.9108C7.97231 7.88577 8.04947 7.90502 8.11674 7.90502V7.90695Z" fill="#410EAD"/>
<path d="M6.88796 9.04893C6.82069 9.04893 6.74352 9.06819 6.68615 9.04316C6.63075 9.02005 6.56348 8.95072 6.56348 8.90258C6.56348 8.85444 6.6347 8.7697 6.68417 8.762C6.81673 8.74274 6.95721 8.74274 7.09175 8.762C7.14319 8.7697 7.22431 8.85829 7.2164 8.89873C7.20848 8.95457 7.13725 9.0162 7.0779 9.04508C7.02646 9.07012 6.95325 9.05086 6.88994 9.05086L6.88796 9.04893Z" fill="#410EAD"/>
<path d="M5.68098 7.90498C5.74034 7.90498 5.80761 7.88573 5.85312 7.90883C5.91247 7.93965 5.9837 7.99742 5.99162 8.05326C5.99755 8.0937 5.92039 8.18421 5.87092 8.19192C5.73836 8.21117 5.59788 8.21117 5.46334 8.19192C5.4119 8.18421 5.33276 8.09563 5.33869 8.05519C5.34859 7.99934 5.41784 7.93579 5.47719 7.91076C5.53457 7.88573 5.61173 7.90498 5.679 7.90498H5.68098Z" fill="#410EAD"/>
<path d="M6.88779 7.90502C6.95111 7.90502 7.02431 7.88577 7.07576 7.9108C7.13511 7.93969 7.20634 8.00131 7.21623 8.05715C7.22217 8.09759 7.14303 8.18618 7.09158 8.19388C6.95902 8.21314 6.81854 8.21314 6.684 8.19388C6.63454 8.18618 6.55738 8.09759 6.56331 8.05523C6.57123 8.00131 6.64245 7.93969 6.70181 7.9108C6.75325 7.88769 6.82646 7.90502 6.88977 7.90502H6.88779Z" fill="#410EAD"/>
<path d="M6.89174 5.36702C6.95901 5.36702 7.03815 5.34777 7.09355 5.3728C7.14895 5.39784 7.21028 5.46524 7.21424 5.51916C7.2182 5.56152 7.14499 5.64433 7.09751 5.6501C6.95901 5.66744 6.81458 5.66936 6.67608 5.6501C6.62859 5.64433 6.55934 5.55574 6.56132 5.50568C6.56132 5.45753 6.63453 5.39206 6.68993 5.36895C6.7473 5.34584 6.82447 5.36317 6.89174 5.36317V5.36702Z" fill="#410EAD"/>
<path d="M8.10091 9.04889C8.0376 9.04889 7.96439 9.06814 7.91295 9.04311C7.85359 9.01422 7.78435 8.95067 7.77643 8.89483C7.7705 8.85439 7.85162 8.76773 7.90504 8.76003C8.03364 8.73884 8.17016 8.73884 8.29679 8.76003C8.35021 8.76966 8.42935 8.85439 8.42737 8.90446C8.42737 8.95453 8.34823 9.01807 8.28887 9.04503C8.23743 9.06814 8.16423 9.05081 8.10091 9.04889Z" fill="#410EAD"/>
<path d="M9.3216 9.04864C9.25828 9.04864 9.18508 9.0679 9.13364 9.04286C9.07428 9.01398 9.00701 8.95043 8.99909 8.89458C8.99316 8.85222 9.0723 8.76748 9.12374 8.75978C9.25235 8.7386 9.38887 8.73667 9.5155 8.75978C9.57089 8.76941 9.65202 8.85414 9.65004 8.90421C9.65004 8.95428 9.56892 9.01783 9.50758 9.04479C9.45614 9.0679 9.38293 9.05056 9.31962 9.05056L9.3216 9.04864Z" fill="#410EAD"/>
<path d="M5.67509 9.04898C5.60584 9.04898 5.53066 9.06631 5.47328 9.0432C5.4159 9.02009 5.33676 8.95076 5.34072 8.9084C5.34665 8.85255 5.41788 8.76975 5.4713 8.76012C5.59793 8.73894 5.73247 8.74856 5.86503 8.75434C5.95605 8.75819 6.02134 8.82174 5.9976 8.90455C5.98177 8.96232 5.91054 9.01624 5.85118 9.04513C5.8037 9.06823 5.73643 9.04898 5.67707 9.04898H5.67509Z" fill="#410EAD"/>
<path d="M9.32754 8.19976C9.26027 8.19976 9.18311 8.21902 9.12573 8.19399C9.07033 8.17088 8.99317 8.09963 8.9991 8.05726C9.00702 8.00142 9.07824 7.92246 9.13167 7.91091C9.25434 7.88972 9.3869 7.88972 9.50957 7.91091C9.56695 7.92054 9.65004 7.99949 9.65004 8.04956C9.65004 8.0977 9.57288 8.16703 9.51352 8.19399C9.46208 8.21902 9.38888 8.19976 9.32556 8.19976H9.32754Z" fill="#410EAD"/>
<path d="M2.78654 9.33204C2.49371 9.33204 2.20089 9.33204 1.90806 9.33204C1.79727 9.33204 1.70427 9.30315 1.70032 9.18376C1.69636 9.06244 1.78935 9.02393 1.89817 9.02393C2.48778 9.02393 3.07936 9.02393 3.66897 9.02393C3.77186 9.02393 3.85891 9.05859 3.86089 9.17413C3.86089 9.29738 3.77581 9.33204 3.66304 9.33011C3.37021 9.33011 3.07739 9.33011 2.78456 9.33011L2.78654 9.33204Z" fill="#410EAD"/>
<path d="M2.78851 9.79062C3.07738 9.79062 3.36427 9.79062 3.65314 9.79062C3.76196 9.79062 3.85693 9.81372 3.86088 9.93697C3.86682 10.0698 3.76591 10.0987 3.65314 10.0987C3.07144 10.0987 2.49173 10.0987 1.91004 10.0987C1.79528 10.0987 1.69635 10.066 1.70031 9.93697C1.70427 9.81758 1.79924 9.78869 1.91004 9.79062C2.20286 9.79254 2.49569 9.79062 2.78851 9.79062Z" fill="#410EAD"/>
<path d="M2.77655 10.8531C2.48966 10.8531 2.2008 10.8531 1.91391 10.8531C1.79915 10.8531 1.69825 10.83 1.70022 10.6971C1.7022 10.5758 1.79915 10.5508 1.90797 10.5508C2.48769 10.5508 3.06938 10.5508 3.64909 10.5508C3.76187 10.5508 3.86278 10.57 3.8608 10.7068C3.85882 10.8339 3.75989 10.8531 3.65305 10.8512C3.36022 10.8512 3.0674 10.8512 2.77457 10.8512L2.77655 10.8531Z" fill="#410EAD"/>
<path d="M2.48768 11.6178C2.28785 11.6178 2.08802 11.6178 1.88818 11.6178C1.77936 11.6178 1.70022 11.5773 1.69824 11.4676C1.69824 11.3559 1.77936 11.3154 1.8862 11.3154C2.27993 11.3154 2.67564 11.3154 3.06938 11.3154C3.18017 11.3154 3.26921 11.3539 3.26525 11.4733C3.26129 11.5831 3.17819 11.6197 3.07135 11.6197C2.87746 11.6178 2.68158 11.6197 2.48768 11.6197V11.6178Z" fill="#410EAD"/>
<path d="M12.2142 9.33207C11.9214 9.33207 11.6286 9.33207 11.3357 9.33207C11.2269 9.33207 11.1339 9.30703 11.132 9.18379C11.128 9.05862 11.221 9.02588 11.3298 9.02588C11.9155 9.02588 12.5011 9.02588 13.0868 9.02588C13.1956 9.02588 13.2925 9.05669 13.2925 9.17801C13.2925 9.30703 13.1956 9.33399 13.0788 9.33399C12.79 9.33014 12.5031 9.33399 12.2142 9.33399V9.33207Z" fill="#410EAD"/>
<path d="M12.2003 10.0986C11.9214 10.0986 11.6444 10.0986 11.3654 10.0986C11.2526 10.0986 11.1418 10.0909 11.1299 9.94651C11.122 9.84252 11.2012 9.79053 11.3575 9.79053C11.9293 9.79053 12.4991 9.79053 13.0709 9.79053C13.1856 9.79053 13.2806 9.81171 13.2945 9.94073C13.3044 10.0409 13.2193 10.0986 13.065 10.0986C12.7761 10.0986 12.4892 10.0986 12.2003 10.0986Z" fill="#410EAD"/>
<path d="M12.2162 10.5547C12.5031 10.5547 12.7919 10.5547 13.0788 10.5547C13.1936 10.5547 13.2945 10.5797 13.2925 10.7107C13.2925 10.832 13.1936 10.857 13.0848 10.857C12.5051 10.857 11.9234 10.857 11.3437 10.857C11.2309 10.857 11.128 10.8397 11.1319 10.703C11.1359 10.5662 11.2427 10.5566 11.3516 10.5566C11.6385 10.5566 11.9273 10.5566 12.2142 10.5566L12.2162 10.5547Z" fill="#410EAD"/>
<path d="M12.5089 11.6177C12.315 11.6177 12.1191 11.6177 11.9252 11.6177C11.8124 11.6177 11.7253 11.5812 11.7273 11.4618C11.7273 11.3501 11.8144 11.3135 11.9192 11.3135C12.313 11.3135 12.7087 11.3135 13.1024 11.3135C13.2073 11.3135 13.2943 11.3501 13.2943 11.4618C13.2943 11.5812 13.2073 11.6177 13.0945 11.6158C12.9006 11.6139 12.7047 11.6158 12.5108 11.6158L12.5089 11.6177Z" fill="#410EAD"/>
</svg>
