<svg width="16" height="15" viewBox="0 0 16 15" fill="none" xmlns="http://www.w3.org/2000/svg">
<path d="M0.302027 6.37921C0.0149768 6.14731 -0.107331 5.88937 0.197191 5.60777C0.349452 5.46579 0.619029 5.46342 0.77129 5.60304C1.0808 5.88227 0.963489 6.14021 0.68892 6.37212C0.796251 6.40998 0.913567 6.41944 0.968481 6.48097C1.02589 6.54486 1.02589 6.65608 1.05335 6.76257H1.29547C1.33208 6.54328 1.45439 6.41865 1.66239 6.38868C1.62246 6.34609 1.59749 6.31532 1.56505 6.28929C1.34789 6.10708 1.32542 5.83021 1.51512 5.64327C1.69983 5.46105 2.01184 5.46579 2.18907 5.65036C2.37877 5.84678 2.34882 6.13074 2.11918 6.30349C2.09172 6.32479 2.04929 6.32952 2.00436 6.34608C2.14414 6.41708 2.24648 6.44074 2.2964 6.50227C2.34382 6.56379 2.33883 6.66555 2.3588 6.76257H2.62339C2.66998 6.54328 2.80477 6.42023 3.02775 6.39341C2.98282 6.34845 2.95287 6.31295 2.91792 6.28219C2.71574 6.10945 2.69827 5.82311 2.88048 5.64327C3.0627 5.46342 3.3772 5.46579 3.55443 5.65036C3.73165 5.83494 3.70918 6.11654 3.50201 6.28929C3.47205 6.31532 3.4421 6.34135 3.37221 6.40524C3.66176 6.39105 3.73165 6.52593 3.6967 6.73891H4.02119C4.07611 6.43127 4.07611 6.42891 4.36066 6.39578C4.32322 6.35318 4.30076 6.32005 4.2708 6.29639C4.05115 6.11181 4.02619 5.83968 4.21339 5.65036C4.39561 5.46579 4.70762 5.46579 4.88733 5.65036C5.07454 5.84204 5.05208 6.11891 4.82993 6.29402C4.79997 6.31769 4.75005 6.32479 4.71011 6.33899C4.72759 6.35318 4.74506 6.36738 4.76253 6.38158C4.85489 6.41708 4.97719 6.42891 5.0346 6.4928C5.09201 6.55433 5.08702 6.67028 5.10949 6.76967H5.57875C5.57875 6.49517 5.56128 6.2254 5.58374 5.958C5.6137 5.58884 5.54131 5.26228 5.28421 4.97121C5.13195 4.80083 5.22431 4.65174 5.46143 4.63281C5.49388 4.63045 5.52384 4.62571 5.56377 4.62335C5.56877 4.58549 5.57875 4.55236 5.57875 4.51923C5.58624 4.11221 5.59373 3.70755 5.60122 3.30053C5.60371 3.07572 5.62867 3.04259 5.89326 2.96214C5.84084 2.93374 5.80589 2.92191 5.77844 2.89824C5.5463 2.70893 5.5463 2.41787 5.77095 2.21909C5.80589 2.18833 5.83335 2.14336 5.85582 2.10077C5.8683 2.07474 5.85831 2.04161 5.85831 2.01085C5.85831 1.8026 5.85831 1.59436 5.85831 1.36009C5.64115 1.36009 5.43398 1.36009 5.2293 1.36009C4.91979 1.36009 4.88484 1.32696 4.88234 1.04062C4.88234 0.770854 4.88234 0.501084 4.88234 0.233682C4.88234 0.0680338 4.94974 0.00414119 5.12696 0.0017748C5.4215 -0.000591599 5.71604 -0.000591599 6.01057 0.0017748C6.20776 0.0017748 6.26767 0.060935 6.26767 0.250247C6.26767 0.844212 6.26767 1.43818 6.27017 2.03214C6.27017 2.08657 6.28764 2.15756 6.32508 2.19069C6.60215 2.4439 6.59965 2.67817 6.30761 2.92664C6.29263 2.93847 6.28265 2.95504 6.26767 2.97397C6.52394 3.02919 6.65207 3.18694 6.65207 3.44725C6.65207 3.50168 6.65207 3.55847 6.65207 3.6129C6.79434 3.66496 6.88171 3.62236 6.95409 3.51114C7.15129 3.21061 7.19871 2.88168 7.22617 2.53619C7.25862 2.14336 7.34099 1.76237 7.70042 1.49497C7.92008 1.33169 8.01743 1.32932 8.23458 1.4997C8.53911 1.73634 8.68139 2.04634 8.65892 2.41077C8.64894 2.55985 8.55159 2.70183 8.6065 2.86275C8.66641 3.04023 8.70385 3.22717 8.78372 3.39755C8.89854 3.64603 8.96095 3.66259 9.28045 3.61526C9.28045 3.51824 9.28045 3.41885 9.28045 3.31946C9.28045 3.05206 9.29792 3.03076 9.58996 2.9787C9.54753 2.94084 9.51508 2.91244 9.48263 2.88405C9.28045 2.7042 9.27545 2.41077 9.48512 2.23802C9.565 2.17413 9.58746 2.10787 9.58497 2.01558C9.57998 1.8168 9.58247 1.62039 9.57998 1.42161C9.57998 1.40741 9.56999 1.39322 9.56001 1.36245C9.33037 1.36245 9.09573 1.36245 8.8611 1.36245C8.64394 1.36245 8.58154 1.30329 8.58154 1.10215C8.58154 0.822914 8.58154 0.54368 8.58154 0.264445C8.58154 0.0680341 8.64394 0.00414125 8.84613 0.00414125C9.14566 0.00414125 9.44519 0.00177485 9.74721 0.00414125C9.93442 0.00414125 9.99682 0.0656677 9.99682 0.245514C9.99682 0.844212 9.99682 1.44528 9.99932 2.04398C9.99932 2.09604 10.0218 2.16466 10.0592 2.20016C10.3213 2.43206 10.3238 2.69473 10.0542 2.91718C10.0343 2.93374 10.0093 2.94321 9.98933 2.95267C10.0093 2.98107 10.0143 2.99527 10.0218 2.99527C10.3038 3.02366 10.3363 3.05679 10.3363 3.3242C10.3363 3.70045 10.3363 4.07671 10.3363 4.4506V4.63518C10.4037 4.63518 10.4561 4.63518 10.5085 4.63518C10.7182 4.64465 10.8031 4.78426 10.6957 4.95938C10.6034 5.11319 10.496 5.25991 10.4012 5.41372C10.3712 5.46105 10.3413 5.51548 10.3413 5.56754C10.3363 5.96273 10.3388 6.36028 10.3388 6.7673H10.848C10.848 6.58509 10.843 6.39105 11.17 6.41234C11.1051 6.34845 11.0726 6.31295 11.0377 6.28219C10.8355 6.10708 10.823 5.82311 11.0077 5.64327C11.1875 5.46815 11.4945 5.47052 11.6717 5.64563C11.8539 5.82784 11.8389 6.10945 11.6343 6.28456C11.6018 6.31296 11.5669 6.34135 11.5244 6.37921C11.6442 6.41234 11.769 6.41471 11.8314 6.47387C11.8963 6.5354 11.8988 6.65372 11.9363 6.76494H12.2109C12.2034 6.58036 12.2084 6.38868 12.5079 6.40761C12.5229 6.38158 12.5403 6.35792 12.5553 6.33189C12.5054 6.31532 12.443 6.31059 12.4055 6.27983C12.1984 6.10945 12.1859 5.82548 12.3681 5.64327C12.5453 5.46815 12.8523 5.46579 13.0321 5.64327C13.2168 5.82311 13.2043 6.10708 13.0021 6.28219C12.9697 6.31059 12.9372 6.33899 12.8898 6.37921C13.0096 6.40998 13.1244 6.40998 13.1868 6.46677C13.2517 6.52356 13.2617 6.63479 13.3041 6.73891H13.5537C13.6137 6.43837 13.6161 6.43601 13.8732 6.39578C13.8358 6.35555 13.8133 6.32242 13.7834 6.29639C13.5637 6.11418 13.5413 5.83968 13.7285 5.65036C13.9107 5.46815 14.2227 5.46815 14.4024 5.65036C14.5896 5.84204 14.5672 6.11654 14.345 6.29402C14.315 6.31769 14.2651 6.32242 14.2227 6.33425C14.2402 6.35082 14.2601 6.36738 14.2776 6.38395C14.375 6.41234 14.4998 6.41471 14.5622 6.47387C14.6246 6.5354 14.6271 6.65608 14.6595 6.76494H14.9291C14.9416 6.68448 14.9291 6.58746 14.9715 6.5212C15.0115 6.45731 15.1063 6.42418 15.1937 6.36502C15.1762 6.34845 15.1438 6.31296 15.1088 6.28456C14.9041 6.10945 14.8867 5.83021 15.0689 5.64563C15.2461 5.46815 15.5506 5.46579 15.7328 5.63853C15.925 5.82311 15.9076 6.10708 15.6954 6.28692C15.6654 6.31296 15.638 6.33899 15.5905 6.38158C15.643 6.39578 15.6704 6.40761 15.6979 6.40998C15.955 6.42181 16.0024 6.46677 15.9999 6.71524C15.9924 7.47722 15.9799 8.23684 15.9749 8.99882C15.97 9.68507 15.97 10.3713 15.9749 11.0552C15.9799 12.2573 15.9924 13.4618 15.9999 14.664C15.9999 14.9172 15.9225 14.9929 15.6579 14.9929C14.2651 14.9929 12.8723 14.9929 11.4795 14.9929C10.3288 14.9929 9.17561 14.9976 8.02491 15C6.49232 15 4.96222 15 3.42962 15C2.36379 15 1.29796 15 0.232136 15C0.0624022 15 0 14.9408 0 14.7657C0 13.521 0 12.2763 0 11.0316C0 9.60225 0 8.17058 0 6.74127C0 6.46914 0.0124807 6.45257 0.304523 6.38395L0.302027 6.37921ZM6.00059 7.7115H9.91944V5.5912H6.00059V7.7115ZM7.02898 8.11852V10.4896H8.91602V8.11852H7.02898ZM9.85455 10.4873H11.7441V8.12325H9.85455V10.4873ZM6.09045 8.12088H4.22338V10.4873H6.09045V8.12088ZM0.394381 8.12088V10.4896H2.27393V8.12088H0.394381ZM13.6935 8.12088V10.4944H15.5456V8.12088H13.6935ZM13.7035 11.5119C13.7035 11.6444 13.7035 11.7604 13.7035 11.8764C13.7035 12.7401 13.7035 13.6038 13.7035 14.4676C13.7035 14.5196 13.721 14.6048 13.7559 14.6214C13.9381 14.7018 14.0654 14.6143 14.0654 14.425C14.0654 13.76 14.0654 13.095 14.0654 12.4277C14.0654 12.1603 14.1828 11.9852 14.3999 11.9071C14.7743 11.7746 15.1637 12.0207 15.1662 12.3993C15.1712 13.0856 15.1662 13.7718 15.1662 14.4557C15.1662 14.5102 15.1662 14.5622 15.1662 14.6166H15.5706V11.5119H13.6985H13.7035ZM0.768794 14.619C0.768794 14.5551 0.768794 14.5007 0.768794 14.4463C0.768794 13.7647 0.768794 13.0856 0.768794 12.4041C0.768794 12.1485 0.911071 11.9615 1.14321 11.8953C1.52012 11.7888 1.8471 12.0254 1.8496 12.4206C1.85459 13.0903 1.8496 13.76 1.8496 14.4321C1.8496 14.4912 1.8496 14.5504 1.8496 14.6143H2.27144V11.5119H0.416846V14.6166H0.766299L0.768794 14.619ZM8.51165 14.6119C8.63645 14.6474 8.6689 14.6048 8.66641 14.5102C8.66142 14.3374 8.65393 14.1647 8.6714 13.9919C8.67889 13.9186 8.73879 13.8097 8.7987 13.7931C8.91103 13.7624 8.9235 13.7127 8.9235 13.6228C8.92101 12.9673 8.9235 12.3118 8.9235 11.6563C8.9235 11.6066 8.91851 11.5593 8.91352 11.5072H7.04146C7.03147 11.5238 7.02149 11.5309 7.02149 11.5403C7.01899 12.2573 7.0165 12.972 7.0165 13.689C7.0165 13.7174 7.05144 13.7671 7.08139 13.7742C7.22617 13.8121 7.25113 13.9138 7.25113 14.0345C7.25113 14.2262 7.25113 14.4179 7.25113 14.6143H7.42585C7.42585 14.5457 7.42585 14.4912 7.42585 14.4344C7.42585 13.7647 7.42585 13.0927 7.42585 12.423C7.42585 12.1509 7.56064 11.9639 7.79777 11.8953C8.17468 11.7864 8.50666 12.0254 8.50916 12.4159C8.51415 13.0714 8.50916 13.7269 8.50916 14.3824C8.50916 14.4581 8.50916 14.5338 8.50916 14.6143L8.51165 14.6119ZM4.62525 14.619C4.62525 14.5504 4.62525 14.4936 4.62525 14.4392C4.62525 13.7576 4.62525 13.0785 4.62525 12.397C4.62525 12.1414 4.77002 11.9568 5.00465 11.8929C5.38406 11.7888 5.70605 12.0325 5.70356 12.4277C5.70106 13.1021 5.69108 13.7789 5.68359 14.4534C5.68359 14.5078 5.68359 14.5622 5.68359 14.6119C5.8034 14.6474 5.83834 14.6119 5.83585 14.5149C5.83085 14.3421 5.83585 14.1694 5.83585 13.9966C5.83585 13.8973 5.8658 13.8026 5.98062 13.7884C6.09794 13.7718 6.09544 13.7079 6.09544 13.6275C6.09544 12.9673 6.09544 12.307 6.09544 11.6468C6.09544 11.6019 6.08795 11.5593 6.08546 11.5119H4.23087C4.22338 11.5332 4.21589 11.5474 4.21589 11.5616C4.21589 12.2668 4.21589 12.9744 4.21589 13.6796C4.21589 13.7127 4.24335 13.7671 4.26831 13.7718C4.43554 13.8097 4.44802 13.9233 4.44553 14.0534C4.44303 14.2404 4.44553 14.425 4.44553 14.619H4.62774H4.62525ZM11.3123 14.6095C11.4346 14.6498 11.4745 14.6143 11.4695 14.5102C11.4645 14.3374 11.4695 14.1647 11.4695 13.9919C11.4695 13.8902 11.507 13.7979 11.6168 13.7884C11.7441 13.7766 11.7541 13.715 11.7541 13.618C11.7516 12.9696 11.7541 12.3189 11.7541 11.6681C11.7541 11.6161 11.7466 11.5616 11.7441 11.5119H9.86703C9.85954 11.5332 9.84955 11.5474 9.84955 11.5616C9.84955 12.2668 9.84706 12.972 9.84955 13.6772C9.84955 13.7103 9.8845 13.7671 9.91695 13.7742C10.0517 13.8121 10.0817 13.9044 10.0817 14.0203C10.0817 14.1883 10.0767 14.3563 10.0867 14.522C10.0867 14.5575 10.1366 14.5906 10.1641 14.6237C10.1865 14.5906 10.2265 14.5622 10.2315 14.5267C10.2414 14.451 10.2339 14.3753 10.2339 14.2995C10.2339 13.6748 10.2339 13.0501 10.2339 12.4277C10.2339 12.158 10.3613 11.9734 10.5834 11.9C10.9553 11.777 11.3098 12.0136 11.3123 12.3946C11.3173 13.1305 11.3123 13.8665 11.3123 14.6095ZM12.6901 11.5119C12.6851 11.538 12.6751 11.5569 12.6751 11.5758C12.6751 12.2763 12.6751 12.9767 12.6751 13.6772C12.6751 13.7127 12.7051 13.7671 12.7375 13.7813C12.8573 13.831 12.8848 13.9186 12.8848 14.0274C12.8848 14.2238 12.8848 14.4202 12.8848 14.6143H13.2592V11.5119H12.6901ZM3.27736 13.7695V11.5119H2.73821V14.619H3.03025C3.03025 14.4226 3.03274 14.2357 3.03025 14.0487C3.02775 13.8902 3.07518 13.7766 3.27736 13.7695ZM2.68828 8.92782V11.1286H3.27986V8.92782H2.68828ZM13.2567 8.91836C13.1069 8.91836 12.9697 8.92546 12.8324 8.91836C12.7001 8.90889 12.6701 8.95859 12.6726 9.07454C12.6776 9.71347 12.6726 10.3524 12.6751 10.9913C12.6751 11.0363 12.6801 11.0812 12.6851 11.1309H13.2592V8.92073L13.2567 8.91836ZM10.1266 5.00907H5.79092C5.83585 5.16762 5.92571 5.22205 6.09294 5.21968C7.33849 5.21258 8.58653 5.21258 9.83208 5.21968C9.99433 5.21968 10.0792 5.16762 10.1266 5.00907ZM8.13724 2.63794H7.59808C7.50323 2.9787 7.41337 3.3029 7.32351 3.62236H8.39933C8.31196 3.29817 8.2271 2.97634 8.13474 2.63794H8.13724ZM8.12975 14.6072C8.12975 14.1978 8.12975 13.8073 8.12975 13.4169C8.12975 13.0809 8.13474 12.7472 8.12476 12.4112C8.12476 12.3567 8.08232 12.2857 8.0349 12.2526C7.99995 12.2289 7.9051 12.2384 7.87765 12.2668C7.83771 12.3094 7.81774 12.3828 7.81774 12.4443C7.81275 13.1258 7.81524 13.805 7.81774 14.4865C7.81774 14.5244 7.82523 14.5646 7.83022 14.6072H8.13225H8.12975ZM14.7893 14.6072C14.7893 14.141 14.7893 13.689 14.7893 13.2394C14.7893 12.9602 14.7893 12.6809 14.7893 12.4017C14.7893 12.307 14.7519 12.2408 14.6445 12.236C14.5297 12.2313 14.4823 12.2952 14.4773 12.397C14.4773 12.4183 14.4773 12.4372 14.4773 12.4585C14.4773 13.1329 14.4773 13.8097 14.4773 14.4841C14.4773 14.5244 14.4848 14.5622 14.4898 14.6072H14.7893ZM10.9304 14.6072V14.4368C10.9304 13.8428 10.9304 13.2489 10.9304 12.6549C10.9304 12.5579 10.9453 12.4585 10.9229 12.3662C10.9104 12.3141 10.833 12.2431 10.7831 12.2408C10.7332 12.2408 10.6708 12.307 10.6283 12.3544C10.6084 12.3757 10.6208 12.423 10.6208 12.4585C10.6208 13.1282 10.6208 13.7979 10.6208 14.4699C10.6208 14.5125 10.6283 14.5575 10.6308 14.6048H10.9304V14.6072ZM1.46021 14.6072C1.46271 14.5457 1.4677 14.5007 1.4677 14.4557C1.4677 13.7955 1.4677 13.1353 1.4677 12.4751C1.4677 12.4254 1.47519 12.3638 1.45023 12.326C1.42027 12.2834 1.35288 12.236 1.30545 12.2384C1.25553 12.2384 1.20311 12.2928 1.16567 12.3354C1.1457 12.3567 1.15818 12.4041 1.15818 12.4396C1.15818 13.1211 1.15818 13.8002 1.15818 14.4818C1.15818 14.522 1.16318 14.5598 1.16817 14.6048H1.46271L1.46021 14.6072ZM5.28671 14.6072C5.2917 14.5811 5.30169 14.5622 5.30169 14.5433C5.31167 13.8334 5.31916 13.1234 5.32665 12.4135C5.32665 12.307 5.28921 12.2313 5.1619 12.236C5.04459 12.2408 5.01464 12.3165 5.01713 12.4159C5.01713 13.1211 5.01713 13.8263 5.01713 14.5315C5.01713 14.5551 5.02212 14.5788 5.02712 14.6095H5.28671V14.6072ZM11.7491 10.9038H9.85954V11.1238H11.7491V10.9038ZM8.91103 11.1309C8.93266 10.9716 8.86859 10.8919 8.71883 10.8919C8.35939 10.8919 8.00245 10.8919 7.64301 10.8919H7.03147V11.1309H8.91103ZM2.27643 10.9038H0.394381V11.1286H2.27643V10.9038ZM6.09045 10.9038H4.22587V11.1286H6.09045V10.9038ZM15.5531 10.9038H13.6985V11.1309H15.5531V10.9038ZM6.5048 9.59515C6.5048 10.0519 6.5048 10.5062 6.50729 10.9629C6.50729 11.0055 6.54973 11.0481 6.57219 11.0907C6.59216 11.0457 6.62711 11.0032 6.6296 10.9582C6.63709 10.8635 6.62711 10.7665 6.62711 10.6695C6.62711 9.85782 6.6321 9.04851 6.6296 8.23684C6.6296 8.19661 6.59466 8.15875 6.57469 8.11852C6.55222 8.15875 6.50729 8.19897 6.50729 8.24157C6.5023 8.69355 6.5048 9.14317 6.5048 9.59515ZM3.67673 9.59515C3.67673 10.0353 3.67424 10.4778 3.67923 10.918C3.67923 10.9748 3.72166 11.0339 3.74413 11.0907C3.7641 11.0316 3.79405 10.9724 3.80154 10.9109C3.80903 10.8304 3.79904 10.75 3.79904 10.6671C3.79904 9.85545 3.80403 9.04614 3.80154 8.23447C3.80154 8.19661 3.7641 8.15638 3.74413 8.11852C3.72166 8.15875 3.67923 8.20134 3.67673 8.24157C3.67174 8.69118 3.67424 9.14317 3.67424 9.59515H3.67673ZM9.44269 9.60225C9.44269 9.39874 9.44269 9.19759 9.44269 8.99408C9.44269 8.73141 9.44269 8.46638 9.44019 8.20371C9.44019 8.17531 9.40026 8.14691 9.38029 8.12088C9.35782 8.14691 9.33286 8.17294 9.31789 8.20134C9.3079 8.21791 9.31789 8.24157 9.31789 8.2605C9.31789 9.15736 9.31789 10.0542 9.32038 10.9511C9.32038 10.9984 9.36282 11.0434 9.38528 11.0907C9.40525 11.0457 9.44269 11.0008 9.44269 10.9558C9.44768 10.5038 9.44519 10.0542 9.44519 9.60225H9.44269ZM9.01336 0.396963V0.986196H9.61242V0.396963H9.01336ZM12.1435 9.59515C12.1435 10.0566 12.1435 10.518 12.146 10.9795C12.146 11.0174 12.1859 11.0552 12.2084 11.0931C12.2283 11.0599 12.2683 11.0245 12.2683 10.9913C12.2708 10.3074 12.2733 9.62355 12.2683 8.93729C12.2683 8.84973 12.2258 8.75981 12.2283 8.67225C12.2308 8.5279 12.2608 8.38355 12.2683 8.2392C12.2683 8.20134 12.2308 8.16111 12.2133 8.12088C12.1909 8.16111 12.1484 8.20134 12.146 8.24394C12.141 8.69592 12.1435 9.14553 12.1435 9.59752V9.59515ZM5.87578 0.39933H5.30668V0.981463H5.87578V0.39933ZM5.57376 7.14593H5.0995V7.70676H5.57376V7.14593ZM10.8455 7.14593H10.3488V7.70913H10.8455V7.14593ZM6.5023 12.6218C6.5023 12.9625 6.5023 13.3009 6.5048 13.6417C6.5048 13.6843 6.54723 13.7269 6.57219 13.7695C6.59216 13.7292 6.6296 13.6914 6.6296 13.6512C6.6321 12.9767 6.6321 12.3023 6.6296 11.6279C6.6296 11.5877 6.59216 11.5474 6.57219 11.5096C6.54973 11.5522 6.50729 11.5948 6.5048 11.6374C6.49981 11.9663 6.5023 12.2976 6.5023 12.6265V12.6218ZM12.2683 12.6525C12.2683 12.3118 12.2683 11.9734 12.2658 11.6326C12.2658 11.59 12.2233 11.5474 12.2009 11.5048C12.1809 11.5451 12.1435 11.5829 12.1435 11.6231C12.141 12.2976 12.141 12.972 12.1435 13.6464C12.1435 13.6866 12.1784 13.7269 12.1984 13.7671C12.2208 13.7245 12.2658 13.6843 12.2658 13.6417C12.2708 13.3128 12.2683 12.9815 12.2683 12.6525ZM9.44019 12.6525C9.44019 12.3118 9.44019 11.9734 9.4377 11.6326C9.4377 11.59 9.39527 11.5474 9.3728 11.5048C9.35283 11.5451 9.31539 11.5829 9.31539 11.6231C9.31289 12.2976 9.31289 12.972 9.31539 13.6464C9.31539 13.6866 9.35034 13.7269 9.3703 13.7671C9.39277 13.7245 9.4377 13.6843 9.4377 13.6417C9.44269 13.3128 9.44019 12.9815 9.44019 12.6525ZM3.67424 12.6218C3.67424 12.9554 3.67174 13.2915 3.67673 13.6251C3.67673 13.6725 3.72166 13.7174 3.74413 13.7647C3.7641 13.7198 3.79904 13.6748 3.79904 13.6275C3.80154 12.9625 3.80154 12.2999 3.79904 11.635C3.79904 11.59 3.7616 11.5474 3.74163 11.5025C3.71917 11.5451 3.67673 11.5877 3.67673 11.6302C3.67174 11.9592 3.67424 12.2905 3.67424 12.6194V12.6218ZM4.02619 14.6001V14.1765H3.42713V14.6001H4.02619ZM6.85924 14.1741H6.25769V14.5977H6.85924V14.1741ZM12.4904 14.6001V14.1741H11.8988V14.6001H12.4904ZM9.06328 14.5953H9.66235V14.1741H9.06328V14.5953ZM3.27986 8.52554V8.12088H2.6808C2.6808 8.23447 2.67331 8.33386 2.68579 8.43325C2.69078 8.46638 2.7432 8.51844 2.77565 8.5208C2.93789 8.53027 3.10263 8.52554 3.28235 8.52554H3.27986ZM12.6801 8.11852C12.6801 8.23447 12.6751 8.33386 12.6826 8.43325C12.6826 8.46401 12.7176 8.51844 12.74 8.5208C12.9122 8.5279 13.087 8.52554 13.2617 8.52554V8.11852H12.6801ZM15.5806 7.70913V6.8099H15.3434V7.70913H15.5806ZM12.6102 7.70913H12.8523V6.8099H12.6102V7.70913ZM3.07518 6.77914V7.70913H3.31231V6.79333C3.23243 6.7886 3.15505 6.78387 3.07518 6.77914ZM11.2773 6.80517V7.7115H11.5094V6.80517H11.2773ZM4.67766 7.71386V6.77914C4.60029 6.78623 4.53539 6.79097 4.4655 6.79807V7.71386H4.67766ZM13.9806 6.80753V7.70913H14.2127V6.80753H13.9806ZM8.27702 2.28062C8.25955 2.05107 8.1597 1.88779 7.97499 1.75291C7.79528 1.89489 7.69044 2.05817 7.68046 2.28062H8.27951H8.27702ZM1.74227 6.78387V7.73516H1.95194V6.7957C1.87955 6.79097 1.81715 6.7886 1.74227 6.78387ZM0.606549 7.73989V6.7815C0.534162 6.78623 0.466768 6.79097 0.399374 6.79333V7.73753H0.606549V7.73989ZM6.00558 4.02702V4.61388H6.32258V4.02702H6.00558ZM3.71667 7.14119V7.7044H4.03118V7.14119H3.71667ZM8.19215 4.61862H8.4817V4.02702H8.19215V4.61862ZM7.77531 4.02465H7.47578V4.62808C7.55066 4.62808 7.61556 4.63755 7.67546 4.62335C7.7129 4.61388 7.77031 4.57129 7.77031 4.54052C7.7803 4.37488 7.77531 4.20686 7.77531 4.02465ZM9.63489 4.02702V4.61388H9.92693V4.02702H9.63489ZM12.2158 7.14356H11.9213V7.70676H12.2158V7.14356ZM14.647 7.14356V7.7115H14.9416V7.14356H14.647ZM1.31044 7.73989V7.14593H1.04586V7.73989H1.31044ZM8.91602 4.61862H9.20057V4.01755C9.10073 4.02228 9.01336 4.02702 8.91602 4.03175V4.61862ZM7.03896 4.61862V4.03175H6.7594V4.61862H7.03896ZM2.3613 7.74226C2.45864 7.73043 2.5485 7.72096 2.64585 7.70913V7.14593H2.3613V7.73989V7.74226ZM13.2942 7.14593V7.7115H13.5737V7.14593H13.2942ZM9.71476 3.6129C9.97935 3.63893 9.99433 3.62236 9.93941 3.39519H9.71476V3.6129ZM6.24521 3.39992H6.01057V3.61526H6.24521V3.39992Z" fill="#410EAD"/>
<path d="M8.94353 6.64664C8.94353 7.16488 8.50921 7.57427 7.96257 7.5719C7.42341 7.56954 6.99658 7.16252 6.99658 6.64901C6.99658 6.13077 7.4284 5.72138 7.97754 5.72611C8.5167 5.72848 8.94353 6.1355 8.94353 6.64901V6.64664ZM8.55664 6.67977C8.55913 6.37214 8.29704 6.1142 7.97255 6.11184C7.65804 6.10947 7.38847 6.35794 7.38098 6.65847C7.37349 6.97084 7.63308 7.22641 7.95508 7.23114C8.28456 7.23588 8.55164 6.98977 8.55414 6.67977H8.55664Z" fill="#410EAD"/>
<path d="M8.48679 9.58834C8.48679 9.71613 8.48679 9.84155 8.48679 9.96933C8.48679 10.0924 8.4194 10.1563 8.28711 10.1563C8.07743 10.1563 7.87026 10.1563 7.66059 10.1563C7.51831 10.1563 7.43594 10.0877 7.43344 9.95513C7.42845 9.6972 7.42096 9.43689 7.43844 9.17896C7.45591 8.90209 7.67057 8.76247 8.02252 8.77194C8.31706 8.7814 8.50426 8.94468 8.51425 9.20972C8.51924 9.33514 8.51425 9.46292 8.51425 9.59071C8.50426 9.59071 8.49678 9.59071 8.48679 9.59071V9.58834ZM8.09491 9.78712C8.10489 9.59308 8.12236 9.41323 8.11987 9.23102C8.11987 9.19079 8.05497 9.12216 8.01753 9.1198C7.95013 9.1198 7.82783 9.15529 7.82533 9.18369C7.80786 9.38247 7.81534 9.58361 7.81534 9.78712H8.09241H8.09491Z" fill="#410EAD"/>
<path d="M11.315 9.57864C11.315 9.69459 11.315 9.81291 11.315 9.92887C11.315 10.0898 11.2501 10.1537 11.0878 10.156C10.8782 10.1608 10.671 10.156 10.4613 10.156C10.3165 10.156 10.2392 10.0827 10.2367 9.95017C10.2317 9.69696 10.2242 9.44139 10.2417 9.19055C10.2591 8.89712 10.4638 8.75987 10.8282 8.7717C11.1278 8.78117 11.31 8.94918 11.315 9.22605C11.3175 9.342 11.315 9.46032 11.315 9.57628V9.57864ZM10.9006 9.78688C10.9106 9.59047 10.9256 9.40826 10.9206 9.22841C10.9206 9.18819 10.8457 9.13139 10.7933 9.11956C10.7284 9.103 10.6261 9.09353 10.6211 9.19765C10.6136 9.3917 10.6211 9.58811 10.6211 9.78688H10.9006Z" fill="#410EAD"/>
<path d="M5.68348 9.58349C5.68348 9.70891 5.68348 9.83669 5.68348 9.96211C5.68099 10.0899 5.61359 10.1585 5.47381 10.1562C5.27163 10.1562 5.06695 10.1562 4.86477 10.1562C4.70002 10.1538 4.63013 10.0899 4.62764 9.93372C4.62514 9.69471 4.62265 9.45807 4.62764 9.21906C4.63263 8.94456 4.81984 8.77892 5.11937 8.76945C5.45634 8.75998 5.66102 8.91617 5.67849 9.20013C5.68598 9.32555 5.67849 9.45334 5.67849 9.57876L5.68348 9.58349ZM5.29659 9.78463C5.29659 9.59059 5.29659 9.41311 5.29659 9.238C5.29659 9.14334 5.22919 9.13861 5.15431 9.13861C5.08193 9.13861 5.01204 9.13861 5.01204 9.23563C5.01204 9.41548 5.01204 9.59769 5.01204 9.78463H5.29659Z" fill="#410EAD"/>
<path d="M1.82716 9.60233C1.82716 9.72775 1.82466 9.85554 1.82716 9.98096C1.83215 10.104 1.76725 10.1561 1.64245 10.1561C1.42279 10.1561 1.20564 10.1561 0.98598 10.1561C0.843703 10.1561 0.771316 10.078 0.76882 9.94546C0.76882 9.70172 0.763828 9.46035 0.76882 9.21661C0.773812 8.94447 0.963515 8.77883 1.26554 8.77173C1.59752 8.76463 1.7997 8.91371 1.81967 9.19295C1.82966 9.32783 1.81967 9.46508 1.81967 9.60233C1.81967 9.60233 1.81967 9.60233 1.82217 9.60233H1.82716ZM1.46523 9.78218C1.46523 9.59287 1.46523 9.41302 1.46523 9.23317C1.46523 9.13852 1.39035 9.12432 1.32046 9.14088C1.27053 9.15272 1.19315 9.19295 1.19066 9.22371C1.17818 9.40829 1.18567 9.59287 1.18567 9.78218H1.46523Z" fill="#410EAD"/>
<path d="M15.1439 9.58838C15.1439 9.71617 15.1439 9.84159 15.1439 9.96937C15.1439 10.0924 15.079 10.1563 14.9467 10.1587C14.737 10.1587 14.5298 10.1587 14.3202 10.1587C14.1779 10.1587 14.0955 10.0877 14.093 9.95754C14.088 9.70434 14.0805 9.44876 14.0955 9.19793C14.113 8.89976 14.3227 8.76014 14.6946 8.77671C14.9891 8.78854 15.1688 8.96365 15.1713 9.24289C15.1713 9.35884 15.1713 9.47716 15.1713 9.59312C15.1613 9.59312 15.1539 9.59312 15.1439 9.59312V9.58838ZM14.4774 9.77769H14.7595C14.7695 9.58838 14.7745 9.4109 14.7869 9.23342C14.7919 9.13877 14.742 9.108 14.6496 9.11037C14.5698 9.11274 14.4774 9.1009 14.4774 9.21449C14.4774 9.40144 14.4774 9.58838 14.4774 9.77533V9.77769Z" fill="#410EAD"/>
</svg>
