<svg width="15" height="15" viewBox="0 0 15 15" fill="none" xmlns="http://www.w3.org/2000/svg">
<path d="M4.50846 0H10.4877C10.6896 0.0902191 10.7776 0.242732 10.7626 0.466132C10.7518 0.631534 10.7626 0.799083 10.7583 0.964485C10.7497 1.16855 10.6079 1.30818 10.4018 1.31892C10.3266 1.32321 10.2493 1.31892 10.1763 1.31892V3.5701C10.2063 3.57225 10.2299 3.57654 10.2536 3.57654C10.492 3.57654 10.7325 3.57439 10.9709 3.57654C11.1105 3.57869 11.1986 3.66676 11.1986 3.79135C11.1986 3.91594 11.117 4.00186 10.9773 4.01475C10.9387 4.01905 10.9022 4.02119 10.8592 4.02334V5.40455C10.9194 5.40455 10.9731 5.40455 11.0246 5.40455C11.2931 5.40455 11.5615 5.40026 11.83 5.4067C11.976 5.411 12.0705 5.50981 12.0641 5.6344C12.0576 5.75254 11.9653 5.83417 11.8257 5.84276C11.7462 5.84706 11.6646 5.84921 11.5894 5.8535V7.23901C11.903 7.23901 12.2037 7.23686 12.5065 7.23901C12.6418 7.23901 12.7363 7.33352 12.7385 7.45382C12.7385 7.57411 12.6483 7.66648 12.513 7.67507C12.4507 7.67936 12.3884 7.67507 12.3218 7.67507V9.05628C12.3669 9.06057 12.4013 9.06487 12.4335 9.06487C12.6912 9.06487 12.9511 9.06487 13.2088 9.06487C13.3871 9.06487 13.4794 9.1422 13.4794 9.28397C13.4794 9.42575 13.3914 9.49878 13.2131 9.50523C13.1573 9.50523 13.1014 9.51167 13.0477 9.51382V10.8993C13.3892 10.8993 13.72 10.8993 14.0507 10.8993C14.1989 10.8993 14.2934 10.9895 14.2956 11.1141C14.2956 11.2409 14.2011 11.3311 14.0572 11.3354C13.967 11.3397 13.8746 11.3354 13.7801 11.3354V12.7295C14.0872 12.7295 14.3836 12.7338 14.6821 12.7273C14.8132 12.7252 14.9205 12.7531 15 12.8605V13.0367C14.8776 13.2171 14.68 13.1548 14.5017 13.1806C14.5017 13.245 14.5017 13.2966 14.5017 13.3503C14.5017 13.8035 14.5017 14.2589 14.5017 14.7122C14.5017 14.927 14.4266 15 14.2096 15C9.73597 15 5.26231 15 0.788635 15C0.56957 15 0.496548 14.927 0.496548 14.7122C0.496548 14.2525 0.496548 13.7928 0.496548 13.3352C0.496548 13.2837 0.496548 13.2321 0.496548 13.1784C0.378424 13.172 0.281777 13.1741 0.18513 13.1612C0.0605634 13.1441 -0.00601543 13.0603 0.000427682 12.9357C0.0068708 12.8197 0.0777451 12.7445 0.195869 12.7359C0.292516 12.7273 0.39131 12.7316 0.487957 12.7316C0.730647 12.7316 0.973338 12.7316 1.21603 12.7316V11.3375C1.10864 11.3375 1.00985 11.3418 0.913203 11.3375C0.786488 11.3289 0.70058 11.2366 0.70058 11.1206C0.70058 11.0046 0.788636 10.9101 0.913203 10.9036C1.05066 10.8972 1.18596 10.9036 1.32341 10.9015C1.53174 10.9015 1.74007 10.9015 1.95054 10.9015V9.50737C1.87752 9.50737 1.8088 9.51167 1.74222 9.50737C1.59832 9.49878 1.51671 9.4193 1.51671 9.29042C1.51671 9.16368 1.59617 9.08206 1.74222 9.07131C1.83027 9.06487 1.91833 9.06917 2.00638 9.06917C2.22975 9.06917 2.45311 9.06917 2.68291 9.06917V7.67936C2.62707 7.67936 2.57982 7.67936 2.53257 7.67936C2.3629 7.67722 2.25981 7.59129 2.26196 7.45811C2.26196 7.32493 2.36505 7.24116 2.53472 7.23901C2.61204 7.23901 2.6915 7.23901 2.76882 7.23901C2.98144 7.23901 3.19407 7.23901 3.41313 7.23901V5.84061C3.31434 5.84061 3.22199 5.84706 3.13178 5.84061C3.01151 5.82987 2.94278 5.75254 2.93849 5.63869C2.93419 5.51625 3.00077 5.43463 3.12534 5.41529C3.18762 5.4067 3.25205 5.40885 3.31434 5.4067C3.5871 5.4067 3.85985 5.4067 4.13691 5.4067V4.01475C4.09181 4.01475 4.05744 4.0169 4.02308 4.01475C3.88348 4.00186 3.79972 3.91809 3.79972 3.7935C3.79972 3.66891 3.88777 3.58299 4.02738 3.57654C4.08966 3.57439 4.15409 3.57654 4.21852 3.57654C4.4204 3.57654 4.62444 3.57654 4.82417 3.57654V1.31892C4.76404 1.31892 4.71035 1.31892 4.6588 1.31892C4.38175 1.31677 4.24429 1.18144 4.24 0.906487C4.24 0.764714 4.24859 0.622941 4.23785 0.481169C4.22067 0.255621 4.30013 0.0923672 4.51061 0L4.50846 0ZM10.0968 12.0829H9.9443C8.3142 12.0829 6.68409 12.0829 5.05183 12.0829C5.02821 12.0829 4.99814 12.0743 4.97881 12.0829C4.9423 12.1022 4.8886 12.1259 4.87787 12.1581C4.78981 12.4567 4.71035 12.7574 4.62444 13.071H4.81129C5.9732 13.071 7.1351 13.071 8.29701 13.071C8.33997 13.071 8.38507 13.0667 8.42802 13.0732C8.5483 13.0968 8.61917 13.1698 8.61702 13.2944C8.61487 13.4126 8.54615 13.4835 8.43017 13.5049C8.38292 13.5135 8.33352 13.5092 8.28413 13.5092C7.14155 13.5092 5.99897 13.5092 4.85639 13.5092C4.62014 13.5092 4.47052 13.6252 4.40752 13.8572C4.34309 14.0892 4.2808 14.3212 4.21637 14.5553H10.7733C10.6831 14.2267 10.5994 13.9066 10.5049 13.5887C10.4941 13.5522 10.4232 13.5135 10.3803 13.5114C10.0818 13.5049 9.78537 13.5092 9.48684 13.5071C9.31288 13.5071 9.21408 13.4298 9.20979 13.2944C9.20549 13.1527 9.30643 13.0689 9.48684 13.0689C9.77463 13.0689 10.0624 13.0689 10.3631 13.0689C10.2708 12.7338 10.1827 12.4094 10.0903 12.0786L10.0968 12.0829ZM3.3036 14.5661C3.40884 14.5661 3.50119 14.5575 3.59139 14.5682C3.7224 14.5854 3.7718 14.5339 3.80831 14.4071C4.64806 11.3246 5.49426 8.24431 6.33831 5.16397C6.4414 4.78376 6.54663 4.4057 6.65402 4.01475C6.53804 4.01475 6.4414 4.02334 6.34475 4.0126C6.22877 3.99971 6.18582 4.04912 6.1579 4.15437C5.61023 6.16282 5.06042 8.17127 4.51061 10.1797C4.3753 10.6738 4.24 11.1678 4.10254 11.6597C4.06174 11.8015 3.94791 11.8681 3.82549 11.8316C3.70307 11.7972 3.64723 11.6834 3.68159 11.5395C3.69663 11.4793 3.70951 11.417 3.72455 11.3526H1.67349V12.7359C1.73363 12.7359 1.78732 12.7359 1.83886 12.7359C2.26411 12.7359 2.68935 12.7316 3.1146 12.7381C3.26923 12.7402 3.38521 12.7381 3.41098 12.5405C3.42817 12.4223 3.56991 12.3643 3.67945 12.4051C3.79328 12.4481 3.84697 12.5362 3.82549 12.6607C3.81905 12.7037 3.80401 12.7467 3.79113 12.7875C3.63005 13.3739 3.46897 13.9625 3.3036 14.5661ZM9.18831 3.5658H9.7145V1.31892C8.99072 1.31892 8.27768 1.31892 7.56465 1.31892C7.468 1.31892 7.3692 1.32321 7.27256 1.31677C7.15014 1.30603 7.05779 1.20507 7.06853 1.09122C7.07926 0.968781 7.15014 0.895747 7.27471 0.88071C7.31766 0.876414 7.36276 0.88071 7.40572 0.88071C8.32279 0.88071 9.242 0.88071 10.1591 0.88071C10.2106 0.88071 10.2622 0.88071 10.3116 0.88071V0.448947H4.68243V0.878562C4.82417 0.878562 4.95948 0.878562 5.09478 0.878562C5.4513 0.878562 5.80782 0.878562 6.16434 0.878562C6.37482 0.878562 6.47576 0.951597 6.47361 1.10196C6.47146 1.25018 6.37052 1.31892 6.1579 1.31892C6.10421 1.31892 6.05051 1.31892 5.99682 1.31892C5.75843 1.31892 5.52003 1.31892 5.27734 1.31892V3.56795H5.80568C5.80568 3.5078 5.80568 3.45625 5.80568 3.40255C5.80568 3.06101 5.80138 2.71946 5.80568 2.37792C5.80997 2.06859 6.00541 1.84734 6.2932 1.8452C7.0943 1.83875 7.89539 1.83875 8.69434 1.8452C8.94562 1.8452 9.13462 2.02563 9.17328 2.27696C9.18402 2.34784 9.18402 2.42303 9.18402 2.49606C9.18402 2.85049 9.18402 3.20707 9.18402 3.56795L9.18831 3.5658ZM6.07199 7.80395C5.98179 8.13476 5.89158 8.45911 5.80138 8.78777H9.19475C9.10455 8.45697 9.01649 8.13476 8.92414 7.80395C8.85756 7.80395 8.79958 7.80395 8.74159 7.80395C8.49675 7.80395 8.25406 7.8061 8.00922 7.8018C7.88036 7.79966 7.79445 7.70944 7.79015 7.59129C7.78801 7.4753 7.86962 7.38293 7.99848 7.36789C8.05647 7.36145 8.11446 7.36575 8.17459 7.36575C8.37863 7.36575 8.58051 7.36575 8.80172 7.36575C8.72011 7.06501 8.6385 6.79006 8.57407 6.51081C8.5483 6.40126 8.4946 6.37763 8.39151 6.37978C7.92331 6.38408 7.45511 6.37978 6.98477 6.38193C6.8151 6.38193 6.59388 6.32608 6.4865 6.40985C6.37482 6.49792 6.36837 6.72562 6.32112 6.89317C6.27817 7.04353 6.23736 7.19819 6.19226 7.36789C6.34045 7.36789 6.46072 7.36789 6.58314 7.36789C6.70556 7.36789 6.82798 7.36574 6.94825 7.36789C7.10718 7.37219 7.20383 7.46026 7.20168 7.59129C7.20168 7.71803 7.10718 7.8018 6.9547 7.80395C6.66261 7.8061 6.37052 7.80395 6.0677 7.80395H6.07199ZM11.6882 14.5682C11.6711 14.5038 11.6603 14.4522 11.6453 14.4007C10.9666 11.9261 10.2879 9.45367 9.60926 6.97909C9.35154 6.03824 9.09596 5.09738 8.83609 4.15867C8.82105 4.10712 8.7781 4.02979 8.73944 4.02334C8.61273 4.00616 8.48386 4.0169 8.34426 4.0169C8.35285 4.05771 8.35715 4.0749 8.36359 4.09423C9.10455 6.79865 9.84551 9.50308 10.5865 12.2075C10.7905 12.9507 10.9924 13.694 11.1986 14.4351C11.2114 14.4845 11.2587 14.5575 11.2995 14.5618C11.4241 14.579 11.5508 14.5682 11.6861 14.5682H11.6882ZM9.97437 11.6383C9.89491 11.3483 9.81759 11.0776 9.75101 10.8027C9.72524 10.6953 9.67799 10.6587 9.56201 10.6587C8.55689 10.663 7.55176 10.6609 6.54449 10.6609C6.16434 10.6609 5.78205 10.663 5.40191 10.6609C5.31385 10.6609 5.2709 10.6845 5.25157 10.7747C5.2172 10.9273 5.16995 11.0755 5.12915 11.2258C5.09264 11.359 5.06042 11.4943 5.02176 11.6383H9.97222H9.97437ZM9.58778 10.2184C9.50617 9.9198 9.42241 9.64056 9.35368 9.35701C9.32791 9.25175 9.28281 9.23242 9.18402 9.23242C8.14453 9.23672 7.10504 9.23242 6.06555 9.23457C5.93883 9.23457 5.7799 9.19805 5.69829 9.26035C5.61668 9.32264 5.61238 9.48804 5.57802 9.61048C5.52218 9.81025 5.47063 10.01 5.41479 10.2205H9.58993L9.58778 10.2184ZM11.7699 13.1892C11.8858 13.6145 12.004 14.0269 12.1092 14.4415C12.1371 14.5532 12.1887 14.5725 12.2917 14.5704C12.833 14.5661 13.3742 14.5704 13.9154 14.5682C13.9627 14.5682 14.0078 14.5639 14.0529 14.5618V13.1892H11.7699ZM0.945418 13.1892V14.5704H2.47673C2.72587 14.5704 2.88336 14.4508 2.94923 14.2117C3.04158 13.8744 3.13178 13.5372 3.22628 13.1892H0.945418ZM13.3205 12.7402V11.3547H11.2673C11.3897 11.8037 11.5078 12.2397 11.6345 12.6736C11.6431 12.7059 11.7226 12.7359 11.772 12.7359C12.1822 12.7402 12.5924 12.7381 13.0026 12.7381C13.1079 12.7381 13.2153 12.7381 13.3226 12.7381L13.3205 12.7402ZM12.5946 10.9015V9.52456H10.7647C10.8936 9.99284 11.016 10.4461 11.1406 10.9015H12.5924H12.5946ZM2.40801 9.52241V10.8993H3.85556C3.98013 10.4418 4.10469 9.98854 4.23141 9.52241H2.40586H2.40801ZM3.14037 7.68581V9.07131C3.51407 9.07131 3.87274 9.06702 4.23355 9.07346C4.3302 9.07346 4.36886 9.04124 4.39248 8.94887C4.49128 8.56867 4.59866 8.18846 4.7039 7.80825C4.71464 7.76958 4.71679 7.72877 4.72323 7.68366H3.14037V7.68581ZM10.26 7.68581C10.3824 8.13261 10.4984 8.56437 10.623 8.99398C10.6337 9.02835 10.696 9.06487 10.7368 9.06917C10.8871 9.07776 11.0396 9.07346 11.19 9.07346C11.4112 9.07346 11.6345 9.07346 11.8579 9.07346V7.68796H10.2622L10.26 7.68581ZM6.2481 3.56795H6.7206C6.7206 3.37248 6.7206 3.18345 6.7206 2.99441C6.72274 2.77746 6.79577 2.70657 7.01269 2.70442C7.33484 2.70442 7.657 2.70442 7.97915 2.70442C8.20251 2.70442 8.27339 2.77746 8.27554 3.00516C8.27554 3.18989 8.27554 3.37462 8.27554 3.5658H8.75018C8.75018 3.18989 8.74588 2.81827 8.75233 2.45095C8.75447 2.31562 8.70937 2.27481 8.57621 2.27481C8.06936 2.28125 7.5625 2.27696 7.05564 2.27696C6.83228 2.27696 6.60677 2.27696 6.38341 2.27696C6.31468 2.27696 6.2524 2.2877 6.2524 2.37362C6.2524 2.76672 6.2524 3.16196 6.2524 3.5658L6.2481 3.56795ZM3.8663 5.8535V7.23256H4.85854C4.9831 6.77502 5.10767 6.31963 5.23439 5.8535H3.86415H3.8663ZM9.75745 5.8535C9.88632 6.32393 10.0109 6.77932 10.1354 7.22827H11.1298V5.8535H9.75745ZM8.40869 5.92868C8.32493 5.61721 8.24547 5.31648 8.15741 5.02005C8.14882 4.98998 8.09942 4.95346 8.06721 4.95346C7.66344 4.94916 7.25967 4.95131 6.84946 4.95131C6.75926 5.28211 6.6712 5.60218 6.58314 5.92868H8.40869ZM5.7348 4.02334H4.59437V5.40241C4.83276 5.40241 5.06257 5.40455 5.29023 5.39811C5.32029 5.39811 5.36754 5.35515 5.37613 5.32293C5.49855 4.89116 5.61453 4.4594 5.73265 4.02119L5.7348 4.02334ZM10.3932 5.40241V4.02334H9.25489C9.37516 4.46155 9.48899 4.88902 9.60926 5.31648C9.61785 5.35085 9.66081 5.39811 9.68873 5.40026C9.92068 5.4067 10.1548 5.40455 10.3932 5.40455V5.40241ZM8.01566 4.50666C7.97486 4.36059 7.94694 4.22741 7.90184 4.09852C7.88895 4.06201 7.83311 4.01905 7.79445 4.0169C7.59471 4.00831 7.39498 4.01045 7.19524 4.0169C7.15873 4.0169 7.10074 4.05127 7.09 4.08134C7.0449 4.21667 7.01269 4.35844 6.97403 4.50666H8.01781H8.01566ZM7.16303 3.56795H7.82237V3.15552H7.16303V3.56795Z" fill="#410EAD"/>
</svg>
