<svg width="15" height="15" viewBox="0 0 15 15" fill="none" xmlns="http://www.w3.org/2000/svg">
<path d="M0.065117 15C0.0408326 14.9211 -0.0117835 14.8381 0.00238236 14.7653C0.0205956 14.6601 0.125828 14.6419 0.227013 14.6459C0.303913 14.6479 0.382837 14.6459 0.481999 14.6459C0.481999 14.5751 0.481999 14.5144 0.481999 14.4537C0.481999 11.8759 0.481999 9.29819 0.481999 6.72043C0.481999 6.423 0.522473 6.38253 0.819956 6.38253C1.4898 6.38253 2.15964 6.38253 2.82949 6.38253C3.07233 6.38253 3.1209 6.43312 3.1209 6.67592C3.1209 7.22829 3.1209 7.78067 3.1209 8.3553C3.2403 8.3553 3.3516 8.3553 3.4629 8.3553C3.73206 8.3553 4.00121 8.3553 4.27036 8.3553C4.50106 8.3553 4.5557 8.40993 4.5557 8.6406C4.5557 10.4596 4.5557 12.2806 4.5557 14.0996C4.5557 14.2756 4.5557 14.4496 4.5557 14.6358H5.12436V14.4537C5.12436 12.4344 5.12436 10.4131 5.12436 8.39375C5.12436 8.34519 5.12234 8.29663 5.12436 8.24806C5.1365 8.11655 5.20328 8.04168 5.34292 8.04371C5.42589 8.04371 5.50886 8.04371 5.61207 8.04371V7.87981C5.61207 7.06238 5.61207 6.24697 5.61207 5.42953C5.61207 5.20292 5.72675 5.07342 5.9561 5.04105C5.9561 4.88929 5.9561 4.7335 5.9561 4.5777C5.9561 4.34164 6.07954 4.2108 6.32644 4.18517C6.32644 3.99902 6.32644 3.81085 6.32644 3.62267C6.32644 3.35357 6.37298 3.30703 6.64213 3.30703C6.76355 3.30703 6.88498 3.30703 7.01854 3.30703C7.01854 3.2261 7.01854 3.16337 7.01854 3.10065C7.01854 2.50983 7.01854 1.91699 7.01854 1.32617C7.01854 1.11169 7.07318 1.06111 7.28972 1.05908C7.43137 1.05908 7.57303 1.05908 7.71469 1.05504C7.72279 1.05504 7.73088 1.04897 7.75517 1.03683C7.75517 0.814257 7.75517 0.585618 7.75517 0.359002C7.75517 0.310442 7.75517 0.261881 7.75517 0.211297C7.75719 0.0939426 7.80576 0.010985 7.93325 0.000868258C8.04658 -0.00924852 8.12753 0.0696623 8.13157 0.205227C8.13764 0.42982 8.1336 0.654412 8.1336 0.881028C8.1336 0.933635 8.1336 0.986242 8.1336 1.05706C8.29144 1.05706 8.43715 1.05706 8.58083 1.05706C8.81963 1.05706 8.87022 1.10967 8.87022 1.35247C8.87022 1.94329 8.87022 2.53613 8.87022 3.12695V3.30501C9.02605 3.30501 9.17175 3.30298 9.31746 3.30501C9.49555 3.30905 9.55221 3.36773 9.55423 3.54781C9.55626 3.75622 9.55423 3.96664 9.55423 4.16696C9.57649 4.18112 9.58459 4.18921 9.59268 4.18921C9.92457 4.21349 9.92862 4.21956 9.92862 4.55544C9.92862 4.71529 9.92862 4.87715 9.92862 5.04105C9.97111 5.04509 9.99742 5.04914 10.0258 5.05116C10.216 5.0633 10.2747 5.12198 10.2747 5.31622C10.2747 5.72292 10.2747 6.12759 10.2747 6.53428C10.2747 7.02798 10.2747 7.52168 10.2747 8.03966C10.3657 8.03966 10.4507 8.03764 10.5377 8.03966C10.6875 8.04573 10.7482 8.10441 10.7543 8.25616C10.7563 8.30067 10.7543 8.34519 10.7543 8.38768C10.7543 10.4029 10.7543 12.4182 10.7543 14.4335C10.7543 14.4962 10.7543 14.5589 10.7543 14.6318H11.244V14.4618C11.244 11.9225 11.244 9.38519 11.244 6.84588C11.244 6.56666 11.2885 6.52012 11.5638 6.52012C12.44 6.52012 13.3143 6.52012 14.1905 6.52012C14.4455 6.52012 14.4961 6.57273 14.4961 6.83172C14.4961 9.36496 14.4961 11.8982 14.4961 14.4335C14.4961 14.4962 14.4961 14.5589 14.4961 14.6257C14.6681 14.6763 14.8745 14.571 15 14.7592V14.9939C10.0197 14.9939 5.04139 14.9939 0.0610696 14.9939L0.065117 15ZM7.24115 14.6378V14.4274C7.24115 12.0601 7.24115 9.69274 7.24115 7.32542C7.24115 7.27078 7.24115 7.21818 7.24519 7.16355C7.25531 7.05024 7.31198 6.9774 7.43137 6.97942C7.54875 6.97942 7.60744 7.05226 7.61351 7.16759C7.61553 7.21615 7.61351 7.26471 7.61351 7.3153C7.61351 9.69274 7.61351 12.0702 7.61351 14.4476V14.6378H8.26514V14.4395C8.26514 12.0682 8.26514 9.69476 8.26514 7.32339C8.26514 7.26067 8.26514 7.19592 8.27526 7.1332C8.29144 7.03203 8.3562 6.97942 8.45941 6.98144C8.5606 6.98347 8.62333 7.04214 8.63547 7.14331C8.64154 7.19592 8.63952 7.25055 8.63952 7.30518C8.63952 9.68667 8.63952 12.0702 8.63952 14.4517V14.6378H9.10902V14.4355C9.10902 12.4101 9.10902 10.3847 9.10902 8.36137C9.10902 8.1388 9.16771 8.04371 9.30532 8.04775C9.43686 8.0518 9.48745 8.13678 9.48745 8.35733C9.48745 10.3969 9.48745 12.4364 9.48745 14.476C9.48745 14.5326 9.48745 14.5893 9.48745 14.6419H10.3759V8.42207C10.3212 8.42207 10.2787 8.42207 10.2362 8.42207C9.93874 8.42005 9.90028 8.38161 9.90028 8.08215C9.90028 7.2546 9.90028 6.42907 9.90028 5.60152C9.90028 5.54891 9.90028 5.49832 9.90028 5.44167H5.98645C5.98645 5.50237 5.98645 5.55498 5.98645 5.60759C5.98645 6.13163 5.98645 6.65366 5.98645 7.17771C5.98645 7.50549 5.98645 7.83328 5.98645 8.16106C5.98645 8.35328 5.91967 8.416 5.72944 8.42005C5.65659 8.42005 5.58576 8.42005 5.50684 8.42005V14.6378H6.39726V14.4537C6.39726 12.4283 6.39726 10.4029 6.39726 8.37958C6.39726 8.32495 6.39726 8.27235 6.40131 8.21771C6.41143 8.10845 6.47416 8.04573 6.58344 8.04573C6.69272 8.04573 6.75344 8.11048 6.76355 8.21771C6.76962 8.27639 6.7676 8.33507 6.7676 8.39375C6.7676 10.4131 6.7676 12.4344 6.7676 14.4537C6.7676 14.5144 6.7676 14.5771 6.7676 14.6378H7.24115ZM11.6366 6.9086V14.6358H14.1136V6.9086H11.6366ZM0.868525 6.76495V14.6378H2.00179C2.00179 14.5731 2.00179 14.5144 2.00179 14.4577C2.00179 12.5153 2.00179 10.5749 2.00179 8.6325C2.00179 8.40791 2.05239 8.3553 2.27702 8.35328C2.42677 8.35328 2.57855 8.35328 2.7364 8.35328V6.76495H0.868525ZM2.39034 8.73367V14.6358H4.16513V8.73367H2.39034ZM7.39899 1.4415C7.39697 1.49208 7.39292 1.52648 7.39292 1.55885C7.39292 2.17395 7.39292 2.79108 7.39292 3.40618C7.39292 3.62065 7.33626 3.67528 7.12377 3.6773C6.98818 3.6773 6.8526 3.6773 6.71296 3.6773V4.18517H9.16973V3.6773C9.0301 3.6773 8.90462 3.6773 8.77713 3.6773C8.54441 3.6773 8.49179 3.6247 8.49179 3.39404C8.49179 2.79715 8.49179 2.20026 8.49179 1.60539C8.49179 1.55278 8.49179 1.50017 8.49179 1.4415H7.40102H7.39899ZM6.33251 5.04509H9.54411V4.58579H6.33251V5.04509Z" fill="#410EAD"/>
<path d="M9.48732 6.20424C9.48732 6.41265 9.42863 6.50775 9.29911 6.50775C9.1696 6.50775 9.10889 6.41062 9.10889 6.20222C9.10889 6.18199 9.10889 6.16378 9.10889 6.14354C9.11293 5.9756 9.17972 5.89062 9.30721 5.89467C9.42661 5.89872 9.48327 5.97965 9.48529 6.14354C9.48529 6.16378 9.48529 6.18199 9.48529 6.20222L9.48732 6.20424Z" fill="#410EAD"/>
<path d="M9.48541 7.29117C9.48541 7.33569 9.48945 7.37818 9.48541 7.42269C9.47124 7.52184 9.41053 7.58051 9.31137 7.58658C9.21221 7.59266 9.13935 7.54207 9.12519 7.4409C9.11102 7.34581 9.109 7.24666 9.11912 7.15156C9.12924 7.0423 9.19804 6.97351 9.31542 6.9816C9.43279 6.98969 9.48541 7.06254 9.48945 7.17584C9.48945 7.21429 9.48945 7.25273 9.48945 7.2932L9.48541 7.29117Z" fill="#410EAD"/>
<path d="M8.63937 6.2105C8.63937 6.23882 8.63937 6.26917 8.63937 6.2975C8.63937 6.41688 8.58271 6.49781 8.46331 6.50388C8.34189 6.50995 8.27713 6.43104 8.26904 6.31369C8.26296 6.23275 8.26296 6.14777 8.27308 6.06684C8.28523 5.95555 8.35201 5.89081 8.46938 5.89688C8.57866 5.90497 8.6333 5.97174 8.63937 6.07898C8.6414 6.12147 8.63937 6.16598 8.63937 6.2105Z" fill="#410EAD"/>
<path d="M7.61749 6.21874C7.61547 6.2673 7.62964 6.33003 7.60535 6.3624C7.55881 6.42108 7.49 6.49392 7.42727 6.49796C7.37263 6.50201 7.27954 6.42715 7.26335 6.37049C7.23502 6.27135 7.24513 6.15804 7.25323 6.0508C7.26132 5.94963 7.33013 5.895 7.43334 5.89703C7.54262 5.89905 7.60333 5.96177 7.61142 6.07104C7.61547 6.1196 7.61142 6.16816 7.61142 6.21672H7.61547L7.61749 6.21874Z" fill="#410EAD"/>
<path d="M6.39331 6.19458C6.39533 6.14602 6.39331 6.09543 6.40343 6.04889C6.42164 5.94773 6.49045 5.88096 6.58759 5.90321C6.65437 5.9194 6.73329 5.98617 6.75555 6.04889C6.78591 6.13185 6.76972 6.23302 6.76567 6.32407C6.76162 6.44142 6.69079 6.5082 6.57747 6.50415C6.47223 6.50213 6.40748 6.43535 6.40141 6.32609C6.39938 6.28158 6.40141 6.23909 6.40141 6.19458C6.40141 6.19458 6.39736 6.19458 6.39533 6.19458H6.39331Z" fill="#410EAD"/>
<path d="M6.39722 7.28502C6.39722 7.0665 6.44781 6.98152 6.58137 6.97949C6.71494 6.97949 6.76958 7.06447 6.76958 7.28097C6.76958 7.49949 6.71898 7.5865 6.58542 7.5865C6.45186 7.5865 6.39722 7.50152 6.39722 7.28502Z" fill="#410EAD"/>
<path d="M12.6587 7.67118C12.6587 7.46075 12.7154 7.36768 12.8469 7.36768C12.9784 7.36768 13.0371 7.46075 13.0371 7.66916C13.0371 7.88363 12.9724 7.98682 12.8428 7.98278C12.7174 7.97873 12.6607 7.88161 12.6607 7.6732L12.6587 7.67118Z" fill="#410EAD"/>
<path d="M12.6587 9.76158C12.6587 9.5552 12.7194 9.45605 12.8469 9.45605C12.9744 9.45605 13.0371 9.5552 13.0371 9.75956C13.0371 9.97808 12.9764 10.0752 12.8428 10.0691C12.7133 10.0651 12.6607 9.97403 12.6607 9.76158H12.6587Z" fill="#410EAD"/>
<path d="M12.6546 12.8878C12.6586 12.8372 12.6445 12.7765 12.6687 12.7441C12.7133 12.6854 12.78 12.6065 12.8408 12.6045C12.8994 12.6045 12.9986 12.6753 13.0168 12.734C13.0451 12.8372 13.0472 12.9586 13.0168 13.0618C13.0006 13.1225 12.9035 13.1973 12.8448 13.1973C12.7841 13.1973 12.7112 13.1184 12.6708 13.0577C12.6424 13.0173 12.6586 12.9444 12.6546 12.8878Z" fill="#410EAD"/>
<path d="M12.6585 10.8098C12.6585 10.7754 12.6585 10.741 12.6585 10.7086C12.6666 10.5933 12.7172 10.5104 12.8427 10.5083C12.9681 10.5063 13.0248 10.5872 13.0329 10.7026C13.039 10.7694 13.0369 10.8381 13.0329 10.9069C13.0268 11.0364 12.9459 11.1295 12.8407 11.1194C12.7132 11.1073 12.6565 11.0243 12.6565 10.9009C12.6565 10.8725 12.6565 10.8422 12.6565 10.8139L12.6585 10.8098Z" fill="#410EAD"/>
<path d="M13.7148 11.8536C13.7148 12.0721 13.6642 12.155 13.5327 12.1571C13.395 12.1591 13.3384 12.068 13.3384 11.8455C13.3384 11.8313 13.3384 11.8171 13.3384 11.8009C13.3424 11.633 13.4112 11.542 13.5327 11.544C13.65 11.546 13.7148 11.6371 13.7148 11.807C13.7148 11.8212 13.7148 11.8353 13.7148 11.8515V11.8536Z" fill="#410EAD"/>
<path d="M12.6585 11.8495C12.6585 11.6451 12.7213 11.5439 12.8467 11.5439C12.9722 11.5439 13.0349 11.6451 13.0349 11.8495C13.0349 12.0639 12.9823 12.153 12.8528 12.157C12.7152 12.1611 12.6565 12.07 12.6565 11.8495H12.6585Z" fill="#410EAD"/>
<path d="M13.7148 10.8116C13.7148 11.022 13.6581 11.1151 13.5306 11.1171C13.4011 11.1171 13.3404 11.02 13.3384 10.8136C13.3384 10.5931 13.3971 10.5 13.5347 10.504C13.6662 10.5081 13.7148 10.591 13.7148 10.8096V10.8116Z" fill="#410EAD"/>
<path d="M13.7148 9.76791C13.7148 9.98239 13.6601 10.0694 13.5286 10.0694C13.3971 10.0694 13.3384 9.97632 13.3384 9.76791C13.3384 9.55951 13.395 9.46239 13.5205 9.45632C13.6521 9.45025 13.7148 9.54939 13.7148 9.76791Z" fill="#410EAD"/>
<path d="M11.9788 7.66717C11.9788 7.64693 11.9788 7.62872 11.9788 7.60849C11.9828 7.44865 12.0476 7.36569 12.167 7.36771C12.2803 7.36974 12.3471 7.45067 12.3511 7.6004C12.3531 7.67324 12.3511 7.74608 12.343 7.81892C12.3289 7.92616 12.258 7.98686 12.1528 7.97877C12.0476 7.9727 11.9869 7.90592 11.9808 7.79666C11.9788 7.75215 11.9808 7.70966 11.9808 7.66515L11.9788 7.66717Z" fill="#410EAD"/>
<path d="M12.353 12.8673C12.353 12.9118 12.353 12.9219 12.353 12.93C12.3509 13.1121 12.2862 13.2052 12.1627 13.2052C12.0393 13.2052 11.9786 13.1142 11.9766 12.93C11.9766 12.8815 11.9766 12.8329 11.9766 12.7844C11.9806 12.6711 12.0373 12.5982 12.1526 12.5921C12.27 12.5861 12.3287 12.6609 12.3449 12.7682C12.3509 12.8107 12.3489 12.8552 12.3509 12.8653L12.353 12.8673Z" fill="#410EAD"/>
<path d="M13.035 13.9518C13.035 13.9862 13.037 14.0206 13.035 14.053C13.0248 14.1703 12.9661 14.2492 12.8427 14.2452C12.7274 14.2452 12.6687 14.1683 12.6606 14.057C12.6545 13.9842 12.6565 13.9113 12.6606 13.8385C12.6666 13.7211 12.7233 13.6402 12.8447 13.6382C12.9682 13.6382 13.0248 13.7171 13.035 13.8344C13.039 13.8729 13.035 13.9113 13.035 13.9518Z" fill="#410EAD"/>
<path d="M13.713 13.9544C13.713 13.9989 13.7171 14.0414 13.713 14.0859C13.6988 14.185 13.6381 14.2437 13.539 14.2477C13.4378 14.2518 13.367 14.2012 13.3548 14.1C13.3427 14.0009 13.3427 13.8977 13.3548 13.7965C13.367 13.6893 13.4398 13.6326 13.5471 13.6428C13.6543 13.6509 13.711 13.7176 13.7171 13.8249C13.7191 13.8674 13.7171 13.9119 13.7171 13.9564L13.713 13.9544Z" fill="#410EAD"/>
<path d="M11.9788 9.76161C11.9788 9.54714 12.0334 9.45811 12.1609 9.45609C12.2924 9.45406 12.3531 9.55321 12.3531 9.77173C12.3531 9.79601 12.3531 9.82029 12.3531 9.84457C12.345 9.99025 12.2742 10.0712 12.1589 10.0692C12.0435 10.0651 11.9828 9.9862 11.9788 9.83445C11.9788 9.81017 11.9788 9.78589 11.9788 9.76161Z" fill="#410EAD"/>
<path d="M11.9788 11.8494C11.9788 11.639 12.0374 11.5459 12.1649 11.5459C12.2945 11.5459 12.3531 11.643 12.3531 11.8514C12.3531 12.0659 12.3005 12.1549 12.171 12.159C12.0334 12.163 11.9788 12.076 11.9788 11.8514V11.8494Z" fill="#410EAD"/>
<path d="M13.7148 7.67324C13.7148 7.88569 13.6601 7.97877 13.5327 7.98079C13.4011 7.98281 13.3384 7.88367 13.3384 7.66515C13.3384 7.64087 13.3384 7.61659 13.3384 7.59231C13.3465 7.44662 13.4173 7.36569 13.5327 7.36771C13.65 7.36974 13.7107 7.44865 13.7148 7.6004C13.7148 7.62468 13.7148 7.64896 13.7148 7.67324Z" fill="#410EAD"/>
<path d="M13.0351 8.70944C13.0351 8.93201 12.9805 9.02508 12.8449 9.02306C12.7113 9.02306 12.6587 8.92999 12.6587 8.70539C12.6587 8.671 12.6587 8.6366 12.6587 8.60423C12.6688 8.49294 12.7275 8.41808 12.8408 8.41605C12.9643 8.41403 13.023 8.49294 13.0331 8.6103C13.0351 8.64469 13.0331 8.67909 13.0331 8.71146L13.0351 8.70944Z" fill="#410EAD"/>
<path d="M13.713 8.72779C13.713 8.76623 13.715 8.80468 13.713 8.84312C13.7029 8.95036 13.6442 9.01511 13.5369 9.01915C13.4276 9.02522 13.3609 8.96452 13.3467 8.85931C13.3366 8.77433 13.3345 8.6853 13.3426 8.5983C13.3528 8.48094 13.4175 8.40608 13.541 8.41417C13.6563 8.42226 13.711 8.49713 13.713 8.61044C13.713 8.64888 13.713 8.68732 13.713 8.72779Z" fill="#410EAD"/>
<path d="M13.7148 12.8958C13.7148 13.1103 13.6622 13.2013 13.5347 13.2054C13.4011 13.2114 13.3384 13.1103 13.3384 12.8938C13.3384 12.8695 13.3384 12.8452 13.3384 12.8209C13.3465 12.6732 13.4153 12.5923 13.5286 12.5923C13.644 12.5923 13.7087 12.6732 13.7128 12.8229C13.7128 12.8472 13.7128 12.8715 13.7128 12.8958H13.7148Z" fill="#410EAD"/>
<path d="M12.3548 8.72594C12.3528 8.77046 12.3528 8.81497 12.3447 8.85746C12.3285 8.9647 12.2658 9.0254 12.1545 9.02135C12.0452 9.01731 11.9845 8.95256 11.9784 8.8433C11.9744 8.76439 11.9764 8.6875 11.9784 8.60859C11.9804 8.49326 12.0391 8.42041 12.1545 8.41637C12.2718 8.4103 12.3326 8.48314 12.3467 8.59442C12.3528 8.63691 12.3467 8.68143 12.3467 8.72594C12.3487 8.72594 12.3508 8.72594 12.3528 8.72594H12.3548Z" fill="#410EAD"/>
<path d="M11.9807 10.7995C11.9807 10.755 11.9767 10.7125 11.9807 10.668C11.9949 10.5688 12.0516 10.5101 12.1548 10.5061C12.2559 10.502 12.3268 10.5526 12.3389 10.6538C12.3511 10.7529 12.3511 10.8561 12.3409 10.9573C12.3308 11.0666 12.2478 11.1353 12.1507 11.109C12.0839 11.0908 12.0273 11.0079 11.9827 10.9431C11.9605 10.9087 11.9787 10.848 11.9787 10.7995H11.9807Z" fill="#410EAD"/>
<path d="M11.9788 13.9399C11.9788 13.9156 11.9788 13.8913 11.9788 13.8671C11.9828 13.7194 12.0516 13.6344 12.167 13.6404C12.3026 13.6485 12.3471 13.7396 12.3511 13.859C12.3531 13.9217 12.3552 13.9864 12.3511 14.0492C12.341 14.1645 12.2884 14.2495 12.1609 14.2454C12.0374 14.2414 11.9808 14.1625 11.9788 14.0431C11.9788 14.0087 11.9788 13.9743 11.9788 13.9399Z" fill="#410EAD"/>
<path d="M2.00195 7.67323C2.00195 7.45876 2.05457 7.36973 2.18611 7.36771C2.3217 7.36568 2.38038 7.46078 2.38038 7.68133C2.38038 7.69144 2.38038 7.70156 2.38038 7.70965C2.37836 7.88569 2.30955 7.98483 2.18611 7.98078C2.06874 7.97876 2.00398 7.88569 2.00195 7.71572C2.00195 7.70156 2.00195 7.6874 2.00195 7.67121V7.67323Z" fill="#410EAD"/>
<path d="M1.60105 9.76785C1.60105 9.98435 1.54843 10.0693 1.41689 10.0714C1.28535 10.0714 1.23071 9.98435 1.23071 9.76987C1.23071 9.54933 1.2894 9.45221 1.42296 9.45828C1.55046 9.46232 1.60105 9.55135 1.60105 9.76785Z" fill="#410EAD"/>
<path d="M1.60105 12.9058C1.60105 12.9261 1.60105 12.9443 1.60105 12.9645C1.597 13.1223 1.53022 13.2093 1.41285 13.2073C1.30154 13.2053 1.23476 13.1223 1.23071 12.9726C1.23071 12.9038 1.23071 12.837 1.23476 12.7682C1.24286 12.661 1.30357 12.5963 1.41285 12.5942C1.53022 12.5942 1.58891 12.661 1.59903 12.7743C1.60307 12.8168 1.59903 12.8613 1.59903 12.9058C1.59903 12.9058 1.59903 12.9058 1.60105 12.9058Z" fill="#410EAD"/>
<path d="M1.60105 7.67967C1.60105 7.69383 1.60105 7.70799 1.60105 7.72418C1.59903 7.89616 1.53427 7.98519 1.41487 7.98317C1.29547 7.98317 1.23274 7.89414 1.23071 7.72013C1.23071 7.66146 1.23071 7.60278 1.23476 7.54612C1.24286 7.43889 1.30357 7.37414 1.41082 7.37212C1.52617 7.37009 1.58891 7.43686 1.59903 7.55017C1.60307 7.59266 1.59903 7.63717 1.59903 7.68169H1.60105V7.67967Z" fill="#410EAD"/>
<path d="M1.60311 11.866C1.59906 11.9146 1.61525 11.9753 1.59097 12.0076C1.54645 12.0663 1.48574 12.1351 1.42098 12.1513C1.32586 12.1756 1.25301 12.1088 1.23884 12.0076C1.2267 11.9166 1.23075 11.8235 1.23277 11.7325C1.23682 11.6171 1.3036 11.5483 1.41693 11.5483C1.52823 11.5483 1.59299 11.6192 1.59906 11.7345C1.60109 11.779 1.59906 11.8215 1.59906 11.866C1.59906 11.866 1.60109 11.866 1.60311 11.866Z" fill="#410EAD"/>
<path d="M1.22852 10.8078C1.22852 10.5913 1.27911 10.5063 1.41267 10.5063C1.54624 10.5063 1.59885 10.5893 1.59885 10.8058C1.59885 11.0304 1.54219 11.1235 1.40862 11.1174C1.27911 11.1134 1.22852 11.0243 1.22852 10.8078Z" fill="#410EAD"/>
<path d="M1.22883 8.71757C1.22883 8.50107 1.28145 8.41406 1.41501 8.41406C1.54655 8.41406 1.59917 8.50107 1.59917 8.71959C1.59917 8.93811 1.54655 9.02309 1.41299 9.02309C1.27942 9.02309 1.22681 8.93609 1.22681 8.71959L1.22883 8.71757Z" fill="#410EAD"/>
<path d="M1.60105 13.9477C1.60105 13.9719 1.60105 13.9962 1.60105 14.0205C1.59498 14.1722 1.53022 14.2532 1.41285 14.2471C1.27726 14.239 1.23071 14.15 1.23071 14.0286C1.23071 13.9659 1.23071 13.9011 1.23071 13.8384C1.23476 13.719 1.29345 13.6401 1.41892 13.6421C1.54439 13.6421 1.597 13.7271 1.59903 13.8465C1.59903 13.8809 1.59903 13.9153 1.59903 13.9497L1.60105 13.9477Z" fill="#410EAD"/>
<path d="M3.11865 9.77362C3.11865 9.81206 3.12068 9.85253 3.11865 9.89097C3.10854 9.99821 3.04985 10.063 2.94259 10.069C2.83331 10.0751 2.76653 10.0104 2.75236 9.90716C2.74022 9.82218 2.74022 9.73315 2.74832 9.64615C2.75641 9.53689 2.81915 9.45798 2.9345 9.46C3.05592 9.46 3.11663 9.53891 3.12068 9.65829C3.12068 9.69673 3.12068 9.73518 3.12068 9.77564L3.11865 9.77362Z" fill="#410EAD"/>
<path d="M3.12296 11.8658C3.12093 11.9143 3.1351 11.9771 3.11284 12.0074C3.06832 12.0661 3.00153 12.145 2.94082 12.147C2.88214 12.147 2.78298 12.0762 2.76679 12.0196C2.73845 11.9164 2.74857 11.799 2.76071 11.6898C2.77286 11.5886 2.85988 11.5259 2.94892 11.5542C3.0157 11.5744 3.07236 11.6574 3.11486 11.7241C3.13712 11.7585 3.11891 11.8192 3.11891 11.8678C3.11891 11.8678 3.12093 11.8678 3.12296 11.8678V11.8658Z" fill="#410EAD"/>
<path d="M3.12079 10.8099C3.12079 11.0223 3.06615 11.1154 2.93866 11.1174C2.8051 11.1215 2.74438 11.0223 2.74438 10.8018C2.74438 10.7674 2.74438 10.733 2.74641 10.7006C2.76057 10.5873 2.81117 10.5044 2.93866 10.5064C3.06413 10.5104 3.11674 10.5873 3.12079 10.7067C3.12079 10.7411 3.12079 10.7755 3.12079 10.8079V10.8099Z" fill="#410EAD"/>
<path d="M3.12079 12.8996C3.12079 13.1121 3.06413 13.2031 2.93664 13.2051C2.80712 13.2051 2.74438 13.108 2.74438 12.9016C2.74438 12.6831 2.8051 12.586 2.94068 12.5921C3.07222 12.5961 3.12079 12.6811 3.12079 12.8996Z" fill="#410EAD"/>
<path d="M3.12084 13.9457C3.12084 14.1602 3.06823 14.2472 2.93669 14.2492C2.8011 14.2492 2.74241 14.1582 2.74444 13.9356C2.74444 13.9012 2.74444 13.8668 2.74646 13.8345C2.76062 13.7191 2.81324 13.6382 2.93871 13.6422C3.06216 13.6463 3.11882 13.7252 3.11882 13.8446C3.11882 13.879 3.11882 13.9134 3.11882 13.9457H3.12084Z" fill="#410EAD"/>
<path d="M3.43024 12.8777C3.43428 12.8332 3.41809 12.7705 3.4444 12.7381C3.49095 12.6794 3.55975 12.6025 3.61844 12.6025C3.67713 12.6025 3.77022 12.6774 3.78843 12.7361C3.81676 12.8332 3.80462 12.9465 3.7945 13.0537C3.78438 13.1549 3.70344 13.2197 3.61237 13.1994C3.54761 13.1853 3.48285 13.1144 3.4444 13.0517C3.41809 13.0092 3.43428 12.9384 3.43024 12.8777Z" fill="#410EAD"/>
<path d="M3.43262 9.75757C3.43262 9.73734 3.43262 9.71913 3.43262 9.69889C3.43666 9.54107 3.50345 9.45407 3.62082 9.45609C3.73212 9.45811 3.79891 9.54107 3.80295 9.6908C3.80295 9.75757 3.80295 9.82636 3.79891 9.89516C3.79081 10.0024 3.72808 10.0671 3.62082 10.0692C3.50547 10.0692 3.44274 10.0044 3.43464 9.88909C3.43059 9.8466 3.43464 9.80208 3.43464 9.75757C3.43464 9.75757 3.43464 9.75757 3.43262 9.75757Z" fill="#410EAD"/>
<path d="M3.43262 11.8474C3.43262 11.8474 3.43262 11.8272 3.43262 11.8191C3.43262 11.6329 3.49535 11.5439 3.6188 11.5459C3.74224 11.5459 3.80295 11.635 3.80295 11.8231C3.80295 11.8757 3.80295 11.9304 3.79891 11.983C3.78676 12.0963 3.72403 12.161 3.60868 12.157C3.4994 12.1529 3.44274 12.0862 3.43464 11.9789C3.43059 11.9364 3.43464 11.8919 3.43464 11.8474C3.43464 11.8474 3.43464 11.8474 3.43262 11.8474Z" fill="#410EAD"/>
<path d="M3.43262 10.8079C3.43262 10.7876 3.43262 10.7694 3.43262 10.7492C3.43666 10.5833 3.49738 10.5044 3.6188 10.5064C3.74022 10.5064 3.79891 10.5853 3.80295 10.7532C3.80295 10.816 3.80295 10.8807 3.79891 10.9434C3.79081 11.0547 3.71998 11.1154 3.61677 11.1134C3.51154 11.1134 3.44476 11.0486 3.43666 10.9394C3.43262 10.8949 3.43666 10.8524 3.43666 10.8079C3.43666 10.8079 3.43666 10.8079 3.43464 10.8079H3.43262Z" fill="#410EAD"/>
<path d="M3.43262 13.9397C3.43262 13.9195 3.43262 13.9013 3.43262 13.881C3.43666 13.7192 3.4994 13.6362 3.62082 13.6382C3.74022 13.6382 3.80093 13.7192 3.80295 13.8871C3.80295 13.9498 3.80295 14.0146 3.79891 14.0773C3.78879 14.1865 3.72403 14.2472 3.61475 14.2452C3.50749 14.2452 3.44476 14.1805 3.43666 14.0712C3.43262 14.0267 3.43666 13.9842 3.43666 13.9397C3.43666 13.9397 3.43666 13.9397 3.43464 13.9397H3.43262Z" fill="#410EAD"/>
<path d="M7.75537 2.69605C7.75537 2.47753 7.75537 2.25698 7.75537 2.03846C7.75537 1.87457 7.81608 1.79363 7.9375 1.78959C8.05893 1.78756 8.13178 1.8685 8.13178 2.02834C8.1338 2.47753 8.1338 2.92469 8.13178 3.37388C8.13178 3.53372 8.06095 3.61668 7.93953 3.61668C7.81811 3.61668 7.75537 3.53372 7.75537 3.36983C7.75537 3.14524 7.75537 2.92064 7.75537 2.69605Z" fill="#410EAD"/>
</svg>
