<svg width="15" height="15" viewBox="0 0 15 15" fill="none" xmlns="http://www.w3.org/2000/svg">
<path d="M14.9857 10.8372V10.9838C14.5584 11.4452 14.0238 11.6991 13.3997 11.8064C13.3997 11.8637 13.3997 11.9155 13.3997 11.9692C13.3997 12.2088 13.4033 12.4466 13.3997 12.6863C13.3962 12.8651 13.3139 12.9438 13.1387 12.9474C13.0779 12.9474 13.0153 12.9474 12.9545 12.9474V13.1781C13.0207 13.1781 13.0797 13.1799 13.1369 13.1781C13.2728 13.1709 13.3461 13.2407 13.4051 13.3605C13.6018 13.7718 13.8056 14.1831 14.0148 14.589C14.1024 14.7589 14.0988 14.8823 13.9737 14.961C13.8503 15.0379 13.7216 14.9986 13.6268 14.8269C13.4391 14.4853 13.2531 14.1438 13.0851 13.7915C13.026 13.6663 12.9635 13.6251 12.8276 13.6269C9.27482 13.6305 5.72386 13.6305 2.1711 13.6269C2.01554 13.6269 1.96012 13.6842 1.89754 13.8129C1.7241 14.1724 1.53457 14.5247 1.33253 14.868C1.29498 14.9342 1.17161 14.9861 1.09294 14.9807C1.03036 14.9771 0.946321 14.8841 0.921289 14.8144C0.901621 14.7554 0.942745 14.6659 0.976717 14.5998C1.1573 14.2439 1.36829 13.9005 1.51848 13.5322C1.61861 13.2872 1.72946 13.1351 2.01018 13.1781C2.01733 13.1781 2.02627 13.1691 2.037 13.1638V12.9617C2.00482 12.9581 1.98157 12.9527 1.95833 12.9545C1.62934 12.9849 1.57391 12.8401 1.58464 12.5665C1.59358 12.3143 1.58642 12.0622 1.58642 11.81C1.52027 11.7975 1.47378 11.7886 1.4255 11.7796C0.914137 11.6795 0.474289 11.438 0.0916568 11.0911C-0.0227752 10.9874 -0.0281391 10.8568 0.0648368 10.7567C0.150661 10.6637 0.290125 10.6512 0.390253 10.7567C0.520777 10.898 0.669181 10.9141 0.847981 10.9069C1.49881 10.8783 2.11746 10.7174 2.71823 10.4813V9.54959C2.7075 9.53886 2.70392 9.53349 2.70035 9.53349C2.6771 9.52812 2.65207 9.52455 2.62883 9.52097C2.09422 9.43156 1.63649 9.18298 1.23419 8.82532C1.12154 8.72517 1.11082 8.58747 1.19843 8.48912C1.28425 8.39076 1.40584 8.38718 1.52563 8.47839C1.54888 8.49627 1.57212 8.51415 1.59179 8.53561C1.6794 8.63039 1.77595 8.66079 1.90469 8.61609C2.03342 8.57317 2.16931 8.5535 2.30341 8.52309C2.74326 8.42474 3.1849 8.32459 3.6319 8.22445C3.6319 7.96335 3.62117 7.71478 3.63547 7.46799C3.64441 7.30704 3.60686 7.22299 3.43164 7.22299C3.36548 7.22299 3.29933 7.19438 3.23317 7.17471C2.81657 7.04595 2.44824 6.83314 2.12819 6.53807C2.02448 6.44329 2.01733 6.30559 2.10137 6.21081C2.1854 6.11424 2.31235 6.11066 2.42857 6.20008C2.45539 6.22154 2.484 6.24121 2.50546 6.26624C2.58413 6.35387 2.68068 6.37712 2.79511 6.35208C3.16702 6.27161 3.5425 6.21081 3.90725 6.11245C4.32385 6.00157 4.3167 5.98727 4.31491 5.55628C4.31491 5.45614 4.27915 5.4311 4.18439 5.41322C3.71057 5.3238 3.32257 5.08775 3.02219 4.70863C2.92742 4.58881 2.93458 4.45111 3.03292 4.36885C3.14198 4.27764 3.2743 4.29553 3.37264 4.42965C3.43164 4.51012 3.49422 4.52085 3.58541 4.49939C4.23445 4.35275 4.88528 4.20969 5.5826 4.05589C5.48605 3.97184 5.39486 3.90746 5.32334 3.8252C5.27507 3.76976 5.23037 3.69465 5.22322 3.62312C5.20712 3.47827 5.21428 3.32984 5.21964 3.18498C5.22679 3.03477 5.31083 2.95787 5.46281 2.95071C5.52896 2.94714 5.59691 2.95071 5.65949 2.95071C5.69525 2.71823 5.69525 2.72002 5.50393 2.68962C5.10878 2.62524 4.73867 2.49469 4.42398 2.23897C4.29703 2.13703 4.27736 2.01543 4.35782 1.90813C4.44186 1.79546 4.58311 1.77758 4.70291 1.88846C4.85489 2.02973 4.99793 2.04046 5.18924 1.96357C5.85438 1.6989 6.49448 1.39488 7.02373 0.897732C7.1918 0.740361 7.3116 0.57226 7.26511 0.325473C7.24008 0.191349 7.28657 0.0768974 7.40815 0H7.58338C7.6996 0.080474 7.74251 0.194926 7.72105 0.329049C7.68172 0.566895 7.78006 0.742149 7.95707 0.888791C8.08759 0.997878 8.21275 1.11591 8.35043 1.21605C8.80458 1.5451 9.3088 1.77043 9.8291 1.9743C10.0043 2.04225 10.1295 2.01722 10.2636 1.90276C10.4031 1.78295 10.5318 1.78831 10.6212 1.90098C10.7106 2.01185 10.6784 2.15134 10.5336 2.264C10.294 2.4482 10.024 2.5698 9.73255 2.63776C9.59666 2.66995 9.4572 2.69141 9.3231 2.71823V2.95071C9.38032 2.95071 9.42859 2.95071 9.47687 2.95071C9.70037 2.95429 9.7701 3.02582 9.77368 3.25294C9.77368 3.36024 9.78798 3.46932 9.7701 3.57484C9.75401 3.66425 9.71467 3.75724 9.66282 3.83235C9.60203 3.91819 9.5162 3.98615 9.42859 4.07556C9.54302 4.09345 9.62527 4.10239 9.70573 4.12027C10.2761 4.24545 10.8465 4.37242 11.4168 4.50118C11.4937 4.51906 11.5509 4.51728 11.6064 4.44395C11.7154 4.30089 11.8478 4.27943 11.9568 4.36885C12.0659 4.45826 12.0659 4.59238 11.955 4.73008C11.7083 5.03231 11.399 5.24512 11.0253 5.36136C10.9126 5.39712 10.7481 5.39891 10.6999 5.47581C10.6409 5.56701 10.6873 5.72081 10.6784 5.84778C10.673 5.93898 10.7034 5.98548 10.7928 6.01767C11.2434 6.18041 11.7065 6.28949 12.1821 6.35387C12.3234 6.37354 12.4235 6.33599 12.5218 6.243C12.5683 6.19829 12.6398 6.13927 12.6917 6.14643C12.7722 6.15716 12.8705 6.19829 12.9188 6.26088C12.9939 6.35924 12.9474 6.46475 12.8598 6.54522C12.5057 6.86354 12.1034 7.09423 11.6386 7.20511C11.5492 7.22657 11.4598 7.24266 11.3739 7.26233V8.22266C11.9229 8.34426 12.4682 8.45514 13.0064 8.58926C13.1959 8.63576 13.3372 8.62503 13.4748 8.4766C13.575 8.3693 13.7073 8.38182 13.7985 8.4766C13.8897 8.57317 13.8843 8.70908 13.7716 8.8128C13.6787 8.89864 13.5768 8.97554 13.4748 9.04886C13.1172 9.30459 12.7185 9.46553 12.2751 9.52812C12.2751 9.82498 12.2715 10.1129 12.2787 10.399C12.2787 10.4348 12.3305 10.4884 12.3699 10.5028C12.9706 10.7317 13.5857 10.8819 14.2329 10.8998C14.3724 10.9033 14.4725 10.8676 14.5709 10.7782C14.7461 10.6172 14.8587 10.6351 15 10.8318L14.9857 10.8372ZM6.35502 11.8207H3.17953C3.17953 11.878 3.17953 11.9263 3.17953 11.9745C3.17953 12.2034 3.18132 12.4341 3.17953 12.663C3.17774 12.8687 3.09907 12.9456 2.89524 12.9474C2.76472 12.9474 2.63419 12.9474 2.50009 12.9474V13.1709H12.4843V12.9599C12.4628 12.9545 12.4539 12.951 12.4449 12.951C12.3234 12.951 12.2018 12.951 12.0784 12.9492C11.8978 12.9474 11.8174 12.8723 11.8138 12.6934C11.8102 12.5271 11.8138 12.3608 11.8138 12.1963C11.8138 12.0711 11.8138 11.9459 11.8138 11.8207H8.63293C8.63293 12.1069 8.63293 12.3823 8.63293 12.6595C8.63293 12.8723 8.55426 12.9474 8.3397 12.9492C7.78363 12.9492 7.22756 12.9492 6.6715 12.9492C6.42833 12.9492 6.3586 12.8794 6.35681 12.6362C6.35681 12.368 6.35681 12.0997 6.35681 11.8225L6.35502 11.8207ZM5.02654 10.6709H9.87738C9.08708 10.0467 8.27891 9.40831 7.45643 8.75915C6.73229 9.44407 5.92232 10.0825 5.02654 10.6709ZM7.4904 7.60927C6.2978 8.83784 4.99793 9.89115 3.47634 10.6583C3.79103 10.6726 4.09141 10.7084 4.38822 10.526C5.42884 9.88936 6.38899 9.15258 7.2669 8.30671C7.45106 8.12967 7.52974 8.13682 7.72284 8.31028C8.09117 8.64291 8.45771 8.98269 8.84213 9.29564C9.43932 9.78207 10.0651 10.2327 10.7446 10.6011C10.9001 10.6852 11.3489 10.7084 11.5045 10.644C9.97572 9.88758 8.67763 8.83068 7.4904 7.60927ZM7.4904 4.42071C6.78772 5.10742 6.01709 5.67074 5.12488 6.12676H6.4766C6.30317 5.96939 6.33893 5.78519 6.3729 5.60993C6.39257 5.50264 6.48733 5.45077 6.59461 5.45793C6.70904 5.46508 6.79308 5.53482 6.80381 5.64928C6.81811 5.8138 6.85745 5.99084 6.68044 6.13212H7.39564C7.21862 5.99442 7.25617 5.82274 7.2669 5.6618C7.27584 5.53482 7.36345 5.45614 7.49398 5.45793C7.62271 5.45793 7.70675 5.54019 7.71569 5.66716C7.72642 5.82811 7.7586 5.998 7.5941 6.13033H8.28785C8.16805 5.98548 8.14838 5.90679 8.17163 5.68683C8.18593 5.54734 8.28427 5.45256 8.40764 5.45614C8.52744 5.45972 8.6222 5.55271 8.62757 5.68683C8.63472 5.84241 8.65975 6.00515 8.50777 6.13033H9.86308C8.96371 5.67074 8.19308 5.10742 7.49219 4.42249L7.4904 4.42071ZM13.4945 11.3415C13.4945 11.3272 13.4945 11.3111 13.4945 11.2968C13.4337 11.2842 13.3729 11.2717 13.3121 11.261C13.1029 11.2181 12.8937 11.1394 12.6845 11.1376C9.44647 11.1305 6.20662 11.134 2.96855 11.1305C2.52334 11.1305 2.08349 11.1358 1.65437 11.2664C1.60073 11.2825 1.54351 11.2914 1.48808 11.3039L1.49524 11.3433H13.4945V11.3415ZM9.32668 3.41746H5.64161C5.68631 3.50151 5.70776 3.56768 5.75068 3.61597C5.8669 3.75188 5.98848 3.88421 6.11364 4.01297C6.14761 4.04874 6.19589 4.08987 6.2388 4.09166C6.51594 4.09881 6.79487 4.09345 7.07201 4.09523C7.19717 4.09523 7.25975 4.04516 7.26332 3.91461C7.2669 3.73936 7.36166 3.63564 7.49755 3.63921C7.62986 3.64279 7.71569 3.74294 7.71926 3.91283C7.72284 4.04337 7.78363 4.09523 7.90879 4.09523C8.18593 4.09345 8.46486 4.09523 8.742 4.09523C8.77776 4.09523 8.82782 4.09166 8.84928 4.06841C8.99053 3.91104 9.12821 3.75009 9.26231 3.58557C9.29449 3.54622 9.30164 3.48542 9.32846 3.41746H9.32668ZM4.09856 7.28022V8.16901H4.76728C4.76728 8.02773 4.76728 7.89718 4.76728 7.76664C4.76906 7.60211 4.85668 7.50018 4.99256 7.50018C5.12666 7.50018 5.21249 7.60032 5.21606 7.76843C5.21785 7.90255 5.21606 8.03667 5.21606 8.1851C5.4342 8.1851 5.6273 8.18868 5.8222 8.18153C5.84902 8.18153 5.8955 8.1243 5.89729 8.09211C5.90623 7.97587 5.89729 7.85784 5.90266 7.7416C5.90802 7.59854 6.00278 7.50376 6.12794 7.50376C6.25489 7.50376 6.34608 7.60033 6.35144 7.7416C6.35502 7.84175 6.35144 7.94189 6.35144 8.08675C6.62501 7.78989 6.86818 7.52522 7.09346 7.28022H4.09678H4.09856ZM7.84442 7.27843C7.83727 7.28916 7.83012 7.2981 7.82476 7.30883C8.08223 7.55741 8.3397 7.80777 8.59717 8.05634C8.62757 7.94368 8.62578 7.85605 8.62757 7.76843C8.63114 7.60211 8.71518 7.50018 8.85107 7.50018C8.98696 7.50018 9.07457 7.60033 9.07636 7.76664C9.07814 7.90076 9.07636 8.03667 9.07636 8.16901H9.75937C9.75937 8.02594 9.7558 7.8954 9.75937 7.76485C9.76295 7.60033 9.85414 7.49839 9.99002 7.50197C10.1259 7.50376 10.2082 7.60569 10.2117 7.77379C10.2117 7.90791 10.2117 8.04204 10.2117 8.17437H10.8769V7.28022H7.84085L7.84442 7.27843ZM3.4084 6.70259C3.4084 6.72405 3.4084 6.74551 3.4084 6.76518C3.56395 6.78307 3.71951 6.81704 3.87328 6.81704C4.97111 6.82241 6.06715 6.82062 7.16498 6.81704C7.21862 6.81704 7.2812 6.78664 7.3259 6.75088C7.43676 6.65967 7.54225 6.65967 7.6549 6.75088C7.69781 6.78664 7.76218 6.81704 7.81582 6.81704C8.91365 6.82062 10.0097 6.82241 11.1075 6.81704C11.2631 6.81704 11.4186 6.78307 11.5742 6.76518C11.5742 6.74372 11.5742 6.72226 11.576 6.7008C11.331 6.66325 11.0879 6.59529 10.8429 6.59529C8.60969 6.58635 6.37648 6.58635 4.14326 6.59529C3.89831 6.59529 3.65335 6.66325 3.4084 6.69902V6.70259ZM7.46716 1.09802C6.99512 1.6059 6.38363 1.94926 5.74174 2.26043H6.80381C6.82884 2.08338 6.74838 1.82408 7.03804 1.82587C7.3259 1.82587 7.24366 2.08696 7.27226 2.26579H7.71748C7.73893 2.08696 7.66026 1.83838 7.93561 1.82765C8.23778 1.81514 8.15196 2.08517 8.18414 2.26221H9.25337C8.93332 2.08696 8.61505 1.93853 8.32361 1.74897C8.02859 1.55583 7.7586 1.32335 7.46716 1.1016V1.09802ZM9.29449 8.65364C9.47687 8.79671 9.63779 8.92368 9.8005 9.04528C9.83268 9.06853 9.88096 9.08462 9.92029 9.08462C10.6713 9.08462 11.4222 9.08641 12.1732 9.07747C12.3126 9.07747 12.4521 9.0274 12.5987 8.99879C11.5223 8.61251 10.4281 8.58926 9.2927 8.65364H9.29449ZM5.6881 8.65543C4.55093 8.58747 3.45667 8.61787 2.37136 9.00236C2.543 9.03097 2.69498 9.07747 2.84696 9.07926C3.58183 9.08999 4.3167 9.0882 5.05336 9.0882C5.09448 9.0882 5.14276 9.07747 5.17494 9.05243C5.34301 8.92904 5.50572 8.79849 5.68988 8.65543H5.6881ZM8.16269 11.8207H6.81811V12.4842H8.16269V11.8207ZM4.00559 4.90713C4.11287 4.93216 4.21836 4.97687 4.32564 4.98045C4.89601 4.99476 5.4646 4.99654 6.03497 5.00191C6.05821 5.00191 6.08682 4.99833 6.1047 4.98581C6.28529 4.8499 6.46409 4.7122 6.65004 4.57093C5.73101 4.44038 4.87277 4.66034 4.00559 4.90713ZM8.33434 4.56914C8.51135 4.70684 8.67584 4.83738 8.84392 4.96078C8.87968 4.9876 8.93332 5.00012 8.9798 5.00012C9.47329 5.00191 9.96499 5.00906 10.4585 4.99654C10.6337 4.99297 10.8071 4.94468 10.9806 4.91786C10.1152 4.66213 9.25873 4.44217 8.33434 4.56914ZM8.84928 2.73969H6.14225V2.94714H8.84928C8.85286 2.90243 8.85643 2.86845 8.85643 2.83447C8.85643 2.80586 8.85286 2.77725 8.84928 2.73969ZM3.18847 10.2917C3.62117 10.0485 4.02883 9.81962 4.4365 9.5925C4.43113 9.58177 4.42577 9.56926 4.4204 9.55853H3.18847V10.2935V10.2917ZM11.8013 9.56031H10.5622C10.5586 9.57104 10.555 9.58177 10.5515 9.5925C10.9591 9.82141 11.3668 10.0485 11.8013 10.2917V9.55853V9.56031ZM2.71108 12.4896V11.8207H2.0513V12.4896H2.71108ZM12.2751 11.8261V12.4914H12.9313V11.8261H12.2751ZM5.33228 5.49191C5.33228 5.49191 5.32334 5.47581 5.31798 5.46687H4.77443V5.7834C4.97111 5.68147 5.1517 5.58669 5.33228 5.49191ZM10.2082 5.77982V5.46687H9.65209C9.65209 5.46687 9.64852 5.48475 9.64673 5.49191C9.82732 5.5849 10.0079 5.67789 10.2082 5.77982Z" fill="#410EAD"/>
<path d="M11.5669 14.3156C11.4882 14.3156 11.4095 14.3228 11.3344 14.3138C11.2093 14.2977 11.1306 14.2226 11.1234 14.0921C11.1163 13.9723 11.2075 13.8685 11.3398 13.8614C11.4989 13.8525 11.6616 13.8507 11.8208 13.8614C11.9459 13.8703 12.0246 13.949 12.03 14.0814C12.0353 14.2048 11.9495 14.2995 11.8154 14.3121C11.7331 14.3192 11.6509 14.3121 11.5669 14.3121V14.3156Z" fill="#410EAD"/>
<path d="M6.12606 14.3153C6.04918 14.3153 5.97051 14.3206 5.89362 14.3153C5.76131 14.3027 5.67549 14.2062 5.67727 14.0846C5.67727 13.963 5.76667 13.8682 5.90077 13.861C6.05633 13.8539 6.21189 13.8521 6.36744 13.861C6.49975 13.8682 6.58737 13.9701 6.58558 14.0899C6.58558 14.2115 6.49618 14.3027 6.36208 14.3135C6.28519 14.3206 6.20652 14.3135 6.12964 14.3135L6.12606 14.3153Z" fill="#410EAD"/>
<path d="M3.84471 14.3153C3.7714 14.3153 3.6981 14.3206 3.62658 14.3153C3.49426 14.3045 3.40308 14.208 3.40308 14.0899C3.40308 13.9719 3.49248 13.8682 3.623 13.861C3.77856 13.8521 3.93411 13.8539 4.08967 13.861C4.22377 13.8682 4.30959 13.9612 4.30959 14.0864C4.30959 14.2115 4.22734 14.3027 4.09324 14.3153C4.011 14.3224 3.92875 14.3153 3.8465 14.3153H3.84471Z" fill="#410EAD"/>
<path d="M2.50008 14.9949C2.41783 14.9949 2.3338 15.002 2.25334 14.9931C2.12639 14.9788 2.04772 14.9037 2.04593 14.7731C2.04414 14.6426 2.11745 14.5567 2.24619 14.5478C2.41068 14.5353 2.57697 14.5371 2.74146 14.5478C2.8702 14.5549 2.96317 14.664 2.95245 14.7821C2.93993 14.9108 2.86483 14.9859 2.7361 14.9967C2.65921 15.0038 2.58054 14.9967 2.50366 14.9967L2.50008 14.9949Z" fill="#410EAD"/>
<path d="M8.62399 13.8595C8.70087 13.8595 8.77954 13.8541 8.85643 13.8595C8.99053 13.8702 9.07456 13.9632 9.07456 14.0866C9.07456 14.2118 8.99053 14.3047 8.85464 14.3119C8.69908 14.3208 8.54353 14.3191 8.38797 14.3119C8.25745 14.3047 8.16626 14.2028 8.16626 14.0848C8.16626 13.9668 8.25745 13.8702 8.38976 13.8577C8.46664 13.8505 8.54532 13.8577 8.6222 13.8577L8.62399 13.8595Z" fill="#410EAD"/>
<path d="M12.7094 14.9951C12.6326 14.9951 12.5539 15.0005 12.477 14.9951C12.3447 14.9844 12.2571 14.8896 12.2624 14.7662C12.2678 14.6339 12.3411 14.5552 12.4698 14.5463C12.6343 14.5373 12.8006 14.5373 12.9651 14.5463C13.0885 14.5534 13.1707 14.6571 13.169 14.7716C13.1672 14.886 13.0796 14.979 12.958 14.9933C12.949 14.9933 12.9383 14.9933 12.9294 14.9933C12.8561 14.9933 12.7827 14.9933 12.7112 14.9933L12.7094 14.9951Z" fill="#410EAD"/>
<path d="M10.6643 14.9948C10.5875 14.9948 10.5088 15.0002 10.4319 14.9948C10.3014 14.9841 10.2102 14.8875 10.2156 14.7659C10.2227 14.6353 10.2978 14.5549 10.4248 14.5477C10.5892 14.5388 10.7555 14.5388 10.92 14.5477C11.0452 14.5549 11.1274 14.655 11.1203 14.773C11.1131 14.9036 11.038 14.9787 10.9111 14.993C10.8288 15.002 10.7466 14.993 10.6626 14.993L10.6643 14.9948Z" fill="#410EAD"/>
<path d="M7.70852 14.9952C7.63164 14.9952 7.55297 15.0006 7.47608 14.9952C7.34735 14.9827 7.27583 14.9022 7.26331 14.7753C7.25437 14.6626 7.34377 14.5553 7.46535 14.5481C7.63521 14.5392 7.80508 14.5356 7.97494 14.5481C8.10367 14.5589 8.1734 14.6483 8.16983 14.7788C8.16625 14.9112 8.084 14.9827 7.95705 14.9934C7.87481 15.0006 7.79256 14.9934 7.71031 14.9934L7.70852 14.9952Z" fill="#410EAD"/>
<path d="M4.76557 14.9948C4.68868 14.9948 4.61001 14.9984 4.53313 14.9948C4.4026 14.9859 4.30784 14.8893 4.31321 14.7695C4.31857 14.6425 4.3883 14.5549 4.51882 14.5477C4.68332 14.5388 4.8496 14.5388 5.0141 14.5477C5.14641 14.5549 5.22866 14.6586 5.21793 14.7856C5.2072 14.9161 5.12675 14.9859 4.9998 14.9966C4.92291 15.0037 4.84424 14.9966 4.76736 14.9966L4.76557 14.9948Z" fill="#410EAD"/>
<path d="M9.31071 14.9948C9.22846 14.9948 9.14442 15.0002 9.06396 14.9948C8.94059 14.9841 8.85655 14.8911 8.85477 14.773C8.85298 14.6532 8.92986 14.5549 9.05681 14.5477C9.22667 14.5388 9.39653 14.5388 9.56639 14.5477C9.68976 14.5567 9.75413 14.6443 9.76128 14.7641C9.76843 14.8786 9.67904 14.9805 9.55924 14.9912C9.47699 15.0002 9.39474 14.9912 9.3125 14.9912L9.31071 14.9948Z" fill="#410EAD"/>
<path d="M9.53589 12.5091C9.53589 12.586 9.54483 12.6664 9.5341 12.7416C9.51801 12.8667 9.44649 12.9472 9.31239 12.949C9.18008 12.9508 9.09425 12.8757 9.08531 12.7505C9.0728 12.5824 9.0728 12.4107 9.08531 12.2408C9.09425 12.121 9.18187 12.0477 9.30345 12.0459C9.43219 12.0459 9.51443 12.121 9.53231 12.248C9.54483 12.3338 9.5341 12.4232 9.5341 12.5109L9.53589 12.5091Z" fill="#410EAD"/>
<path d="M4.08431 12.4967C4.08431 12.579 4.09147 12.663 4.08431 12.7435C4.06822 12.8776 3.97167 12.9581 3.84651 12.9492C3.7142 12.9402 3.64089 12.8597 3.63374 12.7328C3.6248 12.5772 3.62659 12.4216 3.63374 12.266C3.6391 12.1355 3.73923 12.0425 3.85903 12.0425C3.97703 12.0425 4.07537 12.1319 4.08789 12.2624C4.09504 12.3393 4.08789 12.418 4.08789 12.4949L4.08431 12.4967Z" fill="#410EAD"/>
<path d="M4.99443 12.5039C4.99443 12.5808 5.00158 12.6595 4.99443 12.7364C4.98012 12.8705 4.88715 12.9528 4.76199 12.9492C4.63862 12.9456 4.54743 12.8598 4.54028 12.7239C4.53312 12.5737 4.53312 12.4217 4.54028 12.2714C4.54564 12.1391 4.63862 12.0461 4.75841 12.0407C4.88 12.0354 4.9837 12.1302 4.99443 12.2696C5.00158 12.3465 4.99443 12.4252 4.99443 12.5021V12.5039Z" fill="#410EAD"/>
<path d="M5.90239 12.5019C5.90239 12.5788 5.90775 12.6575 5.90239 12.7344C5.88808 12.8685 5.79511 12.9508 5.66995 12.949C5.54479 12.9472 5.4536 12.8614 5.44824 12.7255C5.44108 12.5753 5.44108 12.4233 5.44824 12.273C5.4536 12.1335 5.55551 12.0388 5.68067 12.0406C5.79868 12.0423 5.89166 12.1353 5.90417 12.2677C5.91133 12.3446 5.90417 12.4233 5.90417 12.5001L5.90239 12.5019Z" fill="#410EAD"/>
<path d="M9.98829 12.4878C9.98829 12.4109 9.98113 12.3322 9.98829 12.2553C10.0044 12.1284 10.0795 12.0533 10.21 12.0443C10.328 12.0372 10.4335 12.132 10.4406 12.2607C10.4496 12.4199 10.4514 12.5826 10.4406 12.7418C10.4317 12.8669 10.353 12.9474 10.2207 12.9492C10.0884 12.951 10.0097 12.8759 9.99186 12.7507C9.97935 12.6649 9.99007 12.5755 9.99007 12.4878H9.98829Z" fill="#410EAD"/>
<path d="M11.3524 12.5004C11.3524 12.5773 11.3596 12.656 11.3524 12.7329C11.3399 12.858 11.272 12.9403 11.1379 12.9493C11.0127 12.9582 10.9108 12.8777 10.9018 12.7436C10.8911 12.5791 10.8911 12.4128 10.9018 12.2482C10.9108 12.1213 10.9984 12.0479 11.1271 12.0426C11.2469 12.039 11.3417 12.1338 11.3524 12.2661C11.3578 12.343 11.3524 12.4217 11.3524 12.4986V12.5004Z" fill="#410EAD"/>
<path d="M6.81271 10.1131C6.81271 10.1471 6.81449 10.181 6.81271 10.215C6.80198 10.3581 6.71258 10.4529 6.58742 10.4547C6.45689 10.4582 6.36213 10.3599 6.35498 10.2097C6.3514 10.1471 6.3514 10.0827 6.35498 10.0201C6.36213 9.8663 6.44974 9.77509 6.58742 9.77688C6.71794 9.77688 6.80198 9.86451 6.81449 10.0111C6.81628 10.0451 6.81449 10.0791 6.81449 10.1131H6.81271Z" fill="#410EAD"/>
<path d="M7.71917 10.1131C7.71917 10.1471 7.72096 10.181 7.71917 10.215C7.70844 10.3545 7.61547 10.4511 7.49209 10.4529C7.36872 10.4529 7.27217 10.3581 7.26144 10.2186C7.25608 10.156 7.25787 10.0916 7.26144 10.029C7.26681 9.86629 7.35621 9.76972 7.49567 9.77151C7.62798 9.7733 7.71381 9.86808 7.72096 10.0237C7.72096 10.0523 7.72096 10.0827 7.72096 10.1113L7.71917 10.1131Z" fill="#410EAD"/>
<path d="M8.62762 10.1166C8.62762 10.1505 8.6294 10.1845 8.62762 10.2185C8.61689 10.358 8.52213 10.4546 8.39875 10.4546C8.27538 10.4546 8.18062 10.358 8.16989 10.2185C8.16453 10.1559 8.16631 10.0915 8.16989 10.0289C8.17704 9.8662 8.26644 9.77142 8.40591 9.775C8.53822 9.77858 8.62046 9.87336 8.62762 10.0289C8.62762 10.0576 8.62762 10.088 8.62762 10.1166Z" fill="#410EAD"/>
</svg>
