<svg width="15" height="15" viewBox="0 0 15 15" fill="none" xmlns="http://www.w3.org/2000/svg">
<path d="M14.9892 14.6763V14.822C14.9164 14.9568 14.8031 15 14.6521 15C13.808 14.9946 12.9639 15 12.1197 15C11.1084 15 10.0998 15 9.08846 15C8.85922 15 8.74865 14.9191 8.74595 14.7545C8.74595 14.5873 8.85383 14.5037 9.08037 14.501C9.20982 14.501 9.34196 14.501 9.4795 14.501C9.4822 14.4551 9.48759 14.4228 9.48759 14.3877C9.48759 13.0552 9.48759 11.7227 9.48759 10.3902C9.48759 10.3309 9.46872 10.2661 9.44175 10.2095C9.3069 9.93436 9.16397 9.66193 9.03182 9.3841C8.93473 9.1791 9.03991 9.01187 9.26375 8.99568C9.3069 8.99299 9.35005 8.99029 9.3932 8.98759C9.26645 8.21615 8.39806 7.51753 7.55394 7.49865C6.61543 7.47707 5.74703 8.12714 5.57174 8.98489C5.6014 8.98759 5.62837 8.99299 5.65804 8.99299C5.97357 9.00378 6.06526 9.16022 5.92503 9.44345C5.80097 9.6916 5.67422 9.93976 5.55555 10.1906C5.5205 10.2634 5.49892 10.3471 5.49892 10.4253C5.49622 11.7281 5.49892 13.0309 5.49892 14.3338C5.49892 14.385 5.50431 14.4363 5.50701 14.4956C5.66882 14.4956 5.81715 14.4956 5.96278 14.4956C6.13808 14.4956 6.24326 14.5927 6.24326 14.7438C6.24326 14.8948 6.13808 14.9946 5.96278 14.9946C4.06958 14.9946 2.17638 14.9946 0.283171 14.9946C0.113268 14.9946 0 14.8894 0 14.7438C0 14.5981 0.113268 14.4983 0.283171 14.4956C0.434196 14.4956 0.582524 14.4956 0.74164 14.4956C0.744337 14.4389 0.74973 14.3958 0.74973 14.3526C0.74973 13.039 0.74973 11.7254 0.74973 10.4145C0.74973 10.3444 0.728155 10.2688 0.698489 10.2068C0.566343 9.92897 0.423409 9.65923 0.291262 9.38141C0.194175 9.17641 0.302049 9.00647 0.528587 8.99568C0.598705 8.99299 0.671521 8.99568 0.747033 8.99568C0.747033 8.94174 0.752427 8.90667 0.752427 8.8743C0.752427 7.39615 0.752427 5.9153 0.74973 4.43715C0.74973 4.36972 0.717367 4.29419 0.679611 4.24024C0.485436 3.97051 0.285868 3.70617 0.0836029 3.44183C0.0134842 3.35012 -0.0269692 3.25841 0.0242714 3.14512C0.0809057 3.02643 0.183387 2.99676 0.302049 2.99676C0.44768 2.99676 0.590615 2.99676 0.736246 2.99676C0.744336 2.959 0.74973 2.94012 0.74973 2.92124C0.74973 2.41953 0.752427 1.91512 0.74973 1.41341C0.74973 1.35677 0.717367 1.29203 0.682308 1.24348C0.493527 0.981837 0.296656 0.725589 0.105178 0.46934C-0.0512407 0.258946 -0.0350594 0.145657 0.177993 0H14.9973V0.320985C14.7708 0.625786 14.5415 0.92789 14.3231 1.23809C14.2799 1.30013 14.2503 1.38644 14.2503 1.46197C14.2422 1.82341 14.2476 2.18216 14.2476 2.54361C14.2476 2.68926 14.2476 2.83222 14.2476 2.99676C14.3905 2.99676 14.5146 3.00216 14.6413 2.99676C14.795 2.98597 14.9164 3.03183 15 3.164V3.33933C14.7762 3.63334 14.5496 3.92735 14.3339 4.22676C14.2853 4.29689 14.2503 4.39399 14.2503 4.47761C14.2449 5.92609 14.2476 7.37727 14.2476 8.82575V8.99568C14.3177 8.99568 14.3716 8.99568 14.4229 8.99568C14.7141 8.99838 14.8166 9.16831 14.6872 9.42996C14.5604 9.68351 14.431 9.93436 14.3096 10.1879C14.2745 10.2634 14.2476 10.3552 14.2476 10.4388C14.2449 11.7362 14.2476 13.0363 14.2476 14.3338C14.2476 14.385 14.2476 14.439 14.2476 14.4983C14.4013 14.4983 14.5334 14.5064 14.6629 14.4983C14.8166 14.4875 14.9272 14.5414 15 14.6763H14.9892ZM13.7271 8.98759V4.51268H1.25674V8.98489H4.9973C4.9973 8.92016 4.9973 8.86621 4.9973 8.81496C4.9973 8.06779 4.9973 7.32063 4.9973 6.57346C4.9973 6.18504 5.18339 6.00162 5.57443 6.00162C6.85275 6.00162 8.13107 6.00162 9.40938 6.00162C9.80852 6.00162 9.99191 6.18504 9.99191 6.58155C9.99191 7.32872 9.99191 8.07589 9.99191 8.82305C9.99191 8.8743 9.99191 8.92825 9.99191 8.98759H13.7325H13.7271ZM1.25405 2.98867H13.7271V1.51052H1.25405V2.98867ZM10.7416 14.4929C10.7416 14.4309 10.7416 14.3796 10.7416 14.3257C10.7416 13.7107 10.7389 13.0957 10.7416 12.4807C10.7443 12.0329 11.0437 11.6472 11.4806 11.5393C11.6208 11.5042 11.7691 11.5015 11.9148 11.5015C12.5782 11.5015 12.9908 11.9169 12.9908 12.5805C12.9908 13.1658 12.9908 13.7511 12.9908 14.3364C12.9908 14.3877 12.9962 14.4389 12.9962 14.4875H13.7271V10.5062H9.99461V14.4875H10.7389L10.7416 14.4929ZM1.99029 14.4929C1.99029 14.4255 1.99029 14.3715 1.99029 14.3203C1.99029 13.7241 1.99029 13.128 1.99029 12.5346C1.99299 12.0329 2.30043 11.6337 2.76699 11.5312C2.90723 11.5015 3.05825 11.5015 3.20388 11.5042C3.82416 11.5123 4.23678 11.9304 4.23948 12.5481C4.23948 13.1442 4.23948 13.7403 4.23948 14.3338C4.23948 14.385 4.23948 14.4363 4.23948 14.4902H4.98382V10.5116H1.25135V14.4929H1.98759H1.99029ZM0.74973 3.50656C0.849514 3.63873 0.938511 3.74393 1.00863 3.85992C1.07875 3.97321 1.16775 4.00557 1.2972 4.00557C4.4795 4.00288 7.66181 4.00288 10.8441 4.00288C11.8069 4.00288 12.767 4.00288 13.7271 4.00288C13.7783 4.00288 13.8511 4.00288 13.8754 3.97321C13.9968 3.83025 14.1046 3.67919 14.2314 3.50926H0.74973V3.50656ZM14.2341 0.507103H0.755124C0.844121 0.625787 0.927723 0.728286 0.995145 0.83618C1.07066 0.960259 1.16775 1.00342 1.31607 1.00072C5.43959 0.995324 9.56311 0.998022 13.6893 0.998022C13.7244 0.998022 13.7594 1.00611 13.7918 0.998022C13.835 0.984535 13.8862 0.971048 13.9132 0.93868C14.021 0.806509 14.1208 0.666247 14.2395 0.507103H14.2341ZM9.4822 6.51142H5.50701V7.97339C6.03829 7.33681 6.69633 6.99964 7.50809 7.00503C8.31715 7.01043 8.9617 7.36648 9.4822 8.01385V6.51142ZM3.74056 14.4929C3.74056 13.8078 3.74595 13.1388 3.74056 12.4699C3.73786 12.2163 3.5356 12.0221 3.28209 12.0032C3.21467 11.9978 3.14455 12.0005 3.07713 12.0005C2.68069 12.0005 2.49191 12.1867 2.49191 12.5805C2.49191 13.1658 2.49191 13.7511 2.49191 14.3364C2.49191 14.3877 2.4973 14.4389 2.4973 14.4902H3.74056V14.4929ZM12.4838 14.4929C12.4838 13.7997 12.4946 13.1172 12.4784 12.4348C12.473 12.1813 12.2627 12.0167 12.0065 12.0032C11.9337 12.0005 11.8608 12.0005 11.788 12.0032C11.432 12.0086 11.2406 12.2028 11.2406 12.5616C11.2406 13.1415 11.2406 13.7242 11.2406 14.3041V14.4956H12.4838V14.4929ZM5.33172 9.50548H0.903452C0.981661 9.66193 1.04908 9.80759 1.12729 9.94785C1.14347 9.97482 1.19741 9.9964 1.23517 9.9964C2.48921 9.9964 3.74326 9.9964 4.9973 9.9964C5.03776 9.9964 5.09709 9.97213 5.11596 9.93976C5.19148 9.80489 5.2562 9.66463 5.33441 9.50818L5.33172 9.50548ZM14.0777 9.50818H9.64941C9.71952 9.64845 9.77346 9.78061 9.84897 9.8993C9.87864 9.94515 9.94876 9.99101 10 9.9937C10.2131 10.0045 10.4288 9.9991 10.6446 9.9991C11.664 9.9991 12.6861 9.9991 13.7055 9.9991C13.7567 9.9991 13.8349 9.98561 13.8565 9.95055C13.9401 9.81568 14.0022 9.66733 14.0804 9.51358L14.0777 9.50818Z" fill="#410EAD"/>
<path d="M7.49165 5.00313C9.27698 5.00313 11.0623 5.00313 12.8476 5.00313C12.907 5.00313 12.9663 5.00313 13.0229 5.00852C13.1443 5.02471 13.2171 5.09754 13.2333 5.21622C13.2495 5.343 13.1955 5.4374 13.0742 5.48056C13.0202 5.49944 12.9582 5.50214 12.9016 5.50214C9.29586 5.50214 5.69014 5.50214 2.08443 5.50214C1.86598 5.50214 1.75541 5.42122 1.74732 5.26208C1.74192 5.1299 1.82553 5.02471 1.95767 5.00583C2.01431 4.99773 2.07364 5.00043 2.13297 5.00043C3.9183 5.00043 5.70363 5.00043 7.48896 5.00043L7.49165 5.00313Z" fill="#410EAD"/>
<path d="M3.11273 8.00018C2.82956 8.00018 2.54639 8.00018 2.26322 8.00018C1.95578 7.99748 1.75081 7.79518 1.74812 7.48499C1.74542 7.164 1.74542 6.84032 1.74812 6.51933C1.75081 6.20914 1.95308 6.00684 2.26322 6.00684C2.83496 6.00684 3.404 6.00684 3.97573 6.00684C4.27778 6.00684 4.48544 6.20105 4.49353 6.50585C4.50432 6.83762 4.50432 7.1694 4.49353 7.50117C4.48544 7.80867 4.27508 8.00018 3.96225 8.00288C3.67908 8.00288 3.39591 8.00288 3.11273 8.00288V8.00018ZM2.25243 7.49578H3.98382V6.51124H2.25243V7.49578Z" fill="#410EAD"/>
<path d="M11.8742 6.00413C12.1574 6.00413 12.4406 6.00413 12.7237 6.00413C13.0339 6.00683 13.2361 6.20643 13.2388 6.51932C13.2415 6.84031 13.2415 7.16399 13.2388 7.48498C13.2361 7.79517 13.0312 7.99747 12.7237 8.00017C12.152 8.00017 11.583 8.00017 11.0112 8.00017C10.7146 8.00017 10.5069 7.80866 10.4961 7.51465C10.4853 7.17478 10.4853 6.83222 10.4961 6.48965C10.5069 6.19564 10.7146 6.00952 11.0112 6.00413C11.2998 6.00143 11.5857 6.00413 11.8742 6.00413ZM11.0031 6.50853V7.49307H12.7291V6.50853H11.0031Z" fill="#410EAD"/>
<path d="M3.99965 2.00177C4.13449 2.00716 4.24776 2.12585 4.24237 2.26071C4.23698 2.40098 4.12371 2.50348 3.98077 2.49538C3.84593 2.48999 3.74345 2.3794 3.74615 2.24723C3.74615 2.11236 3.86751 1.99637 4.00235 1.99907L3.99965 2.00177Z" fill="#410EAD"/>
<path d="M4.99434 2.00172C5.13188 2.00172 5.24245 2.11771 5.23975 2.25527C5.23975 2.39823 5.12649 2.50073 4.98355 2.49534C4.8514 2.49264 4.74353 2.38475 4.74353 2.25257C4.74353 2.11771 4.8595 1.99902 4.99434 1.99902V2.00172Z" fill="#410EAD"/>
<path d="M9.97272 2.49454C9.83248 2.48375 9.73539 2.36777 9.74618 2.2275C9.75697 2.09803 9.87563 1.99283 10.0051 2.00093C10.1399 2.00902 10.2505 2.1331 10.2424 2.26527C10.2316 2.40283 10.113 2.50533 9.97272 2.49454Z" fill="#410EAD"/>
<path d="M11.2408 2.2582C11.2381 2.39846 11.1248 2.50366 10.9819 2.49827C10.8417 2.49287 10.7365 2.37958 10.7446 2.23932C10.7527 2.10985 10.8659 2.00195 10.9954 2.00195C11.1302 2.00195 11.2462 2.12333 11.2408 2.2582Z" fill="#410EAD"/>
<path d="M3.24409 2.25016C3.24409 2.38772 3.13083 2.49831 2.99329 2.49831C2.85844 2.49831 2.75326 2.39581 2.74787 2.26095C2.74248 2.12338 2.85305 2.0047 2.99059 2.002C3.12543 1.9993 3.24409 2.11529 3.24409 2.25016Z" fill="#410EAD"/>
<path d="M6.23792 2.2582C6.23523 2.40116 6.12465 2.50366 5.98172 2.49827C5.84957 2.49287 5.7417 2.38498 5.7417 2.25281C5.7417 2.11794 5.86036 2.00195 5.9952 2.00195C6.13275 2.00195 6.24062 2.11794 6.23792 2.2582Z" fill="#410EAD"/>
<path d="M9.24203 2.24759C9.24473 2.38246 9.13146 2.49845 8.99122 2.49845C8.85368 2.49845 8.7512 2.39865 8.7458 2.26378C8.74041 2.12351 8.84559 2.00753 8.98313 2.00213C9.11797 1.99674 9.23663 2.11273 9.23933 2.24759H9.24203Z" fill="#410EAD"/>
<path d="M11.9927 2.49831C11.8524 2.49831 11.7392 2.39042 11.7419 2.25016C11.7419 2.11529 11.8605 1.9993 11.9954 2.002C12.1248 2.0047 12.2354 2.11529 12.2381 2.24476C12.2408 2.38502 12.1356 2.49562 11.9927 2.49562V2.49831Z" fill="#410EAD"/>
<path d="M2.24396 2.2449C2.24936 2.37977 2.13609 2.49575 1.99855 2.49845C1.86101 2.49845 1.75583 2.40135 1.75044 2.26648C1.74235 2.12622 1.84752 2.01023 1.98506 2.00214C2.11721 1.99674 2.24127 2.11003 2.24666 2.2449H2.24396Z" fill="#410EAD"/>
<path d="M13.2362 2.25825C13.2335 2.40121 13.1229 2.50371 12.98 2.49831C12.8479 2.49292 12.74 2.38502 12.74 2.25285C12.74 2.11798 12.8587 1.9993 12.9935 2.002C13.131 2.002 13.2389 2.11798 13.2362 2.25825Z" fill="#410EAD"/>
<path d="M6.99593 2.002C7.13347 2.002 7.24134 2.12068 7.23865 2.25825C7.23595 2.39851 7.12538 2.50101 6.98244 2.49562C6.8503 2.49022 6.74512 2.38233 6.74512 2.25016C6.74512 2.11529 6.86108 1.9993 6.99593 2.002Z" fill="#410EAD"/>
<path d="M7.99101 2.00195C8.12585 2.00195 8.24182 2.11794 8.24182 2.25281C8.24182 2.39037 8.12855 2.49827 7.98831 2.49557C7.85347 2.49557 7.75099 2.39037 7.74829 2.2555C7.74829 2.11524 7.85617 2.00195 7.99101 2.00195Z" fill="#410EAD"/>
</svg>
