<svg width="15" height="15" viewBox="0 0 15 15" fill="none" xmlns="http://www.w3.org/2000/svg">
<path d="M15 14.6853C14.8596 14.8482 14.7786 14.8602 14.6026 14.7356C14.3772 14.5747 14.2012 14.5827 13.9956 14.7617C13.6476 15.0654 13.185 15.0633 12.8331 14.7597C12.5839 14.5445 12.4396 14.5385 12.1885 14.7476C11.8445 15.0352 11.3304 15.0654 10.9844 14.7376C10.7848 14.5486 10.5969 14.5606 10.3794 14.7376C9.96425 15.0794 9.57277 15.0774 9.16351 14.7336C8.96184 14.5626 8.76611 14.5546 8.57037 14.7275C8.22437 15.0312 7.69648 15.0714 7.34257 14.7376C7.1409 14.5466 6.95308 14.5606 6.73757 14.7376C6.32237 15.0774 5.9566 15.0794 5.5335 14.7436C5.36544 14.6089 5.10841 14.5586 4.89488 14.7476C4.53702 15.0654 4.08821 15.0533 3.72047 14.7476C3.5188 14.5807 3.30132 14.5767 3.09372 14.7396C2.66072 15.0794 2.30682 15.0754 1.87778 14.7275C1.6603 14.5526 1.48038 14.5606 1.24905 14.7617C0.883284 15.0794 0.43052 15.0794 0.0963851 14.7617C-0.0321284 14.6391 -0.0321284 14.4681 0.0963851 14.3797C0.226876 14.2912 0.325732 14.3736 0.454246 14.4782C0.454246 14.3937 0.454246 14.3374 0.454246 14.2831C0.454246 12.6644 0.454246 11.0456 0.454246 9.4269C0.454246 9.36658 0.452269 9.30625 0.460177 9.24794C0.477971 9.12125 0.557057 9.05087 0.679639 9.0549C0.804198 9.05892 0.881306 9.13533 0.889215 9.26201C0.8991 9.43495 0.893169 9.60989 0.895146 9.78283C0.895146 9.91152 0.895146 10.0382 0.895146 10.1749H4.08821V7.39795H0.895146C0.895146 7.64327 0.895146 7.88056 0.895146 8.11784C0.895146 8.15805 0.895146 8.19827 0.895146 8.23648C0.891192 8.4255 0.814084 8.52202 0.667776 8.518C0.5274 8.51398 0.456223 8.42349 0.456223 8.23849C0.456223 7.12045 0.44436 6.00442 0.462154 4.88639C0.468086 4.55258 0.404818 4.25498 0.226876 3.98753C0.00148281 3.6477 -0.0182884 3.31792 0.149768 2.9439C0.276304 2.66238 0.349458 2.35472 0.446337 2.05711C0.483903 1.93847 0.547171 1.84999 0.681616 1.852C0.808152 1.85602 0.867467 1.9445 0.903055 2.0551C0.98214 2.30444 1.06518 2.55379 1.15613 2.82928C1.2273 2.66439 1.28662 2.52564 1.34593 2.38488C1.65041 1.66097 1.95687 0.935049 2.25937 0.21114C2.30484 0.100543 2.3602 0 2.49267 0C2.62514 0 2.68247 0.0965212 2.72795 0.209129C3.08976 1.07179 3.45355 1.93042 3.82723 2.81721C3.84898 2.76493 3.8648 2.73276 3.87666 2.70058C3.95179 2.47537 4.02692 2.25015 4.10008 2.02493C4.13369 1.91836 4.20289 1.85602 4.31361 1.85602C4.42433 1.85602 4.4955 1.92037 4.52911 2.02493C4.6774 2.47537 4.82766 2.92781 4.97001 3.38025C4.98781 3.44058 4.96408 3.51498 4.95617 3.58134C4.95222 3.60547 4.93838 3.62759 4.92454 3.6477C4.62797 4.13634 4.45201 4.65514 4.53504 5.23829C4.53702 5.2584 4.53504 5.2785 4.53504 5.29861C4.51725 5.43535 4.4263 5.51981 4.29977 5.51176C4.17916 5.50372 4.10205 5.42127 4.10008 5.28253C4.09612 5.06535 4.10008 4.84818 4.10008 4.62296H0.905032V6.93143H4.0981C4.0981 6.76252 4.0981 6.58958 4.0981 6.41866C4.0981 6.35834 4.09414 6.29801 4.10205 6.23969C4.11589 6.12508 4.18707 6.06073 4.29383 6.04866C4.40258 6.0366 4.48562 6.09089 4.51725 6.19948C4.53504 6.2598 4.53504 6.32616 4.53504 6.39051C4.53504 7.593 4.53504 8.79348 4.53504 9.99598V10.179H5.91508C5.91508 10.1287 5.91904 10.0764 5.91508 10.0241C5.87949 9.68832 5.96253 9.35652 5.92497 9.01669C5.89333 8.73718 6.05348 8.52202 6.30458 8.40137C6.55567 8.28072 6.80281 8.31088 7.01832 8.49186C7.22988 8.67283 7.29907 8.90609 7.24767 9.18761C7.2279 9.2962 7.26349 9.41283 7.26546 9.52745C7.26942 9.7406 7.26546 9.95375 7.26546 10.187C7.32478 10.187 7.37618 10.187 7.42759 10.187C8.02864 10.187 8.62771 10.183 9.22875 10.191C9.31179 10.191 9.41263 10.2333 9.46799 10.2916C9.50753 10.3318 9.51346 10.4524 9.48183 10.5067C9.44822 10.5671 9.35529 10.6254 9.28609 10.6274C9.00929 10.6415 8.73052 10.6334 8.45174 10.6334C8.13936 10.6334 7.82895 10.6334 7.5047 10.6334V11.9727C9.01918 10.8285 10.5238 10.8245 12.0422 11.9727V10.6334C11.9908 10.6334 11.9394 10.6334 11.888 10.6334C11.366 10.6334 10.8441 10.6334 10.3201 10.6334C10.1343 10.6334 10.0354 10.555 10.0354 10.4102C10.0354 10.2674 10.1363 10.187 10.3201 10.187C10.9152 10.187 11.5104 10.187 12.1075 10.187C12.1608 10.187 12.2122 10.187 12.2814 10.187C12.2814 10.0241 12.2755 9.87734 12.2834 9.73055C12.2913 9.59984 12.319 9.46913 12.3309 9.33843C12.3348 9.30223 12.3249 9.26202 12.3151 9.22381C12.234 8.92218 12.3309 8.63061 12.5701 8.45968C12.8054 8.29077 13.1197 8.29278 13.3511 8.4637C13.5903 8.63865 13.6813 8.93022 13.6002 9.23185C13.5883 9.2781 13.6002 9.33239 13.6061 9.38267C13.6121 9.44701 13.6298 9.50935 13.6298 9.57169C13.6338 9.76875 13.6298 9.96783 13.6298 10.189C13.7445 10.189 13.8493 10.189 13.9561 10.189C14.1993 10.189 14.4444 10.1951 14.6876 10.187C14.8221 10.183 14.9249 10.2192 14.996 10.3378V10.4866C14.9268 10.6053 14.824 10.6455 14.6896 10.6395C14.5294 10.6294 14.3673 10.6374 14.2072 10.6374C14.0925 10.6374 13.9778 10.6374 13.8691 10.6374V11.9747C13.9304 11.9324 13.9679 11.9043 14.0075 11.8802C14.2032 11.7595 14.395 11.6328 14.5947 11.5202C14.7924 11.4076 14.8497 11.4237 14.996 11.5906V11.7394C14.9308 11.7977 14.8715 11.8641 14.8003 11.9103C14.5927 12.0491 14.3772 12.1737 14.1716 12.3165C14.1261 12.3487 14.0925 12.4251 14.0905 12.4834C14.0826 12.7307 14.0866 12.9801 14.0866 13.2274C14.0866 13.2938 14.0866 13.3601 14.0866 13.4325C14.1617 13.4325 14.2091 13.4325 14.2586 13.4325C14.4682 13.4345 14.5354 13.5029 14.5393 13.7181C14.5393 13.8367 14.5433 13.9574 14.5393 14.076C14.5354 14.1605 14.569 14.1987 14.6421 14.2449C14.7707 14.3254 14.8794 14.44 14.996 14.5385V14.6873L15 14.6853ZM0.907009 14.4621C0.990048 14.4038 1.05529 14.3535 1.12449 14.3113C1.48235 14.0901 1.85999 14.1122 2.14272 14.3656C2.40567 14.6029 2.55791 14.6069 2.83471 14.3837C3.19653 14.0921 3.65324 14.1001 3.99924 14.3998C4.02297 14.4199 4.05065 14.436 4.08821 14.4621V10.6415H0.907009V14.4601V14.4621ZM8.17494 14.4701C8.22437 14.4259 8.25205 14.3998 8.27973 14.3756C8.62771 14.066 9.06861 14.0639 9.42251 14.3696C9.69536 14.6049 9.84364 14.6049 10.1283 14.3696C10.4664 14.0881 10.9232 14.0941 11.2553 14.3837C11.2869 14.4098 11.3186 14.4339 11.372 14.4762C11.372 14.3233 11.372 14.2007 11.372 14.076C11.372 13.9473 11.37 13.8186 11.372 13.6879C11.3779 13.513 11.455 13.4366 11.625 13.4325C11.6903 13.4325 11.7555 13.4325 11.8287 13.4325C11.8287 13.0847 11.8287 12.7629 11.8267 12.4392C11.8267 12.405 11.8069 12.3587 11.7812 12.3386C11.2098 11.9003 10.587 11.5846 9.8555 11.5624C9.06663 11.5383 8.3944 11.858 7.77952 12.3266C7.75184 12.3487 7.7202 12.3889 7.7202 12.4211C7.71625 12.7529 7.71823 13.0826 7.71823 13.4225C7.77754 13.4265 7.82104 13.4305 7.86256 13.4305C8.11168 13.4345 8.17099 13.4949 8.17099 13.7482C8.17099 13.9795 8.17099 14.2107 8.17099 14.4701H8.17494ZM5.45837 13.4124C5.45837 13.3601 5.45837 13.3059 5.45837 13.2536C5.45837 12.9459 5.45441 12.6382 5.46232 12.3306C5.46232 12.2562 5.48011 12.1536 5.52954 12.1134C5.68573 11.9867 5.69562 11.8299 5.68969 11.6509C5.68178 11.4076 5.68771 11.1643 5.68771 10.921V10.6455H4.54888V14.4782C4.65565 14.3937 4.73473 14.2892 4.83755 14.257C5.01351 14.2027 5.02537 14.0881 5.00956 13.9433C5.00758 13.9232 5.00956 13.9031 5.00956 13.883C4.99967 13.5351 4.98978 13.4104 5.4208 13.4285C5.42475 13.4285 5.42871 13.4245 5.46034 13.4144L5.45837 13.4124ZM1.46851 3.23547H3.52275C3.18071 2.4251 2.84657 1.6288 2.49465 0.7963C2.14469 1.6288 1.80858 2.42711 1.46654 3.23547H1.46851ZM4.41049 3.69998H0.582759C0.649982 3.83672 0.703365 3.96541 0.772564 4.08204C0.79629 4.12226 0.857581 4.16449 0.903055 4.16449C1.96675 4.16851 3.03045 4.16851 4.09414 4.16449C4.13171 4.16449 4.18707 4.14639 4.20289 4.11824C4.27604 3.98552 4.33931 3.84878 4.41246 3.69797L4.41049 3.69998ZM5.46034 13.883C5.43069 14.1524 5.43069 14.1504 5.63631 14.267C5.68376 14.2932 5.72726 14.3254 5.76877 14.3595C6.05546 14.5908 6.19386 14.5948 6.49438 14.3716C6.88585 14.08 7.28919 14.0961 7.65496 14.4138C7.67473 14.4319 7.69845 14.442 7.72613 14.4601V13.883H5.46034ZM11.8208 14.4601C12.3427 14.0639 12.6294 14.0599 13.1296 14.4239C13.3451 14.5807 13.5369 14.5687 13.7406 14.4018C13.8256 14.3314 13.9304 14.2851 14.0213 14.2188C14.0569 14.1926 14.0945 14.1464 14.1024 14.1042C14.1162 14.0338 14.1063 13.9614 14.1063 13.887H11.8208V14.4581V14.4601ZM7.00646 11.48C7.0203 11.4679 7.03414 11.4559 7.04996 11.4458V10.6475H6.1385V11.4518C6.14838 11.4599 6.15827 11.4659 6.16816 11.474C6.23538 11.3996 6.30062 11.3211 6.3718 11.2487C6.54776 11.0678 6.63674 11.0658 6.81072 11.2447C6.8819 11.3191 6.94319 11.4016 7.00844 11.482L7.00646 11.48ZM12.5108 11.4438C12.5227 11.4518 12.5345 11.4579 12.5464 11.4659C12.5839 11.4217 12.6176 11.3734 12.6591 11.3312C12.9497 11.0356 12.9774 11.0356 13.2641 11.3252C13.3096 11.3714 13.355 11.4156 13.4143 11.476V10.6415H12.5108V11.4438ZM12.7382 12.4975H12.2874V13.4225H12.7382V12.4975ZM13.6457 13.4225V12.4955H13.1949V13.4225H13.6457ZM6.36191 12.4975H5.91113V13.4225H6.36191V12.4975ZM7.26942 13.4245V12.4955H6.82061V13.4245H7.26942ZM6.36785 9.71647V10.1749H6.82061V9.71647H6.36785ZM12.7303 10.1749H13.187V9.71848H12.7303V10.1749ZM6.59324 8.78343C6.46275 8.78343 6.36191 8.88196 6.35796 9.01267C6.35401 9.1474 6.46473 9.26202 6.59522 9.25799C6.71978 9.25598 6.82456 9.14337 6.82456 9.01669C6.82456 8.88799 6.72175 8.78343 6.59324 8.78142V8.78343ZM12.7263 9.01267C12.7223 9.13734 12.8271 9.25196 12.9497 9.25799C13.0743 9.26403 13.183 9.16348 13.1909 9.03479C13.1988 8.89604 13.098 8.78544 12.9636 8.78343C12.835 8.78343 12.7303 8.88397 12.7263 9.01267ZM12.6096 12.0269H13.2977C13.183 11.9063 13.0703 11.7877 12.9636 11.675C12.8469 11.7897 12.7342 11.9043 12.6096 12.0269ZM6.61499 11.6952C6.48845 11.8118 6.3718 11.9184 6.25317 12.0269H6.92342C6.8127 11.9083 6.70396 11.7897 6.61499 11.6952ZM4.46189 3.23748C4.41444 3.0927 4.37094 2.95998 4.31558 2.78906C4.26022 2.95998 4.21673 3.09672 4.17125 3.23748H4.46189ZM0.823969 3.23748C0.776518 3.09873 0.733021 2.96803 0.689525 2.83732C0.679639 2.83732 0.669753 2.83933 0.659868 2.84134C0.618348 2.97004 0.574851 3.09873 0.531354 3.23748H0.823969Z" fill="#410EAD"/>
<path d="M3.19072 6.00238C3.19072 5.92396 3.18677 5.84352 3.19072 5.7651C3.20061 5.64445 3.26783 5.57407 3.38646 5.56401C3.51102 5.55396 3.60592 5.61831 3.61581 5.74097C3.63162 5.92195 3.63162 6.10694 3.61581 6.28792C3.60394 6.41058 3.50706 6.47493 3.3825 6.46086C3.26585 6.44879 3.19863 6.37439 3.1927 6.25374C3.18677 6.16928 3.1927 6.08482 3.1927 6.00037L3.19072 6.00238Z" fill="#410EAD"/>
<path d="M1.80069 6.01859C1.80069 6.10304 1.8086 6.1875 1.79871 6.26994C1.7829 6.39462 1.70579 6.465 1.57925 6.46098C1.45469 6.45695 1.37759 6.38255 1.37165 6.25788C1.36375 6.095 1.36375 5.93212 1.37165 5.76924C1.37759 5.64256 1.45074 5.56815 1.57728 5.56413C1.70381 5.56011 1.78092 5.62848 1.79871 5.75315C1.81058 5.83962 1.80069 5.93011 1.80069 6.0206V6.01859Z" fill="#410EAD"/>
<path d="M1.80069 8.79325C1.80069 8.87771 1.8086 8.96216 1.79871 9.04461C1.7829 9.16928 1.70579 9.23966 1.57925 9.23564C1.45469 9.23162 1.37759 9.15923 1.37165 9.03254C1.36375 8.86966 1.36375 8.70678 1.37165 8.5439C1.37759 8.41722 1.45272 8.34282 1.57728 8.33678C1.70184 8.33075 1.7829 8.40113 1.79871 8.5258C1.81058 8.61227 1.80069 8.70276 1.80069 8.79325Z" fill="#410EAD"/>
<path d="M3.1905 8.77734C3.1905 8.69892 3.18457 8.61848 3.1905 8.54006C3.20039 8.41941 3.27156 8.34903 3.38822 8.33897C3.50487 8.32892 3.60175 8.38924 3.61163 8.50587C3.62943 8.69087 3.62943 8.8819 3.61163 9.0669C3.59977 9.18957 3.50289 9.2519 3.37833 9.23582C3.2597 9.22174 3.19643 9.14734 3.1905 9.0287C3.18655 8.94424 3.1905 8.85979 3.1905 8.77533V8.77734Z" fill="#410EAD"/>
</svg>
