<svg width="16" height="15" viewBox="0 0 16 15" fill="none" xmlns="http://www.w3.org/2000/svg">
<path d="M9.99271 5.10272C10.0096 5.53569 10.0286 5.97281 10.0477 6.41202C10.0878 7.2946 10.1174 8.17926 10.1745 9.06184C10.1935 9.35742 10.1555 9.62386 10.0202 9.88406C9.99271 9.93818 9.97157 10.0048 9.97157 10.0652C9.98637 10.8062 10.0054 11.5472 10.0244 12.3132C10.1618 12.3132 10.3035 12.3132 10.4451 12.3132C10.6882 12.3132 10.7411 12.3632 10.7411 12.5984C10.7411 13.2125 10.7411 13.8265 10.7411 14.4406V14.63H10.9292C11.4514 14.63 11.9736 14.63 12.4937 14.63C12.5423 14.63 12.6057 14.6134 12.6353 14.6383C12.6945 14.6862 12.7685 14.7528 12.7748 14.8173C12.7791 14.8694 12.703 14.9485 12.6438 14.9818C12.5888 15.0109 12.5063 14.9964 12.4387 14.9964C10.2062 14.9964 7.97377 14.9964 5.7413 14.9964C4.98235 14.9964 4.22551 14.9964 3.46656 14.9964C3.40736 14.9964 3.33548 15.0088 3.2932 14.9818C3.23612 14.9422 3.16424 14.8694 3.16636 14.8111C3.16636 14.7528 3.24035 14.6841 3.29532 14.6404C3.32491 14.6154 3.38834 14.63 3.43696 14.63C3.96971 14.63 4.50245 14.63 5.0352 14.63H5.2297C5.2297 14.5592 5.2297 14.503 5.2297 14.4468C5.2297 13.8265 5.2297 13.2083 5.2297 12.588C5.2297 12.3611 5.28043 12.3132 5.51721 12.3112C5.61869 12.3112 5.72016 12.3112 5.83432 12.3112C5.84701 12.051 5.85969 11.8033 5.86815 11.5576C5.90409 10.6522 5.9358 9.74875 5.97385 8.84328C5.98231 8.61639 6.00979 8.3895 6.01402 8.16261C6.01402 8.07935 5.98231 7.99192 5.94848 7.9149C5.91888 7.84829 5.87026 7.78585 5.81741 7.73589C5.54258 7.48194 5.52144 7.16971 5.55949 6.82209C5.6208 6.26423 5.64194 5.70221 5.68845 5.14435C5.69902 5.02362 5.64617 4.99448 5.54892 4.94036C5.16839 4.73012 4.7498 4.76551 4.34178 4.71972C4.01622 4.68433 3.69276 4.63645 3.36719 4.59899C3.24881 4.5865 3.18538 4.52613 3.1431 4.42414C3.0226 4.13688 2.89576 3.84963 2.77737 3.57278C2.44969 3.58527 2.13469 3.60608 1.81969 3.604C1.39053 3.604 0.978288 3.51241 0.580842 3.35005C0.437085 3.29177 0.318697 3.21267 0.24259 3.07321C0.18551 2.96705 0.0988327 2.87338 0.0459808 2.76514C0.0121556 2.69228 -0.0174415 2.58612 0.0121556 2.52367C0.0375245 2.46955 0.14957 2.43625 0.225677 2.43209C0.4244 2.4196 0.623124 2.42792 0.821847 2.42792C0.781679 2.17397 0.817618 2.11985 1.07554 2.09487C1.6104 2.047 2.12412 2.09071 2.59133 2.39878C2.70549 2.47372 2.86404 2.50702 3.00357 2.51327C3.54478 2.53825 4.09021 2.58612 4.62718 2.54241C5.08805 2.50494 5.53835 2.34674 5.99499 2.25724C6.28885 2.19895 6.58693 2.15524 6.88713 2.1261C7.00552 2.11569 7.03089 2.07198 7.03512 1.97414C7.04357 1.62444 7.04146 1.27474 7.06894 0.927121C7.12391 0.215229 7.6186 -0.126146 8.32259 0.0424598C8.70101 0.131967 8.92933 0.406732 8.9695 0.854267C8.99698 1.16026 8.99275 1.46833 9.00543 1.77431C9.00966 1.88464 9.01812 1.99288 9.02446 2.08655C9.85952 2.24891 10.6692 2.4529 11.4916 2.55073C12.0053 2.61318 12.5402 2.52784 13.0645 2.49245C13.1892 2.48412 13.3203 2.41752 13.4323 2.35091C13.9207 2.05949 14.4492 2.03659 14.9925 2.11153C15.1299 2.13026 15.1616 2.22185 15.1193 2.42584C15.3413 2.42584 15.5612 2.41752 15.7789 2.43C15.855 2.43417 15.9607 2.47372 15.9903 2.52784C16.0199 2.58404 15.9734 2.68187 15.9586 2.75889C15.9586 2.76305 15.9523 2.76722 15.9502 2.77138C15.7367 3.28969 15.2779 3.4458 14.7769 3.53947C14.2589 3.63731 13.741 3.62274 13.2061 3.54572C13.0835 3.82881 12.9588 4.10774 12.8425 4.39083C12.7917 4.51572 12.7178 4.58858 12.574 4.60315C12.0772 4.64894 11.5804 4.70098 11.0836 4.75718C10.9483 4.77384 10.813 4.80714 10.6819 4.84877C10.4578 4.92163 10.2379 5.00697 9.99271 5.09648V5.10272ZM11.6142 4.35753C11.8489 4.3263 12.1385 4.29092 12.4302 4.24928C12.4619 4.24512 12.5042 4.22014 12.5169 4.19308C12.7051 3.7622 12.8911 3.32924 13.0771 2.89627C12.8383 2.89627 12.6142 2.89419 12.3901 2.89627C12.2569 2.89627 12.1216 2.91084 11.9884 2.91293C11.7474 2.91709 11.5022 2.95039 11.2675 2.91293C10.8278 2.84215 10.3965 2.72767 9.961 2.63816C9.65868 2.57571 9.35426 2.52576 9.05617 2.46955C8.88705 2.99202 8.56782 3.29801 8.04142 3.30634C7.49176 3.31467 7.16196 2.99827 6.99918 2.50286C6.68418 2.4758 5.80261 2.63608 5.44533 2.78595C5.45802 2.8026 5.46647 2.82342 5.48127 2.83383C5.87872 3.12108 6.25925 3.4354 6.67995 3.68726C7.13236 3.95995 7.64186 4.08276 8.17883 4.01615C8.34161 3.99533 8.50017 3.93289 8.66507 3.91415C8.72426 3.90583 8.82151 3.94746 8.85111 3.99742C8.8807 4.04529 8.85745 4.13272 8.84265 4.20141C8.82574 4.27843 8.77077 4.35128 8.77077 4.42622C8.78134 5.91453 8.79825 7.40284 8.81094 8.88907C8.81305 9.12221 8.88705 9.19922 9.12382 9.18882C9.3458 9.17841 9.56778 9.15343 9.77284 9.13678C9.77284 8.90781 9.7813 8.67467 9.77284 8.44362C9.69885 6.78254 9.62274 5.12146 9.54664 3.46246C9.5403 3.3001 9.6016 3.21475 9.72633 3.21683C9.87221 3.221 9.91237 3.31258 9.9166 3.43956C9.92506 3.67061 9.93986 3.90166 9.95254 4.1348C9.97791 4.1348 9.99482 4.13896 10.0096 4.1348C10.0498 4.12023 10.09 4.10358 10.128 4.08692C10.4959 3.9204 10.7749 3.65396 10.999 3.32924C11.0751 3.221 11.1681 3.17312 11.2844 3.24806C11.4049 3.32716 11.3817 3.4354 11.3098 3.53947C10.999 3.98076 10.6121 4.33047 10.0815 4.49907C9.97368 4.53446 9.94831 4.58858 9.99482 4.69266C10.4409 4.5865 10.8426 4.38875 11.202 4.11607C11.3753 3.98493 11.5275 3.82465 11.6861 3.67686C11.7622 3.60608 11.8552 3.5707 11.9271 3.64563C11.9736 3.69559 11.9926 3.79134 11.9863 3.8642C11.9821 3.91832 11.9229 3.97036 11.8848 4.02031C11.7897 4.14104 11.6945 4.25969 11.6184 4.35544L11.6142 4.35753ZM9.74113 9.53435C9.62697 9.53435 9.52338 9.53227 9.41768 9.53435C9.28449 9.53852 9.14919 9.56141 9.016 9.55309C8.61433 9.52811 8.43041 9.33453 8.42829 8.94736C8.41561 7.4757 8.40081 6.00404 8.38812 4.53238C8.38812 4.48242 8.38812 4.43038 8.38812 4.36793C7.86806 4.45744 7.38605 4.38459 6.90404 4.21182C6.90404 4.29092 6.90404 4.3492 6.90404 4.40748C6.90404 5.3879 6.90404 6.36623 6.90404 7.34664C6.90404 7.65471 6.77508 7.88368 6.49603 8.03355C6.4474 8.06061 6.39667 8.13139 6.39244 8.18551C6.36284 8.47068 6.35438 8.75585 6.3269 9.04103C6.31633 9.15551 6.35438 9.22212 6.44952 9.28665C7.05626 9.70088 7.73699 9.95691 8.41984 10.2129C8.68409 10.3108 8.90607 10.2858 9.14285 10.1755C9.21473 10.1422 9.28449 10.0985 9.35849 10.0672C9.59103 9.97148 9.67982 9.77582 9.74113 9.53435ZM5.61234 14.6196H10.3479V12.6962H5.61446V14.6196H5.61234ZM6.26982 7.72132C6.44317 7.65887 6.52562 7.54855 6.52562 7.39035C6.52562 6.30586 6.52774 5.22137 6.52562 4.1348C6.52562 4.089 6.48546 4.02448 6.44529 4.00158C5.92945 3.71641 5.47916 3.35213 5.05211 2.95456C5.00772 2.91293 4.92315 2.90044 4.8555 2.90044C4.57222 2.90252 4.28893 2.91917 4.00565 2.92333C3.63991 2.9275 3.27417 2.92333 2.90844 2.92333C2.90844 2.91084 2.90633 2.92333 2.90844 2.93166C3.03528 3.22932 3.19173 3.51658 3.28263 3.82465C3.38622 4.17019 3.58706 4.32006 3.94645 4.30965C4.10078 4.30549 4.25511 4.33879 4.33756 4.34712C4.23819 4.22847 4.10923 4.08692 3.99296 3.93497C3.92531 3.84546 3.89149 3.73722 4.00142 3.65188C4.10712 3.5707 4.19591 3.60817 4.28048 3.69975C4.62084 4.06403 5.03097 4.33255 5.49184 4.51989C5.73285 4.61772 5.99288 4.67392 6.24445 4.74261C6.35438 4.77384 6.41358 4.83837 6.39878 4.94869C6.38398 5.06317 6.30576 5.10897 6.19371 5.10272C6.15777 5.10272 6.12184 5.09856 6.09224 5.09648C6.07955 5.10897 6.07321 5.11105 6.07321 5.11521C6.02036 5.80004 5.96539 6.48696 5.91466 7.17179C5.91254 7.20509 5.92311 7.24672 5.94425 7.27378C6.04996 7.41949 6.15989 7.56312 6.27405 7.71299L6.26982 7.72132ZM8.63124 1.14152C8.60799 1.00622 8.59108 0.870919 8.55936 0.737699C8.51074 0.527462 8.37121 0.419221 8.15346 0.392161C7.70739 0.338041 7.51501 0.477505 7.44525 0.914632C7.43468 0.977078 7.43679 1.04161 7.42411 1.10405C7.38605 1.28931 7.47273 1.40588 7.61437 1.5162C7.97799 1.79513 8.07524 1.79929 8.43463 1.50996C8.55302 1.41421 8.67775 1.3247 8.63336 1.14152H8.63124ZM7.41565 1.8888C7.40508 1.98039 7.39874 2.09696 7.37971 2.20936C7.32263 2.55906 7.56998 2.89003 7.92303 2.93999C8.28242 2.98994 8.64816 2.72767 8.67141 2.38005C8.68198 2.20936 8.6397 2.03659 8.6249 1.88464C8.41984 1.96165 8.22323 2.09071 8.02662 2.09071C7.82367 2.09071 7.62283 1.96165 7.41565 1.88672V1.8888ZM14.5105 2.46747C13.9312 2.38421 13.4957 2.66106 13.3773 3.20226C14.0369 3.28344 14.686 3.26887 15.3033 2.99411C15.3688 2.96496 15.4153 2.89003 15.4703 2.83383C15.2145 2.79636 14.984 2.79636 14.7557 2.79636C14.4936 2.79636 14.4259 2.70269 14.5105 2.46747ZM0.544903 2.79844C0.534332 2.81509 0.523762 2.83383 0.513192 2.85048C0.58507 2.9046 0.648492 2.9837 0.728827 3.01076C0.982516 3.09194 1.24043 3.1752 1.50258 3.21475C1.86409 3.27095 2.22982 3.26055 2.59344 3.1981C2.4518 2.58196 2.04801 2.46539 1.4307 2.46539C1.51315 2.71518 1.44973 2.79636 1.17067 2.79844C0.961376 2.79844 0.752082 2.79844 0.544903 2.79844ZM7.35646 12.3091C7.35646 11.6201 7.35646 10.9457 7.35646 10.2691C7.35646 10.24 7.3332 10.1963 7.30783 10.1838C7.20213 10.1276 7.09008 10.0797 6.97169 10.0235V12.3091H7.35857H7.35646ZM6.30787 9.65925C6.27616 10.546 6.24445 11.4202 6.21274 12.3028H6.58059V12.1176C6.58059 11.4307 6.57002 10.7437 6.58693 10.0547C6.59116 9.84867 6.53197 9.72378 6.30787 9.65717V9.65925ZM8.10484 12.3091C8.10484 11.7158 8.10484 11.1351 8.10272 10.5564C8.10272 10.5252 8.0689 10.4794 8.0393 10.4669C7.9484 10.4273 7.85115 10.3982 7.74967 10.3628V12.3091H8.10695H8.10484ZM8.85956 12.3091C8.85956 11.8095 8.85956 11.3266 8.85745 10.8416C8.85745 10.8083 8.82574 10.7604 8.79614 10.7458C8.70312 10.7 8.60165 10.6667 8.49806 10.6251V12.3091H8.85956ZM9.63754 12.3049C9.63754 12.0759 9.62063 11.847 9.64177 11.6242C9.67348 11.3099 9.44939 11.1746 9.24221 10.9831V12.3049H9.63754ZM9.59949 10.3628C9.46842 10.4294 9.36483 10.4815 9.24644 10.5397C9.3754 10.6272 9.48744 10.7042 9.61852 10.7937C9.61217 10.6376 9.60583 10.5148 9.59949 10.3607V10.3628Z" fill="#410EAD"/>
<path d="M9.23388 10.6054C9.01402 10.5263 8.82164 10.4743 8.64406 10.391C8.24027 10.1995 7.91893 9.90602 7.64833 9.5584C7.5701 9.46057 7.54051 9.35857 7.64833 9.2649C7.73712 9.18581 7.84916 9.21495 7.94641 9.33568C8.28678 9.76031 8.69268 10.0913 9.24657 10.2099C9.35861 10.2328 9.42415 10.3119 9.39244 10.416C9.3713 10.4868 9.29308 10.5388 9.23388 10.6054Z" fill="#410EAD"/>
</svg>
