<svg width="15" height="24" viewBox="0 0 15 24" fill="none" xmlns="http://www.w3.org/2000/svg">
<path d="M7.6388 0.0103056C7.81938 0.144279 7.85758 0.329781 7.85411 0.542765C7.84716 2.00961 7.85411 3.47988 7.85411 4.94672C7.85411 5.03947 7.85411 5.13222 7.85411 5.25589C7.99996 5.25589 8.12498 5.24902 8.24652 5.25589C8.54518 5.27307 8.68409 5.5204 8.55212 5.78835C8.5174 5.85706 8.4792 5.9292 8.4792 6.00134C8.47572 6.90823 8.4792 7.8117 8.4792 8.73234C8.53823 8.75295 8.5938 8.77356 8.64936 8.79761C8.8855 8.91097 8.93412 9.15831 8.76049 9.36098C8.71881 9.41251 8.65631 9.47091 8.65631 9.52588C8.64936 10.2198 8.65283 10.9137 8.65283 11.6179C8.72576 11.6248 8.77785 11.6317 8.82994 11.6351C9.22583 11.6626 9.43419 11.8721 9.43766 12.2672C9.44114 12.8134 9.43766 13.3596 9.43766 13.9367C9.65645 13.9367 9.85786 13.9367 10.0593 13.9367C10.5142 13.9436 10.726 14.1531 10.726 14.5997C10.726 15.5444 10.726 16.4891 10.726 17.4338C10.726 17.8872 10.5177 18.0933 10.0628 18.0933C9.71548 18.0933 9.37168 18.0933 8.99663 18.0933C8.99663 18.643 8.99663 19.172 9.0001 19.6976C9.0001 19.7422 9.06608 19.7903 9.11123 19.8281C9.41336 20.0583 9.71895 20.285 10.0246 20.5117C10.2607 20.419 10.542 20.2609 10.8406 20.1991C11.5074 20.0617 12.063 20.2953 12.5145 20.7934C12.5839 20.869 12.6951 20.9343 12.7958 20.948C13.3167 21.0133 13.7091 21.2572 13.9869 21.7037C14.046 21.7965 14.1501 21.8892 14.2508 21.927C14.7717 22.1091 15.0669 22.5763 14.9871 23.1191C14.9141 23.6103 14.4627 23.9985 13.9418 23.9985C10.917 24.0019 7.89231 23.9985 4.87105 23.9985C4.6106 23.9985 4.4578 23.8679 4.45433 23.6515C4.45433 23.4282 4.60712 23.2977 4.88494 23.2977C5.2461 23.2977 5.60727 23.2977 5.98926 23.2977C5.99621 23.2049 6.00663 23.1328 6.00663 23.0572C6.00663 21.824 5.99968 20.5907 6.01357 19.354C6.01357 19.1205 5.92675 19.0758 5.72186 19.0964C5.07941 19.1548 4.57934 19.4399 4.24596 19.9861C4.08622 20.2472 3.87091 20.3606 3.56184 20.3468C2.81521 20.3125 2.32555 20.6388 2.07552 21.3259C1.96786 21.6282 1.7595 21.7759 1.44001 21.7931C1.00245 21.8205 0.700326 22.14 0.710744 22.5557C0.71769 22.9713 1.05454 23.2908 1.49905 23.2943C2.01996 23.2977 2.54086 23.2943 3.06177 23.2943C3.33611 23.2943 3.49933 23.4282 3.49933 23.6446C3.49933 23.8611 3.33611 23.995 3.0583 23.995C2.53739 23.995 2.01648 23.995 1.49558 23.995C0.731581 23.995 0.0821835 23.4351 0.00925661 22.7206C-0.0740884 21.9305 0.412091 21.2572 1.19692 21.1129C1.36361 21.082 1.42612 21.0098 1.4921 20.8724C1.8741 20.0823 2.50961 19.6598 3.39862 19.6357C3.55489 19.6323 3.64866 19.5979 3.74589 19.464C4.24596 18.7666 4.94051 18.4197 5.79826 18.3888C5.86077 18.3888 5.91981 18.3888 5.99621 18.3888V18.0899C5.65241 18.0899 5.30861 18.0899 4.96481 18.0899C4.48905 18.0899 4.28069 17.8872 4.28069 17.4269C4.28069 16.4822 4.28069 15.5375 4.28069 14.5928C4.28069 14.1463 4.49253 13.9401 4.95092 13.9333C5.1454 13.9333 5.34334 13.9333 5.56907 13.9333C5.56907 13.5417 5.56907 13.1706 5.56907 12.7996C5.56907 12.6279 5.56907 12.4561 5.56907 12.2844C5.57601 11.8584 5.77395 11.6557 6.20457 11.6351C6.24277 11.6351 6.28097 11.6282 6.35737 11.6214C6.35737 11.4805 6.35737 11.3431 6.35737 11.2057C6.35737 10.6732 6.35737 10.1442 6.35737 9.61176C6.35737 9.54649 6.35042 9.46748 6.3157 9.41595C6.0483 9.05525 6.09692 8.88005 6.52753 8.72203C6.52753 7.98002 6.53101 7.23115 6.52753 6.48227C6.52753 6.21432 6.56573 5.94981 6.42683 5.6853C6.31917 5.48262 6.49628 5.26276 6.7359 5.24559C6.86091 5.23528 6.98593 5.24559 7.13526 5.24559C7.1422 5.13909 7.14915 5.04978 7.14915 4.96046C7.14915 3.48332 7.14915 2.00961 7.14915 0.53246C7.14915 0.319476 7.18388 0.133974 7.36446 0H7.64922L7.6388 0.0103056ZM9.0001 23.308C9.1911 23.308 9.36127 23.308 9.5349 23.308C10.9726 23.308 12.4103 23.308 13.8445 23.308C14.1154 23.308 14.2647 23.1912 14.2821 22.9816C14.2995 22.7652 14.171 22.6313 13.9036 22.6003C13.6466 22.5694 13.4973 22.432 13.4104 22.195C13.2785 21.8446 13.018 21.6556 12.6534 21.6763C12.3582 21.6934 12.1707 21.5766 12.0075 21.3362C11.6324 20.7797 10.8858 20.7178 10.4066 21.185C10.0141 21.5663 9.71548 21.5217 9.42377 21.0545C9.32306 20.893 9.17721 20.7556 9.05567 20.6079C9.03483 20.6216 9.01747 20.6354 8.99663 20.6491V23.308H9.0001ZM6.72895 23.2977H8.26389V18.1139H6.72895V23.2977ZM4.99607 15.1047C5.08983 15.1047 5.17318 15.1047 5.25999 15.1047C5.72534 15.1047 6.19068 15.1012 6.65602 15.1047C6.86439 15.1047 7.00677 15.2455 7.02066 15.431C7.03108 15.6268 6.8887 15.7883 6.67339 15.7986C6.4685 15.8123 6.26361 15.802 6.05872 15.802C5.7045 15.802 5.35376 15.802 4.99607 15.802V16.2314H9.9933V15.802C9.88912 15.802 9.8023 15.802 9.71548 15.802C9.31959 15.802 8.92718 15.8089 8.53129 15.802C8.29514 15.7986 8.14929 15.644 8.15971 15.4379C8.16665 15.2387 8.30903 15.1115 8.53823 15.1047C8.62505 15.1047 8.71187 15.1047 8.79869 15.1047C9.19805 15.1047 9.59741 15.1047 9.99677 15.1047V14.6615H4.99954V15.1047H4.99607ZM10.0002 16.9734H4.99607V17.3925H10.0002V16.9734ZM6.28444 12.7893H8.70492V12.3668H6.28444V12.7893ZM8.7084 13.521H6.28444V13.9333H8.7084V13.521ZM7.92009 9.49496H7.07622V10.4637H7.92009V9.49496ZM7.23944 8.76326H7.74646V7.72925H7.23944V8.76326ZM7.23944 5.97385V6.99412H7.74646V5.97385H7.23944ZM7.06928 11.6351H7.91315V11.1954H7.06928V11.6351Z" fill="#410EAD"/>
</svg>
