<svg width="15" height="10" viewBox="0 0 15 10" fill="none" xmlns="http://www.w3.org/2000/svg">
<path d="M12.1066 5.053C12.5003 4.74464 12.8975 4.53907 13.3434 4.41307C13.8068 4.28045 14.2771 4.28708 14.7509 4.29703C14.9216 4.30034 15.0157 4.42634 14.9913 4.59544C14.9181 5.09611 14.8415 5.59677 14.7648 6.09413C14.6777 6.67105 14.5802 7.24798 14.507 7.82823C14.4757 8.06696 14.5035 8.31232 14.5035 8.57426C14.5837 8.57426 14.6603 8.57426 14.7335 8.57426C14.8937 8.58089 14.9913 8.6671 14.9948 8.81299C15.0017 9.13129 15.0017 9.44628 14.9948 9.76459C14.9948 9.90385 14.8937 9.99005 14.7439 10C14.6986 10 14.6499 10 14.6046 10C9.86645 10 5.12832 10 0.390198 10C0.0592262 10 0 9.94032 0 9.62864C0 9.3866 0 9.14455 0 8.89919C0 8.64388 0.076646 8.57426 0.341424 8.57094C0.386715 8.57094 0.432005 8.57094 0.498199 8.57094C0.498199 8.49468 0.498199 8.42505 0.498199 8.35874C0.498199 7.93101 0.498199 7.50661 0.498199 7.07888C0.498199 6.72079 0.526071 6.68763 0.905818 6.65448C0.895366 6.60142 0.884915 6.55169 0.870979 6.50195C0.59575 5.58351 0.32052 4.66507 0.0418066 3.74994C-0.0487752 3.4449 0.038323 3.32885 0.372779 3.33548C0.877947 3.34874 1.37963 3.36532 1.8848 3.39848C2.03461 3.40842 2.18442 3.46479 2.34816 3.50458C2.26803 3.0868 2.19138 2.67897 2.11474 2.27114C2.08338 2.10204 2.04854 1.92963 2.01719 1.76053C1.97886 1.55496 2.0799 1.44222 2.30287 1.43228C3.24353 1.39249 4.13889 1.54169 4.95413 2.01584C4.96458 2.02247 4.982 2.02247 5.02032 2.02578C4.97852 1.74395 4.94019 1.47206 4.89839 1.20018C4.85309 0.901767 4.80432 0.603355 4.76251 0.304944C4.73813 0.129213 4.83916 0.0164789 5.02032 0.00653188C6.08988 -0.036572 7.11416 0.129213 8.0583 0.636512C8.6645 0.961449 9.18709 1.37923 9.61909 1.89979C9.65741 1.94621 9.69574 1.99263 9.74451 2.04899C9.7898 2.02578 9.83509 2.00257 9.88039 1.97936C10.5354 1.62127 11.2391 1.43891 11.9951 1.43559C12.1554 1.43559 12.3191 1.43559 12.4794 1.43559C12.6815 1.43891 12.786 1.56159 12.7511 1.74727C12.6257 2.4104 12.4968 3.07022 12.3714 3.73336C12.2913 4.15777 12.2111 4.57886 12.1205 5.04637L12.1066 5.053ZM6.96086 6.56827C7.00964 6.5119 7.04796 6.47211 7.0828 6.42901C7.64371 5.76256 8.20114 5.09942 8.76205 4.43297C8.91882 4.24398 9.0756 4.24398 9.23586 4.43297C9.53199 4.78443 9.82813 5.13589 10.1243 5.48736C10.1591 5.52714 10.1939 5.56362 10.2392 5.61335C10.511 2.05562 7.46952 0.318207 5.28858 0.507201C5.43491 1.49196 5.58472 2.47672 5.73104 3.46147C5.83904 4.19092 5.94704 4.92037 6.06201 5.65314C6.07595 5.73603 6.08988 5.84213 6.14563 5.89518C6.40344 6.12397 6.67867 6.33617 6.96086 6.56495V6.56827ZM13.9984 8.57094C13.9984 8.40184 14.0088 8.246 13.9949 8.09348C13.9879 8.03048 13.9531 7.95091 13.9043 7.91112C13.6186 7.68234 13.326 7.45687 13.0264 7.24135C12.9532 7.1883 12.8522 7.15183 12.7616 7.15183C10.8698 7.14851 8.98153 7.15183 7.08977 7.14188C6.98177 7.14188 6.85286 7.09546 6.76925 7.02915C6.25711 6.62463 5.75543 6.20686 5.24678 5.79571C5.19452 5.75261 5.1109 5.72277 5.04123 5.72277C4.58832 5.71614 4.13541 5.71614 3.6825 5.72277C3.6163 5.72277 3.53269 5.74266 3.48392 5.78245C3.06236 6.14386 2.57113 6.26323 2.0137 6.19691C1.84648 6.17702 1.67576 6.19691 1.50854 6.19691V6.68432C1.83951 6.58485 1.99977 6.807 2.18441 6.98604C2.707 7.4834 3.22959 7.98075 3.75218 8.48142C3.82186 8.55105 3.89502 8.58089 3.99605 8.57757C4.77645 8.57426 5.55685 8.57757 6.34073 8.57757C6.3895 8.57757 6.44176 8.57426 6.50099 8.57094C6.50099 8.34216 6.50099 8.12664 6.50099 7.9078C6.50099 7.71218 6.59157 7.62929 6.79712 7.62597C7.0828 7.62597 7.36848 7.62597 7.65765 7.62597C7.92242 7.62597 7.99907 7.69892 7.99907 7.95422C7.99907 8.1598 7.99907 8.36537 7.99907 8.57094H8.99895C8.99895 8.35542 8.99895 8.14985 8.99895 7.94096C8.99895 7.70555 9.08257 7.62597 9.32296 7.62597C9.59819 7.62597 9.87342 7.62597 10.1521 7.62597C10.4204 7.62597 10.497 7.69892 10.5005 7.95091C10.5005 8.15648 10.5005 8.36205 10.5005 8.57094H14.0019H13.9984ZM2.54674 1.91968C2.76971 3.08017 2.98572 4.22077 3.21217 5.39783C3.37243 5.2221 3.56056 5.24531 3.74173 5.24531C4.17025 5.24531 4.59528 5.23868 5.02381 5.24531C5.18058 5.24531 5.33736 5.28178 5.49762 5.30168C5.49762 5.31494 5.49762 5.28841 5.49762 5.2652C5.3722 4.43628 5.25026 3.61068 5.12136 2.78176C5.11439 2.74197 5.09 2.69555 5.05516 2.67234C4.32354 2.13188 3.49437 1.88652 2.54674 1.91305V1.91968ZM14.4896 9.06498H0.512135V9.52254H14.4931V9.06498H14.4896ZM10.0197 2.45682C10.4866 3.35869 10.6016 3.60405 10.6921 4.34345C10.7548 4.86732 10.7583 5.40115 10.7374 5.92834C10.7235 6.2367 10.8907 6.41575 11.0823 6.61469C11.1694 6.40911 11.253 6.21349 11.3367 6.01786C11.382 5.91508 11.4481 5.81229 11.4691 5.70619C11.6607 4.74796 11.8418 3.78973 12.0265 2.83149C12.0857 2.53308 12.138 2.23136 12.1972 1.91968C11.4063 1.89316 10.6887 2.06225 10.0232 2.45682H10.0197ZM14.4583 4.78443C13.0682 4.66507 11.8697 5.6233 11.6223 6.67437C12.0509 6.67437 12.4759 6.66774 12.9044 6.67769C13.0159 6.67769 13.1378 6.72411 13.2284 6.78379C13.5071 6.97941 13.7754 7.19162 14.0646 7.41377C14.197 6.52516 14.3293 5.65977 14.4617 4.78112L14.4583 4.78443ZM0.581814 3.8262C0.766461 4.44623 0.947625 5.053 1.13227 5.65977C1.13924 5.68961 1.19498 5.72277 1.22982 5.72277C1.68622 5.72608 2.14609 5.72277 2.60248 5.72277C2.71745 5.72277 2.75926 5.67635 2.73487 5.56362C2.64429 5.11268 2.55371 4.66175 2.47358 4.2075C2.45616 4.11135 2.41087 4.06493 2.32377 4.02846C1.76635 3.79636 1.18105 3.80962 0.57833 3.8262H0.581814ZM1.00337 8.56431H3.12856C2.64081 8.10011 2.17048 7.6525 1.70015 7.20488C1.67576 7.18167 1.64092 7.15514 1.61305 7.15183C1.41099 7.14851 1.2124 7.15183 1.00685 7.15183V8.56431H1.00337ZM8.74114 5.2221C8.32656 5.71614 7.93288 6.18365 7.52526 6.66774H8.74114V5.2221ZM10.2357 6.66774C10.2636 6.5119 10.2497 6.37927 10.1312 6.25659C9.9431 6.05765 9.77587 5.84213 9.60167 5.63325C9.49367 5.50393 9.38219 5.37462 9.26025 5.22873V6.67105H10.2357V6.66774ZM7.48345 8.57094V8.10674H7.00615V8.57094H7.48345ZM9.98839 8.57094V8.11338H9.50761V8.57094H9.98839Z" fill="#410EAD"/>
<path d="M4.996 7.38054C4.996 7.50985 4.888 7.61926 4.75213 7.62258C4.61626 7.62258 4.50129 7.51979 4.4978 7.39048C4.4978 7.26117 4.6058 7.15175 4.74168 7.14844C4.87755 7.14844 4.99252 7.25122 4.996 7.38054Z" fill="#410EAD"/>
<path d="M5.99576 7.38054C5.99576 7.50985 5.88776 7.61926 5.75188 7.62258C5.61601 7.62258 5.50104 7.51979 5.49756 7.39048C5.49756 7.26117 5.60556 7.15175 5.74143 7.14844C5.8773 7.14844 5.99227 7.25122 5.99576 7.38054Z" fill="#410EAD"/>
<path d="M11.2461 8.0967C11.1103 8.0967 10.9988 7.98728 10.9988 7.85797C10.9988 7.72866 11.1137 7.62256 11.2496 7.62256C11.3855 7.62256 11.497 7.73198 11.497 7.86129C11.497 7.9906 11.382 8.0967 11.2461 8.0967Z" fill="#410EAD"/>
<path d="M12.2494 8.0967C12.1135 8.0967 12.002 7.9906 11.9985 7.86129C11.9985 7.73198 12.11 7.62587 12.2459 7.62256C12.3818 7.62256 12.4933 7.72866 12.4967 7.85797C12.4967 7.98728 12.3852 8.0967 12.2494 8.0967Z" fill="#410EAD"/>
</svg>
