<svg width="15" height="15" viewBox="0 0 15 15" fill="none" xmlns="http://www.w3.org/2000/svg">
<path d="M15 11.9695C14.914 12.1231 14.7912 12.162 14.6385 12.162C9.87779 12.16 5.11707 12.16 0.356344 12.16C0.30721 12.16 0.258076 12.16 0.210697 12.1497C0.0773332 12.1211 0.00363235 12.0207 0.000122782 11.865C-0.00338678 11.7155 0.0685593 11.6193 0.187884 11.5763C0.224735 11.564 0.26685 11.5558 0.3037 11.564C0.533576 11.6131 0.647637 11.4902 0.759943 11.2526C2.21817 8.1353 3.68692 5.02411 5.15743 1.91292C5.21709 1.78593 5.22411 1.69171 5.1469 1.57702C5.07671 1.47461 5.0188 1.36196 4.96265 1.24726C4.88368 1.0875 4.91 0.931838 5.04161 0.829429C5.37853 0.56931 5.71896 0.311238 6.06289 0.0593118C6.21381 -0.0512902 6.33839 -0.0062301 6.44544 0.186299C6.77183 0.774128 7.09822 1.36196 7.42285 1.94979C7.44391 1.98665 7.46672 2.02147 7.50182 2.07677C7.54393 2.00509 7.57903 1.94774 7.61237 1.88629C7.91594 1.33533 8.21952 0.784369 8.52485 0.235456C8.67401 -0.0349047 8.7793 -0.0635793 9.00566 0.10642C9.30573 0.33172 9.60404 0.557021 9.90236 0.784369C10.1024 0.935935 10.1498 1.09774 9.99712 1.30666C9.77075 1.61593 9.81286 1.86581 9.97606 2.20581C11.4343 5.26375 12.875 8.33603 14.3174 11.4063C14.3718 11.523 14.4279 11.5722 14.542 11.5619C14.7192 11.5435 14.8982 11.5394 15 11.7626V11.9675V11.9695ZM4.33092 11.5476H10.6657C9.60755 9.63662 8.55995 7.74615 7.50006 5.8311C6.43842 7.7441 5.39081 9.63662 4.33092 11.5476ZM2.85866 11.5619C3.1096 11.5619 3.32894 11.5517 3.54829 11.566C3.67113 11.5742 3.73956 11.525 3.80624 11.4042C4.9451 9.33963 6.08746 7.27916 7.22982 5.21869C7.4053 4.90122 7.58955 4.90122 7.76503 5.21869C8.12827 5.87411 8.49151 6.52953 8.85475 7.18495C9.63914 8.60024 10.4235 10.0155 11.2097 11.4308C11.2395 11.482 11.2886 11.5558 11.329 11.5558C11.5887 11.5681 11.8502 11.5619 12.1327 11.5619C12.0818 11.4677 12.0449 11.4001 12.0099 11.3346C10.6938 8.95867 9.37592 6.58073 8.05633 4.20689C7.96157 4.03484 7.95806 3.89146 8.05633 3.72147C8.2669 3.35894 8.46694 2.98617 8.6705 2.61954C8.93547 2.14232 9.19869 1.66509 9.47068 1.17557C9.26713 1.02196 9.07234 0.874489 8.8723 0.722924C8.83545 0.784369 8.80562 0.835574 8.77579 0.886778C8.43185 1.50738 8.08791 2.13003 7.74222 2.75063C7.59833 3.0087 7.40004 3.01075 7.25615 2.75267C7.021 2.3328 6.78937 1.91087 6.55599 1.49099C6.41561 1.23907 6.27522 0.987139 6.12782 0.720875C5.92427 0.874489 5.72949 1.02196 5.52769 1.17352C5.56103 1.23702 5.5891 1.29027 5.61718 1.34148C6.05236 2.12593 6.48229 2.91243 6.92274 3.69279C7.03329 3.88737 7.03153 4.04098 6.92274 4.23556C5.81547 6.2223 4.71522 8.21313 3.61322 10.2019C3.36755 10.6464 3.12188 11.0888 2.85866 11.564V11.5619ZM1.18636 11.5619C1.50222 11.5619 1.79351 11.5537 2.0848 11.566C2.20764 11.5701 2.27608 11.523 2.34276 11.4042C3.20611 9.83734 4.07297 8.27663 4.93983 6.71181C5.42415 5.83724 5.91023 4.96267 6.39104 4.08399C6.41911 4.03279 6.44193 3.93448 6.41912 3.89146C6.1366 3.36508 5.84706 2.84689 5.54874 2.30822C4.09403 5.39688 2.64633 8.46506 1.18811 11.5619H1.18636ZM9.44962 2.30822C9.14956 2.85099 8.85826 3.37123 8.5775 3.89556C8.55644 3.93448 8.5775 4.0246 8.60382 4.07375C8.7635 4.37279 8.93021 4.66773 9.0934 4.96471C10.2849 7.11531 11.4764 9.26795 12.6696 11.4185C12.6995 11.4718 12.7451 11.5517 12.7855 11.5537C13.1189 11.564 13.4523 11.5599 13.8085 11.5599C12.3503 8.46711 10.9061 5.40098 9.44962 2.30822Z" fill="#410EAD"/>
<path d="M7.50513 12.9826C9.55647 12.9826 11.6078 12.9826 13.6591 12.9826C13.7171 12.9826 13.7785 12.9785 13.8346 12.9928C13.9627 13.0276 14.0382 13.1259 14.0364 13.2857C14.0364 13.4352 13.9662 13.5315 13.8416 13.5663C13.7908 13.5806 13.7346 13.5806 13.682 13.5806C9.55998 13.5806 5.438 13.5806 1.31601 13.5806C1.26337 13.5806 1.20722 13.5806 1.15633 13.5663C1.03349 13.5315 0.963303 13.4352 0.961548 13.2857C0.961548 13.1259 1.03349 13.0276 1.16335 12.9928C1.2195 12.9764 1.27916 12.9826 1.33883 12.9826C3.39543 12.9826 5.45028 12.9826 7.50688 12.9826H7.50513Z" fill="#410EAD"/>
<path d="M7.49825 15C5.72066 15 3.94307 15 2.16723 15C1.91454 15 1.78468 14.8935 1.78995 14.6928C1.79521 14.4962 1.91805 14.3999 2.16547 14.3999C5.72066 14.3999 9.27409 14.3999 12.8293 14.3999C13.082 14.3999 13.2118 14.5064 13.2066 14.7092C13.2013 14.9058 13.0785 15 12.831 15C11.0534 15 9.27585 15 7.50001 15H7.49825Z" fill="#410EAD"/>
</svg>
