<svg width="8" height="15" viewBox="0 0 8 15" fill="none" xmlns="http://www.w3.org/2000/svg">
<path d="M4.1927 0V1.46958C4.38025 1.46958 4.55858 1.46958 4.73691 1.46958C4.89064 1.46958 5.11509 1.72249 5.11816 1.89337C5.11816 2.12235 5.11816 2.35133 5.11816 2.59399C5.00132 2.59399 4.99825 2.68284 5.0044 2.77854C5.00747 2.84005 4.99517 2.90841 5.0044 2.96992C5.07819 3.36295 4.87219 3.59535 4.617 3.79699C4.85374 5.17088 5.09049 6.54135 5.32723 7.92891C5.1981 7.95625 5.07511 7.98359 4.94906 8.01094C4.93368 7.96309 4.92138 7.92208 4.91216 7.89474C4.77995 8.03828 4.65389 8.18182 4.51554 8.33561H6.28036C6.28036 8.69446 6.26499 9.02939 6.28651 9.36432C6.30188 9.61723 6.24654 9.80861 6.06514 9.95899C5.9975 10.0137 5.94523 10.0889 5.88681 10.1538C5.86529 10.1777 5.83762 10.2187 5.8161 10.2153C5.65622 10.2016 5.58857 10.3452 5.49941 10.4443C5.15505 10.8202 4.81685 11.203 4.45712 11.5995H6.07744C5.94523 11.2884 5.81917 10.9911 5.69004 10.6835C5.80687 10.622 5.91448 10.5639 6.04054 10.4956C6.06514 10.5468 6.08974 10.5981 6.11126 10.6459C6.52633 11.62 6.94448 12.594 7.3534 13.5714C7.39952 13.6842 7.45179 13.7457 7.56862 13.7252C7.66086 13.7081 7.71928 13.7628 7.78692 13.8243C7.95295 13.9713 8.01752 14.1456 7.99599 14.3814C7.97755 14.583 7.99292 14.7881 7.99292 15H5.16428C5.16428 14.6958 5.15813 14.3951 5.16428 14.0943C5.16428 13.985 5.45637 13.7321 5.55475 13.7286C5.58857 13.7286 5.62547 13.7252 5.65622 13.7218C5.74231 13.0212 4.94598 12.1497 4.15581 12.0677C3.11044 11.9617 2.37561 12.8811 2.32026 13.6808C2.42173 13.7286 2.52626 13.7594 2.61235 13.8175C2.80298 13.9542 2.86447 14.1558 2.83987 14.4088C2.82143 14.6001 2.8368 14.7984 2.8368 15H0.00200751C0.00200751 14.6958 -0.00414105 14.3882 0.00508278 14.0841C0.00815739 13.9713 0.312543 13.715 0.414005 13.7286C0.533915 13.7423 0.589259 13.691 0.638453 13.5714C1.04738 12.5974 1.46245 11.6302 1.87445 10.6596C1.89597 10.6083 1.92056 10.5571 1.94824 10.499C2.06507 10.5605 2.17576 10.6186 2.29874 10.6835C2.16961 10.9911 2.04047 11.2919 1.90827 11.6063H3.52551C3.49169 11.5619 3.47324 11.5345 3.44865 11.5072C3.08892 11.1073 2.72919 10.704 2.36638 10.3076C2.32949 10.2666 2.26185 10.2632 2.22495 10.2221C2.0497 10.041 1.8806 9.85646 1.70842 9.67191V8.34245H3.45787C3.32566 8.19891 3.19345 8.05878 3.06739 7.9255C3.06739 7.9255 3.0551 7.96309 3.03665 8.01094C2.91366 7.98701 2.79375 7.95967 2.66155 7.93233C2.89829 6.55161 3.13504 5.17772 3.35948 3.86535C3.23342 3.70472 3.12889 3.57485 3.0305 3.43814C3.00283 3.40055 2.99053 3.34245 2.99053 3.29118C2.98438 3.11005 2.9936 2.92891 2.98438 2.74778C2.98438 2.68968 2.94134 2.635 2.91981 2.58031C2.90444 2.58373 2.88907 2.59057 2.87369 2.59399C2.87369 2.34108 2.87369 2.08817 2.87369 1.83527C2.87369 1.71907 3.13196 1.46958 3.23957 1.46958C3.4179 1.46958 3.5993 1.46958 3.793 1.46958V0H4.18963H4.1927ZM2.10504 8.78674C2.10504 9.02597 2.10504 9.25154 2.10504 9.47368C2.10504 9.58647 2.30797 9.78469 2.4125 9.78469C3.46709 9.78469 4.52169 9.78469 5.5732 9.78469C5.66851 9.78469 5.88066 9.5933 5.88374 9.49077C5.88989 9.25837 5.88374 9.02597 5.88374 8.78332H2.10197L2.10504 8.78674ZM3.38715 2.62133C3.38715 2.81271 3.37486 3.0041 3.3933 3.18865C3.39945 3.24334 3.49169 3.32878 3.54703 3.33219C3.84527 3.34586 4.14351 3.34928 4.43867 3.33219C4.49709 3.33219 4.58933 3.22966 4.59855 3.16473C4.62007 2.99043 4.6047 2.8093 4.6047 2.62133H3.38408H3.38715ZM7.59629 14.5625C7.59629 14.4805 7.59629 14.4053 7.59629 14.3336C7.60244 14.2139 7.55325 14.1661 7.44871 14.1661C6.86454 14.1661 6.28036 14.1661 5.69619 14.1661C5.60395 14.1661 5.55475 14.2105 5.55783 14.3165C5.55783 14.3985 5.55783 14.4771 5.55783 14.5625H7.59629ZM2.43402 14.5625C2.43402 14.5079 2.44017 14.4703 2.44017 14.4327C2.44017 14.1764 2.43402 14.1695 2.2065 14.1695C1.70534 14.1695 1.20726 14.1695 0.706094 14.1695C0.490871 14.1695 0.388384 14.288 0.398633 14.5249C0.398633 14.5249 0.407857 14.5523 0.410931 14.566H2.43402V14.5625ZM2.05892 12.9494C2.28337 12.6418 2.49552 12.3513 2.71074 12.0574C2.47092 12.0574 2.21573 12.0574 1.96361 12.0574C1.69612 12.0574 1.69612 12.0574 1.60388 12.3377C1.59466 12.3684 1.59466 12.4197 1.61003 12.4402C1.76376 12.6213 1.92057 12.7956 2.05892 12.9494ZM5.93601 12.9494C6.07129 12.7956 6.22194 12.6282 6.3726 12.4573C6.39105 12.4368 6.40642 12.3992 6.40335 12.3718C6.37568 12.1668 6.26191 12.0608 6.07436 12.0608C5.99135 12.0608 5.90833 12.0608 5.82532 12.0608H5.28111C5.49634 12.3548 5.70849 12.6453 5.93601 12.9528V12.9494ZM6.98445 13.7252C6.85224 13.4142 6.72926 13.1271 6.60012 12.823C6.41872 13.028 6.24654 13.2126 6.08051 13.404C6.01594 13.4792 6.06514 13.7184 6.142 13.7218C6.41564 13.7286 6.68929 13.7218 6.98445 13.7218V13.7252ZM1.01048 13.7252C1.28412 13.7252 1.53316 13.7252 1.78221 13.7252C1.82525 13.7252 1.90212 13.7116 1.90827 13.6876C1.92671 13.6022 1.95746 13.4757 1.92056 13.4279C1.76069 13.2194 1.57621 13.0314 1.39173 12.8264C1.25952 13.134 1.13961 13.4211 1.01048 13.7286V13.7252ZM3.793 10.2358H2.91366C3.20268 10.5605 3.50091 10.892 3.793 11.2167V10.2358ZM4.19885 11.2133C4.49094 10.8852 4.78918 10.5537 5.06897 10.2427H4.19885V11.2133ZM4.71539 2.1702C4.72563 1.99932 4.66107 1.91388 4.52168 1.91388C4.17118 1.91388 3.82067 1.91388 3.46709 1.91388C3.26109 1.91388 3.24265 1.94122 3.28877 2.1702H4.71539ZM3.78993 6.86945C3.63312 7.04375 3.45479 7.24197 3.29184 7.4231C3.43942 7.59057 3.61468 7.78879 3.78993 7.98701V6.86945ZM4.19885 7.97334C4.3741 7.77854 4.54936 7.58031 4.70001 7.41285C4.53706 7.23172 4.35873 7.03691 4.19885 6.85919V7.97334ZM4.19885 5.62885C4.24497 5.56733 4.26649 5.52973 4.29724 5.50239C4.45097 5.35543 4.47864 5.18113 4.42022 4.96924C4.37103 4.79152 4.35566 4.60697 4.32184 4.42584C4.28494 4.2242 4.25112 4.01914 4.21422 3.8175C4.20807 3.8175 4.20193 3.8175 4.19578 3.82092V5.63226L4.19885 5.62885ZM3.793 5.61176V3.82092C3.71306 4.18319 3.67002 4.55571 3.58085 4.91456C3.50706 5.19822 3.5747 5.39986 3.75918 5.581C3.76533 5.58783 3.77148 5.59125 3.79608 5.61176H3.793ZM3.27954 6.71565C3.43327 6.53794 3.57163 6.38072 3.71614 6.21668C3.63312 6.1039 3.54088 5.98428 3.4302 5.83732C3.37793 6.14491 3.33181 6.42174 3.27954 6.71907V6.71565ZM4.5678 5.8339C4.45404 5.9877 4.36488 6.11073 4.28494 6.21668C4.4356 6.38072 4.5801 6.53794 4.71539 6.68489C4.67234 6.42857 4.62315 6.15174 4.5678 5.8339Z" fill="#410EAD"/>
<path d="M4.44482 9.49068V9.06689H5.21963V9.49068H4.44482Z" fill="#410EAD"/>
<path d="M3.50723 9.07031V9.49068H3.12598V9.07031H3.50723Z" fill="#410EAD"/>
<path d="M3.78687 9.06689H4.16504V9.49068H3.78687V9.06689Z" fill="#410EAD"/>
</svg>
