<svg width="15" height="14" viewBox="0 0 15 14" fill="none" xmlns="http://www.w3.org/2000/svg">
<path d="M9.50656 13.6608H9.81835C9.94137 10.898 10.0665 8.13726 10.1895 5.36863C9.88834 5.32941 9.76956 5.15686 9.75684 4.90196C9.75259 4.80588 9.72714 4.71177 9.71654 4.61569C9.69957 4.45686 9.75259 4.31765 9.90531 4.24118C9.99863 4.19412 10.0241 4.12941 10.0347 4.0451C10.0623 3.83726 10.1323 3.66275 10.3762 3.5902C10.4101 3.58039 10.4334 3.50392 10.4377 3.45686C10.4759 2.97647 10.5077 2.49608 10.5416 2.01569C10.584 1.42157 10.6243 0.82549 10.6668 0.231373C10.6774 0.0803922 10.758 0 10.8852 0C11.0167 0 11.0931 0.0862747 11.1058 0.243137C11.1822 1.32745 11.2606 2.41176 11.3391 3.49804C11.3391 3.52549 11.3455 3.55294 11.3497 3.58628C11.6127 3.63333 11.7082 3.80784 11.7336 4.03137C11.7442 4.12353 11.7718 4.19608 11.8757 4.24902C12.0178 4.31961 12.0709 4.45294 12.056 4.60196C12.0412 4.74706 12.0242 4.89412 11.9945 5.03726C11.9542 5.23726 11.8079 5.34118 11.5809 5.36863C11.7061 8.13137 11.8291 10.8902 11.9521 13.6569H12.2299C12.2299 13.6059 12.2299 13.5529 12.2299 13.5C12.2299 12.1059 12.2299 10.7098 12.2299 9.31569C12.2299 8.92157 12.3975 8.76667 12.8238 8.76667C13.1759 8.76667 13.528 8.76667 13.8801 8.76667C14.2661 8.76667 14.4464 8.93137 14.4464 9.28628C14.4464 10.6863 14.4464 12.0843 14.4464 13.4843C14.4464 13.5392 14.4464 13.5941 14.4464 13.6686C14.5694 13.6686 14.6797 13.6686 14.7921 13.6686C14.913 13.6686 15 13.7157 15 13.8353C15 13.9549 14.9109 14 14.79 14C14.7603 14 14.7306 14 14.7009 14C9.90319 14 5.10544 14 0.307692 14C0.0892269 14 0.00438616 13.9569 0.000144121 13.8412C-0.00409792 13.7216 0.084985 13.6706 0.309813 13.6706C0.354355 13.6706 0.396775 13.6706 0.4498 13.6706C0.547367 13.2137 0.644934 12.7647 0.74038 12.3176C0.445559 12.0627 0.424348 11.9353 0.634329 11.6118C0.984298 11.0725 1.50819 10.7235 2.13601 10.5176C3.45104 10.0863 4.74487 10.1255 5.99203 10.7392C6.43744 10.9588 6.79589 11.2745 7.03557 11.6941C7.18616 11.9569 7.14374 12.1235 6.87861 12.3059C6.97406 12.7529 7.07163 13.2059 7.16919 13.6627H7.46614V13.4902C7.46614 11.3431 7.46614 9.19608 7.46614 7.04902C7.46614 6.90784 7.46614 6.76079 7.604 6.67451C7.69309 6.61765 7.80974 6.57451 7.91367 6.57059C8.28061 6.55882 8.64754 6.56471 9.01448 6.56667C9.3496 6.56667 9.50656 6.7098 9.50656 7.01961C9.50656 8.82353 9.50656 10.6255 9.50656 12.4294C9.50656 12.8373 9.50656 13.2451 9.50656 13.6647V13.6608ZM6.77893 11.9843C6.74711 11.9118 6.73014 11.8608 6.70469 11.8157C6.49259 11.4608 6.1808 11.1902 5.79477 11.0078C4.59215 10.4412 3.35984 10.4216 2.11692 10.8784C1.61212 11.0627 1.19852 11.3647 0.924909 11.8118C0.895215 11.8608 0.878247 11.9157 0.848552 11.9863H6.77893V11.9843ZM9.15023 13.6608V13.4863C9.15023 12.5275 9.15023 11.5686 9.15023 10.6098C9.15023 9.42549 9.1481 8.24314 9.15235 7.05882C9.15235 6.92549 9.10993 6.88627 8.96782 6.8902C8.68572 6.9 8.40151 6.89216 8.11941 6.89216C7.91014 6.89216 7.81328 6.9902 7.82883 7.18628C7.82883 7.18628 7.83731 7.20196 7.84156 7.2098C7.85216 7.20196 7.86489 7.19412 7.87549 7.18431C7.92852 7.2451 8.03033 7.31373 8.02184 7.36863C8.01124 7.44902 7.92003 7.51765 7.86489 7.59216C7.85216 7.58431 7.83943 7.57843 7.82883 7.57059V7.84314C7.83943 7.83726 7.85004 7.82941 7.86065 7.82353C7.91791 7.88824 8.02608 7.95686 8.02184 8.01765C8.0176 8.09412 7.92003 8.16471 7.86277 8.23726C7.85216 8.23137 7.83943 8.22353 7.82883 8.21765V8.4902C7.84156 8.48431 7.85428 8.47647 7.86489 8.47059C7.92215 8.53922 8.02396 8.60784 8.02184 8.67647C8.02184 8.74706 7.91791 8.81373 7.86065 8.88431C7.82671 8.88824 7.82459 8.90981 7.82459 8.93333C7.82459 9.04118 7.79065 9.14706 7.96033 9.20392C8.08547 9.24706 8.06214 9.43137 7.92428 9.47255C7.82459 9.50196 7.82247 9.55294 7.82459 9.62549C7.82671 9.68039 7.82459 9.7353 7.82459 9.7902C7.83731 9.78432 7.85004 9.77647 7.86277 9.77059C7.92003 9.83922 8.02184 9.90784 8.02184 9.97647C8.02184 10.0451 7.92003 10.1137 7.86277 10.1824C7.85004 10.1765 7.83731 10.1686 7.82247 10.1627C7.82247 10.2039 7.82247 10.2451 7.82247 10.2863C7.82035 10.3765 7.80762 10.4569 7.94549 10.4941C8.04305 10.5216 8.06851 10.6294 8.00063 10.7137C7.96245 10.7608 7.89246 10.7843 7.83095 10.8216V11.1C7.84368 11.0922 7.8564 11.0843 7.86913 11.0784C7.92428 11.1451 8.02608 11.2118 8.02396 11.2765C8.02184 11.3471 7.92428 11.4157 7.86701 11.4843C7.85428 11.4784 7.84156 11.4706 7.83095 11.4647V11.749C7.84368 11.7412 7.85428 11.7353 7.86701 11.7275C7.92428 11.7922 8.03033 11.8608 8.02396 11.9196C8.01548 11.998 7.91791 12.0667 7.85852 12.1412C7.85004 12.1353 7.83944 12.1294 7.83095 12.1235V12.3961C7.84368 12.3882 7.8564 12.3824 7.86913 12.3745C7.92428 12.4412 8.02608 12.5078 8.02396 12.5725C8.02396 12.6431 7.92428 12.7118 7.86913 12.7804C7.8564 12.7745 7.84368 12.7667 7.83095 12.7608V13.0451C7.84368 13.0373 7.85428 13.0314 7.86701 13.0235C7.92428 13.0882 8.03033 13.1569 8.02396 13.2157C8.01548 13.2941 7.92003 13.3627 7.86277 13.4373C7.85428 13.4314 7.84368 13.4235 7.83519 13.4177V13.6608H8.1894V13.4902C8.1894 11.4765 8.1894 9.46275 8.1894 7.44706C8.1894 7.29608 8.24667 7.22549 8.36545 7.22353C8.48423 7.22353 8.54361 7.29412 8.54573 7.44314C8.54573 7.47451 8.54573 7.50784 8.54573 7.53922C8.54573 9.52549 8.54573 11.5118 8.54573 13.498V13.6627H9.1481L9.15023 13.6608ZM10.7092 13.6608C10.7092 13.5902 10.7092 13.5314 10.7092 13.4726C10.7092 11.0824 10.7092 8.69216 10.7092 6.30196C10.7092 6.24706 10.6922 6.18039 10.7177 6.13922C10.7537 6.08039 10.8237 6 10.881 6C10.9382 6 11.0146 6.07255 11.0549 6.13137C11.0825 6.17059 11.0676 6.23726 11.0676 6.29216C11.0676 8.68628 11.0676 11.0824 11.0676 13.4765V13.6588H11.5979C11.4727 10.8941 11.3497 8.13726 11.2267 5.37451H10.5501C10.425 8.14118 10.3019 10.898 10.1789 13.6608H10.7113H10.7092ZM6.51804 12.3373H1.10307C1.09035 12.4098 1.07974 12.4745 1.06914 12.5353C1.09883 12.5431 1.10732 12.549 1.11792 12.549C1.32154 12.549 1.52516 12.549 1.72878 12.5529C1.97269 12.5569 2.07874 12.6549 2.08086 12.8843C2.08086 12.9569 2.08086 13.0314 2.08086 13.1039C2.07662 13.3431 1.96845 13.4431 1.70544 13.4431C1.42759 13.4431 1.15186 13.4431 0.867642 13.4431C0.852795 13.5196 0.840068 13.5863 0.827342 13.6588H6.80226C6.78741 13.5843 6.77468 13.5196 6.75984 13.4431H6.1002C5.58267 13.4431 5.54449 13.4078 5.54661 12.9235C5.54661 12.6412 5.64206 12.551 5.94324 12.551C6.14474 12.551 6.34624 12.551 6.5647 12.551C6.54561 12.4647 6.53289 12.4 6.51804 12.3373ZM14.088 13.3902C14.0201 13.3902 13.9671 13.3902 13.914 13.3902C13.6319 13.3902 13.3477 13.3902 13.0656 13.3902C12.949 13.3902 12.8705 13.3392 12.8684 13.2294C12.8663 13.1196 12.9426 13.0647 13.0593 13.0608C13.1081 13.0608 13.159 13.0608 13.2077 13.0608C13.4983 13.0608 13.7889 13.0608 14.0795 13.0608V12.7863C13.7465 12.7863 13.4241 12.7863 13.1017 12.7863C12.9469 12.7863 12.8578 12.7235 12.8663 12.6176C12.8769 12.4902 12.9702 12.4549 13.0953 12.4549C13.3435 12.4569 13.5916 12.4549 13.8398 12.4549C13.9225 12.4549 14.0031 12.4549 14.0816 12.4549V12.1804C14.0243 12.1804 13.9755 12.1804 13.9268 12.1804C13.6447 12.1804 13.3605 12.1804 13.0784 12.1804C12.9575 12.1804 12.8684 12.1373 12.8663 12.0176C12.8663 11.9 12.9511 11.849 13.072 11.849C13.1865 11.849 13.3011 11.849 13.4135 11.849C13.6362 11.849 13.8568 11.849 14.0774 11.849V11.5745C13.738 11.5745 13.4114 11.5745 13.0847 11.5745C12.9426 11.5745 12.8556 11.5078 12.8641 11.4059C12.8747 11.2863 12.9596 11.2451 13.0784 11.2451C13.3414 11.2451 13.6044 11.2451 13.8674 11.2451C13.9395 11.2451 14.0116 11.2451 14.0795 11.2451V10.9706C14.0371 10.9706 14.0031 10.9706 13.9692 10.9706C13.6659 10.9706 13.3647 10.9706 13.0614 10.9706C12.9447 10.9706 12.8663 10.9176 12.8641 10.8078C12.8641 10.698 12.9405 10.6451 13.0571 10.6412C13.1165 10.6412 13.1759 10.6412 13.2353 10.6412C13.5174 10.6412 13.7974 10.6412 14.0816 10.6412V10.3667C14.0265 10.3667 13.9798 10.3667 13.931 10.3667C13.6425 10.3667 13.3562 10.3726 13.0678 10.3627C13.002 10.3608 12.9172 10.3118 12.8832 10.2588C12.8578 10.2216 12.8832 10.1294 12.9193 10.0902C12.9532 10.0529 13.0338 10.0392 13.0932 10.0392C13.4198 10.0353 13.7465 10.0373 14.0774 10.0373V9.76275C14.0137 9.76275 13.9607 9.76275 13.9077 9.76275C13.6256 9.76275 13.3414 9.76275 13.0593 9.76275C12.9426 9.76275 12.8641 9.7098 12.8641 9.6C12.8641 9.4902 12.9405 9.43726 13.0571 9.43333C13.1208 9.43333 13.1865 9.43333 13.2502 9.43333C13.5259 9.43333 13.8016 9.43333 14.0795 9.43333C14.0837 9.39804 14.088 9.38039 14.088 9.36275C14.0964 9.11765 14.0816 9.10392 13.8228 9.10392C13.4898 9.10392 13.159 9.10392 12.826 9.10392C12.599 9.10392 12.5863 9.11569 12.5863 9.31961C12.5863 10.7235 12.5863 12.1275 12.5863 13.5314C12.5863 13.5765 12.5905 13.6196 12.5948 13.6647H14.0858V13.4L14.088 13.3902ZM10.8979 4.50196C10.6646 4.50196 10.4313 4.50392 10.198 4.50196C10.092 4.50196 10.0538 4.53726 10.075 4.63529C10.0941 4.72549 10.1132 4.81569 10.1153 4.90784C10.1174 5.01373 10.1747 5.03726 10.2765 5.03529C10.6031 5.03137 10.9298 5.03529 11.2585 5.03529C11.506 5.03529 11.6467 4.92418 11.6806 4.70196C11.6848 4.67843 11.6891 4.65686 11.6933 4.63529C11.7188 4.53726 11.67 4.50392 11.5682 4.50588C11.3455 4.5098 11.1228 4.50588 10.9001 4.50588L10.8979 4.50196ZM10.9828 3.57843C10.9531 2.73333 10.9234 1.89412 10.8937 1.05686C10.8873 1.05686 10.881 1.05686 10.8767 1.05686C10.847 1.89608 10.8195 2.73726 10.7898 3.57843H10.9849H10.9828ZM10.3889 4.15882H11.3858C11.366 3.99673 11.272 3.91569 11.1037 3.91569C10.951 3.91569 10.7961 3.91569 10.6434 3.91569C10.4808 3.91569 10.396 3.99673 10.3889 4.15882ZM1.71605 12.8824C1.5294 12.8824 1.35123 12.8824 1.17519 12.8824C0.958845 12.8824 0.952482 12.8902 0.960966 13.1059H1.71605V12.8824ZM6.71954 13.1059C6.66227 13.0157 6.62621 12.8961 6.57743 12.8922C6.35896 12.8706 6.13626 12.8824 5.91143 12.8824V13.1059H6.71954Z" fill="#410EAD"/>
<path d="M3.81172 12.553C4.01958 12.553 4.22744 12.5491 4.4353 12.553C4.65377 12.5569 4.75982 12.6589 4.76406 12.8628C4.76406 12.9589 4.76618 13.055 4.76406 13.1511C4.7577 13.3256 4.64528 13.4393 4.45863 13.4412C4.02806 13.4471 3.59538 13.4471 3.16481 13.4412C2.97816 13.4393 2.86575 13.3236 2.85938 13.1511C2.85514 13.0452 2.85514 12.9393 2.85938 12.8354C2.86575 12.6667 2.97392 12.5609 3.15633 12.555C3.37479 12.5491 3.59326 12.555 3.8096 12.555L3.81172 12.553ZM4.40136 12.8942H3.2242V13.104H4.40136V12.8942Z" fill="#410EAD"/>
</svg>
