<svg width="15" height="15" viewBox="0 0 15 15" fill="none" xmlns="http://www.w3.org/2000/svg">
<path d="M15 4.75874V15H0V9.12234H0.4425V9.91261C0.650625 9.72075 0.879375 9.50798 1.11188 9.29901C1.18313 9.23442 1.20375 9.16033 1.20375 9.06345C1.2 8.00532 1.2 6.94529 1.20375 5.88716C1.20375 5.77318 1.23187 5.6516 1.275 5.54711C1.4175 5.19757 1.57313 4.85182 1.73438 4.48518H1.4475V4.01786C1.88437 4.18503 2.01187 3.90388 2.1375 3.57713C2.29688 3.15919 2.49 2.75456 2.6775 2.32523C2.7075 2.38792 2.73 2.43161 2.74875 2.4772C2.955 2.95213 3.16688 3.42325 3.36563 3.90198C3.41438 4.01786 3.47438 4.05775 3.5925 4.04635C3.6975 4.03685 3.80437 4.04445 3.915 4.04445V4.49088H3.64875C3.64875 4.50988 3.645 4.52128 3.64875 4.52888C3.67125 4.58397 3.69937 4.63716 3.71812 4.69225C3.86812 5.14248 4.20187 5.53002 4.16437 6.07713C4.53562 5.68769 4.88063 5.32295 5.23125 4.95441C5.59688 5.34005 5.95125 5.71049 6.30375 6.08283C6.27562 5.79027 6.39188 5.55091 6.5025 5.31155C6.55312 5.20517 6.59812 5.09499 6.645 4.9867C6.71437 4.82523 6.78375 4.66375 6.85875 4.48708H6.57187V4.04445C6.6975 4.04445 6.81375 4.03685 6.92813 4.04635C7.03125 4.05585 7.0725 4.01026 7.11 3.92287C7.2975 3.48214 7.48875 3.04521 7.68 2.60638C7.7175 2.519 7.75875 2.43161 7.8075 2.32333C8.06437 2.91033 8.31188 3.47454 8.56125 4.04825H9.03938V4.49278H8.75625C8.9175 4.86322 9.07687 5.21847 9.225 5.57751C9.26062 5.66109 9.28125 5.75608 9.28312 5.84726C9.28687 6.93009 9.285 8.01482 9.28687 9.09764C9.28687 9.14894 9.28312 9.22303 9.31312 9.25152C9.55312 9.47948 9.80063 9.69795 10.0463 9.92021L10.0181 9.96011V9.80053C10.0181 8.36056 10.0331 6.92059 10.0087 5.48252C10.0013 5.0095 10.0744 4.59347 10.3631 4.21353C10.5319 3.99126 10.7137 3.7519 10.7869 3.49164C10.86 3.22568 10.8019 2.92173 10.8113 2.63678C10.8131 2.55889 10.8356 2.4696 10.8787 2.40502C11.3925 1.63374 11.91 0.868161 12.4275 0.100684C12.45 0.0664895 12.4781 0.0341945 12.5062 0C12.525 0.0208967 12.5381 0.0303952 12.5456 0.0417934C13.0856 0.841565 13.6256 1.64134 14.1619 2.44301C14.1919 2.4886 14.2031 2.55319 14.205 2.60828C14.2106 2.90464 14.1506 3.21998 14.2294 3.49354C14.31 3.7728 14.5237 4.01216 14.6775 4.27052C14.7225 4.3465 14.7675 4.42249 14.8162 4.49658C14.8744 4.58587 14.9363 4.67135 14.9963 4.75874H15ZM10.47 5.09119V14.546H11.0306V14.3465C11.0306 13.1402 11.0456 11.932 11.0212 10.7257C11.0138 10.3381 11.0756 10.019 11.3944 9.78343C11.3981 9.77964 11.4019 9.77774 11.4037 9.77204C11.43 9.70175 11.4806 9.63336 11.4806 9.56307C11.4863 9.00456 11.4844 8.44415 11.4844 7.88564C11.4844 7.24354 11.9194 6.77622 12.5138 6.77812C13.1062 6.77812 13.5356 7.24734 13.5356 7.89324C13.5356 8.31877 13.56 8.7462 13.5281 9.16983C13.5 9.54027 13.5844 9.83473 13.8806 10.0608C13.9706 10.1292 13.9913 10.2204 13.9913 10.3343C13.9875 11.6755 13.9894 13.0148 13.9894 14.356V14.546H14.5538V5.09119H10.47ZM4.23375 14.5479C4.23375 14.4871 4.23375 14.4358 4.23375 14.3826C4.23375 14.0559 4.24312 13.7291 4.23187 13.4024C4.22062 13.0946 4.33313 12.8457 4.56375 12.6634C4.7475 12.519 4.95375 12.4031 5.15438 12.2834C5.19188 12.2606 5.265 12.2587 5.3025 12.2815C5.51812 12.4145 5.73938 12.5418 5.93625 12.7014C6.14437 12.8685 6.23812 13.1041 6.23063 13.3815C6.22125 13.7177 6.22875 14.054 6.23063 14.3902C6.23063 14.4415 6.23625 14.4947 6.24 14.5441H7.905V10.796H2.5875V14.546H4.23375V14.5479ZM0.44625 14.5441H2.12813V10.7922H0.44625V14.5441ZM8.36063 10.7903V14.546H10.0106V10.7903H8.36063ZM1.65187 5.98214V10.3305H3.70875V5.98214H1.65187ZM8.84437 5.98974H6.77813V10.3286H8.84437V5.98974ZM4.16813 10.3286H6.31687V8.03191H4.16813V10.3286ZM5.23125 5.5965C4.87875 5.96884 4.5375 6.32789 4.19812 6.69073C4.17937 6.70973 4.16437 6.74202 4.16437 6.76862C4.1625 7.03457 4.16437 7.30053 4.16437 7.57029H6.33187C6.33187 7.31383 6.33187 7.06687 6.33187 6.81991C6.33187 6.78382 6.315 6.74202 6.29062 6.71543C5.94375 6.34688 5.59687 5.98024 5.235 5.5984L5.23125 5.5965ZM10.6369 4.63146H14.385C14.2125 4.3484 14.0531 4.07865 13.8862 3.81459C13.8712 3.78989 13.8187 3.7785 13.785 3.7785C12.9375 3.7766 12.0881 3.7766 11.2406 3.7785C11.2031 3.7785 11.1469 3.79559 11.13 3.82219C10.965 4.08245 10.8075 4.3484 10.6369 4.62956V4.63146ZM12.5138 9.24202C12.3412 9.3503 12.3037 9.49848 12.3056 9.68845C12.3131 11.2519 12.3094 12.8154 12.3094 14.3769V14.5441H12.7144V14.356C12.7144 12.7888 12.7106 11.2196 12.72 9.65236C12.72 9.46619 12.6562 9.34461 12.5156 9.24392L12.5138 9.24202ZM13.0969 9.20403C13.0969 8.71581 13.0988 8.27318 13.0969 7.82865C13.095 7.4791 12.84 7.22264 12.5081 7.22264C12.1781 7.22264 11.9288 7.4829 11.9269 7.83435C11.925 8.25038 11.9269 8.66451 11.9269 9.08055C11.9269 9.11094 11.9363 9.14134 11.9419 9.18883C12.1388 8.97606 12.3206 8.7785 12.5119 8.57333C12.705 8.7804 12.8869 8.97796 13.0969 9.20403ZM5.78813 14.5479C5.78813 14.489 5.78813 14.4358 5.78813 14.3826C5.78813 14.0862 5.76938 13.788 5.79375 13.4935C5.81438 13.2181 5.7 13.0395 5.49 12.9008C5.19 12.7033 5.28 12.6995 4.97625 12.9008C4.76625 13.0395 4.64437 13.2181 4.6725 13.4935C4.695 13.7234 4.67625 13.9571 4.67625 14.1907V14.5498H5.79L5.78813 14.5479ZM13.5712 2.34802C13.2112 1.81231 12.8663 1.30129 12.51 0.771277C12.1519 1.30509 11.805 1.81801 11.4487 2.34802H13.5712ZM11.8538 14.5498V9.93541C11.7581 10.0399 11.6831 10.1311 11.595 10.209C11.4956 10.2983 11.4637 10.4008 11.4656 10.5338C11.4713 11.8085 11.4675 13.0851 11.4694 14.3598C11.4694 14.4206 11.475 14.4833 11.4788 14.5479H11.8556L11.8538 14.5498ZM13.1569 14.5441H13.5375C13.5412 14.5118 13.5469 14.4871 13.5469 14.4624C13.5469 13.1231 13.5469 11.7819 13.5469 10.4426C13.5469 10.4046 13.5469 10.3552 13.5244 10.3305C13.4119 10.1995 13.2919 10.0741 13.1569 9.92591V14.5441ZM3.6 5.52812C3.45 5.18617 3.31312 4.86512 3.16687 4.54787C3.15187 4.51748 3.09188 4.49278 3.0525 4.49278C2.80313 4.48708 2.55375 4.48518 2.30625 4.49278C2.26312 4.49278 2.19937 4.53647 2.18062 4.57637C2.07937 4.78913 1.9875 5.0076 1.89375 5.22606C1.8525 5.32295 1.81313 5.41983 1.76813 5.52622H3.60187L3.6 5.52812ZM8.72437 5.52432C8.57625 5.18617 8.43563 4.85752 8.2875 4.53078C8.27625 4.50798 8.22375 4.49278 8.19 4.49088C7.93687 4.48708 7.68187 4.48708 7.42875 4.49088C7.39312 4.49088 7.335 4.51178 7.32375 4.53837C7.1775 4.85942 7.03687 5.18427 6.89062 5.52242H8.72437V5.52432ZM13.7606 3.32827V2.80775H11.2612V3.32827H13.7606ZM2.68125 3.42135C2.58375 3.64552 2.50125 3.83549 2.41313 4.03875H2.95125C2.86312 3.83549 2.77875 3.64362 2.68125 3.42135ZM7.8075 3.42135C7.71187 3.63792 7.62937 3.82979 7.53937 4.03305H8.07562C7.98562 3.82789 7.90125 3.63602 7.8075 3.42135ZM1.19625 9.88792C1.2075 9.90312 1.21875 9.92021 1.23187 9.93541C1.08187 10.0684 0.931875 10.2014 0.793125 10.3248H1.19625V9.88792ZM9.29625 9.95441V10.3286H9.72375C9.56063 10.1862 9.42188 10.0646 9.29625 9.95441Z" fill="#410EAD"/>
<path d="M11.3286 5.58154V6.60168H10.9067V5.58154H11.3286Z" fill="#410EAD"/>
<path d="M14.113 5.57715V6.59919H13.6912V5.57715H14.113Z" fill="#410EAD"/>
<path d="M12.2981 5.57568H12.7181V6.16269H12.2981V5.57568Z" fill="#410EAD"/>
<path d="M5.67187 11.4855C5.61187 11.6185 5.55749 11.7439 5.49374 11.8845C5.31937 11.7553 5.14687 11.742 4.96687 11.8921C4.90124 11.7458 4.84312 11.6185 4.78687 11.4912C5.12812 11.25 5.29874 11.2481 5.67187 11.4874V11.4855Z" fill="#410EAD"/>
<path d="M3.19702 11.97V11.5464H3.62452V11.97H3.19702Z" fill="#410EAD"/>
<path d="M3.62239 12.865H3.20239V12.4395H3.62239V12.865Z" fill="#410EAD"/>
<path d="M6.8645 12.4355H7.28825V12.863H6.8645V12.4355Z" fill="#410EAD"/>
<path d="M7.28825 11.5464V11.9719H6.8645V11.5464H7.28825Z" fill="#410EAD"/>
<path d="M3.20068 13.7518V13.3281H3.62443V13.7518H3.20068Z" fill="#410EAD"/>
<path d="M7.29013 13.3301V13.7518H6.8645V13.3301H7.29013Z" fill="#410EAD"/>
<path d="M1.06689 11.5464H1.48877V11.9738H1.06689V11.5464Z" fill="#410EAD"/>
<path d="M1.48682 12.4355V12.863H1.06494V12.4355H1.48682Z" fill="#410EAD"/>
<path d="M1.48511 13.7575H1.06323V13.3301H1.48511V13.7575Z" fill="#410EAD"/>
<path d="M9.39763 11.9738H8.97388V11.5464H9.39763V11.9738Z" fill="#410EAD"/>
<path d="M8.97559 13.3262H9.39184V13.7536H8.97559V13.3262Z" fill="#410EAD"/>
<path d="M9.3938 12.8649H8.97192V12.4375H9.3938V12.8649Z" fill="#410EAD"/>
<path d="M3.33206 9.97515H2.02893C2.02893 9.59521 2.00456 9.21907 2.03643 8.84673C2.06456 8.49908 2.38706 8.26732 2.73393 8.29012C3.06206 8.31101 3.33018 8.59597 3.33768 8.93981C3.34331 9.26086 3.33768 9.58191 3.33768 9.90296C3.33768 9.92196 3.33393 9.94095 3.33018 9.97325L3.33206 9.97515ZM2.89893 9.53062C2.89893 9.32735 2.90456 9.13548 2.89706 8.94551C2.89143 8.82013 2.79393 8.73275 2.67581 8.73845C2.55018 8.74415 2.47143 8.81633 2.46393 8.93981C2.45456 9.13548 2.46206 9.33115 2.46206 9.53252H2.89893V9.53062Z" fill="#410EAD"/>
<path d="M3.33944 8.01876H2.02131C2.02131 7.88388 2.02131 7.7528 2.02131 7.62172C2.02131 7.40326 2.01569 7.18669 2.02319 6.96823C2.03444 6.62628 2.30819 6.34513 2.63819 6.32993C2.99069 6.31283 3.30569 6.56169 3.33194 6.91314C3.35444 7.23229 3.33944 7.55524 3.34131 7.87628C3.34131 7.91998 3.34131 7.96367 3.34131 8.01876H3.33944ZM2.89694 7.57423C2.89694 7.36527 2.90444 7.1677 2.89319 6.97393C2.88756 6.85805 2.80881 6.78586 2.69069 6.77826C2.57256 6.77066 2.47881 6.83525 2.46944 6.94733C2.45256 7.1544 2.46381 7.36527 2.46381 7.57423H2.89506H2.89694Z" fill="#410EAD"/>
<path d="M8.46559 9.97514H7.16247C7.16247 9.5876 7.13434 9.20196 7.17184 8.82202C7.20559 8.47818 7.53184 8.26161 7.87309 8.29011C8.18434 8.3167 8.45247 8.58456 8.46372 8.90561C8.47497 9.25515 8.46559 9.6066 8.46559 9.97514ZM8.02684 9.52871C8.02684 9.32544 8.03434 9.12977 8.02309 8.936C8.01559 8.81442 7.93497 8.73844 7.81122 8.73654C7.69309 8.73464 7.60497 8.80302 7.59747 8.91701C7.58247 9.12027 7.59372 9.32544 7.59372 9.53061H8.02684V9.52871Z" fill="#410EAD"/>
<path d="M8.4675 8.01842H7.1625C7.15687 7.98423 7.14937 7.95193 7.14937 7.91964C7.14937 7.61378 7.14562 7.30603 7.14937 7.00018C7.155 6.62024 7.44187 6.32959 7.8075 6.32959C8.17312 6.32959 8.46 6.62024 8.46562 7.00018C8.46937 7.33453 8.46562 7.67078 8.46562 8.01842H8.4675ZM8.02687 7.57009C8.02687 7.36492 8.03437 7.17305 8.025 6.98119C8.01937 6.85771 7.9425 6.78172 7.81687 6.77602C7.69125 6.77032 7.60312 6.84251 7.59562 6.96409C7.5825 7.16356 7.59187 7.36302 7.59187 7.57009H8.02687Z" fill="#410EAD"/>
<path d="M4.59766 8.47266H5.01203V8.90389H4.59766V8.47266Z" fill="#410EAD"/>
<path d="M5.89307 8.90546H5.47119V8.47803H5.89307V8.90546Z" fill="#410EAD"/>
</svg>
