<svg width="15" height="16" viewBox="0 0 15 16" fill="none" xmlns="http://www.w3.org/2000/svg">
<path d="M13.5036 9.45125C13.836 9.51896 14.1338 9.64486 14.3871 9.85851C15.1501 10.5018 15.2056 11.6073 14.5098 12.3164C13.8225 13.0169 12.6596 13.0436 11.9442 12.3631C11.8261 12.2506 11.7515 12.2511 11.6183 12.3255C10.8874 12.7356 10.1505 13.1366 9.41615 13.541C9.34106 13.5825 9.26697 13.625 9.19538 13.6655C9.39112 14.6713 9.15934 15.3175 8.45649 15.7381C7.83224 16.112 7.02626 16.0833 6.43155 15.6665C5.79428 15.2202 5.57101 14.5158 5.80779 13.6793C5.77776 13.6584 5.74622 13.6312 5.71017 13.6116C4.91622 13.1743 4.12076 12.7394 3.3288 12.2997C3.23319 12.2468 3.17912 12.2444 3.09352 12.3269C2.53584 12.8662 1.74038 13.0065 1.04505 12.7003C0.357215 12.3975 -0.0542816 11.7198 0.00579088 10.9902C0.0648622 10.2763 0.602011 9.68111 1.36693 9.48129C1.40798 9.4708 1.44853 9.45983 1.49459 9.44743V6.54938C1.15568 6.47975 0.852813 6.35004 0.596504 6.12924C-0.153902 5.48258 -0.202961 4.38717 0.488373 3.68328C1.1757 2.98321 2.33961 2.9565 3.05397 3.63702C3.17211 3.74957 3.2467 3.74957 3.37986 3.67469C4.13778 3.24979 4.9017 2.83346 5.66312 2.41428C5.71118 2.38757 5.75773 2.35848 5.80279 2.33225C5.60555 1.32888 5.83533 0.687939 6.54168 0.263031C7.16393 -0.111327 7.97341 -0.0841438 8.56662 0.33218C9.0467 0.66934 9.51076 1.36226 9.18987 2.32128C9.23092 2.34751 9.27448 2.37899 9.32103 2.40474C10.104 2.83632 10.8879 3.26695 11.6699 3.69949C11.7515 3.7448 11.805 3.76912 11.8916 3.68662C12.4828 3.12675 13.2638 2.98845 13.9691 3.30797C14.657 3.61937 15.0655 4.30657 14.9914 5.02667C14.9163 5.75297 14.3851 6.32476 13.5967 6.5284C13.5677 6.53603 13.5386 6.54175 13.5046 6.54986V9.45077L13.5036 9.45125ZM3.50051 11.7389C4.37156 12.2177 5.24561 12.6979 6.11666 13.1772C6.85305 12.4027 8.07803 12.3503 8.884 13.1762C9.75556 12.6965 10.6296 12.2158 11.5067 11.7332C11.326 11.22 11.365 10.7355 11.6463 10.2782C11.9262 9.82274 12.3557 9.55855 12.8863 9.45077V6.54986C11.9262 6.37865 11.1167 5.45635 11.4972 4.2627C10.6261 3.78342 9.75255 3.30272 8.8815 2.82392C8.13911 3.59791 6.92064 3.65228 6.11366 2.82535C5.24211 3.30463 4.36806 3.78533 3.48899 4.26842C3.67322 4.78108 3.63016 5.26559 3.35033 5.72293C3.07099 6.17931 2.64097 6.44256 2.11133 6.55033V9.45125C3.05297 9.61387 3.88297 10.53 3.50051 11.7384V11.7389ZM8.69778 1.71373C8.69678 1.08328 8.15362 0.570624 7.49082 0.574916C6.82852 0.579208 6.29538 1.09568 6.29989 1.72899C6.30389 2.3499 6.84354 2.85921 7.49733 2.85921C8.16063 2.85921 8.69878 2.3456 8.69778 1.71373ZM11.9973 4.8507C11.9923 5.48163 12.5309 6 13.1917 6.00143C13.8475 6.00239 14.3871 5.49832 14.3947 4.87645C14.4027 4.24362 13.869 3.72191 13.2092 3.71714C12.5439 3.71237 12.0018 4.2193 11.9968 4.85118L11.9973 4.8507ZM0.602511 4.84832C0.599007 5.48163 1.13265 5.99762 1.79495 6.00143C2.45675 6.00525 2.9999 5.49116 3.0004 4.86072C3.0004 4.23599 2.46976 3.72286 1.81698 3.71714C1.15167 3.71094 0.605515 4.21978 0.602511 4.84832ZM3.0004 11.1428C3.00141 10.5128 2.46075 9.99919 1.79695 10.0006C1.14266 10.0016 0.606016 10.5109 0.602511 11.1337C0.599007 11.7661 1.13565 12.284 1.79645 12.2854C2.45975 12.2868 2.9994 11.7746 3.00091 11.1432L3.0004 11.1428ZM13.2012 12.2849C13.863 12.2821 14.3987 11.7656 14.3957 11.1332C14.3927 10.5047 13.847 9.99538 13.1822 10.0006C12.5294 10.0059 11.9973 10.5195 11.9978 11.1432C11.9983 11.7746 12.5399 12.2883 13.2017 12.2854L13.2012 12.2849ZM8.69778 14.2745C8.69478 13.646 8.14862 13.1366 7.48382 13.1424C6.83103 13.1476 6.29889 13.6612 6.29939 14.285C6.29989 14.9164 6.84204 15.43 7.50384 15.4267C8.16564 15.4233 8.70078 14.9073 8.69778 14.2745Z" fill="#410EAD"/>
<path d="M3.30067 8.00065C3.30067 7.63821 3.29867 7.27578 3.30117 6.91334C3.30267 6.67871 3.4103 6.57141 3.6541 6.57427C3.93393 6.57761 4.21928 6.56426 4.49261 6.60861C5.235 6.72974 5.74862 7.38594 5.69556 8.10699C5.6435 8.81804 5.02075 9.39698 4.27234 9.42559C4.06059 9.4337 3.84833 9.43131 3.63608 9.4275C3.41581 9.42368 3.30367 9.31734 3.30167 9.10608C3.29817 8.73744 3.30067 8.36928 3.30067 8.00065ZM3.91291 7.15322V8.8476C4.34843 8.89291 4.72389 8.81851 4.96418 8.44559C5.15291 8.1523 5.15291 7.84661 4.96368 7.55333C4.72339 7.1804 4.34743 7.10744 3.91341 7.15274L3.91291 7.15322Z" fill="#410EAD"/>
<path d="M9.2876 7.99031C9.29961 7.82483 9.2936 7.65601 9.32664 7.49482C9.44579 6.91349 9.99495 6.52435 10.6052 6.57585C11.2124 6.62736 11.6865 7.10854 11.694 7.6975C11.6975 7.97552 11.71 8.25975 11.6585 8.5311C11.5503 9.09955 10.9796 9.48154 10.3804 9.42384C9.7867 9.36661 9.32114 8.89592 9.30011 8.32938C9.29611 8.21683 9.29961 8.10381 9.29961 7.99078C9.29561 7.99078 9.2916 7.99078 9.2876 7.99031ZM11.0963 7.99365C11.0963 7.89255 11.1013 7.79144 11.0953 7.69034C11.0778 7.3818 10.8134 7.14288 10.4951 7.14383C10.1747 7.14478 9.91235 7.38275 9.90034 7.69416C9.89233 7.89588 9.89283 8.09856 9.90034 8.30076C9.91135 8.61122 10.1722 8.853 10.4905 8.85634C10.8169 8.86015 11.0823 8.61599 11.0963 8.29647C11.1008 8.19537 11.0968 8.09427 11.0963 7.99317V7.99365Z" fill="#410EAD"/>
<path d="M8.87416 9.19361C8.80007 9.26133 8.72798 9.37817 8.63036 9.40297C8.53925 9.42586 8.41761 9.35909 8.31698 9.3157C8.28094 9.29996 8.25591 9.23939 8.2454 9.19504C8.17181 8.89794 7.97357 8.8183 7.67121 8.85264C7.44343 8.87887 7.20915 8.87028 6.97937 8.85359C6.81267 8.84167 6.72556 8.89794 6.67851 9.04292C6.65648 9.11016 6.61944 9.17358 6.58439 9.23653C6.49128 9.4044 6.3406 9.46401 6.18391 9.39677C6.02071 9.32714 5.95914 9.16643 6.04374 8.99237C6.37164 8.31948 6.70454 7.64849 7.03544 6.97703C7.06998 6.90741 7.0875 6.82204 7.14157 6.77054C7.22316 6.69281 7.32979 6.58742 7.42541 6.58789C7.52102 6.58789 7.65869 6.68422 7.70475 6.77245C7.98558 7.30895 8.2454 7.85499 8.51222 8.39769C8.60483 8.58558 8.69895 8.773 8.78905 8.96232C8.81709 9.02098 8.83411 9.08393 8.87366 9.19314L8.87416 9.19361ZM7.79335 8.27703C7.6692 8.02905 7.55406 7.79871 7.4209 7.53261C7.28724 7.80491 7.17411 8.0362 7.05596 8.27703H7.79335Z" fill="#410EAD"/>
</svg>
