<svg width="15" height="16" viewBox="0 0 15 16" fill="none" xmlns="http://www.w3.org/2000/svg">
<path d="M7.25542 15.9998C6.92258 15.9203 6.60319 15.8175 6.32659 15.6092C5.65774 15.1056 5.41686 14.2198 5.75536 13.4706C6.09279 12.7232 6.94628 12.2595 7.75202 12.386C8.6483 12.5267 9.30124 13.1706 9.38507 13.9966C9.48234 14.9584 8.81454 15.7999 7.81851 15.9714C7.7934 15.9758 7.77006 15.99 7.74601 15.9998H7.25577H7.25542ZM7.49771 12.8412C6.72415 12.8419 6.09774 13.4378 6.09138 14.1789C6.08501 14.9175 6.72628 15.5317 7.50195 15.5307C8.27267 15.5297 8.90191 14.9297 8.90722 14.1904C8.91252 13.4466 8.27904 12.8405 7.49771 12.8412Z" fill="#410EAD"/>
<path d="M11.2061 11.0853C11.2096 10.0849 12.0652 9.27687 13.1161 9.28127C14.1577 9.28533 15.007 10.1113 14.9999 11.1131C14.9928 12.103 14.1365 12.9103 13.0955 12.9087C12.0486 12.907 11.2025 12.0905 11.2064 11.0857L11.2061 11.0853ZM11.6966 11.0887C11.6938 11.8308 12.3142 12.4331 13.0867 12.4392C13.8673 12.4453 14.5065 11.8443 14.5093 11.1016C14.5121 10.3639 13.8854 9.75579 13.1164 9.75004C12.3344 9.74429 11.6995 10.3433 11.6966 11.0887Z" fill="#410EAD"/>
<path d="M3.79383 11.0939C3.79383 12.0974 2.94424 12.9095 1.89515 12.9081C0.848894 12.9068 -0.00211826 12.0893 3.96064e-06 11.0882C0.00212618 10.0972 0.855614 9.28246 1.89267 9.28076C2.94141 9.27907 3.79348 10.0918 3.79348 11.0939H3.79383ZM3.30325 11.0973C3.30431 10.3573 2.67967 9.75359 1.90859 9.74987C1.12938 9.74615 0.491652 10.3502 0.490591 11.0929C0.48953 11.8309 1.11735 12.436 1.88737 12.4394C2.67082 12.4428 3.30218 11.8445 3.30325 11.0973Z" fill="#410EAD"/>
<path d="M7.50197 3.62739C6.455 3.62806 5.59904 2.81127 5.6001 1.81319C5.60116 0.815784 6.46031 -0.00202554 7.5055 3.76849e-06C8.54292 0.00203307 9.39251 0.813417 9.39853 1.80879C9.40454 2.80619 8.54893 3.62705 7.50197 3.62739ZM7.491 3.15828C8.27375 3.16132 8.90652 2.56132 8.90723 1.81522C8.90794 1.07824 8.2787 0.472493 7.50833 0.469111C6.73018 0.465729 6.09139 1.07215 6.09139 1.8142C6.09139 2.55185 6.71957 3.15523 7.491 3.15828Z" fill="#410EAD"/>
<path d="M7.5014 9.81488C6.45585 9.81556 5.59847 8.9964 5.60059 7.99866C5.60271 6.9999 6.45974 6.18581 7.5067 6.1875C8.54411 6.18919 9.39371 7.00159 9.39866 7.99629C9.40362 8.99403 8.5473 9.81421 7.50104 9.81488H7.5014ZM7.4975 9.34578C8.27778 9.34679 8.91267 8.73902 8.90772 7.99595C8.90242 7.25559 8.27495 6.65729 7.50281 6.65627C6.72431 6.6556 6.08658 7.26574 6.09188 8.00644C6.09719 8.74578 6.72572 9.34476 7.4975 9.34578Z" fill="#410EAD"/>
<path d="M1.91292 3.08744C2.96272 3.09421 3.79993 3.90898 3.79357 4.9172C3.7872 5.91325 2.91921 6.727 1.87472 6.71584C0.833419 6.70468 -0.0101649 5.87537 9.25614e-05 4.87323C0.00999627 3.88293 0.869143 3.08068 1.91292 3.08744ZM1.90408 3.55689C1.12912 3.55418 0.496339 4.14911 0.490326 4.88575C0.484313 5.62915 1.11638 6.24335 1.8917 6.24673C2.66172 6.25012 3.29768 5.6491 3.30298 4.91314C3.30829 4.16162 2.68718 3.5596 1.90408 3.55655V3.55689Z" fill="#410EAD"/>
<path d="M13.1118 3.08742C14.1588 3.09148 15.0052 3.90962 14.9999 4.91312C14.9946 5.90105 14.1337 6.71751 13.0994 6.71615C12.0549 6.71446 11.2039 5.89496 11.2061 4.89316C11.2085 3.89001 12.0595 3.08336 13.1118 3.08742ZM13.0977 3.55686C12.3209 3.55855 11.6981 4.15348 11.6966 4.89519C11.6952 5.64062 12.3291 6.24874 13.1054 6.24671C13.8737 6.24468 14.5072 5.63825 14.5093 4.90365C14.5114 4.15855 13.879 3.55517 13.0977 3.55686Z" fill="#410EAD"/>
<path d="M9.37598 9.30674C9.46051 9.16706 9.53797 9.0382 9.62109 8.90088C10.1608 9.19952 10.69 9.49242 11.2297 9.79141C11.1477 9.92838 11.073 10.0535 10.9871 10.1973C10.4488 9.89963 9.91644 9.60539 9.37598 9.30674Z" fill="#410EAD"/>
<path d="M5.37959 8.90234C5.46165 9.03797 5.53982 9.16683 5.62506 9.30753C5.08814 9.60448 4.55935 9.89738 4.01677 10.1977C3.9333 10.0611 3.85513 9.93323 3.76953 9.79355C4.31034 9.49422 4.83984 9.20099 5.37995 8.90234H5.37959Z" fill="#410EAD"/>
<path d="M4.02029 4.01074C3.93469 3.86835 3.85935 3.74321 3.77588 3.60488C4.31316 3.30792 4.8423 3.01537 5.37922 2.71875C5.46163 2.85404 5.53803 2.97918 5.62575 3.12292C5.09413 3.41683 4.5657 3.70905 4.02029 4.0104V4.01074Z" fill="#410EAD"/>
<path d="M12.8647 7.12305H13.3338V8.89192H12.8647V7.12305Z" fill="#410EAD"/>
<path d="M11.2255 3.60311C11.1417 3.74212 11.066 3.86726 10.9807 4.0083C10.4445 3.71236 9.91608 3.42048 9.37598 3.12251C9.4591 2.98384 9.53656 2.85498 9.61968 2.71631C10.1584 3.01394 10.6879 3.3065 11.2251 3.60311H11.2255Z" fill="#410EAD"/>
<path d="M5.62642 12.8827C5.53729 13.0291 5.46372 13.1499 5.3806 13.2868C4.84721 12.9926 4.31949 12.7014 3.77832 12.4027C3.8625 12.2637 3.94032 12.1359 4.02415 11.9976C4.56354 12.2955 5.09233 12.5877 5.62642 12.8827Z" fill="#410EAD"/>
<path d="M7.73588 5.79005H7.26758V4.03809H7.73588V5.79005Z" fill="#410EAD"/>
<path d="M8.26305 14.9068C8.14986 14.7989 8.04304 14.6974 7.92773 14.5875C8.08124 14.4059 8.12793 14.2019 8.04905 13.9641C8.19655 13.9036 8.33839 13.8458 8.47987 13.7876C8.67016 14.1285 8.58244 14.5929 8.26305 14.9068Z" fill="#410EAD"/>
<path d="M8.28754 13.4267C8.13403 13.5596 8.02156 13.6567 7.90483 13.7578C7.82277 13.7166 7.72374 13.6665 7.61621 13.6124C7.64557 13.4724 7.67457 13.332 7.71348 13.146C7.90837 13.2414 8.08027 13.3256 8.28754 13.4267Z" fill="#410EAD"/>
<path d="M7.08165 13.7681C6.96953 13.6643 6.85776 13.5608 6.71875 13.4323C6.90515 13.3352 7.07599 13.2459 7.27583 13.1421C7.31616 13.3254 7.34728 13.4688 7.37876 13.6119C7.27265 13.6677 7.17503 13.7191 7.08165 13.7681Z" fill="#410EAD"/>
<path d="M14.088 10.6958C14.2656 11.0908 14.1814 11.5079 13.8648 11.8177C13.7683 11.7023 13.6721 11.5867 13.5635 11.4568C13.6752 11.3178 13.7396 11.1179 13.6491 10.8747C13.7959 10.8149 13.937 10.7574 14.0877 10.6958H14.088Z" fill="#410EAD"/>
<path d="M12.6916 10.6739C12.5721 10.5667 12.4617 10.4679 12.3213 10.3424C12.5098 10.2444 12.6803 10.1557 12.8791 10.0522C12.919 10.24 12.9498 10.384 12.9795 10.5244C12.8731 10.5795 12.7793 10.6282 12.6916 10.6739Z" fill="#410EAD"/>
<path d="M13.885 10.3359C13.7392 10.4729 13.6282 10.5774 13.5217 10.6779C13.423 10.6275 13.3293 10.5795 13.2207 10.524C13.2486 10.384 13.278 10.2395 13.3151 10.0542C13.5111 10.1509 13.6837 10.2365 13.8853 10.3359H13.885Z" fill="#410EAD"/>
<path d="M2.88035 10.6996C3.06959 11.0557 2.97798 11.5191 2.66141 11.815C2.55565 11.7071 2.44954 11.5989 2.34131 11.4886C2.49977 11.2312 2.51321 11.1653 2.45662 10.8697C2.59562 10.8139 2.73852 10.7564 2.88035 10.6992V10.6996Z" fill="#410EAD"/>
<path d="M1.7744 10.5252C1.66864 10.5796 1.5788 10.626 1.48047 10.6767C1.37754 10.5736 1.26754 10.463 1.13525 10.3304C1.30751 10.2424 1.48012 10.1545 1.67784 10.0537C1.71639 10.2411 1.7461 10.3858 1.77475 10.5248L1.7744 10.5252Z" fill="#410EAD"/>
<path d="M2.10971 10.0483C2.31521 10.1532 2.48393 10.2391 2.67351 10.3355C2.53062 10.4576 2.41496 10.5563 2.28232 10.67C2.31061 10.674 2.29894 10.6754 2.29116 10.6707C2.20203 10.6169 2.04923 10.5716 2.03862 10.5059C2.01775 10.3757 2.0754 10.234 2.10971 10.0483Z" fill="#410EAD"/>
<path d="M8.27113 2.52093C8.1636 2.4198 8.05608 2.31902 7.93652 2.20639C8.08048 2.0366 8.12929 1.83232 8.05006 1.59557C8.19331 1.53604 8.33161 1.47855 8.46849 1.42139C8.68425 1.7065 8.58097 2.2578 8.27148 2.52093H8.27113Z" fill="#410EAD"/>
<path d="M8.2864 1.05765C8.1343 1.19463 8.02784 1.29068 7.91536 1.39181C7.82658 1.34818 7.72754 1.29914 7.61719 1.24502C7.64478 1.10737 7.67307 0.965995 7.71092 0.774902C7.90687 0.870956 8.08231 0.957202 8.2864 1.05731V1.05765Z" fill="#410EAD"/>
<path d="M7.27704 0.771484C7.31701 0.958519 7.34814 1.10294 7.3782 1.24397C7.27386 1.29775 7.17977 1.34612 7.08003 1.39752C6.9771 1.29606 6.86957 1.18986 6.7334 1.05593C6.90848 0.964268 7.08074 0.874302 7.27704 0.771484Z" fill="#410EAD"/>
<path d="M8.07611 7.76732C8.20592 7.71524 8.34422 7.65977 8.48146 7.60498C8.66998 7.95368 8.57802 8.42651 8.27702 8.70655C8.16772 8.60306 8.05843 8.49957 7.9502 8.39709C7.9891 8.30915 8.04959 8.21411 8.07116 8.11163C8.09274 8.00847 8.07611 7.89822 8.07611 7.76766V7.76732Z" fill="#410EAD"/>
<path d="M7.61719 7.43106C7.64478 7.29341 7.67307 7.15237 7.71127 6.96094C7.90722 7.05733 8.08266 7.14358 8.29135 7.24639C8.13642 7.36984 8.0197 7.46251 7.89025 7.56567C7.82623 7.53422 7.72719 7.48517 7.61719 7.43106Z" fill="#410EAD"/>
<path d="M7.27681 6.95557C7.31749 7.14564 7.34755 7.286 7.37797 7.42839C7.27504 7.48251 7.17777 7.53358 7.07838 7.586C6.96944 7.48386 6.85873 7.37969 6.71973 7.24948C6.90577 7.15139 7.07555 7.06177 7.27681 6.95557Z" fill="#410EAD"/>
<path d="M2.44712 4.67595C2.60345 4.61338 2.74281 4.55791 2.88111 4.50244C3.06787 4.86332 2.97838 5.31755 2.66429 5.61721C2.56278 5.51134 2.46126 5.40514 2.34277 5.28136C2.47647 5.12409 2.53024 4.9171 2.44676 4.67561L2.44712 4.67595Z" fill="#410EAD"/>
<path d="M2.67582 4.13694C2.60897 4.20526 2.5736 4.2428 2.53682 4.27933C2.46572 4.34968 2.39392 4.41969 2.32636 4.48598C2.21848 4.42984 2.12475 4.38113 2.01758 4.32566C2.04446 4.18936 2.0724 4.04833 2.11025 3.85791C2.30726 3.95498 2.48234 4.04156 2.67582 4.13694Z" fill="#410EAD"/>
<path d="M1.12695 4.1416C1.30381 4.04961 1.47464 3.96065 1.67661 3.85547C1.71622 4.04352 1.74629 4.18692 1.77423 4.31984C1.75725 4.33709 1.75442 4.34216 1.75018 4.34419C1.53772 4.44453 1.32998 4.377 1.12695 4.1416Z" fill="#410EAD"/>
<path d="M13.5303 5.2953C13.6873 5.11435 13.7344 4.91041 13.6509 4.67704C13.7998 4.61649 13.9381 4.56069 14.0753 4.50488C14.2805 4.82078 14.1825 5.33149 13.8624 5.61829C13.7531 5.51176 13.6438 5.40522 13.5303 5.29496V5.2953Z" fill="#410EAD"/>
<path d="M13.8892 4.14344C13.7385 4.27602 13.6268 4.37444 13.5118 4.47523C13.4269 4.43194 13.3325 4.38391 13.2207 4.32743C13.2476 4.19012 13.2762 4.04434 13.3134 3.85596C13.5097 3.95404 13.6826 4.04062 13.8888 4.14344H13.8892Z" fill="#410EAD"/>
<path d="M12.6798 4.4829C12.567 4.37771 12.4591 4.27692 12.3184 4.1457C12.5097 4.04795 12.683 3.95968 12.8804 3.85889C12.9207 4.04896 12.9501 4.18899 12.9794 4.32698C12.8716 4.38312 12.7743 4.43386 12.6798 4.4829Z" fill="#410EAD"/>
</svg>
