<svg width="16" height="15" viewBox="0 0 16 15" fill="none" xmlns="http://www.w3.org/2000/svg">
<path d="M0 5.83177C0.0559539 5.65648 0.0907784 5.47022 0.172166 5.30745C0.482455 4.68491 0.996213 4.36445 1.69035 4.33941C1.92434 4.3308 2.15912 4.33315 2.3931 4.34019C2.49445 4.34332 2.5641 4.31202 2.63531 4.2408C3.88586 2.98634 5.13876 1.73345 6.39204 0.482114C7.03688 -0.161942 7.91571 -0.159986 8.56407 0.483679C8.8098 0.727841 9.06061 0.967699 9.29656 1.22086C9.41277 1.34568 9.51803 1.38285 9.69763 1.36016C10.3534 1.27838 10.8582 1.53898 11.1923 2.11182C11.6071 2.82357 12.018 3.53766 12.4272 4.25254C12.4761 4.33823 12.5344 4.38832 12.6315 4.41806C13.3374 4.63366 13.8186 5.27576 13.8261 6.01607C13.8323 6.64565 13.8276 7.27483 13.828 7.90441C13.828 7.95763 13.828 8.01123 13.828 8.08636C13.9294 8.08636 14.0245 8.08519 14.1199 8.08636C14.611 8.0938 14.9929 8.46904 14.9984 8.95932C15.0039 9.42769 15.0031 9.89606 14.9984 10.3648C14.9941 10.8645 14.6157 11.2401 14.1156 11.2491C14.0241 11.2507 13.9329 11.2491 13.8276 11.2491C13.8276 11.3986 13.8276 11.534 13.8276 11.6694C13.8276 12.1964 13.8284 12.7235 13.8276 13.2506C13.8265 14.1396 13.2618 14.8137 12.3858 14.9757C12.3678 14.9793 12.3509 14.991 12.3337 14.9988H8.14422C8.11292 14.9769 8.07927 14.9573 8.0507 14.9323C7.95797 14.8521 7.91689 14.7507 7.95093 14.631C7.98614 14.5074 8.07262 14.433 8.20135 14.4158C8.24948 14.4095 8.29878 14.4127 8.34769 14.4127C9.57789 14.4127 10.8081 14.4127 12.0383 14.4127C12.7802 14.4127 13.2419 13.949 13.2419 13.2052C13.2419 12.5705 13.2419 11.9362 13.2411 11.3016C13.2411 11.2918 13.2384 11.2824 13.2337 11.2491C13.1863 11.2491 13.1351 11.2491 13.0842 11.2491C12.4057 11.2491 11.7268 11.2566 11.0483 11.2464C10.1633 11.2331 9.47342 10.5053 9.49338 9.62255C9.51216 8.79615 10.1926 8.10397 11.0202 8.08949C11.7034 8.07736 12.3869 8.08636 13.0705 8.08558C13.1229 8.08558 13.1754 8.08558 13.2423 8.08558V7.94432C13.2423 7.32453 13.2435 6.70473 13.2423 6.08454C13.2407 5.39979 12.7653 4.92242 12.0825 4.92203C8.63607 4.92125 5.18923 4.92125 1.74279 4.92203C1.06743 4.92203 0.586929 5.39979 0.586929 6.0732C0.585755 8.46982 0.585364 10.8661 0.586929 13.2627C0.58732 13.9279 1.06665 14.4095 1.73105 14.4111C3.00507 14.4138 4.27949 14.4115 5.55352 14.4123C5.72725 14.4123 5.83877 14.4898 5.87829 14.6294C5.91507 14.7601 5.85872 14.8779 5.7159 14.9699C5.70416 14.9773 5.69477 14.9882 5.68421 14.9976H1.49432C1.47202 14.989 1.45089 14.9761 1.4278 14.9722C0.700793 14.8462 0.15534 14.3062 0.0269987 13.5859C0.021912 13.5577 0.00939079 13.5311 0.00039122 13.5037C0.00039122 10.9455 0.00039122 8.38765 0.00039122 5.82943L0 5.83177ZM11.7941 4.33471C11.7703 4.28737 11.7566 4.25763 11.7401 4.22907C11.3895 3.6214 11.0401 3.01295 10.6868 2.40646C10.4062 1.92478 9.90305 1.78979 9.42021 2.0676C8.15322 2.79696 6.8878 3.52906 5.62199 4.26037C5.59265 4.27719 5.56682 4.30028 5.52104 4.33432H11.7941V4.33471ZM12.5587 8.6729C12.0759 8.6729 11.593 8.67172 11.1102 8.6729C10.5272 8.67485 10.0811 9.1037 10.0787 9.66246C10.0764 10.2271 10.5236 10.6622 11.1141 10.6638C12.0943 10.6661 13.0748 10.6649 14.055 10.6638C14.3062 10.6638 14.413 10.5573 14.4138 10.3096C14.415 9.88549 14.4146 9.46134 14.4138 9.03679C14.4134 8.77502 14.3117 8.6729 14.0511 8.67251C13.5537 8.67173 13.056 8.67251 12.5587 8.67251V8.6729ZM3.36349 4.33784C3.64522 4.33784 3.88782 4.34723 4.12924 4.33393C4.24506 4.32767 4.37144 4.30106 4.47044 4.24433C5.91663 3.41597 7.35891 2.58136 8.80197 1.74792C8.83836 1.72679 8.87319 1.70253 8.92327 1.66967C8.65563 1.40281 8.39856 1.14456 8.13992 0.888268C7.73181 0.483288 7.21844 0.485244 6.80876 0.894138C6.16314 1.53859 5.51869 2.18382 4.87346 2.82865C4.38044 3.32167 3.88703 3.81469 3.36349 4.33823V4.33784Z" fill="#410EAD"/>
<path d="M6.82647 14.9999C6.79947 14.9807 6.7713 14.9627 6.74508 14.9428C6.59991 14.8317 6.58074 14.6391 6.70086 14.5092C6.81708 14.3836 7.01076 14.3836 7.12737 14.5092C7.24788 14.6391 7.22832 14.8317 7.08315 14.9428C7.05693 14.9627 7.02915 14.9811 7.00176 14.9999H6.82608H6.82647Z" fill="#410EAD"/>
<path d="M11.3135 9.6752C11.3104 9.83641 11.1816 9.9624 11.022 9.96044C10.8655 9.95849 10.7328 9.82506 10.7324 9.66894C10.732 9.50734 10.8737 9.37078 11.0353 9.37665C11.1957 9.38252 11.3166 9.51203 11.3135 9.67481V9.6752Z" fill="#410EAD"/>
</svg>
