<svg width="16" height="15" viewBox="0 0 16 15" fill="none" xmlns="http://www.w3.org/2000/svg">
<path d="M10.9399 7.7426H10.4115V3.00172H10.2247C7.29537 3.00172 4.36646 3.00172 1.4371 3.00172C0.874448 3.00172 0.553313 3.30554 0.552868 3.8368C0.552868 4.1331 0.552868 4.42983 0.552868 4.73865H0C0.0222393 4.30171 -0.00533738 3.85474 0.0796166 3.4274C0.193482 2.8569 0.753022 2.50259 1.40953 2.50259C3.97238 2.50176 6.53568 2.50259 9.09853 2.50259C9.52953 2.50259 9.96097 2.50259 10.4 2.50259V2.00263C10.2412 2.00263 10.0828 2.00054 9.9245 2.00346C9.79017 2.00597 9.68431 1.9659 9.63005 1.84321C9.57801 1.72552 9.62694 1.63204 9.71589 1.54815C10.2301 1.06614 10.7429 0.582866 11.2584 0.102517C11.407 -0.0356197 11.5422 -0.0339505 11.693 0.106273C12.2085 0.587039 12.7213 1.06989 13.235 1.55233C13.3244 1.63621 13.3685 1.73178 13.3138 1.84863C13.2599 1.9634 13.1603 2.00471 13.0322 2.00304C12.873 2.00096 12.7133 2.00263 12.547 2.00263V2.49341C12.595 2.49633 12.6426 2.50176 12.6902 2.50217C12.9731 2.50301 13.2559 2.50217 13.5388 2.50259C14.3697 2.50468 14.935 3.03636 14.9359 3.82011C14.9372 5.29829 14.9359 6.7769 14.9359 8.25509V8.74253H14.403V8.56266C14.403 7.00643 14.403 5.44978 14.403 3.89356C14.403 3.283 14.1068 3.00255 13.4614 3.00255C13.1621 3.00255 12.8632 3.00255 12.5456 3.00255V7.49095H12.0056V7.32026C12.0056 5.50362 12.0056 3.68698 12.0056 1.87033C12.0056 1.57945 12.071 1.51477 12.341 1.50016C12.0546 1.2314 11.7499 0.945527 11.4568 0.670505C11.1855 0.925495 10.8817 1.21095 10.5792 1.49515C10.601 1.49682 10.6464 1.49933 10.6913 1.50517C10.8363 1.52395 10.9195 1.60241 10.9382 1.73887C10.9422 1.76976 10.9404 1.80106 10.9404 1.83236C10.9404 3.75834 10.9404 5.68432 10.9404 7.61031V7.74386L10.9399 7.7426Z" fill="#410EAD"/>
<path d="M4.54763 9.49275H5.08048V9.32498C5.08048 8.16939 5.08048 7.0138 5.08048 5.85779C5.08048 5.57234 5.15788 5.50097 5.46567 5.50097C5.93714 5.50097 6.40906 5.50014 6.88053 5.50097C7.11805 5.50181 7.21056 5.58945 7.21101 5.81523C7.2119 6.98125 7.21101 8.14727 7.21101 9.31371C7.21101 9.36964 7.21101 9.42598 7.21101 9.49066H7.74386V9.31455C7.74386 7.58095 7.74386 5.84736 7.74386 4.11376C7.74386 3.82414 7.81992 3.75152 8.12326 3.75152C8.60585 3.75152 9.08889 3.74985 9.57148 3.75236C9.76941 3.75319 9.87349 3.84667 9.87394 4.02905C9.87527 5.41918 9.87394 6.80889 9.87305 8.19902C9.87305 8.20862 9.86816 8.21864 9.86282 8.23909H9.34865V4.26359H8.28116V9.99021H1.36475V9.50318H2.41666C2.41666 9.43057 2.41666 9.37506 2.41666 9.31956C2.41666 8.73655 2.41622 8.15353 2.41666 7.57052C2.41666 7.33515 2.50696 7.25085 2.75737 7.25043C3.23996 7.24959 3.72255 7.24959 4.20559 7.25043C4.45601 7.25085 4.54674 7.33556 4.54719 7.5701C4.54808 8.20487 4.54763 8.84004 4.54763 9.49275ZM6.66659 9.49275V6.01387H5.62179V9.49275H6.66659ZM2.96331 7.75665V9.49108H4.0041V7.75665H2.96331Z" fill="#410EAD"/>
<path d="M4.5559 14.9866V14.4996H5.14746C5.36052 13.8339 5.57001 13.1779 5.78751 12.4985H5.59803C4.21653 12.4985 2.83547 12.4985 1.45396 12.4985C0.576848 12.4985 0.019976 11.976 0.0195312 11.153C0.0195312 9.24786 0.0195312 7.34274 0.0195312 5.43762V5.26025H0.543489V10.494H8.00032V10.9952H0.580406C0.434071 11.534 0.812584 11.9977 1.39392 11.9981C3.61295 11.9997 5.83199 11.9989 8.05102 11.9989C8.1173 11.9989 8.18357 11.9989 8.26319 11.9989V12.4989H7.99053C7.4857 12.4989 6.98087 12.4993 6.47604 12.4985C6.40131 12.4985 6.34082 12.4959 6.3128 12.5865C6.11843 13.21 5.91828 13.8314 5.72035 14.4541C5.71768 14.4632 5.72213 14.4741 5.72435 14.4916H9.24572C9.15009 14.1882 9.05668 13.8907 8.95705 13.5743C9.12563 13.5251 9.28619 13.4783 9.46188 13.427C9.57886 13.788 9.69273 14.1394 9.8097 14.5008H10.3999V14.9874H4.5559V14.9866Z" fill="#410EAD"/>
<path d="M13.3655 13.5923C11.6757 14.4687 9.89035 13.8164 9.07595 12.6658C8.22463 11.4631 8.39943 9.85842 9.50295 8.8489C10.598 7.8473 12.3024 7.71751 13.5532 8.52588C14.779 9.31839 15.4133 10.9802 14.497 12.5298C14.8306 12.8423 15.1677 13.1574 15.5044 13.4733C15.5947 13.5581 15.6877 13.6403 15.774 13.7279C16.0804 14.0397 16.0738 14.4929 15.7606 14.7817C15.4515 15.0671 14.9734 15.0767 14.6509 14.7863C14.243 14.4186 13.8485 14.0384 13.4477 13.6636C13.4206 13.6382 13.3913 13.6152 13.3655 13.5927V13.5923ZM11.7393 8.50042C10.2546 8.5046 9.07017 9.62555 9.07506 11.0211C9.07995 12.3874 10.2831 13.5005 11.7531 13.498C13.2102 13.4955 14.4085 12.3616 14.4014 10.9919C14.3943 9.6147 13.1987 8.49625 11.7393 8.50042ZM13.8151 13.2976C14.2141 13.6728 14.6131 14.0526 15.0183 14.4269C15.1322 14.5321 15.2878 14.5242 15.391 14.4282C15.4942 14.3322 15.504 14.1857 15.3919 14.0789C14.9934 13.6979 14.5882 13.3231 14.1874 12.9475C14.062 13.0656 13.9415 13.1787 13.8151 13.2976Z" fill="#410EAD"/>
<path d="M13.0791 0.497273V0.0160895C13.8908 -0.0435889 14.6812 0.693001 14.6608 1.49219H14.1421C14.1217 1.22927 14.0283 0.990976 13.8255 0.799003C13.6213 0.606196 13.3682 0.516887 13.0791 0.497273Z" fill="#410EAD"/>
<path d="M1.35449 3.98908V3.51416H1.87267V3.98908H1.35449Z" fill="#410EAD"/>
<path d="M2.42871 3.50781H2.93977V3.994H2.42871V3.50781Z" fill="#410EAD"/>
<path d="M4.00805 3.50928V3.99171H3.49121V3.50928H4.00805Z" fill="#410EAD"/>
<path d="M11.7598 9.00002C12.9176 9.00503 13.8716 9.91023 13.869 10.9999C13.8663 12.1087 12.906 13.0031 11.7247 12.9972C10.546 12.9914 9.59903 12.087 9.60748 10.9748C9.61593 9.87934 10.5793 8.9946 11.7594 9.00002H11.7598ZM10.1408 11.0028C10.1421 11.8216 10.8564 12.4956 11.7255 12.4985C12.6147 12.5014 13.3352 11.8287 13.3361 10.9949C13.337 10.1723 12.6133 9.49707 11.734 9.49999C10.8524 9.50291 10.1394 10.1756 10.1403 11.0028H10.1408Z" fill="#410EAD"/>
<path d="M11.7335 10.0077V10.4902C11.423 10.5315 11.2425 10.6943 11.1989 10.9914H10.6909C10.6358 10.5469 11.1059 9.9898 11.7335 10.0077Z" fill="#410EAD"/>
</svg>
