<svg width="15" height="15" viewBox="0 0 15 15" fill="none" xmlns="http://www.w3.org/2000/svg">
<path d="M0 7.06524C0.0399107 6.77471 0.0614311 6.47986 0.12208 6.19365C0.75126 3.22387 2.48855 1.20666 5.37816 0.32603C9.48387 -0.925729 13.7238 1.54516 14.7744 5.71441C15.7858 9.7272 13.2969 13.8835 9.30036 14.8534C9.11098 14.8994 8.91925 14.9355 8.72753 14.9721C8.55575 15.0051 8.43015 14.9316 8.39924 14.7857C8.36598 14.6308 8.45324 14.5109 8.6344 14.4799C9.52809 14.3265 10.3725 14.0329 11.1425 13.5497C12.9741 12.4005 14.0842 10.7533 14.4081 8.60871C14.9137 5.26151 13.059 2.07983 9.89159 0.944833C7.35217 0.0347133 5.00057 0.489577 2.93265 2.22765C1.58821 3.35793 0.776693 4.83181 0.574792 6.58011C0.240247 9.47519 1.31197 11.7676 3.69135 13.4286C4.52008 14.0069 5.45563 14.3399 6.45457 14.4901C6.70499 14.5278 6.80242 14.6289 6.77621 14.8003C6.75273 14.9512 6.58839 15.0248 6.38336 14.9925C3.26602 14.5035 0.803691 12.1686 0.157686 9.06593C0.0950813 8.76479 0.0708219 8.45539 0.0277809 8.14992C0.0211291 8.10195 0.00978196 8.05478 0.000391215 8.00721C0.000391215 7.69348 0.000391215 7.37936 0.000391215 7.06564L0 7.06524Z" fill="#410EAD"/>
<path d="M7.50853 1.32081C10.4079 1.32356 12.9262 3.36671 13.5425 6.21619C14.2824 9.63573 12.0697 12.9939 8.64638 13.6473C5.25553 14.2944 1.9899 12.0087 1.40181 8.57661C0.982743 6.13167 2.06268 3.66039 4.13334 2.32331C4.24329 2.25216 4.36185 2.19436 4.46593 2.2954C4.52579 2.35359 4.57236 2.46799 4.56023 2.54701C4.54888 2.6221 4.46436 2.70152 4.39237 2.74948C3.52294 3.32897 2.84994 4.08262 2.3894 5.02419C0.746409 8.38475 2.75486 12.4376 6.41451 13.1476C9.54476 13.7551 12.5439 11.6773 13.0964 8.51921C13.6395 5.41418 11.5685 2.44794 8.48438 1.90973C7.54727 1.74618 6.62893 1.8138 5.72624 2.10984C5.52082 2.17707 5.37331 2.12045 5.33301 1.96123C5.29623 1.81616 5.36861 1.70176 5.54039 1.64357C6.17896 1.42735 6.83474 1.31648 7.50892 1.32041L7.50853 1.32081Z" fill="#410EAD"/>
<path d="M4.78016 6.97707C4.65612 6.53085 4.51722 6.0925 4.41431 5.64589C4.2934 5.12184 4.24645 4.58913 4.39748 4.05996C4.60291 3.33973 5.31543 2.94227 5.9673 3.18051C6.27602 3.29334 6.48771 3.52018 6.65087 3.79617C6.94355 4.29192 7.0578 4.84192 7.1165 5.40568C7.1431 5.65808 7.15015 5.91244 7.16697 6.17585H7.8298C7.84624 5.9207 7.85406 5.6624 7.88067 5.40608C7.93936 4.84231 8.05361 4.29192 8.34629 3.79656C8.5255 3.49306 8.76222 3.25049 9.11281 3.15338C9.66921 2.99966 10.269 3.29373 10.5167 3.83981C10.6768 4.19245 10.7085 4.56751 10.6822 4.94767C10.6298 5.70879 10.4107 6.42824 10.1239 7.12921C10.0562 7.29433 9.92785 7.35605 9.78816 7.30101C9.64456 7.24401 9.59526 7.10602 9.66569 6.93225C9.88637 6.38578 10.0617 5.82674 10.1481 5.24214C10.1971 4.91072 10.2256 4.57734 10.1321 4.24985C10.0965 4.12522 10.0421 3.99824 9.9658 3.89445C9.71108 3.5477 9.22433 3.52411 8.93517 3.84059C8.66519 4.13623 8.55524 4.50893 8.46798 4.88792C8.35686 5.37345 8.33142 5.86723 8.34473 6.36377C8.35216 6.6429 8.26451 6.71917 7.98905 6.71287C7.65333 6.70541 7.31722 6.70776 6.98111 6.71366C6.74282 6.71759 6.64618 6.63346 6.65244 6.39522C6.66887 5.77445 6.63718 5.15761 6.43841 4.56515C6.36171 4.33634 6.2545 4.10871 6.11755 3.91096C5.75601 3.38887 5.11079 3.63773 4.93667 4.03991C4.80598 4.34224 4.78994 4.65636 4.81889 4.97716C4.87837 5.63685 5.06697 6.26352 5.30956 6.87563C5.40699 7.12095 5.37725 7.1815 5.1687 7.34229C4.95349 7.50859 4.73203 7.67882 4.55713 7.88483C3.90173 8.65656 3.92638 9.62722 4.60564 10.3785C5.11392 10.9407 5.7654 11.2493 6.49201 11.4019C7.59425 11.6326 8.65658 11.5202 9.65356 10.9678C10.048 10.7492 10.3853 10.4595 10.6228 10.0703C11.0058 9.44206 11.0152 8.80438 10.6455 8.16435C10.6259 8.13054 10.6024 8.09869 10.584 8.0641C10.5124 7.92925 10.5441 7.79047 10.6627 7.71656C10.7801 7.64344 10.9213 7.6741 11.0074 7.80187C11.2156 8.11088 11.3541 8.44938 11.3936 8.82168C11.5008 9.82969 11.0414 10.5704 10.2765 11.1538C9.66374 11.6208 8.95786 11.8689 8.20113 11.9668C7.16971 12.0997 6.17781 11.9637 5.24422 11.4844C4.85841 11.2863 4.51448 11.0303 4.22532 10.7044C3.34259 9.709 3.36998 8.38254 4.29732 7.41738C4.45226 7.25619 4.62795 7.11545 4.78016 6.97746V6.97707Z" fill="#410EAD"/>
<path d="M6.97198 8.70466C6.97198 8.78289 6.97589 8.86112 6.9712 8.93857C6.9622 9.07775 6.85734 9.17918 6.72743 9.18075C6.60496 9.18193 6.48797 9.08797 6.47975 8.95823C6.46919 8.78839 6.46879 8.61659 6.47975 8.44676C6.48836 8.31427 6.60183 8.2262 6.72939 8.22856C6.86242 8.23092 6.96259 8.32881 6.9712 8.47074C6.97589 8.54858 6.97198 8.62681 6.97198 8.70466Z" fill="#410EAD"/>
<path d="M8.02444 8.69464C8.02444 8.6164 8.01974 8.53817 8.02561 8.46072C8.03539 8.32744 8.13517 8.23348 8.26234 8.22916C8.38989 8.22483 8.5061 8.31133 8.5151 8.44303C8.52684 8.61758 8.52723 8.7945 8.51471 8.96905C8.50532 9.09721 8.3805 9.18803 8.25842 9.18095C8.1336 9.17387 8.03422 9.07598 8.02522 8.9435C8.01974 8.86094 8.02405 8.77759 8.02444 8.69464Z" fill="#410EAD"/>
</svg>
