<svg width="19" height="15" viewBox="0 0 19 15" fill="none" xmlns="http://www.w3.org/2000/svg">
<path d="M0 9.40233C0.116978 9.23826 0.21512 9.05524 0.354403 8.91361C1.8538 7.39559 3.35964 5.88456 4.86301 4.37053C5.0013 4.2314 5.14653 4.11371 5.35223 4.09525C5.73588 4.06134 6.06252 4.30371 6.08929 4.6892C6.11705 5.09164 6.10416 5.49708 6.10713 5.90102C6.10912 6.19873 6.10713 6.49645 6.10713 6.81911C6.20379 6.81911 6.28211 6.81911 6.36042 6.81911C8.70989 6.81911 11.0599 6.82858 13.4093 6.81262C13.9947 6.80863 14.2867 7.15872 14.2505 7.66938C14.2306 7.95263 14.247 8.23888 14.247 8.48972C15.2547 7.47588 16.2733 6.45107 17.2716 5.44671C16.2887 4.45681 15.2656 3.42651 14.247 2.4007C14.247 2.67548 14.247 2.98317 14.247 3.29087C14.246 3.81798 13.9858 4.08628 13.4629 4.08678C11.7191 4.08877 9.97533 4.08927 8.23157 4.08678C7.68782 4.08578 7.35225 3.67685 7.49501 3.20509C7.58522 2.90588 7.84197 2.72336 8.18795 2.72236C8.9607 2.71986 9.73394 2.72136 10.5067 2.72136C11.2239 2.72136 11.9412 2.72136 12.6584 2.72136H12.878C12.8819 2.64406 12.8879 2.57873 12.8879 2.51291C12.8889 1.92196 12.8839 1.33101 12.8899 0.740059C12.8948 0.275777 13.1932 -0.0418891 13.6076 0.00448922C13.7667 0.0219434 13.9496 0.103729 14.0626 0.215934C15.6398 1.78731 17.2086 3.36766 18.7754 4.94951C19.0837 5.26119 19.0723 5.65466 18.7551 5.97432C17.2047 7.53722 15.6507 9.09763 14.1003 10.6605C13.8723 10.8904 13.6106 10.9772 13.3082 10.854C13.0098 10.7328 12.8899 10.4825 12.8889 10.1698C12.8869 9.57887 12.8889 8.98792 12.8879 8.39697C12.8879 8.33064 12.8824 8.26432 12.8785 8.17854H12.6445C10.2762 8.17854 7.9079 8.17854 5.53959 8.17854C5.0008 8.17854 4.749 7.92122 4.74851 7.37615C4.74851 7.1273 4.74851 6.87845 4.74851 6.6296V6.48099C3.72495 7.51229 2.70586 8.53959 1.70113 9.55194C2.69594 10.5528 3.71752 11.5806 4.7376 12.6069C4.73909 12.5915 4.74801 12.5476 4.74851 12.5037C4.74999 12.205 4.74504 11.9063 4.75049 11.608C4.75792 11.2285 5.00031 10.9647 5.37354 10.9213C5.43451 10.9144 5.49697 10.9119 5.55843 10.9119C7.28336 10.9119 9.00878 10.9104 10.7337 10.9134C10.8497 10.9134 10.9706 10.9243 11.0802 10.9597C11.3796 11.056 11.5684 11.3687 11.5278 11.6739C11.4846 11.998 11.2348 12.2429 10.9121 12.2738C10.8447 12.2803 10.7763 12.2783 10.7084 12.2783C9.24918 12.2783 7.78993 12.2783 6.33068 12.2783H6.10763C6.10763 12.3611 6.10763 12.4274 6.10763 12.4932C6.10763 13.0717 6.1111 13.6502 6.10664 14.2287C6.10267 14.7159 5.8018 15.0465 5.38048 14.9947C5.22137 14.9747 5.04095 14.8909 4.92744 14.7777C3.35469 13.2103 1.79085 11.6345 0.228999 10.0556C0.132343 9.95787 0.0753416 9.82123 0 9.70254C0 9.6028 0 9.50356 0 9.40382V9.40233Z" fill="#410EAD"/>
</svg>
