<svg width="15" height="18" viewBox="0 0 15 18" fill="none" xmlns="http://www.w3.org/2000/svg">
<path d="M1.38935 17.9994C1.00673 17.921 0.661116 17.7812 0.396419 17.4883C0.109141 17.1707 0 16.7989 0 16.3872C0.000627245 13.8096 0 11.2325 0 8.65484C0 6.30559 0 3.95695 0 1.6077C0 0.954392 0.269088 0.441511 0.89696 0.159457C1.12026 0.0588091 1.38872 0.00878638 1.63711 0.00758102C4.28283 -0.00326723 6.92917 0.000348948 9.57489 0.00155431C10.5772 0.00155431 11.2358 0.632561 11.2365 1.59745C11.2383 4.43246 11.239 7.26807 11.2327 10.1031C11.2327 10.2935 11.2848 10.4279 11.4278 10.5617C12.0644 11.159 12.6898 11.7671 13.3252 12.377C13.1715 12.5132 13.026 12.6422 12.8309 12.8157C12.8146 12.788 12.7939 12.7199 12.7481 12.6759C11.7891 11.7502 10.8275 10.8263 9.86468 9.9042C9.45759 9.51486 8.95015 9.4341 8.52112 9.68361C8.02371 9.9729 7.88948 10.6371 8.25015 11.0764C8.37811 11.2319 8.5299 11.3699 8.67605 11.5103C9.26064 12.0751 9.84774 12.638 10.4336 13.2015C10.66 13.419 10.6732 13.5034 10.4982 13.7674C9.95563 14.5822 9.59183 15.4663 9.4576 16.4234C9.38484 16.9435 9.39361 17.4739 9.36602 18H1.38997L1.38935 17.9994ZM0.634144 15.0023H8.41449V15.6086H0.624109C0.624109 15.8749 0.624109 16.1202 0.624109 16.3655C0.624736 17.0387 0.997947 17.4009 1.69293 17.4009C3.9736 17.4009 6.25426 17.4009 8.53492 17.4009C8.60015 17.4009 8.66538 17.4009 8.74504 17.4009C8.77076 16.0033 9.15652 14.7208 9.91423 13.5281C9.85151 13.4757 9.79819 13.4365 9.75115 13.3913C9.15526 12.8206 8.56001 12.2492 7.96538 11.6767C7.49369 11.2217 7.2936 10.6792 7.4962 10.0573C7.86063 8.93991 9.22363 8.58312 10.152 9.34672C10.3012 9.46966 10.4411 9.60406 10.6042 9.75051V2.41107H0.634144V15.0029V15.0023ZM10.6042 1.7873C10.7083 0.945352 10.1469 0.585552 9.47077 0.590976C6.87523 0.610864 4.27969 0.59881 1.68415 0.599413C0.947767 0.599413 0.531904 1.07071 0.644181 1.7873H10.6048H10.6042Z" fill="#410EAD"/>
<path d="M14.3777 17.9993C14.3733 17.9233 14.3657 17.848 14.3657 17.7721C14.3651 15.4638 14.3582 13.1561 14.3695 10.8479C14.3733 10.0903 14.1054 9.47436 13.5096 8.97353C12.9137 8.47271 12.3397 7.94777 11.7407 7.42043C11.8812 7.27337 12.0155 7.13295 12.161 6.98047C12.2218 7.0329 12.2758 7.0781 12.3285 7.12391C12.8767 7.60665 13.4199 8.09543 13.9743 8.57155C14.6612 9.16157 14.9936 9.89383 14.9917 10.7768C14.988 13.1079 14.9905 15.4397 14.9911 17.7709C14.9911 17.8468 14.9967 17.9227 14.9999 17.9987H14.3777V17.9993Z" fill="#410EAD"/>
<path d="M9.98889 4.20028C9.98889 4.40519 9.99453 4.6107 9.98763 4.81501C9.97759 5.11876 9.76433 5.36887 9.45134 5.38394C8.97777 5.40624 8.50106 5.40564 8.02749 5.38274C7.7239 5.36827 7.50688 5.11936 7.50123 4.82465C7.49308 4.4088 7.49308 3.99296 7.50123 3.57711C7.50688 3.283 7.72077 3.03409 8.02686 3.01842C8.50671 2.99431 8.98906 2.99431 9.4689 3.01963C9.77311 3.0359 9.97446 3.28782 9.98889 3.58434C9.98889 3.59579 9.99014 3.60784 9.99014 3.61929C9.99014 3.81275 9.99014 4.00561 9.99014 4.19907C9.99014 4.19907 9.98951 4.19907 9.98889 4.19907V4.20028ZM9.35411 4.7903V3.61327H8.1291V4.7903H9.35411Z" fill="#410EAD"/>
<path d="M2.49056 11.3966C2.28922 11.3966 2.08787 11.4008 1.88715 11.3954C1.52586 11.3864 1.26618 11.1622 1.25363 10.8192C1.23858 10.404 1.23795 9.98694 1.25426 9.57169C1.26743 9.23901 1.53025 9.00698 1.87649 9.00155C2.2911 8.99492 2.70571 8.99492 3.12031 9.00155C3.47032 9.00698 3.72686 9.23479 3.73878 9.57048C3.75383 9.99176 3.75383 10.4142 3.73815 10.8349C3.72623 11.164 3.47596 11.3827 3.13098 11.3936C2.91771 11.4002 2.70445 11.3948 2.49119 11.3948C2.49119 11.3948 2.49119 11.3948 2.49119 11.3954L2.49056 11.3966ZM1.88088 10.7861H3.1084V9.61147H1.88088V10.7861Z" fill="#410EAD"/>
<path d="M5.61525 11.3965C5.40826 11.3965 5.20064 11.4013 4.99365 11.3953C4.64679 11.3844 4.39589 11.1681 4.38334 10.8396C4.36766 10.4129 4.36766 9.98441 4.38334 9.55771C4.39526 9.2395 4.64741 9.01108 4.97797 9.00385C5.4045 8.99481 5.83165 8.99481 6.25818 9.00385C6.60003 9.01108 6.85469 9.24974 6.8666 9.58724C6.88103 9.99707 6.88166 10.4075 6.8666 10.8167C6.85343 11.1627 6.59877 11.3862 6.23748 11.3959C6.03049 11.4013 5.82287 11.3971 5.61588 11.3965H5.61525ZM6.23811 9.60954H5.01184V10.783H6.23811V9.60954Z" fill="#410EAD"/>
<path d="M3.74679 4.20534C3.74679 4.39277 3.75181 4.58021 3.74616 4.76764C3.73424 5.15095 3.50593 5.38599 3.11139 5.39865C2.70368 5.4113 2.29409 5.4113 1.88638 5.39865C1.49498 5.38599 1.25537 5.14191 1.2491 4.76764C1.24283 4.39277 1.24346 4.01791 1.2491 3.64304C1.25475 3.25974 1.49812 3.01264 1.89642 3.00179C2.29848 2.99094 2.70117 2.99094 3.10324 3.00179C3.49589 3.01203 3.73236 3.24768 3.74616 3.62617C3.75306 3.81902 3.74742 4.01248 3.74742 4.20594L3.74679 4.20534ZM3.107 4.79054V3.61411H1.88199V4.79054H3.107Z" fill="#410EAD"/>
<path d="M3.74655 13.2073C3.74655 13.4007 3.75282 13.5942 3.74467 13.787C3.72899 14.1499 3.50381 14.3819 3.12621 14.3958C2.71222 14.4108 2.29699 14.4102 1.88301 14.397C1.49223 14.3843 1.25451 14.139 1.24886 13.7629C1.24322 13.3881 1.24322 13.0132 1.24886 12.6383C1.25451 12.2562 1.50039 12.0103 1.89869 12.0001C2.30075 11.9899 2.70344 11.9893 3.10551 12.0001C3.49754 12.0109 3.73212 12.2478 3.7453 12.6269C3.7522 12.8197 3.74655 13.0132 3.74655 13.2067V13.2073ZM1.87987 12.607V13.7883H3.10927V12.607H1.87987Z" fill="#410EAD"/>
<path d="M2.49644 6.00465C2.70971 6.00465 2.9236 5.99862 3.13623 6.00585C3.48059 6.01851 3.72647 6.23849 3.73839 6.56996C3.75281 6.99123 3.75281 7.41371 3.73776 7.83499C3.72584 8.16224 3.47369 8.39066 3.13247 8.39849C2.71221 8.40753 2.29071 8.40753 1.87045 8.39849C1.51857 8.39126 1.2614 8.14778 1.25136 7.80485C1.23944 7.40106 1.23882 6.99606 1.25136 6.59226C1.26203 6.24753 1.51606 6.0167 1.87422 6.00525C2.08121 5.99862 2.28883 6.00404 2.49582 6.00404C2.49582 6.00404 2.49582 6.00404 2.49582 6.00465H2.49644ZM3.11177 6.61335H1.88425V7.78858H3.11177V6.61335Z" fill="#410EAD"/>
<path d="M5.62415 6.00366C5.8255 6.00366 6.02684 5.99944 6.22756 6.00426C6.60015 6.01391 6.85543 6.23871 6.86798 6.59248C6.88178 6.99628 6.88115 7.40128 6.86798 7.80447C6.85669 8.15764 6.59764 8.39329 6.23195 8.39932C5.82362 8.40595 5.41528 8.40595 5.00694 8.39932C4.64691 8.39329 4.39225 8.16307 4.38096 7.81773C4.36716 7.40791 4.36716 6.99748 4.38096 6.58826C4.39225 6.2381 4.63875 6.01632 5.00318 6.00547C5.21017 5.99944 5.41779 6.00426 5.62478 6.00426L5.62415 6.00366ZM6.23885 6.61418H5.01196V7.7888H6.23885V6.61418Z" fill="#410EAD"/>
<path d="M7.49751 7.19007C7.49751 6.99118 7.49249 6.79169 7.49876 6.59281C7.5088 6.26013 7.75279 6.01604 8.10029 6.00821C8.52681 5.99857 8.95397 5.99857 9.38049 6.00821C9.73677 6.01604 9.98265 6.26194 9.98767 6.60547C9.99331 7.00384 9.99394 7.40221 9.98767 7.80058C9.98202 8.13989 9.72987 8.3906 9.37736 8.39904C8.9571 8.40868 8.53622 8.40868 8.11534 8.39904C7.75342 8.39121 7.50566 8.13929 7.49813 7.78792C7.49374 7.58904 7.49751 7.38955 7.49751 7.19067V7.19007ZM8.12851 7.78913H9.35164V6.6127H8.12851V7.78913Z" fill="#410EAD"/>
<path d="M4.37923 4.19291C4.37923 3.98198 4.36857 3.77104 4.38174 3.5607C4.40119 3.25816 4.6063 3.03034 4.92117 3.01467C5.38283 2.99117 5.84761 2.99057 6.30864 3.01287C6.64359 3.02914 6.85873 3.27081 6.86814 3.60048C6.87943 3.99825 6.87943 4.39722 6.86814 4.79499C6.85873 5.13852 6.6323 5.37598 6.27602 5.39165C5.8382 5.41033 5.39851 5.41033 4.96069 5.39104C4.61006 5.37537 4.39491 5.14636 4.37735 4.80765C4.36669 4.60334 4.37547 4.39783 4.37547 4.19291C4.37672 4.19291 4.37798 4.19291 4.37861 4.19291H4.37923ZM6.234 4.78836V3.61434H5.00961V4.78836H6.234Z" fill="#410EAD"/>
<path d="M4.37828 13.1895C4.37828 12.9846 4.36887 12.7791 4.38079 12.5748C4.39898 12.2608 4.60346 12.03 4.92524 12.0143C5.38689 11.9914 5.85168 11.9902 6.3127 12.0137C6.6464 12.0306 6.86029 12.2734 6.86907 12.6043C6.87973 13.0021 6.88036 13.4011 6.86907 13.7988C6.85904 14.1418 6.63072 14.3774 6.27382 14.3925C5.84227 14.4112 5.40822 14.4112 4.97667 14.3937C4.60974 14.3786 4.39145 14.1442 4.37703 13.7874C4.36887 13.5885 4.37577 13.389 4.37577 13.1901C4.37703 13.1901 4.37828 13.1901 4.37891 13.1901L4.37828 13.1895ZM5.00992 13.7868H6.23932V12.6103H5.00992V13.7868Z" fill="#410EAD"/>
<path d="M5.92149 16.2129V16.7885H5.31934V16.2129H5.92149Z" fill="#410EAD"/>
</svg>
