<svg width="17" height="15" viewBox="0 0 17 15" fill="none" xmlns="http://www.w3.org/2000/svg">
<path d="M0 1.12509C0.0922451 0.777008 0.246135 0.46819 0.551697 0.253341C0.774771 0.0967262 1.02046 0.00805139 1.29365 0.00275737C1.50918 -0.00165431 1.72516 0.000551393 1.94114 0.000551393C6.48909 0.000551393 11.037 0.000551393 15.585 0.000551393C16.2631 0.000551393 16.7789 0.364515 16.9452 0.96671C16.9811 1.0973 16.9971 1.23759 16.9975 1.37347C17.0002 4.41753 17.0006 7.46159 16.9993 10.5057C16.9993 11.3192 16.4285 11.8887 15.6112 11.8896C13.9237 11.8918 12.2362 11.8905 10.5488 11.8905C10.4831 11.8905 10.4175 11.8905 10.3301 11.8905C10.4525 12.2628 10.5665 12.6175 10.6885 12.97C10.7004 13.0049 10.7568 13.0349 10.7984 13.0481C11.3076 13.2127 11.5936 13.6538 11.5196 14.1656C11.4499 14.6469 11.0237 14.9976 10.4973 14.9985C9.16952 15.0007 7.84172 15.0003 6.51348 14.9985C5.98219 14.9976 5.55866 14.6566 5.48238 14.1757C5.40078 13.6622 5.68771 13.2188 6.20881 13.0468C6.24961 13.0331 6.30238 13 6.3148 12.9638C6.43499 12.6162 6.54719 12.2664 6.67092 11.8905H6.46204C4.79675 11.8905 3.13146 11.8905 1.46572 11.8905C0.685186 11.8905 0.23283 11.5472 0.0204003 10.7951C0.0177394 10.7854 0.00753919 10.7783 0.000443412 10.7699C0.000443412 7.55468 0.000443412 4.33944 0.000443412 1.12421L0 1.12509ZM8.49764 0.662745C6.13563 0.662745 3.77318 0.662745 1.41117 0.662745C0.929547 0.662745 0.665229 0.927446 0.665229 1.41008C0.665229 4.43165 0.665229 7.45365 0.665229 10.4752C0.665229 10.9649 0.930878 11.2292 1.42359 11.2292C6.14229 11.2292 10.8614 11.2292 15.5801 11.2292C16.0711 11.2292 16.3345 10.964 16.3349 10.4712C16.3349 7.45497 16.3349 4.4387 16.3349 1.42244C16.3349 0.920387 16.0742 0.662745 15.5677 0.662745C13.211 0.662745 10.8543 0.662745 8.49764 0.662745ZM8.48301 14.3385C9.15755 14.3385 9.83165 14.3403 10.5062 14.3376C10.7231 14.3368 10.8619 14.2031 10.8619 14.0081C10.8619 13.8188 10.7275 13.6794 10.5235 13.6794C9.17484 13.6772 7.82576 13.6781 6.47712 13.6785C6.32234 13.6785 6.21103 13.7522 6.15603 13.8943C6.06778 14.1232 6.23764 14.3368 6.50949 14.3376C7.16718 14.3398 7.82532 14.3385 8.48301 14.3381V14.3385ZM9.99441 13.0088C9.88309 12.6696 9.77133 12.3427 9.67111 12.0127C9.64095 11.913 9.59216 11.8892 9.49548 11.89C8.94822 11.894 8.40096 11.8909 7.8537 11.8927C7.69493 11.8931 7.49802 11.8481 7.38804 11.9236C7.28559 11.9937 7.27273 12.1962 7.22439 12.3418C7.15122 12.5615 7.0807 12.7825 7.00753 13.0093H9.99485L9.99441 13.0088Z" fill="#410EAD"/>
<path d="M8.50291 1.5135C10.5172 1.5135 12.5311 1.52364 14.5454 1.50688C15.1051 1.50203 15.4891 1.89511 15.4856 2.43775C15.471 4.77726 15.4798 7.11722 15.4789 9.45717C15.4789 10.0528 15.1539 10.3788 14.5583 10.3792C13.0699 10.3801 11.5811 10.3792 10.0928 10.3792C10.0431 10.3792 9.99258 10.381 9.9438 10.3744C9.79478 10.3541 9.67992 10.2367 9.66263 10.0907C9.64489 9.94202 9.72338 9.79776 9.86619 9.74923C9.94246 9.72364 10.0285 9.71835 10.1101 9.71835C11.5874 9.71658 13.0651 9.71702 14.5423 9.71702C14.7822 9.71702 14.8137 9.68702 14.8137 9.45364C14.8137 7.11369 14.8137 4.77417 14.8137 2.43422C14.8137 2.20746 14.7818 2.17481 14.5547 2.17481C10.5155 2.17481 6.47618 2.17481 2.4369 2.17481C2.21871 2.17481 2.18545 2.20834 2.18545 2.42451C2.185 4.76976 2.18545 7.11501 2.18545 9.46026C2.18545 9.68438 2.21871 9.71658 2.4471 9.71658C3.91903 9.71658 5.39097 9.71658 6.8629 9.71658C6.91833 9.71658 6.97421 9.71349 7.02876 9.71967C7.21724 9.73996 7.34585 9.88511 7.33831 10.0642C7.33077 10.2385 7.20216 10.3708 7.01546 10.3757C6.75557 10.3827 6.49525 10.3788 6.23536 10.3788C4.97364 10.3788 3.71237 10.3792 2.45065 10.3788C1.84485 10.3788 1.52066 10.0541 1.52022 9.44967C1.52022 7.10972 1.51977 4.7702 1.52022 2.43025C1.52022 1.83467 1.84485 1.5135 2.444 1.5135C4.46364 1.5135 6.48327 1.5135 8.50291 1.5135Z" fill="#410EAD"/>
<path d="M11.9467 8.16025C11.9121 8.2101 11.8841 8.26657 11.8416 8.30848C11.5892 8.55686 11.3134 8.48318 11.2216 8.14392C11.0664 7.57173 10.9129 6.99865 10.7581 6.42601C10.7054 6.22969 10.649 6.0347 10.5989 5.8375C10.5142 5.50706 10.716 5.30148 11.0455 5.38795C11.8296 5.59397 12.6128 5.80308 13.3955 6.01485C13.6945 6.09558 13.7721 6.37396 13.5619 6.59719C13.5131 6.6488 13.4528 6.68983 13.3712 6.75777C13.549 6.92895 13.7069 7.07938 13.863 7.23203C13.9969 7.36306 14.1313 7.49408 14.2612 7.62908C14.4231 7.79761 14.4235 7.96966 14.2586 8.13731C13.9645 8.43553 13.667 8.73068 13.3676 9.02405C13.1893 9.19831 13.0168 9.1939 12.8332 9.01435C12.5574 8.74435 12.2842 8.47259 12.0092 8.20128C12.0057 8.19775 11.9995 8.19598 11.995 8.19378C11.9791 8.18275 11.9631 8.17172 11.9467 8.16069V8.16025ZM11.3759 6.16131C11.4992 6.61836 11.6132 7.03924 11.7276 7.4632C11.9932 7.32379 12.0886 7.33835 12.2957 7.54305C12.3622 7.60879 12.4287 7.6754 12.4944 7.74158C12.6944 7.94319 12.8944 8.14525 13.0753 8.32833C13.2488 8.16289 13.4022 8.01643 13.5627 7.8629C13.3117 7.61452 13.0625 7.35688 12.8008 7.11247C12.6137 6.93777 12.505 6.7591 12.6917 6.51072C12.2505 6.39337 11.8314 6.28219 11.3759 6.16087V6.16131Z" fill="#410EAD"/>
<path d="M4.84492 5.58043C4.56286 5.58043 4.28125 5.58176 3.99919 5.58043C3.47587 5.57735 3.1233 5.22926 3.12064 4.7131C3.11887 4.36678 3.11842 4.02046 3.12064 3.67371C3.12419 3.2021 3.44261 2.84828 3.91847 2.83372C4.53669 2.81519 5.15669 2.81519 5.77491 2.83372C6.24899 2.84828 6.56742 3.20298 6.57185 3.67547C6.57496 4.02752 6.5754 4.37913 6.57185 4.73119C6.56697 5.21824 6.21263 5.57249 5.72302 5.57955C5.43032 5.58396 5.13717 5.58043 4.84447 5.58043H4.84492ZM4.85556 3.48974C4.56818 3.48974 4.2808 3.49018 3.99342 3.48974C3.84929 3.48974 3.78277 3.55812 3.7841 3.70282C3.7872 4.03811 3.78632 4.37384 3.7841 4.70913C3.78321 4.85515 3.85816 4.92001 3.99874 4.92001C4.56242 4.92001 5.12609 4.92001 5.68976 4.92001C5.84143 4.92001 5.90973 4.84589 5.9084 4.69501C5.90574 4.37075 5.90884 4.04605 5.90707 3.72179C5.90618 3.5365 5.86006 3.4915 5.66758 3.48974C5.39661 3.48753 5.12609 3.4893 4.85512 3.48974H4.85556Z" fill="#410EAD"/>
<path d="M4.85174 8.82724C4.08806 8.82945 3.46585 8.21843 3.46097 7.4605C3.45565 6.70743 4.08008 6.08229 4.83977 6.08009C5.60257 6.07744 6.22389 6.68934 6.2301 7.44859C6.23631 8.20387 5.61543 8.82504 4.85219 8.82768L4.85174 8.82724ZM4.84554 8.16549C5.2429 8.16549 5.56354 7.84785 5.56398 7.45477C5.56398 7.06345 5.23979 6.7414 4.84598 6.7414C4.45261 6.7414 4.12709 7.06433 4.12709 7.45433C4.12709 7.84697 4.44906 8.16505 4.84598 8.16549H4.84554Z" fill="#410EAD"/>
<path d="M8.38995 3.86961C8.06399 3.86961 7.73759 3.87138 7.41162 3.86917C7.19476 3.86741 7.04841 3.73859 7.0422 3.55065C7.03555 3.36006 7.18944 3.21007 7.40852 3.20919C8.06621 3.2061 8.7239 3.20654 9.38159 3.20919C9.60732 3.21007 9.75767 3.34639 9.759 3.53918C9.75988 3.73329 9.61087 3.86785 9.38514 3.86961C9.05341 3.87182 8.72213 3.87006 8.3904 3.87006L8.38995 3.86961Z" fill="#410EAD"/>
<path d="M8.39288 5.19267C8.06691 5.19267 7.74095 5.19444 7.41455 5.19223C7.18925 5.19047 7.0398 5.05503 7.04202 4.86091C7.04423 4.67518 7.19325 4.53445 7.40523 4.53357C8.06824 4.53048 8.7317 4.53048 9.39471 4.53357C9.60803 4.53445 9.75571 4.67298 9.75837 4.86003C9.76148 5.05591 9.61424 5.19047 9.38717 5.19223C9.05545 5.19444 8.72416 5.19267 8.39243 5.19267H8.39288Z" fill="#410EAD"/>
<path d="M8.39463 7.75437C8.7206 7.75437 9.04656 7.75172 9.37297 7.75525C9.61467 7.7579 9.76323 7.89069 9.7588 8.09054C9.75436 8.28245 9.60535 8.41568 9.37651 8.41656C8.72459 8.41965 8.07222 8.41965 7.4203 8.41656C7.19323 8.41524 7.04378 8.27804 7.042 8.08613C7.04067 7.8929 7.18747 7.75878 7.41675 7.75614C7.74271 7.75216 8.06867 7.75525 8.39508 7.75481L8.39463 7.75437Z" fill="#410EAD"/>
<path d="M8.40818 6.43161C8.74523 6.43161 9.08228 6.43028 9.41933 6.43205C9.5577 6.43293 9.68454 6.48808 9.71869 6.62175C9.74441 6.72234 9.74042 6.85998 9.68764 6.94204C9.63842 7.0188 9.50847 7.0841 9.41268 7.08586C8.73858 7.09777 8.06448 7.09601 7.39038 7.09027C7.17707 7.08851 7.03515 6.93586 7.04225 6.74925C7.0489 6.56705 7.18682 6.43602 7.39659 6.43249C7.73364 6.42631 8.07069 6.43073 8.40774 6.43073C8.40774 6.43073 8.40774 6.43161 8.40774 6.43205L8.40818 6.43161Z" fill="#410EAD"/>
<path d="M8.49904 9.71924C8.68087 9.7188 8.83476 9.87585 8.83077 10.0572C8.82678 10.235 8.68043 10.3761 8.50081 10.3766C8.31455 10.3766 8.16509 10.2261 8.16953 10.0422C8.17352 9.86747 8.32431 9.71968 8.49948 9.71924H8.49904Z" fill="#410EAD"/>
</svg>
