<svg width="15" height="15" viewBox="0 0 15 15" fill="none" xmlns="http://www.w3.org/2000/svg">
<path d="M0 10.7478V10.2521H1.19285V9.75502C0.744824 9.712 0.408804 9.48938 0.281432 9.02868C0.211883 8.77682 0.15406 8.49906 0.327124 8.28688C0.29518 8.03544 0.253127 7.80321 0.238974 7.5689C0.224822 7.33291 0.317419 7.24729 0.542242 7.2452C0.596425 7.24478 0.650609 7.2452 0.71571 7.2452V6.75651H1.20417C1.20417 6.87889 1.22075 7.00503 1.20053 7.12491C1.16252 7.34962 1.27938 7.46949 1.44032 7.56305C1.83982 7.40517 1.63198 7.03511 1.70234 6.75276H2.16775V7.24561C2.25267 7.24561 2.32181 7.24353 2.39015 7.24561C2.56038 7.25188 2.64975 7.34252 2.65662 7.51711C2.66673 7.76938 2.65662 8.01832 2.52925 8.23384C2.74194 8.52747 2.68573 8.83697 2.57777 9.12642C2.42978 9.52404 2.116 9.71492 1.69951 9.75251V10.2366H4.4649C3.79124 9.31103 3.50496 8.28145 3.6756 7.13869C3.84704 5.993 4.40506 5.08664 5.32942 4.43131C6.80653 3.38461 8.80162 3.55335 10.1356 4.80888C11.3851 5.98506 11.96 8.30025 10.5448 10.2366H13.3033V9.7546C12.8614 9.71033 12.5302 9.4994 12.3976 9.05165C12.3195 8.78851 12.2629 8.50408 12.434 8.28897C12.402 8.02959 12.3608 7.79653 12.3474 7.56221C12.3341 7.3304 12.4279 7.24687 12.6568 7.24478C12.7069 7.24436 12.757 7.24478 12.8233 7.24478V6.75359H13.3126C13.3126 6.87096 13.3292 6.99626 13.309 7.11488C13.271 7.33709 13.3801 7.46364 13.548 7.56347C13.9442 7.40976 13.7465 7.04346 13.8088 6.75526H14.2754V7.24478C14.349 7.24478 14.4121 7.24394 14.4747 7.24478C14.6745 7.24812 14.7736 7.33667 14.7622 7.53841C14.7485 7.77857 14.7105 8.01665 14.6785 8.29106C14.8504 8.52078 14.7926 8.82276 14.6947 9.10303C14.5508 9.51653 14.2305 9.71492 13.8051 9.75251V10.2416H14.9964V10.7453H8.15708C8.40293 10.9897 8.63745 11.2286 8.88047 11.4587C8.91686 11.4934 8.99127 11.4959 9.04787 11.4959C10.9698 11.4976 12.8921 11.4976 14.814 11.4976H15V11.9888H9.2731C9.36004 12.1496 9.45506 12.279 9.50358 12.4252C9.59416 12.6996 9.75873 12.7594 10.0317 12.7569C11.6256 12.7402 13.22 12.7489 14.814 12.7489H15V13.241H9.86265C9.92856 13.5028 9.99002 13.7459 10.0535 13.9974H14.9964V14.4965H10.1344C10.1457 14.6702 10.1558 14.8277 10.1663 14.9931H9.69808C9.66209 14.7108 9.64187 14.4259 9.58729 14.1477C9.37015 13.0409 8.91484 12.0656 8.05842 11.3305C7.59826 10.9354 7.07057 10.7119 6.45797 10.7462C6.29906 10.7549 6.13934 10.7474 5.95536 10.7474C7.30874 11.8355 7.88495 13.2865 7.99412 14.9885C7.95247 14.9944 7.93347 14.9998 7.91446 14.9998C7.78386 15.0006 7.65325 14.9998 7.51981 14.9998C7.48221 14.7062 7.46239 14.4155 7.40538 14.1331C7.17813 13.0062 6.7111 12.0151 5.8203 11.282C5.30111 10.8548 4.70752 10.6731 4.03588 10.762C5.37187 11.8342 5.94565 13.2869 6.05806 14.9919H5.58133C5.54453 14.7066 5.5231 14.4167 5.46851 14.1335C5.27806 13.1466 4.87896 12.2644 4.18104 11.5477C3.66306 11.0156 3.05168 10.6994 2.29836 10.7457C2.1625 10.7541 2.02582 10.7474 1.88996 10.7483C1.88147 10.7483 1.87298 10.7554 1.85721 10.762C3.19199 11.833 3.76577 13.2856 3.87939 14.9998H3.43662C3.33473 14.494 3.26922 14.0028 3.13417 13.5325C2.9057 12.7368 2.51105 12.0305 1.91099 11.4646C1.41323 10.9951 0.84187 10.7052 0.146781 10.7462C0.102302 10.7487 0.0574186 10.7462 0 10.7462V10.7478ZM10.0576 10.0411C10.5347 9.45847 10.8105 8.79687 10.8756 8.01706H10.1728V7.51627H10.8905C10.8319 6.73605 10.5614 6.07027 10.0669 5.46213C9.90268 5.65259 9.74984 5.83052 9.58729 6.01931C9.45344 5.87354 9.3471 5.75743 9.22539 5.62461C9.38713 5.46004 9.55049 5.29423 9.71344 5.12841C9.30868 4.68525 8.25534 4.23082 7.77577 4.29138V4.74456C8.07055 4.82309 8.34996 4.89785 8.64433 4.97637C8.5679 5.15389 8.50766 5.29339 8.44781 5.43206C7.04955 4.87864 5.76693 5.63087 5.29909 6.70347C4.8179 7.80655 5.23237 9.16944 6.25499 9.81684C6.77944 10.1489 7.34998 10.2658 7.95328 10.1481C8.77493 9.98767 9.36287 9.4969 9.73609 8.7221C9.88772 8.78893 10.0256 8.84949 10.1938 8.92342C10.0341 9.19115 9.88166 9.44594 9.7276 9.70406C9.82828 9.80723 9.93746 9.91917 10.0571 10.0415L10.0576 10.0411ZM5.64158 5.39322C5.89026 5.25162 6.13853 5.07829 6.41026 4.96426C6.68563 4.84856 6.98364 4.79093 7.27679 4.70655V4.24251C6.52954 4.30266 5.88217 4.57791 5.30354 5.0787C5.42646 5.19315 5.53483 5.29381 5.64158 5.39322ZM4.11109 7.9778C4.16932 8.75134 4.4366 9.41879 4.91212 9.99268C5.02615 9.87573 5.13209 9.76671 5.24693 9.64851C4.87128 9.17236 4.65252 8.61017 4.59268 7.9778H4.11109ZM4.95215 5.44C4.46975 6.03393 4.19762 6.69679 4.13576 7.45988H4.61654C4.68811 6.83044 4.91091 6.27702 5.29343 5.78541C5.18102 5.67181 5.07386 5.56321 4.95175 5.44H4.95215ZM1.18193 8.24052C1.22035 7.98699 0.998355 7.751 0.73148 7.76145C0.735524 8.0321 0.902927 8.21003 1.18193 8.24052ZM2.16371 7.75184C1.87015 7.77565 1.6797 7.98407 1.70881 8.23843C1.98256 8.2163 2.15118 8.03962 2.16371 7.75184ZM12.8403 7.74975C12.844 8.03878 13.0409 8.23885 13.3009 8.23008C13.2973 7.9611 13.1282 7.78066 12.8403 7.74975ZM13.8112 8.23175C14.0769 8.23384 14.2713 8.03252 14.2677 7.75936C14.0012 7.75727 13.8076 7.95775 13.8112 8.23175ZM1.20053 9.23376C1.16859 8.92718 0.960751 8.72879 0.725415 8.77014C0.754933 9.05666 0.929615 9.23125 1.20053 9.23376ZM2.16856 8.75719C1.8839 8.76429 1.69304 8.96561 1.70477 9.23501C1.96841 9.22833 2.13985 9.05541 2.16856 8.75719ZM13.3078 9.23626C13.2815 8.93261 13.0769 8.73463 12.8351 8.76805C12.8593 9.05165 13.0316 9.22666 13.3078 9.23626ZM13.8092 9.24253C14.1064 9.20912 14.298 8.99485 14.258 8.75176C13.9778 8.78225 13.8116 8.95976 13.8092 9.24253ZM5.87813 10.2366C5.77218 10.1522 5.69253 10.0887 5.63713 10.0449C5.56232 10.1151 5.49924 10.1748 5.43333 10.2366H5.87813ZM9.51572 10.2379C9.46113 10.1681 9.41544 10.1088 9.3657 10.0449C9.28604 10.1084 9.21811 10.1623 9.12389 10.2379H9.51612H9.51572Z" fill="#410EAD"/>
<path d="M0.478516 12.0461C0.615188 11.9416 0.73609 11.8498 0.867506 11.7495C1.54116 12.7231 1.88851 13.7978 1.93096 14.9924H1.45018C1.40449 13.9193 1.09112 12.9349 0.478516 12.0461Z" fill="#410EAD"/>
<path d="M5.06868 2.48428H4.60205V0.00244141H5.06868V2.48428Z" fill="#410EAD"/>
<path d="M9.68506 2.47891V0H10.1561V2.47891H9.68506Z" fill="#410EAD"/>
<path d="M3.85946 3.98532H3.39404V1.50098H3.85946V3.98532Z" fill="#410EAD"/>
<path d="M11.3643 3.98574H10.8984V1.50391H11.3643V3.98574Z" fill="#410EAD"/>
<path d="M7.73193 2.73481H7.26611V0.75293H7.73193V2.73481Z" fill="#410EAD"/>
<path d="M6.28369 1.50293V3.23337H5.81787V1.50293H6.28369Z" fill="#410EAD"/>
<path d="M8.48096 1.49658H8.94435V3.2337H8.48096V1.49658Z" fill="#410EAD"/>
<path d="M8.45364 8.1503C8.59233 8.85158 8.04079 9.27552 7.4755 9.09007C7.41363 9.23292 7.35055 9.37785 7.28181 9.53741C7.13463 9.47392 6.99391 9.41294 6.84268 9.34736C6.90455 9.19115 6.96116 9.04831 7.02505 8.8875C6.95429 8.85617 6.88838 8.82694 6.80872 8.79143C6.742 8.94723 6.67973 9.09258 6.61382 9.24628C6.4634 9.18029 6.32187 9.11848 6.17388 9.05374C6.23615 8.89794 6.29357 8.75468 6.35746 8.59429C6.0647 8.46523 5.77478 8.33784 5.4707 8.20418C5.53297 8.05214 5.59241 7.90638 5.65711 7.74849C5.80713 7.81449 5.94825 7.8763 6.10231 7.94438C6.29357 7.4841 6.48159 7.03176 6.67407 6.56814C6.52648 6.49964 6.38536 6.43448 6.23494 6.36473C6.2964 6.21395 6.35463 6.07235 6.42013 5.91155C6.71733 6.03978 7.00726 6.1655 7.3081 6.29539C7.3732 6.1442 7.43628 5.99884 7.50421 5.8418C7.64897 5.90695 7.78483 5.96877 7.92959 6.03393C7.86773 6.18805 7.81031 6.33131 7.74682 6.4892C7.82042 6.52219 7.8928 6.55477 7.97973 6.59362C8.0412 6.44409 8.10144 6.29832 8.16776 6.13709C8.31333 6.20016 8.4504 6.25989 8.60446 6.32672C8.54624 6.47667 8.49124 6.61868 8.43099 6.77405C8.68736 6.924 8.85557 7.14077 8.86002 7.45528C8.86487 7.77105 8.71081 7.99743 8.45404 8.1503H8.45364ZM6.93164 7.21971C7.30122 7.38136 7.65625 7.5384 8.01249 7.69127C8.17302 7.75977 8.3016 7.71424 8.35821 7.57892C8.41684 7.43816 8.3574 7.30659 8.19323 7.23224C7.93525 7.11529 7.67525 7.00336 7.41566 6.88975C7.32023 6.84798 7.2244 6.80788 7.12209 6.76403C7.0578 6.91815 7.00038 7.05598 6.93164 7.22013V7.21971ZM6.55316 8.14153C6.93609 8.30776 7.30567 8.47066 7.67727 8.62854C7.80505 8.68284 7.90695 8.62854 7.97246 8.51284C8.03351 8.4055 7.98742 8.24678 7.87015 8.19165C7.50057 8.01748 7.12695 7.85333 6.74321 7.67999C6.67771 7.83871 6.61786 7.98448 6.55316 8.14111V8.14153Z" fill="#410EAD"/>
<path d="M10.0376 6.43268C10.1746 6.4356 10.2895 6.55923 10.2822 6.69665C10.2753 6.83156 10.1601 6.93848 10.0287 6.93222C9.89361 6.92554 9.79293 6.81527 9.79495 6.6766C9.79697 6.53668 9.90332 6.42975 10.0376 6.43268Z" fill="#410EAD"/>
</svg>
