<svg width="10" height="15" viewBox="0 0 10 15" fill="none" xmlns="http://www.w3.org/2000/svg">
<path d="M4.71149 14.9991C4.57616 14.98 4.44083 14.9628 4.3058 14.9413C2.78463 14.6982 1.59326 13.9159 0.78188 12.5734C-0.117025 11.0858 -0.238014 9.49921 0.404275 7.88158C0.935134 6.54458 1.8896 5.61636 3.1933 5.07817C3.32624 5.02346 3.36687 4.96138 3.36567 4.81661C3.3585 3.89423 3.36209 2.97215 3.36209 2.04977V1.86198C3.22586 1.86198 3.10816 1.86321 2.99076 1.86198C2.71472 1.8589 2.61703 1.75778 2.61584 1.4704C2.61434 1.10926 2.61883 0.74811 2.61405 0.386964C2.61166 0.208696 2.66782 0.0743807 2.83242 0H7.18893C7.35294 0.0762248 7.40522 0.21177 7.40253 0.38973C7.39685 0.750876 7.40193 1.11233 7.40044 1.47347C7.39925 1.76301 7.30544 1.86136 7.02403 1.86167C6.05612 1.8629 5.0879 1.86228 4.11999 1.86228C4.06412 1.86228 4.00826 1.86228 3.93178 1.86228C3.93178 1.93328 3.93178 1.98984 3.93178 2.04639C3.93178 3.05698 3.93178 4.06758 3.93178 5.07817C3.93178 5.38553 3.89026 5.43686 3.60526 5.54197C2.21762 6.05465 1.28615 7.03143 0.800402 8.46311C0.76545 8.56576 0.786362 8.61402 0.877178 8.65398C1.17861 8.78645 1.46241 8.76124 1.71753 8.54609C1.92037 8.3752 2.12172 8.208 2.38491 8.14315C2.81151 8.03772 3.20167 8.11241 3.55298 8.38596C3.62109 8.43883 3.68473 8.49753 3.75164 8.55255C4.04829 8.79598 4.43964 8.79843 4.7342 8.55101C4.94062 8.37735 5.14556 8.20677 5.41412 8.14161C5.83057 8.04049 6.21236 8.11272 6.5583 8.37274C6.62342 8.42161 6.68347 8.47755 6.7459 8.5298C7.07541 8.80489 7.45451 8.80827 7.78372 8.52765C7.98657 8.35492 8.1912 8.18464 8.45738 8.14007C8.65544 8.10688 8.85858 8.10442 9.07666 8.08721C9.0202 7.96549 8.96464 7.8238 8.89204 7.69195C8.32593 6.66076 7.50619 5.93632 6.41699 5.5432C6.12572 5.43809 6.08569 5.38645 6.08569 5.06834C6.08569 4.70719 6.0839 4.34574 6.08629 3.98459C6.08748 3.77928 6.16993 3.65818 6.31721 3.63205C6.50512 3.59855 6.64822 3.71873 6.6527 3.92927C6.65927 4.24154 6.65927 4.55413 6.6527 4.8664C6.65061 4.96937 6.68108 5.01947 6.77667 5.05758C7.9322 5.51769 8.81347 6.30668 9.40587 7.42516C9.85129 8.2664 10.0446 9.17065 9.9914 10.1305C9.9215 11.3892 9.46682 12.4781 8.62676 13.3913C7.8372 14.2494 6.86809 14.7646 5.73079 14.9401C5.58142 14.9631 5.43115 14.98 5.28119 15H4.71179L4.71149 14.9991ZM0.638784 9.19001C0.628627 9.2521 0.61847 9.29881 0.61369 9.34584C0.506145 10.4065 0.714067 11.3968 1.27779 12.2928C2.04196 13.5072 3.13206 14.2147 4.52896 14.3791C5.69524 14.5165 6.76921 14.2196 7.69052 13.4666C9.05934 12.3481 9.6132 10.8811 9.36883 9.09504C9.34553 8.92476 9.26248 8.83286 9.12805 8.76801C9.06442 8.73727 8.9963 8.71207 8.92759 8.69731C8.64977 8.6383 8.41585 8.73235 8.20972 8.92261C7.79717 9.30342 7.32247 9.42729 6.80087 9.22351C6.60311 9.14636 6.42685 8.99975 6.25537 8.86482C5.94857 8.62386 5.56051 8.61556 5.25878 8.86267C5.20322 8.90816 5.14795 8.95426 5.09358 9.0016C4.87221 9.194 4.6138 9.29267 4.32731 9.31234C3.90251 9.34154 3.55836 9.1645 3.24558 8.88265C2.93519 8.60295 2.53876 8.61033 2.21941 8.8762C2.12023 8.95888 2.02374 9.04832 1.9147 9.11501C1.5123 9.36059 1.09108 9.37934 0.639083 9.18909L0.638784 9.19001ZM3.1939 1.26755H6.82059V0.591972H3.1939V1.26755Z" fill="#410EAD"/>
<path d="M6.65098 2.75692C6.64321 2.91706 6.51445 3.03477 6.35672 3.02617C6.20197 3.01787 6.08277 2.8814 6.09233 2.72434C6.10219 2.56513 6.23244 2.44649 6.38838 2.45448C6.54462 2.46247 6.65874 2.59433 6.65098 2.75692Z" fill="#410EAD"/>
<path d="M4.06425 13.0065C4.05111 13.2623 3.85155 13.3877 3.64721 13.2844C3.38074 13.1498 3.11426 13.0065 2.87109 12.8326C2.45315 12.5341 2.12932 12.1398 1.87719 11.6846C1.79772 11.5411 1.8022 11.4024 1.89093 11.3059C1.97816 11.211 2.09377 11.1756 2.20072 11.2356C2.28198 11.281 2.35188 11.3671 2.40147 11.451C2.702 11.9591 3.1056 12.3525 3.61704 12.6285C3.71324 12.6804 3.81421 12.7235 3.9107 12.7748C4.01765 12.8317 4.06754 12.9254 4.06425 13.0065Z" fill="#410EAD"/>
<path d="M5.0116 11.9337C4.84968 11.9371 4.71406 11.8047 4.71436 11.6445C4.71465 11.4899 4.84281 11.3602 4.99846 11.3565C5.16097 11.3528 5.29331 11.4825 5.29301 11.6454C5.29301 11.8025 5.16784 11.9304 5.0116 11.9337Z" fill="#410EAD"/>
<path d="M6.53686 10.1392C6.53028 10.2985 6.39914 10.4214 6.24499 10.4128C6.09204 10.4042 5.96985 10.2662 5.97792 10.111C5.98628 9.95115 6.11534 9.83189 6.27217 9.83865C6.42842 9.84541 6.54343 9.97604 6.53686 10.1389V10.1392Z" fill="#410EAD"/>
<path d="M6.3976 13.029C6.39849 13.1873 6.27302 13.321 6.12156 13.3228C5.97189 13.3246 5.84105 13.1903 5.83985 13.0336C5.83866 12.875 5.96383 12.7434 6.11708 12.7422C6.27183 12.741 6.3967 12.8685 6.3976 13.029Z" fill="#410EAD"/>
<path d="M7.44306 11.3585C7.59632 11.3615 7.72358 11.4962 7.72 11.6511C7.71611 11.8072 7.58526 11.9351 7.43171 11.9323C7.27637 11.9295 7.15478 11.7998 7.15777 11.6394C7.16076 11.4799 7.28712 11.3554 7.44336 11.3585H7.44306Z" fill="#410EAD"/>
<path d="M3.03825 10.1268C3.03735 10.2854 2.91038 10.4157 2.75803 10.4148C2.60716 10.4139 2.47841 10.2793 2.47901 10.1234C2.4796 9.96514 2.60627 9.83697 2.76131 9.8379C2.91696 9.83882 3.03944 9.96606 3.03825 10.1268Z" fill="#410EAD"/>
</svg>
