<svg width="17" height="15" viewBox="0 0 17 15" fill="none" xmlns="http://www.w3.org/2000/svg">
<path d="M0 12.5964C0.0727419 12.4672 0.18008 12.4169 0.329556 12.4232C0.554879 12.4325 0.781088 12.4254 1.03036 12.4254C1.03036 12.343 1.03036 12.2731 1.03036 12.2032C1.03036 9.11533 1.03036 6.02741 1.03036 2.9395C1.03036 2.36207 1.32222 2.07002 1.89839 2.06957C2.41822 2.06957 2.93806 2.06957 3.48318 2.06957C3.48318 2.00235 3.48318 1.94358 3.48318 1.88526C3.48318 1.36304 3.4823 0.841265 3.48318 0.319044C3.48363 0.0839778 3.56746 0.00117044 3.8052 0.00117044C5.00056 0.000280033 6.19548 0.000725234 7.39084 0.00117044C7.59931 0.00117044 7.71108 0.0919916 7.70931 0.25449C7.70753 0.416543 7.59886 0.500686 7.38507 0.500686C6.31701 0.501131 5.24939 0.500686 4.18133 0.500686C4.12145 0.500686 4.06157 0.500686 3.99149 0.500686V11.3792H12.7467V0.500686C12.6855 0.500686 12.6212 0.500686 12.5568 0.500686C11.2674 0.500686 9.9785 0.500686 8.6891 0.500686C8.63366 0.500686 8.57777 0.505138 8.52322 0.497124C8.39148 0.477536 8.3112 0.396509 8.30455 0.264284C8.29745 0.12271 8.37862 0.0358962 8.51435 0.00651297C8.56225 -0.00372665 8.6137 0.00117044 8.66338 0.00117044C10.0743 0.00117044 11.4852 0.00117044 12.8962 0.00117044C13.1871 0.00117044 13.2581 0.0719574 13.2585 0.363564C13.2594 0.863525 13.2585 1.36349 13.2585 1.863C13.2585 1.9231 13.2585 1.98365 13.2585 2.06067C13.3291 2.06423 13.3872 2.06957 13.4457 2.06957C14.0099 2.07002 14.5745 2.06958 15.1387 2.07002C15.6599 2.07091 15.9668 2.37676 15.9673 2.89587C15.9682 3.86774 15.9673 4.83962 15.9673 5.81149C15.9673 5.86669 15.9717 5.92502 15.9566 5.97666C15.9198 6.10265 15.8324 6.17388 15.6976 6.16275C15.5716 6.15251 15.4967 6.07549 15.4745 5.95306C15.4647 5.89919 15.4701 5.84221 15.4701 5.787C15.4701 4.8316 15.4701 3.87665 15.4701 2.92124C15.4701 2.65145 15.3907 2.56998 15.1272 2.56954C14.5133 2.56865 13.8995 2.56954 13.2727 2.56954V3.10467C13.5806 3.10467 13.8835 3.10467 14.1864 3.10467C14.3412 3.10467 14.4965 3.10111 14.6513 3.106C14.842 3.11179 14.9307 3.20484 14.9374 3.39805C14.9387 3.43144 14.9374 3.46483 14.9374 3.49822C14.9374 6.16409 14.9374 8.82995 14.9374 11.4958C14.9374 11.8266 14.8722 11.8907 14.5368 11.8907C10.5085 11.8907 6.48024 11.8907 2.45238 11.8907C2.12726 11.8907 2.06072 11.8248 2.06072 11.5038C2.06072 8.83262 2.06072 6.16097 2.06072 3.48977C2.06072 3.17545 2.12947 3.10556 2.43818 3.10556C2.78016 3.10556 3.12169 3.10556 3.47298 3.10556V2.58423C3.43173 2.57978 3.38959 2.57132 3.34746 2.57132C2.84935 2.57043 2.35125 2.56998 1.85359 2.57132C1.61762 2.57176 1.52847 2.65858 1.52847 2.88964C1.52802 6.02741 1.52847 9.16564 1.52847 12.3034C1.52847 12.3364 1.53246 12.3689 1.53512 12.4143H15.471C15.471 12.3435 15.471 12.2785 15.471 12.2135C15.471 10.5253 15.471 8.83663 15.471 7.14843C15.471 7.09857 15.4674 7.04781 15.4727 6.9984C15.4878 6.8586 15.5637 6.77401 15.7065 6.76377C15.8418 6.75398 15.9482 6.84792 15.9655 6.98994C15.9722 7.0447 15.9686 7.10079 15.9686 7.15644C15.9686 8.8393 15.9686 10.5222 15.9686 12.205C15.9686 12.2709 15.9686 12.3372 15.9686 12.4272C16.2086 12.4272 16.4392 12.4263 16.6694 12.4272C16.9183 12.4285 16.9985 12.5073 16.999 12.754C16.9999 13.237 17.0007 13.7205 16.999 14.2035C16.9972 14.6728 16.6845 14.9933 16.2214 14.9947C15.3525 14.9978 14.4841 14.9947 13.6151 14.9964C13.4741 14.9964 13.3597 14.9555 13.3197 14.8094C13.2869 14.6901 13.3264 14.5833 13.4417 14.5299C13.5034 14.5014 13.5806 14.4969 13.6506 14.4969C14.4863 14.4947 15.3215 14.496 16.1571 14.4956C16.4228 14.4956 16.5013 14.4159 16.5018 14.1474C16.5022 13.7485 16.5018 13.3492 16.5018 12.9262H16.3168C14.8504 12.9262 13.3841 12.928 11.9177 12.9231C11.7877 12.9227 11.7172 12.9579 11.6671 13.079C11.5992 13.2423 11.5141 13.3991 11.4307 13.5553C11.2901 13.818 11.0647 13.9578 10.7711 13.9587C9.25507 13.9627 7.73903 13.9631 6.22298 13.9582C5.92979 13.9573 5.70536 13.8131 5.56653 13.5495C5.47604 13.3781 5.39753 13.2 5.30217 13.0313C5.27556 12.9841 5.20814 12.9311 5.15891 12.9307C3.626 12.9258 2.09355 12.9271 0.560645 12.928C0.545564 12.928 0.53004 12.9356 0.501209 12.9432C0.501209 13.3857 0.495887 13.8282 0.504314 14.2708C0.506975 14.4025 0.603225 14.4773 0.733628 14.4929C0.793507 14.5 0.855161 14.4956 0.915927 14.4956C4.7229 14.4956 8.52987 14.4956 12.3364 14.4956C12.5976 14.4956 12.7116 14.5682 12.7165 14.7369C12.7214 14.9123 12.599 14.9951 12.3346 14.9951C8.53342 14.9951 4.73177 14.9911 0.930564 15C0.46883 15.0009 0.153024 14.8424 0 14.3963V12.5968V12.5964ZM13.2714 3.61353V11.3765H14.4299V3.61353H13.2714ZM3.47342 11.3814V3.61398H2.56859V11.381H3.47342V11.3814ZM5.81802 12.9334C5.87967 13.0607 5.93512 13.1738 5.98923 13.2873C6.04511 13.4048 6.13649 13.4609 6.26645 13.4605C7.75499 13.46 9.24354 13.4618 10.7321 13.4556C10.8102 13.4556 10.9157 13.4124 10.9596 13.3528C11.0497 13.2317 11.1069 13.0856 11.1863 12.9329H5.81802V12.9334Z" fill="#410EAD"/>
<path d="M9.3957 2.56959C8.58268 2.56959 7.76966 2.56959 6.95619 2.56959C6.90651 2.56959 6.85639 2.57182 6.80716 2.56692C6.67232 2.55357 6.59292 2.4712 6.58139 2.34165C6.56942 2.20987 6.63994 2.11727 6.76812 2.08343C6.82579 2.0683 6.88833 2.07008 6.94909 2.07008C8.58623 2.06963 10.2238 2.06963 11.8609 2.07008C11.9159 2.07008 11.9732 2.06563 12.0259 2.07854C12.1612 2.11148 12.2371 2.19919 12.2251 2.34299C12.214 2.47788 12.1337 2.55268 12.0007 2.56692C11.9514 2.57226 11.9013 2.56959 11.8516 2.56959C11.0328 2.56959 10.2145 2.56959 9.3957 2.56959Z" fill="#410EAD"/>
<path d="M9.41316 4.63992C8.59481 4.63992 7.77602 4.63992 6.95768 4.63992C6.90223 4.63992 6.84634 4.6417 6.79223 4.63458C6.66493 4.61766 6.59308 4.53441 6.58155 4.41331C6.56957 4.28999 6.63122 4.1965 6.75231 4.16088C6.81441 4.14263 6.88316 4.14174 6.9488 4.14129C8.58594 4.1404 10.2231 4.1404 11.8602 4.14129C11.9259 4.14129 11.9946 4.14218 12.0567 4.15999C12.1787 4.19516 12.2359 4.28643 12.2257 4.41242C12.2159 4.53886 12.1441 4.61588 12.0181 4.63413C11.964 4.64214 11.9077 4.63992 11.8527 4.63992C11.0396 4.63992 10.2266 4.63992 9.4136 4.63992H9.41316Z" fill="#410EAD"/>
<path d="M9.41245 6.2128C10.2255 6.2128 11.0385 6.2128 11.8511 6.21325C11.9172 6.21325 11.9855 6.21236 12.0485 6.22794C12.1722 6.25866 12.2312 6.34815 12.2259 6.47458C12.221 6.59345 12.1589 6.67448 12.0418 6.69941C11.9779 6.71321 11.9101 6.71187 11.844 6.71187C10.2179 6.71232 8.59233 6.71232 6.96629 6.71187C6.69971 6.71187 6.57508 6.62996 6.57818 6.45856C6.58084 6.28849 6.70326 6.21191 6.97338 6.21191C7.78641 6.21191 8.59943 6.21191 9.41201 6.21191L9.41245 6.2128Z" fill="#410EAD"/>
<path d="M9.40559 8.28653C10.2408 8.28653 11.0755 8.28743 11.9107 8.28564C12.0332 8.28564 12.1449 8.29989 12.2048 8.42544C12.2722 8.56701 12.2008 8.72906 12.0474 8.76824C11.9791 8.78561 11.905 8.7856 11.8336 8.7856C10.2133 8.78649 8.59301 8.78649 6.97273 8.7856C6.90664 8.7856 6.83922 8.78516 6.7749 8.77136C6.64317 8.74331 6.57309 8.65026 6.58063 8.51982C6.58817 8.39027 6.6649 8.30479 6.80063 8.29054C6.85519 8.28475 6.91107 8.28653 6.96652 8.28653C7.77954 8.28653 8.59256 8.28653 9.40514 8.28653H9.40559Z" fill="#410EAD"/>
<path d="M6.04364 6.98606C6.04364 7.14722 6.0463 7.30838 6.04275 7.4691C6.03876 7.64585 5.95582 7.74156 5.78017 7.74557C5.4484 7.75314 5.11618 7.75314 4.7844 7.74602C4.60787 7.74245 4.51872 7.64763 4.5165 7.474C4.51251 7.14633 4.51295 6.81866 4.5165 6.49099C4.51828 6.3138 4.60521 6.21853 4.77953 6.21497C5.1113 6.20829 5.44352 6.20829 5.77529 6.21497C5.95803 6.21853 6.04009 6.31291 6.04319 6.50301C6.04586 6.66418 6.04364 6.8249 6.04364 6.98606ZM5.01949 6.72072V7.23938H5.53577V6.72072H5.01949Z" fill="#410EAD"/>
<path d="M6.04316 2.84492C6.04316 3.01098 6.04671 3.17748 6.04183 3.34354C6.03695 3.50827 5.94735 3.60042 5.78235 3.60265C5.4457 3.6071 5.10905 3.6071 4.77239 3.60265C4.60917 3.60042 4.51824 3.50648 4.51602 3.33998C4.51159 3.00786 4.51159 2.67529 4.51602 2.34317C4.51824 2.17088 4.61138 2.07472 4.78437 2.07205C5.11525 2.0667 5.44658 2.06626 5.77747 2.07205C5.94912 2.07516 6.03783 2.17266 6.04183 2.34674C6.04582 2.5128 6.04271 2.67886 6.04271 2.84536L6.04316 2.84492ZM5.53663 3.09734V2.57958H5.02433V3.09734H5.53663Z" fill="#410EAD"/>
<path d="M6.0433 4.90674C6.0433 5.0679 6.04552 5.22906 6.04286 5.38978C6.03976 5.5781 5.95548 5.6707 5.77185 5.67337C5.4454 5.67872 5.11895 5.67827 4.7925 5.67337C4.6071 5.6707 4.51794 5.57944 4.51617 5.39468C4.51262 5.0728 4.51306 4.75047 4.51617 4.42815C4.51794 4.23671 4.60976 4.14366 4.80403 4.14055C5.1194 4.13609 5.43476 4.13609 5.75012 4.14055C5.95415 4.14322 6.0402 4.23448 6.04286 4.43928C6.04508 4.59465 6.04286 4.75047 6.04286 4.90585L6.0433 4.90674ZM5.53367 5.16718V4.65342H5.02181V5.16718H5.53367Z" fill="#410EAD"/>
<path d="M6.04329 9.04856C6.04329 9.21507 6.0464 9.38202 6.0424 9.54808C6.03797 9.71503 5.95281 9.81253 5.78869 9.81609C5.4516 9.82322 5.11362 9.82321 4.77652 9.81654C4.61063 9.81342 4.5197 9.7177 4.51749 9.55342C4.51305 9.22041 4.51305 8.88696 4.51749 8.55395C4.5197 8.37987 4.61108 8.29039 4.78849 8.28816C5.11495 8.28415 5.4414 8.28415 5.7674 8.28816C5.95325 8.29039 6.03974 8.37987 6.04329 8.56552C6.0464 8.72668 6.04418 8.8874 6.04373 9.04856H6.04329ZM5.02446 8.79435V9.30545H5.53454V8.79435H5.02446Z" fill="#410EAD"/>
<path d="M8.36246 3.604C7.85992 3.604 7.35693 3.61068 6.85439 3.59732C6.76879 3.5951 6.65923 3.52164 6.61 3.44818C6.57496 3.39565 6.59758 3.27055 6.64016 3.20955C6.67919 3.15301 6.77855 3.10983 6.85129 3.10938C7.86746 3.10315 8.88407 3.1036 9.90068 3.10671C10.0692 3.10716 10.1681 3.21401 10.1646 3.36315C10.161 3.51229 10.063 3.60222 9.88693 3.60311C9.37863 3.60578 8.87032 3.604 8.36246 3.604Z" fill="#410EAD"/>
<path d="M8.38483 5.67586C7.91555 5.67586 7.44584 5.67586 6.97656 5.67586C6.93221 5.67586 6.8883 5.6772 6.84394 5.67453C6.68604 5.66473 6.58269 5.57079 6.57826 5.43456C6.57382 5.29388 6.68205 5.18569 6.84616 5.17813C6.97301 5.17189 7.10031 5.17634 7.22717 5.17634C8.07213 5.17634 8.91709 5.17634 9.76249 5.17634C9.81216 5.17634 9.86229 5.17367 9.91152 5.17813C10.0721 5.19193 10.1652 5.28542 10.1648 5.42877C10.1643 5.57391 10.0725 5.66607 9.9093 5.67363C9.77136 5.67987 9.63342 5.67586 9.49503 5.67631C9.12511 5.67631 8.75475 5.67631 8.38483 5.67631V5.67586Z" fill="#410EAD"/>
<path d="M7.86888 9.31964C8.18956 9.31964 8.51025 9.31786 8.83049 9.32053C9.02876 9.32231 9.13432 9.41358 9.1321 9.57207C9.12989 9.72922 9.02344 9.81827 8.8234 9.81871C8.18203 9.82049 7.5411 9.82005 6.89973 9.81871C6.69525 9.81871 6.57594 9.72121 6.57816 9.5645C6.58037 9.40957 6.69703 9.32097 6.90682 9.31964C7.22751 9.31786 7.54819 9.31964 7.86844 9.31964H7.86888Z" fill="#410EAD"/>
<path d="M7.85256 7.2497C8.17857 7.2497 8.50458 7.24792 8.83103 7.25014C9.03195 7.25148 9.1353 7.34052 9.13308 7.50079C9.13087 7.65305 9.02929 7.74654 8.84078 7.74743C8.183 7.75055 7.52522 7.75055 6.86788 7.74743C6.68869 7.74654 6.57692 7.64014 6.57913 7.49456C6.58135 7.34809 6.69224 7.25237 6.87454 7.25103C7.20054 7.24836 7.52655 7.25014 7.853 7.25014L7.85256 7.2497Z" fill="#410EAD"/>
</svg>
