<svg width="15" height="15" viewBox="0 0 15 15" fill="none" xmlns="http://www.w3.org/2000/svg">
<path d="M2.71447 10.5425C2.74284 10.7274 2.7662 10.8806 2.79082 11.0417C2.00862 11.2053 1.20431 11.2742 0.517233 11.7133C0.51473 11.735 0.51181 11.7567 0.509306 11.7785C0.642384 11.8515 0.767953 11.9533 0.910208 11.9922C1.45503 12.1412 1.99902 12.3094 2.55511 12.3996C4.64723 12.7381 6.75728 12.7911 8.87192 12.7226C10.2507 12.678 11.6257 12.5832 12.9794 12.3061C13.3895 12.2222 13.7883 12.0811 14.1879 11.9525C14.296 11.9179 14.3886 11.8348 14.5329 11.7467C14.379 11.657 14.2735 11.5652 14.1512 11.5293C13.6535 11.3844 13.1517 11.2546 12.6502 11.1252C12.5151 11.0905 12.3749 11.0768 12.2143 11.0492C12.2377 10.8898 12.2602 10.7341 12.2865 10.5546C12.5372 10.5988 12.785 10.6247 13.0224 10.6877C13.4879 10.8117 13.951 10.9474 14.4086 11.0976C14.5467 11.1431 14.6719 11.2433 14.7887 11.336C14.9347 11.4516 14.9993 11.6111 14.9977 11.8022C14.9931 12.3332 14.9876 12.8646 14.9997 13.3951C15.006 13.6648 14.8963 13.8538 14.6827 13.9979C14.3494 14.2224 13.9706 14.3355 13.5876 14.4332C12.6423 14.6741 11.6774 14.788 10.7079 14.869C9.10387 15.003 7.49734 15.033 5.88956 14.965C4.38691 14.9016 2.8876 14.796 1.42249 14.4299C1.08292 14.3451 0.753352 14.2074 0.432964 14.0626C0.135521 13.9277 -0.0150776 13.6919 0.00119205 13.3388C0.0241365 12.8504 0.0174618 12.3599 0.00286077 11.8711C-0.00631699 11.5681 0.116331 11.341 0.372474 11.2208C0.718309 11.0588 1.07791 10.9169 1.4446 10.813C1.85301 10.6969 2.27603 10.6331 2.71322 10.5425H2.71447ZM5.011 14.4316C5.76024 14.457 6.5028 14.4821 7.2437 14.5071V13.2586C6.49613 13.2336 5.7569 13.2089 5.011 13.1843V14.4316ZM7.76391 13.2582V14.5088C8.51524 14.4821 9.25446 14.4562 9.99035 14.4303V13.1835C9.24445 13.2085 8.50898 13.2331 7.76391 13.2582ZM2.51715 12.9213V14.1665C3.17962 14.2433 3.83291 14.3188 4.49746 14.3961V13.1488C3.83666 13.0729 3.18212 12.9977 2.51715 12.9213ZM12.488 14.1661V12.9218C11.8213 12.9986 11.1643 13.0741 10.5093 13.1497V14.3961C11.1747 14.3188 11.828 14.2429 12.488 14.1661ZM2.00069 14.055V12.8437C1.49758 12.6964 1.00324 12.5519 0.507638 12.4067C0.507638 12.706 0.515147 13.0236 0.5043 13.3404C0.499711 13.4803 0.550189 13.5621 0.666997 13.6268C1.08167 13.8564 1.53722 13.9532 2.00069 14.055ZM13.004 12.8458V14.0542C13.102 14.0338 13.1951 14.0233 13.2823 13.9945C13.6302 13.8776 13.9785 13.7603 14.3218 13.6301C14.3907 13.6042 14.4858 13.5245 14.4883 13.4661C14.5037 13.1063 14.4962 12.7456 14.4962 12.4067C13.9981 12.5536 13.5117 12.6968 13.0044 12.8462L13.004 12.8458Z" fill="#410EAD"/>
<path d="M7.50527 0.000417506C9.22234 0.000417506 10.9394 0.000417506 12.6565 0.000417506C13.1988 0.000417506 13.4975 0.298453 13.4975 0.839425C13.4975 3.03128 13.4975 5.22313 13.4975 7.41499C13.4975 7.94636 13.1963 8.24857 12.6661 8.24857C11.3704 8.24899 10.0746 8.25024 8.77931 8.24565C8.66208 8.24523 8.59033 8.28071 8.51983 8.37212C8.26535 8.70147 8.00254 9.02455 7.74139 9.34888C7.57702 9.55258 7.42559 9.55091 7.25914 9.34387C7.00174 9.02329 6.74268 8.70397 6.49071 8.37922C6.4177 8.28488 6.34178 8.24523 6.21871 8.24565C4.9284 8.25066 3.63768 8.24899 2.34736 8.24857C1.80546 8.24857 1.50635 7.9497 1.50635 7.40873C1.50635 5.21687 1.50635 3.02502 1.50635 0.833163C1.50635 0.30221 1.80796 0 2.33777 0C4.06027 0 5.78235 0 7.50485 0L7.50527 0.000417506ZM7.50277 8.84798C7.75474 8.53283 7.99962 8.2373 8.2324 7.93217C8.33377 7.79901 8.44808 7.74558 8.6162 7.74642C9.95865 7.75184 11.3011 7.74976 12.6436 7.74934C12.9218 7.74934 12.9982 7.67462 12.9982 7.4008C12.9982 5.21938 12.9982 3.03796 12.9982 0.856121C12.9982 0.572278 12.9247 0.500482 12.6356 0.500482C9.21192 0.500482 5.78778 0.500482 2.36405 0.500482C2.07829 0.500482 2.00654 0.572695 2.00654 0.86113C2.00654 3.03754 2.00654 5.21353 2.00654 7.38994C2.00654 7.67671 2.07912 7.74934 2.36572 7.74934C3.7136 7.74934 5.06106 7.75101 6.40894 7.74725C6.55787 7.74725 6.66383 7.79233 6.75561 7.9113C6.99382 8.22018 7.24162 8.52156 7.50277 8.84798Z" fill="#410EAD"/>
<path d="M3.25522 10.9998C3.25522 10.7657 3.25356 10.5311 3.25564 10.2969C3.25731 10.0915 3.34658 10.001 3.55016 9.99928C3.8572 9.9972 4.16424 9.99678 4.47128 9.99928C4.6565 10.001 4.75162 10.0945 4.75287 10.2781C4.75579 10.7573 4.75537 11.2361 4.75287 11.7153C4.75203 11.9006 4.65775 11.9954 4.47378 11.997C4.16174 12.0004 3.84928 12 3.53723 11.997C3.35201 11.9954 3.25856 11.9019 3.25564 11.7178C3.2523 11.4782 3.25481 11.2386 3.25481 10.9994L3.25522 10.9998ZM4.2435 11.4915V10.5115H3.76292V11.4915H4.2435Z" fill="#410EAD"/>
<path d="M7.75183 11.0139C7.75183 11.2431 7.75349 11.4723 7.75141 11.7014C7.74932 11.9051 7.6588 11.9965 7.45522 11.9978C7.1536 11.9999 6.85157 11.9999 6.54996 11.9978C6.34596 11.9961 6.25502 11.9055 6.25418 11.7014C6.25251 11.2327 6.25251 10.7643 6.25418 10.2956C6.25502 10.091 6.34596 10.0009 6.55037 9.99961C6.85199 9.99753 7.15402 9.99753 7.45563 9.99961C7.65963 10.0009 7.75016 10.0919 7.75183 10.296C7.75391 10.5356 7.75224 10.7752 7.75224 11.0144L7.75183 11.0139ZM7.24538 10.5093H6.7648V11.4898H7.24538V10.5093Z" fill="#410EAD"/>
<path d="M9.25084 10.9934C9.25084 10.7592 9.24917 10.5246 9.25126 10.2905C9.25335 10.0943 9.34346 10.0012 9.53619 9.99911C9.84323 9.99619 10.1503 9.9966 10.4573 9.99911C10.653 10.0008 10.7477 10.0918 10.7485 10.2842C10.751 10.758 10.7506 11.2317 10.7485 11.7055C10.7477 11.9013 10.6555 11.9952 10.4631 11.9969C10.1561 11.9998 9.84907 11.9994 9.54203 11.9969C9.34095 11.9952 9.25209 11.9025 9.25084 11.6959C9.24917 11.4617 9.25043 11.2271 9.25084 10.993V10.9934ZM9.76146 10.5054V11.4855H10.2416V10.5054H9.76146Z" fill="#410EAD"/>
<path d="M5.74661 10.0063V11.987H5.2627V10.0063H5.74661Z" fill="#410EAD"/>
<path d="M8.73847 11.9926H8.26123V10.0078H8.73847V11.9926Z" fill="#410EAD"/>
<path d="M11.7427 10.0063V11.987H11.2588V10.0063H11.7427Z" fill="#410EAD"/>
<path d="M3.00879 6.74894V6.24887C3.06135 6.24887 3.11058 6.24887 3.16022 6.24887C3.90946 6.24887 4.65912 6.24678 5.40836 6.25138C5.50389 6.25179 5.60484 6.27392 5.6937 6.31023C6.08751 6.47261 6.47965 6.63999 6.86887 6.81322C7.11375 6.92216 7.35071 6.92175 7.58974 6.80195C8.84001 6.17582 10.0903 5.55012 11.3405 4.92399C11.3631 4.91272 11.3843 4.89811 11.4052 4.88601C11.3489 4.66185 10.9496 4.5024 10.6443 4.63639C10.1829 4.83926 9.71857 5.03502 9.25509 5.23371C8.90175 5.38524 8.54632 5.53258 8.19589 5.69078C8.06157 5.75131 7.94184 5.75423 7.80876 5.69162C7.65357 5.61899 7.49171 5.56097 7.33193 5.49919C6.99069 5.36687 6.66446 5.17277 6.26397 5.26126V4.74701C6.43668 4.74701 6.60689 4.75202 6.7771 4.74575C7.08914 4.73448 7.35363 4.53872 7.43998 4.24903C7.08872 4.24903 6.74289 4.24694 6.39705 4.25237C6.35867 4.25279 6.3157 4.29286 6.28442 4.32375C6.09502 4.50991 5.91355 4.70401 5.7179 4.88308C5.65449 4.94111 5.55687 4.99245 5.47427 4.99328C4.67288 5.00121 3.8715 4.99787 3.07011 4.99746C3.0551 4.99746 3.04049 4.99245 3.0163 4.98786V4.50198H5.00495V4.32583C5.00495 3.33113 5.00495 2.33643 5.00495 1.34214C5.00495 1.07625 5.08255 0.999023 5.34828 0.999023C7.28438 0.999023 9.22047 0.999023 11.1561 0.999023C11.4219 0.999023 11.4995 1.07708 11.4995 1.34256C11.4995 2.26964 11.5011 3.1963 11.4974 4.12339C11.4974 4.21563 11.5353 4.26614 11.5938 4.33293C11.7281 4.48737 11.8616 4.651 11.9525 4.83216C12.0585 5.04337 12.0022 5.15023 11.7882 5.25751C10.8595 5.72376 9.93007 6.18835 9.00062 6.65335C8.61974 6.84411 8.23594 7.02944 7.85799 7.22604C7.45625 7.43475 7.05702 7.44602 6.6436 7.25985C6.25063 7.08287 5.86433 6.85579 5.45007 6.76981C5.04083 6.68507 4.6003 6.74852 4.17395 6.74768C3.79015 6.74727 3.40635 6.74768 3.00921 6.74768L3.00879 6.74894ZM5.51182 4.35422C5.52266 4.36257 5.53351 4.37091 5.54435 4.37885C5.70747 4.20729 5.86391 4.02863 6.03703 3.86834C6.10295 3.8074 6.20682 3.75689 6.29443 3.75481C6.7675 3.74395 7.24099 3.74813 7.71448 3.75022C7.91347 3.75105 8.00942 3.85415 7.99857 4.05535C7.98022 4.39805 7.84255 4.68732 7.59225 4.92232C7.56054 4.95196 7.52926 4.98201 7.48712 5.02208C7.61102 5.07176 7.72074 5.1064 7.82127 5.15941C7.94309 5.2237 8.04988 5.21326 8.17337 5.15691C8.48458 5.01374 8.80037 4.87933 9.11826 4.75202C9.22297 4.71027 9.25342 4.65517 9.25301 4.54539C9.24883 3.58241 9.2505 2.61943 9.25009 1.65687C9.25009 1.6072 9.2455 1.55711 9.24341 1.50744H8.75073C8.75073 1.56504 8.75073 1.61555 8.75073 1.66647C8.75073 2.01502 8.7524 2.36398 8.7499 2.71252C8.74865 2.89284 8.65895 2.99511 8.49083 2.99761C8.16335 3.00262 7.83546 3.00262 7.50756 2.99761C7.35154 2.99511 7.25851 2.89743 7.2535 2.74007C7.2485 2.58395 7.25184 2.42784 7.25184 2.27173C7.25184 2.01835 7.25184 1.7654 7.25184 1.51078H5.5114V4.35422H5.51182ZM10.9889 4.09041V1.51245H9.75778V4.46275C10.1699 4.33961 10.5229 4.05368 10.9889 4.09041ZM8.24387 2.49296V1.50911H7.76245V2.49296H8.24387Z" fill="#410EAD"/>
</svg>
