<svg width="15" height="15" viewBox="0 0 15 15" fill="none" xmlns="http://www.w3.org/2000/svg">
<path d="M2.79038 6.75504C2.71108 6.40459 2.6155 6.06957 2.56167 5.72829C2.24864 3.7407 3.21609 1.71849 4.9569 0.697997C5.73694 0.240735 6.57918 0.00459474 7.48318 0.00334311C8.06081 0.00250869 8.64052 -0.0133452 9.21523 0.0321307C11.2432 0.192339 12.9982 1.65591 13.5558 3.6243C13.7766 4.40407 13.8104 5.19259 13.6459 5.98612C13.6209 6.1067 13.6413 6.17011 13.7407 6.24438C14.3054 6.66659 14.7311 7.19186 14.9155 7.88651C14.9489 8.01167 14.9831 8.14143 14.9844 8.26909C14.9907 8.92453 15.0199 9.58205 14.9773 10.235C14.9264 11.016 14.5028 11.6201 13.9151 12.1108C13.1793 12.7253 12.3145 13.0453 11.3755 13.1801C10.4978 13.3061 9.63217 13.2451 8.7795 12.9986C8.73818 12.9865 8.65847 13.0023 8.63927 13.0324C8.03535 13.9853 7.13093 14.5101 6.07375 14.7838C4.57126 15.1731 3.10966 15.0508 1.73153 14.3015C1.03872 13.9248 0.485714 13.4003 0.180623 12.6519C0.0595886 12.3544 0.0019927 12.0444 0.00241006 11.7236C0.00324478 11.1929 0.011592 10.6618 0.000740581 10.1311C-0.0201274 9.12229 0.400989 8.32166 1.14097 7.66873C1.58337 7.27822 2.09255 7.00078 2.64889 6.80803C2.7019 6.78967 2.75407 6.76881 2.79038 6.75546V6.75504ZM7.49361 9.49485C9.97315 9.49903 11.9978 7.47973 11.9994 5.00068C12.0011 2.52746 9.99027 0.509418 7.51532 0.501074C5.03536 0.49273 3.00824 2.50743 3.00198 4.98691C2.99572 7.46597 5.01324 9.49068 7.49361 9.49485ZM3.95315 8.52568C3.83086 8.38466 3.72568 8.25658 3.61174 8.13726C3.58879 8.11306 3.52702 8.11014 3.48821 8.11932C2.93729 8.25032 2.43354 8.47728 2.02452 8.87738C1.63012 9.26289 1.41017 9.72056 1.53997 10.2834C1.58546 10.4811 1.68688 10.6664 1.76701 10.8671C1.65265 10.9488 1.52619 11.0385 1.39514 11.132C1.36718 11.0974 1.3413 11.0715 1.32294 11.041C0.918099 10.3814 0.883876 9.70763 1.2716 9.03175C1.58671 8.48229 2.07502 8.12599 2.6443 7.87483C2.84213 7.78763 3.04914 7.72046 3.25824 7.64203C3.17602 7.496 3.09756 7.35666 3.01575 7.21188C2.25407 7.45136 1.58421 7.82435 1.08087 8.44808C0.52578 9.13564 0.346732 9.90831 0.637215 10.759C0.835462 11.3402 1.21276 11.8016 1.71693 12.137C3.27368 13.1721 4.92184 13.2568 6.61924 12.5288C7.31498 12.2305 7.87341 11.7524 8.23234 11.0698C8.40638 10.739 8.49987 10.3868 8.4982 9.99092H7.01365C6.90013 10.6743 6.25572 11.2763 5.56416 11.3314C5.52326 11.185 5.48152 11.0364 5.4377 10.8796C5.49279 10.86 5.54454 10.8487 5.58836 10.8245C5.81457 10.7006 6.05414 10.5925 6.25865 10.439C6.36883 10.3564 6.4331 10.1995 6.49111 10.0643C6.5341 9.96463 6.49863 9.88912 6.36215 9.85866C5.7624 9.72474 5.20272 9.48609 4.70356 9.12771C4.53954 9.01006 4.38136 8.98753 4.19521 9.00588C3.73528 9.05094 3.29538 9.159 2.89221 9.41225C2.79664 9.27165 2.70816 9.14106 2.6155 9.00505C3.02368 8.72385 3.4736 8.60828 3.95356 8.52568H3.95315ZM9.00029 11.0381C9.98108 11.3247 11.1451 11.3101 12.1276 11.0035C12.835 10.7828 13.4711 10.4432 13.9581 9.86993C14.6864 9.01256 14.6793 7.95744 13.9389 7.10591C13.8016 6.94821 13.6422 6.81011 13.4756 6.64573C13.4189 6.78258 13.3851 6.88604 13.3346 6.98075C13.2832 7.07713 13.2937 7.13637 13.3792 7.21522C13.7565 7.56318 14.0032 7.98247 13.9965 8.51191C13.9894 9.07806 13.7135 9.51864 13.2866 9.8595C12.3471 10.6096 11.2465 10.8007 10.0833 10.7231C9.72357 10.6993 9.36715 10.6176 9.00029 10.5608V11.0377V11.0381ZM13.0357 7.58362C12.0933 9.03926 10.7615 9.83989 9.00822 9.99801C9.72524 10.2704 10.7411 10.3172 11.5566 10.1294C12.138 9.99509 12.6797 9.77814 13.1084 9.34591C13.6518 8.79728 13.6259 8.11514 13.0357 7.58362ZM10.2428 11.7595C9.82374 11.6994 9.4164 11.641 9.02491 11.5847C8.98568 11.8901 8.94686 12.1959 8.90262 12.5396C9.33835 12.6127 9.78367 12.6873 10.2428 12.7641V11.7595ZM4.75782 14.5005C5.09838 14.4546 5.42017 14.4117 5.73987 14.3687V13.3724C5.40639 13.4162 5.08419 13.4583 4.75782 13.5013V14.5005ZM4.24279 13.5009C3.9135 13.4575 3.59004 13.415 3.26033 13.3716V14.3699C3.58754 14.4129 3.90932 14.4551 4.24279 14.4989V13.5009ZM11.7398 12.6206V11.6318C11.4076 11.6727 11.085 11.7119 10.7599 11.752V12.7503C11.0942 12.7061 11.4156 12.6636 11.7398 12.6206ZM2.74781 13.2381C2.41601 13.0883 2.09172 12.9418 1.75282 12.7891C1.75282 13.0862 1.75157 13.3807 1.75491 13.6749C1.75491 13.7049 1.77578 13.75 1.8004 13.7629C2.10716 13.9223 2.41601 14.0766 2.74823 14.2444V13.2381H2.74781ZM7.25071 12.7958C6.92851 12.9339 6.62425 13.0624 6.3225 13.1968C6.29036 13.2109 6.25489 13.261 6.25447 13.2952C6.24905 13.5952 6.25155 13.8952 6.25155 14.2465C6.58752 14.0771 6.89595 13.9235 7.20146 13.7642C7.22859 13.75 7.24862 13.6974 7.24904 13.6624C7.2528 13.3728 7.25113 13.0837 7.25113 12.7958H7.25071ZM12.2494 12.4988C12.5829 12.3306 12.883 12.1813 13.1797 12.0261C13.2123 12.009 13.2453 11.9568 13.2461 11.9201C13.2515 11.6464 13.249 11.3727 13.249 11.0986C12.9276 11.2259 12.6155 11.3468 12.3066 11.4753C12.2774 11.4874 12.2524 11.5467 12.2519 11.5847C12.2474 11.87 12.2494 12.155 12.2494 12.4988ZM12.358 3.74863C12.4097 4.08782 12.4598 4.41366 12.5086 4.73491H13.2632C13.2056 4.42785 13.1539 4.13747 13.0938 3.84876C13.0858 3.8108 13.0366 3.75447 13.0049 3.75322C12.7883 3.74488 12.5712 3.74863 12.358 3.74863ZM12.3592 6.24646C12.5691 6.24646 12.777 6.25022 12.984 6.24271C13.0211 6.24146 13.0821 6.1989 13.0888 6.16594C13.1518 5.86805 13.2052 5.5685 13.2636 5.25517H12.5082C12.459 5.5831 12.4101 5.90519 12.3588 6.24605L12.3592 6.24646ZM12.9085 6.7905C12.893 6.7759 12.8776 6.76088 12.8621 6.74628C12.6651 6.74628 12.4681 6.74336 12.2716 6.74878C12.2336 6.75003 12.1777 6.77548 12.1626 6.80594C12.0082 7.11384 11.8605 7.4255 11.7065 7.74508C11.888 7.74508 12.0733 7.74675 12.2582 7.74341C12.2849 7.74299 12.3229 7.72672 12.3362 7.70544C12.5291 7.40172 12.7181 7.0959 12.9085 6.7905ZM12.8901 3.2484C12.7419 2.88626 12.5554 2.57335 12.3304 2.28214C12.317 2.26462 12.2866 2.25127 12.264 2.25127C12.0758 2.24876 11.8876 2.25002 11.7056 2.25002C11.8613 2.57168 12.0078 2.87917 12.1597 3.18373C12.1743 3.21293 12.2186 3.24464 12.2503 3.24548C12.456 3.2509 12.6618 3.2484 12.8905 3.2484H12.8901ZM0.503243 11.6648C0.486966 12.3239 0.765345 12.8567 1.25282 13.344C1.25282 13.0253 1.25449 12.7466 1.25074 12.4683C1.25074 12.4374 1.22778 12.4007 1.20483 12.3774C0.974025 12.1404 0.741138 11.9059 0.503243 11.6652V11.6648ZM7.75113 13.3453C8.23819 12.8534 8.51823 12.3219 8.49945 11.6664C8.26156 11.9067 8.02533 12.1441 7.79161 12.384C7.76949 12.407 7.75321 12.4462 7.7528 12.4783C7.74987 12.7528 7.75113 13.0269 7.75113 13.3453ZM13.7494 11.5963C14.1993 11.1424 14.474 10.6568 14.4969 10.0514C14.2544 10.2792 14.017 10.5007 13.782 10.7248C13.7628 10.7431 13.7511 10.779 13.7507 10.807C13.7482 11.0556 13.7494 11.3039 13.7494 11.5963ZM10.1297 0.732625C10.5441 1.01174 10.9277 1.32757 11.2578 1.70597C11.2737 1.72433 11.2987 1.74603 11.32 1.74644C11.4869 1.74978 11.6539 1.74811 11.855 1.74811C11.3342 1.26206 10.7737 0.929131 10.1292 0.732625H10.1297ZM10.1318 9.26289C10.7728 9.06346 11.3371 8.73553 11.8534 8.24656C11.6564 8.24656 11.4974 8.24406 11.3388 8.24907C11.3083 8.2499 11.2716 8.27452 11.2499 8.29913C10.9218 8.6717 10.5429 8.98419 10.1313 9.26289H10.1318Z" fill="#410EAD"/>
<path d="M1.50808 2.99802C1.37285 3.00135 1.25558 2.90331 1.25599 2.7552C1.2585 2.24454 0.844893 1.75932 0.25391 1.74764C0.102409 1.74472 0.00516369 1.6375 0.0039116 1.50149C0.00307688 1.36548 0.0999046 1.2545 0.250154 1.25283C0.808583 1.24657 1.25057 0.79223 1.25474 0.24819C1.25599 0.0979943 1.36785 0.00120177 1.50391 0.0024534C1.63955 0.00370503 1.74764 0.101332 1.74931 0.252779C1.75432 0.788476 2.18671 1.23906 2.74221 1.25199C2.90206 1.25575 3.00348 1.36548 3.00014 1.50608C2.9968 1.64083 2.89747 1.73554 2.74555 1.74973C2.14038 1.80563 1.80858 2.13773 1.7514 2.74435C1.73721 2.8958 1.64205 2.9951 1.50724 2.99802H1.50808ZM1.85282 1.49773C1.74264 1.38884 1.60866 1.25617 1.50432 1.15312C1.39247 1.26451 1.26142 1.39468 1.16292 1.49314C1.27018 1.60579 1.4004 1.74222 1.50057 1.84777C1.61367 1.73554 1.74472 1.60495 1.85282 1.49731V1.49773Z" fill="#410EAD"/>
<path d="M13.4107 13.2773C13.4963 13.4272 13.5726 13.5616 13.649 13.6951C12.8268 14.3441 10.3815 14.7143 9.20996 14.3612C9.23667 14.2131 9.2638 14.0624 9.2951 13.8884C10.0009 14.0019 10.7029 14.0315 11.4061 13.9305C12.106 13.8303 12.773 13.6296 13.4103 13.2773H13.4107Z" fill="#410EAD"/>
<path d="M1.44995 6.56032C1.27758 5.86708 1.21164 5.18678 1.27758 4.48145C1.4487 4.4948 1.60187 4.50649 1.76882 4.51984C1.72207 5.16967 1.77341 5.7978 1.93242 6.43594C1.77341 6.47685 1.62024 6.51691 1.44995 6.56074V6.56032Z" fill="#410EAD"/>
<path d="M13.856 12.9989C14.0146 12.8574 14.1606 12.7268 14.3201 12.5845C14.4344 12.6892 14.5509 12.7961 14.6886 12.9221C14.51 13.082 14.3393 13.2339 14.156 13.3979C14.0496 13.2564 13.9574 13.1337 13.856 12.9989Z" fill="#410EAD"/>
<path d="M1.44829 3.43506C1.62274 3.48055 1.76715 3.51811 1.92783 3.56027C1.89611 3.71552 1.86606 3.86452 1.83142 4.03522C1.67241 4.00976 1.51757 3.98514 1.33936 3.95676C1.37608 3.78022 1.41156 3.61202 1.44829 3.43506Z" fill="#410EAD"/>
<path d="M5.00168 4.98616C5.00168 4.59607 5.00502 4.20556 5.00001 3.81547C4.99792 3.6682 5.05385 3.5714 5.1824 3.50048C5.89733 3.10663 6.61102 2.71154 7.32262 2.31185C7.45117 2.23967 7.56219 2.24426 7.68781 2.31477C8.39524 2.71112 9.10391 3.10538 9.81426 3.49631C9.94907 3.57057 10.0029 3.67153 10.0021 3.82423C9.9979 4.60441 9.9979 5.38501 10.0021 6.16561C10.0029 6.32415 9.9474 6.4272 9.80633 6.50439C9.10016 6.89197 8.39607 7.28415 7.69365 7.67883C7.5626 7.75226 7.44783 7.75643 7.31427 7.68092C6.60768 7.2829 5.89859 6.88989 5.18824 6.49938C5.05343 6.42512 4.99709 6.3254 4.99959 6.17229C5.00543 5.77677 5.00168 5.38168 5.00168 4.98616ZM5.50168 4.99659C5.50168 5.32452 5.50501 5.65244 5.49959 5.97995C5.49834 6.07007 5.52755 6.11722 5.60727 6.16102C6.20451 6.48811 6.80008 6.81896 7.39274 7.15356C7.47746 7.20154 7.53965 7.19362 7.6202 7.14814C8.20909 6.81688 8.79966 6.48811 9.39189 6.16311C9.46911 6.12055 9.50291 6.07549 9.50249 5.98371C9.49832 5.32827 9.49874 4.67242 9.50249 4.01698C9.50291 3.9277 9.47537 3.87889 9.39565 3.8355C8.79841 3.50841 8.20367 3.17714 7.60976 2.84337C7.53339 2.8004 7.47454 2.79832 7.39649 2.84254C6.80301 3.17672 6.20827 3.50799 5.61061 3.83466C5.5238 3.88223 5.49834 3.93563 5.50001 4.0295C5.50543 4.352 5.50209 4.67451 5.50209 4.99743L5.50168 4.99659Z" fill="#410EAD"/>
<path d="M5.11753 7.56969C5.00609 7.6886 4.9005 7.80125 4.79532 7.91306C3.52154 6.84667 2.92137 4.52699 4.25192 2.67166C5.58831 0.807984 8.01025 0.61273 9.48896 1.5477C9.40966 1.68496 9.33036 1.82222 9.25106 1.95948C7.52069 1.01158 5.62295 1.63531 4.67679 2.93241C3.70142 4.26999 3.74149 6.23588 5.11753 7.56969Z" fill="#410EAD"/>
<path d="M10.076 2.61435C10.1954 2.50254 10.3085 2.39657 10.4211 2.29102C11.5401 3.39871 11.9946 5.55109 10.7751 7.29002C9.54803 9.04021 7.28259 9.42112 5.64111 8.52621C5.71415 8.38728 5.78719 8.24751 5.86691 8.09523C6.80179 8.55625 7.7563 8.63009 8.72958 8.27004C9.40654 8.01972 9.95078 7.58957 10.369 6.99922C11.207 5.81602 11.2989 4.00783 10.076 2.61394V2.61435Z" fill="#410EAD"/>
<path d="M7.78905 10.8583C7.49815 11.3946 7.07452 11.7657 6.55366 12.0148C5.19473 12.6638 3.82662 12.6618 2.46019 12.0269C2.42346 12.0098 2.38923 11.9865 2.34082 11.9585C2.42137 11.8149 2.49858 11.6764 2.55952 11.5679C2.94516 11.6876 3.30868 11.8333 3.68639 11.9105C4.54949 12.087 5.39423 11.9998 6.20307 11.638C6.70099 11.4155 6.9777 11.1718 7.35332 10.6367C7.49147 10.7073 7.63253 10.779 7.78905 10.8588V10.8583Z" fill="#410EAD"/>
<path d="M4.73819 10.9947C4.74612 11.162 4.75364 11.3156 4.76324 11.5147C4.42517 11.4863 4.10464 11.4759 3.78912 11.4292C3.29371 11.3557 2.83044 11.1862 2.4448 10.854C2.10757 10.5635 1.9256 10.2075 2.03537 9.74802C2.04121 9.72382 2.05498 9.7017 2.07084 9.66455C2.22068 9.71839 2.36508 9.77056 2.51909 9.82607C2.44104 10.2209 2.67727 10.4417 2.96817 10.6182C3.44062 10.9045 3.96649 10.9897 4.50948 10.9947C4.57668 10.9955 4.64387 10.9947 4.73778 10.9947H4.73819Z" fill="#410EAD"/>
<path d="M6.38867 4.02539C6.74176 3.85093 7.07773 3.67731 7.42206 3.52163C7.48299 3.49409 7.58984 3.51829 7.65453 3.55544C8.05519 3.78624 8.45294 4.0233 8.844 4.26996C8.9137 4.31378 8.98799 4.41144 8.99133 4.48782C9.00761 4.81879 8.99843 5.15101 8.99843 5.49074H8.5001C8.5001 5.25618 8.49384 5.01912 8.50302 4.78248C8.50719 4.67396 8.46921 4.6147 8.3774 4.56253C8.11112 4.41061 7.85236 4.24533 7.58483 4.0955C7.53391 4.06712 7.44585 4.06503 7.39242 4.08924C7.13324 4.20735 6.88032 4.33882 6.61363 4.47113C6.54017 4.32589 6.47089 4.18774 6.38867 4.02539Z" fill="#410EAD"/>
</svg>
