<svg width="15" height="15" viewBox="0 0 15 15" fill="none" xmlns="http://www.w3.org/2000/svg">
<path d="M14.3953 7.48938C13.4375 8.21442 12.3519 8.4788 11.2358 8.66156C11.1617 8.67358 11.0881 8.6886 11.0135 8.6946C10.8167 8.71163 10.6685 8.59947 10.651 8.42522C10.6344 8.26149 10.7521 8.13631 10.9404 8.09675C11.4646 7.98659 11.9929 7.88945 12.5101 7.75276C12.9938 7.62457 13.45 7.41828 13.8591 7.12135C14.2186 6.86048 14.4219 6.54152 14.4033 6.06384C14.3723 5.24116 14.3948 4.41698 14.3948 3.56676C14.3372 3.60532 14.2977 3.62935 14.2611 3.65689C13.5767 4.17213 12.787 4.44151 11.9608 4.59974C10.298 4.9187 8.64509 4.88315 7.01676 4.38543C6.73185 4.29831 6.45195 4.18465 6.18507 4.05246C5.91919 3.92077 5.67233 3.75052 5.39744 3.58529C5.39744 3.68593 5.40195 3.78858 5.39644 3.89073C5.38692 4.07799 5.25724 4.20468 5.0885 4.19867C4.92627 4.19316 4.80209 4.07098 4.80059 3.89073C4.79658 3.36597 4.78957 2.84072 4.80459 2.31647C4.81461 1.97148 4.98235 1.68357 5.21468 1.43521C5.67584 0.941002 6.26468 0.658097 6.89208 0.451801C8.24902 0.00566259 9.64202 -0.0794593 11.055 0.0637457C11.8917 0.148367 12.7054 0.326622 13.4745 0.676122C13.8636 0.852876 14.2251 1.07169 14.527 1.38013C14.838 1.69758 14.9992 2.06762 14.9982 2.52277C14.9912 5.03436 14.9887 7.54546 14.9997 10.0571C15.0022 10.5878 14.7979 10.9979 14.4159 11.3384C13.9246 11.776 13.3398 12.0509 12.7144 12.2096C12.094 12.3669 11.4566 12.459 10.8237 12.5636C10.6284 12.5957 10.4982 12.472 10.4832 12.2998C10.4682 12.126 10.5759 12.0018 10.7696 11.9708C10.8067 11.9648 10.8442 11.9653 10.8818 11.9613C11.6168 11.8862 12.3384 11.749 13.0274 11.4716C13.4294 11.3098 13.809 11.1096 14.1159 10.7941C14.3017 10.6028 14.4013 10.382 14.3983 10.1056C14.3898 9.30598 14.3953 8.50634 14.3953 7.70669V7.49088V7.48938ZM9.88236 4.20117C10.8848 4.18815 11.8557 4.0825 12.7905 3.75253C13.2642 3.58529 13.7189 3.37999 14.0829 3.02048C14.4975 2.61139 14.4955 2.19079 14.0854 1.7797C14.0328 1.72663 13.9807 1.66654 13.9161 1.63249C13.5381 1.4317 13.1741 1.18335 12.7725 1.05016C10.9619 0.448296 9.12878 0.455807 7.29616 0.951517C6.73435 1.10373 6.19709 1.33106 5.75746 1.73213C5.28127 2.16676 5.26625 2.64544 5.76096 3.05603C6.04437 3.29137 6.37634 3.48565 6.71533 3.63236C7.72828 4.07149 8.80682 4.18515 9.88236 4.20067V4.20117Z" fill="#410EAD"/>
<path d="M10.1966 9.91515C10.1931 12.7252 7.89932 15.0024 5.07678 14.9979C2.26776 14.9934 -0.00599672 12.6976 1.18813e-05 9.87158C0.00602048 7.08059 2.2993 4.79582 5.0918 4.79932C7.92236 4.80283 10.2001 7.08559 10.1966 9.91515ZM0.599871 9.89662C0.59937 12.3757 2.61676 14.3991 5.0873 14.3981C7.58137 14.3966 9.59225 12.3912 9.59675 9.90012C9.60126 7.42508 7.58437 5.40218 5.10933 5.39918C2.62026 5.39618 0.600371 7.41056 0.599871 9.89662Z" fill="#410EAD"/>
<path d="M7.79772 9.91448C7.79772 10.3451 7.79371 10.7762 7.79972 11.2068C7.80222 11.3826 7.73663 11.5002 7.58391 11.5879C6.83183 12.0185 6.08076 12.4521 5.33269 12.8902C5.16895 12.9864 5.02675 12.9844 4.86201 12.8877C4.11995 12.4516 3.37488 12.0205 2.62731 11.5944C2.46859 11.5038 2.39598 11.3886 2.39698 11.2038C2.40199 10.3296 2.40149 9.45532 2.39698 8.58107C2.39598 8.41283 2.45857 8.29866 2.60478 8.21504C3.36788 7.77842 4.12997 7.33979 4.88955 6.89666C5.03626 6.81103 5.16495 6.81354 5.30965 6.89766C6.06974 7.33979 6.83183 7.77842 7.59493 8.21554C7.74164 8.29967 7.80072 8.41733 7.79872 8.58407C7.79371 9.02721 7.79672 9.47084 7.79672 9.91398L7.79772 9.91448ZM3.27124 8.52649C3.29577 8.54902 3.31129 8.56855 3.33182 8.58057C3.89363 8.90503 4.45443 9.231 5.02024 9.54745C5.06831 9.57449 5.16345 9.55747 5.21802 9.52692C5.75079 9.22699 6.27954 8.92055 6.8088 8.61462C6.84786 8.59208 6.88341 8.56204 6.93198 8.52699C6.34364 8.187 5.77232 7.85453 5.19749 7.52906C5.14993 7.50202 5.0613 7.49852 5.01473 7.52506C4.4339 7.85303 3.85708 8.18851 3.27224 8.52649H3.27124ZM4.79842 12.1477C4.79842 11.4762 4.80143 10.8453 4.79292 10.2149C4.79241 10.1598 4.72732 10.0862 4.67324 10.0542C4.16802 9.75575 3.65929 9.46433 3.15056 9.17141C3.1095 9.14788 3.06494 9.13035 2.99935 9.09931C2.99935 9.75775 2.99835 10.3932 3.00235 11.0281C3.00235 11.0676 3.0364 11.1232 3.07095 11.1432C3.63426 11.4747 4.20057 11.8012 4.79842 12.1477ZM5.39828 12.1231C5.43634 12.1146 5.45586 12.1141 5.47039 12.1061C6.01667 11.7917 6.56395 11.4787 7.10573 11.1568C7.1548 11.1277 7.19285 11.0391 7.19385 10.9775C7.20036 10.3842 7.19786 9.7903 7.19686 9.19695C7.19686 9.16991 7.18784 9.14287 7.17983 9.09681C6.6005 9.43129 6.0382 9.75325 5.4809 10.0832C5.43634 10.1098 5.40329 10.1914 5.40179 10.2485C5.39378 10.5419 5.39828 10.8358 5.39828 11.1292C5.39828 11.4577 5.39828 11.7862 5.39828 12.1231Z" fill="#410EAD"/>
</svg>
