<svg width="15" height="16" viewBox="0 0 15 16" fill="none" xmlns="http://www.w3.org/2000/svg">
<path d="M7.97013 0.000668734C8.24965 0.0387857 8.53118 0.0648657 8.80803 0.117026C10.9031 0.511236 12.5522 1.59623 13.7448 3.35831C14.6209 4.65228 15.0398 6.09537 14.997 7.65616C14.9368 9.84889 14.0715 11.6805 12.4352 13.1387C11.3712 14.0866 10.1261 14.6814 8.71909 14.9007C6.58788 15.2327 4.64425 14.7539 2.93233 13.4366C1.37756 12.2402 0.440017 10.6564 0.100308 8.72244C0.0565067 8.47367 0.0331016 8.2209 0 7.97013C0 7.6575 0 7.34487 0 7.03258C0.0224021 6.84935 0.041795 6.66579 0.067875 6.4829C0.282534 4.97928 0.888393 3.65321 1.9015 2.52174C3.01993 1.27224 4.40251 0.471781 6.05124 0.145446C6.37523 0.0812494 6.70491 0.0478134 7.03225 0C7.34487 0 7.6575 0 7.96979 0L7.97013 0.000668734ZM0.712854 7.49601C0.708173 11.2275 3.75853 14.2848 7.49199 14.2899C11.2265 14.2952 14.2775 11.2542 14.2895 7.5144C14.3019 3.78562 11.2492 0.719542 7.51774 0.713523C3.77425 0.707505 0.717535 3.75385 0.712854 7.49567V7.49601Z" fill="#410EAD"/>
<path d="M7.5004 13.3709V10.6429C7.24929 10.67 7.01257 10.7031 6.77484 10.7161C6.70395 10.7201 6.61067 10.687 6.56085 10.6375C5.82459 9.90996 5.09267 9.17805 4.36511 8.44179C4.31562 8.39197 4.28386 8.29801 4.28754 8.22713C4.30091 7.9894 4.33401 7.75267 4.36143 7.50157H1.64844C1.69625 7.44941 1.72367 7.41764 1.75309 7.38788C2.51577 6.62454 3.27744 5.8602 4.04479 5.10153C4.09896 5.0477 4.19425 5.00992 4.27115 5.00858C4.75932 5.00022 5.24782 5.00791 5.73598 5.00056C5.81589 4.99922 5.91085 4.96946 5.9717 4.91964C6.97512 4.09745 8.14069 3.64406 9.39922 3.40098C10.1786 3.25052 10.9664 3.20003 11.7692 3.2231C11.7745 3.2552 11.7839 3.28697 11.7842 3.31906C11.8049 4.60334 11.6481 5.85986 11.1961 7.06991C10.9276 7.78845 10.5618 8.45115 10.0726 9.04497C10.0285 9.0988 10.0031 9.18406 10.0024 9.25528C9.99639 9.75314 10.0011 10.2513 9.99672 10.7492C9.99639 10.807 9.98034 10.8816 9.94256 10.9197C9.1421 11.7279 8.33763 12.532 7.50006 13.3709H7.5004ZM11.0667 3.92894C10.6631 3.96906 10.2789 3.9928 9.89909 4.04763C8.82112 4.20311 7.79731 4.52142 6.88517 5.13464C5.8821 5.80904 5.199 6.70178 5.0248 7.93222C5.00908 8.04289 5.0355 8.11144 5.11207 8.18734C5.68115 8.7504 6.24755 9.3158 6.80994 9.88555C6.89387 9.97048 6.97144 9.99823 7.09147 9.98084C8.05944 9.84075 8.84017 9.36896 9.47378 8.64073C10.196 7.81051 10.6006 6.82583 10.8417 5.76557C10.9761 5.17476 11.0463 4.57592 11.0667 3.9286V3.92894ZM3.36103 6.78871C3.77764 6.78871 4.14711 6.79172 4.51657 6.78403C4.55636 6.78336 4.60718 6.72652 4.63226 6.68339C4.78373 6.42259 4.92817 6.15811 5.07729 5.89597C5.10939 5.8398 5.15119 5.78898 5.20268 5.71575C4.94656 5.71575 4.72321 5.71408 4.49985 5.71742C4.46508 5.71809 4.42128 5.7328 4.39721 5.75654C4.06117 6.08823 3.72782 6.42225 3.36136 6.78838L3.36103 6.78871ZM8.21392 11.5978C8.22596 11.6025 8.23799 11.6068 8.25003 11.6115C8.58339 11.2765 8.91674 10.9418 9.2491 10.6061C9.26514 10.5897 9.2842 10.566 9.28454 10.5456C9.28688 10.3055 9.28621 10.0658 9.28621 9.84409C8.94215 10.0287 8.60779 10.2069 8.27578 10.3891C8.24769 10.4045 8.21693 10.4463 8.21659 10.4764C8.21258 10.8505 8.21392 11.2243 8.21392 11.5985V11.5978Z" fill="#410EAD"/>
<path d="M5.8467 11.1461C5.46887 11.5654 4.66273 11.9278 4.02511 11.7319C3.50518 11.5721 3.19289 11.1267 3.21228 10.5516C3.23067 10.0032 3.47642 9.55454 3.84087 9.1416C4.01842 9.3041 4.18928 9.46025 4.36415 9.62007C4.16253 9.85981 4.00237 10.1116 3.94319 10.4179C3.85358 10.8813 4.10368 11.1374 4.56844 11.0558C4.8249 11.0107 5.04591 10.8926 5.24953 10.7368C5.29133 10.7047 5.33279 10.672 5.37926 10.6355C5.53842 10.8094 5.69289 10.9779 5.8467 11.1461Z" fill="#410EAD"/>
<path d="M8.21658 8.2126C7.42582 8.2126 6.79287 7.582 6.79053 6.79124C6.78819 5.9958 7.42649 5.35817 8.22293 5.36085C9.01068 5.36352 9.64362 6.00081 9.64229 6.7899C9.64095 7.57865 9.006 8.2126 8.21658 8.2126ZM8.22025 7.50142C8.61346 7.49908 8.93779 7.16973 8.93177 6.7792C8.92575 6.39201 8.6051 6.0737 8.21858 6.0717C7.82605 6.06969 7.50138 6.39402 7.50172 6.78789C7.50205 7.18177 7.82604 7.50342 8.22025 7.50142Z" fill="#410EAD"/>
</svg>
