<svg width="15" height="15" viewBox="0 0 15 15" fill="none" xmlns="http://www.w3.org/2000/svg">
<path d="M0.000391189 2.96214C0.0586881 2.71174 0.0978136 2.45468 0.178803 2.21171C0.644005 0.81298 2.04978 -0.113902 3.4982 0.0112999C5.03231 0.143544 6.24911 1.2641 6.47956 2.75556C6.76166 4.58115 5.5073 6.25259 3.66957 6.49947C1.90423 6.73657 0.238665 5.44426 0.0269965 3.67383C0.023084 3.64097 0.0093901 3.60927 0 3.57719C0 3.37217 0 3.16716 0 2.96214H0.000391189ZM0.467549 3.25871C0.465984 4.80103 1.71056 6.05344 3.25171 6.06009C4.79247 6.06713 6.05818 4.80495 6.0574 3.26184C6.05662 1.72265 4.80343 0.471806 3.26228 0.471415C1.718 0.471024 0.469114 1.71639 0.467549 3.25871Z" fill="#410EAD"/>
<path d="M11.4249 14.9995C11.1295 14.9228 10.8236 14.8735 10.5399 14.7648C9.16231 14.237 8.32777 12.8257 8.49992 11.3456C8.66659 9.91359 9.79614 8.74335 11.2258 8.5219C13.2889 8.20185 15.1098 9.84669 14.9947 11.9262C14.9079 13.4928 13.6958 14.7851 12.1374 14.9733C12.1045 14.9772 12.0725 14.9905 12.04 14.9995H11.4249ZM14.5315 11.7388C14.5303 10.1965 13.2807 8.94485 11.7411 8.94328C10.1984 8.94172 8.93617 10.2059 8.94125 11.7474C8.94634 13.287 10.2007 14.5339 11.7422 14.5323C13.2857 14.5304 14.5327 13.2819 14.5311 11.7388H14.5315Z" fill="#410EAD"/>
<path d="M5.63873 12.0673C5.18018 12.0673 4.72163 12.0685 4.26308 12.0673C3.14918 12.0642 2.2892 11.2054 2.28412 10.0922C2.28373 9.98503 2.28021 9.87743 2.28607 9.77023C2.29625 9.5883 2.43319 9.46075 2.61042 9.46192C2.78766 9.4627 2.92108 9.59065 2.93125 9.77414C2.94103 9.95412 2.93164 10.1361 2.95708 10.3137C3.04159 10.906 3.52361 11.3607 4.12301 11.4022C4.44345 11.4245 4.76663 11.4131 5.08824 11.4139C5.73224 11.4151 6.37625 11.4139 7.02025 11.4143C7.06407 11.4143 7.10828 11.4131 7.1521 11.4155C7.35908 11.4264 7.4968 11.554 7.49915 11.7363C7.50149 11.9245 7.35751 12.0642 7.14663 12.0669C6.86375 12.0708 6.58087 12.0681 6.29761 12.0681C6.07811 12.0681 5.85862 12.0681 5.63912 12.0681L5.63873 12.0673Z" fill="#410EAD"/>
<path d="M9.35778 2.93634C9.81633 2.93634 10.2749 2.93555 10.7334 2.93634C11.8485 2.93868 12.7085 3.79475 12.7151 4.90865C12.7159 5.01116 12.7183 5.11367 12.714 5.21578C12.7065 5.40828 12.5727 5.54131 12.3908 5.5417C12.2081 5.5417 12.0758 5.40985 12.0668 5.21735C12.0586 5.04246 12.0668 4.86522 12.0422 4.69229C11.9577 4.09836 11.4776 3.64059 10.8786 3.60225C10.4948 3.5776 10.1082 3.5909 9.72282 3.59012C9.1375 3.58856 8.55179 3.59012 7.96648 3.58973C7.91757 3.58973 7.86866 3.59051 7.82015 3.5866C7.62726 3.57056 7.4958 3.43362 7.5001 3.25599C7.50441 3.07758 7.64017 2.94221 7.83502 2.93829C8.11789 2.93242 8.40077 2.93634 8.68404 2.93634C8.90862 2.93634 9.13281 2.93634 9.35739 2.93634H9.35778Z" fill="#410EAD"/>
<path d="M2.60432 8.28883C2.24789 8.64644 1.90397 8.99192 1.55967 9.33701C1.4599 9.43717 1.34487 9.48803 1.20246 9.43795C1.07569 9.39335 0.986092 9.30218 0.988831 9.17111C0.990787 9.0776 1.02483 8.9614 1.08704 8.89684C1.50685 8.46177 1.93645 8.03609 2.36644 7.61118C2.51746 7.46172 2.69626 7.45899 2.84651 7.60727C3.27728 8.03178 3.70453 8.45981 4.12943 8.8898C4.27498 9.03691 4.27498 9.22667 4.14312 9.3597C4.00697 9.49703 3.81682 9.49312 3.66227 9.34092C3.34653 9.02909 3.03431 8.71374 2.72013 8.40034C2.68609 8.3663 2.65088 8.33422 2.60354 8.28962L2.60432 8.28883Z" fill="#410EAD"/>
<path d="M12.3878 6.71684C12.7137 6.39131 13.0271 6.07792 13.3405 5.76492C13.3855 5.72031 13.4282 5.67297 13.4767 5.63228C13.6203 5.51177 13.8003 5.51764 13.9251 5.64402C14.0471 5.76765 14.055 5.9582 13.9309 6.09318C13.7991 6.23638 13.6571 6.37097 13.5189 6.50869C13.2329 6.79509 12.9473 7.08188 12.6601 7.3671C12.4778 7.54786 12.3057 7.55021 12.1261 7.3718C11.711 6.95941 11.297 6.54547 10.8846 6.13035C10.7246 5.96954 10.718 5.77665 10.8604 5.63932C11 5.50434 11.1843 5.51177 11.3412 5.6671C11.6871 6.01062 12.0298 6.35727 12.3878 6.71684Z" fill="#410EAD"/>
<path d="M3.40099 1.92415V3.03805C3.9867 3.14095 4.41082 3.40113 4.33335 4.09561C4.28131 4.56277 3.9644 4.8609 3.39786 4.9638V5.29011H3.16076V4.9638C2.58327 4.89064 2.22644 4.60189 2.17871 3.99349H2.60713C2.64978 4.30532 2.77576 4.55103 3.13767 4.61441C3.14237 4.56433 3.1498 4.52286 3.1498 4.48138C3.15059 4.15469 3.1455 3.8276 3.15293 3.5009C3.15528 3.39526 3.12046 3.35066 3.01991 3.33814C2.96787 3.33149 2.9174 3.30723 2.86693 3.28962C2.41698 3.12999 2.22331 2.84359 2.25148 2.37996C2.27418 2.00357 2.55705 1.6757 2.96944 1.60097C3.14159 1.56967 3.1725 1.49729 3.15528 1.3537C3.15137 1.32044 3.15763 1.28601 3.15998 1.24023H3.38925V1.56419C3.88419 1.61466 4.20384 1.84355 4.26058 2.37761C4.13342 2.37761 4.01291 2.38544 3.89475 2.37252C3.86267 2.369 3.82433 2.30718 3.81181 2.26532C3.74881 2.05561 3.63026 1.95193 3.40099 1.92376V1.92415ZM3.40216 4.60072C3.69639 4.59094 3.88106 4.39335 3.90023 4.07644C3.9241 3.68479 3.78051 3.50051 3.40216 3.44104V4.60072ZM3.14511 1.91867C2.81724 1.97266 2.66582 2.16516 2.68421 2.49068C2.69947 2.76652 2.87084 2.94336 3.14511 2.95784V1.91867Z" fill="#410EAD"/>
<path d="M11.9555 12.1418C11.8213 12.5597 12.0709 12.6978 12.3373 12.8461C12.5122 12.9435 12.648 12.9525 12.8209 12.843C13.2775 12.5546 13.2047 12.6528 13.2231 12.1332C13.2306 11.9204 13.1598 11.7921 12.9712 11.69C12.5251 11.4478 12.6085 11.4403 12.1711 11.6943C11.8127 11.9024 11.4519 12.1066 11.0971 12.3207C10.9605 12.4032 10.8408 12.4106 10.7031 12.3246C10.4879 12.1904 10.2664 12.0667 10.045 11.9431C9.92643 11.877 9.8693 11.785 9.87165 11.6473C9.87635 11.3789 9.87556 11.1105 9.87165 10.8421C9.87009 10.722 9.91665 10.6386 10.0207 10.5792C10.266 10.4387 10.5098 10.2947 10.7531 10.1511C10.8553 10.0909 10.9554 10.0909 11.0575 10.1511C11.297 10.2924 11.5392 10.4289 11.7755 10.5753C11.995 10.7114 11.9844 11.0859 11.7626 11.2134C11.7 11.2494 11.6362 11.2834 11.545 11.3343C11.545 11.2377 11.5404 11.1629 11.5462 11.0886C11.5572 10.9466 11.5012 10.8499 11.3768 10.7768C10.8036 10.4407 10.9781 10.4485 10.3838 10.7955C10.3153 10.8355 10.2653 10.9477 10.2527 11.033C10.2312 11.1762 10.2469 11.3249 10.2473 11.4712C10.2473 11.4908 10.248 11.5104 10.2512 11.5295C10.2899 11.7561 10.8662 12.0327 11.063 11.9184C11.5016 11.6641 11.9422 11.4129 12.3765 11.1508C12.5204 11.0639 12.6417 11.0616 12.7826 11.1504C12.9974 11.285 13.2184 11.4094 13.4395 11.5338C13.5487 11.5953 13.6003 11.6802 13.5987 11.8065C13.5952 12.0894 13.5956 12.3727 13.5987 12.6556C13.5999 12.7765 13.5483 12.8582 13.4454 12.9169C13.2083 13.0523 12.972 13.1892 12.7364 13.3277C12.6292 13.3907 12.5275 13.3903 12.4195 13.3262C12.1847 13.1869 11.9453 13.0554 11.7113 12.915C11.4868 12.78 11.4895 12.4083 11.7121 12.2792C11.7743 12.2432 11.8373 12.208 11.9543 12.1418H11.9555Z" fill="#410EAD"/>
</svg>
