<svg width="11" height="15" viewBox="0 0 11 15" fill="none" xmlns="http://www.w3.org/2000/svg">
<path d="M3.27082 9.10818C2.91009 9.05287 2.5542 9.01831 2.2128 8.90251C2.09524 8.86276 1.97607 8.80745 1.87301 8.73314C1.70875 8.61388 1.69587 8.40994 1.82792 8.24921C1.93903 8.1144 2.08558 8.03144 2.23373 7.95886C2.70397 7.72899 3.19835 7.57344 3.69918 7.44555C3.7491 7.43345 3.80225 7.43691 3.86344 7.43345C3.87149 7.51814 3.88277 7.59418 3.88277 7.67196C3.88277 7.68924 3.85056 7.71344 3.82801 7.72381C3.61383 7.8275 3.39804 7.92602 3.18547 8.03317C3.10334 8.07465 3.03248 8.14033 2.9568 8.19563C2.9568 8.20773 2.96002 8.2181 2.96002 8.2302C3.07757 8.25612 3.19352 8.28723 3.31108 8.30452C3.70723 8.36328 4.10339 8.34427 4.49954 8.31143C4.93757 8.27514 5.3772 8.24575 5.81523 8.21292C5.88286 8.20773 5.95211 8.20082 6.02619 8.1939C6.01814 8.11959 6.01169 8.04873 6.00203 7.97959C5.99076 7.90182 6.01008 7.83615 6.04551 7.76874C6.11798 7.63221 6.18884 7.49221 6.24842 7.34876C6.31445 7.18976 6.30478 7.0273 6.22266 6.87866C6.14375 6.73694 6.0584 6.59868 5.9666 6.4656C5.76692 6.1787 5.58494 5.88143 5.47222 5.54096C5.27897 4.9516 5.36432 4.40892 5.70089 3.90425C6.01492 3.4307 6.42234 3.08158 6.9119 2.84134C7.41917 2.5942 7.92805 2.34705 8.43854 2.10854C8.51584 2.07225 8.61085 2.0757 8.69782 2.06533C8.88784 2.04114 9.07948 2.01867 9.27594 2.0083C9.2534 2.02558 9.23246 2.04114 9.20992 2.05842C8.69459 2.42828 8.17605 2.79295 7.66556 3.16972C7.31933 3.42378 7.00369 3.71759 6.73637 4.06844C6.70255 4.11338 6.67034 4.16177 6.63974 4.21016C6.50286 4.43138 6.47226 4.66989 6.58338 4.90667C6.68806 5.12789 6.81528 5.33874 6.93928 5.5496C7.00852 5.66885 7.09226 5.77773 7.16151 5.89526C7.44172 6.37573 7.4079 6.87694 7.04556 7.34358C6.87325 7.56653 6.67195 7.76356 6.48193 7.97268C6.42234 8.03836 6.36276 8.1023 6.29029 8.18008C7.03751 8.11959 7.76862 8.06083 8.50779 8.00033C8.52389 8.09194 8.54322 8.18181 8.55288 8.27168C8.55449 8.28723 8.52389 8.31834 8.50296 8.32353C8.2614 8.39093 8.02145 8.45834 7.77829 8.51883C7.11964 8.68302 6.45294 8.81437 5.78302 8.91634C5.04869 9.02695 4.30952 9.09608 3.56713 9.09608C3.50111 9.09608 3.4689 9.11682 3.44474 9.18077C3.40448 9.28619 3.34973 9.38644 3.31913 9.49532C3.2837 9.6284 3.33041 9.73037 3.45279 9.77703C3.55586 9.81678 3.66859 9.84616 3.77809 9.85135C4.43191 9.879 5.08411 9.85481 5.73632 9.79604C6.30962 9.74419 6.87969 9.66642 7.44333 9.54717C7.53351 9.52816 7.62369 9.50396 7.71548 9.48668C7.73803 9.48322 7.77346 9.49186 7.78473 9.50915C7.90551 9.68025 8.0279 9.84962 8.1374 10.0276C8.17444 10.0864 8.17927 10.1694 8.19538 10.2419C8.20504 10.2869 8.18088 10.3042 8.14223 10.3128C7.7332 10.394 7.32738 10.4839 6.91673 10.5565C6.33699 10.6602 5.75403 10.7259 5.16624 10.7501C4.5237 10.776 3.88277 10.7691 3.25633 10.5859C3.11783 10.5461 2.98095 10.4822 2.86017 10.4027C2.59124 10.2247 2.53326 9.93604 2.69108 9.64222C2.80381 9.4331 2.96485 9.27928 3.16131 9.16521C3.19513 9.1462 3.23056 9.12719 3.26599 9.10818H3.27082Z" fill="#410EAD"/>
<path d="M10.7834 13.1007C10.8156 13.1958 10.8462 13.2891 10.88 13.3928C10.7785 13.4377 10.6787 13.4861 10.5789 13.5276C9.32759 14.0444 8.04573 14.4557 6.73648 14.7616C6.03436 14.9258 5.32096 15.0139 4.60111 14.9984C3.98756 14.9846 3.38688 14.893 2.80554 14.6648C2.44964 14.5248 2.14045 14.3088 1.86507 14.0323C1.82481 13.9908 1.78133 13.9769 1.72497 13.9718C1.30144 13.9337 0.877906 13.8923 0.47531 13.7281C0.402842 13.6987 0.331986 13.6607 0.26596 13.6157C-0.0126367 13.4273 -0.0834936 13.0316 0.106532 12.7395C0.212817 12.5753 0.362583 12.4681 0.526842 12.3817C0.836036 12.2175 1.16616 12.1225 1.50757 12.0775C1.75718 12.0447 2.01001 12.0257 2.25962 12.0326C2.48346 12.0395 2.70569 12.0931 2.92793 12.1277C2.92793 12.1346 2.92793 12.1415 2.92793 12.1467C2.81359 12.1933 2.70086 12.2435 2.58652 12.2884C2.33852 12.3869 2.1018 12.5096 1.89406 12.6894C1.84092 12.736 1.79421 12.7913 1.74751 12.8449C1.70403 12.8933 1.71047 12.94 1.77167 12.959C1.89245 12.9935 2.01484 13.0419 2.13723 13.0488C3.20169 13.1214 4.26777 13.1923 5.33545 13.1992C6.10521 13.2044 6.86854 13.1266 7.62703 12.997C8.18261 12.9019 8.73819 12.8 9.27606 12.6237C9.44515 12.5684 9.6078 12.4889 9.77367 12.418C9.85258 12.3852 9.89123 12.3247 9.88156 12.2262C9.87512 12.1622 9.88156 12.0966 9.88156 12.0309C9.88801 12.0274 9.89445 12.024 9.90089 12.0205C9.99429 12.1121 10.099 12.1951 10.1795 12.297C10.2745 12.418 10.2616 12.5632 10.2036 12.7015C10.1457 12.8432 10.0458 12.9486 9.9331 13.0402C9.66094 13.2614 9.34692 13.3841 9.02323 13.4792C8.69471 13.576 8.35975 13.6296 8.01996 13.6624C7.57549 13.7056 7.13103 13.754 6.68656 13.7955C6.23726 13.837 5.78636 13.8767 5.33545 13.9061C4.81368 13.9407 4.29192 13.97 3.76855 13.9873C3.3273 14.0029 2.88444 13.9977 2.4432 14.0011C2.38684 14.0011 2.33208 14.0011 2.27411 14.0184C2.43515 14.0478 2.59458 14.0824 2.75561 14.1048C3.60429 14.2293 4.45618 14.2293 5.30968 14.1705C6.80734 14.0685 8.27762 13.7851 9.7318 13.3928C10.0796 13.2995 10.4243 13.1958 10.7802 13.0938L10.7834 13.1007Z" fill="#410EAD"/>
<path d="M6.20008 0C6.50444 0.331835 6.80558 0.641201 6.85551 1.1234C6.88932 1.46042 6.83296 1.78361 6.72345 2.09816C6.53826 2.62702 6.22101 3.05564 5.84096 3.43414C5.55109 3.7245 5.24512 3.99757 4.95364 4.2862C4.83125 4.40718 4.71853 4.54026 4.61707 4.68025C4.29822 5.12615 4.26601 5.60489 4.51079 6.09919C4.6219 6.32387 4.75718 6.53472 4.88601 6.74903C5.03738 6.99964 5.19359 7.24506 5.35141 7.50084C5.27089 7.56652 5.19359 7.63219 5.10824 7.70306C4.7926 7.36776 4.47053 7.04284 4.16938 6.69545C3.99707 6.4967 3.85214 6.27029 3.71365 6.04215C3.57515 5.81229 3.48175 5.55823 3.44632 5.28343C3.40445 4.95159 3.47692 4.65778 3.70398 4.42273C4.0019 4.11164 4.30305 3.80227 4.60902 3.50155C4.93432 3.18181 5.27089 2.87244 5.60102 2.55616C5.84418 2.32284 6.0487 2.05668 6.18881 1.73695C6.37561 1.3066 6.38688 0.862424 6.28543 0.406152C6.25644 0.278257 6.23068 0.148634 6.20008 0.00345661V0Z" fill="#410EAD"/>
<path d="M2.68457 11.5467C2.91969 11.3272 3.14031 11.1216 3.34805 10.9263C3.50909 11.0161 3.65724 11.1129 3.81506 11.1855C4.19028 11.3549 4.58643 11.4154 4.99064 11.4292C5.46731 11.4465 5.93916 11.3895 6.40617 11.2806C6.51406 11.2564 6.60747 11.2996 6.70409 11.3238C7.24357 11.4603 7.78305 11.602 8.32414 11.742C8.33541 11.7455 8.34668 11.7507 8.37245 11.761C8.26133 11.7973 8.16471 11.8284 8.06647 11.8596C7.50928 12.041 6.94565 12.1931 6.36913 12.283C5.55589 12.4074 4.74586 12.4264 3.94067 12.2139C3.60893 12.1257 3.29169 12.0013 3.00182 11.8025C2.89392 11.7282 2.7973 11.6383 2.68457 11.5485V11.5467Z" fill="#410EAD"/>
<path d="M8.0314 10.6188C8.10225 10.5686 8.17311 10.5185 8.24397 10.4701C8.43399 10.3405 8.62563 10.2126 8.81726 10.083C9.24401 9.79436 9.61118 9.43488 9.93004 9.01836C10.1104 8.78158 10.141 8.51888 10.017 8.23889C9.97191 8.13692 9.90427 8.05569 9.80443 8.02458C9.62246 7.96755 9.43887 7.91397 9.25368 7.8794C9.02661 7.83792 8.79794 7.81546 8.55316 7.78435C8.5741 7.76015 8.58537 7.74459 8.59825 7.73422C8.69809 7.64781 8.80277 7.56658 8.89939 7.47671C8.97669 7.40412 9.06526 7.37474 9.1635 7.35745C9.44692 7.30906 9.73196 7.29178 10.0154 7.3298C10.5243 7.39893 10.9784 7.83447 10.9993 8.46703C11.0122 8.86108 10.8753 9.19464 10.6338 9.48154C10.3391 9.83066 9.97674 10.0795 9.58381 10.2852C9.15383 10.5116 8.69809 10.617 8.22142 10.6222C8.16023 10.6222 8.09903 10.6309 8.03623 10.6343C8.03462 10.6291 8.0314 10.6257 8.02979 10.6205L8.0314 10.6188Z" fill="#410EAD"/>
</svg>
