<svg width="15" height="15" viewBox="0 0 15 15" fill="none" xmlns="http://www.w3.org/2000/svg">
<path d="M6.28632 7.90575C6.36129 7.8647 6.41987 7.83278 6.4761 7.80085C7.19775 7.39724 7.9194 6.99135 8.64105 6.59002C8.69728 6.56038 8.71837 6.52617 8.71837 6.46233C8.71603 5.47724 8.71837 4.49216 8.71603 3.50708C8.71603 3.37938 8.76523 3.29273 8.88004 3.22888C9.8149 2.7067 10.7498 2.18451 11.6799 1.65777C11.8041 1.58708 11.9119 1.58708 12.0361 1.65777C12.9616 2.17995 13.8894 2.69986 14.8172 3.2152C14.9461 3.28589 15 3.3771 15 3.52076C14.9953 4.55601 14.9977 5.59126 15 6.62651C15 6.75648 14.9508 6.84085 14.836 6.9047C13.948 7.39952 13.06 7.89891 12.172 8.39373C12.1157 8.42565 12.0947 8.45757 12.0947 8.52142C12.0947 9.50195 12.0947 10.4825 12.097 11.463C12.097 11.6021 12.0455 11.6956 11.9189 11.764C10.0258 12.822 8.13261 13.8801 6.2418 14.9427C6.1059 15.018 5.99344 15.0202 5.85754 14.9427C3.96907 13.8824 2.0806 12.822 0.187441 11.7663C0.0562322 11.6933 0 11.6021 0 11.4561C0.00234302 8.27971 0.00234302 5.10328 0 1.92456C0 1.7809 0.051546 1.68741 0.180412 1.61672C1.11528 1.09682 2.05014 0.572351 2.98266 0.047886C3.09513 -0.015962 3.19353 -0.015962 3.30365 0.047886C4.24555 0.576912 5.18744 1.10594 6.13168 1.63268C6.23711 1.69197 6.28397 1.77406 6.28397 1.89492C6.28397 3.86052 6.28397 5.82613 6.28397 7.79173V7.90347L6.28632 7.90575ZM0.475632 2.25292C0.475632 2.30081 0.475632 2.33045 0.475632 2.36009C0.475632 5.34043 0.475632 8.32076 0.475632 11.3011C0.475632 11.3718 0.499063 11.4105 0.562324 11.447C2.2821 12.4093 4.00187 13.3716 5.72165 14.3339C5.74742 14.3476 5.7732 14.3612 5.81537 14.3818V14.2814C5.81537 13.4377 5.81537 12.594 5.81537 11.7526C5.81537 11.6887 5.79428 11.6568 5.73805 11.6249C4.8641 11.146 3.9925 10.6626 3.11621 10.186C2.96392 10.1039 2.90534 10.0036 2.90768 9.83487C2.91237 7.80085 2.90768 5.76456 2.91237 3.73055C2.91237 3.65074 2.89128 3.60285 2.81631 3.55952C2.16963 3.20152 1.52765 2.84123 0.883317 2.48095C0.754451 2.41026 0.627928 2.33729 0.477975 2.2552L0.475632 2.25292ZM6.28866 14.3772C6.31678 14.3635 6.33786 14.3567 6.35661 14.3453C8.09044 13.3761 9.82193 12.4047 11.5558 11.4356C11.605 11.4083 11.6214 11.3786 11.6214 11.3239C11.6214 10.4802 11.6214 9.63648 11.6214 8.79506C11.6214 8.76997 11.6167 8.74489 11.6143 8.71069C11.5792 8.72893 11.5581 8.74033 11.5347 8.75173C9.80787 9.71173 8.07872 10.6717 6.35192 11.6295C6.30272 11.6568 6.28397 11.6842 6.28397 11.7389C6.28397 12.5917 6.28397 13.4446 6.28397 14.2997C6.28397 14.3225 6.28397 14.3476 6.28866 14.3795V14.3772ZM3.62699 9.92836C3.66214 9.94888 3.68322 9.96256 3.70431 9.97396C4.45642 10.389 5.21087 10.8017 5.96298 11.219C6.02624 11.2555 6.07076 11.2532 6.13402 11.219C7.8538 10.2613 9.57357 9.30584 11.2957 8.3504C11.3191 8.33672 11.3425 8.32304 11.3754 8.30252C11.3379 8.28199 11.3144 8.26603 11.2887 8.25007C10.5342 7.82822 9.77976 7.40636 9.0253 6.98223C8.97141 6.95259 8.93393 6.95259 8.88004 6.98223C7.37113 7.82822 5.86223 8.6742 4.35333 9.51791C4.11434 9.65244 3.87535 9.7847 3.62465 9.92608L3.62699 9.92836ZM3.38332 9.52703C3.42081 9.50879 3.44189 9.49967 3.46532 9.48598C4.2268 9.05957 4.98828 8.63316 5.74977 8.20902C5.80365 8.17938 5.81537 8.14518 5.81537 8.09045C5.81537 6.17729 5.81537 4.26413 5.81537 2.35097V2.25748C5.78022 2.27344 5.75914 2.28256 5.73805 2.29625C4.98125 2.72038 4.22446 3.14451 3.46767 3.56636C3.40675 3.60057 3.38566 3.63705 3.38566 3.70546C3.38566 5.61178 3.38566 7.51582 3.38566 9.42214V9.52703H3.38332ZM9.43299 3.45007C9.46345 3.47059 9.47985 3.48199 9.49625 3.49112C10.2648 3.92209 11.0309 4.35078 11.7994 4.78176C11.844 4.80684 11.8744 4.80456 11.9189 4.78176C12.6828 4.35078 13.4489 3.92209 14.2151 3.4934C14.2338 3.48199 14.2526 3.47059 14.2783 3.45463C14.2549 3.43867 14.2385 3.42727 14.2221 3.41815C13.4513 2.98717 12.6828 2.5562 11.9119 2.12294C11.8697 2.10014 11.8416 2.10242 11.8018 2.12294C11.2348 2.44218 10.6654 2.76142 10.0961 3.07838C9.88051 3.19924 9.6626 3.32009 9.43533 3.44779L9.43299 3.45007ZM5.56935 1.85615C5.54358 1.84019 5.53186 1.83107 5.52015 1.82423C4.74461 1.39097 3.97141 0.957719 3.19822 0.522185C3.15136 0.494822 3.11856 0.510783 3.08107 0.531306C2.37816 0.925795 1.67291 1.32028 0.970009 1.71477C0.890347 1.7581 0.813027 1.80371 0.723992 1.85387C0.756795 1.87439 0.780224 1.89036 0.803655 1.90176C1.56045 2.32589 2.31724 2.75002 3.07404 3.17416C3.13027 3.20608 3.17245 3.2038 3.22634 3.17416C3.88472 2.80247 4.54545 2.43534 5.20384 2.06594C5.32334 1.99981 5.44049 1.9314 5.5717 1.85843L5.56935 1.85615ZM11.6143 7.90347C11.6167 7.8647 11.6214 7.8419 11.6214 7.82138C11.6214 6.97539 11.6214 6.1294 11.6214 5.2857C11.6214 5.22869 11.5979 5.20133 11.5511 5.17625C10.7896 4.75211 10.0281 4.3257 9.26663 3.89929C9.24555 3.88789 9.22212 3.87876 9.18931 3.86052C9.18931 3.89929 9.18463 3.92437 9.18463 3.95173C9.18463 4.78632 9.18463 5.62318 9.18463 6.45777C9.18463 6.52389 9.20572 6.5581 9.26429 6.5923C9.90862 6.95031 10.553 7.31287 11.1973 7.67316C11.3308 7.74841 11.4667 7.82366 11.6143 7.90575V7.90347ZM14.5244 3.85824C14.4869 3.87648 14.4658 3.8856 14.4447 3.89701C13.6832 4.32342 12.9217 4.74983 12.1603 5.17397C12.1087 5.20361 12.0923 5.23553 12.0923 5.29254C12.0923 6.13396 12.0923 6.97311 12.0923 7.81453C12.0923 7.83962 12.0947 7.8647 12.097 7.90347C12.1345 7.88294 12.1626 7.86926 12.1884 7.8533C12.9428 7.43145 13.6973 7.00731 14.4517 6.58774C14.5056 6.5581 14.5244 6.52389 14.5244 6.46461C14.5244 5.62546 14.5244 4.7886 14.5244 3.94945C14.5244 3.92437 14.5244 3.89701 14.5244 3.85824Z" fill="#410EAD"/>
</svg>
