<svg width="15" height="6" viewBox="0 0 15 6" fill="none" xmlns="http://www.w3.org/2000/svg">
<path d="M5.2331 1.13633C4.66898 1.81864 4.06586 2.33825 3.87088 3.15965C3.7565 3.63727 3.59532 4.10702 3.43154 4.57151C3.09879 5.50838 2.43588 5.98076 1.44801 5.9965C0.980069 6.00437 0.512132 5.9965 0 5.9965C0.067591 5.75507 0.122184 5.5425 0.187175 5.33518C0.610918 3.97318 1.18804 2.68728 2.05633 1.55359C2.2773 1.26492 2.52946 0.999864 2.78943 0.747932C3.25997 0.288683 3.81109 0.0524972 4.4896 0.07874C5.39428 0.11548 6.29896 0.112856 7.20364 0.102359C7.79636 0.0944858 8.2409 0.362163 8.45927 0.876523C8.76863 1.61132 9.0052 2.38286 9.23917 3.14653C9.39775 3.66614 9.50433 4.20411 9.70711 4.74997C9.7513 4.65287 9.80849 4.56102 9.84229 4.46129C10.1386 3.55592 10.435 2.65054 10.721 1.73991C11.1291 0.435643 11.714 -0.00261258 13.0815 1.17044e-05C13.7158 1.17044e-05 14.3527 1.17044e-05 15 1.17044e-05C14.9974 0.0183817 15 0.0656185 14.9818 0.09711C14.1785 1.46174 13.3934 2.83949 12.5589 4.18575C12.2808 4.6345 11.896 5.02289 11.5295 5.40866C11.2227 5.72882 10.8276 5.87054 10.3752 5.86266C9.49133 5.85217 8.60745 5.84692 7.72617 5.86791C7.12045 5.88103 6.66811 5.61598 6.43934 5.09112C6.14038 4.40881 5.91421 3.69238 5.69844 2.97857C5.52426 2.40648 5.40728 1.81864 5.2409 1.13633H5.2331Z" fill="#410EAD"/>
</svg>
