<svg width="15" height="15" viewBox="0 0 15 15" fill="none" xmlns="http://www.w3.org/2000/svg">
<path d="M8.79008 0C8.90694 0.0292133 9.02588 0.0542534 9.14064 0.08764C10.0609 0.352647 10.7161 1.20401 10.7203 2.16387C10.7265 3.54525 10.7244 4.92662 10.7203 6.30799C10.7203 6.74828 10.4031 7.05711 9.95653 7.05919C8.31641 7.05919 6.67629 7.05919 5.03617 7.05919C4.25784 7.05919 3.62558 7.55373 3.44613 8.29867C3.41274 8.43848 3.40231 8.58872 3.40022 8.7327C3.39605 9.33783 3.40022 9.94297 3.40022 10.5481C3.40022 10.6003 3.40022 10.6524 3.40022 10.7255C2.79509 10.6837 2.1983 10.7964 1.61195 10.6357C0.664603 10.3749 0.00939 9.51937 0.00313 8.53864C-0.00104333 7.84587 -0.00104333 7.15309 0.00313 6.46032C0.00939 5.25631 0.981777 4.28184 2.1837 4.27767C3.92189 4.27141 5.66008 4.27767 7.39828 4.27767C7.46088 4.27767 7.52556 4.27975 7.58816 4.26723C7.81144 4.22133 7.96168 4.01266 7.93872 3.79565C7.91577 3.5682 7.73006 3.40127 7.488 3.40127C6.59908 3.39918 5.71016 3.40127 4.82333 3.40127C4.64805 3.40127 4.47277 3.40127 4.2808 3.40127C4.2808 3.27607 4.2808 3.1613 4.2808 3.04653C4.28706 2.66676 4.2641 2.28281 4.30792 1.90721C4.42686 0.934827 5.1718 0.1878 6.13376 0.0312999C6.16088 0.0271266 6.18801 0.0125201 6.21305 0.00417343C7.07276 0.00417343 7.93246 0.00417343 8.79008 0.00417343V0ZM6.91417 1.79036C6.91626 1.55248 6.72011 1.35216 6.48223 1.34799C6.24435 1.34381 6.04194 1.53787 6.03568 1.77575C6.02942 2.01781 6.23183 2.22647 6.47388 2.22647C6.71176 2.22647 6.91 2.02824 6.91417 1.79245V1.79036Z" fill="#410EAD"/>
<path d="M15.0002 8.7868C14.973 8.89322 14.948 9.00173 14.9188 9.10815C14.6559 10.0555 13.8045 10.7149 12.8217 10.717C11.0793 10.7211 9.33694 10.717 7.59249 10.717C7.53406 10.717 7.47355 10.7149 7.41721 10.7253C7.2002 10.7691 7.04996 10.9653 7.06248 11.1802C7.075 11.4014 7.25445 11.5788 7.4819 11.5934C7.52572 11.5955 7.56954 11.5934 7.61336 11.5934C8.58992 11.5934 9.56648 11.5934 10.543 11.5934H10.6974C10.7079 11.608 10.7204 11.6163 10.7204 11.6226C10.7141 12.1192 10.7454 12.6221 10.6912 13.1125C10.5785 14.1454 9.64994 14.9675 8.61287 14.9863C7.8721 14.9988 7.12925 15.0009 6.3864 14.9863C5.26168 14.9654 4.29556 13.9993 4.28512 12.8767C4.27052 11.4703 4.27886 10.0659 4.28304 8.65951C4.28304 8.23592 4.61064 7.93335 5.0551 7.93335C6.69105 7.93335 8.32491 7.93335 9.96086 7.93335C10.7475 7.93335 11.3819 7.43673 11.5592 6.68553C11.5905 6.54989 11.601 6.40591 11.6031 6.26611C11.6072 5.66097 11.6031 5.05584 11.6031 4.45071V4.27334C11.7679 4.27334 11.9223 4.26917 12.0747 4.27334C12.469 4.28795 12.8718 4.25873 13.2557 4.32968C14.1697 4.50079 14.8207 5.21443 14.9751 6.13882C14.9793 6.16177 14.9918 6.18264 15.0002 6.20351V8.78054V8.7868ZM8.52314 12.7702C8.28526 12.7702 8.08703 12.9706 8.08703 13.2084C8.08703 13.4463 8.28318 13.6466 8.52106 13.6487C8.76311 13.6508 8.9676 13.4463 8.96343 13.2022C8.95926 12.9643 8.75894 12.7682 8.52106 12.7702H8.52314Z" fill="#410EAD"/>
</svg>
