<svg width="17" height="17" viewBox="0 0 17 17" fill="none" xmlns="http://www.w3.org/2000/svg">
<path d="M0 9.01854V8.02007C0.0101377 7.96671 0.0202753 7.91336 0.0291457 7.85874C0.120385 7.33028 0.166004 6.78912 0.306664 6.27464C0.606067 5.1726 1.12368 4.14224 1.82866 3.24494C2.53365 2.34765 3.41158 1.60179 4.41016 1.05178C5.40874 0.501771 6.50754 0.158876 7.6411 0.0435197C8.77465 -0.0718363 9.91977 0.0427073 11.0082 0.380327C15.2471 1.68495 17.8055 6.09679 16.7702 10.4223C16.0277 13.532 14.0723 15.5912 11.0615 16.6291C10.5749 16.798 10.0578 16.8831 9.54081 17V10.2901H11.5747C11.6773 9.49238 11.7787 8.71494 11.8813 7.91336H9.52941C9.52941 7.42809 9.52941 6.96188 9.52941 6.49695C9.52941 6.39151 9.52941 6.28607 9.53828 6.18191C9.60037 5.56326 9.89309 5.27997 10.514 5.25711C10.9335 5.24059 11.3542 5.24313 11.7812 5.23805C11.8395 5.23805 11.8978 5.23805 11.9662 5.22789C11.9662 4.54446 11.9662 3.88008 11.9662 3.21569C11.9583 3.18885 11.9437 3.16448 11.9237 3.14491C11.9038 3.12534 11.8792 3.11122 11.8522 3.10391C11.178 3.07342 10.5039 3.02133 9.831 3.03785C9.19143 3.04408 8.57434 3.27516 8.08732 3.6908C7.43218 4.24593 7.15086 4.98272 7.1065 5.81478C7.07356 6.44994 7.0875 7.07876 7.08116 7.71011V7.92352H5.04602V10.3028H7.07356V16.8946C7.05503 16.8967 7.03632 16.8967 7.0178 16.8946C6.27677 16.7653 5.55701 16.5345 4.87875 16.2086C3.61106 15.6123 2.51174 14.7085 1.68032 13.579C0.890444 12.5246 0.361464 11.2973 0.136858 9.99796C0.0760323 9.67657 0.0430851 9.34629 0 9.01854Z" fill="black"/>
</svg>
