<svg width="17" height="17" viewBox="0 0 17 17" fill="none" xmlns="http://www.w3.org/2000/svg">
<path d="M3.91709 0H13.0788C13.3998 0.0526037 13.7178 0.121903 14.0316 0.207616C14.8955 0.480514 15.6493 1.02311 16.1824 1.75582C16.7156 2.48854 16.9999 3.37281 16.9938 4.27897C17.0021 7.09494 17.0021 9.91091 16.9938 12.7269C17.0059 13.6139 16.7298 14.4809 16.207 15.1975C15.3217 16.4079 14.1188 16.9996 12.6221 16.9996C9.8889 16.9996 7.15573 16.9996 4.42255 16.9996C4.13545 17.0032 3.84859 16.9816 3.56524 16.9353C1.99591 16.6467 0.90091 15.7539 0.302033 14.2798C0.148422 13.902 0.0944502 13.4816 0 13.0819V3.91772C0.0207583 3.79938 0.0404787 3.68 0.0633128 3.56166C0.357043 2.00454 1.24031 0.908322 2.70377 0.307272C3.08572 0.150522 3.51126 0.0996558 3.91709 0ZM1.42609 8.49981H1.41987C1.41987 9.88357 1.41987 11.2663 1.41987 12.6521C1.40391 13.0904 1.49212 13.5262 1.67727 13.9238C2.22321 15.0242 3.11686 15.5795 4.34679 15.5847C7.11456 15.5847 9.88025 15.5847 12.6439 15.5847C12.8317 15.5846 13.0194 15.5714 13.2054 15.5453C14.4831 15.3678 15.5573 14.1958 15.5656 12.9127C15.5843 10.0133 15.5739 7.11397 15.5749 4.21461C15.58 3.82597 15.4947 3.44146 15.3258 3.09141C14.7809 1.99104 13.8904 1.43048 12.6605 1.43048C9.88925 1.43048 7.11767 1.43048 4.34575 1.43048C4.15791 1.43118 3.97033 1.44436 3.78424 1.46992C2.52109 1.64536 1.44893 2.81943 1.43232 4.09419C1.41053 5.55996 1.42609 7.02885 1.42609 8.49981Z" fill="black"/>
<path d="M8.47924 4.25005C9.32015 4.24595 10.1434 4.49139 10.8447 4.95534C11.5461 5.41928 12.0941 6.08086 12.4193 6.85634C12.7445 7.63183 12.8324 8.48637 12.6717 9.31181C12.5111 10.1372 12.1092 10.8965 11.5169 11.4934C10.9246 12.0904 10.1686 12.4982 9.34442 12.6653C8.52027 12.8323 7.66507 12.7512 6.88706 12.432C6.10905 12.1129 5.4432 11.5701 4.97378 10.8724C4.50436 10.1747 4.25248 9.35343 4.25 8.51251C4.24861 7.38735 4.69268 6.3074 5.48517 5.50869C6.27766 4.70997 7.35411 4.25746 8.47924 4.25005ZM8.48755 11.3296C9.0476 11.3322 9.59585 11.1687 10.0629 10.8597C10.53 10.5506 10.8949 10.11 11.1114 9.59351C11.328 9.07702 11.3865 8.5079 11.2794 7.95817C11.1724 7.40844 10.9047 6.9028 10.5103 6.50526C10.1158 6.10772 9.61221 5.83614 9.06332 5.72489C8.51443 5.61364 7.94487 5.66771 7.42672 5.88028C6.90858 6.09284 6.46513 6.45433 6.15251 6.91901C5.83988 7.38368 5.67213 7.93066 5.67048 8.49071C5.6687 8.86217 5.7402 9.23035 5.88087 9.57416C6.02154 9.91796 6.22864 10.2307 6.49029 10.4943C6.75195 10.758 7.06304 10.9675 7.40575 11.1108C7.74846 11.2542 8.11608 11.3285 8.48755 11.3296Z" fill="black"/>
<path d="M13.0898 4.99945C12.7977 4.9903 12.5206 4.86783 12.3172 4.65795C12.1138 4.44807 12 4.16727 12 3.875C12 3.58273 12.1138 3.30193 12.3172 3.09205C12.5206 2.88217 12.7977 2.7597 13.0898 2.75055C13.2405 2.74584 13.3905 2.77143 13.531 2.82582C13.6716 2.8802 13.7998 2.96227 13.908 3.06715C14.0162 3.17203 14.1022 3.29759 14.161 3.43636C14.2198 3.57514 14.25 3.7243 14.25 3.875C14.25 4.0257 14.2198 4.17486 14.161 4.31364C14.1022 4.45241 14.0162 4.57797 13.908 4.68285C13.7998 4.78773 13.6716 4.8698 13.531 4.92418C13.3905 4.97857 13.2405 5.00416 13.0898 4.99945Z" fill="black"/>
</svg>
