<svg width="17" height="17" viewBox="0 0 17 17" fill="none" xmlns="http://www.w3.org/2000/svg">
<path d="M0 14.9413V2.05871C0.0110032 2.01689 0.0242072 1.97618 0.0319095 1.93327C0.0892863 1.56543 0.237032 1.21758 0.461905 0.920887C0.686778 0.624193 0.981751 0.387928 1.32039 0.233268C1.5604 0.137399 1.80718 0.0594294 2.05871 0H14.9413C14.9721 0.011694 15.0038 0.0212525 15.0359 0.0286082C16.0009 0.209061 16.6248 0.771327 16.9164 1.7066C16.9516 1.81663 16.9725 1.94097 17 2.05871V14.9413C16.989 14.9831 16.9758 15.0249 16.967 15.0678C16.7766 15.9998 16.232 16.6149 15.3253 16.9054C15.1999 16.945 15.0689 16.9692 14.9413 17H2.05871C2.02823 16.9883 1.99698 16.9788 1.96518 16.9714C0.999094 16.7909 0.37521 16.2265 0.0825243 15.2923C0.0473139 15.1779 0.0275081 15.059 0 14.9413ZM9.05456 7.52731C9.05456 7.36887 9.05456 7.23133 9.05456 7.09379C9.05456 6.8154 8.93573 6.69767 8.66065 6.69657C8.1743 6.69657 7.68759 6.69657 7.20052 6.69657C6.92214 6.69657 6.8066 6.8132 6.8066 7.09049V13.4129C6.8066 13.6957 6.92654 13.8113 7.21482 13.8124H8.57592C8.95113 13.8124 9.04796 13.7166 9.04796 13.3425C9.04796 12.2807 9.04796 11.2189 9.04796 10.1571C9.03905 9.76169 9.14409 9.37208 9.35055 9.03476C9.62123 8.60673 10.0239 8.46919 10.5092 8.53301C10.7105 8.54909 10.9012 8.63008 11.0526 8.76381C11.204 8.89755 11.3079 9.0768 11.3487 9.27463C11.429 9.62332 11.4711 9.97973 11.4742 10.3375C11.4896 11.3608 11.4742 12.3841 11.4742 13.4074C11.4742 13.6957 11.5908 13.8091 11.8791 13.8102C12.3764 13.8102 12.8742 13.8102 13.3722 13.8102C13.655 13.8102 13.775 13.6891 13.775 13.4041C13.775 12.2367 13.7882 11.0693 13.7639 9.90291C13.7529 9.41702 13.698 8.93312 13.6 8.45709C13.4647 7.80239 13.1456 7.24673 12.5371 6.90563C11.8857 6.54362 11.1826 6.53152 10.4718 6.64816C10.1971 6.68898 9.93377 6.78585 9.6981 6.93273C9.46244 7.07962 9.2595 7.27339 9.10188 7.50201C9.09968 7.50861 9.08867 7.50971 9.05456 7.52731ZM3.55295 10.2429C3.55295 11.2934 3.55295 12.3442 3.55295 13.3953C3.55295 13.6781 3.68828 13.8113 3.97217 13.8124H5.36408C5.65896 13.8124 5.7954 13.6825 5.7954 13.3898C5.7954 11.2992 5.7954 9.20861 5.7954 7.11799C5.7954 6.82201 5.66447 6.69547 5.36738 6.69327C4.90744 6.69327 4.44824 6.69327 3.98977 6.69327C3.67398 6.69327 3.54964 6.82091 3.54964 7.14L3.55295 10.2429ZM6.1178 4.64447C6.11995 4.35842 6.03733 4.07814 5.88036 3.839C5.72338 3.59985 5.4991 3.41256 5.2358 3.30075C4.9725 3.18894 4.68198 3.15762 4.4009 3.21075C4.11982 3.26387 3.86077 3.39906 3.65643 3.59925C3.4521 3.79945 3.31164 4.05568 3.25278 4.33561C3.19391 4.61555 3.21928 4.90665 3.32568 5.17218C3.43208 5.43771 3.61474 5.66578 3.85062 5.82761C4.08651 5.98945 4.36503 6.07779 4.65107 6.08149C4.84203 6.08455 5.0317 6.04969 5.20909 5.97892C5.38648 5.90815 5.54807 5.80289 5.68449 5.66924C5.82091 5.53558 5.92946 5.37618 6.00383 5.20027C6.07821 5.02437 6.11695 4.83545 6.1178 4.64447Z" fill="black"/>
</svg>
