<svg width="15" height="21" viewBox="0 0 15 21" fill="none" xmlns="http://www.w3.org/2000/svg">
<path d="M7.3354 21C7.16286 20.8608 7.00369 20.7063 6.85989 20.5384C5.6008 18.7715 4.33138 17.0107 3.10537 15.2213C2.07098 13.7571 1.22905 12.17 0.599606 10.498C0.199789 9.44725 -0.00334033 8.33402 4.15419e-05 7.21214C0.0394162 5.64372 0.585376 4.12834 1.55886 2.88543C2.53235 1.64253 3.88283 0.736621 5.41473 0.298896C5.87371 0.172831 6.35336 0.121998 6.82267 0.0345659C6.87022 0.0345659 6.91571 0.0121998 6.96119 0H8.04454C8.45803 0.0691325 8.87153 0.117932 9.27055 0.203331C10.7331 0.554453 12.0548 1.32913 13.0647 2.42715C14.0747 3.52516 14.7263 4.89597 14.9354 6.36222C15.1421 7.9177 14.8341 9.39185 14.2759 10.8355C13.5824 12.5338 12.6902 14.147 11.6171 15.6422C10.4407 17.3421 9.23127 19.0175 8.03007 20.6991C7.92338 20.8114 7.80248 20.9098 7.67033 20.9919L7.3354 21ZM7.50494 19.2717C7.53044 19.2458 7.55459 19.2187 7.5773 19.1904C8.62964 17.706 9.70265 16.2339 10.7322 14.7354C11.7402 13.3185 12.5678 11.7855 13.1967 10.1706C13.6226 9.01569 13.8727 7.8323 13.7053 6.59605C13.5194 5.19517 12.8489 3.89988 11.8066 2.92776C10.7642 1.95563 9.41349 1.3659 7.98123 1.25762C6.54896 1.14934 5.12243 1.52911 3.94126 2.33313C2.76009 3.13715 1.89624 4.31645 1.49482 5.67293C1.08133 7.08201 1.23018 8.45653 1.68709 9.82088C2.18585 11.2724 2.88127 12.6512 3.75455 13.92C4.95575 15.7012 6.21277 17.4458 7.44498 19.2066C7.46371 19.2294 7.48373 19.2511 7.50494 19.2717Z" fill="black"/>
<path d="M11.2553 7.39497C11.2533 8.12487 11.0312 8.83778 10.6172 9.44355C10.2031 10.0493 9.61577 10.5207 8.92932 10.7982C8.24287 11.0757 7.48818 11.1467 6.76068 11.0023C6.03318 10.858 5.36554 10.5047 4.8422 9.98713C4.31886 9.4696 3.96332 8.81106 3.82054 8.09479C3.67775 7.37852 3.75414 6.6367 4.04004 5.96313C4.32594 5.28956 4.80851 4.7145 5.42673 4.31066C6.04495 3.90682 6.77105 3.69234 7.51321 3.69435C8.50791 3.69865 9.46032 4.09057 10.1617 4.78422C10.8632 5.47787 11.2564 6.41669 11.2553 7.39497ZM10.0045 7.38277C10.0041 6.89634 9.85708 6.42095 9.58204 6.01667C9.307 5.61238 8.91628 5.29736 8.45925 5.11139C8.00222 4.92543 7.49939 4.87688 7.01432 4.97188C6.52924 5.06687 6.08368 5.30115 5.73395 5.64511C5.38421 5.98907 5.146 6.42726 5.04941 6.90433C4.95282 7.38139 5.00218 7.8759 5.19127 8.32538C5.38035 8.77486 5.70067 9.15913 6.11175 9.42962C6.52282 9.70012 7.0062 9.8447 7.5008 9.8451C8.16432 9.84349 8.80019 9.58355 9.26937 9.12212C9.73855 8.6607 10.0029 8.03533 10.0045 7.38277Z" fill="black"/>
</svg>
