<svg width="15" height="11" viewBox="0 0 15 11" fill="none" xmlns="http://www.w3.org/2000/svg">
<path d="M15 9.77753C14.9326 10.0028 14.844 10.2205 14.7357 10.4277C14.6198 10.6055 14.4635 10.7507 14.2808 10.8503C14.0981 10.9498 13.8945 11.0007 13.6884 10.9984H1.40096C1.18318 11.0092 0.966141 10.9646 0.768639 10.8682C0.571137 10.7719 0.399118 10.6269 0.267471 10.4456C0.0885544 10.2006 -0.00561917 9.89969 0.00025944 9.59178C0.00025944 6.8634 0.00025944 4.13502 0.00025944 1.40663C0.00025944 0.581229 0.574907 0.00149801 1.3866 0C3.07031 0 4.75451 0 6.43919 0H13.5993C14.1739 0 14.6049 0.247172 14.8664 0.789452C14.9214 0.930001 14.9661 1.07473 15 1.22238V9.77753ZM1.5202 0.924274L1.5633 0.981198C3.22595 2.70391 4.8886 4.42563 6.55124 6.14635C6.69363 6.2926 6.86398 6.40591 7.05119 6.47891C7.5971 6.69013 8.07549 6.53883 8.4878 6.11789L13.3996 1.02464C13.4255 0.999174 13.4485 0.969215 13.4872 0.925772L1.5202 0.924274ZM5.29133 6.12987L1.57767 10.0726H13.4197L9.72761 6.09542C9.55234 6.28866 9.44028 6.42498 9.30955 6.54482C9.16215 6.70754 9.00526 6.86063 8.83978 7.00321C7.93758 7.72076 6.75381 7.63088 5.922 6.7875C5.71513 6.57927 5.51831 6.36805 5.29133 6.12987ZM4.57302 5.53066L0.889527 1.61636V9.44797L4.57302 5.53066ZM14.1079 1.61186L14.0763 1.59089L10.341 5.54115L14.1007 9.43599L14.1079 1.61186Z" fill="black"/>
</svg>
