<svg width="15" height="15" viewBox="0 0 15 15" fill="none" xmlns="http://www.w3.org/2000/svg">
<path d="M0 4.1315C0.0215681 3.95909 0.0338931 3.78361 0.0677857 3.61274C0.14692 3.19239 0.348418 2.80472 0.647043 2.49826C1.05067 2.08726 1.4389 1.65779 1.8795 1.28065C2.54041 0.706475 3.25678 0.709554 3.89304 1.30374C4.56935 1.93794 5.21793 2.60294 5.85111 3.28179C6.07581 3.52582 6.20142 3.84477 6.20342 4.17637C6.20541 4.50797 6.08365 4.8284 5.86189 5.07511C5.52297 5.45995 5.15015 5.81399 4.78349 6.17574C4.75149 6.19869 4.7295 6.23303 4.72205 6.27168C4.7146 6.31033 4.72226 6.35036 4.74344 6.38355C5.12158 7.10198 5.60443 7.7603 6.17617 8.33697C6.73874 8.94905 7.37705 9.48701 8.0757 9.93788C8.27598 10.0656 8.49012 10.1719 8.71504 10.2965C8.95537 10.0518 9.18954 9.81011 9.42987 9.5746C9.58393 9.42066 9.75031 9.25903 9.92285 9.11279C10.1699 8.90374 10.4842 8.79107 10.8079 8.79559C11.1316 8.80012 11.4427 8.92154 11.6837 9.13742C12.3832 9.8055 13.0703 10.489 13.7312 11.1909C13.9679 11.4389 14.1019 11.7673 14.1062 12.11C14.1105 12.4527 13.9847 12.7843 13.7543 13.0381C13.3185 13.5367 12.8556 14.011 12.3677 14.4589C11.8563 14.9207 11.2154 15.0439 10.536 14.9869C9.26349 14.8792 8.13578 14.3712 7.04198 13.7554C5.70636 13.0148 4.49643 12.0677 3.45705 10.9492C2.17838 9.57614 1.12154 8.05835 0.457551 6.28965C0.214692 5.69769 0.0700346 5.07014 0.0292713 4.43167C0.0250373 4.39775 0.0178202 4.36427 0.00770335 4.33161L0 4.1315ZM0.862724 4.25465C0.87967 4.42397 0.891995 4.59484 0.912022 4.76417C0.921784 4.84142 0.936189 4.91801 0.955158 4.99353C1.19771 6.01573 1.60959 6.99022 2.17375 7.87671C3.645 10.2627 5.60308 12.1284 8.13116 13.3721C8.91069 13.7554 9.71334 14.0648 10.5961 14.1418C10.848 14.1779 11.1049 14.1541 11.3458 14.0722C11.5867 13.9904 11.8049 13.8528 11.9826 13.6708C12.3123 13.3306 12.6466 12.9965 12.9763 12.6563C13.3337 12.2884 13.3337 11.9806 12.9763 11.6158C12.7344 11.3664 12.4864 11.1247 12.2414 10.88C11.8994 10.5382 11.5605 10.1934 11.2139 9.85629C11.1625 9.79637 11.0992 9.74791 11.0279 9.71407C10.9566 9.68023 10.879 9.66176 10.8001 9.65987C10.7211 9.65799 10.6427 9.67272 10.5699 9.70311C10.4971 9.73351 10.4314 9.77888 10.3773 9.83628C10.3296 9.87784 10.2849 9.92249 10.2402 9.96713C9.90437 10.3027 9.5716 10.6383 9.23268 10.9708C9.14104 11.0803 9.01472 11.1552 8.87465 11.1832C8.73457 11.2112 8.58912 11.1906 8.46239 11.1247C8.17288 10.9851 7.8906 10.8309 7.61661 10.6629C6.71754 10.0799 5.90843 9.36895 5.21485 8.55248C4.70984 7.99976 4.28652 7.37773 3.95774 6.70527C3.70971 6.1665 3.74514 5.99872 4.17188 5.58463C4.50927 5.25983 4.84511 4.93196 5.16709 4.59176C5.41205 4.33161 5.4028 4.06377 5.17788 3.78977C5.14861 3.7559 5.12088 3.72204 5.08852 3.69125C4.50927 3.11092 3.93001 2.52905 3.34767 1.9518C3.28577 1.88982 3.21456 1.83788 3.13661 1.79786C2.88704 1.66856 2.63901 1.72705 2.38481 1.97643C2.05667 2.29815 1.74085 2.63065 1.40809 2.94775C1.22554 3.11227 1.08191 3.3153 0.987585 3.54214C0.893262 3.76897 0.850612 4.01393 0.862724 4.25926V4.25465Z" fill="black"/>
<path d="M8.41617 0C8.75509 0.0877422 9.0971 0.163169 9.43141 0.266305C10.5087 0.595784 11.5024 1.15337 12.3446 1.90108C13.2456 2.68678 13.9607 3.66261 14.4383 4.75809C14.6984 5.35246 14.8846 5.97644 14.9929 6.61607C15.0126 6.72186 14.991 6.83118 14.9324 6.9215C14.8738 7.01181 14.7828 7.07624 14.6782 7.1015C14.5735 7.12677 14.4631 7.11094 14.3697 7.05728C14.2764 7.00362 14.2072 6.91623 14.1764 6.81311C14.087 6.50524 14.0223 6.17736 13.9345 5.86487C13.5464 4.60429 12.8216 3.47333 11.8381 2.59371C10.8547 1.71408 9.64972 1.1191 8.353 0.872804C8.02486 0.81123 7.87851 0.658836 7.89083 0.411003C7.89717 0.318121 7.93145 0.229322 7.98918 0.156252C8.04692 0.0831818 8.1254 0.0292521 8.21435 0.00153849L8.41617 0Z" fill="black"/>
<path d="M7.76604 3.14609C7.7655 3.08215 7.77951 3.01892 7.80701 2.96119C7.83452 2.90346 7.8748 2.85273 7.92481 2.81284C7.97482 2.77295 8.03326 2.74495 8.0957 2.73094C8.15813 2.71694 8.22294 2.7173 8.28522 2.73201C10.0461 3.08913 11.2893 4.09124 11.9826 5.74603C12.099 6.0558 12.1922 6.37378 12.2614 6.69734C12.2774 6.75243 12.2821 6.81019 12.2751 6.86713C12.2681 6.92406 12.2497 6.979 12.2209 7.02862C12.1921 7.07824 12.1536 7.12153 12.1076 7.15587C12.0616 7.1902 12.0091 7.21488 11.9533 7.22841C11.8425 7.25292 11.7264 7.23293 11.6302 7.17275C11.5339 7.11258 11.4652 7.01702 11.4388 6.90669C11.3601 6.58036 11.2603 6.2595 11.1399 5.94614C10.8786 5.33466 10.4689 4.79787 9.94793 4.38426C9.42693 3.97064 8.81101 3.69324 8.15581 3.5771C7.90007 3.52323 7.7645 3.37237 7.76604 3.14609Z" fill="black"/>
</svg>
