<svg width="541" height="65" viewBox="0 0 541 65" fill="none" xmlns="http://www.w3.org/2000/svg">
<path d="M422.006 44.2563C420.958 44.2563 419.973 44.1538 419.05 43.9487C418.138 43.7437 417.284 43.436 416.486 43.0259C415.689 42.6157 414.954 42.103 414.282 41.4878L416.35 38.9414C417.307 39.6706 418.258 40.2174 419.204 40.582C420.149 40.9466 421.083 41.1289 422.006 41.1289C423.385 41.1289 424.416 40.9181 425.1 40.4966C425.795 40.0636 426.142 39.4199 426.142 38.5654C426.142 37.9958 425.954 37.5685 425.578 37.2837C425.202 36.9989 424.735 36.8109 424.177 36.7197C423.618 36.6172 422.832 36.526 421.818 36.4463C421.727 36.4463 421.63 36.4463 421.528 36.4463C421.425 36.4349 421.328 36.4235 421.237 36.4121C421.192 36.4121 421.146 36.4121 421.101 36.4121C421.055 36.4007 421.009 36.395 420.964 36.395C419.813 36.3039 418.839 36.1387 418.042 35.8994C417.244 35.6488 416.577 35.1873 416.042 34.5151C415.518 33.8429 415.256 32.8802 415.256 31.627C415.256 30.3737 415.512 29.3312 416.025 28.4995C416.538 27.6678 417.301 27.0469 418.315 26.6367C419.329 26.2152 420.599 26.0044 422.126 26.0044C423.049 26.0044 423.926 26.0898 424.758 26.2607C425.601 26.4316 426.404 26.688 427.167 27.0298C427.931 27.3602 428.666 27.7817 429.372 28.2944L427.27 30.8408C426.381 30.2712 425.504 29.8439 424.638 29.5591C423.784 29.2743 422.946 29.1318 422.126 29.1318C420.941 29.1318 420.052 29.3369 419.46 29.7471C418.868 30.1458 418.571 30.7497 418.571 31.5586C418.571 32.0371 418.736 32.396 419.067 32.6353C419.409 32.8745 419.836 33.034 420.349 33.1138C420.861 33.1935 421.59 33.2619 422.536 33.3188C422.604 33.3302 422.673 33.3359 422.741 33.3359C422.821 33.3359 422.901 33.3416 422.98 33.353C423.015 33.353 423.049 33.353 423.083 33.353C423.117 33.353 423.151 33.3587 423.186 33.3701C424.427 33.4499 425.481 33.6151 426.347 33.8657C427.224 34.1164 427.959 34.612 428.552 35.3525C429.144 36.0931 429.44 37.1641 429.44 38.5654C429.44 39.8415 429.167 40.901 428.62 41.7441C428.073 42.5758 427.247 43.2025 426.142 43.624C425.048 44.0456 423.67 44.2563 422.006 44.2563ZM444.582 26.2607H448.051V44H444.582V26.2607ZM437.37 37.0444C437.37 38.2863 437.683 39.249 438.31 39.9326C438.948 40.6048 439.842 40.9409 440.993 40.9409C442.132 40.9409 443.015 40.639 443.642 40.0352C444.269 39.4313 444.582 38.5711 444.582 37.4546L444.821 41.1631C444.457 42.0404 443.864 42.7752 443.044 43.3677C442.224 43.9601 441.215 44.2563 440.019 44.2563C438.059 44.2563 436.544 43.6297 435.473 42.3765C434.414 41.1118 433.884 39.3345 433.884 37.0444V26.2607H437.37V37.0444ZM460.527 44.2563C458.909 44.2563 457.525 43.9544 456.374 43.3506C455.235 42.7467 454.363 41.8695 453.759 40.7188C453.155 39.568 452.854 38.1781 452.854 36.5488V33.6265C452.854 32.02 453.155 30.6471 453.759 29.5078C454.363 28.3685 455.235 27.5026 456.374 26.9102C457.525 26.3063 458.909 26.0044 460.527 26.0044C461.45 26.0044 462.316 26.1183 463.125 26.3462C463.945 26.5627 464.68 26.8817 465.329 27.3032C465.979 27.7248 466.52 28.2375 466.953 28.8413L464.44 31.0972C463.939 30.5275 463.352 30.0889 462.68 29.7812C462.008 29.4736 461.307 29.3198 460.578 29.3198C459.234 29.3198 458.191 29.6958 457.451 30.4478C456.71 31.1997 456.34 32.2593 456.34 33.6265V36.5488C456.34 37.9502 456.704 39.0326 457.434 39.7959C458.174 40.5592 459.222 40.9409 460.578 40.9409C461.319 40.9409 462.025 40.7757 462.697 40.4453C463.369 40.1149 463.951 39.6478 464.44 39.0439L466.953 41.4707C466.508 42.0632 465.961 42.5701 465.312 42.9917C464.663 43.4019 463.928 43.7152 463.107 43.9316C462.299 44.1481 461.438 44.2563 460.527 44.2563ZM477.958 44.2563C476.341 44.2563 474.956 43.9544 473.806 43.3506C472.666 42.7467 471.795 41.8695 471.191 40.7188C470.587 39.568 470.285 38.1781 470.285 36.5488V33.6265C470.285 32.02 470.587 30.6471 471.191 29.5078C471.795 28.3685 472.666 27.5026 473.806 26.9102C474.956 26.3063 476.341 26.0044 477.958 26.0044C478.881 26.0044 479.747 26.1183 480.556 26.3462C481.376 26.5627 482.111 26.8817 482.761 27.3032C483.41 27.7248 483.951 28.2375 484.384 28.8413L481.872 31.0972C481.371 30.5275 480.784 30.0889 480.112 29.7812C479.44 29.4736 478.739 29.3198 478.01 29.3198C476.665 29.3198 475.623 29.6958 474.882 30.4478C474.142 31.1997 473.771 32.2593 473.771 33.6265V36.5488C473.771 37.9502 474.136 39.0326 474.865 39.7959C475.606 40.5592 476.654 40.9409 478.01 40.9409C478.75 40.9409 479.457 40.7757 480.129 40.4453C480.801 40.1149 481.382 39.6478 481.872 39.0439L484.384 41.4707C483.94 42.0632 483.393 42.5701 482.744 42.9917C482.094 43.4019 481.359 43.7152 480.539 43.9316C479.73 44.1481 478.87 44.2563 477.958 44.2563ZM495.493 44.2563C493.852 44.2563 492.451 43.9487 491.289 43.3335C490.126 42.7183 489.238 41.8182 488.623 40.6333C488.019 39.437 487.717 37.9958 487.717 36.3096V34.3101C487.717 32.5555 488.007 31.0573 488.588 29.8154C489.181 28.5736 490.035 27.6279 491.152 26.9785C492.268 26.3291 493.613 26.0044 495.185 26.0044C496.666 26.0044 497.931 26.3747 498.979 27.1152C500.027 27.8558 500.825 28.9268 501.372 30.3281C501.93 31.7295 502.209 33.41 502.209 35.3696V36.5317H490.246V33.729H498.894C498.791 32.2821 498.415 31.1598 497.766 30.3623C497.128 29.5534 496.267 29.1489 495.185 29.1489C493.863 29.1489 492.838 29.5819 492.109 30.4478C491.391 31.3136 491.032 32.5384 491.032 34.1221V36.3779C491.032 37.8477 491.42 38.9756 492.194 39.7617C492.969 40.5479 494.069 40.9409 495.493 40.9409C496.199 40.9409 496.9 40.7985 497.595 40.5137C498.29 40.2288 498.911 39.8301 499.458 39.3174L501.748 41.6074C500.87 42.4505 499.885 43.1056 498.791 43.5728C497.697 44.0285 496.598 44.2563 495.493 44.2563ZM513.266 44.2563C512.218 44.2563 511.232 44.1538 510.31 43.9487C509.398 43.7437 508.544 43.436 507.746 43.0259C506.949 42.6157 506.214 42.103 505.542 41.4878L507.609 38.9414C508.566 39.6706 509.518 40.2174 510.463 40.582C511.409 40.9466 512.343 41.1289 513.266 41.1289C514.645 41.1289 515.676 40.9181 516.359 40.4966C517.054 40.0636 517.402 39.4199 517.402 38.5654C517.402 37.9958 517.214 37.5685 516.838 37.2837C516.462 36.9989 515.995 36.8109 515.437 36.7197C514.878 36.6172 514.092 36.526 513.078 36.4463C512.987 36.4463 512.89 36.4463 512.788 36.4463C512.685 36.4349 512.588 36.4235 512.497 36.4121C512.451 36.4121 512.406 36.4121 512.36 36.4121C512.315 36.4007 512.269 36.395 512.224 36.395C511.073 36.3039 510.099 36.1387 509.301 35.8994C508.504 35.6488 507.837 35.1873 507.302 34.5151C506.778 33.8429 506.516 32.8802 506.516 31.627C506.516 30.3737 506.772 29.3312 507.285 28.4995C507.797 27.6678 508.561 27.0469 509.575 26.6367C510.589 26.2152 511.859 26.0044 513.386 26.0044C514.309 26.0044 515.186 26.0898 516.018 26.2607C516.861 26.4316 517.664 26.688 518.427 27.0298C519.191 27.3602 519.925 27.7817 520.632 28.2944L518.53 30.8408C517.641 30.2712 516.764 29.8439 515.898 29.5591C515.043 29.2743 514.206 29.1318 513.386 29.1318C512.201 29.1318 511.312 29.3369 510.72 29.7471C510.127 30.1458 509.831 30.7497 509.831 31.5586C509.831 32.0371 509.996 32.396 510.327 32.6353C510.668 32.8745 511.096 33.034 511.608 33.1138C512.121 33.1935 512.85 33.2619 513.796 33.3188C513.864 33.3302 513.933 33.3359 514.001 33.3359C514.081 33.3359 514.16 33.3416 514.24 33.353C514.274 33.353 514.309 33.353 514.343 33.353C514.377 33.353 514.411 33.3587 514.445 33.3701C515.687 33.4499 516.741 33.6151 517.607 33.8657C518.484 34.1164 519.219 34.612 519.812 35.3525C520.404 36.0931 520.7 37.1641 520.7 38.5654C520.7 39.8415 520.427 40.901 519.88 41.7441C519.333 42.5758 518.507 43.2025 517.402 43.624C516.308 44.0456 514.93 44.2563 513.266 44.2563ZM531.416 44.2563C530.367 44.2563 529.382 44.1538 528.459 43.9487C527.548 43.7437 526.693 43.436 525.896 43.0259C525.098 42.6157 524.363 42.103 523.691 41.4878L525.759 38.9414C526.716 39.6706 527.667 40.2174 528.613 40.582C529.558 40.9466 530.493 41.1289 531.416 41.1289C532.794 41.1289 533.825 40.9181 534.509 40.4966C535.204 40.0636 535.551 39.4199 535.551 38.5654C535.551 37.9958 535.363 37.5685 534.987 37.2837C534.611 36.9989 534.144 36.8109 533.586 36.7197C533.028 36.6172 532.242 36.526 531.228 36.4463C531.136 36.4463 531.04 36.4463 530.937 36.4463C530.834 36.4349 530.738 36.4235 530.646 36.4121C530.601 36.4121 530.555 36.4121 530.51 36.4121C530.464 36.4007 530.419 36.395 530.373 36.395C529.222 36.3039 528.248 36.1387 527.451 35.8994C526.653 35.6488 525.987 35.1873 525.451 34.5151C524.927 33.8429 524.665 32.8802 524.665 31.627C524.665 30.3737 524.921 29.3312 525.434 28.4995C525.947 27.6678 526.71 27.0469 527.724 26.6367C528.738 26.2152 530.008 26.0044 531.535 26.0044C532.458 26.0044 533.335 26.0898 534.167 26.2607C535.01 26.4316 535.813 26.688 536.577 27.0298C537.34 27.3602 538.075 27.7817 538.781 28.2944L536.679 30.8408C535.791 30.2712 534.913 29.8439 534.047 29.5591C533.193 29.2743 532.355 29.1318 531.535 29.1318C530.35 29.1318 529.462 29.3369 528.869 29.7471C528.277 30.1458 527.98 30.7497 527.98 31.5586C527.98 32.0371 528.146 32.396 528.476 32.6353C528.818 32.8745 529.245 33.034 529.758 33.1138C530.271 33.1935 531 33.2619 531.945 33.3188C532.014 33.3302 532.082 33.3359 532.15 33.3359C532.23 33.3359 532.31 33.3416 532.39 33.353C532.424 33.353 532.458 33.353 532.492 33.353C532.526 33.353 532.561 33.3587 532.595 33.3701C533.837 33.4499 534.89 33.6151 535.756 33.8657C536.634 34.1164 537.368 34.612 537.961 35.3525C538.553 36.0931 538.85 37.1641 538.85 38.5654C538.85 39.8415 538.576 40.901 538.029 41.7441C537.482 42.5758 536.656 43.2025 535.551 43.624C534.458 44.0456 533.079 44.2563 531.416 44.2563Z" fill="#410EAD"/>
<path d="M13.6206 44H10.7495C9.56462 44 8.54492 43.5785 7.69043 42.7354C6.83594 41.8923 6.40869 40.8783 6.40869 39.6934V30.3794H4.93896C4.5402 30.3794 4.1984 30.2427 3.91357 29.9692C3.64014 29.6958 3.50342 29.354 3.50342 28.9438C3.50342 28.5451 3.64014 28.209 3.91357 27.9355C4.1984 27.6507 4.5402 27.5083 4.93896 27.5083H6.44287V23.9878C6.44287 23.589 6.57959 23.2529 6.85303 22.9795C7.13786 22.6947 7.47965 22.5522 7.87842 22.5522C8.25439 22.5522 8.5848 22.6947 8.86963 22.9795C9.16585 23.2643 9.31396 23.6004 9.31396 23.9878V27.5083H15.0903C15.4777 27.5083 15.8138 27.6507 16.0986 27.9355C16.3835 28.2204 16.5259 28.5565 16.5259 28.9438C16.5259 29.3426 16.3835 29.6844 16.0986 29.9692C15.8138 30.2427 15.4777 30.3794 15.0903 30.3794H9.27979V39.6934C9.27979 40.0807 9.4222 40.4168 9.70703 40.7017C10.0033 40.9865 10.3507 41.1289 10.7495 41.1289H13.5522C14.3156 41.1289 14.8226 40.7188 15.0732 39.8984C15.3239 39.0667 15.8081 38.6509 16.5259 38.6509C16.9474 38.6509 17.2892 38.7933 17.5513 39.0781C17.8247 39.3516 17.9614 39.6991 17.9614 40.1206C17.9614 40.9865 17.5513 41.8524 16.731 42.7183C15.922 43.5728 14.8853 44 13.6206 44ZM28.9673 33.6436H34.5898C34.8975 33.6436 35.3418 33.7119 35.9229 33.8486L35.8887 31.8149C35.8887 31.4162 35.7463 31.0801 35.4614 30.8066C35.188 30.5218 34.8519 30.3794 34.4531 30.3794H29.0015C28.6141 30.3794 28.278 30.237 27.9932 29.9521C27.7083 29.6673 27.5659 29.3312 27.5659 28.9438C27.5659 28.5451 27.7026 28.209 27.9761 27.9355C28.2609 27.6507 28.6027 27.5083 29.0015 27.5083H34.4531C35.638 27.5083 36.6463 27.9242 37.478 28.7559C38.3211 29.5876 38.7598 30.6073 38.7939 31.8149L39.1528 42.5645C39.1528 42.9632 39.0104 43.305 38.7256 43.5898C38.4408 43.8633 38.1047 44 37.7173 44C37.3071 44 36.9596 43.8633 36.6748 43.5898C36.39 43.305 36.2476 42.9632 36.2476 42.5645L33.8208 44H28.9673C27.7596 44 26.7342 43.5785 25.8911 42.7354C25.048 41.8923 24.6265 40.8669 24.6265 39.6592V37.9844C24.6265 36.7881 25.048 35.7684 25.8911 34.9253C26.7456 34.0708 27.771 33.6436 28.9673 33.6436ZM36.145 39.2319L36.0596 38.0186C36.0482 37.6084 35.9058 37.2666 35.6323 36.9932C35.3589 36.7197 35.0228 36.583 34.624 36.583H28.9673C28.5685 36.583 28.2267 36.7254 27.9419 37.0103C27.6685 37.2837 27.5317 37.6198 27.5317 38.0186V39.625C27.5317 40.0124 27.6742 40.3485 27.959 40.6333C28.2438 40.9181 28.5799 41.0605 28.9673 41.0605H33.0176L36.145 39.2319ZM52.6367 30.8408L48.7231 33.3872V42.5645C48.7231 42.9518 48.5807 43.2879 48.2959 43.5728C48.0111 43.8576 47.675 44 47.2876 44C46.9002 44 46.5641 43.8576 46.2793 43.5728C45.9945 43.2879 45.8521 42.9518 45.8521 42.5645V28.9438C45.8521 28.5451 45.9888 28.2033 46.2622 27.9185C46.547 27.6222 46.8888 27.4741 47.2876 27.4741C47.675 27.4741 48.0111 27.6222 48.2959 27.9185C48.5807 28.2033 48.7231 28.5451 48.7231 28.9438V29.9009L51.3379 28.3115C52.2152 27.7533 53.2064 27.4741 54.3115 27.4741H55.6445C56.7839 27.4741 57.7694 27.8786 58.6011 28.6875C59.4328 29.4964 59.8714 30.4933 59.917 31.6782L60.3101 42.5645C60.3215 42.9518 60.1847 43.2879 59.8999 43.5728C59.6151 43.8576 59.2733 44 58.8745 44C58.4985 44 58.1681 43.8747 57.8833 43.624C57.5985 43.362 57.4504 43.0088 57.439 42.5645L57.0117 31.8491C56.9775 30.8465 56.4535 30.3452 55.4395 30.3452H54.0381C53.6051 30.3452 53.138 30.5104 52.6367 30.8408ZM82.4072 44.2563C80.8691 44.2563 79.5532 43.9544 78.4595 43.3506C77.3657 42.7467 76.5283 41.8695 75.9473 40.7188C75.3776 39.5566 75.0928 38.161 75.0928 36.5317V26.5342C75.0928 24.9277 75.3776 23.5549 75.9473 22.4155C76.5283 21.2648 77.3657 20.3932 78.4595 19.8008C79.5532 19.1969 80.8691 18.895 82.4072 18.895C83.9453 18.895 85.2612 19.1969 86.355 19.8008C87.4487 20.3932 88.2804 21.2648 88.8501 22.4155C89.4312 23.5549 89.7217 24.9277 89.7217 26.5342V36.583C89.7217 38.2008 89.4312 39.5851 88.8501 40.7358C88.2804 41.8752 87.4487 42.7467 86.355 43.3506C85.2612 43.9544 83.9453 44.2563 82.4072 44.2563ZM82.4072 40.9409C83.6263 40.9409 84.5662 40.5592 85.2271 39.7959C85.8993 39.0326 86.2354 37.9616 86.2354 36.583V26.5342C86.2354 25.1556 85.8993 24.0903 85.2271 23.3384C84.5662 22.5864 83.6263 22.2104 82.4072 22.2104C81.1882 22.2104 80.2425 22.5864 79.5703 23.3384C78.9095 24.0903 78.5791 25.1556 78.5791 26.5342V36.583C78.5791 37.9616 78.9095 39.0326 79.5703 39.7959C80.2425 40.5592 81.1882 40.9409 82.4072 40.9409ZM77.2974 30.0034H87.2778V33.3188H77.2974V30.0034Z" fill="#410EAD"/>
<path d="M106.186 31.606H114.583V33.955H106.186V31.606ZM106.186 36.25H114.583V38.599H106.186V36.25Z" fill="black"/>
<path d="M205.186 31.606H213.583V33.955H205.186V31.606ZM205.186 36.25H213.583V38.599H205.186V36.25Z" fill="black"/>
<path d="M388.186 31.606H396.583V33.955H388.186V31.606ZM388.186 36.25H396.583V38.599H388.186V36.25Z" fill="black"/>
<path d="M136.64 18.9482C136.64 18.3792 136.744 17.8701 136.954 17.4209C137.164 16.9567 137.456 16.5674 137.83 16.2529C138.204 15.9235 138.624 15.6689 139.088 15.4893C139.567 15.2946 140.061 15.1748 140.57 15.1299V17.376C140.181 17.4508 139.874 17.6081 139.649 17.8477C139.44 18.0872 139.335 18.4242 139.335 18.8584C139.335 19.2178 139.447 19.5098 139.672 19.7344C139.911 19.944 140.211 20.1312 140.57 20.2959V22.6992C140.316 22.6243 140.054 22.542 139.784 22.4521C139.53 22.3473 139.275 22.235 139.021 22.1152C138.227 21.696 137.628 21.2542 137.224 20.79C136.834 20.3258 136.64 19.7119 136.64 18.9482ZM144.142 18.0049C143.737 17.7952 143.303 17.638 142.839 17.5332C142.39 17.4284 141.94 17.361 141.491 17.3311V15.1074C142.165 15.1374 142.786 15.2347 143.355 15.3994C143.924 15.5492 144.479 15.7962 145.018 16.1406L144.142 18.0049ZM137.83 25.1699C138.13 25.3796 138.481 25.5742 138.886 25.7539C139.305 25.9336 139.829 26.0234 140.458 26.0234H140.57V28.1123C140.196 28.1123 139.852 28.0973 139.537 28.0674C139.223 28.0524 138.908 28.0075 138.594 27.9326C138.294 27.8428 137.987 27.723 137.673 27.5732C137.358 27.4235 137.029 27.2288 136.685 26.9893L137.83 25.1699ZM141.491 20.6553C141.94 20.805 142.397 20.9697 142.861 21.1494C143.326 21.3291 143.745 21.5537 144.119 21.8232C144.508 22.0928 144.823 22.4297 145.062 22.834C145.317 23.2233 145.444 23.7174 145.444 24.3164C145.444 24.9004 145.34 25.4095 145.13 25.8438C144.92 26.278 144.636 26.6523 144.276 26.9668C143.932 27.2812 143.52 27.5283 143.041 27.708C142.562 27.8877 142.045 28.0075 141.491 28.0674V25.9336C142 25.8438 142.39 25.6865 142.659 25.4619C142.944 25.2223 143.086 24.9079 143.086 24.5186C143.086 24.1292 142.929 23.8298 142.614 23.6201C142.315 23.3955 141.94 23.2008 141.491 23.0361V20.6553ZM151.688 28H148.948V15.332H151.688V28ZM151.936 11.2891C151.936 11.7383 151.778 12.1201 151.464 12.4346C151.149 12.734 150.768 12.8838 150.318 12.8838C149.869 12.8838 149.487 12.7266 149.173 12.4121C148.873 12.0977 148.724 11.7233 148.724 11.2891C148.724 10.8398 148.881 10.458 149.195 10.1436C149.51 9.8291 149.884 9.67188 150.318 9.67188C150.768 9.67188 151.149 9.8291 151.464 10.1436C151.778 10.458 151.936 10.8398 151.936 11.2891ZM157.933 15.332L158.225 16.6123V28H155.507V15.332H157.933ZM164.94 16.7246C165.195 16.9792 165.39 17.2786 165.524 17.623C165.674 17.9525 165.779 18.3044 165.839 18.6787C165.914 19.0381 165.959 19.4049 165.974 19.7793C165.989 20.1536 165.996 20.5205 165.996 20.8799V27.5508V28H163.256V21.1045C163.256 20.5954 163.233 20.1087 163.188 19.6445C163.144 19.1803 163.039 18.7686 162.874 18.4092C162.709 18.0498 162.485 17.7728 162.2 17.5781C161.916 17.3685 161.519 17.2637 161.01 17.2637C160.8 17.2637 160.516 17.3011 160.156 17.376C159.812 17.4359 159.475 17.5407 159.146 17.6904V15.9609C159.55 15.7513 159.984 15.5716 160.448 15.4219C160.927 15.2721 161.392 15.1973 161.841 15.1973C162.515 15.1973 163.084 15.3395 163.548 15.624C164.012 15.8936 164.476 16.2604 164.94 16.7246ZM180.778 28.23C178.876 28.23 177.473 27.4403 176.569 25.861C175.679 24.2817 175.235 22.1043 175.235 19.329C175.235 17.4583 175.419 15.856 175.787 14.522C176.155 13.188 176.745 12.1683 177.558 11.463C178.386 10.7577 179.459 10.405 180.778 10.405C182.694 10.405 184.105 11.187 185.01 12.751C185.93 14.2997 186.39 16.4923 186.39 19.329C186.39 21.1843 186.198 22.779 185.815 24.113C185.447 25.4317 184.849 26.4513 184.021 27.172C183.208 27.8773 182.127 28.23 180.778 28.23ZM177.282 18.294H184.32C184.243 16.2087 183.929 14.66 183.377 13.648C182.825 12.6207 181.958 12.107 180.778 12.107C179.612 12.107 178.754 12.6207 178.202 13.648C177.665 14.66 177.358 16.2087 177.282 18.294ZM180.778 26.551C181.974 26.551 182.855 26.0297 183.423 24.987C183.99 23.929 184.297 22.2193 184.343 19.858H177.282C177.312 22.204 177.596 23.906 178.133 24.964C178.685 26.022 179.566 26.551 180.778 26.551Z" fill="#FB5A5A"/>
<path d="M141.354 49.6113C141.13 49.3418 140.815 49.0947 140.411 48.8701C140.022 48.6305 139.498 48.4883 138.839 48.4434V46.2871C139.662 46.332 140.366 46.5117 140.95 46.8262C141.549 47.1257 142.088 47.5674 142.567 48.1514L141.354 49.6113ZM138.839 56.8662C139.378 56.8063 139.835 56.679 140.209 56.4844C140.598 56.2747 140.965 56.0352 141.31 55.7656L142.32 57.2256C141.856 57.8096 141.354 58.2588 140.815 58.5732C140.276 58.8727 139.618 59.0449 138.839 59.0898V56.8662ZM132.572 52.666C132.572 51.8125 132.692 51.0114 132.932 50.2627C133.186 49.514 133.553 48.8551 134.032 48.2861C134.511 47.7171 135.073 47.2604 135.717 46.916C136.376 46.5566 137.109 46.347 137.918 46.2871V48.4658C137.169 48.6305 136.57 49.0947 136.121 49.8584C135.672 50.6071 135.447 51.5205 135.447 52.5986C135.447 53.1527 135.5 53.6768 135.604 54.1709C135.724 54.6501 135.889 55.0768 136.099 55.4512C136.308 55.8255 136.563 56.14 136.862 56.3945C137.177 56.6491 137.529 56.8063 137.918 56.8662V59.0898C137.094 59.0449 136.353 58.8503 135.694 58.5059C135.035 58.1465 134.474 57.6823 134.01 57.1133C133.546 56.5293 133.186 55.8555 132.932 55.0918C132.692 54.3281 132.572 53.5195 132.572 52.666ZM152.023 46.2646C152.847 46.3096 153.596 46.5117 154.27 46.8711C154.943 47.2155 155.505 47.6797 155.954 48.2637C156.418 48.8327 156.778 49.499 157.032 50.2627C157.287 51.0264 157.414 51.8424 157.414 52.7109C157.414 53.5794 157.279 54.3955 157.01 55.1592C156.755 55.9079 156.396 56.5667 155.932 57.1357C155.467 57.6898 154.898 58.139 154.225 58.4834C153.551 58.8278 152.817 59.0299 152.023 59.0898V56.9336C152.772 56.7689 153.379 56.2972 153.843 55.5186C154.322 54.7399 154.562 53.804 154.562 52.7109C154.562 52.1569 154.502 51.6403 154.382 51.1611C154.277 50.667 154.112 50.2253 153.888 49.8359C153.663 49.4466 153.394 49.1247 153.079 48.8701C152.765 48.6156 152.413 48.4508 152.023 48.376V46.2646ZM145.757 52.666C145.757 51.7975 145.884 50.9889 146.139 50.2402C146.393 49.4915 146.753 48.8402 147.217 48.2861C147.696 47.7171 148.265 47.2604 148.924 46.916C149.583 46.5716 150.309 46.362 151.103 46.2871V48.376C150.354 48.5407 149.755 49.0124 149.306 49.791C148.856 50.5697 148.632 51.5055 148.632 52.5986C148.632 53.1527 148.684 53.6768 148.789 54.1709C148.909 54.665 149.074 55.1068 149.283 55.4961C149.493 55.8854 149.747 56.2074 150.047 56.4619C150.361 56.7165 150.713 56.8737 151.103 56.9336V59.0898C150.279 59.0299 149.538 58.8278 148.879 58.4834C148.22 58.124 147.659 57.6598 147.194 57.0908C146.73 56.5218 146.371 55.8555 146.116 55.0918C145.877 54.3281 145.757 53.5195 145.757 52.666ZM160.648 49.9482C160.648 49.3792 160.753 48.8701 160.963 48.4209C161.173 47.9567 161.465 47.5674 161.839 47.2529C162.213 46.9235 162.632 46.6689 163.097 46.4893C163.576 46.2946 164.07 46.1748 164.579 46.1299V48.376C164.19 48.4508 163.883 48.6081 163.658 48.8477C163.449 49.0872 163.344 49.4242 163.344 49.8584C163.344 50.2178 163.456 50.5098 163.681 50.7344C163.92 50.944 164.22 51.1312 164.579 51.2959V53.6992C164.325 53.6243 164.062 53.542 163.793 53.4521C163.538 53.3473 163.284 53.235 163.029 53.1152C162.236 52.696 161.637 52.2542 161.232 51.79C160.843 51.3258 160.648 50.7119 160.648 49.9482ZM168.15 49.0049C167.746 48.7952 167.312 48.638 166.848 48.5332C166.398 48.4284 165.949 48.361 165.5 48.3311V46.1074C166.174 46.1374 166.795 46.2347 167.364 46.3994C167.933 46.5492 168.487 46.7962 169.026 47.1406L168.15 49.0049ZM161.839 56.1699C162.138 56.3796 162.49 56.5742 162.895 56.7539C163.314 56.9336 163.838 57.0234 164.467 57.0234H164.579V59.1123C164.205 59.1123 163.86 59.0973 163.546 59.0674C163.231 59.0524 162.917 59.0075 162.603 58.9326C162.303 58.8428 161.996 58.723 161.682 58.5732C161.367 58.4235 161.038 58.2288 160.693 57.9893L161.839 56.1699ZM165.5 51.6553C165.949 51.805 166.406 51.9697 166.87 52.1494C167.334 52.3291 167.754 52.5537 168.128 52.8232C168.517 53.0928 168.832 53.4297 169.071 53.834C169.326 54.2233 169.453 54.7174 169.453 55.3164C169.453 55.9004 169.348 56.4095 169.139 56.8438C168.929 57.278 168.645 57.6523 168.285 57.9668C167.941 58.2812 167.529 58.5283 167.05 58.708C166.571 58.8877 166.054 59.0075 165.5 59.0674V56.9336C166.009 56.8438 166.398 56.6865 166.668 56.4619C166.952 56.2223 167.095 55.9079 167.095 55.5186C167.095 55.1292 166.938 54.8298 166.623 54.6201C166.324 54.3955 165.949 54.2008 165.5 54.0361V51.6553ZM184.01 59.23C182.109 59.23 180.706 58.4403 179.801 56.861C178.912 55.2817 178.467 53.1043 178.467 50.329C178.467 48.4583 178.651 46.856 179.019 45.522C179.387 44.188 179.977 43.1683 180.79 42.463C181.618 41.7577 182.691 41.405 184.01 41.405C185.927 41.405 187.337 42.187 188.242 43.751C189.162 45.2997 189.622 47.4923 189.622 50.329C189.622 52.1843 189.43 53.779 189.047 55.113C188.679 56.4317 188.081 57.4513 187.253 58.172C186.44 58.8773 185.359 59.23 184.01 59.23ZM180.514 49.294H187.552C187.475 47.2087 187.161 45.66 186.609 44.648C186.057 43.6207 185.191 43.107 184.01 43.107C182.845 43.107 181.986 43.6207 181.434 44.648C180.897 45.66 180.591 47.2087 180.514 49.294ZM184.01 57.551C185.206 57.551 186.088 57.0297 186.655 55.987C187.222 54.929 187.529 53.2193 187.575 50.858H180.514C180.545 53.204 180.828 54.906 181.365 55.964C181.917 57.022 182.799 57.551 184.01 57.551Z" fill="#0BB326"/>
<line x1="131" y1="35.5" x2="191" y2="35.5" stroke="black"/>
<path d="M251.15 11.332C250.327 13.5332 249.593 15.4873 248.949 17.1943C248.305 18.8864 247.744 20.3763 247.265 21.6641C246.785 22.9368 246.359 24.015 245.984 24.8984C245.625 25.7819 245.288 26.5156 244.974 27.0996C244.674 27.6986 244.39 28.1628 244.12 28.4922C243.851 28.8366 243.574 29.0986 243.289 29.2783C243.005 29.458 242.69 29.5628 242.346 29.5928C242.016 29.6377 241.634 29.6602 241.2 29.6602C241.065 29.6602 240.908 29.6377 240.729 29.5928C240.549 29.5628 240.369 29.5179 240.189 29.458C240.025 29.4131 239.875 29.3607 239.74 29.3008C239.605 29.2559 239.516 29.2259 239.471 29.2109C239.531 28.9414 239.59 28.6868 239.65 28.4473C239.695 28.2376 239.74 28.0355 239.785 27.8408C239.845 27.6611 239.89 27.5339 239.92 27.459C240.04 27.459 240.219 27.4964 240.459 27.5713C240.714 27.6462 240.901 27.6836 241.021 27.6836C241.26 27.6836 241.47 27.6686 241.649 27.6387C241.844 27.6237 242.016 27.5563 242.166 27.4365C242.316 27.3317 242.458 27.167 242.593 26.9424C242.728 26.7327 242.877 26.4258 243.042 26.0215L243.896 24L248.41 11.332H251.15ZM243.424 22.8096L238.707 11.332H241.425L244.659 19.8447L244.345 20.6084L243.424 22.8096ZM259.978 11.2646C260.801 11.3096 261.55 11.5117 262.224 11.8711C262.897 12.2155 263.459 12.6797 263.908 13.2637C264.372 13.8327 264.732 14.499 264.986 15.2627C265.241 16.0264 265.368 16.8424 265.368 17.7109C265.368 18.5794 265.233 19.3955 264.964 20.1592C264.709 20.9079 264.35 21.5667 263.886 22.1357C263.422 22.6898 262.853 23.139 262.179 23.4834C261.505 23.8278 260.771 24.0299 259.978 24.0898V21.9336C260.726 21.7689 261.333 21.2972 261.797 20.5186C262.276 19.7399 262.516 18.804 262.516 17.7109C262.516 17.1569 262.456 16.6403 262.336 16.1611C262.231 15.667 262.066 15.2253 261.842 14.8359C261.617 14.4466 261.348 14.1247 261.033 13.8701C260.719 13.6156 260.367 13.4508 259.978 13.376V11.2646ZM253.711 17.666C253.711 16.7975 253.838 15.9889 254.093 15.2402C254.347 14.4915 254.707 13.8402 255.171 13.2861C255.65 12.7171 256.219 12.2604 256.878 11.916C257.537 11.5716 258.263 11.362 259.057 11.2871V13.376C258.308 13.5407 257.709 14.0124 257.26 14.791C256.811 15.5697 256.586 16.5055 256.586 17.5986C256.586 18.1527 256.638 18.6768 256.743 19.1709C256.863 19.665 257.028 20.1068 257.237 20.4961C257.447 20.8854 257.701 21.2074 258.001 21.4619C258.315 21.7165 258.667 21.8737 259.057 21.9336V24.0898C258.233 24.0299 257.492 23.8278 256.833 23.4834C256.174 23.124 255.613 22.6598 255.148 22.0908C254.684 21.5218 254.325 20.8555 254.07 20.0918C253.831 19.3281 253.711 18.5195 253.711 17.666ZM271.545 18.2275C271.545 18.7516 271.567 19.2458 271.612 19.71C271.657 20.1592 271.755 20.556 271.904 20.9004C272.054 21.2448 272.279 21.5218 272.578 21.7314C272.878 21.9411 273.274 22.0459 273.769 22.0459C273.963 22.0459 274.24 22.016 274.6 21.9561C274.959 21.8962 275.303 21.7988 275.633 21.6641V23.3262C275.243 23.5358 274.817 23.723 274.353 23.8877C273.903 24.0374 273.454 24.1123 273.005 24.1123C272.646 24.1123 272.324 24.0749 272.039 24C271.755 23.9401 271.485 23.8428 271.23 23.708C270.991 23.5583 270.759 23.3936 270.534 23.2139C270.31 23.0342 270.085 22.832 269.86 22.6074C269.606 22.3529 269.404 22.0609 269.254 21.7314C269.104 21.387 268.992 21.0352 268.917 20.6758C268.857 20.3014 268.82 19.9271 268.805 19.5527C268.805 19.1784 268.805 18.8115 268.805 18.4521V11.332H271.545V18.2275ZM279.294 11.332V24H276.846L276.554 22.6973V11.332H279.294ZM285.538 11.332L285.83 12.6348V19.5078V19.5527V24H283.112V11.332H285.538ZM286.751 11.8936C287.125 11.6839 287.575 11.5267 288.099 11.4219C288.623 11.3021 289.334 11.2422 290.232 11.2422V14.0723C289.813 13.9525 289.304 13.8851 288.705 13.8701C288.376 13.8701 288.039 13.9001 287.694 13.96C287.365 14.0049 287.05 14.0798 286.751 14.1846V11.8936ZM298.678 11.332H301.755L304.428 20.3389V24.0898H303.125L298.678 11.332ZM308.044 11.332H311.099L306.651 24.0898H305.349V20.3389L308.044 11.332ZM317.073 24H314.333V11.332H317.073V24ZM317.32 7.28906C317.32 7.73828 317.163 8.12012 316.849 8.43457C316.534 8.73405 316.152 8.88379 315.703 8.88379C315.254 8.88379 314.872 8.72656 314.558 8.41211C314.258 8.09766 314.108 7.72331 314.108 7.28906C314.108 6.83984 314.266 6.45801 314.58 6.14355C314.895 5.8291 315.269 5.67188 315.703 5.67188C316.152 5.67188 316.534 5.8291 316.849 6.14355C317.163 6.45801 317.32 6.83984 317.32 7.28906ZM320.6 14.9482C320.6 14.3792 320.704 13.8701 320.914 13.4209C321.124 12.9567 321.416 12.5674 321.79 12.2529C322.164 11.9235 322.584 11.6689 323.048 11.4893C323.527 11.2946 324.021 11.1748 324.53 11.1299V13.376C324.141 13.4508 323.834 13.6081 323.609 13.8477C323.4 14.0872 323.295 14.4242 323.295 14.8584C323.295 15.2178 323.407 15.5098 323.632 15.7344C323.871 15.944 324.171 16.1312 324.53 16.2959V18.6992C324.276 18.6243 324.014 18.542 323.744 18.4521C323.49 18.3473 323.235 18.235 322.98 18.1152C322.187 17.696 321.588 17.2542 321.184 16.79C320.794 16.3258 320.6 15.7119 320.6 14.9482ZM328.102 14.0049C327.697 13.7952 327.263 13.638 326.799 13.5332C326.35 13.4284 325.9 13.361 325.451 13.3311V11.1074C326.125 11.1374 326.746 11.2347 327.315 11.3994C327.884 11.5492 328.438 11.7962 328.978 12.1406L328.102 14.0049ZM321.79 21.1699C322.09 21.3796 322.441 21.5742 322.846 21.7539C323.265 21.9336 323.789 22.0234 324.418 22.0234H324.53V24.1123C324.156 24.1123 323.812 24.0973 323.497 24.0674C323.183 24.0524 322.868 24.0075 322.554 23.9326C322.254 23.8428 321.947 23.723 321.633 23.5732C321.318 23.4235 320.989 23.2288 320.645 22.9893L321.79 21.1699ZM325.451 16.6553C325.9 16.805 326.357 16.9697 326.821 17.1494C327.285 17.3291 327.705 17.5537 328.079 17.8232C328.468 18.0928 328.783 18.4297 329.022 18.834C329.277 19.2233 329.404 19.7174 329.404 20.3164C329.404 20.9004 329.299 21.4095 329.09 21.8438C328.88 22.278 328.596 22.6523 328.236 22.9668C327.892 23.2812 327.48 23.5283 327.001 23.708C326.522 23.8877 326.005 24.0075 325.451 24.0674V21.9336C325.96 21.8438 326.35 21.6865 326.619 21.4619C326.904 21.2223 327.046 20.9079 327.046 20.5186C327.046 20.1292 326.889 19.8298 326.574 19.6201C326.275 19.3955 325.9 19.2008 325.451 19.0361V16.6553ZM335.648 24H332.908V11.332H335.648V24ZM335.896 7.28906C335.896 7.73828 335.738 8.12012 335.424 8.43457C335.109 8.73405 334.728 8.88379 334.278 8.88379C333.829 8.88379 333.447 8.72656 333.133 8.41211C332.833 8.09766 332.684 7.72331 332.684 7.28906C332.684 6.83984 332.841 6.45801 333.155 6.14355C333.47 5.8291 333.844 5.67188 334.278 5.67188C334.728 5.67188 335.109 5.8291 335.424 6.14355C335.738 6.45801 335.896 6.83984 335.896 7.28906ZM345.419 11.2646C346.243 11.3096 346.991 11.5117 347.665 11.8711C348.339 12.2155 348.9 12.6797 349.35 13.2637C349.814 13.8327 350.173 14.499 350.428 15.2627C350.682 16.0264 350.81 16.8424 350.81 17.7109C350.81 18.5794 350.675 19.3955 350.405 20.1592C350.151 20.9079 349.791 21.5667 349.327 22.1357C348.863 22.6898 348.294 23.139 347.62 23.4834C346.946 23.8278 346.213 24.0299 345.419 24.0898V21.9336C346.168 21.7689 346.774 21.2972 347.238 20.5186C347.717 19.7399 347.957 18.804 347.957 17.7109C347.957 17.1569 347.897 16.6403 347.777 16.1611C347.673 15.667 347.508 15.2253 347.283 14.8359C347.059 14.4466 346.789 14.1247 346.475 13.8701C346.16 13.6156 345.808 13.4508 345.419 13.376V11.2646ZM339.152 17.666C339.152 16.7975 339.28 15.9889 339.534 15.2402C339.789 14.4915 340.148 13.8402 340.612 13.2861C341.091 12.7171 341.66 12.2604 342.319 11.916C342.978 11.5716 343.704 11.362 344.498 11.2871V13.376C343.749 13.5407 343.15 14.0124 342.701 14.791C342.252 15.5697 342.027 16.5055 342.027 17.5986C342.027 18.1527 342.08 18.6768 342.185 19.1709C342.304 19.665 342.469 20.1068 342.679 20.4961C342.888 20.8854 343.143 21.2074 343.442 21.4619C343.757 21.7165 344.109 21.8737 344.498 21.9336V24.0898C343.674 24.0299 342.933 23.8278 342.274 23.4834C341.616 23.124 341.054 22.6598 340.59 22.0908C340.126 21.5218 339.766 20.8555 339.512 20.0918C339.272 19.3281 339.152 18.5195 339.152 17.666ZM356.762 11.332L357.054 12.6123V24H354.336V11.332H356.762ZM363.77 12.7246C364.024 12.9792 364.219 13.2786 364.354 13.623C364.503 13.9525 364.608 14.3044 364.668 14.6787C364.743 15.0381 364.788 15.4049 364.803 15.7793C364.818 16.1536 364.825 16.5205 364.825 16.8799V23.5508V24H362.085V17.1045C362.085 16.5954 362.062 16.1087 362.018 15.6445C361.973 15.1803 361.868 14.7686 361.703 14.4092C361.538 14.0498 361.314 13.7728 361.029 13.5781C360.745 13.3685 360.348 13.2637 359.839 13.2637C359.629 13.2637 359.345 13.3011 358.985 13.376C358.641 13.4359 358.304 13.5407 357.975 13.6904V11.9609C358.379 11.7513 358.813 11.5716 359.277 11.4219C359.757 11.2721 360.221 11.1973 360.67 11.1973C361.344 11.1973 361.913 11.3395 362.377 11.624C362.841 11.8936 363.305 12.2604 363.77 12.7246Z" fill="#FB5A5A"/>
<path d="M237.884 47.2646C238.707 47.3096 239.456 47.5117 240.13 47.8711C240.804 48.2155 241.365 48.6797 241.814 49.2637C242.279 49.8327 242.638 50.499 242.893 51.2627C243.147 52.0264 243.274 52.8424 243.274 53.7109C243.274 54.5794 243.14 55.3955 242.87 56.1592C242.616 56.9079 242.256 57.5667 241.792 58.1357C241.328 58.6898 240.759 59.139 240.085 59.4834C239.411 59.8278 238.677 60.0299 237.884 60.0898V57.9336C238.632 57.7689 239.239 57.2972 239.703 56.5186C240.182 55.7399 240.422 54.804 240.422 53.7109C240.422 53.1569 240.362 52.6403 240.242 52.1611C240.137 51.667 239.973 51.2253 239.748 50.8359C239.523 50.4466 239.254 50.1247 238.939 49.8701C238.625 49.6156 238.273 49.4508 237.884 49.376V47.2646ZM231.617 53.666C231.617 52.7975 231.744 51.9889 231.999 51.2402C232.254 50.4915 232.613 49.8402 233.077 49.2861C233.556 48.7171 234.125 48.2604 234.784 47.916C235.443 47.5716 236.169 47.362 236.963 47.2871V49.376C236.214 49.5407 235.615 50.0124 235.166 50.791C234.717 51.5697 234.492 52.5055 234.492 53.5986C234.492 54.1527 234.545 54.6768 234.649 55.1709C234.769 55.665 234.934 56.1068 235.144 56.4961C235.353 56.8854 235.608 57.2074 235.907 57.4619C236.222 57.7165 236.574 57.8737 236.963 57.9336V60.0898C236.139 60.0299 235.398 59.8278 234.739 59.4834C234.08 59.124 233.519 58.6598 233.055 58.0908C232.59 57.5218 232.231 56.8555 231.977 56.0918C231.737 55.3281 231.617 54.5195 231.617 53.666ZM249.451 54.2275C249.451 54.7516 249.474 55.2458 249.519 55.71C249.563 56.1592 249.661 56.556 249.811 56.9004C249.96 57.2448 250.185 57.5218 250.484 57.7314C250.784 57.9411 251.181 58.0459 251.675 58.0459C251.869 58.0459 252.146 58.016 252.506 57.9561C252.865 57.8962 253.21 57.7988 253.539 57.6641V59.3262C253.15 59.5358 252.723 59.723 252.259 59.8877C251.81 60.0374 251.36 60.1123 250.911 60.1123C250.552 60.1123 250.23 60.0749 249.945 60C249.661 59.9401 249.391 59.8428 249.137 59.708C248.897 59.5583 248.665 59.3936 248.44 59.2139C248.216 59.0342 247.991 58.832 247.767 58.6074C247.512 58.3529 247.31 58.0609 247.16 57.7314C247.01 57.387 246.898 57.0352 246.823 56.6758C246.763 56.3014 246.726 55.9271 246.711 55.5527C246.711 55.1784 246.711 54.8115 246.711 54.4521V47.332H249.451V54.2275ZM257.2 47.332V60H254.752L254.46 58.6973V47.332H257.2ZM263.444 47.332L263.736 48.6348V55.5078V55.5527V60H261.019V47.332H263.444ZM264.657 47.8936C265.032 47.6839 265.481 47.5267 266.005 47.4219C266.529 47.3021 267.24 47.2422 268.139 47.2422V50.0723C267.719 49.9525 267.21 49.8851 266.611 49.8701C266.282 49.8701 265.945 49.9001 265.601 49.96C265.271 50.0049 264.957 50.0798 264.657 50.1846V47.8936ZM276.898 50.9482C276.898 50.3792 277.003 49.8701 277.213 49.4209C277.423 48.9567 277.715 48.5674 278.089 48.2529C278.463 47.9235 278.882 47.6689 279.347 47.4893C279.826 47.2946 280.32 47.1748 280.829 47.1299V49.376C280.44 49.4508 280.133 49.6081 279.908 49.8477C279.699 50.0872 279.594 50.4242 279.594 50.8584C279.594 51.2178 279.706 51.5098 279.931 51.7344C280.17 51.944 280.47 52.1312 280.829 52.2959V54.6992C280.575 54.6243 280.312 54.542 280.043 54.4521C279.788 54.3473 279.534 54.235 279.279 54.1152C278.486 53.696 277.887 53.2542 277.482 52.79C277.093 52.3258 276.898 51.7119 276.898 50.9482ZM284.4 50.0049C283.996 49.7952 283.562 49.638 283.098 49.5332C282.648 49.4284 282.199 49.361 281.75 49.3311V47.1074C282.424 47.1374 283.045 47.2347 283.614 47.3994C284.183 47.5492 284.737 47.7962 285.276 48.1406L284.4 50.0049ZM278.089 57.1699C278.388 57.3796 278.74 57.5742 279.145 57.7539C279.564 57.9336 280.088 58.0234 280.717 58.0234H280.829V60.1123C280.455 60.1123 280.11 60.0973 279.796 60.0674C279.481 60.0524 279.167 60.0075 278.853 59.9326C278.553 59.8428 278.246 59.723 277.932 59.5732C277.617 59.4235 277.288 59.2288 276.943 58.9893L278.089 57.1699ZM281.75 52.6553C282.199 52.805 282.656 52.9697 283.12 53.1494C283.584 53.3291 284.004 53.5537 284.378 53.8232C284.767 54.0928 285.082 54.4297 285.321 54.834C285.576 55.2233 285.703 55.7174 285.703 56.3164C285.703 56.9004 285.598 57.4095 285.389 57.8438C285.179 58.278 284.895 58.6523 284.535 58.9668C284.191 59.2812 283.779 59.5283 283.3 59.708C282.821 59.8877 282.304 60.0075 281.75 60.0674V57.9336C282.259 57.8438 282.648 57.6865 282.918 57.4619C283.202 57.2223 283.345 56.9079 283.345 56.5186C283.345 56.1292 283.188 55.8298 282.873 55.6201C282.574 55.3955 282.199 55.2008 281.75 55.0361V52.6553ZM295.114 47.2197C295.923 47.2946 296.649 47.5117 297.293 47.8711C297.952 48.2305 298.513 48.6947 298.978 49.2637C299.442 49.8327 299.794 50.484 300.033 51.2178C300.288 51.9515 300.415 52.7152 300.415 53.5088C300.415 53.8682 300.393 54.2275 300.348 54.5869H292.644V52.6104H297.832C297.832 52.221 297.765 51.8467 297.63 51.4873C297.51 51.1279 297.323 50.7985 297.068 50.499C296.829 50.1846 296.544 49.9225 296.215 49.7129C295.885 49.5033 295.519 49.376 295.114 49.3311V47.2197ZM295.024 57.8887C295.189 57.8887 295.391 57.8737 295.631 57.8438C295.885 57.7988 296.147 57.7314 296.417 57.6416C296.701 57.5368 296.979 57.4095 297.248 57.2598C297.533 57.11 297.78 56.9303 297.989 56.7207L298.978 58.2256C298.483 58.8395 297.907 59.3037 297.248 59.6182C296.589 59.9326 295.751 60.0898 294.732 60.0898C293.909 60.0898 293.138 59.9251 292.419 59.5957C291.7 59.2513 291.086 58.7871 290.577 58.2031C290.068 57.6191 289.664 56.9378 289.364 56.1592C289.065 55.3805 288.915 54.542 288.915 53.6436C288.915 52.79 289.05 51.9814 289.319 51.2178C289.604 50.4541 289.986 49.7878 290.465 49.2188C290.944 48.6348 291.498 48.1631 292.127 47.8037C292.771 47.4443 293.46 47.2422 294.193 47.1973V49.3535C293.639 49.4583 293.183 49.6829 292.823 50.0273C292.464 50.3717 292.179 50.7686 291.97 51.2178C291.775 51.652 291.633 52.1012 291.543 52.5654C291.468 53.0296 291.431 53.4264 291.431 53.7559C291.431 54.3398 291.498 54.8864 291.633 55.3955C291.783 55.8896 292.007 56.3239 292.307 56.6982C292.606 57.0576 292.973 57.3496 293.407 57.5742C293.856 57.7839 294.396 57.8887 295.024 57.8887ZM306.569 47.332L306.861 48.6348V55.5078V55.5527V60H304.144V47.332H306.569ZM307.782 47.8936C308.157 47.6839 308.606 47.5267 309.13 47.4219C309.654 47.3021 310.365 47.2422 311.264 47.2422V50.0723C310.844 49.9525 310.335 49.8851 309.736 49.8701C309.407 49.8701 309.07 49.9001 308.726 49.96C308.396 50.0049 308.082 50.0798 307.782 50.1846V47.8936ZM313.555 47.332H316.632L319.305 56.3389V60.0898H318.002L313.555 47.332ZM322.921 47.332H325.976L321.528 60.0898H320.226V56.3389L322.921 47.332ZM331.95 60H329.21V47.332H331.95V60ZM332.197 43.2891C332.197 43.7383 332.04 44.1201 331.726 44.4346C331.411 44.734 331.029 44.8838 330.58 44.8838C330.131 44.8838 329.749 44.7266 329.435 44.4121C329.135 44.0977 328.985 43.7233 328.985 43.2891C328.985 42.8398 329.143 42.458 329.457 42.1436C329.771 41.8291 330.146 41.6719 330.58 41.6719C331.029 41.6719 331.411 41.8291 331.726 42.1436C332.04 42.458 332.197 42.8398 332.197 43.2891ZM344.191 50.6113C343.967 50.3418 343.652 50.0947 343.248 49.8701C342.859 49.6305 342.335 49.4883 341.676 49.4434V47.2871C342.499 47.332 343.203 47.5117 343.787 47.8262C344.386 48.1257 344.925 48.5674 345.404 49.1514L344.191 50.6113ZM341.676 57.8662C342.215 57.8063 342.672 57.679 343.046 57.4844C343.435 57.2747 343.802 57.0352 344.146 56.7656L345.157 58.2256C344.693 58.8096 344.191 59.2588 343.652 59.5732C343.113 59.8727 342.454 60.0449 341.676 60.0898V57.8662ZM335.409 53.666C335.409 52.8125 335.529 52.0114 335.769 51.2627C336.023 50.514 336.39 49.8551 336.869 49.2861C337.348 48.7171 337.91 48.2604 338.554 47.916C339.213 47.5566 339.946 47.347 340.755 47.2871V49.4658C340.006 49.6305 339.407 50.0947 338.958 50.8584C338.509 51.6071 338.284 52.5205 338.284 53.5986C338.284 54.1527 338.337 54.6768 338.441 55.1709C338.561 55.6501 338.726 56.0768 338.936 56.4512C339.145 56.8255 339.4 57.14 339.699 57.3945C340.014 57.6491 340.366 57.8063 340.755 57.8662V60.0898C339.931 60.0449 339.19 59.8503 338.531 59.5059C337.872 59.1465 337.311 58.6823 336.847 58.1133C336.382 57.5293 336.023 56.8555 335.769 56.0918C335.529 55.3281 335.409 54.5195 335.409 53.666ZM354.793 47.2197C355.602 47.2946 356.328 47.5117 356.972 47.8711C357.631 48.2305 358.192 48.6947 358.656 49.2637C359.12 49.8327 359.472 50.484 359.712 51.2178C359.966 51.9515 360.094 52.7152 360.094 53.5088C360.094 53.8682 360.071 54.2275 360.026 54.5869H352.322V52.6104H357.511C357.511 52.221 357.443 51.8467 357.309 51.4873C357.189 51.1279 357.002 50.7985 356.747 50.499C356.507 50.1846 356.223 49.9225 355.894 49.7129C355.564 49.5033 355.197 49.376 354.793 49.3311V47.2197ZM354.703 57.8887C354.868 57.8887 355.07 57.8737 355.31 57.8438C355.564 57.7988 355.826 57.7314 356.096 57.6416C356.38 57.5368 356.657 57.4095 356.927 57.2598C357.211 57.11 357.458 56.9303 357.668 56.7207L358.656 58.2256C358.162 58.8395 357.586 59.3037 356.927 59.6182C356.268 59.9326 355.429 60.0898 354.411 60.0898C353.588 60.0898 352.816 59.9251 352.098 59.5957C351.379 59.2513 350.765 58.7871 350.256 58.2031C349.747 57.6191 349.342 56.9378 349.043 56.1592C348.743 55.3805 348.594 54.542 348.594 53.6436C348.594 52.79 348.729 51.9814 348.998 51.2178C349.283 50.4541 349.664 49.7878 350.144 49.2188C350.623 48.6348 351.177 48.1631 351.806 47.8037C352.45 47.4443 353.138 47.2422 353.872 47.1973V49.3535C353.318 49.4583 352.861 49.6829 352.502 50.0273C352.143 50.3717 351.858 50.7686 351.648 51.2178C351.454 51.652 351.312 52.1012 351.222 52.5654C351.147 53.0296 351.109 53.4264 351.109 53.7559C351.109 54.3398 351.177 54.8864 351.312 55.3955C351.461 55.8896 351.686 56.3239 351.985 56.6982C352.285 57.0576 352.652 57.3496 353.086 57.5742C353.535 57.7839 354.074 57.8887 354.703 57.8887ZM363.53 50.9482C363.53 50.3792 363.635 49.8701 363.845 49.4209C364.054 48.9567 364.346 48.5674 364.721 48.2529C365.095 47.9235 365.514 47.6689 365.979 47.4893C366.458 47.2946 366.952 47.1748 367.461 47.1299V49.376C367.072 49.4508 366.765 49.6081 366.54 49.8477C366.33 50.0872 366.226 50.4242 366.226 50.8584C366.226 51.2178 366.338 51.5098 366.562 51.7344C366.802 51.944 367.102 52.1312 367.461 52.2959V54.6992C367.206 54.6243 366.944 54.542 366.675 54.4521C366.42 54.3473 366.166 54.235 365.911 54.1152C365.118 53.696 364.519 53.2542 364.114 52.79C363.725 52.3258 363.53 51.7119 363.53 50.9482ZM371.032 50.0049C370.628 49.7952 370.194 49.638 369.729 49.5332C369.28 49.4284 368.831 49.361 368.382 49.3311V47.1074C369.056 47.1374 369.677 47.2347 370.246 47.3994C370.815 47.5492 371.369 47.7962 371.908 48.1406L371.032 50.0049ZM364.721 57.1699C365.02 57.3796 365.372 57.5742 365.776 57.7539C366.196 57.9336 366.72 58.0234 367.349 58.0234H367.461V60.1123C367.087 60.1123 366.742 60.0973 366.428 60.0674C366.113 60.0524 365.799 60.0075 365.484 59.9326C365.185 59.8428 364.878 59.723 364.563 59.5732C364.249 59.4235 363.92 59.2288 363.575 58.9893L364.721 57.1699ZM368.382 52.6553C368.831 52.805 369.288 52.9697 369.752 53.1494C370.216 53.3291 370.635 53.5537 371.01 53.8232C371.399 54.0928 371.714 54.4297 371.953 54.834C372.208 55.2233 372.335 55.7174 372.335 56.3164C372.335 56.9004 372.23 57.4095 372.021 57.8438C371.811 58.278 371.526 58.6523 371.167 58.9668C370.823 59.2812 370.411 59.5283 369.932 59.708C369.452 59.8877 368.936 60.0075 368.382 60.0674V57.9336C368.891 57.8438 369.28 57.6865 369.55 57.4619C369.834 57.2223 369.977 56.9079 369.977 56.5186C369.977 56.1292 369.819 55.8298 369.505 55.6201C369.205 55.3955 368.831 55.2008 368.382 55.0361V52.6553Z" fill="#09C928"/>
<line x1="230" y1="35.5" x2="374" y2="35.5" stroke="black"/>
</svg>
