<svg width="536" height="65" viewBox="0 0 536 65" fill="none" xmlns="http://www.w3.org/2000/svg">
<path d="M6.02607 40.5189C6.02607 41.2044 6.11876 41.7387 6.3042 42.1218C6.48963 42.5048 6.74716 42.7972 7.07678 42.9988C7.427 43.2004 7.80812 43.3314 8.22019 43.392C8.6528 43.4323 9.10606 43.4524 9.57993 43.4524V45.6903C9.3121 45.7306 9.04427 45.7609 8.77644 45.781C8.54981 45.8012 8.27168 45.8113 7.94206 45.8113C7.63304 45.8315 7.32401 45.8416 7.01499 45.8416C6.70591 45.8416 6.38659 45.8315 6.05697 45.8113C5.74794 45.7911 5.48011 45.7609 5.2535 45.7206C4.55303 45.5996 4.00708 45.3073 3.61564 44.8436C3.2242 44.3597 2.92547 43.8355 2.71946 43.271C2.53404 42.6863 2.41043 42.1218 2.34862 41.5774C2.30742 41.0331 2.28682 40.6097 2.28682 40.3073V31.1137H0V28.6339H2.28682V23.7952H6.02607V28.6339H8.80734V31.1137H6.02607V40.5189ZM16.9966 40.5492C16.9966 41.4565 17.182 42.1318 17.5529 42.5754C17.9443 43.0189 18.5005 43.281 19.2216 43.3617V45.8113C19.1392 45.8315 19.0053 45.8416 18.8199 45.8416C18.1194 45.8416 17.4395 45.7508 16.7803 45.5694C16.1416 45.3879 15.5751 45.0956 15.0806 44.6923C14.5862 44.2891 14.1947 43.7548 13.9063 43.0895C13.6385 42.4242 13.5045 41.6076 13.5045 40.6399C13.5045 39.7125 13.7003 38.9162 14.0918 38.2508C14.5038 37.5653 15.0188 37.0109 15.6369 36.5875C16.2755 36.1439 16.9966 35.8214 17.8001 35.6198C18.6036 35.398 19.4173 35.2871 20.2414 35.2871H21.6011V37.4343H20.9213C20.5092 37.4343 20.0766 37.4746 19.6233 37.5553C19.1701 37.6359 18.7478 37.7871 18.3564 38.0089C17.9649 38.2306 17.6353 38.5532 17.3674 38.9766C17.1202 39.3798 16.9966 39.904 16.9966 40.5492ZM26.6074 40.6399C26.6074 40.8012 26.6177 41.0431 26.6383 41.3657C26.6589 41.6681 26.7001 41.9807 26.7619 42.3032C26.8238 42.6258 26.9164 42.9181 27.04 43.1802C27.1843 43.4423 27.3697 43.6137 27.5963 43.6944L26.6074 45.7206C26.3396 45.7206 26.0512 45.6601 25.7421 45.5391C25.4537 45.4181 25.1653 45.2468 24.8769 45.025C24.609 44.8032 24.3721 44.5613 24.1661 44.2992C23.9807 44.0169 23.8365 43.7145 23.7335 43.392C23.5274 43.896 23.1154 44.3496 22.4973 44.7528C21.8999 45.1359 21.2303 45.4181 20.4886 45.5996V43.3012C20.9831 43.2004 21.4261 43.0089 21.8175 42.7266C22.2295 42.4242 22.5798 42.0714 22.8682 41.6681V35.2871C22.8682 34.2992 22.8166 33.5129 22.7136 32.9282C22.6107 32.3436 22.4355 31.9202 22.1883 31.6581C21.9411 31.3758 21.632 31.2045 21.2612 31.1439C20.911 31.0633 20.4886 31.023 19.9942 31.023C19.541 31.023 19.1083 31.0835 18.6963 31.2045C18.3048 31.3052 17.934 31.4363 17.5838 31.5976C17.2541 31.7387 16.9554 31.9 16.6876 32.0815C16.4404 32.2629 16.2549 32.404 16.1313 32.5048L14.7407 30.4182C14.9467 30.1964 15.2558 29.9746 15.6678 29.7528C16.0798 29.5109 16.5536 29.2992 17.0893 29.1177C17.625 28.9363 18.2018 28.7952 18.8199 28.6944C19.4586 28.5734 20.1178 28.5129 20.7976 28.5129C21.4157 28.5129 22.0132 28.5734 22.5901 28.6944C23.1875 28.8153 23.7232 29.017 24.197 29.2992C24.6914 29.5815 25.1138 29.9645 25.464 30.4484C25.8348 30.9121 26.0924 31.4968 26.2366 32.2024C26.3808 32.9081 26.4735 33.6238 26.5147 34.3496C26.5765 35.0553 26.6074 35.7609 26.6074 36.4666V40.398V40.6399ZM35.8474 28.6339L36.2491 30.3577V45.6903H32.5099V28.6339H35.8474ZM45.4891 30.5089C45.8393 30.8516 46.1072 31.2549 46.2926 31.7185C46.4986 32.1621 46.6428 32.6359 46.7252 33.1399C46.8282 33.6238 46.8901 34.1177 46.9107 34.6218C46.9313 35.1258 46.9415 35.6198 46.9415 36.1036V45.0855V45.6903H43.1714V36.406C43.1714 35.7206 43.1405 35.0653 43.0787 34.4403C43.0169 33.8153 42.8726 33.2609 42.6461 32.777C42.4194 32.2932 42.1104 31.9202 41.7189 31.6581C41.3275 31.3758 40.7816 31.2347 40.0811 31.2347C39.7927 31.2347 39.4012 31.2851 38.9068 31.3859C38.4329 31.4666 37.9694 31.6077 37.5161 31.8093V29.4806C38.0724 29.1984 38.6699 28.9564 39.3085 28.7549C39.9678 28.5532 40.6064 28.4524 41.2245 28.4524C42.1516 28.4524 42.9345 28.6439 43.5731 29.027C44.2118 29.3899 44.8504 29.8839 45.4891 30.5089ZM67.2787 46C64.6631 46 62.7328 44.9368 61.4878 42.8103C60.2646 40.6839 59.6524 37.7523 59.6524 34.0155C59.6524 31.4968 59.9055 29.3394 60.4118 27.5432C60.9182 25.7471 61.7306 24.3742 62.8485 23.4245C63.9877 22.4748 65.4646 22 67.2787 22C69.9162 22 71.8568 23.0529 73.1013 25.1587C74.3671 27.2439 75 30.1961 75 34.0155C75 36.5136 74.7365 38.6606 74.2089 40.4568C73.7026 42.2322 72.8798 43.6052 71.7406 44.5755C70.6227 45.5252 69.1354 46 67.2787 46ZM62.4687 32.6219H72.152C72.0467 29.8142 71.614 27.729 70.8546 26.3665C70.0951 24.9832 68.9035 24.2916 67.2787 24.2916C65.6758 24.2916 64.494 24.9832 63.7345 26.3665C62.9963 27.729 62.5746 29.8142 62.4687 32.6219ZM67.2787 43.7394C68.9242 43.7394 70.1377 43.0374 70.9178 41.6335C71.6986 40.209 72.1203 37.9071 72.1836 34.7277H62.4687C62.5113 37.8865 62.9014 40.1781 63.6396 41.6026C64.3991 43.0271 65.6125 43.7394 67.2787 43.7394Z" fill="#410EAD"/>
<path d="M398.495 31.2256C398.495 30.3597 398.655 29.585 398.974 28.9014C399.293 28.195 399.737 27.6025 400.307 27.124C400.876 26.6227 401.514 26.2354 402.221 25.9619C402.95 25.6657 403.702 25.4834 404.477 25.415V28.833C403.884 28.9469 403.417 29.1862 403.075 29.5508C402.756 29.9154 402.597 30.4281 402.597 31.0889C402.597 31.6357 402.768 32.0801 403.109 32.4219C403.474 32.7409 403.93 33.0257 404.477 33.2764V36.9336C404.089 36.8197 403.69 36.6943 403.28 36.5576C402.893 36.3981 402.506 36.2272 402.118 36.0449C400.91 35.4069 399.999 34.7347 399.384 34.0283C398.791 33.3219 398.495 32.3877 398.495 31.2256ZM409.911 29.79C409.296 29.471 408.635 29.2318 407.929 29.0723C407.245 28.9128 406.562 28.8102 405.878 28.7646V25.3809C406.903 25.4264 407.849 25.5745 408.715 25.8252C409.581 26.0531 410.424 26.429 411.244 26.9531L409.911 29.79ZM400.307 40.6934C400.762 41.0124 401.298 41.3086 401.913 41.582C402.551 41.8555 403.349 41.9922 404.306 41.9922H404.477V45.1709C403.907 45.1709 403.383 45.1481 402.904 45.1025C402.426 45.0798 401.947 45.0114 401.469 44.8975C401.013 44.7607 400.546 44.5785 400.067 44.3506C399.589 44.1227 399.088 43.8265 398.563 43.4619L400.307 40.6934ZM405.878 33.8232C406.562 34.0511 407.257 34.3018 407.963 34.5752C408.669 34.8486 409.307 35.1904 409.877 35.6006C410.469 36.0107 410.948 36.5234 411.312 37.1387C411.7 37.7311 411.894 38.4831 411.894 39.3945C411.894 40.2832 411.734 41.0579 411.415 41.7188C411.096 42.3796 410.663 42.9492 410.116 43.4277C409.592 43.9062 408.965 44.2822 408.236 44.5557C407.507 44.8291 406.721 45.0114 405.878 45.1025V41.8555C406.653 41.7188 407.245 41.4795 407.655 41.1377C408.088 40.7731 408.305 40.2946 408.305 39.7021C408.305 39.1097 408.065 38.654 407.587 38.335C407.131 37.9932 406.562 37.6969 405.878 37.4463V33.8232ZM421.293 36.2158C421.293 37.0133 421.327 37.7653 421.396 38.4717C421.464 39.1553 421.612 39.7591 421.84 40.2832C422.068 40.8073 422.41 41.2288 422.865 41.5479C423.321 41.8669 423.925 42.0264 424.677 42.0264C424.973 42.0264 425.395 41.9808 425.941 41.8896C426.488 41.7985 427.012 41.6504 427.514 41.4453V43.9746C426.921 44.2936 426.272 44.5785 425.565 44.8291C424.882 45.057 424.198 45.1709 423.515 45.1709C422.968 45.1709 422.478 45.1139 422.045 45C421.612 44.9089 421.202 44.7607 420.814 44.5557C420.45 44.3278 420.097 44.0771 419.755 43.8037C419.413 43.5303 419.071 43.2227 418.729 42.8809C418.342 42.4935 418.035 42.0492 417.807 41.5479C417.579 41.0238 417.408 40.4883 417.294 39.9414C417.203 39.3717 417.146 38.8021 417.123 38.2324C417.123 37.6628 417.123 37.1045 417.123 36.5576V25.7227H421.293V36.2158ZM433.085 25.7227V45H429.359L428.915 43.0176V25.7227H433.085ZM451.713 30.7129C451.371 30.3027 450.893 29.9268 450.277 29.585C449.685 29.2204 448.887 29.0039 447.885 28.9355V25.6543C449.138 25.7227 450.209 25.9961 451.098 26.4746C452.009 26.9303 452.829 27.6025 453.559 28.4912L451.713 30.7129ZM447.885 41.7529C448.705 41.6618 449.4 41.4681 449.97 41.1719C450.562 40.8529 451.12 40.4883 451.645 40.0781L453.183 42.2998C452.476 43.1885 451.713 43.8721 450.893 44.3506C450.072 44.8063 449.07 45.0684 447.885 45.1367V41.7529ZM438.349 35.3613C438.349 34.0625 438.531 32.8434 438.896 31.7041C439.283 30.5648 439.841 29.5622 440.57 28.6963C441.299 27.8304 442.154 27.1354 443.134 26.6113C444.136 26.0645 445.253 25.7454 446.483 25.6543V28.9697C445.344 29.2204 444.433 29.9268 443.749 31.0889C443.065 32.2282 442.724 33.6182 442.724 35.2588C442.724 36.1019 442.803 36.8994 442.963 37.6514C443.145 38.3805 443.396 39.0299 443.715 39.5996C444.034 40.1693 444.421 40.6478 444.877 41.0352C445.355 41.4225 445.891 41.6618 446.483 41.7529V45.1367C445.23 45.0684 444.102 44.7721 443.1 44.248C442.097 43.7012 441.243 42.9948 440.536 42.1289C439.83 41.2402 439.283 40.2148 438.896 39.0527C438.531 37.8906 438.349 36.6602 438.349 35.3613ZM471.708 30.7129C471.366 30.3027 470.888 29.9268 470.272 29.585C469.68 29.2204 468.882 29.0039 467.88 28.9355V25.6543C469.133 25.7227 470.204 25.9961 471.093 26.4746C472.004 26.9303 472.825 27.6025 473.554 28.4912L471.708 30.7129ZM467.88 41.7529C468.7 41.6618 469.395 41.4681 469.965 41.1719C470.557 40.8529 471.116 40.4883 471.64 40.0781L473.178 42.2998C472.471 43.1885 471.708 43.8721 470.888 44.3506C470.067 44.8063 469.065 45.0684 467.88 45.1367V41.7529ZM458.344 35.3613C458.344 34.0625 458.526 32.8434 458.891 31.7041C459.278 30.5648 459.836 29.5622 460.565 28.6963C461.295 27.8304 462.149 27.1354 463.129 26.6113C464.132 26.0645 465.248 25.7454 466.479 25.6543V28.9697C465.339 29.2204 464.428 29.9268 463.744 31.0889C463.061 32.2282 462.719 33.6182 462.719 35.2588C462.719 36.1019 462.799 36.8994 462.958 37.6514C463.14 38.3805 463.391 39.0299 463.71 39.5996C464.029 40.1693 464.416 40.6478 464.872 41.0352C465.351 41.4225 465.886 41.6618 466.479 41.7529V45.1367C465.225 45.0684 464.097 44.7721 463.095 44.248C462.092 43.7012 461.238 42.9948 460.531 42.1289C459.825 41.2402 459.278 40.2148 458.891 39.0527C458.526 37.8906 458.344 36.6602 458.344 35.3613ZM487.841 25.5518C489.071 25.6657 490.176 25.9961 491.156 26.543C492.159 27.0898 493.013 27.7962 493.72 28.6621C494.426 29.528 494.962 30.5192 495.326 31.6357C495.714 32.7523 495.907 33.9144 495.907 35.1221C495.907 35.6689 495.873 36.2158 495.805 36.7627H484.081V33.7549H491.977C491.977 33.1624 491.874 32.5928 491.669 32.0459C491.487 31.499 491.202 30.9977 490.814 30.542C490.45 30.0635 490.017 29.6647 489.516 29.3457C489.014 29.0267 488.456 28.833 487.841 28.7646V25.5518ZM487.704 41.7871C487.955 41.7871 488.262 41.7643 488.627 41.7188C489.014 41.6504 489.413 41.5479 489.823 41.4111C490.256 41.2516 490.678 41.0579 491.088 40.8301C491.521 40.6022 491.897 40.3288 492.216 40.0098L493.72 42.2998C492.968 43.234 492.09 43.9404 491.088 44.4189C490.085 44.8975 488.809 45.1367 487.26 45.1367C486.007 45.1367 484.833 44.8861 483.739 44.3848C482.646 43.8607 481.711 43.1543 480.937 42.2656C480.162 41.377 479.547 40.3402 479.091 39.1553C478.635 37.9704 478.407 36.6943 478.407 35.3271C478.407 34.0283 478.612 32.7979 479.022 31.6357C479.455 30.4736 480.036 29.4596 480.766 28.5938C481.495 27.7051 482.338 26.9873 483.295 26.4404C484.275 25.8936 485.323 25.5859 486.439 25.5176V28.7988C485.596 28.9583 484.901 29.3001 484.354 29.8242C483.808 30.3483 483.375 30.9521 483.056 31.6357C482.759 32.2965 482.543 32.9801 482.406 33.6865C482.292 34.3929 482.235 34.9967 482.235 35.498C482.235 36.3867 482.338 37.2184 482.543 37.9932C482.771 38.7451 483.113 39.4059 483.568 39.9756C484.024 40.5225 484.582 40.9668 485.243 41.3086C485.927 41.6276 486.747 41.7871 487.704 41.7871ZM501.137 31.2256C501.137 30.3597 501.296 29.585 501.615 28.9014C501.934 28.195 502.379 27.6025 502.948 27.124C503.518 26.6227 504.156 26.2354 504.862 25.9619C505.591 25.6657 506.343 25.4834 507.118 25.415V28.833C506.526 28.9469 506.059 29.1862 505.717 29.5508C505.398 29.9154 505.238 30.4281 505.238 31.0889C505.238 31.6357 505.409 32.0801 505.751 32.4219C506.116 32.7409 506.571 33.0257 507.118 33.2764V36.9336C506.731 36.8197 506.332 36.6943 505.922 36.5576C505.535 36.3981 505.147 36.2272 504.76 36.0449C503.552 35.4069 502.641 34.7347 502.025 34.0283C501.433 33.3219 501.137 32.3877 501.137 31.2256ZM512.553 29.79C511.938 29.471 511.277 29.2318 510.57 29.0723C509.887 28.9128 509.203 28.8102 508.52 28.7646V25.3809C509.545 25.4264 510.491 25.5745 511.356 25.8252C512.222 26.0531 513.065 26.429 513.886 26.9531L512.553 29.79ZM502.948 40.6934C503.404 41.0124 503.939 41.3086 504.555 41.582C505.193 41.8555 505.99 41.9922 506.947 41.9922H507.118V45.1709C506.549 45.1709 506.024 45.1481 505.546 45.1025C505.067 45.0798 504.589 45.0114 504.11 44.8975C503.655 44.7607 503.188 44.5785 502.709 44.3506C502.23 44.1227 501.729 43.8265 501.205 43.4619L502.948 40.6934ZM508.52 33.8232C509.203 34.0511 509.898 34.3018 510.604 34.5752C511.311 34.8486 511.949 35.1904 512.519 35.6006C513.111 36.0107 513.59 36.5234 513.954 37.1387C514.341 37.7311 514.535 38.4831 514.535 39.3945C514.535 40.2832 514.376 41.0579 514.057 41.7188C513.738 42.3796 513.305 42.9492 512.758 43.4277C512.234 43.9062 511.607 44.2822 510.878 44.5557C510.149 44.8291 509.363 45.0114 508.52 45.1025V41.8555C509.294 41.7188 509.887 41.4795 510.297 41.1377C510.73 40.7731 510.946 40.2946 510.946 39.7021C510.946 39.1097 510.707 38.654 510.229 38.335C509.773 37.9932 509.203 37.6969 508.52 37.4463V33.8232ZM519.457 31.2256C519.457 30.3597 519.617 29.585 519.936 28.9014C520.255 28.195 520.699 27.6025 521.269 27.124C521.838 26.6227 522.476 26.2354 523.183 25.9619C523.912 25.6657 524.664 25.4834 525.438 25.415V28.833C524.846 28.9469 524.379 29.1862 524.037 29.5508C523.718 29.9154 523.559 30.4281 523.559 31.0889C523.559 31.6357 523.729 32.0801 524.071 32.4219C524.436 32.7409 524.892 33.0257 525.438 33.2764V36.9336C525.051 36.8197 524.652 36.6943 524.242 36.5576C523.855 36.3981 523.467 36.2272 523.08 36.0449C521.872 35.4069 520.961 34.7347 520.346 34.0283C519.753 33.3219 519.457 32.3877 519.457 31.2256ZM530.873 29.79C530.258 29.471 529.597 29.2318 528.891 29.0723C528.207 28.9128 527.523 28.8102 526.84 28.7646V25.3809C527.865 25.4264 528.811 25.5745 529.677 25.8252C530.543 26.0531 531.386 26.429 532.206 26.9531L530.873 29.79ZM521.269 40.6934C521.724 41.0124 522.26 41.3086 522.875 41.582C523.513 41.8555 524.311 41.9922 525.268 41.9922H525.438V45.1709C524.869 45.1709 524.345 45.1481 523.866 45.1025C523.388 45.0798 522.909 45.0114 522.431 44.8975C521.975 44.7607 521.508 44.5785 521.029 44.3506C520.551 44.1227 520.049 43.8265 519.525 43.4619L521.269 40.6934ZM526.84 33.8232C527.523 34.0511 528.218 34.3018 528.925 34.5752C529.631 34.8486 530.269 35.1904 530.839 35.6006C531.431 36.0107 531.91 36.5234 532.274 37.1387C532.662 37.7311 532.855 38.4831 532.855 39.3945C532.855 40.2832 532.696 41.0579 532.377 41.7188C532.058 42.3796 531.625 42.9492 531.078 43.4277C530.554 43.9062 529.927 44.2822 529.198 44.5557C528.469 44.8291 527.683 45.0114 526.84 45.1025V41.8555C527.615 41.7188 528.207 41.4795 528.617 41.1377C529.05 40.7731 529.267 40.2946 529.267 39.7021C529.267 39.1097 529.027 38.654 528.549 38.335C528.093 37.9932 527.523 37.6969 526.84 37.4463V33.8232Z" fill="#410EAD"/>
<path d="M89.186 31.606H97.583V33.955H89.186V31.606ZM89.186 36.25H97.583V38.599H89.186V36.25Z" fill="black"/>
<path d="M188.186 31.606H196.583V33.955H188.186V31.606ZM188.186 36.25H196.583V38.599H188.186V36.25Z" fill="black"/>
<path d="M371.186 31.606H379.583V33.955H371.186V31.606ZM371.186 36.25H379.583V38.599H371.186V36.25Z" fill="black"/>
<path d="M119.64 18.9482C119.64 18.3792 119.744 17.8701 119.954 17.4209C120.164 16.9567 120.456 16.5674 120.83 16.2529C121.204 15.9235 121.624 15.6689 122.088 15.4893C122.567 15.2946 123.061 15.1748 123.57 15.1299V17.376C123.181 17.4508 122.874 17.6081 122.649 17.8477C122.44 18.0872 122.335 18.4242 122.335 18.8584C122.335 19.2178 122.447 19.5098 122.672 19.7344C122.911 19.944 123.211 20.1312 123.57 20.2959V22.6992C123.316 22.6243 123.054 22.542 122.784 22.4521C122.53 22.3473 122.275 22.235 122.021 22.1152C121.227 21.696 120.628 21.2542 120.224 20.79C119.834 20.3258 119.64 19.7119 119.64 18.9482ZM127.142 18.0049C126.737 17.7952 126.303 17.638 125.839 17.5332C125.39 17.4284 124.94 17.361 124.491 17.3311V15.1074C125.165 15.1374 125.786 15.2347 126.355 15.3994C126.924 15.5492 127.479 15.7962 128.018 16.1406L127.142 18.0049ZM120.83 25.1699C121.13 25.3796 121.481 25.5742 121.886 25.7539C122.305 25.9336 122.829 26.0234 123.458 26.0234H123.57V28.1123C123.196 28.1123 122.852 28.0973 122.537 28.0674C122.223 28.0524 121.908 28.0075 121.594 27.9326C121.294 27.8428 120.987 27.723 120.673 27.5732C120.358 27.4235 120.029 27.2288 119.685 26.9893L120.83 25.1699ZM124.491 20.6553C124.94 20.805 125.397 20.9697 125.861 21.1494C126.326 21.3291 126.745 21.5537 127.119 21.8232C127.508 22.0928 127.823 22.4297 128.062 22.834C128.317 23.2233 128.444 23.7174 128.444 24.3164C128.444 24.9004 128.34 25.4095 128.13 25.8438C127.92 26.278 127.636 26.6523 127.276 26.9668C126.932 27.2812 126.52 27.5283 126.041 27.708C125.562 27.8877 125.045 28.0075 124.491 28.0674V25.9336C125 25.8438 125.39 25.6865 125.659 25.4619C125.944 25.2223 126.086 24.9079 126.086 24.5186C126.086 24.1292 125.929 23.8298 125.614 23.6201C125.315 23.3955 124.94 23.2008 124.491 23.0361V20.6553ZM134.688 28H131.948V15.332H134.688V28ZM134.936 11.2891C134.936 11.7383 134.778 12.1201 134.464 12.4346C134.149 12.734 133.768 12.8838 133.318 12.8838C132.869 12.8838 132.487 12.7266 132.173 12.4121C131.873 12.0977 131.724 11.7233 131.724 11.2891C131.724 10.8398 131.881 10.458 132.195 10.1436C132.51 9.8291 132.884 9.67188 133.318 9.67188C133.768 9.67188 134.149 9.8291 134.464 10.1436C134.778 10.458 134.936 10.8398 134.936 11.2891ZM140.933 15.332L141.225 16.6123V28H138.507V15.332H140.933ZM147.94 16.7246C148.195 16.9792 148.39 17.2786 148.524 17.623C148.674 17.9525 148.779 18.3044 148.839 18.6787C148.914 19.0381 148.959 19.4049 148.974 19.7793C148.989 20.1536 148.996 20.5205 148.996 20.8799V27.5508V28H146.256V21.1045C146.256 20.5954 146.233 20.1087 146.188 19.6445C146.144 19.1803 146.039 18.7686 145.874 18.4092C145.709 18.0498 145.485 17.7728 145.2 17.5781C144.916 17.3685 144.519 17.2637 144.01 17.2637C143.8 17.2637 143.516 17.3011 143.156 17.376C142.812 17.4359 142.475 17.5407 142.146 17.6904V15.9609C142.55 15.7513 142.984 15.5716 143.448 15.4219C143.927 15.2721 144.392 15.1973 144.841 15.1973C145.515 15.1973 146.084 15.3395 146.548 15.624C147.012 15.8936 147.476 16.2604 147.94 16.7246ZM163.778 28.23C162.52 28.23 161.478 27.8773 160.65 27.172C159.837 26.4513 159.231 25.4317 158.833 24.113C158.434 22.779 158.235 21.1843 158.235 19.329C158.235 17.4583 158.419 15.856 158.787 14.522C159.155 13.188 159.745 12.1683 160.558 11.463C161.386 10.7577 162.459 10.405 163.778 10.405C165.05 10.405 166.101 10.7577 166.929 11.463C167.757 12.153 168.37 13.165 168.769 14.499C169.183 15.833 169.39 17.443 169.39 19.329C169.39 21.1843 169.198 22.779 168.815 24.113C168.447 25.4317 167.849 26.4513 167.021 27.172C166.208 27.8773 165.127 28.23 163.778 28.23ZM163.778 26.551C164.575 26.551 165.227 26.321 165.733 25.861C166.254 25.401 166.645 24.6803 166.906 23.699C167.166 22.7177 167.312 21.4373 167.343 19.858H160.282C160.312 21.422 160.443 22.6947 160.673 23.676C160.918 24.6573 161.294 25.3857 161.8 25.861C162.306 26.321 162.965 26.551 163.778 26.551ZM160.282 18.294H167.32C167.274 16.8987 167.12 15.7487 166.86 14.844C166.599 13.924 166.216 13.2417 165.71 12.797C165.204 12.337 164.56 12.107 163.778 12.107C162.996 12.107 162.352 12.337 161.846 12.797C161.355 13.2417 160.987 13.924 160.742 14.844C160.496 15.7487 160.343 16.8987 160.282 18.294Z" fill="#FB5A5A"/>
<path d="M124.354 49.6113C124.13 49.3418 123.815 49.0947 123.411 48.8701C123.022 48.6305 122.498 48.4883 121.839 48.4434V46.2871C122.662 46.332 123.366 46.5117 123.95 46.8262C124.549 47.1257 125.088 47.5674 125.567 48.1514L124.354 49.6113ZM121.839 56.8662C122.378 56.8063 122.835 56.679 123.209 56.4844C123.598 56.2747 123.965 56.0352 124.31 55.7656L125.32 57.2256C124.856 57.8096 124.354 58.2588 123.815 58.5732C123.276 58.8727 122.618 59.0449 121.839 59.0898V56.8662ZM115.572 52.666C115.572 51.8125 115.692 51.0114 115.932 50.2627C116.186 49.514 116.553 48.8551 117.032 48.2861C117.511 47.7171 118.073 47.2604 118.717 46.916C119.376 46.5566 120.109 46.347 120.918 46.2871V48.4658C120.169 48.6305 119.57 49.0947 119.121 49.8584C118.672 50.6071 118.447 51.5205 118.447 52.5986C118.447 53.1527 118.5 53.6768 118.604 54.1709C118.724 54.6501 118.889 55.0768 119.099 55.4512C119.308 55.8255 119.563 56.14 119.862 56.3945C120.177 56.6491 120.529 56.8063 120.918 56.8662V59.0898C120.094 59.0449 119.353 58.8503 118.694 58.5059C118.035 58.1465 117.474 57.6823 117.01 57.1133C116.546 56.5293 116.186 55.8555 115.932 55.0918C115.692 54.3281 115.572 53.5195 115.572 52.666ZM135.023 46.2646C135.847 46.3096 136.596 46.5117 137.27 46.8711C137.943 47.2155 138.505 47.6797 138.954 48.2637C139.418 48.8327 139.778 49.499 140.032 50.2627C140.287 51.0264 140.414 51.8424 140.414 52.7109C140.414 53.5794 140.279 54.3955 140.01 55.1592C139.755 55.9079 139.396 56.5667 138.932 57.1357C138.467 57.6898 137.898 58.139 137.225 58.4834C136.551 58.8278 135.817 59.0299 135.023 59.0898V56.9336C135.772 56.7689 136.379 56.2972 136.843 55.5186C137.322 54.7399 137.562 53.804 137.562 52.7109C137.562 52.1569 137.502 51.6403 137.382 51.1611C137.277 50.667 137.112 50.2253 136.888 49.8359C136.663 49.4466 136.394 49.1247 136.079 48.8701C135.765 48.6156 135.413 48.4508 135.023 48.376V46.2646ZM128.757 52.666C128.757 51.7975 128.884 50.9889 129.139 50.2402C129.393 49.4915 129.753 48.8402 130.217 48.2861C130.696 47.7171 131.265 47.2604 131.924 46.916C132.583 46.5716 133.309 46.362 134.103 46.2871V48.376C133.354 48.5407 132.755 49.0124 132.306 49.791C131.856 50.5697 131.632 51.5055 131.632 52.5986C131.632 53.1527 131.684 53.6768 131.789 54.1709C131.909 54.665 132.074 55.1068 132.283 55.4961C132.493 55.8854 132.747 56.2074 133.047 56.4619C133.361 56.7165 133.713 56.8737 134.103 56.9336V59.0898C133.279 59.0299 132.538 58.8278 131.879 58.4834C131.22 58.124 130.659 57.6598 130.194 57.0908C129.73 56.5218 129.371 55.8555 129.116 55.0918C128.877 54.3281 128.757 53.5195 128.757 52.666ZM143.648 49.9482C143.648 49.3792 143.753 48.8701 143.963 48.4209C144.173 47.9567 144.465 47.5674 144.839 47.2529C145.213 46.9235 145.632 46.6689 146.097 46.4893C146.576 46.2946 147.07 46.1748 147.579 46.1299V48.376C147.19 48.4508 146.883 48.6081 146.658 48.8477C146.449 49.0872 146.344 49.4242 146.344 49.8584C146.344 50.2178 146.456 50.5098 146.681 50.7344C146.92 50.944 147.22 51.1312 147.579 51.2959V53.6992C147.325 53.6243 147.062 53.542 146.793 53.4521C146.538 53.3473 146.284 53.235 146.029 53.1152C145.236 52.696 144.637 52.2542 144.232 51.79C143.843 51.3258 143.648 50.7119 143.648 49.9482ZM151.15 49.0049C150.746 48.7952 150.312 48.638 149.848 48.5332C149.398 48.4284 148.949 48.361 148.5 48.3311V46.1074C149.174 46.1374 149.795 46.2347 150.364 46.3994C150.933 46.5492 151.487 46.7962 152.026 47.1406L151.15 49.0049ZM144.839 56.1699C145.138 56.3796 145.49 56.5742 145.895 56.7539C146.314 56.9336 146.838 57.0234 147.467 57.0234H147.579V59.1123C147.205 59.1123 146.86 59.0973 146.546 59.0674C146.231 59.0524 145.917 59.0075 145.603 58.9326C145.303 58.8428 144.996 58.723 144.682 58.5732C144.367 58.4235 144.038 58.2288 143.693 57.9893L144.839 56.1699ZM148.5 51.6553C148.949 51.805 149.406 51.9697 149.87 52.1494C150.334 52.3291 150.754 52.5537 151.128 52.8232C151.517 53.0928 151.832 53.4297 152.071 53.834C152.326 54.2233 152.453 54.7174 152.453 55.3164C152.453 55.9004 152.348 56.4095 152.139 56.8438C151.929 57.278 151.645 57.6523 151.285 57.9668C150.941 58.2812 150.529 58.5283 150.05 58.708C149.571 58.8877 149.054 59.0075 148.5 59.0674V56.9336C149.009 56.8438 149.398 56.6865 149.668 56.4619C149.952 56.2223 150.095 55.9079 150.095 55.5186C150.095 55.1292 149.938 54.8298 149.623 54.6201C149.324 54.3955 148.949 54.2008 148.5 54.0361V51.6553ZM167.01 59.23C165.109 59.23 163.706 58.4403 162.801 56.861C161.912 55.2817 161.467 53.1043 161.467 50.329C161.467 48.4583 161.651 46.856 162.019 45.522C162.387 44.188 162.977 43.1683 163.79 42.463C164.618 41.7577 165.691 41.405 167.01 41.405C168.927 41.405 170.337 42.187 171.242 43.751C172.162 45.2997 172.622 47.4923 172.622 50.329C172.622 52.1843 172.43 53.779 172.047 55.113C171.679 56.4317 171.081 57.4513 170.253 58.172C169.44 58.8773 168.359 59.23 167.01 59.23ZM163.514 49.294H170.552C170.475 47.2087 170.161 45.66 169.609 44.648C169.057 43.6207 168.191 43.107 167.01 43.107C165.845 43.107 164.986 43.6207 164.434 44.648C163.897 45.66 163.591 47.2087 163.514 49.294ZM167.01 57.551C168.206 57.551 169.088 57.0297 169.655 55.987C170.222 54.929 170.529 53.2193 170.575 50.858H163.514C163.545 53.204 163.828 54.906 164.365 55.964C164.917 57.022 165.799 57.551 167.01 57.551Z" fill="#0BB326"/>
<line x1="114" y1="35.5" x2="174" y2="35.5" stroke="black"/>
<path d="M234.15 11.332C233.327 13.5332 232.593 15.4873 231.949 17.1943C231.305 18.8864 230.744 20.3763 230.265 21.6641C229.785 22.9368 229.359 24.015 228.984 24.8984C228.625 25.7819 228.288 26.5156 227.974 27.0996C227.674 27.6986 227.39 28.1628 227.12 28.4922C226.851 28.8366 226.574 29.0986 226.289 29.2783C226.005 29.458 225.69 29.5628 225.346 29.5928C225.016 29.6377 224.634 29.6602 224.2 29.6602C224.065 29.6602 223.908 29.6377 223.729 29.5928C223.549 29.5628 223.369 29.5179 223.189 29.458C223.025 29.4131 222.875 29.3607 222.74 29.3008C222.605 29.2559 222.516 29.2259 222.471 29.2109C222.531 28.9414 222.59 28.6868 222.65 28.4473C222.695 28.2376 222.74 28.0355 222.785 27.8408C222.845 27.6611 222.89 27.5339 222.92 27.459C223.04 27.459 223.219 27.4964 223.459 27.5713C223.714 27.6462 223.901 27.6836 224.021 27.6836C224.26 27.6836 224.47 27.6686 224.649 27.6387C224.844 27.6237 225.016 27.5563 225.166 27.4365C225.316 27.3317 225.458 27.167 225.593 26.9424C225.728 26.7327 225.877 26.4258 226.042 26.0215L226.896 24L231.41 11.332H234.15ZM226.424 22.8096L221.707 11.332H224.425L227.659 19.8447L227.345 20.6084L226.424 22.8096ZM242.978 11.2646C243.801 11.3096 244.55 11.5117 245.224 11.8711C245.897 12.2155 246.459 12.6797 246.908 13.2637C247.372 13.8327 247.732 14.499 247.986 15.2627C248.241 16.0264 248.368 16.8424 248.368 17.7109C248.368 18.5794 248.233 19.3955 247.964 20.1592C247.709 20.9079 247.35 21.5667 246.886 22.1357C246.422 22.6898 245.853 23.139 245.179 23.4834C244.505 23.8278 243.771 24.0299 242.978 24.0898V21.9336C243.726 21.7689 244.333 21.2972 244.797 20.5186C245.276 19.7399 245.516 18.804 245.516 17.7109C245.516 17.1569 245.456 16.6403 245.336 16.1611C245.231 15.667 245.066 15.2253 244.842 14.8359C244.617 14.4466 244.348 14.1247 244.033 13.8701C243.719 13.6156 243.367 13.4508 242.978 13.376V11.2646ZM236.711 17.666C236.711 16.7975 236.838 15.9889 237.093 15.2402C237.347 14.4915 237.707 13.8402 238.171 13.2861C238.65 12.7171 239.219 12.2604 239.878 11.916C240.537 11.5716 241.263 11.362 242.057 11.2871V13.376C241.308 13.5407 240.709 14.0124 240.26 14.791C239.811 15.5697 239.586 16.5055 239.586 17.5986C239.586 18.1527 239.638 18.6768 239.743 19.1709C239.863 19.665 240.028 20.1068 240.237 20.4961C240.447 20.8854 240.701 21.2074 241.001 21.4619C241.315 21.7165 241.667 21.8737 242.057 21.9336V24.0898C241.233 24.0299 240.492 23.8278 239.833 23.4834C239.174 23.124 238.613 22.6598 238.148 22.0908C237.684 21.5218 237.325 20.8555 237.07 20.0918C236.831 19.3281 236.711 18.5195 236.711 17.666ZM254.545 18.2275C254.545 18.7516 254.567 19.2458 254.612 19.71C254.657 20.1592 254.755 20.556 254.904 20.9004C255.054 21.2448 255.279 21.5218 255.578 21.7314C255.878 21.9411 256.274 22.0459 256.769 22.0459C256.963 22.0459 257.24 22.016 257.6 21.9561C257.959 21.8962 258.303 21.7988 258.633 21.6641V23.3262C258.243 23.5358 257.817 23.723 257.353 23.8877C256.903 24.0374 256.454 24.1123 256.005 24.1123C255.646 24.1123 255.324 24.0749 255.039 24C254.755 23.9401 254.485 23.8428 254.23 23.708C253.991 23.5583 253.759 23.3936 253.534 23.2139C253.31 23.0342 253.085 22.832 252.86 22.6074C252.606 22.3529 252.404 22.0609 252.254 21.7314C252.104 21.387 251.992 21.0352 251.917 20.6758C251.857 20.3014 251.82 19.9271 251.805 19.5527C251.805 19.1784 251.805 18.8115 251.805 18.4521V11.332H254.545V18.2275ZM262.294 11.332V24H259.846L259.554 22.6973V11.332H262.294ZM268.538 11.332L268.83 12.6348V19.5078V19.5527V24H266.112V11.332H268.538ZM269.751 11.8936C270.125 11.6839 270.575 11.5267 271.099 11.4219C271.623 11.3021 272.334 11.2422 273.232 11.2422V14.0723C272.813 13.9525 272.304 13.8851 271.705 13.8701C271.376 13.8701 271.039 13.9001 270.694 13.96C270.365 14.0049 270.05 14.0798 269.751 14.1846V11.8936ZM281.678 11.332H284.755L287.428 20.3389V24.0898H286.125L281.678 11.332ZM291.044 11.332H294.099L289.651 24.0898H288.349V20.3389L291.044 11.332ZM300.073 24H297.333V11.332H300.073V24ZM300.32 7.28906C300.32 7.73828 300.163 8.12012 299.849 8.43457C299.534 8.73405 299.152 8.88379 298.703 8.88379C298.254 8.88379 297.872 8.72656 297.558 8.41211C297.258 8.09766 297.108 7.72331 297.108 7.28906C297.108 6.83984 297.266 6.45801 297.58 6.14355C297.895 5.8291 298.269 5.67188 298.703 5.67188C299.152 5.67188 299.534 5.8291 299.849 6.14355C300.163 6.45801 300.32 6.83984 300.32 7.28906ZM303.6 14.9482C303.6 14.3792 303.704 13.8701 303.914 13.4209C304.124 12.9567 304.416 12.5674 304.79 12.2529C305.164 11.9235 305.584 11.6689 306.048 11.4893C306.527 11.2946 307.021 11.1748 307.53 11.1299V13.376C307.141 13.4508 306.834 13.6081 306.609 13.8477C306.4 14.0872 306.295 14.4242 306.295 14.8584C306.295 15.2178 306.407 15.5098 306.632 15.7344C306.871 15.944 307.171 16.1312 307.53 16.2959V18.6992C307.276 18.6243 307.014 18.542 306.744 18.4521C306.49 18.3473 306.235 18.235 305.98 18.1152C305.187 17.696 304.588 17.2542 304.184 16.79C303.794 16.3258 303.6 15.7119 303.6 14.9482ZM311.102 14.0049C310.697 13.7952 310.263 13.638 309.799 13.5332C309.35 13.4284 308.9 13.361 308.451 13.3311V11.1074C309.125 11.1374 309.746 11.2347 310.315 11.3994C310.884 11.5492 311.438 11.7962 311.978 12.1406L311.102 14.0049ZM304.79 21.1699C305.09 21.3796 305.441 21.5742 305.846 21.7539C306.265 21.9336 306.789 22.0234 307.418 22.0234H307.53V24.1123C307.156 24.1123 306.812 24.0973 306.497 24.0674C306.183 24.0524 305.868 24.0075 305.554 23.9326C305.254 23.8428 304.947 23.723 304.633 23.5732C304.318 23.4235 303.989 23.2288 303.645 22.9893L304.79 21.1699ZM308.451 16.6553C308.9 16.805 309.357 16.9697 309.821 17.1494C310.285 17.3291 310.705 17.5537 311.079 17.8232C311.468 18.0928 311.783 18.4297 312.022 18.834C312.277 19.2233 312.404 19.7174 312.404 20.3164C312.404 20.9004 312.299 21.4095 312.09 21.8438C311.88 22.278 311.596 22.6523 311.236 22.9668C310.892 23.2812 310.48 23.5283 310.001 23.708C309.522 23.8877 309.005 24.0075 308.451 24.0674V21.9336C308.96 21.8438 309.35 21.6865 309.619 21.4619C309.904 21.2223 310.046 20.9079 310.046 20.5186C310.046 20.1292 309.889 19.8298 309.574 19.6201C309.275 19.3955 308.9 19.2008 308.451 19.0361V16.6553ZM318.648 24H315.908V11.332H318.648V24ZM318.896 7.28906C318.896 7.73828 318.738 8.12012 318.424 8.43457C318.109 8.73405 317.728 8.88379 317.278 8.88379C316.829 8.88379 316.447 8.72656 316.133 8.41211C315.833 8.09766 315.684 7.72331 315.684 7.28906C315.684 6.83984 315.841 6.45801 316.155 6.14355C316.47 5.8291 316.844 5.67188 317.278 5.67188C317.728 5.67188 318.109 5.8291 318.424 6.14355C318.738 6.45801 318.896 6.83984 318.896 7.28906ZM328.419 11.2646C329.243 11.3096 329.991 11.5117 330.665 11.8711C331.339 12.2155 331.9 12.6797 332.35 13.2637C332.814 13.8327 333.173 14.499 333.428 15.2627C333.682 16.0264 333.81 16.8424 333.81 17.7109C333.81 18.5794 333.675 19.3955 333.405 20.1592C333.151 20.9079 332.791 21.5667 332.327 22.1357C331.863 22.6898 331.294 23.139 330.62 23.4834C329.946 23.8278 329.213 24.0299 328.419 24.0898V21.9336C329.168 21.7689 329.774 21.2972 330.238 20.5186C330.717 19.7399 330.957 18.804 330.957 17.7109C330.957 17.1569 330.897 16.6403 330.777 16.1611C330.673 15.667 330.508 15.2253 330.283 14.8359C330.059 14.4466 329.789 14.1247 329.475 13.8701C329.16 13.6156 328.808 13.4508 328.419 13.376V11.2646ZM322.152 17.666C322.152 16.7975 322.28 15.9889 322.534 15.2402C322.789 14.4915 323.148 13.8402 323.612 13.2861C324.091 12.7171 324.66 12.2604 325.319 11.916C325.978 11.5716 326.704 11.362 327.498 11.2871V13.376C326.749 13.5407 326.15 14.0124 325.701 14.791C325.252 15.5697 325.027 16.5055 325.027 17.5986C325.027 18.1527 325.08 18.6768 325.185 19.1709C325.304 19.665 325.469 20.1068 325.679 20.4961C325.888 20.8854 326.143 21.2074 326.442 21.4619C326.757 21.7165 327.109 21.8737 327.498 21.9336V24.0898C326.674 24.0299 325.933 23.8278 325.274 23.4834C324.616 23.124 324.054 22.6598 323.59 22.0908C323.126 21.5218 322.766 20.8555 322.512 20.0918C322.272 19.3281 322.152 18.5195 322.152 17.666ZM339.762 11.332L340.054 12.6123V24H337.336V11.332H339.762ZM346.77 12.7246C347.024 12.9792 347.219 13.2786 347.354 13.623C347.503 13.9525 347.608 14.3044 347.668 14.6787C347.743 15.0381 347.788 15.4049 347.803 15.7793C347.818 16.1536 347.825 16.5205 347.825 16.8799V23.5508V24H345.085V17.1045C345.085 16.5954 345.062 16.1087 345.018 15.6445C344.973 15.1803 344.868 14.7686 344.703 14.4092C344.538 14.0498 344.314 13.7728 344.029 13.5781C343.745 13.3685 343.348 13.2637 342.839 13.2637C342.629 13.2637 342.345 13.3011 341.985 13.376C341.641 13.4359 341.304 13.5407 340.975 13.6904V11.9609C341.379 11.7513 341.813 11.5716 342.277 11.4219C342.757 11.2721 343.221 11.1973 343.67 11.1973C344.344 11.1973 344.913 11.3395 345.377 11.624C345.841 11.8936 346.305 12.2604 346.77 12.7246Z" fill="#FB5A5A"/>
<path d="M220.884 47.2646C221.707 47.3096 222.456 47.5117 223.13 47.8711C223.804 48.2155 224.365 48.6797 224.814 49.2637C225.279 49.8327 225.638 50.499 225.893 51.2627C226.147 52.0264 226.274 52.8424 226.274 53.7109C226.274 54.5794 226.14 55.3955 225.87 56.1592C225.616 56.9079 225.256 57.5667 224.792 58.1357C224.328 58.6898 223.759 59.139 223.085 59.4834C222.411 59.8278 221.677 60.0299 220.884 60.0898V57.9336C221.632 57.7689 222.239 57.2972 222.703 56.5186C223.182 55.7399 223.422 54.804 223.422 53.7109C223.422 53.1569 223.362 52.6403 223.242 52.1611C223.137 51.667 222.973 51.2253 222.748 50.8359C222.523 50.4466 222.254 50.1247 221.939 49.8701C221.625 49.6156 221.273 49.4508 220.884 49.376V47.2646ZM214.617 53.666C214.617 52.7975 214.744 51.9889 214.999 51.2402C215.254 50.4915 215.613 49.8402 216.077 49.2861C216.556 48.7171 217.125 48.2604 217.784 47.916C218.443 47.5716 219.169 47.362 219.963 47.2871V49.376C219.214 49.5407 218.615 50.0124 218.166 50.791C217.717 51.5697 217.492 52.5055 217.492 53.5986C217.492 54.1527 217.545 54.6768 217.649 55.1709C217.769 55.665 217.934 56.1068 218.144 56.4961C218.353 56.8854 218.608 57.2074 218.907 57.4619C219.222 57.7165 219.574 57.8737 219.963 57.9336V60.0898C219.139 60.0299 218.398 59.8278 217.739 59.4834C217.08 59.124 216.519 58.6598 216.055 58.0908C215.59 57.5218 215.231 56.8555 214.977 56.0918C214.737 55.3281 214.617 54.5195 214.617 53.666ZM232.451 54.2275C232.451 54.7516 232.474 55.2458 232.519 55.71C232.563 56.1592 232.661 56.556 232.811 56.9004C232.96 57.2448 233.185 57.5218 233.484 57.7314C233.784 57.9411 234.181 58.0459 234.675 58.0459C234.869 58.0459 235.146 58.016 235.506 57.9561C235.865 57.8962 236.21 57.7988 236.539 57.6641V59.3262C236.15 59.5358 235.723 59.723 235.259 59.8877C234.81 60.0374 234.36 60.1123 233.911 60.1123C233.552 60.1123 233.23 60.0749 232.945 60C232.661 59.9401 232.391 59.8428 232.137 59.708C231.897 59.5583 231.665 59.3936 231.44 59.2139C231.216 59.0342 230.991 58.832 230.767 58.6074C230.512 58.3529 230.31 58.0609 230.16 57.7314C230.01 57.387 229.898 57.0352 229.823 56.6758C229.763 56.3014 229.726 55.9271 229.711 55.5527C229.711 55.1784 229.711 54.8115 229.711 54.4521V47.332H232.451V54.2275ZM240.2 47.332V60H237.752L237.46 58.6973V47.332H240.2ZM246.444 47.332L246.736 48.6348V55.5078V55.5527V60H244.019V47.332H246.444ZM247.657 47.8936C248.032 47.6839 248.481 47.5267 249.005 47.4219C249.529 47.3021 250.24 47.2422 251.139 47.2422V50.0723C250.719 49.9525 250.21 49.8851 249.611 49.8701C249.282 49.8701 248.945 49.9001 248.601 49.96C248.271 50.0049 247.957 50.0798 247.657 50.1846V47.8936ZM259.898 50.9482C259.898 50.3792 260.003 49.8701 260.213 49.4209C260.423 48.9567 260.715 48.5674 261.089 48.2529C261.463 47.9235 261.882 47.6689 262.347 47.4893C262.826 47.2946 263.32 47.1748 263.829 47.1299V49.376C263.44 49.4508 263.133 49.6081 262.908 49.8477C262.699 50.0872 262.594 50.4242 262.594 50.8584C262.594 51.2178 262.706 51.5098 262.931 51.7344C263.17 51.944 263.47 52.1312 263.829 52.2959V54.6992C263.575 54.6243 263.312 54.542 263.043 54.4521C262.788 54.3473 262.534 54.235 262.279 54.1152C261.486 53.696 260.887 53.2542 260.482 52.79C260.093 52.3258 259.898 51.7119 259.898 50.9482ZM267.4 50.0049C266.996 49.7952 266.562 49.638 266.098 49.5332C265.648 49.4284 265.199 49.361 264.75 49.3311V47.1074C265.424 47.1374 266.045 47.2347 266.614 47.3994C267.183 47.5492 267.737 47.7962 268.276 48.1406L267.4 50.0049ZM261.089 57.1699C261.388 57.3796 261.74 57.5742 262.145 57.7539C262.564 57.9336 263.088 58.0234 263.717 58.0234H263.829V60.1123C263.455 60.1123 263.11 60.0973 262.796 60.0674C262.481 60.0524 262.167 60.0075 261.853 59.9326C261.553 59.8428 261.246 59.723 260.932 59.5732C260.617 59.4235 260.288 59.2288 259.943 58.9893L261.089 57.1699ZM264.75 52.6553C265.199 52.805 265.656 52.9697 266.12 53.1494C266.584 53.3291 267.004 53.5537 267.378 53.8232C267.767 54.0928 268.082 54.4297 268.321 54.834C268.576 55.2233 268.703 55.7174 268.703 56.3164C268.703 56.9004 268.598 57.4095 268.389 57.8438C268.179 58.278 267.895 58.6523 267.535 58.9668C267.191 59.2812 266.779 59.5283 266.3 59.708C265.821 59.8877 265.304 60.0075 264.75 60.0674V57.9336C265.259 57.8438 265.648 57.6865 265.918 57.4619C266.202 57.2223 266.345 56.9079 266.345 56.5186C266.345 56.1292 266.188 55.8298 265.873 55.6201C265.574 55.3955 265.199 55.2008 264.75 55.0361V52.6553ZM278.114 47.2197C278.923 47.2946 279.649 47.5117 280.293 47.8711C280.952 48.2305 281.513 48.6947 281.978 49.2637C282.442 49.8327 282.794 50.484 283.033 51.2178C283.288 51.9515 283.415 52.7152 283.415 53.5088C283.415 53.8682 283.393 54.2275 283.348 54.5869H275.644V52.6104H280.832C280.832 52.221 280.765 51.8467 280.63 51.4873C280.51 51.1279 280.323 50.7985 280.068 50.499C279.829 50.1846 279.544 49.9225 279.215 49.7129C278.885 49.5033 278.519 49.376 278.114 49.3311V47.2197ZM278.024 57.8887C278.189 57.8887 278.391 57.8737 278.631 57.8438C278.885 57.7988 279.147 57.7314 279.417 57.6416C279.701 57.5368 279.979 57.4095 280.248 57.2598C280.533 57.11 280.78 56.9303 280.989 56.7207L281.978 58.2256C281.483 58.8395 280.907 59.3037 280.248 59.6182C279.589 59.9326 278.751 60.0898 277.732 60.0898C276.909 60.0898 276.138 59.9251 275.419 59.5957C274.7 59.2513 274.086 58.7871 273.577 58.2031C273.068 57.6191 272.664 56.9378 272.364 56.1592C272.065 55.3805 271.915 54.542 271.915 53.6436C271.915 52.79 272.05 51.9814 272.319 51.2178C272.604 50.4541 272.986 49.7878 273.465 49.2188C273.944 48.6348 274.498 48.1631 275.127 47.8037C275.771 47.4443 276.46 47.2422 277.193 47.1973V49.3535C276.639 49.4583 276.183 49.6829 275.823 50.0273C275.464 50.3717 275.179 50.7686 274.97 51.2178C274.775 51.652 274.633 52.1012 274.543 52.5654C274.468 53.0296 274.431 53.4264 274.431 53.7559C274.431 54.3398 274.498 54.8864 274.633 55.3955C274.783 55.8896 275.007 56.3239 275.307 56.6982C275.606 57.0576 275.973 57.3496 276.407 57.5742C276.856 57.7839 277.396 57.8887 278.024 57.8887ZM289.569 47.332L289.861 48.6348V55.5078V55.5527V60H287.144V47.332H289.569ZM290.782 47.8936C291.157 47.6839 291.606 47.5267 292.13 47.4219C292.654 47.3021 293.365 47.2422 294.264 47.2422V50.0723C293.844 49.9525 293.335 49.8851 292.736 49.8701C292.407 49.8701 292.07 49.9001 291.726 49.96C291.396 50.0049 291.082 50.0798 290.782 50.1846V47.8936ZM296.555 47.332H299.632L302.305 56.3389V60.0898H301.002L296.555 47.332ZM305.921 47.332H308.976L304.528 60.0898H303.226V56.3389L305.921 47.332ZM314.95 60H312.21V47.332H314.95V60ZM315.197 43.2891C315.197 43.7383 315.04 44.1201 314.726 44.4346C314.411 44.734 314.029 44.8838 313.58 44.8838C313.131 44.8838 312.749 44.7266 312.435 44.4121C312.135 44.0977 311.985 43.7233 311.985 43.2891C311.985 42.8398 312.143 42.458 312.457 42.1436C312.771 41.8291 313.146 41.6719 313.58 41.6719C314.029 41.6719 314.411 41.8291 314.726 42.1436C315.04 42.458 315.197 42.8398 315.197 43.2891ZM327.191 50.6113C326.967 50.3418 326.652 50.0947 326.248 49.8701C325.859 49.6305 325.335 49.4883 324.676 49.4434V47.2871C325.499 47.332 326.203 47.5117 326.787 47.8262C327.386 48.1257 327.925 48.5674 328.404 49.1514L327.191 50.6113ZM324.676 57.8662C325.215 57.8063 325.672 57.679 326.046 57.4844C326.435 57.2747 326.802 57.0352 327.146 56.7656L328.157 58.2256C327.693 58.8096 327.191 59.2588 326.652 59.5732C326.113 59.8727 325.454 60.0449 324.676 60.0898V57.8662ZM318.409 53.666C318.409 52.8125 318.529 52.0114 318.769 51.2627C319.023 50.514 319.39 49.8551 319.869 49.2861C320.348 48.7171 320.91 48.2604 321.554 47.916C322.213 47.5566 322.946 47.347 323.755 47.2871V49.4658C323.006 49.6305 322.407 50.0947 321.958 50.8584C321.509 51.6071 321.284 52.5205 321.284 53.5986C321.284 54.1527 321.337 54.6768 321.441 55.1709C321.561 55.6501 321.726 56.0768 321.936 56.4512C322.145 56.8255 322.4 57.14 322.699 57.3945C323.014 57.6491 323.366 57.8063 323.755 57.8662V60.0898C322.931 60.0449 322.19 59.8503 321.531 59.5059C320.872 59.1465 320.311 58.6823 319.847 58.1133C319.382 57.5293 319.023 56.8555 318.769 56.0918C318.529 55.3281 318.409 54.5195 318.409 53.666ZM337.793 47.2197C338.602 47.2946 339.328 47.5117 339.972 47.8711C340.631 48.2305 341.192 48.6947 341.656 49.2637C342.12 49.8327 342.472 50.484 342.712 51.2178C342.966 51.9515 343.094 52.7152 343.094 53.5088C343.094 53.8682 343.071 54.2275 343.026 54.5869H335.322V52.6104H340.511C340.511 52.221 340.443 51.8467 340.309 51.4873C340.189 51.1279 340.002 50.7985 339.747 50.499C339.507 50.1846 339.223 49.9225 338.894 49.7129C338.564 49.5033 338.197 49.376 337.793 49.3311V47.2197ZM337.703 57.8887C337.868 57.8887 338.07 57.8737 338.31 57.8438C338.564 57.7988 338.826 57.7314 339.096 57.6416C339.38 57.5368 339.657 57.4095 339.927 57.2598C340.211 57.11 340.458 56.9303 340.668 56.7207L341.656 58.2256C341.162 58.8395 340.586 59.3037 339.927 59.6182C339.268 59.9326 338.429 60.0898 337.411 60.0898C336.588 60.0898 335.816 59.9251 335.098 59.5957C334.379 59.2513 333.765 58.7871 333.256 58.2031C332.747 57.6191 332.342 56.9378 332.043 56.1592C331.743 55.3805 331.594 54.542 331.594 53.6436C331.594 52.79 331.729 51.9814 331.998 51.2178C332.283 50.4541 332.664 49.7878 333.144 49.2188C333.623 48.6348 334.177 48.1631 334.806 47.8037C335.45 47.4443 336.138 47.2422 336.872 47.1973V49.3535C336.318 49.4583 335.861 49.6829 335.502 50.0273C335.143 50.3717 334.858 50.7686 334.648 51.2178C334.454 51.652 334.312 52.1012 334.222 52.5654C334.147 53.0296 334.109 53.4264 334.109 53.7559C334.109 54.3398 334.177 54.8864 334.312 55.3955C334.461 55.8896 334.686 56.3239 334.985 56.6982C335.285 57.0576 335.652 57.3496 336.086 57.5742C336.535 57.7839 337.074 57.8887 337.703 57.8887ZM346.53 50.9482C346.53 50.3792 346.635 49.8701 346.845 49.4209C347.054 48.9567 347.346 48.5674 347.721 48.2529C348.095 47.9235 348.514 47.6689 348.979 47.4893C349.458 47.2946 349.952 47.1748 350.461 47.1299V49.376C350.072 49.4508 349.765 49.6081 349.54 49.8477C349.33 50.0872 349.226 50.4242 349.226 50.8584C349.226 51.2178 349.338 51.5098 349.562 51.7344C349.802 51.944 350.102 52.1312 350.461 52.2959V54.6992C350.206 54.6243 349.944 54.542 349.675 54.4521C349.42 54.3473 349.166 54.235 348.911 54.1152C348.118 53.696 347.519 53.2542 347.114 52.79C346.725 52.3258 346.53 51.7119 346.53 50.9482ZM354.032 50.0049C353.628 49.7952 353.194 49.638 352.729 49.5332C352.28 49.4284 351.831 49.361 351.382 49.3311V47.1074C352.056 47.1374 352.677 47.2347 353.246 47.3994C353.815 47.5492 354.369 47.7962 354.908 48.1406L354.032 50.0049ZM347.721 57.1699C348.02 57.3796 348.372 57.5742 348.776 57.7539C349.196 57.9336 349.72 58.0234 350.349 58.0234H350.461V60.1123C350.087 60.1123 349.742 60.0973 349.428 60.0674C349.113 60.0524 348.799 60.0075 348.484 59.9326C348.185 59.8428 347.878 59.723 347.563 59.5732C347.249 59.4235 346.92 59.2288 346.575 58.9893L347.721 57.1699ZM351.382 52.6553C351.831 52.805 352.288 52.9697 352.752 53.1494C353.216 53.3291 353.635 53.5537 354.01 53.8232C354.399 54.0928 354.714 54.4297 354.953 54.834C355.208 55.2233 355.335 55.7174 355.335 56.3164C355.335 56.9004 355.23 57.4095 355.021 57.8438C354.811 58.278 354.526 58.6523 354.167 58.9668C353.823 59.2812 353.411 59.5283 352.932 59.708C352.452 59.8877 351.936 60.0075 351.382 60.0674V57.9336C351.891 57.8438 352.28 57.6865 352.55 57.4619C352.834 57.2223 352.977 56.9079 352.977 56.5186C352.977 56.1292 352.819 55.8298 352.505 55.6201C352.205 55.3955 351.831 55.2008 351.382 55.0361V52.6553Z" fill="#09C928"/>
<line x1="213" y1="35.5" x2="357" y2="35.5" stroke="black"/>
</svg>
