<svg width="20" height="17" viewBox="0 0 20 17" fill="none" xmlns="http://www.w3.org/2000/svg">
<path d="M0 15.0871C2.22965 15.2937 4.21157 14.732 6.0275 13.3102C4.79747 13.2353 3.80899 12.7497 3.02366 11.8329C2.63966 11.3848 2.29654 10.7429 2.22098 10.3323C2.81096 10.4275 3.41326 10.3985 3.99232 10.2471C1.75276 9.66207 0.704818 7.62301 0.771708 6.01913C1.06156 6.13406 1.34399 6.26837 1.6388 6.3536C1.93474 6.4312 2.23712 6.4792 2.54181 6.49694C1.56324 5.71954 0.966183 4.71873 0.820017 3.46223C0.700671 2.53743 0.888172 1.59788 1.35142 0.799434C3.5724 3.52551 6.38177 5.03769 9.82906 5.27272C9.72986 4.72682 9.71563 4.16781 9.78694 3.61719C9.99257 2.0314 11.2375 0.556658 12.7264 0.160209C14.2524 -0.243558 15.5919 0.115872 16.7447 1.2385C16.7794 1.26697 16.8191 1.28792 16.8617 1.30012C16.9042 1.31231 16.9487 1.31551 16.9924 1.30952C17.7866 1.14081 18.5507 0.843647 19.2568 0.428813C19.3063 0.400403 19.3596 0.375867 19.4475 0.329378C19.1505 1.27682 18.5551 2.09184 17.758 2.64221C18.5158 2.55538 19.2569 2.3508 19.9566 2.03527L20 2.08693C19.668 2.49112 19.3534 2.91211 19.0004 3.29435C18.7217 3.59653 18.3897 3.84706 18.0924 4.13245C18.0209 4.20201 17.9767 4.29684 17.9685 4.39847C17.9623 8.81881 16.2926 12.3701 12.8416 14.958C11.3861 16.0492 9.72253 16.6367 7.945 16.8834C6.28304 17.1207 4.59189 16.9949 2.97907 16.5141C1.9555 16.2066 0.978501 15.7506 0.0767991 15.1594C0.0500159 15.1367 0.0243818 15.1126 0 15.0871Z" fill="black"/>
</svg>
