<svg width="17" height="17" viewBox="0 0 17 17" fill="none" xmlns="http://www.w3.org/2000/svg">
<path d="M0 17C0.309665 15.87 0.610961 14.7733 0.910862 13.6767C0.99316 13.3761 1.08243 13.0755 1.15497 12.7721C1.17398 12.6892 1.16414 12.6023 1.12707 12.5258C0.329976 11.1187 -0.0307136 9.50737 0.0906679 7.89569C0.297111 5.13323 1.57483 2.95944 3.86942 1.41329C5.35567 0.379154 7.15374 -0.112333 8.96076 0.0216195C12.2987 0.262379 14.7719 1.89759 16.1681 4.92169C17.5309 7.87064 17.2032 10.7667 15.3033 13.4109C13.9377 15.3119 12.0407 16.4211 9.72376 16.7662C7.96712 17.031 6.17167 16.7276 4.60034 15.9006C4.51709 15.8635 4.42383 15.8552 4.33531 15.8769C2.95716 16.2304 1.5818 16.5922 0.205049 16.9513L0 17ZM2.02677 14.9988L2.12441 14.9793C2.90137 14.7761 3.67832 14.5757 4.45388 14.3656C4.5255 14.3435 4.60112 14.3374 4.67538 14.3477C4.74963 14.358 4.82069 14.3846 4.8835 14.4254C6.38236 15.3504 8.18144 15.6621 9.9051 15.2952C11.58 14.9566 13.0735 14.0201 14.1056 12.6612C15.1377 11.3023 15.6374 9.61445 15.5111 7.91416C15.3848 6.21386 14.6411 4.61795 13.4195 3.42572C12.1979 2.23349 10.5823 1.52686 8.87567 1.43834C7.02347 1.3502 5.21125 1.99498 3.83292 3.23255C2.45459 4.47011 1.62154 6.20042 1.51485 8.04738C1.41711 9.5216 1.804 10.9874 2.61681 12.2224C2.65885 12.286 2.68541 12.3585 2.69438 12.4341C2.70334 12.5097 2.69445 12.5864 2.66842 12.658C2.45361 13.4276 2.24995 14.2014 2.02677 14.9988Z" fill="black"/>
<path d="M5.76648 4.55577C6.15007 4.45557 6.32443 4.69494 6.45276 5.02337C6.64107 5.51185 6.84891 5.99754 7.05536 6.47627C7.09288 6.54693 7.10929 6.62685 7.10261 6.70654C7.09593 6.78623 7.06646 6.86232 7.01769 6.92578C6.84891 7.15263 6.68432 7.38364 6.50577 7.60214C6.45077 7.65584 6.41665 7.72729 6.4095 7.80374C6.40235 7.88019 6.42262 7.9567 6.46671 8.01964C7.12423 9.16148 8.15271 10.0452 9.38203 10.5246C9.45081 10.5604 9.53025 10.5701 9.60565 10.5519C9.68104 10.5338 9.74729 10.489 9.79213 10.4258C10.0069 10.1586 10.2315 9.89839 10.4366 9.62562C10.4772 9.55214 10.5453 9.49763 10.626 9.47391C10.7067 9.4502 10.7935 9.45921 10.8676 9.49898C11.466 9.77732 12.063 10.0556 12.653 10.3563C12.6933 10.3866 12.7262 10.4256 12.7491 10.4705C12.7721 10.5153 12.7845 10.5648 12.7856 10.6151C12.7702 11.5072 12.5066 11.9386 11.5455 12.3408C11.0001 12.569 10.4366 12.5133 9.87163 12.3575C7.84347 11.7925 6.34954 10.5205 5.15133 8.8449C4.77471 8.31885 4.43436 7.7747 4.29208 7.13453C4.18127 6.71421 4.18767 6.27167 4.31059 5.85472C4.43351 5.43776 4.66827 5.06223 4.98953 4.76869C5.09186 4.67275 5.21613 4.6032 5.35153 4.56609C5.48694 4.52898 5.62939 4.52544 5.76648 4.55577Z" fill="black"/>
</svg>
