<svg width="15" height="15" viewBox="0 0 15 15" fill="none" xmlns="http://www.w3.org/2000/svg">
<path d="M10.4609 15.0001C10.165 14.9434 9.86246 14.9093 9.57441 14.8256C8.41477 14.4893 7.54319 13.7799 6.98744 12.7127C6.3949 11.5743 6.33503 10.3866 6.80545 9.19227C7.24888 8.06599 8.04649 7.2596 9.17325 6.81769C10.5364 6.2831 11.8604 6.41606 13.087 7.21619C14.1276 7.89509 14.7519 8.87042 14.944 10.1023C15.1315 11.3056 14.8466 12.399 14.0998 13.3591C13.4153 14.2394 12.5116 14.767 11.4068 14.9434C11.287 14.9625 11.1673 14.9813 11.0471 15.0001H10.4613H10.4609ZM10.7466 14.5007C12.8024 14.5057 14.4877 12.8296 14.5029 10.7644C14.5182 8.70891 12.8244 7.01049 10.7563 7.00775C8.69265 7.00501 7.01484 8.6741 7.0027 10.7413C6.99096 12.8015 8.67777 14.496 10.7466 14.5011V14.5007Z" fill="#410EAD"/>
<path d="M0 3.9636C0.0387458 3.73873 0.0618366 3.50995 0.118586 3.28978C0.511914 1.76031 1.45316 0.706761 2.95446 0.226136C4.46672 -0.258009 5.86822 0.0376397 7.06426 1.09001C8.16518 2.05869 8.62583 3.30738 8.46497 4.76255C8.25677 6.64986 6.78325 8.15744 4.89841 8.448C2.81592 8.76946 0.820315 7.53172 0.19686 5.51849C0.0997997 5.20524 0.0641849 4.87283 0 4.54903C0 4.35388 0 4.15874 0 3.9636ZM0.499781 4.24986C0.491954 6.30298 2.17368 7.9924 4.23699 8.00375C6.30265 8.01509 7.99259 6.33622 8.00042 4.2655C8.00785 2.20339 6.31948 0.512008 4.25186 0.510835C2.19285 0.509662 0.508 2.18892 0.500173 4.25025L0.499781 4.24986Z" fill="#410EAD"/>
<path d="M13.5051 6.50055H13.0045C13.0045 6.44619 13.0045 6.39496 13.0045 6.34373C13.0045 6.00741 13.0053 5.6707 13.0045 5.33438C13.0002 4.00396 12.05 3.03528 10.7185 3.00868C10.3632 3.00164 10.0078 3.00751 9.64068 3.00751C9.85085 3.21556 10.0516 3.41422 10.2536 3.61406C10.1095 3.75485 9.99566 3.86591 9.8892 3.97033C9.48844 3.5687 9.08259 3.16198 8.68848 2.767C9.0865 2.36967 9.49235 1.96492 9.89899 1.55859C9.98861 1.65401 10.0974 1.76938 10.225 1.90508C10.036 2.07715 9.82854 2.26604 9.62151 2.45454C9.63051 2.47213 9.6399 2.48973 9.6489 2.50694C9.70408 2.50694 9.75927 2.50538 9.81445 2.50694C10.2821 2.52219 10.7584 2.48582 11.2152 2.56364C12.3239 2.75331 13.0554 3.42165 13.3814 4.4924C13.4828 4.82521 13.4804 5.1932 13.5016 5.54634C13.5203 5.85724 13.5055 6.16971 13.5055 6.49977L13.5051 6.50055Z" fill="#410EAD"/>
<path d="M5.14611 12.0037C4.9156 11.778 4.7156 11.5817 4.51366 11.3838C4.64281 11.2544 4.75474 11.1422 4.8608 11.0354C5.26939 11.4448 5.67486 11.8508 6.07014 12.2469C5.67212 12.6446 5.26587 13.0502 4.86198 13.4538C4.76922 13.3544 4.66042 13.2383 4.54262 13.1124C4.72304 12.9423 4.92734 12.7495 5.13124 12.5567C5.12341 12.5414 5.11598 12.5262 5.10815 12.5109C5.05845 12.5086 5.00913 12.5062 4.95943 12.5039C4.56532 12.4878 4.1622 12.5179 3.77827 12.4472C2.67382 12.2438 1.94626 11.5813 1.61712 10.5094C1.53415 10.2392 1.51653 9.94431 1.50244 9.65922C1.48366 9.28105 1.49775 8.90093 1.49775 8.51221H1.99048C1.99283 8.55992 1.99792 8.61076 1.99792 8.66199C1.9987 8.99831 1.99792 9.33463 1.99831 9.67134C2.00183 11.0045 2.94621 11.9712 4.27844 12.0025C4.55397 12.0092 4.82988 12.0033 5.14572 12.0033L5.14611 12.0037Z" fill="#410EAD"/>
<path d="M14.0038 10.7534C14.0046 12.5383 12.5327 14.0071 10.7488 14.002C8.9567 13.997 7.49571 12.5316 7.50197 10.7468C7.50824 8.96114 8.96179 7.50987 10.7472 7.50635C12.5334 7.50283 14.003 8.96857 14.0038 10.7534ZM13.5044 10.7534C13.5037 9.24388 12.2685 8.00849 10.7562 8.00497C9.24084 8.00145 7.9951 9.24701 8.00136 10.7601C8.00723 12.2719 9.24632 13.5058 10.7551 13.5026C12.2638 13.4995 13.5052 12.2583 13.5044 10.753V10.7534Z" fill="#410EAD"/>
<path d="M1.00138 4.3228C0.973986 2.56885 2.33713 1.05384 4.18989 1.01395C5.95145 0.976016 7.42653 2.35024 7.49815 4.14134C7.56977 5.92814 6.15966 7.43924 4.34839 7.50064C2.5837 7.56047 1.05383 6.17999 1.00138 4.3228ZM1.50116 4.32202C1.57552 5.88512 2.84239 7.07476 4.35622 7.00319C5.88257 6.93085 7.06607 5.654 6.99954 4.15698C6.93183 2.63611 5.68258 1.47307 4.18323 1.51335C2.61775 1.55558 1.47377 2.83869 1.50116 4.32162V4.32202Z" fill="#410EAD"/>
<path d="M10.7528 12.9927V12.516H10.5086V12.9919H10.0128V12.5054H9.26172V12.0041H9.74624V9.50553H9.26485V9.00535H9.99984V8.51025H10.5008V8.99284H10.7485V8.51182H11.2444V9.00183C11.327 9.00183 11.3931 9.00066 11.4593 9.00183C11.9367 9.01161 12.2455 9.32016 12.2498 9.79453C12.2514 9.97481 12.269 10.159 12.2389 10.3346C12.2146 10.4777 12.0851 10.6103 12.0847 10.748C12.0847 10.8852 12.2197 11.0186 12.2373 11.1609C12.2651 11.3866 12.2596 11.6197 12.2408 11.8473C12.2099 12.2188 11.8941 12.4824 11.4828 12.5023C11.4107 12.5058 11.3387 12.5027 11.2554 12.5027V12.9919H10.7521L10.7528 12.9927ZM10.2613 11.9939C10.6906 11.9939 11.1133 12.0002 11.536 11.9904C11.6788 11.9873 11.7458 11.8778 11.7501 11.7397C11.7544 11.6036 11.7524 11.4667 11.7516 11.3307C11.7504 11.0909 11.6671 11.0053 11.426 11.0033C11.1239 11.0006 10.8213 11.0025 10.5192 11.0025C10.4339 11.0025 10.3486 11.0025 10.2617 11.0025V11.9939H10.2613ZM10.2613 10.4981C10.6879 10.4981 11.1016 10.5024 11.5152 10.4957C11.66 10.4934 11.7438 10.3964 11.7497 10.2478C11.7555 10.1019 11.7532 9.95565 11.7512 9.80939C11.7489 9.60017 11.6585 9.50827 11.4475 9.50318C11.3062 9.49966 11.165 9.5024 11.0233 9.5024C10.7712 9.5024 10.5192 9.5024 10.2609 9.5024V10.4981H10.2613Z" fill="#410EAD"/>
<path d="M4.50295 6.50042H4.0016C4.0016 6.38153 3.99416 6.26578 4.00356 6.15158C4.01373 6.03035 3.97616 5.9803 3.84936 5.94627C3.46855 5.8442 3.16759 5.63342 3.04157 5.23726C3.01574 5.15592 3.00673 5.0648 3.01104 4.97955C3.01769 4.84893 3.10653 4.77541 3.22982 4.76407C3.35427 4.75233 3.4662 4.81412 3.48108 4.93848C3.51747 5.24156 3.70181 5.39525 3.97264 5.46643C4.28613 5.54934 4.58553 5.51492 4.84383 5.30413C5.05009 5.13597 5.04774 4.88843 4.84618 4.71244C4.70098 4.58574 4.52721 4.52825 4.33701 4.51652C4.05835 4.49892 3.78204 4.47037 3.53469 4.32411C3.21729 4.1364 2.99773 3.87634 3.00713 3.49113C3.01691 3.07973 3.2713 2.8267 3.61806 2.65033C3.67011 2.62413 3.72568 2.60457 3.78087 2.5858C3.92776 2.53575 4.00134 2.43159 4.0016 2.27334C4.0016 2.19121 4.0016 2.10948 4.0016 2.01758H4.50295C4.50295 2.13333 4.50999 2.24909 4.50099 2.36368C4.4916 2.48373 4.52682 2.53536 4.6548 2.57016C5.03443 2.67419 5.33813 2.88341 5.46063 3.28152C5.48842 3.37107 5.49429 3.47392 5.48294 3.56739C5.46807 3.6894 5.37297 3.75158 5.25477 3.75432C5.1354 3.75706 5.03169 3.69331 5.01838 3.57638C4.98394 3.27174 4.79687 3.12118 4.52604 3.0504C4.21255 2.96866 3.91276 3.0019 3.65563 3.21464C3.44977 3.38476 3.44311 3.64756 3.66189 3.80047C3.80318 3.89902 3.98321 3.9655 4.15463 3.99248C4.42898 4.0355 4.7092 4.04254 4.95733 4.18646C5.28099 4.37456 5.50642 4.63814 5.49547 5.02843C5.48373 5.4371 5.2309 5.69403 4.88101 5.86688C4.81135 5.9013 4.73699 5.94001 4.66224 5.94627C4.51743 5.95879 4.48964 6.03387 4.50099 6.16019C4.51078 6.27047 4.50295 6.38192 4.50295 6.50042Z" fill="#410EAD"/>
</svg>
