<svg width="13" height="15" viewBox="0 0 13 15" fill="none" xmlns="http://www.w3.org/2000/svg">
<path d="M3.67295 10.5477C3.72575 9.97117 3.82857 9.87675 4.38384 9.87312C4.45745 9.87272 4.52466 9.88442 4.56146 9.78315C4.77949 9.18116 5.20275 8.75065 5.71721 8.39841C6.11327 8.12727 6.51132 7.85977 6.90137 7.57975C7.06259 7.46396 7.20501 7.32072 7.35583 7.18999C7.34102 7.16942 7.32582 7.14884 7.31102 7.12826C7.27541 7.12423 7.23981 7.11656 7.20421 7.11616C6.81016 7.11535 6.4157 7.11656 6.02125 7.11535C5.80603 7.11454 5.72441 7.03062 5.72321 6.81274C5.72201 6.63763 5.72321 6.46252 5.72321 6.26926C5.41757 6.26926 5.12474 6.27249 4.8319 6.26845C4.0838 6.25877 3.41091 5.77863 3.15248 5.07335C2.85004 4.24864 3.15728 3.33678 3.89978 2.87439C3.98619 2.82073 4.01619 2.76505 4.02459 2.66297C4.11541 1.55139 4.64827 0.724662 5.65681 0.265907C6.65934 -0.190023 7.62146 -0.0508235 8.50277 0.615722C8.57798 0.672613 8.64039 0.69198 8.7324 0.669385C10.093 0.335305 11.4636 1.18906 11.772 2.56371C11.7952 2.66781 11.8408 2.72188 11.9376 2.76666C12.7117 3.12657 13.1394 3.99001 12.959 4.81432C12.7737 5.66202 12.0468 6.25957 11.1871 6.26885C10.9031 6.27208 10.6186 6.26926 10.309 6.26926C10.309 6.45002 10.3098 6.62391 10.309 6.79781C10.3078 7.03788 10.233 7.11495 9.99737 7.11535C9.34368 7.11616 8.69 7.11374 8.03591 7.11898C7.97711 7.11939 7.8907 7.14884 7.86469 7.19322C7.60106 7.64229 7.22421 7.97315 6.80335 8.26163C6.4201 8.5247 6.03045 8.77929 5.65841 9.05729C5.38797 9.25943 5.18874 9.52936 5.05433 9.84851C5.44931 9.94024 5.67774 10.1733 5.73962 10.5477C5.96005 10.5477 6.18367 10.5433 6.4069 10.5485C6.81015 10.5586 7.22021 10.5324 7.61546 10.5958C8.65079 10.7616 9.42449 11.7477 9.40009 12.8161C9.37529 13.9019 8.56518 14.8347 7.51625 14.9715C6.63213 15.0869 5.92524 14.7689 5.38477 14.0568C5.34717 14.0076 5.26555 13.968 5.20355 13.966C4.8695 13.9571 4.53506 13.9648 4.20062 13.96C4.11021 13.9587 4.0598 13.993 4.00579 14.0641C3.43852 14.8129 2.68642 15.1377 1.7711 14.9461C0.83178 14.7496 0.247704 14.1375 0.0464783 13.1917C-0.229958 11.8925 0.762171 10.6123 2.08074 10.555C2.5492 10.5344 3.01886 10.549 3.48772 10.5473C3.54693 10.5473 3.60574 10.5473 3.67255 10.5473L3.67295 10.5477ZM8.01271 5.78589V5.78508C9.07525 5.78508 10.1382 5.79033 11.2007 5.78307C11.8488 5.77863 12.3873 5.30293 12.4957 4.66059C12.6041 4.01906 12.2521 3.38157 11.6444 3.16934C11.4384 3.09752 11.3583 2.98616 11.3231 2.77715C11.1203 1.57156 9.90896 0.813023 8.74961 1.16526C8.56518 1.22134 8.43997 1.19592 8.29115 1.07004C7.54345 0.44021 6.70134 0.304237 5.82123 0.720223C4.94751 1.13338 4.51266 1.86893 4.50226 2.84454C4.50026 3.03215 4.44345 3.13786 4.27383 3.21816C3.76536 3.45944 3.46412 4.00655 3.52253 4.54721C3.60174 5.27711 4.15261 5.78186 4.88471 5.78468C5.92764 5.78831 6.97018 5.78549 8.01311 5.78549L8.01271 5.78589ZM4.69948 11.0359V11.0368C3.83657 11.0368 2.97286 11.0178 2.11075 11.0416C1.05141 11.0711 0.278909 12.1286 0.530541 13.1667C0.706164 13.891 1.24343 14.3788 2.00193 14.5026C2.63561 14.6063 3.3285 14.2686 3.68935 13.669C3.77176 13.5319 3.87257 13.475 4.02979 13.477C4.47385 13.483 4.91791 13.4847 5.36157 13.4762C5.53279 13.473 5.632 13.5428 5.72401 13.6844C6.13487 14.3158 6.71694 14.5974 7.46264 14.4889C8.32355 14.3638 8.96723 13.5641 8.91963 12.6991C8.86962 11.7884 8.16553 11.0618 7.27342 11.0404C6.4157 11.0198 5.55759 11.0359 4.69948 11.0359ZM9.82255 6.28096H6.21008V6.62391H9.82255V6.28096ZM5.23675 10.367H4.17301V10.5377H5.23675V10.367Z" fill="#410EAD"/>
<path d="M6.71875 0.978605C6.90837 0.975377 7.02079 1.0597 7.02679 1.20899C7.03279 1.35787 6.92397 1.4535 6.73715 1.46238C6.03586 1.49627 5.49419 2.04177 5.45538 2.7527C5.44498 2.94596 5.35777 3.04804 5.20655 3.0432C5.05613 3.03836 4.97172 2.92579 4.97572 2.73575C4.99532 1.80574 5.80103 0.993534 6.71835 0.978605H6.71875Z" fill="#410EAD"/>
<path d="M4.70568 12.2209C4.49645 12.2209 4.28762 12.2225 4.07839 12.2205C3.90917 12.2188 3.80916 12.1321 3.80436 11.9885C3.79956 11.8392 3.90357 11.7395 4.07679 11.7383C4.49485 11.7359 4.9129 11.7355 5.33096 11.7383C5.49338 11.7395 5.59939 11.84 5.59979 11.9796C5.59979 12.1208 5.49538 12.218 5.33256 12.2201C5.12373 12.2229 4.9145 12.2209 4.70527 12.2209H4.70568Z" fill="#410EAD"/>
<path d="M4.69711 13.0102C4.5779 13.0102 4.45828 13.0143 4.33947 13.009C4.20505 13.003 4.10864 12.9086 4.10744 12.7831C4.10624 12.6495 4.17705 12.5479 4.30426 12.5406C4.5663 12.5253 4.83033 12.5265 5.09276 12.5386C5.22238 12.5446 5.30799 12.6713 5.29719 12.792C5.28559 12.917 5.19238 13.0046 5.05476 13.0094C4.93554 13.0139 4.81633 13.0102 4.69711 13.0102Z" fill="#410EAD"/>
<path d="M1.21693 12.4585C1.38936 12.4601 1.52977 12.6038 1.52777 12.7761C1.52577 12.9463 1.37775 13.0924 1.21013 13.09C1.04051 13.0875 0.899292 12.9411 0.900892 12.7688C0.902493 12.5945 1.04251 12.4565 1.21693 12.4585Z" fill="#410EAD"/>
<path d="M2.89941 12.7734C2.89941 12.595 3.03263 12.4595 3.20905 12.4595C3.38348 12.4595 3.52229 12.5975 3.52269 12.7726C3.52309 12.9445 3.38028 13.0901 3.21065 13.0909C3.04103 13.0917 2.90021 12.9481 2.89981 12.7738L2.89941 12.7734Z" fill="#410EAD"/>
<path d="M6.19375 12.459C6.36937 12.459 6.50459 12.5962 6.50419 12.7729C6.50419 12.9464 6.36217 13.0908 6.19295 13.0904C6.02573 13.09 5.87891 12.9411 5.87891 12.7725C5.87891 12.6014 6.02213 12.459 6.19415 12.459H6.19375Z" fill="#410EAD"/>
<path d="M7.87747 12.7677C7.87987 12.5922 8.01949 12.4562 8.19431 12.459C8.36554 12.4614 8.50715 12.6075 8.50395 12.7782C8.50075 12.9476 8.35153 13.0937 8.18431 13.0905C8.01429 13.0872 7.87507 12.9408 7.87747 12.7677Z" fill="#410EAD"/>
<path d="M6.88088 13.775C6.88288 13.6003 7.0245 13.4595 7.19532 13.4619C7.36615 13.4644 7.50576 13.61 7.50336 13.7831C7.50136 13.9582 7.36134 14.0958 7.18732 14.0938C7.0129 14.0918 6.87888 13.9526 6.88088 13.775Z" fill="#410EAD"/>
<path d="M2.52179 13.7754C2.52339 13.9522 2.38858 14.0922 2.21495 14.0942C2.04333 14.0962 1.89931 13.9554 1.89651 13.7831C1.89411 13.6141 2.03893 13.4644 2.20695 13.4619C2.37738 13.4595 2.52019 13.602 2.52179 13.7754Z" fill="#410EAD"/>
<path d="M2.21618 12.0786C2.04336 12.081 1.89974 11.9427 1.89654 11.7708C1.89334 11.5997 2.03456 11.4536 2.20578 11.4512C2.381 11.4484 2.51902 11.584 2.52102 11.7607C2.52342 11.9394 2.3918 12.0762 2.21578 12.079L2.21618 12.0786Z" fill="#410EAD"/>
<path d="M7.1982 12.079C7.02098 12.0826 6.88296 11.9474 6.88136 11.7691C6.87976 11.596 7.00738 11.4596 7.177 11.452C7.35222 11.4443 7.49704 11.5791 7.50304 11.755C7.50904 11.9309 7.37343 12.0753 7.1982 12.079Z" fill="#410EAD"/>
</svg>
