<svg width="15" height="15" viewBox="0 0 15 15" fill="none" xmlns="http://www.w3.org/2000/svg">
<path d="M9.26089 11.9988C9.89745 11.9988 10.5223 11.9988 11.1468 11.9988C11.4244 11.9988 11.4995 12.0736 11.4999 12.3491C11.4999 12.573 11.4999 12.7968 11.4999 13.0198C11.578 13.0544 11.6514 13.082 11.7199 13.1183C12.1315 13.3371 12.3339 13.8052 12.2154 14.2595C12.101 14.6976 11.6894 15.007 11.2303 14.9999C10.7682 14.9924 10.3729 14.6642 10.274 14.2052C10.1771 13.7559 10.3942 13.2891 10.8174 13.1062C10.9719 13.0394 11.0182 12.9617 11.0019 12.8097C10.9915 12.7129 10.9999 12.6143 10.9999 12.4991H10.8208C10.2376 12.4991 9.6541 12.4995 9.07096 12.4991C8.83595 12.4991 8.7508 12.4139 8.75038 12.1792C8.74955 11.4601 8.75038 10.7415 8.75038 10.0103H7.76068V12.5187C8.35759 12.725 8.5926 13.2682 8.46654 13.7564C8.35216 14.2002 7.93391 14.5122 7.46807 14.4996C7.0014 14.4871 6.61278 14.1514 6.51802 13.6783C6.41993 13.188 6.67706 12.7734 7.24183 12.5229V10.0078H6.25046C6.25046 10.068 6.25046 10.1235 6.25046 10.1795C6.25046 10.8463 6.25087 11.5136 6.25046 12.1805C6.25046 12.4135 6.16363 12.4986 5.92821 12.4991C5.29331 12.4999 4.65842 12.4991 4.00098 12.4991C4.00098 12.6602 3.99389 12.8147 4.00641 12.9676C4.00933 13.0039 4.07278 13.0477 4.11744 13.0665C4.53194 13.2411 4.78406 13.644 4.74775 14.0842C4.71185 14.5213 4.39127 14.8817 3.95382 14.9765C3.46043 15.0834 2.96578 14.7994 2.80424 14.3167C2.6427 13.8344 2.86393 13.3146 3.32435 13.0962C3.38028 13.0695 3.4383 13.0473 3.50092 13.0206C3.50092 12.7843 3.50008 12.55 3.50092 12.3157C3.50217 12.0832 3.58732 11.9988 3.824 11.9988C4.45889 11.998 5.09379 11.9988 5.73954 11.9988V10.0066H5.2595C5.25658 10.0458 5.25116 10.0901 5.25074 10.1348C5.2499 10.4684 5.25074 10.8016 5.25032 11.1353C5.25032 11.4247 5.17811 11.4981 4.89384 11.4981C3.97176 11.4981 3.0501 11.5006 2.12802 11.4948C2.01031 11.494 1.9598 11.5286 1.91514 11.6376C1.73523 12.0777 1.26689 12.3224 0.810647 12.2281C0.327275 12.1278 -0.00332079 11.7236 0.000435986 11.2376C0.00419276 10.7616 0.337711 10.3644 0.815239 10.2667C1.27023 10.1736 1.73398 10.4229 1.92057 10.8605C1.93893 10.9035 1.95605 10.9465 1.97483 10.9929H4.73773V10.0137C4.64882 9.98905 4.55072 9.97443 4.46307 9.93602C4.16837 9.80657 4.01142 9.57524 4.00182 9.25329C3.99472 9.00901 4.00057 8.76432 4.00057 8.49665C3.93336 8.49665 3.87325 8.49874 3.81315 8.49665C3.35106 8.47828 2.88021 8.50835 2.42815 8.43068C1.02562 8.18974 0.00461009 6.93787 1.84777e-05 5.50978C-0.00499056 4.07042 1.00892 2.82314 2.41396 2.55715C2.66232 2.50996 2.92028 2.5062 3.17449 2.50203C3.27885 2.50036 3.32769 2.47029 3.3807 2.38386C4.38459 0.744478 5.85307 -0.0718702 7.7707 0.00496255C9.76638 0.0851359 11.4816 1.47021 12.0563 3.39396C12.068 3.43362 12.0801 3.47329 12.0814 3.47872C12.4191 3.50628 12.7447 3.49877 13.0552 3.56391C14.2269 3.80819 15.0476 4.90055 14.9971 6.11359C14.947 7.307 14.0228 8.32044 12.8403 8.46868C12.6245 8.49582 12.4041 8.49415 12.1857 8.49665C11.7963 8.50083 11.4068 8.49791 11.0003 8.49791C11.0003 8.72256 11.0003 8.93468 11.0003 9.14639C11.0003 9.65541 10.7682 9.92599 10.2502 10.0083V10.9912H13.0218C13.2961 10.4024 13.7039 10.159 14.2173 10.2747C14.6807 10.3791 15.0025 10.7828 15 11.2564C14.9975 11.727 14.6702 12.1249 14.2027 12.2264C13.6972 12.3358 13.2898 12.0886 13.0181 11.4994H12.8545C11.9324 11.4994 11.0107 11.4994 10.0886 11.4994C9.83108 11.4994 9.7501 11.4196 9.74968 11.1662C9.74885 10.782 9.74968 10.3978 9.74968 10.0062H9.26089V11.9996V11.9988ZM10.8279 7.72791C10.8838 7.98513 11.0525 8.02689 11.2628 7.99766C11.3087 7.9914 11.3563 7.99766 11.4035 7.99641C11.8718 7.98764 12.3448 8.01979 12.8069 7.96175C13.923 7.82144 14.6773 6.72741 14.4636 5.61208C14.2536 4.51638 13.1596 3.79691 12.0743 4.03994C11.7838 4.10508 11.7049 4.05539 11.6339 3.76309C11.2127 2.03184 9.76805 0.727775 8.04912 0.526507C6.23209 0.313964 4.54864 1.19963 3.71756 2.8056C3.60903 3.01522 3.55142 3.03568 3.32184 3.02148C3.09978 3.0077 2.87353 2.99685 2.65397 3.02399C1.48061 3.16889 0.548508 4.19026 0.502174 5.36655C0.453753 6.59504 1.26981 7.69576 2.44944 7.92375C2.87854 8.00685 3.33061 7.96258 3.77015 8.00183C3.99764 8.02188 4.11494 7.93461 4.17588 7.73292C3.92126 7.35878 3.92209 6.21923 4.17964 5.73151C4.0398 5.56532 3.99389 5.36864 3.99848 5.15234C4.00474 4.86046 3.99848 4.56858 4.00057 4.2767C4.00349 3.81737 4.31906 3.49501 4.77446 3.49459C6.59232 3.49292 8.40977 3.49292 10.2276 3.49459C10.6759 3.49501 10.9948 3.81528 10.9999 4.2625C11.0028 4.51764 10.9957 4.77319 11.0019 5.02832C11.0082 5.28763 10.9974 5.53984 10.8145 5.73944C11.0808 6.14449 11.0808 7.3546 10.8287 7.72791H10.8279ZM7.49979 3.994C6.60401 3.994 5.70823 3.99359 4.81245 3.994C4.58788 3.994 4.50105 4.08169 4.50022 4.30635C4.49897 4.60324 4.49855 4.90055 4.50022 5.19744C4.50147 5.40163 4.59247 5.49391 4.79659 5.49391C6.59859 5.49475 8.40059 5.49475 10.2026 5.49391C10.4067 5.49391 10.4977 5.40121 10.4994 5.19744C10.5015 4.91099 10.5002 4.62412 10.4998 4.33766C10.4994 4.07167 10.4217 3.994 10.1558 3.994C9.27049 3.994 8.38514 3.994 7.49979 3.994ZM7.50146 5.995C6.60568 5.995 5.7099 5.99458 4.81412 5.995C4.58829 5.995 4.50105 6.08185 4.50022 6.30525C4.49897 6.60214 4.49855 6.89945 4.50022 7.19634C4.50147 7.40179 4.59163 7.49449 4.79492 7.49491C6.59692 7.49616 8.39892 7.49574 10.2009 7.49491C10.4059 7.49491 10.4977 7.40304 10.4994 7.2001C10.5019 6.91365 10.5002 6.62678 10.4998 6.34033C10.4998 6.07308 10.4221 5.995 10.1575 5.99458C9.27216 5.99458 8.38681 5.99458 7.50146 5.99458V5.995ZM7.49979 9.49715C8.39558 9.49715 9.29136 9.49757 10.1871 9.49715C10.4109 9.49715 10.4981 9.40863 10.4994 9.18439C10.5006 8.8875 10.5015 8.59019 10.4994 8.2933C10.4977 8.08911 10.4067 7.99724 10.2026 7.99724C8.40059 7.99641 6.59859 7.99641 4.79659 7.99724C4.59205 7.99724 4.50189 8.08911 4.50064 8.29372C4.49855 8.58017 4.4998 8.86704 4.50022 9.15349C4.50022 9.41948 4.57828 9.49715 4.84417 9.49715C5.72952 9.49715 6.61486 9.49715 7.50021 9.49715H7.49979ZM1.006 11.7478C1.27607 11.7449 1.50064 11.5157 1.49855 11.2455C1.49647 10.9724 1.27315 10.7499 1.00016 10.749C0.722154 10.7482 0.494243 10.9804 0.500087 11.2589C0.505514 11.5311 0.73259 11.7508 1.006 11.7478ZM14.4991 11.253C14.5008 10.9795 14.2812 10.754 14.0082 10.749C13.7298 10.744 13.4989 10.9724 13.5006 11.2514C13.5023 11.5236 13.726 11.7466 13.999 11.7478C14.2691 11.7491 14.4974 11.5232 14.4991 11.253ZM7.50105 13.999C7.77362 13.9981 7.99694 13.7751 7.99903 13.5021C8.00111 13.2315 7.77613 13.0022 7.50606 13.0001C7.2268 12.9976 6.99764 13.2265 7.00056 13.505C7.00348 13.7777 7.22847 13.9998 7.50105 13.999ZM3.74886 13.5004C3.47545 13.5016 3.25213 13.7242 3.25046 13.9969C3.24879 14.2758 3.47921 14.5038 3.75805 14.4992C4.0302 14.4946 4.2506 14.2687 4.24893 13.9952C4.24726 13.725 4.01852 13.4991 3.74886 13.5004ZM11.7495 13.9965C11.7487 13.7263 11.5208 13.4996 11.2507 13.5004C10.9773 13.5012 10.7536 13.7225 10.7511 13.9956C10.7486 14.2746 10.9786 14.5034 11.2574 14.4992C11.53 14.4955 11.7504 14.27 11.7495 13.9965Z" fill="#410EAD"/>
<path d="M5.00684 4.98432V4.50244H7.98721V4.98432H5.00684Z" fill="#410EAD"/>
<path d="M8.99411 4.50684V4.98495H8.50781V4.50684H8.99411Z" fill="#410EAD"/>
<path d="M9.99383 4.50195V4.98466H9.50879V4.50195H9.99383Z" fill="#410EAD"/>
<path d="M7.99258 6.50684V6.98788H5.01221V6.50684H7.99258Z" fill="#410EAD"/>
<path d="M8.99307 6.50684V6.98746H8.51221V6.50684H8.99307Z" fill="#410EAD"/>
<path d="M9.51074 6.50244H9.99119V6.98348H9.51074V6.50244Z" fill="#410EAD"/>
<path d="M5.00684 8.98676V8.50488H7.98721V8.98676H5.00684Z" fill="#410EAD"/>
<path d="M8.50684 8.98551V8.50488H8.9877V8.98551H8.50684Z" fill="#410EAD"/>
<path d="M9.99669 8.50684V8.98412H9.51123V8.50684H9.99669Z" fill="#410EAD"/>
</svg>
