<svg width="15" height="15" viewBox="0 0 15 15" fill="none" xmlns="http://www.w3.org/2000/svg">
<path d="M7.50624 0.00147958C8.7411 0.00147958 9.97553 -0.00236082 11.2104 0.00233282C12.895 0.00915994 14.3359 1.04987 14.8138 2.63419C14.9273 3.01053 14.9866 3.41717 14.9892 3.81059C15.0046 6.2692 15.0003 8.72782 14.996 11.1864C14.993 13.049 13.7599 14.565 11.9567 14.9226C11.7028 14.9729 11.4391 14.9934 11.1797 14.9938C8.72617 14.999 6.2731 14.999 3.8196 14.9964C1.95622 14.9943 0.441882 13.7688 0.0774847 11.9643C0.0262813 11.7104 0.00537332 11.4467 0.00451993 11.1877C-0.000600407 8.7291 -0.0014536 6.27048 0.00238665 3.81144C0.00537352 1.95446 1.22145 0.451643 3.02637 0.0799913C3.29007 0.025801 3.56486 0.00659967 3.83453 0.00489289C5.05872 -0.00278762 6.28248 0.00147958 7.50667 0.00147958H7.50624ZM7.50411 0.688032C6.28504 0.688032 5.0664 0.687605 3.84734 0.688885C3.6933 0.688885 3.53713 0.686752 3.38522 0.708086C1.78938 0.929968 0.691072 2.18701 0.688939 3.80163C0.685525 6.26622 0.686378 8.73038 0.690219 11.195C0.690219 11.4117 0.703873 11.6332 0.747396 11.8448C1.04651 13.2947 2.25192 14.3 3.73298 14.3069C6.24536 14.3188 8.75774 14.3111 11.2701 14.3077C11.4604 14.3077 11.6546 14.2911 11.8406 14.2527C13.3204 13.9463 14.3069 12.723 14.309 11.1894C14.3125 8.73038 14.3112 6.27134 14.3078 3.81229C14.3078 3.5951 14.2954 3.37408 14.2519 3.16201C13.9523 1.6929 12.7328 0.697419 11.2245 0.690165C9.98449 0.684192 8.74409 0.688885 7.50368 0.688885L7.50411 0.688032Z" fill="#410EAD"/>
<path d="M12.332 8.82718C12.3158 9.1408 12.2966 9.454 12.285 9.76762C12.2786 9.94726 12.2121 10.094 12.0909 10.225C11.6138 10.7401 11.0207 11.0409 10.3385 11.1685C10.0991 11.2133 9.85288 11.2188 9.60966 11.2427C9.46672 11.2568 9.35322 11.2052 9.2538 11.1015C9.06179 10.9022 8.86679 10.7055 8.66496 10.516C8.62443 10.4776 8.54421 10.4495 8.4913 10.4606C7.83035 10.5984 7.17153 10.5984 6.511 10.4619C6.45767 10.4508 6.3766 10.4755 6.33649 10.5131C6.13125 10.7063 5.94094 10.9159 5.73229 11.1053C5.65932 11.1719 5.55051 11.235 5.45664 11.2367C4.65147 11.2517 3.91329 11.0413 3.26044 10.5544C2.90031 10.2861 2.70574 9.96646 2.68611 9.486C2.62637 8.02628 2.78681 6.60752 3.32231 5.24294C3.44819 4.9225 3.60692 4.61357 3.77589 4.31318C3.83136 4.21461 3.95467 4.12415 4.06519 4.09172C4.8294 3.866 5.61153 3.75634 6.40945 3.7525C6.61213 3.75165 6.76275 3.82162 6.81908 4.01065C6.92575 4.36865 7.14763 4.45399 7.5116 4.44887C7.85211 4.44375 8.07015 4.37761 8.17213 4.03497C8.23699 3.81778 8.40254 3.74866 8.63083 3.75207C9.40698 3.76359 10.1665 3.87283 10.9141 4.07935C11.0634 4.12074 11.1667 4.19882 11.2426 4.33238C11.7124 5.15462 12.0056 6.04086 12.1553 6.97021C12.2539 7.58294 12.2957 8.20464 12.3631 8.82249C12.3525 8.8242 12.3418 8.8259 12.3316 8.82761L12.332 8.82718ZM9.33146 10.225C9.40869 10.2984 9.49019 10.3599 9.55121 10.4375C9.64124 10.5515 9.74962 10.5754 9.88701 10.563C10.5083 10.5071 11.0498 10.2771 11.4978 9.83973C11.543 9.79578 11.584 9.72794 11.5904 9.66735C11.7781 7.96185 11.4773 6.34211 10.7191 4.80644C10.6939 4.75523 10.6214 4.70446 10.5642 4.69507C10.0035 4.60461 9.44112 4.52226 8.87916 4.44076C8.82753 4.43308 8.77291 4.44545 8.72 4.44844L8.7183 4.49154C8.7934 4.50263 8.8702 4.50818 8.94402 4.5261C9.27385 4.60546 9.60625 4.67715 9.93096 4.77358C10.1588 4.841 10.2467 5.02149 10.1814 5.21436C10.1157 5.40808 9.92712 5.47208 9.69458 5.40765C9.40869 5.32786 9.12024 5.24593 8.8271 5.20497C7.62254 5.03642 6.42908 5.09189 5.25439 5.4277C5.02909 5.49213 4.84604 5.40338 4.79014 5.21521C4.73041 5.01424 4.83537 4.83161 5.0675 4.77486C5.4336 4.68525 5.80354 4.61186 6.17178 4.53079C6.21146 4.52226 6.25029 4.50946 6.28955 4.49879C6.28784 4.48257 6.28614 4.46636 6.284 4.45015C6.24091 4.44588 6.19653 4.43222 6.15514 4.4382C5.5774 4.52311 4.99965 4.60802 4.42319 4.70147C4.37198 4.70958 4.31054 4.76419 4.28622 4.81369C3.52841 6.34339 3.2246 7.95715 3.4068 9.65753C3.41277 9.71514 3.44136 9.78213 3.4819 9.82224C3.96065 10.2954 4.5401 10.5404 5.21214 10.5643C5.25652 10.566 5.31327 10.5587 5.34399 10.5327C5.45621 10.4375 5.5599 10.3321 5.68322 10.2156C5.60897 10.1819 5.56588 10.1653 5.52577 10.144C5.3329 10.0428 5.13577 9.94854 4.94973 9.83632C4.79996 9.74586 4.76241 9.55128 4.84476 9.40023C4.92797 9.24705 5.10334 9.18347 5.2689 9.25046C5.32266 9.27223 5.37301 9.30337 5.42464 9.33111C6.16282 9.72623 6.94453 9.93019 7.78597 9.86875C8.46015 9.81968 9.08568 9.61273 9.67324 9.28161C9.86568 9.17323 10.0594 9.22913 10.1546 9.40322C10.2454 9.56963 10.1921 9.76164 10.0103 9.86576C9.79869 9.98737 9.57979 10.0962 9.33231 10.2272L9.33146 10.225Z" fill="#410EAD"/>
<path d="M7.84279 7.84664C7.8398 7.27572 8.29039 6.82086 8.85875 6.82129C9.42796 6.82172 9.88367 7.27487 9.88495 7.84152C9.88623 8.39366 9.42711 8.85705 8.87198 8.86388C8.30831 8.8707 7.84578 8.41371 7.84279 7.84706V7.84664ZM9.19754 7.8428C9.19925 7.65718 9.05631 7.50613 8.8724 7.50016C8.68508 7.49376 8.52337 7.64822 8.52123 7.83597C8.5191 8.01945 8.66546 8.17135 8.84936 8.17605C9.04564 8.18117 9.19541 8.0378 9.19754 7.84322V7.8428Z" fill="#410EAD"/>
<path d="M7.15408 7.8381C7.15622 8.40433 6.69539 8.86772 6.13343 8.86345C5.57531 8.85919 5.12046 8.40774 5.11192 7.84962C5.10381 7.28767 5.56422 6.82214 6.12916 6.82129C6.70221 6.82044 7.15152 7.26633 7.15366 7.8381H7.15408ZM6.13428 8.17605C6.32587 8.17605 6.47905 8.02244 6.47564 7.83298C6.47223 7.65207 6.31904 7.50102 6.13727 7.49974C5.94739 7.49845 5.79634 7.65335 5.79933 7.84578C5.80231 8.03396 5.94568 8.17562 6.13428 8.17605Z" fill="#410EAD"/>
</svg>
