<svg width="15" height="19" viewBox="0 0 15 19" fill="none" xmlns="http://www.w3.org/2000/svg">
<path d="M3.13204 16.0804C2.31552 16.2449 1.51904 16.4059 0.722045 16.5658C0.615676 16.5874 0.508793 16.6172 0.400882 16.6223C0.186089 16.6331 0.0596798 16.4434 0.143439 16.2449C0.170673 16.1802 0.208699 16.12 0.244155 16.0593C0.849482 15.0105 1.45481 13.9617 2.06013 12.9129C2.08891 12.863 2.11563 12.8121 2.14287 12.7627C-1.00555 9.57618 -0.505565 4.59375 2.47482 1.93159C5.42591 -0.704344 9.79063 -0.606659 12.6076 2.00563C15.5757 4.75776 15.921 9.60754 12.8584 12.7612C13.1405 13.2517 13.4241 13.7452 13.7088 14.2383C14.0993 14.9154 14.4904 15.5925 14.8825 16.2686C14.9524 16.3894 15.0135 16.5097 14.9225 16.6439C14.8259 16.7863 14.6877 16.7704 14.5428 16.7406C13.7525 16.5786 12.9617 16.4192 12.1708 16.2599C12.103 16.246 12.0336 16.2377 11.9504 16.2244C11.7613 16.7853 11.5753 17.3359 11.3898 17.8871C11.2937 18.1724 11.1976 18.4572 11.1041 18.7436C11.0599 18.8799 10.989 19.0202 10.8369 18.9976C10.731 18.9822 10.6025 18.8896 10.547 18.7945C9.8374 17.5842 9.13598 16.3688 8.44073 15.1498C8.36005 15.0085 8.27886 14.9596 8.1134 14.9663C7.6982 14.9833 7.28146 14.9792 6.86626 14.9663C6.72598 14.9617 6.65095 14.9972 6.58004 15.1216C5.91613 16.2845 5.24503 17.4434 4.57496 18.6027C4.53385 18.6742 4.49223 18.7513 4.4316 18.8048C4.28155 18.9379 4.07292 18.8629 3.9979 18.6464C3.81599 18.12 3.64077 17.5909 3.46246 17.0634C3.35403 16.7426 3.24612 16.4218 3.13102 16.0804H3.13204ZM14.4647 7.50784C14.4714 3.67295 11.3492 0.541904 7.51064 0.535221C3.67776 0.528023 0.546305 3.6529 0.539624 7.49087C0.533458 11.3242 3.65824 14.4583 7.49317 14.465C11.3245 14.4722 14.4575 11.3453 14.4642 7.50784H14.4647ZM8.89857 14.8727C9.52034 15.9498 10.1267 17.0002 10.7495 18.0799C10.7906 17.9683 10.8204 17.8927 10.8461 17.8161C11.063 17.1735 11.2783 16.5298 11.4961 15.8876C11.5706 15.6676 11.6601 15.6136 11.8856 15.6573C12.4386 15.7653 12.9904 15.8784 13.5428 15.9884C13.7376 16.0275 13.9329 16.064 14.1677 16.1092C13.5809 15.0928 13.0192 14.1206 12.4499 13.1345C11.4149 14.0296 10.25 14.6023 8.89857 14.8727ZM2.55395 13.1345C2.00721 14.082 1.46971 15.0136 0.912686 15.9786C1.68861 15.8213 2.42189 15.6727 3.15465 15.5241C3.42238 15.4696 3.51179 15.519 3.60017 15.7817C3.80058 16.376 3.99893 16.9709 4.1983 17.5652C4.23736 17.6809 4.27949 17.7956 4.33191 17.9457C4.93261 16.9041 5.51327 15.8979 6.10472 14.8727C4.75379 14.6033 3.58476 14.026 2.55344 13.135L2.55395 13.1345Z" fill="#410EAD"/>
<path d="M1.92871 7.50168C1.92614 4.43747 4.42761 1.92955 7.49381 1.92286C10.5626 1.91618 13.08 4.43284 13.0759 7.50425C13.0718 10.569 10.5631 13.0759 7.501 13.0743C4.43737 13.0728 1.9318 10.5669 1.92871 7.50168ZM2.46724 7.49088C2.46158 10.2564 4.72 12.5247 7.4897 12.5355C10.2512 12.5463 12.5245 10.2852 12.5368 7.51504C12.5492 4.74286 10.2794 2.46321 7.5046 2.46167C4.73798 2.46013 2.47289 4.72127 2.46724 7.49088Z" fill="#410EAD"/>
<path d="M7.48065 4.03125C7.66205 4.03125 7.72988 4.13716 7.7828 4.27238C8.02946 4.90424 8.2833 5.53353 8.52636 6.16694C8.57415 6.29085 8.63221 6.34277 8.77147 6.34946C9.44976 6.38082 10.1275 6.42658 10.8058 6.46565C10.942 6.47336 11.0638 6.50575 11.1157 6.64714C11.1702 6.79623 11.1008 6.90369 10.9867 6.99726C10.4564 7.4317 9.93074 7.87231 9.39581 8.30212C9.29355 8.38438 9.27557 8.4543 9.30845 8.57615C9.48368 9.23166 9.6476 9.89026 9.82128 10.5463C9.85828 10.6866 9.87164 10.8147 9.74472 10.9123C9.60803 11.0177 9.48162 10.9581 9.35624 10.8779C8.78483 10.5113 8.21033 10.1494 7.64149 9.7787C7.54129 9.7134 7.47089 9.71083 7.36966 9.77664C6.8003 10.1468 6.22581 10.5082 5.6544 10.8753C5.52953 10.9555 5.40415 11.0188 5.26541 10.9165C5.12769 10.8152 5.14876 10.6795 5.1873 10.534C5.36047 9.87792 5.52388 9.21932 5.69962 8.56381C5.73096 8.44607 5.70784 8.38284 5.61432 8.30675C5.09069 7.88413 4.57478 7.45175 4.05373 7.02554C3.93348 6.92682 3.82763 6.82503 3.88724 6.65331C3.94684 6.48107 4.09792 6.47182 4.25002 6.46308C4.92832 6.42503 5.6061 6.38031 6.28439 6.34637C6.39949 6.34072 6.43289 6.28056 6.46784 6.19111C6.71911 5.5469 6.97502 4.90475 7.22681 4.26107C7.27717 4.13202 7.34654 4.03485 7.48065 4.03125ZM5.85686 10.1052C6.36763 9.77973 6.82805 9.49078 7.28333 9.19362C7.438 9.09233 7.57366 9.09336 7.72628 9.19567C7.99246 9.37408 8.2648 9.5422 8.53509 9.71392C8.72522 9.83474 8.91638 9.95504 9.13682 10.0944C9.11935 10.0039 9.11164 9.95401 9.09931 9.90569C8.97701 9.42806 8.86088 8.94889 8.72676 8.47487C8.67332 8.28515 8.72265 8.15816 8.86962 8.0394C9.25861 7.72578 9.64143 7.40394 10.0289 7.08775C10.0659 7.05741 10.1162 7.04405 10.1604 7.02245L10.1126 6.96693C9.57001 6.93402 9.02686 6.897 8.48371 6.86976C8.29255 6.85999 8.18156 6.77516 8.11527 6.5947C7.97602 6.2163 7.82237 5.84355 7.67438 5.46824C7.62402 5.34074 7.57315 5.21323 7.50738 5.04768C7.46678 5.13868 7.44263 5.18804 7.42207 5.23894C7.24531 5.6852 7.06135 6.1289 6.8964 6.57927C6.82394 6.77618 6.70575 6.86513 6.4997 6.87181C6.1734 6.88261 5.8471 6.90574 5.52079 6.92631C5.30857 6.93968 5.09635 6.95664 4.84404 6.97515C5.22995 7.29391 5.56344 7.60702 5.93548 7.86511C6.27514 8.10058 6.35376 8.35096 6.21605 8.74067C6.06549 9.16585 5.98275 9.6152 5.85737 10.1052H5.85686Z" fill="#410EAD"/>
</svg>
