<svg width="15" height="12" viewBox="0 0 15 12" fill="none" xmlns="http://www.w3.org/2000/svg">
<path d="M0.000782654 0.79763C0.0105656 0.772263 0.0230878 0.747632 0.0301315 0.72153C0.151831 0.288091 0.536888 0.00133754 1.01508 0.00096991C5.01396 -0.000132988 9.01284 -0.00050062 13.0113 0.00096991C13.601 0.00096991 14.0252 0.418601 14.0268 0.993578C14.0295 1.98913 14.0276 2.98468 14.0276 3.97986C14.0276 4.59454 14.0276 5.20922 14.0276 5.82427C14.0276 5.87427 14.0276 5.9239 14.0276 5.99301C14.1598 5.99301 14.2804 5.99154 14.4005 5.99301C14.7597 5.99816 14.9984 6.21837 14.9988 6.55549C15.0004 8.17969 15.0004 9.80353 14.9988 11.4277C14.9988 11.7693 14.7546 11.9987 14.3923 11.999C12.9225 12.0005 11.4531 12.0001 9.9833 11.999C9.61742 11.999 9.37715 11.7729 9.37402 11.4318C9.37207 11.2116 9.37911 10.991 9.36933 10.7711C9.36698 10.7189 9.31376 10.6686 9.28245 10.6178C9.27815 10.6108 9.26602 10.6079 9.25898 10.602C8.93222 10.3344 8.55538 10.2756 8.12533 10.2789C5.83064 10.2958 3.53595 10.287 1.24087 10.287C0.509496 10.287 0.2614 10.1289 0 9.49545C0 6.59593 0 3.69641 0 0.796527L0.000782654 0.79763ZM11.8961 5.97868C11.8961 5.264 11.8961 4.57175 11.8961 3.87986C11.8961 3.67766 11.8804 3.66296 11.6609 3.66296C8.56086 3.66296 5.46084 3.66296 2.36082 3.66296C2.14834 3.66296 2.13347 3.67619 2.13347 3.87288C2.13347 5.17577 2.13347 6.47829 2.13347 7.78118C2.13347 7.98742 2.14755 8.00103 2.36513 8.00103C4.64494 8.00103 6.92476 8.00103 9.20458 8.00103C9.25663 8.00103 9.30867 7.99661 9.37089 7.99367C9.37089 7.93007 9.37089 7.88007 9.37089 7.83044C9.37089 7.422 9.3842 7.01356 9.36737 6.60586C9.34937 6.17867 9.68081 5.97096 10.0365 5.97721C10.5002 5.98566 10.9639 5.97941 11.4277 5.97941C11.5779 5.97941 11.7282 5.97941 11.8957 5.97941L11.8961 5.97868ZM9.3568 8.33116H9.16858C6.88876 8.33116 4.60933 8.33116 2.32952 8.33116C1.95972 8.33116 1.78206 8.16389 1.78167 7.81684C1.78128 6.49116 1.78089 5.16584 1.78167 3.84016C1.78167 3.5012 1.96168 3.33282 2.32169 3.33282C5.45067 3.33282 8.58004 3.33282 11.709 3.33282C12.0632 3.33282 12.2471 3.50745 12.2471 3.84347C12.2475 4.5041 12.2471 5.16437 12.2471 5.82501V5.9739H13.6636V2.75417H0.352969C0.352969 2.8049 0.352969 2.84571 0.352969 2.88615C0.352969 5.01916 0.352969 7.15179 0.352969 9.2848C0.352969 9.70684 0.621413 9.95757 1.07612 9.95757C3.39468 9.9583 5.71363 9.95793 8.03219 9.95757C8.06663 9.95757 8.10107 9.95132 8.16642 9.94507C8.0498 9.87338 7.96058 9.81897 7.87214 9.76382C7.67257 9.63919 7.67375 9.52266 7.87723 9.3984C8.33899 9.11642 8.79996 8.83298 9.26445 8.55468C9.34937 8.50395 9.39711 8.45027 9.35641 8.33153L9.3568 8.33116ZM8.24546 9.58111C8.28498 9.60684 8.30768 9.62228 8.33116 9.63662C8.74283 9.89029 9.15254 10.1473 9.56773 10.3954C9.68512 10.4656 9.73247 10.5484 9.72816 10.6774C9.71995 10.9112 9.72543 11.145 9.72582 11.3788C9.72621 11.6068 9.7943 11.6696 10.0416 11.6696C11.4719 11.6696 12.9018 11.6696 14.332 11.6696C14.5809 11.6696 14.6482 11.6046 14.6486 11.3641C14.6486 9.78662 14.6486 8.20874 14.6486 6.63123C14.6486 6.38124 14.5879 6.32315 14.3226 6.32352C12.8928 6.32536 11.4625 6.32756 10.0326 6.32977C9.7986 6.32977 9.72777 6.39557 9.72777 6.61431C9.72777 7.24738 9.72543 7.88007 9.72973 8.51314C9.73051 8.62674 9.69138 8.70026 9.58846 8.76129C9.20576 8.98885 8.82696 9.22303 8.44699 9.45501C8.38321 9.49398 8.3202 9.53405 8.24546 9.58074V9.58111ZM0.355317 2.40271H13.6766C13.6766 2.34389 13.6766 2.29463 13.6766 2.245C13.6766 1.84575 13.6766 1.44687 13.6766 1.04762C13.6766 0.566021 13.4253 0.330369 12.9123 0.330369C8.98192 0.330369 5.05192 0.330369 1.12152 0.330369C1.0726 0.330369 1.02369 0.328898 0.975164 0.331104C0.649979 0.346545 0.367448 0.585506 0.358839 0.889906C0.34436 1.38915 0.354926 1.88913 0.354926 2.40235L0.355317 2.40271Z" fill="#410EAD"/>
<path d="M5.39034 5.83483C5.39034 5.48154 5.38878 5.12861 5.39034 4.77532C5.39308 4.27975 5.88419 4.00623 6.34164 4.25034C6.99866 4.60106 7.65334 4.95582 8.30488 5.31537C8.75333 5.56315 8.75646 6.09769 8.30958 6.34511C7.65451 6.70796 6.99631 7.06603 6.33381 7.41712C5.88301 7.65608 5.39347 7.38036 5.39074 6.89398C5.38878 6.54106 5.39034 6.18776 5.39034 5.83447V5.83483ZM6.03758 4.48783C5.84466 4.49261 5.74253 4.60326 5.74253 4.77862C5.74136 5.48007 5.74097 6.18151 5.74253 6.88332C5.74292 7.13515 5.94641 7.24691 6.18002 7.12118C6.82726 6.77303 7.47294 6.42268 8.11783 6.07049C8.34793 5.94476 8.34832 5.7205 8.11783 5.5944C7.47333 5.24184 6.82687 4.89259 6.18002 4.54371C6.12641 4.51503 6.06537 4.49849 6.03798 4.48819L6.03758 4.48783Z" fill="#410EAD"/>
<path d="M4.82275 9.30561C4.70966 9.55523 4.52965 9.71331 4.23538 9.71883C3.92742 9.72434 3.7388 9.56295 3.62062 9.30561C3.47857 9.30561 3.33731 9.30561 3.19604 9.30561C3.07943 9.30561 3.00547 9.2512 3.00586 9.14165C3.00586 9.03172 3.08412 8.97842 3.19761 8.97621C3.33887 8.97364 3.48014 8.97547 3.62101 8.97547C3.64136 8.93724 3.65741 8.90379 3.67658 8.87217C3.79711 8.67218 3.97985 8.56226 4.22443 8.56299C4.469 8.56373 4.65644 8.67255 4.76757 8.87658C4.80905 8.95305 4.85249 8.97768 4.94328 8.97731C5.71378 8.97327 6.48429 8.97474 7.25518 8.97547C7.30371 8.97547 7.36867 8.96224 7.39762 8.98614C7.45319 9.03172 7.52089 9.09937 7.52167 9.15819C7.52206 9.20635 7.43793 9.26333 7.37962 9.30046C7.3491 9.31995 7.29431 9.30561 7.25049 9.30561C6.44594 9.30561 5.64139 9.30561 4.82314 9.30561H4.82275ZM4.22325 8.89276C4.0769 8.89202 3.95363 9.01003 3.95676 9.14753C3.95989 9.28098 4.07651 9.38796 4.22012 9.38869C4.36687 9.38943 4.47917 9.28723 4.48309 9.1501C4.487 9.00819 4.37078 8.89313 4.22286 8.89239L4.22325 8.89276Z" fill="#410EAD"/>
<path d="M1.78347 9.12819C1.78347 9.04143 1.7639 8.94915 1.78973 8.86974C1.80929 8.80908 1.87738 8.73776 1.93999 8.71938C2.03509 8.69144 2.11883 8.75725 2.12431 8.84915C2.13565 9.04474 2.13918 9.24215 2.11883 9.43663C2.11335 9.48736 2.01435 9.55905 1.94978 9.56824C1.85625 9.58185 1.78816 9.5142 1.78425 9.41604C1.78073 9.32046 1.78347 9.22414 1.78347 9.12855V9.12819Z" fill="#410EAD"/>
<path d="M2.70169 9.14227C2.70169 9.22903 2.70248 9.31579 2.70169 9.40255C2.70052 9.50622 2.63987 9.56872 2.53382 9.57313C2.43325 9.57717 2.36242 9.51652 2.35773 9.42424C2.34873 9.23748 2.34912 9.04999 2.35734 8.86323C2.36164 8.76985 2.43051 8.71103 2.53265 8.71397C2.64065 8.71728 2.70013 8.77831 2.70209 8.88198C2.70365 8.96874 2.70209 9.0555 2.70209 9.14227H2.70169Z" fill="#410EAD"/>
<path d="M12.1885 10.1287C12.7395 10.1287 13.2904 10.1283 13.8414 10.1287C14.0422 10.1287 14.0919 10.1757 14.0926 10.3632C14.0934 10.6014 14.0946 10.8397 14.0923 11.0779C14.0911 11.2202 14.0304 11.2812 13.8802 11.2812C12.7489 11.2827 11.6179 11.2827 10.4866 11.2812C10.3434 11.2812 10.2828 11.2209 10.2812 11.0867C10.2785 10.8349 10.2789 10.5827 10.2812 10.3309C10.2824 10.1809 10.3403 10.1294 10.5066 10.129C11.0674 10.1279 11.6281 10.1287 12.1889 10.1287H12.1885ZM10.6393 10.9419H13.733V10.4658H10.6393V10.9419Z" fill="#410EAD"/>
<path d="M12.7595 7.16589C12.3936 7.16589 12.0277 7.16662 11.6614 7.16589C11.49 7.16552 11.4114 7.11038 11.4141 6.99825C11.4169 6.892 11.4959 6.83649 11.6548 6.83649C12.3866 6.83575 13.1187 6.83575 13.8505 6.83649C14.0285 6.83649 14.1295 6.9317 14.0833 7.05266C14.045 7.15228 13.9561 7.16699 13.8571 7.16662C13.4912 7.16552 13.1254 7.16626 12.7591 7.16626L12.7595 7.16589Z" fill="#410EAD"/>
<path d="M11.6135 9.63522C11.2476 9.63522 10.8817 9.63595 10.5155 9.63522C10.3578 9.63485 10.2807 9.57787 10.2822 9.46831C10.2838 9.35913 10.3597 9.30582 10.5202 9.30545C11.2519 9.30508 11.9841 9.30508 12.7159 9.30545C12.8771 9.30545 12.953 9.35729 12.9561 9.46574C12.9593 9.57934 12.8802 9.63522 12.7112 9.63559C12.3453 9.63632 11.9794 9.63559 11.6131 9.63559L11.6135 9.63522Z" fill="#410EAD"/>
<path d="M11.6202 7.98724C11.2543 7.98724 10.8884 7.98798 10.5225 7.98724C10.3594 7.98687 10.2846 7.93577 10.2823 7.82769C10.2799 7.71887 10.3594 7.65784 10.5143 7.65747C11.2512 7.65637 11.9876 7.65747 12.7245 7.65674C12.829 7.65674 12.9225 7.67402 12.9522 7.78578C12.9828 7.90232 12.8994 7.9854 12.7476 7.9865C12.3719 7.98871 11.9963 7.98724 11.6206 7.98724H11.6202Z" fill="#410EAD"/>
<path d="M12.7461 8.81009C12.3802 8.81009 12.0139 8.81046 11.648 8.81009C11.4907 8.81009 11.4086 8.75237 11.416 8.64392C11.425 8.51525 11.5177 8.47959 11.6398 8.47959C12.3818 8.48032 13.1233 8.47702 13.8652 8.48474C13.9376 8.48547 14.0261 8.53988 14.0746 8.59466C14.0993 8.6226 14.0695 8.72223 14.032 8.7612C13.9971 8.79722 13.9189 8.80752 13.8594 8.80825C13.4884 8.8123 13.1174 8.81009 12.7469 8.81009H12.7461Z" fill="#410EAD"/>
<path d="M13.7356 7.98548C13.6624 7.98548 13.5807 8.0046 13.5184 7.97997C13.4539 7.95423 13.3807 7.89357 13.3619 7.83439C13.333 7.74248 13.4053 7.67116 13.5044 7.6638C13.6495 7.65314 13.7974 7.65278 13.9422 7.66454C14.0405 7.67263 14.1129 7.74615 14.0839 7.83659C14.0647 7.89578 13.988 7.95092 13.9231 7.9807C13.8718 8.00386 13.7986 7.98548 13.7352 7.98512L13.7356 7.98548Z" fill="#410EAD"/>
<path d="M10.6426 8.8097C10.5792 8.8097 10.5154 8.81264 10.4524 8.80897C10.3499 8.80345 10.2732 8.7472 10.2892 8.65456C10.3002 8.5928 10.3698 8.50162 10.4254 8.49317C10.5726 8.47038 10.7287 8.47038 10.8758 8.49317C10.931 8.50162 11.0007 8.59317 11.0112 8.65493C11.0273 8.74757 10.9502 8.80345 10.8476 8.80897C10.7796 8.81264 10.7111 8.8097 10.6426 8.8097Z" fill="#410EAD"/>
<path d="M13.709 9.6324C13.6405 9.6324 13.5611 9.65335 13.5071 9.62688C13.4445 9.59637 13.3666 9.52505 13.3662 9.47101C13.3662 9.4166 13.446 9.32432 13.5032 9.31513C13.6456 9.29234 13.7974 9.29197 13.9395 9.31476C13.9978 9.32395 14.071 9.40925 14.0843 9.47064C14.1046 9.56181 14.0291 9.62321 13.9281 9.6324C13.8558 9.63902 13.7818 9.63387 13.7086 9.63387C13.7086 9.6335 13.7086 9.63313 13.7086 9.63277L13.709 9.6324Z" fill="#410EAD"/>
<path d="M10.6512 7.16228C10.5831 7.16228 10.5143 7.16632 10.4466 7.16154C10.3444 7.15419 10.2689 7.09574 10.2889 7.00346C10.3018 6.94244 10.3738 6.85641 10.4309 6.84722C10.573 6.82443 10.7244 6.82443 10.8664 6.84685C10.9244 6.85604 10.9971 6.9406 11.0112 7.00126C11.0324 7.09353 10.958 7.15309 10.8559 7.16154C10.7882 7.16706 10.7197 7.16265 10.6512 7.16265V7.16228Z" fill="#410EAD"/>
<path d="M10.1961 0.79769C10.8793 0.79769 11.5626 0.79769 12.2458 0.79769C12.4383 0.79769 12.4923 0.84585 12.4939 1.02268C12.4963 1.2565 12.4963 1.49031 12.4939 1.72412C12.4919 1.89287 12.4364 1.94581 12.2548 1.94581C10.8688 1.94691 9.4831 1.94691 8.09705 1.94581C7.92057 1.94581 7.86305 1.88809 7.86148 1.71861C7.85952 1.4848 7.85913 1.25098 7.86148 1.01717C7.86344 0.850261 7.92174 0.798058 8.10253 0.79769C8.80025 0.796955 9.49836 0.79769 10.1961 0.79769ZM8.22071 1.60942C8.27823 1.612 8.32558 1.61641 8.37293 1.61641C9.5735 1.61641 10.7741 1.61641 11.975 1.61641C12.0091 1.61641 12.0462 1.62339 12.0768 1.6131C12.1022 1.60428 12.1378 1.57597 12.1386 1.55538C12.1441 1.41605 12.1413 1.27635 12.1413 1.13444H8.21249C8.21249 1.24914 8.21171 1.35796 8.21249 1.46678C8.21288 1.51126 8.21719 1.55575 8.22032 1.60942H8.22071Z" fill="#410EAD"/>
<path d="M1.67315 2.14976C1.21257 2.14976 0.845903 1.8064 0.844729 1.37443C0.843555 0.936209 1.21805 0.584753 1.68058 0.5899C2.1396 0.595046 2.50509 0.943562 2.50313 1.3748C2.50118 1.8064 2.13334 2.15013 1.67354 2.15013L1.67315 2.14976ZM1.67471 1.81926C1.93885 1.8189 2.14821 1.62405 2.15134 1.37627C2.15447 1.12333 1.94003 0.918931 1.67198 0.919666C1.4051 0.920401 1.193 1.12517 1.19652 1.37921C1.20005 1.62736 1.40901 1.82 1.67471 1.81963V1.81926Z" fill="#410EAD"/>
<path d="M3.7632 2.14964C3.30457 2.14964 2.93321 1.80333 2.93165 1.3743C2.93008 0.940492 3.31044 0.584624 3.77063 0.589403C4.22691 0.59455 4.59905 0.947845 4.5967 1.3743C4.59436 1.80296 4.22221 2.14964 3.76359 2.14964H3.7632ZM3.76789 1.81913C4.03047 1.8173 4.24334 1.61841 4.24491 1.3732C4.24647 1.12541 4.02264 0.916229 3.7585 0.919537C3.49906 0.922478 3.28422 1.12541 3.28266 1.36842C3.28148 1.61988 3.49788 1.82134 3.7675 1.81913H3.76789Z" fill="#410EAD"/>
<path d="M5.8463 2.14959C5.38963 2.14775 5.01709 1.79593 5.01905 1.36874C5.02101 0.941181 5.3955 0.59046 5.85099 0.589357C6.31353 0.588621 6.68528 0.941916 6.68215 1.37977C6.67902 1.80953 6.30766 2.15143 5.84669 2.14959H5.8463ZM6.33036 1.36874C6.32957 1.12242 6.12022 0.923167 5.85764 0.919491C5.59468 0.915447 5.36967 1.125 5.37085 1.37241C5.37202 1.62351 5.59077 1.82276 5.86156 1.81909C6.12452 1.81578 6.33153 1.61726 6.33075 1.36874H6.33036Z" fill="#410EAD"/>
</svg>
