<svg width="15" height="15" viewBox="0 0 15 15" fill="none" xmlns="http://www.w3.org/2000/svg">
<path d="M0.000366829 5.41933C0.0777807 5.14673 0.198488 4.90495 0.449441 4.74572C1.08233 4.34361 1.89939 4.74866 1.95736 5.49675C1.96213 5.55985 1.96176 5.62369 1.96176 5.68716C1.96176 6.75628 1.96176 7.8254 1.96176 8.89452C1.96176 8.94809 1.96176 9.00129 1.96176 9.05816C2.09861 8.98551 2.22336 8.90296 2.35984 8.85013C2.62804 8.74666 2.91054 8.74923 3.15012 8.90369C3.67404 9.2416 4.20603 9.57547 4.6896 9.96658C5.49382 10.6171 5.94546 11.4917 6.14909 12.5007C6.28704 13.1838 6.43416 13.8652 6.57651 14.5476C6.58459 14.5857 6.59192 14.6243 6.59412 14.6631C6.6044 14.8378 6.50937 14.9673 6.35344 14.9952C6.21219 15.0201 6.0669 14.9277 6.02801 14.7648C5.95537 14.4614 5.89593 14.155 5.83063 13.8501C5.72459 13.3544 5.627 12.8569 5.51033 12.3638C5.28396 11.4085 4.74243 10.6692 3.93674 10.1177C3.62268 9.90274 3.30605 9.69141 2.98942 9.48045C2.75718 9.32562 2.51247 9.34726 2.35691 9.53254C2.19327 9.72736 2.20061 10.0011 2.38442 10.1985C2.81662 10.6629 3.25322 11.1237 3.68688 11.5871C3.73311 11.6367 3.77934 11.6891 3.81273 11.7475C3.8762 11.859 3.84611 12.012 3.74779 12.0931C3.64286 12.1793 3.52619 12.1921 3.40878 12.1217C3.36365 12.0945 3.3244 12.0557 3.28771 12.0168C2.85881 11.5626 2.43359 11.1047 2.00176 10.653C1.5758 10.208 1.36887 9.68444 1.37364 9.06549C1.38208 7.93804 1.37621 6.81022 1.37547 5.68239C1.37547 5.61929 1.37474 5.55472 1.36263 5.49308C1.32264 5.29056 1.15204 5.16104 0.951714 5.17535C0.757629 5.18929 0.609038 5.33495 0.589226 5.5338C0.584457 5.58223 0.586291 5.6314 0.586291 5.68019C0.586291 7.12024 0.589226 8.56028 0.584457 10.0003C0.582622 10.5565 0.73745 11.0566 1.06472 11.5053C1.21147 11.7064 1.35933 11.9071 1.49361 12.1162C1.54057 12.1888 1.5868 12.2985 1.56479 12.3701C1.53727 12.4589 1.45069 12.5653 1.36703 12.5906C1.28448 12.6155 1.13076 12.5818 1.08343 12.5179C0.727177 12.0377 0.324698 11.582 0.145289 10.9942C0.0832841 10.7906 0.0476958 10.5793 0 10.3713C0 8.72098 0 7.07071 0 5.42043L0.000366829 5.41933Z" fill="#410EAD"/>
<path d="M7.55818 0C7.73135 0.0664072 7.80326 0.194452 7.79336 0.376797C7.78785 0.478792 7.79409 0.581522 7.79189 0.683884C7.78749 0.885307 7.67265 1.01922 7.50351 1.02216C7.32997 1.02546 7.21073 0.887508 7.20706 0.67728C7.2056 0.589593 7.21293 0.501173 7.2056 0.41422C7.18982 0.232242 7.24852 0.0909889 7.41179 0H7.55818Z" fill="#410EAD"/>
<path d="M8.3088 6.52196C8.1305 6.92774 7.96136 7.31591 7.78929 7.70261C7.71334 7.87359 7.60217 7.93853 7.44771 7.91358C7.3215 7.89303 7.25693 7.80644 7.20997 7.69895C7.06138 7.35957 6.91279 7.0202 6.76383 6.68119C6.74255 6.63276 6.71907 6.58543 6.68091 6.50398C6.31035 6.61919 5.92658 6.70247 5.57474 6.8573C5.22509 7.01139 5.02183 7.32839 4.98294 7.70922C4.95139 8.01704 4.9767 8.33073 4.9767 8.65213H5.53768C5.53768 8.46244 5.53438 8.27423 5.53841 8.08601C5.54245 7.90624 5.64444 7.7859 5.79964 7.76682C5.97355 7.74517 6.11663 7.88202 6.12177 8.08345C6.12654 8.26873 6.12287 8.45401 6.12287 8.66277C6.21092 8.66277 6.29164 8.6613 6.37236 8.66277C6.58442 8.66754 6.70806 8.77063 6.71283 8.94454C6.7176 9.12432 6.59139 9.24466 6.37566 9.24649C5.89246 9.25089 5.4089 9.24796 4.92571 9.24796C4.85746 9.24796 4.78886 9.24979 4.72061 9.24759C4.48397 9.23915 4.3728 9.12909 4.37023 8.89244C4.36693 8.57508 4.3695 8.25772 4.3695 7.94036C4.3695 7.89707 4.3695 7.85377 4.3695 7.7914C4.2121 7.7914 4.06241 7.7914 3.91272 7.7914C3.62948 7.7914 3.34624 7.7936 3.06337 7.7903C2.88763 7.7881 2.76986 7.71179 2.75408 7.56063C2.71592 7.19154 2.69538 6.81731 2.83113 6.46216C3.01274 5.9874 3.37266 5.71297 3.86062 5.59593C3.97913 5.56768 4.098 5.54053 4.21577 5.51008C4.33098 5.48036 4.35042 5.42789 4.2631 5.35745C3.86759 5.03862 3.72377 4.61706 3.75312 4.12543C3.7711 3.83008 3.75312 3.5219 3.83201 3.24269C4.06938 2.40361 5.10071 2.06864 5.81468 2.57458C5.84257 2.5944 5.87045 2.61311 5.91228 2.64209C6.23734 1.98169 6.75392 1.58765 7.49761 1.58692C8.24276 1.58618 8.76522 1.97142 9.09212 2.64209C9.35261 2.4403 9.63732 2.32803 9.96311 2.33721C10.6257 2.35592 11.1592 2.8237 11.2263 3.48851C11.2612 3.83522 11.2483 4.19037 11.2215 4.53928C11.197 4.85811 11.0205 5.11347 10.7805 5.3237C10.7435 5.35598 10.7211 5.40478 10.6918 5.44624C10.7387 5.47192 10.7827 5.50677 10.833 5.52182C11.0425 5.58566 11.2652 5.61794 11.4619 5.70856C11.9975 5.95511 12.2485 6.39905 12.2687 6.97984C12.2738 7.131 12.272 7.28252 12.269 7.43368C12.2643 7.67877 12.1524 7.78993 11.9073 7.79103C11.4883 7.7925 11.0689 7.7914 10.6367 7.7914C10.6342 7.84717 10.6305 7.89376 10.6301 7.94036C10.6294 8.25772 10.6323 8.57508 10.629 8.89244C10.6265 9.12432 10.519 9.24319 10.2926 9.24539C9.72133 9.25089 9.15008 9.25089 8.5792 9.24539C8.37338 9.24319 8.2523 9.11918 8.25707 8.94381C8.26148 8.7743 8.38255 8.66864 8.58287 8.6624C8.67459 8.65946 8.76632 8.66203 8.87675 8.66203C8.87675 8.45474 8.87051 8.26102 8.87822 8.06804C8.88776 7.83359 9.10349 7.69674 9.29684 7.79617C9.41278 7.85597 9.46084 7.9587 9.46121 8.08528C9.46231 8.27056 9.46121 8.45547 9.46121 8.65103H10.0402C10.0273 8.09372 10.1579 7.50706 9.68905 7.05579C9.55954 6.93104 9.39407 6.82391 9.2253 6.76448C8.93252 6.66138 8.6247 6.60194 8.3077 6.52013L8.3088 6.52196ZM6.38777 3.94602C6.38777 4.07553 6.38043 4.20688 6.38923 4.33676C6.42005 4.80711 6.77594 5.21546 7.24666 5.3292C7.70527 5.43963 8.20314 5.23014 8.45226 4.83757C8.64818 4.52828 8.63277 4.18817 8.62286 3.8477C8.62176 3.81541 8.5792 3.77505 8.54582 3.7545C8.4053 3.66718 8.25854 3.58977 8.11949 3.50062C8.05088 3.45696 8.00539 3.45842 7.94155 3.51236C7.71811 3.70094 7.46165 3.83485 7.17328 3.87998C6.92012 3.91997 6.66147 3.92438 6.38813 3.94602H6.38777ZM5.81138 6.09233C5.58501 6.00061 5.20344 6.07509 5.21995 5.63592H4.90663C4.87508 5.91953 4.82848 5.97089 4.55808 6.03473C4.36363 6.08059 4.16918 6.12645 3.97546 6.17562C3.48823 6.29962 3.24241 6.69256 3.33964 7.20731C3.68708 7.20731 4.0371 7.20401 4.38748 7.20951C4.4781 7.21098 4.5269 7.1842 4.56542 7.10055C4.68356 6.84299 4.85306 6.61809 5.09264 6.46803C5.32488 6.32274 5.57877 6.21194 5.81138 6.09233ZM11.6714 7.20695C11.7359 6.61662 11.5022 6.28385 10.9501 6.15397C10.7464 6.10591 10.5424 6.05858 10.3399 6.00648C10.1968 5.96979 10.1172 5.87477 10.1058 5.72544C10.1033 5.69352 10.097 5.66197 10.0923 5.63115H9.77783C9.80095 5.90412 9.63621 6.00244 9.40324 6.04023C9.32142 6.05344 9.24217 6.08096 9.13981 6.10737C9.1798 6.12609 9.19631 6.13746 9.21429 6.14186C9.7826 6.28275 10.2005 6.60965 10.4592 7.13834C10.4742 7.16952 10.5219 7.20401 10.5545 7.20438C10.9244 7.20915 11.2942 7.20731 11.6714 7.20731V7.20695ZM6.3885 3.32818C6.91058 3.38431 7.37764 3.308 7.74379 2.89965C7.86854 2.76023 7.98631 2.75143 8.15068 2.84241C8.29853 2.9246 8.44309 3.01265 8.59645 3.10217C8.53187 2.56248 7.99988 2.13468 7.45468 2.171C6.82913 2.21283 6.37346 2.703 6.3885 3.32818ZM4.34198 4.18413C4.32511 4.52681 4.42527 4.7884 4.71144 4.94947C4.9734 5.09659 5.23793 5.08081 5.48301 4.90948C5.80918 4.68127 5.80955 4.34263 5.78276 3.97537C5.31534 4.17386 4.83655 4.19697 4.34198 4.18413ZM9.22603 3.97831C9.19228 4.37675 9.20732 4.73043 9.58081 4.94837C9.83103 5.09402 10.1517 5.07348 10.3759 4.89664C10.6048 4.71613 10.687 4.47801 10.6562 4.1834C10.1634 4.19844 9.69015 4.17129 9.22566 3.97831H9.22603ZM5.71929 3.35716C5.57877 3.03687 5.25921 2.8703 4.92571 2.9334C4.61091 2.99284 4.37427 3.2625 4.35519 3.59307C4.82518 3.61582 5.28489 3.5905 5.71892 3.35716H5.71929ZM10.6499 3.59381C10.6349 3.25847 10.3777 2.97486 10.0537 2.93047C9.71143 2.88314 9.39627 3.05851 9.28914 3.359C9.7162 3.59161 10.1785 3.61472 10.6496 3.59381H10.6499ZM7.85203 5.93347H7.15273C7.15603 6.28458 7.38277 6.55425 7.50201 6.86831C7.61832 6.55425 7.84652 6.28788 7.85203 5.93347ZM6.02271 5.2173C5.99006 5.24628 5.92291 5.30242 5.85944 5.36222C5.79524 5.42276 5.78313 5.47962 5.88769 5.50641C6.10746 5.56291 6.32796 5.61684 6.43876 5.64473C6.34777 5.55117 6.19001 5.389 6.02271 5.21766V5.2173ZM8.56306 5.64546C8.67863 5.61648 8.89363 5.56071 9.10936 5.50861C9.20842 5.48476 9.21979 5.43486 9.15192 5.36846C9.08441 5.30242 9.0092 5.24408 8.93729 5.18244C8.95123 5.20189 8.9648 5.22133 8.97875 5.24041C8.81952 5.39524 8.66065 5.55043 8.56306 5.64509V5.64546Z" fill="#410EAD"/>
<path d="M13.0371 9.07613V8.89488C13.0371 7.80118 13.036 6.70785 13.0378 5.61415C13.0385 5.15443 13.2744 4.79892 13.6677 4.65179C14.3043 4.41405 14.9555 4.85065 14.997 5.54334C14.9992 5.58223 14.9988 5.62148 14.9988 5.66037C14.9988 7.125 14.9974 8.58963 14.9996 10.0543C15.0007 10.6838 14.8267 11.2569 14.4628 11.7706C13.7408 12.7898 13.0169 13.8079 12.2934 14.8264C12.2794 14.8462 12.2655 14.8664 12.2493 14.8847C12.1448 15.0051 11.9936 15.0315 11.8685 14.9522C11.7383 14.8697 11.6924 14.7112 11.7709 14.5674C11.8267 14.465 11.8982 14.3715 11.9661 14.2761C12.6126 13.3647 13.2546 12.4501 13.9084 11.5442C14.2522 11.0676 14.4184 10.547 14.4155 9.95886C14.4078 8.52836 14.4133 7.09785 14.4118 5.66771C14.4118 5.5859 14.4063 5.50004 14.3813 5.42336C14.3303 5.2656 14.1733 5.16801 14.0064 5.17351C13.8394 5.17938 13.6905 5.28761 13.6483 5.44758C13.6288 5.52169 13.6241 5.60167 13.6241 5.67909C13.6226 6.81645 13.6189 7.95417 13.6248 9.09154C13.6277 9.6826 13.4315 10.1889 13.0279 10.6174C12.5861 11.0867 12.1455 11.5567 11.7016 12.0241C11.6528 12.0755 11.5915 12.1272 11.5258 12.1488C11.4059 12.1885 11.2936 12.1565 11.2136 12.0501C11.1347 11.9452 11.1325 11.8329 11.1993 11.7225C11.2294 11.673 11.2705 11.6301 11.3105 11.5875C11.7412 11.1281 12.1734 10.6699 12.6034 10.2098C12.7868 10.0135 12.8092 9.77102 12.6691 9.56886C12.5436 9.38762 12.2967 9.30286 12.114 9.42247C11.5317 9.8044 10.9186 10.1463 10.4248 10.6505C9.85942 11.2276 9.5538 11.932 9.40227 12.7168C9.27386 13.382 9.12857 14.0442 8.98842 14.7068C8.93412 14.9636 8.71582 15.0737 8.52577 14.9442C8.39736 14.8569 8.38305 14.727 8.41203 14.5916C8.59548 13.7338 8.75031 12.8679 8.97631 12.0212C9.25001 10.9964 9.87923 10.2072 10.7568 9.61545C11.028 9.43274 11.3061 9.25957 11.5691 9.06585C11.9852 8.7595 12.4673 8.63843 13.0367 9.07649L13.0371 9.07613Z" fill="#410EAD"/>
<path d="M2.22119 14.0498C2.28686 13.9746 2.3408 13.8825 2.42078 13.8282C2.52241 13.7596 2.65119 13.7769 2.72567 13.8726C2.90728 14.1056 3.08192 14.3459 3.24005 14.5954C3.31636 14.7157 3.25069 14.8757 3.13108 14.9516C3.01514 15.0254 2.85958 15.0177 2.77336 14.9054C2.60202 14.6823 2.44426 14.4486 2.2854 14.216C2.25971 14.1786 2.25751 14.1254 2.24467 14.0792C2.23697 14.0693 2.22926 14.0594 2.22156 14.0498H2.22119Z" fill="#410EAD"/>
<path d="M6.5322 1.1816C6.4735 1.25865 6.42947 1.36578 6.35169 1.40394C6.27391 1.44173 6.13413 1.44833 6.07139 1.40174C5.91766 1.28764 5.78155 1.14382 5.6601 0.994491C5.58012 0.896164 5.6036 0.770321 5.68689 0.671627C5.76981 0.574034 5.90042 0.514598 5.99691 0.590911C6.17595 0.732164 6.32675 0.910106 6.48598 1.07594C6.50322 1.09355 6.49955 1.13134 6.50542 1.15959C6.51423 1.16693 6.52303 1.17427 6.53184 1.1816H6.5322Z" fill="#410EAD"/>
<path d="M9.37404 0.798278C9.37845 1.04299 8.96056 1.47813 8.77968 1.45318C8.69089 1.44107 8.57826 1.3754 8.5379 1.30055C8.49791 1.22717 8.49901 1.08519 8.54634 1.01988C8.6531 0.872023 8.78812 0.737007 8.93561 0.629875C9.00128 0.582179 9.1385 0.582913 9.21775 0.618135C9.29663 0.653356 9.34359 0.760121 9.37441 0.798278H9.37404Z" fill="#410EAD"/>
<path d="M1.9322 12.9437C2.09216 12.9448 2.22094 13.0714 2.22204 13.2288C2.22314 13.3895 2.08299 13.5271 1.92229 13.5227C1.76746 13.5186 1.63979 13.3829 1.64162 13.2251C1.64382 13.0644 1.7693 12.9426 1.93183 12.9434L1.9322 12.9437Z" fill="#410EAD"/>
<path d="M7.78993 8.95844C7.78736 9.11327 7.64978 9.24609 7.49495 9.24352C7.33939 9.24095 7.20548 9.1041 7.20804 8.95037C7.21061 8.79481 7.34526 8.66567 7.50302 8.6675C7.66005 8.66933 7.7925 8.80362 7.78957 8.95844H7.78993Z" fill="#410EAD"/>
</svg>
