<svg width="15" height="11" viewBox="0 0 15 11" fill="none" xmlns="http://www.w3.org/2000/svg">
<path d="M0.000366675 4.19648C0.0198037 3.89486 0.0410746 3.59359 0.0583112 3.2916C0.0872834 2.78581 0.134226 2.28393 0.29339 1.79628C0.618319 0.800698 1.32722 0.262181 2.38452 0.167923C3.06409 0.1071 3.74769 0.0843352 4.42982 0.0580141C6.67828 -0.0280633 8.92711 -0.0173925 11.1748 0.0836239C11.7444 0.109234 12.318 0.127018 12.8805 0.208116C13.8531 0.348614 14.5294 1.01518 14.7597 1.9599C14.9288 2.65207 14.9438 3.3567 14.9684 4.0599C15.0193 5.51717 15.0223 6.97515 14.8738 8.42779C14.8169 8.98516 14.668 9.52865 14.3075 9.98714C13.9312 10.4655 13.4248 10.7551 12.8098 10.8067C11.9696 10.8771 11.1264 10.9155 10.2837 10.95C8.17163 11.0368 6.05923 11.0009 3.94829 10.9166C3.3065 10.891 2.65994 10.854 2.02769 10.7515C1.0419 10.5911 0.475658 9.97149 0.233245 9.04705C0.0718803 8.43135 0.0707801 7.80106 0.0289721 7.17433C0.0216374 7.06193 0.00953516 6.94989 0 6.83749C0 5.95716 0 5.07682 0 4.19648H0.000366675ZM7.82507 0.83022C6.44467 0.862588 5.3958 0.880017 4.3473 0.913808C3.70881 0.934438 3.06996 0.965027 2.43367 1.0198C1.82048 1.07245 1.37893 1.36411 1.16659 1.95456C1.00669 2.39953 0.965985 2.85802 0.937746 3.32077C0.858898 4.6162 0.854497 5.91269 0.913175 7.20883C0.938847 7.77901 0.946182 8.35238 1.10645 8.91117C1.26194 9.45218 1.58797 9.80894 2.16998 9.916C2.33245 9.94588 2.49638 9.98038 2.66068 9.98892C3.4741 10.0312 4.28752 10.0732 5.10131 10.1017C6.77913 10.1607 8.45732 10.1682 10.1351 10.1006C10.9973 10.0661 11.8606 10.0305 12.7199 9.95584C13.237 9.91102 13.6023 9.62256 13.7959 9.13526C13.9782 8.67677 14.0251 8.20015 14.0541 7.71783C14.1326 6.41742 14.1392 5.1163 14.0794 3.81554C14.053 3.24074 14.057 2.6599 13.8843 2.09968C13.7922 1.80197 13.6738 1.52453 13.405 1.32499C13.0863 1.08881 12.7177 1.01233 12.3348 0.997039C10.7216 0.932304 9.10791 0.877171 7.8247 0.830576L7.82507 0.83022Z" fill="#410EAD"/>
<path d="M5.59265 5.35581C5.59265 4.79737 5.59155 4.23894 5.59265 3.6805C5.59412 3.13345 6.06208 2.86454 6.55937 3.12776C7.62034 3.68904 8.68021 4.25245 9.73935 4.81729C10.1457 5.03391 10.2425 5.45754 9.95499 5.76236C9.89411 5.8271 9.81343 5.87903 9.73311 5.921C8.67398 6.47552 7.61374 7.02862 6.5524 7.57923C6.05327 7.83818 5.59339 7.5675 5.59229 7.01689C5.59119 6.46308 5.59229 5.90962 5.59229 5.35581H5.59265ZM8.9461 5.36577C8.11177 4.92293 7.30201 4.49326 6.48162 4.05753V6.65017C7.30385 6.22156 8.10957 5.80149 8.9461 5.36541V5.36577Z" fill="#410EAD"/>
</svg>
