<svg width="15" height="13" viewBox="0 0 15 13" fill="none" xmlns="http://www.w3.org/2000/svg">
<path d="M0.000366978 5.74159C0.0935951 5.43694 0.317856 5.28353 0.608552 5.17265C5.06295 3.47635 9.51477 1.77388 13.9673 0.0728602C14.4037 -0.0940062 14.7712 0.0299621 14.9433 0.401504C15.0182 0.56328 15.0086 0.729783 14.9734 0.898467C14.7631 1.89603 14.5528 2.89359 14.3436 3.89116C13.8315 6.33126 13.3195 8.771 12.8079 11.2111C12.7264 11.599 12.6482 11.9873 12.5649 12.3744C12.4349 12.979 11.8954 13.183 11.3896 12.8194C10.3388 12.0643 9.28831 11.3082 8.23748 10.5527C8.00147 10.383 7.9376 10.3855 7.71261 10.5673C7.14516 11.0257 6.57882 11.4859 6.00881 11.9411C5.65241 12.2258 5.21197 12.1803 4.97045 11.8328C4.90842 11.7433 4.86952 11.6346 4.83648 11.5299C4.44595 10.2953 4.05763 9.06002 3.67297 7.82324C3.64397 7.73018 3.59919 7.68182 3.5067 7.64801C2.54175 7.29501 1.58084 6.93183 0.614058 6.58429C0.314553 6.47668 0.0877225 6.31817 0 6.00262V5.74123L0.000366978 5.74159ZM14.4015 0.702881C14.396 0.602543 14.3535 0.567279 14.2661 0.595272C14.229 0.607269 14.1923 0.62072 14.156 0.634535C9.69426 2.33919 5.23252 4.04385 0.770784 5.7485C0.734447 5.76231 0.696642 5.77468 0.663608 5.79467C0.582125 5.84448 0.581758 5.91537 0.663241 5.96263C0.696275 5.98189 0.735181 5.99171 0.771885 6.00516C1.80841 6.38906 2.84382 6.77587 3.88218 7.15396C4.05102 7.2154 4.14131 7.3161 4.19343 7.48369C4.59607 8.78045 5.00496 10.0754 5.41237 11.3707C5.47587 11.5721 5.50963 11.5816 5.67847 11.4456C6.23858 10.9937 6.79831 10.5404 7.35915 10.0892C7.7739 9.75548 8.13397 9.7482 8.56891 10.0609C9.62379 10.8192 10.6783 11.5776 11.7335 12.3355C11.8965 12.4526 11.9413 12.4348 11.982 12.2399C12.1692 11.346 12.3557 10.452 12.5436 9.55843C13.1154 6.83477 13.6876 4.1111 14.2595 1.38743C14.3083 1.15586 14.3557 0.923915 14.4015 0.703608V0.702881Z" fill="#410EAD"/>
<path d="M4.68347 7.17697C4.69815 6.79088 4.85855 6.52986 5.15328 6.34881C5.52216 6.12196 5.89213 5.89766 6.26174 5.67226C7.91049 4.6667 9.55923 3.66114 11.208 2.65594C11.4421 2.51343 11.6132 2.51379 11.771 2.65303C11.9241 2.78827 11.9509 3.01258 11.8294 3.17617C11.7923 3.22634 11.7468 3.27142 11.7005 3.31395C10.0852 4.80266 8.47316 6.29464 6.84974 7.77427C6.58768 8.01311 6.44747 8.2785 6.4159 8.6246C6.38397 8.97541 6.33442 9.32587 6.26908 9.67196C6.20705 9.99879 5.84442 10.1529 5.58309 9.96498C5.48876 9.897 5.40801 9.77666 5.37424 9.66433C5.14961 8.91979 4.93857 8.17162 4.72605 7.42345C4.69999 7.33147 4.69265 7.23404 4.68311 7.17697H4.68347ZM9.83781 4.22208L9.81873 4.20463C9.80184 4.21263 9.78459 4.21954 9.76881 4.22936C8.33919 5.10077 6.90957 5.97218 5.48105 6.84505C5.29166 6.96066 5.24982 7.08063 5.31295 7.30239C5.44912 7.78117 5.58749 8.25923 5.7255 8.73729C5.73504 8.76965 5.75119 8.80019 5.7644 8.83145C5.80368 8.7173 5.82313 8.60896 5.83304 8.4999C5.87121 8.08473 6.02317 7.72773 6.33992 7.43981C7.07364 6.77234 7.80111 6.09797 8.53078 5.42614C8.96683 5.02479 9.40214 4.62307 9.83818 4.22172L9.83781 4.22208Z" fill="#410EAD"/>
<path d="M12.4563 8.10554C12.4034 8.34766 12.3418 8.63049 12.2797 8.91333C12.1142 9.66768 11.949 10.4224 11.7828 11.1764C11.742 11.3618 11.651 11.4523 11.502 11.4629C11.3012 11.4774 11.1581 11.3225 11.194 11.104C11.2351 10.8517 11.2964 10.6031 11.3511 10.353C11.5148 9.60297 11.6796 8.85335 11.8444 8.10372C11.8558 8.0521 11.8675 7.99975 11.8859 7.9503C11.9406 7.80307 12.0746 7.72236 12.2166 7.74781C12.3656 7.77435 12.4618 7.9005 12.4563 8.10554Z" fill="#410EAD"/>
<path d="M12.1312 6.80178C12.1444 6.75125 12.1613 6.65055 12.1984 6.55748C12.2501 6.4277 12.3892 6.35972 12.5188 6.38516C12.6583 6.41243 12.7596 6.52876 12.753 6.67418C12.7486 6.76943 12.7313 6.86613 12.7038 6.95775C12.6561 7.1148 12.5192 7.19477 12.3665 7.16751C12.2163 7.14097 12.1246 7.01809 12.1312 6.80178Z" fill="#410EAD"/>
</svg>
