<svg width="15" height="8" viewBox="0 0 15 8" fill="none" xmlns="http://www.w3.org/2000/svg">
<path d="M4.95796 8C4.8501 7.97402 4.74325 7.93504 4.63335 7.92298C3.60865 7.80976 3.00115 7.25665 2.92381 6.31656C2.83935 5.29202 3.04389 4.30646 3.52927 3.38121C4.08488 2.31955 5.13706 2.05135 6.30016 1.99196C6.65123 1.97433 7.00331 1.98917 7.37778 1.98917C7.4714 1.47041 7.5528 0.991545 7.64642 0.51454C7.73902 0.0431025 7.79906 0.00226851 8.3109 0.000412456C8.52561 0.000412456 8.74134 -0.00051557 8.95606 0.000412456C9.44043 0.00412456 9.50351 0.06816 9.41905 0.518253C9.26743 1.32749 9.10869 2.13673 8.95198 2.94504C8.68232 4.33522 8.40147 5.72262 8.15013 7.11559C8.09721 7.40792 7.97001 7.57311 7.66372 7.64828C7.21598 7.75778 6.77232 7.88121 6.32661 7.99907H4.95796V8ZM7.10303 3.38029C5.87684 3.0629 5.1859 3.4304 4.93049 4.51248C4.8267 4.95329 4.75343 5.4006 4.69441 5.84884C4.63234 6.31749 4.91523 6.60703 5.42503 6.62559C5.70284 6.6358 5.98369 6.64323 6.25946 6.6191C6.35002 6.61167 6.48943 6.51052 6.50469 6.43535C6.7133 5.42473 6.90359 4.41039 7.10202 3.38029H7.10303Z" fill="#410EAD"/>
<path d="M11.4286 7.94151C11.1762 7.92666 10.932 7.93223 10.6969 7.89418C9.56943 7.71043 8.93548 6.82509 9.10135 5.64464C9.17359 5.12866 9.2723 4.61268 9.40153 4.10598C9.70884 2.90047 10.8455 2.04297 12.2487 1.96409C12.6741 1.93996 13.1137 1.95574 13.5309 2.02998C14.3562 2.17754 14.8904 2.72785 14.9708 3.49812C15.0735 4.48461 14.9067 5.45811 14.464 6.34901C13.884 7.51647 12.7504 7.91552 11.4286 7.94244V7.94151ZM10.9381 5.57318C10.9218 6.37129 11.398 6.7128 12.0798 6.53555C12.4665 6.43532 12.7982 6.22651 12.8908 5.86737C13.0496 5.25116 13.1859 4.62289 13.2419 3.99276C13.2857 3.50647 12.842 3.19651 12.3159 3.26611C11.8 3.33386 11.396 3.57793 11.2627 4.05122C11.109 4.59876 11.0225 5.16207 10.9381 5.57226V5.57318Z" fill="#410EAD"/>
<path d="M0 7.83274C0.0966705 7.24901 0.180112 6.71539 0.272712 6.18363C0.49251 4.91595 0.722485 3.6492 0.930072 2.37966C0.970776 2.13187 1.07253 2.03629 1.34118 2.04649C1.68207 2.05949 2.02499 2.0632 2.36588 2.04649C2.68541 2.03072 2.79225 2.13187 2.73832 2.42977C2.49003 3.79861 2.257 5.17023 2.01787 6.54093C1.9558 6.89543 1.90594 7.25179 1.82453 7.60166C1.80418 7.68889 1.68614 7.81975 1.6088 7.82253C1.09492 7.84202 0.579005 7.83274 0.00101703 7.83274H0Z" fill="#410EAD"/>
<path d="M3.16177 0.0636028C3.17398 0.151765 3.18416 0.174965 3.17907 0.19631C3.09664 0.538752 3.0132 0.88212 2.92976 1.22456H1.20801C1.27008 0.8682 1.32096 0.532254 1.39321 0.200949C1.40542 0.146195 1.50921 0.0710248 1.5723 0.0700968C2.09839 0.0598885 2.62449 0.0645289 3.16177 0.0645289V0.0636028Z" fill="#410EAD"/>
</svg>
