<svg width="15" height="15" viewBox="0 0 15 15" fill="none" xmlns="http://www.w3.org/2000/svg">
<path d="M7.94048 0C8.23959 0.0392335 8.54091 0.0674816 8.83751 0.119898C10.006 0.326109 11.061 0.795341 12.0091 1.50719C12.0242 1.51849 12.0371 1.53325 12.0638 1.55804C11.9661 1.68516 11.8695 1.8107 11.7653 1.94661C10.4825 0.977699 9.04341 0.48932 7.44425 0.502189C5.85012 0.515057 4.42265 1.02352 3.15839 2.00938C3.05355 1.8785 2.95657 1.75735 2.84326 1.61611C3.04037 1.47644 3.22838 1.33331 3.42611 1.20494C4.49421 0.510977 5.66399 0.115817 6.93516 0.0232262C6.96811 0.0207153 7.00013 0.0078467 7.03246 0C7.33503 0 7.63791 0 7.94048 0Z" fill="#410EAD"/>
<path d="M15 14.8215C14.9268 14.9555 14.8154 15.0023 14.6626 14.9998C14.2143 14.9926 13.7658 14.9979 13.3176 14.997C13.0863 14.9967 13.0047 14.9129 13.0031 14.6784C13.0025 14.5955 13.0078 14.5124 13.0022 14.4298C12.9752 14.0419 13.0772 13.706 13.3923 13.4597C13.1601 13.0733 13.2037 12.6687 13.5571 12.3953C13.8336 12.1816 14.2228 12.2014 14.489 12.4295C14.7774 12.6769 14.8214 13.0281 14.6061 13.4543C14.8138 13.6128 14.9293 13.8379 15 14.0893V14.8215ZM14.4931 14.4923C14.5188 14.2158 14.5091 13.9647 14.2448 13.8143C14.0628 13.7107 13.8779 13.7227 13.7084 13.8441C13.4805 14.0074 13.4859 14.2437 13.5135 14.4923H14.4934H14.4931ZM14.2454 12.9901C14.2423 12.852 14.1243 12.7406 13.989 12.7475C13.8597 12.7541 13.7505 12.868 13.7501 12.9967C13.7498 13.1329 13.8644 13.245 14.0028 13.2434C14.1444 13.2418 14.2489 13.1329 14.2454 12.9904V12.9901Z" fill="#410EAD"/>
<path d="M1.1453 0C1.21624 0.0298175 1.28999 0.054613 1.35779 0.0907079C1.67291 0.257686 1.91679 0.708086 1.58911 1.22722C1.61799 1.24323 1.6635 1.25736 1.69394 1.28686C1.88791 1.47487 1.99463 1.70336 1.99839 1.9758C2.00059 2.14152 2.00216 2.30724 1.99902 2.47297C1.99588 2.6503 1.90455 2.74823 1.73004 2.74948C1.2426 2.75294 0.755163 2.75262 0.267726 2.74948C0.120209 2.74854 0.011924 2.65909 0.00784376 2.52444C0.00093866 2.30065 -0.00408324 2.07498 0.0178875 1.85276C0.0439386 1.58943 0.18769 1.38039 0.394843 1.20839C0.382288 1.17983 0.372872 1.15346 0.359376 1.1293C0.121464 0.692393 0.307902 0.201189 0.774937 0.0342116C0.801302 0.0247956 0.826412 0.0112992 0.852149 0C0.949762 0 1.04737 0 1.14499 0H1.1453ZM1.49181 2.24541C1.51912 1.96764 1.51221 1.71592 1.24605 1.56526C1.0637 1.462 0.8782 1.47455 0.709653 1.59696C0.484923 1.76049 0.483982 1.99589 0.512857 2.24541H1.49213H1.49181ZM1.25202 0.752342C1.2539 0.617065 1.13745 0.499992 1.00186 0.500306C0.869098 0.500306 0.762069 0.605451 0.757361 0.739473C0.752339 0.881969 0.855915 0.993392 0.996214 0.996845C1.13337 1.0003 1.25045 0.88856 1.25202 0.752342Z" fill="#410EAD"/>
<path d="M14.9998 2.5778C14.9238 2.70899 14.8118 2.75607 14.6599 2.75356C14.2164 2.74666 13.7729 2.75168 13.3294 2.75105C13.0861 2.75074 13.0045 2.66882 13.003 2.42777C13.0023 2.35464 13.0071 2.28119 13.002 2.20838C12.9754 1.8129 13.0648 1.46262 13.3558 1.24072C13.3187 1.02415 13.2512 0.839597 13.2638 0.660378C13.2892 0.302569 13.534 0.107971 13.8573 0C13.9549 0 14.0525 0 14.1502 0C14.1847 0.0153795 14.2189 0.0320145 14.2541 0.0455109C14.583 0.169489 14.782 0.476138 14.7384 0.825159C14.722 0.956042 14.6633 1.08159 14.6207 1.22095C14.8209 1.37349 14.9311 1.59696 14.9995 1.84523V2.57748L14.9998 2.5778ZM14.4929 2.2451C14.5205 1.95948 14.5045 1.70399 14.2289 1.55804C14.0441 1.46011 13.8605 1.47989 13.6941 1.60763C13.4772 1.77398 13.487 2.00467 13.514 2.2451H14.4929ZM14.2456 0.745123C14.2434 0.605765 14.1285 0.495284 13.9913 0.500306C13.8614 0.505014 13.7515 0.617378 13.75 0.747006C13.7484 0.882597 13.8636 0.997473 14.0008 0.997159C14.1411 0.996531 14.2481 0.886677 14.2456 0.745123Z" fill="#410EAD"/>
<path d="M15.0002 7.96713C14.9616 8.2515 14.9302 8.5368 14.8825 8.8196C14.7682 9.4963 14.5535 10.1416 14.2551 10.759C14.2406 10.7888 14.2218 10.8164 14.1995 10.8541C14.0561 10.7825 13.918 10.7138 13.7686 10.6394C14.7397 8.56631 14.7503 6.49164 13.7852 4.39218C13.9255 4.3225 14.0699 4.25094 14.2221 4.17529C14.4782 4.68062 14.6722 5.19505 14.7883 5.73396C14.8712 6.11876 14.9135 6.51235 14.9744 6.90186C14.981 6.94455 14.9914 6.98692 14.9999 7.02961V7.96682L15.0002 7.96713Z" fill="#410EAD"/>
<path d="M7.51 1.25293C10.9669 1.26486 13.7623 4.06927 13.7475 7.51083C13.7324 10.969 10.9221 13.7672 7.48615 13.7452C4.02889 13.7229 1.25022 10.9351 1.25587 7.49451C1.26183 4.04165 4.06781 1.24132 7.51 1.25324V1.25293ZM1.75555 7.48352C1.74048 10.6489 4.30572 13.2279 7.48646 13.2449C10.6503 13.2618 13.2324 10.6928 13.2475 7.51365C13.2623 4.34704 10.6983 1.76956 7.51659 1.75261C4.3528 1.73597 1.77061 4.30435 1.75555 7.48352Z" fill="#410EAD"/>
<path d="M11.449 13.318C11.5272 13.4329 11.6144 13.5616 11.7017 13.6897C9.21961 15.495 5.28496 15.5154 2.62305 13.1799C2.72631 13.0597 2.82957 12.9389 2.92185 12.8315C5.66035 14.8849 8.48579 15.0512 11.449 13.318Z" fill="#410EAD"/>
<path d="M0.396345 13.4542C0.176324 13.0151 0.227798 12.6573 0.536958 12.4122C0.816929 12.1899 1.20801 12.1937 1.4817 12.4216C1.77831 12.6686 1.82633 13.0336 1.59783 13.473C1.62765 13.4931 1.67347 13.5141 1.70674 13.5474C1.89036 13.7307 1.99299 13.9514 1.99801 14.2128C2.00147 14.3883 2.00304 14.564 1.99864 14.7392C1.99456 14.8989 1.90166 14.995 1.74158 14.9959C1.24912 14.9994 0.756666 14.9994 0.264207 14.9959C0.106018 14.995 0.00840457 14.8964 0.00463815 14.7392C0.000244001 14.5493 -0.004464 14.3585 0.00809072 14.1689C0.0275505 13.8767 0.170047 13.6431 0.396345 13.4539V13.4542ZM1.49143 14.4918C1.5178 14.2254 1.51623 13.9784 1.26199 13.8233C1.08309 13.7144 0.897906 13.7185 0.724651 13.8346C0.486739 13.9944 0.483915 14.2351 0.510907 14.4915H1.49143V14.4918ZM0.75698 12.9922C0.754469 13.135 0.858987 13.243 1.00086 13.2439C1.13927 13.2448 1.25352 13.1319 1.25226 12.996C1.25101 12.8673 1.14084 12.7536 1.01184 12.748C0.876564 12.742 0.759491 12.8541 0.75698 12.9922Z" fill="#410EAD"/>
<path d="M1.36041 10.8813C1.22294 10.9579 1.08798 11.0332 0.93575 11.118C0.467773 10.2752 0.18435 9.38355 0.0619414 8.43849C-0.156825 6.74831 0.254028 5.17991 0.788232 4.17773C0.929159 4.24773 1.0704 4.31835 1.21698 4.39116C0.210401 6.58008 0.266897 8.73792 1.36041 10.8813Z" fill="#410EAD"/>
<path d="M7.50416 2.75147C10.1265 2.75335 12.2524 4.88294 12.2486 7.50468C12.2451 10.1264 10.1111 12.2532 7.4916 12.246C4.87457 12.2391 2.75502 10.1151 2.75439 7.49966C2.75377 4.87824 4.88273 2.7499 7.50416 2.75147ZM11.7495 7.49935C11.7495 5.15726 9.84781 3.25303 7.50604 3.25052C5.16459 3.248 3.25753 5.14973 3.25376 7.49024C3.24999 9.83798 5.15768 11.7482 7.50447 11.7466C9.84593 11.745 11.7492 9.8408 11.7495 7.49903V7.49935Z" fill="#410EAD"/>
<path d="M8.51097 7.23676C8.65409 7.25026 8.79659 7.25214 8.93406 7.27882C9.69456 7.42665 10.231 8.06098 10.2501 8.83843C10.2589 9.19938 10.2529 9.56096 10.2523 9.92222C10.252 10.1626 10.1654 10.2496 9.92589 10.2499C8.55397 10.2505 7.18237 10.2499 5.81045 10.2499C5.55182 10.2499 5.29288 10.2521 5.03425 10.249C4.86885 10.2471 4.75554 10.1604 4.7546 10.0114C4.75271 9.55782 4.7276 9.1002 4.7772 8.65137C4.86382 7.86638 5.48591 7.3099 6.27027 7.2556C6.34277 7.25058 6.41527 7.24524 6.49186 7.2399C6.51791 7.06602 6.50661 6.93514 6.3503 6.80363C5.75144 6.29924 5.58603 5.45933 5.9203 4.75407C6.25928 4.03876 7.01602 3.64674 7.80571 3.77731C8.55491 3.90098 9.14718 4.52651 9.23506 5.29832C9.30349 5.89875 9.10638 6.40972 8.65252 6.80237C8.5003 6.93388 8.48052 7.06351 8.51034 7.23676H8.51097ZM5.25553 9.74049H9.75294C9.75294 9.57069 9.75608 9.41061 9.752 9.25054C9.74729 9.05092 9.75608 8.84848 9.7247 8.65262C9.63022 8.06224 8.99903 7.63318 8.41744 7.75371C8.37695 7.76218 8.3374 7.80392 8.30978 7.84002C8.1202 8.08797 7.93471 8.33907 7.74607 8.58765C7.5882 8.79575 7.41557 8.797 7.25926 8.59142C7.09668 8.37799 6.9228 8.17146 6.77999 7.94548C6.67296 7.77599 6.54333 7.73676 6.35595 7.74743C5.76117 7.78133 5.31265 8.17492 5.26024 8.76248C5.23199 9.08137 5.25522 9.40496 5.25522 9.74018L5.25553 9.74049ZM6.25583 5.52932C6.28973 6.02963 6.511 6.39089 6.93284 6.6062C7.38261 6.83596 7.83144 6.79892 8.24167 6.4998C8.56087 6.26723 8.72566 5.94551 8.74323 5.53089C8.41116 5.59492 8.09886 5.57703 7.82611 5.42637C7.59887 5.30051 7.4231 5.27603 7.18707 5.41602C6.91401 5.57797 6.59167 5.57672 6.25583 5.52964V5.52932ZM6.35721 5.03529C6.69807 5.08551 6.99781 5.01803 7.25644 4.80146C7.46422 4.62758 7.53704 4.62852 7.74576 4.80084C8.00721 5.01646 8.30601 5.09116 8.64405 5.03184C8.4912 4.57705 8.00564 4.24906 7.50126 4.24906C6.99813 4.24906 6.51194 4.57705 6.35689 5.03529H6.35721ZM7.50094 8.08138C7.64595 7.88867 7.76836 7.71227 7.90615 7.54844C8.00031 7.43638 8.01882 7.32088 7.99528 7.21636H6.99969C7.00629 7.27537 6.98808 7.37832 7.02983 7.44172C7.17107 7.65641 7.33334 7.85728 7.50126 8.0817L7.50094 8.08138Z" fill="#410EAD"/>
</svg>
