<svg width="16" height="15" viewBox="0 0 16 15" fill="none" xmlns="http://www.w3.org/2000/svg">
<path d="M13.8848 8.00005C13.7319 8.14463 13.5882 8.28011 13.4357 8.4239C13.5172 8.55779 13.6075 8.70237 13.6936 8.84854C13.8646 9.13851 13.7869 9.41579 13.4861 9.58533C13.3152 9.68159 13.1434 9.77626 12.9686 9.86579C12.6859 10.0104 12.3894 9.93392 12.2205 9.67446C12.1386 9.5481 12.0668 9.41579 11.9836 9.29062C11.9639 9.26091 11.9097 9.22565 11.8811 9.23239C11.6992 9.27358 11.5199 9.32548 11.3321 9.37618C11.3321 9.54731 11.3338 9.71487 11.3321 9.88282C11.3283 10.2021 11.1095 10.4093 10.7701 10.414C10.571 10.4168 10.3719 10.4172 10.1728 10.414C9.84807 10.4081 9.63426 10.2104 9.62166 9.90302C9.61578 9.75487 9.62628 9.60593 9.61536 9.45857C9.61242 9.41936 9.56664 9.36152 9.52757 9.34964C9.36375 9.30012 9.19531 9.26487 9.01217 9.22011C8.92606 9.36033 8.83869 9.50532 8.7488 9.64871C8.56524 9.94105 8.27078 10.0175 7.95826 9.85272C7.7894 9.76359 7.62054 9.67327 7.45504 9.5786C7.17445 9.41817 7.09506 9.13375 7.25384 8.86122C7.34205 8.7099 7.43656 8.56215 7.53401 8.4037C7.40421 8.28367 7.28114 8.16246 7.14756 8.05194C7.11774 8.02738 7.04297 8.02183 7.00559 8.03926C6.86949 8.10225 6.74221 8.18147 6.60906 8.25C6.31712 8.40053 6.02015 8.32804 5.84793 8.06224C5.74165 7.89785 5.63916 7.73108 5.54213 7.56154C5.39049 7.29614 5.4745 7.01172 5.74753 6.85644C5.90421 6.76731 6.06383 6.68373 6.22849 6.59421C6.17473 6.40446 6.12264 6.21987 6.06551 6.01943C5.89287 6.01943 5.71561 6.02102 5.53835 6.01943C5.18214 6.01587 4.9612 5.80988 4.95532 5.47357C4.95196 5.29571 4.95154 5.11746 4.95532 4.9396C4.96246 4.61795 5.17794 4.41434 5.51861 4.40721C5.69629 4.40364 5.87397 4.40642 6.06215 4.40642C6.11718 4.21667 6.17052 4.03287 6.22891 3.83204C6.08189 3.75163 5.929 3.66844 5.77694 3.58446C5.46862 3.41413 5.38335 3.1305 5.55515 2.83856C5.64924 2.67892 5.74459 2.51968 5.84499 2.36321C6.01427 2.099 6.31922 2.02096 6.6057 2.16911C6.76574 2.2519 6.92242 2.34063 7.07027 2.42105C7.15428 2.34816 7.23157 2.2828 7.3076 2.21586C7.38027 2.15208 7.45126 2.08712 7.53065 2.01661C7.44118 1.86964 7.35171 1.72545 7.26518 1.57968C7.09128 1.28695 7.17151 1.00134 7.47646 0.830612C7.6386 0.7399 7.80158 0.650376 7.96624 0.564021C8.26112 0.409929 8.56524 0.485589 8.73872 0.757329C8.83323 0.904687 8.92228 1.05521 9.01385 1.20416C9.21925 1.15108 9.41458 1.10077 9.62082 1.04729C9.62082 0.881712 9.6183 0.718905 9.62124 0.556495C9.62755 0.208302 9.84471 0.00469486 10.2114 0.001922C10.4 0.000337508 10.589 -0.00164317 10.7776 0.00231806C11.1044 0.00944828 11.3275 0.222166 11.333 0.529162C11.3359 0.701476 11.3334 0.873789 11.3334 1.04729C11.54 1.10037 11.7354 1.15028 11.9424 1.20336C12.0277 1.06393 12.1121 0.922909 12.1991 0.783077C12.3856 0.482816 12.683 0.403987 13.0014 0.570755C13.1661 0.65711 13.3299 0.745049 13.4916 0.836554C13.7835 1.00213 13.865 1.2818 13.702 1.56304C13.6147 1.71397 13.521 1.86172 13.4315 2.00829C13.4475 2.02928 13.4546 2.04235 13.4651 2.05226C13.5958 2.17981 13.7268 2.30696 13.8596 2.43531C14.0272 2.34341 14.1801 2.25745 14.3351 2.17545C14.6375 2.01621 14.9416 2.09306 15.118 2.37272C15.2172 2.52958 15.3146 2.68764 15.4079 2.84767C15.57 3.12654 15.4881 3.40898 15.1974 3.57456C15.0454 3.66131 14.8899 3.74172 14.7261 3.83045C14.7564 3.9279 14.787 4.02099 14.8139 4.11487C14.8412 4.20915 14.8647 4.30461 14.8916 4.40563C15.0802 4.40563 15.2583 4.40246 15.436 4.40642C15.7796 4.41355 15.9905 4.61319 15.9968 4.93841C16.0006 5.13132 16.0022 5.32423 15.9951 5.51675C15.9842 5.81424 15.7657 6.01309 15.4511 6.01745C15.268 6.02022 15.0848 6.01785 14.8937 6.01785C14.8387 6.20719 14.7849 6.39099 14.7265 6.59302C14.8673 6.66947 15.0109 6.74671 15.1542 6.82475C15.4978 7.01212 15.5797 7.29019 15.3856 7.61224C15.2949 7.76237 15.205 7.9133 15.1096 8.06065C14.9374 8.32685 14.6396 8.40172 14.3493 8.25198C14.1893 8.16919 14.0326 8.08006 13.8864 8.00005H13.8848ZM9.94804 9.56553C9.94804 9.66456 9.94804 9.76319 9.94804 9.86222C9.94804 9.86698 9.94804 9.87213 9.94804 9.87688C9.95434 10.0286 10.0295 10.1035 10.1913 10.1066C10.3694 10.1106 10.5475 10.1086 10.7256 10.1074C10.9289 10.1058 11.0007 10.0409 11.0041 9.84994C11.0074 9.66218 11.0078 9.47442 11.0041 9.28666C11.0015 9.16267 11.0561 9.09929 11.1876 9.07077C11.427 9.01927 11.6652 8.96144 11.8988 8.89132C12.0332 8.85092 12.1176 8.87548 12.1844 8.99154C12.2818 9.16069 12.3852 9.32706 12.4894 9.49224C12.5818 9.63841 12.6725 9.66297 12.8283 9.58256C12.9892 9.49977 13.148 9.41381 13.3055 9.32548C13.4609 9.23833 13.4895 9.1389 13.4013 8.99075C13.3017 8.82279 13.1988 8.65642 13.0938 8.49124C13.0262 8.38508 13.043 8.30308 13.1404 8.21752C13.3202 8.05947 13.4958 7.89626 13.6621 7.72593C13.7579 7.62769 13.8474 7.61422 13.965 7.68236C14.1301 7.77782 14.2985 7.86854 14.4665 7.95925C14.6417 8.05392 14.7463 8.02976 14.8463 7.87051C14.9345 7.73029 15.0206 7.58927 15.1046 7.44666C15.1991 7.28584 15.1735 7.19671 15.0046 7.10322C14.8286 7.00538 14.6514 6.91071 14.4733 6.81603C14.3657 6.75899 14.3367 6.68571 14.375 6.56925C14.4493 6.34346 14.5127 6.1141 14.5699 5.88396C14.6001 5.76155 14.6648 5.70808 14.7984 5.71164C15.0025 5.71679 15.2071 5.7164 15.4112 5.71164C15.5931 5.70729 15.6662 5.6344 15.6687 5.46288C15.6712 5.29492 15.6712 5.12697 15.6687 4.95861C15.6662 4.78709 15.5914 4.71579 15.41 4.71341C15.2004 4.71104 14.9908 4.71024 14.7812 4.71341C14.6602 4.71539 14.6014 4.65954 14.5732 4.55338C14.5111 4.31927 14.4502 4.08437 14.375 3.85383C14.3372 3.73776 14.3649 3.66487 14.4733 3.60744C14.656 3.51118 14.8383 3.41334 15.0176 3.31232C15.1697 3.22637 15.1957 3.13526 15.1113 2.98909C15.0235 2.83737 14.9324 2.68724 14.8387 2.53909C14.7442 2.38975 14.6467 2.36559 14.4842 2.45155C14.3061 2.54583 14.1292 2.64208 13.9549 2.7423C13.8407 2.80806 13.7562 2.78825 13.6663 2.69675C13.5025 2.53077 13.3341 2.36717 13.1543 2.21625C13.0367 2.11722 13.0266 2.0277 13.1068 1.90727C13.2097 1.75279 13.3047 1.59315 13.3992 1.43391C13.4882 1.28378 13.4614 1.18197 13.3097 1.09641C13.1526 1.00768 12.9934 0.92172 12.833 0.838535C12.6813 0.759706 12.5792 0.785454 12.4906 0.925285C12.386 1.09047 12.2827 1.25684 12.1865 1.42678C12.1205 1.54363 12.0357 1.57215 11.9021 1.53294C11.6677 1.46441 11.4308 1.40261 11.1918 1.35033C11.0549 1.32022 10.9982 1.25446 11.002 1.12374C11.0074 0.931227 11.007 0.738315 11.002 0.545403C10.9973 0.384973 10.9268 0.318821 10.7613 0.315652C10.5727 0.31169 10.3841 0.31169 10.1955 0.315652C10.0228 0.318821 9.94972 0.390123 9.94762 0.554118C9.9451 0.74188 9.94132 0.930039 9.94888 1.11741C9.95476 1.25724 9.89008 1.32141 9.74936 1.3527C9.51539 1.4042 9.28352 1.46441 9.05459 1.53215C8.92228 1.57136 8.83533 1.54839 8.76812 1.43113C8.67361 1.26595 8.57196 1.10473 8.47072 0.943111C8.36907 0.780304 8.27246 0.756933 8.09478 0.85121C7.9444 0.931227 7.79402 1.01124 7.64574 1.09522C7.4878 1.18475 7.46134 1.27783 7.55123 1.42995C7.65078 1.5979 7.75328 1.76467 7.85871 1.92946C7.92634 2.03522 7.91332 2.11643 7.8146 2.20278C7.63062 2.36401 7.45378 2.53236 7.28072 2.70388C7.19461 2.78944 7.11144 2.80727 7.00349 2.74626C6.8237 2.64486 6.64308 2.54543 6.45994 2.44917C6.30662 2.36836 6.20707 2.39292 6.11676 2.53394C6.02225 2.6817 5.93236 2.83262 5.84373 2.98354C5.75635 3.13288 5.7845 3.22874 5.94202 3.31629C6.11802 3.41413 6.29444 3.51039 6.47338 3.60308C6.58343 3.65972 6.61368 3.73618 6.57881 3.84947C6.50783 4.0812 6.4402 4.31412 6.37929 4.54863C6.34947 4.66311 6.2873 4.71658 6.16044 4.71381C5.9563 4.70945 5.75173 4.71104 5.54759 4.71341C5.36235 4.71539 5.2901 4.78194 5.28716 4.95426C5.28464 5.12221 5.28506 5.29017 5.28716 5.45852C5.28926 5.64153 5.35815 5.70887 5.55221 5.71204C5.75131 5.7156 5.95084 5.71838 6.14952 5.71125C6.2936 5.7061 6.35409 5.76908 6.38517 5.89386C6.44146 6.11925 6.50741 6.34227 6.57629 6.5645C6.61284 6.68215 6.58722 6.76256 6.46876 6.82277C6.2936 6.9115 6.12264 7.00776 5.95126 7.10283C5.7824 7.19631 5.75383 7.28742 5.84625 7.44349C5.9332 7.59006 6.02183 7.73544 6.11298 7.87963C6.20539 8.0254 6.30914 8.05115 6.46876 7.96677C6.64224 7.87487 6.81446 7.78099 6.98416 7.68355C7.1001 7.617 7.19083 7.62452 7.28744 7.72435C7.45378 7.89507 7.6281 8.05947 7.80872 8.21673C7.9129 8.30744 7.9255 8.39023 7.85283 8.50154C7.74824 8.66118 7.65078 8.82478 7.55333 8.98837C7.4584 9.14841 7.48486 9.23635 7.65414 9.33063C7.80284 9.41342 7.95238 9.49502 8.10318 9.57464C8.27792 9.66654 8.36361 9.64475 8.4661 9.48274C8.56272 9.33023 8.65513 9.17534 8.75048 9.02165C8.85717 8.84934 8.88658 8.84181 9.0924 8.90559C9.2264 8.94718 9.36165 8.986 9.49859 9.01848C9.94552 9.12425 9.94594 9.12266 9.94594 9.56513L9.94804 9.56553Z" fill="#410EAD"/>
<path d="M12.0718 11.8986C12.1432 11.8713 12.2243 11.8408 12.3049 11.8091C13.0963 11.497 13.8864 11.182 14.6799 10.8739C15.0306 10.7376 15.4104 10.8374 15.625 11.1076C15.843 11.3817 15.8569 11.754 15.6288 12.0151C15.5292 12.1288 15.3877 12.2203 15.247 12.2896C14.0225 12.8925 12.7939 13.4879 11.5661 14.0852C11.1523 14.2869 10.7398 14.4905 10.3244 14.6889C9.44942 15.1068 8.57488 15.1052 7.70369 14.6774C7.26264 14.4608 6.8157 14.2536 6.38683 14.0175C5.98064 13.7937 5.54463 13.6962 5.08509 13.6756C4.75577 13.661 4.42519 13.6657 4.09545 13.6685C4.04547 13.6685 3.97826 13.6895 3.94801 13.7236C3.75899 13.9375 3.5162 14.0306 3.22763 14.0207C3.11925 14.0171 3.04995 14.0389 2.9861 14.1347C2.86428 14.3174 2.6719 14.4089 2.44213 14.4101C1.85028 14.4132 1.25801 14.4156 0.665736 14.4101C0.273408 14.4061 0.00205513 14.1248 0.00121503 13.7283C-0.000885223 12.6212 0.000374911 11.5144 0.000374911 10.4072C0.000374911 10.3874 0.00037502 10.3676 0.00163517 10.3478C0.0171771 9.98417 0.29105 9.72392 0.674977 9.72114C1.26179 9.71679 1.8486 9.71956 2.43541 9.72035C2.67946 9.72075 2.87394 9.8178 3.0008 10.0127C3.05289 10.0931 3.11001 10.1169 3.20284 10.1105C3.46664 10.0927 3.6964 10.1648 3.89173 10.3403C3.92827 10.3732 4.00892 10.3858 4.06143 10.3751C4.4588 10.2931 4.86961 10.2401 5.24639 10.1042C5.63032 9.96555 5.9966 9.95327 6.38221 10.0376C7.01901 10.1771 7.6159 10.4191 8.18801 10.7083C8.76936 11.0022 9.3902 11.1274 10.0375 11.1785C10.4651 11.2121 10.8927 11.2533 11.3187 11.3037C11.6518 11.3429 11.8857 11.5176 12.0138 11.8135C12.0235 11.836 12.0336 11.8586 12.0445 11.8808C12.0462 11.8844 12.0525 11.8864 12.0718 11.899V11.8986ZM4.11393 13.3508C4.37185 13.3508 4.60749 13.3461 4.8423 13.3516C5.49506 13.3671 6.11632 13.4807 6.68549 13.8131C7.04505 14.023 7.43318 14.189 7.8066 14.3784C8.611 14.786 9.41414 14.7891 10.224 14.3895C10.9381 14.0369 11.656 13.6919 12.3721 13.3433C13.2929 12.8953 14.2132 12.4461 15.1348 11.9992C15.2965 11.9208 15.4255 11.8222 15.4532 11.6415C15.5091 11.2747 15.1575 11.0248 14.7799 11.1706C14.1069 11.4304 13.4361 11.6954 12.7674 11.9644C12.4158 12.1058 12.0584 12.2211 11.7689 12.4908C11.5144 12.7281 11.1422 12.7733 10.7911 12.8101C9.90644 12.9024 9.03525 12.7955 8.16701 12.6489C8.04813 12.6287 7.9427 12.5891 7.97294 12.4512C8.00109 12.3229 8.11282 12.3249 8.22371 12.3403C8.60134 12.3934 8.97813 12.4556 9.35743 12.4964C9.91106 12.5562 10.4685 12.578 11.0137 12.4488C11.2317 12.3974 11.4354 12.286 11.64 12.1918C11.729 12.1506 11.7492 12.0717 11.7177 11.9759C11.653 11.777 11.5203 11.6467 11.3027 11.619C10.9448 11.5734 10.5857 11.5298 10.2257 11.5069C9.41246 11.455 8.63704 11.3005 7.90826 10.9289C7.4924 10.7166 7.03875 10.5657 6.59224 10.4124C6.15454 10.2618 5.72315 10.2381 5.26655 10.4282C4.90909 10.5768 4.50416 10.6231 4.11436 10.7162V13.3516L4.11393 13.3508ZM2.78321 12.0682C2.78321 11.5199 2.78405 10.9717 2.78321 10.4235C2.78279 10.145 2.65678 10.0262 2.36316 10.0254C1.82886 10.0242 1.29497 10.0246 0.760667 10.0254C0.459491 10.0258 0.327595 10.1482 0.327175 10.4286C0.326335 11.5199 0.326335 12.6117 0.327175 13.703C0.327175 13.9779 0.45529 14.0995 0.750166 14.1007C1.28447 14.1027 1.81836 14.1027 2.35266 14.1007C2.66014 14.0999 2.78279 13.9842 2.78321 13.6974C2.78405 13.1543 2.78321 12.6109 2.78321 12.0678V12.0682ZM3.12261 13.6915C3.52964 13.7442 3.78461 13.5703 3.7863 13.2407C3.79008 12.456 3.79008 11.6713 3.7863 10.8865C3.78461 10.5526 3.46916 10.3446 3.12261 10.4445V13.6915Z" fill="#410EAD"/>
<path d="M10.4855 2.27247C12.2082 2.27524 13.6002 3.59473 13.5964 5.22121C13.5926 6.84016 12.1834 8.15846 10.4633 8.15212C8.75071 8.14579 7.36076 6.8259 7.36328 5.20734C7.36538 3.57928 8.75869 2.2693 10.4859 2.27247H10.4855ZM13.2671 5.21883C13.2751 3.77853 12.0284 2.58818 10.5027 2.57867C8.96536 2.56916 7.69806 3.74288 7.68714 5.18675C7.67622 6.64329 8.91915 7.82968 10.4687 7.84117C11.999 7.85226 13.2591 6.67142 13.2671 5.21883Z" fill="#410EAD"/>
<path d="M11.584 5.85418C11.665 6.26971 11.5974 6.39608 11.2038 6.59018C10.9951 6.69317 10.7884 6.79933 10.5784 6.89995C10.2721 7.04651 9.98777 6.95937 9.82227 6.67297C9.7223 6.49973 9.57206 6.44308 9.37156 6.50303C9.30183 6.52403 9.23252 6.54661 9.16195 6.56443C8.89732 6.63138 8.66545 6.54621 8.53103 6.32398C8.43022 6.15682 8.33529 5.98609 8.24708 5.81259C8.12779 5.57808 8.17651 5.34873 8.3941 5.18751C9.32115 4.50142 10.2507 3.81811 11.1845 3.13994C11.4567 2.94228 11.8133 3.01715 11.9767 3.30315C12.2724 3.82009 12.5618 4.3402 12.8437 4.86387C13.0029 5.16017 12.8571 5.46875 12.519 5.57531C12.2119 5.67196 11.9019 5.7603 11.584 5.85497V5.85418ZM12.5753 5.07342C12.566 5.05045 12.5543 5.00727 12.5329 4.96845C12.2573 4.47013 11.9822 3.9718 11.7028 3.47506C11.6197 3.32731 11.4941 3.30236 11.3538 3.40495C10.4444 4.07044 9.53706 4.7387 8.62807 5.40458C8.50835 5.49212 8.48819 5.59116 8.56044 5.71475C8.63143 5.83556 8.69611 5.95955 8.76416 6.08156C8.8801 6.28992 8.9284 6.30933 9.16111 6.2408C9.52026 6.13543 9.8794 6.03006 10.2385 5.9243C10.9417 5.71712 11.6445 5.50955 12.3476 5.30317C12.4623 5.2695 12.5681 5.23029 12.5749 5.07303L12.5753 5.07342ZM11.2307 5.95678C10.8266 6.07601 10.42 6.19604 9.99911 6.32002C10.0436 6.40083 10.0802 6.47015 10.1197 6.53829C10.1894 6.6591 10.2906 6.69159 10.4213 6.62741C10.6712 6.50462 10.922 6.3834 11.169 6.25545C11.3114 6.18178 11.3244 6.1073 11.2307 5.95678Z" fill="#410EAD"/>
</svg>
