<svg width="15" height="14" viewBox="0 0 15 14" fill="none" xmlns="http://www.w3.org/2000/svg">
<path d="M0 5.39927C0 4.8757 0 4.35173 0 3.82816C0.02582 3.68876 0.0430334 3.54697 0.0786337 3.40994C0.341528 2.39884 0.605988 1.38814 0.873968 0.378618C0.947125 0.102972 1.104 0 1.42206 0C5.46719 0 9.51233 0 13.5575 0C13.9205 0 14.0504 0.103368 14.1451 0.46456C14.2464 0.850703 14.3481 1.23645 14.4502 1.6222C14.5899 2.15092 14.7264 2.68082 14.8712 3.20796C15.0515 3.86302 14.9901 4.53233 14.9893 5.19689C14.9885 5.96878 14.5046 6.66028 13.7895 6.93117C13.6647 6.9787 13.6361 7.03771 13.6365 7.16365C13.6408 8.82347 13.6416 10.4833 13.6388 12.1427C13.6373 13.2101 12.8584 13.999 11.8095 13.9994C8.93568 14.0006 6.06144 13.9998 3.1876 13.9994C3.08549 13.9994 2.98182 13.9986 2.88128 13.9816C1.97562 13.8267 1.35672 13.0916 1.35516 12.1613C1.35203 10.4869 1.3532 8.81238 1.35672 7.13751C1.35672 7.02662 1.3266 6.9783 1.22097 6.93751C0.67445 6.72721 0.301625 6.3379 0.104062 5.78066C0.0602467 5.6567 0.0344267 5.5264 0.000391212 5.39888L0 5.39927ZM9.46734 13.0516C9.53111 13.0516 9.57453 13.0516 9.61795 13.0516C10.3452 13.0516 11.0725 13.0528 11.7994 13.0516C12.342 13.0504 12.6968 12.6932 12.7019 12.1439C12.7038 11.9217 12.7023 11.6991 12.7023 11.477C12.7023 10.0492 12.7007 8.62109 12.705 7.19335C12.705 7.06701 12.6815 7.00365 12.5485 6.96681C12.2614 6.888 12.0169 6.72523 11.8037 6.51493C11.7739 6.48562 11.7422 6.45829 11.7113 6.43017C11.0197 7.19375 9.76896 7.34464 8.89499 6.43176C8.5163 6.8377 8.0531 7.05989 7.49641 7.06068C6.93893 7.06107 6.47769 6.83454 6.09118 6.42582C5.70309 6.8377 5.24068 7.06068 4.6832 7.06068C4.12572 7.06068 3.66527 6.83256 3.27836 6.42463C3.03581 6.68523 2.76118 6.8781 2.43021 6.97275C2.32302 7.00325 2.28859 7.05038 2.28859 7.16523C2.2929 8.81555 2.29094 10.4655 2.29172 12.1158C2.29172 12.6964 2.64107 13.0512 3.21029 13.0516C3.92777 13.0524 4.64526 13.0516 5.36235 13.0516C5.4136 13.0516 5.46484 13.0469 5.52626 13.0437C5.52626 12.9697 5.52626 12.9106 5.52626 12.852C5.52783 11.7997 5.51805 10.7471 5.53487 9.69516C5.54583 9.01159 6.08922 8.40366 6.76054 8.33911C7.21982 8.29475 7.68576 8.32129 8.14895 8.3197C8.21155 8.3197 8.27492 8.33515 8.33634 8.3498C9.02214 8.51416 9.46343 9.08724 9.46655 9.83021C9.47086 10.8381 9.46773 11.8461 9.46773 12.854C9.46773 12.9126 9.46773 12.9708 9.46773 13.0524L9.46734 13.0516ZM1.08209 3.25667H13.9115C13.7237 2.54458 13.5344 1.84596 13.3583 1.14417C13.3208 0.994863 13.2691 0.943773 13.1087 0.94417C9.46382 0.95011 5.81928 0.948526 2.17436 0.949318C2.01513 0.949318 1.81444 0.904169 1.70842 0.983378C1.60906 1.05744 1.6071 1.26813 1.56681 1.41982C1.40523 2.02893 1.24523 2.63805 1.08209 3.25667ZM6.46322 13.0421H8.52178C8.52491 13.0101 8.5296 12.9867 8.5296 12.9629C8.5296 11.9059 8.53195 10.8492 8.52843 9.79219C8.52725 9.47774 8.31287 9.26387 8.00186 9.25793C7.68967 9.25199 7.37748 9.25595 7.06529 9.25635C6.66078 9.25714 6.464 9.45556 6.46361 9.86586C6.46283 10.8734 6.46361 11.8809 6.46361 12.8885C6.46361 12.9368 6.46361 12.9847 6.46361 13.0421H6.46322ZM0.94243 4.22302C0.94243 4.57867 0.920523 4.92917 0.947907 5.27571C0.983899 5.73353 1.37394 6.08997 1.81327 6.11096C2.28664 6.13314 2.70171 5.83056 2.78113 5.36719C2.82299 5.12244 2.8046 4.86659 2.81086 4.6159C2.81399 4.4852 2.81125 4.35451 2.81125 4.22342H0.94243V4.22302ZM3.74899 4.22262C3.74899 4.5549 3.74429 4.87055 3.75016 5.1858C3.75877 5.66581 4.1312 6.06977 4.59361 6.10938C5.07794 6.15096 5.52196 5.83848 5.59316 5.35412C5.64089 5.03055 5.61585 4.6955 5.62211 4.36599C5.62289 4.31886 5.61781 4.27134 5.61507 4.22262H3.74899ZM6.56024 4.22262C6.56024 4.5549 6.55554 4.87055 6.56141 5.1858C6.57041 5.66581 6.94284 6.06977 7.40487 6.10938C7.88958 6.15096 8.33321 5.83848 8.40441 5.35412C8.45214 5.03055 8.4271 4.6955 8.43336 4.36599C8.43415 4.31886 8.42906 4.27134 8.42632 4.22262H6.56024ZM11.2415 4.22698H9.37188C9.37188 4.55807 9.36562 4.87847 9.37345 5.19848C9.38518 5.68759 9.78344 6.09393 10.2576 6.11136C10.7673 6.13037 11.2035 5.76284 11.2376 5.2563C11.2603 4.91808 11.2419 4.57708 11.2419 4.22738L11.2415 4.22698ZM12.1824 4.22302C12.1824 4.55094 12.1788 4.86144 12.1831 5.17194C12.1898 5.66185 12.5603 6.06977 13.0282 6.10938C13.5187 6.15096 13.9608 5.83373 14.0304 5.33907C14.0766 5.00996 14.0508 4.67055 14.0559 4.3355C14.0563 4.29827 14.0488 4.26064 14.0449 4.22302H12.1824Z" fill="#410EAD"/>
</svg>
