<svg width="15" height="15" viewBox="0 0 15 15" fill="none" xmlns="http://www.w3.org/2000/svg">
<path d="M10.4302 9.71519C10.1575 9.51706 9.86985 9.33306 9.6137 9.11193C9.48138 8.99773 9.36319 8.94285 9.19053 8.9485C8.80852 8.96061 8.42569 8.95052 8.04287 8.95294C7.92387 8.95375 7.82342 8.92793 7.76493 8.81292C7.70845 8.70155 7.75404 8.61035 7.81898 8.51997C8.09491 8.13541 8.37002 7.75086 8.64232 7.36388C8.67499 7.31748 8.70283 7.25816 8.70767 7.20248C8.73711 6.86392 8.7593 6.52497 8.78391 6.18399C8.63707 6.20901 8.45716 6.2417 8.27643 6.26994C8.20705 6.28084 8.13404 6.29738 8.06667 6.28689C7.80648 6.24654 7.6076 6.35468 7.40913 6.50842C7.10699 6.74246 6.78871 6.95552 6.47809 7.17907C6.38773 7.24404 6.29656 7.28802 6.18523 7.23234C6.06945 7.17423 6.04565 7.07295 6.04646 6.95431C6.04847 6.52618 6.04888 6.09804 6.04525 5.66991C6.04484 5.61503 6.03153 5.5428 5.99603 5.5085C5.71729 5.23935 5.49663 4.93026 5.33608 4.57798C5.33043 4.56588 5.31792 4.557 5.33487 4.57597C5.0662 4.81969 4.81206 5.07754 4.52847 5.29786C4.353 5.43425 4.13113 5.51011 3.93467 5.62108C3.85964 5.66345 3.78058 5.7151 3.73096 5.78249C3.52805 6.05809 3.33724 6.34258 3.13918 6.62181C2.99073 6.83164 2.82009 6.83003 2.67043 6.61858C2.46712 6.33087 2.26865 6.03953 2.0617 5.75424C2.02338 5.70138 1.96287 5.65296 1.90196 5.62956C0.665547 5.1534 -0.106958 3.94446 0.0120439 2.6649C0.135887 1.33006 1.10485 0.276063 2.42315 0.0424248C3.66722 -0.177897 4.94075 0.476208 5.5051 1.62584C5.52487 1.66619 5.54544 1.70614 5.57489 1.76465C6.0158 1.1408 6.59387 0.730829 7.32765 0.561351C8.05941 0.39268 8.75648 0.498402 9.4128 0.864394C10.406 1.41762 11.1777 2.69476 10.7642 4.21199C12.3959 3.9033 13.6686 4.40851 14.2991 5.9903C14.8445 7.35743 14.3778 8.51714 13.2866 9.39964C13.5686 9.61472 13.8978 9.80518 14.1507 10.0691C14.9672 10.9213 15.2084 11.9398 14.8159 13.0523C14.4218 14.1696 13.5972 14.8181 12.4181 14.9694C11.0671 15.1425 9.77909 14.3137 9.3406 13.0236C9.31437 12.947 9.24943 12.8695 9.18125 12.8243C8.92106 12.6528 8.65119 12.4958 8.38696 12.3304C8.16631 12.192 8.16671 11.9975 8.38858 11.8587C8.66127 11.688 8.9376 11.5222 9.2099 11.3503C9.25346 11.3228 9.30348 11.2817 9.31841 11.2361C9.52616 10.5961 9.90576 10.0844 10.4306 9.71479L10.4302 9.71519ZM6.53094 6.54716C6.86737 6.30666 7.17113 6.08271 7.48336 5.87207C7.55556 5.82325 7.66045 5.79419 7.74718 5.80065C8.19455 5.83495 8.61973 5.76231 9.02151 5.5658C9.08525 5.53473 9.14656 5.48066 9.1865 5.42215C9.41038 5.09328 9.6851 4.81808 10.0147 4.59534C10.0732 4.55579 10.1256 4.49244 10.1563 4.42868C10.3668 3.99127 10.4342 3.53166 10.3721 3.04824C10.1966 1.68556 8.82828 0.713881 7.48941 1.01975C6.5269 1.23967 5.88712 1.83405 5.64266 2.78918C5.40143 3.7314 5.67332 4.54853 6.39297 5.20788C6.48979 5.29665 6.53537 5.39148 6.53295 5.52383C6.5269 5.85432 6.53094 6.1852 6.53094 6.54756V6.54716ZM13.5379 14.0175C13.588 13.9816 13.6134 13.9671 13.6348 13.9481C14.2895 13.3715 14.5892 12.6508 14.4799 11.7808C14.3363 10.6405 13.4145 9.76846 12.2826 9.6821C11.1385 9.59454 10.0921 10.316 9.77384 11.4201C9.73431 11.5573 9.66452 11.648 9.5435 11.7175C9.341 11.8341 9.14495 11.9616 8.92792 12.096C9.1506 12.234 9.34826 12.3623 9.55157 12.4797C9.66815 12.5471 9.72866 12.6387 9.77505 12.7654C9.85573 12.9857 9.95134 13.204 10.0675 13.4074C10.2043 13.6463 10.3951 13.8436 10.6387 14.022C10.6387 13.7613 10.6347 13.5301 10.6395 13.2993C10.6504 12.7969 10.8638 12.3998 11.2721 12.1077C11.3068 12.0826 11.341 12.0568 11.3753 12.0314C11.0304 11.5419 11.0429 11.0504 11.4003 10.6877C11.7259 10.3572 12.2515 10.3059 12.6319 10.567C12.8263 10.7006 12.9566 10.8818 13.0192 11.1077C13.1152 11.4531 13.0184 11.7594 12.7989 12.0354C13.2596 12.3276 13.5137 12.7287 13.5359 13.2625C13.546 13.503 13.5375 13.7443 13.5375 14.0179L13.5379 14.0175ZM8.4507 8.46872C8.80246 8.46872 9.11913 8.47598 9.43539 8.46589C9.59595 8.46065 9.7093 8.51351 9.81499 8.63376C10.1288 8.99047 10.5205 9.22855 10.9808 9.34597C11.0437 9.36211 11.1204 9.35929 11.1825 9.33992C11.5911 9.20998 12.0054 9.16277 12.433 9.21644C12.5165 9.22693 12.617 9.21119 12.6908 9.17205C13.5125 8.73545 13.9736 8.04745 14.0144 7.11935C14.0821 5.57185 12.7388 4.396 11.2051 4.63206C10.0001 4.81767 9.08847 5.97053 9.1982 7.18311C9.21272 7.3425 9.1752 7.46355 9.08363 7.58703C8.87427 7.86869 8.67378 8.1568 8.4503 8.46912L8.4507 8.46872ZM2.90682 6.11136C3.08149 5.86158 3.23155 5.62875 3.40179 5.41166C3.47117 5.32288 3.57363 5.24137 3.67852 5.20183C4.2945 4.97021 4.76244 4.57516 5.06096 3.98723C5.09686 3.91621 5.11542 3.82219 5.10493 3.74391C5.04724 3.30569 5.09847 2.88159 5.23402 2.46354C5.25136 2.41068 5.25056 2.34491 5.23684 2.29043C4.98996 1.30141 4.09361 0.557316 3.07584 0.492349C1.84427 0.414066 0.773657 1.23926 0.529602 2.45507C0.295229 3.62406 0.988668 4.80274 2.13754 5.20304C2.23799 5.23814 2.33722 5.31764 2.40338 5.40278C2.57563 5.62391 2.72973 5.85916 2.90601 6.11095L2.90682 6.11136ZM11.1111 13.7173C11.1147 13.7173 11.1188 13.7173 11.1224 13.7177C11.1224 13.884 11.1159 14.0502 11.1264 14.216C11.1293 14.2616 11.1724 14.3282 11.2132 14.3444C11.7953 14.5715 12.381 14.5715 12.9631 14.344C13.0042 14.3278 13.0506 14.2612 13.0514 14.2173C13.0587 13.9001 13.0615 13.5829 13.0527 13.2658C13.0393 12.7852 12.6573 12.3861 12.1793 12.3409C11.694 12.2949 11.2422 12.6189 11.1506 13.1019C11.1127 13.3025 11.1228 13.5119 11.1111 13.7177V13.7173ZM12.5714 11.3728C12.5726 11.1094 12.358 10.8902 12.0954 10.8874C11.8255 10.8842 11.6049 11.1045 11.6065 11.3753C11.6081 11.6368 11.8287 11.8547 12.0901 11.8534C12.354 11.8518 12.5702 11.6363 12.5714 11.3728Z" fill="#410EAD"/>
<path d="M1.10007 12.3367C0.922978 12.1164 0.927013 12.0417 1.12508 11.8432C1.45909 11.5083 1.79553 11.1754 2.12671 10.8376C2.1848 10.7783 2.23442 10.7045 2.2671 10.6282C2.49905 10.0823 2.72778 9.53509 2.94964 8.98509C2.97586 8.91972 2.97788 8.82852 2.95489 8.76154C2.84032 8.42944 2.9444 8.07435 3.22637 7.87662C3.514 7.67486 3.8944 7.69342 4.15903 7.93473C4.33733 8.09735 4.50353 8.27368 4.67417 8.44437C5.37164 9.14206 6.07073 9.83813 6.76578 10.5386C7.17805 10.9543 7.0534 11.6011 6.52777 11.8008C6.34544 11.8703 6.16552 11.8642 5.98238 11.7988C5.93155 11.7807 5.86257 11.7746 5.81457 11.794C5.224 12.0349 4.63544 12.2814 4.04648 12.5272C4.02833 12.5349 4.01259 12.5482 3.97629 12.5716C4.01542 12.6147 4.0489 12.6543 4.08521 12.691C4.45472 13.0618 4.82544 13.4315 5.19495 13.8023C5.36962 13.9774 5.36841 14.0844 5.19172 14.2623C4.98962 14.4657 4.78671 14.6687 4.5834 14.8712C4.40873 15.0447 4.30183 15.0435 4.12434 14.8664C3.76088 14.5036 3.39782 14.1409 3.03597 13.7765C2.99724 13.7377 2.97062 13.6873 2.94279 13.6486C2.66283 13.831 2.64226 13.831 2.41434 13.6595C2.18601 13.9117 1.90727 14.0646 1.55349 14.025C1.32597 13.9996 1.13113 13.9 0.975017 13.7297C0.615994 13.337 0.655123 12.8819 1.10007 12.3375V12.3367ZM3.35748 9.29862C3.35748 9.29862 3.3482 9.30185 3.34457 9.30992C3.14206 9.79172 2.93835 10.2727 2.74311 10.7573C2.72778 10.7957 2.75682 10.8728 2.7903 10.9071C3.13884 11.2634 3.49423 11.6124 3.84276 11.9683C3.91175 12.0389 3.96862 12.0422 4.05334 12.0042C4.28287 11.9021 4.51603 11.8085 4.74758 11.7117C4.99083 11.61 5.23368 11.5079 5.46724 11.4098C4.75727 10.6992 4.05818 9.99954 3.35748 9.29822V9.29862ZM3.64026 8.18612C3.55595 8.2644 3.46599 8.32009 3.41597 8.4012C3.35022 8.50732 3.39661 8.61587 3.48172 8.70101C4.33773 9.55849 5.19374 10.4164 6.05177 11.2722C6.18085 11.401 6.3406 11.4022 6.45274 11.2872C6.56408 11.173 6.55884 11.0164 6.42854 10.8861C5.58019 10.035 4.73064 9.18483 3.87867 8.33704C3.82179 8.28054 3.74071 8.24826 3.64026 8.18612ZM3.491 12.3436C3.13117 11.9828 2.77054 11.6213 2.42604 11.2759C2.15374 11.5478 1.87096 11.8299 1.61158 12.0886C1.96334 12.442 2.32599 12.8064 2.67735 13.1595C2.94359 12.8924 3.22274 12.6123 3.491 12.3436ZM4.70039 14.0626C4.33128 13.6845 3.97185 13.3165 3.63381 12.9702C3.514 13.0784 3.38854 13.1918 3.28971 13.281C3.65478 13.6522 4.01501 14.019 4.37404 14.3846C4.48578 14.2744 4.60317 14.1582 4.70039 14.0626ZM1.45062 12.695C1.28805 12.827 1.18196 12.9799 1.23682 13.2007C1.28442 13.3907 1.41109 13.5045 1.60109 13.5332C1.80601 13.5642 1.95285 13.4646 2.06338 13.3072C1.85805 13.1026 1.65998 12.9049 1.45022 12.695H1.45062Z" fill="#410EAD"/>
<path d="M6.90284 2.42326C7.27558 2.53866 7.44218 2.33004 7.55473 2.01853C7.60031 1.89182 7.67655 1.77601 7.73383 1.65334C7.78466 1.54399 7.85969 1.46853 7.98555 1.46974C8.11141 1.47135 8.18201 1.55125 8.23364 1.65899C8.33127 1.86317 8.44462 2.06009 8.53175 2.26871C8.58621 2.39945 8.66366 2.43335 8.79557 2.42608C8.99122 2.41519 9.18808 2.42528 9.38413 2.42245C9.50555 2.42084 9.60237 2.45675 9.65239 2.57538C9.70322 2.69644 9.65078 2.78885 9.56687 2.87237C9.40632 3.03217 9.2502 3.1964 9.08481 3.35095C9.01099 3.41995 8.99606 3.47765 9.0364 3.57288C9.16065 3.86382 9.27279 4.16001 9.39301 4.45296C9.44343 4.57563 9.45231 4.68983 9.34218 4.78264C9.23124 4.87625 9.12071 4.84276 9.00857 4.77416C8.70844 4.59056 8.40428 4.41342 8.10577 4.22699C8.01823 4.17211 7.95288 4.16687 7.86131 4.22457C7.564 4.41261 7.25863 4.58774 6.9581 4.77134C6.84152 4.84276 6.72655 4.87948 6.61239 4.77699C6.50509 4.68095 6.52203 4.56595 6.57205 4.44489C6.68702 4.16606 6.79069 3.88279 6.91292 3.60718C6.96698 3.48492 6.94761 3.40986 6.8504 3.3227C6.68944 3.17824 6.5426 3.01845 6.38931 2.86592C6.30863 2.78602 6.26144 2.69563 6.30662 2.58144C6.35341 2.4628 6.44821 2.42003 6.57084 2.42245C6.68137 2.42487 6.79231 2.42285 6.90284 2.42285V2.42326ZM8.69674 4.01837C8.62131 3.82952 8.56887 3.68385 8.50473 3.54383C8.43615 3.39372 8.46398 3.27468 8.58581 3.16654C8.66851 3.0927 8.74273 3.00876 8.84277 2.90708C8.74394 2.90708 8.68303 2.90022 8.62453 2.90829C8.39581 2.94057 8.2526 2.84897 8.17273 2.63107C8.12634 2.50436 8.05373 2.38694 7.98031 2.24087C7.90689 2.38855 7.84073 2.4971 7.79757 2.61372C7.71487 2.83888 7.57086 2.94783 7.326 2.90829C7.26952 2.89941 7.21023 2.90708 7.10776 2.90708C7.22112 3.01683 7.30018 3.09875 7.3849 3.17421C7.50228 3.27912 7.52286 3.39776 7.45993 3.5406C7.39619 3.68547 7.34173 3.83396 7.2667 4.0216C7.47606 3.8961 7.64872 3.79643 7.81693 3.69071C7.92706 3.62131 8.02952 3.61808 8.14046 3.68708C8.31069 3.7928 8.48456 3.89288 8.69634 4.01877L8.69674 4.01837Z" fill="#410EAD"/>
<path d="M11.6061 5.94536C11.8324 5.71293 12.0938 5.57492 12.4116 5.56726C13.1055 5.55031 13.615 6.13783 13.5299 6.85731C13.4451 7.57477 13.0942 8.12194 12.473 8.49156C12.2398 8.63037 12.0006 8.7595 11.7666 8.8971C11.6549 8.96287 11.5532 8.96207 11.4411 8.89589C11.1946 8.74941 10.9396 8.61746 10.6968 8.46574C10.0526 8.06302 9.70767 7.47792 9.6754 6.7185C9.65564 6.24799 9.90695 5.84084 10.3192 5.66531C10.7605 5.47687 11.1643 5.55475 11.5242 5.86949C11.5468 5.88927 11.5681 5.91065 11.6061 5.94616V5.94536ZM10.1554 6.5922C10.1607 7.2229 10.4455 7.73537 10.9029 8.02429C11.1067 8.15301 11.318 8.26963 11.5306 8.38382C11.5702 8.40521 11.6399 8.40763 11.6787 8.38665C11.8993 8.2668 12.1228 8.14938 12.3306 8.00936C12.8009 7.69219 13.0426 7.23985 13.053 6.6729C13.0579 6.40739 12.9272 6.20926 12.6819 6.10273C12.4415 5.99822 12.2192 6.04583 12.0248 6.21854C11.9421 6.29198 11.8695 6.37631 11.788 6.45097C11.6662 6.56234 11.5472 6.56274 11.4261 6.45298C11.3519 6.38559 11.2846 6.31014 11.2115 6.24073C11.007 6.04623 10.7557 5.99539 10.5185 6.10717C10.2692 6.22419 10.1579 6.42958 10.1558 6.5926L10.1554 6.5922Z" fill="#410EAD"/>
<path d="M2.90712 4.84079C1.83489 4.83878 0.971619 3.97081 0.973636 2.89623C0.975653 1.83498 1.84538 0.972656 2.91317 0.972656C3.97168 0.972656 4.84302 1.8491 4.83939 2.90995C4.83576 3.97686 3.96926 4.84241 2.90671 4.84039L2.90712 4.84079ZM1.48635 2.65695H2.65459V2.1816H1.99746C1.5989 2.1816 1.5872 2.19088 1.49483 2.5823C1.49039 2.60166 1.48998 2.62184 1.48595 2.65654L1.48635 2.65695ZM3.15158 2.65856H4.35451C4.28754 2.49473 4.25446 2.32485 4.15644 2.21065C4.1048 2.15053 3.94022 2.18402 3.82646 2.18241C3.60257 2.17958 3.37829 2.1816 3.15198 2.1816V2.65856H3.15158ZM2.65822 3.15812H1.46497C1.52024 3.305 1.56542 3.43695 1.62028 3.56487C1.63279 3.59432 1.67635 3.62902 1.7058 3.62943C2.02085 3.63427 2.33631 3.63225 2.65822 3.63225V3.15812ZM3.15521 3.63266C3.47429 3.63266 3.77603 3.63387 4.07737 3.63104C4.11166 3.63104 4.16612 3.6149 4.17701 3.59069C4.23833 3.45309 4.28916 3.31065 4.34765 3.15973H3.15521V3.63306V3.63266ZM2.15277 1.65662C2.1564 1.66711 2.16003 1.6776 2.16366 1.6881H2.6558V1.46172C2.47629 1.53113 2.31453 1.59408 2.15277 1.65662ZM3.15279 1.69092H3.65058C3.65421 1.67841 3.65784 1.6659 3.66147 1.65339C3.49729 1.59246 3.3331 1.53153 3.15279 1.46455V1.69092ZM2.65499 4.35132V4.12414H2.16245C2.15922 4.13584 2.15559 4.14714 2.15236 4.15885C2.31493 4.22099 2.4771 4.28313 2.6554 4.35132H2.65499ZM3.66026 4.16207C3.65703 4.15037 3.65381 4.13867 3.65058 4.12697H3.15843V4.35011C3.33754 4.28313 3.4989 4.2226 3.66026 4.16207Z" fill="#410EAD"/>
</svg>
