<svg width="15" height="11" viewBox="0 0 15 11" fill="none" xmlns="http://www.w3.org/2000/svg">
<path d="M0.0034934 8.30989C0.016337 7.47497 0.189062 6.66156 0.398989 5.85393C0.735138 4.56041 1.18467 3.30327 1.7334 2.0726C2.1692 1.09418 2.95797 0.555353 4.00096 0.269189C4.59753 0.10543 5.20694 0.0198295 5.82786 0.00039348C6.16578 -0.0099448 6.41645 0.184415 6.43284 0.468097C6.44923 0.754675 6.2238 0.972192 5.88588 0.98832C5.13652 1.02388 4.40355 1.12603 3.71885 1.43493C3.31405 1.61771 2.99517 1.87907 2.78569 2.25786C2.37868 2.99477 2.11029 3.77966 1.86139 4.57033C1.52967 5.62401 1.24933 6.68968 1.08236 7.77809C1.0456 8.01711 1.03763 8.26027 1.02788 8.50219C1.02567 8.55512 1.05446 8.63079 1.09742 8.66057C2.00843 9.29617 2.9903 9.79778 4.12187 9.99214C4.28131 10.0194 4.46378 9.99049 4.62233 9.94582C4.92261 9.86105 5.2158 9.9574 5.32962 10.2105C5.4461 10.4694 5.315 10.7514 5.0196 10.8701C4.54793 11.0595 4.06297 11.016 3.5882 10.9031C2.37691 10.6149 1.30513 10.0633 0.320598 9.35282C0.0761262 9.17666 0.0331665 8.92316 0.0061506 8.6647C-0.00625015 8.54726 0.00393604 8.42775 0.00393604 8.30907L0.0034934 8.30989Z" fill="#410EAD"/>
<path d="M14.9864 8.3211C14.9864 8.4344 14.9918 8.54812 14.9856 8.66143C14.9678 8.99226 14.8376 9.25898 14.5338 9.4612C13.532 10.127 12.4757 10.684 11.2613 10.9317C10.8202 11.0219 10.3738 11.0438 9.9451 10.8602C9.71922 10.7634 9.58769 10.5475 9.62268 10.3354C9.65944 10.1125 9.83836 9.94421 10.0864 9.91443C10.1603 9.90533 10.248 9.90658 10.3131 9.93511C10.6001 10.0616 10.8889 10.0195 11.1719 9.94627C12.14 9.69567 13.0161 9.26932 13.8279 8.71974C13.9342 8.64779 13.9842 8.56467 13.9665 8.44681C13.877 7.85587 13.8168 7.25915 13.6897 6.67524C13.4009 5.34615 13.0156 4.04063 12.4678 2.78143C12.4469 2.73387 12.4208 2.68797 12.4027 2.63959C12.0594 1.71576 11.2711 1.32166 10.322 1.14012C9.91277 1.06197 9.49247 1.03178 9.07616 0.990012C8.76304 0.958584 8.54425 0.74975 8.55665 0.473511C8.56861 0.204302 8.7998 -0.0078391 9.10583 0.00125859C10.0412 0.0297923 10.9473 0.185694 11.7964 0.574413C12.381 0.842381 12.8203 1.23606 13.1051 1.79309C13.7092 2.97496 14.1348 4.21349 14.49 5.47517C14.7119 6.26336 14.893 7.05941 14.9718 7.87283C14.9864 8.0217 14.9909 8.1714 15.0002 8.32068C14.9957 8.32068 14.9913 8.32068 14.9864 8.32068V8.3211Z" fill="#410EAD"/>
<path d="M11.255 9.15156C8.74957 10.2511 6.24993 10.252 3.73081 9.14908C3.71841 9.16356 3.69493 9.19002 3.67235 9.2169C3.46729 9.45716 3.12583 9.48776 2.8849 9.2781C2.48099 8.9266 2.25202 8.48991 2.19444 7.97755C2.17097 7.76747 2.26531 7.6033 2.45929 7.49826C2.667 7.38578 2.8663 7.41432 3.06471 7.53796C3.45888 7.7836 3.84374 8.04785 4.2605 8.25503C5.46869 8.85506 6.77076 9.04487 8.12555 8.95017C9.54233 8.85134 10.8046 8.38115 11.918 7.55781C12.1239 7.40522 12.3529 7.39075 12.5486 7.50943C12.7572 7.63556 12.8223 7.81834 12.7869 8.04495C12.7209 8.46469 12.534 8.82777 12.2422 9.1528C11.968 9.4584 11.5632 9.54855 11.2545 9.15198L11.255 9.15156Z" fill="#410EAD"/>
<path d="M7.63074 1.33545C9.19899 1.36481 10.6415 1.75932 11.971 2.52435C12.2088 2.66123 12.3129 2.86552 12.2575 3.08138C12.1721 3.41386 11.7938 3.55611 11.4564 3.39442C11.0153 3.18269 10.583 2.94574 10.1215 2.78322C8.41198 2.18153 6.68917 2.24026 4.98052 2.78901C4.4929 2.94574 4.02832 3.16905 3.56329 3.38036C3.25947 3.51848 2.95122 3.47175 2.794 3.22611C2.63368 2.97593 2.72801 2.68067 3.03094 2.51856C3.96897 2.01695 4.97387 1.68075 6.03724 1.51079C6.56339 1.42643 7.09928 1.39252 7.63029 1.33586L7.63074 1.33545Z" fill="#410EAD"/>
<path d="M4.30859 6.22797C4.32099 5.86902 4.42773 5.5841 4.67752 5.35459C5.07788 4.98655 5.67312 4.9882 6.0726 5.3579C6.54073 5.79128 6.55712 6.55301 6.10316 6.99962C5.83477 7.26387 5.50527 7.36932 5.12527 7.27255C4.69435 7.16296 4.46006 6.87018 4.34978 6.48146C4.32321 6.38759 4.31834 6.28876 4.30904 6.22797H4.30859Z" fill="#410EAD"/>
<path d="M8.55273 6.23231C8.56336 5.87461 8.66877 5.58927 8.91723 5.35852C9.31627 4.988 9.91194 4.98676 10.3123 5.35397C10.7827 5.78529 10.803 6.54618 10.3513 6.99528C10.0847 7.26077 9.75516 7.36828 9.37473 7.274C8.94336 7.16689 8.70686 6.87494 8.59437 6.48663C8.56735 6.39318 8.56248 6.29393 8.55273 6.2319V6.23231Z" fill="#410EAD"/>
</svg>
