<svg width="15" height="15" viewBox="0 0 15 15" fill="none" xmlns="http://www.w3.org/2000/svg">
<path d="M8.62292 12.0577C8.67017 12.0605 8.71701 12.0662 8.76426 12.0662C9.12687 12.067 9.48988 12.0637 9.8525 12.0682C10.1287 12.0714 10.3762 12.1603 10.5858 12.3441C10.7429 12.4819 10.8535 12.6532 10.8677 12.8625C10.8846 13.1134 10.8834 13.3663 10.8745 13.618C10.8689 13.7759 10.7574 13.8491 10.5628 13.8495C9.7467 13.8499 8.93062 13.8495 8.11454 13.8495C7.85934 13.8495 7.86257 13.8503 7.7915 14.0967C7.75112 14.2365 7.71276 14.3795 7.64936 14.5096C7.44625 14.9269 7.03841 15.0962 6.59948 14.9459C6.14319 14.79 5.8577 14.4522 5.69093 14.0163C5.63642 13.8733 5.56777 13.8454 5.43008 13.8462C4.39756 13.8519 3.36464 13.8495 2.33212 13.8491C2.05593 13.8491 1.98728 13.7792 1.98647 13.4992C1.98647 13.3529 1.98647 13.2067 1.98647 13.0604C1.98728 12.5494 2.2768 12.1886 2.78317 12.0981C2.97457 12.0637 3.17364 12.0706 3.36949 12.0674C3.65538 12.0629 3.94086 12.0662 4.23402 12.0662V11.0376H4.07048C3.13851 11.0376 2.20654 11.038 1.27457 11.0376C0.501699 11.0367 0.000179467 10.5338 0.000179467 9.75846C-0.000224333 7.63095 0.000179467 5.50385 0.000179467 3.37634C0.000179467 2.59862 0.497257 2.10048 1.27498 2.10008C4.71051 2.09927 8.14644 2.09967 11.582 2.10008C12.3625 2.10008 12.858 2.59297 12.8588 3.3727C12.8608 4.68856 12.8608 6.00442 12.8568 7.31987C12.8568 7.43057 12.8875 7.48592 12.9904 7.53561C13.4964 7.77842 13.8416 8.17475 14.0278 8.70037C14.3314 9.55888 14.6286 10.4198 14.9157 11.284C15.0474 11.6799 15.0236 12.0803 14.8528 12.4645C14.539 13.1699 13.8517 13.3028 13.3022 12.7619C12.8067 12.2738 12.3161 11.7809 11.8283 11.2852C11.7475 11.2032 11.6805 11.181 11.5658 11.2125C10.6298 11.4694 9.69178 11.7183 8.75456 11.9704C8.70692 11.9833 8.66088 12.0031 8.61404 12.0197C8.61687 12.0322 8.6201 12.0447 8.62292 12.0577ZM11.5804 3.38927H1.28709V8.94196C1.33151 8.94479 1.36624 8.94883 1.40056 8.94883C2.94146 8.94883 4.48276 8.94964 6.02366 8.94762C6.08222 8.94762 6.1444 8.9355 6.19811 8.91247C6.56637 8.7545 6.94594 8.72824 7.33763 8.79854C7.4083 8.81147 7.48784 8.81106 7.55689 8.79288C8.58699 8.51937 9.61708 8.24505 10.6448 7.96184C10.7695 7.9275 10.883 7.8467 10.9977 7.78044C11.1539 7.69034 11.3005 7.58045 11.4633 7.5049C11.5598 7.46006 11.5816 7.41077 11.5816 7.31421C11.5787 6.05411 11.5795 4.79441 11.5795 3.53431C11.5795 3.48987 11.5795 3.44502 11.5795 3.38886L11.5804 3.38927ZM6.98027 9.24659C6.08302 9.24739 5.41312 10.0142 5.55526 10.8933C5.70709 11.8322 5.89445 12.7659 6.09191 13.6967C6.17105 14.0704 6.38789 14.371 6.77837 14.4947C6.96129 14.5528 7.10666 14.491 7.20034 14.3242C7.2391 14.2547 7.26696 14.1775 7.28756 14.1003C7.4834 13.3764 7.67965 12.6528 7.86742 11.9268C7.91183 11.7551 8.00188 11.6654 8.1739 11.6201C9.31706 11.3196 10.459 11.0145 11.5989 10.7018C11.7883 10.6497 11.9187 10.6861 12.0556 10.8267C12.5834 11.3676 13.1192 11.9013 13.6575 12.4322C13.9357 12.7065 14.2095 12.6617 14.3896 12.3195C14.5329 12.0476 14.5608 11.7527 14.4659 11.4674C14.1675 10.5697 13.8828 9.66554 13.5356 8.78682C13.1261 7.75175 11.9074 7.52147 11.1766 8.27292C11.1277 8.32343 11.0506 8.35615 10.9807 8.37514C9.93245 8.65956 8.88257 8.93873 7.8339 9.22315C7.60939 9.28416 7.39053 9.35042 7.15673 9.26113C7.09373 9.23729 7.01701 9.24901 6.98107 9.24659H6.98027ZM5.05858 10.554C5.10017 10.1435 5.23545 9.77624 5.50236 9.43364C5.41716 9.43364 5.36345 9.43364 5.30975 9.43364C3.91946 9.43364 2.52878 9.43364 1.13849 9.43364C0.869965 9.43364 0.793647 9.35971 0.793647 9.09508C0.793647 7.18453 0.793243 5.27356 0.793647 3.36301C0.793647 3.03051 0.928516 2.89678 1.26165 2.89638C4.70768 2.89638 8.15371 2.89638 11.5993 2.89638C11.9361 2.89638 12.0641 3.02526 12.0641 3.36301C12.0641 4.62836 12.0641 5.89372 12.0641 7.15948V7.3437H12.3682C12.371 7.28755 12.3754 7.23826 12.3754 7.18937C12.3754 5.91877 12.3762 4.64856 12.3754 3.37796C12.3754 2.86204 12.0972 2.58448 11.582 2.58448C8.14604 2.58448 4.7101 2.58448 1.27457 2.58448C0.762958 2.58448 0.484336 2.86688 0.484336 3.3824C0.484336 5.50506 0.484336 7.62732 0.484336 9.74998C0.484336 10.2716 0.765785 10.554 1.28588 10.554C2.49001 10.554 3.69414 10.554 4.89787 10.554H5.05858ZM5.37032 12.5506C4.75816 12.5506 4.16053 12.5506 3.5625 12.5506C3.37151 12.5506 3.1801 12.5457 2.98951 12.5538C2.73108 12.5647 2.50051 12.7174 2.48032 12.9012C2.46376 13.0487 2.47709 13.1994 2.47709 13.357H5.52618C5.4745 13.0895 5.42443 12.8289 5.37072 12.5506H5.37032ZM10.396 13.361C10.396 13.2588 10.396 13.1695 10.396 13.0798C10.396 12.7873 10.2874 12.6447 10.0031 12.5772C9.92114 12.5578 9.83392 12.5522 9.74953 12.5518C9.2367 12.5494 8.72428 12.5506 8.20499 12.5506C8.13271 12.8245 8.06326 13.0879 7.99098 13.361H10.396ZM4.73877 11.044V12.0593H5.27381C5.20637 11.7131 5.14055 11.3769 5.07595 11.044H4.73877Z" fill="#410EAD"/>
<path d="M14.5109 2.71428C14.4984 1.4667 13.5304 0.496673 12.2835 0.481321C12.2431 0.480917 12.2032 0.481725 12.1628 0.481321C11.9823 0.479705 11.8789 0.392439 11.8789 0.241744C11.8789 0.0922605 11.9827 -0.0152059 12.1624 0.00176245C12.4858 0.0324671 12.8198 0.0478194 13.1266 0.143165C14.2896 0.503945 15.0326 1.59275 14.9946 2.82861C14.989 3.01122 14.9034 3.11344 14.754 3.11505C14.5977 3.11667 14.5117 3.01243 14.5109 2.81932C14.5109 2.78417 14.5109 2.74862 14.5109 2.71347V2.71428Z" fill="#410EAD"/>
<path d="M14.2115 2.76381C14.2115 2.81431 14.2143 2.86481 14.2111 2.9149C14.201 3.05388 14.1117 3.14519 13.9841 3.15085C13.8493 3.1565 13.7459 3.06722 13.7314 2.92379C13.7168 2.78401 13.7225 2.64058 13.697 2.50322C13.5642 1.79095 12.9645 1.28392 12.2425 1.26453C12.1921 1.26332 12.1416 1.26615 12.0915 1.26291C11.9365 1.25322 11.8416 1.15625 11.8448 1.01445C11.848 0.878701 11.9405 0.790223 12.0895 0.780123C13.0287 0.717501 13.9094 1.35422 14.1444 2.27132C14.1852 2.43131 14.2014 2.59776 14.2288 2.76098C14.2232 2.76179 14.2175 2.76259 14.2119 2.76381H14.2115Z" fill="#410EAD"/>
<path d="M12.1657 1.56131C12.8917 1.59242 13.4392 2.1653 13.4359 2.88888C13.4351 3.07796 13.3442 3.19108 13.1943 3.18987C13.0501 3.18866 12.9641 3.08523 12.9536 2.901C12.9241 2.38993 12.6202 2.06915 12.1415 2.04369C11.9035 2.03117 11.8013 1.95239 11.809 1.78715C11.8167 1.62474 11.9326 1.55121 12.1657 1.5609V1.56131Z" fill="#410EAD"/>
<path d="M6.06986 7.30383C6.25358 7.62259 6.43126 7.93125 6.60933 8.23991C6.77085 8.51989 6.74501 8.6116 6.46033 8.76432C6.09126 8.96228 5.70119 8.85562 5.48354 8.49242C5.34948 8.2686 5.22188 8.04114 5.0866 7.80763C4.79869 7.95428 4.50796 8.00397 4.20511 7.89853C3.79323 7.75551 3.53924 7.46907 3.47584 7.03718C3.41083 6.59318 3.57437 6.23603 3.94546 5.98231C4.08639 5.88576 4.23337 5.79485 4.38763 5.72294C4.74378 5.5573 5.00221 5.28621 5.21218 4.96825C5.46133 4.5905 5.69473 4.20185 5.92812 3.814C6.17686 3.4007 6.61458 3.39868 6.85767 3.81521C6.97154 4.01075 7.08622 4.20629 7.19565 4.40466C7.23361 4.47334 7.27116 4.50526 7.35919 4.49799C7.66325 4.47294 7.9019 4.59656 8.05292 4.86079C8.20394 5.12501 8.17931 5.38883 8.02142 5.6478C7.99558 5.69022 7.99235 5.77142 8.01536 5.81546C8.11995 6.01585 8.24068 6.20815 8.35052 6.40612C8.56009 6.78548 8.33073 7.17333 7.89745 7.16848C7.34909 7.16202 6.79952 7.13495 6.25803 7.25615C6.20069 7.26908 6.14375 7.28524 6.06986 7.30423V7.30383ZM7.14598 6.64691C6.76924 5.99403 6.38886 5.33469 6.01777 4.6911C5.75005 5.03653 5.48475 5.3763 5.22309 5.7189C5.20613 5.74072 5.19846 5.7892 5.21138 5.81142C5.41126 6.16493 5.61558 6.51601 5.80173 6.83841C6.26005 6.77296 6.69171 6.71155 7.14639 6.64691H7.14598ZM5.37895 7.07516C5.17503 6.72286 4.98283 6.39036 4.78537 6.04938C4.57822 6.17018 4.38238 6.2728 4.19865 6.394C3.94708 6.55924 3.87197 6.89214 4.0129 7.15596C4.15746 7.42624 4.48333 7.54987 4.76154 7.41897C4.9695 7.3212 5.16413 7.19596 5.37895 7.07516ZM6.40057 3.99257C6.29114 4.10771 6.28508 4.19781 6.36059 4.32547C6.79548 5.06077 7.2219 5.80132 7.64225 6.5451C7.71453 6.67317 7.79772 6.7063 7.94429 6.66872C7.42783 5.77344 6.91622 4.88664 6.40057 3.99257ZM6.07187 8.39748C6.08641 8.38253 6.10095 8.36758 6.11548 8.35304C5.95114 8.06821 5.78639 7.78338 5.6176 7.49088C5.57318 7.52361 5.54209 7.54623 5.50898 7.57047C5.64102 7.79954 5.76418 8.02417 5.89986 8.24113C5.93943 8.30456 6.01373 8.34617 6.07187 8.39788V8.39748Z" fill="#410EAD"/>
<path d="M7.772 3.50592C7.95097 3.50269 8.06652 3.62995 8.03945 3.7863C8.01723 3.91478 7.98168 4.04204 7.93885 4.16526C7.89522 4.29091 7.76472 4.34909 7.64473 4.31151C7.52474 4.27394 7.45323 4.15435 7.48111 4.02588C7.50576 3.91276 7.53646 3.80085 7.56959 3.69015C7.60312 3.57743 7.6815 3.5144 7.772 3.50592Z" fill="#410EAD"/>
<path d="M8.79534 5.87094C8.68949 5.83983 8.54081 5.80872 8.40264 5.75175C8.28467 5.70327 8.25356 5.59055 8.2871 5.47178C8.31982 5.35582 8.41193 5.29038 8.52667 5.30734C8.66969 5.32835 8.81312 5.36673 8.94805 5.41845C9.06279 5.46248 9.11208 5.5651 9.08097 5.68994C9.04986 5.81397 8.96421 5.87215 8.79534 5.87094Z" fill="#410EAD"/>
<path d="M8.96625 4.46393C8.961 4.6615 8.79051 4.7027 8.66284 4.7831C8.55133 4.8534 8.43781 4.92733 8.30044 4.84572C8.15621 4.76048 8.14248 4.55201 8.28267 4.45181C8.39215 4.37344 8.51174 4.30476 8.63456 4.249C8.79131 4.1783 8.96302 4.29546 8.96625 4.46393Z" fill="#410EAD"/>
<path d="M7.02061 10.8917C7.06021 11.0384 7.09697 11.1636 7.12727 11.2909C7.16484 11.4468 7.0998 11.566 6.96526 11.5991C6.84164 11.6294 6.73256 11.5547 6.68892 11.4052C6.65095 11.2759 6.61822 11.145 6.58146 11.0089C6.43884 11.0469 6.30875 11.0836 6.17745 11.1159C6.0312 11.1519 5.91403 11.0909 5.87646 10.9644C5.8401 10.842 5.91282 10.7236 6.05665 10.6804C6.18593 10.6416 6.31724 10.6093 6.46349 10.5701C6.42874 10.438 6.39561 10.3136 6.3641 10.1883C6.32168 10.0207 6.38066 9.89503 6.5156 9.8619C6.64489 9.83039 6.75478 9.90796 6.79962 10.0655C6.83396 10.1859 6.86507 10.3071 6.90305 10.4497C7.02869 10.4174 7.14747 10.3863 7.26666 10.3556C7.44846 10.3091 7.57249 10.3613 7.61087 10.4998C7.64764 10.6332 7.56279 10.7422 7.38099 10.7939C7.26544 10.8267 7.14949 10.857 7.02061 10.8917Z" fill="#410EAD"/>
<path d="M12.8284 9.40823C12.6494 9.41025 12.5121 9.27693 12.5088 9.09836C12.5056 8.91575 12.649 8.76909 12.8296 8.77151C13.0005 8.77394 13.146 8.921 13.146 9.09189C13.146 9.2636 13.0025 9.40662 12.8284 9.40823Z" fill="#410EAD"/>
<path d="M12.3348 10.2318C12.1579 10.2246 12.0261 10.082 12.0314 9.9042C12.0367 9.73088 12.1841 9.59028 12.3562 9.59432C12.5348 9.59877 12.6766 9.7531 12.6673 9.93288C12.658 10.1078 12.5126 10.2387 12.3348 10.2314V10.2318Z" fill="#410EAD"/>
<path d="M11.21 9.43454C11.212 9.25637 11.3486 9.12224 11.5275 9.12305C11.7025 9.12386 11.8455 9.26445 11.8467 9.43737C11.8483 9.6123 11.6916 9.76583 11.5174 9.76017C11.3445 9.75452 11.208 9.60988 11.21 9.43454Z" fill="#410EAD"/>
<path d="M12.0078 8.93236C11.8333 8.936 11.6882 8.79944 11.6814 8.62532C11.6745 8.44998 11.8252 8.29443 12.0022 8.29443C12.1735 8.29443 12.3181 8.43947 12.3201 8.61199C12.3221 8.78611 12.1832 8.92873 12.0078 8.93236Z" fill="#410EAD"/>
</svg>
