<svg width="16" height="15" viewBox="0 0 16 15" fill="none" xmlns="http://www.w3.org/2000/svg">
<path d="M7.7278 9.06991V6.00652C7.66772 6.00652 7.60942 6.00652 7.55112 6.00652C7.0126 6.00652 6.47363 6.00736 5.93512 6.00652C5.69434 6.0061 5.60043 5.91963 5.59999 5.69613C5.5991 3.90313 5.5991 2.11056 5.59999 0.317559C5.59999 0.0907191 5.69211 0.00257301 5.92933 0.00215526C6.77894 0.00131975 7.62856 -0.0016045 8.47817 0.00675057C8.57252 0.00758607 8.68824 0.0527034 8.75588 0.114113C9.26903 0.58325 9.7764 1.05824 10.2753 1.54032C10.3438 1.60675 10.3928 1.72205 10.3932 1.8152C10.4008 3.10773 10.3986 4.40026 10.3981 5.69279C10.3981 5.91796 10.3047 6.00652 10.0666 6.00694C9.47332 6.00819 8.88005 6.00694 8.27611 6.00694V9.07241C8.72161 9.19523 9.17246 9.32056 9.62374 9.44421C11.1935 9.87366 12.7636 10.3023 14.3338 10.7317C14.6324 10.8132 14.6645 10.8541 14.6645 11.1486C14.6645 11.7427 14.6645 12.3367 14.6645 12.9312C14.6645 13.1534 14.6195 13.2123 14.3881 13.2758C12.3079 13.8461 10.2272 14.4163 8.14527 14.9819C8.05537 15.0062 7.94499 15.0066 7.85553 14.9819C5.76822 14.4142 3.68268 13.8419 1.59715 13.27C1.38486 13.2119 1.33412 13.1501 1.33368 12.9496C1.33279 12.3242 1.33279 11.6988 1.33368 11.0735C1.33368 10.8742 1.3853 10.8128 1.59848 10.7543C3.56741 10.2145 5.5359 9.67523 7.50483 9.13549C7.57871 9.11502 7.65214 9.09288 7.72736 9.07074L7.7278 9.06991ZM7.72335 9.59669C6.01567 10.0642 4.31822 10.5287 2.62122 10.9928C2.67063 11.0392 2.71558 11.0559 2.76142 11.0689C4.45352 11.5313 6.14563 11.995 7.83951 12.4525C7.93876 12.4792 8.06026 12.4804 8.15906 12.4537C9.7092 12.036 11.2575 11.6115 12.8063 11.1883C12.9986 11.1357 13.19 11.0797 13.3818 11.0254C13.3805 11.0141 13.3796 11.0033 13.3782 10.992C11.6795 10.5266 9.98068 10.0617 8.277 9.59502V10.8688C8.28857 10.8759 8.2997 10.883 8.31127 10.8896C8.49775 10.7067 8.68423 10.5237 8.84312 10.3674C8.98197 10.4811 9.1097 10.5851 9.24589 10.6966C8.90498 11.0158 8.57208 11.3291 8.23739 11.6408C8.05937 11.8066 7.9352 11.8049 7.75451 11.6362C7.45142 11.3533 7.14923 11.0693 6.84704 10.7852C6.81366 10.7539 6.78517 10.7179 6.76648 10.6979C6.89021 10.573 7.00236 10.4598 7.14344 10.3177C7.33126 10.512 7.51195 10.6987 7.72202 10.9155V9.59669H7.72335ZM9.85339 5.50021V2.00319C9.45373 2.00319 9.06564 2.00319 8.67755 2.00319C8.33442 2.00319 8.26543 1.94011 8.26543 1.62387C8.26543 1.29552 8.26543 0.967583 8.26499 0.639229C8.26499 0.594947 8.25876 0.550248 8.25564 0.509725H6.14207V5.49937H9.85339V5.50021ZM1.86685 11.3437C1.86685 11.8129 1.87086 12.2553 1.86418 12.6977C1.8624 12.8034 1.90557 12.836 2.00616 12.8631C3.48597 13.265 4.964 13.6715 6.44293 14.0763C6.86751 14.1924 7.29209 14.3081 7.72647 14.4268V12.9471C5.78202 12.4149 3.83667 11.8822 1.86685 11.3433V11.3437ZM14.1313 11.3454C12.1632 11.8843 10.2175 12.4169 8.27166 12.9496V14.4272C8.34955 14.4067 8.41764 14.3896 8.48573 14.3708C9.34247 14.1368 10.1988 13.9029 11.0555 13.6681C12.0342 13.3999 13.0133 13.1321 13.9902 12.8598C14.0445 12.8447 14.1242 12.7858 14.125 12.7461C14.1344 12.2883 14.1313 11.83 14.1313 11.3454ZM8.80929 0.90868V1.49019H9.42213C9.22141 1.30011 9.01402 1.10294 8.80929 0.90868Z" fill="#410EAD"/>
<path d="M2.67679 6.00627C2.67012 6.41275 3.0097 6.74319 3.44051 6.75489C3.70665 6.76199 3.97369 6.75489 4.23983 6.75739C5.01868 6.76324 5.59191 7.30256 5.59903 8.03447C5.59993 8.14308 5.59903 8.2517 5.59903 8.41462C5.81266 8.19196 5.99514 8.0023 6.18117 7.80804C6.33694 7.95509 6.45354 8.0658 6.58439 8.18987C6.39079 8.37118 6.19942 8.55039 6.00804 8.72961C5.85094 8.87666 5.6965 9.02705 5.53584 9.17075C5.40722 9.28564 5.26969 9.2965 5.15042 9.18705C4.79348 8.85995 4.44456 8.52532 4.0854 8.18736C4.2158 8.07373 4.33997 7.96595 4.4944 7.83144C4.66575 8.0094 4.846 8.19655 5.02669 8.38371C5.04227 8.37661 5.05785 8.3695 5.07387 8.3624C5.06363 8.18862 5.0752 8.01107 5.03915 7.8423C4.96572 7.49598 4.65329 7.26538 4.27677 7.25828C4.04356 7.25368 3.81035 7.25744 3.57714 7.25703C2.73999 7.25661 2.21171 6.80836 2.12537 6.00586C2.06929 6.00586 2.01099 6.00586 1.95224 6.00586C1.41372 6.00586 0.875204 6.00669 0.336685 6.00586C0.0954648 6.00544 0.00111264 5.91896 0.000667585 5.6963C-0.000222528 3.89871 -0.000222528 2.10112 0.000667585 0.303525C0.000667585 0.0904707 0.097245 0.00190718 0.327339 0.00148943C1.17695 0.000236171 2.02657 -0.00268839 2.87573 0.00608442C2.97409 0.00691993 3.0947 0.0570506 3.16591 0.12222C3.6755 0.587179 4.17841 1.05882 4.67332 1.53673C4.7423 1.60316 4.79304 1.71804 4.79393 1.81036C4.80149 3.1079 4.79971 4.40503 4.79882 5.70257C4.79882 5.91562 4.7018 6.0046 4.47215 6.00502C3.93363 6.00627 3.39511 6.00544 2.8566 6.00544C2.79651 6.00544 2.73643 6.00544 2.67679 6.00544V6.00627ZM0.547642 0.504882V5.4962H4.25496V2.00294C3.82815 2.00294 3.41292 2.00378 2.99723 2.00294C2.75957 2.00211 2.66789 1.91438 2.66656 1.68838C2.66522 1.44357 2.66656 1.19877 2.66656 0.953967C2.66656 0.805246 2.66656 0.656526 2.66656 0.5053H0.547642V0.504882ZM3.20864 0.896734V1.4912H3.83661C3.62877 1.29485 3.42137 1.09809 3.20864 0.896734Z" fill="#410EAD"/>
<path d="M10.9704 8.3835C11.1546 8.19927 11.3389 8.01546 11.5307 7.82371C11.6629 7.95656 11.7755 8.06935 11.8979 8.19217C11.881 8.21181 11.8565 8.24439 11.8271 8.27238C11.5213 8.56021 11.2156 8.84805 10.9085 9.13462C10.7274 9.3034 10.6041 9.30423 10.4256 9.13797C10.0914 8.8259 9.75848 8.51259 9.41846 8.19343C9.55197 8.08105 9.67792 7.97494 9.81545 7.85922C9.98145 8.02089 10.1684 8.20303 10.3557 8.38517C10.37 8.37933 10.3847 8.37348 10.3989 8.36721C10.3989 8.25066 10.3976 8.13369 10.3989 8.01713C10.4078 7.3057 10.9846 6.76513 11.7434 6.75761C12.0154 6.75468 12.2877 6.76262 12.5597 6.7551C12.9905 6.74299 13.3336 6.4067 13.3189 6.00649C13.2593 6.00649 13.1992 6.00649 13.1391 6.00649C12.606 6.00649 12.0732 6.00732 11.54 6.00649C11.2895 6.00607 11.1991 5.92127 11.1991 5.68607C11.1982 4.96712 11.1991 4.24816 11.1991 3.52879C11.1991 2.46603 11.1991 1.40285 11.1991 0.340084C11.1991 0.0827481 11.2841 0.00212175 11.5543 0.001704C12.387 0.00128625 13.2201 -0.0028914 14.0528 0.00713468C14.1614 0.00838794 14.2945 0.0601894 14.3724 0.131207C14.8753 0.587394 15.3644 1.05695 15.862 1.51857C15.9603 1.60964 16.0004 1.70864 16 1.83773C15.9968 3.11438 15.9982 4.39104 15.9977 5.66769C15.9977 5.92503 15.9123 6.00649 15.6426 6.00691C15.1094 6.00732 14.5767 6.00691 14.0435 6.00691C13.9892 6.00691 13.9344 6.00691 13.8837 6.00691C13.8543 6.14101 13.8379 6.26508 13.7991 6.38288C13.6318 6.89213 13.136 7.24387 12.5686 7.25641C12.2966 7.26225 12.0243 7.25641 11.7523 7.25891C11.2761 7.26351 10.9379 7.58267 10.9321 8.03008C10.9308 8.13954 10.9321 8.24857 10.9321 8.35802L10.9708 8.38434L10.9704 8.3835ZM11.7425 0.508439V5.49432H15.4503V2.00316C15.0484 2.00316 14.6599 2.00316 14.2714 2.00316C13.9322 2.00316 13.8641 1.93924 13.8641 1.61924C13.8641 1.2512 13.8641 0.883163 13.8641 0.508439H11.7425ZM14.4089 0.875644V1.48849H15.06C14.8392 1.28086 14.6327 1.08619 14.4089 0.875644Z" fill="#410EAD"/>
<path d="M9.32235 2.9966H6.67871V2.51367H9.32235V2.9966Z" fill="#410EAD"/>
<path d="M9.31982 3.99827H6.67529V3.5166H9.31982V3.99827Z" fill="#410EAD"/>
<path d="M6.66943 1.98949V1.51367H7.7211V1.98949H6.66943Z" fill="#410EAD"/>
<path d="M7.19035 4.99875H6.67676V4.51416H7.19035V4.99875Z" fill="#410EAD"/>
<path d="M8.26223 4.51514V4.99263H7.74463V4.51514H8.26223Z" fill="#410EAD"/>
<path d="M8.80566 4.99367V4.51367H9.32416V4.99367H8.80566Z" fill="#410EAD"/>
<path d="M1.0752 2.50928H3.72195V2.99512H1.0752V2.50928Z" fill="#410EAD"/>
<path d="M3.72505 3.51514V3.99639H1.08008V3.51514H3.72505Z" fill="#410EAD"/>
<path d="M3.72505 4.51562V4.99729H1.08008V4.51562H3.72505Z" fill="#410EAD"/>
<path d="M2.12984 1.51221V1.99012H1.07861V1.51221H2.12984Z" fill="#410EAD"/>
<path d="M14.9233 2.51416V2.99583H12.2783V2.51416H14.9233Z" fill="#410EAD"/>
<path d="M12.2734 3.51074H14.9189V3.99534H12.2734V3.51074Z" fill="#410EAD"/>
<path d="M12.2725 4.99436V4.5127H14.9174V4.99436H12.2725Z" fill="#410EAD"/>
<path d="M13.3241 1.51367V1.99409H12.2725V1.51367H13.3241Z" fill="#410EAD"/>
</svg>
