<svg width="15" height="8" viewBox="0 0 15 8" fill="none" xmlns="http://www.w3.org/2000/svg">
<path d="M14.9995 4.84558V5.25337C14.9795 5.34033 14.9575 5.42679 14.9405 5.51474C14.8085 6.2009 14.4834 6.77661 13.9418 7.22089C13.3002 7.74763 12.5566 7.96452 11.7329 7.90605C10.9533 7.85108 10.2771 7.55872 9.73203 6.9925C9.25545 6.49825 8.9904 5.90455 8.94589 5.21789C8.91138 4.68866 9.03041 4.1909 9.27945 3.72364C9.30446 3.67716 9.32196 3.62669 9.34896 3.56422C9.27545 3.56422 9.21594 3.56422 9.15643 3.56422C8.78886 3.56722 8.42129 3.57022 8.05373 3.57421C7.95021 3.57521 7.86569 3.65967 7.86419 3.76262C7.86069 4.01449 7.85469 4.26587 7.85469 4.51774C7.85419 4.98551 7.85569 5.45327 7.85919 5.92104C7.85969 6.02249 7.86269 6.12544 7.87769 6.22539C7.9102 6.44128 8.05273 6.56822 8.26727 6.57721C8.33278 6.57971 8.39879 6.57221 8.4643 6.56472C8.54832 6.55522 8.63233 6.54223 8.71785 6.53024C8.71785 6.64818 8.71685 6.75562 8.71785 6.86307C8.71985 7.09095 8.72235 7.31834 8.72585 7.54623C8.72835 7.71864 8.66284 7.8091 8.49731 7.85757C8.4703 7.86557 8.4438 7.87356 8.41679 7.88056C8.26476 7.92054 8.11274 7.96002 7.96021 8H7.58864C7.54913 7.98801 7.50963 7.97401 7.46912 7.96402C7.24958 7.90855 7.04654 7.81909 6.87101 7.67366C6.53745 7.3968 6.39042 7.02799 6.38242 6.6077C6.36992 5.94453 6.37742 5.28036 6.37692 4.61719C6.37692 4.32934 6.37992 4.04148 6.37842 3.75362C6.37792 3.61319 6.31641 3.55872 6.17788 3.56072C6.00835 3.56322 5.83882 3.56372 5.66929 3.56372C4.41606 3.56372 3.16283 3.56372 1.9096 3.56422C1.85959 3.56422 1.80958 3.56772 1.76057 3.57321C1.57654 3.5952 1.46102 3.70815 1.45752 3.89205C1.45252 4.14093 1.55354 4.34383 1.85959 4.33183C2.09113 4.32284 2.32268 4.32084 2.55472 4.31934C3.07031 4.31534 3.58591 4.31034 4.1015 4.31284C4.24653 4.31334 4.39356 4.32634 4.53558 4.35582C5.00217 4.45227 5.33773 4.71564 5.51876 5.16292C5.60928 5.38631 5.64128 5.62119 5.64529 5.86007C5.65129 6.21539 5.62678 6.56722 5.51426 6.90705C5.38374 7.30235 5.13319 7.58471 4.73212 7.72064C4.53508 7.78711 4.33154 7.8106 4.12501 7.81309C3.86746 7.81609 3.60941 7.81959 3.35186 7.81909C2.71825 7.81709 2.08463 7.82359 1.45202 7.8061C0.916418 7.79111 0.508343 7.52424 0.210289 7.08846C0.0772643 6.89405 0.0382569 6.67116 0.0627614 6.42979C0.0892663 6.42979 0.11227 6.42979 0.135775 6.42979C1.383 6.42929 2.63023 6.42879 3.87746 6.42729C3.93097 6.42729 3.98548 6.42279 4.03849 6.41429C4.20252 6.38731 4.29604 6.29535 4.31154 6.13443C4.33755 5.86407 4.22452 5.74713 3.98598 5.72214C3.94847 5.71814 3.90997 5.71814 3.87246 5.71864C3.46539 5.71964 3.05781 5.73013 2.65074 5.72014C2.17965 5.70815 1.70906 5.67716 1.24448 5.58921C0.614363 5.46977 0.210789 5.10945 0.0632616 4.47726C0.0522596 4.42929 0.0362568 4.38231 0.0227543 4.33433C0.0147528 4.30635 0.00175043 4.27786 0.00125034 4.24988C-0.000750031 4.06397 0.000249939 3.87806 0.000249939 3.69215C0.000249939 3.67616 -0.000249954 3.65967 0.00475096 3.64518C0.0502593 3.51574 0.092767 3.38481 0.143776 3.25737C0.331311 2.7911 0.646369 2.45177 1.12996 2.28486C1.357 2.2064 1.59204 2.17741 1.83109 2.17691C3.31786 2.17641 4.80513 2.17691 6.2919 2.17691C6.31891 2.17691 6.34591 2.17691 6.37792 2.17691V2.10345C6.37792 1.8076 6.37442 1.51174 6.37892 1.21589C6.38342 0.914043 6.49344 0.656172 6.71998 0.451274C6.89051 0.296852 7.09805 0.208396 7.30609 0.11994C7.39711 0.081459 7.48712 0.03998 7.57714 0C7.66916 0 7.76117 0 7.85319 0C7.85269 0.023988 7.85119 0.0479761 7.85119 0.0719641C7.85369 0.52124 7.85719 0.971014 7.85869 1.42029C7.85919 1.5922 7.85269 1.76362 7.85369 1.93553C7.85469 2.10045 7.9252 2.17191 8.08923 2.18191C8.11124 2.18341 8.13324 2.18291 8.15525 2.18291C8.58833 2.17941 9.0219 2.17341 9.45498 2.17341C10.2901 2.17341 11.1248 2.17741 11.9599 2.18091C12.3325 2.18241 12.6961 2.24438 13.0441 2.37531C14.0218 2.74213 14.6554 3.42329 14.9105 4.44378C14.944 4.57671 14.9705 4.71164 15 4.84558H14.9995ZM11.9379 3.62019C11.6284 3.62319 11.3203 3.71714 11.0428 3.90955C10.3657 4.37981 10.2191 5.28236 10.7177 5.91604C11.2288 6.56522 12.1885 6.70615 12.8666 6.23088C13.3682 5.87956 13.5977 5.29935 13.4562 4.74013C13.2907 4.08696 12.6671 3.61819 11.9379 3.62019Z" fill="#410EAD"/>
</svg>
