<svg width="16" height="15" viewBox="0 0 16 15" fill="none" xmlns="http://www.w3.org/2000/svg">
<path d="M4.3656 7.24795C4.42871 6.57354 4.67395 5.97848 5.10132 5.46817C4.71362 5.07867 4.32954 4.69458 3.93824 4.30328C3.3558 4.74868 2.69582 4.93441 1.9601 4.79196C1.35061 4.67475 0.856531 4.36279 0.485067 3.8669C-0.250648 2.88956 -0.137045 1.51731 0.744731 0.673397C1.63192 -0.174118 3.00417 -0.226411 3.94725 0.543565C4.89395 1.31715 5.19869 2.78677 4.3061 3.94084C4.69199 4.32492 5.07607 4.70901 5.46917 5.10031C5.97588 4.67655 6.57094 4.42771 7.24895 4.3664V3.38725C7.02355 3.38725 6.80356 3.38725 6.58357 3.38725C6.11112 3.38544 5.80998 3.0825 5.80818 2.61186C5.80818 1.99696 5.80818 1.38206 5.80818 0.767164C5.80818 0.305539 6.11473 0.00259805 6.57816 0.000794826C7.19305 0.000794826 7.80795 0.000794826 8.42285 0.000794826C8.88628 0.000794826 9.19283 0.30554 9.19463 0.765361C9.19643 1.38567 9.19643 2.00598 9.19463 2.62448C9.19463 3.07709 8.88628 3.38364 8.43547 3.38725C8.21007 3.38725 7.98467 3.38725 7.75205 3.38725V4.36459C8.41744 4.42771 9.01611 4.66753 9.51741 5.09129C10.172 4.43672 10.8211 3.78756 11.4685 3.1384C11.4595 3.1348 11.4288 3.12398 11.3964 3.11496C10.9816 3.01398 10.6769 2.66415 10.648 2.24941C10.6192 1.82205 10.8662 1.42895 11.2701 1.27567C11.3549 1.24322 11.3928 1.20354 11.4144 1.11338C11.5731 0.45701 12.1537 0.00259805 12.8209 0.000794826C13.4881 0.000794826 14.0687 0.4516 14.231 1.10797C14.2545 1.20535 14.2978 1.24502 14.3861 1.27928C14.8135 1.44337 15.0677 1.89959 14.9866 2.33416C14.8982 2.80481 14.5195 3.1384 14.0489 3.14381C13.4737 3.14922 12.9003 3.14381 12.325 3.14922C12.2583 3.14922 12.1736 3.17627 12.1267 3.22135C11.3964 3.94444 10.6697 4.67294 9.94297 5.39964C9.92494 5.41768 9.91051 5.43751 9.89068 5.46095C10.3253 5.97848 10.5705 6.57354 10.6336 7.24975H11.6128C11.6128 7.04058 11.6128 6.8314 11.6128 6.62223C11.6128 6.09749 11.9013 5.80717 12.4242 5.80717C13.0247 5.80717 13.6233 5.80717 14.2238 5.80717C14.6963 5.80717 14.9992 6.11011 14.9992 6.58256C14.9992 7.19746 14.9992 7.81235 14.9992 8.42725C14.9992 8.88888 14.6927 9.19362 14.2292 9.19362C13.6143 9.19362 12.9994 9.19362 12.3845 9.19362C11.9157 9.19362 11.6146 8.88707 11.6128 8.41463C11.6128 8.19824 11.6128 7.98186 11.6128 7.75465H10.6336C10.5723 8.42184 10.3289 9.01871 9.87084 9.56148C9.99346 9.67328 10.1197 9.78147 10.2369 9.89688C10.6102 10.2647 10.9834 10.6344 11.3477 11.0095C11.4378 11.1014 11.528 11.1321 11.6506 11.1303C12.5017 11.1267 13.3547 11.1267 14.2058 11.1285C14.6999 11.1285 14.9974 11.426 14.9992 11.9183C14.9992 12.6847 14.9992 13.451 14.9992 14.2174C14.9992 14.6989 14.6981 15 14.2166 15C13.1275 15 12.0401 15 10.951 15C10.4605 15 10.163 14.7007 10.163 14.2066C10.163 13.4456 10.163 12.6847 10.163 11.9237C10.163 11.5144 10.3343 11.2818 10.7274 11.1519C10.74 11.1483 10.7508 11.1357 10.749 11.1375C10.3415 10.7282 9.93395 10.3206 9.52101 9.9059C9.02152 10.3278 8.42465 10.5713 7.75025 10.6344V11.6117C7.96123 11.6117 8.1722 11.6117 8.38138 11.6117C8.90612 11.6117 9.19463 11.9021 9.19463 12.425C9.19463 13.0201 9.19463 13.6151 9.19463 14.2102C9.19463 14.7007 8.8953 14.9982 8.40121 14.9982C7.79713 14.9982 7.19125 14.9982 6.58717 14.9982C6.11292 14.9982 5.80998 14.6953 5.80818 14.2264C5.80818 13.6115 5.80818 12.9966 5.80818 12.3817C5.80818 11.9183 6.11292 11.6154 6.57455 11.6117C6.79635 11.6117 7.01634 11.6117 7.25977 11.6117V10.6344C6.57996 10.5713 5.98309 10.326 5.45475 9.88245C4.90657 10.4342 4.36019 10.9842 3.81201 11.5342C3.6912 11.4152 3.583 11.3088 3.4712 11.1988C4.02299 10.6488 4.56756 10.1061 5.12295 9.55427C4.67936 9.02232 4.42871 8.42365 4.3674 7.74744H3.38826C3.38826 7.96743 3.38826 8.18202 3.38826 8.3966C3.38826 8.89789 3.09072 9.19182 2.58582 9.19182C1.98535 9.19182 1.38668 9.19182 0.786205 9.19182C0.302941 9.19182 0.00180322 8.89068 0 8.41102C0 7.80153 0 7.19205 0 6.58075C0 6.10831 0.302941 5.80537 0.775386 5.80537C1.39028 5.80537 2.00518 5.80537 2.62008 5.80537C3.08171 5.80537 3.38465 6.11011 3.38645 6.57534C3.38645 6.79714 3.38645 7.01713 3.38645 7.24795H4.3638H4.3656ZM12.5703 14.5167C13.1148 14.5167 13.6594 14.5167 14.2022 14.5167C14.4294 14.5167 14.5141 14.4338 14.5141 14.2084C14.5141 13.4474 14.5141 12.6865 14.5141 11.9255C14.5141 11.6983 14.4312 11.6154 14.2058 11.6135C13.122 11.6135 12.0383 11.6135 10.9564 11.6135C10.7292 11.6135 10.6462 11.6965 10.6444 11.9219C10.6444 12.6829 10.6444 13.4438 10.6444 14.2048C10.6444 14.432 10.7274 14.5149 10.9528 14.5167C11.4919 14.5167 12.0311 14.5167 12.5703 14.5167ZM0.75555 3.38184C0.988166 3.00316 1.29832 2.74169 1.68421 2.57039C1.35422 2.04926 1.39209 1.55157 1.78158 1.21076C2.14403 0.89339 2.67057 0.886177 3.04204 1.19453C3.44235 1.52632 3.48743 2.01499 3.17367 2.55416C3.34317 2.66956 3.5253 2.77054 3.68038 2.90398C3.83545 3.03922 3.96348 3.20692 4.10413 3.362C4.56937 2.58662 4.38363 1.54616 3.67136 0.942077C2.94466 0.327178 1.87896 0.332588 1.16308 0.9547C0.458019 1.5678 0.277696 2.61727 0.759157 3.38364L0.75555 3.38184ZM11.8472 1.69222C11.7642 1.69222 11.6885 1.69041 11.6146 1.69222C11.3405 1.70123 11.1331 1.9068 11.1295 2.17007C11.1277 2.43875 11.3387 2.65153 11.6182 2.65874C11.7498 2.66235 11.8796 2.65874 12.0113 2.65874C12.6857 2.65874 13.3601 2.66055 14.0345 2.65874C14.2941 2.65874 14.4979 2.45498 14.5123 2.20614C14.5268 1.9627 14.35 1.7391 14.1084 1.69763C13.8704 1.65615 13.6378 1.80582 13.5638 2.04926C13.5512 2.09073 13.5422 2.1322 13.5332 2.16827H13.0607C13.0914 1.69763 13.3348 1.4001 13.755 1.23961C13.6612 0.774377 13.2339 0.455207 12.756 0.484058C12.1952 0.51832 11.8977 0.904209 11.8436 1.69222H11.8472ZM2.41091 4.35558C2.89237 4.34836 3.31252 4.19148 3.67857 3.88674C3.74529 3.83084 3.75792 3.78576 3.71644 3.70822C3.43514 3.19791 3.00958 2.90759 2.42533 2.90579C1.84109 2.90398 1.41373 3.1925 1.12882 3.70101C1.08374 3.78215 1.09636 3.83084 1.16849 3.89035C1.53094 4.18968 1.94568 4.34656 2.41091 4.35558ZM6.52586 7.24434H8.47515C8.43547 6.91796 8.39941 6.606 8.36154 6.29404H6.63766C6.59979 6.6078 6.56373 6.91976 6.52406 7.24434H6.52586ZM6.63766 8.70315H8.36515C8.40121 8.38398 8.43728 8.07022 8.47334 7.75104H6.52767C6.56553 8.07382 6.6016 8.38758 6.63766 8.70315ZM8.70415 13.0742H6.30407V13.5394H8.70415V13.0742ZM2.89778 7.26778H0.497689V7.73301H2.89778V7.26778ZM6.29866 1.92483H8.69875V1.4596H6.29866V1.92483ZM14.5087 7.26778H12.1086V7.73301H14.5087V7.26778ZM8.70956 0.961912C8.70956 0.873554 8.71317 0.799622 8.70956 0.72569C8.70055 0.583236 8.61219 0.487665 8.46974 0.485862C7.82599 0.482255 7.18224 0.482255 6.53849 0.485862C6.39423 0.485862 6.30407 0.579629 6.29505 0.722084C6.28964 0.799622 6.29505 0.878964 6.29505 0.961912H8.71317H8.70956ZM8.70956 2.42793H6.29144C6.29144 2.50727 6.28964 2.5758 6.29144 2.64612C6.29866 2.80661 6.38701 2.90038 6.5475 2.90038C7.18043 2.90398 7.81517 2.90398 8.4481 2.90038C8.60858 2.90038 8.69875 2.80661 8.70776 2.64793C8.71137 2.5776 8.70776 2.50727 8.70776 2.42613L8.70956 2.42793ZM14.5141 6.76829C14.5141 6.67993 14.5177 6.6042 14.5141 6.53026C14.5051 6.38781 14.4168 6.29224 14.2725 6.29224C13.6288 6.28863 12.985 6.28863 12.3413 6.29224C12.197 6.29224 12.1086 6.38601 12.0978 6.52846C12.0924 6.606 12.0978 6.68534 12.0978 6.76829H14.5159H14.5141ZM2.90319 8.23611H0.48687C0.48687 8.31545 0.483264 8.38578 0.48687 8.4561C0.494083 8.60938 0.580638 8.70675 0.730305 8.70675C1.37406 8.71036 2.01781 8.71036 2.66156 8.70675C2.80401 8.70675 2.89237 8.61118 2.90319 8.46873C2.9086 8.39479 2.90319 8.31906 2.90319 8.23611ZM12.096 8.2307C12.096 8.31545 12.0924 8.38578 12.096 8.4561C12.1032 8.61479 12.1934 8.70856 12.3557 8.70856C12.9886 8.71216 13.6233 8.71216 14.2563 8.70856C14.4168 8.70856 14.5051 8.61479 14.5141 8.4543C14.5177 8.38217 14.5141 8.30824 14.5141 8.2307H12.096ZM2.90319 6.76829C2.90319 6.67813 2.90679 6.60239 2.90319 6.52846C2.89417 6.38601 2.80401 6.29224 2.66156 6.29043C2.01781 6.28683 1.37406 6.28683 0.730305 6.29043C0.586047 6.29043 0.497689 6.38601 0.488673 6.52846C0.483264 6.606 0.488673 6.68534 0.488673 6.76829H2.90679H2.90319ZM6.29144 12.5693H8.70956C8.70956 12.4845 8.71317 12.4088 8.70956 12.3348C8.70055 12.1924 8.61039 12.0986 8.46793 12.0968C7.82418 12.0932 7.18043 12.0932 6.53668 12.0968C6.39242 12.0968 6.30407 12.1924 6.29505 12.3348C6.28964 12.4088 6.29505 12.4845 6.29505 12.5693H6.29144ZM6.29144 14.0371C6.29144 14.1218 6.28784 14.1958 6.29144 14.2697C6.30046 14.4194 6.39062 14.5113 6.54389 14.5131C7.18224 14.5167 7.82058 14.5167 8.46072 14.5131C8.61219 14.5131 8.70055 14.4176 8.70956 14.2661C8.71317 14.1922 8.70956 14.1182 8.70956 14.0389H6.29144V14.0371ZM6.13997 8.70856C6.10751 8.37857 6.07506 8.06481 6.0444 7.75104H4.85968C4.88132 8.06661 4.96788 8.35332 5.09951 8.62921C5.11755 8.66528 5.16984 8.70495 5.20771 8.70675C5.51425 8.71216 5.8208 8.71036 6.14178 8.71036L6.13997 8.70856ZM8.95661 7.74924C8.92415 8.07022 8.89349 8.38217 8.86104 8.70856C9.18021 8.70856 9.49216 8.70856 9.80232 8.70675C9.83297 8.70675 9.87805 8.6761 9.89248 8.64905C10.0313 8.36775 10.1197 8.07202 10.1413 7.74924H8.95661ZM10.1882 7.25336C10.0872 6.93959 9.99707 6.65288 9.90149 6.36978C9.89068 6.33732 9.84019 6.29404 9.80773 6.29404C9.49216 6.28863 9.1766 6.29043 8.85923 6.29043C8.89169 6.62223 8.92415 6.93599 8.95661 7.25336H10.1882ZM6.13817 6.29043C5.819 6.29043 5.51245 6.29043 5.2059 6.29224C5.17345 6.29224 5.12476 6.31568 5.11033 6.34273C4.96968 6.62764 4.87591 6.92517 4.85788 7.24975H6.0426C6.07506 6.93058 6.10571 6.62042 6.13817 6.29043ZM6.77831 5.79635H8.26417C8.1145 5.52767 8.00451 5.27161 7.84221 5.05162C7.62763 4.7595 7.3878 4.76851 7.15519 5.0426C6.96945 5.26079 6.86487 5.52046 6.77651 5.79635H6.77831ZM6.77471 9.19723C6.8847 9.5182 6.9965 9.81934 7.24174 10.0447C7.40944 10.198 7.57534 10.2034 7.74123 10.0556C7.99909 9.82836 8.1109 9.5182 8.2245 9.19723H6.7729H6.77471ZM2.41812 1.45239C2.15485 1.45239 1.93846 1.67058 1.93666 1.93385C1.93666 2.19712 2.15124 2.41711 2.41452 2.41892C2.6832 2.42252 2.90679 2.19892 2.90319 1.93024C2.89958 1.66878 2.68139 1.45239 2.41812 1.45239ZM5.45114 9.19362C5.77392 9.5705 6.13276 9.82295 6.56373 9.98343C6.46816 9.73279 6.3798 9.49837 6.28603 9.26755C6.27341 9.2351 6.22653 9.19723 6.19407 9.19543C5.95965 9.19002 5.72523 9.19182 5.45114 9.19182V9.19362ZM9.54806 9.19362C9.27397 9.19362 9.03955 9.19362 8.80514 9.19543C8.77628 9.19543 8.7312 9.21706 8.72219 9.24051C8.62481 9.48394 8.53285 9.72918 8.43547 9.98524C8.86825 9.81934 9.22709 9.56869 9.54806 9.19362ZM9.53724 5.80537C9.26676 5.44653 8.67711 5.04801 8.44449 5.0408C8.53105 5.2644 8.6176 5.49341 8.70956 5.72062C8.72399 5.75488 8.76366 5.80176 8.79432 5.80176C9.03234 5.80897 9.27217 5.80537 9.53724 5.80537ZM5.45114 5.80537C5.71982 5.80537 5.95063 5.80717 6.17964 5.80356C6.2121 5.80356 6.26439 5.78193 6.27521 5.75668C6.37259 5.51505 6.46455 5.26981 6.56193 5.01375C6.12915 5.17965 5.77031 5.4303 5.45114 5.80537Z" fill="#410EAD"/>
<path d="M0.398499 12.7261C0.283093 12.6107 0.176703 12.5061 0.0703125 12.3997C0.977333 11.4025 2.76793 11.3105 3.80479 12.3943C3.69479 12.5025 3.58479 12.6107 3.4766 12.7189C2.5263 11.8335 1.20093 11.9489 0.398499 12.7261Z" fill="#410EAD"/>
<path d="M1.94048 13.5488C2.3408 13.5488 2.66718 13.8824 2.66177 14.2846C2.65636 14.6795 2.32818 15.0004 1.93327 14.9986C1.53295 14.9986 1.20657 14.665 1.21198 14.2629C1.21739 13.868 1.54558 13.547 1.94048 13.5488ZM2.17851 14.2665C2.1749 14.1349 2.0613 14.0285 1.93147 14.0321C1.79983 14.0357 1.69344 14.1493 1.69885 14.2791C1.70246 14.4108 1.81606 14.5172 1.94589 14.5136C2.07572 14.51 2.18392 14.3964 2.18031 14.2647L2.17851 14.2665Z" fill="#410EAD"/>
<path d="M3.12112 13.0778C3.00932 13.1896 2.90474 13.2977 2.79654 13.4059C2.22492 12.9443 1.6533 12.9443 1.07627 13.4059C0.971681 13.2959 0.868897 13.1859 0.766113 13.0759C1.25298 12.4845 2.42688 12.3511 3.12112 13.0759V13.0778Z" fill="#410EAD"/>
<path d="M13.5442 13.5483H14.0202V14.0226H11.1387V12.1094H11.6111V13.5411H12.0926V13.0741H12.5794V13.5375H13.0609V12.5926H13.5478V13.5465L13.5442 13.5483Z" fill="#410EAD"/>
</svg>
