<svg width="15" height="15" viewBox="0 0 15 15" fill="none" xmlns="http://www.w3.org/2000/svg">
<path d="M0.0801603 11.7214C0.0801603 10.8534 0.0893821 9.98537 0.0801603 9.12187C0.0755494 8.6969 0.232321 8.44824 0.69341 8.44824C2.60232 8.44824 4.51123 8.45276 6.41553 8.44824C6.88123 8.44824 7.04722 8.71046 7.04261 9.12187C7.02417 10.8308 7.00111 12.5397 6.97806 14.2532C6.97345 14.6646 6.78901 14.9313 6.34175 14.9358C4.35907 14.9629 2.37639 14.9946 0.398313 14.9765C0.264597 14.9765 0.0386627 14.5967 0.02483 14.3843C-0.016668 13.4982 0.00638605 12.6075 0.00638605 11.7169C0.0340514 11.7169 0.0571068 11.7169 0.0847722 11.7169L0.0801603 11.7214Z" fill="#410EAD"/>
<path d="M0.222892 4.22602C0.222892 3.35799 0.250558 2.48997 0.21367 1.62195C0.190616 1.1382 0.347388 0.939282 0.845364 0.934761C2.639 0.907635 4.43264 0.866945 6.22628 0.817215C6.7427 0.803652 7.02857 0.957365 7.02396 1.53153C7.00552 3.26758 7.01474 5.00362 7.02396 6.73515C7.02396 7.33192 6.79803 7.63482 6.14328 7.62126C4.30353 7.58961 2.4684 7.58961 0.628652 7.59413C0.218282 7.59413 0.0937882 7.42234 0.10301 7.03805C0.121454 6.10222 0.10762 5.16186 0.10762 4.22602C0.144507 4.22602 0.186005 4.22602 0.222892 4.22602Z" fill="#410EAD"/>
<path d="M14.7475 11.754C14.7475 12.5542 14.7245 13.3499 14.7567 14.1456C14.7798 14.7288 14.5861 15.0136 13.9452 15.0001C12.1746 14.9639 10.4041 14.9594 8.62887 14.9594C8.094 14.9594 7.84501 14.7604 7.84501 14.2134C7.84501 12.5226 7.8404 10.8363 7.81274 9.14542C7.80352 8.61647 8.06173 8.43111 8.55048 8.43563C10.4179 8.46275 12.2807 8.4944 14.1481 8.51248C14.6046 8.51248 14.706 8.76114 14.7014 9.1409C14.6922 10.0089 14.7014 10.8769 14.7014 11.745C14.7152 11.745 14.7337 11.745 14.7475 11.745V11.754Z" fill="#410EAD"/>
<path d="M14.9273 0.555664C15.5498 4.76016 12.0639 8.0921 8.69336 7.28285C10.6853 5.13087 12.8063 2.84327 14.9273 0.555664Z" fill="#410EAD"/>
<path d="M8.76045 7.3028C7.71143 3.09435 10.7554 -0.365132 14.134 0.132467C12.4131 2.50633 10.595 4.7723 8.76045 7.3028Z" fill="#410EAD"/>
</svg>
