<svg width="15" height="15" viewBox="0 0 15 15" fill="none" xmlns="http://www.w3.org/2000/svg">
<path d="M15 7.56335C14.9096 10.5853 13.8459 12.7515 11.5702 14.1178C8.73827 15.8172 4.9562 15.0611 3.2552 11.852C1.88791 9.27733 2.604 5.83964 5.27601 4.4563C7.18326 3.46924 10.0638 3.99681 10.9398 6.67354C11.5238 8.45316 10.7243 10.4978 8.84719 10.8868C7.89008 11.0837 6.83101 10.5124 6.50194 9.59095C6.32118 9.08527 6.46022 8.44101 6.82638 8.09578C7.2945 7.6533 7.85996 7.82835 7.99437 8.45559C8.06621 8.79596 8.29332 8.9005 8.58532 8.72546C9.14382 8.39238 9.26896 7.54876 8.85414 6.90936C8.23075 5.94905 6.84028 5.68891 5.80207 6.3429C4.65493 7.06496 4.03618 8.77894 4.38611 10.1477C5.02573 12.6397 7.4544 13.7215 9.4868 13.318C11.6814 12.8828 13.3477 10.8041 13.6512 8.56743C14.0892 5.35341 12.182 2.45058 9.46131 1.43921C6.27946 0.257654 3.0165 1.35412 0.831154 4.29827C0.675885 4.50736 0.546108 4.73832 0.376935 4.93038C0.298142 5.0179 0.149826 5.03735 0.031636 5.08841C0.0246837 4.96442 -0.0262999 4.81612 0.0177315 4.71644C0.78017 3.01218 1.99451 1.76742 3.58428 0.921366C4.79398 0.277103 6.09175 -0.043812 7.44282 0.00481162C10.6919 0.123939 13.6767 2.10778 14.6918 5.71079C14.8864 6.39881 14.9305 7.1306 15 7.56578V7.56335Z" fill="#410EAD"/>
</svg>
