<svg width="15" height="15" viewBox="0 0 15 15" fill="none" xmlns="http://www.w3.org/2000/svg">
<path d="M15.0003 8.53219C15.0003 9.74575 15.0003 10.9619 15.0003 12.1754C15.0003 12.5646 14.8929 12.9153 14.6324 13.2174C14.6136 13.2405 14.5921 13.2635 14.5706 13.2866C14.4579 13.4094 14.3263 13.5042 14.1571 13.5503C13.9557 13.604 13.7624 13.6732 13.5529 13.6988C13.3193 13.7244 13.0991 13.6732 12.8816 13.6091C12.503 13.4965 12.1244 13.3813 11.7485 13.2661C11.5873 13.2174 11.4799 13.0869 11.4799 12.946C11.4799 12.7873 11.5954 12.6311 11.7565 12.5927C11.8129 12.5774 11.8827 12.5774 11.9391 12.5927C12.3634 12.7131 12.7876 12.8411 13.2119 12.9665C13.373 13.0152 13.5314 13.0152 13.6845 12.9563C14.0551 12.8104 14.2591 12.5825 14.2591 12.1882C14.2591 9.72526 14.2591 7.26231 14.2591 4.79936C14.2591 4.5587 14.1759 4.35132 13.9906 4.18491C13.8993 4.10298 13.7919 4.05177 13.6738 4.01849C12.6937 3.73686 11.7109 3.45268 10.7307 3.17105C7.93273 2.36714 5.13471 1.56322 2.33938 0.754184C2.08429 0.679937 1.8453 0.677378 1.609 0.790028C1.57141 0.80795 1.53381 0.830992 1.50427 0.859154C1.31362 1.04605 1.20353 1.26623 1.20353 1.5325C1.20353 3.18641 1.20353 4.83777 1.20353 6.49168C1.20353 6.53777 1.20353 6.58129 1.20353 6.62737C1.1901 6.81683 1.03704 6.95252 0.838336 6.95252C0.642314 6.95252 0.491941 6.82707 0.470459 6.64018C0.467773 6.60177 0.467773 6.56593 0.467773 6.52752C0.467773 4.86593 0.467773 3.20689 0.467773 1.5453C0.467773 1.30976 0.505367 1.08446 0.607406 0.866835C0.857133 0.336866 1.60094 -0.175182 2.45216 0.0577995C2.98384 0.203733 3.51283 0.359908 4.04182 0.513522C7.30438 1.45569 10.5643 2.40554 13.8295 3.33747C14.4793 3.52436 15.003 4.11066 15.0003 4.84033C15.0003 5.29861 15.0003 5.75433 15.0003 6.21261C15.0003 6.98581 15.0003 7.75644 15.0003 8.52963V8.53219Z" fill="#410EAD"/>
<path d="M8.43156 10.063C8.43156 8.7317 8.43156 7.40294 8.43156 6.07162C8.43156 5.78231 8.52823 5.53141 8.75647 5.33939C9.0599 5.0808 9.41436 5.01936 9.7876 5.17297C10.1609 5.32403 10.3596 5.60309 10.3864 5.99225C10.3891 6.04089 10.3864 6.08954 10.3864 6.13818C10.3864 8.73939 10.3864 11.3406 10.3864 13.9418C10.3864 14.0058 10.4052 14.0749 10.3461 14.1313C10.33 14.1466 10.3381 14.1825 10.3354 14.2081C10.2844 14.5486 10.0991 14.7995 9.77418 14.9505C9.71242 14.9787 9.63992 14.9915 9.5701 14.9941C9.44121 15.0017 9.30963 15.0017 9.18074 14.9941C9.11361 14.9915 9.03842 14.9787 8.97935 14.948C8.62221 14.7662 8.4423 14.4743 8.43424 14.0903C8.42619 13.7191 8.43424 13.3478 8.43424 12.9766C8.43424 12.0063 8.43424 11.0359 8.43424 10.063H8.43156Z" fill="#410EAD"/>
<path d="M5.63934 10.1014C5.63934 9.09013 5.63934 8.07884 5.63934 7.06755C5.63934 6.77056 5.75481 6.52477 5.98842 6.33788C6.28649 6.10234 6.62482 6.05369 6.98465 6.18426C7.33373 6.31227 7.52706 6.56574 7.57808 6.91905C7.58883 6.98818 7.59151 7.05986 7.59151 7.13155C7.59151 9.08245 7.59151 11.0359 7.59151 12.9868C7.59151 13.0431 7.60225 13.102 7.55123 13.1532C7.52975 13.1763 7.53781 13.2249 7.52975 13.2608C7.44382 13.8291 6.84233 14.1927 6.26769 14.0186C5.91324 13.9111 5.67157 13.609 5.64203 13.2377C5.63666 13.1788 5.63934 13.1174 5.63934 13.0585C5.63934 12.0728 5.63934 11.0871 5.63934 10.1014Z" fill="#410EAD"/>
<path d="M4.74538 10.0577C4.74538 10.7259 4.74538 11.3916 4.74538 12.0598C4.74538 12.4669 4.47149 12.8227 4.07676 12.9482C3.5236 13.1223 2.82812 12.8099 2.7959 12.0854C2.7959 12.0623 2.7959 12.0393 2.7959 12.0188C2.7959 10.7182 2.7959 9.41761 2.7959 8.11701C2.7959 7.85586 2.87646 7.62288 3.06711 7.43086C3.34369 7.14924 3.77064 7.06219 4.15194 7.203C4.51176 7.33869 4.74538 7.66128 4.74807 8.04532C4.75075 8.7161 4.74807 9.38688 4.74807 10.0577H4.74538Z" fill="#410EAD"/>
<path d="M0.000253066 10.0917C0.000253066 9.66417 0.000253066 9.23661 0.000253066 8.81162C0.000253066 8.73481 0.0190499 8.66568 0.053958 8.59656C0.241925 8.233 0.652765 8.02306 1.06361 8.07939C1.48787 8.13827 1.82621 8.4583 1.89066 8.86282C1.89871 8.91403 1.90677 8.96779 1.90677 9.01899C1.90677 9.7333 1.90677 10.4502 1.90677 11.1645C1.90677 11.6125 1.5926 11.9863 1.14148 12.0862C0.7011 12.1834 0.24461 11.9812 0.0512727 11.6023C0.0163646 11.5331 -0.00243217 11.464 0.000253066 11.3872C0.000253066 10.9571 0.000253066 10.527 0.000253066 10.0943V10.0917Z" fill="#410EAD"/>
</svg>
