<svg width="15" height="15" viewBox="0 0 15 15" fill="none" xmlns="http://www.w3.org/2000/svg">
<path d="M11.1885 0.00519429C11.4145 0.0441515 11.6456 0.0675258 11.8638 0.12726C13.5233 0.589552 14.5778 1.65698 14.918 3.34253C15.3595 5.53452 13.9752 7.61483 11.7936 8.11608C11.643 8.14984 11.604 8.21218 11.617 8.34982C11.6274 8.4641 11.617 8.58097 11.617 8.71342H12.0897C12.0923 8.77316 12.0975 8.81471 12.0975 8.85887C12.0975 10.4847 12.0975 12.1079 12.0975 13.7337C12.0975 14.3388 11.7703 14.7856 11.2119 14.9544C10.5184 15.1621 9.76007 14.6531 9.69255 13.9311C9.68476 13.8584 9.68216 13.7857 9.68216 13.7103C9.68216 12.0949 9.68216 10.4795 9.68216 8.86666V8.71862H10.16C10.16 8.54201 10.1678 8.38359 10.1548 8.22516C10.1522 8.1914 10.0821 8.14725 10.0354 8.13686C9.27701 7.96804 8.60954 7.62782 8.05375 7.08242C7.10839 6.15783 6.68765 5.03067 6.80193 3.71132C6.84608 3.17891 7.0071 2.67766 7.25383 2.20498C7.26681 2.17901 7.2772 2.15303 7.29798 2.10629C7.08242 2.04136 6.87724 1.97643 6.66687 1.91669C6.6409 1.9089 6.59935 1.92708 6.57857 1.94786C6.33963 2.1816 6.06693 2.23355 5.73969 2.10888C5.69294 2.1868 5.6462 2.26471 5.60204 2.34263C5.43063 2.6387 5.25662 2.93218 5.09041 3.23345C5.05664 3.29318 5.04625 3.38148 5.06184 3.44901C5.13196 3.74249 5.02288 4.05155 4.77355 4.22556C4.53202 4.39697 4.1866 4.39697 3.94766 4.22556C3.69314 4.04635 3.57627 3.7295 3.66977 3.43602C3.69834 3.34772 3.68016 3.29318 3.62562 3.22566C3.35551 2.89062 3.08801 2.55299 2.82569 2.21277C2.76856 2.13745 2.71661 2.0907 2.62312 2.14524C2.60234 2.15823 2.57377 2.16862 2.55299 2.16342C2.34522 2.12447 2.28289 2.26991 2.21017 2.41794C1.9115 3.02308 1.61023 3.62562 1.30636 4.22815C1.27 4.30087 1.26481 4.35022 1.31675 4.42294C1.49855 4.68006 1.49855 4.94756 1.34532 5.22286C1.32195 5.26182 1.30377 5.32934 1.32195 5.36051C1.57906 5.81501 1.84397 6.26432 2.10369 6.70843C3.90351 5.95006 5.50855 6.189 6.83569 7.6486C7.71352 8.61214 7.94467 9.78085 7.69534 11.0638C6.51884 10.8613 5.35791 10.6613 4.17361 10.4587C4.37619 11.6352 4.57617 12.7961 4.77875 13.9856C4.57617 14.0142 4.38139 14.0558 4.184 14.0635C2.727 14.1363 1.56348 13.5805 0.706424 12.4014C0.298672 11.8404 0.0779144 11.2015 0.0233743 10.5081C0.0207772 10.4613 0.00779144 10.4146 0 10.3652C0 10.2172 0 10.0717 0 9.92369C0.0233743 9.77046 0.0415543 9.61463 0.0727201 9.464C0.2727 8.50046 0.750575 7.70573 1.53232 7.10319C1.58426 7.06164 1.6362 7.02009 1.69594 6.97334C1.457 6.56299 1.22066 6.16562 0.99211 5.76047C0.916793 5.62802 0.849267 5.51114 0.664869 5.5501C0.620718 5.56049 0.568775 5.53971 0.522026 5.52673C0.223355 5.44622 0.0805115 5.22026 0 4.93717C0 4.88004 0 4.8203 0 4.76317C0.00779144 4.74499 0.0155829 4.7294 0.0207772 4.71122C0.119469 4.33204 0.366198 4.13725 0.755769 4.11648C0.794727 4.11648 0.84667 4.06713 0.867447 4.02817C1.19988 3.3685 1.52972 2.70882 1.85436 2.04655C1.87514 2.005 1.86475 1.92449 1.83618 1.88293C1.6414 1.58686 1.65698 1.22845 1.88553 0.97393C2.11408 0.719409 2.48547 0.659675 2.78154 0.82849C3.07762 0.997304 3.20488 1.33234 3.11138 1.67516C3.0984 1.71931 3.10359 1.78424 3.12956 1.818C3.41265 2.1868 3.70353 2.5504 3.99441 2.9114C4.01519 2.93737 4.06453 2.96854 4.08531 2.96075C4.28269 2.88283 4.47748 2.89842 4.67227 2.97633C4.69824 2.93478 4.71901 2.90101 4.73979 2.86725C4.94497 2.51144 5.15274 2.15563 5.35272 1.79982C5.3735 1.76346 5.3709 1.70632 5.36051 1.66217C5.25662 1.23624 5.48517 0.844072 5.89552 0.747978C6.29548 0.654481 6.68246 0.914195 6.76037 1.33493C6.77595 1.42064 6.81231 1.457 6.89542 1.47778C7.07463 1.52452 7.25383 1.57647 7.42784 1.6388C7.54211 1.68035 7.60964 1.65958 7.68496 1.56088C8.1888 0.921987 8.8277 0.464889 9.60165 0.21816C9.9159 0.119469 10.2457 0.0701229 10.5704 0C10.7756 0 10.9807 0 11.1859 0L11.1885 0.00519429ZM8.24854 2.39457C8.13946 2.36081 8.03038 2.33483 7.92909 2.29328C7.8226 2.24913 7.77066 2.2777 7.71352 2.37899C6.94737 3.75547 7.17591 5.4566 8.29009 6.6409C9.58866 8.01999 11.8612 8.11868 13.2688 6.85387C14.5518 5.70593 14.8972 3.96844 14.0973 2.43612C13.5 1.29338 12.5234 0.644092 11.243 0.511638C10.1496 0.39996 9.1887 0.750575 8.38359 1.50375C8.2797 1.60244 8.1888 1.71412 8.07972 1.83099C8.21737 1.87254 8.32645 1.89851 8.43034 1.94007C8.54721 1.98941 8.62253 1.95565 8.71083 1.86735C9.16793 1.41544 9.71592 1.13236 10.3522 1.02328C12.5234 0.651884 14.3908 2.5452 13.9804 4.70343C13.8791 5.24104 13.648 5.71892 13.2896 6.14485C13.1649 6.03836 13.0455 5.93708 12.9286 5.83838C13.9623 4.57098 13.6402 2.83089 12.4611 1.96864C11.3625 1.16612 9.89513 1.38688 9.14455 2.14265C9.15754 2.15044 9.16792 2.16083 9.18091 2.16602C9.77046 2.34263 10.36 2.52443 10.9496 2.69324C10.9937 2.70623 11.0716 2.67506 11.108 2.6387C11.3703 2.39197 11.7469 2.35561 12.0352 2.56079C12.3183 2.76077 12.4196 3.13735 12.2767 3.44901C12.1261 3.77625 11.7703 3.94766 11.4222 3.84118C11.3236 3.81261 11.2716 3.83339 11.2067 3.90091C10.947 4.16582 10.6821 4.42813 10.4172 4.69045C10.36 4.74758 10.3366 4.79173 10.3652 4.88004C10.4691 5.19689 10.3366 5.53452 10.0561 5.70593C9.77306 5.87734 9.41206 5.83579 9.17572 5.60724C8.93678 5.3735 8.88743 5.00989 9.06144 4.71642C9.22766 4.43333 9.56529 4.29828 9.88474 4.39957C9.96785 4.42554 10.0172 4.41515 10.0769 4.35541C10.3444 4.08271 10.6171 3.81521 10.8846 3.5451C10.9963 3.43343 10.934 3.20228 10.7782 3.15553C10.1419 2.96334 9.50556 2.77635 8.86925 2.58156C8.77576 2.55299 8.72901 2.57117 8.67966 2.65169C8.34982 3.16073 8.19919 3.71392 8.24074 4.32165C8.35762 6.01499 10.0665 7.1863 11.6794 6.65389C12.0092 6.54481 12.3105 6.35522 12.6455 6.19419C12.7156 6.2773 12.8143 6.39417 12.9156 6.51364C11.9547 7.3681 10.3808 7.56549 9.12377 6.72401C7.96025 5.94746 7.1915 4.10089 8.25113 2.39976L8.24854 2.39457ZM1.01808 11.9832C1.03886 11.9702 1.05964 11.9573 1.07782 11.9417C1.90371 11.2534 2.7322 10.5652 3.55549 9.87175C3.60224 9.8328 3.63341 9.74969 3.63341 9.68735C3.6386 8.76796 3.636 7.84858 3.636 6.92919C3.636 6.88763 3.63081 6.84608 3.62821 6.79673C3.17891 6.83309 2.76336 6.94737 2.3634 7.15514C2.4543 7.31356 2.54001 7.4642 2.63091 7.62522C2.48807 7.70833 2.35561 7.78624 2.21796 7.86676C2.12187 7.70314 2.03616 7.5577 1.94786 7.41225C0.470083 8.41475 0.0441515 10.5081 1.01808 11.9832ZM7.2798 10.5055C7.50575 8.50825 5.83579 6.83309 4.12167 6.81231V9.96265C5.17351 10.1445 6.22016 10.3237 7.2798 10.5081V10.5055ZM10.1704 10.173C10.1678 10.2224 10.1626 10.2665 10.1626 10.3081C10.1626 11.4482 10.1626 12.5858 10.1626 13.7259C10.1626 13.7986 10.1704 13.874 10.1834 13.9441C10.2639 14.3518 10.6873 14.6063 11.0872 14.4895C11.43 14.3882 11.6144 14.1155 11.617 13.7051C11.617 12.5754 11.617 11.4456 11.617 10.3185V10.1756H10.1704V10.173ZM1.30636 12.3806C2.06213 13.326 3.37889 13.7207 4.21517 13.5571C4.03596 12.5156 3.85676 11.4768 3.67236 10.4094C2.86985 11.0768 2.0907 11.7261 1.30636 12.3806ZM10.1704 9.20429V9.66917H11.6092V9.20429H10.1704ZM11.121 8.70563V8.23036H10.6587V8.70563H11.121ZM0.968735 4.84627C0.968735 4.71642 0.870044 4.61253 0.740187 4.60734C0.602538 4.60214 0.496055 4.70343 0.493458 4.84108C0.493458 4.97094 0.592149 5.07742 0.719409 5.08261C0.849267 5.08781 0.966138 4.97873 0.966138 4.84627H0.968735ZM9.9211 5.08002C9.9185 4.94756 9.80423 4.84108 9.66917 4.84887C9.53932 4.85407 9.44322 4.96055 9.44582 5.09041C9.44582 5.22546 9.5575 5.32934 9.69255 5.32155C9.81981 5.31636 9.9237 5.20468 9.9211 5.08002ZM2.43093 1.21546C2.30627 1.21027 2.19459 1.31416 2.1868 1.44142C2.17901 1.57387 2.28289 1.69074 2.41794 1.69334C2.5478 1.69853 2.66467 1.58426 2.66467 1.4544C2.66467 1.33234 2.55299 1.21806 2.43093 1.21546ZM11.6222 3.38668C11.7495 3.38408 11.856 3.2776 11.856 3.15294C11.856 3.02308 11.7417 2.9114 11.6092 2.914C11.4768 2.91659 11.3703 3.03087 11.3781 3.16592C11.3833 3.29318 11.4924 3.39187 11.6196 3.38928L11.6222 3.38668ZM4.36061 3.87494C4.48267 3.87494 4.59435 3.76326 4.59955 3.6412C4.60474 3.51134 4.49047 3.39447 4.36061 3.39447C4.23595 3.39447 4.12427 3.50355 4.12167 3.62821C4.11648 3.75547 4.23594 3.87494 4.3632 3.87494H4.36061ZM6.04616 1.21806C5.9163 1.22326 5.80722 1.34013 5.81501 1.46998C5.8228 1.59465 5.93448 1.69853 6.05914 1.69594C6.1916 1.69334 6.29548 1.57906 6.28769 1.44401C6.2825 1.31675 6.17342 1.21287 6.04616 1.21806Z" fill="#410EAD"/>
<path d="M5.27205 9.61213C5.0435 8.23305 4.81236 6.85396 4.57861 5.4541C5.97588 5.68784 7.35496 5.91639 8.73405 6.14754C8.57562 7.911 7.142 9.43033 5.26945 9.61473L5.27205 9.61213ZM8.17566 6.54231C7.17057 6.37609 6.17586 6.20987 5.16817 6.04106C5.33698 7.05914 5.5032 8.05384 5.66941 9.04855C6.81995 8.84338 7.97568 7.68765 8.17566 6.54231Z" fill="#410EAD"/>
<path d="M10.8871 7.27246C11.0144 7.27246 11.1234 7.37375 11.1286 7.50101C11.1338 7.63346 11.0273 7.75034 10.8949 7.75293C10.7702 7.75553 10.6611 7.65164 10.6559 7.52438C10.6508 7.38933 10.7546 7.27766 10.8871 7.27506V7.27246Z" fill="#410EAD"/>
</svg>
