<svg width="15" height="15" viewBox="0 0 15 15" fill="none" xmlns="http://www.w3.org/2000/svg">
<path d="M12.8908 11.0655C13.519 11.608 14.1195 12.1263 14.7179 12.6446C15.0735 12.9542 15.0884 13.1014 14.7882 13.4769C14.4389 13.9118 14.0854 14.3466 13.7298 14.777C13.4999 15.0538 13.3508 15.0713 13.0761 14.8385C12.5139 14.362 11.9454 13.892 11.4066 13.3891C11.1426 13.1409 10.9573 13.1189 10.6379 13.3232C6.67936 15.8312 1.52618 13.747 0.265573 9.14391C-0.854497 5.05907 1.68163 0.877598 5.74242 0.11773C9.54554 -0.593823 13.1634 1.99324 13.8512 5.9002C14.1578 7.64174 13.864 9.2647 13.0356 10.7976C12.9931 10.8767 12.9505 10.9557 12.8908 11.0655ZM7.01793 2.72017C4.6117 2.71138 2.62709 4.70329 2.64199 7.16957C2.6569 9.67977 4.52652 11.6585 6.9796 11.6695C9.55406 11.6805 11.298 9.49749 11.3342 7.26401C11.3747 4.78016 9.3539 2.68283 7.01793 2.72236V2.72017Z" fill="#410EAD"/>
<path d="M4.25586 7.19357C4.25586 5.63869 5.46111 4.3781 6.97086 4.36053C8.46783 4.34296 9.72418 5.62332 9.73909 7.18917C9.754 8.73087 8.49977 10.0134 6.97725 10.0112C5.46962 10.0112 4.25799 8.75503 4.25586 7.19357Z" fill="#410EAD"/>
</svg>
