<svg width="15" height="19" viewBox="0 0 15 19" fill="none" xmlns="http://www.w3.org/2000/svg">
<path d="M8.31615 5.03223H8.30469V8.94555H8.31615C9.09549 8.94555 9.84275 9.26864 10.3952 9.84491C10.9453 10.4212 11.257 11.2024 11.257 12.0174C11.257 12.8323 10.9476 13.6136 10.3952 14.1898C9.84504 14.7661 9.09549 15.0892 8.31615 15.0892H8.30469V19.0001H8.31615C10.088 19.0001 11.7888 18.2647 13.0426 16.9554C14.2965 15.6462 15.0002 13.8691 15.0002 12.0174C15.0002 10.1656 14.2965 8.38857 13.0426 7.0793C11.7888 5.77004 10.0903 5.03464 8.31615 5.03464V5.03223Z" fill="#410EAD"/>
<path d="M6.68403 13.9655H6.69549V10.057H6.68403C5.90468 10.057 5.15743 9.73387 4.60501 9.1576C4.05489 8.58133 3.74315 7.80012 3.74315 6.98514C3.74315 6.17017 4.05259 5.38895 4.60501 4.81268C5.15514 4.23642 5.90468 3.91332 6.68403 3.91332H6.69549V0H6.68403C4.91217 0 3.21136 0.735405 1.95753 2.04467C0.703703 3.35393 0 5.13096 0 6.98273C0 8.83451 0.703703 10.6115 1.95753 11.9208C3.21136 13.2301 4.90987 13.9655 6.68403 13.9655Z" fill="#410EAD"/>
</svg>
