<svg width="16" height="15" viewBox="0 0 16 15" fill="none" xmlns="http://www.w3.org/2000/svg">
<path d="M5.35791 7.87639V7.06293H7.53618V4.80762H8.42916V7.04056H10.6486V7.86012H8.45301V10.1154H7.55786V7.87842H5.35791V7.87639Z" fill="#410EAD"/>
<path d="M11.8146 11.3971H9.83789V10.7727H11.8038V8.74316H12.5559V10.7524H14.5629V11.395H12.5689V13.4063H11.8168V11.3991L11.8146 11.3971Z" fill="#410EAD"/>
<path d="M11.808 6.09879V4.09971H9.8335V3.49369H11.7972V1.45801H12.5558V3.48148H14.5672V4.09158H12.5645V6.09675H11.8102L11.808 6.09879Z" fill="#410EAD"/>
<path d="M3.42887 8.74316H4.18097V10.7504H6.15334V11.3869H4.20481V13.4002H3.45271V11.4154H1.47168V10.7748H3.43104V8.74316H3.42887Z" fill="#410EAD"/>
<path d="M6.16845 3.47124V4.05489H4.17441V6.09667H3.4765V4.08336H1.46729V3.49971H3.44615V1.45996H4.13973V3.47327H6.16845V3.47124Z" fill="#410EAD"/>
<path d="M15.9998 7.16917V7.72639H14.656V9.12961H14.0079V7.74469H12.6836V7.18748H13.9862V5.78223H14.6343V7.16917H15.9976H15.9998Z" fill="#410EAD"/>
<path d="M8.33824 14.9986H7.69018V13.5832H6.35938V13.0564H7.67717V11.6309H8.3209V13.0361H9.68639V13.5628H8.33824V15.0006V14.9986Z" fill="#410EAD"/>
<path d="M1.80331 7.65892V9.0296H1.32864V7.68739H0V7.24812H1.30696V5.88965H1.7903V7.21558H3.12977V7.65892H1.80331Z" fill="#410EAD"/>
<path d="M7.86147 1.37271V0H8.33831V1.35237H9.67778V1.78147H8.35781V3.16029H7.87014V1.79164H6.5415V1.37271H7.86364H7.86147Z" fill="#410EAD"/>
</svg>
