<svg width="15" height="15" viewBox="0 0 15 15" fill="none" xmlns="http://www.w3.org/2000/svg">
<path d="M8.31255 13.4666C8.6272 11.991 7.93263 10.8676 7.01898 9.7819C4.88167 7.24047 2.78632 4.66802 0.676984 2.10443C0.497516 1.88507 0.313386 1.6635 0.175871 1.41977C-0.266973 0.624326 0.157225 -0.0581158 1.10351 0.00392445C1.88432 0.054886 2.6558 0.227712 3.42961 0.351793C4.20342 0.475873 4.9749 0.642052 5.75338 0.724034C6.62275 0.814879 7.25904 1.20706 7.74151 1.87621C7.92564 2.13102 8.13541 2.3681 8.3242 2.60075C8.40578 2.57638 8.45472 2.57638 8.46871 2.55644C9.10268 1.58595 10 1.34444 11.1234 1.65907C11.6828 1.81638 12.2678 1.89837 12.8249 2.0579C15.0484 2.69381 15.6265 4.21823 14.2839 5.99967C13.1862 7.4554 12.0278 8.87124 10.902 10.3092C10.0746 11.3661 9.2635 12.4341 8.44307 13.4955C8.39879 13.4866 8.3545 13.4777 8.31022 13.4689L8.31255 13.4666Z" fill="#410EAD"/>
<path d="M5.29916 8.55469C5.99605 9.44319 6.74189 10.3007 7.38052 11.2268C8.01915 12.1552 7.89795 13.1922 7.57398 14.2003C7.42015 14.6789 6.99362 14.9072 6.4995 14.9891C6.06831 15.06 5.73268 14.7897 5.63945 14.2292C5.54155 13.6464 5.50659 13.0548 5.46231 12.4654C5.36209 11.1825 5.27352 9.89741 5.18262 8.61451C5.22224 8.59457 5.26186 8.57684 5.30382 8.5569L5.29916 8.55469Z" fill="#410EAD"/>
</svg>
