<svg width="17" height="15" viewBox="0 0 17 15" fill="none" xmlns="http://www.w3.org/2000/svg">
<path d="M17 6.10248C16.9242 6.40028 16.7199 6.61011 16.4859 6.81037C15.462 7.68685 14.4474 8.57254 13.4246 9.45013C13.2723 9.58082 13.2289 9.71812 13.2645 9.90807C13.5094 11.2263 13.7446 12.5464 13.9852 13.8653C14.0567 14.2574 13.9329 14.5813 13.5946 14.8143C13.2488 15.0525 12.8765 15.0525 12.5003 14.8659C11.4147 14.3273 10.3286 13.7899 9.24295 13.2517C9.07653 13.1692 8.90542 13.0941 8.74525 13.0028C8.56984 12.9027 8.41201 12.9115 8.23191 13.0014C6.99194 13.6213 5.74767 14.2335 4.50692 14.8519C4.26276 14.9737 4.01117 15.0323 3.74044 14.9712C3.1978 14.8489 2.89426 14.391 2.99466 13.834C3.22788 12.535 3.46502 11.2366 3.7084 9.93936C3.74786 9.72843 3.69981 9.57566 3.52752 9.42731C2.46531 8.51291 1.41051 7.59151 0.356105 6.66901C-0.0705015 6.29574 -0.11699 5.75313 0.233827 5.35041C0.416267 5.14095 0.660042 5.04561 0.938586 5.00954C2.39538 4.81996 3.85139 4.62817 5.30818 4.43969C5.48944 4.41613 5.6043 4.3333 5.68556 4.17649C6.30984 2.97458 6.93842 1.77526 7.56935 0.576298C7.8264 0.0878067 8.33427 -0.113922 8.83862 0.063511C9.11403 0.160326 9.29179 0.349538 9.41875 0.592864C9.94224 1.59746 10.4685 2.60094 10.9939 3.60517C11.0967 3.80137 11.2033 3.99574 11.3002 4.19416C11.3721 4.3414 11.4889 4.41613 11.6565 4.43748C12.4781 4.54276 13.2992 4.65062 14.1208 4.75738C14.7834 4.84351 15.4463 4.92781 16.1085 5.01653C16.5925 5.08132 16.8656 5.36551 17 5.78994V6.10284V6.10248ZM8.48819 12.2596C8.68508 12.3266 8.88003 12.3704 9.0527 12.4551C10.2931 13.0625 11.5291 13.6776 12.7656 14.2916C12.9097 14.363 13.0531 14.4116 13.2008 14.3111C13.3461 14.2121 13.3516 14.0755 13.3227 13.9194C13.0797 12.6012 12.8429 11.2819 12.6027 9.96292C12.5355 9.59481 12.6433 9.28375 12.934 9.03011C13.1895 8.80703 13.4469 8.58543 13.704 8.36345C14.5275 7.65151 15.3506 6.93958 16.1745 6.22837C16.2917 6.12714 16.3722 6.01486 16.3163 5.85768C16.2616 5.7038 16.1339 5.64601 15.9729 5.63129C15.8632 5.62135 15.7538 5.60331 15.6444 5.58895C14.3251 5.41594 13.007 5.23482 11.6862 5.07432C11.2037 5.01579 10.874 4.80928 10.6603 4.39257C10.0696 3.23926 9.46212 2.09405 8.86049 0.945888C8.8265 0.880732 8.79447 0.81263 8.74876 0.754835C8.61398 0.584765 8.35732 0.586974 8.2241 0.75778C8.18855 0.803427 8.16198 0.856068 8.13542 0.907236C7.5166 2.08816 6.89701 3.26834 6.28132 4.45073C6.10513 4.78903 5.83518 4.99923 5.43319 5.05003C5.22496 5.07617 5.01752 5.10598 4.8093 5.13359C3.53377 5.30145 2.25864 5.46895 0.983122 5.63718C0.841311 5.65595 0.73505 5.72111 0.685435 5.85363C0.634649 5.9891 0.686608 6.09769 0.786227 6.1934C0.809667 6.21549 0.83506 6.23573 0.859281 6.25709C1.91564 7.17701 2.97083 8.09804 4.02875 9.01613C4.32643 9.27454 4.44129 9.59039 4.37488 9.96108C4.20884 10.8902 4.03578 11.8186 3.86662 12.7474C3.79083 13.163 3.71661 13.5789 3.64316 13.9949C3.6205 14.1234 3.6584 14.2331 3.77442 14.3108C3.89006 14.3884 4.01195 14.384 4.1354 14.3273C4.19009 14.3023 4.24322 14.2743 4.29674 14.2478C5.50468 13.6496 6.71105 13.0485 7.92251 12.4562C8.09518 12.3715 8.29051 12.3273 8.4878 12.2603L8.48819 12.2596Z" fill="#410EAD"/>
<path d="M8.80012 7.41963C9.0982 7.51129 9.48379 7.58308 9.82249 7.74321C10.8355 8.22286 11.3836 9.0191 11.4789 10.0837C11.5016 10.3373 11.491 10.5943 11.4871 10.8494C11.484 11.0607 11.3641 11.1763 11.1426 11.1961C11.0933 11.2006 11.0429 11.198 10.9933 11.198C9.45019 11.198 7.90706 11.1921 6.36394 11.2002C5.48142 11.205 5.50369 11.1855 5.51033 10.3878C5.51346 10.0038 5.55409 9.62797 5.70762 9.27016C6.14087 8.26152 6.9261 7.66112 8.06606 7.47595C8.13638 7.46454 8.2067 7.45239 8.30906 7.43509C7.84417 7.35153 7.47186 7.17152 7.19801 6.83433C6.92376 6.49639 6.7921 6.11576 6.85422 5.6939C6.97455 4.87373 7.68946 4.29984 8.54736 4.31677C9.36815 4.33297 10.0796 4.95325 10.1534 5.73402C10.2225 6.46584 9.73694 7.25288 8.80051 7.41926L8.80012 7.41963ZM6.1815 10.5608H10.8199C10.8769 9.64821 10.5675 8.90094 9.73772 8.41245C8.92553 7.93389 8.07622 7.93352 7.26442 8.41245C6.43582 8.9013 6.12329 9.64748 6.1815 10.5608ZM8.49423 4.94257C7.95004 4.94515 7.5039 5.36811 7.50546 5.87943C7.50702 6.38854 7.95746 6.81371 8.49775 6.81629C9.04155 6.81887 9.50215 6.38117 9.49512 5.86839C9.48848 5.3556 9.03882 4.93999 8.49423 4.94294V4.94257Z" fill="#410EAD"/>
<path d="M3.52934 7.11719C3.59966 7.13854 3.65591 7.14148 3.69147 7.16836C4.14268 7.51218 4.59546 7.85453 5.03731 8.20866C5.15412 8.30253 5.14787 8.46855 5.06036 8.58156C4.96777 8.7012 4.83963 8.73359 4.69274 8.69678C4.64625 8.685 4.60054 8.65886 4.56265 8.62978C4.15909 8.32056 3.75475 8.01245 3.35667 7.69771C3.17266 7.5523 3.16133 7.33695 3.32502 7.21106C3.38518 7.16467 3.4684 7.14443 3.52934 7.11756V7.11719Z" fill="#410EAD"/>
<path d="M2.66243 6.81245C2.48858 6.81613 2.33114 6.67293 2.32724 6.50765C2.32294 6.34273 2.47335 6.19733 2.65071 6.19438C2.82885 6.19144 2.98277 6.33022 2.98629 6.49661C2.98981 6.66042 2.83784 6.80877 2.66243 6.81245Z" fill="#410EAD"/>
</svg>
