<svg width="15" height="16" viewBox="0 0 15 16" fill="none" xmlns="http://www.w3.org/2000/svg">
<path d="M12.5128 14.6547C10.9543 14.3379 10.191 12.6395 10.8999 11.191C10.7837 11.0947 10.665 10.9984 10.5488 10.8982C10.3757 10.749 10.3391 10.5458 10.4536 10.3916C10.5693 10.2357 10.7534 10.2285 10.9391 10.3749C11.0542 10.4656 11.1667 10.5597 11.2933 10.6627C11.6344 10.322 12.0352 10.106 12.5034 10.0242V5.97378C12.0451 5.88693 11.6454 5.68319 11.297 5.33359C11.1651 5.44047 11.0391 5.54736 10.9088 5.647C10.7419 5.77448 10.5651 5.75834 10.4552 5.61193C10.3432 5.46386 10.3736 5.25955 10.5347 5.11871C10.6551 5.01294 10.7806 4.91441 10.902 4.81421C10.1816 3.32063 10.9925 1.64557 12.5133 1.34608C12.5133 1.03991 12.5123 0.72872 12.5133 0.418092C12.5144 0.153668 12.6279 0.00225069 12.8231 2.39608e-05C13.0187 -0.00220277 13.1375 0.150884 13.139 0.411968C13.1406 0.723153 13.139 1.0349 13.139 1.35443C13.7396 1.47412 14.2225 1.77584 14.5783 2.29133C14.8613 2.7016 14.9989 3.16532 15 3.67245C15.001 4.55479 14.4967 5.67094 13.1485 5.98213V10.0231C13.7396 10.1411 14.2225 10.4428 14.5783 10.9583C14.8618 11.3686 14.9989 11.8323 15 12.3394C15.001 13.229 14.4872 14.3429 13.139 14.6513C13.139 14.9575 13.1401 15.2687 13.139 15.5799C13.138 15.8432 13.0224 15.9957 12.8278 15.9974C12.6326 15.9991 12.5144 15.846 12.5133 15.5843C12.5118 15.2731 12.5133 14.962 12.5133 14.6541L12.5128 14.6547ZM14.3915 3.65019C14.3868 2.73222 13.6758 1.99127 12.8068 1.99851C11.953 2.00575 11.2556 2.75838 11.2598 3.66911C11.2635 4.59098 11.9672 5.33359 12.8351 5.33192C13.6967 5.3297 14.3967 4.57428 14.3915 3.65019ZM12.8241 10.666C11.9588 10.6677 11.2572 11.4181 11.2598 12.3394C11.2624 13.2502 11.9635 13.9972 12.8178 13.9995C13.6931 14.0011 14.3973 13.2479 14.392 12.3149C14.3873 11.407 13.681 10.6649 12.8241 10.6666V10.666Z" fill="#410EAD"/>
<path d="M1.85438 10.0205V5.97622C1.23129 5.84929 0.726429 5.52363 0.370153 4.95972C0.107 4.54387 -0.0196061 4.08239 0.00445954 3.58248C0.059392 2.44073 0.730092 1.63187 1.86065 1.35186C1.86065 1.04736 1.85961 0.736171 1.86065 0.425543C1.8617 0.151099 1.98203 -0.00699877 2.18293 0.00023809C2.3765 0.00691827 2.48531 0.158336 2.48636 0.425543C2.48741 0.730048 2.48636 1.03511 2.48636 1.35186C3.23763 1.50551 3.8037 1.92023 4.138 2.6506C4.46916 3.37484 4.42783 4.09909 4.08202 4.81999C4.20915 4.92687 4.33366 5.02707 4.45295 5.13284C4.61931 5.27981 4.64652 5.47131 4.52828 5.62495C4.41475 5.77247 4.24263 5.7875 4.07417 5.66169C4.01035 5.61382 3.95018 5.56038 3.8874 5.51027C3.82567 5.46073 3.76289 5.41174 3.6886 5.35329C3.34802 5.67895 2.9593 5.8916 2.49839 5.97009V10.0238C2.95041 10.1085 3.35639 10.3128 3.70272 10.664C3.83404 10.5594 3.95541 10.4569 4.08202 10.3629C4.24525 10.241 4.42783 10.2649 4.53404 10.4141C4.64233 10.5666 4.61617 10.7492 4.45818 10.8906C4.3436 10.993 4.22223 11.0866 4.09091 11.1946C4.43254 11.9043 4.47126 12.6291 4.13957 13.3506C3.80736 14.0737 3.24862 14.4907 2.48532 14.6454C2.48532 14.9516 2.48636 15.2622 2.48532 15.5729C2.48427 15.8473 2.36342 16.006 2.16357 15.9998C1.96947 15.9937 1.86065 15.8428 1.85961 15.5751C1.85856 15.2706 1.85961 14.9655 1.85961 14.6471C1.23076 14.5174 0.72486 14.1934 0.368583 13.6295C0.105431 13.2136 -0.0211756 12.7521 0.0028901 12.2522C0.0583458 11.1094 0.728522 10.3011 1.85281 10.0233L1.85438 10.0205ZM3.73987 3.66599C3.74039 2.74524 3.03673 1.99761 2.17037 1.99873C1.31447 1.99928 0.610286 2.74524 0.608194 3.65318C0.606101 4.57728 1.30244 5.32657 2.16828 5.33158C3.03202 5.33659 3.73935 4.58674 3.73987 3.66599ZM2.17142 13.9986C3.02836 14.0008 3.73516 13.2587 3.74039 12.3513C3.74562 11.4183 3.04301 10.6651 2.16723 10.6663C1.3129 10.6674 0.611333 11.4133 0.608717 12.3246C0.605578 13.2465 1.3061 13.9963 2.17194 13.9991L2.17142 13.9986Z" fill="#410EAD"/>
<path d="M7.18723 10.3373C6.95233 10.2477 6.73051 10.1854 6.52857 10.0801C6.33186 9.97715 6.15503 9.83019 5.94524 9.68545C5.83746 9.77118 5.71033 9.87584 5.57954 9.97437C5.40585 10.1052 5.2196 10.0863 5.11078 9.93206C4.9983 9.77285 5.03126 9.58414 5.20025 9.44218C5.32267 9.3392 5.44927 9.24178 5.5832 9.13434C5.22274 8.38894 5.21176 7.64187 5.57222 6.87811C5.44875 6.77735 5.32424 6.67937 5.20339 6.57638C5.0208 6.42107 4.98732 6.23514 5.10922 6.07203C5.2217 5.92117 5.40271 5.90892 5.57902 6.04475C5.70039 6.13828 5.81811 6.23681 5.95099 6.34425C6.29628 5.99632 6.70069 5.77309 7.18671 5.69237V5.43853C7.18671 3.79242 7.18671 2.14687 7.18671 0.500759C7.18671 0.431174 7.18043 0.360475 7.19142 0.29256C7.22072 0.112752 7.3243 0.00364226 7.49747 0.00197222C7.67064 0.000302171 7.7758 0.108298 7.80771 0.28755C7.81974 0.354908 7.81346 0.426163 7.81346 0.495192C7.81346 2.1413 7.81346 3.78685 7.81346 5.43296V5.68848C8.28955 5.77198 8.69134 5.9863 9.0361 6.3281C9.16951 6.21955 9.29089 6.11545 9.41749 6.0197C9.57915 5.89723 9.76331 5.91894 9.87108 6.06646C9.97885 6.21454 9.95112 6.40381 9.79836 6.54465C9.73924 6.59921 9.67594 6.6482 9.61473 6.69997C9.55352 6.75174 9.4923 6.80295 9.41906 6.86474C9.78371 7.61905 9.78685 8.37836 9.41749 9.13712C9.55561 9.25013 9.68745 9.352 9.81301 9.46167C9.96263 9.59249 9.98722 9.79567 9.87788 9.94097C9.77429 10.079 9.59275 10.1041 9.43947 9.99107C9.30553 9.89254 9.17841 9.78343 9.0361 9.66875C8.69343 10.0033 8.29425 10.2249 7.81451 10.3062V10.5583C7.81451 12.2044 7.81451 13.85 7.81451 15.4961C7.81451 15.5584 7.81765 15.6213 7.81189 15.6837C7.79411 15.8685 7.66645 15.996 7.50323 15.9971C7.34 15.9982 7.20973 15.8713 7.1909 15.6876C7.18462 15.6258 7.18828 15.5629 7.18828 15.5C7.18828 13.8539 7.18828 12.2083 7.18828 10.5622V10.3362L7.18723 10.3373ZM9.06645 8.0104C9.07325 7.09799 8.38005 6.34258 7.52677 6.332C6.65779 6.32142 5.94314 7.05847 5.93425 7.97533C5.92536 8.89942 6.62221 9.65929 7.48335 9.66485C8.3518 9.67098 9.05965 8.93059 9.06645 8.0104Z" fill="#410EAD"/>
</svg>
