<svg width="16" height="15" viewBox="0 0 16 15" fill="none" xmlns="http://www.w3.org/2000/svg">
<path d="M0 13.7335C0.106558 13.5221 0.320326 13.5989 0.519104 13.5722C0.519104 13.4152 0.519104 13.2597 0.519104 13.1042C0.519104 12.7706 0.698873 12.6037 1.05841 12.6037H1.55568C1.55568 12.3748 1.55568 12.1653 1.55568 11.9557C1.55601 11.6829 1.61369 11.6279 1.9011 11.6248C1.9477 11.6242 1.9943 11.6248 2.05426 11.6248V6.788C1.96986 6.788 1.88285 6.79199 1.79682 6.78707C1.63845 6.77816 1.55992 6.70411 1.55731 6.55356C1.55308 6.3139 1.55633 6.07424 1.55633 5.81246C1.31063 5.81246 1.07829 5.81308 0.846273 5.81246C0.587862 5.81154 0.520733 5.75009 0.519756 5.50981C0.518452 5.22991 0.5178 4.95 0.520081 4.67039C0.522037 4.47006 0.603829 4.38127 0.814012 4.39909C1.09067 4.42275 1.30607 4.3318 1.52961 4.18493C3.60375 2.82103 5.68538 1.46665 7.7644 0.1095C7.98697 -0.0358311 8.01434 -0.0364456 8.23495 0.10735C10.357 1.49246 12.48 2.87695 14.5994 4.26543C14.7382 4.35638 14.8728 4.41722 15.0439 4.39632C15.1052 4.38864 15.1687 4.39294 15.2313 4.39602C15.3867 4.4037 15.4754 4.47897 15.478 4.62554C15.4832 4.94447 15.4835 5.2637 15.478 5.58263C15.4754 5.73688 15.3884 5.80908 15.2173 5.81154C14.968 5.81492 14.7187 5.81246 14.4443 5.81246C14.4443 6.0174 14.4443 6.21159 14.4443 6.40577C14.4443 6.75297 14.4137 6.78216 14.0474 6.78984C14.0168 6.79045 13.9865 6.79322 13.9441 6.79568V11.6251C14.0184 11.6251 14.0898 11.623 14.1608 11.6254C14.3661 11.6325 14.442 11.7038 14.4437 11.8967C14.4459 12.1259 14.4443 12.3555 14.4443 12.6037H14.9569C15.3062 12.6037 15.4809 12.7706 15.4809 13.1042V13.567C15.6679 13.6063 15.8941 13.516 16 13.7332V14.8528C15.9224 14.968 15.8117 15 15.6689 15C10.5564 14.9975 5.44358 14.9975 0.331079 15C0.188676 15 0.0772301 14.9687 0 14.8528V13.7332V13.7335ZM15.0068 4.83723C14.9246 4.83723 14.8582 4.83723 14.7917 4.83723C11.9068 4.83723 9.02191 4.83723 6.13735 4.83723C5.89393 4.83723 5.78477 4.77056 5.78183 4.62093C5.7789 4.46638 5.8923 4.3954 6.14387 4.3954C8.67976 4.3954 11.2156 4.3954 13.7515 4.3954H13.9686C13.8975 4.34563 13.862 4.3192 13.8252 4.29493C11.9257 3.05454 10.0256 1.81507 8.12807 0.571612C8.02998 0.507396 7.96676 0.51139 7.87161 0.573763C5.978 1.81384 4.08212 3.05055 2.18656 4.28848C2.14713 4.31429 2.11063 4.3447 2.04285 4.3954H2.25043C3.15112 4.3954 4.05214 4.3954 4.95283 4.3954C4.99976 4.3954 5.04701 4.39233 5.09328 4.39755C5.22526 4.41261 5.32008 4.51093 5.309 4.62615C5.29695 4.74967 5.22102 4.82218 5.08839 4.83478C5.0369 4.83969 4.98444 4.83693 4.9323 4.83693C3.68261 4.83693 2.43291 4.83693 1.18322 4.83693H1.00236V5.35803H15.0068V4.83693V4.83723ZM6.47039 5.82506H4.61132C4.61132 6.06748 4.61458 6.29762 4.61035 6.52744C4.60676 6.7118 4.52758 6.78277 4.33238 6.78861C4.25613 6.79076 4.17988 6.78892 4.10525 6.78892V11.6245C4.17369 11.6245 4.23039 11.6239 4.28741 11.6245C4.54126 11.6279 4.61002 11.6933 4.61165 11.9345C4.61295 12.1112 4.61817 12.2882 4.60969 12.4645C4.60448 12.5748 4.64293 12.6077 4.75992 12.6062C5.22819 12.6003 5.69678 12.6037 6.16505 12.6037C6.26249 12.6037 6.35992 12.6037 6.47104 12.6037C6.47104 12.361 6.47006 12.1361 6.47104 11.9112C6.47234 11.7041 6.55088 11.6303 6.77279 11.6248C6.83927 11.6233 6.90607 11.6248 6.98037 11.6248V6.78922C6.91291 6.78922 6.85686 6.78953 6.80082 6.78922C6.53914 6.78677 6.47136 6.72194 6.47104 6.47245C6.47071 6.25798 6.47104 6.04321 6.47104 5.82506H6.47039ZM9.55145 5.82045C9.5433 5.83551 9.53483 5.8438 9.5345 5.8521C9.53222 6.04813 9.53059 6.24446 9.52994 6.44049C9.52929 6.73177 9.47389 6.78554 9.17084 6.78922C9.12098 6.78984 9.0708 6.79476 9.01768 6.79783V11.614C9.06656 11.618 9.10697 11.6233 9.1477 11.6239C9.48464 11.6309 9.52994 11.6749 9.52994 11.9975C9.52994 12.196 9.52994 12.3948 9.52994 12.5924H11.389C11.389 12.3714 11.3884 12.1613 11.389 11.9508C11.39 11.6884 11.4535 11.627 11.7266 11.6242C11.782 11.6236 11.8374 11.6242 11.896 11.6242V6.79598C11.856 6.79353 11.8253 6.79045 11.795 6.78984C11.4183 6.78185 11.389 6.75328 11.3887 6.39747C11.3887 6.20759 11.3887 6.01801 11.3887 5.82076H9.55145V5.82045ZM0.476416 14.5456H15.5187V14.0309H0.476416V14.5456ZM15.0029 13.0548H1.00041V13.5691H15.0025V13.0548H15.0029ZM2.54762 6.79752V11.6147H3.61189V6.79752H2.54762ZM13.4504 11.6156V6.80029H12.3835V11.6156H13.4504ZM7.46786 11.6144H8.52627V6.79936H7.46786V11.6144ZM4.13198 12.0771H2.03796V12.5951H4.13198V12.0771ZM6.95006 12.0759V12.5942H9.04994V12.0759H6.95006ZM11.8635 12.5933H13.9686V12.0802H11.8635V12.5933ZM9.05222 5.82045H6.94876V6.3394H9.05222V5.82045ZM4.13328 5.82106H2.03536V6.33602H4.13328V5.82106ZM13.9679 5.81922H11.8687V6.33756H13.9679V5.81922Z" fill="#410EAD"/>
<path d="M7.99301 2.4463C8.41305 2.44415 8.74869 2.75632 8.75032 3.14991C8.75162 3.54166 8.41338 3.86182 7.99855 3.86152C7.59056 3.8609 7.25297 3.54597 7.24906 3.16251C7.24515 2.76738 7.57623 2.44845 7.99301 2.4463ZM8.28075 3.14991C8.27912 3.00643 8.15724 2.8909 8.00441 2.88875C7.84474 2.8866 7.717 3.00581 7.71863 3.15544C7.72026 3.2977 7.84441 3.4163 7.99464 3.41876C8.15073 3.42153 8.28205 3.2977 8.28042 3.14991H8.28075Z" fill="#410EAD"/>
</svg>
