<svg width="15" height="15" viewBox="0 0 15 15" fill="none" xmlns="http://www.w3.org/2000/svg">
<path d="M7.46133 14.9999C3.38824 15.017 -0.0431656 11.6095 0.000410533 7.38111C0.0422778 3.33227 3.39593 0.00256592 7.52627 6.54612e-07C11.6677 -0.00170952 15.0009 3.34767 15 7.51023C15 11.6813 11.6626 14.9965 7.46133 14.9999ZM14.4198 7.51108C14.4438 3.72818 11.3567 0.617373 7.53823 0.576328C3.73514 0.536139 0.609623 3.66234 0.589971 7.52733C0.570319 11.2666 3.7078 14.4108 7.46987 14.4245C11.2858 14.4381 14.3951 11.3453 14.4198 7.51108Z" fill="#410EAD"/>
<path d="M1.16699 7.49088C1.16871 3.9508 4.01149 1.155 7.59568 1.16703C11.0055 1.1782 13.8285 4.03073 13.8337 7.46854C13.838 10.9863 11.0115 13.8422 7.53211 13.8336C3.98057 13.8259 1.16527 11.0198 1.16699 7.49088ZM8.47885 7.66621C8.57077 7.56393 8.61974 7.51237 8.66527 7.45822C9.05359 6.99584 9.11974 6.9924 9.49431 7.46338C9.83194 7.88881 10.1464 8.33486 10.5003 8.74654C10.612 8.87632 10.8165 8.98805 10.9849 8.99664C11.5699 9.02672 12.1575 8.99922 12.7443 9.01297C12.9711 9.01813 13.0768 8.94937 13.1189 8.71818C13.533 6.43461 12.8938 4.49311 11.0931 3.04064C8.65496 1.07421 5.3663 1.34838 3.24002 3.6689C1.85514 5.18067 1.47799 6.98638 1.94792 9.00781C2.17473 9.00781 2.37662 8.98289 2.57077 9.01297C2.99088 9.07743 3.24088 8.89609 3.4883 8.56176C4.28039 7.49346 5.11115 6.45352 5.92902 5.40499C6.2529 4.98988 6.39465 4.99331 6.71424 5.40327C7.29242 6.1467 7.87232 6.8884 8.4797 7.66707L8.47885 7.66621ZM10.9247 12.0563H4.07163C5.78383 13.6214 9.22799 13.6188 10.9247 12.0563ZM12.1146 10.8445H2.89294C3.0682 11.2957 3.356 11.4435 3.82421 11.4392C6.28297 11.4169 8.74173 11.4194 11.2005 11.4418C11.6541 11.4461 11.9256 11.2811 12.1146 10.8445ZM5.99946 6.29194C5.26579 7.2382 4.60857 8.08562 3.91184 8.98375H5.99946V6.29194ZM2.22541 9.63264C2.26407 10.0263 2.39981 10.2446 2.86201 10.23C3.91957 10.1973 4.97971 10.187 6.03641 10.2325C6.51665 10.2532 6.72283 10.0194 6.93847 9.63264H2.22541ZM6.64465 8.95539C7.38606 9.09634 7.74173 8.92101 8.02094 8.27728C8.04843 8.21282 8.04758 8.10023 8.00806 8.04867C7.58194 7.48744 7.14551 6.93396 6.64465 6.29281V8.95625V8.95539ZM9.39122 8.30994V10.1861H10.8551C10.3629 9.55529 9.91441 8.98117 9.39122 8.30994ZM8.7572 10.2007V8.31596C8.23572 8.98719 7.78297 9.57076 7.29414 10.2007H8.7572ZM12.8483 9.716C12.8191 9.68678 12.7898 9.65842 12.7606 9.6292H11.2426C11.5596 10.2351 11.7357 10.3486 12.3886 10.1964C12.5691 10.1543 12.6971 9.88274 12.8491 9.716H12.8483Z" fill="#410EAD"/>
<path d="M7.5 5.12793C7.51724 4.28425 8.16786 3.65853 9.01841 3.66708C9.85259 3.67563 10.5144 4.34836 10.4998 5.17153C10.4842 6.00838 9.78192 6.68624 8.95205 6.66657C8.13597 6.64691 7.48363 5.95538 7.50086 5.12793H7.5ZM9.91722 5.15016C9.91635 4.67831 9.48893 4.26288 8.99945 4.25775C8.49532 4.25262 8.06359 4.68857 8.07824 5.18777C8.09116 5.64423 8.50911 6.05197 8.97101 6.06052C9.476 6.06992 9.91808 5.64423 9.91722 5.15016Z" fill="#410EAD"/>
<path d="M6.24662 4.49945C5.74187 4.50208 5.33301 4.09341 5.33301 3.58542C5.33301 3.08007 5.74536 2.66437 6.24575 2.667C6.7383 2.66876 7.16721 3.09677 7.16634 3.5863C7.16634 4.08462 6.75051 4.49769 6.24662 4.50033V4.49945ZM6.66769 3.59948C6.47503 3.44832 6.35559 3.28397 6.24837 3.29188C6.14201 3.29891 5.97289 3.47644 5.96853 3.58454C5.96504 3.68386 6.13678 3.85875 6.24662 3.87281C6.35123 3.886 6.4759 3.73307 6.66769 3.60036V3.59948Z" fill="#410EAD"/>
</svg>
