<svg width="12" height="15" viewBox="0 0 12 15" fill="none" xmlns="http://www.w3.org/2000/svg">
<path d="M3.64603 0.000366925C4.55518 0.456898 5.46434 0.913062 6.37312 1.36996C6.74926 1.55896 6.82713 1.7964 6.6332 2.16118C6.18184 3.01002 5.73009 3.85923 5.27722 4.70733C5.14075 4.96312 4.94909 5.06588 4.70942 5.01854C4.41115 4.95982 4.24029 4.6721 4.34084 4.39356C4.36239 4.33411 4.39414 4.27796 4.42401 4.22181C4.80582 3.50288 5.188 2.78433 5.57586 2.05476C5.52445 2.02687 5.47833 1.99971 5.4307 1.97549C4.73475 1.62648 4.03842 1.27785 3.34209 0.929576C3.14136 0.829389 3.02228 0.678558 3.03627 0.45176C3.0495 0.239642 3.16782 0.100554 3.37082 0.0256889C3.38367 0.0209181 3.3935 0.00880767 3.40484 0C3.48536 0 3.56588 0 3.6464 0L3.64603 0.000366925Z" fill="#410EAD"/>
<path d="M0.00037782 7.53337C0.00793838 5.08117 1.56768 2.90017 3.94094 2.04766C4.24601 1.9383 4.52613 2.04363 4.62858 2.30639C4.7314 2.57025 4.60211 2.83008 4.29213 2.94311C3.44006 3.25395 2.71651 3.74057 2.14342 4.4272C1.36014 5.36559 0.954521 6.44086 1.01803 7.65118C1.12123 9.61272 2.1094 11.0241 3.91335 11.902C4.04301 11.9651 4.18175 12.011 4.31557 12.0664C4.6006 12.1842 4.73064 12.4429 4.63009 12.6899C4.52424 12.9505 4.25055 13.0609 3.95758 12.9578C3.03254 12.6319 2.23755 12.1145 1.57675 11.4084C0.790078 10.568 0.290703 9.58666 0.101689 8.46368C0.0498995 8.15615 0.0328884 7.84348 0 7.53301L0.00037782 7.53337Z" fill="#410EAD"/>
<path d="M11.9998 7.45878C11.9128 9.58546 11.0207 11.2277 9.22843 12.3779C8.86326 12.6124 8.44818 12.7771 8.0471 12.9537C7.76471 13.0781 7.48459 12.957 7.37421 12.6953C7.27025 12.4483 7.39462 12.1753 7.68154 12.0707C8.48788 11.7764 9.18912 11.3331 9.75011 10.6971C10.7046 9.61519 11.1386 8.3612 10.9522 6.9428C10.7179 5.16034 9.73461 3.8825 8.07507 3.09311C7.94011 3.02889 7.79571 2.98375 7.65811 2.92503C7.39008 2.8109 7.27403 2.5485 7.37685 2.29858C7.47703 2.05564 7.7443 1.93747 8.01194 2.03105C9.04811 2.3929 9.91834 2.98778 10.6192 3.8113C11.2891 4.59885 11.7177 5.49797 11.8916 6.50571C11.9487 6.83674 11.968 7.17363 11.9994 7.45841L11.9998 7.45878Z" fill="#410EAD"/>
<path d="M6.42335 12.9519C6.54583 13.014 6.65621 13.0701 6.76698 13.1255C7.39601 13.4408 8.02505 13.756 8.65447 14.0705C8.86087 14.1736 8.97957 14.3267 8.96483 14.5605C8.94593 14.8592 8.63406 15.0687 8.33882 14.9795C8.27682 14.9608 8.21709 14.9337 8.15925 14.9047C7.31134 14.4801 6.46418 14.0547 5.61701 13.629C5.25751 13.4485 5.17699 13.2059 5.36109 12.8591C5.81624 12.0011 6.27138 11.1431 6.72804 10.2858C6.85846 10.0406 7.05428 9.93716 7.28639 9.9834C7.59902 10.0454 7.77102 10.3452 7.65118 10.6319C7.60053 10.7533 7.53173 10.8678 7.46973 10.9849C7.12459 11.6345 6.77869 12.284 6.42335 12.9519Z" fill="#410EAD"/>
</svg>
