<svg width="15" height="14" viewBox="0 0 15 14" fill="none" xmlns="http://www.w3.org/2000/svg">
<path d="M0 6.56111C0.0375616 6.30466 0.0665154 6.04674 0.113859 5.79174C0.393223 4.28442 1.12607 2.99812 2.30261 1.93686C3.48815 0.867558 4.90805 0.242491 6.53885 0.0317C6.65467 0.0167218 6.77166 0.00430078 6.88826 0.000282225C7.0698 -0.00629358 7.19383 0.102573 7.20557 0.271352C7.20792 0.307519 7.20636 0.344416 7.20636 0.380583C7.20636 2.54987 7.20714 4.71952 7.20362 6.88881C7.20362 6.99475 7.18171 7.10764 7.13906 7.20554C6.29196 9.15308 5.44096 11.0992 4.58995 13.0452C4.47962 13.2973 4.32741 13.3536 4.07387 13.225C1.80257 12.0731 0.464434 10.3057 0.0657329 7.92084C0.0371704 7.75097 0.0215197 7.57927 0 7.4083C0 7.12554 0 6.84314 0 6.56038V6.56111ZM6.62063 0.58078C3.59027 0.929663 0.971907 3.24216 0.624071 6.32365C0.306753 9.13225 1.97081 11.562 4.13765 12.6196C4.15369 12.5871 4.1713 12.5553 4.18577 12.5224C4.98513 10.694 5.78449 8.86593 6.58111 7.03676C6.60928 6.97174 6.61906 6.89575 6.61906 6.82488C6.62102 4.79222 6.62063 2.7592 6.62063 0.726544C6.62063 0.681609 6.62063 0.636309 6.62063 0.58078Z" fill="#410EAD"/>
<path d="M7.05986 13.9998C6.78011 13.9647 6.498 13.9402 6.22059 13.892C5.92871 13.8412 5.63995 13.7736 5.35276 13.7035C5.09805 13.641 5.02566 13.4982 5.12466 13.2709C5.51905 12.3646 5.91462 11.4589 6.31059 10.5533C6.69559 9.67288 7.08138 8.79282 7.46639 7.91239C7.59081 7.62817 7.74458 7.57849 8.01886 7.73923C9.77878 8.77053 11.5387 9.8022 13.2978 10.8346C13.5353 10.9742 13.5733 11.1367 13.382 11.33C13.0318 11.6843 12.6695 12.0285 12.3024 12.3679C12.1502 12.5089 11.9691 12.4994 11.8517 12.3726C11.7332 12.2448 11.7629 12.0946 11.9206 11.9543C12.1851 11.7183 12.4441 11.4772 12.7043 11.2376C12.7242 11.2193 12.7379 11.1948 12.7602 11.166C11.1482 10.2205 9.54245 9.27833 7.91791 8.32557C7.20072 9.9666 6.48744 11.5981 5.76203 13.2574C6.05705 13.3064 6.33602 13.3623 6.61773 13.397C7.64481 13.5234 8.65193 13.4321 9.63792 13.1347C9.77369 13.0938 9.90046 13.0974 9.99906 13.2059C10.0785 13.2936 10.1055 13.4032 10.0354 13.4967C9.98419 13.5654 9.89733 13.6282 9.81243 13.6549C9.24626 13.8328 8.66327 13.9388 8.06659 13.9775C8.02355 13.9804 7.9813 13.9921 7.93865 13.9998H7.05986Z" fill="#410EAD"/>
<path d="M14.9998 7.03659C14.9908 8.1311 14.7134 9.21355 14.1492 10.2302C14.0088 10.4838 13.8656 10.5203 13.6093 10.3702C11.9128 9.37502 10.2158 8.38025 8.51929 7.38474C8.2411 7.22144 8.23915 7.00554 8.51655 6.84516C10.2608 5.83541 12.0055 4.82639 13.7505 3.81773C13.9872 3.6811 14.1441 3.72603 14.2658 3.96386C14.7553 4.91954 14.9952 5.9282 14.9995 7.03659H14.9998ZM9.16215 7.11586C10.6928 8.01346 12.2066 8.9012 13.7341 9.79697C14.5968 8.01054 14.6422 6.22667 13.8452 4.407C12.2723 5.31665 10.7241 6.21242 9.16215 7.11586Z" fill="#410EAD"/>
<path d="M7.79217 3.189C7.79217 2.24135 7.79217 1.29371 7.79217 0.345693C7.79217 0.0855837 7.91815 -0.0232824 8.19126 0.00411682C10.405 0.226233 12.1853 1.16584 13.5305 2.82222C13.7304 3.06844 13.6995 3.20288 13.4198 3.36472C11.7201 4.34744 10.0216 5.33162 8.3192 6.31032C8.23078 6.3611 8.10988 6.39252 8.00775 6.38521C7.86494 6.37498 7.79256 6.24785 7.79217 6.07286C7.79177 5.28011 7.79217 4.48736 7.79217 3.69461C7.79217 3.52619 7.79217 3.35741 7.79217 3.189ZM12.9416 2.99684C11.7534 1.62907 10.245 0.823536 8.39002 0.574386V5.63045C9.91401 4.74893 11.4216 3.87654 12.9416 2.99721V2.99684Z" fill="#410EAD"/>
<path d="M10.9836 13.1569C10.8173 13.1569 10.6889 13.0352 10.6925 12.8803C10.696 12.7349 10.8282 12.6136 10.9832 12.6133C11.1432 12.6133 11.2801 12.7444 11.2758 12.8935C11.2715 13.0414 11.1436 13.1565 10.9832 13.1565L10.9836 13.1569Z" fill="#410EAD"/>
</svg>
