<svg width="16" height="15" viewBox="0 0 16 15" fill="none" xmlns="http://www.w3.org/2000/svg">
<path d="M0.000976562 12.861C0.0793009 12.7419 0.192648 12.7167 0.328601 12.7177C0.938639 12.7225 1.54868 12.7196 2.15872 12.7196C2.21189 12.7196 2.26538 12.7196 2.34147 12.7196C2.34147 12.4824 2.33829 12.2551 2.34211 12.0274C2.34975 11.5556 2.51404 11.1413 2.81619 10.7815C3.06422 10.4864 3.37847 10.2887 3.74271 10.1667C3.91719 10.1081 4.09071 10.0461 4.28111 9.97983C4.02385 9.75696 3.8395 9.50097 3.77423 9.1794C3.694 8.78332 3.6854 8.38119 3.78665 7.98957C3.96559 7.29739 4.65331 6.85037 5.37415 6.9376C6.08512 7.02357 6.6318 7.6196 6.65185 8.33407C6.65695 8.5095 6.65599 8.68557 6.65345 8.86101C6.64772 9.25613 6.4968 9.59044 6.22107 9.86967C6.18764 9.90342 6.14147 9.92475 6.10072 9.97761C7.57201 10.3199 8.20401 11.2378 8.0324 12.7196C8.19573 12.7196 8.32596 12.7196 8.4565 12.7196C8.82742 12.7196 9.19835 12.7221 9.56927 12.7167C9.62467 12.7158 9.69886 12.6935 9.73165 12.654C10.0013 12.3277 10.3423 12.114 10.7416 11.9844C10.8979 11.9338 11.0527 11.8771 11.2068 11.8236C11.2036 11.8052 11.2055 11.7924 11.2001 11.7877C10.8209 11.4498 10.6547 11.0251 10.6817 10.5214C10.6929 10.3126 10.6811 10.0983 10.7241 9.89578C10.8747 9.18386 11.5341 8.7085 12.268 8.76199C12.9726 8.81325 13.5498 9.39368 13.5992 10.1094C13.6128 10.3087 13.6119 10.5093 13.6062 10.7093C13.5937 11.1483 13.4053 11.5062 13.0601 11.8131C13.2292 11.873 13.3814 11.9281 13.5342 11.9806C14.4986 12.3101 14.9994 13.0109 14.9994 14.032C14.9994 14.2517 14.9934 14.4714 15.0017 14.6908C15.0068 14.8258 14.9686 14.9283 14.853 14.9996H0.000976562C0.000976562 14.2867 0.000976562 13.5738 0.000976562 12.861ZM9.43205 13.1762H0.451819V14.5481H9.28623C9.30055 14.0842 9.24038 13.6219 9.43173 13.1762H9.43205ZM14.554 14.5523C14.554 14.2966 14.5696 14.0524 14.5508 13.811C14.5078 13.2634 14.2605 12.8129 13.7666 12.5703C13.2553 12.3191 12.7261 12.1137 12.125 12.1185C11.535 12.1229 11.0129 12.3238 10.5146 12.576C9.85997 12.9074 9.561 13.756 9.75426 14.5523H14.554ZM4.08021 10.5112C3.90605 10.5838 3.73762 10.6376 3.58511 10.7207C2.92731 11.0789 2.60574 11.909 2.80473 12.7139H7.58538C7.69841 11.6976 7.47553 10.8341 6.29908 10.5307C6.27265 10.5733 6.24368 10.6176 6.21725 10.6634C5.94694 11.1321 5.67885 11.6017 5.40663 12.0691C5.28978 12.2694 5.10479 12.27 4.98253 12.0761C4.96183 12.0433 4.94368 12.0086 4.92426 11.9749C4.64694 11.4941 4.36962 11.0133 4.08021 10.5115V10.5112ZM6.22394 8.61139C6.2198 8.61107 6.21566 8.61075 6.21184 8.61043C6.21184 8.52765 6.21375 8.44455 6.21184 8.36177C6.19847 7.82401 5.7801 7.39991 5.23438 7.36998C4.7103 7.34132 4.24004 7.7339 4.18687 8.26562C4.16394 8.49677 4.16522 8.73429 4.18846 8.96544C4.23622 9.44335 4.64599 9.82096 5.1153 9.84579C5.63459 9.87317 6.07748 9.55255 6.18223 9.06032C6.21343 8.91418 6.2112 8.76103 6.22426 8.61107L6.22394 8.61139ZM13.1767 10.4568C13.1712 10.4565 13.1655 10.4558 13.1601 10.4555C13.1601 10.3581 13.1646 10.2603 13.1595 10.1632C13.1333 9.66081 12.7468 9.25836 12.2409 9.20455C11.7557 9.15297 11.2704 9.47709 11.1676 9.96105C11.117 10.2002 11.1265 10.4549 11.1313 10.7023C11.1412 11.2181 11.5366 11.6297 12.0562 11.6835C12.5395 11.7335 13.0092 11.4053 13.1273 10.9197C13.1636 10.7704 13.1614 10.6115 13.1767 10.4568ZM4.50399 10.3574C4.74214 10.7698 4.96311 11.1525 5.19394 11.5514C5.42828 11.1439 5.64765 10.7631 5.88517 10.3498C5.40822 10.2715 4.96756 10.2603 4.50399 10.3574Z" fill="#410EAD"/>
<path d="M0.000636797 2.84293C0.0783243 2.76174 0.153465 2.67641 0.285597 2.71971C0.407541 2.75983 0.443519 2.85057 0.443201 2.96933C0.441609 3.44755 0.442246 3.9261 0.442882 4.40432C0.443838 5.04238 0.847558 5.44514 1.48625 5.44642C1.65213 5.44642 1.81833 5.45119 1.9839 5.44482C2.10011 5.44037 2.18735 5.47953 2.26886 5.56231C2.59744 5.8963 2.93079 6.22584 3.26224 6.55665C3.26893 6.56333 3.27816 6.56779 3.29981 6.58307C3.30458 6.54041 3.31191 6.5057 3.31223 6.47068C3.31318 6.22679 3.31223 5.98259 3.31286 5.7387C3.31382 5.52092 3.38577 5.44737 3.60101 5.44705C4.29415 5.4461 4.98697 5.44673 5.6801 5.44673C5.73296 5.44673 5.78581 5.44673 5.85872 5.44673C5.85872 5.38369 5.85872 5.33211 5.85872 5.28053C5.85872 4.54346 5.85777 3.8067 5.85872 3.06962C5.85999 2.20424 6.4522 1.60757 7.31855 1.60057C7.71876 1.59738 8.11898 1.59993 8.5192 1.59993C8.57205 1.59993 8.62522 1.59993 8.67489 1.59993C8.80798 1.0386 8.36956 0.480464 7.78021 0.445441C7.72672 0.442258 7.67292 0.443213 7.61911 0.443213C5.58873 0.443213 3.55834 0.443213 1.52796 0.443213C0.829091 0.443213 0.442564 0.830695 0.442246 1.53052C0.442246 1.62827 0.438743 1.72601 0.443201 1.82344C0.448932 1.9508 0.423779 2.06287 0.288463 2.10553C0.154102 2.14788 0.065907 2.07338 0.000318399 1.96417C0.000318399 1.71041 0.000318399 1.45633 0.000318399 1.20258C0.029292 1.11088 0.0547633 1.01791 0.0872392 0.927486C0.284005 0.383992 0.794705 0.0057429 1.37227 0.00446933C3.50549 -0.000624932 5.63871 -0.0025353 7.77193 0.0051061C8.5192 0.00797162 9.12223 0.626288 9.13974 1.3726C9.14134 1.44041 9.13974 1.50855 9.13974 1.59261C9.1996 1.59547 9.2515 1.59961 9.30308 1.59993C9.62052 1.60057 9.93763 1.59834 10.2551 1.6012C10.4315 1.60279 10.5222 1.68239 10.5203 1.82408C10.5187 1.96321 10.4245 2.0444 10.25 2.0444C9.29321 2.04568 8.33612 2.06319 7.38 2.03899C6.70532 2.0218 6.28059 2.51785 6.29428 3.12057C6.31657 4.08179 6.29969 5.04365 6.30033 6.00551C6.30065 6.63975 6.69864 7.03869 7.33192 7.03996C7.81014 7.04092 8.28932 7.05588 8.76691 7.03423C9.04455 7.0215 9.24704 7.09918 9.43266 7.30773C9.7017 7.60957 9.99845 7.88688 10.3044 8.19541C10.3133 8.13427 10.3229 8.10021 10.3229 8.06582C10.3242 7.82671 10.3229 7.5876 10.3238 7.34817C10.3251 7.11256 10.3958 7.04092 10.6305 7.0406C11.5872 7.03965 12.5443 7.02468 13.5008 7.0457C14.1277 7.0597 14.5725 6.59135 14.5616 5.98513C14.5448 5.02391 14.5448 4.06173 14.5616 3.10051C14.5721 2.50352 14.1388 2.02148 13.5004 2.0409C12.8178 2.0616 12.1339 2.04599 11.4503 2.04504C11.3924 2.04504 11.3319 2.04408 11.2768 2.0288C11.1685 1.99919 11.1173 1.91864 11.1236 1.80848C11.13 1.69799 11.1905 1.62667 11.3019 1.60821C11.3497 1.60025 11.399 1.60088 11.4478 1.60088C12.131 1.60057 12.8146 1.59961 13.4979 1.60088C14.4107 1.60248 14.9988 2.1915 14.9988 3.10337C14.9988 4.07001 14.9994 5.03633 14.9988 6.00296C14.9981 6.88586 14.4037 7.48285 13.5214 7.48476C12.6672 7.48635 11.813 7.48508 10.9587 7.48508C10.9014 7.48508 10.8438 7.48508 10.7702 7.48508C10.7702 7.55512 10.7702 7.60797 10.7702 7.66051C10.7702 7.99259 10.7693 8.32436 10.7705 8.65644C10.7712 8.77934 10.7591 8.89396 10.626 8.94808C10.498 9.0003 10.4139 8.92643 10.3315 8.84397C9.91789 8.4291 9.50144 8.01711 9.09135 7.59906C9.00952 7.51532 8.92706 7.48125 8.80989 7.48253C8.33167 7.48858 7.85249 7.47043 7.3749 7.48826C6.42737 7.52328 5.80619 6.76901 5.85777 5.9845C5.85936 5.96062 5.85554 5.93642 5.85394 5.90076H3.75479C3.75479 6.26564 3.75575 6.62574 3.75415 6.98552C3.75352 7.11893 3.78949 7.27271 3.62807 7.34435C3.46123 7.41853 3.36794 7.29245 3.26797 7.19247C2.87507 6.79862 2.47868 6.40764 2.0896 6.00965C2.00459 5.92273 1.92117 5.88452 1.79764 5.88516C1.56426 5.88675 1.32355 5.89821 1.09909 5.84727C0.529485 5.71832 0.178618 5.34676 0.0315208 4.78225C0.0232426 4.75041 0.0105069 4.71985 0 4.68896C0 4.07383 0 3.4587 0 2.84357L0.000636797 2.84293Z" fill="#410EAD"/>
</svg>
