<svg width="16" height="15" viewBox="0 0 16 15" fill="none" xmlns="http://www.w3.org/2000/svg">
<path d="M0 9.20176C0.12141 8.92658 0.325845 8.82727 0.613307 8.83734C1.08643 8.85352 1.56039 8.84477 2.03351 8.83821C2.10402 8.83734 2.18705 8.80802 2.2417 8.76209C3.03149 8.0958 3.94311 7.83068 4.94276 7.84424C5.50183 7.85212 6.02794 8.0153 6.55238 8.19992C7.69429 8.60284 8.83079 9.02502 9.98523 9.38419C10.7938 9.63575 11.3278 10.3392 11.095 11.3643C11.3036 11.2501 11.4976 11.1726 11.6608 11.0497C12.3325 10.5444 12.9988 10.0308 13.6601 9.50975C14.1069 9.15758 14.5867 9.04908 15.1111 9.26564C16.0703 9.66156 16.3248 11.0396 15.5192 11.7094C14.5391 12.524 13.5687 13.3666 12.4476 13.9721C10.6094 14.9648 8.67183 15.2426 6.64875 14.7867C5.39961 14.505 4.15589 14.197 2.90966 13.9012C2.88463 13.8951 2.8596 13.8912 2.8112 13.8815C2.8112 13.9476 2.80703 14.0049 2.81204 14.0609C2.85209 14.5203 2.63347 14.7622 2.15951 14.7412C1.65051 14.7189 1.13942 14.7246 0.629996 14.7408C0.339196 14.75 0.125999 14.6585 0.000834451 14.3759V9.20176H0ZM2.81078 12.8626C2.86335 12.8775 2.90758 12.892 2.95264 12.9029C4.13294 13.1851 5.3145 13.4602 6.49271 13.7507C7.5733 14.0172 8.65806 14.1025 9.75743 13.9008C11.0208 13.6689 12.1573 13.1378 13.1807 12.3311C13.7252 11.9019 14.2759 11.4811 14.8224 11.0545C15.016 10.9036 15.0903 10.705 15.0365 10.5024C14.9426 10.1498 14.5729 10.0299 14.2725 10.2609C13.6309 10.7544 12.9934 11.254 12.3517 11.7475C11.569 12.349 10.6945 12.5866 9.74324 12.3731C9.23257 12.2585 8.739 12.059 8.24001 11.891C7.64173 11.6893 7.04511 11.4824 6.44974 11.2719C6.2307 11.1945 6.10887 10.9968 6.12306 10.7715C6.13599 10.5615 6.28035 10.3703 6.48395 10.3349C6.58617 10.3169 6.70299 10.3322 6.8027 10.3663C7.71182 10.6748 8.61843 10.992 9.52712 11.3017C9.6235 11.3345 9.73198 11.359 9.83044 11.3463C10.0516 11.3183 10.2064 11.128 10.2197 10.9027C10.2347 10.6533 10.1091 10.4722 9.8538 10.3834C8.63136 9.95774 7.40808 9.53469 6.18606 9.1077C5.77051 8.96246 5.3533 8.83909 4.9098 8.83077C4.18134 8.81721 3.50795 8.98302 2.91759 9.45375C2.83957 9.51588 2.80786 9.57931 2.80828 9.68431C2.81245 10.6993 2.81078 11.7138 2.81078 12.7288C2.81078 12.7721 2.81078 12.815 2.81078 12.8631V12.8626ZM1.86329 13.7459V9.83699H0.944994V13.7459H1.86329Z" fill="#410EAD"/>
<path d="M7.55762 4.4208C7.55762 1.98182 9.4547 -0.00393153 11.7811 5.84522e-06C14.1012 0.00394322 15.9891 1.98663 15.9896 4.41992C15.9904 6.85803 14.0912 8.84597 11.7661 8.84159C9.44677 8.83722 7.55762 6.85278 7.55762 4.4208ZM8.49468 4.41205C8.49135 6.30549 9.95744 7.85287 11.7615 7.85944C13.5668 7.86556 15.0458 6.32824 15.0525 4.43742C15.0596 2.53567 13.5889 0.984786 11.7773 0.982599C9.97121 0.980849 8.49761 2.51992 8.49427 4.41205H8.49468Z" fill="#410EAD"/>
<path d="M11.2987 6.35408C11.1368 6.27052 10.9778 6.20315 10.8335 6.1104C10.5844 5.9494 10.5168 5.65673 10.6582 5.41917C10.7988 5.18337 11.0784 5.12431 11.3291 5.28136C11.6112 5.45811 11.8945 5.43886 12.1744 5.28443C12.2266 5.25555 12.2562 5.18249 12.2958 5.12956C12.2474 5.09193 12.204 5.03418 12.1502 5.02018C11.8682 4.94669 11.5815 4.89156 11.3003 4.81457C11.146 4.77213 10.9891 4.71832 10.8506 4.63695C10.2097 4.26158 10.1154 3.39799 10.6674 2.88875C10.8193 2.74876 11.0233 2.67132 11.199 2.55845C11.2423 2.53045 11.2958 2.47708 11.2999 2.43071C11.3304 2.09997 11.5094 1.89566 11.7801 1.90047C12.0517 1.90529 12.2291 2.11528 12.2416 2.44733C12.242 2.46352 12.2453 2.47927 12.2462 2.48802C12.4072 2.57158 12.5712 2.6407 12.7185 2.73738C12.9659 2.89925 13.0289 3.19499 12.8833 3.4308C12.7427 3.65873 12.4648 3.71823 12.2232 3.56511C11.942 3.38661 11.6591 3.40324 11.3775 3.55373C11.3241 3.58217 11.292 3.65348 11.2499 3.7051C11.3003 3.74623 11.3458 3.80922 11.403 3.82454C11.6441 3.88928 11.8907 3.93303 12.1319 3.99822C12.3071 4.04547 12.4865 4.09447 12.6471 4.17846C13.3522 4.5477 13.4457 5.49048 12.8261 6.00278C12.6822 6.12177 12.4998 6.18871 12.3388 6.28671C12.2983 6.3112 12.2495 6.36108 12.2449 6.40395C12.209 6.75088 12.0313 6.95256 11.7572 6.9425C11.4877 6.93287 11.3187 6.72594 11.3033 6.38733C11.3024 6.37158 11.2983 6.35583 11.2978 6.35452L11.2987 6.35408Z" fill="#410EAD"/>
</svg>
