<svg width="15" height="15" viewBox="0 0 15 15" fill="none" xmlns="http://www.w3.org/2000/svg">
<path d="M9.94037 12.0573C9.81062 12.3725 9.65666 12.6968 9.54235 13.0349C9.18646 14.0833 8.4121 14.629 7.37739 14.8683C6.47119 15.078 5.56749 15.0234 4.67297 14.8025C3.31116 14.466 2.10623 13.8407 1.1291 12.8185C0.607577 12.2728 0.208715 11.6521 0.0539263 10.8984C-0.0370277 10.4548 -0.0157494 10.0184 0.152808 9.59566C0.350987 9.09874 0.555842 8.60433 0.758611 8.10949C0.77822 8.06155 0.794075 8.00652 0.82787 7.97067C1.02146 7.76599 0.935512 7.60382 0.781141 7.41789C0.515789 7.09857 0.255026 6.77299 0.12694 6.36486C-0.1042 5.62824 0.0017739 4.91371 0.272133 4.21461C0.700618 3.10697 1.4391 2.23278 2.35907 1.50241C3.24816 0.796639 4.23531 0.289717 5.36013 0.085447C6.18706 -0.0646287 7.00314 -0.0479537 7.75289 0.388933C7.97318 0.517331 8.18304 0.690335 8.34618 0.88585C8.70916 1.32065 9.07756 1.75962 9.36962 2.24195C9.55903 2.55503 9.77933 2.67008 10.1194 2.7397C10.9922 2.91896 11.7465 3.36127 12.4241 3.9303C13.5706 4.89329 14.4105 6.0668 14.8189 7.52086C15.0275 8.26374 15.083 9.01495 14.8398 9.76449C14.7 10.1951 14.4572 10.5574 14.1072 10.848C13.7709 11.1273 13.4304 11.4016 13.1042 11.6925C12.4737 12.2549 11.7332 12.4075 10.9233 12.2841C10.5971 12.2345 10.2779 12.1369 9.94079 12.0577L9.94037 12.0573ZM2.71287 7.50252C3.0408 7.45291 3.37625 7.43165 3.69542 7.34828C5.42856 6.89721 6.77242 5.89796 7.74288 4.40179C8.11754 3.824 8.36328 3.1916 8.38247 2.48916C8.40876 1.53201 7.87972 0.83249 6.95141 0.595287C6.38315 0.450214 5.81407 0.481897 5.25249 0.616131C3.76718 0.970893 2.56643 1.78339 1.59722 2.94564C1.03231 3.62265 0.631359 4.38345 0.515372 5.2739C0.403557 6.13266 0.789902 6.89388 1.52546 7.23989C1.89929 7.41581 2.29732 7.48043 2.71245 7.5021L2.71287 7.50252ZM9.77807 3.14866C9.89615 4.9183 9.02249 6.1731 7.88473 7.30784C7.88598 7.31576 7.88556 7.3266 7.88974 7.33535C7.91185 7.38246 7.9348 7.42915 7.95858 7.47501C8.47885 8.46926 9.19063 9.30051 10.1031 9.95376C10.7807 10.4386 11.5196 10.7788 12.364 10.855C13.2239 10.933 13.9799 10.5378 14.2845 9.79201C14.4017 9.50478 14.4701 9.1817 14.4852 8.87113C14.5277 7.98985 14.2578 7.17652 13.836 6.41572C13.0933 5.07671 12.0611 4.03744 10.6375 3.42588C10.3693 3.31041 10.0797 3.24412 9.77849 3.14824L9.77807 3.14866ZM9.48811 11.8255C8.61737 11.3791 7.8985 10.765 7.30521 10.0684C7.10369 10.2531 6.91219 10.4286 6.70733 10.6158C6.86588 11.0368 6.80288 11.4512 6.41862 11.7768C6.03227 12.1048 5.6042 12.0481 5.17614 11.8435C5.10813 12.0044 5.04805 12.1469 4.98338 12.3004C4.82734 12.237 4.68048 12.1774 4.52653 12.1148C4.58911 11.9543 4.64668 11.8072 4.7076 11.6504C4.5478 11.5854 4.40178 11.5262 4.25199 11.4654C4.1819 11.6284 4.11974 11.7734 4.05548 11.9231C3.89319 11.8555 3.75008 11.7964 3.6003 11.7342C3.6633 11.5758 3.72212 11.4287 3.78304 11.2765C3.62408 11.2077 3.47889 11.1448 3.32702 11.0785C3.39294 10.9192 3.45218 10.7758 3.51477 10.6245C3.67164 10.687 3.81975 10.7458 3.97746 10.8084C4.2182 10.2193 4.45393 9.64235 4.69675 9.04872C3.40963 9.27383 2.21346 9.25549 1.30684 8.13659C1.11158 8.47718 1.04023 8.82652 1.08029 9.19838C1.15205 9.86705 1.45745 10.4361 1.9068 10.9117C3.43299 12.5276 5.30381 13.2771 7.53218 13.0491C8.10377 12.9907 8.63364 12.7839 9.0713 12.3904C9.24612 12.2332 9.38839 12.0506 9.48852 11.8251L9.48811 11.8255ZM6.24589 8.47093C5.95258 8.5939 5.65677 8.71772 5.36138 8.8432C5.33969 8.85237 5.31465 8.87154 5.30589 8.89239C5.20576 9.12917 5.10896 9.36763 5.00675 9.61567C5.42021 9.78242 5.81198 9.94917 6.21043 10.098C6.40986 10.1722 6.5926 10.1042 6.7307 9.94542C6.86588 9.78951 6.89842 9.59983 6.80288 9.4214C6.62931 9.09791 6.4328 8.78692 6.24589 8.47093ZM4.43807 11.0022C4.85112 11.169 5.24581 11.342 5.65052 11.4866C5.89668 11.575 6.15494 11.4303 6.24798 11.1923C6.33935 10.9588 6.25215 10.682 6.02309 10.5782C5.63174 10.4006 5.22996 10.2456 4.819 10.0755C4.69174 10.3848 4.56992 10.6816 4.43766 11.0022H4.43807ZM6.65977 6.48492C6.81373 6.68669 7.01107 6.94432 7.23303 7.23489C7.59768 6.8647 7.94523 6.5116 8.29444 6.15684C8.07749 5.87253 7.88348 5.61824 7.7216 5.40605C7.36613 5.76706 7.02025 6.11807 6.65977 6.48451V6.48492ZM8.58107 9.29051C8.342 9.49144 8.09251 9.70113 7.80754 9.94042C8.1797 10.2606 8.53643 10.5699 8.89732 10.873C8.92277 10.8942 8.99871 10.8909 9.02624 10.8688C9.25655 10.6833 9.48143 10.4907 9.6963 10.3098C9.32623 9.97168 8.96241 9.63943 8.58065 9.29092L8.58107 9.29051ZM2.20428 13.1475C2.64069 13.4022 3.06751 13.651 3.51143 13.9099C3.64995 13.5714 3.77219 13.2721 3.88985 12.9845C3.44467 12.7302 3.01535 12.4846 2.57853 12.2353C2.46045 12.5234 2.34113 12.8144 2.2047 13.147L2.20428 13.1475ZM3.97079 14.1096C4.45017 14.2205 4.90244 14.3268 5.35596 14.4277C5.39059 14.4352 5.4586 14.4143 5.46944 14.3885C5.59085 14.11 5.70392 13.8278 5.81407 13.5589C5.31924 13.4284 4.84069 13.3025 4.35338 13.1741C4.23489 13.4634 4.11389 13.7598 3.97079 14.1096ZM8.25981 8.90698C7.9882 8.48176 7.72702 8.07364 7.46501 7.66427C7.21342 7.84228 6.95725 8.02362 6.67104 8.2258C6.94557 8.66769 7.21634 9.10333 7.49421 9.55022C7.77625 9.31343 8.022 9.10666 8.26023 8.90698H8.25981ZM4.91537 7.49377C5.10688 7.74473 5.2988 7.9961 5.51325 8.27666C5.95258 8.03029 6.38733 7.78683 6.83334 7.5367C6.60845 7.24197 6.41111 6.98351 6.2267 6.74214C5.78027 6.9981 5.35262 7.24281 4.91537 7.49335V7.49377ZM1.79874 12.8165C1.93016 12.4967 2.0424 12.2295 2.14837 11.9598C2.16005 11.9302 2.14962 11.8731 2.12751 11.8518C1.88552 11.6196 1.63936 11.3924 1.39654 11.1656C1.30433 11.3907 1.19794 11.6434 1.09865 11.8993C1.08529 11.9339 1.09364 11.9952 1.117 12.0231C1.33312 12.2808 1.55467 12.5338 1.79874 12.8165ZM3.37792 7.94566C3.49724 8.10324 3.63284 8.24956 3.7288 8.41798C3.84854 8.6285 4.00375 8.68062 4.22821 8.62184C4.48021 8.55597 4.73639 8.50719 5.013 8.44591C4.81774 8.18953 4.64919 7.96525 4.47562 7.74473C4.45143 7.71388 4.39677 7.67844 4.36631 7.68595C4.04046 7.7664 3.71628 7.8552 3.37792 7.94566ZM9.38005 11.2298C9.73051 11.3782 10.0476 11.5137 10.3659 11.645C10.3889 11.6546 10.4314 11.6463 10.4515 11.63C10.6705 11.4508 10.8866 11.2682 11.104 11.086C10.7715 10.9184 10.4573 10.76 10.1331 10.5966C9.90032 10.7925 9.66 10.9947 9.38005 11.2298ZM8.00447 4.95248C8.19014 5.19594 8.38039 5.44482 8.60068 5.73371C8.76423 5.39479 8.91276 5.08922 9.05795 4.78198C9.06963 4.75739 9.07339 4.71403 9.05962 4.69527C8.88898 4.46516 8.71458 4.23796 8.53893 4.00742C8.35702 4.32925 8.1868 4.63024 8.00447 4.95248ZM5.96343 14.5194C6.33559 14.4885 6.6652 14.4623 6.99438 14.4327C7.02693 14.4298 7.07699 14.4164 7.08701 14.3939C7.20091 14.1313 7.30813 13.8661 7.41995 13.5952C7.06698 13.5952 6.74113 13.5935 6.41528 13.5977C6.38232 13.5977 6.33225 13.6244 6.32057 13.6519C6.205 13.9224 6.09569 14.1955 5.96385 14.5194H5.96343ZM3.28863 8.65685C3.11257 8.4259 2.95945 8.22372 2.80382 8.02362C2.78672 8.00152 2.75543 7.97984 2.72914 7.97734C2.41164 7.94774 2.0933 7.92148 1.76578 7.89355C2.14044 8.38046 2.65821 8.57973 3.28863 8.65685ZM0.749849 11.417C0.829121 11.2261 0.882525 11.0639 0.961797 10.9155C1.06068 10.73 1.05943 10.5745 0.944274 10.3865C0.819525 10.1826 0.746094 9.94709 0.643041 9.70863C0.405643 10.2927 0.492425 10.8392 0.749849 11.4166V11.417ZM7.69698 14.238C8.26482 14.0817 8.84976 13.5456 8.94155 13.1333C8.65659 13.2383 8.36078 13.3463 8.06622 13.4576C8.0366 13.4689 8.00406 13.4968 7.99196 13.5251C7.89433 13.754 7.80129 13.9845 7.69698 14.238ZM8.91485 2.46581C8.85894 2.77347 8.80094 3.08738 8.74629 3.40212C8.7417 3.42838 8.75672 3.46382 8.77383 3.48633C8.92236 3.68518 9.07339 3.88236 9.22901 4.08705C9.39382 3.56637 9.22818 2.75012 8.91485 2.46581ZM11.0456 11.788C11.6009 11.9064 12.4182 11.7155 12.649 11.387C12.3602 11.349 12.0628 11.3082 11.7645 11.2732C11.719 11.2678 11.6589 11.2773 11.6251 11.304C11.4349 11.4558 11.2504 11.6154 11.0456 11.7876V11.788Z" fill="#410EAD"/>
<path d="M14.4078 4.34917C14.2685 4.45464 14.1421 4.55052 14.0102 4.65057C13.258 3.69092 12.368 2.92887 11.2148 2.48615C11.2708 2.33149 11.3246 2.18266 11.3842 2.01758C12.628 2.4924 13.5905 3.30614 14.4082 4.34917H14.4078Z" fill="#410EAD"/>
<path d="M0.0996094 2.36187C0.765075 1.39764 1.60828 0.651427 2.62671 0.0673828C2.66927 0.141587 2.71057 0.211205 2.75021 0.281658C2.78859 0.349192 2.82531 0.417559 2.8712 0.500518C1.9358 1.04037 1.14016 1.73322 0.513492 2.64076C0.442564 2.59366 0.375392 2.54947 0.308637 2.50486C0.244385 2.46151 0.180133 2.41732 0.0996094 2.36229V2.36187Z" fill="#410EAD"/>
<path d="M13.8644 12.1758C13.9541 12.3229 14.0346 12.4555 14.1234 12.601C13.4 13.0366 12.6223 13.2838 11.7866 13.4106C11.7716 13.3214 11.7582 13.2459 11.747 13.17C11.7353 13.0937 11.7253 13.017 11.7119 12.9207C12.4704 12.7969 13.1918 12.5793 13.8648 12.1758H13.8644Z" fill="#410EAD"/>
<path d="M10.2605 1.77051C10.4508 1.79721 10.6168 1.82057 10.7975 1.84602C10.7624 2.01542 10.732 2.1652 10.6978 2.33125C10.5442 2.31081 10.399 2.29162 10.2363 2.27034C10.2443 2.10971 10.2518 1.95742 10.2609 1.77093L10.2605 1.77051Z" fill="#410EAD"/>
<path d="M10.7598 12.9926H11.2245C11.2366 13.1386 11.2496 13.2943 11.2642 13.4716C11.0923 13.4812 10.9337 13.4899 10.7602 13.4995V12.9922L10.7598 12.9926Z" fill="#410EAD"/>
<path d="M7.00255 1.77874C7.22993 1.77874 7.33173 1.95508 7.23369 2.17394C7.0063 2.68128 6.77474 3.18653 6.54527 3.69262C6.28785 4.26041 6.02834 4.82694 5.77508 5.39681C5.7125 5.53772 5.62489 5.61859 5.46676 5.64319C4.28519 5.82578 3.10488 6.01587 1.92331 6.20013C1.6809 6.23807 1.55031 6.04589 1.65629 5.80869C1.90036 5.26341 2.14861 4.72022 2.3956 4.1762C2.63801 3.64176 2.88333 3.10816 3.12198 2.57205C3.1829 2.4349 3.27051 2.36528 3.42322 2.34152C4.57391 2.1631 5.72335 1.97675 6.87321 1.79333C6.91952 1.78582 6.96625 1.78249 7.00213 1.77832L7.00255 1.77874ZM6.03585 2.46575C6.03126 2.45575 6.02709 2.44616 6.0225 2.43615C5.23812 2.5608 4.45417 2.68586 3.66479 2.81134C3.72487 3.2624 3.78161 3.68762 3.84169 4.13701C4.58643 3.56964 5.31114 3.0177 6.03585 2.46575ZM5.37789 5.05664C5.70833 4.32794 6.03209 3.61341 6.35627 2.89889C6.34584 2.89097 6.33541 2.88263 6.32498 2.87471C5.60569 3.42248 4.88641 3.96984 4.14584 4.53388C4.56515 4.71188 4.95984 4.87947 5.37789 5.05664ZM2.85496 5.51729C2.85997 5.52729 2.86498 5.53688 2.86998 5.54689C3.42864 5.45851 3.9873 5.36971 4.54596 5.28134C4.28102 5.13543 4.01567 5.01996 3.74698 4.91198C3.71318 4.89823 3.65352 4.9124 3.62223 4.93575C3.36439 5.12668 3.1103 5.32302 2.85496 5.51729ZM2.52786 5.09458C2.53537 5.10291 2.5433 5.11125 2.55081 5.11959C2.73981 4.97577 2.91838 4.8136 3.12115 4.69271C3.33977 4.56181 3.40736 4.40464 3.34603 4.15952C3.2968 3.96442 3.28512 3.76015 3.25633 3.56005C3.2459 3.56005 3.23547 3.55922 3.22504 3.55922C2.99264 4.07114 2.76067 4.58265 2.52828 5.09458H2.52786Z" fill="#410EAD"/>
<path d="M11.562 6.91888C11.8783 6.39028 12.3439 6.19559 12.8325 6.37235C13.268 6.52993 13.5497 6.98599 13.4854 7.42997C13.4149 7.91813 13.0286 8.28206 12.5529 8.30833C12.0756 8.33459 11.6438 8.02568 11.5295 7.56378C11.5036 7.45998 11.464 7.39995 11.3559 7.38036C11.2641 7.36368 11.1769 7.32366 11.0852 7.30907C11.0313 7.30074 10.9604 7.30532 10.9212 7.33534C10.8957 7.35493 10.8995 7.43539 10.9141 7.48083C11.0756 7.99567 10.8306 8.52719 10.3367 8.72479C9.85685 8.91655 9.30738 8.7077 9.0754 8.24538C8.88181 7.85893 8.95608 7.40037 9.26315 7.09355C9.56897 6.78714 10.0404 6.71669 10.4318 6.91304C10.4798 6.93722 10.5674 6.9614 10.5903 6.93889C10.6291 6.90053 10.6329 6.82508 10.6475 6.76422C10.6521 6.74546 10.6408 6.72294 10.6412 6.70252C10.6458 6.4799 10.5645 6.34234 10.3475 6.22686C9.94697 6.01342 9.79219 5.504 9.9403 5.07211C10.0922 4.62897 10.519 4.36259 11.0055 4.40719C11.4285 4.44596 11.8074 4.80614 11.8699 5.22886C11.94 5.70285 11.7018 6.1364 11.2704 6.31732C11.1874 6.35192 11.0785 6.36068 11.1194 6.49991C11.1573 6.62873 11.0756 6.81632 11.3042 6.84842C11.3901 6.86051 11.4736 6.89386 11.562 6.91846V6.91888ZM11.9947 7.31408C11.9964 7.58713 12.2204 7.80974 12.4929 7.80933C12.7645 7.80933 12.9906 7.58463 12.9927 7.31366C12.9948 7.03518 12.764 6.80757 12.4845 6.81174C12.2104 6.81591 11.993 7.03894 11.9947 7.31408ZM9.96742 7.30407C9.69205 7.30407 9.46967 7.52251 9.46717 7.79473C9.46467 8.07112 9.69915 8.30416 9.97409 8.29874C10.247 8.29332 10.4664 8.06904 10.4652 7.79599C10.4643 7.5221 10.2428 7.30365 9.96742 7.30407ZM11.3801 5.39394C11.3789 5.11672 11.1632 4.90244 10.8849 4.90203C10.6087 4.90203 10.3892 5.11839 10.3867 5.39352C10.3842 5.66491 10.6062 5.89336 10.8761 5.89794C11.1532 5.90253 11.381 5.67492 11.3797 5.39436L11.3801 5.39394Z" fill="#410EAD"/>
</svg>
