<svg width="15" height="15" viewBox="0 0 15 15" fill="none" xmlns="http://www.w3.org/2000/svg">
<path d="M2.71447 10.542C2.74284 10.7269 2.7662 10.8801 2.79082 11.0412C2.00862 11.2049 1.20431 11.2737 0.517233 11.7128C0.51473 11.7346 0.51181 11.7563 0.509306 11.778C0.642384 11.851 0.767953 11.9529 0.910208 11.9917C1.45503 12.1407 1.99902 12.3089 2.55511 12.3991C4.64723 12.7376 6.75728 12.7906 8.87192 12.7222C10.2507 12.6775 11.6257 12.5827 12.9794 12.3056C13.3895 12.2217 13.7883 12.0806 14.1879 11.952C14.296 11.9174 14.3886 11.8343 14.5329 11.7462C14.379 11.6565 14.2735 11.5647 14.1512 11.5288C13.6535 11.3839 13.1517 11.2541 12.6502 11.1247C12.5151 11.0901 12.3749 11.0763 12.2143 11.0487C12.2377 10.8893 12.2602 10.7336 12.2865 10.5541C12.5372 10.5983 12.785 10.6242 13.0224 10.6873C13.4879 10.8112 13.951 10.9469 14.4086 11.0972C14.5467 11.1427 14.6719 11.2428 14.7887 11.3355C14.9347 11.4511 14.9993 11.6106 14.9977 11.8018C14.9931 12.3327 14.9876 12.8641 14.9997 13.3946C15.006 13.6643 14.8963 13.8534 14.6827 13.9974C14.3494 14.2219 13.9706 14.3351 13.5876 14.4327C12.6423 14.6736 11.6774 14.7875 10.7079 14.8685C9.10387 15.0025 7.49734 15.0326 5.88956 14.9645C4.38691 14.9011 2.8876 14.7955 1.42249 14.4294C1.08292 14.3447 0.753352 14.2069 0.432964 14.0621C0.135521 13.9272 -0.0150776 13.6914 0.00119205 13.3383C0.0241365 12.8499 0.0174618 12.3594 0.00286077 11.8706C-0.00631699 11.5676 0.116331 11.3405 0.372474 11.2203C0.718309 11.0583 1.07791 10.9164 1.4446 10.8125C1.85301 10.6964 2.27603 10.6326 2.71322 10.542H2.71447ZM5.011 14.4311C5.76024 14.4565 6.5028 14.4816 7.2437 14.5066V13.2581C6.49613 13.2331 5.7569 13.2085 5.011 13.1838V14.4311ZM7.76391 13.2577V14.5083C8.51524 14.4816 9.25446 14.4557 9.99035 14.4298V13.183C9.24445 13.208 8.50898 13.2327 7.76391 13.2577ZM2.51715 12.9209V14.166C3.17962 14.2428 3.83291 14.3184 4.49746 14.3956V13.1483C3.83666 13.0724 3.18212 12.9972 2.51715 12.9209ZM12.488 14.1656V12.9213C11.8213 12.9981 11.1643 13.0736 10.5093 13.1492V14.3956C11.1747 14.3184 11.828 14.2424 12.488 14.1656ZM2.00069 14.0546V12.8432C1.49758 12.6959 1.00324 12.5514 0.507638 12.4062C0.507638 12.7055 0.515147 13.0231 0.5043 13.3399C0.499711 13.4798 0.550189 13.5616 0.666997 13.6263C1.08167 13.8559 1.53722 13.9527 2.00069 14.0546ZM13.004 12.8453V14.0537C13.102 14.0333 13.1951 14.0228 13.2823 13.994C13.6302 13.8772 13.9785 13.7599 14.3218 13.6296C14.3907 13.6038 14.4858 13.524 14.4883 13.4656C14.5037 13.1058 14.4962 12.7451 14.4962 12.4062C13.9981 12.5531 13.5117 12.6963 13.0044 12.8457L13.004 12.8453Z" fill="#410EAD"/>
<path d="M7.50527 0.000417507C9.22234 0.000417507 10.9394 0.000417507 12.6565 0.000417507C13.1988 0.000417507 13.4975 0.298454 13.4975 0.839427C13.4975 3.03129 13.4975 5.22315 13.4975 7.41501C13.4975 7.94638 13.1963 8.24859 12.6661 8.24859C11.3704 8.24901 10.0746 8.25026 8.77931 8.24567C8.66208 8.24525 8.59033 8.28073 8.51983 8.37214C8.26535 8.70149 8.00254 9.02457 7.74139 9.3489C7.57702 9.5526 7.42559 9.55093 7.25914 9.34389C7.00174 9.02332 6.74268 8.70399 6.49071 8.37924C6.4177 8.2849 6.34178 8.24525 6.21871 8.24567C4.9284 8.25068 3.63768 8.24901 2.34736 8.24859C1.80546 8.24859 1.50635 7.94972 1.50635 7.40874C1.50635 5.21689 1.50635 3.02503 1.50635 0.833165C1.50635 0.30221 1.80796 0 2.33777 0C4.06027 0 5.78235 0 7.50485 0L7.50527 0.000417507ZM7.50277 8.848C7.75474 8.53285 7.99962 8.23732 8.2324 7.93219C8.33377 7.79903 8.44808 7.7456 8.6162 7.74644C9.95865 7.75186 11.3011 7.74977 12.6436 7.74936C12.9218 7.74936 12.9982 7.67464 12.9982 7.40081C12.9982 5.21939 12.9982 3.03797 12.9982 0.856124C12.9982 0.57228 12.9247 0.500484 12.6356 0.500484C9.21192 0.500484 5.78778 0.500484 2.36405 0.500484C2.07829 0.500484 2.00654 0.572697 2.00654 0.861132C2.00654 3.03755 2.00654 5.21355 2.00654 7.38996C2.00654 7.67673 2.07912 7.74936 2.36572 7.74936C3.7136 7.74936 5.06106 7.75103 6.40894 7.74727C6.55787 7.74727 6.66383 7.79235 6.75561 7.91132C6.99382 8.2202 7.24162 8.52158 7.50277 8.848Z" fill="#410EAD"/>
<path d="M3.25522 11.0003C3.25522 10.7662 3.25356 10.5316 3.25564 10.2974C3.25731 10.092 3.34658 10.0014 3.55016 9.99977C3.8572 9.99769 4.16424 9.99727 4.47128 9.99977C4.6565 10.0014 4.75162 10.0949 4.75287 10.2786C4.75579 10.7578 4.75537 11.2366 4.75287 11.7158C4.75203 11.9011 4.65775 11.9959 4.47378 11.9975C4.16174 12.0009 3.84928 12.0005 3.53723 11.9975C3.35201 11.9959 3.25856 11.9024 3.25564 11.7183C3.2523 11.4787 3.25481 11.2391 3.25481 10.9999L3.25522 11.0003ZM4.2435 11.492V10.5119H3.76292V11.492H4.2435Z" fill="#410EAD"/>
<path d="M7.75183 11.0139C7.75183 11.2431 7.75349 11.4723 7.75141 11.7014C7.74932 11.9051 7.6588 11.9965 7.45522 11.9978C7.1536 11.9999 6.85157 11.9999 6.54996 11.9978C6.34596 11.9961 6.25502 11.9055 6.25418 11.7014C6.25251 11.2327 6.25251 10.7643 6.25418 10.2956C6.25502 10.091 6.34596 10.0009 6.55037 9.99961C6.85199 9.99753 7.15402 9.99753 7.45563 9.99961C7.65963 10.0009 7.75016 10.0919 7.75183 10.296C7.75391 10.5356 7.75224 10.7752 7.75224 11.0144L7.75183 11.0139ZM7.24538 10.5093H6.7648V11.4898H7.24538V10.5093Z" fill="#410EAD"/>
<path d="M9.25084 10.9934C9.25084 10.7592 9.24917 10.5246 9.25126 10.2905C9.25335 10.0943 9.34346 10.0012 9.53619 9.99911C9.84323 9.99619 10.1503 9.9966 10.4573 9.99911C10.653 10.0008 10.7477 10.0918 10.7485 10.2842C10.751 10.758 10.7506 11.2317 10.7485 11.7055C10.7477 11.9013 10.6555 11.9952 10.4631 11.9969C10.1561 11.9998 9.84907 11.9994 9.54203 11.9969C9.34095 11.9952 9.25209 11.9025 9.25084 11.6959C9.24917 11.4617 9.25043 11.2272 9.25084 10.993V10.9934ZM9.76146 10.5054V11.4855H10.2416V10.5054H9.76146Z" fill="#410EAD"/>
<path d="M5.74661 10.0068V11.9875H5.2627V10.0068H5.74661Z" fill="#410EAD"/>
<path d="M8.73847 11.9926H8.26123V10.0078H8.73847V11.9926Z" fill="#410EAD"/>
<path d="M11.7427 10.0068V11.9875H11.2588V10.0068H11.7427Z" fill="#410EAD"/>
<path d="M3.00879 6.74895V6.24888C3.06135 6.24888 3.11058 6.24888 3.16022 6.24888C3.90946 6.24888 4.65912 6.2468 5.40836 6.25139C5.50389 6.25181 5.60485 6.27393 5.6937 6.31025C6.08751 6.47262 6.47965 6.64001 6.86887 6.81323C7.11375 6.92218 7.35071 6.92176 7.58975 6.80196C8.84001 6.17584 10.0903 5.55013 11.3405 4.924C11.3631 4.91273 11.3843 4.89812 11.4052 4.88602C11.3489 4.66186 10.9496 4.50241 10.6443 4.6364C10.1829 4.83927 9.71857 5.03503 9.25509 5.23373C8.90175 5.38525 8.54632 5.5326 8.1959 5.6908C8.06157 5.75132 7.94184 5.75424 7.80876 5.69163C7.65357 5.619 7.49171 5.56098 7.33193 5.4992C6.99069 5.36688 6.66446 5.17278 6.26398 5.26127V4.74702C6.43668 4.74702 6.60689 4.75203 6.7771 4.74576C7.08914 4.73449 7.35363 4.53872 7.43998 4.24904C7.08872 4.24904 6.74289 4.24695 6.39705 4.25238C6.35867 4.25279 6.3157 4.29287 6.28442 4.32375C6.09502 4.50992 5.91355 4.70402 5.7179 4.88309C5.65449 4.94112 5.55687 4.99246 5.47427 4.99329C4.67288 5.00122 3.8715 4.99788 3.07011 4.99747C3.0551 4.99747 3.04049 4.99246 3.0163 4.98787V4.50199H5.00495V4.32584C5.00495 3.33114 5.00495 2.33643 5.00495 1.34214C5.00495 1.07625 5.08255 0.999023 5.34828 0.999023C7.28438 0.999023 9.22047 0.999023 11.1561 0.999023C11.4219 0.999023 11.4995 1.07708 11.4995 1.34256C11.4995 2.26964 11.5011 3.19631 11.4974 4.12339C11.4974 4.21564 11.5353 4.26615 11.5938 4.33294C11.7281 4.48738 11.8616 4.65101 11.9525 4.83217C12.0585 5.04338 12.0022 5.15024 11.7882 5.25752C10.8595 5.72377 9.93007 6.18836 9.00062 6.65336C8.61974 6.84412 8.23594 7.02946 7.85799 7.22606C7.45625 7.43477 7.05702 7.44604 6.6436 7.25987C6.25063 7.08288 5.86433 6.85581 5.45007 6.76982C5.04083 6.68509 4.6003 6.74853 4.17395 6.7477C3.79015 6.74728 3.40635 6.7477 3.00921 6.7477L3.00879 6.74895ZM5.51182 4.35423C5.52266 4.36257 5.53351 4.37092 5.54436 4.37885C5.70747 4.2073 5.86391 4.02864 6.03703 3.86835C6.10295 3.80741 6.20682 3.7569 6.29443 3.75481C6.7675 3.74396 7.24099 3.74814 7.71448 3.75022C7.91347 3.75106 8.00942 3.85416 7.99857 4.05536C7.98022 4.39806 7.84255 4.68733 7.59225 4.92233C7.56054 4.95197 7.52926 4.98202 7.48712 5.02209C7.61102 5.07177 7.72074 5.10641 7.82128 5.15942C7.94309 5.22371 8.04988 5.21327 8.17337 5.15692C8.48458 5.01375 8.80038 4.87934 9.11826 4.75203C9.22297 4.71028 9.25342 4.65518 9.25301 4.5454C9.24884 3.58242 9.2505 2.61944 9.25009 1.65687C9.25009 1.6072 9.2455 1.55711 9.24341 1.50744H8.75073C8.75073 1.56504 8.75073 1.61555 8.75073 1.66647C8.75073 2.01502 8.7524 2.36398 8.7499 2.71252C8.74865 2.89285 8.65895 2.99511 8.49083 2.99762C8.16335 3.00263 7.83546 3.00263 7.50756 2.99762C7.35154 2.99511 7.25851 2.89744 7.25351 2.74007C7.2485 2.58396 7.25184 2.42784 7.25184 2.27173C7.25184 2.01836 7.25184 1.7654 7.25184 1.51078H5.5114V4.35423H5.51182ZM10.9889 4.09042V1.51245H9.75778V4.46275C10.1699 4.33962 10.5229 4.05369 10.9889 4.09042ZM8.24387 2.49296V1.50911H7.76245V2.49296H8.24387Z" fill="#410EAD"/>
</svg>
