<svg width="16" height="15" viewBox="0 0 16 15" fill="none" xmlns="http://www.w3.org/2000/svg">
<path d="M15.0022 5.09746C14.9344 5.43092 14.8633 5.76355 14.8001 6.09784C14.6193 7.05623 14.4422 8.01503 14.2625 8.97342C14.2214 9.19337 14.1453 9.25199 13.9075 9.25199C12.2863 9.25199 10.6651 9.25199 9.04441 9.25199C8.98703 9.25199 8.92966 9.25199 8.85773 9.25199C8.88683 9.44658 8.9072 9.62496 8.9413 9.80042C8.96417 9.91725 9.04441 9.9871 9.16707 9.99376C9.24981 9.99833 9.33297 9.99376 9.41613 9.99708C9.62984 10.0071 9.79158 9.99002 9.94667 9.77048C10.2456 9.34679 10.898 9.42496 11.1479 9.88191C11.199 9.97546 11.2535 10 11.3504 9.99833C11.6285 9.99334 11.9071 9.99417 12.1853 9.99833C12.2626 9.99958 12.3038 9.97713 12.3424 9.90478C12.515 9.58338 12.8526 9.43702 13.1948 9.52392C13.5199 9.60625 13.7499 9.90395 13.7515 10.2453C13.7536 10.5912 13.5212 10.8923 13.1881 10.9767C12.8501 11.0619 12.52 10.9085 12.3333 10.59C12.3079 10.5468 12.2418 10.5031 12.1932 10.5018C11.9005 10.4935 11.6073 10.501 11.3146 10.4956C11.2327 10.4944 11.1965 10.5264 11.1599 10.5954C11.0198 10.8598 10.794 10.9975 10.4951 10.9954C10.202 10.9933 9.97952 10.8569 9.84439 10.5966C9.80405 10.5189 9.75874 10.4935 9.67516 10.4956C9.4997 10.5002 9.32341 10.5018 9.14794 10.4935C8.78122 10.4761 8.49391 10.2154 8.43986 9.85073C8.17334 8.05619 7.9089 6.26124 7.64321 4.46671C7.62201 4.32201 7.60205 4.1769 7.57793 4.03263C7.54093 3.81184 7.46817 3.75031 7.24614 3.74989C6.92889 3.74864 6.61165 3.74864 6.29399 3.7474C6.28484 3.7474 6.27611 3.74158 6.25781 3.73492V3.25843C6.6553 3.25843 7.04614 3.23806 7.43366 3.26467C7.75548 3.28712 8.00204 3.55614 8.05734 3.87629C8.08228 4.02057 8.09975 4.16568 8.12178 4.31037C8.14299 4.44966 8.16544 4.58853 8.1908 4.7482H8.36252C10.4573 4.7482 12.552 4.74944 14.6467 4.7457C14.8026 4.7457 14.9224 4.78395 15.0018 4.92158V5.09746H15.0022ZM13.7939 8.75222C14.0139 7.58178 14.2318 6.42174 14.4501 5.25878H8.27147C8.27147 5.28414 8.2698 5.29911 8.27147 5.31283C8.43238 6.39305 8.59786 7.47243 8.74962 8.55389C8.77249 8.71646 8.82155 8.75679 8.98205 8.75596C10.5242 8.74931 12.0668 8.7518 13.6093 8.7518H13.7939V8.75222ZM10.5063 10.4952C10.646 10.4927 10.7566 10.3779 10.7512 10.2407C10.7462 10.1106 10.634 10.0008 10.5042 9.99916C10.3683 9.9975 10.2539 10.1123 10.2544 10.2499C10.2548 10.3908 10.3641 10.4973 10.5063 10.4948V10.4952ZM13.0035 10C12.8688 9.99875 12.7512 10.116 12.7516 10.2507C12.7524 10.3821 12.8588 10.4906 12.9919 10.4952C13.1345 10.4998 13.2447 10.3967 13.2476 10.2553C13.2505 10.116 13.1407 10.0017 13.0035 10Z" fill="#410EAD"/>
<path d="M10.9295 0C11.1253 0.0823257 11.3369 0.139704 11.5141 0.251967C11.8421 0.45986 12.0147 0.759226 12.0084 1.17002C11.9939 2.0727 12.0043 2.97578 12.0034 3.87887C12.0034 3.93708 12.0034 3.99696 11.991 4.0535C11.9644 4.17907 11.8587 4.2589 11.7361 4.24684C11.6101 4.23437 11.529 4.16493 11.5099 4.03646C11.502 3.98365 11.5032 3.9296 11.5028 3.87596C11.5024 3.30966 11.5028 2.74378 11.5028 2.17747C11.5028 2.12467 11.5028 2.07186 11.5028 2.00866H3.50019C3.50019 2.07103 3.50019 2.12841 3.50019 2.18537C3.50019 2.61987 3.50268 3.05437 3.49769 3.48845C3.49603 3.6452 3.39458 3.7454 3.25695 3.74873C3.11517 3.75247 3.01289 3.64853 3.00041 3.48595C2.99792 3.45186 2.99916 3.41777 2.99916 3.38367C2.99916 3.22276 2.99916 3.06144 2.99916 2.90053C2.99916 2.37331 2.9975 1.84609 2.99958 1.31929C3.00249 0.637817 3.36963 0.180036 4.0353 0.0212052C4.04861 0.0178789 4.06067 0.00748425 4.07314 0.000415875C6.35872 0.000415875 8.64388 0.000415875 10.9295 0.000415875V0ZM11.5028 1.49101C11.5028 1.38332 11.4929 1.28062 11.5049 1.18042C11.5373 0.911404 11.3997 0.73511 11.1818 0.627422C11.0421 0.558401 10.8775 0.505181 10.7236 0.504765C8.57528 0.496865 6.42732 0.498112 4.27896 0.500191C3.7455 0.500607 3.39291 0.965456 3.52222 1.49101H11.5024H11.5028Z" fill="#410EAD"/>
<path d="M3.50019 12.4936H11.4954C11.4978 12.4363 11.5024 12.3843 11.5024 12.3323C11.5033 11.9905 11.5012 11.6488 11.5033 11.307C11.5045 11.1153 11.5931 11.0072 11.7448 11.003C11.9024 10.9989 12.0026 11.112 12.003 11.3074C12.0047 12.1132 12.0113 12.9186 12.0014 13.7244C11.9918 14.4757 11.4534 14.9987 10.7045 14.9992C8.5703 15.0004 6.43648 15.0004 4.30225 14.9992C3.55757 14.9987 3.01622 14.484 3.0025 13.7427C2.98919 13.0105 2.99917 12.2778 2.99959 11.5456C2.99959 11.4317 3.02578 11.3165 3.14345 11.2837C3.22203 11.2617 3.33887 11.2666 3.39749 11.312C3.45778 11.359 3.49188 11.4687 3.49604 11.5527C3.50851 11.8109 3.50061 12.0699 3.50061 12.329C3.50061 12.3814 3.50061 12.4333 3.50061 12.4941L3.50019 12.4936ZM11.48 13.0134H3.50019C3.50019 13.2333 3.49978 13.4425 3.50019 13.6516C3.50186 14.2042 3.79873 14.5002 4.35131 14.5002C6.4502 14.5002 8.54909 14.5002 10.648 14.5002C10.6966 14.5002 10.7457 14.5015 10.7943 14.4981C11.1228 14.4774 11.4317 14.2474 11.4717 13.9302C11.5095 13.6291 11.4796 13.3198 11.4796 13.013L11.48 13.0134Z" fill="#410EAD"/>
<path d="M0.000418098 7.49507C0.00249703 5.70303 1.46191 4.24695 3.25436 4.24903C5.04599 4.2511 6.5054 5.71301 6.50207 7.50297C6.49875 9.29252 5.03518 10.7519 3.24522 10.7503C1.45442 10.7486 -0.00207671 9.28753 2.22276e-06 7.49507H0.000418098ZM0.499778 7.49923C0.499778 9.01103 1.7355 10.2488 3.24771 10.2513C4.75993 10.2538 5.99897 9.01976 6.00271 7.50671C6.00687 5.98826 4.76616 4.74672 3.24688 4.74839C1.733 4.75005 0.499778 5.98535 0.499778 7.49923Z" fill="#410EAD"/>
<path d="M10.7509 5.50243C11.2972 5.50243 11.8436 5.50243 12.3899 5.50243C12.4386 5.50243 12.488 5.49993 12.5359 5.50658C12.6564 5.52363 12.7292 5.59598 12.7458 5.71614C12.7625 5.8363 12.7113 5.92819 12.5999 5.97434C12.5479 5.99596 12.486 6.00095 12.4286 6.00095C11.3118 6.0022 10.1946 6.0022 9.07776 6.0022C9.05822 6.0022 9.03868 6.00303 9.01914 6.00179C8.85573 5.99139 8.75511 5.8941 8.75636 5.74774C8.75761 5.60014 8.85656 5.50534 9.02454 5.50367C9.37089 5.50076 9.71724 5.50243 10.0636 5.50243C10.2927 5.50243 10.5222 5.50243 10.7513 5.50243H10.7509Z" fill="#410EAD"/>
<path d="M13.5191 5.50366C13.6019 5.50366 13.6854 5.49909 13.7678 5.50491C13.9004 5.51447 13.9969 5.61551 14.0014 5.74149C14.0056 5.85916 13.922 5.98098 13.7981 5.99013C13.5998 6.00427 13.3985 6.00552 13.2002 5.98888C13.0692 5.97807 12.9944 5.85209 13.0073 5.72153C13.0194 5.59846 13.1087 5.51281 13.2418 5.50491C13.3341 5.4995 13.4272 5.50408 13.5195 5.50408L13.5191 5.50366Z" fill="#410EAD"/>
<path d="M6.75892 0.755001C6.84665 0.755001 6.9348 0.749596 7.0217 0.756248C7.14976 0.766227 7.22627 0.841069 7.24373 0.968299C7.26119 1.0947 7.19342 1.22027 7.06868 1.23108C6.85705 1.24896 6.64126 1.24937 6.43004 1.23024C6.30405 1.2186 6.24501 1.10509 6.25499 0.980773C6.26497 0.856869 6.33732 0.770385 6.46704 0.758327C6.5635 0.74918 6.66163 0.756664 6.75892 0.756664C6.75892 0.756248 6.75892 0.755832 6.75892 0.755417V0.755001Z" fill="#410EAD"/>
<path d="M8.25613 0.755001C8.34387 0.755001 8.43201 0.749596 8.51891 0.756248C8.65279 0.766643 8.75175 0.867679 8.74884 0.994078C8.74593 1.1263 8.67857 1.22941 8.54511 1.23939C8.34719 1.25394 8.14595 1.25478 7.94804 1.23648C7.8154 1.22442 7.75178 1.11881 7.75553 0.984515C7.75927 0.860611 7.84825 0.771632 7.97797 0.755417C7.98754 0.754169 7.99751 0.753338 8.00708 0.753338C8.08982 0.753338 8.17256 0.753338 8.25572 0.753338C8.25572 0.753754 8.25572 0.754585 8.25572 0.755001H8.25613Z" fill="#410EAD"/>
<path d="M7.50752 13.5027C7.66885 13.5027 7.82976 13.4993 7.99108 13.5035C8.14409 13.5072 8.24762 13.6074 8.2497 13.7455C8.2522 13.8827 8.15074 13.9962 8.00023 13.9987C7.66843 14.0049 7.33622 14.0045 7.004 13.9987C6.85307 13.9962 6.75121 13.8843 6.75245 13.7471C6.7537 13.6095 6.85765 13.5072 7.00941 13.5031C7.17531 13.4989 7.34162 13.5022 7.50752 13.5022V13.5027Z" fill="#410EAD"/>
<path d="M2.25438 8.30063C2.25023 8.12517 2.33713 8.01124 2.48348 8.00043C2.63109 7.98962 2.73462 8.09731 2.75333 8.28109C2.77994 8.54553 2.97245 8.73513 3.2294 8.7501C3.47139 8.76382 3.69592 8.5842 3.74373 8.33847C3.78905 8.10396 3.64976 7.8574 3.41817 7.78256C3.33169 7.7547 3.23647 7.75138 3.14458 7.7414C2.69096 7.69275 2.32756 7.34557 2.26145 6.8961C2.19576 6.44913 2.44398 6.00383 2.86684 5.83502C2.97037 5.79385 3.01361 5.74645 3.00155 5.63586C2.99407 5.56933 2.99989 5.49823 3.01611 5.43295C3.04729 5.30697 3.14167 5.24543 3.26599 5.2525C3.38283 5.25915 3.46474 5.32651 3.49177 5.44709C3.49301 5.45166 3.49468 5.45707 3.49384 5.46164C3.44353 5.71111 3.58365 5.8134 3.78781 5.92108C4.08177 6.07617 4.22355 6.35891 4.24808 6.69112C4.26139 6.87032 4.16201 6.99257 4.01108 6.99922C3.86805 7.00546 3.76826 6.90068 3.75038 6.72563C3.72294 6.45329 3.52503 6.2587 3.26516 6.24914C3.02858 6.23999 2.80405 6.42003 2.75915 6.6537C2.71341 6.89361 2.84563 7.1356 3.07723 7.2146C3.15872 7.24245 3.24895 7.24661 3.33585 7.25534C3.81067 7.30399 4.16908 7.64119 4.24184 8.11062C4.31086 8.55468 4.05183 8.99915 3.61525 9.17253C3.53002 9.20621 3.48886 9.24571 3.49842 9.34051C3.50549 9.40787 3.50133 9.47772 3.49093 9.54466C3.47056 9.67397 3.382 9.74299 3.25851 9.74715C3.1346 9.75131 3.04604 9.68562 3.01195 9.56005C3.0107 9.55547 3.00779 9.55048 3.00862 9.54591C3.05311 9.28771 2.90842 9.17711 2.69553 9.06693C2.42028 8.92473 2.26187 8.59709 2.25438 8.30105V8.30063Z" fill="#410EAD"/>
</svg>
