<svg width="16" height="15" viewBox="0 0 16 15" fill="none" xmlns="http://www.w3.org/2000/svg">
<path d="M0 2.84201C0.0211339 2.78331 0.0395282 2.72304 0.0645757 2.6659C0.225428 2.30154 0.50369 2.09763 0.902885 2.08315C1.21911 2.0718 1.53612 2.0808 1.87152 2.0808C1.87152 2.0174 1.87152 1.96535 1.87152 1.91369C1.87152 1.52819 1.86878 1.1423 1.8723 0.756807C1.87661 0.318475 2.19362 0.001859 2.63469 0.00146763C4.46081 -0.00048921 6.28732 -0.00048921 8.11344 0.00146763C8.56234 0.001859 8.87739 0.318084 8.88091 0.766983C8.88405 1.19631 8.8817 1.62564 8.8817 2.0808H9.05468C10.7004 2.0808 12.3457 2.0808 13.9914 2.0808C14.6254 2.0808 15.0027 2.45769 15.0027 3.09132C15.0027 5.72757 15.0027 8.36382 15.0027 11.0001C15.0027 11.6329 14.6242 12.0114 13.9922 12.0118C13.4893 12.0118 12.9864 12.0118 12.4835 12.0118C12.3684 12.0118 12.2815 11.9652 12.2506 11.8513C12.222 11.7468 12.2533 11.6529 12.3551 11.6043C12.4052 11.5805 12.4674 11.5742 12.5245 11.5738C13.0228 11.5715 13.5206 11.573 14.0188 11.5723C14.3718 11.5719 14.5636 11.3817 14.5636 11.0302C14.564 8.37439 14.564 5.71857 14.5636 3.06275C14.5636 2.71091 14.3722 2.51992 14.0204 2.51992C12.3602 2.51953 10.7 2.51992 9.03981 2.51992C8.99245 2.51992 8.94471 2.52383 8.89031 2.52618V2.95903C8.9494 2.95903 9.00615 2.95903 9.06251 2.95903C10.6057 2.95903 12.1484 2.95903 13.6916 2.95903C14.0129 2.95903 14.1245 3.06901 14.1245 3.38719C14.1245 5.82815 14.1245 8.26911 14.1245 10.7101C14.1245 11.0189 14.0102 11.1327 13.7006 11.1327C9.56972 11.1327 5.43884 11.1327 1.30756 11.1327C0.989769 11.1327 0.879795 11.0212 0.879795 10.6995C0.879795 8.26324 0.879795 5.82737 0.879795 3.3911C0.879795 3.06979 0.989377 2.95942 1.30873 2.95942C1.48915 2.95942 1.66957 2.95942 1.86095 2.95942V2.52657C1.51929 2.52657 1.17802 2.51053 0.839483 2.53205C0.607402 2.54653 0.446159 2.761 0.441071 3.00248C0.437158 3.19268 0.436766 3.38328 0.441071 3.57348C0.443811 3.69989 0.423068 3.81378 0.289612 3.85918C0.155373 3.90458 0.0673152 3.82865 0.000391302 3.72103C0.000391302 3.42789 0.000391302 3.13515 0.000391302 2.84201H0ZM13.6779 3.40832H8.8817C8.8817 3.5633 8.8817 3.70889 8.8817 3.85448C8.88013 4.37187 8.58191 4.6697 8.06178 4.67088C7.50526 4.67205 6.94873 4.67322 6.39182 4.66931C6.27793 4.66853 6.20122 4.70258 6.13625 4.80003C6.00632 4.99493 5.86621 5.18278 5.72649 5.37064C5.53003 5.63403 5.2228 5.63442 5.0279 5.37221C4.89092 5.18826 4.75355 5.00432 4.62675 4.81333C4.55669 4.70806 4.4749 4.66774 4.34809 4.66892C3.78179 4.6744 3.21548 4.67401 2.64917 4.67048C2.17835 4.66735 1.87504 4.35817 1.87152 3.88657C1.87035 3.72729 1.87152 3.568 1.87152 3.40676H1.32752V10.6838H13.6779V3.40872V3.40832ZM5.37661 5.10529C5.51868 4.90883 5.65683 4.73154 5.77933 4.54446C5.92765 4.31747 6.13077 4.22628 6.39769 4.2298C6.94912 4.23685 7.50056 4.23254 8.052 4.23176C8.33965 4.23137 8.4418 4.13001 8.4418 3.84626C8.44219 2.84123 8.44219 1.8362 8.4418 0.830776C8.4418 0.543512 8.33965 0.440191 8.0563 0.440191C6.2701 0.440191 4.4839 0.440191 2.6977 0.440191C2.41317 0.440191 2.31103 0.543121 2.31103 0.82921C2.31063 1.82955 2.31103 2.82988 2.31103 3.82983C2.31103 4.13431 2.40769 4.23137 2.71374 4.23176C3.27027 4.23254 3.8264 4.23489 4.38293 4.23059C4.6334 4.22863 4.82361 4.32138 4.96411 4.53116C5.0913 4.72136 5.23063 4.90335 5.377 5.10529H5.37661Z" fill="#410EAD"/>
<path d="M0 4.60079C0.0234821 4.5777 0.0434418 4.54169 0.0712289 4.53386C0.146763 4.51234 0.235212 4.47477 0.300179 4.49707C0.358493 4.51703 0.401543 4.60353 0.433635 4.66928C0.452812 4.7088 0.439115 4.76516 0.439115 4.81408C0.439115 6.87424 0.439115 8.9344 0.439115 10.9946C0.439115 11.3961 0.616795 11.573 1.0203 11.573C4.4385 11.573 7.85631 11.573 11.2745 11.573C11.5129 11.573 11.6181 11.6411 11.617 11.7941C11.6158 11.946 11.5109 12.0125 11.2714 12.0125C10.8765 12.0125 10.482 12.0125 10.0762 12.0125V13.6825C10.2456 13.6825 10.4104 13.6813 10.5751 13.6825C10.9755 13.6856 11.2463 13.9451 11.2647 14.3443C11.2683 14.4175 11.2651 14.4906 11.2659 14.5638C11.2675 14.7826 11.1375 14.909 10.9587 15.0006H4.04361C3.86358 14.9094 3.73482 14.7826 3.73678 14.5634C3.73756 14.4903 3.73404 14.4167 3.73756 14.3439C3.75517 13.9463 4.02717 13.6856 4.42715 13.6825C4.59192 13.6813 4.75668 13.6825 4.92614 13.6825V12.0125C4.85726 12.0125 4.79934 12.0125 4.74142 12.0125C3.47652 12.0125 2.21201 12.0137 0.94711 12.0117C0.495471 12.0109 0.153807 11.7483 0.0285698 11.3155C0.0219166 11.2928 0.00939282 11.272 0 11.2505C0 9.03381 0 6.8171 0 4.60039V4.60079ZM5.38561 13.6719H9.61669V12.0235H5.38561V13.6719ZM10.8162 14.5548C10.8507 14.1866 10.7924 14.1224 10.4425 14.1224C8.47037 14.1224 6.49827 14.1224 4.52656 14.1224C4.48273 14.1224 4.4385 14.12 4.39467 14.1235C4.27139 14.1329 4.1939 14.1979 4.18098 14.3228C4.17315 14.3979 4.17942 14.4746 4.17942 14.5552H10.8158L10.8162 14.5548Z" fill="#410EAD"/>
<path d="M5.38052 6.11719C6.47166 6.11875 7.35536 7.00246 7.35497 8.09164C7.35497 9.17847 6.46774 10.068 5.38091 10.0716C4.29017 10.0747 3.39668 9.17925 3.39942 8.08538C3.40216 6.99698 4.289 6.11601 5.38013 6.11758L5.38052 6.11719ZM6.82271 8.59376C7.0728 8.01023 6.83524 7.2455 6.26384 6.83652C5.68422 6.42167 4.87566 6.47138 4.34575 6.95432C3.87532 7.38326 3.69099 8.15778 3.93872 8.58946C4.20759 8.42156 4.47725 8.25327 4.74964 8.08342C4.6154 7.72023 4.67606 7.4224 4.93632 7.21184C5.17466 7.0189 5.52063 6.99346 5.76524 7.18053C5.87599 7.26507 5.96953 7.3907 6.03098 7.5175C6.12451 7.71084 6.08146 7.91552 6.00554 8.0842C6.28263 8.25719 6.54876 8.42313 6.82271 8.59415V8.59376ZM4.18685 9.04266C4.75903 9.83596 6.02511 9.8117 6.56872 9.03992C6.02432 8.2748 4.70033 8.27636 4.18685 9.04266ZM5.38405 8.02197C5.52455 8.01767 5.63883 7.89713 5.63726 7.75467C5.63569 7.60321 5.51555 7.49089 5.36291 7.49832C5.21771 7.50537 5.11204 7.622 5.11752 7.76837C5.123 7.91043 5.24472 8.02628 5.38405 8.02197Z" fill="#410EAD"/>
<path d="M10.2704 6.11663C10.7733 6.11663 11.2758 6.11546 11.7787 6.11702C12.1462 6.1182 12.3352 6.31036 12.3356 6.67903C12.336 7.62066 12.336 8.56268 12.3356 9.50431C12.3356 9.87533 12.1388 10.071 11.765 10.0714C10.7596 10.0722 9.75416 10.0722 8.74873 10.0714C8.38554 10.0714 8.1836 9.87259 8.18281 9.51292C8.18125 8.5662 8.18125 7.61949 8.18281 6.67277C8.18321 6.3131 8.37654 6.11859 8.73347 6.11742C9.24577 6.11546 9.75846 6.11702 10.2708 6.11702L10.2704 6.11663ZM10.2547 6.55614C9.76668 6.55614 9.27825 6.55966 8.79022 6.55379C8.66772 6.55223 8.61762 6.57923 8.61841 6.71464C8.62389 7.6371 8.62271 8.55955 8.61919 9.482C8.6188 9.59667 8.65598 9.63464 8.77104 9.63425C9.76198 9.63072 10.7529 9.63112 11.7439 9.63425C11.8542 9.63425 11.8989 9.60763 11.8981 9.48631C11.8934 8.55916 11.8934 7.63162 11.8981 6.70447C11.8985 6.58745 11.8625 6.55301 11.7482 6.55418C11.2504 6.55927 10.7521 6.55614 10.2543 6.55614H10.2547Z" fill="#410EAD"/>
<path d="M5.37653 2.08107C5.97219 2.08107 6.56746 2.08107 7.16312 2.08107C7.20696 2.08107 7.25236 2.07715 7.29423 2.08694C7.40029 2.11237 7.46604 2.18243 7.46917 2.2928C7.4723 2.4106 7.40655 2.48574 7.29423 2.51314C7.24805 2.52449 7.19717 2.5194 7.14864 2.5194C5.9675 2.5194 4.78635 2.5194 3.60481 2.5194C3.56098 2.5194 3.51597 2.5237 3.47331 2.51548C3.35238 2.492 3.28115 2.41686 3.28428 2.2924C3.28741 2.17499 3.35864 2.10455 3.47292 2.08381C3.51558 2.07598 3.56058 2.08028 3.60442 2.08028C4.19499 2.08028 4.78557 2.08028 5.37614 2.08028L5.37653 2.08107Z" fill="#410EAD"/>
<path d="M5.37699 3.01798C5.98244 3.01798 6.58749 3.01603 7.19255 3.02072C7.26104 3.02111 7.35223 3.03677 7.39136 3.08178C7.43794 3.135 7.47355 3.24067 7.45085 3.29938C7.42541 3.36591 7.33657 3.42774 7.2626 3.45044C7.17768 3.47627 7.07905 3.45749 6.9863 3.45749C5.86855 3.45749 4.75081 3.45749 3.63306 3.45749C3.59392 3.45749 3.55479 3.45905 3.51604 3.4571C3.37241 3.44927 3.2777 3.35652 3.28239 3.2301C3.2867 3.10917 3.37867 3.02111 3.51721 3.01955C3.81505 3.01603 4.11288 3.01837 4.41032 3.01837C4.73241 3.01837 5.05451 3.01837 5.3766 3.01837L5.37699 3.01798Z" fill="#410EAD"/>
<path d="M4.0634 1.58179C3.88807 1.58179 3.71273 1.58375 3.5374 1.5814C3.38085 1.57944 3.28184 1.49217 3.28223 1.36145C3.28223 1.23113 3.38124 1.14385 3.53857 1.14307C3.89433 1.14111 4.24969 1.14111 4.60544 1.14307C4.75377 1.14385 4.85005 1.22995 4.85396 1.35519C4.85827 1.48552 4.75847 1.57866 4.60427 1.58101C4.42424 1.58375 4.24382 1.58179 4.0634 1.58179Z" fill="#410EAD"/>
<path d="M10.2796 8.31272C10.0307 8.31272 9.78182 8.31468 9.5333 8.31155C9.42724 8.31037 9.33018 8.26575 9.3153 8.15539C9.30591 8.08416 9.3337 7.99375 9.37597 7.93427C9.40454 7.89396 9.48751 7.87674 9.54621 7.87634C10.0389 7.87204 10.5317 7.87243 11.0244 7.87478C11.1755 7.87556 11.2706 7.95892 11.2757 8.08338C11.2811 8.21135 11.1802 8.3092 11.026 8.31194C10.7771 8.31624 10.5282 8.31311 10.2796 8.31272Z" fill="#410EAD"/>
<path d="M10.2861 8.81122C10.5299 8.81122 10.7741 8.80927 11.0179 8.81201C11.1768 8.81357 11.2762 8.90006 11.2758 9.02922C11.2758 9.15758 11.1749 9.24877 11.0175 9.24956C10.5295 9.2523 10.0418 9.2523 9.55381 9.24956C9.39648 9.24877 9.29629 9.15758 9.2959 9.02882C9.2959 8.90006 9.39491 8.81357 9.55381 8.81201C9.79763 8.80966 10.0418 8.81122 10.2857 8.81122H10.2861Z" fill="#410EAD"/>
<path d="M9.95838 7.37584C9.82179 7.37584 9.6852 7.37898 9.54901 7.37506C9.39402 7.37076 9.29344 7.27761 9.29696 7.14924C9.3001 7.02479 9.39559 6.93947 9.54509 6.9379C9.82296 6.93516 10.1008 6.93438 10.3783 6.9379C10.5243 6.93986 10.6073 7.01853 10.612 7.14494C10.6167 7.27605 10.5309 7.36723 10.3826 7.37389C10.2417 7.38015 10.1001 7.37506 9.95877 7.37506L9.95838 7.37584Z" fill="#410EAD"/>
</svg>
