<svg width="15" height="16" viewBox="0 0 15 16" fill="none" xmlns="http://www.w3.org/2000/svg">
<path d="M8.61346 0C8.67218 0 8.73053 0 8.78924 0C8.85896 0.0594487 8.93309 0.114494 8.99768 0.17908C10.8949 2.0719 12.791 3.96582 14.6871 5.85974C14.7147 5.88726 14.7429 5.91442 14.769 5.94377C14.8537 6.03919 14.8846 6.14707 14.8314 6.26781C14.7785 6.3878 14.6809 6.44395 14.5525 6.44542C14.3671 6.44762 14.1815 6.44615 13.9961 6.44652C13.8171 6.44652 13.6383 6.44652 13.4541 6.44652V11.0938C13.4916 11.0854 13.5246 11.0799 13.5569 11.071C14.0813 10.9261 14.6343 11.1599 14.8761 11.6292C15.1202 12.103 14.9994 12.6053 14.551 12.9697C14.0626 13.3668 13.5727 13.762 13.0831 14.158C12.3899 14.7187 11.5976 15.002 10.7059 15.002C9.31474 15.0024 7.92356 15.002 6.53239 15.002C6.05533 15.002 5.59148 14.926 5.13791 14.7774C4.64581 14.6163 4.21499 14.3393 3.7772 14.0743C3.69977 14.0273 3.62087 13.9826 3.5361 13.9334C3.52839 13.9635 3.52252 13.9767 3.52179 13.9899C3.47518 14.6637 3.11262 15.002 2.43593 15.002C1.76218 15.002 1.08843 14.998 0.41504 15.0049C0.233024 15.0068 0.0913749 14.9609 0 14.7972V8.05824C0.0653202 7.92797 0.158897 7.83879 0.315592 7.83953C1.09687 7.8432 1.87814 7.83476 2.65868 7.85457C3.08546 7.86522 3.45133 8.22961 3.50931 8.65016C3.52179 8.7408 3.52215 8.83291 3.52803 8.92722H3.94747V6.44652C3.88765 6.44652 3.83518 6.44652 3.7827 6.44652C3.47005 6.44652 3.15776 6.44725 2.8451 6.44578C2.71666 6.44505 2.61685 6.38854 2.56657 6.26817C2.51666 6.14927 2.54198 6.03845 2.62932 5.94304C2.65244 5.91772 2.67703 5.89387 2.70125 5.87001C3.52362 5.04874 4.34563 4.22747 5.168 3.40619C5.35332 3.22124 5.5302 3.19445 5.66268 3.33096C5.79625 3.46821 5.76763 3.63481 5.57681 3.82527C4.94122 4.46012 4.30526 5.09498 3.66968 5.7302C3.63408 5.76579 3.60105 5.80396 3.54858 5.86084C3.86197 5.86084 4.14453 5.8568 4.42673 5.86304C4.53205 5.86524 4.60654 5.83625 4.68287 5.75992C5.91735 4.52214 7.15477 3.2873 8.39181 2.05208C8.64576 1.79851 8.75511 1.79961 9.01346 2.05759C10.2501 3.29317 11.4868 4.52838 12.7246 5.76323C12.7613 5.79992 12.8064 5.85423 12.8486 5.85533C13.1727 5.86304 13.4967 5.85974 13.7899 5.85974C12.0923 4.15481 10.3892 2.44437 8.67621 0.72366C8.252 1.15008 7.82228 1.58273 7.39146 2.01465C7.34669 2.05942 7.30082 2.10456 7.24908 2.13979C7.12761 2.22199 6.98853 2.20768 6.88761 2.1097C6.7878 2.01282 6.77018 1.8708 6.84908 1.74897C6.88064 1.70053 6.92101 1.65649 6.96211 1.61539C7.42118 1.15595 7.87989 0.696504 8.34117 0.239263C8.42704 0.154126 8.52319 0.0799989 8.61493 0.000733952L8.61346 0ZM3.53133 9.52464C3.52582 9.56317 3.52105 9.58189 3.52105 9.60061C3.52069 10.7822 3.51922 11.9635 3.52436 13.1451C3.52436 13.1936 3.57169 13.2596 3.6161 13.2872C3.9427 13.4919 4.2726 13.6905 4.60361 13.8879C5.19112 14.238 5.82708 14.4149 6.51147 14.4152C7.91769 14.416 9.32354 14.4156 10.7298 14.4152C11.1393 14.4152 11.5415 14.3543 11.9107 14.1771C12.1855 14.0453 12.4563 13.8916 12.6982 13.7073C13.2105 13.3173 13.7022 12.9 14.2042 12.496C14.3565 12.3734 14.4475 12.2233 14.4038 12.0255C14.3576 11.8171 14.213 11.6909 14.0119 11.6307C13.8163 11.572 13.649 11.6365 13.493 11.7543C12.9829 12.1397 12.4699 12.5213 11.9613 12.9088C11.7903 13.0391 11.6035 13.0982 11.3903 13.0978C10.2575 13.096 9.12501 13.0963 7.99219 13.0974C7.641 13.0974 7.31807 13.0057 7.02339 12.8145C6.73679 12.6285 6.45056 12.4424 6.16469 12.2556C6.13239 12.2343 6.10047 12.2112 6.07258 12.1841C5.96359 12.078 5.94634 11.932 6.02597 11.8123C6.10084 11.7 6.24138 11.6564 6.37496 11.7092C6.42413 11.7286 6.47111 11.7569 6.51588 11.7859C6.78633 11.9606 7.05679 12.1352 7.32577 12.3125C7.50485 12.4307 7.69824 12.5088 7.91402 12.5092C9.08098 12.5118 10.2476 12.5103 11.4145 12.5121C11.5422 12.5121 11.6178 12.4479 11.6542 12.3367C11.7367 12.0831 11.6116 11.7664 11.263 11.7742C10.5507 11.7907 9.8373 11.7727 9.12465 11.7815C8.70887 11.7866 8.36796 11.6472 8.07842 11.3485C7.61641 10.8718 7.13935 10.4094 6.67551 9.93418C6.39955 9.65125 6.07111 9.51987 5.67919 9.52391C5.24947 9.52831 4.81975 9.52501 4.3904 9.52501C4.10783 9.52501 3.8249 9.52501 3.53059 9.52501L3.53133 9.52464ZM12.2523 11.9547C12.4244 11.8255 12.5837 11.6975 12.7521 11.583C12.8398 11.5231 12.8644 11.456 12.8644 11.3532C12.8611 9.77125 12.8622 8.18961 12.8622 6.60762V6.43808C12.6332 6.48395 12.4971 6.36762 12.3602 6.23037C11.1815 5.04764 9.99876 3.86894 8.81713 2.68914C8.78007 2.65207 8.74043 2.61685 8.68282 2.56253C8.64392 2.60987 8.61383 2.65464 8.5764 2.69207C7.40614 3.86233 6.23404 5.03113 5.06525 6.20285C4.92067 6.3478 4.78195 6.48799 4.54966 6.44358V8.93896C4.88911 8.93896 5.22048 8.92979 5.55112 8.9419C5.79332 8.95107 6.03845 8.97052 6.27515 9.0197C6.44175 9.05456 6.59624 9.14703 6.76615 9.21823C6.76615 9.16024 6.76615 9.10777 6.76615 9.05529C6.76615 8.4109 6.76615 7.7665 6.76615 7.12174C6.76615 6.80101 6.85605 6.71 7.17385 6.71C8.18925 6.71 9.20501 6.71 10.2204 6.71C10.5393 6.71 10.6336 6.80321 10.6336 7.11844C10.6336 8.41713 10.6336 9.71583 10.6336 11.0145V11.1932C10.8773 11.1932 11.1011 11.1903 11.325 11.194C11.7397 11.201 12.0248 11.4028 12.1877 11.7808C12.2105 11.8336 12.2277 11.8886 12.2523 11.9551V11.9547ZM0.593386 14.4156C0.644028 14.4156 0.686963 14.4156 0.729899 14.4156C1.31558 14.4156 1.90126 14.416 2.48694 14.4156C2.78785 14.4156 2.93354 14.2699 2.93391 13.9679C2.93427 12.2692 2.93427 10.5709 2.93391 8.87217C2.93391 8.56796 2.79262 8.42521 2.48731 8.42447C1.90163 8.42264 1.31595 8.42374 0.730265 8.42447C0.68733 8.42447 0.644395 8.42888 0.593754 8.43181V14.416L0.593386 14.4156ZM7.36614 7.30302C7.3599 7.32247 7.3544 7.33128 7.3544 7.34045C7.3533 8.1309 7.35183 8.92171 7.35476 9.71216C7.35476 9.75803 7.38559 9.81418 7.41898 9.84831C7.79512 10.2314 8.1753 10.6105 8.55328 10.9918C8.69126 11.1312 8.85529 11.1984 9.05236 11.194C9.25235 11.1892 9.45235 11.1929 9.65271 11.1929C9.78225 11.1929 9.91143 11.1929 10.0399 11.1929V7.30339H7.36577L7.36614 7.30302Z" fill="#410EAD"/>
<path d="M6.2773 2.42875C6.43399 2.43132 6.565 2.56673 6.56133 2.72196C6.55803 2.87718 6.41968 3.01039 6.26592 3.00672C6.11253 3.00305 5.97638 2.86214 5.98005 2.71095C5.98372 2.55609 6.1206 2.42618 6.2773 2.42875Z" fill="#410EAD"/>
<path d="M8.69289 3.86267C9.31967 3.85827 9.84333 4.37789 9.8415 5.00247C9.8393 5.62191 9.32921 6.1342 8.705 6.14264C8.08446 6.15108 7.55859 5.62705 7.55859 4.99954C7.55859 4.37753 8.06831 3.86671 8.69326 3.8623L8.69289 3.86267ZM8.14427 5.00504C8.14648 5.31073 8.40262 5.56247 8.7061 5.55696C9.00518 5.55146 9.25288 5.30192 9.25508 5.00431C9.25729 4.69899 9.00591 4.44872 8.69766 4.44872C8.38831 4.44872 8.14207 4.69642 8.14391 5.00504H8.14427Z" fill="#410EAD"/>
<path d="M12.188 9.73696C12.188 10.0247 12.1891 10.3124 12.1876 10.6001C12.1865 10.8147 12.0753 10.9509 11.9017 10.9557C11.7234 10.9604 11.603 10.8199 11.6027 10.599C11.6012 10.0236 11.6012 9.44852 11.6027 8.87311C11.603 8.65293 11.7098 8.52523 11.8885 8.52156C12.0749 8.51789 12.1865 8.64743 12.188 8.87422C12.1894 9.16192 12.1883 9.44962 12.1883 9.73732L12.188 9.73696Z" fill="#410EAD"/>
<path d="M11.8957 7.9808C11.7379 7.98116 11.6044 7.85016 11.604 7.69456C11.6036 7.5386 11.7357 7.40759 11.8943 7.40723C12.0528 7.40686 12.1856 7.53677 12.1864 7.6931C12.1871 7.84832 12.0535 7.98043 11.8961 7.98117L11.8957 7.9808Z" fill="#410EAD"/>
<path d="M2.05019 13.1314C2.04763 13.2852 1.90818 13.4206 1.75589 13.4173C1.60286 13.414 1.46635 13.273 1.46928 13.1219C1.47259 12.9692 1.6135 12.833 1.76506 12.836C1.91882 12.8389 2.0524 12.9776 2.04983 13.1314H2.05019Z" fill="#410EAD"/>
<path d="M8.31248 9.24317C8.30625 9.39913 8.1679 9.52793 8.01194 9.52279C7.85414 9.51766 7.72827 9.38261 7.73304 9.22445C7.73781 9.06886 7.87836 8.93601 8.03065 8.94262C8.18478 8.94922 8.31835 9.09197 8.31248 9.24317Z" fill="#410EAD"/>
</svg>
