<svg width="15" height="15" viewBox="0 0 15 15" fill="none" xmlns="http://www.w3.org/2000/svg">
<path d="M2.02172 15C1.90394 14.9303 1.86911 14.8273 1.87185 14.6923C1.87889 14.3211 1.87459 13.9499 1.87381 13.5788C1.87381 13.531 1.86989 13.4836 1.86676 13.421C1.52749 13.421 1.19683 13.4222 0.866162 13.4202C0.788681 13.4198 0.708461 13.4202 0.633719 13.4026C0.392667 13.3454 0.207574 13.1387 0.175877 12.9049C0.139485 12.6344 0.258837 12.3936 0.493627 12.2664C0.531977 12.2456 0.571891 12.2276 0.618066 12.2049C0.451756 12.033 0.369971 11.8353 0.420842 11.6016C0.505758 11.2104 0.926034 11.0057 1.28957 11.1795C1.48288 11.2719 1.66954 11.3784 1.86989 11.4845C1.89533 11.4426 1.91842 11.4011 1.94463 11.3616C2.27178 10.8659 2.73001 10.6337 3.31894 10.7245C3.87618 10.8103 4.25263 11.1446 4.40955 11.6826C4.56999 12.2335 4.41698 12.7162 3.98536 13.098C3.89966 13.1739 3.87305 13.2428 3.90788 13.3622C4.5242 12.7797 5.2274 12.3654 6.02256 12.1239C6.07343 11.9492 6.00338 11.8752 5.84803 11.802C4.62438 11.2253 3.86874 10.268 3.57956 8.94584C3.56078 8.8597 3.53182 8.81115 3.4469 8.77787C3.3436 8.73716 3.24459 8.67999 3.15224 8.61735C3.04267 8.54335 3.02115 8.42433 3.08454 8.32292C3.14676 8.22308 3.2622 8.1945 3.37999 8.24814C3.52595 8.3147 3.67113 8.38283 3.81905 8.44429C3.92979 8.4901 3.96344 8.57976 3.97988 8.68626C4.1188 9.58833 4.54142 10.3303 5.24031 10.9148C5.53067 11.1576 5.85468 11.3459 6.20804 11.4825C6.46514 11.582 6.46905 11.5973 6.47766 11.8795C6.48275 12.044 6.48705 12.2147 6.53323 12.3701C6.67567 12.8486 7.1566 13.1543 7.62618 13.0854C8.14937 13.0091 8.51917 12.5953 8.52543 12.0733C8.53208 11.5428 8.48121 11.6309 8.95079 11.4125C10.1142 10.8718 10.806 9.95793 11.0201 8.689C11.0439 8.54844 11.1077 8.46779 11.249 8.42237C11.8301 8.23444 12.2062 7.73603 12.2234 7.14952C12.2379 6.65581 11.8947 6.28895 11.402 6.27172C11.0983 6.26115 11.0647 6.22552 11.0647 5.91426C11.0647 5.80306 11.0647 5.69148 11.0647 5.57206H3.93723C3.93723 5.72437 3.93996 5.87001 3.93644 6.01527C3.93253 6.19263 3.86014 6.26467 3.68874 6.27094C2.98945 6.29717 2.63766 6.78266 2.82275 7.46626C2.8838 7.69139 2.85054 7.80493 2.71201 7.84565C2.56292 7.8895 2.46235 7.80454 2.40091 7.58176C2.20016 6.85588 2.48583 6.19381 3.11507 5.93266C3.18668 5.9029 3.26259 5.86571 3.33733 5.86453C3.48877 5.8614 3.51225 5.7827 3.49973 5.65742C3.49151 5.5752 3.49699 5.49141 3.49856 5.40841C3.50247 5.20051 3.57643 5.12651 3.78187 5.12416C3.8304 5.12337 3.87853 5.12416 3.92627 5.12416C3.87148 4.88533 3.81005 4.65668 3.76778 4.42411C3.70909 4.10032 3.73687 4.05099 4.02527 3.9026C4.15049 3.838 4.28119 3.78436 4.40329 3.72837C4.35633 3.47544 4.27689 3.22448 4.27102 2.97194C4.26319 2.65324 4.30976 2.33258 4.3438 2.01388C4.35672 1.89172 4.45807 1.842 4.57077 1.81655C5.02118 1.71436 5.47041 1.71515 5.92003 1.82086C5.95251 1.82869 5.98538 1.83534 6.02765 1.84513C6.04173 1.80598 6.05621 1.77113 6.06678 1.7355C6.27652 1.02214 6.69406 0.465787 7.32095 0.0644732C7.44891 -0.0173557 7.56631 -0.0267523 7.68409 0.0679969C7.88484 0.229697 8.08911 0.388656 8.2789 0.562494C8.40882 0.681126 8.40842 0.811504 8.30825 0.907819C8.21159 1.001 8.08402 0.980643 7.96154 0.864752C7.83788 0.747685 7.71031 0.63336 7.5757 0.529214C7.54322 0.504157 7.46026 0.503765 7.42622 0.52804C6.91711 0.892158 6.59584 1.38235 6.45379 2.00487C6.86037 2.20533 7.20982 2.47353 7.49939 2.84783C7.78584 2.48997 8.12276 2.20847 8.54812 2.01075C8.52269 1.916 8.49764 1.82438 8.47338 1.73237C8.43151 1.57302 8.48043 1.46379 8.61074 1.42424C8.73909 1.38509 8.8424 1.4493 8.89522 1.60474C8.92027 1.67834 8.94023 1.75391 8.96253 1.82908C9.19184 1.8005 9.41685 1.75077 9.64186 1.74999C9.90326 1.74921 10.1654 1.78797 10.4261 1.81733C10.5685 1.83339 10.6393 1.92148 10.673 2.06517C10.8033 2.62309 10.7653 3.16888 10.5775 3.71193C10.7419 3.79258 10.9007 3.87402 11.0627 3.94841C11.2189 4.02006 11.2811 4.1383 11.249 4.30313C11.2075 4.51808 11.1606 4.73185 11.1136 4.94562C11.1015 5.00161 11.08 5.05525 11.0616 5.11241C11.0846 5.11711 11.0987 5.1222 11.1128 5.12259C11.4826 5.13786 11.5037 5.15979 11.5037 5.53526C11.5037 5.71875 11.5891 5.8353 11.7597 5.88489C12.3956 6.06969 12.7704 6.7071 12.6425 7.39109C12.5204 8.04377 12.1561 8.5085 11.5503 8.77944C11.4666 8.81703 11.4396 8.86636 11.4212 8.95015C11.1281 10.277 10.3678 11.2359 9.1351 11.8087C8.98444 11.8788 8.93436 11.9559 8.97975 12.1223C9.76669 12.3631 10.4722 12.7738 11.0811 13.3521C11.1281 13.206 11.1246 13.1974 11.031 13.1152C10.5888 12.7264 10.4268 12.2394 10.5928 11.6771C10.7532 11.1337 11.1355 10.8001 11.701 10.7218C12.2985 10.6388 12.7548 10.8819 13.0729 11.3909C13.0905 11.4191 13.1082 11.4477 13.1305 11.4837C13.2901 11.3991 13.4443 11.3177 13.5985 11.2359C13.9389 11.055 14.2434 11.0894 14.4472 11.3326C14.6578 11.5832 14.6386 11.8932 14.3878 12.2037C14.4218 12.221 14.4539 12.2374 14.4864 12.2538C14.7439 12.3834 14.8789 12.6614 14.8194 12.939C14.7607 13.2131 14.5185 13.4155 14.2308 13.419C13.8697 13.4237 13.5089 13.4202 13.1449 13.4202C13.1297 13.4609 13.1262 13.511 13.1007 13.5283C13.0295 13.5764 12.9458 13.6465 12.8734 13.6398C12.8088 13.6336 12.7211 13.5455 12.7008 13.4766C12.6714 13.3783 12.6785 13.2616 12.6973 13.1579C12.7223 13.0208 12.8323 12.9801 12.963 12.9805C13.3292 12.9821 13.6955 12.9809 14.0614 12.9809C14.1005 12.9809 14.1397 12.9801 14.1784 12.9809C14.297 12.984 14.3803 12.9406 14.3885 12.811C14.3956 12.6974 14.3169 12.6293 14.1737 12.6285C13.8074 12.6262 13.4412 12.6277 13.0753 12.6277C12.7974 12.6277 12.729 12.5404 12.79 12.2648C12.8882 11.8216 12.6476 11.367 12.2296 11.2077C12.1991 11.1959 12.1662 11.1912 12.1244 11.1807C12.0986 11.3416 12.0837 11.4645 12.2582 11.5651C12.4883 11.6979 12.5693 11.9958 12.4887 12.2491C12.4046 12.5126 12.1698 12.6857 11.8955 12.6865C11.62 12.6873 11.3824 12.5154 11.2975 12.2542C11.2153 12.0017 11.2948 11.7006 11.5229 11.5679C11.6971 11.4669 11.6834 11.3424 11.6583 11.1912C11.2768 11.2378 10.9532 11.6677 10.9751 12.0914C10.9911 12.405 11.1246 12.6567 11.3883 12.827C11.5096 12.9057 11.555 13.0009 11.5531 13.1422C11.5468 13.5572 11.5507 13.9726 11.5507 14.3877V14.5517H12.673C12.6785 14.54 12.6851 14.5321 12.6855 14.5235C12.6996 14.3344 12.7763 14.2381 12.9117 14.24C13.053 14.2424 13.1289 14.3465 13.1269 14.5447C13.1254 14.7103 13.1719 14.8939 12.9802 14.9988H2.02172V15ZM3.89144 14.5513H11.1105C11.1105 14.4311 11.1023 14.3187 11.1128 14.2083C11.1253 14.0756 11.0788 13.9793 10.9888 13.8838C10.511 13.3744 9.95491 12.9786 9.30924 12.7111C9.17189 12.6544 9.03101 12.6066 8.89209 12.5549C8.61621 13.1751 8.16463 13.5267 7.50057 13.5275C6.82946 13.5279 6.38492 13.1567 6.11413 12.5561C5.2501 12.8325 4.52694 13.3 3.9384 13.9746C3.91492 14.0016 3.89496 14.0419 3.89379 14.0768C3.88909 14.2318 3.89183 14.3873 3.89183 14.5513H3.89144ZM2.31365 14.5529H3.4516C3.4516 14.4938 3.4516 14.4413 3.4516 14.3892C3.4516 13.9891 3.45903 13.5886 3.44808 13.1888C3.44338 13.0138 3.5013 12.9049 3.64687 12.802C4.21545 12.3999 4.13171 11.5295 3.50404 11.2323C3.45512 11.2092 3.40034 11.1983 3.34673 11.1815C3.30994 11.3569 3.32051 11.4751 3.48799 11.5753C3.71339 11.71 3.78657 12.0142 3.70048 12.2648C3.6093 12.5299 3.36668 12.6951 3.08141 12.6865C2.81766 12.6786 2.58835 12.4993 2.50931 12.2401C2.43065 11.9817 2.532 11.699 2.75897 11.5452C2.9061 11.4453 2.92841 11.3674 2.86149 11.1877C2.39661 11.2836 2.10312 11.7844 2.21738 12.2859C2.27256 12.5279 2.19508 12.627 1.94855 12.6277C1.59245 12.6285 1.23635 12.6277 0.879858 12.6277C0.692417 12.6277 0.614544 12.679 0.611805 12.802C0.609066 12.9265 0.686938 12.9805 0.87164 12.9805C1.25239 12.9805 1.63275 12.9797 2.01351 12.9809C2.23969 12.9817 2.31365 13.0545 2.31404 13.2777C2.31482 13.6974 2.31404 14.1167 2.31404 14.5525L2.31365 14.5529ZM7.49509 4.72872C7.62657 4.63005 7.67314 4.50751 7.64457 4.35481C7.62383 4.2444 7.6117 4.13242 7.58627 4.02358C7.30569 2.8259 6.10943 2.01349 4.903 2.20064C4.81886 2.21356 4.73591 2.21434 4.7183 2.33924C4.66234 2.73859 4.69364 3.1266 4.81926 3.50951C4.84704 3.59369 4.88069 3.61757 4.975 3.60856C5.88364 3.52086 6.65689 3.80237 7.28182 4.47423C7.35695 4.55527 7.42426 4.64376 7.49509 4.72872ZM8.09107 4.12499C8.08011 4.12733 8.09146 4.12812 8.0985 4.12303C8.68391 3.69431 9.3378 3.53065 10.057 3.60386C10.0934 3.60739 10.1647 3.55532 10.1713 3.52008C10.2245 3.23466 10.311 2.94532 10.3012 2.6599C10.284 2.15287 10.3498 2.20416 9.852 2.18615C9.01536 2.15561 8.33877 2.49037 7.82536 3.15165C7.79758 3.18767 7.77292 3.25227 7.78584 3.29025C7.88171 3.56941 7.98737 3.84504 8.09107 4.12499ZM7.78466 5.12377C8.70622 5.12377 9.59803 5.12494 10.4898 5.12024C10.5286 5.12024 10.5896 5.07561 10.6025 5.03881C10.6718 4.83717 10.7262 4.63045 10.7919 4.42724C10.8236 4.32897 10.7798 4.28747 10.6984 4.25066C9.94552 3.912 9.21337 3.94684 8.50704 4.3783C8.21237 4.55801 7.97837 4.80193 7.78505 5.12377H7.78466ZM7.22312 5.12377C7.15229 5.02354 7.1069 4.94797 7.05055 4.8818C6.96837 4.78549 6.88385 4.68996 6.79072 4.60421C6.12743 3.99422 5.11196 3.85209 4.30546 4.24871C4.21545 4.29295 4.18102 4.34072 4.21271 4.44016C4.27376 4.62966 4.32854 4.82151 4.38372 5.01257C4.40955 5.10184 4.46394 5.12612 4.55629 5.12572C5.21057 5.12142 5.86486 5.12338 6.51875 5.12338C6.74219 5.12338 6.96564 5.12338 7.22273 5.12338L7.22312 5.12377ZM1.72197 12.2182C1.73254 12.2014 1.74311 12.1845 1.75367 12.1677C1.72276 12.0753 1.82098 11.9571 1.68519 11.885C1.5001 11.7871 1.31618 11.6877 1.13108 11.5898C1.02582 11.5342 0.926816 11.5409 0.869293 11.654C0.811377 11.768 0.867727 11.8486 0.972209 11.9038C1.09704 11.9696 1.21717 12.0459 1.3467 12.1008C1.46684 12.1517 1.59675 12.1798 1.72237 12.2178L1.72197 12.2182ZM13.2666 12.2006C13.3664 12.1857 13.4689 12.1908 13.5531 12.154C13.7178 12.0827 13.872 11.988 14.0309 11.903C14.135 11.8474 14.1898 11.7656 14.1307 11.6525C14.0716 11.5397 13.973 11.5358 13.8681 11.5914C13.7217 11.6689 13.582 11.7625 13.4286 11.8208C13.2479 11.8893 13.2189 12.008 13.2666 12.201V12.2006ZM3.10841 11.876C3.00158 11.8893 2.92723 11.9418 2.92684 12.0596C2.92645 12.1748 2.99063 12.2425 3.10567 12.2448C3.2215 12.2472 3.28725 12.1787 3.29038 12.0651C3.29351 11.9488 3.22307 11.8905 3.10841 11.876ZM11.9013 12.2491C12.0007 12.2331 12.0747 12.1814 12.0743 12.0632C12.0739 11.9461 12.0042 11.8803 11.8927 11.8795C11.7804 11.8788 11.7096 11.9457 11.7104 12.062C11.7108 12.1763 11.7781 12.2374 11.9013 12.2495V12.2491Z" fill="#410EAD"/>
<path d="M0 2.8951C0.0665241 2.78508 0.16044 2.74397 0.291532 2.74514C0.871074 2.75062 1.45062 2.7471 2.03016 2.74788C2.21564 2.74788 2.31465 2.82423 2.31543 2.96479C2.31621 3.10613 2.21603 3.18678 2.03329 3.18717C1.45844 3.18796 0.883987 3.18443 0.309141 3.18991C0.175311 3.19109 0.0727851 3.15546 0 3.04231V2.89588V2.8951Z" fill="#410EAD"/>
<path d="M13.8517 2.74749C14.1488 2.74749 14.4458 2.74632 14.7432 2.74788C14.9013 2.74867 14.9999 2.83402 15.0003 2.9644C15.001 3.09478 14.9024 3.18561 14.7459 3.186C14.1421 3.18796 13.5379 3.18796 12.9341 3.186C12.7776 3.18561 12.6825 3.0936 12.6856 2.96009C12.6888 2.82815 12.7838 2.74867 12.9455 2.74788C13.2476 2.74632 13.5493 2.74749 13.8514 2.74749H13.8517Z" fill="#410EAD"/>
<path d="M1.26855 0.152344C1.35112 0.203242 1.41686 0.228691 1.46265 0.274108C1.88958 0.696564 2.31416 1.12137 2.73756 1.54774C2.85065 1.66128 2.8573 1.79049 2.76339 1.88406C2.66673 1.98038 2.54503 1.97372 2.42842 1.85783C2.00267 1.4342 1.57887 1.00861 1.1539 0.583805C1.07994 0.509807 1.02398 0.421714 1.08385 0.323832C1.12455 0.256881 1.20164 0.212247 1.26855 0.152344Z" fill="#410EAD"/>
<path d="M12.4289 1.951C12.2239 1.94709 12.1202 1.76425 12.2039 1.62095C12.2254 1.58375 12.2587 1.55243 12.2896 1.5215C12.6966 1.11353 13.1039 0.705953 13.5117 0.298375C13.5289 0.281148 13.5453 0.262746 13.5641 0.247085C13.6635 0.16369 13.7837 0.162515 13.869 0.243169C13.9609 0.33048 13.9676 0.455376 13.8713 0.55639C13.696 0.740015 13.514 0.917377 13.3344 1.09709C13.0859 1.34571 12.8386 1.59589 12.587 1.84138C12.5338 1.89306 12.4634 1.92712 12.4289 1.95061V1.951Z" fill="#410EAD"/>
<path d="M12.3819 3.95215C12.4606 4.00266 12.5251 4.02967 12.5709 4.07509C12.9978 4.49754 13.4228 4.92196 13.8462 5.34833C13.9628 5.46579 13.9687 5.58677 13.8732 5.68387C13.7821 5.77666 13.6482 5.77039 13.5367 5.6592C13.1109 5.23557 12.6871 4.80959 12.2622 4.38557C12.182 4.3053 12.1381 4.20977 12.1988 4.10993C12.2371 4.0469 12.315 4.00775 12.3823 3.95215H12.3819Z" fill="#410EAD"/>
<path d="M1.32957 5.74612C1.1163 5.74847 1.00986 5.57385 1.09243 5.42703C1.11356 5.38944 1.14604 5.35773 1.17695 5.3268C1.58745 4.9153 1.99716 4.50342 2.41078 4.09506C2.46009 4.04612 2.53326 3.98856 2.59274 3.99131C2.66357 3.99444 2.76923 4.04299 2.79153 4.09937C2.81971 4.17023 2.80601 4.28691 2.76218 4.35073C2.68314 4.46544 2.56887 4.55628 2.46869 4.65612C2.14077 4.98421 1.81402 5.31349 1.48336 5.63884C1.43092 5.69053 1.36048 5.72459 1.32957 5.74573V5.74612Z" fill="#410EAD"/>
<path d="M5.78728 8.37705C5.45036 8.36883 5.151 8.25921 4.90212 8.02429C4.7902 7.91858 4.7769 7.80112 4.86103 7.70207C4.9479 7.59949 5.07273 7.5987 5.19639 7.70011C5.5834 8.01763 5.9845 8.01724 6.37347 7.69893C6.49283 7.60105 6.60983 7.59909 6.69866 7.69306C6.79258 7.79212 6.78162 7.91584 6.66422 8.02664C6.41887 8.25764 6.12381 8.36609 5.78728 8.37705Z" fill="#410EAD"/>
<path d="M9.21599 8.37739C8.8822 8.368 8.58754 8.25876 8.34101 8.03011C8.22165 7.9197 8.20796 7.79754 8.29913 7.69692C8.38914 7.59747 8.50849 7.60061 8.63489 7.70553C9.00938 8.01601 9.42535 8.01523 9.80101 7.70358C9.92663 7.59943 10.0475 7.59747 10.1368 7.6981C10.2256 7.79872 10.2107 7.9197 10.0922 8.03089C9.84601 8.26111 9.55018 8.3676 9.21599 8.377V8.37739Z" fill="#410EAD"/>
<path d="M7.54192 10.4755C7.22926 10.4693 6.94751 10.3663 6.71155 10.1474C6.59885 10.0429 6.58359 9.90704 6.67085 9.81268C6.75498 9.72185 6.88216 9.72302 6.9976 9.81581C7.36505 10.1126 7.72076 10.1114 8.09642 9.8119C8.21029 9.72106 8.341 9.72302 8.42239 9.81699C8.503 9.90978 8.4897 10.0425 8.38443 10.1416C8.15003 10.362 7.86867 10.4669 7.54232 10.4748L7.54192 10.4755Z" fill="#410EAD"/>
<path d="M3.84266 7.44386C3.84618 7.60086 3.77926 7.69247 3.65169 7.70539C3.51552 7.7191 3.44117 7.63257 3.40125 7.47948C3.36173 7.32914 3.30029 7.18075 3.22359 7.04528C3.15159 6.91804 3.14142 6.80097 3.23729 6.71836C3.3312 6.63771 3.45917 6.65297 3.56091 6.75751C3.72331 6.9243 3.83718 7.20228 3.84266 7.44386Z" fill="#410EAD"/>
<path d="M11.16 7.39163C11.1772 7.18334 11.2594 6.95899 11.4285 6.77106C11.5333 6.65439 11.6637 6.63481 11.7615 6.71742C11.8617 6.8016 11.8499 6.92102 11.7697 7.0557C11.695 7.18099 11.6347 7.32194 11.6014 7.46367C11.5623 7.63007 11.4923 7.71934 11.3518 7.7072C11.2195 7.69545 11.153 7.6011 11.1596 7.39163H11.16Z" fill="#410EAD"/>
</svg>
