<svg width="16" height="15" viewBox="0 0 16 15" fill="none" xmlns="http://www.w3.org/2000/svg">
<path d="M14.3983 7.49055C13.4403 8.21571 12.3545 8.48013 11.2383 8.66292C11.1642 8.67494 11.0905 8.68996 11.0159 8.69597C10.8191 8.713 10.6709 8.60082 10.6533 8.42654C10.6368 8.26278 10.7545 8.13758 10.9428 8.09802C11.4671 7.98784 11.9955 7.89069 12.5128 7.75397C12.9966 7.62577 13.4528 7.41944 13.8619 7.12247C14.2215 6.86156 14.4248 6.54255 14.4063 6.06479C14.3753 5.24198 14.3978 4.41767 14.3978 3.56732C14.3402 3.60588 14.3006 3.62992 14.2641 3.65746C13.5795 4.17278 12.7897 4.44221 11.9634 4.60046C10.3003 4.91947 8.64716 4.88391 7.01857 4.38612C6.73362 4.29898 6.45367 4.1853 6.18675 4.05309C5.92083 3.92138 5.67394 3.75111 5.399 3.58585C5.399 3.68651 5.40351 3.78917 5.398 3.89134C5.38848 4.07863 5.25878 4.20534 5.09001 4.19933C4.92775 4.19382 4.80355 4.07162 4.80205 3.89134C4.79804 3.3665 4.79103 2.84117 4.80606 2.31684C4.81607 1.97179 4.98384 1.68383 5.21621 1.43543C5.67744 0.94115 6.26638 0.6582 6.89387 0.451872C8.25103 0.00566348 9.64424 -0.0794718 11.0575 0.0637558C11.8943 0.14839 12.7081 0.326673 13.4773 0.676229C13.8665 0.853009 14.228 1.07186 14.53 1.38035C14.841 1.69785 15.0023 2.06794 15.0013 2.52316C14.9942 5.03515 14.9917 7.54664 15.0028 10.0586C15.0053 10.5895 14.8009 10.9996 14.4188 11.3402C13.9275 11.7779 13.3426 12.0528 12.7171 12.2116C12.0966 12.3688 11.4591 12.461 10.8261 12.5656C10.6308 12.5977 10.5006 12.474 10.4856 12.3017C10.4706 12.1279 10.5782 12.0037 10.772 11.9727C10.8091 11.9667 10.8467 11.9672 10.8842 11.9632C11.6194 11.888 12.341 11.7508 13.0301 11.4734C13.4323 11.3116 13.8119 11.1113 14.1189 10.7958C14.3046 10.6045 14.4043 10.3837 14.4013 10.1072C14.3928 9.30744 14.3983 8.50767 14.3983 7.7079V7.49206V7.49055ZM9.88463 4.20183C10.8872 4.18881 11.8583 4.08314 12.7932 3.75312C13.267 3.58585 13.7217 3.38053 14.0858 3.02095C14.5005 2.6118 14.4985 2.19114 14.0883 1.77998C14.0357 1.7269 13.9836 1.6668 13.919 1.63275C13.5409 1.43193 13.1769 1.18353 12.7752 1.05032C10.9643 0.448367 9.13093 0.455878 7.29802 0.951666C6.73612 1.10391 6.19877 1.33127 5.75907 1.73241C5.28281 2.1671 5.26779 2.64586 5.76258 3.05651C6.04603 3.29188 6.37805 3.48619 6.71709 3.63293C7.7302 4.07212 8.80892 4.1858 9.88463 4.20133V4.20183Z" fill="#410EAD"/>
<path d="M10.1982 9.91644C10.1947 12.7269 7.90056 15.0045 5.07758 15C2.26812 14.9955 -0.00599766 12.6994 1.18832e-05 9.87287C0.00602143 7.08143 2.29967 4.7963 5.0926 4.79981C7.9236 4.80331 10.2017 7.08644 10.1982 9.91644ZM0.599965 9.89791C0.599464 12.3773 2.61717 14.4011 5.0881 14.4001C7.58256 14.3986 9.59375 12.3929 9.59826 9.90141C9.60277 7.42598 7.58556 5.40277 5.11013 5.39976C2.62068 5.39676 0.600466 7.41146 0.599965 9.89791Z" fill="#410EAD"/>
<path d="M7.79905 9.91643C7.79905 10.3471 7.79505 10.7783 7.80106 11.209C7.80356 11.3848 7.73796 11.5024 7.58522 11.5901C6.83302 12.0208 6.08183 12.4545 5.33364 12.8927C5.16988 12.9888 5.02765 12.9868 4.86289 12.8902C4.12071 12.454 3.37553 12.0228 2.62784 11.5966C2.46909 11.5059 2.39647 11.3908 2.39747 11.206C2.40248 10.3316 2.40198 9.4572 2.39747 8.58281C2.39647 8.41454 2.45907 8.30036 2.6053 8.21673C3.36852 7.78003 4.13073 7.34133 4.89043 6.89813C5.03717 6.81249 5.16587 6.815 5.3106 6.89913C6.07081 7.34133 6.83302 7.78003 7.59623 8.21723C7.74297 8.30136 7.80206 8.41905 7.80006 8.58581C7.79505 9.02902 7.79805 9.47272 7.79805 9.91592L7.79905 9.91643ZM3.27186 8.52822C3.2964 8.55076 3.31193 8.57029 3.33246 8.58231C3.89435 8.90682 4.45524 9.23284 5.02114 9.54934C5.06922 9.57639 5.16437 9.55936 5.21896 9.52881C5.7518 9.22883 6.28064 8.92235 6.80998 8.61636C6.84905 8.59382 6.8846 8.56378 6.93318 8.52872C6.34474 8.18868 5.77334 7.85615 5.19842 7.53064C5.15085 7.50359 5.06221 7.50009 5.01563 7.52663C4.43471 7.85465 3.85779 8.19018 3.27286 8.52822H3.27186ZM4.79929 12.15C4.79929 11.4784 4.80229 10.8474 4.79378 10.2169C4.79328 10.1618 4.72818 10.0882 4.67409 10.0561C4.16879 9.75767 3.65998 9.46621 3.15117 9.17325C3.11011 9.14971 3.06553 9.13218 2.99993 9.10113C2.99993 9.75968 2.99893 10.3952 3.00294 11.0302C3.00294 11.0698 3.03699 11.1253 3.07154 11.1454C3.63494 11.4769 4.20134 11.8034 4.79929 12.15ZM5.39924 12.1254C5.4373 12.1169 5.45683 12.1164 5.47136 12.1084C6.01772 11.7939 6.56509 11.4809 7.10696 11.1589C7.15603 11.1299 7.19409 11.0412 7.1951 10.9796C7.20161 10.3862 7.1991 9.79223 7.1981 9.19879C7.1981 9.17174 7.18909 9.1447 7.18107 9.09863C6.60165 9.43316 6.03926 9.75517 5.48187 10.0852C5.4373 10.1117 5.40425 10.1934 5.40275 10.2505C5.39474 10.5439 5.39924 10.8379 5.39924 11.1314C5.39924 11.4599 5.39924 11.7884 5.39924 12.1254Z" fill="#410EAD"/>
</svg>
