<svg width="15" height="14" viewBox="0 0 15 14" fill="none" xmlns="http://www.w3.org/2000/svg">
<path d="M0.000391283 10.5268C0.000391283 10.5171 0.000391283 10.5073 0.000391283 10.4976H2.66782V8.74851H2.83649C3.85126 8.74851 4.86603 8.74656 5.88119 8.75124C5.98724 8.75163 6.03186 8.71813 6.06708 8.62077C6.37115 7.7768 6.68306 6.93556 6.98635 6.0912C7.0114 6.02149 7.01179 5.92841 6.98714 5.8587C6.83529 5.42366 6.67328 4.99253 6.514 4.56023C6.49795 4.51622 6.47917 4.47337 6.45843 4.42197C4.80224 5.02174 3.1574 5.61723 1.50982 6.21389C1.48869 6.15858 1.4746 6.12275 1.46169 6.08653C1.14 5.20751 0.819484 4.3281 0.49623 3.44987C0.334212 3.00938 0.166323 2.57085 0.001174 2.13153C0.001174 2.1218 0.001174 2.11206 0.001174 2.10232C1.927 1.40674 3.85283 0.71116 5.78726 0.0124628C6.35785 1.57148 6.92139 3.1122 7.48532 4.65253C7.49589 4.65097 7.50685 4.6498 7.51741 4.64824C8.0833 3.10168 8.64919 1.55552 9.21822 0C11.1534 0.701034 13.0738 1.397 15 2.09492C14.4948 3.47557 13.997 4.83635 13.4964 6.20454C11.8375 5.60399 10.1946 5.00928 8.55292 4.41496C8.53727 4.44027 8.52709 4.45156 8.5224 4.46442C8.34512 4.94735 8.16627 5.42951 7.99408 5.914C7.97725 5.9619 7.9886 6.02811 8.00699 6.07835C8.31498 6.9266 8.62767 7.7733 8.9337 8.62233C8.96971 8.72242 9.01745 8.75124 9.12116 8.75085C10.1367 8.74695 11.1519 8.74851 12.1674 8.74851H12.3388V10.5065H14.9843C14.9436 10.5704 14.9159 10.6148 14.8869 10.6584C14.5543 11.1554 14.2232 11.6535 13.8866 12.1477C13.8342 12.2249 13.8365 12.2763 13.8878 12.3518C14.2271 12.8503 14.5613 13.352 14.8967 13.8532C14.9245 13.8945 14.9491 13.9381 14.9851 13.9973C14.2294 13.9973 13.5019 14.0047 12.7748 13.995C12.0751 13.9856 11.5029 13.6974 11.0572 13.1623C10.8361 12.8967 10.6983 12.589 10.6189 12.258H4.37762C4.36628 12.2957 4.35728 12.3234 4.34945 12.3514C4.07081 13.3555 3.22784 13.9961 2.18216 13.9969C1.45464 13.9973 0.727517 13.9965 0 13.9961C0 13.9864 0 13.9767 0 13.9669C0.0144799 13.9556 0.0336559 13.9475 0.0430483 13.933C0.403089 13.3971 0.759607 12.8589 1.12356 12.3253C1.17678 12.2474 1.14274 12.2034 1.10478 12.147C0.777218 11.6594 0.450442 11.171 0.122492 10.6838C0.0853139 10.6288 0.0410916 10.579 0 10.5268H0.000391283ZM11.4419 11.3673V9.6361H3.55149V11.3673H11.4419ZM1.65188 13.1113C2.67213 13.2098 3.21962 12.9127 3.447 12.242H2.65804V11.3828H1.65071C1.82564 11.6442 1.9857 11.8919 2.15516 12.1329C2.21308 12.2155 2.22012 12.2743 2.15868 12.3608C1.98766 12.6011 1.82799 12.8496 1.65267 13.1117L1.65188 13.1113ZM13.3595 13.1378C13.1622 12.8429 12.9959 12.5882 12.8221 12.3382C12.7756 12.2708 12.7756 12.2249 12.8229 12.1587C12.9415 11.9927 13.0519 11.821 13.1646 11.6508C13.2217 11.5647 13.2769 11.4775 13.3376 11.3836H12.3302V12.2478H11.5327C11.7338 12.7082 12.0563 12.9987 12.5282 13.0875C12.7842 13.1354 13.0515 13.1214 13.3599 13.1378H13.3595ZM6.95739 8.73722H8.04221C7.86258 8.24727 7.68922 7.77291 7.51546 7.29854C7.5045 7.29893 7.49354 7.29971 7.48298 7.3001C7.30922 7.77524 7.13546 8.25039 6.95739 8.73722ZM5.03587 3.07559C5.14036 3.35912 5.23781 3.62435 5.33839 3.89658C5.62564 3.79181 5.89136 3.69445 6.16296 3.59552C6.0569 3.30849 5.95906 3.04327 5.86005 2.7757C5.57593 2.8793 5.31217 2.97511 5.03587 3.07598V3.07559ZM1.43194 3.44909C1.71959 3.34432 1.98649 3.24657 2.25691 3.14803C2.15242 2.8645 2.05419 2.59889 1.95439 2.32821C1.67028 2.43181 1.40338 2.52917 1.13061 2.62888C1.23392 2.91007 1.33019 3.17257 1.43155 3.44909H1.43194ZM13.5716 3.43857C13.6733 3.15933 13.7704 2.89293 13.871 2.61758C13.59 2.51554 13.3254 2.41973 13.0476 2.31886C12.9458 2.59616 12.848 2.86294 12.7466 3.13946C13.0245 3.24033 13.2925 3.33731 13.572 3.43857H13.5716ZM4.43554 1.43128C4.53808 1.7113 4.63513 1.97653 4.73571 2.25149C5.01552 2.14984 5.28281 2.05325 5.56028 1.95238C5.45814 1.67352 5.36069 1.40752 5.26012 1.13178C4.98265 1.23265 4.71575 1.32924 4.43554 1.43089V1.43128ZM10.5668 1.41998C10.2799 1.31678 10.0166 1.22175 9.74184 1.12282C9.6397 1.40246 9.54303 1.66807 9.44246 1.94381C9.72618 2.04585 9.99269 2.14166 10.2678 2.24058C10.37 1.96017 10.4654 1.69806 10.5668 1.41959V1.41998ZM11.9189 2.84113C12.0222 2.55838 12.1189 2.29277 12.2191 2.01859C11.9369 1.91694 11.67 1.82035 11.3937 1.72104C11.2916 2.00184 11.1945 2.26784 11.0947 2.54203C11.3742 2.64329 11.6379 2.73948 11.9189 2.84152V2.84113ZM9.66631 3.88606C9.76884 3.60409 9.8659 3.33809 9.9653 3.06391C9.68235 2.96187 9.41506 2.86567 9.13995 2.76675C9.03741 3.04872 8.94075 3.31472 8.84135 3.58774C9.12116 3.689 9.38532 3.78441 9.66631 3.88606ZM3.3836 3.67342C3.48809 3.95773 3.58554 4.22295 3.68533 4.4948C3.97023 4.3912 4.23752 4.29383 4.5099 4.19452C4.40658 3.91411 4.30875 3.64771 4.20817 3.37431C3.92953 3.47518 3.66576 3.57099 3.3836 3.67342ZM2.55668 3.97175C2.2706 4.07651 2.00449 4.17349 1.73211 4.27319C1.83542 4.55438 1.93209 4.81727 2.03306 5.09262C2.31209 4.99136 2.57899 4.89399 2.85684 4.79312C2.7547 4.51388 2.65882 4.25138 2.55668 3.97175ZM12.4449 3.96279C12.3435 4.24009 12.2465 4.5057 12.1451 4.78378C12.4257 4.88543 12.693 4.98201 12.9697 5.0825C13.071 4.80481 13.1685 4.5388 13.2698 4.2619C12.9916 4.16103 12.7243 4.06444 12.4449 3.96318V3.96279ZM2.78171 2.02871C2.88541 2.3103 2.98325 2.57591 3.08422 2.84931C3.36795 2.74611 3.63211 2.65069 3.90801 2.5502C3.80586 2.27174 3.70842 2.00574 3.60745 1.73038C3.32725 1.83165 3.06269 1.92745 2.7821 2.02871H2.78171ZM10.7926 3.36535C10.6909 3.64382 10.5934 3.90982 10.4928 4.18595C10.7738 4.28721 11.0411 4.38341 11.3186 4.4835C11.4211 4.20114 11.5174 3.93592 11.6168 3.66212C11.3327 3.55969 11.0689 3.46466 10.7926 3.36535Z" fill="#410EAD"/>
</svg>
