<svg width="15" height="15" viewBox="0 0 15 15" fill="none" xmlns="http://www.w3.org/2000/svg">
<path d="M15 9.90043H14.0501V10.3788H14.518V10.8705H14.364C13.981 10.8705 13.5979 10.8726 13.2149 10.8689C13.1325 10.8681 13.0795 10.8876 13.0314 10.964C12.4532 11.8861 11.6932 12.6189 10.7558 13.1663C10.7098 13.1931 10.6601 13.261 10.6592 13.311C10.6516 13.7064 10.6548 14.1018 10.6548 14.5135H14.0319V15H0.982966V14.5282H3.87922C3.87922 14.3465 3.87922 14.1811 3.87922 14.0161C3.87922 13.6918 3.88407 13.3671 3.87478 13.0428C3.87316 12.9806 3.83195 12.8973 3.78185 12.8619C3.13374 12.3994 2.58261 11.8426 2.12603 11.1887C2.0929 11.1412 2.02906 11.1018 1.97209 11.0875C1.51955 10.9733 1.22419 10.6003 1.21651 10.128C1.20762 9.5875 1.26904 9.52247 0.759928 9.099C-0.418293 8.11875 -0.183538 6.26351 1.16721 5.52548C1.22984 5.49134 1.29247 5.42307 1.31631 5.35642C2.01492 3.39876 3.32729 2.04503 5.25543 1.29481C5.28331 1.28383 5.31119 1.27286 5.35725 1.25457C5.30473 1.11802 5.25341 0.984313 5.18795 0.813623C5.31968 0.838007 5.42311 0.862391 5.52817 0.87499C5.79606 0.907096 6.06637 0.96765 6.33304 0.954239C6.68134 0.936763 6.95488 0.738844 7.16539 0.459644C7.27691 0.311306 7.38762 0.162562 7.50924 0C7.61874 0.147119 7.71814 0.2792 7.81633 0.412501C8.16422 0.884744 8.62241 1.06072 9.19496 0.936763C9.39496 0.893684 9.59659 0.857921 9.82811 0.81281C9.76629 0.976185 9.71538 1.1103 9.66245 1.24929C11.6859 2.03243 13.0488 3.44916 13.7563 5.51491H14.9996V9.90124L15 9.90043ZM10.65 12.638C11.1878 12.4084 12.3381 11.2981 12.4904 10.8648H10.6669V10.3784H11.1288V9.88905H10.1796V5.5137H13.2468C12.5728 3.69422 11.3583 2.44818 9.56709 1.7325C9.59376 2.19581 9.77841 2.54084 10.1485 2.78062C10.3033 2.8806 10.4621 2.97407 10.637 3.08136C10.4584 3.19028 10.2988 3.28456 10.1421 3.38373C9.62487 3.71129 9.4184 4.29773 9.61598 4.87727C9.65921 5.00447 9.70649 5.13046 9.757 5.27188C9.30688 5.23897 8.88464 5.06462 8.44301 5.23206C7.99451 5.40234 7.79733 5.81891 7.50561 6.15785C7.40217 6.02008 7.306 5.89653 7.21509 5.76973C6.86155 5.27676 6.39284 5.09591 5.80171 5.23124C5.60817 5.27554 5.4114 5.30724 5.18957 5.34951C5.24856 5.1967 5.29543 5.07437 5.34271 4.95245C5.59605 4.29976 5.39847 3.7056 4.80532 3.33943C4.67036 3.25612 4.5346 3.17362 4.40328 3.09315C4.65056 2.91433 4.9035 2.76315 5.11684 2.56807C5.34392 2.3604 5.43766 2.07307 5.44857 1.75973C4.14549 2.01943 2.14987 3.99008 1.87714 5.28814C1.9135 5.2853 1.94704 5.28286 1.98098 5.27961C3.25334 5.16378 4.36409 6.17045 4.36126 7.449C4.35964 8.21751 4.03519 8.82752 3.41012 9.26928C3.23274 9.39486 3.14344 9.55052 3.15233 9.76794C3.15758 9.89434 3.15516 10.0215 3.15273 10.1483C3.14789 10.4198 3.04808 10.6523 2.85212 10.8388C2.7802 10.9071 2.69575 10.962 2.60888 11.029C2.96445 11.52 3.37779 11.9459 3.88448 12.3287V11.6447C4.53298 11.5139 5.16856 11.3858 5.81989 11.2546V10.1361H6.30233V9.66553H6.78882V10.13H7.2753V9.1754H7.75612V10.1329H8.23695V9.66431H8.72343V10.1426H9.20344V11.8374C9.6879 11.9357 10.1647 12.0324 10.6504 12.1312V12.638H10.65ZM2.66949 9.64846C2.70423 9.28839 2.88404 9.04088 3.16768 8.84337C3.59881 8.54345 3.83155 8.11387 3.87357 7.59002C3.93822 6.78778 3.4182 6.04202 2.65494 5.82378C1.87229 5.60026 1.04479 5.96277 0.673864 6.69227C0.306983 7.41323 0.493252 8.30367 1.14338 8.79542C1.43874 9.01894 1.67228 9.25953 1.69854 9.64358H1.943C1.943 9.16321 1.94502 8.6926 1.93896 8.22198C1.93855 8.18256 1.88926 8.13054 1.84966 8.10737C1.61369 7.9696 1.47632 7.76884 1.46137 7.49492C1.44116 7.13037 1.69531 6.81541 2.05694 6.74348C2.38827 6.67764 2.73171 6.8719 2.85939 7.19703C2.99071 7.5319 2.86303 7.91352 2.54463 8.08665C2.44726 8.13948 2.42342 8.19678 2.42544 8.29716C2.43069 8.5658 2.42746 8.83443 2.42746 9.10347C2.42746 9.28432 2.42746 9.46517 2.42746 9.64887H2.66989L2.66949 9.64846ZM5.92131 4.70576C6.56699 4.65009 7.09186 4.86467 7.51046 5.34626C7.71006 5.10241 7.92865 4.90002 8.2127 4.8098C8.48544 4.72283 8.77232 4.68097 9.05919 4.61757C9.01475 4.0104 9.23738 3.48695 9.71982 3.07527C9.22284 2.6396 9.02606 2.10111 9.09475 1.45452C8.45029 1.51183 7.92663 1.2944 7.50722 0.814435C7.08256 1.30903 6.55123 1.50654 5.92172 1.45899C5.99243 2.11859 5.78353 2.6522 5.29503 3.08096C5.78595 3.51175 5.99243 4.04657 5.92172 4.70617L5.92131 4.70576ZM6.3084 10.6324V11.1518C6.46961 11.1221 6.62033 11.0944 6.7876 11.064V14.5103H7.75814V11.5504C8.0834 11.6142 8.39331 11.6752 8.70928 11.7374V10.6324H6.30799H6.3084ZM4.36328 14.5107H6.2886V11.6573C5.66514 11.7825 5.0534 11.9036 4.44328 12.0312C4.41136 12.0377 4.36692 12.0954 4.36692 12.1296C4.36247 12.9196 4.36368 13.7097 4.36368 14.5107H4.36328ZM10.1707 14.5152C10.1707 13.8743 10.1724 13.2464 10.1663 12.6189C10.1663 12.5823 10.1049 12.523 10.0633 12.514C9.70932 12.4364 9.35375 12.3677 8.99818 12.2962C8.74848 12.2458 8.49877 12.1946 8.24301 12.1426V14.5152H10.1703H10.1707ZM11.6124 7.4555V6.01398H10.6629V7.4555H11.6124ZM12.1155 6.0091V7.45265H13.0638V6.0091H12.1155ZM14.5168 7.45509V6.01357H13.5664V7.45509H14.5168ZM11.6165 7.96025H10.6669V9.40177H11.6165V7.96025ZM13.0642 9.4034V7.96188H12.1155V9.4034H13.0642ZM13.5656 9.39893H14.5151V7.95741H13.5656V9.39893ZM13.5527 9.90409H11.6322V10.3735H13.5527V9.90409ZM2.66423 10.1479H1.71026C1.68683 10.3788 1.91795 10.6279 2.1822 10.6271C2.44039 10.6259 2.63716 10.4381 2.66423 10.1479ZM2.42625 7.46566C2.42827 7.33439 2.31998 7.22182 2.18907 7.22019C2.05815 7.21816 1.94704 7.32708 1.94502 7.45875C1.943 7.59043 2.05128 7.70259 2.1822 7.70463C2.31271 7.70666 2.42423 7.59733 2.42625 7.46566Z" fill="#410EAD"/>
<path d="M0.485371 14.5332V15.0002H0.0146484V14.5332H0.485371Z" fill="#410EAD"/>
<path d="M14.5361 14.5244H14.9988V14.9979H14.5361V14.5244Z" fill="#410EAD"/>
<path d="M9.19575 6.74219V7.21118H5.82715V6.74219H9.19575Z" fill="#410EAD"/>
<path d="M6.29348 7.71875V8.18408H5.82275V7.71875H6.29348Z" fill="#410EAD"/>
<path d="M7.26069 7.71289V8.18188H6.79199V7.71289H7.26069Z" fill="#410EAD"/>
<path d="M8.22702 8.18627H7.76074V7.71484H8.22702V8.18627Z" fill="#410EAD"/>
<path d="M9.19989 7.71484V8.17936H8.72998V7.71484H9.19989Z" fill="#410EAD"/>
<path d="M7.50696 4.54054C6.70936 4.53973 6.05681 3.88095 6.05762 3.07789C6.05883 2.27524 6.71299 1.61931 7.5114 1.62012C8.30981 1.62134 8.96155 2.27849 8.96034 3.08236C8.95953 3.88542 8.30537 4.54136 7.50656 4.54014L7.50696 4.54054ZM8.47669 3.07545C8.47467 2.539 8.03546 2.10333 7.50049 2.1074C6.97361 2.11105 6.54289 2.54713 6.54167 3.07789C6.54046 3.61475 6.97684 4.05448 7.51019 4.05408C8.04354 4.05367 8.47871 3.61313 8.47669 3.07586V3.07545Z" fill="#410EAD"/>
<path d="M4.85986 12.5771H5.80333V13.0506H4.85986V12.5771Z" fill="#410EAD"/>
<path d="M5.80801 13.5586V14.0268H4.85889V13.5586H5.80801Z" fill="#410EAD"/>
<path d="M9.67974 13.5479V14.0347H8.729V13.5479H9.67974Z" fill="#410EAD"/>
</svg>
