<svg width="15" height="11" viewBox="0 0 15 11" fill="none" xmlns="http://www.w3.org/2000/svg">
<path d="M6.23049 2.74365C4.27934 2.74365 2.3286 2.74365 0.377443 2.74326C0.315123 2.74326 0.250712 2.746 0.190902 2.73271C0.0081246 2.69166 -0.0571231 2.50322 0.0608246 2.36444C0.0896842 2.33003 0.125236 2.30071 0.158696 2.26983C0.88855 1.58685 1.62175 0.906211 2.34742 0.21932C2.50928 0.0660698 2.68746 0 2.9175 0C6.8194 0.00351851 10.7217 0.00234567 14.6236 0.00312756C14.6909 0.00312756 14.7612 0.00195473 14.8248 0.0187654C14.985 0.0605965 15.0494 0.229094 14.9578 0.358888C14.9293 0.399155 14.8904 0.432777 14.8536 0.46718C14.1125 1.16033 13.3688 1.85152 12.6306 2.54779C12.4842 2.68619 12.3211 2.74561 12.1149 2.74522C10.1533 2.74209 8.19211 2.74326 6.23049 2.74326V2.74365Z" fill="#410EAD"/>
<path d="M8.75261 8.25743C10.7088 8.25743 12.6654 8.25743 14.6215 8.25743C14.6839 8.25743 14.7483 8.2543 14.8081 8.2672C14.9846 8.30512 15.0557 8.48574 14.9503 8.62296C14.9202 8.66205 14.8809 8.69567 14.8441 8.73008C14.1063 9.41971 13.3664 10.1074 12.6319 10.8005C12.4855 10.9385 12.3237 10.9999 12.117 10.9999C8.19926 10.9976 4.28147 10.9983 0.36368 10.9983C0.332311 10.9983 0.300942 10.9987 0.269573 10.9983C0.156226 10.9956 0.0441341 10.9585 0.0269856 10.8529C0.0131832 10.7696 0.0403698 10.6567 0.0959976 10.5922C0.222729 10.4448 0.378319 10.3189 0.522199 10.1844C1.13829 9.60853 1.75647 9.03462 2.36879 8.45524C2.51434 8.31724 2.67621 8.25547 2.88366 8.25586C4.83984 8.25938 6.79643 8.25782 8.75261 8.25782V8.25743Z" fill="#410EAD"/>
<path d="M8.75319 6.84347C6.79702 6.84347 4.84043 6.8419 2.88425 6.84542C2.67722 6.84542 2.51493 6.78561 2.36896 6.6476C1.63827 5.95797 0.902981 5.27304 0.168108 4.58732C0.0668904 4.49271 -0.0468748 4.40318 0.0200459 4.24915C0.0869666 4.09551 0.23461 4.10216 0.378072 4.10255C3.20045 4.10255 6.02283 4.10255 8.84521 4.10255C9.93016 4.10255 11.0155 4.10489 12.1005 4.10059C12.3184 4.09981 12.4882 4.16393 12.643 4.31014C13.3724 5.00055 14.1089 5.6847 14.8434 6.37081C14.8764 6.4017 14.9124 6.43102 14.9413 6.46542C15.0659 6.61437 14.9797 6.81375 14.7786 6.84034C14.7275 6.84698 14.6744 6.84307 14.6221 6.84307C12.666 6.84307 10.7094 6.84307 8.75319 6.84307V6.84347Z" fill="#410EAD"/>
</svg>
