<svg width="11" height="15" viewBox="0 0 11 15" fill="none" xmlns="http://www.w3.org/2000/svg">
<path d="M5.69172 0.000456691C5.78422 0.0237429 5.87801 0.0424633 5.96923 0.0707721C6.41597 0.208207 6.73995 0.500883 6.92282 0.961129C6.9565 1.04514 6.99572 1.07847 7.08311 1.07665C7.35209 1.07071 7.62065 1.07299 7.88963 1.07528C7.9621 1.07573 8.0367 1.07893 8.10618 1.09765C8.26774 1.14103 8.33296 1.23417 8.3351 1.41224C8.33723 1.59123 8.33552 1.77021 8.33552 1.96381C8.73708 1.96381 9.12372 1.95787 9.5095 1.96655C9.66765 1.9702 9.82964 1.98527 9.9814 2.0291C10.5684 2.19804 10.9977 2.79526 10.9981 3.44774C11.0006 6.84022 11.0006 10.2332 10.9981 13.6257C10.9977 14.2968 10.5228 14.8607 9.87866 14.9694C9.76655 14.9881 9.65231 14.9982 9.53892 14.9982C6.84567 14.9995 4.15199 14.9991 1.45874 15C1.14585 15 0.853419 14.9283 0.589977 14.7439C0.203339 14.4731 -0.000849905 14.0955 2.65893e-06 13.5937C0.00213407 12.0901 0.00085508 10.5866 0.00085508 9.08301C0.00085508 7.23289 0.00085508 5.38278 0.00085508 3.53266C0.00085508 2.62085 0.611291 1.967 1.46556 1.96426C1.81639 1.96289 2.16722 1.96426 2.51848 1.96381C2.56281 1.96381 2.60714 1.9597 2.66469 1.95742C2.66469 1.78345 2.66469 1.61862 2.66469 1.45425C2.66554 1.19764 2.7572 1.08715 3.00018 1.07939C3.29602 1.07025 3.59271 1.07299 3.88855 1.07619C3.96784 1.0771 4.00748 1.05108 4.04158 0.970717C4.26368 0.450658 4.63966 0.136065 5.16441 0.0260258C5.18572 0.0214599 5.20576 0.00867527 5.22622 0C5.38139 0 5.53613 0 5.69129 0L5.69172 0.000456691ZM8.35172 2.69116C8.34533 2.70897 8.33893 2.7181 8.33893 2.72677C8.33765 2.96603 8.33638 3.20483 8.33595 3.44408C8.3351 3.79246 8.20849 3.92807 7.87897 3.92807C6.28852 3.92807 4.69806 3.92807 3.1076 3.92807C2.78362 3.92807 2.66469 3.79931 2.66427 3.45047C2.66427 3.19844 2.66427 2.94594 2.66427 2.6907C2.61993 2.68522 2.5935 2.67929 2.56665 2.67929C2.15656 2.68112 1.74563 2.6665 1.33682 2.69116C0.940807 2.7149 0.663724 3.06739 0.663724 3.50344C0.663297 6.85666 0.663297 10.2099 0.663724 13.5636C0.663724 13.9023 0.81207 14.1316 1.11473 14.2306C1.23452 14.2699 1.36538 14.2845 1.49114 14.2845C4.16179 14.2873 6.83203 14.2868 9.50268 14.2863C9.57089 14.2863 9.63952 14.2841 9.70687 14.2749C10.1259 14.2183 10.3365 13.9622 10.3365 13.512C10.3365 10.1976 10.3365 6.8836 10.3365 3.56919C10.3365 3.52992 10.3373 3.49111 10.3365 3.45184C10.3224 3.06511 10.0517 2.71764 9.69664 2.6971C9.25203 2.67153 8.80571 2.69116 8.35215 2.69116H8.35172ZM3.34035 3.20711H7.65603V1.78756C7.37468 1.78756 7.10229 1.78756 6.82947 1.78756C6.54684 1.78756 6.4488 1.70766 6.37207 1.41544C6.24887 0.946518 5.84817 0.635578 5.41251 0.669822C5.01692 0.701327 4.68612 1.0077 4.5706 1.45014C4.50666 1.69396 4.39327 1.78619 4.15668 1.78711C4.07014 1.78711 3.98361 1.78711 3.89707 1.78711C3.71207 1.78711 3.52706 1.78711 3.34078 1.78711V3.20665L3.34035 3.20711Z" fill="#410EAD"/>
<path d="M7.08174 5.89244C7.70539 5.89244 8.32947 5.89198 8.95312 5.89244C9.14495 5.89244 9.2771 5.98924 9.32058 6.15407C9.37301 6.35223 9.25536 6.55815 9.06481 6.59559C9.00726 6.60701 8.94715 6.60746 8.8879 6.60746C7.68579 6.60792 6.48367 6.60792 5.28198 6.60746C5.23637 6.60746 5.19076 6.60838 5.14557 6.6029C4.95715 6.58144 4.83481 6.43807 4.83694 6.24402C4.83907 6.05316 4.96909 5.90614 5.1558 5.89381C5.27388 5.88605 5.39239 5.89153 5.51089 5.89153C6.03437 5.89153 6.55827 5.89153 7.08174 5.89153V5.89244Z" fill="#410EAD"/>
<path d="M7.07233 12.3237C6.45763 12.3237 5.84293 12.3251 5.22823 12.3228C4.99761 12.3219 4.85609 12.2013 4.83946 12.0023C4.82369 11.8119 4.9277 11.6566 5.10205 11.6155C5.13743 11.6073 5.17409 11.605 5.21033 11.605C6.45806 11.6046 7.70536 11.6041 8.95308 11.605C9.17347 11.605 9.31926 11.7383 9.33035 11.9392C9.34015 12.1228 9.234 12.2739 9.0652 12.3086C9.00765 12.3205 8.94754 12.3223 8.88872 12.3223C8.28297 12.3232 7.67765 12.3228 7.0719 12.3228L7.07233 12.3237Z" fill="#410EAD"/>
<path d="M7.07109 9.46327C6.44744 9.46327 5.82337 9.46419 5.19971 9.46282C4.97762 9.46236 4.83439 9.31625 4.83695 9.1012C4.83908 8.91901 4.95929 8.77701 5.12895 8.75647C5.15623 8.75327 5.18352 8.75236 5.2108 8.75236C6.45853 8.75236 7.70583 8.75145 8.95355 8.75236C9.16797 8.75236 9.30481 8.86651 9.32826 9.05462C9.35682 9.28475 9.20506 9.46145 8.96975 9.46236C8.46418 9.46464 7.95904 9.46327 7.45347 9.46327C7.32601 9.46327 7.19855 9.46327 7.07109 9.46327Z" fill="#410EAD"/>
<path d="M2.71165 9.02521C3.02667 8.70332 3.35704 8.36178 3.69253 8.02619C3.75349 7.96546 3.83022 7.9093 3.90908 7.88556C4.05444 7.84172 4.20364 7.92711 4.27696 8.06911C4.35156 8.2143 4.3311 8.36315 4.20492 8.49283C3.83064 8.87773 3.45338 9.25899 3.07698 9.64116C3.01772 9.70143 2.96017 9.7649 2.89708 9.8206C2.75343 9.94662 2.58462 9.94479 2.45375 9.80599C2.221 9.55897 1.99166 9.3083 1.76744 9.05261C1.63273 8.89874 1.63913 8.67135 1.76872 8.53803C1.90172 8.40105 2.09312 8.41521 2.24573 8.56816C2.39492 8.71793 2.54711 8.86449 2.71208 9.02567L2.71165 9.02521Z" fill="#410EAD"/>
<path d="M2.70361 6.17613C2.99434 5.8798 3.297 5.5716 3.59966 5.26295C3.64911 5.21272 3.69685 5.15976 3.74843 5.11227C3.90019 4.97347 4.09116 4.98397 4.22544 5.13556C4.35546 5.28258 4.35503 5.48074 4.20967 5.6305C3.77998 6.07294 3.3473 6.51219 2.91207 6.94823C2.75988 7.10073 2.58809 7.09206 2.44017 6.93316C2.22192 6.69848 2.00537 6.4615 1.79137 6.22179C1.6362 6.04737 1.63152 5.81634 1.77389 5.67525C1.90945 5.54056 2.11023 5.56795 2.27051 5.73643C2.40948 5.88254 2.55314 6.02317 2.70361 6.17522V6.17613Z" fill="#410EAD"/>
<path d="M2.70443 11.889C3.03778 11.5488 3.37667 11.2023 3.71685 10.8571C3.85539 10.7165 3.99649 10.6914 4.13801 10.7767C4.33922 10.8986 4.38526 11.1598 4.21986 11.332C3.7859 11.7835 3.34556 12.2282 2.90307 12.6707C2.75729 12.8163 2.58422 12.8031 2.44141 12.6492C2.22315 12.4145 2.0066 12.1776 1.79261 11.9383C1.63702 11.7643 1.63105 11.5333 1.77215 11.3913C1.90685 11.2557 2.10806 11.2813 2.26877 11.4493C2.40816 11.595 2.55224 11.7356 2.70443 11.889Z" fill="#410EAD"/>
</svg>
