<svg width="15" height="13" viewBox="0 0 15 13" fill="none" xmlns="http://www.w3.org/2000/svg">
<path d="M2.66883 12.9787C1.97743 12.9787 1.28603 12.9942 0.595475 12.9733C0.115233 12.9586 -0.14042 12.5307 0.0799704 12.1117C0.378442 11.5445 0.707139 10.9925 1.02996 10.4376C2.92658 7.17413 4.82488 3.91148 6.72443 0.649656C6.81217 0.499362 6.90494 0.348658 7.01619 0.214745C7.25589 -0.0735568 7.68995 -0.069871 7.93217 0.215565C7.9985 0.293783 8.05811 0.379373 8.11017 0.46742C8.70879 1.4859 9.30699 2.50437 9.90142 3.5249C10.2624 4.14491 10.2616 4.77066 9.9031 5.39108C8.81668 7.27201 7.72774 9.15171 6.6388 11.031C6.43268 11.3865 6.22698 11.7423 6.00953 12.0912C5.66488 12.6449 5.16365 12.9647 4.49156 12.9811C3.88454 12.9959 3.27668 12.9844 2.66883 12.9844C2.66883 12.9828 2.66883 12.9807 2.66883 12.9791V12.9787Z" fill="#410EAD"/>
<path d="M11.9539 12.9818C11.1424 12.9818 10.331 12.9744 9.51949 12.9847C9.07787 12.9904 8.71056 12.5297 8.99098 12.0551C9.33059 11.4805 9.66684 10.9039 10.0081 10.3306C10.4443 9.59835 10.8817 8.86654 11.3233 8.13759C11.4325 7.95741 11.5492 7.77845 11.783 7.72521C12.0236 7.67033 12.2334 7.71947 12.3913 7.90785C12.4899 8.0258 12.5764 8.15561 12.6553 8.28707C13.3572 9.45297 14.0566 10.6201 14.7551 11.7881C14.8261 11.9068 14.8937 12.0289 14.9482 12.1554C15.112 12.5375 14.8723 12.9327 14.4504 12.9732C14.2526 12.992 14.0532 12.9974 13.8547 12.9986C13.2212 13.0015 12.5873 12.9998 11.9539 12.9998V12.9818Z" fill="#410EAD"/>
</svg>
