<svg width="15" height="15" viewBox="0 0 15 15" fill="none" xmlns="http://www.w3.org/2000/svg">
<path d="M4.11701 2.6679H4.59537V4.1117C4.76451 4.1117 4.92356 4.11614 5.0822 4.10766C5.11248 4.10605 5.14719 4.05597 5.16738 4.02083C5.30907 3.77367 5.51858 3.63272 5.80438 3.63151C6.09624 3.6303 6.30898 3.77206 6.45511 4.02487C6.47852 4.06566 6.54149 4.10807 6.5867 4.10847C7.04488 4.11453 7.50305 4.1121 7.97333 4.1121V0.494332H4.60506C4.60183 0.567431 4.59819 0.640125 4.59497 0.718878H4.12105C4.12105 0.544007 4.10652 0.368328 4.12549 0.196284C4.14123 0.0585677 4.25063 -0.000799593 4.38949 8.12591e-06C4.63614 0.0012197 4.88319 8.12591e-06 5.12984 8.12591e-06C6.13216 8.12591e-06 7.13449 8.12591e-06 8.13682 8.12591e-06C8.39356 8.12591e-06 8.46824 0.0755298 8.46905 0.332788C8.46905 0.457985 8.46905 0.582777 8.46905 0.72534C8.81581 0.72534 9.15247 0.739475 9.48712 0.720493C9.7152 0.70757 9.86173 0.788342 9.99454 0.968059C10.2432 1.30367 10.5185 1.61948 10.77 1.95348C10.8342 2.03869 10.8806 2.15985 10.8822 2.26526C10.8923 2.93526 10.8875 3.60526 10.8871 4.27526C10.8871 4.51354 10.8071 4.59391 10.5722 4.59552C10.5217 4.59552 10.4709 4.59997 10.4212 4.59472C10.2388 4.57614 10.1165 4.61774 9.99575 4.79382C9.70349 5.21989 9.0673 5.16335 8.81096 4.70739C8.76091 4.61814 8.71045 4.5927 8.61437 4.5935C7.95476 4.59754 7.29475 4.59714 6.63474 4.59391C6.5423 4.59351 6.48498 4.60966 6.43533 4.70335C6.30453 4.94971 6.08615 5.07733 5.80721 5.07692C5.52827 5.07652 5.3127 4.94527 5.17989 4.70053C5.13387 4.61572 5.08543 4.59027 4.9942 4.5931C4.78792 4.59956 4.58124 4.59795 4.37456 4.59391C4.21914 4.59068 4.11943 4.50304 4.11822 4.35523C4.11378 3.79669 4.11661 3.23815 4.11661 2.6671L4.11701 2.6679ZM8.47551 4.10039C8.65272 4.13795 8.75404 4.09837 8.85415 3.94087C9.12825 3.51157 9.77252 3.52207 10.0313 3.95985C10.1338 4.13311 10.2472 4.12301 10.3958 4.10039V2.41913C10.3397 2.41913 10.2908 2.41913 10.242 2.41913C9.83912 2.41913 9.43626 2.41953 9.03339 2.41913C8.78795 2.41913 8.71085 2.34037 8.71045 2.0924C8.71004 1.80203 8.71045 1.51125 8.71045 1.22047H8.4751V4.10039H8.47551ZM9.20495 1.21845V1.92561H10.1342C9.99494 1.75195 9.85325 1.60575 9.74951 1.43694C9.62639 1.23663 9.46411 1.17403 9.24572 1.21118C9.23603 1.2128 9.22634 1.21482 9.20455 1.21886L9.20495 1.21845ZM6.04941 4.35927C6.05264 4.23003 5.94728 4.11816 5.8173 4.11332C5.68852 4.10847 5.57469 4.21226 5.56783 4.3419C5.56056 4.47719 5.67157 4.59472 5.80721 4.59552C5.93679 4.59593 6.04618 4.48931 6.04941 4.35967V4.35927ZM9.4407 4.11332C9.31152 4.11049 9.1997 4.2163 9.19526 4.34594C9.19042 4.47558 9.29416 4.58866 9.42374 4.59552C9.55857 4.60239 9.67604 4.49133 9.67685 4.35563C9.67765 4.22599 9.57068 4.11655 9.4407 4.11372V4.11332Z" fill="#410EAD"/>
<path d="M12.3575 11.6108C11.8598 10.9671 11.8569 10.3742 12.3365 9.94772C12.7672 9.56487 13.4216 9.58102 13.8293 9.98448C14.2737 10.4247 14.2556 11.0349 13.7611 11.6108C13.8664 11.6108 13.9536 11.6092 14.0408 11.6108C14.57 11.6217 14.9907 12.0341 14.9959 12.5635C15.0028 13.2784 14.9987 13.9936 14.9975 14.7084C14.9975 14.9063 14.9083 14.996 14.7121 14.9964C13.6149 14.9976 12.5173 14.9976 11.4201 14.9964C11.2159 14.9964 11.1299 14.9071 11.1295 14.6987C11.1283 13.9988 11.1267 13.2989 11.1295 12.5991C11.1319 12.0268 11.5501 11.6149 12.1258 11.6108C12.196 11.6104 12.2663 11.6108 12.3575 11.6108ZM14.5123 14.5065C14.5123 13.8413 14.5196 13.1871 14.5087 12.5332C14.5046 12.2764 14.2798 12.0959 14.0041 12.095C13.3796 12.093 12.7551 12.0934 12.1306 12.095C11.8109 12.0959 11.6143 12.2941 11.6127 12.6152C11.6111 13.0385 11.6123 13.4613 11.6123 13.8845C11.6123 14.0897 11.6123 14.2949 11.6123 14.5065H14.5119H14.5123ZM13.667 10.7579C13.6638 10.4263 13.3905 10.1581 13.0571 10.1598C12.726 10.1614 12.4556 10.4376 12.4596 10.7696C12.4637 11.1024 12.7373 11.3709 13.0696 11.3677C13.4018 11.3645 13.6702 11.0902 13.667 10.7579Z" fill="#410EAD"/>
<path d="M9.92228 7.75073C9.91299 7.93731 9.84679 8.07341 9.70389 8.14934C9.60176 8.20386 9.56906 8.2709 9.58803 8.37752C9.59409 8.41185 9.59449 8.4486 9.58965 8.48293C9.56987 8.6263 9.59288 8.72928 9.74183 8.81409C9.92389 8.91748 9.97435 9.16141 9.87343 9.3492C9.75435 9.57052 9.62436 9.78699 9.48429 9.99538C9.34744 10.1989 9.09797 10.247 8.86707 10.1214C8.78472 10.0766 8.72376 10.0665 8.65473 10.1343C8.63011 10.1585 8.59822 10.1771 8.56633 10.1917C8.41374 10.2607 8.30071 10.337 8.28739 10.5414C8.27447 10.7389 8.08393 10.8754 7.8829 10.8819C7.63141 10.8899 7.37952 10.8903 7.12803 10.8823C6.88824 10.8746 6.70134 10.69 6.69367 10.4453C6.69044 10.3399 6.65371 10.289 6.56248 10.2599C6.53866 10.2522 6.51525 10.2405 6.49547 10.2256C6.3457 10.1113 6.20522 10.064 6.01106 10.165C5.83949 10.2538 5.62595 10.1585 5.51252 9.98569C5.38011 9.78416 5.25416 9.57738 5.13871 9.36576C5.02366 9.15454 5.08744 8.90657 5.29655 8.78824C5.40554 8.72645 5.43218 8.65699 5.41563 8.54754C5.40958 8.50796 5.40796 8.46596 5.41523 8.42719C5.44026 8.28907 5.39706 8.20265 5.2691 8.1247C5.07856 8.00839 5.03012 7.76406 5.14073 7.56374C5.25739 7.35252 5.38132 7.14454 5.51494 6.94382C5.65178 6.73866 5.90126 6.68454 6.12974 6.80772C6.21612 6.85416 6.28273 6.87072 6.35458 6.79399C6.37114 6.77622 6.39455 6.76208 6.41756 6.75279C6.59073 6.68212 6.70457 6.5864 6.72354 6.37034C6.7401 6.18173 6.93346 6.05452 7.12843 6.04967C7.37508 6.04361 7.62172 6.04321 7.86837 6.04927C8.10937 6.05492 8.30071 6.23464 8.30959 6.47897C8.31363 6.58963 8.35319 6.64294 8.44845 6.67525C8.47671 6.68494 8.50618 6.69746 8.52879 6.71604C8.67048 6.83276 8.80369 6.8578 8.98575 6.76854C9.16337 6.68131 9.3539 6.75602 9.46774 6.91676C9.62113 7.13363 9.74991 7.36868 9.88272 7.59968C9.91138 7.64976 9.9138 7.71478 9.92268 7.75073H9.92228ZM7.80136 10.3972C7.83971 10.27 7.85788 10.1537 7.90874 10.0543C7.97696 9.92067 8.61315 9.57335 8.76171 9.58829C8.87756 9.5996 8.99059 9.64443 9.11694 9.67795C9.21221 9.52044 9.31313 9.35365 9.42212 9.17353C9.11735 9.04833 9.06769 8.80844 9.10402 8.52372C9.11533 8.43487 9.1016 8.34279 9.09555 8.25232C9.08263 8.06412 9.15327 7.91954 9.31434 7.81938C9.34704 7.79919 9.37812 7.77617 9.41566 7.75032C9.30788 7.57303 9.20535 7.40381 9.09878 7.22894C8.84325 7.40381 8.61759 7.37554 8.3984 7.2035C8.35157 7.16675 8.29748 7.13403 8.24137 7.11425C7.97292 7.01893 7.80257 6.85335 7.8276 6.54359H7.17082C7.19221 6.83114 7.05577 7.00076 6.80428 7.09365C6.74817 7.11425 6.69206 7.14252 6.64483 7.17886C6.41312 7.35777 6.17293 7.42603 5.90327 7.22935C5.79307 7.41149 5.69054 7.58111 5.58074 7.76284C5.86694 7.8836 5.94082 8.09926 5.89964 8.37308C5.89157 8.42719 5.89116 8.48494 5.89964 8.53906C5.94324 8.82136 5.87946 9.05116 5.58235 9.17272C5.69377 9.35688 5.7967 9.52731 5.90327 9.70339C6.10027 9.579 6.28838 9.53861 6.48699 9.6525C6.6307 9.73489 6.77643 9.81405 6.92135 9.89401C7.07353 9.97842 7.16153 10.104 7.17163 10.2805C7.17405 10.3189 7.1797 10.3564 7.18414 10.398H7.80136V10.3972Z" fill="#410EAD"/>
<path d="M3.26691 12.7276C3.28104 12.745 3.29557 12.7648 3.31252 12.7825C3.41344 12.8875 3.51476 12.9917 3.61003 13.0903C3.63668 13.0822 3.64838 13.0822 3.65484 13.0765C3.91965 12.8358 3.97092 12.837 4.22523 13.0915C4.5066 13.373 4.78877 13.6536 5.06892 13.9359C5.22353 14.0914 5.22393 14.209 5.07134 14.3636C4.90139 14.5357 4.73023 14.7065 4.55827 14.8765C4.39276 15.0405 4.28458 15.0417 4.12149 14.8798C3.82116 14.5817 3.52243 14.2821 3.22371 13.9824C3.03883 13.797 3.03923 13.7045 3.22291 13.5131C3.24026 13.4953 3.25601 13.476 3.28023 13.4493C3.15065 13.3362 3.02349 13.2256 2.87897 13.0991C2.3881 13.4416 1.81367 13.5422 1.20049 13.3302C0.790353 13.1884 0.475889 12.9206 0.25306 12.5487C-0.194214 11.8024 -0.0355687 10.8339 0.626057 10.256C1.27638 9.68775 2.25731 9.67119 2.9371 10.2019C3.54262 10.6748 3.95558 11.7147 3.26691 12.728V12.7276ZM1.81852 12.9513C2.55159 12.9513 3.14823 12.3573 3.14863 11.6283C3.14863 10.8989 2.552 10.304 1.81973 10.304C1.08423 10.304 0.491633 10.8941 0.490825 11.6271C0.490018 12.3589 1.08463 12.9517 1.81852 12.9517V12.9513ZM4.5732 14.1649C4.34876 13.9424 4.13199 13.728 3.92369 13.522C3.85224 13.5878 3.76827 13.6654 3.6944 13.7336C3.91642 13.9553 4.13279 14.1714 4.35522 14.3935C4.42506 14.3204 4.50377 14.2376 4.5732 14.1649Z" fill="#410EAD"/>
<path d="M2.97519 3.13517C3.09635 3.25714 3.20136 3.36295 3.30797 3.46997C1.84318 5.10358 1.37672 6.98072 1.9086 9.1236C1.76725 9.16681 1.62146 9.21164 1.45951 9.26091C1.1764 8.29124 1.13077 7.32077 1.31654 6.34181C1.54957 5.11408 2.10245 4.0483 2.97519 3.13477V3.13517Z" fill="#410EAD"/>
<path d="M13.5859 9.00528C13.4377 8.96732 13.2886 8.92895 13.1404 8.89099C13.5725 6.83655 13.0936 5.041 11.7075 3.50471C11.8093 3.3884 11.9107 3.27209 12.0104 3.1582C13.3823 4.25226 14.2022 7.3119 13.5855 9.00528H13.5859Z" fill="#410EAD"/>
<path d="M5.73869 13.5494C5.79036 13.3786 5.83395 13.2356 5.87876 13.0874C7.41152 13.4993 8.87121 13.3406 10.2861 12.6016C10.3608 12.7348 10.4355 12.8681 10.5214 13.022C8.99313 13.8277 7.41112 13.9997 5.73828 13.5494H5.73869Z" fill="#410EAD"/>
<path d="M4.59275 1.44504H3.40137V0.976562H4.59275V1.44504Z" fill="#410EAD"/>
<path d="M5.07687 1.94336V2.4078H3.88428V1.94336H5.07687Z" fill="#410EAD"/>
<path d="M8.46956 8.46323C8.47117 8.99794 8.03581 9.43532 7.50232 9.43451C6.96761 9.4337 6.53426 8.99874 6.53467 8.46323C6.53548 7.93619 6.96639 7.50366 7.49424 7.50002C8.02935 7.49639 8.46754 7.92933 8.46915 8.46363L8.46956 8.46323ZM7.50635 7.98425C7.24304 7.98102 7.02253 8.19547 7.0189 8.45878C7.01526 8.72372 7.22648 8.94382 7.4898 8.95028C7.75957 8.95674 7.98452 8.73785 7.98493 8.46807C7.98493 8.20435 7.77048 7.98748 7.50595 7.98425H7.50635Z" fill="#410EAD"/>
</svg>
