<svg width="18" height="15" viewBox="0 0 18 15" fill="none" xmlns="http://www.w3.org/2000/svg">
<path d="M0.000406009 4.36752C0.0783579 4.29897 0.145754 4.19576 0.237104 4.16897C0.418179 4.11619 0.541603 4.26116 0.533077 4.48216C0.517243 4.88359 0.720649 5.1751 1.08605 5.26689C1.15304 5.28383 1.22449 5.28974 1.29433 5.28974C2.95202 5.29092 4.60972 5.29171 6.26701 5.28974C6.60195 5.28974 6.86667 5.11207 6.9775 4.82765C7.08469 4.55267 7.02298 4.22964 6.78181 4.05394C6.64499 3.95427 6.45782 3.86643 6.29218 3.86485C4.61702 3.85106 2.94187 3.85618 1.26672 3.85776C1.19729 3.85776 1.12827 3.87667 1.05885 3.88533C0.897258 3.90582 0.767745 3.82388 0.740543 3.68521C0.712935 3.54536 0.796165 3.413 0.957346 3.38503C1.14532 3.35272 1.33736 3.34484 1.54686 3.32436C1.5229 2.97336 1.5635 2.63614 1.83674 2.3659C2.10998 2.09526 2.45386 2.03971 2.84321 2.06295C2.84321 1.89238 2.84159 1.74071 2.84321 1.58865C2.84768 1.25379 3.06935 1.03555 3.41527 1.02964C3.65521 1.0257 3.89556 1.0257 4.13551 1.02964C4.48873 1.03516 4.70837 1.25576 4.71162 1.60283C4.71284 1.74938 4.71162 1.89553 4.71162 2.03814C5.80782 2.21383 5.90039 2.30602 6.02462 3.33145C6.18459 3.34287 6.34861 3.34051 6.50695 3.36848C7.15574 3.48312 7.60477 4.04725 7.55037 4.66692C7.49475 5.30432 6.96167 5.79123 6.29948 5.7999C5.78996 5.8066 5.28043 5.80305 4.7709 5.80423C4.75994 5.80423 4.74897 5.80975 4.72461 5.81644V10.2247H4.913C5.32306 10.2247 5.73393 10.2105 6.14277 10.2302C6.37784 10.2416 6.60926 10.3117 6.84393 10.3456C6.90483 10.3547 6.98116 10.3444 7.03353 10.3149C7.40299 10.1069 7.76595 9.88785 8.13623 9.68142C8.24341 9.62193 8.27305 9.55063 8.27264 9.43678C8.26939 7.71998 8.27021 6.00357 8.27021 4.28676C8.27021 3.75376 8.4391 3.57136 8.98192 3.517C9.37493 3.4776 9.67862 3.15457 9.69567 2.75393C9.70054 2.63457 9.69364 2.5152 9.69932 2.39584C9.70623 2.25086 9.78743 2.16144 9.93724 2.14844C10.0891 2.13544 10.1833 2.21541 10.2166 2.35408C10.3794 3.03481 9.97053 3.7577 9.30144 3.96885C9.1971 4.00194 9.08505 4.02282 8.97543 4.02715C8.83779 4.03228 8.79273 4.089 8.79557 4.21782C8.80166 4.49634 8.80166 4.77486 8.79557 5.05338C8.79354 5.14792 8.83008 5.19362 8.91534 5.23301C10.2876 5.86884 11.6575 6.5086 13.0305 7.14246C13.0878 7.16885 13.1808 7.17003 13.2376 7.14403C14.6103 6.50978 15.9801 5.86923 17.352 5.23301C17.4381 5.19323 17.4722 5.1491 17.4697 5.05416C17.4624 4.77013 17.4632 4.4857 17.4689 4.20167C17.4714 4.08743 17.43 4.04173 17.3102 4.02991C16.5278 3.9527 16.052 3.44491 16.0463 2.68026C16.0418 2.03223 16.0455 1.38419 16.0451 0.736153C16.0451 0.520273 16.037 0.513181 15.8214 0.512788C15.6574 0.512394 15.4925 0.523424 15.3297 0.51003C15.1458 0.494666 15.0999 0.56794 15.1052 0.735759C15.1162 1.11079 15.1149 1.48622 15.1068 1.86125C15.0857 2.83272 14.4114 3.59894 13.4333 3.77227C12.3493 3.96452 11.2372 3.12818 11.1768 2.06059C11.1516 1.61859 11.1666 1.17422 11.1634 0.731032C11.1617 0.520666 11.154 0.513575 10.9327 0.513182C10.7452 0.513182 10.558 0.515545 10.3704 0.512394C10.2657 0.510818 10.2227 0.55494 10.2243 0.655789C10.2271 0.877579 10.2271 1.09937 10.2243 1.32076C10.2218 1.51419 10.113 1.63592 9.95267 1.63159C9.79717 1.62725 9.69973 1.51262 9.6981 1.3251C9.69607 1.08637 9.69445 0.847639 9.69851 0.60891C9.7046 0.26027 9.962 0.0093283 10.3213 0.00263127C10.5556 -0.00170211 10.7898 0.00026759 11.0241 0.00184336C11.4269 0.00460096 11.6818 0.244906 11.6887 0.639637C11.6964 1.08873 11.681 1.53822 11.7001 1.98653C11.7257 2.58572 12.1832 3.10139 12.7845 3.24163C13.6996 3.45515 14.5579 2.79923 14.5794 1.86283C14.5888 1.45943 14.5802 1.05564 14.5823 0.652243C14.5843 0.248058 14.8344 0.00460096 15.2485 0.00184336C15.4653 0.00026759 15.6821 0.000661533 15.8985 0.00184336C16.3143 0.00420702 16.568 0.242149 16.5713 0.64791C16.5765 1.30146 16.5725 1.95541 16.5733 2.60896C16.5733 2.68854 16.5745 2.76851 16.5839 2.84729C16.6257 3.20184 16.9249 3.50439 17.2923 3.51385C17.7081 3.52409 18.0028 3.76952 18 4.26116C17.9866 6.47236 17.9943 8.68356 17.9943 10.8948C17.9943 11.7106 17.5863 12.1302 16.745 12.181C16.7345 12.1818 16.7239 12.1877 16.6939 12.1975C16.6939 12.4965 16.6939 12.8014 16.6939 13.1068C16.6939 13.2943 16.6955 13.4818 16.6939 13.6697C16.6882 14.2484 16.2586 14.6676 15.659 14.6687C14.2181 14.6715 12.7772 14.6699 11.3363 14.6699C9.70217 14.6699 8.06802 14.6593 6.43387 14.675C5.76194 14.6817 5.18705 14.5135 4.71162 13.9561C4.71162 14.1416 4.71243 14.2779 4.71162 14.4146C4.70919 14.7822 4.49279 14.9933 4.11115 14.9981C3.88866 15.0008 3.66617 15.0004 3.44328 14.9981C3.06083 14.9937 2.84565 14.7838 2.84281 14.4154C2.84159 14.274 2.84281 14.1326 2.84281 13.9624C2.46848 13.9845 2.12013 13.9411 1.84649 13.6725C1.57284 13.4034 1.51681 13.0701 1.55173 12.6852C1.43886 12.6852 1.34183 12.6884 1.2452 12.6848C0.660967 12.6624 0.197722 12.3055 0.03857 11.7587C0.029638 11.7276 0.013398 11.698 0.000406009 11.6681C0.000406009 11.5318 0.000406009 11.3951 0.000406009 11.2588C0.007308 11.2497 0.017864 11.2418 0.020706 11.232C0.225736 10.539 0.646757 10.2286 1.38568 10.2274C1.8071 10.2266 2.22812 10.2274 2.64955 10.227C2.71126 10.227 2.77257 10.2215 2.82779 10.2188V5.80305C2.28659 5.80305 1.76001 5.80857 1.23383 5.80147C0.701973 5.79438 0.239134 5.45717 0.0682079 4.96789C0.0462839 4.90447 0.022736 4.84143 0 4.7784C0 4.6421 0 4.5054 0 4.3691L0.000406009 4.36752ZM8.81303 5.75184V9.28354C9.15934 9.08223 9.48902 8.89905 9.80935 8.70168C10.0355 8.56223 10.2767 8.4992 10.5414 8.5055C10.6583 8.50826 10.776 8.51417 10.8926 8.50826C11.366 8.48383 11.6729 8.67883 11.8556 9.11375C12.1337 9.77636 12.8556 10.151 13.5811 10.0348C14.1844 9.93788 14.6038 9.60539 14.8316 9.05702C14.9339 8.8112 15.0768 8.60517 15.3496 8.54292C16.2221 8.34319 16.715 8.93017 16.6988 9.51399C16.6805 10.1672 16.6947 10.8211 16.6947 11.475C16.6947 11.5357 16.6947 11.5964 16.6947 11.6551C17.1766 11.6941 17.4669 11.4392 17.4673 10.9913C17.4681 9.29733 17.4677 7.60376 17.4673 5.90981C17.4673 5.86293 17.4596 5.81644 17.4547 5.75696C17.3983 5.78059 17.3609 5.79517 17.3248 5.81211C16.0122 6.42351 14.6984 7.03294 13.3886 7.64986C13.2149 7.7318 13.0711 7.73928 12.8945 7.65498C12.0972 7.27403 11.2933 6.9053 10.4918 6.53263C9.93927 6.27539 9.3867 6.01893 8.81343 5.75223L8.81303 5.75184ZM10.7155 9.01723C10.7464 9.32372 10.7046 9.58766 10.5243 9.81969C10.5069 9.84215 10.5377 9.91385 10.5637 9.95088C10.7143 10.1675 10.8698 10.3807 11.0245 10.5946C11.1065 10.7076 11.1309 10.8223 11.0347 10.9385C10.9218 11.0744 10.722 11.0598 10.6031 10.9003C10.4216 10.6572 10.247 10.409 10.0603 10.1506C9.90922 10.2385 9.76631 10.3216 9.61528 10.409C10.1488 11.1516 10.6705 11.878 11.1942 12.6037C11.2157 12.6332 11.2551 12.6687 11.2872 12.6699C11.4711 12.6762 11.6554 12.673 11.8739 12.673C11.6526 12.365 11.4504 12.0943 11.2628 11.8142C11.2133 11.7402 11.1727 11.6267 11.1954 11.5507C11.2178 11.4762 11.3225 11.3833 11.3984 11.3762C11.4837 11.3683 11.6087 11.425 11.6619 11.4936C11.9246 11.8343 12.1731 12.1861 12.4183 12.5391C12.4881 12.6395 12.5636 12.6781 12.6899 12.6774C13.7849 12.6722 14.8799 12.6746 15.9749 12.6742C16.0362 12.6742 16.0979 12.6687 16.1673 12.6651C16.1673 12.5836 16.1673 12.5214 16.1673 12.4591C16.1673 11.5156 16.1673 10.5725 16.1673 9.62903C16.1673 9.56639 16.1697 9.50375 16.1657 9.44151C16.1523 9.21696 16.0057 9.06254 15.7755 9.02708C15.4954 8.98414 15.4207 9.02551 15.3098 9.28472C14.9067 10.2278 13.8624 10.7506 12.8414 10.5099C12.1345 10.3432 11.6347 9.92645 11.3542 9.27566C11.2746 9.0909 11.1569 9.00423 10.9543 9.01684C10.8857 9.02117 10.8162 9.01763 10.7151 9.01763L10.7155 9.01723ZM4.92477 13.1958C4.93898 13.2494 4.94629 13.2931 4.96172 13.3337C5.15254 13.8422 5.64339 14.1566 6.25076 14.157C9.3591 14.1574 12.467 14.157 15.5754 14.157C15.6281 14.157 15.6809 14.1586 15.7333 14.1535C15.9517 14.1318 16.1373 13.9734 16.158 13.7627C16.1758 13.5783 16.1616 13.3912 16.1616 13.1954H4.92477V13.1958ZM6.24508 10.777C6.24143 10.7636 6.23777 10.7502 6.23412 10.7368H6.04492C4.6219 10.7368 3.19887 10.7368 1.77584 10.7368C1.58868 10.7368 1.4007 10.7329 1.21394 10.7415C0.913498 10.7557 0.654877 10.9562 0.563933 11.2339C0.408435 11.709 0.762467 12.1672 1.2996 12.1715C2.03162 12.1774 2.76364 12.1727 3.49565 12.1735C3.7019 12.1735 3.8233 12.2684 3.82451 12.4244C3.82573 12.5793 3.70068 12.6825 3.4989 12.6837C3.08884 12.686 2.67919 12.6844 2.26913 12.6844C2.20742 12.6844 2.1453 12.6844 2.07303 12.6844C2.07303 12.7475 2.07303 12.7865 2.07303 12.8255C2.06897 13.2793 2.24477 13.4503 2.71735 13.4503C3.09209 13.4503 3.46683 13.4503 3.84157 13.4503C4.0336 13.4503 4.22523 13.4503 4.42052 13.4503C4.42052 13.4093 4.42539 13.3865 4.41971 13.3664C4.18301 12.5422 4.58576 11.7051 5.33036 11.3068C5.64136 11.1406 5.94099 10.9535 6.24549 10.7762L6.24508 10.777ZM3.38116 5.80975V10.2132H4.17448V5.80975H3.38116ZM4.90853 12.6588H8.05665C7.85487 12.3776 7.66364 12.1199 7.48379 11.8552C7.41152 11.7488 7.3494 11.6988 7.20405 11.7429C7.09362 11.7764 6.96086 11.7618 6.84149 11.7445C6.59262 11.7083 6.41357 11.555 6.25645 11.3632C5.72256 11.715 5.04373 11.9017 4.90813 12.6588H4.90853ZM5.46556 3.335C5.54473 2.79332 5.34742 2.57035 4.79769 2.57035C4.09491 2.57035 3.39212 2.56917 2.68934 2.57035C2.2062 2.57114 1.97194 2.87684 2.09942 3.3346H5.46516L5.46556 3.335ZM6.72984 11.0925C6.90158 11.2832 7.04774 11.3041 7.27185 11.1745C8.16546 10.6568 9.05784 10.1372 9.94982 9.61681C10.1756 9.48524 10.2259 9.3639 10.1723 9.09011C9.02577 9.75706 7.88451 10.4209 6.72984 11.0925ZM10.6006 12.673C10.1065 11.986 9.63518 11.3301 9.16097 10.6714C9.0075 10.7624 8.87393 10.8416 8.73101 10.9263C9.14189 11.4975 9.5422 12.0553 9.94576 12.612C9.96647 12.6403 10.0091 12.6695 10.0424 12.6707C10.2158 12.6766 10.3891 12.6734 10.6006 12.6734V12.673ZM9.34326 12.673C8.97421 12.1593 8.6287 11.6791 8.27589 11.1879C8.12608 11.2753 7.98357 11.3584 7.83091 11.4479C8.11593 11.8446 8.392 12.2298 8.67093 12.6128C8.69163 12.6411 8.73467 12.6695 8.76837 12.6707C8.9466 12.6762 9.12524 12.6734 9.34367 12.6734L9.34326 12.673ZM4.17286 14.4773V13.9742H3.38279V14.4773H4.17286ZM3.38441 1.54886V2.04523H4.17002V1.54886H3.38441Z" fill="#410EAD"/>
<path d="M12.7301 5.88809V5.03559C12.6895 5.02693 12.6505 5.02141 12.614 5.00999C12.4869 4.97099 12.4175 4.88274 12.4216 4.75668C12.4252 4.62983 12.5023 4.53686 12.6311 4.51677C12.992 4.46004 13.2778 4.5865 13.2648 4.98438C13.2551 5.28457 13.2628 5.58515 13.2628 5.88454C13.3168 5.90266 13.3781 5.90463 13.4008 5.93418C13.4621 6.01415 13.5433 6.10397 13.549 6.19418C13.5571 6.31512 13.4573 6.40573 13.3241 6.41124C13.1081 6.42031 12.8913 6.42109 12.6753 6.41046C12.5434 6.40415 12.4431 6.31355 12.4532 6.19103C12.4609 6.10082 12.5438 6.01336 12.6038 5.93221C12.6233 5.90621 12.6781 5.90503 12.7297 5.88809H12.7301Z" fill="#410EAD"/>
</svg>
