<svg width="15" height="16" viewBox="0 0 15 16" fill="none" xmlns="http://www.w3.org/2000/svg">
<path d="M3.17949 15.9997C3.05439 15.8656 2.93062 15.7297 2.80351 15.5973C1.9472 14.7046 1.08987 13.8126 0.233556 12.9203C-0.076525 12.5973 -0.075187 12.3004 0.237235 11.975C1.18253 10.9903 2.12783 10.006 3.07312 9.02167C3.10824 8.98508 3.1447 8.95024 3.16879 8.9262C3.41933 9.18683 3.66552 9.44292 3.91639 9.70425C3.23937 10.407 2.54595 11.1265 1.82377 11.8764C1.90505 11.8861 1.94051 11.8941 1.97596 11.8941C5.41027 11.8948 8.84491 11.8969 12.2792 11.8931C13.2319 11.892 13.9216 11.1645 13.9286 10.1677C13.9333 9.50529 13.9296 8.84292 13.9296 8.1809C13.9296 8.12411 13.9296 8.06697 13.9296 7.99902H14.9662C14.9662 8.87254 15.0348 9.7485 14.9499 10.6077C14.8311 11.8063 14.0102 12.6732 12.885 12.9373C12.6582 12.9907 12.4187 13.0032 12.1852 13.0035C8.81079 13.0077 5.43669 13.0063 2.06226 13.0063H1.8425C2.56134 13.7537 3.25342 14.4736 3.95018 15.1983C3.69295 15.4771 3.45177 15.7387 3.2106 16.0001H3.1805L3.17949 15.9997Z" fill="#410EAD"/>
<path d="M13.1607 2.96898C12.4398 2.21846 11.7501 1.5 11.0711 0.79303C11.3276 0.524738 11.5738 0.267595 11.8297 0C11.8448 0.0142857 11.8775 0.042857 11.9076 0.0742159C12.8603 1.0662 13.8129 2.05853 14.7649 3.05086C15.078 3.377 15.0784 3.67177 14.7659 3.99755C13.8139 4.99023 12.8613 5.98222 11.9086 6.9742C11.8805 7.00347 11.8508 7.031 11.833 7.04842C11.5838 6.78814 11.3376 6.531 11.0777 6.25992C11.7524 5.55783 12.4465 4.83518 13.1717 4.08013C13.0891 4.08013 13.0516 4.08013 13.0142 4.08013C9.5939 4.08013 6.17365 4.07943 2.75339 4.08083C1.87198 4.08083 1.2254 4.65017 1.08992 5.54076C1.07454 5.64285 1.07588 5.74877 1.07554 5.8526C1.07387 6.54633 1.0742 7.24006 1.07353 7.93378C1.07353 7.94389 1.06952 7.95364 1.06517 7.97525H0.0171852C0.0131712 7.96201 0.00213275 7.94319 0.00213275 7.92437C0.00681574 7.11601 -0.0159303 6.30626 0.0252132 5.49999C0.0884335 4.26166 1.07487 3.18153 2.25398 3.00975C2.44632 2.98188 2.64267 2.97038 2.83702 2.97038C6.2071 2.96794 9.57718 2.96864 12.9473 2.96864H13.1603L13.1607 2.96898Z" fill="#410EAD"/>
</svg>
