<svg width="15" height="16" viewBox="0 0 15 16" fill="none" xmlns="http://www.w3.org/2000/svg">
<path d="M7.97013 0.000668734C8.24965 0.0387857 8.53118 0.0648657 8.80803 0.117026C10.9031 0.511236 12.5522 1.59623 13.7448 3.35831C14.6209 4.65228 15.0398 6.09537 14.997 7.65616C14.9368 9.84889 14.0715 11.6805 12.4352 13.1387C11.3712 14.0866 10.1261 14.6814 8.71909 14.9007C6.58788 15.2327 4.64425 14.7539 2.93233 13.4366C1.37756 12.2402 0.440017 10.6564 0.100308 8.72243C0.0565067 8.47367 0.0331016 8.2209 0 7.97013C0 7.6575 0 7.34487 0 7.03258C0.0224021 6.84935 0.041795 6.66579 0.067875 6.4829C0.282534 4.97928 0.888393 3.65321 1.9015 2.52174C3.01993 1.27224 4.40251 0.471781 6.05124 0.145446C6.37523 0.0812494 6.70491 0.0478134 7.03225 0C7.34487 0 7.6575 0 7.96979 0L7.97013 0.000668734ZM0.712854 7.496C0.708173 11.2275 3.75853 14.2848 7.49199 14.2899C11.2265 14.2952 14.2775 11.2542 14.2895 7.51439C14.3019 3.78562 11.2492 0.719542 7.51774 0.713523C3.77425 0.707505 0.717535 3.75385 0.712854 7.49567V7.496Z" fill="#410EAD"/>
<path d="M7.50089 13.3709V10.6429C7.24978 10.67 7.01305 10.7031 6.77532 10.7161C6.70444 10.7201 6.61115 10.687 6.56133 10.6375C5.82508 9.90996 5.09316 9.17805 4.3656 8.44179C4.31611 8.39197 4.28435 8.29801 4.28802 8.22713C4.3014 7.9894 4.3345 7.75267 4.36192 7.50157H1.64893C1.69674 7.44941 1.72416 7.41764 1.75358 7.38788C2.51625 6.62454 3.27792 5.8602 4.04528 5.10153C4.09945 5.0477 4.19474 5.00992 4.27164 5.00858C4.75981 5.00022 5.24831 5.00791 5.73647 5.00056C5.81638 4.99922 5.91134 4.96946 5.97219 4.91964C6.97561 4.09745 8.14118 3.64406 9.39971 3.40098C10.1791 3.25052 10.9669 3.20003 11.7697 3.2231C11.775 3.2552 11.7844 3.28697 11.7847 3.31906C11.8054 4.60334 11.6486 5.85986 11.1966 7.06991C10.9281 7.78845 10.5623 8.45115 10.0731 9.04497C10.029 9.0988 10.0036 9.18406 10.0029 9.25528C9.99688 9.75314 10.0016 10.2513 9.99721 10.7492C9.99688 10.807 9.98083 10.8816 9.94305 10.9197C9.14259 11.7279 8.33812 12.532 7.50055 13.3709H7.50089ZM11.0672 3.92894C10.6636 3.96906 10.2794 3.9928 9.89958 4.04763C8.8216 4.20311 7.7978 4.52142 6.88566 5.13464C5.88259 5.80904 5.19949 6.70178 5.02529 7.93222C5.00957 8.04289 5.03599 8.11144 5.11256 8.18734C5.68163 8.7504 6.24804 9.3158 6.81043 9.88555C6.89436 9.97048 6.97193 9.99823 7.09196 9.98084C8.05993 9.84075 8.84066 9.36896 9.47427 8.64073C10.1965 7.81051 10.6011 6.82583 10.8421 5.76557C10.9766 5.17476 11.0468 4.57592 11.0672 3.9286V3.92894ZM3.36151 6.78871C3.77813 6.78871 4.14759 6.79172 4.51706 6.78403C4.55685 6.78336 4.60767 6.72652 4.63275 6.68339C4.78421 6.42259 4.92866 6.15811 5.07778 5.89597C5.10988 5.8398 5.15168 5.78898 5.20317 5.71575C4.94705 5.71575 4.7237 5.71408 4.50034 5.71742C4.46557 5.71809 4.42177 5.7328 4.39769 5.75654C4.06166 6.08823 3.72831 6.42225 3.36185 6.78838L3.36151 6.78871ZM8.21441 11.5978C8.22644 11.6025 8.23848 11.6068 8.25052 11.6115C8.58387 11.2765 8.91723 10.9418 9.24958 10.6061C9.26563 10.5897 9.28469 10.566 9.28503 10.5456C9.28737 10.3055 9.2867 10.0658 9.2867 9.84409C8.94264 10.0287 8.60828 10.2069 8.27626 10.3891C8.24818 10.4045 8.21742 10.4463 8.21708 10.4764C8.21307 10.8505 8.21441 11.2243 8.21441 11.5985V11.5978Z" fill="#410EAD"/>
<path d="M5.8467 11.1461C5.46887 11.5654 4.66273 11.9278 4.02511 11.7319C3.50518 11.5721 3.19289 11.1267 3.21228 10.5516C3.23067 10.0032 3.47642 9.55454 3.84087 9.1416C4.01842 9.3041 4.18928 9.46025 4.36415 9.62007C4.16253 9.85981 4.00237 10.1116 3.94319 10.4179C3.85358 10.8813 4.10368 11.1374 4.56844 11.0558C4.8249 11.0107 5.04591 10.8926 5.24953 10.7368C5.29133 10.7047 5.33279 10.672 5.37926 10.6355C5.53842 10.8094 5.69289 10.9779 5.8467 11.1461Z" fill="#410EAD"/>
<path d="M8.21658 8.21309C7.42582 8.21309 6.79287 7.58249 6.79053 6.79173C6.78819 5.99629 7.42649 5.35866 8.22293 5.36134C9.01068 5.36401 9.64362 6.0013 9.64229 6.79039C9.64095 7.57914 9.006 8.21309 8.21658 8.21309ZM8.22025 7.50191C8.61346 7.49956 8.93779 7.17022 8.93177 6.77969C8.92575 6.3925 8.6051 6.07419 8.21858 6.07218C7.82605 6.07018 7.50138 6.39451 7.50172 6.78838C7.50205 7.18226 7.82604 7.50391 8.22025 7.50191Z" fill="#410EAD"/>
</svg>
