<svg width="15" height="12" viewBox="0 0 15 12" fill="none" xmlns="http://www.w3.org/2000/svg">
<path d="M13.2055 5.94478C13.2428 5.98066 13.2628 6.00825 13.2876 6.01929C14.4823 6.58507 14.9875 7.63106 14.9949 9.02204C14.9999 9.88312 14.99 10.747 14.9999 11.608C15.0024 11.8813 14.9402 11.9972 14.6714 11.9944C13.437 11.9806 12.205 11.9834 10.9706 11.9944C10.7167 11.9944 10.6271 11.9144 10.6321 11.6218C10.647 10.8049 10.6396 9.99075 10.6371 9.17383C10.6346 8.3707 10.3036 7.95949 9.58432 7.95121C7.92679 7.93189 6.26677 7.94569 4.60924 7.93741C4.37778 7.93741 4.36534 8.07264 4.36534 8.26307C4.36782 9.36702 4.36036 10.471 4.37031 11.5749C4.3728 11.873 4.31307 12.0027 4.01193 11.9999C2.78993 11.9834 1.56545 11.9834 0.343454 11.9999C0.0622209 12.0027 0 11.8923 0 11.5998C0.00746636 7.86289 0.00746636 4.12878 0 0.391902C0 0.0883156 0.0796421 0 0.35092 0C3.72074 0.00827963 7.08807 -0.0137989 10.4579 0.0220795C11.2369 0.0303592 12.0383 0.135236 12.7899 0.356027C14.6142 0.888683 15.0397 2.48941 14.756 4.07082C14.6117 4.8767 14.1712 5.45352 13.4992 5.80402C13.4071 5.8537 13.3125 5.89786 13.208 5.95029L13.2055 5.94478ZM7.41161 4.95122C8.31255 4.95122 9.21349 4.95674 10.1169 4.95122C10.5599 4.94846 10.8387 4.65315 10.8461 4.20329C10.8536 3.73687 10.5699 3.40569 10.1244 3.40293C8.29015 3.39741 6.45592 3.40293 4.62168 3.39741C4.43502 3.39741 4.35787 3.46365 4.36534 3.6734C4.37529 3.9825 4.37778 4.29437 4.36534 4.60348C4.35289 4.86567 4.42507 4.96502 4.67892 4.9595C5.58982 4.94294 6.5032 4.95398 7.4141 4.95398L7.41161 4.95122Z" fill="#410EAD"/>
</svg>
