<svg width="15" height="15" viewBox="0 0 15 15" fill="none" xmlns="http://www.w3.org/2000/svg">
<path d="M14.9997 7.03109V7.96859C14.9915 8.00626 14.9783 8.04361 14.9755 8.0819C14.877 9.36778 14.4799 10.5551 13.7599 11.6238C12.5651 13.3974 10.9123 14.49 8.80597 14.8836C8.52915 14.9353 8.24793 14.9617 7.96859 15H7.03109C6.99374 14.9918 6.95639 14.979 6.91842 14.9758C5.42444 14.8566 4.07955 14.345 2.90195 13.4191C1.38632 12.2277 0.451017 10.6794 0.112048 8.77804C0.0643413 8.51 0.0367216 8.23851 0 7.96891C0 7.6563 0 7.34401 0 7.03141C0.00847422 6.98904 0.0213425 6.94698 0.0247949 6.90398C0.160382 5.25559 0.768957 3.80336 1.85962 2.56298C3.02436 1.23818 4.48035 0.415865 6.22196 0.11299C6.49 0.0662245 6.76117 0.0370355 7.03078 0C7.34338 0 7.65567 0 7.96828 0C8.21874 0.0326414 8.47046 0.0571225 8.71935 0.0994936C10.149 0.341794 11.412 0.939697 12.4897 1.90984C13.7763 3.06767 14.5804 4.50107 14.8839 6.20878C14.9322 6.48121 14.9614 6.75709 14.9994 7.03141L14.9997 7.03109ZM7.49969 0.499038C3.64203 0.499038 0.502176 3.63513 0.499038 7.49121C0.495899 11.3558 3.63732 14.5022 7.49749 14.5006C11.3589 14.4991 14.5016 11.3533 14.5 7.49184C14.4985 3.63638 11.358 0.499351 7.49969 0.499038Z" fill="#410EAD"/>
<path d="M7.48809 13.9997C3.91102 13.9916 0.994321 11.0673 0.999029 7.49467C1.00374 3.91133 3.9355 0.987093 7.51163 0.998078C11.0987 1.00938 14.0157 3.9402 14.0007 7.51789C13.9856 11.099 11.063 14.0079 7.48809 13.9994V13.9997ZM7.48526 11.5055C9.68385 11.5187 11.4842 9.73218 11.4986 7.52386C11.5127 5.31711 9.73752 3.52402 7.51382 3.49923C5.32559 3.47475 3.51022 5.28227 3.50018 7.49561C3.48982 9.692 5.27945 11.4923 7.48558 11.5055H7.48526ZM9.3113 3.36239C9.60444 3.53344 9.88472 3.69665 10.176 3.86644C10.4221 3.43991 10.6691 3.01149 10.9277 2.56267C10.633 2.39162 10.3527 2.22904 10.063 2.06081C9.80594 2.50618 9.56019 2.93146 9.3113 3.36239ZM12.4364 10.9267C12.6062 10.6333 12.77 10.3505 12.9376 10.0608C12.4844 9.79965 12.056 9.55296 11.6364 9.31129C11.4628 9.60914 11.2996 9.88911 11.1326 10.1753C11.5614 10.4224 11.9866 10.6675 12.4364 10.9267ZM3.36396 9.31098C2.9346 9.55924 2.50587 9.80688 2.06145 10.0636C2.23313 10.3571 2.39633 10.637 2.56582 10.9267C3.01872 10.6653 3.44682 10.4183 3.8674 10.1753C3.69666 9.8822 3.53565 9.60506 3.36428 9.31098H3.36396ZM11.6361 5.68809C12.0651 5.44045 12.4942 5.19282 12.9392 4.93577C12.7682 4.64262 12.6046 4.36266 12.4351 4.07202C11.9832 4.33284 11.5548 4.58016 11.1326 4.82372C11.3024 5.11561 11.4638 5.39275 11.6361 5.68809ZM9.31193 11.6351C9.55705 12.0598 9.80437 12.4885 10.0636 12.9376C10.3565 12.7666 10.6389 12.6015 10.9271 12.4333C10.665 11.9794 10.4199 11.5541 10.1757 11.1314C9.88409 11.3015 9.60382 11.465 9.31193 11.6354V11.6351ZM4.93766 12.9367C5.19691 12.4872 5.44423 12.0585 5.6881 11.6354C5.39433 11.4644 5.11436 11.3008 4.82373 11.1317C4.57703 11.5595 4.33034 11.9879 4.07235 12.4351C4.36769 12.6065 4.64797 12.7688 4.93766 12.9367ZM5.68873 3.36333C5.4414 2.93491 5.19377 2.50618 4.93672 2.06112C4.64389 2.23155 4.36361 2.39476 4.07266 2.56424C4.33348 3.0162 4.58049 3.4443 4.82404 3.86676C5.11593 3.69696 5.39276 3.53564 5.68873 3.36333ZM3.36365 5.68809C3.53502 5.394 3.69854 5.11404 3.86802 4.82309C3.44023 4.5764 3.01181 4.32939 2.56362 4.07108C2.39257 4.36674 2.2303 4.64701 2.06301 4.93608C2.50901 5.19376 2.93429 5.43983 3.36365 5.68777V5.68809ZM7.99058 11.9895H7.00882V13.4806H7.99058V11.9895ZM1.51533 7.98837H3.00993V7.01038H1.51533V7.98837ZM7.99089 1.52065H7.01133V3.00898H7.99089V1.52065ZM13.4812 7.99245V7.00818H11.9898V7.99245H13.4812ZM9.60162 1.859C9.22153 1.75887 8.86844 1.66597 8.49809 1.56868C8.49809 2.00494 8.49809 2.40417 8.49809 2.8034C8.49809 3.0162 8.60093 3.14457 8.80661 3.18851C8.81101 3.18945 8.81634 3.18757 8.83517 3.18537C9.08124 2.75946 9.3317 2.32602 9.60162 1.859ZM9.60068 13.1379C9.34833 12.7013 9.11074 12.3043 8.88853 11.8988C8.79877 11.7349 8.69927 11.8601 8.60355 11.8605C8.49934 11.8605 8.49652 11.9298 8.49715 12.0102C8.49934 12.4392 8.49809 12.8683 8.49872 13.2973C8.49872 13.3334 8.50562 13.3692 8.5119 13.4291C8.87723 13.3315 9.22781 13.2377 9.60068 13.1382V13.1379ZM3.19605 6.16924C2.75947 5.91721 2.32634 5.66675 1.86246 5.39902C1.76328 5.77063 1.66818 6.12718 1.56869 6.50099C2.08467 6.50099 2.56205 6.50224 3.03943 6.49816C3.07051 6.49816 3.1179 6.46144 3.1292 6.43131C3.15901 6.35033 3.17345 6.26339 3.19636 6.16955L3.19605 6.16924ZM1.86152 9.5991C2.30688 9.34268 2.72432 9.10383 3.13861 8.86027C3.16435 8.84521 3.1813 8.7906 3.17847 8.75638C3.17314 8.69424 3.1565 8.63053 3.13108 8.57372C3.11696 8.54202 3.07521 8.50153 3.04571 8.50122C2.56362 8.49682 2.08153 8.49808 1.56837 8.49808C1.66755 8.87094 1.76202 9.22561 1.86152 9.59941V9.5991ZM5.39998 1.86151C5.63066 2.26105 5.84252 2.62764 6.05437 2.99423C6.17207 3.19824 6.17082 3.19102 6.39366 3.14268C6.49064 3.12165 6.50382 3.0752 6.50319 2.99203C6.50037 2.57271 6.50194 2.15371 6.50162 1.73439C6.50162 1.68794 6.49754 1.64149 6.49409 1.5693C6.12625 1.66754 5.77535 1.76139 5.40029 1.86151H5.39998ZM5.40092 13.136C5.77284 13.2358 6.1275 13.3309 6.50162 13.431C6.50162 12.9201 6.50288 12.4383 6.49849 11.9565C6.49849 11.9264 6.45957 11.8834 6.42818 11.8692C6.37137 11.8432 6.30766 11.8272 6.24551 11.8215C6.21099 11.8184 6.15575 11.8341 6.141 11.8595C5.89682 12.2738 5.65734 12.6912 5.40092 13.136ZM13.1382 5.39996C12.6928 5.6567 12.2754 5.89586 11.8611 6.13973C11.8357 6.1548 11.8194 6.20941 11.8225 6.24362C11.8278 6.30577 11.8442 6.36948 11.8696 6.42629C11.8837 6.45767 11.9261 6.49722 11.9559 6.49753C12.438 6.50193 12.9197 6.50067 13.4323 6.50067C13.3328 6.12749 13.238 5.77283 13.1385 5.39996H13.1382ZM13.4335 8.49776C12.9207 8.49776 12.4389 8.49651 11.9568 8.5009C11.9267 8.5009 11.8843 8.54045 11.8702 8.57184C11.8445 8.62864 11.8288 8.69236 11.8231 8.7545C11.82 8.78871 11.8363 8.84301 11.8614 8.85808C12.2757 9.10226 12.6928 9.34173 13.1376 9.59847C13.2364 9.23031 13.3309 8.87973 13.4335 8.49776ZM10.805 4.43485C11.2381 4.18501 11.6722 3.93455 12.1351 3.66746C11.8627 3.39503 11.6034 3.13641 11.3319 2.86523C11.063 3.33194 10.8128 3.7657 10.5592 4.20573C10.6408 4.28168 10.7149 4.35104 10.805 4.43485ZM2.85206 3.6593C3.33132 3.93549 3.76822 4.18721 4.22143 4.44834C4.26286 4.39812 4.28985 4.34696 4.33222 4.31778C4.44459 4.24057 4.42544 4.16398 4.36267 4.06261C4.22677 3.84291 4.10248 3.61598 3.97317 3.3922C3.8765 3.22523 3.77952 3.05857 3.65993 2.85299C3.38342 3.12887 3.12606 3.38561 2.85206 3.6593ZM4.45086 10.7776C4.40253 10.739 4.35545 10.7149 4.32814 10.6769C4.25031 10.5683 4.17498 10.5661 4.0623 10.6364C3.81027 10.794 3.54883 10.9365 3.29146 11.0855C3.15839 11.1624 3.02562 11.24 2.85771 11.3376C3.13202 11.6153 3.38719 11.874 3.65272 12.1429C3.69571 12.0786 3.71298 12.0554 3.72741 12.0309C3.96407 11.6216 4.2004 11.2123 4.45118 10.7776H4.45086ZM11.3404 12.1486C11.6182 11.8724 11.8758 11.6163 12.1483 11.3457C12.0645 11.2939 12.0246 11.2679 11.9832 11.244C11.654 11.0535 11.3247 10.8633 10.9955 10.6731C10.7817 10.5498 10.7795 10.5479 10.6201 10.7346C10.5966 10.762 10.5837 10.8269 10.5997 10.8552C10.8335 11.2713 11.0733 11.6847 11.3407 12.1483L11.3404 12.1486Z" fill="#410EAD"/>
<path d="M8.75551 7.24867C8.79443 7.24867 8.83398 7.2449 8.87258 7.2493C8.98463 7.26279 9.05337 7.23047 9.11331 7.11936C9.27464 6.82088 9.6293 6.68623 9.95571 6.77694C10.2796 6.86702 10.5059 7.16989 10.5015 7.50792C10.4971 7.84218 10.2733 8.13407 9.95352 8.22258C9.62773 8.31266 9.27432 8.17613 9.11175 7.87765C9.05556 7.77439 8.99405 7.7339 8.88482 7.75022C8.87039 7.75242 8.85532 7.7521 8.84088 7.75022C8.61082 7.7226 8.43318 7.74802 8.33683 8.01888C8.26244 8.22791 8.05623 8.34624 7.84846 8.43726C7.80515 8.45609 7.77407 8.52043 7.7543 8.57034C7.73924 8.60831 7.75461 8.65727 7.75053 8.7009C7.73233 8.90052 7.75367 9.05242 7.96427 9.17985C8.24455 9.34934 8.31799 9.72628 8.19622 10.0292C8.07381 10.3339 7.77596 10.5166 7.4395 10.4934C7.12187 10.4714 6.84411 10.2347 6.77255 9.92558C6.69816 9.60325 6.83344 9.26867 7.1225 9.11112C7.22576 9.05494 7.26562 8.99248 7.2493 8.88357C7.24773 8.87415 7.24836 8.86411 7.2493 8.85438C7.2719 8.62401 7.26656 8.43224 6.98032 8.33494C6.77098 8.26369 6.65297 8.05466 6.56163 7.8472C6.5428 7.80389 6.47846 7.77313 6.42824 7.75336C6.39026 7.73829 6.3413 7.75304 6.29768 7.74991C6.09994 7.73547 5.9449 7.74645 5.81904 7.96427C5.65897 8.24172 5.27261 8.31611 4.96973 8.1959C4.67094 8.07758 4.48011 7.77627 4.50051 7.45582C4.52154 7.12501 4.75317 6.84473 5.06609 6.77098C5.38936 6.69471 5.7252 6.82559 5.88338 7.11371C5.94615 7.22796 6.0174 7.26656 6.13541 7.24898C6.14483 7.24742 6.15518 7.24773 6.1646 7.24898C6.39026 7.27849 6.56289 7.25118 6.65799 6.98817C6.73363 6.77851 6.93356 6.65014 7.14573 6.57136C7.22294 6.54249 7.25903 6.50733 7.25024 6.42479C7.24491 6.37645 7.24491 6.32686 7.25024 6.27853C7.27064 6.08613 7.24208 5.94458 7.04309 5.82657C6.76878 5.66399 6.68655 5.29929 6.79577 4.99359C6.90625 4.68443 7.20567 4.48419 7.53334 4.49988C7.85882 4.51558 8.13344 4.73214 8.22164 5.04223C8.31046 5.35547 8.189 5.71044 7.90621 5.86957C7.77156 5.94521 7.73045 6.03152 7.75053 6.16931C7.75273 6.18374 7.75242 6.19881 7.75053 6.21325C7.72229 6.41726 7.75524 6.56414 7.99126 6.64418C8.1868 6.7104 8.32835 6.88616 8.39866 7.08358C8.45044 7.22953 8.52985 7.27064 8.66763 7.24961C8.69619 7.24522 8.72601 7.24898 8.75551 7.24898V7.24867ZM7.99848 7.50666C8.00194 7.22827 7.78098 7.0026 7.50353 7.00103C7.2311 6.99947 7.00794 7.21446 7.00166 7.48501C6.99507 7.76371 7.21289 7.99315 7.48909 7.99817C7.76748 8.00319 7.99503 7.78349 7.99848 7.50666ZM5.49984 7.49693C5.49796 7.3604 5.38215 7.24993 5.24405 7.25306C5.10375 7.2562 4.99986 7.36762 5.00457 7.50949C5.00928 7.64382 5.11505 7.74614 5.24938 7.74645C5.38717 7.74645 5.50173 7.63252 5.49984 7.49693ZM9.99495 7.49819C9.99432 7.35727 9.88415 7.24993 9.74386 7.25275C9.61172 7.25558 9.50313 7.3626 9.49968 7.4938C9.49591 7.62938 9.60921 7.7452 9.747 7.74645C9.88698 7.74771 9.99557 7.6388 9.99495 7.49788V7.49819ZM7.74645 5.25221C7.74771 5.11222 7.63911 5.00363 7.49788 5.00426C7.36198 5.00489 7.25777 5.10563 7.25307 5.24059C7.24836 5.37901 7.35727 5.49608 7.4938 5.49953C7.6297 5.50298 7.74488 5.38999 7.74645 5.25189V5.25221ZM7.49348 9.49936C7.35664 9.50313 7.24836 9.6202 7.25338 9.75892C7.2584 9.89922 7.37076 10.0015 7.51326 9.99495C7.64696 9.98867 7.74834 9.88102 7.74677 9.74668C7.7452 9.60858 7.62938 9.4956 7.4938 9.49968L7.49348 9.49936Z" fill="#410EAD"/>
</svg>
