<svg width="15" height="15" viewBox="0 0 15 15" fill="none" xmlns="http://www.w3.org/2000/svg">
<path d="M9.03795 7.25098C8.28737 7.25098 7.57758 6.95802 6.98962 6.58053C7.32103 6.78102 7.70967 6.89638 8.12504 6.89638C9.33854 6.89638 10.3222 5.91272 10.3222 4.69922C10.3222 3.48571 9.09196 2.50205 7.81418 2.50205C5.88384 2.50205 3.98463 3.68121 2.90527 5.44687C3.15185 3.00372 4.26144 1.04521 6.43013 0.117319C6.91359 -0.0144815 7.22122 0.00019598 7.49921 0.00019598C9.41838 0.00019598 11.1691 0.721135 12.4956 1.90675C12.6934 2.36497 12.8901 2.88219 12.8901 3.41321C12.8901 5.49853 11.123 7.25098 9.03766 7.25098H9.03795Z" fill="url(#paint0_linear_349_1251)"/>
<path d="M15.0001 7.50022C15.0001 8.64885 14.6631 10.0341 14.1506 10.9716C12.9444 12.2277 11.371 12.7881 9.49234 12.7881C8.92786 12.7881 8.38686 12.6774 7.86377 12.5447C8.99038 12.4543 10.043 11.9565 10.8547 11.2646C13.0982 10.7298 14.7071 8.75012 14.7071 6.34278C14.7071 5.79063 14.6513 5.27165 14.489 4.7738C14.819 5.61891 15.0001 6.53858 15.0001 7.50051V7.50022Z" fill="#410EAD"/>
<path d="M9.49226 9.49219C8.72201 9.49219 8.10175 9.25853 7.45361 8.9415C7.90831 9.14229 8.41144 9.25412 8.9407 9.25412C10.4433 9.25412 11.7314 8.33593 12.3047 7.04581C13.0286 6.38446 13.3741 5.45217 13.3741 4.39454C13.3741 3.43143 13.1105 2.5552 12.4967 1.90706C13.3679 2.68583 14.056 3.66538 14.4886 4.77262C14.722 7.26567 12.2498 9.49219 9.62436 9.49219H9.49256H9.49226Z" fill="#410EAD"/>
<path d="M9.02771 7.17708C11.113 7.17708 12.8038 5.48657 12.8038 3.40125C12.8038 2.87023 12.6941 2.36505 12.4962 1.90654C13.1103 2.55468 13.4872 3.43002 13.4872 4.39372C13.4872 6.39127 11.8677 8.01074 9.87018 8.01074C8.69425 8.01074 7.64953 7.44949 6.98877 6.58002C7.57673 6.9581 8.27654 7.17738 9.02771 7.17738V7.17708Z" fill="#7B3FE4"/>
<path d="M9.6006 9.43649C12.2263 9.43649 14.3689 7.36819 14.4884 4.77211C14.651 5.27025 14.7391 5.80215 14.7391 6.35459C14.7391 9.17054 12.4565 11.4531 9.64052 11.4531C6.82458 11.4531 4.54199 9.17054 4.54199 6.35459C4.54199 5.8814 4.60687 5.42318 4.72751 4.98845C4.95266 7.48209 7.04825 9.43649 9.6006 9.43649Z" fill="#7B3FE4"/>
<path d="M2.87172 6.12035C2.87172 9.78053 5.83884 12.7477 9.49902 12.7477C11.3777 12.7477 13.0738 11.966 14.2799 10.7099C13.077 13.2461 10.4932 15 7.5 15C3.35783 15 0 11.6422 0 7.5C0 3.35783 3.03581 0.332294 6.89501 0.0243673C4.52935 1.03621 2.87172 3.38484 2.87172 6.12035Z" fill="url(#paint1_linear_349_1251)"/>
<defs>
<linearGradient id="paint0_linear_349_1251" x1="1.69742" y1="7.96512" x2="12.1949" y2="-0.957823" gradientUnits="userSpaceOnUse">
<stop stop-color="#410EAD"/>
<stop offset="0.539681" stop-color="#7B3FE4"/>
<stop offset="1" stop-color="#7B3FE4"/>
</linearGradient>
<linearGradient id="paint1_linear_349_1251" x1="-1.72742" y1="16.4749" x2="17.4785" y2="5.16985" gradientUnits="userSpaceOnUse">
<stop offset="0.166667" stop-color="#7B3FE4"/>
<stop offset="0.421875" stop-color="#410EAD"/>
<stop offset="0.700358" stop-color="#410EAD"/>
</linearGradient>
</defs>
</svg>
