<svg width="15" height="17" viewBox="0 0 15 17" fill="none" xmlns="http://www.w3.org/2000/svg">
<path d="M7.30275 16.9991C7.02662 16.9197 6.76285 16.819 6.55686 16.6039C6.22781 16.2597 6.10254 15.8503 6.1934 15.3855C6.21855 15.2568 6.18017 15.212 6.08357 15.1561C5.23492 14.6669 4.38846 14.1737 3.54113 13.6818C3.49349 13.6543 3.44409 13.629 3.39954 13.597C3.26854 13.5026 3.23413 13.3473 3.31221 13.2174C3.39028 13.087 3.54201 13.0395 3.68537 13.1162C3.90327 13.2333 4.11587 13.3611 4.3298 13.4853C5.02011 13.8858 5.71041 14.2863 6.40072 14.6869C6.43336 14.7059 6.46688 14.7237 6.45762 14.7183C6.70772 14.5866 6.92958 14.4717 7.14836 14.3515C7.17924 14.3347 7.21453 14.2899 7.21453 14.2579C7.21806 13.4675 7.21762 12.6771 7.21762 11.861C7.14483 11.861 7.08705 11.861 7.02883 11.861C6.39586 11.861 5.76246 11.8406 5.13082 11.8667C4.48683 11.8933 4.1022 11.4161 4.15733 10.9016C4.16086 10.8701 4.1538 10.8381 4.14983 10.7729C3.62979 11.0741 3.12827 11.3646 2.61572 11.6618C2.696 11.9346 2.69997 12.2061 2.61572 12.4775C2.40312 13.1641 1.69076 13.5598 0.993837 13.3762C0.305296 13.1943 -0.121679 12.4837 0.0366722 11.7829C0.0834277 11.5758 0.212667 11.4684 0.375429 11.5021C0.551865 11.5385 0.629938 11.6858 0.586711 11.9013C0.498493 12.3422 0.760942 12.7543 1.18527 12.8403C1.61754 12.9277 2.02466 12.6416 2.10538 12.1932C2.18257 11.7634 1.86411 11.3584 1.40229 11.2994C1.11381 11.2626 1.05912 11.2005 1.05912 10.9069C1.05912 9.40766 1.05691 7.908 1.06221 6.40878C1.06221 6.28148 1.0256 6.2318 0.905178 6.19099C0.298238 5.98651 -0.0806577 5.35578 0.0146177 4.73036C0.11254 4.08854 0.655521 3.59486 1.27834 3.58156C1.47771 3.57712 1.60563 3.67382 1.6193 3.83882C1.63342 4.0056 1.50771 4.12846 1.30436 4.14753C0.866803 4.1879 0.563334 4.5108 0.567744 4.9313C0.571714 5.33626 0.879154 5.66449 1.28849 5.70086C1.67885 5.73546 2.04672 5.44715 2.10009 5.03464C2.11818 4.89404 2.08818 4.73569 2.03922 4.6004C1.93953 4.32451 1.9585 4.23536 2.21345 4.08721C3.49879 3.34159 4.78368 2.59464 6.07078 1.85213C6.17973 1.78915 6.22075 1.7377 6.1912 1.59709C6.07872 1.05595 6.3275 0.500175 6.78843 0.208315C7.25026 -0.0844313 7.83646 -0.0675761 8.27888 0.252227C8.31461 0.277954 8.34945 0.305454 8.38165 0.335172C8.51751 0.459368 8.53868 0.622596 8.43679 0.746348C8.33357 0.871875 8.17037 0.887399 8.02613 0.771187C7.81617 0.601306 7.58857 0.524571 7.32039 0.592878C6.97722 0.680259 6.75138 0.951271 6.73198 1.3039C6.71345 1.64588 6.90753 1.94927 7.22379 2.07169C7.54226 2.195 7.8991 2.0952 8.11303 1.82241C8.33004 1.54564 8.38827 1.5341 8.68556 1.7062C9.96605 2.44916 11.2465 3.19211 12.5275 3.93507C12.5702 3.95991 12.6135 3.98386 12.6642 4.01269C12.7043 3.97721 12.744 3.94172 12.7846 3.90668C13.231 3.5168 13.901 3.472 14.3955 3.79801C14.8913 4.12536 15.1149 4.745 14.9407 5.30965C14.8776 5.51457 14.7453 5.60417 14.5794 5.55449C14.4109 5.50393 14.3483 5.36421 14.4008 5.15574C14.5124 4.71218 14.2998 4.30766 13.8887 4.1808C13.4952 4.05927 13.0801 4.26507 12.9372 4.65274C12.7718 5.10162 13.0418 5.58864 13.5093 5.68224C13.5684 5.69421 13.6289 5.69865 13.6888 5.70752C13.8454 5.73014 13.9363 5.82329 13.9416 5.98341C13.9478 6.17148 13.9438 6.35954 13.9438 6.54761C13.9438 7.99715 13.9438 9.44669 13.9438 10.8967C13.9438 11.2027 13.8931 11.2608 13.594 11.3003C13.1794 11.3553 12.8816 11.6853 12.8865 12.0841C12.8914 12.4762 13.1966 12.8155 13.5755 12.8497C13.9888 12.8869 14.35 12.6314 14.4162 12.2238C14.4396 12.0788 14.4083 11.9164 14.3686 11.7718C14.3095 11.5576 14.35 11.4099 14.5225 11.3469C14.6839 11.2879 14.8172 11.3664 14.9005 11.57C15.1365 12.1448 14.9415 12.8159 14.4334 13.177C13.9279 13.5367 13.2425 13.4964 12.7701 13.0799C12.7374 13.051 12.7057 13.0204 12.6664 12.9845C12.0568 13.3389 11.4485 13.6924 10.8398 14.0455C10.1068 14.4708 9.37322 14.8958 8.63969 15.3198C8.39974 15.4586 8.29961 15.4369 8.13993 15.216C7.87043 14.8443 7.38567 14.7645 7.03456 15.0342C6.68831 15.2999 6.627 15.8037 6.89915 16.1417C7.18012 16.4912 7.65959 16.5316 8.01555 16.2362C8.18404 16.0965 8.35474 16.0929 8.46502 16.2269C8.5722 16.3573 8.55765 16.5431 8.38342 16.6558C8.17037 16.7933 7.92953 16.8873 7.70061 17H7.30451L7.30275 16.9991ZM4.72105 8.4997C4.72105 9.30165 4.72105 10.104 4.72105 10.906C4.72105 11.2156 4.80088 11.2941 5.11362 11.2941C5.5428 11.2941 5.97198 11.2941 6.40072 11.2941C7.57269 11.2941 8.74423 11.2941 9.9162 11.2941C10.1919 11.2941 10.2783 11.2054 10.2797 10.9259C10.2805 10.749 10.2942 10.5707 10.2766 10.395C10.2461 10.0881 10.4773 9.88404 10.7984 10.0814C11.3744 10.4363 11.9677 10.7627 12.5517 11.1056C12.6355 11.1548 12.6827 11.1477 12.7643 11.0887C12.9227 10.9739 13.0969 10.878 13.2742 10.7951C13.3523 10.7587 13.3823 10.7277 13.3823 10.6425C13.3801 9.21516 13.3796 7.78779 13.3827 6.36088C13.3827 6.26462 13.3439 6.23801 13.2628 6.20031C13.0903 6.12002 12.92 6.02688 12.7683 5.91244C12.6801 5.84591 12.6289 5.84724 12.5416 5.89869C12.0921 6.16527 11.6479 6.44426 11.183 6.68112C10.917 6.81641 10.8129 6.97564 10.8363 7.27904C10.8672 7.68045 10.8443 8.08631 10.8425 8.48994C10.8421 8.6341 10.7737 8.73434 10.6321 8.76894C10.4998 8.80132 10.3851 8.75874 10.3255 8.63587C10.2911 8.56535 10.2827 8.47619 10.2827 8.39546C10.2797 7.62634 10.2814 6.85766 10.281 6.08853C10.281 5.78691 10.1994 5.70441 9.90076 5.70441C8.30005 5.70441 6.69889 5.70441 5.09818 5.70441C4.8075 5.70441 4.72281 5.78825 4.72237 6.07611C4.72193 6.88383 4.72237 7.69154 4.72237 8.49926L4.72105 8.4997ZM2.36871 11.1464C2.38989 11.1349 2.44326 11.1074 2.49487 11.0772C2.99947 10.7845 3.50232 10.4886 4.01001 10.2012C4.1194 10.1395 4.16086 10.0721 4.16042 9.94303C4.15513 8.64829 4.15601 7.35355 4.15777 6.05881C4.15822 5.47909 4.49477 5.13932 5.06818 5.13799C5.71747 5.13622 6.36675 5.13755 7.01604 5.13755C7.07514 5.13755 7.13469 5.13755 7.19468 5.13755C7.20482 5.10073 7.21497 5.08033 7.21541 5.05993C7.21673 4.2908 7.21806 3.52168 7.21453 2.75299C7.21453 2.71618 7.17792 2.66473 7.14395 2.64565C6.92605 2.52412 6.70419 2.40968 6.45718 2.27883C5.20272 3.00671 3.90944 3.7572 2.65013 4.48774V5.35622C2.842 5.46755 3.06034 5.5851 3.26766 5.71994C3.33955 5.76695 3.42292 5.85256 3.43086 5.92796C3.43968 6.01712 3.39425 6.13289 3.33338 6.20253C3.24913 6.29833 3.12518 6.28503 3.01447 6.22116C2.78731 6.09075 2.56015 5.9599 2.37312 5.85212C2.10759 6.00514 1.87646 6.13821 1.63209 6.27882V10.7153C1.88749 10.8647 2.11773 10.9991 2.3696 11.146L2.36871 11.1464ZM10.8421 6.2318C11.3753 5.92264 11.8768 5.63167 12.3506 5.35711V4.48774C11.0847 3.75277 9.78873 3.0005 8.53691 2.27395C8.31019 2.40303 8.12758 2.52545 7.92909 2.61239C7.82147 2.6594 7.77912 2.7011 7.78 2.8213C7.78574 3.53454 7.78265 4.24733 7.78309 4.96057C7.78309 5.0138 7.78883 5.06747 7.7928 5.13799C7.87131 5.13799 7.93571 5.13799 8.00055 5.13799C8.67101 5.13799 9.3419 5.13311 10.0124 5.1411C10.4843 5.14686 10.8262 5.4986 10.8416 5.97321C10.8438 6.04462 10.8416 6.11648 10.8416 6.23224L10.8421 6.2318ZM12.3501 11.6414C11.8755 11.366 11.374 11.0754 10.8509 10.772C10.8469 10.8386 10.8398 10.8758 10.8438 10.9118C10.8954 11.413 10.5156 11.8916 9.87783 11.8667C9.24663 11.8419 8.61366 11.8614 7.98158 11.8614H7.80956C7.79677 11.8951 7.78618 11.9102 7.78618 11.9253C7.78442 12.6993 7.78265 13.4728 7.78574 14.2469C7.78574 14.2837 7.82235 14.3356 7.85631 14.3542C8.07421 14.4757 8.29608 14.5897 8.54486 14.721C9.79711 13.994 11.0891 13.2435 12.3501 12.5117V11.6418V11.6414Z" fill="#410EAD"/>
<path d="M6.46284 8.79866C6.08659 8.74455 5.98205 8.67757 5.98646 8.4935C5.99087 8.30987 6.09629 8.24511 6.47872 8.20119C6.47872 7.90623 6.47828 7.60905 6.47872 7.31187C6.4796 7.03775 6.57443 6.93795 6.84482 6.9415C7.13594 6.94505 7.43059 6.92996 7.71686 6.97166C8.49714 7.08521 9.05998 7.798 9.01366 8.57999C8.96646 9.37972 8.3335 10.018 7.54263 10.0544C7.28988 10.0659 7.0367 10.0615 6.78351 10.057C6.58855 10.0535 6.48225 9.94215 6.4796 9.74122C6.47519 9.43694 6.47695 9.13266 6.47519 8.82838C6.47519 8.81818 6.46725 8.80798 6.46284 8.79822V8.79866ZM7.04861 9.49106C7.21181 9.49106 7.36443 9.4986 7.51616 9.48972C8.00709 9.46045 8.38422 9.09629 8.4473 8.59773C8.5042 8.14974 8.20603 7.67736 7.75479 7.55937C7.53248 7.50126 7.29253 7.51014 7.04949 7.48751V8.20918C7.26474 8.21938 7.52763 8.19099 7.52719 8.50059C7.52675 8.80887 7.26342 8.78048 7.04816 8.78979V9.49106H7.04861Z" fill="#410EAD"/>
</svg>
