<svg width="16" height="15" viewBox="0 0 16 15" fill="none" xmlns="http://www.w3.org/2000/svg">
<path d="M0.000391313 13.3304C0.00861027 13.3136 0.0211344 13.2975 0.0250482 13.2799C0.247743 12.2275 1.3436 11.7496 2.26021 12.3062C2.28017 12.3183 2.30052 12.33 2.33731 12.3519C2.34005 12.287 2.34436 12.2365 2.34436 12.1856C2.34436 11.0334 2.34436 9.88117 2.34436 8.72895C2.34436 8.47573 2.39876 8.40254 2.64102 8.33248C2.87507 8.26477 3.1095 8.19785 3.34433 8.1321C3.55255 8.07378 3.70518 8.14345 3.75685 8.31722C3.80812 8.48982 3.71536 8.63306 3.50793 8.6949C3.32124 8.75048 3.13338 8.80214 2.93847 8.85771V9.89291C3.29071 9.7935 3.63708 9.69722 3.98267 9.59859C4.79361 9.36768 5.60376 9.13364 6.41587 8.90742C6.52859 8.87611 6.57203 8.83423 6.56734 8.71095C6.55638 8.42367 6.56381 8.13562 6.56381 7.82721C6.41039 7.86909 6.26871 7.90862 6.12586 7.94619C5.93252 7.99746 5.78106 7.91997 5.73448 7.74698C5.69026 7.58417 5.77949 7.43975 5.96579 7.38456C6.22762 7.30707 6.48945 7.23075 6.75324 7.1603C6.9775 7.10042 7.14814 7.22684 7.14814 7.45775C7.14971 9.09802 7.15558 10.7387 7.14501 12.3789C7.14032 13.1417 6.50237 13.7699 5.7427 13.7965C4.96464 13.8239 4.30047 13.2427 4.22415 12.4666C4.15018 11.7163 4.68285 11.0244 5.43273 10.8921C5.79515 10.8283 6.13056 10.8976 6.44562 11.0815C6.4781 11.1003 6.50941 11.1211 6.56381 11.1543V9.471C6.19709 9.5755 5.84642 9.67609 5.49535 9.77589C4.68441 10.0064 3.87387 10.2393 3.06137 10.4647C2.95648 10.4937 2.92712 10.5383 2.92751 10.644C2.93182 11.5668 2.92986 12.4893 2.92986 13.4122C2.92986 14.2591 2.51852 14.7804 1.69193 14.9824C1.68371 14.9844 1.67706 14.9941 1.67001 15.0004H1.25985C1.25633 14.9969 1.25359 14.991 1.24967 14.9902C0.568673 14.8446 0.154203 14.4333 0.0101758 13.7507C0.00939303 13.7468 0.00352241 13.7441 0 13.7406C0 13.604 0 13.467 0 13.3304H0.000391313ZM4.80652 12.3382C4.80887 12.8189 5.20573 13.213 5.68713 13.2118C6.16774 13.211 6.56303 12.8153 6.56381 12.3343C6.5646 11.8459 6.16656 11.4518 5.67578 11.4549C5.19438 11.4584 4.80418 11.8545 4.80652 12.3379V12.3382ZM1.45241 14.4141C1.93498 14.4196 2.33653 14.0313 2.34358 13.5519C2.35062 13.0682 1.96472 12.6662 1.48489 12.6572C0.994885 12.6482 0.590199 13.0392 0.586285 13.5265C0.582372 14.009 0.971793 14.4086 1.45202 14.4141H1.45241Z" fill="#410EAD"/>
<path d="M11.3599 4.8875V4.71059C11.3599 3.56777 11.3599 2.42533 11.3599 1.28251C11.3599 0.997583 11.4041 0.940051 11.68 0.860209C12.6354 0.584679 13.5911 0.308756 14.5465 0.0332257C14.8467 -0.0532691 15.0028 0.0657102 15.0032 0.383901C15.0036 0.872342 15.0032 1.36039 15.0032 1.84883C15.0032 2.09931 14.9441 2.17876 14.7054 2.24726C13.8432 2.495 12.9821 2.74666 12.118 2.98579C11.9747 3.02532 11.9418 3.08872 11.9426 3.22649C11.9485 4.15444 11.9481 5.08201 11.9446 6.00997C11.9418 6.71171 11.5399 7.27569 10.9145 7.46903C10.2765 7.66629 9.58222 7.40602 9.23272 6.8393C8.88439 6.27376 8.95915 5.54775 9.41549 5.06636C9.8781 4.57831 10.599 4.46637 11.1877 4.79122C11.2374 4.81861 11.2867 4.84679 11.3591 4.8875H11.3599ZM11.9465 2.4085C11.9708 2.41242 11.981 2.41751 11.9892 2.41516C12.7755 2.19011 13.5618 1.96507 14.3469 1.73611C14.3762 1.7275 14.4138 1.67897 14.4142 1.64845C14.4193 1.33221 14.4173 1.01598 14.4173 0.700918C14.3966 0.69857 14.3864 0.694656 14.3778 0.697004C13.5915 0.922047 12.8052 1.14709 12.0201 1.37644C11.9896 1.38544 11.9501 1.43319 11.9497 1.46332C11.9446 1.77917 11.9465 2.0954 11.9465 2.4085ZM10.4793 6.94693C10.9634 6.94693 11.3552 6.5579 11.3583 6.07416C11.3614 5.5955 10.9665 5.1959 10.4859 5.19042C10.0002 5.18495 9.60101 5.58493 9.60296 6.07455C9.60492 6.56025 9.99317 6.94693 10.4789 6.94693H10.4793Z" fill="#410EAD"/>
<path d="M9.81625 13.1398C9.86674 12.8443 9.89414 12.5147 9.98337 12.2028C10.084 11.851 10.0162 11.5997 9.72115 11.3743C9.48632 11.1946 9.29141 10.9633 9.07654 10.757C8.97831 10.6627 8.91882 10.559 8.96422 10.4185C9.00962 10.2784 9.11803 10.2279 9.25266 10.2087C9.67261 10.1488 10.093 10.0901 10.5113 10.0216C10.5661 10.0126 10.6334 9.96255 10.6589 9.91284C10.8507 9.54025 11.035 9.16374 11.2174 8.78645C11.2773 8.66278 11.3579 8.57159 11.5015 8.56846C11.6526 8.56493 11.7391 8.65691 11.8013 8.78567C11.9817 9.15826 12.1684 9.52851 12.3481 9.90149C12.3853 9.97899 12.4287 10.0173 12.5191 10.0287C12.9109 10.0792 13.3011 10.1402 13.6917 10.1974C13.7062 10.1993 13.7206 10.2017 13.7351 10.2032C13.8776 10.2205 14.0056 10.2635 14.0545 10.4169C14.103 10.5692 14.0263 10.6768 13.9218 10.7774C13.6298 11.058 13.3434 11.3445 13.0494 11.6236C12.9813 11.6881 12.961 11.7468 12.9778 11.8396C13.0533 12.2521 13.1187 12.6662 13.1911 13.0791C13.2138 13.2094 13.1958 13.3241 13.085 13.4067C12.9688 13.4932 12.849 13.474 12.7277 13.4098C12.3575 13.2133 11.9849 13.0212 11.6162 12.8216C11.5383 12.7793 11.4804 12.7805 11.4025 12.8224C11.0252 13.0259 10.6452 13.2259 10.2632 13.4204C10.0401 13.5339 9.81664 13.4032 9.81586 13.1398H9.81625ZM13.1007 10.7066C12.8346 10.6666 12.5575 10.6154 12.2784 10.5868C12.0851 10.5672 11.9708 10.4776 11.8929 10.3034C11.7782 10.0471 11.6456 9.79856 11.509 9.52381C11.363 9.81891 11.228 10.0874 11.0972 10.3582C11.0346 10.4882 10.9403 10.5649 10.7939 10.577C10.7164 10.5837 10.6393 10.5974 10.5622 10.6091C10.3434 10.642 10.1243 10.6756 9.92114 10.707C10.1254 10.9242 10.3211 11.141 10.527 11.3476C10.6409 11.4619 10.6957 11.5817 10.6503 11.7414C10.6342 11.7973 10.6291 11.8564 10.6198 11.914C10.581 12.1461 10.5426 12.3785 10.5 12.6357C10.7771 12.4905 11.0307 12.3664 11.2749 12.2259C11.4424 12.1296 11.5896 12.1351 11.7551 12.2302C11.9982 12.3699 12.2506 12.4928 12.5219 12.6345C12.471 12.339 12.4326 12.0693 12.3759 11.8032C12.3332 11.6024 12.3739 11.4506 12.5305 11.3065C12.7308 11.1222 12.9074 10.9124 13.1019 10.7058L13.1007 10.7066Z" fill="#410EAD"/>
<path d="M0.762607 3.78307C0.814661 3.48249 0.867497 3.1553 0.930118 2.82967C0.953209 2.70874 0.934423 2.62303 0.837361 2.53536C0.606056 2.32558 0.390015 2.09975 0.164189 1.8841C0.0616479 1.78626 0.0213359 1.67354 0.0683013 1.54086C0.114484 1.41132 0.223287 1.36435 0.353225 1.34635C0.676895 1.30173 0.999 1.2485 1.32306 1.20819C1.40877 1.19762 1.45026 1.16123 1.48509 1.08921C1.62442 0.7992 1.76923 0.51232 1.90896 0.222699C1.9704 0.0958925 2.0522 -0.000778038 2.20484 4.71978e-06C2.35748 0.00117886 2.43732 0.0982408 2.49837 0.22583C2.63535 0.511146 2.78056 0.792938 2.91715 1.07864C2.95394 1.15575 2.99503 1.19645 3.0874 1.2078C3.41146 1.24733 3.73396 1.30095 4.05723 1.34635C4.19304 1.36553 4.29832 1.41993 4.34411 1.55848C4.38834 1.69311 4.33355 1.79526 4.2404 1.88606C4.00988 2.11071 3.7821 2.33888 3.54649 2.55806C3.4686 2.63085 3.45295 2.69934 3.47291 2.80189C3.53474 3.12243 3.58836 3.44453 3.63689 3.76742C3.66429 3.95019 3.58327 4.08952 3.42672 4.11418C3.34727 4.1267 3.25099 4.10518 3.17741 4.06878C2.89758 3.93101 2.62205 3.78503 2.34926 3.63396C2.25063 3.57916 2.17235 3.57095 2.06864 3.62926C1.7845 3.78933 1.49409 3.93962 1.20252 4.086C0.975909 4.19989 0.75204 4.05508 0.762999 3.78229L0.762607 3.78307ZM2.20406 0.957317C2.10112 1.16397 2.00445 1.34752 1.91717 1.53538C1.85299 1.67354 1.75084 1.74164 1.60172 1.75964C1.40134 1.78391 1.20213 1.81757 0.988824 1.84966C1.13481 1.99878 1.25927 2.14163 1.40055 2.26531C1.54693 2.39407 1.58255 2.54005 1.54184 2.724C1.50231 2.90325 1.47883 3.08603 1.44282 3.29855C1.64751 3.1917 1.82951 3.10325 2.00484 3.00345C2.14222 2.92478 2.26824 2.92791 2.40444 3.00423C2.58095 3.10325 2.76255 3.19248 2.96294 3.29698C2.92811 3.08446 2.90893 2.89503 2.86353 2.71226C2.81774 2.52792 2.86823 2.39407 3.00443 2.26922C3.1461 2.13928 3.27409 1.99447 3.41576 1.84849C3.20325 1.81679 3.00169 1.78234 2.79934 1.75808C2.65532 1.74086 2.55591 1.67511 2.49368 1.5436C2.40444 1.35535 2.30934 1.16944 2.20445 0.957709L2.20406 0.957317Z" fill="#410EAD"/>
<path d="M7.14903 2.96812C7.14903 3.02174 7.15295 3.07575 7.14825 3.12937C7.13377 3.29101 7.01518 3.4006 6.85863 3.40138C6.69621 3.40216 6.57527 3.28788 6.56588 3.11802C6.5604 3.02057 6.56118 2.92272 6.56549 2.82527C6.57292 2.6515 6.70286 2.52352 6.86293 2.52743C7.01909 2.53095 7.13964 2.65424 7.14942 2.82214C7.15216 2.87067 7.14982 2.91959 7.14982 2.96852C7.14982 2.96852 7.14942 2.96852 7.14903 2.96852V2.96812Z" fill="#410EAD"/>
<path d="M5.81781 4.27997C5.76458 4.27997 5.71057 4.28428 5.65773 4.27919C5.51096 4.26471 5.4049 4.1563 5.39355 4.01501C5.3822 3.8749 5.47104 3.73517 5.6139 3.7156C5.75597 3.69643 5.90469 3.69643 6.04715 3.71521C6.1904 3.734 6.28002 3.87333 6.26907 4.01344C6.2585 4.15591 6.15322 4.26471 6.00645 4.27919C5.94383 4.28545 5.88043 4.28036 5.81741 4.28036L5.81781 4.27997Z" fill="#410EAD"/>
<path d="M7.88359 4.27992C7.82528 4.27992 7.76657 4.28462 7.70904 4.27914C7.56266 4.26466 7.4566 4.15586 7.44525 4.01457C7.43429 3.87446 7.52274 3.73473 7.66599 3.71556C7.80806 3.69638 7.95678 3.69638 8.09924 3.71556C8.24249 3.73434 8.33172 3.87406 8.32076 4.01379C8.30981 4.15625 8.20492 4.26466 8.05815 4.27914C8.00062 4.28501 7.94191 4.27992 7.88359 4.27992Z" fill="#410EAD"/>
<path d="M7.14742 5.02511C7.14742 5.08381 7.15368 5.14291 7.14624 5.20044C7.12628 5.3523 7.00496 5.45406 6.85349 5.45249C6.7032 5.45093 6.5807 5.34604 6.56857 5.19262C6.55918 5.07638 6.55918 4.95779 6.56857 4.84155C6.58031 4.69282 6.70986 4.58011 6.85388 4.57815C6.9983 4.57619 7.12746 4.68578 7.14624 4.8345C7.15407 4.89712 7.14742 4.96131 7.14742 5.02471V5.02511Z" fill="#410EAD"/>
<path d="M4.73555 8.3244C4.57548 8.31892 4.45063 8.18703 4.45572 8.02774C4.46041 7.87158 4.597 7.74047 4.75199 7.74321C4.91441 7.74634 5.04826 7.88958 5.03887 8.05122C5.02987 8.2113 4.89797 8.32988 4.73516 8.3244H4.73555Z" fill="#410EAD"/>
</svg>
