<svg width="15" height="15" viewBox="0 0 15 15" fill="none" xmlns="http://www.w3.org/2000/svg">
<path d="M14.0251 12.1583C14.0251 12.7886 14.0072 13.4036 14.0303 14.0169C14.0526 14.6036 13.6144 15.0147 13.0386 14.9998C12.1849 14.9771 11.3305 14.9856 10.4764 14.9977C10.0852 15.0034 9.75923 14.9057 9.53488 14.5536C9.50289 14.575 9.47819 14.5895 9.45592 14.6069C9.12183 14.8685 8.74036 14.9937 8.31718 14.9937C6.06804 14.9941 3.81931 14.9977 1.57018 14.9925C0.415647 14.9897 -0.331499 13.8296 0.146756 12.8027C0.224102 12.6364 0.329391 12.5601 0.519721 12.5621C1.23731 12.5702 1.95489 12.5653 2.67247 12.5653C2.7316 12.5653 2.79113 12.5653 2.86604 12.5653V12.3545C2.86604 10.1074 2.86604 7.86036 2.86604 5.61327C2.86604 5.3072 2.93124 5.24219 3.24104 5.24219C5.4193 5.24219 7.59757 5.24219 9.77583 5.24219C10.0787 5.24219 10.1419 5.30518 10.1419 5.60317C10.1419 6.98373 10.1419 8.36429 10.1419 9.74444C10.1419 9.79976 10.1419 9.85467 10.1419 9.93503C10.1933 9.90393 10.231 9.88496 10.265 9.86033C10.5926 9.62411 10.9194 9.38789 11.2462 9.15046C11.5856 8.90415 11.8549 8.89971 12.1898 9.14198C13.028 9.74807 13.8663 10.3542 14.7021 10.9635C14.9759 11.163 15.0682 11.486 14.9488 11.7803C14.822 12.0921 14.4899 12.2633 14.1587 12.1882C14.1198 12.1793 14.0809 12.1704 14.0242 12.1575L14.0251 12.1583ZM8.98374 10.7684C9.16556 10.6437 9.34455 10.5145 9.53083 10.3962C9.6264 10.3356 9.66083 10.2661 9.66042 10.1511C9.65597 8.73577 9.65759 7.32089 9.65759 5.90561C9.65759 5.85151 9.65759 5.7974 9.65759 5.73764H3.35199C3.35199 5.81436 3.35199 5.87937 3.35199 5.94438C3.35199 8.34167 3.34997 10.739 3.35361 13.1359C3.35442 13.639 3.19366 14.0723 2.84904 14.4389C2.83405 14.4546 2.82271 14.474 2.80692 14.4962H4.42837C3.72658 13.7448 3.61967 12.9287 4.09509 12.0315C3.97644 11.9633 3.8918 11.8724 3.93716 11.7258C3.98413 11.5736 4.10805 11.5417 4.25059 11.5486C4.30607 11.551 4.36317 11.557 4.41703 11.547C4.49316 11.5328 4.5782 11.5223 4.63935 11.4807C5.30672 11.0293 6.16604 11.0265 6.83341 11.4787C6.87755 11.5086 6.9302 11.5449 6.9796 11.5453C7.46393 11.5502 7.94826 11.5482 8.44393 11.5482C8.44919 11.2243 8.6294 11.0204 8.88169 10.8625C8.92218 10.8371 8.95337 10.7967 8.9886 10.7632L8.98374 10.768V10.7684ZM12.8648 14.5104C12.9454 14.5104 13.0005 14.5104 13.056 14.5104C13.4014 14.51 13.5399 14.3715 13.5399 14.0242C13.5403 13.3293 13.5423 12.634 13.5363 11.939C13.5359 11.8756 13.501 11.7892 13.4528 11.7533C12.9098 11.3507 12.3607 10.9566 11.8148 10.5577C11.7549 10.5137 11.7107 10.5019 11.6431 10.5512C11.0895 10.9562 10.5323 11.3568 9.97872 11.7618C9.94349 11.7876 9.90744 11.8409 9.90744 11.8817C9.9038 12.6323 9.90178 13.3826 9.90947 14.1332C9.91149 14.3287 10.048 14.4768 10.2298 14.5011C10.3468 14.5168 10.4679 14.5039 10.5971 14.5039C10.5971 14.4365 10.5971 14.382 10.5971 14.3274C10.5971 13.7634 10.5971 13.1993 10.5971 12.6352C10.5971 12.3222 10.7263 12.1914 11.0353 12.1906C11.5001 12.1898 11.965 12.1894 12.4299 12.1906C12.7308 12.1914 12.8636 12.3238 12.8644 12.6243C12.8657 13.1936 12.8644 13.7625 12.8644 14.3319C12.8644 14.386 12.8644 14.4401 12.8644 14.5108L12.8648 14.5104ZM7.04521 14.5023C7.54209 14.5023 8.02034 14.5192 8.49738 14.4962C8.82013 14.4809 9.09915 14.325 9.31013 14.0771C9.36885 14.008 9.40935 13.9031 9.41421 13.8122C9.42797 13.551 9.41907 13.2889 9.41907 13.0268C9.41907 12.7406 9.41907 12.4543 9.41907 12.166C9.1634 12.2109 8.92515 12.1747 8.70432 12.0573C8.68285 12.046 8.65815 12.0343 8.63466 12.0343C8.22282 12.0331 7.81058 12.0331 7.38496 12.0331C7.85795 12.9388 7.74902 13.7516 7.04521 14.5023ZM5.74003 11.6253C4.94307 11.6253 4.29311 12.2705 4.29068 13.0628C4.28825 13.8586 4.94712 14.5132 5.74691 14.5104C6.53941 14.5071 7.1922 13.8526 7.18937 13.0636C7.18654 12.2709 6.53577 11.6253 5.74003 11.6253ZM2.85147 13.0499C2.11242 13.0499 1.38066 13.0482 0.649308 13.0543C0.609622 13.0543 0.549283 13.1149 0.53511 13.1589C0.354904 13.7201 0.71815 14.3448 1.29724 14.4797C2.13591 14.6747 2.96161 13.9281 2.85147 13.0499ZM14.5102 11.4731C14.4818 11.4416 14.4365 11.3701 14.3729 11.3237C13.5541 10.7265 12.7312 10.1353 11.9132 9.53689C11.7763 9.43675 11.6674 9.44079 11.5329 9.53891C10.7271 10.128 9.91716 10.7119 9.10927 11.2978C9.06473 11.3301 9.01654 11.3616 8.98171 11.4032C8.9157 11.4832 8.90841 11.5845 8.98738 11.6467C9.04367 11.6911 9.13843 11.7024 9.21537 11.7004C9.26235 11.6992 9.30932 11.6471 9.35427 11.6144C10.065 11.1004 10.7753 10.5855 11.4864 10.0711C11.703 9.91443 11.7512 9.91443 11.9675 10.0711C12.6818 10.5888 13.3962 11.1068 14.1105 11.6245C14.151 11.654 14.1919 11.6855 14.2377 11.7052C14.3709 11.7638 14.5114 11.6685 14.5106 11.4727L14.5102 11.4731ZM12.3692 14.5047V12.6844H11.0923V14.5047H12.3692Z" fill="#410EAD"/>
<path d="M6.4971 5.09515C5.64345 5.09515 4.7894 5.09677 3.93575 5.09434C3.62758 5.09354 3.48098 4.89043 3.57898 4.60334C3.71262 4.21327 3.84949 3.82402 3.98799 3.43517C4.05845 3.23691 4.17305 3.15656 4.38687 3.15171C4.5282 3.14848 4.67034 3.14404 4.81127 3.15333C4.9121 3.16019 4.95179 3.11699 4.98175 3.02896C5.0996 2.6813 5.2227 2.33525 5.34581 1.9892C5.42316 1.77196 5.5325 1.69565 5.76575 1.69524C6.26101 1.69403 6.75628 1.69403 7.25154 1.69524C7.48237 1.69605 7.59211 1.77398 7.67027 1.99284C7.79378 2.33888 7.9181 2.68412 8.03392 3.03259C8.0651 3.12668 8.11086 3.15858 8.20683 3.15292C8.3429 3.14525 8.47978 3.14889 8.61625 3.15171C8.84545 3.15575 8.95236 3.23328 9.03133 3.45496C9.16658 3.83412 9.30143 4.21327 9.43345 4.59324C9.5355 4.8872 9.3881 5.09394 9.07385 5.09475C8.21493 5.09677 7.35602 5.09555 6.4971 5.09555V5.09515ZM4.09409 4.59687H6.19865C6.09336 4.29646 5.99698 4.01138 5.89007 3.72994C5.87428 3.68875 5.80908 3.63989 5.76616 3.63909C5.35269 3.63222 4.93923 3.63263 4.52577 3.63868C4.48487 3.63909 4.4221 3.68108 4.40833 3.71823C4.30021 4.00371 4.20181 4.29323 4.09449 4.59687H4.09409ZM8.92118 4.60374C8.81184 4.29161 8.71425 4.00129 8.60491 3.7154C8.59033 3.67704 8.51703 3.63909 8.47046 3.63828C8.07198 3.63222 7.6731 3.63707 7.27422 3.63303C7.18472 3.63222 7.13775 3.65806 7.11061 3.74609C7.05554 3.92335 6.98872 4.09739 6.92838 4.27304C6.89194 4.37923 6.85752 4.48583 6.81864 4.60374H8.92118ZM7.56012 3.14444C7.45078 2.83312 7.35116 2.53876 7.24101 2.24803C7.22805 2.21411 7.15921 2.18221 7.11588 2.18141C6.77774 2.17575 6.4392 2.17818 6.10106 2.17818C5.89453 2.17818 5.75711 2.27495 5.68881 2.4685C5.61146 2.68897 5.53614 2.91025 5.45555 3.14404H7.56012V3.14444ZM6.37643 3.6403C6.42178 3.76345 6.46025 3.86763 6.51047 4.00492C6.55785 3.86238 6.59227 3.75699 6.63115 3.6403H6.37643Z" fill="#410EAD"/>
<path d="M5.50312 1.2747C5.45777 1.32114 5.40391 1.42289 5.33101 1.43945C5.25002 1.45762 5.11031 1.42734 5.06739 1.36758C4.92727 1.17255 4.81145 0.958133 4.70171 0.743721C4.6438 0.630256 4.69604 0.524867 4.80214 0.458646C4.90459 0.394443 5.02608 0.399693 5.08966 0.495391C5.23382 0.712629 5.3545 0.944808 5.48368 1.17174C5.493 1.18829 5.49178 1.2105 5.50312 1.2747Z" fill="#410EAD"/>
<path d="M8.65182 2.41174C8.58702 2.34956 8.50441 2.29787 8.4623 2.22317C8.40682 2.12546 8.44286 2.01603 8.5364 1.95708C8.74091 1.82867 8.95148 1.70875 9.16571 1.5969C9.27505 1.53996 9.37588 1.58721 9.44351 1.6825C9.51235 1.77941 9.52005 1.9066 9.42528 1.9704C9.20094 2.12142 8.95877 2.24579 8.72309 2.38025C8.71134 2.38711 8.69353 2.38348 8.67814 2.38509C8.66923 2.39398 8.66073 2.40286 8.65182 2.41174Z" fill="#410EAD"/>
<path d="M6.74621 0.577062C6.74621 0.682855 6.75026 0.788648 6.74499 0.893633C6.73811 1.03173 6.64578 1.12258 6.517 1.12743C6.38782 1.13227 6.27524 1.04909 6.26876 0.914226C6.25742 0.683663 6.25783 0.451484 6.26755 0.22092C6.27322 0.0884771 6.38741 -0.00237543 6.51133 4.731e-05C6.64335 0.00287383 6.73973 0.100187 6.7454 0.245147C6.74985 0.355786 6.74621 0.466424 6.74621 0.577062Z" fill="#410EAD"/>
<path d="M3.72023 1.55957C3.79636 1.58057 3.83362 1.5838 3.86318 1.60035C4.06525 1.71382 4.26895 1.82446 4.46535 1.94721C4.57631 2.01666 4.60304 2.16404 4.5346 2.26661C4.4613 2.37563 4.3548 2.42206 4.23372 2.35867C4.02881 2.25126 3.82795 2.13457 3.63033 2.01424C3.53395 1.95528 3.49345 1.84909 3.54083 1.75137C3.57971 1.67142 3.66678 1.61449 3.72023 1.55957Z" fill="#410EAD"/>
<path d="M8.33542 0.660428C8.32003 0.707268 8.31153 0.758145 8.28804 0.800543C8.18802 0.980633 8.08637 1.16032 7.97906 1.33597C7.9009 1.46357 7.75755 1.4995 7.6397 1.43045C7.52753 1.36464 7.48906 1.23018 7.55912 1.10137C7.66198 0.911585 7.77091 0.724631 7.88349 0.540099C7.94464 0.439959 8.04749 0.386659 8.15481 0.437537C8.23418 0.475089 8.29128 0.560692 8.3581 0.624895C8.3504 0.636605 8.34271 0.648315 8.33542 0.660024V0.660428Z" fill="#410EAD"/>
<path d="M6.50653 7.79822C7.24922 7.79822 7.99232 7.79822 8.73501 7.79822C8.78037 7.79822 8.82694 7.79378 8.87108 7.80105C9.00188 7.82325 9.08044 7.89917 9.08247 8.03565C9.0849 8.17253 9.00714 8.25046 8.87796 8.27671C8.82937 8.2868 8.77713 8.28155 8.72691 8.28155C7.24639 8.28155 5.76546 8.28155 4.28493 8.28155C4.25983 8.28155 4.23431 8.28196 4.20921 8.28155C4.03386 8.27711 3.9229 8.18061 3.92533 8.03524C3.92776 7.88988 4.0371 7.79862 4.2169 7.79862C4.97984 7.79781 5.74319 7.79862 6.50613 7.79822H6.50653Z" fill="#410EAD"/>
<path d="M8.98866 10.7637C8.82829 10.7714 8.66793 10.7855 8.50757 10.7855C7.10317 10.7871 5.69878 10.7867 4.29479 10.7855C4.2296 10.7855 4.16197 10.7855 4.10041 10.7677C3.97812 10.733 3.91535 10.6414 3.92912 10.517C3.94288 10.3942 4.01821 10.3175 4.14739 10.3046C4.15751 10.3038 4.16764 10.303 4.17776 10.303C5.72875 10.303 7.27933 10.301 8.82991 10.3086C8.90807 10.3086 9.02227 10.3769 9.05385 10.4443C9.08544 10.5117 9.03603 10.6183 9.01862 10.7068C9.01417 10.7286 8.99554 10.748 8.98339 10.7681L8.98825 10.7633L8.98866 10.7637Z" fill="#410EAD"/>
<path d="M6.51632 6.54909C7.25902 6.54909 8.00171 6.54869 8.7444 6.5499C8.8096 6.5499 8.89504 6.53778 8.93513 6.57251C9.00033 6.62904 9.07484 6.7203 9.07282 6.795C9.0712 6.86889 8.99061 6.9553 8.92339 7.0086C8.88047 7.04252 8.79745 7.03202 8.73266 7.03202C7.24727 7.03323 5.76189 7.03283 4.2765 7.03283C4.23601 7.03283 4.19511 7.03444 4.15542 7.0292C4.01369 7.01062 3.91852 6.90442 3.92622 6.77602C3.93391 6.65125 4.02786 6.55555 4.16717 6.55272C4.45509 6.54667 4.74302 6.54949 5.03094 6.54949C5.5262 6.54949 6.02106 6.54949 6.51632 6.54949V6.54909Z" fill="#410EAD"/>
<path d="M6.50477 9.52934C5.76208 9.52934 5.01939 9.52934 4.2767 9.52934C4.22608 9.52934 4.17505 9.53176 4.12565 9.52368C4.00497 9.5039 3.93856 9.42435 3.92843 9.30765C3.91831 9.1958 3.97338 9.10939 4.07908 9.07144C4.13901 9.05004 4.20785 9.04721 4.27265 9.04681C5.76329 9.0456 7.25354 9.0456 8.74419 9.04681C8.80412 9.04681 8.86689 9.04923 8.92318 9.067C9.03899 9.10334 9.09204 9.19096 9.08273 9.31048C9.07301 9.43081 9.00376 9.5039 8.88471 9.52409C8.8353 9.53257 8.78387 9.52934 8.73366 9.52934C7.99096 9.52934 7.24827 9.52934 6.50558 9.52934H6.50477Z" fill="#410EAD"/>
<path d="M5.26304 13.2795C5.29949 13.317 5.38372 13.3744 5.42705 13.4539C5.53234 13.6465 5.8069 13.7224 5.98184 13.5904C6.07215 13.5221 6.05352 13.4438 5.97212 13.395C5.8968 13.3493 5.80528 13.3291 5.71943 13.3029C5.6186 13.2718 5.5125 13.2548 5.41531 13.2157C5.17679 13.1188 5.02655 12.948 5.0144 12.6815C5.00185 12.4053 5.13508 12.2102 5.37522 12.0863C5.44406 12.0507 5.49751 12.0249 5.51331 11.932C5.53153 11.8242 5.62062 11.7632 5.73401 11.7608C5.84699 11.7584 5.93649 11.8129 5.9624 11.9215C5.98387 12.0124 6.04583 12.0398 6.10981 12.0887C6.22725 12.1783 6.34225 12.2813 6.42689 12.4008C6.52651 12.5413 6.48075 12.6952 6.35157 12.765C6.22644 12.8325 6.10495 12.7885 6.01059 12.6411C5.91502 12.4917 5.77167 12.4364 5.62386 12.5078C5.57284 12.5325 5.51047 12.5959 5.50926 12.6431C5.50804 12.6879 5.57122 12.7533 5.62184 12.7768C5.70283 12.8139 5.79718 12.8208 5.88425 12.8458C5.97577 12.8725 6.06931 12.8975 6.15516 12.9379C6.403 13.0546 6.53299 13.2565 6.52408 13.5278C6.51558 13.7923 6.36169 13.9639 6.12115 14.0604C6.04502 14.0907 5.98387 14.1165 5.9624 14.2134C5.93811 14.3229 5.8397 14.3907 5.7336 14.3649C5.65261 14.3451 5.54894 14.2793 5.52222 14.2086C5.4886 14.1198 5.44122 14.0866 5.3659 14.0523C5.1614 13.9603 5.02533 13.8036 4.96702 13.5864C4.92409 13.4265 5.04639 13.2722 5.26426 13.2791L5.26304 13.2795Z" fill="#410EAD"/>
</svg>
