<svg width="15" height="15" viewBox="0 0 15 15" fill="none" xmlns="http://www.w3.org/2000/svg">
<path d="M1.24739 7.49478V11.7428H1.72937V12.2423H1.35064C1.56132 12.8058 1.76407 13.3484 1.97392 13.9102C1.81548 13.9691 1.6675 14.0247 1.5074 14.0844C1.33684 13.6333 1.17214 13.1968 0.990302 12.7148C0.809715 13.1918 0.644177 13.6295 0.472369 14.0832C0.314773 14.0243 0.166792 13.9687 0.00627044 13.9086C0.214865 13.3505 0.418025 12.8075 0.626202 12.2503H0.251651V11.7507H0.739905V11.5515C0.739905 9.6547 0.739905 7.75835 0.739905 5.86157C0.739905 5.5625 0.808879 5.49442 1.10651 5.49316C1.37739 5.49191 1.66583 5.54663 1.91456 5.47103C2.16286 5.39542 2.37188 5.18908 2.59761 5.03954C2.78447 4.9159 2.973 4.79477 3.15484 4.66403C3.19706 4.63354 3.23928 4.56838 3.23928 4.51909C3.24388 3.52914 3.24262 2.53919 3.24179 1.54925C3.24179 1.53463 3.2351 1.52043 3.22883 1.49536H0V0H15V1.48534H11.7549C11.7549 1.87004 11.7515 2.23803 11.7595 2.60603C11.7603 2.65114 11.8176 2.69959 11.8569 2.73885C12.8405 3.72337 13.8253 4.70705 14.8094 5.69074C14.8491 5.73042 14.8871 5.77177 14.9294 5.81605C14.8098 5.93467 14.6994 6.04411 14.5895 6.15355C14.2434 5.80477 13.8998 5.4585 13.5557 5.1118C13.544 5.11891 13.5319 5.12642 13.5202 5.13352V10.7462C13.6715 10.7462 13.8262 10.7474 13.9804 10.7462C14.1104 10.7449 14.2049 10.8009 14.2459 10.9233C14.4913 11.653 14.7333 12.384 14.9762 13.1145C14.9808 13.1283 14.9766 13.145 14.9766 13.1738C14.8336 13.2219 14.6873 13.2711 14.5226 13.3263C14.3855 12.919 14.2517 12.5222 14.1109 12.1037C13.9177 12.1989 13.7309 12.2854 13.5511 12.3844C13.5206 12.4011 13.5089 12.4729 13.5081 12.5197C13.5039 12.754 13.506 12.9884 13.506 13.2352H13.0052C13.0052 13.0013 13.0014 12.7636 13.0073 12.5264C13.0094 12.437 12.9864 12.3823 12.8998 12.3455C12.7711 12.2908 12.6474 12.2231 12.5065 12.1538C12.4195 12.5372 12.3351 12.9107 12.2477 13.2966C12.0981 13.2665 11.9572 13.2381 11.7795 13.2026C11.8264 13.277 11.8539 13.3225 11.8836 13.3672C12.1466 13.7615 12.4087 14.1562 12.6729 14.5497C12.7402 14.65 12.7882 14.7506 12.7213 14.8684C12.6557 14.9841 12.5466 15 12.4254 15C9.14556 14.9987 5.86531 14.9987 2.58549 15C2.4605 15 2.34429 14.9908 2.27489 14.8668C2.20425 14.7402 2.26402 14.6387 2.33342 14.5355C2.61182 14.1203 2.8919 13.706 3.16278 13.2862C3.21002 13.2135 3.23886 13.1149 3.23928 13.028C3.24388 11.5272 3.24179 10.0269 3.24471 8.52608C3.24471 8.42207 3.21838 8.35775 3.12683 8.29885C2.77193 8.07079 2.42162 7.8352 2.07341 7.5967C1.97057 7.52611 1.86941 7.48517 1.74149 7.49311C1.58139 7.50313 1.42003 7.49561 1.24739 7.49561V7.49478ZM2.96756 14.4871H12.0291C11.8071 14.1542 11.6015 13.8355 11.3845 13.5251C11.2904 13.391 11.2499 13.2557 11.2499 13.0903C11.2545 11.0791 11.2528 9.06742 11.2528 7.05619V6.8841C11.239 6.88034 11.2248 6.87658 11.211 6.87241C11.1328 6.95636 11.0576 7.04283 10.9765 7.12344C10.8131 7.28551 10.6931 7.28802 10.5342 7.12971C9.72578 6.32355 8.91815 5.51655 8.11136 4.70914C7.95711 4.55459 7.95711 4.43304 8.10969 4.27849C8.32581 4.05962 8.54653 3.84534 8.76097 3.62479C8.85461 3.52831 8.95995 3.48904 9.09498 3.4903C9.67394 3.49531 10.2529 3.48821 10.8315 3.49531C10.9686 3.49698 11.1048 3.53582 11.2524 3.55963C11.2524 3.38462 11.2595 3.17284 11.2482 2.96232C11.2445 2.89382 11.2081 2.81571 11.1625 2.76225C11.0597 2.64195 10.9418 2.5346 10.8193 2.41054C10.9849 2.30445 11.0451 2.10604 11.2403 2.0839V1.49912H8.9959V2.97987H8.4926V1.50163H6.73773V2.48281H6.24028V1.49871H5.49243V3.98109H4.98913V1.50121H3.75345V4.49277C3.9842 4.49277 4.20283 4.49194 4.42145 4.49277C4.6568 4.49403 4.7425 4.57798 4.7425 4.81273C4.74333 5.933 4.74333 7.05327 4.7425 8.17354C4.7425 8.40829 4.6568 8.49308 4.42229 8.49433C4.1999 8.49559 3.97709 8.49433 3.74174 8.49433V8.69525C3.74174 10.1697 3.74049 11.6446 3.74425 13.1191C3.74425 13.262 3.70872 13.3797 3.62804 13.4967C3.40691 13.8175 3.19413 14.1437 2.96631 14.4862L2.96756 14.4871ZM12.014 3.60976C11.8264 3.7334 11.7473 3.87709 11.7482 4.10515C11.7574 7.04283 11.754 9.98093 11.754 12.9186V13.1028C11.7891 13.0527 11.8034 12.9992 11.8155 12.9453C11.9593 12.3008 12.1022 11.6559 12.2473 11.0114C12.2958 10.7967 12.3606 10.7478 12.5826 10.747C12.7209 10.7466 12.8593 10.747 12.9926 10.747C13.0002 10.7148 13.0043 10.7052 13.0043 10.6952C13.0052 8.68982 13.006 6.68444 13.0035 4.67907C13.0035 4.63354 12.9797 4.57673 12.9475 4.54457C12.6407 4.23296 12.3297 3.92512 12.014 3.61017V3.60976ZM14.5 0.502074H0.50163V0.9841H14.5V0.502074ZM3.23134 7.76795V5.22041C2.90695 5.43594 2.59886 5.63811 2.29454 5.84612C2.26444 5.867 2.24396 5.92298 2.24354 5.96308C2.23978 6.31728 2.23978 6.67108 2.24354 7.02529C2.24396 7.06538 2.26361 7.12177 2.29412 7.14224C2.59844 7.35025 2.90653 7.55242 3.23134 7.76795ZM11.1191 6.26674C10.4013 5.54788 9.69275 4.83821 9.0097 4.1536C8.89014 4.26596 8.76014 4.38835 8.66148 4.48066C9.36502 5.18448 10.0736 5.89332 10.7767 6.59672C10.8837 6.49355 11.007 6.37493 11.1191 6.26674ZM3.75219 5.00111V7.98432H4.23251V5.00111H3.75219ZM9.6777 3.99321C10.2027 4.51784 10.7324 5.04748 11.2532 5.56793C11.2532 5.27262 11.2403 4.95015 11.2578 4.62936C11.2691 4.42427 11.2215 4.26555 11.053 4.14608C10.9832 4.09679 10.9171 4.00239 10.8469 3.99989C10.4481 3.98569 10.0481 3.99279 9.67728 3.99279L9.6777 3.99321ZM1.72979 6.98769V6.00693H1.24822V6.98769H1.72979ZM13.516 11.2612V11.838C13.6715 11.7599 13.8116 11.6902 13.9474 11.6221C13.8669 11.3547 13.7231 11.2344 13.516 11.2612ZM12.7138 11.2516C12.5905 11.663 12.6365 11.7499 12.9952 11.8084V11.2516H12.7138Z" fill="#410EAD"/>
<path d="M5.00195 11.0288V10.5H5.48686V9.75314H5.0053V9.25065H5.48853V7.25488H9.49447V9.23687H9.99067V9.73936H9.5137V10.4921H9.99276V10.9966C9.81677 10.9966 9.63702 10.995 9.45727 10.9979C9.40167 10.9987 9.33562 10.9962 9.29215 11.0234C8.85615 11.297 8.42391 11.5764 7.99376 11.8521C7.99878 11.873 7.99794 11.8876 8.00379 11.8913C8.42725 12.1662 8.84904 12.4444 9.27752 12.7109C9.34064 12.7501 9.43637 12.7405 9.51788 12.7464C9.58936 12.7518 9.66168 12.7476 9.74278 12.7476V13.2468C9.48611 13.2234 9.22861 13.3044 8.97487 13.1248C8.53761 12.8149 8.07486 12.5421 7.62632 12.2476C7.53602 12.1883 7.47206 12.1825 7.37759 12.2447C6.94326 12.5321 6.49848 12.8032 6.0675 13.0952C5.89945 13.2088 5.73224 13.2714 5.53075 13.2497C5.44381 13.2401 5.35518 13.248 5.25695 13.248V12.7656C5.26823 12.7597 5.27785 12.7501 5.28579 12.7514C5.57925 12.7952 5.81585 12.6779 6.04827 12.512C6.31915 12.3182 6.60717 12.1491 6.88725 11.9686C6.92947 11.9415 6.9696 11.911 7.02729 11.8696C6.89644 11.784 6.78107 11.7076 6.66486 11.632C6.55575 11.5614 6.44289 11.4954 6.33629 11.4206C5.94126 11.1441 5.54915 10.86 5.00321 11.0292L5.00195 11.0288ZM6.00354 9.23436H8.98782V7.75278H6.00354V9.23436ZM6.0073 9.75272V10.4841H8.99242V9.75272H6.0073ZM8.38002 11.0087H6.62013C6.91233 11.1967 7.17318 11.3671 7.4382 11.5309C7.46872 11.5497 7.53142 11.5492 7.56194 11.5305C7.82655 11.3667 8.0874 11.1963 8.3796 11.0087H8.38002Z" fill="#410EAD"/>
<path d="M10.2598 13.7392V13.2598H10.7425V13.7392H10.2598Z" fill="#410EAD"/>
<path d="M4.25 13.9908V13.5088H4.73529V13.9908H4.25Z" fill="#410EAD"/>
</svg>
