<svg width="15" height="12" viewBox="0 0 15 12" fill="none" xmlns="http://www.w3.org/2000/svg">
<path d="M0 4.90014C0.0739492 4.6017 0.183112 4.32055 0.406916 4.09015C0.681585 3.80749 1.0169 3.647 1.41638 3.60227C1.50676 3.59212 1.59636 3.56318 1.68244 3.53236C4.9006 2.37882 8.11798 1.22416 11.3357 0.0694916C11.8945 -0.130846 12.4305 0.113092 12.6234 0.6581C12.9575 1.60228 13.2905 2.54646 13.6207 3.49177C13.6501 3.57596 13.6904 3.6173 13.7866 3.63798C14.4811 3.7872 14.9823 4.37844 14.9956 5.06364C15.0031 5.46206 14.9992 5.86086 14.9972 6.25965C14.996 6.48329 14.8794 6.59455 14.6419 6.59493C14.363 6.59568 14.0875 6.59681 13.8273 6.72047C13.3437 6.9505 13.0514 7.46619 13.1344 7.96083C13.2275 8.51674 13.6536 8.9238 14.2182 8.9862C14.3727 9.00349 14.53 8.99672 14.6858 9.00424C14.8564 9.01251 14.9909 9.11362 14.9913 9.26885C14.9925 9.76537 15.016 10.2656 14.962 10.7573C14.8873 11.4361 14.237 11.9683 13.5257 11.995C13.3406 12.0022 13.1547 11.9995 12.9693 11.9995C10.5239 11.9995 8.07846 11.9995 5.63305 11.9995C4.32505 11.9995 3.01705 11.9995 1.70944 11.9995C0.78214 11.9995 0.233977 11.5846 0.0168244 10.7201C0.0148681 10.7118 0.00586898 10.7054 0 10.6979C0 10.2006 0 9.70335 0 9.20608C0.0935125 9.04596 0.234759 8.9862 0.424132 8.99935C0.544641 9.00762 0.66789 8.9986 0.7884 8.98469C1.33695 8.92117 1.75835 8.5235 1.85773 7.98C1.9485 7.48498 1.66914 6.96365 1.1914 6.72874C0.948428 6.60959 0.688627 6.58215 0.424132 6.59756C0.234759 6.60846 0.0935125 6.55095 0 6.39121V4.89939V4.90014ZM14.3677 9.60938C13.152 9.54962 12.5498 8.65769 12.5052 7.94091C12.4767 7.48197 12.5948 7.06702 12.8895 6.70393C13.2627 6.24349 13.7632 6.01684 14.3759 5.99128C14.3759 5.71389 14.3767 5.4474 14.3759 5.18091C14.3739 4.57013 13.9874 4.19689 13.3551 4.19689C10.8314 4.19689 8.30813 4.19689 5.78447 4.19689H5.62444C5.62444 4.30702 5.62718 4.39573 5.62405 4.48443C5.61701 4.66785 5.49141 4.79189 5.31534 4.79339C5.13575 4.7949 5.01172 4.67575 5.0039 4.49007C4.99998 4.39761 5.00311 4.30477 5.00311 4.21456C4.97416 4.20591 4.96086 4.1984 4.94755 4.1984C3.79567 4.1984 2.64378 4.19163 1.4919 4.20291C1.08654 4.20667 0.697627 4.52578 0.65537 4.90728C0.616243 5.26285 0.647153 5.62519 0.647153 5.98527C1.87847 6.04428 2.50645 7.02304 2.50253 7.80597C2.49862 8.58702 1.87534 9.5515 0.623286 9.61427C0.623286 9.88414 0.622504 10.1548 0.623286 10.4258C0.625242 11.0253 1.01612 11.4015 1.63784 11.4019C2.70678 11.4026 3.77571 11.4019 4.84465 11.4019C4.89199 11.4019 4.93934 11.4019 5.00311 11.4019C5.00311 11.2948 4.99998 11.2019 5.0039 11.1095C5.01133 10.9242 5.13536 10.8046 5.31456 10.8054C5.49102 10.8061 5.6174 10.9298 5.62405 11.1129C5.62757 11.2053 5.62483 11.2978 5.62483 11.4015H5.79856C6.72116 11.4015 7.64376 11.4015 8.56598 11.4015C10.1768 11.4015 11.7877 11.4023 13.3985 11.4011C13.9224 11.4008 14.3195 11.0779 14.363 10.5863C14.3911 10.266 14.3684 9.94128 14.3684 9.60901L14.3677 9.60938ZM12.9822 3.59024C12.9763 3.55416 12.9755 3.52635 12.9665 3.50116C12.6524 2.60998 12.339 1.7188 12.022 0.828744C11.9481 0.620889 11.7857 0.550602 11.5693 0.625776C11.3084 0.71636 11.0489 0.812582 10.7891 0.906173C8.36174 1.77743 5.93393 2.64869 3.50652 3.51996C3.4627 3.53574 3.42005 3.55491 3.37662 3.5722C3.38053 3.57821 3.38445 3.58385 3.38836 3.58987H12.9822V3.59024Z" fill="#410EAD"/>
<path d="M5.62446 6.54171C5.62446 6.70108 5.62759 6.86044 5.62368 7.01981C5.61898 7.20925 5.48556 7.3393 5.30636 7.33554C5.13225 7.33216 5.00626 7.20699 5.00391 7.02207C5 6.69393 5 6.3658 5.00391 6.03805C5.00587 5.85011 5.14398 5.7163 5.31888 5.72081C5.49064 5.72495 5.61937 5.85462 5.62368 6.03579C5.62759 6.20456 5.62446 6.37332 5.62446 6.54171Z" fill="#410EAD"/>
<path d="M5.00208 9.06961C5.00208 8.90573 4.99895 8.74148 5.00325 8.5776C5.00794 8.39192 5.13041 8.26789 5.30531 8.26375C5.48568 8.25999 5.62106 8.38854 5.62301 8.57798C5.62693 8.90573 5.62693 9.23387 5.62301 9.562C5.62067 9.74956 5.48177 9.88224 5.30491 9.87773C5.13393 9.87322 5.01029 9.74429 5.00247 9.56125C5.00208 9.55185 5.00208 9.54245 5.00208 9.53306C5.00208 9.37857 5.00208 9.22372 5.00208 9.06924V9.06961Z" fill="#410EAD"/>
</svg>
