<svg width="15" height="15" viewBox="0 0 15 15" fill="none" xmlns="http://www.w3.org/2000/svg">
<path d="M7.35429 14.997C7.2729 14.966 7.18682 14.9437 7.11052 14.9031C6.78457 14.7285 6.61122 14.4538 6.62531 14.0833C6.63939 13.7194 6.82761 13.4572 7.1606 13.312C7.25217 13.2721 7.28543 13.2303 7.28269 13.1316C7.27564 12.8843 7.28034 12.6367 7.25099 12.3733C7.18017 12.4633 7.10934 12.5533 7.044 12.6367C6.91056 12.504 6.81196 12.4066 6.72352 12.3185C6.97904 12.063 7.24591 11.7961 7.50573 11.5371C7.75851 11.7903 8.02302 12.0548 8.2938 12.326C8.20185 12.4089 8.09815 12.5017 7.98702 12.6014C7.92168 12.5388 7.83794 12.459 7.73542 12.3612C7.72916 12.4226 7.72172 12.4625 7.72133 12.502C7.71977 12.6241 7.72877 12.7466 7.71898 12.8675C7.7002 13.1035 7.72211 13.276 7.98937 13.4052C8.29576 13.5531 8.41158 13.8716 8.37206 14.214C8.33215 14.5614 8.13767 14.8052 7.81094 14.9383C7.75733 14.9602 7.70177 14.9774 7.64738 14.997H7.35429ZM7.93968 14.1169C7.93929 13.8798 7.74051 13.6806 7.50338 13.6791C7.26664 13.6775 7.06513 13.8747 7.062 14.1115C7.05847 14.3545 7.26273 14.5595 7.50534 14.5568C7.74207 14.554 7.94007 14.3537 7.93968 14.1169Z" fill="#410EAD"/>
<path d="M0.000391232 7.35211C0.0164344 7.30672 0.032869 7.26094 0.0489122 7.21555C0.170606 6.86886 0.483644 6.63408 0.842072 6.62078C1.20676 6.60708 1.54093 6.80743 1.67867 7.14746C1.72523 7.26211 1.78471 7.28598 1.89427 7.28285C2.13218 7.27581 2.37048 7.2805 2.64752 7.2805C2.54422 7.17016 2.464 7.08446 2.38887 7.00425C2.48983 6.90055 2.58687 6.80038 2.67765 6.70725C2.93982 6.97021 3.20473 7.2359 3.45711 7.48907C3.20081 7.74615 2.93356 8.0138 2.66082 8.28731C2.58491 8.20475 2.49256 8.10497 2.38887 7.99228C2.45657 7.92145 2.53561 7.83889 2.62795 7.74224C2.58687 7.73324 2.55791 7.7215 2.52856 7.72111C2.29926 7.71954 2.06957 7.71524 1.84027 7.72424C1.79253 7.72619 1.72327 7.76923 1.70332 7.81149C1.52645 8.1891 1.21185 8.39609 0.827594 8.37575C0.445296 8.3554 0.150649 8.10614 0.0242604 7.69763C0.0187822 7.67924 0.00821725 7.66241 0 7.6448C0 7.54698 0 7.44955 0 7.35172L0.000391232 7.35211ZM0.884723 7.05942C0.647597 7.05629 0.445296 7.25194 0.440601 7.48907C0.435514 7.7258 0.629989 7.93006 0.866724 7.9371C1.10855 7.94454 1.3175 7.74224 1.31828 7.50002C1.31906 7.26329 1.12185 7.06255 0.884723 7.05942Z" fill="#410EAD"/>
<path d="M8.18171 10.2103C8.16723 10.0584 8.15432 9.92423 8.1414 9.78845C8.37892 9.74501 8.60666 9.71645 8.82696 9.65971C9.0093 9.61275 9.18617 9.53802 9.35951 9.46289C9.40882 9.44137 9.47064 9.37485 9.47142 9.32789C9.47964 8.87007 9.47651 8.41186 9.47651 7.95483C8.15823 8.37743 6.85364 8.37469 5.53615 7.95992C5.53419 7.96774 5.5248 7.98926 5.5248 8.01078C5.52362 8.43534 5.51815 8.86029 5.52949 9.28446C5.53106 9.34902 5.59562 9.43667 5.65549 9.47032C5.97127 9.64719 6.32422 9.70393 6.67717 9.75441C6.73391 9.76262 6.79104 9.77084 6.8603 9.78101C6.8466 9.92501 6.83369 10.0592 6.81921 10.2111C6.30622 10.1527 5.80614 10.0886 5.36319 9.81075C5.17106 9.69023 5.07989 9.51884 5.08107 9.28446C5.08576 8.02017 5.08576 6.75628 5.08107 5.492C5.08028 5.26427 5.16285 5.08544 5.35537 4.97784C5.56119 4.8628 5.78266 4.77554 6.01548 4.66754C6.06087 4.83854 6.09531 4.96884 6.12896 5.09718C5.92236 5.18914 5.72201 5.27835 5.52167 5.36757C5.52167 5.38753 5.52167 5.40709 5.52167 5.42705C5.59641 5.47361 5.66566 5.5417 5.74705 5.56322C6.09453 5.65439 6.44161 5.76513 6.79612 5.80778C7.54702 5.89856 8.29675 5.86843 9.02926 5.65126C9.28986 5.57417 9.38064 5.51822 9.48042 5.38713C9.39121 5.33666 9.30864 5.27835 9.21786 5.24079C8.78391 5.06001 8.32414 4.99545 7.85967 4.9841C7.43198 4.97353 7.00351 4.9974 6.55626 5.0064C6.53865 4.89175 6.51791 4.7548 6.49169 4.58537C6.8329 4.56776 7.15729 4.54115 7.48207 4.53684C8.07997 4.52902 8.67122 4.58419 9.24212 4.77749C9.34308 4.81154 9.44051 4.85849 9.53638 4.90662C9.8009 5.03888 9.92455 5.24118 9.92181 5.55109C9.91046 6.77624 9.90968 8.00139 9.9222 9.22615C9.92572 9.5525 9.78172 9.75088 9.51173 9.88666C9.09891 10.0944 8.65166 10.1606 8.18132 10.2103H8.18171ZM5.5381 5.98112C5.53419 5.9956 5.52519 6.0136 5.52519 6.03121C5.52401 6.46046 5.51971 6.88972 5.52871 7.31897C5.52988 7.37649 5.5878 7.45866 5.64101 7.48449C5.79792 7.56001 5.96188 7.62888 6.13013 7.67153C6.85834 7.85622 7.59907 7.87187 8.33783 7.76896C8.66222 7.72396 8.97839 7.61323 9.29573 7.52244C9.43151 7.48371 9.48668 7.38588 9.4816 7.23328C9.46986 6.8678 9.47768 6.50155 9.47768 6.13569V5.97604C8.15393 6.4002 6.84895 6.39903 5.53771 5.98073L5.5381 5.98112Z" fill="#410EAD"/>
<path d="M7.72012 2.6489C7.83751 2.53699 7.92125 2.45716 8.00342 2.37851C8.1075 2.48064 8.20454 2.57573 8.28985 2.65946C8.01985 2.92985 7.75299 3.19672 7.49356 3.45654C7.24352 3.20572 6.979 2.94081 6.71057 2.67198C6.80253 2.5902 6.90622 2.49786 7.01852 2.39808C7.08113 2.45755 7.16408 2.53699 7.26426 2.63246C7.2713 2.57651 7.27952 2.54129 7.27991 2.50568C7.28108 2.33469 7.26934 2.1633 7.28382 1.99348C7.2983 1.82052 7.25682 1.72231 7.08152 1.63935C6.70861 1.46288 6.54349 1.03167 6.65579 0.634108C6.76457 0.249854 7.13278 -0.0142719 7.53856 0.000597396C7.94472 0.0154667 8.28202 0.310505 8.36419 0.723324C8.44089 1.10758 8.23702 1.51101 7.86568 1.66987C7.7436 1.72192 7.71229 1.78609 7.71738 1.90895C7.72716 2.14178 7.72012 2.37499 7.72012 2.64929V2.6489ZM7.50569 0.439242C7.26856 0.436111 7.06626 0.63176 7.06156 0.868887C7.05648 1.10562 7.25174 1.31066 7.48769 1.31692C7.73147 1.32318 7.9369 1.1244 7.93925 0.879843C7.9412 0.64389 7.74321 0.442372 7.50608 0.439242H7.50569Z" fill="#410EAD"/>
<path d="M12.3534 7.71962C12.4602 7.83153 12.5392 7.9141 12.6175 7.99588C12.515 8.10074 12.4176 8.20013 12.3178 8.30265C12.2974 8.28583 12.2775 8.27213 12.2603 8.25531C12.0106 8.00879 11.7613 7.76227 11.5215 7.52475C11.7989 7.24928 12.0673 6.9832 12.3416 6.71086C12.4156 6.79185 12.5072 6.89203 12.6112 7.0055C12.542 7.07789 12.4602 7.16359 12.3628 7.26572C12.4179 7.27198 12.4536 7.27941 12.4892 7.2798C12.6551 7.28098 12.8218 7.27041 12.9865 7.28293C13.1649 7.29663 13.2749 7.26572 13.3641 7.07359C13.5371 6.70068 13.9761 6.53947 14.3709 6.6549C14.7552 6.7672 15.0162 7.13541 14.9993 7.5408C14.9821 7.9454 14.6847 8.28192 14.2727 8.36252C13.8904 8.43726 13.4858 8.23066 13.3281 7.86049C13.2784 7.74427 13.2178 7.71336 13.1015 7.71727C12.8652 7.7251 12.6285 7.71962 12.3538 7.71962H12.3534ZM13.6826 7.49893C13.6834 7.73606 13.8822 7.93523 14.1189 7.93679C14.3557 7.93797 14.5572 7.74075 14.5603 7.50402C14.5638 7.26141 14.3592 7.05637 14.1166 7.05911C13.8794 7.06185 13.6818 7.2618 13.6826 7.49932V7.49893Z" fill="#410EAD"/>
<path d="M3.5917 3.24487C3.80026 3.45578 4.00413 3.66278 4.22208 3.88308V3.52582H4.65447V4.65276H3.5244V4.23055H3.85465C3.6504 4.02394 3.44418 3.81538 3.22858 3.59704C2.76059 3.78564 2.33642 3.68234 2.08403 3.29769C1.85591 2.94944 1.90364 2.48771 2.19829 2.19658C2.49803 1.90037 2.95271 1.85263 3.2994 2.08193C3.68405 2.33549 3.78735 2.76083 3.5917 3.24487ZM3.2544 2.81405C3.25323 2.57145 3.05641 2.37541 2.81576 2.37736C2.57785 2.37932 2.37672 2.58279 2.37868 2.81953C2.38064 3.05979 2.57902 3.25426 2.82124 3.25309C3.06541 3.25191 3.25558 3.05939 3.2544 2.81405Z" fill="#410EAD"/>
<path d="M11.7591 3.59322C11.5458 3.80452 11.3392 4.00839 11.1228 4.22282H11.4738V4.66655H10.3457V3.52748H10.7707V3.86165C10.9769 3.65387 11.1807 3.44883 11.3979 3.2301C11.2265 2.68659 11.3333 2.29529 11.7415 2.05777C12.0905 1.85469 12.5381 1.91808 12.8156 2.2092C13.1012 2.50933 13.1419 2.95697 12.9154 3.30053C12.6649 3.68048 12.2545 3.77948 11.7591 3.59361V3.59322ZM12.1801 3.25279C12.4235 3.25358 12.6203 3.06027 12.6219 2.81884C12.6234 2.58172 12.4223 2.37863 12.184 2.37707C11.943 2.3755 11.7469 2.57154 11.7462 2.81454C11.7454 3.06067 11.9348 3.25201 12.1797 3.25279H12.1801Z" fill="#410EAD"/>
<path d="M3.25427 11.4104C3.46752 11.198 3.67061 10.9957 3.89247 10.775H3.52387V10.3398H4.65746V11.4723H4.23486V11.1479C4.02943 11.3525 3.82282 11.5587 3.60291 11.7779C3.78565 12.2482 3.67961 12.672 3.28909 12.9216C2.93927 13.1451 2.48224 13.0911 2.18916 12.7917C1.89881 12.4951 1.85734 12.033 2.09016 11.689C2.34528 11.3118 2.77062 11.2113 3.25427 11.4108V11.4104ZM3.25427 12.1762C3.25309 11.9316 3.06018 11.7423 2.81445 11.7442C2.57302 11.7458 2.3758 11.9446 2.37854 12.184C2.38128 12.4223 2.58515 12.6227 2.82188 12.6199C3.06292 12.6176 3.25544 12.42 3.25427 12.1766V12.1762Z" fill="#410EAD"/>
<path d="M11.7863 11.3917C12.2566 11.2132 12.6749 11.3181 12.9226 11.7074C13.1456 12.058 13.0924 12.517 12.7958 12.8081C12.4973 13.1012 12.0273 13.1396 11.6806 12.8993C11.3128 12.6446 11.215 12.2189 11.4087 11.7532C11.1993 11.5439 10.9939 11.3384 10.7779 11.1224V11.4738H10.3428V10.3398H11.4748V10.7621H11.1528C11.357 10.9651 11.564 11.1706 11.7863 11.3917ZM12.1842 11.7434C11.9381 11.7426 11.7467 11.9316 11.7464 12.1774C11.7456 12.4212 11.9389 12.618 12.1803 12.6192C12.4178 12.6203 12.6205 12.42 12.6221 12.1813C12.6236 11.9406 12.4276 11.7446 12.1846 11.7434H12.1842Z" fill="#410EAD"/>
<path d="M7.28809 10.2382V9.81641H7.70873V10.2382H7.28809Z" fill="#410EAD"/>
<path d="M6.85352 6.73633H7.2679V7.16089H6.85352V6.73633Z" fill="#410EAD"/>
<path d="M7.73926 6.73633H8.14777V7.16128H7.73926V6.73633Z" fill="#410EAD"/>
</svg>
