<svg width="15" height="15" viewBox="0 0 15 15" fill="none" xmlns="http://www.w3.org/2000/svg">
<path d="M7.5 14.9984C11.6422 14.9984 15 11.6406 15 7.49837C15 3.35616 11.6406 0 7.5 0C3.35943 0 0 3.3578 0 7.5C0 11.6422 3.3578 15 7.5 15V14.9984Z" fill="#410EAD"/>
<path fill-rule="evenodd" clip-rule="evenodd" d="M10.8856 9.45996C10.8856 11.6827 9.09339 12.3742 7.74798 12.3742C7.33376 12.3742 6.90976 12.2992 6.4988 12.2274C6.1123 12.1589 5.73885 12.0937 5.39476 12.0937C4.81583 12.0937 4.47988 12.2062 4.21733 12.3546V8.61847H4.23526C4.81419 9.98181 5.85953 12.185 7.87682 12.185C8.90421 12.185 9.61361 11.624 9.61361 10.5232C9.61361 9.81547 9.03468 9.37516 8.09697 8.96257V6.55879C9.7881 7.16544 10.8824 7.91397 10.8824 9.45833L10.8856 9.45996ZM7.16253 6.20654C5.90193 5.70751 5.28223 5.32265 5.28223 4.49258C5.28223 3.39016 6.12209 2.8308 7.07447 2.8308C8.36279 2.8308 9.37225 3.93322 10.4176 5.9505H10.4355L10.2676 2.75742C10.0996 2.79492 9.87453 2.83243 9.67069 2.83243C9.31517 2.83243 9.01348 2.79003 8.68243 2.74437C8.28451 2.68892 7.84583 2.62695 7.22287 2.62695C5.82202 2.62695 4.02979 3.4293 4.02979 5.54117C4.02979 6.8295 4.59078 7.72643 6.71896 8.43582C6.87062 8.48964 7.01739 8.54346 7.1609 8.59564V6.2098L7.16253 6.20654Z" fill="white"/>
<path d="M8.0627 1.3125H7.125V2.81283H8.0627V1.3125Z" fill="white"/>
<path d="M8.0627 12.1865H7.125V13.6868H8.0627V12.1865Z" fill="white"/>
</svg>
