<svg width="15" height="15" viewBox="0 0 15 15" fill="none" xmlns="http://www.w3.org/2000/svg">
<path d="M0 10.3987V10.0762C0.0842691 9.72565 0.28356 9.46587 0.603463 9.29522C0.77919 9.20169 0.948127 9.09499 1.11986 8.99387C1.18815 8.9535 1.25565 8.91234 1.33912 8.86238C1.11227 8.7273 0.912582 8.597 0.702509 8.4859C0.350655 8.30006 0.0882628 8.04627 0.000399313 7.64381C0.000399313 7.54629 0.000399313 7.44837 0.000399313 7.35086C0.0794765 7.1866 0.136188 7.00515 0.244021 6.86247C0.337076 6.73937 0.482051 6.65025 0.615843 6.56472C0.847084 6.41725 1.08711 6.28456 1.34072 6.13548C1.11028 5.998 0.906991 5.86411 0.692524 5.75141C0.343866 5.56836 0.0898604 5.31338 0.000399313 4.91811V4.59558C0.105037 4.19272 0.389794 3.96012 0.735657 3.75829C2.74014 2.58848 4.73904 1.40827 6.73753 0.22807C7.24674 -0.0724758 7.74397 -0.0784705 8.25677 0.224873C9.75085 1.10853 11.2501 1.98379 12.7462 2.86385C13.3221 3.20236 13.8984 3.54007 14.4691 3.88778C15.1776 4.31942 15.1756 5.21226 14.4711 5.64949C14.3425 5.72903 14.2115 5.80456 14.0817 5.8821C13.9459 5.96323 13.8105 6.04396 13.6576 6.13548C13.9519 6.30894 14.2287 6.46321 14.4963 6.63186C15.1628 7.05271 15.1664 7.92557 14.5063 8.35481C14.3757 8.43994 14.2391 8.51587 14.1053 8.59621C13.9619 8.68173 13.8189 8.76726 13.6576 8.86398C13.9455 9.03344 14.2119 9.18531 14.4735 9.34477C14.8921 9.59976 15.077 10.0202 14.966 10.4666C14.8893 10.774 14.6872 10.9814 14.4188 11.1393C12.481 12.2783 10.5448 13.4205 8.60823 14.5616C8.31109 14.7366 8.02154 14.9289 7.67528 15H7.29467C7.10017 14.9161 6.89409 14.8517 6.71277 14.7454C4.71907 13.578 2.73136 12.4006 0.736456 11.236C0.390593 11.0341 0.107034 10.8007 0.00119809 10.3987H0ZM7.48677 8.88316C7.61857 8.8356 7.76035 8.80723 7.87816 8.73809C9.95214 7.52231 12.0233 6.30214 14.0945 5.08117C14.3936 4.90492 14.3924 4.63275 14.0921 4.4557C12.0213 3.23473 9.94895 2.01576 7.87776 0.795192C7.62216 0.644519 7.37095 0.647716 7.11774 0.79679C5.04217 2.01936 2.96619 3.24153 0.891415 4.46569C0.609054 4.63235 0.609453 4.90692 0.893412 5.07438C2.96819 6.29855 5.04377 7.52071 7.12134 8.74048C7.22757 8.80283 7.35338 8.83241 7.48717 8.88356L7.48677 8.88316ZM7.50035 14.3414C7.63454 14.2898 7.77033 14.2586 7.88495 14.1911C9.95454 12.9769 12.0221 11.7591 14.0893 10.5406C14.396 10.3595 14.3928 10.0901 14.0841 9.9071C13.761 9.71526 13.4335 9.53142 13.1144 9.33318C13.0158 9.27204 12.9487 9.28043 12.8532 9.33678C11.3284 10.2364 9.79918 11.1285 8.27595 12.0305C7.74956 12.3422 7.24355 12.341 6.71677 12.0289C5.19393 11.1261 3.66431 10.2348 2.13988 9.33438C2.04163 9.27643 1.97533 9.27643 1.87908 9.33558C1.55958 9.53262 1.23209 9.71686 0.909387 9.9087C0.602664 10.0909 0.602664 10.3603 0.910985 10.5422C2.97817 11.7607 5.04576 12.9789 7.11535 14.1931C7.22997 14.2602 7.36616 14.2906 7.49995 14.341L7.50035 14.3414ZM7.48477 11.6137C7.61817 11.5649 7.75995 11.5361 7.87816 11.467C9.95254 10.2508 12.0241 9.03024 14.0953 7.80927C14.3936 7.63342 14.3904 7.36205 14.0913 7.1838C13.7642 6.98916 13.4331 6.80172 13.1092 6.60229C13.0166 6.54514 12.9531 6.55073 12.8616 6.60469C11.3328 7.50673 9.79918 8.40157 8.27155 9.30561C7.74996 9.61415 7.24634 9.61335 6.72515 9.30481C5.19713 8.40077 3.66391 7.50593 2.13508 6.60349C2.04283 6.54913 1.97893 6.54674 1.88747 6.60349C1.56757 6.80052 1.24127 6.98636 0.918174 7.1778C0.601865 7.36524 0.600268 7.63142 0.916976 7.81766C2.98017 9.03344 5.04337 10.2488 7.10896 11.461C7.21959 11.5261 7.34899 11.5597 7.48517 11.6141L7.48477 11.6137Z" fill="#410EAD"/>
</svg>
