<svg width="13" height="15" viewBox="0 0 13 15" fill="none" xmlns="http://www.w3.org/2000/svg">
<path d="M4.62929 5.46226C4.23291 5.58781 3.84085 5.71125 3.44964 5.83595C3.01579 5.97376 2.58236 6.11326 2.1485 6.25107C1.72455 6.3855 1.41865 6.23458 1.28035 5.81862C0.867604 4.57708 0.456149 3.33511 0.0455565 2.09273C-0.0880047 1.6886 0.0757153 1.38805 0.489324 1.25658C1.74997 0.855412 3.01018 0.452133 4.27083 0.0505444C4.70727 -0.088532 5.00068 0.0598441 5.14501 0.490178C5.26047 0.835544 5.37077 1.18218 5.4927 1.52543C5.51036 1.57489 5.57714 1.63323 5.62885 1.64126C7.01314 1.856 8.3983 2.06525 9.78346 2.27492C10.7761 2.42499 11.7688 2.57379 12.761 2.72512C12.9583 2.75514 13.0234 2.85363 12.9928 3.04893C12.6292 5.36673 12.2655 7.68495 11.9019 10.0028C11.7515 10.9611 11.6012 11.9194 11.4504 12.8781C11.4164 13.0937 11.3276 13.1609 11.1074 13.1275C9.47799 12.8807 7.84898 12.6317 6.21953 12.3848C5.4871 12.2736 4.75423 12.165 4.0218 12.0551C3.96881 12.047 3.91538 12.039 3.86325 12.028C3.70556 11.9946 3.63792 11.8995 3.66291 11.7414C3.82534 10.7049 3.98906 9.66838 4.15192 8.63185C4.31478 7.59533 4.47763 6.55881 4.63963 5.52229C4.64178 5.50834 4.63446 5.4927 4.62886 5.46269L4.62929 5.46226ZM6.29148 2.96481C6.21307 3.32708 6.13465 3.66569 6.30613 4.00302C6.34878 4.08672 6.36946 4.18183 6.39531 4.27314C6.48278 4.57919 6.3574 4.86115 6.06184 4.99431C5.97395 5.03404 5.94939 5.08477 5.93604 5.17058C5.67365 6.85261 5.40782 8.53421 5.14329 10.2162C5.10365 10.4694 5.06703 10.7235 5.02739 10.9881C6.82142 11.2587 8.59563 11.5267 10.3797 11.7959C10.8007 9.11207 11.2186 6.44848 11.6382 3.77221C9.84464 3.50125 8.07431 3.23366 6.29191 2.96438L6.29148 2.96481ZM4.56251 0.413242C4.54958 0.421274 4.53666 0.429305 4.52373 0.437337C4.47763 0.450442 4.43067 0.462701 4.385 0.477496C3.15064 0.871898 1.91584 1.26672 0.68148 1.66155C0.4359 1.74017 0.415219 1.7778 0.493202 2.01241C0.892593 3.21929 1.29198 4.42617 1.69181 5.63305C1.76979 5.86893 1.81546 5.89218 2.05371 5.81609C3.28851 5.42295 4.5233 5.02939 5.7581 4.63542C5.98041 4.5644 6.00497 4.51748 5.93302 4.30062C5.71415 3.63948 5.49442 2.97876 5.27512 2.31804C5.08771 1.75201 4.90374 1.18514 4.71029 0.621223C4.68401 0.544287 4.61249 0.482146 4.56165 0.413242H4.56251ZM4.14028 11.6226C6.44098 11.9701 8.72919 12.3159 11.026 12.663C11.5258 9.47646 12.0221 6.31236 12.5202 3.13812C10.2358 2.79276 7.96918 2.45035 5.68098 2.10414C5.7456 2.29986 5.79989 2.46346 5.8615 2.6503C5.95801 2.47698 6.09674 2.48502 6.2484 2.50827C7.40521 2.68539 8.56245 2.85913 9.71926 3.03371C10.4358 3.14193 11.1527 3.24803 11.8687 3.35752C12.073 3.3888 12.1376 3.47546 12.1074 3.67329C12.0269 4.20508 11.9441 4.73645 11.8606 5.26781C11.6288 6.74693 11.3961 8.22646 11.1643 9.70557C11.0437 10.4766 10.9243 11.2477 10.8024 12.0183C10.7705 12.2199 10.6749 12.2905 10.4857 12.2618C8.612 11.9794 6.73827 11.6975 4.86453 11.4146C4.56208 11.369 4.51426 11.298 4.56122 11.0016C4.83739 9.25706 5.11226 7.51248 5.38671 5.76747C5.41558 5.58401 5.43971 5.3997 5.46728 5.20736C5.2487 5.25245 5.12361 5.36969 5.09202 5.55907C5.07306 5.67363 5.0541 5.78776 5.03601 5.90232C4.81498 7.30873 4.59439 8.71513 4.3738 10.1215C4.29625 10.6153 4.21956 11.109 4.13985 11.6218L4.14028 11.6226Z" fill="#410EAD"/>
<path d="M3.27828 8.98217C3.30714 9.08658 3.35367 9.19015 3.361 9.29583C3.37435 9.48986 3.36531 9.68558 3.36487 9.88088C3.36401 10.113 3.31705 10.1649 3.04993 10.2026C3.10465 10.4748 3.14127 10.7504 3.2171 11.0159C3.35453 11.497 3.52903 11.9679 3.66086 12.4502C3.71946 12.6649 3.713 12.8966 3.73669 13.1206C3.75005 13.2466 3.76427 13.3722 3.77762 13.4977C3.79701 13.6769 3.82415 13.8355 4.02062 13.9386C4.18865 14.027 4.24767 14.2121 4.25629 14.4002C4.26103 14.5055 4.2593 14.6112 4.25758 14.7164C4.25413 14.9236 4.17572 14.9997 3.96116 14.9997C2.88664 15.0005 1.81169 14.9997 0.737166 14.9997C0.613514 14.9997 0.489862 15.0013 0.366211 14.9992C0.179225 14.9958 0.100812 14.9214 0.097365 14.7414C0.0947799 14.62 0.0952107 14.4987 0.0986574 14.3774C0.10512 14.166 0.200767 13.9961 0.38646 13.8955C0.497187 13.8355 0.538979 13.7535 0.54975 13.6465C0.578616 13.3637 0.596712 13.0796 0.629887 12.7973C0.647551 12.6472 0.669955 12.4942 0.720363 12.3521C0.966374 11.6546 1.1874 10.9516 1.28606 10.2174C1.0804 10.148 0.977576 10.0025 0.977576 9.78069C0.977576 9.6171 0.967667 9.45308 0.981454 9.29075C0.989209 9.20283 1.04479 9.11997 1.06547 9.03162C1.07796 8.97921 1.07882 8.91538 1.0603 8.86549C0.806963 8.19886 1.19257 7.46501 1.89096 7.30691C2.35455 7.20207 2.75782 7.32339 3.07061 7.67468C3.38383 8.02639 3.44113 8.43432 3.28345 8.87268C3.26923 8.91199 3.2507 8.94962 3.2339 8.98808C3.24898 8.98597 3.26363 8.98343 3.27871 8.98132L3.27828 8.98217ZM1.7923 10.195C1.59713 10.947 1.4054 11.6842 1.21411 12.4206H3.16066C3.04691 12.0478 2.92455 11.6889 2.82934 11.3232C2.73326 10.9525 2.66389 10.5754 2.5816 10.195H1.7923ZM0.996533 13.7898H3.35497C3.3205 13.4821 3.28689 13.1819 3.25329 12.8831H1.08916C1.05771 13.1887 1.02755 13.4859 0.996103 13.7898H0.996533ZM2.16239 8.98555C2.29121 8.98555 2.42133 8.99738 2.54757 8.9809C2.62253 8.97118 2.71387 8.93524 2.75911 8.88029C2.99392 8.59495 2.95557 8.17603 2.68414 7.92155C2.41271 7.66665 1.99523 7.65185 1.70139 7.88689C1.4179 8.11347 1.35155 8.51971 1.54241 8.82745C1.61264 8.94116 1.69665 9.00457 1.84142 8.98808C1.94697 8.97582 2.05554 8.98555 2.16282 8.98555H2.16239ZM0.560952 14.544H3.79787C3.81252 14.2836 3.77288 14.2404 3.5273 14.2404C2.62598 14.2404 1.72466 14.2404 0.823335 14.2404C0.563537 14.2404 0.527346 14.2823 0.560952 14.544ZM1.43384 9.73631H2.90129V9.44082H1.43384V9.73631Z" fill="#410EAD"/>
<path d="M9.01152 8.29466C9.40746 8.42867 9.59229 8.66328 9.54706 8.97948C9.51776 9.18492 9.41823 9.36585 9.2166 9.43306C9.03478 9.49351 8.83229 9.49478 8.6173 9.52522C8.58929 9.69431 8.5531 9.8896 8.52854 10.0866C8.52424 10.1204 8.57723 10.158 8.58972 10.1982C8.61601 10.2823 8.66211 10.3745 8.64616 10.4531C8.62376 10.5634 8.51519 10.5985 8.40231 10.582C8.03049 10.5271 7.65953 10.4687 7.28815 10.4142C7.17268 10.3973 7.09728 10.3352 7.08005 10.2252C7.06239 10.1141 7.11883 10.0363 7.22395 9.98641C7.26144 9.96865 7.30754 9.92976 7.314 9.89425C7.34976 9.7036 7.37389 9.51127 7.40361 9.30963C7.31486 9.28553 7.23903 9.26313 7.16234 9.2441C6.82758 9.16083 6.64145 8.90677 6.67721 8.58043C6.71039 8.27649 6.96545 8.06428 7.30193 8.06047C7.33296 8.06047 7.36441 8.06047 7.40706 8.06047C7.47772 7.61112 7.54795 7.16979 7.61688 6.72847C7.69572 6.22331 7.76983 5.71731 7.85643 5.21342C7.87151 5.12676 7.92364 5.03503 7.98482 4.96951C8.17698 4.76322 8.3799 4.56708 8.58154 4.36924C8.75258 4.20184 8.90252 4.22509 9.0141 4.43646C9.14293 4.67952 9.27649 4.92048 9.39066 5.16988C9.43374 5.26415 9.45615 5.3842 9.44107 5.48566C9.30363 6.40297 9.15585 7.31902 9.01195 8.23548C9.00893 8.25535 9.01195 8.27606 9.01195 8.29466H9.01152ZM8.52984 8.27437C8.54578 8.24013 8.55267 8.23168 8.55439 8.22195C8.70174 7.29577 8.84866 6.36958 8.99342 5.44296C8.99859 5.40957 8.98955 5.36899 8.97447 5.33813C8.89735 5.18299 8.81549 5.02954 8.71898 4.84396C8.61213 4.9581 8.50916 5.0511 8.42773 5.16016C8.36181 5.24893 8.2946 5.35208 8.27564 5.45691C8.18818 5.94431 8.11709 6.43468 8.04126 6.92419C7.9775 7.33381 7.91545 7.74385 7.84997 8.17123C8.08478 8.20716 8.3058 8.24055 8.53027 8.2748L8.52984 8.27437ZM7.2511 8.49165C7.21749 8.52885 7.13649 8.57873 7.13735 8.62735C7.13821 8.68822 7.1925 8.77995 7.24765 8.80193C7.37475 8.85351 7.51434 8.88141 7.65135 8.90043C8.06453 8.95792 8.47857 9.0078 8.89261 9.05895C8.99558 9.07163 9.08045 9.03739 9.09467 8.92833C9.11018 8.80997 9.03048 8.75924 8.92104 8.74613C8.87839 8.74106 8.8353 8.74022 8.79308 8.73514C8.47986 8.69625 8.16577 8.66243 7.85384 8.61551C7.66384 8.58719 7.47686 8.539 7.25153 8.49165H7.2511ZM7.85255 9.39333C7.81851 9.60976 7.7862 9.81394 7.75173 10.035C7.86074 10.0511 7.95768 10.065 8.06884 10.0811C8.10287 9.86001 8.13475 9.65246 8.1675 9.43898C8.05117 9.42207 7.95811 9.40854 7.85255 9.3929V9.39333Z" fill="#410EAD"/>
<path d="M10.5821 7.33887C10.4253 7.34098 10.3172 7.22939 10.3361 7.08904C10.3685 6.84893 10.409 6.60967 10.452 6.37125C10.4766 6.23556 10.5688 6.173 10.7075 6.19033C10.8316 6.20555 10.91 6.30996 10.8915 6.44354C10.8588 6.67858 10.8195 6.91234 10.7803 7.14653C10.7605 7.26659 10.6834 7.32915 10.5821 7.33929V7.33887Z" fill="#410EAD"/>
<path d="M1.44532 2.58927C1.4436 2.25235 1.71244 1.98688 2.05496 1.98731C2.3949 1.98731 2.66934 2.25912 2.66633 2.59096C2.66331 2.91561 2.39274 3.18235 2.06143 3.18827C1.7258 3.19418 1.44704 2.92279 1.44532 2.58927ZM2.10063 2.40876C2.07651 2.40792 2.05238 2.40749 2.02825 2.40665C1.98517 2.4616 1.91839 2.51148 1.90374 2.57278C1.8809 2.66874 1.95027 2.74779 2.04592 2.73553C2.10537 2.72792 2.1924 2.65267 2.19973 2.59899C2.20748 2.54065 2.13682 2.47217 2.10063 2.40834V2.40876Z" fill="#410EAD"/>
<path d="M2.61677 4.87145C2.27468 4.87356 2.00195 4.60767 2.00195 4.27329C2.00195 3.94103 2.27985 3.6688 2.6159 3.67091C2.9455 3.67302 3.22038 3.94061 3.22555 4.26442C3.23072 4.59414 2.95455 4.86976 2.61677 4.87187V4.87145ZM2.79557 4.31387C2.79643 4.28978 2.79686 4.26568 2.79772 4.24159C2.73439 4.19932 2.67062 4.12365 2.60858 4.12492C2.55602 4.12618 2.46769 4.21496 2.46511 4.26864C2.46295 4.31937 2.5474 4.41279 2.60039 4.41702C2.662 4.42209 2.73008 4.3515 2.79557 4.31387Z" fill="#410EAD"/>
<path d="M4.97691 3.70798C4.97863 4.04447 4.71022 4.30952 4.36856 4.30867C4.0269 4.30783 3.75202 4.03855 3.7559 3.70883C3.75935 3.38375 4.02949 3.11701 4.35951 3.11236C4.69686 3.10771 4.97518 3.37614 4.97691 3.70798ZM4.32332 3.88849C4.34788 3.88849 4.37244 3.88891 4.39742 3.88933C4.43965 3.83395 4.5047 3.78365 4.51806 3.72236C4.54003 3.62428 4.46894 3.54946 4.37157 3.56553C4.31083 3.57567 4.22293 3.64922 4.21733 3.70164C4.21087 3.75956 4.28454 3.82592 4.32332 3.88849Z" fill="#410EAD"/>
<path d="M3.80197 2.62553C3.46936 2.62426 3.19836 2.35668 3.19922 2.02991C3.19965 1.70441 3.47194 1.43767 3.80585 1.43556C4.14234 1.43345 4.42454 1.71244 4.41764 2.04132C4.41118 2.36767 4.13803 2.6268 3.80197 2.62553ZM3.99068 2.07007C3.99154 2.0464 3.99283 2.0223 3.99369 1.99863C3.93251 1.95551 3.8666 1.87392 3.81102 1.87984C3.75242 1.88618 3.67358 1.97031 3.66022 2.03202C3.65204 2.07049 3.74596 2.16687 3.79982 2.17152C3.86013 2.1766 3.92691 2.10727 3.99111 2.07007H3.99068Z" fill="#410EAD"/>
</svg>
