<svg width="15" height="16" viewBox="0 0 15 16" fill="none" xmlns="http://www.w3.org/2000/svg">
<path d="M1.29707 15.9996C1.06581 15.894 0.813238 15.8214 0.608523 15.6757C0.212768 15.3941 0.0116729 14.9747 0.00604228 14.4772C-0.00441467 13.5504 0.00161811 12.6235 0.00282468 11.6967C0.00282468 11.488 0.133134 11.3436 0.308087 11.3474C0.484649 11.3507 0.603295 11.4918 0.603697 11.7071C0.604904 12.5922 0.603697 13.4773 0.604501 14.3625C0.604904 14.9855 0.980549 15.3744 1.58263 15.3744C5.12593 15.3744 8.66962 15.3744 12.2129 15.3744C12.815 15.3744 13.1915 14.9855 13.1923 14.3637C13.1931 13.7707 13.1923 13.1781 13.1923 12.5642C13.1247 12.5642 13.0664 12.5642 13.0085 12.5642C11.5481 12.5642 10.0873 12.5659 8.62699 12.5638C7.36613 12.5617 6.37312 11.5176 6.38679 10.2139C6.40006 8.97701 7.38101 7.95251 8.58315 7.94374C10.0536 7.93331 11.5244 7.94082 12.9948 7.9404C13.0543 7.9404 13.1134 7.9404 13.183 7.9404C13.1866 7.88573 13.1919 7.84066 13.1919 7.79559C13.1923 7.23848 13.1935 6.68136 13.1919 6.12425C13.1902 5.53166 12.8078 5.13188 12.2391 5.13188C8.68048 5.13104 5.1219 5.13104 1.56332 5.13188C0.985376 5.13188 0.604501 5.52999 0.604099 6.13301C0.603295 6.99226 0.604099 7.85151 0.604099 8.71035C0.604099 8.75709 0.60611 8.80424 0.602893 8.85098C0.591229 9.03126 0.467757 9.15771 0.304065 9.15813C0.140374 9.15896 0.0116728 9.03293 0.0040312 8.85349C-0.00240384 8.70784 0.00202028 8.56178 0.00202028 8.41614C0.00202028 7.66122 0.0012159 6.9063 0.00202028 6.15096C0.00282466 5.18529 0.63547 4.52176 1.56292 4.50215C1.63612 4.50048 1.72541 4.45374 1.7789 4.39865C3.13428 2.99898 4.48564 1.59555 5.8378 0.192956C6.08555 -0.0641099 6.205 -0.0645273 6.45275 0.192956C6.72222 0.472557 6.99128 0.752992 7.26799 1.04136C7.3054 1.00755 7.33918 0.980011 7.36934 0.94913C7.62554 0.684552 7.88013 0.418723 8.13632 0.154146C8.3342 -0.0499212 8.47818 -0.0503385 8.67646 0.15498C9.51101 1.01966 10.3447 1.88517 11.1789 2.75068C11.7681 3.36204 12.3565 3.97383 12.9469 4.58352C13.0426 4.68243 13.1448 4.77465 13.2474 4.86605C13.5985 5.17861 13.7875 5.57339 13.7931 6.05289C13.8 6.62044 13.7947 7.18798 13.7951 7.75553C13.7951 7.81187 13.7951 7.86779 13.7951 7.9404C14.0775 7.9404 14.3469 7.93999 14.6164 7.9404C14.8931 7.94124 14.9997 8.05057 14.9997 8.33643C15.0001 9.61717 15.0001 10.8983 14.9997 12.1791C14.9997 12.4557 14.8931 12.5634 14.6236 12.5642C14.3538 12.5651 14.0835 12.5642 13.7955 12.5642V12.7424C13.7955 13.2841 13.7963 13.8254 13.7955 14.367C13.7939 15.2033 13.3258 15.8018 12.5387 15.9758C12.525 15.9787 12.5134 15.9917 12.5005 16H1.29707V15.9996ZM14.3896 8.56512C14.3248 8.56512 14.2705 8.56512 14.2162 8.56512C13.0422 8.56512 11.8678 8.56512 10.6938 8.56512C9.99122 8.56512 9.2886 8.55636 8.58637 8.56888C7.72247 8.58432 7.02064 9.30085 6.99088 10.1776C6.9575 11.1479 7.68024 11.9354 8.62096 11.9379C10.5024 11.9429 12.3843 11.9395 14.2657 11.9395C14.3043 11.9395 14.3433 11.9395 14.3896 11.9395V8.56512ZM4.84681 4.49505H11.9664C10.7763 3.26022 9.58662 2.02538 8.40659 0.800983C7.22616 2.0258 6.03608 3.26064 4.84681 4.49505ZM6.15875 0.803905C4.96907 2.0379 3.77979 3.27149 2.58931 4.50632C2.98024 4.50632 3.38484 4.50215 3.78904 4.50924C3.89924 4.51091 3.97405 4.47502 4.05087 4.3949C4.94574 3.46136 5.84424 2.53117 6.74152 1.59972C6.77571 1.56425 6.80748 1.52628 6.8296 1.50124C6.59513 1.25794 6.3691 1.02299 6.15875 0.804322V0.803905Z" fill="#410EAD"/>
<path d="M0.603517 10.249C0.60593 10.4218 0.467576 10.5653 0.300265 10.5636C0.138987 10.562 0.00586152 10.4251 0.00344837 10.2578C0.00103523 10.0871 0.142606 9.93934 0.3067 9.94143C0.465968 9.94351 0.601103 10.0837 0.603517 10.249Z" fill="#410EAD"/>
<path d="M9.51819 10.2583C9.51618 10.772 9.11077 11.1898 8.61447 11.1898C8.11214 11.1898 7.70713 10.7641 7.71196 10.2416C7.71678 9.73 8.12822 9.31226 8.62292 9.31644C9.11681 9.32061 9.5198 9.7446 9.51779 10.2583H9.51819ZM8.62091 10.5642C8.78219 10.5613 8.9141 10.4232 8.91531 10.2558C8.91652 10.0839 8.77495 9.93824 8.60965 9.94199C8.45038 9.94533 8.31605 10.0868 8.31524 10.2521C8.31404 10.4252 8.45319 10.5671 8.62091 10.5642Z" fill="#410EAD"/>
</svg>
