<svg width="15" height="15" viewBox="0 0 15 15" fill="none" xmlns="http://www.w3.org/2000/svg">
<path d="M0.353675 12.0218C0.229257 11.8839 0.127274 11.7707 0 11.6298C0.103614 11.5322 0.217835 11.4178 0.339398 11.3119C0.57151 11.1094 0.664518 10.8594 0.657991 10.5481C0.645346 9.92676 0.660031 9.30499 0.651464 8.68363C0.647793 8.40816 0.723668 8.17263 0.935384 8.00092C1.10712 7.86175 1.14914 7.69745 1.14751 7.48086C1.13731 6.24803 1.1422 5.0152 1.14261 3.78237C1.14261 3.25777 1.43714 2.95842 1.95358 2.95801C5.6482 2.95801 9.34242 2.95801 13.037 2.95801C13.5461 2.95801 13.8447 3.25777 13.8447 3.77001C13.8451 5.05926 13.8464 6.3485 13.8427 7.63774C13.8427 7.74398 13.8647 7.82551 13.9479 7.89139C14.2482 8.12981 14.3547 8.43863 14.3396 8.82528C14.3163 9.42523 14.3367 10.0272 14.3318 10.628C14.3298 10.8738 14.4081 11.0793 14.586 11.2473C14.723 11.3766 14.8589 11.5075 15 11.6422C14.8699 11.7719 14.7597 11.8818 14.6353 12.0062C14.446 11.8028 14.247 11.6109 14.0744 11.3976C13.9055 11.1888 13.8439 10.9331 13.8443 10.663C13.8451 9.99511 13.8484 9.32723 13.8403 8.65975C13.839 8.5671 13.8011 8.4514 13.7391 8.38634C13.3218 7.95069 12.8934 7.52574 12.4688 7.09709C12.3297 6.95668 12.1649 6.90809 11.9801 6.97603C11.8079 7.03945 11.7096 7.17327 11.6921 7.35857C11.6774 7.51216 11.7402 7.63692 11.8471 7.74398C12.1 7.99722 12.3485 8.25498 12.6038 8.50534C12.7862 8.68405 12.8812 8.89446 12.8673 9.15223C12.8665 9.16746 12.8673 9.18311 12.8673 9.19834C12.8673 9.4347 12.9261 9.69288 12.8502 9.90082C12.776 10.1046 12.5626 10.2553 12.4141 10.4328C12.0768 10.8359 11.9022 11.3021 11.8912 11.8295C11.8875 12.0091 11.883 12.1894 11.892 12.369C11.9071 12.6737 11.863 12.9545 11.615 13.1509C11.779 13.3238 11.9177 13.5067 12.0927 13.6417C12.2102 13.7319 12.3754 13.7735 12.5259 13.8015C12.6687 13.8278 12.82 13.806 12.9677 13.8085C13.2467 13.813 13.5058 13.8929 13.7118 14.0819C13.8953 14.2503 14.0532 14.4467 14.2274 14.6361C14.1323 14.7222 14.0169 14.8268 13.8819 14.9499C13.7681 14.8301 13.6338 14.6905 13.5017 14.5497C13.3381 14.3751 13.1386 14.2944 12.9008 14.3001C12.7482 14.3038 12.5948 14.308 12.4431 14.296C12.1433 14.2721 11.885 14.1482 11.6709 13.9345C11.4938 13.7574 11.3217 13.575 11.1389 13.4037C11.0896 13.3572 11.01 13.3185 10.9444 13.3185C8.64404 13.314 6.34413 13.314 4.04381 13.3185C3.97813 13.3185 3.89859 13.3576 3.84923 13.4037C3.66281 13.5783 3.48821 13.7657 3.30587 13.9448C3.06927 14.177 2.78412 14.3022 2.4537 14.2993C1.67659 14.2931 1.7333 14.2997 1.20747 14.8346C1.16505 14.8774 1.14139 14.9392 1.10427 14.9997C0.959452 14.8437 0.85543 14.7317 0.741617 14.6094C1.06715 14.2833 1.34943 13.8789 1.86914 13.8221C2.05026 13.8023 2.23464 13.8085 2.4178 13.8089C2.63768 13.8089 2.82369 13.7335 2.98075 13.5775C3.11414 13.4449 3.25243 13.3177 3.40214 13.1752C3.12393 12.9549 3.09007 12.6741 3.09333 12.3694C3.0966 12.0572 3.0966 11.7402 3.04887 11.4334C2.97422 10.9521 2.73395 10.5432 2.37007 10.2249C2.171 10.0507 2.08371 9.8617 2.11634 9.59858C2.13592 9.4417 2.12287 9.2807 2.1192 9.12134C2.1143 8.88664 2.19793 8.69228 2.36232 8.52799C2.61932 8.27145 2.87428 8.01328 3.12882 7.75427C3.34217 7.53727 3.35359 7.2618 3.16023 7.07239C2.973 6.88915 2.70784 6.90727 2.49612 7.12056C2.08534 7.53398 1.67129 7.94451 1.26948 8.36657C1.20054 8.43904 1.15036 8.56134 1.14873 8.66181C1.13813 9.31405 1.13935 9.96629 1.14465 10.6189C1.14792 11.0114 1.0133 11.3383 0.735906 11.6117C0.605368 11.7402 0.485845 11.8798 0.354083 12.0218H0.353675ZM2.62014 4.44449V6.47244C2.65195 6.4708 2.67235 6.47038 2.69234 6.46791C3.13984 6.4148 3.50942 6.60503 3.69177 6.98262C3.8733 7.35815 3.79457 7.77569 3.48046 8.09728C3.33768 8.24345 3.20715 8.40693 3.04601 8.52922C2.68336 8.80552 2.541 9.15387 2.603 9.60846C2.63237 9.82341 2.6438 9.8617 2.86693 9.8617C5.89377 9.8617 8.92103 9.8617 11.9479 9.8617C12.0295 9.8617 12.1106 9.8617 12.1922 9.8617C12.3162 9.8617 12.3786 9.79952 12.379 9.67435C12.379 9.5047 12.3729 9.33505 12.3811 9.16622C12.3876 9.03158 12.3391 8.93234 12.2452 8.84011C11.9793 8.57863 11.7121 8.31757 11.4584 8.04416C10.9733 7.52204 11.2034 6.67791 11.883 6.49221C12.0356 6.45062 12.2024 6.46215 12.368 6.44856V4.44366H2.62014V4.44449ZM12.8682 3.95078V4.13031C12.8682 4.97237 12.8682 5.81485 12.8686 6.65691C12.8686 6.70715 12.8571 6.7755 12.8841 6.80515C13.0277 6.96492 13.1819 7.1148 13.356 7.29268C13.356 6.0685 13.3573 4.88755 13.3544 3.70701C13.354 3.53613 13.25 3.45213 13.0595 3.45213C9.35058 3.45172 5.64208 3.45172 1.93318 3.45213C1.71575 3.45213 1.63131 3.53942 1.63131 3.76301C1.6305 4.8929 1.6309 6.02238 1.63131 7.15227C1.63131 7.18809 1.63866 7.22392 1.64641 7.29186C1.78265 7.14939 1.89035 7.02586 2.00987 6.91509C2.09146 6.83974 2.12246 6.76068 2.12205 6.64786C2.11716 5.80579 2.1192 4.96332 2.1192 4.12125C2.1192 4.06649 2.1192 4.01172 2.1192 3.95119H12.8682V3.95078ZM11.4016 12.3385H3.59468C3.56001 12.7601 3.61467 12.8215 4.01607 12.8215C6.35025 12.8215 8.68483 12.8215 11.019 12.8215C11.0647 12.8215 11.1108 12.824 11.1565 12.8202C11.3017 12.8095 11.391 12.7218 11.4008 12.5761C11.4057 12.5003 11.4016 12.4237 11.4016 12.3385ZM5.06201 10.3624V11.8229H7.24117V10.3624H5.06201ZM7.74496 11.8242H9.92453V10.3636H7.74496V11.8242ZM3.13127 10.3608C3.42906 10.8199 3.56817 11.3045 3.58856 11.8258H4.55291V10.3608H3.13127ZM10.4361 10.3604V11.8242H11.4021C11.4159 11.2926 11.5685 10.8121 11.8524 10.3604H10.4361Z" fill="#410EAD"/>
<path d="M9.37749 0.794866C9.26939 0.902337 9.16169 1.0094 9.04135 1.1284C8.61588 0.722806 8.10271 0.495099 7.50223 0.493452C6.89972 0.491805 6.3841 0.713747 5.94272 1.13622C5.83176 1.01804 5.72447 0.903984 5.61719 0.789513C6.58643 -0.261318 8.39601 -0.266671 9.37749 0.794454V0.794866Z" fill="#410EAD"/>
<path d="M6.62384 1.83099C6.51778 1.71652 6.41457 1.60493 6.31055 1.49252C6.81679 0.886399 7.99611 0.757104 8.68919 1.49252C8.57538 1.59752 8.46115 1.70293 8.34286 1.81164C7.78277 1.35911 7.20514 1.35828 6.62384 1.83058V1.83099Z" fill="#410EAD"/>
<path d="M8.00107 2.19567C7.88971 2.30355 7.78405 2.40608 7.69268 2.4942H7.30229C7.21214 2.40773 7.10322 2.30355 6.99512 2.19979C7.19745 1.90784 7.7555 1.89549 8.00107 2.19526V2.19567Z" fill="#410EAD"/>
<path d="M5.29592 7.14576C5.30163 5.91622 6.29168 4.92427 7.50609 4.93168C8.72254 4.93909 9.6979 5.93763 9.69219 7.16964C9.68647 8.39053 8.68786 9.37712 7.46693 9.36889C6.2721 9.36065 5.29021 8.35512 5.29592 7.14576ZM7.49385 5.42457C6.54541 5.42827 5.78258 6.20404 5.78462 7.16305C5.78707 8.10806 6.56173 8.88053 7.50282 8.87559C8.44433 8.87065 9.20512 8.09694 9.20349 7.14576C9.20226 6.19704 8.43127 5.42127 7.49385 5.42457Z" fill="#410EAD"/>
<path d="M7.01289 5.85197C7.10182 5.88574 7.19891 5.90633 7.27845 5.95533C7.68598 6.20568 8.09146 6.45974 8.49286 6.71998C8.83144 6.93945 8.83063 7.35987 8.49164 7.57975C8.09472 7.83752 7.69414 8.08993 7.2911 8.3374C6.91621 8.56717 6.5197 8.33864 6.51766 7.89475C6.51522 7.38704 6.5144 6.87933 6.51848 6.37163C6.52052 6.08339 6.73468 5.86844 7.0133 5.85156L7.01289 5.85197ZM7.01289 7.93305C7.43061 7.66952 7.83202 7.41628 8.25463 7.14945C7.83038 6.8818 7.42898 6.62857 7.01289 6.36586V7.93305Z" fill="#410EAD"/>
</svg>
