<svg width="15" height="15" viewBox="0 0 15 15" fill="none" xmlns="http://www.w3.org/2000/svg">
<path d="M8.06631 15H6.93302C6.85836 14.982 6.78503 14.9547 6.7097 14.9467C3.74717 14.6487 1.21728 12.5827 0.343985 9.71334C0.181325 9.17867 0.111995 8.616 0 8.06667V6.93333C0.0186658 6.84933 0.0439978 6.766 0.0559973 6.68067C0.503977 3.5 2.26857 1.398 5.28443 0.348C5.81041 0.164667 6.38238 0.112667 6.93369 0C7.31167 0 7.68899 0 8.06697 0C8.13031 0.0173333 8.19297 0.043333 8.25696 0.0506663C11.3528 0.393333 13.8141 2.43333 14.6927 5.414C14.838 5.908 14.8993 6.42667 15 6.93333V8.06667C14.9813 8.15067 14.956 8.234 14.944 8.31933C14.502 11.454 12.7801 13.5567 9.80956 14.618C9.25425 14.8167 8.64895 14.876 8.06697 14.9993L8.06631 15ZM8.1743 8.862C8.46762 8.78933 8.77894 8.8 8.95093 8.65C9.28025 8.36333 9.55624 8.00333 9.8069 7.64067C10.1649 7.12267 10.2075 6.54067 9.87089 6.008C9.57224 5.53467 9.22092 5.08133 8.82694 4.686C8.45296 4.31067 8.01564 4.02733 8.1383 3.38333C8.18097 3.158 7.97431 2.99933 7.72632 3.00533C7.48033 3.01133 7.34167 3.158 7.31901 3.40267C7.30501 3.55333 7.30301 3.70533 7.29368 3.894C6.90503 3.79733 6.54904 3.70867 6.26239 3.63667C6.52504 4.49067 6.8457 5.33933 7.04035 6.216C7.25634 7.19 6.61637 7.948 6.14373 8.79133H7.29368V9.61C7.03769 9.61 6.79636 9.61 6.55504 9.61C5.74774 9.61 5.60042 9.49333 5.41709 8.68133C4.77312 8.68133 4.11982 8.69667 3.46785 8.67467C3.15853 8.664 3.11719 8.79667 3.14853 9.05267C3.31119 10.3807 4.36714 11.3227 5.71175 11.326C6.93302 11.3293 8.15497 11.3133 9.37625 11.3333C9.88889 11.342 10.2895 11.162 10.5882 10.7667C10.8488 10.4227 11.0562 10.0373 11.3268 9.70267C11.5315 9.45 11.7748 9.21267 12.0441 9.03333C12.4354 8.77267 12.4674 8.762 12.3428 8.244C11.6628 8.43867 10.9802 8.62267 10.3062 8.834C10.1255 8.89067 9.92422 8.99133 9.81156 9.13467C9.36892 9.69733 8.78694 9.646 8.17363 9.58267V8.86133L8.1743 8.862ZM3.6285 7.86067C4.3778 7.86067 5.03978 7.864 5.70108 7.85533C5.76041 7.85467 5.83374 7.786 5.87507 7.72933C6.46305 6.92533 6.39105 5.43267 5.70775 4.60533C5.02644 5.67267 4.35047 6.73067 3.62917 7.86067H3.6285Z" fill="#410EAD"/>
</svg>
