<svg width="15" height="16" viewBox="0 0 15 16" fill="none" xmlns="http://www.w3.org/2000/svg">
<path d="M13.2114 9.07994C13.4363 9.35199 13.6494 9.61422 13.8703 9.87015C13.9018 9.90671 13.9713 9.92401 14.0244 9.92597C14.2202 9.93226 14.4168 9.9303 14.6125 9.92794C14.7733 9.92597 14.9035 9.9759 14.9695 10.1328C15.0363 10.2916 14.9715 10.4139 14.8575 10.5271C14.0201 11.3562 12.63 11.289 11.8822 10.3761C11.7993 10.2747 11.7171 10.2377 11.5878 10.2377C9.02843 10.2417 6.46872 10.2417 3.90941 10.2373C3.75962 10.2373 3.66331 10.2766 3.56502 10.3942C3.01699 11.0503 2.11042 11.2776 1.30999 10.9733C0.51507 10.671 -0.016057 9.88666 0.00242039 9.04142C0.0208978 8.18792 0.573254 7.4331 1.38036 7.15908C2.18275 6.88664 3.0736 7.14414 3.60473 7.81011C3.67156 7.89385 3.73682 7.91862 3.83786 7.91823C6.43177 7.91587 9.02529 7.91587 11.6192 7.91823C11.7257 7.91823 11.7941 7.8911 11.8649 7.80382C12.6209 6.87091 14.0173 6.79582 14.8594 7.63517C14.9738 7.74918 15.0359 7.87341 14.9679 8.03027C14.9011 8.18438 14.771 8.23667 14.6098 8.2347C14.4089 8.23195 14.2076 8.22959 14.0067 8.23745C13.956 8.23942 13.8915 8.26654 13.8593 8.30428C13.6415 8.55668 13.4312 8.81497 13.211 9.07994H13.2114ZM14.688 7.91665C14.644 7.86869 14.6259 7.84667 14.6055 7.82702C13.8809 7.1233 12.6626 7.23417 12.0575 8.06683C11.9652 8.19421 11.8673 8.23745 11.7151 8.23745C9.06224 8.23391 6.40975 8.23352 3.75687 8.23745C3.60001 8.23745 3.50015 8.19263 3.40187 8.06251C3.01502 7.54986 2.49215 7.31398 1.85055 7.38042C1.03951 7.46415 0.429759 8.07587 0.324792 8.89124C0.229653 9.62915 0.679794 10.382 1.38626 10.667C2.1285 10.9666 2.95487 10.7288 3.42349 10.071C3.50251 9.96017 3.59097 9.92676 3.71952 9.92715C6.39167 9.92951 9.06421 9.9299 11.7364 9.92676C11.8783 9.92676 11.9679 9.97158 12.0528 10.0887C12.648 10.9096 13.8227 11.0374 14.5677 10.369C14.6043 10.3364 14.6357 10.2983 14.6904 10.2409C14.4116 10.2409 14.1714 10.2362 13.9316 10.2428C13.8184 10.246 13.7386 10.2114 13.6667 10.1221C13.4264 9.82454 13.1823 9.53008 12.9331 9.24034C12.834 9.12555 12.8371 9.03316 12.9346 8.91954C13.1839 8.62941 13.4276 8.33495 13.6678 8.03735C13.7398 7.9481 13.8204 7.91272 13.9332 7.91547C14.1726 7.92137 14.4124 7.91744 14.6876 7.91744L14.688 7.91665Z" fill="#410EAD"/>
<path d="M7.16933 13.8614C7.16933 14.014 7.16933 14.1461 7.16933 14.2778C7.16933 14.393 7.15793 14.5078 7.00815 14.507C6.86937 14.5062 6.8505 14.4004 6.85325 14.288C6.85404 14.2593 6.84893 14.231 6.84696 14.2027C6.64961 14.2003 6.5757 14.2652 6.55407 14.4523C6.51397 14.8014 6.29932 15 5.94589 15.0004C4.31791 15.0023 2.69033 15.0039 1.06235 14.9996C0.436086 14.998 0.00520906 14.5565 0.00206397 13.9271C-0.000687988 13.4125 -0.000687988 12.8975 0.00206397 12.3825C0.00560219 11.7578 0.428617 11.3222 1.05252 11.3198C2.68522 11.3143 4.31791 11.3167 5.95061 11.3186C6.30758 11.319 6.51279 11.5113 6.55407 11.8675C6.57452 12.0448 6.64489 12.1077 6.85364 12.1183C6.85364 12.0711 6.85286 12.0247 6.85364 11.9779C6.85561 11.8741 6.90593 11.8042 7.0109 11.8038C7.11822 11.8038 7.1654 11.8796 7.16737 11.9799C7.17012 12.1309 7.16815 12.2818 7.16815 12.4509C7.23931 12.4509 7.29671 12.4509 7.35371 12.4509C9.02061 12.4509 10.6879 12.4489 12.3548 12.4536C12.5321 12.454 12.6976 12.4371 12.838 12.3251C13.1143 12.1045 13.3946 12.0947 13.7213 12.2307C14.0724 12.3774 14.4443 12.4737 14.8099 12.5837C14.944 12.6238 15.0038 12.6958 14.9998 12.8365C14.9935 13.052 14.9951 13.2682 14.9994 13.4836C15.0018 13.6079 14.9574 13.6849 14.8327 13.7238C14.3421 13.8764 13.8538 14.0372 13.3624 14.1862C13.3011 14.2046 13.2067 14.1976 13.1584 14.1614C12.7833 13.8819 12.3619 13.8485 11.9098 13.8536C10.395 13.8705 8.87987 13.8599 7.36472 13.8599H7.16854L7.16933 13.8614ZM6.84814 12.4493C6.4436 12.3758 6.27534 12.2232 6.23956 11.9083C6.21558 11.6976 6.14049 11.6288 5.92466 11.6288C4.30219 11.6284 2.67932 11.6272 1.05685 11.6292C0.616929 11.6296 0.320504 11.93 0.318932 12.3703C0.316966 12.8947 0.316966 13.4196 0.318932 13.944C0.320504 14.3871 0.612604 14.6843 1.05488 14.6851C2.68247 14.687 4.31005 14.6862 5.93764 14.6855C6.14285 14.6855 6.21676 14.6155 6.23956 14.4103C6.27377 14.1052 6.47073 13.9122 6.77541 13.8846C6.79821 13.8827 6.82101 13.8772 6.84814 13.8724V12.4493ZM7.17641 13.552C7.25543 13.552 7.31833 13.552 7.38163 13.552C8.95967 13.552 10.5377 13.5619 12.1158 13.545C12.5121 13.5406 12.8686 13.5953 13.1961 13.8249C13.2484 13.8614 13.3451 13.8666 13.4104 13.8477C13.697 13.7651 13.9796 13.6692 14.2631 13.576C14.4015 13.5304 14.5914 13.5178 14.6605 13.4207C14.7305 13.3221 14.6743 13.1373 14.6853 12.9914C14.6928 12.8916 14.648 12.8574 14.5615 12.831C14.243 12.7347 13.9207 12.647 13.6117 12.526C13.3903 12.4391 13.204 12.4391 13.0137 12.5865C12.8073 12.7469 12.5679 12.7732 12.3092 12.7721C10.6576 12.7638 9.00606 12.7677 7.3545 12.7677C7.2971 12.7677 7.2401 12.7677 7.17641 12.7677V13.5516V13.552Z" fill="#410EAD"/>
<path d="M3.96164 3.87734C3.96164 3.41698 3.93451 2.95465 3.96911 2.49664C4.00528 2.01938 4.26671 1.64904 4.67833 1.40491C5.36474 0.99801 6.05588 0.59819 6.75173 0.207413C7.25219 -0.0736797 7.76602 -0.0669963 8.26491 0.214882C8.93835 0.595438 9.60747 0.98425 10.275 1.37503C10.7979 1.68089 11.0526 2.14715 11.0558 2.74904C11.0597 3.49914 11.0593 4.24925 11.0558 4.99896C11.053 5.61343 10.7873 6.08087 10.253 6.39027C9.60472 6.76571 8.95643 7.14155 8.30658 7.51464C7.76759 7.82403 7.22821 7.82443 6.68882 7.51149C6.04487 7.1384 5.39973 6.76689 4.75499 6.39538C4.21521 6.08441 3.94591 5.61618 3.94277 4.99463C3.9408 4.62194 3.94277 4.24964 3.94277 3.87695H3.96125L3.96164 3.87734ZM10.7405 3.87223C10.7405 3.48971 10.7417 3.10719 10.7405 2.72466C10.7389 2.24779 10.5306 1.88571 10.1201 1.64629C9.46043 1.26102 8.798 0.880069 8.13557 0.499513C7.70705 0.253016 7.27932 0.259307 6.85198 0.506589C6.20763 0.879676 5.56328 1.25237 4.91735 1.6227C4.47861 1.87392 4.25688 2.24582 4.25924 2.75415C4.26239 3.49954 4.26317 4.24492 4.25924 4.98992C4.2561 5.50453 4.48058 5.87919 4.92404 6.13276C5.57035 6.50231 6.2147 6.875 6.85905 7.24809C7.28207 7.49341 7.70744 7.49734 8.12967 7.25635C8.79761 6.8754 9.46397 6.49091 10.1268 6.1017C10.5306 5.86425 10.7381 5.50532 10.7405 5.03395C10.7425 4.64671 10.7409 4.25907 10.7409 3.87184L10.7405 3.87223Z" fill="#410EAD"/>
<path d="M2.02176 10.0764C1.71629 10.1653 1.52287 10.0088 1.31569 9.81025C1.0971 9.60071 1.00707 9.38881 1.00983 9.08256C1.01219 8.78024 1.09435 8.56676 1.31097 8.3529C1.52248 8.14375 1.72848 8.0549 2.02766 8.05372C2.33273 8.05254 2.54345 8.14336 2.75732 8.3588C2.96725 8.5703 3.05335 8.77867 3.05374 9.07706C3.05374 9.38056 2.9704 9.59521 2.75063 9.80711C2.53441 10.0159 2.32919 10.1645 2.02215 10.0768L2.02176 10.0764ZM2.07247 9.7792C2.31543 9.86529 2.44753 9.64317 2.61736 9.4867C2.70424 9.4065 2.72154 9.31883 2.73648 9.2064C2.77776 8.89896 2.67043 8.67409 2.43298 8.48421C2.3461 8.41501 2.26983 8.38199 2.16093 8.37924C1.91365 8.37295 1.67855 8.36155 1.51068 8.60411C1.42891 8.72205 1.33338 8.8054 1.31962 8.97563C1.29524 9.27677 1.40847 9.47727 1.62076 9.67305C1.75325 9.79492 1.88573 9.76701 2.07208 9.77959L2.07247 9.7792Z" fill="#410EAD"/>
<path d="M3.29196 14.0141C2.87563 14.0141 2.4589 14.016 2.04257 14.0137C1.51734 14.0101 1.14072 13.6476 1.14308 13.1527C1.14544 12.6628 1.53032 12.3008 2.05358 12.3004C2.90629 12.2996 3.75901 12.2964 4.61133 12.3023C5.04102 12.3051 5.39838 12.633 5.44399 13.0461C5.49392 13.4971 5.22422 13.8906 4.78942 13.992C4.70489 14.0117 4.61447 14.0129 4.5268 14.0133C4.11519 14.0152 3.70357 14.0141 3.29196 14.0141ZM3.30375 12.6165C3.30375 12.6165 3.30375 12.6149 3.30375 12.6141C2.8772 12.6141 2.45065 12.6106 2.0241 12.6153C1.68875 12.6188 1.45444 12.848 1.45601 13.1602C1.45759 13.4719 1.69268 13.7043 2.02724 13.7058C2.87563 13.7102 3.72402 13.7113 4.57201 13.7023C4.6872 13.7011 4.81497 13.6555 4.91404 13.5942C5.10825 13.4739 5.18177 13.2321 5.11965 13.0123C5.05518 12.7835 4.86844 12.6231 4.62744 12.6188C4.18635 12.6109 3.74485 12.6165 3.30375 12.6165Z" fill="#410EAD"/>
<path d="M6.20761 4.03655C6.20761 3.77393 6.20761 3.55102 6.20761 3.32851C6.20761 3.28448 6.20643 3.24045 6.20839 3.19641C6.21232 3.09459 6.25753 3.02501 6.36722 3.02501C6.46944 3.02501 6.52094 3.09223 6.52172 3.1858C6.52487 3.64616 6.52723 4.10692 6.51779 4.56728C6.51661 4.62153 6.44585 4.70802 6.39474 4.71864C6.34285 4.72925 6.2536 4.67972 6.21861 4.62979C6.04446 4.38133 5.88288 4.12422 5.71619 3.87064C5.69063 3.83172 5.66272 3.79477 5.60532 3.76371C5.60532 3.99094 5.60611 4.21857 5.60532 4.4458C5.60454 4.56649 5.62891 4.70763 5.45396 4.73083C5.34074 4.74576 5.29317 4.65416 5.29317 4.44305C5.29317 4.04126 5.28845 3.63948 5.29789 3.23809C5.29946 3.16889 5.34467 3.07258 5.39971 3.03916C5.48974 2.98491 5.5605 3.05842 5.6124 3.13902C5.77437 3.38984 5.93831 3.63948 6.10225 3.88912C6.1278 3.92804 6.1565 3.965 6.208 4.03733L6.20761 4.03655Z" fill="#410EAD"/>
<path d="M7.35003 3.32933V3.71971C7.512 3.71971 7.67594 3.71932 7.84027 3.71971C7.9362 3.71971 8.0219 3.74291 8.03291 3.85613C8.04431 3.9725 7.97826 4.02911 7.86582 4.03029C7.6956 4.03226 7.52498 4.03068 7.33902 4.03068C7.33902 4.20327 7.33824 4.35934 7.33902 4.51503C7.33981 4.62943 7.31347 4.73282 7.17705 4.72889C7.05282 4.72535 7.02609 4.63022 7.02687 4.51896C7.02923 4.08729 7.02687 3.65563 7.02844 3.22436C7.02884 3.06632 7.07169 3.02465 7.23052 3.02268C7.43141 3.02072 7.63269 3.02347 7.83359 3.0215C7.94406 3.02072 8.03566 3.04627 8.0333 3.17836C8.03094 3.31085 7.93502 3.33051 7.8269 3.32933C7.67122 3.32775 7.51515 3.32893 7.34924 3.32893L7.35003 3.32933Z" fill="#410EAD"/>
<path d="M9.2092 3.32911C9.2092 3.71989 9.20881 4.09179 9.2092 4.46331C9.2092 4.58282 9.22375 4.71295 9.05666 4.73064C8.94776 4.74204 8.89862 4.65516 8.89862 4.46842C8.89823 4.09651 8.89862 3.72461 8.89862 3.3295C8.7909 3.3295 8.69498 3.32832 8.59944 3.3295C8.49408 3.33108 8.40956 3.3012 8.40681 3.17972C8.40406 3.05903 8.48268 3.02207 8.5908 3.02246C8.8998 3.02325 9.20881 3.02364 9.51742 3.02246C9.62553 3.02246 9.70612 3.06021 9.70416 3.17854C9.7018 3.29687 9.61767 3.33147 9.51113 3.3295C9.41835 3.32793 9.32596 3.3295 9.20881 3.3295L9.2092 3.32911Z" fill="#410EAD"/>
</svg>
