<svg width="15" height="16" viewBox="0 0 15 16" fill="none" xmlns="http://www.w3.org/2000/svg">
<path d="M4.50866 0.32354C4.7779 0.0747499 5.09432 -0.0137462 5.44747 0.00169884C5.62947 0.00963006 5.81188 0.00128144 5.99389 0.00336861C6.54698 0.010465 6.97318 0.421636 6.99948 0.971813C7.01534 1.30284 7.19943 1.48734 7.52879 1.5032C8.08021 1.5295 8.49514 1.95362 8.49848 2.50713C8.50307 3.25183 8.50182 3.99611 8.4989 4.74081C8.49723 5.19206 8.23759 5.54688 7.81139 5.70258C7.76422 5.71969 7.70035 5.75643 7.6895 5.7965C7.55759 6.28824 7.24451 6.59547 6.75487 6.73113V7.50339C7.01701 7.50339 7.27499 7.49879 7.53338 7.50422C8.17163 7.51758 8.75228 7.93668 8.92051 8.54822C8.99189 8.8087 8.96768 9.0938 9.00191 9.36597C9.04365 9.69992 8.92885 9.95622 8.70803 10.21C8.19584 10.799 7.71371 11.4139 7.21905 12.0179C7.16353 12.086 7.10843 12.154 7.0287 12.2521C7.25245 12.2521 7.44697 12.2621 7.63982 12.2492C7.8189 12.2375 7.91575 12.3252 8.02637 12.455C8.41917 12.9167 8.57905 13.4351 8.50391 14.0375C8.47719 14.2529 8.50099 14.4741 8.49932 14.6928C8.49765 14.9086 8.40999 15.0013 8.19877 15.0013C5.7309 15.0021 3.26304 15.0021 0.795176 15.0013C0.592304 15.0013 0.501721 14.9082 0.500886 14.7028C0.499216 14.2341 0.497546 13.7657 0.50339 13.2969C0.504225 13.2235 0.529689 13.1417 0.568927 13.0795C0.712524 12.8503 0.868227 12.629 1.016 12.4024C1.08487 12.2963 1.17629 12.2483 1.30319 12.2508C1.51441 12.2554 1.72605 12.2521 1.97108 12.2521C1.75778 11.9904 1.56576 11.7541 1.3729 11.5183C0.951296 11.0023 0.525514 10.4897 0.110586 9.96833C0.0483885 9.89027 0.00748021 9.77338 0.00539304 9.67362C-3.35849e-05 9.36221 -0.0113041 9.04622 0.0329438 8.7394C0.132293 8.04939 0.742997 7.52634 1.44011 7.50547C1.70435 7.49754 1.96858 7.50422 2.24158 7.50422V6.73155C2.21069 6.7207 2.17312 6.70734 2.13555 6.6944C1.72605 6.55623 1.45764 6.28114 1.33742 5.8658C1.31279 5.78106 1.27982 5.72804 1.18631 5.69632C0.75886 5.5523 0.502556 5.18997 0.500886 4.73706C0.498381 3.99778 0.497547 3.25851 0.500886 2.51924C0.503391 1.95487 0.914562 1.53034 1.47476 1.50362C1.79576 1.48859 1.98486 1.30158 1.99989 0.984336C2.02702 0.413288 2.4503 0.00837789 3.0251 0.00378613C3.18665 0.00253383 3.34778 0.00378613 3.50932 0.00378613C3.99313 0.00378613 4.11043 0.0409377 4.50657 0.324375L4.50866 0.32354ZM2.75127 6.67603C2.75127 7.0392 2.75252 7.36521 2.75127 7.69123C2.75043 7.91414 2.66235 8.00097 2.43736 8.0018C2.12512 8.00305 1.81288 7.99888 1.50064 8.00305C0.944617 8.01015 0.512574 8.4401 0.502973 8.99404C0.499634 9.18147 0.495877 9.36889 0.505478 9.5559C0.508817 9.62186 0.535533 9.69825 0.576859 9.74959C1.22597 10.5494 1.88092 11.345 2.53003 12.1452C2.5964 12.2271 2.66486 12.2542 2.76671 12.2542C3.92718 12.2508 5.08806 12.2508 6.24852 12.2542C6.34745 12.2542 6.40923 12.2237 6.47101 12.1477C7.01493 11.4769 7.54507 10.7936 8.11737 10.1474C8.41374 9.81262 8.53939 9.47283 8.50934 9.02827C8.46968 8.43635 8.06769 8.00639 7.47452 8.00263C7.17272 8.00055 6.87091 8.00305 6.56911 8.0018C6.33701 8.00097 6.25269 7.91497 6.25186 7.67912C6.25102 7.39819 6.25186 7.11684 6.25102 6.83591C6.25102 6.7925 6.24518 6.74908 6.24101 6.69231C5.28216 7.78306 3.68966 7.7505 2.7521 6.67603H2.75127ZM6.7557 6.19891C6.98571 6.10749 7.11219 5.9522 7.18023 5.74516C7.20778 5.66125 7.22907 5.57526 7.24702 5.48885C7.27916 5.3344 7.37016 5.26261 7.52837 5.24966C7.80972 5.22671 7.99798 5.02425 7.99923 4.74332C8.00257 3.99904 8.00257 3.25475 7.99923 2.51005C7.99798 2.22495 7.79386 2.01999 7.51125 2.00287C6.90556 1.96656 6.5378 1.59838 6.50023 0.991015C6.48312 0.714674 6.2815 0.51055 6.00766 0.504288C5.76847 0.498861 5.52886 0.498862 5.28926 0.505123C5.05967 0.510967 4.88226 0.619082 4.7562 0.809849C4.58463 1.06949 4.4139 1.07158 4.24818 0.815693C4.12003 0.61783 3.93845 0.510132 3.7026 0.504706C3.46842 0.499696 3.23424 0.499279 3.00006 0.504288C2.72497 0.509715 2.51959 0.711335 2.50122 0.984753C2.45948 1.60631 2.10425 1.96071 1.4806 2.00329C1.21386 2.02166 1.00514 2.22328 1.00306 2.48835C0.998049 3.24807 0.998466 4.00822 1.00306 4.76836C1.00473 5.00797 1.18422 5.22629 1.42007 5.24048C1.65968 5.25467 1.74651 5.38116 1.78157 5.5882C1.79451 5.66459 1.81663 5.74098 1.84627 5.81236C1.92058 5.99103 2.04414 6.1221 2.23824 6.19306V2.99761H1.7607V2.50296C2.05123 2.50296 2.33175 2.50003 2.61226 2.50421C2.76129 2.5063 2.85646 2.44535 2.91073 2.30468C3.02093 2.01873 3.13906 1.73572 3.25135 1.45019C3.29518 1.33957 3.36865 1.24231 3.4872 1.26109C3.57611 1.27529 3.68047 1.34082 3.73223 1.41513C3.88001 1.62843 4.0069 1.85635 4.13756 2.08093C4.30453 2.36813 4.54915 2.50588 4.88268 2.50379C5.61152 2.4992 6.34035 2.50254 7.06877 2.50254C7.12429 2.50254 7.18023 2.50254 7.2395 2.50254V3.0093H6.75487V6.19807L6.7557 6.19891ZM1.00139 14.4912H8.00049C8.00049 14.2741 7.98254 14.065 8.00424 13.8605C8.0439 13.4885 7.94872 13.1705 7.71079 12.8824C7.63815 12.7943 7.57971 12.748 7.46033 12.7484C5.58731 12.7526 3.71387 12.7618 1.84126 12.7422C1.4998 12.7384 1.26521 12.8085 1.13163 13.13C1.09448 13.2189 1.01099 13.3015 1.00765 13.3896C0.993457 13.7528 1.00181 14.1164 1.00181 14.4916L1.00139 14.4912ZM2.75502 2.99469C2.75502 3.80493 2.73332 4.59179 2.76087 5.37656C2.79134 6.25067 3.54689 6.9674 4.421 6.99954C5.41741 7.03669 6.23558 6.2682 6.24852 5.27095C6.2577 4.54754 6.25061 3.82371 6.25061 3.1003C6.25061 3.07066 6.24434 3.04144 6.24017 3.00262C5.7739 3.00262 5.31681 3.00304 4.85972 3.00262C4.36673 3.00179 3.99021 2.79099 3.73098 2.37147C3.67254 2.27713 3.61452 2.18279 3.54314 2.06716C3.37867 2.4825 3.28349 2.92498 2.75586 2.99511L2.75502 2.99469Z" fill="#410EAD"/>
<path d="M8.86615 7.80684C8.7885 7.66032 8.71629 7.52423 8.63572 7.37229C8.87617 7.24289 9.10784 7.11849 9.35454 6.98575C9.01225 6.6806 8.67872 6.38339 8.33559 6.07741C8.44579 5.95302 8.55182 5.83363 8.6662 5.70465C9.01684 6.01605 9.36206 6.31577 9.69809 6.62508C9.79326 6.71233 9.86214 6.72485 9.97902 6.66098C10.5033 6.37337 11.036 6.10121 11.5615 5.81568C11.7097 5.73512 11.8287 5.74555 11.9635 5.84407C12.3788 6.14838 12.8005 6.44434 13.2363 6.75532V1.7549H8.50757V1.25272H8.6879C10.2086 1.25272 11.7293 1.25189 13.2496 1.25439C13.3498 1.25439 13.4241 1.23018 13.4955 1.15588C13.6975 0.94591 13.9087 0.744708 14.145 0.512198H7.51074V0.00292969H7.68189C9.99948 0.00292969 12.3166 0.00292969 14.6342 0.00292969C14.9306 0.00292969 14.9999 0.0726411 14.9999 0.371523C14.9999 3.7928 14.9999 7.2145 14.9999 10.6358C14.9999 10.9322 14.9298 11.0019 14.6309 11.0019C12.8134 11.0019 10.9959 11.0019 9.17839 11.0019H9.01183V10.5026H14.1467C13.8866 10.243 13.6587 10.01 13.4228 9.78547C13.3894 9.75333 13.3172 9.75333 13.263 9.75333C12.0704 9.75166 10.8778 9.75207 9.68515 9.75207H9.50858V9.25909H13.2396C13.2438 9.19772 13.2492 9.15264 13.2492 9.10798C13.2496 8.577 13.2475 8.04561 13.2517 7.51463C13.2525 7.42322 13.23 7.36269 13.1515 7.30759C12.7124 6.99994 12.2762 6.68895 11.8433 6.37254C11.7581 6.31034 11.6963 6.31201 11.6062 6.36043C10.7484 6.81877 9.88802 7.27211 9.02853 7.72669C8.97927 7.75299 8.92834 7.77678 8.86656 7.80767L8.86615 7.80684ZM14.4911 0.862424C14.2727 1.08199 14.0807 1.28403 13.8783 1.47522C13.7843 1.56371 13.7464 1.65429 13.7464 1.78579C13.7509 4.1017 13.7493 6.4172 13.7497 8.73312C13.7497 8.95144 13.6921 9.19522 13.7701 9.38139C13.8507 9.573 14.064 9.70908 14.221 9.86812C14.3049 9.95328 14.3921 10.0355 14.4906 10.1315V0.862424H14.4911Z" fill="#410EAD"/>
<path d="M10.2465 3.00294C10.9307 3.00085 11.4951 3.55645 11.4997 4.23687C11.5043 4.93607 10.9428 5.50252 10.2453 5.50252C9.56403 5.50252 9.00342 4.94275 9.0005 4.26024C8.99758 3.56898 9.55652 3.00544 10.2465 3.00335V3.00294ZM10.2545 3.50385C9.83996 3.50177 9.501 3.83989 9.501 4.25649C9.501 4.66265 9.83912 5.00119 10.2457 5.00202C10.6552 5.00286 10.9933 4.67225 10.9992 4.26484C11.005 3.84991 10.669 3.50594 10.2545 3.50385Z" fill="#410EAD"/>
<path d="M6.73765 9.25186C6.50806 9.25186 6.2839 9.26772 6.06266 9.24893C5.15975 9.17213 4.66927 9.68724 4.75025 10.5555C4.75568 10.6123 4.75108 10.6695 4.75108 10.7392H4.251C4.251 10.5993 4.25142 10.4557 4.251 10.3121C4.24849 9.67638 3.82814 9.25353 3.19573 9.25186C2.88892 9.25102 2.5821 9.25186 2.26318 9.25186V8.7309C2.71652 8.75386 3.17319 8.75386 3.62318 8.80812C3.92874 8.84486 4.17753 9.03437 4.38166 9.26897C4.41505 9.30737 4.44886 9.34536 4.48894 9.39086C4.90178 8.90789 5.13512 8.35646 5.22863 7.72363C5.39017 7.74283 5.54713 7.7612 5.7429 7.78416C5.65399 8.12145 5.56967 8.44287 5.48577 8.76221H6.73765V9.25186Z" fill="#410EAD"/>
<path d="M4.00879 4.98526V4.50187C4.08017 4.50187 4.15072 4.50354 4.22085 4.50187C4.40493 4.49603 4.49802 4.40503 4.50052 4.2201C4.50386 3.98717 4.50136 3.75383 4.50136 3.51172H5.01772C4.99894 3.83773 5.02023 4.1746 4.95093 4.49185C4.86661 4.87756 4.47757 5.0558 4.00879 4.98567V4.98526Z" fill="#410EAD"/>
<path d="M4.99467 5.75226V6.26529C4.67325 6.25026 4.35516 6.26278 4.04668 6.21394C3.70146 6.15926 3.45059 5.94053 3.28027 5.61493C3.42888 5.54021 3.56997 5.46883 3.724 5.3916C3.89891 5.70426 4.17692 5.77313 4.49876 5.75393C4.65864 5.74433 4.81977 5.75226 4.99467 5.75226Z" fill="#410EAD"/>
<path d="M3.49335 3.50335C3.62859 3.49917 3.74547 3.60896 3.74965 3.74421C3.75382 3.87904 3.64362 3.99634 3.50837 4.00051C3.37312 4.00468 3.25666 3.8949 3.25207 3.75923C3.24789 3.62357 3.35684 3.50752 3.49293 3.50293L3.49335 3.50335Z" fill="#410EAD"/>
<path d="M5.74913 3.75521C5.74788 3.89046 5.63309 4.00317 5.49784 4.0015C5.36217 3.99983 5.2503 3.88587 5.25197 3.7502C5.25364 3.61412 5.36718 3.50266 5.50285 3.50392C5.63851 3.50517 5.75039 3.61955 5.74913 3.75521Z" fill="#410EAD"/>
</svg>
