<svg width="15" height="15" viewBox="0 0 15 15" fill="none" xmlns="http://www.w3.org/2000/svg">
<path d="M15 7.51842C14.9986 11.6411 11.5894 15.0083 7.42536 15C3.33598 14.9923 -0.00766052 11.5952 1.31821e-05 7.45587C0.00768688 3.33875 3.4162 -0.00763182 7.59488 1.30727e-05C11.671 0.00765796 15.0014 3.38878 15 7.51842ZM10.9692 11.0983C12.0052 11.4799 12.7446 11.0622 13.3097 10.2706C14.0157 9.2823 14.2131 8.16754 13.9152 6.99995C13.6892 6.11523 13.2099 5.43414 12.1726 5.37854C12.1293 5.37646 12.0889 5.32503 12.0338 5.2875C12.6686 4.47714 12.5326 3.68068 12.001 2.93009C11.2845 1.91818 10.2765 1.35663 9.03893 1.26559C8.07204 1.1947 7.27049 1.48799 6.88123 2.47626C6.87565 2.49086 6.84146 2.49433 6.80658 2.50893C6.77798 2.4846 6.73543 2.46236 6.71171 2.42692C6.28756 1.80907 5.68134 1.64644 4.97327 1.72706C3.61084 1.88205 2.19469 3.165 1.88356 4.5376C1.71334 5.28889 1.80961 5.9665 2.47025 6.47176C2.50094 6.49539 2.5114 6.54612 2.53931 6.60103C2.48908 6.63091 2.4542 6.66149 2.41444 6.67331C1.58638 6.92559 1.24873 7.55038 1.18106 8.34476C1.07642 9.56238 1.51661 10.5937 2.36281 11.4541C3.18878 12.293 3.96731 12.4202 5.02698 11.9253C5.04442 11.917 5.07093 11.9288 5.11767 11.9344C5.12814 11.9907 5.15325 12.0546 5.14976 12.1165C5.11976 12.751 5.42671 13.2111 5.93736 13.5322C6.99215 14.1945 8.11878 14.1848 9.251 13.7782C10.6016 13.2938 11.0753 12.5467 10.9678 11.0983H10.9692Z" fill="#410EAD"/>
<path d="M10.2073 10.32C8.54349 9.60627 7.06456 9.81268 5.64004 10.9309C5.80607 9.1309 5.15102 7.79165 3.65186 6.79434C5.41681 6.38847 6.48833 5.36822 6.97806 3.6377C7.90378 5.16528 9.2118 5.88321 11.027 5.80606C9.84592 7.15921 9.56339 8.62842 10.2073 10.3193V10.32Z" fill="#410EAD"/>
</svg>
