<svg width="15" height="10" viewBox="0 0 15 10" fill="none" xmlns="http://www.w3.org/2000/svg">
<path d="M0 8.40727C0.0452199 8.30895 0.0791348 8.20354 0.137987 8.11393C0.305899 7.8583 0.556936 7.74096 0.86616 7.7358C1.00648 7.73355 1.14679 7.73548 1.27015 7.73548C1.27015 5.55925 1.26948 3.39817 1.27048 1.23709C1.27048 0.581743 1.66316 0.114004 2.29424 0.0134283C2.37537 0.000534035 2.4595 0.000533987 2.54229 0.000533987C5.847 -0.000110726 9.15138 -0.000110549 12.4561 0.000211807C13.2265 0.000211807 13.7289 0.485681 13.7292 1.2358C13.7306 3.33209 13.7299 5.4287 13.7299 7.52498C13.7299 7.58623 13.7299 7.64748 13.7299 7.73516C13.8466 7.73516 13.956 7.73516 14.0657 7.73516C14.6582 7.73677 14.9994 8.06912 14.9997 8.64517C14.9997 8.85825 15.0004 9.071 14.9997 9.28408C14.9977 9.72539 14.7148 9.99971 14.2579 9.99971C11.7342 10.0004 9.21056 9.99971 6.68689 9.99971C4.73911 9.99971 2.79166 9.99971 0.843883 9.99971C0.347129 9.99971 0.19152 9.89978 0 9.45783C0 9.10743 0 8.75735 0 8.40695V8.40727ZM11.9753 7.72774C11.9789 7.69422 11.9843 7.66714 11.9843 7.63974C11.9846 5.71817 11.9849 3.79628 11.9843 1.87472C11.9843 1.71193 11.9124 1.64713 11.7409 1.64423C11.6139 1.64197 11.4865 1.64874 11.3602 1.64101C11.1982 1.63134 11.0819 1.51432 11.0759 1.36829C11.0702 1.2329 11.171 1.09171 11.3096 1.08494C11.5231 1.0743 11.7429 1.06238 11.9514 1.09816C12.3371 1.16456 12.5701 1.47725 12.5705 1.88213C12.5715 3.77533 12.5708 5.66853 12.5708 7.56205C12.5708 7.61653 12.5708 7.67101 12.5708 7.72452H13.144C13.144 7.66327 13.144 7.61234 13.144 7.56109C13.144 5.45964 13.144 3.35788 13.144 1.25644C13.144 0.792242 12.9123 0.567882 12.4355 0.567882C9.14971 0.567882 5.86429 0.567882 2.57853 0.567882C2.08111 0.567882 1.85601 0.786762 1.85601 1.27126C1.85601 3.30179 1.85601 5.33231 1.85634 7.36284C1.85634 7.41925 1.85634 7.47695 1.86698 7.5324C1.8876 7.64103 1.95643 7.71549 2.07047 7.72645C2.18452 7.73709 2.30056 7.72871 2.42924 7.72871V7.54819C2.42924 5.67852 2.42924 3.80885 2.4299 1.93951C2.4299 1.85022 2.4299 1.75802 2.44985 1.67195C2.53697 1.30028 2.8432 1.07688 3.26581 1.07688C5.16006 1.07559 7.0543 1.07624 8.94855 1.07656C8.9828 1.07656 9.01705 1.07592 9.05096 1.07914C9.19726 1.09397 9.30499 1.20035 9.3153 1.33831C9.32527 1.47016 9.24215 1.59169 9.10549 1.6265C9.04099 1.64294 8.9705 1.64359 8.903 1.64359C7.03801 1.64455 5.17302 1.64423 3.30803 1.64423C3.06997 1.64423 3.01544 1.69742 3.01544 1.92726C3.01544 3.81111 3.01544 5.69496 3.01544 7.57882C3.01544 7.62846 3.01544 7.67842 3.01544 7.72839H11.9753V7.72774ZM7.48954 9.43172C8.28987 9.43172 9.09053 9.43172 9.89085 9.43172C11.3306 9.43172 12.7706 9.43172 14.2104 9.43172C14.4009 9.43172 14.4128 9.42012 14.4135 9.24089C14.4142 9.05166 14.4135 8.86244 14.4135 8.67322C14.4135 8.37375 14.3417 8.30315 14.0361 8.30315C12.7134 8.30315 11.3908 8.30315 10.0681 8.30315C9.82557 8.30315 9.67251 8.41641 9.60889 8.64291C9.52145 8.95463 9.2734 9.16545 8.94456 9.16803C7.98297 9.17545 7.02139 9.17513 6.06013 9.16868C5.73096 9.16642 5.47859 8.95657 5.39181 8.64807C5.37252 8.57973 5.34592 8.51171 5.33927 8.44209C5.3283 8.32668 5.26945 8.30057 5.1564 8.30089C4.13629 8.30508 3.11618 8.30315 2.09608 8.30315C1.71536 8.30315 1.33465 8.30315 0.95394 8.30315C0.664333 8.30315 0.585864 8.37858 0.585531 8.65355C0.585531 8.83794 0.585531 9.02265 0.585531 9.20704C0.585531 9.3564 0.661119 9.43129 0.812296 9.43172C3.03805 9.43172 5.26346 9.43172 7.48921 9.43172H7.48954ZM9.07457 8.31347H5.9248C5.95473 8.58618 5.97268 8.6023 6.2327 8.6023C7.07725 8.6023 7.92179 8.6023 8.76601 8.6023C9.02602 8.6023 9.04431 8.58554 9.07424 8.31347H9.07457Z" fill="#410EAD"/>
<path d="M8.42279 6.46072C8.09628 6.46072 7.76943 6.4575 7.44325 6.46588C7.41 6.46685 7.36378 6.53357 7.34915 6.57774C7.22979 6.93845 6.8903 7.18248 6.51259 7.17216C6.11824 7.16152 5.78408 6.90783 5.69929 6.53486C5.62348 6.20122 5.73021 5.92142 5.99721 5.69448C6.03811 5.65967 6.07136 5.5852 6.06504 5.53395C5.96995 4.75449 5.8682 3.97535 5.76612 3.19654C5.74218 3.01344 5.64343 2.93059 5.45358 2.92737C5.34618 2.92544 5.23845 2.93092 5.13138 2.92511C4.96912 2.91609 4.8574 2.80165 4.85408 2.65014C4.85075 2.49864 4.95749 2.37292 5.11808 2.36357C5.27835 2.35422 5.44161 2.34971 5.60054 2.3684C5.98591 2.41418 6.26554 2.68367 6.33304 3.05792C6.35831 3.19718 6.3746 3.33773 6.39787 3.49762H6.56878C7.37908 3.49762 8.18971 3.49762 9.00001 3.49762C9.5902 3.49762 9.90175 3.84544 9.82262 4.40892C9.77075 4.77899 9.72253 5.15002 9.67931 5.52105C9.67465 5.56102 9.70092 5.62163 9.73384 5.6458C10.0853 5.90433 10.2123 6.25054 10.0823 6.61448C9.96127 6.95328 9.63076 7.17893 9.26468 7.17216C8.86967 7.16507 8.56776 6.92685 8.44274 6.5239C8.43709 6.50617 8.43144 6.48844 8.42246 6.46072H8.42279ZM6.59006 4.97885C6.612 5.1497 6.62696 5.30475 6.65489 5.45787C6.66088 5.49075 6.70942 5.52105 6.74434 5.54362C6.89163 5.63936 7.04059 5.73316 7.19088 5.82439C7.23677 5.85211 7.28864 5.88854 7.33851 5.88918C7.71391 5.89466 8.0893 5.89466 8.46469 5.88918C8.51456 5.88854 8.5681 5.85469 8.61298 5.826C8.74532 5.74122 8.87466 5.65257 9.00367 5.56296C9.03592 5.54072 9.08181 5.51299 9.08713 5.48237C9.11572 5.31732 9.13368 5.15066 9.15595 4.97917H6.59006V4.97885ZM6.51325 4.39699H9.22046C9.30159 4.14265 9.24872 4.06464 8.98904 4.06464C8.17541 4.064 7.36179 4.06561 6.54816 4.0669C6.52555 4.0669 6.50294 4.07431 6.47235 4.0798C6.48565 4.18424 6.49829 4.28191 6.51325 4.39699ZM9.54564 6.3508C9.54997 6.2138 9.42428 6.08808 9.28031 6.08485C9.14332 6.08163 9.01996 6.19607 9.01364 6.33178C9.00666 6.47781 9.11971 6.59837 9.26801 6.60256C9.41464 6.60707 9.54165 6.49167 9.54598 6.35047L9.54564 6.3508ZM6.52655 6.60191C6.67451 6.60191 6.79654 6.48296 6.79421 6.34177C6.79188 6.20541 6.67385 6.0884 6.53553 6.0855C6.3869 6.08228 6.26587 6.19607 6.26421 6.34048C6.26255 6.48877 6.37626 6.60224 6.52655 6.60191Z" fill="#410EAD"/>
<path d="M10.2088 1.07735C10.3677 1.08315 10.4904 1.20887 10.4877 1.36295C10.4851 1.51962 10.3431 1.64985 10.1841 1.64211C10.0295 1.6347 9.90119 1.50221 9.90385 1.35296C9.90684 1.19436 10.0428 1.07154 10.2088 1.07735Z" fill="#410EAD"/>
</svg>
