<svg width="15" height="15" viewBox="0 0 15 15" fill="none" xmlns="http://www.w3.org/2000/svg">
<path d="M0 12.3028C0.0144814 12.2469 0.0289627 12.1909 0.0438355 12.1349C0.196086 11.5631 0.551466 11.1768 1.11076 10.9866C1.84422 10.7373 2.57925 10.4931 3.31584 10.2539C3.43835 10.214 3.47005 10.1572 3.47944 10.0296C3.50567 9.68053 3.46261 9.38581 3.1542 9.14628C2.99412 9.02182 2.9135 8.79677 2.78982 8.62261C2.7589 8.57916 2.70254 8.53376 2.65244 8.52711C1.9863 8.43865 1.63796 7.71067 1.99843 7.14237C2.04774 7.06449 2.04657 7.00578 2.01643 6.92828C1.86536 6.54003 1.80587 6.1369 1.84618 5.72242C1.88101 5.36625 2.05322 5.06214 2.25479 4.77995C2.95537 3.79835 3.91897 3.32986 5.1174 3.43553C6.26222 3.53651 7.09861 4.13886 7.63482 5.15725C7.81485 5.49932 7.82229 5.85784 7.75615 6.22652C7.73031 6.37056 7.71114 6.51576 7.68022 6.65862C7.63286 6.87779 7.63129 7.07114 7.73775 7.29541C7.99137 7.82848 7.61016 8.45274 7.02112 8.52124C6.94245 8.53024 6.90174 8.55489 6.86848 8.62613C6.7354 8.91341 6.54402 9.15724 6.30683 9.36781C6.26926 9.40108 6.24069 9.4637 6.23873 9.5138C6.2309 9.69892 6.24265 9.88522 6.23286 10.07C6.22738 10.1737 6.2673 10.2128 6.36045 10.2433C7.07826 10.4786 7.7945 10.7189 8.51113 10.9572C9.30056 11.2203 9.70213 11.7721 9.7033 12.5995C9.70409 13.2927 9.70056 13.9858 9.70604 14.6793C9.70722 14.8195 9.67043 14.9259 9.55027 14.9995H0C0 14.0989 0 13.2015 0 12.304V12.3028ZM7.17259 6.75412C7.18198 6.74081 7.19059 6.73337 7.19215 6.72476C7.2309 6.49384 7.26535 6.26253 7.30761 6.0324C7.35223 5.78778 7.32288 5.55647 7.20233 5.33846C6.67083 4.37839 5.85987 3.86254 4.75889 3.89424C3.64578 3.92633 2.85205 4.49111 2.39256 5.50128C2.20117 5.92242 2.31741 6.34746 2.44461 6.74237C2.75224 6.70363 3.036 6.65236 3.32211 6.63435C4.12132 6.58425 4.77924 6.30363 5.236 5.60187C5.50762 5.18465 6.02582 5.18152 6.34832 5.55921C6.43951 5.66566 6.52327 5.78465 6.58237 5.91107C6.6857 6.13103 6.7722 6.3596 6.85556 6.58817C6.88883 6.67936 6.92131 6.7459 7.03403 6.7365C7.08022 6.73259 7.12836 6.74825 7.17259 6.75451V6.75412ZM2.81095 10.9189C2.74402 10.9381 2.69745 10.9498 2.65205 10.9651C2.19452 11.1173 1.73698 11.2696 1.27984 11.423C0.765164 11.596 0.470449 12.0042 0.469275 12.5486C0.468101 13.1635 0.468883 13.7784 0.469275 14.3932C0.469275 14.4355 0.474363 14.4774 0.477103 14.5197H1.58747C1.58747 14.1838 1.58473 13.8578 1.58865 13.5314C1.5906 13.3717 1.68923 13.2696 1.82544 13.2703C1.9632 13.2711 2.05322 13.3713 2.05518 13.5345C2.05792 13.7298 2.05596 13.9247 2.05596 14.12C2.05596 14.2543 2.05596 14.3889 2.05596 14.524H3.66418C3.67357 14.4883 3.68492 14.4563 3.69079 14.4238C3.76751 13.9921 3.82974 13.5568 3.92367 13.1291C3.99608 12.7999 3.89979 12.4977 3.85126 12.1588C3.63404 12.3126 3.43952 12.4492 3.24657 12.5878C3.15146 12.6559 3.05479 12.7111 2.93698 12.648C2.82035 12.5858 2.80978 12.477 2.81056 12.3588C2.8133 11.886 2.81173 11.4128 2.81173 10.9189H2.81095ZM6.03325 14.5189H7.64773C7.64773 14.2116 7.64773 13.9146 7.64773 13.6171C7.64773 13.3815 7.72601 13.268 7.88609 13.2703C8.04264 13.2727 8.11622 13.3807 8.11622 13.6093C8.11622 13.8484 8.11622 14.0876 8.11622 14.3267C8.11622 14.3925 8.11622 14.4582 8.11622 14.522H9.22816C9.2309 14.4782 9.2352 14.4406 9.2352 14.4026C9.2352 13.7827 9.23794 13.1631 9.23442 12.5431C9.23129 11.9909 8.94558 11.5991 8.42111 11.4214C7.95967 11.2653 7.49744 11.1118 7.03521 10.9576C6.99529 10.9443 6.9538 10.9369 6.89548 10.922C6.89548 10.9889 6.89548 11.0414 6.89548 11.0938C6.89548 11.5134 6.8947 11.9334 6.89587 12.3529C6.89627 12.4688 6.89157 12.5815 6.77454 12.6457C6.65086 12.7138 6.55184 12.6531 6.45321 12.5811C6.26182 12.4422 6.0677 12.3075 5.85243 12.1553C5.81329 12.4077 5.72719 12.639 5.75302 12.857C5.81956 13.4128 5.93619 13.9623 6.03325 14.5185V14.5189ZM3.03522 7.62926L3.02582 7.63043C3.04226 7.75568 3.05127 7.88288 3.07631 8.00656C3.26222 8.9228 4.1088 9.53024 5.054 9.42887C5.93932 9.33415 6.64499 8.54902 6.61642 7.63983C6.59685 7.02026 6.35693 6.45705 6.04656 5.92516C6.04421 5.92085 6.04108 5.91733 6.03795 5.91341C5.87357 5.70206 5.72171 5.70206 5.57611 5.92633C5.09079 6.67349 4.37533 7.01322 3.51467 7.08641C3.04344 7.12633 3.04265 7.11654 3.03522 7.6003C3.03522 7.61008 3.03522 7.61987 3.03522 7.62965V7.62926ZM5.27318 12.8942H4.43365C4.33893 13.439 4.245 13.9776 4.15028 14.5224H5.55733C5.46222 13.9768 5.36828 13.4394 5.27318 12.8942ZM3.94324 9.73415C3.94324 9.89501 3.93893 10.0261 3.94598 10.1565C3.94794 10.1932 3.97455 10.2402 4.00469 10.2621C4.28414 10.4657 4.56672 10.6649 4.854 10.8696C5.14245 10.6645 5.42856 10.4621 5.7131 10.2574C5.73736 10.2398 5.76359 10.205 5.76476 10.1776C5.76985 10.0293 5.76711 9.88053 5.76711 9.71223C5.15733 9.96663 4.56359 9.96976 3.94324 9.73454V9.73415ZM3.28766 11.9815C3.68179 11.7017 4.0587 11.4339 4.44852 11.1572C4.20156 10.9815 3.9769 10.8195 3.74872 10.6625C3.7178 10.641 3.66457 10.6316 3.62856 10.6418C3.51271 10.6743 3.3996 10.7181 3.28805 10.7568V11.9819L3.28766 11.9815ZM6.42738 11.9776C6.42738 11.6128 6.41799 11.2766 6.43169 10.942C6.43795 10.7905 6.38981 10.7161 6.24539 10.6934C6.15693 10.6797 6.04265 10.6179 5.9859 10.6523C5.73932 10.8022 5.50997 10.9799 5.26065 11.1572C5.62856 11.4191 5.97689 11.6672 6.32562 11.915C6.34871 11.9314 6.37337 11.9447 6.42738 11.978V11.9776ZM4.37298 12.412H5.32954C5.3405 12.3631 5.34441 12.3138 5.36241 12.2703C5.48961 11.9584 5.37455 11.7635 5.09157 11.6046C4.84382 11.4657 4.85557 11.4449 4.61604 11.6148C4.55654 11.657 4.50058 11.7064 4.43639 11.7404C4.30997 11.8077 4.25322 11.8911 4.3041 12.0422C4.34246 12.1561 4.35028 12.2805 4.37377 12.412H4.37298ZM7.07709 8.0136C7.24734 7.94355 7.34754 7.79991 7.34715 7.62535C7.34675 7.45 7.24264 7.30323 7.07709 7.24139V8.0136ZM2.58003 7.24413C2.41174 7.32202 2.31859 7.46331 2.32093 7.63083C2.32328 7.80186 2.42113 7.94198 2.58003 8.00617V7.24374V7.24413Z" fill="#410EAD"/>
<path d="M12.569 4.94713H13.4104V4.77178C13.4104 3.771 13.4104 2.76983 13.4104 1.76905C13.4104 1.71543 13.4081 1.66142 13.414 1.60819C13.4273 1.4853 13.4981 1.41171 13.6214 1.40154C13.7513 1.39097 13.8378 1.45359 13.8668 1.58158C13.8793 1.63794 13.8785 1.69782 13.8785 1.75614C13.8793 2.75692 13.8789 3.75809 13.8789 4.75887C13.8789 4.81679 13.8789 4.87472 13.8789 4.95261C14.1412 4.95261 14.3932 4.95261 14.6457 4.95261C14.8856 4.95261 14.9971 5.02619 14.9995 5.18548C15.0018 5.34556 14.8907 5.42149 14.6519 5.42149C12.6695 5.42149 10.6876 5.42149 8.70517 5.42149C8.67582 5.42149 8.64647 5.42227 8.61711 5.42149C8.46525 5.41601 8.36467 5.32834 8.35958 5.19722C8.3541 5.06298 8.46016 4.95652 8.61555 4.95456C8.89852 4.95065 9.1811 4.95339 9.48599 4.95339C9.48599 4.89233 9.48599 4.84067 9.48599 4.78901C9.48599 4.38392 9.4856 3.97844 9.48599 3.57335C9.48599 3.3714 9.56623 3.26376 9.71417 3.26181C9.86603 3.25946 9.9537 3.37492 9.95409 3.58118C9.95488 3.98157 9.95409 4.38196 9.95409 4.78235C9.95409 4.83441 9.95409 4.88646 9.95409 4.94595H10.7885C10.7885 4.8845 10.7885 4.82814 10.7885 4.77139C10.7885 3.98549 10.7885 3.19919 10.7893 2.41328C10.7893 2.35535 10.7905 2.29469 10.8061 2.23989C10.8406 2.12013 10.9287 2.06612 11.0508 2.07825C11.167 2.08999 11.2363 2.15927 11.2527 2.27512C11.2602 2.32795 11.2574 2.38236 11.2574 2.43598C11.2574 3.21719 11.2574 3.9984 11.2574 4.77961C11.2574 4.83206 11.2574 4.8849 11.2574 4.94517H12.0997C12.0997 4.8485 12.0997 4.75691 12.0997 4.66572C12.0997 4.07002 12.0989 3.47433 12.1001 2.87864C12.1005 2.69977 12.1991 2.59606 12.3506 2.60662C12.4872 2.61602 12.5674 2.71426 12.5678 2.88412C12.569 3.51386 12.5682 4.14361 12.5682 4.77374C12.5682 4.82697 12.5682 4.87981 12.5682 4.94869L12.569 4.94713Z" fill="#410EAD"/>
<path d="M9.3336 6.13614C9.39701 6.16119 9.44867 6.17528 9.49407 6.20072C9.70151 6.31617 9.87176 6.24612 9.93243 6.01481C9.96687 5.88369 10.0483 5.81481 10.1833 5.81363C10.3637 5.81168 10.5446 5.81285 10.725 5.81285C10.8721 5.81285 10.959 5.88173 10.9935 6.0289C11.0436 6.24142 11.2303 6.31735 11.4158 6.20776C11.5614 6.12205 11.6467 6.13066 11.7684 6.24886C11.8874 6.36471 12.0044 6.48212 12.1207 6.60071C12.2447 6.72752 12.2549 6.81598 12.1657 6.96549C12.062 7.14005 12.1418 7.33378 12.3379 7.38153C12.4999 7.42106 12.5626 7.49347 12.5653 7.6559C12.568 7.82654 12.5676 7.99758 12.5653 8.16823C12.5629 8.33496 12.5066 8.40306 12.3442 8.44689C12.1402 8.50169 12.0631 8.68916 12.17 8.87155C12.253 9.01284 12.2428 9.10364 12.1246 9.22458C12.0087 9.34317 11.8913 9.46059 11.7727 9.57644C11.6471 9.69895 11.5579 9.70756 11.408 9.61715C11.244 9.51852 11.044 9.59797 10.997 9.78035C10.9485 9.969 10.8866 10.0175 10.6886 10.0187C10.5277 10.0195 10.3665 10.0207 10.2056 10.0187C10.0397 10.0164 9.97039 9.95844 9.92969 9.79523C9.87998 9.59719 9.6882 9.51499 9.51599 9.61793C9.3653 9.70795 9.27528 9.69895 9.15082 9.57683C9.03223 9.46059 8.91482 9.34396 8.79857 9.22537C8.6745 9.09817 8.66707 9.01636 8.76022 8.86059C8.85846 8.6966 8.77822 8.49934 8.59349 8.45159C8.41306 8.40502 8.35943 8.33926 8.35709 8.15453C8.35513 7.99367 8.35474 7.83241 8.35709 7.67155C8.35983 7.49425 8.41775 7.42263 8.58487 7.38232C8.78253 7.33418 8.86237 7.142 8.75709 6.96588C8.66902 6.81794 8.67529 6.733 8.79192 6.61246C8.91403 6.48643 9.03693 6.3604 9.1657 6.24103C9.21305 6.1968 9.27724 6.17097 9.33321 6.13692L9.3336 6.13614ZM9.22284 6.83555C9.37587 6.99641 9.35004 7.14748 9.24867 7.31108C9.19583 7.39602 9.18527 7.50639 9.13673 7.59484C9.09955 7.66216 9.04006 7.75022 8.97705 7.76353C8.81345 7.79758 8.80327 7.88682 8.84202 8.02654C9.04984 8.0332 9.14417 8.16431 9.17744 8.35922C9.18448 8.40149 9.20444 8.44376 9.22754 8.48016C9.3336 8.6512 9.40405 8.82145 9.24515 8.97253C9.29798 9.04494 9.33751 9.09895 9.38096 9.15844C9.53947 9.00932 9.68468 9.01636 9.8381 9.12087C9.88937 9.15609 9.95082 9.18349 10.0115 9.19601C10.2056 9.23633 10.3489 9.32282 10.35 9.54317H10.5782C10.5767 9.33535 10.698 9.24415 10.8808 9.20541C10.9418 9.19249 11.0056 9.17018 11.0565 9.13535C11.2193 9.02341 11.3774 8.99836 11.5379 9.15022C11.595 9.09464 11.6428 9.04807 11.6988 8.99406C11.5418 8.83006 11.5704 8.67116 11.6823 8.5103C11.707 8.47507 11.7246 8.43202 11.7336 8.38975C11.777 8.19132 11.8549 8.02693 12.134 8.02263C12.0929 7.92791 12.0745 7.81206 12.033 7.80306C11.8608 7.76627 11.7896 7.6602 11.7539 7.50482C11.7399 7.44377 11.7187 7.38036 11.6847 7.3287C11.5751 7.16275 11.5363 7.00071 11.669 6.86686C11.6209 6.79719 11.5825 6.74122 11.5379 6.67664C11.3751 6.83594 11.2205 6.80463 11.0628 6.69974C11.0189 6.67077 10.9669 6.64846 10.9156 6.63711C10.7246 6.59524 10.5739 6.51578 10.5747 6.29073H10.3469C10.341 6.49621 10.2256 6.5925 10.0385 6.62498C9.98213 6.63477 9.92421 6.65864 9.87646 6.68995C9.71207 6.79837 9.55004 6.84455 9.39857 6.69465C9.33438 6.74592 9.28194 6.78819 9.22284 6.83555Z" fill="#410EAD"/>
<path d="M11.0133 0.660308C11.0818 0.684574 11.1327 0.700621 11.182 0.720191C11.5076 0.850915 11.8344 0.978507 12.1573 1.11588C12.2513 1.15581 12.3104 1.14759 12.3863 1.07557C12.7374 0.743283 13.0943 0.417256 13.4509 0.0912295C13.5879 -0.0344062 13.7421 -0.0297095 13.829 0.101797C13.9002 0.20982 13.8885 0.319409 13.7945 0.40708C13.362 0.809427 12.9276 1.20982 12.4924 1.60943C12.4067 1.68809 12.3088 1.6834 12.2055 1.64074C11.8673 1.5014 11.5272 1.36755 11.1906 1.22547C11.1069 1.18986 11.0517 1.19808 10.9836 1.2607C10.6255 1.5926 10.2622 1.91862 9.90138 2.24778C9.81371 2.32762 9.71625 2.36011 9.60706 2.30179C9.51038 2.25052 9.46616 2.16089 9.49316 2.056C9.50764 1.99886 9.54678 1.94054 9.59101 1.89984C10.0039 1.51941 10.4192 1.14132 10.8364 0.765983C10.8881 0.719408 10.9573 0.692794 11.0125 0.660308H11.0133Z" fill="#410EAD"/>
<path d="M10.4505 8.90584C9.90331 8.90075 9.45869 8.44557 9.46691 7.89919C9.47474 7.35985 9.9264 6.91719 10.4653 6.91993C11.0125 6.92267 11.4579 7.37395 11.4544 7.92189C11.4509 8.47022 11.0015 8.91093 10.4505 8.90584ZM10.463 8.43696C10.7507 8.43617 10.9843 8.2033 10.9851 7.9168C10.9859 7.626 10.7417 7.38451 10.452 7.3896C10.1687 7.39469 9.9311 7.63852 9.93579 7.91993C9.94088 8.20721 10.1757 8.43774 10.4626 8.43696H10.463Z" fill="#410EAD"/>
</svg>
