<svg width="16" height="15" viewBox="0 0 16 15" fill="none" xmlns="http://www.w3.org/2000/svg">
<path d="M4.91611 6.28446C4.28209 5.68812 3.69281 5.13388 3.10303 4.57868C4.73561 3.05214 6.37422 1.51945 7.99926 0C9.61223 1.51756 11.2508 3.05923 12.892 4.60327C12.3133 5.14381 11.7184 5.699 11.1256 6.2523C10.0974 5.28521 9.06519 4.31338 8.02943 3.33919C6.98009 4.33183 5.94785 5.30791 4.91611 6.28399V6.28446Z" fill="#410EAD"/>
<path d="M12.8779 10.4122C11.2579 11.9359 9.62328 13.4742 8.00026 15.0003C6.37773 13.4738 4.74264 11.9359 3.12012 10.4098C3.6918 9.86596 4.28007 9.30651 4.87437 8.74139C5.90209 9.70895 6.93785 10.6836 7.97864 11.6635C9.0325 10.6656 10.0652 9.68815 11.0915 8.7168C11.7084 9.30226 12.2982 9.8617 12.8779 10.4117V10.4122Z" fill="#410EAD"/>
<path d="M9.76049 7.51727C9.19233 8.05024 8.5945 8.61205 8.01226 9.15826C7.42701 8.60732 6.82617 8.04126 6.23438 7.48417C6.80404 6.94742 7.40086 6.38514 7.97807 5.84082C8.56886 6.39649 9.1697 6.96161 9.76049 7.51727Z" fill="#410EAD"/>
<path d="M12.4922 7.50201C13.0724 6.95438 13.6637 6.39682 14.2419 5.85156C14.8252 6.39919 15.418 6.9558 16.0002 7.50248C15.425 8.04254 14.8297 8.60199 14.2449 9.15103C13.6657 8.60577 13.0734 8.04916 12.4922 7.50248V7.50201Z" fill="#410EAD"/>
<path d="M0 7.49201C0.581735 6.94581 1.17101 6.39298 1.74973 5.84961C2.33096 6.39865 2.92125 6.95574 3.50147 7.50336C2.9313 8.03917 2.33901 8.59531 1.75778 9.14151C1.18057 8.60003 0.587769 8.04342 0 7.49201Z" fill="#410EAD"/>
</svg>
