<svg width="15" height="9" viewBox="0 0 15 9" fill="none" xmlns="http://www.w3.org/2000/svg">
<path d="M4.79785 6.90552H6.09618C6.19846 7.58055 6.71963 7.69006 7.28795 7.70742C7.61254 7.71699 7.94263 7.70921 8.26354 7.66313C8.76511 7.59072 9.11848 7.15506 9.07929 6.69846C9.05418 6.40643 8.92312 6.17663 8.61568 6.09883C7.99591 5.94264 7.37308 5.79842 6.75147 5.65001C6.64246 5.62368 6.53162 5.60453 6.42444 5.57281C5.21369 5.21794 4.67904 4.06836 5.19409 2.93194C5.34658 2.59502 5.60747 2.34608 5.94798 2.2234C7.06932 1.81886 8.20352 1.79253 9.31139 2.2629C9.87482 2.50227 10.1296 2.97802 10.1792 3.61475C9.79214 3.61475 9.42837 3.61834 9.06459 3.61056C9.01743 3.60936 8.947 3.56149 8.92986 3.519C8.76022 3.1001 8.38051 3.00375 7.99285 2.96126C7.68113 2.92715 7.36022 2.93912 7.04605 2.96306C6.56224 2.99956 6.22785 3.31374 6.20397 3.71888C6.1758 4.19942 6.42995 4.50282 6.96398 4.60036C7.39452 4.67876 7.83117 4.72723 8.25987 4.81161C8.5477 4.86846 8.83983 4.93608 9.10807 5.04859C10.3807 5.58179 10.6838 7.25141 9.68068 8.20052C9.53248 8.34055 9.32977 8.45605 9.13195 8.50931C8.0792 8.79416 7.01543 8.83007 5.97248 8.48597C5.34536 8.27891 4.91299 7.85822 4.81439 7.1802C4.80275 7.1024 4.8052 7.02281 4.79969 6.90552H4.79785Z" fill="#410EAD"/>
<path d="M15 0.00387648C14.7882 0.579566 14.5983 1.102 14.4029 1.62203C14.063 2.52925 13.7146 3.43348 13.3833 4.34369C13.3441 4.45081 13.3606 4.59862 13.4016 4.70933C13.8977 6.04862 14.4029 7.38432 14.9045 8.72181C14.9315 8.79422 14.9443 8.87142 14.9768 8.99529C14.5352 8.99529 14.1224 9.00427 13.7103 8.98632C13.6441 8.98332 13.5547 8.86902 13.5247 8.78883C13.0121 7.43399 12.5032 6.07854 12.0084 4.71771C11.9594 4.58247 11.9655 4.39875 12.0151 4.26171C12.5075 2.91045 13.0164 1.56518 13.5162 0.216918C13.5725 0.0655147 13.6521 -0.00509983 13.8266 0.000286045C14.1996 0.0122547 14.5726 0.00387648 14.9994 0.00387648H15Z" fill="#410EAD"/>
<path d="M0 0.00525054C0.439718 0.00525054 0.845141 -0.00372595 1.24934 0.0136285C1.31915 0.0166207 1.41653 0.118952 1.44531 0.19615C1.96648 1.56955 2.48153 2.94474 2.98739 4.32293C3.02781 4.43304 3.0223 4.58324 2.98188 4.69455C2.47969 6.06376 1.96893 7.42998 1.45021 8.7932C1.41898 8.87578 1.30997 8.9841 1.23219 8.98769C0.836567 9.00744 0.439718 8.99667 0.00367484 8.99667C0.033071 8.88057 0.046544 8.79559 0.0765526 8.7166C0.578125 7.37911 1.08521 6.04341 1.57821 4.70293C1.62414 4.57845 1.6174 4.4085 1.57147 4.28223C1.08215 2.95132 0.578738 1.6246 0.0814521 0.296686C0.050831 0.215299 0.0349081 0.129724 0.000612552 0.00465243L0 0.00525054Z" fill="#410EAD"/>
</svg>
