<svg width="15" height="15" viewBox="0 0 15 15" fill="none" xmlns="http://www.w3.org/2000/svg">
<path d="M13.0903 11.6123H10.263V11.1288H10.4168C11.329 11.1288 12.2412 11.1325 13.1534 11.126C13.3411 11.1248 13.4501 11.187 13.5241 11.3566C13.9946 12.4317 14.4727 13.5032 14.9474 14.5763C15.0723 14.8586 14.9745 14.9995 14.6565 14.9995C9.88733 14.9995 5.1177 14.9995 0.348493 14.9995C0.0225506 14.9995 -0.0735605 14.8582 0.055145 14.5674C0.52818 13.4992 1.00372 12.4317 1.47258 11.3619C1.54529 11.1955 1.64934 11.1244 1.83989 11.126C2.75211 11.1329 3.66433 11.1288 4.57655 11.1288H4.73827V11.6127H4.57864C3.73412 11.6127 2.89001 11.6131 2.04548 11.6119C1.964 11.6119 1.9055 11.6147 1.86454 11.7076C1.46714 12.6159 1.06306 13.5214 0.661482 14.4277C0.651453 14.4499 0.646438 14.4741 0.636409 14.5076H14.3732C13.9436 13.5379 13.5182 12.5779 13.0903 11.6123Z" fill="#410EAD"/>
<path d="M4.24352 11.855V12.3388C4.18669 12.3388 4.13237 12.3388 4.07762 12.3388C3.57743 12.3388 3.07681 12.3445 2.57662 12.3348C2.44624 12.3324 2.39902 12.3772 2.35849 12.4875C2.21725 12.8711 2.0643 13.2512 1.91638 13.6324C1.89841 13.6785 1.8842 13.7257 1.86456 13.7827H13.1313C13.1179 13.7378 13.1087 13.6962 13.0933 13.6567C12.9387 13.256 12.7799 12.857 12.6299 12.4547C12.596 12.3643 12.5505 12.3348 12.4506 12.336C11.8931 12.3413 11.3357 12.3384 10.7657 12.3384V11.8631C10.8067 11.8602 10.8514 11.855 10.8965 11.855C11.4907 11.8546 12.0849 11.8582 12.6792 11.8526C12.8563 11.851 12.9562 11.918 13.0172 12.0795C13.2441 12.6793 13.4807 13.2762 13.7122 13.8743C13.8129 14.1344 13.7122 14.2738 13.4242 14.2738C9.47323 14.2738 5.52222 14.2738 1.57121 14.2738C1.29374 14.2738 1.18802 14.1316 1.28329 13.8848C1.51647 13.2819 1.75466 12.6805 1.98449 12.0759C2.04299 11.9216 2.13743 11.8514 2.30918 11.853C2.91384 11.8578 3.51851 11.855 4.12317 11.855H4.24352Z" fill="#410EAD"/>
<path d="M6.0697 3.27098C6.16121 3.34085 6.24437 3.40385 6.32711 3.46766C6.39104 3.51694 6.42907 3.61629 6.54524 3.54925C6.65598 3.48543 6.81268 3.49432 6.79972 3.28956C6.77841 2.95959 6.85154 2.90386 7.19336 2.90386C7.42779 2.90386 7.66222 2.90265 7.89665 2.90386C8.11227 2.90507 8.19877 2.98746 8.20629 3.19545C8.20713 3.21565 8.20629 3.23584 8.20629 3.25603C8.20713 3.42405 8.35422 3.57267 8.52471 3.57065C8.55522 3.57065 8.58907 3.544 8.61456 3.52219C8.66888 3.47534 8.7161 3.42081 8.77084 3.37437C8.88743 3.27582 9.01028 3.26936 9.12102 3.37195C9.33957 3.57388 9.5531 3.78066 9.76246 3.99148C9.87445 4.10417 9.86776 4.22169 9.75995 4.34164C9.73948 4.36426 9.71649 4.38526 9.69435 4.40666C9.5577 4.53994 9.54851 4.70149 9.67554 4.84527C9.69518 4.86748 9.7378 4.87798 9.77082 4.88081C9.83809 4.88646 9.90621 4.88081 9.9739 4.88364C10.1611 4.89293 10.2497 4.97814 10.2514 5.15908C10.2543 5.43088 10.2543 5.70309 10.2514 5.9749C10.2493 6.14775 10.1615 6.23338 9.98519 6.2463C9.96429 6.24792 9.9434 6.24711 9.92251 6.24751C9.69518 6.25074 9.59823 6.32748 9.56647 6.53789C9.5623 6.56657 9.58027 6.60413 9.59991 6.62877C9.63501 6.67198 9.67972 6.70792 9.71984 6.7475C9.88406 6.91067 9.88406 7.02173 9.71649 7.1853C9.53681 7.36058 9.35628 7.53546 9.17493 7.70872C9.0061 7.87027 8.89161 7.86986 8.72237 7.71033C8.5385 7.53667 8.47415 7.52778 8.26103 7.66025C8.23304 7.67762 8.21381 7.72285 8.2088 7.75759C8.20002 7.81696 8.20796 7.87834 8.20546 7.93852C8.19794 8.13844 8.1106 8.22406 7.90709 8.22567C7.63631 8.22769 7.36511 8.22769 7.09433 8.22567C6.88873 8.22406 6.80223 8.14005 6.79346 7.94094C6.79262 7.92075 6.79346 7.90056 6.79346 7.88036C6.7922 7.69781 6.67018 7.56857 6.48214 7.55969C6.45205 7.55807 6.4157 7.5815 6.39063 7.6029C6.33588 7.64894 6.28866 7.70387 6.23392 7.75032C6.11065 7.85532 5.98821 7.85977 5.87204 7.75193C5.65809 7.55282 5.44832 7.34968 5.24189 7.14289C5.12405 7.02456 5.13031 6.90582 5.24523 6.78183C5.25902 6.76689 5.27448 6.75316 5.28911 6.73862C5.44748 6.58313 5.46044 6.45914 5.32672 6.29113C5.30624 6.26528 5.25735 6.25317 5.22016 6.24953C5.1533 6.24266 5.08477 6.24993 5.01707 6.2459C4.83947 6.23539 4.75005 6.14937 4.74796 5.97813C4.74462 5.70632 4.74503 5.43411 4.74796 5.16231C4.74963 4.98016 4.83697 4.89454 5.0225 4.88364C5.04841 4.88202 5.07474 4.88283 5.10065 4.88283C5.29538 4.88162 5.41781 4.7758 5.43536 4.58518C5.43787 4.5565 5.41614 4.52015 5.39483 4.49592C5.35137 4.44624 5.29872 4.40343 5.25275 4.35578C5.12488 4.2225 5.12321 4.10416 5.25609 3.97291C5.4525 3.77824 5.65057 3.58519 5.85407 3.39699C5.90714 3.34771 5.98236 3.32106 6.0697 3.27098ZM7.34923 3.39577C7.27568 3.544 7.23933 3.69626 7.14364 3.7948C6.86157 4.08518 6.3806 4.12113 6.05925 3.91071C5.96648 3.99997 5.8758 4.0868 5.78638 4.17323C5.82817 4.2326 5.88082 4.29035 5.91383 4.35699C6.04755 4.62758 5.78638 5.23702 5.49387 5.33597C5.41739 5.36182 5.33382 5.36788 5.25609 5.38242V5.70996C5.41071 5.78225 5.5929 5.81093 5.66352 5.9123C5.79682 6.10333 5.90088 6.32909 5.94768 6.55405C5.97442 6.68248 5.86327 6.83757 5.81479 6.97852C5.88416 7.04596 5.97442 7.13361 6.0651 7.22165C6.11399 7.18692 6.16455 7.14168 6.22264 7.11058C6.5093 6.95752 7.17247 7.2164 7.26942 7.5189C7.29156 7.58877 7.29658 7.66429 7.30911 7.73457H7.70401C7.69899 7.5298 7.76209 7.35937 7.95306 7.26082C8.03037 7.22084 8.12188 7.20509 8.19793 7.16349C8.46705 7.01567 8.72028 6.99952 8.93381 7.22569C9.03369 7.13037 9.12478 7.04354 9.21337 6.95913C9.16908 6.89411 9.11266 6.83191 9.07965 6.76002C8.9593 6.49751 9.21421 5.90462 9.49168 5.80123C9.57191 5.77135 9.66091 5.76367 9.74407 5.74631V5.37394C9.53597 5.36747 9.35503 5.31376 9.25391 5.12798C9.21295 5.05286 9.19582 4.96522 9.15278 4.89131C9.00109 4.63122 8.98229 4.38607 9.21797 4.17969C9.11935 4.08276 9.02951 3.99512 8.94217 3.9095C8.87448 3.95271 8.81054 4.00683 8.73574 4.03874C8.4637 4.15505 7.8511 3.90869 7.74412 3.64012C7.7132 3.56257 7.70568 3.47655 7.68771 3.39618H7.34965L7.34923 3.39577Z" fill="#410EAD"/>
<path d="M13.2554 1.69457C13.6628 1.69457 14.0477 1.69377 14.4326 1.69457C14.6691 1.69498 14.756 1.77696 14.7564 2.00071C14.7573 2.6053 14.7577 3.2095 14.7564 3.81409C14.756 4.02895 14.667 4.11255 14.4405 4.11296C14.051 4.11417 13.6616 4.11296 13.2554 4.11296C13.2554 4.27047 13.2575 4.41505 13.255 4.55924C13.2517 4.74704 13.1601 4.83669 12.9654 4.83791C12.5747 4.84033 12.184 4.84033 11.7933 4.83791C11.5985 4.83669 11.5062 4.74704 11.5049 4.55883C11.5024 4.18121 11.5024 3.80319 11.5049 3.42557C11.5062 3.23696 11.5981 3.14892 11.7924 3.14568C11.9383 3.14326 12.0837 3.14528 12.2421 3.14528V2.66144C12.0244 2.66144 11.8025 2.66225 11.5806 2.66144C11.3369 2.66064 11.2542 2.58026 11.2542 2.34238C11.2534 1.90418 11.253 1.46598 11.2542 1.02778C11.2546 0.810904 11.342 0.727302 11.5672 0.726495C12.0256 0.725283 12.484 0.725283 12.9428 0.726495C13.1672 0.726899 13.2542 0.811308 13.2554 1.02819C13.2567 1.24385 13.2554 1.45952 13.2554 1.69377V1.69457ZM14.247 3.62225V2.18851H12.7665V3.62225H14.247ZM12.7473 1.21881H11.754V2.16832H12.2145C12.2584 2.0205 12.2592 1.85168 12.3465 1.77091C12.4343 1.68973 12.6085 1.69619 12.7473 1.66388V1.21922V1.21881ZM12.0122 3.63639V4.3472H12.7448V4.15173C12.5927 4.10973 12.418 4.10932 12.3344 4.02491C12.25 3.9401 12.2563 3.77169 12.2216 3.63598H12.0127L12.0122 3.63639Z" fill="#410EAD"/>
<path d="M2.2446 6.29104C2.2446 6.52003 2.24544 6.73529 2.2446 6.95015C2.24335 7.17551 2.1581 7.2579 1.92242 7.25831C1.46944 7.25912 1.01605 7.25912 0.563071 7.25831C0.328225 7.2579 0.243397 7.17592 0.242979 6.94854C0.242143 6.50549 0.241725 6.06244 0.242979 5.6194C0.243814 5.411 0.331986 5.32538 0.54552 5.32376C0.773262 5.32215 1.001 5.32376 1.24337 5.32376C1.24337 4.94776 1.24337 4.5867 1.24337 4.22564C1.24337 3.93889 1.31316 3.87265 1.61235 3.87225C2.2166 3.87225 2.82085 3.87185 3.42468 3.87225C3.65994 3.87225 3.74477 3.95464 3.74519 4.18121C3.74603 4.78056 3.74603 5.3795 3.74519 5.97884C3.74519 6.20663 3.65953 6.29023 3.42719 6.29063C3.03814 6.29184 2.64869 6.29063 2.24418 6.29063L2.2446 6.29104ZM3.23455 5.8072V4.3678H1.75234V5.80154C1.78494 5.80356 1.80959 5.80679 1.83466 5.80679C2.29767 5.80679 2.76026 5.80679 3.23455 5.80679V5.8072ZM0.75404 5.81366V6.76357H1.74399C1.74399 6.62221 1.74399 6.49176 1.74399 6.36171C1.74399 6.34273 1.73939 6.32375 1.73981 6.32819C1.58854 6.28861 1.4147 6.29063 1.32904 6.20743C1.24337 6.12424 1.2463 5.95582 1.20702 5.81366H0.754458H0.75404Z" fill="#410EAD"/>
<path d="M7.50327 0.00101568C7.73268 0.00101568 7.96209 -0.000195933 8.19151 0.00101568C8.40797 0.0022273 8.49948 0.0870404 8.50032 0.291399C8.50199 0.744947 8.50241 1.19849 8.50032 1.65204C8.49948 1.84752 8.4063 1.93475 8.20028 1.93556C7.73101 1.93718 7.26215 1.93758 6.79288 1.93556C6.59063 1.93475 6.50037 1.84469 6.49995 1.64518C6.49828 1.19163 6.49786 0.738081 6.49995 0.284534C6.50079 0.088656 6.59314 0.00263117 6.79998 0.00101568C7.03441 -0.00100368 7.26926 0.000611724 7.50369 0.000611724L7.50327 0.00101568ZM7.01101 0.491316V1.44041H7.99176V0.491316H7.01101Z" fill="#410EAD"/>
<path d="M3.49577 2.29843C3.49577 2.48986 3.49827 2.6813 3.49493 2.87273C3.49159 3.05124 3.39882 3.14252 3.2137 3.14413C2.81755 3.14696 2.42141 3.14696 2.02526 3.14413C1.84056 3.14292 1.74612 3.05124 1.74487 2.87233C1.74194 2.48946 1.74194 2.10618 1.74487 1.72331C1.74612 1.5444 1.84014 1.45353 2.02568 1.45232C2.42183 1.44949 2.81797 1.44949 3.21412 1.45232C3.39882 1.45353 3.49159 1.5448 3.49493 1.72372C3.49827 1.91515 3.49577 2.10659 3.49577 2.29802V2.29843ZM2.25217 2.65262H2.98512V1.94665H2.25217V2.65262Z" fill="#410EAD"/>
<path d="M11.7443 8.70971C11.588 8.70971 11.4313 8.71295 11.275 8.70891C11.1003 8.70446 11.0063 8.61359 11.0046 8.44316C11.0013 8.13581 11.0009 7.82847 11.0046 7.52112C11.0067 7.3523 11.1024 7.26143 11.2787 7.25941C11.5967 7.25618 11.9148 7.25578 12.2328 7.25941C12.4074 7.26143 12.5014 7.35392 12.5035 7.52476C12.5069 7.8321 12.5073 8.13945 12.5035 8.4468C12.5014 8.61561 12.4049 8.70487 12.229 8.70891C12.0677 8.71254 11.906 8.70971 11.7443 8.70971ZM11.5098 8.21457H11.9967V7.75133H11.5098V8.21457Z" fill="#410EAD"/>
<path d="M5.75977 9.2002H6.23949V11.6057H5.75977V9.2002Z" fill="#410EAD"/>
<path d="M8.75879 9.44238H9.24143V11.6043H8.75879V9.44238Z" fill="#410EAD"/>
<path d="M7.76074 11.1367H8.24255V13.0531H7.76074V11.1367Z" fill="#410EAD"/>
<path d="M8.24311 8.96289V10.6377H7.76172V8.96289H8.24311Z" fill="#410EAD"/>
<path d="M7.2392 10.3964H6.75781V8.96387H7.2392V10.3964Z" fill="#410EAD"/>
<path d="M7.23879 13.0578H6.75781V11.8672H7.23879V13.0578Z" fill="#410EAD"/>
<path d="M7.24088 11.3643H6.76074V10.8975H7.24088V11.3643Z" fill="#410EAD"/>
<path d="M5.75684 12.1045H6.23697V12.5714H5.75684V12.1045Z" fill="#410EAD"/>
<path d="M9.24464 12.1055V12.5703H8.76074V12.1055H9.24464Z" fill="#410EAD"/>
<path d="M7.49662 7.01551C6.66797 7.01269 5.9977 6.36245 5.99854 5.56158C5.99937 4.76272 6.67758 4.11006 7.50247 4.11329C8.33655 4.11693 9.0064 4.77362 9.00097 5.58258C8.99554 6.37093 8.31649 7.01794 7.49662 7.01511V7.01551ZM7.50289 4.59713C6.94962 4.59511 6.49873 5.03008 6.49915 5.56481C6.49957 6.09348 6.94419 6.52804 7.48826 6.53208C8.04195 6.53612 8.49618 6.10438 8.50035 5.57127C8.50453 5.03695 8.05573 4.59915 7.50289 4.59713Z" fill="#410EAD"/>
</svg>
