<svg width="16" height="15" viewBox="0 0 16 15" fill="none" xmlns="http://www.w3.org/2000/svg">
<path d="M5.47877 14.9994C5.29599 14.9352 5.09951 14.8952 4.93355 14.8017C4.43648 14.5207 4.17267 14.0811 4.16328 13.5093C4.15232 12.8455 4.1625 12.1817 4.15741 11.5179C4.15663 11.4408 4.13353 11.3527 4.09126 11.2893C2.85014 9.41918 3.94801 6.89035 6.16411 6.54318C7.11991 6.39327 7.97003 6.6559 8.70194 7.29192C8.73482 7.32049 8.76848 7.34828 8.80293 7.3749C8.8084 7.3792 8.82093 7.37451 8.84754 7.37294C8.84754 7.32284 8.84754 7.27157 8.84754 7.2203C8.84754 6.35648 8.84598 5.49227 8.84833 4.62845C8.84911 4.27306 9.18062 4.05544 9.48239 4.20926C9.65696 4.2985 9.72741 4.44958 9.72702 4.64137C9.72584 5.50049 9.72663 6.35961 9.72663 7.21834C9.72663 7.27 9.72663 7.32128 9.72663 7.41247C9.79395 7.35689 9.8327 7.32519 9.87105 7.2927C10.7877 6.51656 11.828 6.28563 12.958 6.68838C14.0821 7.08918 14.7545 7.91894 14.9596 9.09627C15.0954 9.87711 14.9228 10.6075 14.4923 11.2764C14.4481 11.3449 14.4187 11.4361 14.4179 11.5171C14.4121 12.1417 14.4148 12.7664 14.4144 13.3915C14.4144 14.2404 13.9631 14.8001 13.1349 14.9802C13.1212 14.9833 13.1091 14.9931 13.0958 14.9997H12.715C12.702 14.9931 12.6895 14.9833 12.6758 14.9806C12.1059 14.8768 11.7228 14.5477 11.4942 14.0209C11.2715 13.5069 11.0406 12.997 10.8128 12.4854C10.7478 12.3398 10.4769 12.305 10.3693 12.4286C9.76185 13.1261 8.8088 13.1261 8.20369 12.4286C8.09645 12.305 7.82521 12.3394 7.76063 12.4846C7.52305 13.0185 7.28704 13.5527 7.04789 14.0862C6.86041 14.505 6.54729 14.7876 6.11088 14.9309C6.0283 14.9579 5.94297 14.977 5.85882 14.9997H5.47799L5.47877 14.9994ZM5.03962 12.3703C5.03962 12.7465 5.03688 13.1222 5.04041 13.4983C5.04315 13.7841 5.22475 14.0169 5.49443 14.0944C5.80363 14.1833 6.10384 14.0389 6.24709 13.7214C6.53164 13.0905 6.81423 12.4584 7.08977 11.8235C7.19153 11.5891 7.35044 11.4728 7.60994 11.4818C7.86357 11.4905 8.11759 11.4858 8.3716 11.483C8.57239 11.4811 8.72151 11.5648 8.80958 11.7441C8.90899 11.946 9.06125 12.0682 9.29022 12.067C9.51918 12.0658 9.66909 11.9406 9.76812 11.739C9.85344 11.5648 9.99982 11.4826 10.1943 11.4834C10.4484 11.4846 10.7024 11.4912 10.956 11.4815C11.221 11.4713 11.3834 11.5883 11.4871 11.829C11.7541 12.4466 12.0312 13.0596 12.3048 13.6741C12.4543 14.0099 12.7279 14.1735 13.0293 14.1089C13.3518 14.0396 13.5353 13.7907 13.5357 13.4193C13.5361 12.7308 13.5396 12.0423 13.5334 11.3539C13.5318 11.1734 13.5823 11.0263 13.6888 10.8811C14.1001 10.3198 14.2277 9.69198 14.0469 9.02191C13.8269 8.20701 13.2942 7.66884 12.4793 7.45748C11.6652 7.24652 10.9423 7.45514 10.3482 8.05946C10.212 8.19801 10.066 8.26807 9.87027 8.26377C9.48944 8.25555 9.10822 8.25359 8.72778 8.26416C8.51525 8.27003 8.35869 8.19645 8.2123 8.0438C7.58372 7.38938 6.6107 7.19955 5.78445 7.55807C4.4764 8.12599 4.04077 9.74012 4.88933 10.8857C4.99344 11.0259 5.04589 11.1699 5.04158 11.3453C5.03375 11.6869 5.03923 12.0286 5.03962 12.3707V12.3703Z" fill="#410EAD"/>
<path d="M0 3.04629C0.0285721 2.90382 0.0547959 2.76096 0.0861078 2.61928C0.434453 1.04977 1.85836 -0.0414542 3.50185 0.00120829C5.05492 0.0415224 6.4166 1.22981 6.68392 2.77858C7.05418 4.92149 5.36765 6.83347 3.1946 6.73445C1.5836 6.66086 0.214878 5.38686 0.0270065 3.78643C0.0230925 3.75394 0.00939358 3.72224 0 3.69054C0 3.47566 0 3.26078 0 3.0459V3.04629ZM3.36407 5.85889C4.73515 5.86084 5.85611 4.74614 5.85964 3.37742C5.86316 2.00517 4.75041 0.88303 3.38208 0.878725C2.00318 0.874028 0.880256 1.99108 0.879474 3.36724C0.878691 4.73753 1.99535 5.85693 3.36447 5.85928L3.36407 5.85889Z" fill="#410EAD"/>
<path d="M7.09 9.14004C7.25008 9.14004 7.38668 9.1373 7.52328 9.14082C7.77495 9.14709 7.96478 9.33261 7.9683 9.57254C7.97221 9.81833 7.78043 10.0117 7.5221 10.0183C7.3859 10.0219 7.2493 10.0191 7.09 10.0191C7.09 10.1538 7.09078 10.2829 7.09 10.4125C7.08804 10.6978 6.90956 10.8959 6.65359 10.8978C6.39722 10.8998 6.21366 10.7013 6.21131 10.4183C6.21013 10.2919 6.21131 10.1659 6.21131 10.0191C6.07354 10.0191 5.94398 10.0199 5.81443 10.0191C5.53106 10.0168 5.33262 9.83516 5.33301 9.5788C5.33301 9.32321 5.53223 9.14239 5.81599 9.14043C5.94203 9.13965 6.06806 9.14043 6.2117 9.14043C6.2117 8.99522 6.21013 8.86019 6.2117 8.72516C6.21561 8.45509 6.40388 8.25939 6.65476 8.26174C6.90017 8.26409 7.08491 8.45705 7.08961 8.71889C7.09196 8.85432 7.09 8.98974 7.09 9.14043V9.14004Z" fill="#410EAD"/>
<path d="M3.57283 2.20069C3.57283 2.49972 3.56774 2.76235 3.5783 3.02459C3.57987 3.06334 3.65111 3.11422 3.70042 3.1334C4.111 3.29544 4.33605 3.59251 4.33057 3.97608C4.3247 4.36748 4.07616 4.73031 3.71216 4.87669C3.67146 4.89313 3.62997 4.90722 3.58144 4.92522C3.55365 5.09079 3.62762 5.3268 3.34386 5.34011C3.19591 5.34715 3.14737 5.25439 3.12702 4.98824C2.91801 4.89704 2.71331 4.82268 2.52583 4.717C2.46477 4.68256 2.41468 4.56083 2.42524 4.48881C2.43503 4.42423 2.52662 4.35182 2.59824 4.32325C2.64678 4.30368 2.72545 4.3483 2.7869 4.37296C2.89336 4.41562 2.99669 4.46494 3.1325 4.52561C3.1325 4.23127 3.11802 3.97412 3.13681 3.71932C3.15325 3.49427 3.1098 3.34671 2.87887 3.24377C2.58767 3.11461 2.46321 2.8512 2.49452 2.53417C2.52662 2.20891 2.68866 1.96194 3.00021 1.83943C3.10315 1.79912 3.1419 1.75293 3.13602 1.64099C3.1282 1.48874 3.21587 1.39833 3.34542 1.39559C3.47498 1.39246 3.57283 1.48287 3.56852 1.62964C3.565 1.74237 3.61079 1.77094 3.70942 1.80303C3.82684 1.841 3.94035 1.90793 4.03859 1.98386C4.15484 2.07388 4.16071 2.20891 4.07616 2.30559C3.99593 2.39757 3.87733 2.40187 3.76187 2.32046C3.71138 2.28485 3.65737 2.25432 3.57283 2.20109V2.20069ZM3.57674 4.44772C3.80258 4.33147 3.92039 4.11229 3.88203 3.9025C3.84876 3.72011 3.74074 3.60777 3.57674 3.58781V4.44772ZM3.12546 2.28054C2.98534 2.35608 2.91371 2.48994 2.93093 2.64141C2.94424 2.75687 3.00295 2.83515 3.12546 2.86999V2.28054Z" fill="#410EAD"/>
<path d="M11.92 8.26174C12.1573 8.25939 12.3593 8.45516 12.3637 8.69242C12.3684 8.93556 12.1648 9.14151 11.922 9.13994C11.6847 9.13838 11.4862 8.93909 11.4858 8.70182C11.4851 8.46455 11.6828 8.26448 11.9204 8.26174H11.92Z" fill="#410EAD"/>
<path d="M11.4843 9.58153C11.4831 9.81919 11.2842 10.0177 11.0469 10.0189C10.8042 10.02 10.601 9.81331 10.6061 9.57056C10.6107 9.3333 10.8132 9.13753 11.0504 9.14066C11.2881 9.14379 11.485 9.34426 11.4839 9.58153H11.4843Z" fill="#410EAD"/>
<path d="M12.7985 9.14065C13.0357 9.1383 13.2378 9.33406 13.2421 9.57133C13.2468 9.81447 13.0432 10.0204 12.8004 10.0188C12.5632 10.0173 12.3647 9.81799 12.3643 9.58073C12.3635 9.34346 12.5612 9.14339 12.7989 9.14065H12.7985Z" fill="#410EAD"/>
<path d="M11.9207 10.8979C11.6835 10.8959 11.4854 10.6958 11.4854 10.4586C11.4854 10.2154 11.6925 10.0134 11.9352 10.0197C12.1729 10.0259 12.3675 10.2288 12.3632 10.466C12.3589 10.7037 12.1576 10.8998 11.9203 10.8979H11.9207Z" fill="#410EAD"/>
</svg>
