<svg width="15" height="15" viewBox="0 0 15 15" fill="none" xmlns="http://www.w3.org/2000/svg">
<path d="M13.0667 9.67783V10.156H13.5379V10.6423H12.3376C12.3376 10.797 12.3376 10.9407 12.3376 11.0849C12.3376 11.3317 12.3392 11.5789 12.3376 11.8256C12.3339 12.2683 12.0275 12.5781 11.5866 12.5801C11.1134 12.5825 10.6398 12.5805 10.1545 12.5805C10.05 13.4141 9.66804 14.0801 8.97281 14.5514C8.4859 14.8814 7.94287 15.0235 7.35624 14.9965C6.25323 14.946 5.02264 14.1031 4.84056 12.5805C4.78969 12.5805 4.73639 12.5805 4.6827 12.5805C4.18892 12.5805 3.69515 12.5813 3.20138 12.5805C2.72094 12.5793 2.42298 12.278 2.42096 11.7945C2.42096 11.7348 2.42096 11.675 2.42096 11.6067C1.54243 11.4928 0.856074 11.0825 0.391776 10.3313C0.0441582 9.7687 -0.069292 9.154 0.0401208 8.50336C0.262176 7.18309 1.42898 6.24771 2.78634 6.29335C4.09284 6.33697 5.17566 7.36604 5.31212 8.71862C5.4502 10.0874 4.4453 11.4508 2.90585 11.612C2.90585 11.6932 2.901 11.7772 2.90706 11.8608C2.91675 12.0021 3.00759 12.0946 3.15253 12.0954C3.71171 12.0991 4.27048 12.097 4.84258 12.097C4.86074 12.0009 4.87528 11.9084 4.89587 11.8172C5.11833 10.8361 5.70213 10.1706 6.64647 9.82564C6.74054 9.79132 6.78334 9.75456 6.77809 9.64713C6.77163 9.51749 6.77405 9.383 6.80272 9.25739C6.88387 8.90723 7.21574 8.67904 7.57063 8.71337C7.92228 8.7473 8.23841 9.04334 8.21418 9.39431C8.19279 9.70287 8.31795 9.80505 8.57997 9.92177C9.4686 10.3176 9.98134 11.0219 10.1336 11.9852C10.1376 12.0098 10.142 12.0348 10.1481 12.0591C10.1505 12.0684 10.1582 12.076 10.1703 12.0954C10.6515 12.0954 11.1393 12.0991 11.627 12.093C11.759 12.0914 11.8478 12.0025 11.8502 11.8705C11.8575 11.4682 11.8527 11.0659 11.8527 10.6475H10.652V10.1665H11.1199V9.67823C11.0759 9.67823 11.0282 9.67823 10.9806 9.67823C10.633 9.67823 10.2854 9.68065 9.93774 9.67742C9.50534 9.67379 9.19567 9.36442 9.19446 8.93106C9.19204 7.97872 9.19204 7.02598 9.19446 6.07364C9.19567 5.63301 9.50615 5.32486 9.94985 5.32445C11.3807 5.32284 12.8119 5.32284 14.2428 5.32445C14.6865 5.32486 14.997 5.63221 14.9982 6.07405C15.0006 7.02638 15.0006 7.97913 14.9982 8.93147C14.997 9.36442 14.6865 9.67419 14.2545 9.67783C13.8629 9.68065 13.4712 9.67864 13.0675 9.67864L13.0667 9.67783ZM14.5145 8.22105C14.5145 7.51225 14.5149 6.81799 14.5145 6.12372C14.5145 5.88786 14.4334 5.80749 14.1964 5.80749C12.7966 5.80749 11.3968 5.80749 9.99709 5.80749C9.75444 5.80749 9.67733 5.88746 9.67733 6.13705C9.67733 6.78164 9.67733 7.42622 9.67733 8.07081C9.67733 8.11927 9.68177 8.16774 9.68419 8.22105H14.5145ZM0.485443 8.9452C0.483021 10.1423 1.45482 11.1241 2.64746 11.1294C3.8518 11.1346 4.83612 10.1592 4.83894 8.95893C4.84136 7.76184 3.86957 6.78042 2.67653 6.77517C1.47137 6.76992 0.487865 7.74407 0.485443 8.9452ZM8.22549 10.3115C8.22549 10.4133 8.23518 10.5147 8.22307 10.6136C8.20571 10.7558 8.25981 10.8305 8.38295 10.9088C8.96514 11.2792 9.25058 11.8212 9.17912 12.5074C9.10604 13.2105 8.71401 13.7057 8.0434 13.9363C7.3841 14.1625 6.78374 14.0122 6.2928 13.5199C5.50955 12.7335 5.69527 11.4403 6.65657 10.8761C6.70259 10.8491 6.76437 10.8014 6.7684 10.7586C6.78213 10.6104 6.77365 10.4601 6.77365 10.3079C5.92621 10.4896 5.21805 11.6003 5.3311 12.5506C5.46918 13.7129 6.4115 14.5393 7.57022 14.515C8.66274 14.492 9.59093 13.6023 9.67208 12.4997C9.74314 11.534 9.0257 10.4424 8.22549 10.3111V10.3115ZM6.77446 11.3919C6.3465 11.6835 6.18258 12.276 6.37355 12.7727C6.57178 13.2889 7.11521 13.6168 7.64653 13.5405C8.22266 13.4577 8.65224 13.009 8.70675 12.4444C8.75075 11.9884 8.45037 11.471 8.22549 11.4177C8.22549 11.5647 8.22791 11.7109 8.22509 11.8571C8.21661 12.2618 7.89927 12.5789 7.50401 12.5809C7.10229 12.5829 6.78213 12.2626 6.77527 11.8503C6.77284 11.7053 6.77527 11.5603 6.77527 11.3923L6.77446 11.3919ZM14.5145 8.72226H9.69025C9.64544 9.03163 9.67168 9.20287 10.0968 9.19883C11.4659 9.18631 12.835 9.19439 14.2044 9.19398C14.4313 9.19398 14.5129 9.11079 14.5145 8.88462C14.5145 8.83454 14.5145 8.78405 14.5145 8.72226ZM7.74181 10.6459C7.74181 10.263 7.74262 9.88017 7.74181 9.49729C7.74141 9.30707 7.65057 9.196 7.50038 9.1956C7.34978 9.1956 7.25894 9.30667 7.25894 9.49689C7.25814 10.2626 7.25814 11.0288 7.25894 11.7945C7.25894 11.9848 7.35019 12.0962 7.50038 12.0962C7.65057 12.0962 7.74141 11.9852 7.74222 11.7949C7.74343 11.4121 7.74222 11.0292 7.74222 10.6463L7.74181 10.6459ZM11.6217 9.68106V10.1512H12.5669V9.68106H11.6217Z" fill="#410EAD"/>
<path d="M10.1584 2.66527C9.66707 2.66527 9.17451 2.66042 8.68195 2.6685C8.55841 2.67052 8.48533 2.76179 8.46999 2.8874C8.46433 2.93223 8.46756 2.97786 8.46756 3.0235C8.46756 4.13214 8.46756 5.24078 8.46756 6.34942V6.52389H7.98389V6.35992C7.98389 5.24118 7.98389 4.12245 7.98389 3.00412C7.98389 2.46737 8.26893 2.18061 8.80145 2.17981C9.24476 2.1794 9.68806 2.17859 10.1314 2.17738C10.1407 2.17738 10.1495 2.17092 10.1588 2.16729C10.3478 0.591768 11.8307 -0.169133 12.9854 0.0315932C14.1324 0.230704 15.0049 1.25614 14.998 2.44313C14.9912 3.61033 14.1025 4.62648 12.9725 4.81388C11.8004 5.00815 10.3445 4.22463 10.1584 2.66607V2.66527ZM13.0221 1.70404H12.1359C12.123 1.86317 12.1105 2.01462 12.098 2.17052H13.0609C13.0476 2.0122 13.0354 1.86398 13.0221 1.70404ZM12.1367 3.13941H13.0221C13.0354 2.9815 13.048 2.82964 13.0609 2.67092H12.0984C12.1113 2.82803 12.1234 2.97625 12.1367 3.13941ZM11.6127 2.17213C11.6248 2.01341 11.6361 1.86115 11.6486 1.69556C11.3729 1.69556 11.1169 1.69354 10.8609 1.69798C10.8294 1.69839 10.7786 1.72545 10.7701 1.75129C10.7265 1.88659 10.6938 2.02512 10.655 2.17213H11.6127ZM13.5462 2.17254H14.5055C14.4663 2.02593 14.4328 1.89104 14.392 1.75816C14.3839 1.73272 14.3456 1.69919 14.3209 1.69879C14.0553 1.69435 13.79 1.69596 13.5106 1.69596C13.5232 1.86236 13.5345 2.01139 13.5462 2.17254ZM11.6131 2.67496H10.6526C10.6926 2.82156 10.7245 2.95282 10.7668 3.08085C10.7761 3.10912 10.8209 3.14345 10.8504 3.14386C11.1112 3.1487 11.372 3.14668 11.6498 3.14668C11.6373 2.98231 11.6256 2.83368 11.6135 2.67496H11.6131ZM13.5462 2.6693C13.5337 2.83287 13.5228 2.9819 13.5102 3.14668C13.7868 3.14668 14.0476 3.1487 14.3084 3.14386C14.3379 3.14345 14.3835 3.10953 14.3924 3.08166C14.4344 2.95 14.4663 2.8151 14.5055 2.6693H13.5466H13.5462ZM12.964 1.20647C12.8574 0.972219 12.7682 0.763012 12.6672 0.559458C12.624 0.472625 12.5546 0.467375 12.4936 0.5534C12.356 0.748068 12.2857 0.968584 12.2328 1.20687H12.9644L12.964 1.20647ZM12.9575 3.63618H12.2013C12.2986 3.85993 12.377 4.06873 12.4791 4.26461C12.5433 4.38779 12.618 4.38577 12.6846 4.25775C12.7847 4.0651 12.861 3.85993 12.9575 3.63618ZM11.7229 1.20687C11.7782 1.01301 11.8311 0.827632 11.8909 0.617617C11.5606 0.748876 11.3054 0.933043 11.0765 1.20687H11.7229ZM13.4356 1.20122H14.0795C13.8486 0.933043 13.5983 0.742818 13.2668 0.621251C13.3282 0.83167 13.381 1.01341 13.4356 1.20122ZM14.0803 3.6382H13.4356C13.3806 3.83085 13.3278 4.01623 13.2684 4.22422C13.5974 4.09539 13.851 3.91041 14.0803 3.6382ZM11.8945 4.22382C11.8291 4.0025 11.7742 3.81752 11.7229 3.64426H11.0838C11.3107 3.91041 11.5622 4.09781 11.8945 4.22382Z" fill="#410EAD"/>
<path d="M3.87214 2.66292C4.66669 2.66292 5.43702 2.66292 6.20776 2.66292C6.72252 2.66292 7.01604 2.95411 7.01644 3.46542C7.01685 4.4327 7.01644 5.39998 7.01644 6.36726V6.52397H6.53276V6.3705C6.53276 5.40806 6.53276 4.44603 6.53276 3.48359C6.53276 3.21865 6.45888 3.14636 6.18959 3.14636C5.42451 3.14636 4.65902 3.14636 3.87214 3.14636C3.87214 3.20694 3.87214 3.25985 3.87214 3.31275C3.87214 3.88222 3.87294 4.45128 3.87214 5.02074C3.87133 5.50418 3.57216 5.80628 3.09212 5.80709C2.32138 5.8083 1.55065 5.8083 0.779912 5.80709C0.307135 5.80628 0.00271756 5.50459 0.00271756 5.03367C0.00191008 3.61283 0.00150635 2.192 0.00271756 0.771571C0.00271756 0.308729 0.307539 0.00299594 0.768203 0.00218819C1.54903 0.000572687 2.32986 0.000572687 3.11069 0.00218819C3.56328 0.00299594 3.87012 0.309133 3.87173 0.76107C3.87375 1.33538 3.87214 1.90969 3.87214 2.484C3.87214 2.53812 3.87214 2.59224 3.87214 2.66252V2.66292ZM0.492451 4.34546H3.37635V1.46139H0.492451V4.34546ZM3.38805 0.963412C3.38805 0.88304 3.39048 0.813574 3.38765 0.744107C3.38038 0.583365 3.29277 0.487646 3.1333 0.487242C2.33349 0.484415 1.53369 0.484415 0.733886 0.487242C0.583292 0.487646 0.494873 0.584173 0.487202 0.73603C0.483569 0.809535 0.486395 0.883444 0.486395 0.963008H3.38805V0.963412ZM3.38805 4.85031H0.49447C0.460556 5.26347 0.51506 5.32405 0.911126 5.32405C0.961594 5.32405 1.01166 5.32405 1.06212 5.32405C1.74121 5.32405 2.4203 5.32486 3.09938 5.32365C3.29681 5.32325 3.38361 5.23439 3.38765 5.03851C3.38886 4.97874 3.38765 4.91937 3.38765 4.85071L3.38805 4.85031Z" fill="#410EAD"/>
<path d="M7.00396 7.49786H6.54395V7.02734H7.00396V7.49786Z" fill="#410EAD"/>
<path d="M7.98926 7.4888V7.02637H8.45977V7.4888H7.98926Z" fill="#410EAD"/>
<path d="M7.00791 8.46102H6.54346V7.99414H7.00791V8.46102Z" fill="#410EAD"/>
<path d="M7.99414 7.99121H8.45981V8.45648H7.99414V7.99121Z" fill="#410EAD"/>
<path d="M4.52842 8.03797C4.42022 8.14742 4.31162 8.25727 4.20341 8.36672C3.28895 7.50687 1.96469 7.56584 1.12855 8.36591C1.02762 8.25525 0.926683 8.14459 0.82373 8.03151C1.56176 7.12844 3.4242 6.88127 4.52842 8.03837V8.03797Z" fill="#410EAD"/>
<path d="M3.38822 9.92258C3.38701 10.3176 3.0623 10.6431 2.66771 10.6451C2.26626 10.6475 1.93629 10.3184 1.9375 9.91692C1.93871 9.51628 2.2711 9.18954 2.67296 9.19439C3.06714 9.19924 3.38944 9.52678 3.38822 9.92217V9.92258ZM2.90357 9.92621C2.90721 9.79576 2.80018 9.68267 2.66933 9.67944C2.53887 9.67581 2.42619 9.78284 2.42256 9.91369C2.41892 10.0441 2.52595 10.1572 2.65681 10.1609C2.78726 10.1645 2.90034 10.0571 2.90357 9.92621Z" fill="#410EAD"/>
<path d="M3.84624 8.73009C3.74003 8.8355 3.6334 8.94132 3.52234 9.05117C2.95287 8.59439 2.38098 8.58954 1.80385 9.05238C1.70086 8.94172 1.59908 8.83227 1.49609 8.72201C2.00094 8.10045 3.22024 8.02573 3.84624 8.73009Z" fill="#410EAD"/>
</svg>
