<svg width="15" height="12" viewBox="0 0 15 12" fill="none" xmlns="http://www.w3.org/2000/svg">
<path d="M7.20018 3.62169C7.05534 3.4866 6.9374 3.37691 6.8096 3.25791C6.36298 3.88299 5.68676 4.23068 5.03297 4.60844C4.72849 4.78419 4.41818 4.96291 4.15586 5.18736C3.93748 5.37412 3.76663 5.61848 3.60924 5.85775C3.45453 6.09279 3.24422 6.14531 3.03795 5.95092C2.29268 5.24961 1.54965 4.54703 0.80617 3.84403C0.656398 3.70258 0.63891 3.59967 0.727697 3.41587C1.00616 2.83907 1.4927 2.45072 2.04515 2.12209C2.4846 1.86037 2.93078 1.60754 3.36261 1.33481C3.64287 1.15779 3.8747 0.928252 4.04375 0.638157C3.98905 0.582255 3.93255 0.531859 3.88501 0.474687C3.78188 0.350603 3.79309 0.194332 3.90654 0.0859173C4.0164 -0.0186864 4.19084 -0.0296973 4.31908 0.063472C4.36303 0.0956578 4.40159 0.134619 4.44105 0.172311C5.45807 1.13238 6.47508 2.09202 7.49075 3.05336C7.53335 3.09359 7.5625 3.14653 7.62976 3.23546C7.69478 3.14695 7.72348 3.09274 7.76653 3.05209C8.77413 2.09837 9.78352 1.14593 10.7925 0.193485C10.8319 0.156218 10.87 0.116833 10.9126 0.0829528C11.0521 -0.0292738 11.2328 -0.0263093 11.3512 0.0876113C11.4646 0.196873 11.4857 0.381518 11.3561 0.486122C11.1853 0.623758 11.2485 0.721586 11.3561 0.850753C11.6135 1.15906 11.9404 1.3869 12.2879 1.5923C12.6673 1.8159 13.0543 2.02765 13.4278 2.25973C13.8973 2.55151 14.2874 2.91742 14.5251 3.40952C14.6224 3.61068 14.6099 3.69411 14.4466 3.84869C13.7076 4.54788 12.9677 5.24665 12.227 5.94415C12.0117 6.14658 11.7817 6.10973 11.6534 5.84886C11.4575 5.4512 11.1364 5.1628 10.7588 4.92564C10.4799 4.75031 10.1911 4.58811 9.90369 4.42549C9.18219 4.01766 8.96964 3.85165 8.44275 3.26722C8.33333 3.38411 8.22481 3.50057 8.10329 3.63058C8.33333 3.84742 8.58893 4.08796 8.84453 4.32935C8.89206 4.37425 8.94184 4.41744 8.98578 4.46487C9.1091 4.5987 9.10775 4.76132 8.98444 4.87778C8.8665 4.98959 8.67637 4.99551 8.54633 4.87778C8.31629 4.66942 8.09343 4.45386 7.86877 4.24C7.79433 4.16927 7.72438 4.09431 7.63828 4.00792C7.37058 4.26117 7.11946 4.49918 6.8679 4.73676C6.81633 4.78546 6.76745 4.83628 6.7123 4.88075C6.57463 4.9917 6.38943 4.98832 6.27285 4.87609C6.15671 4.76429 6.15177 4.58515 6.27733 4.46191C6.51768 4.22602 6.76521 3.99606 7.01229 3.7661C7.06789 3.71444 7.13381 3.67336 7.20197 3.62212L7.20018 3.62169ZM5.08633 3.88892C5.57735 3.60475 6.06209 3.3155 6.341 2.8522C6.09976 2.62097 5.87465 2.40541 5.64461 2.18477C5.32444 2.63029 4.86302 2.94325 4.3841 3.2308C4.62177 3.45356 4.84687 3.66446 5.08633 3.88849V3.88892ZM2.07251 4.18409C2.3994 3.72333 2.86127 3.41206 3.35947 3.11434C3.13436 2.90386 2.92719 2.70567 2.71195 2.51467C2.68549 2.49138 2.60568 2.49053 2.57249 2.51086C2.33931 2.65527 2.09807 2.79248 1.88731 2.96315C1.68776 3.12493 1.52319 3.3244 1.35055 3.50015C1.60974 3.74535 1.83395 3.95795 2.07251 4.18409ZM3.23077 5.27291C3.55498 4.81002 4.01954 4.50087 4.48052 4.22687C4.24689 4.00453 4.01999 3.78813 3.78636 3.56579C3.30476 3.83937 2.82271 4.13116 2.53393 4.6114C2.77069 4.83586 2.99445 5.04845 3.23122 5.27333L3.23077 5.27291ZM3.94286 2.80519C4.1738 2.65146 4.4285 2.5062 4.65136 2.32621C4.83611 2.17757 4.98678 1.99038 5.14418 1.81378C5.16884 1.78626 5.17198 1.70537 5.14866 1.68208C4.94194 1.4771 4.72715 1.27933 4.50383 1.0697C4.1738 1.54359 3.71013 1.85275 3.23391 2.13818C3.46619 2.35671 3.69085 2.56845 3.94286 2.80561V2.80519ZM9.5889 2.15555C9.38532 2.35078 9.19564 2.54305 8.9934 2.72303C8.90372 2.80307 8.90865 2.85855 8.97457 2.94791C9.21627 3.27485 9.54092 3.51201 9.88979 3.72418C10.085 3.84304 10.2632 3.82624 10.4243 3.67378C10.5754 3.53106 10.7265 3.38792 10.8857 3.23758C10.379 2.93817 9.92791 2.62309 9.58846 2.15512L9.5889 2.15555ZM13.8785 3.51497C13.5937 3.05039 13.1278 2.76115 12.6471 2.48884C12.6265 2.47698 12.5767 2.48333 12.5592 2.49942C12.3404 2.70059 12.1247 2.90513 11.9099 3.10672C12.1566 3.27824 12.3965 3.42519 12.6104 3.60052C12.8234 3.77542 13.0099 3.9787 13.196 4.15784C13.4135 3.95329 13.6417 3.73773 13.8789 3.51455L13.8785 3.51497ZM12.0108 2.14284C11.792 1.99208 11.5494 1.84724 11.335 1.67191C11.1212 1.49701 10.9346 1.29204 10.7449 1.10824C10.5292 1.31279 10.3014 1.52835 10.0665 1.75111C10.3584 2.22754 10.8395 2.52187 11.3252 2.79503C11.5615 2.57015 11.7893 2.35332 12.0113 2.14242L12.0108 2.14284ZM12.7207 4.60844C12.4265 4.13031 11.9462 3.8364 11.4646 3.56283C11.2288 3.78516 11.0001 3.99987 10.7633 4.22306C11.2481 4.50002 11.7041 4.824 12.0229 5.26359C12.2615 5.03998 12.4866 4.82866 12.7211 4.60844H12.7207Z" fill="#410EAD"/>
<path d="M2.72028 8.14671C2.94852 8.14671 3.17811 8.15222 3.40681 8.14333C3.48035 8.14036 3.55792 8.10987 3.62429 8.07557C4.33369 7.70585 5.0413 7.33191 5.7498 6.9605C6.07445 6.79025 6.29418 6.91561 6.29463 7.27008C6.29507 7.56059 6.29463 7.85154 6.29463 8.14205C6.29463 8.62738 6.59596 8.94543 7.13317 9.01361C7.13317 8.64305 7.13093 8.27419 7.13407 7.90532C7.13586 7.6796 7.31792 7.53688 7.52733 7.58939C7.67172 7.62581 7.75737 7.73973 7.75916 7.91845C7.76275 8.25132 7.76051 8.58418 7.76051 8.91705C7.76051 8.97465 7.76051 9.03182 7.76051 9.10593C7.88113 9.11186 7.99234 9.12965 8.09951 9.11737C8.14929 9.11186 8.21117 9.05638 8.23449 9.00938C8.38695 8.70404 8.52955 8.39446 8.67752 8.087C8.80846 7.81469 9.00083 7.76811 9.24881 7.95021C9.72144 8.29748 10.1936 8.64475 10.6627 8.99582C10.7403 9.05384 10.8053 9.06782 10.9039 9.04283C11.4972 8.89291 12.0182 9.02293 12.4712 9.41551C12.5294 9.46591 12.6218 9.50106 12.7012 9.50614C13.0406 9.52774 13.3891 9.49809 13.7204 9.55653C14.4518 9.68528 14.9823 10.3146 14.9998 11.0138C15.0056 11.2446 14.8935 11.3594 14.6496 11.3602C14.0285 11.3623 13.407 11.3577 12.7859 11.3657C12.7111 11.3666 12.6151 11.4106 12.5662 11.4648C11.9156 12.1814 10.747 12.1746 10.1048 11.4491C10.0654 11.4047 9.99139 11.3623 9.93355 11.3623C7.91342 11.3581 5.89284 11.3602 3.87272 11.3577C3.75164 11.3577 3.67227 11.3877 3.58976 11.4784C3.11265 12.0027 2.33554 12.1462 1.68219 11.8426C1.02077 11.5351 0.68356 10.8711 0.828399 10.16C0.833332 10.1346 0.840506 10.1096 0.848578 10.0757C0.753513 10.0177 0.665174 9.95208 0.566074 9.90634C0.363837 9.81317 0.293435 9.66453 0.295229 9.45786C0.298816 9.08815 0.283121 8.71843 0.279982 8.3483C0.279085 8.25386 0.263839 8.19245 0.159806 8.13655C0.0840232 8.09589 0.0154152 7.98028 0.0113794 7.89516C-0.00521206 7.54704 -0.000727899 7.19766 0.0064468 6.84912C0.0104826 6.64881 0.136488 6.55055 0.376392 6.54971C0.997453 6.54717 1.61896 6.54886 2.24002 6.54886C2.3185 6.54886 2.39697 6.5459 2.47499 6.55013C2.69158 6.56199 2.80368 6.66786 2.80548 6.87156C2.80907 7.20443 2.8122 7.5373 2.80279 7.87017C2.80055 7.95826 2.75256 8.0455 2.72118 8.14756L2.72028 8.14671ZM2.57185 8.9755C3.57855 9.19571 4.04625 9.792 3.97765 10.7584H9.76718C9.71023 10.3862 9.76584 10.0436 9.97659 9.70942C9.25419 9.70942 8.5717 9.71238 7.88965 9.70815C7.47935 9.70561 7.07488 9.65817 6.68879 9.51715C5.98387 9.25966 5.66908 8.82515 5.66863 8.11241C5.66863 7.97816 5.66863 7.84434 5.66863 7.6868C5.58926 7.72533 5.53994 7.74736 5.4924 7.77234C4.99914 8.0311 4.50095 8.28266 4.01442 8.55327C3.779 8.68413 3.54313 8.75231 3.26959 8.7341C3.03866 8.71886 2.80548 8.73114 2.57185 8.73114V8.97507V8.9755ZM2.38083 9.57432C1.85304 9.56882 1.42435 9.96902 1.41762 10.4743C1.4109 10.9892 1.84272 11.4085 2.38352 11.4114C2.90996 11.4144 3.35659 10.9977 3.36286 10.4967C3.36959 9.9885 2.93462 9.58025 2.38038 9.57432H2.38083ZM11.3371 9.57432C10.7985 9.57644 10.3627 9.98638 10.3658 10.4895C10.369 10.9964 10.8039 11.4076 11.3371 11.4072C11.8846 11.4064 12.3164 10.996 12.3124 10.4815C12.3079 9.97114 11.8797 9.57305 11.3371 9.57474V9.57432ZM1.07413 9.51376C1.36381 9.34775 1.61448 9.2063 1.862 9.06062C1.89429 9.04156 1.93465 9.00345 1.9351 8.97338C1.94093 8.71716 1.93824 8.46052 1.93824 8.20177H0.918531C0.918531 8.54946 0.927948 8.88571 0.914495 9.22155C0.908217 9.3829 0.958889 9.48327 1.07324 9.51334L1.07413 9.51376ZM14.3186 10.7656C14.1325 10.2434 13.6061 10.0046 12.9214 10.1096V10.7656H14.3186ZM2.175 7.15446H0.634682V7.59236H2.175V7.15446ZM8.87617 9.1089H9.80261C9.55822 8.92849 9.34522 8.77137 9.11832 8.60409C9.03447 8.77899 8.95913 8.93611 8.87617 9.1089Z" fill="#410EAD"/>
<path d="M5.38058 10.4138C5.16848 10.4138 4.95593 10.4168 4.74383 10.4129C4.525 10.4087 4.43307 10.3066 4.40169 10.1021C4.3824 9.97801 4.32366 9.85647 4.26447 9.74213C4.21335 9.64388 4.1268 9.56256 4.0721 9.46558C3.99856 9.33515 4.04564 9.18438 4.1694 9.1018C4.29676 9.01668 4.4676 9.01752 4.56356 9.1361C4.71468 9.32329 4.851 9.52276 4.97297 9.72815C5.01467 9.79888 5.04292 9.83191 5.12812 9.83106C5.42408 9.82725 5.72004 9.82767 6.01599 9.83021C6.23841 9.83233 6.3689 9.9471 6.36486 10.1292C6.36083 10.3037 6.23303 10.4104 6.01689 10.4134C5.80479 10.4159 5.59269 10.4138 5.38014 10.4138H5.38058Z" fill="#410EAD"/>
</svg>
