<svg width="15" height="15" viewBox="0 0 15 15" fill="none" xmlns="http://www.w3.org/2000/svg">
<path d="M0.000366794 14.6166C0.0917138 14.4529 0.232953 14.3965 0.41528 14.4097C0.540378 14.4188 0.66621 14.4115 0.807449 14.4115C0.807449 14.3444 0.807449 14.2915 0.807449 14.2391C0.807449 13.8829 0.805981 13.5266 0.808183 13.1701C0.80965 12.9389 0.877518 12.8542 1.09837 12.7984C1.48576 12.7008 1.8728 12.6011 2.26166 12.5101C2.35815 12.4873 2.40804 12.4418 2.44399 12.3505C2.56726 12.0379 2.69492 11.7265 2.83102 11.4194C2.87248 11.3259 2.85854 11.2591 2.80901 11.178C2.60211 10.8416 2.3996 10.5023 2.1971 10.1633C2.07347 9.95603 2.08594 9.85295 2.25469 9.68309C2.5955 9.34081 2.93741 8.99891 3.27969 8.6581C3.44844 8.49008 3.55446 8.47724 3.76027 8.59977C4.10365 8.80447 4.44776 9.00844 4.78747 9.21902C4.86781 9.26891 4.93164 9.26854 5.01565 9.23259C5.32894 9.09759 5.64737 8.97506 5.95883 8.83639C6.0179 8.80997 6.0788 8.73844 6.09604 8.67607C6.20023 8.29564 6.29194 7.91155 6.38732 7.52855C6.45079 7.27432 6.53443 7.20828 6.79747 7.20828C7.26594 7.20792 7.73442 7.20792 8.20326 7.20828C8.46409 7.20828 8.547 7.27542 8.61083 7.53148C8.70512 7.90971 8.80307 8.28684 8.89184 8.66653C8.91312 8.75715 8.95164 8.80924 9.03859 8.84373C9.35995 8.97139 9.67728 9.11006 10.0001 9.23406C10.0566 9.2557 10.1447 9.2502 10.1968 9.22012C10.5475 9.01835 10.8919 8.80594 11.2397 8.59867C11.4437 8.47687 11.5497 8.49081 11.7199 8.6603C12.0589 8.9978 12.3968 9.33641 12.7347 9.67502C12.9155 9.85661 12.9269 9.9542 12.7923 10.1787C12.5868 10.5217 12.3777 10.8625 12.1778 11.2088C12.1495 11.258 12.1422 11.3405 12.1627 11.3926C12.29 11.7195 12.4313 12.0409 12.5604 12.367C12.5931 12.4499 12.6411 12.4873 12.7248 12.5075C13.118 12.6018 13.5102 12.7008 13.9024 12.7995C14.117 12.8535 14.1874 12.9389 14.1892 13.1587C14.1922 13.5197 14.19 13.881 14.1903 14.2424C14.1903 14.2948 14.1903 14.3477 14.1903 14.4122C14.358 14.4122 14.5084 14.41 14.6588 14.4126C14.8602 14.4163 14.9941 14.5337 14.9952 14.7031C14.9963 14.873 14.8628 14.9915 14.6621 14.9977C14.6379 14.9985 14.6133 14.9977 14.5887 14.9977C9.86401 14.9977 5.13965 14.997 0.414914 15.0003C0.232953 15.0003 0.091347 14.9563 0 14.7927V14.6169L0.000366794 14.6166ZM10.6124 14.4009H13.6041C13.6041 14.0637 13.6081 13.7368 13.599 13.4103C13.5979 13.3718 13.5296 13.3135 13.4827 13.301C13.125 13.2056 12.7655 13.1169 12.4052 13.0314C12.2566 12.9962 12.1543 12.9224 12.0952 12.775C11.9158 12.3274 11.7284 11.8828 11.5424 11.4378C11.4921 11.3171 11.4896 11.2041 11.5615 11.0896C11.6546 10.941 11.7427 10.7892 11.8329 10.6384C11.9624 10.4223 12.0919 10.2062 12.2101 10.0089C11.9294 9.73005 11.6634 9.46555 11.3887 9.19224C11.0475 9.39731 10.6905 9.60752 10.3384 9.8247C10.2103 9.90357 10.0911 9.91384 9.95169 9.85405C9.58924 9.69777 9.23009 9.52975 8.85626 9.40648C8.53086 9.29936 8.36284 9.11263 8.31038 8.77182C8.25975 8.44275 8.15373 8.12212 8.07302 7.80076H6.9255C6.82461 8.20173 6.71969 8.59647 6.62798 8.9945C6.59129 9.15299 6.51059 9.2513 6.36054 9.31147C5.92655 9.48536 5.49329 9.66218 5.06407 9.84818C4.90816 9.91568 4.77903 9.90137 4.63815 9.81296C4.32449 9.61596 4.0057 9.42666 3.68506 9.24066C3.64618 9.21829 3.56363 9.21058 3.53832 9.23479C3.28152 9.48059 3.03243 9.73408 2.77636 9.99052C2.99134 10.3486 3.19861 10.7011 3.41432 11.0482C3.4998 11.1854 3.51044 11.3138 3.44697 11.4623C3.26538 11.8879 3.08562 12.3149 2.9165 12.7456C2.85047 12.9144 2.74151 12.9991 2.56836 13.038C2.21177 13.118 1.85812 13.21 1.50484 13.3029C1.46339 13.3139 1.40029 13.3608 1.39955 13.3924C1.39185 13.7273 1.39478 14.0626 1.39478 14.4042H4.38246C4.37879 14.3627 4.37585 14.3297 4.37255 14.2963C4.26029 13.1723 4.61651 12.225 5.47825 11.4943C5.73395 11.2774 6.05385 11.1347 6.34954 10.9682C6.45776 10.9073 6.57735 10.9212 6.67714 11.0071C6.76738 11.0848 6.79086 11.1861 6.76555 11.2987C6.7362 11.429 6.63091 11.4829 6.52122 11.5291C5.91114 11.787 5.46101 12.2144 5.17853 12.8127C4.93861 13.3208 4.87441 13.852 4.98557 14.4027H10.0181C10.152 13.5769 9.97003 12.8469 9.42709 12.2129C9.15488 11.8952 8.81774 11.6714 8.43474 11.5078C8.25388 11.4304 8.18895 11.2705 8.25425 11.1175C8.32065 10.9616 8.48243 10.8977 8.65853 10.9715C9.60244 11.3662 10.2276 12.0519 10.5244 13.0332C10.6594 13.4797 10.674 13.9349 10.6117 14.4016L10.6124 14.4009Z" fill="#410EAD"/>
<path d="M0.000366794 5.36013C0.0597974 5.28382 0.111524 5.19981 0.179392 5.13194C1.23043 4.0776 2.28331 3.02509 3.33582 1.97222C3.57354 1.73449 3.69974 1.73376 3.93599 1.97001C4.99914 3.03316 6.06229 4.09594 7.1247 5.15982C7.16249 5.19761 7.1922 5.24347 7.21495 5.27208C8.45492 4.03174 9.67838 2.80828 10.9334 1.55327C10.8457 1.47623 10.7327 1.38525 10.6296 1.28436C10.389 1.04884 10.1524 0.808917 9.91464 0.57046C9.69086 0.345578 9.70333 0.18673 9.9594 0H14.7923C14.956 0.0909802 15.0007 0.232953 15 0.414914C14.9952 1.88894 14.9974 3.3626 14.9974 4.83662C14.9974 4.8612 14.9971 4.88542 14.9974 4.91C15.0004 5.04353 14.9508 5.15065 14.8268 5.20862C14.6955 5.26988 14.5774 5.23063 14.4794 5.13414C14.2567 4.91513 14.0363 4.69392 13.8158 4.47234C13.6819 4.3377 13.5502 4.20123 13.4115 4.05926C13.362 4.10658 13.3235 4.14217 13.2864 4.17922C12.3718 5.09342 11.4573 6.00799 10.5427 6.92256C10.3233 7.14194 10.1604 7.17423 10.0177 7.02749C9.87685 6.88258 9.90877 6.7274 10.123 6.51279C11.0376 5.59822 11.9518 4.68365 12.8671 3.76981C12.9049 3.73202 12.9526 3.70451 12.9838 3.68066C12.4228 3.12011 11.8825 2.57973 11.3501 2.04705C10.1388 3.25731 8.91422 4.48114 7.66141 5.73322C7.81146 5.87226 7.97801 6.01496 8.12989 6.17161C8.23848 6.2835 8.23737 6.43318 8.15263 6.54544C8.07449 6.64926 7.92885 6.69585 7.81366 6.63789C7.74579 6.60377 7.68599 6.54874 7.63133 6.49408C6.3433 5.20788 5.05637 3.92022 3.77017 2.63182C3.72945 2.5911 3.70121 2.53791 3.66709 2.49022C3.64508 2.48655 3.6227 2.48288 3.60069 2.47921C3.5695 2.5291 3.54639 2.58707 3.50567 2.62742C2.5269 3.60876 1.5463 4.58826 0.566792 5.56887C0.47361 5.66205 0.36869 5.75486 0.235521 5.70277C0.145275 5.66755 0.0777734 5.57364 0 5.50577C0 5.45698 0 5.40819 0 5.35939L0.000366794 5.36013ZM14.4039 0.598342H10.8178C12.0101 1.79099 13.209 2.98951 14.4039 4.18472V0.598342Z" fill="#410EAD"/>
<path d="M0.000366794 9.46157C0.0594305 9.3849 0.110423 9.30052 0.178292 9.23265C1.45678 7.95086 2.73711 6.67127 4.0178 5.39167C4.05889 5.35059 4.10071 5.3084 4.14804 5.27501C4.2724 5.18734 4.42098 5.20054 4.52223 5.30216C4.62018 5.40085 4.63999 5.56263 4.54461 5.67525C4.42208 5.82016 4.2823 5.95003 4.15024 6.08687C4.12052 6.11768 4.09264 6.1507 4.03614 6.21306C4.09557 6.25745 4.15574 6.29267 4.20343 6.34C4.65723 6.79049 5.1092 7.24246 5.56006 7.69553C5.61106 7.74689 5.66682 7.80192 5.69433 7.86648C5.74422 7.98241 5.72625 8.0998 5.62977 8.18858C5.53035 8.28066 5.41185 8.2979 5.29299 8.23004C5.23503 8.19702 5.18477 8.14749 5.13671 8.0998C4.67704 7.64197 4.21774 7.18303 3.76027 6.72263C3.72322 6.68521 3.699 6.63495 3.66856 6.59056C3.64581 6.58726 3.62307 6.58395 3.60032 6.58065C3.56914 6.63055 3.54639 6.68851 3.50567 6.72923C2.52727 7.71057 1.54666 8.68971 0.567159 9.67031C0.473977 9.76349 0.369423 9.85667 0.235888 9.80495C0.145275 9.76973 0.0777734 9.67618 0 9.60868C0 9.55989 0 9.5111 0 9.4623L0.000366794 9.46157Z" fill="#410EAD"/>
<path d="M9.50027 7.84233C9.34766 7.84233 9.20972 7.70512 9.20899 7.55215C9.20825 7.39733 9.34252 7.26343 9.4988 7.2627C9.65802 7.26233 9.78678 7.39073 9.78678 7.55031C9.78678 7.70696 9.65435 7.84196 9.50027 7.84233Z" fill="#410EAD"/>
<path d="M7.79731 11.0417C7.79694 11.1987 7.66891 11.3286 7.51042 11.3322C7.35158 11.3363 7.2074 11.1961 7.2085 11.0384C7.20924 10.884 7.3413 10.753 7.49905 10.75C7.6656 10.7471 7.79767 10.8762 7.79731 11.0417Z" fill="#410EAD"/>
</svg>
