<svg width="15" height="15" viewBox="0 0 15 15" fill="none" xmlns="http://www.w3.org/2000/svg">
<path d="M11.6153 4.35289V5.0104C11.4243 5.073 11.2381 5.13196 11.0543 5.19658C11.0111 5.21193 10.9566 5.23899 10.9392 5.27574C10.8698 5.42074 10.8092 5.57017 10.7547 5.72122C10.7417 5.75636 10.7547 5.80886 10.7724 5.84521C10.8471 5.99908 10.9328 6.14771 11.003 6.30361C11.0196 6.34036 11.0103 6.41387 10.9833 6.44133C10.6024 6.82986 10.2175 7.21475 9.82897 7.5952C9.80191 7.62186 9.73649 7.61539 9.68923 7.61297C9.66177 7.61136 9.63188 7.59197 9.60886 7.57339C9.31121 7.32824 9.00265 7.34682 8.69005 7.53825C8.64804 7.5641 8.60604 7.60853 8.58948 7.65336C8.53173 7.80885 8.48972 7.97 8.43157 8.12509C8.41662 8.16507 8.36412 8.21919 8.32817 8.21959C7.75427 8.22565 7.17996 8.22363 6.60039 8.22363C6.53739 8.03179 6.48206 7.84358 6.41259 7.66103C6.3928 7.60893 6.33747 7.56653 6.28981 7.53058C6.25508 7.50433 6.20137 7.50473 6.16502 7.47969C5.93562 7.3238 5.72923 7.37307 5.50468 7.50998C5.23893 7.67194 5.23005 7.6574 5.00468 7.43204C4.68401 7.11136 4.36535 6.78866 4.04104 6.47202C3.97157 6.40417 3.94976 6.34763 4.01155 6.26847C4.02367 6.25272 4.03013 6.23293 4.03942 6.21516C4.19666 5.91091 4.2073 5.60463 4.07133 5.29634C4.05234 5.25393 4.00024 5.21435 3.95461 5.1978C3.77044 5.13116 3.58264 5.07421 3.38958 5.01161V4.36258C3.3391 4.35895 3.29629 4.3537 3.25307 4.3537C3.00106 4.35289 2.74904 4.35652 2.49742 4.35168C2.41221 4.35006 2.36738 4.37429 2.32456 4.45467C2.16423 4.75555 1.83951 4.89489 1.52045 4.81371C1.1921 4.73011 0.967543 4.44255 0.968755 4.10774C0.97037 3.77979 1.1925 3.49546 1.51318 3.41146C1.83184 3.32785 2.161 3.46517 2.32133 3.76202C2.36616 3.84522 2.4118 3.8747 2.5051 3.87228C2.79185 3.86582 3.0786 3.86985 3.3807 3.86985V3.21517C3.57779 3.15055 3.76398 3.09239 3.94774 3.02737C3.99096 3.01202 4.04427 2.98375 4.06204 2.94659C4.1315 2.8016 4.19208 2.65217 4.24701 2.50152C4.25994 2.46639 4.24701 2.41388 4.22924 2.37753C4.15452 2.22366 4.0689 2.07503 3.99863 1.91914C3.98207 1.88279 3.99176 1.80928 4.01882 1.78182C4.39968 1.39329 4.78457 1.0084 5.1731 0.627542C5.20016 0.600886 5.26559 0.606944 5.31284 0.609367C5.3403 0.610579 5.36655 0.635215 5.39321 0.649351C5.69504 0.805785 6.00118 0.817902 6.31162 0.6857C6.35443 0.667525 6.39482 0.615829 6.41178 0.570191C6.46913 0.414699 6.51154 0.253553 6.5697 0.0984649C6.58464 0.0584812 6.63755 0.00476569 6.67309 0.00436181C7.247 -0.00169632 7.82131 0.000323122 8.40087 0.000323122C8.45297 0.159046 8.50305 0.311307 8.55273 0.463568C8.56525 0.501936 8.57535 0.540708 8.58908 0.578673C8.62946 0.691354 9.13229 0.894503 9.23972 0.840788C9.38794 0.766071 9.53253 0.683276 9.68398 0.616233C9.72477 0.598059 9.80434 0.605329 9.83382 0.634408C10.2195 1.01122 10.6008 1.39208 10.9776 1.77778C11.0071 1.80807 11.0018 1.87754 11.0014 1.92883C11.0014 1.95589 10.9756 1.98214 10.9618 2.0092C10.8046 2.31372 10.794 2.61999 10.9299 2.92802C10.9485 2.97002 11.0018 3.00839 11.0475 3.02495C11.2316 3.09159 11.4194 3.14853 11.6117 3.21154V3.86178C11.6618 3.86541 11.705 3.87066 11.7482 3.87066C12.0002 3.87147 12.2522 3.86783 12.5038 3.87268C12.5891 3.8743 12.6339 3.84966 12.6767 3.76969C12.8407 3.46355 13.1698 3.32624 13.4954 3.41388C13.8136 3.4999 14.0337 3.78787 14.0325 4.11581C14.0313 4.44336 13.8084 4.72849 13.4881 4.8125C13.1694 4.8961 12.8411 4.75959 12.6799 4.46234C12.6351 4.37954 12.5895 4.35006 12.4962 4.35208C12.2094 4.35854 11.9227 4.3545 11.6157 4.3545L11.6153 4.35289ZM6.29587 2.90863V5.3129H6.77608V1.46074H8.23407V5.31169H8.71428V2.42923H10.1666V5.31694C10.2821 5.30967 10.4235 5.37833 10.4445 5.1986C10.4812 4.88964 10.6755 4.75959 10.9566 4.71476C10.9812 4.71072 11.0038 4.69497 11.0281 4.69134C11.1093 4.68003 11.1323 4.6352 11.1303 4.55604C11.1254 4.35975 11.1295 4.16307 11.1282 3.96678C11.1274 3.83593 11.1719 3.66832 11.108 3.58472C11.039 3.49465 10.8698 3.47365 10.7393 3.44094C10.6089 3.40822 10.5341 3.34522 10.5055 3.20871C10.4808 3.09199 10.4485 2.96598 10.3815 2.87067C10.1771 2.57826 10.1884 2.30403 10.4045 2.02859C10.4534 1.96639 10.4408 1.9151 10.3819 1.86017C10.2603 1.74708 10.1464 1.62511 10.0281 1.5088C9.91339 1.39612 9.80838 1.21639 9.67752 1.19418C9.54828 1.17237 9.3944 1.31736 9.24618 1.37552C9.19045 1.39733 9.1125 1.39692 9.05636 1.37552C8.9251 1.32584 8.80677 1.2281 8.67308 1.20266C8.31969 1.13562 8.1222 0.939333 8.081 0.584327C8.0701 0.491032 8.01275 0.479319 7.93197 0.480531C7.6953 0.484974 7.45823 0.482147 7.22155 0.482147C6.94934 0.482147 6.93117 0.478108 6.87301 0.740627C6.82131 0.974471 6.71146 1.11219 6.47035 1.14571C6.39765 1.15581 6.3193 1.18408 6.26074 1.2273C5.97237 1.43974 5.69491 1.42237 5.41987 1.2063C5.34838 1.15016 5.29628 1.17883 5.24014 1.23861C5.11575 1.37027 4.98408 1.49547 4.85686 1.62471C4.75832 1.72487 4.59758 1.81817 4.58142 1.93125C4.56446 2.0512 4.67835 2.19498 4.74863 2.32059C4.80315 2.41792 4.81405 2.49587 4.75024 2.59603C4.68077 2.70548 4.60808 2.82584 4.58586 2.94983C4.52326 3.30201 4.32133 3.48698 3.9748 3.52939C3.88312 3.5407 3.86777 3.59522 3.86979 3.67761C3.87464 3.91428 3.87141 4.15095 3.87141 4.38803C3.87141 4.65943 3.86737 4.67801 4.12868 4.73697C4.36171 4.78988 4.48611 4.90297 4.5378 5.13923C4.58425 5.35208 4.61333 5.35248 4.84313 5.29513V2.90863H6.29628H6.29587ZM7.51558 5.80401C6.74458 5.80401 5.97277 5.82542 5.20298 5.79392C4.87181 5.78018 4.69249 5.88358 4.59354 6.18527C4.56809 6.26322 4.56163 6.30805 4.62383 6.36742C4.80598 6.54149 4.97964 6.72445 5.15977 6.90013C5.3613 7.09601 5.28416 7.09601 5.52972 6.95304C5.74135 6.82945 5.93077 6.7717 6.14159 6.94254C6.19813 6.98818 6.27608 7.0217 6.34797 7.03099C6.70379 7.07743 6.8718 7.29472 6.91663 7.63115C6.92834 7.71758 6.97519 7.74342 7.06122 7.7414C7.31808 7.73575 7.57616 7.72646 7.83181 7.74383C8.00507 7.75554 8.09271 7.70384 8.11574 7.53058C8.15128 7.26685 8.28577 7.09601 8.56727 7.06411C8.62543 7.05764 8.68883 7.03422 8.73488 6.99908C9.02647 6.77533 9.30878 6.80401 9.58867 7.01766C9.65692 7.06976 9.70337 7.04108 9.75547 6.98696C9.89158 6.8452 10.0325 6.70829 10.1719 6.56976C10.455 6.28705 10.4501 6.28907 10.2744 5.93043C10.224 5.82784 10.1634 5.80078 10.0543 5.80159C9.20781 5.80644 8.36129 5.80401 7.51477 5.80401H7.51558ZM7.73125 5.31371V1.94094H7.26639V5.31371H7.73125ZM9.20458 2.90782V5.30765H9.66985V2.90782H9.20458ZM5.33344 3.39167V5.30765H5.79911V3.39167H5.33344ZM1.93442 4.1146C1.93684 3.98375 1.82901 3.87228 1.69815 3.86945C1.5673 3.86703 1.45583 3.97486 1.45341 4.10572C1.45098 4.23657 1.55882 4.34845 1.68967 4.35087C1.82012 4.35329 1.9324 4.24505 1.93483 4.1146H1.93442ZM13.5479 4.11743C13.5519 3.98698 13.4453 3.87389 13.3144 3.86945C13.184 3.86541 13.0709 3.97203 13.0664 4.10289C13.0624 4.23375 13.1686 4.34683 13.2999 4.35087C13.4303 4.35491 13.5438 4.24788 13.5479 4.11743Z" fill="#410EAD"/>
<path d="M14.0275 12.5819H14.9758C14.9758 13.0706 15.0174 13.5512 14.9649 14.0217C14.9027 14.5815 14.3897 14.9853 13.8235 14.9958C13.4459 15.0027 13.0679 14.9983 12.6898 14.9983C8.89018 14.9983 5.09092 14.9983 1.29126 14.9983C0.676966 14.9983 0.214529 14.6739 0.0529788 14.1324C0.0327851 14.0649 0.0097641 13.995 0.00936022 13.9264C0.00532147 13.4841 0.00734072 13.0415 0.00734072 12.5819H0.964122V7.02495H1.44837V12.5698H13.5489V7.02051H14.0279V12.5815L14.0275 12.5819ZM0.485933 13.0633C0.485933 13.3387 0.475836 13.5912 0.488357 13.8424C0.50855 14.2458 0.83367 14.5144 1.28722 14.5148C4.63373 14.5152 7.98025 14.5148 11.3268 14.5148C12.1434 14.5148 12.9596 14.5168 13.7763 14.5136C14.1498 14.5124 14.4568 14.2749 14.4996 13.9151C14.5327 13.6388 14.5061 13.3557 14.5061 13.0694C14.4746 13.0669 14.4503 13.0637 14.4261 13.0637C12.8486 13.0637 11.271 13.0625 9.69348 13.0677C9.64058 13.0677 9.56465 13.1186 9.5388 13.1671C9.40512 13.4147 9.28153 13.6683 9.15956 13.9223C9.12281 13.9991 9.08121 14.0338 8.98913 14.0334C7.9964 14.0294 7.00327 14.0294 6.01055 14.0334C5.91765 14.0334 5.87727 13.9966 5.84092 13.9211C5.72541 13.6808 5.59778 13.4462 5.48753 13.2034C5.43866 13.096 5.3801 13.0601 5.26055 13.0605C3.7234 13.0653 2.18625 13.0637 0.649099 13.0637H0.485529L0.485933 13.0633ZM9.0384 13.0718H5.96289C6.03882 13.2248 6.10303 13.3658 6.17896 13.4999C6.19512 13.5282 6.25408 13.5447 6.29326 13.5451C7.09859 13.5475 7.90391 13.5475 8.70924 13.5451C8.74842 13.5451 8.80738 13.5282 8.82354 13.4999C8.89947 13.3658 8.96368 13.2248 9.0388 13.0718H9.0384Z" fill="#410EAD"/>
<path d="M2.41374 11.6051H12.5761V7.02593H13.0583C13.0603 7.07076 13.0647 7.11922 13.0647 7.16769C13.0647 8.62406 13.0651 10.0804 13.0647 11.5368C13.0647 11.9096 12.8806 12.0958 12.509 12.0958C9.16734 12.0958 5.82568 12.0962 2.48401 12.0958C2.12254 12.0958 1.93555 11.9072 1.93555 11.5449C1.93555 10.0885 1.93555 8.63214 1.93555 7.17576C1.93555 7.1269 1.93555 7.07762 1.93555 7.02148H2.41374V11.6055V11.6051Z" fill="#410EAD"/>
<path d="M6.28423 8.23047V11.1145H2.91309V8.23047H6.28423ZM3.39451 10.6307H5.79514V8.71431H3.39451V10.6307Z" fill="#410EAD"/>
<path d="M6.78125 9.17954V8.71387H12.0849V9.17954H6.78125Z" fill="#410EAD"/>
<path d="M6.78223 11.1155V10.6494H12.0859V11.1155H6.78223Z" fill="#410EAD"/>
<path d="M11.3779 2.65979V2.17595C11.4325 2.17595 11.4854 2.17595 11.5387 2.17595C12.1732 2.17595 12.8076 2.17433 13.4421 2.17756C13.5407 2.17797 13.5996 2.1606 13.6526 2.06084C13.8089 1.76601 14.1453 1.63314 14.4631 1.71916C14.781 1.80519 15.0011 2.09315 14.9995 2.4211C14.9983 2.74178 14.7802 3.02772 14.4704 3.11415C14.1526 3.203 13.8157 3.07336 13.6562 2.78055C13.6013 2.67958 13.5411 2.65616 13.4345 2.65656C12.7547 2.66141 12.075 2.65898 11.3779 2.65898V2.65979ZM14.5148 2.41262C14.512 2.28176 14.3997 2.17433 14.2689 2.17716C14.1376 2.17999 14.0306 2.29186 14.0334 2.42272C14.0362 2.55357 14.1485 2.66141 14.279 2.65858C14.4098 2.65575 14.5177 2.54307 14.5148 2.41262Z" fill="#410EAD"/>
<path d="M11.3789 6.0458V5.56196C11.4314 5.56196 11.4847 5.56196 11.5376 5.56196C12.177 5.56196 12.8167 5.56075 13.456 5.56357C13.5429 5.56357 13.597 5.55065 13.6442 5.46139C13.8066 5.15445 14.1366 5.01753 14.4617 5.10518C14.7799 5.1908 15.0005 5.47836 14.9996 5.8059C14.9988 6.13304 14.7767 6.41898 14.4572 6.50339C14.1321 6.58942 13.8062 6.4517 13.6422 6.14233C13.5978 6.05873 13.5477 6.04419 13.4665 6.04459C12.8272 6.04661 12.1875 6.0458 11.5481 6.0458C11.494 6.0458 11.4399 6.0458 11.3789 6.0458ZM14.2694 6.04459C14.3999 6.04742 14.5126 5.93999 14.5154 5.80913C14.5182 5.67868 14.4108 5.5664 14.2799 5.56317C14.1491 5.56034 14.0372 5.66737 14.034 5.79863C14.0312 5.92949 14.1382 6.04176 14.2694 6.04459Z" fill="#410EAD"/>
<path d="M3.62241 2.17554V2.65939C3.56183 2.65939 3.50812 2.65939 3.454 2.65939C2.82436 2.65939 2.19512 2.66181 1.56548 2.65696C1.45926 2.65616 1.39908 2.67958 1.34375 2.78095C1.18462 3.07336 0.847386 3.20341 0.529132 3.11455C0.214109 3.02651 -0.00398359 2.73451 5.51684e-05 2.40616C0.00409392 2.08508 0.223802 1.80398 0.536402 1.71916C0.853848 1.63314 1.19149 1.76601 1.34698 2.06084C1.39989 2.161 1.45885 2.17797 1.5574 2.17756C2.18704 2.17433 2.81628 2.17595 3.44592 2.17595C3.50044 2.17595 3.55497 2.17595 3.62161 2.17595L3.62241 2.17554ZM0.733089 2.65817C0.863945 2.65414 0.970568 2.54065 0.966529 2.4102C0.96249 2.27934 0.849001 2.17272 0.71855 2.17676C0.587694 2.18079 0.481071 2.29388 0.48511 2.42473C0.489148 2.55599 0.602234 2.66221 0.733089 2.65817Z" fill="#410EAD"/>
<path d="M3.62321 5.56161V6.04545C3.56384 6.04545 3.51012 6.04545 3.45641 6.04545C2.81667 6.04545 2.17734 6.04747 1.5376 6.04343C1.44551 6.04303 1.39826 6.06807 1.35303 6.15207C1.19309 6.44933 0.864337 6.58705 0.546083 6.50425C0.219752 6.41944 -0.00359116 6.12946 4.37212e-05 5.79464C0.00327472 5.4671 0.227022 5.1852 0.548911 5.1024C0.867164 5.02041 1.19551 5.15854 1.35424 5.45781C1.40028 5.54464 1.45076 5.56443 1.54042 5.56403C2.17491 5.5608 2.8094 5.56201 3.44389 5.56201C3.49882 5.56201 3.55334 5.56201 3.62321 5.56201V5.56161ZM0.718538 6.04424C0.84899 6.04828 0.962479 5.94165 0.966518 5.8108C0.970556 5.68035 0.863933 5.56686 0.733078 5.56282C0.602626 5.55878 0.489137 5.6654 0.485098 5.79626C0.481059 5.92711 0.587279 6.0402 0.718538 6.04424Z" fill="#410EAD"/>
<path d="M6.7832 9.68164H11.1184V10.1493H6.7832V9.68164Z" fill="#410EAD"/>
<path d="M11.6191 10.1468V9.68359H12.0897V10.1468H11.6191Z" fill="#410EAD"/>
<path d="M11.6047 14.0231H11.1406V13.5566H11.6047V14.0231Z" fill="#410EAD"/>
<path d="M12.5714 14.0277H12.1094V13.5576H12.5714V14.0277Z" fill="#410EAD"/>
<path d="M13.5377 14.0244H13.0732V13.5596H13.5377V14.0244Z" fill="#410EAD"/>
</svg>
