<svg width="16" height="15" viewBox="0 0 16 15" fill="none" xmlns="http://www.w3.org/2000/svg">
<path d="M3.74353 10.988C4.0145 10.7174 4.27762 10.4543 4.54938 10.1829C4.32285 10.0527 4.0971 9.91742 3.86545 9.79235C3.74824 9.72903 3.6983 9.64801 3.69948 9.51154C3.70537 8.90823 3.70184 8.30452 3.70184 7.68862H2.38312C2.10703 8.45515 1.62485 8.79181 0.97159 8.67343C0.415866 8.57275 -0.0092849 8.05321 0.00015415 7.48686C0.0095932 6.9158 0.433171 6.41828 0.981029 6.32271C1.499 6.23265 2.18844 6.48357 2.3843 7.32286H3.70144C3.70144 7.26033 3.70144 7.20802 3.70144 7.1561C3.70144 6.60667 3.70538 6.05685 3.69869 5.50742C3.69672 5.3619 3.74116 5.27065 3.87292 5.20183C4.1026 5.08148 4.32403 4.9454 4.54073 4.82072C4.27132 4.54896 4.00624 4.28152 3.74077 4.01369C3.07335 4.45142 2.40751 4.17966 2.09877 3.77338C1.73419 3.29435 1.7747 2.62103 2.19631 2.20021C2.62775 1.76994 3.29596 1.72983 3.78049 2.10188C4.19306 2.41888 4.43769 3.08787 4.00428 3.75372C4.2784 4.02745 4.55332 4.30551 4.83531 4.5761C4.8593 4.59891 4.94268 4.58475 4.98319 4.56154C5.64353 4.18555 6.29207 3.78794 6.96381 3.43436C7.25053 3.28334 7.38031 3.11029 7.328 2.79094C7.30677 2.66233 7.32446 2.52704 7.32446 2.3823C6.91859 2.29421 6.60277 2.08222 6.42028 1.70269C6.29954 1.45098 6.27437 1.18512 6.34241 0.913744C6.48164 0.359593 6.99528 -0.0289808 7.54353 0.00169612C8.12718 0.0343395 8.60778 0.461063 8.67975 1.01089C8.76667 1.6728 8.43159 2.13846 7.67843 2.38663C7.67843 2.64463 7.67568 2.90774 7.68197 3.17086C7.68276 3.20193 7.7272 3.24165 7.76063 3.26092C8.51968 3.70062 9.27992 4.13915 10.0421 4.57374C10.0763 4.5934 10.1519 4.59301 10.1766 4.56941C10.4512 4.30315 10.7194 4.0306 10.9966 3.75254C10.7839 3.42964 10.7072 3.08158 10.8153 2.7048C10.8956 2.42478 11.0611 2.20611 11.303 2.04525C11.786 1.72432 12.4416 1.80416 12.8341 2.23049C13.2404 2.67216 13.262 3.32188 12.8892 3.79383C12.6009 4.15881 11.9504 4.45889 11.2645 4.01801C10.9994 4.28585 10.7347 4.5525 10.4677 4.8223C10.6753 4.94265 10.8916 5.07794 11.1178 5.19435C11.2605 5.2679 11.3066 5.36583 11.3046 5.52275C11.2967 6.11584 11.3015 6.70893 11.3015 7.31263H12.6253C12.7071 6.92524 12.912 6.6169 13.2778 6.43087C13.5279 6.30344 13.7934 6.27395 14.0651 6.33412C14.6189 6.45722 15.0157 6.963 15.0023 7.51754C14.9886 8.09096 14.565 8.58887 14.016 8.67618C13.3572 8.78119 12.8963 8.45476 12.6178 7.6843H11.3015V8.08506C11.3015 8.55112 11.2952 9.01756 11.305 9.48322C11.3085 9.64408 11.2511 9.73611 11.1123 9.80848C10.8909 9.9241 10.6785 10.0559 10.4755 10.1727C10.741 10.4374 11.0057 10.7016 11.2814 10.9762C11.5654 10.7803 11.9067 10.7079 12.2729 10.8055C12.5529 10.8802 12.7767 11.0418 12.9431 11.2806C13.277 11.76 13.2066 12.4219 12.7794 12.8254C12.3496 13.2317 11.6999 13.2608 11.2283 12.9009C10.8303 12.5969 10.5455 11.9342 10.9856 11.2625C10.697 10.9738 10.4095 10.6863 10.1129 10.3898C10.0984 10.3965 10.0673 10.4086 10.0386 10.4252C9.287 10.8582 8.5362 11.2932 7.78265 11.7238C7.70478 11.7683 7.67332 11.8162 7.67568 11.9071C7.68236 12.1423 7.67804 12.3775 7.67804 12.6095C8.48075 12.9328 8.79932 13.3918 8.67425 14.0372C8.56688 14.5897 8.05874 15.0051 7.49515 15C6.92685 14.9952 6.42186 14.574 6.32629 14.025C6.21184 13.3694 6.5367 12.9065 7.32407 12.6119C7.32407 12.3606 7.32643 12.1057 7.32132 11.8509C7.32053 11.8162 7.28907 11.769 7.258 11.751C6.47023 11.2928 5.6805 10.8377 4.90728 10.3913C4.60916 10.6879 4.31813 10.977 4.02394 11.2696C4.37319 11.9303 4.27133 12.545 3.73841 12.9277C3.25466 13.2754 2.59353 13.2136 2.18097 12.783C1.76526 12.3492 1.73655 11.6786 2.11253 11.209C2.46178 10.7728 3.13235 10.5848 3.74195 10.988H3.74353ZM4.05619 7.4845C4.05619 8.1122 4.05816 8.74029 4.05383 9.36799C4.05305 9.45766 4.08018 9.50721 4.15845 9.55244C5.24237 10.1742 6.32471 10.7988 7.40548 11.4257C7.47942 11.4686 7.53173 11.4646 7.6041 11.4229C8.68526 10.7964 9.7676 10.1723 10.8515 9.55048C10.9247 9.50839 10.9506 9.46159 10.9502 9.37782C10.9475 8.12715 10.9479 6.87647 10.9502 5.6254C10.9502 5.5436 10.9298 5.49404 10.8543 5.45078C9.76997 4.82977 8.68723 4.2064 7.60606 3.57949C7.52622 3.53308 7.47116 3.5378 7.39486 3.58224C6.32235 4.20365 5.24827 4.82308 4.17261 5.43938C4.0853 5.48932 4.05344 5.54399 4.05423 5.64507C4.05934 6.25821 4.05659 6.87136 4.05659 7.4845H4.05619Z" fill="#410EAD"/>
<path d="M5.52409 7.41876C5.52409 7.63822 5.52409 7.85807 5.52409 8.07753C5.52409 8.12157 5.52567 8.16602 5.52331 8.21007C5.51741 8.32805 5.46589 8.41419 5.33767 8.40986C5.2189 8.40593 5.16974 8.3253 5.16974 8.21085C5.17013 7.74008 5.17092 7.26931 5.16895 6.79814C5.16856 6.69824 5.2012 6.607 5.3011 6.6011C5.36874 6.59717 5.46589 6.64161 5.50522 6.69628C5.68456 6.9472 5.84817 7.20953 6.01807 7.46753C6.04363 7.50646 6.07195 7.54343 6.13095 7.57529C6.13095 7.39713 6.13055 7.21936 6.13095 7.0412C6.13095 6.94327 6.12701 6.84455 6.13684 6.74741C6.14707 6.64633 6.21629 6.5716 6.31343 6.5952C6.37754 6.61054 6.43024 6.68959 6.47822 6.74819C6.49553 6.76943 6.4853 6.81466 6.4853 6.84888C6.4853 7.28543 6.48491 7.72199 6.48609 8.15854C6.48609 8.26749 6.47665 8.37053 6.35119 8.40553C6.23163 8.43896 6.17342 8.35598 6.11797 8.27063C5.93115 7.98353 5.74316 7.6976 5.55595 7.41129C5.54533 7.41404 5.53471 7.4164 5.5237 7.41915L5.52409 7.41876Z" fill="#410EAD"/>
<path d="M7.3555 6.93986V7.32293C7.52265 7.32293 7.68744 7.32568 7.85223 7.32214C7.9769 7.31939 8.06697 7.36069 8.08113 7.49401C8.09293 7.60532 8.00011 7.67572 7.84987 7.6769C7.68941 7.67847 7.52855 7.6769 7.34842 7.6769C7.34842 7.86332 7.35275 8.03794 7.34724 8.21256C7.34291 8.351 7.23672 8.45011 7.13368 8.40174C7.07272 8.37303 7.00272 8.28493 7.00154 8.222C6.99052 7.74218 6.99485 7.26236 6.99564 6.78215C6.99564 6.65827 7.05856 6.58787 7.18363 6.58669C7.41882 6.58393 7.65401 6.58511 7.88881 6.5859C8.00561 6.58629 8.08034 6.64765 8.07995 6.76288C8.07995 6.87812 8.00286 6.93829 7.88723 6.93908C7.71222 6.94065 7.53759 6.93947 7.35589 6.93947L7.3555 6.93986Z" fill="#410EAD"/>
<path d="M9.31412 6.94048C9.31412 7.34479 9.31412 7.72668 9.31412 8.10817C9.31412 8.15694 9.32906 8.2179 9.30586 8.25212C9.26417 8.31387 9.20635 8.38938 9.14225 8.40511C9.0451 8.42871 8.97431 8.35516 8.96605 8.25369C8.95622 8.13217 8.96015 8.00906 8.95976 7.88675C8.95897 7.57841 8.95976 7.27046 8.95976 6.94048C8.85042 6.94048 8.74974 6.94048 8.64906 6.94048C8.52989 6.94088 8.44415 6.89447 8.44336 6.76508C8.44258 6.63608 8.52596 6.58691 8.64591 6.58691C8.97392 6.58691 9.30192 6.58691 9.62993 6.58691C9.75067 6.58691 9.83326 6.63726 9.83169 6.76586C9.83012 6.89526 9.74359 6.94088 9.62482 6.94009C9.52807 6.9397 9.43093 6.94009 9.3149 6.94009L9.31412 6.94048Z" fill="#410EAD"/>
</svg>
