<svg width="15" height="15" viewBox="0 0 15 15" fill="none" xmlns="http://www.w3.org/2000/svg">
<path d="M7.44091 15C6.86816 14.6946 6.29784 14.3853 5.72186 14.0862C5.57868 14.0116 5.51656 13.9174 5.52261 13.7608C5.53149 13.5457 5.53068 13.3298 5.5206 13.1147C5.51777 13.0573 5.48187 12.9804 5.43509 12.9498C4.84863 12.5624 4.25854 12.18 3.66482 11.8032C3.62045 11.7749 3.5297 11.7761 3.48049 11.8008C3.03157 12.0313 2.58588 12.2676 2.1426 12.5078C2.02926 12.569 1.93165 12.5714 1.81791 12.5101C1.26856 12.2138 0.717996 11.9198 0.164207 11.6309C0.0460274 11.5692 0.000449668 11.4868 0.00125635 11.3608C0.00407975 10.827 0.00448309 10.2935 0.00125635 9.75965C0.000449668 9.63208 0.0520774 9.552 0.166223 9.48958C0.665561 9.21638 1.16006 8.93493 1.6594 8.66173C1.74128 8.61698 1.7683 8.56634 1.7679 8.47723C1.76427 7.77224 1.76427 7.06725 1.7679 6.36225C1.7683 6.27079 1.73644 6.22369 1.65496 6.18129C1.16772 5.92732 0.685325 5.66472 0.197281 5.41232C0.0617578 5.34205 -0.00197034 5.25491 4.6375e-05 5.10143C0.0069032 4.5825 0.00569303 4.06357 0.000852925 3.54463C-0.000357103 3.40725 0.0456239 3.31696 0.172273 3.24788C0.715576 2.95073 1.25646 2.64965 1.79411 2.34308C1.92843 2.26654 2.03894 2.27086 2.17124 2.34661C2.69155 2.64337 3.21348 2.93738 3.74145 3.22079C3.90481 3.30833 3.97781 3.41941 3.95926 3.59723C3.95079 3.67927 3.95764 3.76288 3.95764 3.87358C4.01693 3.84139 4.05888 3.82176 4.09801 3.79782C4.53684 3.5305 4.97407 3.26044 5.41573 2.99744C5.50164 2.94641 5.52463 2.88871 5.52382 2.79607C5.51939 2.28695 5.52503 1.77744 5.51979 1.26832C5.51818 1.11916 5.57101 1.02455 5.70775 0.950365C6.24298 0.659889 6.77539 0.363524 7.30377 0.061272C7.44172 -0.0176277 7.55465 -0.0219456 7.6938 0.0577392C8.22218 0.359992 8.75459 0.656356 9.28943 0.947618C9.42414 1.02102 9.48182 1.11444 9.48021 1.26479C9.47456 1.77901 9.47537 2.29284 9.48142 2.80706C9.48223 2.86398 9.5149 2.94445 9.56007 2.97271C10.0247 3.26436 10.4946 3.54777 10.9637 3.83315C10.9798 3.84296 10.998 3.85042 11.0428 3.8724C11.0428 3.74443 11.0456 3.63531 11.042 3.52618C11.0379 3.40018 11.092 3.31618 11.2057 3.25376C11.7615 2.94837 12.3153 2.63984 12.8675 2.32856C12.9756 2.26771 13.0696 2.26693 13.1772 2.32738C13.7343 2.64062 14.2925 2.95151 14.8515 3.26083C14.9544 3.31775 14.9987 3.39704 14.9979 3.51205C14.9951 4.05061 14.9943 4.58917 14.9987 5.12773C15 5.26433 14.9362 5.34205 14.8184 5.40407C14.3272 5.66079 13.8399 5.92536 13.3479 6.18051C13.2587 6.22683 13.2317 6.27904 13.2321 6.37442C13.2365 7.0696 13.2373 7.76478 13.2313 8.46036C13.2305 8.57027 13.2716 8.62404 13.3652 8.67507C13.8472 8.93807 14.3239 9.21128 14.8067 9.4731C14.9411 9.54572 15.002 9.63482 15 9.78713C14.9931 10.3061 14.9935 10.825 15 11.3439C15.0016 11.4903 14.9435 11.5783 14.8128 11.6462C14.2723 11.9276 13.7339 12.213 13.1982 12.5031C13.074 12.5702 12.9695 12.5698 12.8461 12.5023C12.4121 12.2656 11.9733 12.0379 11.5385 11.802C11.4594 11.7592 11.4017 11.7526 11.3219 11.8052C10.7471 12.1832 10.1695 12.5576 9.58911 12.9274C9.50038 12.9839 9.47295 13.0463 9.47577 13.1437C9.48182 13.3541 9.47214 13.5649 9.4794 13.7753C9.48424 13.9205 9.42414 14.0104 9.29306 14.0791C8.71345 14.3825 8.13748 14.6923 7.5603 14.9996H7.4397L7.44091 15ZM5.52342 7.48216C5.52342 7.26666 5.53068 7.05076 5.51898 6.83604C5.51576 6.77559 5.47179 6.69591 5.42097 6.66294C4.84742 6.29199 4.26781 5.92968 3.69224 5.56148C3.62045 5.51555 3.56721 5.50967 3.48936 5.55206C3.09489 5.76717 2.6976 5.97757 2.29829 6.18443C2.21682 6.22683 2.18657 6.27472 2.18697 6.36579C2.191 7.07078 2.1906 7.77617 2.18737 8.48116C2.18737 8.56399 2.20996 8.61266 2.28781 8.65505C2.73511 8.89882 3.18 9.14651 3.62206 9.3993C3.70636 9.44719 3.76122 9.43581 3.83503 9.38439C4.36341 9.01815 4.89622 8.65819 5.42299 8.2896C5.4734 8.25427 5.51535 8.17459 5.51858 8.11335C5.53028 7.90335 5.52302 7.69256 5.52302 7.48177L5.52342 7.48216ZM12.8134 7.41896C12.8134 7.06646 12.8171 6.71357 12.8094 6.36147C12.8082 6.30651 12.7699 6.22722 12.7239 6.20171C12.3177 5.97678 11.9071 5.75932 11.4941 5.54617C11.4526 5.52498 11.3743 5.52812 11.3348 5.55285C10.7423 5.92222 10.1522 6.29631 9.56491 6.67393C9.52337 6.70062 9.48303 6.7646 9.48223 6.81171C9.47577 7.25252 9.47618 7.69295 9.48223 8.13377C9.48303 8.18205 9.51812 8.24721 9.55886 8.27547C10.1026 8.65427 10.6495 9.02914 11.1993 9.40009C11.2368 9.42521 11.3158 9.42913 11.3553 9.40794C11.8119 9.16025 12.2657 8.90785 12.7158 8.64917C12.7634 8.62169 12.8078 8.54632 12.809 8.49215C12.8171 8.13494 12.8134 7.77734 12.8134 7.41974V7.41896ZM5.52221 12.5074C5.52221 12.4108 5.52826 12.3472 5.521 12.2856C5.49841 12.0972 5.57303 11.9802 5.74969 11.8872C6.23532 11.6313 6.71207 11.3584 7.18882 11.0868C7.2348 11.0605 7.28441 10.995 7.28522 10.9471C7.29248 10.4576 7.29167 9.96809 7.28562 9.47899C7.28522 9.43424 7.24206 9.37143 7.20052 9.34906C6.74918 9.10333 6.29501 8.86153 5.83803 8.62601C5.79366 8.60324 5.70775 8.60716 5.66701 8.63464C5.12532 8.99892 4.58686 9.36751 4.05243 9.74198C4.00282 9.77692 3.96329 9.85935 3.96248 9.92059C3.95482 10.4199 3.95643 10.9188 3.95926 11.4181C3.95926 11.4546 3.98023 11.506 4.00927 11.5249C4.50014 11.8472 4.99343 12.1655 5.52181 12.5078L5.52221 12.5074ZM9.47859 12.4787C9.51328 12.4744 9.52498 12.4764 9.53224 12.4717C10.0183 12.1584 10.5043 11.8452 10.9879 11.5284C11.0177 11.5088 11.0428 11.4593 11.0428 11.4236C11.0456 10.9145 11.0464 10.4054 11.0399 9.89664C11.0391 9.84444 11.0004 9.77457 10.9564 9.74395C10.4252 9.37379 9.88839 9.01108 9.35638 8.64171C9.27894 8.58793 9.22167 8.58714 9.14059 8.63072C8.70176 8.8682 8.2609 9.10254 7.81763 9.33257C7.73495 9.37536 7.70873 9.4256 7.70994 9.51549C7.71478 9.97554 7.71518 10.4356 7.70994 10.8956C7.70873 10.9961 7.73938 11.0507 7.83215 11.1013C8.31898 11.3659 8.79896 11.6426 9.2862 11.9064C9.42777 11.983 9.49352 12.0803 9.48021 12.2362C9.47335 12.3131 9.479 12.3912 9.479 12.4787H9.47859ZM11.0436 4.81763C11.0436 4.71478 11.0363 4.61155 11.0456 4.50949C11.0553 4.40272 11.0117 4.34384 10.9189 4.2881C10.3543 3.95012 9.7928 3.60665 9.23296 3.26083C9.15955 3.2153 9.1047 3.21176 9.02806 3.25376C8.62472 3.4728 8.21896 3.6883 7.81158 3.89949C7.73333 3.93992 7.71034 3.98898 7.71115 4.07181C7.71518 4.51223 7.71518 4.95266 7.71115 5.39269C7.71034 5.47591 7.73535 5.5238 7.81198 5.5658C8.26292 5.81231 8.71184 6.06275 9.15874 6.31633C9.23377 6.35911 9.2862 6.35911 9.36082 6.31083C9.79603 6.02938 10.2272 5.74126 10.6765 5.48219C10.9504 5.324 11.1545 5.16149 11.0448 4.81723L11.0436 4.81763ZM7.28966 4.73245C7.28966 4.51223 7.28643 4.29202 7.29127 4.0722C7.29329 3.98977 7.2703 3.94031 7.19124 3.89949C6.78346 3.6883 6.38052 3.46809 5.97194 3.25887C5.92232 3.23335 5.83198 3.23178 5.78559 3.25965C5.20316 3.60705 4.62396 3.95954 4.0488 4.31793C4.00201 4.34698 3.9649 4.42431 3.96208 4.48122C3.952 4.70104 3.9528 4.92165 3.96168 5.14147C3.96369 5.19328 3.99878 5.26394 4.04154 5.29142C4.57718 5.63724 5.11645 5.97835 5.65854 6.31476C5.70089 6.34106 5.78559 6.3438 5.82915 6.32025C6.28533 6.07296 6.73627 5.81624 7.19164 5.56776C7.26908 5.52537 7.29329 5.4763 7.29127 5.39387C7.28603 5.17366 7.28966 4.95344 7.28966 4.73362V4.73245ZM8.83446 12.1325C8.39481 11.8876 7.97372 11.6509 7.549 11.4205C7.51754 11.4032 7.45301 11.4201 7.4151 11.4405C7.02587 11.6536 6.63866 11.8707 6.25145 12.087C6.22927 12.0996 6.21071 12.118 6.18248 12.1396C6.60518 12.3637 7.01417 12.5828 7.42558 12.7963C7.46309 12.8155 7.52722 12.8226 7.56191 12.8045C7.98139 12.5871 8.39804 12.3637 8.83405 12.1317L8.83446 12.1325ZM3.30745 3.46299C3.24534 3.42569 3.20057 3.39704 3.15378 3.37113C2.88798 3.22275 2.60604 3.09557 2.3596 2.92089C2.09057 2.73012 1.87035 2.73483 1.5993 2.92011C1.30567 3.12109 0.978958 3.27535 0.647411 3.46063C1.08705 3.6938 1.50451 3.91636 1.92399 4.1354C1.95303 4.15071 2.00466 4.15149 2.0333 4.13658C2.45318 3.91754 2.87104 3.69458 3.30745 3.46299ZM8.83446 6.60877C8.48718 6.41485 8.14918 6.24999 7.83941 6.04508C7.60104 5.88729 7.41389 5.87904 7.17148 6.04155C6.85889 6.25077 6.51564 6.41642 6.17038 6.60877C6.60599 6.84036 7.02345 7.06371 7.44333 7.28236C7.4756 7.29924 7.53408 7.29688 7.56715 7.27961C7.983 7.06293 8.39602 6.84193 8.83486 6.60877H8.83446ZM11.6913 3.46024C12.1265 3.69144 12.5351 3.91126 12.9481 4.12362C12.9905 4.14561 13.0659 4.14168 13.1103 4.11931C13.3648 3.99173 13.6149 3.85513 13.8658 3.72127C14.0218 3.63806 14.1775 3.55445 14.3554 3.45906C13.9101 3.21098 13.4886 2.97546 13.0647 2.74268C13.0413 2.72973 12.9953 2.73522 12.9699 2.74936C12.5509 2.98017 12.1334 3.21373 11.6913 3.45985V3.46024ZM6.16957 1.17097C6.60639 1.40335 7.01942 1.62474 7.43526 1.84064C7.47076 1.85909 7.53489 1.85751 7.57119 1.83867C7.98703 1.62317 8.40006 1.40217 8.81389 1.18275C8.80743 1.17176 8.80622 1.16547 8.80259 1.16351C8.38675 0.927991 7.9713 0.692077 7.55344 0.459696C7.52601 0.444387 7.47358 0.446742 7.44535 0.462051C7.02627 0.692077 6.60962 0.925243 6.16957 1.17058V1.17097ZM14.357 9.69841C13.921 9.45583 13.5132 9.2258 13.1006 9.00441C13.0566 8.98086 12.9744 8.9891 12.9272 9.01383C12.6884 9.13827 12.4553 9.27251 12.2201 9.40401C12.0495 9.4994 11.8797 9.59478 11.6925 9.69959C12.1277 9.9304 12.5412 10.1514 12.9562 10.3677C12.9901 10.3854 13.0486 10.3908 13.08 10.3744C13.4999 10.1561 13.9166 9.93237 14.3566 9.69841H14.357ZM3.3123 9.69841C2.8787 9.457 2.47092 9.22659 2.0583 9.0048C2.01434 8.98125 1.93125 8.98792 1.88446 9.01265C1.54162 9.19597 1.20322 9.38753 0.863603 9.57712C0.797051 9.61402 0.731709 9.65327 0.650234 9.70038C1.08504 9.93119 1.49806 10.1518 1.9131 10.3685C1.94658 10.3861 2.00506 10.3905 2.03733 10.374C2.45721 10.1553 2.87427 9.93158 3.3123 9.69841ZM3.53575 3.84532C3.50671 3.84218 3.49541 3.83707 3.48856 3.841C3.07432 4.05925 2.65928 4.27632 2.24787 4.49967C2.21601 4.51694 2.19342 4.57661 2.19181 4.61743C2.18576 4.78819 2.18899 4.95933 2.18899 5.13048C2.18899 5.33734 2.18899 5.54382 2.18899 5.7762C2.51932 5.60073 2.81094 5.41428 3.12756 5.28631C3.45629 5.15324 3.59181 4.96365 3.5426 4.61312C3.50711 4.36111 3.53575 4.10046 3.53575 3.84571V3.84532ZM11.4671 3.81156C11.4671 4.22961 11.4638 4.60997 11.4715 4.99034C11.4723 5.03274 11.5276 5.08848 11.5719 5.11321C11.8285 5.25609 12.0894 5.39191 12.3492 5.52929C12.4972 5.6078 12.6456 5.68513 12.813 5.77306C12.813 5.48376 12.7864 5.21762 12.8199 4.95894C12.8622 4.63117 12.7497 4.44393 12.4339 4.3144C12.1092 4.18133 11.8083 3.99212 11.4671 3.81156ZM12.813 12.0124C12.813 11.5995 12.8159 11.2101 12.8086 10.8211C12.8078 10.7834 12.7521 10.7343 12.7102 10.7115C12.3375 10.5094 11.962 10.3116 11.5873 10.1133C11.5546 10.0961 11.5191 10.0843 11.4667 10.0623C11.4667 10.3351 11.4957 10.5922 11.4598 10.8407C11.4078 11.1971 11.5481 11.3906 11.8801 11.5268C12.1963 11.6564 12.4887 11.8409 12.813 12.0124ZM2.18939 12.014C2.51206 11.8428 2.79561 11.6595 3.10498 11.5378C3.45911 11.3981 3.59584 11.1873 3.5426 10.8175C3.50792 10.5753 3.53615 10.3241 3.53615 10.0501C3.08683 10.2888 2.66493 10.5121 2.24545 10.739C2.21803 10.7539 2.19221 10.7991 2.19181 10.8305C2.18818 11.216 2.18939 11.601 2.18939 12.014ZM0.43485 3.81902C0.431219 3.88889 0.426783 3.9356 0.426783 3.9827C0.425976 4.29555 0.431623 4.60841 0.423556 4.92126C0.420733 5.03077 0.461067 5.08651 0.558272 5.1344C0.786564 5.24667 1.0084 5.3711 1.23306 5.49043C1.40328 5.58072 1.57389 5.67061 1.76669 5.77227C1.76669 5.35854 1.76911 4.96954 1.76306 4.58053C1.76265 4.5456 1.71506 4.50006 1.67795 4.47926C1.45127 4.35365 1.22177 4.23314 0.992672 4.11185C0.813588 4.01725 0.634101 3.92343 0.435656 3.81941L0.43485 3.81902ZM7.28966 3.48497C7.28966 3.07163 7.29208 2.68223 7.28603 2.29284C7.28562 2.2579 7.23803 2.21197 7.20092 2.19117C6.98271 2.07027 6.76087 1.95486 6.54065 1.83789C6.35229 1.73818 6.16433 1.63848 5.9558 1.52779C5.95177 1.59844 5.94733 1.64515 5.94733 1.69187C5.94653 1.95133 5.96387 2.21237 5.94169 2.46987C5.92232 2.69519 5.99573 2.82158 6.21071 2.92011C6.57211 3.08576 6.91656 3.28713 7.28966 3.48497ZM13.2365 5.74322C13.2535 5.74793 13.2599 5.75186 13.2632 5.7499C13.6826 5.53086 14.1021 5.31222 14.52 5.09083C14.5454 5.07748 14.5728 5.03902 14.5728 5.01232C14.576 4.62293 14.5752 4.23353 14.5752 3.84571C14.5498 3.84296 14.5377 3.83746 14.5309 3.84139C14.1166 4.06003 13.702 4.27868 13.2894 4.50046C13.2648 4.5138 13.239 4.55109 13.2386 4.57739C13.2353 4.96718 13.2361 5.35697 13.2361 5.74322H13.2365ZM9.05549 6.96048C8.60496 7.20032 8.18306 7.42288 7.76479 7.65173C7.73374 7.66861 7.71559 7.73103 7.71478 7.77263C7.71034 8.05094 7.71236 8.32925 7.71236 8.60795C7.71236 8.70687 7.71236 8.80579 7.71236 8.92473C8.15361 8.68999 8.56704 8.47174 8.97764 8.24799C9.01354 8.22837 9.05105 8.17577 9.05186 8.13769C9.05751 7.75732 9.05509 7.37696 9.05509 6.96048H9.05549ZM1.76588 12.0124C1.76588 11.5963 1.7683 11.2065 1.76185 10.8164C1.76144 10.7814 1.71224 10.7363 1.67432 10.7151C1.50492 10.6197 1.33108 10.5314 1.15885 10.4399C0.922087 10.3143 0.685729 10.1887 0.426783 10.0513C0.426783 10.4686 0.425169 10.8587 0.429606 11.2489C0.429606 11.278 0.4651 11.318 0.494948 11.3341C0.907567 11.5571 1.3222 11.7769 1.76507 12.0128L1.76588 12.0124ZM5.94773 12.4862C5.94773 12.9039 5.94532 13.294 5.95177 13.6838C5.95217 13.7184 6.00501 13.7619 6.04413 13.7839C6.21838 13.8813 6.39666 13.9719 6.57292 14.0654C6.80524 14.1886 7.03676 14.3123 7.28925 14.4461C7.28925 14.0304 7.29167 13.6406 7.28522 13.2505C7.28482 13.2159 7.2352 13.1712 7.19729 13.1504C6.96133 13.0201 6.72256 12.8948 6.48458 12.7684C6.31397 12.6782 6.14295 12.5887 5.94773 12.4858V12.4862ZM9.05509 1.52347C8.60294 1.76409 8.18387 1.9843 7.76923 2.21197C7.73535 2.23042 7.71599 2.29912 7.71518 2.34504C7.70994 2.60451 7.71276 2.86398 7.71276 3.12344C7.71276 3.23728 7.71276 3.35111 7.71276 3.48575C8.15483 3.25102 8.56946 3.03198 8.98168 2.80902C9.01475 2.79096 9.05186 2.74465 9.05226 2.71089C9.0571 2.32502 9.05549 1.93916 9.05549 1.52307L9.05509 1.52347ZM5.94733 6.95891C5.94733 7.37931 5.94451 7.76557 5.95177 8.15182C5.95258 8.1899 6.00824 8.23897 6.05059 8.26213C6.39706 8.45054 6.74635 8.63425 7.09484 8.81913C7.15413 8.85054 7.21423 8.88076 7.28966 8.91923C7.28966 8.51178 7.29127 8.13023 7.28724 7.74869C7.28724 7.71336 7.26061 7.66155 7.23036 7.64545C6.81492 7.41935 6.39625 7.19835 5.94733 6.9593V6.95891ZM14.5748 10.078C14.5506 10.078 14.5393 10.0745 14.5317 10.0784C14.1211 10.2947 13.7101 10.511 13.3011 10.7308C13.272 10.7465 13.239 10.7873 13.2386 10.8171C13.2345 11.2069 13.2357 11.5967 13.2357 12.0124C13.6782 11.7773 14.1001 11.5539 14.52 11.3278C14.5454 11.3141 14.572 11.276 14.572 11.2489C14.5752 10.8591 14.5744 10.469 14.5744 10.0784L14.5748 10.078ZM7.71236 14.4477C8.15361 14.2134 8.56825 13.9959 8.97805 13.771C9.01798 13.749 9.05025 13.6799 9.05226 13.6316C9.05993 13.4071 9.05589 13.1826 9.05589 12.9576C9.05589 12.8093 9.05589 12.6605 9.05589 12.4838C8.60455 12.7241 8.18306 12.947 7.76399 13.1743C7.73737 13.1888 7.71518 13.2352 7.71478 13.267C7.71155 13.6516 7.71276 14.0363 7.71276 14.4473L7.71236 14.4477Z" fill="#410EAD"/>
</svg>
