<svg width="15" height="15" viewBox="0 0 15 15" fill="none" xmlns="http://www.w3.org/2000/svg">
<path d="M0 14.18C0 9.72681 0 5.27358 0 0.820352C0.0066512 0.813307 0.0164324 0.807828 0.0191712 0.799608C0.201883 0.234834 0.521923 0 1.10958 0C5.37143 0 9.63328 -6.56847e-08 13.8955 0.000391324C13.9832 0.000391324 14.0724 -0.000391496 14.158 0.0148727C14.6796 0.108023 14.9981 0.508806 14.9981 1.06888C14.9981 5.05793 14.9981 9.04697 14.9981 13.036C14.9981 13.3632 15.0035 13.6904 14.9961 14.0172C14.9883 14.3624 14.8396 14.6415 14.5485 14.8282C14.428 14.9053 14.2829 14.9436 14.1487 15H0.849397C0.540312 14.9233 0.283654 14.7714 0.127546 14.4841C0.0755106 14.3879 0.0418634 14.2814 0 14.1796V14.18ZM14 14.4947C14.3325 14.4697 14.4992 14.2708 14.4992 13.9162C14.4992 10.1663 14.4992 6.41644 14.4992 2.66654C14.4992 2.61487 14.4992 2.56282 14.4992 2.50568H0.49884V2.6998C0.49884 6.42544 0.49884 10.1507 0.49884 13.8763C0.49884 13.9299 0.496492 13.984 0.500796 14.0372C0.522706 14.2955 0.718329 14.4787 0.997679 14.4932C0.997679 14.4399 0.997679 14.3871 0.997679 14.3339C0.997679 13.6501 0.996506 12.9667 0.998462 12.283C0.999244 12.0043 1.14479 11.8243 1.41397 11.7566C1.44018 11.7499 1.46678 11.744 1.4883 11.7386C1.49261 11.7162 1.49613 11.7068 1.49613 11.6975C1.49691 10.1155 1.49769 8.53346 1.49456 6.95147C1.49456 6.90059 1.46639 6.83796 1.4304 6.80039C1.18978 6.54716 1.05441 6.24853 1.0059 5.90372C0.978508 5.71155 1.03407 5.58239 1.20621 5.47789C1.76922 5.13659 2.32361 4.78043 2.88466 4.43601C2.97191 4.38239 3.00399 4.32368 2.9993 4.22505C2.99226 4.07397 2.99617 3.9225 2.99812 3.77104C3.00047 3.55734 3.06894 3.36908 3.2227 3.21644C3.39367 3.04697 3.60495 2.99648 3.83852 2.99648C6.27951 2.99804 8.7205 2.99726 11.1615 2.99726C11.1857 2.99726 11.2104 2.99726 11.2347 2.99765C11.6807 3.0137 11.9819 3.31194 11.9988 3.75851C12.0046 3.91468 12.0066 4.07123 11.998 4.22701C11.9925 4.32877 12.0316 4.38395 12.1161 4.43601C12.6893 4.78904 13.2578 5.14951 13.8302 5.50372C13.9573 5.58239 14.009 5.68571 13.9965 5.83288C13.9659 6.19061 13.8396 6.50646 13.5911 6.76673C13.525 6.83601 13.498 6.90294 13.498 6.99765C13.5004 8.53072 13.4996 10.0638 13.4996 11.5973C13.4996 11.645 13.4996 11.6928 13.4996 11.737C13.8701 11.8223 13.9984 11.982 13.9988 12.344C13.9988 12.5636 13.9988 12.7836 13.9988 13.0031V14.4932L14 14.4947ZM9.64384 10.0172C9.51591 9.77456 9.4713 9.54638 9.51903 9.2998C9.6235 8.76204 10.1576 8.41096 10.7084 8.52368C11.2476 8.63405 11.5981 9.1816 11.4745 9.72094C11.3501 10.2638 10.7882 10.636 10.2718 10.4568C10.0054 10.3644 9.87272 10.4427 9.72835 10.6227C9.68571 10.6759 9.6278 10.7162 9.58594 10.7699C9.55112 10.8149 9.5073 10.8697 9.50573 10.9209C9.49791 11.1926 9.50221 11.4642 9.50221 11.7421H12.0003V11.5781C12.0003 11.2215 12.0003 10.8654 12.0003 10.5088C12.0003 9.43953 12.0011 8.37025 11.9984 7.30098C11.9984 7.24892 11.9839 7.16477 11.9518 7.15068C11.6689 7.02701 11.4365 6.84266 11.2495 6.58395C10.9287 7.01448 10.5187 7.24618 9.99244 7.24501C9.467 7.24384 9.06089 7.0043 8.74711 6.58748C8.42785 7.01487 8.01782 7.24697 7.49081 7.24462C6.96732 7.24266 6.5616 7.0047 6.24821 6.58748C5.927 7.01526 5.51658 7.24657 4.98996 7.24462C4.46569 7.24266 4.06075 7.00156 3.74658 6.58591C3.57639 6.81644 3.38428 6.99687 3.13545 7.10059C3.02786 7.14521 2.9946 7.20039 2.99499 7.31624C2.9993 8.73699 2.99773 10.1581 2.99773 11.5789V11.7362H5.50171C5.50171 11.6215 5.50289 11.5194 5.50171 11.4172C5.49154 10.726 5.5827 10.9542 5.10421 10.4548C5.03926 10.3867 4.99074 10.3663 4.8945 10.4098C4.37923 10.6407 3.78101 10.3933 3.57287 9.87241C3.36198 9.34521 3.63077 8.74638 4.16326 8.55734C4.69927 8.36673 5.27948 8.65792 5.45242 9.20117C5.54201 9.48258 5.49584 9.74873 5.35578 10.0184C5.46728 10.1249 5.57331 10.2329 5.68716 10.3319C5.92191 10.5362 6.01894 10.791 6.00329 11.0998C5.99273 11.3119 6.00134 11.5252 6.00134 11.7362H7.24746C7.24746 11.0795 7.24941 10.4352 7.24237 9.791C7.24198 9.75108 7.17468 9.69511 7.12695 9.67476C6.68563 9.48728 6.4274 9.02896 6.51387 8.57417C6.60542 8.09237 7.0088 7.75068 7.49199 7.74521C7.97165 7.74012 8.3809 8.07749 8.48028 8.56086C8.57457 9.01918 8.31869 9.49041 7.86758 9.66967C7.77368 9.70685 7.74708 9.75421 7.74747 9.85088C7.75177 10.4368 7.74943 11.0227 7.75021 11.6086C7.75021 11.6509 7.75608 11.6932 7.75921 11.7378H8.99672C8.99672 11.5421 9.00885 11.3558 8.99398 11.1718C8.96464 10.8078 9.07888 10.5115 9.36254 10.2791C9.46035 10.1988 9.54799 10.1065 9.64345 10.0164L9.64384 10.0172ZM13.4875 14.4955V12.2603H1.50787V14.4955H13.4875ZM14.4992 1.99061C14.4992 1.69158 14.4992 1.409 14.4992 1.12642C14.4992 0.67319 14.3243 0.499021 13.8701 0.499021C9.62311 0.499021 5.37651 0.499021 1.12953 0.499021C1.08062 0.499021 1.03172 0.497456 0.983203 0.500196C0.741021 0.513503 0.525053 0.682583 0.510968 0.920548C0.490232 1.27397 0.505491 1.62975 0.505491 1.99061H14.4992ZM11.4995 4.24149C11.4995 4.1182 11.4995 4.00235 11.4995 3.88611C11.4995 3.56125 11.4377 3.49863 11.1157 3.49863C8.70524 3.49863 6.29477 3.49863 3.88391 3.49902C3.82092 3.49902 3.74697 3.4865 3.69689 3.51389C3.62608 3.55264 3.52905 3.61761 3.52083 3.68102C3.49736 3.86497 3.51261 4.05401 3.51261 4.2411H11.4995V4.24149ZM2.00749 7.18082V11.7374H2.48481V7.26106C2.3197 7.23327 2.1679 7.20744 2.00749 7.18043V7.18082ZM12.5113 7.26145V11.7366H12.9898V7.1816C12.8262 7.209 12.6744 7.23405 12.5113 7.26145ZM6.55573 5.49237H8.44232C8.39107 5.23796 8.34216 4.99648 8.29326 4.75303H6.7048C6.6555 4.99687 6.60699 5.23836 6.55573 5.49237ZM6.19226 4.74834C6.05533 4.74834 5.93482 4.74795 5.81393 4.74834C5.57957 4.74951 5.31939 4.68767 5.11868 4.77025C4.91797 4.85284 4.77673 5.07984 4.61006 5.24384C4.53259 5.32016 4.45669 5.39804 4.35379 5.50215C4.92267 5.50215 5.4485 5.50293 5.97434 5.49941C6.00212 5.49941 6.04868 5.46419 6.05454 5.43836C6.10345 5.21526 6.14531 4.991 6.19265 4.74834H6.19226ZM10.6028 5.50254C10.6071 5.49041 10.6114 5.47828 10.6161 5.46614C10.388 5.23953 10.1603 5.01252 9.93102 4.78748C9.91185 4.76869 9.88133 4.75068 9.8559 4.75068C9.51121 4.74834 9.16652 4.74912 8.80501 4.74912C8.85 4.97417 8.89656 5.17808 8.92982 5.38434C8.94429 5.47554 8.97833 5.50685 9.07067 5.5045C9.30502 5.49863 9.53938 5.50254 9.77374 5.50254C10.0503 5.50254 10.3266 5.50254 10.6032 5.50254H10.6028ZM6.55612 6.00783C6.60738 6.41487 7.04988 6.75342 7.51468 6.74638C7.96892 6.73973 8.40163 6.39609 8.43998 6.00783H6.55612ZM1.55481 6.009C1.62328 6.42113 2.0427 6.74481 2.49576 6.74677C2.9543 6.74834 3.3702 6.42818 3.44728 6.009H1.55521H1.55481ZM4.04667 6.00783C4.16952 6.48806 4.59911 6.78121 5.10068 6.74168C5.50954 6.7092 5.90978 6.36164 5.93952 6.00783H4.04667ZM9.05071 6.00783C9.14344 6.45245 9.57303 6.76399 10.0445 6.74481C10.4854 6.7272 10.8923 6.39491 10.9432 6.00783H9.05071ZM13.4405 6.01135H11.5496C11.6517 6.4591 12.0786 6.76791 12.5524 6.74442C12.9855 6.72329 13.3947 6.38748 13.4405 6.01135ZM2.17416 5.46771C2.17611 5.47906 2.17846 5.49041 2.18042 5.50176C2.65148 5.50176 3.12254 5.50215 3.5936 5.50059C3.62021 5.50059 3.65425 5.49002 3.67263 5.47202C3.90621 5.24031 4.13743 5.00626 4.39292 4.74873C4.02476 4.74873 3.69063 4.74834 3.35651 4.7499C3.33381 4.7499 3.30877 4.76047 3.28882 4.7726C2.91714 5.00391 2.54584 5.23601 2.17455 5.46771H2.17416ZM12.8188 5.50176L12.8298 5.46967C12.6283 5.34364 12.4131 5.23483 12.228 5.08806C11.8689 4.80235 11.4721 4.69002 11.0195 4.7456C10.8939 4.76086 10.7648 4.74795 10.5946 4.74795C10.8563 5.00783 11.0836 5.23522 11.3141 5.4591C11.3387 5.48297 11.3822 5.4998 11.417 5.4998C11.8841 5.50254 12.3517 5.50176 12.8188 5.50176ZM10.9952 9.49824C10.9944 9.22035 10.7687 8.9953 10.494 8.99883C10.2209 9.00235 9.99401 9.23522 9.99792 9.50763C10.0022 9.77691 10.2245 9.9953 10.4956 9.99569C10.7769 9.99648 10.996 9.77847 10.9952 9.49824ZM7.99787 8.74677C7.99591 8.46771 7.77368 8.25049 7.49277 8.25284C7.2142 8.25519 6.99628 8.47984 7.00136 8.7593C7.00606 9.02779 7.22946 9.24814 7.49864 9.2501C7.77094 9.25205 7.99943 9.02113 7.99787 8.74638V8.74677ZM4.50403 9.99569C4.77478 9.99452 4.997 9.77573 5.00092 9.50646C5.00483 9.23405 4.77712 9.00156 4.50403 8.99843C4.22938 8.9953 4.00402 9.22114 4.00363 9.49902C4.00363 9.77886 4.22273 9.99648 4.50443 9.99569H4.50403Z" fill="#410EAD"/>
<path d="M12.9861 1.4982C12.7522 1.4982 12.5186 1.49976 12.2846 1.49781C12.107 1.49624 12.0041 1.40426 12.0029 1.2524C12.0018 1.10094 12.1058 1.00074 12.2803 0.999958C12.7577 0.997218 13.235 0.997609 13.7123 0.999958C13.8825 1.00074 13.9967 1.10446 13.9983 1.2481C13.9999 1.39291 13.8872 1.49624 13.717 1.49781C13.4736 1.50015 13.2299 1.49859 12.9861 1.49859V1.4982Z" fill="#410EAD"/>
<path d="M1.38213 1.4964C1.33322 1.4964 1.28431 1.49992 1.23619 1.49562C1.10356 1.48466 1.00653 1.38642 1.00027 1.26078C0.9944 1.13789 1.08517 1.02047 1.21428 1.0052C1.31522 0.993071 1.41929 0.993854 1.52063 1.00286C1.65795 1.01538 1.75616 1.13319 1.74951 1.26078C1.74286 1.3919 1.64113 1.48818 1.49911 1.49718C1.46038 1.49953 1.42125 1.49718 1.38213 1.49718C1.38213 1.49718 1.38213 1.49679 1.38213 1.4964Z" fill="#410EAD"/>
<path d="M3.88109 1.49622C3.83258 1.49622 3.78328 1.49975 3.73516 1.49544C3.60057 1.48409 3.50784 1.3882 3.50315 1.25943C3.49806 1.13067 3.58257 1.02147 3.71559 1.00464C3.80676 0.992897 3.90065 0.995245 3.9926 0.999942C4.14401 1.00777 4.24652 1.10992 4.24769 1.24691C4.24926 1.39133 4.14479 1.49035 3.9836 1.4974C3.94956 1.49896 3.91552 1.4974 3.88148 1.4974C3.88148 1.49701 3.88148 1.49661 3.88148 1.49622H3.88109Z" fill="#410EAD"/>
<path d="M2.62585 1.49722C2.58203 1.49722 2.53821 1.49996 2.49439 1.49683C2.34924 1.48665 2.25573 1.39193 2.25299 1.25573C2.25025 1.12188 2.34298 1.01581 2.48382 1.0025C2.56599 0.994674 2.64932 0.996631 2.73188 1.00015C2.89503 1.0072 2.99558 1.10622 2.99479 1.25221C2.99362 1.39898 2.89307 1.49213 2.72796 1.498C2.69392 1.49918 2.65989 1.498 2.62585 1.498C2.62585 1.498 2.62585 1.49761 2.62585 1.49722Z" fill="#410EAD"/>
</svg>
