<svg width="17" height="15" viewBox="0 0 17 15" fill="none" xmlns="http://www.w3.org/2000/svg">
<path d="M3.98221 8.78831C3.98221 8.1969 3.98698 7.57122 3.97955 6.94606C3.9769 6.75012 4.05172 6.62324 4.22949 6.53013C4.50809 6.38381 4.77714 6.2201 5.05255 6.06816C5.24624 5.96124 5.42348 5.99449 5.52165 6.14899C5.6246 6.31014 5.56782 6.47948 5.36776 6.59715C5.23828 6.67338 5.10614 6.74602 4.94695 6.83606C5.01646 6.87852 5.06688 6.91178 5.11994 6.94094C6.17383 7.52723 7.22719 8.11505 8.2848 8.69571C8.35591 8.73459 8.48221 8.7525 8.54801 8.71771C9.66452 8.13449 10.7752 7.54155 11.8869 6.95015C11.914 6.93582 11.9384 6.91638 11.9814 6.88825C11.9241 6.85192 11.8832 6.82327 11.8397 6.79923C10.7524 6.19145 9.66346 5.58675 8.57932 4.97437C8.4631 4.90889 8.38138 4.91707 8.27578 4.98051C8.08474 5.09511 7.88787 5.19998 7.69099 5.30486C7.48775 5.41332 7.30096 5.37648 7.20703 5.21533C7.1131 5.05316 7.17466 4.88893 7.38056 4.77229C7.65438 4.61728 7.9335 4.47096 8.20414 4.31134C8.36493 4.21619 8.5098 4.22437 8.66847 4.3139C9.16517 4.59374 9.66558 4.86796 10.1644 5.14473C10.2265 5.17901 10.2896 5.21226 10.3952 5.26956C10.4324 5.00148 10.4881 4.76411 10.4934 4.52621C10.5072 3.93276 10.4982 3.33931 10.4977 2.74535C10.4966 1.77639 9.72289 0.923564 8.73533 0.802828C7.67985 0.673906 6.7029 1.29191 6.44765 2.25729C6.40732 2.41026 6.38344 2.57141 6.38132 2.72898C6.37389 3.30964 6.37495 3.89081 6.3792 4.47147C6.38716 5.65121 7.19164 6.47027 8.4111 6.54497C8.63344 6.55878 8.76133 6.67389 8.75868 6.85857C8.75603 7.04889 8.61859 7.15786 8.38032 7.15734C6.99317 7.15632 5.8236 6.06663 5.75461 4.65974C5.71694 3.88314 5.71906 3.10091 5.77159 2.32533C5.85968 1.04584 7.02926 0.0298087 8.3835 0.000647785C9.72607 -0.0285131 10.9312 0.930215 11.0904 2.19846C11.1551 2.71517 11.1302 3.24262 11.1323 3.76547C11.135 4.36915 11.1939 4.98051 10.9126 5.5627C11.4491 5.86199 11.9612 6.16741 12.4929 6.436C12.7912 6.58641 12.9212 6.77621 12.8883 7.10158C12.8612 7.37375 12.8856 7.65001 12.8814 7.92422C12.8782 8.13347 12.7487 8.26699 12.5625 8.26546C12.3762 8.26392 12.2536 8.1304 12.2472 7.91962C12.2451 7.84288 12.2472 7.76665 12.2472 7.68991C12.2472 7.62085 12.2472 7.55178 12.2472 7.46225C12.1772 7.49397 12.1241 7.51444 12.0742 7.54104C11.0097 8.10993 9.94683 8.68036 8.88126 9.24721C8.79158 9.29479 8.74701 9.34237 8.74754 9.45031C8.75231 10.6694 8.75072 11.8886 8.75125 13.1077C8.75125 13.1266 8.75603 13.1456 8.7608 13.1829C8.81175 13.1614 8.85898 13.1461 8.90143 13.123C9.97283 12.527 11.0432 11.929 12.1162 11.3366C12.2165 11.2813 12.2547 11.2204 12.2504 11.1109C12.2419 10.8879 12.2446 10.6643 12.2494 10.4408C12.2536 10.2423 12.3773 10.1128 12.5566 10.1077C12.7429 10.1021 12.8793 10.2361 12.8824 10.4423C12.8872 10.7615 12.8814 11.0808 12.8846 11.3995C12.8862 11.5688 12.789 11.6671 12.6484 11.7458C12.0934 12.0559 11.5404 12.3684 10.9439 12.7046C11.1132 12.8432 11.2507 12.9905 11.4194 13.0877C12.0721 13.4643 12.7232 13.8459 13.3961 14.1861C14.3582 14.6732 15.566 14.3094 16.1009 13.4029C16.6347 12.4989 16.3567 11.3253 15.4439 10.7697C14.8013 10.3783 14.1406 10.0115 13.4683 9.6703C12.5492 9.20372 11.4184 9.50607 10.8378 10.339C10.8049 10.3865 10.7747 10.4377 10.7343 10.4786C10.6128 10.6029 10.4669 10.6224 10.3225 10.5282C10.1787 10.4341 10.1225 10.2837 10.2228 10.1445C10.3878 9.91586 10.5581 9.68104 10.7709 9.49584C11.5956 8.77654 12.8034 8.62971 13.7862 9.13415C14.4574 9.47845 15.1186 9.84322 15.7661 10.2274C16.7313 10.8004 17.1845 11.9044 16.9303 12.9849C16.683 14.0347 15.7491 14.8451 14.6501 14.9781C14.0425 15.0512 13.4768 14.9407 12.9488 14.6532C12.3613 14.3335 11.7707 14.0173 11.1997 13.672C10.9063 13.4945 10.6526 13.2571 10.3538 13.0253C10.2631 13.075 10.132 13.1456 10.002 13.2177C9.56104 13.4627 9.11741 13.7047 8.68014 13.9564C8.51458 14.0516 8.36652 14.0613 8.19883 13.9631C7.90485 13.7912 7.6029 13.6316 7.30626 13.4638C7.10461 13.3497 7.04306 13.1783 7.13964 13.0177C7.23675 12.8565 7.41611 12.8253 7.62307 12.9353C7.77802 13.0177 7.93085 13.1026 8.10544 13.1977C8.10968 13.119 8.11552 13.0647 8.11552 13.01C8.11552 11.8354 8.11552 10.6613 8.11658 9.48663C8.11658 9.39045 8.11977 9.31218 8.0062 9.24977C6.90296 8.64353 5.80449 8.0291 4.70443 7.41775C4.68798 7.40854 4.66941 7.40342 4.63333 7.38961C4.62855 7.44333 4.62059 7.48988 4.62059 7.53592C4.62006 8.72334 4.62218 9.91023 4.61688 11.0976C4.61635 11.225 4.65721 11.2931 4.77236 11.3504C4.97773 11.4532 5.17619 11.5688 5.37413 11.6844C5.56251 11.7944 5.61664 11.9633 5.52112 12.1208C5.42719 12.2764 5.24359 12.3178 5.05573 12.215C4.76228 12.0543 4.47413 11.8855 4.18173 11.7233C4.03209 11.6404 3.98168 11.5182 3.98327 11.3565C3.98804 10.8076 3.98486 10.2586 3.98486 9.70969C3.98486 9.64011 3.98486 9.57054 3.98486 9.44929C3.76251 9.53114 3.55715 9.58128 3.37831 9.67746C2.73675 10.0213 2.09518 10.3666 1.47006 10.7375C0.530791 11.2951 0.23256 12.4447 0.764812 13.3691C1.29813 14.2951 2.49742 14.6742 3.4733 14.1877C4.15414 13.8485 4.81853 13.474 5.4654 13.0775C6.3256 12.5501 6.61693 11.4639 6.17596 10.5763C6.15579 10.5359 6.13456 10.4965 6.11493 10.4561C6.02259 10.2668 6.0677 10.0908 6.22849 10.0105C6.39353 9.92865 6.56758 9.99107 6.67796 10.1717C7.29883 11.1872 7.05314 12.5966 6.10538 13.3794C5.91116 13.54 5.68722 13.6705 5.46646 13.7973C4.9894 14.0721 4.50597 14.336 4.02413 14.6031C2.7532 15.3076 1.10656 14.8763 0.364694 13.6444C-0.381414 12.4058 0.054258 10.8122 1.33421 10.098C1.85532 9.8074 2.36847 9.50249 2.90072 9.23237C3.2361 9.06201 3.5996 8.94332 3.9838 8.78831H3.98221Z" fill="#410EAD"/>
</svg>
