<svg width="15" height="11" viewBox="0 0 15 11" fill="none" xmlns="http://www.w3.org/2000/svg">
<path d="M0 9.03966C0.058303 8.72533 0.119345 8.41177 0.174126 8.09667C0.296602 7.38884 0.414773 6.68025 0.536465 5.97204C0.546248 5.91632 0.557595 5.85599 0.586942 5.80911C0.64368 5.71881 0.732113 5.68115 0.838937 5.72073C0.955542 5.76415 1.00328 5.85292 0.983324 5.97204C0.915239 6.37821 0.844023 6.784 0.774764 7.18979C0.665984 7.82729 0.552117 8.46364 0.451163 9.1023C0.351774 9.73173 0.792764 10.36 1.43879 10.5276C2.08756 10.6959 2.78485 10.3665 3.01336 9.74633C3.31349 8.93245 3.58231 8.10704 3.86443 7.28663C3.87852 7.2459 3.89065 7.20439 3.90552 7.16405C3.97908 6.96499 4.11134 6.91773 4.29133 7.03416C4.64585 7.2628 5.03284 7.34465 5.43509 7.21938C5.64678 7.15329 5.83147 7.00649 6.03181 6.90197C6.1179 6.85701 6.21181 6.79707 6.30298 6.79592C7.09848 6.78746 7.89399 6.78785 8.68949 6.79592C8.78105 6.79668 8.891 6.84087 8.95948 6.90159C9.44977 7.33428 10.1212 7.39768 10.6769 7.05184C10.8995 6.91312 11.0169 6.95462 11.1018 7.20286C11.2173 7.53832 11.3331 7.87341 11.4469 8.20926C11.5033 8.37526 11.454 8.49477 11.3166 8.53704C11.1895 8.57623 11.087 8.5086 11.029 8.34337C10.9371 8.08091 10.8471 7.81807 10.7559 7.55562C10.7528 7.54678 10.7457 7.53948 10.7348 7.52257C10.4174 7.66398 10.0848 7.73161 9.73268 7.69549C9.36799 7.65783 9.04791 7.52218 8.75914 7.30277C8.70318 7.26011 8.62258 7.22668 8.55293 7.2263C7.85016 7.22092 7.14739 7.22169 6.44463 7.22514C6.38593 7.22514 6.31472 7.23936 6.27129 7.27395C5.655 7.76158 4.98627 7.82345 4.25377 7.52372C4.23381 7.57637 4.21073 7.63209 4.19155 7.68857C3.94621 8.40485 3.70752 9.12343 3.45435 9.83741C3.20588 10.5375 2.54381 10.9967 1.80387 11.0002C1.03419 11.004 0.368209 10.5568 0.109954 9.857C0.0637811 9.73212 0.0359991 9.6007 0 9.47197C0 9.32825 0 9.18415 0 9.04043V9.03966Z" fill="#410EAD"/>
<path d="M9.21747 2.05887H5.78777C5.72673 2.40202 5.87424 2.5784 6.21898 2.58032C6.4874 2.58147 6.75583 2.57724 7.02426 2.58224C7.20739 2.5857 7.30952 2.70828 7.26491 2.85968C7.23321 2.96728 7.14948 3.01301 7.04343 3.01301C6.71162 3.01301 6.37902 3.02377 6.04837 3.00225C5.64612 2.97573 5.31665 2.63834 5.33974 2.24293C5.35656 1.9578 5.22704 1.81024 5.01144 1.66653C3.62821 0.745819 1.72221 1.56008 1.46044 3.18516C1.35909 3.81421 1.24718 4.44133 1.13879 5.06923C1.11218 5.22255 1.0124 5.29864 0.877017 5.27712C0.750237 5.25714 0.67863 5.15992 0.704456 5.00775C0.824974 4.29954 0.923581 3.58634 1.08284 2.8862C1.27105 2.0604 1.80008 1.47631 2.57132 1.10703C2.66523 1.06207 2.70515 1.01558 2.69576 0.914897C2.68715 0.824594 2.69263 0.732754 2.69458 0.641682C2.70358 0.287002 2.97397 0.0137862 3.33474 0.00533229C3.62273 -0.00158456 3.91073 -0.00158456 4.19872 0.00533229C4.55754 0.0137862 4.85531 0.276242 4.82988 0.62439C4.80523 0.959857 4.89992 1.17428 5.22352 1.29302C5.30256 1.32222 5.37691 1.38217 5.43521 1.44442C5.5749 1.59505 5.74199 1.62541 5.94311 1.62349C7.0317 1.61504 8.11989 1.61849 9.20847 1.62118C9.30708 1.62118 9.37712 1.59198 9.45616 1.5328C9.64907 1.38793 9.8588 1.26535 10.0556 1.12548C10.1014 1.09281 10.1441 1.02941 10.1503 0.975612C10.1652 0.852646 10.1515 0.726605 10.1589 0.602486C10.1785 0.275473 10.4426 0.0160921 10.7764 0.00648534C11.0789 -0.00196858 11.3817 -0.00235285 11.6842 0.00648534C12.0203 0.0168606 12.3165 0.290844 12.293 0.620163C12.2707 0.932574 12.378 1.08398 12.6601 1.23999C13.4552 1.68036 13.859 2.39164 14.003 3.272C14.28 4.96894 14.579 6.66279 14.8686 8.35781C14.9096 8.59874 14.9542 8.83929 14.9867 9.081C15.1139 10.024 14.32 10.9509 13.3511 10.9954C12.4856 11.035 11.7914 10.5704 11.5148 9.76653C11.4572 9.59899 11.3982 9.43145 11.343 9.26314C11.2906 9.10329 11.3402 8.98762 11.4737 8.94727C11.6024 8.90808 11.7041 8.96841 11.7593 9.12212C11.8341 9.32962 11.8978 9.54135 11.9796 9.74578C12.2273 10.3656 12.9199 10.7011 13.5706 10.5228C14.2311 10.3422 14.649 9.71812 14.5379 9.05948C14.2037 7.08049 13.8774 5.09997 13.5217 3.12483C13.3687 2.27483 12.8401 1.68805 12.0086 1.40791C11.1818 1.12893 10.4211 1.29187 9.7555 1.85059C9.70581 1.89209 9.68076 1.97663 9.66981 2.04503C9.64907 2.17184 9.66394 2.30518 9.63381 2.4293C9.55868 2.74094 9.28282 2.98188 8.95882 3.00109C8.62309 3.02108 8.2858 3.01531 7.94928 3.01185C7.80529 3.01032 7.72351 2.92232 7.72272 2.79897C7.72194 2.67101 7.80842 2.5857 7.96141 2.58263C8.22475 2.57725 8.48849 2.5807 8.75222 2.58032C9.12121 2.57955 9.25034 2.43891 9.21786 2.05887H9.21747ZM3.13557 0.88454H4.39945C4.39945 0.82152 4.40415 0.731217 4.39828 0.641682C4.38967 0.512568 4.31376 0.439172 4.18229 0.437251C3.90525 0.433793 3.62821 0.434177 3.35118 0.437251C3.22596 0.438788 3.15122 0.510646 3.13753 0.62977C3.12735 0.718151 3.13557 0.808839 3.13557 0.884156V0.88454ZM11.8614 0.894531C11.8614 0.809607 11.8677 0.723915 11.8599 0.639376C11.8489 0.519869 11.7797 0.440709 11.6545 0.438404C11.3676 0.433024 11.0804 0.427644 10.7948 0.444168C10.7283 0.44801 10.6312 0.527938 10.6117 0.591727C10.5807 0.693174 10.6034 0.810376 10.6034 0.912208C10.8241 0.889536 11.026 0.854952 11.2287 0.852262C11.4353 0.849572 11.6423 0.878392 11.8611 0.894147L11.8614 0.894531Z" fill="#410EAD"/>
<path d="M3.04539 4.27787C2.58248 4.21446 2.31797 3.96238 2.31836 3.59079C2.31875 3.22036 2.58014 2.97135 3.03795 2.90411C3.14869 2.41224 3.36977 2.19167 3.74933 2.19436C4.12693 2.19667 4.34644 2.42069 4.44427 2.90218C4.92165 2.98365 5.16151 3.21114 5.16464 3.58541C5.16777 3.96277 4.93651 4.18603 4.44309 4.28171C4.35544 4.76051 4.12301 4.99145 3.73289 4.98723C3.3549 4.983 3.11386 4.73707 3.04539 4.27787ZM3.74698 4.55416C3.87767 4.55262 3.97589 4.46424 3.98567 4.33051C3.99232 4.23982 3.98449 4.14837 3.99036 4.05768C3.99975 3.91704 4.08114 3.84095 4.22514 3.83442C4.3077 3.83058 4.39105 3.83634 4.47361 3.8325C4.62152 3.82558 4.717 3.73566 4.72287 3.60271C4.72874 3.4636 4.63483 3.36062 4.48222 3.34909C4.39496 3.34256 4.30653 3.34947 4.21888 3.34601C4.08193 3.34025 4.0021 3.26724 3.99075 3.13313C3.9841 3.05205 3.99036 2.9702 3.98762 2.88912C3.98254 2.73349 3.89332 2.63358 3.75559 2.62705C3.61472 2.62013 3.50711 2.72273 3.49655 2.88028C3.49068 2.96597 3.49772 3.05282 3.49185 3.13851C3.48325 3.26801 3.4089 3.3391 3.27664 3.34563C3.18899 3.34986 3.10095 3.34332 3.0133 3.3487C2.86304 3.35793 2.75739 3.46322 2.75935 3.59425C2.76131 3.72644 2.86852 3.82673 3.01878 3.83327C3.09665 3.83634 3.1749 3.83173 3.25277 3.83442C3.40773 3.8398 3.48598 3.91435 3.49303 4.06421C3.49733 4.15029 3.4899 4.23713 3.49811 4.32244C3.51181 4.46616 3.61237 4.55569 3.74659 4.55416H3.74698Z" fill="#410EAD"/>
<path d="M8.95607 5.92019C8.9592 5.42333 9.3638 5.03329 9.87287 5.03714C10.3686 5.04098 10.7732 5.44024 10.7736 5.92672C10.7736 6.41589 10.3577 6.8236 9.85957 6.82168C9.35871 6.81976 8.95333 6.41513 8.95607 5.92057V5.92019ZM9.39628 5.92019C9.39354 6.1765 9.60601 6.38976 9.86309 6.389C10.1127 6.38861 10.3283 6.17957 10.333 5.93325C10.3377 5.68617 10.1296 5.47444 9.87639 5.46906C9.60914 5.46329 9.39901 5.66042 9.39628 5.92019Z" fill="#410EAD"/>
<path d="M6.03984 5.92956C6.03828 6.42373 5.62663 6.82529 5.12656 6.82068C4.63353 6.81645 4.22501 6.41374 4.22267 5.92994C4.22032 5.43885 4.63079 5.03613 5.1336 5.03613C5.6415 5.03613 6.04141 5.43078 6.03984 5.92956ZM5.13673 5.46805C4.87574 5.4669 4.66013 5.67709 4.66287 5.92994C4.66561 6.17472 4.88161 6.38645 5.13008 6.38838C5.38794 6.3903 5.6012 6.17856 5.59963 5.92226C5.59807 5.66902 5.3942 5.4692 5.13673 5.46767V5.46805Z" fill="#410EAD"/>
<path d="M13.1253 3.59407C13.1245 3.94299 12.8369 4.22389 12.4831 4.22158C12.1294 4.21966 11.8399 3.93415 11.8418 3.58908C11.8438 3.2417 12.1321 2.96272 12.4882 2.96387C12.8463 2.96502 13.1264 3.2417 13.1256 3.59369L13.1253 3.59407ZM12.4874 3.78659C12.5974 3.78582 12.6819 3.70436 12.6847 3.59676C12.6874 3.48225 12.6013 3.39656 12.4839 3.39733C12.3759 3.39809 12.2875 3.48186 12.284 3.586C12.2804 3.69552 12.3736 3.78736 12.4874 3.78659Z" fill="#410EAD"/>
<path d="M11.4025 4.02578C11.7609 4.02501 12.0426 4.30053 12.0434 4.65213C12.0438 5.00297 11.7617 5.28195 11.4052 5.28233C11.0511 5.2831 10.7619 5.00105 10.7607 4.65444C10.76 4.30744 11.0468 4.02616 11.4025 4.02539V4.02578ZM11.4083 4.45885C11.2933 4.45692 11.2017 4.54531 11.2037 4.65636C11.2053 4.76242 11.2909 4.84581 11.4001 4.84773C11.5171 4.85003 11.6044 4.76511 11.6028 4.6506C11.6012 4.54223 11.5187 4.46077 11.4087 4.45885H11.4083Z" fill="#410EAD"/>
<path d="M11.408 1.90176C11.7656 1.90329 12.0446 2.18112 12.043 2.5335C12.0411 2.88126 11.7511 3.16408 11.3994 3.16062C11.0472 3.15716 10.7576 2.86896 10.7608 2.52466C10.7643 2.17728 11.0523 1.89984 11.408 1.90137V1.90176ZM11.4072 2.33444C11.2921 2.33252 11.201 2.42091 11.2033 2.53273C11.2053 2.6384 11.2925 2.72371 11.3998 2.72563C11.5081 2.72755 11.5962 2.64647 11.6017 2.54003C11.6075 2.42475 11.5238 2.33637 11.4072 2.33444Z" fill="#410EAD"/>
<path d="M10.322 2.96387C10.6804 2.96387 10.9614 3.23977 10.9614 3.59138C10.9614 3.94068 10.6761 4.22196 10.322 4.22196C9.96866 4.22196 9.68027 3.93837 9.68066 3.59138C9.68066 3.24285 9.96631 2.96387 10.3224 2.96387H10.322ZM10.52 3.59099C10.52 3.47648 10.432 3.39348 10.3146 3.39694C10.205 3.4004 10.1228 3.4834 10.1228 3.59099C10.1228 3.69782 10.2058 3.78236 10.3146 3.78582C10.4304 3.78966 10.52 3.70474 10.52 3.59099Z" fill="#410EAD"/>
<path d="M6.51775 4.00043C6.62966 4.00043 6.74196 3.99659 6.85348 4.00159C6.97791 4.00697 7.05148 4.0746 7.06243 4.19795C7.073 4.31669 6.99669 4.41852 6.86952 4.42428C6.63631 4.43466 6.40232 4.43427 6.16911 4.42428C6.04115 4.41852 5.96641 4.31784 5.97307 4.19987C5.97972 4.08267 6.06189 4.00927 6.1965 4.00043C6.20628 3.99967 6.21606 3.99967 6.22584 3.99967C6.32328 3.99967 6.42071 3.99967 6.51775 3.99967C6.51775 3.99967 6.51775 4.00043 6.51775 4.00082V4.00043Z" fill="#410EAD"/>
<path d="M8.4773 4.43064C8.37517 4.43064 8.27265 4.43448 8.17052 4.42987C8.01948 4.42295 7.93262 4.34072 7.93262 4.21276C7.93262 4.0848 8.01753 4.00333 8.17131 4.00064C8.37556 3.99718 8.58021 3.99718 8.78447 4.00064C8.9359 4.00295 9.02355 4.0848 9.02316 4.21353C9.02316 4.34033 8.93433 4.42295 8.78368 4.42987C8.68156 4.43448 8.57943 4.43064 8.47691 4.43064H8.4773Z" fill="#410EAD"/>
</svg>
