<svg width="15" height="15" viewBox="0 0 15 15" fill="none" xmlns="http://www.w3.org/2000/svg">
<path d="M0.00039116 7.53111C0.0758977 7.45834 0.14045 7.3668 0.228476 7.31594C1.53126 6.55892 2.83913 5.8105 4.14073 5.05113C4.32578 4.94315 4.47523 4.9412 4.65363 5.05387C4.91262 5.21779 5.18335 5.36294 5.48577 5.53742C5.56519 5.30504 5.65321 5.09064 5.71072 4.86843C5.841 4.36414 5.85626 3.84655 5.86135 3.32856C5.86643 2.8231 5.94272 2.32859 6.11682 1.8509C6.57885 0.581767 7.67194 -0.107573 9.01736 0.0137071C9.67071 0.072391 10.2865 0.230055 10.8131 0.642798C11.4637 1.15217 11.7806 1.85051 11.9218 2.64196C11.957 2.83836 11.9715 3.03867 11.9895 3.23741C11.9969 3.31878 12.0181 3.36534 12.1084 3.3892C12.387 3.46197 12.6276 3.60751 12.8416 3.7996C13.3827 4.2855 13.9237 4.7714 14.4675 5.25457C14.8286 5.57577 15.0016 5.97403 15 6.4572C14.9961 7.70677 14.9988 8.95635 14.9984 10.2059C14.9984 10.245 15.0004 10.2842 14.9961 10.3229C14.9785 10.4813 14.8541 10.5921 14.6995 10.5893C14.5509 10.5866 14.4323 10.4782 14.4151 10.326C14.4096 10.2779 14.4124 10.2286 14.4124 10.1797C14.4124 8.94461 14.4088 7.7099 14.4147 6.4748C14.4163 6.14343 14.2993 5.88288 14.0517 5.66536C13.52 5.19823 12.9977 4.72015 12.4656 4.25381C12.3361 4.14036 12.1828 4.05468 12.0028 3.93027C11.9813 4.16266 11.9594 4.34379 11.9527 4.52532C11.9516 4.5531 12.0169 4.58792 12.056 4.61218C12.3956 4.82461 12.5517 5.21818 12.4465 5.60159C12.3447 5.97051 11.9966 6.23772 11.6116 6.24163C11.2067 6.24593 10.8471 5.96973 10.7505 5.58046C10.6503 5.17789 10.8319 4.76162 11.2043 4.58518C11.3248 4.52806 11.3706 4.46038 11.3725 4.33441C11.3745 4.20413 11.3948 4.07424 11.4093 3.9244C11.1492 3.95218 10.95 4.06172 10.7728 4.21743C10.5201 4.44004 10.2701 4.66577 10.0189 4.89034C9.72431 5.15402 9.43246 5.42084 9.13434 5.68061C8.89843 5.8864 8.78654 6.13796 8.78654 6.45211C8.78967 8.97552 8.78811 11.4993 8.78811 14.0227C8.78811 14.3201 8.88317 14.4132 9.18481 14.4136C10.7959 14.4136 12.4069 14.4136 14.018 14.4136C14.3189 14.4136 14.412 14.3204 14.4124 14.0204C14.4124 13.6788 14.4116 13.3369 14.4124 12.9954C14.4132 12.7774 14.52 12.6495 14.7007 12.6472C14.8865 12.6448 14.9973 12.7759 14.9976 13.0016C14.9984 13.3529 14.9984 13.7047 14.9976 14.056C14.9969 14.5399 14.7688 14.8423 14.3036 14.9785C14.2899 14.9824 14.2782 14.9922 14.2657 14.9996H8.93442C8.9219 14.9926 8.90978 14.9828 8.89608 14.9789C8.4317 14.8427 8.20283 14.5395 8.20205 14.0571C8.20166 13.696 8.20205 13.3353 8.20127 12.9742C8.20127 12.9394 8.19423 12.9042 8.18953 12.8573C7.93836 13.002 7.70206 13.1374 7.46615 13.2739C6.47127 13.849 5.47638 14.4245 4.48149 15H4.30583C4.29918 14.993 4.2941 14.984 4.28627 14.9793C2.92872 14.1968 1.56999 13.4163 0.214392 12.6303C0.130669 12.5818 0.0708119 12.493 0 12.4226C0 10.7924 0 9.16174 0 7.5315L0.00039116 7.53111ZM5.04642 6.02098C5.04525 6.00025 5.04447 5.9799 5.04329 5.95917C4.86215 5.85471 4.67828 5.75416 4.50066 5.64384C4.42398 5.5965 4.36686 5.59846 4.28901 5.64384C3.09538 6.33553 1.89979 7.02487 0.703033 7.71147C0.617746 7.76037 0.583318 7.81319 0.583709 7.9153C0.587621 9.29163 0.58723 10.6676 0.583709 12.0439C0.583709 12.1394 0.612268 12.1902 0.694817 12.2376C1.88766 12.9214 3.07856 13.6084 4.26788 14.2981C4.35904 14.351 4.42516 14.3541 4.51827 14.3001C5.70759 13.61 6.89888 12.9234 8.09211 12.2403C8.18288 12.1883 8.20401 12.1284 8.20401 12.0314C8.20127 10.6699 8.20049 9.30806 8.20518 7.94659C8.20557 7.82453 8.17271 7.75802 8.06356 7.69582C7.28736 7.25569 6.51469 6.8093 5.74437 6.35939C5.64774 6.30305 5.59023 6.31127 5.50611 6.38169C5.18922 6.64616 4.81403 6.75218 4.40638 6.75062C4.23267 6.74983 4.11139 6.63599 4.10239 6.47754C4.09379 6.32457 4.19824 6.20016 4.35982 6.17512C4.41772 6.16612 4.47836 6.17121 4.53431 6.15752C4.70566 6.11527 4.87546 6.06675 5.04564 6.02059L5.04642 6.02098ZM11.416 3.31722C11.3882 3.10283 11.3722 2.89469 11.3334 2.69087C11.2059 2.01796 10.9316 1.42799 10.3448 1.02816C9.94261 0.753906 9.48566 0.651014 9.00915 0.600937C7.88203 0.483178 7.01077 1.03363 6.64223 2.10559C6.50609 2.50151 6.44975 2.91113 6.44701 3.32739C6.44114 4.18496 6.38324 5.03235 5.9791 5.82224C6.71774 6.24789 7.45051 6.66963 8.20283 7.10311C8.20283 6.87307 8.20635 6.66963 8.20205 6.4662C8.19227 5.97755 8.37145 5.57537 8.73725 5.25144C9.28848 4.7628 9.83581 4.26985 10.3847 3.77886C10.6261 3.56291 10.907 3.42363 11.2223 3.3536C11.2787 3.34108 11.3354 3.33208 11.416 3.31722ZM11.5995 5.07226C11.4434 5.07304 11.3123 5.20175 11.3088 5.35785C11.3053 5.51943 11.4402 5.65636 11.6014 5.65597C11.7571 5.65518 11.889 5.52608 11.8921 5.37037C11.8956 5.20919 11.7606 5.07187 11.5991 5.07265L11.5995 5.07226Z" fill="#410EAD"/>
<path d="M11.2952 8.1599C11.3386 7.7988 11.4078 7.69513 11.6019 7.6963C11.7948 7.69747 11.88 7.82188 11.9 8.13525C12.015 8.17829 12.1355 8.21545 12.2486 8.26788C12.4411 8.35708 12.5099 8.51787 12.4383 8.68297C12.3679 8.84455 12.2005 8.89071 12.0041 8.83242C11.8343 8.78195 11.6559 8.7397 11.4802 8.73539C11.2893 8.73109 11.1547 8.87976 11.1168 9.07576C11.0859 9.23577 11.1355 9.34375 11.3214 9.43608C11.5299 9.53976 11.7459 9.63052 11.9642 9.71346C12.4958 9.91533 12.7697 10.2522 12.772 10.7236C12.7744 11.2263 12.4669 11.6555 11.9661 11.8484C11.9438 11.857 11.9223 11.8675 11.902 11.8762C11.8675 12.2599 11.7998 12.3726 11.6038 12.3746C11.409 12.3765 11.339 12.2729 11.3002 11.9544C11.0616 11.8558 10.8335 11.7764 10.6195 11.6684C10.4302 11.573 10.3816 11.3926 10.4728 11.2416C10.5663 11.0874 10.7353 11.0546 10.9188 11.1723C11.1598 11.3269 11.4215 11.35 11.6923 11.312C11.9567 11.2748 12.1594 11.0499 12.1836 10.7858C12.2036 10.5687 12.0968 10.4028 11.8742 10.3089C11.6097 10.1974 11.3405 10.0961 11.0808 9.97402C10.7991 9.84139 10.5941 9.63678 10.5405 9.31128C10.4591 8.81833 10.7306 8.35708 11.2032 8.19159C11.2345 8.18064 11.2662 8.17007 11.2948 8.1599H11.2952Z" fill="#410EAD"/>
<path d="M14.7054 11.3291C14.8665 11.3291 14.9953 11.4551 14.9972 11.6143C14.9992 11.7782 14.8626 11.912 14.6975 11.9077C14.5383 11.9038 14.4108 11.7724 14.4131 11.6139C14.4151 11.4547 14.5442 11.3291 14.7054 11.3291Z" fill="#410EAD"/>
<path d="M1.90422 10.1402C1.90422 10.4571 1.905 10.7736 1.90422 11.0905C1.90344 11.3065 1.79429 11.4352 1.61432 11.4371C1.43318 11.4387 1.31934 11.31 1.31895 11.0964C1.31816 10.3503 1.31816 9.60425 1.31895 8.85819C1.31895 8.6747 1.40032 8.55773 1.5439 8.52682C1.6957 8.49435 1.81306 8.55694 1.89483 8.72165C2.08497 9.10427 2.27275 9.48767 2.49028 9.86716C2.49028 9.72006 2.49028 9.57257 2.49028 9.42546C2.49028 9.22085 2.48676 9.01585 2.49184 8.81124C2.49614 8.63284 2.62095 8.51391 2.788 8.51665C2.94918 8.519 3.0646 8.6348 3.07516 8.80655C3.07751 8.84528 3.07594 8.8844 3.07594 8.92352C3.07594 9.60113 3.07594 10.2791 3.07594 10.9567C3.07594 11.0005 3.07712 11.0447 3.07438 11.0882C3.06381 11.2509 2.97422 11.3683 2.8369 11.4023C2.68745 11.4391 2.55522 11.3792 2.4758 11.2231C2.31266 10.902 2.15617 10.5776 1.99616 10.2545C1.97542 10.2126 1.95234 10.1723 1.93004 10.1312C1.92143 10.1344 1.91283 10.1375 1.90422 10.1406V10.1402Z" fill="#410EAD"/>
<path d="M4.25501 9.0992V9.66491C4.42754 9.66491 4.60086 9.661 4.77417 9.66608C4.91814 9.67038 5.01008 9.74902 5.04529 9.88869C5.07815 10.019 5.02103 10.1535 4.90054 10.2075C4.84068 10.2345 4.76947 10.2447 4.70297 10.2474C4.55782 10.2533 4.41189 10.2494 4.24797 10.2494C4.24797 10.5362 4.25345 10.8124 4.24484 11.0886C4.2421 11.1715 4.21863 11.265 4.17364 11.3327C4.10126 11.4419 3.9792 11.461 3.85909 11.4207C3.73038 11.3777 3.66465 11.2772 3.66309 11.1414C3.66074 10.8828 3.66191 10.6246 3.66191 10.366C3.66191 9.86874 3.66152 9.3711 3.66191 8.87385C3.66191 8.61955 3.76246 8.51627 4.01324 8.51431C4.27184 8.51236 4.53044 8.51197 4.78865 8.51431C4.99482 8.51627 5.12275 8.62738 5.1251 8.79991C5.12784 8.97166 5.00069 9.09137 4.79764 9.09763C4.62237 9.10311 4.4471 9.0988 4.25423 9.0988L4.25501 9.0992Z" fill="#410EAD"/>
<path d="M6.88257 9.0967C6.88257 9.34473 6.88257 9.56852 6.88257 9.79191C6.88257 10.2262 6.88375 10.6608 6.88218 11.0951C6.8814 11.3095 6.76755 11.4382 6.58681 11.437C6.40645 11.4358 6.29769 11.3075 6.2973 11.0908C6.29652 10.4855 6.2973 9.88032 6.2973 9.2751C6.2973 9.22267 6.2973 9.16986 6.2973 9.09709C6.19167 9.09709 6.10012 9.10257 6.00936 9.09592C5.82666 9.08222 5.70968 8.96055 5.71398 8.79741C5.71829 8.63349 5.83917 8.51768 6.02462 8.51573C6.40528 8.51182 6.78633 8.51142 7.16699 8.51612C7.34344 8.51807 7.46159 8.63231 7.46941 8.79076C7.47763 8.9539 7.36183 9.08027 7.18108 9.09513C7.08914 9.10257 6.99642 9.09631 6.88375 9.09631L6.88257 9.0967Z" fill="#410EAD"/>
<path d="M4.40179 7.34244C4.89982 7.34244 5.39785 7.34244 5.89549 7.34244C5.94909 7.34244 6.00347 7.34166 6.05589 7.34988C6.19321 7.37139 6.2918 7.48524 6.29728 7.62217C6.30236 7.75832 6.2116 7.88351 6.07741 7.91207C6.01129 7.92615 5.94165 7.92733 5.87358 7.92733C4.8873 7.92811 3.90141 7.92811 2.91513 7.92733C2.85175 7.92733 2.78759 7.92615 2.72578 7.91481C2.58181 7.8882 2.48596 7.76497 2.49143 7.62217C2.49691 7.47976 2.60059 7.36318 2.7469 7.34831C2.83884 7.33892 2.93195 7.34244 3.02468 7.34244C3.48358 7.34205 3.94249 7.34244 4.4014 7.34244H4.40179Z" fill="#410EAD"/>
<path d="M4.38634 12.6149C3.8934 12.6149 3.40006 12.6156 2.90712 12.6141C2.83904 12.6141 2.7694 12.6121 2.70368 12.5973C2.57614 12.5679 2.48929 12.4466 2.49124 12.316C2.4932 12.179 2.59022 12.0613 2.72598 12.0382C2.7784 12.0292 2.83278 12.0296 2.88638 12.0296C3.89222 12.0292 4.89767 12.0292 5.90352 12.0296C5.95711 12.0296 6.01149 12.0292 6.06392 12.0382C6.19928 12.0621 6.29631 12.1806 6.29748 12.3171C6.29865 12.4474 6.21102 12.5687 6.08387 12.5977C6.01814 12.6125 5.94851 12.6141 5.88043 12.6145C5.3824 12.6156 4.88437 12.6153 4.38673 12.6153L4.38634 12.6149Z" fill="#410EAD"/>
</svg>
