<svg width="20" height="15" viewBox="0 0 20 15" fill="none" xmlns="http://www.w3.org/2000/svg">
<path d="M18.9904 5.24462V0.0500354C19.313 0.0333569 19.597 0.0197109 19.9652 0C19.9776 0.295664 19.9969 0.536743 19.9969 0.777823C19.9982 4.99596 19.9996 9.21409 19.9969 13.4337C19.9969 14.7392 19.7666 14.9939 18.6002 14.997C17.6585 15 16.7169 15.0061 15.7766 14.9939C14.8735 14.9818 14.5661 14.6513 14.5633 13.6779C14.5564 11.3535 14.555 9.03063 14.5633 6.70626C14.5675 5.60548 14.8956 5.2522 15.88 5.24765C16.8851 5.2431 17.8902 5.24765 18.9904 5.24765V5.24462ZM18.9904 6.42424C17.955 6.42424 16.994 6.38937 16.0385 6.45456C15.851 6.46669 15.5381 6.86394 15.5339 7.08835C15.494 9.08521 15.505 11.0836 15.5133 13.0805C15.516 13.6263 15.7835 13.9174 16.2936 13.9144C16.9375 13.9114 17.5813 13.9038 18.2238 13.9114C18.7464 13.9174 18.9863 13.6157 18.9876 13.0714C18.9932 10.8971 18.9904 8.72435 18.9904 6.42424Z" fill="#410EAD"/>
<path d="M4.03138 6.41049C2.99321 6.41049 2.09979 6.42565 1.20638 6.40594C0.446706 6.38926 0.169583 6.12696 0 5.24452C0.602502 5.24452 1.1857 5.24452 1.7689 5.24452C2.61819 5.24452 3.46886 5.22177 4.31816 5.2521C5.21708 5.28545 5.5728 6.03295 5.09438 6.86081C3.88662 8.94865 2.66645 11.0274 1.45317 13.1122C1.32219 13.3366 1.20362 13.5701 1.0175 13.9158C2.17011 13.9158 3.19726 13.9067 4.22303 13.9188C4.79795 13.9249 5.25845 14.1159 5.30257 14.959C3.76667 14.959 2.25973 15.009 0.758297 14.9362C0.0537701 14.9013 -0.176476 14.1842 0.20543 13.4837C1.33736 11.4034 2.47756 9.32922 3.61225 7.252C3.73909 7.02001 3.84939 6.77742 4.03276 6.41049H4.03138Z" fill="#410EAD"/>
<path d="M12.6694 9.61133V10.6045H7.31445V9.61133H12.6694Z" fill="#410EAD"/>
<path d="M7.30859 6.37873C7.35685 5.64185 7.74151 5.28402 8.32195 5.26128C9.44561 5.21882 10.572 5.22792 11.6957 5.25824C12.2913 5.27341 12.5753 5.68885 12.6429 6.37873H7.30859Z" fill="#410EAD"/>
<path d="M7.30021 13.9531H12.6248C12.6386 14.5915 12.3532 14.9508 11.8293 14.966C10.5926 15.0008 9.35312 14.9993 8.11641 14.9599C7.6311 14.9447 7.33605 14.6066 7.29883 13.9531H7.30021Z" fill="#410EAD"/>
</svg>
