<svg width="294" height="148" viewBox="0 0 294 148" fill="none" xmlns="http://www.w3.org/2000/svg">
<path d="M23.4643 91.9184C23.4429 92.1752 23.3894 92.5176 23.3038 92.9456C23.2396 93.3736 23.1433 93.823 23.0149 94.2938C22.9079 94.7431 22.7902 95.1818 22.6618 95.6098C22.5548 96.0378 22.4479 96.3588 22.3409 96.5728C22.2125 97.1292 21.9878 97.7818 21.6668 98.5308C21.3672 99.2798 21.0141 100.061 20.6075 100.874C20.2223 101.666 19.7943 102.458 19.3236 103.249C18.8742 104.02 18.4462 104.705 18.0396 105.304C17.8256 105.796 17.5474 106.17 17.205 106.427C16.8626 106.663 16.5309 106.877 16.21 107.069C16.1458 107.026 16.0067 106.823 15.7927 106.459C15.6001 106.074 15.3754 105.635 15.1186 105.143C14.8832 104.651 14.6371 104.148 14.3803 103.635C14.1449 103.1 13.963 102.661 13.8346 102.318C13.3853 101.912 12.9359 101.184 12.4865 100.136L11.5235 97.8888C11.5021 97.953 11.4486 98.1242 11.363 98.4024C11.2774 98.6592 11.1704 98.9802 11.042 99.3654C10.935 99.7506 10.8066 100.179 10.6568 100.649C10.5284 101.099 10.3894 101.527 10.2396 101.933C10.1112 102.34 9.99347 102.714 9.88647 103.057C9.77947 103.378 9.69388 103.602 9.62968 103.731C9.26589 104.48 8.9663 105.079 8.73091 105.528C8.51692 105.956 8.32432 106.288 8.15313 106.523C8.00333 106.759 7.85354 106.941 7.70374 107.069C7.55395 107.176 7.37205 107.294 7.15806 107.422C6.92267 107.294 6.64448 107.026 6.32349 106.62C6.0239 106.192 5.73501 105.721 5.45682 105.207C5.20003 104.694 4.97533 104.191 4.78274 103.699C4.59015 103.207 4.48315 102.811 4.46175 102.511L2.34322 97.1827C2.32182 96.9045 2.26832 96.6156 2.18273 96.316C2.11853 95.995 2.04363 95.6847 1.95803 95.3851C1.87244 95.0641 1.78684 94.7538 1.70124 94.4543C1.63705 94.1333 1.60495 93.8337 1.60495 93.5555C1.60495 93.0847 1.71194 92.7423 1.92594 92.5283C2.13993 92.2929 2.39672 92.1752 2.69631 92.1752C3.16709 92.1752 3.60578 92.4106 4.01237 92.8814V93.1061C4.01237 93.2987 4.03377 93.6411 4.07656 94.1333C4.14076 94.6254 4.20496 95.1176 4.26916 95.6098C4.35476 96.102 4.41895 96.53 4.46175 96.8938C4.52595 97.2362 4.55805 97.3646 4.55805 97.279C4.79344 97.8567 5.03953 98.4773 5.29632 99.1407C5.55312 99.7827 5.80991 100.478 6.0667 101.227C6.21649 101.869 6.56958 102.8 7.12596 104.02C7.16876 103.998 7.25436 103.838 7.38275 103.538C7.51115 103.217 7.65025 102.875 7.80004 102.511C7.94984 102.126 8.08893 101.784 8.21733 101.484C8.34572 101.163 8.43132 100.981 8.47412 100.938C8.51692 100.681 8.59181 100.371 8.69881 100.007C8.82721 99.6436 8.9556 99.2905 9.084 98.9481C9.21239 98.6057 9.33009 98.3061 9.43709 98.0493C9.54408 97.7711 9.60828 97.5999 9.62968 97.5357C9.75808 96.5728 9.96137 95.8024 10.2396 95.2246C10.2182 95.1604 10.2075 95.0534 10.2075 94.9036C10.2075 94.3473 10.6033 94.0691 11.3951 94.0691C11.6519 94.0691 11.8552 94.1761 12.005 94.3901C12.1762 94.604 12.3153 94.8608 12.4223 95.1604C12.5507 95.4386 12.6577 95.7275 12.7433 96.0271C12.8289 96.3053 12.9145 96.53 13.0001 96.7012L13.8346 98.4987C14.07 99.0123 14.284 99.4403 14.4766 99.7827C14.6906 100.104 14.8725 100.35 15.0223 100.521C15.1935 100.928 15.4182 101.398 15.6964 101.933C15.9746 102.447 16.2956 103.014 16.6593 103.635C16.8733 103.399 17.1194 103.078 17.3976 102.672C17.6758 102.244 17.9754 101.698 18.2964 101.035C18.6174 100.35 18.9598 99.5152 19.3236 98.5308C19.6873 97.5464 20.0511 96.3802 20.4149 95.032C20.9713 93.0205 21.3886 91.7793 21.6668 91.3086C21.7524 91.2872 21.8273 91.2765 21.8915 91.2765C21.9771 91.2551 22.0734 91.2444 22.1804 91.2444C22.7795 91.2444 23.2075 91.4691 23.4643 91.9184ZM37.5535 106.716C36.8687 107.401 36.0662 107.989 35.1461 108.481C34.2259 108.974 33.2843 109.22 32.3214 109.22C31.9148 109.22 30.9839 109.07 29.5288 108.77C29.1436 108.514 28.737 108.193 28.309 107.807C27.881 107.422 27.4851 106.984 27.1213 106.491C26.779 105.978 26.4901 105.443 26.2547 104.886C26.0407 104.309 25.9337 103.709 25.9337 103.089V103.121C25.9551 102.928 25.9765 102.704 25.9979 102.447C26.0193 102.211 26.0407 101.944 26.0621 101.644C26.0835 101.323 26.1156 100.949 26.1584 100.521C26.5864 99.8362 27.025 99.1621 27.4744 98.4987C27.9452 97.8353 28.63 97.2469 29.5288 96.7333C30.8983 96.4123 31.9255 96.2518 32.6103 96.2518C32.9312 96.2518 33.2094 96.2732 33.4448 96.316C33.7016 96.3374 33.937 96.4123 34.151 96.5407C34.3864 96.6477 34.6111 96.7975 34.8251 96.9901C35.0605 97.1827 35.3387 97.4395 35.6597 97.7604C35.895 98.0172 36.0769 98.2098 36.2053 98.3382C36.3337 98.4452 36.43 98.5308 36.4942 98.595C36.5584 98.6592 36.5905 98.7127 36.5905 98.7555C36.5905 98.7983 36.5905 98.8625 36.5905 98.9481C36.5905 99.7185 36.5049 100.339 36.3337 100.81C36.1839 101.281 35.8843 101.666 35.435 101.965C35.007 102.265 34.4078 102.532 33.6374 102.768C32.867 102.982 31.872 103.228 30.6522 103.506H30.4596C30.0744 103.506 29.3897 103.592 28.4053 103.763C29.1757 106.031 30.4061 107.165 32.0967 107.165C33.295 107.165 34.6539 106.556 36.1732 105.336C36.323 105.207 36.5156 105.143 36.751 105.143C37.4144 105.143 37.7461 105.464 37.7461 106.106C37.7461 106.32 37.6819 106.523 37.5535 106.716ZM34.472 99.5259C33.8942 98.5629 33.2415 98.0814 32.514 98.0814C32.193 98.0814 31.8506 98.1242 31.4868 98.2098C31.123 98.2954 30.7699 98.4131 30.4275 98.5629C30.1065 98.7127 29.7963 98.8946 29.4967 99.1086C29.2185 99.3226 28.9831 99.5687 28.7905 99.8469C28.7049 100.018 28.6193 100.264 28.5337 100.585C28.4695 100.906 28.3839 101.291 28.2769 101.741C28.8547 101.634 29.486 101.559 30.1707 101.516C30.8769 101.473 31.5403 101.388 32.1609 101.259C32.8029 101.131 33.3378 100.938 33.7658 100.681C34.1938 100.425 34.4292 100.039 34.472 99.5259ZM67.9018 96.958C67.6664 97.0222 67.4203 97.0543 67.1635 97.0543C66.7997 97.0543 66.5001 97.0436 66.2647 97.0222C66.0507 97.0008 65.8046 96.9794 65.5265 96.958C65.2697 96.9152 64.9166 96.8831 64.4672 96.8617C64.0392 96.8189 63.4293 96.7975 62.6376 96.7975C62.1668 96.7975 61.8672 96.8617 61.7388 96.9901C61.375 97.0115 60.9256 97.0436 60.3906 97.0864C59.877 97.1292 59.2565 97.172 58.5289 97.2148C57.7585 97.1506 57.3733 96.8189 57.3733 96.2197C57.3733 95.9843 57.4054 95.781 57.4696 95.6098C57.5552 95.4386 57.7157 95.2995 57.9511 95.1925C58.1865 95.0855 58.5182 95.0106 58.9462 94.9678C59.3956 94.9036 59.9947 94.8608 60.7437 94.8394C60.8507 94.8394 60.9577 94.8501 61.0647 94.8715C61.1931 94.8715 61.3322 94.8715 61.482 94.8715C62.2524 94.8715 63.333 94.8394 64.724 94.7752C65.152 94.7966 65.6014 94.8287 66.0721 94.8715C66.5643 94.9143 67.0886 94.9678 67.645 95.032C68.0516 95.353 68.2549 95.7168 68.2549 96.1234C68.2549 96.4016 68.1372 96.6798 67.9018 96.958ZM67.9339 103.089C67.6771 103.153 67.3882 103.207 67.0672 103.249C66.7676 103.271 66.361 103.292 65.8474 103.314C65.3553 103.314 64.7133 103.324 63.9215 103.346C63.1511 103.346 62.1561 103.356 60.9363 103.378C59.7379 103.442 58.882 103.474 58.3684 103.474C57.8976 103.474 57.5873 103.356 57.4375 103.121C57.2877 102.864 57.2128 102.607 57.2128 102.351C57.2128 102.137 57.2449 101.965 57.3091 101.837C57.3733 101.709 57.5231 101.612 57.7585 101.548C57.9939 101.463 58.3577 101.409 58.8499 101.388C59.3421 101.345 60.0161 101.313 60.8721 101.291C60.8721 101.27 61.0647 101.281 61.4499 101.323C61.8565 101.345 62.4557 101.356 63.2474 101.356C63.7824 101.356 64.1141 101.291 64.2425 101.163L67.6129 101.067C68.3191 101.131 68.6722 101.409 68.6722 101.901C68.6722 102.308 68.4261 102.704 67.9339 103.089ZM100.227 104.79C100.526 104.983 100.676 105.218 100.676 105.496C100.676 105.796 100.526 106.085 100.227 106.363C99.9271 106.641 99.6382 106.78 99.36 106.78C98.6966 106.545 98.1188 106.106 97.6266 105.464C97.1559 104.822 96.8349 104.127 96.6637 103.378C96.5139 103.699 96.332 104.105 96.118 104.598C95.9254 105.068 95.6686 105.518 95.3476 105.946C95.0266 106.374 94.6307 106.748 94.16 107.069C93.6892 107.369 93.1007 107.519 92.3945 107.519C92.0307 107.519 91.5492 107.454 90.9501 107.326C90.2867 106.855 89.7624 106.481 89.3772 106.202C89.0134 105.903 88.7352 105.625 88.5426 105.368C88.3501 105.111 88.2324 104.822 88.1896 104.501C88.1468 104.18 88.1254 103.752 88.1254 103.217C88.1254 102.768 88.1896 102.276 88.318 101.741C88.4677 101.184 88.671 100.628 88.9278 100.072C89.1846 99.5152 89.5056 98.9695 89.8908 98.4345C90.276 97.8995 90.7254 97.4074 91.239 96.958C92.1805 96.637 92.9188 96.4016 93.4538 96.2518C93.9888 96.102 94.3526 96.0271 94.5451 96.0271C94.9731 95.5349 95.4225 95.2888 95.8933 95.2888C96.1501 95.2888 96.3748 95.4386 96.5674 95.7382C96.76 96.0378 96.9312 96.4337 97.081 96.9259C97.2522 97.3967 97.3805 97.9209 97.4661 98.4987C97.5731 99.0765 97.6587 99.6329 97.7229 100.168C97.7871 100.275 97.8406 100.403 97.8834 100.553C97.9262 100.681 97.969 100.853 98.0118 101.067L98.2044 101.965C98.3328 102.586 98.5789 103.121 98.9427 103.57C99.3065 104.02 99.7345 104.426 100.227 104.79ZM95.7007 100.553C95.6579 100.36 95.583 100.039 95.476 99.5901C95.369 99.1407 95.2299 98.5629 95.0587 97.8567C94.8019 97.9209 94.5237 97.953 94.2242 97.953C93.9246 97.9316 93.6036 97.9851 93.2612 98.1135C92.9188 98.2419 92.5443 98.4773 92.1377 98.8197C91.7525 99.1621 91.3567 99.6971 90.9501 100.425C90.4365 101.366 90.1797 102.361 90.1797 103.41C90.3081 103.688 90.4258 103.934 90.5328 104.148C90.6398 104.341 90.7682 104.523 90.918 104.694C91.0892 104.844 91.2925 104.993 91.5278 105.143C91.7632 105.293 92.0628 105.453 92.4266 105.625C92.7476 105.56 93.0151 105.486 93.2291 105.4C93.4645 105.314 93.6678 105.186 93.839 105.015C94.0102 104.822 94.1707 104.587 94.3205 104.309C94.4702 104.03 94.6521 103.667 94.8661 103.217C95.4225 101.976 95.7007 101.088 95.7007 100.553ZM117.522 99.4296C117.415 99.558 117.18 99.6757 116.816 99.7827C116.452 99.8683 116.078 99.9432 115.693 100.007C115.307 100.072 114.965 100.114 114.665 100.136C114.387 100.157 114.27 100.157 114.312 100.136C114.291 100.136 114.141 100.146 113.863 100.168C113.585 100.189 113.232 100.2 112.804 100.2C112.718 100.2 112.632 100.2 112.547 100.2C112.461 100.2 112.386 100.189 112.322 100.168C112.322 100.874 112.322 101.537 112.322 102.158C112.344 102.779 112.322 103.324 112.258 103.795C112.215 104.244 112.108 104.608 111.937 104.886C111.766 105.143 111.488 105.272 111.102 105.272C110.803 105.272 110.535 105.218 110.3 105.111C110.086 104.983 109.979 104.683 109.979 104.212C109.979 103.934 109.99 103.602 110.011 103.217C110.054 102.811 110.118 102.351 110.204 101.837C110.182 101.773 110.172 101.644 110.172 101.452C110.172 101.067 110.182 100.735 110.204 100.457C110.246 100.179 110.268 100.029 110.268 100.007C109.904 99.986 109.572 99.9753 109.273 99.9753C108.973 99.9753 108.674 99.9753 108.374 99.9753C107.368 99.9753 106.598 100.007 106.063 100.072C105.271 99.986 104.875 99.6115 104.875 98.9481C104.875 98.3489 105.175 98.0493 105.774 98.0493C106.609 98.0493 107.229 98.0707 107.636 98.1135C108.064 98.1349 108.417 98.1456 108.695 98.1456C108.93 98.1456 109.176 98.1456 109.433 98.1456C109.69 98.1242 109.958 98.1028 110.236 98.0814C110.214 97.7818 110.193 97.525 110.172 97.3111C110.172 97.0757 110.172 96.8724 110.172 96.7012C110.172 96.2946 110.204 96.0378 110.268 95.9308C110.268 95.4172 110.193 94.7217 110.043 93.8444C110.15 93.1596 110.525 92.8172 111.167 92.8172C111.488 92.8172 111.723 92.8921 111.873 93.0419C112.023 93.1917 112.13 93.4378 112.194 93.7802C112.258 94.1012 112.301 94.5291 112.322 95.0641C112.344 95.5991 112.376 96.2518 112.418 97.0222V98.1777C112.632 98.1563 112.889 98.1349 113.189 98.1135C113.488 98.0921 113.852 98.06 114.28 98.0172C114.366 98.06 114.505 98.0814 114.698 98.0814C114.976 98.0814 115.243 98.0707 115.5 98.0493C115.757 98.0279 115.981 98.0065 116.174 97.9851C116.388 97.9423 116.549 97.9102 116.656 97.8888C116.763 97.8674 116.805 97.8674 116.784 97.8888C117.34 97.953 117.619 98.2847 117.619 98.8839C117.619 99.0979 117.586 99.2798 117.522 99.4296ZM133.543 98.9481C134.057 99.9539 134.314 100.863 134.314 101.677C134.292 101.976 134.26 102.286 134.217 102.607C134.175 102.907 134.078 103.207 133.929 103.506L133.222 105.015L132.227 106.074C131.5 106.759 130.815 107.219 130.173 107.454C129.531 107.668 128.996 107.775 128.568 107.775C128.012 107.775 127.402 107.572 126.738 107.165C126.546 107.508 126.235 107.679 125.807 107.679C125.487 107.679 125.155 107.583 124.812 107.39C124.834 107.091 124.845 106.759 124.845 106.395C124.866 106.01 124.877 105.593 124.877 105.143C124.855 105.1 124.834 104.94 124.812 104.662C124.791 104.362 124.759 104.009 124.716 103.602C124.695 103.196 124.663 102.768 124.62 102.318C124.577 101.848 124.534 101.42 124.491 101.035C124.449 100.628 124.406 100.286 124.363 100.007C124.32 99.7078 124.288 99.5366 124.267 99.4938L123.817 95.674C123.71 94.7538 123.571 93.9621 123.4 93.2987C123.229 92.6353 123.143 92.1538 123.143 91.8542C123.143 91.0625 123.486 90.6666 124.17 90.6666C124.598 90.6666 124.93 90.8271 125.166 91.1481C125.422 91.469 125.604 92.111 125.711 93.074C125.754 93.5662 125.807 93.9835 125.872 94.3259C125.936 94.6468 125.989 94.9036 126.032 95.0962V95.1925C126.032 95.2567 126.043 95.4814 126.064 95.8666C126.107 96.2518 126.139 96.6584 126.161 97.0864C126.203 97.4929 126.235 97.8674 126.257 98.2098C126.3 98.5308 126.321 98.6699 126.321 98.6271C126.792 98.2847 127.198 98.0172 127.541 97.8246C127.905 97.6106 128.247 97.4609 128.568 97.3753C128.91 97.2683 129.253 97.2041 129.595 97.1827C129.938 97.1399 130.344 97.1185 130.815 97.1185L132.099 97.5357C132.741 97.8567 133.222 98.3275 133.543 98.9481ZM132.003 102.8C132.131 102.158 132.195 101.687 132.195 101.388C132.195 101.238 132.152 101.035 132.067 100.778C131.981 100.5 131.853 100.243 131.682 100.007C131.51 99.7506 131.296 99.5366 131.04 99.3654C130.783 99.1728 130.483 99.0765 130.141 99.0765C129.756 99.0765 129.242 99.2477 128.6 99.5901C127.98 99.9111 127.359 100.253 126.738 100.617C126.845 101.559 126.942 102.886 127.027 104.598C127.284 105.411 127.712 105.817 128.311 105.817C128.675 105.817 129.21 105.667 129.916 105.368L131.2 104.244C131.649 103.774 131.917 103.292 132.003 102.8Z" fill="#410EAD"/>
<path d="M158.45 68.66V146.81" stroke="#410EAD" stroke-width="2" stroke-linecap="round" stroke-linejoin="round"/>
<path d="M236.59 68.6601H158.45L194.28 48.3301H272.42L236.59 68.6601Z" stroke="#410EAD" stroke-width="2" stroke-linecap="round" stroke-linejoin="round"/>
<path d="M272.42 126.48L236.59 146.81H158.45" stroke="#410EAD" stroke-width="2" stroke-linecap="round" stroke-linejoin="round"/>
<path d="M158.45 146.81L194.28 126.48H272.42" stroke="#410EAD" stroke-width="2" stroke-linecap="round" stroke-linejoin="round" stroke-dasharray="3 4"/>
<path d="M236.59 68.66V146.81" stroke="#410EAD" stroke-width="2" stroke-linecap="round" stroke-linejoin="round"/>
<path d="M272.42 48.3301V126.48" stroke="#410EAD" stroke-width="2" stroke-linecap="round" stroke-linejoin="round"/>
<path d="M194.28 48.3301V126.48" stroke="#410EAD" stroke-width="2" stroke-linecap="round" stroke-linejoin="round" stroke-dasharray="3 4"/>
<path d="M290.448 79.0521C291.051 80.2319 291.352 81.2987 291.352 82.2526C291.327 82.604 291.289 82.968 291.239 83.3445C291.189 83.6959 291.076 84.0473 290.9 84.3987L290.072 86.1684L288.905 87.4109C288.051 88.2142 287.248 88.7538 286.495 89.03C285.742 89.281 285.114 89.4065 284.612 89.4065C283.96 89.4065 283.244 89.168 282.466 88.6911C282.24 89.0927 281.876 89.2935 281.374 89.2935C280.998 89.2935 280.609 89.1806 280.207 88.9547C280.232 88.6032 280.245 88.2142 280.245 87.7874C280.27 87.3356 280.282 86.8461 280.282 86.319C280.257 86.2688 280.232 86.0805 280.207 85.7542C280.182 85.4028 280.144 84.9886 280.094 84.5117C280.069 84.0348 280.031 83.5327 279.981 83.0056C279.931 82.4534 279.881 81.9513 279.831 81.4995C279.78 81.0226 279.73 80.621 279.68 80.2947C279.63 79.9432 279.592 79.7424 279.567 79.6922L279.04 75.2116C278.914 74.1322 278.751 73.2035 278.55 72.4253C278.35 71.6472 278.249 71.0824 278.249 70.731C278.249 69.8022 278.651 69.3379 279.454 69.3379C279.956 69.3379 280.345 69.5261 280.621 69.9027C280.922 70.2792 281.136 71.0322 281.261 72.1618C281.311 72.7391 281.374 73.2286 281.45 73.6302C281.525 74.0067 281.588 74.308 281.638 74.5339V74.6468C281.638 74.7221 281.65 74.9857 281.675 75.4375C281.726 75.8893 281.763 76.3663 281.788 76.8683C281.839 77.3452 281.876 77.7845 281.901 78.1861C281.952 78.5627 281.977 78.7258 281.977 78.6756C282.529 78.274 283.006 77.9602 283.407 77.7343C283.834 77.4833 284.236 77.3076 284.612 77.2072C285.014 77.0817 285.416 77.0064 285.817 76.9813C286.219 76.9311 286.696 76.906 287.248 76.906L288.754 77.3954C289.507 77.772 290.072 78.3242 290.448 79.0521ZM288.641 83.5704C288.792 82.8173 288.867 82.2651 288.867 81.9137C288.867 81.738 288.817 81.4995 288.716 81.1983C288.616 80.872 288.465 80.5708 288.265 80.2947C288.064 79.9934 287.813 79.7424 287.512 79.5416C287.21 79.3157 286.859 79.2027 286.457 79.2027C286.005 79.2027 285.403 79.4036 284.65 79.8052C283.922 80.1817 283.194 80.5833 282.466 81.01C282.592 82.1145 282.705 83.6708 282.805 85.6789C283.106 86.6328 283.608 87.1097 284.311 87.1097C284.738 87.1097 285.365 86.934 286.194 86.5826L287.7 85.2647C288.227 84.7125 288.541 84.1477 288.641 83.5704Z" fill="#410EAD"/>
<path d="M241.596 29.2348C241.947 29.4607 242.123 29.7368 242.123 30.0631C242.123 30.4146 241.947 30.7534 241.596 31.0797C241.244 31.4061 240.906 31.5692 240.579 31.5692C239.801 31.2931 239.123 30.7785 238.546 30.0255C237.994 29.2724 237.617 28.4566 237.416 27.5781C237.241 27.9546 237.027 28.4315 236.776 29.0089C236.55 29.5611 236.249 30.0882 235.873 30.5903C235.496 31.0923 235.032 31.5316 234.48 31.9081C233.927 32.2595 233.237 32.4352 232.409 32.4352C231.982 32.4352 231.417 32.3599 230.714 32.2093C229.936 31.6571 229.321 31.2178 228.869 30.8915C228.443 30.5401 228.116 30.2137 227.89 29.9125C227.665 29.6113 227.526 29.2724 227.476 28.8959C227.426 28.5194 227.401 28.0174 227.401 27.3898C227.401 26.8627 227.476 26.2854 227.627 25.6578C227.803 25.0052 228.041 24.3526 228.342 23.6999C228.643 23.0473 229.02 22.4072 229.472 21.7797C229.924 21.1521 230.451 20.5748 231.053 20.0477C232.158 19.6711 233.024 19.395 233.651 19.2193C234.279 19.0436 234.705 18.9557 234.931 18.9557C235.433 18.3784 235.961 18.0897 236.513 18.0897C236.814 18.0897 237.078 18.2655 237.303 18.6169C237.529 18.9683 237.73 19.4327 237.906 20.01C238.107 20.5622 238.257 21.1772 238.358 21.855C238.483 22.5327 238.584 23.1853 238.659 23.8129C238.734 23.9384 238.797 24.089 238.847 24.2647C238.897 24.4153 238.948 24.6161 238.998 24.8671L239.224 25.9214C239.374 26.6493 239.663 27.2769 240.09 27.804C240.516 28.3311 241.018 28.8081 241.596 29.2348ZM236.287 24.2647C236.237 24.0388 236.149 23.6623 236.023 23.1351C235.898 22.608 235.735 21.9303 235.534 21.1019C235.233 21.1772 234.906 21.2149 234.555 21.2149C234.203 21.1898 233.827 21.2525 233.425 21.4031C233.024 21.5537 232.584 21.8299 232.107 22.2315C231.656 22.6331 231.191 23.2606 230.714 24.1141C230.112 25.2186 229.811 26.3858 229.811 27.6157C229.961 27.9421 230.099 28.2307 230.225 28.4817C230.35 28.7077 230.501 28.921 230.677 29.1218C230.877 29.2975 231.116 29.4732 231.392 29.649C231.668 29.8247 232.02 30.0129 232.446 30.2137C232.823 30.1384 233.137 30.0506 233.388 29.9502C233.664 29.8498 233.902 29.6992 234.103 29.4983C234.304 29.2724 234.492 28.9963 234.668 28.67C234.844 28.3437 235.057 27.917 235.308 27.3898C235.961 25.9339 236.287 24.8922 236.287 24.2647Z" fill="#410EAD"/>
</svg>
