<svg width="89" height="79" viewBox="0 0 89 79" fill="none" xmlns="http://www.w3.org/2000/svg">
<path fill-rule="evenodd" clip-rule="evenodd" d="M11.616 0.284387C8.91846 0.882656 6.67204 3.20991 6.09171 6.00753C5.88811 6.98916 5.84004 9.40323 5.8376 18.8064L5.83464 30.3953L4.48483 30.465C2.46291 30.5695 1.2662 31.3061 0.385086 32.9887L0 33.7241V54.716V75.7079L0.379339 76.4316C0.587818 76.8297 1.07305 77.4456 1.45744 77.8003C2.8426 79.0785 0.782365 78.999 32.5057 78.999C53.0423 78.999 61.1484 78.9437 61.4541 78.8016C62.1236 78.4899 62.3256 77.916 62.2235 76.6163C61.9956 73.7156 59.8167 71.0877 56.8867 70.1794C56.3396 70.0099 55.1755 69.9295 53.249 69.9282L50.4158 69.9263L50.4623 65.3454L50.5088 60.7645H59.3914H68.274L68.3611 68.3252L68.4481 75.8858L68.9424 76.7447C69.4684 77.6587 70.5955 78.5191 71.6642 78.8224C72.0151 78.922 75.0185 78.9974 78.6488 78.9979C85.8296 78.9992 86.3141 78.9339 87.5426 77.8003C87.9269 77.4456 88.4122 76.8297 88.6207 76.4316L89 75.7079V59.2524C89 43.5451 88.9852 42.7686 88.6757 42.1743C87.7972 40.4876 86.4937 39.6631 84.5152 39.5424L83.1654 39.4601L83.1624 23.3388C83.1598 9.95471 83.1164 7.01104 82.9072 6.00183C82.3187 3.16544 80.0765 0.876786 77.2961 0.275137C75.5739 -0.0975582 13.299 -0.0888416 11.616 0.284387ZM77.4305 3.41485C78.3681 3.85034 79.2628 4.7336 79.7137 5.66863L80.1174 6.50582L80.1653 23.0058L80.2132 39.5058H76.1469C72.9563 39.5058 71.9125 39.5643 71.2996 39.7776C69.4425 40.4239 68.3611 42.0718 68.3611 44.2549V45.5543H51.9892H35.6174V40.1672C35.6174 36.0443 35.5585 34.5519 35.3663 33.8074L35.1153 32.8346L42.6813 25.0915C49.5645 18.0473 50.2476 17.2957 50.2476 16.7666C50.2476 15.9443 49.5902 15.3117 48.7361 15.3117C48.1032 15.3117 47.8071 15.59 40.488 23.0586C33.0822 30.6157 32.8845 30.8009 32.4167 30.6193C32.1003 30.4964 28.0033 30.433 20.3664 30.433H8.7955L8.79968 18.9142C8.80247 11.7058 8.87074 7.09572 8.98256 6.59477C9.33594 5.00952 10.5549 3.70358 12.0735 3.28374C12.7193 3.10513 19.5173 3.06546 44.8483 3.09214C73.9334 3.12274 76.8641 3.15174 77.4305 3.41485ZM40.8921 6.32365C40.0119 6.71449 39.8342 7.90694 40.5401 8.68506C40.894 9.07519 40.9936 9.08533 44.5 9.08533C48.0064 9.08533 48.106 9.07519 48.4599 8.68506C49.1825 7.88844 48.9881 6.70809 48.0699 6.31618C47.2357 5.9602 41.6976 5.9659 40.8921 6.32365ZM49.4244 23.188C41.9833 30.7883 41.7133 31.0877 41.7133 31.7354C41.7133 32.5792 42.3755 33.2794 43.1735 33.2794C43.6511 33.2794 44.5916 32.3808 51.5082 25.3163C58.6207 18.0514 59.3043 17.3019 59.3043 16.7691C59.3043 15.944 58.6484 15.3117 57.7924 15.3117C57.1586 15.3117 56.8639 15.5893 49.4244 23.188ZM32.0808 33.8865L32.5695 34.316V52.0766V69.8373L17.7216 69.8828L2.87378 69.9282V52.2128V34.4973L3.38287 33.9773L3.89196 33.4573H17.742H31.592L32.0808 33.8865ZM85.6171 43.05L86.1262 43.57V56.7481V69.9263H78.7241H71.3219V56.7069C71.3219 42.7622 71.2981 43.1867 72.1057 42.7355C72.3392 42.6049 74.539 42.5391 78.781 42.5354L85.108 42.53L85.6171 43.05ZM15.8493 48.7369C14.941 49.3191 9.00363 55.5724 8.88136 56.0755C8.75039 56.6144 9.15133 57.548 9.58709 57.7188C9.7421 57.7794 10.1127 57.8292 10.4106 57.8292C10.8812 57.8292 11.3932 57.3809 14.3152 54.4107L17.6781 50.9921V49.9028C17.6781 48.9082 17.6396 48.7956 17.2345 48.6072C16.6367 48.329 16.4599 48.3455 15.8493 48.7369ZM24.9061 48.6567C24.2155 48.9765 18.0938 55.2885 17.865 55.9168C17.5095 56.8922 18.1774 57.8137 19.2472 57.8235C19.8127 57.8289 20.1211 57.5597 23.3711 54.2268C25.303 52.2456 26.9053 50.4643 26.9316 50.2686C27.0335 49.5138 26.7343 48.916 26.1247 48.6558C25.4228 48.3562 25.5547 48.3562 24.9061 48.6567ZM68.3205 53.1594L68.367 57.6513H51.9922H35.6174V53.1141V48.5768L51.9457 48.6221L68.274 48.6675L68.3205 53.1594ZM43.9933 51.7967C42.5434 52.3889 42.9826 54.6271 44.5488 54.6271C45.1429 54.6271 45.7239 54.167 45.9472 53.5202C46.1417 52.9564 45.7105 52.1146 45.0917 51.8504C44.7724 51.7144 44.489 51.608 44.462 51.614C44.435 51.6202 44.2241 51.7024 43.9933 51.7967ZM80.4658 52.63C80.2742 52.6686 79.0005 53.8331 77.6355 55.2179C75.3614 57.5248 75.1536 57.7892 75.1536 58.3741C75.1536 59.2353 75.7296 59.7861 76.6304 59.7861C77.2551 59.7861 77.4544 59.6317 79.5568 57.5179C80.7975 56.2705 81.9221 54.9896 82.0559 54.6715C82.5201 53.5684 81.6095 52.3994 80.4658 52.63ZM38.5377 65.3454L38.5842 69.9263H37.1008H35.6174V65.2938V60.6612L37.0543 60.7129L38.4912 60.7645L38.5377 65.3454ZM47.4609 65.3009V69.9263H44.5H41.5391V65.3009V60.6756H44.5H47.4609V65.3009ZM32.6566 73.6678C32.6566 74.6873 32.2689 75.5188 31.6763 75.7695C31.3005 75.9285 27.7623 75.9692 17.4651 75.9335L3.7542 75.8858L3.36911 75.4925C3.08156 75.1988 2.96487 74.827 2.90791 74.0248L2.83198 72.9505H17.7443H32.6566V73.6678ZM56.6918 73.3207C57.6548 73.7658 58.3589 74.4294 58.8013 75.3076L59.1373 75.9748H47.2216H35.3058L35.4574 75.3076C35.5408 74.9408 35.611 74.2604 35.6132 73.7955L35.6174 72.9505L45.7627 72.9544C55.5924 72.9582 55.9324 72.9695 56.6918 73.3207ZM86.0921 74.0248C86.0351 74.8268 85.9184 75.1988 85.6311 75.4925C85.2509 75.881 85.1725 75.8865 79.1983 75.9394C75.8722 75.9689 72.8957 75.9451 72.5839 75.8867C71.673 75.7159 71.3219 75.1867 71.3219 73.9843V72.9505H78.745H86.168L86.0921 74.0248Z" fill="#386DB4"/>
</svg>
