<svg width="649" height="446" viewBox="0 0 649 446" fill="none" xmlns="http://www.w3.org/2000/svg">
<g filter="url(#filter0_d_1803_3)">
<path d="M110 4L155.899 30.5V83.5L110 110L64.1007 83.5V30.5L110 4Z" fill="#7B3FE4"/>
</g>
<path d="M100.843 44.5455H102.274V50.7638C102.274 51.4255 102.119 52.0118 101.808 52.5227C101.497 53.0305 101.06 53.4306 100.497 53.723C99.9338 54.0123 99.2736 54.157 98.5165 54.157C97.7625 54.157 97.1039 54.0123 96.5407 53.723C95.9775 53.4306 95.5404 53.0305 95.2296 52.5227C94.9187 52.0118 94.7633 51.4255 94.7633 50.7638V44.5455H96.1898V50.6484C96.1898 51.0762 96.2837 51.4563 96.4714 51.7887C96.6622 52.1211 96.9315 52.3827 97.2793 52.5735C97.6271 52.7612 98.0395 52.8551 98.5165 52.8551C98.9966 52.8551 99.4106 52.7612 99.7583 52.5735C100.109 52.3827 100.377 52.1211 100.562 51.7887C100.749 51.4563 100.843 51.0762 100.843 50.6484V44.5455ZM109.551 48.6403L108.3 48.8619C108.248 48.7018 108.165 48.5495 108.051 48.4048C107.94 48.2602 107.789 48.1417 107.598 48.0494C107.407 47.957 107.169 47.9109 106.883 47.9109C106.492 47.9109 106.166 47.9986 105.904 48.174C105.642 48.3464 105.512 48.5695 105.512 48.8434C105.512 49.0804 105.599 49.2712 105.775 49.4158C105.95 49.5605 106.233 49.679 106.624 49.7713L107.751 50.0298C108.403 50.1806 108.889 50.413 109.209 50.7269C109.53 51.0408 109.69 51.4486 109.69 51.9503C109.69 52.375 109.566 52.7536 109.32 53.0859C109.077 53.4152 108.737 53.6738 108.3 53.8615C107.866 54.0492 107.363 54.1431 106.79 54.1431C105.996 54.1431 105.349 53.9738 104.847 53.6353C104.345 53.2937 104.037 52.8089 103.924 52.1811L105.258 51.978C105.341 52.3258 105.512 52.5889 105.77 52.7674C106.029 52.9428 106.366 53.0305 106.781 53.0305C107.234 53.0305 107.595 52.9367 107.866 52.7489C108.137 52.5581 108.272 52.3258 108.272 52.0518C108.272 51.8303 108.189 51.6441 108.023 51.4933C107.86 51.3424 107.609 51.2286 107.271 51.1516L106.07 50.8885C105.409 50.7377 104.919 50.4976 104.602 50.1683C104.288 49.839 104.131 49.422 104.131 48.9173C104.131 48.4987 104.248 48.1325 104.482 47.8185C104.716 47.5046 105.039 47.2599 105.452 47.0845C105.864 46.906 106.336 46.8168 106.869 46.8168C107.635 46.8168 108.238 46.983 108.679 47.3153C109.119 47.6446 109.409 48.0863 109.551 48.6403ZM114.263 54.1431C113.565 54.1431 112.963 53.9938 112.458 53.6953C111.957 53.3937 111.569 52.9705 111.295 52.4258C111.024 51.878 110.889 51.2363 110.889 50.5007C110.889 49.7744 111.024 49.1342 111.295 48.5803C111.569 48.0263 111.95 47.5939 112.44 47.283C112.932 46.9722 113.508 46.8168 114.166 46.8168C114.566 46.8168 114.954 46.8829 115.33 47.0153C115.705 47.1476 116.042 47.3554 116.341 47.6385C116.639 47.9216 116.875 48.2894 117.047 48.7418C117.219 49.1912 117.306 49.7375 117.306 50.3807V50.87H111.669V49.8359H115.953C115.953 49.4728 115.879 49.1512 115.731 48.8711C115.584 48.5879 115.376 48.3648 115.108 48.2017C114.843 48.0386 114.533 47.957 114.176 47.957C113.788 47.957 113.449 48.0524 113.16 48.2433C112.874 48.431 112.652 48.6772 112.495 48.9819C112.341 49.2835 112.264 49.6113 112.264 49.9652V50.7731C112.264 51.247 112.347 51.6502 112.514 51.9826C112.683 52.315 112.918 52.5689 113.22 52.7443C113.522 52.9167 113.874 53.0028 114.277 53.0028C114.539 53.0028 114.777 52.9659 114.993 52.892C115.208 52.8151 115.394 52.7012 115.551 52.5504C115.708 52.3996 115.828 52.2134 115.911 51.9918L117.218 52.2273C117.113 52.612 116.925 52.949 116.655 53.2383C116.387 53.5245 116.05 53.7476 115.644 53.9077C115.24 54.0646 114.78 54.1431 114.263 54.1431ZM118.837 54V46.9091H120.171V48.0355H120.245C120.374 47.6539 120.602 47.3538 120.928 47.1353C121.258 46.9137 121.63 46.8029 122.046 46.8029C122.132 46.8029 122.233 46.806 122.35 46.8121C122.47 46.8183 122.564 46.826 122.632 46.8352V48.1555C122.576 48.1402 122.478 48.1232 122.336 48.1048C122.195 48.0832 122.053 48.0724 121.912 48.0724C121.585 48.0724 121.295 48.1417 121.039 48.2802C120.787 48.4156 120.587 48.6049 120.439 48.848C120.291 49.0881 120.217 49.362 120.217 49.6697V54H118.837ZM94.3022 63.0291C94.253 62.5921 94.0499 62.2536 93.6929 62.0135C93.3359 61.7704 92.8865 61.6488 92.3449 61.6488C91.9571 61.6488 91.6216 61.7103 91.3385 61.8335C91.0553 61.9535 90.8353 62.1197 90.6783 62.332C90.5244 62.5413 90.4475 62.7798 90.4475 63.0476C90.4475 63.2723 90.4998 63.4661 90.6044 63.6293C90.7122 63.7924 90.8522 63.9293 91.0245 64.0401C91.2 64.1478 91.3877 64.2386 91.5878 64.3125C91.7878 64.3833 91.9802 64.4418 92.1648 64.4879L93.0881 64.728C93.3897 64.8018 93.699 64.9019 94.016 65.0281C94.333 65.1542 94.6269 65.3204 94.8978 65.5266C95.1686 65.7328 95.3871 65.9883 95.5533 66.293C95.7226 66.5977 95.8072 66.9624 95.8072 67.3871C95.8072 67.9226 95.6687 68.3981 95.3917 68.8136C95.1178 69.229 94.7193 69.5568 94.1961 69.7969C93.6759 70.0369 93.0466 70.157 92.3079 70.157C91.6001 70.157 90.9876 70.0446 90.4706 69.82C89.9535 69.5953 89.5488 69.2768 89.2564 68.8643C88.9641 68.4489 88.8025 67.9564 88.7717 67.3871H90.2028C90.2305 67.7287 90.3413 68.0134 90.5352 68.2411C90.7322 68.4658 90.983 68.6335 91.2877 68.7443C91.5955 68.852 91.9325 68.9059 92.2987 68.9059C92.7019 68.9059 93.0604 68.8428 93.3743 68.7166C93.6913 68.5874 93.9406 68.4089 94.1222 68.1811C94.3038 67.9503 94.3946 67.681 94.3946 67.3732C94.3946 67.0932 94.3146 66.8639 94.1545 66.6854C93.9976 66.5069 93.7837 66.3591 93.5128 66.2422C93.2451 66.1252 92.9419 66.0221 92.6034 65.9329L91.4862 65.6282C90.7291 65.422 90.129 65.1188 89.6858 64.7188C89.2457 64.3187 89.0256 63.7893 89.0256 63.1307C89.0256 62.5859 89.1733 62.1104 89.4688 61.7042C89.7642 61.2979 90.1643 60.9825 90.6691 60.7578C91.1738 60.5301 91.7432 60.4162 92.3772 60.4162C93.0173 60.4162 93.5821 60.5285 94.0714 60.7532C94.5638 60.9779 94.9516 61.2872 95.2348 61.6811C95.5179 62.072 95.6656 62.5213 95.678 63.0291H94.3022ZM100.711 62.9091V64.017H96.8378V62.9091H100.711ZM97.8766 61.2102H99.2569V67.918C99.2569 68.1857 99.2969 68.3873 99.3769 68.5227C99.4569 68.6551 99.56 68.7459 99.6862 68.7951C99.8155 68.8413 99.9555 68.8643 100.106 68.8643C100.217 68.8643 100.314 68.8567 100.397 68.8413C100.48 68.8259 100.545 68.8136 100.591 68.8043L100.84 69.9446C100.76 69.9754 100.646 70.0062 100.499 70.0369C100.351 70.0708 100.166 70.0893 99.9447 70.0923C99.5816 70.0985 99.243 70.0339 98.9291 69.8984C98.6152 69.763 98.3613 69.5537 98.1674 69.2706C97.9735 68.9875 97.8766 68.632 97.8766 68.2042V61.2102ZM105.149 70.1431C104.484 70.1431 103.904 69.9908 103.408 69.6861C102.913 69.3814 102.528 68.9551 102.254 68.4073C101.98 67.8595 101.843 67.2193 101.843 66.4869C101.843 65.7513 101.98 65.1081 102.254 64.5572C102.528 64.0063 102.913 63.5785 103.408 63.2738C103.904 62.9691 104.484 62.8168 105.149 62.8168C105.813 62.8168 106.394 62.9691 106.889 63.2738C107.385 63.5785 107.769 64.0063 108.043 64.5572C108.317 65.1081 108.454 65.7513 108.454 66.4869C108.454 67.2193 108.317 67.8595 108.043 68.4073C107.769 68.9551 107.385 69.3814 106.889 69.6861C106.394 69.9908 105.813 70.1431 105.149 70.1431ZM105.153 68.9844C105.584 68.9844 105.941 68.8705 106.224 68.6428C106.507 68.415 106.717 68.1119 106.852 67.7333C106.991 67.3548 107.06 66.9377 107.06 66.4822C107.06 66.0298 106.991 65.6143 106.852 65.2358C106.717 64.8542 106.507 64.5479 106.224 64.3171C105.941 64.0863 105.584 63.9709 105.153 63.9709C104.719 63.9709 104.359 64.0863 104.073 64.3171C103.79 64.5479 103.579 64.8542 103.441 65.2358C103.305 65.6143 103.237 66.0298 103.237 66.4822C103.237 66.9377 103.305 67.3548 103.441 67.7333C103.579 68.1119 103.79 68.415 104.073 68.6428C104.359 68.8705 104.719 68.9844 105.153 68.9844ZM109.995 70V62.9091H111.329V64.0355H111.403C111.532 63.6539 111.76 63.3538 112.086 63.1353C112.415 62.9137 112.788 62.8029 113.203 62.8029C113.289 62.8029 113.391 62.806 113.508 62.8121C113.628 62.8183 113.722 62.826 113.79 62.8352V64.1555C113.734 64.1402 113.636 64.1232 113.494 64.1048C113.353 64.0832 113.211 64.0724 113.069 64.0724C112.743 64.0724 112.452 64.1417 112.197 64.2802C111.944 64.4156 111.744 64.6049 111.597 64.848C111.449 65.0881 111.375 65.362 111.375 65.6697V70H109.995ZM114.984 70V62.9091H116.364V70H114.984ZM115.681 61.815C115.441 61.815 115.235 61.735 115.063 61.5749C114.893 61.4118 114.809 61.2179 114.809 60.9933C114.809 60.7655 114.893 60.5716 115.063 60.4116C115.235 60.2485 115.441 60.1669 115.681 60.1669C115.921 60.1669 116.126 60.2485 116.295 60.4116C116.467 60.5716 116.554 60.7655 116.554 60.9933C116.554 61.2179 116.467 61.4118 116.295 61.5749C116.126 61.735 115.921 61.815 115.681 61.815ZM121.277 70.1431C120.579 70.1431 119.977 69.9938 119.472 69.6953C118.971 69.3937 118.583 68.9705 118.309 68.4258C118.038 67.878 117.903 67.2363 117.903 66.5007C117.903 65.7744 118.038 65.1342 118.309 64.5803C118.583 64.0263 118.965 63.5939 119.454 63.283C119.946 62.9722 120.522 62.8168 121.181 62.8168C121.581 62.8168 121.968 62.8829 122.344 63.0153C122.719 63.1476 123.056 63.3554 123.355 63.6385C123.653 63.9216 123.889 64.2894 124.061 64.7418C124.234 65.1912 124.32 65.7375 124.32 66.3807V66.87H118.683V65.8359H122.967C122.967 65.4728 122.893 65.1512 122.746 64.8711C122.598 64.5879 122.39 64.3648 122.122 64.2017C121.858 64.0386 121.547 63.957 121.19 63.957C120.802 63.957 120.463 64.0524 120.174 64.2433C119.888 64.431 119.666 64.6772 119.509 64.9819C119.355 65.2835 119.279 65.6113 119.279 65.9652V66.7731C119.279 67.247 119.362 67.6502 119.528 67.9826C119.697 68.315 119.933 68.5689 120.234 68.7443C120.536 68.9167 120.888 69.0028 121.291 69.0028C121.553 69.0028 121.791 68.9659 122.007 68.892C122.222 68.8151 122.409 68.7012 122.565 68.5504C122.722 68.3996 122.842 68.2134 122.926 67.9918L124.232 68.2273C124.127 68.612 123.94 68.949 123.669 69.2383C123.401 69.5245 123.064 69.7476 122.658 69.9077C122.255 70.0646 121.795 70.1431 121.277 70.1431ZM131.165 64.6403L129.914 64.8619C129.861 64.7018 129.778 64.5495 129.664 64.4048C129.554 64.2602 129.403 64.1417 129.212 64.0494C129.021 63.957 128.783 63.9109 128.496 63.9109C128.106 63.9109 127.779 63.9986 127.518 64.174C127.256 64.3464 127.125 64.5695 127.125 64.8434C127.125 65.0804 127.213 65.2712 127.389 65.4158C127.564 65.5605 127.847 65.679 128.238 65.7713L129.364 66.0298C130.017 66.1806 130.503 66.413 130.823 66.7269C131.143 67.0408 131.303 67.4486 131.303 67.9503C131.303 68.375 131.18 68.7536 130.934 69.0859C130.691 69.4152 130.351 69.6738 129.914 69.8615C129.48 70.0492 128.977 70.1431 128.404 70.1431C127.61 70.1431 126.962 69.9738 126.461 69.6353C125.959 69.2937 125.651 68.8089 125.537 68.1811L126.871 67.978C126.955 68.3258 127.125 68.5889 127.384 68.7674C127.642 68.9428 127.979 69.0305 128.395 69.0305C128.847 69.0305 129.209 68.9367 129.48 68.7489C129.751 68.5581 129.886 68.3258 129.886 68.0518C129.886 67.8303 129.803 67.6441 129.637 67.4933C129.474 67.3424 129.223 67.2286 128.884 67.1516L127.684 66.8885C127.022 66.7377 126.533 66.4976 126.216 66.1683C125.902 65.839 125.745 65.422 125.745 64.9173C125.745 64.4987 125.862 64.1325 126.096 63.8185C126.33 63.5046 126.653 63.2599 127.065 63.0845C127.478 62.906 127.95 62.8168 128.483 62.8168C129.249 62.8168 129.852 62.983 130.292 63.3153C130.732 63.6446 131.023 64.0863 131.165 64.6403Z" fill="white"/>
<g filter="url(#filter1_d_1803_3)">
<path d="M110 169L155.899 195.5V248.5L110 275L64.1007 248.5V195.5L110 169Z" fill="#7B3FE4"/>
</g>
<path d="M87.1447 219V209.545H90.5147C91.2472 209.545 91.855 209.672 92.3382 209.924C92.8245 210.176 93.1876 210.526 93.4277 210.972C93.6677 211.415 93.7878 211.928 93.7878 212.509C93.7878 213.088 93.6662 213.597 93.4231 214.037C93.183 214.474 92.8199 214.814 92.3336 215.058C91.8504 215.301 91.2426 215.422 90.5101 215.422H87.9572V214.194H90.3808C90.8425 214.194 91.2179 214.128 91.5072 213.996C91.7996 213.863 92.0135 213.671 92.1489 213.419C92.2843 213.166 92.3521 212.863 92.3521 212.509C92.3521 212.152 92.2828 211.843 92.1443 211.581C92.0089 211.32 91.795 211.12 91.5026 210.981C91.2133 210.84 90.8332 210.769 90.3623 210.769H88.5712V219H87.1447ZM91.8119 214.734L94.1479 219H92.5229L90.2331 214.734H91.8119ZM98.38 219.143C97.6814 219.143 97.0797 218.994 96.575 218.695C96.0733 218.394 95.6855 217.971 95.4116 217.426C95.1408 216.878 95.0054 216.236 95.0054 215.501C95.0054 214.774 95.1408 214.134 95.4116 213.58C95.6855 213.026 96.0672 212.594 96.5565 212.283C97.0489 211.972 97.6245 211.817 98.2831 211.817C98.6832 211.817 99.0709 211.883 99.4464 212.015C99.8219 212.148 100.159 212.355 100.457 212.638C100.756 212.922 100.991 213.289 101.164 213.742C101.336 214.191 101.422 214.737 101.422 215.381V215.87H95.7856V214.836H100.07C100.07 214.473 99.9958 214.151 99.8481 213.871C99.7003 213.588 99.4926 213.365 99.2248 213.202C98.9602 213.039 98.6493 212.957 98.2923 212.957C97.9045 212.957 97.566 213.052 97.2767 213.243C96.9905 213.431 96.7689 213.677 96.6119 213.982C96.458 214.283 96.3811 214.611 96.3811 214.965V215.773C96.3811 216.247 96.4642 216.65 96.6304 216.983C96.7996 217.315 97.0351 217.569 97.3367 217.744C97.6383 217.917 97.9907 218.003 98.3939 218.003C98.6555 218.003 98.894 217.966 99.1094 217.892C99.3249 217.815 99.5111 217.701 99.668 217.55C99.825 217.4 99.945 217.213 100.028 216.992L101.335 217.227C101.23 217.612 101.042 217.949 100.771 218.238C100.504 218.525 100.167 218.748 99.7603 218.908C99.3572 219.065 98.8971 219.143 98.38 219.143ZM104.334 209.545V219H102.954V209.545H104.334ZM109.247 219.143C108.549 219.143 107.947 218.994 107.442 218.695C106.941 218.394 106.553 217.971 106.279 217.426C106.008 216.878 105.873 216.236 105.873 215.501C105.873 214.774 106.008 214.134 106.279 213.58C106.553 213.026 106.934 212.594 107.424 212.283C107.916 211.972 108.492 211.817 109.15 211.817C109.55 211.817 109.938 211.883 110.314 212.015C110.689 212.148 111.026 212.355 111.325 212.638C111.623 212.922 111.859 213.289 112.031 213.742C112.203 214.191 112.289 214.737 112.289 215.381V215.87H106.653V214.836H110.937C110.937 214.473 110.863 214.151 110.715 213.871C110.568 213.588 110.36 213.365 110.092 213.202C109.827 213.039 109.516 212.957 109.159 212.957C108.772 212.957 108.433 213.052 108.144 213.243C107.858 213.431 107.636 213.677 107.479 213.982C107.325 214.283 107.248 214.611 107.248 214.965V215.773C107.248 216.247 107.331 216.65 107.498 216.983C107.667 217.315 107.902 217.569 108.204 217.744C108.505 217.917 108.858 218.003 109.261 218.003C109.523 218.003 109.761 217.966 109.977 217.892C110.192 217.815 110.378 217.701 110.535 217.55C110.692 217.4 110.812 217.213 110.895 216.992L112.202 217.227C112.097 217.612 111.909 217.949 111.639 218.238C111.371 218.525 111.034 218.748 110.628 218.908C110.224 219.065 109.764 219.143 109.247 219.143ZM115.885 219.157C115.435 219.157 115.029 219.074 114.666 218.908C114.303 218.738 114.015 218.494 113.803 218.174C113.593 217.854 113.489 217.461 113.489 216.996C113.489 216.596 113.566 216.267 113.719 216.009C113.873 215.75 114.081 215.545 114.343 215.395C114.604 215.244 114.897 215.13 115.22 215.053C115.543 214.976 115.872 214.917 116.208 214.877C116.632 214.828 116.977 214.788 117.242 214.757C117.506 214.724 117.699 214.67 117.819 214.596C117.939 214.522 117.999 214.402 117.999 214.236V214.203C117.999 213.8 117.885 213.488 117.657 213.266C117.433 213.045 117.097 212.934 116.651 212.934C116.186 212.934 115.82 213.037 115.552 213.243C115.287 213.446 115.104 213.673 115.003 213.922L113.706 213.626C113.859 213.196 114.084 212.848 114.38 212.583C114.678 212.315 115.021 212.121 115.409 212.001C115.797 211.878 116.205 211.817 116.632 211.817C116.916 211.817 117.216 211.851 117.533 211.918C117.853 211.983 118.151 212.103 118.428 212.278C118.708 212.454 118.938 212.705 119.116 213.031C119.295 213.354 119.384 213.774 119.384 214.291V219H118.036V218.031H117.98C117.891 218.209 117.757 218.384 117.579 218.557C117.4 218.729 117.171 218.872 116.891 218.986C116.611 219.1 116.275 219.157 115.885 219.157ZM116.185 218.049C116.566 218.049 116.892 217.974 117.163 217.823C117.437 217.672 117.645 217.475 117.787 217.232C117.931 216.986 118.004 216.723 118.004 216.442V215.528C117.954 215.578 117.859 215.624 117.717 215.667C117.579 215.707 117.42 215.742 117.242 215.773C117.063 215.801 116.889 215.827 116.72 215.852C116.551 215.873 116.409 215.892 116.295 215.907C116.028 215.941 115.783 215.998 115.561 216.078C115.343 216.158 115.167 216.273 115.035 216.424C114.906 216.572 114.841 216.769 114.841 217.015C114.841 217.357 114.967 217.615 115.22 217.79C115.472 217.963 115.794 218.049 116.185 218.049ZM126.536 213.64L125.285 213.862C125.233 213.702 125.149 213.549 125.036 213.405C124.925 213.26 124.774 213.142 124.583 213.049C124.392 212.957 124.154 212.911 123.868 212.911C123.477 212.911 123.15 212.999 122.889 213.174C122.627 213.346 122.496 213.569 122.496 213.843C122.496 214.08 122.584 214.271 122.76 214.416C122.935 214.56 123.218 214.679 123.609 214.771L124.735 215.03C125.388 215.181 125.874 215.413 126.194 215.727C126.514 216.041 126.674 216.449 126.674 216.95C126.674 217.375 126.551 217.754 126.305 218.086C126.062 218.415 125.722 218.674 125.285 218.862C124.851 219.049 124.348 219.143 123.775 219.143C122.981 219.143 122.333 218.974 121.832 218.635C121.33 218.294 121.022 217.809 120.908 217.181L122.243 216.978C122.326 217.326 122.496 217.589 122.755 217.767C123.014 217.943 123.351 218.031 123.766 218.031C124.218 218.031 124.58 217.937 124.851 217.749C125.122 217.558 125.257 217.326 125.257 217.052C125.257 216.83 125.174 216.644 125.008 216.493C124.845 216.342 124.594 216.229 124.255 216.152L123.055 215.888C122.393 215.738 121.904 215.498 121.587 215.168C121.273 214.839 121.116 214.422 121.116 213.917C121.116 213.499 121.233 213.132 121.467 212.819C121.701 212.505 122.024 212.26 122.436 212.085C122.849 211.906 123.321 211.817 123.854 211.817C124.62 211.817 125.223 211.983 125.663 212.315C126.104 212.645 126.394 213.086 126.536 213.64ZM131.248 219.143C130.55 219.143 129.948 218.994 129.443 218.695C128.941 218.394 128.554 217.971 128.28 217.426C128.009 216.878 127.874 216.236 127.874 215.501C127.874 214.774 128.009 214.134 128.28 213.58C128.554 213.026 128.935 212.594 129.425 212.283C129.917 211.972 130.493 211.817 131.151 211.817C131.551 211.817 131.939 211.883 132.315 212.015C132.69 212.148 133.027 212.355 133.326 212.638C133.624 212.922 133.86 213.289 134.032 213.742C134.204 214.191 134.29 214.737 134.29 215.381V215.87H128.654V214.836H132.938C132.938 214.473 132.864 214.151 132.716 213.871C132.568 213.588 132.361 213.365 132.093 213.202C131.828 213.039 131.517 212.957 131.16 212.957C130.773 212.957 130.434 213.052 130.145 213.243C129.859 213.431 129.637 213.677 129.48 213.982C129.326 214.283 129.249 214.611 129.249 214.965V215.773C129.249 216.247 129.332 216.65 129.499 216.983C129.668 217.315 129.903 217.569 130.205 217.744C130.506 217.917 130.859 218.003 131.262 218.003C131.524 218.003 131.762 217.966 131.978 217.892C132.193 217.815 132.379 217.701 132.536 217.55C132.693 217.4 132.813 217.213 132.896 216.992L134.203 217.227C134.098 217.612 133.91 217.949 133.64 218.238C133.372 218.525 133.035 218.748 132.629 218.908C132.225 219.065 131.765 219.143 131.248 219.143ZM84.777 235V225.545H88.147C88.8826 225.545 89.492 225.679 89.9751 225.947C90.4583 226.215 90.82 226.581 91.06 227.046C91.3001 227.507 91.4201 228.028 91.4201 228.606C91.4201 229.188 91.2985 229.711 91.0554 230.176C90.8153 230.637 90.4522 231.004 89.9659 231.275C89.4827 231.542 88.8749 231.676 88.1424 231.676H85.8249V230.467H88.0131C88.4779 230.467 88.8549 230.387 89.1442 230.227C89.4335 230.063 89.6458 229.842 89.7812 229.562C89.9167 229.282 89.9844 228.963 89.9844 228.606C89.9844 228.249 89.9167 227.932 89.7812 227.655C89.6458 227.378 89.4319 227.161 89.1396 227.004C88.8503 226.847 88.4686 226.769 87.9947 226.769H86.2035V235H84.777ZM94.3619 225.545V235H92.9816V225.545H94.3619ZM98.2825 235.157C97.8332 235.157 97.4269 235.074 97.0637 234.908C96.7006 234.738 96.4128 234.494 96.2005 234.174C95.9912 233.854 95.8865 233.461 95.8865 232.996C95.8865 232.596 95.9635 232.267 96.1174 232.009C96.2712 231.75 96.479 231.545 96.7406 231.395C97.0022 231.244 97.2946 231.13 97.6177 231.053C97.9409 230.976 98.2702 230.917 98.6056 230.877C99.0304 230.828 99.3751 230.788 99.6397 230.757C99.9044 230.724 100.097 230.67 100.217 230.596C100.337 230.522 100.397 230.402 100.397 230.236V230.203C100.397 229.8 100.283 229.488 100.055 229.266C99.8306 229.045 99.4951 228.934 99.0488 228.934C98.5841 228.934 98.2179 229.037 97.9501 229.243C97.6854 229.446 97.5023 229.673 97.4007 229.922L96.1035 229.626C96.2574 229.196 96.4821 228.848 96.7775 228.583C97.0761 228.315 97.4192 228.121 97.807 228.001C98.1948 227.878 98.6026 227.817 99.0304 227.817C99.3135 227.817 99.6136 227.851 99.9306 227.918C100.251 227.983 100.549 228.103 100.826 228.278C101.106 228.454 101.336 228.705 101.514 229.031C101.693 229.354 101.782 229.774 101.782 230.291V235H100.434V234.031H100.378C100.289 234.209 100.155 234.384 99.9767 234.557C99.7982 234.729 99.569 234.872 99.2889 234.986C99.0088 235.1 98.6734 235.157 98.2825 235.157ZM98.5826 234.049C98.9642 234.049 99.2904 233.974 99.5613 233.823C99.8352 233.672 100.043 233.475 100.184 233.232C100.329 232.986 100.401 232.723 100.401 232.442V231.528C100.352 231.578 100.257 231.624 100.115 231.667C99.9767 231.707 99.8182 231.742 99.6397 231.773C99.4612 231.801 99.2873 231.827 99.1181 231.852C98.9488 231.873 98.8072 231.892 98.6934 231.907C98.4256 231.941 98.1809 231.998 97.9593 232.078C97.7408 232.158 97.5654 232.273 97.4331 232.424C97.3038 232.572 97.2392 232.769 97.2392 233.015C97.2392 233.357 97.3654 233.615 97.6177 233.79C97.8701 233.963 98.1917 234.049 98.5826 234.049ZM105.001 230.79V235H103.62V227.909H104.945V229.063H105.033C105.196 228.688 105.451 228.386 105.799 228.158C106.15 227.931 106.592 227.817 107.124 227.817C107.607 227.817 108.031 227.918 108.394 228.121C108.757 228.321 109.039 228.62 109.239 229.017C109.439 229.414 109.539 229.905 109.539 230.49V235H108.158V230.656C108.158 230.142 108.024 229.74 107.757 229.451C107.489 229.159 107.121 229.012 106.653 229.012C106.333 229.012 106.049 229.082 105.799 229.22C105.553 229.359 105.358 229.562 105.213 229.83C105.071 230.094 105.001 230.414 105.001 230.79ZM112.77 230.79V235H111.39V227.909H112.715V229.063H112.802C112.966 228.688 113.221 228.386 113.569 228.158C113.92 227.931 114.361 227.817 114.894 227.817C115.377 227.817 115.8 227.918 116.163 228.121C116.526 228.321 116.808 228.62 117.008 229.017C117.208 229.414 117.308 229.905 117.308 230.49V235H115.928V230.656C115.928 230.142 115.794 229.74 115.526 229.451C115.258 229.159 114.891 229.012 114.423 229.012C114.103 229.012 113.818 229.082 113.569 229.22C113.323 229.359 113.127 229.562 112.983 229.83C112.841 230.094 112.77 230.414 112.77 230.79ZM119.159 235V227.909H120.54V235H119.159ZM119.856 226.815C119.616 226.815 119.41 226.735 119.238 226.575C119.069 226.412 118.984 226.218 118.984 225.993C118.984 225.766 119.069 225.572 119.238 225.412C119.41 225.248 119.616 225.167 119.856 225.167C120.097 225.167 120.301 225.248 120.47 225.412C120.643 225.572 120.729 225.766 120.729 225.993C120.729 226.218 120.643 226.412 120.47 226.575C120.301 226.735 120.097 226.815 119.856 226.815ZM123.777 230.79V235H122.397V227.909H123.722V229.063H123.809C123.972 228.688 124.228 228.386 124.576 228.158C124.926 227.931 125.368 227.817 125.901 227.817C126.384 227.817 126.807 227.918 127.17 228.121C127.533 228.321 127.815 228.62 128.015 229.017C128.215 229.414 128.315 229.905 128.315 230.49V235H126.935V230.656C126.935 230.142 126.801 229.74 126.533 229.451C126.265 229.159 125.897 229.012 125.43 229.012C125.11 229.012 124.825 229.082 124.576 229.22C124.329 229.359 124.134 229.562 123.989 229.83C123.848 230.094 123.777 230.414 123.777 230.79ZM133.139 237.807C132.576 237.807 132.091 237.733 131.685 237.585C131.282 237.438 130.953 237.242 130.697 236.999C130.442 236.756 130.251 236.49 130.125 236.2L131.311 235.711C131.394 235.846 131.505 235.989 131.643 236.14C131.785 236.294 131.976 236.425 132.216 236.533C132.459 236.64 132.771 236.694 133.153 236.694C133.676 236.694 134.109 236.567 134.45 236.311C134.792 236.059 134.963 235.656 134.963 235.102V233.707H134.875C134.792 233.858 134.672 234.026 134.515 234.211C134.361 234.395 134.149 234.555 133.878 234.691C133.607 234.826 133.255 234.894 132.821 234.894C132.261 234.894 131.756 234.763 131.306 234.501C130.86 234.237 130.506 233.847 130.245 233.333C129.986 232.816 129.857 232.181 129.857 231.427C129.857 230.673 129.985 230.027 130.24 229.488C130.499 228.949 130.853 228.537 131.302 228.251C131.751 227.961 132.261 227.817 132.83 227.817C133.27 227.817 133.625 227.891 133.896 228.038C134.167 228.183 134.378 228.352 134.529 228.546C134.683 228.74 134.801 228.911 134.884 229.059H134.986V227.909H136.338V235.157C136.338 235.766 136.197 236.266 135.914 236.657C135.631 237.048 135.247 237.337 134.764 237.525C134.284 237.713 133.742 237.807 133.139 237.807ZM133.125 233.749C133.522 233.749 133.858 233.657 134.132 233.472C134.409 233.284 134.618 233.016 134.76 232.669C134.904 232.318 134.977 231.898 134.977 231.408C134.977 230.931 134.906 230.511 134.764 230.148C134.623 229.785 134.415 229.502 134.141 229.299C133.867 229.092 133.529 228.989 133.125 228.989C132.71 228.989 132.364 229.097 132.087 229.312C131.81 229.525 131.6 229.814 131.459 230.18C131.32 230.547 131.251 230.956 131.251 231.408C131.251 231.873 131.322 232.281 131.463 232.632C131.605 232.983 131.814 233.257 132.091 233.453C132.371 233.65 132.716 233.749 133.125 233.749Z" fill="white"/>
<g filter="url(#filter2_d_1803_3)">
<path d="M110 336L155.899 362.5V415.5L110 442L64.1007 415.5V362.5L110 336Z" fill="#7B3FE4"/>
</g>
<path d="M99.5947 387.029C99.5455 386.592 99.3424 386.254 98.9854 386.013C98.6283 385.77 98.179 385.649 97.6373 385.649C97.2496 385.649 96.9141 385.71 96.6309 385.833C96.3478 385.953 96.1278 386.12 95.9708 386.332C95.8169 386.541 95.74 386.78 95.74 387.048C95.74 387.272 95.7923 387.466 95.8969 387.629C96.0046 387.792 96.1447 387.929 96.317 388.04C96.4925 388.148 96.6802 388.239 96.8802 388.312C97.0803 388.383 97.2726 388.442 97.4573 388.488L98.3806 388.728C98.6822 388.802 98.9915 388.902 99.3085 389.028C99.6255 389.154 99.9194 389.32 100.19 389.527C100.461 389.733 100.68 389.988 100.846 390.293C101.015 390.598 101.1 390.962 101.1 391.387C101.1 391.923 100.961 392.398 100.684 392.814C100.41 393.229 100.012 393.557 99.4885 393.797C98.9684 394.037 98.339 394.157 97.6004 394.157C96.8925 394.157 96.2801 394.045 95.7631 393.82C95.246 393.595 94.8413 393.277 94.5489 392.864C94.2565 392.449 94.095 391.956 94.0642 391.387H95.4953C95.523 391.729 95.6338 392.013 95.8277 392.241C96.0247 392.466 96.2755 392.634 96.5802 392.744C96.8879 392.852 97.2249 392.906 97.5912 392.906C97.9943 392.906 98.3529 392.843 98.6668 392.717C98.9838 392.587 99.2331 392.409 99.4147 392.181C99.5963 391.95 99.6871 391.681 99.6871 391.373C99.6871 391.093 99.607 390.864 99.447 390.685C99.29 390.507 99.0761 390.359 98.8053 390.242C98.5376 390.125 98.2344 390.022 97.8959 389.933L96.7787 389.628C96.0216 389.422 95.4214 389.119 94.9782 388.719C94.5381 388.319 94.3181 387.789 94.3181 387.131C94.3181 386.586 94.4658 386.11 94.7613 385.704C95.0567 385.298 95.4568 384.982 95.9616 384.758C96.4663 384.53 97.0357 384.416 97.6697 384.416C98.3098 384.416 98.8746 384.529 99.3639 384.753C99.8563 384.978 100.244 385.287 100.527 385.681C100.81 386.072 100.958 386.521 100.97 387.029H99.5947ZM102.694 396.659V386.909H104.042V388.059H104.157C104.237 387.911 104.352 387.74 104.503 387.546C104.654 387.352 104.863 387.183 105.131 387.038C105.399 386.891 105.753 386.817 106.193 386.817C106.765 386.817 107.276 386.961 107.725 387.251C108.175 387.54 108.527 387.957 108.783 388.502C109.041 389.047 109.17 389.702 109.17 390.468C109.17 391.235 109.043 391.892 108.787 392.44C108.532 392.984 108.181 393.404 107.735 393.7C107.288 393.992 106.779 394.138 106.207 394.138C105.776 394.138 105.423 394.066 105.15 393.922C104.879 393.777 104.666 393.608 104.512 393.414C104.359 393.22 104.24 393.047 104.157 392.897H104.074V396.659H102.694ZM104.046 390.455C104.046 390.953 104.118 391.39 104.263 391.766C104.408 392.141 104.617 392.435 104.891 392.647C105.165 392.857 105.5 392.961 105.897 392.961C106.31 392.961 106.654 392.852 106.931 392.634C107.208 392.412 107.418 392.112 107.559 391.733C107.704 391.355 107.776 390.929 107.776 390.455C107.776 389.987 107.705 389.567 107.564 389.194C107.425 388.822 107.216 388.528 106.936 388.312C106.659 388.097 106.313 387.989 105.897 387.989C105.497 387.989 105.159 388.092 104.882 388.299C104.608 388.505 104.4 388.793 104.259 389.162C104.117 389.531 104.046 389.962 104.046 390.455ZM110.717 394V386.909H112.097V394H110.717ZM111.414 385.815C111.174 385.815 110.968 385.735 110.795 385.575C110.626 385.412 110.542 385.218 110.542 384.993C110.542 384.766 110.626 384.572 110.795 384.412C110.968 384.248 111.174 384.167 111.414 384.167C111.654 384.167 111.859 384.248 112.028 384.412C112.2 384.572 112.287 384.766 112.287 384.993C112.287 385.218 112.2 385.412 112.028 385.575C111.859 385.735 111.654 385.815 111.414 385.815ZM115.224 391.595L115.215 389.91H115.455L118.28 386.909H119.933L116.71 390.325H116.493L115.224 391.595ZM113.954 394V384.545H115.335V394H113.954ZM118.432 394L115.893 390.63L116.844 389.665L120.127 394H118.432ZM123.955 394.143C123.256 394.143 122.654 393.994 122.15 393.695C121.648 393.394 121.26 392.971 120.986 392.426C120.715 391.878 120.58 391.236 120.58 390.501C120.58 389.774 120.715 389.134 120.986 388.58C121.26 388.026 121.642 387.594 122.131 387.283C122.624 386.972 123.199 386.817 123.858 386.817C124.258 386.817 124.646 386.883 125.021 387.015C125.397 387.148 125.734 387.355 126.032 387.638C126.331 387.922 126.566 388.289 126.738 388.742C126.911 389.191 126.997 389.737 126.997 390.381V390.87H121.36V389.836H125.644C125.644 389.473 125.57 389.151 125.423 388.871C125.275 388.588 125.067 388.365 124.8 388.202C124.535 388.039 124.224 387.957 123.867 387.957C123.479 387.957 123.141 388.052 122.851 388.243C122.565 388.431 122.344 388.677 122.187 388.982C122.033 389.283 121.956 389.611 121.956 389.965V390.773C121.956 391.247 122.039 391.65 122.205 391.983C122.374 392.315 122.61 392.569 122.911 392.744C123.213 392.917 123.565 393.003 123.969 393.003C124.23 393.003 124.469 392.966 124.684 392.892C124.9 392.815 125.086 392.701 125.243 392.55C125.4 392.4 125.52 392.213 125.603 391.992L126.909 392.227C126.805 392.612 126.617 392.949 126.346 393.238C126.078 393.525 125.741 393.748 125.335 393.908C124.932 394.065 124.472 394.143 123.955 394.143Z" fill="white"/>
<g filter="url(#filter3_d_1803_3)">
<path d="M272 169L317.899 195.5V248.5L272 275L226.101 248.5V195.5L272 169Z" fill="#7B3FE4"/>
</g>
<path d="M248.516 217.545V227H247.089V217.545H248.516ZM253.793 219.909V221.017H249.919V219.909H253.793ZM250.958 218.21H252.338V224.918C252.338 225.186 252.378 225.387 252.458 225.523C252.538 225.655 252.642 225.746 252.768 225.795C252.897 225.841 253.037 225.864 253.188 225.864C253.299 225.864 253.396 225.857 253.479 225.841C253.562 225.826 253.626 225.814 253.673 225.804L253.922 226.945C253.842 226.975 253.728 227.006 253.58 227.037C253.433 227.071 253.248 227.089 253.026 227.092C252.663 227.098 252.325 227.034 252.011 226.898C251.697 226.763 251.443 226.554 251.249 226.271C251.055 225.987 250.958 225.632 250.958 225.204V218.21ZM258.299 227.143C257.601 227.143 256.999 226.994 256.494 226.695C255.993 226.394 255.605 225.971 255.331 225.426C255.06 224.878 254.925 224.236 254.925 223.501C254.925 222.774 255.06 222.134 255.331 221.58C255.605 221.026 255.987 220.594 256.476 220.283C256.968 219.972 257.544 219.817 258.203 219.817C258.603 219.817 258.99 219.883 259.366 220.015C259.741 220.148 260.078 220.355 260.377 220.638C260.675 220.922 260.911 221.289 261.083 221.742C261.256 222.191 261.342 222.737 261.342 223.381V223.87H255.705V222.836H259.989C259.989 222.473 259.915 222.151 259.767 221.871C259.62 221.588 259.412 221.365 259.144 221.202C258.88 221.039 258.569 220.957 258.212 220.957C257.824 220.957 257.485 221.052 257.196 221.243C256.91 221.431 256.688 221.677 256.531 221.982C256.377 222.283 256.301 222.611 256.301 222.965V223.773C256.301 224.247 256.384 224.65 256.55 224.983C256.719 225.315 256.955 225.569 257.256 225.744C257.558 225.917 257.91 226.003 258.313 226.003C258.575 226.003 258.813 225.966 259.029 225.892C259.244 225.815 259.43 225.701 259.587 225.55C259.744 225.4 259.864 225.213 259.948 224.992L261.254 225.227C261.149 225.612 260.962 225.949 260.691 226.238C260.423 226.525 260.086 226.748 259.68 226.908C259.277 227.065 258.816 227.143 258.299 227.143ZM262.873 227V219.909H264.207V221.036H264.281C264.411 220.654 264.638 220.354 264.964 220.135C265.294 219.914 265.666 219.803 266.082 219.803C266.168 219.803 266.269 219.806 266.386 219.812C266.506 219.818 266.6 219.826 266.668 219.835V221.156C266.613 221.14 266.514 221.123 266.373 221.105C266.231 221.083 266.089 221.072 265.948 221.072C265.622 221.072 265.331 221.142 265.075 221.28C264.823 221.416 264.623 221.605 264.475 221.848C264.327 222.088 264.254 222.362 264.254 222.67V227H262.873ZM269.863 227.157C269.413 227.157 269.007 227.074 268.644 226.908C268.281 226.738 267.993 226.494 267.781 226.174C267.571 225.854 267.467 225.461 267.467 224.996C267.467 224.596 267.544 224.267 267.697 224.009C267.851 223.75 268.059 223.545 268.321 223.395C268.582 223.244 268.875 223.13 269.198 223.053C269.521 222.976 269.85 222.917 270.186 222.877C270.61 222.828 270.955 222.788 271.22 222.757C271.484 222.724 271.677 222.67 271.797 222.596C271.917 222.522 271.977 222.402 271.977 222.236V222.203C271.977 221.8 271.863 221.488 271.635 221.266C271.411 221.045 271.075 220.934 270.629 220.934C270.164 220.934 269.798 221.037 269.53 221.243C269.266 221.446 269.082 221.673 268.981 221.922L267.684 221.626C267.837 221.196 268.062 220.848 268.358 220.583C268.656 220.315 268.999 220.121 269.387 220.001C269.775 219.878 270.183 219.817 270.61 219.817C270.894 219.817 271.194 219.851 271.511 219.918C271.831 219.983 272.129 220.103 272.406 220.278C272.686 220.454 272.916 220.705 273.094 221.031C273.273 221.354 273.362 221.774 273.362 222.291V227H272.014V226.031H271.958C271.869 226.209 271.735 226.384 271.557 226.557C271.378 226.729 271.149 226.872 270.869 226.986C270.589 227.1 270.253 227.157 269.863 227.157ZM270.163 226.049C270.544 226.049 270.871 225.974 271.141 225.823C271.415 225.672 271.623 225.475 271.765 225.232C271.909 224.986 271.982 224.723 271.982 224.442V223.528C271.932 223.578 271.837 223.624 271.695 223.667C271.557 223.707 271.398 223.742 271.22 223.773C271.041 223.801 270.867 223.827 270.698 223.852C270.529 223.873 270.387 223.892 270.273 223.907C270.006 223.941 269.761 223.998 269.539 224.078C269.321 224.158 269.145 224.273 269.013 224.424C268.884 224.572 268.819 224.769 268.819 225.015C268.819 225.357 268.945 225.615 269.198 225.79C269.45 225.963 269.772 226.049 270.163 226.049ZM278.51 219.909V221.017H274.637V219.909H278.51ZM275.676 218.21H277.056V224.918C277.056 225.186 277.096 225.387 277.176 225.523C277.256 225.655 277.359 225.746 277.486 225.795C277.615 225.841 277.755 225.864 277.906 225.864C278.016 225.864 278.113 225.857 278.196 225.841C278.28 225.826 278.344 225.814 278.39 225.804L278.64 226.945C278.56 226.975 278.446 227.006 278.298 227.037C278.15 227.071 277.966 227.089 277.744 227.092C277.381 227.098 277.042 227.034 276.728 226.898C276.415 226.763 276.161 226.554 275.967 226.271C275.773 225.987 275.676 225.632 275.676 225.204V218.21ZM280.037 227V219.909H281.418V227H280.037ZM280.734 218.815C280.494 218.815 280.288 218.735 280.116 218.575C279.946 218.412 279.862 218.218 279.862 217.993C279.862 217.766 279.946 217.572 280.116 217.412C280.288 217.248 280.494 217.167 280.734 217.167C280.974 217.167 281.179 217.248 281.348 217.412C281.521 217.572 281.607 217.766 281.607 217.993C281.607 218.218 281.521 218.412 281.348 218.575C281.179 218.735 280.974 218.815 280.734 218.815ZM286.261 227.143C285.597 227.143 285.017 226.991 284.521 226.686C284.026 226.381 283.641 225.955 283.367 225.407C283.093 224.859 282.956 224.219 282.956 223.487C282.956 222.751 283.093 222.108 283.367 221.557C283.641 221.006 284.026 220.578 284.521 220.274C285.017 219.969 285.597 219.817 286.261 219.817C286.926 219.817 287.506 219.969 288.002 220.274C288.497 220.578 288.882 221.006 289.156 221.557C289.43 222.108 289.567 222.751 289.567 223.487C289.567 224.219 289.43 224.859 289.156 225.407C288.882 225.955 288.497 226.381 288.002 226.686C287.506 226.991 286.926 227.143 286.261 227.143ZM286.266 225.984C286.697 225.984 287.054 225.871 287.337 225.643C287.62 225.415 287.83 225.112 287.965 224.733C288.103 224.355 288.173 223.938 288.173 223.482C288.173 223.03 288.103 222.614 287.965 222.236C287.83 221.854 287.62 221.548 287.337 221.317C287.054 221.086 286.697 220.971 286.266 220.971C285.832 220.971 285.472 221.086 285.186 221.317C284.903 221.548 284.692 221.854 284.553 222.236C284.418 222.614 284.35 223.03 284.35 223.482C284.35 223.938 284.418 224.355 284.553 224.733C284.692 225.112 284.903 225.415 285.186 225.643C285.472 225.871 285.832 225.984 286.266 225.984ZM292.488 222.79V227H291.108V219.909H292.433V221.063H292.52C292.683 220.688 292.939 220.386 293.287 220.158C293.637 219.931 294.079 219.817 294.612 219.817C295.095 219.817 295.518 219.918 295.881 220.121C296.244 220.321 296.526 220.62 296.726 221.017C296.926 221.414 297.026 221.905 297.026 222.49V227H295.646V222.656C295.646 222.142 295.512 221.74 295.244 221.451C294.976 221.159 294.608 221.012 294.141 221.012C293.821 221.012 293.536 221.082 293.287 221.22C293.04 221.359 292.845 221.562 292.7 221.83C292.559 222.094 292.488 222.414 292.488 222.79Z" fill="white"/>
<g filter="url(#filter4_d_1803_3)">
<path d="M434 169L479.899 195.5V248.5L434 275L388.101 248.5V195.5L434 169Z" fill="#09C928"/>
</g>
<path d="M396.945 219H395.431L398.833 209.545H400.481L403.884 219H402.37L399.697 211.263H399.623L396.945 219ZM397.199 215.298H402.111V216.498H397.199V215.298ZM408.011 219.143C407.325 219.143 406.734 218.988 406.238 218.677C405.746 218.363 405.367 217.931 405.103 217.38C404.838 216.829 404.706 216.198 404.706 215.487C404.706 214.767 404.841 214.131 405.112 213.58C405.383 213.026 405.764 212.594 406.257 212.283C406.749 211.972 407.329 211.817 407.997 211.817C408.536 211.817 409.016 211.917 409.437 212.117C409.859 212.314 410.199 212.591 410.458 212.948C410.719 213.305 410.875 213.722 410.924 214.199H409.581C409.507 213.866 409.337 213.58 409.073 213.34C408.811 213.1 408.46 212.98 408.02 212.98C407.635 212.98 407.298 213.082 407.009 213.285C406.723 213.485 406.5 213.771 406.34 214.143C406.18 214.513 406.1 214.95 406.1 215.455C406.1 215.972 406.178 216.418 406.335 216.793C406.492 217.169 406.714 217.46 407 217.666C407.289 217.872 407.629 217.975 408.02 217.975C408.282 217.975 408.519 217.927 408.731 217.832C408.947 217.734 409.127 217.594 409.271 217.412C409.419 217.23 409.522 217.012 409.581 216.756H410.924C410.875 217.215 410.725 217.624 410.476 217.984C410.227 218.344 409.893 218.628 409.474 218.834C409.059 219.04 408.571 219.143 408.011 219.143ZM415.387 219.143C414.701 219.143 414.11 218.988 413.614 218.677C413.122 218.363 412.743 217.931 412.479 217.38C412.214 216.829 412.082 216.198 412.082 215.487C412.082 214.767 412.217 214.131 412.488 213.58C412.759 213.026 413.14 212.594 413.633 212.283C414.125 211.972 414.705 211.817 415.373 211.817C415.912 211.817 416.392 211.917 416.813 212.117C417.235 212.314 417.575 212.591 417.834 212.948C418.095 213.305 418.251 213.722 418.3 214.199H416.957C416.883 213.866 416.713 213.58 416.449 213.34C416.187 213.1 415.836 212.98 415.396 212.98C415.011 212.98 414.674 213.082 414.385 213.285C414.099 213.485 413.876 213.771 413.716 214.143C413.556 214.513 413.476 214.95 413.476 215.455C413.476 215.972 413.554 216.418 413.711 216.793C413.868 217.169 414.09 217.46 414.376 217.666C414.665 217.872 415.005 217.975 415.396 217.975C415.658 217.975 415.895 217.927 416.107 217.832C416.323 217.734 416.503 217.594 416.647 217.412C416.795 217.23 416.898 217.012 416.957 216.756H418.3C418.251 217.215 418.101 217.624 417.852 217.984C417.603 218.344 417.269 218.628 416.85 218.834C416.435 219.04 415.947 219.143 415.387 219.143ZM422.832 219.143C422.134 219.143 421.532 218.994 421.027 218.695C420.525 218.394 420.138 217.971 419.864 217.426C419.593 216.878 419.458 216.236 419.458 215.501C419.458 214.774 419.593 214.134 419.864 213.58C420.138 213.026 420.519 212.594 421.009 212.283C421.501 211.972 422.077 211.817 422.735 211.817C423.135 211.817 423.523 211.883 423.899 212.015C424.274 212.148 424.611 212.355 424.91 212.638C425.208 212.922 425.444 213.289 425.616 213.742C425.788 214.191 425.874 214.737 425.874 215.381V215.87H420.238V214.836H424.522C424.522 214.473 424.448 214.151 424.3 213.871C424.152 213.588 423.945 213.365 423.677 213.202C423.412 213.039 423.101 212.957 422.744 212.957C422.357 212.957 422.018 213.052 421.729 213.243C421.443 213.431 421.221 213.677 421.064 213.982C420.91 214.283 420.833 214.611 420.833 214.965V215.773C420.833 216.247 420.916 216.65 421.083 216.983C421.252 217.315 421.487 217.569 421.789 217.744C422.09 217.917 422.443 218.003 422.846 218.003C423.108 218.003 423.346 217.966 423.562 217.892C423.777 217.815 423.963 217.701 424.12 217.55C424.277 217.4 424.397 217.213 424.48 216.992L425.787 217.227C425.682 217.612 425.494 217.949 425.223 218.238C424.956 218.525 424.619 218.748 424.212 218.908C423.809 219.065 423.349 219.143 422.832 219.143ZM427.406 221.659V211.909H428.754V213.059H428.869C428.949 212.911 429.065 212.74 429.216 212.546C429.366 212.352 429.576 212.183 429.843 212.038C430.111 211.891 430.465 211.817 430.905 211.817C431.478 211.817 431.989 211.961 432.438 212.251C432.887 212.54 433.24 212.957 433.495 213.502C433.754 214.047 433.883 214.702 433.883 215.468C433.883 216.235 433.755 216.892 433.5 217.44C433.244 217.984 432.893 218.404 432.447 218.7C432.001 218.992 431.492 219.138 430.919 219.138C430.488 219.138 430.136 219.066 429.862 218.922C429.591 218.777 429.379 218.608 429.225 218.414C429.071 218.22 428.952 218.047 428.869 217.897H428.786V221.659H427.406ZM428.759 215.455C428.759 215.953 428.831 216.39 428.976 216.766C429.12 217.141 429.329 217.435 429.603 217.647C429.877 217.857 430.213 217.961 430.61 217.961C431.022 217.961 431.367 217.852 431.644 217.634C431.921 217.412 432.13 217.112 432.272 216.733C432.416 216.355 432.489 215.929 432.489 215.455C432.489 214.987 432.418 214.567 432.276 214.194C432.138 213.822 431.929 213.528 431.648 213.312C431.371 213.097 431.025 212.989 430.61 212.989C430.21 212.989 429.871 213.092 429.594 213.299C429.32 213.505 429.112 213.793 428.971 214.162C428.829 214.531 428.759 214.962 428.759 215.455ZM438.739 211.909V213.017H434.866V211.909H438.739ZM435.905 210.21H437.285V216.918C437.285 217.186 437.325 217.387 437.405 217.523C437.485 217.655 437.588 217.746 437.715 217.795C437.844 217.841 437.984 217.864 438.135 217.864C438.245 217.864 438.342 217.857 438.425 217.841C438.509 217.826 438.573 217.814 438.619 217.804L438.869 218.945C438.789 218.975 438.675 219.006 438.527 219.037C438.379 219.071 438.195 219.089 437.973 219.092C437.61 219.098 437.271 219.034 436.957 218.898C436.644 218.763 436.39 218.554 436.196 218.271C436.002 217.987 435.905 217.632 435.905 217.204V210.21ZM442.33 219.157C441.881 219.157 441.474 219.074 441.111 218.908C440.748 218.738 440.46 218.494 440.248 218.174C440.039 217.854 439.934 217.461 439.934 216.996C439.934 216.596 440.011 216.267 440.165 216.009C440.319 215.75 440.526 215.545 440.788 215.395C441.05 215.244 441.342 215.13 441.665 215.053C441.988 214.976 442.318 214.917 442.653 214.877C443.078 214.828 443.422 214.788 443.687 214.757C443.952 214.724 444.144 214.67 444.264 214.596C444.384 214.522 444.444 214.402 444.444 214.236V214.203C444.444 213.8 444.33 213.488 444.103 213.266C443.878 213.045 443.542 212.934 443.096 212.934C442.631 212.934 442.265 213.037 441.997 213.243C441.733 213.446 441.55 213.673 441.448 213.922L440.151 213.626C440.305 213.196 440.529 212.848 440.825 212.583C441.123 212.315 441.467 212.121 441.854 212.001C442.242 211.878 442.65 211.817 443.078 211.817C443.361 211.817 443.661 211.851 443.978 211.918C444.298 211.983 444.597 212.103 444.874 212.278C445.154 212.454 445.383 212.705 445.561 213.031C445.74 213.354 445.829 213.774 445.829 214.291V219H444.481V218.031H444.426C444.336 218.209 444.203 218.384 444.024 218.557C443.846 218.729 443.616 218.872 443.336 218.986C443.056 219.1 442.721 219.157 442.33 219.157ZM442.63 218.049C443.012 218.049 443.338 217.974 443.609 217.823C443.883 217.672 444.09 217.475 444.232 217.232C444.376 216.986 444.449 216.723 444.449 216.442V215.528C444.4 215.578 444.304 215.624 444.163 215.667C444.024 215.707 443.866 215.742 443.687 215.773C443.509 215.801 443.335 215.827 443.165 215.852C442.996 215.873 442.855 215.892 442.741 215.907C442.473 215.941 442.228 215.998 442.007 216.078C441.788 216.158 441.613 216.273 441.48 216.424C441.351 216.572 441.287 216.769 441.287 217.015C441.287 217.357 441.413 217.615 441.665 217.79C441.917 217.963 442.239 218.049 442.63 218.049ZM449.048 214.79V219H447.668V211.909H448.993V213.063H449.08C449.243 212.688 449.499 212.386 449.847 212.158C450.197 211.931 450.639 211.817 451.172 211.817C451.655 211.817 452.078 211.918 452.441 212.121C452.804 212.321 453.086 212.62 453.286 213.017C453.486 213.414 453.586 213.905 453.586 214.49V219H452.206V214.656C452.206 214.142 452.072 213.74 451.804 213.451C451.536 213.159 451.168 213.012 450.701 213.012C450.381 213.012 450.096 213.082 449.847 213.22C449.6 213.359 449.405 213.562 449.26 213.83C449.119 214.094 449.048 214.414 449.048 214.79ZM458.424 219.143C457.738 219.143 457.147 218.988 456.651 218.677C456.159 218.363 455.78 217.931 455.516 217.38C455.251 216.829 455.119 216.198 455.119 215.487C455.119 214.767 455.254 214.131 455.525 213.58C455.796 213.026 456.177 212.594 456.67 212.283C457.162 211.972 457.742 211.817 458.41 211.817C458.949 211.817 459.429 211.917 459.851 212.117C460.272 212.314 460.612 212.591 460.871 212.948C461.132 213.305 461.288 213.722 461.337 214.199H459.994C459.92 213.866 459.751 213.58 459.486 213.34C459.224 213.1 458.873 212.98 458.433 212.98C458.049 212.98 457.712 213.082 457.422 213.285C457.136 213.485 456.913 213.771 456.753 214.143C456.593 214.513 456.513 214.95 456.513 215.455C456.513 215.972 456.591 216.418 456.748 216.793C456.905 217.169 457.127 217.46 457.413 217.666C457.702 217.872 458.042 217.975 458.433 217.975C458.695 217.975 458.932 217.927 459.144 217.832C459.36 217.734 459.54 217.594 459.684 217.412C459.832 217.23 459.935 217.012 459.994 216.756H461.337C461.288 217.215 461.139 217.624 460.889 217.984C460.64 218.344 460.306 218.628 459.887 218.834C459.472 219.04 458.984 219.143 458.424 219.143ZM465.869 219.143C465.171 219.143 464.569 218.994 464.064 218.695C463.563 218.394 463.175 217.971 462.901 217.426C462.63 216.878 462.495 216.236 462.495 215.501C462.495 214.774 462.63 214.134 462.901 213.58C463.175 213.026 463.556 212.594 464.046 212.283C464.538 211.972 465.114 211.817 465.772 211.817C466.172 211.817 466.56 211.883 466.936 212.015C467.311 212.148 467.648 212.355 467.947 212.638C468.245 212.922 468.481 213.289 468.653 213.742C468.825 214.191 468.912 214.737 468.912 215.381V215.87H463.275V214.836H467.559C467.559 214.473 467.485 214.151 467.337 213.871C467.19 213.588 466.982 213.365 466.714 213.202C466.449 213.039 466.139 212.957 465.782 212.957C465.394 212.957 465.055 213.052 464.766 213.243C464.48 213.431 464.258 213.677 464.101 213.982C463.947 214.283 463.87 214.611 463.87 214.965V215.773C463.87 216.247 463.953 216.65 464.12 216.983C464.289 217.315 464.524 217.569 464.826 217.744C465.128 217.917 465.48 218.003 465.883 218.003C466.145 218.003 466.383 217.966 466.599 217.892C466.814 217.815 467 217.701 467.157 217.55C467.314 217.4 467.434 217.213 467.517 216.992L468.824 217.227C468.719 217.612 468.531 217.949 468.261 218.238C467.993 218.525 467.656 218.748 467.25 218.908C466.846 219.065 466.386 219.143 465.869 219.143ZM411.619 226.773V225.545H418.936V226.773H415.987V235H414.565V226.773H411.619ZM422.47 235.143C421.772 235.143 421.17 234.994 420.665 234.695C420.164 234.394 419.776 233.971 419.502 233.426C419.231 232.878 419.096 232.236 419.096 231.501C419.096 230.774 419.231 230.134 419.502 229.58C419.776 229.026 420.157 228.594 420.647 228.283C421.139 227.972 421.715 227.817 422.373 227.817C422.773 227.817 423.161 227.883 423.537 228.015C423.912 228.148 424.249 228.355 424.548 228.638C424.846 228.922 425.082 229.289 425.254 229.742C425.426 230.191 425.513 230.737 425.513 231.381V231.87H419.876V230.836H424.16C424.16 230.473 424.086 230.151 423.938 229.871C423.791 229.588 423.583 229.365 423.315 229.202C423.05 229.039 422.74 228.957 422.383 228.957C421.995 228.957 421.656 229.052 421.367 229.243C421.081 229.431 420.859 229.677 420.702 229.982C420.548 230.283 420.471 230.611 420.471 230.965V231.773C420.471 232.247 420.555 232.65 420.721 232.983C420.89 233.315 421.125 233.569 421.427 233.744C421.729 233.917 422.081 234.003 422.484 234.003C422.746 234.003 422.984 233.966 423.2 233.892C423.415 233.815 423.601 233.701 423.758 233.55C423.915 233.4 424.035 233.213 424.118 232.992L425.425 233.227C425.32 233.612 425.133 233.949 424.862 234.238C424.594 234.525 424.257 234.748 423.851 234.908C423.448 235.065 422.987 235.143 422.47 235.143ZM432.358 229.64L431.107 229.862C431.054 229.702 430.971 229.549 430.857 229.405C430.747 229.26 430.596 229.142 430.405 229.049C430.214 228.957 429.976 228.911 429.689 228.911C429.299 228.911 428.972 228.999 428.711 229.174C428.449 229.346 428.318 229.569 428.318 229.843C428.318 230.08 428.406 230.271 428.581 230.416C428.757 230.56 429.04 230.679 429.431 230.771L430.557 231.03C431.21 231.181 431.696 231.413 432.016 231.727C432.336 232.041 432.496 232.449 432.496 232.95C432.496 233.375 432.373 233.754 432.127 234.086C431.884 234.415 431.544 234.674 431.107 234.862C430.673 235.049 430.169 235.143 429.597 235.143C428.803 235.143 428.155 234.974 427.653 234.635C427.152 234.294 426.844 233.809 426.73 233.181L428.064 232.978C428.147 233.326 428.318 233.589 428.577 233.767C428.835 233.943 429.172 234.031 429.588 234.031C430.04 234.031 430.402 233.937 430.673 233.749C430.944 233.558 431.079 233.326 431.079 233.052C431.079 232.83 430.996 232.644 430.83 232.493C430.667 232.342 430.416 232.229 430.077 232.152L428.877 231.888C428.215 231.738 427.726 231.498 427.409 231.168C427.095 230.839 426.938 230.422 426.938 229.917C426.938 229.499 427.055 229.132 427.289 228.819C427.523 228.505 427.846 228.26 428.258 228.085C428.671 227.906 429.143 227.817 429.676 227.817C430.442 227.817 431.045 227.983 431.485 228.315C431.925 228.645 432.216 229.086 432.358 229.64ZM437.324 227.909V229.017H433.451V227.909H437.324ZM434.489 226.21H435.87V232.918C435.87 233.186 435.91 233.387 435.99 233.523C436.07 233.655 436.173 233.746 436.299 233.795C436.428 233.841 436.568 233.864 436.719 233.864C436.83 233.864 436.927 233.857 437.01 233.841C437.093 233.826 437.158 233.814 437.204 233.804L437.453 234.945C437.373 234.975 437.259 235.006 437.112 235.037C436.964 235.071 436.779 235.089 436.558 235.092C436.194 235.098 435.856 235.034 435.542 234.898C435.228 234.763 434.974 234.554 434.78 234.271C434.586 233.987 434.489 233.632 434.489 233.204V226.21ZM438.851 235V227.909H440.231V235H438.851ZM439.548 226.815C439.308 226.815 439.102 226.735 438.929 226.575C438.76 226.412 438.675 226.218 438.675 225.993C438.675 225.766 438.76 225.572 438.929 225.412C439.102 225.248 439.308 225.167 439.548 225.167C439.788 225.167 439.993 225.248 440.162 225.412C440.334 225.572 440.42 225.766 440.42 225.993C440.42 226.218 440.334 226.412 440.162 226.575C439.993 226.735 439.788 226.815 439.548 226.815ZM443.468 230.79V235H442.088V227.909H443.413V229.063H443.501C443.664 228.688 443.919 228.386 444.267 228.158C444.618 227.931 445.06 227.817 445.592 227.817C446.075 227.817 446.498 227.918 446.862 228.121C447.225 228.321 447.506 228.62 447.706 229.017C447.906 229.414 448.006 229.905 448.006 230.49V235H446.626V230.656C446.626 230.142 446.492 229.74 446.224 229.451C445.957 229.159 445.589 229.012 445.121 229.012C444.801 229.012 444.516 229.082 444.267 229.22C444.021 229.359 443.825 229.562 443.681 229.83C443.539 230.094 443.468 230.414 443.468 230.79ZM452.831 237.807C452.267 237.807 451.783 237.733 451.376 237.585C450.973 237.438 450.644 237.242 450.388 236.999C450.133 236.756 449.942 236.49 449.816 236.2L451.002 235.711C451.086 235.846 451.196 235.989 451.335 236.14C451.476 236.294 451.667 236.425 451.907 236.533C452.15 236.64 452.463 236.694 452.844 236.694C453.368 236.694 453.8 236.567 454.142 236.311C454.483 236.059 454.654 235.656 454.654 235.102V233.707H454.566C454.483 233.858 454.363 234.026 454.206 234.211C454.052 234.395 453.84 234.555 453.569 234.691C453.298 234.826 452.946 234.894 452.512 234.894C451.952 234.894 451.447 234.763 450.998 234.501C450.552 234.237 450.198 233.847 449.936 233.333C449.678 232.816 449.548 232.181 449.548 231.427C449.548 230.673 449.676 230.027 449.931 229.488C450.19 228.949 450.544 228.537 450.993 228.251C451.443 227.961 451.952 227.817 452.521 227.817C452.961 227.817 453.317 227.891 453.588 228.038C453.859 228.183 454.069 228.352 454.22 228.546C454.374 228.74 454.493 228.911 454.576 229.059H454.677V227.909H456.03V235.157C456.03 235.766 455.888 236.266 455.605 236.657C455.322 237.048 454.939 237.337 454.456 237.525C453.975 237.713 453.434 237.807 452.831 237.807ZM452.817 233.749C453.214 233.749 453.549 233.657 453.823 233.472C454.1 233.284 454.309 233.016 454.451 232.669C454.596 232.318 454.668 231.898 454.668 231.408C454.668 230.931 454.597 230.511 454.456 230.148C454.314 229.785 454.106 229.502 453.832 229.299C453.558 229.092 453.22 228.989 452.817 228.989C452.401 228.989 452.055 229.097 451.778 229.312C451.501 229.525 451.292 229.814 451.15 230.18C451.012 230.547 450.942 230.956 450.942 231.408C450.942 231.873 451.013 232.281 451.155 232.632C451.296 232.983 451.506 233.257 451.783 233.453C452.063 233.65 452.407 233.749 452.817 233.749Z" fill="white"/>
<g filter="url(#filter5_d_1803_3)">
<path d="M596 169L641.899 195.5V248.5L596 275L550.101 248.5V195.5L596 169Z" fill="#7B3FE4"/>
</g>
<path d="M572.319 219V209.545H578.182V210.773H573.746V213.654H577.762V214.877H573.746V219H572.319ZM582.361 219.143C581.663 219.143 581.061 218.994 580.556 218.695C580.055 218.394 579.667 217.971 579.393 217.426C579.122 216.878 578.987 216.236 578.987 215.501C578.987 214.774 579.122 214.134 579.393 213.58C579.667 213.026 580.049 212.594 580.538 212.283C581.03 211.972 581.606 211.817 582.265 211.817C582.665 211.817 583.052 211.883 583.428 212.015C583.803 212.148 584.14 212.355 584.439 212.638C584.737 212.922 584.973 213.289 585.145 213.742C585.318 214.191 585.404 214.737 585.404 215.381V215.87H579.767V214.836H584.051C584.051 214.473 583.977 214.151 583.83 213.871C583.682 213.588 583.474 213.365 583.206 213.202C582.942 213.039 582.631 212.957 582.274 212.957C581.886 212.957 581.547 213.052 581.258 213.243C580.972 213.431 580.75 213.677 580.593 213.982C580.439 214.283 580.363 214.611 580.363 214.965V215.773C580.363 216.247 580.446 216.65 580.612 216.983C580.781 217.315 581.017 217.569 581.318 217.744C581.62 217.917 581.972 218.003 582.375 218.003C582.637 218.003 582.875 217.966 583.091 217.892C583.306 217.815 583.492 217.701 583.649 217.55C583.806 217.4 583.926 217.213 584.01 216.992L585.316 217.227C585.211 217.612 585.024 217.949 584.753 218.238C584.485 218.525 584.148 218.748 583.742 218.908C583.339 219.065 582.879 219.143 582.361 219.143ZM588.999 219.157C588.549 219.157 588.143 219.074 587.78 218.908C587.417 218.738 587.129 218.494 586.917 218.174C586.707 217.854 586.603 217.461 586.603 216.996C586.603 216.596 586.68 216.267 586.834 216.009C586.988 215.75 587.195 215.545 587.457 215.395C587.718 215.244 588.011 215.13 588.334 215.053C588.657 214.976 588.986 214.917 589.322 214.877C589.747 214.828 590.091 214.788 590.356 214.757C590.621 214.724 590.813 214.67 590.933 214.596C591.053 214.522 591.113 214.402 591.113 214.236V214.203C591.113 213.8 590.999 213.488 590.772 213.266C590.547 213.045 590.211 212.934 589.765 212.934C589.3 212.934 588.934 213.037 588.666 213.243C588.402 213.446 588.219 213.673 588.117 213.922L586.82 213.626C586.974 213.196 587.198 212.848 587.494 212.583C587.792 212.315 588.136 212.121 588.523 212.001C588.911 211.878 589.319 211.817 589.747 211.817C590.03 211.817 590.33 211.851 590.647 211.918C590.967 211.983 591.265 212.103 591.542 212.278C591.823 212.454 592.052 212.705 592.23 213.031C592.409 213.354 592.498 213.774 592.498 214.291V219H591.15V218.031H591.095C591.005 218.209 590.872 218.384 590.693 218.557C590.515 218.729 590.285 218.872 590.005 218.986C589.725 219.1 589.39 219.157 588.999 219.157ZM589.299 218.049C589.681 218.049 590.007 217.974 590.278 217.823C590.551 217.672 590.759 217.475 590.901 217.232C591.045 216.986 591.118 216.723 591.118 216.442V215.528C591.069 215.578 590.973 215.624 590.832 215.667C590.693 215.707 590.535 215.742 590.356 215.773C590.178 215.801 590.004 215.827 589.834 215.852C589.665 215.873 589.524 215.892 589.41 215.907C589.142 215.941 588.897 215.998 588.676 216.078C588.457 216.158 588.282 216.273 588.149 216.424C588.02 216.572 587.955 216.769 587.955 217.015C587.955 217.357 588.082 217.615 588.334 217.79C588.586 217.963 588.908 218.049 589.299 218.049ZM597.647 211.909V213.017H593.773V211.909H597.647ZM594.812 210.21H596.192V216.918C596.192 217.186 596.232 217.387 596.312 217.523C596.392 217.655 596.496 217.746 596.622 217.795C596.751 217.841 596.891 217.864 597.042 217.864C597.153 217.864 597.25 217.857 597.333 217.841C597.416 217.826 597.48 217.814 597.527 217.804L597.776 218.945C597.696 218.975 597.582 219.006 597.434 219.037C597.287 219.071 597.102 219.089 596.88 219.092C596.517 219.098 596.179 219.034 595.865 218.898C595.551 218.763 595.297 218.554 595.103 218.271C594.909 217.987 594.812 217.632 594.812 217.204V210.21ZM603.665 216.059V211.909H605.05V219H603.693V217.772H603.619C603.456 218.151 603.194 218.466 602.834 218.718C602.477 218.968 602.033 219.092 601.5 219.092C601.045 219.092 600.642 218.992 600.291 218.792C599.943 218.589 599.669 218.289 599.469 217.892C599.272 217.495 599.174 217.004 599.174 216.419V211.909H600.554V216.253C600.554 216.736 600.688 217.121 600.955 217.407C601.223 217.694 601.571 217.837 601.999 217.837C602.257 217.837 602.514 217.772 602.77 217.643C603.028 217.513 603.242 217.318 603.411 217.056C603.584 216.795 603.668 216.462 603.665 216.059ZM606.905 219V211.909H608.239V213.036H608.313C608.442 212.654 608.67 212.354 608.996 212.135C609.326 211.914 609.698 211.803 610.113 211.803C610.2 211.803 610.301 211.806 610.418 211.812C610.538 211.818 610.632 211.826 610.7 211.835V213.156C610.644 213.14 610.546 213.123 610.404 213.105C610.263 213.083 610.121 213.072 609.98 213.072C609.653 213.072 609.362 213.142 609.107 213.28C608.855 213.416 608.655 213.605 608.507 213.848C608.359 214.088 608.285 214.362 608.285 214.67V219H606.905ZM614.696 219.143C613.998 219.143 613.396 218.994 612.891 218.695C612.39 218.394 612.002 217.971 611.728 217.426C611.457 216.878 611.322 216.236 611.322 215.501C611.322 214.774 611.457 214.134 611.728 213.58C612.002 213.026 612.384 212.594 612.873 212.283C613.365 211.972 613.941 211.817 614.599 211.817C615 211.817 615.387 211.883 615.763 212.015C616.138 212.148 616.475 212.355 616.774 212.638C617.072 212.922 617.308 213.289 617.48 213.742C617.653 214.191 617.739 214.737 617.739 215.381V215.87H612.102V214.836H616.386C616.386 214.473 616.312 214.151 616.164 213.871C616.017 213.588 615.809 213.365 615.541 213.202C615.277 213.039 614.966 212.957 614.609 212.957C614.221 212.957 613.882 213.052 613.593 213.243C613.307 213.431 613.085 213.677 612.928 213.982C612.774 214.283 612.697 214.611 612.697 214.965V215.773C612.697 216.247 612.781 216.65 612.947 216.983C613.116 217.315 613.351 217.569 613.653 217.744C613.955 217.917 614.307 218.003 614.71 218.003C614.972 218.003 615.21 217.966 615.426 217.892C615.641 217.815 615.827 217.701 615.984 217.55C616.141 217.4 616.261 217.213 616.345 216.992L617.651 217.227C617.546 217.612 617.359 217.949 617.088 218.238C616.82 218.525 616.483 218.748 616.077 218.908C615.674 219.065 615.213 219.143 614.696 219.143ZM573.145 235V225.545H576.515C577.247 225.545 577.855 225.672 578.338 225.924C578.824 226.176 579.188 226.526 579.428 226.972C579.668 227.415 579.788 227.928 579.788 228.509C579.788 229.088 579.666 229.597 579.423 230.037C579.183 230.474 578.82 230.814 578.334 231.058C577.85 231.301 577.243 231.422 576.51 231.422H573.957V230.194H576.381C576.842 230.194 577.218 230.128 577.507 229.996C577.8 229.863 578.014 229.671 578.149 229.419C578.284 229.166 578.352 228.863 578.352 228.509C578.352 228.152 578.283 227.843 578.144 227.581C578.009 227.32 577.795 227.12 577.503 226.981C577.213 226.84 576.833 226.769 576.362 226.769H574.571V235H573.145ZM577.812 230.734L580.148 235H578.523L576.233 230.734H577.812ZM584.38 235.143C583.681 235.143 583.08 234.994 582.575 234.695C582.073 234.394 581.686 233.971 581.412 233.426C581.141 232.878 581.005 232.236 581.005 231.501C581.005 230.774 581.141 230.134 581.412 229.58C581.686 229.026 582.067 228.594 582.557 228.283C583.049 227.972 583.624 227.817 584.283 227.817C584.683 227.817 585.071 227.883 585.446 228.015C585.822 228.148 586.159 228.355 586.457 228.638C586.756 228.922 586.991 229.289 587.164 229.742C587.336 230.191 587.422 230.737 587.422 231.381V231.87H581.786V230.836H586.07C586.07 230.473 585.996 230.151 585.848 229.871C585.7 229.588 585.493 229.365 585.225 229.202C584.96 229.039 584.649 228.957 584.292 228.957C583.905 228.957 583.566 229.052 583.277 229.243C582.99 229.431 582.769 229.677 582.612 229.982C582.458 230.283 582.381 230.611 582.381 230.965V231.773C582.381 232.247 582.464 232.65 582.63 232.983C582.8 233.315 583.035 233.569 583.337 233.744C583.638 233.917 583.991 234.003 584.394 234.003C584.655 234.003 584.894 233.966 585.109 233.892C585.325 233.815 585.511 233.701 585.668 233.55C585.825 233.4 585.945 233.213 586.028 232.992L587.335 233.227C587.23 233.612 587.042 233.949 586.771 234.238C586.504 234.525 586.167 234.748 585.76 234.908C585.357 235.065 584.897 235.143 584.38 235.143ZM590.334 225.545V235H588.954V225.545H590.334ZM595.247 235.143C594.549 235.143 593.947 234.994 593.442 234.695C592.941 234.394 592.553 233.971 592.279 233.426C592.008 232.878 591.873 232.236 591.873 231.501C591.873 230.774 592.008 230.134 592.279 229.58C592.553 229.026 592.934 228.594 593.424 228.283C593.916 227.972 594.492 227.817 595.15 227.817C595.55 227.817 595.938 227.883 596.314 228.015C596.689 228.148 597.026 228.355 597.325 228.638C597.623 228.922 597.859 229.289 598.031 229.742C598.203 230.191 598.289 230.737 598.289 231.381V231.87H592.653V230.836H596.937C596.937 230.473 596.863 230.151 596.715 229.871C596.568 229.588 596.36 229.365 596.092 229.202C595.827 229.039 595.516 228.957 595.159 228.957C594.772 228.957 594.433 229.052 594.144 229.243C593.858 229.431 593.636 229.677 593.479 229.982C593.325 230.283 593.248 230.611 593.248 230.965V231.773C593.248 232.247 593.331 232.65 593.498 232.983C593.667 233.315 593.902 233.569 594.204 233.744C594.505 233.917 594.858 234.003 595.261 234.003C595.523 234.003 595.761 233.966 595.977 233.892C596.192 233.815 596.378 233.701 596.535 233.55C596.692 233.4 596.812 233.213 596.895 232.992L598.202 233.227C598.097 233.612 597.909 233.949 597.639 234.238C597.371 234.525 597.034 234.748 596.628 234.908C596.224 235.065 595.764 235.143 595.247 235.143ZM601.885 235.157C601.435 235.157 601.029 235.074 600.666 234.908C600.303 234.738 600.015 234.494 599.803 234.174C599.593 233.854 599.489 233.461 599.489 232.996C599.489 232.596 599.566 232.267 599.719 232.009C599.873 231.75 600.081 231.545 600.343 231.395C600.604 231.244 600.897 231.13 601.22 231.053C601.543 230.976 601.872 230.917 602.208 230.877C602.632 230.828 602.977 230.788 603.242 230.757C603.506 230.724 603.699 230.67 603.819 230.596C603.939 230.522 603.999 230.402 603.999 230.236V230.203C603.999 229.8 603.885 229.488 603.657 229.266C603.433 229.045 603.097 228.934 602.651 228.934C602.186 228.934 601.82 229.037 601.552 229.243C601.287 229.446 601.104 229.673 601.003 229.922L599.706 229.626C599.859 229.196 600.084 228.848 600.38 228.583C600.678 228.315 601.021 228.121 601.409 228.001C601.797 227.878 602.205 227.817 602.632 227.817C602.916 227.817 603.216 227.851 603.533 227.918C603.853 227.983 604.151 228.103 604.428 228.278C604.708 228.454 604.938 228.705 605.116 229.031C605.295 229.354 605.384 229.774 605.384 230.291V235H604.036V234.031H603.98C603.891 234.209 603.757 234.384 603.579 234.557C603.4 234.729 603.171 234.872 602.891 234.986C602.611 235.1 602.275 235.157 601.885 235.157ZM602.185 234.049C602.566 234.049 602.892 233.974 603.163 233.823C603.437 233.672 603.645 233.475 603.787 233.232C603.931 232.986 604.004 232.723 604.004 232.442V231.528C603.954 231.578 603.859 231.624 603.717 231.667C603.579 231.707 603.42 231.742 603.242 231.773C603.063 231.801 602.889 231.827 602.72 231.852C602.551 231.873 602.409 231.892 602.295 231.907C602.028 231.941 601.783 231.998 601.561 232.078C601.343 232.158 601.167 232.273 601.035 232.424C600.906 232.572 600.841 232.769 600.841 233.015C600.841 233.357 600.967 233.615 601.22 233.79C601.472 233.963 601.794 234.049 602.185 234.049ZM612.536 229.64L611.285 229.862C611.233 229.702 611.149 229.549 611.036 229.405C610.925 229.26 610.774 229.142 610.583 229.049C610.392 228.957 610.154 228.911 609.868 228.911C609.477 228.911 609.15 228.999 608.889 229.174C608.627 229.346 608.496 229.569 608.496 229.843C608.496 230.08 608.584 230.271 608.76 230.416C608.935 230.56 609.218 230.679 609.609 230.771L610.735 231.03C611.388 231.181 611.874 231.413 612.194 231.727C612.514 232.041 612.674 232.449 612.674 232.95C612.674 233.375 612.551 233.754 612.305 234.086C612.062 234.415 611.722 234.674 611.285 234.862C610.851 235.049 610.348 235.143 609.775 235.143C608.981 235.143 608.333 234.974 607.832 234.635C607.33 234.294 607.022 233.809 606.908 233.181L608.243 232.978C608.326 233.326 608.496 233.589 608.755 233.767C609.014 233.943 609.351 234.031 609.766 234.031C610.218 234.031 610.58 233.937 610.851 233.749C611.122 233.558 611.257 233.326 611.257 233.052C611.257 232.83 611.174 232.644 611.008 232.493C610.845 232.342 610.594 232.229 610.255 232.152L609.055 231.888C608.393 231.738 607.904 231.498 607.587 231.168C607.273 230.839 607.116 230.422 607.116 229.917C607.116 229.499 607.233 229.132 607.467 228.819C607.701 228.505 608.024 228.26 608.436 228.085C608.849 227.906 609.321 227.817 609.854 227.817C610.62 227.817 611.223 227.983 611.663 228.315C612.104 228.645 612.394 229.086 612.536 229.64ZM617.248 235.143C616.55 235.143 615.948 234.994 615.443 234.695C614.941 234.394 614.554 233.971 614.28 233.426C614.009 232.878 613.874 232.236 613.874 231.501C613.874 230.774 614.009 230.134 614.28 229.58C614.554 229.026 614.935 228.594 615.425 228.283C615.917 227.972 616.493 227.817 617.151 227.817C617.551 227.817 617.939 227.883 618.315 228.015C618.69 228.148 619.027 228.355 619.326 228.638C619.624 228.922 619.86 229.289 620.032 229.742C620.204 230.191 620.29 230.737 620.29 231.381V231.87H614.654V230.836H618.938C618.938 230.473 618.864 230.151 618.716 229.871C618.568 229.588 618.361 229.365 618.093 229.202C617.828 229.039 617.517 228.957 617.16 228.957C616.773 228.957 616.434 229.052 616.145 229.243C615.859 229.431 615.637 229.677 615.48 229.982C615.326 230.283 615.249 230.611 615.249 230.965V231.773C615.249 232.247 615.332 232.65 615.499 232.983C615.668 233.315 615.903 233.569 616.205 233.744C616.506 233.917 616.859 234.003 617.262 234.003C617.524 234.003 617.762 233.966 617.978 233.892C618.193 233.815 618.379 233.701 618.536 233.55C618.693 233.4 618.813 233.213 618.896 232.992L620.203 233.227C620.098 233.612 619.91 233.949 619.64 234.238C619.372 234.525 619.035 234.748 618.629 234.908C618.225 235.065 617.765 235.143 617.248 235.143Z" fill="white"/>
<path d="M1 57V56.5H0.5V57H1ZM1 222H0.5V222.5H1V222ZM57 222L52 219.113V224.887L57 222ZM57 56.5H1V57.5H57V56.5ZM0.5 57V222H1.5V57H0.5ZM1 222.5H52.5V221.5H1V222.5Z" fill="black"/>
<path d="M434 57H434.5V56.5H434V57ZM434 169L436.887 164H431.113L434 169ZM163 57.5H163.996V56.5H163V57.5ZM165.989 57.5H167.982V56.5H165.989V57.5ZM169.974 57.5H171.967V56.5H169.974V57.5ZM173.96 57.5H175.952V56.5H173.96V57.5ZM177.945 57.5H179.938V56.5H177.945V57.5ZM181.93 57.5H183.923V56.5H181.93V57.5ZM185.915 57.5H187.908V56.5H185.915V57.5ZM189.901 57.5H191.893V56.5H189.901V57.5ZM193.886 57.5H195.879V56.5H193.886V57.5ZM197.871 57.5H199.864V56.5H197.871V57.5ZM201.857 57.5H203.849V56.5H201.857V57.5ZM205.842 57.5H207.835V56.5H205.842V57.5ZM209.827 57.5H211.82V56.5H209.827V57.5ZM213.812 57.5H215.805V56.5H213.812V57.5ZM217.798 57.5H219.79V56.5H217.798V57.5ZM221.783 57.5H223.776V56.5H221.783V57.5ZM225.768 57.5H227.761V56.5H225.768V57.5ZM229.754 57.5H231.746V56.5H229.754V57.5ZM233.739 57.5H235.732V56.5H233.739V57.5ZM237.724 57.5H239.717V56.5H237.724V57.5ZM241.71 57.5H243.702V56.5H241.71V57.5ZM245.695 57.5H247.687V56.5H245.695V57.5ZM249.68 57.5H251.673V56.5H249.68V57.5ZM253.665 57.5H255.658V56.5H253.665V57.5ZM257.651 57.5H259.643V56.5H257.651V57.5ZM261.636 57.5H263.629V56.5H261.636V57.5ZM265.621 57.5H267.614V56.5H265.621V57.5ZM269.607 57.5H271.599V56.5H269.607V57.5ZM273.592 57.5H275.584V56.5H273.592V57.5ZM277.577 57.5H279.57V56.5H277.577V57.5ZM281.562 57.5H283.555V56.5H281.562V57.5ZM285.548 57.5H287.54V56.5H285.548V57.5ZM289.533 57.5H291.526V56.5H289.533V57.5ZM293.518 57.5H295.511V56.5H293.518V57.5ZM297.504 57.5H299.496V56.5H297.504V57.5ZM301.489 57.5H303.482V56.5H301.489V57.5ZM305.474 57.5H307.467V56.5H305.474V57.5ZM309.459 57.5H311.452V56.5H309.459V57.5ZM313.445 57.5H315.437V56.5H313.445V57.5ZM317.43 57.5H319.423V56.5H317.43V57.5ZM321.415 57.5H323.408V56.5H321.415V57.5ZM325.401 57.5H327.393V56.5H325.401V57.5ZM329.386 57.5H331.379V56.5H329.386V57.5ZM333.371 57.5H335.364V56.5H333.371V57.5ZM337.356 57.5H339.349V56.5H337.356V57.5ZM341.342 57.5H343.334V56.5H341.342V57.5ZM345.327 57.5H347.32V56.5H345.327V57.5ZM349.312 57.5H351.305V56.5H349.312V57.5ZM353.298 57.5H355.29V56.5H353.298V57.5ZM357.283 57.5H359.276V56.5H357.283V57.5ZM361.268 57.5H363.261V56.5H361.268V57.5ZM365.254 57.5H367.246V56.5H365.254V57.5ZM369.239 57.5H371.231V56.5H369.239V57.5ZM373.224 57.5H375.217V56.5H373.224V57.5ZM377.209 57.5H379.202V56.5H377.209V57.5ZM381.195 57.5H383.187V56.5H381.195V57.5ZM385.18 57.5H387.173V56.5H385.18V57.5ZM389.165 57.5H391.158V56.5H389.165V57.5ZM393.151 57.5H395.143V56.5H393.151V57.5ZM397.136 57.5H399.129V56.5H397.136V57.5ZM401.121 57.5H403.114V56.5H401.121V57.5ZM405.106 57.5H407.099V56.5H405.106V57.5ZM409.092 57.5H411.084V56.5H409.092V57.5ZM413.077 57.5H415.07V56.5H413.077V57.5ZM417.062 57.5H419.055V56.5H417.062V57.5ZM421.048 57.5H423.04V56.5H421.048V57.5ZM425.033 57.5H427.026V56.5H425.033V57.5ZM429.018 57.5H431.011V56.5H429.018V57.5ZM433.003 57.5H434V56.5H433.003V57.5ZM433.5 57V58H434.5V57H433.5ZM433.5 60V62H434.5V60H433.5ZM433.5 64V66H434.5V64H433.5ZM433.5 68V70H434.5V68H433.5ZM433.5 72V74H434.5V72H433.5ZM433.5 76V78H434.5V76H433.5ZM433.5 80V82H434.5V80H433.5ZM433.5 84V86H434.5V84H433.5ZM433.5 88V90H434.5V88H433.5ZM433.5 92V94H434.5V92H433.5ZM433.5 96V98H434.5V96H433.5ZM433.5 100V102H434.5V100H433.5ZM433.5 104V106H434.5V104H433.5ZM433.5 108V110H434.5V108H433.5ZM433.5 112V114H434.5V112H433.5ZM433.5 116V118H434.5V116H433.5ZM433.5 120V122H434.5V120H433.5ZM433.5 124V126H434.5V124H433.5ZM433.5 128V130H434.5V128H433.5ZM433.5 132V134H434.5V132H433.5ZM433.5 136V138H434.5V136H433.5ZM433.5 140V142H434.5V140H433.5ZM433.5 144V146H434.5V144H433.5ZM433.5 148V150H434.5V148H433.5ZM433.5 152V154H434.5V152H433.5ZM433.5 156V158H434.5V156H433.5ZM433.5 160V162H434.5V160H433.5ZM433.5 164V166H434.5V164H433.5Z" fill="black"/>
<path d="M219 222L214 219.113V224.887L219 222ZM163 222.5H214.5V221.5H163V222.5Z" fill="black"/>
<path d="M381 225L376 222.113L376 227.887L381 225ZM325 225.5L376.5 225.5L376.5 224.5L325 224.5L325 225.5Z" fill="black"/>
<path d="M543 225L538 222.113L538 227.887L543 225ZM487 225.5L538.5 225.5L538.5 224.5L487 224.5L487 225.5Z" fill="black"/>
<path d="M110 169L112.887 164H107.113L110 169ZM110 138V137.5H109.5V138H110ZM246 138H246.5V137.5H246V138ZM110.5 166.094V164.156H109.5V166.094H110.5ZM110.5 162.219V160.281H109.5V162.219H110.5ZM110.5 158.344V156.406H109.5V158.344H110.5ZM110.5 154.469V152.531H109.5V154.469H110.5ZM110.5 150.594V148.656H109.5V150.594H110.5ZM110.5 146.719V144.781H109.5V146.719H110.5ZM110.5 142.844V140.906H109.5V142.844H110.5ZM110.5 138.969V138H109.5V138.969H110.5ZM110 138.5H111V137.5H110V138.5ZM113 138.5H115V137.5H113V138.5ZM117 138.5H119V137.5H117V138.5ZM121 138.5H123V137.5H121V138.5ZM125 138.5H127V137.5H125V138.5ZM129 138.5H131V137.5H129V138.5ZM133 138.5H135V137.5H133V138.5ZM137 138.5H139V137.5H137V138.5ZM141 138.5H143V137.5H141V138.5ZM145 138.5H147V137.5H145V138.5ZM149 138.5H151V137.5H149V138.5ZM153 138.5H155V137.5H153V138.5ZM157 138.5H159V137.5H157V138.5ZM161 138.5H163V137.5H161V138.5ZM165 138.5H167V137.5H165V138.5ZM169 138.5H171V137.5H169V138.5ZM173 138.5H175V137.5H173V138.5ZM177 138.5H179V137.5H177V138.5ZM181 138.5H183V137.5H181V138.5ZM185 138.5H187V137.5H185V138.5ZM189 138.5H191V137.5H189V138.5ZM193 138.5H195V137.5H193V138.5ZM197 138.5H199V137.5H197V138.5ZM201 138.5H203V137.5H201V138.5ZM205 138.5H207V137.5H205V138.5ZM209 138.5H211V137.5H209V138.5ZM213 138.5H215V137.5H213V138.5ZM217 138.5H219V137.5H217V138.5ZM221 138.5H223V137.5H221V138.5ZM225 138.5H227V137.5H225V138.5ZM229 138.5H231V137.5H229V138.5ZM233 138.5H235V137.5H233V138.5ZM237 138.5H239V137.5H237V138.5ZM241 138.5H243V137.5H241V138.5ZM245 138.5H246V137.5H245V138.5ZM245.5 138V138.969H246.5V138H245.5ZM245.5 140.906V142.844H246.5V140.906H245.5ZM245.5 144.781V146.719H246.5V144.781H245.5ZM245.5 148.656V150.594H246.5V148.656H245.5ZM245.5 152.531V154.469H246.5V152.531H245.5ZM245.5 156.406V158.344H246.5V156.406H245.5ZM245.5 160.281V162.219H246.5V160.281H245.5ZM245.5 164.156V166.094H246.5V164.156H245.5ZM245.5 168.031V169H246.5V168.031H245.5Z" fill="black"/>
<path d="M290 169L292.887 164H287.113L290 169ZM290 138V137.5H289.5V138H290ZM426 138H426.5V137.5H426V138ZM290.5 166.094V164.156H289.5V166.094H290.5ZM290.5 162.219V160.281H289.5V162.219H290.5ZM290.5 158.344V156.406H289.5V158.344H290.5ZM290.5 154.469V152.531H289.5V154.469H290.5ZM290.5 150.594V148.656H289.5V150.594H290.5ZM290.5 146.719V144.781H289.5V146.719H290.5ZM290.5 142.844V140.906H289.5V142.844H290.5ZM290.5 138.969V138H289.5V138.969H290.5ZM290 138.5H291V137.5H290V138.5ZM293 138.5H295V137.5H293V138.5ZM297 138.5H299V137.5H297V138.5ZM301 138.5H303V137.5H301V138.5ZM305 138.5H307V137.5H305V138.5ZM309 138.5H311V137.5H309V138.5ZM313 138.5H315V137.5H313V138.5ZM317 138.5H319V137.5H317V138.5ZM321 138.5H323V137.5H321V138.5ZM325 138.5H327V137.5H325V138.5ZM329 138.5H331V137.5H329V138.5ZM333 138.5H335V137.5H333V138.5ZM337 138.5H339V137.5H337V138.5ZM341 138.5H343V137.5H341V138.5ZM345 138.5H347V137.5H345V138.5ZM349 138.5H351V137.5H349V138.5ZM353 138.5H355V137.5H353V138.5ZM357 138.5H359V137.5H357V138.5ZM361 138.5H363V137.5H361V138.5ZM365 138.5H367V137.5H365V138.5ZM369 138.5H371V137.5H369V138.5ZM373 138.5H375V137.5H373V138.5ZM377 138.5H379V137.5H377V138.5ZM381 138.5H383V137.5H381V138.5ZM385 138.5H387V137.5H385V138.5ZM389 138.5H391V137.5H389V138.5ZM393 138.5H395V137.5H393V138.5ZM397 138.5H399V137.5H397V138.5ZM401 138.5H403V137.5H401V138.5ZM405 138.5H407V137.5H405V138.5ZM409 138.5H411V137.5H409V138.5ZM413 138.5H415V137.5H413V138.5ZM417 138.5H419V137.5H417V138.5ZM421 138.5H423V137.5H421V138.5ZM425 138.5H426V137.5H425V138.5ZM425.5 138V138.969H426.5V138H425.5ZM425.5 140.906V142.844H426.5V140.906H425.5ZM425.5 144.781V146.719H426.5V144.781H425.5ZM425.5 148.656V150.594H426.5V148.656H425.5ZM425.5 152.531V154.469H426.5V152.531H425.5ZM425.5 156.406V158.344H426.5V156.406H425.5ZM425.5 160.281V162.219H426.5V160.281H425.5ZM425.5 164.156V166.094H426.5V164.156H425.5ZM425.5 168.031V169H426.5V168.031H425.5Z" fill="black"/>
<path d="M290 275L292.887 280H287.113L290 275ZM290 307V307.5H289.5V307H290ZM426 307H426.5V307.5H426V307ZM290.5 278V280H289.5V278H290.5ZM290.5 282V284H289.5V282H290.5ZM290.5 286V288H289.5V286H290.5ZM290.5 290V292H289.5V290H290.5ZM290.5 294V296H289.5V294H290.5ZM290.5 298V300H289.5V298H290.5ZM290.5 302V304H289.5V302H290.5ZM290.5 306V307H289.5V306H290.5ZM290 306.5H291V307.5H290V306.5ZM293 306.5H295V307.5H293V306.5ZM297 306.5H299V307.5H297V306.5ZM301 306.5H303V307.5H301V306.5ZM305 306.5H307V307.5H305V306.5ZM309 306.5H311V307.5H309V306.5ZM313 306.5H315V307.5H313V306.5ZM317 306.5H319V307.5H317V306.5ZM321 306.5H323V307.5H321V306.5ZM325 306.5H327V307.5H325V306.5ZM329 306.5H331V307.5H329V306.5ZM333 306.5H335V307.5H333V306.5ZM337 306.5H339V307.5H337V306.5ZM341 306.5H343V307.5H341V306.5ZM345 306.5H347V307.5H345V306.5ZM349 306.5H351V307.5H349V306.5ZM353 306.5H355V307.5H353V306.5ZM357 306.5H359V307.5H357V306.5ZM361 306.5H363V307.5H361V306.5ZM365 306.5H367V307.5H365V306.5ZM369 306.5H371V307.5H369V306.5ZM373 306.5H375V307.5H373V306.5ZM377 306.5H379V307.5H377V306.5ZM381 306.5H383V307.5H381V306.5ZM385 306.5H387V307.5H385V306.5ZM389 306.5H391V307.5H389V306.5ZM393 306.5H395V307.5H393V306.5ZM397 306.5H399V307.5H397V306.5ZM401 306.5H403V307.5H401V306.5ZM405 306.5H407V307.5H405V306.5ZM409 306.5H411V307.5H409V306.5ZM413 306.5H415V307.5H413V306.5ZM417 306.5H419V307.5H417V306.5ZM421 306.5H423V307.5H421V306.5ZM425 306.5H426V307.5H425V306.5ZM425.5 307V306H426.5V307H425.5ZM425.5 304V302H426.5V304H425.5ZM425.5 300V298H426.5V300H425.5ZM425.5 296V294H426.5V296H425.5ZM425.5 292V290H426.5V292H425.5ZM425.5 288V286H426.5V288H425.5ZM425.5 284V282H426.5V284H425.5ZM425.5 280V278H426.5V280H425.5ZM425.5 276V275H426.5V276H425.5Z" fill="black"/>
<path d="M118.5 336L121.387 331L115.613 331L118.5 336ZM118 275L118 276.017L119 276.017L119 275L118 275ZM118 278.05L118 280.083L119 280.083L119 278.05L118 278.05ZM118 282.117L118 284.15L119 284.15L119 282.117L118 282.117ZM118 286.183L118 288.217L119 288.217L119 286.183L118 286.183ZM118 290.25L118 292.283L119 292.283L119 290.25L118 290.25ZM118 294.317L118 296.35L119 296.35L119 294.317L118 294.317ZM118 298.383L118 300.417L119 300.417L119 298.383L118 298.383ZM118 302.45L118 304.483L119 304.483L119 302.45L118 302.45ZM118 306.517L118 308.55L119 308.55L119 306.517L118 306.517ZM118 310.583L118 312.617L119 312.617L119 310.583L118 310.583ZM118 314.65L118 316.683L119 316.683L119 314.65L118 314.65ZM118 318.717L118 320.75L119 320.75L119 318.717L118 318.717ZM118 322.783L118 324.817L119 324.817L119 322.783L118 322.783ZM118 326.85L118 328.883L119 328.883L119 326.85L118 326.85ZM118 330.917L118 332.95L119 332.95L119 330.917L118 330.917Z" fill="black"/>
<path d="M93.5 275L90.6132 280L96.3868 280L93.5 275ZM93 278.05L93 280.083L94 280.083L94 278.05L93 278.05ZM93 282.117L93 284.15L94 284.15L94 282.117L93 282.117ZM93 286.183L93 288.217L94 288.217L94 286.183L93 286.183ZM93 290.25L93 292.283L94 292.283L94 290.25L93 290.25ZM93 294.317L93 296.35L94 296.35L94 294.317L93 294.317ZM93 298.383L93 300.417L94 300.417L94 298.383L93 298.383ZM93 302.45L93 304.483L94 304.483L94 302.45L93 302.45ZM93 306.517L93 308.55L94 308.55L94 306.517L93 306.517ZM93 310.583L93 312.617L94 312.617L94 310.583L93 310.583ZM93 314.65L93 316.683L94 316.683L94 314.65L93 314.65ZM93 318.717L93 320.75L94 320.75L94 318.717L93 318.717ZM93 322.783L93 324.817L94 324.817L94 322.783L93 322.783ZM93 326.85L93 328.883L94 328.883L94 326.85L93 326.85ZM93 330.917L93 332.95L94 332.95L94 330.917L93 330.917ZM93 334.983L93 336L94 336L94 334.983L93 334.983Z" fill="black"/>
<defs>
<filter id="filter0_d_1803_3" x="60.1006" y="0" width="99.7988" height="114" filterUnits="userSpaceOnUse" color-interpolation-filters="sRGB">
<feFlood flood-opacity="0" result="BackgroundImageFix"/>
<feColorMatrix in="SourceAlpha" type="matrix" values="0 0 0 0 0 0 0 0 0 0 0 0 0 0 0 0 0 0 127 0" result="hardAlpha"/>
<feOffset/>
<feGaussianBlur stdDeviation="2"/>
<feComposite in2="hardAlpha" operator="out"/>
<feColorMatrix type="matrix" values="0 0 0 0 0.863087 0 0 0 0 0.811042 0 0 0 0 0.954167 0 0 0 1 0"/>
<feBlend mode="normal" in2="BackgroundImageFix" result="effect1_dropShadow_1803_3"/>
<feBlend mode="normal" in="SourceGraphic" in2="effect1_dropShadow_1803_3" result="shape"/>
</filter>
<filter id="filter1_d_1803_3" x="60.1006" y="165" width="99.7988" height="114" filterUnits="userSpaceOnUse" color-interpolation-filters="sRGB">
<feFlood flood-opacity="0" result="BackgroundImageFix"/>
<feColorMatrix in="SourceAlpha" type="matrix" values="0 0 0 0 0 0 0 0 0 0 0 0 0 0 0 0 0 0 127 0" result="hardAlpha"/>
<feOffset/>
<feGaussianBlur stdDeviation="2"/>
<feComposite in2="hardAlpha" operator="out"/>
<feColorMatrix type="matrix" values="0 0 0 0 0.863087 0 0 0 0 0.811042 0 0 0 0 0.954167 0 0 0 1 0"/>
<feBlend mode="normal" in2="BackgroundImageFix" result="effect1_dropShadow_1803_3"/>
<feBlend mode="normal" in="SourceGraphic" in2="effect1_dropShadow_1803_3" result="shape"/>
</filter>
<filter id="filter2_d_1803_3" x="60.1006" y="332" width="99.7988" height="114" filterUnits="userSpaceOnUse" color-interpolation-filters="sRGB">
<feFlood flood-opacity="0" result="BackgroundImageFix"/>
<feColorMatrix in="SourceAlpha" type="matrix" values="0 0 0 0 0 0 0 0 0 0 0 0 0 0 0 0 0 0 127 0" result="hardAlpha"/>
<feOffset/>
<feGaussianBlur stdDeviation="2"/>
<feComposite in2="hardAlpha" operator="out"/>
<feColorMatrix type="matrix" values="0 0 0 0 0.863087 0 0 0 0 0.811042 0 0 0 0 0.954167 0 0 0 1 0"/>
<feBlend mode="normal" in2="BackgroundImageFix" result="effect1_dropShadow_1803_3"/>
<feBlend mode="normal" in="SourceGraphic" in2="effect1_dropShadow_1803_3" result="shape"/>
</filter>
<filter id="filter3_d_1803_3" x="222.101" y="165" width="99.7988" height="114" filterUnits="userSpaceOnUse" color-interpolation-filters="sRGB">
<feFlood flood-opacity="0" result="BackgroundImageFix"/>
<feColorMatrix in="SourceAlpha" type="matrix" values="0 0 0 0 0 0 0 0 0 0 0 0 0 0 0 0 0 0 127 0" result="hardAlpha"/>
<feOffset/>
<feGaussianBlur stdDeviation="2"/>
<feComposite in2="hardAlpha" operator="out"/>
<feColorMatrix type="matrix" values="0 0 0 0 0.863087 0 0 0 0 0.811042 0 0 0 0 0.954167 0 0 0 1 0"/>
<feBlend mode="normal" in2="BackgroundImageFix" result="effect1_dropShadow_1803_3"/>
<feBlend mode="normal" in="SourceGraphic" in2="effect1_dropShadow_1803_3" result="shape"/>
</filter>
<filter id="filter4_d_1803_3" x="384.101" y="165" width="99.7988" height="114" filterUnits="userSpaceOnUse" color-interpolation-filters="sRGB">
<feFlood flood-opacity="0" result="BackgroundImageFix"/>
<feColorMatrix in="SourceAlpha" type="matrix" values="0 0 0 0 0 0 0 0 0 0 0 0 0 0 0 0 0 0 127 0" result="hardAlpha"/>
<feOffset/>
<feGaussianBlur stdDeviation="2"/>
<feComposite in2="hardAlpha" operator="out"/>
<feColorMatrix type="matrix" values="0 0 0 0 0.863087 0 0 0 0 0.811042 0 0 0 0 0.954167 0 0 0 1 0"/>
<feBlend mode="normal" in2="BackgroundImageFix" result="effect1_dropShadow_1803_3"/>
<feBlend mode="normal" in="SourceGraphic" in2="effect1_dropShadow_1803_3" result="shape"/>
</filter>
<filter id="filter5_d_1803_3" x="546.101" y="165" width="99.7988" height="114" filterUnits="userSpaceOnUse" color-interpolation-filters="sRGB">
<feFlood flood-opacity="0" result="BackgroundImageFix"/>
<feColorMatrix in="SourceAlpha" type="matrix" values="0 0 0 0 0 0 0 0 0 0 0 0 0 0 0 0 0 0 127 0" result="hardAlpha"/>
<feOffset/>
<feGaussianBlur stdDeviation="2"/>
<feComposite in2="hardAlpha" operator="out"/>
<feColorMatrix type="matrix" values="0 0 0 0 0.863087 0 0 0 0 0.811042 0 0 0 0 0.954167 0 0 0 1 0"/>
<feBlend mode="normal" in2="BackgroundImageFix" result="effect1_dropShadow_1803_3"/>
<feBlend mode="normal" in="SourceGraphic" in2="effect1_dropShadow_1803_3" result="shape"/>
</filter>
</defs>
</svg>
