<svg width="53" height="52" viewBox="0 0 53 52" fill="none" xmlns="http://www.w3.org/2000/svg">
<path fill-rule="evenodd" clip-rule="evenodd" d="M25.562 0.168445C24.8988 0.45051 24.5136 0.92932 24.3841 1.63281C24.3222 1.96881 24.2665 2.01096 23.416 2.36524C22.6497 2.68438 22.4895 2.72054 22.3544 2.60495C21.7787 2.11212 20.9313 2.00883 20.2227 2.34523C19.9787 2.46102 19.3175 3.02637 18.708 3.64027C17.8238 4.53096 17.6017 4.81708 17.4908 5.20814C17.3254 5.79167 17.404 6.26265 17.7504 6.7634L18.0121 7.14156L17.6493 8.01751C17.3063 8.84583 17.2664 8.89763 16.9156 8.96914C16.108 9.13368 15.5108 9.64632 15.313 10.3447C15.173 10.8392 15.1751 13.2538 15.3159 13.7514C15.5225 14.4812 16.2266 15.0537 17.049 15.1606C17.2428 15.1857 17.3561 15.3567 17.6499 16.068L18.0121 16.9443L17.7566 17.3136C17.4307 17.7846 17.3333 18.3529 17.4844 18.903C17.5779 19.2434 17.8398 19.5742 18.7084 20.4484C19.3162 21.0602 19.9864 21.6473 20.1977 21.7534C20.8494 22.0803 21.8186 21.9805 22.3018 21.5367C22.5086 21.3468 22.5248 21.3494 23.4179 21.7213C24.2892 22.0839 24.3266 22.1129 24.3852 22.4719C24.4665 22.97 24.7357 23.3841 25.2078 23.7373L25.5969 24.0284H27.529H29.4611L29.8502 23.7373C30.3223 23.3841 30.5915 22.97 30.6728 22.4719C30.7314 22.1132 30.7692 22.0838 31.6327 21.7243L32.5316 21.35L32.8884 21.617C33.38 21.9847 34.2657 22.0516 34.8384 21.7643C35.0617 21.6523 35.7412 21.0608 36.3482 20.4498C37.4471 19.3437 37.676 18.9756 37.6776 18.3117C37.6783 18.0246 37.4151 17.3921 37.1959 17.1547C37.0456 16.9917 37.0623 16.9044 37.4012 16.0844C37.7012 15.3583 37.8147 15.1858 38.009 15.1606C38.8314 15.0537 39.5354 14.4812 39.7421 13.7514C39.8829 13.2538 39.885 10.8392 39.745 10.3447C39.5471 9.64632 38.95 9.13368 38.1424 8.96914C37.7909 8.89753 37.752 8.84664 37.4018 8.00106C37.0623 7.18127 37.0456 7.09412 37.1959 6.9311C37.4151 6.69373 37.6783 6.06124 37.6776 5.77409C37.676 5.11144 37.4469 4.74182 36.3601 3.6488C35.745 3.03023 35.0792 2.46102 34.8353 2.34523C34.1267 2.00883 33.2793 2.11212 32.7036 2.60495C32.5685 2.72054 32.4083 2.68438 31.642 2.36524C30.7915 2.01096 30.7357 1.96881 30.6739 1.63281C30.5424 0.918553 30.1533 0.442689 29.4727 0.163874C28.9337 -0.0570447 26.0843 -0.0536928 25.562 0.168445ZM28.6682 2.6337C28.6682 3.40442 28.9108 3.6616 29.8812 3.91919C30.2655 4.02127 31.0386 4.32862 31.5991 4.60236C32.5246 5.05436 32.6485 5.0898 32.9457 4.98813C33.1258 4.92658 33.4261 4.73075 33.6131 4.5531L33.9529 4.2299L34.7273 4.98427L35.5016 5.73865L35.1422 6.09963C34.5591 6.68529 34.5634 6.95446 35.1746 8.16022C35.4643 8.73146 35.7714 9.47314 35.8571 9.80832C36.0749 10.66 36.4423 10.9764 37.2139 10.9764H37.7818V12.0307V13.085L37.1619 13.129C36.3445 13.1869 36.1172 13.4011 35.8247 14.3885C35.7003 14.8082 35.3907 15.5412 35.1368 16.0175C34.5525 17.1131 34.5489 17.3474 35.1072 17.9414L35.5393 18.4013L34.8251 19.1072C34.4322 19.4955 34.0686 19.8132 34.0171 19.8132C33.9655 19.8132 33.7427 19.6532 33.522 19.4577C32.9758 18.9737 32.636 18.9889 31.4945 19.5486C30.9938 19.7941 30.2487 20.0924 29.8386 20.2115C28.896 20.4854 28.6682 20.7367 28.6682 21.5028V22.0477H27.529H26.3898V21.4573C26.3898 20.9434 26.3528 20.8334 26.105 20.609C25.9463 20.4652 25.5221 20.2716 25.147 20.1716C24.7768 20.0729 24.067 19.7919 23.5697 19.5471C22.4319 18.9871 22.0842 18.9718 21.536 19.4577C21.3153 19.6532 21.0925 19.8132 21.0409 19.8132C20.9894 19.8132 20.6257 19.4955 20.2329 19.1072L19.5186 18.4013L19.9508 17.9414C20.2482 17.6251 20.3831 17.3909 20.3831 17.1909C20.3831 17.031 20.1531 16.457 19.8719 15.9154C19.5907 15.3738 19.3021 14.6695 19.2305 14.3501C19.1388 13.9409 19.0024 13.6722 18.7682 13.4395C18.472 13.1452 18.3732 13.1094 17.8561 13.1094H17.2762V12.0429V10.9764H17.8441C18.6157 10.9764 18.9831 10.66 19.2009 9.80832C19.2866 9.47314 19.5937 8.73146 19.8834 8.16022C20.4946 6.95446 20.4989 6.68529 19.9158 6.09963L19.5563 5.73865L20.3307 4.98427L21.105 4.2299L21.4449 4.5531C21.6319 4.73075 21.9322 4.92658 22.1123 4.98813C22.4095 5.0898 22.5334 5.05436 23.4588 4.60236C24.0194 4.32862 24.7925 4.02127 25.1767 3.91919C26.1471 3.6616 26.3898 3.40442 26.3898 2.6337V2.03808H27.529H28.6682V2.6337ZM8.20275 4.57148C7.78393 4.74487 7.51612 5.19859 7.57546 5.63453C7.62134 5.97175 7.78207 6.1817 8.64486 7.03115L9.6603 8.03082H6.8851C5.17982 8.03082 4.03317 8.07114 3.91075 8.13544C3.4821 8.36042 3.39863 8.7406 3.39863 10.4685C3.39863 12.5701 3.5488 12.9063 4.48719 12.9063C4.76609 12.9063 4.94339 12.8289 5.16719 12.6094C5.46535 12.3169 5.46991 12.2955 5.46991 11.1874V10.0623H7.50845H9.547L8.60323 11.0062C8.08417 11.5253 7.62776 12.0738 7.58913 12.225C7.39526 12.9826 8.08406 13.659 8.85592 13.469C9.15087 13.3965 12.3082 10.4201 12.8362 9.71691C13.032 9.45607 13.1336 9.19757 13.1336 8.9602C13.1336 8.62725 12.9772 8.44604 11.0882 6.58951C8.97813 4.51572 8.73993 4.34914 8.20275 4.57148ZM26.1024 5.63931C23.148 6.29932 21.0045 8.9471 21.0045 11.9363C21.0045 14.2643 22.3798 16.483 24.4867 17.5541C25.6458 18.1434 26.4836 18.321 27.8397 18.2647C29.6489 18.1896 31.2199 17.4701 32.4001 16.1761C33.0111 15.5061 33.6686 14.2596 33.9101 13.3132C34.1307 12.4488 34.0593 10.8838 33.7572 9.96068C33.1304 8.04555 31.4394 6.3882 29.4967 5.78496C28.6161 5.51163 26.9871 5.44165 26.1024 5.63931ZM28.6128 7.67867C29.4748 7.89888 30.1419 8.28404 30.7456 8.91002C32.6012 10.8344 32.3187 13.9189 30.1471 15.4441C27.6357 17.2079 24.0308 15.9702 23.2302 13.0692C22.3441 9.8586 25.3524 6.84578 28.6128 7.67867ZM42.2271 8.32771C41.8139 8.73298 41.8136 9.22642 42.2263 9.67974L42.5284 10.0115L44.9708 10.0436L47.4132 10.0758V15.757C47.4132 18.8817 47.381 21.4383 47.3417 21.4383C47.3024 21.4383 46.8196 21.0041 46.2689 20.4734C45.3473 19.5855 45.2353 19.5086 44.8645 19.5107C44.2001 19.5144 43.715 20.0568 43.8314 20.6657C43.879 20.9148 44.3643 21.449 45.944 22.9912C47.9036 24.9044 48.0125 24.9933 48.3971 24.9933C48.7817 24.9933 48.8908 24.9043 50.855 22.9873C51.9855 21.8839 52.9369 20.8783 52.9692 20.7527C53.1313 20.1235 52.6325 19.5084 51.9602 19.5084C51.5514 19.5084 51.4687 19.5644 50.5056 20.4924L49.4845 21.4763V15.2258C49.4845 11.0306 49.448 8.87234 49.3732 8.66209C49.1527 8.04179 49.0879 8.03082 45.6483 8.03082H42.5298L42.2271 8.32771ZM4.12575 15.5568C3.49308 15.8097 3.25064 16.3938 3.5459 16.9538C3.7494 17.3398 3.99619 17.477 4.48719 17.477C5.00729 17.477 5.46991 17.0271 5.46991 16.5215C5.46991 15.8523 4.72456 15.3173 4.12575 15.5568ZM3.93975 20.2156C3.75323 20.3294 3.55222 20.5475 3.49308 20.7C3.42908 20.8651 3.39873 21.6698 3.418 22.6892L3.45041 24.4011L3.8017 24.7086C4.1067 24.9757 4.20891 25.0089 4.57822 24.9602C4.86126 24.923 5.08154 24.8154 5.23668 24.6384C5.45986 24.384 5.46991 24.2939 5.46991 22.5515V20.7305L5.18511 20.4239C4.80969 20.0199 4.37845 19.9476 3.93975 20.2156ZM11.5058 23.6841C10.8441 23.9335 10.1534 24.573 9.81575 25.2489C9.62851 25.6237 9.55311 25.9662 9.52557 26.5677L9.48828 27.3803L7.43782 28.5804L5.38726 29.7805L4.78131 29.4438C4.21886 29.1311 4.10846 29.1071 3.24328 29.1077C2.47205 29.1083 2.23447 29.1485 1.8664 29.3406C-0.503549 30.5778 -0.645949 33.681 1.60812 34.9724L2.20765 35.316L2.2354 37.7192L2.26316 40.1222L1.76284 40.3709C-0.58961 41.5401 -0.57884 44.8352 1.78117 46.0158C2.39344 46.3222 2.58472 46.3685 3.23521 46.3685C3.86974 46.3685 4.08795 46.3185 4.66211 46.0412C5.03494 45.8613 5.37297 45.714 5.41326 45.714C5.45354 45.714 6.38582 46.2425 7.48505 46.8885L9.48362 48.063L9.53033 48.8946C9.58636 49.8906 9.88721 50.5536 10.5497 51.1405C12.1813 52.5862 14.6234 52.1549 15.6163 50.2459C15.9281 49.6463 15.9758 49.4574 15.9758 48.8232V48.0919L18.051 46.8717L20.1263 45.6516L20.579 45.9322C21.8708 46.7331 23.5998 46.4656 24.6688 45.2996C25.8268 44.0363 25.7426 42.1039 24.4769 40.8974C24.2143 40.6472 23.8383 40.3852 23.6412 40.3153L23.2829 40.1883V37.7454V35.3026L23.7553 35.0567C25.4498 34.175 25.9951 32.0218 24.9251 30.4373C23.9625 29.0119 21.9052 28.6429 20.3764 29.6214C20.1128 29.7901 20.095 29.7821 18.0543 28.5721L15.9979 27.3527L15.9824 26.6047C15.9556 25.3146 15.2945 24.3057 14.1175 23.7587C13.3396 23.3971 12.3424 23.3687 11.5058 23.6841ZM13.4796 25.7098C14.3263 26.3629 13.8586 27.7358 12.7791 27.7657C12.0808 27.7851 11.5802 27.2847 11.5802 26.5673C11.5802 26.2758 11.6589 26.1147 11.9323 25.8465C12.2275 25.5569 12.359 25.5012 12.7468 25.5012C13.0565 25.5012 13.2986 25.5701 13.4796 25.7098ZM37.0161 28.6377C33.9046 30.4763 32.0049 31.659 31.9192 31.8106C31.7305 32.1446 31.7107 43.3311 31.898 43.7345C32.0692 44.1028 41.8659 49.8784 42.3196 49.8784C42.727 49.8784 52.4097 44.1986 52.6723 43.8056C52.8353 43.5616 52.8503 43.0547 52.8503 37.7779C52.8503 32.1744 52.8446 32.0093 52.6432 31.7466C52.5282 31.5968 50.2577 30.1916 47.5437 28.5905C43.7833 26.3722 42.5732 25.7046 42.3138 25.7054C42.0562 25.7064 40.8004 26.4014 37.0161 28.6377ZM46.0302 30.0746C48.0156 31.2493 49.653 32.2478 49.669 32.2935C49.7055 32.3975 42.3853 36.708 42.2552 36.659C42.0371 36.5771 34.8883 32.353 34.889 32.3065C34.89 32.2306 42.1641 27.9498 42.3019 27.944C42.3672 27.9411 44.0449 28.9 46.0302 30.0746ZM12.1801 29.7632C12.89 29.8953 13.772 29.7367 14.3919 29.3656L14.8734 29.0772L16.9551 30.2989L19.0368 31.5206L19.0341 32.2436L19.0313 32.9667L16.9531 34.1787C15.0351 35.2973 14.8577 35.3798 14.6515 35.2514C13.9423 34.8089 13.5855 34.7044 12.7661 34.6989C12.0199 34.694 11.8608 34.7291 11.2501 35.033L10.5677 35.3724L8.52804 34.1696L6.48835 32.9667L6.47106 32.2527L6.45376 31.5385L8.52162 30.309L10.5895 29.0793L11.1173 29.3716C11.4077 29.5323 11.886 29.7085 12.1801 29.7632ZM3.8163 31.2417C3.98335 31.3264 4.19079 31.5299 4.27716 31.6937C4.89223 32.8603 3.37201 33.9795 2.42886 33.0545C1.46965 32.1136 2.60647 30.6281 3.8163 31.2417ZM23.0343 31.433C23.3343 31.7272 23.3864 31.8485 23.3864 32.2534C23.3864 32.6411 23.3318 32.782 23.089 33.0201C22.7493 33.3533 22.3689 33.4758 21.9751 33.3788C21.8253 33.3419 21.569 33.1805 21.4055 33.0201C21.1627 32.782 21.108 32.6411 21.108 32.2534C21.108 31.8485 21.1601 31.7272 21.4602 31.433C21.7488 31.1499 21.8907 31.0876 22.2472 31.0876C22.6038 31.0876 22.7457 31.1499 23.0343 31.433ZM37.8336 36.4454L41.2512 38.462L41.2782 42.757C41.2934 45.1758 41.2657 47.0371 41.2148 47.0178C41.165 46.9991 39.4882 46.0238 37.4885 44.8506L33.8526 42.7176L33.8495 38.4235L33.8464 34.1296L34.1312 34.2792C34.2878 34.3615 35.9539 35.3363 37.8336 36.4454ZM50.8061 38.421L50.7791 42.7071L47.3615 44.7237C45.4818 45.8329 43.8156 46.8077 43.659 46.89L43.3742 47.0396L43.3776 42.7456L43.381 38.4516L47.0282 36.3018C49.0342 35.1195 50.7109 34.1482 50.7543 34.1434C50.7976 34.1386 50.8209 36.0635 50.8061 38.421ZM21.2078 37.7456L21.2116 40.1883L20.8533 40.3153C20.3466 40.495 19.5884 41.2551 19.2913 41.881C19.0961 42.2921 19.0379 42.5859 19.035 43.1747L19.0313 43.9365L16.9537 45.148L14.8761 46.3597L14.6003 46.1842C14.4487 46.0879 14.1964 45.9609 14.0398 45.9023L13.755 45.7956L13.7577 43.3425L13.7604 40.8893L14.1461 40.7145C14.8144 40.4116 15.2839 39.9473 15.6404 39.237C15.9308 38.6583 15.981 38.4503 15.9776 37.84L15.9735 37.1231L18.0461 35.9051L20.1186 34.6869L20.6613 34.9949L21.2038 35.3029L21.2078 37.7456ZM7.48899 35.9237L9.48414 37.1032L9.53064 37.9297C9.56575 38.5553 9.64208 38.8808 9.84444 39.2682C10.1461 39.8461 10.844 40.5235 11.3471 40.727L11.6837 40.8632L11.6834 43.3139L11.683 45.7648L11.1278 46.0585L10.5726 46.3521L8.53374 45.1378L6.49488 43.9234L6.46909 43.1682C6.43812 42.2635 6.18957 41.6582 5.58497 41.0149C5.35329 40.7683 4.97632 40.4837 4.74724 40.3825L4.3307 40.1982V37.7328V35.2673L4.77085 35.0159C5.01288 34.8777 5.27469 34.76 5.35246 34.7544C5.43024 34.7488 6.39173 35.275 7.48899 35.9237ZM13.5581 37.0392C14.1186 37.5659 14.0158 38.4507 13.349 38.8369C12.5882 39.2777 11.5802 38.7529 11.5802 37.9161C11.5802 36.8355 12.7767 36.305 13.5581 37.0392ZM3.75427 42.1564C3.9004 42.2109 4.11301 42.4052 4.22673 42.5881C4.95695 43.7627 3.40018 44.996 2.43476 44.0077C1.52154 43.0728 2.50632 41.6911 3.75427 42.1564ZM23.0343 42.4027C23.3296 42.6923 23.3864 42.8212 23.3864 43.2016C23.3864 44.0181 22.6634 44.544 21.8864 44.2925C21.3749 44.1269 21.108 43.7529 21.108 43.2016C21.108 42.8212 21.1649 42.6923 21.4602 42.4027C21.7488 42.1196 21.8907 42.0574 22.2472 42.0574C22.6038 42.0574 22.7457 42.1196 23.0343 42.4027ZM13.59 48.0445C14.2689 48.7103 13.8431 49.8246 12.8651 49.9421C12.1366 50.0296 11.5802 49.5125 11.5802 48.7478C11.5802 47.7458 12.837 47.306 13.59 48.0445Z" fill="#5B8501"/>
</svg>
