<svg width="20" height="20" viewBox="0 0 20 20" fill="none" xmlns="http://www.w3.org/2000/svg">
<path fill-rule="evenodd" clip-rule="evenodd" d="M0.377679 0.0473717C0.214983 0.118372 0.0457886 0.324072 0.0149451 0.488422C0.00129974 0.561157 -0.00398886 0.895182 0.00323755 1.23074C0.0148644 1.77204 0.0257646 1.85341 0.0996031 1.95212C0.280304 2.1936 0.370089 2.22862 0.846789 2.24334L1.28804 2.25702V8.38174V14.5065L0.846789 14.5201C0.369968 14.5349 0.280102 14.5699 0.0996031 14.8115C0.0228175 14.9143 0.0163581 14.9787 0.0163581 15.6432C0.0163581 16.4331 0.0261683 16.4693 0.294312 16.6693C0.405171 16.7521 0.430645 16.7526 5.04549 16.7631L9.68521 16.7737V17.4541V18.1345L9.56273 18.1852C9.29135 18.2975 9.03928 18.7052 9.03928 19.0318C9.03928 19.5317 9.50794 20 10.0082 20C10.5084 20 10.9771 19.5317 10.9771 19.0318C10.9771 18.7052 10.725 18.2975 10.4536 18.1852L10.3311 18.1345V17.4541V16.7737L14.9709 16.7631C19.5857 16.7526 19.6112 16.7521 19.722 16.6693C19.9902 16.4693 20 16.4331 20 15.6432C20 14.9787 19.9935 14.9143 19.9168 14.8115C19.7363 14.5699 19.6464 14.5349 19.1696 14.5201L18.7283 14.5065V8.38174V2.25702L19.1696 2.24334C19.6464 2.22862 19.7363 2.19356 19.9168 1.95196C19.9935 1.84917 20 1.78483 20 1.12033C20 0.330405 19.9902 0.294179 19.722 0.0941272L19.6105 0.0109436L10.0557 0.00231062C2.1735 -0.00482977 0.479252 0.00307709 0.377679 0.0473717ZM19.3742 1.12033V1.60442H10.0082H0.642109V1.12033V0.636232H10.0082H19.3742V1.12033ZM18.0824 8.38174V14.5136H10.0082H1.93398V8.38174V2.24988H10.0082H18.0824V8.38174ZM11.3 3.21807V3.5408H12.1075H12.9149V3.21807V2.89534H12.1075H11.3V3.21807ZM13.5608 3.21807V3.5408H15.4986H17.4364V3.21807V2.89534H15.4986H13.5608V3.21807ZM6.87761 4.28529L6.7785 4.38429V6.284V8.1837L6.87761 8.2827L6.97668 8.38174H8.87779H10.7789L10.8838 8.27689C10.9858 8.17495 10.9881 8.16184 10.9641 7.80288C10.9 6.84381 10.5131 6.00823 9.81157 5.31383C9.23108 4.73921 8.54784 4.38385 7.75931 4.24645C7.23263 4.15467 6.99796 4.165 6.87761 4.28529ZM11.3 4.50899V4.83172H12.5919H13.8838V4.50899V4.18626H12.5919H11.3V4.50899ZM14.5297 4.50899V4.83172H15.9831H17.4364V4.50899V4.18626H15.9831H14.5297V4.50899ZM8.29471 5.06985C9.28643 5.45378 10.0666 6.39837 10.2691 7.46019L10.3218 7.73628H8.87311H7.42444V6.28868V4.84107L7.69924 4.8934C7.85039 4.9222 8.11837 5.00159 8.29471 5.06985ZM5.46006 5.21411C4.64731 5.36152 3.9839 5.7149 3.38588 6.31909C2.86598 6.8443 2.53119 7.44114 2.35021 8.16539C2.25432 8.54907 2.25432 9.50532 2.35021 9.88901C2.53119 10.6133 2.86598 11.2101 3.38588 11.7353C4.10307 12.4599 4.94037 12.8358 5.95089 12.8869C7.06881 12.9434 8.04453 12.5616 8.85708 11.7497C9.566 11.0413 9.92606 10.2603 9.99413 9.28332C10.0192 8.92376 10.0171 8.91142 9.91492 8.80931L9.81 8.70447H8.13274H6.45553V7.02849V5.35248L6.35642 5.25348C6.27116 5.16824 6.2219 5.15497 6.00317 5.15808C5.86341 5.16009 5.619 5.18531 5.46006 5.21411ZM11.3 5.7999V6.12263H13.5608H15.8216V5.7999V5.47717H13.5608H11.3V5.7999ZM16.4675 5.7999V6.12263H16.952H17.4364V5.7999V5.47717H16.952H16.4675V5.7999ZM5.9251 9.27284C6.01549 9.34593 6.10644 9.34993 7.68665 9.34993H9.35288L9.30048 9.62223C9.08316 10.7522 8.29455 11.6785 7.22904 12.0552C5.79587 12.562 4.25757 12.0426 3.42327 10.7702C3.06764 10.2278 2.92485 9.72853 2.92485 9.0272C2.92485 8.32579 3.06768 7.8264 3.42335 7.28418C3.91228 6.53871 4.67497 6.024 5.527 5.86441L5.78941 5.81527L5.8096 7.50553L5.82978 9.19574L5.9251 9.27284ZM15.5977 7.18986L15.4986 7.28886V9.83402V12.3792L15.5977 12.4782C15.696 12.5764 15.7031 12.5772 16.4675 12.5772C17.232 12.5772 17.2391 12.5764 17.3373 12.4782L17.4364 12.3792V9.83402V7.28886L17.3373 7.18986C17.2391 7.09163 17.232 7.09082 16.4675 7.09082C15.7031 7.09082 15.696 7.09163 15.5977 7.18986ZM16.7905 9.83402V11.9318H16.4675H16.1446V9.83402V7.73628H16.4675H16.7905V9.83402ZM13.337 9.12624L13.2379 9.22523V10.8022V12.3792L13.337 12.4782C13.4352 12.5764 13.4423 12.5772 14.2068 12.5772C14.9712 12.5772 14.9783 12.5764 15.0766 12.4782L15.1757 12.3792V10.8022V9.22523L15.0766 9.12624C14.9783 9.028 14.9712 9.0272 14.2068 9.0272C13.4423 9.0272 13.4352 9.028 13.337 9.12624ZM14.5297 10.8022V11.9318H14.2068H13.8838V10.8022V9.67266H14.2068H14.5297V10.8022ZM11.0762 10.7399C10.9779 10.8381 10.9771 10.8451 10.9771 11.609C10.9771 12.646 10.9083 12.5772 11.946 12.5772C12.7105 12.5772 12.7175 12.5764 12.8158 12.4782C12.9141 12.38 12.9149 12.3729 12.9149 11.609C12.9149 10.5721 12.9837 10.6408 11.946 10.6408C11.1815 10.6408 11.1745 10.6417 11.0762 10.7399ZM12.269 11.609V11.9318H11.946H11.623V11.609V11.2863H11.946H12.269V11.609ZM19.3742 15.6432V16.1272H10.0082H0.642109V15.6432V15.1591H10.0082H19.3742V15.6432ZM10.232 18.8081C10.2945 18.8705 10.3311 18.9532 10.3311 19.0318C10.3311 19.1104 10.2945 19.1931 10.232 19.2555C10.0318 19.4556 9.68521 19.3138 9.68521 19.0318C9.68521 18.866 9.84221 18.7091 10.0082 18.7091C10.0868 18.7091 10.1696 18.7457 10.232 18.8081Z" fill="black"/>
</svg>
