<svg width="51" height="51" viewBox="0 0 51 51" fill="none" xmlns="http://www.w3.org/2000/svg">
<path fill-rule="evenodd" clip-rule="evenodd" d="M18.156 0.0249047C15.487 0.523647 14.4249 0.819401 12.5763 1.57933C9.83743 2.70498 6.93678 4.83464 5.00119 7.1408C0.267998 12.7804 -1.20922 20.1521 1.0145 27.0359C1.56654 28.7448 2.97098 31.5514 3.60601 32.2144C4.08432 32.714 4.13692 32.7371 4.79177 32.7371C5.41267 32.7371 5.51476 32.6992 5.88054 32.3333C6.23729 31.9764 6.28418 31.8569 6.28418 31.3043C6.28418 30.7587 6.20143 30.5404 5.63336 29.5879C3.07593 25.3001 2.51059 19.937 4.10593 15.0988C5.81144 9.92671 9.95341 5.76929 15.1108 4.05285C17.2417 3.34364 18.0658 3.22118 20.7085 3.22118C23.3553 3.22118 24.1745 3.34328 26.3217 4.05796C28.6023 4.81706 30.733 6.05352 32.3251 7.54191C34.3646 9.44828 34.5318 9.57572 34.9958 9.57572C35.8885 9.57572 36.6767 8.82422 36.6757 7.97414C36.6751 7.45556 36.3043 6.92119 35.1805 5.81953C32.3314 3.02615 28.8563 1.18476 24.7708 0.303554C23.9261 0.121351 23.0806 0.0562617 21.0646 0.0184908C19.6281 -0.00847146 18.3193 -0.00562083 18.156 0.0249047ZM39.0224 3.34768C38.5862 3.58452 38.3382 4.1012 38.3382 4.77335C38.3382 5.25891 38.3954 5.38493 38.7991 5.78889L39.26 6.24998H40.7579C41.5818 6.24998 42.2559 6.28989 42.2559 6.33871C42.2559 6.38752 38.9076 9.77776 34.8152 13.8725L27.3745 21.3175L23.8695 17.8724C21.9417 15.9775 20.2061 14.3453 20.0126 14.2452C19.3912 13.9237 18.8484 14.0955 17.9471 14.899C16.5164 16.1745 8.4724 24.3506 8.19306 24.8132C7.82384 25.4247 7.93128 25.9798 8.53568 26.5846C9.13224 27.1814 9.69579 27.2048 10.4423 26.6637C10.7247 26.4591 12.8428 24.4199 15.1491 22.1324L19.3425 17.9733L22.7819 21.3757C24.6737 23.247 26.3966 24.8849 26.6109 25.0157C27.1955 25.3723 27.5517 25.3171 28.2661 24.7592C28.6148 24.4869 32.4394 20.7348 36.7652 16.4212L44.6303 8.57824V9.47524C44.6303 11.1692 44.7441 11.7824 45.1322 12.1795C45.7799 12.8424 46.976 12.7775 47.4927 12.0514C47.7505 11.6892 47.7554 11.6126 47.7571 7.8657C47.7591 3.63322 47.746 3.55696 46.9791 3.28948C46.7476 3.20871 45.2771 3.16357 42.9802 3.16654C39.9986 3.17046 39.289 3.20289 39.0224 3.34768ZM39.2226 17.5781C39.0236 17.667 38.7164 17.9113 38.54 18.121C38.2227 18.4984 38.2195 18.5201 38.2188 20.3044C38.2177 23.1381 37.793 25.3473 36.8147 27.6091C35.9306 29.6528 34.921 31.1333 33.1565 32.974C30.4865 35.7589 26.8396 37.5692 22.8454 38.0922C21.5096 38.267 18.5469 38.1646 17.325 37.9013C14.9832 37.3966 12.3671 36.2432 10.5157 34.899C10.0027 34.5266 9.34237 34.0482 9.04842 33.8358C8.45898 33.4101 8.04478 33.3557 7.41082 33.6208C6.87433 33.8451 6.52257 34.4334 6.52209 35.1076C6.52162 35.6021 6.5716 35.6858 7.28343 36.3806C8.2726 37.3463 10.0622 38.5126 11.8896 39.3828C14.5864 40.6671 17.0365 41.2681 19.9962 41.3716C24.8341 41.5406 29.3919 40.0931 33.2926 37.1486L34.2424 36.4317L41.3062 43.4728C45.1912 47.3455 48.5722 50.6353 48.8195 50.7837C49.1599 50.988 49.368 51.0349 49.6766 50.9771C50.6038 50.8029 51.2405 49.778 50.9129 48.9866C50.7561 48.6082 44.6349 42.2704 39.1199 36.7766C37.7105 35.3727 36.5574 34.1875 36.5574 34.1431C36.5574 34.0986 36.8974 33.6111 37.3131 33.0599C39.237 30.5076 40.6194 27.2273 41.2032 23.8289C41.2878 23.3366 41.3583 21.9816 41.3609 20.8001C41.3648 18.9726 41.335 18.6062 41.1553 18.2772C40.7763 17.5834 39.9112 17.2704 39.2226 17.5781Z" fill="#FCB900"/>
</svg>
