<svg width="422" height="425" viewBox="0 0 422 425" fill="none" xmlns="http://www.w3.org/2000/svg">
<path d="M91.1607 49.0109C88.334 50.828 83.5891 53.4527 80.5605 54.6641C73.9985 57.3898 72.7871 58.3993 75.0081 59.1059C75.9167 59.4088 77.5319 59.8126 78.4405 60.1154C79.7529 60.6202 74.0995 66.7781 55.524 85.3529C35.8381 105.038 31.0933 110.288 32.1028 111.297C33.1123 112.307 38.3619 107.562 57.846 88.0786C71.2728 74.6522 82.5796 63.6487 83.0844 63.6487C83.4882 63.6487 83.791 64.4563 83.791 65.3648C83.791 66.3743 84.1949 67.7876 84.6996 68.5952C85.4063 69.7057 86.4158 68.1914 88.8387 63.043C90.5549 59.3078 93.2807 54.0584 94.8959 51.4337C99.5398 44.2663 99.035 43.8625 91.1607 49.0109Z" fill="white"/>
<path d="M176.164 48.1023C174.649 54.6641 172.53 61.7306 170.611 66.2734C169.501 68.8981 168.794 71.2199 168.996 71.5228C169.299 71.7247 170.712 71.2199 172.025 70.3114C173.438 69.4028 174.851 68.6962 175.154 68.6962C175.457 68.6962 175.659 78.1855 175.659 89.8957C175.659 108.067 175.861 111.095 177.173 111.095C178.486 111.095 178.688 108.067 178.688 89.8957C178.688 78.1855 178.889 68.6962 179.192 68.6962C179.495 68.6962 180.908 69.4028 182.322 70.3114C183.634 71.2199 185.047 71.7247 185.35 71.4218C185.653 71.2199 184.745 68.1914 183.331 64.7591C182.019 61.4278 180.303 55.9765 179.596 52.847C178.082 45.6795 176.971 44.2662 176.164 48.1023Z" fill="white"/>
<path d="M291.257 51.6865C293.781 55.2197 297.011 60.4691 298.425 63.3967C301.352 69.2518 301.958 69.4537 302.968 64.709L303.573 61.6805L327.297 82.3753C362.631 113.367 361.622 112.458 362.732 111.348C363.439 110.641 354.858 102.363 334.768 84.6972L305.693 59.0558L308.924 58.1473C310.741 57.6425 312.154 56.9359 312.154 56.4311C312.154 56.0273 309.732 54.9169 306.905 54.0083C303.977 52.9988 298.728 50.677 295.295 48.8599C291.863 46.9418 288.632 45.4276 287.926 45.4276C287.32 45.4276 288.834 48.2542 291.257 51.6865Z" fill="white"/>
<path d="M389.075 224.058C387.662 225.371 376.658 227.995 369.793 228.702C362.928 229.51 362.02 230.216 365.957 232.033C367.37 232.639 368.481 233.548 368.481 233.951C368.38 234.456 331.33 254.444 285.901 278.37L203.422 321.98L203.119 309.967L202.816 297.853H114.582H26.2479V329.652V361.451H13.124C2.12003 361.451 0 361.653 0 362.966C0 364.278 17.6669 364.48 152.945 364.48H305.889V376.089C305.889 383.156 306.293 387.698 306.899 387.698C307.505 387.698 307.909 383.156 307.909 376.089V364.48H364.443C414.011 364.48 420.977 364.278 420.977 362.966C420.977 361.653 414.011 361.451 364.443 361.451H307.909V355.394V349.438L311.442 351.457C313.36 352.669 314.975 353.174 314.975 352.669C314.975 352.164 313.663 347.924 312.048 343.28C310.331 338.536 308.716 332.782 308.312 330.359L307.606 326.119H337.589H367.572L365.856 329.147C364.846 330.763 364.342 332.378 364.644 332.681C364.947 332.984 367.673 332.277 370.601 331.065C375.346 329.147 385.744 326.22 387.965 326.119C388.369 326.119 388.671 329.046 388.671 332.681C388.671 337.829 388.974 339.242 390.186 339.242C391.397 339.242 391.7 337.829 391.7 332.681V326.119H406.944C418.655 326.119 422.087 325.816 421.784 324.807C421.38 323.898 417.241 323.494 406.54 323.292L391.7 322.989V273.625C391.7 246.469 391.296 224.058 390.892 223.756C390.388 223.453 389.58 223.554 389.075 224.058ZM388.671 263.53V299.872H377.062H365.452L365.25 308.655C365.25 313.601 365.25 318.75 365.351 320.264L365.553 323.09H305.587H245.62L246.125 317.538C246.529 312.491 246.327 311.784 243.5 309.058L240.472 305.929L252.687 299.468C259.451 295.834 288.626 280.389 317.499 265.145L369.995 237.283L370.298 240.816C370.5 242.734 371.005 244.349 371.61 244.349C372.115 244.349 372.519 243.946 372.519 243.441C372.519 242.633 387.359 227.188 388.167 227.188C388.47 227.188 388.671 243.542 388.671 263.53ZM199.888 330.662V361.451H114.582H29.2765V330.662V299.872H114.582H199.888V330.662ZM389.681 313.096V324.403L384.532 323.696C381.706 323.292 376.759 321.98 373.629 320.668L367.976 318.447L367.673 310.169L367.37 301.891H378.576H389.681V313.096ZM243.298 311.885C244.813 314.913 244.51 319.557 242.592 321.98C240.875 324.1 240.068 324.201 223.41 323.898L206.046 323.595L221.391 315.418C236.03 307.544 236.837 307.241 239.462 308.554C240.976 309.361 242.692 310.875 243.298 311.885ZM304.88 333.387C303.971 337.425 302.154 343.179 300.943 346.107C298.116 353.274 298.217 353.88 302.356 351.457L305.889 349.438V355.394V361.451H254.403H202.917V343.785V326.119H254.807H306.596L304.88 333.387Z" fill="white"/>
<path d="M252.788 304.112C250.971 307.544 251.274 314.005 253.394 316.529C255.11 318.548 259.854 318.447 261.571 316.327C262.378 315.418 262.984 312.39 262.984 309.462C262.984 303.304 261.369 300.881 257.331 300.881C255.11 300.881 254.1 301.588 252.788 304.112ZM258.744 302.598C258.946 303.102 259.451 304.617 259.854 306.131C260.46 308.756 260.258 308.957 257.533 308.957C254.504 308.957 254.403 308.352 256.018 303.102C256.422 301.79 258.037 301.487 258.744 302.598ZM259.552 313.096C259.249 314.712 258.643 316.125 258.138 316.125C257.734 316.024 257.028 316.024 256.523 316.024C256.018 316.024 255.413 314.611 255.211 312.995C254.807 310.27 255.009 309.967 257.432 309.967C259.955 309.967 260.157 310.169 259.552 313.096Z" fill="white"/>
<path d="M29.2773 331.166V361.451H114.583H199.889V331.166V300.881H114.583H29.2773V331.166Z" fill="#06AE45"/>
<rect x="388.747" y="299.822" width="2.019" height="25.2375" fill="white"/>
<path d="M140.415 5.36C141.035 5.36 141.555 5.55 141.975 5.93C142.395 6.31 142.605 6.72 142.605 7.16C142.605 7.6 142.335 8.09 141.795 8.63C141.255 9.17 140.575 9.73 139.755 10.31C138.955 10.89 138.075 11.64 137.115 12.56C136.175 13.48 135.295 14.46 134.475 15.5C133.675 16.52 133.005 17.8 132.465 19.34C131.925 20.88 131.655 22.41 131.655 23.93C131.655 25.43 131.915 26.69 132.435 27.71C132.955 28.73 133.585 29.54 134.325 30.14C135.085 30.74 135.835 31.28 136.575 31.76C137.335 32.22 137.975 32.66 138.495 33.08C139.015 33.5 139.275 33.91 139.275 34.31C139.275 34.77 138.945 35 138.285 35C136.545 35 134.845 34.52 133.185 33.56C131.545 32.6 130.185 31.24 129.105 29.48C128.045 27.72 127.515 25.83 127.515 23.81C127.515 21.79 127.855 19.81 128.535 17.87C129.235 15.91 130.105 14.2 131.145 12.74C132.185 11.28 133.305 9.98 134.505 8.84C135.705 7.7 136.835 6.84 137.895 6.26C138.955 5.66 139.795 5.36 140.415 5.36ZM144.031 11.51C144.251 10.85 144.891 10.43 145.951 10.25C147.011 10.07 148.611 9.98 150.751 9.98C152.911 9.98 154.561 10.16 155.701 10.52C156.841 10.86 157.411 11.35 157.411 11.99C157.411 12.29 157.291 12.51 157.051 12.65C156.831 12.77 156.631 12.87 156.451 12.95C156.291 13.01 156.061 13.07 155.761 13.13C155.481 13.19 155.221 13.25 154.981 13.31C154.741 13.35 154.421 13.39 154.021 13.43C153.641 13.47 153.311 13.51 153.031 13.55C152.751 13.57 152.381 13.61 151.921 13.67C151.461 13.71 151.041 13.75 150.661 13.79C150.281 13.83 149.281 13.98 147.661 14.24V14.27C147.661 14.99 147.351 16.9 146.731 20C146.991 20.02 147.461 20.03 148.141 20.03C148.841 20.03 149.751 19.98 150.871 19.88C151.991 19.76 152.721 19.7 153.061 19.7C153.421 19.7 153.721 19.79 153.961 19.97C154.201 20.15 154.321 20.35 154.321 20.57C154.321 21.11 154.001 21.59 153.361 22.01C152.721 22.43 151.921 22.76 150.961 23C149.041 23.48 147.351 23.74 145.891 23.78C145.291 26.32 144.921 27.88 144.781 28.46C144.661 29.02 144.531 29.56 144.391 30.08C144.131 31.1 143.891 31.61 143.671 31.61C143.251 31.61 142.681 31.14 141.961 30.2C141.241 29.26 140.881 28.56 140.881 28.1C140.881 27.3 141.371 24.76 142.351 20.48C143.351 16.2 143.881 13.51 143.941 12.41V12.17C143.941 11.91 143.971 11.69 144.031 11.51ZM168.204 26.93C168.204 25.53 168.644 23.99 169.524 22.31C170.404 20.63 171.554 19.19 172.974 17.99C174.414 16.79 175.824 16.19 177.204 16.19C177.904 16.19 178.624 16.65 179.364 17.57C180.104 18.47 180.474 19.28 180.474 20C180.474 20.52 180.234 20.78 179.754 20.78C179.514 20.78 179.184 20.67 178.764 20.45C178.344 20.23 177.914 20.12 177.474 20.12C177.034 20.12 176.404 20.5 175.584 21.26C174.784 22 174.064 22.9 173.424 23.96C172.804 25 172.494 25.82 172.494 26.42C172.494 27.02 172.604 27.41 172.824 27.59C173.064 27.77 173.624 27.86 174.504 27.86C175.404 27.86 176.214 27.78 176.934 27.62C177.674 27.46 178.214 27.3 178.554 27.14C178.914 26.96 179.234 26.87 179.514 26.87C180.074 26.87 180.354 27.11 180.354 27.59C180.354 28.47 179.584 29.37 178.044 30.29C176.504 31.19 174.964 31.64 173.424 31.64C172.444 31.64 171.324 31.1 170.064 30.02C168.824 28.92 168.204 27.89 168.204 26.93ZM187.111 28.58C188.191 28.1 189.131 27.13 189.931 25.67C190.731 24.21 191.131 22.84 191.131 21.56C191.131 20.28 190.951 19.4 190.591 18.92C189.731 19.42 188.871 20.47 188.011 22.07C187.171 23.67 186.751 25.08 186.751 26.3C186.751 27.5 186.871 28.26 187.111 28.58ZM182.731 26.6C182.731 24.1 183.501 21.73 185.041 19.49C186.601 17.25 188.141 16.13 189.661 16.13C191.181 16.13 192.461 16.67 193.501 17.75C194.541 18.81 195.061 20.1 195.061 21.62C195.061 23.12 194.701 24.65 193.981 26.21C193.261 27.77 192.251 29.07 190.951 30.11C189.651 31.13 188.261 31.64 186.781 31.64C185.681 31.64 184.731 31.15 183.931 30.17C183.131 29.19 182.731 28 182.731 26.6ZM206.133 16.19C206.893 16.19 207.643 16.64 208.383 17.54C209.123 18.44 209.493 19.25 209.493 19.97C209.493 20.45 209.283 20.69 208.863 20.69C208.623 20.69 208.273 20.6 207.813 20.42C207.353 20.22 206.883 20.12 206.403 20.12C205.943 20.12 205.253 20.28 204.333 20.6C203.433 20.92 202.983 21.34 202.983 21.86C202.983 22.06 203.253 22.35 203.793 22.73C204.333 23.11 204.923 23.5 205.563 23.9C206.203 24.3 206.793 24.86 207.333 25.58C207.873 26.28 208.143 27.05 208.143 27.89C208.143 28.71 207.533 29.54 206.313 30.38C205.113 31.22 203.693 31.64 202.053 31.64C200.433 31.64 199.043 31.27 197.883 30.53C196.723 29.79 196.143 29.03 196.143 28.25C196.143 27.47 196.463 27.08 197.103 27.08C197.363 27.08 197.673 27.18 198.033 27.38C199.033 27.96 200.273 28.25 201.753 28.25C203.253 28.25 204.003 28.05 204.003 27.65C204.003 27.25 203.713 26.81 203.133 26.33C202.573 25.83 201.953 25.37 201.273 24.95C200.613 24.53 199.993 24.02 199.413 23.42C198.853 22.8 198.573 22.2 198.573 21.62C198.573 20.54 199.553 19.37 201.513 18.11C203.473 16.83 205.013 16.19 206.133 16.19ZM218.937 32.3C216.317 32.3 214.367 31.27 213.087 29.21C211.807 27.15 211.167 24.3 211.167 20.66C211.167 18.22 211.427 16.14 211.947 14.42C212.467 12.68 213.297 11.35 214.437 10.43C215.577 9.51 217.077 9.05 218.937 9.05C221.557 9.05 223.507 10.07 224.787 12.11C226.087 14.13 226.737 16.98 226.737 20.66C226.737 23.08 226.477 25.16 225.957 26.9C225.437 28.64 224.607 29.98 223.467 30.92C222.327 31.84 220.817 32.3 218.937 32.3ZM215.667 18.95H222.237C222.157 16.57 221.857 14.88 221.337 13.88C220.837 12.86 220.047 12.35 218.967 12.35C217.867 12.35 217.057 12.86 216.537 13.88C216.037 14.88 215.747 16.57 215.667 18.95ZM218.937 29C220.057 29 220.877 28.49 221.397 27.47C221.917 26.45 222.197 24.73 222.237 22.31H215.637C215.677 24.69 215.947 26.4 216.447 27.44C216.967 28.48 217.797 29 218.937 29ZM241.748 13.52C241.748 16.02 241.358 18.45 240.578 20.81C239.818 23.17 238.858 25.19 237.698 26.87C236.558 28.53 235.338 30.01 234.038 31.31C232.738 32.59 231.548 33.55 230.468 34.19C229.388 34.83 228.618 35.15 228.158 35.15C227.358 35.15 226.958 34.91 226.958 34.43C226.958 33.85 227.878 32.72 229.718 31.04C231.458 29.4 233.158 27.32 234.818 24.8C235.598 23.6 236.248 22.17 236.768 20.51C237.288 18.85 237.548 17.32 237.548 15.92C237.548 14.5 237.388 13.4 237.068 12.62C236.748 11.84 236.358 11.24 235.898 10.82C235.458 10.4 235.008 10.03 234.548 9.71C234.088 9.39 233.698 9.06 233.378 8.72C233.058 8.36 232.898 7.88 232.898 7.28C232.898 6.68 233.108 6.19 233.528 5.81C233.968 5.41 234.578 5.21 235.358 5.21C236.958 5.21 238.418 6.09 239.738 7.85C241.078 9.59 241.748 11.48 241.748 13.52ZM257.566 7.76C258.046 7.76 258.676 8.2 259.456 9.08C260.236 9.94 260.626 10.75 260.626 11.51C260.626 11.89 260.276 13.47 259.576 16.25C258.876 19.03 258.456 20.71 258.316 21.29C256.716 28.19 255.546 31.64 254.806 31.64C254.386 31.64 253.916 31.39 253.396 30.89C252.876 30.39 252.616 29.9 252.616 29.42C252.616 29.32 252.626 29.24 252.646 29.18C250.646 30.82 249.206 31.64 248.326 31.64C247.466 31.64 246.626 31.18 245.806 30.26C245.006 29.32 244.606 28.47 244.606 27.71C244.606 26.95 244.706 26.11 244.906 25.19C245.126 24.25 245.456 23.26 245.896 22.22C246.336 21.18 246.836 20.21 247.396 19.31C247.976 18.39 248.666 17.64 249.466 17.06C250.286 16.46 251.126 16.16 251.986 16.16C253.266 16.16 254.316 16.81 255.136 18.11C256.216 13.37 256.736 10.22 256.696 8.66C256.696 8.06 256.986 7.76 257.566 7.76ZM248.716 27.83C249.216 27.83 250.056 27.4 251.236 26.54C252.436 25.68 253.326 24.59 253.906 23.27C253.886 23.11 253.876 22.76 253.876 22.22C253.876 21.68 253.696 21.17 253.336 20.69C252.976 20.21 252.646 19.97 252.346 19.97C251.746 19.97 251.166 20.29 250.606 20.93C250.066 21.57 249.636 22.33 249.316 23.21C248.636 25.07 248.296 26.48 248.296 27.44C248.296 27.6 248.316 27.71 248.356 27.77C248.416 27.81 248.536 27.83 248.716 27.83Z" fill="white"/>
<path d="M19.1856 118.675C20.7456 118.675 21.9256 119.295 22.7256 120.535C23.5256 121.775 23.9256 123.335 23.9256 125.215C23.9256 127.095 23.459 128.808 22.5256 130.355C21.6056 131.888 20.539 132.655 19.3256 132.655C18.4723 132.655 17.8456 132.175 17.4456 131.215C17.0456 130.255 16.7856 128.888 16.6656 127.115C16.1056 127.901 15.4656 128.795 14.7456 129.795C13.359 131.715 12.3856 132.675 11.8256 132.675C11.6123 132.675 11.3656 132.501 11.0856 132.155C10.8056 131.808 10.6656 131.375 10.6656 130.855C10.6656 130.321 10.8456 128.675 11.2056 125.915C11.5656 123.141 11.7456 120.981 11.7456 119.435C11.7456 118.941 11.8923 118.695 12.1856 118.695C12.479 118.695 12.819 118.868 13.2056 119.215C13.6056 119.561 13.8056 119.881 13.8056 120.175C13.8056 120.455 13.579 121.861 13.1256 124.395C12.6856 126.928 12.4123 128.915 12.3056 130.355C13.119 128.981 14.0323 127.715 15.0456 126.555C16.0723 125.381 16.8056 124.795 17.2456 124.795C17.699 124.795 18.0123 125.795 18.1856 127.795C18.2523 128.541 18.379 129.228 18.5656 129.855C18.7656 130.481 19.0323 130.795 19.3656 130.795C20.1123 130.795 20.759 130.195 21.3056 128.995C21.8656 127.781 22.1456 126.441 22.1456 124.975C22.1456 123.348 21.7856 122.095 21.0656 121.215C20.6923 120.748 20.279 120.515 19.8256 120.515C19.3856 120.515 19.0056 120.361 18.6856 120.055C18.379 119.748 18.2256 119.481 18.2256 119.255C18.2256 118.868 18.5456 118.675 19.1856 118.675ZM31.5302 126.235C31.5302 125.781 31.4568 125.355 31.3102 124.955C31.1635 124.541 30.9502 124.241 30.6702 124.055C29.7502 124.308 28.9568 125.021 28.2902 126.195C27.6368 127.355 27.3102 128.448 27.3102 129.475C27.3102 130.501 27.5635 131.141 28.0702 131.395C29.0302 131.208 29.8435 130.555 30.5102 129.435C31.1902 128.301 31.5302 127.235 31.5302 126.235ZM26.2702 126.415C26.7368 125.375 27.3435 124.521 28.0902 123.855C28.8502 123.175 29.6235 122.835 30.4102 122.835C31.2102 122.835 31.8768 123.175 32.4102 123.855C32.9435 124.521 33.2102 125.341 33.2102 126.315C33.2102 127.275 32.9768 128.261 32.5102 129.275C32.0435 130.275 31.3968 131.108 30.5702 131.775C29.7568 132.428 28.8902 132.755 27.9702 132.755C27.2902 132.755 26.7235 132.441 26.2702 131.815C25.8168 131.188 25.5902 130.395 25.5902 129.435C25.5902 128.461 25.8168 127.455 26.2702 126.415ZM35.7527 125.275L35.6927 123.775C35.6927 123.148 35.8393 122.835 36.1327 122.835C36.386 122.835 36.626 123.001 36.8527 123.335C37.0927 123.655 37.2127 124.041 37.2127 124.495C37.2127 124.935 37.1993 125.268 37.1727 125.495C38.3327 123.735 39.4327 122.855 40.4727 122.855C41.126 122.855 41.4527 123.015 41.4527 123.335C41.4527 123.495 41.3793 123.641 41.2327 123.775C41.086 123.908 40.8527 124.061 40.5327 124.235C39.826 124.541 39.226 125.015 38.7327 125.655C38.2527 126.281 37.8593 126.995 37.5527 127.795C37.246 128.595 36.9993 129.268 36.8127 129.815C36.6393 130.361 36.506 130.788 36.4127 131.095C36.3193 131.401 36.2127 131.701 36.0927 131.995C35.8793 132.528 35.6327 132.795 35.3527 132.795C35.126 132.795 34.9393 132.668 34.7927 132.415C34.6593 132.148 34.5927 131.895 34.5927 131.655C34.5927 131.401 34.706 130.908 34.9327 130.175C35.4793 128.495 35.7527 126.861 35.7527 125.275ZM50.0138 123.915C50.0138 124.035 49.4204 124.661 48.2338 125.795C47.7938 126.221 47.3871 126.728 47.0138 127.315C46.6538 127.888 46.4738 128.415 46.4738 128.895C46.4738 129.375 46.6138 129.821 46.8938 130.235C47.1871 130.635 47.5004 130.941 47.8338 131.155C48.1804 131.355 48.4938 131.555 48.7738 131.755C49.0671 131.955 49.2138 132.121 49.2138 132.255C49.2138 132.588 48.9471 132.755 48.4138 132.755C47.8938 132.755 47.2671 132.461 46.5338 131.875C45.8138 131.275 45.3671 130.608 45.1938 129.875C45.1271 129.741 45.0738 129.615 45.0338 129.495C44.1271 130.721 43.4671 131.575 43.0538 132.055C42.6538 132.521 42.3538 132.755 42.1538 132.755C41.9538 132.755 41.7338 132.601 41.4938 132.295C41.2538 131.975 41.1338 131.715 41.1338 131.515C41.1338 131.301 41.3471 130.441 41.7738 128.935C42.2138 127.415 42.6471 125.595 43.0738 123.475C43.5138 121.355 43.7338 119.461 43.7338 117.795C43.7338 117.581 43.7604 117.435 43.8138 117.355C43.8804 117.275 44.0138 117.235 44.2138 117.235C44.4138 117.235 44.6604 117.435 44.9538 117.835C45.2471 118.221 45.3938 118.601 45.3938 118.975C45.3938 120.161 45.1538 121.821 44.6738 123.955C44.1938 126.088 43.6204 128.115 42.9538 130.035C44.4604 127.888 45.7604 126.155 46.8538 124.835C47.9604 123.501 48.6404 122.835 48.8938 122.835C49.1604 122.835 49.4138 122.961 49.6538 123.215C49.8938 123.468 50.0138 123.701 50.0138 123.915ZM10.3482 147.555C10.6282 147.555 10.8682 147.655 11.0682 147.855C11.2815 148.041 11.3882 148.235 11.3882 148.435C11.3882 148.621 11.1949 148.875 10.8082 149.195C10.4349 149.515 9.96821 149.875 9.40821 150.275C8.84821 150.675 8.23488 151.195 7.56821 151.835C6.90155 152.475 6.28821 153.155 5.72821 153.875C5.16821 154.595 4.69488 155.481 4.30821 156.535C3.93488 157.588 3.74821 158.608 3.74821 159.595C3.74821 160.568 3.88155 161.388 4.14821 162.055C4.42821 162.708 4.76821 163.235 5.16821 163.635C5.58155 164.035 6.02821 164.401 6.50821 164.735C6.98821 165.055 7.43488 165.308 7.84821 165.495C8.79488 165.948 9.26821 166.315 9.26821 166.595C9.26821 166.888 9.07488 167.035 8.68821 167.035C8.04821 167.035 7.35488 166.868 6.60821 166.535C5.86155 166.215 5.13488 165.761 4.42821 165.175C3.72155 164.588 3.13488 163.808 2.66821 162.835C2.20155 161.848 1.96821 160.728 1.96821 159.475C1.96821 158.208 2.21488 156.921 2.70821 155.615C3.20155 154.295 3.80821 153.168 4.52821 152.235C5.24821 151.288 6.00821 150.455 6.80821 149.735C7.60821 149.001 8.32821 148.455 8.96821 148.095C9.62155 147.735 10.0815 147.555 10.3482 147.555ZM21.3152 151.455C21.3419 150.881 21.4752 150.595 21.7152 150.595C21.9686 150.595 22.2419 150.748 22.5352 151.055C22.8286 151.361 22.9752 151.635 22.9752 151.875C22.9752 152.968 22.8019 154.521 22.4552 156.535C22.1219 158.548 21.6686 160.415 21.0952 162.135C20.5352 163.855 20.0019 164.715 19.4952 164.715C19.3219 164.715 19.1219 164.628 18.8952 164.455C18.6819 164.281 18.5152 164.068 18.3952 163.815C17.9952 162.881 16.8152 159.921 14.8552 154.935C14.4552 156.481 14.0086 158.235 13.5152 160.195C13.0352 162.141 12.7152 163.381 12.5552 163.915C12.3952 164.448 12.2552 164.715 12.1352 164.715C11.9619 164.715 11.7486 164.568 11.4952 164.275C11.2552 163.968 11.1352 163.655 11.1352 163.335C11.1352 163.015 11.5686 161.141 12.4352 157.715C13.3019 154.275 13.7486 152.128 13.7752 151.275C13.7752 150.848 13.8886 150.635 14.1152 150.635C14.2619 150.635 14.4619 150.761 14.7152 151.015C14.9819 151.255 15.1752 151.521 15.2952 151.815C17.4419 157.388 18.8019 160.801 19.3752 162.055C20.2419 159.761 20.8219 157.021 21.1152 153.835C21.2486 152.368 21.3152 151.575 21.3152 151.455ZM32.0504 158.495C32.0504 158.708 31.8304 158.881 31.3904 159.015C30.9637 159.148 29.9171 159.381 28.2504 159.715C26.5971 160.048 25.6904 160.215 25.5304 160.215C25.3837 160.215 25.2037 160.101 24.9904 159.875C24.7771 159.648 24.6704 159.441 24.6704 159.255C24.6704 158.961 25.4237 158.681 26.9304 158.415C28.4371 158.135 29.7437 157.995 30.8504 157.995C31.6504 157.995 32.0504 158.161 32.0504 158.495ZM46.3501 154.835C46.7501 154.835 47.1034 155.115 47.4101 155.675C47.7301 156.221 47.8901 156.848 47.8901 157.555C47.8901 158.248 47.7634 159.155 47.5101 160.275C47.2701 161.395 46.9434 162.421 46.5301 163.355C46.1168 164.288 45.7101 164.755 45.3101 164.755C45.0301 164.755 44.8901 164.575 44.8901 164.215C44.8901 163.841 45.1168 162.941 45.5701 161.515C46.0368 160.075 46.2701 158.935 46.2701 158.095C46.2701 157.241 46.1368 156.815 45.8701 156.815C45.5368 156.815 45.1501 157.108 44.7101 157.695C44.2834 158.281 43.8234 158.988 43.3301 159.815C42.8368 160.641 42.5701 161.088 42.5301 161.155C42.4901 161.208 42.4368 161.288 42.3701 161.395C42.3168 161.501 42.2501 161.615 42.1701 161.735C42.1034 161.855 41.9168 162.215 41.6101 162.815C41.3168 163.415 41.0568 163.888 40.8301 164.235C40.6034 164.568 40.4034 164.735 40.2301 164.735C40.0701 164.735 39.8901 164.628 39.6901 164.415C39.4901 164.201 39.3901 164.001 39.3901 163.815C39.3901 163.628 39.5101 163.241 39.7501 162.655C40.4434 160.921 40.7901 159.308 40.7901 157.815C40.7901 157.535 40.7301 157.301 40.6101 157.115C40.4901 156.915 40.3568 156.815 40.2101 156.815C40.0634 156.815 39.9101 156.881 39.7501 157.015C39.5901 157.135 39.3901 157.361 39.1501 157.695C38.9101 158.015 38.6968 158.321 38.5101 158.615C38.3234 158.908 38.0368 159.368 37.6501 159.995C37.2768 160.608 36.9901 161.068 36.7901 161.375C36.6034 161.668 36.3834 162.015 36.1301 162.415C35.8768 162.801 35.6768 163.101 35.5301 163.315C35.3968 163.528 35.2434 163.761 35.0701 164.015C34.7101 164.508 34.4434 164.755 34.2701 164.755C34.1101 164.755 33.8968 164.608 33.6301 164.315C33.3634 164.008 33.2301 163.781 33.2301 163.635C33.2301 163.475 33.2568 163.281 33.3101 163.055C33.3634 162.828 33.4168 162.608 33.4701 162.395C33.5368 162.181 33.6301 161.868 33.7501 161.455C33.8834 161.028 34.0301 160.535 34.1901 159.975C34.3634 159.401 34.4901 158.621 34.5701 157.635C34.6634 156.635 34.7301 155.908 34.7701 155.455C34.8101 154.988 34.9234 154.755 35.1101 154.755C35.4034 154.755 35.6901 154.908 35.9701 155.215C36.2634 155.521 36.4101 155.828 36.4101 156.135C36.4101 157.308 35.9701 159.241 35.0901 161.935C36.5834 159.135 37.5234 157.475 37.9101 156.955C38.2968 156.435 38.6301 156.015 38.9101 155.695C39.4301 155.121 39.9568 154.835 40.4901 154.835C40.8101 154.835 41.1901 155.115 41.6301 155.675C42.0834 156.221 42.3101 156.775 42.3101 157.335C42.3101 157.895 42.2301 158.588 42.0701 159.415C43.6434 156.361 45.0701 154.835 46.3501 154.835ZM57.2281 153.635C57.2281 154.915 57.0414 156.175 56.6681 157.415C56.3081 158.641 55.8414 159.721 55.2681 160.655C54.6947 161.575 54.0614 162.435 53.3681 163.235C52.6881 164.021 52.0214 164.668 51.3681 165.175C49.9814 166.255 49.0347 166.795 48.5281 166.795C48.2214 166.795 48.0681 166.681 48.0681 166.455C48.0681 166.215 48.6947 165.548 49.9481 164.455C51.1881 163.388 52.3614 162.041 53.4681 160.415C54.0147 159.615 54.4681 158.681 54.8281 157.615C55.1881 156.535 55.3681 155.521 55.3681 154.575C55.3681 153.615 55.2547 152.835 55.0281 152.235C54.8147 151.635 54.5481 151.168 54.2281 150.835C53.9214 150.501 53.6081 150.215 53.2881 149.975C52.9681 149.735 52.6947 149.515 52.4681 149.315C52.2547 149.101 52.1481 148.895 52.1481 148.695C52.1481 148.121 52.5214 147.835 53.2681 147.835C54.1614 147.835 55.0414 148.408 55.9081 149.555C56.7881 150.701 57.2281 152.061 57.2281 153.635Z" fill="white"/>
<path d="M158.945 126.795H158.905C158.878 126.928 158.745 127.461 158.505 128.395C158.278 129.328 158.131 129.941 158.065 130.235C157.998 130.515 157.938 130.741 157.885 130.915C157.845 131.088 157.798 131.288 157.745 131.515C157.691 131.728 157.638 131.901 157.585 132.035C157.545 132.155 157.505 132.275 157.465 132.395C157.385 132.621 157.305 132.735 157.225 132.735C157.051 132.735 156.825 132.548 156.545 132.175C156.265 131.788 156.125 131.475 156.125 131.235C156.125 130.995 156.505 129.328 157.265 126.235C158.038 123.141 158.438 121.081 158.465 120.055C158.465 119.855 158.511 119.695 158.605 119.575C158.738 119.295 159.131 119.095 159.785 118.975C160.451 118.855 161.418 118.795 162.685 118.795C163.965 118.795 164.965 118.861 165.685 118.995C166.418 119.128 166.785 119.315 166.785 119.555C166.785 119.715 166.671 119.828 166.445 119.895C166.218 119.961 166.018 120.015 165.845 120.055C165.671 120.081 165.445 120.115 165.165 120.155C164.885 120.181 164.625 120.208 164.385 120.235C164.145 120.248 163.831 120.275 163.445 120.315C163.071 120.355 162.725 120.395 162.405 120.435C162.085 120.461 161.651 120.508 161.105 120.575C160.558 120.641 160.205 120.681 160.045 120.695C160.058 120.735 160.065 120.795 160.065 120.875C160.065 121.501 159.805 122.941 159.285 125.195C160.111 125.235 160.998 125.215 161.945 125.135C162.905 125.055 163.491 125.015 163.705 125.015C164.211 125.015 164.465 125.121 164.465 125.335C164.465 125.748 163.885 126.095 162.725 126.375C161.578 126.655 160.318 126.795 158.945 126.795ZM172.133 126.235C172.133 125.781 172.06 125.355 171.913 124.955C171.767 124.541 171.553 124.241 171.273 124.055C170.353 124.308 169.56 125.021 168.893 126.195C168.24 127.355 167.913 128.448 167.913 129.475C167.913 130.501 168.167 131.141 168.673 131.395C169.633 131.208 170.447 130.555 171.113 129.435C171.793 128.301 172.133 127.235 172.133 126.235ZM166.873 126.415C167.34 125.375 167.947 124.521 168.693 123.855C169.453 123.175 170.227 122.835 171.013 122.835C171.813 122.835 172.48 123.175 173.013 123.855C173.547 124.521 173.813 125.341 173.813 126.315C173.813 127.275 173.58 128.261 173.113 129.275C172.647 130.275 172 131.108 171.173 131.775C170.36 132.428 169.493 132.755 168.573 132.755C167.893 132.755 167.327 132.441 166.873 131.815C166.42 131.188 166.193 130.395 166.193 129.435C166.193 128.461 166.42 127.455 166.873 126.415ZM176.356 125.275L176.296 123.775C176.296 123.148 176.443 122.835 176.736 122.835C176.989 122.835 177.229 123.001 177.456 123.335C177.696 123.655 177.816 124.041 177.816 124.495C177.816 124.935 177.803 125.268 177.776 125.495C178.936 123.735 180.036 122.855 181.076 122.855C181.729 122.855 182.056 123.015 182.056 123.335C182.056 123.495 181.983 123.641 181.836 123.775C181.689 123.908 181.456 124.061 181.136 124.235C180.429 124.541 179.829 125.015 179.336 125.655C178.856 126.281 178.463 126.995 178.156 127.795C177.849 128.595 177.603 129.268 177.416 129.815C177.243 130.361 177.109 130.788 177.016 131.095C176.923 131.401 176.816 131.701 176.696 131.995C176.483 132.528 176.236 132.795 175.956 132.795C175.729 132.795 175.543 132.668 175.396 132.415C175.263 132.148 175.196 131.895 175.196 131.655C175.196 131.401 175.309 130.908 175.536 130.175C176.083 128.495 176.356 126.861 176.356 125.275ZM184.997 132.755C184.224 132.755 183.497 132.455 182.817 131.855C182.137 131.241 181.797 130.521 181.797 129.695C181.797 128.855 182.077 127.888 182.637 126.795C183.197 125.701 183.917 124.768 184.797 123.995C185.69 123.221 186.557 122.835 187.397 122.835C187.944 122.835 188.424 123.081 188.837 123.575C189.25 124.068 189.457 124.501 189.457 124.875C189.457 124.981 189.424 125.075 189.357 125.155C189.29 125.221 189.19 125.255 189.057 125.255C188.937 125.255 188.717 125.135 188.397 124.895C188.077 124.655 187.79 124.535 187.537 124.535C186.817 124.535 185.977 125.168 185.017 126.435C184.057 127.701 183.577 128.808 183.577 129.755C183.577 130.168 183.704 130.495 183.957 130.735C184.224 130.975 184.644 131.095 185.217 131.095C185.804 131.095 186.337 131.028 186.817 130.895C187.31 130.748 187.69 130.608 187.957 130.475C188.224 130.328 188.43 130.255 188.577 130.255C188.83 130.255 188.957 130.381 188.957 130.635C188.957 131.021 188.49 131.475 187.557 131.995C186.637 132.501 185.784 132.755 184.997 132.755ZM198.663 126.155C198.663 126.861 198.277 127.441 197.503 127.895C196.743 128.335 195.877 128.555 194.903 128.555C193.943 128.555 193.07 128.448 192.283 128.235C192.097 128.821 192.003 129.348 192.003 129.815C192.003 130.268 192.143 130.621 192.423 130.875C192.717 131.128 193.19 131.255 193.843 131.255C194.51 131.255 195.19 131.141 195.883 130.915C196.59 130.675 196.977 130.555 197.043 130.555C197.39 130.555 197.563 130.688 197.563 130.955C197.563 131.315 197.157 131.708 196.343 132.135C195.53 132.548 194.737 132.755 193.963 132.755C192.923 132.755 192.077 132.448 191.423 131.835C190.77 131.208 190.443 130.421 190.443 129.475C190.443 128.528 190.697 127.541 191.203 126.515C191.71 125.475 192.363 124.601 193.163 123.895C193.963 123.188 194.757 122.835 195.543 122.835C196.33 122.835 197.043 123.208 197.683 123.955C198.337 124.701 198.663 125.435 198.663 126.155ZM195.643 124.415C195.15 124.415 194.637 124.675 194.103 125.195C193.57 125.701 193.117 126.335 192.743 127.095C193.277 127.215 193.883 127.275 194.563 127.275C195.243 127.275 195.837 127.168 196.343 126.955C196.85 126.728 197.103 126.435 197.103 126.075C197.103 125.715 196.937 125.348 196.603 124.975C196.283 124.601 195.963 124.415 195.643 124.415ZM170.356 147.555C170.636 147.555 170.876 147.655 171.076 147.855C171.289 148.041 171.396 148.235 171.396 148.435C171.396 148.621 171.202 148.875 170.816 149.195C170.442 149.515 169.976 149.875 169.416 150.275C168.856 150.675 168.242 151.195 167.576 151.835C166.909 152.475 166.296 153.155 165.736 153.875C165.176 154.595 164.702 155.481 164.316 156.535C163.942 157.588 163.756 158.608 163.756 159.595C163.756 160.568 163.889 161.388 164.156 162.055C164.436 162.708 164.776 163.235 165.176 163.635C165.589 164.035 166.036 164.401 166.516 164.735C166.996 165.055 167.442 165.308 167.856 165.495C168.802 165.948 169.276 166.315 169.276 166.595C169.276 166.888 169.082 167.035 168.696 167.035C168.056 167.035 167.362 166.868 166.616 166.535C165.869 166.215 165.142 165.761 164.436 165.175C163.729 164.588 163.142 163.808 162.676 162.835C162.209 161.848 161.976 160.728 161.976 159.475C161.976 158.208 162.222 156.921 162.716 155.615C163.209 154.295 163.816 153.168 164.536 152.235C165.256 151.288 166.016 150.455 166.816 149.735C167.616 149.001 168.336 148.455 168.976 148.095C169.629 147.735 170.089 147.555 170.356 147.555ZM181.323 151.455C181.349 150.881 181.483 150.595 181.723 150.595C181.976 150.595 182.249 150.748 182.543 151.055C182.836 151.361 182.983 151.635 182.983 151.875C182.983 152.968 182.809 154.521 182.463 156.535C182.129 158.548 181.676 160.415 181.103 162.135C180.543 163.855 180.009 164.715 179.503 164.715C179.329 164.715 179.129 164.628 178.903 164.455C178.689 164.281 178.523 164.068 178.403 163.815C178.003 162.881 176.823 159.921 174.863 154.935C174.463 156.481 174.016 158.235 173.523 160.195C173.043 162.141 172.723 163.381 172.563 163.915C172.403 164.448 172.263 164.715 172.143 164.715C171.969 164.715 171.756 164.568 171.503 164.275C171.263 163.968 171.143 163.655 171.143 163.335C171.143 163.015 171.576 161.141 172.443 157.715C173.309 154.275 173.756 152.128 173.783 151.275C173.783 150.848 173.896 150.635 174.123 150.635C174.269 150.635 174.469 150.761 174.723 151.015C174.989 151.255 175.183 151.521 175.303 151.815C177.449 157.388 178.809 160.801 179.383 162.055C180.249 159.761 180.829 157.021 181.123 153.835C181.256 152.368 181.323 151.575 181.323 151.455ZM192.138 153.635C192.138 154.915 191.951 156.175 191.578 157.415C191.218 158.641 190.751 159.721 190.178 160.655C189.605 161.575 188.971 162.435 188.278 163.235C187.598 164.021 186.931 164.668 186.278 165.175C184.891 166.255 183.945 166.795 183.438 166.795C183.131 166.795 182.978 166.681 182.978 166.455C182.978 166.215 183.605 165.548 184.858 164.455C186.098 163.388 187.271 162.041 188.378 160.415C188.925 159.615 189.378 158.681 189.738 157.615C190.098 156.535 190.278 155.521 190.278 154.575C190.278 153.615 190.165 152.835 189.938 152.235C189.725 151.635 189.458 151.168 189.138 150.835C188.831 150.501 188.518 150.215 188.198 149.975C187.878 149.735 187.605 149.515 187.378 149.315C187.165 149.101 187.058 148.895 187.058 148.695C187.058 148.121 187.431 147.835 188.178 147.835C189.071 147.835 189.951 148.408 190.818 149.555C191.698 150.701 192.138 152.061 192.138 153.635Z" fill="white"/>
<path d="M286.109 253.379H286.059C286.025 253.546 285.859 254.213 285.559 255.379C285.275 256.546 285.092 257.313 285.009 257.679C284.925 258.029 284.85 258.313 284.784 258.529C284.734 258.746 284.675 258.996 284.609 259.279C284.542 259.546 284.475 259.763 284.409 259.929C284.359 260.079 284.309 260.229 284.259 260.379C284.159 260.663 284.059 260.804 283.959 260.804C283.742 260.804 283.459 260.571 283.109 260.104C282.759 259.621 282.584 259.229 282.584 258.929C282.584 258.629 283.059 256.546 284.009 252.679C284.975 248.813 285.475 246.238 285.509 244.954C285.509 244.704 285.567 244.504 285.684 244.354C285.85 244.004 286.342 243.754 287.159 243.604C287.992 243.454 289.2 243.379 290.784 243.379C292.384 243.379 293.634 243.463 294.534 243.629C295.45 243.796 295.909 244.029 295.909 244.329C295.909 244.529 295.767 244.671 295.484 244.754C295.2 244.838 294.95 244.904 294.734 244.954C294.517 244.988 294.234 245.029 293.884 245.079C293.534 245.113 293.209 245.146 292.909 245.179C292.609 245.196 292.217 245.229 291.734 245.279C291.267 245.329 290.834 245.379 290.434 245.429C290.034 245.463 289.492 245.521 288.809 245.604C288.125 245.688 287.684 245.738 287.484 245.754C287.5 245.804 287.509 245.879 287.509 245.979C287.509 246.763 287.184 248.563 286.534 251.379C287.567 251.429 288.675 251.404 289.859 251.304C291.059 251.204 291.792 251.154 292.059 251.154C292.692 251.154 293.009 251.288 293.009 251.554C293.009 252.071 292.284 252.504 290.834 252.854C289.4 253.204 287.825 253.379 286.109 253.379Z" fill="white"/>
<path d="M280.078 403.795H280.028C279.995 403.962 279.828 404.628 279.528 405.795C279.245 406.962 279.062 407.728 278.978 408.095C278.895 408.445 278.82 408.728 278.753 408.945C278.703 409.162 278.645 409.412 278.578 409.695C278.512 409.962 278.445 410.178 278.378 410.345C278.328 410.495 278.278 410.645 278.228 410.795C278.128 411.078 278.028 411.22 277.928 411.22C277.712 411.22 277.428 410.987 277.078 410.52C276.728 410.037 276.553 409.645 276.553 409.345C276.553 409.045 277.028 406.962 277.978 403.095C278.945 399.228 279.445 396.653 279.478 395.37C279.478 395.12 279.537 394.92 279.653 394.77C279.82 394.42 280.312 394.17 281.128 394.02C281.962 393.87 283.17 393.795 284.753 393.795C286.353 393.795 287.603 393.878 288.503 394.045C289.42 394.212 289.878 394.445 289.878 394.745C289.878 394.945 289.737 395.087 289.453 395.17C289.17 395.253 288.92 395.32 288.703 395.37C288.487 395.403 288.203 395.445 287.853 395.495C287.503 395.528 287.178 395.562 286.878 395.595C286.578 395.612 286.187 395.645 285.703 395.695C285.237 395.745 284.803 395.795 284.403 395.845C284.003 395.878 283.462 395.937 282.778 396.02C282.095 396.103 281.653 396.153 281.453 396.17C281.47 396.22 281.478 396.295 281.478 396.395C281.478 397.178 281.153 398.978 280.503 401.795C281.537 401.845 282.645 401.82 283.828 401.72C285.028 401.62 285.762 401.57 286.028 401.57C286.662 401.57 286.978 401.703 286.978 401.97C286.978 402.487 286.253 402.92 284.803 403.27C283.37 403.62 281.795 403.795 280.078 403.795ZM293.039 411.245C292.073 411.245 291.164 410.87 290.314 410.12C289.464 409.353 289.039 408.453 289.039 407.42C289.039 406.37 289.389 405.162 290.089 403.795C290.789 402.428 291.689 401.262 292.789 400.295C293.906 399.328 294.989 398.845 296.039 398.845C296.723 398.845 297.323 399.153 297.839 399.77C298.356 400.387 298.614 400.928 298.614 401.395C298.614 401.528 298.573 401.645 298.489 401.745C298.406 401.828 298.281 401.87 298.114 401.87C297.964 401.87 297.689 401.72 297.289 401.42C296.889 401.12 296.531 400.97 296.214 400.97C295.314 400.97 294.264 401.762 293.064 403.345C291.864 404.928 291.264 406.312 291.264 407.495C291.264 408.012 291.423 408.42 291.739 408.72C292.073 409.02 292.598 409.17 293.314 409.17C294.048 409.17 294.714 409.087 295.314 408.92C295.931 408.737 296.406 408.562 296.739 408.395C297.073 408.212 297.331 408.12 297.514 408.12C297.831 408.12 297.989 408.278 297.989 408.595C297.989 409.078 297.406 409.645 296.239 410.295C295.089 410.928 294.023 411.245 293.039 411.245ZM307.697 403.095C307.697 402.528 307.606 401.995 307.422 401.495C307.239 400.978 306.972 400.603 306.622 400.37C305.472 400.687 304.481 401.578 303.647 403.045C302.831 404.495 302.422 405.862 302.422 407.145C302.422 408.428 302.739 409.228 303.372 409.545C304.572 409.312 305.589 408.495 306.422 407.095C307.272 405.678 307.697 404.345 307.697 403.095ZM301.122 403.32C301.706 402.02 302.464 400.953 303.397 400.12C304.347 399.27 305.314 398.845 306.297 398.845C307.297 398.845 308.131 399.27 308.797 400.12C309.464 400.953 309.797 401.978 309.797 403.195C309.797 404.395 309.506 405.628 308.922 406.895C308.339 408.145 307.531 409.187 306.497 410.02C305.481 410.837 304.397 411.245 303.247 411.245C302.397 411.245 301.689 410.853 301.122 410.07C300.556 409.287 300.272 408.295 300.272 407.095C300.272 405.878 300.556 404.62 301.122 403.32ZM318.625 398.845C319.192 398.845 319.725 399.162 320.225 399.795C320.725 400.412 320.975 400.953 320.975 401.42C320.975 401.703 320.842 401.845 320.575 401.845C320.392 401.845 320.109 401.703 319.725 401.42C319.342 401.12 318.95 400.97 318.55 400.97C318.15 400.97 317.517 401.203 316.65 401.67C315.8 402.137 315.375 402.628 315.375 403.145C315.375 403.528 316.142 404.187 317.675 405.12C318.259 405.487 318.784 405.962 319.25 406.545C319.734 407.112 319.975 407.728 319.975 408.395C319.975 409.045 319.517 409.687 318.6 410.32C317.7 410.937 316.642 411.245 315.425 411.245C314.225 411.245 313.159 410.953 312.225 410.37C311.309 409.787 310.85 409.237 310.85 408.72C310.85 408.503 310.9 408.337 311 408.22C311.117 408.087 311.259 408.02 311.425 408.02C311.592 408.02 311.825 408.128 312.125 408.345C313.025 408.995 313.959 409.32 314.925 409.32C315.909 409.32 316.617 409.212 317.05 408.995C317.484 408.762 317.7 408.462 317.7 408.095C317.7 407.712 317.459 407.312 316.975 406.895C316.492 406.462 315.959 406.078 315.375 405.745C314.809 405.412 314.284 405.003 313.8 404.52C313.317 404.037 313.075 403.545 313.075 403.045C313.075 402.162 313.767 401.245 315.15 400.295C316.55 399.328 317.709 398.845 318.625 398.845ZM328.745 411.87C326.678 411.87 325.153 411.012 324.17 409.295C323.203 407.578 322.72 405.212 322.72 402.195C322.72 400.162 322.92 398.42 323.32 396.97C323.72 395.52 324.361 394.412 325.245 393.645C326.145 392.878 327.311 392.495 328.745 392.495C330.828 392.495 332.361 393.345 333.345 395.045C334.345 396.728 334.845 399.112 334.845 402.195C334.845 404.212 334.636 405.945 334.22 407.395C333.82 408.828 333.17 409.937 332.27 410.72C331.386 411.487 330.211 411.87 328.745 411.87ZM324.945 401.07H332.595C332.511 398.803 332.17 397.12 331.57 396.02C330.97 394.903 330.028 394.345 328.745 394.345C327.478 394.345 326.545 394.903 325.945 396.02C325.361 397.12 325.028 398.803 324.945 401.07ZM328.745 410.045C330.045 410.045 331.003 409.478 331.62 408.345C332.236 407.195 332.57 405.337 332.62 402.77H324.945C324.978 405.32 325.286 407.17 325.87 408.32C326.47 409.47 327.428 410.045 328.745 410.045Z" fill="white"/>
<path d="M309.373 118.635C310.626 118.635 311.959 118.961 313.373 119.615C314.799 120.268 316.026 121.175 317.053 122.335C318.079 123.481 318.593 124.675 318.593 125.915C318.593 126.728 318.026 127.688 316.893 128.795C315.773 129.888 314.473 130.828 312.993 131.615C311.513 132.388 310.286 132.775 309.313 132.775C309.059 132.775 308.766 132.561 308.433 132.135C308.113 131.695 307.953 131.255 307.953 130.815C307.953 130.361 308.339 128.748 309.113 125.975C309.886 123.201 310.306 121.375 310.373 120.495C309.946 120.321 309.606 120.095 309.353 119.815C309.099 119.535 308.973 119.268 308.973 119.015C308.973 118.761 309.106 118.635 309.373 118.635ZM316.753 125.695C316.753 124.868 316.259 123.975 315.273 123.015C314.286 122.041 313.139 121.341 311.833 120.915C311.899 121.155 311.933 121.441 311.933 121.775C311.933 122.095 311.813 122.701 311.573 123.595C311.346 124.488 310.926 125.981 310.313 128.075C310.059 128.955 309.853 129.921 309.693 130.975C310.613 130.855 311.639 130.455 312.773 129.775C313.919 129.081 314.866 128.341 315.613 127.555C316.373 126.768 316.753 126.148 316.753 125.695ZM322.423 119.995C322.423 119.728 322.53 119.475 322.743 119.235C322.956 118.995 323.17 118.875 323.383 118.875C323.61 118.875 323.876 119.148 324.183 119.695C324.49 120.228 324.643 120.675 324.643 121.035C324.643 121.168 324.583 121.288 324.463 121.395C324.343 121.501 324.216 121.555 324.083 121.555C323.763 121.555 323.403 121.361 323.003 120.975C322.616 120.588 322.423 120.261 322.423 119.995ZM322.323 122.835C322.576 122.835 322.816 122.988 323.043 123.295C323.27 123.601 323.383 123.901 323.383 124.195C323.383 124.488 323.19 125.368 322.803 126.835C322.416 128.288 321.93 129.921 321.343 131.735C321.116 132.401 320.83 132.735 320.483 132.735C320.296 132.735 320.136 132.661 320.003 132.515C319.87 132.355 319.803 132.181 319.803 131.995C319.803 131.795 319.85 131.488 319.943 131.075C320.05 130.648 320.196 130.088 320.383 129.395C320.583 128.688 320.736 128.115 320.843 127.675C320.963 127.235 321.083 126.741 321.203 126.195C321.323 125.635 321.416 125.188 321.483 124.855C321.563 124.508 321.65 124.161 321.743 123.815C321.93 123.161 322.123 122.835 322.323 122.835ZM330.349 122.835C330.802 122.835 331.229 123.088 331.629 123.595C332.029 124.088 332.229 124.521 332.229 124.895C332.229 125.121 332.122 125.235 331.909 125.235C331.762 125.235 331.535 125.121 331.229 124.895C330.922 124.655 330.609 124.535 330.289 124.535C329.969 124.535 329.462 124.721 328.769 125.095C328.089 125.468 327.749 125.861 327.749 126.275C327.749 126.581 328.362 127.108 329.589 127.855C330.055 128.148 330.475 128.528 330.849 128.995C331.235 129.448 331.429 129.941 331.429 130.475C331.429 130.995 331.062 131.508 330.329 132.015C329.609 132.508 328.762 132.755 327.789 132.755C326.829 132.755 325.975 132.521 325.229 132.055C324.495 131.588 324.129 131.148 324.129 130.735C324.129 130.561 324.169 130.428 324.249 130.335C324.342 130.228 324.455 130.175 324.589 130.175C324.722 130.175 324.909 130.261 325.149 130.435C325.869 130.955 326.615 131.215 327.389 131.215C328.175 131.215 328.742 131.128 329.089 130.955C329.435 130.768 329.609 130.528 329.609 130.235C329.609 129.928 329.415 129.608 329.029 129.275C328.642 128.928 328.215 128.621 327.749 128.355C327.295 128.088 326.875 127.761 326.489 127.375C326.102 126.988 325.909 126.595 325.909 126.195C325.909 125.488 326.462 124.755 327.569 123.995C328.689 123.221 329.615 122.835 330.349 122.835ZM339.684 122.775C340.258 122.775 340.751 123.141 341.164 123.875C341.591 124.608 341.804 125.368 341.804 126.155C341.804 126.928 341.578 127.708 341.124 128.495C340.671 129.268 340.111 129.961 339.444 130.575C338.778 131.188 338.038 131.701 337.224 132.115C336.424 132.515 335.684 132.715 335.004 132.715C334.738 132.715 334.484 132.681 334.244 132.615C334.191 132.841 334.098 133.248 333.964 133.835C333.831 134.421 333.718 134.908 333.624 135.295C333.531 135.681 333.424 136.095 333.304 136.535C333.064 137.441 332.851 137.895 332.664 137.895C332.478 137.895 332.284 137.748 332.084 137.455C331.871 137.175 331.764 136.921 331.764 136.695C331.764 136.468 331.978 135.495 332.404 133.775C333.684 128.588 334.324 125.095 334.324 123.295C334.324 122.895 334.471 122.695 334.764 122.695C335.004 122.695 335.291 122.875 335.624 123.235C335.971 123.581 336.144 123.968 336.144 124.395C336.144 124.608 336.118 124.841 336.064 125.095C337.251 123.548 338.458 122.775 339.684 122.775ZM334.804 131.155C335.511 131.155 336.271 130.915 337.084 130.435C337.911 129.955 338.611 129.321 339.184 128.535C339.771 127.735 340.064 126.941 340.064 126.155C340.064 125.048 339.804 124.495 339.284 124.495C338.764 124.495 338.058 124.941 337.164 125.835C336.284 126.728 335.584 127.888 335.064 129.315L334.604 131.155H334.804ZM346.635 118.915C346.635 121.421 346.115 124.675 345.075 128.675C344.409 131.395 343.942 132.755 343.675 132.755C343.489 132.755 343.269 132.608 343.015 132.315C342.775 132.021 342.655 131.795 342.655 131.635C342.655 131.475 342.849 130.648 343.235 129.155C343.622 127.661 344.009 125.828 344.395 123.655C344.782 121.468 344.975 119.501 344.975 117.755C344.975 117.568 345.002 117.435 345.055 117.355C345.109 117.275 345.222 117.235 345.395 117.235C345.569 117.235 345.815 117.428 346.135 117.815C346.469 118.188 346.635 118.555 346.635 118.915ZM352.918 122.835C353.518 122.835 354.071 123.141 354.578 123.755C355.084 124.355 355.338 124.901 355.338 125.395C355.338 125.875 355.171 126.368 354.838 126.875C354.998 127.075 355.078 127.248 355.078 127.395C355.078 127.768 354.991 128.408 354.818 129.315C354.658 130.221 354.558 130.815 354.518 131.095C354.491 131.375 354.464 131.601 354.438 131.775C354.411 131.935 354.378 132.095 354.338 132.255C354.284 132.588 354.164 132.755 353.978 132.755C353.738 132.755 353.538 132.548 353.378 132.135C353.231 131.708 353.144 131.161 353.118 130.495C351.931 132.001 350.831 132.755 349.818 132.755C349.204 132.755 348.598 132.495 347.998 131.975C347.411 131.441 347.118 130.895 347.118 130.335C347.118 129.535 347.411 128.548 347.998 127.375C348.584 126.188 349.344 125.135 350.278 124.215C351.211 123.295 352.091 122.835 352.918 122.835ZM353.838 126.355C353.838 125.115 353.591 124.495 353.098 124.495C352.578 124.495 351.971 124.868 351.278 125.615C350.584 126.348 349.998 127.181 349.518 128.115C349.038 129.048 348.798 129.788 348.798 130.335C348.798 130.561 348.891 130.748 349.078 130.895C349.264 131.028 349.484 131.095 349.738 131.095C350.364 131.095 351.071 130.675 351.858 129.835C352.644 128.981 353.191 127.948 353.498 126.735C353.538 126.535 353.651 126.415 353.838 126.375V126.355ZM360.193 132.755C359.419 132.755 358.693 132.455 358.013 131.855C357.333 131.241 356.993 130.521 356.993 129.695C356.993 128.855 357.273 127.888 357.833 126.795C358.393 125.701 359.113 124.768 359.993 123.995C360.886 123.221 361.753 122.835 362.593 122.835C363.139 122.835 363.619 123.081 364.033 123.575C364.446 124.068 364.653 124.501 364.653 124.875C364.653 124.981 364.619 125.075 364.553 125.155C364.486 125.221 364.386 125.255 364.253 125.255C364.133 125.255 363.913 125.135 363.593 124.895C363.273 124.655 362.986 124.535 362.733 124.535C362.013 124.535 361.173 125.168 360.213 126.435C359.253 127.701 358.773 128.808 358.773 129.755C358.773 130.168 358.899 130.495 359.153 130.735C359.419 130.975 359.839 131.095 360.413 131.095C360.999 131.095 361.533 131.028 362.013 130.895C362.506 130.748 362.886 130.608 363.153 130.475C363.419 130.328 363.626 130.255 363.773 130.255C364.026 130.255 364.153 130.381 364.153 130.635C364.153 131.021 363.686 131.475 362.753 131.995C361.833 132.501 360.979 132.755 360.193 132.755ZM373.859 126.155C373.859 126.861 373.472 127.441 372.699 127.895C371.939 128.335 371.072 128.555 370.099 128.555C369.139 128.555 368.265 128.448 367.479 128.235C367.292 128.821 367.199 129.348 367.199 129.815C367.199 130.268 367.339 130.621 367.619 130.875C367.912 131.128 368.385 131.255 369.039 131.255C369.705 131.255 370.385 131.141 371.079 130.915C371.785 130.675 372.172 130.555 372.239 130.555C372.585 130.555 372.759 130.688 372.759 130.955C372.759 131.315 372.352 131.708 371.539 132.135C370.725 132.548 369.932 132.755 369.159 132.755C368.119 132.755 367.272 132.448 366.619 131.835C365.965 131.208 365.639 130.421 365.639 129.475C365.639 128.528 365.892 127.541 366.399 126.515C366.905 125.475 367.559 124.601 368.359 123.895C369.159 123.188 369.952 122.835 370.739 122.835C371.525 122.835 372.239 123.208 372.879 123.955C373.532 124.701 373.859 125.435 373.859 126.155ZM370.839 124.415C370.345 124.415 369.832 124.675 369.299 125.195C368.765 125.701 368.312 126.335 367.939 127.095C368.472 127.215 369.079 127.275 369.759 127.275C370.439 127.275 371.032 127.168 371.539 126.955C372.045 126.728 372.299 126.435 372.299 126.075C372.299 125.715 372.132 125.348 371.799 124.975C371.479 124.601 371.159 124.415 370.839 124.415ZM387.823 122.835C388.223 122.835 388.576 123.115 388.883 123.675C389.203 124.221 389.363 124.848 389.363 125.555C389.363 126.248 389.236 127.155 388.983 128.275C388.743 129.395 388.416 130.421 388.003 131.355C387.589 132.288 387.183 132.755 386.783 132.755C386.503 132.755 386.363 132.575 386.363 132.215C386.363 131.841 386.589 130.941 387.043 129.515C387.509 128.075 387.743 126.935 387.743 126.095C387.743 125.241 387.609 124.815 387.343 124.815C387.009 124.815 386.623 125.108 386.183 125.695C385.756 126.281 385.296 126.988 384.803 127.815C384.309 128.641 384.043 129.088 384.003 129.155C383.963 129.208 383.909 129.288 383.843 129.395C383.789 129.501 383.723 129.615 383.643 129.735C383.576 129.855 383.389 130.215 383.083 130.815C382.789 131.415 382.529 131.888 382.303 132.235C382.076 132.568 381.876 132.735 381.703 132.735C381.543 132.735 381.363 132.628 381.163 132.415C380.963 132.201 380.863 132.001 380.863 131.815C380.863 131.628 380.983 131.241 381.223 130.655C381.916 128.921 382.263 127.308 382.263 125.815C382.263 125.535 382.203 125.301 382.083 125.115C381.963 124.915 381.829 124.815 381.683 124.815C381.536 124.815 381.383 124.881 381.223 125.015C381.063 125.135 380.863 125.361 380.623 125.695C380.383 126.015 380.169 126.321 379.983 126.615C379.796 126.908 379.509 127.368 379.123 127.995C378.749 128.608 378.463 129.068 378.263 129.375C378.076 129.668 377.856 130.015 377.603 130.415C377.349 130.801 377.149 131.101 377.003 131.315C376.869 131.528 376.716 131.761 376.543 132.015C376.183 132.508 375.916 132.755 375.743 132.755C375.583 132.755 375.369 132.608 375.103 132.315C374.836 132.008 374.703 131.781 374.703 131.635C374.703 131.475 374.729 131.281 374.783 131.055C374.836 130.828 374.889 130.608 374.943 130.395C375.009 130.181 375.103 129.868 375.223 129.455C375.356 129.028 375.503 128.535 375.663 127.975C375.836 127.401 375.963 126.621 376.043 125.635C376.136 124.635 376.203 123.908 376.243 123.455C376.283 122.988 376.396 122.755 376.583 122.755C376.876 122.755 377.163 122.908 377.443 123.215C377.736 123.521 377.883 123.828 377.883 124.135C377.883 125.308 377.443 127.241 376.563 129.935C378.056 127.135 378.996 125.475 379.383 124.955C379.769 124.435 380.103 124.015 380.383 123.695C380.903 123.121 381.429 122.835 381.963 122.835C382.283 122.835 382.663 123.115 383.103 123.675C383.556 124.221 383.783 124.775 383.783 125.335C383.783 125.895 383.703 126.588 383.543 127.415C385.116 124.361 386.543 122.835 387.823 122.835ZM398.781 126.155C398.781 126.861 398.394 127.441 397.621 127.895C396.861 128.335 395.994 128.555 395.021 128.555C394.061 128.555 393.187 128.448 392.401 128.235C392.214 128.821 392.121 129.348 392.121 129.815C392.121 130.268 392.261 130.621 392.541 130.875C392.834 131.128 393.307 131.255 393.961 131.255C394.627 131.255 395.307 131.141 396.001 130.915C396.707 130.675 397.094 130.555 397.161 130.555C397.507 130.555 397.681 130.688 397.681 130.955C397.681 131.315 397.274 131.708 396.461 132.135C395.647 132.548 394.854 132.755 394.081 132.755C393.041 132.755 392.194 132.448 391.541 131.835C390.887 131.208 390.561 130.421 390.561 129.475C390.561 128.528 390.814 127.541 391.321 126.515C391.827 125.475 392.481 124.601 393.281 123.895C394.081 123.188 394.874 122.835 395.661 122.835C396.447 122.835 397.161 123.208 397.801 123.955C398.454 124.701 398.781 125.435 398.781 126.155ZM395.761 124.415C395.267 124.415 394.754 124.675 394.221 125.195C393.687 125.701 393.234 126.335 392.861 127.095C393.394 127.215 394.001 127.275 394.681 127.275C395.361 127.275 395.954 127.168 396.461 126.955C396.967 126.728 397.221 126.435 397.221 126.075C397.221 125.715 397.054 125.348 396.721 124.975C396.401 124.601 396.081 124.415 395.761 124.415ZM401.765 129.275C403.045 127.101 404.085 125.488 404.885 124.435C405.698 123.368 406.358 122.835 406.865 122.835C407.385 122.835 407.871 123.108 408.325 123.655C408.791 124.201 409.025 124.781 409.025 125.395C409.025 126.355 408.805 127.528 408.365 128.915C407.565 131.475 406.845 132.755 406.205 132.755C405.911 132.755 405.765 132.555 405.765 132.155C405.765 131.875 405.905 131.308 406.185 130.455C406.478 129.588 406.745 128.741 406.985 127.915C407.238 127.075 407.365 126.448 407.365 126.035C407.365 125.608 407.298 125.295 407.165 125.095C407.045 124.895 406.918 124.795 406.785 124.795C406.665 124.795 406.538 124.835 406.405 124.915C406.271 124.995 406.118 125.128 405.945 125.315C405.785 125.501 405.631 125.688 405.485 125.875C405.338 126.048 405.151 126.301 404.925 126.635C404.711 126.968 404.531 127.255 404.385 127.495C404.238 127.721 404.025 128.055 403.745 128.495C403.465 128.935 403.251 129.268 403.105 129.495C402.958 129.721 402.765 130.028 402.525 130.415C402.285 130.801 402.091 131.101 401.945 131.315C401.811 131.528 401.658 131.761 401.485 132.015C401.151 132.508 400.885 132.755 400.685 132.755C400.498 132.755 400.278 132.608 400.025 132.315C399.771 132.008 399.645 131.741 399.645 131.515C399.645 131.448 399.691 131.268 399.785 130.975C400.038 130.201 400.318 129.248 400.625 128.115C400.931 126.968 401.098 125.668 401.125 124.215C401.165 123.241 401.305 122.755 401.545 122.755C401.838 122.755 402.131 122.908 402.425 123.215C402.718 123.521 402.865 123.861 402.865 124.235C402.865 124.595 402.751 125.301 402.525 126.355C402.311 127.395 402.058 128.368 401.765 129.275ZM412.709 130.755C412.709 131.008 412.855 131.135 413.149 131.135C413.655 131.135 414.269 130.995 414.989 130.715C415.722 130.421 416.129 130.275 416.209 130.275C416.449 130.275 416.569 130.401 416.569 130.655C416.569 131.041 416.169 131.488 415.369 131.995C414.582 132.501 413.862 132.755 413.209 132.755C412.569 132.755 412.035 132.581 411.609 132.235C411.182 131.875 410.969 131.508 410.969 131.135C410.969 130.761 411.049 130.288 411.209 129.715C411.369 129.128 411.595 128.361 411.889 127.415C412.195 126.455 412.435 125.661 412.609 125.035C411.982 125.181 411.562 125.255 411.349 125.255C411.135 125.255 410.922 125.148 410.709 124.935C410.509 124.708 410.409 124.495 410.409 124.295C410.409 123.975 411.275 123.668 413.009 123.375C413.249 122.268 413.369 121.288 413.369 120.435C413.369 120.035 413.502 119.835 413.769 119.835C413.995 119.835 414.275 119.981 414.609 120.275C414.942 120.555 415.109 120.875 415.109 121.235C415.109 121.595 414.995 122.228 414.769 123.135C415.529 123.068 416.135 123.035 416.589 123.035C417.389 123.035 417.789 123.208 417.789 123.555C417.789 123.755 417.569 123.921 417.129 124.055C416.702 124.188 415.795 124.395 414.409 124.675C414.129 125.728 413.775 126.935 413.349 128.295C412.922 129.641 412.709 130.461 412.709 130.755ZM354.096 147.555C354.376 147.555 354.616 147.655 354.816 147.855C355.03 148.041 355.136 148.235 355.136 148.435C355.136 148.621 354.943 148.875 354.556 149.195C354.183 149.515 353.716 149.875 353.156 150.275C352.596 150.675 351.983 151.195 351.316 151.835C350.65 152.475 350.036 153.155 349.476 153.875C348.916 154.595 348.443 155.481 348.056 156.535C347.683 157.588 347.496 158.608 347.496 159.595C347.496 160.568 347.63 161.388 347.896 162.055C348.176 162.708 348.516 163.235 348.916 163.635C349.33 164.035 349.776 164.401 350.256 164.735C350.736 165.055 351.183 165.308 351.596 165.495C352.543 165.948 353.016 166.315 353.016 166.595C353.016 166.888 352.823 167.035 352.436 167.035C351.796 167.035 351.103 166.868 350.356 166.535C349.61 166.215 348.883 165.761 348.176 165.175C347.47 164.588 346.883 163.808 346.416 162.835C345.95 161.848 345.716 160.728 345.716 159.475C345.716 158.208 345.963 156.921 346.456 155.615C346.95 154.295 347.556 153.168 348.276 152.235C348.996 151.288 349.756 150.455 350.556 149.735C351.356 149.001 352.076 148.455 352.716 148.095C353.37 147.735 353.83 147.555 354.096 147.555ZM367.383 154.835C367.783 154.835 368.137 155.115 368.443 155.675C368.763 156.221 368.923 156.848 368.923 157.555C368.923 158.248 368.797 159.155 368.543 160.275C368.303 161.395 367.977 162.421 367.563 163.355C367.15 164.288 366.743 164.755 366.343 164.755C366.063 164.755 365.923 164.575 365.923 164.215C365.923 163.841 366.15 162.941 366.603 161.515C367.07 160.075 367.303 158.935 367.303 158.095C367.303 157.241 367.17 156.815 366.903 156.815C366.57 156.815 366.183 157.108 365.743 157.695C365.317 158.281 364.857 158.988 364.363 159.815C363.87 160.641 363.603 161.088 363.563 161.155C363.523 161.208 363.47 161.288 363.403 161.395C363.35 161.501 363.283 161.615 363.203 161.735C363.137 161.855 362.95 162.215 362.643 162.815C362.35 163.415 362.09 163.888 361.863 164.235C361.637 164.568 361.437 164.735 361.263 164.735C361.103 164.735 360.923 164.628 360.723 164.415C360.523 164.201 360.423 164.001 360.423 163.815C360.423 163.628 360.543 163.241 360.783 162.655C361.477 160.921 361.823 159.308 361.823 157.815C361.823 157.535 361.763 157.301 361.643 157.115C361.523 156.915 361.39 156.815 361.243 156.815C361.097 156.815 360.943 156.881 360.783 157.015C360.623 157.135 360.423 157.361 360.183 157.695C359.943 158.015 359.73 158.321 359.543 158.615C359.357 158.908 359.07 159.368 358.683 159.995C358.31 160.608 358.023 161.068 357.823 161.375C357.637 161.668 357.417 162.015 357.163 162.415C356.91 162.801 356.71 163.101 356.563 163.315C356.43 163.528 356.277 163.761 356.103 164.015C355.743 164.508 355.477 164.755 355.303 164.755C355.143 164.755 354.93 164.608 354.663 164.315C354.397 164.008 354.263 163.781 354.263 163.635C354.263 163.475 354.29 163.281 354.343 163.055C354.397 162.828 354.45 162.608 354.503 162.395C354.57 162.181 354.663 161.868 354.783 161.455C354.917 161.028 355.063 160.535 355.223 159.975C355.397 159.401 355.523 158.621 355.603 157.635C355.697 156.635 355.763 155.908 355.803 155.455C355.843 154.988 355.957 154.755 356.143 154.755C356.437 154.755 356.723 154.908 357.003 155.215C357.297 155.521 357.443 155.828 357.443 156.135C357.443 157.308 357.003 159.241 356.123 161.935C357.617 159.135 358.557 157.475 358.943 156.955C359.33 156.435 359.663 156.015 359.943 155.695C360.463 155.121 360.99 154.835 361.523 154.835C361.843 154.835 362.223 155.115 362.663 155.675C363.117 156.221 363.343 156.775 363.343 157.335C363.343 157.895 363.263 158.588 363.103 159.415C364.677 156.361 366.103 154.835 367.383 154.835ZM378.261 153.635C378.261 154.915 378.075 156.175 377.701 157.415C377.341 158.641 376.875 159.721 376.301 160.655C375.728 161.575 375.095 162.435 374.401 163.235C373.721 164.021 373.055 164.668 372.401 165.175C371.015 166.255 370.068 166.795 369.561 166.795C369.255 166.795 369.101 166.681 369.101 166.455C369.101 166.215 369.728 165.548 370.981 164.455C372.221 163.388 373.395 162.041 374.501 160.415C375.048 159.615 375.501 158.681 375.861 157.615C376.221 156.535 376.401 155.521 376.401 154.575C376.401 153.615 376.288 152.835 376.061 152.235C375.848 151.635 375.581 151.168 375.261 150.835C374.955 150.501 374.641 150.215 374.321 149.975C374.001 149.735 373.728 149.515 373.501 149.315C373.288 149.101 373.181 148.895 373.181 148.695C373.181 148.121 373.555 147.835 374.301 147.835C375.195 147.835 376.075 148.408 376.941 149.555C377.821 150.701 378.261 152.061 378.261 153.635Z" fill="white"/>
</svg>
