<svg width="544" height="241" viewBox="0 0 544 241" fill="none" xmlns="http://www.w3.org/2000/svg">
<path d="M79.8848 22.2563H178.982" stroke="#37474F" stroke-width="2.6" stroke-miterlimit="10"/>
<path d="M94.0409 58.7179L85.4428 25.2948L76.8506 58.7179" fill="white"/>
<path d="M94.0409 58.7179L85.4428 25.2948L76.8506 58.7179" stroke="#37474F" stroke-width="2.6" stroke-miterlimit="10"/>
<path d="M75.8398 58.7178C75.8398 63.1918 80.141 66.8203 85.4462 66.8203C90.7514 66.8203 95.0525 63.1918 95.0525 58.7178H75.8398Z" fill="#E3D6FA"/>
<path d="M184.038 58.7179L174.428 25.2948L164.825 58.7179" fill="white"/>
<path d="M184.038 58.7179L174.428 25.2948L164.825 58.7179" stroke="#37474F" stroke-width="2.6" stroke-miterlimit="10"/>
<path d="M163.813 58.7178C163.813 63.1918 168.567 66.8203 174.431 66.8203C180.295 66.8203 185.049 63.1918 185.049 58.7178H163.813Z" fill="#E3D6FA"/>
<path d="M114.096 14.1538L113.535 21.1119C113.535 21.1119 107.97 23.5724 108.206 31.6456C108.072 37.0152 117.825 44.2473 117.825 44.2473V81H143.962V44.2473C145.556 42.0173 150.484 35.6697 150.611 32.038C150.611 24.0334 150.656 17.3432 150.668 14.1663L114.096 14.1538Z" fill="white" stroke="#37474F" stroke-width="2.6" stroke-miterlimit="10"/>
<path d="M146.624 50.6152H115.277V138.731H146.624V50.6152Z" fill="#E3D6FA" stroke="#37474F" stroke-width="2.6" stroke-miterlimit="10"/>
<path d="M149.657 139.743V57.705H113.254V139.743" fill="white"/>
<path d="M149.657 139.743V57.705H113.254V139.743" stroke="#37474F" stroke-width="2.6" stroke-miterlimit="10"/>
<path d="M141.527 15.5835V6.5012C141.527 5.30741 141.005 4.16251 140.074 3.31837C139.144 2.47423 137.882 2 136.566 2C135.25 2 133.989 2.47423 133.058 3.31837C132.128 4.16251 131.605 5.30741 131.605 6.5012L131.456 22.5567C131.456 24.629 133.72 26.3077 136.512 26.3077C139.304 26.3077 141.568 24.629 141.568 22.5567V15.5835H141.527Z" fill="white" stroke="#37474F" stroke-width="2.6" stroke-miterlimit="10"/>
<path d="M131.455 21.2436V7.72108C131.455 6.47237 130.952 5.27481 130.057 4.39184C129.161 3.50887 127.947 3.01282 126.68 3.01282C125.414 3.01282 124.199 3.50887 123.303 4.39184C122.408 5.27481 121.905 6.47237 121.905 7.72108L121.938 20.6154V10.0785C121.938 8.94311 121.48 7.85426 120.666 7.05145C119.852 6.24864 118.747 5.79762 117.596 5.79762C116.444 5.79762 115.34 6.24864 114.526 7.05145C113.711 7.85426 113.254 8.94311 113.254 10.0785V20.6154" fill="white"/>
<path d="M131.455 21.2436V7.72108C131.455 6.47237 130.952 5.27481 130.057 4.39184C129.161 3.50887 127.947 3.01282 126.68 3.01282C125.414 3.01282 124.199 3.50887 123.303 4.39184C122.408 5.27481 121.905 6.47237 121.905 7.72108L121.938 20.6154V10.0785C121.938 8.94311 121.48 7.85426 120.666 7.05145C119.852 6.24864 118.747 5.79762 117.596 5.79762C116.444 5.79762 115.34 6.24864 114.526 7.05145C113.711 7.85426 113.254 8.94311 113.254 10.0785V20.6154" stroke="#37474F" stroke-width="2.6" stroke-miterlimit="10"/>
<path d="M150.668 8.47453C150.668 6.01543 148.642 4.02563 146.144 4.02563C143.646 4.02563 141.62 6.01543 141.62 8.47453L141.567 8.91879V22.6096C141.567 24.6495 143.512 26.3077 145.911 26.3077H146.493C148.892 26.3077 150.569 25.0562 150.622 21.865L150.668 8.47453Z" fill="white" stroke="#37474F" stroke-width="2.6" stroke-miterlimit="10"/>
<path d="M113.254 21.2435H131.76C134.381 22.4742 136.511 24.4126 136.511 26.8125C136.511 27.3838 136.389 27.9496 136.15 28.4774C135.911 29.0052 135.561 29.4848 135.12 29.8888C134.679 30.2928 134.155 30.6133 133.579 30.8319C133.002 31.0505 132.384 31.1631 131.76 31.1631L122.178 31.2123C125.701 31.2253 129.075 32.516 131.561 34.8019C134.047 37.0877 135.443 40.1825 135.443 43.4087C135.443 43.4456 135.443 43.4825 135.443 43.5256" fill="white"/>
<path d="M113.254 21.2435H131.76C134.381 22.4742 136.511 24.4126 136.511 26.8125C136.511 27.3838 136.389 27.9496 136.15 28.4774C135.911 29.0052 135.561 29.4848 135.12 29.8888C134.679 30.2928 134.155 30.6133 133.579 30.8319C133.002 31.0505 132.384 31.1631 131.76 31.1631L122.178 31.2123C125.701 31.2253 129.075 32.516 131.561 34.8019C134.047 37.0877 135.443 40.1825 135.443 43.4087C135.443 43.4456 135.443 43.4825 135.443 43.5256" stroke="#37474F" stroke-width="2.6" stroke-miterlimit="10"/>
<path d="M93.0303 59.731H79.8848V60.7438H93.0303V59.731Z" fill="#37474F"/>
<path d="M77.8623 59.731H76.8506V60.7438H77.8623V59.731Z" fill="#37474F"/>
<path d="M182.014 59.731H167.857V60.7438H182.014V59.731Z" fill="#37474F"/>
<path d="M165.837 59.731H164.825V60.7438H165.837V59.731Z" fill="#37474F"/>
<path d="M422.128 70.8719H517.217C530.904 70.8719 542.001 83.9554 542.001 100.085V101.415C542.001 117.551 530.904 130.628 517.217 130.628H364.03" stroke="#E3D6FA" stroke-width="2.5" stroke-miterlimit="10" stroke-dasharray="6 6"/>
<path d="M205.273 22.2563H198.194V29.3461H205.273V22.2563Z" fill="#E3D6FA"/>
<path d="M205.273 33.3973H198.194V40.4871H205.273V33.3973Z" fill="#E3D6FA"/>
<path d="M205.273 45.5511H198.194V52.6409H205.273V45.5511Z" fill="#E3D6FA"/>
<path d="M205.273 57.705H198.194V64.7947H205.273V57.705Z" fill="#E3D6FA"/>
<path d="M199.673 29.3461C199.592 29.3438 199.514 29.3156 199.443 29.264C199.373 29.2125 199.314 29.1391 199.27 29.0504L198.357 27.4239C198.251 27.2285 198.194 26.9949 198.194 26.7554C198.194 26.5159 198.251 26.2823 198.357 26.0868C198.403 26.007 198.462 25.9421 198.53 25.8975C198.598 25.8529 198.673 25.8297 198.75 25.8297C198.826 25.8297 198.901 25.8529 198.969 25.8975C199.037 25.9421 199.097 26.007 199.142 26.0868L199.634 26.9418L201.249 23.5989C201.287 23.5108 201.34 23.4354 201.403 23.379C201.467 23.3226 201.541 23.2866 201.617 23.2741C201.694 23.2616 201.771 23.2729 201.844 23.3069C201.916 23.341 201.982 23.397 202.035 23.4704C202.152 23.654 202.222 23.8808 202.237 24.1193C202.251 24.3578 202.208 24.5961 202.113 24.8011L200.1 28.9732C200.058 29.0695 199.999 29.1512 199.928 29.2116C199.858 29.272 199.777 29.3092 199.692 29.3204L199.673 29.3461Z" fill="#37474F"/>
<path d="M239.652 23.2692H207.294V24.282H239.652V23.2692Z" fill="#37474F"/>
<path d="M228.529 26.3076H207.294V29.3461H228.529V26.3076Z" fill="#37474F"/>
<path d="M239.652 35.423H207.294V36.4358H239.652V35.423Z" fill="#37474F"/>
<path d="M228.529 38.4614H207.294V39.4742H228.529V38.4614Z" fill="#37474F"/>
<path d="M239.652 46.564H207.294V47.5768H239.652V46.564Z" fill="#37474F"/>
<path d="M228.529 50.6152H207.294V51.6281H228.529V50.6152Z" fill="#37474F"/>
<path d="M239.652 57.705H207.294V58.7178H239.652V57.705Z" fill="#37474F"/>
<path d="M228.529 61.7566H207.294V63.7822H228.529V61.7566Z" fill="#37474F"/>
<path d="M127.41 191.398H119.32V198.487H127.41V191.398Z" fill="#E3D6FA"/>
<path d="M121.169 198.487C121.068 198.485 120.969 198.461 120.881 198.417C120.793 198.373 120.719 198.311 120.666 198.236L119.525 196.882C119.392 196.721 119.32 196.527 119.32 196.328C119.32 196.129 119.392 195.935 119.525 195.774C119.582 195.707 119.657 195.652 119.742 195.614C119.828 195.576 119.923 195.556 120.019 195.556C120.115 195.556 120.21 195.576 120.295 195.614C120.381 195.652 120.456 195.707 120.513 195.774L121.126 196.486L123.143 193.698C123.19 193.624 123.256 193.562 123.336 193.515C123.416 193.468 123.507 193.438 123.603 193.427C123.699 193.417 123.796 193.426 123.886 193.455C123.977 193.483 124.059 193.53 124.125 193.591C124.27 193.744 124.357 193.933 124.373 194.132C124.39 194.33 124.335 194.528 124.217 194.698L121.702 198.172C121.654 198.254 121.581 198.324 121.492 198.375C121.402 198.426 121.3 198.455 121.193 198.461L121.169 198.487Z" fill="#37474F"/>
<path d="M160.78 193.423H129.433V194.436H160.78V193.423Z" fill="#37474F"/>
<path d="M150.668 197.474H129.433V198.487H150.668V197.474Z" fill="#37474F"/>
<path d="M38.425 77.9617H31.3467V85.0514H38.425V77.9617Z" fill="#E3D6FA"/>
<path d="M33.1944 85.0514C33.0934 85.0484 32.9946 85.0193 32.9068 84.9666C32.8191 84.9139 32.7451 84.8393 32.6916 84.7495L31.551 83.1306C31.4181 82.9356 31.3467 82.702 31.3467 82.4624C31.3467 82.2229 31.4181 81.9893 31.551 81.7943C31.608 81.7133 31.6823 81.6474 31.7681 81.602C31.8538 81.5567 31.9486 81.533 32.0446 81.533C32.1407 81.533 32.2354 81.5567 32.3212 81.602C32.4069 81.6474 32.4813 81.7133 32.5383 81.7943L33.1515 82.6487L35.1691 79.3081C35.2154 79.2196 35.281 79.1437 35.3606 79.0867C35.4402 79.0297 35.5314 78.9931 35.627 78.9799C35.7226 78.9668 35.8198 78.9775 35.9107 79.011C36.0016 79.0446 36.0837 79.1002 36.1503 79.1732C36.2961 79.3584 36.3833 79.5865 36.3998 79.826C36.4163 80.0654 36.3612 80.3043 36.2423 80.5094L33.728 84.6788C33.6754 84.7741 33.6017 84.8548 33.5131 84.9141C33.4245 84.9733 33.3236 85.0094 33.219 85.0193L33.1944 85.0514Z" fill="#37474F"/>
<path d="M73.8172 78.9745H41.459V79.9873H73.8172V78.9745Z" fill="#37474F"/>
<path d="M62.6941 82.0129H41.459V85.0514H62.6941V82.0129Z" fill="#37474F"/>
<path d="M481.328 54.6665H474.25V61.7562H481.328V54.6665Z" fill="#E3D6FA"/>
<path d="M476.098 61.7562C475.997 61.7543 475.899 61.7308 475.811 61.6879C475.724 61.6449 475.65 61.5838 475.596 61.5098L474.457 60.1812C474.322 60.0193 474.25 59.8242 474.25 59.6241C474.25 59.4239 474.322 59.2289 474.457 59.067C474.514 59.0004 474.588 58.9464 474.673 58.9092C474.758 58.872 474.852 58.8527 474.947 58.8527C475.042 58.8527 475.135 58.872 475.22 58.9092C475.305 58.9464 475.379 59.0004 475.436 59.067L476.049 59.7848L478.075 56.9669C478.122 56.8935 478.188 56.8307 478.268 56.7837C478.347 56.7367 478.439 56.7067 478.534 56.6963C478.629 56.6858 478.726 56.6952 478.817 56.7236C478.907 56.752 478.989 56.7987 479.055 56.8598C479.2 57.0134 479.287 57.2027 479.303 57.4014C479.32 57.6002 479.265 57.7984 479.147 57.9687L476.636 61.4455C476.587 61.5272 476.514 61.5963 476.425 61.646C476.336 61.6958 476.234 61.7245 476.128 61.7295L476.098 61.7562Z" fill="#37474F"/>
<path d="M516.721 56.6921H483.352V57.705H516.721V56.6921Z" fill="#37474F"/>
<path d="M504.587 60.7434H483.352V61.7562H504.587V60.7434Z" fill="#37474F"/>
<path d="M459.082 208.615H452.004V215.705H459.082V208.615Z" fill="#E3D6FA"/>
<path d="M454.222 216.718C454.101 216.715 453.982 216.686 453.877 216.633C453.772 216.581 453.683 216.506 453.619 216.416L452.25 214.791C452.09 214.598 452.004 214.365 452.004 214.127C452.004 213.888 452.09 213.656 452.25 213.462C452.318 213.381 452.407 213.315 452.51 213.27C452.613 213.225 452.727 213.201 452.842 213.201C452.957 213.201 453.071 213.225 453.174 213.27C453.277 213.315 453.366 213.381 453.435 213.462L454.17 214.316L456.592 210.971C456.648 210.882 456.727 210.807 456.823 210.751C456.919 210.694 457.028 210.659 457.143 210.646C457.258 210.634 457.374 210.645 457.483 210.679C457.592 210.713 457.69 210.769 457.769 210.842C457.944 211.026 458.048 211.253 458.068 211.491C458.087 211.73 458.022 211.967 457.88 212.171L454.862 216.339C454.804 216.438 454.717 216.522 454.61 216.583C454.502 216.644 454.379 216.679 454.251 216.686L454.222 216.718Z" fill="#37474F"/>
<path d="M494.475 209.628H461.105V210.641H494.475V209.628Z" fill="#37474F"/>
<path d="M483.352 214.692H461.105V215.705H483.352V214.692Z" fill="#37474F"/>
<path d="M326.616 203.551H319.538V210.641H326.616V203.551Z" fill="#E3D6FA"/>
<path d="M326.616 215.705H319.538V222.795H326.616V215.705Z" fill="#E3D6FA"/>
<path d="M326.616 191.398H319.538V198.487H326.616V191.398Z" fill="#E3D6FA"/>
<path d="M321.017 198.487C320.936 198.485 320.857 198.461 320.787 198.417C320.716 198.373 320.657 198.31 320.614 198.236L319.701 196.886C319.595 196.723 319.538 196.528 319.538 196.328C319.538 196.129 319.595 195.934 319.701 195.771C319.746 195.705 319.806 195.651 319.874 195.614C319.942 195.576 320.017 195.557 320.094 195.557C320.17 195.557 320.245 195.576 320.313 195.614C320.381 195.651 320.441 195.705 320.486 195.771L320.978 196.484L322.594 193.698C322.631 193.625 322.684 193.562 322.748 193.515C322.812 193.468 322.885 193.438 322.962 193.427C323.038 193.417 323.116 193.426 323.189 193.455C323.261 193.483 323.327 193.53 323.38 193.591C323.496 193.744 323.566 193.933 323.58 194.132C323.594 194.33 323.552 194.529 323.458 194.7L321.444 198.177C321.402 198.257 321.344 198.325 321.273 198.375C321.202 198.426 321.121 198.457 321.037 198.466L321.017 198.487Z" fill="#37474F"/>
<path d="M362.008 193.423H328.639V194.436H362.008V193.423Z" fill="#37474F"/>
<path d="M349.874 197.474H328.639V198.487H349.874V197.474Z" fill="#37474F"/>
<path d="M362.008 204.564H328.639V205.577H362.008V204.564Z" fill="#37474F"/>
<path d="M349.874 208.615H328.639V209.628H349.874V208.615Z" fill="#37474F"/>
<path d="M362.008 216.718H328.639V217.731H362.008V216.718Z" fill="#37474F"/>
<path d="M349.874 219.756H328.639V221.782H349.874V219.756Z" fill="#37474F"/>
<path d="M326.613 42.9966L322.571 49.6024V47.0929L326.613 40.4871L330.661 47.0929V49.6024L326.613 42.9966Z" fill="#37474F"/>
<path d="M327.627 42.5127V97.205" stroke="#37474F" stroke-width="2.5" stroke-miterlimit="10"/>
<path d="M336.73 58.9228L331.671 64.7947V62.5702L336.73 56.6921L341.783 62.5702V64.7947L336.73 58.9228Z" fill="#37474F"/>
<path d="M336.728 58.7178V96.1921" stroke="#37474F" stroke-width="2.5" stroke-miterlimit="10"/>
<path d="M253.808 64.2661L249.766 70.872V68.3694L253.808 61.7566L257.855 68.3694V70.872L253.808 64.2661Z" fill="#37474F"/>
<path d="M252.798 64.795V119.487" stroke="#37474F" stroke-width="2.5" stroke-miterlimit="10"/>
<path d="M468.183 100.244L450.473 78.7322L442.906 68.8463L435.755 78.1866L417.623 100.244" fill="white"/>
<path d="M468.183 100.244L450.473 78.7322L442.906 68.8463L435.755 78.1866L417.623 100.244" stroke="#37474F" stroke-width="2.5" stroke-miterlimit="10"/>
<path d="M439.306 77.8349L439.408 90.1155L444.86 81.2389L448.987 84.5475L450.993 79.7009L444.006 70.8719L437.848 78.7351L439.306 77.8349Z" fill="#E3D6FA"/>
<path d="M439.869 101.256L414.015 67.9097L402.964 53.6537L392.524 67.1167L366.052 101.256" fill="white"/>
<path d="M439.869 101.256L414.015 67.9097L402.964 53.6537L392.524 67.1167L366.052 101.256" stroke="#37474F" stroke-width="2.5" stroke-miterlimit="10"/>
<path d="M396.423 67.5302L392.344 76.3087L402.402 71.3251L410.434 77.9614L413.2 69.933L413.579 70.4224L413.472 69.9139L403.223 56.6921L393.916 68.6998L396.423 67.5302Z" fill="#E3D6FA"/>
<path d="M418.635 32.4458H413.127L403.467 32.3845V40.4871H418.635L414.215 36.5216L418.635 32.4458Z" fill="#E3D6FA"/>
<path d="M403.467 32.3845V54.6666" stroke="#37474F" stroke-width="2.5" stroke-miterlimit="10"/>
<path d="M461.106 95.1796L454.027 87.077" stroke="#37474F" stroke-width="2.5" stroke-miterlimit="10"/>
<path d="M453.015 86.0642V85.0514" stroke="#37474F" stroke-width="2.5" stroke-miterlimit="10"/>
<path d="M410.545 35.423H403.467" stroke="#37474F" stroke-width="2" stroke-miterlimit="10"/>
<path d="M411.558 35.423H410.546" stroke="#37474F" stroke-width="2" stroke-miterlimit="10"/>
<path d="M327.627 129.616H105.057C90.5972 129.616 78.873 116.752 78.873 100.879V99.6088C78.873 83.7356 90.5972 70.8719 105.057 70.8719H266.926" stroke="#E3D6FA" stroke-width="2.5" stroke-miterlimit="10" stroke-dasharray="6 6"/>
<path d="M315.492 205.577H92.9222C78.4624 205.577 66.7383 192.942 66.7383 177.351V176.066C66.7383 160.475 78.4624 147.846 92.9222 147.846H254.791" stroke="#37474F" stroke-width="2.5" stroke-miterlimit="10" stroke-dasharray="6 6"/>
<path d="M265.944 113.41H489.419C503.938 113.41 515.709 126.489 515.709 142.627V143.957C515.709 160.095 503.938 173.167 489.419 173.167H326.892" stroke="#37474F" stroke-width="2.5" stroke-miterlimit="10" stroke-dasharray="6 6"/>
<path d="M28.2138 60.6656L32.8844 58.1548C33.0261 58.1421 33.1556 58.0876 33.2457 58.0028C33.3358 57.9181 33.3792 57.8098 33.3669 57.7008C33.3743 57.6039 33.341 57.5076 33.2718 57.4262C33.2272 57.3777 33.1696 57.337 33.1028 57.3071C33.0359 57.2771 32.9615 57.2585 32.8844 57.2525L28.1846 54.7416C28.0618 54.6779 27.9114 54.6534 27.7654 54.6732C27.6194 54.6931 27.4892 54.7558 27.4025 54.8481C27.3175 54.9418 27.2844 55.0575 27.3104 55.1699C27.3365 55.2823 27.4195 55.3822 27.5414 55.4478L31.7734 57.6896L27.5414 59.9314C27.4813 59.9634 27.43 60.0041 27.3905 60.0513C27.3509 60.0985 27.3239 60.1512 27.311 60.2064C27.2981 60.2616 27.2996 60.3182 27.3153 60.3729C27.331 60.4277 27.3606 60.4796 27.4025 60.5255C27.4413 60.5777 27.4938 60.623 27.5567 60.6587C27.6196 60.6945 27.6915 60.7197 27.7678 60.7329C27.8442 60.7461 27.9233 60.7469 28.0001 60.7353C28.0769 60.7237 28.1497 60.7 28.2138 60.6656Z" fill="#37474F"/>
<path d="M23.1238 60.6764L27.8295 58.1514C27.9056 58.1433 27.9786 58.123 28.044 58.092C28.1094 58.0609 28.1658 58.0197 28.2095 57.9711C28.2849 57.8912 28.3212 57.7934 28.3118 57.6949C28.3205 57.5965 28.2843 57.4987 28.2095 57.4187C28.1664 57.3701 28.1101 57.3292 28.0445 57.2991C27.9789 57.2689 27.9055 57.2501 27.8295 57.244L23.1238 54.719C23.0018 54.668 22.8596 54.6535 22.7246 54.6784C22.5896 54.7033 22.4713 54.7658 22.3924 54.8539C22.3135 54.942 22.2797 55.0495 22.2973 55.1557C22.315 55.2619 22.3829 55.3593 22.488 55.4292L26.7189 57.6836L22.488 59.938C22.4272 59.9697 22.3751 60.0104 22.3351 60.0578C22.295 60.1052 22.2676 60.1584 22.2547 60.2141C22.2417 60.2698 22.2434 60.327 22.2597 60.3822C22.2759 60.4374 22.3064 60.4895 22.3492 60.5355C22.3874 60.5845 22.4379 60.6272 22.4978 60.6609C22.5577 60.6947 22.6257 60.7188 22.6979 60.732C22.7701 60.7451 22.845 60.747 22.9181 60.7374C22.9913 60.7279 23.0612 60.7071 23.1238 60.6764Z" fill="#37474F"/>
<path d="M19.8013 60.7029L22.9217 58.1829C23.0153 58.1658 23.1006 58.1103 23.1622 58.0266C23.2238 57.9429 23.2577 57.8364 23.2577 57.7263C23.2577 57.6161 23.2238 57.5096 23.1622 57.4259C23.1006 57.3422 23.0153 57.2868 22.9217 57.2696L19.8013 54.744C19.7608 54.7115 19.7153 54.6885 19.6671 54.6764C19.619 54.6643 19.5693 54.6633 19.5209 54.6735C19.4724 54.6837 19.4262 54.7049 19.3848 54.7359C19.3434 54.7668 19.3077 54.807 19.2796 54.854C19.2516 54.901 19.2318 54.9539 19.2214 55.0098C19.211 55.0657 19.2101 55.1235 19.2189 55.1797C19.2277 55.236 19.2459 55.2897 19.2726 55.3378C19.2993 55.3859 19.3338 55.4274 19.3743 55.46L22.1841 57.715L19.3743 59.97C19.3 60.0388 19.2511 60.1379 19.2375 60.2471C19.2239 60.3563 19.2465 60.4674 19.3009 60.5579C19.3553 60.6484 19.4373 60.7114 19.5303 60.7341C19.6232 60.7568 19.7201 60.7376 19.8013 60.6803V60.7029Z" fill="#37474F"/>
<path d="M15.0525 60.6708L19.7467 58.1679C19.8226 58.1598 19.8955 58.1397 19.9607 58.1088C20.0259 58.078 20.0821 58.0371 20.1258 57.9887C20.1897 57.9036 20.2234 57.807 20.2234 57.7087C20.2234 57.6104 20.1897 57.5139 20.1258 57.4287C20.0821 57.3804 20.0259 57.3395 19.9607 57.3086C19.8955 57.2778 19.8226 57.2577 19.7467 57.2496L15.0525 54.7354C14.9297 54.6745 14.7808 54.6528 14.6375 54.675C14.4942 54.6971 14.3678 54.7614 14.2852 54.854C14.2026 54.9466 14.1703 55.0604 14.1952 55.171C14.22 55.2817 14.3001 55.3805 14.4184 55.4465L18.6388 57.6863L14.4184 59.9261C14.3547 59.9581 14.2999 59.9994 14.257 60.0477C14.2142 60.0959 14.1841 60.1502 14.1685 60.2074C14.1529 60.2646 14.1522 60.3236 14.1663 60.381C14.1804 60.4384 14.2091 60.4931 14.2507 60.542C14.2924 60.5909 14.3461 60.6331 14.409 60.666C14.4718 60.6989 14.5425 60.7221 14.6169 60.734C14.6914 60.746 14.7682 60.7465 14.8429 60.7357C14.9177 60.7249 14.9889 60.7028 15.0525 60.6708Z" fill="#37474F"/>
<path d="M225.218 87.0012L229.144 84.0736C229.259 84.0543 229.363 83.9891 229.437 83.891C229.51 83.7928 229.546 83.6687 229.539 83.5431C229.549 83.4169 229.514 83.2911 229.44 83.1923C229.366 83.0934 229.26 83.029 229.144 83.0126L225.218 80.0786C225.168 80.0407 225.112 80.0138 225.053 79.9994C224.993 79.9851 224.932 79.9834 224.871 79.9947C224.811 80.0059 224.754 80.0298 224.702 80.065C224.651 80.1002 224.606 80.146 224.571 80.1997C224.536 80.2535 224.511 80.3141 224.498 80.3783C224.484 80.4424 224.483 80.5088 224.493 80.5736C224.504 80.6383 224.526 80.7003 224.559 80.7558C224.591 80.8113 224.634 80.8594 224.684 80.8972L228.202 83.5169L224.684 86.1367C224.582 86.2133 224.513 86.33 224.492 86.4614C224.47 86.5927 224.497 86.7279 224.568 86.8374C224.635 86.9517 224.74 87.033 224.862 87.0636C224.984 87.0943 225.112 87.0719 225.218 87.0012Z" fill="#37474F"/>
<path d="M221.024 87.0551L224.163 84.1042C224.214 84.094 224.264 84.0694 224.309 84.0319C224.353 83.9944 224.391 83.9449 224.421 83.8864C224.468 83.7934 224.49 83.6818 224.484 83.5695C224.49 83.4552 224.468 83.3415 224.421 83.2461C224.359 83.1321 224.266 83.0561 224.163 83.0348L221.024 80.0774C220.984 80.0397 220.939 80.013 220.891 79.9989C220.843 79.9848 220.794 79.9836 220.746 79.9952C220.698 80.0068 220.652 80.0312 220.611 80.0668C220.57 80.1024 220.535 80.1486 220.507 80.2028C220.479 80.257 220.459 80.3181 220.449 80.3826C220.439 80.4471 220.438 80.5137 220.446 80.5787C220.455 80.6436 220.473 80.7057 220.499 80.7613C220.525 80.8168 220.56 80.8649 220.6 80.9026L223.422 83.5431L220.6 86.1837C220.529 86.2656 220.484 86.3797 220.472 86.5041C220.461 86.6285 220.483 86.7544 220.536 86.8576C220.588 86.9607 220.667 87.034 220.757 87.0631C220.847 87.0923 220.942 87.0753 221.024 87.0155V87.0551Z" fill="#37474F"/>
<path d="M216.291 86.997L220.95 84.0763C221.09 84.0565 221.217 83.9922 221.309 83.8952C221.401 83.7982 221.452 83.6747 221.452 83.5471C221.452 83.4194 221.401 83.296 221.309 83.199C221.217 83.1019 221.09 83.0377 220.95 83.0178L216.291 80.0971C216.231 80.0542 216.162 80.0228 216.089 80.0048C216.015 79.9868 215.938 79.9826 215.863 79.9925C215.787 80.0024 215.715 80.0261 215.65 80.0622C215.585 80.0983 215.529 80.146 215.485 80.2024C215.442 80.2587 215.411 80.3226 215.396 80.39C215.381 80.4573 215.381 80.5268 215.397 80.5941C215.412 80.6614 215.443 80.7251 215.487 80.7812C215.531 80.8373 215.588 80.8847 215.653 80.9204L219.849 83.534L215.653 86.1476C215.593 86.1848 215.543 86.2323 215.503 86.2873C215.464 86.3423 215.437 86.4038 215.425 86.4681C215.412 86.5325 215.413 86.5985 215.429 86.6623C215.444 86.7262 215.474 86.7866 215.515 86.8402C215.554 86.8968 215.606 86.9458 215.666 86.9843C215.726 87.0229 215.794 87.0503 215.867 87.0648C215.939 87.0794 216.013 87.081 216.086 87.0693C216.159 87.0577 216.229 87.0331 216.291 86.997Z" fill="#37474F"/>
<path d="M212.933 87.0202L216.059 84.0816C216.153 84.0616 216.238 83.997 216.3 83.8993C216.362 83.8017 216.395 83.6775 216.395 83.5491C216.395 83.4207 216.362 83.2964 216.3 83.1988C216.238 83.1012 216.153 83.0366 216.059 83.0166L212.933 80.0779C212.852 80.0015 212.752 79.9717 212.655 79.9951C212.557 80.0185 212.471 80.0932 212.414 80.2028C212.359 80.3141 212.339 80.4499 212.357 80.5813C212.375 80.7127 212.43 80.8293 212.511 80.9063L215.322 83.5359L212.511 86.1656C212.471 86.2031 212.437 86.2509 212.411 86.3063C212.385 86.3616 212.367 86.4234 212.358 86.4881C212.35 86.5528 212.351 86.6192 212.361 86.6834C212.372 86.7476 212.391 86.8085 212.419 86.8624C212.447 86.9164 212.482 86.9624 212.523 86.9979C212.564 87.0334 212.609 87.0576 212.657 87.0692C212.705 87.0808 212.754 87.0795 212.801 87.0655C212.849 87.0514 212.894 87.0249 212.933 86.9873V87.0202Z" fill="#37474F"/>
<path d="M486.131 188.275L490.033 185.349C490.096 185.338 490.156 185.314 490.21 185.278C490.264 185.242 490.311 185.195 490.348 185.139C490.406 185.044 490.433 184.932 490.427 184.818C490.438 184.692 490.402 184.567 490.329 184.468C490.256 184.369 490.15 184.305 490.033 184.288L486.131 181.362C486.081 181.323 486.024 181.296 485.964 181.281C485.905 181.267 485.843 181.265 485.782 181.277C485.722 181.288 485.664 181.313 485.613 181.349C485.561 181.385 485.517 181.432 485.482 181.486C485.412 181.596 485.384 181.731 485.406 181.862C485.427 181.993 485.496 182.11 485.597 182.187L489.106 184.805L485.597 187.424C485.543 187.46 485.496 187.507 485.459 187.563C485.422 187.62 485.396 187.683 485.383 187.751C485.37 187.818 485.37 187.888 485.382 187.955C485.395 188.023 485.421 188.087 485.457 188.143C485.494 188.2 485.54 188.248 485.595 188.284C485.649 188.32 485.71 188.344 485.773 188.354C485.836 188.363 485.9 188.359 485.962 188.341C486.023 188.323 486.081 188.292 486.131 188.249V188.275Z" fill="#37474F"/>
<path d="M482.061 188.324L485.982 185.377C486.099 185.362 486.207 185.298 486.282 185.198C486.357 185.098 486.394 184.971 486.383 184.843C486.39 184.729 486.363 184.615 486.304 184.52C486.227 184.406 486.111 184.33 485.982 184.309L482.061 181.362C482.011 181.323 481.955 181.296 481.895 181.281C481.836 181.267 481.774 181.265 481.714 181.277C481.653 181.288 481.596 181.313 481.545 181.349C481.494 181.385 481.45 181.432 481.415 181.487C481.38 181.542 481.354 181.603 481.341 181.668C481.327 181.733 481.325 181.801 481.336 181.866C481.347 181.932 481.37 181.995 481.403 182.051C481.437 182.107 481.48 182.155 481.531 182.193L485.056 184.83L481.531 187.467C481.444 187.548 481.387 187.662 481.372 187.787C481.358 187.911 481.386 188.037 481.451 188.14C481.517 188.243 481.616 188.316 481.728 188.345C481.841 188.374 481.959 188.357 482.061 188.297V188.324Z" fill="#37474F"/>
<path d="M476.989 188.324L480.924 185.79C480.989 185.783 481.05 185.764 481.106 185.734C481.162 185.703 481.211 185.663 481.249 185.615C481.307 185.531 481.335 185.432 481.328 185.332C481.335 185.234 481.307 185.137 481.249 185.055C481.211 185.006 481.163 184.965 481.107 184.935C481.051 184.904 480.989 184.886 480.924 184.88L476.989 182.346C476.887 182.288 476.765 182.269 476.648 182.292C476.53 182.314 476.427 182.378 476.358 182.468C476.29 182.559 476.261 182.671 476.278 182.78C476.295 182.89 476.357 182.989 476.451 183.058L479.994 185.321L476.451 187.583C476.357 187.652 476.295 187.752 476.278 187.861C476.261 187.971 476.29 188.082 476.358 188.173C476.427 188.264 476.53 188.327 476.648 188.35C476.765 188.373 476.887 188.353 476.989 188.296V188.324Z" fill="#37474F"/>
<path d="M473.066 188.335L477.808 185.792C477.885 185.785 477.958 185.766 478.024 185.736C478.091 185.705 478.147 185.665 478.191 185.616C478.267 185.533 478.303 185.433 478.294 185.332C478.304 185.233 478.267 185.134 478.191 185.054C478.148 185.004 478.092 184.963 478.026 184.932C477.959 184.902 477.885 184.883 477.808 184.878L473.066 182.335C472.943 182.284 472.8 182.269 472.664 182.294C472.528 182.319 472.408 182.382 472.329 182.471C472.249 182.56 472.215 182.668 472.233 182.775C472.251 182.882 472.319 182.98 472.425 183.05L476.689 185.321L472.425 187.591C472.319 187.661 472.251 187.76 472.233 187.866C472.215 187.973 472.249 188.082 472.329 188.17C472.408 188.259 472.528 188.322 472.664 188.347C472.8 188.372 472.943 188.358 473.066 188.306V188.335Z" fill="#37474F"/>
<path d="M488.407 195.449H486.385V197.474H488.407V195.449Z" fill="#37474F"/>
<path d="M482.34 195.449H480.317V197.474H482.34V195.449Z" fill="#37474F"/>
<path d="M478.295 195.449H475.262V197.474H478.295V195.449Z" fill="#37474F"/>
<path d="M473.239 195.449H471.217V197.474H473.239V195.449Z" fill="#37474F"/>
<path d="M467.173 195.449H465.15V197.474H467.173V195.449Z" fill="#37474F"/>
<path d="M463.127 195.449H460.094V197.474H463.127V195.449Z" fill="#37474F"/>
<path d="M458.072 195.449H456.05V197.474H458.072V195.449Z" fill="#37474F"/>
<path d="M452.004 195.449H449.981V197.474H452.004V195.449Z" fill="#37474F"/>
<path d="M446.947 195.449H444.925V197.474H446.947V195.449Z" fill="#37474F"/>
<path d="M442.903 195.449H439.869V197.474H442.903V195.449Z" fill="#37474F"/>
<path d="M436.836 195.449H434.813V197.474H436.836V195.449Z" fill="#37474F"/>
<path d="M431.78 195.449H429.758V197.474H431.78V195.449Z" fill="#37474F"/>
<path d="M427.736 195.449H424.702V197.474H427.736V195.449Z" fill="#37474F"/>
<path d="M170.893 236.974H169.881V239H170.893V236.974Z" fill="#37474F"/>
<path d="M165.836 236.974H163.813V239H165.836V236.974Z" fill="#37474F"/>
<path d="M160.78 236.974H158.758V239H160.78V236.974Z" fill="#37474F"/>
<path d="M155.725 236.974H153.702V239H155.725V236.974Z" fill="#37474F"/>
<path d="M150.668 236.974H148.646V239H150.668V236.974Z" fill="#37474F"/>
<path d="M145.612 236.974H143.59V239H145.612V236.974Z" fill="#37474F"/>
<path d="M139.546 236.974H138.534V239H139.546V236.974Z" fill="#37474F"/>
<path d="M135.5 236.974H132.467V239H135.5V236.974Z" fill="#37474F"/>
<path d="M130.443 236.974H128.421V239H130.443V236.974Z" fill="#37474F"/>
<path d="M124.377 236.974H123.365V239H124.377V236.974Z" fill="#37474F"/>
<path d="M120.331 236.974H116.286V239H120.331V236.974Z" fill="#37474F"/>
<path d="M114.265 236.974H112.242V239H114.265V236.974Z" fill="#37474F"/>
<path d="M108.198 236.974H107.187V239H108.198V236.974Z" fill="#37474F"/>
<path d="M500.541 32.3845H497.508V35.423H500.541V32.3845Z" fill="#37474F"/>
<path d="M494.475 32.3845H492.452V35.423H494.475V32.3845Z" fill="#37474F"/>
<path d="M489.418 32.3845H487.396V35.423H489.418V32.3845Z" fill="#37474F"/>
<path d="M485.373 32.3845H482.34V35.423H485.373V32.3845Z" fill="#37474F"/>
<path d="M479.307 32.3845H476.273V35.423H479.307V32.3845Z" fill="#37474F"/>
<path d="M474.251 32.3845H472.229V35.423H474.251V32.3845Z" fill="#37474F"/>
<path d="M470.206 32.3845H467.173V35.423H470.206V32.3845Z" fill="#37474F"/>
<path d="M464.139 32.3845H461.105V35.423H464.139V32.3845Z" fill="#37474F"/>
<path d="M459.082 32.3845H457.06V35.423H459.082V32.3845Z" fill="#37474F"/>
<path d="M454.026 32.3845H452.004V35.423H454.026V32.3845Z" fill="#37474F"/>
<path d="M448.97 32.3845H445.937V35.423H448.97V32.3845Z" fill="#37474F"/>
<path d="M443.914 32.3845H441.892V35.423H443.914V32.3845Z" fill="#37474F"/>
<path d="M438.858 32.3845H436.836V35.423H438.858V32.3845Z" fill="#37474F"/>
<path d="M63.705 202.539H61.6826V204.564H63.705V202.539Z" fill="#37474F"/>
<path d="M58.6493 202.539H56.627V204.564H58.6493V202.539Z" fill="#37474F"/>
<path d="M54.6049 202.539H51.5713V204.564H54.6049V202.539Z" fill="#37474F"/>
<path d="M48.5375 202.539H45.5039V204.564H48.5375V202.539Z" fill="#37474F"/>
<path d="M43.4814 202.539H41.459V204.564H43.4814V202.539Z" fill="#37474F"/>
<path d="M38.4267 202.539H36.4043V204.564H38.4267V202.539Z" fill="#37474F"/>
<path d="M33.3695 202.539H30.3359V204.564H33.3695V202.539Z" fill="#37474F"/>
<path d="M28.3134 202.539H26.291V204.564H28.3134V202.539Z" fill="#37474F"/>
<path d="M23.2568 202.539H21.2344V204.564H23.2568V202.539Z" fill="#37474F"/>
<path d="M17.1904 202.539H15.168V204.564H17.1904V202.539Z" fill="#37474F"/>
<path d="M13.1449 202.539H10.1113V204.564H13.1449V202.539Z" fill="#37474F"/>
<path d="M7.07912 202.539H6.06738V204.564H7.07912V202.539Z" fill="#37474F"/>
<path d="M2.02239 202.539H0V204.564H2.02239V202.539Z" fill="#37474F"/>
<path d="M280.358 38.9016C280.066 38.1036 279.942 37.2588 279.994 36.4155C280.046 35.5722 280.273 34.7469 280.662 33.9867C281.051 33.2264 281.594 32.5462 282.26 31.9848C282.926 31.4234 283.702 30.9919 284.545 30.7148C285.387 30.4377 286.278 30.3205 287.168 30.3699C288.058 30.4193 288.929 30.6343 289.731 31.0026C290.534 31.371 291.251 31.8855 291.844 32.5167C292.436 33.148 292.892 33.8836 293.184 34.6816C293.733 33.9659 294.506 33.432 295.393 33.1553C296.28 32.8787 297.237 32.8733 298.127 33.1399C299.018 33.4065 299.797 33.9316 300.356 34.641C300.914 35.3505 301.223 36.2082 301.238 37.0931C301.238 37.6814 301.106 38.263 300.85 38.7991H303.363C304.166 38.7991 304.937 39.1015 305.505 39.6396C306.073 40.1778 306.392 40.9077 306.392 41.6688C306.392 42.4298 306.073 43.1597 305.505 43.6979C304.937 44.236 304.166 44.5384 303.363 44.5384H281.096C280.358 44.536 279.645 44.2779 279.093 43.8127C278.542 43.3474 278.188 42.707 278.1 42.012C278.012 41.317 278.194 40.6154 278.614 40.0393C279.033 39.4631 279.66 39.052 280.377 38.8835L280.358 38.9016Z" fill="#E3D6FA" stroke="white" stroke-width="2.5" stroke-miterlimit="10"/>
<path d="M482.66 232.961C482.367 232.106 482.244 231.2 482.296 230.297C482.348 229.393 482.575 228.509 482.963 227.695C483.351 226.88 483.894 226.151 484.559 225.55C485.224 224.948 486 224.486 486.841 224.189C487.682 223.892 488.572 223.767 489.461 223.82C490.35 223.872 491.22 224.103 492.022 224.497C492.823 224.892 493.54 225.443 494.132 226.12C494.723 226.796 495.178 227.584 495.47 228.439C496.019 227.672 496.791 227.1 497.677 226.804C498.563 226.508 499.518 226.502 500.408 226.787C501.297 227.073 502.076 227.636 502.634 228.396C503.191 229.156 503.5 230.075 503.515 231.023C503.514 231.652 503.384 232.275 503.134 232.851H505.606C506.408 232.851 507.178 233.175 507.745 233.751C508.312 234.328 508.631 235.11 508.631 235.925C508.631 236.741 508.312 237.523 507.745 238.099C507.178 238.676 506.408 239 505.606 239H483.365C482.622 239.006 481.903 238.733 481.345 238.234C480.787 237.736 480.429 237.046 480.339 236.296C480.25 235.546 480.435 234.789 480.859 234.169C481.284 233.549 481.918 233.11 482.64 232.935L482.66 232.961Z" fill="#E3D6FA" stroke="white" stroke-width="2.5" stroke-miterlimit="10"/>
<path d="M61.8891 149.328C59.2097 159.309 53.3187 164.161 43.8806 164.161C30.3442 164.161 23.7692 156.016 23.7692 139.252C23.7692 123.144 30.4582 115.314 44.2163 115.314C48.587 115.314 52.3369 116.348 55.3711 118.393C58.3408 120.338 60.456 123.336 61.2873 126.778L61.6674 128.229L82.7037 123.957L82.1652 122.355C80.0686 116.09 76.8507 111.187 72.6067 107.767C65.5313 102.089 56.2895 99.2308 45.1538 99.2308C31.307 99.2308 20.393 103.269 12.7158 111.219C5.62133 118.594 2.02344 128.412 2.02344 140.4C2.02344 151.757 5.64667 161.221 12.7918 168.508C20.4246 176.307 30.9269 180.256 44.0136 180.256C64.0681 180.256 76.9964 171.707 82.4376 154.836L82.919 153.353L62.3072 147.794L61.8891 149.328Z" fill="#E3D6FA"/>
<path d="M120.896 100.244L84.9404 179.244H107.571L114.833 161.976H148.112L155.844 179.244H178.982L142.011 100.244H120.896ZM140.983 146.114H121.657L131.266 123.589L140.983 146.114Z" fill="#E3D6FA"/>
<path d="M247.199 151.264C244.881 148.853 242.28 146.744 239.455 144.984C252.721 142.169 259.431 134.815 259.431 123.075C259.484 118.451 258.042 113.938 255.329 110.235C252.154 105.786 247.299 102.818 240.887 101.432C237.152 100.631 231.549 100.244 223.643 100.244H185.048V179.225H205.821V147.52H207.769C211.629 147.52 214.436 147.787 216.13 148.315C218.371 148.989 220.917 150.94 223.662 154.073C223.899 154.359 225.168 155.98 229.887 162.082L243.103 179.244H267.966L255.59 162.025C251.862 156.768 249.11 153.247 247.199 151.264ZM205.796 116.159H217.904C226.868 116.159 229.731 116.28 230.534 116.375C235.72 117.106 238.129 119.554 238.129 124.054C238.198 125.769 237.683 127.455 236.672 128.827C235.247 130.639 232.383 131.77 228.132 132.189C227.509 132.259 225.125 132.348 217.182 132.348H205.796V116.159Z" fill="#E3D6FA"/>
<path d="M293.895 145.809H337.825V129.883H293.895V116.163H341.076V100.244H273.023V179.244H342.796V163.375H293.895V145.809Z" fill="#E3D6FA"/>
<path d="M376.807 145.809H420.748V129.883H376.807V116.163H423.993V100.244H355.94V179.244H425.713V163.375H376.807V145.809Z" fill="#E3D6FA"/>
<path d="M509.282 162.025C505.501 156.768 502.723 153.247 500.788 151.264C498.44 148.855 495.808 146.746 492.95 144.984C506.377 142.169 513.17 134.815 513.17 123.075C513.223 118.451 511.763 113.938 509.017 110.235C505.804 105.786 500.889 102.818 494.399 101.432C490.618 100.631 484.948 100.244 476.945 100.244H437.848V179.225H458.874V147.52H460.846C464.753 147.52 467.595 147.787 469.308 148.315C471.577 148.989 474.148 150.94 476.933 154.073C477.172 154.359 478.458 155.98 483.234 162.082L496.611 179.244H521.777L509.282 162.025ZM458.874 116.159H471.129C480.203 116.159 483.101 116.28 483.914 116.375C489.157 117.106 491.601 119.554 491.601 124.054C491.673 125.767 491.152 127.452 490.127 128.821C488.684 130.639 485.786 131.77 481.482 132.189C480.852 132.259 478.439 132.348 470.399 132.348H458.88L458.874 116.159Z" fill="#E3D6FA"/>
<path d="M142.579 100.244H121.254L84.9404 179.244" stroke="#37474F" stroke-width="3" stroke-miterlimit="10"/>
<path d="M185.048 100.244V179.244H205.272" stroke="#37474F" stroke-width="3" stroke-miterlimit="10"/>
<path d="M205.272 115.436V131.641" stroke="#37474F" stroke-width="3" stroke-miterlimit="10"/>
<path d="M341.785 116.163V100.244H273.023V179.244" stroke="#37474F" stroke-width="3" stroke-miterlimit="10"/>
<path d="M355.94 100.244V179.244H425.713" stroke="#37474F" stroke-width="3" stroke-miterlimit="10"/>
<path d="M437.848 100.244V179.244" stroke="#37474F" stroke-width="3" stroke-miterlimit="10"/>
<path d="M55.6158 129.268C52.6429 126.792 48.8384 125.475 44.9319 125.569C41.0254 125.662 37.2919 127.161 34.4471 129.776C33.103 131.013 32.0423 132.513 31.3346 134.179C30.627 135.844 30.2885 137.637 30.3413 139.44C30.3941 141.242 30.8371 143.013 31.6411 144.637C32.4452 146.26 33.592 147.699 35.0064 148.859" stroke="#37474F" stroke-width="2.5" stroke-miterlimit="10"/>
<path d="M58.6494 132.654C58.3656 132.295 58.0266 131.956 57.6377 131.641" stroke="#37474F" stroke-width="2.5" stroke-miterlimit="10"/>
<path d="M19.2129 139.205C19.2068 144.714 20.7434 150.102 23.6283 154.687C26.5132 159.271 30.6168 162.846 35.42 164.96C40.2232 167.073 45.5101 167.63 50.6119 166.559C55.7137 165.489 60.4012 162.839 64.0814 158.946C67.7616 155.052 70.2692 150.09 71.2868 144.687C72.3045 139.284 71.7865 133.682 69.7984 128.591C67.8104 123.499 64.4416 119.147 60.1182 116.084C55.7948 113.021 50.7111 111.386 45.5101 111.385C38.5416 111.383 31.8574 114.312 26.9265 119.529C21.9955 124.745 19.2211 131.822 19.2129 139.205V139.205Z" stroke="#37474F" stroke-width="2.5" stroke-miterlimit="10"/>
<path d="M27.3018 140.237C27.2993 143.944 28.3649 147.568 30.3637 150.651C32.3625 153.734 35.2047 156.138 38.5307 157.558C41.8567 158.978 45.5172 159.35 49.0489 158.628C52.5806 157.906 55.825 156.122 58.3715 153.501C60.918 150.881 62.6523 147.542 63.3549 143.906C64.0575 140.271 63.6969 136.503 62.3187 133.078C60.9404 129.654 58.6066 126.727 55.6123 124.668C52.618 122.61 49.0978 121.512 45.4971 121.513C43.1079 121.512 40.742 121.996 38.5345 122.936C36.327 123.877 34.3211 125.256 32.6314 126.995C30.9418 128.734 29.6014 130.798 28.6869 133.07C27.7724 135.342 27.3018 137.778 27.3018 140.237Z" stroke="#37474F" stroke-width="2.5" stroke-miterlimit="10"/>
<path d="M36.4043 139.725C36.4006 141.529 36.9313 143.293 37.929 144.794C38.9268 146.296 40.3468 147.467 42.0095 148.16C43.6721 148.852 45.5025 149.036 47.2691 148.686C49.0357 148.336 50.659 147.47 51.9337 146.196C53.2083 144.922 54.0769 143.297 54.4296 141.529C54.7822 139.76 54.6031 137.926 53.9148 136.26C53.2266 134.593 52.0601 133.168 50.5631 132.166C49.0661 131.163 47.3058 130.628 45.5051 130.628C43.0951 130.63 40.7841 131.588 39.0782 133.293C37.3724 134.998 36.4109 137.311 36.4043 139.725Z" stroke="#37474F" stroke-width="2.5" stroke-miterlimit="10"/>
<path d="M28.1377 122.526L29.3248 116.087L20.4 106.321L19.2129 112.759L28.1377 122.526Z" stroke="#37474F" stroke-width="2.5" stroke-linejoin="round"/>
<path d="M27.3027 122.104L21.2651 123.538L12.1348 112.812L18.16 111.385L27.3027 122.104Z" stroke="#37474F" stroke-width="2.5" stroke-linejoin="round"/>
<path d="M45.5033 139.744L14.1562 108.346" stroke="#37474F" stroke-width="2.5" stroke-linejoin="round"/>
<path d="M253.81 132.654H251.788V179.244H253.81V132.654Z" fill="white" stroke="#37474F" stroke-width="2.5"/>
<path d="M244.71 179.243H260.889" stroke="#37474F" stroke-width="2.5"/>
<path d="M274.175 138.731H234.597V147.846H274.175L279.089 143.285L274.175 138.731Z" fill="#E3D6FA" stroke="#37474F" stroke-width="2.5"/>
<path d="M245.72 143.795H269.988V143.795H245.72V143.795Z" stroke="#37474F" stroke-width="2.5"/>
<path d="M239.653 143.795H242.687V143.795H239.653V143.795Z" stroke="#37474F" stroke-width="2.5"/>
<path d="M232.428 151.897H272.012V161.013H232.428L227.52 156.455L232.428 151.897Z" fill="#E3D6FA" stroke="#37474F" stroke-width="2.5"/>
<path d="M259.877 155.949H236.619V157.974H259.877V155.949Z" stroke="#37474F" stroke-width="2.5"/>
<path d="M265.943 155.949H263.921V157.974H265.943V155.949Z" fill="white" stroke="#37474F" stroke-width="2.5"/>
<path d="M226.507 195.449H179.992V224.821H226.507V195.449Z" fill="white"/>
<path d="M225.231 196.717V223.559H181.269V196.717H225.231ZM227.519 194.436H178.981V225.833H227.519V194.436Z" fill="#37474F"/>
<path d="M213.418 218.464C221.239 218.464 223.473 220.63 223.473 220.63V193.563C223.473 193.563 221.239 191.398 213.418 191.398C205.597 191.398 202.238 195.728 202.238 195.728V222.795C202.238 222.795 205.59 218.464 213.418 218.464Z" fill="white" stroke="#37474F" stroke-width="2.5" stroke-miterlimit="10"/>
<path d="M203.25 222.795V195.728C203.25 195.728 200.241 191.398 193.141 191.398C186.041 191.398 184.037 193.563 184.037 193.563V220.63C184.037 220.63 186.059 218.464 193.141 218.464C200.223 218.464 203.25 222.795 203.25 222.795Z" fill="white" stroke="#37474F" stroke-width="2.5" stroke-miterlimit="10"/>
<path d="M387.287 182.282V194.436" stroke="#37474F" stroke-width="2.5" stroke-miterlimit="10"/>
<path d="M388.299 197.475V194.759C388.299 194.405 388.139 194.065 387.855 193.815C387.57 193.564 387.185 193.423 386.782 193.423C386.38 193.423 385.994 193.564 385.71 193.815C385.425 194.065 385.266 194.405 385.266 194.759V197.475H388.299Z" fill="white" stroke="#37474F" stroke-width="2.5" stroke-miterlimit="10"/>
<path d="M389.383 183.295V184.487C389.383 187.294 388.741 190.74 391.245 192.149L400.407 196.421C401.826 197.114 403.393 197.474 404.982 197.474C406.571 197.474 408.137 197.114 409.556 196.421L418.718 192.149C421.235 190.74 420.58 187.294 420.58 184.487V183.295H389.383Z" fill="white" stroke="#37474F" stroke-width="2.5" stroke-miterlimit="10"/>
<path d="M404.478 183.295V196.461" stroke="#37474F" stroke-width="2.5" stroke-miterlimit="10"/>
<path d="M404.656 190.12L376.709 178.461L405.054 169.744L433.008 180.232L404.656 190.12Z" fill="white" stroke="#37474F" stroke-width="2.5" stroke-miterlimit="10"/>
<path d="M404.479 179.243L386.277 182.282" stroke="#37474F" stroke-width="2.5" stroke-miterlimit="10"/>
<path d="M405.493 180.257C403.762 180.257 402.456 179.385 402.456 178.228C402.456 177.07 403.782 176.205 405.493 176.205C407.204 176.205 408.523 177.077 408.523 178.228C408.523 179.379 407.243 180.257 405.493 180.257Z" fill="white"/>
<path d="M404.984 177.133C405.958 177.133 406.724 177.623 406.724 178.227C406.724 178.832 405.935 179.328 404.984 179.328C404.032 179.328 403.243 178.838 403.243 178.227C403.243 177.617 404.032 177.133 404.984 177.133ZM404.984 175.192C402.964 175.192 401.444 176.497 401.444 178.227C401.444 179.958 402.964 181.269 404.984 181.269C407.003 181.269 408.523 179.965 408.523 178.227C408.523 176.49 406.997 175.192 404.984 175.192Z" fill="#37474F"/>
<path d="M292.235 64.7996C293.079 64.3008 294.01 63.9771 294.976 63.8471C295.941 63.717 296.922 63.7831 297.863 64.0415C298.804 64.2999 299.685 64.7457 300.458 65.3532C301.231 65.9608 301.879 66.7183 302.366 67.5826C302.852 68.4468 303.168 69.4008 303.295 70.3902C303.422 71.3795 303.358 72.3848 303.105 73.3485C302.853 74.3123 302.418 75.2158 301.825 76.0073C301.232 76.7989 300.493 77.4629 299.649 77.9617" stroke="#37474F" stroke-width="2" stroke-miterlimit="10"/>
<path d="M311.093 77.9617C316.361 77.5557 320.548 71.37 320.548 63.7822H309.425" stroke="#37474F" stroke-width="2.5" stroke-miterlimit="10"/>
<path d="M280.607 77.9617C275.835 77.5557 272.042 71.37 272.012 63.7822H282.124" stroke="#37474F" stroke-width="2.5" stroke-miterlimit="10"/>
<path d="M302.347 58.7178H281.112" stroke="#37474F" stroke-width="2.5" stroke-miterlimit="10"/>
<path d="M310.437 58.7178H306.393" stroke="#37474F" stroke-width="2.5" stroke-miterlimit="10"/>
<path d="M282.123 58.7178L282.753 73.5187C282.753 80.2223 288.927 85.0511 295.774 85.0511C302.622 85.0511 308.795 80.2223 308.795 73.5187L309.425 58.7178" stroke="#37474F" stroke-width="2.5" stroke-miterlimit="10"/>
<path d="M300.325 102.269C299.714 100.502 298.492 97.154 298.492 95.7701V85.2676C298.492 85.1935 298.492 85.1255 298.492 85.0514H294.068C294.068 85.1255 294.068 85.1935 294.068 85.2676V95.7701C294.068 97.154 292.846 100.502 292.235 102.269H300.325Z" stroke="#37474F" stroke-width="2.5" stroke-miterlimit="10"/>
<path d="M296.28 67.8335L297.219 69.838L299.313 70.1551L297.796 71.7156L298.152 73.9104L296.28 72.8765L294.408 73.9104L294.763 71.7156L293.246 70.1551L295.341 69.838L296.28 67.8335Z" fill="#37474F"/>
<path d="M306.391 101.256H286.167V106.321H306.391V101.256Z" fill="#E3D6FA" stroke="#37474F" stroke-width="2.5" stroke-miterlimit="10"/>
<path d="M256.838 33.418C256.845 33.5163 256.845 33.615 256.838 33.7133C256.826 33.7804 256.805 33.8459 256.776 33.9083C256.752 33.9484 256.721 33.9843 256.684 34.0146C256.645 34.0234 256.605 34.0234 256.567 34.0146H254.503V36.1764C254.505 36.2169 254.492 36.2566 254.466 36.2887C254.439 36.3265 254.4 36.3553 254.355 36.3714C254.286 36.3985 254.213 36.4183 254.14 36.4304C254.029 36.4376 253.918 36.4376 253.807 36.4304C253.696 36.4373 253.585 36.4373 253.474 36.4304C253.402 36.4184 253.332 36.3986 253.265 36.3714C253.218 36.3554 253.177 36.3266 253.148 36.2887C253.122 36.2566 253.109 36.2169 253.111 36.1764V34.0146H251.047C251.01 34.0225 250.973 34.0225 250.936 34.0146C250.9 33.9854 250.87 33.9492 250.85 33.9083C250.816 33.8473 250.793 33.7815 250.782 33.7133C250.774 33.615 250.774 33.5163 250.782 33.418C250.775 33.3177 250.775 33.2171 250.782 33.1168C250.79 33.0494 250.808 32.9837 250.837 32.9219C250.856 32.8799 250.886 32.8433 250.924 32.8155C250.954 32.7938 250.991 32.7833 251.028 32.786H253.111V30.6301C253.11 30.5879 253.123 30.5466 253.148 30.5119C253.175 30.4707 253.216 30.4394 253.265 30.4233C253.33 30.3907 253.401 30.3706 253.474 30.3643C253.585 30.3574 253.696 30.3574 253.807 30.3643C253.918 30.3571 254.029 30.3571 254.14 30.3643C254.215 30.3712 254.288 30.3912 254.355 30.4233C254.402 30.4393 254.441 30.4707 254.466 30.5119C254.491 30.5466 254.504 30.5879 254.503 30.6301V32.786H256.585C256.623 32.7838 256.66 32.7942 256.69 32.8155C256.731 32.84 256.762 32.8777 256.776 32.9219C256.805 32.9842 256.826 33.0497 256.838 33.1168C256.845 33.2171 256.845 33.3177 256.838 33.418Z" fill="#37474F"/>
<path d="M173.919 89.6127C173.927 89.7293 173.927 89.8462 173.919 89.9628C173.902 90.0402 173.878 90.1161 173.847 90.1893C173.82 90.2353 173.784 90.2751 173.739 90.306C173.699 90.3328 173.652 90.3472 173.603 90.3472H171.19V92.8594C171.19 92.9061 171.175 92.9516 171.147 92.9898C171.112 93.0303 171.067 93.063 171.018 93.0859C170.938 93.1179 170.853 93.1387 170.766 93.1477C170.637 93.156 170.508 93.156 170.379 93.1477C170.25 93.1557 170.12 93.1557 169.991 93.1477C169.907 93.1389 169.824 93.118 169.747 93.0859C169.694 93.065 169.647 93.032 169.61 92.9898C169.582 92.9516 169.567 92.9061 169.567 92.8594V90.3472H167.162C167.115 90.3462 167.07 90.3319 167.033 90.306C166.989 90.2766 166.954 90.2362 166.932 90.1893C166.895 90.1176 166.868 90.0414 166.853 89.9628C166.845 89.8462 166.845 89.7293 166.853 89.6127C166.845 89.4985 166.845 89.3838 166.853 89.2695C166.863 89.1892 166.885 89.1107 166.918 89.0362C166.942 88.9886 166.976 88.9465 167.018 88.9126C167.055 88.8901 167.097 88.8781 167.14 88.8783H169.567V86.3729C169.567 86.3241 169.582 86.2763 169.61 86.2356C169.644 86.1893 169.692 86.1534 169.747 86.1327C169.824 86.1005 169.907 86.0797 169.991 86.0709C170.12 86.0626 170.25 86.0626 170.379 86.0709C170.508 86.062 170.637 86.062 170.766 86.0709C170.853 86.0798 170.938 86.1006 171.018 86.1327C171.07 86.1555 171.114 86.191 171.147 86.2356C171.175 86.2763 171.19 86.3241 171.19 86.3729V88.8783H173.617C173.66 88.8792 173.702 88.8911 173.739 88.9126C173.785 88.9427 173.821 88.9859 173.84 89.0362C173.872 89.1114 173.896 89.1896 173.912 89.2695C173.922 89.3836 173.925 89.4983 173.919 89.6127Z" fill="#37474F"/>
<path d="M365.036 224.307C365.044 224.389 365.044 224.471 365.036 224.553C365.029 224.61 365.008 224.665 364.974 224.715C364.955 224.752 364.923 224.783 364.881 224.804C364.848 224.821 364.809 224.831 364.77 224.833H362.688V226.635C362.688 226.666 362.677 226.697 362.657 226.724C362.63 226.755 362.591 226.779 362.545 226.792C362.475 226.814 362.403 226.831 362.329 226.842C362.217 226.848 362.105 226.848 361.994 226.842C361.883 226.848 361.771 226.848 361.659 226.842C361.585 226.832 361.512 226.815 361.443 226.792C361.394 226.781 361.353 226.757 361.325 226.724C361.312 226.695 361.312 226.664 361.325 226.635V224.833H359.249C359.209 224.832 359.171 224.822 359.138 224.804C359.098 224.782 359.068 224.751 359.051 224.715C359.014 224.665 358.991 224.61 358.983 224.553C358.972 224.471 358.972 224.389 358.983 224.307C358.972 224.223 358.972 224.139 358.983 224.056C358.991 224 359.009 223.945 359.039 223.893C359.057 223.859 359.085 223.829 359.119 223.805C359.153 223.795 359.19 223.795 359.225 223.805H361.325V222.008C361.312 221.976 361.312 221.942 361.325 221.91C361.354 221.876 361.395 221.851 361.443 221.836C361.512 221.813 361.585 221.797 361.659 221.787C361.771 221.781 361.883 221.781 361.994 221.787C362.105 221.781 362.217 221.781 362.329 221.787C362.403 221.797 362.475 221.814 362.545 221.836C362.59 221.852 362.629 221.878 362.657 221.91C362.677 221.94 362.688 221.974 362.688 222.008V223.805H364.788C364.823 223.796 364.859 223.796 364.894 223.805C364.93 223.829 364.96 223.859 364.98 223.893C365.009 223.945 365.028 224 365.036 224.056C365.043 224.139 365.043 224.223 365.036 224.307Z" fill="#37474F"/>
<path d="M51.5652 54.6547C51.5736 54.7551 51.5736 54.8558 51.5652 54.9562C51.5519 55.0236 51.5277 55.0892 51.4932 55.1513C51.4714 55.1935 51.4336 55.2288 51.3854 55.2519C51.3476 55.2742 51.3024 55.2865 51.2559 55.2873H48.8394V57.4513C48.8386 57.4905 48.8263 57.5291 48.8034 57.5636C48.7679 57.5984 48.7238 57.6267 48.6739 57.6464C48.5933 57.6732 48.5086 57.6911 48.4222 57.6996C48.2929 57.7067 48.1631 57.7067 48.0338 57.6996C47.9045 57.7068 47.7748 57.7068 47.6455 57.6996C47.5589 57.6919 47.4741 57.674 47.3937 57.6464C47.3407 57.6283 47.2938 57.5999 47.2571 57.5636C47.229 57.5307 47.2139 57.4915 47.2139 57.4513V55.3169H44.8046C44.7601 55.3169 44.7169 55.3044 44.6823 55.2814C44.6341 55.2583 44.5963 55.2231 44.5744 55.1809C44.5399 55.1188 44.5157 55.0532 44.5025 54.9858C44.4901 54.8855 44.4901 54.7845 44.5025 54.6842C44.494 54.5858 44.494 54.487 44.5025 54.3886C44.5147 54.3192 44.539 54.2515 44.5744 54.1876C44.5959 54.147 44.6278 54.1107 44.6679 54.0812C44.7048 54.0626 44.747 54.0524 44.7902 54.0516H47.2067V51.8936C47.2066 51.8515 47.2216 51.8104 47.2499 51.7754C47.2839 51.7354 47.3314 51.7046 47.3865 51.6867C47.4669 51.6591 47.5517 51.6411 47.6383 51.6334C47.7676 51.6263 47.8973 51.6263 48.0266 51.6334C48.156 51.6264 48.2857 51.6264 48.415 51.6334C48.5014 51.6419 48.5861 51.6598 48.6667 51.6867C48.7178 51.7019 48.7614 51.7303 48.7913 51.7675C48.8211 51.8048 48.8354 51.849 48.8322 51.8936V54.0516H51.2703C51.3134 54.0532 51.3553 54.0633 51.3926 54.0812C51.435 54.1104 51.4693 54.1466 51.4932 54.1876C51.526 54.2518 51.5478 54.3195 51.558 54.3886C51.5673 54.4771 51.5697 54.566 51.5652 54.6547Z" fill="#37474F"/>
<path d="M380.51 25.2948H353.616C352.892 25.2965 352.198 25.5799 351.686 26.0831C351.174 26.5863 350.885 27.2683 350.884 27.9799V42.6289C350.885 43.3406 351.174 44.0226 351.686 44.5258C352.198 45.029 352.892 45.3124 353.616 45.3141H363.945L367.06 50.6153L370.175 45.3141H380.51C381.234 45.3124 381.928 45.029 382.44 44.5258C382.952 44.0226 383.24 43.3406 383.242 42.6289V27.9799C383.24 27.2683 382.952 26.5863 382.44 26.0831C381.928 25.5799 381.234 25.2965 380.51 25.2948Z" fill="white" stroke="#37474F" stroke-width="2.5"/>
<path d="M362.008 34.4102C362.008 34.8108 361.919 35.2024 361.753 35.5355C361.586 35.8687 361.349 36.1283 361.072 36.2816C360.795 36.4349 360.49 36.475 360.195 36.3969C359.901 36.3187 359.631 36.1258 359.419 35.8425C359.207 35.5592 359.062 35.1983 359.004 34.8053C358.945 34.4124 358.975 34.0051 359.09 33.635C359.205 33.2649 359.399 32.9485 359.649 32.7259C359.898 32.5033 360.191 32.3845 360.491 32.3845C360.894 32.3845 361.279 32.5979 361.564 32.9778C361.848 33.3577 362.008 33.8729 362.008 34.4102Z" fill="#37474F"/>
<path d="M369.085 34.4102C369.085 34.8108 368.996 35.2024 368.83 35.5355C368.663 35.8687 368.426 36.1283 368.149 36.2816C367.872 36.4349 367.567 36.475 367.273 36.3969C366.978 36.3187 366.708 36.1258 366.496 35.8425C366.284 35.5592 366.139 35.1983 366.081 34.8053C366.022 34.4124 366.052 34.0051 366.167 33.635C366.282 33.2649 366.476 32.9485 366.726 32.7259C366.975 32.5033 367.269 32.3845 367.569 32.3845C367.768 32.3836 367.965 32.4353 368.15 32.5368C368.334 32.6382 368.502 32.7874 368.643 32.9757C368.784 33.164 368.895 33.3877 368.971 33.6338C369.047 33.88 369.086 34.1439 369.085 34.4102Z" fill="#37474F"/>
<path d="M376.164 34.4029C376.166 34.8039 376.077 35.1962 375.911 35.5303C375.745 35.8643 375.509 36.1251 375.232 36.2795C374.955 36.434 374.65 36.4751 374.355 36.3978C374.06 36.3204 373.79 36.1281 373.577 35.8451C373.364 35.5621 373.219 35.2012 373.16 34.808C373.101 34.4149 373.131 34.0072 373.246 33.6367C373.36 33.2661 373.555 32.9493 373.804 32.7264C374.054 32.5035 374.347 32.3845 374.648 32.3845C374.847 32.3836 375.044 32.4351 375.228 32.5361C375.412 32.6371 375.579 32.7856 375.72 32.9731C375.861 33.1607 375.973 33.3835 376.049 33.6289C376.125 33.8742 376.164 34.1373 376.164 34.4029Z" fill="#37474F"/>
<path d="M109.209 211.42C109.155 214.312 108.25 217.124 106.607 219.503C104.963 221.882 102.655 223.722 99.9712 224.792C97.2876 225.862 94.3482 226.114 91.5219 225.517C88.6956 224.92 86.1084 223.501 84.0848 221.436C82.0612 219.372 80.6914 216.755 80.1473 213.914C79.6032 211.073 79.909 208.134 81.0264 205.466C82.1438 202.799 84.0229 200.521 86.4281 198.919C88.8332 197.317 91.6572 196.462 94.5456 196.462C98.4681 196.506 102.213 198.105 104.962 200.908C107.71 203.711 109.237 207.491 109.209 211.42Z" fill="#E3D6FA"/>
<path d="M79.8848 211.654H109.209" stroke="#37474F" stroke-width="2" stroke-miterlimit="10"/>
<path d="M105.164 200.513C103.972 201.773 102.44 202.794 100.687 203.497C98.9339 204.199 97.0062 204.564 95.0524 204.564C93.0986 204.564 91.1709 204.199 89.4177 203.497C87.6646 202.794 86.1328 201.773 84.9404 200.513" stroke="#37474F" stroke-width="2" stroke-miterlimit="10"/>
<path d="M84.9404 223.808C86.0477 221.939 87.5505 220.406 89.3148 219.346C91.0791 218.286 93.0502 217.731 95.0524 217.731C97.0545 217.731 99.0256 218.286 100.79 219.346C102.554 220.406 104.057 221.939 105.164 223.808" stroke="#37474F" stroke-width="2" stroke-miterlimit="10"/>
<path d="M102.131 211.651C102.131 204.783 98.9968 198.908 94.5501 196.462C90.1033 198.908 86.9629 204.77 86.9629 211.651C86.9629 218.532 90.1033 224.393 94.5501 226.846C99.0161 224.393 102.131 218.513 102.131 211.651Z" stroke="#37474F" stroke-width="2" stroke-miterlimit="10"/>
<path d="M95.0518 196.462V226.846" stroke="#37474F" stroke-width="2" stroke-miterlimit="10"/>
</svg>
