<svg width="37" height="37" viewBox="0 0 37 37" fill="none" xmlns="http://www.w3.org/2000/svg">
<path fill-rule="evenodd" clip-rule="evenodd" d="M16.7861 0.0425721C12.4513 0.46406 8.48617 2.3318 5.40813 5.4021C2.53209 8.27093 0.777456 11.7865 0.134509 15.9683C-0.0448362 17.1346 -0.0448362 19.8697 0.134509 21.036C0.777022 25.2149 2.51703 28.7044 5.3985 31.5925C8.26765 34.4682 11.7837 36.2226 15.9659 36.8655C17.1323 37.0448 19.8677 37.0448 21.0341 36.8655C25.2136 36.2231 28.7035 34.4833 31.5919 31.6021C34.4679 28.7333 36.2225 25.2177 36.8655 21.036C37.0448 19.8697 37.0448 17.1346 36.8655 15.9683C36.223 11.7893 34.483 8.29981 31.6015 5.41173C28.7518 2.5555 25.1941 0.772466 21.1065 0.15189C20.2019 0.014555 17.7204 -0.0482121 16.7861 0.0425721ZM20.8531 3.04294C24.1954 3.56506 27.1421 5.06401 29.5408 7.46256C31.9584 9.87985 33.4395 12.8061 33.974 16.2216C34.062 16.7837 34.0987 17.4547 34.0987 18.5021C34.0987 19.5495 34.062 20.2206 33.974 20.7826C33.4395 24.1981 31.9584 27.1244 29.5408 29.5417C27.1232 31.959 24.1967 33.4399 20.7807 33.9744C19.6839 34.146 17.3161 34.146 16.2193 33.9744C12.8033 33.4399 9.87676 31.959 7.45919 29.5417C5.04162 27.1244 3.56052 24.1981 3.02596 20.7826C2.85429 19.6859 2.85429 17.3184 3.02596 16.2216C3.56052 12.8061 5.04162 9.87985 7.45919 7.46256C10.1258 4.79615 13.2876 3.32311 17.2329 2.90915C17.8219 2.84733 20.152 2.93348 20.8531 3.04294ZM25.0888 12.3182C24.9272 12.3876 23.2275 14.0333 20.4018 16.8563L15.9682 21.2854L14.1026 19.4323C13.0766 18.4131 12.1382 17.529 12.0173 17.4677C11.2731 17.09 10.4345 17.3614 10.0637 18.1C9.84627 18.5332 9.83418 18.9328 10.0265 19.33C10.1187 19.5205 11.0578 20.5091 12.6873 22.1311C14.6732 24.1078 15.2651 24.6568 15.4871 24.7281C15.8557 24.8463 16.4152 24.7769 16.7105 24.5762C17.0592 24.3394 26.5835 14.8251 26.8496 14.4479C27.0521 14.161 27.0794 14.0648 27.0797 13.6397C27.0799 13.2203 27.0515 13.117 26.8627 12.8489C26.4594 12.2764 25.7088 12.0519 25.0888 12.3182Z" fill="#7B3FE4"/>
</svg>
