<svg width="66" height="62" viewBox="0 0 66 62" fill="none" xmlns="http://www.w3.org/2000/svg">
<path fill-rule="evenodd" clip-rule="evenodd" d="M34.1706 0.167008C33.2794 0.405468 32.7788 0.711177 32.1004 1.43097C30.3382 3.3008 30.6253 6.22327 32.7197 7.73477C33.0508 7.97387 33.5395 8.23541 33.8055 8.31616L34.2892 8.46315V10.0663V11.6695L33.354 11.8912C30.3583 12.6013 26.7327 14.3375 24.034 16.3544C23.0477 17.0916 20.9013 19.1115 20.0604 20.0938L19.4125 20.8508L14.4775 20.9139L9.54248 20.977L9.21173 21.2811C8.56095 21.8792 8.70633 22.9535 9.48482 23.3004C9.68386 23.3891 11.1525 23.4373 13.6559 23.4373C15.781 23.4373 17.5197 23.4583 17.5197 23.4837C17.5197 23.5094 17.2086 24.1196 16.8284 24.8401C16.4481 25.5605 15.9448 26.6468 15.7098 27.2539L15.2824 28.3579H8.02355H0.764692L0.430593 28.6418C-0.0101865 29.0164 -0.136216 29.7484 0.163313 30.1954C0.617895 30.8741 0.699291 30.8813 7.92048 30.8813H14.5829L14.505 31.1652C14.414 31.4966 14.0701 33.8988 13.963 34.9503L13.8893 35.6757H10.9252C7.70351 35.6757 7.3916 35.732 7.0962 36.3661C6.90129 36.7845 6.90129 37.0904 7.0962 37.5087C7.39237 38.1446 7.69925 38.1991 10.9805 38.1991H13.9997L14.086 39.2104C14.1681 40.1747 14.6288 42.6813 14.7626 42.8931C14.7975 42.9484 12.9342 42.9936 10.6219 42.9936C6.06139 42.9936 5.75619 43.0331 5.32315 43.6794C5.02362 44.1264 5.14965 44.8585 5.59043 45.2331C5.92401 45.5166 5.93033 45.517 10.7614 45.517H15.5982L15.7411 45.9178C16.0017 46.6491 17.2269 48.9991 17.9048 50.0683C20.4131 54.0239 24.1854 57.3316 28.5489 59.4013C34.882 62.4051 41.6788 62.8095 48.5432 60.5904C49.6646 60.2279 52.81 58.7606 53.8088 58.134C54.8555 57.4774 55.0409 56.5686 54.2596 55.9256C53.7383 55.4965 53.1911 55.5193 52.4118 56.0026C51.1958 56.757 48.9896 57.7657 47.4828 58.2564C40.5236 60.5224 32.9186 59.5228 26.8719 55.5472C17.2208 49.2017 13.7959 36.9434 18.7991 26.6546C21.9897 20.0937 27.953 15.5636 35.4474 14.0075C36.9225 13.7012 37.3143 13.6722 39.965 13.6722C42.6178 13.6722 43.0067 13.7011 44.4875 14.0085C46.8548 14.5 48.3047 14.9953 50.4782 16.0555C52.649 17.1143 54.1663 18.1295 55.8546 19.6524C63.9541 26.9582 65.7709 38.977 60.1714 48.2092C59.4531 49.3934 59.3635 49.692 59.576 50.1937C59.8406 50.8183 60.7679 51.1355 61.3852 50.8125C61.7146 50.6401 62.3864 49.5965 63.2333 47.9421C67.6479 39.3169 66.727 29.0347 60.8464 21.2924C59.8528 19.9843 57.6571 17.7504 56.3475 16.7154C53.5816 14.5293 50.127 12.8051 46.7693 11.9352L45.6408 11.6427L45.643 10.0645L45.6452 8.48624L46.3609 8.18318C47.2855 7.79155 48.1499 6.96237 48.5808 6.05369C49.0655 5.03122 49.068 3.61913 48.5867 2.60422C48.1151 1.61001 47.4321 0.923898 46.4362 0.444202L45.5825 0.0328901L40.2261 0.00639457C35.8303 -0.0153066 34.7443 0.01346 34.1706 0.167008ZM44.9946 2.57495C45.5469 2.68295 46.2518 3.38622 46.3569 3.93405C46.4677 4.51165 46.2399 5.14376 45.7585 5.59507L45.3662 5.96285L40.0754 5.99843C34.9352 6.03313 34.7725 6.02669 34.3572 5.77574C33.5331 5.27763 33.275 4.14387 33.808 3.36351C34.3973 2.50076 34.4463 2.49357 39.7876 2.49345C42.4216 2.49332 44.7647 2.53004 44.9946 2.57495ZM43.0609 9.84256V11.1358H39.965H36.8691V9.84256V8.54932H39.965H43.0609V9.84256ZM37.5141 17.0876C34.8497 17.5056 32.8818 18.1137 30.8063 19.1605C25.4045 21.8851 21.6489 26.7369 20.3321 32.6921C19.9168 34.5696 19.921 38.4367 20.34 40.344C21.511 45.6732 24.62 50.1146 29.1938 52.992C35.7312 57.1047 44.1988 57.1047 50.7362 52.992C55.31 50.1146 58.419 45.6732 59.5901 40.344C60.009 38.4367 60.0132 34.5696 59.5979 32.6921C57.8214 24.6575 51.449 18.6036 43.3411 17.2479C41.9727 17.0191 38.5508 16.925 37.5141 17.0876ZM42.7384 19.7134C50.2684 20.922 56.0307 26.652 57.2049 34.0986C57.4459 35.6273 57.3787 38.4261 57.0669 39.8393C56.3075 43.282 54.7425 46.0981 52.2279 48.5475C49.6784 51.0307 46.897 52.5085 43.4136 53.2307C41.6644 53.5933 38.5076 53.6261 36.8343 53.2991C34.4157 52.8265 32.0302 51.8518 30.0323 50.5198C29.5002 50.165 28.4516 49.2776 27.7021 48.5475C25.1875 46.0981 23.6225 43.282 22.8631 39.8393C22.5513 38.4261 22.4841 35.6273 22.7251 34.0986C23.8908 26.7057 29.6568 20.9423 37.1169 19.713C38.4779 19.4887 41.34 19.489 42.7384 19.7134ZM39.3342 21.9732C38.8586 22.231 38.6846 22.6654 38.6796 23.6071C38.6745 24.5659 38.899 25.0905 39.4119 25.3191C39.8262 25.5037 40.1659 25.4914 40.5913 25.2762C41.0909 25.0235 41.255 24.5807 41.255 23.4848C41.255 22.603 41.2279 22.5082 40.8779 22.1659C40.4591 21.7562 39.8699 21.6827 39.3342 21.9732ZM48.5432 26.5205C48.3304 26.6151 46.7111 28.1123 44.9446 29.8473L41.7332 33.002L41.2199 32.8248C40.5883 32.6069 39.2818 32.6103 38.675 32.8314L38.2236 32.996L36.6 31.4339C35.1079 29.9984 34.9375 29.872 34.4953 29.872C33.8796 29.872 33.5666 30.0398 33.323 30.5003C32.9193 31.2641 33.0133 31.44 34.7371 33.1439L36.3458 34.7341L36.156 35.3512C35.7468 36.6809 36.0609 38.0741 37.007 39.1253C38.562 40.8534 41.368 40.8534 42.923 39.1253C43.8696 38.0735 44.1832 36.6809 43.7734 35.349L43.5828 34.7299L46.9338 31.4438C50.2166 28.2246 50.2847 28.1472 50.2847 27.6442C50.2847 27.2576 50.2006 27.0484 49.9446 26.798C49.7576 26.615 49.5301 26.4654 49.4391 26.4654C49.3482 26.4654 49.1965 26.439 49.102 26.4068C49.0075 26.3748 48.7561 26.4259 48.5432 26.5205ZM40.9454 35.6C41.4608 36.1042 41.5229 36.6499 41.1355 37.2714C40.4064 38.4407 38.5481 37.8524 38.5466 36.4517C38.5458 35.8048 39.2477 35.1711 39.965 35.1711C40.4091 35.1711 40.5859 35.2484 40.9454 35.6ZM25.3233 35.6018C24.7285 36.1836 24.7706 37.01 25.4193 37.4836C25.792 37.7558 26.8082 37.8959 27.4952 37.7699C28.577 37.5713 28.9889 36.4021 28.2363 35.666C27.8778 35.3154 27.8043 35.2972 26.7469 35.2972C25.7432 35.2972 25.6044 35.3269 25.3233 35.6018ZM51.6937 35.666C51.4149 35.9387 51.3166 36.1547 51.3166 36.4945C51.3166 37.4973 51.8979 37.8705 53.3485 37.7988C54.2428 37.7546 54.3367 37.7226 54.684 37.3424C55.0854 36.903 55.1485 36.5136 54.9034 35.9876C54.6695 35.4855 54.1655 35.2972 53.0546 35.2972C52.1393 35.2972 52.0446 35.3228 51.6937 35.666ZM0.792168 43.1787C-0.486956 43.7197 -0.130411 45.517 1.25604 45.517C2.49182 45.517 3.03205 43.9573 2.01389 43.3288C1.53389 43.0326 1.22701 42.9948 0.792168 43.1787ZM39.6147 47.6258C39.4574 47.6546 39.1817 47.8492 39.0019 48.0583C38.7125 48.3948 38.675 48.5522 38.675 49.4359C38.675 50.3564 38.7037 50.4649 39.0457 50.8393C39.4786 51.3132 40.1014 51.3842 40.6635 51.024C41.1086 50.7387 41.255 50.3438 41.255 49.4282C41.255 49.0209 41.1995 48.5449 41.1318 48.3705C40.9343 47.8628 40.2235 47.5137 39.6147 47.6258ZM56.5956 52.8251C56.1014 53.3084 56.0852 53.9222 56.5525 54.4653C56.8275 54.785 56.9818 54.8535 57.4267 54.8535C58.0675 54.8535 58.4456 54.6249 58.6662 54.1039C59.1875 52.8731 57.5686 51.8734 56.5956 52.8251Z" fill="#F77254"/>
</svg>
