<svg width="51" height="51" viewBox="0 0 51 51" fill="none" xmlns="http://www.w3.org/2000/svg">
<path fill-rule="evenodd" clip-rule="evenodd" d="M23.8068 0.0947935C21.1946 0.386693 18.6775 1.41263 16.4863 3.07879C12.8705 5.8282 10.6598 10.251 10.6598 14.7352V15.9068L10.0115 16.0144C8.2134 16.3127 6.80249 17.6699 6.4772 19.4142C6.34752 20.1096 6.34812 22.4344 6.47809 23.1255C6.88874 25.3089 9.0309 26.7891 11.4689 26.5743C12.1358 26.5155 12.4986 26.3024 12.6443 25.8841C12.7158 25.6788 12.7514 23.6812 12.7514 19.8665C12.7514 14.1804 12.792 13.2961 13.1176 11.8988C13.821 8.87969 15.7864 6.05052 18.3787 4.32564C20.629 2.82836 22.8146 2.16531 25.5 2.16531C28.1854 2.16531 30.371 2.82836 32.6213 4.32564C34.4261 5.52653 36.2483 7.63852 37.0049 9.40646C37.9853 11.697 38.1402 12.4499 38.2327 15.3714L38.2984 17.4483L38.6237 17.7391C38.9167 18.001 39.0173 18.0299 39.6397 18.0299C40.8088 18.0299 41.302 18.1856 41.8405 18.7246C42.4453 19.3298 42.5694 19.8621 42.5144 21.6136C42.4797 22.7146 42.4456 22.9183 42.2293 23.3092C41.9269 23.8559 41.3066 24.3067 40.7551 24.3808L40.3402 24.4364V22.6365V20.8366L40.0337 20.5298C39.6142 20.1099 39.0823 20.1039 38.6237 20.5138L38.2984 20.8045L38.2376 24.4267C38.174 28.2223 38.1386 28.5496 37.6488 29.8686C36.7079 32.4027 34.6426 34.5098 32.1516 35.4774C31.3714 35.7805 30.2284 36.027 29.1791 36.1185L28.5256 36.1756L28.3586 35.8249C27.7745 34.599 26.2919 33.8355 24.9795 34.0846C22.6942 34.5184 21.613 36.9984 22.8661 38.9317C23.4406 39.8179 24.4067 40.361 25.4092 40.361C25.8341 40.361 25.9596 40.3149 26.2049 40.0696C26.365 39.9093 26.5012 39.6738 26.5074 39.5462C26.5456 38.7759 26.3428 38.5186 25.5 38.2674C24.6572 38.0162 24.4544 37.7589 24.4926 36.9887C24.4988 36.8611 24.635 36.6256 24.7951 36.4653C25.0204 36.2399 25.1769 36.1739 25.4868 36.1739C26.0396 36.1739 26.3661 36.4794 26.5452 37.1644C26.624 37.4656 26.8003 37.8198 26.9421 37.962C27.1791 38.1995 27.2728 38.2199 28.2658 38.2496C34.486 38.4355 39.906 33.6084 40.3092 27.5237C40.3768 26.5043 40.3148 26.5805 41.1721 26.4649C41.8213 26.3775 42.7966 25.8525 43.3612 25.2866C43.9573 24.6892 44.3736 23.9141 44.5219 23.1255C44.6519 22.4344 44.6525 20.1096 44.5228 19.4142C44.1975 17.6699 42.7866 16.3127 40.9885 16.0144L40.3402 15.9068V14.7352C40.3402 10.251 38.1295 5.8282 34.5137 3.07879C31.3922 0.70531 27.6582 -0.335379 23.8068 0.0947935ZM23.3439 4.47807C18.8157 5.43033 15.3826 9.26241 14.9518 13.8455C14.9008 14.3872 14.8853 14.9335 14.9173 15.0594C15.0829 15.7125 15.6609 16.0435 16.279 15.8393C16.7817 15.6732 16.9389 15.3515 17.0401 14.281C17.1601 13.0103 17.3628 12.2674 17.885 11.184C18.9365 9.00231 20.7996 7.41969 23.1594 6.7038C23.9583 6.46145 24.2129 6.43184 25.5 6.43184C26.7871 6.43184 27.0417 6.46145 27.8406 6.7038C30.2004 7.41969 32.0635 9.00231 33.115 11.184C33.6372 12.2674 33.8399 13.0103 33.9599 14.281C34.0611 15.3515 34.2183 15.6732 34.721 15.8393C35.3391 16.0435 35.9171 15.7125 36.0827 15.0594C36.1147 14.9335 36.0992 14.3872 36.0482 13.8455C35.6145 9.2315 32.1619 5.40391 27.5932 4.47199C26.3147 4.21119 24.6011 4.21369 23.3439 4.47807ZM3.38915 6.47531C1.79079 6.78774 0.415936 8.20009 0.103197 9.85109C-0.0342493 10.5763 -0.0344485 40.4329 0.102898 41.1699C0.420915 42.8753 1.80075 44.2349 3.54044 44.5568C4.30506 44.6983 4.71311 44.6107 5.02655 44.2379C5.39695 43.7974 5.37693 43.2632 4.97505 42.8609C4.80653 42.6923 4.58463 42.5542 4.48194 42.5542C4.37936 42.5542 4.06164 42.504 3.77589 42.4427C3.04205 42.2851 2.36318 41.6056 2.20572 40.8711C2.04806 40.1351 2.04806 10.8785 2.20572 10.1425C2.29366 9.73216 2.41617 9.5235 2.78678 9.15245C3.43686 8.50185 3.70348 8.45939 7.13664 8.45939H9.97798L10.2691 8.16799C10.8084 7.62815 10.6315 6.71387 9.94123 6.47301C9.56933 6.34321 4.05476 6.34521 3.38915 6.47531ZM40.9876 6.50402C40.3543 6.78037 40.2193 7.65587 40.7309 8.16799L41.022 8.45939H43.8634C47.2965 8.45939 47.5631 8.50185 48.2132 9.15245C48.5838 9.5235 48.7063 9.73216 48.7943 10.1425C48.9519 10.8785 48.9519 40.1351 48.7943 40.8711C48.6368 41.6056 47.958 42.2851 47.2241 42.4427C46.8532 42.5223 42.0868 42.5542 30.5582 42.5542H14.4117L11.9937 44.9616L9.5757 47.3688L9.54503 45.2523L9.51445 43.1356L9.18916 42.8449C8.73051 42.435 8.19866 42.441 7.77915 42.8609L7.47268 43.1677V46.7413V50.3149L7.72766 50.6182C8.04348 50.9939 8.53072 51.1056 8.92971 50.8939C9.08698 50.8104 10.5823 49.3709 12.2528 47.6949L15.29 44.6477H31.138C41.3671 44.6477 47.1737 44.6121 47.5152 44.5472C49.2075 44.226 50.5835 42.8519 50.8971 41.1699C51.0344 40.4329 51.0343 10.5763 50.8968 9.85109C50.5759 8.15722 49.203 6.77997 47.5226 6.46604C46.6962 6.31171 41.3573 6.34272 40.9876 6.50402ZM10.6598 21.2889V24.4364L10.2449 24.3808C9.69343 24.3067 9.07313 23.8559 8.77075 23.3092C8.55442 22.9183 8.52026 22.7146 8.4856 21.6136C8.43052 19.8592 8.55442 19.3302 9.16277 18.7213C9.51127 18.3725 9.75349 18.2219 10.0739 18.1546C10.314 18.1041 10.5441 18.0805 10.5851 18.1021C10.6262 18.1237 10.6598 19.5577 10.6598 21.2889ZM20.2213 28.6969V29.7936H21.2671H22.3128V28.6969V27.6003H21.2671H20.2213V28.6969ZM24.4484 27.7289C24.4199 27.8035 24.4095 28.2873 24.4253 28.8041L24.4542 29.7437H25.5H26.5458V28.6969V27.6502L25.5231 27.6218C24.7327 27.5997 24.4887 27.6241 24.4484 27.7289ZM28.6872 28.6969V29.7936H29.7329H30.7787V28.6969V27.6003H29.7329H28.6872V28.6969Z" fill="#FF6900"/>
</svg>
