<svg width="514" height="555" viewBox="0 0 514 555" fill="none" xmlns="http://www.w3.org/2000/svg">
<path d="M210.134 497.696C189.375 486.238 155.849 486.238 135.233 497.696C114.616 509.153 114.72 527.748 135.479 539.206C156.238 550.663 189.764 550.676 210.381 539.206C230.997 527.736 230.893 509.165 210.134 497.696Z" fill="white"/>
<path d="M336.545 505.056C315.851 493.636 282.428 493.636 261.877 505.056C241.325 516.477 241.442 535.01 262.123 546.43C282.805 557.85 316.24 557.863 336.778 546.43C357.317 534.997 357.226 516.489 336.545 505.056Z" fill="white"/>
<path d="M432.569 413.322C414.405 403.292 385.069 403.292 367.035 413.322C349 423.352 349.091 439.614 367.243 449.631C385.394 459.649 414.742 459.661 432.777 449.631C450.811 439.601 450.72 423.352 432.569 413.322Z" fill="white"/>
<path d="M365.088 343.745C345.769 333.07 314.552 333.07 295.363 343.745C276.174 354.421 276.265 371.712 295.584 382.388C314.903 393.063 346.119 393.063 365.309 382.388C384.498 371.712 384.407 354.421 365.088 343.745Z" fill="white"/>
<path d="M329.396 249.974C329.396 246.796 328.215 244.55 326.334 243.47H326.256L315.085 237.263C314.845 237.108 314.589 236.979 314.319 236.878C313.767 236.655 313.179 236.52 312.581 236.481C312.214 236.45 311.845 236.45 311.478 236.481H311.115L310.297 236.63L309.882 236.742C309.587 236.82 309.296 236.915 309.013 237.027L308.624 237.176C308.177 237.355 307.744 237.563 307.326 237.797L10.6392 401.243C10.2451 401.459 9.86397 401.695 9.49744 401.951L9.13416 402.199L8.36866 402.77L7.97943 403.093L7.27881 403.701L6.90255 404.061L6.24085 404.744L5.89055 405.104L5.24182 405.861C5.13803 405.985 5.0472 406.109 4.94341 406.221C4.72284 406.507 4.50227 406.792 4.29468 407.09L4.06114 407.413C3.8276 407.736 3.60704 408.071 3.38647 408.418C3.33422 408.49 3.28656 408.565 3.24375 408.642C2.82061 409.321 2.43516 410.021 2.08903 410.74C2.08903 410.864 1.97226 410.975 1.90739 411.1L1.59599 411.832C1.51815 411.993 1.45328 412.142 1.38841 412.304C1.32353 412.465 1.21973 412.751 1.12891 412.986C1.03809 413.222 1.01214 413.346 0.947271 413.52C0.870497 413.728 0.805537 413.939 0.752662 414.153L0.596965 414.762L0.363424 415.419C0.363424 415.643 0.272605 415.866 0.233681 416.09C0.233681 416.264 0.155832 416.437 0.129883 416.611C0.129883 416.859 0.129884 417.12 0.0390625 417.368C0.0390625 417.505 0.0390625 417.654 0.0390625 417.79C0.0390625 418.175 0.0390625 418.572 0.0390625 418.945L0.57102 423.823C0.54055 425.163 0.80121 426.495 1.33651 427.734C1.56675 428.242 1.8679 428.718 2.23175 429.149C2.56998 429.55 2.96776 429.901 3.41242 430.191C3.60236 430.314 3.8019 430.421 4.00924 430.514L15.0246 436.659L15.1932 436.746H15.2711C17.1913 437.714 19.7992 437.528 22.6795 435.951L117.51 383.691L166.813 412.006C167.448 412.353 168.11 412.676 168.746 412.986L169.395 413.284C169.836 413.483 170.29 413.682 170.692 413.855L171.471 414.153C171.886 414.315 172.314 414.464 172.768 414.6L173.598 414.873L174.896 415.233L175.739 415.444C176.167 415.556 176.595 415.643 177.037 415.73L177.841 415.891C178.308 415.978 178.788 416.053 179.268 416.115L179.956 416.214C180.656 416.301 181.37 416.375 182.084 416.425C182.797 416.475 183.589 416.487 184.341 416.487C185.094 416.487 185.846 416.487 186.612 416.425C188.119 416.335 189.618 416.153 191.101 415.879C191.957 415.717 192.801 415.519 193.631 415.308L194.409 415.084C195.006 414.911 195.577 414.737 196.161 414.538L197.017 414.228C197.588 414.017 198.159 413.793 198.717 413.557L199.482 413.235C200.274 412.862 201.065 412.478 201.844 412.055L239.742 391.313C242.296 389.888 244.324 387.74 245.546 385.165C246.768 382.59 247.125 379.715 246.567 376.938C246.208 375.041 245.427 373.239 244.277 371.656C243.126 370.073 241.633 368.746 239.898 367.765L218.23 355.351L209.032 350.076C208.579 349.805 208.146 349.506 207.734 349.182C205.629 347.587 204.118 345.384 203.427 342.901C203.152 341.9 203.012 340.869 203.011 339.835V336.595L319.327 272.504C325.218 269.252 329.992 261.332 329.967 254.865L329.396 249.974Z" fill="#E6E6E6"/>
<path d="M476.914 379.321L470.894 374.604C470.531 365.518 470.155 355.984 471.738 347.009C473.321 338.035 476.992 329.184 483.687 322.754C486.49 320.06 489.967 317.788 493.924 317.329C497.881 316.87 502.28 318.794 503.642 322.369C505.004 325.944 502.915 330.177 500.632 333.541C495.753 340.629 489.928 347.096 485.153 354.246C480.143 361.763 477.301 370.414 476.914 379.321Z" fill="white"/>
<path d="M476.914 380.563L482.935 385.293C487.385 376.305 493.522 367.988 501.981 362.228C505.006 360.439 507.831 358.36 510.415 356.022C512.854 353.539 514.54 350.101 513.84 346.761C512.932 342.491 508.183 339.661 503.616 339.636C499.049 339.611 494.78 341.821 491.251 344.602C480.418 353.043 474.177 367.417 476.914 380.563Z" fill="white"/>
<path d="M473.516 377.161C473.378 377.155 473.248 377.099 473.151 377.005C473.055 376.91 473 376.784 472.997 376.652C473.243 363.196 476.409 338.332 494.794 323.052C494.899 322.964 495.036 322.921 495.174 322.93C495.313 322.939 495.442 323.001 495.533 323.101C495.624 323.202 495.67 323.333 495.66 323.465C495.651 323.598 495.586 323.722 495.481 323.809C487.697 330.264 474.605 345.706 474.048 376.665C474.041 376.797 473.982 376.921 473.884 377.013C473.785 377.105 473.653 377.158 473.516 377.161Z" fill="white"/>
<path d="M479.822 383.356C479.753 383.35 479.687 383.331 479.626 383.3C479.566 383.269 479.512 383.227 479.469 383.176C479.425 383.125 479.393 383.067 479.373 383.004C479.354 382.941 479.347 382.875 479.354 382.81C480.574 370.707 486.101 354.048 505.394 343.372C505.515 343.307 505.657 343.289 505.791 343.324C505.925 343.359 506.039 343.443 506.108 343.559C506.177 343.674 506.195 343.811 506.158 343.939C506.122 344.067 506.034 344.176 505.913 344.241C486.996 354.693 481.586 371.042 480.379 382.897C480.374 382.962 480.356 383.026 480.325 383.084C480.295 383.142 480.252 383.195 480.2 383.237C480.148 383.28 480.088 383.312 480.023 383.333C479.958 383.353 479.89 383.361 479.822 383.356Z" fill="white"/>
<path opacity="0.2" d="M246.566 364.016C246.208 362.118 245.427 360.317 244.276 358.734C243.125 357.151 241.632 355.824 239.897 354.842L209.031 337.129C207.181 336.066 205.65 334.563 204.588 332.766C203.526 330.969 202.969 328.94 202.972 326.875V312.811L133.195 351.404L127.37 354.594V370.434C127.367 372.033 127.701 373.617 128.352 375.091C129.003 376.565 129.957 377.898 131.158 379.011C131.496 379.322 131.859 379.619 132.235 379.905C132.674 380.231 133.138 380.526 133.623 380.786L166.773 399.071C171.426 401.65 176.639 403.166 182.005 403.503C182.758 403.552 183.51 403.577 184.263 403.577C185.015 403.577 185.768 403.577 186.533 403.577C191.894 403.261 197.107 401.765 201.765 399.208L239.664 378.453C242.252 377.043 244.311 374.891 245.549 372.3C246.788 369.709 247.144 366.811 246.566 364.016Z" fill="#E3D6FA"/>
<path d="M246.566 364.016C246.208 362.118 245.427 360.317 244.276 358.734C243.125 357.151 241.632 355.824 239.897 354.842L209.031 337.129C207.181 336.066 205.65 334.563 204.588 332.766C203.526 330.969 202.969 328.94 202.972 326.875V312.811L133.195 351.404L127.37 354.594V370.434C127.368 372.533 127.945 374.596 129.043 376.414C130.141 378.232 131.721 379.74 133.623 380.786L166.773 399.071C172.102 402.002 178.142 403.544 184.289 403.544C190.435 403.544 196.475 402.002 201.804 399.071L239.702 378.316C242.257 376.909 244.29 374.777 245.52 372.214C246.75 369.652 247.115 366.786 246.566 364.016Z" fill="#E3D6FA"/>
<path d="M239.651 373.338L202.025 393.932C196.619 396.899 190.495 398.46 184.263 398.46C178.03 398.46 171.906 396.899 166.501 393.932L138.58 378.527C136.951 377.633 135.598 376.344 134.658 374.79C133.717 373.236 133.221 371.472 133.221 369.676V351.453L127.37 354.594V370.433C127.368 372.533 127.945 374.596 129.043 376.413C130.141 378.231 131.721 379.74 133.623 380.786L166.773 399.071C172.102 402.002 178.142 403.544 184.289 403.544C190.435 403.544 196.475 402.002 201.804 399.071L239.702 378.316C242.281 376.912 244.334 374.77 245.575 372.192C246.815 369.613 247.18 366.728 246.618 363.941C246.255 365.903 245.442 367.763 244.237 369.388C243.033 371.013 241.466 372.362 239.651 373.338Z" fill="#474747"/>
<path d="M138.58 378.477C136.951 377.584 135.598 376.295 134.658 374.741C133.717 373.187 133.221 371.423 133.221 369.627V351.404L127.37 354.594V370.434C127.368 372.533 127.945 374.596 129.043 376.414C130.141 378.231 131.721 379.74 133.623 380.786L145.378 387.278V382.214L138.58 378.477Z" fill="#263238"/>
<path d="M138.58 378.477L145.378 382.201L218.23 342.367L209.031 337.091C207.181 336.029 205.65 334.526 204.588 332.729C203.526 330.932 202.969 328.902 202.972 326.838V312.811L133.195 351.404V369.627C133.198 371.425 133.697 373.191 134.643 374.745C135.588 376.299 136.947 377.587 138.58 378.477Z" fill="#474747"/>
<path d="M329.395 13.6242C329.395 10.4339 328.214 8.18711 326.333 7.10715H326.255L315.084 0.900468C314.841 0.75429 314.585 0.629639 314.319 0.528068C313.766 0.304569 313.179 0.170338 312.58 0.130841C310.724 0.0758023 308.893 0.555863 307.325 1.50872L10.6386 164.893C10.2494 165.104 9.87311 165.34 9.49686 165.588L9.13357 165.849L8.36807 166.42L7.97885 166.743L7.27822 167.351L6.90196 167.711L6.24026 168.381L5.88996 168.754C5.66939 169.002 5.44883 169.25 5.24124 169.511L4.94282 169.871C4.72225 170.157 4.50169 170.442 4.2941 170.74L4.06056 171.05C3.82702 171.385 3.60645 171.721 3.38589 172.068C3.33364 172.14 3.28597 172.214 3.24317 172.292C2.82002 172.971 2.43458 173.671 2.08844 174.39L1.9068 174.75L1.59541 175.482C1.51756 175.631 1.45269 175.792 1.38782 175.954L1.12833 176.624L0.946685 177.17C0.868838 177.381 0.803971 177.592 0.739099 177.803L0.583402 178.411L0.427715 178.995C0.427715 179.218 0.336886 179.442 0.297962 179.653C0.259039 179.864 0.220123 180.013 0.194174 180.174C0.168225 180.336 0.194174 180.696 0.103353 180.944C0.0125321 181.192 0.103353 181.229 0.103353 181.366C0.103353 181.751 0.103353 182.135 0.103353 182.52L0.635301 410.852C0.604831 412.192 0.865501 413.523 1.4008 414.762C1.82616 415.765 2.54748 416.627 3.47671 417.244C3.66957 417.362 3.86878 417.47 4.07353 417.567L15.0888 423.712L15.2575 423.799H15.3354C17.2556 424.767 19.8634 424.581 22.7438 422.992L319.288 259.595C325.178 256.342 329.953 248.423 329.927 241.955L329.395 13.6242ZM21.9004 188.839C22.1579 186.337 23.203 183.969 24.8975 182.049C23.2243 183.964 22.1933 186.317 21.9394 188.801L21.9004 188.839ZM311.231 23.4928L27.22 179.901L318.873 19.3219L311.322 23.4928H311.231ZM21.9004 190.403L22.4194 403.801V411.497L21.9004 190.403Z" fill="#474747"/>
<path d="M329.396 13.6244C329.396 10.4342 328.215 8.18737 326.334 7.1074H326.256L315.085 0.900726C313.139 -0.34061 310.388 -0.179236 307.3 1.50898L10.6392 164.894C4.73578 168.158 -0.0258434 176.066 0.000105556 182.533L0.532053 410.864C0.532053 413.918 1.62191 416.103 3.37346 417.232C3.56632 417.35 3.76554 417.458 3.97029 417.555L14.9856 423.7L15.1543 423.786H15.2321C17.1523 424.755 19.7602 424.569 22.6405 422.98L319.288 259.595C325.179 256.343 329.953 248.423 329.928 241.956L329.396 13.6244ZM311.828 238.455C311.629 240.213 311.048 241.911 310.123 243.442C309.198 244.972 307.949 246.301 306.457 247.343L22.42 403.801V411.497L21.901 188.839C22.099 187.083 22.6792 185.386 23.6043 183.857C24.5295 182.328 25.779 181.002 27.2724 179.963L318.873 19.3221L311.322 23.493L311.828 238.455Z" fill="white"/>
<path d="M311.828 238.455L311.322 23.4926L27.3109 179.901C25.8174 180.939 24.5679 182.266 23.6428 183.794C22.7177 185.323 22.1374 187.02 21.9395 188.776L22.4195 403.801L306.443 247.392C307.944 246.346 309.199 245.01 310.127 243.47C311.054 241.931 311.634 240.222 311.828 238.455Z" fill="white"/>
<path opacity="0.3" d="M311.828 238.455L311.322 23.4926L27.3109 179.901C25.8174 180.939 24.5679 182.266 23.6428 183.794C22.7177 185.323 22.1374 187.02 21.9395 188.776L22.4195 403.801L306.443 247.392C307.944 246.346 309.199 245.01 310.127 243.47C311.054 241.931 311.634 240.222 311.828 238.455Z" fill="#B4B4B4"/>
<path opacity="0.2" d="M311.828 238.455L311.322 23.4926L27.3109 179.901C25.8174 180.939 24.5679 182.266 23.6428 183.794C22.7177 185.323 22.1374 187.02 21.9395 188.776L22.4195 403.801L306.443 247.392C307.944 246.346 309.199 245.01 310.127 243.47C311.054 241.931 311.634 240.222 311.828 238.455Z" fill="white"/>
<path d="M315.033 0.813446C313.086 -0.42789 310.336 -0.266517 307.248 1.4217L10.639 164.893C7.13124 167.012 4.30627 170.02 2.47803 173.583L13.8956 179.889C15.7157 176.325 18.537 173.316 22.0435 171.199L318.678 7.78975C321.611 6.1636 324.27 6.00223 326.204 7.04495L315.033 0.813446Z" fill="#E3D6FA"/>
<path d="M0 182.533L0.531947 410.864C0.531947 413.918 1.6218 416.102 3.37336 417.232C3.56621 417.349 3.76543 417.457 3.97018 417.555L14.9855 423.699C13.0912 422.619 11.9235 420.36 11.9235 417.182L11.3916 188.863C11.4862 185.73 12.3436 182.661 13.8956 179.901L2.47812 173.595C0.934079 176.348 0.0853868 179.409 0 182.533Z" fill="#D8C3FB"/>
<path d="M318.873 19.3219L311.322 23.4928L311.828 238.455C311.628 240.212 311.048 241.911 310.123 243.441C309.198 244.972 307.949 246.301 306.456 247.343L22.4194 403.801V411.497L314.02 250.856C315.514 249.817 316.763 248.491 317.688 246.962C318.613 245.434 319.194 243.736 319.392 241.98L318.873 19.3219Z" fill="#BEBEBE"/>
<path d="M53.4169 228.561L53.365 212.076L41.7788 205.683L41.8307 221.796V222.168L53.4169 228.561Z" fill="#E6E6E6"/>
<path d="M53.974 419.578L53.4161 228.561L41.8818 222.169L42.4397 412.813C42.3795 413.431 42.4877 414.053 42.7538 414.618C43.0199 415.184 43.4347 415.674 43.9577 416.04L55.4142 422.719C54.9227 422.349 54.5341 421.869 54.2829 421.321C54.0317 420.773 53.9256 420.175 53.974 419.578Z" fill="#EBEBEB"/>
<path d="M59.3212 422.483C58.9922 422.669 58.6445 422.823 58.2832 422.943C58.6445 422.823 58.9922 422.669 59.3212 422.483Z" fill="#E3D6FA"/>
<path d="M53.3907 212.039V202.543C53.4852 200.779 54.0153 199.062 54.9378 197.532C55.8602 196.002 57.1486 194.703 58.6973 193.742L359.51 27.5642C360.042 27.1954 360.666 26.9669 361.32 26.9016C361.973 26.8362 362.633 26.9363 363.234 27.1918L351.764 20.4762C351.149 20.1766 350.46 20.0469 349.772 20.1017C349.084 20.1566 348.426 20.3937 347.872 20.7865L47.0722 187.014C45.5218 187.976 44.2323 189.277 43.3098 190.809C42.3873 192.341 41.858 194.061 41.7656 195.827V205.323V205.696L53.3518 212.089L53.3907 212.039Z" fill="white"/>
<path opacity="0.3" d="M53.3907 212.039V202.543C53.4852 200.779 54.0153 199.062 54.9378 197.532C55.8602 196.002 57.1486 194.703 58.6973 193.742L359.51 27.5642C360.042 27.1954 360.666 26.9669 361.32 26.9016C361.973 26.8362 362.633 26.9363 363.234 27.1918L351.764 20.4762C351.149 20.1766 350.46 20.0469 349.772 20.1017C349.084 20.1566 348.426 20.3937 347.872 20.7865L47.0722 187.014C45.5218 187.976 44.2323 189.277 43.3098 190.809C42.3873 192.341 41.858 194.061 41.7656 195.827V205.323V205.696L53.3518 212.089L53.3907 212.039Z" fill="white"/>
<path opacity="0.2" d="M53.4169 228.561L53.365 212.076L41.7788 205.683L41.8307 221.796V222.168L53.4169 228.561Z" fill="#E0E0E0"/>
<path d="M359.51 27.5643C362.443 25.9382 364.843 27.254 364.843 30.4815V39.9901L53.3911 212.039V202.543C53.4855 200.779 54.0157 199.062 54.9381 197.532C55.8606 196.002 57.149 194.703 58.6977 193.742L359.51 27.5643Z" fill="#B3B3B3"/>
<path d="M339.335 43.2794C340.918 42.4104 342.189 43.1056 342.202 44.8434C342.147 45.7858 341.861 46.7027 341.368 47.5199C340.874 48.3371 340.187 49.0319 339.361 49.5481C337.791 50.417 336.506 49.7095 336.506 47.984C336.556 47.0418 336.838 46.1242 337.33 45.3064C337.821 44.4887 338.508 43.794 339.335 43.2794Z" fill="white"/>
<path d="M348.079 38.4757C349.649 37.6068 350.934 38.3144 350.947 40.0398C350.889 40.9844 350.599 41.9027 350.101 42.7201C349.603 43.5375 348.91 44.231 348.079 44.7445C346.496 45.6134 345.225 44.9183 345.212 43.1804C345.27 42.2358 345.56 41.3175 346.058 40.5001C346.556 39.6827 347.249 38.9892 348.079 38.4757Z" fill="white"/>
<path d="M356.706 33.684C358.289 32.8151 359.561 33.5102 359.573 35.2481C359.518 36.1905 359.233 37.1073 358.739 37.9246C358.246 38.7418 357.558 39.4366 356.732 39.9528C355.162 40.8217 353.878 40.1141 353.865 38.3887C353.92 37.4463 354.206 36.5295 354.699 35.7122C355.193 34.895 355.88 34.2002 356.706 33.684Z" fill="white"/>
<path d="M116.045 168.021C117.212 167.376 118.302 167.475 118.86 168.307L121.689 172.478C122.246 173.309 123.323 173.434 124.504 172.776L364.843 40.0148V56.5369L53.417 228.586V212.076L62.6418 206.974C63.9521 206.169 64.9431 204.967 65.4573 203.561L68.2468 196.299C68.7601 194.899 69.7461 193.702 71.0493 192.898L116.045 168.021Z" fill="#E6E6E6"/>
<path d="M364.947 56.5123L365.505 247.517C365.41 249.281 364.88 250.998 363.958 252.528C363.035 254.058 361.747 255.356 360.198 256.318L59.3204 422.483C56.3752 424.109 53.9879 422.806 53.9749 419.578L53.417 228.561L364.947 56.5123Z" fill="#F5F5F5"/>
<path d="M352.57 50.1691C354.659 49.0147 356.359 49.9333 356.359 52.2297C356.284 53.4742 355.905 54.6844 355.251 55.7626C354.598 56.8408 353.688 57.7568 352.596 58.4364L88.9422 204.12C86.8403 205.286 85.1406 204.355 85.1406 202.059C85.2153 200.813 85.5962 199.602 86.2522 198.523C86.9083 197.445 87.821 196.53 88.9162 195.852L352.57 50.1691Z" fill="white"/>
<path d="M58.3991 213.541C58.456 213.503 58.524 213.482 58.5937 213.482C58.6634 213.482 58.7314 213.503 58.7883 213.541C58.9829 213.665 58.97 214.05 58.7883 214.385L57.1146 216.98L61.487 214.572C61.7854 214.41 62.019 214.572 62.019 214.857C62.0085 215.035 61.9551 215.209 61.8628 215.364C61.7705 215.519 61.6419 215.651 61.487 215.751L57.1276 218.159L58.8013 218.916C59.0089 219.016 59.0348 219.376 58.8013 219.723C58.7101 219.886 58.5759 220.023 58.4121 220.12C58.3552 220.146 58.2932 220.159 58.2304 220.159C58.1676 220.159 58.1056 220.146 58.0488 220.12L55.3761 218.879L55.2593 218.78V218.581V218.32L55.3631 218.109L57.958 213.939C58.0654 213.771 58.2177 213.634 58.3991 213.541Z" fill="#E6E6E6"/>
<path d="M67.8317 208.327C67.8897 208.298 67.9543 208.283 68.0198 208.283C68.0854 208.283 68.15 208.298 68.208 208.327L70.8807 209.569L70.9845 209.68V209.891V210.152L70.8937 210.351L68.2209 214.546C68.1309 214.689 68.0063 214.808 67.8577 214.894C67.8009 214.927 67.7359 214.944 67.6695 214.944C67.6032 214.944 67.5381 214.927 67.4814 214.894C67.2738 214.77 67.2868 214.398 67.4814 214.05L69.1292 211.468L64.7697 213.876C64.4713 214.038 64.2378 213.876 64.2378 213.578C64.2487 213.405 64.3012 213.236 64.3912 213.086C64.4812 212.935 64.6063 212.806 64.7568 212.709L69.1292 210.301L67.4555 209.544C67.2349 209.445 67.2349 209.072 67.4555 208.725C67.542 208.563 67.6719 208.426 67.8317 208.327Z" fill="#E6E6E6"/>
<path d="M76.8097 203.362C77.0726 203.196 77.3681 203.083 77.6781 203.03C77.9882 202.976 78.3063 202.984 78.6132 203.052L79.0154 202.543C79.0936 202.44 79.1903 202.352 79.3008 202.282C79.3875 202.235 79.4868 202.214 79.5863 202.22C79.7679 202.22 79.8587 202.431 79.8328 202.679L79.6122 204.256C79.582 204.446 79.5016 204.625 79.3787 204.777C79.2936 204.874 79.1979 204.961 79.0932 205.038H78.9505L77.6531 205.386C77.6085 205.399 77.5614 205.402 77.5153 205.396C77.4692 205.389 77.4252 205.373 77.3866 205.348C77.348 205.323 77.3158 205.29 77.2923 205.251C77.2688 205.212 77.2546 205.169 77.2509 205.125C77.2385 204.998 77.2528 204.87 77.293 204.749C77.3331 204.627 77.3982 204.514 77.4844 204.417L77.6142 204.244C77.3237 204.256 77.0418 204.342 76.7968 204.492C76.241 204.839 75.7785 205.306 75.4471 205.856C75.1157 206.406 74.9247 207.023 74.8895 207.657C74.8895 208.824 75.7588 209.283 76.8097 208.712C77.5883 208.233 78.1809 207.522 78.4964 206.689C78.5774 206.455 78.7431 206.257 78.9635 206.13C79.0364 206.083 79.122 206.057 79.21 206.056C79.4695 206.056 79.5733 206.379 79.4306 206.739C78.9519 208.031 78.0395 209.135 76.8357 209.879C75.2009 210.785 73.8516 210.053 73.8516 208.241C73.9069 207.262 74.2039 206.309 74.718 205.461C75.2322 204.613 75.949 203.894 76.8097 203.362Z" fill="#E6E6E6"/>
<g opacity="0.3">
<path d="M58.3991 213.541C58.456 213.503 58.524 213.482 58.5937 213.482C58.6634 213.482 58.7314 213.503 58.7883 213.541C58.9829 213.665 58.97 214.05 58.7883 214.385L57.1146 216.98L61.487 214.572C61.7854 214.41 62.019 214.572 62.019 214.857C62.0085 215.035 61.9551 215.209 61.8628 215.364C61.7705 215.519 61.6419 215.651 61.487 215.751L57.1276 218.159L58.8013 218.916C59.0089 219.016 59.0348 219.376 58.8013 219.723C58.7101 219.886 58.5759 220.023 58.4121 220.12C58.3552 220.146 58.2932 220.159 58.2304 220.159C58.1676 220.159 58.1056 220.146 58.0488 220.12L55.3761 218.879L55.2593 218.78V218.581V218.32L55.3631 218.109L57.958 213.939C58.0654 213.771 58.2177 213.634 58.3991 213.541Z" fill="#B4B4B4"/>
</g>
<g opacity="0.3">
<path d="M67.8317 208.327C67.8897 208.298 67.9543 208.283 68.0198 208.283C68.0854 208.283 68.15 208.298 68.208 208.327L70.8807 209.569L70.9845 209.68V209.891V210.152L70.8937 210.351L68.2209 214.546C68.1309 214.689 68.0063 214.808 67.8577 214.894C67.8009 214.927 67.7359 214.944 67.6695 214.944C67.6032 214.944 67.5381 214.927 67.4814 214.894C67.2738 214.77 67.2868 214.398 67.4814 214.05L69.1292 211.468L64.7697 213.876C64.4713 214.038 64.2378 213.876 64.2378 213.578C64.2487 213.405 64.3012 213.236 64.3912 213.086C64.4812 212.935 64.6063 212.806 64.7568 212.709L69.1292 210.301L67.4555 209.544C67.2349 209.445 67.2349 209.072 67.4555 208.725C67.542 208.563 67.6719 208.426 67.8317 208.327Z" fill="#B4B4B4"/>
</g>
<g opacity="0.3">
<path d="M76.8097 203.362C77.0726 203.196 77.3681 203.083 77.6781 203.03C77.9882 202.976 78.3063 202.984 78.6132 203.052L79.0154 202.543C79.0936 202.44 79.1903 202.352 79.3008 202.282C79.3875 202.235 79.4868 202.214 79.5863 202.22C79.7679 202.22 79.8587 202.431 79.8328 202.679L79.6122 204.256C79.582 204.446 79.5016 204.625 79.3787 204.777C79.2936 204.874 79.1979 204.961 79.0932 205.038H78.9505L77.6531 205.386C77.6085 205.399 77.5614 205.402 77.5153 205.396C77.4692 205.389 77.4252 205.373 77.3866 205.348C77.348 205.323 77.3158 205.29 77.2923 205.251C77.2688 205.212 77.2546 205.169 77.2509 205.125C77.2385 204.998 77.2528 204.87 77.293 204.749C77.3331 204.627 77.3982 204.514 77.4844 204.417L77.6142 204.244C77.3237 204.256 77.0418 204.342 76.7968 204.492C76.241 204.839 75.7785 205.306 75.4471 205.856C75.1157 206.406 74.9247 207.023 74.8895 207.657C74.8895 208.824 75.7588 209.283 76.8097 208.712C77.5883 208.233 78.1809 207.522 78.4964 206.689C78.5774 206.455 78.7431 206.257 78.9635 206.13C79.0364 206.083 79.122 206.057 79.21 206.056C79.4695 206.056 79.5733 206.379 79.4306 206.739C78.9519 208.031 78.0395 209.135 76.8357 209.879C75.2009 210.785 73.8516 210.053 73.8516 208.241C73.9069 207.262 74.2039 206.309 74.718 205.461C75.2322 204.613 75.949 203.894 76.8097 203.362Z" fill="#B4B4B4"/>
</g>
<path d="M130.057 252.172L130.069 256.293L70.9319 288.965L70.9189 284.843L130.057 252.172Z" fill="#E6E6E6"/>
<path d="M202.791 204.517L202.804 208.638L70.906 281.492L70.8931 277.383L202.791 204.517Z" fill="#E6E6E6"/>
<path d="M202.766 197.056L202.779 201.165L70.8811 274.019L70.8682 269.91L202.766 197.056Z" fill="#E6E6E6"/>
<path d="M202.739 189.583L202.752 193.705L70.854 266.559V262.437L202.739 189.583Z" fill="#E6E6E6"/>
<path d="M162.946 183.712L162.959 188.33L155.032 192.699L155.045 194.822L161.999 190.986L162.012 195.368L155.058 199.204L155.071 201.587L163.284 197.056L163.297 201.649L149.622 209.209L149.57 191.11L162.946 183.712Z" fill="#474747"/>
<path d="M148.131 191.905L148.144 196.634L143.318 199.303L143.356 212.66L137.816 215.726L137.777 202.369L132.951 205.026L132.938 200.296L148.131 191.905Z" fill="#474747"/>
<path d="M121.96 218.891L125.425 222.615L119.508 225.892L116.693 222.888L115.188 223.72V228.263L109.635 231.329V213.243L117.562 208.861C122.155 206.379 125.061 207.359 125.074 211.542C124.991 214.27 123.885 216.878 121.96 218.891ZM117.199 217.948C117.861 217.64 118.422 217.163 118.818 216.569C119.214 215.976 119.431 215.288 119.443 214.584C119.443 213.268 118.717 212.858 117.186 213.702L115.162 214.82V219.065L117.186 217.948" fill="#474747"/>
<path d="M107.053 214.596V224.527C107.066 227.18 106.331 229.786 104.924 232.072C103.517 234.357 101.491 236.237 99.0603 237.511C94.0132 240.304 91.0291 238.815 91.0161 233.378V223.447L96.5562 220.393V230.163C96.5562 232.931 97.5423 233.427 99.1511 232.571C100.76 231.714 101.655 230.15 101.655 227.382V217.613L107.053 214.596Z" fill="#474747"/>
<path d="M79.8462 229.219C85.2047 226.265 89.1359 228.077 89.1489 233.551C89.1618 239.026 85.2565 245.195 79.8981 248.15C74.5396 251.104 70.5954 249.304 70.5695 243.817C70.5435 238.331 74.4748 232.174 79.8462 229.219ZM79.8462 243.209C80.9848 242.497 81.9178 241.522 82.5595 240.375C83.2011 239.227 83.5307 237.944 83.518 236.642C83.518 233.824 81.8572 233.03 79.8202 234.16C78.6767 234.868 77.7392 235.841 77.0949 236.989C76.4506 238.138 76.1206 239.423 76.1355 240.726C76.1355 243.557 77.7833 244.339 79.8462 243.209Z" fill="#474747"/>
<path d="M176.259 176.363L183.512 190.489L177.777 193.655L176.662 191.172L170.395 194.635L169.305 198.36L163.661 201.475L170.81 179.404L176.259 176.363ZM171.926 189.335L175.118 187.572L173.509 183.848L171.926 189.285" fill="#474747"/>
<path d="M204.063 161.008L204.167 179.082L199.107 181.875L199.029 173.645L195.487 182.247L193.035 183.6L189.441 179.231L189.467 187.2L184.407 189.993L184.355 171.894L188.909 169.374L194.306 176.065L199.509 163.528L204.063 161.008Z" fill="#474747"/>
<path d="M241.235 211.009L241.52 308.429L143.2 362.737L142.915 265.317L241.235 211.009Z" fill="white"/>
<path d="M352.374 78.5212L352.542 133.413L219.606 206.838L219.438 151.946L352.374 78.5212Z" fill="white"/>
<path d="M133.326 270.618L133.612 368.038L71.2696 402.485L70.9712 305.065L133.326 270.618Z" fill="#E3D6FA"/>
<path d="M351.544 150.072L351.83 247.492L251.122 303.129L250.836 205.709L351.544 150.072Z" fill="#E3D6FA"/>
<path opacity="0.4" d="M133.326 270.618L133.612 368.038L71.2696 402.485L70.9712 305.065L133.326 270.618Z" fill="white"/>
<path opacity="0.4" d="M351.544 150.072L351.83 247.492L251.122 303.129L250.836 205.709L351.544 150.072Z" fill="white"/>
<path d="M267.223 135.163L267.236 141.668L229.584 162.522L229.558 156.018L267.223 135.163Z" fill="white"/>
<path d="M268.494 168.642L268.507 172.627L229.674 194.3L229.661 190.328L268.494 168.642Z" fill="white"/>
<path d="M276.629 156.514L276.642 160.486L229.649 186.356L229.636 182.384L276.629 156.514Z" fill="white"/>
<path d="M251.589 162.299L251.602 166.271L229.623 178.411L229.61 174.439L251.589 162.299Z" fill="white"/>
<path d="M276.578 140.625L276.591 144.585L229.611 170.467L229.598 166.494L276.578 140.625Z" fill="white"/>
<g opacity="0.3">
<path d="M267.223 135.163L267.236 141.668L229.584 162.522L229.558 156.018L267.223 135.163Z" fill="white"/>
<path d="M268.495 168.642L268.508 172.627L229.675 194.3L229.662 190.328L268.495 168.642Z" fill="white"/>
<path d="M276.63 156.514L276.643 160.486L229.649 186.356L229.636 182.384L276.63 156.514Z" fill="white"/>
<path d="M251.589 162.299L251.602 166.271L229.623 178.411L229.61 174.439L251.589 162.299Z" fill="white"/>
<path d="M276.578 140.625L276.591 144.585L229.611 170.467L229.598 166.494L276.578 140.625Z" fill="white"/>
</g>
<path d="M102.253 297.195L102.279 303.141L78.2503 316.411L78.2373 310.465L102.253 297.195Z" fill="#E3D6FA"/>
<path d="M126.177 293.508L126.19 296.301L78.2757 322.779L78.2627 319.973L126.177 293.508Z" fill="#E3D6FA"/>
<path d="M126.204 299.106V301.899L78.2896 328.377V325.572L126.204 299.106Z" fill="#E3D6FA"/>
<path d="M126.372 356.109V358.902L78.4575 385.367V382.574L126.372 356.109Z" fill="#E3D6FA"/>
<path d="M126.346 350.51L126.359 353.303L78.4441 379.781L78.4312 376.976L126.346 350.51Z" fill="#E3D6FA"/>
<path d="M99.2298 355.972L99.2427 361.906L78.4187 373.4L78.4058 367.467L99.2298 355.972Z" fill="#E3D6FA"/>
<path d="M117.784 337.91V340.703L78.3933 362.464L78.3804 359.659L117.784 337.91Z" fill="#E3D6FA"/>
<path d="M126.281 327.595L126.294 330.401L78.3792 356.866L78.3662 354.073L126.281 327.595Z" fill="#E3D6FA"/>
<path d="M126.269 322.009L126.282 324.815L78.354 351.28V348.474L126.269 322.009Z" fill="#E3D6FA"/>
<path d="M112.309 320.184L112.335 326.13L78.3416 344.912L78.3286 338.966L112.309 320.184Z" fill="#E3D6FA"/>
<path d="M102.253 317.938L102.266 320.731L78.3018 333.963V331.17L102.253 317.938Z" fill="#E3D6FA"/>
<path d="M91.4057 381.022V383.815L78.4702 390.965V388.172L91.4057 381.022Z" fill="#E3D6FA"/>
<g opacity="0.8">
<path d="M102.253 297.195L102.279 303.141L78.2503 316.411L78.2373 310.465L102.253 297.195Z" fill="white"/>
<path d="M126.177 293.508L126.19 296.301L78.2757 322.779L78.2627 319.973L126.177 293.508Z" fill="white"/>
<path d="M126.204 299.107V301.9L78.2891 328.377V325.572L126.204 299.107Z" fill="white"/>
<path d="M126.372 356.109V358.902L78.457 385.367V382.574L126.372 356.109Z" fill="white"/>
<path d="M126.346 350.51L126.359 353.303L78.4441 379.781L78.4312 376.976L126.346 350.51Z" fill="white"/>
<path d="M99.2288 355.972L99.2418 361.905L78.4178 373.4L78.4048 367.467L99.2288 355.972Z" fill="white"/>
<path d="M117.783 337.911V340.704L78.3924 362.464L78.3794 359.659L117.783 337.911Z" fill="white"/>
<path d="M126.28 327.595L126.293 330.401L78.3787 356.866L78.3657 354.073L126.28 327.595Z" fill="white"/>
<path d="M126.268 322.009L126.281 324.815L78.3535 351.28V348.474L126.268 322.009Z" fill="white"/>
<path d="M112.307 320.184L112.333 326.13L78.3401 344.912L78.3271 338.966L112.307 320.184Z" fill="white"/>
<path d="M102.253 317.937L102.266 320.73L78.3018 333.963V331.17L102.253 317.937Z" fill="white"/>
<path d="M91.4053 381.022V383.815L78.4697 390.965V388.172L91.4053 381.022Z" fill="white"/>
</g>
<path d="M205.906 260.166L186.379 295.656L180.852 305.71L184.654 294.389L173.898 286.395L161.896 309.186L161.935 323.102L224.862 288.344L224.823 274.416L205.906 260.166Z" fill="white"/>
<path d="M185.276 278.985C186.832 278.012 188.126 276.704 189.055 275.164C189.984 273.624 190.52 271.897 190.621 270.121C190.621 266.869 188.195 265.553 185.237 267.192C183.679 268.158 182.382 269.464 181.453 271.003C180.523 272.541 179.989 274.268 179.892 276.043C179.905 279.307 182.305 280.611 185.276 278.985Z" fill="white"/>
<g opacity="0.3">
<path d="M205.906 260.166L186.379 295.656L180.852 305.71L184.654 294.389L173.898 286.395L161.896 309.186L161.935 323.102L224.862 288.344L224.823 274.416L205.906 260.166Z" fill="white"/>
<path d="M185.277 278.984C186.832 278.012 188.127 276.703 189.056 275.164C189.984 273.624 190.521 271.896 190.622 270.121C190.622 266.869 188.196 265.553 185.238 267.192C183.679 268.158 182.382 269.464 181.453 271.002C180.524 272.541 179.989 274.268 179.892 276.042C179.905 279.307 182.305 280.61 185.277 278.984Z" fill="white"/>
</g>
<path d="M317.266 199.812L297.739 235.302L292.212 245.357L296.014 234.036L285.245 226.041L273.256 248.832L273.295 262.748L336.221 227.99L336.182 214.063L317.266 199.812Z" fill="#E3D6FA"/>
<path d="M296.623 218.631C298.182 217.662 299.48 216.354 300.409 214.814C301.338 213.273 301.872 211.544 301.968 209.768C301.968 206.515 299.555 205.199 296.597 206.838C295.034 207.8 293.734 209.105 292.804 210.644C291.874 212.183 291.342 213.913 291.251 215.689C291.251 218.953 293.665 220.257 296.623 218.631Z" fill="#E3D6FA"/>
<g opacity="0.8">
<path d="M317.266 199.812L297.739 235.302L292.212 245.357L296.014 234.036L285.245 226.041L273.256 248.832L273.295 262.748L336.221 227.99L336.182 214.063L317.266 199.812Z" fill="white"/>
<path d="M296.623 218.631C298.183 217.662 299.48 216.354 300.409 214.814C301.338 213.273 301.873 211.544 301.969 209.768C301.969 206.515 299.556 205.199 296.597 206.838C295.035 207.8 293.734 209.105 292.805 210.644C291.875 212.183 291.343 213.913 291.252 215.689C291.252 218.953 293.665 220.257 296.623 218.631Z" fill="white"/>
</g>
<path d="M344.368 128.236L340.735 130.235L342.915 162.87L346.379 182.346L358.303 183.674L353.424 162.87L347.91 128.423L344.368 128.236Z" fill="#FFCAC9"/>
<path d="M345.29 179.963C353.516 177.021 358.887 181.204 358.887 181.204L360.185 214.584L345.511 206.552L345.29 179.963Z" fill="white"/>
<path d="M345.29 179.963C353.516 177.021 358.887 181.204 358.887 181.204L360.185 214.584L345.511 206.552L345.29 179.963Z" fill="#E3D6FA"/>
<path opacity="0.1" d="M345.29 179.963C353.516 177.021 358.887 181.204 358.887 181.204L360.185 214.584L345.511 206.552L345.29 179.963Z" fill="white"/>
<path d="M336.324 95.4406L297.465 116.903L297.556 145.317L336.415 123.855L336.324 95.4406Z" fill="white"/>
<path d="M336.325 95.4405L336.416 123.855L340.009 125.853L339.919 93.4543L336.325 95.4405Z" fill="white"/>
<path d="M297.557 145.317L297.57 149.302L340.009 125.853L336.415 123.854L297.557 145.317Z" fill="white"/>
<path d="M344.252 86.2795L293.106 114.532L293.236 156.489L344.369 128.237L344.252 86.2795ZM297.544 149.302V145.317L297.479 116.903L336.337 95.4406L339.931 93.4545L340.022 125.853L297.544 149.302Z" fill="white"/>
<path d="M344.252 86.2793L340.645 84.2808L289.513 112.534L293.107 114.532L344.252 86.2793Z" fill="white"/>
<path d="M289.513 112.534L289.63 154.478L293.236 156.489L293.107 114.532L289.513 112.534Z" fill="white"/>
<path d="M297.465 116.903L336.324 95.4406L336.415 123.855L297.556 145.317L297.465 116.903Z" fill="white"/>
<path d="M323.987 106.228L334.575 114.21L334.6 122.005L299.362 141.482L299.336 133.674L306.057 120.913L312.077 125.394L309.949 131.737L313.05 126.102L323.987 106.228Z" fill="white"/>
<path d="M312.4 110.163C314.061 109.244 315.41 109.977 315.423 111.801C315.368 112.796 315.067 113.765 314.546 114.627C314.025 115.49 313.299 116.223 312.426 116.767C310.766 117.685 309.416 116.941 309.403 115.116C309.461 114.123 309.763 113.157 310.283 112.297C310.804 111.436 311.529 110.705 312.4 110.163Z" fill="white"/>
<path opacity="0.5" d="M336.325 95.4405L336.416 123.855L340.009 125.853L339.919 93.4543L336.325 95.4405Z" fill="white"/>
<path opacity="0.8" d="M297.557 145.317L297.57 149.302L340.009 125.853L336.415 123.854L297.557 145.317Z" fill="white"/>
<path opacity="0.7" d="M344.252 86.2795L293.106 114.532L293.236 156.489L344.369 128.237L344.252 86.2795ZM297.544 149.302V145.317L297.479 116.903L336.337 95.4406L339.931 93.4545L340.022 125.853L297.544 149.302Z" fill="black"/>
<path opacity="0.9" d="M344.252 86.2793L340.645 84.2808L289.513 112.534L293.107 114.532L344.252 86.2793Z" fill="white"/>
<path opacity="0.5" d="M289.513 112.534L289.63 154.478L293.236 156.489L293.107 114.532L289.513 112.534Z" fill="white"/>
<path opacity="0.6" d="M336.325 95.4406L297.479 116.903L297.57 145.317L336.402 123.855L336.325 95.4406ZM312.4 110.163C314.06 109.244 315.41 109.977 315.423 111.801C315.367 112.796 315.066 113.764 314.545 114.627C314.025 115.49 313.298 116.223 312.426 116.767C310.765 117.685 309.416 116.94 309.403 115.116C309.46 114.123 309.762 113.157 310.283 112.297C310.803 111.436 311.529 110.705 312.4 110.163ZM299.36 141.482V133.686L306.081 120.913L312.101 125.394L309.973 131.737L313.074 126.102L324.012 106.24L334.599 114.222V122.018L299.36 141.482Z" fill="#E3D6FA"/>
<path opacity="0.3" d="M323.987 106.228L313.05 126.102L309.949 131.737L312.077 125.394L306.057 120.913L299.336 133.674L299.362 141.482L334.6 122.005L334.575 114.21L323.987 106.228Z" fill="#410EAD"/>
<path opacity="0.3" d="M312.425 116.767C313.298 116.223 314.024 115.49 314.545 114.627C315.066 113.765 315.367 112.796 315.422 111.801C315.422 109.977 314.06 109.244 312.399 110.163C311.527 110.707 310.8 111.44 310.28 112.302C309.759 113.165 309.458 114.133 309.402 115.128C309.415 116.941 310.765 117.685 312.425 116.767Z" fill="white"/>
<path d="M309.26 190.303L302.566 182.049L295.118 148.421C294.916 147.521 294.997 146.583 295.352 145.727L296.26 143.58C296.727 142.447 296.948 141.234 296.909 140.017L296.753 135.3C296.736 134.928 296.571 134.576 296.291 134.317C296.011 134.058 295.637 133.912 295.248 133.91C294.896 133.91 294.556 134.028 294.286 134.243C294.015 134.459 293.833 134.758 293.769 135.089L293.003 139.185L291.187 141.171L289.552 135.573V128.423L285.867 133.537C284.88 134.911 284.485 136.596 284.765 138.242L286.309 147.192L290.11 184.022C290.499 187.775 292.023 191.338 294.495 194.276L298.66 199.241L309.26 190.303Z" fill="#FFCAC9"/>
<path d="M330.045 386.348C329.584 387.37 328.825 388.244 327.859 388.865C326.892 389.486 325.76 389.827 324.596 389.848C322.275 389.851 319.964 389.567 317.719 389.004C312.62 388.123 307.69 389.004 302.591 388.88C300.919 388.894 299.251 388.719 297.622 388.359C295.978 388.002 294.491 387.165 293.366 385.963C292.734 385.254 292.309 384.397 292.134 383.48C292.028 384.188 292.083 384.91 292.296 385.595C292.509 386.281 292.874 386.914 293.366 387.453C294.493 388.654 295.979 389.495 297.622 389.861C299.253 390.211 300.92 390.382 302.591 390.37C307.69 390.494 312.62 389.612 317.719 390.494C319.964 391.056 322.275 391.34 324.596 391.338C325.76 391.317 326.892 390.975 327.859 390.355C328.825 389.734 329.584 388.86 330.045 387.837C330.257 387.107 330.314 386.343 330.214 385.591C330.179 385.847 330.123 386.1 330.045 386.348Z" fill="#E3D6FA"/>
<path d="M329.915 382.301L328.981 377.857C328.866 377.063 328.597 376.297 328.19 375.598C327.985 375.248 327.685 374.958 327.322 374.759C326.958 374.56 326.545 374.46 326.127 374.468C323.324 374.108 319.393 373.14 317.045 374.667C313.37 377.073 308.987 378.29 304.537 378.142C302.238 377.883 299.922 377.795 297.609 377.882C295.312 378.142 292.925 379.371 292.237 381.482C292.05 382.111 292.01 382.772 292.121 383.418C292.296 384.335 292.721 385.192 293.353 385.901C294.478 387.102 295.965 387.94 297.609 388.296C299.238 388.657 300.906 388.832 302.578 388.818C307.677 388.93 312.607 388.061 317.706 388.942C319.951 389.505 322.262 389.788 324.583 389.786C325.747 389.765 326.879 389.424 327.846 388.803C328.812 388.182 329.571 387.308 330.032 386.286C330.113 386.018 330.17 385.744 330.201 385.466C330.28 384.403 330.183 383.335 329.915 382.301Z" fill="#E3D6FA"/>
<path d="M316.383 370.011L316.175 375.796C316.154 376.391 316.374 376.971 316.79 377.413C317.207 377.855 317.786 378.126 318.407 378.167C320.432 378.323 322.467 378.323 324.492 378.167C325.313 378.089 326.079 377.734 326.652 377.165C327.225 376.597 327.567 375.852 327.619 375.064L327.852 370.793L316.383 370.011Z" fill="#FFCAC9"/>
<path d="M355.864 366.933C355.841 367.789 355.562 368.62 355.059 369.329C354.337 370.159 353.321 370.707 352.205 370.868C350.869 371.086 349.496 370.94 348.243 370.446C346.99 369.952 345.908 369.13 345.121 368.075C344.355 367.02 343.927 365.779 343.201 364.699C342.114 363.245 340.771 361.985 339.231 360.975C337.691 359.955 336.34 358.697 335.234 357.251C334.71 356.552 334.367 355.744 334.234 354.894C334.101 354.043 334.181 353.175 334.469 352.36C334.324 352.551 334.198 352.754 334.093 352.968C333.755 353.826 333.644 354.751 333.768 355.66C333.893 356.569 334.249 357.435 334.806 358.182C335.939 359.652 337.32 360.932 338.893 361.968C340.464 363.003 341.834 364.293 342.941 365.779C343.681 366.883 344.122 368.162 344.9 369.254C345.697 370.339 346.799 371.185 348.078 371.695C349.357 372.204 350.761 372.357 352.127 372.134C353.268 371.966 354.303 371.4 355.033 370.545C355.689 369.555 355.989 368.387 355.89 367.219C355.864 367.181 355.864 367.007 355.864 366.933Z" fill="#E3D6FA"/>
<path d="M354.035 359.671C352.193 356.593 348.404 354.346 345.472 352.223C343.872 350.89 341.903 350.028 339.802 349.741C338.755 349.623 337.696 349.806 336.758 350.266C335.82 350.726 335.046 351.441 334.534 352.323C334.534 352.323 334.534 352.434 334.47 352.484C334.182 353.299 334.101 354.167 334.234 355.018C334.367 355.868 334.71 356.676 335.235 357.375C336.34 358.821 337.691 360.08 339.231 361.099C340.771 362.109 342.115 363.37 343.201 364.823C343.928 365.903 344.356 367.144 345.122 368.199C345.909 369.254 346.991 370.076 348.244 370.57C349.497 371.064 350.87 371.21 352.206 370.992C353.322 370.831 354.338 370.283 355.06 369.453C355.562 368.745 355.842 367.913 355.864 367.057C355.864 366.784 355.864 366.499 355.864 366.225C355.835 363.929 355.206 361.676 354.035 359.671Z" fill="#E3D6FA"/>
<path d="M346.055 357.002V362.265C347.405 362.871 348.887 363.154 350.377 363.091C351.866 363.029 353.317 362.622 354.605 361.905L355.124 357.163L346.055 357.002Z" fill="#FFCAC9"/>
<path d="M356.564 261.593C358.212 266.335 356.188 288.803 355.267 310.365C358.835 318.521 357.862 341.659 355.812 358.082C355.812 358.082 352.244 360.192 345.782 358.082L337.699 312.736L336.571 287.102C336.571 287.102 334.534 309.844 332.198 324.429C334.391 335.601 333.846 337.712 328.423 372.084C326.536 372.99 324.455 373.461 322.344 373.461C320.234 373.461 318.152 372.99 316.266 372.084C313.191 323.796 314.319 279.791 314.903 263.964L356.564 261.593Z" fill="white"/>
<path opacity="0.5" d="M356.564 261.593C358.212 266.335 356.188 288.803 355.267 310.365C358.835 318.521 357.862 341.659 355.812 358.082C355.812 358.082 352.244 360.192 345.782 358.082L337.699 312.736L336.571 287.102C336.571 287.102 334.534 309.844 332.198 324.429C334.391 335.601 333.846 337.712 328.423 372.084C326.536 372.99 324.455 373.461 322.344 373.461C320.234 373.461 318.152 372.99 316.266 372.084C313.191 323.796 314.319 279.791 314.903 263.964L356.564 261.593Z" fill="#B4B4B4"/>
<path opacity="0.1" d="M356.564 261.593C358.212 266.335 356.188 288.803 355.267 310.365C358.835 318.521 357.862 341.659 355.812 358.082C355.812 358.082 352.244 360.192 345.782 358.082L337.699 312.736L336.571 287.102C336.571 287.102 334.534 309.844 332.198 324.429C334.391 335.601 333.846 337.712 328.423 372.084C326.536 372.99 324.455 373.461 322.344 373.461C320.234 373.461 318.152 372.99 316.266 372.084C313.191 323.796 314.319 279.791 314.903 263.964L356.564 261.593Z" fill="white"/>
<path opacity="0.3" d="M337.207 302.707L336.286 281.802C341.93 281.802 347.171 277.768 351.154 273.932C348.485 278.087 344.563 281.372 339.906 283.354L337.207 302.707Z" fill="#B4B4B4"/>
<path d="M313.983 265.218C339.179 275.323 355.501 266.199 357.733 261.494C356.565 244.835 360.691 225.334 360.328 217.054C359.964 208.775 358.991 199.427 345.563 201.289L331.291 202.618L324.051 204.306L315.371 221.56L313.983 265.218Z" fill="#E3D6FA"/>
<path d="M345.563 194.747C346.581 194.807 347.582 194.481 348.352 193.841C348.643 193.535 348.855 193.168 348.97 192.769C349.085 192.37 349.1 191.95 349.014 191.545C349.438 191.469 349.836 191.293 350.171 191.033C350.507 190.773 350.769 190.437 350.934 190.055C351.063 189.637 351.09 189.195 351.014 188.765C350.937 188.335 350.759 187.927 350.493 187.573C351.104 187.42 351.674 187.144 352.165 186.763C352.655 186.382 353.054 185.904 353.334 185.363C353.618 184.805 353.776 184.196 353.796 183.575C353.816 182.955 353.699 182.337 353.451 181.763C354.124 181.593 354.739 181.261 355.239 180.798C355.739 180.335 356.106 179.757 356.305 179.119C356.517 178.456 356.555 177.754 356.414 177.074C356.274 176.394 355.96 175.757 355.501 175.221C356.078 174.481 356.441 173.608 356.552 172.69C356.664 171.772 356.521 170.843 356.137 169.995C355.692 169.146 355.026 168.42 354.203 167.888C353.381 167.355 352.43 167.034 351.44 166.954C351.578 166.064 351.481 165.155 351.16 164.31C350.838 163.465 350.301 162.71 349.598 162.113C348.888 161.545 348.041 161.159 347.133 160.99C346.226 160.82 345.288 160.874 344.408 161.145C344.083 160.404 343.568 159.753 342.911 159.253C342.254 158.752 341.475 158.419 340.648 158.283C339.82 158.147 338.97 158.212 338.175 158.474C337.381 158.735 336.669 159.184 336.104 159.779C335.694 159.323 335.173 158.972 334.587 158.755C334.001 158.538 333.367 158.464 332.744 158.538C332.111 158.594 331.502 158.798 330.971 159.131C330.439 159.464 330.001 159.917 329.695 160.449C328.899 160.104 328.024 159.96 327.153 160.031C326.282 160.102 325.445 160.386 324.722 160.856C323.999 161.326 323.414 161.966 323.024 162.714C322.634 163.462 322.451 164.294 322.494 165.129C321.855 165.307 321.296 165.683 320.904 166.197C320.512 166.711 320.309 167.336 320.327 167.972C320.385 168.623 320.657 169.24 321.105 169.733C321.552 170.226 322.153 170.57 322.818 170.715C324.078 177.255 326.334 183.583 329.513 189.497C330.927 192.128 332.666 194.797 335.404 196.163C338.375 197.665 343.033 196.821 345.563 194.747Z" fill="#474747"/>
<path d="M321.806 179.318L318.848 184.233L322.078 185.388L321.806 179.318Z" fill="#FFA8A7"/>
<path d="M322.817 170.765C320.853 177.573 320.564 184.724 321.974 191.656C322.109 192.844 322.556 193.98 323.271 194.958C324.251 195.958 325.602 196.551 327.034 196.609C328.447 196.66 329.861 196.531 331.238 196.224V202.617C336.311 203.759 341.539 204.219 345.51 201.289V194.747C342.646 195.62 339.602 195.799 336.648 195.269C333.145 193.456 332.444 187.336 332.937 185.723C333.246 186.119 333.672 186.419 334.159 186.582C334.647 186.746 335.175 186.766 335.675 186.641C336.157 186.515 336.608 186.297 337 186.001C337.393 185.704 337.718 185.335 337.959 184.916C338.421 184.066 338.707 183.139 338.802 182.185C339.051 181.036 338.867 179.84 338.283 178.808C337.828 178.244 337.206 177.824 336.498 177.603C335.79 177.381 335.028 177.369 334.313 177.567C332.872 178.006 331.67 178.969 330.965 180.248C330.741 180.649 330.546 181.064 330.381 181.49C330.32 181.651 330.203 181.787 330.05 181.877C329.897 181.966 329.716 182.003 329.538 181.981C329.36 181.959 329.195 181.88 329.07 181.757C328.946 181.634 328.868 181.474 328.85 181.304C328.663 179.424 329.031 177.531 329.914 175.842C329.336 175.785 328.778 175.605 328.282 175.315C327.786 175.025 327.364 174.632 327.047 174.166C326.713 173.728 326.49 173.222 326.396 172.688C326.301 172.154 326.338 171.606 326.502 171.087C325.264 171.182 324.017 171.073 322.817 170.765Z" fill="#FFCAC9"/>
<path d="M324.051 204.306L308.65 187.461C299.801 189.534 294.806 198.322 294.806 198.322L315.371 221.56C330.447 227.233 324.051 204.306 324.051 204.306Z" fill="white"/>
<path d="M343.085 128.944L341.956 124.736L340.776 119.659C340.688 119.345 340.732 119.01 340.9 118.727C341.067 118.443 341.344 118.234 341.671 118.145C341.839 118.083 342.019 118.055 342.199 118.064C342.379 118.072 342.555 118.116 342.716 118.193C342.877 118.27 343.02 118.379 343.134 118.511C343.249 118.644 343.334 118.798 343.384 118.964L344.37 121.72V113.936L347.769 119.746C348.272 120.621 348.498 121.617 348.418 122.613L347.912 128.423L343.085 128.944Z" fill="#FFCAC9"/>
<path d="M324.051 204.306L308.65 187.461C299.801 189.534 294.806 198.322 294.806 198.322L315.371 221.56C330.447 227.233 324.051 204.306 324.051 204.306Z" fill="#E3D6FA"/>
<path opacity="0.1" d="M324.051 204.306L308.65 187.461C299.801 189.534 294.806 198.322 294.806 198.322L315.371 221.56C330.447 227.233 324.051 204.306 324.051 204.306Z" fill="white"/>
<path d="M444.323 294.265C442.79 289.177 440.949 284.178 438.809 279.295C432.062 262.015 427.612 257.484 419.633 258.9L425.134 283.726L432.075 296.537L425.77 306.629L432.737 317.168L443.259 301.552C443.977 300.483 444.444 299.278 444.628 298.02C444.812 296.762 444.708 295.481 444.323 294.265Z" fill="#FFBEA7"/>
<path d="M407.333 439.849C406.767 440.644 406.027 441.312 405.164 441.807C404.302 442.302 403.338 442.613 402.338 442.717C400.05 442.908 397.745 442.77 395.5 442.307C392.117 441.858 388.692 441.775 385.289 442.059C383.185 442.321 381.067 442.466 378.945 442.493C376.8 442.514 374.705 441.879 372.964 440.681C371.765 439.777 370.968 438.474 370.732 437.031C370.623 437.973 370.771 438.925 371.163 439.796C371.554 440.666 372.174 441.424 372.964 441.997C374.705 443.195 376.8 443.83 378.945 443.809C381.067 443.788 383.186 443.643 385.289 443.374C388.692 443.091 392.117 443.174 395.5 443.623C397.771 443.933 400.236 444.554 402.506 444.194C403.504 444.09 404.467 443.779 405.327 443.284C406.187 442.789 406.925 442.121 407.489 441.326L407.333 439.849Z" fill="#263238"/>
<path d="M382.553 435.988C384.447 435.988 383.747 433.282 385.563 431.482C384.823 431.482 384.084 431.482 383.344 431.482C381.722 433.779 381.255 435.988 382.553 435.988Z" fill="white"/>
<path d="M386.509 435.839C388.417 435.839 387.924 432.624 389.805 430.75C389.377 430.887 388.936 431.011 388.508 431.11C388.079 431.209 387.755 431.247 387.379 431.309C385.705 433.58 385.199 435.839 386.509 435.839Z" fill="white"/>
<path d="M405.361 429.683C405.231 429.085 404.875 428.555 404.362 428.193L394.074 427.945C392.98 429.271 391.492 430.249 389.805 430.75C387.924 432.625 388.417 435.84 386.509 435.84C385.212 435.84 385.679 433.58 387.366 431.309C386.769 431.396 386.172 431.445 385.562 431.483C383.746 433.282 384.446 435.989 382.552 435.989C381.255 435.989 381.722 433.779 383.344 431.532H381.903C381.462 431.532 381.034 431.532 380.606 431.458C376.818 434.325 376.493 437.429 376.986 442.307C377.638 442.417 378.297 442.483 378.958 442.506C381.08 442.478 383.199 442.333 385.303 442.071C388.705 441.787 392.131 441.871 395.514 442.319C397.759 442.782 400.063 442.921 402.351 442.729C403.351 442.625 404.315 442.315 405.178 441.82C406.04 441.325 406.78 440.657 407.346 439.862L405.361 429.683Z" fill="#E3D6FA"/>
<path d="M380.593 431.445C378.874 431.181 377.122 431.181 375.403 431.445C374.344 431.64 373.357 432.1 372.543 432.778C371.73 433.456 371.118 434.328 370.771 435.306C370.622 435.87 370.596 436.457 370.693 437.031C370.929 438.474 371.726 439.777 372.925 440.681C374.103 441.525 375.48 442.08 376.934 442.295C376.48 437.416 376.804 434.313 380.593 431.445Z" fill="white"/>
<path d="M393.775 425.139V429.893C393.779 430.409 393.994 430.903 394.376 431.268C394.757 431.633 395.273 431.839 395.812 431.842H401.002C401.872 431.843 402.708 431.519 403.333 430.94C403.958 430.36 404.323 429.571 404.35 428.739L404.479 425.139H393.775Z" fill="#FFBEA7"/>
<path d="M428.092 423.029C427.803 423.606 427.363 424.103 426.816 424.47C426.268 424.837 425.631 425.064 424.965 425.127C423.576 425.222 422.192 424.896 421.008 424.196C419.23 423.103 418.529 421.403 417.31 419.863C416.036 418.373 414.591 417.024 413.002 415.842C411.293 414.631 409.888 413.07 408.889 411.273C408.644 410.741 408.482 410.176 408.409 409.598C408.248 410.691 408.415 411.806 408.889 412.813C409.888 414.61 411.293 416.17 413.002 417.381C414.591 418.563 416.036 419.912 417.31 421.403C418.529 422.942 419.23 424.643 421.008 425.735C422.192 426.435 423.576 426.761 424.965 426.666C425.631 426.603 426.268 426.377 426.816 426.009C427.363 425.642 427.803 425.145 428.092 424.568C428.3 423.702 428.362 422.809 428.273 421.924C428.276 422.299 428.215 422.673 428.092 423.029Z" fill="#263238"/>
<path d="M416.39 412.614C416.209 412.851 416.122 413.141 416.143 413.434C416.173 413.573 416.241 413.702 416.338 413.808C416.436 413.915 416.561 413.995 416.701 414.042C416.904 414.086 417.114 414.083 417.315 414.034C417.516 413.984 417.701 413.889 417.856 413.756C418.155 413.476 418.425 413.169 418.66 412.838C419.337 412.01 420.233 411.372 421.255 410.988C421.767 410.815 422.298 410.703 422.838 410.653L421.541 409.536C420.73 409.58 419.934 409.765 419.192 410.082C418.015 410.639 417.039 411.521 416.39 412.614Z" fill="white"/>
<path d="M416.662 408.704C415.465 409.233 414.465 410.099 413.795 411.187C413.617 411.42 413.53 411.705 413.548 411.993C413.574 412.134 413.64 412.265 413.739 412.372C413.837 412.479 413.964 412.559 414.106 412.602C414.308 412.654 414.521 412.655 414.723 412.605C414.925 412.555 415.111 412.455 415.261 412.316C415.563 412.043 415.833 411.739 416.065 411.41C416.738 410.579 417.635 409.939 418.66 409.56C419.49 409.272 420.375 409.157 421.255 409.225L419.958 408.12C418.825 408.035 417.688 408.237 416.662 408.704Z" fill="white"/>
<path d="M419.23 407.463C418.059 406.376 416.692 405.501 415.195 404.881C414.287 404.502 413.287 404.37 412.305 404.499C411.323 404.629 410.397 405.014 409.629 405.613C409.114 406.14 408.735 406.774 408.524 407.467C408.312 408.159 408.273 408.889 408.41 409.598C408.482 410.176 408.644 410.741 408.89 411.274C409.233 411.97 409.669 412.621 410.187 413.21C410.667 408.977 414.508 406.991 419.23 407.463Z" fill="white"/>
<path d="M428.183 418.871C428.211 417.431 427.868 416.007 427.184 414.725L424.68 412.242L422.89 410.678C422.35 410.727 421.818 410.84 421.307 411.013C420.284 411.396 419.388 412.035 418.712 412.863C418.476 413.193 418.207 413.501 417.907 413.781C417.753 413.914 417.567 414.009 417.366 414.058C417.165 414.108 416.955 414.111 416.753 414.067C416.613 414.02 416.488 413.94 416.39 413.833C416.292 413.726 416.225 413.597 416.195 413.458C416.173 413.166 416.261 412.876 416.441 412.639C417.116 411.555 418.114 410.69 419.309 410.156C420.05 409.84 420.846 409.655 421.657 409.61L421.372 409.35C420.492 409.282 419.607 409.396 418.777 409.685C417.752 410.064 416.855 410.703 416.182 411.534C415.949 411.864 415.68 412.168 415.377 412.44C415.227 412.58 415.042 412.679 414.84 412.729C414.637 412.779 414.425 412.778 414.223 412.726C414.081 412.683 413.953 412.603 413.855 412.496C413.757 412.389 413.691 412.258 413.665 412.118C413.646 411.83 413.734 411.544 413.911 411.311C414.527 410.272 415.447 409.427 416.559 408.883C417.67 408.338 418.924 408.116 420.165 408.245L419.4 407.574C414.677 407.103 410.836 409.089 410.317 413.322C411.18 414.279 412.131 415.16 413.159 415.953C414.747 417.136 416.192 418.485 417.466 419.975C418.686 421.515 419.387 423.215 421.164 424.308C422.348 425.008 423.733 425.333 425.121 425.239C425.787 425.176 426.424 424.949 426.972 424.582C427.52 424.214 427.959 423.718 428.248 423.141C428.371 422.784 428.433 422.411 428.43 422.036C428.409 420.977 428.327 419.921 428.183 418.871Z" fill="#E3D6FA"/>
<path d="M419.153 411.373L419.451 416.462C422.812 418.312 426.341 417.306 427.521 416.139L427.742 411.373H419.153Z" fill="#FFBEA7"/>
<path d="M425.771 301.291C425.481 300.746 425.309 300.151 425.265 299.541L424.979 295.171L392.426 297.17C391.998 299.355 391.557 302.036 391.129 305.065C402.766 307.962 415.113 306.617 425.771 301.291Z" fill="#FFBEA7"/>
<path d="M404.687 260.935L395.968 262.574C394.048 265.938 392.076 269.103 390.156 272.505C388.716 274.987 387.224 277.743 387.327 280.635C387.409 282.175 387.937 283.662 388.854 284.93C389.771 286.198 391.04 287.195 392.517 287.81L391.518 299.193C405.193 303.19 421.917 299.677 425.589 296.649C426.666 291.882 427.626 286.805 428.703 282.038C429.513 278.967 430.017 275.829 430.208 272.666C430.376 269.475 429.574 266.306 427.898 263.542V263.468C426.754 261.822 425.134 260.531 423.236 259.751C421.337 258.97 419.243 258.735 417.208 259.073L404.687 260.935Z" fill="white"/>
<path opacity="0.1" d="M404.687 260.935L395.968 262.574C394.048 265.938 392.076 269.103 390.156 272.505C388.716 274.987 387.224 277.743 387.327 280.635C387.409 282.175 387.937 283.662 388.854 284.93C389.771 286.198 391.04 287.195 392.517 287.81L391.518 299.193C405.193 303.19 421.917 299.677 425.589 296.649C426.666 291.882 427.626 286.805 428.703 282.038C429.513 278.967 430.017 275.829 430.208 272.666C430.376 269.475 429.574 266.306 427.898 263.542V263.468C426.754 261.822 425.134 260.531 423.236 259.751C421.337 258.97 419.243 258.735 417.208 259.073L404.687 260.935Z" fill="#B4B4B4"/>
<path opacity="0.3" d="M404.687 260.935L395.968 262.574C394.048 265.938 392.076 269.103 390.156 272.505C388.716 274.987 387.224 277.743 387.327 280.635C387.409 282.175 387.937 283.662 388.854 284.93C389.771 286.198 391.04 287.195 392.517 287.81L391.518 299.193C405.193 303.19 421.917 299.677 425.589 296.649C426.666 291.882 427.626 286.805 428.703 282.038C429.513 278.967 430.017 275.829 430.208 272.666C430.376 269.475 429.574 266.306 427.898 263.542V263.468C426.754 261.822 425.134 260.531 423.236 259.751C421.337 258.97 419.243 258.735 417.208 259.073L404.687 260.935Z" fill="#B4B4B4"/>
<path d="M426.276 302.086C426.08 301.838 425.91 301.572 425.77 301.291C415.109 306.598 402.767 307.925 391.141 305.015C388.676 322.481 386.574 352.074 387.871 371.588C388.948 394.305 393.308 426.48 393.308 426.48C399.016 428.119 403.285 427.113 404.907 425.934C406.801 403.404 410.979 387.949 407.748 373.04C409.902 362.626 411.303 349.53 411.303 349.53L412.951 372.606L418.517 413.086C420.082 413.852 421.83 414.211 423.586 414.126C425.342 414.041 427.044 413.515 428.52 412.602C432.581 389.451 434.099 373.773 430.557 362.278C435.968 324.293 436.305 314.586 426.276 302.086Z" fill="white"/>
<path opacity="0.4" d="M425.883 302.396L425.886 302.399C430.84 308.574 433.22 314.028 433.707 322.653C434.197 331.331 432.77 343.2 430.062 362.208L430.047 362.318L430.079 362.425C433.569 373.75 432.102 389.245 428.067 412.291C426.709 413.089 425.16 413.549 423.562 413.627C421.979 413.703 420.402 413.401 418.976 412.75L413.449 372.554L411.802 349.494L410.806 349.476L411.303 349.53C410.806 349.476 410.806 349.476 410.806 349.476L410.806 349.477L410.806 349.479L410.805 349.486L410.802 349.514L410.79 349.625C410.779 349.723 410.763 349.868 410.742 350.057C410.7 350.434 410.636 350.986 410.554 351.68C410.389 353.068 410.147 355.028 409.838 357.312C409.219 361.884 408.332 367.748 407.259 372.939L407.237 373.043L407.26 373.146C408.858 380.523 408.628 388.051 407.752 396.578C407.408 399.928 406.962 403.447 406.49 407.17C405.775 412.817 405 418.935 404.429 425.654C403.674 426.131 402.367 426.592 400.591 426.766C398.746 426.946 396.424 426.813 393.759 426.087L393.754 426.047C393.722 425.806 393.675 425.45 393.614 424.988C393.493 424.065 393.318 422.72 393.106 421.035C392.68 417.665 392.102 412.936 391.49 407.497C390.266 396.616 388.908 382.906 388.371 371.564L388.371 371.564L388.37 371.555C387.089 352.289 389.131 323.143 391.559 305.632C402.987 308.36 415.062 307.053 425.567 301.948C425.664 302.102 425.77 302.252 425.883 302.396Z" fill="white" stroke="black"/>
<path opacity="0.2" d="M413.692 345.036L416.689 333.045C419.072 332.668 421.347 331.825 423.374 330.57C425.401 329.314 427.136 327.671 428.47 325.745C424.342 328.835 419.269 330.544 414.029 330.611L411.305 349.629L411.876 357.735L412.109 354.793C412.367 351.506 412.896 348.243 413.692 345.036Z" fill="#B4B4B4"/>
<path d="M394.619 262.425C389.222 262.661 381.125 263.517 373.185 263.368C368.651 263.304 364.133 262.83 359.692 261.953C359.692 261.953 349.053 250.21 345.939 244.997C346.678 242.204 347.431 239.46 348.17 236.68C348.423 235.729 348.359 234.727 347.989 233.812C347.475 232.548 346.828 231.337 346.056 230.2C345.018 228.723 344.317 227.171 342.526 226.687C339.789 225.967 342.812 229.48 343.707 230.895C342.199 231.4 340.761 232.08 339.426 232.918C339.216 233.047 339.038 233.217 338.904 233.418C338.769 233.618 338.682 233.844 338.647 234.08C338.613 234.316 338.632 234.556 338.704 234.784C338.775 235.012 338.898 235.223 339.062 235.401L339.503 235.885C338.656 237.409 338.198 239.104 338.166 240.83C338.135 242.556 338.531 244.264 339.322 245.816L348.663 268.93C349.229 270.318 350.159 271.545 351.363 272.49C352.568 273.436 354.006 274.069 355.54 274.329L370.538 276.812L389.247 279.94C391.228 280.252 393.26 279.842 394.941 278.792C396.622 277.742 397.831 276.128 398.33 274.267C398.913 272.008 399.536 270.109 399.899 267.899C400.005 267.193 399.945 266.473 399.723 265.792C399.502 265.111 399.124 264.486 398.619 263.962C398.113 263.438 397.492 263.028 396.8 262.762C396.108 262.496 395.363 262.381 394.619 262.425Z" fill="#FFBEA7"/>
<path d="M392.698 240.962L390.012 245.431L392.957 246.474L392.698 240.962Z" fill="white"/>
<path d="M392.399 238.964C392.827 235.041 394.021 231.342 396.693 229.468C395.982 234.347 397.069 239.311 399.768 243.507C400.039 242.212 400.734 241.034 401.753 240.143C402.16 239.726 402.673 239.419 403.243 239.251C403.813 239.083 404.418 239.06 404.999 239.186C405.581 239.311 406.118 239.581 406.556 239.966C406.995 240.352 407.321 240.841 407.501 241.384C407.857 242.231 407.953 243.158 407.775 244.055C407.597 244.951 407.154 245.78 406.498 246.443C405.842 247.106 405.001 247.575 404.075 247.794C403.149 248.012 402.176 247.972 401.273 247.678C401.646 249.42 402.539 251.021 403.845 252.286C405.152 253.551 406.814 254.426 408.63 254.803C411.024 255.263 413.507 255.034 415.766 254.145L416.869 259.433C412.366 264.026 404.686 260.948 404.686 260.948L403.674 255.747C394.825 256.243 393.995 256.107 393.022 251.439C392.218 247.328 392.008 243.13 392.399 238.964Z" fill="#FFBEA7"/>
<path d="M404.57 222.541C400.379 221.101 395.41 223.273 393.126 226.923C392.066 228.801 391.473 230.889 391.394 233.023C391.316 235.156 391.753 237.279 392.672 239.224C392.669 235.601 394.107 232.113 396.694 229.467C395.864 235.475 396.59 239.845 399.769 243.507C400.458 244.294 400.839 245.286 400.846 246.312C400.846 247.318 400.6 248.323 400.664 249.329C400.82 251.439 402.312 253.214 403.713 254.853C405.115 256.491 406.568 258.316 406.62 260.439C406.685 263.952 405.569 267.663 405.322 271.164C404.992 274.689 405.866 278.222 407.813 281.231C409.356 283.272 411.471 284.852 413.915 285.788C416.359 286.725 419.03 286.978 421.618 286.519C424.192 285.994 426.592 284.875 428.609 283.258C430.626 281.642 432.199 279.578 433.191 277.246C434.144 274.901 434.585 272.393 434.486 269.878C434.388 267.364 433.753 264.895 432.621 262.623C430.765 258.813 427.69 255.635 425.9 251.799C423.915 247.541 423.616 242.787 423.045 238.144C422.475 233.502 421.476 228.723 418.427 225.086C416.723 223.273 414.447 222.044 411.945 221.584C409.444 221.125 406.853 221.461 404.57 222.541Z" fill="#263238"/>
<path d="M333.716 383.542L336.155 388.445L330.33 394.577L330.758 409.2L349.519 393.621C350.369 392.928 350.957 391.985 351.192 390.939C351.426 389.894 351.294 388.803 350.816 387.837L345.095 376.454L333.716 383.542Z" fill="#8C5757"/>
<path d="M339.503 392.827C338.033 391.647 336.884 390.143 336.156 388.445L334.703 389.972C335.848 391.491 337.573 392.517 339.503 392.827Z" fill="#6E3636"/>
<path d="M333.249 384.721C340.709 384.1 345.782 376.714 345.782 376.714C339.113 363.655 333.301 349.132 321.663 352.595L333.249 384.721Z" fill="white"/>
<path opacity="0.4" d="M322.316 352.933C324.896 352.276 327.152 352.557 329.19 353.518C331.377 354.55 333.345 356.382 335.191 358.765C338.174 362.617 340.758 367.796 343.404 373.097C343.997 374.286 344.593 375.481 345.198 376.669C345.183 376.689 345.167 376.71 345.15 376.732C345.002 376.928 344.78 377.212 344.491 377.556C343.911 378.243 343.061 379.167 341.984 380.108C339.898 381.932 337.001 383.788 333.587 384.185L322.316 352.933Z" fill="white" stroke="black"/>
<path d="M304.172 538.311C303.472 540.434 301.046 541.638 298.723 541.824C296.398 541.827 294.083 541.544 291.834 540.98C286.709 540.087 281.779 540.98 276.667 540.856C274.99 540.87 273.318 540.695 271.684 540.335C270.038 539.969 268.548 539.128 267.416 537.927C266.773 537.195 266.347 536.312 266.183 535.369C266.081 536.081 266.139 536.806 266.351 537.495C266.564 538.184 266.927 538.822 267.416 539.367C268.545 540.569 270.036 541.406 271.684 541.762C273.318 542.122 274.99 542.297 276.667 542.284C281.779 542.395 286.709 541.526 291.834 542.408C294.098 542.984 296.432 543.276 298.775 543.277C299.941 543.258 301.076 542.916 302.043 542.292C303.011 541.669 303.768 540.791 304.224 539.764C304.447 539.035 304.509 538.27 304.406 537.517C304.352 537.788 304.274 538.053 304.172 538.311Z" fill="#263238"/>
<path d="M304.044 534.228C303.733 532.738 303.409 531.261 303.097 529.771C302.982 528.978 302.713 528.212 302.306 527.512C302.101 527.162 301.801 526.873 301.438 526.674C301.074 526.475 300.661 526.374 300.243 526.382C297.44 526.022 293.496 525.054 291.161 526.581C287.481 528.998 283.088 530.221 278.627 530.069C276.325 529.805 274.004 529.714 271.686 529.796C269.39 530.069 266.989 531.298 266.315 533.421C266.116 534.044 266.071 534.702 266.185 535.345C266.348 536.287 266.774 537.171 267.417 537.902C268.549 539.103 270.039 539.944 271.686 540.31C273.338 540.661 275.028 540.824 276.72 540.794C281.832 540.906 286.762 540.025 291.887 540.918C294.136 541.482 296.452 541.765 298.777 541.762C301.099 541.576 303.525 540.372 304.226 538.249C304.311 537.982 304.372 537.708 304.408 537.43C304.457 536.351 304.335 535.271 304.044 534.228Z" fill="white"/>
<path d="M290.485 521.926L290.277 527.723C290.259 528.317 290.481 528.895 290.896 529.337C291.312 529.778 291.89 530.049 292.509 530.094C294.545 530.229 296.588 530.208 298.62 530.032C299.443 529.959 300.212 529.605 300.786 529.036C301.36 528.466 301.701 527.718 301.747 526.928L301.98 522.646L290.485 521.926Z" fill="#FFA8A7"/>
<path d="M330.058 518.835C330.03 519.692 329.747 520.523 329.24 521.231C328.522 522.066 327.504 522.615 326.386 522.77C325.048 522.993 323.671 522.85 322.415 522.355C321.159 521.861 320.075 521.036 319.289 519.977C318.523 518.922 318.082 517.68 317.369 516.6C316.28 515.145 314.932 513.884 313.386 512.876C311.842 511.857 310.487 510.598 309.376 509.152C308.852 508.452 308.509 507.642 308.376 506.789C308.242 505.937 308.323 505.066 308.611 504.249C308.466 504.444 308.34 504.652 308.235 504.87C307.894 505.73 307.781 506.657 307.905 507.569C308.03 508.48 308.388 509.349 308.948 510.096C310.089 511.564 311.474 512.843 313.048 513.882C314.623 514.921 315.997 516.215 317.109 517.705C317.849 518.81 318.29 520.089 319.068 521.181C319.865 522.269 320.969 523.117 322.251 523.627C323.533 524.137 324.94 524.287 326.308 524.061C327.455 523.9 328.497 523.333 329.227 522.472C329.878 521.48 330.174 520.312 330.071 519.145C330.071 519.083 330.058 518.959 330.058 518.835Z" fill="#263238"/>
<path d="M328.214 511.561C326.372 508.47 322.57 506.223 319.638 504.038C318.037 502.699 316.062 501.836 313.955 501.556C312.906 501.434 311.844 501.615 310.903 502.075C309.962 502.535 309.186 503.253 308.675 504.138C308.675 504.138 308.675 504.249 308.61 504.299C308.322 505.116 308.241 505.986 308.374 506.839C308.507 507.692 308.851 508.502 309.375 509.202C310.486 510.648 311.841 511.907 313.384 512.926C314.931 513.934 316.279 515.195 317.367 516.65C318.081 517.73 318.522 518.972 319.288 520.027C320.074 521.086 321.158 521.911 322.414 522.405C323.67 522.9 325.047 523.043 326.385 522.82C327.503 522.664 328.521 522.116 329.239 521.281C329.746 520.573 330.029 519.742 330.056 518.885C330.056 518.612 330.056 518.326 330.056 518.053C330.025 515.775 329.391 513.541 328.214 511.561Z" fill="white"/>
<path d="M320.223 508.879V514.155C321.577 514.76 323.065 515.042 324.559 514.977C326.052 514.912 327.507 514.502 328.799 513.783L329.318 509.041L320.223 508.879Z" fill="#FFA8A7"/>
<path d="M330.758 413.272C332.406 418.014 331.9 442.878 330.94 464.477C332.51 475.003 332.458 497.782 330.395 514.242C328.24 515.165 325.913 515.664 323.553 515.709C321.192 515.754 318.846 515.344 316.655 514.503L311.751 464.514L310.622 438.831C310.622 438.831 308.585 461.622 306.249 476.245C307.093 486.982 305.237 507.502 303.59 529.386C303.59 529.386 294.754 534.352 285.983 528.915C282.895 480.502 287.891 431.519 288.916 415.643L330.758 413.272Z" fill="#E3D6FA"/>
<path opacity="0.3" d="M311.347 454.472L310.452 433.518C316.122 433.518 321.364 429.471 325.36 425.635C322.682 429.799 318.752 433.091 314.085 435.082L311.347 454.472Z" fill="#B4B4B4"/>
<path d="M288.085 375.895V416.934C313.333 427.05 329.694 417.902 331.926 413.148C330.758 396.452 334.884 376.913 334.521 368.608C334.157 360.304 333.132 350.957 319.678 352.831L305.406 354.172L298.14 355.86L288.085 375.895Z" fill="white"/>
<path opacity="0.3" d="M319.724 353.329L319.736 353.328L319.747 353.326C323.057 352.865 325.554 353.101 327.447 353.806C329.331 354.508 330.648 355.684 331.586 357.17C333.487 360.18 333.838 364.456 334.021 368.63C334.163 371.866 333.613 376.838 332.96 382.743C332.785 384.326 332.603 385.977 332.424 387.679C331.588 395.649 330.848 404.69 331.418 413.048C330.88 414.093 329.553 415.441 327.424 416.741C325.234 418.077 322.244 419.331 318.532 420.128C311.173 421.709 300.982 421.497 288.585 416.594V376.013L298.482 356.294L305.486 354.666L319.724 353.329Z" fill="white" stroke="black"/>
<path d="M274.683 373.673L269.869 378.465L258.309 363.817C259.87 359.925 260.823 355.834 261.137 351.677C261.146 351.5 261.117 351.323 261.053 351.157C260.989 350.991 260.89 350.839 260.763 350.71C260.635 350.582 260.482 350.479 260.313 350.408C260.143 350.337 259.96 350.3 259.775 350.299C259.514 350.291 259.256 350.36 259.036 350.495C258.816 350.63 258.644 350.826 258.542 351.056L256.402 355.351C256.102 355.251 255.83 355.087 255.605 354.872C255.38 354.657 255.209 354.396 255.104 354.11L254.689 352.968C254.404 352.207 254.26 351.405 254.261 350.597V347.766C254.257 347.372 254.147 346.985 253.941 346.644C253.735 346.302 253.439 346.017 253.084 345.817C252.729 345.617 252.325 345.509 251.913 345.502C251.501 345.496 251.094 345.592 250.732 345.78C249.389 346.473 248.202 347.414 247.242 348.548C246.313 349.629 245.808 350.985 245.815 352.384V356.207C245.815 357.19 245.995 358.164 246.346 359.087L248.435 364.586C248.623 365.088 248.862 365.57 249.149 366.026L264.057 389.922C264.591 390.781 265.318 391.516 266.184 392.075C267.05 392.634 268.034 393.003 269.067 393.156C270.099 393.309 271.154 393.242 272.156 392.959C273.158 392.677 274.083 392.187 274.864 391.523L284.362 383.455L274.683 373.673Z" fill="#8C5757"/>
<path d="M266.911 384.386C267.389 382.222 268.403 380.199 269.869 378.489L268.572 376.814C267.534 378.551 266.12 382.002 266.911 384.386Z" fill="#6E3636"/>
<path d="M266.911 384.386C267.389 382.222 268.403 380.199 269.869 378.489L268.572 376.814C267.534 378.551 266.12 382.002 266.911 384.386Z" fill="#6E3636"/>
<path d="M273.49 373.698L287.1 360.937C290.117 358.093 294.039 356.294 298.245 355.823H298.479C304.226 367.851 296.636 373.723 296.636 373.723L284.025 384.808C279.25 382.414 275.517 378.477 273.49 373.698Z" fill="white"/>
<path opacity="0.4" d="M287.442 361.302L287.443 361.301C290.347 358.563 294.117 356.817 298.167 356.335C300.828 362.079 300.354 366.311 299.248 369.099C298.682 370.526 297.944 371.59 297.35 372.295C297.053 372.648 296.793 372.91 296.609 373.082C296.517 373.168 296.445 373.232 296.397 373.273C296.373 373.293 296.355 373.308 296.343 373.317L296.331 373.326L296.33 373.327L296.33 373.328L296.33 373.328L296.33 373.328L296.318 373.337L296.306 373.347L283.95 384.208C279.527 381.908 276.053 378.245 274.089 373.822L287.442 361.302Z" fill="white" stroke="black"/>
<path d="M298.569 326.043C298.303 325.754 298.133 325.395 298.079 325.013C298.026 324.63 298.093 324.242 298.271 323.896C297.918 323.983 297.549 323.999 297.189 323.941C296.829 323.883 296.486 323.754 296.182 323.56C295.874 323.381 295.624 323.124 295.459 322.817C295.295 322.511 295.221 322.166 295.248 321.823C295.288 321.479 295.444 321.158 295.692 320.907C295.94 320.656 296.267 320.49 296.623 320.432C295.957 320.294 295.374 319.911 295.001 319.365C294.587 318.849 294.4 318.198 294.482 317.552C294.602 316.961 294.888 316.412 295.308 315.964C295.728 315.516 296.268 315.185 296.87 315.008C298.084 314.673 299.362 314.609 300.606 314.821C300.409 314.17 300.458 313.473 300.746 312.853C301.033 312.233 301.539 311.73 302.176 311.433C302.75 311.245 303.363 311.197 303.961 311.292C304.559 311.387 305.122 311.623 305.601 311.979C306.549 312.691 307.365 313.552 308.015 314.524C309.378 313.82 310.884 313.408 312.43 313.317C313.976 313.226 315.524 313.457 316.967 313.996C318.41 314.534 319.713 315.367 320.787 316.435C321.86 317.504 322.677 318.783 323.182 320.184C324.314 320.543 325.338 321.162 326.163 321.986C326.989 322.811 327.591 323.816 327.917 324.913C328.499 327.114 328.358 329.433 327.515 331.555C326.674 333.656 325.586 335.659 324.272 337.525L322.481 340.244C321.729 341.374 319.821 344.191 319.069 345.333C317.388 346.078 315.54 346.41 313.691 346.299C311.843 346.189 310.052 345.639 308.482 344.7C305.408 342.746 303.039 339.933 301.696 336.644C300.288 333.219 299.24 329.668 298.569 326.043Z" fill="#263238"/>
<path d="M314.462 346.5C312.309 346.498 310.199 345.927 308.364 344.849C305.257 342.874 302.86 340.03 301.501 336.706C300.104 333.271 299.07 329.712 298.413 326.08C298.158 325.816 297.984 325.49 297.911 325.137C297.837 324.784 297.868 324.419 297.998 324.082C297.323 324.185 296.632 324.053 296.052 323.709C295.718 323.511 295.447 323.229 295.269 322.895C295.091 322.56 295.011 322.185 295.04 321.81C295.072 321.523 295.177 321.249 295.347 321.011C295.517 320.772 295.745 320.578 296.013 320.445C295.539 320.213 295.13 319.877 294.819 319.464C294.384 318.91 294.188 318.216 294.274 317.527C294.397 316.906 294.696 316.329 295.137 315.859C295.578 315.388 296.146 315.042 296.778 314.859C297.931 314.535 299.144 314.454 300.333 314.623C300.197 313.961 300.293 313.274 300.608 312.67C300.922 312.065 301.437 311.578 302.072 311.284C302.671 311.091 303.311 311.042 303.934 311.139C304.558 311.237 305.148 311.478 305.653 311.842C306.588 312.536 307.395 313.375 308.04 314.325C309.411 313.649 310.915 313.256 312.455 313.171C313.994 313.085 315.536 313.309 316.979 313.828C318.418 314.394 319.719 315.236 320.802 316.304C321.884 317.372 322.725 318.642 323.272 320.035C324.416 320.404 325.449 321.034 326.281 321.871C327.113 322.708 327.719 323.727 328.047 324.839C328.628 327.074 328.483 329.425 327.631 331.579C326.786 333.693 325.693 335.708 324.375 337.587C323.791 338.494 323.181 339.4 322.584 340.306L320.833 342.913C320.184 343.893 319.535 344.862 319.159 345.395C317.706 346.112 316.097 346.491 314.462 346.5ZM298.595 323.56L298.426 323.92C298.26 324.233 298.197 324.585 298.243 324.933C298.289 325.28 298.443 325.607 298.685 325.869C299.338 329.5 300.368 333.06 301.76 336.495C303.104 339.746 305.448 342.529 308.481 344.477C310.018 345.403 311.773 345.946 313.585 346.059C315.398 346.172 317.211 345.85 318.861 345.122C319.224 344.551 319.873 343.608 320.508 342.64C321.144 341.671 321.806 340.629 322.247 340.058C322.844 339.152 323.441 338.258 324.038 337.339C325.347 335.481 326.431 333.486 327.268 331.393C328.088 329.305 328.228 327.029 327.67 324.864C327.348 323.792 326.758 322.811 325.951 322.007C325.144 321.202 324.145 320.598 323.039 320.246H322.961V320.171C322.441 318.799 321.627 317.547 320.57 316.495C319.513 315.443 318.236 314.615 316.824 314.064C315.402 313.551 313.882 313.334 312.365 313.426C310.849 313.518 309.37 313.917 308.027 314.598L307.897 314.66L307.819 314.548C307.176 313.598 306.369 312.758 305.432 312.066C304.974 311.732 304.439 311.51 303.871 311.42C303.304 311.329 302.722 311.372 302.176 311.544C301.581 311.827 301.109 312.299 300.839 312.879C300.569 313.459 300.519 314.11 300.696 314.722L300.787 314.97H300.515C299.301 314.766 298.054 314.83 296.869 315.157C296.299 315.323 295.786 315.633 295.384 316.055C294.982 316.476 294.706 316.994 294.585 317.552C294.531 318.156 294.702 318.759 295.068 319.255C295.433 319.75 295.97 320.105 296.584 320.258L297.881 320.445L296.584 320.581C296.265 320.633 295.973 320.782 295.751 321.005C295.529 321.229 295.389 321.516 295.351 321.822C295.325 322.137 295.392 322.453 295.543 322.733C295.695 323.014 295.924 323.249 296.207 323.411C296.498 323.592 296.826 323.71 297.168 323.757C297.511 323.804 297.861 323.779 298.192 323.684L298.595 323.56Z" fill="white"/>
<path d="M296.934 333.019L294.677 336.743L296.908 337.525C296.834 336.024 296.843 334.52 296.934 333.019Z" fill="#6E3636"/>
<path d="M298.569 326.043C297.739 328.316 297.19 330.674 296.934 333.069C296.85 334.582 296.85 336.099 296.934 337.612C297.031 339.746 297.291 341.87 297.712 343.968C297.852 345.12 298.299 346.218 299.01 347.158C299.944 348.124 301.242 348.696 302.617 348.747C303.981 348.791 305.346 348.665 306.678 348.375V354.581C311.569 355.686 315.617 356.17 319.445 353.34L319.042 345.42C316.689 345.731 314.292 345.368 312.153 344.377C308.78 342.64 307.832 339.847 308.261 338.295C308.557 338.667 308.96 338.949 309.421 339.105C309.882 339.262 310.38 339.286 310.855 339.176C311.321 339.058 311.756 338.849 312.133 338.563C312.51 338.277 312.822 337.919 313.048 337.513C313.501 336.701 313.779 335.81 313.866 334.894C314.108 333.788 313.934 332.636 313.373 331.641C312.942 331.087 312.345 330.671 311.661 330.45C310.977 330.228 310.239 330.211 309.545 330.4C308.858 330.604 308.22 330.936 307.668 331.377C307.115 331.818 306.66 332.359 306.327 332.97C306.103 333.368 305.912 333.783 305.757 334.211C305.697 334.366 305.584 334.497 305.437 334.583C305.29 334.669 305.116 334.704 304.945 334.684C304.774 334.664 304.615 334.589 304.494 334.472C304.372 334.354 304.296 334.201 304.277 334.037C304.102 332.263 304.439 330.477 305.25 328.873C304.688 329.136 304.072 329.276 303.447 329.283C303.116 329.282 302.79 329.213 302.49 329.08C302.19 328.947 301.923 328.754 301.708 328.513C301.506 328.265 301.39 327.963 301.379 327.648C301.367 327.334 301.46 327.024 301.644 326.763C301.112 326.927 300.543 326.946 300 326.819C299.457 326.692 298.962 326.423 298.569 326.043Z" fill="#8C5757"/>
<path d="M181.915 518.45C186.021 522.371 191.152 525.166 196.771 526.544C198.38 526.941 200.274 527.413 200.871 528.902C201.047 529.634 200.981 530.401 200.681 531.095C200.381 531.789 199.862 532.376 199.197 532.775C197.101 534.131 194.549 534.68 192.048 534.315C189.578 533.945 187.161 533.299 184.847 532.391C182.533 531.477 180.096 530.879 177.608 530.615C176.424 530.612 175.242 530.545 174.066 530.417C173.479 530.351 172.913 530.169 172.404 529.883C171.894 529.597 171.453 529.212 171.107 528.753C171.107 521.864 172.976 519.394 172.976 519.394L181.915 518.45Z" fill="#E3D6FA"/>
<path d="M182.083 515.409V520.077C178.801 523.503 173.598 521.219 173.001 519.394L172.833 515.409H182.083Z" fill="#FFA8A7"/>
<path d="M157.575 498.676C163.401 493.636 166.657 493.835 168.045 494.84C169.434 495.846 171.938 499.086 165.451 504.535C158.963 509.985 159.469 513.349 154.967 513.349C150.465 513.349 151.321 509.041 151.321 509.041C151.373 507.551 151.608 506.072 152.022 504.635L157.575 498.676Z" fill="#E3D6FA"/>
<path d="M159.676 501.903V505.205C156.939 507.452 152.333 506.174 152.086 504.634L152.294 501.37L159.676 501.903Z" fill="#FFA8A7"/>
<path d="M186.404 410.268L188.999 467.593L182.149 515.409C178.503 517.656 172.872 515.409 172.872 515.409C172.119 500.7 168.746 479.833 171.419 468.673L166.359 437.851L164.607 462.591C164.322 477.127 160.378 492.594 159.677 501.879C158.484 502.33 157.2 502.517 155.922 502.424C154.643 502.332 153.403 501.963 152.294 501.345C150.024 482.017 145.522 471.553 149.829 457.787C146.832 431.781 144.263 415.581 148.039 409.039L186.404 410.268Z" fill="#263238"/>
<path opacity="0.2" d="M165.32 431.979L166.293 437.851L165.761 445.659L163.841 433.419C162.139 433.208 160.507 432.64 159.06 431.756C157.614 430.872 156.389 429.693 155.473 428.305C158.389 430.287 161.771 431.55 165.32 431.979Z" fill="#B4B4B4"/>
<path d="M174.765 356.58L157.094 354.321C149.699 353.638 146.52 361.397 146.624 368.572C146.624 372.805 148.985 383.468 150.399 394.565C148.821 398.135 147.756 401.894 147.233 405.737C145.482 413.992 174.622 418.622 185.742 413.036C186.412 412.687 186.967 412.164 187.344 411.528C187.72 410.891 187.902 410.167 187.869 409.437C187.363 394.416 185.443 376.231 185.443 376.231L174.765 356.58Z" fill="#E3D6FA"/>
<path opacity="0.3" d="M174.765 356.58L157.094 354.321C149.699 353.638 146.52 361.397 146.624 368.572C146.624 372.805 148.985 383.468 150.399 394.565C148.821 398.135 147.756 401.894 147.233 405.737C145.482 413.992 174.622 418.622 185.742 413.036C186.412 412.687 186.967 412.164 187.344 411.528C187.72 410.891 187.902 410.167 187.869 409.437C187.363 394.416 185.443 376.231 185.443 376.231L174.765 356.58Z" fill="white"/>
<path d="M183.304 332.362C184.657 329.906 185.272 327.138 185.081 324.368C184.965 322.99 184.506 321.658 183.743 320.483C182.98 319.309 181.936 318.325 180.696 317.615C179.434 316.961 177.977 316.736 176.564 316.974C175.15 317.213 173.863 317.903 172.911 318.931C170.605 317.696 167.992 317.085 165.351 317.164C162.71 317.242 160.141 318.007 157.92 319.375C155.698 320.744 153.908 322.666 152.741 324.934C151.574 327.202 151.075 329.731 151.296 332.25C151.49 335.118 152.593 337.948 152.256 340.815C152.048 342.491 151.361 344.192 151.815 345.781C152.047 346.454 152.42 347.075 152.911 347.606C153.401 348.138 153.999 348.568 154.669 348.872C155.966 349.53 159.054 349.356 160.495 349.641C164.919 353.49 170.472 352.05 174.001 348.611C177.53 345.173 183.304 332.362 183.304 332.362Z" fill="#F28F8F"/>
<path opacity="0.5" d="M183.304 332.362C184.657 329.906 185.272 327.138 185.081 324.368C184.965 322.99 184.506 321.658 183.743 320.483C182.98 319.309 181.936 318.325 180.696 317.615C179.434 316.961 177.977 316.736 176.564 316.974C175.15 317.213 173.863 317.903 172.911 318.931C170.605 317.696 167.992 317.085 165.351 317.164C162.71 317.242 160.141 318.007 157.92 319.375C155.698 320.744 153.908 322.666 152.741 324.934C151.574 327.202 151.075 329.731 151.296 332.25C151.49 335.118 152.593 337.948 152.256 340.815C152.048 342.491 151.361 344.192 151.815 345.781C152.047 346.454 152.42 347.075 152.911 347.606C153.401 348.138 153.999 348.568 154.669 348.872C155.966 349.53 159.054 349.356 160.495 349.641C164.919 353.49 170.472 352.05 174.001 348.611C177.53 345.173 183.304 332.362 183.304 332.362Z" fill="#B4B4B4"/>
<path d="M183.304 332.362C184.657 329.906 185.272 327.138 185.081 324.368C184.965 322.99 184.506 321.658 183.743 320.483C182.98 319.309 181.936 318.325 180.696 317.615C179.434 316.961 177.977 316.736 176.564 316.974C175.15 317.213 173.863 317.903 172.911 318.931C170.605 317.696 167.992 317.085 165.351 317.164C162.71 317.242 160.141 318.007 157.92 319.375C155.698 320.744 153.908 322.666 152.741 324.934C151.574 327.202 151.075 329.731 151.296 332.25C151.49 335.118 152.593 337.948 152.256 340.815C152.048 342.491 151.361 344.192 151.815 345.781C152.047 346.454 152.42 347.075 152.911 347.606C153.401 348.138 153.999 348.568 154.669 348.872C155.966 349.53 159.054 349.356 160.495 349.641C164.919 353.49 170.472 352.05 174.001 348.611C177.53 345.173 183.304 332.362 183.304 332.362Z" fill="#8C5757"/>
<path d="M184.184 336.185L186.948 340.778L183.912 341.846L184.184 336.185Z" fill="#F28F8F"/>
<path d="M184.497 334.137C184.056 330.103 182.824 326.304 180.073 324.38C180.802 329.393 179.688 334.492 176.92 338.804C176.641 337.47 175.923 336.256 174.87 335.341C174.362 334.876 173.729 334.556 173.042 334.415C172.355 334.275 171.64 334.321 170.978 334.547C170.078 334.965 169.381 335.698 169.032 336.595C168.662 337.465 168.562 338.418 168.744 339.34C168.925 340.263 169.38 341.116 170.054 341.798C170.729 342.48 171.594 342.962 172.547 343.186C173.5 343.41 174.5 343.367 175.428 343.062C175.047 344.852 174.13 346.497 172.79 347.797C171.449 349.098 169.742 349.997 167.877 350.386C165.418 350.855 162.869 350.622 160.547 349.716L159.405 355.153C164.024 359.858 171.925 356.692 171.925 356.692L172.963 351.354C182.045 351.863 182.902 351.714 183.901 346.935C184.703 342.715 184.904 338.409 184.497 334.137Z" fill="#FFA8A7"/>
<path d="M164.36 328.29C163.086 324.783 160.516 321.843 157.134 320.023C155.202 321.465 153.662 323.331 152.645 325.464C151.629 327.597 151.166 329.934 151.295 332.275C151.49 335.142 152.593 337.973 152.255 340.84C152.048 342.516 151.36 344.216 151.814 345.805C152.047 346.479 152.419 347.1 152.91 347.631C153.401 348.162 153.999 348.593 154.669 348.896C155.966 349.554 159.054 349.38 160.494 349.666L161.078 350.125C162.62 347.318 163.826 344.353 164.672 341.287C165.91 337.02 165.801 332.498 164.36 328.29Z" fill="#6E3636"/>
<path d="M161.844 325.261C161.121 323.019 159.674 321.054 157.71 319.649C155.746 318.244 153.367 317.471 150.915 317.442C148.462 317.414 146.064 318.13 144.064 319.488C142.065 320.846 140.567 322.776 139.787 325.001C137.049 332.945 144.069 341.386 142.538 349.616C141.98 352.583 140.345 355.289 139.774 358.244C139.453 359.955 139.5 361.711 139.912 363.404C140.323 365.098 141.091 366.693 142.167 368.094C143.244 369.495 144.607 370.671 146.174 371.551C147.741 372.431 149.479 372.997 151.282 373.214C149.31 371.129 149.271 367.914 150.4 365.319C151.727 362.81 153.36 360.46 155.265 358.318C162.233 349.17 165.282 336.111 161.844 325.261Z" fill="#F28F8F"/>
<path opacity="0.5" d="M161.844 325.261C161.121 323.019 159.674 321.054 157.71 319.649C155.746 318.244 153.367 317.471 150.915 317.442C148.462 317.414 146.064 318.13 144.064 319.488C142.065 320.846 140.567 322.776 139.787 325.001C137.049 332.945 144.069 341.386 142.538 349.616C141.98 352.583 140.345 355.289 139.774 358.244C139.453 359.955 139.5 361.711 139.912 363.404C140.323 365.098 141.091 366.693 142.167 368.094C143.244 369.495 144.607 370.671 146.174 371.551C147.741 372.431 149.479 372.997 151.282 373.214C149.31 371.129 149.271 367.914 150.4 365.319C151.727 362.81 153.36 360.46 155.265 358.318C162.233 349.17 165.282 336.111 161.844 325.261Z" fill="#B4B4B4"/>
<path d="M161.844 325.261C161.121 323.019 159.674 321.054 157.71 319.649C155.746 318.244 153.367 317.471 150.915 317.442C148.462 317.414 146.064 318.13 144.064 319.488C142.065 320.846 140.567 322.776 139.787 325.001C137.049 332.945 144.069 341.386 142.538 349.616C141.98 352.583 140.345 355.289 139.774 358.244C139.453 359.955 139.5 361.711 139.912 363.404C140.323 365.098 141.091 366.693 142.167 368.094C143.244 369.495 144.607 370.671 146.174 371.551C147.741 372.431 149.479 372.997 151.282 373.214C149.31 371.129 149.271 367.914 150.4 365.319C151.727 362.81 153.36 360.46 155.265 358.318C162.233 349.17 165.282 336.111 161.844 325.261Z" fill="#8C5757"/>
<path d="M233.463 343.012L221.046 377.435L195.383 363.805L207.657 329.767L233.463 343.012Z" fill="white"/>
<path opacity="0.3" d="M233.463 343.012L221.046 377.435L195.383 363.805L207.657 329.767L233.463 343.012Z" fill="#B4B4B4"/>
<path opacity="0.2" d="M233.463 343.012L221.046 377.435L195.383 363.805L207.657 329.767L233.463 343.012Z" fill="white"/>
<path d="M199.197 362.415L209.421 334.063L229.635 344.44L219.307 373.09L199.197 362.415Z" fill="white"/>
<path d="M212.976 336.173L224.211 341.808L224.705 340.381L222.525 338.544L216.362 335.577L213.559 335.08L212.976 336.173Z" fill="#E3D6FA"/>
<path d="M216.362 335.577L216.855 334.485L222.862 337.576L222.525 338.544L216.362 335.577Z" fill="#E3D6FA"/>
<path d="M213.365 332.697L226.949 339.674L227.533 338.32L213.832 331.431L213.365 332.697Z" fill="#E3D6FA"/>
<path d="M217.037 333.045C218.217 329.47 225.327 332.834 223.939 336.52L217.037 333.045Z" fill="#E3D6FA"/>
<path d="M193.541 370.794L203.012 382.561L219.477 367.07C220.393 366.201 220.982 365.066 221.15 363.842C221.929 357.958 223.642 353.762 225.821 354.507C227.197 354.967 225.432 360.714 225.432 360.714L227.482 359.597L229.882 352.956H230.959C231.529 352.956 232.085 353.126 232.55 353.441C233.015 353.757 233.366 354.203 233.554 354.718L234.579 357.549C235.186 359.225 235.217 361.043 234.669 362.738C234.12 364.432 233.021 365.915 231.53 366.97L227.91 369.49C227.375 369.883 226.91 370.356 226.535 370.893C220.828 379.277 214.369 387.168 207.229 394.478C206.428 395.258 205.368 395.746 204.232 395.86C203.095 395.973 201.953 395.704 201.001 395.099C190.92 388.718 182.59 377.944 182.59 377.944L193.541 370.794Z" fill="#FFA8A7"/>
<path d="M174.767 356.58L176.376 356.767C179.01 357.075 181.552 357.883 183.856 359.143C186.159 360.402 188.177 362.089 189.792 364.103L201.858 379.135C201.6 381.767 200.478 384.253 198.653 386.237C196.828 388.222 194.394 389.603 191.699 390.183L178.439 376.777C171.524 369.552 174.767 356.58 174.767 356.58Z" fill="#E3D6FA"/>
<path opacity="0.4" d="M174.767 356.58L176.376 356.767C179.01 357.075 181.552 357.883 183.856 359.143C186.159 360.402 188.177 362.089 189.792 364.103L201.858 379.135C201.6 381.767 200.478 384.253 198.653 386.237C196.828 388.222 194.394 389.603 191.699 390.183L178.439 376.777C171.524 369.552 174.767 356.58 174.767 356.58Z" fill="white"/>
</svg>
