<svg width="49" height="43" viewBox="0 0 49 43" fill="none" xmlns="http://www.w3.org/2000/svg">
<path fill-rule="evenodd" clip-rule="evenodd" d="M4.30532 0.141937C2.23379 0.585835 0.469197 2.37731 0.100716 4.411C0.030657 4.79763 -0.00111849 10.1929 3.00199e-05 21.5352C0.00146566 35.3744 0.0237659 38.1983 0.135937 38.7242C0.473217 40.3059 1.61503 41.7396 3.07804 42.4185C3.5162 42.6217 4.13018 42.8345 4.44257 42.8912C5.24146 43.0363 43.7585 43.0363 44.5574 42.8912C46.628 42.5151 48.4268 40.7747 48.8641 38.7242C48.9762 38.1983 48.9985 35.3744 49 21.5352C49.0011 10.1929 48.9693 4.79763 48.8993 4.411C48.6221 2.88114 47.4311 1.31076 46.0275 0.624174C44.6604 -0.0446216 46.0779 -0.00380901 24.4521 0.00275527C8.08584 0.00770226 4.82685 0.0302491 4.30532 0.141937ZM44.22 1.70671C45.4623 1.94083 46.4735 2.72227 47.0211 3.87111L47.3267 4.51242L47.3562 7.91347L47.3855 11.3145H24.5H1.61446L1.64384 7.91347L1.67332 4.51242L1.97892 3.87111C2.50934 2.75814 3.54271 1.93998 4.70501 1.71261C5.31372 1.5935 43.5893 1.58779 44.22 1.70671ZM5.46791 3.99783C3.85654 4.30702 2.96587 6.07205 3.67202 7.55672C4.4264 9.1428 6.54483 9.48662 7.77919 8.22333C8.17974 7.8133 8.51654 7.00922 8.51654 6.46267C8.51654 5.84477 8.17696 5.09959 7.69372 4.65673C7.02883 4.04759 6.31292 3.83563 5.46791 3.99783ZM12.8235 4.18696C11.8798 4.61097 11.2931 5.50296 11.2952 6.51024C11.2998 8.75484 14.0071 9.86164 15.6058 8.27251C17.2049 6.683 16.0878 3.99336 13.8284 3.99336C13.4558 3.99336 13.1029 4.06129 12.8235 4.18696ZM20.7725 4.15357C20.5303 4.23852 20.1557 4.49301 19.9032 4.74397C18.3048 6.33262 19.4188 9.02369 21.6766 9.02826C23.0886 9.03111 24.2087 7.91728 24.2087 6.51024C24.2087 4.75453 22.4659 3.55926 20.7725 4.15357ZM6.62628 5.90252C6.90814 6.19991 6.95542 6.50016 6.78046 6.88174C6.63786 7.19283 6.10112 7.44503 5.74642 7.36759C4.93394 7.19026 4.79756 6.05122 5.54438 5.68067C5.95851 5.47518 6.28469 5.54215 6.62628 5.90252ZM14.4899 5.89919C14.8365 6.30865 14.8245 6.77148 14.4579 7.13594C14.2508 7.34181 14.0873 7.41402 13.8284 7.41402C13.0323 7.41402 12.6106 6.41482 13.1715 5.85724C13.5487 5.48231 14.1532 5.50153 14.4899 5.89919ZM22.3061 5.88454C22.6845 6.2607 22.6961 6.80278 22.3335 7.16324C21.7726 7.72073 20.7673 7.30157 20.7673 6.51024C20.7673 6.2529 20.84 6.09041 21.0471 5.88454C21.4332 5.50077 21.92 5.50077 22.3061 5.88454ZM47.3745 25.4696C47.3745 39.3098 47.4045 38.6105 46.7688 39.5978C46.3511 40.2463 45.8514 40.6719 45.082 41.0343L44.4554 41.3295H24.5H4.5446L3.91799 41.0343C3.14858 40.6719 2.64888 40.2463 2.23121 39.5978C1.59551 38.6105 1.62546 39.3098 1.62546 25.4696V12.9318H24.5H47.3745V25.4696ZM25.41 17.8075C25.1768 18.0078 25.0536 18.5275 23.4833 25.9373C21.9613 33.1185 21.8176 33.8777 21.9335 34.118C22.2013 34.6735 22.9075 34.736 23.2675 34.236C23.3759 34.0854 24.0065 31.302 25.0678 26.2899C25.9663 22.0472 26.7013 18.5066 26.7013 18.422C26.7013 18.1444 26.4931 17.8066 26.2556 17.699C25.9075 17.5414 25.6868 17.5697 25.41 17.8075ZM18.8506 20.9916C18.3223 21.3568 13.4871 25.5138 13.398 25.6793C13.2198 26.0102 13.2921 26.3296 13.6179 26.6518C14.1391 27.167 18.759 31.045 19.0118 31.1796C19.3006 31.3331 19.8562 31.1823 20.0024 30.9109C20.1782 30.5843 20.1105 30.168 19.8342 29.8765C19.6895 29.7237 18.645 28.8186 17.5132 27.8651C16.3815 26.9115 15.4432 26.1003 15.4283 26.0623C15.4133 26.0243 16.3734 25.1697 17.5618 24.1633C18.7504 23.1569 19.807 22.2435 19.9101 22.1336C20.1766 21.8492 20.1546 21.3519 19.8624 21.0615C19.5851 20.7858 19.1878 20.7583 18.8506 20.9916ZM29.1376 21.0615C28.8454 21.3519 28.8234 21.8492 29.0899 22.1336C29.193 22.2435 30.2496 23.1569 31.4382 24.1633C32.6266 25.1697 33.5867 26.0243 33.5717 26.0623C33.5568 26.1003 32.6185 26.9115 31.4868 27.8651C30.355 28.8186 29.3105 29.7237 29.1658 29.8765C28.8895 30.168 28.8218 30.5843 28.9976 30.9109C29.1438 31.1823 29.6994 31.3331 29.9882 31.1796C30.241 31.045 34.8609 27.167 35.3821 26.6518C35.708 26.3296 35.7802 26.0102 35.602 25.6793C35.5129 25.5138 30.6777 21.3568 30.1494 20.9916C29.8122 20.7583 29.4149 20.7858 29.1376 21.0615Z" fill="#C746E8"/>
</svg>
