<svg width="80" height="80" viewBox="0 0 80 80" fill="none" xmlns="http://www.w3.org/2000/svg">
<path fill-rule="evenodd" clip-rule="evenodd" d="M4.29417 0.206149C2.6829 0.640208 1.17542 1.94504 0.416438 3.56256L0 4.45023V12.1929V19.9356L0.422074 20.8355C0.977534 22.0199 2.24986 23.3452 3.34888 23.8844L4.22701 24.3153L14.09 24.3935C19.9745 24.4401 24.0477 24.5322 24.1879 24.6217C24.317 24.7043 26.0783 26.0015 28.1018 27.5045C32.5318 30.7949 32.6059 30.8404 33.5466 30.8518C34.4418 30.8626 35.1548 30.5155 35.6432 29.8314L36.0078 29.3207V17.0419C36.0078 5.73927 35.9861 4.70097 35.7332 3.98098C35.3562 2.90686 34.4402 1.74765 33.419 1.05206C31.8273 -0.0322321 32.1738 -0.00892583 17.8536 0.0028055C8.19648 0.0107828 4.83225 0.0613057 4.29417 0.206149ZM48.454 0.205054C46.8792 0.643023 45.7008 1.48815 44.8775 2.76999C43.8943 4.30085 43.9018 4.18307 43.9493 17.3733C43.9894 28.532 44.0108 29.3546 44.2738 29.8359C44.8532 30.8962 46.3479 31.287 47.5208 30.6848C47.8187 30.5318 49.7534 29.1376 51.82 27.5868C53.8865 26.0359 55.683 24.7005 55.8121 24.6194C55.9494 24.533 60.1431 24.4392 65.91 24.3935L75.773 24.3153L76.6511 23.8844C77.7501 23.3452 79.0225 22.0199 79.5779 20.8355L80 19.9356V12.1896V4.44366L79.4926 3.41381C78.8814 2.17357 77.7617 1.07505 76.5116 0.489734L75.6164 0.0705344L62.3875 0.0398765C52.1897 0.016101 48.9971 0.0539541 48.454 0.205054ZM30.6619 5.44161C30.8993 5.70361 30.9188 6.50009 30.8819 14.4255L30.8415 23.1218L28.9628 21.7051C27.9296 20.926 26.6967 20.1036 26.2231 19.8774L25.362 19.4663L15.4838 19.3881C7.4281 19.3243 5.55789 19.2703 5.34685 19.0953C5.11358 18.9017 5.08806 18.2222 5.08806 12.2051C5.08806 7.22148 5.13566 5.48196 5.27593 5.34181C5.41887 5.199 8.44337 5.15411 17.9327 5.15411C29.8367 5.15411 30.4133 5.16709 30.6619 5.44161ZM74.7241 5.34181C74.8643 5.48196 74.9119 7.22148 74.9119 12.2051C74.9119 18.2222 74.8864 18.9017 74.6531 19.0953C74.4421 19.2703 72.5719 19.3243 64.5162 19.3881L54.638 19.4663L53.7769 19.8774C53.3033 20.1036 52.0704 20.926 51.0372 21.7051L49.1585 23.1218L49.1181 14.4255C49.0812 6.50009 49.1007 5.70361 49.3381 5.44161C49.5867 5.16709 50.1633 5.15411 62.0673 5.15411C71.5566 5.15411 74.5811 5.199 74.7241 5.34181ZM9.47162 11.9569V14.5392H18.0078H26.544L26.501 11.9974L26.4579 9.4556L17.9648 9.41509L9.47162 9.37473V11.9569ZM53.5682 9.48172C53.5108 9.53897 53.4638 10.7004 53.4638 12.0626V14.5392H61.9961H70.5284V11.9583V9.37739H62.1005C57.465 9.37739 53.6255 9.42432 53.5682 9.48172ZM37.4951 32.3045C35.4328 32.8457 33.2438 34.3043 31.9994 35.9668C31.1161 37.1469 30.6398 38.1351 30.2834 39.5278C28.8861 44.9859 32.4094 50.5207 38.018 51.6782C39.5134 51.9868 40.4787 51.9871 42.0027 51.6792C46.6099 50.7485 50.0196 46.6176 50.0196 41.9664C50.0196 37.3976 46.9281 33.4581 42.4329 32.2987C41.2614 31.9965 38.6571 31.9996 37.4951 32.3045ZM41.7988 37.4808C42.8977 37.8442 44.2369 39.2005 44.6126 40.3307C44.9808 41.4382 44.8856 43.1265 44.4019 44.0694C43.9399 44.9699 43.0511 45.8318 42.1069 46.2948C41.0098 46.8327 39.0056 46.8405 37.9278 46.3111C36.2593 45.4913 35.2986 44.083 35.1811 42.2844C35.0884 40.8679 35.4129 39.841 36.2557 38.8845C37.7173 37.2255 39.5911 36.7511 41.7988 37.4808ZM14.3249 37.3194C11.9338 37.6682 10.0825 38.5177 8.53558 39.9757C7.15804 41.2739 6.3975 42.4213 5.83703 44.0458C5.03953 46.357 5.11781 48.883 6.05652 51.14L6.39671 51.9577L5.70333 52.5162C3.09323 54.6176 1.12532 57.7367 0.2782 61.1146C0.0698239 61.9458 0.0125245 62.9283 0.00688846 65.766L0 69.3636L0.438356 70.2556C0.987397 71.3725 2.16501 72.4499 3.30114 72.8745C4.07436 73.1636 4.51319 73.1958 7.67718 73.1958H11.1937V70.6149V68.034H8.1409H5.08806V65.6346C5.08806 62.8208 5.36141 61.4772 6.29526 59.7018C6.9254 58.5038 8.28055 56.9409 9.30301 56.2328L9.92845 55.7998L11.2265 56.3546C13.6786 57.4028 16.1324 57.502 18.598 56.6529C20.2341 56.0895 21.3804 55.3317 22.682 53.9532C23.8372 52.7297 24.8247 50.8778 25.1286 49.3653C25.38 48.1139 25.3437 45.9399 25.0525 44.806C24.4546 42.4791 22.8556 40.2768 20.7817 38.9241C18.8968 37.6946 16.2544 37.038 14.3249 37.3194ZM63.0458 37.3913C59.1076 37.9876 55.7921 41.0279 54.7961 44.9562C54.4936 46.149 54.4971 48.2738 54.8034 49.5767C55.4467 52.3119 57.4912 54.8671 60.041 56.1231C62.9196 57.5409 65.9717 57.5972 68.821 56.285L69.8989 55.7887L70.5422 56.234C71.6416 56.9953 73.0073 58.6266 73.6703 59.9707C74.5126 61.6783 74.7494 62.9376 74.7527 65.7269L74.7554 68.034H71.7025H68.6497V70.6149V73.1958H72.1663C75.3303 73.1958 75.7691 73.1636 76.5423 72.8745C77.6784 72.4499 78.856 71.3725 79.4051 70.2556L79.8434 69.3636L79.8386 65.8442C79.8344 62.7376 79.7929 62.1627 79.486 60.9427C78.6638 57.6736 76.8493 54.7952 74.2278 52.6014L73.4654 51.9632L73.8622 50.9656C75.0131 48.0726 74.7825 44.8717 73.233 42.2361C71.2033 38.783 67.0137 36.7905 63.0458 37.3913ZM17.5411 42.9989C19.2387 43.8339 20.1802 45.371 20.1846 47.3143C20.1918 50.5725 16.9738 52.8345 13.7545 51.8342C12.4545 51.4301 11.0607 50.0374 10.6563 48.7382C9.36188 44.5803 13.5901 41.0556 17.5411 42.9989ZM66.7245 42.9382C67.771 43.4491 68.8636 44.6612 69.2059 45.6912C69.5598 46.7554 69.456 48.4621 68.9811 49.3876C67.5347 52.2072 63.7326 52.9576 61.3249 50.8985C60.947 50.5753 60.4725 49.9276 60.1824 49.339C59.719 48.3985 59.6911 48.2472 59.757 47.0384C59.8369 45.5721 60.0587 45.0391 61.0239 43.9928C62.4908 42.4028 64.7659 41.9819 66.7245 42.9382ZM31.1546 54.3982C29.1978 54.9952 27.3386 55.6625 26.8493 55.9433C25.0574 56.9719 23.5261 58.8935 22.8908 60.9105C22.555 61.9771 22.544 62.227 22.544 68.8161C22.544 75.557 22.5473 75.6286 22.9047 76.5122C23.4103 77.7623 24.4521 78.8627 25.7212 79.4868L26.7645 80H40H53.2355L54.2788 79.4868C55.5479 78.8627 56.5897 77.7623 57.0953 76.5122C57.4527 75.6286 57.456 75.557 57.456 68.8161C57.456 62.227 57.445 61.9771 57.1092 60.9105C56.4551 58.8339 54.8233 56.8201 53.0134 55.8563C52.01 55.322 45.5576 53.3308 44.8294 53.3308C44.1619 53.3308 43.4049 53.6927 42.9672 54.2213C42.756 54.4764 42.0196 55.6819 41.3307 56.9004C40.6419 58.119 40.0431 59.1162 40 59.1164C39.9569 59.1167 39.3667 58.1265 38.6885 56.916C37.2825 54.4068 36.857 53.8445 36.1376 53.5441C35.3135 53.2002 34.7832 53.291 31.1546 54.3982ZM36.0052 62.5802C37.3739 65.0097 38.1919 66.2975 38.5101 66.5243C39.1803 67.0018 40.8189 67.0026 41.4873 66.5257C41.8005 66.302 42.629 65.0005 43.9764 62.6153C45.087 60.6489 46.0174 59.0139 46.0437 58.9818C46.07 58.9499 47.0987 59.2288 48.3295 59.6019C50.4011 60.2294 50.6207 60.333 51.2838 60.9938C51.7913 61.4997 52.0537 61.9205 52.184 62.4376C52.3773 63.2043 52.4571 74.1894 52.2729 74.669C52.1874 74.8917 50.9602 74.9164 40 74.9164C29.0398 74.9164 27.8126 74.8917 27.7271 74.669C27.5429 74.1894 27.6227 63.2043 27.816 62.4376C27.9466 61.9194 28.2076 61.5016 28.7162 60.9965C29.3689 60.3485 29.6202 60.2274 31.546 59.633C32.7084 59.2743 33.7299 58.979 33.816 58.9768C33.9022 58.9746 34.8872 60.5961 36.0052 62.5802ZM14.638 70.6149V73.1958H16.7515H18.865V70.6149V68.034H16.7515H14.638V70.6149ZM60.9306 68.134C60.8708 68.1937 60.8219 69.357 60.8219 70.7193V73.1958H63.0176H65.2133L65.1702 70.654L65.1272 68.1123L63.0832 68.0688C61.9591 68.045 60.9904 68.0742 60.9306 68.134Z" fill="#7B3FE4"/>
</svg>
