<svg width="36" height="43" viewBox="0 0 36 43" fill="none" xmlns="http://www.w3.org/2000/svg">
<path fill-rule="evenodd" clip-rule="evenodd" d="M4.68785 0.101453C4.34346 0.297724 4.31304 0.42328 4.31025 1.65869L4.30754 2.85546H2.44267C0.554395 2.85546 0.335844 2.8862 0.105714 3.18409C0.0254268 3.28798 0.00218572 7.63887 7.28854e-05 22.8998C-0.00144835 33.6702 0.0210319 42.5435 0.0498509 42.6182C0.203327 43.0156 -0.446748 42.9999 15.8449 42.9999C27.288 42.9999 31.1555 42.9755 31.294 42.9022C31.6717 42.7023 31.6843 42.6295 31.6871 40.6274L31.6898 38.7167H33.5014C35.331 38.7167 35.6767 38.6705 35.8848 38.3985C35.9739 38.282 35.9951 35.6256 35.9973 24.3562L36 10.4575L30.7383 5.22877L25.4766 0L15.1667 0.00251953C7.57136 0.00445116 4.81234 0.0304863 4.68785 0.101453ZM24.5062 6.21013V10.9925L24.7101 11.2282L24.9141 11.4638L29.7387 11.4875L34.5633 11.5111V24.4001V37.289H20.1538H5.74427V19.3584V1.42773H15.1252H24.5062V6.21013ZM29.746 6.25682L33.5062 9.99412H29.7246H25.9429V6.25682C25.9429 4.20131 25.9526 2.51953 25.9644 2.51953C25.9762 2.51953 27.678 4.20131 29.746 6.25682ZM4.30754 21.2433V38.2034L4.51147 38.4391L4.71549 38.6747L17.4843 38.6966L30.2531 38.7183V40.1453V41.5722H15.8436H1.43409V22.9277V4.2832H2.87082H4.30754V21.2433ZM8.94842 6.57445C8.64096 6.80902 8.61772 7.00521 8.61772 9.36516V11.6867L8.86475 11.9322L9.11178 12.1777H11.5146H13.9174L14.141 11.9718L14.3646 11.7658V9.32242V6.87906L14.1571 6.67297L13.9497 6.46678L11.5161 6.46947C9.73642 6.4714 9.04654 6.49962 8.94842 6.57445ZM12.9279 9.32225V10.75H11.4912H10.0544V9.32225V7.89452H11.4912H12.9279V9.32225ZM9.04028 13.7103C8.59279 13.9433 8.51681 14.519 8.88824 14.8629C9.05152 15.0141 9.18438 15.0332 10.0742 15.0332C11.0254 15.0332 11.0868 15.0227 11.2837 14.827C11.5683 14.5442 11.5638 14.1225 11.2733 13.851C11.0749 13.6657 10.9746 13.6453 10.1535 13.6238C9.53257 13.6076 9.18573 13.6346 9.04028 13.7103ZM13.3679 13.6928C13.1072 13.7976 12.9036 14.287 13.0076 14.5587C13.2001 15.0618 12.6361 15.0332 22.3584 15.0332H31.2442L31.4671 14.8118C31.748 14.5325 31.7549 14.1938 31.4859 13.8831L31.2819 13.6474L22.4219 13.6311C17.1275 13.6214 13.4837 13.6463 13.3679 13.6928ZM9.06074 18.0094C8.59515 18.2184 8.50261 18.7821 8.87337 19.1505C9.0211 19.2973 9.15733 19.3164 10.0582 19.3164C11.0264 19.3164 11.0864 19.3063 11.2837 19.1102C11.5515 18.8441 11.5537 18.4742 11.2893 18.1687C11.0961 17.9455 11.0502 17.9345 10.2118 17.9106C9.57669 17.8926 9.26044 17.9197 9.06074 18.0094ZM13.3829 18.0083C13.2167 18.0807 13.0856 18.22 13.0274 18.3861C12.9222 18.6857 12.9643 18.8575 13.2087 19.1274L13.38 19.3164H22.3275H31.275L31.4823 19.1102C31.751 18.8433 31.7524 18.4742 31.4859 18.1663L31.282 17.9306L22.4641 17.9121C15.1654 17.8968 13.6009 17.9133 13.3829 18.0083ZM8.87337 22.4217C8.632 22.6615 8.5834 22.954 8.73612 23.2476C8.92222 23.6053 9.30954 23.7103 10.2863 23.6678C11.0389 23.6351 11.1038 23.6179 11.291 23.4015C11.5537 23.098 11.5508 22.7274 11.2837 22.462C11.0864 22.2659 11.0264 22.2558 10.0582 22.2558C9.15733 22.2558 9.0211 22.2749 8.87337 22.4217ZM13.2481 22.3703C12.7922 22.7145 12.9358 23.4377 13.4918 23.5984C13.7227 23.6651 16.3169 23.6846 22.5486 23.6668L31.282 23.6416L31.4859 23.4059C31.7524 23.098 31.751 22.7289 31.4823 22.462L31.275 22.2558L22.3338 22.2585C15.1323 22.2606 13.3646 22.2824 13.2481 22.3703ZM8.88824 26.7093C8.64138 26.9379 8.57842 27.2326 8.71575 27.5172C8.9005 27.9 9.14922 27.9746 10.1535 27.9484C10.9746 27.9269 11.0749 27.9065 11.2733 27.7212C11.5638 27.4497 11.5683 27.028 11.2837 26.7452C11.0868 26.5495 11.0254 26.539 10.0742 26.539C9.18438 26.539 9.05152 26.5581 8.88824 26.7093ZM13.2087 26.728C13.1146 26.8319 13.0132 26.9852 12.9836 27.0686C12.8978 27.3094 13.1333 27.7586 13.4034 27.8696C13.5868 27.945 15.8043 27.9639 22.4641 27.9471L31.2819 27.9248L31.4859 27.6891C31.7476 27.3867 31.7464 27.0441 31.4826 26.7612L31.2753 26.539H22.3276H13.38L13.2087 26.728ZM8.86475 31.0677C8.71584 31.2157 8.61772 31.4017 8.61772 31.5361C8.61772 31.6704 8.71584 31.8565 8.86475 32.0045C9.10688 32.245 9.12978 32.2499 10.0113 32.2499C10.9084 32.2499 11.179 32.1851 11.3828 31.9213C11.5632 31.6878 11.5105 31.2843 11.2684 31.0436C11.0536 30.8302 11.0106 30.8222 10.0787 30.8222C9.12268 30.8222 9.10899 30.825 8.86475 31.0677ZM13.2115 31.0212C13.0341 31.1729 12.9786 31.2956 12.9786 31.5361C12.9786 31.7765 13.0341 31.8992 13.2115 32.0509L13.4444 32.2499H22.2769C31.3855 32.2499 31.3259 32.252 31.5815 31.9213C31.714 31.7498 31.714 31.3223 31.5815 31.1508C31.3259 30.8201 31.3855 30.8222 22.2769 30.8222H13.4444L13.2115 31.0212Z" fill="#23C9FE"/>
</svg>
