<svg width="52" height="52" viewBox="0 0 52 52" fill="none" xmlns="http://www.w3.org/2000/svg">
<path fill-rule="evenodd" clip-rule="evenodd" d="M0.788227 0.209422C0.556156 0.332008 0.329062 0.565602 0.204242 0.810266C0.0117812 1.18747 0 1.40491 0 4.57031C0 7.73703 0.0117813 7.95295 0.204445 8.33077C0.33607 8.58884 0.551789 8.80455 0.809859 8.93618C1.18767 9.12884 1.40359 9.14062 4.57031 9.14062C7.73703 9.14062 7.95295 9.12884 8.33077 8.93618C8.93709 8.62682 9.14062 8.14318 9.14062 7.01188V6.09375L12.2637 6.09903C15.233 6.10411 15.3743 6.11284 15.1358 6.27677C10.9174 9.17475 8.03309 13.2818 6.80702 18.1366C6.64615 18.7735 6.46181 19.7407 6.39732 20.286C6.33283 20.8313 6.26245 21.3687 6.24091 21.4805C6.21593 21.6101 5.96131 21.8073 5.53739 22.0252C3.91158 22.8614 2.92541 24.8354 3.22634 26.6513C3.55936 28.661 5.05121 30.1583 7.05067 30.4897C8.93537 30.802 10.9802 29.7241 11.7913 27.9908C12.4234 26.6401 12.4158 25.2259 11.7698 23.946C11.3846 23.183 10.4818 22.2631 9.81226 21.9513L9.31592 21.7203L9.38245 21.0037C9.79966 16.5149 12.6061 11.8429 16.5547 9.06384C17.5641 8.35331 19.5294 7.36917 20.7457 6.96495C21.347 6.76508 21.8534 6.60156 21.8712 6.60156C21.8889 6.60156 22.0502 6.82835 22.2299 7.10552C23.0131 8.31441 24.5412 9.13819 26 9.13819C27.4588 9.13819 28.9869 8.31441 29.7701 7.10552C29.9498 6.82835 30.1112 6.60156 30.1288 6.60156C30.1466 6.60156 30.653 6.76508 31.2543 6.96495C32.4706 7.36917 34.4359 8.35331 35.4453 9.06384C39.3939 11.8429 42.2003 16.5149 42.6176 21.0037L42.6841 21.7203L42.1877 21.9513C41.5182 22.2631 40.6154 23.183 40.2302 23.946C38.8391 26.7017 40.5337 29.9793 43.6132 30.4897C46.5753 30.9805 49.2776 28.2434 48.7676 25.2689C48.53 23.8835 47.6396 22.6306 46.4626 22.0252C46.0387 21.8073 45.7841 21.6101 45.7591 21.4805C45.7376 21.3687 45.6672 20.8313 45.6027 20.286C45.3056 17.7736 44.2667 14.8468 42.8455 12.5183C41.451 10.2337 39.2501 7.92716 37.0716 6.4672L36.5145 6.09375H39.6869H42.8594V7.01188C42.8594 8.14318 43.0629 8.62682 43.6692 8.93618C44.047 9.12884 44.263 9.14062 47.4297 9.14062C50.5964 9.14062 50.8123 9.12884 51.1901 8.93618C51.4482 8.80455 51.6639 8.58884 51.7956 8.33077C51.9882 7.95295 52 7.73703 52 4.57031C52 1.40359 51.9882 1.18767 51.7956 0.809859C51.6639 0.551789 51.4482 0.33607 51.1901 0.204445C50.8123 0.0117813 50.5964 0 47.4297 0C44.263 0 44.047 0.0117813 43.6692 0.204445C43.0629 0.513805 42.8594 0.997445 42.8594 2.12875V3.04688L36.5879 3.04647L30.3164 3.04616L29.9747 2.3853C29.1254 0.742828 27.1338 -0.235727 25.2856 0.0811484C23.8867 0.321039 22.6354 1.20534 22.0252 2.3853L21.6836 3.04616L15.4121 3.04647L9.14062 3.04688V2.12875C9.14062 0.997445 8.93709 0.513805 8.33077 0.204445C7.95224 0.011375 7.74201 0.000203125 4.54898 0.00446875C1.38359 0.00873438 1.1437 0.0217344 0.788227 0.209422ZM6.09375 4.57031V6.09375H4.57031H3.04688V4.57031V3.04688H4.57031H6.09375V4.57031ZM26.7136 3.25132C27.1642 3.48126 27.5234 4.06636 27.5234 4.57031C27.5234 5.3431 26.7728 6.09375 26 6.09375C25.2272 6.09375 24.4766 5.3431 24.4766 4.57031C24.4766 4.0819 24.836 3.48268 25.2648 3.2563C25.7548 2.99762 26.2132 2.99609 26.7136 3.25132ZM48.9531 4.57031V6.09375H47.4297H45.9062V4.57031V3.04688H47.4297H48.9531V4.57031ZM25.299 12.4733C25.0127 12.6153 23.899 14.2259 18.788 21.8894C15.397 26.974 12.5475 31.2792 12.4558 31.4565C12.1187 32.1084 12.3003 32.6898 13.1199 33.5831C15.0771 35.7162 16.4998 38.1019 17.3652 40.7012C17.744 41.8389 18.1797 43.7017 18.1797 44.1832C18.1797 44.3212 17.9265 44.6772 17.5288 45.0989C16.4212 46.2729 15.6909 47.7301 15.4441 49.2578C15.2113 50.6992 15.4107 51.4205 16.1458 51.7956C16.5389 51.9961 16.7259 52 26 52C35.2741 52 35.4611 51.9961 35.8542 51.7956C36.5893 51.4205 36.7887 50.6992 36.5559 49.2578C36.3091 47.7301 35.5788 46.2729 34.4712 45.0989C34.0735 44.6772 33.8203 44.3212 33.8203 44.1832C33.8203 43.7017 34.256 41.8389 34.6348 40.7012C35.5002 38.1019 36.9229 35.7162 38.8801 33.5831C39.6982 32.6913 39.8812 32.1082 39.546 31.46C39.4553 31.2846 36.6061 26.9794 33.2144 21.8928C27.8032 13.7776 27.0018 12.6228 26.6727 12.4668C26.2093 12.2471 25.751 12.2494 25.299 12.4733ZM24.4762 23.334L24.4759 27.7773L23.815 28.119C22.1914 28.9586 21.2072 30.9319 21.5076 32.7451C21.8406 34.7548 23.3325 36.252 25.3319 36.5834C28.2941 37.0743 30.9964 34.3372 30.4863 31.3626C30.2493 29.9806 29.3594 28.7262 28.185 28.119L27.5241 27.7773L27.5238 23.3086L27.5235 18.8398L31.8844 25.3813L36.2452 31.9228L35.6506 32.643C33.5547 35.1812 31.8759 38.6109 31.1453 41.8469L30.9052 42.9102L30.4076 42.8594C30.134 42.8314 28.1506 42.8086 26 42.8086C23.8494 42.8086 21.866 42.8314 21.5924 42.8594L21.0948 42.9102L20.8547 41.8469C20.1241 38.611 18.4453 35.1812 16.3495 32.6431L15.7549 31.923L20.0904 25.4097C22.4749 21.8273 24.4373 18.895 24.4512 18.8935C24.4651 18.8919 24.4764 20.8902 24.4762 23.334ZM8.43233 24.681C8.88296 24.9109 9.24219 25.496 9.24219 26C9.24219 26.504 8.88296 27.0891 8.43233 27.319C8.21194 27.4314 7.8908 27.5234 7.71875 27.5234C6.94596 27.5234 6.19531 26.7728 6.19531 26C6.19531 25.5116 6.55474 24.9124 6.98354 24.686C7.47358 24.4273 7.93193 24.4258 8.43233 24.681ZM44.9948 24.681C45.4455 24.9109 45.8047 25.496 45.8047 26C45.8047 26.172 45.7127 26.4932 45.6002 26.7136C45.3703 27.1642 44.7852 27.5234 44.2812 27.5234C43.7773 27.5234 43.1922 27.1642 42.9623 26.7136C42.7034 26.2061 42.7033 25.794 42.9621 25.2868C43.3374 24.5511 44.223 24.2873 44.9948 24.681ZM26.7136 30.7748C27.1642 31.0047 27.5234 31.5898 27.5234 32.0938C27.5234 32.5977 27.1642 33.1828 26.7136 33.4127C26.4932 33.5252 26.172 33.6172 26 33.6172C25.496 33.6172 24.9109 33.258 24.681 32.8073C24.4221 32.2998 24.422 31.8878 24.6808 31.3806C25.0562 30.6449 25.9417 30.381 26.7136 30.7748ZM30.1118 45.9609C30.9554 46.1807 31.682 46.6267 32.3219 47.3179C32.7717 47.8036 33.3125 48.6681 33.3125 48.9012C33.3125 48.9298 30.0219 48.9531 26 48.9531C21.9781 48.9531 18.6875 48.9298 18.6875 48.9012C18.6875 48.6681 19.2283 47.8036 19.6781 47.3179C20.303 46.643 21.0421 46.1817 21.8444 45.966C22.6702 45.744 29.2632 45.7399 30.1118 45.9609Z" fill="#33CFD9"/>
</svg>
