<svg width="52" height="52" viewBox="0 0 52 52" fill="none" xmlns="http://www.w3.org/2000/svg">
<path fill-rule="evenodd" clip-rule="evenodd" d="M3.51058 0.147041C2.65568 0.361831 2.01572 0.728616 1.37109 1.37339C0.707166 2.03754 0.305807 2.76887 0.120917 3.65158C-0.0415354 4.42705 -0.0397079 47.5804 0.122846 48.3428C0.496181 50.0942 1.89814 51.5018 3.64247 51.8766C4.40244 52.0399 47.5856 52.0417 48.3576 51.8785C50.0806 51.5141 51.5195 50.0697 51.8797 48.3428C52.0417 47.5662 52.0393 4.41196 51.8772 3.65158C51.503 1.89574 50.0968 0.483039 48.3576 0.115847C47.5367 -0.0575552 4.20486 -0.0273806 3.51058 0.147041ZM48.1368 3.26563C48.3948 3.39774 48.6104 3.61427 48.742 3.8733C48.9366 4.25619 48.9464 4.46792 48.9464 8.25535V12.2351H26H3.05368L3.05795 8.23394C3.06272 3.72803 3.05632 3.76952 3.82462 3.30253L4.22131 3.06144L25.9787 3.06093C47.5847 3.06042 47.7389 3.06185 48.1368 3.26563ZM6.98919 6.32886C6.56052 6.55609 6.20119 7.15754 6.20119 7.64778C6.20119 8.42345 6.95162 9.1769 7.72418 9.1769C8.22799 9.1769 8.81292 8.81633 9.04278 8.36402C9.15518 8.14281 9.24717 7.82047 9.24717 7.64778C9.24717 7.14195 8.88805 6.55466 8.43755 6.32387C7.9373 6.06769 7.47908 6.06922 6.98919 6.32886ZM13.0811 6.32886C12.6525 6.55609 12.2931 7.15754 12.2931 7.64778C12.2931 8.42345 13.0436 9.1769 13.8161 9.1769C14.5887 9.1769 15.3391 8.42345 15.3391 7.64778C15.3391 7.14195 14.98 6.55466 14.5295 6.32387C14.0293 6.06769 13.571 6.06922 13.0811 6.32886ZM19.1731 6.32886C18.7444 6.55609 18.3851 7.15754 18.3851 7.64778C18.3851 7.82047 18.4771 8.14281 18.5895 8.36402C18.8194 8.81633 19.4043 9.1769 19.9081 9.1769C20.6807 9.1769 21.4311 8.42345 21.4311 7.64778C21.4311 7.14195 21.072 6.55466 20.6215 6.32387C20.1212 6.06769 19.663 6.06922 19.1731 6.32886ZM34.403 6.32886C33.9743 6.55609 33.615 7.15754 33.615 7.64778C33.615 8.15361 33.9741 8.74089 34.4246 8.97169C34.8097 9.16895 35.0148 9.1769 39.7069 9.1769C44.3991 9.1769 44.6042 9.16895 44.9893 8.97169C45.4398 8.74089 45.7989 8.15361 45.7989 7.64778C45.7989 7.14195 45.4398 6.55466 44.9893 6.32387C44.6036 6.12641 44.4039 6.11886 39.6856 6.12314C35.0048 6.12743 34.7654 6.1368 34.403 6.32886ZM48.9464 31.5061C48.9464 47.5538 48.9444 47.7229 48.742 48.1211C48.6104 48.3801 48.3948 48.5967 48.1368 48.7288C47.7389 48.9326 47.5841 48.934 25.9925 48.934H4.24893L3.84391 48.7054C3.60623 48.5713 3.3593 48.3203 3.24629 48.0979C3.05957 47.7304 3.05368 47.2236 3.05368 31.5061V15.2934H26H48.9464V31.5061ZM29.8144 20.1117C29.5506 20.2622 29.3392 20.495 29.1911 20.7982C29.0678 21.0505 26.9287 26.0355 24.4376 31.8761C21.6933 38.3098 19.9081 42.6207 19.9081 42.8133C19.9081 43.3231 20.2659 43.91 20.7177 44.1414C21.5273 44.5561 22.3766 44.2738 22.7881 43.453C23.5232 41.9865 32.092 21.6888 32.092 21.414C32.092 20.9043 31.7342 20.3173 31.2824 20.0859C30.7641 19.8205 30.3112 19.8284 29.8144 20.1117ZM16.1914 24.6508C16.018 24.7465 14.1122 26.2429 11.9563 27.976C7.91963 31.221 7.72418 31.412 7.72418 32.1137C7.72418 32.8153 7.91963 33.0064 11.9563 36.2514C14.1122 37.9845 16.018 39.4809 16.1914 39.5766C17.1259 40.0926 18.3851 39.3241 18.3851 38.2377C18.3851 37.5445 18.1481 37.3035 14.9174 34.7104C13.1949 33.328 11.7855 32.1595 11.7855 32.1137C11.7855 32.0679 13.1949 30.8994 14.9174 29.5169C18.1481 26.9239 18.3851 26.6829 18.3851 25.9897C18.3851 24.9033 17.1259 24.1347 16.1914 24.6508ZM34.403 24.6783C33.9768 24.9043 33.615 25.5064 33.615 25.9897C33.615 26.6829 33.852 26.9239 37.0827 29.5169C38.8052 30.8994 40.2146 32.0679 40.2146 32.1137C40.2146 32.1595 38.8052 33.328 37.0827 34.7104C33.852 37.3035 33.615 37.5445 33.615 38.2377C33.615 39.3241 34.8742 40.0926 35.8087 39.5766C35.9821 39.4809 37.8879 37.9845 40.0438 36.2514C44.0805 33.0064 44.2759 32.8153 44.2759 32.1137C44.2759 31.412 44.0805 31.221 40.0438 27.976C37.8879 26.2429 35.9821 24.7465 35.8087 24.6508C35.3918 24.4206 34.8699 24.4309 34.403 24.6783Z" fill="#061BD8"/>
</svg>
