<svg width="20" height="20" viewBox="0 0 20 20" fill="none" xmlns="http://www.w3.org/2000/svg">
<path fill-rule="evenodd" clip-rule="evenodd" d="M1.48 0.0419403C0.815773 0.206305 0.224494 0.898236 0.0643832 1.69854C-0.0208271 2.12466 -0.0217643 13.8936 0.063407 14.3155C0.231211 15.1468 0.826551 15.8262 1.52081 15.9786C1.77855 16.0352 4.17666 16.0407 4.31627 15.985C4.55394 15.8901 4.6238 15.5242 4.44088 15.3321L4.33872 15.2248L2.9825 15.2043C1.67783 15.1846 1.62015 15.1804 1.46508 15.0933C1.24635 14.9705 1.00326 14.6706 0.895359 14.3906L0.806205 14.1591V10.2242V6.28928L9.29014 6.27895L17.7741 6.26858V8.35912V10.4496L17.6276 10.4505C17.4518 10.4516 17.1685 10.5795 17.0265 10.7219L16.9234 10.8254L16.6556 10.7036C16.5083 10.6366 16.3497 10.5697 16.3033 10.5551C16.2363 10.5339 16.2133 10.4846 16.1914 10.3148C16.1449 9.95449 15.9775 9.69601 15.6904 9.54103C15.5004 9.43852 14.8181 9.39368 14.4761 9.46123C14.0485 9.54575 13.7681 9.85759 13.7249 10.2967L13.7033 10.5166L13.3559 10.6707L13.0086 10.8248L12.8874 10.7177C12.6797 10.5343 12.5357 10.4764 12.2873 10.4766C12.1254 10.4766 12.0048 10.5032 11.8968 10.5626C11.6865 10.6783 11.0362 11.3752 10.9612 11.5653C10.8381 11.877 10.9246 12.3279 11.1564 12.5824L11.2509 12.6863L11.1002 13.0538L10.9495 13.4213L10.7398 13.4433C10.5002 13.4685 10.3406 13.5477 10.1928 13.7148C9.98529 13.9494 9.94964 14.0788 9.93206 14.6612L9.91566 15.2043H8.70659H7.49752L7.38337 15.3241C7.19178 15.5253 7.24462 15.846 7.49119 15.9783C7.55016 16.01 8.0993 16.0241 9.26866 16.0241H10.9608L11.1098 16.3941L11.2588 16.764L11.1433 16.9021C10.8956 17.1982 10.8386 17.624 11.002 17.9586C11.1042 18.1678 11.7248 18.7986 11.92 18.8915C12.1626 19.007 12.4396 18.9999 12.6845 18.8719C12.7932 18.8151 12.9113 18.7346 12.947 18.6932C13.0097 18.6206 13.0239 18.6231 13.358 18.7659L13.7042 18.9138L13.7461 19.179C13.8006 19.5229 13.9418 19.7353 14.2157 19.8855C14.4132 19.9938 14.4523 20 14.933 20C15.2126 20 15.5084 19.9789 15.5902 19.9532C15.9205 19.8493 16.1615 19.5182 16.2013 19.1135C16.2132 18.9924 16.2424 18.8931 16.2663 18.8928C16.2901 18.8925 16.4496 18.8282 16.6206 18.7498L16.9316 18.6073L17.0502 18.7278C17.2986 18.98 17.7176 19.0509 18.0279 18.8933C18.2317 18.7897 18.8865 18.093 18.9648 17.8963C19.0916 17.5777 19.0155 17.1508 18.7879 16.9039L18.6731 16.7794L18.8089 16.453C18.8836 16.2735 18.9449 16.1035 18.9451 16.0753C18.9454 16.0439 19.0003 16.0241 19.0875 16.0241C19.3382 16.0241 19.5422 15.933 19.7277 15.7383C19.9589 15.4956 20 15.3362 20 14.6816C20 14.1771 19.9941 14.136 19.8909 13.9288C19.7417 13.629 19.5314 13.4783 19.2171 13.446L18.9762 13.4213L18.8867 13.171C18.8374 13.0333 18.7695 12.8645 18.7357 12.7959C18.6799 12.6827 18.6799 12.6664 18.7356 12.6179C18.7692 12.5886 18.8477 12.4714 18.9099 12.3576C19.1165 11.9795 19.0532 11.5674 18.7309 11.1929L18.5976 11.0381L18.5859 6.42978L18.5741 1.82151L18.4674 1.4904C18.2871 0.930986 17.904 0.418381 17.5075 0.206059C17.0983 -0.0130256 17.5099 -0.00281936 9.26241 0.00160743C4.99815 0.00394378 1.56169 0.0217329 1.48 0.0419403ZM17.0059 0.882742C17.2432 0.967629 17.4969 1.22889 17.6406 1.53663L17.7545 1.78052L17.7658 3.61476L17.7771 5.44901H9.27963H0.782188L0.794646 3.65575C0.806791 1.90148 0.809017 1.85745 0.895828 1.63103C1.03989 1.25512 1.32828 0.95689 1.64558 0.855566C1.69939 0.838392 5.13631 0.822734 9.28319 0.820808C16.0911 0.817611 16.8407 0.823636 17.0059 0.882742ZM3.32502 1.82323C3.0833 1.89303 2.7564 2.11097 2.63506 2.28324C2.41438 2.59652 2.36846 2.74679 2.36897 3.15364C2.3694 3.47622 2.38482 3.57566 2.45894 3.73306C2.603 4.03904 2.79752 4.24496 3.08072 4.39129C3.30886 4.50918 3.37946 4.52578 3.65513 4.52623C3.91849 4.52668 4.00733 4.50811 4.20368 4.41171C4.50582 4.26333 4.77829 3.96157 4.88857 3.65321C5.00311 3.33292 4.986 2.85237 4.84967 2.56037C4.57428 1.97054 3.91642 1.65247 3.32502 1.82323ZM6.75878 1.81364C6.08178 2.01444 5.66764 2.68801 5.78999 3.38932C5.87118 3.85492 6.13728 4.20992 6.56161 4.41876C6.87176 4.5714 7.30976 4.57058 7.62647 4.41679C7.90654 4.28079 8.14671 4.02924 8.27878 3.73355C8.3652 3.54004 8.38219 3.44486 8.38219 3.15364C8.38219 2.8552 8.36653 2.77179 8.27308 2.57201C7.99816 1.98444 7.32296 1.64628 6.75878 1.81364ZM11.4378 1.80454C10.6363 2.0028 10.1811 2.93492 10.5075 3.70945C10.615 3.96436 10.9129 4.28128 11.1695 4.41355L11.3892 4.52676H13.4589C15.5279 4.52676 15.5287 4.52672 15.7207 4.43376C16.0151 4.29128 16.2233 4.08859 16.368 3.80368C16.6862 3.17696 16.5084 2.4258 15.9451 2.01735C15.6039 1.76998 15.5008 1.75957 13.4409 1.76412C12.4198 1.76642 11.5185 1.78458 11.4378 1.80454ZM3.99573 2.72978C4.23574 2.95771 4.24465 3.32891 4.01542 3.54939C3.83523 3.72273 3.64786 3.75966 3.45417 3.65997C3.09189 3.4736 3.02464 3.00862 3.31944 2.72859C3.48287 2.57332 3.83172 2.57394 3.99573 2.72978ZM7.42539 2.73781C7.65982 2.92091 7.67118 3.31378 7.44886 3.54713C7.27641 3.72814 7.08806 3.76179 6.86937 3.65067C6.66146 3.54504 6.5663 3.38359 6.5663 3.13647C6.5663 2.98022 6.5884 2.92218 6.69384 2.80142C6.89312 2.57316 7.18241 2.54799 7.42539 2.73781ZM15.5037 2.69862C15.7432 2.87791 15.8089 3.2025 15.6547 3.44474C15.4727 3.7308 15.4989 3.72736 13.5126 3.7274C12.5326 3.72744 11.6739 3.71551 11.6043 3.70092C11.4345 3.66526 11.23 3.4438 11.1972 3.25996C11.1646 3.07761 11.2813 2.77429 11.4125 2.70063C11.6039 2.59308 11.7593 2.58517 13.537 2.59263L15.3724 2.60029L15.5037 2.69862ZM6.18781 8.64654C6.14075 8.66642 6.07401 8.72794 6.03949 8.78323C5.96662 8.89993 5.19508 12.2376 5.18673 12.4722C5.18208 12.6022 5.20336 12.6507 5.30806 12.7489C5.53299 12.9599 5.84447 12.8714 5.93784 12.5701C6.02828 12.2783 6.72723 9.14992 6.72871 9.03023C6.73086 8.85898 6.66623 8.74204 6.52803 8.66703C6.40091 8.59805 6.31473 8.59284 6.18781 8.64654ZM3.5748 8.98572C3.40934 9.08594 2.31105 10.4246 2.26446 10.5828C2.18453 10.8544 2.25501 10.9854 2.878 11.7225C3.19139 12.0932 3.48361 12.4289 3.52739 12.4683C3.57589 12.512 3.67122 12.5401 3.77115 12.5401C3.99601 12.5401 4.14511 12.3815 4.14511 12.1424C4.14511 11.9855 4.11226 11.9358 3.63744 11.3734C3.35822 11.0427 3.12977 10.7588 3.12977 10.7425C3.12977 10.7262 3.23083 10.5933 3.35431 10.4471C4.17135 9.48012 4.14511 9.51689 4.14511 9.33953C4.14511 9.02753 3.82926 8.8316 3.5748 8.98572ZM7.90166 9.03507C7.76361 9.15701 7.72605 9.31855 7.79673 9.4864C7.8252 9.55403 8.06068 9.85837 8.31998 10.1627C8.57932 10.4671 8.79164 10.7277 8.79184 10.742C8.79207 10.7562 8.57135 11.0283 8.30135 11.3465C7.7125 12.0407 7.65333 12.1942 7.88217 12.4344C7.95832 12.5144 8.02186 12.5397 8.14343 12.5387C8.2318 12.538 8.33213 12.515 8.36641 12.4875C8.53871 12.3495 9.61797 11.0272 9.65535 10.9083C9.73626 10.651 9.67596 10.5204 9.22957 9.98601C9.00002 9.71122 8.69722 9.36191 8.55667 9.20972C8.33345 8.96809 8.28316 8.93305 8.15917 8.93305C8.06486 8.93305 7.9784 8.96731 7.90166 9.03507ZM15.392 10.5828C15.392 10.7836 15.4142 10.9265 15.4603 11.0235C15.5222 11.1535 15.5634 11.1788 15.8996 11.2937C16.1036 11.3634 16.4152 11.4971 16.5919 11.5908C16.7686 11.6846 16.9536 11.7613 17.003 11.7613C17.1145 11.7613 17.2329 11.6799 17.4717 11.4389L17.6574 11.2515L17.95 11.5566C18.111 11.7244 18.2427 11.8813 18.2427 11.9053C18.2427 11.9292 18.155 12.0394 18.0479 12.1502C17.9407 12.261 17.8337 12.413 17.8102 12.4881C17.7708 12.6131 17.7836 12.6596 17.9631 13.0434C18.0708 13.2738 18.1951 13.5926 18.2393 13.7518C18.3553 14.1692 18.4341 14.2338 18.86 14.2607L19.1994 14.2821L19.2107 14.6859C19.218 14.9485 19.206 15.1098 19.1766 15.147C19.145 15.1871 19.0402 15.2043 18.8289 15.2043C18.4226 15.2043 18.3635 15.2554 18.224 15.7258C18.1654 15.9237 18.0384 16.2456 17.9418 16.4411C17.7803 16.7679 17.7696 16.8078 17.8095 16.935C17.8335 17.011 17.9407 17.1639 18.0479 17.2747C18.155 17.3855 18.2427 17.4957 18.2427 17.5196C18.2427 17.575 17.688 18.1555 17.6351 18.1555C17.6134 18.1555 17.5009 18.0548 17.3851 17.9318C17.0932 17.6215 17.0248 17.6134 16.609 17.8399C16.4228 17.9412 16.1174 18.073 15.9302 18.1329C15.4824 18.2759 15.431 18.3417 15.431 18.7708C15.431 18.9926 15.4145 19.1026 15.3764 19.1358C15.3409 19.1667 15.1872 19.1792 14.9371 19.1715L14.5523 19.1597L14.5319 18.8034C14.5064 18.3571 14.4449 18.2743 14.0471 18.1507C13.8954 18.1036 13.5962 17.973 13.3823 17.8604C13.0236 17.6718 12.9825 17.6593 12.8549 17.6994C12.7775 17.7237 12.6312 17.8338 12.5229 17.9492C12.4164 18.0627 12.3106 18.1555 12.2878 18.1555C12.265 18.1555 12.1176 18.0195 11.9602 17.8532C11.6438 17.5189 11.637 17.4744 11.8744 17.2969C12.0152 17.1917 12.1507 16.9688 12.1507 16.8426C12.1507 16.7908 12.0734 16.5901 11.9789 16.3965C11.8844 16.203 11.7681 15.9063 11.7204 15.7372C11.5939 15.2889 11.5254 15.2296 11.1053 15.2043L10.7643 15.1838L10.7533 14.7227L10.7422 14.2616L11.0266 14.2615C11.2193 14.2615 11.3551 14.2383 11.4475 14.1898C11.5717 14.1245 11.5963 14.0796 11.723 13.6877C11.7995 13.451 11.9271 13.1301 12.0064 12.9745C12.0858 12.8189 12.1507 12.6566 12.1507 12.6138C12.1507 12.4901 12.0537 12.3289 11.8609 12.1319C11.7625 12.0314 11.682 11.9304 11.682 11.9075C11.682 11.8394 12.2018 11.3104 12.2686 11.3104C12.3024 11.3104 12.3995 11.3857 12.4844 11.4777C12.663 11.6713 12.8096 11.7613 12.9462 11.7613C12.9993 11.7613 13.1922 11.6792 13.3749 11.5789C13.5576 11.4786 13.8357 11.357 13.993 11.3085C14.1877 11.2486 14.3132 11.1823 14.3864 11.1009C14.4846 10.9913 14.4937 10.954 14.4937 10.6608C14.4937 10.4845 14.5055 10.328 14.5198 10.313C14.5341 10.298 14.7362 10.2857 14.9689 10.2857H15.3919L15.392 10.5828ZM14.3766 12.2765C13.7204 12.4566 13.109 12.9805 12.8216 13.6089C12.621 14.0479 12.565 14.3545 12.5886 14.8868C12.6033 15.2207 12.6296 15.3656 12.7167 15.5937C13.003 16.3434 13.5058 16.8517 14.2268 17.1204C14.5937 17.2571 15.2343 17.2738 15.6067 17.1563C16.4203 16.8997 17.0491 16.2395 17.29 15.3888C17.3952 15.017 17.3877 14.4059 17.2729 14.0156C17.0231 13.1657 16.33 12.4697 15.5385 12.2738C15.2317 12.1979 14.6582 12.1992 14.3766 12.2765ZM15.6437 13.1889C16.6475 13.6819 16.8919 15.0356 16.1298 15.8814C15.3556 16.7406 14.0306 16.5271 13.5293 15.4624C13.408 15.2049 13.3834 15.1063 13.3691 14.8189C13.348 14.3979 13.419 14.1182 13.6313 13.7852C13.8237 13.4836 14.1176 13.2462 14.451 13.1235C14.8234 12.9864 15.2827 13.0115 15.6437 13.1889ZM5.70279 15.2658C5.47629 15.395 5.46395 15.735 5.67885 15.9248C5.78062 16.0147 5.82733 16.029 5.95905 16.0104C6.17422 15.9801 6.29294 15.8325 6.29294 15.5951C6.29294 15.446 6.2731 15.399 6.17277 15.3104C6.03742 15.1909 5.86314 15.1743 5.70279 15.2658Z" fill="black"/>
</svg>
