<svg width="52" height="52" viewBox="0 0 52 52" fill="none" xmlns="http://www.w3.org/2000/svg">
<path fill-rule="evenodd" clip-rule="evenodd" d="M5.16945 0.14709C4.66598 0.367419 4.14024 1.00687 4.04992 1.50875C4.01015 1.73058 3.99376 7.04839 4.01365 13.3261C4.04955 24.6308 4.05243 24.7435 4.30785 25.0859C4.79794 25.7429 5.19772 25.9478 5.98877 25.9478C6.77981 25.9478 7.17959 25.7429 7.66968 25.0859C7.92473 24.7442 7.92798 24.6225 7.961 14.3589L7.9944 3.97756H26.0026H44.0108L44.0442 14.3589C44.0772 24.6225 44.0805 24.7442 44.3355 25.0859C44.8256 25.7429 45.2254 25.9478 46.0164 25.9478C46.8075 25.9478 47.2073 25.7428 47.6974 25.0859C47.9535 24.7425 47.9553 24.6623 47.9553 12.991C47.9553 1.31971 47.9535 1.23947 47.6974 0.896082C47.5555 0.705924 47.2841 0.434269 47.0941 0.292307C46.7488 0.0342966 46.7386 0.0341715 26.1498 0.0071311C9.2155 -0.015027 5.48304 0.00988522 5.16945 0.14709ZM37.2604 8.12174C37.0884 8.18909 35.302 9.88838 33.2909 11.898L29.634 15.5518L26.0359 13.7663C22.2864 11.9056 22.0165 11.816 21.214 12.1641C20.9893 12.2617 18.8961 14.2655 16.4738 16.7022C11.7855 21.4181 11.8414 21.3452 12.052 22.4678C12.1674 23.0839 12.9157 23.8328 13.5314 23.9484C14.6401 24.1565 14.6356 24.1599 18.6531 20.1521L22.3738 16.4404L25.9707 18.2253C29.7188 20.0852 29.9887 20.175 30.7912 19.8268C31.016 19.7293 33.1091 17.7254 35.5314 15.2888C40.2032 10.5894 40.1629 10.6416 39.9588 9.552C39.745 8.4118 38.375 7.68559 37.2604 8.12174ZM6.05281 30.2185C3.91546 30.7356 1.85278 32.4007 0.875729 34.3979C0.200888 35.7774 -0.0607933 37.0122 0.0267673 38.4039C0.146225 40.3005 0.909503 42.1254 2.12935 43.4308L2.67397 44.0135L2.02415 44.7266C0.408781 46.4993 -0.526491 50.01 0.315842 51.1392C0.794798 51.7813 1.19958 51.9867 1.986 51.9867C3.22335 51.9867 3.81639 51.363 4.00202 49.8663C4.20803 48.2061 4.96806 47.0666 6.30148 46.4193C7.16908 45.9981 8.78482 45.9847 9.62015 46.3918C11.0131 47.0707 11.7691 48.1809 11.9764 49.8518C12.1044 50.8827 12.2956 51.2645 12.9167 51.7286C13.401 52.0905 14.5876 52.0905 15.0719 51.7286C15.7923 51.1904 15.9336 50.8636 15.9265 49.7545C15.9151 47.9842 15.2649 46.3285 13.9692 44.7702L13.3535 44.0298L13.9773 43.2826C15.2223 41.7916 15.8356 40.2773 15.9535 38.4039C16.1902 34.6444 13.5397 31.0784 9.86457 30.2115C8.85975 29.9745 7.04775 29.9777 6.05281 30.2185ZM24.0653 30.2185C21.9279 30.7356 19.8652 32.4007 18.8882 34.3979C18.2133 35.7774 17.9517 37.0122 18.0392 38.4039C18.1589 40.3055 18.9195 42.1196 20.1522 43.4443L20.7071 44.0407L20.2126 44.5609C19.1875 45.6392 18.5316 46.9032 18.1829 48.4712C17.6861 50.7062 18.3474 51.9867 19.9985 51.9867C21.2358 51.9867 21.8288 51.363 22.0145 49.8663C22.2205 48.2061 22.9805 47.0666 24.3139 46.4193C25.1815 45.9981 26.7973 45.9847 27.6326 46.3918C29.0256 47.0707 29.7816 48.1809 29.9889 49.8518C30.1168 50.8827 30.3081 51.2645 30.9291 51.7286C31.4135 52.0905 32.6 52.0905 33.0844 51.7286C33.8048 51.1904 33.9461 50.8636 33.939 49.7545C33.9276 47.9842 33.2774 46.3285 31.9816 44.7702L31.3659 44.0298L31.9897 43.2826C33.2347 41.7916 33.848 40.2773 33.966 38.4039C34.2027 34.6444 31.5522 31.0784 27.877 30.2115C26.8722 29.9745 25.0602 29.9777 24.0653 30.2185ZM42.0777 30.2185C39.9404 30.7356 37.8777 32.4007 36.9006 34.3979C36.6143 34.9832 36.2911 35.8845 36.1824 36.4009C35.674 38.8152 36.4799 41.6697 38.1636 43.42L38.7139 43.992L38.0566 44.7159C36.4324 46.5045 35.4966 50.0076 36.3408 51.1392C36.8197 51.7813 37.2245 51.9867 38.0109 51.9867C39.2483 51.9867 39.8413 51.363 40.0269 49.8663C40.233 48.2061 40.993 47.0666 42.3264 46.4193C43.194 45.9981 44.8097 45.9847 45.6451 46.3918C47.038 47.0707 47.7941 48.1809 48.0013 49.8518C48.1293 50.8827 48.3205 51.2645 48.9416 51.7286C49.4259 52.0905 50.6125 52.0905 51.0968 51.7286C51.8172 51.1904 51.9586 50.8636 51.9514 49.7545C51.9399 47.9687 51.1785 46.0888 49.8715 44.6191L49.3312 44.0115L49.8714 43.4298C51.5699 41.6006 52.3548 38.8093 51.8477 36.4009C51.218 33.4102 48.7974 30.8947 45.8914 30.2113C44.884 29.9745 43.0724 29.9779 42.0777 30.2185ZM9.67882 34.409C10.4689 34.7829 11.2225 35.5325 11.6184 36.3383C12.0547 37.2262 12.0523 38.81 11.6134 39.7184C11.2276 40.5166 10.4764 41.2685 9.67882 41.6545C8.77119 42.0938 7.1886 42.0962 6.30148 41.6595C5.50406 41.2672 4.75391 40.5165 4.36189 39.7184C3.92559 38.8306 3.92796 37.2467 4.36689 36.3383C4.88425 35.2677 5.8997 34.4331 7.052 34.1314C7.72259 33.9559 9.00873 34.0917 9.67882 34.409ZM27.6913 34.408C30.6591 35.8173 30.7675 39.9331 27.8789 41.5233C27.1248 41.9385 26.9888 41.9708 26.0026 41.969C25.0327 41.9672 24.8699 41.9296 24.1482 41.5401C21.0372 39.8612 21.4022 35.4419 24.7524 34.2236C25.5418 33.9365 26.8747 34.0201 27.6913 34.408ZM45.7037 34.409C46.4938 34.7829 47.2474 35.5325 47.6433 36.3383C48.0796 37.2262 48.0773 38.81 47.6383 39.7184C47.2526 40.5166 46.5013 41.2685 45.7037 41.6545C44.7961 42.0938 43.2135 42.0962 42.3264 41.6595C41.529 41.2672 40.7788 40.5165 40.3868 39.7184C39.9505 38.8306 39.9529 37.2467 40.3918 36.3383C40.9092 35.2677 41.9246 34.4331 43.0769 34.1314C43.7475 33.9559 45.0336 34.0917 45.7037 34.409Z" fill="#0073A8"/>
</svg>
