<svg width="73" height="73" viewBox="0 0 73 73" fill="none" xmlns="http://www.w3.org/2000/svg">
<path fill-rule="evenodd" clip-rule="evenodd" d="M22.2679 0.389785C21.9058 0.778713 21.7975 1.41265 22.0014 1.94875C22.058 2.0973 23.0621 2.85185 24.233 3.62577L26.362 5.03277L25.022 5.43711C20.0639 6.93372 15.9328 9.12593 12.3039 12.186C7.38661 16.3324 3.76827 21.6959 1.7841 27.7796C0.846194 30.6551 0.364756 33.1365 0.116651 36.3737C-0.0513006 38.5633 -0.0431492 38.979 0.175408 39.372C0.533557 40.0169 1.19568 40.3077 1.78801 40.0805C2.48919 39.8115 2.69773 39.4169 2.70368 38.3475C2.71981 35.473 3.38703 31.5249 4.346 28.6306C7.64575 18.672 15.6385 10.9748 25.6306 8.13305C26.4223 7.90775 27.0883 7.74207 27.1108 7.76486C27.1332 7.78747 26.5064 8.80451 25.7181 10.0248C24.1885 12.3922 24.0491 12.8485 24.6282 13.5912C25.0492 14.1313 25.921 14.2038 26.4517 13.7429C27.0943 13.1847 31.4045 6.27082 31.4065 5.79486C31.4077 5.54608 31.2749 5.18371 31.1114 4.98959C30.9478 4.79547 29.2094 3.59185 27.248 2.31507C23.4023 -0.188639 22.9643 -0.357917 22.2679 0.389785ZM49.4094 8.90269C48.9349 9.38139 48.9565 10.3529 49.4518 10.8081C49.6621 11.0012 50.6125 11.6732 51.564 12.3011C58.2012 16.6816 62.999 23.7387 64.7547 31.7036C65.8562 36.7003 65.7652 41.8699 64.491 46.6686L64.1305 48.0263L62.9876 45.7263C62.3591 44.4615 61.6822 43.2786 61.4837 43.098C60.9486 42.6115 60.1368 42.6728 59.6566 43.2361C59.4379 43.4926 59.2589 43.8562 59.2589 44.0438C59.2589 44.5184 62.9531 51.881 63.4352 52.3674C63.6516 52.5857 64.0237 52.7642 64.2623 52.7642C64.8704 52.7642 72.4134 48.9273 72.7454 48.4491C73.1195 47.9103 73.081 47.3747 72.6321 46.8766C71.9597 46.1301 71.6997 46.1685 69.2836 47.3709C68.0424 47.9886 66.9947 48.4613 66.9553 48.4216C66.9157 48.3818 67.0371 47.7422 67.2248 47.0005C67.9589 44.0995 68.1515 42.3664 68.155 38.6291C68.1586 34.6763 67.9672 33.1108 67.058 29.6555C66.1474 26.1951 64.6702 22.8556 62.6901 19.7824C60.0703 15.716 56.0889 11.7936 52.1029 9.3521C50.6689 8.47367 49.953 8.35425 49.4094 8.90269ZM30.5994 20.1245C24.2001 21.2949 18.7095 25.4344 15.8268 31.2618C14.1795 34.5918 13.665 36.8646 13.674 40.7708C13.6794 43.1404 13.7446 43.8612 14.0775 45.2255C15.0952 49.3988 16.7582 52.4064 19.6756 55.3498C23.5537 59.2625 28.0239 61.2301 33.5313 61.4489C42.4821 61.8043 50.7008 56.1922 53.7185 47.6643C55.2369 43.3732 55.2357 37.9748 53.7156 33.706C51.2297 26.7247 45.4606 21.7032 38.2144 20.2135C36.2362 19.8067 32.5715 19.7639 30.5994 20.1245ZM34.8822 28.0272C35.3196 28.1966 35.654 29.0317 35.654 29.9547C35.654 30.7771 35.6729 30.8103 36.2059 30.9239C37.8819 31.2813 40.2391 33.2467 40.2391 34.2865C40.2391 34.9564 39.5646 35.6308 38.8947 35.6308C38.5179 35.6308 38.1186 35.3919 37.3717 34.7195C36.2942 33.7495 35.4781 33.4029 34.2758 33.4045C32.7688 33.4064 31.4975 34.0271 30.7607 35.1209C30.4372 35.6011 30.374 35.8756 30.4353 36.5383C30.5729 38.0296 31.7538 38.8695 34.2106 39.2235C36.2029 39.5105 37.3126 39.8694 38.3443 40.5602C39.9761 41.653 40.7936 43.1174 40.8051 44.9685C40.8113 45.9343 40.7219 46.3584 40.3466 47.1468C39.6244 48.664 37.9192 49.9886 36.121 50.4289C35.6812 50.5367 35.654 50.5987 35.654 51.4956C35.654 52.328 35.589 52.5134 35.1378 52.9688C34.7058 53.4046 34.5325 53.4723 34.0764 53.3834C33.2465 53.2217 32.9369 52.7241 32.9369 51.5525V50.55L32.2162 50.3542C31.153 50.0653 30.2806 49.5726 29.4257 48.7774C28.13 47.5724 27.9084 46.7009 28.6957 45.9065C29.2719 45.3252 29.9817 45.4659 30.8101 46.3258C31.8732 47.4294 32.7888 47.8539 34.1256 47.8632C35.5014 47.8726 36.3623 47.5803 37.1951 46.8211C38.3069 45.8077 38.4543 44.5595 37.5854 43.5176C36.8541 42.6409 36.1771 42.3532 33.9616 41.978C32.7989 41.7812 31.4488 41.4359 30.9614 41.2108C29.6854 40.6214 28.6505 39.5857 28.0993 38.3464C27.4718 36.9357 27.5373 35.3001 28.2764 33.9301C29.0538 32.489 30.7909 31.2087 32.385 30.9016L32.9369 30.7952V29.7131C32.9369 28.7481 32.9853 28.5926 33.3844 28.2759C33.8341 27.9189 34.3719 27.8296 34.8822 28.0272ZM7.08484 57.7097C6.6929 58.1797 6.66674 58.3709 6.47264 62.2073C6.36107 64.411 6.27107 66.468 6.27259 66.7785C6.2782 67.9334 7.63403 68.6028 8.43762 67.8474C8.92194 67.3922 8.94945 67.2506 9.08293 64.5239L9.19909 62.1487L10.2421 63.1722C15.6802 68.5093 22.6192 71.8547 30.2154 72.8022C33.8235 73.2521 38.7853 72.917 42.4714 71.9743C45.5512 71.1867 49.7179 69.4655 51.3316 68.3143C52.1869 67.704 52.2588 66.6138 51.483 66.0191C50.9773 65.6315 50.5241 65.7566 48.0265 66.9738C45.1761 68.3631 43.2302 69.0413 40.2646 69.6795C38.2779 70.1068 37.8163 70.1416 34.1256 70.1416C30.4416 70.1416 29.971 70.1063 28.0023 69.6826C21.9934 68.3893 16.6443 65.5622 12.4939 61.4863L11.1152 60.1322L13.8783 60.2439C16.6102 60.3545 16.6463 60.3512 17.0624 59.9568C17.9111 59.1524 17.4564 57.8508 16.2617 57.6645C15.7037 57.5776 9.05712 57.2172 8.03107 57.2184C7.64915 57.2187 7.37608 57.3606 7.08484 57.7097Z" fill="#DD6F6F"/>
</svg>
