<svg width="49" height="43" viewBox="0 0 49 43" fill="none" xmlns="http://www.w3.org/2000/svg">
<path fill-rule="evenodd" clip-rule="evenodd" d="M2.73206 0.160704C1.64274 0.469138 0.792492 1.22046 0.296634 2.31301L0 2.96668V19.6605V36.3544L0.304009 37.0283C0.690868 37.8856 1.31929 38.5454 2.13582 38.9516L2.77765 39.2708L16.3546 39.2977C23.822 39.3123 29.9315 39.3366 29.9315 39.3514C29.9315 39.3662 29.8442 39.6392 29.7375 39.958C29.511 40.6349 29.5853 41.1447 29.9653 41.5196C30.3185 41.8679 32.7836 42.9381 33.236 42.9395C33.8556 42.9414 34.2084 42.6411 34.573 41.801L34.891 41.0684H35.5347H36.1785L36.4897 41.7854C36.8324 42.5749 37.1302 42.8843 37.645 42.9857C37.9243 43.0407 38.2276 42.9504 39.3459 42.4792C40.9618 41.7984 41.2811 41.5754 41.4407 41.0163C41.5572 40.608 41.5299 40.4529 41.166 39.4542C41.1338 39.366 41.7623 39.3277 43.6447 39.3034L46.1664 39.2708L46.8082 38.9516C47.6248 38.5454 48.2532 37.8856 48.6401 37.0283L48.9441 36.3544L48.972 31.1498L49 25.9453L48.7609 25.6942C48.4751 25.3941 48.1381 25.3728 47.8293 25.6352L47.6031 25.8273L47.5552 30.9904C47.502 36.7321 47.5384 36.4238 46.8284 37.1478C46.423 37.5611 45.7857 37.8126 45.1437 37.8126C44.8897 37.8126 44.6818 37.7965 44.6818 37.7769C44.6818 37.7573 44.9189 37.1479 45.2086 36.4226C45.7851 34.9796 45.8449 34.5529 45.5426 34.0393C45.365 33.7377 44.7494 33.3475 44.127 33.1422C43.9215 33.0744 43.9092 33.0243 43.9355 32.3546L43.9635 31.6395L44.5381 31.403C45.4544 31.0257 45.8193 30.5124 45.7365 29.7171C45.6915 29.2849 44.6538 26.7484 44.4227 26.5058C44.0256 26.0888 43.6019 26.0198 42.9195 26.2609C42.5982 26.3744 42.2705 26.5059 42.1915 26.5531C42.0867 26.6157 41.9137 26.5004 41.5522 26.1273L41.0565 25.6157L41.3012 25.0517C41.7728 23.965 41.5753 23.1665 40.7324 22.7513C39.7109 22.2481 38.1532 21.6216 37.9237 21.6216C37.281 21.6216 36.845 22.058 36.4921 23.0546L36.3228 23.5323L35.6414 23.5299L34.96 23.5275L34.6727 22.8043C34.34 21.9667 33.9606 21.6216 33.3727 21.6216C32.9022 21.6216 30.45 22.6609 30.0971 23.01C29.951 23.1544 29.783 23.4425 29.7237 23.6502C29.6293 23.9811 29.6489 24.1225 29.8828 24.7957L30.1495 25.5637L29.6769 26.06L29.2042 26.5563L28.6553 26.3014C27.9596 25.9784 27.3874 25.969 26.9567 26.2738C26.6916 26.4614 26.5358 26.7473 26.0665 27.908C25.163 30.1423 25.2277 30.6028 26.5347 31.2367L27.2497 31.5837V32.2652V32.9467L26.5587 33.2427C26.0478 33.4615 25.8108 33.6276 25.6488 33.8803C25.3003 34.4243 25.3567 34.8871 25.9566 36.4047C26.2464 37.1376 26.4834 37.7542 26.4834 37.7749C26.4834 37.7956 21.2758 37.8126 14.911 37.8126C2.07002 37.8126 2.80514 37.8508 2.11571 37.1478C1.37503 36.3925 1.43968 37.6775 1.41133 23.1552L1.38605 10.1571H24.4706H47.5552V16.3967V22.6364L47.7904 22.8832C48.0907 23.1985 48.4574 23.1976 48.7591 22.8809L48.9965 22.6315L48.9703 12.7992L48.9441 2.96668L48.6474 2.31301C48.1423 1.20005 47.2972 0.46421 46.1702 0.156077C45.6866 0.0238338 44.7636 0 40.125 0C34.7318 0 34.6469 0.00311771 34.3983 0.208472C34.1106 0.446109 34.0562 0.938778 34.2818 1.263C34.4129 1.45146 34.6154 1.45991 40.1484 1.50848C45.795 1.55806 45.8847 1.56198 46.2622 1.77619C46.4729 1.89586 46.7835 2.14486 46.9525 2.3297C47.5032 2.93209 47.5552 3.25711 47.5552 6.09688V8.64863H24.472H1.38882V6.09688C1.38882 3.25711 1.44083 2.93209 1.99157 2.3297C2.16053 2.14486 2.47115 1.89586 2.68187 1.77619L3.06499 1.55876L17.3202 1.50848C31.2918 1.4592 31.578 1.45428 31.7113 1.263C31.9137 0.972166 31.8812 0.465718 31.6455 0.24186C31.4494 0.055512 31.0617 0.04978 17.3502 0.0312759C5.18309 0.0147832 3.18481 0.0324826 2.73206 0.160704ZM5.34448 3.912C4.51234 4.46098 4.55735 5.82153 5.42321 6.29168C5.63805 6.40833 5.87559 6.44393 6.21178 6.41004C6.61233 6.36961 6.74585 6.30073 7.01002 5.99802C7.28912 5.67823 7.32724 5.56781 7.32724 5.07856C7.32724 4.5885 7.28931 4.47908 7.00781 4.15647C6.73014 3.83838 6.62038 3.78518 6.16973 3.75009C5.7686 3.71891 5.58163 3.75552 5.34448 3.912ZM9.46354 3.91763C8.96012 4.23994 8.81989 4.5707 8.84911 5.36698C8.85619 5.55845 8.98464 5.78644 9.23156 6.04579C9.55731 6.38772 9.65893 6.43619 10.0505 6.43619C10.8809 6.43619 11.4452 5.887 11.4452 5.07856C11.4452 4.01508 10.3309 3.36231 9.46354 3.91763ZM13.5261 3.89963C13.2494 4.07964 12.8825 4.75162 12.8825 5.07856C12.8825 5.41555 13.2551 6.08461 13.5418 6.26241C13.9116 6.4918 14.5782 6.48426 14.9495 6.24652C15.2781 6.03614 15.5644 5.49238 15.5644 5.07856C15.5644 4.6599 15.2893 4.14752 14.9443 3.92366C14.5577 3.67275 13.8921 3.66149 13.5261 3.89963ZM4.68034 12.8677C4.2181 12.9834 3.77932 13.3631 3.58269 13.8178C3.41785 14.1989 3.40425 14.5539 3.40233 18.5226C3.40099 21.3165 3.43576 22.9141 3.50213 23.0984C3.62694 23.4452 4.02998 23.9039 4.37719 24.0944C4.59423 24.2134 6.01016 24.2363 13.1699 24.2363C20.3296 24.2363 21.7455 24.2134 21.9626 24.0944C22.3098 23.9039 22.7128 23.4452 22.8376 23.0984C22.904 22.9141 22.9388 21.3165 22.9374 18.5226C22.935 13.6248 22.9376 13.643 22.1639 13.1053L21.7564 12.8221H16.0844C10.6412 12.8221 10.4043 12.8298 10.2107 13.0137C9.95107 13.2604 9.93622 13.8781 10.1843 14.1139C10.3429 14.2646 10.8735 14.2803 15.8236 14.2803C20.3262 14.2803 21.307 14.3044 21.3964 14.4177C21.4744 14.5163 21.4979 15.702 21.4799 18.6163L21.4549 22.6775H13.1699H4.88483L4.85983 18.6163C4.84182 15.702 4.86538 14.5163 4.94335 14.4177C5.024 14.3157 5.3441 14.2803 6.18582 14.2803C7.22897 14.2803 7.33538 14.2627 7.51507 14.0602C7.84867 13.6841 7.75874 13.157 7.32035 12.9189C7.02783 12.7601 5.24774 12.7256 4.68034 12.8677ZM25.2602 13.7442C25.1933 13.7725 25.0713 13.9319 24.9892 14.0986C24.8663 14.3483 24.8605 14.4534 24.9565 14.6967C25.0206 14.859 25.1504 15.0354 25.2451 15.0886C25.3502 15.1477 27.7419 15.1842 31.3859 15.1822C37.7824 15.1787 37.5819 15.1948 37.7719 14.67C37.8798 14.372 37.6973 13.8406 37.4531 13.7423C37.2639 13.6659 25.4409 13.6679 25.2602 13.7442ZM40.0729 13.7782C39.8071 13.9412 39.666 14.4254 39.8046 14.6985C40.0414 15.1652 40.1135 15.1788 42.3634 15.1822L44.499 15.1854L44.734 14.9385C44.8633 14.8027 44.9692 14.5744 44.9692 14.4311C44.9692 14.2878 44.8633 14.0596 44.734 13.9238L44.499 13.6769L42.3634 13.6799C41.189 13.6816 40.1583 13.7258 40.0729 13.7782ZM25.2602 16.9623C25.1933 16.9906 25.0713 17.15 24.9892 17.3167C24.8663 17.5664 24.8605 17.6715 24.9565 17.9148C25.0206 18.0771 25.1504 18.2535 25.2451 18.3067C25.352 18.3668 29.0334 18.4035 34.9581 18.4035H44.499L44.734 18.1566C44.8633 18.0208 44.9692 17.7925 44.9692 17.6492C44.9692 17.5059 44.8633 17.2776 44.734 17.1419L44.499 16.895L34.9404 16.9029C29.6833 16.9073 25.3272 16.934 25.2602 16.9623ZM33.568 23.9261C33.7361 24.364 33.9518 24.7965 34.0473 24.8872C34.1902 25.023 34.4685 25.0544 35.6178 25.0643C37.2533 25.0785 37.236 25.0872 37.6437 24.0572C37.7909 23.6855 37.9453 23.3409 37.9869 23.2914C38.0461 23.2209 39.9112 23.9369 40.0714 24.0916C40.0906 24.1101 39.9721 24.4639 39.808 24.8778C39.3725 25.9762 39.3907 26.0791 40.1572 26.851C40.5143 27.2105 40.9466 27.6744 41.1181 27.8818C41.5051 28.3498 41.7795 28.3634 42.7183 27.961C43.0871 27.8029 43.4166 27.7035 43.4507 27.74C43.5888 27.8879 44.2886 29.8173 44.2243 29.8727C44.1862 29.9054 43.8533 30.0596 43.4846 30.2152C42.4743 30.6414 42.4789 30.6317 42.4789 32.3859C42.4789 34.1188 42.438 34.0411 43.6107 34.5368L44.29 34.8239L44.1445 35.1869C44.0645 35.3866 43.8684 35.8779 43.7089 36.279C43.5493 36.68 43.3842 37.0081 43.3419 37.0081C43.2997 37.0081 42.9613 36.8723 42.59 36.7064C42.2185 36.5405 41.8092 36.4047 41.6803 36.4047C41.3548 36.4047 39.4141 38.3991 39.4134 38.7345C39.4131 38.8635 39.5479 39.3216 39.713 39.7524C39.878 40.1831 39.9968 40.5487 39.9769 40.5645C39.9193 40.6104 37.9941 41.433 37.9443 41.433C37.9195 41.433 37.7627 41.0822 37.5957 40.6536C37.1588 39.5311 37.1878 39.5468 35.5372 39.5442C33.8859 39.5417 33.912 39.5277 33.4754 40.6492L33.1737 41.4241L32.726 41.2381C32.1973 41.0183 31.151 40.5345 31.1088 40.4902C31.0926 40.4731 31.2133 40.1239 31.377 39.7141C31.8252 38.5924 31.8236 38.5873 30.6523 37.3649C30.0481 36.7343 29.559 36.3041 29.4463 36.3041C29.342 36.3041 28.9326 36.447 28.5364 36.6216C28.0906 36.818 27.782 36.9033 27.7268 36.8453C27.6317 36.7454 26.8499 34.7774 26.8905 34.7401C26.9036 34.7281 27.2436 34.5751 27.6459 34.4002C28.0482 34.2254 28.4445 34.0045 28.5266 33.9093C28.6457 33.7711 28.6796 33.4345 28.6943 32.246C28.7167 30.4344 28.7857 30.5385 27.1188 29.8731L26.8805 29.7779L27.315 28.6915C27.5541 28.0941 27.7602 27.5928 27.7732 27.5778C27.7862 27.5626 28.1517 27.7097 28.5853 27.9046C29.019 28.0994 29.4427 28.2589 29.5268 28.2589C29.611 28.2589 29.9442 27.9761 30.2673 27.6304C30.5904 27.2847 31.0565 26.8122 31.3031 26.5803C31.849 26.067 31.8659 25.8764 31.4568 24.8538C31.2947 24.4489 31.1884 24.0899 31.2205 24.0563C31.2618 24.0129 33.0989 23.1776 33.2492 23.1339C33.2564 23.1318 33.3999 23.4883 33.568 23.9261ZM15.1724 26.7831C14.911 26.9279 14.6681 27.1672 14.5343 27.4116C14.3206 27.8023 14.3186 27.8404 14.3427 31.1753C14.367 34.5245 14.3685 34.5461 14.5907 34.8734C14.7137 35.0544 14.9814 35.2919 15.1855 35.4014C15.5314 35.5865 15.7569 35.6002 18.4757 35.6002C20.3107 35.6002 21.4947 35.5603 21.6642 35.4929C22.0476 35.3404 22.3624 35.0096 22.5669 34.5442C22.7266 34.1811 22.7436 33.8487 22.7417 31.125C22.7391 27.4384 22.6829 27.192 21.7423 26.7384C21.3978 26.5723 21.0682 26.5535 18.4768 26.5515C15.6431 26.5493 15.5874 26.5532 15.1724 26.7831ZM4.25373 27.542C4.09349 27.6781 4.03238 27.8345 4.03238 28.108C4.03238 28.3816 4.09349 28.538 4.25373 28.6741C4.46119 28.8505 4.70007 28.8623 8.06054 28.8623H11.6461L11.8811 28.6154C12.1808 28.3008 12.1808 27.9153 11.8811 27.6007L11.6461 27.3538H8.06054C4.70007 27.3538 4.46119 27.3656 4.25373 27.542ZM34.6737 27.5725C33.9675 27.7139 33.0739 28.1992 32.4987 28.7536C30.547 30.6346 30.5023 33.7622 32.3988 35.7376C33.3325 36.7103 34.5421 37.1744 35.9069 37.0836C39.2006 36.8646 41.156 33.1826 39.6433 30.0483C39.2798 29.2951 38.3489 28.3575 37.594 27.9844C36.5718 27.4791 35.732 27.3606 34.6737 27.5725ZM21.2645 28.284C21.2934 28.4085 21.305 29.7548 21.2903 31.2759L21.2634 34.0414L18.5097 34.0681L15.756 34.0948V31.1433C15.756 29.52 15.7847 28.1616 15.8199 28.1248C15.8549 28.0879 17.0825 28.0578 18.5478 28.0578H21.2118L21.2645 28.284ZM36.9914 29.3693C37.6415 29.7038 38.1283 30.2269 38.4722 30.9605C38.6469 31.3332 38.6913 31.5982 38.6931 32.2815C38.6951 33.0143 38.6578 33.217 38.431 33.702C37.256 36.2138 33.9092 36.2138 32.7343 33.702C32.5066 33.2152 32.4704 33.0171 32.4743 32.2815C32.4782 31.5592 32.5182 31.3471 32.7325 30.9131C33.0793 30.2103 33.4161 29.8123 33.9338 29.4938C34.9304 28.8806 35.9602 28.8386 36.9914 29.3693ZM4.25373 30.7601C4.09349 30.8962 4.03238 31.0526 4.03238 31.3261C4.03238 31.5997 4.09349 31.7561 4.25373 31.8922C4.46119 32.0686 4.70007 32.0804 8.06054 32.0804H11.6461L11.8811 31.8335C12.1808 31.5189 12.1808 31.1334 11.8811 30.8188L11.6461 30.5719H8.06054C4.70007 30.5719 4.46119 30.5837 4.25373 30.7601ZM35.1345 31.3375C34.8263 31.4971 34.529 31.9978 34.529 32.3572C34.529 32.4651 34.6268 32.7058 34.7463 32.8919C35.1572 33.5321 36.0081 33.5321 36.419 32.8919C36.7954 32.3055 36.627 31.6385 36.0273 31.3397C35.6224 31.138 35.5204 31.1377 35.1345 31.3375Z" fill="#F7B300"/>
</svg>
