<svg width="51" height="51" viewBox="0 0 51 51" fill="none" xmlns="http://www.w3.org/2000/svg">
<path fill-rule="evenodd" clip-rule="evenodd" d="M0.774022 0.202187C0.546134 0.322532 0.323133 0.551857 0.200562 0.79205C0.00139625 1.1824 0 1.34044 0 23.8763C0 46.4212 0.00129652 46.57 0.200761 46.9609C0.330014 47.2143 0.541846 47.4261 0.795265 47.5553C1.18392 47.7535 1.35596 47.756 14.5012 47.756C23.4745 47.756 27.8341 47.7893 27.8767 47.8581C27.9949 48.0493 29.6743 49.1266 30.5062 49.5447C31.4835 50.036 33.0214 50.5633 34.2082 50.8143C35.4696 51.0809 38.0979 51.0567 39.4545 50.7659C40.843 50.4683 41.854 50.1152 43.0843 49.4983C47.0294 47.5199 49.8327 43.86 50.7815 39.4492C50.9593 38.6226 51 38.1086 51 36.6886C51 34.7395 50.8266 33.6589 50.2529 32.0335C48.5837 27.304 44.5506 23.7808 39.5894 22.7178C38.7424 22.5363 38.2141 22.4931 36.7763 22.4874L35.006 22.4804V11.8327C35.006 1.35818 35.0027 1.17871 34.8053 0.791651C34.676 0.538297 34.4642 0.326521 34.2108 0.197301C33.8209 -0.00151363 33.6611 -0.00340806 17.4821 0.000979027C1.4154 0.00536611 1.14084 0.00865643 0.774022 0.202187ZM31.9896 13.112L31.9642 23.2361L31.1637 23.5637C29.5665 24.2173 27.8975 25.3378 26.6226 26.6123C21.8724 31.3614 21.095 38.8871 24.7759 44.4906L24.956 44.7648H13.974H2.99197V23.8763V2.98779H17.5035H32.015L31.9896 13.112ZM7.25662 6.68311C7.02873 6.80345 6.80573 7.03278 6.68316 7.27297C6.49138 7.64876 6.4826 7.85496 6.4826 11.9614C6.4826 16.0695 6.49138 16.2739 6.68336 16.6502C6.81261 16.9035 7.02444 17.1153 7.27786 17.2445C7.66453 17.4416 7.84624 17.4452 17.5529 17.4452C27.2595 17.4452 27.4412 17.4416 27.8279 17.2445C28.0813 17.1153 28.2932 16.9035 28.4224 16.6502C28.6144 16.2739 28.6232 16.0695 28.6232 11.9614C28.6232 7.85326 28.6144 7.64886 28.4224 7.27257C28.2932 7.01922 28.0813 6.80744 27.8279 6.67822C27.4411 6.481 27.264 6.47761 17.5319 6.4819C7.86977 6.48619 7.62044 6.49107 7.25662 6.68311ZM25.6312 11.9614V14.454H17.5529H9.47457V11.9614V9.46871H17.5529H25.6312V11.9614ZM8.05448 21.0408C7.63341 21.2631 7.28046 21.8514 7.28046 22.3308C7.28046 22.8256 7.63321 23.4 8.07572 23.6257C8.40005 23.7911 8.66364 23.8264 9.5743 23.8264C10.9058 23.8264 11.3472 23.6587 11.6674 23.0314C11.9217 22.533 11.9217 22.1286 11.6674 21.6303C11.3445 20.9978 10.9075 20.8343 9.55336 20.8396C8.63053 20.8432 8.36006 20.8796 8.05448 21.0408ZM16.0331 21.0408C15.612 21.2631 15.259 21.8514 15.259 22.3308C15.259 22.8256 15.6118 23.4 16.0543 23.6257C16.3786 23.7911 16.6422 23.8264 17.5529 23.8264C18.4635 23.8264 18.7271 23.7911 19.0515 23.6257C19.494 23.4 19.8467 22.8256 19.8467 22.3308C19.8467 21.8361 19.494 21.2617 19.0515 21.036C18.4853 20.7472 16.5836 20.7503 16.0331 21.0408ZM24.0116 21.0408C23.5906 21.2631 23.2376 21.8514 23.2376 22.3308C23.2376 22.8256 23.5904 23.4 24.0329 23.6257C24.3572 23.7911 24.6208 23.8264 25.5315 23.8264C26.4421 23.8264 26.7057 23.7911 27.03 23.6257C27.4726 23.4 27.8253 22.8256 27.8253 22.3308C27.8253 21.8361 27.4726 21.2617 27.03 21.036C26.4639 20.7472 24.5622 20.7503 24.0116 21.0408ZM38.3969 25.5665C40.8319 25.9356 42.872 26.9761 44.6386 28.7496C46.4097 30.5278 47.4604 32.5859 47.8261 34.9936C48.74 41.0092 44.8118 46.5798 38.746 47.8705C37.9389 48.0423 35.5305 48.0401 34.657 47.8668C29.8162 46.9062 26.1463 42.9587 25.5279 38.0468C25.0978 34.6306 26.282 31.224 28.7596 28.7498C31.3398 26.1733 34.8188 25.0241 38.3969 25.5665ZM36.0018 28.5978C35.6108 28.8058 35.2096 29.425 35.2071 29.8243C35.2058 30.0384 35.1057 30.1459 34.6819 30.3876C33.269 31.1937 32.514 32.8025 32.8042 34.3886C32.9488 35.1781 33.2457 35.7138 33.8447 36.2659C34.3495 36.731 35.6686 37.4259 36.8251 37.8359C37.7806 38.1747 38.0977 38.4648 38.0977 39.0004C38.0977 39.4984 37.888 39.9015 37.4759 40.1953C37.2001 40.3921 37.0344 40.4263 36.3932 40.4191C35.7319 40.4117 35.5425 40.3643 34.8963 40.0452C34.0384 39.6214 33.8321 39.6026 33.231 39.8935C32.4929 40.2508 32.2224 41.109 32.6091 41.8666C32.8696 42.3772 33.815 42.9406 35.031 43.3097C35.1299 43.3397 35.2062 43.4611 35.2071 43.5902C35.208 43.7152 35.309 43.9924 35.4315 44.206C36.1536 45.465 38.0105 45.0585 38.1742 43.6056C38.2217 43.1844 38.2506 43.1496 38.7599 42.9004C39.4768 42.5493 40.32 41.6478 40.7192 40.8053C41.0198 40.1708 41.0398 40.0598 41.0398 39.0317C41.0398 38.0525 41.0114 37.8743 40.7745 37.3691C40.4617 36.702 39.8171 35.9712 39.2504 35.6412C39.0278 35.5115 38.3745 35.2232 37.7985 35.0003C36.4199 34.4669 35.7042 34.0533 35.7042 33.7901C35.7042 32.8409 36.8845 32.496 37.8983 33.149C38.83 33.7491 39.7286 33.5607 40.1765 32.6714C40.5205 31.988 40.4163 31.4966 39.8002 30.8976C39.5412 30.6459 39.0811 30.3377 38.7747 30.2107C38.2833 30.0071 38.2127 29.9416 38.1646 29.6444C38.005 28.6616 36.8933 28.1236 36.0018 28.5978ZM8.05448 29.0174C7.63341 29.2396 7.28046 29.8279 7.28046 30.3074C7.28046 30.8021 7.63321 31.3765 8.07572 31.6022C8.40005 31.7677 8.66364 31.803 9.5743 31.803C10.9058 31.803 11.3472 31.6352 11.6674 31.0079C11.9217 30.5096 11.9217 30.1052 11.6674 29.6068C11.3445 28.9743 10.9075 28.8109 9.55336 28.8161C8.63053 28.8197 8.36006 28.8561 8.05448 29.0174ZM16.0331 29.0174C15.612 29.2396 15.259 29.8279 15.259 30.3074C15.259 30.8021 15.6118 31.3765 16.0543 31.6022C16.3786 31.7677 16.6422 31.803 17.5529 31.803C18.4635 31.803 18.7271 31.7677 19.0515 31.6022C19.494 31.3765 19.8467 30.8021 19.8467 30.3074C19.8467 29.8126 19.494 29.2382 19.0515 29.0125C18.4853 28.7237 16.5836 28.7268 16.0331 29.0174ZM8.05448 36.9939C7.63341 37.2161 7.28046 37.8044 7.28046 38.2839C7.28046 38.7786 7.63321 39.353 8.07572 39.5788C8.40005 39.7442 8.66364 39.7795 9.5743 39.7795C10.9058 39.7795 11.3472 39.6118 11.6674 38.9844C11.9217 38.4861 11.9217 38.0817 11.6674 37.5833C11.3445 36.9508 10.9075 36.7874 9.55336 36.7927C8.63053 36.7963 8.36006 36.8326 8.05448 36.9939ZM16.0331 36.9939C15.612 37.2161 15.259 37.8044 15.259 38.2839C15.259 38.7786 15.6118 39.353 16.0543 39.5788C16.3786 39.7442 16.6422 39.7795 17.5529 39.7795C18.4635 39.7795 18.7271 39.7442 19.0515 39.5788C19.494 39.353 19.8467 38.7786 19.8467 38.2839C19.8467 37.7891 19.494 37.2147 19.0515 36.989C18.4853 36.7002 16.5836 36.7033 16.0331 36.9939Z" fill="#0693E3"/>
</svg>
