<svg width="52" height="52" viewBox="0 0 52 52" fill="none" xmlns="http://www.w3.org/2000/svg">
<path fill-rule="evenodd" clip-rule="evenodd" d="M0 26V52H26H52V50.4766V48.9531H47.3281H42.6562V35.2422V21.5312H38.0859H33.5156V35.2422V48.9531H31.9922H30.4688V39.8125V30.6719H25.8984H21.3281V39.8125V48.9531H19.8047H18.2812V44.3828V39.8125H13.7109H9.14062V44.3828V48.9531H6.09375H3.04688V24.4766V0H1.52344H0V26ZM35.0391 7.81737V9.33786L36.3783 9.3662L37.7175 9.39453L36.6637 10.7148C35.2864 12.4405 31.9982 15.7228 30.2656 17.1014C24.4963 21.6922 17.8041 24.6767 10.6252 25.8605C9.72481 26.0089 8.98026 26.1357 8.97041 26.1423C8.93831 26.1637 9.32323 29.0602 9.36355 29.1005C9.38519 29.1221 9.83724 29.0745 10.3682 28.9948C17.7993 27.8784 24.7582 24.9974 30.7935 20.5385C33.4244 18.5949 36.4969 15.6974 38.4922 13.2785L39.5586 11.9857L39.5876 12.9498L39.6167 13.9141H41.1365H42.6562V10.1055V6.29688H38.8477H35.0391V7.81737ZM39.6094 36.7656V48.9531H38.0859H36.5625V36.7656V24.5781H38.0859H39.6094V36.7656ZM27.4219 41.3359V48.9531H25.8984H24.375V41.3359V33.7188H25.8984H27.4219V41.3359ZM15.2344 45.9062V48.9531H13.7109H12.1875V45.9062V42.8594H13.7109H15.2344V45.9062Z" fill="#9549D1"/>
</svg>
