<svg width="73" height="73" viewBox="0 0 73 73" fill="none" xmlns="http://www.w3.org/2000/svg">
<path opacity="0.73" fill-rule="evenodd" clip-rule="evenodd" d="M15.1113 72.8521C10.3607 72.1095 6.29194 69.6535 3.44219 65.8083C0.960184 62.4594 -0.191166 58.5036 0.0258271 54.071C0.170156 51.1225 0.782877 48.8368 2.13495 46.2031C3.07387 44.3743 3.54869 43.7706 8.59578 37.989C12.9416 33.0106 12.9561 32.9918 12.5122 32.9206C12.0952 32.8538 12.0408 32.7717 11.6615 31.6352C11.4385 30.9675 11.226 30.3404 11.1891 30.2416C11.1422 30.1157 10.715 30.2644 9.76069 30.7386L8.3992 31.4153L6.12677 29.1451L3.85419 26.8748L4.48618 25.616C4.8338 24.9236 5.11818 24.305 5.11818 24.2414C5.11818 24.1777 4.52387 23.9314 3.79766 23.6937L2.47714 23.2617V19.9952V16.7287L3.79766 16.2966C4.52387 16.059 5.11818 15.8126 5.11818 15.7489C5.11818 15.6854 4.8338 15.0668 4.48618 14.3744L3.85419 13.1155L6.12677 10.8452L8.3992 8.57508L9.76069 9.25177C10.715 9.72594 11.1422 9.87462 11.1891 9.74879C11.226 9.64996 11.4388 9.02282 11.662 8.35513L12.0678 7.14113L15.29 7.10271L18.5122 7.06444L18.9649 8.42382C19.2139 9.17164 19.4779 9.78335 19.5514 9.78335C19.625 9.78335 20.2516 9.49885 20.9437 9.15108L22.202 8.5188L24.4713 10.7924L26.7404 13.0658L26.064 14.4279C25.5909 15.3807 25.4418 15.8098 25.5672 15.8559C25.666 15.892 26.1087 16.0448 26.5511 16.1954L27.3554 16.4692L27.9203 15.8756C28.231 15.5491 29.5993 13.9966 30.961 12.4256C34.4812 8.36413 35.699 7.05801 37.9441 4.93552L39.9244 3.06355L41.4707 3.7878L43.0172 4.51206L44.0896 4.01903C44.6795 3.74781 45.402 3.45102 45.6954 3.35933C45.9887 3.26764 46.2778 3.11739 46.3378 3.02555C46.3978 2.93358 46.6717 2.21518 46.9465 1.42923L47.4462 3.06187e-07H51.8597H56.2732L56.7933 1.56034L57.3134 3.12053L58.0751 3.37961C58.4941 3.52215 59.268 3.8375 59.795 4.08045L60.7529 4.52219L62.2237 3.7838L63.6946 3.04541L66.8253 6.17751L69.956 9.30961L69.2179 10.7811L68.4798 12.2526L68.9214 13.211C69.1642 13.7381 69.4794 14.5124 69.6219 14.9315L69.8809 15.6936L71.4404 16.2139L73 16.7342V21.1498V25.5653L71.5714 26.0651C70.7858 26.3401 70.0677 26.6142 69.9758 26.6741C69.884 26.7341 69.7338 27.0233 69.6422 27.3168C69.5505 27.6103 69.2533 28.3343 68.9816 28.9259L68.4875 30.0013L69.2146 31.5588L69.9415 33.1163L69.0447 34.0539C68.5514 34.5697 67.5693 35.5931 66.8622 36.3285C66.1551 37.0638 63.5399 39.4569 61.0509 41.6465L56.5253 45.6276L56.8054 46.4509C56.9595 46.9038 57.1151 47.3551 57.1512 47.454C57.1973 47.5795 57.6262 47.4303 58.5785 46.957L59.94 46.2803L62.2124 48.5504L64.485 50.8207L63.853 52.0796C63.5054 52.772 63.221 53.3988 63.221 53.4725C63.221 53.5461 63.8325 53.8102 64.5799 54.0592L65.9387 54.5121L65.9005 57.7358L65.8621 60.9594L64.6486 61.3655C63.9812 61.5887 63.3544 61.8017 63.2556 61.8385C63.1298 61.8855 63.2784 62.3128 63.7524 63.2676L64.4288 64.6297L62.1596 66.9031L59.8903 69.1767L58.632 68.5445C57.9399 68.1967 57.3217 67.9122 57.2581 67.9122C57.1945 67.9122 56.9482 68.5066 56.7108 69.2333L56.2789 70.5544L53.053 70.5928L49.827 70.6311L49.3743 69.2717C49.1253 68.5239 48.8613 67.9122 48.7878 67.9122C48.7142 67.9122 48.0876 68.1967 47.3955 68.5445L46.1372 69.1767L43.8679 66.9031L41.5988 64.6297L42.2752 63.2676C42.7491 62.3128 42.8977 61.8855 42.772 61.8385C42.6732 61.8017 42.0463 61.589 41.3789 61.3659C40.242 60.986 40.1609 60.9323 40.0941 60.5137C40.0229 60.0681 40.008 60.0796 35.0538 64.4126C32.321 66.8027 29.655 69.0826 29.1294 69.4791C27.2918 70.865 24.5378 72.0937 22.0351 72.6442C20.3661 73.0112 16.8124 73.1181 15.1113 72.8521ZM20.4291 70.4229C23.655 69.8054 26.515 68.2454 28.7638 65.8768C33.9191 60.4466 34.371 52.1317 29.8382 46.1134C26.4299 41.5883 20.6411 39.3028 15.0555 40.2773C8.63504 41.3974 3.58181 46.5169 2.54481 52.9519C2.26129 54.7121 2.43031 57.8215 2.89614 59.4142C3.32741 60.8889 4.15427 62.7009 4.93559 63.8832C5.6391 64.9478 7.38233 66.775 8.51555 67.6358C10.2098 68.9228 12.9765 70.1277 15.0246 70.4704C16.2194 70.6704 19.2767 70.6435 20.4291 70.4229ZM54.9961 66.9531L55.4261 65.6372L56.1662 65.3367L56.9062 65.0362L58.1854 65.6789L59.4646 66.3216L60.4862 65.2925C61.0481 64.7265 61.5079 64.1832 61.5079 64.0851C61.5079 63.9871 61.2465 63.3867 60.927 62.7509L60.346 61.595L60.6465 60.8543L60.947 60.1138L62.2624 59.6836L63.5779 59.2536L63.6183 57.7444L63.6586 56.2351L62.2785 55.7538L60.8985 55.2724L60.6257 54.5321L60.353 53.7919L60.9305 52.6429C61.2481 52.011 61.5079 51.4105 61.5079 51.3083C61.5079 51.2064 61.0589 50.6772 60.5103 50.1325L59.5127 49.142L58.2379 49.7671L56.9632 50.3923L56.2107 50.1062L55.4582 49.8201L55.0596 48.6333C54.8404 47.9806 54.6376 47.4231 54.6092 47.3947C54.5808 47.3661 51.8333 49.7274 48.5036 52.6419L42.4496 57.9407V58.594V59.2474L43.793 59.6956L45.1362 60.1438L45.4226 60.8977L45.7089 61.6516L45.0841 62.9268L44.4592 64.2022L45.4493 65.2003C45.9937 65.7491 46.5227 66.1983 46.6246 66.1983C46.7267 66.1983 47.33 65.9368 47.9655 65.6172L49.1209 65.0359L49.8824 65.3451L50.6438 65.6543L51.0927 67.0021L51.5415 68.3501L53.0539 68.3097L54.5663 68.2692L54.9961 66.9531ZM15.8663 63.412C13.6322 62.9262 11.3909 61.1671 10.3357 59.0709C9.39623 57.2045 9.18495 55.3776 9.68289 53.4294C10.0895 51.8393 10.7313 50.7156 11.8935 49.5595C13.5324 47.9293 15.3306 47.1629 17.5382 47.1539C19.9118 47.1442 21.8337 47.9232 23.466 49.5562C25.0983 51.1892 25.8769 53.1119 25.8672 55.4866C25.8582 57.6952 25.0921 59.4942 23.4627 61.1338C21.4292 63.1798 18.6423 64.0156 15.8663 63.412ZM51.8075 63.4803C48.9052 62.8715 46.8142 59.8728 47.2316 56.9178C47.7855 52.9979 51.9469 50.7639 55.5516 52.4515C58.2953 53.736 59.5748 56.9624 58.4906 59.862C57.5281 62.4354 54.5399 64.0533 51.8075 63.4803ZM47.9458 49.9949C55.2872 43.5793 61.3115 38.2809 61.3332 38.2208C61.3549 38.1607 61.2264 38.0457 61.0477 37.9653C60.783 37.8463 60.4581 37.9321 59.2952 38.4286C58.51 38.7636 57.7408 39.0916 57.5859 39.1571C57.3909 39.2397 57.1438 39.737 56.7819 40.7759L56.2594 42.2755L51.8471 42.3132L47.4349 42.3509L47.0302 41.0992C46.4477 39.2981 46.3466 39.1411 45.6354 38.9302C45.2965 38.8298 44.5496 38.5314 43.9754 38.2673L42.9317 37.787L41.4397 38.5294L39.9476 39.2718L36.8468 36.1694L33.7457 33.0672L34.4878 31.5744L35.2299 30.0817L34.7498 29.0376C34.4858 28.4631 34.1876 27.7159 34.0872 27.3768C33.8764 26.6653 33.7195 26.5642 31.9191 25.9814L30.668 25.5765L30.7057 21.1623L30.7434 16.7481L32.2424 16.2254C33.2808 15.8633 33.7779 15.6161 33.8604 15.421C33.9259 15.266 34.2537 14.4965 34.5886 13.711C35.0848 12.5475 35.1706 12.2225 35.0517 11.9577C34.9713 11.7789 34.8613 11.6503 34.807 11.672C34.7529 11.6938 29.487 17.6886 23.1049 24.994C16.723 32.2994 11.334 38.4583 11.1293 38.6804L10.7572 39.0844L11.7422 38.7145C13.4516 38.0725 15.3954 37.7463 17.5382 37.7419C19.7689 37.7372 20.9074 37.9003 22.8917 38.5089C28.4049 40.1999 32.8181 44.6151 34.5084 50.1308C35.1167 52.1159 35.2797 53.2549 35.275 55.4866C35.2706 57.6318 34.9441 59.5778 34.3021 61.2852L33.9315 62.2707L34.2647 61.9652C34.448 61.7972 40.6045 56.4107 47.9458 49.9949ZM19.9974 60.7388C21.625 59.9875 22.7382 58.7338 23.2563 57.0681C24.643 52.6107 20.4128 48.3786 15.9574 49.766C14.2961 50.2833 13.0491 51.3895 12.2824 53.0263C11.9429 53.7509 11.8992 54.0151 11.8992 55.3438C11.8992 56.6848 11.9412 56.933 12.2957 57.6904C13.0274 59.2536 13.9876 60.1646 15.6345 60.8582C16.3607 61.1641 16.6412 61.2031 17.8237 61.1625C18.924 61.1248 19.3342 61.0448 19.9974 60.7388ZM54.6158 60.8355C55.8301 60.23 56.5136 59.0866 56.5082 57.6692C56.5042 56.6005 56.1532 55.8412 55.3269 55.1134C54.2276 54.1455 52.8643 53.9371 51.5862 54.5416C49.9376 55.3214 49.1623 57.0567 49.6841 58.7991C49.9036 59.5325 50.8544 60.6011 51.5806 60.9313C52.4492 61.3259 53.712 61.2861 54.6158 60.8355ZM16.7022 58.759C14.5992 58.117 13.5428 55.7147 14.5251 53.808C15.6035 51.7145 18.4022 51.2156 20.0902 52.816C21.4509 54.1061 21.5055 56.3941 20.2076 57.7486C19.3121 58.6834 17.8423 59.107 16.7022 58.759ZM18.4726 56.1357C18.9362 55.672 18.9362 55.0156 18.4726 54.5518C17.431 53.5097 15.8404 55.0814 16.8492 56.1559C17.2745 56.6088 18.009 56.5996 18.4726 56.1357ZM4.747 54.279C5.0595 50.828 6.86754 47.4261 9.50244 45.3313C11.7776 43.5226 13.655 42.7871 16.9315 42.4209L17.681 42.3371V43.5351V44.7331L16.6283 44.822C11.7366 45.2357 7.52167 49.4429 7.1562 54.2769L7.07554 55.3438H5.86309H4.6505L4.747 54.279ZM55.0448 38.6225L55.5333 37.2547L56.5576 36.9348C57.1211 36.7588 58.2744 36.2855 59.1207 35.8829L60.6594 35.1509L61.9439 35.7809L63.2286 36.4109L65.1648 34.4738L67.1011 32.5367L66.4622 31.2652L65.8235 29.9935L66.5066 28.6317C66.8822 27.8827 67.3633 26.7128 67.5756 26.0317L67.9615 24.7934L69.303 24.3464L70.6445 23.8992V21.1486V18.398L70.0378 18.2166C69.7041 18.1169 69.0981 17.9108 68.6911 17.7589L67.9512 17.4825L67.4381 15.9537C67.1559 15.1129 66.6765 13.9566 66.3727 13.3842L65.8207 12.3432L66.4564 11.0365L67.0921 9.7298L65.1832 7.82026L63.2746 5.91057L61.9685 6.54656L60.6624 7.18255L59.6218 6.63026C59.0496 6.32633 57.8938 5.84673 57.0534 5.56437L55.5253 5.05107L55.2491 4.31082C55.0972 3.90363 54.8912 3.29735 54.7915 2.96357L54.6102 2.35657H51.8608H49.1115L48.6645 3.69868L48.2176 5.04078L46.9799 5.42684C46.2991 5.63921 45.1298 6.12052 44.3811 6.49629L43.0199 7.1797L41.7488 6.54071L40.4778 5.90158L38.5416 7.83868L36.6054 9.77578L37.2351 11.061L37.8648 12.3462L37.1331 13.8855C36.7307 14.7322 36.2576 15.886 36.0817 16.4497L35.7619 17.4745L34.3947 17.9632L33.0275 18.452L32.9891 21.1518L32.9509 23.8514L34.3499 24.3334L35.7489 24.8154L36.1609 26.1163C36.3875 26.8317 36.8579 27.9865 37.2062 28.6827L37.8395 29.9483L37.2285 31.3014L36.6173 32.6545L38.4888 34.5267L40.3601 36.3989L41.7126 35.7875L43.065 35.1762L44.3302 35.8098C45.026 36.1583 46.1803 36.6289 46.8954 36.8555L48.1957 37.2677L48.6775 38.6674L49.1593 40.067L51.8577 40.0288L54.5563 39.9904L55.0448 38.6225ZM50.0872 32.8217C48.9608 32.6323 47.43 32.1054 46.3041 31.5195C45.2587 30.9757 44.753 30.5848 43.591 29.4222C42.4282 28.2588 42.0386 27.7543 41.4951 26.7078C40.5977 24.9801 40.2327 23.6359 40.1358 21.7016C39.7575 14.1484 46.5609 8.1836 53.9617 9.58012C58.7862 10.4905 62.5142 14.2201 63.4242 19.0468C64.7818 26.2481 59.0951 33.0086 51.7706 32.9012C51.041 32.8905 50.2835 32.8548 50.0872 32.8217ZM20.1079 24.838C22.8952 21.6498 25.2894 18.8922 25.4282 18.7098L25.6807 18.3783L24.4419 17.9651L23.2032 17.5521L22.9166 16.7979L22.6303 16.044L23.2551 14.7687L23.88 13.4933L22.8899 12.4953C22.3455 11.9464 21.8165 11.4972 21.7146 11.4972C21.6125 11.4972 21.0122 11.7572 20.3807 12.0749L19.2322 12.6527L18.4923 12.3799L17.7523 12.1069L17.2711 10.7263L16.79 9.3456L15.2815 9.38588L13.7729 9.4263L13.3431 10.7424L12.9131 12.0584L12.1729 12.359L11.4325 12.6597L10.2772 12.0784C9.64163 11.7587 9.04148 11.4972 8.94354 11.4972C8.84547 11.4972 8.30241 11.9573 7.73666 12.5194L6.70808 13.5414L7.3505 14.8213L7.99291 16.101L7.69255 16.8414L7.39218 17.5818L6.0768 18.0119L4.76128 18.442L4.72088 19.955L4.68048 21.4681L6.02784 21.9171L7.37505 22.3662L7.68412 23.128L7.9932 23.8898L7.41217 25.0457C7.09267 25.6815 6.83128 26.2851 6.83128 26.3872C6.83128 26.4892 7.28026 27.0183 7.82888 27.5631L8.82648 28.5535L10.1013 27.9284L11.376 27.3033L12.1285 27.5893L12.881 27.8754L13.2827 29.077C13.5035 29.7377 13.7143 30.3587 13.7509 30.4569C13.7901 30.5616 14.0702 30.6353 14.4288 30.635L15.0399 30.6346L20.1079 24.838ZM54.0845 30.3223C54.4378 30.2374 55.1766 29.9612 55.7262 29.7085C59.1751 28.1228 61.2264 24.9276 61.2203 21.1506C61.2165 18.8879 60.5783 17.0279 59.2273 15.3439C57.3498 13.0034 54.8371 11.7899 51.8588 11.785C48.084 11.7789 44.8956 13.8272 43.3032 17.2815C42.6652 18.6652 42.4616 19.6271 42.4716 21.2092C42.4879 23.7815 43.398 25.9509 45.2293 27.7832C47.5851 30.1399 50.8931 31.0885 54.0845 30.3223ZM49.9445 27.9378C48.6466 27.5176 47.7582 26.9889 46.89 26.1204C44.0624 23.2915 44.124 18.7972 47.0276 16.0797C49.9062 13.3858 54.0392 13.4382 56.8036 16.2037C59.5678 18.9693 59.6202 23.1041 56.9275 25.984C55.1464 27.8887 52.2743 28.6924 49.9445 27.9378ZM14.3568 25.7738C12.6331 25.484 10.8608 24.1793 10.0772 22.6235C7.93881 18.3779 11.5592 13.4112 16.216 14.2021C20.1133 14.864 22.2557 18.971 20.5644 22.5383C19.4781 24.8294 16.8594 26.1945 14.3568 25.7738ZM53.8984 25.3333C55.6337 24.5071 56.5787 22.8963 56.4859 20.9235C56.3686 18.4303 54.578 16.6388 52.0858 16.5214C47.8001 16.3196 45.5455 21.351 48.5384 24.4378C49.9534 25.8972 51.9972 26.2387 53.8984 25.3333ZM16.753 23.154C18.9422 22.1185 19.4993 19.486 17.9112 17.681C17.1837 16.8544 16.4248 16.5032 15.3566 16.4992C13.3228 16.4915 11.8237 17.9748 11.831 19.9875C11.835 21.0991 12.1752 21.8447 13.0159 22.5851C14.1183 23.5559 15.4686 23.7614 16.753 23.154Z" fill="#33CFD9"/>
</svg>
