<svg width="66" height="66" viewBox="0 0 66 66" fill="none" xmlns="http://www.w3.org/2000/svg">
<path fill-rule="evenodd" clip-rule="evenodd" d="M1.91721 0.169389C1.25223 0.380159 0.325654 1.36336 0.132655 2.06296C0.0100492 2.50745 -0.0184429 5.05202 0.010307 12.9657L0.0478237 23.2888L0.436528 23.9175C0.719644 24.3751 1.01294 24.6442 1.51497 24.9064L2.20445 25.2666H9.21608C16.0559 25.2666 16.234 25.2602 16.4856 25.0087C16.833 24.6613 16.8262 23.9634 16.4722 23.6429C16.2135 23.4088 15.8782 23.3957 9.32361 23.3619L2.44644 23.3263L2.18189 22.99C1.92005 22.6573 1.91721 22.5442 1.91721 12.6101V2.56649L2.23372 2.25014L2.5501 1.93366H24.5845H46.6188L46.9585 1.66643C47.4283 1.29697 47.4283 0.636691 46.9585 0.267232L46.6188 0L24.4936 0.0131489C8.68015 0.0225594 2.23978 0.0671626 1.91721 0.169389ZM49.6074 0.241192C49.3917 0.415738 49.3095 0.616195 49.3095 0.966832C49.3095 1.31747 49.3917 1.51793 49.6074 1.69247C49.89 1.92129 50.2525 1.93366 56.6653 1.93366H63.4254L63.7418 2.25014L64.0583 2.56649V12.6101C64.0583 22.5757 64.0562 22.6562 63.791 22.9932L63.5239 23.3329H50.0129H36.502L36.4135 22.6667C36.2919 21.7502 36.0248 21.1643 35.4632 20.5826C34.5109 19.5959 33.3226 19.275 32.0215 19.6531C31.4447 19.8208 31.1289 20.0192 30.6136 20.5376C29.9042 21.2512 29.6357 21.8723 29.6357 22.8V23.3329H24.5505H19.4652L19.1155 23.6336C18.8583 23.8548 18.7689 24.0477 18.7779 24.3622C18.8023 25.2198 18.6503 25.1953 24.3866 25.2666L29.5713 25.331L29.6044 33.818C29.6227 38.4857 29.5899 42.2854 29.5315 42.2617C29.473 42.2378 29.1177 41.8703 28.7421 41.4449C26.1314 38.489 24.9383 37.7001 22.5818 37.3722C21.0853 37.164 20.2309 37.5207 19.6909 38.5793C19.1924 39.5561 19.2961 39.8419 21.827 44.4743C23.0859 46.7786 24.4443 49.1246 24.8453 49.6878C25.5946 50.74 27.1391 52.3636 29.7969 54.8937L31.3118 56.3356V57.3506C31.3118 58.357 31.3085 58.3668 30.9243 58.5258C30.4021 58.7422 29.8086 59.4423 29.6435 60.0368C29.5691 60.3046 29.5104 61.3068 29.5131 62.264C29.52 64.6375 29.7573 65.2534 30.8605 65.7599C31.3432 65.9817 31.8911 65.9969 39.4254 65.9996C47.3371 66.0024 47.4843 65.9978 48.0329 65.7322C48.4051 65.552 48.698 65.2798 48.9116 64.9152C49.2183 64.3918 49.2321 64.2761 49.2321 62.2153C49.2321 60.3249 49.201 60.0014 48.9772 59.5625C48.7328 59.0836 48.2614 58.6593 47.7817 58.4861C47.5914 58.4176 47.5561 58.2367 47.5561 57.3303C47.5561 56.3372 47.5856 56.2159 47.9465 55.7253C48.9943 54.3005 50.1565 51.3205 50.6387 48.8222C51.0782 46.545 51.1852 44.758 51.1422 40.4136C51.1033 36.4711 51.0891 36.2656 50.8228 35.7728C49.9933 34.2388 48.0476 33.4784 46.5528 34.1043C46.0892 34.2984 46.0672 34.2953 45.8801 34.0106C44.8668 32.4684 43.236 31.853 41.6475 32.4134L41.1214 32.599L40.8668 32.1878C40.2162 31.1366 39.1769 30.5591 37.9275 30.5547C37.4889 30.5532 36.9813 30.6085 36.7994 30.6776L36.4687 30.8033V28.0349V25.2666H50.1093H63.7498L64.4052 24.94C65.1052 24.5912 65.6532 23.9361 65.8662 23.1937C66.0635 22.5058 66.0339 2.68418 65.8346 2.01307C65.6273 1.31541 64.6766 0.364818 63.9789 0.157529C63.5902 0.0421539 61.6367 0 56.6768 0C50.2528 0 49.89 0.0123755 49.6074 0.241192ZM12.7419 5.05976C12.2276 5.31913 12.0915 5.49316 11.4575 6.70311L10.7485 8.05642L9.38278 8.26693C8.63167 8.38269 7.89823 8.541 7.75293 8.61873C7.32143 8.84974 6.83255 9.51531 6.74256 9.99434C6.57135 10.9075 6.76641 11.3261 7.91086 12.5001L8.98325 13.6001L8.75505 14.9378C8.43275 16.8269 8.64766 17.53 9.70406 18.0412C10.5217 18.437 10.9328 18.3769 12.3821 17.6497L13.6887 16.9941L15.0059 17.6684C16.1804 18.2697 16.3876 18.3354 16.9191 18.2755C17.705 18.1869 18.3345 17.6986 18.6173 16.9577C18.8272 16.4084 18.8263 16.3071 18.6007 14.9499L18.3629 13.5208L19.3513 12.5936C20.4034 11.6066 20.6111 11.2484 20.6111 10.4206C20.6111 9.10485 19.8382 8.49124 17.8608 8.23703L16.5931 8.07408L15.9724 6.84079C15.2897 5.48413 14.9429 5.08477 14.2832 4.89552C13.6378 4.71054 13.3801 4.73799 12.7419 5.05976ZM32.137 5.01528C31.5247 5.29334 31.2799 5.60776 30.5657 7.03248L30.0452 8.0706L28.6628 8.27712C27.1783 8.49897 26.8168 8.67339 26.316 9.40921C25.996 9.87935 25.9247 10.7754 26.1691 11.256C26.2479 11.4108 26.7524 11.9854 27.2902 12.5326L28.268 13.5277L28.0851 14.7241C27.8529 16.2412 27.8726 16.7788 28.1796 17.3042C28.4873 17.8311 29.298 18.3005 29.9051 18.3033C30.202 18.3046 30.8409 18.074 31.6885 17.6595L33.0092 17.0137L34.2994 17.6595C35.7617 18.3915 36.2601 18.4558 37.0416 18.0131C38.0352 17.4504 38.2195 16.7203 37.8876 14.6607L37.7055 13.5297L38.6842 12.5336C39.8186 11.3792 39.9496 11.1629 39.9496 10.4439C39.9496 9.04968 39.0884 8.43942 36.7514 8.1776L35.9383 8.08646L35.4138 7.04034C34.6955 5.60737 34.4514 5.2936 33.8385 5.01528C33.173 4.71311 32.8025 4.71311 32.137 5.01528ZM51.6325 4.903C51.0387 5.0809 50.6654 5.52474 50.0035 6.84002L49.3832 8.07241L48.1151 8.24051C46.1285 8.50374 45.3644 9.10937 45.3644 10.4206C45.3644 11.2484 45.5721 11.6066 46.6242 12.5936L47.6126 13.5208L47.3748 14.9499C47.1492 16.3071 47.1483 16.4084 47.3582 16.9577C47.6464 17.7125 48.2791 18.1971 49.0764 18.2736C49.6119 18.3251 49.8372 18.2535 50.9905 17.6657L52.2975 16.9995L53.5989 17.6524C55.0446 18.3779 55.4541 18.4368 56.2774 18.0384C57.345 17.5216 57.5576 16.7176 57.1779 14.6314L56.9902 13.6001L58.0636 12.5001C59.211 11.3242 59.4044 10.9084 59.2317 9.98789C59.1245 9.41682 58.5 8.69453 57.9602 8.51728C57.7333 8.4429 57.0255 8.30844 56.3874 8.21872L55.2271 8.05552L54.518 6.70273C53.8841 5.49328 53.7479 5.319 53.2336 5.05976C52.6303 4.75553 52.2497 4.71827 51.6325 4.903ZM15.2898 9.44492C15.6611 9.79672 16.4287 10.0178 18.0649 10.244C18.4017 10.2906 18.6773 10.3702 18.6773 10.4209C18.6773 10.4717 18.2669 10.9177 17.7653 11.4121C17.2636 11.9065 16.7705 12.4676 16.6694 12.6591C16.4346 13.1037 16.437 13.8373 16.6773 15.2026C16.7825 15.8005 16.8464 16.3116 16.8195 16.3386C16.7925 16.3655 16.1853 16.094 15.47 15.7351C13.7758 14.885 13.5166 14.8846 11.8911 15.7298C11.2065 16.0858 10.6148 16.3454 10.5762 16.3069C10.5377 16.2683 10.6069 15.6047 10.73 14.8321C11.0124 13.0619 10.9326 12.8314 9.55747 11.4447C9.01458 10.8974 8.59944 10.4205 8.6349 10.3852C8.67035 10.3497 9.30117 10.2304 10.0367 10.1199C11.8461 9.84816 12.0951 9.67748 12.8317 8.20402C13.1557 7.55586 13.4836 6.94804 13.5603 6.85304C13.6682 6.71961 13.8376 6.95372 14.3066 7.88433C14.6404 8.54654 15.0829 9.24872 15.2898 9.44492ZM33.7354 8.05088C34.5746 9.70494 34.7683 9.8448 36.6003 10.1199C37.3358 10.2304 37.9652 10.3483 37.9989 10.382C38.0327 10.4156 37.5925 10.9222 37.0211 11.5076C35.7008 12.8602 35.6324 13.0754 35.9431 14.899C36.0697 15.6424 36.1344 16.2748 36.0867 16.3043C36.0391 16.3337 35.4529 16.0728 34.784 15.7243C33.8535 15.2395 33.4316 15.0907 32.9878 15.0907C32.5439 15.0907 32.122 15.2395 31.1915 15.7243C30.5226 16.0728 29.9364 16.3337 29.8888 16.3043C29.8411 16.2748 29.9058 15.6424 30.0324 14.899C30.3432 13.0754 30.2747 12.8602 28.9544 11.5076C28.383 10.9222 27.9429 10.4156 27.9766 10.382C28.0103 10.3483 28.6434 10.2299 29.3837 10.1186C31.1866 9.8479 31.4012 9.69114 32.2502 8.02535C32.6205 7.29894 32.9523 6.70453 32.9878 6.70453C33.0232 6.70453 33.3596 7.31041 33.7354 8.05088ZM53.0978 8.11714C53.8856 9.68702 54.1101 9.84532 55.9388 10.1199C56.6743 10.2304 57.3053 10.3497 57.3407 10.3852C57.3762 10.4206 56.937 10.9265 56.3645 11.5093C55.0249 12.8733 54.9628 13.0593 55.2483 14.8502C55.3699 15.6128 55.4403 16.2659 55.4047 16.3016C55.369 16.3371 54.7761 16.0775 54.0869 15.7244C52.4517 14.8869 52.1944 14.8877 50.5055 15.7351C49.7902 16.094 49.183 16.3655 49.156 16.3386C49.1291 16.3116 49.193 15.8005 49.2982 15.2026C49.5386 13.8373 49.5409 13.1037 49.3061 12.6591C49.205 12.4676 48.7119 11.9065 48.2103 11.4121C47.7086 10.9177 47.2983 10.4717 47.2983 10.4209C47.2983 10.3702 47.5738 10.2906 47.9106 10.244C50.4731 9.88979 50.7846 9.69359 51.6779 7.87105C51.9891 7.23629 52.2931 6.74733 52.3533 6.78459C52.4136 6.82171 52.7485 7.42141 53.0978 8.11714ZM33.7368 21.6604C34.5274 22.1423 34.5348 22.2066 34.5348 28.5353C34.5348 33.9084 34.5495 34.2799 34.7726 34.5554C35.3126 35.2222 36.4687 34.6764 36.4687 33.7546C36.4687 33.4801 36.6005 33.2304 36.907 32.9239C37.272 32.5589 37.4399 32.4856 37.9097 32.4856C39.0085 32.4856 39.4339 33.1345 39.4339 34.8103C39.4339 35.9789 39.5529 36.3065 40.0457 36.4938C40.7165 36.7488 41.3678 36.1938 41.3678 35.3671C41.3678 35.1647 41.5365 34.8693 41.8061 34.5997C42.1711 34.2348 42.339 34.1614 42.8088 34.1614C43.9344 34.1614 44.333 34.7681 44.333 36.4813C44.333 37.5681 44.3571 37.6778 44.6638 37.9845C44.9307 38.2514 45.0741 38.3001 45.4052 38.2362C45.893 38.1419 46.2669 37.7353 46.2669 37.2991C46.2669 36.8814 46.5838 36.2875 46.9395 36.0385C47.309 35.7796 48.19 35.7796 48.5595 36.0385C49.2017 36.4883 49.2321 36.7062 49.2321 40.8635C49.2321 45.9281 49.0314 47.7999 48.193 50.5535C47.6867 52.2162 47.1677 53.3426 46.3233 54.6115L45.6223 55.6649V57.0309V58.3967H44.2241C42.6988 58.3967 42.5121 58.4758 42.3316 59.1992C42.2606 59.4834 42.3182 59.6247 42.6339 59.9404L43.0239 60.3303H45.1647H47.3054L47.2695 62.1673L47.2338 64.0043L39.4044 64.0376L31.575 64.0707L31.5027 63.7797C31.463 63.6196 31.4473 62.7925 31.4678 61.9417L31.5051 60.3948L35.6745 60.3303L39.8438 60.2659L40.0902 59.9615C40.4095 59.5669 40.4043 58.9803 40.0785 58.6545C39.8342 58.4102 39.6488 58.3967 36.5332 58.3967H33.2456V56.9691V55.5414L32.6332 54.9136C32.2963 54.5684 31.1216 53.4407 30.0225 52.4076C27.8596 50.3747 26.9624 49.3867 26.0964 48.0838C25.4775 47.1527 21.3847 39.6722 21.3847 39.4722C21.3847 39.2432 21.7477 39.1994 22.5603 39.3304C24.3179 39.6133 25.0329 40.1639 27.9597 43.4881C28.9879 44.6559 29.9844 45.6797 30.174 45.7635C30.6081 45.955 31.1628 45.722 31.4028 45.2478C31.5304 44.9953 31.5662 42.4843 31.5677 33.6695C31.569 25.9654 31.6129 22.3327 31.7068 22.1573C31.8909 21.8132 32.5898 21.4001 32.9878 21.4001C33.165 21.4001 33.5022 21.5173 33.7368 21.6604Z" fill="#E4B63F"/>
</svg>
