<svg width="547" height="328" viewBox="0 0 547 328" fill="none" xmlns="http://www.w3.org/2000/svg">
<path d="M1.07599 207.091H3.49432L6.73295 214.996H6.8608L10.0994 207.091H12.5178V218H10.6214V210.505H10.5202L7.50533 217.968H6.08842L3.07351 210.489H2.9723V218H1.07599V207.091ZM16.0707 218H13.9613L17.8018 207.091H20.2415L24.0874 218H21.978L19.0643 209.328H18.979L16.0707 218ZM16.1399 213.723H21.8928V215.31H16.1399V213.723ZM25.5242 218V207.091H29.6151C30.4532 207.091 31.1563 207.237 31.7245 207.528C32.2963 207.819 32.7277 208.227 33.0189 208.753C33.3137 209.275 33.461 209.884 33.461 210.58C33.461 211.279 33.3119 211.887 33.0136 212.402C32.7188 212.913 32.2838 213.309 31.7085 213.589C31.1333 213.866 30.4266 214.005 29.5885 214.005H26.6748V212.364H29.3222C29.8122 212.364 30.2135 212.297 30.526 212.162C30.8385 212.023 31.0693 211.823 31.2185 211.56C31.3712 211.294 31.4475 210.967 31.4475 210.58C31.4475 210.193 31.3712 209.863 31.2185 209.589C31.0658 209.312 30.8332 209.103 30.5207 208.961C30.2082 208.815 29.8051 208.742 29.3115 208.742H27.5004V218H25.5242ZM31.1599 213.057L33.8605 218H31.6553L29.0026 213.057H31.1599ZM35.2801 218V207.091H37.2563V212.103H37.3895L41.6455 207.091H44.0585L39.8398 211.986L44.0958 218H41.7201L38.4655 213.323L37.2563 214.751V218H35.2801ZM45.4315 218V207.091H52.5266V208.748H47.4077V211.709H52.1591V213.366H47.4077V216.343H52.5692V218H45.4315ZM54.0634 208.748V207.091H62.7672V208.748H59.3954V218H57.4352V208.748H54.0634Z" fill="black"/>
<path d="M479.414 210.772H477.422C477.365 210.445 477.26 210.156 477.107 209.903C476.955 209.648 476.765 209.431 476.537 209.254C476.31 209.076 476.051 208.943 475.76 208.854C475.472 208.762 475.161 208.716 474.827 208.716C474.234 208.716 473.709 208.865 473.251 209.163C472.793 209.458 472.434 209.891 472.175 210.463C471.915 211.031 471.786 211.725 471.786 212.545C471.786 213.38 471.915 214.083 472.175 214.655C472.438 215.223 472.796 215.653 473.251 215.944C473.709 216.232 474.233 216.375 474.822 216.375C475.149 216.375 475.454 216.333 475.738 216.248C476.026 216.159 476.283 216.029 476.511 215.859C476.741 215.688 476.935 215.479 477.091 215.23C477.251 214.982 477.361 214.697 477.422 214.378L479.414 214.388C479.339 214.907 479.178 215.393 478.929 215.848C478.684 216.303 478.363 216.704 477.965 217.052C477.567 217.396 477.102 217.666 476.569 217.862C476.037 218.053 475.445 218.149 474.795 218.149C473.837 218.149 472.981 217.927 472.228 217.483C471.475 217.039 470.882 216.398 470.449 215.56C470.016 214.722 469.799 213.717 469.799 212.545C469.799 211.37 470.017 210.365 470.454 209.531C470.891 208.692 471.486 208.051 472.239 207.608C472.991 207.164 473.844 206.942 474.795 206.942C475.403 206.942 475.967 207.027 476.489 207.197C477.011 207.368 477.477 207.618 477.885 207.949C478.293 208.275 478.629 208.676 478.892 209.152C479.158 209.625 479.332 210.164 479.414 210.772ZM490.971 212.545C490.971 213.721 490.751 214.728 490.311 215.566C489.874 216.4 489.277 217.039 488.521 217.483C487.768 217.927 486.914 218.149 485.959 218.149C485.004 218.149 484.148 217.927 483.391 217.483C482.639 217.036 482.042 216.395 481.602 215.56C481.165 214.722 480.946 213.717 480.946 212.545C480.946 211.37 481.165 210.365 481.602 209.531C482.042 208.692 482.639 208.051 483.391 207.608C484.148 207.164 485.004 206.942 485.959 206.942C486.914 206.942 487.768 207.164 488.521 207.608C489.277 208.051 489.874 208.692 490.311 209.531C490.751 210.365 490.971 211.37 490.971 212.545ZM488.984 212.545C488.984 211.718 488.855 211.02 488.596 210.452C488.34 209.88 487.985 209.449 487.53 209.158C487.076 208.863 486.552 208.716 485.959 208.716C485.366 208.716 484.842 208.863 484.388 209.158C483.933 209.449 483.576 209.88 483.317 210.452C483.061 211.02 482.933 211.718 482.933 212.545C482.933 213.373 483.061 214.072 483.317 214.644C483.576 215.212 483.933 215.644 484.388 215.939C484.842 216.23 485.366 216.375 485.959 216.375C486.552 216.375 487.076 216.23 487.53 215.939C487.985 215.644 488.34 215.212 488.596 214.644C488.855 214.072 488.984 213.373 488.984 212.545ZM492.84 207.091H495.258L498.497 214.996H498.624L501.863 207.091H504.281V218H502.385V210.505H502.284L499.269 217.968H497.852L494.837 210.489H494.736V218H492.84V207.091ZM506.433 218V207.091H510.524C511.362 207.091 512.066 207.247 512.634 207.56C513.205 207.872 513.637 208.302 513.928 208.849C514.223 209.392 514.37 210.01 514.37 210.702C514.37 211.402 514.223 212.023 513.928 212.567C513.633 213.11 513.198 213.538 512.623 213.85C512.048 214.159 511.339 214.314 510.498 214.314H507.786V212.689H510.231C510.721 212.689 511.123 212.604 511.435 212.434C511.748 212.263 511.979 212.029 512.128 211.73C512.28 211.432 512.357 211.089 512.357 210.702C512.357 210.315 512.28 209.974 512.128 209.68C511.979 209.385 511.746 209.156 511.43 208.993C511.117 208.826 510.714 208.742 510.221 208.742H508.41V218H506.433ZM516.272 218H514.162L518.003 207.091H520.443L524.289 218H522.179L519.265 209.328H519.18L516.272 218ZM516.341 213.723H522.094V215.31H516.341V213.723ZM534.69 207.091V218H532.932L527.792 210.569H527.702V218H525.725V207.091H527.494L532.629 214.527H532.725V207.091H534.69ZM536.098 207.091H538.33L540.998 211.917H541.105L543.774 207.091H546.006L542.037 213.93V218H540.066V213.93L536.098 207.091Z" fill="black"/>
<path fill-rule="evenodd" clip-rule="evenodd" d="M266.5 306.116C295.284 285.215 314 251.293 314 213C314 174.707 295.284 140.785 266.5 119.884C285.457 106.118 308.78 98 334 98C397.513 98 449 149.487 449 213C449 276.513 397.513 328 334 328C308.78 328 285.457 319.882 266.5 306.116ZM266.5 306.116C247.543 319.882 224.22 328 199 328C135.487 328 84 276.513 84 213C84 149.487 135.487 98 199 98C224.22 98 247.543 106.118 266.5 119.884C237.716 140.785 219 174.707 219 213C219 251.293 237.716 285.215 266.5 306.116Z" fill="#410EAD"/>
<path fill-rule="evenodd" clip-rule="evenodd" d="M266.5 306.116C295.284 285.215 314 251.293 314 213C314 174.707 295.284 140.785 266.5 119.884C285.457 106.118 308.78 98 334 98C397.513 98 449 149.487 449 213C449 276.513 397.513 328 334 328C308.78 328 285.457 319.882 266.5 306.116ZM266.5 306.116C247.543 319.882 224.22 328 199 328C135.487 328 84 276.513 84 213C84 149.487 135.487 98 199 98C224.22 98 247.543 106.118 266.5 119.884C237.716 140.785 219 174.707 219 213C219 251.293 237.716 285.215 266.5 306.116Z" fill="#410EAD"/>
<mask id="path-5-inside-1_2003_3" fill="white">
<path fill-rule="evenodd" clip-rule="evenodd" d="M314 213.058C313.981 174.789 295.269 140.891 266.5 120C237.716 140.901 219 174.823 219 213.116C219 251.374 237.682 285.268 266.42 306.174C247.478 319.905 224.184 328 199 328C135.487 328 84 276.513 84 213C84 149.487 135.487 98 199 98C262.513 98 314 149.487 314 213C314 213.019 314 213.039 314 213.058Z"/>
</mask>
<path fill-rule="evenodd" clip-rule="evenodd" d="M314 213.058C313.981 174.789 295.269 140.891 266.5 120C237.716 140.901 219 174.823 219 213.116C219 251.374 237.682 285.268 266.42 306.174C247.478 319.905 224.184 328 199 328C135.487 328 84 276.513 84 213C84 149.487 135.487 98 199 98C262.513 98 314 149.487 314 213C314 213.019 314 213.039 314 213.058Z" fill="#CCB1FB"/>
<path d="M314 213.058L313 213.059L315 213.058H314ZM266.5 120L267.088 119.191L266.5 118.764L265.912 119.191L266.5 120ZM266.42 306.174L267.007 306.984L268.122 306.176L267.008 305.366L266.42 306.174ZM315 213.058C314.981 174.455 296.105 140.262 267.088 119.191L265.912 120.809C294.434 141.52 312.981 175.123 313 213.059L315 213.058ZM265.912 119.191C236.881 140.272 218 174.489 218 213.116H220C220 175.157 238.552 141.531 267.088 120.809L265.912 119.191ZM218 213.116C218 251.707 236.846 285.897 265.832 306.983L267.008 305.366C238.517 284.64 220 251.04 220 213.116H218ZM265.833 305.365C247.056 318.975 223.966 327 199 327V329C224.402 329 247.899 320.834 267.007 306.984L265.833 305.365ZM199 327C136.04 327 85 275.96 85 213H83C83 277.065 134.935 329 199 329V327ZM85 213C85 150.04 136.04 99 199 99V97C134.935 97 83 148.935 83 213H85ZM199 99C261.96 99 313 150.04 313 213H315C315 148.935 263.065 97 199 97V99ZM313 213C313 213.009 313 213.019 313 213.029C313 213.038 313 213.048 313 213.058H315C315 213.049 315 213.039 315 213.029C315 213.02 315 213.01 315 213H313Z" fill="#410EAD" mask="url(#path-5-inside-1_2003_3)"/>
<path d="M164.89 193.02C165.11 193.6 165.06 194.12 164.74 194.58C164.44 195.02 163.97 195.24 163.33 195.24C162.89 195.24 162.55 195.13 162.31 194.91C162.09 194.67 161.88 194.28 161.68 193.74L160.09 189.57C160.05 189.59 159.98 189.6 159.88 189.6H150.91H150.85L149.29 193.74C149.11 194.26 148.9 194.64 148.66 194.88C148.44 195.12 148.11 195.24 147.67 195.24C147.01 195.24 146.53 195.02 146.23 194.58C145.93 194.14 145.89 193.62 146.11 193.02L152.41 176.61C152.89 175.31 153.33 174.41 153.73 173.91C154.13 173.41 154.72 173.16 155.5 173.16C155.92 173.16 156.27 173.22 156.55 173.34C156.85 173.46 157.12 173.7 157.36 174.06C157.62 174.42 157.82 174.77 157.96 175.11C158.12 175.43 158.34 175.96 158.62 176.7L164.89 193.02ZM151.99 186.57H158.95L155.5 177.48H155.44L151.99 186.57Z" fill="white"/>
<path d="M140.005 212.091H142.312V219.175C142.312 219.971 142.122 220.667 141.742 221.263C141.365 221.86 140.838 222.325 140.16 222.659C139.481 222.989 138.691 223.154 137.789 223.154C136.884 223.154 136.092 222.989 135.414 222.659C134.735 222.325 134.208 221.86 133.832 221.263C133.455 220.667 133.267 219.971 133.267 219.175V212.091H135.573V218.978C135.573 219.394 135.664 219.763 135.845 220.086C136.03 220.409 136.289 220.663 136.623 220.848C136.957 221.033 137.345 221.125 137.789 221.125C138.237 221.125 138.626 221.033 138.956 220.848C139.29 220.663 139.547 220.409 139.728 220.086C139.913 219.763 140.005 219.394 140.005 218.978V212.091ZM150.974 217.151L148.897 217.279C148.861 217.102 148.785 216.942 148.668 216.8C148.551 216.654 148.396 216.539 148.204 216.453C148.016 216.365 147.791 216.32 147.528 216.32C147.176 216.32 146.88 216.395 146.638 216.544C146.397 216.69 146.276 216.885 146.276 217.13C146.276 217.325 146.354 217.49 146.511 217.625C146.667 217.76 146.935 217.869 147.315 217.95L148.796 218.249C149.591 218.412 150.184 218.675 150.575 219.037C150.965 219.399 151.161 219.875 151.161 220.464C151.161 221.001 151.003 221.471 150.687 221.876C150.374 222.281 149.944 222.597 149.398 222.824C148.854 223.048 148.227 223.16 147.517 223.16C146.434 223.16 145.571 222.934 144.928 222.483C144.289 222.029 143.915 221.411 143.805 220.63L146.036 220.512C146.104 220.843 146.267 221.095 146.527 221.269C146.786 221.439 147.118 221.525 147.523 221.525C147.92 221.525 148.24 221.448 148.481 221.295C148.726 221.139 148.851 220.939 148.854 220.694C148.851 220.488 148.764 220.319 148.593 220.188C148.423 220.053 148.16 219.95 147.805 219.879L146.388 219.596C145.589 219.436 144.994 219.159 144.604 218.765C144.216 218.371 144.023 217.869 144.023 217.258C144.023 216.732 144.165 216.279 144.449 215.9C144.737 215.52 145.14 215.227 145.658 215.021C146.18 214.815 146.791 214.712 147.491 214.712C148.524 214.712 149.337 214.93 149.93 215.367C150.527 215.804 150.875 216.398 150.974 217.151ZM156.318 223.16C155.477 223.16 154.752 222.989 154.145 222.648C153.541 222.304 153.076 221.817 152.749 221.189C152.423 220.557 152.259 219.809 152.259 218.946C152.259 218.105 152.423 217.366 152.749 216.73C153.076 216.095 153.536 215.599 154.129 215.244C154.726 214.889 155.425 214.712 156.228 214.712C156.768 214.712 157.27 214.799 157.735 214.973C158.204 215.143 158.612 215.401 158.96 215.745C159.312 216.089 159.585 216.523 159.781 217.045C159.976 217.563 160.074 218.17 160.074 218.866V219.49H153.165V218.083H157.938C157.938 217.757 157.867 217.467 157.725 217.215C157.583 216.963 157.385 216.766 157.133 216.624C156.885 216.478 156.595 216.406 156.265 216.406C155.921 216.406 155.615 216.485 155.349 216.645C155.086 216.801 154.88 217.013 154.731 217.279C154.582 217.542 154.505 217.835 154.502 218.158V219.495C154.502 219.9 154.576 220.25 154.726 220.544C154.878 220.839 155.093 221.066 155.37 221.226C155.647 221.386 155.976 221.466 156.356 221.466C156.608 221.466 156.839 221.43 157.048 221.359C157.258 221.288 157.437 221.182 157.586 221.04C157.735 220.898 157.849 220.724 157.927 220.518L160.026 220.656C159.919 221.161 159.701 221.601 159.371 221.977C159.044 222.35 158.621 222.641 158.103 222.851C157.588 223.057 156.993 223.16 156.318 223.16ZM161.554 223V214.818H163.754V216.246H163.84C163.989 215.738 164.239 215.354 164.591 215.095C164.942 214.832 165.347 214.701 165.805 214.701C165.919 214.701 166.041 214.708 166.173 214.722C166.304 214.737 166.42 214.756 166.519 214.781V216.794C166.412 216.762 166.265 216.734 166.077 216.709C165.889 216.684 165.716 216.672 165.56 216.672C165.226 216.672 164.928 216.745 164.665 216.89C164.406 217.032 164.2 217.231 164.047 217.487C163.898 217.743 163.824 218.037 163.824 218.371V223H161.554ZM174.5 217.151L172.422 217.279C172.387 217.102 172.31 216.942 172.193 216.8C172.076 216.654 171.922 216.539 171.73 216.453C171.542 216.365 171.316 216.32 171.053 216.32C170.702 216.32 170.405 216.395 170.164 216.544C169.922 216.69 169.802 216.885 169.802 217.13C169.802 217.325 169.88 217.49 170.036 217.625C170.192 217.76 170.46 217.869 170.84 217.95L172.321 218.249C173.117 218.412 173.71 218.675 174.1 219.037C174.491 219.399 174.686 219.875 174.686 220.464C174.686 221.001 174.528 221.471 174.212 221.876C173.9 222.281 173.47 222.597 172.923 222.824C172.38 223.048 171.753 223.16 171.043 223.16C169.96 223.16 169.097 222.934 168.454 222.483C167.815 222.029 167.44 221.411 167.33 220.63L169.562 220.512C169.629 220.843 169.793 221.095 170.052 221.269C170.311 221.439 170.643 221.525 171.048 221.525C171.446 221.525 171.765 221.448 172.007 221.295C172.252 221.139 172.376 220.939 172.38 220.694C172.376 220.488 172.289 220.319 172.119 220.188C171.948 220.053 171.685 219.95 171.33 219.879L169.913 219.596C169.114 219.436 168.52 219.159 168.129 218.765C167.742 218.371 167.548 217.869 167.548 217.258C167.548 216.732 167.69 216.279 167.974 215.9C168.262 215.52 168.665 215.227 169.184 215.021C169.706 214.815 170.316 214.712 171.016 214.712C172.049 214.712 172.863 214.93 173.456 215.367C174.052 215.804 174.4 216.398 174.5 217.151ZM123.747 233.91H121.414C121.371 233.608 121.284 233.34 121.153 233.106C121.021 232.868 120.853 232.665 120.647 232.499C120.441 232.332 120.203 232.204 119.933 232.115C119.667 232.026 119.377 231.982 119.065 231.982C118.5 231.982 118.008 232.122 117.589 232.403C117.17 232.68 116.845 233.085 116.614 233.617C116.384 234.146 116.268 234.789 116.268 235.545C116.268 236.323 116.384 236.977 116.614 237.506C116.849 238.035 117.175 238.434 117.595 238.704C118.014 238.974 118.498 239.109 119.049 239.109C119.358 239.109 119.644 239.068 119.906 238.987C120.173 238.905 120.409 238.786 120.615 238.63C120.821 238.47 120.991 238.276 121.126 238.049C121.265 237.822 121.36 237.562 121.414 237.271L123.747 237.282C123.686 237.783 123.536 238.266 123.294 238.731C123.056 239.192 122.735 239.606 122.33 239.972C121.929 240.334 121.449 240.622 120.892 240.835C120.338 241.044 119.711 241.149 119.011 241.149C118.038 241.149 117.168 240.929 116.401 240.489C115.638 240.048 115.034 239.411 114.59 238.576C114.15 237.742 113.93 236.732 113.93 235.545C113.93 234.356 114.153 233.344 114.601 232.509C115.048 231.675 115.656 231.039 116.423 230.602C117.19 230.162 118.053 229.942 119.011 229.942C119.644 229.942 120.229 230.031 120.769 230.208C121.313 230.386 121.794 230.645 122.213 230.986C122.632 231.323 122.973 231.737 123.235 232.227C123.502 232.717 123.672 233.278 123.747 233.91ZM130.605 237.516V232.818H132.874V241H130.696V239.514H130.61C130.426 239.993 130.118 240.379 129.689 240.67C129.263 240.961 128.742 241.107 128.128 241.107C127.581 241.107 127.1 240.982 126.685 240.734C126.269 240.485 125.944 240.132 125.71 239.674C125.479 239.216 125.362 238.667 125.358 238.028V232.818H127.627V237.623C127.631 238.106 127.761 238.488 128.016 238.768C128.272 239.049 128.615 239.189 129.044 239.189C129.318 239.189 129.573 239.127 129.811 239.002C130.049 238.875 130.241 238.686 130.387 238.438C130.536 238.189 130.609 237.882 130.605 237.516ZM141.497 235.151L139.419 235.279C139.384 235.102 139.307 234.942 139.19 234.8C139.073 234.654 138.919 234.539 138.727 234.453C138.539 234.365 138.313 234.32 138.05 234.32C137.699 234.32 137.402 234.395 137.161 234.544C136.919 234.69 136.799 234.885 136.799 235.13C136.799 235.325 136.877 235.49 137.033 235.625C137.189 235.76 137.457 235.869 137.837 235.95L139.318 236.249C140.114 236.412 140.707 236.675 141.097 237.037C141.488 237.399 141.683 237.875 141.683 238.464C141.683 239.001 141.525 239.471 141.209 239.876C140.897 240.281 140.467 240.597 139.92 240.824C139.377 241.048 138.75 241.16 138.04 241.16C136.957 241.16 136.094 240.934 135.451 240.483C134.812 240.029 134.437 239.411 134.327 238.63L136.559 238.512C136.626 238.843 136.79 239.095 137.049 239.269C137.308 239.439 137.64 239.525 138.045 239.525C138.443 239.525 138.762 239.448 139.004 239.295C139.249 239.139 139.373 238.939 139.377 238.694C139.373 238.488 139.286 238.319 139.116 238.188C138.945 238.053 138.682 237.95 138.327 237.879L136.91 237.596C136.111 237.436 135.517 237.159 135.126 236.765C134.739 236.371 134.545 235.869 134.545 235.258C134.545 234.732 134.687 234.279 134.972 233.9C135.259 233.52 135.662 233.227 136.181 233.021C136.703 232.815 137.314 232.712 138.013 232.712C139.046 232.712 139.86 232.93 140.453 233.367C141.049 233.804 141.397 234.398 141.497 235.151ZM147.464 232.818V234.523H142.537V232.818H147.464ZM143.655 230.858H145.925V238.486C145.925 238.695 145.957 238.859 146.02 238.976C146.084 239.089 146.173 239.169 146.287 239.216C146.404 239.262 146.539 239.285 146.692 239.285C146.798 239.285 146.905 239.276 147.011 239.258C147.118 239.237 147.199 239.221 147.256 239.21L147.613 240.899C147.5 240.934 147.34 240.975 147.134 241.021C146.928 241.071 146.677 241.101 146.383 241.112C145.836 241.133 145.356 241.06 144.944 240.893C144.536 240.727 144.218 240.467 143.991 240.116C143.764 239.764 143.652 239.32 143.655 238.784V230.858ZM152.551 241.16C151.724 241.16 151.008 240.984 150.404 240.632C149.804 240.277 149.341 239.784 149.014 239.152C148.687 238.516 148.524 237.779 148.524 236.941C148.524 236.096 148.687 235.357 149.014 234.725C149.341 234.089 149.804 233.596 150.404 233.244C151.008 232.889 151.724 232.712 152.551 232.712C153.378 232.712 154.092 232.889 154.692 233.244C155.296 233.596 155.761 234.089 156.088 234.725C156.415 235.357 156.578 236.096 156.578 236.941C156.578 237.779 156.415 238.516 156.088 239.152C155.761 239.784 155.296 240.277 154.692 240.632C154.092 240.984 153.378 241.16 152.551 241.16ZM152.562 239.402C152.938 239.402 153.252 239.295 153.504 239.082C153.757 238.866 153.947 238.571 154.074 238.198C154.206 237.825 154.272 237.401 154.272 236.925C154.272 236.449 154.206 236.025 154.074 235.652C153.947 235.279 153.757 234.984 153.504 234.768C153.252 234.551 152.938 234.443 152.562 234.443C152.182 234.443 151.862 234.551 151.603 234.768C151.347 234.984 151.154 235.279 151.022 235.652C150.894 236.025 150.83 236.449 150.83 236.925C150.83 237.401 150.894 237.825 151.022 238.198C151.154 238.571 151.347 238.866 151.603 239.082C151.862 239.295 152.182 239.402 152.562 239.402ZM158.053 241V232.818H160.216V234.262H160.312C160.482 233.782 160.767 233.404 161.164 233.127C161.562 232.85 162.038 232.712 162.592 232.712C163.153 232.712 163.631 232.852 164.025 233.132C164.419 233.409 164.682 233.786 164.813 234.262H164.898C165.065 233.793 165.367 233.418 165.804 233.138C166.244 232.854 166.764 232.712 167.365 232.712C168.128 232.712 168.748 232.955 169.224 233.441C169.703 233.924 169.943 234.61 169.943 235.498V241H167.679V235.945C167.679 235.49 167.558 235.15 167.317 234.922C167.075 234.695 166.773 234.581 166.411 234.581C165.999 234.581 165.678 234.713 165.447 234.975C165.216 235.235 165.101 235.577 165.101 236.004V241H162.901V235.897C162.901 235.496 162.785 235.176 162.555 234.938C162.327 234.7 162.027 234.581 161.654 234.581C161.402 234.581 161.175 234.645 160.973 234.773C160.774 234.897 160.616 235.073 160.498 235.3C160.381 235.524 160.323 235.787 160.323 236.089V241H158.053ZM175.464 241.16C174.622 241.16 173.898 240.989 173.291 240.648C172.687 240.304 172.222 239.817 171.895 239.189C171.568 238.557 171.405 237.809 171.405 236.946C171.405 236.105 171.568 235.366 171.895 234.73C172.222 234.095 172.682 233.599 173.275 233.244C173.871 232.889 174.571 232.712 175.373 232.712C175.913 232.712 176.416 232.799 176.881 232.973C177.349 233.143 177.758 233.401 178.106 233.745C178.457 234.089 178.731 234.523 178.926 235.045C179.121 235.563 179.219 236.17 179.219 236.866V237.49H172.31V236.083H177.083C177.083 235.757 177.012 235.467 176.87 235.215C176.728 234.963 176.531 234.766 176.279 234.624C176.03 234.478 175.741 234.406 175.411 234.406C175.066 234.406 174.761 234.485 174.494 234.645C174.232 234.801 174.026 235.013 173.876 235.279C173.727 235.542 173.651 235.835 173.647 236.158V237.495C173.647 237.9 173.722 238.25 173.871 238.544C174.024 238.839 174.239 239.066 174.516 239.226C174.793 239.386 175.121 239.466 175.501 239.466C175.753 239.466 175.984 239.43 176.194 239.359C176.403 239.288 176.582 239.182 176.732 239.04C176.881 238.898 176.994 238.724 177.072 238.518L179.171 238.656C179.065 239.161 178.846 239.601 178.516 239.977C178.189 240.35 177.767 240.641 177.248 240.851C176.733 241.057 176.139 241.16 175.464 241.16ZM180.7 241V232.818H182.9V234.246H182.985C183.134 233.738 183.385 233.354 183.736 233.095C184.088 232.832 184.493 232.701 184.951 232.701C185.064 232.701 185.187 232.708 185.318 232.722C185.45 232.737 185.565 232.756 185.664 232.781V234.794C185.558 234.762 185.411 234.734 185.222 234.709C185.034 234.684 184.862 234.672 184.706 234.672C184.372 234.672 184.074 234.745 183.811 234.89C183.552 235.032 183.346 235.231 183.193 235.487C183.044 235.743 182.969 236.037 182.969 236.371V241H180.7ZM193.645 235.151L191.568 235.279C191.532 235.102 191.456 234.942 191.339 234.8C191.222 234.654 191.067 234.539 190.875 234.453C190.687 234.365 190.462 234.32 190.199 234.32C189.847 234.32 189.551 234.395 189.309 234.544C189.068 234.69 188.947 234.885 188.947 235.13C188.947 235.325 189.025 235.49 189.181 235.625C189.338 235.76 189.606 235.869 189.986 235.95L191.467 236.249C192.262 236.412 192.855 236.675 193.246 237.037C193.636 237.399 193.832 237.875 193.832 238.464C193.832 239.001 193.674 239.471 193.358 239.876C193.045 240.281 192.615 240.597 192.068 240.824C191.525 241.048 190.898 241.16 190.188 241.16C189.105 241.16 188.242 240.934 187.599 240.483C186.96 240.029 186.586 239.411 186.475 238.63L188.707 238.512C188.775 238.843 188.938 239.095 189.197 239.269C189.457 239.439 189.789 239.525 190.193 239.525C190.591 239.525 190.911 239.448 191.152 239.295C191.397 239.139 191.522 238.939 191.525 238.694C191.522 238.488 191.435 238.319 191.264 238.188C191.094 238.053 190.831 237.95 190.476 237.879L189.059 237.596C188.26 237.436 187.665 237.159 187.274 236.765C186.887 236.371 186.694 235.869 186.694 235.258C186.694 234.732 186.836 234.279 187.12 233.9C187.408 233.52 187.811 233.227 188.329 233.021C188.851 232.815 189.462 232.712 190.162 232.712C191.195 232.712 192.008 232.93 192.601 233.367C193.198 233.804 193.546 234.398 193.645 235.151ZM120.055 251.91H117.722C117.68 251.608 117.593 251.34 117.461 251.106C117.33 250.868 117.161 250.665 116.955 250.499C116.749 250.332 116.511 250.204 116.242 250.115C115.975 250.026 115.686 249.982 115.373 249.982C114.809 249.982 114.317 250.122 113.898 250.403C113.479 250.68 113.154 251.085 112.923 251.617C112.692 252.146 112.577 252.789 112.577 253.545C112.577 254.323 112.692 254.977 112.923 255.506C113.157 256.035 113.484 256.434 113.903 256.704C114.322 256.974 114.807 257.109 115.357 257.109C115.666 257.109 115.952 257.068 116.215 256.987C116.481 256.905 116.717 256.786 116.923 256.63C117.129 256.47 117.3 256.276 117.435 256.049C117.573 255.822 117.669 255.562 117.722 255.271L120.055 255.282C119.995 255.783 119.844 256.266 119.603 256.731C119.365 257.192 119.043 257.606 118.639 257.972C118.237 258.334 117.758 258.622 117.2 258.835C116.646 259.044 116.02 259.149 115.32 259.149C114.347 259.149 113.477 258.929 112.71 258.489C111.946 258.048 111.343 257.411 110.899 256.576C110.458 255.742 110.238 254.732 110.238 253.545C110.238 252.356 110.462 251.344 110.909 250.509C111.357 249.675 111.964 249.039 112.731 248.602C113.498 248.162 114.361 247.942 115.32 247.942C115.952 247.942 116.538 248.031 117.078 248.208C117.621 248.386 118.102 248.645 118.521 248.986C118.94 249.323 119.281 249.737 119.544 250.227C119.81 250.717 119.981 251.278 120.055 251.91ZM125.364 259.16C124.536 259.16 123.821 258.984 123.217 258.632C122.617 258.277 122.153 257.784 121.827 257.152C121.5 256.516 121.337 255.779 121.337 254.941C121.337 254.096 121.5 253.357 121.827 252.725C122.153 252.089 122.617 251.596 123.217 251.244C123.821 250.889 124.536 250.712 125.364 250.712C126.191 250.712 126.905 250.889 127.505 251.244C128.109 251.596 128.574 252.089 128.9 252.725C129.227 253.357 129.39 254.096 129.39 254.941C129.39 255.779 129.227 256.516 128.9 257.152C128.574 257.784 128.109 258.277 127.505 258.632C126.905 258.984 126.191 259.16 125.364 259.16ZM125.374 257.402C125.751 257.402 126.065 257.295 126.317 257.082C126.569 256.866 126.759 256.571 126.887 256.198C127.018 255.825 127.084 255.401 127.084 254.925C127.084 254.449 127.018 254.025 126.887 253.652C126.759 253.279 126.569 252.984 126.317 252.768C126.065 252.551 125.751 252.443 125.374 252.443C124.994 252.443 124.675 252.551 124.415 252.768C124.16 252.984 123.966 253.279 123.835 253.652C123.707 254.025 123.643 254.449 123.643 254.925C123.643 255.401 123.707 255.825 123.835 256.198C123.966 256.571 124.16 256.866 124.415 257.082C124.675 257.295 124.994 257.402 125.374 257.402ZM130.866 259V250.818H133.029V252.262H133.125C133.295 251.782 133.579 251.404 133.977 251.127C134.375 250.85 134.85 250.712 135.404 250.712C135.965 250.712 136.443 250.852 136.837 251.132C137.231 251.409 137.494 251.786 137.626 252.262H137.711C137.878 251.793 138.18 251.418 138.616 251.138C139.057 250.854 139.577 250.712 140.177 250.712C140.941 250.712 141.56 250.955 142.036 251.441C142.515 251.924 142.755 252.61 142.755 253.498V259H140.491V253.945C140.491 253.49 140.371 253.15 140.129 252.922C139.888 252.695 139.586 252.581 139.224 252.581C138.812 252.581 138.49 252.713 138.259 252.975C138.029 253.235 137.913 253.577 137.913 254.004V259H135.713V253.897C135.713 253.496 135.598 253.176 135.367 252.938C135.14 252.7 134.84 252.581 134.467 252.581C134.215 252.581 133.987 252.645 133.785 252.773C133.586 252.897 133.428 253.073 133.311 253.3C133.194 253.524 133.135 253.787 133.135 254.089V259H130.866ZM144.548 262.068V250.818H146.785V252.192H146.886C146.985 251.972 147.129 251.749 147.318 251.521C147.509 251.29 147.758 251.099 148.063 250.946C148.372 250.79 148.756 250.712 149.214 250.712C149.81 250.712 150.361 250.868 150.865 251.18C151.369 251.489 151.772 251.956 152.074 252.581C152.376 253.203 152.527 253.982 152.527 254.92C152.527 255.832 152.38 256.603 152.085 257.232C151.794 257.857 151.396 258.331 150.892 258.654C150.391 258.973 149.83 259.133 149.208 259.133C148.768 259.133 148.394 259.06 148.085 258.915C147.779 258.769 147.529 258.586 147.333 258.366C147.138 258.142 146.989 257.917 146.886 257.69H146.817V262.068H144.548ZM146.769 254.909C146.769 255.396 146.836 255.82 146.971 256.182C147.106 256.544 147.302 256.827 147.557 257.029C147.813 257.228 148.124 257.327 148.489 257.327C148.859 257.327 149.171 257.226 149.427 257.024C149.683 256.818 149.876 256.534 150.008 256.172C150.142 255.806 150.21 255.385 150.21 254.909C150.21 254.437 150.144 254.021 150.013 253.663C149.881 253.304 149.688 253.023 149.432 252.821C149.177 252.619 148.862 252.517 148.489 252.517C148.12 252.517 147.808 252.615 147.552 252.81C147.3 253.006 147.106 253.283 146.971 253.641C146.836 254 146.769 254.423 146.769 254.909ZM157.769 259.16C156.927 259.16 156.202 258.989 155.595 258.648C154.992 258.304 154.526 257.817 154.2 257.189C153.873 256.557 153.71 255.809 153.71 254.946C153.71 254.105 153.873 253.366 154.2 252.73C154.526 252.095 154.986 251.599 155.579 251.244C156.176 250.889 156.875 250.712 157.678 250.712C158.218 250.712 158.72 250.799 159.185 250.973C159.654 251.143 160.063 251.401 160.411 251.745C160.762 252.089 161.036 252.523 161.231 253.045C161.426 253.563 161.524 254.17 161.524 254.866V255.49H154.615V254.083H159.388C159.388 253.757 159.317 253.467 159.175 253.215C159.033 252.963 158.836 252.766 158.583 252.624C158.335 252.478 158.045 252.406 157.715 252.406C157.371 252.406 157.065 252.485 156.799 252.645C156.536 252.801 156.33 253.013 156.181 253.279C156.032 253.542 155.956 253.835 155.952 254.158V255.495C155.952 255.9 156.027 256.25 156.176 256.544C156.329 256.839 156.543 257.066 156.82 257.226C157.097 257.386 157.426 257.466 157.806 257.466C158.058 257.466 158.289 257.43 158.498 257.359C158.708 257.288 158.887 257.182 159.036 257.04C159.185 256.898 159.299 256.724 159.377 256.518L161.476 256.656C161.369 257.161 161.151 257.601 160.821 257.977C160.494 258.35 160.071 258.641 159.553 258.851C159.038 259.057 158.443 259.16 157.769 259.16ZM167.357 250.818V252.523H162.429V250.818H167.357ZM163.548 248.858H165.817V256.486C165.817 256.695 165.849 256.859 165.913 256.976C165.977 257.089 166.066 257.169 166.179 257.216C166.297 257.262 166.432 257.285 166.584 257.285C166.691 257.285 166.797 257.276 166.904 257.258C167.01 257.237 167.092 257.221 167.149 257.21L167.506 258.899C167.392 258.934 167.232 258.975 167.026 259.021C166.82 259.071 166.57 259.101 166.275 259.112C165.728 259.133 165.249 259.06 164.837 258.893C164.429 258.727 164.111 258.467 163.884 258.116C163.656 257.764 163.544 257.32 163.548 256.784V248.858ZM168.835 259V250.818H171.104V259H168.835ZM169.975 249.763C169.637 249.763 169.348 249.652 169.106 249.428C168.868 249.201 168.75 248.929 168.75 248.613C168.75 248.3 168.868 248.032 169.106 247.809C169.348 247.581 169.637 247.468 169.975 247.468C170.312 247.468 170.6 247.581 170.838 247.809C171.079 248.032 171.2 248.3 171.2 248.613C171.2 248.929 171.079 249.201 170.838 249.428C170.6 249.652 170.312 249.763 169.975 249.763ZM177.274 250.818V252.523H172.346V250.818H177.274ZM173.465 248.858H175.734V256.486C175.734 256.695 175.766 256.859 175.83 256.976C175.894 257.089 175.983 257.169 176.096 257.216C176.214 257.262 176.348 257.285 176.501 257.285C176.608 257.285 176.714 257.276 176.821 257.258C176.927 257.237 177.009 257.221 177.066 257.21L177.423 258.899C177.309 258.934 177.149 258.975 176.943 259.021C176.737 259.071 176.487 259.101 176.192 259.112C175.645 259.133 175.166 259.06 174.754 258.893C174.346 258.727 174.028 258.467 173.801 258.116C173.573 257.764 173.461 257.32 173.465 256.784V248.858ZM182.361 259.16C181.533 259.16 180.818 258.984 180.214 258.632C179.614 258.277 179.15 257.784 178.824 257.152C178.497 256.516 178.334 255.779 178.334 254.941C178.334 254.096 178.497 253.357 178.824 252.725C179.15 252.089 179.614 251.596 180.214 251.244C180.818 250.889 181.533 250.712 182.361 250.712C183.188 250.712 183.902 250.889 184.502 251.244C185.106 251.596 185.571 252.089 185.898 252.725C186.224 253.357 186.388 254.096 186.388 254.941C186.388 255.779 186.224 256.516 185.898 257.152C185.571 257.784 185.106 258.277 184.502 258.632C183.902 258.984 183.188 259.16 182.361 259.16ZM182.371 257.402C182.748 257.402 183.062 257.295 183.314 257.082C183.566 256.866 183.756 256.571 183.884 256.198C184.015 255.825 184.081 255.401 184.081 254.925C184.081 254.449 184.015 254.025 183.884 253.652C183.756 253.279 183.566 252.984 183.314 252.768C183.062 252.551 182.748 252.443 182.371 252.443C181.991 252.443 181.672 252.551 181.412 252.768C181.157 252.984 180.963 253.279 180.832 253.652C180.704 254.025 180.64 254.449 180.64 254.925C180.64 255.401 180.704 255.825 180.832 256.198C180.963 256.571 181.157 256.866 181.412 257.082C181.672 257.295 181.991 257.402 182.371 257.402ZM187.863 259V250.818H190.063V252.246H190.148C190.297 251.738 190.548 251.354 190.899 251.095C191.251 250.832 191.656 250.701 192.114 250.701C192.227 250.701 192.35 250.708 192.481 250.722C192.613 250.737 192.728 250.756 192.828 250.781V252.794C192.721 252.762 192.574 252.734 192.385 252.709C192.197 252.684 192.025 252.672 191.869 252.672C191.535 252.672 191.237 252.745 190.974 252.89C190.715 253.032 190.509 253.231 190.356 253.487C190.207 253.743 190.132 254.037 190.132 254.371V259H187.863ZM200.808 253.151L198.731 253.279C198.695 253.102 198.619 252.942 198.502 252.8C198.385 252.654 198.23 252.539 198.038 252.453C197.85 252.365 197.625 252.32 197.362 252.32C197.01 252.32 196.714 252.395 196.472 252.544C196.231 252.69 196.11 252.885 196.11 253.13C196.11 253.325 196.188 253.49 196.345 253.625C196.501 253.76 196.769 253.869 197.149 253.95L198.63 254.249C199.425 254.412 200.018 254.675 200.409 255.037C200.799 255.399 200.995 255.875 200.995 256.464C200.995 257.001 200.837 257.471 200.521 257.876C200.208 258.281 199.778 258.597 199.232 258.824C198.688 259.048 198.061 259.16 197.351 259.16C196.268 259.16 195.405 258.934 194.762 258.483C194.123 258.029 193.749 257.411 193.639 256.63L195.87 256.512C195.938 256.843 196.101 257.095 196.36 257.269C196.62 257.439 196.952 257.525 197.357 257.525C197.754 257.525 198.074 257.448 198.315 257.295C198.56 257.139 198.685 256.939 198.688 256.694C198.685 256.488 198.598 256.319 198.427 256.188C198.257 256.053 197.994 255.95 197.639 255.879L196.222 255.596C195.423 255.436 194.828 255.159 194.438 254.765C194.05 254.371 193.857 253.869 193.857 253.258C193.857 252.732 193.999 252.279 194.283 251.9C194.571 251.52 194.974 251.227 195.492 251.021C196.014 250.815 196.625 250.712 197.325 250.712C198.358 250.712 199.171 250.93 199.764 251.367C200.361 251.804 200.709 252.398 200.808 253.151Z" fill="white"/>
<path d="M356.706 213.993V212.091H365.666V213.993H362.326V223H360.046V213.993H356.706ZM369.641 223.16C368.799 223.16 368.075 222.989 367.468 222.648C366.864 222.304 366.399 221.817 366.072 221.189C365.745 220.557 365.582 219.809 365.582 218.946C365.582 218.105 365.745 217.366 366.072 216.73C366.399 216.095 366.859 215.599 367.452 215.244C368.048 214.889 368.748 214.712 369.551 214.712C370.09 214.712 370.593 214.799 371.058 214.973C371.527 215.143 371.935 215.401 372.283 215.745C372.635 216.089 372.908 216.523 373.103 217.045C373.299 217.563 373.396 218.17 373.396 218.866V219.49H366.488V218.083H371.26C371.26 217.757 371.189 217.467 371.047 217.215C370.905 216.963 370.708 216.766 370.456 216.624C370.207 216.478 369.918 216.406 369.588 216.406C369.243 216.406 368.938 216.485 368.672 216.645C368.409 216.801 368.203 217.013 368.054 217.279C367.905 217.542 367.828 217.835 367.825 218.158V219.495C367.825 219.9 367.899 220.25 368.048 220.544C368.201 220.839 368.416 221.066 368.693 221.226C368.97 221.386 369.298 221.466 369.678 221.466C369.93 221.466 370.161 221.43 370.371 221.359C370.58 221.288 370.76 221.182 370.909 221.04C371.058 220.898 371.172 220.724 371.25 220.518L373.348 220.656C373.242 221.161 373.024 221.601 372.693 221.977C372.367 222.35 371.944 222.641 371.426 222.851C370.911 223.057 370.316 223.16 369.641 223.16ZM377.21 223.154C376.688 223.154 376.223 223.064 375.815 222.883C375.406 222.698 375.083 222.426 374.845 222.068C374.611 221.706 374.494 221.255 374.494 220.715C374.494 220.26 374.577 219.879 374.744 219.57C374.911 219.261 375.138 219.012 375.426 218.824C375.714 218.636 376.04 218.494 376.406 218.398C376.775 218.302 377.162 218.234 377.567 218.195C378.043 218.146 378.427 218.099 378.718 218.057C379.009 218.011 379.22 217.943 379.352 217.854C379.483 217.766 379.549 217.634 379.549 217.46V217.428C379.549 217.091 379.442 216.83 379.229 216.645C379.02 216.461 378.721 216.368 378.334 216.368C377.926 216.368 377.601 216.459 377.359 216.64C377.118 216.817 376.958 217.041 376.88 217.311L374.781 217.141C374.888 216.643 375.097 216.214 375.41 215.852C375.722 215.486 376.125 215.205 376.619 215.01C377.116 214.811 377.691 214.712 378.345 214.712C378.799 214.712 379.234 214.765 379.65 214.871C380.069 214.978 380.44 215.143 380.763 215.367C381.09 215.591 381.347 215.878 381.536 216.23C381.724 216.578 381.818 216.995 381.818 217.482V223H379.666V221.865H379.602C379.471 222.121 379.295 222.347 379.075 222.542C378.854 222.734 378.59 222.885 378.281 222.995C377.972 223.101 377.615 223.154 377.21 223.154ZM377.86 221.588C378.194 221.588 378.489 221.523 378.744 221.391C379 221.256 379.201 221.075 379.346 220.848C379.492 220.621 379.565 220.363 379.565 220.076V219.207C379.494 219.254 379.396 219.296 379.272 219.335C379.151 219.371 379.014 219.404 378.862 219.436C378.709 219.465 378.556 219.491 378.403 219.516C378.251 219.538 378.112 219.557 377.988 219.575C377.722 219.614 377.489 219.676 377.29 219.761C377.091 219.847 376.937 219.962 376.827 220.108C376.717 220.25 376.662 220.427 376.662 220.64C376.662 220.949 376.774 221.185 376.997 221.349C377.225 221.509 377.512 221.588 377.86 221.588ZM383.578 223V214.818H385.741V216.262H385.837C386.007 215.782 386.291 215.404 386.689 215.127C387.087 214.85 387.563 214.712 388.117 214.712C388.678 214.712 389.155 214.852 389.55 215.132C389.944 215.409 390.207 215.786 390.338 216.262H390.423C390.59 215.793 390.892 215.418 391.329 215.138C391.769 214.854 392.289 214.712 392.889 214.712C393.653 214.712 394.273 214.955 394.748 215.441C395.228 215.924 395.468 216.61 395.468 217.498V223H393.204V217.945C393.204 217.49 393.083 217.15 392.842 216.922C392.6 216.695 392.298 216.581 391.936 216.581C391.524 216.581 391.203 216.713 390.972 216.975C390.741 217.235 390.626 217.577 390.626 218.004V223H388.426V217.897C388.426 217.496 388.31 217.176 388.079 216.938C387.852 216.7 387.552 216.581 387.179 216.581C386.927 216.581 386.7 216.645 386.497 216.773C386.299 216.897 386.141 217.073 386.023 217.3C385.906 217.524 385.848 217.787 385.848 218.089V223H383.578ZM340.364 233.228C340.322 232.799 340.139 232.465 339.816 232.227C339.492 231.989 339.054 231.87 338.5 231.87C338.123 231.87 337.806 231.923 337.546 232.03C337.287 232.133 337.088 232.277 336.95 232.461C336.815 232.646 336.747 232.855 336.747 233.09C336.74 233.285 336.781 233.456 336.87 233.601C336.962 233.747 337.088 233.873 337.248 233.979C337.408 234.082 337.593 234.173 337.802 234.251C338.012 234.326 338.235 234.39 338.473 234.443L339.453 234.677C339.929 234.784 340.366 234.926 340.764 235.103C341.161 235.281 341.506 235.499 341.797 235.759C342.088 236.018 342.314 236.323 342.474 236.675C342.637 237.026 342.72 237.429 342.724 237.884C342.72 238.551 342.55 239.13 342.213 239.62C341.879 240.107 341.396 240.485 340.764 240.755C340.135 241.021 339.377 241.154 338.489 241.154C337.608 241.154 336.841 241.02 336.188 240.75C335.538 240.48 335.03 240.08 334.665 239.551C334.302 239.018 334.112 238.36 334.095 237.575H336.327C336.351 237.941 336.456 238.246 336.641 238.491C336.829 238.733 337.079 238.915 337.392 239.04C337.708 239.161 338.065 239.221 338.463 239.221C338.853 239.221 339.192 239.164 339.48 239.05C339.771 238.937 339.997 238.779 340.156 238.576C340.316 238.374 340.396 238.141 340.396 237.879C340.396 237.634 340.323 237.428 340.178 237.261C340.036 237.094 339.826 236.952 339.549 236.835C339.276 236.717 338.94 236.611 338.542 236.515L337.355 236.217C336.435 235.993 335.709 235.643 335.176 235.167C334.643 234.691 334.379 234.05 334.382 233.244C334.379 232.584 334.555 232.007 334.91 231.513C335.268 231.02 335.76 230.634 336.385 230.357C337.01 230.08 337.72 229.942 338.516 229.942C339.325 229.942 340.032 230.08 340.636 230.357C341.243 230.634 341.715 231.02 342.053 231.513C342.39 232.007 342.564 232.578 342.575 233.228H340.364ZM348.585 232.818V234.523H343.657V232.818H348.585ZM344.776 230.858H347.045V238.486C347.045 238.695 347.077 238.859 347.141 238.976C347.205 239.089 347.294 239.169 347.407 239.216C347.525 239.262 347.66 239.285 347.812 239.285C347.919 239.285 348.025 239.276 348.132 239.258C348.238 239.237 348.32 239.221 348.377 239.21L348.734 240.899C348.62 240.934 348.46 240.975 348.254 241.021C348.048 241.071 347.798 241.101 347.503 241.112C346.956 241.133 346.477 241.06 346.065 240.893C345.657 240.727 345.339 240.467 345.112 240.116C344.884 239.764 344.772 239.32 344.776 238.784V230.858ZM352.396 241.154C351.874 241.154 351.409 241.064 351 240.883C350.592 240.698 350.269 240.426 350.031 240.068C349.796 239.706 349.679 239.255 349.679 238.715C349.679 238.26 349.763 237.879 349.93 237.57C350.097 237.261 350.324 237.012 350.611 236.824C350.899 236.636 351.226 236.494 351.592 236.398C351.961 236.302 352.348 236.234 352.753 236.195C353.229 236.146 353.612 236.099 353.903 236.057C354.195 236.011 354.406 235.943 354.537 235.854C354.669 235.766 354.734 235.634 354.734 235.46V235.428C354.734 235.091 354.628 234.83 354.415 234.645C354.205 234.461 353.907 234.368 353.52 234.368C353.111 234.368 352.786 234.459 352.545 234.64C352.304 234.817 352.144 235.041 352.066 235.311L349.967 235.141C350.073 234.643 350.283 234.214 350.595 233.852C350.908 233.486 351.311 233.205 351.805 233.01C352.302 232.811 352.877 232.712 353.53 232.712C353.985 232.712 354.42 232.765 354.835 232.871C355.255 232.978 355.626 233.143 355.949 233.367C356.275 233.591 356.533 233.878 356.721 234.23C356.909 234.578 357.003 234.995 357.003 235.482V241H354.851V239.865H354.788C354.656 240.121 354.48 240.347 354.26 240.542C354.04 240.734 353.775 240.885 353.467 240.995C353.158 241.101 352.801 241.154 352.396 241.154ZM353.046 239.588C353.38 239.588 353.674 239.523 353.93 239.391C354.186 239.256 354.386 239.075 354.532 238.848C354.677 238.621 354.75 238.363 354.75 238.076V237.207C354.679 237.254 354.582 237.296 354.457 237.335C354.337 237.371 354.2 237.404 354.047 237.436C353.894 237.465 353.742 237.491 353.589 237.516C353.436 237.538 353.298 237.557 353.174 237.575C352.907 237.614 352.675 237.676 352.476 237.761C352.277 237.847 352.122 237.962 352.012 238.108C351.902 238.25 351.847 238.427 351.847 238.64C351.847 238.949 351.959 239.185 352.183 239.349C352.41 239.509 352.698 239.588 353.046 239.588ZM360.82 238.646L360.825 235.924H361.156L363.776 232.818H366.381L362.86 236.93H362.322L360.82 238.646ZM358.764 241V230.091H361.033V241H358.764ZM363.878 241L361.47 237.436L362.983 235.833L366.536 241H363.878ZM370.886 241.16C370.045 241.16 369.32 240.989 368.713 240.648C368.109 240.304 367.644 239.817 367.317 239.189C366.991 238.557 366.827 237.809 366.827 236.946C366.827 236.105 366.991 235.366 367.317 234.73C367.644 234.095 368.104 233.599 368.697 233.244C369.294 232.889 369.993 232.712 370.796 232.712C371.335 232.712 371.838 232.799 372.303 232.973C372.772 233.143 373.18 233.401 373.528 233.745C373.88 234.089 374.153 234.523 374.349 235.045C374.544 235.563 374.642 236.17 374.642 236.866V237.49H367.733V236.083H372.506C372.506 235.757 372.434 235.467 372.292 235.215C372.15 234.963 371.953 234.766 371.701 234.624C371.453 234.478 371.163 234.406 370.833 234.406C370.488 234.406 370.183 234.485 369.917 234.645C369.654 234.801 369.448 235.013 369.299 235.279C369.15 235.542 369.073 235.835 369.07 236.158V237.495C369.07 237.9 369.144 238.25 369.294 238.544C369.446 238.839 369.661 239.066 369.938 239.226C370.215 239.386 370.544 239.466 370.923 239.466C371.176 239.466 371.406 239.43 371.616 239.359C371.825 239.288 372.005 239.182 372.154 239.04C372.303 238.898 372.417 238.724 372.495 238.518L374.594 238.656C374.487 239.161 374.269 239.601 373.938 239.977C373.612 240.35 373.189 240.641 372.671 240.851C372.156 241.057 371.561 241.16 370.886 241.16ZM378.392 236.27V241H376.122V230.091H378.328V234.262H378.423C378.608 233.779 378.906 233.401 379.318 233.127C379.73 232.85 380.247 232.712 380.868 232.712C381.437 232.712 381.932 232.836 382.355 233.085C382.781 233.33 383.111 233.683 383.345 234.145C383.583 234.603 383.7 235.151 383.697 235.79V241H381.428V236.195C381.431 235.691 381.303 235.299 381.044 235.018C380.789 234.738 380.43 234.597 379.968 234.597C379.659 234.597 379.386 234.663 379.148 234.794C378.914 234.926 378.729 235.118 378.594 235.37C378.463 235.618 378.395 235.918 378.392 236.27ZM389.179 241.16C388.352 241.16 387.636 240.984 387.033 240.632C386.433 240.277 385.969 239.784 385.642 239.152C385.316 238.516 385.152 237.779 385.152 236.941C385.152 236.096 385.316 235.357 385.642 234.725C385.969 234.089 386.433 233.596 387.033 233.244C387.636 232.889 388.352 232.712 389.179 232.712C390.007 232.712 390.721 232.889 391.321 233.244C391.924 233.596 392.39 234.089 392.716 234.725C393.043 235.357 393.206 236.096 393.206 236.941C393.206 237.779 393.043 238.516 392.716 239.152C392.39 239.784 391.924 240.277 391.321 240.632C390.721 240.984 390.007 241.16 389.179 241.16ZM389.19 239.402C389.566 239.402 389.881 239.295 390.133 239.082C390.385 238.866 390.575 238.571 390.703 238.198C390.834 237.825 390.9 237.401 390.9 236.925C390.9 236.449 390.834 236.025 390.703 235.652C390.575 235.279 390.385 234.984 390.133 234.768C389.881 234.551 389.566 234.443 389.19 234.443C388.81 234.443 388.491 234.551 388.231 234.768C387.976 234.984 387.782 235.279 387.651 235.652C387.523 236.025 387.459 236.449 387.459 236.925C387.459 237.401 387.523 237.825 387.651 238.198C387.782 238.571 387.976 238.866 388.231 239.082C388.491 239.295 388.81 239.402 389.19 239.402ZM396.951 230.091V241H394.682V230.091H396.951ZM401.784 241.133C401.162 241.133 400.599 240.973 400.095 240.654C399.594 240.331 399.197 239.857 398.902 239.232C398.611 238.603 398.465 237.832 398.465 236.92C398.465 235.982 398.616 235.203 398.918 234.581C399.22 233.956 399.621 233.489 400.122 233.18C400.626 232.868 401.178 232.712 401.778 232.712C402.237 232.712 402.618 232.79 402.924 232.946C403.233 233.099 403.481 233.29 403.669 233.521C403.861 233.749 404.007 233.972 404.106 234.192H404.175V230.091H406.439V241H404.202V239.69H404.106C404 239.917 403.849 240.142 403.653 240.366C403.462 240.586 403.211 240.769 402.902 240.915C402.597 241.06 402.224 241.133 401.784 241.133ZM402.503 239.327C402.869 239.327 403.178 239.228 403.43 239.029C403.685 238.827 403.881 238.544 404.016 238.182C404.154 237.82 404.223 237.396 404.223 236.909C404.223 236.423 404.156 236 404.021 235.641C403.886 235.283 403.691 235.006 403.435 234.81C403.179 234.615 402.869 234.517 402.503 234.517C402.13 234.517 401.816 234.619 401.56 234.821C401.304 235.023 401.111 235.304 400.979 235.663C400.848 236.021 400.782 236.437 400.782 236.909C400.782 237.385 400.848 237.806 400.979 238.172C401.114 238.534 401.308 238.818 401.56 239.024C401.816 239.226 402.13 239.327 402.503 239.327ZM412.034 241.16C411.192 241.16 410.468 240.989 409.86 240.648C409.257 240.304 408.791 239.817 408.465 239.189C408.138 238.557 407.975 237.809 407.975 236.946C407.975 236.105 408.138 235.366 408.465 234.73C408.791 234.095 409.251 233.599 409.844 233.244C410.441 232.889 411.141 232.712 411.943 232.712C412.483 232.712 412.985 232.799 413.451 232.973C413.919 233.143 414.328 233.401 414.676 233.745C415.027 234.089 415.301 234.523 415.496 235.045C415.691 235.563 415.789 236.17 415.789 236.866V237.49H408.88V236.083H413.653C413.653 235.757 413.582 235.467 413.44 235.215C413.298 234.963 413.101 234.766 412.849 234.624C412.6 234.478 412.311 234.406 411.98 234.406C411.636 234.406 411.331 234.485 411.064 234.645C410.801 234.801 410.595 235.013 410.446 235.279C410.297 235.542 410.221 235.835 410.217 236.158V237.495C410.217 237.9 410.292 238.25 410.441 238.544C410.594 238.839 410.809 239.066 411.085 239.226C411.362 239.386 411.691 239.466 412.071 239.466C412.323 239.466 412.554 239.43 412.763 239.359C412.973 239.288 413.152 239.182 413.301 239.04C413.451 238.898 413.564 238.724 413.642 238.518L415.741 238.656C415.634 239.161 415.416 239.601 415.086 239.977C414.759 240.35 414.337 240.641 413.818 240.851C413.303 241.057 412.708 241.16 412.034 241.16ZM417.27 241V232.818H419.47V234.246H419.555C419.704 233.738 419.954 233.354 420.306 233.095C420.658 232.832 421.062 232.701 421.521 232.701C421.634 232.701 421.757 232.708 421.888 232.722C422.019 232.737 422.135 232.756 422.234 232.781V234.794C422.128 234.762 421.98 234.734 421.792 234.709C421.604 234.684 421.432 234.672 421.275 234.672C420.942 234.672 420.643 234.745 420.381 234.89C420.121 235.032 419.915 235.231 419.763 235.487C419.614 235.743 419.539 236.037 419.539 236.371V241H417.27Z" fill="white"/>
<path d="M378.29 195H372.65C371.47 195 370.88 194.42 370.88 193.26V175.14C370.88 173.98 371.47 173.4 372.65 173.4H378.23C383.27 173.4 385.79 175.22 385.79 178.86C385.79 180.08 385.47 181.14 384.83 182.04C384.21 182.94 383.38 183.55 382.34 183.87V183.93C383.66 184.29 384.71 184.9 385.49 185.76C386.29 186.62 386.69 187.72 386.69 189.06C386.69 191.22 385.95 192.75 384.47 193.65C382.99 194.55 380.93 195 378.29 195ZM374.18 176.31V182.55H378.62C379.78 182.55 380.7 182.29 381.38 181.77C382.08 181.25 382.43 180.45 382.43 179.37C382.43 177.33 381.02 176.31 378.2 176.31H374.18ZM374.18 185.46V192.09H378.53C380.11 192.09 381.3 191.85 382.1 191.37C382.9 190.89 383.3 190.03 383.3 188.79C383.3 186.57 381.75 185.46 378.65 185.46H374.18Z" fill="white"/>
<path d="M253.89 219.02C254.11 219.6 254.06 220.12 253.74 220.58C253.44 221.02 252.97 221.24 252.33 221.24C251.89 221.24 251.55 221.13 251.31 220.91C251.09 220.67 250.88 220.28 250.68 219.74L249.09 215.57C249.05 215.59 248.98 215.6 248.88 215.6H239.91H239.85L238.29 219.74C238.11 220.26 237.9 220.64 237.66 220.88C237.44 221.12 237.11 221.24 236.67 221.24C236.01 221.24 235.53 221.02 235.23 220.58C234.93 220.14 234.89 219.62 235.11 219.02L241.41 202.61C241.89 201.31 242.33 200.41 242.73 199.91C243.13 199.41 243.72 199.16 244.5 199.16C244.92 199.16 245.27 199.22 245.55 199.34C245.85 199.46 246.12 199.7 246.36 200.06C246.62 200.42 246.82 200.77 246.96 201.11C247.12 201.43 247.34 201.96 247.62 202.7L253.89 219.02ZM240.99 212.57H247.95L244.5 203.48H244.44L240.99 212.57ZM287.767 221H282.127C280.947 221 280.357 220.42 280.357 219.26V201.14C280.357 199.98 280.947 199.4 282.127 199.4H287.707C292.747 199.4 295.267 201.22 295.267 204.86C295.267 206.08 294.947 207.14 294.307 208.04C293.687 208.94 292.857 209.55 291.817 209.87V209.93C293.137 210.29 294.187 210.9 294.967 211.76C295.767 212.62 296.167 213.72 296.167 215.06C296.167 217.22 295.427 218.75 293.947 219.65C292.467 220.55 290.407 221 287.767 221ZM283.657 202.31V208.55H288.097C289.257 208.55 290.177 208.29 290.857 207.77C291.557 207.25 291.907 206.45 291.907 205.37C291.907 203.33 290.497 202.31 287.677 202.31H283.657ZM283.657 211.46V218.09H288.007C289.587 218.09 290.777 217.85 291.577 217.37C292.377 216.89 292.777 216.03 292.777 214.79C292.777 212.57 291.227 211.46 288.127 211.46H283.657Z" fill="#410EAD"/>
<path d="M265.107 199.09C263.306 199.386 261.778 200.134 260.495 201.361C259.215 202.575 258.45 204.011 258.11 205.813C258.023 206.278 258.023 206.452 258.006 212.883C257.993 217.404 258.001 219.584 258.036 219.824C258.115 220.424 258.423 220.872 258.941 221.134C259.168 221.251 259.228 221.26 259.646 221.26C260.077 221.26 260.125 221.251 260.39 221.12C260.734 220.951 260.999 220.677 261.16 220.333L261.278 220.085L261.304 213.297C261.33 206.004 261.317 206.391 261.539 205.725C262.013 204.311 263.206 203.132 264.685 202.597C265.286 202.384 265.808 202.305 266.848 202.279C268.945 202.227 269.92 202.466 270.942 203.284C271.625 203.833 272.078 204.485 272.391 205.373C272.687 206.208 272.67 205.76 272.696 213.275L272.722 220.085L272.839 220.333C273.105 220.899 273.623 221.247 274.236 221.277C275.167 221.316 275.842 220.751 275.968 219.824C275.998 219.584 276.007 217.413 275.994 212.862C275.977 206.457 275.972 206.23 275.89 205.747C275.572 203.955 274.898 202.588 273.731 201.365C272.535 200.117 271.003 199.338 269.228 199.068C268.553 198.968 265.769 198.981 265.107 199.09Z" fill="#410EAD"/>
<path d="M217.722 23V5.54545H224.267C225.608 5.54545 226.733 5.79545 227.642 6.29545C228.557 6.79545 229.247 7.48295 229.713 8.35795C230.185 9.22727 230.42 10.2159 230.42 11.3239C230.42 12.4432 230.185 13.4375 229.713 14.3068C229.241 15.1761 228.545 15.8608 227.625 16.3608C226.705 16.8551 225.571 17.1023 224.224 17.1023H219.886V14.5028H223.798C224.582 14.5028 225.224 14.3665 225.724 14.0938C226.224 13.821 226.594 13.446 226.832 12.9688C227.077 12.4915 227.199 11.9432 227.199 11.3239C227.199 10.7045 227.077 10.1591 226.832 9.6875C226.594 9.21591 226.222 8.84943 225.716 8.58807C225.216 8.32102 224.571 8.1875 223.781 8.1875H220.884V23H217.722ZM233.031 23V9.90909H236.022V12.0909H236.158C236.397 11.3352 236.806 10.7528 237.386 10.3438C237.971 9.92898 238.638 9.72159 239.388 9.72159C239.559 9.72159 239.749 9.73011 239.96 9.74716C240.175 9.75852 240.354 9.77841 240.496 9.80682V12.6449C240.366 12.5994 240.158 12.5597 239.874 12.5256C239.596 12.4858 239.326 12.4659 239.065 12.4659C238.502 12.4659 237.996 12.5881 237.548 12.8324C237.104 13.071 236.755 13.4034 236.499 13.8295C236.244 14.2557 236.116 14.7472 236.116 15.304V23H233.031ZM247.717 23.2557C246.439 23.2557 245.331 22.9744 244.393 22.4119C243.456 21.8494 242.729 21.0625 242.212 20.0511C241.7 19.0398 241.445 17.858 241.445 16.5057C241.445 15.1534 241.7 13.9687 242.212 12.9517C242.729 11.9347 243.456 11.1449 244.393 10.5824C245.331 10.0199 246.439 9.73864 247.717 9.73864C248.996 9.73864 250.104 10.0199 251.041 10.5824C251.979 11.1449 252.703 11.9347 253.214 12.9517C253.732 13.9687 253.99 15.1534 253.99 16.5057C253.99 17.858 253.732 19.0398 253.214 20.0511C252.703 21.0625 251.979 21.8494 251.041 22.4119C250.104 22.9744 248.996 23.2557 247.717 23.2557ZM247.734 20.7841C248.428 20.7841 249.007 20.5937 249.473 20.2131C249.939 19.8267 250.286 19.3097 250.513 18.6619C250.746 18.0142 250.862 17.2926 250.862 16.4972C250.862 15.696 250.746 14.9716 250.513 14.3239C250.286 13.6705 249.939 13.1506 249.473 12.7642C249.007 12.3778 248.428 12.1847 247.734 12.1847C247.024 12.1847 246.433 12.3778 245.962 12.7642C245.496 13.1506 245.146 13.6705 244.913 14.3239C244.686 14.9716 244.572 15.696 244.572 16.4972C244.572 17.2926 244.686 18.0142 244.913 18.6619C245.146 19.3097 245.496 19.8267 245.962 20.2131C246.433 20.5937 247.024 20.7841 247.734 20.7841ZM261.467 23.2301C260.438 23.2301 259.518 22.9659 258.705 22.4375C257.893 21.9091 257.251 21.142 256.779 20.1364C256.308 19.1307 256.072 17.9091 256.072 16.4716C256.072 15.017 256.31 13.7898 256.788 12.7898C257.271 11.7841 257.921 11.0256 258.739 10.5142C259.558 9.99716 260.469 9.73864 261.475 9.73864C262.242 9.73864 262.873 9.86932 263.367 10.1307C263.862 10.3864 264.254 10.696 264.543 11.0597C264.833 11.4176 265.058 11.7557 265.217 12.0739H265.344V5.54545H268.438V23H265.404V20.9375H265.217C265.058 21.2557 264.827 21.5937 264.526 21.9517C264.225 22.304 263.827 22.6051 263.333 22.8551C262.839 23.1051 262.217 23.2301 261.467 23.2301ZM262.327 20.6989C262.981 20.6989 263.538 20.5227 263.998 20.1705C264.458 19.8125 264.808 19.3153 265.046 18.679C265.285 18.0426 265.404 17.3011 265.404 16.4545C265.404 15.608 265.285 14.8722 265.046 14.2472C264.813 13.6222 264.467 13.1364 264.006 12.7898C263.552 12.4432 262.992 12.2699 262.327 12.2699C261.64 12.2699 261.066 12.4489 260.606 12.8068C260.146 13.1648 259.799 13.6591 259.566 14.2898C259.333 14.9205 259.217 15.642 259.217 16.4545C259.217 17.2727 259.333 18.0028 259.566 18.6449C259.805 19.2812 260.154 19.7841 260.614 20.1534C261.08 20.517 261.651 20.6989 262.327 20.6989ZM280.07 17.4943V9.90909H283.155V23H280.163V20.6733H280.027C279.732 21.4062 279.246 22.0057 278.57 22.4716C277.899 22.9375 277.072 23.1705 276.089 23.1705C275.232 23.1705 274.473 22.9801 273.814 22.5994C273.161 22.2131 272.649 21.6534 272.28 20.9205C271.911 20.1818 271.726 19.2898 271.726 18.2443V9.90909H274.811V17.767C274.811 18.5966 275.038 19.2557 275.493 19.7443C275.947 20.233 276.544 20.4773 277.283 20.4773C277.737 20.4773 278.178 20.3665 278.604 20.1449C279.03 19.9233 279.379 19.5938 279.652 19.1562C279.93 18.7131 280.07 18.1591 280.07 17.4943ZM292.038 23.2557C290.731 23.2557 289.609 22.9688 288.671 22.3949C287.739 21.821 287.021 21.0284 286.515 20.017C286.015 19 285.765 17.8295 285.765 16.5057C285.765 15.1761 286.021 14.0028 286.532 12.9858C287.043 11.9631 287.765 11.1676 288.697 10.5994C289.634 10.0256 290.742 9.73864 292.021 9.73864C293.083 9.73864 294.023 9.93466 294.842 10.3267C295.665 10.7131 296.322 11.2614 296.81 11.9716C297.299 12.6761 297.577 13.5 297.646 14.4432H294.697C294.577 13.8125 294.293 13.2869 293.844 12.8665C293.401 12.4403 292.808 12.2273 292.063 12.2273C291.433 12.2273 290.879 12.3977 290.401 12.7386C289.924 13.0739 289.552 13.5568 289.285 14.1875C289.023 14.8182 288.893 15.5739 288.893 16.4545C288.893 17.3466 289.023 18.1136 289.285 18.7557C289.546 19.392 289.913 19.8835 290.384 20.2301C290.862 20.571 291.421 20.7415 292.063 20.7415C292.518 20.7415 292.924 20.6562 293.282 20.4858C293.646 20.3097 293.95 20.0568 294.194 19.7273C294.438 19.3977 294.606 18.9972 294.697 18.5256H297.646C297.572 19.4517 297.299 20.2727 296.827 20.9886C296.356 21.6989 295.714 22.2557 294.901 22.6591C294.089 23.0568 293.134 23.2557 292.038 23.2557ZM306.716 9.90909V12.2955H299.19V9.90909H306.716ZM301.048 6.77273H304.134V19.0625C304.134 19.4773 304.196 19.7955 304.321 20.017C304.452 20.233 304.622 20.3807 304.832 20.4602C305.043 20.5398 305.276 20.5795 305.531 20.5795C305.724 20.5795 305.901 20.5653 306.06 20.5369C306.224 20.5085 306.349 20.483 306.435 20.4602L306.955 22.8722C306.79 22.929 306.554 22.9915 306.247 23.0597C305.946 23.1278 305.577 23.1676 305.139 23.179C304.366 23.2017 303.67 23.0852 303.051 22.8295C302.432 22.5682 301.94 22.1648 301.577 21.6193C301.219 21.0739 301.043 20.392 301.048 19.5739V6.77273ZM217.722 34.5455H221.591L226.773 47.1932H226.977L232.159 34.5455H236.028V52H232.994V40.0085H232.832L228.009 51.9489H225.741L220.918 39.983H220.756V52H217.722V34.5455ZM243.102 52.2642C242.273 52.2642 241.526 52.1165 240.861 51.821C240.202 51.5199 239.679 51.0767 239.293 50.4915C238.912 49.9062 238.722 49.1847 238.722 48.3267C238.722 47.5881 238.858 46.9773 239.131 46.4943C239.403 46.0114 239.776 45.625 240.247 45.3352C240.719 45.0455 241.25 44.8267 241.841 44.679C242.438 44.5256 243.054 44.4148 243.69 44.3466C244.457 44.267 245.08 44.196 245.557 44.1335C246.034 44.0653 246.381 43.9631 246.597 43.8267C246.818 43.6847 246.929 43.4659 246.929 43.1705V43.1193C246.929 42.4773 246.739 41.9801 246.358 41.6278C245.977 41.2756 245.429 41.0994 244.713 41.0994C243.957 41.0994 243.358 41.2642 242.915 41.5938C242.477 41.9233 242.182 42.3125 242.028 42.7614L239.148 42.3523C239.375 41.5568 239.75 40.892 240.273 40.358C240.795 39.8182 241.435 39.4148 242.19 39.1477C242.946 38.875 243.781 38.7386 244.696 38.7386C245.327 38.7386 245.955 38.8125 246.58 38.9602C247.205 39.108 247.776 39.3523 248.293 39.6932C248.81 40.0284 249.224 40.4858 249.537 41.0653C249.855 41.6449 250.014 42.3693 250.014 43.2386V52H247.048V50.2017H246.946C246.759 50.5653 246.494 50.9062 246.153 51.2244C245.818 51.5369 245.395 51.7898 244.884 51.983C244.378 52.1705 243.784 52.2642 243.102 52.2642ZM243.903 49.9972C244.523 49.9972 245.06 49.875 245.514 49.6307C245.969 49.3807 246.318 49.0511 246.562 48.642C246.812 48.233 246.938 47.7869 246.938 47.304V45.7614C246.841 45.8409 246.676 45.9148 246.443 45.983C246.216 46.0511 245.96 46.1108 245.676 46.1619C245.392 46.2131 245.111 46.2585 244.832 46.2983C244.554 46.3381 244.313 46.3722 244.108 46.4006C243.648 46.4631 243.236 46.5653 242.872 46.7074C242.509 46.8494 242.222 47.0483 242.011 47.304C241.801 47.554 241.696 47.8778 241.696 48.2756C241.696 48.8438 241.903 49.2727 242.318 49.5625C242.733 49.8523 243.261 49.9972 243.903 49.9972ZM256.202 44.3295V52H253.116V38.9091H256.065V41.1335H256.219C256.52 40.4006 257 39.8182 257.659 39.3864C258.324 38.9545 259.145 38.7386 260.122 38.7386C261.026 38.7386 261.813 38.9318 262.483 39.3182C263.159 39.7045 263.682 40.2642 264.051 40.9972C264.426 41.7301 264.611 42.6193 264.605 43.6648V52H261.52V44.142C261.52 43.267 261.293 42.5824 260.838 42.0881C260.389 41.5937 259.767 41.3466 258.972 41.3466C258.432 41.3466 257.952 41.4659 257.531 41.7045C257.116 41.9375 256.79 42.2756 256.551 42.7188C256.318 43.1619 256.202 43.6989 256.202 44.3295ZM271.509 52.2642C270.679 52.2642 269.932 52.1165 269.267 51.821C268.608 51.5199 268.085 51.0767 267.699 50.4915C267.318 49.9062 267.128 49.1847 267.128 48.3267C267.128 47.5881 267.264 46.9773 267.537 46.4943C267.81 46.0114 268.182 45.625 268.653 45.3352C269.125 45.0455 269.656 44.8267 270.247 44.679C270.844 44.5256 271.46 44.4148 272.097 44.3466C272.864 44.267 273.486 44.196 273.963 44.1335C274.44 44.0653 274.787 43.9631 275.003 43.8267C275.224 43.6847 275.335 43.4659 275.335 43.1705V43.1193C275.335 42.4773 275.145 41.9801 274.764 41.6278C274.384 41.2756 273.835 41.0994 273.119 41.0994C272.364 41.0994 271.764 41.2642 271.321 41.5938C270.884 41.9233 270.588 42.3125 270.435 42.7614L267.554 42.3523C267.781 41.5568 268.156 40.892 268.679 40.358C269.202 39.8182 269.841 39.4148 270.597 39.1477C271.352 38.875 272.188 38.7386 273.102 38.7386C273.733 38.7386 274.361 38.8125 274.986 38.9602C275.611 39.108 276.182 39.3523 276.699 39.6932C277.216 40.0284 277.631 40.4858 277.943 41.0653C278.261 41.6449 278.42 42.3693 278.42 43.2386V52H275.455V50.2017H275.352C275.165 50.5653 274.901 50.9062 274.56 51.2244C274.224 51.5369 273.801 51.7898 273.29 51.983C272.784 52.1705 272.19 52.2642 271.509 52.2642ZM272.31 49.9972C272.929 49.9972 273.466 49.875 273.92 49.6307C274.375 49.3807 274.724 49.0511 274.969 48.642C275.219 48.233 275.344 47.7869 275.344 47.304V45.7614C275.247 45.8409 275.082 45.9148 274.849 45.983C274.622 46.0511 274.366 46.1108 274.082 46.1619C273.798 46.2131 273.517 46.2585 273.239 46.2983C272.96 46.3381 272.719 46.3722 272.514 46.4006C272.054 46.4631 271.642 46.5653 271.278 46.7074C270.915 46.8494 270.628 47.0483 270.418 47.304C270.207 47.554 270.102 47.8778 270.102 48.2756C270.102 48.8438 270.31 49.2727 270.724 49.5625C271.139 49.8523 271.668 49.9972 272.31 49.9972ZM287.216 57.1818C286.108 57.1818 285.156 57.0313 284.361 56.7301C283.565 56.4347 282.926 56.0369 282.443 55.5369C281.96 55.0369 281.625 54.483 281.438 53.875L284.216 53.2017C284.341 53.4574 284.523 53.7102 284.761 53.9602C285 54.2159 285.321 54.4261 285.724 54.5909C286.134 54.7614 286.648 54.8466 287.267 54.8466C288.142 54.8466 288.866 54.6335 289.44 54.2074C290.014 53.7869 290.301 53.0938 290.301 52.1278V49.6477H290.148C289.989 49.9659 289.756 50.2926 289.449 50.6278C289.148 50.9631 288.747 51.2443 288.247 51.4716C287.753 51.6989 287.131 51.8125 286.381 51.8125C285.375 51.8125 284.463 51.5767 283.645 51.1051C282.832 50.6278 282.185 49.9176 281.702 48.9744C281.224 48.0256 280.986 46.8381 280.986 45.4119C280.986 43.9744 281.224 42.7614 281.702 41.7727C282.185 40.7784 282.835 40.0256 283.653 39.5142C284.472 38.9972 285.384 38.7386 286.389 38.7386C287.156 38.7386 287.787 38.8693 288.281 39.1307C288.781 39.3864 289.179 39.696 289.474 40.0597C289.77 40.4176 289.994 40.7557 290.148 41.0739H290.318V38.9091H293.361V52.2131C293.361 53.3324 293.094 54.2585 292.56 54.9915C292.026 55.7244 291.295 56.2727 290.369 56.6364C289.443 57 288.392 57.1818 287.216 57.1818ZM287.241 49.392C287.895 49.392 288.452 49.233 288.912 48.9148C289.372 48.5966 289.722 48.1392 289.96 47.5426C290.199 46.946 290.318 46.2301 290.318 45.3949C290.318 44.571 290.199 43.8494 289.96 43.2301C289.727 42.6108 289.381 42.1307 288.92 41.7898C288.466 41.4432 287.906 41.2699 287.241 41.2699C286.554 41.2699 285.98 41.4489 285.52 41.8068C285.06 42.1648 284.713 42.6562 284.48 43.2812C284.247 43.9006 284.131 44.6051 284.131 45.3949C284.131 46.196 284.247 46.8977 284.48 47.5C284.719 48.0966 285.068 48.5625 285.528 48.8977C285.994 49.2273 286.565 49.392 287.241 49.392ZM302.318 52.2557C301.006 52.2557 299.872 51.983 298.918 51.4375C297.969 50.8864 297.239 50.108 296.727 49.1023C296.216 48.0909 295.96 46.9006 295.96 45.5312C295.96 44.1847 296.216 43.0028 296.727 41.9858C297.244 40.9631 297.966 40.1676 298.892 39.5994C299.818 39.0256 300.906 38.7386 302.156 38.7386C302.963 38.7386 303.724 38.8693 304.44 39.1307C305.162 39.3864 305.798 39.7841 306.349 40.3239C306.906 40.8636 307.344 41.5511 307.662 42.3864C307.98 43.2159 308.139 44.2045 308.139 45.3523V46.2983H297.409V44.2188H305.182C305.176 43.6278 305.048 43.1023 304.798 42.642C304.548 42.1761 304.199 41.8097 303.75 41.5426C303.307 41.2756 302.79 41.142 302.199 41.142C301.568 41.142 301.014 41.2955 300.537 41.6023C300.06 41.9034 299.688 42.3011 299.42 42.7955C299.159 43.2841 299.026 43.821 299.02 44.4062V46.2216C299.02 46.983 299.159 47.6364 299.438 48.1818C299.716 48.7216 300.105 49.1364 300.605 49.4261C301.105 49.7102 301.69 49.8523 302.361 49.8523C302.81 49.8523 303.216 49.7898 303.58 49.6648C303.943 49.5341 304.259 49.3438 304.526 49.0938C304.793 48.8438 304.994 48.5341 305.131 48.1648L308.011 48.4886C307.83 49.25 307.483 49.9148 306.972 50.483C306.466 51.0455 305.818 51.483 305.028 51.7955C304.239 52.1023 303.335 52.2557 302.318 52.2557ZM310.749 52V38.9091H313.741V41.0909H313.877C314.116 40.3352 314.525 39.7528 315.104 39.3438C315.69 38.929 316.357 38.7216 317.107 38.7216C317.278 38.7216 317.468 38.7301 317.678 38.7472C317.894 38.7585 318.073 38.7784 318.215 38.8068V41.6449C318.085 41.5994 317.877 41.5597 317.593 41.5256C317.315 41.4858 317.045 41.4659 316.783 41.4659C316.221 41.4659 315.715 41.5881 315.266 41.8324C314.823 42.071 314.474 42.4034 314.218 42.8295C313.962 43.2557 313.835 43.7472 313.835 44.304V52H310.749Z" fill="black"/>
<path d="M267 64L267 130" stroke="black"/>
</svg>
