<svg width="66" height="66" viewBox="0 0 66 66" fill="none" xmlns="http://www.w3.org/2000/svg">
<path fill-rule="evenodd" clip-rule="evenodd" d="M32.2245 0.0776933C31.9763 0.106425 30.9321 0.22058 29.904 0.331385C26.1505 0.735694 21.222 1.70137 18.6953 2.52751C16.0447 3.39424 13.4054 4.88753 11.8131 6.4214C9.14725 8.98937 7.1474 12.6859 6.10642 16.9695C5.70859 18.6066 5.47758 19.2789 4.70203 21.0578C3.60084 23.5837 3.74742 24.5689 5.48067 26.2896C6.00922 26.8143 6.4416 27.3477 6.4416 27.4748C6.4416 28.2632 3.42036 33.3141 1.41239 35.8825C0.474799 37.0819 -0.00218403 38.0174 7.51762e-06 38.6526C0.00361712 39.7144 0.901634 40.7898 2.47181 41.6128C3.77694 42.2969 4.12114 42.599 4.12114 43.061C4.12114 43.2849 3.85596 43.979 3.52053 44.6327C3.0924 45.4672 2.91656 45.9653 2.90819 46.3673C2.8971 46.8971 2.94248 46.973 3.65847 47.6234C4.37226 48.2717 4.41094 48.3363 4.27081 48.6438C4.18843 48.8245 4.12114 49.2515 4.12114 49.5929C4.12114 50.3824 4.39276 50.738 5.57349 51.4945L6.46983 52.0686L6.39197 52.9945C6.15734 55.7839 6.15644 55.9786 6.37379 56.8117C6.9579 59.0505 8.27605 60.271 10.2446 60.3955C11.0186 60.4444 11.4587 60.3692 13.3385 59.8659C15.6791 59.2392 17.1747 58.7862 19.3173 58.055L20.6552 57.5984L21.0142 57.8539C22.4075 58.8455 24.0671 61.6702 24.8787 64.4313C25.0603 65.049 25.2787 65.496 25.4955 65.6937L25.8312 66L39.9794 65.9447C53.7794 65.8909 54.1345 65.8833 54.4063 65.6385C55.096 65.0174 54.9176 64.2565 53.5897 62.157C52.0002 59.6438 50.8553 55.6288 50.4018 50.9769C50.2124 49.0344 50.3992 46.7788 50.9148 44.7832C51.6076 42.1026 52.5144 40.3627 54.9166 37.1051C55.6749 36.0768 56.5153 34.8917 56.784 34.4716C58.062 32.475 59.3155 29.1377 59.05 28.4394C58.8591 27.9374 58.3556 27.6553 57.8275 27.7543C57.5862 27.7996 57.3277 27.9101 57.253 27.9999C57.1785 28.0897 56.9172 28.7743 56.6724 29.5212C55.9309 31.7836 55.2032 33.0569 52.8462 36.2169C50.5967 39.2329 49.5562 41.2843 48.8012 44.1928C48.3057 46.1016 48.1595 47.3168 48.1657 49.4754C48.1782 53.8251 49.5634 59.637 51.3102 62.6694C51.592 63.1586 51.7969 63.5848 51.7652 63.6164C51.7336 63.648 46.1481 63.7058 39.353 63.745L26.9984 63.8162L26.7631 63.0557C26.235 61.3485 24.861 58.8374 23.683 57.4263C23.3996 57.0868 23.1918 56.7852 23.2211 56.7558C23.2505 56.7265 24.2875 56.3453 25.5257 55.9088C26.7639 55.4721 28.125 54.9397 28.5504 54.7256C31.1604 53.4115 32.604 51.6718 32.6571 49.7761C32.6802 48.9502 32.2937 48.4446 31.6393 48.4446C31.147 48.4446 30.5486 48.8781 30.5486 49.2345C30.5486 50.5937 29.5234 51.8013 27.577 52.7343C25.3647 53.7951 14.3362 57.4425 11.3231 58.1101C9.8693 58.4322 9.06049 57.9786 8.63533 56.603C8.32271 55.5914 8.31163 55.0736 8.57616 53.8322C8.78642 52.8454 8.74336 52.0535 8.44003 51.3256C8.2045 50.7605 7.42302 49.9288 6.88983 49.6759C6.37804 49.4331 6.34465 49.2846 6.69943 48.8312C6.94617 48.5159 7.03202 47.8874 6.88171 47.496C6.8402 47.3879 6.47769 47.0549 6.076 46.7562C5.67443 46.4574 5.32275 46.1944 5.29465 46.1717C5.26654 46.1491 5.46108 45.702 5.72715 45.1782C6.89396 42.8806 6.32377 41.122 4.03528 39.9605C3.16846 39.5205 2.18743 38.8327 2.18743 38.665C2.18743 38.6018 2.77798 37.75 3.49964 36.772C5.26564 34.3791 6.4229 32.5328 7.62722 30.1867C8.472 28.5411 8.63288 28.1286 8.63185 27.6099C8.62992 26.6657 8.13553 25.7503 7.08436 24.7445C6.00729 23.7139 5.98498 23.579 6.64747 22.0963C7.38963 20.4351 7.82098 19.199 8.23518 17.5465C8.9495 14.6958 9.74064 12.7986 11.007 10.8998C13.6986 6.86346 16.8089 4.99665 23.0406 3.67666C27.6908 2.69166 32.6173 2.11109 35.2973 2.2322C36.1718 2.27176 37.0301 2.24998 37.2045 2.18363C37.5924 2.03623 37.8958 1.36805 37.7767 0.92316C37.7287 0.743811 37.5338 0.480843 37.3436 0.338858C37.0339 0.107843 36.7722 0.077951 34.8366 0.0530843C33.6482 0.037752 32.4726 0.0488325 32.2245 0.0776933ZM49.7547 0.23836C49.0582 0.608268 48.7786 1.13846 48.528 2.56436C48.4044 3.26746 48.2677 3.8975 48.2243 3.96449C48.181 4.03136 47.8758 4.2044 47.5464 4.34896L46.9475 4.61167L45.8061 3.84995C43.9291 2.59734 43.2304 2.57544 42.0896 3.73296L41.4515 4.3804H39.7578C37.9156 4.3804 37.381 4.49507 36.8221 5.00993C36.2992 5.49154 36.2497 5.61794 35.8968 7.37316C35.465 9.52213 35.4616 9.53411 35.2998 9.53411C35.2215 9.53411 34.8163 9.68705 34.3995 9.874L33.6417 10.2139L32.0417 9.15454C29.6226 7.55303 29.1633 7.57957 27.2473 9.43207C25.9107 10.7244 25.6498 11.1579 25.6498 12.0864C25.6498 12.6789 25.7376 12.8646 26.7266 14.3634L27.8035 15.9952L27.4148 16.939L27.0261 17.8827L25.2329 18.2369C23.3081 18.6173 22.8296 18.8379 22.3334 19.5738C22.0609 19.9779 22.0402 20.1444 22.0402 21.9368C22.0402 23.6879 22.0664 23.9116 22.3254 24.372C22.7427 25.114 23.2327 25.3472 25.2068 25.7427C26.3445 25.9706 27.0161 26.1658 27.0806 26.2874C27.136 26.3917 27.3233 26.803 27.4968 27.2016L27.8122 27.9263L26.731 29.5648C25.7425 31.063 25.6498 31.258 25.6498 31.8399C25.6498 32.7913 25.8864 33.1902 27.2223 34.4919C28.5148 35.7512 28.8429 35.9469 29.661 35.9469C30.2779 35.9469 30.6057 35.7857 32.3075 34.6453L33.6152 33.7691L34.499 34.1412C34.9852 34.3458 35.4248 34.5894 35.4758 34.6824C35.527 34.7756 35.7151 35.5979 35.8937 36.5097C36.4352 39.2725 36.7808 39.5545 39.6261 39.5545C42.6307 39.5545 42.7275 39.4495 43.5636 35.2873L43.709 34.5635L44.5578 34.203C45.0246 34.0047 45.4717 33.8429 45.5512 33.8434C45.6309 33.8438 46.4116 34.3173 47.2862 34.8955C48.7419 35.858 48.9305 35.9469 49.5183 35.9469C49.8715 35.9469 50.2872 35.8826 50.4421 35.804C50.5969 35.7253 51.3198 35.0731 52.0483 34.3545C54.0368 32.3932 54.0682 32.0091 52.443 29.5451L51.4073 27.9749L51.7845 27.0368L52.1616 26.0985L53.9179 25.7468C55.8248 25.3648 56.2952 25.1813 56.7062 24.6591L56.9748 24.3178L57.9744 24.9636C59.6975 26.0765 60.1443 26.0083 61.7782 24.3839C63.4753 22.6964 63.5166 22.2314 62.1498 20.1857L61.3898 19.0483L61.6577 18.4147C61.9556 17.7097 61.8839 17.7473 63.4862 17.456C65.6078 17.0701 66 16.5734 66 14.2722C66 11.9767 65.655 11.5642 63.349 11.1024C62.5867 10.9497 61.9505 10.8098 61.9356 10.7915C61.9205 10.7731 61.7906 10.4887 61.6468 10.1595L61.3855 9.56091L62.1477 8.42014C63.5126 6.37695 63.4701 5.82769 61.8194 4.17799C60.1772 2.53653 59.693 2.49259 57.6781 3.8019L56.4325 4.61129L55.8341 4.35025C55.505 4.20672 55.2207 4.07697 55.2023 4.0619C55.184 4.04695 55.044 3.41111 54.8912 2.64927C54.425 0.324427 54.0333 0.000258757 51.6885 1.07156e-06C50.4911 -0.000256614 50.1171 0.0458691 49.7547 0.23836ZM52.8652 3.7559C53.0399 4.66205 53.264 5.44503 53.3972 5.61433C53.5239 5.77525 53.9313 6.00627 54.3027 6.12777C54.674 6.24927 55.2515 6.48556 55.5859 6.65293C56.4753 7.09808 56.7758 7.04925 57.944 6.27039C59.8433 5.00387 59.5451 5.06894 60.2357 5.76971L60.8392 6.3821L59.9392 7.73263C58.9342 9.24048 58.8801 9.48386 59.3431 10.4081C59.5106 10.7423 59.747 11.3195 59.8686 11.6906C59.9901 12.0618 60.2213 12.4689 60.3823 12.5955C60.5517 12.7286 61.3351 12.9527 62.2418 13.1273L63.8085 13.429V14.2907V15.1524L62.2596 15.4507C61.3137 15.6328 60.5897 15.8439 60.4001 15.993C60.2293 16.1274 59.9901 16.5408 59.8686 16.912C59.747 17.2831 59.5106 17.8603 59.3431 18.1945C58.875 19.1287 58.9305 19.3744 59.947 20.8719L60.8553 22.2102L60.237 22.8262L59.6187 23.4422L58.442 22.654L57.2654 21.866L57.2047 20.922C57.1582 20.196 57.0689 19.8643 56.8189 19.4867L56.4937 18.9956L56.9249 18.4844C57.4538 17.8577 58.0749 16.6256 58.2542 15.8474C58.4766 14.8822 58.4229 13.2624 58.1382 12.3407C57.655 10.7772 56.4114 9.26586 54.9577 8.47541C53.6914 7.78675 52.053 7.56462 50.4091 7.85851C50.0149 7.92899 49.4762 8.01828 49.2118 8.05706C48.9075 8.10164 48.1571 8.50659 47.1663 9.16098L45.6011 10.1944L44.7462 9.84115C44.2759 9.64685 43.8475 9.45165 43.7943 9.40759C43.7409 9.3634 43.543 8.558 43.3547 7.61783L43.012 5.90822L43.3883 5.53213L43.7646 5.15616L45.117 6.05652C46.627 7.06162 46.8703 7.11586 47.7951 6.65293C48.1295 6.48556 48.7071 6.24927 49.0783 6.12777C49.4497 6.00627 49.8634 5.76726 49.9979 5.59655C50.147 5.40702 50.3583 4.68344 50.5405 3.73812L50.8389 2.19007H51.7011H52.5633L52.8652 3.7559ZM21.7179 6.23806C17.9778 7.19639 15.6291 8.52489 13.9186 10.6499C12.1252 12.8781 11.2007 14.7691 10.4397 17.7661C10.2888 18.3609 10.2121 18.888 10.2693 18.9376C10.3267 18.9872 10.7216 19.099 11.147 19.1861C11.5724 19.2732 12.022 19.3733 12.1461 19.4085C12.304 19.4532 12.3717 19.3992 12.3717 19.2284C12.3717 18.751 13.1624 16.1797 13.601 15.231C14.1651 14.0106 15.2618 12.368 16.0797 11.5182C17.4448 10.0999 19.477 9.07208 22.3264 8.35894C23.1971 8.14106 24.0176 7.86702 24.1499 7.7499C24.7652 7.20502 24.6336 6.28495 23.8962 5.97702C23.6599 5.87846 23.4502 5.80012 23.4302 5.80321C23.4102 5.8063 22.6397 6.00202 21.7179 6.23806ZM41.3381 8.76106C41.8113 11.1358 41.8327 11.1725 42.9591 11.5372C43.3299 11.6572 44.0615 11.9558 44.5849 12.2006C45.2086 12.4925 45.6399 12.6199 45.8369 12.5704C46.0023 12.5289 46.9068 11.9735 47.8469 11.3361L49.5563 10.1773L50.4836 11.098L51.411 12.0186L50.1972 13.8357C49.5295 14.8351 48.9833 15.7803 48.9833 15.9363C48.9833 16.0922 49.1864 16.6241 49.4345 17.1183C49.6827 17.6126 49.8857 18.0484 49.8857 18.0868C49.8857 18.4192 50.4767 19.6154 50.7008 19.737C50.8553 19.8207 51.8807 20.0693 52.9797 20.2897L54.9778 20.6901L55.0143 21.9859L55.0509 23.2816L52.9517 23.6987C51.419 24.0032 50.7755 24.1871 50.5669 24.3805C50.4099 24.5261 50.1551 25.0285 50.001 25.4967C49.8469 25.9649 49.5548 26.6799 49.352 27.0852C49.1492 27.4907 48.9833 27.9357 48.9833 28.0741C48.9833 28.2123 49.5054 29.114 50.1435 30.0775C50.7817 31.0411 51.3038 31.8733 51.3038 31.9267C51.3038 31.9803 50.904 32.4206 50.4153 32.9053L49.5269 33.7863L47.7876 32.6119C46.5613 31.7837 45.9351 31.4374 45.6644 31.4374C45.4533 31.4374 44.7939 31.6633 44.199 31.9394C43.6044 32.2155 42.9365 32.4793 42.715 32.5259C41.9496 32.6864 41.7642 33.0509 41.3215 35.2657L40.9151 37.2997L39.6143 37.3363C38.3521 37.3718 38.3115 37.3642 38.2441 37.0786C38.2058 36.9168 38.0201 36.0017 37.8313 35.045C37.6426 34.0883 37.4107 33.1844 37.3161 33.0361C37.2136 32.8757 36.7356 32.622 36.1346 32.4091C35.5793 32.2125 34.8513 31.9135 34.5169 31.7446C33.53 31.2459 33.3198 31.3038 31.3659 32.6108L29.6116 33.7843L28.703 32.8762L27.7944 31.9681L28.9781 30.1844C29.7492 29.0224 30.1618 28.2774 30.1618 28.0472C30.1618 27.8527 29.9959 27.3618 29.7931 26.9564C29.5904 26.551 29.2948 25.8256 29.1363 25.3445C28.9567 24.7993 28.7393 24.3985 28.5586 24.2802C28.3992 24.1758 27.3605 23.9086 26.2503 23.6865L24.2318 23.2825L24.2322 21.9808L24.2325 20.679L26.3157 20.2613C27.4909 20.0258 28.4959 19.7559 28.6216 19.6422C28.744 19.5314 29.001 18.9947 29.1925 18.4494C29.384 17.9041 29.6803 17.2043 29.8513 16.8941C30.3489 15.9907 30.2874 15.7705 29.0016 13.8503C28.3635 12.8974 27.8414 12.0712 27.8414 12.0143C27.8414 11.9574 28.2406 11.5148 28.7286 11.0309L29.6157 10.151L31.4374 11.3887C32.4394 12.0694 33.3759 12.6263 33.5185 12.6263C33.6612 12.6263 34.168 12.4315 34.6448 12.1934C35.1217 11.9553 35.8308 11.6601 36.2208 11.5374C37.2551 11.2119 37.4193 10.9686 37.7568 9.26225C37.9164 8.45505 38.1054 7.51734 38.1768 7.17835L38.3066 6.56197L39.6106 6.59856L40.9144 6.63515L41.3381 8.76106ZM53.859 10.4448C54.7218 10.8758 55.3922 11.5645 55.8474 12.4877C56.0878 12.9755 56.1377 13.2887 56.136 14.3013C56.1337 15.7755 55.8537 16.4705 54.8777 17.4253C54.1221 18.1645 53.8424 18.2475 52.8904 18.0153L52.1563 17.8362L51.7725 16.9117L51.3887 15.9869L52.435 14.4419C53.0329 13.5588 53.519 12.6954 53.5694 12.427C53.686 11.8059 53.4487 11.0539 52.9604 10.4982C52.6133 10.1031 52.5961 10.0495 52.8168 10.0495C52.9546 10.0495 53.4236 10.2274 53.859 10.4448ZM37.6649 14.5618C36.305 14.9179 35.2552 15.5249 34.2162 16.556C32.6697 18.0906 31.9537 19.8212 31.9505 22.0319C31.9445 26.2271 35.351 29.6336 39.5526 29.6336C40.8731 29.6336 41.7267 29.4527 42.8599 28.9328C46.0053 27.4898 47.8413 23.8567 47.1286 20.4858C46.2141 16.1605 41.892 13.4551 37.6649 14.5618ZM40.7587 16.6345C43.5331 17.2146 45.4856 20.0541 45.0112 22.819C44.7001 24.6317 43.5659 26.1516 41.9262 26.9531C41.1012 27.3563 40.9799 27.3788 39.637 27.3788C38.3124 27.3788 38.1622 27.352 37.3578 26.9711C35.8941 26.278 34.8342 25.0883 34.3517 23.5968C33.9969 22.5002 34.1187 20.7898 34.6283 19.7127C35.759 17.3227 38.1967 16.0988 40.7587 16.6345ZM39.1214 21.0211C38.1201 21.5684 38.4848 23.0626 39.6198 23.0626C40.2335 23.0626 40.7904 22.4242 40.6799 21.8474C40.5358 21.095 39.7489 20.678 39.1214 21.0211ZM9.2665 22.197C8.46594 22.8114 8.74749 23.968 9.74619 24.1677C10.3137 24.2811 10.9536 23.7205 10.9536 23.1098C10.9536 22.2722 9.90668 21.7058 9.2665 22.197Z" fill="#C33FE4"/>
</svg>
