<svg width="131" height="43" viewBox="0 0 131 43" fill="none" xmlns="http://www.w3.org/2000/svg">
<path d="M32.1941 15.1862H16.9011V19.7262H27.7443C27.209 26.0931 21.916 28.8084 16.92 28.8084C13.7068 28.8066 10.626 27.5273 8.35523 25.252C6.08449 22.9768 4.80983 19.8919 4.81168 16.676C4.81352 13.4601 6.09171 10.3767 8.36507 8.10404C10.6384 5.83138 13.7207 4.55567 16.9339 4.55751C19.98 4.55059 22.91 5.7263 25.1077 7.83734L28.2855 4.54556C26.7592 3.06796 24.9568 1.90614 22.9813 1.12658C21.0058 0.347023 18.8962 -0.0349571 16.773 0.00251231C14.5653 -0.0116187 12.3767 0.413386 10.3345 1.25288C8.29222 2.09238 6.43698 3.32962 4.8765 4.89273C3.31602 6.45585 2.08139 8.31369 1.24433 10.3584C0.407267 12.403 -0.0155478 14.5938 0.00043687 16.8034C0.0164216 19.013 0.470887 21.1973 1.33744 23.2297C2.204 25.262 3.46538 27.1018 5.04832 28.6421C6.63125 30.1824 8.50418 31.3926 10.5584 32.2025C12.6125 33.0123 14.807 33.4055 17.0143 33.3594C25.9359 33.3594 32.4672 27.242 32.4672 18.1966C32.487 17.1856 32.3941 16.1756 32.1902 15.1852L32.1941 15.1862Z" fill="#386DB4"/>
<path d="M44.7163 11.8983C42.6008 11.9055 40.5348 12.5396 38.7789 13.7204C37.0229 14.9013 35.6556 16.576 34.8494 18.5335C34.0432 20.491 33.8342 22.6437 34.2486 24.7199C34.6631 26.7962 35.6826 28.7031 37.1785 30.2003C38.6744 31.6974 40.5797 32.7177 42.6542 33.1326C44.7287 33.5474 46.8795 33.3382 48.8354 32.5313C50.7913 31.7244 52.4646 30.356 53.6445 28.5986C54.8243 26.8411 55.4578 24.7734 55.4651 22.6561C55.4872 21.2373 55.2243 19.8284 54.6919 18.5132C54.1596 17.198 53.3687 16.0033 52.3661 14.9999C51.3636 13.9965 50.1698 13.2049 48.8557 12.6721C47.5416 12.1393 46.1339 11.8761 44.7163 11.8983ZM44.7788 16.1094C46.0831 16.0317 47.3806 16.3481 48.5029 17.0176C49.6252 17.6871 50.5206 18.6788 51.0728 19.8639C51.625 21.049 51.8086 22.3729 51.5996 23.6638C51.3907 24.9546 50.799 26.1528 49.9012 27.1028C49.0034 28.0529 47.8411 28.7109 46.565 28.9916C45.2889 29.2723 43.9579 29.1626 42.7449 28.6768C41.5318 28.191 40.4927 27.3515 39.7622 26.2673C39.0318 25.1831 38.6439 23.9041 38.6487 22.5965C38.6047 21.7626 38.7305 20.9285 39.0185 20.1447C39.3064 19.361 39.7506 18.644 40.3239 18.0373C40.8972 17.4306 41.5877 16.9469 42.3535 16.6154C43.1194 16.284 43.9445 16.1118 44.7788 16.1094Z" fill="#D01B28"/>
<path d="M68.1372 11.8983C66.0217 11.9055 63.9557 12.5396 62.1997 13.7204C60.4438 14.9013 59.0765 16.576 58.2703 18.5335C57.4641 20.491 57.255 22.6437 57.6695 24.7199C58.084 26.7962 59.1035 28.7031 60.5994 30.2003C62.0953 31.6974 64.0006 32.7177 66.0751 33.1326C68.1496 33.5474 70.3004 33.3382 72.2563 32.5313C74.2122 31.7244 75.8855 30.356 77.0654 28.5986C78.2452 26.8411 78.8787 24.7734 78.886 22.6561C78.9081 21.2373 78.6452 19.8284 78.1129 18.5132C77.5805 17.198 76.7896 16.0033 75.787 14.9999C74.7845 13.9965 73.5907 13.2049 72.2766 12.6721C70.9625 12.1393 69.5549 11.8761 68.1372 11.8983ZM68.1997 16.1094C69.504 16.0317 70.8015 16.3481 71.9238 17.0176C73.0461 17.6871 73.9415 18.6788 74.4937 19.8639C75.0459 21.049 75.2294 22.3729 75.0205 23.6638C74.8116 24.9546 74.2199 26.1528 73.3221 27.1028C72.4243 28.0529 71.262 28.7109 69.9859 28.9916C68.7098 29.2723 67.3788 29.1626 66.1658 28.6768C64.9527 28.191 63.9136 27.3515 63.1831 26.2673C62.4527 25.1831 62.0648 23.9041 62.0696 22.5965C62.0256 21.7626 62.1514 20.9285 62.4394 20.1447C62.7273 19.361 63.1715 18.644 63.7448 18.0373C64.3181 17.4306 65.0086 16.9469 65.7744 16.6154C66.5402 16.284 67.3654 16.1118 68.1997 16.1094Z" fill="#F7B300"/>
<path d="M91.1096 11.9093C85.3499 11.9093 80.8255 16.9573 80.8255 22.6224C80.7824 25.3895 81.8247 28.0633 83.7288 30.07C85.6329 32.0768 88.247 33.2566 91.0103 33.3564C92.1255 33.4171 93.2391 33.2127 94.2602 32.7599C95.2813 32.3071 96.1808 31.6189 96.8852 30.7514V32.8654C96.8852 36.5637 94.6419 38.7791 91.2546 38.7791C90.0636 38.7664 88.9039 38.3957 87.926 37.7152C86.9482 37.0346 86.1973 36.0756 85.7709 34.9625L81.6537 36.6849C82.4493 38.5773 83.7909 40.189 85.5069 41.3139C87.2229 42.4387 89.2352 43.0255 91.2863 42.9991C97.0113 42.9991 101.375 39.3903 101.375 31.8208V12.5543H96.8832V14.3701C96.152 13.571 95.2581 12.9379 94.2618 12.5136C93.2655 12.0893 92.19 11.8835 91.1076 11.9103L91.1096 11.9093ZM91.5267 16.1124C94.3499 16.1124 97.2486 18.5256 97.2486 22.6453C97.2486 26.8335 94.3559 29.1413 91.4641 29.1413C88.3946 29.1413 85.5385 26.6467 85.5385 22.6811C85.5385 18.5654 88.5048 16.1085 91.5277 16.1085L91.5267 16.1124Z" fill="#386DB4"/>
<path d="M121.346 11.8835C115.915 11.8835 111.354 16.209 111.354 22.5907C111.301 23.9979 111.535 25.4011 112.042 26.7148C112.548 28.0285 113.317 29.2252 114.301 30.2318C115.284 31.2384 116.463 32.0339 117.764 32.5698C119.065 33.1057 120.462 33.3706 121.869 33.3486C123.634 33.3526 125.373 32.9263 126.936 32.1065C128.5 31.2867 129.84 30.0981 130.842 28.6435L127.139 26.1747C126.602 27.0861 125.833 27.8391 124.911 28.3573C123.99 28.8756 122.947 29.1406 121.89 29.1255C120.79 29.1712 119.702 28.8861 118.766 28.307C117.829 27.7279 117.087 26.8814 116.636 25.8765L131 19.9132L130.254 18.1649C129.569 16.3454 128.353 14.7737 126.765 13.6538C125.177 12.5338 123.289 11.9171 121.346 11.8835ZM121.534 16.0072C122.343 15.9726 123.146 16.1692 123.848 16.5739C124.55 16.9787 125.122 17.575 125.498 18.2931L115.906 22.3055C115.859 21.5211 115.968 20.7353 116.226 19.9932C116.484 19.2511 116.886 18.5674 117.41 17.9816C117.933 17.3958 118.567 16.9193 119.275 16.5798C119.983 16.2403 120.751 16.0443 121.535 16.0032L121.534 16.0072Z" fill="#D01B28"/>
<path d="M104.506 32.7125H109.224V1.11182H104.506V32.7125Z" fill="#4BAA3F"/>
</svg>
