<svg width="73" height="73" viewBox="0 0 73 73" fill="none" xmlns="http://www.w3.org/2000/svg">
<path fill-rule="evenodd" clip-rule="evenodd" d="M35.4977 0.233393C34.4349 0.825761 34.4251 0.866004 34.3815 4.87915C34.3446 8.2691 34.3586 8.49857 34.6305 8.93739C35.5285 10.3876 37.675 10.2922 38.3672 8.77128C38.5834 8.29607 38.6337 7.82957 38.6363 6.27494L38.6395 4.36313L39.8904 4.45903C46.6006 4.97376 54.1322 8.55993 59.2382 13.6718C64.2731 18.7122 67.3605 24.8487 68.3972 31.8759C68.8078 34.6591 69.0447 34.3453 66.4912 34.3989C64.4952 34.4407 64.2718 34.472 63.8567 34.7675C63.2787 35.1788 62.8816 36.1676 63.0132 36.8674C63.1404 37.5446 63.8504 38.3272 64.5008 38.5074C64.7894 38.5873 65.846 38.6531 66.8488 38.6535C68.4909 38.6542 68.6719 38.6792 68.6693 38.9041C68.6628 39.4942 68.2387 42.264 67.9538 43.5777C67.2409 46.8648 65.4457 51.1229 63.5616 53.9952C58.3548 61.9331 50.057 67.1538 40.6416 68.4156C39.8157 68.5262 39.0273 68.6181 38.8897 68.6195C38.6643 68.6221 38.6393 68.4415 38.6386 66.8029C38.6382 65.8023 38.5722 64.748 38.4922 64.46C38.3115 63.811 37.5272 63.1026 36.8486 62.9756C36.1473 62.8443 35.1564 63.2406 34.7442 63.8172C34.448 64.2315 34.4167 64.4544 34.3748 66.4462L34.3289 68.6224H33.7483C32.9125 68.6224 30.4939 68.2273 28.9146 67.8325C25.106 66.8808 21.9384 65.4993 18.7606 63.404C10.5992 58.0226 5.43883 49.424 4.39956 39.4749L4.31389 38.6544H6.21539C7.90624 38.6544 8.18668 38.6189 8.74458 38.3333C10.2239 37.5764 10.2873 35.5273 8.85827 34.6579C8.45083 34.4101 8.13549 34.3742 6.35297 34.3738L4.31389 34.3732L4.39827 33.5527C4.679 30.823 5.39564 27.75 6.33667 25.2401C7.07719 23.265 8.62831 20.1737 8.75702 20.4163C8.81137 20.5186 8.93636 21.0396 9.03504 21.5742C9.24469 22.71 9.78443 23.4054 10.6392 23.6408C11.9582 24.0042 13.3333 22.9808 13.3223 21.644C13.315 20.7512 11.9412 14.1414 11.6658 13.6732C11.3474 13.1322 10.5747 12.6817 9.96763 12.6831C9.0532 12.6852 2.24664 14.1037 1.8954 14.3655C0.548501 15.3688 0.622868 17.1569 2.04442 17.9542C2.64622 18.2917 3.22656 18.3068 4.58605 18.0207L5.07029 17.9188L4.27342 19.4032C2.66195 22.4053 1.39271 25.9831 0.684077 29.5213C0.185248 32.0116 -0.00338639 33.9411 4.59188e-05 36.5138C0.0159204 48.3024 5.66765 59.3295 15.1853 66.1416C20.6201 70.0316 26.8336 72.3146 33.6135 72.9125C36.9222 73.2044 42.0506 72.745 45.5112 71.8467C50.6259 70.5192 55.4207 68.1127 59.5162 64.8173C65.8693 59.7055 70.601 51.9932 72.2409 44.0772C72.963 40.5917 73.1976 35.9463 72.8247 32.5181C72.2028 26.8009 70.1571 21.1555 66.9786 16.3852C60.4089 6.52496 49.7194 0.490833 38.0162 0.0357471C36.1938 -0.0351772 35.9447 -0.0156267 35.4977 0.233393ZM46.0251 26.3858C45.8003 26.453 45.4945 26.6179 45.3458 26.7524C45.0858 26.9871 45.075 27.3446 45.075 35.7976V44.5982L45.3968 44.8957C46.122 45.5663 47.6413 45.5995 48.4959 44.9638L48.8649 44.6894L48.9501 41.2081C48.997 39.2934 49.0454 37.713 49.0574 37.6961C49.4677 37.1232 50.0523 36.648 50.435 36.5763C51.0661 36.4582 51.8509 36.8362 52.2234 37.4377C52.4897 37.8677 52.5117 38.1441 52.5117 41.0523C52.5117 42.7843 52.5734 44.363 52.6486 44.5605C53.0267 45.5529 55.3913 45.753 56.2288 44.8633C56.5312 44.5421 56.5363 44.4633 56.4908 40.7032L56.4446 36.8706L56.0474 36.0243C55.4605 34.774 54.7843 34.031 53.7752 33.5279C52.2542 32.7692 50.8787 32.9873 49.6878 34.1756L48.9364 34.9255V31.0104C48.9364 27.3293 48.9198 27.0787 48.6597 26.8192C48.1577 26.3183 46.9276 26.1159 46.0251 26.3858ZM20.6198 26.8615C18.2226 27.3813 16.5312 29.0954 16.3639 31.1747C16.2307 32.8303 16.7999 33.6597 18.0695 33.6597C19.338 33.6597 20.1908 33.0715 20.1908 32.1963C20.1908 31.081 20.9311 30.3775 22.105 30.3775C22.99 30.3775 23.4309 30.5754 23.7655 31.1231C24.6482 32.5677 23.7492 33.9079 20.0478 36.6654C17.8963 38.2681 16.8368 39.3148 16.3842 40.2848C16.0856 40.9245 16.046 41.2182 16.0448 42.8037C16.0435 44.5016 16.0614 44.6152 16.378 44.912C16.5621 45.0845 16.9316 45.2883 17.1994 45.3649C17.4715 45.4429 19.7511 45.5042 22.3686 45.5042H27.0508L27.5042 45.1001C27.8847 44.7607 27.968 44.5699 28.0227 43.9105C28.0945 43.0474 27.8347 42.3427 27.3493 42.0836C27.1825 41.9944 25.7195 41.9366 23.6325 41.9366H20.1908V41.6124C20.1908 41.0622 20.9841 40.2874 22.9506 38.9167C25.3997 37.2095 26.8974 35.7376 27.5183 34.4273C28.1494 33.0956 28.2425 31.4502 27.7595 30.1634C27.3145 28.9786 26.0273 27.6929 24.8436 27.2517C23.2421 26.6545 22.0731 26.5466 20.6198 26.8615ZM36.1367 26.93C35.9008 27.0739 35.6342 27.2824 35.5442 27.3933C35.4543 27.5041 33.9902 30.31 32.2907 33.6286C28.9024 40.2447 28.8677 40.342 29.6186 41.0914L30.0366 41.5085H33.2655H36.4943V42.945C36.4943 43.735 36.5605 44.5049 36.6416 44.6558C37.1252 45.5577 39.3013 45.7053 40.1768 44.8957C40.4723 44.6226 40.4986 44.4722 40.4986 43.0534V41.5085H41.1305C41.9687 41.5085 42.1589 41.421 42.4792 40.8879C42.8403 40.2866 42.9384 39.6826 42.7854 39.0024C42.6039 38.1969 42.0829 37.7982 41.2115 37.7982H40.5102L40.4686 36.6357C40.4308 35.5785 40.3939 35.4485 40.0611 35.2011C39.5893 34.8503 38.2729 34.7116 37.5806 34.9395C36.6903 35.2328 36.4943 35.5604 36.4943 36.7548V37.7982H35.4217C34.8317 37.7982 34.3491 37.7656 34.3491 37.7259C34.3491 37.6863 35.3788 35.5995 36.6373 33.0889C37.9772 30.4159 38.9255 28.3567 38.9255 28.1199C38.9255 27.6454 38.502 27.2023 37.7482 26.8881C37.0566 26.5997 36.6613 26.61 36.1367 26.93Z" fill="#87C932"/>
</svg>
