<svg width="66" height="66" viewBox="0 0 66 66" fill="none" xmlns="http://www.w3.org/2000/svg">
<path fill-rule="evenodd" clip-rule="evenodd" d="M28.0535 4.29451C25.5437 6.79398 23.6634 8.76907 23.5548 9.01989C23.3217 9.55861 23.5004 10.2047 23.989 10.5889C24.2803 10.818 24.5114 10.8493 25.9169 10.8493H27.5138V17.7593V24.6692H28.9383H30.3628L30.3267 16.8874C30.2926 9.54712 30.2768 9.08551 30.0503 8.75137C29.8162 8.40626 29.2664 8.17546 28.5116 8.10558C28.1813 8.07497 28.3445 7.88162 30.6103 5.61967L33.0672 3.16696L35.5241 5.61967C37.7899 7.88162 37.9531 8.07497 37.6228 8.10558C36.868 8.17546 36.3182 8.40626 36.0841 8.75137C35.8618 9.07918 35.841 9.48034 35.8059 14.1105L35.7679 19.1154H37.1943H38.6206V14.9824V10.8493H40.2175C41.623 10.8493 41.8541 10.818 42.1454 10.5889C42.634 10.2047 42.8127 9.55861 42.5796 9.01989C42.471 8.76907 40.5907 6.79398 38.0809 4.29451L33.7686 0H33.0672H32.3658L28.0535 4.29451ZM9.17478 8.21989C8.86417 8.33923 0.395796 16.8173 0.179086 17.226C-0.270738 18.0741 -0.178913 18.1972 4.181 22.5853C6.39486 24.8132 8.43282 26.8039 8.70984 27.0089C9.34874 27.4815 9.98944 27.5033 10.5308 27.0707L10.9183 26.7611L10.9829 25.0371L11.0474 23.3131L13.7918 23.2782L16.5362 23.2433V23.9563V24.6692H17.8923H19.2483V23.0568C19.2483 21.4578 19.2451 21.4408 18.8716 21.0226L18.4949 20.6007L13.9668 20.5637C10.0749 20.5319 9.38413 20.5549 9.05066 20.7273C8.57023 20.9758 8.27074 21.5318 8.27074 22.1752V22.6647L5.81692 20.2133L3.36311 17.7617L5.78464 15.3366L8.20617 12.9114L8.29101 13.5767C8.35107 14.0472 8.47479 14.3411 8.71359 14.5799L9.05131 14.9178L15.5382 14.9824L22.025 15.0469L22.0589 19.8581L22.0927 24.6692H23.4472H24.8017V19.0444C24.8017 14.2693 24.7721 13.3625 24.6058 13.0407C24.2039 12.2633 24.2668 12.27 17.3176 12.27H10.9829V10.6576C10.9829 9.08021 10.9751 9.03656 10.6277 8.65115C10.2741 8.25889 9.59683 8.05779 9.17478 8.21989ZM55.9765 8.2576C55.8266 8.32141 55.5795 8.53181 55.4277 8.7249C55.1794 9.04043 55.1515 9.23714 55.1515 10.673V12.27H48.8168C41.8676 12.27 41.9305 12.2633 41.5286 13.0407C41.3623 13.3625 41.3327 14.2693 41.3327 19.0444V24.6692H42.6872H44.0417L44.0755 19.8581L44.1094 15.0469L50.5962 14.9824L57.0831 14.9178L57.4208 14.5799C57.6596 14.3411 57.7833 14.0472 57.8434 13.5767L57.9282 12.9114L60.3498 15.3366L62.7713 17.7617L60.3175 20.2133L57.8637 22.6647V22.1752C57.8637 21.5318 57.5642 20.9758 57.0837 20.7273C56.7503 20.5549 56.0595 20.5319 52.1676 20.5637L47.6395 20.6007L47.2628 21.0226C46.8893 21.4408 46.8861 21.4578 46.8861 23.0568V24.6692H48.2421H49.5982V23.9563V23.2433L52.3426 23.2782L55.087 23.3131L55.1515 25.0371L55.2161 26.7611L55.6036 27.0707C56.145 27.5033 56.7857 27.4815 57.4246 27.0089C57.7016 26.8039 59.7444 24.8094 61.9641 22.5766L66 18.5169V17.8191V17.1212L61.5751 12.6906C57.7336 8.84411 57.0907 8.25205 56.6998 8.20051C56.4519 8.16797 56.1266 8.19367 55.9765 8.2576ZM35.7793 23.3131V24.6692H37.1999H38.6206V23.3131V21.9569H37.1999H35.7793V23.3131ZM14.2535 27.57C13.7059 27.8082 13.5037 28.1547 13.1952 29.3835C12.5321 32.0236 12.2608 35.2459 12.5054 37.5742L12.6332 38.7905L10.4519 43.986C9.25226 46.8436 8.27074 49.3069 8.27074 49.4602C8.27074 49.9432 8.65767 50.5138 9.11459 50.7048C9.40388 50.8257 10.0388 50.8883 10.9738 50.8883H12.3937L12.4309 55.2904L12.4681 59.6925L12.8899 60.0693L13.3117 60.4461H16.9903H20.669V62.6482C20.669 64.3639 20.7122 64.9339 20.8649 65.2292C21.2788 66.0296 20.8635 65.9999 31.6209 65.9999C38.2777 65.9999 41.5511 65.9553 41.8215 65.861C42.6709 65.5648 42.6845 65.4892 42.7275 60.8154L42.7662 56.5996L43.567 56.0424C44.7926 55.1896 47.117 52.7912 48.0328 51.4346C49.5729 49.1532 50.7552 46.2822 51.4491 43.1388C52.0953 40.2116 52.2168 38.7809 52.2776 33.3874C52.3338 28.3945 52.3319 28.3471 52.0582 27.9994C51.9062 27.8066 51.5667 27.589 51.3036 27.5159C50.9857 27.4277 44.7536 27.3844 32.7443 27.3874C17.6571 27.391 14.5956 27.4212 14.2535 27.57ZM49.5633 34.1301C49.4885 38.2955 49.3106 40.1539 48.7389 42.7412C48.1571 45.3739 47.1867 47.7408 45.853 49.7798C44.954 51.1541 42.8445 53.2437 41.4179 54.173C40.5751 54.7219 40.2285 55.0306 40.0942 55.3523C39.9517 55.6933 39.9121 56.6037 39.9121 59.5387V63.2895L31.6789 63.2561L23.4457 63.223L23.3811 60.8684L23.3165 58.5137L22.9586 58.1561L22.6006 57.7983L18.8582 57.7605L15.1156 57.7225V53.3542C15.1156 49.149 15.1058 48.9733 14.8515 48.6499C14.5166 48.2242 13.8831 48.0485 12.6802 48.0476C11.9712 48.047 11.7469 48.0059 11.7961 47.8854C11.8323 47.7967 12.6584 45.835 13.6319 43.5263L15.4019 39.3287L15.2641 37.2621C15.116 35.0387 15.2193 33.0141 15.5655 31.3545C15.6731 30.8387 15.7612 30.3731 15.7612 30.3199C15.7613 30.2667 23.3826 30.223 32.6974 30.223H49.6336L49.5633 34.1301ZM19.3354 34.8404C19.4353 35.5228 19.9144 36.5479 20.3825 37.0812C21.5234 38.3807 23.7365 38.7795 25.3209 37.9712C26.396 37.4227 27.3538 36.0736 27.4832 34.9255L27.5474 34.3561H26.177C24.8225 34.3561 24.8057 34.3598 24.7255 34.6794C24.5979 35.1876 23.9591 35.6477 23.3811 35.6477C22.9985 35.6477 22.7929 35.5562 22.487 35.2503C22.2685 35.0317 22.0896 34.7411 22.0896 34.6045C22.0896 34.3746 21.9847 34.3561 20.6771 34.3561H19.2646L19.3354 34.8404Z" fill="#87C932"/>
</svg>
