<svg width="141" height="35" viewBox="0 0 141 35" fill="none" xmlns="http://www.w3.org/2000/svg">
<path d="M140.99 21.8986C140.954 21.3752 140.934 20.7843 140.314 20.5867C139.574 20.3509 139.442 21.0113 139.199 21.4476C138.597 22.8572 137.709 24.1309 136.589 25.1906C135.447 26.0838 135.161 25.9996 134.769 24.6222C134.283 22.918 134.547 21.1757 134.492 19.451C134.559 17.131 134.063 14.8288 133.044 12.7359C131.532 10.0124 128.403 9.67479 126.21 11.8975C125.211 12.9259 124.42 14.1325 123.879 15.4526C123.251 16.9328 122.582 18.3973 121.767 20.2375C121.415 19.1695 121.265 18.0472 121.323 16.9259C121.371 15.5064 121.175 14.089 120.743 12.7339C120.147 11.199 118.502 9.86753 117.401 10.2002C115.862 10.6639 115.911 12.1665 115.83 13.3493C115.66 15.4979 115.649 17.6559 115.799 19.806C115.849 20.8041 115.668 21.8003 115.271 22.7199C114.874 23.6395 114.271 24.4584 113.506 25.1152C113.221 25.4087 112.957 25.8636 112.47 25.7472C111.874 25.6054 111.927 25.0321 111.874 24.5801C111.682 22.1711 111.735 19.7493 112.031 17.3505C112.153 15.7167 111.799 14.0826 111.009 12.641C110.331 11.3271 108.724 10.4466 107.568 10.9514C107.207 11.1025 106.812 11.1579 106.423 11.1123C106.033 11.0666 105.662 10.9215 105.347 10.6912C101.268 8.64853 97.245 9.94477 95.1981 13.9626C94.2021 15.8945 93.739 18.0503 93.8553 20.214C93.9129 21.3302 93.2355 21.7968 92.3496 22.1813C92.0742 22.3461 91.7535 22.4221 91.4321 22.3988C91.1108 22.3755 90.8048 22.254 90.5569 22.0513C89.7405 21.3948 90.0712 20.663 90.2758 19.8989C90.9688 17.7419 91.295 15.4869 91.2412 13.2251C91.2453 12.5807 90.9963 11.9596 90.5464 11.4918C90.0964 11.024 89.4803 10.7455 88.8268 10.7147C88.5222 10.6556 88.2086 10.6574 87.9047 10.72C87.6008 10.7826 87.3128 10.9048 87.0577 11.0792C86.8027 11.2536 86.5858 11.4766 86.42 11.7352C86.2542 11.9937 86.1428 12.2825 86.0925 12.5843C85.1845 15.0295 85.2587 17.724 86.3001 20.1171C86.6587 20.7963 86.8176 21.5606 86.7588 22.3239C86.7 23.0872 86.4259 23.8192 85.9674 24.4373C85.7081 24.8159 85.5701 25.4499 85.009 25.3716C84.4478 25.2934 84.4627 24.6456 84.3853 24.2093C83.8221 21.0083 82.9501 17.8583 82.8786 14.5751C82.9466 13.6423 82.6864 12.7147 82.1417 11.9486C81.5971 11.1825 80.8013 10.6245 79.8881 10.3684C77.9881 9.78927 77.2264 10.3801 77.4508 12.3103C77.642 14.7689 77.9652 17.2158 78.4192 19.6407C78.9267 21.8722 77.9454 23.3895 76.5867 24.8658C76.2192 25.2639 75.8806 25.9889 75.2033 25.7189C74.6074 25.4792 74.653 24.7289 74.6073 24.181C74.4569 22.4535 74.4969 20.715 74.7265 18.996C75.1541 16.8641 74.8564 14.653 73.8793 12.7047C73.1116 11.3057 71.5513 10.4193 70.3267 10.9759C69.9916 11.1218 69.6225 11.1747 69.2591 11.129C68.8958 11.0833 68.552 10.9407 68.2648 10.7166C64.1282 8.58298 59.933 9.99966 57.9198 14.1467C56.9024 16.4705 56.4949 19.0091 56.7349 21.5288C56.6897 23.1254 57.1841 24.6915 58.1407 25.9812C59.0973 27.2708 60.4617 28.211 62.0197 28.6538C62.4844 28.8681 62.99 28.983 63.5031 28.9912C64.0162 28.9994 64.5252 28.9006 64.9968 28.7013C65.4684 28.5021 65.8919 28.2068 66.2394 27.8349C66.587 27.4631 66.8507 27.023 67.0134 26.5436C67.3879 25.6876 67.6927 24.8023 68.1238 23.686C68.2899 23.9061 68.4336 24.1416 68.5528 24.3894C69.26 27.2783 71.6913 28.1519 74.1783 28.6753C76.3633 29.1361 77.7935 27.6882 78.8899 26.0251C79.4859 25.1251 79.7401 25.536 80.2139 26.1415C82.6611 29.2564 85.9644 29.0128 87.8823 25.6132C87.9113 25.5692 87.9368 25.5231 87.9587 25.4753C88.495 24.0362 89.2568 23.1607 91.0227 23.9609C91.7472 24.2032 92.536 24.1799 93.2445 23.8954C93.9049 23.687 94.2237 23.8954 94.4701 24.4902C94.8832 25.4094 95.4828 26.2357 96.2321 26.9183C96.9814 27.6008 97.8645 28.1251 98.8272 28.459C101.363 29.5127 103.334 28.689 104.366 26.1533C104.671 25.4049 104.941 24.6427 105.25 23.8259C105.884 24.27 105.832 24.7993 106.023 25.2121C107.044 27.424 110.875 29.2104 113.062 28.5383C114.301 28.1578 115.112 26.4301 115.96 26.6268C117.016 26.8723 117.856 28.1646 119.148 28.5402C121.05 29.092 121.929 28.7086 122.425 26.9584C123.037 24.8404 123.598 22.7066 124.273 20.6072C125.124 17.9551 125.944 15.2707 127.904 13.1282C128.173 12.8347 128.428 12.3211 128.915 12.5304C129.431 12.7525 129.147 13.2672 129.091 13.6575C128.636 16.6704 128.475 19.7192 128.611 22.7624C128.751 24.3992 129.529 25.9188 130.783 27.0022C132.036 28.0856 133.667 28.6485 135.333 28.5726C138.257 28.373 141.196 24.9001 140.99 21.8986ZM68.3244 13.3073C67.0581 16.8585 66.3718 20.5916 64.7966 24.0382C64.4838 24.723 63.9892 25.7834 63.2155 25.5897C62.273 25.353 62.6782 24.1692 62.5094 23.413C62.6438 20.5171 63.3878 17.6804 64.6943 15.0828C65.2657 13.9993 66.1745 13.1246 67.2875 12.5871C67.9867 12.2663 68.6125 12.4982 68.3244 13.3073ZM88.6758 17.2615C88.4123 16.6171 88.2936 15.9241 88.3279 15.2302C88.3622 14.5363 88.5486 13.8579 88.8744 13.2417C89.1641 14.5755 89.0957 15.9607 88.6758 17.2606V17.2615ZM105.508 13.4197C104.515 16.6843 103.491 19.9401 102.465 23.1939C102.361 23.493 102.212 23.775 102.023 24.0303C101.574 24.6672 101.154 25.7756 100.421 25.6025C99.5055 25.3863 99.8541 24.1781 99.6108 23.4316C100.078 20.3246 100.405 17.2302 102.22 14.5526C102.759 13.6931 103.54 13.0068 104.468 12.5775C105.27 12.2341 105.797 12.4669 105.506 13.4188L105.508 13.4197Z" fill="#046BEE"/>
<path d="M13.6845 18.2631C13.3152 18.1954 12.942 18.1504 12.5671 18.1282C11.2104 18.1145 11.3118 17.5705 11.9712 16.7203C13.6885 14.5045 15.3749 12.2672 17.0792 10.0435C18.6127 8.02099 19.9507 5.86159 21.0758 3.59357C21.5813 2.5869 21.7978 1.44917 20.7341 0.560873C19.6506 -0.339161 18.6305 0.126486 17.6631 0.806402C17.3615 1.02509 17.0818 1.27183 16.8279 1.54311C14.6816 3.67257 12.6541 5.91514 10.7546 8.26102C9.73232 9.62316 8.558 10.8678 7.25361 11.9717C7.08477 10.4759 6.96258 9.29418 6.81758 8.11533C6.64468 6.07455 6.21533 4.06273 5.53936 2.12612C5.05667 0.890535 3.39704 -0.240308 2.42868 0.0443765C1.19415 0.408303 1.28254 1.59983 1.16932 2.52726C0.871364 4.92017 0.678727 7.32678 0.502933 9.73241C-0.0767772 16.3157 -0.155458 22.9325 0.267548 29.5273C0.551599 33.1176 2.69684 33.8113 5.41618 34.3357C7.1046 34.6614 8.07594 33.5529 7.83659 31.8692C7.74819 31.2461 7.64686 30.6249 7.56344 30.0008C6.98342 25.6611 7.8833 23.949 11.4975 22.5109C12.9535 21.9318 13.2167 22.1196 13.0737 23.636C12.8532 25.9839 12.6059 28.3318 12.4122 30.6797C12.2185 33.0276 12.7579 33.7437 15.1057 34.4099C15.6212 34.5557 16.1376 34.7035 16.657 34.8307C19.1509 35.4607 21.0787 34.3023 21.5058 31.8634C21.7379 30.6254 21.8945 29.3749 21.9746 28.1185C22.2636 22.4815 19.3258 19.0135 13.6845 18.2631Z" fill="#046BEE"/>
<path d="M57.2203 10.4289C56.3803 10.0656 55.4498 9.95614 54.5466 10.1145C53.6434 10.2728 52.8083 10.6917 52.1471 11.3181C51.5293 11.9648 51.0745 13.2395 50.4587 13.2962C49.4357 13.394 49.545 11.8689 48.8398 11.2418C48.541 10.9003 48.1633 10.6345 47.7385 10.4666C47.3137 10.2988 46.8542 10.2338 46.3986 10.2772C45.5146 10.4602 45.6209 11.4385 45.4918 12.1272C44.9394 15.0177 44.6357 17.949 44.584 20.8898C44.5849 21.6744 44.4195 22.4505 44.0983 23.1685C43.7771 23.8865 43.3073 24.5305 42.7188 25.0593C42.392 25.3772 42.0981 25.9329 41.5538 25.744C40.9579 25.5347 40.9986 24.894 40.9807 24.3862C40.8323 22.2369 40.8912 20.0786 41.1565 17.9402C41.4111 16.0482 41.0149 14.1267 40.0312 12.4823C39.7606 11.8643 39.2677 11.3664 38.6472 11.0845C38.0266 10.8026 37.3222 10.7566 36.6693 10.9552C36.303 11.0737 35.9148 11.1122 35.5318 11.0682C35.1489 11.0241 34.7803 10.8984 34.4515 10.6999C31.8891 9.54645 29.3376 9.14142 26.8586 10.9806C24.1403 12.9979 23.2424 15.8809 22.9713 18.9792C22.5124 24.2297 24.182 27.1538 28.2719 28.6418C28.7454 28.8699 29.2633 28.9947 29.7902 29.0078C30.3172 29.0209 30.8408 28.922 31.3254 28.7178C31.81 28.5135 32.2442 28.2086 32.5984 27.8241C32.9526 27.4396 33.2185 26.9845 33.3779 26.4896C33.7444 25.6443 34.0443 24.7717 34.3711 23.9284C34.5956 23.9959 34.6621 23.9949 34.6869 24.0262C34.7528 24.1064 34.8063 24.1957 34.8458 24.2913C36.5442 28.6731 40.659 29.9068 44.3625 27.0903C44.9743 26.6246 45.1571 26.921 45.4888 27.3025C46.3007 28.1656 47.3864 28.7311 48.5676 28.906C49.6542 29.1192 50.6355 28.8669 50.713 27.4728C50.9145 24.6422 51.4932 21.85 52.4341 19.168C53.4015 16.2683 54.6122 13.4342 57.414 11.6527C58.2214 11.1284 57.8728 10.7654 57.2203 10.4289ZM34.6521 13.576C33.6113 16.6087 32.6082 19.6483 31.8146 22.7524C31.6564 23.2554 31.4119 23.7279 31.0916 24.1494C30.6814 24.7432 30.2692 25.7793 29.576 25.5827C28.6821 25.3303 28.9393 24.1808 28.7755 23.4481C28.9946 20.7033 29.6806 18.0144 30.8046 15.4935C31.3774 14.2938 32.3144 13.299 33.4861 12.6467C33.8119 12.4715 34.1814 12.3004 34.5419 12.5694C34.9253 12.8551 34.7733 13.2267 34.6532 13.576H34.6521Z" fill="#046BEE"/>
</svg>
