<svg width="66" height="60" viewBox="0 0 66 60" fill="none" xmlns="http://www.w3.org/2000/svg">
<path fill-rule="evenodd" clip-rule="evenodd" d="M42.4832 0.12135C42.0051 0.314654 41.4053 1.02916 41.2552 1.58417C41.1746 1.882 41.0373 2.47391 40.9501 2.89949C40.793 3.66665 40.7845 3.67736 39.9633 4.1552C39.5078 4.42012 39.0478 4.6373 38.9413 4.63756C38.8347 4.63794 38.2826 4.49393 37.7143 4.31753C36.4794 3.93441 36.0816 3.92292 35.3605 4.24992C34.972 4.42619 34.6891 4.69459 34.3772 5.18263C32.8388 7.59081 32.8805 8.47152 34.6047 9.98389L35.454 10.7288V11.8149V12.9008L21.2143 12.902L6.97456 12.9033L6.32877 13.2088C5.53095 13.5862 4.94819 14.1861 4.55942 15.0299L4.26223 15.6752L4.31002 33.2248C4.33637 42.8772 4.40895 50.909 4.47147 51.0733C4.53398 51.2375 4.58513 51.4263 4.58513 51.4927C4.58513 51.562 3.78861 51.6133 2.7144 51.6133H0.843663L0.421832 51.99L0 52.3667V54.5386C0 57.0301 0.113272 57.4349 1.11348 58.519C1.81313 59.2774 2.64258 59.7002 3.76833 59.8725C4.36285 59.9635 12.0217 59.9959 27.2961 59.9719L49.9426 59.9365L50.1894 59.6318C50.4976 59.2517 50.5067 58.6949 50.2104 58.3374L49.9843 58.0648L26.865 58.0328C2.17374 57.9987 3.37465 58.0311 2.66299 57.3793C2.08488 56.8498 1.87874 56.1765 1.87564 54.8071L1.8728 53.5489H13.9353H25.9978L26.1388 54.3486C26.303 55.2795 26.7446 55.9091 27.5176 56.3143C28.0075 56.571 28.2213 56.5814 33 56.5814C37.7787 56.5814 37.9925 56.571 38.4824 56.3143C39.2554 55.9091 39.697 55.2795 39.8612 54.3486L40.0022 53.5489H52.0647H64.1272L64.1244 54.8071C64.1213 56.1765 63.9151 56.8498 63.337 57.3793C62.7041 57.9589 62.4697 57.9872 57.691 58.0602C53.3662 58.1263 53.1179 58.1431 52.9444 58.3804C52.5501 58.9197 52.782 59.6349 53.4236 59.8584C53.9533 60.0428 61.1718 60.0489 62.3012 59.8659C63.3758 59.6917 64.2016 59.2615 64.8865 58.519C65.8867 57.4349 66 57.0301 66 54.5386V52.3667L65.5782 51.99L65.1563 51.6133H63.2706H61.3848L61.4711 51.323C61.6493 50.7238 61.7636 49.4517 61.7233 48.5163C61.7003 47.984 61.6796 42.0778 61.6773 35.3913L61.6732 23.2342L61.3905 22.9711C60.8408 22.4593 60.0836 22.7206 59.8601 23.4991C59.7841 23.764 59.7358 29.1114 59.7358 37.2694V50.6068L59.2967 51.0455L58.8575 51.4843H33H7.14247L6.70333 51.0455L6.26419 50.6068V33.1603V15.7139L6.70333 15.2751L7.14247 14.8364H20.3341H33.5257L33.3775 15.1129C33.2942 15.2687 33.2544 15.6918 33.2867 16.0807L33.3442 16.772H20.9866H8.62908L8.38303 17.044C8.14461 17.3077 8.13828 17.643 8.17741 27.9158L8.21797 38.5156L8.53983 38.8059C8.95275 39.1783 9.26054 39.1728 9.71195 38.7849L10.0744 38.4735L10.1098 28.5906L10.1451 18.7076H18.0207C25.4398 18.7076 25.8955 18.7207 25.8839 18.9335C25.877 19.0577 25.8043 19.4482 25.7222 19.8015C25.5848 20.3924 25.5109 20.482 24.7982 20.9226C24.3721 21.1861 23.9072 21.4045 23.7652 21.408C23.6231 21.4114 23.0541 21.2698 22.501 21.0932C20.5221 20.4618 19.8562 20.756 18.6919 22.7756C17.6988 24.4983 17.8235 25.2095 19.3787 26.6961L20.3425 27.6173V28.5663V29.5154L19.3073 30.5249C17.7726 32.0214 17.6857 32.6316 18.7456 34.4677C19.9196 36.5012 20.6894 36.7305 23.2781 35.8179C23.8044 35.6325 23.8104 35.6339 24.6828 36.1704L25.559 36.709L25.8577 37.9349C26.1799 39.2581 26.3952 39.6461 27.0574 40.0963C27.4426 40.3583 27.6386 40.3867 29.0607 40.3867C30.4863 40.3867 30.6786 40.3587 31.0727 40.0932C31.7189 39.6582 32.0577 39.0653 32.2926 37.9581C32.4083 37.413 32.5244 36.8983 32.5505 36.8141C32.5766 36.73 33.0127 36.4324 33.5193 36.1529L34.4408 35.6445L35.3672 35.9577C36.7669 36.431 37.2709 36.4677 37.9384 36.1448C38.5897 35.8298 38.8724 35.4839 39.5888 34.125C40.4359 32.5178 40.2535 31.7022 38.7528 30.3858L37.908 29.6447V28.5719V27.4991L38.7468 26.7588C40.3233 25.3675 40.4565 24.5594 39.4145 22.7073C38.6814 21.4038 38.2237 20.9722 37.4137 20.8204C36.976 20.7384 36.7409 20.7837 34.8596 21.3118C34.355 21.4535 34.2878 21.4365 33.4435 20.9519L32.5572 20.4431L32.3968 19.6722C32.3085 19.2482 32.2338 18.8576 32.2307 18.8044C32.2276 18.7513 32.7174 18.7076 33.3192 18.7076C34.3323 18.7076 34.4548 18.7369 34.9761 19.1041C35.7909 19.6779 36.3269 19.7066 37.7373 19.2519L38.9227 18.87L39.8435 19.3779C40.3498 19.6573 40.7809 19.9546 40.8016 20.0387C40.8222 20.1228 40.9647 20.7115 41.1183 21.3471C41.41 22.5545 41.728 23.05 42.4544 23.4291C42.8737 23.648 45.4522 23.6828 45.9939 23.477C46.1881 23.4033 46.5377 23.1409 46.7707 22.894C47.1188 22.5253 47.2454 22.2198 47.4793 21.1832L47.7642 19.9213L48.6588 19.3972L49.5535 18.8731L50.7311 19.242C51.379 19.4449 52.0571 19.6096 52.2383 19.6081C52.6493 19.6046 53.542 19.2065 53.778 18.9216C53.9139 18.7577 54.1781 18.7076 54.9081 18.7076H55.8611V33.1603V47.613H33.009H10.157L10.1157 44.7627L10.0744 41.9123L9.71195 41.6012C9.2679 41.2199 8.98491 41.2093 8.5419 41.5575L8.20157 41.8248V45.4732C8.20157 48.8437 8.21952 49.1378 8.4378 49.3351C8.65582 49.5323 10.5472 49.5486 33.0225 49.5486C56.5249 49.5486 57.3784 49.5404 57.5866 49.3106C57.7856 49.0908 57.8021 47.8443 57.7995 33.1572C57.7969 18.5579 57.7791 17.2226 57.5838 17.007C57.4107 16.8159 57.172 16.772 56.3048 16.772H55.2388L55.2593 16.0945C55.2707 15.7219 55.2323 15.2863 55.1743 15.1267L55.0687 14.8364H56.9632H58.8575L59.2967 15.2751L59.7358 15.7139V17.5786C59.7358 19.5192 59.8575 20.1739 60.2575 20.3879C60.6373 20.591 61.1365 20.5342 61.4149 20.2561C61.6534 20.0178 61.6729 19.8281 61.6703 17.7721C61.6672 15.2896 61.5489 14.8097 60.7294 13.954C59.8351 13.0201 59.6294 12.9725 56.184 12.9008L53.0841 12.8362L53.0466 11.8442L53.009 10.852L53.9781 9.92569C55.5556 8.41784 55.6665 7.72553 54.6207 5.91456C54.0304 4.89203 53.5907 4.40309 53.056 4.17455C52.4656 3.92215 52.0074 3.95209 50.8611 4.31779C50.3079 4.49432 49.7389 4.63601 49.5969 4.63252C49.4548 4.62904 48.9912 4.41148 48.5667 4.149L47.795 3.67168L47.4625 2.3539C47.1175 0.986576 46.8491 0.542156 46.1483 0.17787C45.7578 -0.0251125 42.9526 -0.0683418 42.4832 0.12135ZM45.4461 2.15802C45.4815 2.28216 45.6076 2.83394 45.7262 3.38417C45.8448 3.93428 46.0668 4.568 46.2195 4.79254C46.5378 5.26044 48.6733 6.51641 49.3138 6.61241C49.5625 6.64971 50.2062 6.52712 50.9366 6.30336C51.6024 6.09934 52.1957 5.93249 52.2547 5.93249C52.3138 5.93249 52.6085 6.34646 52.9093 6.85243L53.4564 7.7725L52.4111 8.7558C51.2128 9.88337 51.0836 10.1798 51.0836 11.8039C51.0836 13.4265 51.2133 13.7249 52.4052 14.8463L53.4445 15.8242L52.9035 16.7497C52.6059 17.2588 52.319 17.6753 52.2659 17.6753C52.213 17.6753 51.6225 17.4981 50.9538 17.2816C49.8571 16.9265 49.6806 16.9022 49.1509 17.0342C48.8279 17.1147 48.0696 17.4806 47.4658 17.8473C46.2021 18.6147 45.9525 18.9918 45.5904 20.6804L45.3749 21.6853L44.2599 21.6482L43.1449 21.6111L42.8744 20.4497C42.5601 19.1003 42.4436 18.8518 41.9172 18.4093C41.3897 17.9659 39.7413 17.0759 39.2606 16.9751C38.9972 16.9199 38.4551 17.0205 37.6004 17.2835C36.9023 17.4981 36.2824 17.6438 36.223 17.6072C36.0459 17.4977 35.1956 16.0432 35.197 15.8518C35.1976 15.7546 35.6118 15.3017 36.1175 14.8453C36.623 14.3887 37.1165 13.8244 37.2141 13.5913C37.3269 13.3212 37.3914 12.6647 37.3914 11.7843C37.3914 10.0652 37.2072 9.6378 36.0373 8.64237C35.5785 8.25202 35.2015 7.85754 35.1994 7.76566C35.1936 7.50629 36.1371 5.93249 36.2985 5.93249C36.3774 5.93249 36.8736 6.08128 37.4011 6.2631C38.8435 6.7603 39.387 6.71436 40.6595 5.98824C42.3621 5.01655 42.5151 4.82131 42.8779 3.15809C43.0018 2.59031 43.1293 2.08227 43.161 2.02898C43.1928 1.97568 43.7054 1.93219 44.3003 1.93219C45.2197 1.93219 45.3915 1.966 45.4461 2.15802ZM42.7238 6.75784C40.8248 7.37557 39.4127 9.01143 39.0672 10.9939C38.6869 13.1759 39.9421 15.5289 42.0315 16.5504C42.8237 16.9377 42.9717 16.9656 44.2368 16.9656C45.4914 16.9656 45.6575 16.935 46.4557 16.5572C47.6565 15.9889 48.4044 15.2573 48.9853 14.0828C49.4461 13.1512 49.4677 13.0494 49.4677 11.8039C49.4677 10.5564 49.4467 10.4576 48.9813 9.51689C48.4174 8.37693 47.5883 7.55365 46.4573 7.01064C45.8448 6.71668 45.5173 6.65126 44.4951 6.61925C43.7054 6.59448 43.0741 6.64377 42.7238 6.75784ZM45.4932 8.71089C46.9912 9.33623 47.835 10.8717 47.5411 12.4374L47.454 12.9008H44.3032C42.0442 12.9008 41.1259 12.8582 41.0592 12.7504C40.8774 12.4565 40.9492 11.1537 41.1806 10.5494C41.4489 9.84865 42.4296 8.89039 43.0967 8.67708C43.7421 8.47075 44.9592 8.48791 45.4932 8.71089ZM45.3346 14.9654C45.1926 15.0265 44.7276 15.0763 44.3014 15.0763C43.8751 15.0763 43.4102 15.0265 43.2681 14.9654C43.1012 14.8938 43.4669 14.8546 44.3014 14.8546C45.1359 14.8546 45.5015 14.8938 45.3346 14.9654ZM30.3847 19.5464C30.8328 21.5547 31.02 21.8166 32.6867 22.767C33.9622 23.4943 34.4585 23.5337 35.9776 23.0282L37.0505 22.6712L37.3179 23.0065C37.4649 23.1909 37.7304 23.6112 37.908 23.9405L38.2309 24.5393L37.3123 25.4022C36.0431 26.5944 35.9706 26.7666 35.9706 28.5876C35.9706 30.3924 36.0892 30.6657 37.339 31.7409C37.7928 32.1312 38.1645 32.52 38.1652 32.6049C38.1666 32.7868 37.3083 34.278 37.1439 34.3795C37.0818 34.4178 36.4598 34.2736 35.7617 34.059C34.9069 33.796 34.3648 33.6953 34.1015 33.7506C33.5492 33.8664 31.8776 34.8024 31.3129 35.3121C30.8347 35.7439 30.7709 35.9021 30.3861 37.6123L30.212 38.3865L29.0937 38.4237L27.9755 38.4608L27.8498 37.972C27.7807 37.7032 27.6583 37.1529 27.5777 36.7492C27.3664 35.6906 27.0211 35.2722 25.7671 34.5554C24.106 33.6058 23.9071 33.5766 22.3848 34.0587C21.6843 34.2805 21.0592 34.43 20.9956 34.3907C20.9321 34.3515 20.6643 33.9339 20.4006 33.4628L19.921 32.6062L20.964 31.612C21.5668 31.0375 22.051 30.46 22.1112 30.2438C22.2473 29.7549 22.2455 27.3987 22.1086 26.9018C22.0436 26.6655 21.5958 26.1336 20.9597 25.5368L19.9174 24.5589L20.4054 23.6874C20.6736 23.208 20.9605 22.79 21.0429 22.7584C21.1252 22.7269 21.6551 22.8535 22.2206 23.0397C23.7273 23.5361 24.1445 23.4921 25.6084 22.6819C27.0591 21.879 27.3496 21.5133 27.6386 20.1271C27.9646 18.5627 27.8284 18.6927 29.0976 18.735L30.212 18.7722L30.3847 19.5464ZM27.3516 23.5982C23.3658 25.0742 22.58 30.2455 25.9544 32.7935C27.4294 33.9073 29.6464 34.1232 31.3305 33.3172C32.8801 32.5754 34.0582 30.9815 34.2876 29.3162C34.5955 27.0813 33.3947 24.848 31.3426 23.8386C30.6035 23.475 30.3522 23.4204 29.2646 23.3864C28.2888 23.3561 27.8845 23.4009 27.3516 23.5982ZM30.1834 25.4405C30.8604 25.6431 31.7499 26.4458 32.1012 27.1708C32.4426 27.8753 32.4853 29.1159 32.1924 29.8147C31.4573 31.5677 29.2951 32.3794 27.6038 31.5372C26.428 30.9519 25.7728 29.8934 25.7728 28.5793C25.7728 26.2912 27.9202 24.7631 30.1834 25.4405ZM37.908 54.0038C37.908 54.3733 37.8459 54.4822 37.5767 54.5845C37.3858 54.657 35.4459 54.7103 33 54.7103C30.5541 54.7103 28.6142 54.657 28.4233 54.5845C28.1541 54.4822 28.092 54.3733 28.092 54.0038V53.5489H33H37.908V54.0038Z" fill="#3B78D3"/>
</svg>
