<svg width="66" height="66" viewBox="0 0 66 66" fill="none" xmlns="http://www.w3.org/2000/svg">
<path fill-rule="evenodd" clip-rule="evenodd" d="M51.627 0.815181C47.5806 2.49987 43.089 4.71854 38.9941 7.05516C35.7925 8.88205 35.4658 9.09476 35.299 9.46076C35.0041 10.1082 35.5293 10.9481 36.2291 10.9481C36.498 10.9481 37.5874 10.3952 39.6773 9.19777C43.7541 6.86204 49.3269 4.09445 52.6908 2.73476C52.8199 2.68255 52.8458 6.95616 52.8197 24.0327L52.7871 45.3959L50.5312 46.2662C46.2868 47.9039 40.9377 50.4305 36.0938 53.0858L34.2246 54.1105L34.1602 32.9482C34.1246 21.2745 34.0452 11.6823 33.9829 11.5545C33.6971 10.9675 30.2586 9.73497 27.457 9.21517C23.095 8.40583 14.198 8.97345 7.4531 10.4916C5.40904 10.9516 5.0887 11.0504 4.74762 11.3267L4.44727 11.5698L4.41401 36.0645C4.39312 51.5397 4.42651 60.6795 4.50502 60.8857C4.57321 61.0654 4.78204 61.3126 4.96895 61.435C5.29328 61.6475 5.36224 61.6449 6.48927 61.377C13.5671 59.6947 22.6517 58.9572 26.7937 59.7287C28.0776 59.9678 30.4959 60.6405 31.2796 60.9765L31.8398 61.2166V62.5103V63.8041H18.4385C5.36701 63.8041 5.02013 63.7978 4.3502 63.5471C3.49104 63.2257 2.77819 62.5097 2.44561 61.6342C2.19618 60.9779 2.19141 60.5496 2.19141 39.1051V17.2452L1.81461 16.8683C1.32567 16.3794 0.865734 16.3794 0.376793 16.8683L0 17.2452V39.0246C0 53.0738 0.0460195 61.0503 0.129551 61.4983C0.535477 63.6734 2.31632 65.4504 4.50656 65.8658C5.44848 66.0445 60.5457 66.0449 61.503 65.8662C63.6779 65.4602 65.4547 63.6792 65.8701 61.4888C65.9541 61.0457 66 53.1152 66 39.0246V17.2452L65.6232 16.8683C65.3961 16.6412 65.1105 16.4915 64.9043 16.4915C64.698 16.4915 64.4125 16.6412 64.1854 16.8683L63.8086 17.2452V39.1018C63.8086 60.6191 63.8046 60.969 63.5516 61.6452C63.2302 62.5044 62.5142 63.2173 61.6388 63.5499C60.9886 63.7971 60.5943 63.8041 47.565 63.8041H34.1602V62.5255V61.2468L34.9658 60.9868C38.0841 59.9802 40.5521 59.546 43.6634 59.4567C48.2695 59.3243 53.7637 59.9366 58.4895 61.109C60.3432 61.5688 60.6229 61.6089 60.935 61.4593C61.1288 61.3663 61.3608 61.1452 61.4504 60.968C61.5801 60.7116 61.6138 55.6709 61.6153 36.3209C61.6164 21.2268 61.5707 11.8737 61.4945 11.6734C61.4269 11.4958 61.2385 11.2788 61.0755 11.191C60.7319 11.006 58.7588 10.5738 58.2235 10.5664C57.7495 10.5598 57.1055 11.1881 57.1055 11.6571C57.1055 12.1839 57.7033 12.6974 58.4466 12.8087C58.7905 12.8603 59.1516 12.9331 59.2489 12.9704C59.3979 13.0276 59.4258 16.6663 59.4258 36.0449C59.4258 57.8941 59.4144 59.0484 59.2002 58.9886C57.5351 58.5232 53.5963 57.8422 50.7891 57.5345C47.8472 57.2118 41.8168 57.2099 39.8965 57.5308C38.3032 57.7971 35.4961 58.4875 34.0162 58.977L33.0343 59.3018L32.3404 59.0283C29.1228 57.7599 26.2131 57.2285 22.4975 57.2307C18.0229 57.2332 12.5143 57.8232 8.02661 58.7804C7.37215 58.92 6.7775 59.0342 6.70532 59.0342C6.61689 59.0342 6.57422 51.5288 6.57422 35.9854V12.9365L7.6377 12.7086C11.8281 11.8104 16.0367 11.2713 20.3201 11.084C24.9695 10.8805 27.6465 11.2349 31.0986 12.5104L31.8398 12.7844L31.8406 34.3301C31.841 48.8617 31.885 56.033 31.9755 56.3589C32.1047 56.8243 32.5942 57.2299 33.0258 57.2291C33.118 57.2288 33.9765 56.7896 34.9336 56.2529C41.6394 52.4928 47.4318 49.7379 52.6582 47.8229C53.6508 47.4592 54.5789 47.0468 54.7207 46.9063C54.9766 46.6529 54.9785 46.48 54.9785 23.6317V0.612395L54.6168 0.301188C54.4157 0.128181 54.1009 -0.00537696 53.9078 0.000166484C53.7168 0.00570993 52.6904 0.372479 51.627 0.815181ZM46.1484 12.8704C42.2519 14.4423 37.8897 16.5752 37.5683 17.0655C37.1665 17.6788 37.7315 18.6831 38.4783 18.6831C38.6363 18.6831 39.4841 18.3291 40.3622 17.8966C42.7436 16.7234 45.7664 15.3707 47.4375 14.7304C48.9993 14.1319 49.5 13.7572 49.5 13.187C49.5 12.7362 48.8458 12.1073 48.382 12.1123C48.1815 12.1145 47.1765 12.4556 46.1484 12.8704ZM46.793 19.2063C45.2046 19.8109 41.9045 21.3006 39.4453 22.5233C37.6056 23.4381 37.2692 23.7567 37.4372 24.4259C37.5478 24.8665 38.016 25.2579 38.4324 25.2579C38.6283 25.2579 39.7051 24.8178 40.825 24.2798C43.5667 22.963 46.204 21.7869 47.7292 21.2013C49.0501 20.6938 49.5 20.3256 49.5 19.7516C49.5 19.3492 48.8395 18.6818 48.4464 18.6871C48.2814 18.6893 47.5374 18.9229 46.793 19.2063ZM17.918 19.918C14.9288 20.2563 12.2086 20.7542 11.5831 21.0776C10.9008 21.4305 10.8272 22.3284 11.4412 22.8114C11.8434 23.1278 12.0373 23.1282 13.4768 22.8159C16.1012 22.2465 17.5983 22.1044 20.8828 22.1131C23.3046 22.1194 24.2814 22.1714 25.0723 22.336C26.4614 22.625 26.7647 22.6102 27.1406 22.2341C27.6973 21.6775 27.4584 20.6586 26.7202 20.44C25.5619 20.0971 24.0326 19.9462 21.334 19.9085C19.7033 19.8857 18.1661 19.89 17.918 19.918ZM47.1152 25.6899C45.4279 26.3075 42.2742 27.7123 39.8191 28.9399C37.9985 29.8503 37.6549 30.069 37.5155 30.4056C37.3835 30.7242 37.3832 30.8777 37.5138 31.193C37.8879 32.0962 38.5013 32.0487 40.7038 30.9462C42.7782 29.9079 46.3767 28.3074 47.9922 27.7046C48.8837 27.372 49.167 27.2038 49.3135 26.9205C49.5741 26.4165 49.5467 26.0979 49.21 25.7211C48.7672 25.2255 48.3985 25.2201 47.1152 25.6899ZM18.3691 26.5003C18.1564 26.5242 17.3733 26.6071 16.6289 26.6844C15.1376 26.8392 12.2578 27.3729 11.6922 27.5993C10.9764 27.8857 10.827 28.7354 11.384 29.351C11.7101 29.7113 12.0963 29.7182 13.6057 29.3905C16.101 28.8486 17.8566 28.6819 20.9473 28.6934C23.1461 28.7015 24.1786 28.7588 24.9434 28.9149C26.3752 29.2071 26.7611 29.1886 27.1406 28.8089C27.5422 28.4073 27.5531 27.8303 27.167 27.3933C26.8187 26.9989 25.7055 26.7389 23.5478 26.5478C22.2031 26.4288 19.2453 26.4016 18.3691 26.5003ZM46.4707 32.5311C44.6393 33.2569 41.0802 34.8722 39.1697 35.8447C38.0007 36.4398 37.6362 36.6887 37.5187 36.9723C37.2164 37.7023 37.6788 38.4353 38.4384 38.4307C38.7042 38.429 39.6923 38.0299 41.0566 37.3729C43.7206 36.0904 46.1773 34.999 47.8495 34.3552C48.5369 34.0907 49.1633 33.797 49.2414 33.7029C49.3197 33.6086 49.4167 33.3276 49.4571 33.0784C49.5174 32.7066 49.471 32.5656 49.1989 32.2933C48.723 31.8173 48.1449 31.8677 46.4707 32.5311ZM18.498 33.0701C16.4283 33.2838 14.4126 33.5732 13.1611 33.8362C11.2573 34.2363 10.857 34.571 11.1143 35.5482C11.1953 35.8559 11.343 36.0244 11.6398 36.1478C12.0009 36.2977 12.236 36.2813 13.5129 36.0169C16.2198 35.4563 18.0721 35.269 20.8828 35.2719C22.7607 35.2739 23.8705 35.3363 24.7178 35.4873C26.4429 35.7952 26.865 35.7735 27.1898 35.3605C27.6954 34.7178 27.4394 33.9057 26.651 33.6509C25.6504 33.3277 23.7637 33.1154 21.4693 33.0678C20.1187 33.0399 18.7816 33.0409 18.498 33.0701ZM46.7285 39.0357C43.6226 40.2196 38.0321 42.9024 37.6448 43.3949C37.2891 43.847 37.371 44.4075 37.8549 44.8329C38.3307 45.2513 38.5459 45.1886 41.5038 43.7696C44.7051 42.2338 46.0235 41.6506 47.6309 41.0593C49.3851 40.4138 49.7726 39.9532 49.3114 39.0613C48.9579 38.3777 48.4675 38.3729 46.7285 39.0357ZM18.4511 39.7069C15.8299 39.8736 12.1236 40.5252 11.5106 40.9269C10.8388 41.3671 10.8988 42.3626 11.6194 42.7355C11.9642 42.9138 12.1292 42.9032 13.5712 42.6111C15.8287 42.1537 16.815 42.0276 19.1426 41.8994C21.4276 41.7737 23.9238 41.8954 25.3707 42.2033C26.5901 42.4627 26.5943 42.4624 27.0604 42.0701C27.5643 41.6461 27.6062 40.9943 27.1584 40.5464C26.7928 40.1808 25.1664 39.8544 22.8809 39.6881C21.141 39.5615 20.707 39.5634 18.4511 39.7069ZM17.5957 46.3607C15.0508 46.5874 11.8094 47.2472 11.3658 47.6288C10.9037 48.0263 10.922 48.7864 11.4034 49.2007C11.8177 49.557 11.8944 49.5588 13.3479 49.2457C16.0354 48.6667 17.3602 48.538 20.6895 48.5327C23.3012 48.5285 24.1515 48.5727 25.1753 48.7661C26.5391 49.0238 27.069 48.9471 27.333 48.4538C27.5272 48.0911 27.4789 47.4872 27.2314 47.1817C26.7758 46.6192 24.1942 46.2696 20.6895 46.2956C19.2715 46.3061 17.8793 46.3355 17.5957 46.3607Z" fill="#33CFD9"/>
</svg>
