<svg width="43" height="43" viewBox="0 0 43 43" fill="none" xmlns="http://www.w3.org/2000/svg">
<path fill-rule="evenodd" clip-rule="evenodd" d="M3.45495 0.174435C1.85276 0.592843 0.529359 1.94956 0.166543 3.54544C-0.0539603 4.51515 -0.0561615 15.57 0.163863 16.4153C0.579508 18.0116 1.81888 19.309 3.36049 19.7615C3.81222 19.894 4.67662 19.9138 9.9641 19.9129C16.5311 19.9116 16.4964 19.914 17.5261 19.3907C18.1764 19.0601 19.0597 18.1874 19.3757 17.5631C19.9324 16.4633 19.9239 16.5811 19.9239 9.95647C19.9239 4.66308 19.9039 3.79524 19.7714 3.34352C19.3165 1.79244 18.0314 0.56364 16.4266 0.14552C15.9497 0.021242 14.967 -0.00020497 9.97444 0.00448656C4.72677 0.00936958 4.01616 0.0279444 3.45495 0.174435ZM26.5753 0.133648C24.694 0.599162 23.3111 2.17667 23.075 4.12662C23.0125 4.64278 22.9872 7.04169 23.0075 10.5416C23.0388 15.9358 23.047 16.153 23.2423 16.7303C23.6649 17.9789 24.5188 18.9249 25.7619 19.5216L26.4796 19.8661L32.7483 19.8955C39.778 19.9285 39.7088 19.934 40.7663 19.2496C41.892 18.5211 42.6792 17.3533 42.8903 16.0988C42.9636 15.663 42.9885 13.6023 42.9691 9.57348L42.9408 3.68514L42.7119 3.11066C42.0712 1.5031 40.8477 0.432756 39.2754 0.104732C38.527 -0.0514287 27.2192 -0.025673 26.5753 0.133648ZM16.0945 3.28061C16.8984 3.70591 16.8613 3.38181 16.861 10.0028C16.8607 15.6634 16.8547 15.8545 16.6704 16.1569C16.5658 16.3285 16.3399 16.5545 16.1683 16.6591C15.8661 16.8435 15.6751 16.8495 10.0169 16.8498C3.39877 16.8501 3.72273 16.8872 3.29761 16.0829L3.07988 15.671V9.98624C3.07988 3.86552 3.07481 3.93168 3.58138 3.46473C3.71287 3.34361 3.94458 3.20727 4.09617 3.16179C4.24786 3.11641 6.91687 3.07552 10.0274 3.07102L15.6827 3.06279L16.0945 3.28061ZM39.0662 3.27822C39.3178 3.40575 39.57 3.63027 39.6847 3.82875C39.8732 4.15515 39.8783 4.3161 39.8783 10.0213C39.8783 15.8145 39.8761 15.8816 39.6781 16.149C39.5679 16.2977 39.3354 16.5162 39.1614 16.6347L38.8451 16.8501H32.9875H27.13L26.81 16.6344C26.634 16.5157 26.4015 16.268 26.2934 16.0839C26.1009 15.7561 26.0968 15.6274 26.0968 9.95647V4.16386L26.327 3.79352C26.4687 3.56526 26.7074 3.35481 26.9491 3.24509C27.3168 3.07801 27.6896 3.06691 32.9912 3.0649L38.6414 3.06279L39.0662 3.27822ZM3.94237 23.0797C2.15069 23.3192 0.499212 24.8813 0.122806 26.6927C-0.0231435 27.3947 -0.0228564 38.5738 0.123093 39.2738C0.448967 40.8373 1.53043 42.0747 3.12774 42.7118L3.70196 42.9408L9.58779 42.9691C13.6148 42.9885 15.6747 42.9636 16.1103 42.8902C17.3838 42.6758 18.5095 41.9158 19.2578 40.7654C19.9431 39.7116 19.9377 39.7793 19.9051 32.7439L19.876 26.4726L19.5317 25.7545C18.9353 24.5111 17.99 23.657 16.7415 23.2336C16.161 23.0367 15.9752 23.0304 10.3534 23.0139C7.16886 23.0045 4.28394 23.0341 3.94237 23.0797ZM27.006 23.0762C25.2518 23.3202 23.7836 24.5796 23.2142 26.3289C23.0591 26.8053 23.0395 27.3895 23.0089 32.446C22.9879 35.9287 23.0125 38.3417 23.0741 38.846C23.3179 40.8398 24.7641 42.4391 26.6931 42.848C27.6587 43.0527 38.459 43.0498 39.3289 42.8445C41.1089 42.4246 42.4249 41.1081 42.8445 39.3274C43.0497 38.457 43.0527 27.6522 42.8481 26.6861C42.4494 24.8038 40.8511 23.3161 38.9691 23.0755C38.1285 22.9681 27.7792 22.9687 27.006 23.0762ZM16.1683 26.3285C16.3399 26.4331 16.5658 26.6591 16.6704 26.8308C16.8547 27.1331 16.8607 27.3243 16.861 32.993L16.8613 38.8433L16.646 39.1598C16.5275 39.3339 16.3091 39.5664 16.1605 39.6766C15.8932 39.8747 15.8261 39.8769 10.0354 39.8769C4.33266 39.8769 4.17178 39.8719 3.84552 39.6832C3.64713 39.5685 3.4227 39.3163 3.29522 39.0645L3.07988 38.6395V33.0128C3.07988 26.7168 3.06917 26.8256 3.73651 26.3718L4.08134 26.1375L9.96889 26.1378C15.675 26.1381 15.866 26.1441 16.1683 26.3285ZM39.2721 26.3768C39.4124 26.4821 39.6062 26.6976 39.7028 26.8555C39.8679 27.1258 39.8783 27.4867 39.8783 32.9833C39.8783 38.6851 39.8737 38.8316 39.6835 39.1555C39.5763 39.3379 39.3395 39.5749 39.1571 39.6821C38.8334 39.8723 38.6869 39.8769 32.9875 39.8769C27.1544 39.8769 27.1493 39.8767 26.8146 39.6681C26.6304 39.5533 26.3935 39.3163 26.2882 39.1415C26.1037 38.8351 26.0958 38.6272 26.0685 33.3308C26.0494 29.649 26.0743 27.6731 26.1439 27.3381C26.2452 26.8499 26.6308 26.3425 27.006 26.2035C27.085 26.1743 29.8197 26.1582 33.0833 26.1678C38.8539 26.1849 39.0239 26.1906 39.2721 26.3768Z" fill="#61CD2E"/>
</svg>
