<svg width="90" height="90" viewBox="0 0 90 90" fill="none" xmlns="http://www.w3.org/2000/svg">
<path fill-rule="evenodd" clip-rule="evenodd" d="M38.3586 0.210795C37.3901 0.562533 36.5316 1.19113 36.0202 1.9229C35.2011 3.09519 35.0684 3.92927 35.0684 7.90597C35.0684 10.6921 35.0154 11.5895 34.8486 11.6348C34.0059 11.8644 31.1882 12.9692 29.8053 13.6122L28.1457 14.3839L25.3229 11.5919C22.1084 8.41257 21.6336 8.12904 19.739 8.25683C19.1306 8.29796 18.3164 8.47884 17.9297 8.65902C16.9752 9.10357 9.05326 17.0255 8.60871 17.98C8.42854 18.3667 8.24766 19.1809 8.20652 19.7893C8.07873 21.6849 8.36139 22.1576 11.5523 25.3841L14.3552 28.2178L13.9097 29.0968C13.2906 30.3183 12.2212 32.9072 11.8577 34.064L11.5539 35.0308L7.53486 35.1187C3.94084 35.1972 3.43178 35.2454 2.72268 35.5736C1.7673 36.0159 0.91459 36.8364 0.388652 37.8197C0.00791017 38.5315 0 38.6782 0 44.9624C0 51.2466 0.00791017 51.3934 0.388652 52.1051C0.91459 53.0884 1.7673 53.909 2.72268 54.3512C3.43178 54.6794 3.94084 54.7276 7.53486 54.8062L11.5539 54.8941L11.8577 55.8609C12.2212 57.0177 13.2906 59.6066 13.9097 60.8281L14.3552 61.707L11.5523 64.5408C8.36139 67.7672 8.07873 68.2399 8.20652 70.1355C8.24766 70.7439 8.42906 71.5581 8.60994 71.9448C8.81437 72.382 10.4746 74.1938 12.9996 76.7349C16.8033 80.5629 17.1009 80.8218 17.6954 80.8218C18.5922 80.8218 19.1426 80.3275 19.1426 79.5222C19.1426 78.9198 18.8928 78.63 15.0645 74.7888L10.9863 70.6971V69.8502V69.0031L14.2383 65.7092C16.6533 63.2632 17.4902 62.3059 17.4902 61.9902C17.4902 61.7562 16.9887 60.5746 16.3758 59.3642C15.7628 58.1539 14.9207 56.1154 14.5044 54.8343C13.9959 53.2693 13.6278 52.4212 13.3826 52.2494C13.0874 52.0427 12.1989 51.9937 8.74424 51.9937C4.00764 51.9937 3.48521 51.8998 2.99988 50.9615C2.59664 50.1817 2.58908 39.7579 2.99127 38.9801C3.4998 37.9966 3.85295 37.9312 8.65336 37.9312C12.1874 37.9312 13.0869 37.8825 13.3826 37.6754C13.6278 37.5037 13.9959 36.6555 14.5044 35.0905C14.9207 33.8094 15.7628 31.7709 16.3758 30.5607C16.9887 29.3502 17.4902 28.1686 17.4902 27.9347C17.4902 27.619 16.6533 26.6617 14.2383 24.2157L10.9863 20.9217V20.0702V19.2187L15.0775 15.1278L19.1684 11.0366H20.0199H20.8714L24.1654 14.2886C26.5936 16.6861 27.5697 17.5405 27.88 17.5402C28.1115 17.54 29.3168 17.031 30.5585 16.4087C31.8004 15.7864 33.8409 14.9444 35.093 14.5377C36.6168 14.0425 37.4541 13.6772 37.6251 13.4329C37.8322 13.1372 37.8809 12.2377 37.8809 8.70367C37.8809 3.90326 37.9463 3.55011 38.9297 3.04158C39.7076 2.63939 50.1314 2.64695 50.9112 3.05019C51.8495 3.53552 51.9434 4.05794 51.9434 8.79455C51.9434 12.2492 51.9924 13.1377 52.1991 13.4329C52.3709 13.6781 53.219 14.0462 54.784 14.5547C56.0651 14.971 58.1036 15.8131 59.3139 16.4261C60.5243 17.039 61.7059 17.5405 61.9399 17.5405C62.2556 17.5405 63.2129 16.7036 65.6589 14.2886L68.9528 11.0366H69.8043H70.6558L74.7468 15.1278L78.8379 19.2187V20.0702V20.9217L75.5859 24.2157C73.1709 26.6617 72.334 27.619 72.334 27.9347C72.334 28.1686 72.8355 29.3502 73.4484 30.5607C74.0614 31.7709 74.9036 33.8094 75.3198 35.0905C75.8283 36.6555 76.1964 37.5037 76.4416 37.6754C76.7373 37.8825 77.6368 37.9312 81.1709 37.9312C85.9713 37.9312 86.3244 37.9966 86.8329 38.9801C87.2351 39.7579 87.2276 50.1817 86.8243 50.9615C86.339 51.8998 85.8166 51.9937 81.08 51.9937C77.6254 51.9937 76.7368 52.0427 76.4416 52.2494C76.1964 52.4212 75.8283 53.2693 75.3198 54.8343C74.9036 56.1154 74.0614 58.1539 73.4484 59.3642C72.8355 60.5746 72.334 61.7562 72.334 61.9902C72.334 62.3059 73.1709 63.2632 75.5859 65.7092L78.8379 69.0031V69.8502V70.6971L74.7598 74.7888C70.9314 78.63 70.6816 78.9198 70.6816 79.5222C70.6816 80.3275 71.232 80.8218 72.1288 80.8218C72.7233 80.8218 73.0209 80.5629 76.8247 76.7349C79.3496 74.1938 81.0098 72.382 81.2143 71.9448C81.3952 71.5581 81.5766 70.7439 81.6177 70.1355C81.7455 68.2399 81.4628 67.7672 78.2719 64.5408L75.469 61.707L75.9145 60.8281C76.5336 59.6066 77.603 57.0177 77.9665 55.8609L78.2703 54.8941L82.2894 54.8062C85.8834 54.7276 86.3924 54.6794 87.1015 54.3512C88.0569 53.909 88.9096 53.0884 89.4356 52.1051C89.8163 51.3934 89.8242 51.2466 89.8242 44.9624C89.8242 38.6782 89.8163 38.5315 89.4356 37.8197C88.9096 36.8364 88.0569 36.0159 87.1015 35.5736C86.3924 35.2454 85.8834 35.1972 82.2894 35.1187L78.2703 35.0308L77.9665 34.064C77.603 32.9072 76.5336 30.3183 75.9145 29.0968L75.469 28.2178L78.2719 25.3841C81.4628 22.1576 81.7455 21.6849 81.6177 19.7893C81.5766 19.1809 81.3962 18.3667 81.2166 17.98C81.0093 17.5335 79.3445 15.7303 76.6559 13.0405C72.0007 8.38286 71.7655 8.21992 69.7099 8.228C68.0859 8.23433 67.4351 8.65691 64.4166 11.6647L61.6848 14.3868L60.0221 13.611C59.1077 13.1842 57.5538 12.5371 56.5692 12.1731L54.7791 11.5111L54.7235 7.53841C54.6734 3.94984 54.6325 3.48929 54.3009 2.77298C53.8587 1.81761 53.0381 0.964897 52.0548 0.438959C51.3494 0.0617324 51.1481 0.0490762 45.1758 0.00970118C40.3172 -0.022291 38.8837 0.0198965 38.3586 0.210795ZM41.8359 21.256C39.0009 21.6141 35.646 22.7447 33.1068 24.1974C22.0602 30.5178 17.8636 44.3837 23.5686 55.7127C24.3981 57.3599 25.8318 59.4886 26.2696 59.7228C27.0023 60.1149 27.7705 59.8572 28.1842 59.0805C28.5001 58.4872 28.447 58.3049 27.5752 56.9952C21.7904 48.3044 22.7962 37.3402 30.0429 30.0933C33.1035 27.0329 36.8299 25.0527 41.1328 24.2004C42.9509 23.8402 47.2658 23.8887 49.1309 24.2904C55.4933 25.6602 60.8687 29.8078 63.7836 35.5963C66.095 40.1861 66.6153 45.809 65.1869 50.762C64.6712 52.5509 63.3702 55.3108 62.2491 56.9952C61.3772 58.3049 61.3241 58.4872 61.64 59.0805C62.0538 59.8572 62.8219 60.1149 63.5546 59.7228C64.0051 59.4818 65.4376 57.339 66.3137 55.5958C67.1854 53.8612 67.9983 51.466 68.4107 49.4165C68.837 47.2989 68.8365 42.6746 68.4097 40.5255C66.8466 32.6546 61.5918 26.1456 54.2428 22.9773C50.48 21.355 45.9868 20.7317 41.8359 21.256ZM43.0719 32.326C37.9107 33.0778 33.5392 37.0398 32.3242 42.0669C31.9284 43.7047 31.9261 46.609 32.3193 48.2094C33.2218 51.8822 35.7801 55.0558 39.1846 56.7255C41.2504 57.7387 42.5278 58.0296 44.9121 58.0296C47.2936 58.0296 48.5757 57.7384 50.625 56.7317C54.013 55.0674 56.623 51.8325 57.5007 48.2094C57.8921 46.5931 57.8921 43.6833 57.5007 42.0669C56.6896 38.7192 54.341 35.637 51.2216 33.827C50.0876 33.1689 48.1259 32.532 46.5638 32.3148C45.0686 32.1068 44.5662 32.1084 43.0719 32.326ZM47.9883 35.501C51.1831 36.5615 53.7376 39.197 54.688 42.4136C55.1067 43.8309 55.106 46.4501 54.6864 47.8628C53.6129 51.477 50.5698 54.3055 46.9336 55.0691C44.6505 55.5483 42.5827 55.2648 40.3499 54.166C39.42 53.7082 38.68 53.1591 37.8002 52.274C35.7325 50.1937 34.8265 48.0226 34.8221 45.1382C34.8158 40.9001 37.2452 37.3354 41.2495 35.7084C43.2756 34.8852 45.8902 34.8047 47.9883 35.501ZM39.5104 59.3197C39.0361 59.4169 38.4082 60.1728 38.4082 60.6467C38.4082 60.8356 39.1152 62.2937 39.9793 63.8868L41.5505 66.7832L41.0862 69.3195C40.8308 70.7145 40.5636 71.7968 40.4924 71.7246C40.4211 71.6523 39.3986 69.0225 38.2199 65.8804C37.0413 62.7383 35.9153 59.9896 35.7179 59.772C35.2612 59.2691 34.4333 59.2573 32.4798 59.7256C28.9744 60.566 25.6802 62.8309 23.631 65.8095C22.9173 66.8466 21.8225 69.1974 21.4286 70.5386C21.1554 71.4683 21.1108 72.6295 21.0519 80.3359L20.9849 89.0786L21.4269 89.5205L21.8688 89.9624H44.9121H67.9555L68.3868 89.5309L68.8184 89.0995L68.8161 80.9615C68.8133 71.3899 68.7403 70.7696 67.2625 67.7498C65.2897 63.7186 61.6194 60.7377 57.3926 59.7338C55.3873 59.2575 54.565 59.2671 54.1063 59.772C53.9089 59.9896 52.7829 62.7383 51.6043 65.8804C50.4257 69.0225 49.4031 71.6523 49.3318 71.7246C49.2606 71.7968 48.9934 70.7145 48.738 69.3195L48.2738 66.7832L49.8449 63.8868C50.709 62.2937 51.416 60.8295 51.416 60.6328C51.416 60.4359 51.2253 60.0531 50.992 59.7818L50.568 59.2886L45.2352 59.264C42.3021 59.2503 39.7259 59.2754 39.5104 59.3197ZM47.5488 62.1159C47.5488 62.1725 47.0742 63.0946 46.4941 64.1655C45.9141 65.2361 45.4407 66.3172 45.4423 66.5677C45.4438 66.818 45.8742 69.2774 46.3985 72.0327L47.352 77.0425L46.1763 80.1626C45.5296 81.8786 44.9608 83.2827 44.9121 83.2827C44.8634 83.2827 44.2946 81.8786 43.6479 80.1626L42.4723 77.0425L43.4257 72.0327C43.9501 69.2774 44.3804 66.818 44.382 66.5677C44.3835 66.3172 43.9102 65.2361 43.3301 64.1655C42.75 63.0946 42.2754 62.1725 42.2754 62.1159C42.2754 62.0594 43.4619 62.0132 44.9121 62.0132C46.3623 62.0132 47.5488 62.0594 47.5488 62.1159ZM37.4393 71.7691C39.3843 76.8931 41.497 82.4499 42.1342 84.1177L43.2932 87.1499H33.5558H23.8184L23.8213 80.0747C23.8249 71.9415 23.882 71.4621 25.1557 68.8819C26.5238 66.1107 29.0876 63.8362 32.0187 62.7937C32.6809 62.5581 33.3758 62.3852 33.563 62.4091C33.8418 62.4447 34.5429 64.1382 37.4393 71.7691ZM58.4856 63.0626C61.1242 64.166 63.4134 66.3367 64.7012 68.9566C65.935 71.4667 66.0059 72.0733 66.0059 80.1301V87.1499H56.2396C50.8683 87.1499 46.5117 87.088 46.5585 87.0123C46.6052 86.9365 48.6677 81.5379 51.1418 75.0152C53.6157 68.4925 55.72 62.9695 55.8179 62.7416C55.9749 62.3762 56.0728 62.3416 56.6503 62.4481C57.0103 62.5145 57.8361 62.791 58.4856 63.0626Z" fill="#F7B300"/>
</svg>
