<svg width="79" height="81" viewBox="0 0 79 81" fill="none" xmlns="http://www.w3.org/2000/svg">
<path fill-rule="evenodd" clip-rule="evenodd" d="M38.7502 0.304154C38.2538 0.765677 38.2111 1.23939 38.2663 5.66488L38.3163 9.67715L38.7615 10.0592C39.3233 10.5414 39.6892 10.5414 40.251 10.0592L40.6962 9.67715L40.7462 5.66488C40.7738 3.45816 40.7527 1.42042 40.6992 1.13645C40.505 0.102535 39.4509 -0.347584 38.7502 0.304154ZM11.5816 11.5499C11.394 11.7371 11.2643 12.0777 11.2643 12.3828C11.2643 12.8427 11.6089 13.2428 14.4258 16.052C17.1876 18.8064 17.6501 19.2049 18.0839 19.2049C18.7333 19.2049 19.2502 18.687 19.2502 18.0359C19.2502 17.5964 18.8656 17.1531 16.0822 14.3844C13.2869 11.6037 12.8545 11.2331 12.4066 11.2331C12.1104 11.2331 11.7667 11.365 11.5816 11.5499ZM62.9303 14.3844C60.1469 17.1531 59.7623 17.5964 59.7623 18.0359C59.7623 18.687 60.2792 19.2049 60.9286 19.2049C61.3624 19.2049 61.8249 18.8064 64.5867 16.052C67.4036 13.2428 67.7483 12.8427 67.7483 12.3828C67.7483 11.7157 67.2688 11.2331 66.6059 11.2331C66.158 11.2331 65.7256 11.6037 62.9303 14.3844ZM36.9256 13.3058C35.4262 13.464 32.7961 14.0836 31.4075 14.6055C26.0507 16.619 21.1563 20.9791 18.6289 25.9885C17.9977 27.2397 17.9698 27.5136 18.4157 28.0793C18.809 28.5787 19.6502 28.6522 20.0193 28.2195C20.1494 28.0669 20.5946 27.3311 21.0087 26.5842C24.042 21.1129 29.2579 17.2692 35.4232 15.9619C37.7118 15.4768 41.3007 15.4768 43.5893 15.9619C50.0416 17.3301 55.2907 21.3395 58.2696 27.1753C59.9116 30.3923 60.6067 33.3331 60.6078 37.0681C60.6089 40.5819 59.9241 43.5679 58.4147 46.6313C57.4567 48.5757 56.2658 50.2405 54.1505 52.5923C51.7108 55.3047 50.8338 56.6837 50.2869 58.6683L50.025 59.6185H39.6687H29.3125L28.9621 58.5802C28.2847 56.5722 27.405 55.3201 24.213 51.8203C21.8659 49.247 20.4626 46.891 19.4375 43.8043C18.5851 41.2375 18.3462 39.3885 18.4658 36.2825C18.5217 34.8314 18.6088 33.3121 18.6592 32.9064C18.736 32.2891 18.6954 32.1134 18.4098 31.8283C17.9392 31.3586 17.0353 31.4367 16.6428 31.981C15.9748 32.9074 15.8003 38.0884 16.3326 41.191C17.0896 45.6026 19.0497 49.6529 22.0365 52.9776C25.2082 56.5079 25.5872 56.9817 26.1763 58.1521C26.5157 58.8263 26.8365 59.6816 26.8894 60.0527C26.9424 60.4236 27.0369 62.833 27.0998 65.4069L27.2138 70.0866L27.7303 71.1336C28.0732 71.8289 28.5587 72.4691 29.1746 73.0383L30.1025 73.8958L30.1729 75.2378C30.2997 77.6475 31.519 79.5039 33.6357 80.5098L34.667 81H39.7442H44.8215L45.8528 80.5098C47.9695 79.5039 49.1888 77.6475 49.3156 75.2378L49.386 73.8958L50.3139 73.0383C50.9305 72.4685 51.4156 71.8286 51.7601 71.1303L52.2786 70.0798L52.3641 64.77C52.4449 59.7509 52.469 59.4114 52.8049 58.568C53.2617 57.421 54.4296 55.7659 55.886 54.2017C59.8556 49.9383 61.8327 46.1324 62.6983 41.0879C62.9768 39.4647 63.0118 38.7599 62.9384 36.2573C62.8173 32.1329 62.2457 29.8215 60.4509 26.2001C56.1095 17.4399 46.6873 12.2756 36.9256 13.3058ZM47.402 29.5952C46.3527 29.9333 45.755 30.5781 41.8868 35.5438C39.6811 38.3753 37.8238 40.692 37.7592 40.692C37.6948 40.692 36.7314 39.6764 35.6184 38.4351C33.0388 35.5581 32.6319 35.2001 31.5887 34.891C28.4089 33.9489 25.6204 37.2778 27.1305 40.2132C27.2884 40.52 28.612 42.0897 30.0718 43.7012C36.353 50.6352 36.2008 50.5047 37.999 50.5047C39.1324 50.5047 40.0108 50.1421 40.7167 49.3827C41.7524 48.2686 45.8601 42.8564 45.9542 42.4817C46.1744 41.6062 44.8062 40.7808 44.0916 41.358C43.952 41.4707 42.7238 42.9974 41.3625 44.7503C40.001 46.5035 38.7707 47.9823 38.6284 48.0368C38.2536 48.1804 37.6236 48.1584 37.3097 47.9908C36.914 47.7794 29.295 39.3044 29.1494 38.9137C28.8547 38.1229 29.6853 37.0492 30.5918 37.0492C31.0687 37.0492 31.5371 37.494 34.4354 40.6991C37.198 43.754 37.5896 44.0606 38.3095 43.7331C38.5111 43.6415 40.6151 41.0694 42.9851 38.0176C45.3552 34.9656 47.4794 32.3233 47.7055 32.1456C48.8031 31.2838 50.3107 32.4828 49.756 33.7763C49.6378 34.052 49.007 34.9546 48.3541 35.7822C46.9742 37.5315 46.8554 37.8066 47.1962 38.4645C47.4792 39.0108 48.079 39.2289 48.6208 38.9824C49.0045 38.808 51.5021 35.7269 51.9231 34.909C52.796 33.2123 52.0976 31.0008 50.3694 29.9899C49.5972 29.5382 48.1686 29.3481 47.402 29.5952ZM0.322698 38.663C-0.350984 39.3847 0.0820069 40.417 1.14061 40.6131C1.42906 40.6665 3.47422 40.6882 5.68535 40.6614L9.70555 40.6128L10.0882 40.1684C10.5571 39.624 10.5701 39.2769 10.142 38.7336L9.81328 38.3163H5.22967C0.71888 38.3163 0.641135 38.3218 0.322698 38.663ZM68.8705 38.7336C68.4424 39.2769 68.4554 39.624 68.9243 40.1684L69.307 40.6128L73.3272 40.6614C75.5383 40.6882 77.5796 40.6671 77.8636 40.6145C78.9034 40.4221 79.349 39.3692 78.6898 38.663C78.3714 38.3218 78.2936 38.3163 73.7828 38.3163H69.1992L68.8705 38.7336ZM17.6901 59.6947C17.5156 59.7674 15.9984 61.2096 14.3185 62.8997C11.6328 65.6014 11.2643 66.0333 11.2643 66.4777C11.2643 67.1382 11.7483 67.6168 12.416 67.6168C12.8767 67.6168 13.2775 67.2728 16.0917 64.4609C18.851 61.7039 19.2502 61.2423 19.2502 60.8093C19.2502 60.0131 18.3939 59.4012 17.6901 59.6947ZM60.5235 59.6916C60.0358 59.8867 59.7623 60.2945 59.7623 60.8265C59.7623 61.2372 60.21 61.7524 62.9208 64.4609C65.735 67.2728 66.1358 67.6168 66.5965 67.6168C67.2648 67.6168 67.7483 67.1382 67.7483 66.4764C67.7483 66.0289 67.3824 65.6054 64.6147 62.8476C62.8911 61.1304 61.3383 59.6889 61.1637 59.644C60.9892 59.5991 60.7011 59.6204 60.5235 59.6916ZM49.978 64.0532V66.033H48.312C46.8576 66.033 46.6058 66.0732 46.3288 66.3497C45.8563 66.8214 45.9056 67.6691 46.4295 68.0804C46.7882 68.3621 47.0696 68.4087 48.4128 68.4087H49.978L49.9745 68.8442C49.9699 69.4285 49.4235 70.601 48.8977 71.1553C48.6628 71.4027 48.1851 71.7591 47.8361 71.9473C47.2116 72.2835 47.0821 72.289 39.7442 72.289C32.4064 72.289 32.2769 72.2835 31.6524 71.9473C31.3034 71.7591 30.8256 71.4027 30.5908 71.1553C30.065 70.601 29.5186 69.4285 29.514 68.8442L29.5105 68.4087H35.6895H41.8684L42.2659 68.0523C42.8398 67.5376 42.8778 66.8645 42.3622 66.3497C42.0556 66.0437 41.8334 66.033 35.7777 66.033H29.5105V64.0532V62.0734H39.7442H49.978V64.0532ZM46.9599 75.3379C46.9523 76.632 45.7753 78.1225 44.4473 78.5196C43.608 78.7706 35.8805 78.7706 35.0412 78.5196C33.7131 78.1225 32.5362 76.632 32.5286 75.3379L32.5251 74.7439H39.7442H46.9634L46.9599 75.3379Z" fill="#0092FF"/>
</svg>
