<svg width="43" height="43" viewBox="0 0 43 43" fill="none" xmlns="http://www.w3.org/2000/svg">
<path fill-rule="evenodd" clip-rule="evenodd" d="M20.3538 0.0814903C19.9367 0.202434 19.7132 0.510633 19.4422 1.33875L19.1902 2.1087L18.5922 2.29738C18.2633 2.40118 17.6623 2.64685 17.2568 2.84327L16.5194 3.20047L15.6883 2.80158C14.8978 2.42219 14.841 2.40757 14.5266 2.50179C14.1639 2.61054 13.3544 3.31233 12.8349 3.96849C12.3866 4.53471 12.3964 4.84518 12.8916 5.76163L13.2703 6.46249L12.9612 7.07124C12.7912 7.40609 12.5343 8.01711 12.3904 8.4291L12.1288 9.1783L11.3898 9.40875C10.6307 9.6456 10.2882 9.87547 10.1463 10.2434C10.1017 10.359 10.0652 10.9149 10.0652 11.4787C10.0651 12.9953 10.1517 13.1258 11.421 13.5239C11.8407 13.6555 12.1448 13.7978 12.1587 13.8692C12.1764 13.9591 10.7068 14.5185 6.48928 16.0273C3.35808 17.1474 0.701594 18.1314 0.586106 18.2138C0.316829 18.4061 -0.00233884 19.0299 1.29198e-05 19.3593C0.00270065 19.7274 0.275925 20.2763 0.555281 20.4745C0.687736 20.5685 2.42132 21.2234 4.40772 21.9299C6.39412 22.6364 8.04867 23.2393 8.08445 23.2698C8.12023 23.3003 6.51608 23.9087 4.51968 24.6217C2.52337 25.3348 0.777859 25.9938 0.640784 26.0862C0.255347 26.3462 0.0619987 26.6664 0.0229426 27.1096C-0.0260245 27.6646 0.251736 28.2051 0.712093 28.4508C0.896875 28.5494 2.41603 29.1167 4.08797 29.7115C5.75998 30.3062 7.10175 30.8183 7.06967 30.8494C7.03766 30.8805 5.613 31.405 3.90377 32.0148C2.19454 32.6246 0.676649 33.2131 0.530587 33.3225C0.190506 33.5774 -0.0396311 34.1637 0.0214308 34.6194C0.0809808 35.0635 0.439205 35.5239 0.871005 35.7112C1.06074 35.7936 5.73269 37.4759 11.253 39.4496C19.7578 42.4905 21.3413 43.0322 21.626 42.9986C22.0544 42.9478 42.1327 35.7607 42.4139 35.5574C42.6838 35.3622 43.0023 34.7387 43 34.4101C42.9973 34.042 42.7241 33.4932 42.4447 33.2948C42.3123 33.2007 40.881 32.6496 39.2642 32.07C37.6474 31.4904 36.2111 30.9722 36.0725 30.9186C35.835 30.8267 35.9994 30.7572 38.945 29.7035C40.6636 29.0889 42.1915 28.5147 42.3406 28.4276C42.4896 28.3406 42.7023 28.0996 42.8134 27.8922C43.1934 27.1821 42.9131 26.3357 42.178 25.9742C42.0075 25.8903 40.2897 25.2589 38.3606 24.571C36.141 23.7794 34.8962 23.2961 34.9703 23.2546C35.0347 23.2186 36.6886 22.6168 38.6457 21.9174C40.6027 21.2179 42.3123 20.5687 42.4447 20.4746C42.7241 20.2763 42.9973 19.7274 43 19.3593C43.0023 19.0304 42.6836 18.4068 42.4139 18.2127C42.2533 18.097 32.5148 14.5464 31.0928 14.085C30.6771 13.9501 30.7897 13.7755 31.411 13.5918C32.8405 13.1691 32.9426 13.0312 32.9459 11.5171C32.9496 9.94212 32.8644 9.80999 31.5797 9.39514L30.8666 9.16485L30.6072 8.42238C30.4646 8.01408 30.208 7.40432 30.0369 7.06746L29.7259 6.45493L30.1064 5.75625C30.7006 4.66549 30.6453 4.41158 29.5806 3.34629C29.0404 2.80578 28.757 2.58684 28.4961 2.50859C28.1528 2.40572 28.1194 2.41396 27.3117 2.80158L26.4806 3.20047L25.7432 2.84327C25.3377 2.64685 24.7367 2.40118 24.4078 2.29738L23.8098 2.1087L23.5578 1.34808C23.2789 0.506263 23.0475 0.198988 22.5981 0.0740942C22.2296 -0.0283589 20.7154 -0.0233161 20.3538 0.0814903ZM22.3354 2.25755C22.4787 2.71905 22.6725 3.16811 22.7662 3.25543C22.8599 3.34276 23.1425 3.45555 23.3941 3.50615C24.0106 3.63003 25.0009 4.03472 25.6897 4.44419C26.0008 4.6291 26.3438 4.78038 26.4519 4.78038C26.56 4.78038 26.9605 4.61019 27.3418 4.40217C27.7232 4.19415 28.0876 4.02396 28.1518 4.02396C28.2159 4.02396 28.4303 4.18911 28.6283 4.39091L28.9882 4.75794L28.5919 5.54655C28.1557 6.41484 28.1202 6.67429 28.3866 7.04872C28.6933 7.47963 29.205 8.65654 29.4217 9.42926C29.5439 9.86462 29.6938 10.2173 29.7853 10.2847C29.871 10.3478 30.2888 10.5024 30.7138 10.6282L31.4863 10.857L31.5117 11.1595C31.5256 11.3259 31.524 11.5997 31.5081 11.7679L31.4791 12.0736L30.6913 12.3064C30.231 12.4424 29.8372 12.6124 29.744 12.7151C29.6563 12.8118 29.4858 13.2407 29.3651 13.6682C29.1538 14.4158 28.7066 15.4202 28.3767 15.8875C28.1311 16.2356 28.1835 16.5768 28.609 17.4013L28.9987 18.1563L28.5927 18.5688L28.1866 18.9812L27.4106 18.5625C26.9836 18.3323 26.5518 18.1438 26.451 18.1438C26.35 18.1438 26.0492 18.2765 25.7824 18.4387C25.1196 18.8416 24.4709 19.1197 23.6157 19.3677C23.219 19.4828 22.8261 19.6388 22.7426 19.7143C22.6591 19.79 22.476 20.224 22.3357 20.6788L22.0807 21.5057H21.5H20.9193L20.6643 20.6788C20.524 20.224 20.3409 19.79 20.2574 19.7143C20.1739 19.6388 19.781 19.4828 19.3843 19.3677C18.5291 19.1197 17.8804 18.8416 17.2176 18.4387C16.9508 18.2765 16.65 18.1438 16.549 18.1438C16.4482 18.1438 16.0164 18.3323 15.5894 18.5625L14.8133 18.9812L14.4073 18.5688L14.0013 18.1563L14.391 17.4013C14.823 16.5642 14.8695 16.2355 14.6077 15.8677C14.3062 15.4438 13.7934 14.262 13.5783 13.4949C13.4561 13.0596 13.3062 12.7069 13.2147 12.6395C13.129 12.5764 12.7093 12.4212 12.2819 12.2947L11.505 12.0646V11.4692V10.8738L12.3843 10.6C12.9274 10.4309 13.2929 10.2703 13.3405 10.1798C13.3828 10.0992 13.4997 9.73141 13.6002 9.36244C13.7921 8.65805 14.3103 7.47458 14.6134 7.04872C14.882 6.67118 14.8442 6.40097 14.4035 5.54697L14.0016 4.76836L14.3666 4.3962C14.5674 4.19146 14.7841 4.02396 14.8482 4.02396C14.9124 4.02396 15.2768 4.19415 15.6582 4.40217C16.0395 4.61019 16.44 4.78038 16.5481 4.78038C16.6562 4.78038 16.9954 4.63136 17.3018 4.44915C17.9644 4.05531 18.9214 3.66491 19.5873 3.51674C19.8517 3.4579 20.1438 3.33931 20.2362 3.25317C20.3285 3.1671 20.5213 2.71905 20.6646 2.25755L20.9251 1.41851H21.5H22.0749L22.3354 2.25755ZM20.0301 5.19448C18.104 5.68456 16.6712 6.80742 15.765 8.53727C15.2797 9.46347 15.0939 10.2669 15.0888 11.4621C15.0853 12.2565 15.1237 12.6097 15.2693 13.1255C15.8657 15.2392 17.3699 16.839 19.4623 17.5852C20.1677 17.8367 20.2519 17.8474 21.5 17.8448C22.7345 17.8423 22.8398 17.8287 23.5351 17.584C27.099 16.3296 28.8771 12.436 27.4515 9.00903C26.8256 7.50459 25.5849 6.22094 24.1335 5.57614C22.9242 5.03882 21.2529 4.88342 20.0301 5.19448ZM22.6552 6.58772C24.4306 7.00661 25.9428 8.52416 26.3817 10.3275C26.4436 10.5817 26.4904 11.149 26.4857 11.5882C26.471 12.9629 25.9595 14.0986 24.9017 15.1051C23.3827 16.5502 21.1711 16.8755 19.2367 15.9384C18.4419 15.5532 17.4265 14.5238 17.0185 13.6893C16.0335 11.6747 16.4487 9.38287 18.0784 7.84044C18.7029 7.24925 19.5478 6.77574 20.3063 6.59167C20.9452 6.43669 22.0076 6.43493 22.6552 6.58772ZM20.628 7.97828C20.0705 8.11838 19.3391 8.564 18.894 9.035C17.2156 10.8108 17.7935 13.6532 20.0504 14.723C20.5769 14.9726 20.682 14.9921 21.5 14.9921C22.318 14.9921 22.4231 14.9726 22.9496 14.723C25.271 13.6227 25.8009 10.6315 23.9798 8.90809C23.2961 8.26101 22.5915 7.95928 21.6826 7.92432C21.2819 7.90894 20.8073 7.93323 20.628 7.97828ZM22.4763 9.55491C22.8786 9.76032 23.3182 10.2363 23.4945 10.6575C23.5637 10.8227 23.6202 11.1847 23.6202 11.4621C23.6202 12.0533 23.474 12.447 23.0933 12.881C22.6542 13.3814 22.2363 13.5594 21.5 13.5594C21.0176 13.5594 20.7914 13.5173 20.5341 13.3799C19.657 12.9114 19.2043 11.9506 19.4095 10.993C19.5028 10.5581 19.8696 9.99986 20.245 9.72158C20.8283 9.28924 21.8119 9.21578 22.4763 9.55491ZM13.0005 15.9215L13.2722 16.4729L12.8925 17.1698C12.2978 18.2616 12.3559 18.5224 13.4305 19.5845C13.9627 20.1104 14.2666 20.3444 14.5137 20.4186C14.8448 20.5177 14.8875 20.5069 15.6968 20.1185L16.5364 19.7156L17.1114 20.018C17.4276 20.1842 18.0248 20.4334 18.4383 20.5718L19.1902 20.8232L19.4194 21.5217C19.7321 22.4746 19.8108 22.6016 20.1981 22.7779C20.7031 23.0077 22.3195 23 22.8036 22.7656C23.2062 22.5706 23.27 22.4684 23.5806 21.5217L23.8098 20.8232L24.5617 20.5718C24.9752 20.4334 25.5724 20.1842 25.8886 20.018L26.4636 19.7156L27.3032 20.1185C28.1023 20.502 28.1588 20.5167 28.4734 20.4224C28.8361 20.3137 29.6456 19.6119 30.1651 18.9557C30.6135 18.3893 30.6035 18.0805 30.1075 17.1698L29.7278 16.4729L29.9995 15.9215C30.1489 15.6184 30.3075 15.3703 30.352 15.3703C30.4417 15.3703 41.2165 19.2206 41.3888 19.3143C41.4496 19.3474 37.0881 20.9462 31.48 22.9467L21.4625 26.52L20.6624 26.2313C20.2222 26.0725 15.7331 24.4651 10.6865 22.6592C5.63996 20.8532 1.5258 19.3607 1.54403 19.3424C1.59434 19.2921 12.5421 15.3766 12.6418 15.3732C12.6897 15.3716 12.8511 15.6184 13.0005 15.9215ZM15.8072 26.0195C19.7275 27.4271 21.2212 27.9282 21.5 27.9291C21.7828 27.93 23.2173 27.4494 27.1967 26.0207C30.1222 24.9704 32.5772 24.1111 32.6526 24.1111C32.7966 24.1111 41.3197 27.1276 41.4246 27.2157C41.4736 27.2568 22.8135 33.9669 21.7381 34.2948C21.4442 34.3844 20.9781 34.2269 11.4759 30.8271C6.00096 28.8682 1.53597 27.251 1.55369 27.2332C1.63424 27.1526 10.1403 24.1259 10.3058 24.119C10.4085 24.1147 12.8841 24.9699 15.8072 26.0195ZM10.8713 28.1836C10.5289 28.5261 10.6148 29.0718 11.0473 29.3023C11.3797 29.4794 19.2438 32.2637 19.4115 32.2637C19.6313 32.2637 20.0721 31.8219 20.0721 31.6017C20.0721 31.3026 19.8888 31.0148 19.6195 30.891C18.9972 30.6052 11.4872 27.9773 11.2925 27.9773C11.1742 27.9773 10.9847 28.0702 10.8713 28.1836ZM15.3266 33.7301C19.6367 35.2763 21.2189 35.8093 21.5 35.8095C21.7819 35.8097 23.3769 35.2734 27.7714 33.7007L33.6647 31.5917L37.5767 32.9929C39.7283 33.7636 41.4734 34.4095 41.4545 34.4283C41.4357 34.4471 36.933 36.0638 31.4486 38.0209L21.4769 41.5792L13.0263 38.5533C8.37851 36.8892 3.93317 35.3 3.14785 35.0219C2.36253 34.7438 1.67254 34.4901 1.6145 34.458C1.49422 34.3915 9.21204 31.5851 9.40522 31.625C9.47451 31.6394 12.1391 32.5867 15.3266 33.7301ZM10.9324 35.3314C10.6217 35.593 10.5714 35.9954 10.8121 36.2929C10.9833 36.5044 18.999 39.4077 19.4117 39.4077C19.7408 39.4077 20.0721 39.0745 20.0721 38.7438C20.0721 38.2155 19.9548 38.1592 15.6754 36.632C13.465 35.8432 11.5538 35.1773 11.4281 35.1521C11.2592 35.1183 11.1299 35.1651 10.9324 35.3314Z" fill="#2D4BEA"/>
</svg>
