<svg width="168" height="33" viewBox="0 0 168 33" fill="none" xmlns="http://www.w3.org/2000/svg">
<path d="M16.6251 2.6686C19.0618 0.86889 21.6183 -0.381757 24.5543 0.1063C26.9411 0.526804 29.1108 1.77724 30.6933 3.6444C32.2758 5.51155 33.1732 7.8798 33.2325 10.3453C33.3723 16.5986 33.3024 22.8518 33.2325 29.105C33.2325 31.3928 31.8145 32.9078 29.907 32.9078C27.9996 32.9078 26.5915 31.403 26.5716 29.1152C26.5716 23.3297 26.5716 17.534 26.5716 11.7383C26.5716 8.99301 25.3932 7.44749 23.326 7.40682C21.2588 7.36615 19.9506 8.96251 19.9406 11.8197C19.9406 17.3815 19.9406 22.9433 19.9406 28.495C19.9406 31.342 18.6523 32.9688 16.5152 32.8976C14.3781 32.8265 13.2996 31.2708 13.2896 28.5255C13.2896 23.045 13.2896 17.5543 13.2896 12.0739C13.2896 8.97267 12.1412 7.37632 9.93415 7.40682C7.72715 7.43733 6.69854 9.01334 6.68856 12.1857C6.68856 17.6662 6.68856 23.1467 6.68856 28.6373C6.68856 31.3318 5.45024 32.8875 3.37306 32.9078C1.29588 32.9282 0.0176121 31.342 0.00762563 28.6678C0.00762563 23.1162 0.0975036 17.5543 0.00762563 11.9925C-0.122198 7.34582 1.39574 3.66505 5.32042 1.34678C9.24509 -0.971493 12.99 -0.137728 16.6251 2.6686Z" fill="url(#paint0_linear_387_190)"/>
<path d="M44.7467 23.5229C46.4843 26.2174 48.2419 26.9189 50.7385 26.1157C51.2279 25.953 51.7372 25.7191 52.1866 25.587C52.9296 25.307 53.7513 25.3381 54.4718 25.6735C55.1924 26.0089 55.7531 26.6212 56.0313 27.3765C56.8203 29.0542 56.2211 30.4269 54.7431 31.4436C51.3976 33.7314 45.6055 33.3349 42.0403 30.5489C39.9639 29.0164 38.4362 26.835 37.6899 24.3368C36.9435 21.8386 37.0194 19.1606 37.9059 16.7104C39.9032 11.6265 44.8965 8.24058 49.7998 8.6778C52.4657 8.96245 54.9745 10.0998 56.9661 11.9266C58.9576 13.7533 60.3295 16.1756 60.8848 18.8457C61.5339 22.2417 60.4453 23.5635 56.9601 23.5737C52.9955 23.533 49.0308 23.5229 44.7467 23.5229ZM44.7467 17.7475H53.365C50.7485 14.2396 47.443 14.2193 44.7467 17.7475Z" fill="url(#paint1_linear_387_190)"/>
<path d="M129.102 32.8671C125.962 32.9051 122.936 31.6722 120.689 29.4396C118.442 27.2069 117.158 24.1571 117.118 20.9605V20.7775C117.18 17.561 118.462 14.4937 120.696 12.2189C122.93 9.94409 125.943 8.63853 129.102 8.57606C135.363 8.49472 140.926 14.1582 140.966 20.6758C140.976 22.2675 140.679 23.8456 140.09 25.3202C139.502 26.7948 138.634 28.1369 137.536 29.2699C136.438 30.4029 135.131 31.3047 133.691 31.9236C132.251 32.5425 130.705 32.8666 129.142 32.8772L129.102 32.8671ZM128.932 15.2055C127.518 15.2295 126.171 15.8189 125.18 16.8463C124.19 17.8737 123.636 19.2566 123.639 20.6961V20.8995C123.675 22.373 124.266 23.776 125.291 24.8173C126.315 25.8587 127.695 26.4583 129.142 26.4918C130.58 26.4363 131.945 25.829 132.962 24.7918C133.979 23.7545 134.572 22.3641 134.624 20.8995C134.606 19.3857 133.998 17.9412 132.935 16.8832C131.871 15.8252 130.439 15.2401 128.952 15.2563L128.932 15.2055Z" fill="url(#paint2_linear_387_190)"/>
<path d="M168 20.8384C167.971 24.0646 166.688 27.1478 164.432 29.4134C162.176 31.679 159.131 32.9427 155.962 32.9279C152.793 32.9131 149.759 31.6211 147.524 29.3345C145.288 27.0479 144.033 23.9529 144.033 20.7266C144.033 17.5002 145.288 14.4052 147.524 12.1187C149.759 9.83207 152.793 8.54006 155.962 8.52527C159.131 8.51049 162.176 9.77413 164.432 12.0398C166.688 14.3054 167.971 17.3885 168 20.6147V20.8384ZM150.604 20.8384C150.606 21.9509 150.932 23.0379 151.541 23.9616C152.15 24.8854 153.014 25.6045 154.024 26.0279C155.035 26.4513 156.146 26.56 157.217 26.3403C158.288 26.1205 159.271 25.5822 160.042 24.7933C160.812 24.0045 161.336 23.0007 161.546 21.909C161.756 20.8172 161.643 19.6865 161.222 18.66C160.8 17.6335 160.089 16.7574 159.179 16.1424C158.268 15.5275 157.199 15.2014 156.106 15.2054H155.986C154.547 15.2162 153.171 15.8079 152.16 16.8506C151.149 17.8934 150.586 19.302 150.594 20.7672V20.8994L150.604 20.8384Z" fill="url(#paint3_linear_387_190)"/>
<path d="M99.8422 7.68138C102.838 7.68138 105.365 7.68138 107.931 7.68138C110.228 7.68138 111.546 9.02353 111.516 11.1079C111.486 13.1924 110.078 14.4735 107.831 14.504C105.265 14.504 102.688 14.504 99.9221 14.504C99.7922 16.6983 99.7922 18.8985 99.9221 21.0928C100.05 22.0807 100.428 23.0176 101.02 23.8113C101.611 24.605 102.396 25.2281 103.296 25.6191C104.196 26.0101 105.181 26.1556 106.153 26.0412C107.125 25.9268 108.051 25.5565 108.84 24.9667C109.839 24.3058 111.197 23.6042 112.185 23.8381C112.77 24.032 113.3 24.3673 113.73 24.8154C114.159 25.2634 114.476 25.8107 114.652 26.4106C114.681 27.0636 114.574 27.7156 114.339 28.3237C114.103 28.9317 113.743 29.4822 113.284 29.9388C109.539 33.3654 105.165 33.7721 100.661 31.8504C98.532 31.0296 96.6926 29.5793 95.3793 27.6858C94.066 25.7924 93.3388 23.5424 93.2911 21.225C92.9915 15.3073 93.1712 9.35907 93.2212 3.43121C93.2023 2.54811 93.5262 1.69304 94.1226 1.05155C94.719 0.410055 95.5398 0.0338795 96.4069 0.00464487C97.2775 0.00297228 98.1159 0.339888 98.7507 0.946536C99.3855 1.55318 99.7688 2.38376 99.8222 3.26853C99.9421 4.63102 99.8422 6.01385 99.8422 7.68138Z" fill="url(#paint4_linear_387_190)"/>
<path d="M78.5908 14.0972C78.5908 11.0469 78.5908 7.93552 78.5908 4.84449C78.5908 1.92632 79.7592 0.289294 81.8164 0.238455C83.8737 0.187615 85.102 1.82464 85.112 4.73265C85.112 10.8334 85.112 16.9341 85.112 23.0348C85.112 24.9972 85.6213 26.2377 87.7584 26.4715C88.1582 26.4883 88.5506 26.5863 88.9125 26.76C89.2745 26.9337 89.5986 27.1794 89.8657 27.4827C90.1329 27.7859 90.3376 28.1406 90.468 28.5258C90.5983 28.9109 90.6515 29.3188 90.6245 29.7252C90.6294 29.7997 90.6294 29.8745 90.6245 29.9489C90.6245 31.7283 89.0666 32.9485 87.0893 32.9993C82.5455 33.0603 78.8005 29.0847 78.6408 23.8482C78.5409 20.6148 78.6408 17.3713 78.6408 14.1379L78.5908 14.0972Z" fill="url(#paint5_linear_387_190)"/>
<path d="M70.6516 13.782C70.6516 16.8324 70.6516 19.9437 70.6516 23.0347C70.6516 24.9768 71.1709 26.2275 73.328 26.4511C73.7304 26.4664 74.1257 26.5642 74.4902 26.7385C74.8547 26.9128 75.181 27.1602 75.4494 27.4658C75.7179 27.7715 75.9231 28.1291 76.0528 28.5173C76.1824 28.9055 76.2339 29.3163 76.2041 29.7252C76.2095 29.7929 76.2095 29.8609 76.2041 29.9286C76.1179 30.81 75.6969 31.6222 75.0309 32.1921C74.3649 32.7619 73.5065 33.0443 72.6389 32.9789C70.488 32.9337 68.4331 32.0634 66.8852 30.542C65.3374 29.0207 64.4106 26.9605 64.2903 24.7735C64.1205 17.7576 64.1904 10.7418 64.2903 3.73615C64.2382 2.86433 64.5273 2.007 65.0944 1.35157C65.6614 0.696143 66.4602 0.295927 67.3162 0.238409H67.3861C67.7979 0.226218 68.2081 0.296781 68.5931 0.446063C68.9781 0.595346 69.3305 0.820422 69.6301 1.10843C69.9296 1.39643 70.1705 1.74172 70.3389 2.12456C70.5074 2.5074 70.6 2.92028 70.6117 3.33961C70.6167 3.42765 70.6167 3.51592 70.6117 3.60397C70.7115 6.98987 70.6117 10.3859 70.6117 13.7718L70.6516 13.782Z" fill="url(#paint6_linear_387_190)"/>
<defs>
<linearGradient id="paint0_linear_387_190" x1="16.645" y1="29.3592" x2="16.645" y2="-0.1784" gradientUnits="userSpaceOnUse">
<stop stop-color="#0CB27C"/>
<stop offset="1" stop-color="#1DCD6E"/>
</linearGradient>
<linearGradient id="paint1_linear_387_190" x1="49.1207" y1="29.3592" x2="49.1207" y2="-0.178405" gradientUnits="userSpaceOnUse">
<stop stop-color="#0CB27C"/>
<stop offset="1" stop-color="#1DCD6E"/>
</linearGradient>
<linearGradient id="paint2_linear_387_190" x1="129.052" y1="29.3592" x2="129.052" y2="-0.178465" gradientUnits="userSpaceOnUse">
<stop stop-color="#0CB27C"/>
<stop offset="1" stop-color="#1DCD6E"/>
</linearGradient>
<linearGradient id="paint3_linear_387_190" x1="156.066" y1="29.3591" x2="156.066" y2="-0.17854" gradientUnits="userSpaceOnUse">
<stop stop-color="#0CB27C"/>
<stop offset="1" stop-color="#1DCD6E"/>
</linearGradient>
<linearGradient id="paint4_linear_387_190" x1="103.867" y1="29.3593" x2="103.867" y2="-0.178377" gradientUnits="userSpaceOnUse">
<stop stop-color="#0CB27C"/>
<stop offset="1" stop-color="#1DCD6E"/>
</linearGradient>
<linearGradient id="paint5_linear_387_190" x1="84.5927" y1="29.3592" x2="84.5927" y2="-0.178428" gradientUnits="userSpaceOnUse">
<stop stop-color="#0CB27C"/>
<stop offset="1" stop-color="#1DCD6E"/>
</linearGradient>
<linearGradient id="paint6_linear_387_190" x1="70.1823" y1="29.3592" x2="70.1823" y2="-0.178473" gradientUnits="userSpaceOnUse">
<stop stop-color="#0CB27C"/>
<stop offset="1" stop-color="#1DCD6E"/>
</linearGradient>
</defs>
</svg>
