<svg width="62" height="62" viewBox="0 0 62 62" fill="none" xmlns="http://www.w3.org/2000/svg">
<path fill-rule="evenodd" clip-rule="evenodd" d="M28.9978 0.189371C26.3686 0.773969 24.13 2.21891 22.5029 4.38213C19.8713 7.8806 19.6396 12.8026 21.9266 16.6256C22.2007 17.0837 22.4067 17.473 22.3842 17.4903C22.3619 17.5078 22.0688 17.5942 21.7331 17.6825C21.3973 17.7706 20.7051 18.0018 20.195 18.1962L19.2675 18.5494L18.4631 18.0056C17.0851 17.074 16.4768 16.8937 14.7126 16.8937C13.4061 16.8937 13.0844 16.9344 12.4783 17.177C12.0888 17.3329 11.6218 17.5889 11.4405 17.7461L11.1107 18.0318L11.073 20.5188L11.0351 23.0058L10.6457 23.3281C8.5074 25.0967 6.50136 27.6935 5.36965 30.1576L4.88383 31.2154L3.34628 31.2203C1.97795 31.2247 1.74963 31.2567 1.27065 31.5117C0.974691 31.6691 0.567746 32.034 0.366288 32.3224L0 32.8467V37.4215C0 41.8222 0.00976769 42.0151 0.255058 42.4888C0.395346 42.7596 0.743197 43.1474 1.02817 43.3505C1.53279 43.7103 1.58871 43.7209 3.19549 43.7603L4.84476 43.8008L5.15049 44.4989C6.07744 46.6158 7.7979 49.0069 9.71773 50.8462L10.9886 52.0639L11.0522 55.4009C11.1115 58.5092 11.1343 58.7783 11.3858 59.3276C11.7875 60.205 12.7538 61.1687 13.6476 61.5832C14.3867 61.9259 14.4718 61.9366 16.7796 61.9794C19.4154 62.0282 20.2979 61.9157 21.2188 61.4131C22.3551 60.793 23.2591 59.4672 23.449 58.1423C23.5331 57.5556 23.54 57.5479 23.9158 57.6167C26.5317 58.0954 31.5291 58.0197 34.3395 57.4589L34.8584 57.3554V57.7567C34.8584 57.9774 34.974 58.5354 35.1153 58.9966C35.3366 59.7191 35.4855 59.9495 36.1888 60.6586C37.3784 61.8581 37.8966 62 41.0853 62C43.1654 62 43.6093 61.9657 44.2775 61.7528C45.4873 61.3675 46.4154 60.525 46.9885 59.2918C47.2299 58.7725 47.2483 58.4998 47.2853 54.9218L47.3247 51.1057L48.2741 50.1209C49.9361 48.3971 50.841 47.1342 51.8147 45.1799C52.9469 42.9075 53.5062 40.7449 53.6252 38.1803L53.6937 36.7031L54.283 36.7455C55.0275 36.7989 55.9349 36.4998 56.6077 35.9792C57.1161 35.5856 57.1345 35.5816 57.6216 35.7528C58.6351 36.1092 59.9703 35.7247 60.7238 34.8596C61.2929 34.2061 61.1832 33.3672 60.4808 33.0009C59.9945 32.7474 59.625 32.7839 59.1574 33.1318C58.9309 33.3003 58.7287 33.4211 58.7081 33.4004C58.6876 33.3796 58.7348 33.0539 58.8133 32.6767C59.2374 30.6389 57.8067 29.0038 56.0368 29.5033C55.4037 29.6821 54.7036 30.3438 54.5047 30.9516C54.3054 31.5602 54.4445 32.6311 54.8165 33.3541C55.1862 34.0725 55.0919 34.3027 54.4277 34.3027C53.8625 34.3027 53.2453 33.6893 53.0574 32.9412C52.5223 30.8101 51.1533 27.9038 49.8715 26.1782C48.2031 23.9317 46.0713 22.0036 43.6225 20.5258C42.5614 19.8855 40.1839 18.7547 39.5746 18.6006C39.3981 18.5559 39.2538 18.4935 39.2538 18.4618C39.2538 18.4301 39.5012 18.0802 39.8034 17.6841C40.558 16.6954 41.2445 15.3611 41.6397 14.1145C42.0753 12.7406 42.1961 10.2495 41.8977 8.79473C41.0382 4.60457 38.0636 1.42935 33.9426 0.302869C32.6523 -0.0498102 30.3148 -0.103481 28.9978 0.189371ZM33.3172 2.66231C36.0525 3.36767 38.3736 5.52732 39.2491 8.18146C40.4526 11.8302 39.0964 15.8879 35.9742 17.9808C34.4409 19.0084 33.0683 19.4247 31.1983 19.4291C23.6998 19.447 19.9645 10.3092 25.2725 4.93213C26.9144 3.2687 28.8737 2.45095 31.2675 2.42977C32.0006 2.42337 32.6964 2.50228 33.3172 2.66231ZM30.4184 3.29061C30.2129 3.45359 30.0699 3.71456 30.0225 4.01332L29.9484 4.48097L29.2455 4.54523C26.868 4.7625 25.1781 6.89248 25.6928 9.02308C26.0161 10.3614 27.0271 11.2545 28.6029 11.5935C29.1223 11.7053 29.6433 11.8233 29.7609 11.856C29.9491 11.9083 29.9745 12.0899 29.9745 13.3841V14.8531H29.6654C28.9173 14.8531 28.021 14.1996 28.021 13.6543C28.021 13.2648 27.7072 12.6743 27.4172 12.5179C26.6414 12.0992 25.5791 12.6834 25.5791 13.5288C25.5791 15.3168 27.2656 17.0378 29.2382 17.2628C29.943 17.3432 29.9484 17.3469 30.02 17.7982C30.2418 19.1969 32.1489 19.1987 32.3707 17.8004C32.4396 17.3659 32.4691 17.3424 33.1314 17.1939C34.1404 16.9677 34.8725 16.549 35.5113 15.8327C36.6152 14.5948 36.743 13.0526 35.8581 11.6482C35.2833 10.736 34.7227 10.4384 32.7522 9.99926L32.4165 9.92441V8.44957C32.4165 6.85592 32.4229 6.84288 33.0847 7.09658C33.5322 7.26806 34.0037 7.81794 34.0037 8.16828C34.0037 9.48089 35.7161 9.90312 36.2697 8.72691C36.9726 7.23347 35.0916 4.84892 32.9803 4.55717C32.4857 4.48885 32.4313 4.44688 32.3632 4.08041C32.1901 3.1499 31.1358 2.72177 30.4184 3.29061ZM29.9745 8.1524C29.9745 9.33342 29.9549 9.44741 29.7609 9.39004C29.6433 9.35521 29.3407 9.28984 29.0882 9.24466C28.4222 9.12563 28.021 8.76519 28.021 8.28572C28.021 7.48459 28.5654 7.0695 29.883 6.86577C29.9333 6.85802 29.9745 7.43695 29.9745 8.1524ZM33.5764 12.7506C33.9948 12.9864 34.1286 13.5875 33.871 14.073C33.7274 14.3434 32.8716 14.8531 32.561 14.8531C32.4593 14.8531 32.4165 14.4891 32.4165 13.6251V12.3972L32.8133 12.4707C33.0316 12.5112 33.3749 12.6371 33.5764 12.7506ZM16.3641 19.5196C16.6646 19.6537 17.2009 20.0402 17.5559 20.3787C18.4892 21.2686 18.6899 21.3192 19.7543 20.9323C20.2382 20.7564 21.0092 20.4765 21.4675 20.3103C21.926 20.1442 22.7866 19.9014 23.3801 19.7707L24.4593 19.5333L25.1107 19.9761C26.8026 21.1258 28.5938 21.7313 30.613 21.8362C32.6483 21.942 34.2745 21.6027 36.1558 20.6798L37.0257 20.253L37.9467 20.5647C44.1635 22.6689 48.6364 26.9939 50.481 32.6852C51.8127 36.7939 51.3711 41.2546 49.2741 44.8747C48.0459 46.9948 45.9885 49.2335 43.588 51.0617C42.0972 52.197 42.0065 52.3035 42.0065 52.9189C42.0065 53.3154 42.0817 53.4759 42.4025 53.7649C42.9456 54.2542 43.3417 54.2241 44.1839 53.6293C44.5673 53.3584 44.9103 53.1369 44.9458 53.1369C44.9815 53.1369 44.9928 54.2309 44.971 55.5681C44.9266 58.2824 44.8487 58.5754 44.0214 59.1376C43.6313 59.4026 43.5035 59.4149 41.1463 59.4149C38.7891 59.4149 38.6615 59.4026 38.2758 59.1379C37.4774 58.5902 37.3676 58.3165 37.3003 56.7081C37.2452 55.3928 37.211 55.219 36.9529 54.942C36.5579 54.5183 36.1921 54.4548 35.3753 54.668C32.8755 55.3205 28.8788 55.622 26.1896 55.3608C23.3789 55.0877 21.8046 54.6703 19.0056 53.4556C17.7507 52.911 17.3742 52.8963 16.9009 53.3736C16.421 53.8574 16.413 54.4678 16.8798 54.9751C17.194 55.3167 18.7645 56.0596 20.4205 56.65L21.0615 56.8785V57.513C21.0615 58.2649 20.7335 58.8392 20.0844 59.2236C19.6931 59.4553 19.4584 59.4765 17.2766 59.4765C14.6277 59.4765 14.3815 59.4171 13.837 58.6474C13.5583 58.2534 13.5514 58.1735 13.4916 54.5651L13.4305 50.8846L12.759 50.322C11.4281 49.2068 9.50443 47.1506 8.82826 46.1202C8.11168 45.0285 7.15323 43.1763 6.9105 42.4146C6.83285 42.1706 6.62919 41.8382 6.45802 41.676C6.16193 41.3951 6.0562 41.3791 4.26383 41.3415L2.38087 41.302V37.5056V33.7092L4.26371 33.6675C6.422 33.6195 6.56522 33.5564 6.96154 32.478C7.37312 31.3585 8.51338 29.2799 9.27611 28.2588C10.0337 27.2447 11.61 25.6288 12.8201 24.6259L13.4305 24.12L13.4916 21.734L13.5526 19.3481L13.9189 19.2619C14.5091 19.123 15.7737 19.2563 16.3641 19.5196ZM28.0916 22.371C26.3587 22.5498 24.0066 22.9636 23.6417 23.1539C22.9615 23.5084 22.8296 24.3647 23.3624 24.966C23.7889 25.4472 23.9519 25.4545 26.2527 25.0945C30.5558 24.4215 34.7166 24.5269 37.5044 25.3798C38.3707 25.6447 38.7095 25.6096 39.1542 25.209C39.6096 24.7987 39.682 24.2022 39.3401 23.6762C39.0952 23.2993 37.8688 22.8737 36.0793 22.5445C34.7224 22.295 29.8534 22.1893 28.0916 22.371ZM13.028 29.3278C12.0434 29.8225 11.5136 30.7531 11.5136 31.9883C11.5136 34.1583 13.7338 35.0467 15.2763 33.4939C16.5459 32.2157 16.437 30.04 15.0643 29.2622C14.4626 28.9212 13.7944 28.9427 13.028 29.3278ZM43.8052 32.0836C43.1733 32.472 43.1417 32.9479 43.6534 34.3643C43.8925 35.026 43.9137 35.2694 43.8573 36.7031C43.7858 38.5232 43.5623 39.4403 42.7999 41.0435C42.1834 42.3398 41.768 42.9438 40.7812 43.9787C40.0808 44.7132 39.9864 44.869 39.9864 45.291C39.9864 45.9417 40.5121 46.4895 41.1365 46.4895C41.5946 46.4895 42.0932 46.121 43.0317 45.0884C45.4527 42.4248 46.8427 37.6604 46.1543 34.3846C45.7067 32.2548 44.8661 31.4314 43.8052 32.0836ZM36.3261 46.63C35.5728 46.9254 35.2797 47.6676 35.6602 48.3168C36.1652 49.1786 37.4137 49.1257 37.7829 48.2268C38.1718 47.2803 37.2484 46.2682 36.3261 46.63Z" fill="#FCB900"/>
</svg>
