<svg width="51" height="52" viewBox="0 0 51 52" fill="none" xmlns="http://www.w3.org/2000/svg">
<path fill-rule="evenodd" clip-rule="evenodd" d="M21.5553 0.135024C21.0301 0.320114 20.5309 0.757544 20.2878 1.24577C20.0673 1.68828 20.067 1.70575 20.067 12.5066V23.3243L20.3318 23.8408C20.6375 24.4371 21.1579 24.8298 21.8439 24.9819C22.1248 25.0442 24.096 25.0872 26.7356 25.0888C30.4151 25.0908 31.2065 25.0663 31.4525 24.9426C31.9286 24.7034 32.0352 24.1264 31.6691 23.7706C31.4663 23.5735 31.3207 23.5674 26.8229 23.5674C22.2898 23.5674 22.1795 23.5626 21.9103 23.3568L21.6349 23.1463V12.5379C21.6349 2.06496 21.6376 1.9269 21.8439 1.72637C22.0447 1.53123 22.1923 1.5232 25.6015 1.5232H29.1502L29.1814 5.86601C29.2108 9.93525 29.2253 10.2267 29.4112 10.4934C29.6627 10.8539 30.0941 11.0723 30.555 11.0723C30.8187 11.0723 31.1693 10.9098 31.8697 10.4628C32.3949 10.1276 32.875 9.85327 32.9364 9.85327C32.9978 9.85327 33.4551 10.1114 33.9526 10.4269C35.0138 11.0999 35.4969 11.2031 36.0392 10.8725C36.5947 10.5338 36.6862 10.1762 36.6862 8.34644C36.6862 6.86643 36.6681 6.70918 36.4695 6.46385C36.1981 6.12841 35.6387 6.09682 35.3274 6.39934C35.139 6.5825 35.1184 6.73793 35.1184 7.97769V9.35296L34.5174 8.95748C33.1247 8.04107 32.8597 8.02005 31.7315 8.73582C31.2912 9.01519 30.8854 9.24375 30.8297 9.24375C30.7661 9.24375 30.7284 7.80712 30.7284 5.38348V1.5232H32.9234H35.1184V2.54577C35.1184 3.10815 35.1682 3.65885 35.2293 3.76968C35.4976 4.25689 36.3265 4.21107 36.5681 3.69562C36.6331 3.55716 36.6862 3.01164 36.6862 2.48349V1.5232H40.2167C43.243 1.5232 43.7804 1.54575 43.9795 1.68137L44.2119 1.83944L44.2103 12.4749C44.2094 18.3243 44.1741 23.1606 44.1319 23.222C43.91 23.545 43.5761 23.5674 39.0001 23.5674H34.4019L34.1853 23.8351C33.9363 24.1426 33.9212 24.2694 34.0904 24.6302C34.1671 24.794 34.3505 24.9296 34.5869 24.9972C34.833 25.0677 36.54 25.0935 39.5606 25.0725L44.1596 25.0404L44.6584 24.7555C44.9328 24.5987 45.2855 24.2821 45.4423 24.0518L45.7275 23.6331L45.755 12.6275C45.7818 1.88048 45.7776 1.6128 45.5782 1.23276C45.3119 0.725443 44.7361 0.240775 44.2408 0.107088C43.6495 -0.0525044 22.0118 -0.0258888 21.5553 0.135024ZM24.4038 13.0903C23.8769 13.323 23.3517 13.8971 23.209 14.3965C23.0617 14.912 23.0635 20.3436 23.2112 20.8602C23.3577 21.3735 24.0734 22.063 24.6259 22.2234C25.1765 22.3833 30.5978 22.3966 31.18 22.2395C31.713 22.0956 32.3498 21.5198 32.5559 20.9955C32.6989 20.6316 32.7187 20.1107 32.6926 17.4042L32.6621 14.2385L32.3485 13.8061C32.176 13.5682 31.8277 13.2672 31.5743 13.1372C31.1213 12.9048 31.0614 12.9009 27.9682 12.9031C25.152 12.9051 24.779 12.9246 24.4038 13.0903ZM30.9553 14.5928C31.132 14.7481 31.1465 14.9796 31.1465 17.6346C31.1465 20.489 31.1449 20.5094 30.9141 20.6664C30.7179 20.8 30.2471 20.8246 27.883 20.8246C25.2235 20.8246 25.0737 20.8144 24.8751 20.6214C24.6763 20.4282 24.666 20.2828 24.666 17.6473C24.666 15.3037 24.6911 14.8414 24.8288 14.6505C24.9902 14.4264 25.0136 14.4247 27.8778 14.4247C30.4169 14.4247 30.7872 14.4449 30.9553 14.5928ZM25.9532 15.6444C25.4696 15.8338 25.3554 16.49 25.7441 16.845C25.9747 17.0555 26.0777 17.0659 27.9391 17.0659C29.7529 17.0659 29.9072 17.0514 30.1012 16.8627C30.4125 16.5602 30.38 16.0165 30.0349 15.7527C29.7797 15.5576 29.6277 15.5426 27.9705 15.5485C26.9867 15.5521 26.0789 15.5952 25.9532 15.6444ZM25.9726 18.1955C25.464 18.4744 25.3497 19.0018 25.7154 19.3832C25.9201 19.5968 26.0061 19.6056 27.9103 19.6056C29.7529 19.6056 29.9069 19.5912 30.1012 19.4024C30.3828 19.1287 30.3774 18.5786 30.0906 18.3261C29.8946 18.1535 29.6713 18.1298 28.0263 18.1067C26.8028 18.0897 26.1112 18.1195 25.9726 18.1955ZM44.2272 26.7187C43.6325 26.8395 42.9754 27.2202 42.5305 27.7015C42.334 27.9141 41.1233 29.5622 39.84 31.3642C37.984 33.9701 37.4601 34.6401 37.2794 34.6394C37.1544 34.639 36.8124 34.6105 36.5194 34.5763L35.9867 34.5141L36.3533 33.8198C36.6716 33.2168 36.7203 33.0279 36.7235 32.3845C36.7314 30.7906 35.8223 29.4716 34.3842 28.9901C33.9069 28.8303 22.7541 27.1428 21.5718 27.0516C20.6704 26.982 19.5397 27.2038 18.7082 27.6132C18.392 27.7689 16.8488 28.7771 15.2787 29.8536L12.4242 31.8109L11.9856 31.3531C11.7444 31.1014 11.4149 30.8466 11.2534 30.7869C10.8893 30.6523 10.1334 30.6463 9.78445 30.7753C9.29717 30.9554 0.612857 37.0067 0.336602 37.3588C-0.0103101 37.8008 -0.110234 38.7248 0.136859 39.2061C0.226017 39.3799 2.2776 42.2368 4.69595 45.5547C8.67954 51.0204 9.13526 51.6073 9.54363 51.7996C10.1008 52.0617 10.6873 52.0668 11.2348 51.8142C11.4648 51.7081 13.627 50.2577 16.04 48.5911C20.9013 45.2332 20.8986 45.2357 20.9011 44.1894C20.902 43.8081 20.8362 43.5252 20.6937 43.2981C20.579 43.1151 20.4851 42.927 20.4851 42.88C20.4851 42.748 21.8566 42.1827 22.8671 41.898C24.9471 41.3122 24.9608 41.3114 32.6621 41.3024L39.7696 41.2942L40.6581 41.003C41.1467 40.8427 41.8052 40.5847 42.1214 40.4296C42.8304 40.0819 49.4432 35.5748 49.9958 35.0627C50.6361 34.4693 50.9292 33.8133 50.9838 32.8512C51.0256 32.1151 50.9999 31.9607 50.7428 31.4039C50.5687 31.0268 50.2722 30.6169 49.9925 30.3663C49.5264 29.9487 48.8059 29.5674 48.4753 29.5632C48.3536 29.5617 48.2589 29.4228 48.1793 29.1293C47.7187 27.4313 45.9701 26.3648 44.2272 26.7187ZM45.4767 28.2545C45.8988 28.3918 46.2668 28.6956 46.4691 29.0734C46.6858 29.4783 46.651 29.6238 46.3042 29.7634C46.1328 29.8324 44.6395 30.8166 42.9856 31.9506C41.3318 33.0845 39.9627 33.9972 39.9433 33.9787C39.8938 33.9316 43.4447 28.9535 43.7327 28.6659C43.9641 28.4352 44.6257 28.152 44.9541 28.1433C45.0461 28.1408 45.2813 28.1908 45.4767 28.2545ZM27.6562 29.4496C31.1794 29.974 33.8612 30.4195 34.0427 30.5108C34.5022 30.7417 34.9884 31.327 35.1223 31.8102C35.352 32.6392 34.8837 33.6289 34.0713 34.0317C33.574 34.2783 33.1626 34.2837 30.6398 34.0774C29.5868 33.9913 28.6346 33.9488 28.5237 33.9829C28.2421 34.0699 27.9913 34.5804 28.0737 34.8993C28.1107 35.0426 28.2411 35.2231 28.3633 35.3002C28.5155 35.3963 29.9873 35.5569 33.0279 35.8092C39.506 36.3467 38.9783 36.3239 39.5148 36.0893C39.77 35.9778 41.5516 34.8066 43.4738 33.4867C45.6602 31.9856 47.0986 31.0632 47.3151 31.0237C48.4269 30.821 49.4368 31.5887 49.4376 32.6372C49.4381 33.3074 49.2292 33.732 48.6928 34.1502C47.4919 35.0864 41.8652 38.8352 41.1862 39.1515C39.6825 39.8519 39.5733 39.8601 32.6841 39.7932C29.0606 39.758 26.1228 39.7732 25.5243 39.8303C23.8061 39.9942 21.3185 40.6726 19.9526 41.3499C19.5911 41.5291 19.4952 41.5427 19.3855 41.4299C19.2027 41.2419 13.2695 33.0843 13.3003 33.0633C13.3141 33.0539 14.5952 32.1783 16.1474 31.1174C17.6996 30.0564 19.0871 29.127 19.2308 29.052C19.7063 28.8034 20.6348 28.5561 21.1123 28.5508C21.371 28.548 24.3157 28.9524 27.6562 29.4496ZM15.0457 38.1401C17.405 41.3779 19.3354 44.1217 19.3354 44.2372C19.3354 44.387 19.0534 44.6399 18.3513 45.1196L17.3671 45.7919L12.9524 39.7345C10.5244 36.4028 8.53321 33.6216 8.52756 33.554C8.51126 33.3604 10.2589 32.2011 10.5251 32.229C10.701 32.2472 11.7781 33.6557 15.0457 38.1401ZM11.6477 40.5788C14.0891 43.9288 16.0767 46.6781 16.0647 46.6883C15.8379 46.8826 10.7445 50.3411 10.5692 50.4199C10.3572 50.5153 10.2894 50.4947 10.0958 50.276C9.44496 49.5405 1.56642 38.5951 1.56642 38.4262C1.56642 38.2828 2.25554 37.7531 4.04885 36.5183C5.41423 35.5783 6.64886 34.7269 6.79258 34.6265C6.9363 34.5261 7.0888 34.4539 7.13144 34.466C7.17399 34.4781 9.20633 37.2288 11.6477 40.5788Z" fill="#56A409"/>
</svg>
