<svg width="134" height="38" viewBox="0 0 134 38" fill="none" xmlns="http://www.w3.org/2000/svg">
<path d="M81.6072 21.3609C81.4558 20.806 81.3654 20.2365 81.3377 19.6623V8.36858H85.9188V30.125L71.2564 18.1323C70.7761 17.7269 70.3558 17.2571 70.0078 16.7364C70.1437 17.2303 70.2211 17.7381 70.2383 18.2496V29.6341H65.6572V7.9624L80.186 19.7165C80.7285 20.2036 81.207 20.7561 81.6102 21.3609H81.6072Z" fill="#828F99"/>
<path d="M123.081 8.3689C130.335 8.3689 132.196 11.1953 132.196 15.2589C132.196 18.2075 130.001 21.0872 125.574 21.4312L125.088 21.4539C125.421 21.5385 125.724 21.7117 125.964 21.9547L134 29.6334H127.787L116.57 18.382H122.159C127.161 18.382 127.305 15.7794 127.342 15.1179C127.435 13.4322 126.888 12.0786 123.07 12.0786H116.683V29.6324H111.92V8.3689H123.081Z" fill="#828F99"/>
<path d="M87.9844 19.3057C87.9844 10.3957 95.5347 8.05728 101.879 8.05728C104.284 8.04249 106.683 8.2831 109.035 8.77497L109.044 13.2931C106.738 12.4959 104.322 12.0514 101.879 11.975C95.865 11.975 92.9438 14.2819 92.9438 19.3057C92.9438 23.4206 96.0916 26.0399 101.879 26.0399C104.473 26.02 107.047 25.5938 109.506 24.7771L109.499 29.1581C106.993 29.6782 104.44 29.946 101.879 29.9577C95.1015 29.9577 87.9844 26.7044 87.9844 19.3057Z" fill="#828F99"/>
<path d="M36.4412 8.91675L40.9065 13.0711C40.7858 13.1253 40.646 13.1913 40.4814 13.2751C40.1574 13.4419 39.8447 13.6293 39.5452 13.8361C38.4767 14.5973 37.4961 15.472 36.6209 16.4446L27.8929 25.5695C26.636 26.9724 25.1344 28.1411 23.4595 29.0199L18.9932 24.8646C19.1149 24.8094 19.2556 24.7454 19.4183 24.6606C19.7423 24.4944 20.0544 24.3067 20.3525 24.0986C21.4211 23.338 22.4018 22.4636 23.2769 21.4911L32.0039 12.381C33.2622 10.9734 34.7653 9.7995 36.4422 8.91479L36.4412 8.91675Z" fill="#57AC33"/>
<path d="M19.1498 30.9759C20.8797 31.0188 22.5966 30.6701 24.169 29.9565C24.8914 29.5736 25.5801 29.1318 26.228 28.6355C27.1102 27.9542 27.942 27.2117 28.7171 26.4134L37.4552 17.3151C39.6579 15.0211 40.9833 14.3142 41.7857 14.0343L46.269 18.228C45.3328 19.2139 34.1775 30.9522 34.1775 30.9522C33.415 31.7616 32.6146 32.5443 32.0706 33.0402C31.5477 33.5154 30.6524 34.2232 30.1893 34.5604C27.0511 36.8477 23.24 38.0553 19.3404 37.998C8.6492 37.998 0 29.4005 0 19.5017C0 7.22113 9.71411 0.0945113 18.5639 0.0945113C20.8059 0.0135506 23.0442 0.334881 25.1701 1.04289C26.4315 1.48734 27.6556 2.02927 28.8309 2.66362C27.4741 3.59822 26.2415 4.6975 25.162 5.93562L23.3706 7.83632C21.8986 7.31771 20.3416 7.07464 18.7795 7.1196C17.2042 7.15993 15.6524 7.50696 14.2131 8.14075C12.7739 8.77455 11.4754 9.68266 10.392 10.8131C9.30873 11.9435 8.46192 13.2739 7.90013 14.7282C7.33833 16.1824 7.0726 17.7319 7.11817 19.2878C7.19581 22.3976 8.49482 25.3556 10.7405 27.5365C12.9862 29.7173 16.0026 30.95 19.1518 30.9739L19.1498 30.9759Z" fill="#57AC33"/>
<path d="M35.6723 8.0434C34.9503 8.42736 34.2616 8.86954 33.6133 9.36541C32.7314 10.0459 31.9002 10.7882 31.1261 11.5865L22.3861 20.6848C20.1834 22.9788 18.86 23.6857 18.0555 23.9647L13.5723 19.7749C14.5094 18.789 25.6647 7.04868 25.6647 7.04868C26.4273 6.23931 27.2267 5.45655 27.7697 4.96067C28.2926 4.48352 29.1899 3.77767 29.653 3.43952C32.7922 1.15271 36.6037 -0.0547925 40.5039 0.00190949C51.1951 0.00190949 59.8432 8.59941 59.8432 18.4972C59.8432 30.7808 50.1291 37.9044 41.2794 37.9044C39.0373 37.9869 36.7987 37.6655 34.6732 36.956C33.4093 36.5102 32.1823 35.9679 31.0034 35.3343C32.3581 34.3961 33.5925 33.2987 34.6792 32.0663L36.4757 30.1636C37.9475 30.6827 39.5046 30.9254 41.0668 30.8793C42.6419 30.8386 44.1934 30.4913 45.6324 29.8572C47.0714 29.2232 48.3696 28.315 49.4526 27.1845C50.5356 26.054 51.3822 24.7236 51.9437 23.2694C52.5053 21.8152 52.7708 20.2659 52.7251 18.7102C52.6467 15.6005 51.3471 12.6428 49.1011 10.4623C46.8551 8.28188 43.8386 7.0496 40.6895 7.026C38.9601 6.9826 37.2436 7.33062 35.6713 8.0434H35.6723Z" fill="#57AC33"/>
</svg>
