<svg width="48" height="66" viewBox="0 0 48 66" fill="none" xmlns="http://www.w3.org/2000/svg">
<path fill-rule="evenodd" clip-rule="evenodd" d="M22.2376 0.0257184C18.3261 0.588395 15.6798 1.81088 13.0786 4.25663C12.5497 4.75378 12.0325 5.32252 11.9291 5.52039C11.7001 5.95872 11.806 6.46361 12.1816 6.72392C12.7172 7.09529 13.0296 6.96166 14.2052 5.85823C17.9516 2.34208 22.9266 1.09767 27.7356 2.47405C33.9971 4.26605 37.9414 9.42327 37.9414 15.8182V17.3931L37.5831 17.3095C37.386 17.2636 36.9608 17.1906 36.6382 17.1472C35.3783 16.9783 34.5206 15.8124 34.2253 13.8672C34.0472 12.6938 33.9953 12.5722 33.3867 11.9015C32.6442 11.0832 31.8955 10.9876 29.0795 11.3515C25.7365 11.7835 21.845 11.7402 17.889 11.2269C16.0237 10.9849 15.3011 11.1379 14.5804 11.9273C14.0678 12.489 13.8915 12.9552 13.7755 14.0552C13.6058 15.6653 12.5826 16.9917 11.3857 17.1527C11.0466 17.1983 10.6079 17.2711 10.4109 17.3144L10.0525 17.3931L10.0535 16.1849C10.0552 14.3056 10.2809 12.7824 10.7742 11.3238C11.0223 10.5895 11.2254 9.85089 11.2254 9.68216C11.2254 9.04273 10.2873 8.61395 9.75599 9.01061C9.43149 9.25287 8.90733 10.5325 8.53344 11.9956C8.24165 13.137 8.19265 13.6455 8.14078 16.0731C8.08383 18.7366 8.06832 18.8711 7.75059 19.4684C7.55772 19.8307 7.3926 20.3961 7.3548 20.8228C7.1979 22.595 8.65008 24.461 10.5881 24.9776L11.0951 25.1127V25.8291C11.0951 26.8944 11.5705 29.0059 12.0918 30.2564C13.0316 32.5108 14.9987 34.8151 17.0561 36.0715L17.9999 36.6478L18.001 37.4313L18.0021 38.215L16.7315 39.0763L15.4609 39.9377L11.228 41.1761C8.89991 41.857 6.64416 42.5897 6.215 42.8041C5.7826 43.0202 5.07938 43.5462 4.63745 43.9841C3.24613 45.3632 3.20339 45.4993 1.50294 53.9698C0.481867 59.0555 0.005668 61.7065 0.00019446 62.3353C-0.0133591 63.8975 0.681781 65.0303 2.02228 65.6309C2.68366 65.9272 2.73879 65.93 8.6158 65.9681C13.0172 65.9968 14.617 65.9671 14.8324 65.8529C15.2023 65.657 15.396 65.1218 15.244 64.7153C15.0235 64.1254 14.8035 64.0678 12.7567 64.0634L10.8344 64.0593V59.3089V54.5587L10.5328 54.2781C10.1605 53.932 9.65864 53.9187 9.25243 54.2442L8.94474 54.4907L8.90759 59.275L8.87045 64.0593L6.10566 64.052C4.31686 64.0473 3.1841 63.9904 2.897 63.8908C2.23679 63.6618 1.93457 63.1789 1.93848 62.3591C1.9433 61.3407 4.78928 47.3683 5.15366 46.5745C5.9021 44.9437 6.67061 44.5217 11.379 43.1555C13.3374 42.5874 15.0052 42.0999 15.0854 42.0723C15.1722 42.0424 15.5875 43.0228 16.1117 44.4948C17.1642 47.4504 17.2447 47.6168 17.7805 47.9402C18.5894 48.4287 18.8722 48.3997 20.863 47.6239C21.8805 47.2273 22.7379 46.9029 22.7685 46.9029C22.799 46.9029 22.8241 48.7643 22.8241 51.0393C22.8241 53.4405 22.8766 55.2728 22.9494 55.4074C23.0184 55.5349 23.247 55.7098 23.4573 55.7961C23.772 55.9251 23.9087 55.9176 24.2284 55.7541C24.4421 55.6447 24.6534 55.4612 24.698 55.3463C24.7424 55.2315 24.7789 53.2625 24.7789 50.9708V46.8041L26.5057 47.4455C29.0166 48.3782 29.1714 48.4078 29.892 48.0924C30.2215 47.948 30.5866 47.6857 30.7033 47.5093C30.8639 47.2668 32.7286 42.3459 32.7286 42.1648C32.7286 41.9834 39.826 44.0189 40.7896 44.4765C42.2248 45.1581 42.9053 46.2425 43.4128 48.6561C43.8233 50.6075 44.0175 50.9447 44.7312 50.9447C45.3773 50.9447 45.6797 50.4927 45.5796 49.677C45.4263 48.4261 44.844 46.1882 44.4899 45.4887C43.9415 44.4052 42.7153 43.2423 41.5709 42.7204C41.044 42.4801 38.8123 41.7621 36.6113 41.1248L32.6096 39.9662L31.3006 39.0898L29.9918 38.2134L30.0003 37.4306L30.0087 36.6478L31.1202 35.9383C32.3492 35.154 33.952 33.5908 34.7626 32.3862C35.925 30.659 36.7209 28.4089 36.86 26.4572C36.9417 25.3098 37.0619 24.9738 37.3903 24.9738C37.8517 24.9738 39.0317 24.2488 39.6366 23.5938C40.7555 22.3819 40.9769 20.8789 40.2472 19.4486C39.9038 18.7757 39.8963 18.7092 39.8963 16.373C39.8963 13.854 39.7095 12.4962 39.1095 10.6553C37.1044 4.50159 31.1569 0.204119 24.3879 0.0178497C23.4203 -0.00872324 22.4526 -0.00524037 22.2376 0.0257184ZM18.3096 13.2366C21.7658 13.6507 26.0394 13.6284 29.9467 13.1759C31.9663 12.9419 32.1474 13.0043 32.2653 13.9745C32.4937 15.8575 32.9755 16.8815 34.1644 18.0102L35.0744 18.8741L35.071 21.8917C35.0658 26.5556 34.86 27.9904 33.9167 29.9401C31.883 34.1434 27.2313 36.693 22.7404 36.0657C18.6283 35.4914 15.4337 33.1135 13.8821 29.4719C13.1405 27.7313 13.0499 26.9871 13.0499 22.6374V18.7423L13.8287 18.0445C14.8345 17.1436 15.4638 15.9218 15.6746 14.4607C15.8482 13.2569 16.1076 12.9137 16.7578 13.0283C16.9762 13.0667 17.6745 13.1605 18.3096 13.2366ZM11.0951 21.1039C11.0951 22.3688 11.0477 23.0388 10.9582 23.0388C10.3891 23.0388 9.45808 22.1172 9.32658 21.4236C9.20225 20.7676 9.70204 19.8351 10.3783 19.4613C10.665 19.3029 10.9436 19.1722 10.9973 19.171C11.051 19.1699 11.0951 20.0397 11.0951 21.1039ZM38.386 20.1136C38.7582 20.6117 38.758 21.5967 38.3856 22.0942C38.1122 22.4594 37.3484 23.0388 37.1402 23.0388C37.0791 23.0388 37.0292 22.1637 37.0292 21.0942V19.1496L37.5715 19.4495C37.8698 19.6145 38.2364 19.9133 38.386 20.1136ZM20.8159 37.6768C22.5099 38.1814 25.3905 38.1839 27.255 37.6822C27.6492 37.5761 27.9865 37.4886 28.0044 37.4878C28.0222 37.4869 28.0367 37.704 28.0364 37.97C28.0359 38.398 27.7936 38.7623 25.9325 41.1326C24.0604 43.5167 23.811 43.7863 23.6645 43.5835C23.5739 43.4581 22.7027 42.2528 21.7284 40.9049C20.2081 38.8016 19.957 38.3856 19.957 37.9703C19.957 37.4189 19.9538 37.4201 20.8159 37.6768ZM20.5232 42.5522C21.4303 43.8131 22.1723 44.887 22.1721 44.9386C22.1717 45.0476 18.9376 46.3259 18.8633 46.2465C18.7704 46.1474 17.0899 41.456 17.0946 41.3089C17.1007 41.1176 18.6935 40.0498 18.7957 40.1686C18.8388 40.2187 19.6162 41.2912 20.5232 42.5522ZM30.27 40.7283L31.0043 41.2166L30.1057 43.6956C29.6115 45.0591 29.1799 46.2016 29.1465 46.2347C29.0742 46.3063 25.5524 45.053 25.5189 44.9437C25.4647 44.7675 29.2569 40.0793 29.3911 40.1567C29.4706 40.2025 29.8662 40.4597 30.27 40.7283ZM44.9078 53.7984C44.7319 53.9725 44.588 54.1901 44.5883 54.2821C44.5884 54.3739 44.9103 56.0454 45.3035 57.9965C46.0869 61.8838 46.1604 62.7358 45.767 63.3742C45.3997 63.9705 44.8962 64.0577 41.8185 64.0585L39.1143 64.0593V59.3684C39.1143 54.8179 39.1063 54.6673 38.8442 54.3376C38.6483 54.091 38.454 53.9977 38.1369 53.9977C37.8199 53.9977 37.6255 54.091 37.4297 54.3376C37.1676 54.6673 37.1595 54.8179 37.1595 59.3684V64.0593H27.9242C18.7785 64.0593 18.6855 64.0619 18.3455 64.3267C17.8688 64.6978 17.8706 65.3571 18.3493 65.7298L18.6964 66L32.0006 65.9649L45.3047 65.9297L45.9563 65.6329C47.2802 65.0297 47.9922 63.8752 48 62.319C48.0022 61.8754 47.6806 59.9447 47.2479 57.8043C46.618 54.6882 46.4429 54.0161 46.1975 53.7732C45.8134 53.3931 45.3071 53.403 44.9078 53.7984Z" fill="#9B51E0"/>
</svg>
