<svg width="66" height="66" viewBox="0 0 66 66" fill="none" xmlns="http://www.w3.org/2000/svg">
<path fill-rule="evenodd" clip-rule="evenodd" d="M32.9819 0.159711C30.9604 0.541947 29.2698 1.25509 27.6102 2.42527C25.4678 3.9359 23.7391 6.1852 22.8399 8.63195C22.2354 10.2767 22.1332 10.9206 22.1282 13.116C22.124 14.948 22.1649 15.3963 22.422 16.34C23.0021 18.4694 24.1972 20.6115 25.7027 22.2195L26.4957 23.0666L26.4639 25.5386C26.4464 26.8984 26.4931 28.446 26.5676 28.978C27.1201 32.9226 28.4278 34.939 30.5584 35.132C33.0718 35.3598 34.9196 33.0344 35.1823 29.313C35.2519 28.3288 35.2361 28.2345 34.9447 27.8961C34.7035 27.6159 34.5203 27.5336 34.1374 27.5336C33.3504 27.5336 33.1497 27.8376 32.9568 29.3219C32.5971 32.0891 31.5843 33.4379 30.3607 32.7794C29.7973 32.4763 29.2461 31.3547 28.9358 29.8807C28.6177 28.3693 28.6242 23.1651 28.9469 20.9416C29.2907 18.5728 29.8413 16.5929 30.5646 15.1241C31.3374 13.5548 32.1021 12.6569 33.1331 12.1078C33.5573 11.8817 33.9395 11.6052 33.9826 11.4932C34.2655 10.7564 33.7685 9.8893 33.0665 9.89485C32.6616 9.89807 31.7825 10.2666 31.2122 10.6725C30.892 10.9003 30.8345 10.9099 30.8345 10.7349C30.8345 10.0113 31.6271 9.11013 32.4909 8.85144C33.4202 8.57327 34.6595 9.18235 35.0463 10.1075C35.4518 11.0773 35.1848 11.9461 34.2169 12.8066C33.7081 13.2589 33.622 13.406 33.622 13.8227C33.622 14.1947 33.7062 14.3824 33.9777 14.6158C34.4772 15.0451 34.9489 15.0033 35.6509 14.4676C37.7413 12.8726 37.9896 9.8933 36.1923 7.97323C34.9446 6.6403 32.9024 6.20932 31.3281 6.94671C29.2039 7.94163 28.1659 10.1987 28.8763 12.2778L29.1408 13.0515L28.822 13.5974C28.1298 14.7829 27.4218 17.0117 26.9529 19.4819L26.8094 20.2382L26.3588 19.6109C25.6987 18.6919 24.9421 17.1355 24.632 16.0582C24.2489 14.7267 24.1549 12.4517 24.4275 11.1072C25.6341 5.15675 31.3263 1.25058 37.1762 2.35885C40.5993 3.00739 43.3162 5.01245 44.9559 8.10077C45.7621 9.61926 46.071 10.7968 46.1551 12.6731C46.2682 15.1922 45.7154 17.2298 44.3771 19.2284C42.8152 21.5609 40.3039 23.2931 37.6098 23.8965C36.1124 24.2318 34.0545 24.2052 32.5977 23.8317C31.3836 23.5206 30.9808 23.5444 30.5731 23.9518C30.2796 24.2452 30.2399 24.9309 30.4969 25.269C30.7239 25.5677 31.4185 25.8471 32.4802 26.0669C36.8985 26.9816 41.3761 25.645 44.5632 22.4603C46.4552 20.5697 47.6409 18.3231 48.1987 15.5728C48.4963 14.1049 48.4031 11.2898 48.0092 9.85294C46.732 5.19325 43.1088 1.58768 38.5132 0.403057C36.8714 -0.0200579 34.4875 -0.125031 32.9819 0.159711ZM48.4318 20.7723C48.1636 21.0029 48.0761 21.1946 48.0761 21.552C48.0761 22.0049 48.3302 22.28 53.7803 27.7271L59.4844 33.4281V35.3942V37.3603H57.5041C55.7807 37.3603 55.4977 37.3311 55.3226 37.1347C55.1684 36.9616 55.1109 36.5229 55.0767 35.2535C55.0327 33.6235 55.0265 33.5933 54.67 33.2869C54.3831 33.0403 54.1619 32.9757 53.6053 32.9757H52.9027V32.4558C52.9027 31.8035 52.6175 31.1049 52.2768 30.9227C52.1321 30.8453 51.3342 30.7834 50.4816 30.7834C49.0444 30.7834 48.9293 30.7645 48.6664 30.485C48.4099 30.2121 48.3858 30.0512 48.3858 28.6092C48.3858 27.1064 48.3708 27.0169 48.069 26.7154C47.7669 26.4134 47.6786 26.3988 46.158 26.3988C44.9558 26.3988 44.5019 26.3522 44.313 26.2095C44.1753 26.1053 43.8549 26.0182 43.601 26.016C42.6874 26.0079 42.2674 27.0187 42.8467 27.8317C43.2776 28.4365 43.721 28.5911 45.024 28.5911H46.1919V29.5422C46.1919 30.9206 46.2891 31.2359 46.9356 31.9545C47.7567 32.867 48.027 32.9757 49.4763 32.9757H50.7088V33.7553C50.7088 34.4112 50.7591 34.5853 51.0256 34.8514C51.292 35.1177 51.4662 35.168 52.1226 35.168H52.9027V36.5341V37.9L53.7295 38.7264L54.5565 39.5526H57.7723H60.9881L61.301 39.2202C61.6109 38.8908 61.6142 38.8588 61.6529 35.9106C61.6788 33.9494 61.6437 32.8165 61.5501 32.5905C61.4719 32.402 58.751 29.597 55.5039 26.3571C50.2207 21.0861 49.5571 20.4667 49.1936 20.4667C48.9522 20.4667 48.643 20.5907 48.4318 20.7723ZM0.374797 35.538C-0.0344329 35.9469 -0.102315 36.3003 0.140693 36.7563C0.453004 37.342 0.521273 37.352 4.29016 37.3562C7.93736 37.3605 8.24063 37.3962 8.60082 37.865C8.82938 38.1625 8.82938 62.9949 8.60082 63.2924C8.24037 63.7615 7.9389 63.797 4.31249 63.797H0.745053L0.367828 64.1739C-0.12348 64.665 -0.121802 65.1231 0.373248 65.6178L0.755764 66L4.66429 65.9625C8.22566 65.9282 8.61747 65.9026 9.07638 65.675C9.74321 65.3445 10.4175 64.6562 10.7142 64.0035C10.9435 63.4988 10.9544 62.8869 10.9517 50.6431C10.9495 40.5325 10.9137 37.7136 10.7833 37.3487C10.5242 36.6246 9.98905 36.0167 9.25074 35.6079L8.57269 35.2325L4.66584 35.1933L0.759119 35.1541L0.374797 35.538ZM13.7688 39.7545C13.1551 40.0872 13.0781 40.9676 13.6201 41.4548C13.9421 41.7443 13.9536 41.745 18.5581 41.745C22.2676 41.745 23.3003 41.7826 23.8199 41.9368C24.6066 42.1703 26.1941 43.1534 28.3667 44.7527C30.7398 46.4997 31.8956 47.2549 33.0083 47.7859L33.9963 48.2574L38.3841 48.3337C43.103 48.416 43.3017 48.4432 44.3473 49.1533C44.9039 49.5313 45.1552 49.5581 45.6664 49.2938C46.0692 49.0857 46.1919 48.8629 46.1919 48.3401C46.1919 47.8441 45.9006 47.4924 45.126 47.0532C43.7585 46.2775 43.4264 46.2304 38.7068 46.1441L34.3835 46.0651L33.4504 45.5493C32.5286 45.0396 31.8568 44.5772 28.576 42.1928C26.6805 40.8154 24.9073 39.8661 23.8803 39.6792C23.4979 39.6096 21.1459 39.555 18.6536 39.5578C14.8972 39.5621 14.0616 39.5957 13.7688 39.7545ZM60.721 44.0751C60.4429 44.1439 57.336 45.6008 53.8167 47.3128C45.8934 51.1668 46.0881 51.0789 44.8368 51.3683C43.9474 51.574 43.2324 51.6072 39.6747 51.6087C35.4187 51.6103 34.0821 51.5132 29.8272 50.8933C27.5266 50.5582 27.1574 50.5662 26.7635 50.9597C26.3619 51.3609 26.3513 51.9367 26.737 52.3838C27.0025 52.6914 27.2105 52.7467 29.1568 53.0261C33.8911 53.7054 35.2031 53.8028 39.6101 53.801C43.9726 53.7993 44.9106 53.7173 46.4894 53.1994C46.9048 53.0631 50.3556 51.4389 54.1577 49.5902C60.2735 46.6164 61.1424 46.2287 61.692 46.2287C63.6121 46.2287 64.5825 48.6338 63.1799 49.9167C62.7302 50.3281 48.4749 59.226 47.3534 59.7955C45.6803 60.6448 42.9556 61.2494 39.7392 61.4847C37.5019 61.6485 36.1294 61.5799 34.312 61.2137C31.07 60.5605 26.2467 58.7239 21.9943 56.5233C20.1986 55.5941 17.5365 55.0289 14.951 55.0281C13.9688 55.0278 13.8141 55.0604 13.5753 55.3179C13.2622 55.6555 13.1931 55.9801 13.3261 56.4871C13.454 56.9747 14.0744 57.2198 15.1826 57.2208C16.2047 57.2217 18.3461 57.5242 19.3147 57.8045C19.6864 57.9121 21.1092 58.5441 22.4766 59.2091C26.7233 61.2747 30.8847 62.7898 34.0866 63.4364C36.5642 63.9368 40.9746 63.8019 44.127 63.1295C45.7385 62.7857 47.2367 62.3105 48.1864 61.8418C49.3131 61.2859 63.9889 52.1429 64.6172 51.6056C64.9366 51.3323 65.3223 50.8023 65.5751 50.2893C65.9463 49.5359 65.9986 49.3027 66 48.3924C66.0019 47.1824 65.6513 46.2699 64.839 45.3715C63.9189 44.3538 62.0165 43.7549 60.721 44.0751ZM2.99743 57.4728C2.25472 57.9252 1.99262 58.7965 2.37616 59.5376C3.16817 61.068 5.45384 60.5381 5.45384 58.8241C5.45384 57.5686 4.08019 56.8131 2.99743 57.4728Z" fill="#976A40"/>
</svg>
