<svg width="80" height="80" viewBox="0 0 80 80" fill="none" xmlns="http://www.w3.org/2000/svg">
<path fill-rule="evenodd" clip-rule="evenodd" d="M33.5354 1.29162V2.58325H36.4845H39.4339L33.2527 8.75802L27.0717 14.933L23.1919 11.0595L19.3122 7.18612L11.7581 14.7326L4.20396 22.2789L5.13277 23.2069L6.06158 24.1348L12.6872 17.5173L19.3126 10.9L23.1919 14.773L27.0714 18.6459L34.1821 11.5436L41.2929 4.44141V7.38712V10.333H42.5859H43.8788V5.1665V0H38.7071H33.5354V1.29162ZM36.1212 27.1241V38.7487H34.8283H33.5354V29.7074V20.666H27.0707H20.6061V29.7074V38.7487H19.3131H18.0202V32.2906V25.8325H11.5556H5.09091V32.2764V38.7202L3.32444 38.7749C1.4156 38.8338 1.05584 38.9741 0.333253 39.9411C0.0342627 40.3412 0 40.6164 0 42.6236C0 44.6308 0.0342627 44.9061 0.333253 45.3062C0.845737 45.9918 1.41802 46.352 2.15111 46.4502C2.57099 46.5066 2.84945 46.6373 2.89956 46.8017C2.94368 46.9457 3.5617 49.1588 4.27313 51.7196L5.56671 56.3755L5.04598 56.7956C3.85471 57.7568 2.89648 58.8689 2.70368 59.5142C2.25293 61.0225 2.5684 62.2323 3.71168 63.3792C4.66731 64.3379 5.61325 64.6821 6.84461 64.5189L7.62941 64.4149L8.1537 67.0379C8.44202 68.4805 8.8097 69.9165 8.97067 70.229C9.36291 70.9904 10.0283 71.5967 10.9091 71.995C11.6257 72.319 11.8809 72.3239 28.3636 72.3239C44.8464 72.3239 45.1016 72.319 45.8182 71.995C46.699 71.5967 47.3644 70.9904 47.7566 70.229C47.9176 69.9165 48.2838 68.4878 48.5703 67.054L49.0914 64.4474L49.9378 64.5346C51.2226 64.6671 52.271 64.2562 53.1551 63.2739C53.5512 62.834 53.935 62.2397 54.0082 61.9534C54.0874 61.6442 54.1742 64.2215 54.2222 68.3035L54.303 75.1742L54.9067 76.3936C55.6336 77.8627 56.5699 78.7781 58.0719 79.489C59.0482 79.9511 59.2984 80 60.6869 80C62.0753 80 62.3255 79.9511 63.3018 79.489C64.8039 78.7781 65.7401 77.8627 66.4671 76.3936L67.0707 75.174L67.1198 67.7383C67.1556 62.321 67.1163 60.1141 66.9752 59.608C66.8645 59.2108 66.4842 58.5829 66.0873 58.142L65.393 57.3706L65.6187 56.7377C65.7429 56.3898 65.8476 55.5205 65.8515 54.8062L65.8586 53.5075L66.7664 53.2282C72.3203 51.5197 77.2431 46.5958 79.089 40.903C79.8111 38.6756 80 37.4255 80 34.8739C80 32.331 79.8108 31.0712 79.0988 28.8752C77.5245 24.0189 73.9362 19.8739 69.2774 17.5303C66.5744 16.1703 63.9746 15.5802 60.6869 15.5802C56.6269 15.5802 53.5198 16.4892 50.1414 18.6653L49.0505 19.3679V17.4337V15.4995H42.5859H36.1212V27.1241ZM46.4625 19.8991L46.4606 21.7154L45.5649 22.827C42.6036 26.5024 41.0956 31.1265 41.3464 35.7619C41.3994 36.7386 41.4912 37.8104 41.5505 38.1433L41.6585 38.7487H40.1828H38.7071V28.4157V18.0827H42.5859H46.4646L46.4625 19.8991ZM63.0523 18.2574C65.371 18.5797 68.2768 19.7074 70.2075 21.0343C71.264 21.7605 73.3522 23.7956 74.2088 24.9337C76.8234 28.408 77.9712 33.1539 77.2569 37.5378C76.66 41.201 75.0083 44.2995 72.2159 46.9938C70.7606 48.398 69.9803 48.9566 68.2828 49.8099C62.5786 52.677 55.8665 52.1427 50.8113 48.4191C49.6111 47.5352 47.594 45.4894 46.8333 44.3849C43.9751 40.2346 43.1373 34.7336 44.6358 29.9562C45.5131 27.1596 46.9033 24.9288 49.0739 22.8341C50.6298 21.3326 51.3956 20.7834 53.1814 19.8875C56.2544 18.3461 59.6519 17.785 63.0523 18.2574ZM58.0435 20.9242C52.3869 21.945 47.706 26.6745 46.7111 32.3741C45.02 42.0618 53.4421 50.5393 63.0851 48.8559C70.8144 47.5066 76.0241 40.1447 74.6815 32.4689C73.3157 24.6607 65.8898 19.5081 58.0435 20.9242ZM30.9495 29.9668C30.9495 36.295 30.9332 36.6781 30.667 36.5761C28.4658 35.7323 25.6798 36.3119 23.942 37.9754L23.1919 38.6934V30.9714V23.2492H27.0707H30.9495V29.9668ZM64.1616 23.7983C65.9956 24.3818 67.3592 25.2317 68.849 26.72C70.3258 28.1954 71.1753 29.5479 71.7897 31.4026C72.1676 32.5431 72.2177 32.9493 72.2177 34.8739C72.2177 36.7984 72.1676 37.2046 71.7897 38.3451C71.1753 40.1999 70.3258 41.5524 68.849 43.0277C67.3721 44.5031 66.0183 45.3517 64.1616 45.9655C63.02 46.343 62.6133 46.3931 60.6869 46.3931C58.7604 46.3931 58.3538 46.343 57.2121 45.9655C55.3647 45.3548 54.0129 44.5071 52.5259 43.0272C51.0487 41.5571 50.2014 40.2084 49.584 38.3451C49.2061 37.2046 49.156 36.7984 49.156 34.8739C49.156 32.9493 49.2061 32.5431 49.584 31.4026C50.196 29.5554 51.0439 28.2015 52.5248 26.7063C54.2875 24.9267 56.3088 23.8426 58.6667 23.4123C60.0852 23.1533 62.7152 23.3382 64.1616 23.7983ZM15.4343 33.5822V38.7487H11.5556H7.67677V33.5822V28.4157H11.5556H15.4343V33.5822ZM51.6364 34.8739V36.1655H52.9293H54.2222V34.8739V33.5822H52.9293H51.6364V34.8739ZM56.8081 34.8739V36.1655H58.101H59.3939V34.8739V33.5822H58.101H56.8081V34.8739ZM61.9798 34.8739V36.1655H63.2727H64.5657V34.8739V33.5822H63.2727H61.9798V34.8739ZM67.1515 34.8739V36.1655H68.4444H69.7374V34.8739V33.5822H68.4444H67.1515V34.8739ZM29.557 38.9451C30.4448 39.2071 31.7836 40.5446 32.0459 41.4314C32.4936 42.9452 32.1779 44.1521 31.0358 45.2931C30.1988 46.1292 29.3802 46.4985 28.3636 46.4985C26.361 46.4985 24.4848 44.6242 24.4848 42.6236C24.4848 41.6089 24.8546 40.7902 25.6915 39.9524C26.8252 38.8174 28.0464 38.4991 29.557 38.9451ZM21.9423 42.1796C21.8857 42.8568 21.7762 43.1165 21.3978 43.4712L20.9241 43.9152H11.7146H2.50505V42.6236V41.332H12.2591H22.0131L21.9423 42.1796ZM42.9775 42.664L43.5219 43.9152H39.6625H35.8032L35.3295 43.4712C34.9508 43.1162 34.8415 42.8569 34.7846 42.1769L34.7135 41.3263L38.5733 41.3696L42.4331 41.4127L42.9775 42.664ZM23.0379 46.1898C23.1373 46.3753 23.4702 46.8053 23.7776 47.1453L24.3368 47.7635L15.5795 54.8808C8.52154 60.6168 6.73099 61.998 6.35313 61.998C5.41317 61.998 4.73632 60.7382 5.29293 60.0249C5.56154 59.6806 22.5815 45.8527 22.7366 45.8527C22.8031 45.8527 22.9387 46.0044 23.0379 46.1898ZM42.6759 52.8095C47.382 56.6356 51.3233 59.8826 51.4343 60.025C51.7631 60.4459 51.6739 61.168 51.2396 61.6016C50.4016 62.4389 50.5901 62.5645 41.1446 54.8781L32.3953 47.7581L32.9519 47.1427C33.2582 46.8041 33.59 46.3753 33.6894 46.1898C33.7886 46.0044 33.9261 45.8527 33.9947 45.8527C34.0634 45.8527 37.9699 48.9832 42.6759 52.8095ZM15.0041 48.7099C13.5074 49.9263 11.2739 51.7457 10.0407 52.7533C8.80743 53.7608 7.77923 54.5639 7.75564 54.5377C7.68808 54.4633 5.57576 46.8198 5.57576 46.6503C5.57576 46.5582 7.96897 46.4985 11.6506 46.4985H17.7253L15.0041 48.7099ZM46.2292 47.6834C46.7662 48.3194 47.8267 49.3363 48.5857 49.9434L49.9657 51.0474L49.5064 52.6881C49.2538 53.5906 49.0271 54.391 49.0028 54.4668C48.9784 54.5426 46.7197 52.7808 43.9834 50.5516L39.0082 46.4985L42.1303 46.5129L45.2525 46.5274L46.2292 47.6834ZM38.1642 55.7825C42.732 59.4967 46.5346 62.6144 46.6145 62.7108C46.732 62.8524 46.0936 66.5566 45.5762 68.7341C45.4023 69.4662 44.8776 69.7477 43.6866 69.7477H42.5859V66.2549C42.5859 62.1066 42.5093 61.749 41.3792 60.6201C39.7442 58.9867 37.67 58.9867 36.0349 60.6201C34.9049 61.749 34.8283 62.1066 34.8283 66.2549V69.7477H33.5354H32.2424V63.6716C32.2424 59.4444 32.1839 57.4006 32.0503 56.9548C31.9446 56.6025 31.5438 55.965 31.1594 55.5379C30.1102 54.3721 28.7132 53.9891 27.1703 54.4446C26.2825 54.7066 24.9437 56.0441 24.6814 56.9309C24.5424 57.4011 24.4848 59.3729 24.4848 63.6716V69.7477H23.1919H21.899V66.2549C21.899 62.1066 21.8224 61.749 20.6924 60.6201C19.0573 58.9867 16.9831 58.9867 15.348 60.6201C14.218 61.749 14.1414 62.1066 14.1414 66.2549V69.7477H13.0406C12.1581 69.7477 11.8699 69.6828 11.588 69.4203C11.185 69.0452 11.2388 69.2353 10.5135 65.6307C9.99547 63.0566 9.97802 62.8687 10.2331 62.6089C10.3827 62.4563 14.1967 59.3322 18.7087 55.6664L26.9122 49.001L28.3856 49.0152L29.8591 49.0296L38.1642 55.7825ZM55.3131 53.4356C55.4586 53.4395 55.5152 53.827 55.5152 54.8185C55.5152 55.6755 55.6065 56.4143 55.7568 56.7735L55.9982 57.351L55.2837 58.1449C54.8908 58.5816 54.5217 59.155 54.4637 59.4189C54.3268 60.042 54.1152 60.0308 53.9751 59.3931C53.8675 58.9042 52.809 57.7056 51.6808 56.7953L51.1594 56.3747L51.6469 54.6252C51.9148 53.6631 52.1691 52.7593 52.2119 52.6169C52.2793 52.3923 52.4781 52.4295 53.7004 52.894C54.4763 53.1889 55.2021 53.4327 55.3131 53.4356ZM63.2727 55.1031C63.2727 55.8813 63.206 56.1056 62.876 56.4351C62.5025 56.8082 62.3745 56.8315 60.6869 56.8315C58.9993 56.8315 58.8713 56.8082 58.4978 56.4351C58.1678 56.1056 58.101 55.8813 58.101 55.1031V54.1675H60.6869H63.2727V55.1031ZM29.2598 57.2279L29.6566 57.6241V63.686V69.7477H28.3636H27.0707V63.686V57.6241L27.4675 57.2279C27.7175 56.9779 28.0488 56.8315 28.3636 56.8315C28.6785 56.8315 29.0098 56.9779 29.2598 57.2279ZM64.1689 59.8111L64.5657 60.2073V67.1788C64.5657 72.1803 64.5101 74.338 64.3691 74.8148C63.9588 76.2023 62.181 77.4975 60.6869 77.4975C59.1927 77.4975 57.415 76.2023 57.0046 74.8148C56.8637 74.338 56.8081 72.1803 56.8081 67.1788V60.2073L57.2048 59.8111C57.5982 59.418 57.6265 59.4147 60.6869 59.4147C63.7472 59.4147 63.7755 59.418 64.1689 59.8111ZM18.9164 62.3943C19.3131 62.7906 19.3131 62.791 19.3131 66.2692V69.7477H18.0202H16.7273V66.2692C16.7273 62.791 16.7273 62.7906 17.124 62.3943C17.3741 62.1444 17.7054 61.998 18.0202 61.998C18.335 61.998 18.6663 62.1444 18.9164 62.3943ZM39.6032 62.3943C40 62.7906 40 62.791 40 66.2692V69.7477H38.7071H37.4141V66.2692C37.4141 62.791 37.4141 62.7906 37.8109 62.3943C38.0609 62.1444 38.3922 61.998 38.7071 61.998C39.0219 61.998 39.3532 62.1444 39.6032 62.3943Z" fill="#7B3FE4"/>
</svg>
