<svg width="52" height="52" viewBox="0 0 52 52" fill="none" xmlns="http://www.w3.org/2000/svg">
<path fill-rule="evenodd" clip-rule="evenodd" d="M19.027 0.134204C18.4964 0.301817 17.5915 1.24097 17.4288 1.79289C17.3484 2.06549 17.2973 2.94678 17.2973 4.05961C17.2973 5.51894 17.2654 5.91581 17.1365 6.0584C16.6155 6.63556 11.4619 14.1838 11.3629 14.515C11.2971 14.7353 11.2432 15.3716 11.2432 15.929V16.9425L8.83232 14.535C6.62951 12.3353 6.38941 12.1274 6.05081 12.1274C5.71027 12.1274 5.45016 12.358 2.84011 14.9738C0.220865 17.5989 0 17.8494 0 18.1948C0 18.5448 0.367351 18.9376 5.62162 24.207L11.2432 29.8449V31.1973V32.5497L7.70205 29.0018C5.75449 27.0506 4.1107 25.4541 4.04941 25.4541C3.90941 25.4541 2.91892 26.4538 2.91892 26.5951C2.91892 26.6524 5.67946 29.4663 9.05351 32.8483L15.188 38.9971L14.2964 39.8905L13.405 40.784L7.48595 34.8527C4.23038 31.5903 1.51654 28.9212 1.45503 28.9212C1.31492 28.9212 0.324324 29.9208 0.324324 30.0622C0.324324 30.1195 2.98714 32.8355 6.24162 36.0976L12.1589 42.0286L11.4308 42.7639C11.0304 43.1684 10.7027 43.5555 10.7027 43.6242C10.7027 43.6928 10.8243 43.8449 10.973 43.962L11.2432 44.1752V46.964C11.2432 48.8369 11.2864 49.8993 11.3747 50.1988C11.5502 50.794 12.4457 51.6915 13.0396 51.8674C13.3776 51.9675 16.4824 51.9991 25.9663 51.9991C40.1013 51.9991 39.0917 52.0617 39.9242 51.1336C40.1813 50.8471 40.4494 50.4192 40.5201 50.1828C40.6091 49.8853 40.6487 48.5551 40.6487 45.8644V41.9759L44.5388 38.0783L48.4289 34.1807L48.9669 34.7118L49.505 35.2429L50.0769 34.7116C50.3914 34.4194 50.6665 34.1379 50.6882 34.0862C50.7099 34.0345 50.4945 33.7549 50.2094 33.4649L49.6909 32.9373L50.6651 31.9282C51.6915 30.8649 52 30.2951 52 29.463C52 28.0345 50.7226 26.7543 49.2973 26.7543C48.467 26.7543 47.8985 27.0635 46.8375 28.0921L45.8306 29.0685L45.317 28.5614C45.0345 28.2826 44.7546 28.0544 44.6949 28.0544C44.5591 28.0544 43.5676 29.055 43.5676 29.1921C43.5676 29.2476 43.7976 29.5271 44.0788 29.8132L44.5902 30.3334L42.6194 32.3086L40.6487 34.2836V31.2154V28.1471L40.9335 28.3716C41.0902 28.4951 41.369 28.5962 41.5532 28.5962C41.848 28.5962 42.2782 28.2052 45.1602 25.3167C48.1712 22.299 48.4324 22.0077 48.4324 21.6678C48.4324 21.3368 48.2642 21.1287 46.8108 19.661C45.9189 18.7604 45.1892 17.9859 45.1892 17.9396C45.1892 17.8935 45.5386 17.0422 45.9656 16.048C46.683 14.3776 46.7421 14.1826 46.7422 13.4818C46.7422 12.4599 46.4277 11.7517 45.6627 11.0509C44.9224 10.3728 44.2369 10.1309 43.2558 10.2018C41.9839 10.2937 41.1236 10.8996 40.4069 12.2081L40.0364 12.8845L39.7749 12.6041C39.6311 12.4498 39.3892 12.2587 39.2372 12.1793C39.0772 12.0959 38.0831 10.7773 36.877 9.04856C35.7309 7.40591 34.7485 6.03424 34.6939 6.00043C34.6392 5.96663 34.5946 5.10635 34.5946 4.08887C34.5946 2.973 34.5436 2.06831 34.4661 1.80892C34.3954 1.57251 34.1272 1.14465 33.8702 0.85807C33.0675 -0.0366586 33.3258 -0.0090303 25.8997 0.00364629C21.4956 0.0111222 19.2837 0.0531608 19.027 0.134204ZM32.5995 1.99214C32.8551 2.24827 32.8649 2.31187 32.8649 3.72569V5.19325H25.9459H19.027V3.72569C19.027 2.31187 19.0368 2.24827 19.2924 1.99214L19.5577 1.72615H25.9459H32.3342L32.5995 1.99214ZM31.9819 7.01553C31.9622 7.0644 30.8837 8.62459 29.5854 10.4826L27.2249 13.861H20.5314C16.8499 13.861 13.8378 13.8394 13.8378 13.8131C13.8378 13.6729 18.423 7.23277 18.6226 7.09268C18.8285 6.94814 19.7051 6.9268 25.4385 6.9268C29.0572 6.9268 32.0018 6.96678 31.9819 7.01553ZM35.6591 10.338C36.679 11.797 37.5135 13.0268 37.5135 13.071C37.5135 13.1151 36.273 14.398 34.7568 15.9216C32.2293 18.4615 32 18.7229 32 19.0626C32 19.4044 32.2688 19.703 35.4595 22.9063L38.9189 26.3794V31.1994V36.0195L35.9917 38.9441L33.0643 41.8687L31.6674 44.6579C30.8989 46.1918 30.2703 47.5714 30.2703 47.7235C30.2703 48.0796 30.7217 48.532 31.077 48.532C31.2288 48.532 32.581 47.9183 34.0819 47.1684L36.8108 45.8047L37.8649 44.7597L38.9189 43.7147V46.7241V49.7337L38.6535 49.9996L38.3882 50.2656H33.4643H28.5405L28.5415 32.6321L28.5426 14.9986L31.0982 11.3419C32.5038 9.3308 33.6878 7.68523 33.7293 7.68523C33.7708 7.68523 34.6392 8.87899 35.6591 10.338ZM44.3824 12.1743C44.7582 12.4211 45.1227 13.246 45.0398 13.6619C44.9603 14.0598 43.8902 16.5697 43.8 16.5697C43.7632 16.5697 43.1876 16.0245 42.5209 15.3582L41.3087 14.1467L41.6982 13.4351C42.1262 12.653 42.5321 12.1567 42.8649 12.0088C43.1876 11.8654 44.0562 11.9601 44.3824 12.1743ZM6.7573 14.945L7.39978 15.5957L6.45665 16.5453C5.93795 17.0676 5.51351 17.532 5.51351 17.5773C5.51351 17.6945 6.54076 18.7366 6.65632 18.7366C6.70919 18.7366 7.17935 18.3107 7.70119 17.7902L8.64984 16.8439L9.32324 17.5188L9.99665 18.1937L9.05243 19.1444C8.53308 19.6674 8.10811 20.1205 8.10811 20.1514C8.10811 20.249 9.16195 21.3369 9.25665 21.3369C9.30638 21.3369 9.77395 20.911 10.2958 20.3905L11.2444 19.4442L11.9178 20.1191L12.5912 20.794L11.6216 21.7703L10.6521 22.7465L11.2715 23.3673L11.8908 23.988L12.8649 23.0163L13.839 22.0446L14.5124 22.7194L15.1858 23.3943L14.2416 24.3451C13.7223 24.8681 13.2973 25.3339 13.2973 25.3801C13.2973 25.4901 14.3425 26.5376 14.4522 26.5376C14.4984 26.5376 14.9631 26.1117 15.485 25.5912L16.4336 24.6449L17.108 25.3207L17.7824 25.9966L15.8099 27.9733L13.8376 29.95L7.97351 24.0729L2.10941 18.1959L4.05351 16.2452C5.12281 15.1722 6.02411 14.2944 6.05632 14.2944C6.08854 14.2944 6.404 14.5871 6.7573 14.945ZM39.0824 14.4048C39.1199 14.4656 38.5511 15.6185 37.8185 16.967C37.0858 18.3154 36.4885 19.448 36.4909 19.4839C36.4934 19.5199 36.8209 19.7276 37.2186 19.9454L37.9418 20.3416L38.6332 19.0787C39.0134 18.3841 39.5537 17.3892 39.8339 16.8681C40.1142 16.3469 40.3787 15.8987 40.4218 15.872C40.4649 15.8453 41.8104 17.1372 43.4117 18.7429L46.3232 21.6624L43.9184 24.0727L41.5134 26.4829L37.8114 22.7726L34.1092 19.0624L36.4862 16.6783C37.7934 15.3672 38.8971 14.2944 38.9386 14.2944C38.9802 14.2944 39.0449 14.3441 39.0824 14.4048ZM26.8108 32.9301V50.2656H20.1573H13.5037L13.2384 49.9996L12.973 49.7337V46.7118C12.973 43.8109 12.9817 43.682 13.1929 43.4906C13.4091 43.2945 13.4234 43.3018 14.0577 43.9308L14.7027 44.5705V45.8519C14.7027 47.7014 14.3512 47.5162 18.9455 48.089C22.4704 48.5285 22.7185 48.5465 22.9708 48.3809C23.1188 48.2837 23.2704 48.0823 23.3077 47.9331C23.351 47.7604 23.0477 46.336 22.4716 44.0069C21.7712 41.1753 21.5138 40.2969 21.3292 40.108C21.1086 39.8824 20.9957 39.8643 19.8106 39.8643H18.5304L18.1076 39.4303L17.6849 38.9964L18.1937 38.4786C18.4737 38.1938 18.7027 37.9153 18.7027 37.8598C18.7027 37.7228 17.7111 36.7222 17.5754 36.7222C17.5157 36.7222 17.2335 36.9525 16.9482 37.2341L16.4296 37.7462L14.7013 36.0165L12.973 34.2869V32.9505V31.6142L13.2578 31.8387C13.4145 31.9622 13.6932 32.0633 13.8772 32.0633C14.1705 32.0633 14.5609 31.7132 17.0518 29.2169C19.6668 26.5961 19.8919 26.3409 19.8919 25.9975C19.8919 25.6524 19.6322 25.3637 16.4324 22.1512L12.973 18.6781V17.1363V15.5946H19.8919H26.8108V32.9301ZM32.4545 22.6022C32.2451 22.6863 30.6027 25.1872 30.4247 25.6928C30.0487 26.7609 30.2925 27.8674 31.0774 28.654C31.8697 29.4481 32.7154 29.6486 33.7632 29.2907C34.3748 29.0818 35.1426 28.2767 35.3309 27.6466C35.5041 27.0672 35.493 26.2267 35.3051 25.6928C35.1082 25.1336 33.4785 22.6883 33.2419 22.5974C33.0359 22.5181 32.6577 22.5205 32.4545 22.6022ZM33.3243 25.6534C33.8295 26.4393 33.8768 27.0502 33.4643 27.4634C32.8781 28.0511 32 27.6178 32 26.7407C32 26.3974 32.1005 26.1276 32.4054 25.6534C32.6284 25.3064 32.8351 25.0226 32.8649 25.0226C32.8946 25.0226 33.1014 25.3064 33.3243 25.6534ZM49.9543 28.8045C50.5107 29.3622 50.4159 29.6699 49.3542 30.7511L48.4382 31.6841L47.7596 31.0041L47.0811 30.324L48.012 29.406C49.0908 28.3419 49.3978 28.2469 49.9543 28.8045ZM46.5421 32.2815L47.1854 32.9331L41.5116 38.6278L35.8378 44.3225L34.4578 45.0204L33.0778 45.7181L33.7371 44.3894L34.3963 43.0605L40.0897 37.3452C43.221 34.2018 45.8091 31.6299 45.8409 31.6299C45.8727 31.6299 46.1882 31.9231 46.5421 32.2815ZM17.1437 40.9477L17.8191 41.5978H18.9503H20.0813L20.4235 42.9792C20.6117 43.739 20.7929 44.4582 20.8263 44.5774C20.8596 44.6965 20.431 44.343 19.8738 43.7918C19.3166 43.2407 18.8147 42.7896 18.7585 42.7896C18.6172 42.7896 17.6216 43.784 17.6216 43.925C17.6216 43.9879 18.1551 44.5724 18.8072 45.2239C19.4594 45.8753 19.9788 46.4225 19.9616 46.4396C19.9444 46.4568 19.1799 46.3741 18.2625 46.2556C17.3452 46.1372 16.5581 46.0402 16.5135 46.0401C16.469 46.0401 16.4324 45.5465 16.4324 44.9433V43.8467L15.5457 42.9362L14.6591 42.0258L15.5162 41.1617C15.9876 40.6865 16.3946 40.2976 16.4208 40.2976C16.4468 40.2976 16.7721 40.5902 17.1437 40.9477Z" fill="#00A1ED"/>
</svg>
