<svg width="20" height="20" viewBox="0 0 20 20" fill="none" xmlns="http://www.w3.org/2000/svg">
<path fill-rule="evenodd" clip-rule="evenodd" d="M8.60734 0.752262C7.89508 1.16507 7.27547 1.5362 7.23039 1.57698C7.14973 1.64999 7.14844 1.67605 7.14844 3.24247C7.14844 4.70092 7.15414 4.84062 7.2168 4.91527C7.30051 5.01505 9.91226 6.52229 10.0014 6.52229C10.0365 6.52229 10.4505 6.30059 10.9213 6.02963C11.3921 5.75863 11.9935 5.41325 12.2577 5.2621C12.5218 5.11092 12.7636 4.95075 12.7948 4.90613C12.8422 4.83847 12.8516 4.56313 12.8516 3.23888V1.65269L12.7637 1.5719C12.7153 1.52748 12.21 1.22246 11.6406 0.894071C11.0713 0.565683 10.4895 0.229795 10.3477 0.14764C10.2059 0.0655232 10.0477 -0.000927779 9.99609 9.80093e-06C9.94453 0.000947381 9.31961 0.339453 8.60734 0.752262ZM10.9818 1.23836C11.4927 1.53362 11.8983 1.78669 11.8831 1.80071C11.8679 1.81474 11.4389 2.06644 10.9298 2.36006L10.0041 2.89393L9.04094 2.33869C8.40367 1.97135 8.09566 1.77344 8.13066 1.75379C8.15977 1.73746 8.5791 1.49455 9.0625 1.21394C9.5459 0.933332 9.96644 0.703234 9.99707 0.702609C10.0277 0.701984 10.4708 0.943059 10.9818 1.23836ZM8.96484 3.01847L9.66797 3.42761L9.67832 4.5427L9.68867 5.6578L8.83848 5.16815C8.37086 4.89887 7.93992 4.65009 7.88086 4.61533L7.77344 4.55216V3.44382V2.33552L8.01758 2.47241C8.15187 2.54773 8.57812 2.79345 8.96484 3.01847ZM12.1784 4.57603C12.1512 4.59271 11.72 4.84347 11.2201 5.13326L10.3113 5.66018L10.3217 4.54341L10.332 3.42659L11.2695 2.88588L12.207 2.34517L12.2174 3.44542C12.2255 4.29999 12.2168 4.55243 12.1784 4.57603ZM2.79816 4.32538C2.6793 4.35261 0.112344 5.85008 0.0550391 5.92559C0.0130859 5.98095 0.00222656 6.31125 0.00125 7.56511L0 9.13532L0.0878906 9.2322C0.211406 9.36835 2.74766 10.8195 2.86207 10.8195C2.91375 10.8195 3.2709 10.6383 3.65574 10.4168C4.04059 10.1953 4.64371 9.84808 4.99598 9.64525C5.53398 9.33546 5.6452 9.25564 5.69105 9.14661C5.73531 9.04133 5.74344 8.72982 5.73414 7.49713C5.72313 6.03705 5.71961 5.97443 5.64453 5.90087C5.55602 5.81406 3.1782 4.42933 2.99211 4.35624C2.92555 4.33007 2.83828 4.3162 2.79816 4.32538ZM17.0075 4.35401C16.8042 4.44086 14.4356 5.8225 14.3555 5.90094C14.2804 5.97447 14.2769 6.03701 14.2659 7.49713C14.2565 8.73775 14.2645 9.04067 14.3095 9.14661C14.3677 9.28366 14.3088 9.24689 16.3457 10.4168C16.7313 10.6383 17.0896 10.8195 17.1419 10.8195C17.2579 10.8195 19.7891 9.37007 19.9121 9.23314L20 9.13532V7.56273C20 6.06248 19.9965 5.98638 19.9245 5.90907C19.883 5.8645 19.5974 5.68296 19.2898 5.50568C18.9821 5.32836 18.4053 4.9952 18.0078 4.76538C17.6104 4.53551 17.2481 4.33808 17.2028 4.32659C17.1575 4.31514 17.0696 4.32745 17.0075 4.35401ZM3.84043 5.54564C4.34781 5.8357 4.76344 6.08182 4.76402 6.09256C4.76457 6.1033 4.34289 6.35555 3.82691 6.65308C3.18797 7.02151 2.86727 7.18582 2.82133 7.1682C2.69879 7.12124 0.976562 6.12073 0.976797 6.09662C0.977148 6.0592 2.82723 4.99946 2.87496 5.00934C2.89855 5.01427 3.33305 5.25558 3.84043 5.54564ZM18.0925 5.53587C18.6043 5.83133 19.0231 6.08412 19.0232 6.09764C19.0235 6.12495 17.2431 7.15945 17.1615 7.17941C17.0873 7.19758 15.2327 6.11835 15.2712 6.07944C15.3189 6.03131 17.0836 5.00645 17.126 5.00227C17.1459 5.00032 17.5808 5.24046 18.0925 5.53587ZM1.66992 7.24286L2.53906 7.74368V8.85475V9.96582L2.33398 9.84835C2.22117 9.78374 1.79492 9.53754 1.38672 9.30123L0.644531 8.87163L0.634141 7.75067L0.623789 6.62972L0.712266 6.68585C0.760977 6.71672 1.19187 6.96736 1.66992 7.24286ZM19.375 7.7497V8.85995L18.584 9.31784C18.1489 9.56966 17.7182 9.81886 17.627 9.8716L17.4609 9.9675V8.85526V7.74302L18.4082 7.19398C18.9292 6.89197 19.3599 6.64366 19.3652 6.64218C19.3706 6.64069 19.375 7.1391 19.375 7.7497ZM5.11719 7.76708V8.85561L4.17418 9.39808C3.65551 9.69642 3.21605 9.94641 3.19762 9.95356C3.17914 9.96074 3.16426 9.46851 3.16445 8.85971L3.16484 7.75286L4.09219 7.21758C4.60223 6.92318 5.04152 6.68148 5.06836 6.68042C5.10629 6.67898 5.11719 6.9213 5.11719 7.76708ZM15.9022 7.2157L16.8348 7.75286L16.8354 8.85971C16.8357 9.46851 16.8213 9.96074 16.8034 9.95356C16.7854 9.94641 16.346 9.69568 15.8268 9.39644L14.8828 8.85229V7.76544C14.8828 6.99373 14.8954 6.67855 14.9263 6.67855C14.9502 6.67855 15.3893 6.92029 15.9022 7.2157ZM9.7834 7.43858L9.6875 7.53444V8.66696C9.6875 9.79823 9.68762 9.79956 9.77898 9.90582C9.90449 10.0517 10.0955 10.0517 10.221 9.90582C10.3124 9.79956 10.3125 9.79823 10.3125 8.66696V7.53444L10.2166 7.43858C10.1562 7.3781 10.0761 7.34267 10 7.34267C9.92391 7.34267 9.84383 7.3781 9.7834 7.43858ZM9.46434 11.014C9.35629 11.0594 9.31629 11.1234 9.18609 11.4593L9.08203 11.7278L8.765 11.835C8.59066 11.894 8.34363 11.9979 8.21613 12.0658L7.98426 12.1894L7.67746 12.0496C7.46125 11.9511 7.33945 11.9167 7.26484 11.9331C7.20125 11.947 7.01664 12.1016 6.80215 12.3202C6.38602 12.7447 6.37676 12.7793 6.56543 13.2092L6.68555 13.483L6.54281 13.7719C6.4643 13.9308 6.36188 14.1778 6.31527 14.3207L6.23047 14.5806L5.9375 14.6919C5.51336 14.8532 5.50781 14.8637 5.50781 15.5049C5.50781 16.1363 5.51062 16.1413 5.95973 16.3075L6.23586 16.4097L6.32598 16.6911C6.37559 16.8458 6.47691 17.0936 6.55125 17.2417L6.68633 17.511L6.56582 17.7839C6.37457 18.217 6.38246 18.2438 6.83047 18.684C7.11406 18.9626 7.24184 19.0624 7.31512 19.0624C7.3698 19.0624 7.53211 19.0097 7.67578 18.9452C7.81945 18.8808 7.9543 18.828 7.97543 18.828C7.9966 18.828 8.14 18.8883 8.29406 18.9619C8.44816 19.0355 8.68848 19.1323 8.82812 19.1771L9.08203 19.2585L9.21016 19.5844C9.30523 19.8264 9.36363 19.9219 9.4366 19.9552C9.49355 19.9811 9.73742 20 10.0161 20C10.6039 20 10.6412 19.9788 10.8039 19.5527L10.9164 19.2581L11.132 19.1956C11.2506 19.1612 11.4916 19.0644 11.6676 18.9805C11.8436 18.8967 12.0045 18.828 12.0253 18.828C12.0461 18.828 12.1805 18.8808 12.3242 18.9452C12.4679 19.0097 12.6302 19.0624 12.6849 19.0624C12.7582 19.0624 12.8859 18.9626 13.1695 18.684C13.6175 18.2438 13.6254 18.217 13.4342 17.7839L13.3137 17.511L13.4487 17.2417C13.5231 17.0936 13.6244 16.8458 13.674 16.6911L13.7641 16.4097L14.0403 16.3075C14.4894 16.1413 14.4922 16.1363 14.4922 15.5049C14.4922 14.8637 14.4866 14.8532 14.0625 14.6919L13.7695 14.5806L13.6847 14.3207C13.6381 14.1778 13.5357 13.9308 13.4572 13.7719L13.3145 13.483L13.4346 13.2092C13.6232 12.7793 13.614 12.7447 13.1979 12.3202C12.9834 12.1016 12.7987 11.947 12.7352 11.9331C12.6605 11.9167 12.5387 11.9511 12.3225 12.0496L12.0157 12.1894L11.7839 12.0658C11.6564 11.9979 11.4093 11.894 11.235 11.8349L10.918 11.7276L10.8008 11.4302C10.6287 10.9938 10.6341 10.9969 10.0475 10.9865C9.77434 10.9816 9.51188 10.994 9.46434 11.014ZM10.3091 11.8847C10.3666 12.0301 10.448 12.1824 10.49 12.2231C10.532 12.2638 10.6807 12.3247 10.8203 12.3584C10.96 12.3922 11.2676 12.517 11.5039 12.6358C11.7402 12.7547 11.9565 12.8517 11.9846 12.8514C12.0126 12.8511 12.1611 12.7975 12.3145 12.7322L12.5935 12.6135L12.7394 12.7615L12.8853 12.9095L12.7707 13.159C12.7078 13.2962 12.6562 13.4567 12.6562 13.5157C12.6562 13.5746 12.7178 13.725 12.7929 13.8498C12.9417 14.0969 13.0603 14.3894 13.1477 14.7249C13.2164 14.9891 13.3088 15.08 13.6248 15.1947L13.8708 15.2839L13.8592 15.4993L13.8477 15.7148L13.5938 15.8094C13.4541 15.8615 13.3107 15.9304 13.275 15.9625C13.2393 15.9947 13.1799 16.1444 13.1429 16.2952C13.106 16.446 12.9816 16.7568 12.8665 16.9858C12.7514 17.2148 12.657 17.442 12.6567 17.4909C12.6564 17.5397 12.7093 17.6967 12.7742 17.8398L12.8922 18.1L12.7666 18.2296C12.6975 18.3009 12.6236 18.3592 12.6024 18.3592C12.5813 18.3592 12.4295 18.3043 12.2652 18.2371L11.9664 18.1149L11.5985 18.3129C11.3961 18.4218 11.0723 18.5566 10.8789 18.6123C10.6855 18.6682 10.5061 18.7351 10.48 18.7612C10.454 18.7872 10.3823 18.9315 10.3207 19.082L10.2087 19.3554H10H9.79129L9.6793 19.082C9.61769 18.9315 9.54602 18.7872 9.51996 18.7612C9.49395 18.7351 9.31445 18.6682 9.12109 18.6123C8.92773 18.5566 8.60422 18.4219 8.40215 18.3133L8.0348 18.1156L7.73809 18.2377C7.57492 18.3049 7.42289 18.3597 7.40023 18.3595C7.37762 18.3594 7.30254 18.3009 7.23344 18.2296L7.10781 18.1L7.22578 17.8398C7.29066 17.6967 7.34375 17.5378 7.34375 17.4867C7.34375 17.4356 7.25691 17.2287 7.15082 17.0269C7.04469 16.825 6.92 16.5192 6.87371 16.3473C6.82742 16.1755 6.76043 16.0051 6.72484 15.9688C6.68926 15.9325 6.5459 15.8605 6.40625 15.8088L6.15234 15.7148L6.14078 15.4993L6.12922 15.2839L6.37516 15.1956C6.63086 15.1037 6.83594 14.9323 6.83594 14.8105C6.83594 14.6805 7.02879 14.1708 7.18715 13.8822C7.27328 13.7253 7.34375 13.5545 7.34375 13.5027C7.34375 13.4509 7.29223 13.2962 7.22926 13.159L7.11473 12.9095L7.26227 12.7599L7.40977 12.6103L7.67512 12.7306C7.82109 12.7968 7.96883 12.8511 8.00344 12.8514C8.03809 12.8517 8.25977 12.7547 8.49609 12.6358C8.73242 12.517 9.04004 12.392 9.17969 12.358C9.47012 12.2873 9.57102 12.2105 9.64625 12.0024C9.79723 11.5848 9.7873 11.5956 10.006 11.6086L10.2045 11.6204L10.3091 11.8847ZM2.65527 11.8693L2.53402 11.9905L2.54629 12.6745L2.55859 13.3583L3.4375 14.2388C3.9209 14.723 4.35844 15.13 4.40977 15.1431C4.63391 15.2006 4.84305 15.0014 4.78816 14.7828C4.76926 14.7075 4.49082 14.3984 3.96188 13.8655L3.16406 13.0619V12.5115C3.16406 11.8956 3.13637 11.8175 2.90195 11.7722C2.79664 11.7518 2.75715 11.7674 2.65527 11.8693ZM17.0045 11.7964C16.8608 11.8544 16.8359 11.9616 16.8359 12.5241V13.0619L16.0381 13.8655C15.5092 14.3984 15.2307 14.7075 15.2118 14.7828C15.157 15.0014 15.3661 15.2006 15.5902 15.1431C15.6416 15.13 16.0791 14.723 16.5625 14.2388L17.4414 13.3583L17.4537 12.6745L17.466 11.9905L17.3493 11.8738C17.2293 11.7538 17.1529 11.7367 17.0045 11.7964ZM9.62293 13.2429C8.75625 13.3981 8.01742 14.0761 7.79199 14.9232C7.71781 15.2021 7.71887 15.783 7.79406 16.0719C7.98758 16.8148 8.56738 17.4196 9.33594 17.6803C9.49645 17.7347 9.66441 17.7532 10 17.7532C10.3356 17.7532 10.5036 17.7347 10.6641 17.6803C11.4338 17.4192 12.0111 16.8147 12.2037 16.0683C12.2821 15.7644 12.2832 15.2412 12.2062 14.9394C12.0142 14.1872 11.4092 13.5484 10.6722 13.3195C10.378 13.2281 9.90039 13.1932 9.62293 13.2429ZM10.2937 13.8701C10.8102 13.9656 11.2716 14.3204 11.4964 14.7948C11.6131 15.0413 11.6211 15.0857 11.6211 15.4879C11.6211 15.8899 11.613 15.9346 11.4967 16.1803C10.9429 17.3494 9.36121 17.4842 8.63211 16.4245C8.32238 15.9743 8.26965 15.2977 8.50508 14.7948C8.71996 14.3358 9.14914 13.9932 9.64844 13.882C9.92586 13.8202 10.015 13.8186 10.2937 13.8701Z" fill="black"/>
</svg>
