<svg width="84" height="80" viewBox="0 0 84 80" fill="none" xmlns="http://www.w3.org/2000/svg">
<path fill-rule="evenodd" clip-rule="evenodd" d="M29.6962 0.227071C28.8334 0.499004 27.362 2.02268 27.0974 2.91811C26.9352 3.4676 26.8837 8.44238 26.8837 23.594V43.5464L25.0819 44.5559C24.091 45.1111 22.1098 46.3867 20.6793 47.3908C19.2488 48.3946 18.0192 49.2161 17.9468 49.2161C17.8744 49.2161 17.4038 48.6244 16.9011 47.9012C15.9297 46.5041 15.4268 46.2011 14.6595 46.5507C14.2606 46.7325 2.87231 54.6431 0.911996 56.1002C-0.687789 57.2892 -1.08382 56.5261 7.48305 68.7568C15.1981 79.7714 15.2357 79.8178 16.205 79.5586C16.8239 79.393 30.6217 69.6591 30.8692 69.2133C31.1988 68.6199 31.1543 68.3509 30.5761 67.4393L30.0497 66.6095L30.8349 66.1115C33.2447 64.5832 36.5149 64.1756 40.709 64.8807C44.0067 65.4349 46.8704 65.409 49.2079 64.8037C51.2512 64.2744 79.7223 53.9398 80.9046 53.2982C82.6202 52.367 83.5074 50.8858 83.6243 48.7569C83.6941 47.4841 83.6507 47.2155 83.2196 46.2549C82.7239 45.1504 81.434 43.7449 80.7033 43.5129L80.3212 43.3916V23.5167C80.3212 8.42586 80.2697 3.46742 80.1074 2.91811C79.8221 1.95254 78.366 0.496368 77.4004 0.211075C76.4136 -0.0805466 30.6232 -0.0650779 29.6962 0.227071ZM46.5712 5.62232V8.43482H38.1337H29.6962V6.05387C29.6962 3.7601 29.712 3.65691 30.1277 3.24137L30.5591 2.80982H38.5652H46.5712V5.62232ZM57.8212 8.81979V14.8297L56.001 13.0385C54.4367 11.4992 54.0994 11.2473 53.6024 11.2473C53.1055 11.2473 52.7682 11.4992 51.2039 13.0385L49.3837 14.8297V8.81979V2.80982H53.6024H57.8212V8.81979ZM77.0771 3.24137C77.4929 3.65691 77.5087 3.7601 77.5087 6.05387V8.43482H69.0712H60.6337V5.62232V2.80982H68.6396H76.6458L77.0771 3.24137ZM46.5712 15.0345C46.5712 18.8214 46.5712 18.8219 47.0027 19.2533C47.282 19.5326 47.6336 19.6848 47.9998 19.6848C48.4921 19.6848 48.8922 19.3609 51.084 17.1879L53.6024 14.6907L56.1208 17.1879C58.3127 19.3609 58.7127 19.6848 59.2051 19.6848C59.5713 19.6848 59.9228 19.5326 60.2021 19.2533C60.6337 18.8219 60.6337 18.8214 60.6337 15.0345V11.2473H69.0712H77.5087V27.0538V42.86L76.9374 42.9839C76.6231 43.052 75.2191 43.5324 73.8173 44.0514L71.2684 44.995L66.2864 44.9963C61.6223 44.9973 61.2767 44.9755 60.8712 44.6567C60.1413 44.0824 59.0395 43.8263 51.8446 42.5573C42.3306 40.8795 42.4421 40.8941 39.2763 40.9083C36.2047 40.922 33.5247 41.3017 31.0585 42.0725L29.6962 42.4982V26.8727V11.2473H38.1337H46.5712V15.0345ZM41.7372 43.7637C44.1176 43.9813 58.454 46.534 59.0622 46.8485C60.1323 47.4018 60.7606 48.7951 60.4537 49.9347C60.0923 51.2768 59.0436 52.0718 57.6658 52.0479C57.2195 52.0402 53.5353 51.4429 49.4786 50.7206C45.4219 49.9981 42.0833 49.4265 42.0596 49.4502C41.9652 49.5446 41.6017 52.0397 41.6722 52.11C41.878 52.3158 56.9908 54.8836 57.9525 54.8761C59.9439 54.8604 61.7177 53.75 62.7021 51.9029L63.2442 50.8858L70.4526 48.269C76.7688 45.9759 77.7583 45.663 78.4477 45.7407C80.8067 46.0067 81.7109 48.9252 79.9424 50.5652C79.4368 51.034 50.2861 61.6846 48.2411 62.1476C46.3448 62.577 43.7056 62.55 41.0146 62.0734C36.3586 61.2492 32.678 61.7704 29.3597 63.7242L28.3991 64.2897L24.038 58.0595C21.6392 54.6328 19.6766 51.7593 19.6766 51.6739C19.6766 51.464 24.4837 48.1169 26.1452 47.1702C29.3604 45.3378 33.3099 44.1086 37.0512 43.7756C39.2059 43.5837 39.7547 43.5823 41.7372 43.7637ZM21.1987 58.9241C24.6639 63.8768 27.4989 68.0245 27.4989 68.1414C27.4989 68.2581 25.5609 69.7136 23.1923 71.3756C20.8236 73.0376 18.2772 74.8244 17.5339 75.3465L16.1821 76.2959L9.83448 67.2117C6.34329 62.2155 3.4712 58.051 3.45186 57.9573C3.41389 57.7728 14.3594 49.9637 14.6948 49.9361C14.807 49.9268 17.7337 53.9713 21.1987 58.9241Z" fill="#FC7754"/>
</svg>
