<svg width="80" height="80" viewBox="0 0 80 80" fill="none" xmlns="http://www.w3.org/2000/svg">
<path fill-rule="evenodd" clip-rule="evenodd" d="M38.3687 0.100672C36.3801 0.54675 34.5197 1.93523 33.6 3.65944C33.0841 4.62688 33.0365 4.84929 33.0248 6.33825L33.0121 7.96182L31.0569 8.98498C29.8703 9.60589 29.0261 10.155 28.9098 10.3818C28.5671 11.0496 28.6799 11.6697 29.2334 12.1612C30.051 12.8872 30.6775 12.7962 32.9873 11.6161L34.9496 10.6132L35.5798 11.0606C35.9264 11.3066 36.686 11.7026 37.2677 11.9407C38.1875 12.3168 38.5436 12.3733 40 12.3733C41.4564 12.3733 41.8125 12.3168 42.7323 11.9407C43.314 11.7026 44.0764 11.3046 44.4263 11.0562L45.0629 10.6043L55.5319 15.9751L66.0011 21.3457L65.9411 22.5033C65.7991 25.2438 67.2623 27.5287 69.9005 28.6865L71.2013 29.2573V40.0095V50.7617L69.8907 51.3367C67.2318 52.5036 65.7865 54.7797 65.9396 57.559L66.0011 58.6753L55.5393 64.041L45.0774 69.4068L44.2122 68.8254C42.9426 67.9723 41.7797 67.6449 40 67.6396C38.2275 67.6342 37.0807 67.9565 35.7929 68.8221L34.9325 69.4002L27.9032 65.8041C24.0369 63.8261 19.3269 61.4111 17.4363 60.4372L13.9989 58.6664L14.0559 57.4378C14.1232 55.9882 13.7269 54.6792 12.8565 53.4746C12.1154 52.4493 11.264 51.8041 9.90873 51.2409L8.7987 50.7797V40.0095V29.2393L9.90873 28.778C11.264 28.2149 12.1154 27.5697 12.8565 26.5443C13.7269 25.3399 14.1232 24.0307 14.0559 22.5818L13.9989 21.3536L15.938 20.3568C18.1774 19.206 18.6456 18.7215 18.3884 17.822C18.2999 17.5124 18.0144 17.1241 17.7438 16.9458C16.9283 16.4084 16.3006 16.5323 14.1144 17.6621L12.1143 18.6956L11.2486 18.1138C9.94592 17.2382 8.81034 16.9206 7.03592 16.9355C3.80191 16.9627 1.23089 18.624 0.311245 21.2809C-0.722805 24.2682 0.887147 27.4168 4.13966 28.7683L5.27313 29.2393V40.0095V50.7797L4.16311 51.2409C-1.54867 53.6142 -1.32956 60.6945 4.51831 62.7181C5.27313 62.9794 5.92624 63.0741 7.03592 63.0835C8.80998 63.0983 9.94592 62.7808 11.2476 61.906L12.1124 61.3248L22.5622 66.6832L33.0121 72.0418L33.0248 73.6732C33.0365 75.1706 33.0835 75.391 33.6 76.3595C34.3282 77.725 35.599 78.8532 37.1371 79.5002C38.2154 79.9537 38.4812 80 40.0092 80C41.6013 80 41.7661 79.9679 43.0385 79.4096C44.6277 78.7122 45.6116 77.8122 46.4144 76.3218C46.9149 75.393 46.9637 75.1629 46.9752 73.6799L46.9879 72.0554L51.4704 69.7521C53.936 68.4852 58.6392 66.0712 61.922 64.3877L67.8906 61.3269L68.7538 61.9069C70.0541 62.7808 71.1905 63.0983 72.9641 63.0835C76.1981 63.0562 78.7691 61.3949 79.6888 58.738C80.7228 55.7507 79.1128 52.6022 75.8603 51.2507L74.7269 50.7797V40.0095V29.2393L75.8603 28.7683C79.1128 27.4168 80.7228 24.2682 79.6888 21.2809C78.7689 18.6237 76.1974 16.9621 72.9641 16.936C71.1578 16.9214 70.08 17.2177 68.7969 18.082L67.8906 18.6921L61.922 15.6312C58.6392 13.9477 53.9323 11.5319 51.4623 10.2626L46.9713 7.95509L46.9672 6.33481C46.9633 4.8482 46.9179 4.63064 46.4148 3.69716C45.1972 1.43812 43.0595 0.123681 40.4204 0.0113002C39.6559 -0.0212557 38.7327 0.0189696 38.3687 0.100672ZM41.6984 3.49071C42.0732 3.66257 42.6177 4.10238 42.9086 4.46801C43.3683 5.04604 43.4374 5.26892 43.4374 6.17579C43.4374 7.42402 42.995 8.1822 41.8862 8.83363C40.9027 9.4115 39.1812 9.43404 38.1813 8.88215C36.2685 7.82628 35.9343 5.42888 37.5057 4.03367C37.8686 3.7114 38.4396 3.36643 38.7743 3.26704C39.6106 3.01896 40.8819 3.11616 41.6984 3.49071ZM22.3586 13.5458C21.1542 14.6151 22.2708 16.4695 23.9248 16.147C24.9525 15.9466 25.5298 15.0131 25.1907 14.1005C24.8002 13.0501 23.2572 12.7478 22.3586 13.5458ZM38.8418 17.1565C38.267 17.416 33.2374 19.9699 27.6654 22.832C20.4324 26.5472 17.4705 28.1477 17.3115 28.4271C16.9874 28.997 16.9874 51.022 17.3115 51.5919C17.4705 51.8713 20.4334 53.4726 27.6654 57.1882C33.2374 60.0508 38.2846 62.6103 38.8812 62.8759L39.9658 63.3588L40.7321 63.0559C41.8927 62.597 62.0711 52.2294 62.4755 51.8841C62.8219 51.5884 62.8281 51.3785 62.8281 40.0095C62.8281 28.6404 62.8219 28.4305 62.4755 28.1349C62.1771 27.8801 42.7002 17.825 41.1458 17.1232C40.1336 16.6661 39.9223 16.6691 38.8418 17.1565ZM8.67636 20.362C10.0499 20.9418 10.8204 22.4888 10.4115 23.8461C9.94628 25.3905 8.78107 26.1596 6.91428 26.1548C5.99076 26.1523 5.70854 26.0803 5.07693 25.6852C4.13737 25.0976 3.51035 24.0749 3.51035 23.1302C3.51035 21.8241 4.5652 20.5104 5.92272 20.126C6.63383 19.9247 7.89651 20.0329 8.67636 20.362ZM74.9005 20.5029C75.9515 21.1203 76.4015 21.9006 76.4015 23.1055C76.4015 24.3027 75.9511 25.0919 74.9255 25.6918C72.6302 27.0341 69.4385 25.5296 69.4385 23.1055C69.4385 21.92 70.5826 20.4647 71.7673 20.1427C72.6916 19.8915 74.1444 20.0585 74.9005 20.5029ZM43.4408 21.8909C45.3301 22.8585 46.856 23.7031 46.8313 23.7679C46.8068 23.8327 42.8809 25.8863 38.1069 28.3318L29.4272 32.7779L25.9072 30.9721L22.3873 29.1663L31.1496 24.6597C35.9689 22.1809 39.933 20.1482 39.9588 20.1423C39.9845 20.1365 41.5514 20.9233 43.4408 21.8909ZM54.1617 27.3891L57.6254 29.1685L48.8726 33.6566C44.0586 36.125 40.0317 38.1239 39.924 38.0987C39.6795 38.0416 32.9704 34.6215 33.0167 34.5775C33.1225 34.4772 50.4974 25.6098 50.5883 25.6098C50.6486 25.6098 52.2568 26.4105 54.1617 27.3891ZM30.1652 36.7586L38.2228 40.8703L38.23 49.9184L38.2372 58.9664L37.2104 58.4486C36.6456 58.1639 32.68 56.1348 28.3979 53.9396L20.612 49.9484L20.6106 40.9005L20.6094 31.8528L21.3585 32.2499C21.7707 32.4683 25.7336 34.4972 30.1652 36.7586ZM59.3906 40.9107V49.9508L51.1496 54.1696C46.6171 56.49 42.6509 58.5213 42.3357 58.6837L41.7628 58.9792L41.7711 49.9248L41.7794 40.8703L50.5409 36.3844C55.3598 33.9172 59.3224 31.8923 59.3466 31.8844C59.3707 31.8768 59.3906 35.9386 59.3906 40.9107ZM53.1846 45.3192C50.1967 46.7741 46.8927 48.5462 46.5664 48.8691C46.0044 49.4252 46.04 50.2084 46.6545 50.8072C47.5678 51.6972 47.8232 51.6415 51.6344 49.7201C53.525 48.7669 55.2502 47.808 55.4684 47.5894C55.735 47.3222 55.8651 46.9922 55.8651 46.5833C55.8651 45.331 54.4913 44.6831 53.1846 45.3192ZM8.67636 54.17C10.0499 54.7498 10.8204 56.2968 10.4115 57.6541C9.9498 59.1871 8.77914 59.9673 6.94743 59.9633C6.14677 59.9614 5.72564 59.8711 5.21672 59.5917C3.27484 58.5261 2.95965 56.1503 4.57049 54.72C4.94948 54.3835 5.52045 54.0378 5.83916 53.9515C6.637 53.736 7.87342 53.8312 8.67636 54.17ZM74.9005 54.3109C75.7948 54.8362 76.3178 55.6368 76.4369 56.6624C76.7676 59.5061 72.7899 61.1414 70.4962 59.1048C68.6807 57.4928 69.383 54.7614 71.8183 53.9627C72.6429 53.6923 74.1346 53.8608 74.9005 54.3109ZM41.6984 71.1068C42.0732 71.2786 42.6177 71.7184 42.9086 72.0841C43.3683 72.6621 43.4374 72.885 43.4374 73.7918C43.4374 75.0401 42.995 75.7983 41.8862 76.4497C40.9027 77.0275 39.1812 77.0501 38.1813 76.4982C36.8469 75.7616 36.2199 74.2991 36.6419 72.9077C36.8846 72.1072 37.964 71.0823 38.8032 70.8556C39.63 70.6322 40.9048 70.7427 41.6984 71.1068Z" fill="#7B3FE4"/>
</svg>
