<svg width="51" height="51" viewBox="0 0 51 51" fill="none" xmlns="http://www.w3.org/2000/svg">
<path fill-rule="evenodd" clip-rule="evenodd" d="M23.0833 0.0619141C15.1029 0.891806 8.1151 5.23167 3.86638 11.9967C0.725845 16.9973 -0.597023 23.2545 0.251284 29.0959C0.462987 30.5535 1.061 32.946 1.53596 34.2354C1.99207 35.4738 3.21263 37.9778 3.84644 38.9756C5.882 42.1803 8.86099 45.1616 12.0633 47.1987C13.0634 47.835 15.5673 49.0566 16.7934 49.5067C18.1672 50.0109 20.5411 50.598 22.085 50.8153C23.6666 51.0381 27.2709 51.065 28.7163 50.865C35.3402 49.9485 41.0856 46.7501 45.3227 41.6202C47.7261 38.7102 49.7626 34.443 50.4977 30.7758C50.922 28.6592 51 27.8412 51 25.5033C51 22.5009 50.6858 20.3881 49.8497 17.7693C48.6075 13.8778 46.5559 10.4993 43.6468 7.55479C39.6657 3.52508 34.7327 1.03541 29.0653 0.195639C27.842 0.014312 24.3016 -0.0647252 23.0833 0.0619141ZM28.9093 1.89953C32.9896 2.497 37.0642 4.25219 40.3271 6.81801C41.3136 7.59381 43.6187 9.9298 44.3387 10.8834C45.8777 12.9219 47.2749 15.4799 47.9983 17.5832C48.9331 20.3012 49.3008 22.5368 49.3008 25.5033C49.3008 29.4003 48.5924 32.5027 46.9196 35.9319C45.67 38.4935 44.4139 40.2455 42.335 42.3259C40.2573 44.4052 38.508 45.6616 35.9459 46.9149C33.6308 48.0472 31.4723 48.7154 28.816 49.1215C27.2111 49.367 23.8296 49.3638 22.1847 49.1154C16.8964 48.3165 12.1268 45.8788 8.4696 42.1056C6.57255 40.1485 5.30981 38.3515 4.13094 35.9319C3.00681 33.6243 2.29562 31.3354 1.92805 28.8415C1.68075 27.1635 1.68344 23.797 1.93344 22.1602C2.75881 16.7566 5.22934 11.9764 9.11617 8.26263C13.1016 4.45457 17.9366 2.29452 23.7802 1.71132C24.5905 1.63038 27.9012 1.75193 28.9093 1.89953ZM23.8799 3.41002C20.6766 3.74862 18.3623 4.38851 15.8027 5.64312C9.18927 8.88495 4.76575 14.973 3.62038 22.4097C3.38075 23.9654 3.38125 27.0107 3.62138 28.597C4.72945 35.9174 9.2145 42.1213 15.703 45.3089C18.9932 46.9251 21.8883 47.5997 25.5253 47.5974C29.1919 47.5951 32.0407 46.9397 35.2478 45.3609C37.6629 44.172 39.5994 42.762 41.4304 40.8592C44.701 37.4605 46.6993 33.3753 47.4286 28.597C47.6683 27.0263 47.6683 23.9804 47.4286 22.4097C46.6951 17.6045 44.6895 13.519 41.3846 10.0983C39.582 8.23249 37.6107 6.80134 35.2478 5.64312C33.0944 4.5875 30.9686 3.92157 28.7163 3.59694C27.6746 3.44685 24.6409 3.32959 23.8799 3.41002ZM24.6278 6.34278V7.64011H23.6261C22.6955 7.64011 22.607 7.65748 22.3797 7.88511C22.0365 8.2284 22.0544 8.67269 22.4263 9.04492C22.7079 9.32674 22.7502 9.33662 23.6728 9.33662H24.6278V10.5725V11.8082L23.6186 11.8488C22.6631 11.8873 22.5966 11.9041 22.3721 12.1654C22.2406 12.3183 22.1348 12.57 22.1348 12.7296C22.1348 12.8893 22.2406 13.141 22.3721 13.2939C22.5966 13.5551 22.6631 13.572 23.6186 13.6104L24.6278 13.651V14.9238V16.1967L24.0533 16.2617C23.2075 16.3575 21.6457 16.9285 20.7136 17.4828C19.6164 18.1353 18.1628 19.59 17.5109 20.6879C16.957 21.6208 16.3864 23.1838 16.2906 24.0303L16.2257 24.6052H14.9538H13.682L13.6414 23.5952C13.603 22.6389 13.5862 22.5725 13.3251 22.3477C13.1723 22.2162 12.9208 22.1103 12.7613 22.1103C12.6017 22.1103 12.3502 22.2162 12.1975 22.3477C11.9364 22.5725 11.9196 22.6389 11.8812 23.5952L11.8406 24.6052H10.6058H9.37085V23.6495C9.37085 22.7262 9.36098 22.6838 9.07938 22.402C8.70743 22.0298 8.26348 22.0119 7.92045 22.3553C7.69299 22.5828 7.67564 22.6714 7.67564 23.6027V24.6052H6.40043H5.12523L5.2079 23.6322C6.02848 13.9775 13.9073 6.07843 23.6306 5.16191C24.1517 5.11282 24.5892 5.06651 24.6029 5.05903C24.6165 5.05154 24.6278 5.62925 24.6278 6.34278ZM29.3315 5.44583C38.2437 7.13236 45.0807 14.6816 45.8473 23.6821L45.9259 24.6052H44.6504H43.3749V23.6027C43.3749 22.6714 43.3576 22.5828 43.1301 22.3553C42.7697 21.9947 42.2715 22.0206 41.9379 22.4174C41.7001 22.7001 41.6797 22.7987 41.6797 23.6648V24.6052H40.4448H39.21L39.1694 23.5952C39.131 22.6389 39.1141 22.5725 38.8531 22.3477C38.5011 22.0448 38.0775 22.0448 37.7255 22.3477C37.4644 22.5725 37.4475 22.6389 37.4091 23.5952L37.3686 24.6052H36.1017H34.8349L34.721 23.8723C34.562 22.8487 34.0827 21.5862 33.4794 20.6016C32.799 19.491 31.4249 18.1262 30.3396 17.4828C29.4034 16.9279 27.8416 16.3574 26.9972 16.2617L26.4227 16.1967V14.9238V13.651L27.432 13.6104C28.3875 13.572 28.4539 13.5551 28.6785 13.2939C28.8099 13.141 28.9157 12.8893 28.9157 12.7296C28.9157 12.57 28.8099 12.3183 28.6785 12.1654C28.4539 11.9041 28.3875 11.8873 27.432 11.8488L26.4227 11.8082V10.5725V9.33662H27.3777C28.3003 9.33662 28.3426 9.32674 28.6242 9.04492C28.9962 8.67269 29.014 8.2284 28.6709 7.88511C28.4435 7.65748 28.3551 7.64011 27.4244 7.64011H26.4227V6.36364V5.08717L27.3451 5.16581C27.8524 5.20912 28.7464 5.33506 29.3315 5.44583ZM24.6278 19.5688C24.6278 20.7851 24.6658 21.3097 24.7726 21.5652C25.0531 22.2373 25.9196 22.263 26.248 21.6092C26.3933 21.32 26.4224 20.9828 26.4225 19.5905C26.4227 17.664 26.3257 17.7941 27.5164 18.1243C30.1732 18.8611 32.1629 20.8539 32.9002 23.5161C33.2282 24.7008 33.3551 24.6052 31.4553 24.6052C30.24 24.6052 29.7158 24.6432 29.4604 24.7501C28.7889 25.0308 28.7631 25.8979 29.4165 26.2266C29.7054 26.372 30.0423 26.4012 31.4336 26.4013C33.3581 26.4015 33.2283 26.3052 32.9002 27.4905C32.1671 30.1376 30.156 32.1503 27.511 32.8838C26.3272 33.2122 26.4227 33.3391 26.4227 31.4379C26.4227 30.2216 26.3848 29.697 26.278 29.4414C25.9974 28.7694 25.131 28.7437 24.8025 29.3975C24.6572 29.6866 24.6281 30.0238 24.628 31.4162C24.6278 33.3432 24.7258 33.2126 23.5289 32.8812C20.9184 32.1587 18.8763 30.112 18.1504 27.4905C17.8223 26.3059 17.6955 26.4015 19.5952 26.4015C20.8106 26.4015 21.3348 26.3635 21.5902 26.2566C22.2617 25.9759 22.2874 25.1087 21.6341 24.78C21.3452 24.6346 21.0082 24.6055 19.6169 24.6054C17.6925 24.6052 17.8222 24.7015 18.1504 23.5161C18.8683 20.9239 20.8361 18.925 23.4312 18.1523C24.7254 17.767 24.6278 17.6514 24.6278 19.5688ZM24.9443 24.9359C24.4437 25.4693 24.8145 26.3017 25.5527 26.3017C26.0276 26.3017 26.323 25.9949 26.323 25.5019C26.323 24.7812 25.4327 24.4157 24.9443 24.9359ZM7.67564 27.4039C7.67564 28.3353 7.69299 28.4238 7.92045 28.6514C8.26348 28.9948 8.70743 28.9769 9.07938 28.6047C9.36098 28.3228 9.37085 28.2805 9.37085 27.3572V26.4015H10.6058H11.8406L11.8812 27.4115C11.9196 28.3677 11.9364 28.4342 12.1975 28.6589C12.3502 28.7905 12.6017 28.8964 12.7613 28.8964C12.9208 28.8964 13.1723 28.7905 13.3251 28.6589C13.5862 28.4342 13.603 28.3677 13.6414 27.4115L13.682 26.4015H14.9538H16.2257L16.2906 26.9764C16.3865 27.8239 16.9574 29.3868 17.5109 30.3168C18.1607 31.4085 19.5309 32.7925 20.6273 33.4643C21.6119 34.0677 22.8737 34.5471 23.8955 34.7061L24.6278 34.8201V36.0878V37.3556L23.6186 37.3963C22.6631 37.4347 22.5966 37.4515 22.3721 37.7128C22.0693 38.0651 22.0693 38.489 22.3721 38.8413C22.5966 39.1025 22.6631 39.1194 23.6186 39.1578L24.6278 39.1984V40.4342V41.6701H23.6882C22.8227 41.6701 22.7242 41.6905 22.4417 41.9284C22.0452 42.2623 22.0193 42.7609 22.3797 43.1216C22.607 43.3492 22.6955 43.3666 23.6261 43.3666H24.6278V44.6427V45.9189L23.6556 45.8362C13.9805 45.0126 6.03048 37.037 5.20321 27.3246L5.12463 26.4015H6.40014H7.67564V27.4039ZM37.4091 27.4115C37.4475 28.3677 37.4644 28.4342 37.7255 28.6589C37.8782 28.7905 38.1297 28.8964 38.2893 28.8964C38.4488 28.8964 38.7003 28.7905 38.8531 28.6589C39.1141 28.4342 39.131 28.3677 39.1694 27.4115L39.21 26.4015H40.4448H41.6797V27.3572C41.6797 28.2805 41.6896 28.3228 41.9712 28.6047C42.3431 28.9769 42.7871 28.9948 43.1301 28.6514C43.3576 28.4238 43.3749 28.3353 43.3749 27.4039V26.4015H44.6504H45.9259L45.8473 27.3246C45.2207 34.6817 40.4572 41.2778 33.6384 44.2305C31.6243 45.1027 29.4367 45.6624 27.3451 45.8409L26.4227 45.9195V44.643V43.3666H27.4244C28.3551 43.3666 28.4435 43.3492 28.6709 43.1216C29.014 42.7783 28.9962 42.334 28.6242 41.9618C28.3426 41.6799 28.3003 41.6701 27.3777 41.6701H26.4227V40.4342V39.1984L27.432 39.1578C28.3875 39.1194 28.4539 39.1025 28.6785 38.8413C28.8099 38.6884 28.9157 38.4367 28.9157 38.277C28.9157 38.1174 28.8099 37.8657 28.6785 37.7128C28.4539 37.4515 28.3875 37.4347 27.432 37.3963L26.4227 37.3556V36.0878V34.8201L27.1551 34.7061C30.2672 34.2219 33.1976 31.7657 34.2996 28.7179C34.4687 28.2501 34.6584 27.5374 34.721 27.1344L34.8349 26.4015H36.1017H37.3686L37.4091 27.4115Z" fill="#FCB900"/>
</svg>
