<svg width="58" height="66" viewBox="0 0 58 66" fill="none" xmlns="http://www.w3.org/2000/svg">
<path fill-rule="evenodd" clip-rule="evenodd" d="M29.5666 0.304587C29.2642 0.608643 29.2516 0.689045 29.2516 2.31077C29.2516 3.93249 29.2642 4.01289 29.5666 4.31694C29.9313 4.68398 30.1476 4.70824 30.6635 4.43994C31.137 4.19357 31.2127 3.8073 31.1556 1.92566C31.1152 0.589672 31.0891 0.462036 30.809 0.234251C30.397 -0.101037 29.9441 -0.0753544 29.5666 0.304587ZM21.4587 1.37988C21.1085 1.43486 20.784 1.87185 20.784 2.28857C20.784 2.58424 21.2937 4.442 21.5793 5.18717C21.8201 5.81542 22.5614 5.99635 23.0993 5.55834C23.4835 5.24538 23.4622 4.84427 22.9742 3.20319C22.4795 1.53978 22.2439 1.25638 21.4587 1.37988ZM13.333 5.39818C13.1267 5.6057 12.9579 5.89272 12.9579 6.03623C12.9579 6.17961 13.3764 6.92194 13.8881 7.68596C14.9428 9.26096 15.2943 9.50165 15.89 9.0564C16.1222 8.88269 16.2417 8.66059 16.268 8.35344C16.2999 7.98111 16.1544 7.67241 15.4165 6.54613C14.5951 5.29248 14.3202 5.03114 13.8141 5.02275C13.7557 5.02172 13.5393 5.19066 13.333 5.39818ZM42.6483 7.32925C42.0539 7.69383 41.8246 8.30491 41.8246 9.52475V10.5696L41.4077 10.7479C40.992 10.9258 40.9884 10.9241 40.2209 10.1822C39.0817 9.0808 38.6751 8.94258 37.804 9.36046C37.3864 9.56076 37.3218 9.55521 36.3563 9.2367C32.7133 8.03505 28.3425 7.88109 24.6288 8.82346C17.59 10.6097 11.8043 15.8308 9.39335 22.5726C8.44768 25.2171 8.06997 27.4099 8.07062 30.2514C8.07113 32.9109 8.33401 34.6316 9.11739 37.103C10.1652 40.4089 11.8699 43.1727 14.4902 45.8133C16.3478 47.6854 17.8959 48.8346 20.0457 49.9377L21.1678 50.5133L21.1683 52.2772L21.1689 54.0413L20.7159 54.3229C20.4667 54.4777 20.1348 54.8455 19.9785 55.1401C19.7283 55.6109 19.694 55.8703 19.6938 57.2887C19.6935 59.1177 19.8099 59.4723 20.6133 60.089C21.0318 60.4102 21.2106 60.4556 22.2171 60.4956L23.35 60.5408V62.468C23.35 64.6756 23.4526 65.0605 24.1923 65.6281L24.6771 66H29.7775C34.7287 66 34.8882 65.9923 35.2321 65.7339C36.0554 65.1157 36.1098 64.9393 36.1796 62.668L36.2437 60.5796L37.3343 60.5097C38.5329 60.4328 38.8165 60.3227 39.298 59.747C39.8203 59.1226 39.9368 58.5634 39.8762 56.9712C39.8133 55.3196 39.629 54.8514 38.8361 54.331L38.3606 54.0191V52.2559V50.4929L39.028 50.1804C42.5173 48.5468 45.9047 45.5512 48.0246 42.2244C48.8412 40.9428 49.5224 39.5489 49.5224 39.1595C49.5224 38.6543 49.0831 38.2952 48.5225 38.3424C48.0017 38.3861 48.0742 38.2969 46.8605 40.3823C45.2997 43.0639 43.0803 45.4443 40.67 47.022C39.8435 47.5629 38.6126 48.2548 38.4766 48.2548C38.4113 48.2548 38.3606 47.1255 38.3606 45.6736C38.3606 43.1381 38.3654 43.0925 38.6299 43.0925C39.0903 43.0925 39.7079 42.7198 39.97 42.2839C40.1849 41.9264 40.2209 41.6257 40.2209 40.1888C40.2209 38.3626 40.1322 38.0773 39.4102 37.5843C38.9023 37.2376 35.8945 37.2376 35.3866 37.5843C34.6647 38.0773 34.5759 38.3626 34.5759 40.1888C34.5759 41.6044 34.6137 41.9293 34.8179 42.2684C35.1064 42.7478 35.644 43.0925 36.1031 43.0925H36.4362V48.5129V53.9332H35.7306H35.0249V49.9284C35.0249 46.6124 34.9909 45.8416 34.8271 45.4473C34.6976 45.1356 33.3232 43.6525 30.8473 41.1531L27.0654 37.3348L27.3868 37.0311C27.7509 36.6871 27.9064 36.0743 27.7784 35.488C27.6607 34.9496 25.9363 33.1216 25.2142 32.77C24.3188 32.3339 23.8966 32.5186 22.4937 33.9599C21.24 35.2477 21.0391 35.6594 21.2903 36.4251C21.4786 36.9993 23.7151 39.2134 24.1345 39.241C24.6939 39.2776 25.0698 39.2045 25.4464 38.9857L25.8193 38.7691L29.4599 42.5064L33.1005 46.2436V50.0884V53.9332H32.1383H31.176V49.7563C31.176 45.726 31.1667 45.5674 30.9101 45.2394C30.5666 44.8001 29.8924 44.7723 29.5132 45.1818C29.261 45.4541 29.2516 45.6156 29.2516 49.6988V53.9332H27.7762H26.3008V50.4487V46.9642H26.698C27.2146 46.9642 27.8231 46.5209 28.0473 45.9812C28.3136 45.3402 28.2891 42.8154 28.011 42.2257C27.6345 41.4277 27.2366 41.2868 25.3583 41.2863C23.5482 41.2857 23.1827 41.3966 22.7901 42.0652C22.4861 42.5826 22.4861 45.6673 22.7901 46.1847C23.0469 46.6221 23.5969 46.9642 24.0433 46.9642H24.3763V50.4487V53.9332H23.7348H23.0934V51.7953C23.0934 50.5717 23.0367 49.5509 22.9608 49.4084C22.888 49.2715 22.1264 48.8062 21.2685 48.3745C19.001 47.2339 17.6078 46.2263 15.8419 44.4502C12.6771 41.2668 10.7251 37.3587 10.1352 33.0246C9.92347 31.4695 9.9567 28.6652 10.2055 27.0915C11.4412 19.2726 17.0582 12.9193 24.581 10.8318C27.982 9.88804 32.3611 9.94547 35.5195 10.9752L35.9499 11.1155L35.3032 11.7786C34.2126 12.8967 34.2386 13.6138 35.416 14.8798C36.2363 15.7619 36.2564 15.8089 36.0306 16.3073C35.8866 16.6254 35.8432 16.636 34.6817 16.636C33.4944 16.636 33.4765 16.6406 33.0023 17.0775L32.5232 17.519L32.4829 19.7781C32.4378 22.3066 32.5151 22.6327 33.2671 23.094C33.5901 23.2922 33.9132 23.346 34.7798 23.3464C35.836 23.3469 35.888 23.3606 36.0306 23.6756C36.2564 24.174 36.2363 24.221 35.416 25.1031C34.619 25.9601 34.4119 26.4679 34.5681 27.1829C34.6213 27.4268 35.1659 28.0688 36.1521 29.0503C37.7399 30.6306 38.0115 30.8322 38.5531 30.8322C39.0429 30.8322 39.3578 30.6361 40.2209 29.7933C40.9897 29.0428 40.9914 29.042 41.4077 29.2209L41.8246 29.4V30.4516C41.8246 31.6784 42.0528 32.2885 42.6483 32.6537C42.9936 32.8655 43.3165 32.8962 45.2047 32.8966C46.9757 32.897 47.43 32.859 47.7211 32.6859C48.3325 32.3228 48.4961 31.8846 48.4961 30.6103V29.4603L48.9351 29.2498C49.6373 28.913 49.7053 29.1039 49.5799 31.06C49.4402 33.2379 49.4474 33.3741 49.7164 33.6731C49.9808 33.9671 50.6404 34.0148 50.9804 33.7647C51.2548 33.5629 51.439 32.8104 51.4457 31.8646C51.4485 31.4742 51.4932 31.0906 51.545 31.0121C51.5969 30.9336 51.8703 30.8266 52.1525 30.7744C52.5822 30.6949 52.9105 30.4362 54.1707 29.1841C56.2994 27.0693 56.3845 26.6317 54.9566 25.1438L54.1375 24.2905L54.3334 23.8186L54.5295 23.3469L55.6503 23.3464C56.9621 23.3459 57.5054 23.1024 57.8052 22.3803C58.0649 21.7551 58.0649 18.2278 57.8052 17.6026C57.5054 16.8806 56.9621 16.637 55.6503 16.6365L54.5295 16.636L54.3334 16.1643L54.1375 15.6925L54.9566 14.8392C55.8496 13.9085 56.0466 13.4241 55.8167 12.7233C55.6361 12.1731 52.8034 9.33568 52.3103 9.21114C51.6275 9.03885 51.0953 9.25722 50.2419 10.0603C49.365 10.8855 49.3183 10.9058 48.8228 10.6786C48.5081 10.5345 48.4961 10.4862 48.4961 9.37582C48.4961 8.09816 48.3329 7.6604 47.7211 7.29698C47.43 7.12392 46.9757 7.08597 45.2047 7.08636C43.3165 7.08675 42.9936 7.11746 42.6483 7.32925ZM46.5977 10.0219C46.6318 10.6025 46.7479 11.1982 46.8743 11.442C47.1382 11.9513 47.8134 12.4121 48.7294 12.7083C49.6577 13.0084 50.1965 12.8354 51.1576 11.9288L51.8959 11.2323L52.886 12.217L53.876 13.2016L53.1863 13.9289C52.279 14.8859 52.09 15.4781 52.3883 16.43C52.6405 17.2347 53.0392 17.8632 53.5287 18.228C53.7952 18.4267 54.1392 18.5025 54.9721 18.5464L56.0655 18.6042V19.9944V21.3846L54.9975 21.4301C54.1142 21.4677 53.8485 21.5314 53.4613 21.7983C52.9674 22.1384 52.3917 23.2157 52.2568 24.0514C52.1619 24.6399 52.5588 25.4473 53.3056 26.1846L53.8871 26.7587L52.8987 27.7587L51.9103 28.7588L51.1872 28.065C50.2124 27.1297 49.6365 26.9533 48.6546 27.2889C47.1303 27.8102 46.6871 28.3827 46.597 29.9467L46.5386 30.9612H45.1439H43.7491V29.8834C43.7491 28.5942 43.5033 28.1185 42.5944 27.6493C41.0714 26.8629 40.4319 26.9315 39.3267 27.9989L38.5394 28.7595L37.5234 27.7315L36.5074 26.7034L37.2438 25.9548C38.2053 24.9774 38.3305 24.4425 37.8843 23.2185C37.367 21.7995 36.79 21.4133 35.1853 21.4119L34.3834 21.4111V19.9915V18.5718L35.1853 18.5711C36.7893 18.5697 37.4066 18.1411 37.9358 16.6616C38.3603 15.4749 38.0903 14.667 36.8945 13.5451L36.5574 13.2289L37.548 12.2265L38.5387 11.2242L39.2618 11.918C40.4294 13.0382 41.0187 13.1033 42.6311 12.2904C43.5202 11.8422 43.7481 11.393 43.7486 10.0864L43.7491 9.02169H45.1439H46.5386L46.5977 10.0219ZM6.87117 11.2444C6.76135 11.4021 6.67142 11.7195 6.67142 11.9496C6.67142 12.322 6.81511 12.4892 7.97863 13.4696C8.74097 14.1119 9.40221 14.5711 9.56501 14.5711C10.0456 14.5711 10.5203 14.0909 10.5203 13.6047C10.5203 13.1298 10.2264 12.7989 8.74776 11.6094C7.81402 10.8583 7.2204 10.7428 6.87117 11.2444ZM43.557 13.4891C43.1338 13.5921 42.4121 13.9023 41.9533 14.1788C39.8165 15.466 38.6172 17.5275 38.6172 19.9134C38.6172 21.9081 39.339 23.5835 40.7691 24.9089C43.4127 27.3585 47.2871 27.278 49.8294 24.7206C51.5137 23.0264 52.2147 20.6113 51.646 18.462C51.4145 17.5874 51.1429 17.2813 50.5981 17.2813C49.9899 17.2813 49.6097 17.7207 49.7044 18.3137C49.9462 19.8264 49.9381 20.4883 49.6673 21.366C49.3172 22.5004 48.6776 23.3636 47.7309 23.979C45.3605 25.5202 42.2811 24.6461 41.0228 22.0749C40.6409 21.2945 40.6058 21.1197 40.6058 19.9942C40.6058 18.9189 40.6507 18.6688 40.9651 17.9911C41.4346 16.9786 42.3054 16.1002 43.2859 15.6495C43.9365 15.3503 44.2443 15.2893 45.0962 15.2899C45.6607 15.2905 46.4184 15.3394 46.7801 15.3987C47.3614 15.4941 47.4694 15.4748 47.7102 15.2325C48.0501 14.8906 48.0736 14.1775 47.7546 13.8871C47.1482 13.335 45.0204 13.1333 43.557 13.4891ZM23.7044 16.7089C23.0813 17.0491 22.9651 17.475 22.9651 19.4195V21.1833L23.4631 21.6844L23.9613 22.1854L25.6762 22.1849C27.1279 22.1845 27.452 22.1472 27.7864 21.942C28.4342 21.5448 28.6101 20.9922 28.6101 19.3548C28.6101 17.758 28.4651 17.2317 27.9027 16.7867C27.5785 16.5302 27.4043 16.5073 25.8023 16.5121C24.5085 16.516 23.9645 16.567 23.7044 16.7089ZM43.8132 16.9397C43.053 17.2965 42.3074 18.0839 42.0697 18.7808C41.8445 19.4412 41.8648 20.7146 42.1098 21.2914C42.8569 23.0501 44.9918 23.8563 46.6717 23.0142C47.834 22.4317 48.5217 21.308 48.5217 19.9915C48.5217 17.5243 46.0208 15.9034 43.8132 16.9397ZM2.73464 18.4437C2.14691 18.6819 1.99847 19.5244 2.46971 19.9477C2.86563 20.3035 5.19434 21.282 5.64492 21.282C6.06457 21.282 6.54312 20.7701 6.54312 20.3211C6.54312 19.853 6.11628 19.5362 4.64395 18.9109C3.13146 18.2688 3.15314 18.2741 2.73464 18.4437ZM26.6857 19.3462V20.2496H25.7876H24.8895V19.3462V18.4428H25.7876H26.6857V19.3462ZM46.1768 18.969C46.8537 19.6499 46.6812 20.8354 45.8424 21.2669C45.0999 21.6488 44.1408 21.2458 43.8766 20.441C43.4149 19.0334 45.142 17.928 46.1768 18.969ZM19.4304 24.0633C18.688 24.4319 18.5388 24.8853 18.5388 26.7727C18.5388 28.6078 18.6327 28.9144 19.3368 29.3785C19.8444 29.713 22.8783 29.713 23.3859 29.3785C24.09 28.9144 24.1839 28.6078 24.1839 26.7727C24.1839 24.873 24.0322 24.4217 23.2721 24.0588C22.7003 23.7858 19.9828 23.7891 19.4304 24.0633ZM22.2594 26.7669V27.6703H21.3614H20.4633L20.4243 26.9104C20.3672 25.798 20.3823 25.7809 21.3916 25.8253L22.2594 25.8635V26.7669ZM28.1861 26.2975C27.4565 26.7814 27.3913 26.9964 27.3913 28.9192C27.3913 30.5095 27.4178 30.7203 27.6603 31.0486C27.953 31.4449 28.3481 31.6837 28.8988 31.797L29.2516 31.8695V35.0046C29.2516 37.9813 29.2648 38.1539 29.5132 38.4221C29.8924 38.8316 30.5666 38.8039 30.9101 38.3646C31.1622 38.0422 31.176 37.8648 31.176 34.9584C31.176 31.6722 31.1633 31.7356 31.8237 31.7356C31.9567 31.7356 32.2695 31.5304 32.5189 31.2796L32.9722 30.8235V29.0088C32.9722 26.2691 32.7674 26.0566 30.1303 26.058C28.8051 26.0587 28.4871 26.0979 28.1861 26.2975ZM0.687284 26.8307C0.358845 26.9636 0 27.4469 0 27.7564C0 27.8786 0.129836 28.1263 0.288667 28.3068C0.545388 28.5986 0.751432 28.6563 2.15025 28.8268C3.9142 29.0419 4.24417 28.978 4.49333 28.3729C4.83203 27.5504 4.34553 27.1416 2.81149 26.9596C2.21773 26.8891 1.5588 26.8063 1.34711 26.7754C1.13542 26.7445 0.838545 26.7694 0.687284 26.8307ZM31.0477 28.9668V29.9405L30.1817 29.9025L29.3157 29.8643L29.278 28.9286L29.2403 27.9929H30.144H31.0477V28.9668ZM25.1832 35.3215L25.788 35.9392L25.1464 36.5749L24.5046 37.2108L23.8629 36.5749L23.2213 35.9392L23.8261 35.3215C24.1587 34.9819 24.4641 34.7039 24.5046 34.7039C24.5452 34.7039 24.8505 34.9819 25.1832 35.3215ZM2.33346 35.2156C1.67645 35.3406 0.996607 35.5198 0.822637 35.6133C0.190777 35.9535 0.277377 36.9535 0.962223 37.2255C1.47502 37.4292 4.21043 36.9469 4.6111 36.582C4.99946 36.2285 4.9634 35.5666 4.5372 35.2295C4.13961 34.9149 3.91958 34.9135 2.33346 35.2156ZM38.2323 40.2533V41.1567H37.3343H36.4362V40.2533V39.3499H37.3343H38.2323V40.2533ZM4.93941 43.111C3.35534 43.9251 3.20741 44.0518 3.20741 44.5967C3.20741 45.1148 3.5864 45.5446 4.04352 45.5446C4.48627 45.5446 7.14226 44.1877 7.30751 43.8769C7.64057 43.2509 7.20423 42.4448 6.53491 42.4494C6.36299 42.4506 5.64504 42.7483 4.93941 43.111ZM26.3008 44.125V45.0284H25.4027H24.5046V44.125V43.2216H25.4027H26.3008V44.125ZM9.57951 49.9002C8.20533 51.2223 8.20725 51.2196 8.24356 51.7265C8.28513 52.304 8.80075 52.7161 9.31856 52.5854C9.52152 52.5341 10.1799 51.9984 10.8266 51.3583C11.7833 50.4114 11.9743 50.1554 11.9743 49.821C11.9743 49.2671 11.6111 48.9001 11.063 48.9001C10.6843 48.9001 10.4664 49.0469 9.57951 49.9002ZM37.8979 56.0733C37.999 56.3382 37.999 58.1101 37.8979 58.3751C37.828 58.5582 36.9917 58.5793 29.7648 58.5793C22.5378 58.5793 21.7016 58.5582 21.6317 58.3751C21.4885 57.9999 21.5473 56.1854 21.7078 56.024C21.8243 55.9068 23.8059 55.8691 29.8409 55.8691C36.9984 55.8691 37.8281 55.8901 37.8979 56.0733ZM34.2552 60.9023V61.2895H29.7648H25.2744V60.9023V60.5151H29.7648H34.2552V60.9023ZM34.2552 63.677V64.1287H29.7648H25.2744V63.677V63.2253H29.7648H34.2552V63.677Z" fill="#DD6F6F"/>
</svg>
