<svg width="20" height="20" viewBox="0 0 20 20" fill="none" xmlns="http://www.w3.org/2000/svg">
<path fill-rule="evenodd" clip-rule="evenodd" d="M9.7626 0.0887367C9.67647 0.138745 9.17701 0.462311 8.65265 0.807795L7.6993 1.4359L7.49776 1.41895C6.69799 1.35159 5.16176 1.28846 5.0808 1.31963C5.02893 1.3396 4.94859 1.39738 4.90232 1.44801C4.85608 1.49865 4.57136 2.03232 4.26964 2.63398L3.72104 3.7279L2.60433 4.2858C1.39436 4.89028 1.28493 4.96849 1.2894 5.22529C1.29077 5.30421 1.32189 5.89387 1.35853 6.53561L1.42513 7.7024L0.725733 8.76151C0.332484 9.35703 0.0176887 9.87399 0.00653133 9.94256C-0.0194635 10.1024 -0.00403884 10.13 0.764216 11.2939L1.41773 12.2839L1.34867 13.5843C1.28454 14.7926 1.28423 14.8917 1.34413 14.9829C1.43284 15.118 1.51634 15.1658 2.69014 15.753L3.72148 16.2689L4.26983 17.3629C4.82222 18.4648 4.91293 18.6126 5.0752 18.6751C5.15111 18.7044 6.59817 18.645 7.45603 18.5774L7.6941 18.5586L8.70531 19.223C9.83197 19.9632 9.8948 20 10.0306 20C10.0891 20 10.5504 19.7209 11.2168 19.2823L12.3073 18.5646L13.5954 18.6378C14.8292 18.7078 14.8886 18.708 15.0047 18.6417C15.1048 18.5846 15.2287 18.3709 15.7132 17.4207L16.3004 16.2689L17.434 15.6968C18.0575 15.3821 18.5992 15.0857 18.6379 15.038C18.7268 14.9284 18.7281 14.6979 18.6474 13.3236L18.5869 12.2927L19.2935 11.2308C19.9165 10.2945 20 10.1503 20 10.0115C20 9.83715 19.9592 9.7671 19.0901 8.45099L18.5971 7.70447L18.6699 6.43896C18.7384 5.24799 18.7387 5.1654 18.6764 5.0367C18.6164 4.91274 18.5025 4.84503 17.456 4.31143L16.3018 3.7229L15.7139 2.57401C15.2374 1.64297 15.1036 1.4123 15.0078 1.3573C14.8955 1.29287 14.8248 1.29295 13.6 1.3589L12.3104 1.42836L11.2881 0.756733C10.7258 0.387299 10.2285 0.0652174 10.1831 0.0409557C10.0582 -0.0257345 9.93571 -0.0117869 9.7626 0.0887367ZM11.0689 1.61253C11.9846 2.21216 12.0758 2.26283 12.2394 2.26283C12.337 2.26283 12.8921 2.23521 13.4731 2.20145C14.054 2.1677 14.5433 2.15449 14.5604 2.17215C14.5774 2.18981 14.8245 2.66133 15.1094 3.22001C15.3943 3.77869 15.6555 4.26858 15.6899 4.3087C15.7242 4.34878 16.228 4.61883 16.8094 4.90883C17.3907 5.1988 17.8705 5.43974 17.8756 5.44419C17.8807 5.44864 17.8552 5.99271 17.8189 6.65321C17.7727 7.49502 17.765 7.88555 17.793 7.95931C17.8151 8.01717 18.1198 8.49955 18.4703 9.03128L19.1076 9.99803L18.438 11.0183L17.7685 12.0386L17.7686 12.2785C17.7686 12.4104 17.7954 12.9736 17.8281 13.53C17.8608 14.0865 17.8829 14.546 17.877 14.5513C17.8712 14.5565 17.3907 14.798 16.8094 15.088C16.228 15.378 15.724 15.6481 15.6893 15.6881C15.6546 15.7283 15.3914 16.2244 15.1045 16.7906C14.8176 17.3569 14.5614 17.8284 14.5353 17.8384C14.5091 17.8484 14.013 17.829 13.4327 17.7953C12.8525 17.7616 12.3068 17.734 12.22 17.734C12.0819 17.734 11.94 17.8143 11.077 18.3806C10.5351 18.7362 10.0686 19.036 10.0405 19.0468C10.0123 19.0575 9.52704 18.7633 8.96208 18.3928L7.9349 17.7193L6.70023 17.7866C6.02115 17.8237 5.46101 17.849 5.45545 17.8428C5.44989 17.8367 5.21253 17.3658 4.92796 16.7964C4.64339 16.2269 4.38156 15.7283 4.34617 15.6881C4.31074 15.6481 3.80611 15.378 3.22476 15.088C2.6434 14.798 2.16081 14.5543 2.15235 14.5465C2.1439 14.5386 2.16711 13.9957 2.20395 13.3398C2.24083 12.684 2.25939 12.111 2.24521 12.0664C2.23104 12.0219 1.93034 11.547 1.57698 11.0112C1.22367 10.4754 0.934553 10.0204 0.934553 10C0.934553 9.97963 1.22171 9.52702 1.57272 8.9942C1.92369 8.46138 2.22415 7.99068 2.2404 7.94822C2.25668 7.90571 2.2402 7.32937 2.20383 6.66743C2.16743 6.00549 2.14445 5.45783 2.15271 5.4504C2.16097 5.44298 2.64876 5.19626 3.2367 4.90215C4.11637 4.46208 4.31912 4.34538 4.38199 4.24299C4.42396 4.17458 4.68093 3.67907 4.95298 3.14187C5.22502 2.60468 5.45224 2.15953 5.45792 2.15269C5.46356 2.14582 5.94289 2.16781 6.52316 2.20153C7.10338 2.23525 7.6656 2.26283 7.77255 2.26283C7.9589 2.26283 8.00858 2.23521 8.96267 1.60101C9.51028 1.237 9.98477 0.944379 10.0171 0.950709C10.0494 0.957038 10.5227 1.25486 11.0689 1.61253ZM8.94552 3.86621C6.54852 4.29495 4.57535 6.10343 3.98365 8.41395C3.78987 9.17068 3.72844 10.1498 3.83121 10.8438C4.2209 13.4747 6.15034 15.5364 8.74473 16.0942C9.30287 16.2142 10.3559 16.2431 10.9175 16.1539C11.8885 15.9997 12.67 15.6977 13.4691 15.1679C16.4444 13.1956 17.1391 9.12993 14.9899 6.26737C14.0764 5.05057 12.7792 4.23005 11.2503 3.90184C10.6754 3.77842 9.53475 3.7608 8.94552 3.86621ZM10.743 4.66418C13.0398 4.9901 14.8216 6.66286 15.3063 8.94798C15.4285 9.52444 15.4285 10.4724 15.3063 11.0489C14.9557 12.7019 13.9397 14.0374 12.4562 14.7951C9.4489 16.3313 5.77185 14.7428 4.83044 11.5008C4.65568 10.899 4.60455 10.4758 4.62769 9.82261C4.65674 9.0026 4.80891 8.36961 5.1443 7.67384C6.16252 5.56147 8.43972 4.33734 10.743 4.66418ZM12.18 8.21103C12.0787 8.30237 11.3757 8.96174 10.6178 9.67634L9.23981 10.9756L8.46376 10.1914C7.74299 9.46307 7.67593 9.40563 7.52243 9.38524C7.37202 9.36532 7.34469 9.37575 7.21903 9.50116C7.06055 9.65931 7.03655 9.83324 7.14969 10.0034C7.1872 10.0599 7.62312 10.5189 8.11835 11.0234C8.70331 11.6193 9.05307 11.9469 9.11664 11.9585C9.35197 12.0014 9.44048 11.9316 10.9622 10.5031C12.7551 8.82019 12.9017 8.67427 12.9356 8.53964C13.0014 8.27784 12.8131 8.04499 12.5356 8.04499C12.389 8.04499 12.3376 8.06898 12.18 8.21103Z" fill="black"/>
</svg>
