<svg width="65" height="27" viewBox="0 0 65 27" fill="none" xmlns="http://www.w3.org/2000/svg">
<path d="M13.1945 0C5.90711 0 0 6.04387 0 13.5C0 20.9561 5.90711 27 13.1945 27C20.4819 27 26.389 20.9561 26.389 13.5C26.389 6.04387 20.4819 0 13.1945 0ZM13.3295 24.2581C13.2594 24.346 13.1279 24.346 13.0577 24.2581L2.4344 10.9572C2.38354 10.8944 2.38178 10.8029 2.42914 10.7365L6.17192 5.54321C6.20524 5.49655 6.2579 5.46963 6.31226 5.46963H20.075C20.1311 5.46963 20.1837 5.49655 20.2153 5.54321L23.9581 10.7365C24.0055 10.8029 24.0037 10.8926 23.9528 10.9572L13.3295 24.2598V24.2581Z" fill="black"/>
<path d="M13.1942 14.2179C13.5814 14.2179 13.8953 13.8966 13.8953 13.5001C13.8953 13.1037 13.5814 12.7823 13.1942 12.7823C12.807 12.7823 12.4932 13.1037 12.4932 13.5001C12.4932 13.8966 12.807 14.2179 13.1942 14.2179Z" fill="black"/>
<path d="M13.5462 8.75175V7.9873H12.8446V8.75175C10.5574 8.92764 8.72619 10.7993 8.55603 13.1393H7.80884V13.8571H8.55603C8.72795 16.1972 10.5574 18.0706 12.8446 18.2447V19.0091H13.5462V18.2447C15.8334 18.0688 17.6645 16.1972 17.8347 13.8571H18.5819V13.1393H17.8347C17.6628 10.7993 15.8334 8.92584 13.5462 8.75175ZM13.5462 17.5268V15.395H12.8446V17.5268C10.945 17.3546 9.42605 15.8024 9.2594 13.8589H11.3432V13.1411H9.2594C9.42781 11.1977 10.945 9.6436 12.8446 9.47317V11.605H13.5462V9.47317C15.4457 9.64539 16.9647 11.1977 17.1313 13.1411H15.0476V13.8589H17.1313C16.963 15.8024 15.4457 17.3564 13.5462 17.5268Z" fill="black"/>
<path d="M31.5915 12.6136C31.5547 12.6136 31.5354 12.5903 31.5354 12.5418L31.5635 2.7492C31.5635 2.71151 31.5827 2.69177 31.6196 2.69177H34.4347C34.9363 2.69177 35.3977 2.81739 35.8204 3.06862C36.2431 3.31985 36.5799 3.65722 36.8307 4.08072C37.0815 4.50422 37.206 4.98156 37.206 5.51273C37.206 5.86445 37.1552 6.18028 37.0534 6.4602C36.9517 6.74019 36.8307 6.97882 36.6903 7.17262C36.5518 7.36823 36.4255 7.51182 36.315 7.60693C36.8166 8.17756 37.0674 8.8469 37.0674 9.61674L37.0815 12.54C37.0815 12.5885 37.0587 12.6118 37.0113 12.6118H35.4362C35.3995 12.6118 35.3801 12.5974 35.3801 12.5687V9.61853C35.3801 9.27581 35.2609 8.9797 35.0241 8.72848C34.7873 8.47726 34.4961 8.35166 34.1541 8.35166H33.235L33.221 12.5418C33.221 12.5903 33.2017 12.6136 33.1649 12.6136H31.5898H31.5915ZM33.235 6.64148H34.433C34.7206 6.64148 34.9767 6.53199 35.1995 6.31308C35.4222 6.09415 35.5345 5.82856 35.5345 5.51452C35.5345 5.20049 35.4258 4.94925 35.2065 4.73033C34.9873 4.5114 34.7312 4.40193 34.433 4.40193H33.235V6.64148Z" fill="black"/>
<path d="M37.7773 12.5434L39.505 2.75078C39.5138 2.7131 39.5366 2.69336 39.5752 2.69336H41.5958C41.6326 2.69336 41.6554 2.7131 41.6659 2.75078L43.3235 12.5434C43.3322 12.5918 43.3147 12.6152 43.2673 12.6152H41.7203C41.6835 12.6152 41.6607 12.5918 41.6502 12.5434L41.4975 11.5025H39.6033L39.4507 12.5434C39.4419 12.5918 39.4173 12.6152 39.3805 12.6152H37.8335C37.7966 12.6152 37.7773 12.5918 37.7773 12.5434ZM41.2204 9.97723L40.6486 5.97191L40.5644 5.44433L40.5083 5.97191L39.8804 9.97723H41.2204Z" fill="black"/>
<path d="M44.2547 12.6136C44.2178 12.6136 44.1985 12.5903 44.1985 12.5418L44.2266 2.7492C44.2266 2.71151 44.2459 2.69177 44.2827 2.69177H47.0979C47.5995 2.69177 48.0608 2.81739 48.4835 3.06862C48.9062 3.31985 49.243 3.65722 49.4938 4.08072C49.7447 4.50422 49.8692 4.98156 49.8692 5.51273C49.8692 5.86445 49.8183 6.18028 49.7166 6.4602C49.6149 6.74019 49.4938 6.97882 49.3535 7.17262C49.215 7.36823 49.0887 7.51182 48.9781 7.60693C49.4798 8.17756 49.7306 8.8469 49.7306 9.61674L49.7447 12.54C49.7447 12.5885 49.7219 12.6118 49.6745 12.6118H48.0994C48.0625 12.6118 48.0433 12.5974 48.0433 12.5687V9.61853C48.0433 9.27581 47.924 8.9797 47.6872 8.72848C47.4504 8.47726 47.1592 8.35166 46.8172 8.35166H45.8981L45.8841 12.5418C45.8841 12.5903 45.8648 12.6136 45.828 12.6136H44.2529H44.2547ZM45.8981 6.64148H47.0961C47.3838 6.64148 47.6399 6.53199 47.8626 6.31308C48.0854 6.09415 48.1976 5.82856 48.1976 5.51452C48.1976 5.20049 48.0889 4.94925 47.8696 4.73033C47.6503 4.5114 47.3943 4.40193 47.0961 4.40193H45.8981V6.64148Z" fill="black"/>
<path d="M50.9839 12.6136C50.9366 12.6136 50.9138 12.5903 50.9138 12.5418L50.9278 2.7492C50.9278 2.71151 50.9471 2.69177 50.9839 2.69177H52.5446C52.5814 2.69177 52.6007 2.71151 52.6007 2.7492L52.6147 12.5418C52.6147 12.5903 52.5954 12.6136 52.5586 12.6136H50.9839Z" fill="black"/>
<path d="M55.2336 12.6136C55.1967 12.6136 55.1774 12.5903 55.1774 12.5418V4.41808H53.3655C53.3182 4.41808 53.2954 4.39476 53.2954 4.34631L53.3094 2.7492C53.3094 2.71151 53.3287 2.69177 53.3655 2.69177H58.6609C58.7064 2.69177 58.731 2.71151 58.731 2.7492V4.34631C58.731 4.39476 58.7117 4.41808 58.6749 4.41808H56.849L56.863 12.5436C56.863 12.5921 56.8437 12.6154 56.8069 12.6154H55.2318L55.2336 12.6136Z" fill="black"/>
<path d="M60.7101 12.6136C60.682 12.6136 60.668 12.5938 60.668 12.5562L60.682 8.50777L58.8158 2.7492C58.807 2.71151 58.821 2.69177 58.8579 2.69177H60.4049C60.4505 2.69177 60.4786 2.71151 60.4891 2.7492L61.5204 6.58407L62.5658 2.7492C62.5746 2.71151 62.5974 2.69177 62.6359 2.69177H64.1973C64.2338 2.69177 64.2481 2.71151 64.239 2.7492L62.3588 8.45029L62.3729 12.5562C62.3729 12.5938 62.3535 12.6136 62.3167 12.6136H60.7101Z" fill="black"/>
<path d="M33.9035 24.161C33.4019 24.161 32.9441 24.0301 32.5319 23.7699C32.118 23.5079 31.7882 23.1615 31.5426 22.729C31.2971 22.2966 31.1743 21.8192 31.1743 21.297V20.642C31.1743 20.5953 31.1971 20.5702 31.2445 20.5702H32.8055C32.8424 20.5702 32.8616 20.5936 32.8616 20.642V21.297C32.8616 21.6111 32.9634 21.8785 33.1686 22.1028C33.3721 22.3271 33.6194 22.4383 33.907 22.4383C34.1947 22.4383 34.4403 22.3235 34.6455 22.0956C34.8489 21.8677 34.9524 21.6021 34.9524 21.297C34.9524 20.9453 34.7297 20.642 34.2841 20.3854C34.1351 20.2993 33.9035 20.1665 33.5878 19.987C33.2721 19.8058 32.9739 19.6353 32.6968 19.4738C32.1864 19.1706 31.8075 18.7865 31.562 18.3271C31.3164 17.8659 31.1919 17.3456 31.1919 16.7659C31.1919 16.2329 31.3164 15.7556 31.5672 15.3339C31.8181 14.9104 32.1495 14.5766 32.5635 14.329C32.9774 14.0813 33.4247 13.9575 33.9088 13.9575C34.3929 13.9575 34.8542 14.0831 35.2682 14.3343C35.6821 14.5856 36.0118 14.923 36.2574 15.3465C36.5029 15.77 36.6258 16.2419 36.6258 16.7641V17.9323C36.6258 17.97 36.6064 17.9898 36.5696 17.9898H35.0086C34.9717 17.9898 34.9524 17.97 34.9524 17.9323L34.9384 16.7641C34.9384 16.4321 34.8366 16.1611 34.6314 15.9512C34.4263 15.743 34.1859 15.6372 33.907 15.6372C33.6282 15.6372 33.3721 15.7484 33.1686 15.9727C32.9634 16.197 32.8616 16.459 32.8616 16.7641C32.8616 17.0692 32.9265 17.3384 33.0563 17.5483C33.1862 17.7583 33.4229 17.9575 33.7668 18.1477C33.8123 18.1764 33.9035 18.2266 34.0386 18.2966C34.1737 18.3684 34.3192 18.4491 34.4771 18.5388C34.635 18.6286 34.777 18.7075 34.9015 18.7739C35.0261 18.8403 35.1033 18.8834 35.1313 18.9014C35.5961 19.167 35.9627 19.4936 36.2328 19.8776C36.5029 20.2634 36.6362 20.7353 36.6362 21.2952C36.6362 21.8551 36.5135 22.3235 36.2662 22.7559C36.0206 23.1884 35.6908 23.5312 35.2769 23.7824C34.863 24.0336 34.4069 24.1593 33.9035 24.1593V24.161Z" fill="black"/>
<path d="M37.7354 24.0177C37.6617 24.0177 37.6232 23.9836 37.6232 23.9172L37.6091 14.2089C37.6091 14.1336 37.646 14.0941 37.7214 14.0941H38.9755L41.3311 19.7109L41.261 14.2089C41.261 14.1336 41.3031 14.0941 41.3855 14.0941H42.7641C42.8202 14.0941 42.8483 14.1318 42.8483 14.2089L42.8624 23.9316C42.8624 23.989 42.8396 24.0177 42.7922 24.0177H41.5661L39.1562 18.7723L39.2544 23.9046C39.2544 23.98 39.2123 24.0195 39.1299 24.0195H37.7372L37.7354 24.0177Z" fill="black"/>
<path d="M44.1441 24.0176C44.0968 24.0176 44.074 23.9943 44.074 23.9458L44.088 14.1532C44.088 14.1155 44.1073 14.0958 44.1441 14.0958H45.7048C45.7416 14.0958 45.7609 14.1155 45.7609 14.1532L45.7749 23.9458C45.7749 23.9943 45.7556 24.0176 45.7188 24.0176H44.1441Z" fill="black"/>
<path d="M47.0694 24.0176C47.022 24.0176 46.9993 23.9943 46.9993 23.9458L47.0273 14.1532C47.0273 14.1155 47.0467 14.0958 47.0835 14.0958H49.7583C50.6125 14.0958 51.2878 14.3614 51.7859 14.8944C52.2823 15.4273 52.5314 16.1487 52.5314 17.0603C52.5314 17.735 52.4016 18.32 52.142 18.8135C51.8824 19.3071 51.5422 19.6875 51.1247 19.953C50.7072 20.2186 50.2512 20.3514 49.7583 20.3514H48.6989V23.944C48.6989 23.9925 48.6761 24.0158 48.6287 24.0158H47.0677L47.0694 24.0176ZM48.6989 18.6287H49.7583C50.0547 18.6287 50.3126 18.4833 50.5318 18.1944C50.7493 17.9055 50.8598 17.5269 50.8598 17.0603C50.8598 16.6889 50.7616 16.3856 50.5669 16.1487C50.3722 15.9118 50.1021 15.7916 49.7583 15.7916L48.6989 15.806V18.6287Z" fill="black"/>
<path d="M53.5341 24.0176C53.4973 24.0176 53.478 23.9943 53.478 23.9458L53.492 14.1532C53.492 14.1155 53.5114 14.0958 53.5482 14.0958H58.0208C58.0577 14.0958 58.077 14.1191 58.077 14.1676V15.7647C58.077 15.8024 58.0577 15.8221 58.0208 15.8221H55.1636V18.0455H58.0208C58.0577 18.0455 58.077 18.0652 58.077 18.1029L58.091 19.7144C58.091 19.7521 58.0718 19.7718 58.0349 19.7718H55.1653V22.2661H58.0349C58.0718 22.2661 58.091 22.2895 58.091 22.3379V23.9638C58.091 24.0014 58.0718 24.0212 58.0349 24.0212H53.5341V24.0176Z" fill="black"/>
<path d="M59.3852 24.0176C59.3484 24.0176 59.3291 23.9943 59.3291 23.9458L59.3572 14.1532C59.3572 14.1155 59.3764 14.0958 59.4133 14.0958H62.2284C62.73 14.0958 63.1914 14.2214 63.6141 14.4727C64.0366 14.7239 64.3738 15.0613 64.6244 15.4848C64.875 15.9082 65 16.3856 65 16.9168C65 17.2685 64.9486 17.5843 64.847 17.8642C64.7455 18.1442 64.6244 18.3828 64.4838 18.5767C64.3458 18.7723 64.2195 18.9158 64.1088 19.011C64.6101 19.5816 64.8613 20.2509 64.8613 21.0208L64.875 23.944C64.875 23.9925 64.8522 24.0158 64.8054 24.0158H63.2299C63.1931 24.0158 63.1738 24.0014 63.1738 23.9727V21.0226C63.1738 20.6798 63.0546 20.3837 62.8178 20.1325C62.581 19.8813 62.2898 19.7557 61.9478 19.7557H61.0287L61.0147 23.9458C61.0147 23.9943 60.9954 24.0176 60.9586 24.0176H59.3835H59.3852ZM61.0287 18.0455H62.2266C62.5143 18.0455 62.7704 17.936 62.9932 17.7171C63.2159 17.4982 63.3282 17.2326 63.3282 16.9186C63.3282 16.6045 63.2195 16.3533 63.0002 16.1343C62.781 15.9154 62.5249 15.806 62.2266 15.806H61.0287V18.0455Z" fill="black"/>
</svg>
