<svg width="74" height="94" viewBox="0 0 74 94" fill="none" xmlns="http://www.w3.org/2000/svg">
<path fill-rule="evenodd" clip-rule="evenodd" d="M35.9118 0.245633C35.6355 0.381026 35.2098 0.729155 34.9658 1.01923C34.5068 1.56503 22.1332 18.9169 21.4677 19.948C21.2614 20.2679 21.0505 20.8879 20.9993 21.3259C20.8812 22.3342 21.4299 23.5895 22.2499 24.1875C22.7786 24.5729 23.0004 24.6023 25.389 24.6023H27.9593L27.963 34.3848C27.9663 43.4834 27.9881 44.2187 28.2742 44.9021C28.6511 45.8027 29.0812 46.2384 29.9154 46.5649C30.8423 46.9277 43.1577 46.9277 44.0846 46.5649C44.9188 46.2384 45.3489 45.8027 45.7258 44.9021C46.0119 44.2187 46.0337 43.4834 46.037 34.3848L46.0407 24.6023H48.611C50.9996 24.6023 51.2214 24.5729 51.7501 24.1875C52.5701 23.5895 53.1188 22.3342 53.0007 21.3259C52.9495 20.8879 52.7386 20.2679 52.5323 19.948C51.8678 18.9185 39.4936 1.56558 39.0342 1.01905C38.2121 0.0411651 36.9617 -0.268568 35.9118 0.245633ZM40.7941 13.2087C42.8038 16.0358 44.4737 18.4332 44.505 18.5362C44.5396 18.6507 44.1423 18.7236 43.4844 18.7236C42.3005 18.7236 41.6113 19.0894 40.9498 20.0689C40.6057 20.5782 40.5987 20.7672 40.5535 30.6781L40.5075 40.7687H37H33.4925L33.4465 30.6781C33.4013 20.7672 33.3943 20.5782 33.0502 20.0689C32.3887 19.0894 31.6995 18.7236 30.5156 18.7236C29.8577 18.7236 29.4604 18.6507 29.495 18.5362C29.5997 18.1918 36.8577 8.06851 37 8.06851C37.0772 8.06851 38.7845 10.3816 40.7941 13.2087ZM52.4027 30.704C52.4027 30.7472 51.9912 32.0139 51.4881 33.5186C50.9852 35.0234 50.6436 36.302 50.7292 36.36C50.8147 36.4181 53.6753 37.5711 57.0858 38.9222C60.4963 40.2736 63.264 41.4043 63.2358 41.435C63.2077 41.4659 57.3522 43.93 50.2236 46.911L37.2622 52.331L24.0765 46.8713C16.8243 43.8686 10.8889 41.3692 10.8865 41.3172C10.8842 41.2653 13.3873 40.2403 16.4491 39.0396C19.5107 37.8391 22.1831 36.7892 22.3875 36.7067L22.7594 36.5566L22.0291 34.2996C21.6274 33.0582 21.1965 31.7818 21.0712 31.4633L20.8439 30.8839L11.1872 34.6944C5.87597 36.7903 1.33836 38.643 1.10347 38.8118C-0.272729 39.8015 -0.194208 42.8981 1.2287 43.744C1.42776 43.8623 8.97376 47.0284 17.9977 50.7797L34.405 57.6005L34.4478 72.0466L34.4907 86.4929L33.6107 86.0583C33.1267 85.8192 26.6095 82.757 19.1278 79.2533L5.52489 72.8828V61.5103V50.1378H2.76244H0L0.00368315 62.7678C0.00719899 74.6876 0.0249455 75.4402 0.318936 76.1508C0.490375 76.5649 0.846647 77.0666 1.1105 77.2658C1.37452 77.4649 9.50113 81.3292 19.1697 85.8534C34.7716 93.1538 36.8254 94.0698 37.4294 93.9961C38.1408 93.9096 72.0281 77.9242 72.8895 77.2689C73.1534 77.0681 73.5096 76.5649 73.6811 76.1508C73.9689 75.4555 73.993 74.8103 73.9963 67.728L74 60.0581H71.2397H68.4795L68.4354 66.5041L68.3914 72.9503L54.5161 79.5425C46.8847 83.1683 40.4993 86.1841 40.3262 86.2443C40.0198 86.3511 40.0127 85.9745 40.0544 71.977L40.0973 57.5999L56.1697 50.8752C65.0095 47.1766 72.4035 44.0529 72.6007 43.9334C73.2402 43.5462 73.8091 42.6275 73.9223 41.7989C74.0465 40.8896 73.6411 39.6462 73.0239 39.0449C72.8287 38.8548 70.9154 38.0011 68.7723 37.1478C66.6291 36.2945 62.201 34.5343 58.9321 33.2363C55.6632 31.9382 52.8568 30.8197 52.6957 30.7507C52.5346 30.6818 52.4027 30.6608 52.4027 30.704ZM68.5125 52.8475L68.5588 55.5573L71.2794 55.6078L74 55.6583V52.8981V50.1378H71.233H68.4662L68.5125 52.8475Z" fill="#AD00FF"/>
</svg>
