<svg width="52" height="52" viewBox="0 0 52 52" fill="none" xmlns="http://www.w3.org/2000/svg">
<path fill-rule="evenodd" clip-rule="evenodd" d="M8.83372 0.147363C6.57646 0.634397 4.68335 2.5636 4.19545 4.87419C3.52869 8.03132 5.53813 11.2479 8.67712 12.0481C9.45249 12.2458 10.8561 12.2462 11.6342 12.049C14.3384 11.3639 16.2569 8.92426 16.2569 6.17061C16.2569 2.20736 12.6921 -0.685125 8.83372 0.147363ZM20.6803 0.058913C20.2879 0.141256 19.6769 0.654449 19.4426 1.09873C18.9823 1.97092 19.2352 3.04535 20.0541 3.69778L20.4449 4.00903L31.9007 4.05992C42.8437 4.10858 43.3725 4.11937 43.7125 4.30125C44.2154 4.57027 44.4146 4.76478 44.6639 5.23044L44.8819 5.63757V14.7472V23.8568L37.0011 23.9077C29.9192 23.9534 29.0894 23.9757 28.8153 24.1271C28.1637 24.4869 27.7476 25.1948 27.7476 25.9434C27.7476 26.7505 28.1927 27.452 28.917 27.7867C29.3041 27.9655 29.8351 27.9747 39.9087 27.9768L50.4935 27.9791L50.9417 27.7422C51.1882 27.612 51.5272 27.3104 51.6949 27.0719C51.9619 26.6926 52 26.5513 52 25.9434C52 25.3354 51.9619 25.1942 51.6949 24.8149C51.2464 24.1775 50.6671 23.9077 49.7469 23.9077H49.0002L48.9985 14.7218C48.9965 4.51724 49.0101 4.74595 48.3236 3.34968C47.8087 2.30253 46.6885 1.18128 45.6423 0.665848C44.2242 -0.0326923 44.7026 -0.00918025 32.171 0.00425518C25.963 0.0108711 20.7922 0.0355027 20.6803 0.058913ZM10.9995 4.29922C11.7181 4.59978 12.2783 5.60958 12.1535 6.37957C12.0515 7.00859 11.629 7.5793 11.0523 7.86694C10.7609 8.01228 10.3598 8.13025 10.1611 8.12903C9.43591 8.12455 8.58092 7.5337 8.32335 6.85897C8.05784 6.16379 8.28572 5.10626 8.79752 4.6579C9.35364 4.17066 10.3168 4.01371 10.9995 4.29922ZM4.91876 14.2405C3.14462 14.597 1.44878 15.9006 0.652259 17.5204C0.000646349 18.8454 -0.0235553 19.1259 0.008883 24.9781L0.0377622 30.201L0.342824 30.6344C1.16527 31.803 2.78708 31.8311 3.69261 30.6925L4.00357 30.3016L4.05441 25.0435C4.1016 20.1609 4.11888 19.758 4.29643 19.4002C4.54739 18.8947 5.09071 18.4563 5.63707 18.3186C6.22483 18.1705 13.8252 18.1683 14.5137 18.316C15.4005 18.5064 15.5458 18.7142 17.7836 22.9917C18.9111 25.1469 19.9502 27.0641 20.0926 27.2522C21.0111 28.4647 23.0945 28.0726 23.5814 26.5957C23.8504 25.7798 23.7515 25.5278 21.383 20.9967C19.1966 16.8141 19.1407 16.7202 18.3923 15.9688C17.5133 15.0864 16.728 14.6298 15.5862 14.3375C14.8556 14.1505 14.4695 14.1373 10.0631 14.1477C7.45748 14.1538 5.14247 14.1955 4.91876 14.2405ZM8.39982 32.1018C4.644 33.0515 2.68204 37.2759 4.39781 40.7187L4.74517 41.4156L4.42527 41.6362C2.15835 43.1989 0.683985 45.3113 0.134365 47.784C-0.0791782 48.7449 -0.00270933 49.4435 0.405464 50.2612C0.753743 50.9589 1.22954 51.416 1.96321 51.758L2.47826 51.998L26.028 51.999L49.5779 52L50.1979 51.6899C51.3678 51.1047 51.9924 50.0613 51.9972 48.6841C51.9997 47.9452 51.9691 47.8118 51.6949 47.3687C51.264 46.6722 50.6811 46.3736 49.8499 46.4236C49.0623 46.4708 48.5301 46.8145 48.1434 47.5258L47.8689 48.0304H42.2826C37.8278 48.0304 36.6961 48.0042 36.6961 47.9009C36.6961 47.6264 37.4854 46.4463 38.0449 45.8842C39.1263 44.7982 40.249 44.3294 42.1472 44.1714C44.2 44.0005 45.2255 43.5632 46.4665 42.3293C49.0564 39.7542 48.8424 35.6259 45.9984 33.2979C44.8104 32.3255 43.4588 31.8976 41.8313 31.979C40.5759 32.0418 39.7984 32.2982 38.7642 32.9905C37.0642 34.1286 36.0859 35.9719 36.0859 38.0369C36.0859 39.0408 36.285 39.8922 36.7303 40.7922C37.0363 41.4104 37.0428 41.4476 36.8633 41.5556C36.2494 41.9246 35.3184 42.7159 34.7659 43.3382L34.1292 44.0554L33.2503 43.1621C32.7669 42.6708 32.0936 42.0801 31.7542 41.8493L31.1369 41.4298L31.5092 40.6658C32.865 37.8834 31.9002 34.5724 29.2302 32.845C28.2759 32.2277 27.4093 31.9995 26.0189 31.9995C24.6169 31.9995 23.7616 32.2278 22.7766 32.8651C20.1353 34.5739 19.1782 37.8947 20.5286 40.6658L20.9009 41.4298L20.333 41.8171C19.7309 42.2278 18.5697 43.3064 18.2076 43.7914L17.9908 44.0817L17.0476 43.1205C16.5288 42.5919 15.8641 42.007 15.5705 41.8207C15.2769 41.6345 15.0366 41.4452 15.0366 41.4004C15.0366 41.3556 15.1704 41.0541 15.3337 40.7305C16.6909 38.0426 15.7956 34.679 13.2736 32.9905C12.1867 32.2629 11.4668 32.0358 10.1048 31.9906C9.34805 31.9655 8.7965 32.0015 8.39982 32.1018ZM10.7473 36.2843C11.6542 36.7366 12.0901 37.7925 11.744 38.6993C11.2164 40.0825 9.5074 40.4657 8.47517 39.4324C7.22706 38.1832 8.12323 36.0501 9.90693 36.0245C10.0777 36.022 10.4558 36.139 10.7473 36.2843ZM26.5555 36.1279C27.0094 36.2541 27.5905 36.7375 27.8201 37.1801C28.0301 37.585 28.0322 38.523 27.8239 38.9208C27.3798 39.7691 26.4335 40.1874 25.5045 39.9463C24.6 39.7115 24.054 38.9997 24.054 38.0556C24.054 37.1795 24.5566 36.46 25.3718 36.1691C25.8524 35.9976 26.0608 35.9904 26.5555 36.1279ZM42.7339 36.1307C43.3339 36.2974 43.9074 36.8904 44.0681 37.5102C44.2685 38.2838 44.1108 38.8837 43.5626 39.4324C42.5304 40.4657 40.8214 40.0825 40.2938 38.6993C39.9477 37.7925 40.3835 36.7366 41.2905 36.2843C41.8718 35.9943 42.1404 35.9657 42.7339 36.1307ZM11.7063 44.4753C12.6276 44.7844 13.3264 45.2149 13.9928 45.8842C14.5524 46.4463 15.3417 47.6264 15.3417 47.9009C15.3417 48.0042 14.228 48.0304 9.85059 48.0304C6.83048 48.0304 4.35947 48.0088 4.35947 47.9823C4.35947 47.9558 4.48313 47.6729 4.63423 47.3534C5.14013 46.2839 6.4464 45.0889 7.61347 44.6277C8.89422 44.1217 10.4761 44.0628 11.7063 44.4753ZM27.1725 44.3091C28.4685 44.5573 29.6097 45.2199 30.4766 46.2276C30.9207 46.7439 31.3422 47.4216 31.4555 47.8014L31.5237 48.0304H26.0189H20.514L20.5823 47.8014C20.7893 47.1071 21.667 45.9777 22.4754 45.3655C23.8205 44.347 25.453 43.9799 27.1725 44.3091Z" fill="#F7B300"/>
</svg>
