<svg width="51" height="52" viewBox="0 0 51 52" fill="none" xmlns="http://www.w3.org/2000/svg">
<path fill-rule="evenodd" clip-rule="evenodd" d="M24.8475 0.134403C24.4498 0.311057 24.0392 0.817449 23.9105 1.28981C23.8539 1.49755 23.8074 2.20467 23.8071 2.8612C23.8066 3.7463 23.7743 4.05562 23.682 4.05806C23.3583 4.06639 21.4852 4.35996 20.8236 4.50604C12.7835 6.2812 6.16597 13.0294 4.42515 21.2281C4.2819 21.9028 3.99401 23.8128 3.98584 24.1429C3.98345 24.2371 3.68011 24.27 2.81215 24.2705C1.39151 24.2711 0.960262 24.3821 0.4816 24.8701C-0.160533 25.525 -0.160533 26.4685 0.4816 27.1234C0.960262 27.6114 1.39151 27.7225 2.81215 27.7231C3.68011 27.7236 3.98345 27.7565 3.98584 27.8507C3.99401 28.1807 4.2819 30.0908 4.42515 30.7655C6.16656 38.9673 12.7805 45.7117 20.8236 47.4875C21.4852 47.6336 23.3583 47.9272 23.682 47.9355C23.7743 47.9379 23.8066 48.2473 23.8071 49.1324C23.8077 50.581 23.9166 51.0208 24.3951 51.5089C25.0374 52.1637 25.9626 52.1637 26.6049 51.5089C27.0834 51.0208 27.1923 50.581 27.1929 49.1324C27.1934 48.2473 27.2257 47.9379 27.318 47.9355C27.3866 47.9338 27.8908 47.8691 28.4387 47.7918C38.0297 46.4385 45.5461 38.7737 46.8732 28.9935C46.949 28.4348 47.0125 27.9206 47.0142 27.8507C47.0166 27.7565 47.3199 27.7236 48.1879 27.7231C49.6085 27.7225 50.0397 27.6114 50.5184 27.1234C51.1605 26.4685 51.1605 25.525 50.5184 24.8701C50.0397 24.3821 49.6085 24.2711 48.1879 24.2705C47.3199 24.27 47.0166 24.2371 47.0142 24.1429C47.006 23.8128 46.7181 21.9028 46.5748 21.2281C44.834 13.0294 38.2165 6.2812 30.1764 4.50604C29.5148 4.35996 27.6417 4.06639 27.318 4.05806C27.2257 4.05562 27.1934 3.7463 27.1929 2.8612C27.1926 2.20467 27.1461 1.49755 27.0895 1.28981C26.8128 0.273674 25.7579 -0.269999 24.8475 0.134403ZM23.8065 9.11558V10.8241L22.8547 10.9961C16.7905 12.0918 11.8641 17.1154 10.7896 23.2992L10.621 24.2699H8.93871C7.38429 24.2699 7.26036 24.2564 7.30589 24.0921C7.33308 23.9943 7.38498 23.6629 7.42134 23.3556C7.71442 20.8793 8.86898 17.82 10.3411 15.6191C12.1954 12.847 14.6117 10.7018 17.4808 9.28055C19.5353 8.26279 20.8732 7.86428 23.7318 7.41873C23.7728 7.41233 23.8065 8.17583 23.8065 9.11558ZM28.0901 7.56136C31.2724 7.95296 34.7596 9.57768 37.4615 11.9275C40.6757 14.7232 43.0911 19.2357 43.5787 23.3556C43.615 23.6629 43.6669 23.9943 43.6941 24.0921C43.7396 24.2564 43.6157 24.2699 42.0613 24.2699H40.379L40.2104 23.2992C39.4067 18.6735 36.4222 14.5908 32.2499 12.409C31.041 11.777 29.4657 11.2346 28.1453 10.9961L27.1935 10.8241V9.10867C27.1935 7.52357 27.2067 7.3972 27.3678 7.44362C27.4637 7.47135 27.7887 7.52428 28.0901 7.56136ZM23.8224 15.3077C23.8667 16.4318 24.0338 16.8468 24.5987 17.2349C24.8475 17.4059 25.0754 17.4638 25.5 17.4638C25.9246 17.4638 26.1525 17.4059 26.4013 17.2349C26.9662 16.8468 27.1333 16.4318 27.1776 15.3077C27.2222 14.1754 27.1499 14.2328 28.2187 14.4807C30.2487 14.9515 32.0217 15.9883 33.6682 17.6674C35.3148 19.3463 36.3315 21.1544 36.7932 23.2245C37.0363 24.3144 37.0926 24.2406 35.9822 24.2861C34.8799 24.3312 34.4729 24.5017 34.0923 25.0777C33.7919 25.5322 33.7823 26.3902 34.0721 26.8686C34.4312 27.4611 34.8587 27.6479 35.9814 27.703L36.9745 27.7517L36.9058 28.2202C36.814 28.8452 36.4175 30.11 36.0543 30.9355C35.2374 32.7919 33.3695 34.9524 31.6357 36.0458C30.6274 36.6818 29.2475 37.2742 28.2187 37.5129C27.1499 37.7607 27.2222 37.8181 27.1776 36.6859C27.1333 35.5618 26.9662 35.1468 26.4013 34.7586C25.9361 34.439 25.0639 34.439 24.5987 34.7586C24.0338 35.1468 23.8667 35.5618 23.8224 36.6859C23.7778 37.8181 23.8501 37.7607 22.7813 37.5129C20.7513 37.042 18.9783 36.0053 17.3318 34.3262C15.6852 32.6472 14.6685 30.8391 14.2068 28.7691C13.9637 27.6792 13.9074 27.7529 15.0178 27.7074C16.1201 27.6623 16.5271 27.4919 16.9077 26.9159C17.2212 26.4415 17.2212 25.552 16.9077 25.0777C16.5271 24.5017 16.1201 24.3312 15.0178 24.2861C13.9074 24.2406 13.9637 24.3144 14.2068 23.2245C14.6685 21.1544 15.6852 19.3463 17.3318 17.6674C18.9561 16.0109 20.6145 15.0275 22.6609 14.507C23.8436 14.2062 23.7772 14.1605 23.8224 15.3077ZM24.3046 21.0794C23.404 21.3233 22.6986 21.7427 22.0134 22.4414C20.4368 24.0491 20.0917 26.263 21.0951 28.3332C21.4428 29.0506 22.5053 30.1341 23.2088 30.4886C25.2389 31.5118 27.41 31.16 28.9866 29.5522C30.5633 27.9444 30.9083 25.7305 29.9049 23.6604C29.5572 22.943 28.4947 21.8595 27.7912 21.505C26.654 20.9317 25.41 20.78 24.3046 21.0794ZM10.7896 28.6943C11.8641 34.8782 16.7905 39.9018 22.8547 40.9975L23.8065 41.1695V42.8849C23.8065 44.47 23.7933 44.5964 23.6322 44.5499C23.5362 44.5222 23.2113 44.4693 22.91 44.4322C18.8698 43.9351 14.4446 41.472 11.703 38.1943C9.39865 35.4391 7.80537 31.8831 7.42134 28.6379C7.38498 28.3307 7.33308 27.9992 7.30589 27.9015C7.26036 27.7372 7.38429 27.7237 8.93871 27.7237H10.621L10.7896 28.6943ZM43.6857 27.9523C43.6592 28.078 43.5892 28.5237 43.5301 28.9427C43.1121 31.9048 41.7254 35.1013 39.7671 37.6167C36.9975 41.1741 32.6546 43.7568 28.3889 44.3827C27.978 44.443 27.541 44.5144 27.4176 44.5414L27.1935 44.5904V42.8799V41.1695L28.1387 40.9987C34.2061 39.9024 39.1363 34.8839 40.2072 28.7141L40.379 27.7237H42.0564H43.7338L43.6857 27.9523Z" fill="#FF6900"/>
</svg>
