<svg width="44" height="51" viewBox="0 0 44 51" fill="none" xmlns="http://www.w3.org/2000/svg">
<path fill-rule="evenodd" clip-rule="evenodd" d="M19.7043 1.14463C14.47 4.05668 8.58067 6.5244 2.81715 8.22049C0.52293 8.89556 0.427183 8.93307 0.188052 9.2501C0.00564345 9.49191 0 9.68614 0 15.701C0 19.1118 0.0440957 22.5063 0.0978522 23.2442C0.721313 31.7885 4.29517 39.0153 10.8087 44.9023C13.4924 47.3279 17.2121 49.6361 20.0391 50.6301C20.9601 50.9539 21.2047 51 22 51C22.7953 51 23.0399 50.9539 23.9609 50.6301C26.7879 49.6361 30.5076 47.3279 33.1913 44.9023C39.7048 39.0153 43.2787 31.7885 43.9021 23.2442C43.9559 22.5063 44 19.1118 44 15.701C44 9.68614 43.9944 9.49191 43.8119 9.2501C43.5807 8.94344 43.4102 8.87162 41.8478 8.4227C35.9483 6.72741 29.3012 3.93946 23.6739 0.800063C22.8848 0.359829 22.1315 -0.000199434 22 8.28848e-08C21.8685 0.000299358 20.8354 0.515352 19.7043 1.14463ZM24.9602 3.7171C28.0449 5.3289 30.8391 6.61179 33.7652 7.75981C35.5233 8.44954 38.7271 9.57332 40.0543 9.96577C40.4358 10.0786 41.0491 10.2625 41.4174 10.3746L42.087 10.5784L42.086 16.2853C42.0849 21.9621 42.0299 23.4344 41.7442 25.4339C40.5612 33.7109 35.8651 41.0536 28.5898 46.0015C26.2046 47.6237 23.157 49.0194 22 49.0194C20.843 49.0194 17.7954 47.6237 15.4102 46.0015C8.13493 41.0536 3.43879 33.7109 2.25577 25.4339C1.97005 23.4344 1.91505 21.9621 1.914 16.2853L1.91304 10.5784L2.5587 10.3805C2.91376 10.2716 3.61317 10.0639 4.11276 9.91888C5.45457 9.52932 9.01397 8.27646 10.7336 7.58842C13.9445 6.30374 17.7812 4.47875 20.6599 2.86696C21.318 2.49845 21.8973 2.19538 21.9472 2.19359C21.997 2.19169 23.3529 2.87733 24.9602 3.7171ZM20.1348 4.85295C15.3502 7.39819 10.1019 9.59437 4.81331 11.2642C4.03164 11.5111 3.78955 11.6338 3.58523 11.8871L3.3308 12.2025L3.37298 17.8955C3.41813 23.9875 3.45505 24.524 4.0062 27.0799C5.69523 34.9141 10.7123 41.6401 18.0237 45.8725C19.1976 46.5521 20.911 47.3294 21.6012 47.4955C22.1595 47.63 22.6869 47.4898 24.1677 46.8134C27.1021 45.4732 30.3016 43.1311 32.8565 40.4531C36.527 36.606 38.8976 32.164 39.9938 27.0799C40.5431 24.5324 40.5816 23.9786 40.6271 17.9698C40.6578 13.9169 40.6395 12.2752 40.5612 12.0782C40.407 11.69 40.1387 11.5582 38.3087 10.9722C33.5602 9.45181 28.2489 7.19508 23.7263 4.77633C22.9134 4.34159 22.1386 3.98635 22.0046 3.98685C21.8706 3.98744 21.0291 4.3771 20.1348 4.85295ZM24.1043 7.19159C28.3088 9.36053 32.5728 11.1588 37.0016 12.6306L38.7554 13.2135L38.7135 18.3511C38.6686 23.8453 38.6153 24.5625 38.0717 26.9802C36.6516 33.2958 32.7557 38.8962 27.0052 42.8882C25.6465 43.8315 23.4282 45.0523 22.5462 45.3422C22.0203 45.5152 21.9797 45.5152 21.4538 45.3422C20.5718 45.0523 18.3535 43.8315 16.9948 42.8882C11.2443 38.8962 7.34838 33.2958 5.92833 26.9802C5.38426 24.5606 5.33127 23.8466 5.28784 18.3511L5.24729 13.2135L7.28669 12.5309C9.7571 11.7039 12.7986 10.5255 15.0887 9.50828C17.007 8.65624 20.8704 6.76103 21.5217 6.35272C21.7585 6.20428 21.9737 6.09354 22 6.10671C22.0263 6.11988 22.9733 6.6081 24.1043 7.19159ZM27.6764 16.6565C26.8307 16.837 26.4914 17.1315 23.2412 20.5063L20.0346 23.836L18.7934 22.5327C17.3444 21.0113 16.9198 20.7355 15.9261 20.6699C13.9706 20.5411 12.4756 22.2989 12.829 24.3116C12.8843 24.6272 13.0181 25.0424 13.1263 25.2344C13.2344 25.4264 14.4251 26.7441 15.7723 28.1625C17.8205 30.3191 18.3158 30.7888 18.7957 31.0306C19.5253 31.3979 20.3788 31.4251 21.2072 31.1074C21.7261 30.9085 22.0411 30.6034 26.229 26.2441C31.2786 20.9878 31.2038 21.0861 31.2038 19.6978C31.2038 19.1292 31.1511 18.8475 30.9672 18.4342C30.3889 17.134 28.9867 16.3765 27.6764 16.6565ZM28.887 18.8388C29.1974 19.0717 29.3658 19.5968 29.2572 19.9934C29.1997 20.2033 27.8436 21.6834 24.8436 24.8104L20.513 29.3245H20.0454H19.5778L17.3374 27.0051C16.1053 25.7294 15.0103 24.5602 14.9042 24.4069C14.3673 23.631 14.8911 22.6407 15.8384 22.6407C16.1657 22.6407 16.3066 22.7599 17.8279 24.324C18.7284 25.2499 19.5592 26.0579 19.6741 26.1196C20.2337 26.4204 20.2028 26.4463 24.0502 22.451C26.3986 20.0124 27.7762 18.653 27.9304 18.6221C28.2702 18.554 28.6099 18.6309 28.887 18.8388ZM12.7137 35.6875C12.2187 36.1488 12.3259 36.9387 12.9275 37.2631C13.6608 37.6585 14.4529 36.9784 14.2362 36.1393C14.051 35.4219 13.2529 35.185 12.7137 35.6875ZM14.8627 37.5628C14.3615 37.8208 14.2074 38.4239 14.5157 38.9209C14.7355 39.2753 16.1547 40.4845 17.4004 41.3786C18.5626 42.2129 18.8704 42.2804 19.3291 41.802C19.6256 41.4927 19.7055 40.9722 19.5138 40.5986C19.4616 40.4968 18.9988 40.1108 18.4855 39.7406C17.9722 39.3704 17.1959 38.7574 16.7604 38.3785C15.596 37.3653 15.4056 37.2835 14.8627 37.5628Z" fill="#0092FF"/>
</svg>
