<svg width="81" height="28" viewBox="0 0 81 28" fill="none" xmlns="http://www.w3.org/2000/svg">
<path fill-rule="evenodd" clip-rule="evenodd" d="M17.1612 5.1649C17.1513 5.16264 17.1415 5.16149 17.1319 5.16149C17.0512 5.16149 15.4542 5.12117 15.4542 5.12117C15.4542 5.12117 14.1152 3.50857 13.9862 3.32715C13.9849 3.32557 13.9836 3.324 13.9823 3.32245C13.9412 3.27284 13.8891 3.23766 13.8355 3.22865C13.711 3.1912 13.5686 3.21886 13.5022 3.24652C13.5022 3.24652 13.2441 3.34731 12.8247 3.50857C12.7602 3.22637 12.6472 2.88369 12.5021 2.52085C12.0342 1.39203 11.3245 0.7873 10.4856 0.7873C10.4211 0.7873 10.3727 0.7873 10.3082 0.807466C10.2967 0.793177 10.2873 0.778898 10.2785 0.76551C10.2625 0.741116 10.2483 0.719692 10.2275 0.706678C9.85647 0.222888 9.38865 -0.0189934 8.82404 0.00116412C7.74321 0.0414792 6.66239 1.0292 5.77515 2.76274C5.16214 3.99235 4.69432 5.52433 4.54914 6.71362C4.31497 6.80483 4.094 6.89102 3.88934 6.97084L3.88889 6.971C3.00825 7.31451 2.4298 7.54008 2.40362 7.54008C1.77449 7.78197 1.75835 7.80213 1.6777 8.54796C1.64543 9.11237 0 25.0167 0 25.0167L13.8087 28L19.7936 26.1455C19.7936 26.1455 17.3577 5.52434 17.3416 5.38324C17.3143 5.26416 17.2411 5.18814 17.1705 5.16732C17.1674 5.1664 17.1643 5.1656 17.1612 5.1649ZM12.131 3.79078C11.8084 3.91172 11.4535 4.05282 11.0663 4.21408C11.0663 3.52874 10.9857 2.56117 10.7437 1.75487C11.5664 1.91613 11.9697 3.08527 12.131 3.79078ZM10.3404 4.47614C9.61449 4.75834 8.82404 5.06069 8.03366 5.36305C8.2595 4.2947 8.67885 3.24652 9.19507 2.54101C9.38865 2.27896 9.66289 1.99675 9.96939 1.83549C10.292 2.62164 10.3565 3.7303 10.3404 4.47614ZM8.8563 0.908254C9.11441 0.908254 9.32412 0.968718 9.50157 1.12998C9.2112 1.3114 8.92083 1.5936 8.66272 1.95645C7.96906 2.88369 7.43671 4.31488 7.227 5.70574C6.72256 5.90561 6.22748 6.09374 5.7633 6.27015C5.61887 6.32504 5.47741 6.3788 5.33959 6.43142C5.72675 4.23424 7.19474 0.968718 8.8563 0.908254ZM10.4856 9.01167L9.79194 12.257C9.79194 12.257 9.01762 11.8136 8.09811 11.8942C6.74305 11.995 6.74305 13.0633 6.74305 13.3254C6.77488 13.898 7.26883 14.2949 7.8662 14.7749C8.78271 15.5114 9.94262 16.4434 10.05 18.5059C10.1791 21.1868 8.92083 23.0212 7.08181 23.1623C4.88791 23.3034 3.67803 21.6908 3.67803 21.6908L4.14585 19.2114C4.14585 19.2114 5.37186 20.3604 6.33976 20.2797C6.96889 20.2394 7.21087 19.5742 7.1786 19.1308C7.13621 18.301 6.63612 17.8578 6.07365 17.3594C5.35162 16.7196 4.5269 15.9888 4.43622 14.2325C4.30717 11.612 5.67836 8.97136 8.71112 8.72947C9.88873 8.62868 10.4856 9.01167 10.4856 9.01167Z" fill="#2D2D2D"/>
<path d="M27.8919 13.0869C27.1982 12.6233 26.8433 12.2201 26.8433 11.6759C26.8433 10.9905 27.3434 10.547 28.1178 10.547C29.0212 10.547 29.8279 11.0107 29.8279 11.0107L30.457 8.59176C30.457 8.59176 29.8763 8.02734 28.1662 8.02734C25.7786 8.02734 24.1169 9.74074 24.1169 12.1395C24.1169 13.5102 24.8913 14.5382 25.9238 15.2841C26.7627 15.8686 27.053 16.2919 27.053 16.9168C27.053 17.5619 26.6336 18.086 25.8592 18.086C24.7138 18.086 23.6168 17.3401 23.6168 17.3401L22.9392 19.759C22.9392 19.759 23.9394 20.6057 25.6334 20.6057C28.0855 20.6057 29.8601 19.0938 29.8601 16.3726C29.844 14.9011 28.9567 13.8529 27.8919 13.0869Z" fill="#2D2D2D"/>
<path d="M37.6679 10.4113C36.458 10.4113 35.5061 11.1369 34.7802 12.2254L34.7479 12.2053L35.7965 5.35168H33.0701L30.4082 22.8082H33.1346L34.0381 16.8415C34.393 14.5839 35.3287 13.193 36.1998 13.193C36.8129 13.193 37.0549 13.7171 37.0549 14.4629C37.0549 14.9266 37.0226 15.5111 36.9419 15.9748L35.9094 22.8082H38.6359L39.7006 15.753C39.8136 15.0072 39.8942 14.1203 39.8942 13.5155C39.9104 11.5804 39.1037 10.4113 37.6679 10.4113Z" fill="#2D2D2D"/>
<path d="M46.0884 8.02734C42.7973 8.02734 40.6194 11.7363 40.6194 15.8686C40.6194 18.5093 41.9261 20.646 44.3783 20.646C47.6048 20.646 49.7827 17.0378 49.7827 12.8047C49.7989 10.3656 48.6535 8.02734 46.0884 8.02734ZM44.7493 18.0456C43.8137 18.0456 43.4265 17.0579 43.4265 15.8082C43.4265 13.8529 44.2331 10.668 45.7173 10.668C46.6853 10.668 47.0079 11.7162 47.0079 12.7241C47.0079 14.8204 46.1852 18.0456 44.7493 18.0456Z" fill="#2D2D2D"/>
<path d="M56.7843 5.35168C54.9452 5.35168 53.8966 7.3876 53.8966 7.3876H53.8643L54.0256 5.55326H51.6057C51.4928 6.78287 51.2669 8.67768 51.0572 10.0887L49.1536 22.5864H51.88L52.6382 17.5268H52.7028C52.7028 17.5268 53.2674 17.9703 54.2999 17.9703C57.5103 17.9703 59.6075 13.8582 59.6075 9.70572C59.6075 7.40776 58.7848 5.35168 56.7843 5.35168ZM54.1708 15.4103C53.461 15.4103 53.0415 14.9064 53.0415 14.9064L53.4933 11.7215C53.8159 9.58477 54.7032 8.17374 55.655 8.17374C56.4939 8.17374 56.7521 9.1413 56.7521 10.0484C56.7521 12.2657 55.7034 15.4103 54.1708 15.4103Z" fill="#2D2D2D"/>
<path d="M63.51 12.4869C62.6391 12.4869 61.9456 13.3537 61.9456 14.4624C61.9456 15.4702 62.4617 16.1758 63.2358 16.1758H63.2681C64.1229 16.1758 64.8487 15.4501 64.8648 14.2003C64.8648 13.2126 64.3326 12.4869 63.51 12.4869Z" fill="#2D2D2D"/>
<path d="M59.6873 20.1219H62.4137L64.2689 8.02734H61.5264L59.6873 20.1219Z" fill="#2D2D2D"/>
<path d="M71.2219 10.9152H69.3182L69.415 10.3508C69.5763 9.18166 70.1247 8.15362 71.0441 8.15362C71.5281 8.15362 71.9157 8.33504 71.9157 8.33504L72.4482 5.65405C72.4482 5.65405 71.98 5.35168 70.9635 5.35168C69.9955 5.35168 69.0278 5.69436 68.2857 6.48051C67.35 7.46826 66.9144 8.89945 66.7047 10.3508L66.6241 10.9152H65.3496L64.9463 13.4954H66.2207L64.7688 23.0501H67.4952L68.9472 13.4954H70.835L71.2219 10.9152Z" fill="#2D2D2D"/>
<path d="M77.8037 5.35168C77.8037 5.35168 76.0933 10.7338 75.3353 13.6768H75.3031C75.2546 12.7293 74.6257 5.35168 74.6257 5.35168H71.7539L73.3993 16.4585C73.4315 16.7004 73.4158 16.8616 73.3351 17.0229C73.0124 17.7889 72.4799 18.5347 71.8503 19.079C71.3342 19.5426 70.7539 19.845 70.302 20.0465L71.0601 22.9492C71.6083 22.8081 72.7704 22.2236 73.7384 21.0947C74.9805 19.6434 76.1419 17.3857 77.3197 14.3218L80.659 5.35168H77.8037Z" fill="#2D2D2D"/>
</svg>
