<svg width="42" height="42" viewBox="0 0 42 42" fill="none" xmlns="http://www.w3.org/2000/svg">
<path fill-rule="evenodd" clip-rule="evenodd" d="M19.1168 0.0848862C15.2259 0.43296 11.5444 1.8817 8.20623 4.37826C7.20402 5.12781 5.13094 7.20092 4.3814 8.20314C1.84343 11.5966 0.442042 15.1941 0.0843739 19.2336C-0.0446655 20.6911 -0.0209577 23.5613 0.123176 23.9317C0.189377 24.1017 0.320468 24.6286 0.414561 25.1023C1.20184 29.0686 3.16615 32.7435 6.07335 35.689C9.66832 39.3313 14.1614 41.4629 19.1988 41.9161C24.3796 42.3821 29.4182 40.9007 33.8008 37.6229C34.803 36.8733 36.8761 34.8002 37.6257 33.798C41.2928 28.8946 42.6933 23.225 41.6791 17.3878C41.1056 14.0867 39.7807 11.0846 37.6257 8.20314C36.8761 7.20092 34.803 5.12781 33.8008 4.37826C29.4093 1.09383 24.3558 -0.383779 19.1168 0.0848862ZM19.7732 5.59853C19.7733 9.00675 19.7777 9.03661 20.3389 9.41151C20.803 9.72152 21.27 9.67025 21.9298 9.23686C22.232 9.03841 22.6681 8.8307 22.8989 8.77533C24.0148 8.50757 25.1636 9.06942 25.6837 10.1373C25.9613 10.7072 25.9613 11.6056 25.6837 12.1755C25.1636 13.2434 24.0148 13.8052 22.8989 13.5375C22.6681 13.4821 22.232 13.2744 21.9298 13.0759C21.27 12.6425 20.803 12.5913 20.3389 12.9013C19.7777 13.2762 19.7733 13.306 19.7732 16.7143L19.773 19.77H17.8356H15.8983L15.9531 19.5855C15.9832 19.4839 16.028 19.1056 16.0525 18.7446C16.2399 15.9932 13.9326 13.5383 11.1595 13.5383C8.89154 13.5383 6.82462 15.2298 6.35144 17.4731C6.22503 18.0723 6.23233 19.1358 6.3658 19.5855L6.4206 19.77H4.4727H2.52472L2.58108 19.0933C2.79765 16.4956 3.82824 13.5195 5.32963 11.1564C7.46243 7.79944 10.5708 5.20813 14.1717 3.78499C15.8838 3.10828 18.0186 2.60877 19.4244 2.55586L19.773 2.54273L19.7732 5.59853ZM24.449 2.79786C29.4523 3.73216 33.8853 6.76228 36.6775 11.1564C38.1923 13.5402 39.1992 16.4493 39.4247 19.0933L39.4823 19.77H36.3929C32.9813 19.77 32.9149 19.7787 32.562 20.2735C32.4114 20.4846 32.3653 20.6553 32.3657 21.0006C32.366 21.4035 32.4065 21.5099 32.7447 21.9951C32.967 22.3143 33.1657 22.7157 33.2263 22.968C33.4952 24.089 32.9261 25.2466 31.8479 25.772C31.2975 26.0401 30.3894 26.036 29.8285 25.7629C28.7631 25.2439 28.2005 24.0872 28.469 22.968C28.5295 22.7157 28.7282 22.3143 28.9506 21.9951C29.2887 21.5099 29.3292 21.4035 29.3296 21.0006C29.3299 20.6553 29.2838 20.4846 29.1332 20.2735C28.7805 19.779 28.7129 19.77 25.3129 19.77H22.234V17.8335C22.234 16.0217 22.2433 15.9005 22.3776 15.9546C22.4565 15.9864 22.8165 16.0308 23.1774 16.0533C25.9472 16.226 28.3837 13.9342 28.3837 11.1564C28.3837 8.88033 26.7003 6.82323 24.449 6.34833C23.8442 6.22076 22.7055 6.22618 22.3776 6.35817C22.2433 6.41223 22.234 6.29049 22.234 4.46875V2.52157L22.9108 2.57924C23.2831 2.61099 23.9752 2.70934 24.449 2.79786ZM12.1961 16.248C12.9415 16.6088 13.4965 17.3818 13.5926 18.1929C13.6641 18.7973 13.4913 19.3821 13.0565 20.0061C12.7183 20.4912 12.6778 20.5976 12.6775 21.0006C12.6772 21.3459 12.7233 21.5166 12.8739 21.7276C13.2265 22.2222 13.2941 22.2311 16.6941 22.2311H19.773V24.1677C19.773 25.9794 19.7638 26.1006 19.6295 26.0465C19.5505 26.0147 19.1906 25.9703 18.8296 25.9478C16.4517 25.7996 14.2333 27.4885 13.7439 29.8193C13.5917 30.5441 13.5911 31.1439 13.7418 31.855C14.1416 33.7416 15.6607 35.2482 17.5738 35.6551C18.1635 35.7805 19.3045 35.7738 19.6295 35.643C19.7638 35.5889 19.773 35.7106 19.773 37.5324V39.4796L19.0962 39.4219C17.5987 39.2942 15.7605 38.8441 14.1717 38.2162C9.49638 36.3684 5.63586 32.5078 3.78813 27.8324C3.16016 26.2437 2.71012 24.4054 2.58239 22.9079L2.52472 22.2311L5.63209 22.2298C8.69647 22.2284 8.74388 22.2258 9.05906 22.0452C9.7817 21.6308 9.86799 20.8688 9.28457 20.0541C8.91993 19.5449 8.69811 18.9424 8.69893 18.4631C8.70049 17.4188 9.4867 16.39 10.5028 16.1024C10.9823 15.9667 11.7517 16.0329 12.1961 16.248ZM26.054 22.4157C26.0239 22.5172 25.9791 22.8956 25.9545 23.2565C25.8614 24.6235 26.3664 25.952 27.36 26.9543C28.2733 27.8755 29.2972 28.3498 30.5605 28.4368C32.9357 28.6003 35.1559 26.8971 35.6556 24.5281C35.782 23.9289 35.7747 22.8654 35.6413 22.4157L35.5865 22.2311H37.5238H39.4612L39.4597 22.4977C39.4589 22.6444 39.4055 23.1335 39.3411 23.5847C38.3303 30.6669 33.2851 36.5851 26.4503 38.7057C25.4491 39.0163 23.813 39.348 22.9108 39.4232L22.234 39.4796L22.2339 36.4132C22.2338 32.9932 22.2295 32.9646 21.6682 32.5896C21.2041 32.2796 20.7371 32.3309 20.0773 32.7643C19.7751 32.9627 19.339 33.1704 19.1081 33.2258C17.9922 33.4936 16.8434 32.9317 16.3233 31.8639C16.0457 31.294 16.0457 30.3955 16.3233 29.8256C16.8434 28.7578 17.9922 28.1959 19.1081 28.4637C19.339 28.5191 19.7751 28.7268 20.0773 28.9252C20.7371 29.3586 21.2041 29.4099 21.6682 29.0999C22.2294 28.725 22.2338 28.6951 22.2339 25.2869L22.234 22.2311H24.1714H26.1088L26.054 22.4157Z" fill="#F77254"/>
</svg>
