<svg width="80" height="80" viewBox="0 0 80 80" fill="none" xmlns="http://www.w3.org/2000/svg">
<path fill-rule="evenodd" clip-rule="evenodd" d="M33.5272 0.10046C33.2693 0.130673 32.3899 0.231019 31.5731 0.32338C22.702 1.32809 13.8177 6.36242 7.9731 13.6966C1.7427 21.5149 -1.10651 32.1323 0.392819 41.9436C1.94358 52.0914 7.57978 61.0732 16.0088 66.8289L17.406 67.7829H8.85682H0.307777V70.4438V73.1048L35.1786 73.1443L70.0495 73.1837L68.5424 74.4361C67.7135 75.1249 66.9278 75.772 66.7966 75.8741C66.5926 76.0328 66.802 76.3573 68.2383 78.1085C69.7196 79.9144 69.9485 80.1321 70.1696 79.9454C70.3074 79.8289 72.4722 78.0307 74.9802 75.9494C79.0372 72.5824 79.5695 72.0876 79.8079 71.4625C80.1268 70.6264 80.0425 69.6448 79.6009 69.0489C79.1532 68.4446 70.7566 61.3537 70.6451 61.4857C68.5347 63.9832 67.3394 65.4499 67.3882 65.4818C67.4751 65.5387 69.5897 67.3249 69.8675 67.576C70.0576 67.7478 68.8123 67.7829 62.5202 67.7826L54.944 67.7823L56.297 66.8801C62.8222 62.5291 68.0146 55.6677 70.4811 48.1365C71.6215 44.6548 72.3744 40.4362 72.3744 37.5277V36.4664L69.7559 36.5093L67.1374 36.5521L67.03 38.3823C66.5629 46.3495 63.0936 53.7942 57.2679 59.3313C44.9319 71.0561 25.5483 70.4828 13.8203 58.0461C2.44101 45.979 2.47869 26.9221 13.9052 14.9643C16.583 12.1619 19.4354 10.0569 22.7407 8.44416C35.539 2.19895 50.7697 5.48452 59.9117 16.4624C61.3479 18.1871 63.7709 21.9728 63.5685 22.1755C63.5218 22.2225 62.5116 21.9365 61.324 21.5401C60.1362 21.1437 59.079 20.8194 58.9747 20.8194C58.8191 20.8194 57.1369 25.656 57.2543 25.7657C57.325 25.8319 67.1198 28.9705 67.7567 29.131C68.7088 29.3711 69.5485 29.1059 70.2308 28.3497C70.5321 28.0157 70.8213 27.5409 70.8735 27.2944C71.1241 26.1104 72.6841 16.0679 72.6262 16.01C72.4994 15.8829 67.8018 15.1653 67.6013 15.2423C67.4815 15.2883 67.3541 15.7395 67.2891 16.3477C67.2286 16.9129 67.1346 17.3752 67.0802 17.3751C67.0257 17.3749 66.7895 17.0709 66.5551 16.6994C61.4642 8.62951 52.2472 2.41936 42.7078 0.632087C39.7976 0.0866842 35.6848 -0.151421 33.5272 0.10046ZM32.3548 18.6213C29.8823 19.1507 27.2347 20.3731 25.1428 21.9506C24.0128 22.8026 21.5682 25.2386 21.5682 25.5126C21.5682 25.5826 22.7885 26.3467 24.28 27.2106L26.9918 28.7814L27.9146 27.9195C29.4641 26.4722 31.1138 25.5455 33.1755 24.9642L34.0743 24.7108V21.5127C34.0743 19.0528 34.0293 18.3171 33.8789 18.3256C33.7715 18.3317 33.0856 18.4648 32.3548 18.6213ZM38.2952 21.4963V24.6816L39.2722 24.9509C42.5749 25.8609 45.4255 28.2089 46.8952 31.2296C47.7079 32.9001 48.0007 34.0449 48.0998 35.9394C48.384 41.3717 45.0471 46.2075 39.8347 47.9172L38.2952 48.422V51.596V54.7699L38.8814 54.6868C41.2194 54.3548 44.3041 53.1484 46.4248 51.7366C50.4049 49.087 53.4062 44.4347 54.2514 39.6048C54.5147 38.1004 54.5153 35.0094 54.2527 33.4995C53.5706 29.5792 51.8532 26.342 48.9374 23.4806C46.0737 20.6702 42.7778 18.9961 38.9596 18.4125L38.2952 18.3109V21.4963ZM19.1389 29.8536C18.1986 32.0829 17.7027 35.616 17.9661 38.2089C18.1309 39.8316 18.6623 42.1209 19.1331 43.2371L19.3776 43.8168L22.1144 42.2402C23.6195 41.3731 24.8511 40.5948 24.8511 40.5105C24.8511 40.4263 24.7298 39.9592 24.5814 39.4723C24.1943 38.202 24.2081 34.8799 24.6059 33.5304C24.7767 32.9518 24.839 32.4878 24.7568 32.4087C24.6797 32.3347 23.491 31.6255 22.1154 30.8331C20.7397 30.0407 19.5635 29.3625 19.5016 29.3262C19.4397 29.2899 19.2765 29.5272 19.1389 29.8536ZM24.3117 45.8454C22.8543 46.6924 21.6398 47.4519 21.6126 47.5333C21.5227 47.8035 23.7587 50.0739 25.1357 51.1104C27.3082 52.7456 30.0399 54.0011 32.4329 54.464C32.9488 54.5638 33.5306 54.6796 33.7257 54.7214L34.0808 54.7972L34.0384 51.5629L33.9962 48.3286L33.1364 48.111C31.2803 47.641 29.1808 46.4154 27.7225 44.9502C27.3671 44.5932 27.0506 44.3021 27.019 44.3033C26.9873 44.3046 25.769 44.9985 24.3117 45.8454Z" fill="#7B3FE4"/>
</svg>
