<svg width="444" height="424" viewBox="0 0 444 424" fill="none" xmlns="http://www.w3.org/2000/svg">
<circle opacity="0.6" cx="224" cy="145" r="145" fill="#1DCD6E"/>
<ellipse opacity="0.6" cx="299" cy="278.5" rx="145" ry="144.5" fill="#7B3FE4"/>
<circle opacity="0.6" cx="145" cy="279" r="145" fill="#01004C"/>
<path d="M146.472 94.968H148.584V80.632H146.472V76.6H156.296C157.363 76.6 158.301 76.7493 159.112 77.048C159.944 77.3467 160.637 77.752 161.192 78.264C161.768 78.776 162.195 79.3947 162.472 80.12C162.771 80.824 162.92 81.592 162.92 82.424V82.808C162.92 84.088 162.557 85.112 161.832 85.88C161.128 86.648 160.232 87.1813 159.144 87.48V88.056C160.232 88.3547 161.128 88.8987 161.832 89.688C162.557 90.456 162.92 91.48 162.92 92.76V93.144C162.92 93.976 162.771 94.7547 162.472 95.48C162.195 96.184 161.768 96.8027 161.192 97.336C160.637 97.848 159.944 98.2533 159.112 98.552C158.301 98.8507 157.363 99 156.296 99H146.472V94.968ZM152.808 94.968H155.88C156.776 94.968 157.501 94.776 158.056 94.392C158.611 94.008 158.888 93.368 158.888 92.472V92.28C158.888 91.384 158.611 90.744 158.056 90.36C157.501 89.976 156.776 89.784 155.88 89.784H152.808V94.968ZM152.808 85.752H155.88C156.776 85.752 157.501 85.5707 158.056 85.208C158.611 84.824 158.888 84.184 158.888 83.288V83.096C158.888 82.2 158.611 81.5707 158.056 81.208C157.501 80.824 156.776 80.632 155.88 80.632H152.808V85.752ZM177.842 83.128H181.874V99H177.842V96.696H177.266C176.562 98.5307 175.047 99.448 172.722 99.448C171.932 99.448 171.196 99.32 170.514 99.064C169.831 98.808 169.234 98.4133 168.722 97.88C168.21 97.3467 167.804 96.6853 167.506 95.896C167.228 95.0853 167.09 94.136 167.09 93.048V83.128H171.122V92.216C171.122 93.3467 171.388 94.232 171.922 94.872C172.455 95.4907 173.255 95.8 174.322 95.8C175.538 95.8 176.423 95.416 176.978 94.648C177.554 93.8587 177.842 92.792 177.842 91.448V83.128ZM191.74 87.608C191.74 88.12 192.006 88.4933 192.54 88.728C193.073 88.9413 194.044 89.1227 195.452 89.272C197.073 89.4427 198.396 89.9333 199.42 90.744C200.444 91.5333 200.956 92.6427 200.956 94.072V94.264C200.956 95.8427 200.38 97.1013 199.228 98.04C198.076 98.9787 196.454 99.448 194.364 99.448C193.126 99.448 192.07 99.288 191.196 98.968C190.321 98.648 189.596 98.2533 189.02 97.784C188.444 97.2933 187.996 96.76 187.676 96.184C187.377 95.5867 187.174 95.0107 187.068 94.456L190.78 93.24C190.95 93.9227 191.302 94.52 191.836 95.032C192.39 95.544 193.233 95.8 194.364 95.8C195.366 95.8 196.049 95.6507 196.412 95.352C196.796 95.032 196.988 94.6907 196.988 94.328C196.988 94.1147 196.934 93.9227 196.828 93.752C196.742 93.56 196.572 93.3893 196.316 93.24C196.06 93.0693 195.708 92.9307 195.26 92.824C194.833 92.7173 194.289 92.632 193.628 92.568C191.836 92.4187 190.406 91.96 189.34 91.192C188.294 90.4027 187.772 89.2507 187.772 87.736V87.544C187.772 86.7547 187.942 86.0613 188.284 85.464C188.625 84.8667 189.073 84.3653 189.628 83.96C190.182 83.5333 190.822 83.2133 191.548 83C192.273 82.7867 193.02 82.68 193.788 82.68C194.79 82.68 195.654 82.808 196.38 83.064C197.126 83.2987 197.756 83.6187 198.268 84.024C198.78 84.408 199.196 84.8453 199.516 85.336C199.836 85.8053 200.081 86.264 200.252 86.712L196.604 88.184C196.412 87.608 196.081 87.16 195.612 86.84C195.142 86.4987 194.534 86.328 193.788 86.328C193.105 86.328 192.593 86.456 192.252 86.712C191.91 86.9467 191.74 87.2453 191.74 87.608ZM206.565 95.16H211.941V86.968H206.949V83.128H215.973V95.16H220.581V99H206.565V95.16ZM216.965 78.424C216.965 78.8507 216.88 79.256 216.709 79.64C216.56 80.0027 216.347 80.3227 216.069 80.6C215.792 80.856 215.461 81.0693 215.077 81.24C214.715 81.3893 214.331 81.464 213.925 81.464C213.499 81.464 213.104 81.3893 212.741 81.24C212.379 81.0693 212.059 80.856 211.781 80.6C211.504 80.3227 211.28 80.0027 211.109 79.64C210.96 79.256 210.885 78.8507 210.885 78.424C210.885 77.9973 210.96 77.6027 211.109 77.24C211.28 76.856 211.504 76.536 211.781 76.28C212.059 76.0027 212.379 75.7893 212.741 75.64C213.104 75.4693 213.499 75.384 213.925 75.384C214.331 75.384 214.715 75.4693 215.077 75.64C215.461 75.7893 215.792 76.0027 216.069 76.28C216.347 76.536 216.56 76.856 216.709 77.24C216.88 77.6027 216.965 77.9973 216.965 78.424ZM229.903 99H225.871V83.128H229.903V85.496H230.479C230.842 84.6 231.428 83.9067 232.239 83.416C233.05 82.9253 233.999 82.68 235.087 82.68C235.855 82.68 236.57 82.808 237.231 83.064C237.914 83.2987 238.511 83.672 239.023 84.184C239.535 84.696 239.93 85.3467 240.207 86.136C240.506 86.9253 240.655 87.864 240.655 88.952V99H236.623V89.976C236.623 88.8453 236.346 87.96 235.791 87.32C235.258 86.6587 234.479 86.328 233.455 86.328C232.26 86.328 231.364 86.7333 230.767 87.544C230.191 88.3333 229.903 89.4 229.903 90.744V99ZM249.017 92.376C249.038 92.8453 249.145 93.2827 249.337 93.688C249.55 94.072 249.827 94.4133 250.169 94.712C250.531 94.9893 250.937 95.2133 251.385 95.384C251.854 95.5333 252.345 95.608 252.857 95.608C253.859 95.608 254.627 95.4373 255.161 95.096C255.694 94.7333 256.078 94.3067 256.313 93.816L259.769 95.736C259.577 96.1413 259.31 96.568 258.969 97.016C258.627 97.4427 258.179 97.8373 257.625 98.2C257.091 98.5627 256.43 98.8613 255.641 99.096C254.873 99.3307 253.966 99.448 252.921 99.448C251.726 99.448 250.638 99.256 249.657 98.872C248.675 98.488 247.822 97.9333 247.097 97.208C246.393 96.4827 245.838 95.5973 245.433 94.552C245.049 93.5067 244.857 92.3227 244.857 91V90.808C244.857 89.592 245.059 88.4827 245.465 87.48C245.891 86.4773 246.467 85.624 247.193 84.92C247.918 84.216 248.761 83.672 249.721 83.288C250.702 82.8827 251.747 82.68 252.857 82.68C254.222 82.68 255.395 82.9253 256.377 83.416C257.358 83.8853 258.169 84.4933 258.809 85.24C259.449 85.9653 259.918 86.776 260.217 87.672C260.515 88.5467 260.665 89.4 260.665 90.232V92.376H249.017ZM252.825 86.328C251.801 86.328 250.969 86.5947 250.329 87.128C249.689 87.64 249.273 88.2373 249.081 88.92H256.569C256.441 88.1733 256.035 87.5547 255.353 87.064C254.691 86.5733 253.849 86.328 252.825 86.328ZM270.115 87.608C270.115 88.12 270.381 88.4933 270.915 88.728C271.448 88.9413 272.419 89.1227 273.827 89.272C275.448 89.4427 276.771 89.9333 277.795 90.744C278.819 91.5333 279.331 92.6427 279.331 94.072V94.264C279.331 95.8427 278.755 97.1013 277.603 98.04C276.451 98.9787 274.829 99.448 272.739 99.448C271.501 99.448 270.445 99.288 269.571 98.968C268.696 98.648 267.971 98.2533 267.395 97.784C266.819 97.2933 266.371 96.76 266.051 96.184C265.752 95.5867 265.549 95.0107 265.443 94.456L269.155 93.24C269.325 93.9227 269.677 94.52 270.211 95.032C270.765 95.544 271.608 95.8 272.739 95.8C273.741 95.8 274.424 95.6507 274.787 95.352C275.171 95.032 275.363 94.6907 275.363 94.328C275.363 94.1147 275.309 93.9227 275.203 93.752C275.117 93.56 274.947 93.3893 274.691 93.24C274.435 93.0693 274.083 92.9307 273.635 92.824C273.208 92.7173 272.664 92.632 272.003 92.568C270.211 92.4187 268.781 91.96 267.715 91.192C266.669 90.4027 266.147 89.2507 266.147 87.736V87.544C266.147 86.7547 266.317 86.0613 266.659 85.464C267 84.8667 267.448 84.3653 268.003 83.96C268.557 83.5333 269.197 83.2133 269.923 83C270.648 82.7867 271.395 82.68 272.163 82.68C273.165 82.68 274.029 82.808 274.755 83.064C275.501 83.2987 276.131 83.6187 276.643 84.024C277.155 84.408 277.571 84.8453 277.891 85.336C278.211 85.8053 278.456 86.264 278.627 86.712L274.979 88.184C274.787 87.608 274.456 87.16 273.987 86.84C273.517 86.4987 272.909 86.328 272.163 86.328C271.48 86.328 270.968 86.456 270.627 86.712C270.285 86.9467 270.115 87.2453 270.115 87.608ZM289.708 87.608C289.708 88.12 289.975 88.4933 290.508 88.728C291.042 88.9413 292.012 89.1227 293.42 89.272C295.042 89.4427 296.364 89.9333 297.388 90.744C298.412 91.5333 298.924 92.6427 298.924 94.072V94.264C298.924 95.8427 298.348 97.1013 297.196 98.04C296.044 98.9787 294.423 99.448 292.332 99.448C291.095 99.448 290.039 99.288 289.164 98.968C288.29 98.648 287.564 98.2533 286.988 97.784C286.412 97.2933 285.964 96.76 285.644 96.184C285.346 95.5867 285.143 95.0107 285.036 94.456L288.748 93.24C288.919 93.9227 289.271 94.52 289.804 95.032C290.359 95.544 291.202 95.8 292.332 95.8C293.335 95.8 294.018 95.6507 294.38 95.352C294.764 95.032 294.956 94.6907 294.956 94.328C294.956 94.1147 294.903 93.9227 294.796 93.752C294.711 93.56 294.54 93.3893 294.284 93.24C294.028 93.0693 293.676 92.9307 293.228 92.824C292.802 92.7173 292.258 92.632 291.596 92.568C289.804 92.4187 288.375 91.96 287.308 91.192C286.263 90.4027 285.74 89.2507 285.74 87.736V87.544C285.74 86.7547 285.911 86.0613 286.252 85.464C286.594 84.8667 287.042 84.3653 287.596 83.96C288.151 83.5333 288.791 83.2133 289.516 83C290.242 82.7867 290.988 82.68 291.756 82.68C292.759 82.68 293.623 82.808 294.348 83.064C295.095 83.2987 295.724 83.6187 296.236 84.024C296.748 84.408 297.164 84.8453 297.484 85.336C297.804 85.8053 298.05 86.264 298.22 86.712L294.572 88.184C294.38 87.608 294.05 87.16 293.58 86.84C293.111 86.4987 292.503 86.328 291.756 86.328C291.074 86.328 290.562 86.456 290.22 86.712C289.879 86.9467 289.708 87.2453 289.708 87.608Z" fill="white"/>
<path d="M190.536 219.121V223.609H188.292V211.709H192.95C193.562 211.709 194.095 211.811 194.548 212.015C195.001 212.208 195.375 212.468 195.67 212.797C195.976 213.114 196.203 213.483 196.35 213.902C196.509 214.31 196.588 214.729 196.588 215.16V215.568C196.588 216.01 196.509 216.446 196.35 216.877C196.203 217.296 195.976 217.676 195.67 218.016C195.375 218.345 195.001 218.611 194.548 218.815C194.095 219.019 193.562 219.121 192.95 219.121H190.536ZM190.536 216.979H192.729C193.228 216.979 193.619 216.843 193.902 216.571C194.197 216.299 194.344 215.948 194.344 215.517V215.313C194.344 214.882 194.197 214.531 193.902 214.259C193.619 213.987 193.228 213.851 192.729 213.851H190.536V216.979ZM198.395 215.177H201.965V216.401H202.271C202.43 215.936 202.696 215.579 203.07 215.33C203.455 215.069 203.914 214.939 204.447 214.939C205.286 214.939 205.96 215.205 206.47 215.738C206.98 216.259 207.235 217.058 207.235 218.135V218.509L205.025 218.713V218.475C205.025 218.01 204.906 217.642 204.668 217.37C204.43 217.087 204.073 216.945 203.597 216.945C203.121 216.945 202.747 217.109 202.475 217.438C202.203 217.767 202.067 218.237 202.067 218.849V221.569H204.005V223.609H198.191V221.569H199.925V217.217H198.395V215.177ZM217.474 219.495C217.474 220.198 217.355 220.821 217.117 221.365C216.879 221.898 216.556 222.351 216.148 222.725C215.74 223.088 215.27 223.365 214.737 223.558C214.216 223.751 213.666 223.847 213.088 223.847C212.51 223.847 211.955 223.751 211.422 223.558C210.901 223.365 210.436 223.088 210.028 222.725C209.62 222.351 209.297 221.898 209.059 221.365C208.821 220.821 208.702 220.198 208.702 219.495V219.291C208.702 218.6 208.821 217.988 209.059 217.455C209.297 216.911 209.62 216.452 210.028 216.078C210.436 215.704 210.901 215.421 211.422 215.228C211.955 215.035 212.51 214.939 213.088 214.939C213.666 214.939 214.216 215.035 214.737 215.228C215.27 215.421 215.74 215.704 216.148 216.078C216.556 216.452 216.879 216.911 217.117 217.455C217.355 217.988 217.474 218.6 217.474 219.291V219.495ZM213.088 221.807C213.394 221.807 213.683 221.756 213.955 221.654C214.227 221.552 214.465 221.405 214.669 221.212C214.873 221.019 215.032 220.787 215.145 220.515C215.27 220.232 215.332 219.914 215.332 219.563V219.223C215.332 218.872 215.27 218.56 215.145 218.288C215.032 218.005 214.873 217.767 214.669 217.574C214.465 217.381 214.227 217.234 213.955 217.132C213.683 217.03 213.394 216.979 213.088 216.979C212.782 216.979 212.493 217.03 212.221 217.132C211.949 217.234 211.711 217.381 211.507 217.574C211.303 217.767 211.139 218.005 211.014 218.288C210.901 218.56 210.844 218.872 210.844 219.223V219.563C210.844 219.914 210.901 220.232 211.014 220.515C211.139 220.787 211.303 221.019 211.507 221.212C211.711 221.405 211.949 221.552 212.221 221.654C212.493 221.756 212.782 221.807 213.088 221.807ZM225.673 222.385H225.367C225.277 222.578 225.163 222.765 225.027 222.946C224.903 223.116 224.733 223.269 224.517 223.405C224.313 223.541 224.064 223.649 223.769 223.728C223.486 223.807 223.14 223.847 222.732 223.847C222.211 223.847 221.724 223.756 221.27 223.575C220.828 223.382 220.437 223.105 220.097 222.742C219.769 222.368 219.508 221.915 219.315 221.382C219.134 220.849 219.043 220.237 219.043 219.546V219.24C219.043 218.56 219.14 217.954 219.332 217.421C219.536 216.888 219.808 216.441 220.148 216.078C220.5 215.704 220.902 215.421 221.355 215.228C221.82 215.035 222.307 214.939 222.817 214.939C223.497 214.939 224.036 215.069 224.432 215.33C224.829 215.579 225.141 215.936 225.367 216.401H225.673V211.709H227.815V223.609H225.673V222.385ZM223.429 221.807C224.098 221.807 224.636 221.597 225.044 221.178C225.464 220.747 225.673 220.186 225.673 219.495V219.291C225.673 218.6 225.464 218.044 225.044 217.625C224.636 217.194 224.098 216.979 223.429 216.979C222.761 216.979 222.217 217.189 221.797 217.608C221.389 218.016 221.185 218.577 221.185 219.291V219.495C221.185 220.209 221.389 220.776 221.797 221.195C222.217 221.603 222.761 221.807 223.429 221.807ZM235.743 215.177H237.885V223.609H235.743V222.385H235.437C235.063 223.36 234.258 223.847 233.023 223.847C232.603 223.847 232.212 223.779 231.85 223.643C231.487 223.507 231.17 223.297 230.898 223.014C230.626 222.731 230.41 222.379 230.252 221.96C230.104 221.529 230.031 221.025 230.031 220.447V215.177H232.173V220.005C232.173 220.606 232.314 221.076 232.598 221.416C232.881 221.745 233.306 221.909 233.873 221.909C234.519 221.909 234.989 221.705 235.284 221.297C235.59 220.878 235.743 220.311 235.743 219.597V215.177ZM248.668 220.515C248.475 221.512 248.016 222.317 247.291 222.929C246.577 223.541 245.619 223.847 244.418 223.847C243.794 223.847 243.211 223.751 242.667 223.558C242.134 223.365 241.669 223.088 241.273 222.725C240.876 222.362 240.564 221.915 240.338 221.382C240.111 220.849 239.998 220.243 239.998 219.563V219.359C239.998 218.679 240.111 218.067 240.338 217.523C240.564 216.979 240.876 216.514 241.273 216.129C241.681 215.744 242.151 215.449 242.684 215.245C243.228 215.041 243.806 214.939 244.418 214.939C245.596 214.939 246.548 215.245 247.274 215.857C248.01 216.469 248.475 217.274 248.668 218.271L246.56 218.815C246.492 218.316 246.276 217.886 245.914 217.523C245.551 217.16 245.041 216.979 244.384 216.979C244.078 216.979 243.789 217.036 243.517 217.149C243.245 217.262 243.007 217.427 242.803 217.642C242.599 217.846 242.434 218.101 242.31 218.407C242.196 218.702 242.14 219.036 242.14 219.41V219.512C242.14 219.886 242.196 220.22 242.31 220.515C242.434 220.798 242.599 221.036 242.803 221.229C243.007 221.422 243.245 221.569 243.517 221.671C243.789 221.762 244.078 221.807 244.384 221.807C245.041 221.807 245.54 221.643 245.88 221.314C246.231 220.985 246.458 220.543 246.56 219.988L248.668 220.515ZM250.611 215.177H253.11V211.709H255.252V215.177H258.295V217.217H255.252V221.059C255.252 221.399 255.405 221.569 255.711 221.569H257.989V223.609H254.419C254.034 223.609 253.716 223.484 253.467 223.235C253.229 222.986 253.11 222.668 253.11 222.283V217.217H250.611V215.177ZM171.828 236.709H175.772L176.452 245.651V247.385H176.86V245.651L177.54 236.709H181.484V248.609H179.444V240.653L179.648 237.933H179.24L178.356 248.609H174.99L174.072 237.933H173.664L173.868 240.653V248.609H171.828V236.709ZM188.646 247.385C188.42 247.918 188.102 248.297 187.694 248.524C187.286 248.739 186.81 248.847 186.266 248.847C185.756 248.847 185.275 248.751 184.821 248.558C184.379 248.365 183.988 248.082 183.648 247.708C183.308 247.334 183.036 246.881 182.832 246.348C182.64 245.815 182.543 245.209 182.543 244.529V244.257C182.543 243.588 182.64 242.988 182.832 242.455C183.025 241.922 183.286 241.469 183.614 241.095C183.943 240.721 184.323 240.438 184.753 240.245C185.195 240.041 185.666 239.939 186.164 239.939C186.765 239.939 187.247 240.041 187.609 240.245C187.983 240.449 188.278 240.766 188.493 241.197H188.799V240.177H190.941V246.059C190.941 246.399 191.094 246.569 191.4 246.569H191.723V248.609H190.261C189.876 248.609 189.559 248.496 189.309 248.269C189.071 248.042 188.952 247.748 188.952 247.385H188.646ZM186.742 246.807C187.366 246.807 187.864 246.603 188.238 246.195C188.612 245.776 188.799 245.209 188.799 244.495V244.291C188.799 243.577 188.612 243.016 188.238 242.608C187.864 242.189 187.366 241.979 186.742 241.979C186.119 241.979 185.62 242.189 185.246 242.608C184.872 243.016 184.685 243.577 184.685 244.291V244.495C184.685 245.209 184.872 245.776 185.246 246.195C185.62 246.603 186.119 246.807 186.742 246.807ZM195.74 248.609H193.598V240.177H195.74V241.435H196.046C196.239 240.959 196.551 240.591 196.981 240.33C197.412 240.069 197.916 239.939 198.494 239.939C198.902 239.939 199.282 240.007 199.633 240.143C199.996 240.268 200.313 240.466 200.585 240.738C200.857 241.01 201.067 241.356 201.214 241.775C201.373 242.194 201.452 242.693 201.452 243.271V248.609H199.31V243.815C199.31 243.214 199.163 242.744 198.868 242.404C198.585 242.053 198.171 241.877 197.627 241.877C196.993 241.877 196.517 242.092 196.199 242.523C195.893 242.942 195.74 243.509 195.74 244.223V248.609ZM209.465 247.385C209.238 247.918 208.921 248.297 208.513 248.524C208.105 248.739 207.629 248.847 207.085 248.847C206.575 248.847 206.093 248.751 205.64 248.558C205.198 248.365 204.807 248.082 204.467 247.708C204.127 247.334 203.855 246.881 203.651 246.348C203.458 245.815 203.362 245.209 203.362 244.529V244.257C203.362 243.588 203.458 242.988 203.651 242.455C203.843 241.922 204.104 241.469 204.433 241.095C204.761 240.721 205.141 240.438 205.572 240.245C206.014 240.041 206.484 239.939 206.983 239.939C207.583 239.939 208.065 240.041 208.428 240.245C208.802 240.449 209.096 240.766 209.312 241.197H209.618V240.177H211.76V246.059C211.76 246.399 211.913 246.569 212.219 246.569H212.542V248.609H211.08C210.694 248.609 210.377 248.496 210.128 248.269C209.89 248.042 209.771 247.748 209.771 247.385H209.465ZM207.561 246.807C208.184 246.807 208.683 246.603 209.057 246.195C209.431 245.776 209.618 245.209 209.618 244.495V244.291C209.618 243.577 209.431 243.016 209.057 242.608C208.683 242.189 208.184 241.979 207.561 241.979C206.937 241.979 206.439 242.189 206.065 242.608C205.691 243.016 205.504 243.577 205.504 244.291V244.495C205.504 245.209 205.691 245.776 206.065 246.195C206.439 246.603 206.937 246.807 207.561 246.807ZM220.435 247.385H220.129C220.038 247.578 219.925 247.765 219.789 247.946C219.664 248.116 219.494 248.269 219.279 248.405C219.075 248.541 218.825 248.649 218.531 248.728C218.247 248.807 217.902 248.847 217.494 248.847C216.972 248.847 216.485 248.756 216.032 248.575C215.59 248.382 215.199 248.105 214.859 247.742C214.53 247.368 214.269 246.915 214.077 246.382C213.895 245.849 213.805 245.237 213.805 244.546V244.24C213.805 243.56 213.901 242.954 214.094 242.421C214.298 241.888 214.57 241.441 214.91 241.078C215.261 240.704 215.663 240.421 216.117 240.228C216.581 240.035 217.069 239.939 217.579 239.939C218.259 239.939 218.797 240.069 219.194 240.33C219.59 240.579 219.902 240.936 220.129 241.401H220.435V240.177H222.577V250.683C222.577 251.068 222.452 251.386 222.203 251.635C221.965 251.884 221.653 252.009 221.268 252.009H215.59V249.969H219.976C220.282 249.969 220.435 249.799 220.435 249.459V247.385ZM218.191 246.807C218.859 246.807 219.398 246.597 219.806 246.178C220.225 245.747 220.435 245.186 220.435 244.495V244.291C220.435 243.6 220.225 243.044 219.806 242.625C219.398 242.194 218.859 241.979 218.191 241.979C217.522 241.979 216.978 242.189 216.559 242.608C216.151 243.016 215.947 243.577 215.947 244.291V244.495C215.947 245.209 216.151 245.776 216.559 246.195C216.978 246.603 217.522 246.807 218.191 246.807ZM226.713 245.09C226.724 245.339 226.781 245.572 226.883 245.787C226.996 245.991 227.144 246.172 227.325 246.331C227.518 246.478 227.733 246.597 227.971 246.688C228.22 246.767 228.481 246.807 228.753 246.807C229.286 246.807 229.694 246.716 229.977 246.535C230.26 246.342 230.464 246.116 230.589 245.855L232.425 246.875C232.323 247.09 232.181 247.317 232 247.555C231.819 247.782 231.581 247.991 231.286 248.184C231.003 248.377 230.651 248.535 230.232 248.66C229.824 248.785 229.342 248.847 228.787 248.847C228.152 248.847 227.574 248.745 227.053 248.541C226.532 248.337 226.078 248.042 225.693 247.657C225.319 247.272 225.024 246.801 224.809 246.246C224.605 245.691 224.503 245.062 224.503 244.359V244.257C224.503 243.611 224.611 243.022 224.826 242.489C225.053 241.956 225.359 241.503 225.744 241.129C226.129 240.755 226.577 240.466 227.087 240.262C227.608 240.047 228.164 239.939 228.753 239.939C229.478 239.939 230.102 240.069 230.623 240.33C231.144 240.579 231.575 240.902 231.915 241.299C232.255 241.684 232.504 242.115 232.663 242.591C232.822 243.056 232.901 243.509 232.901 243.951V245.09H226.713ZM228.736 241.877C228.192 241.877 227.75 242.019 227.41 242.302C227.07 242.574 226.849 242.891 226.747 243.254H230.725C230.657 242.857 230.442 242.529 230.079 242.268C229.728 242.007 229.28 241.877 228.736 241.877ZM243.701 248.609H241.559V242.693C241.559 242.455 241.497 242.279 241.372 242.166C241.259 242.041 241.106 241.979 240.913 241.979C240.687 241.979 240.505 242.047 240.369 242.183C240.245 242.319 240.182 242.523 240.182 242.795V248.609H238.04V242.693C238.04 242.455 237.972 242.279 237.836 242.166C237.712 242.041 237.559 241.979 237.377 241.979C237.173 241.979 237.003 242.047 236.867 242.183C236.731 242.319 236.663 242.523 236.663 242.795V248.609H234.521V240.177H236.663V240.993H236.969C237.037 240.687 237.19 240.438 237.428 240.245C237.678 240.041 238.001 239.939 238.397 239.939C238.771 239.939 239.089 240.041 239.349 240.245C239.61 240.438 239.786 240.687 239.876 240.993H240.182C240.273 240.687 240.46 240.438 240.743 240.245C241.038 240.041 241.401 239.939 241.831 239.939C242.398 239.939 242.851 240.132 243.191 240.517C243.531 240.891 243.701 241.412 243.701 242.081V248.609ZM247.531 245.09C247.543 245.339 247.599 245.572 247.701 245.787C247.815 245.991 247.962 246.172 248.143 246.331C248.336 246.478 248.551 246.597 248.789 246.688C249.039 246.767 249.299 246.807 249.571 246.807C250.104 246.807 250.512 246.716 250.795 246.535C251.079 246.342 251.283 246.116 251.407 245.855L253.243 246.875C253.141 247.09 253 247.317 252.818 247.555C252.637 247.782 252.399 247.991 252.104 248.184C251.821 248.377 251.47 248.535 251.05 248.66C250.642 248.785 250.161 248.847 249.605 248.847C248.971 248.847 248.393 248.745 247.871 248.541C247.35 248.337 246.897 248.042 246.511 247.657C246.137 247.272 245.843 246.801 245.627 246.246C245.423 245.691 245.321 245.062 245.321 244.359V244.257C245.321 243.611 245.429 243.022 245.644 242.489C245.871 241.956 246.177 241.503 246.562 241.129C246.948 240.755 247.395 240.466 247.905 240.262C248.427 240.047 248.982 239.939 249.571 239.939C250.297 239.939 250.92 240.069 251.441 240.33C251.963 240.579 252.393 240.902 252.733 241.299C253.073 241.684 253.323 242.115 253.481 242.591C253.64 243.056 253.719 243.509 253.719 243.951V245.09H247.531ZM249.554 241.877C249.01 241.877 248.568 242.019 248.228 242.302C247.888 242.574 247.667 242.891 247.565 243.254H251.543C251.475 242.857 251.26 242.529 250.897 242.268C250.546 242.007 250.098 241.877 249.554 241.877ZM258.196 248.609H256.054V240.177H258.196V241.435H258.502C258.694 240.959 259.006 240.591 259.437 240.33C259.867 240.069 260.372 239.939 260.95 239.939C261.358 239.939 261.737 240.007 262.089 240.143C262.451 240.268 262.769 240.466 263.041 240.738C263.313 241.01 263.522 241.356 263.67 241.775C263.828 242.194 263.908 242.693 263.908 243.271V248.609H261.766V243.815C261.766 243.214 261.618 242.744 261.324 242.404C261.04 242.053 260.627 241.877 260.083 241.877C259.448 241.877 258.972 242.092 258.655 242.523C258.349 242.942 258.196 243.509 258.196 244.223V248.609ZM266.225 240.177H268.724V236.709H270.866V240.177H273.909V242.217H270.866V246.059C270.866 246.399 271.019 246.569 271.325 246.569H273.603V248.609H270.033C269.647 248.609 269.33 248.484 269.081 248.235C268.843 247.986 268.724 247.668 268.724 247.283V242.217H266.225V240.177Z" fill="white"/>
<path d="M408.326 233.903L399.747 247.56L396.333 245.415L399.499 240.375L383.945 230.604L386.192 227.028L401.746 236.798L404.912 231.758L408.326 233.903ZM382.247 245.761C381.838 245.529 381.411 245.387 380.966 245.334C380.527 245.31 380.09 245.363 379.656 245.494C379.228 245.653 378.823 245.877 378.44 246.166C378.064 246.484 377.74 246.86 377.467 247.293C376.934 248.142 376.67 248.883 376.675 249.516C376.699 250.161 376.856 250.713 377.146 251.173L373.682 253.078C373.441 252.7 373.222 252.247 373.024 251.72C372.844 251.204 372.748 250.614 372.736 249.952C372.713 249.307 372.812 248.588 373.033 247.795C373.243 247.02 373.626 246.19 374.182 245.305C374.817 244.293 375.558 243.474 376.406 242.847C377.253 242.22 378.176 241.793 379.176 241.565C380.165 241.354 381.21 241.356 382.311 241.568C383.4 241.799 384.505 242.267 385.625 242.97L385.787 243.072C386.817 243.719 387.649 244.481 388.282 245.357C388.904 246.252 389.32 247.194 389.531 248.182C389.741 249.171 389.753 250.174 389.568 251.191C389.389 252.238 389.005 253.231 388.414 254.17C387.688 255.326 386.856 256.189 385.919 256.759C384.999 257.341 384.053 257.704 383.081 257.848C382.126 258.004 381.19 257.971 380.272 257.747C379.373 257.535 378.571 257.207 377.866 256.765L376.051 255.624L382.247 245.761ZM385.342 252.202C385.887 251.335 386.104 250.489 385.993 249.663C385.9 248.849 385.615 248.179 385.139 247.653L381.156 253.994C381.856 254.283 382.596 254.269 383.374 253.952C384.142 253.653 384.798 253.07 385.342 252.202ZM364.797 272.034C363.4 270.728 362.577 269.191 362.328 267.422C362.068 265.671 362.539 263.838 363.742 261.923C364.366 260.93 365.104 260.096 365.956 259.422C366.796 258.766 367.704 258.303 368.679 258.034C369.655 257.765 370.68 257.716 371.756 257.888C372.832 258.06 373.912 258.487 374.996 259.168L375.321 259.372C376.405 260.053 377.267 260.846 377.907 261.752C378.547 262.658 378.976 263.62 379.193 264.638C379.399 265.675 379.397 266.719 379.189 267.773C378.97 268.844 378.553 269.867 377.941 270.843C376.76 272.722 375.319 273.933 373.618 274.476C371.904 275.037 370.157 274.972 368.374 274.281L369.618 270.376C370.481 270.767 371.383 270.855 372.324 270.64C373.265 270.425 374.065 269.794 374.723 268.746C375.029 268.258 375.228 267.741 375.32 267.194C375.412 266.647 375.388 266.103 375.249 265.562C375.128 265.033 374.886 264.516 374.524 264.01C374.167 263.535 373.691 263.11 373.095 262.735L372.932 262.633C372.336 262.258 371.747 262.014 371.164 261.9C370.587 261.815 370.043 261.838 369.532 261.971C369.02 262.103 368.547 262.335 368.112 262.666C367.695 263.009 367.334 263.424 367.027 263.912C366.369 264.96 366.132 265.919 366.315 266.79C366.487 267.679 366.965 268.483 367.748 269.202L364.797 272.034ZM355.503 275.881L357.647 272.467L376.615 284.382L374.47 287.796L366.775 282.962L366.469 283.45C367.066 284.304 367.371 285.201 367.385 286.142C367.417 287.094 367.126 288.058 366.513 289.033C366.094 289.702 365.599 290.248 365.031 290.672C364.462 291.095 363.831 291.379 363.136 291.522C362.441 291.665 361.677 291.638 360.843 291.442C360.027 291.257 359.159 290.875 358.237 290.296L349.783 284.985L351.928 281.571L359.569 286.372C360.527 286.973 361.424 287.209 362.261 287.08C363.105 286.98 363.799 286.497 364.344 285.629C364.979 284.618 365.112 283.644 364.744 282.706C364.382 281.799 363.632 280.988 362.494 280.273L355.503 275.881ZM345.114 292.418L347.259 289.004L360.699 297.447L358.554 300.861L356.549 299.602L356.242 300.089C356.808 300.873 357.083 301.739 357.067 302.686C357.052 303.634 356.754 304.568 356.176 305.489C355.767 306.14 355.279 306.677 354.71 307.101C354.148 307.554 353.514 307.861 352.808 308.022C352.102 308.183 351.342 308.171 350.526 307.986C349.698 307.819 348.824 307.447 347.903 306.868L339.394 301.523L341.539 298.109L349.181 302.909C350.138 303.51 351.035 303.746 351.872 303.617C352.716 303.517 353.41 303.034 353.955 302.167C354.59 301.155 354.724 300.181 354.355 299.244C353.993 298.336 353.243 297.525 352.105 296.81L345.114 292.418ZM335.12 322.884C334 322.181 333.126 321.367 332.497 320.443C331.887 319.53 331.487 318.561 331.3 317.536C331.13 316.523 331.159 315.495 331.385 314.453C331.6 313.429 331.997 312.457 332.575 311.535C333.154 310.614 333.864 309.825 334.704 309.169C335.533 308.531 336.441 308.069 337.428 307.781C338.432 307.506 339.479 307.445 340.566 307.599C341.671 307.764 342.784 308.199 343.904 308.902L344.229 309.106C345.331 309.799 346.187 310.601 346.798 311.514C347.427 312.438 347.835 313.412 348.023 314.437C348.21 315.462 348.197 316.486 347.982 317.51C347.755 318.552 347.353 319.534 346.774 320.455C346.195 321.376 345.492 322.156 344.662 322.794C343.822 323.45 342.899 323.916 341.895 324.192C340.89 324.468 339.835 324.523 338.73 324.358C337.642 324.204 336.548 323.781 335.446 323.088L335.12 322.884ZM335.827 313.578C335.521 314.066 335.313 314.578 335.203 315.113C335.093 315.649 335.09 316.176 335.192 316.694C335.295 317.212 335.507 317.697 335.827 318.15C336.154 318.633 336.597 319.05 337.157 319.402L337.699 319.742C338.259 320.094 338.818 320.307 339.376 320.38C339.942 320.483 340.48 320.469 340.991 320.337C341.502 320.204 341.976 319.973 342.411 319.641C342.846 319.31 343.216 318.9 343.523 318.412C343.829 317.925 344.037 317.413 344.147 316.877C344.257 316.342 344.26 315.815 344.157 315.297C344.054 314.779 343.84 314.278 343.513 313.796C343.193 313.343 342.753 312.94 342.193 312.589L341.651 312.248C341.091 311.896 340.528 311.669 339.963 311.566C339.405 311.492 338.87 311.522 338.359 311.654C337.847 311.786 337.374 312.018 336.939 312.349C336.504 312.681 336.133 313.09 335.827 313.578ZM329.716 324.149L326.754 328.863L339.218 336.694L342.078 332.141L345.33 334.184L340.325 342.151L324.609 332.278L321.851 336.667L318.6 334.625L326.464 322.106L329.716 324.149ZM314.275 356.067C313.155 355.364 312.28 354.55 311.652 353.626C311.041 352.713 310.642 351.744 310.454 350.719C310.285 349.706 310.313 348.678 310.539 347.636C310.754 346.612 311.151 345.64 311.73 344.719C312.309 343.797 313.018 343.009 313.859 342.352C314.688 341.714 315.596 341.252 316.582 340.965C317.587 340.689 318.633 340.628 319.72 340.782C320.826 340.947 321.938 341.382 323.058 342.085L323.383 342.289C324.485 342.982 325.342 343.784 325.952 344.697C326.581 345.621 326.989 346.595 327.177 347.62C327.365 348.645 327.351 349.669 327.136 350.693C326.91 351.735 326.507 352.717 325.929 353.638C325.35 354.559 324.646 355.339 323.817 355.977C322.976 356.633 322.054 357.099 321.049 357.375C320.044 357.651 318.989 357.706 317.884 357.541C316.797 357.387 315.702 356.964 314.6 356.271L314.275 356.067ZM314.981 346.761C314.675 347.249 314.467 347.761 314.357 348.296C314.247 348.832 314.244 349.359 314.347 349.877C314.45 350.395 314.661 350.881 314.981 351.334C315.308 351.816 315.751 352.233 316.311 352.585L316.853 352.925C317.413 353.277 317.972 353.49 318.531 353.564C319.096 353.667 319.634 353.652 320.145 353.52C320.657 353.387 321.13 353.156 321.565 352.824C322 352.493 322.371 352.083 322.677 351.596C322.983 351.108 323.191 350.596 323.301 350.06C323.411 349.525 323.414 348.998 323.312 348.48C323.209 347.962 322.994 347.461 322.667 346.979C322.347 346.526 321.907 346.124 321.347 345.772L320.805 345.431C320.245 345.08 319.683 344.852 319.117 344.749C318.559 344.675 318.024 344.705 317.513 344.837C317.002 344.969 316.528 345.201 316.093 345.532C315.658 345.864 315.288 346.273 314.981 346.761ZM301.492 366.188L301.799 365.7C301.583 365.363 301.398 364.995 301.245 364.597C301.099 364.228 301.025 363.804 301.024 363.324C301.012 362.863 301.09 362.358 301.258 361.809C301.416 361.278 301.698 360.687 302.107 360.037C302.629 359.206 303.262 358.52 304.004 357.979C304.754 357.467 305.588 357.122 306.507 356.943C307.432 356.794 308.416 356.832 309.458 357.058C310.488 357.303 311.554 357.771 312.656 358.463L313.144 358.77C314.228 359.45 315.098 360.211 315.754 361.052C316.399 361.91 316.84 362.792 317.078 363.697C317.322 364.631 317.371 365.556 317.224 366.472C317.066 367.406 316.731 368.279 316.221 369.092C315.54 370.176 314.793 370.903 313.98 371.274C313.186 371.657 312.305 371.796 311.337 371.692L311.031 372.18L312.982 373.406L310.837 376.82L294.091 366.3C293.477 365.914 293.096 365.398 292.948 364.751C292.789 364.122 292.902 363.5 293.288 362.886L298.973 353.836L302.225 355.878L297.833 362.869C297.527 363.357 297.645 363.771 298.187 364.111L301.492 366.188ZM304.661 363.19C303.991 364.256 303.786 365.324 304.046 366.394C304.313 367.494 304.997 368.39 306.099 369.082L306.424 369.286C307.526 369.978 308.621 370.2 309.709 369.952C310.804 369.733 311.687 369.09 312.356 368.024C313.026 366.959 313.236 365.882 312.988 364.793C312.746 363.735 312.056 362.848 310.918 362.133L310.593 361.928C309.455 361.213 308.347 360.971 307.27 361.202C306.2 361.462 305.33 362.124 304.661 363.19ZM302.865 389.509L300.72 392.924L283.974 382.404C283.36 382.018 282.979 381.502 282.832 380.855C282.672 380.225 282.786 379.604 283.172 378.99L288.193 370.996L291.445 373.039L287.717 378.973C287.411 379.461 287.528 379.875 288.07 380.215L291.376 382.292L291.682 381.804C290.503 380.232 290.532 378.462 291.769 376.493C292.189 375.824 292.689 375.269 293.269 374.827C293.849 374.385 294.501 374.089 295.225 373.94C295.949 373.79 296.724 373.798 297.552 373.965C298.386 374.162 299.263 374.549 300.185 375.128L308.585 380.405L306.44 383.819L298.744 378.985C297.787 378.383 296.895 378.138 296.07 378.249C295.262 378.372 294.575 378.885 294.007 379.788C293.36 380.818 293.215 381.772 293.57 382.65C293.932 383.557 294.682 384.369 295.82 385.084L302.865 389.509Z" fill="white"/>
<path d="M134.971 364.408C134.559 363.71 134.122 363.2 133.66 362.879C133.168 362.549 132.678 362.368 132.188 362.336C131.668 362.295 131.152 362.365 130.638 362.544C130.106 362.734 129.592 362.975 129.096 363.268L128.6 363.561L126.454 359.923L126.95 359.63C129.246 358.275 131.377 357.835 133.342 358.31C135.278 358.778 136.923 360.16 138.278 362.457C139.58 364.661 139.939 366.802 139.357 368.88C138.775 370.958 137.197 372.755 134.625 374.273L130.326 376.811C129.095 377.537 127.895 378.022 126.726 378.266C125.539 378.521 124.43 378.531 123.4 378.297C122.352 378.073 121.393 377.624 120.523 376.948C119.636 376.283 118.866 375.399 118.216 374.297C117.543 373.158 117.112 372.05 116.923 370.973C116.733 369.896 116.777 368.879 117.055 367.922C117.322 366.947 117.809 366.053 118.518 365.238C119.215 364.405 120.115 363.664 121.217 363.013L121.713 362.72L123.86 366.358L123.364 366.651C122.905 366.922 122.478 367.248 122.084 367.63C121.69 368.011 121.385 368.438 121.169 368.913C120.953 369.387 120.865 369.909 120.905 370.48C120.927 371.062 121.132 371.684 121.523 372.345C121.881 372.951 122.309 373.405 122.808 373.705C123.289 374.015 123.818 374.199 124.396 374.254C124.955 374.32 125.544 374.27 126.164 374.102C126.754 373.927 127.334 373.672 127.904 373.336L132.754 370.473C133.379 370.104 133.919 369.699 134.376 369.255C134.815 368.823 135.146 368.356 135.369 367.852C135.592 367.349 135.684 366.812 135.644 366.241C135.575 365.662 135.351 365.051 134.971 364.408ZM112.541 350.956L110.492 347.483L124.161 339.416L126.21 342.889L124.226 344.06L124.519 344.556C126.456 344.23 128.016 345.068 129.198 347.071C129.599 347.75 129.863 348.449 129.99 349.167C130.116 349.885 130.08 350.6 129.881 351.312C129.682 352.024 129.318 352.709 128.79 353.368C128.233 354.019 127.486 354.621 126.549 355.174L118.006 360.216L115.956 356.743L123.783 352.124C124.757 351.549 125.384 350.87 125.664 350.085C125.926 349.311 125.785 348.465 125.243 347.547C124.625 346.499 123.845 345.932 122.901 345.845C121.929 345.75 120.864 346.044 119.706 346.727L112.541 350.956ZM109.336 336.71C109.777 336.45 109.963 336.03 109.894 335.452C109.806 334.884 109.469 333.956 108.882 332.667C108.205 331.184 107.955 329.796 108.133 328.502C108.292 327.219 108.987 326.214 110.218 325.488L110.384 325.39C111.743 324.588 113.12 324.444 114.514 324.959C115.908 325.474 117.136 326.632 118.199 328.432C118.828 329.498 119.226 330.489 119.395 331.405C119.564 332.321 119.593 333.146 119.482 333.88C119.352 334.626 119.12 335.283 118.787 335.851C118.424 336.412 118.031 336.879 117.608 337.253L114.674 334.674C115.175 334.18 115.511 333.574 115.68 332.854C115.839 332.116 115.632 331.26 115.057 330.287C114.547 329.423 114.072 328.911 113.63 328.75C113.159 328.582 112.768 328.591 112.456 328.775C112.272 328.883 112.134 329.027 112.041 329.205C111.919 329.377 111.859 329.61 111.86 329.907C111.843 330.214 111.903 330.587 112.039 331.027C112.164 331.449 112.367 331.961 112.648 332.563C113.43 334.182 113.761 335.646 113.642 336.955C113.493 338.257 112.767 339.292 111.463 340.062L111.297 340.16C110.617 340.561 109.934 340.766 109.246 340.776C108.558 340.786 107.898 340.655 107.267 340.383C106.618 340.122 106.017 339.734 105.465 339.217C104.912 338.701 104.441 338.112 104.051 337.451C103.541 336.587 103.212 335.778 103.064 335.023C102.887 334.261 102.842 333.557 102.931 332.91C103.002 332.273 103.167 331.693 103.427 331.168C103.668 330.654 103.939 330.209 104.238 329.835L107.36 332.228C106.961 332.686 106.743 333.199 106.706 333.766C106.651 334.343 106.813 334.954 107.192 335.597C107.539 336.185 107.91 336.561 108.304 336.724C108.679 336.899 109.023 336.894 109.336 336.71ZM98.3162 326.853L95.9254 322.802L90.3035 326.119L88.2542 322.647L93.8761 319.329L90.9649 314.396L94.2719 312.445L97.1832 317.378L103.411 313.702C103.963 313.377 104.092 312.966 103.799 312.47L101.62 308.777L104.927 306.825L108.342 312.613C108.711 313.237 108.812 313.871 108.647 314.514C108.47 315.138 108.07 315.635 107.445 316.003L99.2325 320.85L101.623 324.901L98.3162 326.853ZM87.2255 292.068C88.3646 291.396 89.489 290.992 90.5985 290.858C91.6897 290.734 92.7337 290.824 93.7303 291.127C94.7085 291.442 95.6086 291.939 96.4306 292.618C97.2417 293.279 97.9237 294.078 98.4767 295.015C99.0297 295.952 99.4048 296.944 99.6021 297.992C99.7885 299.021 99.7829 300.04 99.5853 301.049C99.3694 302.068 98.9435 303.025 98.3077 303.921C97.6535 304.827 96.7569 305.616 95.6178 306.288L95.2871 306.483C94.1664 307.145 93.0604 307.537 91.9692 307.661C90.8596 307.796 89.8065 307.711 88.8099 307.408C87.8133 307.104 86.9094 306.622 86.0983 305.961C85.2764 305.282 84.5889 304.474 84.0359 303.537C83.483 302.6 83.1133 301.617 82.9268 300.587C82.7296 299.539 82.7389 298.506 82.9548 297.487C83.1708 296.467 83.6059 295.505 84.26 294.598C84.8958 293.703 85.7741 292.925 86.8948 292.263L87.2255 292.068ZM95.1696 296.966C94.8769 296.47 94.5177 296.05 94.0922 295.707C93.6666 295.364 93.2 295.119 92.6925 294.973C92.185 294.826 91.6566 294.791 91.1072 294.868C90.5287 294.937 89.9546 295.139 89.385 295.475L88.8339 295.801C88.2643 296.137 87.8187 296.536 87.497 296.998C87.1462 297.453 86.9121 297.938 86.795 298.453C86.6778 298.968 86.6667 299.495 86.7615 300.033C86.8564 300.572 87.0502 301.089 87.343 301.585C87.6357 302.081 87.9949 302.501 88.4205 302.844C88.8461 303.188 89.3126 303.433 89.8201 303.579C90.3276 303.725 90.8706 303.764 91.4492 303.695C91.9986 303.619 92.558 303.412 93.1276 303.076L93.6788 302.751C94.2483 302.415 94.7085 302.019 95.0594 301.564C95.3811 301.102 95.6005 300.613 95.7177 300.098C95.8348 299.583 95.846 299.057 95.7511 298.518C95.6562 297.98 95.4624 297.462 95.1696 296.966ZM83.741 270.927L85.7903 274.4L76.1999 280.059C75.814 280.287 75.5889 280.556 75.5244 280.867C75.4308 281.17 75.4761 281.477 75.6604 281.79C75.8773 282.157 76.161 282.386 76.5116 282.476C76.8513 282.548 77.2417 282.454 77.6826 282.194L87.1077 276.632L89.1569 280.104L79.5665 285.764C79.1807 285.992 78.961 286.27 78.9074 286.599C78.8245 286.92 78.8699 287.228 79.0434 287.522C79.2385 287.853 79.5114 288.063 79.862 288.154C80.2126 288.244 80.6083 288.159 81.0493 287.899L90.4743 282.336L92.5236 285.809L78.8545 293.876L76.8052 290.403L78.128 289.623L77.8353 289.127C77.2742 289.309 76.7236 289.3 76.1836 289.098C75.6143 288.889 75.14 288.463 74.7605 287.82C74.4027 287.214 74.2644 286.602 74.3457 285.984C74.4087 285.377 74.6448 284.854 75.0541 284.414L74.7614 283.918C74.1786 284.064 73.5955 283.999 73.0121 283.724C72.3995 283.442 71.8871 282.951 71.4751 282.253C70.933 281.335 70.8116 280.415 71.111 279.496C71.392 278.587 72.0745 277.812 73.1585 277.173L83.741 270.927ZM74.372 268.085C74.7653 267.828 75.0878 267.514 75.3392 267.142C75.5615 266.763 75.7145 266.351 75.7983 265.905C75.8528 265.452 75.8397 264.989 75.759 264.517C75.649 264.036 75.4639 263.576 75.2037 263.135C74.6941 262.271 74.1568 261.697 73.5918 261.411C73.0084 261.136 72.4458 261.022 71.9039 261.069L71.8009 257.117C72.2476 257.077 72.7506 257.089 73.3099 257.156C73.8508 257.233 74.4184 257.418 75.0126 257.711C75.596 257.986 76.1894 258.404 76.7926 258.965C77.3851 259.507 77.9469 260.228 78.4782 261.128C79.0854 262.157 79.4731 263.192 79.6411 264.232C79.8092 265.272 79.7652 266.289 79.5092 267.282C79.2423 268.257 78.7618 269.185 78.0675 270.065C77.3625 270.927 76.4404 271.694 75.3013 272.367L75.1359 272.464C74.0887 273.082 73.0303 273.472 71.9608 273.632C70.8805 273.774 69.8528 273.712 68.8779 273.445C67.9029 273.178 67.0061 272.729 66.1875 272.097C65.3397 271.458 64.6338 270.661 64.07 269.706C63.3761 268.53 62.991 267.395 62.9148 266.3C62.8202 265.216 62.9318 264.209 63.2496 263.279C63.549 262.359 64.0086 261.543 64.6284 260.83C65.2299 260.128 65.8889 259.566 66.6054 259.143L68.4519 258.053L74.372 268.085ZM67.228 267.879C67.7484 268.761 68.4009 269.342 69.1855 269.622C69.9518 269.913 70.6776 269.968 71.3631 269.786L67.5573 263.337C66.9793 263.827 66.6526 264.491 66.577 265.328C66.4905 266.147 66.7075 266.997 67.228 267.879ZM58.6446 259.631L55.2292 253.844L57.2134 252.673L56.9206 252.177C56.0156 252.364 55.182 252.274 54.42 251.906C53.6288 251.531 52.9784 250.911 52.4688 250.048C51.6664 248.688 51.453 247.34 51.8286 246.004C52.1858 244.679 53.2371 243.501 54.9825 242.471L55.5888 242.113L58.0338 245.5L57.648 245.728C56.8947 246.173 56.4115 246.718 56.1982 247.364C55.9666 248.021 56.0785 248.735 56.5339 249.507C56.9893 250.278 57.6135 250.727 58.4065 250.854C59.1996 250.98 60.0921 250.751 61.0842 250.165L65.4936 247.563L63.6395 244.421L66.9466 242.47L72.5089 251.895L69.2018 253.847L67.5429 251.036L60.4879 255.199L61.9517 257.679L58.6446 259.631Z" fill="white"/>
</svg>
