<svg width="19" height="20" viewBox="0 0 19 20" fill="none" xmlns="http://www.w3.org/2000/svg">
<path fill-rule="evenodd" clip-rule="evenodd" d="M13.789 0.0498733C13.6011 0.112259 13.2805 0.461812 13.2229 0.667237C13.1894 0.786362 13.1763 1.32602 13.1763 2.57808C13.1763 3.83015 13.1894 4.36981 13.2229 4.48893C13.285 4.71045 13.6023 5.04451 13.8126 5.10996C13.8993 5.13694 14.0761 5.159 14.2055 5.159H14.4407L13.9617 5.91497C13.6336 6.43281 13.4827 6.7065 13.4827 6.78381C13.4827 6.9277 13.6379 7.09469 13.7717 7.09469C13.8355 7.09469 14.4367 6.73816 15.4038 6.12685L16.935 5.159H17.5692C17.9552 5.159 18.2651 5.13981 18.361 5.10996C18.5714 5.04451 18.8886 4.71045 18.9508 4.48893C19.0158 4.25713 19.0167 0.901334 18.9518 0.673205C18.9267 0.585212 18.8318 0.425961 18.7407 0.319297C18.4578 -0.0119881 18.5296 -0.00343876 16.0704 0.00127948C14.622 0.00406203 13.8795 0.0198701 13.789 0.0498733ZM18.2906 0.741398L18.3846 0.84036V2.57808V4.31581L18.2906 4.41477C18.1975 4.5128 18.1896 4.51377 17.4827 4.51377H16.7688L15.8125 5.11868C15.2865 5.45137 14.8484 5.72358 14.839 5.72358C14.8296 5.72358 14.9342 5.54679 15.0714 5.33071C15.3489 4.89369 15.3758 4.76957 15.2269 4.61278C15.1354 4.51639 15.1175 4.51377 14.555 4.51377C13.9924 4.51377 13.9746 4.51115 13.8831 4.41477L13.789 4.31581V2.57808V0.84036L13.8831 0.741398L13.977 0.642396H16.0868H18.1966L18.2906 0.741398ZM14.4018 1.93285V2.25547H15.4741H16.5464V1.93285V1.61024H15.4741H14.4018V1.93285ZM14.4018 3.22331V3.54593H16.0868H17.7718V3.22331V2.9007H16.0868H14.4018V3.22331ZM0.61517 3.59864C0.427213 3.66102 0.106636 4.01057 0.0489999 4.216C-0.0163333 4.44893 -0.0163333 7.15954 0.0489999 7.39246C0.111155 7.61398 0.4284 7.94805 0.638761 8.0135C0.728718 8.04148 1.0205 8.06254 1.31852 8.06254H1.84065V8.93138C1.84065 9.80014 1.84065 9.80026 1.93466 9.89922C2.03155 10.0013 2.17861 10.0264 2.29507 9.9608C2.3316 9.94019 2.62606 9.50466 2.9494 8.99296L3.53732 8.06254H4.13742C4.87477 8.06254 5.0213 8.02051 5.26045 7.7404C5.35152 7.63374 5.4465 7.47449 5.47154 7.3865C5.53512 7.16308 5.53512 4.44538 5.47154 4.22197C5.4465 4.13397 5.35152 3.97472 5.26045 3.86806C4.97932 3.53875 5.03125 3.54532 2.74336 3.55004C1.40671 3.55282 0.705013 3.56883 0.61517 3.59864ZM4.81032 4.29016L4.90434 4.38912V5.80423V7.21934L4.81032 7.3183C4.71734 7.41626 4.70891 7.41731 4.00924 7.41731C3.62035 7.41731 3.2735 7.42888 3.23846 7.44303C3.20342 7.45723 3.01243 7.7248 2.81406 8.03765L2.45339 8.6065V8.11089C2.45339 7.63846 2.44898 7.61063 2.35937 7.51631C2.26616 7.41811 2.25945 7.41731 1.53428 7.41731C0.809102 7.41731 0.8024 7.4165 0.709187 7.3183L0.61517 7.21934V5.80423V4.38912L0.709187 4.29016L0.803166 4.19116H2.75975H4.71634L4.81032 4.29016ZM1.22791 5.80423V6.12685H1.53428H1.84065V5.80423V5.48162H1.53428H1.22791V5.80423ZM2.45339 5.80423V6.12685H2.75975H3.06612V5.80423V5.48162H2.75975H2.45339V5.80423ZM3.67886 5.80423V6.12685H3.98523H4.2916V5.80423V5.48162H3.98523H3.67886V5.80423ZM9.11795 6.51951C8.865 6.61351 8.56453 6.94633 8.48821 7.21704C8.38236 7.59232 8.42421 7.90413 8.6219 8.21376L8.73135 8.38515H8.56729C8.31067 8.38515 8.04187 8.48847 7.71662 8.71204C7.55194 8.82524 7.39719 8.92593 7.37272 8.93585C7.34825 8.94573 7.09342 8.79862 6.80639 8.609C6.28132 8.26203 6.14188 8.21062 6.01156 8.31587C5.94328 8.371 5.53906 9.01945 5.44903 9.21822C5.34034 9.45825 5.39526 9.51595 6.3733 10.1898C6.86426 10.528 7.30375 10.8048 7.34989 10.8048C7.39604 10.8048 7.55401 10.741 7.70091 10.6631L7.96803 10.5215V11.0664V11.6113H7.58335C7.22593 11.6113 7.19196 11.6183 7.10464 11.7103C7.05294 11.7647 7.01063 11.8247 7.01063 11.8435C7.01063 11.8624 6.81244 12.8988 6.57022 14.1466C6.328 15.3945 6.12982 16.4514 6.12982 16.4954C6.12982 16.5392 6.17213 16.6197 6.22383 16.6741L6.31781 16.7731H7.75568H9.19351V18.0636V19.3541H8.58077H7.96803V19.6767V19.9993H9.49988H11.0317V19.6767V19.3541H10.419H9.80625V18.0636V16.7731H11.2441H12.6819L12.7759 16.6741C12.8276 16.6197 12.8699 16.5392 12.8699 16.4954C12.8699 16.4514 12.6718 15.3945 12.4295 14.1466C12.1873 12.8988 11.9891 11.8624 11.9891 11.8435C11.9891 11.8247 11.9468 11.7647 11.8951 11.7103C11.8078 11.6183 11.7738 11.6113 11.4164 11.6113H11.0317V11.0664V10.5215L11.3057 10.6668C11.4764 10.7573 11.6172 10.8061 11.6791 10.7963C11.7338 10.7875 12.1702 10.5092 12.6489 10.1776C13.6029 9.51688 13.659 9.45728 13.5507 9.21822C13.4607 9.01945 13.0565 8.371 12.9882 8.31587C12.8578 8.21049 12.7192 8.26195 12.1962 8.61001C11.9104 8.80023 11.6555 8.94731 11.6296 8.93686C11.6037 8.92642 11.4478 8.82524 11.2831 8.71204C10.9551 8.48657 10.689 8.38515 10.4253 8.38515C10.2652 8.38515 10.2578 8.38051 10.3129 8.31458C10.4274 8.17735 10.5407 7.88832 10.5609 7.68133C10.6252 7.02605 10.1133 6.44232 9.48349 6.45265C9.37664 6.45438 9.21216 6.48447 9.11795 6.51951ZM9.82183 7.25378C9.9224 7.35972 9.94028 7.40872 9.94028 7.57861C9.94028 7.75081 9.92286 7.79706 9.81509 7.91054C9.70733 8.02402 9.6634 8.04237 9.49988 8.04237C9.33635 8.04237 9.29243 8.02402 9.18466 7.91054C9.07732 7.79751 9.05947 7.75049 9.05947 7.58107C9.05947 7.37379 9.15709 7.20995 9.32754 7.13111C9.47073 7.06489 9.69538 7.12062 9.82183 7.25378ZM6.78085 9.35299C7.04915 9.53043 7.30984 9.67561 7.36012 9.67561C7.41078 9.67561 7.64784 9.53624 7.89171 9.36308L8.33184 9.05054L9.45036 9.03877C10.7271 9.0253 10.5861 8.99372 11.2041 9.43135C11.3936 9.5656 11.5909 9.67549 11.6424 9.67553C11.694 9.67557 11.9576 9.5283 12.2283 9.34824C12.499 9.16822 12.7249 9.02756 12.7302 9.0357C12.7356 9.04389 12.7674 9.09696 12.801 9.1537L12.862 9.25681L12.2464 9.68472L11.6307 10.1126L11.217 9.8941C10.9894 9.77393 10.7591 9.67561 10.7051 9.67561C10.6511 9.67561 10.5647 9.72017 10.513 9.77461C10.419 9.87357 10.419 9.87369 10.419 10.7425V11.6113H9.49988H8.58077V10.7425C8.58077 9.87369 8.58077 9.87357 8.48675 9.77461C8.43505 9.72017 8.34862 9.67561 8.29466 9.67561C8.2407 9.67561 8.01138 9.7734 7.78505 9.89293L7.37356 10.1102L6.75818 9.68122L6.1428 9.25218L6.20334 9.14136C6.23662 9.08039 6.2704 9.0305 6.27844 9.03046C6.28645 9.03042 6.51255 9.17556 6.78085 9.35299ZM1.80986 12.0573C1.42061 12.2621 1.22714 12.602 1.22875 13.0782C1.22971 13.3625 1.32537 13.6226 1.49813 13.811L1.61087 13.9339L1.4105 14.0731C1.17253 14.2385 1.00763 14.5007 0.966116 14.7797C0.947313 14.9061 0.968376 15.3892 1.02398 16.1056C1.10356 17.1307 1.12037 17.2519 1.20995 17.4447C1.31584 17.6725 1.45209 17.8138 1.70217 17.9546C1.84697 18.0362 1.92272 18.0445 2.63361 18.0565C3.31842 18.068 3.40949 18.0773 3.42561 18.1371C3.43564 18.1743 3.5001 18.5675 3.56888 19.011C3.73194 20.0622 3.67614 19.9993 4.44479 19.9993C5.00732 19.9993 5.0252 19.9967 5.11669 19.9003C5.16839 19.8458 5.21071 19.7673 5.21071 19.7257C5.21071 19.581 4.82821 16.941 4.79366 16.8473C4.74805 16.7237 4.56821 16.5473 4.43272 16.4934C4.37344 16.4698 4.17978 16.4505 4.00239 16.4505H3.6799L3.68897 15.5734L3.69801 14.6963L3.59457 14.4898C3.48443 14.27 3.31964 14.1011 3.1151 13.9984C2.96713 13.924 2.96322 13.9067 3.07156 13.8053C3.33829 13.5555 3.41906 12.9356 3.23547 12.5477C2.97463 11.9965 2.34022 11.7782 1.80986 12.0573ZM16.2477 12.0572C15.8576 12.2625 15.6609 12.5898 15.6584 13.0377C15.6569 13.3233 15.7665 13.6426 15.9176 13.792C16.0369 13.91 16.0348 13.923 15.8846 13.9984C15.6801 14.1011 15.5153 14.27 15.4052 14.4898L15.3017 14.6963L15.3108 15.5734L15.3199 16.4505H14.9974C14.82 16.4505 14.6263 16.4698 14.567 16.4934C14.4315 16.5473 14.2517 16.7237 14.2061 16.8473C14.1715 16.941 13.789 19.581 13.789 19.7257C13.789 19.7673 13.8314 19.8458 13.8831 19.9003C13.9746 19.9967 13.9924 19.9993 14.555 19.9993C15.3236 19.9993 15.2678 20.0622 15.4309 19.011C15.4997 18.5675 15.5641 18.1743 15.5741 18.1371C15.5903 18.0773 15.6813 18.068 16.3661 18.0565C17.077 18.0445 17.1528 18.0362 17.2976 17.9546C17.5477 17.8138 17.6839 17.6725 17.7898 17.4447C17.8794 17.2519 17.8962 17.1307 17.9758 16.1056C18.0314 15.3892 18.0524 14.9061 18.0336 14.7797C17.9921 14.5007 17.8272 14.2385 17.5892 14.0731L17.3889 13.9339L17.5016 13.811C17.6744 13.6226 17.77 13.3625 17.771 13.0782C17.7726 12.602 17.5791 12.2621 17.1899 12.0573C16.863 11.8853 16.5744 11.8853 16.2477 12.0572ZM11.7943 14.1015C11.9893 15.1162 12.1579 15.9872 12.1688 16.0372L12.1889 16.1279H9.49988H6.81084L6.8309 16.0372C6.84189 15.9872 7.01047 15.1162 7.20548 14.1015L7.56002 12.2565H9.49988H11.4397L11.7943 14.1015ZM2.49126 12.6394C2.6521 12.727 2.72146 12.8547 2.72146 13.0631C2.72146 13.2715 2.6521 13.3991 2.49126 13.4867C2.28795 13.5974 2.03037 13.532 1.90043 13.3366C1.83199 13.2337 1.82108 12.935 1.88139 12.8163C1.93811 12.7047 2.14522 12.5795 2.27339 12.5793C2.33233 12.5792 2.43041 12.6062 2.49126 12.6394ZM16.9289 12.6394C17.0898 12.727 17.1591 12.8547 17.1591 13.0631C17.1591 13.2715 17.0898 13.3991 16.9289 13.4867C16.7256 13.5974 16.468 13.532 16.3381 13.3366C16.2696 13.2337 16.2587 12.935 16.319 12.8163C16.3758 12.7047 16.5829 12.5795 16.711 12.5793C16.77 12.5792 16.8681 12.6062 16.9289 12.6394ZM2.9602 14.6672L3.08527 14.7995L3.07221 15.845L3.05912 16.8904L3.15662 16.9931C3.25075 17.0922 3.27078 17.0957 3.73577 17.0957C4.08695 17.0957 4.22179 17.1094 4.23354 17.1462C4.24243 17.1739 4.3168 17.6829 4.39887 18.2773L4.54803 19.3581L4.3922 19.346L4.23638 19.3339L4.09694 18.4496C3.97558 17.6798 3.94636 17.5557 3.87138 17.4918C3.79379 17.4257 3.69931 17.4183 2.91826 17.4178C1.98985 17.4171 1.92953 17.406 1.79121 17.2098C1.72725 17.119 1.70408 16.9626 1.64495 16.2217C1.53401 14.8317 1.5409 14.7461 1.77608 14.5917C1.88358 14.5211 1.95381 14.513 2.36661 14.5233L2.83508 14.535L2.9602 14.6672ZM17.197 14.5751C17.457 14.7167 17.4656 14.8057 17.3547 16.2208C17.2964 16.9655 17.2741 17.1167 17.2092 17.2088C17.07 17.4063 17.0111 17.4171 16.0755 17.4178C15.2207 17.4184 15.2007 17.4203 15.116 17.5094C15.0431 17.5862 15.01 17.727 14.9045 18.4067C14.8358 18.8501 14.7709 19.2447 14.7604 19.2835C14.7464 19.3352 14.7014 19.3541 14.5917 19.3541C14.4489 19.3541 14.443 19.3489 14.4626 19.2432C14.4739 19.1822 14.5467 18.6786 14.6244 18.1241L14.7656 17.1159L15.2765 17.0957C15.9921 17.0675 15.9439 17.1606 15.9274 15.8405L15.9145 14.8045L16.0102 14.6956C16.149 14.5377 16.214 14.5202 16.6727 14.5174C16.9687 14.5156 17.1178 14.532 17.197 14.5751ZM0.103687 14.8667C-0.00392534 14.8837 -0.00530399 14.8872 0.0168312 15.0926C0.0292008 15.2073 0.0837728 15.8819 0.138115 16.5917C0.192419 17.3014 0.261007 17.9732 0.290495 18.0846C0.40412 18.5136 0.714587 18.8426 1.1278 18.9718C1.27164 19.0168 1.53278 19.0314 2.19228 19.0314H3.06612V18.7088V18.3862L2.19489 18.3856C0.843913 18.3845 0.897221 18.4523 0.751198 16.5513C0.696664 15.8416 0.641786 15.1656 0.629187 15.0492L0.606362 14.8374L0.409711 14.8435C0.301563 14.8468 0.16385 14.8573 0.103687 14.8667ZM18.3724 15.0236C18.3596 15.132 18.3038 15.8103 18.2485 16.5312C18.1341 18.0227 18.1084 18.1307 17.8293 18.2948C17.6834 18.3806 17.6346 18.3849 16.8049 18.3856L15.9336 18.3862V18.7114V19.0366L16.8815 19.0239C17.8111 19.0115 17.8334 19.0093 18.0425 18.906C18.3094 18.7742 18.5205 18.5508 18.6445 18.2689C18.7319 18.0701 18.7518 17.9121 18.8692 16.4781C18.94 15.6131 18.9909 14.8979 18.9822 14.8887C18.9735 14.8796 18.838 14.8619 18.6811 14.8494L18.3958 14.8267L18.3724 15.0236Z" fill="black"/>
</svg>
