<svg width="63" height="81" viewBox="0 0 63 81" fill="none" xmlns="http://www.w3.org/2000/svg">
<path fill-rule="evenodd" clip-rule="evenodd" d="M51.4765 0.236227C50.1212 0.600085 48.9709 1.25104 47.9959 2.20603C43.6221 6.48923 45.5837 13.6969 51.5449 15.2473C54.0579 15.9009 56.7477 15.121 58.7097 13.1699C60.2496 11.6383 60.9771 9.89562 60.9771 7.7378C60.9771 5.57998 60.2496 3.83729 58.7097 2.30574C56.7458 0.352712 53.985 -0.437202 51.4765 0.236227ZM54.8409 4.37461C55.6297 4.68434 56.6084 5.81754 56.8589 6.71112C57.9039 10.4405 53.2997 13.1197 50.6497 10.3242C50.0417 9.68275 49.5783 8.56649 49.5761 7.7378C49.5723 6.33032 50.7224 4.67295 51.9733 4.28297C53.1414 3.91896 53.7284 3.93763 54.8409 4.37461ZM16.5145 19.8761C15.6144 20.0515 14.9229 21.3528 15.206 22.3386C15.3034 22.678 16.1044 23.6005 17.6079 25.1053L19.8636 27.363L17.6079 29.6207C15.1881 32.0425 14.9362 32.4488 15.2191 33.4728C15.5412 34.6376 16.7037 35.1938 17.8324 34.7226C18.1868 34.5746 19.2978 33.6128 20.5779 32.3454L22.7283 30.2167L24.9417 32.4329C26.5224 34.0159 27.3107 34.6924 27.6997 34.8001C29.1649 35.2055 30.4534 33.987 30.1676 32.4657C30.0806 32.0026 29.628 31.4537 27.8268 29.6273L25.5937 27.363L27.8186 25.107C30.136 22.7572 30.3865 22.357 30.1665 21.3563C29.9233 20.2501 28.7268 19.5629 27.6574 19.9154C27.3447 20.0186 26.3058 20.9283 24.9415 22.294L22.7321 24.5056L20.4285 22.2403C18.6623 20.5035 18.0005 19.9508 17.5905 19.8708C17.2965 19.8132 17.0113 19.7758 16.9568 19.7877C16.9023 19.7995 16.7033 19.8394 16.5145 19.8761ZM52.1849 20.3813C51.9235 20.5448 49.9199 22.4853 47.7323 24.6935C43.5592 28.9056 43.4282 29.083 43.6537 30.2096C43.7733 30.8071 44.402 31.4425 45.0395 31.6101C46.079 31.8834 46.4803 31.6331 48.977 29.1541L51.3386 26.8091L51.2682 30.3701C51.2072 33.4414 51.1495 34.094 50.8487 35.1156C49.4441 39.8853 45.2619 43.2822 40.3828 43.6161C39.6422 43.6669 38.8458 43.8043 38.6131 43.9214C37.2081 44.629 37.1817 46.6528 38.5677 47.3984C38.986 47.6236 39.3377 47.6539 40.6382 47.5769C43.3829 47.4144 45.7646 46.6039 48.2245 44.9958C50.6072 43.4378 52.4967 41.2467 53.7661 38.5696C54.9537 36.0649 55.1503 34.9994 55.2327 30.6244L55.3038 26.8428L57.5464 29.0642C58.7798 30.286 59.9447 31.3645 60.1349 31.4609C60.3254 31.5574 60.7683 31.6362 61.1195 31.6362C61.8991 31.6362 62.7881 30.9386 62.9334 30.2129C63.1601 29.0799 63.036 28.9129 58.7764 24.6202C56.545 22.3717 54.5271 20.431 54.2919 20.3074C53.6967 19.9947 52.7495 20.0279 52.1849 20.3813ZM22.839 43.9249C20.9564 44.8522 21.5786 47.6213 23.6698 47.6213C25.7759 47.6213 26.3844 44.824 24.475 43.9187C23.8077 43.6025 23.4912 43.6036 22.839 43.9249ZM30.7385 43.9352C28.8638 44.8579 29.5025 47.6213 31.5906 47.6213C33.1368 47.6213 34.0586 45.9939 33.2515 44.6892C32.9267 44.1642 32.0974 43.6617 31.5667 43.6682C31.4056 43.6701 31.033 43.7904 30.7385 43.9352ZM14.8166 45.2612C13.4835 46.3087 13.7447 48.1765 15.3001 48.7181C17.469 49.473 18.9088 46.357 16.9307 45.1896C16.3119 44.8244 15.3302 44.8576 14.8166 45.2612ZM9.0776 50.1504C8.04472 50.5674 7.70428 52.2324 8.4669 53.138C9.30366 54.1314 10.6371 54.1226 11.4833 53.1177C11.8512 52.6812 11.8928 52.5171 11.8298 51.7565C11.7696 51.0319 11.6766 50.8191 11.2558 50.4435C10.8657 50.0951 10.6043 49.9975 10.0829 50.0052C9.71397 50.0108 9.26168 50.0762 9.0776 50.1504ZM46.6276 52.1928C46.0038 52.573 45.7028 53.2948 45.8162 54.1392C45.8954 54.7292 46.1286 55.0198 48.1337 57.0266C49.3599 58.2538 50.3631 59.3274 50.3631 59.4122C50.3631 59.497 49.3599 60.5706 48.1337 61.7978C46.0976 63.8356 45.8964 64.0882 45.8127 64.7107C45.6016 66.2842 47.2057 67.4356 48.5888 66.7034C48.8241 66.5789 49.9424 65.5462 51.0738 64.4086C52.2052 63.2709 53.2023 62.3402 53.2896 62.3402C53.3769 62.3402 54.4558 63.345 55.6872 64.573C57.8016 66.6816 57.9665 66.8104 58.6491 66.8873C59.9223 67.0307 60.8187 66.2098 60.8187 64.9001C60.8187 64.111 60.6379 63.8692 58.227 61.4325L56.1544 59.3377L58.4866 56.9891L60.8187 54.6404V53.8005C60.8187 53.0424 60.7635 52.9087 60.253 52.4275C59.7628 51.9657 59.5791 51.8945 58.8787 51.8945H58.0701L55.7192 54.2243L53.3685 56.5544L51.2716 54.4837C50.1185 53.3448 48.9987 52.2965 48.7832 52.1537C48.2603 51.8076 47.2295 51.8263 46.6276 52.1928ZM6.78134 57.6708C6.18046 57.9971 5.79503 58.6775 5.79503 59.4122C5.79503 60.2023 6.17254 60.8083 6.87116 61.1395C7.53351 61.4535 7.95838 61.4562 8.60314 61.1506C9.98343 60.4962 10.0081 58.3399 8.64275 57.6926C7.98008 57.3785 7.33358 57.3709 6.78134 57.6708ZM22.8137 62.5891C22.2163 63.0913 21.9505 63.9673 22.1667 64.7205C22.276 65.1013 22.9848 65.9262 24.5407 67.4835L26.7591 69.7037L24.5374 71.9174C22.138 74.3082 21.8731 74.7434 22.1678 75.8097C22.4542 76.8459 23.5269 77.4265 24.6393 77.1475C24.8959 77.0833 25.9956 76.1295 27.3457 74.8006L29.6199 72.562L31.7934 74.7143C32.9888 75.8982 34.1226 76.9456 34.3129 77.042C35.7108 77.7502 37.4028 76.4439 37.1204 74.8745C37.0337 74.393 36.6122 73.8821 34.7408 71.9902L32.4664 69.6909L34.6856 67.4796C37.112 65.0619 37.4027 64.5763 37.0543 63.5221C36.6872 62.4106 35.3385 61.8375 34.3129 62.3573C34.1226 62.4536 32.9868 63.5033 31.7887 64.6895L29.6104 66.8465L27.4322 64.6895C26.2342 63.5033 25.0982 62.4536 24.9079 62.3573C24.2822 62.0401 23.3429 62.1442 22.8137 62.5891ZM5.89135 65.7491C3.06154 66.5105 0.943971 68.6774 0.242022 71.5298C-0.0806741 72.8407 -0.0806741 73.6805 0.242022 74.9914C0.952367 77.8781 3.07801 80.0304 5.95915 80.7801C8.35363 81.4032 11.0626 80.6778 12.9297 78.9136C15.6242 76.3677 16.1915 72.4954 14.3314 69.3454C12.6162 66.4409 9.01804 64.9077 5.89135 65.7491ZM8.76045 69.6863C10.9965 70.3586 12.0433 72.8431 10.9848 74.9653C9.26168 78.4197 4.05244 77.1387 4.05244 73.2606C4.05244 71.6127 4.98235 70.2906 6.51251 69.7624C7.53683 69.409 7.80789 69.3998 8.76045 69.6863Z" fill="#FFC603"/>
</svg>
