<svg width="52" height="52" viewBox="0 0 52 52" fill="none" xmlns="http://www.w3.org/2000/svg">
<path fill-rule="evenodd" clip-rule="evenodd" d="M39.0216 3.68833C37.0542 5.71691 35.4144 7.47826 35.3776 7.60235C35.3407 7.72645 35.2082 9.08782 35.0832 10.6276L34.856 13.4271L31.1152 17.1682L27.3745 20.9094L26.6572 20.9114C24.7428 20.9168 23.4613 21.3895 22.3441 22.5024C20.2912 24.5472 20.2842 27.7137 22.328 29.7495C24.3827 31.7961 27.5679 31.813 29.617 29.7882C30.9132 28.5074 31.468 26.6498 31.0526 24.9814C30.9959 24.7536 31.38 24.3382 34.7154 21.0207L38.4415 17.3145L41.4598 17.0566L44.4781 16.7987L48.239 13.0514L52 9.30415H48.5241H45.0482L43.8504 8.10789L42.6525 6.91153L42.6256 3.45582L42.5986 0L39.0216 3.68833ZM22.8229 0.398549C14.9673 1.36871 7.94263 5.90218 3.76622 12.6971C1.87317 15.7768 0.676202 19.1582 0.174298 22.8437C-0.033782 24.3715 -0.0610695 27.6317 0.122278 29.0534C0.8944 35.04 3.43183 40.2449 7.60987 44.4118C11.6681 48.4594 16.6308 50.9326 22.4851 51.8249C24.0177 52.0584 27.9645 52.0584 29.4971 51.8249C35.3514 50.9326 40.314 48.4594 44.3723 44.4118C48.5503 40.2449 51.0844 35.0474 51.8603 29.0534C52.0428 27.6441 52.0147 24.2781 51.8077 22.7418C51.4859 20.3548 50.8002 17.8885 49.9597 16.0963L49.6837 15.5079L48.6962 16.4175C48.153 16.9177 47.2765 17.7327 46.7484 18.2286L45.7884 19.1301L46.1134 20.586C46.9936 24.5291 47.0122 27.855 46.1727 31.1912C44.6792 37.1251 40.3508 42.3159 34.7292 44.9146C24.473 49.6559 12.4673 45.4334 7.35069 35.2852C4.52077 29.6727 4.4527 23.1128 7.16438 17.34C8.81266 13.8309 11.6881 10.6043 14.9821 8.56722C19.8741 5.54191 25.4264 4.67793 30.9478 6.08278C31.5099 6.22581 32.171 6.41353 32.417 6.50006C32.9579 6.69032 33.0429 6.6945 33.0429 6.531C33.0429 6.46158 33.9205 5.5297 34.9932 4.46018L36.9434 2.51569L35.6319 2.00394C33.4206 1.14118 31.5237 0.668116 29.1797 0.394986C27.6034 0.211338 24.3239 0.21317 22.8229 0.398549ZM25.3268 10.6011C21.1403 10.768 17.0033 12.7604 14.2395 15.9407C10.2001 20.5889 9.2602 27.018 11.8092 32.5655C13.7379 36.7632 17.4115 39.8754 21.8952 41.1106C23.3677 41.5161 24.2221 41.623 25.9911 41.623C27.7601 41.623 28.6145 41.5161 30.087 41.1106C34.5707 39.8754 38.2443 36.7632 40.173 32.5655C41.9716 28.6509 42.0631 24.3368 40.4282 20.5225C40.1435 19.8582 40.0258 19.6839 39.8784 19.708C39.7753 19.7248 38.9039 20.582 37.9418 21.6127C36.2361 23.4401 36.1939 23.4959 36.2496 23.8523C36.5337 25.6709 36.3735 27.8861 35.8457 29.4362C34.4255 33.6078 30.4031 36.4849 25.9911 36.4849C19.2612 36.4849 14.266 30.1091 15.9169 23.6264C17.0096 19.3357 20.6279 16.2395 25.0218 15.8355C25.583 15.7839 26.1802 15.7568 26.3488 15.7752C26.5174 15.7937 27.0846 15.8642 27.6092 15.9319L28.5632 16.0549L30.5475 14.0803C31.639 12.9942 32.5319 12.0502 32.5319 11.9825C32.5319 11.6839 28.9316 10.7568 27.4219 10.6665C27.0003 10.6414 26.4944 10.6109 26.2977 10.5987C26.1009 10.5865 25.664 10.5876 25.3268 10.6011Z" fill="#F0997A"/>
</svg>
