<svg width="99" height="73" viewBox="0 0 99 73" fill="none" xmlns="http://www.w3.org/2000/svg">
<path fill-rule="evenodd" clip-rule="evenodd" d="M42.0769 0.306218C37.8206 1.22259 34.4197 3.90044 32.4113 7.91721C30.7207 11.2984 30.4931 18.0152 31.9237 22.3044C32.3622 23.619 32.4987 24.3845 32.5025 25.5498C32.5097 27.7496 32.8287 30.7302 33.2037 32.1021C33.9739 34.9196 35.7238 37.9485 37.6998 39.8836L38.6838 40.8474V43.3844V45.9217L37.2339 47.5232C36.4364 48.404 35.784 49.2506 35.784 49.4042C35.784 49.7944 35.5839 49.8833 30.7733 51.6337C28.4188 52.4903 26.1326 53.3756 25.6928 53.6008C24.9251 53.9943 24.8661 53.9976 24.2079 53.6822L23.5224 53.3538L24.8685 52.6468C26.4465 51.8178 28.9228 49.4967 29.1289 48.6531C29.218 48.2881 29.126 47.6486 28.8634 46.8084C28.2616 44.8836 28.0762 43.4134 27.8589 38.8457C27.6538 34.5363 27.4151 33.03 26.6286 31.0857C25.2143 27.5898 21.9369 24.6807 18.3611 23.7476C16.8866 23.3627 14.2491 23.3241 12.7787 23.6658C9.09596 24.5216 5.77895 27.3888 4.25983 31.029C3.44672 32.9773 3.16969 34.7297 2.93346 39.4164C2.7297 43.4565 2.37804 45.9856 1.83964 47.2796C1.65715 47.7183 1.59297 48.2135 1.67184 48.5743C1.86497 49.4573 4.11697 51.6351 5.79442 52.5612L7.21977 53.3478L4.91055 54.5304C2.31367 55.8604 1.35538 56.6894 0.621334 58.2417L0.116186 59.3098L0.0579964 65.6684L0 72.0271L0.48427 72.5136C1.09845 73.1305 1.83674 73.1342 2.44474 72.5233L2.91934 72.0467V66.1279C2.91934 62.4065 2.9959 60.0059 3.12562 59.6622C3.48635 58.7057 4.11233 58.2332 6.84473 56.8554L9.51353 55.5099L10.7112 56.6026C12.1413 57.9073 12.92 58.3357 14.3315 58.594C16.4625 58.9839 18.1565 58.3907 20.116 56.5682L21.2972 55.4697L22.0725 55.8208C22.6451 56.0802 22.8136 56.2521 22.7181 56.4787C21.7187 58.8472 21.7819 58.305 21.7104 65.1094C21.6384 71.9314 21.6883 72.38 22.5637 72.7806C23.2324 73.0866 23.4794 73.0579 24.0503 72.6068L24.5479 72.2135L24.6081 65.6646L24.668 59.1156L25.2307 58.0953C25.5402 57.5341 26.0912 56.8469 26.455 56.5682C26.8189 56.2894 29.219 55.2918 31.7886 54.3514C34.3582 53.4107 36.6054 52.5841 36.7823 52.5144C37.0342 52.4149 37.5668 53.0783 39.2432 55.581C40.42 57.3376 41.6211 58.9317 41.9126 59.1234C42.6482 59.6075 44.0854 59.7187 44.7896 59.3459C45.0997 59.1818 45.9163 58.473 46.6043 57.7708C47.2924 57.0687 47.9232 56.494 48.0059 56.494C48.0888 56.494 48.1565 60.0267 48.1565 64.3445V72.1951L48.6659 72.5975C48.946 72.8188 49.29 73 49.4301 73C50.0018 73 50.6625 72.5235 50.8533 71.9733C50.9815 71.6042 51.0563 68.6306 51.0563 63.9076V56.4267L52.5642 57.9007C53.6975 59.0084 54.2498 59.4082 54.7874 59.5094C55.6589 59.6737 56.6238 59.5096 57.2094 59.0977C57.4497 58.9286 58.6053 57.3491 59.7774 55.5876C61.4611 53.0575 61.977 52.4116 62.234 52.513C62.4126 52.5835 64.6863 53.4199 67.2864 54.3716C72.4396 56.2577 73.0818 56.6273 73.8675 58.1594C74.3494 59.0995 74.3519 59.1323 74.4482 65.6809L74.5449 72.2582L75.0013 72.6291C75.6263 73.1371 76.3052 73.0942 76.8869 72.5097L77.3751 72.0195L77.3092 65.3733C77.2463 59.043 77.2229 58.6767 76.815 57.6656C76.5794 57.0817 76.1249 56.2377 75.8049 55.7901L75.2232 54.9765L76.0677 54.6875L76.9121 54.3984L78.7734 56.275L80.6345 58.1516V65.0991V72.0467L81.1091 72.5233C81.6353 73.052 81.9365 73.1035 82.634 72.7845C83.4908 72.3922 83.5343 72.0104 83.5343 64.8797V58.1369L85.3571 56.3136L87.18 54.4902L90.4318 55.4149C94.4011 56.5438 95.0868 56.8879 95.6652 58.0402C96.0907 58.8878 96.1002 59.0494 96.1002 65.4766V72.0467L96.5748 72.5233C97.1795 73.1309 97.9207 73.1309 98.5254 72.5233L99 72.0467V65.3737C99 57.9629 98.9263 57.3889 97.7803 55.8715C96.7927 54.5636 95.6594 53.9255 92.8936 53.1198C91.5206 52.7198 89.9187 52.245 89.3339 52.0644L88.2707 51.7364L88.2152 50.5713L88.1597 49.4062L89.569 47.9498C90.3442 47.1488 91.2192 46.0411 91.5136 45.4885C92.3271 43.9608 92.8137 41.7725 92.8137 39.6413C92.8137 37.9621 92.8764 37.6499 93.5381 36.0313L94.2625 34.2596L94.3266 29.5307C94.3999 24.1431 94.3375 23.8014 93.221 23.4654C92.7403 23.3208 90.0759 23.2784 84.8829 23.3332C77.7126 23.4089 77.1847 23.4384 76.149 23.8225C72.0037 25.3603 69.6318 28.8574 69.8491 33.1115C69.9158 34.4205 70.048 34.9336 70.6421 36.1902C71.3096 37.6021 71.3553 37.8175 71.358 39.5714C71.3634 43.0842 72.377 45.6557 74.6897 48.0242C75.966 49.331 75.9948 49.3831 75.9948 50.3791C75.9948 51.0403 75.8946 51.4811 75.7094 51.6355C75.5524 51.7664 74.6133 52.1118 73.6223 52.4031L71.8206 52.9328L69.8963 52.2229C68.8378 51.8324 66.9529 51.1399 65.7076 50.6838C63.9567 50.0426 63.414 49.7598 63.3141 49.4363C63.2431 49.2062 62.5439 48.3059 61.7603 47.436L60.3358 45.8539V43.4767V41.0992L61.7596 39.6024C65.0093 36.1857 66.2941 32.7614 66.46 27.0746C66.5307 24.6494 66.6315 23.7546 66.9195 22.9967C67.901 20.4142 67.9339 20.039 68.0174 10.4968C68.1015 0.900432 68.0783 0.6175 67.1764 0.204852C66.836 0.0489188 63.3276 -0.00991939 55.0587 0.0013435C45.5266 0.0141599 43.1771 0.0695033 42.0769 0.306218ZM65.1649 10.2288C65.1609 18.1045 65.0545 19.4611 64.2731 21.6088C63.8298 22.8273 63.7508 23.4229 63.6253 26.492C63.4283 31.3093 62.8878 33.3282 61.117 35.861C58.3998 39.7477 54.2345 41.9525 49.5923 41.9616C45.6103 41.9694 42.2913 40.5444 39.5887 37.6666C36.564 34.4458 35.4195 31.024 35.3963 25.1327C35.3907 23.6701 35.3005 22.9955 35.0312 22.3997C34.232 20.6324 33.9785 19.0465 33.9627 15.7146C33.9528 13.6265 34.0385 12.1385 34.209 11.4425C35.1868 7.45116 38.2451 4.33231 42.2026 3.29088C43.5079 2.94737 44.4198 2.91882 54.3911 2.90892L65.1688 2.89824L65.1649 10.2288ZM44.5801 13.3038C38.8866 13.8596 38.5728 13.9452 37.7725 15.16C37.3688 15.7727 37.265 16.2094 37.1842 17.6324C37.0249 20.4382 37.4374 21.5403 38.6468 21.5403C39.7507 21.5403 39.9307 21.1983 40.037 18.8997L40.1337 16.8093L40.6916 16.6599C42.0868 16.2869 47.3888 16.0706 49.8409 16.2867C54.0903 16.6611 56.5287 17.4371 58.7662 19.1263C59.4065 19.6098 60.1173 19.9868 60.3891 19.9868C61.1434 19.9868 61.7534 19.3764 61.7534 18.6218C61.7534 18.0923 61.5769 17.8099 60.7922 17.0852C58.9922 15.4226 56.0427 14.1846 52.6698 13.676C50.7623 13.3885 45.9718 13.168 44.5801 13.3038ZM18.3365 26.8025C20.5502 27.5618 22.5291 29.3414 23.6059 31.5409C24.3652 33.0919 24.6935 34.4621 24.864 36.7921L25.0055 38.7259L23.8112 37.4223C21.2901 34.6704 17.1878 32.8954 13.0875 32.782L11.758 32.7453L10.0452 34.4937C8.62251 35.9463 8.33234 36.3457 8.33234 36.8529C8.33234 37.6549 8.92622 38.2404 9.73952 38.2404C10.263 38.2404 10.5901 38.0208 11.6188 36.9782C13.0306 35.5472 13.1984 35.5062 15.5819 36.007C18.4235 36.6044 21.4859 38.607 22.6273 40.6145C23.1071 41.4585 23.1496 41.6639 22.9909 42.3735C22.3622 45.1838 19.5278 47.7107 16.534 48.1302C12.1456 48.745 8.36443 45.8151 7.70095 41.2855C7.48714 39.8261 7.01485 39.0171 6.37689 39.0171C6.18899 39.0171 5.9976 38.9517 5.95159 38.8715C5.7747 38.5633 6.21122 34.245 6.51435 33.3057C8.24844 27.9304 13.3858 25.1046 18.3365 26.8025ZM91.4195 30.036L91.3381 33.8712L90.6261 35.4561C89.9669 36.923 89.9139 37.1778 89.9139 38.8766C89.9139 39.8859 89.8265 41.1825 89.7196 41.7579C89.0961 45.1131 86.4797 47.6424 83.1411 48.1174C80.2299 48.5314 77.5562 47.355 75.7956 44.8851C74.6831 43.3246 74.2549 41.762 74.2549 39.264C74.2549 37.3217 74.2197 37.1436 73.539 35.6433C72.607 33.589 72.4802 32.0578 73.1037 30.3915C73.8653 28.3564 75.7902 26.7579 77.9148 26.3967C78.4005 26.314 81.656 26.2361 85.1493 26.2237L91.5009 26.2008L91.4195 30.036ZM76.7909 31.3648C75.8426 31.7652 75.7168 33.3129 76.5941 33.7846C76.8148 33.9032 78.0535 34.0766 79.3466 34.17C81.8911 34.3537 84.1038 34.7336 85.4435 35.2167C86.6856 35.6647 87.3037 35.6097 87.7733 35.0101C88.6206 33.9283 87.9929 33.0245 85.9046 32.319C83.4129 31.4772 77.8928 30.8993 76.7909 31.3648ZM42.9618 43.5724C47.06 45.456 52.1579 45.3203 57.1071 43.1955C57.4253 43.059 57.4499 43.1592 57.3971 44.3814L57.3393 45.7166L53.4251 48.3989L49.5111 51.0811L45.5956 48.3822L41.6802 45.6832L41.623 44.3892C41.5917 43.6775 41.6464 43.0951 41.7446 43.0951C41.843 43.0951 42.3907 43.3099 42.9618 43.5724ZM8.09223 48.1774C9.26163 49.3054 9.31538 49.3978 9.26009 50.1855L9.20228 51.0112L7.8183 50.3319C7.05719 49.9583 6.03781 49.2912 5.55335 48.8497L4.67238 48.0469L5.09227 46.3712L5.51217 44.6954L6.18918 45.8452C6.56171 46.4776 7.41812 47.5272 8.09223 48.1774ZM25.7519 46.4211L26.1417 48.0469L25.24 48.8733C24.744 49.3277 23.7165 50.0024 22.9565 50.3723L21.5748 51.0449L21.5145 50.2579C21.4575 49.5116 21.5232 49.4037 22.781 48.1762C23.5477 47.428 24.3461 46.4153 24.673 45.7766C24.9841 45.1688 25.2665 44.6995 25.3003 44.7336C25.3344 44.7676 25.5375 45.5271 25.7519 46.4211ZM44.7459 51.3388L47.2319 53.0462L45.4365 54.8572C44.4488 55.8532 43.5854 56.6337 43.5176 56.5915C43.4497 56.5494 42.4066 55.0217 41.1995 53.1967L39.0049 49.8785L39.7465 49.1155L40.488 48.3525L41.3742 48.992C41.8614 49.3437 43.3788 50.3997 44.7459 51.3388ZM59.941 49.9445C59.9474 50.0616 55.8894 56.3067 55.5648 56.6795C55.5224 56.728 54.6544 55.9309 53.636 54.9077L51.7842 53.0476L55.2205 50.6958L58.6566 48.3442L59.2949 49.0693C59.6458 49.4681 59.9365 49.862 59.941 49.9445ZM14.1892 51.0512C15.3524 51.198 17.583 51.0463 18.3367 50.7694C18.5059 50.7073 18.5784 50.9269 18.5784 51.5011C18.5784 51.9524 18.6644 52.6231 18.7696 52.9915C18.9408 53.5913 18.9055 53.7201 18.4312 54.2217C16.564 56.1971 14.9435 56.3173 12.9054 54.632C11.9357 53.83 11.8506 53.6991 12.0159 53.2622C12.1164 52.9965 12.1988 52.2949 12.1988 51.703C12.1988 50.7632 12.2411 50.6432 12.5328 50.7556C12.7165 50.8265 13.4619 50.9595 14.1892 51.0512ZM80.7311 51.0568C81.776 51.2277 84.1589 51.0568 84.9421 50.7548C85.2208 50.6474 85.2742 50.7478 85.2742 51.3801C85.2742 52.0672 85.1298 52.2778 83.6296 53.7768L81.9848 55.4204L80.3656 53.7725C78.8124 52.1922 78.7502 52.0947 78.8422 51.3906C78.9203 50.7933 79.0028 50.6768 79.2843 50.7665C79.4747 50.8273 80.1257 50.9578 80.7311 51.0568ZM90.3147 61.2779C89.9323 61.7661 89.9139 62.0237 89.9139 66.918V72.0467L90.3885 72.5233C90.6495 72.7854 91.0883 73 91.3638 73C91.6393 73 92.0781 72.7854 92.3391 72.5233L92.8137 72.0467V66.8831V61.7194L92.3391 61.2429C91.6934 60.5941 90.8384 60.6089 90.3147 61.2779ZM6.60656 63.2197C6.22939 63.7011 6.20581 63.9769 6.20581 67.889C6.20581 72.0444 6.206 72.0469 6.68041 72.5233C6.94139 72.7854 7.38023 73 7.65571 73C7.9312 73 8.37004 72.7854 8.63102 72.5233L9.10562 72.0467V67.7997C9.10562 63.6112 9.09944 63.5468 8.65828 63.1302C8.02515 62.5329 7.11326 62.5725 6.60656 63.2197ZM31.6732 64.1159C31.0955 64.5565 30.9509 65.4183 30.9509 68.4203C30.9509 71.6667 31.1096 72.445 31.8396 72.779C32.5143 73.0878 32.7581 73.0585 33.3413 72.5975L33.8507 72.1951V68.4564C33.8507 64.7995 33.8409 64.7084 33.4034 64.2953C32.9046 63.8248 32.1565 63.7472 31.6732 64.1159ZM65.5891 64.3225C65.1885 64.7511 65.1688 64.9422 65.1688 68.4094C65.1688 72.0124 65.1732 72.0512 65.6434 72.5233C66.171 73.0534 66.4706 73.1037 67.1764 72.7806C67.9851 72.4106 68.0991 71.7811 68.033 68.0566C67.9737 64.709 67.9594 64.6047 67.5155 64.2441C66.8973 63.7417 66.1021 63.7741 65.5891 64.3225Z" fill="#C33FE4"/>
</svg>
