<svg width="635" height="375" viewBox="0 0 635 375" fill="none" xmlns="http://www.w3.org/2000/svg">
<path d="M561.134 345.42H634" stroke="#535353" stroke-linecap="round" stroke-linejoin="round"/>
<path d="M2.38159 345.42H46.2068" stroke="#535353" stroke-linecap="round" stroke-linejoin="round"/>
<path d="M399.931 1H146.703V158.305H399.931V1Z" fill="#535353" stroke="#535353" stroke-linecap="round" stroke-linejoin="round"/>
<path d="M391.5 8.06165H155.124V151.253H391.5V8.06165Z" fill="white" stroke="#535353" stroke-linecap="round" stroke-linejoin="round"/>
<path d="M270.632 97.9978H256.266V114.603H270.632V97.9978Z" fill="#410EAD"/>
<path d="M191.632 87.0723H177.265V114.603H191.632V87.0723Z" fill="#410EAD"/>
<path d="M211.377 75.713H197.01V114.603H211.377V75.713Z" fill="#EADEFF"/>
<path d="M231.132 63.0422H216.766V114.613H231.132V63.0422Z" fill="#410EAD"/>
<path d="M250.877 93.1958H236.511V114.613H250.877V93.1958Z" fill="#EADEFF"/>
<path d="M290.378 67.8442H276.011V114.603H290.378V67.8442Z" fill="#EADEFF"/>
<path d="M310.123 59.5417H295.756V114.603H310.123V59.5417Z" fill="#410EAD"/>
<path d="M329.878 52.1168H315.512V114.613H329.878V52.1168Z" fill="#EADEFF"/>
<path d="M349.623 74.8352H335.257V114.603H349.623V74.8352Z" fill="#410EAD"/>
<path d="M369.378 87.0723H355.012V114.603H369.378V87.0723Z" fill="#EADEFF"/>
<path d="M238.847 29.7512H307.786" stroke="#535353" stroke-linecap="round" stroke-linejoin="round"/>
<path d="M177.285 123.773H190.846" stroke="#535353" stroke-linecap="round" stroke-linejoin="round"/>
<path d="M197.11 123.773H210.671" stroke="#535353" stroke-linecap="round" stroke-linejoin="round"/>
<path d="M216.945 123.773H230.506" stroke="#535353" stroke-linecap="round" stroke-linejoin="round"/>
<path d="M236.769 123.773H250.33" stroke="#535353" stroke-linecap="round" stroke-linejoin="round"/>
<path d="M256.594 123.773H270.155" stroke="#535353" stroke-linecap="round" stroke-linejoin="round"/>
<path d="M276.429 123.773H289.99" stroke="#535353" stroke-linecap="round" stroke-linejoin="round"/>
<path d="M296.253 123.773H309.815" stroke="#535353" stroke-linecap="round" stroke-linejoin="round"/>
<path d="M316.088 123.773H329.65" stroke="#535353" stroke-linecap="round" stroke-linejoin="round"/>
<path d="M335.913 123.773H349.474" stroke="#535353" stroke-linecap="round" stroke-linejoin="round"/>
<path d="M355.738 123.773H369.299" stroke="#535353" stroke-linecap="round" stroke-linejoin="round"/>
<path d="M168.248 114.603H383.516" stroke="#535353" stroke-linecap="round" stroke-linejoin="round"/>
<path d="M168.248 108.873H172.761" stroke="#535353" stroke-linecap="round" stroke-linejoin="round"/>
<path d="M168.248 102.921H172.761" stroke="#535353" stroke-linecap="round" stroke-linejoin="round"/>
<path d="M168.248 96.9789H172.761" stroke="#535353" stroke-linecap="round" stroke-linejoin="round"/>
<path d="M168.248 91.0269H172.761" stroke="#535353" stroke-linecap="round" stroke-linejoin="round"/>
<path d="M168.248 85.085H172.761" stroke="#535353" stroke-linecap="round" stroke-linejoin="round"/>
<path d="M168.248 79.1328H172.761" stroke="#535353" stroke-linecap="round" stroke-linejoin="round"/>
<path d="M168.248 73.1909H172.761" stroke="#535353" stroke-linecap="round" stroke-linejoin="round"/>
<path d="M168.248 67.239H172.761" stroke="#535353" stroke-linecap="round" stroke-linejoin="round"/>
<path d="M168.248 61.297H172.761" stroke="#535353" stroke-linecap="round" stroke-linejoin="round"/>
<path d="M168.248 55.3551H172.761" stroke="#535353" stroke-linecap="round" stroke-linejoin="round"/>
<path d="M168.248 49.403H172.761" stroke="#535353" stroke-linecap="round" stroke-linejoin="round"/>
<path d="M168.248 43.4611H172.761" stroke="#535353" stroke-linecap="round" stroke-linejoin="round"/>
<path d="M229.909 44.6918H219.609C219.384 44.6918 219.16 44.737 218.952 44.8248C218.744 44.9127 218.555 45.0414 218.396 45.2036C218.237 45.3658 218.112 45.5583 218.026 45.7699C217.941 45.9816 217.898 46.2083 217.899 46.4371V53.6299C217.899 54.091 218.079 54.5334 218.399 54.8604C218.72 55.1875 219.155 55.3725 219.609 55.3752H222.592L224.58 59.5719L226.569 55.4054H229.919C230.374 55.4028 230.81 55.2181 231.132 54.8913C231.454 54.5646 231.636 54.1222 231.639 53.6602V46.4673C231.643 46.2347 231.601 46.0037 231.516 45.7878C231.431 45.5719 231.304 45.3754 231.142 45.21C230.981 45.0446 230.789 44.9135 230.577 44.8245C230.366 44.7355 230.138 44.6904 229.909 44.6918Z" fill="#C7C7C7"/>
<path d="M209.16 58.5127H198.86C198.406 58.5127 197.971 58.6955 197.651 59.0209C197.33 59.3463 197.15 59.7877 197.15 60.2479V67.4811C197.15 67.9413 197.33 68.3826 197.651 68.708C197.971 69.0334 198.406 69.2163 198.86 69.2163H201.842L203.831 73.423L205.819 69.2566H209.18C209.633 69.2566 210.068 69.0738 210.389 68.7484C210.71 68.423 210.89 67.9816 210.89 67.5214V60.3185C210.899 60.083 210.861 59.8481 210.778 59.628C210.695 59.4079 210.569 59.2073 210.407 59.0383C210.245 58.8693 210.051 58.7356 209.837 58.6452C209.622 58.5549 209.392 58.5098 209.16 58.5127Z" fill="#C7C7C7"/>
<path d="M189.276 67.481H178.975C178.519 67.481 178.082 67.6648 177.759 67.9921C177.437 68.3194 177.255 68.7633 177.255 69.2262V76.4191C177.258 76.8811 177.44 77.3235 177.762 77.6502C178.084 77.977 178.52 78.1617 178.975 78.1643H181.958L183.946 82.3711L185.935 78.1946H189.295C189.75 78.1919 190.185 78.0069 190.505 77.6799C190.826 77.3529 191.005 76.9105 191.005 76.4493V69.2565C191.011 69.0235 190.97 68.7919 190.885 68.5753C190.8 68.3588 190.673 68.1618 190.512 67.9961C190.35 67.8304 190.158 67.6994 189.945 67.6109C189.733 67.5224 189.505 67.4782 189.276 67.481Z" fill="#C7C7C7"/>
<path d="M249.147 76.2778H238.857C238.632 76.2765 238.408 76.3204 238.2 76.407C237.991 76.4936 237.801 76.6212 237.642 76.7825C237.482 76.9437 237.355 77.1355 237.268 77.3466C237.182 77.5578 237.137 77.7843 237.137 78.013V85.2159C237.137 85.4447 237.182 85.6711 237.268 85.8823C237.355 86.0935 237.482 86.2852 237.642 86.4465C237.801 86.6077 237.991 86.7353 238.2 86.8219C238.408 86.9085 238.632 86.9524 238.857 86.9511H241.84L243.828 91.1579L245.817 86.9915H249.167C249.622 86.9915 250.058 86.809 250.38 86.4839C250.702 86.1587 250.885 85.7174 250.887 85.2563V78.0533C250.891 77.8199 250.849 77.588 250.763 77.3714C250.677 77.1549 250.549 76.958 250.387 76.7924C250.225 76.6268 250.032 76.496 249.819 76.4076C249.606 76.3192 249.377 76.2751 249.147 76.2778Z" fill="#C7C7C7"/>
<path d="M269.032 80.0005H258.742C258.285 80.0005 257.848 80.1844 257.525 80.5117C257.203 80.839 257.022 81.2829 257.022 81.7457V88.9386C257.02 89.1682 257.064 89.3957 257.15 89.6081C257.236 89.8204 257.362 90.0133 257.522 90.1757C257.682 90.338 257.872 90.4665 258.082 90.5537C258.291 90.641 258.515 90.6852 258.742 90.6839H261.724L263.713 94.8906L265.701 90.7242H269.052C269.278 90.7255 269.502 90.6813 269.711 90.5941C269.921 90.5068 270.111 90.3784 270.271 90.216C270.431 90.0537 270.557 89.8608 270.643 89.6484C270.729 89.4361 270.773 89.2085 270.772 88.979V81.7861C270.777 81.5518 270.736 81.3188 270.65 81.1011C270.565 80.8833 270.438 80.6852 270.275 80.5186C270.113 80.3519 269.919 80.2202 269.705 80.1312C269.492 80.0422 269.263 79.9977 269.032 80.0005Z" fill="#C7C7C7"/>
<path d="M288.926 50.8356H278.626C278.172 50.8356 277.736 51.018 277.413 51.3432C277.091 51.6683 276.909 52.1096 276.906 52.5707V59.7737C276.909 60.2348 277.091 60.6761 277.413 61.0012C277.736 61.3264 278.172 61.5089 278.626 61.5089H281.609L283.597 65.7156L285.536 61.5492H288.896C289.35 61.5492 289.785 61.3664 290.106 61.041C290.426 60.7156 290.606 60.2742 290.606 59.814V52.6111C290.612 52.3824 290.572 52.1549 290.491 51.9416C290.409 51.7284 290.286 51.5337 290.13 51.3687C289.974 51.2037 289.787 51.0716 289.581 50.9801C289.374 50.8886 289.152 50.8395 288.926 50.8356Z" fill="#C7C7C7"/>
<path d="M308.373 41.8368H298.103C297.647 41.8394 297.211 42.0241 296.889 42.3509C296.567 42.6776 296.385 43.12 296.383 43.582V50.7749C296.383 51.2378 296.564 51.6817 296.887 52.009C297.209 52.3363 297.647 52.5201 298.103 52.5201H301.085L303.074 56.7269L305.062 52.5605H308.413C308.639 52.5618 308.863 52.5176 309.073 52.4304C309.282 52.3431 309.472 52.2146 309.632 52.0523C309.792 51.89 309.919 51.6971 310.005 51.4847C310.091 51.2724 310.134 51.0448 310.133 50.8152V43.6224C310.138 43.3864 310.097 43.1517 310.01 42.9326C309.924 42.7134 309.794 42.5144 309.63 42.3475C309.465 42.1805 309.269 42.0492 309.053 41.9615C308.837 41.8737 308.606 41.8313 308.373 41.8368Z" fill="#C7C7C7"/>
<path d="M328.049 34.8256H317.749C317.295 34.8256 316.86 35.0084 316.539 35.3338C316.219 35.6592 316.039 36.1006 316.039 36.5608V43.7637C316.039 44.2239 316.219 44.6652 316.539 44.9907C316.86 45.3161 317.295 45.4989 317.749 45.4989H320.731L322.72 49.7056L324.708 45.5392H328.059C328.513 45.5392 328.949 45.3567 329.271 45.0316C329.594 44.7065 329.776 44.2652 329.779 43.8041V36.6011C329.783 36.3685 329.741 36.1375 329.656 35.9216C329.57 35.7057 329.443 35.5092 329.282 35.3438C329.121 35.1784 328.929 35.0473 328.717 34.9583C328.505 34.8693 328.278 34.8242 328.049 34.8256Z" fill="#C7C7C7"/>
<path d="M347.287 57.635H336.987C336.762 57.635 336.54 57.6799 336.332 57.7671C336.125 57.8543 335.936 57.9821 335.777 58.1433C335.619 58.3044 335.493 58.4957 335.407 58.7062C335.321 58.9167 335.277 59.1423 335.277 59.3702V66.5732C335.277 66.801 335.321 67.0266 335.407 67.2372C335.493 67.4477 335.619 67.639 335.777 67.8001C335.936 67.9612 336.125 68.089 336.332 68.1762C336.54 68.2634 336.762 68.3083 336.987 68.3083H339.969L341.958 72.5151L343.946 68.3487H347.297C347.751 68.3487 348.187 68.1662 348.509 67.8411C348.832 67.516 349.014 67.0746 349.017 66.6135V59.4106C349.021 59.178 348.979 58.9469 348.894 58.731C348.808 58.5151 348.681 58.3187 348.52 58.1532C348.359 57.9878 348.167 57.8568 347.955 57.7678C347.743 57.6788 347.516 57.6337 347.287 57.635Z" fill="#C7C7C7"/>
<path d="M367.818 69.4986H357.527C357.301 69.4933 357.075 69.5335 356.864 69.6169C356.652 69.7003 356.459 69.8253 356.296 69.9847C356.132 70.1441 356.001 70.3347 355.911 70.5456C355.82 70.7565 355.771 70.9836 355.768 71.2136V78.4166C355.77 78.8777 355.953 79.319 356.275 79.6442C356.597 79.9693 357.033 80.1518 357.488 80.1517H360.47L362.459 84.3585L364.447 80.1921H367.798C368.023 80.1934 368.246 80.1495 368.455 80.0629C368.664 79.9763 368.853 79.8487 369.013 79.6875C369.173 79.5262 369.3 79.3345 369.387 79.1233C369.473 78.9121 369.518 78.6857 369.518 78.4569V71.2136C369.512 70.7587 369.331 70.324 369.013 70.0032C368.695 69.6825 368.266 69.5013 367.818 69.4986Z" fill="#C7C7C7"/>
<path d="M303.432 116.913L298.361 110.779C298.361 110.779 296.422 104.898 294.971 102.941C293.519 100.984 289.9 100.732 285.556 98.0381C281.211 95.3446 279.511 95.5867 280.236 98.7746C280.962 101.962 286.033 105.392 286.033 105.392C286.033 105.392 276.379 105.15 275.653 104.898C274.927 104.646 268.405 102.699 266.954 101.71C265.502 100.722 262.609 101.71 264.051 104.898C265.492 108.086 270.095 114.986 273.476 117.407C276.856 119.829 276.13 120.343 282.652 121.322C289.175 122.3 290.865 122.058 290.865 122.058L294.732 125.74L303.432 116.913Z" fill="white" stroke="#535353" stroke-linecap="round" stroke-linejoin="round"/>
<path d="M271.786 115.662C271.786 115.662 267.68 101.448 270.096 103.415C272.512 105.382 277.343 113.705 277.343 113.705C277.343 113.705 288.697 111.99 291.839 115.42" fill="white"/>
<path d="M271.786 115.662C271.786 115.662 267.68 101.448 270.096 103.415C272.512 105.382 277.343 113.705 277.343 113.705C277.343 113.705 288.697 111.99 291.839 115.42" stroke="#535353" stroke-linecap="round" stroke-linejoin="round"/>
<path d="M310.192 122.28L301.503 115.42L292.565 125.962L302.219 132.338L310.192 122.28Z" fill="white" stroke="#535353" stroke-linecap="round" stroke-linejoin="round"/>
<path d="M359.357 184.594L357.627 195.691C357.627 195.691 351.661 213.094 351.91 216.372C352.158 219.651 359.237 316.245 359.237 316.245H437.502C437.502 316.245 434.4 212.821 434.152 210.319C433.903 207.817 431.706 189.699 431.706 189.699C431.706 189.699 386.191 189.901 384.709 189.649C383.228 189.396 358.621 182.587 358.621 182.587L359.357 184.594Z" fill="#CDBBF2"/>
<path d="M380.732 231.989L398.37 237.033" stroke="#696969" stroke-linecap="round" stroke-linejoin="round"/>
<path d="M391.659 235.52L394.701 313.673" stroke="#696969" stroke-linecap="round" stroke-linejoin="round"/>
<path d="M396.381 201.23C414.675 200.554 422.748 199.666 432.123 193.109L431.706 189.689C431.706 189.689 386.19 189.891 384.709 189.639C383.228 189.386 358.621 182.577 358.621 182.577L359.356 184.595L358.104 192.665C363.96 195.409 379.499 201.855 396.381 201.23Z" fill="#878787" stroke="#535353" stroke-linecap="round" stroke-linejoin="round"/>
<path d="M387.185 196.943V200.473L396.381 201.23L396.918 197.043L387.185 196.943Z" fill="white" stroke="#535353" stroke-linecap="round" stroke-linejoin="round"/>
<path d="M386.529 80.1216C386.529 80.1216 352.467 89.6751 351.502 90.6839C350.538 91.6927 345.945 119.607 345.945 119.607L336.997 134.073L311.395 120.343C311.395 120.343 306.315 122.795 305.112 124.267C303.909 125.74 297.158 133.347 299.316 135.788C301.473 138.229 332.125 160.302 336.758 163.238C341.391 166.174 343.28 166.92 345.457 164.469C347.635 162.017 358.263 147.067 358.263 147.067L357.756 178.663C357.756 178.663 354.614 179.894 355.34 182.829C355.731 184.522 356.474 186.111 357.517 187.49H360.41C360.41 187.49 372.252 198.032 396.888 197.043C421.525 196.055 429.747 192.141 431.686 189.689C433.625 187.238 433.863 187.248 433.376 185.281C433.041 183.744 432.799 182.187 432.651 180.62L439.421 137.725L458.769 151.213C458.769 151.213 477.371 154.149 480.502 151.949C483.634 149.75 484.608 148.267 482.202 143.879C479.796 139.49 459.733 115.44 459.733 115.44C459.733 115.44 451.998 96.0811 450.785 94.3661C449.572 92.6511 417.688 80.1418 417.688 80.1418L386.529 80.1216Z" fill="white" stroke="#535353" stroke-linecap="round" stroke-linejoin="round"/>
<path d="M337.007 134.063C337.007 134.063 340.337 138.502 340.576 142.244" stroke="#535353" stroke-linecap="round" stroke-linejoin="round"/>
<path d="M358.273 147.046V116.651L356.334 106.593" stroke="#535353" stroke-linecap="round" stroke-linejoin="round"/>
<path d="M353.401 109.468L351.99 106.109" stroke="#535353" stroke-linecap="round" stroke-linejoin="round"/>
<path d="M358.273 121.059L354.883 112.999" stroke="#535353" stroke-linecap="round" stroke-linejoin="round"/>
<path d="M439.441 137.725L445.476 108.56" stroke="#535353" stroke-linecap="round" stroke-linejoin="round"/>
<path d="M447.405 117.175C445.168 120.605 442.801 124.56 442.095 126.941" stroke="#535353" stroke-linecap="round" stroke-linejoin="round"/>
<path d="M451.998 110.517C451.998 110.517 451.004 111.909 449.592 113.927" stroke="#535353" stroke-linecap="round" stroke-linejoin="round"/>
<path d="M450.546 126.204C450.546 126.204 455.627 119.344 461.9 119.344" stroke="#535353" stroke-linecap="round" stroke-linejoin="round"/>
<path d="M418.125 175.354C423.494 167.999 431.209 157.245 433.645 152.928" stroke="#535353" stroke-linecap="round" stroke-linejoin="round"/>
<path d="M412.627 182.829C412.627 182.829 413.85 181.185 415.719 178.642" stroke="#535353" stroke-linecap="round" stroke-linejoin="round"/>
<path d="M430.742 169.351L422.042 182.829" stroke="#535353" stroke-linecap="round" stroke-linejoin="round"/>
<path d="M393.548 72.5251C393.548 72.5251 390.654 72.7673 389.929 73.534C389.203 74.3007 383.884 80.404 383.884 80.404C383.884 80.404 384.61 102.951 385.872 102.215C387.135 101.478 396.5 92.651 397.465 91.6725C398.429 90.6939 411.444 102.921 412.14 103.415C412.836 103.909 413.353 106.109 414.068 103.899C414.784 101.69 422.022 82.3308 421.316 80.3737C420.61 78.4166 416.007 72.5251 416.007 72.5251C416.007 72.5251 398.37 76.1972 393.548 72.5251Z" fill="white" stroke="#535353" stroke-linecap="round" stroke-linejoin="round"/>
<path d="M388.229 24.9694C388.229 24.9694 381.697 34.0487 382.184 36.0058C382.671 37.9629 381.19 41.3929 381.19 41.3929C381.19 41.3929 372.49 48.2529 373.455 50.2201C374.455 51.8546 375.677 53.3385 377.083 54.6286C377.083 54.6286 376.845 71.7785 379.012 71.7785C381.18 71.7785 389.889 72.2728 389.889 72.2728C389.889 72.2728 397.137 99.2284 399.553 97.7656C401.969 96.3028 415.739 74.472 415.739 74.472L418.393 64.1821C418.393 64.1821 428.335 59.7635 431.199 45.3071C434.062 30.8508 426.118 22.2657 421.048 18.5836C415.977 14.9014 405.588 14.4172 405.588 14.4172C405.588 14.4172 409.455 11.9657 405.588 10.2507C401.72 8.53575 396.411 10.9872 396.411 10.9872C396.411 10.9872 396.163 4.61145 390.615 8.05151C385.067 11.4916 378.316 18.1094 388.229 24.9694Z" fill="white" stroke="#535353" stroke-linecap="round" stroke-linejoin="round"/>
<path d="M421.078 18.5936C416.007 14.9215 405.617 14.4272 405.617 14.4272C405.617 14.4272 409.485 11.9757 405.617 10.2607C401.75 8.54576 396.441 10.9972 396.441 10.9972C396.441 10.9972 396.192 4.62146 390.644 8.06152C385.097 11.5016 378.316 18.1497 388.229 24.9693C388.229 24.9693 408.272 26.6843 402.963 30.1143C397.654 33.5442 395.228 33.7964 398.857 36.2479C402.486 38.6993 405.617 44.0864 405.617 44.0864C405.617 44.0864 402.963 49.4835 404.166 50.4621C405.369 51.4407 406.82 51.6929 407.795 50.22C408.769 48.7471 411.652 43.6021 415.749 44.8228C419.845 46.0435 419.368 51.4406 416.226 54.911C414.172 57.0437 411.583 58.5678 408.739 59.3195C408.739 59.3195 414.536 62.7495 416.464 63.4859C417.5 63.6924 418.563 63.7163 419.606 63.5565C422.33 61.8617 428.932 56.7067 431.209 45.3474C434.122 30.8507 426.148 22.2758 421.078 18.5936Z" fill="#263238"/>
<path d="M380.981 57.8166C380.981 57.8166 385.564 57.5745 387.742 55.123C387.742 55.123 387.255 60.0259 385.564 60.268C383.874 60.5101 380.981 57.8166 380.981 57.8166Z" stroke="#535353" stroke-linecap="round" stroke-linejoin="round"/>
<path d="M387.98 42.0084C387.98 43.0172 387.553 43.8445 386.986 43.8445C386.419 43.8445 385.992 43.0273 385.992 42.0084C385.992 40.9895 386.419 40.1724 386.986 40.1724C387.553 40.1724 387.98 40.9895 387.98 42.0084Z" fill="#535353"/>
<path d="M384.6 38.4574C384.6 38.4574 388.467 36.006 390.396 39.1837" stroke="#535353" stroke-linecap="round" stroke-linejoin="round"/>
<path d="M389.919 72.283L398.131 72.0308L402.963 66.8859L393.538 83.3094L389.919 72.283Z" fill="#CDBBF2"/>
<path d="M437.293 134.537L429.807 130.623C428.76 129.157 427.447 127.908 425.939 126.941C424.011 125.932 422.32 126.941 416.514 125.226C410.708 123.511 408.56 123.753 409.555 126.457C410.549 129.16 416.514 129.392 416.514 129.392L418.93 130.865L402.714 134.063L394.462 137.685C394.275 137.772 394.119 137.915 394.016 138.096C393.912 138.277 393.867 138.485 393.886 138.693C393.93 138.947 394.067 139.174 394.271 139.327C394.474 139.481 394.727 139.55 394.979 139.521L402.237 138.441L410.559 137.836L397.137 144.06C396.863 144.208 396.643 144.44 396.509 144.723C396.375 145.006 396.334 145.325 396.391 145.634V145.634C396.426 145.841 396.504 146.038 396.619 146.211C396.735 146.385 396.886 146.532 397.062 146.642C397.238 146.751 397.435 146.822 397.64 146.848C397.845 146.874 398.053 146.856 398.25 146.794L411.444 143.647L402.893 150.355C402.639 150.526 402.452 150.783 402.364 151.08C402.277 151.376 402.295 151.695 402.416 151.98V151.98C402.554 152.298 402.81 152.548 403.128 152.674C403.447 152.801 403.802 152.794 404.116 152.655L412.497 148.983L408.381 154.411C408.27 154.555 408.21 154.732 408.21 154.915C408.21 155.098 408.27 155.276 408.381 155.42V155.42C408.51 155.581 408.695 155.687 408.897 155.717C409.1 155.747 409.306 155.698 409.475 155.581C411.374 154.219 417.061 150.174 417.667 149.972C418.274 149.77 424.19 147.278 425.154 147.036C426.118 146.794 429.747 145.563 429.747 145.563L437.472 148.257L437.293 134.537Z" stroke="#535353" stroke-linecap="round" stroke-linejoin="round"/>
<path d="M444.512 135.768L437.294 134.537L435.812 150.204L444.025 151.929C444.025 151.929 444.999 138.704 444.512 135.768Z" fill="white" stroke="#535353" stroke-linecap="round" stroke-linejoin="round"/>
<path d="M477.848 137.725C477.848 137.725 445.714 132.822 444.511 135.768C443.308 138.714 441.131 153.412 444.273 154.643C447.415 155.874 477.082 167.636 479.538 165.669C481.994 163.702 486.786 158.608 486.786 152.928C486.786 147.248 477.848 137.725 477.848 137.725Z" fill="white" stroke="#535353" stroke-linecap="round" stroke-linejoin="round"/>
<path d="M1 374L187.625 277.224H437.503L620.996 374" fill="white"/>
<path d="M1 374L187.625 277.224H437.503L620.996 374" stroke="#535353" stroke-linecap="round" stroke-linejoin="round"/>
<path d="M305.997 302.142L274.948 322.288L320.254 326.939L346.214 306.278L305.997 302.142Z" fill="white" stroke="#535353" stroke-linecap="round" stroke-linejoin="round"/>
<path d="M330.942 309.375L297.347 333.133L341.63 337.783L370.651 314.54L330.942 309.375Z" fill="white" stroke="#535353" stroke-linecap="round" stroke-linejoin="round"/>
<path d="M261.197 302.667L248.979 332.104L292.764 333.657L299.893 303.696L261.197 302.667Z" fill="white" stroke="#535353" stroke-linecap="round" stroke-linejoin="round"/>
<path d="M375.622 293.839L423.673 292.437L452.993 321.289L397.147 322.984L375.622 293.839Z" fill="#C7C7C7" stroke="#535353" stroke-linecap="round" stroke-linejoin="round"/>
<path d="M425.691 298.722L410.48 299.68L424.379 314.924L440.724 313.774L425.691 298.722Z" fill="#C7C7C7" stroke="#535353" stroke-linecap="round" stroke-linejoin="round"/>
<path d="M386.181 297.632L404.813 297.098L422.848 318.071L401.83 318.818L386.181 297.632Z" fill="#535353" stroke="#535353" stroke-linecap="round" stroke-linejoin="round"/>
<path d="M397.147 322.984L384.441 270.848L363.751 250.168L375.622 293.839L397.147 322.984Z" fill="#878787" stroke="#535353" stroke-linecap="round" stroke-linejoin="round"/>
<path d="M546.906 243.207L572.319 250.077C574.614 250.698 576.672 252.006 578.224 253.83C579.551 255.378 580.466 257.244 580.881 259.252C581.297 261.259 581.201 263.341 580.6 265.3L558.449 340.174L526.117 323.448L546.906 243.207Z" fill="#535353" stroke="#535353" stroke-linecap="round" stroke-linejoin="round"/>
<path d="M490.276 217.543C490.276 217.543 476.068 222.839 473.96 225.159C471.853 227.479 465.927 267.731 465.927 267.731C465.927 267.731 459.962 269.83 459.962 271.413V272.987C459.962 272.987 453.489 275.872 451.163 277.718C448.836 279.565 448.051 279.817 451.163 282.974C454.275 286.132 458.928 291.902 464.366 293.749C469.805 295.595 470.958 295.827 470.958 295.827L535.94 328.765C535.94 328.765 556.312 233.542 556.57 231.434C556.829 229.326 526.008 213.83 523.164 212.266C520.321 210.703 490.276 217.543 490.276 217.543Z" fill="#EADEFF" stroke="#535353" stroke-linecap="round" stroke-linejoin="round"/>
<path d="M492.085 215.969C492.085 215.969 489.242 219.116 489.5 220.438C489.759 221.759 490.494 229.104 490.494 230.94V242.006L499.562 218.097L498.001 213.628L492.085 215.969Z" fill="#EADEFF" stroke="#535353" stroke-linecap="round" stroke-linejoin="round"/>
<path d="M524.974 205.195L518.173 202.108L495.953 220.7C493.896 225.106 492.498 229.798 491.807 234.622C490.514 243.035 488.446 268.78 488.446 268.78C488.446 268.78 498.538 246.97 499.84 244.569C501.142 242.168 501.391 232.221 501.391 232.221C501.391 232.221 513.819 228.014 517.706 220.66C521.594 213.306 524.974 205.195 524.974 205.195Z" fill="white" stroke="#535353" stroke-linecap="round" stroke-linejoin="round"/>
<path d="M469.556 179.702C469.556 179.702 470.55 186.007 471.365 187.329C472.181 188.65 473.185 193.896 473.185 193.896C473.185 193.896 472.668 201.25 473.96 203.611C475.253 205.972 482.242 219.116 485.613 219.641C488.983 220.166 494.421 217.805 494.421 217.805L494.938 224.11C494.938 224.11 498.557 226.481 507.108 222.799C515.658 219.116 519.794 213.074 520.311 210.693C520.828 208.312 516.175 196.761 516.175 196.761V189.951C517.458 188.299 518.396 186.398 518.929 184.365C519.462 182.332 519.581 180.209 519.277 178.128C518.283 171.066 519.794 168.928 506.074 165.256C492.353 161.584 475.77 167.354 471.892 169.977C468.015 172.6 469.556 179.702 469.556 179.702Z" fill="white" stroke="#535353" stroke-linecap="round" stroke-linejoin="round"/>
<path d="M501.152 178.915L503.22 180.751L503.996 186.532C503.996 186.532 506.591 188.378 507.366 185.745C508.142 183.112 506.849 178.683 509.951 177.079C513.053 175.475 515.917 174.97 515.917 180.489C515.917 186.007 513.063 194.945 513.063 194.945C513.063 194.945 515.658 198.103 516.175 196.781C516.692 195.46 520.311 173.921 520.311 173.921C517.595 172.261 514.736 170.853 511.771 169.715C508.4 168.665 501.152 178.915 501.152 178.915Z" fill="#263238"/>
<path d="M491.051 170.512C491.051 170.512 484.579 173.397 484.091 176.565C483.604 179.732 479.946 184.706 474.507 184.706C469.069 184.706 469.586 178.653 466.484 178.401C463.382 178.148 457.675 179.187 457.675 169.725C457.675 160.262 464.147 159.748 466.742 157.901C469.337 156.055 465.957 155.803 470.103 150.547C474.249 145.291 477.878 147.127 481.497 147.127C485.116 147.127 484.092 142.134 490.564 141.609C497.036 141.084 499.373 143.193 500.407 144.504C501.441 145.816 506.879 144.242 510.766 146.865C514.654 149.488 514.902 151.859 516.98 154.229C519.058 156.6 522.946 155.016 522.419 160.282C521.892 165.548 520.341 167.899 521.126 169.21C521.912 170.522 523.453 170.532 522.677 172.892C521.902 175.253 519.048 177.361 519.307 178.148C519.565 178.935 513.341 179.46 509.981 177.14C506.621 174.819 507.396 178.976 501.182 178.976C494.968 178.976 490.276 173.921 491.051 170.512Z" fill="#263238"/>
<path d="M507.366 185.745C507.366 185.745 507.625 179.692 509.951 177.079C512.278 174.466 516.434 177.603 515.658 183.384C514.883 189.165 511.512 195.49 508.917 195.207" fill="white"/>
<path d="M507.366 185.745C507.366 185.745 507.625 179.692 509.951 177.079C512.278 174.466 516.434 177.603 515.658 183.384C514.883 189.165 511.512 195.49 508.917 195.207" stroke="#535353" stroke-linecap="round" stroke-linejoin="round"/>
<path d="M494.958 224.11C494.958 224.11 498.577 226.481 507.128 222.799C515.678 219.116 519.814 213.074 520.331 210.693C520.609 209.412 519.337 205.467 518.193 202.088C511.125 213.094 494.422 217.795 494.422 217.795L494.958 224.11Z" fill="white" stroke="#535353" stroke-linecap="round" stroke-linejoin="round"/>
<path d="M494.422 217.805L506.332 208.08L501.669 214.647L494.422 217.805Z" fill="#535353" stroke="#535353" stroke-linecap="round" stroke-linejoin="round"/>
<path d="M479.399 205.195C479.399 205.195 485.364 208.867 492.324 201.512" stroke="#535353" stroke-linecap="round" stroke-linejoin="round"/>
<path d="M490.087 191.424C490.504 192.736 490.345 193.967 489.739 194.168C489.132 194.37 488.287 193.462 487.87 192.151C487.452 190.839 487.611 189.619 488.218 189.417C488.824 189.215 489.669 190.113 490.087 191.424Z" fill="#535353"/>
<path d="M478.176 191.424C478.594 192.736 478.435 193.967 477.828 194.168C477.222 194.37 476.376 193.462 475.959 192.151C475.541 190.839 475.7 189.619 476.307 189.417C476.913 189.215 477.758 190.113 478.176 191.424Z" fill="#535353"/>
<path d="M485.613 187.066C485.613 187.066 490.534 184.433 493.119 187.591" stroke="#535353" stroke-linecap="round" stroke-linejoin="round"/>
<path d="M473.185 186.794C473.185 186.794 476.804 185.482 477.331 187.066L479.399 191.525L478.106 203.086L484.837 201.775" stroke="#535353" stroke-linecap="round" stroke-linejoin="round"/>
<path d="M524.974 205.195C524.974 205.195 508.917 227.792 501.411 232.261L507.108 242.238C507.108 242.238 522.648 228.054 525.491 221.749L528.345 215.444L524.974 205.195Z" fill="#EADEFF" stroke="#535353" stroke-linecap="round" stroke-linejoin="round"/>
<path d="M527.827 240.14L522.647 285.86C522.647 285.86 519.536 285.86 519.536 287.968C519.5 289.467 519.327 290.96 519.019 292.427L466.713 302.939C466.713 302.939 447.822 300.316 446.252 300.841C444.681 301.365 440.346 305.461 438.795 306.772C437.244 308.084 430.911 314.036 431.945 315.61C432.979 317.183 437.393 313.4 437.393 313.4C437.393 313.4 433.565 318.969 435.633 318.444C437.701 317.92 440.346 314.984 440.346 314.984L444.392 312.452C444.392 312.452 439.521 318.969 441.072 318.707C442.623 318.444 445.476 316.346 445.476 316.346L447.286 315.337C447.286 315.337 443.915 318.747 445.735 319.272C447.554 319.796 451.431 315.6 451.431 315.6L454.792 313.491C455.904 314.073 457.12 314.419 458.368 314.509C459.615 314.599 460.868 314.431 462.05 314.016C466.454 312.704 469.556 311.393 469.556 311.393C469.556 311.393 532.192 317.173 536.368 315.862C540.543 314.55 544.66 314.278 545.694 311.917C546.728 309.557 555.536 233.088 556.57 231.505C557.604 229.921 540.255 223.101 540.255 223.101" fill="#EADEFF"/>
<path d="M527.827 240.14L522.647 285.86C522.647 285.86 519.536 285.86 519.536 287.968C519.5 289.467 519.327 290.96 519.019 292.427L466.713 302.939C466.713 302.939 447.822 300.316 446.252 300.841C444.681 301.365 440.346 305.461 438.795 306.772C437.244 308.084 430.911 314.036 431.945 315.61C432.979 317.183 437.393 313.4 437.393 313.4C437.393 313.4 433.565 318.969 435.633 318.444C437.701 317.92 440.346 314.984 440.346 314.984L444.392 312.452C444.392 312.452 439.521 318.969 441.072 318.707C442.623 318.444 445.476 316.346 445.476 316.346L447.286 315.337C447.286 315.337 443.915 318.747 445.735 319.272C447.554 319.796 451.431 315.6 451.431 315.6L454.792 313.491C455.904 314.073 457.12 314.419 458.368 314.509C459.615 314.599 460.868 314.431 462.05 314.016C466.454 312.704 469.556 311.393 469.556 311.393C469.556 311.393 532.192 317.173 536.368 315.862C540.543 314.55 544.66 314.278 545.694 311.917C546.728 309.557 555.536 233.088 556.57 231.505C557.604 229.921 540.255 223.101 540.255 223.101" stroke="#535353" stroke-linecap="round" stroke-linejoin="round"/>
<path d="M491.578 297.945L466.723 302.939L478.325 300.609C480.184 302.465 482.302 305.996 482.6 312.513C486.378 312.835 490.713 313.209 495.257 313.582C498.041 303.988 492.383 298.641 491.578 297.945Z" fill="#EADEFF" stroke="#535353" stroke-linecap="round" stroke-linejoin="round"/>
<path d="M520.808 293.345C520.808 293.345 534.349 298.086 538.704 302.192C543.059 306.298 534.19 294.929 528.275 291.923" stroke="#535353" stroke-linecap="round" stroke-linejoin="round"/>
<path d="M478.315 300.609L466.713 302.939C466.713 302.939 447.822 300.316 446.252 300.841C444.681 301.365 440.346 305.461 438.795 306.772C437.244 308.084 430.911 314.036 431.945 315.61C432.979 317.183 437.393 313.4 437.393 313.4C437.393 313.4 433.565 318.969 435.633 318.444C437.701 317.92 440.346 314.984 440.346 314.984L444.392 312.452C444.392 312.452 439.521 318.969 441.072 318.707C442.623 318.444 445.476 316.346 445.476 316.346L447.286 315.337C447.286 315.337 443.915 318.747 445.735 319.272C447.554 319.796 451.431 315.6 451.431 315.6L454.792 313.491C455.904 314.073 457.12 314.419 458.368 314.509C459.615 314.599 460.868 314.431 462.05 314.016C466.454 312.704 469.556 311.393 469.556 311.393C469.556 311.393 474.915 311.887 482.59 312.553C482.312 305.996 480.174 302.465 478.315 300.609Z" fill="white" stroke="#535353" stroke-linecap="round" stroke-linejoin="round"/>
<path d="M447.285 315.297C447.285 315.297 451.869 310.565 453.738 309.93" stroke="#535353" stroke-linecap="round" stroke-linejoin="round"/>
<path d="M444.392 312.452C444.392 312.452 449.065 307.247 450.934 306.611" stroke="#535353" stroke-linecap="round" stroke-linejoin="round"/>
<path d="M437.393 313.4C437.393 313.4 444.71 304.876 447.335 303.766" stroke="#535353" stroke-linecap="round" stroke-linejoin="round"/>
<path d="M450.219 280.442L444.313 287.968C444.313 287.968 426.298 288.583 423.265 289.35C420.233 290.117 416.306 299.176 416.306 301.022C416.306 302.868 418.125 302.717 419.03 301.486C419.935 300.255 422.659 294.576 422.659 294.576C422.659 294.576 419.676 303.484 419.676 304.402C419.676 305.32 421.664 304.402 421.664 304.402C421.664 304.402 421.515 306.248 422.569 306.712C423.623 307.176 426.049 305.632 426.049 305.632C426.049 305.632 426.655 306.863 428.475 305.784C430.294 304.704 434.679 297.491 435.892 296.704C437.105 295.918 440.585 296.553 440.585 296.553C440.585 296.553 437.105 298.238 435.743 301.153C434.381 304.069 434.679 304.997 435.594 304.694C436.508 304.392 439.57 301.315 441.34 300.387C443.11 299.458 447.703 299.771 449.065 299.156C450.427 298.54 462.696 291.781 462.696 291.781C462.696 291.781 462.537 284.871 458.451 282.107C457.254 281.293 455.911 280.727 454.498 280.441C453.086 280.156 451.631 280.156 450.219 280.442Z" fill="white" stroke="#535353" stroke-linecap="round" stroke-linejoin="round"/>
<path d="M458.431 282.127C457.238 281.312 455.899 280.744 454.49 280.455C453.081 280.166 451.629 280.162 450.218 280.442L446.47 285.214C449.02 285.419 451.41 286.554 453.199 288.408C454.988 290.263 456.056 292.712 456.204 295.302L462.636 291.771C462.636 291.771 462.517 284.891 458.431 282.127Z" fill="#EADEFF" stroke="#535353" stroke-linecap="round" stroke-linejoin="round"/>
<path d="M444.353 287.968C444.353 287.968 448.896 287.655 450.258 290.995" stroke="#535353" stroke-linecap="round" stroke-linejoin="round"/>
<path d="M421.645 304.402L427.242 292.114" stroke="#535353" stroke-linecap="round" stroke-linejoin="round"/>
<path d="M426.029 305.633L431.179 292.881" stroke="#535353" stroke-linecap="round" stroke-linejoin="round"/>
<path d="M422.698 294.576L424.22 291.65" stroke="#535353" stroke-linecap="round" stroke-linejoin="round"/>
<path d="M470.968 295.827L471.962 283.358C471.962 283.358 471.356 277.366 471.356 271.989C471.356 266.612 477.709 232.201 477.709 232.201" stroke="#535353" stroke-linecap="round" stroke-linejoin="round"/>
<path d="M486.895 273.219C486.895 273.219 486.746 281.824 486.289 286.435C485.802 290.033 484.994 293.578 483.873 297.027" stroke="#535353" stroke-linecap="round" stroke-linejoin="round"/>
<path d="M258.146 293.204L205.88 291.721L176.749 322.076L235.498 323.852L258.146 293.204Z" fill="#C7C7C7" stroke="#535353" stroke-linecap="round" stroke-linejoin="round"/>
<path d="M206.516 296.573L220.008 296.997L206.725 313.905L191.752 313.047L206.516 296.573Z" fill="#C7C7C7" stroke="#535353" stroke-linecap="round" stroke-linejoin="round"/>
<path d="M247.031 297.178L225.496 296.573L210.095 318.182L230.566 319.473L247.031 297.178Z" fill="#535353" stroke="#535353" stroke-linecap="round" stroke-linejoin="round"/>
<path d="M235.498 323.851L248.86 269.012L270.633 247.252L258.146 293.204L235.498 323.851Z" fill="#878787" stroke="#535353" stroke-linecap="round" stroke-linejoin="round"/>
<path d="M223.397 265.542C223.397 265.542 228.04 269.577 227.304 270.788C226.569 271.999 225.614 271.434 224.242 271C222.87 270.566 217.8 267.146 217.8 267.146C217.8 267.146 222.234 264.685 223.397 265.542Z" stroke="#535353" stroke-linecap="round" stroke-linejoin="round"/>
<path d="M217.8 267.146C217.8 267.146 225.823 273.25 224.978 274.107C224.133 274.965 223.288 274.541 220.862 273.895C218.436 273.25 214.638 269.86 214.638 269.86L217.8 267.146Z" fill="white" stroke="#535353" stroke-linecap="round" stroke-linejoin="round"/>
<path d="M214.747 271.262C214.747 271.262 219.281 275.227 219.172 275.661C219.062 276.094 218.545 276.942 216.855 276.619C215.165 276.296 211.685 273.593 211.685 273.593L214.747 271.262Z" fill="white" stroke="#535353" stroke-linecap="round" stroke-linejoin="round"/>
<path d="M195.171 273.663C195.171 273.663 208.414 261.043 208.831 260.831C212.909 260.003 217.033 259.43 221.18 259.116C223.715 259.116 230.257 264.362 229.412 264.897C228.567 265.431 223.824 264.15 223.824 264.15H221.08C221.08 264.15 215.165 271 209.786 274.238C205.477 276.62 200.993 278.66 196.374 280.342L195.171 273.663Z" fill="white" stroke="#535353" stroke-linecap="round" stroke-linejoin="round"/>
<path d="M207.072 265.875C206.795 265.89 206.524 265.792 206.318 265.604C206.112 265.416 205.988 265.152 205.973 264.871C205.959 264.59 206.055 264.315 206.24 264.106C206.426 263.897 206.686 263.771 206.963 263.757L235.596 261.073C235.734 261.059 235.873 261.101 235.981 261.19C236.089 261.279 236.158 261.407 236.173 261.547C236.181 261.616 236.176 261.686 236.157 261.753C236.139 261.82 236.107 261.882 236.065 261.937C236.022 261.991 235.969 262.037 235.909 262.07C235.849 262.104 235.784 262.125 235.715 262.132L207.191 265.875H207.072Z" fill="#535353"/>
<path d="M206.933 268.004C206.933 268.004 217.273 263.393 218.863 262.859C220.454 262.324 229.8 264.362 229.412 264.876C229.024 265.391 229.313 266.269 227.304 266.803C225.296 267.338 220.653 267.015 220.653 267.015C220.653 267.015 214.847 272.483 211.785 274.944C208.722 277.406 206.296 278.98 203.234 279.333C201.341 279.527 199.436 279.564 197.537 279.444" fill="white"/>
<path d="M206.933 268.004C206.933 268.004 217.273 263.393 218.863 262.859C220.454 262.324 229.8 264.362 229.412 264.876C229.024 265.391 229.313 266.269 227.304 266.803C225.296 267.338 220.653 267.015 220.653 267.015C220.653 267.015 214.847 272.483 211.785 274.944C208.722 277.406 206.296 278.98 203.234 279.333C201.341 279.527 199.436 279.564 197.537 279.444" stroke="#535353" stroke-linecap="round" stroke-linejoin="round"/>
<path d="M187.456 274.914L195.161 273.663L196.712 283.983L188.689 285.547L187.456 274.914Z" fill="white" stroke="#535353" stroke-linecap="round" stroke-linejoin="round"/>
<path d="M101.108 222.889C101.108 222.889 112.86 225.179 117.801 228.62C122.742 232.06 133.887 256.705 135.697 260.77C137.506 264.836 141.583 273.976 141.583 273.976C141.583 273.976 144.973 272.1 146.554 273.663C147.478 274.61 148.119 275.803 148.403 277.103C148.403 277.103 184.99 272.059 187.456 274.914C189.922 277.769 189.305 282.42 188.689 285.547C188.072 288.674 188.381 288.674 184.712 290.238C181.043 291.802 144.665 302.041 134.186 303.605C123.707 305.169 124.303 295.534 124.303 295.534C124.303 295.534 127.097 271.787 114.709 256.13C102.321 240.473 98.9206 234.097 97.2702 229.013C95.6198 223.928 101.108 222.889 101.108 222.889Z" fill="white" stroke="#535353" stroke-linecap="round" stroke-linejoin="round"/>
<path d="M148.403 277.103C148.403 277.103 141.284 288.079 138.908 290.753" stroke="#535353" stroke-linecap="round" stroke-linejoin="round"/>
<path d="M141.284 275.762L136.263 280.311" stroke="#535353" stroke-linecap="round" stroke-linejoin="round"/>
<path d="M47.4995 254.748L20.7649 262.011C18.3506 262.664 16.1856 264.039 14.551 265.956C13.1529 267.591 12.189 269.561 11.7505 271.679C11.3121 273.797 11.4137 275.994 12.0456 278.062L35.539 355.155L67.9407 338.006L47.4995 254.748Z" fill="#535353" stroke="#535353" stroke-linecap="round" stroke-linejoin="round"/>
<path d="M112.362 233.189C112.362 233.189 114.003 236.539 123.299 246.001C131.949 254.778 135.23 265.391 133.241 277.769C131.66 287.595 131.809 297.945 129.781 307.68L67.9407 337.945L46.207 240.665C46.207 240.665 64.6001 229.245 76.4015 225.341C88.2029 221.437 97.2801 222.002 101.108 222.839C104.936 223.676 107.69 224.503 107.69 224.503" fill="white"/>
<path d="M112.362 233.189C112.362 233.189 114.003 236.539 123.299 246.001C131.949 254.778 135.23 265.391 133.241 277.769C131.66 287.595 131.809 297.945 129.781 307.68L67.9407 337.945L46.207 240.665C46.207 240.665 64.6001 229.245 76.4015 225.341C88.2029 221.437 97.2801 222.002 101.108 222.839C104.936 223.676 107.69 224.503 107.69 224.503" stroke="#535353" stroke-linecap="round" stroke-linejoin="round"/>
<path d="M107.928 251.762C107.928 251.762 121.191 264.876 122.116 272.412C123.04 279.948 121.808 298.642 121.808 298.642" stroke="#535353" stroke-linecap="round" stroke-linejoin="round"/>
<path d="M104.677 247.959L106.317 230.688L97.27 229.013C96.4256 230.419 95.8907 231.993 95.7019 233.628C95.5132 235.263 95.675 236.92 96.1764 238.486C97.8069 244.024 104.677 247.959 104.677 247.959Z" fill="white" stroke="#535353" stroke-linecap="round" stroke-linejoin="round"/>
<path d="M106.317 230.688L114.013 242.107L105.502 240.988L106.317 230.688Z" fill="white" stroke="#535353" stroke-linecap="round" stroke-linejoin="round"/>
<path d="M112.084 161.301C112.084 161.301 114.56 166.345 114.828 170.209C115.097 174.073 113.735 176.06 115.932 178.572C118.129 181.084 126.083 180.519 124.442 184.141C123.354 186.434 121.865 188.509 120.048 190.264C120.048 190.264 118.397 199.182 117.572 205.033C116.747 210.885 117.304 211.439 114.281 211.994C111.259 212.549 106.049 211.712 106.049 211.712C103.319 216.066 101.367 220.874 100.283 225.916C99.2732 230.494 99.1786 235.232 100.004 239.848L84.9121 231.495C84.9121 231.495 79.1457 233.442 76.1232 221.467C73.1008 209.492 81.8897 174.113 87.3778 166.87C92.8659 159.627 112.084 161.301 112.084 161.301Z" fill="white" stroke="#535353" stroke-linecap="round" stroke-linejoin="round"/>
<path d="M89.0281 177.21C89.0281 177.21 90.947 185.563 89.8533 187.228C88.7597 188.892 84.3652 183.051 84.3652 183.051C84.3652 183.051 87.1093 173.589 89.0281 177.21Z" fill="#263238"/>
<path d="M84.9119 231.525L98.3637 234.309L104.677 247.948L97.8069 244.054L94.516 256.029L73.3789 232.635L84.9119 231.525Z" fill="white" stroke="#535353" stroke-linecap="round" stroke-linejoin="round"/>
<path d="M97.8071 244.054L98.3639 234.309L104.677 247.948L97.8071 244.054Z" fill="white" stroke="#535353" stroke-linecap="round" stroke-linejoin="round"/>
<path d="M81.1341 199.717C83.1225 203.49 87.3082 200.968 87.3082 200.968L98.3639 207.848L89.575 204.499L77.2268 214.254C77.2268 214.254 77.4356 192.514 81.1341 199.717Z" fill="#263238"/>
<path d="M116.757 195.863C116.757 195.863 110.99 197.538 109.34 194.754" stroke="#535353" stroke-linecap="round" stroke-linejoin="round"/>
<path d="M112.303 178.058C112.81 179.742 112.631 181.296 111.905 181.528C111.179 181.76 110.185 180.519 109.678 178.865C109.171 177.21 109.35 175.616 110.076 175.394C110.802 175.172 111.796 176.363 112.303 178.058Z" fill="#535353"/>
<path d="M106.596 173.306C106.596 173.306 109.062 169.402 112.631 171.631" stroke="#535353" stroke-linecap="round" stroke-linejoin="round"/>
<path d="M115.653 153.533C115.653 153.533 115.932 155.763 112.084 161.331C108.236 166.9 93.1442 173.861 89.0281 177.21C84.9121 180.56 79.6924 208.958 80.5176 216.484C81.3428 224.009 82.168 226.784 86.2841 226.784C87.5889 226.718 88.8678 226.389 90.0457 225.815C91.2236 225.242 92.277 224.436 93.1442 223.444C93.1442 223.444 91.7722 235.974 85.4589 238.486C79.1456 240.998 71.1819 235.974 64.3217 236.539C57.4616 237.104 50.8699 243.217 47.5791 245.729C44.2882 248.241 42.9062 250.46 36.3245 246.556C29.7427 242.652 32.4769 236.811 32.4769 236.811C32.4769 236.811 38.2433 239.838 41.5342 232.635C44.8251 225.432 47.3007 230.688 44.2782 213.467C41.2558 196.247 40.4406 186.169 50.6015 167.233C60.7624 148.298 73.1106 146.34 73.1106 146.34C73.1106 146.34 87.6561 144.343 115.653 153.533Z" fill="#263238"/>
<path d="M150.52 313.411C150.52 313.411 176.042 302.536 177.971 302.536C179.9 302.536 196.911 310.889 196.911 310.889L198.004 312.846C198.004 312.846 199.108 313.4 198.283 315.075C197.458 316.75 191.97 316.467 191.97 316.467C191.97 316.467 196.364 317.295 194.435 318.414C192.506 319.534 177.971 318.414 177.971 318.414C174.014 320.613 169.76 322.207 165.344 323.146C159.031 324.265 149.148 322.591 149.148 322.591L150.52 313.411Z" fill="white" stroke="#535353" stroke-linecap="round" stroke-linejoin="round"/>
<path d="M198.005 312.856L181.182 305.431" stroke="#535353" stroke-linecap="round" stroke-linejoin="round"/>
<path d="M198.283 315.085L180.526 308.952" stroke="#535353" stroke-linecap="round" stroke-linejoin="round"/>
<path d="M191.97 316.477C191.97 316.477 185.01 314.672 183.807 314.379C182.569 314.137 181.304 314.076 180.049 314.197" stroke="#535353" stroke-linecap="round" stroke-linejoin="round"/>
<path d="M141.185 312.573L150.521 313.411L149.696 324.548L140.638 325.113L141.185 312.573Z" fill="white" stroke="#535353" stroke-linecap="round" stroke-linejoin="round"/>
<path d="M82.7148 240.998C82.7148 240.998 71.7286 229.578 65.1469 229.023C58.5652 228.468 44.0098 232.362 44.0098 249.916C44.0098 267.469 52.5203 295.595 53.6139 313.703C54.7076 331.811 62.6713 342.112 65.1469 341.829C67.6225 341.547 98.0854 339.862 116.16 334.303C134.235 328.745 139.226 328.452 140.598 325.113C141.97 321.774 142.517 315.64 141.145 312.573C139.773 309.507 87.3379 310.344 86.2443 310.344C85.1506 310.344 77.7337 258.541 77.7337 258.541" fill="white"/>
<path d="M82.7148 240.998C82.7148 240.998 71.7286 229.578 65.1469 229.023C58.5652 228.468 44.0098 232.362 44.0098 249.916C44.0098 267.469 52.5203 295.595 53.6139 313.703C54.7076 331.811 62.6713 342.112 65.1469 341.829C67.6225 341.547 98.0854 339.862 116.16 334.303C134.235 328.745 139.226 328.452 140.598 325.113C141.97 321.774 142.517 315.64 141.145 312.573C139.773 309.507 87.3379 310.344 86.2443 310.344C85.1506 310.344 77.7337 258.541 77.7337 258.541" stroke="#535353" stroke-linecap="round" stroke-linejoin="round"/>
<path d="M83.54 310.606C83.54 310.606 71.7287 314.228 65.9722 321.471" stroke="#535353" stroke-linecap="round" stroke-linejoin="round"/>
<path d="M82.1679 308.114C82.1679 308.114 70.3566 310.071 65.4153 313.693" stroke="#535353" stroke-linecap="round" stroke-linejoin="round"/>
<path d="M493.725 324.78C493.725 324.78 501.122 323.004 501.103 328.351C501.083 333.698 499.224 341.193 496.47 342.626C493.716 344.058 489.023 341.193 489.023 341.193L488.963 337.985C488.963 337.985 495.078 340.84 496.281 336.563C497.484 332.285 497.931 328.351 491.737 329.42" fill="#EADEFF"/>
<path d="M493.725 324.78C493.725 324.78 501.122 323.004 501.103 328.351C501.083 333.698 499.224 341.193 496.47 342.626C493.716 344.058 489.023 341.193 489.023 341.193L488.963 337.985C488.963 337.985 495.078 340.84 496.281 336.563C497.484 332.285 497.931 328.351 491.737 329.42" stroke="#535353" stroke-linecap="round" stroke-linejoin="round"/>
<path d="M494.74 319.968L492.364 348.507C492.364 350.747 486.816 352.542 479.966 352.542C473.115 352.542 467.578 350.737 467.578 348.507L465.201 319.968H494.74Z" fill="#EADEFF" stroke="#535353" stroke-linecap="round" stroke-linejoin="round"/>
<path d="M479.966 324.78C488.125 324.78 494.74 322.625 494.74 319.968C494.74 317.31 488.125 315.156 479.966 315.156C471.806 315.156 465.191 317.31 465.191 319.968C465.191 322.625 471.806 324.78 479.966 324.78Z" fill="white" stroke="#535353" stroke-linecap="round" stroke-linejoin="round"/>
<path d="M474.994 323.176C476.643 323.388 478.304 323.492 479.965 323.488C484.847 323.488 489.073 322.651 491.2 321.471" fill="white"/>
<path d="M474.994 323.176C476.643 323.388 478.304 323.492 479.965 323.488C484.847 323.488 489.073 322.651 491.2 321.471" stroke="#535353" stroke-linecap="round" stroke-linejoin="round"/>
<path d="M468.283 321.148C469.201 321.743 470.209 322.182 471.266 322.449L468.283 321.148Z" fill="white"/>
<path d="M468.283 321.148C469.201 321.743 470.209 322.182 471.266 322.449" stroke="#535353" stroke-linecap="round" stroke-linejoin="round"/>
<path d="M143.005 330.883C143.005 330.883 135.836 329.087 135.419 334.505C135.001 339.922 136.224 347.488 138.829 348.931C141.434 350.373 146.315 347.478 146.315 347.478L146.633 344.23C146.633 344.23 140.36 347.125 139.505 342.797C138.65 338.469 138.511 334.495 144.585 335.574" fill="#EADEFF"/>
<path d="M143.005 330.883C143.005 330.883 135.836 329.087 135.419 334.505C135.001 339.922 136.224 347.488 138.829 348.931C141.434 350.373 146.315 347.478 146.315 347.478L146.633 344.23C146.633 344.23 140.36 347.125 139.505 342.797C138.65 338.469 138.511 334.495 144.585 335.574" stroke="#535353" stroke-linecap="round" stroke-linejoin="round"/>
<path d="M141.225 326.172L143.601 354.711C143.601 356.951 149.149 358.747 155.989 358.747C162.829 358.747 168.387 356.941 168.387 354.711L170.763 326.172H141.225Z" fill="#EADEFF" stroke="#535353" stroke-linecap="round" stroke-linejoin="round"/>
<path d="M170.763 326.172C170.763 328.835 164.152 330.984 155.989 330.984C147.826 330.984 141.225 328.835 141.225 326.172C141.225 323.509 147.836 321.35 155.989 321.35C164.142 321.35 170.763 323.509 170.763 326.172Z" fill="white" stroke="#535353" stroke-linecap="round" stroke-linejoin="round"/>
<path d="M160.96 329.38C159.312 329.593 157.651 329.697 155.989 329.693C151.117 329.693 146.882 328.855 144.764 327.675" fill="white"/>
<path d="M160.96 329.38C159.312 329.593 157.651 329.697 155.989 329.693C151.117 329.693 146.882 328.855 144.764 327.675" stroke="#535353" stroke-linecap="round" stroke-linejoin="round"/>
<path d="M167.681 327.352C166.762 327.945 165.755 328.385 164.698 328.654L167.681 327.352Z" fill="white"/>
<path d="M167.681 327.352C166.762 327.945 165.755 328.385 164.698 328.654" stroke="#535353" stroke-linecap="round" stroke-linejoin="round"/>
</svg>
