<svg width="329" height="361" viewBox="0 0 329 361" fill="none" xmlns="http://www.w3.org/2000/svg">
<path d="M111.076 198.683V187.774H115.167C116.005 187.774 116.708 187.93 117.276 188.243C117.848 188.555 118.279 188.985 118.571 189.532C118.865 190.075 119.013 190.693 119.013 191.385C119.013 192.085 118.865 192.706 118.571 193.25C118.276 193.793 117.841 194.221 117.266 194.533C116.69 194.842 115.982 194.997 115.14 194.997H112.429V193.372H114.874C115.364 193.372 115.765 193.287 116.078 193.116C116.39 192.946 116.621 192.712 116.77 192.413C116.923 192.115 116.999 191.772 116.999 191.385C116.999 190.998 116.923 190.657 116.77 190.363C116.621 190.068 116.388 189.839 116.072 189.675C115.76 189.509 115.357 189.425 114.863 189.425H113.052V198.683H111.076ZM120.644 198.683V190.501H122.514V191.865H122.599C122.748 191.392 123.004 191.028 123.366 190.773C123.732 190.514 124.149 190.384 124.618 190.384C124.724 190.384 124.843 190.389 124.975 190.4C125.11 190.407 125.222 190.419 125.31 190.437V192.211C125.229 192.183 125.099 192.158 124.921 192.136C124.747 192.112 124.579 192.099 124.415 192.099C124.064 192.099 123.748 192.175 123.467 192.328C123.19 192.477 122.972 192.685 122.812 192.951C122.652 193.218 122.572 193.525 122.572 193.873V198.683H120.644ZM129.823 198.843C129.024 198.843 128.332 198.667 127.746 198.315C127.16 197.964 126.705 197.472 126.382 196.84C126.063 196.208 125.903 195.469 125.903 194.624C125.903 193.779 126.063 193.038 126.382 192.403C126.705 191.767 127.16 191.273 127.746 190.922C128.332 190.57 129.024 190.395 129.823 190.395C130.622 190.395 131.315 190.57 131.901 190.922C132.487 191.273 132.939 191.767 133.259 192.403C133.582 193.038 133.744 193.779 133.744 194.624C133.744 195.469 133.582 196.208 133.259 196.84C132.939 197.472 132.487 197.964 131.901 198.315C131.315 198.667 130.622 198.843 129.823 198.843ZM129.834 197.298C130.267 197.298 130.629 197.179 130.921 196.941C131.212 196.7 131.428 196.376 131.57 195.972C131.716 195.567 131.789 195.116 131.789 194.619C131.789 194.118 131.716 193.665 131.57 193.26C131.428 192.852 131.212 192.527 130.921 192.286C130.629 192.044 130.267 191.923 129.834 191.923C129.39 191.923 129.021 192.044 128.726 192.286C128.435 192.527 128.216 192.852 128.071 193.26C127.929 193.665 127.858 194.118 127.858 194.619C127.858 195.116 127.929 195.567 128.071 195.972C128.216 196.376 128.435 196.7 128.726 196.941C129.021 197.179 129.39 197.298 129.834 197.298ZM138.417 198.827C137.774 198.827 137.199 198.662 136.691 198.331C136.183 198.001 135.782 197.522 135.487 196.893C135.192 196.265 135.045 195.501 135.045 194.603C135.045 193.694 135.194 192.926 135.492 192.301C135.794 191.673 136.201 191.199 136.712 190.879C137.223 190.556 137.793 190.395 138.422 190.395C138.901 190.395 139.296 190.476 139.604 190.64C139.913 190.799 140.158 190.993 140.34 191.22C140.521 191.444 140.661 191.655 140.76 191.854H140.84V187.774H142.774V198.683H140.878V197.394H140.76C140.661 197.593 140.517 197.804 140.329 198.028C140.141 198.248 139.892 198.436 139.583 198.592C139.274 198.749 138.885 198.827 138.417 198.827ZM138.955 197.245C139.363 197.245 139.711 197.135 139.999 196.914C140.286 196.691 140.505 196.38 140.654 195.982C140.803 195.585 140.878 195.121 140.878 194.592C140.878 194.063 140.803 193.603 140.654 193.212C140.508 192.822 140.292 192.518 140.004 192.301C139.72 192.085 139.37 191.977 138.955 191.977C138.525 191.977 138.166 192.088 137.879 192.312C137.591 192.536 137.374 192.845 137.229 193.239C137.083 193.633 137.01 194.084 137.01 194.592C137.01 195.103 137.083 195.56 137.229 195.961C137.378 196.359 137.596 196.673 137.884 196.904C138.175 197.131 138.532 197.245 138.955 197.245ZM150.044 195.242V190.501H151.972V198.683H150.102V197.229H150.017C149.832 197.687 149.529 198.061 149.106 198.353C148.687 198.644 148.17 198.789 147.556 198.789C147.02 198.789 146.546 198.67 146.134 198.433C145.725 198.191 145.406 197.841 145.175 197.383C144.944 196.922 144.829 196.364 144.829 195.711V190.501H146.757V195.412C146.757 195.931 146.899 196.343 147.183 196.648C147.467 196.953 147.84 197.106 148.302 197.106C148.586 197.106 148.861 197.037 149.127 196.898C149.394 196.76 149.612 196.554 149.782 196.281C149.956 196.004 150.044 195.657 150.044 195.242ZM157.524 198.843C156.707 198.843 156.005 198.663 155.419 198.305C154.837 197.946 154.388 197.451 154.072 196.819C153.759 196.183 153.603 195.451 153.603 194.624C153.603 193.793 153.763 193.06 154.082 192.424C154.402 191.785 154.853 191.288 155.435 190.933C156.021 190.574 156.714 190.395 157.513 190.395C158.177 190.395 158.765 190.517 159.276 190.762C159.791 191.004 160.201 191.346 160.506 191.79C160.812 192.23 160.986 192.745 161.028 193.335H159.185C159.111 192.941 158.933 192.612 158.653 192.349C158.376 192.083 158.005 191.95 157.54 191.95C157.145 191.95 156.799 192.056 156.501 192.27C156.203 192.479 155.97 192.781 155.803 193.175C155.64 193.569 155.558 194.042 155.558 194.592C155.558 195.15 155.64 195.629 155.803 196.03C155.966 196.428 156.195 196.735 156.49 196.952C156.788 197.165 157.138 197.271 157.54 197.271C157.824 197.271 158.078 197.218 158.301 197.112C158.528 197.001 158.718 196.843 158.871 196.637C159.024 196.431 159.129 196.181 159.185 195.886H161.028C160.982 196.465 160.812 196.978 160.517 197.426C160.222 197.87 159.821 198.218 159.313 198.47C158.805 198.718 158.209 198.843 157.524 198.843ZM166.697 190.501V191.993H161.994V190.501H166.697ZM163.155 188.541H165.083V196.222C165.083 196.481 165.123 196.68 165.201 196.819C165.282 196.953 165.389 197.046 165.52 197.096C165.652 197.145 165.797 197.17 165.957 197.17C166.078 197.17 166.188 197.161 166.287 197.143C166.39 197.126 166.468 197.11 166.522 197.096L166.847 198.603C166.744 198.639 166.596 198.678 166.404 198.72C166.216 198.763 165.985 198.788 165.712 198.795C165.229 198.809 164.794 198.736 164.407 198.576C164.02 198.413 163.713 198.161 163.485 197.82C163.262 197.479 163.152 197.053 163.155 196.542V188.541ZM111.076 205.774H113.494L116.733 213.679H116.861L120.099 205.774H122.518V216.683H120.621V209.188H120.52L117.505 216.651H116.088L113.074 209.172H112.972V216.683H111.076V205.774ZM126.939 216.848C126.42 216.848 125.953 216.756 125.538 216.571C125.126 216.383 124.799 216.106 124.558 215.74C124.32 215.374 124.201 214.923 124.201 214.387C124.201 213.925 124.286 213.544 124.457 213.242C124.627 212.94 124.86 212.699 125.154 212.517C125.449 212.336 125.781 212.2 126.151 212.107C126.523 212.011 126.909 211.942 127.306 211.9C127.786 211.85 128.175 211.805 128.473 211.766C128.771 211.724 128.988 211.66 129.123 211.575C129.261 211.486 129.331 211.349 129.331 211.164V211.132C129.331 210.731 129.212 210.42 128.974 210.2C128.736 209.98 128.393 209.87 127.946 209.87C127.473 209.87 127.099 209.973 126.822 210.179C126.548 210.385 126.364 210.628 126.268 210.909L124.467 210.653C124.609 210.156 124.844 209.74 125.17 209.407C125.497 209.069 125.897 208.817 126.369 208.65C126.841 208.48 127.363 208.395 127.935 208.395C128.329 208.395 128.722 208.441 129.112 208.533C129.503 208.625 129.86 208.778 130.183 208.991C130.506 209.201 130.765 209.487 130.961 209.849C131.159 210.211 131.259 210.664 131.259 211.207V216.683H129.405V215.559H129.341C129.224 215.786 129.059 215.999 128.846 216.198C128.636 216.393 128.372 216.551 128.052 216.672C127.736 216.789 127.365 216.848 126.939 216.848ZM127.44 215.431C127.827 215.431 128.162 215.355 128.446 215.202C128.73 215.046 128.949 214.84 129.102 214.584C129.258 214.328 129.336 214.05 129.336 213.748V212.784C129.276 212.833 129.173 212.88 129.027 212.922C128.885 212.965 128.725 213.002 128.548 213.034C128.37 213.066 128.194 213.094 128.02 213.119C127.846 213.144 127.695 213.165 127.567 213.183C127.28 213.222 127.022 213.286 126.795 213.375C126.568 213.464 126.388 213.588 126.257 213.748C126.126 213.904 126.06 214.107 126.06 214.355C126.06 214.71 126.19 214.978 126.449 215.159C126.708 215.341 127.038 215.431 127.44 215.431ZM135.126 211.889V216.683H133.198V208.501H135.041V209.891H135.137C135.325 209.433 135.625 209.069 136.037 208.799C136.452 208.529 136.966 208.395 137.576 208.395C138.141 208.395 138.633 208.515 139.052 208.757C139.474 208.998 139.801 209.348 140.032 209.806C140.266 210.264 140.382 210.82 140.378 211.473V216.683H138.45V211.772C138.45 211.225 138.308 210.797 138.024 210.488C137.743 210.179 137.354 210.025 136.857 210.025C136.52 210.025 136.22 210.099 135.957 210.248C135.698 210.394 135.494 210.605 135.344 210.882C135.199 211.159 135.126 211.495 135.126 211.889ZM144.693 216.848C144.174 216.848 143.707 216.756 143.292 216.571C142.88 216.383 142.553 216.106 142.312 215.74C142.074 215.374 141.955 214.923 141.955 214.387C141.955 213.925 142.04 213.544 142.211 213.242C142.381 212.94 142.614 212.699 142.908 212.517C143.203 212.336 143.535 212.2 143.904 212.107C144.277 212.011 144.663 211.942 145.06 211.9C145.54 211.85 145.929 211.805 146.227 211.766C146.525 211.724 146.742 211.66 146.877 211.575C147.015 211.486 147.085 211.349 147.085 211.164V211.132C147.085 210.731 146.966 210.42 146.728 210.2C146.49 209.98 146.147 209.87 145.7 209.87C145.227 209.87 144.853 209.973 144.576 210.179C144.302 210.385 144.118 210.628 144.022 210.909L142.221 210.653C142.363 210.156 142.598 209.74 142.924 209.407C143.251 209.069 143.651 208.817 144.123 208.65C144.595 208.48 145.117 208.395 145.689 208.395C146.083 208.395 146.475 208.441 146.866 208.533C147.257 208.625 147.614 208.778 147.937 208.991C148.26 209.201 148.519 209.487 148.714 209.849C148.913 210.211 149.013 210.664 149.013 211.207V216.683H147.159V215.559H147.095C146.978 215.786 146.813 215.999 146.6 216.198C146.39 216.393 146.126 216.551 145.806 216.672C145.49 216.789 145.119 216.848 144.693 216.848ZM145.194 215.431C145.581 215.431 145.916 215.355 146.2 215.202C146.484 215.046 146.703 214.84 146.855 214.584C147.012 214.328 147.09 214.05 147.09 213.748V212.784C147.029 212.833 146.926 212.88 146.781 212.922C146.639 212.965 146.479 213.002 146.301 213.034C146.124 213.066 145.948 213.094 145.774 213.119C145.6 213.144 145.449 213.165 145.321 213.183C145.034 213.222 144.776 213.286 144.549 213.375C144.322 213.464 144.142 213.588 144.011 213.748C143.88 213.904 143.814 214.107 143.814 214.355C143.814 214.71 143.944 214.978 144.203 215.159C144.462 215.341 144.792 215.431 145.194 215.431ZM154.51 219.922C153.817 219.922 153.223 219.827 152.725 219.639C152.228 219.455 151.829 219.206 151.527 218.893C151.225 218.581 151.016 218.235 150.898 217.855L152.635 217.434C152.713 217.594 152.827 217.752 152.976 217.908C153.125 218.068 153.326 218.199 153.578 218.302C153.833 218.409 154.155 218.462 154.542 218.462C155.089 218.462 155.542 218.329 155.9 218.063C156.259 217.8 156.438 217.366 156.438 216.763V215.213H156.342C156.243 215.412 156.097 215.616 155.906 215.825C155.717 216.035 155.467 216.211 155.154 216.353C154.846 216.495 154.457 216.566 153.988 216.566C153.359 216.566 152.789 216.418 152.278 216.124C151.77 215.825 151.365 215.381 151.064 214.792C150.765 214.199 150.616 213.457 150.616 212.565C150.616 211.667 150.765 210.909 151.064 210.291C151.365 209.669 151.772 209.199 152.283 208.879C152.795 208.556 153.365 208.395 153.993 208.395C154.473 208.395 154.867 208.476 155.176 208.64C155.488 208.799 155.737 208.993 155.922 209.22C156.106 209.444 156.246 209.655 156.342 209.854H156.449V208.501H158.35V216.816C158.35 217.516 158.184 218.094 157.85 218.553C157.516 219.011 157.06 219.353 156.481 219.581C155.902 219.808 155.245 219.922 154.51 219.922ZM154.526 215.053C154.934 215.053 155.282 214.953 155.57 214.755C155.858 214.556 156.076 214.27 156.225 213.897C156.374 213.524 156.449 213.077 156.449 212.555C156.449 212.04 156.374 211.589 156.225 211.202C156.08 210.815 155.863 210.515 155.575 210.301C155.291 210.085 154.941 209.977 154.526 209.977C154.096 209.977 153.738 210.088 153.45 210.312C153.162 210.536 152.946 210.843 152.8 211.234C152.654 211.621 152.582 212.061 152.582 212.555C152.582 213.055 152.654 213.494 152.8 213.87C152.949 214.243 153.168 214.534 153.455 214.744C153.746 214.95 154.103 215.053 154.526 215.053ZM163.949 216.843C163.129 216.843 162.42 216.672 161.824 216.331C161.23 215.987 160.774 215.5 160.455 214.872C160.135 214.24 159.975 213.496 159.975 212.64C159.975 211.798 160.135 211.06 160.455 210.424C160.778 209.785 161.229 209.288 161.808 208.933C162.386 208.574 163.066 208.395 163.848 208.395C164.352 208.395 164.828 208.476 165.275 208.64C165.726 208.799 166.124 209.048 166.468 209.385C166.816 209.723 167.09 210.152 167.289 210.674C167.488 211.193 167.587 211.811 167.587 212.528V213.119H160.881V211.82H165.739C165.735 211.45 165.655 211.122 165.499 210.834C165.343 210.543 165.124 210.314 164.844 210.147C164.567 209.98 164.244 209.897 163.874 209.897C163.48 209.897 163.134 209.993 162.836 210.184C162.537 210.373 162.305 210.621 162.138 210.93C161.974 211.235 161.891 211.571 161.887 211.937V213.071C161.887 213.547 161.974 213.956 162.148 214.297C162.322 214.634 162.566 214.893 162.878 215.074C163.191 215.252 163.556 215.341 163.975 215.341C164.256 215.341 164.51 215.301 164.737 215.223C164.964 215.142 165.162 215.023 165.328 214.866C165.495 214.71 165.621 214.517 165.707 214.286L167.507 214.488C167.393 214.964 167.177 215.38 166.857 215.735C166.541 216.086 166.136 216.36 165.643 216.555C165.149 216.747 164.585 216.843 163.949 216.843ZM169.218 216.683V208.501H171.088V209.865H171.173C171.322 209.392 171.578 209.028 171.94 208.773C172.306 208.514 172.723 208.384 173.192 208.384C173.299 208.384 173.418 208.389 173.549 208.4C173.684 208.407 173.796 208.419 173.884 208.437V210.211C173.803 210.183 173.673 210.158 173.496 210.136C173.322 210.112 173.153 210.099 172.99 210.099C172.638 210.099 172.322 210.175 172.041 210.328C171.764 210.477 171.546 210.685 171.386 210.951C171.226 211.218 171.147 211.525 171.147 211.873V216.683H169.218Z" fill="#410EAD"/>
<path d="M99 221.619H107V229.605" stroke="#410EAD"/>
<rect x="1" y="131.546" width="98.0781" height="97.9091" fill="#FFC603" stroke="black"/>
<rect x="99.0781" y="229.455" width="130.771" height="130.545" fill="#FC7754" stroke="black"/>
<rect width="163.284" height="163.362" transform="matrix(0.602477 -0.798136 0.799134 0.601153 99.0781 131.323)" fill="#03A4FF" stroke="black"/>
<path d="M170.264 111.841V97.296H176.088C177.158 97.296 178.051 97.4546 178.766 97.7718C179.481 98.0891 180.018 98.5294 180.378 99.0929C180.738 99.6516 180.918 100.296 180.918 101.025C180.918 101.593 180.804 102.092 180.577 102.523C180.349 102.949 180.037 103.3 179.639 103.574C179.246 103.844 178.796 104.036 178.29 104.15V104.292C178.844 104.315 179.362 104.472 179.845 104.76C180.333 105.049 180.728 105.454 181.031 105.975C181.334 106.491 181.486 107.107 181.486 107.822C181.486 108.593 181.294 109.282 180.911 109.888C180.532 110.49 179.971 110.965 179.227 111.316C178.484 111.666 177.568 111.841 176.479 111.841H170.264ZM173.339 109.327H175.847C176.704 109.327 177.329 109.164 177.722 108.837C178.115 108.506 178.311 108.065 178.311 107.516C178.311 107.114 178.214 106.759 178.02 106.451C177.826 106.143 177.549 105.902 177.189 105.726C176.834 105.551 176.41 105.464 175.918 105.464H173.339V109.327ZM173.339 103.383H175.619C176.041 103.383 176.415 103.309 176.741 103.162C177.073 103.011 177.333 102.798 177.523 102.523C177.717 102.249 177.814 101.92 177.814 101.536C177.814 101.01 177.627 100.587 177.253 100.265C176.884 99.9428 176.358 99.7818 175.676 99.7818H173.339V103.383ZM190.426 107.197V100.932H193.451V111.841H190.547V109.86H190.433C190.187 110.499 189.777 111.013 189.204 111.401C188.636 111.789 187.942 111.983 187.123 111.983C186.394 111.983 185.752 111.818 185.199 111.486C184.645 111.155 184.211 110.684 183.899 110.073C183.591 109.462 183.435 108.731 183.43 107.878V100.932H186.456V107.339C186.46 107.983 186.633 108.492 186.974 108.866C187.315 109.24 187.772 109.427 188.345 109.427C188.709 109.427 189.05 109.344 189.368 109.178C189.685 109.008 189.94 108.757 190.135 108.425C190.333 108.094 190.431 107.684 190.426 107.197ZM204.948 104.043L202.178 104.214C202.131 103.977 202.029 103.764 201.873 103.574C201.717 103.38 201.511 103.226 201.255 103.113C201.004 102.994 200.703 102.935 200.353 102.935C199.884 102.935 199.489 103.035 199.167 103.233C198.845 103.428 198.684 103.688 198.684 104.015C198.684 104.275 198.788 104.495 198.996 104.675C199.205 104.855 199.562 105 200.069 105.108L202.043 105.506C203.104 105.724 203.895 106.074 204.415 106.557C204.936 107.04 205.197 107.675 205.197 108.461C205.197 109.176 204.986 109.803 204.565 110.343C204.148 110.883 203.575 111.304 202.846 111.607C202.121 111.905 201.286 112.054 200.339 112.054C198.895 112.054 197.744 111.754 196.887 111.153C196.035 110.546 195.535 109.723 195.388 108.681L198.364 108.525C198.454 108.965 198.672 109.301 199.018 109.533C199.363 109.76 199.806 109.874 200.346 109.874C200.876 109.874 201.302 109.772 201.624 109.569C201.951 109.36 202.117 109.093 202.121 108.766C202.117 108.492 202.001 108.267 201.773 108.091C201.546 107.912 201.196 107.774 200.722 107.679L198.833 107.303C197.768 107.09 196.975 106.721 196.454 106.195C195.938 105.67 195.68 105 195.68 104.185C195.68 103.484 195.869 102.881 196.248 102.374C196.631 101.867 197.169 101.477 197.86 101.202C198.556 100.928 199.371 100.79 200.303 100.79C201.681 100.79 202.765 101.081 203.556 101.664C204.352 102.246 204.816 103.039 204.948 104.043ZM207.102 111.841V100.932H210.127V111.841H207.102ZM208.622 99.5261C208.172 99.5261 207.786 99.3769 207.464 99.0786C207.147 98.7756 206.988 98.4134 206.988 97.992C206.988 97.5753 207.147 97.2179 207.464 96.9196C207.786 96.6165 208.172 96.465 208.622 96.465C209.072 96.465 209.455 96.6165 209.772 96.9196C210.094 97.2179 210.255 97.5753 210.255 97.992C210.255 98.4134 210.094 98.7756 209.772 99.0786C209.455 99.3769 209.072 99.5261 208.622 99.5261ZM215.577 105.535V111.841H212.551V100.932H215.435V102.857H215.562C215.804 102.223 216.209 101.721 216.777 101.351C217.345 100.977 218.034 100.79 218.844 100.79C219.601 100.79 220.262 100.956 220.825 101.287C221.389 101.619 221.827 102.092 222.139 102.708C222.452 103.319 222.608 104.048 222.608 104.895V111.841H219.582V105.435C219.587 104.768 219.417 104.247 219.071 103.873C218.725 103.494 218.25 103.304 217.643 103.304C217.236 103.304 216.876 103.392 216.564 103.567C216.256 103.742 216.015 103.998 215.839 104.334C215.669 104.666 215.581 105.066 215.577 105.535ZM229.964 112.054C228.842 112.054 227.876 111.827 227.066 111.373C226.261 110.913 225.641 110.265 225.206 109.427C224.77 108.584 224.552 107.587 224.552 106.437C224.552 105.314 224.77 104.33 225.206 103.482C225.641 102.635 226.254 101.974 227.045 101.501C227.841 101.027 228.773 100.79 229.843 100.79C230.563 100.79 231.233 100.906 231.853 101.138C232.478 101.366 233.023 101.709 233.487 102.168C233.956 102.627 234.32 103.205 234.581 103.901C234.841 104.592 234.971 105.402 234.971 106.33V107.161H225.76V105.286H232.123C232.123 104.85 232.029 104.465 231.839 104.128C231.65 103.792 231.387 103.529 231.051 103.34C230.719 103.146 230.333 103.049 229.893 103.049C229.434 103.049 229.027 103.155 228.672 103.368C228.321 103.577 228.047 103.858 227.848 104.214C227.649 104.564 227.547 104.955 227.542 105.385V107.168C227.542 107.708 227.642 108.174 227.841 108.567C228.044 108.96 228.331 109.263 228.7 109.476C229.069 109.689 229.507 109.796 230.014 109.796C230.35 109.796 230.658 109.749 230.937 109.654C231.217 109.559 231.456 109.417 231.654 109.228C231.853 109.038 232.005 108.806 232.109 108.532L234.907 108.716C234.765 109.389 234.474 109.976 234.034 110.478C233.598 110.975 233.035 111.363 232.343 111.643C231.657 111.917 230.864 112.054 229.964 112.054ZM246.022 104.043L243.252 104.214C243.205 103.977 243.103 103.764 242.947 103.574C242.791 103.38 242.585 103.226 242.329 103.113C242.078 102.994 241.778 102.935 241.427 102.935C240.958 102.935 240.563 103.035 240.241 103.233C239.919 103.428 239.758 103.688 239.758 104.015C239.758 104.275 239.862 104.495 240.071 104.675C240.279 104.855 240.636 105 241.143 105.108L243.118 105.506C244.178 105.724 244.969 106.074 245.49 106.557C246.011 107.04 246.271 107.675 246.271 108.461C246.271 109.176 246.06 109.803 245.639 110.343C245.222 110.883 244.649 111.304 243.92 111.607C243.196 111.905 242.36 112.054 241.413 112.054C239.969 112.054 238.818 111.754 237.961 111.153C237.109 110.546 236.609 109.723 236.463 108.681L239.439 108.525C239.529 108.965 239.746 109.301 240.092 109.533C240.438 109.76 240.88 109.874 241.42 109.874C241.95 109.874 242.377 109.772 242.699 109.569C243.025 109.36 243.191 109.093 243.196 108.766C243.191 108.492 243.075 108.267 242.848 108.091C242.62 107.912 242.27 107.774 241.797 107.679L239.907 107.303C238.842 107.09 238.049 106.721 237.528 106.195C237.012 105.67 236.754 105 236.754 104.185C236.754 103.484 236.943 102.881 237.322 102.374C237.706 101.867 238.243 101.477 238.934 101.202C239.63 100.928 240.445 100.79 241.377 100.79C242.755 100.79 243.84 101.081 244.63 101.664C245.426 102.246 245.89 103.039 246.022 104.043ZM257.253 104.043L254.483 104.214C254.436 103.977 254.334 103.764 254.178 103.574C254.021 103.38 253.815 103.226 253.56 103.113C253.309 102.994 253.008 102.935 252.658 102.935C252.189 102.935 251.794 103.035 251.472 103.233C251.15 103.428 250.989 103.688 250.989 104.015C250.989 104.275 251.093 104.495 251.301 104.675C251.509 104.855 251.867 105 252.374 105.108L254.348 105.506C255.409 105.724 256.199 106.074 256.72 106.557C257.241 107.04 257.501 107.675 257.501 108.461C257.501 109.176 257.291 109.803 256.869 110.343C256.453 110.883 255.88 111.304 255.151 111.607C254.426 111.905 253.59 112.054 252.643 112.054C251.199 112.054 250.049 111.754 249.192 111.153C248.339 110.546 247.84 109.723 247.693 108.681L250.669 108.525C250.759 108.965 250.977 109.301 251.322 109.533C251.668 109.76 252.111 109.874 252.651 109.874C253.181 109.874 253.607 109.772 253.929 109.569C254.256 109.36 254.421 109.093 254.426 108.766C254.421 108.492 254.305 108.267 254.078 108.091C253.851 107.912 253.5 107.774 253.027 107.679L251.138 107.303C250.072 107.09 249.279 106.721 248.759 106.195C248.242 105.67 247.984 105 247.984 104.185C247.984 103.484 248.174 102.881 248.553 102.374C248.936 101.867 249.473 101.477 250.165 101.202C250.861 100.928 251.675 100.79 252.608 100.79C253.986 100.79 255.07 101.081 255.861 101.664C256.656 102.246 257.12 103.039 257.253 104.043Z" fill="white"/>
<path d="M140.71 279.521V276.986H152.656V279.521H148.203V291.531H145.163V279.521H140.71ZM157.956 291.744C156.834 291.744 155.868 291.517 155.059 291.062C154.254 290.603 153.633 289.955 153.198 289.116C152.762 288.274 152.544 287.277 152.544 286.126C152.544 285.004 152.762 284.019 153.198 283.172C153.633 282.324 154.247 281.664 155.037 281.19C155.833 280.717 156.766 280.48 157.836 280.48C158.555 280.48 159.225 280.596 159.846 280.828C160.471 281.055 161.015 281.399 161.479 281.858C161.948 282.317 162.312 282.895 162.573 283.591C162.833 284.282 162.963 285.092 162.963 286.02V286.851H153.752V284.976H160.115C160.115 284.54 160.021 284.154 159.831 283.818C159.642 283.482 159.379 283.219 159.043 283.03C158.712 282.836 158.326 282.739 157.885 282.739C157.426 282.739 157.019 282.845 156.664 283.058C156.313 283.267 156.039 283.548 155.84 283.903C155.641 284.254 155.539 284.644 155.534 285.075V286.858C155.534 287.398 155.634 287.864 155.833 288.257C156.036 288.65 156.323 288.953 156.692 289.166C157.061 289.379 157.499 289.486 158.006 289.486C158.342 289.486 158.65 289.438 158.929 289.344C159.209 289.249 159.448 289.107 159.647 288.918C159.846 288.728 159.997 288.496 160.101 288.222L162.9 288.406C162.757 289.079 162.466 289.666 162.026 290.168C161.59 290.665 161.027 291.053 160.336 291.332C159.649 291.607 158.856 291.744 157.956 291.744ZM169.867 291.744C168.749 291.744 167.788 291.508 166.983 291.034C166.183 290.556 165.568 289.893 165.137 289.045C164.711 288.198 164.498 287.223 164.498 286.119C164.498 285.002 164.713 284.022 165.144 283.179C165.579 282.331 166.197 281.671 166.998 281.197C167.798 280.719 168.749 280.48 169.853 280.48C170.804 280.48 171.638 280.653 172.353 280.999C173.068 281.344 173.633 281.83 174.05 282.455C174.467 283.08 174.696 283.813 174.739 284.656H171.884C171.803 284.112 171.59 283.674 171.245 283.342C170.904 283.006 170.456 282.838 169.902 282.838C169.434 282.838 169.024 282.966 168.674 283.222C168.328 283.473 168.058 283.839 167.864 284.322C167.67 284.805 167.573 285.39 167.573 286.077C167.573 286.773 167.667 287.365 167.857 287.852C168.051 288.34 168.323 288.712 168.674 288.967C169.024 289.223 169.434 289.351 169.902 289.351C170.248 289.351 170.558 289.28 170.833 289.138C171.112 288.996 171.342 288.79 171.522 288.52C171.706 288.245 171.827 287.916 171.884 287.533H174.739C174.692 288.366 174.464 289.1 174.057 289.734C173.655 290.364 173.098 290.857 172.388 291.212C171.678 291.567 170.837 291.744 169.867 291.744ZM179.702 285.224V291.531H176.676V276.986H179.616V282.547H179.744C179.991 281.903 180.388 281.399 180.938 281.034C181.487 280.665 182.176 280.48 183.004 280.48C183.762 280.48 184.422 280.646 184.986 280.977C185.554 281.304 185.994 281.775 186.307 282.391C186.624 283.001 186.78 283.733 186.776 284.585V291.531H183.75V285.125C183.755 284.453 183.584 283.929 183.239 283.555C182.898 283.181 182.42 282.994 181.804 282.994C181.392 282.994 181.027 283.082 180.71 283.257C180.398 283.432 180.152 283.688 179.972 284.024C179.796 284.356 179.706 284.756 179.702 285.224Z" fill="white"/>
<path d="M46.2486 163.182H49.3239V172.628C49.3239 173.689 49.0705 174.617 48.5639 175.412C48.062 176.208 47.3589 176.828 46.4545 177.273C45.5502 177.713 44.4967 177.934 43.294 177.934C42.0866 177.934 41.0308 177.713 40.1264 177.273C39.2221 176.828 38.5189 176.208 38.017 175.412C37.5152 174.617 37.2642 173.689 37.2642 172.628V163.182H40.3395V172.365C40.3395 172.919 40.4602 173.412 40.7017 173.843C40.9479 174.274 41.2936 174.612 41.7386 174.858C42.1837 175.105 42.7022 175.228 43.294 175.228C43.8906 175.228 44.4091 175.105 44.8494 174.858C45.2945 174.612 45.6378 174.274 45.8793 173.843C46.1255 173.412 46.2486 172.919 46.2486 172.365V163.182ZM54.7376 163.182L57.6708 168.14H57.7844L60.7319 163.182H64.2049L59.766 170.455L64.3043 177.728H60.7674L57.7844 172.763H57.6708L54.6879 177.728H51.1651L55.7177 170.455L51.2504 163.182H54.7376Z" fill="white"/>
<path d="M37.7393 194.31C37.7393 192.989 37.915 191.772 38.2666 190.661C38.6217 189.549 39.1633 188.52 39.8912 187.571H42.0592C41.7822 187.923 41.5248 188.353 41.2868 188.86C41.0489 189.365 40.8412 189.919 40.6636 190.522C40.4861 191.126 40.3476 191.751 40.2481 192.397C40.1487 193.04 40.099 193.678 40.099 194.31C40.099 195.151 40.1842 196.002 40.3547 196.861C40.5287 197.717 40.7631 198.512 41.0578 199.248C41.3561 199.983 41.6899 200.585 42.0592 201.053H39.8912C39.1633 200.105 38.6217 199.075 38.2666 197.964C37.915 196.852 37.7393 195.634 37.7393 194.31ZM45.7093 198.837C45.1873 198.837 44.7221 198.747 44.3137 198.566C43.9054 198.381 43.5822 198.109 43.3443 197.751C43.1099 197.389 42.9927 196.938 42.9927 196.398C42.9927 195.943 43.0762 195.561 43.2431 195.252C43.41 194.944 43.6373 194.695 43.9249 194.507C44.2125 194.319 44.5392 194.176 44.905 194.081C45.2743 193.985 45.6614 193.917 46.0662 193.878C46.5421 193.828 46.9256 193.782 47.2168 193.74C47.508 193.694 47.7193 193.626 47.8507 193.537C47.9821 193.449 48.0478 193.317 48.0478 193.143V193.111C48.0478 192.774 47.9412 192.513 47.7282 192.328C47.5186 192.143 47.2203 192.051 46.8333 192.051C46.4249 192.051 46.1 192.142 45.8585 192.323C45.617 192.5 45.4572 192.724 45.3791 192.994L43.2804 192.824C43.3869 192.326 43.5964 191.897 43.9089 191.534C44.2214 191.169 44.6245 190.888 45.1181 190.693C45.6152 190.494 46.1905 190.395 46.8439 190.395C47.2985 190.395 47.7335 190.448 48.149 190.554C48.568 190.661 48.9391 190.826 49.2623 191.05C49.589 191.273 49.8464 191.561 50.0346 191.913C50.2228 192.261 50.3169 192.678 50.3169 193.164V198.683H48.165V197.548H48.101C47.9696 197.804 47.7939 198.029 47.5737 198.225C47.3535 198.417 47.089 198.567 46.78 198.678C46.4711 198.784 46.1142 198.837 45.7093 198.837ZM46.3592 197.271C46.693 197.271 46.9877 197.206 47.2434 197.074C47.4991 196.939 47.6998 196.758 47.8453 196.531C47.9909 196.304 48.0637 196.046 48.0637 195.759V194.89C47.9927 194.936 47.8951 194.979 47.7708 195.018C47.65 195.054 47.5133 195.087 47.3606 195.119C47.2079 195.148 47.0552 195.174 46.9025 195.199C46.7498 195.221 46.6113 195.24 46.487 195.258C46.2207 195.297 45.9881 195.359 45.7892 195.444C45.5904 195.529 45.4359 195.645 45.3258 195.79C45.2157 195.933 45.1607 196.11 45.1607 196.323C45.1607 196.632 45.2725 196.868 45.4963 197.032C45.7235 197.191 46.0112 197.271 46.3592 197.271ZM51.8271 193.228V192.051L54.4212 189.979C54.62 189.816 54.7923 189.668 54.9379 189.537C55.0835 189.406 55.1971 189.272 55.2788 189.137C55.3604 189.002 55.4013 188.853 55.4013 188.69C55.4013 188.434 55.2965 188.237 55.087 188.099C54.8775 187.96 54.6236 187.891 54.3253 187.891C54.0057 187.891 53.7482 187.969 53.5529 188.125C53.3612 188.278 53.2653 188.5 53.2653 188.791H51.6939C51.6939 188.109 51.9425 187.575 52.4396 187.188C52.9368 186.797 53.5724 186.602 54.3466 186.602C54.8757 186.602 55.3356 186.694 55.7262 186.879C56.1168 187.06 56.4187 187.307 56.6317 187.619C56.8484 187.932 56.9567 188.282 56.9567 188.669C56.9567 188.981 56.891 189.272 56.7596 189.542C56.6317 189.809 56.4329 190.071 56.163 190.331C55.8967 190.586 55.5522 190.854 55.1296 191.135L54.1815 191.838V191.897H57.0312V193.228H51.8271ZM62.2594 194.31C62.2594 195.634 62.0819 196.852 61.7267 197.964C61.3752 199.075 60.8354 200.105 60.1074 201.053H57.9395C58.2164 200.702 58.4739 200.272 58.7118 199.764C58.9498 199.256 59.1575 198.702 59.335 198.102C59.5126 197.499 59.6511 196.874 59.7505 196.227C59.85 195.581 59.8997 194.942 59.8997 194.31C59.8997 193.468 59.8127 192.619 59.6387 191.764C59.4682 190.904 59.2338 190.109 58.9355 189.377C58.6408 188.642 58.3088 188.04 57.9395 187.571H60.1074C60.8354 188.52 61.3752 189.549 61.7267 190.661C62.0819 191.772 62.2594 192.989 62.2594 194.31Z" fill="white"/>
<path d="M201.822 128.423C201.822 127.102 201.998 125.886 202.349 124.775C202.704 123.663 203.246 122.633 203.974 121.685H206.142C205.865 122.037 205.607 122.466 205.369 122.974C205.131 123.478 204.924 124.032 204.746 124.636C204.569 125.24 204.43 125.865 204.331 126.511C204.231 127.154 204.182 127.791 204.182 128.423C204.182 129.265 204.267 130.116 204.437 130.975C204.611 131.831 204.846 132.626 205.14 133.361C205.439 134.096 205.772 134.698 206.142 135.167H203.974C203.246 134.219 202.704 133.189 202.349 132.078C201.998 130.966 201.822 129.748 201.822 128.423ZM207.501 132.797V121.888H209.771V125.989H209.84C209.939 125.769 210.083 125.545 210.271 125.318C210.463 125.087 210.712 124.895 211.017 124.743C211.326 124.586 211.709 124.508 212.168 124.508C212.764 124.508 213.315 124.665 213.819 124.977C214.323 125.286 214.726 125.753 215.028 126.378C215.33 126.999 215.481 127.779 215.481 128.716C215.481 129.629 215.333 130.4 215.039 131.028C214.747 131.653 214.35 132.127 213.845 132.45C213.345 132.77 212.784 132.93 212.162 132.93C211.722 132.93 211.347 132.857 211.038 132.711C210.733 132.566 210.483 132.383 210.287 132.163C210.092 131.939 209.943 131.714 209.84 131.486H209.739V132.797H207.501ZM209.723 128.706C209.723 129.192 209.79 129.617 209.925 129.979C210.06 130.341 210.255 130.623 210.511 130.826C210.767 131.025 211.077 131.124 211.443 131.124C211.812 131.124 212.125 131.023 212.381 130.82C212.636 130.614 212.83 130.33 212.961 129.968C213.096 129.602 213.164 129.182 213.164 128.706C213.164 128.233 213.098 127.818 212.967 127.459C212.835 127.101 212.642 126.82 212.386 126.618C212.13 126.415 211.816 126.314 211.443 126.314C211.074 126.314 210.761 126.412 210.506 126.607C210.254 126.802 210.06 127.079 209.925 127.438C209.79 127.797 209.723 128.219 209.723 128.706ZM216.745 127.342V126.165L219.339 124.093C219.538 123.929 219.71 123.782 219.855 123.651C220.001 123.519 220.115 123.386 220.196 123.251C220.278 123.116 220.319 122.967 220.319 122.804C220.319 122.548 220.214 122.351 220.004 122.212C219.795 122.074 219.541 122.005 219.243 122.005C218.923 122.005 218.666 122.083 218.47 122.239C218.279 122.392 218.183 122.614 218.183 122.905H216.611C216.611 122.223 216.86 121.689 217.357 121.302C217.854 120.911 218.49 120.716 219.264 120.716C219.793 120.716 220.253 120.808 220.644 120.993C221.034 121.174 221.336 121.421 221.549 121.733C221.766 122.046 221.874 122.395 221.874 122.782C221.874 123.095 221.808 123.386 221.677 123.656C221.549 123.922 221.35 124.185 221.08 124.444C220.814 124.7 220.47 124.968 220.047 125.249L219.099 125.952V126.01H221.949V127.342H216.745ZM227.177 128.423C227.177 129.748 226.999 130.966 226.644 132.078C226.293 133.189 225.753 134.219 225.025 135.167H222.857C223.134 134.815 223.391 134.386 223.629 133.878C223.867 133.37 224.075 132.816 224.253 132.216C224.43 131.612 224.569 130.987 224.668 130.341C224.767 129.695 224.817 129.056 224.817 128.423C224.817 127.582 224.73 126.733 224.556 125.877C224.386 125.018 224.151 124.222 223.853 123.491C223.558 122.756 223.226 122.154 222.857 121.685H225.025C225.753 122.633 226.293 123.663 226.644 124.775C226.999 125.886 227.177 127.102 227.177 128.423Z" fill="white"/>
<path d="M151.725 308.113C151.725 306.792 151.9 305.576 152.252 304.464C152.607 303.353 153.149 302.323 153.877 301.375H156.045C155.768 301.726 155.51 302.156 155.272 302.664C155.034 303.168 154.827 303.722 154.649 304.326C154.471 304.93 154.333 305.555 154.233 306.201C154.134 306.844 154.084 307.481 154.084 308.113C154.084 308.955 154.17 309.805 154.34 310.665C154.514 311.521 154.748 312.316 155.043 313.051C155.341 313.786 155.675 314.388 156.045 314.857H153.877C153.149 313.909 152.607 312.879 152.252 311.767C151.9 310.656 151.725 309.438 151.725 308.113ZM160.985 312.646C160.147 312.646 159.426 312.469 158.822 312.114C158.222 311.755 157.761 311.258 157.438 310.622C157.118 309.986 156.958 309.255 156.958 308.427C156.958 307.589 157.12 306.854 157.443 306.222C157.77 305.587 158.233 305.091 158.833 304.736C159.433 304.377 160.147 304.198 160.974 304.198C161.688 304.198 162.313 304.328 162.849 304.587C163.386 304.846 163.81 305.21 164.123 305.679C164.435 306.148 164.607 306.698 164.639 307.33H162.498C162.438 306.922 162.278 306.593 162.018 306.345C161.763 306.093 161.427 305.967 161.012 305.967C160.66 305.967 160.353 306.062 160.09 306.254C159.831 306.442 159.629 306.718 159.483 307.08C159.337 307.442 159.265 307.881 159.265 308.396C159.265 308.918 159.336 309.361 159.478 309.727C159.623 310.093 159.827 310.372 160.09 310.563C160.353 310.755 160.66 310.851 161.012 310.851C161.271 310.851 161.504 310.798 161.71 310.691C161.919 310.585 162.091 310.43 162.226 310.228C162.365 310.022 162.455 309.775 162.498 309.487H164.639C164.604 310.112 164.433 310.663 164.128 311.139C163.826 311.611 163.409 311.98 162.876 312.247C162.343 312.513 161.713 312.646 160.985 312.646ZM165.842 307.032V305.855L168.436 303.783C168.635 303.619 168.807 303.472 168.953 303.34C169.098 303.209 169.212 303.076 169.293 302.941C169.375 302.806 169.416 302.657 169.416 302.494C169.416 302.238 169.311 302.041 169.102 301.902C168.892 301.764 168.638 301.695 168.34 301.695C168.02 301.695 167.763 301.773 167.568 301.929C167.376 302.082 167.28 302.304 167.28 302.595H165.709C165.709 301.913 165.957 301.378 166.454 300.991C166.951 300.601 167.587 300.405 168.361 300.405C168.89 300.405 169.35 300.498 169.741 300.682C170.131 300.864 170.433 301.11 170.646 301.423C170.863 301.735 170.971 302.085 170.971 302.472C170.971 302.785 170.906 303.076 170.774 303.346C170.646 303.612 170.448 303.875 170.178 304.134C169.911 304.39 169.567 304.658 169.144 304.938L168.196 305.642V305.7H171.046V307.032H165.842ZM176.274 308.113C176.274 309.438 176.097 310.656 175.741 311.767C175.39 312.879 174.85 313.909 174.122 314.857H171.954C172.231 314.505 172.489 314.076 172.726 313.568C172.964 313.06 173.172 312.506 173.35 311.906C173.527 311.302 173.666 310.677 173.765 310.031C173.865 309.385 173.914 308.745 173.914 308.113C173.914 307.272 173.827 306.423 173.653 305.567C173.483 304.708 173.248 303.912 172.95 303.181C172.655 302.446 172.323 301.844 171.954 301.375H174.122C174.85 302.323 175.39 303.353 175.741 304.464C176.097 305.576 176.274 306.792 176.274 308.113Z" fill="white"/>
</svg>
