<svg width="18" height="20" viewBox="0 0 18 20" fill="none" xmlns="http://www.w3.org/2000/svg">
<path fill-rule="evenodd" clip-rule="evenodd" d="M4.34047 0.0382422C3.67526 0.156406 3.14847 0.424141 2.69335 0.875352C2.11482 1.44895 1.87512 1.99016 1.84275 2.79598C1.8271 3.18551 1.83806 3.32285 1.90569 3.58398C2.06732 4.20785 2.45949 4.81012 2.93742 5.16844L3.15564 5.33203L3.14459 5.56641L3.13355 5.80078L2.72873 5.81187L2.32387 5.82293L2.2552 6.25949C2.1578 6.87891 2.13255 7.60531 2.19066 8.11863L2.23976 8.55273L1.11387 10.5113C0.4946 11.5885 -0.0065776 12.4736 6.5282e-05 12.4783C0.00674818 12.4829 0.565831 12.6084 1.24248 12.757L2.47274 13.0273L2.47302 15.0684L2.47326 17.1094H4.13398H5.7947V18.5547V20H9.75642H13.7181L13.7193 17.7441L13.7205 15.4883L13.9494 15.3259C14.2591 15.1061 14.8365 14.5868 15.1469 14.2489C16.2219 13.0787 16.9387 11.6167 17.2191 10.0221C17.3778 9.11934 17.3916 7.25891 17.2468 6.28906L17.1796 5.83984L16.8459 5.82844C16.6041 5.8202 16.5176 5.80402 16.5322 5.76984C16.5433 5.74391 16.8781 4.96289 17.2762 4.0343L18 2.34594V1.1925C18 0.558125 17.9908 0.0390625 17.9796 0.0390625C17.9683 0.0390625 17.5377 0.347734 17.0226 0.724961L16.086 1.41086L15.1177 3.61559L14.1494 5.82031H13.3789H12.6083L12.3073 5.18555L12.0063 4.55078L12.312 4.52355C12.8204 4.47828 13.1087 4.35914 13.3673 4.08734C13.6504 3.78988 13.7181 3.50574 13.7181 2.61527V1.95312H14.0383H14.3584V0.976562V0H13.378H12.3976V0.976562V1.95312H12.7177H13.0378V2.68953C13.0378 3.38891 13.0333 3.43242 12.9478 3.55508C12.7642 3.81836 12.6847 3.84766 12.1534 3.84766H11.6747L11.2585 2.96875L10.8423 2.08984L11.347 1.84188L11.8518 1.59391L10.2739 0.932617C9.40603 0.568945 8.65922 0.26207 8.61433 0.250703C8.53857 0.231523 8.50572 0.322734 8.15501 1.52586L7.77732 2.82168L7.73066 2.52715C7.57343 1.53437 6.98818 0.741602 6.09815 0.315742C5.92024 0.230625 5.66665 0.133281 5.53459 0.0994141C5.24122 0.0242188 4.60342 -0.0084375 4.34047 0.0382422ZM5.53187 0.775C6.2533 1.02867 6.80362 1.60187 7.01655 2.32137C7.16233 2.81406 7.08402 3.48262 6.82459 3.9598C6.66444 4.25437 6.26991 4.66824 6.00055 4.82422L5.79822 4.94141L5.78646 5.37109L5.77469 5.80078L5.44455 5.81211L5.11441 5.82348V4.83406V3.84461L5.31985 3.70941C6.13397 3.17371 5.76213 1.95176 4.78554 1.95352C4.36232 1.95426 3.98872 2.22086 3.85334 2.61875C3.71224 3.03344 3.87187 3.45598 4.26544 3.70953L4.47545 3.8448L4.4648 4.82281L4.45412 5.80078L4.12398 5.81211L3.79383 5.82348V5.39367V4.96387L3.54909 4.8016C2.89908 4.37074 2.54265 3.7816 2.48743 3.04688C2.40979 2.01324 3.1185 1.04164 4.174 0.734727C4.50918 0.637305 5.1984 0.657695 5.53187 0.775ZM13.7181 0.976562V1.28906H13.378H13.0378V0.976562V0.664062H13.378H13.7181V0.976562ZM9.63049 1.36574C9.96387 1.50457 10.2366 1.62988 10.2366 1.64422C10.2366 1.65852 10.1826 1.69207 10.1166 1.71875C10.0505 1.74543 9.99652 1.78379 9.99652 1.80395C9.99652 1.83504 10.8142 3.59523 10.9237 3.79984C10.9587 3.86508 10.9235 3.86855 10.3328 3.85844L9.70468 3.84766L9.4318 3.26172C9.28169 2.93945 9.10414 2.55672 9.03723 2.41121L8.91558 2.14668L8.79204 2.20902C8.72409 2.24332 8.66031 2.2634 8.6503 2.25359C8.62269 2.22664 8.9646 1.08973 8.99653 1.1023C9.01182 1.10836 9.2971 1.22688 9.63049 1.36574ZM17.3597 1.52344C17.3597 1.63086 17.3423 1.71875 17.3211 1.71875C17.2653 1.71875 16.9994 1.59121 17.0006 1.56504C17.0019 1.53715 17.2893 1.33152 17.3297 1.32957C17.3462 1.32879 17.3597 1.41602 17.3597 1.52344ZM16.8989 2.23527C17.0863 2.32598 17.2397 2.41066 17.2397 2.42348C17.2397 2.43625 16.9174 3.20137 16.5234 4.12375L15.8072 5.80078L15.3429 5.8118C15.0876 5.81785 14.8786 5.81449 14.8786 5.80437C14.8786 5.79426 15.2214 5.00957 15.6403 4.06063C16.0592 3.11168 16.4274 2.27566 16.4586 2.20277C16.4897 2.12992 16.5249 2.07031 16.5367 2.07031C16.5485 2.07031 16.7115 2.14453 16.8989 2.23527ZM5.02437 2.71848C5.2435 2.95789 4.99035 3.30484 4.67486 3.1975C4.53423 3.14965 4.47413 3.06074 4.47413 2.90066C4.47413 2.60609 4.81744 2.49246 5.02437 2.71848ZM8.79792 3.46109C8.90693 3.68891 8.99609 3.87996 8.99609 3.88562C8.99609 3.89133 8.92438 3.90535 8.8367 3.91684C8.60732 3.94688 8.35837 4.07574 8.16001 4.26711C7.8574 4.55906 7.75555 4.86211 7.75555 5.47066V5.82031H7.09527H6.43498V5.57117V5.32199L6.65619 5.15543C7.08214 4.83465 7.53074 4.16355 7.64114 3.68207L7.68968 3.47031L8.11279 3.26062C8.34549 3.14527 8.55026 3.05 8.56783 3.04891C8.58543 3.04777 8.68896 3.23328 8.79792 3.46109ZM9.58919 5.15148C9.74722 5.49262 9.87647 5.78266 9.87647 5.79602C9.87647 5.80938 9.55233 5.82031 9.15616 5.82031H8.43585V5.39641C8.43585 5.02016 8.44609 4.95766 8.52685 4.8407C8.67127 4.63145 8.85527 4.53125 9.09489 4.53125H9.30194L9.58919 5.15148ZM11.5518 5.13344C11.7088 5.46461 11.8373 5.75512 11.8373 5.77898C11.8373 5.80934 11.6546 5.8191 11.2282 5.81156L10.6191 5.80078L10.3307 5.19531C10.172 4.8623 10.0409 4.57664 10.0394 4.56055C10.0378 4.54445 10.3132 4.53125 10.6514 4.53125H11.2663L11.5518 5.13344ZM16.6286 6.55273C16.6456 6.6118 16.6591 7.29297 16.6587 8.06641C16.658 9.57832 16.6419 9.74559 16.4161 10.5859C15.9452 12.3385 14.7957 13.9725 13.3319 14.9702L13.0378 15.1706V17.2533V19.3359H9.73641H6.43498V17.8906V16.4453H4.79463H3.15427L3.14391 14.4824L3.13355 12.5195L2.08125 12.2832C1.50248 12.1532 1.02791 12.0336 1.02659 12.0173C1.02531 12.0009 1.4511 11.246 1.9728 10.3395L2.92133 8.69141L2.87515 8.31109C2.82357 7.88648 2.81469 7.12981 2.85639 6.71676L2.88376 6.44531H9.74081H16.5979L16.6286 6.55273ZM3.81484 7.62695C3.93021 8.45699 4.58674 9.0227 5.43454 9.02254C6.32997 9.02242 6.98102 8.45727 7.08734 7.58789L7.10767 7.42188H6.77677H6.44586L6.42117 7.59777C6.34354 8.15063 5.84212 8.47188 5.23294 8.3591C4.8192 8.2825 4.53315 8.00023 4.48741 7.62336L4.46296 7.42188H4.12466H3.78631L3.81484 7.62695Z" fill="black"/>
</svg>
