<svg width="391" height="301" viewBox="0 0 391 301" fill="none" xmlns="http://www.w3.org/2000/svg">
<path d="M314.017 164.378C311.61 162.439 308.839 161.001 305.868 160.15C302.897 159.298 299.785 159.049 296.716 159.417C293.647 159.786 290.683 160.765 287.998 162.296C285.313 163.828 282.962 165.881 281.082 168.335C281.664 169.26 282.226 170.198 282.767 171.148C284.386 168.756 286.499 166.739 288.965 165.234C291.43 163.73 294.19 162.772 297.058 162.426C299.925 162.08 302.834 162.354 305.587 163.229C308.339 164.103 310.872 165.559 313.014 167.498C313.305 166.458 313.643 165.418 314.017 164.378Z" fill="#CAD8DE"/>
<path d="M97.8643 176.394C97.7031 175.12 97.4846 173.841 97.2246 172.588L98.2647 172.375C98.53 173.654 98.7484 174.974 98.9148 176.264L97.8643 176.394Z" fill="white"/>
<path d="M39.9444 231.264C37.4456 230.761 34.9892 230.065 32.5972 229.185L32.9507 228.207C35.294 229.064 37.7 229.738 40.1472 230.224L39.9444 231.264ZM25.6815 226.039C23.4558 224.802 21.3265 223.4 19.3118 221.843L19.9462 221.016C21.9183 222.544 24.0042 223.919 26.1859 225.129L25.6815 226.039ZM13.6285 216.721C11.8737 214.872 10.264 212.89 8.81356 210.794L9.67151 210.206C11.0931 212.255 12.6679 214.193 14.3825 216.004L13.6285 216.721ZM4.96575 204.206C3.85428 201.912 2.92247 199.536 2.17869 197.098L3.17184 196.797C3.90795 199.182 4.82758 201.506 5.9225 203.749L4.96575 204.206ZM0.519974 189.647C0.179796 187.307 0.00603494 184.946 0 182.581V182.056H1.03995V182.576C1.04082 184.893 1.20414 187.208 1.52872 189.502L0.519974 189.647ZM1.71071 174.605L0.670767 174.434C1.08419 171.92 1.69267 169.443 2.49068 167.024L3.47862 167.352C2.70293 169.72 2.11186 172.146 1.71071 174.605ZM95.1344 165.418C94.2523 163.087 93.1918 160.827 91.9626 158.658L92.8673 158.138C94.1226 160.355 95.2056 162.666 96.1068 165.049L95.1344 165.418ZM6.37488 160.463L5.44933 159.989C6.60995 157.724 7.94328 155.551 9.43753 153.49L10.2799 154.098C8.8196 156.117 7.5142 158.242 6.37488 160.457V160.463ZM87.7872 152.455C86.2376 150.5 84.5429 148.665 82.7175 146.965L83.4246 146.206C85.2988 147.938 87.0372 149.812 88.6244 151.811L87.7872 152.455ZM15.1156 148.4L14.3721 147.667C16.1652 145.856 18.0948 144.185 20.1438 142.67L20.7626 143.507C18.7575 144.991 16.8696 146.626 15.1156 148.4ZM76.8677 142.311C74.8091 140.914 72.6467 139.676 70.3993 138.609L70.8413 137.668C73.1436 138.758 75.3599 140.022 77.4709 141.448L76.8677 142.311ZM27.0906 139.529L26.6071 138.609C28.8639 137.424 31.2091 136.416 33.6215 135.593L33.9543 136.576C31.5951 137.386 29.3006 138.373 27.0906 139.529ZM63.3952 135.952C61.0027 135.242 58.5583 134.721 56.0844 134.392L56.2248 133.352C58.7489 133.677 61.2438 134.198 63.6864 134.912L63.3952 135.952ZM41.1923 134.741L41.0103 133.701C43.5184 133.262 46.0563 133.015 48.602 132.962V134.002C46.117 134.061 43.64 134.308 41.1923 134.741Z" fill="white"/>
<path d="M49.6574 232.211C48.9709 232.211 48.2688 232.211 47.5771 232.169L47.6188 231.129C48.9085 231.186 50.219 231.186 51.4776 231.129L51.5192 232.169C50.9003 232.2 50.2763 232.211 49.6574 232.211Z" fill="white"/>
<path d="M366.737 214.377L366.342 213.415C367.529 212.926 368.69 212.378 369.821 211.771L370.31 212.692C369.148 213.313 367.955 213.875 366.737 214.377Z" fill="white"/>
<path d="M376.571 208.516L375.91 207.71C377.804 206.166 379.545 204.444 381.11 202.568L381.906 203.234C380.302 205.162 378.515 206.932 376.571 208.516ZM386.159 197.025L385.249 196.505C386.429 194.363 387.399 192.111 388.145 189.782L389.139 190.1C388.371 192.499 387.374 194.818 386.159 197.025ZM390.73 182.774L389.69 182.649C389.867 181.16 389.955 179.661 389.955 178.162C389.955 177.22 389.919 176.269 389.851 175.333L390.891 175.255C390.964 176.217 391 177.194 391 178.162C390.999 179.703 390.908 181.243 390.73 182.774ZM388.65 168.116C387.995 165.752 387.116 163.455 386.024 161.258L386.955 160.8C388.07 163.052 388.965 165.406 389.627 167.83L388.65 168.116ZM316.373 164.211L315.406 163.832C316.325 161.495 317.467 159.252 318.817 157.135L319.696 157.691C318.38 159.752 317.267 161.935 316.373 164.211ZM382.161 155.06C380.674 153.117 379.008 151.319 377.184 149.689L377.876 148.914C379.751 150.585 381.463 152.43 382.987 154.426L382.161 155.06ZM324.204 151.94L323.45 151.228C325.18 149.406 327.079 147.754 329.123 146.294L329.732 147.136C327.742 148.554 325.891 150.157 324.204 151.925V151.94ZM371.277 145.384C369.174 144.135 366.956 143.09 364.653 142.264L365.001 141.287C367.368 142.131 369.647 143.202 371.808 144.484L371.277 145.384ZM336.07 143.476L335.638 142.54C337.925 141.498 340.307 140.681 342.752 140.101L342.991 141.11C340.614 141.671 338.297 142.458 336.07 143.46V143.476ZM357.555 140.46C355.136 140.102 352.688 139.971 350.245 140.07L350.203 139.03C352.711 138.927 355.223 139.061 357.706 139.43L357.555 140.46Z" fill="white"/>
<path d="M313.856 175.12L312.815 175.042C312.919 173.732 313.091 172.411 313.335 171.121L314.376 171.309C314.126 172.562 313.954 173.846 313.856 175.12Z" fill="white"/>
<path d="M53.0626 237.202H52.0225C52.0225 235.897 52.1005 234.571 52.1993 233.276L53.2394 233.354C53.1406 234.618 53.0834 235.918 53.0626 237.202Z" fill="#72BCC5"/>
<path d="M118.756 301L118.694 299.96C121.311 299.808 123.916 299.492 126.493 299.014L126.681 300.054C124.062 300.537 121.415 300.853 118.756 301ZM110.79 300.969C108.138 300.787 105.5 300.44 102.892 299.929L103.089 298.889C105.655 299.387 108.25 299.724 110.858 299.898L110.79 300.969ZM134.387 298.078L134.064 297.085C136.549 296.283 138.981 295.325 141.344 294.215L141.786 295.156C139.381 296.283 136.908 297.259 134.381 298.078H134.387ZM95.1858 297.922C92.665 297.082 90.199 296.085 87.8022 294.937L88.2494 293.996C90.6117 295.128 93.043 296.109 95.529 296.934L95.1858 297.922ZM148.774 291.313L148.218 290.435C150.425 289.033 152.54 287.493 154.551 285.823L155.217 286.623C153.169 288.321 151.015 289.888 148.769 291.313H148.774ZM80.8553 291.043C78.6242 289.6 76.4864 288.018 74.4545 286.306L75.1252 285.511C77.1231 287.202 79.2263 288.765 81.4221 290.19L80.8553 291.043ZM161.02 281.164L160.261 280.457C162.046 278.546 163.712 276.527 165.247 274.41L166.089 275.018C164.528 277.17 162.833 279.223 161.015 281.164H161.02ZM68.6984 280.805C66.8961 278.85 65.2185 276.783 63.6754 274.618L64.523 274.015C66.0399 276.144 67.6898 278.176 69.4627 280.098L68.6984 280.805ZM59.4792 267.848C58.2211 265.505 57.1131 263.084 56.1618 260.6L57.1341 260.231C58.0695 262.673 59.1584 265.054 60.3944 267.359L59.4792 267.848ZM53.7959 252.988C53.1699 250.406 52.7096 247.787 52.418 245.147L53.4579 245.032C53.7419 247.637 54.19 250.221 54.7995 252.769L53.7959 252.988Z" fill="#72BCC5"/>
<path d="M170.359 268.248L169.449 267.728C170.063 266.6 170.651 265.441 171.191 264.276L172.138 264.718C171.587 265.919 170.989 267.099 170.359 268.248Z" fill="#72BCC5"/>
<path d="M147.07 185.067C145.978 184.401 144.844 183.762 143.705 183.169L144.189 182.248C145.343 182.852 146.498 183.502 147.611 184.178L147.07 185.067Z" fill="#72BCC5"/>
<path d="M136.155 179.841C133.569 178.906 130.923 178.144 128.236 177.559L128.454 176.519C131.189 177.113 133.882 177.89 136.514 178.843L136.155 179.841ZM120.077 176.337C117.332 176.117 114.576 176.077 111.825 176.217L111.773 175.177C114.569 175.037 117.371 175.078 120.161 175.302L120.077 176.337Z" fill="#72BCC5"/>
<path d="M99.8505 178.016L99.5957 177.007C100.859 176.69 102.149 176.409 103.439 176.17L103.626 177.21C102.362 177.424 101.078 177.704 99.8505 178.016Z" fill="#72BCC5"/>
<path d="M270.288 264.453C269.487 263.413 268.728 262.337 268 261.25L268.868 260.678C269.571 261.718 270.33 262.8 271.115 263.798L270.288 264.453Z" fill="#72BCC5"/>
<path d="M310.398 285.739C307.802 285.584 305.22 285.245 302.671 284.726L302.879 283.686C305.381 284.196 307.917 284.529 310.466 284.684L310.398 285.739ZM318.198 285.667L318.114 284.627C320.657 284.424 323.182 284.04 325.67 283.478L325.904 284.518C323.365 285.082 320.79 285.466 318.198 285.667ZM295.168 282.615C292.719 281.733 290.336 280.677 288.039 279.453L288.523 278.533C290.777 279.737 293.114 280.779 295.516 281.653L295.168 282.615ZM333.37 282.23L332.996 281.257C335.381 280.343 337.697 279.258 339.927 278.013L340.447 278.923C338.169 280.19 335.804 281.295 333.37 282.23ZM281.43 275.314C279.33 273.776 277.341 272.093 275.477 270.276L276.199 269.533C278.029 271.314 279.982 272.964 282.044 274.472L281.43 275.314ZM346.947 274.649L346.313 273.822C348.343 272.274 350.263 270.585 352.058 268.768L352.797 269.496C350.973 271.348 349.022 273.07 346.957 274.649H346.947ZM357.866 263.574L357.029 262.955C358.545 260.903 359.914 258.747 361.127 256.503L362.042 257.023C360.809 259.303 359.415 261.492 357.872 263.574H357.866ZM365.224 249.889L364.252 249.535C365.129 247.138 365.834 244.681 366.363 242.183L367.403 242.396C366.855 244.942 366.127 247.446 365.224 249.889ZM368.443 234.675L367.403 234.607C367.486 233.422 367.522 232.21 367.522 231.009C367.522 229.663 367.476 228.295 367.372 226.959L368.412 226.881C368.51 228.248 368.562 229.637 368.562 231.009C368.583 232.231 368.541 233.469 368.463 234.675H368.443Z" fill="#72BCC5"/>
<path d="M366.264 219.342C365.989 218.089 365.661 216.83 365.297 215.609L366.295 215.307C366.665 216.56 366.997 217.839 367.284 219.118L366.264 219.342Z" fill="#72BCC5"/>
<path d="M276.829 121.41L276.382 120.468C277.568 119.901 278.779 119.371 279.991 118.908L280.371 119.875C279.159 120.328 277.968 120.848 276.829 121.41Z" fill="#EC8558"/>
<path d="M262.125 131.756L261.392 131.018C263.572 128.86 265.927 126.886 268.432 125.116L269.03 125.969C266.571 127.703 264.262 129.638 262.125 131.756Z" fill="#EC8558"/>
<path d="M254.149 141.844L253.265 141.324C253.946 140.206 254.679 139.098 255.438 138.037L256.281 138.64C255.537 139.665 254.82 140.747 254.149 141.844Z" fill="#EC8558"/>
<path d="M343.791 138.599C342.292 136.505 340.647 134.521 338.867 132.661L339.616 131.943C341.433 133.838 343.111 135.86 344.639 137.995L343.791 138.599ZM333.137 127.461C331.112 125.887 328.976 124.46 326.747 123.192L327.267 122.288C329.547 123.586 331.73 125.05 333.797 126.666L333.137 127.461ZM319.769 119.844C319.311 119.662 318.853 119.49 318.391 119.324L318.744 118.346C319.212 118.518 319.68 118.69 320.148 118.866L319.769 119.844Z" fill="white"/>
<path d="M308.807 177.439L308.714 176.399C310.009 176.279 311.314 176.207 312.646 176.181V177.221C311.377 177.252 310.108 177.325 308.807 177.439Z" fill="#72BCC5"/>
<path d="M296.889 179.909L296.588 178.937C298.557 178.29 300.56 177.753 302.588 177.33L302.802 178.37C300.803 178.77 298.829 179.284 296.889 179.909Z" fill="#72BCC5"/>
<path d="M287.774 183.892L287.254 182.982C288.398 182.348 289.579 181.749 290.764 181.203L291.201 182.15C290.052 182.686 288.892 183.273 287.774 183.892Z" fill="#72BCC5"/>
<path d="M285.326 182.186C284.879 180.985 284.39 179.779 283.875 178.598L284.832 178.182C285.352 179.384 285.872 180.605 286.298 181.822L285.326 182.186Z" fill="#EC8558"/>
<path d="M154.558 173.472L153.643 172.983C154.924 170.58 156.339 168.25 157.88 166.005L158.738 166.593C157.219 168.807 155.823 171.103 154.558 173.472ZM280.251 171.392C278.908 169.06 277.438 166.803 275.847 164.633L276.684 164.019C278.301 166.21 279.792 168.491 281.151 170.851L280.251 171.392ZM163.662 160.218L162.877 159.537C164.662 157.479 166.559 155.521 168.561 153.672L169.268 154.436C167.294 156.258 165.423 158.189 163.662 160.218ZM270.715 158.456C268.889 156.487 266.955 154.621 264.922 152.866L265.603 152.076C267.664 153.858 269.625 155.752 271.479 157.748L270.715 158.456ZM175.476 149.325L174.863 148.488C177.06 146.876 179.344 145.387 181.706 144.027L182.226 144.932C179.896 146.27 177.643 147.737 175.476 149.325ZM258.547 147.958C256.334 146.444 254.037 145.055 251.668 143.798L252.157 142.878C254.563 144.156 256.898 145.566 259.15 147.1L258.547 147.958ZM189.391 141.313L188.98 140.361C191.479 139.276 194.038 138.333 196.644 137.538L196.951 138.531C194.39 139.316 191.874 140.245 189.417 141.313H189.391ZM244.336 140.413C241.84 139.428 239.29 138.584 236.698 137.886L236.968 136.883C239.596 137.593 242.183 138.449 244.716 139.446L244.336 140.413ZM204.772 136.623L204.584 135.583C207.263 135.085 209.968 134.738 212.686 134.543L212.758 135.583C210.088 135.781 207.43 136.129 204.798 136.623H204.772ZM228.82 136.233C226.166 135.83 223.491 135.575 220.808 135.468L220.849 134.429C223.576 134.535 226.294 134.794 228.992 135.203L228.82 136.233Z" fill="#EC8558"/>
<path d="M149.831 184.443L148.843 184.115C149.259 182.878 149.711 181.635 150.19 180.423L151.157 180.808C150.684 182.004 150.237 183.226 149.831 184.443Z" fill="#EC8558"/>
<path d="M285.326 182.186C284.879 180.985 284.39 179.779 283.875 178.598L284.832 178.182C285.352 179.384 285.872 180.605 286.298 181.822L285.326 182.186Z" fill="#EC8558"/>
<path d="M154.558 173.472L153.643 172.983C154.924 170.58 156.339 168.25 157.88 166.005L158.738 166.593C157.219 168.807 155.823 171.103 154.558 173.472ZM280.251 171.392C278.908 169.06 277.438 166.803 275.847 164.633L276.684 164.019C278.301 166.21 279.792 168.491 281.151 170.851L280.251 171.392ZM163.662 160.218L162.877 159.537C164.662 157.479 166.559 155.521 168.561 153.672L169.268 154.436C167.294 156.258 165.423 158.189 163.662 160.218ZM270.715 158.456C268.889 156.487 266.955 154.621 264.922 152.866L265.603 152.076C267.664 153.858 269.625 155.752 271.479 157.748L270.715 158.456ZM175.476 149.325L174.863 148.488C177.06 146.876 179.344 145.387 181.706 144.027L182.226 144.932C179.896 146.27 177.643 147.737 175.476 149.325ZM258.547 147.958C256.334 146.444 254.037 145.055 251.668 143.798L252.157 142.878C254.563 144.156 256.898 145.566 259.15 147.1L258.547 147.958ZM189.391 141.313L188.98 140.361C191.479 139.276 194.038 138.333 196.644 137.538L196.951 138.531C194.39 139.316 191.874 140.245 189.417 141.313H189.391ZM244.336 140.413C241.84 139.428 239.29 138.584 236.698 137.886L236.968 136.883C239.596 137.593 242.183 138.449 244.716 139.446L244.336 140.413ZM204.772 136.623L204.584 135.583C207.263 135.085 209.968 134.738 212.686 134.543L212.758 135.583C210.088 135.781 207.43 136.129 204.798 136.623H204.772ZM228.82 136.233C226.166 135.83 223.491 135.575 220.808 135.468L220.849 134.429C223.576 134.535 226.294 134.794 228.992 135.203L228.82 136.233Z" fill="#EC8558"/>
<path d="M149.831 184.443L148.843 184.115C149.259 182.878 149.711 181.635 150.19 180.423L151.157 180.808C150.684 182.004 150.237 183.226 149.831 184.443Z" fill="#EC8558"/>
<path d="M317.735 156.812C317.308 156.5 316.877 156.199 316.435 155.913L317.584 153.168C317.88 152.462 318.033 151.706 318.037 150.941C318.04 150.176 317.892 149.418 317.603 148.71C317.313 148.002 316.887 147.359 316.348 146.816C315.81 146.272 315.169 145.841 314.464 145.545C313.759 145.249 313.002 145.096 312.237 145.092C311.472 145.089 310.714 145.237 310.006 145.526C309.299 145.816 308.655 146.242 308.112 146.781C307.569 147.319 307.137 147.959 306.841 148.665L305.666 151.462C301.353 150.55 296.897 150.55 292.584 151.462L291.544 148.966C291.254 148.258 290.828 147.614 290.289 147.071C289.751 146.527 289.111 146.095 288.405 145.799C287.7 145.503 286.943 145.349 286.178 145.346C285.413 145.342 284.655 145.49 283.947 145.779C283.239 146.069 282.595 146.495 282.051 147.033C281.508 147.572 281.076 148.212 280.78 148.917C280.484 149.623 280.33 150.379 280.326 151.144C280.323 151.909 280.47 152.668 280.759 153.376L281.799 155.913C279.583 157.35 277.557 159.06 275.768 161.003C277.154 162.688 278.459 164.435 279.683 166.244C283.878 161.127 289.894 157.834 296.466 157.058C303.038 156.283 309.655 158.084 314.927 162.085C315.73 160.26 316.668 158.497 317.735 156.812Z" fill="#CAD8DE"/>
<path d="M176.073 266.892C175.002 266.138 173.946 265.332 172.927 264.546L173.566 263.73C174.575 264.52 175.615 265.29 176.687 266.044L176.073 266.892Z" fill="#EC8558"/>
<path d="M217.125 280.129C214.697 280.129 212.248 279.952 209.845 279.687L209.96 278.647C212.344 278.913 214.741 279.059 217.141 279.084L217.125 280.129ZM224.405 279.854L224.311 278.814C226.702 278.605 229.082 278.275 231.44 277.826L231.632 278.866C229.272 279.287 226.838 279.64 224.42 279.854H224.405ZM202.628 278.517C200.247 278.01 197.894 277.382 195.577 276.635L195.894 275.642C198.177 276.378 200.496 277 202.841 277.503L202.628 278.517ZM238.725 277.134L238.428 276.136C240.729 275.454 242.994 274.656 245.214 273.744L245.609 274.706C243.384 275.647 241.065 276.443 238.74 277.134H238.725ZM188.755 274.046C186.526 273.073 184.348 271.986 182.229 270.791L182.749 269.886C184.829 271.056 186.998 272.138 189.182 273.094L188.755 274.046ZM252.192 271.602L251.703 270.687C253.783 269.564 255.863 268.316 257.87 266.985L258.447 267.848C256.439 269.203 254.363 270.456 252.228 271.602H252.192Z" fill="#EC8558"/>
<path d="M264.35 263.486L263.689 262.685C264.678 261.869 265.655 261.016 266.607 260.142L267.309 260.907C266.342 261.791 265.348 262.649 264.35 263.486Z" fill="#EC8558"/>
<path d="M332.524 67.1469C332.527 61.4473 331.058 55.8435 328.259 50.8782C325.461 45.9128 321.428 41.754 316.551 38.8044C311.673 35.8548 306.117 34.2142 300.42 34.0416C294.723 33.869 289.077 35.1702 284.031 37.8191C278.984 40.4681 274.706 44.3751 271.612 49.162C268.518 53.9488 266.713 59.4533 266.37 65.1426C266.028 70.8319 267.16 76.5133 269.658 81.6367C272.155 86.7601 275.933 91.1519 280.625 94.3871C281.298 94.8246 281.855 95.418 282.248 96.1169C282.642 96.8157 282.861 97.5994 282.887 98.4011V111.551C282.887 113.895 283.819 116.143 285.476 117.801C287.134 119.459 289.383 120.39 291.727 120.39H307.16C309.504 120.39 311.752 119.459 313.41 117.801C315.068 116.143 315.999 113.895 315.999 111.551V98.3803C316.025 97.5786 316.244 96.7949 316.638 96.0961C317.032 95.3972 317.589 94.8038 318.261 94.3663C322.665 91.3229 326.263 87.2558 328.748 82.5145C331.232 77.7732 332.528 72.4996 332.524 67.1469Z" fill="#EC8558"/>
<path d="M302.22 65.2648L300.083 68.3949V51.4705L293.989 64.3808H289.018V67.4745H289.07V107.703H292.044V67.4745H295.465L297.337 63.7985V77.2548L303.868 68.1245H306.738V107.703H309.718V68.1245H309.739V65.2648H302.22Z" fill="white"/>
<path d="M308.547 122.08C308.547 123.975 307.985 125.828 306.932 127.404C305.879 128.979 304.382 130.208 302.631 130.933C300.88 131.658 298.953 131.848 297.094 131.478C295.235 131.109 293.528 130.196 292.188 128.856C290.847 127.516 289.935 125.808 289.565 123.949C289.195 122.09 289.385 120.164 290.11 118.413C290.836 116.662 292.064 115.165 293.64 114.112C295.216 113.059 297.069 112.497 298.964 112.497C301.506 112.497 303.943 113.507 305.74 115.304C307.537 117.101 308.547 119.538 308.547 122.08Z" fill="#596273"/>
<path d="M282.871 104.204V118.814C282.877 120.482 283.544 122.079 284.727 123.255C285.909 124.431 287.511 125.089 289.178 125.085H309.66C310.486 125.087 311.304 124.927 312.067 124.612C312.831 124.298 313.525 123.837 314.11 123.255C314.695 122.673 315.16 121.981 315.478 121.219C315.796 120.457 315.96 119.64 315.962 118.814V104.204H282.871Z" fill="#596273"/>
<path d="M317.386 104.719C317.386 105.671 316.445 106.435 315.306 106.435H283.728C282.564 106.435 281.648 105.671 281.648 104.719C281.648 103.778 282.59 103.008 283.728 103.008H315.306C316.466 103.008 317.386 103.778 317.386 104.719Z" fill="#72BCC5"/>
<path d="M317.386 111.728C317.386 112.674 316.445 113.439 315.306 113.439H283.728C282.564 113.439 281.648 112.674 281.648 111.728C281.648 110.776 282.59 110.012 283.728 110.012H315.306C316.466 110.012 317.386 110.776 317.386 111.728Z" fill="#72BCC5"/>
<path d="M317.386 118.726C317.386 119.678 316.445 120.443 315.306 120.443H283.728C282.564 120.443 281.648 119.678 281.648 118.726C281.648 117.785 282.59 117.015 283.728 117.015H315.306C316.466 117.015 317.386 117.785 317.386 118.726Z" fill="#72BCC5"/>
<path d="M331.281 35.8095C331.031 36.1083 330.724 36.3547 330.378 36.5348C330.032 36.7149 329.654 36.8251 329.266 36.8591C328.877 36.8932 328.486 36.8504 328.114 36.7332C327.742 36.616 327.397 36.4267 327.098 36.1761C326.799 35.9255 326.553 35.6185 326.373 35.2727C326.193 34.9269 326.082 34.5489 326.048 34.1605C326.014 33.7721 326.057 33.3808 326.174 33.0089C326.292 32.637 326.481 32.2918 326.732 31.9931L339.507 16.7637C340.022 16.186 340.741 15.8314 341.513 15.7754C342.284 15.7193 343.048 15.966 343.64 16.4633C344.233 16.9605 344.608 17.6691 344.687 18.4387C344.766 19.2083 344.542 19.9783 344.062 20.5854L331.281 35.8095Z" fill="#EC8558"/>
<path d="M345.856 65.1243C345.089 65.2403 344.307 65.0522 343.677 64.6C343.047 64.1478 342.618 63.4674 342.482 62.7037C342.347 61.9401 342.515 61.1537 342.951 60.5122C343.387 59.8707 344.056 59.4248 344.816 59.2696L364.393 55.8172C364.777 55.7489 365.171 55.7569 365.552 55.8408C365.933 55.9247 366.293 56.0828 366.613 56.3061C366.933 56.5294 367.206 56.8136 367.416 57.1423C367.626 57.471 367.769 57.8379 367.838 58.2219C367.906 58.606 367.898 58.9998 367.814 59.3808C367.73 59.7617 367.572 60.1224 367.349 60.4423C367.125 60.7622 366.841 61.0349 366.512 61.245C366.184 61.4551 365.817 61.5983 365.433 61.6666L345.856 65.1243Z" fill="#EC8558"/>
<path d="M251.787 59.2696C252.18 59.329 252.557 59.4664 252.895 59.6736C253.234 59.8809 253.528 60.1538 253.759 60.4764C253.99 60.7989 254.155 61.1645 254.243 61.5516C254.331 61.9387 254.34 62.3396 254.271 62.7304C254.202 63.1213 254.055 63.4943 253.839 63.8275C253.623 64.1606 253.342 64.4472 253.014 64.6703C252.686 64.8934 252.316 65.0485 251.927 65.1265C251.537 65.2045 251.136 65.2037 250.747 65.1243L231.17 61.6666C230.395 61.5287 229.706 61.0883 229.255 60.4423C229.031 60.1225 228.873 59.7617 228.789 59.3808C228.705 58.9998 228.697 58.606 228.766 58.2219C228.834 57.8379 228.977 57.471 229.187 57.1423C229.397 56.8136 229.67 56.5294 229.99 56.3061C230.636 55.8552 231.435 55.6793 232.21 55.8172L251.787 59.2696Z" fill="#EC8558"/>
<path d="M269.882 31.9931C270.133 32.2918 270.322 32.637 270.439 33.0088C270.557 33.3807 270.599 33.7721 270.565 34.1605C270.531 34.5489 270.421 34.9268 270.241 35.2727C270.061 35.6185 269.814 35.9255 269.516 36.1761C269.217 36.4267 268.872 36.616 268.5 36.7332C268.128 36.8504 267.737 36.8932 267.348 36.8591C266.96 36.8251 266.582 36.7149 266.236 36.5348C265.89 36.3547 265.583 36.1082 265.333 35.8095L252.552 20.5853C252.045 19.982 251.798 19.2021 251.867 18.4172C251.935 17.6322 252.312 16.9065 252.916 16.3997C253.519 15.8929 254.299 15.6466 255.084 15.7149C255.869 15.7831 256.595 16.1604 257.101 16.7637L269.882 31.9931Z" fill="#EC8558"/>
<path d="M301.269 22.7327C301.237 23.4993 300.91 24.2238 300.356 24.7549C299.802 25.286 299.065 25.5825 298.297 25.5825C297.53 25.5825 296.792 25.286 296.238 24.7549C295.684 24.2238 295.357 23.4993 295.325 22.7327V2.84979C295.357 2.0832 295.684 1.35867 296.238 0.827593C296.792 0.296519 297.53 0 298.297 0C299.065 0 299.802 0.296519 300.356 0.827593C300.91 1.35867 301.237 2.0832 301.269 2.84979V22.7327Z" fill="#EC8558"/>
<path d="M82.8785 265.248L80.0551 268.368C79.6208 268.846 79.2849 269.405 79.0666 270.013C78.8483 270.62 78.7518 271.265 78.7827 271.91C78.8136 272.555 78.9713 273.188 79.2467 273.772C79.5221 274.356 79.9099 274.88 80.3879 275.314C80.8658 275.749 81.4247 276.085 82.0325 276.303C82.6403 276.521 83.2851 276.618 83.9302 276.587C84.5753 276.556 85.2079 276.398 85.7921 276.123C86.3762 275.847 86.9004 275.46 87.3347 274.982L90.0802 271.961C93.49 274.458 97.2572 276.427 101.254 277.8L100.402 281.725C100.239 282.365 100.208 283.031 100.308 283.683C100.409 284.335 100.64 284.96 100.987 285.521C101.334 286.082 101.791 286.567 102.33 286.947C102.869 287.328 103.479 287.596 104.124 287.736C104.769 287.875 105.435 287.884 106.083 287.761C106.731 287.637 107.348 287.385 107.896 287.018C108.445 286.651 108.914 286.177 109.275 285.626C109.637 285.074 109.883 284.455 110 283.805L110.853 279.88C115.058 280.291 119.3 280.063 123.436 279.204L124.679 283.093C125.101 284.302 125.978 285.298 127.123 285.87C128.268 286.442 129.592 286.544 130.811 286.155C132.031 285.766 133.051 284.917 133.654 283.787C134.256 282.658 134.395 281.338 134.039 280.108L132.76 276.11C136.549 274.337 140.054 272.01 143.159 269.205L146.404 272.164C146.882 272.598 147.441 272.934 148.048 273.152C148.656 273.37 149.301 273.467 149.946 273.436C150.591 273.405 151.224 273.247 151.808 272.972C152.392 272.697 152.916 272.309 153.351 271.831C153.785 271.353 154.121 270.794 154.339 270.186C154.557 269.578 154.654 268.934 154.623 268.289C154.592 267.644 154.434 267.011 154.159 266.427C153.884 265.843 153.496 265.319 153.018 264.884L149.638 261.811C151.97 258.422 153.791 254.708 155.041 250.788L159.767 251.828C160.4 251.974 161.056 251.992 161.696 251.882C162.336 251.772 162.948 251.536 163.497 251.188C164.045 250.839 164.519 250.386 164.89 249.853C165.262 249.32 165.524 248.719 165.662 248.084C165.8 247.449 165.81 246.794 165.692 246.155C165.574 245.516 165.331 244.907 164.976 244.363C164.621 243.819 164.162 243.351 163.625 242.985C163.088 242.62 162.483 242.365 161.847 242.235L156.912 241.159C157.223 237.141 156.95 233.098 156.101 229.158L161.155 227.547C162.372 227.131 163.377 226.254 163.955 225.105C164.533 223.957 164.637 222.627 164.246 221.402C163.855 220.177 162.999 219.155 161.862 218.554C160.725 217.953 159.398 217.821 158.166 218.187L152.929 219.857C151.223 216.286 149.027 212.971 146.404 210.009L150.22 205.818C150.655 205.34 150.991 204.781 151.209 204.173C151.427 203.566 151.524 202.921 151.493 202.276C151.462 201.631 151.304 200.998 151.029 200.414C150.753 199.83 150.366 199.306 149.888 198.871C149.41 198.437 148.851 198.101 148.243 197.883C147.635 197.665 146.99 197.568 146.345 197.599C145.7 197.63 145.067 197.788 144.483 198.063C143.899 198.338 143.375 198.726 142.941 199.204L139.057 203.468C135.848 201.224 132.34 199.442 128.636 198.175L129.884 192.455C130.086 191.805 130.15 191.119 130.072 190.443C129.995 189.766 129.778 189.113 129.434 188.525C129.091 187.937 128.629 187.427 128.079 187.027C127.528 186.626 126.9 186.345 126.234 186.2C125.569 186.056 124.881 186.051 124.213 186.186C123.546 186.322 122.914 186.594 122.357 186.987C121.801 187.379 121.332 187.883 120.981 188.467C120.63 189.05 120.403 189.7 120.317 190.375L119.069 196.095C115.169 195.708 111.235 195.867 107.38 196.568L105.601 191.051C105.415 190.425 105.106 189.842 104.691 189.336C104.277 188.831 103.766 188.413 103.188 188.107C102.61 187.802 101.977 187.615 101.326 187.557C100.675 187.499 100.019 187.572 99.396 187.77C98.7733 187.969 98.1966 188.291 97.6996 188.715C97.2025 189.14 96.7952 189.659 96.5015 190.243C96.2078 190.827 96.0335 191.464 95.9889 192.116C95.9443 192.768 96.0303 193.422 96.2418 194.041L97.9682 199.448C94.3459 201.045 90.9674 203.146 87.9327 205.688L83.8665 201.991C83.3885 201.557 82.8296 201.221 82.2218 201.003C81.614 200.784 80.9692 200.688 80.3241 200.719C79.0213 200.781 77.7967 201.359 76.9196 202.324C76.0425 203.289 75.5849 204.563 75.6473 205.866C75.7097 207.169 76.2871 208.393 77.2524 209.27L81.173 212.842C78.7672 216.072 76.8407 219.632 75.4533 223.413L70.5135 222.337C69.874 222.174 69.2084 222.143 68.5563 222.243C67.9043 222.344 67.2791 222.575 66.7182 222.922C66.1573 223.269 65.6721 223.726 65.2915 224.265C64.9109 224.804 64.6428 225.414 64.503 226.059C64.3633 226.704 64.3549 227.37 64.4782 228.018C64.6016 228.666 64.8542 229.283 65.221 229.831C65.5879 230.38 66.0614 230.848 66.6133 231.21C67.1652 231.571 67.7843 231.818 68.4336 231.935L73.1602 232.975C72.6618 237.06 72.7704 241.197 73.4826 245.251L69.1304 246.639C68.4998 246.822 67.9121 247.129 67.4021 247.542C66.892 247.955 66.47 248.467 66.1609 249.046C65.8518 249.625 65.6618 250.26 65.6023 250.914C65.5428 251.568 65.6149 252.227 65.8144 252.852C66.0138 253.477 66.3366 254.057 66.7636 254.555C67.1906 255.054 67.7132 255.462 68.3005 255.755C68.8879 256.048 69.528 256.221 70.1832 256.263C70.8383 256.305 71.4952 256.215 72.1151 255.998L76.3009 254.662C77.9601 258.495 80.1765 262.063 82.8785 265.248ZM92.0613 214.007C96.6268 209.442 102.443 206.334 108.776 205.075C115.108 203.816 121.671 204.462 127.636 206.933C133.6 209.404 138.699 213.588 142.285 218.956C145.872 224.323 147.787 230.634 147.787 237.09C147.787 243.546 145.872 249.857 142.285 255.225C138.699 260.593 133.6 264.777 127.636 267.248C121.671 269.718 115.108 270.365 108.776 269.106C102.443 267.847 96.6268 264.738 92.0613 260.174C89.0262 257.143 86.6181 253.544 84.9746 249.583C83.3311 245.621 82.4844 241.375 82.483 237.086C82.4815 232.797 83.3253 228.55 84.9662 224.587C86.607 220.624 89.0126 217.024 92.0457 213.991L92.0613 214.007ZM135.63 216.607C131.579 212.556 126.417 209.798 120.798 208.68C115.179 207.563 109.354 208.137 104.061 210.329C98.7685 212.522 94.2445 216.234 91.0617 220.998C87.8788 225.761 86.1799 231.361 86.1799 237.09C86.1799 242.819 87.8788 248.419 91.0617 253.183C94.2445 257.946 98.7685 261.659 104.061 263.852C109.354 266.044 115.179 266.618 120.798 265.5C126.417 264.383 131.579 261.624 135.63 257.574C138.321 254.883 140.456 251.687 141.912 248.171C143.368 244.654 144.117 240.885 144.115 237.079C144.114 233.273 143.362 229.505 141.904 225.989C140.445 222.474 138.308 219.28 135.614 216.591L135.63 216.607ZM133.03 254.974C129.493 258.511 124.986 260.919 120.08 261.895C115.174 262.871 110.089 262.37 105.468 260.455C100.846 258.541 96.8966 255.3 94.1176 251.141C91.3386 246.982 89.8553 242.092 89.8553 237.09C89.8553 232.088 91.3386 227.199 94.1176 223.04C96.8966 218.881 100.846 215.639 105.468 213.725C110.089 211.811 115.174 211.31 120.08 212.286C124.986 213.261 129.493 215.67 133.03 219.207C137.765 223.952 140.424 230.382 140.421 237.086C140.418 243.789 137.754 250.218 133.014 254.958L133.03 254.974Z" fill="#72BCC5"/>
<path d="M273.189 212.822C274.695 212.776 276.123 212.147 277.172 211.066C278.221 209.985 278.808 208.538 278.808 207.032C278.808 205.526 278.221 204.079 277.172 202.998C276.123 201.917 274.695 201.287 273.189 201.242H267.469C267.016 196.418 265.852 191.688 264.017 187.204L268.697 184.505C269.355 184.125 269.932 183.619 270.395 183.016C270.857 182.413 271.197 181.725 271.393 180.991C271.59 180.257 271.64 179.491 271.541 178.738C271.442 177.984 271.195 177.257 270.815 176.599C270.435 175.941 269.93 175.364 269.327 174.901C268.724 174.439 268.035 174.099 267.301 173.902C266.567 173.706 265.801 173.655 265.048 173.755C264.294 173.854 263.568 174.1 262.909 174.48L258.427 177.08C255.553 173.075 252.101 169.518 248.184 166.525L250.653 162.241C251.421 160.911 251.629 159.332 251.231 157.849C250.834 156.366 249.864 155.102 248.535 154.335C247.205 153.567 245.625 153.36 244.143 153.757C242.66 154.154 241.396 155.124 240.628 156.454L238.221 160.613C233.67 158.591 228.838 157.271 223.89 156.698V151.967C223.914 151.192 223.781 150.42 223.501 149.697C223.22 148.974 222.797 148.315 222.257 147.759C221.717 147.203 221.071 146.76 220.357 146.458C219.643 146.156 218.876 146.001 218.101 146.001C217.325 146.001 216.558 146.156 215.844 146.458C215.13 146.76 214.484 147.203 213.944 147.759C213.404 148.315 212.981 148.974 212.701 149.697C212.42 150.42 212.287 151.192 212.311 151.967V156.698C207.365 157.271 202.535 158.592 197.985 160.613L195.578 156.454C195.198 155.795 194.692 155.219 194.089 154.756C193.486 154.293 192.798 153.954 192.064 153.757C191.329 153.56 190.564 153.51 189.81 153.609C189.057 153.708 188.33 153.955 187.672 154.335C187.013 154.715 186.436 155.221 185.974 155.824C185.511 156.427 185.172 157.115 184.975 157.849C184.778 158.583 184.728 159.349 184.827 160.102C184.926 160.856 185.173 161.583 185.553 162.241L188.023 166.525C184.106 169.518 180.654 173.075 177.779 177.08L173.297 174.48C172.637 174.074 171.903 173.804 171.137 173.686C170.371 173.569 169.59 173.606 168.838 173.796C168.087 173.986 167.382 174.324 166.764 174.792C166.146 175.259 165.628 175.846 165.241 176.517C164.853 177.188 164.605 177.93 164.509 178.699C164.414 179.467 164.474 180.248 164.685 180.993C164.897 181.738 165.256 182.434 165.741 183.038C166.226 183.642 166.828 184.143 167.51 184.51L172.189 187.204C170.356 191.688 169.194 196.419 168.742 201.242H163.022C161.517 201.287 160.088 201.917 159.039 202.998C157.99 204.079 157.403 205.526 157.403 207.032C157.403 208.538 157.99 209.985 159.039 211.066C160.088 212.147 161.517 212.776 163.022 212.822H168.976C169.626 217.527 170.954 222.114 172.917 226.439L167.51 229.559C166.828 229.926 166.226 230.427 165.741 231.031C165.256 231.635 164.897 232.331 164.685 233.076C164.474 233.821 164.414 234.602 164.509 235.37C164.605 236.139 164.853 236.881 165.241 237.552C165.628 238.223 166.146 238.81 166.764 239.277C167.382 239.745 168.087 240.083 168.838 240.273C169.59 240.463 170.371 240.5 171.137 240.383C171.903 240.265 172.637 239.995 173.297 239.589L178.907 236.349C181.767 240.033 185.13 243.297 188.896 246.046L185.553 251.839C185.173 252.497 184.926 253.224 184.827 253.977C184.728 254.731 184.778 255.496 184.975 256.23C185.172 256.965 185.511 257.653 185.974 258.256C186.436 258.859 187.013 259.365 187.672 259.745C188.33 260.125 189.057 260.371 189.81 260.47C190.564 260.569 191.329 260.519 192.064 260.322C192.798 260.126 193.486 259.786 194.089 259.324C194.692 258.861 195.198 258.284 195.578 257.626L198.968 251.729C203.227 253.507 207.715 254.678 212.3 255.208V262.129C212.277 262.903 212.41 263.675 212.69 264.398C212.971 265.121 213.393 265.78 213.933 266.336C214.473 266.892 215.119 267.335 215.833 267.637C216.547 267.939 217.315 268.094 218.09 268.094C218.865 268.094 219.633 267.939 220.347 267.637C221.061 267.335 221.707 266.892 222.247 266.336C222.787 265.78 223.21 265.121 223.49 264.398C223.771 263.675 223.903 262.903 223.88 262.129V255.218C228.467 254.683 232.956 253.509 237.217 251.729L240.618 257.615C240.998 258.274 241.504 258.85 242.107 259.313C242.71 259.776 243.398 260.115 244.132 260.312C244.866 260.509 245.632 260.559 246.386 260.46C247.139 260.361 247.866 260.114 248.524 259.734C249.182 259.354 249.759 258.848 250.222 258.245C250.685 257.642 251.024 256.954 251.221 256.22C251.418 255.486 251.468 254.72 251.369 253.967C251.27 253.213 251.023 252.487 250.643 251.828L247.3 246.036C251.066 243.286 254.428 240.022 257.288 236.339L262.899 239.573C263.557 239.953 264.284 240.2 265.037 240.299C265.791 240.398 266.557 240.348 267.291 240.151C268.025 239.954 268.713 239.615 269.316 239.152C269.919 238.689 270.425 238.112 270.805 237.454C271.185 236.796 271.432 236.069 271.531 235.316C271.63 234.562 271.58 233.797 271.383 233.062C271.186 232.328 270.847 231.64 270.384 231.037C269.921 230.434 269.344 229.928 268.686 229.548L263.273 226.429C265.239 222.105 266.568 217.52 267.22 212.816L273.189 212.822ZM218.072 247.57C210.05 247.57 202.209 245.191 195.539 240.735C188.869 236.279 183.671 229.945 180.601 222.534C177.532 215.123 176.728 206.969 178.293 199.102C179.858 191.234 183.721 184.008 189.393 178.336C195.065 172.664 202.292 168.802 210.159 167.237C218.027 165.672 226.182 166.475 233.593 169.545C241.004 172.614 247.338 177.812 251.795 184.482C256.251 191.151 258.63 198.992 258.63 207.014C258.63 217.77 254.357 228.086 246.751 235.691C239.145 243.297 228.829 247.57 218.072 247.57ZM218.072 170.929C210.929 170.933 203.948 173.055 198.012 177.027C192.076 180.998 187.45 186.641 184.721 193.241C181.992 199.841 181.281 207.103 182.679 214.107C184.077 221.111 187.52 227.543 192.574 232.59C197.628 237.637 204.065 241.072 211.071 242.461C218.077 243.85 225.338 243.13 231.935 240.392C238.532 237.654 244.169 233.022 248.133 227.081C252.097 221.139 254.21 214.156 254.205 207.014C254.202 202.272 253.265 197.576 251.448 193.196C249.631 188.816 246.968 184.837 243.613 181.486C240.258 178.135 236.275 175.477 231.893 173.665C227.511 171.853 222.814 170.921 218.072 170.924V170.929ZM218.072 237.171C212.107 237.171 206.276 235.402 201.317 232.088C196.357 228.775 192.492 224.065 190.209 218.554C187.927 213.044 187.329 206.98 188.493 201.13C189.657 195.28 192.529 189.907 196.747 185.689C200.964 181.472 206.338 178.6 212.188 177.436C218.038 176.272 224.102 176.87 229.613 179.152C235.124 181.435 239.834 185.3 243.148 190.259C246.462 195.219 248.23 201.049 248.23 207.014C248.234 210.975 247.456 214.898 245.942 218.558C244.427 222.219 242.206 225.545 239.405 228.346C236.604 231.147 233.278 233.368 229.617 234.882C225.957 236.397 222.033 237.174 218.072 237.171Z" fill="#EC8558"/>
<path d="M347.65 232.377C347.828 227.709 347.044 223.054 345.347 218.702L348.232 216.96C348.941 216.533 349.558 215.97 350.048 215.304C350.539 214.639 350.893 213.883 351.092 213.08C351.29 212.277 351.329 211.443 351.205 210.625C351.081 209.807 350.797 209.022 350.37 208.314C349.942 207.606 349.379 206.989 348.713 206.498C348.048 206.007 347.292 205.653 346.489 205.454C345.686 205.256 344.851 205.218 344.034 205.342C343.216 205.465 342.431 205.749 341.722 206.177L338.712 207.997C335.553 204.522 331.712 201.736 327.428 199.813L328.198 196.693C328.598 195.071 328.338 193.357 327.475 191.927C326.611 190.497 325.215 189.468 323.594 189.068C321.972 188.667 320.257 188.927 318.827 189.791C317.397 190.654 316.369 192.05 315.968 193.672L315.183 196.859C310.424 196.597 305.663 197.334 301.206 199.022L299.698 196.532C298.836 195.102 297.44 194.073 295.819 193.672C294.198 193.27 292.484 193.529 291.054 194.392C289.623 195.255 288.595 196.65 288.193 198.271C287.792 199.892 288.051 201.606 288.914 203.036L290.474 205.574C286.857 208.801 283.971 212.763 282.009 217.194L279.43 216.56C277.818 216.188 276.125 216.464 274.716 217.329C273.307 218.194 272.295 219.579 271.898 221.184C271.501 222.79 271.752 224.486 272.596 225.908C273.44 227.33 274.809 228.363 276.408 228.784L279.076 229.445C278.83 234.324 279.637 239.198 281.442 243.738L279.263 245.059C278.542 245.48 277.913 246.04 277.41 246.706C276.908 247.373 276.543 248.133 276.337 248.941C276.131 249.75 276.088 250.592 276.21 251.418C276.333 252.243 276.618 253.036 277.049 253.751C277.481 254.465 278.05 255.087 278.724 255.579C279.398 256.072 280.163 256.425 280.975 256.619C281.786 256.813 282.629 256.844 283.452 256.71C284.276 256.576 285.065 256.279 285.773 255.837L288.15 254.407C291.443 257.991 295.466 260.828 299.948 262.727L299.298 265.326C299.098 266.129 299.058 266.964 299.181 267.782C299.304 268.6 299.587 269.386 300.013 270.095C300.44 270.804 301.002 271.423 301.667 271.914C302.333 272.406 303.089 272.762 303.892 272.962C304.695 273.162 305.529 273.201 306.348 273.078C307.166 272.956 307.952 272.673 308.661 272.246C309.37 271.82 309.988 271.258 310.48 270.592C310.972 269.927 311.328 269.171 311.528 268.368L312.255 265.436C317.038 265.588 321.8 264.729 326.227 262.914L327.787 265.514C328.65 266.945 330.046 267.975 331.668 268.377C333.29 268.779 335.005 268.521 336.437 267.658C337.868 266.796 338.898 265.4 339.301 263.778C339.703 262.156 339.444 260.44 338.582 259.009L336.861 256.154C340.293 252.936 343.021 249.041 344.873 244.715L348.071 245.506C348.874 245.704 349.709 245.742 350.526 245.618C351.344 245.494 352.13 245.21 352.838 244.783C353.546 244.355 354.163 243.793 354.653 243.127C355.144 242.461 355.498 241.705 355.697 240.902C355.895 240.099 355.933 239.264 355.809 238.447C355.685 237.629 355.401 236.844 354.974 236.136C354.546 235.427 353.983 234.811 353.317 234.32C352.651 233.829 351.895 233.475 351.092 233.277L347.65 232.377ZM313.748 258.697C308.272 258.697 302.918 257.073 298.365 254.031C293.811 250.988 290.263 246.664 288.167 241.605C286.071 236.546 285.523 230.979 286.591 225.608C287.66 220.237 290.297 215.304 294.169 211.432C298.041 207.559 302.975 204.923 308.346 203.854C313.717 202.786 319.284 203.334 324.344 205.43C329.403 207.525 333.728 211.074 336.77 215.627C339.813 220.18 341.436 225.534 341.436 231.01C341.436 238.353 338.519 245.395 333.327 250.587C328.134 255.78 321.091 258.697 313.748 258.697ZM313.748 205.922C308.786 205.922 303.935 207.393 299.809 210.15C295.683 212.907 292.468 216.825 290.569 221.409C288.67 225.993 288.173 231.037 289.141 235.904C290.109 240.77 292.499 245.241 296.007 248.749C299.516 252.258 303.987 254.647 308.853 255.615C313.72 256.583 318.764 256.086 323.349 254.188C327.933 252.289 331.852 249.073 334.608 244.947C337.365 240.822 338.837 235.971 338.837 231.01C338.837 227.715 338.189 224.452 336.928 221.408C335.668 218.364 333.82 215.598 331.49 213.268C329.16 210.939 326.394 209.091 323.35 207.83C320.305 206.57 317.043 205.921 313.748 205.922ZM313.748 252.842C309.428 252.842 305.206 251.562 301.615 249.162C298.023 246.762 295.224 243.352 293.571 239.361C291.918 235.371 291.486 230.98 292.329 226.744C293.171 222.508 295.251 218.617 298.305 215.563C301.36 212.509 305.251 210.429 309.487 209.586C313.724 208.743 318.115 209.176 322.105 210.829C326.096 212.482 329.507 215.281 331.906 218.872C334.306 222.463 335.587 226.685 335.587 231.004C335.587 236.796 333.286 242.351 329.19 246.446C325.095 250.542 319.54 252.842 313.748 252.842Z" fill="#72BCC5"/>
<path d="M305.553 234.051C305.22 234.051 305.033 233.578 305.033 233.277C305.033 233.167 304.414 233.079 304.19 232.913C304.153 232.887 304.122 232.853 304.101 232.813C304.079 232.773 304.068 232.729 304.068 232.684C304.068 232.639 304.079 232.594 304.101 232.554C304.122 232.514 304.153 232.48 304.19 232.455C304.593 232.55 304.989 232.67 305.376 232.814C306.141 233.053 306.156 233.365 306.146 233.667C306.135 233.968 305.886 234.051 305.553 234.051Z" fill="#E9D6B8"/>
<path d="M306.016 234.509L306.068 233.63L305.028 233.25H304.857L303.494 233.313C303.403 233.31 303.313 233.325 303.229 233.358C303.144 233.391 303.067 233.44 303.002 233.503C302.937 233.566 302.886 233.642 302.85 233.725C302.815 233.809 302.797 233.898 302.797 233.989C302.766 234.447 302.797 234.041 302.797 234.041C302.794 234.217 302.856 234.388 302.973 234.52C303.089 234.652 303.251 234.735 303.426 234.753L305.169 235.008C305.553 235.024 305.99 234.909 306.016 234.509Z" fill="#E9D6B8"/>
<path d="M324.428 231.243C324.557 231.331 324.649 231.464 324.686 231.616C324.724 231.767 324.704 231.927 324.631 232.065C324.584 232.159 325.041 232.544 325.151 232.783C325.175 232.82 325.189 232.862 325.193 232.905C325.196 232.949 325.189 232.993 325.171 233.033C325.154 233.073 325.127 233.109 325.092 233.136C325.058 233.163 325.017 233.181 324.974 233.188C324.685 232.973 324.408 232.74 324.147 232.492C323.57 231.971 323.627 231.628 323.773 231.368C323.918 231.108 324.147 231.098 324.428 231.243Z" fill="#E9D6B8"/>
<path d="M324.199 230.661L323.804 231.405L324.542 232.149L324.688 232.221L325.822 232.705C325.994 232.776 326.186 232.783 326.364 232.724C326.541 232.666 326.692 232.547 326.789 232.388C327.018 232.013 326.789 232.346 326.789 232.346C326.862 232.194 326.875 232.02 326.826 231.858C326.777 231.696 326.669 231.559 326.524 231.472L325.093 230.562C324.802 230.412 324.376 230.318 324.199 230.661Z" fill="#E9D6B8"/>
<path d="M305.979 233.058L305.854 235.003C305.847 235.033 305.847 235.064 305.853 235.094C305.859 235.124 305.872 235.152 305.89 235.177C305.909 235.202 305.932 235.222 305.959 235.237C305.986 235.252 306.016 235.26 306.046 235.263L310.82 235.439C311.038 235.461 311.258 235.419 311.453 235.32C311.648 235.22 311.811 235.067 311.922 234.878L314.522 230.895C314.522 230.895 315.245 229.486 314.194 228.878C313.321 228.358 312.681 228.94 312.328 229.543C312.052 230.022 310.965 232.029 310.539 232.824C310.487 232.923 310.408 233.006 310.312 233.063C310.215 233.12 310.105 233.149 309.993 233.146L305.979 233.058Z" fill="#434C59"/>
<path d="M330.018 237.582L332.191 239.084C332.477 239.261 332.763 239.453 333.117 239.204L333.304 239.074C333.544 238.902 333.637 238.788 333.46 238.554L332.134 236.734C331.957 236.499 331.747 236.29 331.51 236.115C331.51 236.115 330.99 235.751 330.902 235.663C330.709 235.491 330.605 234.992 330.803 234.852L330.179 233.968C330.044 233.776 329.96 233.744 329.804 233.854L328.244 234.977L330.018 237.582Z" fill="#434C59"/>
<path d="M333.299 239.079C333.538 238.907 333.632 238.793 333.455 238.559L332.129 236.739C331.952 236.504 331.742 236.296 331.505 236.121C331.505 236.121 330.985 235.757 330.897 235.668C330.657 235.46 331.203 235.429 331.021 235.148L330.174 233.952C330.038 233.76 329.955 233.729 329.799 233.838L329.633 233.958L333.299 239.079Z" fill="#586273"/>
<path d="M315.332 249.239L313.127 249.697C312.8 249.78 312.462 249.853 312.394 250.279L312.358 250.508C312.311 250.794 312.327 250.939 312.628 250.986L314.932 251.382C315.225 251.423 315.522 251.423 315.816 251.382C315.816 251.382 316.429 251.272 316.564 251.262C316.819 251.262 317.251 251.522 317.209 251.782L318.28 251.954C318.514 251.99 318.592 251.954 318.623 251.766L318.935 249.847L315.332 249.239Z" fill="#353E47"/>
<path d="M312.358 250.492C312.311 250.778 312.327 250.924 312.628 250.97L314.932 251.366C315.225 251.408 315.522 251.408 315.816 251.366C315.816 251.366 316.429 251.256 316.564 251.246C316.882 251.246 316.518 251.636 316.835 251.683L318.28 251.917C318.514 251.953 318.592 251.917 318.623 251.73L318.655 251.527L312.358 250.492Z" fill="#586273"/>
<path d="M317.767 238.585L323.596 240.623C323.911 240.749 324.252 240.798 324.59 240.766C324.928 240.735 325.254 240.623 325.54 240.441L330.22 237.79L328.629 235.127C328.473 234.852 328.265 234.753 327.823 235.039L324.875 236.911C324.735 237 324.574 237.05 324.408 237.055C324.243 237.061 324.079 237.022 323.934 236.942L318.11 233.744L317.767 238.585Z" fill="#353E47"/>
<path d="M314.947 226.772L313.673 225.987L311.999 223.517L310.324 224.692L311.796 226.855C311.875 226.946 311.935 227.051 311.973 227.166C312.01 227.28 312.024 227.401 312.014 227.521L312.082 229.392C312.032 230.142 312.226 230.888 312.633 231.519L315.945 236.401L320.308 234.254L315.909 227.77C315.657 227.377 315.33 227.038 314.947 226.772Z" fill="#E9D6B8"/>
<path d="M316.217 236.511L315.5 243.317L315.307 248.891C315.266 249.411 315.365 249.603 315.885 249.686L318.797 250.159C318.984 250.159 318.989 250.107 319.026 249.899L319.255 243.592L321.028 235.133L316.217 236.511Z" fill="#434C59"/>
<path d="M312.083 229.371C312.083 229.824 312.083 231.451 312.655 232.252L316.508 237.935C316.674 238.174 316.716 238.221 316.96 238.06L321.328 235.195C321.567 235.029 321.567 234.951 321.401 234.706L316.752 227.983C316.054 227.027 315.077 226.312 313.955 225.935L312.057 228.238L312.083 229.371Z" fill="#586273"/>
<path d="M323.044 231.971C323.33 232.2 323.491 232.086 323.564 231.971L324.853 230.38L321.64 228.087C321.06 227.72 320.41 227.477 319.732 227.375L315.796 226.798C315.796 226.798 314.132 226.553 313.929 227.796C313.762 228.836 314.548 229.247 315.26 229.356C315.811 229.444 317.974 229.751 319.045 229.876C319.393 229.904 319.729 230.013 320.028 230.193L323.044 231.971Z" fill="#697484"/>
<path d="M312.036 227.983L312.083 229.366C312.083 229.543 312.083 229.767 312.109 230.027L313.081 229.028L313.992 226.106L313.804 225.956L313.43 225.633L312.036 227.983Z" fill="#E4E6EA"/>
<path d="M312.094 229.814C312.107 230.48 312.219 231.141 312.427 231.775C312.453 231.713 312.472 231.648 312.484 231.582L313.331 228.228C312.997 228.813 312.58 229.347 312.094 229.814Z" fill="#588BA5"/>
<path d="M312.255 229.585C312.227 229.49 312.227 229.389 312.255 229.294L312.463 228.576L312.187 228.02L312.047 228.186L312.083 229.325C312.071 230.155 312.188 230.981 312.432 231.775C312.458 231.713 312.477 231.648 312.489 231.582L312.666 230.838L312.255 229.585Z" fill="#71A5C5"/>
<path d="M313.227 225.602C313.29 225.456 313.446 225.42 313.643 225.602L314.096 225.982L312.707 228.795C312.655 228.925 312.603 229.008 312.52 228.909L312.067 228.239C311.885 227.973 311.917 227.921 312.067 227.646L313.227 225.602Z" fill="white"/>
<path d="M307.928 222.456L306.597 223.403L309.197 226.746C309.92 227.718 310.445 227.593 310.757 227.396C311.333 226.959 311.79 226.385 312.088 225.727C312.51 224.869 311.724 223.694 311.667 223.595L310.351 221.094L307.928 222.456Z" fill="#E9D6B8"/>
<path d="M306.212 222.571C305.765 222.914 306.212 223.611 306.888 223.507C307.226 223.449 308.131 223.262 308.131 223.262C308.265 223.228 308.406 223.242 308.531 223.302C308.656 223.362 308.755 223.464 308.812 223.59L309.472 224.63C309.561 224.765 309.701 224.822 309.852 224.63C309.891 224.542 309.911 224.447 309.911 224.351C309.911 224.256 309.891 224.161 309.852 224.073C309.895 223.96 309.973 223.863 310.076 223.798L310.33 223.637C310.512 223.517 310.523 223.46 310.674 223.595L311.583 224.432C311.999 224.791 312.379 224.786 312.545 224.676L312.681 224.593C312.54 223.855 312.306 222.706 312.223 222.29C311.973 220.985 310.174 219.17 307.964 221.13L306.212 222.571Z" fill="#353E47"/>
<path d="M310.108 223.522C309.991 223.595 309.904 223.708 309.866 223.841C309.827 223.974 309.84 224.116 309.9 224.24L310.451 225.103C310.489 225.15 310.54 225.184 310.597 225.203C310.654 225.221 310.716 225.223 310.774 225.207C311.049 225.098 311.018 224.817 310.977 224.516C310.977 224.516 310.893 224.063 310.888 224.037C310.831 223.652 310.524 223.262 310.108 223.522Z" fill="#EDDECC"/>
<path d="M79.1502 183.725C79.3043 179.616 78.6123 175.519 77.1171 171.688L79.6598 170.154C80.3083 169.792 80.8773 169.302 81.3329 168.715C81.7885 168.128 82.1215 167.456 82.3119 166.738C82.5024 166.019 82.5465 165.27 82.4416 164.535C82.3368 163.799 82.085 163.092 81.7015 162.456C81.3179 161.819 80.8102 161.267 80.2087 160.83C79.6073 160.394 78.9242 160.083 78.2001 159.916C77.4761 159.749 76.7258 159.729 75.994 159.858C75.2622 159.987 74.5637 160.261 73.9401 160.665L71.2934 162.267C68.5128 159.21 65.132 156.758 61.3619 155.065L62.0431 152.315C62.3954 150.888 62.1663 149.379 61.4062 148.121C60.6461 146.862 59.4172 145.957 57.9899 145.605C56.5625 145.253 55.0537 145.482 53.7953 146.242C52.5369 147.002 51.632 148.231 51.2796 149.658L50.588 152.46C46.4006 152.23 42.2113 152.88 38.2907 154.369L36.9647 152.175C36.602 151.526 36.1126 150.957 35.5256 150.501C34.9386 150.046 34.266 149.713 33.5478 149.522C32.8295 149.332 32.0803 149.288 31.3447 149.393C30.6091 149.498 29.902 149.749 29.2656 150.133C28.6292 150.517 28.0764 151.024 27.6401 151.626C27.2038 152.227 26.8929 152.91 26.7259 153.634C26.5589 154.358 26.5392 155.108 26.6679 155.84C26.7966 156.572 27.0711 157.27 27.4752 157.894L28.8219 160.125C25.6355 162.966 23.0918 166.455 21.3603 170.357L19.114 169.801C17.6867 169.449 16.1779 169.678 14.9194 170.438C13.661 171.198 12.7561 172.427 12.4038 173.854C12.0514 175.281 12.2805 176.79 13.0406 178.048C13.8007 179.307 15.0296 180.211 16.457 180.564L18.8072 181.141C18.5903 185.434 19.2996 189.724 20.8871 193.719L18.9684 194.878C17.7609 195.66 16.9049 196.882 16.5815 198.284C16.258 199.686 16.4925 201.159 17.2353 202.391C17.9781 203.623 19.1709 204.518 20.5618 204.887C21.9526 205.256 23.4323 205.07 24.6881 204.367L26.768 203.109C29.6771 206.248 33.2226 208.729 37.1675 210.388L36.6007 212.733C36.2484 214.16 36.4775 215.669 37.2376 216.928C37.9977 218.186 39.2266 219.091 40.6539 219.443C42.0813 219.796 43.5901 219.566 44.8485 218.806C46.1069 218.046 47.0119 216.817 47.3642 215.39L47.9986 212.79C52.2118 212.93 56.4071 212.18 60.3116 210.591L61.6843 212.858C62.4742 214.048 63.6932 214.888 65.0871 215.201C66.481 215.515 67.9421 215.278 69.1656 214.54C70.389 213.802 71.2803 212.621 71.6535 211.241C72.0267 209.862 71.853 208.393 71.1686 207.139L69.6503 204.627C72.6743 201.787 75.0768 198.35 76.7063 194.535L79.5142 195.226C80.2271 195.421 80.9716 195.471 81.704 195.373C82.4364 195.275 83.142 195.032 83.7791 194.658C84.4162 194.284 84.9721 193.786 85.4141 193.194C85.856 192.602 86.1751 191.928 86.3526 191.21C86.5301 190.493 86.5624 189.748 86.4476 189.018C86.3328 188.288 86.0732 187.588 85.6842 186.96C85.2951 186.332 84.7843 185.788 84.1819 185.36C83.5796 184.932 82.8977 184.629 82.1765 184.469L79.1502 183.725ZM49.3141 206.546C44.562 206.545 39.917 205.135 35.9663 202.494C32.0156 199.853 28.9367 196.1 27.1188 191.71C25.301 187.32 24.8259 182.489 25.7536 177.828C26.6814 173.168 28.9702 168.887 32.3308 165.527C35.6914 162.168 39.9728 159.88 44.6336 158.953C49.2944 158.027 54.1254 158.503 58.5156 160.321C62.9059 162.14 66.6582 165.22 69.2982 169.171C71.9382 173.122 73.3473 177.767 73.3473 182.519C73.3473 185.675 72.7256 188.799 71.5178 191.715C70.3099 194.63 68.5396 197.279 66.3078 199.51C64.0761 201.741 61.4266 203.511 58.5108 204.718C55.595 205.925 52.4699 206.546 49.3141 206.546ZM49.3141 161.783C45.213 161.784 41.2043 163.001 37.7949 165.28C34.3855 167.559 31.7284 170.798 30.1597 174.587C28.591 178.376 28.1811 182.545 28.9818 186.567C29.7825 190.589 31.7579 194.284 34.6582 197.183C37.5585 200.082 41.2534 202.057 45.2757 202.856C49.2981 203.656 53.4672 203.245 57.2561 201.676C61.0449 200.106 64.2832 197.448 66.5615 194.038C68.8398 190.629 70.0559 186.62 70.0559 182.519C70.0566 179.795 69.5205 177.098 68.4784 174.581C67.4363 172.064 65.9085 169.777 63.9823 167.851C62.0561 165.925 59.7693 164.398 57.2524 163.355C54.7356 162.313 52.0381 161.777 49.3141 161.778V161.783ZM49.3141 199.615C45.9329 199.614 42.6279 198.61 39.8171 196.731C37.0062 194.852 34.8157 192.182 33.5225 189.058C32.2293 185.934 31.8914 182.496 32.5517 179.18C33.212 175.864 34.8407 172.819 37.2319 170.428C39.6232 168.038 42.6695 166.41 45.9858 165.751C49.3021 165.092 52.7394 165.431 55.8631 166.725C58.9869 168.019 61.6567 170.21 63.5351 173.021C65.4135 175.833 66.416 179.138 66.416 182.519C66.4147 187.053 64.6123 191.402 61.4052 194.608C58.1981 197.814 53.8489 199.615 49.3141 199.615Z" fill="white"/>
<path d="M59.1528 182.722C59.444 182.722 59.6156 182.311 59.6052 182.046C59.6052 181.952 60.1253 181.874 60.3385 181.734C60.3718 181.712 60.3991 181.682 60.418 181.647C60.4369 181.612 60.4468 181.573 60.4468 181.534C60.4468 181.494 60.4369 181.455 60.418 181.42C60.3991 181.385 60.3718 181.355 60.3385 181.333C59.9861 181.417 59.6388 181.521 59.2984 181.645C58.6327 181.853 58.6223 182.124 58.6327 182.389C58.6431 182.654 58.8615 182.732 59.1528 182.722Z" fill="#E9D6B8"/>
<path d="M58.7519 183.143L58.7051 182.384L59.5892 182.046H59.74L60.9257 182.098C61.0061 182.092 61.0869 182.103 61.163 182.129C61.2391 182.156 61.309 182.198 61.3683 182.252C61.4277 182.307 61.4754 182.373 61.5084 182.446C61.5413 182.52 61.559 182.6 61.5602 182.68C61.5862 183.081 61.5602 182.727 61.5602 182.727C61.5914 183.247 61.0089 183.351 61.0089 183.351L59.4956 183.569C59.1523 183.616 58.7727 183.491 58.7519 183.143Z" fill="#E9D6B8"/>
<path d="M42.7207 180.304C42.6098 180.381 42.531 180.496 42.4994 180.627C42.4678 180.759 42.4855 180.897 42.5491 181.016C42.5855 181.094 42.1903 181.438 42.0759 181.64C42.0558 181.672 42.0437 181.709 42.0408 181.746C42.0378 181.784 42.044 181.822 42.0588 181.857C42.0736 181.891 42.0966 181.922 42.1259 181.946C42.1551 181.97 42.1897 181.986 42.2267 181.994C42.4901 181.801 42.7403 181.591 42.9756 181.365C43.4956 180.923 43.4176 180.616 43.3032 180.392C43.1888 180.169 42.9704 180.174 42.7207 180.304Z" fill="#E9D6B8"/>
<path d="M42.924 179.794L43.2672 180.444L42.6224 181.089L42.4975 181.152L41.5094 181.573C41.359 181.633 41.1922 181.638 41.0382 181.588C40.8843 181.538 40.7529 181.435 40.6669 181.297C40.4693 180.97 40.6669 181.261 40.6669 181.261C40.6038 181.128 40.5929 180.976 40.6362 180.836C40.6795 180.695 40.774 180.576 40.901 180.502L42.1439 179.706C42.3935 179.555 42.768 179.498 42.924 179.794Z" fill="#E9D6B8"/>
<path d="M58.7786 181.885L58.893 183.574C58.8982 183.6 58.898 183.627 58.8922 183.652C58.8865 183.678 58.8754 183.702 58.8597 183.723C58.844 183.744 58.8241 183.762 58.8011 183.775C58.7782 183.788 58.7528 183.796 58.7266 183.798L54.5668 183.949C54.3768 183.965 54.1861 183.928 54.0155 183.843C53.8449 183.757 53.7011 183.627 53.5997 183.465L51.343 179.976C51.343 179.976 50.7086 178.749 51.6238 178.219C52.3882 177.782 52.9445 178.276 53.2513 178.801C53.4905 179.217 54.4369 180.964 54.8112 181.656C54.856 181.742 54.924 181.814 55.0076 181.864C55.0913 181.914 55.1872 181.939 55.2844 181.937L58.7786 181.885Z" fill="#434C59"/>
<path d="M37.8543 185.815L35.9665 187.126C35.7169 187.276 35.4465 187.448 35.1604 187.23L34.994 187.115C34.786 186.965 34.708 186.871 34.8588 186.653L36.0133 185.093C36.1633 184.897 36.3381 184.723 36.5334 184.573C36.5334 184.573 36.9754 184.256 37.0534 184.183C37.2199 184.032 37.3135 183.595 37.1419 183.476L37.6619 182.706C37.7815 182.54 37.8543 182.514 37.9896 182.607L39.3729 183.585L37.8543 185.815Z" fill="#434C59"/>
<path d="M35.0048 187.12C34.7967 186.97 34.7187 186.876 34.8695 186.658L36.0241 185.098C36.1741 184.903 36.3489 184.728 36.5441 184.578C36.5441 184.578 36.9862 184.261 37.0642 184.188C37.2722 184.001 36.799 183.975 36.9602 183.751L37.6935 182.711C37.8131 182.545 37.8859 182.519 38.0211 182.612L38.1667 182.716L35.0048 187.12Z" fill="#586273"/>
<path d="M50.6408 195.965L52.5598 196.365C52.8407 196.438 53.1371 196.5 53.1995 196.885L53.2307 197.083C53.2723 197.333 53.2567 197.457 52.9915 197.499L50.9841 197.847C50.7304 197.881 50.4733 197.881 50.2196 197.847C50.2196 197.847 49.6995 197.749 49.5643 197.743C49.3459 197.743 48.9714 197.967 49.0027 198.175L48.0717 198.331C47.8689 198.362 47.8013 198.331 47.7753 198.165L47.5049 196.49L50.6408 195.965Z" fill="#353E47"/>
<path d="M53.2405 197.057C53.2821 197.306 53.2665 197.431 53.0013 197.473L50.9939 197.821C50.7402 197.855 50.4831 197.855 50.2294 197.821C50.2294 197.821 49.7093 197.722 49.5741 197.717C49.3037 197.717 49.6157 198.055 49.3453 198.097L48.0815 198.305C47.8787 198.336 47.8111 198.305 47.7851 198.138L47.7539 197.962L53.2405 197.057Z" fill="#586273"/>
<path d="M48.5185 186.694L43.4487 188.462C43.1743 188.572 42.8777 188.616 42.5831 188.59C42.2885 188.563 42.0043 188.468 41.7536 188.311L37.6406 185.997L39.0238 183.678C39.1642 183.439 39.3409 183.356 39.7257 183.606L42.2944 185.233C42.4162 185.311 42.5569 185.355 42.7016 185.359C42.8462 185.364 42.9894 185.329 43.116 185.259L48.1805 182.477L48.5185 186.694Z" fill="#353E47"/>
<path d="M50.9728 176.42L52.0803 175.733L53.5363 173.586L54.9974 174.574L53.7182 176.461C53.6481 176.539 53.5948 176.631 53.5617 176.73C53.5286 176.829 53.5164 176.934 53.5259 177.039L53.4635 178.666C53.5086 179.319 53.3407 179.968 52.9851 180.517L50.12 184.77L46.3242 182.898L50.12 177.252C50.3494 176.923 50.6387 176.641 50.9728 176.42Z" fill="#E9D6B8"/>
<path d="M49.8707 184.885L50.4896 190.812L50.6508 195.663C50.6872 196.116 50.604 196.282 50.1307 196.355L47.598 196.766C47.4316 196.766 47.4264 196.719 47.3952 196.537L47.1976 191.051L45.6738 183.684L49.8707 184.885Z" fill="#434C59"/>
<path d="M53.4637 178.666C53.4637 179.061 53.4637 180.465 52.9437 181.177L49.6003 186.122C49.4547 186.33 49.4183 186.372 49.2051 186.231L45.4041 183.736C45.1961 183.59 45.1961 183.522 45.3417 183.309L49.3871 177.46C49.9944 176.628 50.8445 176.005 51.8206 175.676L53.4741 177.683L53.4637 178.666Z" fill="#586273"/>
<path d="M43.9281 180.923C43.6785 181.12 43.5381 181.021 43.4705 180.923L42.3525 179.539L45.15 177.538C45.6552 177.221 46.2196 177.01 46.8087 176.919L50.2353 176.399C50.2353 176.399 51.6861 176.186 51.8629 177.267C52.0085 178.172 51.3429 178.531 50.6981 178.63C50.2249 178.708 48.3426 178.973 47.4067 179.061C47.1052 179.087 46.8135 179.181 46.5539 179.337L43.9281 180.923Z" fill="#697484"/>
<path d="M53.5102 177.465L53.4634 178.666C53.4634 178.822 53.4634 179.014 53.4634 179.243L52.6209 178.375L51.8096 175.817L51.9708 175.681L52.2932 175.406L53.5102 177.465Z" fill="#E4E6EA"/>
<path d="M53.4584 179.056C53.4495 179.638 53.3513 180.215 53.1671 180.767C53.1427 180.713 53.1269 180.655 53.1203 180.596L52.3818 177.678C52.6732 178.186 53.0357 178.65 53.4584 179.056Z" fill="#588BA5"/>
<path d="M53.3178 178.859C53.339 178.775 53.339 178.687 53.3178 178.604L53.1358 177.98L53.375 177.496L53.4946 177.637L53.4686 178.635C53.475 179.357 53.3716 180.076 53.1618 180.767C53.1374 180.713 53.1216 180.655 53.115 180.596L52.959 179.946L53.3178 178.859Z" fill="#71A5C5"/>
<path d="M52.4868 175.39C52.4296 175.266 52.2944 175.229 52.1228 175.364L51.7275 175.697L52.9445 178.173C52.9861 178.282 53.0329 178.355 53.1057 178.271L53.5009 177.689C53.657 177.455 53.631 177.413 53.5009 177.169L52.4868 175.39Z" fill="white"/>
<path d="M57.0827 172.655L58.2424 173.477L55.9958 176.389C55.3665 177.236 54.9089 177.127 54.6384 176.955C54.1391 176.572 53.741 176.072 53.4787 175.5C53.1095 174.751 53.796 173.732 53.848 173.643L54.9921 171.465L57.0827 172.655Z" fill="#E9D6B8"/>
<path d="M58.5756 172.749C58.9656 173.051 58.5756 173.669 57.9931 173.565C57.6915 173.518 56.9062 173.357 56.9062 173.357C56.7903 173.331 56.6688 173.344 56.5618 173.396C56.4549 173.448 56.369 173.536 56.3185 173.643L55.7361 174.543C55.6633 174.662 55.5437 174.714 55.4084 174.543C55.2732 174.371 55.3564 174.21 55.4084 174.059C55.3684 173.961 55.2995 173.878 55.2108 173.82L54.9872 173.68C54.8312 173.581 54.8208 173.529 54.6908 173.648L53.9003 174.376C53.7968 174.491 53.6615 174.573 53.5115 174.611C53.3614 174.649 53.2035 174.642 53.0578 174.59L52.9434 174.512C53.0682 173.872 53.2658 172.874 53.3386 172.51C53.5622 171.371 55.1224 169.811 57.0466 171.501L58.5756 172.749Z" fill="#353E47"/>
<path d="M55.1751 173.581C55.2784 173.643 55.3549 173.741 55.3895 173.857C55.4241 173.972 55.4144 174.096 55.3623 174.205L54.8786 174.954C54.8462 174.995 54.8021 175.026 54.7519 175.042C54.7018 175.057 54.648 175.058 54.5978 175.042C54.3586 174.954 54.3846 174.709 54.421 174.444C54.421 174.444 54.499 174.049 54.499 174.028C54.5614 173.706 54.8266 173.357 55.1751 173.581Z" fill="#EDDECC"/>
<path d="M231.483 209.791C232.003 209.889 232.455 209.271 232.523 208.802C232.554 208.646 233.522 208.724 233.917 208.558C233.983 208.534 234.041 208.493 234.088 208.441C234.135 208.389 234.168 208.326 234.185 208.258C234.202 208.189 234.202 208.118 234.185 208.05C234.168 207.982 234.135 207.919 234.088 207.866C233.449 207.873 232.81 207.915 232.175 207.991C230.932 208.085 230.802 208.553 230.718 209.031C230.635 209.51 230.979 209.692 231.483 209.791Z" fill="#E9D6B8"/>
<path d="M230.624 210.357L230.848 209.021L232.517 208.802L232.777 208.849L234.8 209.421C234.939 209.447 235.071 209.501 235.188 209.579C235.305 209.657 235.405 209.759 235.482 209.877C235.559 209.995 235.611 210.128 235.635 210.267C235.659 210.405 235.654 210.548 235.622 210.685C235.502 211.382 235.622 210.763 235.622 210.763C235.564 211.029 235.409 211.265 235.186 211.423C234.964 211.58 234.691 211.649 234.42 211.616L231.711 211.382C231.134 211.299 230.52 210.971 230.624 210.357Z" fill="#E9D6B8"/>
<path d="M204.552 206.863C204.383 207.035 204.284 207.264 204.273 207.505C204.263 207.746 204.342 207.982 204.495 208.168C204.594 208.293 204.022 209.021 203.892 209.422C203.869 209.484 203.862 209.552 203.871 209.618C203.88 209.684 203.904 209.746 203.943 209.801C203.981 209.855 204.032 209.9 204.091 209.931C204.15 209.962 204.215 209.978 204.282 209.978C204.673 209.553 205.035 209.101 205.363 208.626C206.081 207.674 205.883 207.17 205.587 206.811C205.291 206.452 204.921 206.556 204.552 206.863Z" fill="#E9D6B8"/>
<path d="M204.699 205.906L205.526 206.915L204.632 208.262L204.434 208.423L202.874 209.504C202.633 209.66 202.345 209.727 202.06 209.693C201.775 209.659 201.511 209.526 201.314 209.317L201.262 209.26C201.103 209.051 201.029 208.789 201.055 208.528C201.081 208.266 201.205 208.024 201.402 207.851L203.285 206.036C203.696 205.683 204.325 205.454 204.699 205.906Z" fill="#E9D6B8"/>
<path d="M231.353 208.09L230.864 211.054C230.863 211.101 230.852 211.148 230.831 211.192C230.811 211.235 230.781 211.273 230.745 211.304C230.709 211.335 230.666 211.358 230.62 211.371C230.575 211.384 230.526 211.388 230.479 211.381L223.231 209.967C222.895 209.923 222.578 209.785 222.319 209.567C222.059 209.35 221.867 209.063 221.764 208.74L219.248 201.814C219.248 201.814 218.65 199.443 220.449 198.897C221.941 198.445 222.706 199.516 223.023 200.551C223.272 201.372 224.198 204.773 224.583 206.119C224.627 206.286 224.716 206.438 224.841 206.557C224.966 206.676 225.121 206.759 225.29 206.795L231.353 208.09Z" fill="#434C59"/>
<path d="M198.713 217.012L195.593 219.664C195.182 219.976 194.772 220.314 194.189 219.992L193.877 219.81C193.482 219.591 193.326 219.43 193.56 219.019L195.312 216.014C195.554 215.63 195.846 215.281 196.181 214.974C196.181 214.974 196.903 214.34 197.049 214.184C197.314 213.898 197.397 213.107 197.049 212.92L197.876 211.464C198.053 211.147 198.183 211.09 198.432 211.23L201.032 212.712L198.713 217.012Z" fill="#434C59"/>
<path d="M193.904 219.825C193.508 219.607 193.352 219.446 193.586 219.035L195.339 216.03C195.581 215.646 195.873 215.296 196.207 214.99C196.207 214.99 196.93 214.355 197.076 214.199C197.409 213.846 196.556 213.882 196.806 213.456L197.924 211.48C198.1 211.163 198.23 211.106 198.48 211.246L198.756 211.402L193.904 219.825Z" fill="#586273"/>
<path d="M219.767 232.861L223.011 234.114C223.485 234.322 223.984 234.514 223.984 235.154V235.513C223.984 235.965 223.921 236.178 223.464 236.178H219.824C219.369 236.163 218.919 236.082 218.488 235.939C218.488 235.939 217.572 235.622 217.37 235.57C216.99 235.482 216.262 235.794 216.262 236.173H214.588C214.219 236.173 214.109 236.085 214.109 235.799L214.427 232.793L219.767 232.861Z" fill="#353E47"/>
<path d="M223.983 235.517C223.983 235.97 223.921 236.183 223.463 236.183H219.823C219.369 236.167 218.919 236.087 218.487 235.944C218.487 235.944 217.572 235.627 217.369 235.575C216.896 235.46 217.343 236.178 216.849 236.178H214.582C214.213 236.178 214.104 236.09 214.104 235.803L214.15 235.491L223.983 235.517Z" fill="#586273"/>
<path d="M217.713 216.664L209.066 220.699C208.597 220.937 208.078 221.061 207.553 221.061C207.027 221.061 206.508 220.937 206.039 220.699L198.406 217.34L200.439 212.998C200.642 212.551 200.959 212.374 201.661 212.738L206.487 215.161C206.716 215.277 206.971 215.33 207.227 215.313C207.483 215.297 207.73 215.212 207.943 215.068L216.408 209.25L217.713 216.664Z" fill="#353E47"/>
<path d="M217.625 197.317L219.237 195.663L220.833 191.337L223.771 192.419L222.372 196.22C222.286 196.384 222.234 196.564 222.219 196.749C222.204 196.934 222.226 197.12 222.284 197.296L222.877 200.13C223.23 201.236 223.217 202.426 222.84 203.525L219.679 212.083L212.353 210.477L216.512 199.11C216.765 198.447 217.142 197.838 217.625 197.317Z" fill="#E9D6B8"/>
<path d="M215.186 208.225C216.647 207.393 218.66 211.407 219.19 212.614L223.792 221.775C224.069 222.357 224.208 222.995 224.199 223.64C224.19 224.285 224.033 224.919 223.74 225.493L220.797 231.613C220.381 232.751 219.902 233.1 219.065 233.1H214.63C214.11 233.1 214.11 232.845 214.245 232.46L217.885 225.051C218.493 223.834 218.405 223.699 217.937 222.591L213.595 215.796C212.555 214.059 211.234 211.636 213.21 209.962L215.186 208.225Z" fill="#434C59"/>
<path d="M222.876 200.13C223.016 200.816 223.62 203.249 223.089 204.664L219.413 214.621C219.257 215.047 219.205 215.141 218.784 214.974L211.166 212.291C210.74 212.135 210.714 212.021 210.87 211.595L215.357 199.776C216.05 198.082 217.25 196.645 218.794 195.663L222.496 198.419L222.876 200.13Z" fill="#586273"/>
<path d="M206.84 207.534C206.481 207.97 206.2 207.846 206.055 207.736L203.621 205.724L207.781 201.258C208.545 200.524 209.453 199.957 210.448 199.594L216.236 197.514C216.236 197.514 218.685 196.63 219.356 198.455C219.927 199.979 218.862 200.837 217.796 201.232C216.99 201.533 213.807 202.656 212.216 203.14C211.697 203.291 211.22 203.559 210.823 203.925L206.84 207.534Z" fill="#697484"/>
<path d="M222.441 198.039L222.877 200.119C222.935 200.384 223.023 200.722 223.085 201.123L221.255 199.984L218.811 195.934L219.034 195.637L219.471 195.018L222.441 198.039Z" fill="#E4E6EA"/>
<path d="M223.027 200.8C223.268 201.813 223.351 202.856 223.272 203.894C223.207 203.812 223.155 203.721 223.116 203.624L220.599 198.903C221.315 199.647 222.132 200.285 223.027 200.8Z" fill="#588BA5"/>
<path d="M222.7 200.525C222.71 200.371 222.675 200.217 222.601 200.083L222.023 199.079L222.237 198.143L222.502 198.346L222.876 200.067C223.205 201.315 223.338 202.606 223.272 203.894C223.207 203.812 223.155 203.721 223.116 203.624L222.596 202.584L222.7 200.525Z" fill="#71A5C5"/>
<path d="M219.788 194.899C219.643 194.701 219.393 194.706 219.154 195.013L218.634 195.752L221.785 199.495C221.9 199.667 222.014 199.776 222.097 199.599L222.534 198.429C222.706 197.956 222.643 197.909 222.29 197.545L219.788 194.899Z" fill="white"/>
<path d="M226.552 188.217L228.897 189.143L226.266 195.122C225.543 196.849 224.706 196.859 224.186 196.682C223.168 196.232 222.276 195.539 221.586 194.665C220.635 193.536 221.378 191.483 221.425 191.311L222.465 187.068L226.552 188.217Z" fill="#E9D6B8"/>
<path d="M228.909 187.625C229.715 187.973 229.315 189.185 228.249 189.283C227.729 189.32 226.294 189.377 226.294 189.377C226.079 189.373 225.871 189.445 225.706 189.582C225.541 189.718 225.43 189.909 225.394 190.121L224.78 191.935C224.702 192.169 224.515 192.31 224.208 192.065C224.115 191.951 224.048 191.818 224.01 191.675C223.973 191.533 223.966 191.384 223.99 191.238C223.885 191.083 223.731 190.966 223.553 190.906L223.111 190.755C222.799 190.651 222.758 190.563 222.591 190.828L221.551 192.419C221.057 193.105 220.511 193.24 220.194 193.147L219.965 193.063C219.903 191.904 219.825 190.1 219.794 189.424C219.69 187.344 221.723 184.006 225.758 186.101L228.909 187.625Z" fill="#353E47"/>
<path d="M223.401 190.505C223.605 190.57 223.777 190.708 223.884 190.893C223.992 191.077 224.027 191.295 223.984 191.504L223.464 193.002C223.424 193.086 223.36 193.156 223.281 193.204C223.201 193.252 223.109 193.276 223.016 193.272C222.564 193.215 222.496 192.783 222.455 192.31C222.455 192.284 222.418 191.603 222.413 191.561C222.392 190.979 222.694 190.266 223.401 190.505Z" fill="#EDDECC"/>
<path d="M109.471 224.989C109.33 224.573 109.798 224.11 110.178 223.98C110.308 223.938 110.126 223.132 110.22 222.779C110.232 222.72 110.259 222.666 110.298 222.62C110.336 222.575 110.385 222.539 110.441 222.517C110.496 222.495 110.556 222.487 110.616 222.494C110.675 222.5 110.732 222.521 110.781 222.555C110.852 223.093 110.892 223.635 110.901 224.178C110.974 225.218 110.594 225.4 110.22 225.525C109.845 225.649 109.616 225.405 109.471 224.989Z" fill="#E9D6B8"/>
<path d="M109.101 225.779L110.199 225.43V224L110.131 223.793L109.403 222.155C109.361 222.044 109.298 221.943 109.217 221.857C109.136 221.771 109.039 221.701 108.931 221.653C108.824 221.605 108.707 221.578 108.589 221.575C108.471 221.572 108.353 221.592 108.243 221.635C107.671 221.817 108.181 221.635 108.181 221.635C107.964 221.714 107.784 221.871 107.677 222.076C107.57 222.281 107.544 222.519 107.603 222.742L108.123 224.999C108.248 225.462 108.597 225.94 109.101 225.779Z" fill="#E9D6B8"/>
<path d="M121.835 246.785C121.789 246.985 121.67 247.16 121.502 247.277C121.334 247.395 121.128 247.445 120.925 247.419C120.789 247.419 120.529 248.153 120.306 248.423C120.274 248.47 120.231 248.509 120.181 248.536C120.13 248.562 120.074 248.576 120.017 248.576C119.96 248.576 119.904 248.562 119.854 248.536C119.803 248.509 119.76 248.47 119.729 248.423C119.852 247.948 120.009 247.482 120.197 247.029C120.55 246.083 121.013 245.989 121.393 246.036C121.772 246.083 121.876 246.364 121.835 246.785Z" fill="#E9D6B8"/>
<path d="M122.439 246.223L121.341 246.093L120.785 247.351V247.57L120.728 249.182C120.723 249.427 120.806 249.666 120.961 249.857C121.117 250.047 121.334 250.176 121.575 250.222C122.142 250.326 121.638 250.222 121.638 250.222C121.86 250.239 122.081 250.172 122.256 250.034C122.431 249.897 122.548 249.698 122.584 249.478L123.021 247.299C123.063 246.837 122.943 246.28 122.439 246.223Z" fill="#E9D6B8"/>
<path d="M110.858 225.056L108.419 225.82C108.379 225.826 108.341 225.84 108.307 225.862C108.273 225.884 108.244 225.913 108.223 225.947C108.201 225.981 108.187 226.02 108.181 226.06C108.176 226.1 108.179 226.14 108.191 226.179L110.245 232.107C110.321 232.385 110.475 232.635 110.688 232.828C110.902 233.022 111.167 233.15 111.451 233.198L117.566 234.493C117.566 234.493 119.646 234.711 119.88 233.136C120.082 231.821 119.084 231.306 118.179 231.165C117.462 231.056 114.487 230.682 113.307 230.531C113.162 230.512 113.024 230.453 112.91 230.361C112.795 230.27 112.708 230.149 112.657 230.011L110.858 225.056Z" fill="#434C59"/>
<path d="M116.729 256.638L115.918 260.012C115.84 260.444 115.741 260.891 116.215 261.203L116.464 261.369C116.787 261.583 116.984 261.64 117.187 261.307L118.789 258.822C118.991 258.498 119.146 258.148 119.252 257.782C119.252 257.782 119.455 256.986 119.517 256.825C119.637 256.508 120.198 256.139 120.469 256.305L121.254 255.125C121.426 254.865 121.415 254.745 121.212 254.605L119.085 253.191L116.729 256.638Z" fill="#434C59"/>
<path d="M116.448 261.364C116.771 261.577 116.968 261.635 117.171 261.302L118.773 258.816C118.975 258.493 119.13 258.143 119.236 257.777C119.236 257.777 119.439 256.981 119.501 256.82C119.647 256.43 119.943 257.08 120.172 256.737L121.238 255.13C121.41 254.87 121.399 254.75 121.196 254.61L120.973 254.464L116.448 261.364Z" fill="#586273"/>
<path d="M95.4835 244.185L93.8713 241.705C93.6164 241.346 93.3512 240.961 92.8312 241.081L92.5347 241.143C92.1551 241.227 92.0147 241.315 92.0719 241.705L92.6855 244.715C92.778 245.093 92.9233 245.455 93.1172 245.792C93.1172 245.792 93.5384 246.494 93.6372 246.65C93.7829 246.956 93.6372 247.617 93.3356 247.69L93.6268 249.083C93.6945 249.385 93.7829 249.463 94.0221 249.416L96.5236 248.896L95.4835 244.185Z" fill="#353E47"/>
<path d="M92.5347 241.138C92.1551 241.221 92.0147 241.31 92.0719 241.7L92.6855 244.71C92.778 245.088 92.9233 245.45 93.1172 245.787C93.1172 245.787 93.5384 246.488 93.6372 246.644C93.8141 247.024 93.1172 246.774 93.2264 247.164L93.6268 249.052C93.6945 249.353 93.7829 249.431 94.0221 249.385L94.2821 249.327L92.5347 241.138Z" fill="#586273"/>
<path d="M109.684 242.11L109.954 250.216C109.952 250.662 110.054 251.102 110.252 251.502C110.451 251.901 110.741 252.248 111.098 252.515L116.578 257.007L119.09 253.799C119.35 253.471 119.371 253.175 118.814 252.759L115.123 250.034C114.946 249.907 114.807 249.733 114.721 249.533C114.635 249.332 114.605 249.112 114.634 248.896L115.788 240.249L109.684 242.11Z" fill="#353E47"/>
<path d="M122.797 233.058L123.161 231.124L125.392 227.905L123.203 226.392L121.248 229.221C121.176 229.361 121.076 229.485 120.954 229.585C120.833 229.685 120.692 229.759 120.541 229.803L118.279 230.781C117.336 231.072 116.513 231.661 115.934 232.46L111.524 238.835L116.204 243.155L122.059 234.691C122.409 234.2 122.66 233.645 122.797 233.058Z" fill="#E9D6B8"/>
<path d="M111.478 239.251L102.799 241.606L95.8786 244.003C95.2234 244.206 95.0363 244.409 95.1766 245.09C95.1766 245.163 95.9826 248.875 95.9826 248.875C96.0554 249.114 96.1386 249.088 96.4142 249.036L104.24 246.322L115.456 244.45L111.478 239.251Z" fill="#434C59"/>
<path d="M118.279 230.781C117.733 231.015 115.757 231.774 115.018 232.861L109.917 240.259C109.699 240.577 109.663 240.655 109.975 240.873L115.559 244.861C115.876 245.079 115.97 245.038 116.188 244.721L122.22 235.835C123.061 234.526 123.475 232.989 123.406 231.436L119.677 230.209L118.279 230.781Z" fill="#586273"/>
<path d="M120.317 245.428C120.171 245.885 120.389 246.031 120.535 246.078L123.088 246.899L124.378 241.871C124.555 240.988 124.544 240.078 124.347 239.199L123.187 234.108C123.187 234.108 122.693 231.951 121.071 232.299C119.724 232.585 119.594 233.744 119.791 234.67C119.942 235.382 120.597 238.18 120.982 239.537C121.11 239.977 121.135 240.442 121.055 240.894L120.317 245.428Z" fill="#697484"/>
<path d="M119.942 230.063L118.277 230.781C118.064 230.869 117.783 230.968 117.477 231.124L119.162 231.837L123.176 231.561L123.27 231.265L123.488 230.656L119.942 230.063Z" fill="#E4E6EA"/>
<path d="M117.717 230.999C116.905 231.33 116.147 231.783 115.471 232.341C115.558 232.346 115.646 232.337 115.731 232.315L120.245 231.764C119.37 231.631 118.519 231.373 117.717 230.999Z" fill="#588BA5"/>
<path d="M118.092 231.093C118.193 231.01 118.316 230.959 118.446 230.947L119.429 230.859L119.949 230.256L119.678 230.167L118.3 230.75C117.279 231.13 116.323 231.667 115.466 232.341C115.553 232.346 115.641 232.337 115.726 232.315L116.724 232.18L118.092 231.093Z" fill="#71A5C5"/>
<path d="M123.437 230.37C123.64 230.37 123.765 230.552 123.666 230.89L123.411 231.623L119.251 231.259C119.074 231.259 118.944 231.233 119.022 231.093L119.631 230.219C119.87 229.871 119.943 229.881 120.359 229.954L123.437 230.37Z" fill="white"/>
<path d="M124.767 222.41L122.979 221.229L120.103 225.976C119.256 227.323 119.661 227.905 120.046 228.191C120.858 228.687 121.779 228.975 122.729 229.029C123.982 229.138 125.043 227.619 125.142 227.505L127.596 224.692L124.767 222.41Z" fill="#E9D6B8"/>
<path d="M123.817 220.361C123.182 219.976 122.522 220.85 122.985 221.629C123.219 222.025 123.874 223.039 123.874 223.039C123.981 223.185 124.033 223.366 124.018 223.547C124.004 223.728 123.925 223.898 123.796 224.026L122.844 225.331C122.714 225.503 122.709 225.701 123.026 225.794C123.152 225.802 123.278 225.783 123.396 225.739C123.514 225.695 123.622 225.627 123.713 225.539C123.872 225.541 124.026 225.592 124.155 225.685L124.477 225.919C124.706 226.085 124.784 226.07 124.685 226.325L124.092 227.832C123.984 228.04 123.941 228.275 123.97 228.508C123.998 228.74 124.097 228.958 124.254 229.132L124.42 229.252C125.257 228.732 126.552 227.9 127.02 227.604C128.502 226.673 129.849 223.621 126.422 221.832L123.817 220.361Z" fill="#353E47"/>
<path d="M124.503 225.597C124.358 225.487 124.177 225.435 123.996 225.45C123.814 225.466 123.645 225.547 123.52 225.68L122.73 226.772C122.69 226.841 122.671 226.92 122.675 227C122.68 227.079 122.708 227.156 122.756 227.219C123.021 227.505 123.349 227.334 123.702 227.141L124.222 226.803C124.664 226.533 124.997 225.971 124.503 225.597Z" fill="#EDDECC"/>
<path d="M372.676 177.46V177.429L374.475 176.831C375.252 176.59 375.974 176.197 376.598 175.674C377.222 175.151 377.735 174.51 378.108 173.786C378.481 173.063 378.707 172.272 378.771 171.461C378.834 170.649 378.736 169.833 378.481 169.06C378.226 168.287 377.82 167.573 377.285 166.959C376.751 166.345 376.1 165.843 375.369 165.484C374.639 165.124 373.844 164.914 373.032 164.865C372.219 164.816 371.405 164.93 370.637 165.199L369.202 165.672C366.471 161.44 362.36 158.284 357.565 156.74V155.788C357.557 154.164 356.905 152.609 355.751 151.465C354.597 150.322 353.036 149.684 351.411 149.692C349.787 149.699 348.232 150.352 347.088 151.506C345.945 152.66 345.307 154.221 345.314 155.845V156.428C340.147 157.807 335.666 161.038 332.726 165.506L332.32 165.376C330.773 164.881 329.092 165.021 327.648 165.765C326.204 166.509 325.115 167.796 324.619 169.343C324.124 170.89 324.264 172.571 325.008 174.015C325.752 175.459 327.04 176.549 328.587 177.044L329.154 177.221C329.154 177.304 329.154 177.382 329.154 177.46C329.147 182.588 330.958 187.553 334.265 191.472L333.641 192.341C333.155 192.992 332.803 193.735 332.607 194.524C332.411 195.313 332.373 196.133 332.497 196.937C332.621 197.74 332.904 198.511 333.329 199.204C333.754 199.898 334.313 200.499 334.973 200.974C335.633 201.449 336.381 201.788 337.173 201.971C337.966 202.154 338.787 202.177 339.588 202.039C340.389 201.902 341.155 201.606 341.841 201.169C342.527 200.732 343.119 200.163 343.583 199.495L344.477 198.253C349.074 199.67 354.01 199.527 358.517 197.847L359.671 199.407C360.632 200.717 362.074 201.591 363.68 201.838C365.287 202.085 366.925 201.683 368.235 200.722C369.545 199.761 370.42 198.319 370.666 196.713C370.913 195.107 370.512 193.469 369.55 192.159L368.344 190.495C371.166 186.736 372.686 182.16 372.676 177.46ZM350.909 195.055C347.427 195.055 344.023 194.022 341.128 192.088C338.232 190.153 335.976 187.404 334.643 184.187C333.311 180.97 332.962 177.43 333.641 174.015C334.321 170.599 335.998 167.462 338.46 165C340.922 162.538 344.059 160.861 347.475 160.182C350.89 159.503 354.43 159.851 357.647 161.184C360.864 162.516 363.614 164.773 365.548 167.668C367.483 170.563 368.516 173.967 368.516 177.449C368.516 179.761 368.061 182.051 367.177 184.187C366.292 186.324 364.996 188.265 363.36 189.9C361.725 191.535 359.784 192.832 357.648 193.716C355.511 194.601 353.222 195.056 350.909 195.055Z" fill="white"/>
<path d="M350.91 161.892C347.831 161.892 344.821 162.805 342.261 164.516C339.701 166.226 337.705 168.658 336.527 171.502C335.349 174.347 335.04 177.477 335.641 180.497C336.242 183.516 337.724 186.29 339.902 188.467C342.079 190.645 344.853 192.127 347.873 192.728C350.893 193.329 354.023 193.02 356.867 191.842C359.712 190.664 362.144 188.668 363.854 186.108C365.565 183.548 366.478 180.539 366.478 177.46C366.478 173.331 364.838 169.371 361.918 166.452C358.998 163.532 355.039 161.892 350.91 161.892ZM350.91 190.094C348.411 190.094 345.968 189.353 343.89 187.965C341.812 186.577 340.193 184.604 339.236 182.295C338.28 179.986 338.03 177.446 338.517 174.995C339.005 172.544 340.208 170.293 341.975 168.526C343.742 166.758 345.994 165.555 348.445 165.068C350.896 164.58 353.436 164.83 355.745 165.787C358.054 166.743 360.027 168.362 361.416 170.44C362.804 172.518 363.545 174.961 363.545 177.46C363.546 179.119 363.22 180.762 362.585 182.296C361.95 183.829 361.019 185.222 359.846 186.395C358.672 187.569 357.279 188.499 355.746 189.134C354.213 189.769 352.569 190.095 350.91 190.094Z" fill="white"/>
<path d="M356.947 175.37C357.134 175.276 357.129 174.964 357.046 174.792C357.046 174.73 357.353 174.522 357.441 174.371C357.457 174.347 357.467 174.32 357.469 174.291C357.472 174.263 357.468 174.234 357.456 174.207C357.445 174.181 357.427 174.158 357.404 174.14C357.382 174.122 357.355 174.111 357.326 174.106C357.117 174.265 356.919 174.439 356.734 174.626C356.354 174.959 356.427 175.146 356.51 175.312C356.593 175.479 356.754 175.463 356.947 175.37Z" fill="#E9D6B8"/>
<path d="M356.801 175.765L356.552 175.276L357.041 174.798L357.134 174.751L357.935 174.439C357.987 174.415 358.042 174.401 358.099 174.398C358.156 174.396 358.213 174.405 358.266 174.425C358.319 174.445 358.368 174.475 358.41 174.514C358.451 174.553 358.484 174.6 358.507 174.652C358.642 174.907 358.507 174.678 358.507 174.678C358.554 174.779 358.562 174.894 358.528 175C358.494 175.106 358.422 175.195 358.325 175.25L357.425 175.817C357.202 175.947 356.905 175.994 356.801 175.765Z" fill="#E9D6B8"/>
<path d="M345.372 178.567C345.323 178.651 345.306 178.749 345.323 178.845C345.34 178.94 345.391 179.026 345.466 179.087C345.518 179.129 345.352 179.467 345.336 179.633C345.332 179.66 345.335 179.688 345.344 179.714C345.353 179.74 345.368 179.763 345.388 179.782C345.408 179.801 345.432 179.814 345.458 179.822C345.484 179.83 345.512 179.831 345.539 179.826C345.658 179.622 345.762 179.41 345.851 179.191C346.054 178.754 345.924 178.567 345.783 178.453C345.643 178.338 345.502 178.416 345.372 178.567Z" fill="#E9D6B8"/>
<path d="M345.356 178.172L345.773 178.5L345.539 179.113L345.471 179.197L344.951 179.763C344.867 179.843 344.759 179.892 344.644 179.903C344.529 179.915 344.414 179.887 344.316 179.826C344.088 179.67 344.316 179.826 344.316 179.826C344.236 179.757 344.184 179.661 344.172 179.556C344.159 179.451 344.187 179.345 344.249 179.259L344.842 178.37C344.946 178.172 345.169 178.021 345.356 178.172Z" fill="#E9D6B8"/>
<path d="M356.453 174.928L357.02 176.009C357.03 176.025 357.038 176.043 357.041 176.062C357.045 176.081 357.045 176.101 357.041 176.119C357.037 176.138 357.03 176.156 357.019 176.172C357.008 176.188 356.994 176.202 356.978 176.212L354.274 177.523C354.153 177.59 354.016 177.622 353.878 177.614C353.74 177.607 353.607 177.561 353.494 177.481L350.983 175.848C350.983 175.848 350.208 175.224 350.66 174.605C350.73 174.509 350.82 174.43 350.924 174.373C351.028 174.315 351.143 174.281 351.261 174.273C351.38 174.265 351.498 174.282 351.609 174.324C351.72 174.366 351.82 174.432 351.903 174.517C352.184 174.72 353.317 175.598 353.77 175.952C353.825 175.994 353.89 176.02 353.958 176.028C354.027 176.036 354.096 176.026 354.16 175.999L356.453 174.928Z" fill="#434C59"/>
<path d="M343.765 183.616L342.897 185.03C342.777 185.207 342.658 185.389 342.377 185.337L342.236 185.306C342.054 185.269 341.976 185.228 342.013 185.041L342.314 183.658C342.357 183.476 342.423 183.301 342.512 183.138C342.512 183.138 342.715 182.8 342.751 182.727C342.788 182.654 342.751 182.264 342.6 182.233L342.736 181.567C342.762 181.422 342.808 181.38 342.923 181.406L344.119 181.645L343.765 183.616Z" fill="#434C59"/>
<path d="M342.258 185.332C342.076 185.295 341.998 185.254 342.034 185.067L342.336 183.684C342.378 183.502 342.444 183.327 342.533 183.164C342.533 183.164 342.736 182.826 342.773 182.753C342.856 182.571 342.533 182.69 342.575 182.498L342.757 181.593C342.783 181.448 342.83 181.406 342.944 181.432H343.069L342.258 185.332Z" fill="#586273"/>
<path d="M355.184 186.616L356.567 186.32C356.775 186.283 356.989 186.236 357.139 186.465L357.217 186.585C357.316 186.741 357.342 186.829 357.181 186.933L355.954 187.745C355.791 187.841 355.616 187.914 355.434 187.963C355.434 187.963 355.054 188.057 354.971 188.088C354.888 188.119 354.643 188.41 354.726 188.535L354.154 188.91C354.029 188.988 353.972 188.988 353.91 188.91L353.244 187.869L355.184 186.616Z" fill="#353E47"/>
<path d="M357.212 186.58C357.311 186.736 357.337 186.824 357.176 186.928L355.948 187.739C355.786 187.835 355.611 187.909 355.428 187.958C355.428 187.958 355.049 188.051 354.965 188.083C354.778 188.15 355.09 188.291 354.924 188.4L354.149 188.92C354.024 188.998 353.967 188.998 353.905 188.92L353.837 188.811L357.212 186.58Z" fill="#586273"/>
<path d="M351.072 181.099L348.238 183.751C348.088 183.905 347.904 184.021 347.7 184.089C347.497 184.158 347.28 184.178 347.068 184.146L343.693 183.808L343.933 181.874C343.933 181.676 344.047 181.567 344.369 181.619L346.543 181.947C346.646 181.963 346.752 181.95 346.849 181.911C346.946 181.871 347.031 181.807 347.094 181.723L349.626 178.416L351.072 181.099Z" fill="#353E47"/>
<path d="M349.698 173.591L350.218 172.811L350.556 170.966L351.809 171.194L351.513 172.817C351.469 172.962 351.484 173.119 351.554 173.253L351.991 174.35C352.21 174.769 352.288 175.246 352.215 175.713L351.549 179.352L348.491 179.222L349.375 174.371C349.432 174.093 349.542 173.828 349.698 173.591Z" fill="#E9D6B8"/>
<path d="M351.44 179.514L353.577 183.247L355.1 186.408C355.256 186.699 355.251 186.835 354.97 187.011L353.411 188.051C353.307 188.108 353.286 188.051 353.213 187.958L351.481 184.391L348.325 179.961L351.44 179.514Z" fill="#434C59"/>
<path d="M352.002 174.35C352.276 174.912 352.414 175.53 352.402 176.155L351.633 180.403C351.596 180.585 351.586 180.621 351.404 180.59L348.159 180.07C347.977 180.039 347.961 179.992 347.992 179.81L348.96 174.756C349.122 174.03 349.503 173.371 350.052 172.869L351.731 173.711L352.002 174.35Z" fill="#586273"/>
<path d="M346.349 178.624C346.245 178.827 346.121 178.806 346.058 178.77L344.914 178.188L346.178 176.045C346.418 175.687 346.729 175.383 347.093 175.151L349.215 173.82C349.215 173.82 350.115 173.258 350.546 173.924C350.613 174.027 350.657 174.144 350.674 174.266C350.691 174.388 350.681 174.512 350.646 174.629C350.61 174.747 350.549 174.856 350.467 174.948C350.386 175.04 350.285 175.113 350.172 175.162C349.881 175.349 348.71 176.077 348.123 176.404C347.93 176.511 347.765 176.66 347.639 176.841L346.349 178.624Z" fill="#697484"/>
<path d="M351.705 173.545L352.028 174.351C352.069 174.455 352.127 174.585 352.179 174.741L351.367 174.408L350.104 172.957L350.171 172.822L350.306 172.546L351.705 173.545Z" fill="#E4E6EA"/>
<path d="M352.111 174.611C352.274 174.997 352.377 175.405 352.418 175.822C352.387 175.795 352.359 175.763 352.335 175.729L350.993 174.012C351.336 174.262 351.713 174.464 352.111 174.611Z" fill="#588BA5"/>
<path d="M351.96 174.517C351.952 174.456 351.927 174.398 351.888 174.351L351.586 173.987V173.602L351.706 173.659L351.976 174.325C352.192 174.799 352.335 175.304 352.397 175.822C352.366 175.795 352.338 175.763 352.314 175.729L352.023 175.344L351.96 174.517Z" fill="#71A5C5"/>
<path d="M350.395 172.468C350.322 172.401 350.224 172.421 350.151 172.557L349.984 172.895L351.513 174.174C351.571 174.236 351.623 174.268 351.649 174.174L351.737 173.654C351.773 173.451 351.737 173.43 351.581 173.311L350.395 172.468Z" fill="white"/>
<path d="M352.637 169.317L353.646 169.52L353.011 172.12C352.84 172.864 352.491 172.926 352.278 172.89C351.836 172.783 351.427 172.569 351.087 172.266C350.624 171.881 350.78 171.002 350.785 170.935L350.91 169.156L352.637 169.317Z" fill="#E9D6B8"/>
<path d="M353.651 168.948C353.999 169.031 353.926 169.552 353.505 169.656C353.292 169.713 352.73 169.832 352.73 169.832C352.644 169.847 352.565 169.891 352.508 169.958C352.451 170.024 352.419 170.109 352.418 170.196L352.304 170.961C352.304 171.06 352.22 171.127 352.08 171.054C351.94 170.982 351.95 170.846 351.934 170.737C351.881 170.682 351.812 170.646 351.737 170.633H351.55C351.414 170.633 351.393 170.581 351.341 170.696L351.029 171.408C350.879 171.72 350.66 171.814 350.509 171.793H350.411L350.088 170.352C349.901 169.531 350.483 168.043 352.246 168.6L353.651 168.948Z" fill="#353E47"/>
<path d="M351.649 170.487C351.734 170.499 351.813 170.542 351.869 170.608C351.925 170.675 351.954 170.759 351.95 170.846L351.851 171.481C351.851 171.481 351.815 171.616 351.695 171.626C351.576 171.637 351.456 171.465 351.399 171.278C351.399 171.278 351.337 170.997 351.331 170.981C351.279 170.747 351.347 170.44 351.649 170.487Z" fill="#EDDECC"/>
</svg>
