<svg width="98" height="24" viewBox="0 0 98 24" fill="none" xmlns="http://www.w3.org/2000/svg">
<path fill-rule="evenodd" clip-rule="evenodd" d="M0 6.42519C0 4.17613 0 3.05165 0.437897 2.19263C0.823086 1.43702 1.4377 0.822698 2.19366 0.437688C3.05309 4.31182e-08 4.17814 0 6.42824 0H17.6717C19.9217 0 21.0468 4.31182e-08 21.9062 0.437688C22.6622 0.822698 23.2768 1.43702 23.662 2.19263C24.0999 3.05165 24.0999 4.17613 24.0999 6.42519V17.5748C24.0999 19.8238 24.0999 20.9483 23.662 21.8074C23.2768 22.563 22.6622 23.1773 21.9062 23.5623C21.0468 24 19.9217 24 17.6717 24H6.42824C4.17814 24 3.05309 24 2.19366 23.5623C1.4377 23.1773 0.823086 22.563 0.437897 21.8074C0 20.9483 0 19.8238 0 17.5748V6.42519ZM5.22702 6.00113C4.814 6.00113 4.65487 6.50969 5.00142 6.72215L13.6712 11.928C13.8872 12.0604 14.1755 12.0081 14.3243 11.8093L18.1361 6.82581C18.3953 6.47959 18.1334 6.00113 17.6849 6.00113H5.22702ZM19.0832 17.2774C19.4297 17.4898 19.2665 18.0012 18.8534 18.0012H6.40508C5.95654 18.0012 5.68651 17.5262 5.94561 17.18L9.76484 12.1974C9.91364 11.9987 10.1948 11.9397 10.4109 12.0722L19.0832 17.2774Z" fill="#2D2D2D"/>
<path d="M32.1016 17.4946L37.7114 8.21748H32.7268V6.16309H41.4786V6.47292L35.984 15.7501H41.2812V17.8207H32.1016V17.4946Z" fill="#2D2D2D"/>
<path d="M44.384 6.16309H52.0501V8.21748H47.0326V10.9403H51.0467V12.8642H47.0326V15.7664H52.3133V17.8207H44.384V6.16309Z" fill="#2D2D2D"/>
<path d="M55.396 6.16309H59.6074C60.2985 6.16309 60.9234 6.23376 61.4829 6.37512C62.0424 6.5164 62.5191 6.73378 62.9141 7.02726C63.3091 7.32075 63.6105 7.69026 63.8188 8.13595C64.0379 8.58157 64.1478 9.10336 64.1478 9.70118V9.76643C64.1478 10.2121 64.0877 10.6033 63.967 10.9403C63.8464 11.2773 63.6765 11.5707 63.4568 11.8208C63.2377 12.0708 62.9801 12.2827 62.6835 12.4566C62.3876 12.6305 62.0694 12.7664 61.7297 12.8642L64.8387 17.8207H62.0094L59.1961 13.3207H58.0446V17.8207H55.396V6.16309ZM59.5416 11.5273C60.2109 11.5273 60.7097 11.3859 61.0387 11.1034C61.3785 10.8207 61.5483 10.4023 61.5483 9.84789V9.78271C61.5483 9.18489 61.373 8.77183 61.0225 8.54352C60.6821 8.30443 60.1886 8.18486 59.5416 8.18486H58.0446V11.5273H59.5416Z" fill="#2D2D2D"/>
<path d="M67.6406 6.16309H70.3216V17.8207H67.6406V6.16309Z" fill="#2D2D2D"/>
<path d="M79.1576 15.8967C79.6513 15.8967 80.0949 15.8043 80.4901 15.6195C80.8962 15.4347 81.2414 15.1739 81.5266 14.837C81.8009 14.5108 82.0144 14.1086 82.1679 13.6304C82.322 13.1521 82.398 12.6195 82.398 12.0325V11.9022C82.398 11.3369 82.322 10.8206 82.1679 10.3532C82.0253 9.88584 81.8168 9.4837 81.5425 9.14673C81.2573 8.80977 80.9121 8.54891 80.5068 8.36408C80.1007 8.17925 79.6404 8.08695 79.1243 8.08695C78.6097 8.08695 78.1487 8.17925 77.7426 8.36408C77.3482 8.53799 77.008 8.788 76.7228 9.11411C76.4376 9.45107 76.2183 9.85871 76.0649 10.337C75.9223 10.8043 75.8514 11.3315 75.8514 11.9185V12.0489C75.8514 12.6467 75.9331 13.1847 76.0974 13.663C76.2625 14.1304 76.4926 14.5272 76.7887 14.8532C77.0738 15.1902 77.4191 15.4511 77.8251 15.6358C78.2305 15.8097 78.6749 15.8967 79.1576 15.8967ZM79.1084 18C78.187 18 77.3539 17.8532 76.6077 17.5598C75.8615 17.2554 75.2318 16.837 74.7157 16.3043C74.1895 15.7825 73.7835 15.1576 73.4983 14.4293C73.2132 13.701 73.0713 12.913 73.0713 12.0652V11.9347C73.0713 11.0651 73.2189 10.2663 73.515 9.53795C73.8219 8.80977 74.2496 8.18475 74.7982 7.66296C75.3353 7.14131 75.9715 6.73368 76.7062 6.44019C77.4415 6.14671 78.2478 6 79.1243 6C80.0131 6 80.8245 6.14128 81.5592 6.42384C82.3054 6.70648 82.9467 7.10326 83.4844 7.61406C84.0106 8.13585 84.4217 8.75537 84.7178 9.47277C85.0254 10.1902 85.1788 10.9891 85.1788 11.8696V12C85.1788 12.8695 85.0305 13.6739 84.7344 14.413C84.4493 15.1413 84.0439 15.7717 83.517 16.3043C82.9908 16.837 82.3546 17.2554 81.6084 17.5598C80.8629 17.8532 80.0291 18 79.1084 18Z" fill="#2D2D2D"/>
<path d="M88.064 6.16309H91.1567L95.6319 13.8425V6.16309H98.0001V17.8207H95.3359L90.4329 9.52185V17.8207H88.064V6.16309Z" fill="#2D2D2D"/>
</svg>
