<svg width="66" height="32" viewBox="0 0 66 32" fill="none" xmlns="http://www.w3.org/2000/svg">
<path d="M23.8887 21.5356C25.0059 23.0875 26.1582 24.6755 27.3104 26.2636C25.0059 29.0787 22.1429 30.8832 18.6863 31.6412C14.8455 32.4713 11.2144 31.8577 7.68783 29.8366C10.8303 27.4185 13.9028 25.0365 17.0103 22.6544C17.7086 23.3401 18.372 24.0259 19.0354 24.6755C19.7687 25.3974 19.4893 25.4335 20.432 24.892C21.7239 24.1341 22.8063 23.0875 23.6442 21.8243C23.6792 21.7521 23.749 21.6799 23.7839 21.6078C23.749 21.6078 23.7839 21.6078 23.8887 21.5356ZM10.1668 24.7116C9.29399 25.3974 8.49087 26.0109 7.68783 26.6606C7.09427 27.1297 6.50071 27.5628 5.90714 28.0321C5.66273 28.2486 5.48818 28.2486 5.20885 27.9959C2.55528 25.5417 0.879332 22.51 0.250853 18.9009C-0.377625 15.2556 0.181023 11.7909 1.85697 8.5066C1.89188 8.43443 1.96171 8.3261 1.99663 8.25393C1.99663 8.21785 2.03154 8.21784 2.10137 8.18176C4.4058 11.3217 6.74512 14.4616 9.04957 17.6016C8.9797 17.7099 8.94484 17.7821 8.87496 17.8542C8.17666 18.6122 7.47836 19.3701 6.74512 20.0919C6.53564 20.3085 6.50071 20.4889 6.64038 20.7416C7.37362 22.1852 8.38614 23.3762 9.64314 24.3507C9.81767 24.459 9.95735 24.5673 10.1668 24.7116ZM23.1904 2.29887C22.073 3.12898 20.9558 3.95907 19.8385 4.75309C17.9181 6.16065 15.9977 7.60434 14.1123 9.01185C13.8679 9.19235 13.6933 9.22843 13.4838 8.97577C12.8554 8.29001 12.1919 7.67651 11.5635 6.99075C11.3889 6.81029 11.2144 6.7742 10.9699 6.88248C9.46852 7.67651 8.2814 8.79535 7.30375 10.2029C7.23395 10.275 7.16415 10.3834 7.09427 10.4916C6.53564 9.73369 6.01188 9.04793 5.48818 8.3261C4.92953 7.56818 4.4058 6.81029 3.88206 6.08847C3.70749 5.83583 3.67257 5.65537 3.91698 5.40273C6.60545 2.33496 9.92241 0.530392 13.9028 0.0972989C17.0452 -0.263615 20.0479 0.38603 22.8412 1.93796C22.9459 2.01014 23.0507 2.04624 23.1554 2.11842C23.1554 2.22669 23.1554 2.26278 23.1904 2.29887ZM28.8816 23.9537C28.1483 22.9792 27.485 22.0769 26.8215 21.1747C25.2853 19.0813 23.749 16.952 22.1778 14.8586C21.9683 14.57 21.9683 14.3895 22.2127 14.1369C22.8761 13.4511 23.5046 12.7654 24.1679 12.0796C24.3425 11.8992 24.4123 11.7187 24.2727 11.4661C23.5046 9.95027 22.4571 8.68702 21.0954 7.67651C20.9906 7.60434 20.8859 7.49603 20.7462 7.42385C20.851 7.31557 20.9558 7.24339 21.0256 7.17121C22.3524 6.12456 23.6792 5.114 25.0059 4.06735C25.2155 3.88689 25.39 3.81471 25.6344 4.06735C28.9514 7.17121 30.7321 11.0329 30.9067 15.6888C30.9765 18.3957 30.3829 20.9581 29.1958 23.3762C29.0911 23.5206 28.9863 23.701 28.8816 23.9537Z" fill="#2D2D2D"/>
<path d="M52.6665 15.91C52.6635 17.3355 52.5368 18.7444 52.1421 20.1159C51.9134 20.91 51.5994 21.6633 51.1457 22.3474C50.2341 23.7224 48.9875 24.517 47.3946 24.7076C46.5487 24.8088 45.7144 24.7538 44.899 24.4891C43.6394 24.0802 42.7002 23.2447 42.0154 22.0812C41.4762 21.1651 41.1554 20.1616 40.9549 19.1129C40.6721 17.6333 40.6259 16.1392 40.7139 14.6373C40.7788 13.5329 40.9415 12.4472 41.2714 11.3938C41.5717 10.435 41.9997 9.54832 42.652 8.79376C43.5188 7.79051 44.6045 7.23808 45.8814 7.08C46.6802 6.981 47.4709 7.02313 48.2476 7.24691C49.4426 7.59104 50.3824 8.31584 51.0946 9.37001C51.7168 10.2909 52.0879 11.3245 52.327 12.4156C52.5791 13.5654 52.6651 14.7334 52.6665 15.91ZM48.7106 9.70969C48.6805 9.67212 48.6687 9.65119 48.6516 9.63689C48.6042 9.59761 48.5554 9.55973 48.5054 9.52427C48.0235 9.18155 47.4877 8.99995 46.9093 8.96184C45.8989 8.89522 45.0059 9.17913 44.2835 9.95298C43.8745 10.3911 43.5896 10.9112 43.3709 11.4744C43.0312 12.3494 42.8633 13.2672 42.7833 14.2017C42.6652 15.5803 42.6717 16.9588 42.8676 18.3307C42.9766 19.0936 43.1541 19.8384 43.4576 20.5451C43.4804 20.5983 43.5143 20.6464 43.5607 20.7281C45.2889 17.0306 47.0015 13.3667 48.7106 9.70969ZM44.6043 22.1627C44.6951 22.2281 44.762 22.2783 44.8309 22.3254C45.3601 22.6867 45.9455 22.8515 46.5726 22.8637C47.7107 22.8858 48.6371 22.4418 49.3301 21.4864C49.5699 21.1561 49.7588 20.795 49.9137 20.4146C50.2798 19.5153 50.4591 18.5678 50.5428 17.6012C50.6607 16.2385 50.6532 14.876 50.4589 13.5195C50.3508 12.764 50.1708 12.0283 49.8716 11.3285C49.8484 11.2745 49.8173 11.224 49.7684 11.1314C48.0387 14.826 46.3276 18.4816 44.6045 22.1627H44.6043Z" fill="black"/>
<path d="M62.3665 15.2799C63.576 17.3975 64.7791 19.5038 66 21.6415H63.7687C62.8079 19.9475 61.8344 18.2313 60.8576 16.5088H60.019C59.0293 18.2182 58.0366 19.9328 57.0435 21.6482H54.9262C54.9205 21.6334 54.9169 21.6263 54.9153 21.6186C54.9136 21.6113 54.9114 21.6015 54.9145 21.5961C56.1143 19.5204 57.3142 17.4451 58.5228 15.3551C57.4371 13.3723 56.3502 11.3874 55.247 9.37255H57.3565C58.2478 10.9881 59.1412 12.6073 60.0356 14.2287H60.8872C61.7968 12.6168 62.7128 10.9935 63.6276 9.37231H65.6912C64.5755 11.3548 63.4773 13.3062 62.3667 15.2796L62.3665 15.2799Z" fill="black"/>
</svg>
