<svg width="15" height="15" viewBox="0 0 15 15" fill="none" xmlns="http://www.w3.org/2000/svg">
<path fill-rule="evenodd" clip-rule="evenodd" d="M5.95473 14.9633C5.18364 14.8108 4.5034 14.3098 4.15772 13.6395C3.92328 13.1848 3.90561 13.1681 3.5776 13.0897C2.4739 12.8259 1.4818 11.5291 1.47853 10.3462C1.47776 10.0595 1.45369 10.0228 0.967969 9.56757C0.382278 9.01856 0.115695 8.565 0.029222 7.97051C-0.0894606 7.15469 0.15347 6.39908 0.756205 5.70882L1.06029 5.36063V4.81837C1.06029 4.19936 1.21201 3.70479 1.55491 3.20639C1.99994 2.5596 2.93089 1.96829 3.64292 1.88017C3.8295 1.85707 3.98241 1.80549 3.98283 1.76545C3.98457 1.57611 4.35307 0.986423 4.63252 0.725772C5.65572 -0.228518 7.21168 -0.243701 8.1178 0.691836C8.6015 1.1912 8.73298 1.56735 8.79643 2.63357C8.82725 3.15104 8.86697 3.6109 8.88478 3.65554C8.9067 3.71056 9.08548 3.73665 9.44104 3.73665H9.96496V3.09524C9.96496 2.49355 9.9548 2.44767 9.80141 2.35391C9.55973 2.20623 9.38581 1.81963 9.42831 1.52453C9.56522 0.572315 10.9379 0.395433 11.3178 1.28107C11.4798 1.65884 11.408 1.99703 11.1059 2.27877L10.8693 2.49945V3.36316C10.8693 4.54566 10.897 4.51529 9.82186 4.51529H8.99101V5.13171V5.74814H11.252H13.5129V4.35534C13.5129 3.06137 13.5037 2.95794 13.3828 2.89766C13.212 2.8124 13.0259 2.4395 13.0259 2.18254C13.0259 1.5257 13.8482 1.0602 14.4747 1.36238C15.0799 1.6543 15.178 2.43781 14.6645 2.87774L14.4173 3.08953V4.71079C14.4173 6.24562 14.4099 6.33906 14.2782 6.46189C14.1441 6.58693 14.0463 6.59167 11.5998 6.59167H9.06058V7.33786V8.08406H11.0854H13.1103L13.2481 7.92055C13.9012 7.14625 15.2058 7.74094 14.9724 8.70652C14.799 9.42339 13.8189 9.63764 13.2565 9.0815L13.0332 8.86069L11.0643 8.87789L9.09536 8.89515L9.07547 9.52779L9.05557 10.1604H10.1743C11.2694 10.1604 11.2967 10.1638 11.4638 10.3197C11.6309 10.4755 11.6346 10.5014 11.6346 11.5178C11.6346 12.5058 11.6418 12.5602 11.7803 12.6294C11.9893 12.7337 12.2137 13.2404 12.1625 13.4925C12.0903 13.8494 11.8784 14.0953 11.5391 14.2161C11.1209 14.3651 10.7757 14.3037 10.4798 14.0277C10.0743 13.6495 10.0967 12.9737 10.5243 12.6788L10.7302 12.5368V11.7704V11.004H9.86061H8.99101V11.2814C8.99101 12.0189 8.71622 13.4679 8.5016 13.8623C8.31544 14.2043 7.82081 14.6375 7.41975 14.8098C7.02016 14.9815 6.38396 15.0481 5.95473 14.9633ZM6.78411 13.9849C7.16423 13.8864 7.49976 13.58 7.73858 13.1132L7.94749 12.7049V7.54193C7.94749 2.45027 7.94548 2.37383 7.80091 2.01345C7.52202 1.31832 6.84158 0.864824 6.25463 0.982919C5.42045 1.15078 4.81834 1.88394 5.0141 2.49335C5.13946 2.88365 5.46462 3.2463 5.93358 3.51869C6.51398 3.85584 6.62571 3.96317 6.62571 4.18365C6.62571 4.46208 6.4129 4.67115 6.13031 4.6703C5.62219 4.66875 4.43738 3.76559 4.15223 3.1624C4.02248 2.88793 4.01142 2.88105 3.75089 2.91369C3.39101 2.95866 2.78807 3.34246 2.5322 3.68934C2.41762 3.84455 2.27049 4.12415 2.20509 4.31057C2.08933 4.64071 2.09003 4.74713 2.21309 5.46491C2.25817 5.72783 2.24934 5.74301 1.76515 6.23005C1.21535 6.78308 1.0159 7.21763 1.07754 7.72783C1.14544 8.28956 1.40305 8.61678 2.34652 9.33975C2.54653 9.49301 2.55495 9.52098 2.5674 10.0731C2.57471 10.3968 2.6273 10.7687 2.68803 10.926C2.83482 11.3063 3.18475 11.7459 3.48757 11.9306C3.93733 12.2048 3.96384 12.2013 4.16036 11.8396C4.25845 11.6591 4.46591 11.3826 4.62146 11.2252C4.84832 10.9957 4.95065 10.9391 5.13883 10.9391C5.65732 10.9391 5.81796 11.4267 5.43387 11.8347C5.18322 12.101 4.95984 12.5264 4.95761 12.7418C4.95378 13.1115 5.33529 13.6375 5.75569 13.8422C6.1898 14.0535 6.40427 14.0832 6.78411 13.9849ZM3.97518 9.82088C3.01187 8.83798 2.81597 7.32748 3.49029 6.08159C3.81287 5.48548 4.01601 5.29393 4.32538 5.29393C4.64539 5.29393 4.81695 5.4507 4.81695 5.74321C4.81695 5.85981 4.75329 6.03857 4.67558 6.14038C4.59781 6.24225 4.44977 6.49498 4.3466 6.70197C4.1893 7.01771 4.15904 7.16715 4.15904 7.62985C4.15904 8.26192 4.32545 8.68225 4.77152 9.17708C4.92749 9.35007 5.02565 9.52708 5.02565 9.63524C5.02565 9.89388 4.79232 10.0956 4.49318 10.0956C4.28934 10.0956 4.19564 10.0458 3.97518 9.82088Z" fill="#410EAD"/>
</svg>
