<svg width="11" height="15" viewBox="0 0 11 15" fill="none" xmlns="http://www.w3.org/2000/svg">
<path fill-rule="evenodd" clip-rule="evenodd" d="M3.1933 0.0336496C3.17654 0.0530001 3.16305 0.0958937 3.16333 0.128936C3.16361 0.161979 3.28857 0.452354 3.44102 0.774188C3.59347 1.09599 3.71371 1.36769 3.70822 1.37795C3.70273 1.38819 3.6081 1.457 3.49795 1.53088C2.83686 1.97418 2.28279 2.75166 2.04554 3.56899C1.95622 3.87669 1.89261 4.27725 1.89261 4.53209V4.71882H5.5H9.10739L9.10729 4.56489C9.10714 4.32527 9.03669 3.88156 8.95311 3.59364C8.70583 2.74178 8.18387 2.00344 7.48661 1.51912C7.37145 1.43914 7.29445 1.36693 7.29938 1.34353C7.30397 1.32169 7.42769 1.05008 7.57433 0.739914C7.73658 0.396677 7.83769 0.151072 7.83269 0.112224C7.82136 0.0240916 7.74867 -0.0253108 7.69111 0.0159996C7.66667 0.0335617 7.51869 0.317135 7.36228 0.64621C7.2004 0.98675 7.0636 1.24235 7.04473 1.23951C7.02648 1.23675 6.89723 1.18811 6.75751 1.13138C5.95949 0.807465 5.04979 0.807699 4.24249 1.13203C4.10277 1.18814 3.97344 1.23643 3.9551 1.2393C3.93589 1.24229 3.80592 0.999826 3.64908 0.668346C3.49912 0.351467 3.36125 0.0710899 3.3427 0.0453186C3.30279 -0.0102115 3.23583 -0.0154303 3.1933 0.0336496ZM4.00888 2.55514C4.07081 2.59185 4.15338 2.75328 4.15348 2.83798C4.15363 2.94637 4.08336 3.08953 4.00319 3.14421C3.70748 3.34581 3.40545 2.88937 3.64875 2.60862C3.74861 2.49336 3.8733 2.47486 4.00888 2.55514ZM7.31856 2.56871C7.37813 2.61319 7.42655 2.71076 7.43254 2.79843C7.44245 2.94309 7.4251 3.00134 7.34434 3.09455C7.27728 3.17195 7.23698 3.19423 7.16407 3.19423C7.04269 3.19423 6.9334 3.11838 6.88493 3.00052C6.83148 2.87049 6.83672 2.77975 6.90447 2.6635C6.99785 2.50316 7.17612 2.46237 7.31856 2.56871ZM0.506152 4.92426C0.337139 5.00122 0.152146 5.20915 0.0677021 5.41702L0 5.58373V7.72401V9.8643L0.0681085 10.032C0.356192 10.7414 1.1973 10.7693 1.51592 10.0802L1.57506 9.95225V7.72401V5.49577L1.51996 5.377C1.44435 5.21402 1.27846 5.0291 1.13544 4.94833C0.968991 4.85436 0.6836 4.84345 0.506152 4.92426ZM9.90208 4.92728C9.74821 4.99553 9.56878 5.18467 9.48408 5.36785L9.42494 5.49577V7.72401V9.95225L9.48055 10.0722C9.80296 10.7675 10.6426 10.7443 10.9319 10.032L11 9.8643V7.7234V5.5825L10.9162 5.38597C10.729 4.94727 10.2972 4.75198 9.90208 4.92728ZM1.91801 8.13336C1.91801 11.224 1.91804 11.2255 1.97253 11.3936C2.03891 11.5983 2.21125 11.8196 2.38748 11.9265C2.50734 11.9991 2.53986 12.0044 2.92783 12.014L3.34065 12.0243L3.34339 12.3223C3.34491 12.4862 3.35378 13.0095 3.36308 13.4852C3.37992 14.3459 3.38033 14.3508 3.44704 14.4967C3.53316 14.685 3.67565 14.8427 3.83603 14.9273C4.01683 15.0226 4.32112 15.0226 4.48874 14.9273C4.65457 14.8331 4.80695 14.653 4.88646 14.4573L4.95381 14.2915L4.96179 13.1553L4.96974 12.0192H5.5H6.03026L6.03821 13.1553L6.04619 14.2915L6.11354 14.4573C6.19305 14.653 6.34543 14.8331 6.51126 14.9273C6.68754 15.0275 6.98424 15.0236 7.17838 14.9186C7.33542 14.8336 7.48752 14.6695 7.55929 14.5076C7.64094 14.3233 7.65897 14.056 7.65915 13.0259L7.65935 12.0243L8.07217 12.014C8.46014 12.0044 8.49266 11.9991 8.61252 11.9265C8.78875 11.8196 8.96109 11.5983 9.02747 11.3936C9.08196 11.2255 9.08199 11.224 9.08199 8.13336V5.04133H5.5H1.91801V8.13336Z" fill="#410EAD"/>
</svg>
