<svg width="15" height="8" viewBox="0 0 15 8" fill="none" xmlns="http://www.w3.org/2000/svg">
<path fill-rule="evenodd" clip-rule="evenodd" d="M6.49187 0.102567C6.42894 0.187633 6.41602 0.238767 6.41602 0.402567V0.6H7.5H8.58398V0.402567C8.58398 0.238767 8.57106 0.187633 8.50813 0.102567L8.43228 0H7.5H6.56771L6.49187 0.102567ZM2.05887 0.950367C1.64587 1.05247 1.22461 1.41113 1.01631 1.83797C0.800566 2.28013 0.805664 2.21677 0.805664 4.45C0.805664 6.296 0.809795 6.46527 0.859424 6.64827C1.03576 7.29837 1.43754 7.7596 1.9902 7.94627C2.1295 7.9933 2.38881 8 4.07364 8C5.98072 8 5.99865 7.99937 6.07573 7.9304C6.1822 7.8351 6.22863 7.71823 6.25143 7.4881C6.29086 7.0901 6.47165 6.8078 6.79553 6.63847C6.94031 6.56277 7.0043 6.55203 7.38281 6.53987C7.82098 6.52577 8.07319 6.55837 8.24531 6.65127C8.52 6.7996 8.71198 7.1188 8.74857 7.4881C8.77137 7.71823 8.8178 7.8351 8.92427 7.9304C9.00135 7.99937 9.01928 8 10.9264 8C12.6112 8 12.8705 7.9933 13.0098 7.94627C13.5625 7.7596 13.9642 7.29837 14.1406 6.64827C14.1902 6.46533 14.1943 6.29647 14.1943 4.46667C14.1943 2.66587 14.1895 2.4635 14.142 2.2678C13.9838 1.61557 13.4961 1.086 12.9275 0.9489C12.641 0.8798 2.33859 0.881233 2.05887 0.950367ZM2.53286 1.38737C2.60918 1.4207 2.66991 1.58397 2.63968 1.6745C2.60016 1.79273 2.55023 1.82463 2.36361 1.85093C2.02998 1.8979 1.74773 2.14587 1.67127 2.45917C1.6546 2.52747 1.64089 2.76623 1.6408 2.9898C1.64062 3.36607 1.63562 3.40293 1.57307 3.48563C1.48989 3.59567 1.36667 3.60313 1.27907 3.50347C1.22789 3.4452 1.21427 3.38357 1.20583 3.1719C1.19068 2.79283 1.24386 2.3675 1.33321 2.1526C1.44278 1.88907 1.64153 1.6534 1.85493 1.53397C2.09607 1.399 2.40604 1.332 2.53286 1.38737ZM10.169 2.0285C10.1948 2.05867 10.3182 2.36833 10.4432 2.71667C10.5682 3.065 10.6733 3.3536 10.6767 3.358C10.6802 3.36237 10.7864 3.07963 10.9129 2.7297C11.0393 2.37973 11.1648 2.0624 11.1918 2.0245C11.2961 1.87787 11.543 1.9819 11.543 2.1725C11.543 2.294 10.8936 4.04643 10.8195 4.125C10.7346 4.21493 10.6344 4.22113 10.5501 4.14167C10.489 4.08413 9.81445 2.2861 9.81445 2.18093C9.81445 1.97207 10.0384 1.8758 10.169 2.0285ZM12.7351 1.98337C12.8408 2.01907 12.9172 2.0754 13.0019 2.1799C13.2499 2.48603 13.243 2.90023 12.9849 3.19427L12.8583 3.33853L13.0209 3.62423C13.1104 3.78137 13.1836 3.9452 13.1836 3.9883C13.1836 4.11363 13.0812 4.2055 12.9549 4.19357C12.8519 4.18383 12.8357 4.1643 12.6197 3.79167C12.4136 3.43587 12.3848 3.4 12.3048 3.4H12.2168V3.73903C12.2168 4.00773 12.2067 4.09073 12.1683 4.13903C12.1027 4.2215 11.9401 4.21847 11.8652 4.13333C11.8093 4.06973 11.8066 4.02223 11.8066 3.0978C11.8066 2.476 11.8178 2.10517 11.8378 2.0626C11.855 2.0261 11.8979 1.98303 11.9331 1.9669C12.0407 1.91757 12.5727 1.92847 12.7351 1.98337ZM12.2168 2.68333V2.93333H12.3912C12.5972 2.93333 12.6964 2.88933 12.7409 2.7781C12.7867 2.66387 12.782 2.62137 12.7127 2.52117C12.6569 2.44037 12.6346 2.43333 12.4344 2.43333H12.2168V2.68333ZM0.0856348 3.33077L0 3.4282V4.43243C0 5.52217 0.00767579 5.58107 0.160313 5.66017C0.202559 5.68207 0.302432 5.7 0.382236 5.7H0.527344V4.46667V3.23333H0.349307C0.191602 3.23333 0.161484 3.24447 0.0856348 3.33077ZM14.4727 4.46667V5.7H14.6178C14.6976 5.7 14.7974 5.68207 14.8397 5.66017C14.9923 5.58107 15 5.52217 15 4.43243V3.4282L14.9144 3.33077C14.8385 3.24447 14.8084 3.23333 14.6507 3.23333H14.4727V4.46667ZM1.57989 4.02117C1.62674 4.0889 1.64062 4.157 1.64062 4.319C1.64062 4.57553 1.60562 4.6892 1.51154 4.73797C1.31602 4.83933 1.18632 4.64363 1.20677 4.2781C1.22068 4.0292 1.28089 3.93333 1.4233 3.93333C1.492 3.93333 1.53642 3.95823 1.57989 4.02117Z" fill="#410EAD"/>
</svg>
