<svg width="15" height="15" viewBox="0 0 15 15" fill="none" xmlns="http://www.w3.org/2000/svg">
<path fill-rule="evenodd" clip-rule="evenodd" d="M6.60501 0.417254C6.16913 0.64677 5.513 0.992598 5.14687 1.18576L4.48122 1.53697L5.9906 2.29179L7.5 3.04661L9.0094 2.29179L10.5188 1.53697L9.85313 1.18576C7.67546 0.0367683 7.60245 0 7.5 0C7.42471 0 7.1869 0.110862 6.60501 0.417254ZM4.42383 4.02606C4.42383 5.01953 4.43443 5.56107 4.455 5.61544C4.50791 5.75548 4.6147 5.83951 4.95018 6.00504C5.12798 6.09279 5.27344 6.17514 5.27344 6.18806C5.27344 6.20098 5.00215 6.70534 4.6706 7.3088L4.06775 8.40602L3.63091 8.18726C3.36337 8.05325 3.15817 7.96847 3.10143 7.96847C3.01834 7.96847 2.01958 8.46189 0.41833 9.29403L0.060293 9.4801L1.57743 10.2359L3.09457 10.9917L4.60872 10.2345L6.12284 9.47728L5.54435 9.17839C5.22615 9.01398 4.94098 8.86125 4.91062 8.83898C4.85839 8.80066 4.88845 8.73823 5.46727 7.68238L6.0791 6.56626L6.35742 6.71471C6.5105 6.79633 6.73131 6.91499 6.84814 6.97839L7.06055 7.09364V5.45811V3.82258L5.75675 3.17086C5.03965 2.81241 4.44639 2.51914 4.43839 2.51914C4.43039 2.51914 4.42383 3.19726 4.42383 4.02606ZM9.23584 3.1725L7.93945 3.82256V5.45811V7.09364L8.15186 6.97839C8.26869 6.91499 8.4895 6.79633 8.64258 6.71471L8.9209 6.56626L9.53273 7.68238C10.1116 8.73823 10.1416 8.80066 10.0894 8.83898C10.059 8.86125 9.77385 9.01398 9.45565 9.17839L8.87716 9.47728L10.3913 10.2345L11.9054 10.9917L13.4226 10.2359L14.9397 9.4801L14.5817 9.29403C12.9804 8.46189 11.9817 7.96847 11.8986 7.96847C11.8418 7.96847 11.6366 8.05325 11.3691 8.18726L10.9322 8.40602L10.3294 7.3088C9.99785 6.70534 9.72656 6.20098 9.72656 6.18806C9.72656 6.17514 9.87202 6.09279 10.0498 6.00504C10.3853 5.83951 10.4921 5.75548 10.545 5.61544C10.581 5.52011 10.5899 2.51812 10.5542 2.52078C10.5421 2.52169 9.94884 2.81496 9.23584 3.1725ZM0 11.9685C0 13.5878 0.000468744 13.5933 0.150029 13.731C0.188379 13.7662 0.770127 14.0654 1.44287 14.3959L2.66602 14.9966V13.3787V11.7608L1.35498 11.1088C0.633926 10.7502 0.0340723 10.4573 0.0219727 10.4578C0.00987305 10.4583 0 11.1381 0 11.9685ZM4.84131 11.1121L3.54492 11.7622V13.3811V15L4.76807 14.3878C5.44081 14.0511 6.02001 13.7446 6.05517 13.7066C6.16667 13.5862 6.18164 13.4929 6.18164 12.9178V12.3631H7.5H8.81836V12.9178C8.81836 13.4929 8.83333 13.5862 8.94483 13.7066C8.97999 13.7446 9.55922 14.0511 10.2319 14.3878L11.4551 15V13.3811V11.7622L10.1513 11.1105C9.43418 10.752 8.84092 10.4587 8.83292 10.4587C8.82492 10.4587 8.81836 10.6895 8.81836 10.9715V11.4842H7.5H6.18164V10.9715C6.18164 10.6895 6.17174 10.4595 6.15967 10.4604C6.1476 10.4613 5.55434 10.7546 4.84131 11.1121ZM13.6403 11.1099L12.334 11.761V13.3788V14.9966L13.5571 14.3959C14.2298 14.0654 14.8116 13.7662 14.85 13.731C14.9995 13.5933 15 13.5878 15 11.9685C15 11.0803 14.989 10.4587 14.9733 10.4587C14.9587 10.4587 14.3588 10.7518 13.6403 11.1099Z" fill="#410EAD"/>
</svg>
