<svg width="15" height="13" viewBox="0 0 15 13" fill="none" xmlns="http://www.w3.org/2000/svg">
<path fill-rule="evenodd" clip-rule="evenodd" d="M0.675147 0.0389156C0.397397 0.119942 0.19908 0.277934 0.0767025 0.515571L0 0.664517V5.21415V9.76378L0.076908 9.91506C0.170548 10.0993 0.318434 10.2402 0.522006 10.3393L0.675147 10.4137L3.20812 10.4212L5.74113 10.4287L5.72483 10.516C5.71588 10.564 5.67018 10.9101 5.62333 11.2851C5.53154 12.0192 5.50703 12.1016 5.33272 12.2624C5.17629 12.4067 5.06425 12.4383 4.64216 12.4567C4.27565 12.4727 4.2627 12.4754 4.19451 12.5485C4.11916 12.6293 4.10096 12.7738 4.1545 12.8661C4.23487 13.0047 4.11816 13 7.5 13C10.8818 13 10.7651 13.0047 10.8455 12.8661C10.899 12.7738 10.8808 12.6293 10.8055 12.5485C10.7373 12.4754 10.7244 12.4727 10.3578 12.4567C9.93575 12.4383 9.82371 12.4067 9.66728 12.2624C9.49336 12.102 9.46799 12.0176 9.37747 11.2983C9.33126 10.9309 9.28609 10.585 9.27713 10.5296L9.26081 10.4287L11.7928 10.4212L14.3249 10.4137L14.478 10.3393C14.6816 10.2402 14.8295 10.0993 14.9231 9.91506L15 9.76378V5.21415V0.664517L14.9233 0.515571C14.8258 0.326111 14.6623 0.175323 14.4569 0.0853327L14.2955 0.0145697L11.4125 0.00728486L8.52957 0L8.43376 0.0789957C8.35432 0.144451 8.33792 0.177463 8.33792 0.271841C8.33792 0.366083 8.35435 0.39923 8.43314 0.464171L8.52834 0.542652L11.3385 0.54276C14.0739 0.542842 14.1512 0.54425 14.2427 0.595731C14.4408 0.707143 14.4276 0.433379 14.4276 4.42744V8.04413H7.5H0.572407L0.572524 4.42203C0.572613 0.883251 0.573933 0.797946 0.629648 0.713642C0.661027 0.666169 0.717123 0.61133 0.754286 0.591777C0.808239 0.563396 1.3638 0.553457 3.50304 0.542652L6.18417 0.529112L6.255 0.453122C6.33094 0.371662 6.34934 0.227563 6.2956 0.134945C6.21581 -0.00262687 6.29175 0.000893666 3.44325 0.00284351C1.39186 0.00425173 0.766027 0.0124032 0.675147 0.0389156ZM7.20969 0.0388344C7.06609 0.112251 7.0148 0.314006 7.1117 0.424389C7.23311 0.562665 7.39738 0.578074 7.53555 0.464171C7.78732 0.256648 7.50481 -0.112089 7.20969 0.0388344ZM10.3713 1.86985C9.56067 1.98876 8.8458 2.40689 8.41735 3.01272C7.69253 4.03753 7.82598 5.34888 8.74435 6.22587C9.26792 6.72587 9.87696 6.97992 10.6196 7.00806C11.1799 7.02932 11.5562 6.95996 12.0059 6.7526C12.9598 6.31278 13.5515 5.43641 13.5565 4.45588C13.5603 3.73184 13.2884 3.11666 12.7418 2.61241C12.3802 2.27874 11.9079 2.03076 11.4303 1.92379C11.1483 1.86064 10.6182 1.83361 10.3713 1.86985ZM2.07872 2.15301C1.88577 2.2304 1.89335 2.13814 1.89335 4.4139V6.47342H1.75978C1.47517 6.47342 1.32399 6.65346 1.4294 6.86686C1.50543 7.02084 1.39098 7.01505 4.35719 7.01505H7.0881L7.1833 6.93657C7.26208 6.87162 7.27852 6.83848 7.27852 6.74424C7.27852 6.64999 7.26208 6.61685 7.1833 6.55191C7.10527 6.48756 7.06174 6.47342 6.9418 6.47342H6.7955V5.40163V4.32984L6.7097 4.25068L6.62389 4.17153H5.78278H4.94166L4.85586 4.25068L4.77006 4.32984V5.40163V6.47342H4.3591H3.94814V4.42793C3.94814 2.15311 3.95436 2.22818 3.75933 2.15301C3.61444 2.09716 2.21792 2.09714 2.07872 2.15301ZM10.4648 3.4731V4.53493L11.291 5.29889L12.1172 6.06282L11.9508 6.16102C11.584 6.3775 11.2174 6.47361 10.761 6.47302C10.28 6.47239 9.91289 6.37125 9.51983 6.13104C9.29072 5.99103 8.9956 5.70567 8.85255 5.48586C8.47362 4.90358 8.44098 4.13708 8.76942 3.53512C9.06546 2.9926 9.57464 2.61095 10.2153 2.45139C10.4915 2.38257 10.4648 2.27298 10.4648 3.4731ZM11.454 2.49434C12.0261 2.67594 12.5336 3.10299 12.7849 3.6143C13.0115 4.07547 13.0364 4.59483 12.8558 5.09572C12.7898 5.27874 12.6242 5.57363 12.5463 5.64666C12.5284 5.66353 12.2553 5.43047 11.7851 4.99693L11.0519 4.32088V3.3637V2.40649L11.175 2.42569C11.2427 2.43625 11.3682 2.46712 11.454 2.49434ZM3.35392 4.57097L3.36147 6.47342H2.92095H2.48043V4.58227C2.48043 3.54211 2.48959 2.68266 2.50077 2.67231C2.51196 2.662 2.70681 2.65693 2.93375 2.66105L3.34638 2.66852L3.35392 4.57097ZM6.20842 5.59329V6.47342H5.78278H5.35714V5.59329V4.71315H5.78278H6.20842V5.59329ZM14.4219 9.14046L14.4129 9.69516L14.317 9.78363L14.221 9.87211L7.5334 9.87904L0.845841 9.886L0.746243 9.82407C0.583327 9.72278 0.573317 9.68143 0.572847 9.10707L0.572407 8.58575H7.50167H14.4309L14.4219 9.14046ZM8.68573 10.5288C8.69495 10.5847 8.74327 10.9533 8.79317 11.348C8.882 12.0509 8.89594 12.1103 9.04591 12.4245C9.05871 12.4513 8.73869 12.4584 7.5 12.4584C6.26131 12.4584 5.94129 12.4513 5.95409 12.4245C6.10532 12.1077 6.11821 12.0528 6.20657 11.348C6.25606 10.9533 6.30432 10.5847 6.31377 10.5288L6.331 10.4273H7.5H8.669L8.68573 10.5288Z" fill="#410EAD"/>
</svg>
