<svg width="15" height="13" viewBox="0 0 15 13" fill="none" xmlns="http://www.w3.org/2000/svg">
<path fill-rule="evenodd" clip-rule="evenodd" d="M5.21334 0.0120868C3.92983 0.131569 2.8276 0.814185 2.25876 1.84186C1.99997 2.30937 1.8662 2.80015 1.8662 3.28196C1.8662 3.42661 1.85076 3.5759 1.83185 3.61371C1.80963 3.65821 1.71514 3.72243 1.56408 3.79574C0.808978 4.16212 0.250828 4.82845 0.0561359 5.59598C-0.0280417 5.92775 -0.0160331 6.50586 0.0819735 6.84143C0.386798 7.88531 1.31363 8.65733 2.47544 8.83508L2.60023 8.85418V8.66612C2.60023 8.44895 2.63141 8.35745 2.74157 8.25128C2.85549 8.14146 2.93529 8.11061 3.23149 8.06188C3.37682 8.03797 3.52445 8.01261 3.5595 8.00551C3.60176 7.99697 3.63531 7.95868 3.65883 7.89216C3.67839 7.83695 3.73194 7.71543 3.77783 7.62216L3.86128 7.45258L3.67216 7.19999C3.30697 6.71218 3.32661 6.63043 3.94716 6.05546C4.39708 5.63861 4.53793 5.53825 4.70787 5.51348C4.87229 5.48948 4.98685 5.5312 5.30072 5.72941L5.57343 5.90165L5.66497 5.85802C5.71533 5.83406 5.84851 5.78203 5.9609 5.74242L6.16531 5.67045L6.2014 5.48592C6.27841 5.09202 6.30431 5.01734 6.39717 4.92086C6.55091 4.76118 6.60129 4.75248 7.37137 4.75248C8.14112 4.75248 8.19189 4.76124 8.34515 4.92043C8.43861 5.0175 8.46762 5.10247 8.5357 5.47856C8.55896 5.6069 8.58503 5.67283 8.61662 5.68309C8.64225 5.69141 8.77861 5.74307 8.9196 5.79783L9.17595 5.89744L9.44536 5.72732C9.76361 5.52636 9.86663 5.49031 10.0528 5.51492C10.1833 5.53219 10.2163 5.55707 10.7235 6.01976C11.4327 6.66666 11.4421 6.69828 11.0726 7.1953L10.8836 7.44945L11.0026 7.71433C11.0681 7.86 11.1262 7.98372 11.1317 7.98923C11.1373 7.99477 11.2778 8.02182 11.444 8.04937C11.8114 8.11027 11.8752 8.13287 11.9879 8.24207C12.1018 8.35231 12.1425 8.46844 12.1425 8.68245V8.85554L12.2778 8.83704C13.1551 8.71705 13.9976 8.22418 14.4839 7.54644C14.6883 7.26155 14.8194 6.98877 14.9249 6.6289C14.9911 6.40298 15 6.32007 15 5.9307C15 5.54133 14.9911 5.45842 14.9249 5.2325C14.8189 4.87095 14.6924 4.60903 14.4842 4.31981C14.2904 4.05072 13.9228 3.69894 13.677 3.54749C13.5072 3.44284 13.4822 3.40026 13.4347 3.13479C13.2942 2.34846 12.6829 1.66526 11.8588 1.37344C11.007 1.07176 10.0577 1.20661 9.34639 1.7303C9.11963 1.89729 9.05883 1.92034 8.94279 1.88344C8.87726 1.86261 8.82215 1.80659 8.73797 1.67514C8.29953 0.990462 7.59451 0.45681 6.77634 0.190292C6.32533 0.0433632 5.6744 -0.0308377 5.21334 0.0120868ZM6.75925 5.25456C6.75144 5.28035 6.71633 5.44795 6.68124 5.62704C6.60705 6.0056 6.58749 6.03074 6.2997 6.11814C6.19473 6.15003 5.99801 6.22333 5.86257 6.28103C5.7271 6.33871 5.58235 6.38592 5.54089 6.38592C5.49497 6.38592 5.33231 6.30291 5.12438 6.17336L4.78324 5.9608L4.36702 6.34104C4.13812 6.5502 3.95083 6.73127 3.95083 6.74343C3.95083 6.75561 4.04819 6.89402 4.16716 7.05105C4.28616 7.20805 4.39239 7.36263 4.40325 7.39455C4.41693 7.43472 4.38314 7.52957 4.2935 7.7025C4.22227 7.83994 4.13427 8.0351 4.09798 8.13613C4.06166 8.23719 4.00696 8.33962 3.97643 8.36374C3.94393 8.38942 3.75352 8.4361 3.51746 8.47624L3.11404 8.54484L3.10611 9.09882C3.10174 9.40349 3.10961 9.65279 3.12358 9.65279C3.25362 9.65279 3.93982 9.79351 3.9828 9.82902C4.01251 9.85354 4.05835 9.9414 4.08462 10.0243C4.1109 10.1072 4.19752 10.303 4.27714 10.4595C4.44888 10.7973 4.4551 10.764 4.14373 11.1747L3.92455 11.4638L4.34177 11.8436C4.57125 12.0525 4.77011 12.2234 4.78368 12.2234C4.79727 12.2234 4.94246 12.1371 5.10629 12.0315C5.53112 11.7577 5.50566 11.762 5.8493 11.9067C6.0082 11.9736 6.22791 12.0553 6.33754 12.0883C6.45971 12.125 6.55326 12.171 6.57924 12.2072C6.60258 12.2396 6.64213 12.368 6.66718 12.4925C6.69222 12.617 6.72643 12.7821 6.74319 12.8594L6.77364 13H7.37345C7.70335 13 7.97327 12.9959 7.97327 12.991C7.97327 12.8901 8.13666 12.2243 8.16957 12.1912C8.19453 12.166 8.30264 12.1194 8.40975 12.0876C8.51688 12.0558 8.73442 11.9747 8.89317 11.9073C9.23655 11.7617 9.21112 11.7574 9.63644 12.0315C9.80028 12.1371 9.94579 12.2234 9.95979 12.2234C9.9738 12.2234 10.1687 12.0559 10.3928 11.8511C10.6588 11.6079 10.7946 11.4651 10.7838 11.4395C10.7748 11.418 10.6672 11.2661 10.5448 11.102C10.4223 10.9379 10.3221 10.7854 10.3221 10.7631C10.3221 10.7408 10.3669 10.6415 10.4215 10.5425C10.4762 10.4434 10.5628 10.2542 10.6139 10.1219C10.6651 9.98968 10.7275 9.86072 10.7527 9.83536C10.7987 9.78904 10.8693 9.7726 11.3724 9.69111L11.6446 9.64704L11.6366 9.09593L11.6287 8.54484L11.2323 8.47624C11.0143 8.43851 10.8124 8.39489 10.7836 8.3793C10.7549 8.36374 10.6873 8.24324 10.6335 8.11152C10.5796 7.97983 10.4865 7.77921 10.4265 7.66573C10.3487 7.51867 10.3233 7.44174 10.3381 7.39795C10.3495 7.36416 10.4563 7.20751 10.5754 7.04984C10.6945 6.89218 10.7919 6.75344 10.7919 6.74155C10.7919 6.72966 10.6036 6.54862 10.3735 6.33922L9.95513 5.95852L9.61827 6.17221C9.39263 6.31539 9.25428 6.38592 9.19914 6.38592C9.1539 6.38592 9.02803 6.34575 8.91942 6.29667C8.81082 6.24759 8.63609 6.18008 8.53112 6.14669C8.11279 6.01363 8.14095 6.04049 8.07465 5.71088C8.05011 5.58878 8.01631 5.42559 7.99954 5.34829L7.9691 5.2077H7.37125C6.82687 5.2077 6.77217 5.21188 6.75925 5.25456ZM7.91455 7.07169C8.36582 7.17099 8.88225 7.4728 9.15487 7.79651C9.48529 8.18891 9.61947 8.52481 9.64 9.01112C9.65755 9.42671 9.59778 9.67762 9.39146 10.0545C9.2753 10.2666 9.20816 10.3489 8.98707 10.5498C8.60946 10.8931 8.2953 11.0492 7.79831 11.1406C7.50986 11.1936 7.07033 11.1821 6.78415 11.114C6.47536 11.0406 6.08445 10.8427 5.84428 10.6381C5.33026 10.2003 5.09658 9.71615 5.09611 9.08805C5.09514 7.7368 6.46932 6.75366 7.91455 7.07169ZM7.13648 7.48265C6.39189 7.59081 5.81783 8.05802 5.63934 8.70111C5.58171 8.90878 5.58276 9.29379 5.64157 9.50166C5.75535 9.90381 6.12946 10.3393 6.52536 10.5304C6.91343 10.7178 7.38643 10.7696 7.80896 10.671C8.13431 10.5951 8.36488 10.4734 8.62217 10.2419C8.86939 10.0194 9.02145 9.77584 9.10689 9.46551C9.17275 9.22631 9.15037 8.82266 9.05713 8.5683C8.96693 8.32216 8.73307 8.0118 8.51515 7.849C8.13546 7.56529 7.58133 7.41806 7.13648 7.48265Z" fill="#410EAD"/>
</svg>
