<svg width="15" height="15" viewBox="0 0 15 15" fill="none" xmlns="http://www.w3.org/2000/svg">
<path fill-rule="evenodd" clip-rule="evenodd" d="M6.80495 0.0176436C5.06469 0.186297 3.4149 0.964389 2.18466 2.19667C1.00656 3.37677 0.283761 4.85092 0.0391703 6.57247C-0.0192991 6.98419 -0.0108163 8.04929 0.0546389 8.50832C0.170873 9.32348 0.411384 10.0959 0.779988 10.838C1.75154 12.7937 3.51349 14.2172 5.64475 14.7683C7.13883 15.1545 8.77776 15.0552 10.2224 14.4907C11.2471 14.0904 12.0979 13.5227 12.8863 12.7135C13.4864 12.0974 13.8852 11.5301 14.2517 10.7708C14.6005 10.0483 14.8091 9.38091 14.9313 8.59631C15.0229 8.00825 15.0229 6.98454 14.9313 6.39649C14.8064 5.59464 14.5962 4.92879 14.2368 4.19666C13.8485 3.40572 13.4452 2.84571 12.7994 2.20095C11.6106 1.01405 10.2318 0.318843 8.55642 0.0615814C8.19128 0.00552993 7.18931 -0.0196361 6.80495 0.0176436ZM8.49771 0.559005C8.89048 0.618107 9.44823 0.7552 9.82924 0.886251C10.5078 1.11964 11.4161 1.63528 11.9871 2.11123C12.7257 2.72703 13.3943 3.58725 13.8131 4.46064C14.2956 5.46705 14.4978 6.36358 14.4978 7.4964C14.4978 8.20814 14.4539 8.57765 14.2938 9.2137C13.6705 11.6891 11.6954 13.6627 9.21828 14.2855C8.58178 14.4456 8.212 14.4894 7.49974 14.4894C6.78748 14.4894 6.41771 14.4456 5.78121 14.2855C4.3721 13.9313 3.05143 13.1017 2.11149 11.9805C1.80159 11.6108 1.43419 11.0382 1.2043 10.5665C0.87415 9.88922 0.671004 9.23396 0.55248 8.46432C0.48133 8.00224 0.481389 7.00026 0.552597 6.52848C0.745676 5.24915 1.26236 4.06514 2.05651 3.08209C2.30401 2.77572 2.84353 2.2409 3.1436 2.00449C4.19197 1.17845 5.48707 0.657352 6.83932 0.517414C7.20305 0.479783 8.12494 0.502925 8.49771 0.559005ZM7.01065 1.01026C6.79535 1.04889 6.70636 1.17851 6.77783 1.34939C6.80028 1.40309 6.8353 1.45733 6.85564 1.46991C6.87601 1.48246 7.16463 1.49449 7.49704 1.49663L8.10146 1.5005L8.18218 1.42096C8.22656 1.37719 8.2629 1.31334 8.2629 1.27902C8.2629 1.19167 8.18708 1.05479 8.12456 1.0293C8.05056 0.999088 7.15797 0.983835 7.01065 1.01026ZM4.47648 1.7353C4.13505 1.91794 3.82489 2.1129 3.75758 2.18723C3.61596 2.34362 3.75691 2.62276 3.96061 2.58932C4.01025 2.58117 4.16975 2.49946 4.31504 2.40774C4.46033 2.31599 4.66738 2.19626 4.77516 2.14162C4.88294 2.08697 4.9919 2.01262 5.01732 1.97637C5.0853 1.8794 5.07479 1.75612 4.99146 1.67288C4.8845 1.56597 4.76627 1.58028 4.47648 1.7353ZM10.008 1.67288C9.9247 1.75612 9.91419 1.8794 9.98217 1.97637C10.0076 2.01262 10.1165 2.08697 10.2243 2.14162C10.3321 2.19626 10.5392 2.31599 10.6844 2.40774C11.0055 2.61041 11.0969 2.63183 11.2135 2.5316C11.3091 2.44942 11.3293 2.2898 11.2553 2.19987C11.1961 2.12786 10.8839 1.92917 10.5499 1.75096C10.2289 1.57966 10.1174 1.56359 10.008 1.67288ZM7.27491 2.3066C7.17156 2.35773 6.90369 2.68667 5.52846 4.45143C4.63507 5.59786 3.88133 6.58371 3.85351 6.64216C3.7636 6.83105 3.80437 7.06236 3.95386 7.21124C4.04808 7.3051 7.3784 8.7283 7.50376 8.7283C7.59696 8.7283 10.7737 7.39116 10.9813 7.26457C11.09 7.19825 11.1984 6.98988 11.1973 6.84918C11.1969 6.79377 11.1738 6.70062 11.146 6.64216C11.1182 6.58371 10.3642 5.59757 9.4705 4.45076C8.07531 2.66039 7.82816 2.3572 7.72211 2.3059C7.56517 2.22999 7.42939 2.2302 7.27491 2.3066ZM7.22225 5.49564C7.19944 5.51846 4.67537 6.41435 4.66451 6.4035C4.65902 6.39804 5.23197 5.65397 5.93771 4.75005L7.2209 3.10652L7.22856 4.2941C7.23279 4.94727 7.22994 5.48796 7.22225 5.49564ZM9.0702 4.7563C9.77116 5.65693 10.3406 6.39792 10.3355 6.40297C10.3283 6.41018 9.40745 6.08564 7.84463 5.52509L7.76391 5.49614V4.29158C7.76391 3.62905 7.77107 3.09414 7.77982 3.10288C7.78857 3.11162 8.36924 3.85566 9.0702 4.7563ZM2.24572 3.72009C2.09895 3.79465 1.59997 4.64704 1.59997 4.8232C1.59997 4.99323 1.80197 5.11176 1.95014 5.02867C1.99464 5.0037 2.08322 4.8799 2.16614 4.72685C2.24348 4.58413 2.3682 4.37344 2.44328 4.25867C2.54293 4.10641 2.58012 4.02032 2.58089 3.94016C2.58262 3.75793 2.40316 3.64011 2.24572 3.72009ZM12.5573 3.71235C12.4599 3.75253 12.3915 3.87514 12.4113 3.97407C12.4206 4.02065 12.4878 4.15067 12.5605 4.26304C12.6332 4.37541 12.756 4.58413 12.8333 4.72685C12.9163 4.8799 13.0048 5.0037 13.0493 5.02867C13.1958 5.11082 13.3995 4.99326 13.3995 4.82655C13.3995 4.68672 12.9714 3.9001 12.8222 3.76564C12.7517 3.70223 12.6376 3.67926 12.5573 3.71235ZM7.22891 7.57782L7.2209 8.10302L5.92262 7.54494C5.20858 7.23799 4.63163 6.97944 4.64052 6.97032C4.64945 6.96122 5.23367 6.74749 5.9388 6.49536L7.2209 6.03695L7.22891 6.54478C7.23331 6.8241 7.23331 7.28897 7.22891 7.57782ZM9.40763 6.61673C9.86772 6.78134 10.2819 6.92955 10.328 6.94615C10.414 6.97712 10.3066 7.02608 7.96204 8.02529L7.76391 8.10974V7.07075V6.03176L8.1675 6.17463C8.38949 6.2532 8.94754 6.45216 9.40763 6.61673ZM1.16873 6.76277C1.04891 6.81219 1.0131 6.91186 0.99376 7.25005C0.966815 7.72025 1.00151 8.06647 1.08528 8.16379C1.17683 8.27018 1.34622 8.27223 1.43589 8.16808C1.4963 8.09789 1.49888 8.06865 1.49633 7.48663C1.49386 6.92562 1.48925 6.87417 1.43674 6.82266C1.36589 6.75315 1.25317 6.72796 1.16873 6.76277ZM13.648 6.76107C13.5128 6.81727 13.5059 6.85179 13.5031 7.48997C13.5006 8.06856 13.5032 8.09792 13.5636 8.16808C13.6095 8.2214 13.656 8.2414 13.7339 8.2414C13.9539 8.2414 14.0116 8.08657 14.0116 7.4964C14.0116 6.94495 13.9635 6.78955 13.7811 6.75154C13.7407 6.74312 13.6808 6.74743 13.648 6.76107ZM4.09578 7.97388C3.9946 8.02503 3.88943 8.19151 3.88943 8.30045C3.88943 8.35075 3.91253 8.43314 3.9408 8.4835C3.96907 8.53389 4.70475 9.48838 5.57565 10.6046C7.26328 12.7675 7.24456 12.7466 7.49757 12.7466C7.75619 12.7466 7.72273 12.784 9.41802 10.6066C10.2905 9.48604 11.0301 8.52213 11.0617 8.46458C11.181 8.24695 11.0335 7.973 10.7817 7.94466C10.6554 7.93044 10.5393 7.97499 9.0923 8.59282C8.23768 8.9577 7.51985 9.25626 7.4971 9.25626C7.47432 9.25626 6.76227 8.95934 5.91473 8.59643C4.34624 7.92484 4.25472 7.89351 4.09578 7.97388ZM6.18624 9.25711L7.23557 9.70616V10.8074C7.23557 11.7358 7.22932 11.9019 7.19577 11.8657C7.1297 11.7944 4.68194 8.6399 4.68194 8.62605C4.68194 8.61898 4.78432 8.65702 4.90942 8.71061C5.03452 8.7642 5.60912 9.01011 6.18624 9.25711ZM10.3175 8.62315C10.3175 8.62984 9.74298 9.37003 9.04073 10.268L7.76391 11.9007V10.8056V9.71042L9.03339 9.1636C9.73162 8.86284 10.3062 8.61546 10.3102 8.61388C10.3142 8.61227 10.3175 8.61646 10.3175 8.62315ZM1.67203 10.0029C1.56266 10.1121 1.57875 10.2236 1.75016 10.5444C1.92851 10.8781 2.12734 11.1901 2.1994 11.2493C2.28939 11.3232 2.44913 11.3031 2.53137 11.2075C2.63167 11.091 2.61024 10.9996 2.40742 10.6788C2.3156 10.5336 2.19579 10.3267 2.1411 10.219C2.08642 10.1113 2.01201 10.0024 1.97573 9.97704C1.8787 9.90911 1.75533 9.91961 1.67203 10.0029ZM13.0273 9.97454C12.993 9.99856 12.9024 10.1338 12.8261 10.2752C12.7497 10.4165 12.623 10.6325 12.5444 10.7551C12.3843 11.005 12.37 11.0935 12.4711 11.211C12.5504 11.3031 12.7117 11.3219 12.8001 11.2493C12.8721 11.1901 13.071 10.8781 13.2493 10.5444C13.4401 10.1874 13.4469 10.06 13.28 9.97378C13.1746 9.91931 13.1059 9.91952 13.0273 9.97454ZM3.78247 12.4642C3.69031 12.5434 3.67152 12.7046 3.74414 12.7929C3.86369 12.9383 4.68223 13.3919 4.82515 13.3919C5.01286 13.3919 5.12727 13.1733 5.01981 13.02C4.99577 12.9857 4.8604 12.8952 4.71895 12.8189C4.57751 12.7426 4.36142 12.6159 4.23872 12.5374C3.98864 12.3774 3.9 12.3632 3.78247 12.4642ZM10.6867 12.5856C10.5104 12.6926 10.2901 12.8186 10.1972 12.8655C10.0076 12.9611 9.93597 13.0433 9.93597 13.1651C9.93597 13.2773 10.0543 13.3919 10.1702 13.3919C10.316 13.3919 11.0983 12.9641 11.2413 12.8062C11.3159 12.7239 11.3155 12.5576 11.2406 12.4827C11.1175 12.3598 11.0326 12.3755 10.6867 12.5856ZM6.88203 13.5155C6.79746 13.5467 6.72922 13.7207 6.76483 13.8143C6.82564 13.9742 6.90387 13.9932 7.49974 13.9932C8.09562 13.9932 8.17384 13.9742 8.23466 13.8143C8.26516 13.7341 8.21177 13.5649 8.1425 13.5221C8.09354 13.4918 6.96195 13.4859 6.88203 13.5155Z" fill="#410EAD"/>
</svg>
