<svg width="15" height="15" viewBox="0 0 15 15" fill="none" xmlns="http://www.w3.org/2000/svg">
<path fill-rule="evenodd" clip-rule="evenodd" d="M2.35365 0.0444948C1.22987 0.249861 0.474238 0.951467 0.188486 2.05484C0.120063 2.3191 0.0646346 2.94555 0.087119 3.20063C0.0998643 3.34509 0.103278 3.34951 0.202328 3.34951C0.258476 3.34951 0.367891 3.3408 0.445522 3.33014L0.586597 3.3108L0.603633 2.86781C0.6238 2.34224 0.692286 2.04378 0.881524 1.65693C1.13671 1.13518 1.62172 0.761146 2.27035 0.585838C2.48743 0.527194 2.59613 0.518731 3.08455 0.522586C3.39457 0.525 3.70434 0.530892 3.77295 0.535625L3.89765 0.544214L3.93921 0.313615C3.96207 0.186797 3.97641 0.0786912 3.97109 0.073394C3.96573 0.0681282 3.85115 0.0484755 3.71643 0.0297317C3.38909 -0.0157485 2.6389 -0.0076618 2.35365 0.0444948ZM5.35362 0.134797C5.01705 0.208393 4.70987 0.285625 4.67101 0.306437C4.53013 0.381914 4.53003 0.460368 4.67001 1.11997C4.74182 1.4584 4.80996 1.74607 4.82142 1.75924C4.83285 1.77243 4.94349 1.7603 5.06724 1.73234C5.32907 1.67316 5.32322 1.68937 5.22965 1.2808C5.13626 0.873076 5.11585 0.889281 5.51853 1.0513C7.01906 1.65502 8.52197 2.65367 10.0157 4.03961L10.4647 4.45614L10.642 4.27648L10.8194 4.09678L10.4906 3.78306C9.82212 3.14527 9.02718 2.49046 8.40182 2.06252C8.22611 1.94229 8.07445 1.83111 8.06477 1.81544C8.05513 1.7998 8.17315 1.72053 8.32707 1.63931L8.60693 1.49162L8.49319 1.26155L8.37946 1.03146L8.04933 1.20708C7.86777 1.30365 7.71238 1.38891 7.70405 1.39652C7.69572 1.40414 7.7208 1.46586 7.75979 1.53365C7.79878 1.60145 7.82471 1.65693 7.81741 1.65693C7.81011 1.65693 7.63707 1.55722 7.43286 1.43536C7.06757 1.21736 6.16328 0.751555 5.88727 0.639249L5.74635 0.581921L5.95772 0.535187C6.19635 0.482434 6.19848 0.477795 6.12683 0.168085C6.09905 0.0479113 6.076 0.010173 6.02806 0.00619229C5.99367 0.00337132 5.69017 0.0612325 5.35362 0.134797ZM11.2422 0.111508C11.0103 0.136364 10.5856 0.222184 10.2401 0.314023C9.90852 0.402131 9.12673 0.675451 8.96627 0.759328L8.8981 0.794966L8.99136 1.01334C9.04262 1.13345 9.09019 1.23733 9.09705 1.24419C9.10387 1.25105 9.21943 1.21078 9.3538 1.15467C10.1294 0.830887 10.9599 0.630472 11.6523 0.599975C13.026 0.539481 13.8969 1.09411 14.2227 2.23679C14.2847 2.45435 14.2943 2.56017 14.2948 3.03607C14.2951 3.33776 14.2884 3.64101 14.2798 3.70997L14.2642 3.83534L14.5085 3.87807C14.6429 3.90157 14.7579 3.91568 14.764 3.90941C14.7701 3.90314 14.7921 3.70313 14.8128 3.46495C14.9691 1.6679 14.1302 0.438678 12.5418 0.137273C12.3096 0.0932349 11.5527 0.078221 11.2422 0.111508ZM6.3735 2.2561C5.89625 2.59932 5.91965 2.56327 6.05474 2.74748C6.24116 3.00168 6.21172 3.00338 6.61729 2.71482C6.81714 2.57258 6.98114 2.4421 6.98167 2.42486C6.9822 2.40762 6.92245 2.30732 6.84893 2.20194L6.71521 2.01036L6.3735 2.2561ZM4.81228 3.51632L4.45528 3.84227L4.6102 4.01902C4.69541 4.11625 4.7793 4.1958 4.79668 4.1958C4.83839 4.1958 5.47378 3.62502 5.47707 3.58459C5.47848 3.56735 5.4098 3.47159 5.32444 3.3718L5.16927 3.19038L4.81228 3.51632ZM0.469729 4.24905C0.357777 4.27529 0.260699 4.30187 0.253998 4.30811C0.228132 4.33218 0.460459 5.10478 0.49356 5.10478C0.503831 5.10478 0.60952 5.07343 0.728392 5.0351C0.978476 4.95448 0.970804 4.9958 0.827568 4.50141C0.778873 4.33331 0.724228 4.19705 0.706159 4.19856C0.688058 4.20009 0.581681 4.22282 0.469729 4.24905ZM3.73635 4.56409C2.33843 6.06444 1.31161 7.57328 0.659311 9.08548L0.584969 9.25787L0.537651 9.04316L0.490334 8.82843L0.362599 8.84852C0.138852 8.88372 0 8.93001 0 8.96944C0 8.99047 0.0637892 9.30307 0.141764 9.66412C0.281931 10.313 0.319697 10.4112 0.444426 10.4509C0.490772 10.4656 1.73796 10.2292 1.77792 10.1981C1.78265 10.1944 1.76286 10.0836 1.73396 9.95189C1.69497 9.7743 1.66844 9.71264 1.6314 9.71349C1.6039 9.71412 1.42995 9.74787 1.24478 9.78856C1.05961 9.82921 0.908142 9.85949 0.908142 9.85582C0.908142 9.85215 0.976973 9.68086 1.06109 9.47515C1.70659 7.89647 2.66377 6.46856 4.1467 4.87195L4.45729 4.53754L4.28868 4.36669C4.19596 4.27269 4.11097 4.1958 4.09979 4.1958C4.08861 4.1958 3.92508 4.36152 3.73635 4.56409ZM13.7161 4.35844C13.4147 4.44539 13.1617 4.52241 13.154 4.52958C13.1354 4.54689 13.244 4.95636 13.2759 4.98937C13.2895 5.00347 13.4491 4.97172 13.6305 4.91885C13.8119 4.86597 13.9756 4.82268 13.9942 4.82268C14.0132 4.82268 13.9728 4.97818 13.9027 5.17502C13.3554 6.71044 12.2734 8.40421 10.8675 9.92594C10.7033 10.1037 10.5689 10.2677 10.5689 10.2902C10.5689 10.3128 10.6451 10.3998 10.7382 10.4836L10.9075 10.6359L11.1719 10.3544C11.7425 9.74687 12.4557 8.85707 12.8991 8.19957C13.4289 7.41374 13.9829 6.38813 14.2489 5.70032C14.3056 5.55378 14.3625 5.42192 14.3754 5.40725C14.3882 5.39261 14.422 5.46314 14.4503 5.56397C14.4787 5.66483 14.5072 5.76329 14.5136 5.78275C14.5282 5.82666 15 5.70129 15 5.65349C15 5.55707 14.6178 4.30331 14.5734 4.25426C14.4912 4.16336 14.3206 4.18408 13.7161 4.35844ZM10.981 4.62242C10.7657 4.82422 10.7526 4.78012 11.157 5.21232C11.4514 5.52692 11.4075 5.52078 11.6801 5.28563L11.8157 5.16872L11.5232 4.84682C11.3623 4.66975 11.2157 4.5083 11.1973 4.48796C11.1724 4.46041 11.1175 4.49448 10.981 4.62242ZM6.84238 4.54247C6.28384 4.61769 5.76717 4.80403 5.52357 5.01808C5.28304 5.22947 5.29375 5.11503 5.29296 7.48329C5.29246 8.99981 5.30255 9.62967 5.3287 9.71706C5.37708 9.87864 5.6177 10.101 5.86525 10.2129C6.28209 10.4012 6.82046 10.4944 7.49599 10.4953C8.44303 10.4966 9.21698 10.2929 9.542 9.95672C9.74652 9.74524 9.7391 9.83814 9.73835 7.49577C9.73769 5.50855 9.73397 5.36309 9.68064 5.24554C9.54792 4.95317 9.1195 4.72276 8.45421 4.58603C8.1708 4.5278 7.15525 4.50034 6.84238 4.54247ZM7.98539 5.04287C8.14901 5.05996 8.40266 5.10349 8.54906 5.13963C8.82391 5.20743 9.17007 5.36794 9.19788 5.44044C9.23897 5.54764 8.96051 5.70176 8.52053 5.81538C7.95276 5.96198 6.9594 5.95063 6.38377 5.79096C6.1386 5.72298 5.88955 5.60622 5.82589 5.52946C5.69568 5.37239 6.31099 5.11559 6.9833 5.04645C7.35774 5.00796 7.64098 5.00692 7.98539 5.04287ZM1.08038 5.92201C0.977036 5.97235 0.879395 6.01796 0.863361 6.02338C0.827693 6.03539 1.24945 6.89139 1.29103 6.89139C1.30738 6.89139 1.41056 6.84112 1.52036 6.77965L1.72002 6.66791L1.51033 6.2468C1.395 6.0152 1.29338 5.82679 1.28446 5.82811C1.27556 5.82942 1.18372 5.87167 1.08038 5.92201ZM12.2047 6.09591C12.0935 6.18336 12.0328 6.25197 12.0465 6.27467C12.1073 6.37509 12.5381 6.95781 12.563 6.9732C12.6097 7.00213 12.9985 6.73326 12.972 6.69032C12.8595 6.50796 12.441 5.95276 12.4165 5.95333C12.3993 5.9537 12.304 6.01789 12.2047 6.09591ZM6.09081 6.23298C6.88841 6.51304 8.24443 6.5 9.01879 6.20483C9.11352 6.16872 9.20158 6.13917 9.21451 6.13917C9.22744 6.13913 9.238 6.29429 9.238 6.48392C9.238 6.88139 9.22343 6.90866 8.94523 7.0315C8.60227 7.18292 8.28448 7.2411 7.70355 7.25881C6.96288 7.28141 6.4805 7.21439 6.08618 7.03416C5.80653 6.90634 5.79332 6.88133 5.79332 6.48025C5.79332 6.16261 5.79817 6.13337 5.84812 6.14941C5.87828 6.15907 5.98747 6.19668 6.09081 6.23298ZM6.1241 7.59228C6.51438 7.72674 6.91359 7.78059 7.51566 7.77993C8.1192 7.77928 8.5123 7.72615 8.90164 7.59265C9.02637 7.54987 9.15307 7.50696 9.18319 7.49724C9.23314 7.48116 9.238 7.51038 9.238 7.82805C9.238 8.13152 9.23014 8.18437 9.17703 8.23753C8.81934 8.59554 7.38936 8.7443 6.48288 8.51774C6.17743 8.44142 5.87339 8.29902 5.82582 8.21004C5.80794 8.17662 5.79332 7.99859 5.79332 7.81444C5.79332 7.5095 5.7982 7.48126 5.84812 7.49787C5.87828 7.5079 6.00244 7.55037 6.1241 7.59228ZM13.4186 7.82165C13.3152 7.88208 13.2185 7.94314 13.2036 7.95731C13.184 7.97602 13.4389 8.51132 13.5142 8.60949C13.5237 8.62187 13.9666 8.39967 13.9666 8.38252C13.9666 8.36955 13.6291 7.73417 13.6146 7.71978C13.6101 7.71536 13.5219 7.76119 13.4186 7.82165ZM2.29093 8.06009C2.18502 8.13274 2.09828 8.20286 2.09822 8.21596C2.09812 8.2379 2.43072 8.7065 2.58927 8.90779L2.65763 8.99461L2.84872 8.8461C2.95378 8.76442 3.03319 8.68042 3.02515 8.65942C3.00651 8.61087 2.53581 7.96035 2.50591 7.94186C2.4936 7.93424 2.39687 7.98746 2.29093 8.06009ZM6.06135 8.925C6.48673 9.07937 6.86248 9.13265 7.51566 9.13121C8.23729 9.12961 8.64326 9.06103 9.18319 8.84949C9.23346 8.8298 9.238 8.85798 9.238 9.19023V9.55244L9.13619 9.63017C8.49548 10.1193 6.40538 10.106 5.86378 9.60933C5.79864 9.54962 5.79332 9.51781 5.79332 9.18973C5.79332 8.99449 5.79767 8.83473 5.803 8.83473C5.80829 8.83473 5.92456 8.87535 6.06135 8.925ZM13.9979 8.9937C13.886 9.04279 13.7826 9.08745 13.7682 9.09297C13.7537 9.09845 13.7912 9.22245 13.8514 9.36848C14.0962 9.96223 14.3024 10.7075 14.3735 11.2555C14.45 11.8452 14.3888 12.529 14.2194 12.9767C14.0457 13.4358 13.6824 13.8313 13.233 14.0508C12.7705 14.2766 12.617 14.3043 11.8331 14.3039L11.1557 14.3034L11.1228 14.5384C11.1047 14.6677 11.093 14.7767 11.097 14.7806C11.1009 14.7846 11.2942 14.803 11.5264 14.8215C14.0386 15.0223 15.3384 13.3788 14.7948 10.6889C14.7116 10.2772 14.4259 9.37485 14.2858 9.08118L14.2015 8.90447L13.9979 8.9937ZM3.4692 9.57642C3.37823 9.65682 3.29969 9.73251 3.29471 9.74464C3.28973 9.75681 3.4293 9.92468 3.60489 10.1177L3.92411 10.4687L4.10593 10.2886L4.28775 10.1085L4.17153 9.98051C4.10762 9.91008 3.96911 9.75746 3.86377 9.64137C3.75839 9.52527 3.66373 9.43026 3.65342 9.43026C3.64309 9.43026 3.5602 9.49602 3.4692 9.57642ZM4.53965 10.7332L4.36848 10.9078L4.63466 11.1576C6.11975 12.5514 7.80626 13.6675 9.34531 14.2749L9.65615 14.3976L9.44922 14.4606C9.33539 14.4953 9.23349 14.5326 9.22281 14.5436C9.19441 14.5728 9.30958 14.9836 9.35057 14.9993C9.39752 15.0173 10.6127 14.6702 10.7034 14.6129C10.8537 14.5178 10.8503 14.4528 10.6593 13.7828C10.5617 13.4404 10.4671 13.1602 10.4491 13.1602C10.3964 13.1602 10.0387 13.2617 10.0131 13.2839C10.0003 13.2951 10.0373 13.4693 10.0954 13.671C10.1535 13.8728 10.1982 14.0378 10.1947 14.0378C10.1635 14.0378 9.68521 13.8611 9.40638 13.7466C7.99453 13.1667 6.49084 12.1687 5.10438 10.8914C4.90632 10.7089 4.73674 10.5594 4.72754 10.5592C4.71833 10.5589 4.63378 10.6372 4.53965 10.7332ZM9.76534 11.0234C9.58174 11.1901 9.43087 11.3407 9.43008 11.3579C9.42927 11.3752 9.4971 11.4658 9.58084 11.5594C9.76184 11.7616 9.72583 11.7742 10.1721 11.3521L10.4642 11.0758L10.2817 10.898L10.0992 10.7202L9.76534 11.0234ZM0.0502296 11.1283C0.0390814 11.1856 0.0215762 11.4864 0.0113361 11.7967C-0.00876828 12.4041 0.0268685 12.7128 0.163121 13.1115C0.466127 13.998 1.13872 14.6062 2.06681 14.8328C2.34241 14.9 2.98431 14.9566 3.18633 14.9315C3.37084 14.9085 3.37021 14.9099 3.33088 14.5823L3.31159 14.4215L2.8536 14.4057C2.52705 14.3945 2.32425 14.3708 2.14691 14.3234C1.33754 14.1066 0.80142 13.5692 0.593706 12.7666C0.50881 12.4385 0.480595 11.8508 0.530637 11.4529C0.574478 11.1042 0.577077 11.1095 0.347129 11.0764C0.268152 11.065 0.173612 11.0485 0.137004 11.0398C0.0817954 11.0267 0.0669833 11.0418 0.0502296 11.1283ZM8.31676 12.2197C8.12868 12.3566 7.9624 12.4811 7.94718 12.4963C7.91718 12.5264 8.16517 12.9095 8.21458 12.9095C8.28041 12.9095 8.98444 12.3658 8.96289 12.3316C8.90421 12.2383 8.69032 11.9692 8.67548 11.9699C8.66621 11.9704 8.50481 12.0828 8.31676 12.2197ZM6.26305 13.4904C6.04776 13.6007 5.8604 13.6952 5.84665 13.7003C5.81515 13.7122 6.01228 14.1632 6.04895 14.1632C6.09755 14.1632 6.88935 13.756 6.88935 13.731C6.88935 13.7065 6.67087 13.2838 6.66022 13.2877C6.65706 13.2888 6.47834 13.3801 6.26305 13.4904ZM4.74426 14.1194C4.67537 14.145 4.5274 14.1886 4.41545 14.2163C4.3035 14.244 4.20695 14.2706 4.20091 14.2755C4.17589 14.2959 4.30437 14.7588 4.33506 14.7588C4.4255 14.7589 5.08015 14.5573 5.0923 14.5257C5.11412 14.4687 4.95955 14.0856 4.91205 14.0789C4.88865 14.0756 4.81315 14.0938 4.74426 14.1194Z" fill="#410EAD"/>
</svg>
