<svg width="12" height="15" viewBox="0 0 12 15" fill="none" xmlns="http://www.w3.org/2000/svg">
<path fill-rule="evenodd" clip-rule="evenodd" d="M5.66028 0.0394214C5.5687 0.0612842 5.41283 0.12233 5.3139 0.175024C5.06695 0.306611 4.73813 0.66808 4.61874 0.939196C4.20606 1.87625 4.64077 3.00635 5.5326 3.31497C5.79558 3.40597 6.20442 3.40597 6.4674 3.31497C7.35923 3.00635 7.79394 1.87625 7.38126 0.939196C7.26211 0.668637 6.93299 0.306581 6.68709 0.17558C6.36639 0.00472221 6.00568 -0.0431063 5.66028 0.0394214ZM2.38964 0.827625C1.79674 0.989662 1.33607 1.63186 1.33757 2.29437C1.33927 3.05813 1.86079 3.709 2.55806 3.81758C2.67002 3.83502 2.67809 3.83057 2.85008 3.65722C3.09692 3.40846 3.37946 3.22321 3.67927 3.11364C3.91864 3.02613 3.93823 3.01288 3.98507 2.90694C4.01262 2.84469 4.05379 2.68977 4.0766 2.5627C4.26415 1.51724 3.34088 0.567675 2.38964 0.827625ZM8.93825 0.831347C8.40448 0.989457 7.99242 1.49819 7.91307 2.09699C7.8872 2.29229 7.88893 2.37042 7.92341 2.5627C7.94621 2.68977 7.98738 2.84469 8.01493 2.90694C8.06177 3.01288 8.08136 3.02613 8.32073 3.11364C8.62054 3.22321 8.90308 3.40846 9.14992 3.65722C9.32191 3.83057 9.32998 3.83502 9.44194 3.81758C10.1392 3.709 10.6607 3.05813 10.6624 2.29437C10.664 1.6182 10.1793 0.960297 9.57575 0.819244C9.38772 0.775313 9.1096 0.780588 8.93825 0.831347ZM4.08307 3.89539C3.89477 3.93601 3.58836 4.11156 3.4384 4.26469C3.25937 4.44756 3.1083 4.70549 3.04203 4.94144C2.99293 5.11634 2.98914 5.21557 2.98914 6.32829V7.52679H6H9.01086V6.32829C9.01086 5.21557 9.00708 5.11634 8.95797 4.94144C8.81401 4.4288 8.37088 3.9919 7.89482 3.8932C7.71776 3.8565 4.25418 3.8585 4.08307 3.89539ZM1.09736 4.26378C0.606595 4.34742 0.247556 4.67513 0.0705553 5.20107C0.0284833 5.32609 0.0212625 5.47646 0.011324 6.43511L0 7.52679H1.09491H2.1898V6.31246C2.1898 4.89068 2.19505 4.84452 2.42065 4.28107C2.43216 4.25226 2.29928 4.24529 1.79964 4.24842C1.45003 4.25062 1.134 4.25754 1.09736 4.26378ZM9.57837 4.2782C9.8062 4.85264 9.8102 4.88766 9.8102 6.31246V7.52679H10.9051H12L11.9887 6.43511C11.9787 5.47646 11.9715 5.32609 11.9294 5.20107C11.7826 4.76481 11.4969 4.45023 11.1219 4.31208C10.9465 4.24743 9.55404 4.21689 9.57837 4.2782ZM0.0227013 8.42554C-0.0018918 8.45259 0.000213144 9.33724 0.0249128 9.35353C0.0359171 9.3608 0.42549 9.41059 0.890654 9.46423L1.73641 9.5617L1.77808 9.72382C1.85008 10.0041 1.95189 10.2855 2.09947 10.6121L2.24218 10.9278L1.70974 11.6516C1.41689 12.0496 1.1773 12.389 1.1773 12.4057C1.1773 12.4224 1.44569 12.7311 1.77369 13.0917L2.3701 13.7471L3.0432 13.147L3.7163 12.5468L4.02128 12.7164C4.18901 12.8096 4.46603 12.935 4.63688 12.9951C4.80775 13.0552 4.9495 13.1056 4.9519 13.107C4.9543 13.1085 4.99373 13.5054 5.03956 13.9889C5.08537 14.4725 5.12861 14.8978 5.13562 14.9341L5.14838 15H6H6.85162L6.86438 14.9341C6.87139 14.8978 6.91463 14.4725 6.96044 13.9889C7.00627 13.5054 7.0457 13.1085 7.0481 13.107C7.0505 13.1056 7.19225 13.0552 7.36312 12.9951C7.53397 12.935 7.81099 12.8096 7.97872 12.7164L8.2837 12.5468L8.9568 13.147L9.6299 13.7471L10.2263 13.0917C10.5543 12.7311 10.8227 12.4224 10.8227 12.4057C10.8227 12.389 10.5831 12.0496 10.2903 11.6516L9.75782 10.9278L9.90053 10.6121C10.0481 10.2855 10.1499 10.0041 10.2219 9.72382L10.2636 9.5617L11.1093 9.46461C11.5745 9.41121 11.9644 9.35787 11.9758 9.34609C11.9872 9.33428 11.9932 9.12125 11.9891 8.87264L11.9817 8.42064L10.005 8.41314L8.02831 8.40561L8.01291 8.54502C7.93473 9.25187 7.66996 9.80111 7.23107 10.1668C6.84467 10.4888 6.49495 10.6165 6 10.6165C5.6233 10.6165 5.43644 10.5728 5.13405 10.4137C4.47914 10.0693 4.08454 9.42639 3.98712 8.5452L3.97172 8.40599H2.00608C0.924999 8.40599 0.0324533 8.41478 0.0227013 8.42554Z" fill="#410EAD"/>
</svg>
