<svg width="12" height="15" viewBox="0 0 12 15" fill="none" xmlns="http://www.w3.org/2000/svg">
<path fill-rule="evenodd" clip-rule="evenodd" d="M4.95089 0.00824862C3.86498 0.121427 3.0366 0.360777 2.15939 0.814782C1.80133 1.00011 1.20655 1.38736 0.941194 1.60794C0.633026 1.86413 0.303134 2.17765 0.251768 2.26317C0.16897 2.40101 0.179688 2.63218 0.274186 2.74618C0.370938 2.86294 0.486902 2.92335 0.614104 2.92335C0.772217 2.92335 0.833146 2.88719 1.10956 2.62939C2.01699 1.78312 3.0394 1.25433 4.24841 1.00597C5.37537 0.774484 6.56167 0.856281 7.66422 1.24151C8.0638 1.38111 8.76284 1.73411 9.11102 1.97208C9.42632 2.18759 9.73521 2.43594 10.006 2.69169C10.2195 2.89329 10.2738 2.92335 10.425 2.92335C10.7027 2.92335 10.8969 2.68374 10.8453 2.40465C10.8206 2.27076 10.5611 1.98939 10.158 1.65953C9.10276 0.795806 7.90467 0.265577 6.54861 0.0621544C6.26312 0.0193348 5.19143 -0.0168272 4.95089 0.00824862ZM5.06645 1.77027C3.80215 1.88172 2.61131 2.41321 1.68944 3.27743C1.48273 3.47124 1.41189 3.59069 1.41189 3.74555C1.41189 3.91917 1.56143 4.10916 1.73552 4.15673C1.91585 4.20603 2.03239 4.1526 2.32192 3.88788C3.59608 2.72283 5.34804 2.34086 6.98762 2.87059C7.56857 3.05826 8.18895 3.4144 8.6435 3.8211C9.0641 4.19744 9.14309 4.2312 9.3673 4.13051C9.54018 4.05288 9.61633 3.92753 9.61648 3.72038C9.61659 3.57034 9.61009 3.55726 9.45048 3.3868C8.79115 2.68262 7.68052 2.08004 6.65539 1.87023C6.16282 1.76942 5.5286 1.72951 5.06645 1.77027ZM5.05201 3.53802C4.23584 3.64486 3.45648 4.01393 2.86901 4.57185C2.65667 4.77348 2.60311 4.90118 2.6526 5.08774C2.69911 5.26315 2.88657 5.41627 3.05483 5.41627C3.19275 5.41627 3.27852 5.37017 3.49921 5.17733C3.98046 4.75685 4.44197 4.53589 5.05721 4.43145C5.94485 4.28079 6.86556 4.56396 7.57619 5.20619C7.78547 5.3953 7.89106 5.4378 8.06807 5.4041C8.33663 5.35295 8.48224 5.02876 8.34986 4.77671C8.23794 4.56364 7.63377 4.10558 7.18234 3.89157C6.66879 3.64812 6.2284 3.54336 5.64425 3.52567C5.4218 3.51895 5.15529 3.5245 5.05201 3.53802ZM5.16072 5.32732C4.94699 5.36685 4.73977 5.44252 4.48866 5.57271C4.16573 5.74015 3.7834 6.12805 3.61503 6.45911C3.43057 6.82178 3.3645 7.09591 3.3645 7.49859C3.3645 8.12364 3.55725 8.59372 3.99637 9.03951C4.28519 9.33271 4.54378 9.49079 4.93645 9.61423C5.21905 9.70307 5.77307 9.71046 6.06315 9.62922C6.8027 9.42216 7.36825 8.86433 7.59887 8.11449C7.65579 7.92949 7.66653 7.83162 7.66653 7.49859C7.66653 7.16557 7.65579 7.0677 7.59887 6.8827C7.36949 6.13696 6.80036 5.57209 6.07759 5.3729C5.87421 5.31685 5.35653 5.29113 5.16072 5.32732ZM9.48514 5.34022C9.205 5.46408 9.13416 5.83107 9.35003 6.04012C9.46845 6.15482 9.56237 6.17881 9.89292 6.17881H10.1944V7.78754V9.39626L10.26 9.49592C10.4362 9.76375 10.7845 9.75692 10.9871 9.48167C11.0453 9.40251 11.0468 9.36444 11.0548 7.78977L11.063 6.17881H11.373C11.6196 6.17881 11.7035 6.1677 11.7828 6.12453C11.9433 6.03716 12 5.93647 12 5.73889C12 5.5413 11.9433 5.44062 11.7828 5.35325C11.6909 5.30318 11.601 5.29905 10.6282 5.3001C9.81657 5.30098 9.55295 5.31025 9.48514 5.34022ZM0.229465 5.46766C0.174979 5.49584 0.103477 5.55617 0.0705711 5.60172C0.0118093 5.68302 0.010596 5.71709 0.00201571 7.4934C-0.00393558 8.73121 0.00320011 9.33679 0.0246363 9.41151C0.0719578 9.5766 0.226634 9.68357 0.418057 9.68357C0.582065 9.68357 0.679452 9.63054 0.788973 9.48167C0.847417 9.40219 0.848689 9.3667 0.856402 7.59028L0.86426 5.77989L0.7979 5.65248C0.684595 5.43496 0.443856 5.35668 0.229465 5.46766ZM5.84763 6.22433C6.40766 6.37238 6.81428 6.90842 6.81428 7.49859C6.81428 8.08877 6.40766 8.62481 5.84763 8.77286C5.1114 8.96748 4.36374 8.46699 4.23775 7.69521C4.08862 6.78151 4.95632 5.98871 5.84763 6.22433ZM2.89972 9.61505C2.78231 9.68081 2.68131 9.80114 2.6526 9.90945C2.60288 10.0968 2.65652 10.2236 2.87213 10.4283C3.38232 10.9128 4.02235 11.2475 4.73546 11.4028C5.15774 11.4948 5.89391 11.4968 6.29427 11.4071C6.8094 11.2917 7.25095 11.1061 7.65902 10.8332C7.96375 10.6295 8.2844 10.3451 8.34986 10.2205C8.48224 9.96843 8.33663 9.64424 8.06807 9.59309C7.89106 9.55939 7.78547 9.60189 7.57619 9.791C6.94397 10.3624 6.15707 10.6483 5.35743 10.5971C4.66052 10.5524 4.06135 10.3051 3.52345 9.84009C3.39498 9.72902 3.25648 9.62529 3.21569 9.60954C3.11841 9.572 2.97203 9.57455 2.89972 9.61505ZM1.71868 10.8421C1.55467 10.8938 1.41189 11.0846 1.41189 11.2521C1.41189 11.4065 1.48291 11.5261 1.68944 11.7198C3.19783 13.1339 5.34758 13.6064 7.29097 12.9509C8.09829 12.6786 8.90405 12.181 9.44135 11.6229C9.589 11.4695 9.59903 11.4498 9.61001 11.2902C9.62509 11.0717 9.5472 10.9428 9.34977 10.8598C9.15467 10.7777 9.03992 10.8206 8.74975 11.084C8.09633 11.6771 7.3157 12.0852 6.4965 12.262C5.69411 12.4352 4.77103 12.3763 3.97552 12.1013C3.39518 11.9006 2.80196 11.548 2.35081 11.1356C2.2237 11.0194 2.09369 10.9068 2.06191 10.8854C1.98195 10.8314 1.81823 10.8108 1.71868 10.8421ZM0.412626 12.1293C0.261301 12.223 0.198524 12.3287 0.198524 12.4899C0.198524 12.6923 0.246019 12.7665 0.559415 13.0538C2.00327 14.3777 3.81888 15.0595 5.73092 14.9959C6.44727 14.9721 6.9325 14.8965 7.57986 14.708C8.26458 14.5087 9.02065 14.1512 9.6176 13.7445C10.1681 13.3695 10.7738 12.8185 10.8319 12.6398C10.9238 12.3572 10.7201 12.0738 10.425 12.0738C10.2703 12.0738 10.2224 12.102 9.96327 12.3453C9.71927 12.5744 9.20662 12.9707 8.9215 13.1506C7.81188 13.8507 6.38695 14.2037 5.07809 14.1027C3.54731 13.9845 2.21879 13.4039 1.10956 12.3681C0.967137 12.2351 0.82003 12.1145 0.782675 12.1001C0.671883 12.0573 0.508049 12.0702 0.412626 12.1293Z" fill="#410EAD"/>
</svg>
