<svg width="13" height="15" viewBox="0 0 13 15" fill="none" xmlns="http://www.w3.org/2000/svg">
<path fill-rule="evenodd" clip-rule="evenodd" d="M9.17328 0.013416C9.00401 0.0359631 8.64576 0.144242 8.40528 0.245602C7.34113 0.694053 6.54675 1.63282 6.31196 2.71952C6.27042 2.91174 6.25434 3.46686 6.28781 3.55274C6.32096 3.63779 6.67227 3.60666 7.08868 3.48172C8.087 3.18222 8.94457 2.28942 9.25732 1.22404C9.35663 0.885777 9.40744 0.472716 9.3823 0.208365C9.36024 -0.0232928 9.37134 -0.0129428 9.17328 0.013416ZM3.3393 3.55614C2.52515 3.70822 1.77427 4.14257 1.12882 4.8347C0.544809 5.46101 0.205198 6.2031 0.0639819 7.16151C-0.118599 8.4009 0.0928982 9.8568 0.656007 11.237C1.10768 12.3441 1.84548 13.4955 2.54557 14.1858C3.16345 14.795 3.68769 15.0368 4.30176 14.9955C4.6137 14.9746 4.76379 14.9317 5.31052 14.7072C5.82455 14.4962 6.09379 14.4247 6.51357 14.3877C7.11194 14.335 7.58919 14.4226 8.25811 14.7078C8.76869 14.9255 8.93292 14.9737 9.23284 14.9942C10.1303 15.0554 10.9534 14.4292 11.9718 12.9103C12.1564 12.6351 12.3891 12.2647 12.4889 12.0873C12.6634 11.7774 13 11.076 13 11.0224C13 11.0082 12.9141 10.9606 12.8092 10.9167C12.3583 10.7281 11.7819 10.2551 11.4815 9.82721C10.6805 8.68654 10.6544 7.20177 11.4153 6.06465C11.5941 5.79748 12.0159 5.38926 12.31 5.19871L12.578 5.02513L12.4002 4.82825C11.799 4.16218 10.9791 3.69479 10.1731 3.5586C9.49442 3.4439 8.87807 3.52925 7.96719 3.86406C7.36051 4.08704 7.14526 4.13527 6.7611 4.1343C6.35952 4.13327 6.1625 4.09023 5.4314 3.84374C5.12589 3.74074 4.75736 3.63029 4.61245 3.59827C4.25188 3.51867 3.6471 3.49864 3.3393 3.55614Z" fill="#410EAD"/>
</svg>
