<svg width="15" height="15" viewBox="0 0 15 15" fill="none" xmlns="http://www.w3.org/2000/svg">
<path fill-rule="evenodd" clip-rule="evenodd" d="M7.23778 0.0178645C7.19877 0.0259773 7.119 0.0495446 7.0605 0.0702289C6.96289 0.104759 2.64649 2.44651 2.5514 2.51654C2.52087 2.539 2.53778 2.58653 2.61472 2.69431C2.763 2.90206 2.86103 3.18899 2.88372 3.48182C2.95648 4.42002 2.15695 5.22507 1.15248 5.22507H0.871709L0.881459 7.74848L0.891174 10.2719L1.00431 10.4891C1.06657 10.6085 1.17028 10.7543 1.23478 10.813C1.29931 10.8718 2.30941 11.4429 3.47945 12.0821C4.6495 12.7214 5.65673 13.2731 5.71775 13.3082L5.82872 13.3719L5.92789 13.1789C6.0661 12.91 6.44229 12.56 6.72913 12.4335C7.2104 12.2212 7.7588 12.2191 8.23008 12.4276C8.54461 12.5668 8.88857 12.88 9.03443 13.1602L9.14488 13.3723L9.27273 13.3007C9.34304 13.2614 9.76755 13.029 10.2161 12.7843C13.0602 11.2327 13.5641 10.9516 13.6978 10.8426C13.7872 10.7698 13.8936 10.6313 13.9638 10.4965L14.0808 10.2719L14.0903 7.74848L14.0998 5.22507H13.837C12.8511 5.22507 12.0516 4.41158 12.1237 3.48182C12.1464 3.18903 12.2444 2.90206 12.3926 2.69441L12.4975 2.54738L10.2423 1.31514C8.80858 0.531786 7.922 0.0669435 7.80854 0.0391187C7.63602 -0.00322206 7.38414 -0.0125752 7.23778 0.0178645ZM0.916809 2.5099C0.568171 2.57903 0.254706 2.81795 0.0847302 3.14404C-0.0269912 3.35839 -0.0284804 3.79759 0.081752 4.02411C0.189609 4.2458 0.422093 4.47058 0.655676 4.57906C0.826609 4.65841 0.899542 4.67192 1.15709 4.67192C1.41443 4.67192 1.48761 4.65838 1.65791 4.57933C2.34015 4.26253 2.5381 3.45092 2.06675 2.903C1.79796 2.59056 1.32519 2.42897 0.916809 2.5099ZM13.5844 2.50521C13.2552 2.587 12.9894 2.78882 12.8203 3.08537C12.7095 3.27961 12.6994 3.32141 12.6999 3.5824C12.7004 3.80054 12.7182 3.90409 12.7759 4.02411C12.877 4.2345 13.1165 4.47386 13.3348 4.58258C13.4918 4.66083 13.5542 4.67159 13.8503 4.67159C14.1464 4.67159 14.2088 4.66083 14.3658 4.58258C14.5852 4.47326 14.8214 4.23658 14.9217 4.02558C14.9768 3.90946 14.9976 3.79578 14.9997 3.59845C15.0023 3.35909 14.9898 3.30492 14.8859 3.10538C14.6913 2.73166 14.3532 2.51577 13.9252 2.49186C13.7963 2.48466 13.6429 2.49066 13.5844 2.50521ZM7.65615 3.70399C8.01855 3.87814 10.8434 5.50791 10.8886 5.56892C10.9358 5.63265 10.9429 5.88251 10.9429 7.47221C10.9429 8.88481 10.9328 9.31459 10.8986 9.35656C10.8493 9.41703 7.71888 11.2809 7.58695 11.3284C7.53958 11.3454 7.46898 11.3458 7.42317 11.3293C7.37889 11.3134 6.95211 11.0704 6.47473 10.7893C5.99739 10.5081 5.2877 10.0903 4.89769 9.86066C4.50767 9.63105 4.16067 9.41268 4.12652 9.37536C4.06905 9.31257 4.06448 9.17184 4.06448 7.46933V5.63111L4.14425 5.54797C4.20679 5.4828 7.0116 3.88394 7.39708 3.69373C7.51001 3.63798 7.51961 3.63838 7.65615 3.70399ZM6.21831 4.97009C5.52111 5.36242 4.94162 5.69199 4.93056 5.70245C4.90797 5.72377 7.46023 7.18085 7.51919 7.18025C7.56152 7.17985 9.97607 5.81003 10.0519 5.74342C10.0919 5.70825 9.8758 5.57395 8.81794 4.97682C8.11254 4.57866 7.52426 4.25375 7.51068 4.25479C7.4971 4.25586 6.91552 4.57772 6.21831 4.97009ZM4.63177 7.63138V9.07321L5.84613 9.78654C6.51405 10.1789 7.09638 10.5216 7.14027 10.5482L7.22005 10.5966V9.12511V7.65364L6.00568 6.96932C5.33777 6.59295 4.75544 6.26354 4.71154 6.23729L4.63177 6.18955V7.63138ZM9.08148 6.931L7.80507 7.65924L7.79582 9.10982C7.78802 10.336 7.79422 10.5587 7.83599 10.5495C7.86315 10.5435 8.44551 10.2067 9.13013 9.80108L10.3748 9.06356L10.3752 7.63041C10.3754 6.8422 10.3716 6.1985 10.3668 6.20004C10.3619 6.20155 9.78351 6.53049 9.08148 6.931ZM7.13137 12.846C6.624 13.0035 6.30511 13.463 6.34127 13.9846C6.36964 14.3934 6.63286 14.7492 7.03653 14.9243C7.26901 15.0252 7.70292 15.0252 7.93541 14.9243C8.15856 14.8275 8.41133 14.601 8.52606 14.3952C8.60875 14.2468 8.62024 14.1875 8.62038 13.9078C8.62052 13.6374 8.60744 13.5641 8.53376 13.4225C8.42303 13.2098 8.20565 13.0043 7.98394 12.9028C7.77373 12.8066 7.34953 12.7783 7.13137 12.846Z" fill="#410EAD"/>
</svg>
