<svg width="15" height="8" viewBox="0 0 15 8" fill="none" xmlns="http://www.w3.org/2000/svg">
<path fill-rule="evenodd" clip-rule="evenodd" d="M0 3.79659V7.59317H0.715637H1.43127V6.28589V4.97862L2.0032 4.9786C2.61477 4.97857 2.76049 4.96639 2.99717 4.89553L3.11419 4.86049L3.5218 3.1752C3.74598 2.2483 3.95145 1.39657 3.97839 1.28247L4.02737 1.07502L3.97026 0.967464C3.74564 0.544426 3.40574 0.244114 2.99408 0.105007C2.71028 0.00910369 2.75311 0.0116395 1.31689 0.00557562L0 0V3.79659ZM6.05299 2.44256C5.72747 3.78529 5.45759 4.88394 5.45326 4.884C5.44892 4.88407 5.2592 4.38677 5.03167 3.7789L4.61796 2.6737L4.58466 2.80631C4.56635 2.87927 4.3952 3.58545 4.20431 4.37562L3.85726 5.81227L4.21765 6.64366C4.41587 7.10093 4.59072 7.50163 4.60622 7.53411L4.63437 7.59317H5.37273H6.11109L6.33962 6.65996C6.4653 6.14671 6.70703 5.15834 6.87679 4.4636C7.04655 3.76886 7.18883 3.20894 7.19297 3.21932C7.19979 3.23641 8.17712 7.42089 8.2026 7.54209L8.21338 7.59341L8.95839 7.58934L9.70341 7.5853L10.8406 3.79734C11.4661 1.71397 11.9779 0.00762316 11.978 0.00544961C11.9781 0.00327607 11.6389 0.00159078 11.2244 0.00168529L10.4706 0.00185854L9.69723 2.43905C9.27189 3.7795 8.92081 4.88112 8.91707 4.88708C8.91333 4.89304 8.66181 3.798 8.35815 2.45365L7.80603 0.0093872L7.22544 0.00530786L6.64484 0.00122853L6.05299 2.44256ZM12.8705 0.428314C12.8701 0.433481 12.7057 0.993405 12.5053 1.67259C12.3048 2.35176 12.1407 2.92162 12.1405 2.93895C12.1403 2.95627 12.2719 3.4648 12.4329 4.06904L12.7256 5.16762H12.1015H11.4774L11.2644 5.89009C11.1472 6.28745 11.0513 6.62054 11.0513 6.63027C11.0513 6.64321 11.3236 6.64906 12.0628 6.65199L13.0743 6.65603L13.2527 7.3229C13.3508 7.68967 13.4333 7.99273 13.436 7.99633C13.4386 7.99995 13.7917 8.00109 14.2204 7.99885L15 7.9948L13.9468 4.23835C12.9329 0.621918 12.8723 0.407367 12.8705 0.428314ZM2.10032 1.48193C2.51424 1.52202 2.72495 1.70458 2.82758 2.11206C2.86417 2.25732 2.87308 2.57549 2.84571 2.7591C2.80246 3.04922 2.68399 3.27309 2.51779 3.37879C2.34819 3.48667 2.19554 3.51352 1.75096 3.51371L1.43127 3.51384V2.50057C1.43127 1.94326 1.43479 1.48256 1.4391 1.4768C1.45096 1.46086 1.92034 1.46451 2.10032 1.48193Z" fill="#410EAD"/>
</svg>
