<svg width="15" height="15" viewBox="0 0 15 15" fill="none" xmlns="http://www.w3.org/2000/svg">
<path fill-rule="evenodd" clip-rule="evenodd" d="M7.97345 0.0430537C8.20269 0.0988251 8.47626 0.227043 8.72125 0.393478C9.30826 0.792201 9.90658 1.70602 10.2678 2.75551L10.3544 3.00732L10.7807 2.92584C11.4055 2.80642 11.8258 2.77227 12.4496 2.79033C13.0849 2.8087 13.4028 2.86855 13.8041 3.04533C14.5308 3.36545 14.8524 3.85414 14.8168 4.58451C14.7794 5.35379 14.2731 6.27242 13.3774 7.19638C13.2189 7.3598 13.2083 7.37934 13.2579 7.41618C13.3694 7.49906 13.8611 8.01428 14.0814 8.27922C14.8139 9.15975 15.1234 9.99564 14.9554 10.6393C14.7871 11.2839 14.16 11.7363 13.1649 11.931C12.8802 11.9867 12.7308 11.9964 12.15 11.9971C11.4675 11.9978 11.1059 11.9643 10.548 11.8485C10.4339 11.8248 10.3295 11.8161 10.3159 11.8291C10.3023 11.842 10.2589 11.9516 10.2195 12.0725C10.0461 12.6045 9.67452 13.3536 9.38152 13.7617C8.65895 14.7683 7.7161 15.1994 6.8634 14.9132C6.00452 14.6249 5.2895 13.7612 4.77862 12.3949L4.62949 11.9961L4.27364 12.0625C3.6135 12.1856 3.12075 12.2274 2.51919 12.2112C2.10168 12.2 1.90248 12.1812 1.70661 12.1346C0.942366 11.9526 0.404759 11.5286 0.218335 10.9608C0.136475 10.7115 0.14867 10.2664 0.247039 9.91481C0.402911 9.35754 0.888885 8.58439 1.49123 7.9355L1.78118 7.62312L1.68417 7.53986C1.63082 7.49405 1.46716 7.33131 1.32047 7.17818C0.431256 6.24991 0.00314331 5.46597 3.05176e-05 4.76035C-0.00133228 4.45186 0.0421925 4.26928 0.174 4.03028C0.672427 3.12663 2.25946 2.77268 4.25146 3.12088C4.47378 3.15974 4.66507 3.18187 4.67652 3.17C4.68794 3.15816 4.7375 3.02977 4.7866 2.8847C5.05462 2.09299 5.50917 1.29139 5.97338 0.791908C6.54884 0.172708 7.31993 -0.115996 7.97345 0.0430537ZM7.21326 0.978858C6.69676 1.19251 6.14498 1.99408 5.711 3.16109L5.6186 3.4095L6.20858 3.58962C6.53308 3.68868 6.93291 3.81903 7.09712 3.87926L7.39566 3.98881L7.72956 3.85039C8.13432 3.68258 8.63803 3.49897 9.05265 3.36809C9.22212 3.31457 9.37364 3.26065 9.38937 3.24825C9.43403 3.21305 9.15858 2.51994 8.93502 2.10486C8.63349 1.5451 8.38035 1.22987 8.08489 1.04618C7.7904 0.863065 7.53986 0.843723 7.21326 0.978858ZM11.9392 3.66154C11.5409 3.69254 10.677 3.82876 10.6295 3.86804C10.6133 3.88152 10.6314 4.04482 10.6717 4.24791C10.7529 4.65642 10.8672 5.41879 10.8682 5.5577C10.869 5.66257 10.8791 5.67106 11.3878 5.99526C11.5573 6.10326 11.8773 6.3232 12.0989 6.48407L12.502 6.77656L12.5692 6.70299C12.6062 6.66255 12.7256 6.53202 12.8346 6.41294C13.2718 5.93518 13.6899 5.26715 13.8047 4.86292C13.8855 4.57826 13.8622 4.2582 13.7502 4.11597C13.5632 3.87844 13.1868 3.71417 12.717 3.66503C12.3754 3.62927 12.3551 3.62918 11.9392 3.66154ZM1.91743 3.94075C1.25638 4.07828 0.976874 4.323 0.976874 4.76427C0.976874 5.02687 1.04018 5.21862 1.24351 5.57174C1.42824 5.89254 1.73392 6.27268 2.15681 6.70745L2.44485 7.00357L2.56732 6.9077C2.63465 6.85498 2.85532 6.68189 3.05764 6.52305C3.25998 6.36421 3.58662 6.12377 3.78345 5.98875L4.14132 5.74325L4.19911 5.32507C4.2309 5.09506 4.29686 4.71325 4.34571 4.4766L4.43454 4.04631L4.15708 4.00165C3.88328 3.95757 3.4838 3.90684 3.23096 3.88404C2.93861 3.85769 2.15386 3.89157 1.91743 3.94075ZM9.12307 4.27995C8.8792 4.36227 8.6597 4.43952 8.63528 4.45157C8.60592 4.46608 8.74324 4.54617 9.04069 4.68799C9.28808 4.80595 9.56159 4.94032 9.64848 4.9866C9.73537 5.03287 9.81259 5.06523 9.82005 5.05849C9.83461 5.0453 9.79543 4.79889 9.71325 4.38668C9.67627 4.20108 9.64893 4.13025 9.61429 4.13025C9.58799 4.13025 9.36693 4.19762 9.12307 4.27995ZM5.29943 4.64541C5.25976 4.83757 5.23057 5.00998 5.23456 5.02854C5.24004 5.05406 6.15254 4.59189 6.2238 4.5275C6.24219 4.51091 5.44528 4.27833 5.40396 4.28824C5.38612 4.29252 5.33909 4.45324 5.29943 4.64541ZM7.07766 5.11699C6.60498 5.34529 5.93524 5.70518 5.46347 5.98439L5.06889 6.21788L5.04185 6.50022C5.02696 6.65549 5.01476 7.23375 5.01476 7.78525C5.01476 8.63758 5.02206 8.79455 5.06341 8.83171C5.16464 8.92271 6.14515 9.41991 6.8384 9.73176L7.55932 10.0561L8.0222 9.82807C8.60524 9.54089 8.95665 9.35048 9.49475 9.03018L9.92062 8.77667L9.94021 8.54157C9.98477 8.00687 10.0005 7.24711 9.9778 6.72958L9.95361 6.17837L9.81933 6.10164C9.40572 5.86525 8.88692 5.60583 8.21164 5.29766C7.79364 5.1069 7.44493 4.95084 7.43666 4.95084C7.42838 4.95084 7.26684 5.02561 7.07766 5.11699ZM7.94994 6.14897C8.21076 6.22503 8.33122 6.28889 8.52283 6.45262C8.8313 6.71624 9.00167 7.03156 9.04069 7.41102C9.0798 7.79125 8.93512 8.15463 8.62548 8.45371C8.12929 8.93303 7.32003 9.04604 6.7073 8.72155C6.50372 8.61373 6.21754 8.32186 6.10626 8.10856C5.93621 7.78258 5.90057 7.49077 5.98924 7.15087C6.11401 6.67252 6.567 6.26984 7.12916 6.13754C7.37497 6.07969 7.72923 6.08462 7.94994 6.14897ZM10.9545 8.05408C10.9668 8.06838 11.3385 7.7926 11.6095 7.56817L11.815 7.39798L11.3987 7.09911L10.9824 6.80024L10.9636 7.42149C10.9533 7.76318 10.9492 8.04784 10.9545 8.05408ZM3.64869 7.21833C3.10583 7.64079 3.11219 7.55905 3.59544 7.90412L4.00935 8.19968L4.01655 8.10654C4.03536 7.86291 4.03941 6.94369 4.02167 6.94372C4.01061 6.94372 3.84277 7.06731 3.64869 7.21833ZM7.24452 7.03519C6.85844 7.20409 6.80859 7.6885 7.15284 7.92577C7.59885 8.2332 8.23609 7.7912 8.03452 7.31425C7.90722 7.01306 7.56859 6.89343 7.24452 7.03519ZM12.2738 8.20703C12.002 8.43469 11.4395 8.85551 11.0753 9.10351L10.8438 9.26112L10.8216 9.45786C10.7939 9.7048 10.6601 10.4671 10.5969 10.7387C10.5707 10.8513 10.5529 10.9468 10.5573 10.9508C10.5873 10.9779 11.3922 11.0815 11.8013 11.1109C12.9213 11.1914 13.7262 10.987 13.9449 10.5664C14.0311 10.4007 14.0387 10.1041 13.9626 9.87247C13.8641 9.57295 13.5669 9.104 13.2299 8.7168C13.0977 8.5649 12.5468 7.99878 12.5312 7.99878C12.5263 7.99878 12.4105 8.0925 12.2738 8.20703ZM2.26718 8.46036C1.75659 9.00811 1.30698 9.70524 1.18717 10.1349C1.12707 10.3504 1.11913 10.6439 1.17008 10.765C1.34726 11.1861 2.06581 11.4125 2.99783 11.3408C3.43 11.3075 4.31632 11.1728 4.36277 11.1332C4.37986 11.1186 4.37023 11.008 4.33938 10.8651C4.26998 10.5432 4.16068 9.85301 4.13402 9.56797L4.11271 9.33999L3.90135 9.20424C3.51332 8.95501 2.81108 8.47235 2.66338 8.35333C2.58311 8.28865 2.50878 8.23517 2.49817 8.23449C2.4876 8.23379 2.38365 8.33546 2.26718 8.46036ZM9.21407 10.2232C8.99152 10.3425 8.79686 10.4501 8.78148 10.4624C8.76611 10.4746 8.9393 10.5393 9.1663 10.606C9.39333 10.6728 9.58702 10.7201 9.59675 10.7114C9.61465 10.6952 9.76384 10.0381 9.76537 9.96874C9.76631 9.9249 9.79741 9.91054 9.21407 10.2232ZM5.19276 10.1565C5.21179 10.2673 5.25065 10.4747 5.27909 10.6174L5.33082 10.8768L5.4215 10.8604C5.47139 10.8514 5.71301 10.775 5.95843 10.6907C6.26849 10.5843 6.39053 10.5299 6.35836 10.5125C6.19814 10.4258 5.17521 9.93955 5.16752 9.94644C5.16237 9.9511 5.17372 10.0456 5.19276 10.1565ZM7.17778 11.1823C6.72141 11.3651 5.96758 11.6351 5.74924 11.6938C5.67156 11.7148 5.6018 11.7465 5.59418 11.7644C5.56901 11.8237 5.8419 12.4911 6.05297 12.8865C6.49769 13.7195 6.92704 14.1089 7.39858 14.107C7.73633 14.1057 8.04659 13.9228 8.37072 13.5341C8.70212 13.1367 8.9406 12.7 9.21625 11.9858L9.36845 11.5914L8.81323 11.4232C8.50788 11.3308 8.1194 11.2027 7.94994 11.1387C7.78048 11.0746 7.63005 11.0212 7.61562 11.0198C7.60122 11.0185 7.40419 11.0916 7.17778 11.1823Z" fill="#410EAD"/>
</svg>
