<svg width="15" height="15" viewBox="0 0 15 15" fill="none" xmlns="http://www.w3.org/2000/svg">
<path fill-rule="evenodd" clip-rule="evenodd" d="M1.11 0.0314552C0.611829 0.154729 0.168371 0.673677 0.0482874 1.27391C-0.0156203 1.59349 -0.0163232 10.4202 0.0475552 10.7366C0.173408 11.3601 0.619913 11.8697 1.14061 11.984C1.33391 12.0264 3.13249 12.0305 3.2372 11.9887C3.41545 11.9176 3.46785 11.6432 3.33066 11.4991L3.25404 11.4186L2.23688 11.4032C1.25838 11.3885 1.21512 11.3853 1.09881 11.32C0.934766 11.2279 0.752444 11.003 0.67152 10.7929L0.604654 10.6193V7.66814V4.71696L6.9676 4.70921L13.3306 4.70143V6.26934V7.83722L13.2207 7.8379C13.0888 7.8387 12.8764 7.93461 12.7699 8.04144L12.6925 8.11903L12.4917 8.02767C12.3812 7.97744 12.2623 7.9273 12.2275 7.91629C12.1772 7.9004 12.1599 7.86341 12.1435 7.73611C12.1087 7.46586 11.9832 7.27201 11.7678 7.15577C11.6253 7.07889 11.1136 7.04526 10.8571 7.09592C10.5364 7.15931 10.326 7.39319 10.2937 7.72256L10.2774 7.88745L10.017 8.00301L9.75646 8.11857L9.66552 8.03827C9.50976 7.9007 9.40178 7.85733 9.2155 7.85742C9.09401 7.85748 9.00363 7.8774 8.92262 7.92198C8.7649 8.00873 8.27715 8.5314 8.22089 8.67395C8.12857 8.90777 8.19345 9.24589 8.36728 9.43683L8.43818 9.5147L8.32516 9.79036L8.21213 10.066L8.05482 10.0825C7.87514 10.1014 7.75544 10.1608 7.64458 10.2861C7.48897 10.4621 7.46223 10.5591 7.44905 10.9959L7.43675 11.4032H6.52994H5.62314L5.53753 11.4931C5.39384 11.6439 5.43347 11.8845 5.61839 11.9837C5.66262 12.0075 6.07448 12.0181 6.95149 12.0181H8.22063L8.33236 12.2955L8.4441 12.573L8.35746 12.6766C8.17169 12.8987 8.12898 13.218 8.2515 13.4689C8.32812 13.6259 8.7936 14.0989 8.94001 14.1687C9.12193 14.2553 9.32973 14.2499 9.51334 14.1539C9.59488 14.1113 9.68348 14.051 9.71025 14.0199C9.75725 13.9654 9.76794 13.9673 10.0185 14.0744L10.2781 14.1853L10.3096 14.3843C10.3504 14.6421 10.4563 14.8015 10.6618 14.9141C10.8099 14.9953 10.8392 15 11.1997 15C11.4095 15 11.6313 14.9842 11.6927 14.9649C11.9404 14.887 12.1211 14.6387 12.151 14.3351C12.1599 14.2443 12.1818 14.1698 12.1997 14.1696C12.2176 14.1694 12.3372 14.1211 12.4655 14.0624L12.6987 13.9555L12.7877 14.0458C12.9739 14.235 13.2882 14.2882 13.5209 14.17C13.6738 14.0923 14.1649 13.5697 14.2236 13.4222C14.3187 13.1833 14.2616 12.8631 14.0909 12.6779L14.0048 12.5846L14.1067 12.3398C14.1627 12.2051 14.2087 12.0776 14.2089 12.0565C14.2091 12.0329 14.2502 12.0181 14.3156 12.0181C14.5036 12.0181 14.6567 11.9497 14.7958 11.8037C14.9692 11.6217 15 11.5022 15 11.0112C15 10.6328 14.9955 10.602 14.9182 10.4466C14.8063 10.2217 14.6486 10.1087 14.4128 10.0845L14.2321 10.066L14.165 9.87821C14.1281 9.77495 14.0771 9.64839 14.0518 9.59696C14.01 9.51205 14.01 9.49979 14.0517 9.46345C14.0769 9.44144 14.1358 9.35358 14.1824 9.26821C14.3374 8.98462 14.2899 8.67551 14.0482 8.39466L13.9482 8.27855L13.9394 4.82234L13.9306 1.36613L13.8505 1.1178C13.7153 0.698239 13.428 0.313785 13.1306 0.154544C12.8237 -0.00976918 13.1324 -0.00211452 6.94681 0.00120557C3.74861 0.00295784 1.17127 0.0162996 1.11 0.0314552ZM12.7544 0.662056C12.9324 0.725722 13.1227 0.921669 13.2305 1.15248L13.3159 1.33539L13.3244 2.71107L13.3328 4.08676H6.95972H0.586641L0.595984 2.74181C0.605093 1.42611 0.606762 1.39309 0.671871 1.22327C0.779917 0.941343 0.996213 0.717668 1.23418 0.641675C1.27454 0.628794 3.85223 0.617051 6.96239 0.615606C12.0683 0.613208 12.6305 0.617727 12.7544 0.662056ZM2.49377 1.36742C2.31247 1.41977 2.0673 1.58323 1.9763 1.71243C1.81079 1.94739 1.77634 2.06009 1.77672 2.36523C1.77705 2.60717 1.78862 2.68174 1.84421 2.79979C1.95225 3.02928 2.09814 3.18372 2.31054 3.29347C2.48164 3.38188 2.5346 3.39433 2.74135 3.39467C2.93887 3.39501 3.0055 3.38108 3.15276 3.30878C3.37937 3.1975 3.58371 2.97118 3.66643 2.73991C3.75233 2.49969 3.7395 2.13928 3.63725 1.92028C3.43071 1.47791 2.93731 1.23935 2.49377 1.36742ZM5.06909 1.36023C4.56134 1.51083 4.25073 2.01601 4.34249 2.54199C4.40339 2.89119 4.60296 3.15744 4.92121 3.31407C5.15382 3.42855 5.48232 3.42793 5.71985 3.31259C5.92991 3.21059 6.11003 3.02193 6.20909 2.80016C6.2739 2.65503 6.28664 2.58365 6.28664 2.36523C6.28664 2.1414 6.2749 2.07884 6.20481 1.92901C5.99862 1.48833 5.49222 1.23471 5.06909 1.36023ZM8.57836 1.3534C7.97724 1.5021 7.63582 2.20119 7.88065 2.78208C7.96122 2.97327 8.18469 3.21096 8.37712 3.31016L8.54186 3.39507H10.0942C11.646 3.39507 11.6465 3.39504 11.7906 3.32532C12.0113 3.21846 12.1675 3.06644 12.276 2.85276C12.5147 2.38272 12.3813 1.81935 11.9588 1.51301C11.703 1.32749 11.6256 1.31968 10.0807 1.32309C9.31488 1.32481 8.63884 1.33843 8.57836 1.3534ZM2.9968 2.04733C3.17681 2.21829 3.18349 2.49668 3.01156 2.66204C2.87642 2.79205 2.7359 2.81974 2.59063 2.74498C2.31892 2.6052 2.26848 2.25647 2.48958 2.04644C2.61215 1.92999 2.87379 1.93045 2.9968 2.04733ZM5.56904 2.05336C5.74486 2.19068 5.75339 2.48534 5.58665 2.66035C5.45731 2.7961 5.31605 2.82134 5.15203 2.738C4.9961 2.65878 4.92472 2.53769 4.92472 2.35235C4.92472 2.23516 4.9413 2.19163 5.02038 2.10107C5.16984 1.92987 5.38681 1.91099 5.56904 2.05336ZM11.6278 2.02397C11.8074 2.15843 11.8567 2.40187 11.7411 2.58356C11.6045 2.7981 11.6241 2.79552 10.1344 2.79555C9.39946 2.79558 8.75544 2.78663 8.70325 2.77569C8.5759 2.74895 8.42251 2.58285 8.39788 2.44497C8.37343 2.3082 8.461 2.08072 8.55938 2.02547C8.70295 1.94481 8.81946 1.93888 10.1527 1.94447L11.5293 1.95022L11.6278 2.02397ZM4.64086 6.4849C4.60556 6.49981 4.55551 6.54596 4.52962 6.58743C4.47497 6.67495 3.89631 9.1782 3.89004 9.35416C3.88656 9.45164 3.90252 9.48801 3.98104 9.56167C4.14975 9.7199 4.38335 9.65359 4.45338 9.42761C4.52121 9.20876 5.04542 6.86244 5.04653 6.77267C5.04814 6.64424 4.99967 6.55653 4.89602 6.50027C4.80069 6.44853 4.73605 6.44463 4.64086 6.4849ZM2.6811 6.73929C2.557 6.81445 1.73329 7.81847 1.69835 7.93713C1.63839 8.14083 1.69126 8.23908 2.1585 8.79187C2.39354 9.06993 2.61271 9.32167 2.64554 9.35124C2.68192 9.38401 2.75341 9.40504 2.82836 9.40504C2.99701 9.40504 3.10883 9.28613 3.10883 9.10679C3.10883 8.98914 3.0842 8.95182 2.72808 8.53008C2.51866 8.28205 2.34733 8.06914 2.34733 8.0569C2.34733 8.04467 2.42312 7.94497 2.51573 7.83535C3.12851 7.11009 3.10883 7.13767 3.10883 7.00465C3.10883 6.77065 2.87194 6.6237 2.6811 6.73929ZM5.92625 6.7763C5.82271 6.86776 5.79454 6.98891 5.84755 7.1148C5.8689 7.16552 6.04551 7.39378 6.23999 7.62203C6.43449 7.85029 6.59373 8.0458 6.59388 8.05647C6.59406 8.06717 6.42852 8.2712 6.22602 8.50991C5.78437 9.03055 5.74 9.14567 5.91163 9.32582C5.96874 9.3858 6.0164 9.40479 6.10757 9.40406C6.17385 9.40353 6.24909 9.38623 6.27481 9.36563C6.40403 9.26209 7.21348 8.27037 7.24151 8.18125C7.3022 7.98826 7.25697 7.89028 6.92218 7.4895C6.75002 7.28341 6.52291 7.02143 6.4175 6.90729C6.25009 6.72607 6.21237 6.69979 6.11938 6.69979C6.04864 6.69979 5.9838 6.72549 5.92625 6.7763ZM11.544 7.93713C11.544 8.0877 11.5606 8.1949 11.5953 8.2676C11.6417 8.36512 11.6726 8.38412 11.9247 8.47025C12.0777 8.52254 12.3114 8.62285 12.4439 8.69313C12.5765 8.76343 12.7152 8.82095 12.7522 8.82095C12.8359 8.82095 12.9246 8.7599 13.1037 8.57917L13.2431 8.43862L13.4625 8.66743C13.5833 8.79328 13.682 8.91096 13.682 8.92895C13.682 8.9469 13.6163 9.02956 13.5359 9.11266C13.4555 9.19575 13.3753 9.30977 13.3576 9.36606C13.3281 9.45982 13.3377 9.49468 13.4723 9.78255C13.5531 9.95535 13.6463 10.1944 13.6795 10.3139C13.7665 10.6269 13.8256 10.6754 14.145 10.6955L14.3996 10.7116L14.408 11.0144C14.4135 11.2114 14.4045 11.3324 14.3825 11.3603C14.3587 11.3903 14.2802 11.4032 14.1217 11.4032C13.817 11.4032 13.7726 11.4415 13.668 11.7944C13.6241 11.9428 13.5288 12.1842 13.4563 12.3308C13.3352 12.5759 13.3272 12.6059 13.3571 12.7012C13.3751 12.7583 13.4555 12.8729 13.5359 12.956C13.6163 13.0391 13.682 13.1218 13.682 13.1397C13.682 13.1813 13.266 13.6166 13.2263 13.6166C13.2101 13.6166 13.1257 13.5411 13.0388 13.4488C12.8199 13.2162 12.7686 13.2101 12.4567 13.3799C12.3171 13.4559 12.088 13.5548 11.9476 13.5997C11.6118 13.7069 11.5732 13.7563 11.5732 14.0781C11.5732 14.2445 11.5609 14.3269 11.5323 14.3518C11.5057 14.375 11.3904 14.3844 11.2028 14.3786L10.9142 14.3698L10.899 14.1026C10.8798 13.7678 10.8337 13.7057 10.5353 13.613C10.4215 13.5777 10.1972 13.4797 10.0367 13.3953C9.76768 13.2538 9.73687 13.2444 9.64118 13.2745C9.58313 13.2928 9.47342 13.3753 9.3922 13.4619C9.31233 13.547 9.23299 13.6166 9.21588 13.6166C9.19875 13.6166 9.08818 13.5146 8.97015 13.3899C8.73288 13.1392 8.72773 13.1058 8.90583 12.9727C9.01139 12.8938 9.11299 12.7266 9.11299 12.6319C9.11299 12.5931 9.05503 12.4426 8.98418 12.2974C8.91333 12.1522 8.82608 11.9297 8.79029 11.8029C8.6954 11.4667 8.64402 11.4222 8.32899 11.4032L8.07325 11.3879L8.06496 11.042L8.05667 10.6962L8.26998 10.6961C8.41446 10.6961 8.5163 10.6788 8.58559 10.6423C8.67876 10.5934 8.69721 10.5597 8.79225 10.2658C8.84966 10.0883 8.94532 9.84757 9.0048 9.73087C9.06431 9.61421 9.11299 9.49247 9.11299 9.46038C9.11299 9.36757 9.0403 9.24666 8.89567 9.09892C8.82189 9.02354 8.76153 8.94779 8.76153 8.93061C8.76153 8.87958 9.15133 8.48279 9.20144 8.48279C9.22681 8.48279 9.29965 8.53927 9.36332 8.60828C9.49723 8.75344 9.60718 8.82095 9.70966 8.82095C9.74946 8.82095 9.89415 8.75941 10.0312 8.68418C10.1682 8.60896 10.3768 8.51772 10.4947 8.48138C10.6408 8.43644 10.7349 8.38676 10.7898 8.32564C10.8635 8.2435 10.8703 8.2155 10.8703 7.99557C10.8703 7.86338 10.8791 7.74601 10.8898 7.73476C10.9006 7.72348 11.0521 7.71426 11.2267 7.71426H11.5439L11.544 7.93713ZM10.7824 9.20737C10.2903 9.34242 9.83173 9.73539 9.61623 10.2067C9.46572 10.5359 9.42377 10.7659 9.44143 11.1651C9.45251 11.4155 9.47222 11.5242 9.53756 11.6953C9.75227 12.2575 10.1294 12.6387 10.6701 12.8403C10.9453 12.9428 11.4257 12.9553 11.705 12.8672C12.3153 12.6748 12.7868 12.1796 12.9675 11.5416C13.0464 11.2628 13.0407 10.8045 12.9547 10.5117C12.7673 9.87431 12.2475 9.35226 11.6539 9.20534C11.4238 9.14841 10.9936 9.14939 10.7824 9.20737ZM11.7328 9.89165C12.4857 10.2614 12.6689 11.2767 12.0973 11.9111C11.5167 12.5555 10.5229 12.3954 10.1469 11.5968C10.056 11.4036 10.0376 11.3297 10.0268 11.1142C10.011 10.7984 10.0642 10.5887 10.2235 10.3389C10.3677 10.1127 10.5882 9.93469 10.8383 9.84262C11.1176 9.73979 11.4621 9.75866 11.7328 9.89165ZM4.27709 11.4494C4.10722 11.5463 4.09796 11.8013 4.25914 11.9436C4.33546 12.011 4.37049 12.0217 4.46928 12.0078C4.63066 11.9851 4.7197 11.8744 4.7197 11.6963C4.7197 11.5845 4.70482 11.5493 4.62958 11.4828C4.52807 11.3932 4.39735 11.3807 4.27709 11.4494Z" fill="#410EAD"/>
</svg>
