<svg width="15" height="12" viewBox="0 0 15 12" fill="none" xmlns="http://www.w3.org/2000/svg">
<path fill-rule="evenodd" clip-rule="evenodd" d="M6.95144 0.01989C6.55044 0.112322 6.44581 0.145027 6.23603 0.243531C6.0087 0.350282 5.66163 0.553364 5.6048 0.61284C5.58922 0.629165 5.54413 0.667581 5.50461 0.698224C5.30008 0.856762 5.20239 0.945489 5.20239 0.972761C5.20239 0.98942 5.26857 1.07441 5.34947 1.16164L5.49654 1.32026L5.71283 1.13356C5.83179 1.03087 5.96237 0.928523 6.00301 0.906154C6.04366 0.883784 6.08279 0.858517 6.08997 0.85002C6.10276 0.834921 6.16706 0.801966 6.40323 0.689477C6.66173 0.566346 6.84598 0.515673 7.14039 0.486729C7.52952 0.448452 8.06405 0.488762 8.30881 0.574815C8.53911 0.655769 9.01303 0.899969 9.06597 0.964961C9.07315 0.973792 9.11719 1.00469 9.16387 1.03366C9.21054 1.06263 9.24871 1.0935 9.24871 1.10227C9.24871 1.11105 9.30233 1.16607 9.36788 1.22451L9.48705 1.33082L9.64198 1.15598C9.72719 1.05982 9.79663 0.973875 9.79627 0.965045C9.7959 0.956186 9.71662 0.886263 9.62006 0.809655C9.52349 0.733046 9.43862 0.662678 9.43145 0.65329C9.39349 0.603675 9.00958 0.362762 8.87227 0.302367C8.78497 0.264007 8.69006 0.22222 8.66134 0.209545C8.52423 0.149066 8.28062 0.0704238 8.13923 0.0410618C7.93843 -0.000696836 7.10513 -0.0155171 6.95144 0.01989ZM7.06892 1.00758C6.6675 1.11784 6.42414 1.23395 6.11678 1.46194C5.86181 1.6511 5.84213 1.67372 5.88481 1.72876C5.94475 1.80604 6.15435 2.02113 6.16988 2.0213C6.17795 2.02138 6.20804 1.99809 6.23679 1.96954C6.32421 1.88262 6.592 1.69639 6.7165 1.63597C6.99366 1.50139 7.10667 1.47824 7.4866 1.47824C7.85826 1.47824 7.9608 1.49802 8.24366 1.62427C8.35395 1.67349 8.69191 1.90485 8.76062 1.97814C8.78294 2.00196 8.80944 2.02146 8.81949 2.02146C8.8469 2.02146 9.11818 1.71912 9.11818 1.68856C9.11818 1.67405 9.07414 1.62711 9.02029 1.58429C8.96646 1.54145 8.91652 1.49905 8.90934 1.49002C8.88997 1.4657 8.49518 1.21359 8.47646 1.21359C8.46761 1.21359 8.42336 1.19551 8.37812 1.17342C8.11887 1.04681 7.95979 1.01469 7.53881 1.00391C7.30909 0.998028 7.09763 0.9997 7.06892 1.00758ZM7.25166 2.00531C7.06665 2.04556 6.84937 2.14111 6.70193 2.24708C6.51606 2.38066 6.51499 2.38807 6.65622 2.56029C6.72527 2.64447 6.79758 2.71437 6.8169 2.71562C6.83622 2.71687 6.88532 2.69261 6.92602 2.66166C7.06098 2.55912 7.33339 2.46719 7.50232 2.46719C7.66292 2.46719 7.96668 2.57157 8.04293 2.65297C8.13788 2.75426 8.16495 2.74796 8.30456 2.59224C8.37875 2.50947 8.43945 2.42448 8.43945 2.40339C8.43945 2.35144 8.19779 2.17816 8.02427 2.10568C7.87012 2.04127 7.55583 1.96413 7.46533 1.96848C7.43395 1.96998 7.3378 1.98656 7.25166 2.00531ZM7.37291 3.01225C7.21406 3.06548 7.06396 3.24887 7.05519 3.40042C7.04271 3.61556 7.05524 3.65852 7.16757 3.78544C7.29348 3.92765 7.36673 3.95634 7.55476 3.93704C7.76488 3.9155 7.94344 3.70075 7.94344 3.46962C7.94344 3.27492 7.80292 3.08228 7.60964 3.012C7.54403 2.98815 7.4895 2.96985 7.48848 2.97138C7.48744 2.97289 7.43544 2.99127 7.37291 3.01225ZM5.54176 3.49792C5.33357 3.50558 5.14561 3.5236 5.12407 3.53795C5.01981 3.60743 4.77946 3.88191 4.73278 3.98481C4.68806 4.08337 4.68028 4.15678 4.68028 4.48043C4.68028 4.71588 4.69229 4.88994 4.71185 4.93824C4.76184 5.06171 4.937 5.27488 5.0686 5.3724L5.18934 5.46188H7.47611C9.87174 5.46188 9.80616 5.46484 9.94924 5.35045C9.9925 5.31585 10.1138 5.18161 10.1978 5.07533C10.288 4.96114 10.3281 4.72185 10.3139 4.38301C10.2995 4.04036 10.2598 3.93509 10.0676 3.72986C9.85388 3.50174 9.85553 3.50221 9.17783 3.48065C8.84849 3.47017 8.54763 3.47001 8.50925 3.48028C8.44044 3.4987 8.43945 3.50238 8.43945 3.73524V3.9715L9.00724 3.97217C9.60304 3.97286 9.76076 3.9925 9.81579 4.07279C9.86537 4.14514 9.86051 4.8306 9.80992 4.90194C9.75526 4.97905 9.34809 4.99555 7.49966 4.9956C5.67641 4.99563 5.24855 4.97986 5.18323 4.91016C5.1454 4.8698 5.13846 4.8026 5.13786 4.47076C5.13689 3.9498 5.08701 3.97966 5.96597 3.97479L6.55986 3.9715V3.7193V3.46708L6.24008 3.47555C6.06418 3.48017 5.74995 3.49026 5.54176 3.49792ZM3.62302 4.00142C3.37894 4.01223 3.12068 4.03515 3.0491 4.05237C2.61708 4.15636 2.23004 4.31551 1.87608 4.53475C1.7744 4.59774 1.68536 4.65666 1.67818 4.66571C1.671 4.67477 1.59464 4.73778 1.50849 4.8057C1.32949 4.94685 1.26172 5.01084 1.06421 5.22509C0.88429 5.42024 0.739771 5.59577 0.738988 5.62009C0.738649 5.63048 0.723142 5.65555 0.704503 5.6758C0.587839 5.80261 0.386254 6.18139 0.2539 6.52251C0.0468851 7.05609 0 7.32829 0 7.99693C0 8.82297 0.0918122 9.19345 0.492137 9.9831C0.698342 10.3898 1.24154 11.0213 1.59161 11.2612C1.63205 11.2889 1.68726 11.333 1.71433 11.3591C1.74141 11.3853 1.80521 11.4278 1.85614 11.4536C1.90707 11.4794 2.00585 11.5364 2.07566 11.5803C2.14546 11.6243 2.21676 11.6603 2.23406 11.6604C2.25137 11.6605 2.2988 11.6791 2.33945 11.7017C2.52809 11.8067 2.88466 11.9105 3.19654 11.9513C3.69447 12.0164 11.2813 12.0162 11.7767 11.951C12.3041 11.8817 12.8688 11.6468 13.3318 11.3041C13.5874 11.115 13.6498 11.0588 13.8954 10.7966C14.4026 10.2554 14.6888 9.72672 14.883 8.97195C15.0211 8.43549 15.0376 7.81987 14.929 7.25179C14.7739 6.43958 14.4486 5.78916 13.9085 5.21114C13.6157 4.89774 13.1705 4.54361 12.9034 4.41157C12.5647 4.24406 12.4421 4.19525 12.1986 4.13096C11.8579 4.041 11.6076 4.00604 11.1479 3.98412L10.7889 3.96701V4.20383C10.7889 4.48603 10.7449 4.4621 11.311 4.4877C11.6761 4.50419 12.0817 4.57242 12.3291 4.65894C12.5732 4.7443 13.1422 5.06394 13.2593 5.18152C13.2756 5.19782 13.3622 5.28011 13.4519 5.36438C13.5416 5.44865 13.6282 5.53387 13.6443 5.55376C13.6604 5.57365 13.6972 5.61752 13.726 5.65126C13.7548 5.685 13.8249 5.78155 13.8818 5.86582C13.9386 5.95009 13.9929 6.0253 14.0025 6.03297C14.0535 6.07378 14.3528 6.74821 14.395 6.91745C14.4074 6.96723 14.4302 7.05501 14.4456 7.11245C14.5758 7.59676 14.5739 8.42527 14.4416 8.91623C14.3457 9.27231 14.11 9.82921 13.9936 9.97482C13.9813 9.99015 13.9253 10.0691 13.8691 10.1503C13.7681 10.2962 13.6536 10.4382 13.587 10.5001C13.5681 10.5176 13.5211 10.5651 13.4825 10.6055C13.4439 10.646 13.3478 10.73 13.2688 10.7923C13.1899 10.8545 13.1111 10.9186 13.0938 10.9346C13.0765 10.9507 13.0528 10.9638 13.0413 10.9638C13.0297 10.9638 12.9616 11.005 12.8901 11.0555C12.8184 11.1059 12.707 11.1703 12.6424 11.1985C12.5778 11.2268 12.4897 11.2655 12.4466 11.2844C12.4035 11.3034 12.2978 11.3407 12.2117 11.3671C12.1255 11.3936 12.0198 11.4284 11.9767 11.4445C11.852 11.4911 10.5156 11.512 7.4866 11.5147C4.6085 11.5173 3.13618 11.4937 2.99649 11.4428C2.95342 11.427 2.87119 11.3995 2.81376 11.3817C2.4529 11.2693 1.97721 11.0192 1.73835 10.8162C1.5429 10.6502 1.24606 10.3397 1.14054 10.1909C1.09968 10.1334 1.05666 10.0737 1.04492 10.0584C0.901337 9.87114 0.639449 9.27774 0.546096 8.92807C0.491119 8.72212 0.425124 8.21199 0.425124 7.99292C0.425124 7.66431 0.530329 7.0488 0.633941 6.77119C0.809786 6.30015 0.983438 5.98979 1.25504 5.66121C1.42597 5.45439 1.84525 5.05795 1.89305 5.05795C1.9061 5.05795 1.96588 5.02218 2.0259 4.97844C2.236 4.82536 2.58878 4.66577 2.86597 4.59841C2.96647 4.57398 3.10079 4.54127 3.16443 4.5257C3.22807 4.51015 3.48357 4.48996 3.73222 4.48085L4.18428 4.46427V4.2179C4.18428 3.97941 4.1824 3.97167 4.12555 3.97665C4.09323 3.97949 3.86711 3.99064 3.62302 4.00142ZM10.7889 5.22771V5.47581L10.9912 5.47606C11.2677 5.47637 11.774 5.52621 11.8853 5.56404C12.2295 5.68098 12.4568 5.8013 12.6908 5.99043C12.7637 6.04932 13.0494 6.35664 13.1123 6.44378C13.1482 6.49354 13.1981 6.56129 13.2232 6.5943C13.2484 6.62734 13.2689 6.67021 13.2689 6.68957C13.2689 6.70893 13.2782 6.72893 13.2895 6.73406C13.3317 6.75314 13.4699 7.10214 13.5249 7.32835C13.5398 7.38963 13.5646 7.49137 13.5801 7.55444C13.6157 7.69924 13.6166 8.29495 13.5815 8.44265C13.4913 8.82207 13.438 8.98089 13.3243 9.20874C13.2746 9.30833 13.2266 9.39608 13.2176 9.40374C13.2085 9.4114 13.1728 9.46155 13.1381 9.51517C13.0059 9.71945 12.6888 10.0258 12.4771 10.1538C12.4244 10.1856 12.3431 10.2348 12.2963 10.263C12.0876 10.3893 11.7878 10.4638 11.3808 10.4906C10.8477 10.5256 4.01032 10.5253 3.55776 10.4902C3.22165 10.4642 2.9694 10.4033 2.73544 10.2918C2.39378 10.1288 1.90114 9.65201 1.70588 9.29524C1.59709 9.09647 1.50197 8.84144 1.4242 8.54016C1.39765 8.43736 1.38457 8.25857 1.38439 7.99693C1.3841 7.53199 1.43086 7.29556 1.59649 6.92441C1.77469 6.52515 1.98619 6.23858 2.26552 6.01792C2.32295 5.97257 2.38957 5.91666 2.41359 5.89368C2.45335 5.85565 2.68522 5.72503 2.81376 5.66828C3.09611 5.54362 3.49892 5.47821 3.99502 5.47648L4.18428 5.47581V5.23902V5.00223H3.82737C3.31963 5.00223 2.91165 5.09085 2.59207 5.27059C2.52757 5.30686 2.46627 5.33652 2.45583 5.33652C2.4285 5.33652 2.072 5.58535 1.97902 5.66934C1.66972 5.94872 1.39483 6.31848 1.22207 6.68754C1.10853 6.92998 1.07917 7.00985 1.02218 7.23085C0.884081 7.76649 0.884134 8.19753 1.02241 8.79087C1.09504 9.10246 1.31534 9.5469 1.5607 9.87677C1.72023 10.0913 2.07339 10.4277 2.22529 10.5098C2.27615 10.5373 2.32363 10.5661 2.33081 10.5738C2.40336 10.6512 2.86986 10.8567 3.15313 10.936C3.32717 10.9847 3.5363 10.9869 7.55187 10.9824L11.7679 10.9777L12.0437 10.8745C12.3829 10.7475 12.6879 10.5801 12.9165 10.3955C13.1881 10.1762 13.6866 9.55991 13.6866 9.4435C13.6866 9.42419 13.6954 9.40422 13.7062 9.39909C13.7512 9.37775 13.9191 8.95849 13.9943 8.67944C14.0531 8.46137 14.053 7.53296 13.9942 7.31205C13.8459 6.75518 13.5925 6.29424 13.2129 5.89039C13.0317 5.69759 12.5853 5.33652 12.5281 5.33652C12.5212 5.33652 12.4411 5.29978 12.3501 5.25485C12.0058 5.08477 11.6814 5.01627 11.1087 4.99276L10.7889 4.97964V5.22771ZM6.35118 7.75549C6.33633 7.76075 6.32492 7.8667 6.32492 7.99924V8.23372H6.54681H6.76871V7.99819V7.76268L6.68387 7.74666C6.60197 7.73117 6.40517 7.73641 6.35118 7.75549ZM7.32344 7.75468C7.26787 7.76351 7.26471 7.77666 7.26471 7.99888V8.23372H7.48762H7.71053L7.70299 7.98997L7.69544 7.74621L7.53881 7.74577C7.45267 7.74552 7.35576 7.74953 7.32344 7.75468ZM8.21538 7.75783C8.2094 7.76421 8.2045 7.87388 8.2045 8.00158V8.23372H8.43945H8.67439V7.99693C8.67439 7.82867 8.66494 7.75872 8.64176 7.75527C8.57177 7.74476 8.22567 7.74685 8.21538 7.75783Z" fill="#410EAD"/>
</svg>
