<svg width="15" height="15" viewBox="0 0 15 15" fill="none" xmlns="http://www.w3.org/2000/svg">
<path fill-rule="evenodd" clip-rule="evenodd" d="M1.01074 0.0424157C0.764063 0.104374 0.579404 0.210178 0.393398 0.396172C0.201826 0.587753 0.0860156 0.798712 0.032666 1.05334C0.0118359 1.15276 0 1.62917 0 2.36926V3.52937H7.5H15V2.36926C15 1.61564 14.9884 1.15459 14.9668 1.05334C14.8588 0.546849 14.453 0.139338 13.9512 0.0334174C13.7143 -0.0166025 1.21107 -0.00789825 1.01074 0.0424157ZM2.4324 1.82419C2.56239 1.89077 2.66602 2.06018 2.66602 2.20609C2.66602 2.43084 2.44942 2.64718 2.22439 2.64718C2.08813 2.64718 1.90714 2.53282 1.84269 2.40599C1.73449 2.19312 1.8024 1.96073 2.00956 1.83484C2.14983 1.74962 2.28032 1.74633 2.4324 1.82419ZM4.19022 1.82419C4.32021 1.89077 4.42383 2.06018 4.42383 2.20609C4.42383 2.43084 4.20724 2.64718 3.98221 2.64718C3.84595 2.64718 3.66495 2.53282 3.6005 2.40599C3.4923 2.19312 3.56021 1.96073 3.76737 1.83484C3.90765 1.74962 4.03813 1.74633 4.19022 1.82419ZM5.94803 1.82419C6.07802 1.89077 6.18164 2.06018 6.18164 2.20609C6.18164 2.43084 5.96505 2.64718 5.74002 2.64718C5.60376 2.64718 5.42276 2.53282 5.35831 2.40599C5.25012 2.19312 5.31803 1.96073 5.52519 1.83484C5.66546 1.74962 5.79595 1.74633 5.94803 1.82419ZM12.9793 1.82419C13.1093 1.89077 13.2129 2.06018 13.2129 2.20609C13.2129 2.352 13.1093 2.52141 12.9793 2.58799C12.8682 2.64489 12.809 2.64718 11.4529 2.64718C10.0457 2.64718 10.0419 2.64701 9.92528 2.58125C9.63044 2.41493 9.62745 2.01242 9.91972 1.83484L10.0342 1.76529L11.4489 1.76514C12.8092 1.765 12.8681 1.76729 12.9793 1.82419ZM0 9.10039C0 12.4847 0.00925781 13.8326 0.0332227 13.9451C0.140947 14.4502 0.545479 14.8563 1.0488 14.9644C1.26809 15.0115 13.7284 15.012 13.9512 14.9649C14.4484 14.8598 14.8636 14.4432 14.9675 13.9451C14.9905 13.8347 15 12.4218 15 9.10039V4.41155H7.5H0V9.10039ZM9.0242 5.79402C9.15457 5.86077 9.25781 6.03009 9.25781 6.17712C9.25781 6.25637 6.7853 12.1115 6.57319 12.5345C6.4955 12.6895 6.33847 12.7923 6.17947 12.7923C5.96341 12.7923 5.74219 12.5686 5.74219 12.35C5.74219 12.2944 6.25731 11.0509 7.04915 9.19502C7.76795 7.51025 8.3852 6.07226 8.42077 5.99948C8.53737 5.76094 8.791 5.6746 9.0242 5.79402ZM5.06912 7.1173C5.19838 7.18349 5.30273 7.35311 5.30273 7.49702C5.30273 7.69698 5.23436 7.7665 4.30213 8.5145C3.80511 8.91328 3.39844 9.25036 3.39844 9.26356C3.39844 9.27677 3.80511 9.61385 4.30213 10.0126C5.23436 10.7606 5.30273 10.8301 5.30273 11.0301C5.30273 11.3435 4.93939 11.5652 4.66975 11.4163C4.61971 11.3887 4.0698 10.9571 3.44771 10.4571C2.28296 9.52107 2.22656 9.46597 2.22656 9.26356C2.22656 9.06116 2.28296 9.00605 3.44771 8.07C4.0698 7.57006 4.61971 7.13841 4.66975 7.1108C4.79183 7.04343 4.9292 7.04566 5.06912 7.1173ZM10.3303 7.1108C10.3803 7.13841 10.9302 7.57006 11.5523 8.07C12.717 9.00605 12.7734 9.06116 12.7734 9.26356C12.7734 9.46597 12.717 9.52107 11.5523 10.4571C10.9302 10.9571 10.3803 11.3887 10.3303 11.4163C10.0606 11.5652 9.69727 11.3435 9.69727 11.0301C9.69727 10.8301 9.76564 10.7606 10.6979 10.0126C11.1949 9.61385 11.6016 9.27677 11.6016 9.26356C11.6016 9.25036 11.1949 8.91328 10.6979 8.5145C10.0447 7.9904 9.78073 7.76112 9.74572 7.68739C9.56877 7.31494 9.97471 6.91451 10.3303 7.1108Z" fill="#410EAD"/>
</svg>
