<svg width="15" height="15" viewBox="0 0 15 15" fill="none" xmlns="http://www.w3.org/2000/svg">
<path d="M11.6312 9.54482C11.606 9.56465 11.6024 9.56646 11.5988 9.57006C11.4679 9.79003 11.4799 10.0034 11.6348 10.2101C11.8258 10.4662 11.8066 10.7084 11.5772 10.9368C11.5322 10.9818 11.4727 11.0143 11.3916 11.072C11.5574 11.2252 11.6889 11.3424 11.8132 11.4651C12.2204 11.8689 12.6257 12.2764 13.0293 12.6839C13.0905 12.7452 13.1337 12.7632 13.2202 12.7182C13.6814 12.482 14.1318 12.518 14.5354 12.8372C14.9353 13.1527 15.0812 13.5836 14.9569 14.0776C14.8344 14.5717 14.5029 14.8818 14.0021 14.9738C13.5265 15.0621 13.1211 14.9052 12.8275 14.5194C12.5266 14.1245 12.4906 13.6864 12.7086 13.241C12.7572 13.1401 12.7518 13.0896 12.6743 13.0121C12.1753 12.5198 11.6835 12.024 11.1881 11.5282C11.1574 11.4975 11.1232 11.4687 11.0728 11.4218C10.9683 11.5336 10.8728 11.6417 10.7683 11.7445C10.6458 11.8653 10.5449 11.8725 10.4062 11.7716C10.2747 11.6778 10.1432 11.5841 10.0207 11.4795C9.94139 11.411 9.87834 11.411 9.79546 11.4687C9.7216 11.5209 9.64053 11.557 9.54145 11.6129C9.74502 11.8148 9.92698 12.0222 10.136 12.1989C10.3413 12.3738 10.4458 12.5739 10.4008 12.8444C10.3738 13.0048 10.4206 13.095 10.5881 13.1707C11.0043 13.3528 11.2043 13.8234 11.0926 14.2688C10.9845 14.7015 10.5881 14.999 10.1324 14.9918C9.68017 14.9846 9.30364 14.6636 9.20996 14.2057C9.12168 13.7783 9.35228 13.3348 9.75583 13.1473C9.81348 13.1202 9.90716 13.0752 9.90716 13.0373C9.90716 12.8985 9.92698 12.7182 9.85131 12.6262C9.62792 12.3558 9.36309 12.1178 9.11268 11.8707C9.0244 11.7842 8.565 11.9356 8.54338 12.0583C8.51456 12.2259 8.49474 12.3972 8.46772 12.5667C8.4407 12.7416 8.36143 12.8137 8.18488 12.8137C7.72728 12.8155 7.26969 12.8155 6.81029 12.8137C6.63554 12.8137 6.55627 12.7398 6.52925 12.5649C6.52024 12.5108 6.50943 12.4549 6.50403 12.4008C6.44998 11.9627 6.44998 11.9591 6.02842 11.8473C5.98338 11.8347 5.90951 11.8527 5.87709 11.8852C5.63027 12.1232 5.39067 12.3666 5.14926 12.61C5.09341 12.6677 5.04837 13.0283 5.09701 13.0806C5.12223 13.1076 5.16727 13.1166 5.2033 13.1329C5.6663 13.3258 5.90591 13.8198 5.77079 14.2976C5.63928 14.7574 5.17088 15.0585 4.69887 14.9864C4.20885 14.9106 3.85034 14.4833 3.87736 13.9857C3.89898 13.5836 4.10616 13.2933 4.47908 13.1383C4.57636 13.0968 4.60159 13.0517 4.60159 12.9526C4.60519 12.372 4.52592 12.5595 4.94208 12.1322C5.10062 11.9699 5.26095 11.8112 5.42129 11.6508C5.4285 11.6436 5.4321 11.6345 5.44471 11.6129C5.34202 11.5534 5.24114 11.4885 5.13304 11.4398C5.09881 11.4254 5.03756 11.4452 5.00153 11.4705C4.86101 11.5678 4.72769 11.676 4.58897 11.777C4.45026 11.8761 4.34937 11.8689 4.22686 11.7481C4.12417 11.6454 4.02869 11.5372 3.90439 11.4037C3.8071 11.5137 3.72963 11.6075 3.64496 11.6922C3.20538 12.1358 2.764 12.5775 2.32082 13.0175C2.25236 13.086 2.22894 13.1329 2.28119 13.232C2.54241 13.7315 2.43071 14.3175 2.01636 14.6925C1.61281 15.0567 1.00929 15.1018 0.546289 14.8043C0.095901 14.514 -0.107675 13.9406 0.0562668 13.4268C0.223811 12.8967 0.719239 12.5433 1.27592 12.5847C1.45067 12.5974 1.62002 12.6821 1.79477 12.7272C1.838 12.738 1.90826 12.7434 1.93529 12.7182C2.47215 12.1881 3.00541 11.6526 3.53867 11.1171C3.54588 11.1099 3.54588 11.099 3.56029 11.0648C3.47381 10.9836 3.37653 10.8971 3.28465 10.8051C3.12071 10.6429 3.1153 10.5545 3.24862 10.3742C3.3423 10.248 3.44319 10.129 3.52606 9.99738C3.55308 9.95411 3.55668 9.87658 3.53687 9.8279C3.49183 9.71791 3.42517 9.61694 3.35851 9.49434C3.13512 9.71791 2.91173 9.91985 2.71536 10.147C2.54241 10.349 2.34424 10.4445 2.08301 10.4031C1.96591 10.385 1.90106 10.4193 1.85061 10.5455C1.67947 10.971 1.22367 11.2 0.780491 11.1062C0.321095 11.0089 0.00582319 10.623 0.00762474 10.1579C0.00762474 9.69267 0.324698 9.31043 0.787697 9.21486C1.23088 9.12291 1.67586 9.35911 1.85962 9.78102C1.88124 9.8315 1.92087 9.90903 1.9551 9.91264C2.0668 9.91985 2.21633 9.93788 2.28479 9.87658C2.57484 9.61874 2.83967 9.33567 3.1117 9.0598C3.13692 9.03456 3.13512 8.98047 3.14413 8.9408C3.14413 8.93179 3.13692 8.92277 3.13512 8.91195C3.06306 8.66674 2.89792 8.52971 2.63969 8.50086C2.20552 8.45218 2.1857 8.43055 2.1857 7.9888C2.1857 7.60656 2.1857 7.22251 2.1857 6.84027C2.1857 6.63292 2.25056 6.5608 2.45233 6.53015C2.51719 6.52113 2.58204 6.51031 2.6469 6.5031C3.03423 6.45803 3.03604 6.45983 3.13512 6.0848C3.14773 6.03792 3.12972 5.964 3.09549 5.92974C2.83967 5.66469 2.58385 5.40145 2.31361 5.15263C2.25596 5.09854 2.14247 5.10575 2.05419 5.08592C1.93349 5.05887 1.89565 5.1328 1.85422 5.23016C1.67586 5.65207 1.22367 5.88466 0.780491 5.7891C0.321095 5.69174 0.00762474 5.30589 0.00762474 4.8389C0.00762474 4.37552 0.3265 3.99148 0.787697 3.89591C1.23088 3.80396 1.68127 4.03835 1.85422 4.46567C1.90106 4.58287 1.96231 4.61893 2.07581 4.6009C2.34424 4.55763 2.54421 4.65499 2.72076 4.86234C2.91353 5.08772 3.13512 5.28605 3.35671 5.50963C3.43238 5.3744 3.50444 5.2554 3.56389 5.13099C3.5783 5.10214 3.55488 5.04445 3.53326 5.01199C3.44319 4.88398 3.3477 4.76137 3.25402 4.63696C3.1135 4.44764 3.11891 4.3647 3.29006 4.19342C3.38013 4.10507 3.47381 4.02032 3.5747 3.92476C3.52786 3.87608 3.49543 3.84002 3.4612 3.80396C2.96938 3.31173 2.47755 2.82131 1.98933 2.32908C1.91727 2.25696 1.86683 2.23171 1.76234 2.28761C1.26511 2.54725 0.677803 2.43005 0.306683 2.01174C-0.0536279 1.60606 -0.0968653 0.996636 0.205796 0.540469C0.504854 0.0897102 1.07054 -0.108624 1.58579 0.0590586C2.11364 0.230347 2.46314 0.729787 2.4199 1.28512C2.40549 1.45641 2.32622 1.62049 2.28119 1.78997C2.26857 1.83505 2.25957 1.90717 2.28299 1.93061C2.81985 2.47512 3.36212 3.01423 3.9206 3.57317C4.02689 3.46319 4.12417 3.35861 4.22686 3.25764C4.35657 3.12963 4.45566 3.12241 4.60159 3.22699C4.7367 3.32435 4.87002 3.42352 4.99973 3.5281C5.06459 3.58038 5.11683 3.58579 5.18709 3.53891C5.26996 3.48302 5.36004 3.43975 5.46273 3.38205C5.23213 3.15306 5.01955 2.92588 4.79075 2.71673C4.64843 2.58691 4.57997 2.44447 4.60339 2.25155C4.62861 2.0442 4.59978 1.89996 4.36018 1.78997C3.95843 1.60606 3.79269 1.11924 3.9188 0.691923C4.04671 0.257392 4.45566 -0.0220779 4.92046 0.00496757C5.35283 0.03021 5.71314 0.360165 5.79782 0.809121C5.87709 1.22742 5.64108 1.66917 5.24114 1.84767C5.1961 1.8675 5.14926 1.88553 5.09701 1.90717C5.06999 2.13976 5.05918 2.35071 5.28077 2.52561C5.49696 2.6969 5.67351 2.91506 5.87528 3.10438C5.91132 3.13864 5.98338 3.14044 6.04103 3.14766C6.06805 3.15126 6.09688 3.12241 6.1257 3.12241C6.42656 3.11159 6.48061 2.91506 6.50583 2.66264C6.55627 2.17943 6.56708 2.17943 7.0481 2.17943C7.42102 2.17943 7.79214 2.17943 8.16506 2.17943C8.37044 2.17943 8.4425 2.24434 8.47312 2.44988C8.49654 2.60855 8.51276 2.77082 8.54699 2.92769C8.5578 2.97637 8.61365 3.02866 8.66049 3.0557C8.95054 3.21797 9.17213 3.14044 9.3703 2.879C9.50361 2.70411 9.68377 2.56528 9.8315 2.403C9.87653 2.35432 9.90356 2.27679 9.91437 2.21008C9.94499 2.01896 9.89995 1.89815 9.68917 1.80259C9.28382 1.61688 9.10547 1.13006 9.23158 0.697333C9.35589 0.268211 9.75583 -0.0112597 10.2152 0.00677065C10.6548 0.024801 11.0223 0.352953 11.1106 0.809121C11.1917 1.22742 10.9593 1.67638 10.5575 1.84767C10.4386 1.89815 10.3756 1.95044 10.4008 2.08567C10.4584 2.40481 10.3395 2.64461 10.0891 2.84655C9.89455 3.00522 9.72881 3.19634 9.54145 3.38385C9.66035 3.45057 9.76124 3.51728 9.86933 3.56596C9.90176 3.58038 9.96481 3.55514 9.99904 3.5317C10.1342 3.43614 10.2639 3.33157 10.399 3.2342C10.5449 3.12782 10.644 3.13323 10.7737 3.26125C10.8746 3.36041 10.9701 3.46319 11.0746 3.57497C11.1178 3.53711 11.152 3.51187 11.1827 3.48122C11.6817 2.98358 12.1771 2.48234 12.6798 1.9865C12.7536 1.91438 12.7626 1.8639 12.7122 1.77014C12.4528 1.2725 12.5663 0.686514 12.9824 0.311483C13.3842 -0.0491235 14.0021 -0.0941994 14.4525 0.205104C14.9101 0.509817 15.1064 1.07777 14.9335 1.59885C14.7587 2.12534 14.2579 2.47152 13.7012 2.42284C13.5301 2.40841 13.3661 2.32547 13.1986 2.2804C13.1554 2.26958 13.0851 2.26778 13.0599 2.29302C12.523 2.82491 11.9916 3.36041 11.4583 3.89591C11.4511 3.90313 11.4511 3.91394 11.4385 3.9482C11.5376 4.04016 11.6475 4.13572 11.7483 4.24029C11.8691 4.3611 11.8745 4.46387 11.7736 4.6027C11.6799 4.73433 11.5844 4.86414 11.4835 4.98855C11.4241 5.06067 11.4097 5.12017 11.4655 5.20131C11.5196 5.27884 11.5592 5.36539 11.6168 5.46816C11.8402 5.24278 12.0636 5.03363 12.2672 4.80825C12.4041 4.6568 12.5536 4.57746 12.7572 4.60631C12.8023 4.61352 12.8491 4.6009 12.8923 4.60811C13.0293 4.62795 13.0977 4.58467 13.1572 4.44404C13.3319 4.02573 13.7949 3.80757 14.2399 3.90854C14.6849 4.0077 14.9947 4.39896 14.9911 4.86054C14.9875 5.31671 14.6723 5.69895 14.2183 5.79451C13.7823 5.88827 13.3355 5.65928 13.1464 5.2518C13.1193 5.1941 13.0707 5.09854 13.0365 5.10034C12.8923 5.10575 12.7338 5.03002 12.6077 5.15804C12.3699 5.39784 12.1339 5.63945 11.8907 5.87204C11.8222 5.93695 11.8096 6.00186 11.8564 6.06857C11.9465 6.19659 11.8492 6.43459 12.0924 6.47245C12.251 6.49589 12.4113 6.51753 12.5699 6.54097C12.7446 6.56801 12.8149 6.64735 12.8167 6.82404C12.8185 7.28201 12.8185 7.73998 12.8167 8.19976C12.8167 8.37465 12.7428 8.45218 12.5663 8.47923C12.5122 8.48824 12.4564 8.50627 12.4023 8.50447C12.069 8.48464 11.8871 8.63068 11.8456 8.96785C11.8366 9.04718 11.8402 9.09406 11.8961 9.14996C12.1303 9.37894 12.3591 9.61153 12.5915 9.84232C12.6617 9.91264 12.9932 9.97394 13.0707 9.91985C13.1067 9.89461 13.1211 9.83691 13.1409 9.79364C13.3139 9.38976 13.7463 9.14274 14.166 9.21306C14.62 9.28699 14.9623 9.6512 14.9911 10.0893C15.0218 10.5491 14.7551 10.9512 14.3246 11.0918C13.8472 11.2469 13.3319 11.0143 13.1428 10.5455C13.0977 10.4355 13.0437 10.394 12.9338 10.4139C12.6059 10.4698 12.3555 10.3544 12.1465 10.0929C11.9934 9.90182 11.8042 9.73955 11.6294 9.56285L11.6312 9.54482ZM12.3266 8.00864V6.9791C12.1357 6.95025 11.9519 6.9196 11.7682 6.89616C11.6276 6.87813 11.552 6.7988 11.525 6.66718C11.4223 6.15331 11.2241 5.67731 10.9376 5.23917C10.8548 5.11116 10.862 4.99757 10.9539 4.87857C11.0656 4.73613 11.17 4.59008 11.2637 4.46748C11.0133 4.21686 10.7737 3.97705 10.5287 3.73184C10.3936 3.83281 10.2441 3.94279 10.0963 4.05458C9.99183 4.13392 9.88194 4.13932 9.77385 4.0672C9.32886 3.77151 8.84424 3.57137 8.31999 3.46679C8.19388 3.44155 8.11822 3.36582 8.102 3.2324C8.07678 3.04308 8.04616 2.85556 8.01733 2.66444H6.99045C6.96162 2.85196 6.92919 3.03406 6.90757 3.21797C6.88956 3.36582 6.81029 3.44335 6.66977 3.4704C6.16173 3.57317 5.68972 3.7679 5.25735 4.05278C5.12404 4.13932 5.00694 4.13391 4.88443 4.03655C4.74391 3.92476 4.59798 3.82019 4.47007 3.72463C4.21966 3.97525 3.98185 4.21325 3.73684 4.45846C3.83412 4.58828 3.93501 4.73072 4.04491 4.86775C4.14759 4.99577 4.1494 5.11657 4.05932 5.2536C3.77647 5.68272 3.58551 6.14971 3.48282 6.65456C3.454 6.8006 3.37293 6.88174 3.21979 6.89977C3.03784 6.92141 2.85588 6.95386 2.67753 6.98271V8.01044C2.86309 8.03929 3.04144 8.06994 3.2216 8.09157C3.37473 8.10961 3.454 8.19254 3.48282 8.33859C3.58371 8.84344 3.77647 9.31043 4.05932 9.73775C4.1494 9.87658 4.14399 9.99558 4.0413 10.1236C3.93141 10.2606 3.83052 10.4031 3.74224 10.5221C3.99086 10.7745 4.23047 11.0143 4.47368 11.2613C4.61059 11.1585 4.76012 11.0486 4.90785 10.935C5.01234 10.8556 5.12043 10.852 5.23033 10.9223C5.67711 11.2144 6.15993 11.4182 6.68418 11.5227C6.81029 11.548 6.88415 11.6255 6.90217 11.7589C6.92739 11.9483 6.95802 12.1358 6.98684 12.3269H8.01373C8.04255 12.1394 8.07498 11.9573 8.0966 11.7716C8.11462 11.6237 8.19569 11.5462 8.3344 11.5191C8.84244 11.4164 9.31445 11.2216 9.74682 10.9368C9.88014 10.8502 9.99724 10.8556 10.1197 10.953C10.2603 11.0648 10.4062 11.1694 10.5323 11.2631C10.7827 11.0143 11.0205 10.7763 11.2673 10.5329C11.1646 10.394 11.0547 10.2444 10.9413 10.0965C10.8584 9.98656 10.853 9.87658 10.9286 9.76118C11.2187 9.31944 11.4187 8.83983 11.5232 8.32056C11.5502 8.18714 11.6276 8.10961 11.7682 8.09338C11.9519 8.07174 12.1357 8.03929 12.3266 8.01044V8.00864ZM1.94429 1.20399C1.94069 0.801908 1.61101 0.477362 1.20926 0.482771C0.814721 0.488181 0.494044 0.816333 0.495846 1.2112C0.497647 1.61147 0.829133 1.93602 1.23088 1.93241C1.62362 1.9288 1.9461 1.59705 1.94429 1.20399ZM13.7859 0.482771C13.3932 0.479165 13.0635 0.805515 13.0599 1.19677C13.0563 1.60065 13.3824 1.93061 13.7823 1.93061C14.1768 1.93061 14.5047 1.60967 14.5083 1.21661C14.5119 0.81453 14.1877 0.484575 13.7859 0.482771ZM1.22367 13.0571C0.829133 13.0571 0.50125 13.3763 0.495846 13.7711C0.490441 14.1732 0.814721 14.5032 1.21647 14.5068C1.60921 14.5104 1.94069 14.1858 1.94429 13.7928C1.9479 13.3889 1.62362 13.0589 1.22367 13.0571ZM14.5083 13.7783C14.5083 13.3781 14.1768 13.0535 13.7733 13.0571C13.3806 13.0607 13.0563 13.3907 13.0599 13.7838C13.0635 14.1858 13.3932 14.5104 13.7949 14.505C14.1895 14.4996 14.5101 14.1732 14.5083 13.7783ZM0.978662 4.35208C0.715635 4.35208 0.499449 4.56845 0.497647 4.83169C0.497647 5.10034 0.719238 5.32211 0.989471 5.31671C1.2507 5.3131 1.46688 5.09133 1.46328 4.82808C1.45968 4.56304 1.24349 4.35028 0.980464 4.35028L0.978662 4.35208ZM0.978662 10.6375C1.23989 10.6393 1.46148 10.4229 1.46328 10.1615C1.46508 9.89641 1.2543 9.67824 0.991273 9.67284C0.722841 9.66743 0.497647 9.8874 0.499449 10.156C0.499449 10.4193 0.715635 10.6357 0.978662 10.6375ZM5.32761 0.962379C5.32761 0.699136 5.10962 0.482772 4.8466 0.480969C4.57636 0.480969 4.35838 0.702742 4.36198 0.973197C4.36558 1.23464 4.58898 1.451 4.8502 1.44559C5.11323 1.44199 5.32761 1.22382 5.32761 0.960576V0.962379ZM10.6422 0.960576C10.6404 0.697333 10.4224 0.480968 10.1594 0.482771C9.88915 0.482771 9.67296 0.706348 9.67836 0.978606C9.68377 1.24005 9.90716 1.45461 10.1684 1.4492C10.4314 1.44379 10.6458 1.22562 10.6422 0.962379V0.960576ZM4.8484 14.505C5.11143 14.5032 5.32581 14.2868 5.32761 14.0218C5.32761 13.7603 5.10962 13.5403 4.8484 13.5385C4.57817 13.5385 4.35838 13.7603 4.36198 14.029C4.36558 14.2922 4.58537 14.5068 4.8484 14.5032V14.505ZM10.6422 14.0254C10.644 13.7639 10.4278 13.5421 10.1666 13.5403C9.90176 13.5385 9.68377 13.7495 9.67836 14.0127C9.67296 14.2814 9.89275 14.5068 10.163 14.505C10.426 14.505 10.6422 14.2886 10.644 14.0254H10.6422ZM14.5083 4.8371C14.5083 4.57386 14.2975 4.35569 14.0327 4.35028C13.7697 4.34667 13.5481 4.55943 13.5445 4.82267C13.5391 5.09313 13.7571 5.31671 14.0273 5.31671C14.2903 5.31671 14.5083 5.10034 14.5083 4.8371ZM14.0237 9.67103C13.7607 9.67103 13.5427 9.8874 13.5427 10.1506C13.5427 10.4157 13.7553 10.632 14.0183 10.6357C14.2885 10.6393 14.5101 10.4175 14.5065 10.147C14.5029 9.88379 14.2867 9.66923 14.0219 9.66923L14.0237 9.67103Z" fill="#410EAD"/>
<path d="M7.51089 10.394C5.89489 10.394 4.60318 9.09578 4.60498 7.47124C4.60498 5.88998 5.91291 4.5954 7.51089 4.5918C9.09625 4.59 10.4042 5.899 10.4024 7.48567C10.4024 9.09037 9.10526 10.3958 7.51089 10.394ZM7.49828 5.07501C6.15252 5.08042 5.08059 6.16765 5.086 7.51993C5.0932 8.84155 6.18675 9.91616 7.5217 9.91075C8.83683 9.90534 9.92137 8.8145 9.91776 7.49649C9.91596 6.15683 8.82962 5.0696 7.49828 5.07681V5.07501Z" fill="#410EAD"/>
<path d="M6.53968 8.69748H6.04785C6.08929 8.24312 5.96498 7.78695 6.18297 7.34701C6.31989 7.07295 6.41897 6.78086 6.52706 6.49417C6.58291 6.34632 6.67479 6.27601 6.83333 6.28322C6.96304 6.28863 7.09455 6.28682 7.22607 6.28322C7.35758 6.27961 7.44586 6.33911 7.4945 6.45992C7.64943 6.84757 7.80256 7.23522 7.9575 7.62287C7.96831 7.64992 7.98092 7.68057 7.98092 7.70942C7.98092 8.03577 7.98092 8.36031 7.98092 8.69387H7.50531V7.98528H6.53787V8.69568L6.53968 8.69748ZM6.65498 7.48404H7.381C7.29273 7.26227 7.21346 7.05311 7.12518 6.84576C7.11077 6.81151 7.05672 6.77364 7.02069 6.77364C6.98466 6.77364 6.92881 6.8097 6.9144 6.84396C6.82612 7.04951 6.74505 7.26046 6.65678 7.48404H6.65498Z" fill="#410EAD"/>
<path d="M8.2334 8.69393V6.2959H8.7V8.69393H8.2334Z" fill="#410EAD"/>
</svg>
