<svg width="19" height="15" viewBox="0 0 19 15" fill="none" xmlns="http://www.w3.org/2000/svg">
<path d="M19 6.45796C18.9311 6.78475 18.8917 7.12109 18.7908 7.43834C18.2396 9.17487 17.0584 10.3151 15.2792 10.878C15.2374 10.8899 15.198 10.9042 15.1857 10.9066C15.1857 11.0808 15.2054 11.2406 15.1808 11.3956C15.1316 11.7272 14.9224 11.949 14.5976 12.054C14.2629 12.1613 13.9455 12.1017 13.7117 11.8488C13.3696 11.4791 13.0497 11.0879 12.7421 10.6919C12.5551 10.451 12.5354 10.16 12.6757 9.89047C12.8972 9.46111 13.1309 9.0389 13.377 8.62385C13.5665 8.30422 13.9553 8.16587 14.3244 8.25413C14.6911 8.34 14.9569 8.64294 14.9889 9.00789C14.9938 9.0556 14.9962 9.10331 14.9987 9.16771C15.4293 9.02221 15.8034 8.80514 16.1208 8.50697C17.1347 7.55522 17.494 6.40072 17.0855 5.09355C16.677 3.78638 15.7246 3.0016 14.3343 2.76545C12.2697 2.41481 10.3478 4.03446 10.3797 6.08108C10.3994 7.25705 10.9285 8.17302 11.9276 8.83615C12.3115 9.09138 12.4714 9.42771 12.373 9.79744C12.2229 10.3723 11.5609 10.6228 11.0319 10.3007C10.4757 9.96203 10.0057 9.53267 9.61443 9.02221C9.57752 8.9745 9.5406 8.92679 9.51107 8.88624C7.77127 10.9496 5.61313 11.6938 3.0465 10.6085C1.00401 9.74496 0 8.09431 0 5.92842C0 3.95335 1.40021 1.82801 3.80443 1.18397C3.80443 1.02177 3.78474 0.866721 3.80935 0.716445C3.86103 0.37057 4.07512 0.139192 4.41963 0.0413929C4.75431 -0.0540208 5.06929 0.012769 5.30061 0.270386C5.62544 0.630573 5.9355 1.00507 6.23572 1.38673C6.43505 1.63957 6.45965 1.93535 6.31447 2.21921C6.09545 2.64142 5.8666 3.05885 5.62052 3.46913C5.42611 3.79831 5.025 3.93904 4.65833 3.84363C4.27937 3.74583 4.0259 3.44289 4.00376 3.06362C4.00376 3.02784 4.00376 2.99206 4.00376 2.93243C3.91763 2.96344 3.84626 2.98252 3.77736 3.01353C2.03018 3.7673 1.25748 5.81154 2.08678 7.48127C2.11138 7.52898 2.13845 7.57669 2.1606 7.62678C2.23443 7.79375 2.18521 7.93926 2.0351 8.00605C1.89237 8.07045 1.75457 8.02036 1.66598 7.86293C1.42974 7.44311 1.28209 6.99228 1.22549 6.5176C0.996632 4.55923 2.25165 2.78931 4.208 2.29793C4.22523 2.29316 4.24246 2.28838 4.26214 2.28361C4.41963 2.24783 4.58451 2.19774 4.70263 2.35756C4.81337 2.50545 4.73216 2.64142 4.65341 2.775C4.6288 2.81555 4.60666 2.85848 4.58697 2.9038C4.52545 3.05647 4.57959 3.21151 4.72232 3.29023C4.86504 3.36895 5.05207 3.34271 5.13327 3.20436C5.37197 2.79885 5.60329 2.38857 5.81246 1.96875C5.85183 1.89242 5.80754 1.73737 5.74848 1.65865C5.49009 1.32232 5.21202 1.0003 4.93395 0.678279C4.7986 0.520847 4.60174 0.501764 4.46147 0.618646C4.3212 0.735527 4.31382 0.904887 4.43686 1.06948C4.45409 1.09333 4.47623 1.11718 4.49346 1.14104C4.68048 1.37957 4.60174 1.55609 4.3089 1.64434C3.87333 1.77315 3.423 1.88765 3.02435 2.0904C1.26978 2.97536 0.287916 4.87648 0.59798 6.71558C0.925269 8.65725 2.42145 10.1433 4.39749 10.482C7.06748 10.94 9.59966 9.02459 9.80145 6.39594C9.83836 5.92603 9.85805 5.44419 9.98109 4.99336C10.4609 3.26876 12.1811 2.08325 13.9898 2.1882C15.8969 2.29793 17.4374 3.63133 17.7401 5.4275C18.0797 7.45026 16.7533 9.36092 14.6886 9.82607C14.5459 9.85708 14.4007 9.88331 14.2949 9.75451C14.1842 9.61854 14.2482 9.48496 14.322 9.35377C14.477 9.07945 14.4549 8.91009 14.2629 8.80752C14.1202 8.73358 13.911 8.74551 13.756 9.0556C13.596 9.38001 13.4139 9.69249 13.2294 10.005C13.1236 10.1863 13.1334 10.3365 13.2737 10.4963C13.5296 10.7897 13.7732 11.0903 14.0242 11.3885C14.1842 11.5769 14.3614 11.6151 14.5188 11.4934C14.6763 11.3742 14.6788 11.1905 14.5287 11.002C14.5139 10.983 14.4967 10.9663 14.4819 10.9472C14.3121 10.7301 14.3909 10.5345 14.6665 10.463C14.9298 10.3962 15.1956 10.3413 15.449 10.2483C17.3488 9.54698 18.5423 7.76513 18.434 5.79961C18.3946 5.1007 18.1929 4.44473 17.8336 3.83647C17.6908 3.59317 17.7007 3.44051 17.8631 3.34986C18.0304 3.25683 18.1805 3.32839 18.3233 3.57647C18.6727 4.17996 18.8917 4.824 18.9655 5.51098C18.9705 5.55153 18.9877 5.59208 18.9975 5.63025V6.45796H19ZM10.146 7.59339C10.0377 7.83669 9.9368 8.0466 9.85067 8.26367C9.83344 8.30899 9.85067 8.38293 9.87774 8.42587C10.2518 9.01028 10.7415 9.48496 11.3395 9.84992C11.5093 9.95249 11.6938 9.91194 11.7923 9.76405C11.8858 9.62331 11.8538 9.43964 11.6938 9.33946C11.0073 8.91009 10.488 8.34 10.1435 7.59577L10.146 7.59339Z" fill="#410EAD"/>
<path d="M9.48889 3.21858C9.73497 2.95142 9.95645 2.67949 10.2099 2.43857C12.1589 0.592315 15.2718 0.544608 17.2897 2.32407C17.489 2.50059 17.521 2.64609 17.3906 2.78206C17.27 2.90848 17.1051 2.8894 16.9206 2.7272C15.1586 1.19104 12.5649 1.15764 10.7734 2.66279C9.69314 3.57161 9.18867 4.74281 9.16652 6.12392C9.1493 7.20925 8.71619 8.12523 7.90658 8.86945C6.44978 10.2076 4.14891 10.2673 2.62566 9.00542C2.54199 8.93624 2.47555 8.8122 2.46571 8.70725C2.45832 8.64284 2.56168 8.51881 2.63304 8.50449C2.73148 8.48541 2.86928 8.51404 2.94803 8.57605C3.41804 8.94578 3.9422 9.19624 4.53526 9.31551C6.39318 9.69001 8.29785 8.40431 8.57346 6.58668C8.69897 5.7542 8.54886 4.97657 8.08622 4.26097C8.07392 4.2395 8.05915 4.22042 8.04685 4.19895C7.95826 4.04152 7.99271 3.88409 8.12806 3.80776C8.26094 3.73142 8.41843 3.76721 8.51194 3.91271C8.63252 4.09877 8.7408 4.29437 8.85646 4.48996C8.95735 4.26336 9.06071 4.04152 9.15176 3.81491C9.16652 3.77675 9.14191 3.70996 9.11484 3.66941C8.74326 3.08977 8.25602 2.61986 7.66296 2.2549C7.49316 2.14994 7.30368 2.18811 7.20279 2.33123C7.10189 2.47673 7.14373 2.65325 7.30614 2.77013C7.38489 2.82738 7.47348 2.8727 7.5473 2.93711C7.65066 3.02775 7.6728 3.14225 7.60636 3.2639C7.53992 3.38555 7.42672 3.4261 7.29138 3.39509C6.82136 3.28537 6.48915 2.7272 6.62203 2.27875C6.78691 1.72058 7.43164 1.48205 7.94842 1.79453C8.50948 2.13563 8.98688 2.56738 9.37815 3.085C9.4126 3.1327 9.45198 3.17564 9.48397 3.21619L9.48889 3.21858Z" fill="#410EAD"/>
<path d="M10.562 14.9929C9.90498 14.9929 9.38329 14.4896 9.38575 13.8527C9.38575 13.2253 9.90498 12.7196 10.5473 12.7149C11.2043 12.7101 11.7309 13.2134 11.7334 13.8455C11.7358 14.4824 11.2191 14.9905 10.562 14.9905V14.9929ZM11.1772 13.8503C11.1772 13.514 10.8992 13.2516 10.5497 13.254C10.2126 13.2587 9.9419 13.5211 9.9419 13.8479C9.9419 14.1866 10.2101 14.4514 10.5596 14.4514C10.909 14.4514 11.1797 14.189 11.1772 13.8503Z" fill="#410EAD"/>
<path d="M2.90139 13.8598C2.90139 13.5903 2.89893 13.3207 2.90139 13.0512C2.90385 12.8079 2.99982 12.7172 3.25082 12.7148C3.38125 12.7148 3.50921 12.7148 3.63963 12.7148C4.16871 12.7172 4.51076 12.9725 4.64365 13.471C4.72239 13.762 4.71501 14.0506 4.60674 14.3345C4.44432 14.7591 4.11703 14.9833 3.64948 14.9905C3.50675 14.9905 3.36648 14.9952 3.22375 14.9905C3.00474 14.9857 2.90877 14.8974 2.90385 14.6828C2.89893 14.4084 2.90385 14.1317 2.90385 13.8574C2.90385 13.8574 2.90139 13.8574 2.89893 13.8574L2.90139 13.8598ZM3.46984 14.4394C3.68639 14.4657 3.89556 14.4824 4.02106 14.2772C4.1884 14.0029 4.1884 13.7143 4.03336 13.44C3.91032 13.2229 3.69131 13.2468 3.46984 13.2682V14.4394Z" fill="#410EAD"/>
<path d="M15.2472 14.9928C14.942 14.988 14.6787 14.8854 14.4671 14.6731C14.3416 14.5467 14.3367 14.4012 14.4425 14.2891C14.5507 14.1746 14.7058 14.165 14.8387 14.2819C14.9814 14.406 15.1389 14.4823 15.3259 14.4465C15.3997 14.4322 15.4588 14.3606 15.5252 14.3129C15.4785 14.2581 15.4416 14.1817 15.38 14.1507C15.2324 14.0792 15.07 14.0339 14.9174 13.9694C14.5704 13.8239 14.4252 13.6021 14.472 13.2896C14.5138 13.0082 14.7673 12.772 15.0897 12.7267C15.385 12.6861 15.6532 12.7601 15.8919 12.9318C16.0371 13.0368 16.0691 13.1799 15.9829 13.3087C15.8968 13.4399 15.7467 13.4542 15.5769 13.3803C15.4465 13.323 15.3013 13.2944 15.161 13.2729C15.1217 13.2682 15.0724 13.3373 15.0281 13.3731C15.0651 13.4065 15.097 13.4542 15.1389 13.4733C15.2693 13.5305 15.4022 13.5735 15.5351 13.626C15.9485 13.7858 16.1454 14.0744 16.074 14.4203C16.0026 14.7685 15.6606 15.0071 15.2447 14.9999L15.2472 14.9928Z" fill="#410EAD"/>
<path d="M5.83675 13.2537V13.5828C5.9721 13.5828 6.10006 13.5781 6.22802 13.5828C6.41504 13.59 6.5307 13.6973 6.5307 13.8548C6.5307 14.0122 6.41258 14.1148 6.2231 14.1219C6.10498 14.1267 5.98932 14.1267 5.8712 14.1291C5.86628 14.1291 5.86136 14.1339 5.84167 14.1434V14.4535C5.98686 14.4535 6.12713 14.4487 6.26739 14.4535C6.46672 14.4606 6.59222 14.5728 6.5873 14.7302C6.58484 14.8924 6.4618 14.9878 6.25509 14.9902C6.02623 14.9902 5.79738 14.995 5.56852 14.9902C5.3815 14.9854 5.27568 14.8924 5.27322 14.7135C5.2683 14.1434 5.2683 13.5733 5.27322 13.0056C5.27322 12.8171 5.3815 12.7193 5.5759 12.717C5.80968 12.7122 6.04592 12.7122 6.28216 12.717C6.46918 12.7193 6.58976 12.8291 6.5873 12.9865C6.5873 13.1392 6.46426 13.2489 6.27724 13.256C6.13697 13.2608 5.99424 13.256 5.83429 13.256L5.83675 13.2537Z" fill="#410EAD"/>
<path d="M12.8673 14.2342C12.8673 14.3964 12.8697 14.5395 12.8673 14.6802C12.8624 14.8806 12.759 14.9927 12.5892 14.9951C12.4169 14.9951 12.3136 14.8878 12.3136 14.685C12.3136 14.1292 12.3111 13.5711 12.3136 13.0153C12.3136 12.8149 12.4145 12.7219 12.6237 12.7171C12.791 12.7147 12.9583 12.7123 13.1232 12.7171C13.5489 12.7314 13.8811 13.0654 13.8811 13.4733C13.8811 13.8812 13.5563 14.2127 13.1281 14.2318C13.0494 14.2366 12.9706 14.2318 12.8673 14.2318V14.2342ZM12.8747 13.6903C13.0346 13.6951 13.197 13.7404 13.2832 13.5854C13.3151 13.5257 13.3127 13.416 13.2758 13.3588C13.1823 13.2109 13.0248 13.2586 12.8747 13.2705V13.6927V13.6903Z" fill="#410EAD"/>
<path d="M8.09084 13.9575C8.22126 13.5806 8.32953 13.2562 8.44519 12.9342C8.5141 12.7457 8.67405 12.6718 8.834 12.7434C8.97919 12.8102 9.02595 12.939 8.96197 13.1274C8.80201 13.5997 8.6396 14.0696 8.47718 14.5419C8.45258 14.6159 8.42797 14.6898 8.4009 14.7637C8.34922 14.9093 8.24833 14.9951 8.08345 14.9927C7.92842 14.9904 7.83245 14.9069 7.78323 14.7685C7.61344 14.2938 7.44118 13.8192 7.27138 13.3445C7.24185 13.2586 7.20986 13.1751 7.18279 13.0892C7.13111 12.927 7.1951 12.7887 7.33782 12.7338C7.48793 12.6766 7.64297 12.7481 7.70449 12.9151C7.80784 13.1894 7.90381 13.4685 8.00471 13.7452C8.02439 13.8001 8.04654 13.8525 8.08837 13.9575H8.09084Z" fill="#410EAD"/>
</svg>
