<svg width="15" height="10" viewBox="0 0 15 10" fill="none" xmlns="http://www.w3.org/2000/svg">
<path d="M14.9965 3.37415C14.9172 3.51734 14.8578 3.67569 14.7551 3.80204C14.5803 4.01767 14.3244 4.10695 14.038 4.11201C13.9425 4.11369 13.8452 4.11201 13.7335 4.11201C13.7335 4.17939 13.7335 4.2333 13.7335 4.28552C13.7335 5.09245 13.7335 5.89937 13.7335 6.7063C13.7335 7.07017 13.5965 7.36835 13.2488 7.55366C12.6272 7.88384 11.8542 7.48796 11.838 6.81917C11.82 6.09984 11.8326 5.37883 11.8326 4.65782C11.8326 4.48093 11.8326 4.30405 11.8326 4.11201C11.7227 4.11201 11.6272 4.11369 11.5317 4.11201C10.9876 4.10021 10.5804 3.7296 10.5696 3.23769C10.5587 2.7559 10.9515 2.35159 11.4903 2.34148C12.3533 2.32464 13.2164 2.32801 14.0794 2.34148C14.519 2.34822 14.8343 2.60428 14.9659 2.99848C14.9767 3.03217 14.9875 3.06586 15.0001 3.09956V3.37415H14.9965ZM13.1479 5.31313C13.1479 4.84818 13.1479 4.38323 13.1479 3.91659C13.1479 3.66222 13.2488 3.56788 13.5173 3.56619C13.6884 3.56619 13.8596 3.56788 14.029 3.56619C14.2434 3.56282 14.4091 3.41121 14.4091 3.2259C14.4091 3.0406 14.2434 2.88561 14.029 2.88393C13.1947 2.88056 12.3605 2.88056 11.5263 2.88393C11.3101 2.88393 11.1497 3.0406 11.1515 3.22759C11.1515 3.41626 11.3155 3.56114 11.5335 3.56451C11.6794 3.56788 11.8254 3.56451 11.9731 3.56451C12.3371 3.56451 12.4164 3.642 12.4164 3.98734C12.4164 4.81786 12.4164 5.64837 12.4164 6.47719C12.4164 6.58669 12.4128 6.69619 12.4182 6.80569C12.4254 6.9472 12.5119 7.04322 12.6452 7.09881C12.7659 7.14935 12.883 7.13082 12.9893 7.0567C13.1046 6.97584 13.1461 6.86634 13.1461 6.73494C13.1461 6.25988 13.1461 5.7865 13.1461 5.31145L13.1479 5.31313Z" fill="#410EAD"/>
<path d="M6.59842 7.33816C5.21105 7.31795 4.08855 6.25496 4.11017 4.97803C4.13179 3.67414 5.26691 2.63811 6.65247 2.66001C8.03803 2.68191 9.13712 3.74153 9.11549 5.0353C9.09387 6.31392 7.95335 7.35838 6.60022 7.33816H6.59842ZM6.62905 3.20751C5.57141 3.19908 4.70836 3.99253 4.69575 4.98308C4.68313 5.96184 5.53898 6.7755 6.59842 6.79235C7.64525 6.80751 8.52091 5.9989 8.52812 5.0134C8.53532 4.02117 7.68849 3.21761 6.62905 3.20919V3.20751Z" fill="#410EAD"/>
<path d="M0.0056535 5.00306C0.0056535 4.45557 0.00204995 3.90807 0.0056535 3.36057C0.00925704 2.90236 0.288532 2.52164 0.711948 2.3835C1.43266 2.14934 2.15337 2.60081 2.16418 3.32519C2.18219 4.43872 2.17679 5.55056 2.16418 6.66408C2.15877 7.16778 1.80202 7.55356 1.29933 7.65126C0.816451 7.74392 0.326369 7.52492 0.115562 7.09198C0.0434908 6.94373 0.0110589 6.76685 0.00745531 6.60344C-0.00515709 6.06942 0.00205004 5.5354 0.00205004 5.00306H0.0056535ZM0.591229 5.00306C0.591229 5.55056 0.589428 6.09806 0.591229 6.64555C0.591229 6.92183 0.802037 7.1223 1.07951 7.12567C1.35698 7.12904 1.5804 6.93194 1.5822 6.65903C1.58581 5.55056 1.58581 4.44209 1.5822 3.33362C1.5822 3.16347 1.50293 3.02533 1.34437 2.93437C1.00744 2.74232 0.594833 2.96469 0.591229 3.34709C0.585824 3.89965 0.591229 4.45051 0.591229 5.00306Z" fill="#410EAD"/>
<path d="M6.68324 10C5.63101 10.0084 4.62922 9.74395 3.71212 9.19983C3.54275 9.09875 3.49591 8.93703 3.58599 8.80226C3.67428 8.67254 3.84545 8.63548 4.01121 8.7315C4.44364 8.98251 4.89949 9.18635 5.39497 9.3009C6.86342 9.63951 8.21475 9.39861 9.44536 8.57652C9.62734 8.45523 9.7895 8.30867 9.96066 8.17221C10.1246 8.0425 10.2958 8.03576 10.4129 8.16042C10.53 8.2834 10.5066 8.44007 10.3498 8.57989C9.33185 9.48621 8.11925 9.95453 6.68144 10H6.68324Z" fill="#410EAD"/>
<path d="M6.28854 9.28994e-06C7.5714 -0.00167532 8.4831 0.225747 9.32633 0.685644C9.38038 0.714282 9.43624 0.747974 9.47768 0.79009C9.56957 0.882743 9.57497 1.0192 9.49389 1.1169C9.40741 1.22135 9.2921 1.26852 9.15877 1.21124C8.97679 1.13375 8.80742 1.03436 8.62364 0.960235C6.97682 0.283023 5.40027 0.417792 3.90119 1.33927C3.71561 1.45382 3.55165 1.60039 3.37868 1.73347C3.33003 1.77053 3.28679 1.81433 3.23634 1.85139C3.0976 1.95247 2.93544 1.9491 2.82734 1.84297C2.71743 1.73515 2.71563 1.56501 2.84716 1.45214C3.05436 1.27357 3.26337 1.09332 3.49219 0.94002C4.4165 0.316715 5.45612 0.010117 6.28854 0.00169394V9.28994e-06Z" fill="#410EAD"/>
<path d="M6.71711 1.3208C7.67745 1.33765 8.59636 1.67794 9.36391 2.36357C9.51346 2.49666 9.52787 2.65164 9.40895 2.77462C9.29364 2.89085 9.11707 2.89254 8.96752 2.76114C8.58554 2.4259 8.15492 2.16479 7.65223 2.02328C6.45945 1.68805 5.38199 1.89525 4.42165 2.63479C4.35318 2.68702 4.29372 2.74766 4.22345 2.79652C4.08472 2.89254 3.92076 2.87738 3.81806 2.76451C3.71716 2.65164 3.72256 2.49329 3.85229 2.38547C4.04508 2.22543 4.23967 2.06371 4.45228 1.92894C5.07749 1.53306 5.85406 1.32249 6.71711 1.3208Z" fill="#410EAD"/>
<path d="M6.69762 8.67406C5.5571 8.66058 4.63999 8.31692 3.87064 7.63129C3.72469 7.50157 3.70668 7.33817 3.82379 7.22025C3.94271 7.09895 4.11027 7.09727 4.26523 7.23035C4.6472 7.56559 5.07783 7.83007 5.58052 7.9699C6.78771 8.30345 7.88138 8.09793 8.84533 7.33143C8.90119 7.28763 8.95344 7.23878 9.01109 7.19835C9.15163 7.10064 9.31379 7.1158 9.41649 7.22867C9.51919 7.34322 9.51739 7.49989 9.38406 7.60939C9.18767 7.7728 8.98947 7.9362 8.77146 8.07266C8.13003 8.47022 7.37328 8.67406 6.69762 8.67406Z" fill="#410EAD"/>
<path d="M10.4881 1.64915C10.4917 1.79571 10.362 1.92206 10.2052 1.92374C10.0449 1.92711 9.90251 1.79571 9.90431 1.64747C9.90431 1.50427 10.043 1.37793 10.1962 1.37793C10.3512 1.37793 10.4845 1.50427 10.4881 1.64915Z" fill="#410EAD"/>
<path d="M3.03633 8.06787C3.18948 8.06787 3.33903 8.20601 3.33723 8.3492C3.33723 8.49239 3.19849 8.62042 3.04534 8.62042C2.88678 8.62042 2.74805 8.48902 2.74805 8.33909C2.74805 8.19253 2.88138 8.06787 3.03633 8.06787Z" fill="#410EAD"/>
<path d="M5.53516 4.99999C5.53516 4.44576 6.01803 3.98923 6.61081 3.98586C7.19639 3.98249 7.69008 4.44239 7.69368 4.99494C7.69728 5.5458 7.2072 6.00402 6.61622 6.0057C6.02163 6.0057 5.53696 5.55591 5.53516 4.99999ZM6.61442 5.4582C6.88468 5.4582 7.1063 5.251 7.1081 4.99831C7.1081 4.7473 6.88649 4.53672 6.61802 4.53336C6.34415 4.52999 6.11893 4.74225 6.12073 5.00336C6.12253 5.25942 6.34055 5.45989 6.61442 5.4582Z" fill="#410EAD"/>
</svg>
