<svg width="15" height="15" viewBox="0 0 15 15" fill="none" xmlns="http://www.w3.org/2000/svg">
<path d="M6.09296 14.9963H5.62369C5.60719 14.9872 5.59069 14.9743 5.57236 14.9725C4.91611 14.8571 4.45233 14.4961 4.1847 13.886C4.17554 13.864 4.1627 13.8457 4.14804 13.82C3.33598 14.0747 2.56974 14.0253 1.91899 13.4426C1.25724 12.849 1.18025 12.0849 1.38006 11.2641C0.720139 11.0992 0.359018 10.6558 0.21787 10.031C0.0767208 9.40252 0.252699 8.85651 0.736637 8.42044C0.150045 7.89825 -0.0882582 7.25331 0.0290603 6.49293C0.150045 5.7124 0.626651 5.21586 1.35073 4.93736C1.16192 4.31623 1.17658 3.72076 1.48821 3.15276C1.81083 2.56828 2.3351 2.30077 2.97302 2.23848C2.98035 2.21649 2.98402 2.20733 2.98585 2.19817C3.08667 1.15196 3.84741 0.60046 4.86845 0.840483C4.96194 0.862469 4.99677 0.825825 5.04259 0.759864C5.37072 0.290812 5.8125 0.0159765 6.39176 0.00315083C6.84087 -0.00601035 7.21665 0.171716 7.51178 0.51068C7.83624 0.201032 7.94623 0.127743 8.18453 0.0581179C8.82428 -0.12877 9.53369 0.144233 9.94431 0.745206C10.0085 0.83865 10.0598 0.855141 10.1698 0.829489C10.9818 0.635272 11.6876 1.01638 11.9351 1.78225C11.9827 1.92883 12.001 2.08457 12.034 2.24214C12.6793 2.30444 13.1981 2.58294 13.517 3.16742C13.8268 3.73358 13.836 4.33089 13.6508 4.93919C13.7095 4.96485 13.759 4.985 13.8067 5.00699C14.3511 5.24518 14.7232 5.64277 14.9047 6.21076C14.945 6.33536 14.9688 6.46545 15 6.59187V7.06092C14.9028 7.59227 14.7012 8.06865 14.2539 8.41678C14.7434 8.86384 14.9193 9.40802 14.7764 10.0383C14.6334 10.6649 14.2704 11.1028 13.6233 11.2641C14.1549 13.1073 12.518 14.4283 10.8517 13.8329C10.848 13.8347 10.8407 13.8365 10.8389 13.8402C10.8187 13.8787 10.8004 13.919 10.7802 13.9575C10.5437 14.4595 10.1533 14.7801 9.62351 14.934C9.54102 14.9579 9.4567 14.978 9.37238 15H8.9031C8.87561 14.9908 8.84995 14.978 8.82245 14.9725C8.28902 14.8772 7.88023 14.5987 7.5906 14.1443C7.56311 14.1022 7.53744 14.0601 7.50628 14.0069C7.47145 14.0601 7.44579 14.1004 7.42013 14.1407C7.16349 14.5364 6.8097 14.8003 6.35509 14.9322C6.2671 14.9579 6.17912 14.978 6.08929 15L6.09296 14.9963ZM7.29181 11.8944V11.7716C7.29181 8.26653 7.29181 4.7633 7.29181 1.25823C7.29181 0.924765 7.125 0.692071 6.8262 0.558318C6.2781 0.310966 5.68968 0.585802 5.39638 1.07867C5.37988 1.10616 5.37438 1.1428 5.36889 1.17578C5.33406 1.38099 5.33589 1.58071 5.40921 1.78042C5.46054 1.92333 5.40005 2.04793 5.2754 2.09373C5.14891 2.14137 5.0206 2.07724 4.96927 1.92517C4.93444 1.82439 4.90511 1.71996 4.89228 1.61369C4.85195 1.28388 4.85562 1.28205 4.51833 1.24724C4.45967 1.24174 4.40101 1.23808 4.34418 1.24357C3.79425 1.29488 3.43496 1.73828 3.45879 2.33559C3.46979 2.63607 3.4258 2.68371 3.12883 2.69654C2.52941 2.72036 2.06014 2.95671 1.82367 3.53753C1.64036 3.98826 1.66235 4.44449 1.84383 4.89156C1.95932 5.17555 1.91899 5.26533 1.62569 5.34778C0.793463 5.58414 0.34802 6.27306 0.503834 7.12322C0.599155 7.63991 0.853956 8.06316 1.40022 8.20973C1.62752 8.2702 1.87133 8.2702 2.1078 8.28486C2.27278 8.29402 2.37726 8.36547 2.3846 8.50289C2.39376 8.64764 2.29294 8.75941 2.1243 8.75208C1.8585 8.74108 1.5927 8.70261 1.3269 8.68428C1.26457 8.68062 1.18941 8.68428 1.13809 8.71726C0.723806 8.98477 0.551494 9.47947 0.698142 9.9925C0.813628 10.3974 1.03727 10.7034 1.48088 10.7914C1.57803 10.8097 1.64402 10.7932 1.70451 10.7071C1.86583 10.4744 2.07663 10.2967 2.3241 10.1592C2.48725 10.0676 2.61923 10.0878 2.69622 10.2124C2.77321 10.3388 2.72372 10.4634 2.56424 10.5623C2.12246 10.8335 1.8365 11.2018 1.76867 11.7368C1.67335 12.466 2.03447 13.1293 2.70356 13.384C3.18566 13.5672 3.66043 13.5177 4.12788 13.3217C4.38268 13.2154 4.4835 13.2594 4.55865 13.5214C4.63564 13.7907 4.76763 14.0253 4.98393 14.2085C5.74834 14.8589 6.90686 14.487 7.21115 13.4939C7.42013 12.8178 7.20199 12.259 6.6044 11.9841C6.11679 11.7588 5.63102 11.7789 5.15625 12.0391C4.9986 12.1252 4.87028 12.1051 4.79879 11.9841C4.72547 11.8595 4.77129 11.724 4.93077 11.6342C5.32856 11.4052 5.7575 11.3227 6.21395 11.3832C6.61723 11.4363 6.96735 11.6049 7.29731 11.8944H7.29181ZM7.76658 12.3066C7.76658 12.5979 7.75192 12.8764 7.77025 13.1531C7.79774 13.5599 7.93523 13.9263 8.25235 14.2011C8.9416 14.804 10.1643 14.5768 10.4521 13.4976C10.5126 13.2704 10.6244 13.2301 10.8444 13.3034C11.0735 13.3803 11.31 13.4554 11.5483 13.4829C12.2943 13.5709 12.9873 13.1165 13.1797 12.4349C13.2989 12.0098 13.2402 11.5939 13.0954 11.1853C13.0001 10.9159 13.0899 10.7914 13.3704 10.8005C13.5903 10.806 13.7828 10.7364 13.9478 10.5916C14.4537 10.1482 14.5931 9.10387 13.7553 8.6513C13.6545 8.59634 13.572 8.53221 13.5757 8.40762C13.5793 8.28486 13.6618 8.22256 13.7645 8.16943C14.7177 7.66556 14.8057 6.20893 13.9111 5.60246C13.7297 5.4797 13.5097 5.40825 13.3007 5.33129C13.1137 5.2635 13.0514 5.15723 13.1229 4.97401C13.1486 4.90988 13.1779 4.84941 13.1999 4.78345C13.495 3.9333 13.1724 2.79365 11.9754 2.70203C11.5519 2.67089 11.5519 2.65989 11.5446 2.23481C11.5354 1.68698 11.156 1.26373 10.6281 1.24724C10.4484 1.24174 10.2614 1.29304 10.0855 1.34435C9.84715 1.4158 9.77566 1.39565 9.66384 1.17761C9.49703 0.856973 9.25139 0.622446 8.90127 0.512512C8.37151 0.343947 7.83257 0.605956 7.77941 1.10249C7.73359 1.52024 7.77025 1.94715 7.77025 2.36673C7.78675 2.37406 7.79408 2.38139 7.80324 2.38139C8.05621 2.38322 8.31101 2.38139 8.56398 2.38689C8.68497 2.39055 8.76196 2.36857 8.82611 2.24398C8.98009 1.94532 9.33205 1.80424 9.64918 1.88119C9.96814 1.95998 10.2028 2.22932 10.2266 2.5408C10.2523 2.89075 10.0745 3.18391 9.76283 3.31034C9.4512 3.43676 9.06075 3.3653 8.90127 3.08131C8.76929 2.84861 8.60614 2.83396 8.38984 2.84678C8.21936 2.85594 8.04888 2.84678 7.87657 2.84861C7.83991 2.84861 7.80324 2.85777 7.76841 2.86144V5.15173H7.91873C8.30001 5.15173 8.6813 5.13524 9.06075 5.15723C9.39804 5.17738 9.66568 5.00699 9.95714 4.90621C9.88565 4.2008 10.1826 3.69877 10.7527 3.53937C11.288 3.39095 11.8434 3.63647 12.0872 4.12568C12.331 4.61672 12.1825 5.21403 11.7389 5.5365C11.2495 5.89379 10.6867 5.8205 10.1661 5.3258C10.0158 5.38443 9.85815 5.43573 9.70784 5.50719C9.51719 5.59697 9.32105 5.62445 9.11208 5.62079C8.71613 5.61162 8.32018 5.61895 7.92606 5.61895C7.87473 5.61895 7.82341 5.61895 7.77025 5.61895V6.9913H11.1835C11.4933 6.29871 11.9461 6.00555 12.5253 6.12282C13.0496 6.22909 13.429 6.67799 13.4437 7.20933C13.4584 7.72419 13.0899 8.2079 12.5876 8.33249C11.9809 8.48274 11.5483 8.2189 11.1817 7.47867H7.77575V8.89316C8.08004 8.89316 8.37334 8.90598 8.6648 8.88949C9.15974 8.86018 9.63634 8.90965 10.08 9.14967C10.1478 9.18632 10.1881 9.17166 10.2413 9.11486C10.4447 8.89133 10.7032 8.77406 11.002 8.75574C11.5959 8.71726 12.133 9.16983 12.1935 9.75248C12.2558 10.3644 11.8434 10.9141 11.255 11.0039C10.6336 11.0973 10.0635 10.7034 9.9608 10.0951C9.93514 9.93937 9.95714 9.7763 9.95714 9.60956C9.64184 9.4868 9.34305 9.33106 8.98193 9.35855C8.62814 9.38603 8.26885 9.36404 7.91323 9.36404C7.86557 9.36404 7.81974 9.36771 7.77391 9.37137V11.8229H8.92327C9.14507 11.4052 9.44754 11.2421 9.83249 11.33C10.1624 11.407 10.4026 11.7111 10.4044 12.0556C10.4062 12.3982 10.1734 12.706 9.84349 12.7903C9.46403 12.8893 9.15424 12.7244 8.92144 12.2993H7.76658V12.3066ZM12.3017 6.58454C11.9351 6.58454 11.6399 6.8777 11.6381 7.24048C11.6363 7.60693 11.9387 7.90925 12.309 7.90742C12.6738 7.90742 12.9689 7.61243 12.9726 7.24781C12.9763 6.87953 12.6775 6.58271 12.3017 6.58454ZM11.0643 3.97361C10.6959 3.97361 10.4026 4.26676 10.4026 4.63321C10.4026 4.99783 10.7014 5.29465 11.0643 5.29648C11.4365 5.29648 11.7352 4.99783 11.7316 4.62405C11.7279 4.25577 11.4365 3.97177 11.0643 3.97177V3.97361ZM11.7316 9.88806C11.7297 9.52162 11.4328 9.23029 11.0662 9.23029C10.7014 9.23029 10.4044 9.52711 10.4026 9.89173C10.4026 10.2618 10.705 10.5605 11.0772 10.555C11.4456 10.5495 11.7352 10.2563 11.7316 9.88989V9.88806ZM9.65284 11.7826C9.5007 11.7789 9.37238 11.9017 9.36688 12.0556C9.36138 12.2187 9.48236 12.3506 9.64184 12.3543C9.79216 12.3579 9.92414 12.2333 9.92964 12.0812C9.93697 11.9218 9.80866 11.7863 9.65101 11.7826H9.65284ZM9.4787 2.33742C9.32105 2.33742 9.19823 2.45285 9.19457 2.61042C9.1909 2.77349 9.31189 2.90175 9.47503 2.90175C9.63818 2.90175 9.76283 2.77716 9.75916 2.61409C9.75733 2.45835 9.63634 2.33925 9.4787 2.33742Z" fill="#410EAD"/>
<path d="M3.75033 6.70563C3.62384 6.14863 3.30122 5.76203 2.78062 5.53666C2.74945 5.52384 2.71646 5.51468 2.68529 5.50185C2.54048 5.44139 2.47815 5.31313 2.52948 5.18487C2.57714 5.06578 2.70546 5.01264 2.84844 5.06395C3.50469 5.29664 3.9373 5.74554 4.15727 6.40331C4.17561 6.45828 4.19027 6.51508 4.2086 6.58104C4.36441 6.58104 4.52023 6.56638 4.67421 6.58287C5.5651 6.68364 6.23784 7.39822 6.29284 8.29235C6.30017 8.41511 6.28917 8.53054 6.16635 8.59467C6.01421 8.67345 5.84923 8.57451 5.8254 8.39678C5.80523 8.25204 5.79607 8.10363 5.75024 7.96621C5.58343 7.47334 5.2333 7.16369 4.72554 7.06475C4.20493 6.96214 3.76499 7.13254 3.41487 7.5338C3.38371 7.57045 3.35621 7.61259 3.32505 7.64923C3.23522 7.75184 3.09774 7.76833 2.99875 7.69321C2.90343 7.61992 2.87777 7.48983 2.94926 7.37806C3.09774 7.14903 3.29572 6.96947 3.52852 6.82839C3.59818 6.78625 3.6715 6.7496 3.75216 6.70563H3.75033Z" fill="#410EAD"/>
<path d="M5.08484 10.7383C4.54591 10.7163 4.06931 10.3609 3.91899 9.84785C3.77234 9.34582 3.97399 8.79981 4.4121 8.51948C4.56058 8.4242 4.69439 8.43519 4.77505 8.54879C4.86121 8.66789 4.82271 8.79981 4.67423 8.90608C4.34244 9.14427 4.24528 9.53637 4.43409 9.86983C4.62474 10.207 5.02435 10.3261 5.39831 10.1593C5.56695 10.0842 5.7026 10.1154 5.76126 10.2454C5.82175 10.3755 5.76493 10.5129 5.59445 10.5807C5.42947 10.6467 5.25349 10.6852 5.08301 10.7365L5.08484 10.7383Z" fill="#410EAD"/>
<path d="M4.4816 3.85482C4.14614 3.83099 3.89134 3.67701 3.6952 3.41854C3.61454 3.31222 3.6347 3.1839 3.73002 3.10325C3.82718 3.02076 3.94633 3.02626 4.04715 3.11608C4.4211 3.45337 4.63741 3.4552 5.00953 3.10508C5.24783 2.88144 5.5118 2.72196 5.83809 2.6743C6.09106 2.63764 6.33486 2.67797 6.56217 2.78979C6.69232 2.85395 6.73631 2.97493 6.68498 3.09408C6.62999 3.21873 6.50534 3.27373 6.36969 3.21323C5.97924 3.03909 5.65661 3.15641 5.35049 3.42037C5.19101 3.55786 5.00586 3.66968 4.81889 3.7705C4.7199 3.82366 4.59525 3.82549 4.4816 3.85115V3.85482Z" fill="#410EAD"/>
<path d="M6.60435 5.01467C6.60435 5.52977 6.20657 5.95689 5.6878 5.99538C5.52465 6.00821 5.40367 5.92022 5.39084 5.78091C5.37801 5.64526 5.46966 5.54994 5.63464 5.52977C5.94077 5.49128 6.13324 5.2933 6.13324 5.0165C6.13324 4.73787 5.94077 4.5399 5.63464 4.5069C5.47699 4.4904 5.37984 4.38958 5.39084 4.25393C5.40184 4.11645 5.50632 4.0358 5.66947 4.03763C6.17724 4.04496 6.60252 4.4904 6.60435 5.01284V5.01467Z" fill="#410EAD"/>
<path d="M12.2926 7.47355C12.1643 7.46805 12.0653 7.3599 12.0726 7.23158C12.0781 7.10509 12.1918 7.00427 12.3183 7.01161C12.4466 7.01894 12.5474 7.13076 12.5401 7.25724C12.5328 7.38556 12.4246 7.48088 12.2945 7.47538L12.2926 7.47355Z" fill="#410EAD"/>
<path d="M11.3046 4.63683C11.3009 4.76332 11.1909 4.86414 11.0626 4.8623C10.9325 4.86047 10.8353 4.75782 10.839 4.624C10.8408 4.49385 10.9471 4.3912 11.0754 4.3967C11.2019 4.40219 11.3101 4.51401 11.3046 4.63683Z" fill="#410EAD"/>
<path d="M11.0642 10.1283C10.9377 10.1265 10.8369 10.0202 10.8369 9.88817C10.8369 9.75619 10.9396 9.65903 11.0716 9.6627C11.2017 9.66453 11.3062 9.77085 11.3025 9.89733C11.2989 10.0202 11.1852 10.1301 11.0624 10.1283H11.0642Z" fill="#410EAD"/>
</svg>
