<svg width="15" height="15" viewBox="0 0 15 15" fill="none" xmlns="http://www.w3.org/2000/svg">
<path d="M7.90186 0C8.70635 0.241935 9.49047 0.470322 10.2664 0.714193C11.7043 1.1671 13.1341 1.64322 14.5781 2.08258C14.9508 2.19677 15.0425 2.36322 14.9834 2.71548C14.7512 4.09354 14.5476 5.47548 14.3113 6.8516C14.2909 6.9658 14.1076 7.13999 13.9976 7.13999C11.9793 7.15741 9.95891 7.15354 7.90186 7.15354V0Z" fill="#410EAD"/>
<path d="M7.89795 7.90479H14.1343C14.0569 8.4564 13.9897 8.98091 13.9082 9.50156C13.7921 10.2428 13.6495 10.9822 13.5518 11.7254C13.509 12.0448 13.3868 12.2383 13.0711 12.3932C11.5212 13.148 9.98962 13.9319 8.44989 14.7041C8.28288 14.7874 8.10773 14.857 7.89999 14.948V7.90479H7.89795Z" fill="#410EAD"/>
<path d="M7.10965 0.00390625V7.09938C7.03633 7.1168 6.97523 7.14196 6.91617 7.14196C4.97724 7.14583 3.03832 7.14196 1.0994 7.14777C0.842778 7.14777 0.698174 7.10132 0.65744 6.80712C0.463955 5.45616 0.250103 4.10713 0.0179216 2.76197C-0.0553989 2.34003 0.0932789 2.18906 0.518946 2.06132C2.46805 1.47294 4.4029 0.838099 6.34182 0.222616C6.58215 0.147132 6.82655 0.0851965 7.10965 0.00390625ZM6.71046 0.538099C6.06891 0.745196 5.57399 0.909712 5.07501 1.06455C3.64933 1.51165 2.22161 1.94713 0.804081 2.40971C0.679844 2.45035 0.518946 2.66519 0.533203 2.77939C0.679844 3.93487 0.875365 5.08455 1.01997 6.24003C1.06885 6.62906 1.21956 6.76067 1.62894 6.7568C3.1646 6.73938 4.69822 6.74132 6.23388 6.75293C6.64121 6.7568 6.80211 6.6368 6.70231 6.23422C6.65954 6.06196 6.71046 5.86842 6.71046 5.68454C6.71046 4.01616 6.71046 2.34971 6.71046 0.536164V0.538099Z" fill="#410EAD"/>
<path d="M7.1384 15C5.30742 14.0788 3.53958 13.1923 1.77785 12.2923C1.65565 12.2304 1.52123 12.0833 1.50086 11.9594C1.27479 10.6317 1.06908 9.30005 0.849121 7.91812C1.02835 7.90264 1.16481 7.87941 1.30126 7.87941C3.063 7.87554 4.82473 7.88522 6.58646 7.86393C7.04064 7.85812 7.15062 8.01296 7.14654 8.42135C7.12821 10.5852 7.1384 12.751 7.1384 14.9981V15ZM6.70255 14.3323C6.73106 14.1271 6.75958 14.011 6.75958 13.8949C6.75958 12.1588 6.74735 10.4246 6.75958 8.68844C6.76161 8.34005 6.63126 8.23554 6.27892 8.23747C4.77585 8.24715 3.27277 8.24909 1.7697 8.22973C1.36644 8.22393 1.31145 8.39038 1.36237 8.7078C1.5029 9.57102 1.64546 10.4362 1.75748 11.3033C1.81451 11.7504 1.98559 12.0717 2.46217 12.2284C2.71676 12.3136 2.9469 12.4684 3.18927 12.5904C4.33185 13.1575 5.47239 13.7246 6.70051 14.3323H6.70255Z" fill="#410EAD"/>
</svg>
