<svg width="26" height="15" viewBox="0 0 26 15" fill="none" xmlns="http://www.w3.org/2000/svg">
<path d="M13.1584 14.9908C10.2688 14.8968 7.70841 14.4644 5.27091 13.4399C3.40839 12.6597 1.70804 11.654 0.199343 10.3521C0.145285 10.3051 0.0715709 10.2581 0.0469994 10.197C0.0125992 10.1171 -0.0218007 9.99965 0.0175138 9.94795C0.051914 9.89626 0.199343 9.85866 0.268144 9.88216C0.567917 10.0137 0.85786 10.1641 1.1478 10.3145C2.52381 11.0195 3.95879 11.5882 5.44783 12.0347C7.03023 12.5093 8.6323 12.89 10.2933 13.0028C11.4187 13.078 12.5441 13.2237 13.6646 13.1955C15.5369 13.1485 17.4043 12.9323 19.2177 12.4623C20.3628 12.1662 21.4832 11.7856 22.6135 11.4425C22.8347 11.3767 23.0411 11.2592 23.2622 11.231C23.3801 11.2169 23.5964 11.3062 23.6357 11.4002C23.6848 11.5177 23.6455 11.7433 23.5521 11.8232C23.2966 12.0347 22.9968 12.2085 22.7069 12.3777C21.5324 13.0592 20.289 13.5997 18.9818 14.018C17.5763 14.4644 16.1561 14.7793 14.6769 14.8639C14.0823 14.8968 13.4926 14.9673 13.1535 15.0002L13.1584 14.9908Z" fill="#410EAD"/>
<path d="M11.1434 6.11289C11.4727 4.81106 11.7971 3.52332 12.1214 2.23558C12.2443 1.73271 12.372 1.22983 12.4605 0.722257C12.5047 0.45907 12.6669 0.365075 12.8929 0.313378C12.9273 0.303978 12.9667 0.313378 13.006 0.313378C14.2346 0.322777 14.0527 0.191183 14.3328 1.32853C14.6719 2.70556 15.0503 4.07789 15.414 5.45022C15.468 5.66171 15.5074 5.8779 15.64 6.09879C15.8022 5.51132 15.9595 4.92385 16.1216 4.33638C16.446 3.13324 16.7703 1.9301 17.0947 0.726956C17.1733 0.43557 17.3404 0.275779 17.6746 0.303978C17.8957 0.322777 18.1218 0.313377 18.3429 0.303978C18.6623 0.289879 18.7017 0.468469 18.6279 0.694058C18.3282 1.58701 18.0137 2.47057 17.709 3.36353C17.2765 4.64186 16.844 5.9249 16.4165 7.20794C16.333 7.46173 16.1806 7.60742 15.8759 7.58862C15.64 7.57452 15.4042 7.56982 15.1683 7.58862C14.8292 7.61682 14.7014 7.42883 14.6375 7.16564C14.2051 5.43613 13.7775 3.70191 13.2763 1.96769C13.1534 2.40007 13.0256 2.83245 12.9126 3.26483C12.5833 4.58547 12.259 5.9108 11.9347 7.23144C11.8708 7.48052 11.7332 7.62152 11.4383 7.58862C11.3154 7.57452 11.1926 7.58862 11.0648 7.58392C10.2884 7.57452 10.2982 7.56982 10.077 6.83666C9.6839 5.51602 9.28093 4.20009 8.87304 2.88415C8.66172 2.19798 8.42584 1.51652 8.20469 0.83505C8.07692 0.43087 8.16046 0.313377 8.60767 0.318077C9.53647 0.327476 9.49716 0.139486 9.78219 1.19223C10.2196 2.81835 10.6373 4.44917 11.0697 6.07529C11.0697 6.08939 11.109 6.09879 11.1385 6.11759L11.1434 6.11289Z" fill="#410EAD"/>
<path d="M5.82636 3.48551C5.82636 3.09543 5.87551 2.69595 5.81653 2.31527C5.69859 1.58681 5.09413 1.14033 4.23413 1.19672C3.59035 1.23902 2.95641 1.40351 2.31755 1.51631C2.28315 1.52101 2.24383 1.52571 2.20943 1.53981C1.9932 1.6291 1.77206 1.90169 1.546 1.59621C1.36417 1.34242 1.52143 0.736147 1.79663 0.609253C3.01046 0.0452805 4.2931 -0.203806 5.59539 0.195674C6.75517 0.552857 7.27609 1.44111 7.26626 2.60196C7.25643 3.55131 7.25643 4.50066 7.25643 5.45001C7.25643 5.90589 7.40386 6.32417 7.62009 6.72365C7.75769 6.97744 7.71346 7.17953 7.44809 7.32052C7.43826 7.32522 7.42843 7.33462 7.4186 7.33932C6.75517 7.8046 6.53894 7.7529 6.15562 7.05264C6.09665 6.94454 6.04259 6.82705 5.96396 6.67665C5.33985 7.40512 4.53881 7.7294 3.65915 7.8422C2.55343 7.98319 1.14303 7.27822 1.04965 5.91999C0.990683 5.04113 1.20691 4.29387 2.00794 3.7957C2.59275 3.42912 3.24144 3.20353 3.95401 3.27402C4.56339 3.33042 5.17276 3.41502 5.82636 3.49021V3.48551ZM5.91974 4.45366C5.03025 4.26567 4.1899 4.18578 3.35447 4.38787C2.84829 4.51006 2.56326 4.90954 2.54852 5.37012C2.52395 6.23958 3.03012 6.72835 3.95401 6.72365C4.7403 6.72365 5.59539 6.25368 5.73791 5.6991C5.84111 5.30432 5.85585 4.89074 5.91974 4.44897V4.45366Z" fill="#410EAD"/>
<path d="M24.4318 1.54878C24.2352 1.50648 24.0583 1.48298 23.8863 1.42659C23.0951 1.1822 22.3039 0.994207 21.4684 1.27619C21.1048 1.39839 20.8738 1.60518 20.8198 1.96236C20.7608 2.34774 20.8935 2.68142 21.2817 2.84122C21.9304 3.1044 22.584 3.36759 23.2573 3.56968C24.9576 4.08195 25.3557 5.77387 24.2893 6.97231C23.847 7.46579 23.1983 7.66318 22.5348 7.77597C21.4586 7.95926 20.4414 7.77597 19.4831 7.2919C19.2619 7.1791 19.1194 6.46944 19.3012 6.31434C19.3799 6.24855 19.5813 6.25325 19.6944 6.30025C20.3971 6.57753 21.1244 6.77022 21.8812 6.70913C22.2891 6.67623 22.7265 6.55403 23.0853 6.35664C23.7192 6.01356 23.6258 5.1347 22.9526 4.86682C22.4022 4.65063 21.8321 4.47204 21.2571 4.30284C20.4414 4.05846 19.7189 3.68247 19.4192 2.87881C19.026 1.82137 19.5519 0.829714 20.6576 0.373836C21.7436 -0.0773417 22.8346 -0.00214465 23.9256 0.369137C24.4809 0.557128 24.5448 0.70752 24.4367 1.54878H24.4318Z" fill="#410EAD"/>
<path d="M21.0312 10.3186C21.1345 10.2152 21.2131 10.0742 21.3359 10.0131C22.4761 9.42566 23.6948 9.23767 24.9774 9.42096C25.0364 9.43036 25.1003 9.42566 25.1642 9.43506C25.69 9.50556 26.0684 9.68415 25.9898 10.4126C25.8768 11.4278 25.5229 12.3254 24.9086 13.1432C24.6629 13.4722 24.3877 13.7964 23.9749 13.9421L23.8521 13.8857C23.9503 13.5897 24.0486 13.2936 24.142 12.9975C24.3435 12.3395 24.5646 11.6863 24.7219 11.0189C24.8104 10.6335 24.5745 10.3703 24.1568 10.3703C23.3213 10.3703 22.4859 10.4079 21.6554 10.4267C21.4637 10.4267 21.2721 10.4267 21.0853 10.4267C21.0706 10.3938 21.0558 10.3562 21.0411 10.3233L21.0312 10.3186Z" fill="#410EAD"/>
</svg>
