<svg width="21" height="15" viewBox="0 0 21 15" fill="none" xmlns="http://www.w3.org/2000/svg">
<path d="M5.17383 14.9998V13.8067H13.9659C13.888 13.7047 13.8389 13.6367 13.784 13.5715C12.3981 11.8315 11.0121 10.0886 9.6233 8.3514C9.52224 8.22388 9.50781 8.12752 9.57711 7.97732C10.5848 5.73851 11.5838 3.49404 12.5829 1.25239C12.6118 1.18721 12.6435 1.12203 12.6868 1.03418C15.4616 5.69884 18.222 10.3352 20.9996 14.9998H5.17383ZM18.8572 13.8011C16.8418 10.4173 14.8524 7.07046 12.8427 3.69808C12.7994 3.79443 12.7706 3.84544 12.7475 3.90212C12.1671 5.2029 11.5867 6.50651 11.0006 7.80445C10.9342 7.95465 10.9515 8.05101 11.0526 8.17853C12.349 9.79955 13.6397 11.4234 14.9332 13.0472C15.1296 13.2966 15.2855 13.6395 15.5453 13.7614C15.8139 13.8889 16.1864 13.8011 16.5155 13.8039C17.2807 13.8039 18.0458 13.8039 18.8601 13.8039L18.8572 13.8011Z" fill="#410EAD"/>
<path d="M11.7979 0.002834C11.5929 0.459098 11.4081 0.875687 11.2204 1.28944C9.56883 4.95656 7.91724 8.62367 6.27142 12.2908C6.21079 12.424 6.15015 12.4835 5.98846 12.4835C4.06545 12.4778 2.14533 12.4807 0.222329 12.4778C0.155919 12.4778 0.0923966 12.4722 0 12.4665C0.0490857 12.3786 0.080847 12.3135 0.118383 12.2511C1.90279 9.24997 3.69009 6.25166 5.48028 3.25336C5.53225 3.16551 5.61021 3.07482 5.69972 3.02948C7.68913 2.03193 9.68143 1.04289 11.6737 0.0510109C11.6968 0.0396752 11.7228 0.0311733 11.7979 0V0.002834ZM2.14822 11.2479C2.20597 11.2564 2.23196 11.2649 2.25794 11.2649C3.25698 11.2649 4.25602 11.2649 5.25217 11.2706C5.39365 11.2706 5.41675 11.1855 5.46006 11.092C6.70453 8.32611 7.949 5.56302 9.19346 2.7971C9.21656 2.74608 9.231 2.69507 9.26276 2.61006C8.37056 3.05498 7.51011 3.47724 6.65545 3.91367C6.53706 3.97318 6.42157 4.07804 6.35227 4.19139C5.19731 6.11564 4.05101 8.04555 2.90472 9.97262C2.6564 10.3892 2.41097 10.8058 2.14822 11.2479Z" fill="#410EAD"/>
</svg>
