<svg width="9" height="15" viewBox="0 0 9 15" fill="none" xmlns="http://www.w3.org/2000/svg">
<path d="M4.06816 7.50686C3.29089 7.02606 2.59458 6.58654 1.88671 6.16159C1.20428 5.75121 0.512603 5.34811 0.223439 4.51036C0.11934 4.20439 0.0291214 3.879 0.0175548 3.55847C-0.0125182 2.81056 0.0036748 2.06022 0.0106147 1.3123C0.019868 0.275427 0.815646 -0.290364 1.71552 0.151584C2.36788 0.472118 2.97859 0.889783 3.60087 1.27588C4.64417 1.92423 5.68285 2.58473 6.72384 3.23793C7.26515 3.57789 7.81803 3.89357 8.35009 4.2481C9.24303 4.84303 9.20833 5.98675 8.29226 6.55012C7.80184 6.85122 7.31605 7.15962 6.74928 7.51172C7.30448 7.85896 7.79259 8.15764 8.27376 8.46603C8.65545 8.71129 8.94462 9.02211 8.98625 9.53205C9.03252 10.0906 8.785 10.4985 8.36397 10.7632C6.87652 11.7054 5.37055 12.6208 3.87384 13.546C3.32096 13.8884 2.77502 14.2381 2.22214 14.5805C2.06252 14.68 1.90059 14.7844 1.7294 14.8597C0.79714 15.2749 0.0152412 14.7359 0.005988 13.6723C0.00136139 12.9851 0.005988 12.2954 0.005988 11.6082C0.00136139 10.5106 0.494096 9.72631 1.38009 9.17995C2.25221 8.64087 3.12202 8.09693 4.06585 7.50929L4.06816 7.50686ZM7.49417 5.37483C5.42145 4.07812 3.42043 2.82998 1.37315 1.54785C1.37315 2.29576 1.3292 2.98054 1.39397 3.65074C1.42173 3.93242 1.62299 4.28938 1.8497 4.43994C2.95777 5.18056 4.10054 5.86777 5.23869 6.56226C5.32197 6.61325 5.47928 6.63025 5.55793 6.58411C6.18252 6.21016 6.79786 5.81435 7.49648 5.37483H7.49417ZM7.4826 9.64618C7.21426 9.47134 7.013 9.33779 6.80712 9.20666C6.44855 8.98083 6.07611 8.77442 5.72912 8.52674C5.50472 8.36647 5.33585 8.36647 5.0999 8.51945C4.09823 9.16538 3.08963 9.79916 2.06946 10.4159C1.58367 10.7098 1.36159 11.1444 1.33845 11.7029C1.31995 12.1692 1.33151 12.6354 1.33845 13.1016C1.33845 13.2012 1.36159 13.3007 1.38241 13.4489C3.432 12.1716 5.42607 10.9283 7.48492 9.64375L7.4826 9.64618Z" fill="#410EAD"/>
</svg>
