<svg width="29" height="15" viewBox="0 0 29 15" fill="none" xmlns="http://www.w3.org/2000/svg">
<path d="M23.7943 14.9999C23.0566 14.9924 22.4528 14.801 21.9444 14.3656C21.4858 13.9752 21.2068 13.4797 21.1074 12.8904C20.9966 12.2297 21.1074 11.6104 21.4781 11.0436C21.8909 10.4167 22.4833 10.0489 23.2286 9.92125C23.802 9.82365 24.3638 9.8762 24.8912 10.1202C25.7053 10.4956 26.1984 11.1262 26.3475 11.9933C26.4812 12.7515 26.3054 13.4422 25.8162 14.0465C25.3958 14.5645 24.8416 14.8573 24.1803 14.9587C24.0313 14.9812 23.8784 14.9887 23.7943 14.9962V14.9999ZM25.0403 12.4362C25.0403 11.7042 24.4593 11.1337 23.7217 11.1374C22.984 11.1374 22.4107 11.7117 22.4107 12.4399C22.4107 13.1719 22.9879 13.7425 23.7255 13.7425C24.467 13.7425 25.0403 13.1719 25.0403 12.4399V12.4362Z" fill="#410EAD"/>
<path d="M11.2008 13.7308C11.3613 13.7645 11.518 13.8021 11.6786 13.8321C12.0416 13.8997 12.4047 13.9372 12.7717 13.8772C12.894 13.8546 13.0201 13.8171 13.1271 13.757C13.3679 13.6219 13.387 13.3366 13.173 13.1565C13.0621 13.0626 12.9322 13.0101 12.7984 12.965C12.5271 12.8749 12.248 12.7999 11.9958 12.6685C11.6633 12.4958 11.3957 12.2631 11.2658 11.9027C11.0556 11.3172 11.1893 10.4088 12.1296 10.0334C12.4621 9.90204 12.8099 9.8645 13.1615 9.87201C13.5284 9.87951 13.8877 9.93206 14.2432 10.0146C14.2776 10.0222 14.3005 10.0297 14.3005 10.0747C14.3005 10.3975 14.3005 10.7203 14.3005 11.0431C14.3005 11.0507 14.3005 11.0619 14.2967 11.0769C14.2011 11.0544 14.1094 11.0319 14.0138 11.0131C13.7081 10.9531 13.3985 10.9043 13.0851 10.9418C12.9513 10.9568 12.8252 10.9868 12.7067 11.0507C12.4735 11.1858 12.4506 11.4523 12.6685 11.6062C12.7793 11.685 12.9169 11.7338 13.0469 11.7826C13.2456 11.8577 13.452 11.9065 13.6469 11.9853C14.0138 12.128 14.3158 12.3532 14.5031 12.7098C14.8776 13.4267 14.5604 14.3426 13.8074 14.7217C13.3794 14.9357 12.9245 14.9995 12.4506 14.9882C12.0493 14.9807 11.648 14.9357 11.2505 14.8644C11.2161 14.8569 11.1931 14.8531 11.1931 14.8118C11.1931 14.4552 11.1931 14.0986 11.1931 13.742C11.1931 13.7345 11.1931 13.7308 11.197 13.7233L11.2008 13.7308Z" fill="#410EAD"/>
<path d="M6.44989 11.374C6.42696 11.3628 6.40403 11.3515 6.38492 11.344C5.9492 11.1413 5.49437 11.055 5.02044 11.1601C4.31335 11.314 3.95026 11.9145 3.99994 12.5527C4.05727 13.2433 4.60765 13.7651 5.40646 13.7538C5.76192 13.7501 6.09826 13.6712 6.41549 13.5136C6.42696 13.5098 6.4346 13.5061 6.45371 13.4986C6.45371 13.5249 6.45754 13.5436 6.45754 13.5624C6.45754 13.9603 6.45754 14.3582 6.45754 14.7523C6.45754 14.8049 6.43842 14.8236 6.39256 14.8349C5.95684 14.955 5.51348 15.0226 5.06248 14.9813C4.1146 14.8949 3.36548 14.4858 2.90301 13.645C2.66604 13.2095 2.5896 12.7366 2.62017 12.2449C2.65075 11.7719 2.79217 11.3402 3.07118 10.9499C3.46867 10.3943 4.01523 10.064 4.68409 9.93261C5.26887 9.81625 5.846 9.87255 6.41167 10.0377C6.43078 10.0415 6.45371 10.0715 6.45371 10.0903C6.45371 10.5107 6.45371 10.9273 6.45371 11.3477C6.45371 11.3552 6.45371 11.359 6.44607 11.3703L6.44989 11.374Z" fill="#410EAD"/>
<path d="M19.7273 11.3589C19.5438 11.2988 19.368 11.2238 19.1846 11.1787C18.8024 11.0849 18.4163 11.0736 18.0456 11.235C17.5793 11.4377 17.3232 11.7981 17.2735 12.2936C17.2315 12.7215 17.3538 13.0968 17.6748 13.3971C17.9539 13.6561 18.2978 13.7537 18.6762 13.75C19.0279 13.75 19.3642 13.6674 19.6776 13.5135C19.6891 13.5097 19.6967 13.506 19.7082 13.5022C19.7082 13.5022 19.712 13.5022 19.7197 13.5022C19.7197 13.5173 19.7197 13.536 19.7197 13.5548C19.7197 13.9527 19.7197 14.3543 19.7197 14.7522C19.7197 14.7972 19.7082 14.8198 19.6585 14.831C19.2228 14.9511 18.7756 15.0225 18.3208 14.9774C17.3729 14.8911 16.6238 14.4819 16.1613 13.6411C15.9243 13.2095 15.8479 12.7402 15.8785 12.256C15.9052 11.8093 16.0352 11.3889 16.2836 11.0136C16.6696 10.4393 17.2124 10.0902 17.8927 9.94002C18.4928 9.80864 19.0814 9.86119 19.6661 10.0301C19.6853 10.0376 19.7158 10.0601 19.7158 10.0752C19.7158 10.5031 19.7158 10.931 19.7158 11.3476L19.7273 11.3589Z" fill="#410EAD"/>
<path d="M8.20025 3.89665C8.20025 4.98521 8.20025 6.07002 8.20025 7.15858C8.20025 7.48515 7.99386 7.73289 7.67663 7.79295C7.31353 7.86051 6.95808 7.58274 6.93896 7.21864C6.93896 7.19612 6.93896 7.17359 6.93896 7.15482C6.93896 4.98521 6.93896 2.8156 6.93896 0.642236C6.93896 0.341944 7.12242 0.0979562 7.39761 0.0228831C7.80275 -0.0859728 8.19643 0.206812 8.20025 0.619714C8.20025 1.42675 8.20025 2.23003 8.20025 3.03707C8.20025 3.32235 8.20025 3.61138 8.20025 3.89665Z" fill="#410EAD"/>
<path d="M22.0666 3.89647C22.0666 4.98128 22.0666 6.06233 22.0666 7.14714C22.0666 7.42115 21.952 7.62761 21.6997 7.74397C21.3022 7.9279 20.8436 7.65764 20.813 7.22972C20.813 7.19969 20.813 7.16966 20.813 7.13963C20.813 4.98128 20.813 2.82293 20.813 0.668332C20.813 0.40933 20.9085 0.206633 21.1417 0.0790086C21.5506 -0.142457 22.0552 0.139067 22.0666 0.597013C22.0743 0.863522 22.0666 1.13003 22.0666 1.39654C22.0666 2.22985 22.0666 3.06316 22.0666 3.89647Z" fill="#410EAD"/>
<path d="M9.46929 14.9066H8.20801V9.9668H9.46929V14.9066Z" fill="#410EAD"/>
<path d="M25.5414 4.45241C25.5414 4.94414 25.5414 5.43587 25.5414 5.93135C25.5414 6.2354 25.3541 6.47939 25.0713 6.55071C24.6585 6.65581 24.2801 6.36678 24.2725 5.93886C24.2725 5.65734 24.2725 5.37957 24.2725 5.09804C24.2725 4.39235 24.2725 3.68667 24.2725 2.98098C24.2725 2.69195 24.4292 2.46298 24.6891 2.36914C25.1095 2.21899 25.5376 2.51928 25.5414 2.96972C25.5414 3.4652 25.5414 3.96068 25.5414 4.45241Z" fill="#410EAD"/>
<path d="M11.667 4.45215C11.667 4.94388 11.667 5.43186 11.667 5.92358C11.667 6.23138 11.4836 6.47162 11.2046 6.54669C10.7994 6.65179 10.4134 6.36276 10.4058 5.94235C10.4058 5.74341 10.4058 5.54447 10.4058 5.34177C10.4058 4.5535 10.4058 3.76523 10.4058 2.97697C10.4058 2.66166 10.5969 2.41767 10.895 2.34635C11.2696 2.25627 11.6556 2.53028 11.6632 2.90565C11.6747 3.38611 11.667 3.86658 11.667 4.3433C11.667 4.37708 11.667 4.41462 11.667 4.4484V4.45215Z" fill="#410EAD"/>
<path d="M3.47217 4.45191C3.47217 3.95643 3.47217 3.46094 3.47217 2.96546C3.47217 2.66892 3.65563 2.42494 3.93082 2.35362C4.32831 2.24851 4.71052 2.52253 4.73345 2.92793C4.73345 2.93919 4.73345 2.95045 4.73345 2.96171C4.73345 3.95267 4.73345 4.94739 4.73345 5.93836C4.73345 6.24616 4.5347 6.48639 4.23658 6.55771C3.86584 6.64404 3.48363 6.36627 3.47599 5.99091C3.46835 5.48041 3.47599 4.96616 3.47599 4.45566L3.47217 4.45191Z" fill="#410EAD"/>
<path d="M17.3428 4.44437C17.3428 3.94889 17.3428 3.44965 17.3428 2.95417C17.3428 2.63886 17.5721 2.37986 17.8779 2.33857C18.2524 2.28602 18.5811 2.55628 18.6002 2.9279C18.6002 2.93916 18.6002 2.95417 18.6002 2.96543C18.6002 3.95264 18.6002 4.93985 18.6002 5.92706C18.6002 6.22736 18.413 6.47134 18.1378 6.54266C17.7364 6.64777 17.3466 6.35874 17.3428 5.94959C17.3428 5.4466 17.3428 4.94361 17.3428 4.44062V4.44437Z" fill="#410EAD"/>
<path d="M1.26702 5.30025C1.26702 5.51045 1.26702 5.72066 1.26702 5.93086C1.2632 6.26118 1.03387 6.52394 0.728105 6.55772C0.338253 6.60276 0.0171993 6.34001 0.00573311 5.95338C-0.00191104 5.5142 -0.00191104 5.07503 0.00573311 4.6396C0.0133773 4.31303 0.261812 4.06154 0.582866 4.03151C0.896276 4.00524 1.18675 4.21544 1.25173 4.52324C1.2632 4.57954 1.2632 4.63585 1.2632 4.69215C1.2632 4.89485 1.2632 5.09755 1.2632 5.29649L1.26702 5.30025Z" fill="#410EAD"/>
<path d="M28.9921 5.30038C28.9921 5.54436 29.0074 5.78835 28.9921 6.02859C28.9692 6.34014 28.6711 6.58037 28.3576 6.56536C28.0213 6.55034 27.7499 6.29885 27.7461 5.97979C27.7385 5.5256 27.7423 5.0714 27.7461 4.61721C27.7461 4.30566 28.0213 4.0429 28.3424 4.03164C28.6711 4.02038 28.9539 4.25311 28.9921 4.56841C28.9921 4.59094 28.9998 4.61346 28.9998 4.63223C28.9998 4.85369 28.9998 5.07516 28.9998 5.29662C28.9998 5.29662 28.9959 5.29662 28.9921 5.29662V5.30038Z" fill="#410EAD"/>
<path d="M15.1296 5.30389C15.1296 5.51409 15.1296 5.7243 15.1296 5.9345C15.1296 6.24606 14.9385 6.48254 14.6442 6.5501C14.2735 6.63644 13.8874 6.36617 13.8798 5.99081C13.8683 5.52911 13.8722 5.06741 13.8798 4.60571C13.8874 4.2904 14.1741 4.03516 14.5028 4.03516C14.8315 4.03516 15.1143 4.2904 15.1258 4.60571C15.1334 4.83844 15.1258 5.07116 15.1258 5.30389H15.1296Z" fill="#410EAD"/>
</svg>
