<svg width="25" height="10" viewBox="0 0 25 10" fill="none" xmlns="http://www.w3.org/2000/svg">
<path d="M12.8644 7.59774H11.332V2.40383C11.3499 2.40123 11.3678 2.39341 11.3858 2.39341C12.1072 2.39341 12.8311 2.3882 13.5525 2.40383C13.9183 2.41165 14.2662 2.51584 14.5681 2.73985C14.9493 3.02116 15.1258 3.41448 15.159 3.88073C15.1948 4.39127 15.0848 4.85752 14.7037 5.21698C14.5655 5.34722 14.3916 5.43839 14.2279 5.55039C14.7293 6.21461 15.246 6.89966 15.7704 7.59514C15.7321 7.59774 15.7065 7.60035 15.6809 7.60035C15.0951 7.60035 14.5067 7.60035 13.9209 7.60035C13.8544 7.60035 13.8211 7.5769 13.7879 7.5222C13.5065 7.06897 13.2225 6.61835 12.9386 6.16772C12.9181 6.13647 12.9002 6.10781 12.8644 6.05311V7.59514V7.59774ZM12.8644 4.74552C13.0818 4.74031 13.2916 4.72989 13.486 4.64393C13.8288 4.49025 13.9107 3.93804 13.6216 3.70361C13.4016 3.52649 13.133 3.5317 12.8669 3.51867V4.74552H12.8644Z" fill="#410EAD"/>
<path d="M18.4025 2.39355C18.4562 2.39355 18.4894 2.39355 18.5227 2.39355C19.0727 2.39355 19.6227 2.39355 20.1727 2.39355C20.2546 2.39355 20.2955 2.42221 20.3339 2.49254C20.4976 2.79729 20.6639 3.09945 20.8327 3.4016C20.8481 3.43025 20.866 3.45891 20.8864 3.49798C21.0348 3.26355 21.1781 3.03954 21.3239 2.81292C21.3929 2.70613 21.4646 2.59933 21.5285 2.48993C21.5669 2.4196 21.6129 2.39355 21.6948 2.39616C22.2474 2.39876 22.8025 2.39616 23.3551 2.39616H23.4727C23.442 2.44304 23.4216 2.4717 23.4011 2.50035C22.8818 3.2375 22.3599 3.97205 21.8381 4.70659C21.792 4.77171 21.792 4.81599 21.8355 4.88371C22.3906 5.75371 22.9432 6.62631 23.4957 7.4989C23.5137 7.53016 23.5316 7.56142 23.5546 7.60049C23.5137 7.60049 23.4855 7.6057 23.4574 7.6057C22.9074 7.6057 22.3574 7.6057 21.8074 7.6057C21.7434 7.6057 21.7076 7.58747 21.6769 7.52756C21.4288 7.07433 21.1755 6.6237 20.9248 6.17308C20.9095 6.14442 20.8915 6.11577 20.8685 6.07409C20.8429 6.10796 20.8199 6.13661 20.7995 6.16526C20.4797 6.6211 20.1574 7.07433 19.8401 7.53016C19.8018 7.58486 19.7608 7.6057 19.6943 7.6057C19.1418 7.60309 18.5866 7.6057 18.0341 7.6057H17.9292C17.9625 7.55881 17.9855 7.52235 18.0111 7.48848C18.6429 6.61849 19.2748 5.7485 19.9118 4.88111C19.9681 4.80297 19.9629 4.75608 19.9118 4.68315C19.4334 3.96163 18.9601 3.24011 18.4843 2.51598C18.4639 2.48212 18.4434 2.44825 18.4076 2.39616L18.4025 2.39355Z" fill="#410EAD"/>
<path d="M4.61643 3.11826C4.35038 3.55586 4.08433 3.99086 3.81316 4.43627C3.78502 4.3972 3.75944 4.36855 3.73642 4.33729C3.3706 3.8502 2.67734 3.67047 2.16827 3.94397C1.7564 4.16538 1.57478 4.53525 1.56198 4.9963C1.54919 5.56414 1.93036 6.07467 2.44199 6.16584C2.97409 6.25961 3.41153 6.07467 3.74921 5.64749C3.76456 5.62665 3.77991 5.60581 3.79781 5.58498C3.79781 5.58498 3.80293 5.58498 3.81572 5.57716C4.07921 6.01216 4.34526 6.44976 4.61131 6.88476C3.75177 7.85113 2.07873 8.10379 0.889189 7.03844C-0.26454 5.99392 -0.300355 4.14714 0.809886 3.04532C1.92013 1.94611 3.65456 2.06072 4.61643 3.11826Z" fill="#410EAD"/>
<path d="M9.73794 3.75389V7.59593H8.20816V3.76171H7.04932V2.40723H10.9045V3.7565H9.7405L9.73794 3.75389Z" fill="#410EAD"/>
<path d="M5.09473 2.40234H6.61939V7.59626H5.09473V2.40234Z" fill="#410EAD"/>
<path d="M16.123 2.39941H17.6426V7.59332H16.123V2.39941Z" fill="#410EAD"/>
<path d="M6.81904 0.989999C6.80881 1.54221 6.37137 1.96939 5.82904 1.95897C5.30461 1.94855 4.88252 1.49532 4.89787 0.953533C4.91066 0.41695 5.3481 -0.0102325 5.87252 0.000186612C6.40462 0.0106057 6.83183 0.456022 6.8216 0.989999H6.81904Z" fill="#410EAD"/>
<path d="M16.8853 9.99786C16.3558 9.99786 15.9235 9.56286 15.9209 9.02628C15.9209 8.48449 16.343 8.04949 16.8751 8.04689C17.4123 8.04428 17.8472 8.47928 17.8472 9.02107C17.8472 9.55765 17.4149 9.99786 16.8853 10.0005V9.99786Z" fill="#410EAD"/>
<path d="M24.3809 2.37891C24.7263 2.37891 25 2.65501 25 3.00405C25 3.35309 24.7263 3.63441 24.386 3.63701C24.0407 3.63701 23.7593 3.3557 23.7593 3.00405C23.7593 2.65762 24.0356 2.37891 24.3809 2.37891ZM24.9181 3.00405C24.9181 2.7019 24.6802 2.45965 24.3835 2.45965C24.0867 2.45965 23.8463 2.7019 23.8437 3.00145C23.8437 3.3036 24.0893 3.55366 24.386 3.55366C24.6828 3.55366 24.9181 3.3062 24.9181 3.00405Z" fill="#410EAD"/>
<path d="M24.6521 3.34687C24.5984 3.34687 24.5498 3.37553 24.537 3.29217C24.5089 3.07598 24.4782 3.05514 24.2531 3.08379V3.34687C24.2096 3.34687 24.1789 3.34948 24.1431 3.35208V2.66442C24.2505 2.66442 24.3554 2.65922 24.4603 2.66442C24.5498 2.66963 24.6317 2.7035 24.6547 2.80508C24.6777 2.90667 24.6419 2.98481 24.5242 3.02128C24.6573 3.09682 24.6547 3.21403 24.6521 3.34687ZM24.2556 2.74778V2.99263C24.3247 2.99002 24.3938 3.00044 24.4449 2.977C24.4859 2.95876 24.5293 2.89885 24.5293 2.85457C24.5293 2.82071 24.4756 2.76601 24.4347 2.75299C24.381 2.73475 24.3196 2.74778 24.2531 2.74778H24.2556Z" fill="#410EAD"/>
</svg>
