<svg width="15" height="15" viewBox="0 0 15 15" fill="none" xmlns="http://www.w3.org/2000/svg">
<path d="M7.52357 12.1459C8.50467 12.0425 9.43188 11.8056 10.2405 11.1981C11.9267 9.93161 12.5456 7.74318 11.765 5.72707C11.0017 3.75619 9.08687 2.76536 7.18503 2.90968C5.01365 3.07553 3.32097 4.61347 2.94362 6.67912C2.89833 6.93113 2.87893 7.18961 2.84227 7.4847C1.99916 7.4847 1.17115 7.4847 0.34098 7.4847C0.226697 7.4847 0.11457 7.46963 0.00459963 7.46316C-0.126934 4.15898 2.57058 0.258146 7.06859 0.0125937C11.3747 -0.224343 14.9433 2.90537 14.9994 7.42655C15.0533 11.8228 11.4286 15.0214 7.53003 14.9999C7.53003 14.0478 7.53003 13.0958 7.53003 12.1416L7.52357 12.1502V12.1459Z" fill="#410EAD"/>
<path d="M4.56958 12.1481V9.25098H7.52369C7.52369 10.231 7.52369 11.1874 7.52369 12.1459L7.53016 12.1373C6.53827 12.1373 5.54853 12.1373 4.55664 12.1373L4.56742 12.1481H4.56958Z" fill="#410EAD"/>
<path d="M2.37207 12.1528C3.10521 12.1528 3.83619 12.1506 4.56932 12.1485L4.55854 12.1377C4.55854 12.8485 4.55854 13.5572 4.55854 14.3003H2.3807V12.142L2.37207 12.1528Z" fill="#410EAD"/>
<path d="M2.38057 12.1415H0.52832V10.2891H2.37194C2.37194 10.9137 2.37194 11.5341 2.37194 12.1522L2.38057 12.1415Z" fill="#410EAD"/>
</svg>
