<svg width="16" height="14" viewBox="0 0 16 14" fill="none" xmlns="http://www.w3.org/2000/svg">
<path d="M0 2.89316C0 2.89316 0 2.88529 0 2.88136C0.0208768 2.87154 0.0417536 2.86367 0.0605428 2.85385C1.52401 1.95563 2.98747 1.05545 4.45094 0.157237C4.53653 0.104169 4.62213 0.0530674 4.70772 0C5.80585 0.862837 6.90397 1.72371 8 2.58654C9.1023 1.72174 10.1962 0.860871 11.2923 0C12.8622 0.963075 14.4259 1.92615 16 2.89316C14.9123 3.71275 13.833 4.52645 12.7453 5.34605C13.833 6.16565 14.9123 6.97935 16 7.79894C14.428 8.76398 12.8622 9.72706 11.2923 10.6921C10.1942 9.82926 9.09812 8.96839 8 8.10556C6.89979 8.96839 5.80585 9.82926 4.70772 10.6921C4.68685 10.6783 4.66806 10.6685 4.64927 10.6567C3.17328 9.75065 1.69729 8.8426 0.221294 7.93653C0.148225 7.89132 0.0730689 7.85005 0 7.80681C0 7.80288 0 7.79894 0 7.79501C0.0146138 7.78519 0.0313151 7.77732 0.0459289 7.76553C1.09812 6.97345 2.15031 6.18137 3.20042 5.38733C3.21712 5.37553 3.23173 5.36177 3.25052 5.34802C3.22965 5.33229 3.21294 5.31657 3.19624 5.30478C2.4405 4.73479 1.68476 4.16481 0.929019 3.59679C0.620042 3.36487 0.311065 3.13294 0.00208753 2.90102L0 2.89316ZM12.7432 5.34408C12.7203 5.33033 12.7077 5.3205 12.6931 5.31264C11.142 4.41246 9.59081 3.51031 8.04175 2.60817C8.01461 2.59244 7.99582 2.58851 7.96451 2.6062C6.41127 3.51031 4.85595 4.41246 3.30271 5.31657C3.29019 5.32443 3.27975 5.33426 3.26514 5.34605C3.29436 5.36374 3.31733 5.3775 3.34029 5.39126C4.87683 6.28358 6.41336 7.17589 7.94989 8.07018C7.99374 8.09573 8.02088 8.0918 8.06054 8.07018C9.41336 7.28203 10.7683 6.49584 12.1211 5.70966C12.3257 5.58977 12.5324 5.46987 12.7453 5.34605L12.7432 5.34408Z" fill="#410EAD"/>
<path d="M8.0002 14.0003C7.95219 13.9728 7.90626 13.9433 7.85824 13.9158C6.3572 13.0687 4.85824 12.2216 3.3572 11.3764C3.31127 11.3509 3.29248 11.3234 3.29248 11.2703C3.29666 10.9932 3.29248 10.718 3.29248 10.4409V10.3642C3.77056 10.6591 4.2382 10.944 4.70584 11.233C5.80605 10.3741 6.90417 9.51712 8.00647 8.65625C8.02317 8.66804 8.03987 8.67984 8.05448 8.69163C9.12129 9.52302 10.186 10.3564 11.2528 11.1897C11.2967 11.2251 11.3259 11.2271 11.3739 11.1976C11.7998 10.9323 12.2278 10.6708 12.6557 10.4094C12.6745 10.3976 12.6933 10.3878 12.7225 10.3701C12.7225 10.3996 12.7267 10.4193 12.7267 10.4389C12.7267 10.72 12.7267 10.9991 12.7267 11.2801C12.7267 11.3253 12.7121 11.3489 12.6704 11.3725C11.1443 12.2314 9.61816 13.0923 8.09415 13.9532C8.0691 13.9669 8.04822 13.9846 8.02526 14.0003H8.0002Z" fill="#410EAD"/>
</svg>
