<svg width="20" height="15" viewBox="0 0 20 15" fill="none" xmlns="http://www.w3.org/2000/svg">
<path d="M0 7.73784C0.0528299 7.44894 0.0880499 7.15756 0.161006 6.87359C0.563519 5.32288 1.42138 4.09071 2.91571 3.39437C4.54086 2.63631 6.1006 2.85607 7.54713 3.88823C7.94461 4.1722 8.26662 4.53024 8.5509 4.94755C8.22637 5.15991 7.90939 5.36486 7.60751 5.5624C7.36851 5.32041 7.16223 5.07102 6.91317 4.87101C5.56223 3.7944 3.77356 3.87342 2.51319 5.05373C1.28804 6.19948 0.857857 8.02181 1.44905 9.56758C1.96225 10.9133 3.35344 11.906 4.81507 11.9578C5.28299 11.9751 5.75091 11.9603 6.23141 11.9603V8.54036H5.56978V7.39461H14.4402V8.52554H13.776V11.943C13.7911 11.9529 13.8012 11.9653 13.8112 11.9653C14.7194 11.9455 15.6351 12.0838 16.5307 11.8467C17.8917 11.4862 18.8653 10.18 18.8251 8.79469C18.7848 7.36004 17.7458 6.11305 16.3471 5.82168C16.1509 5.7797 15.9496 5.7476 15.7483 5.74513C15.532 5.74513 15.4364 5.66858 15.3886 5.45376C15.1899 4.52531 14.7798 3.69069 14.1307 2.982C13.1219 1.88071 11.8641 1.27326 10.3572 1.17449C8.89303 1.08066 7.60247 1.51525 6.46286 2.4116C6.39997 2.46099 6.28424 2.49803 6.20877 2.48074C4.42513 2.04615 2.83269 2.39925 1.43144 3.56969C1.40628 3.58945 1.37861 3.6092 1.34087 3.63636C1.08427 3.35487 0.830184 3.07584 0.56855 2.78446C1.03647 2.36222 1.54465 2.02392 2.10313 1.75971C3.31067 1.18684 4.57859 1.01399 5.90437 1.23869C5.99494 1.25351 6.11317 1.22141 6.18865 1.16955C7.00625 0.618902 7.89681 0.250979 8.87542 0.095414C10.576 -0.176207 12.1685 0.129984 13.6201 1.04115C14.9307 1.86589 15.8364 3.01411 16.332 4.46604C16.3798 4.60926 16.4603 4.66112 16.6012 4.69322C18.7974 5.1846 20.2389 7.19954 19.9672 9.39226C19.7332 11.2689 18.2163 12.8246 16.3144 13.0591C15.5622 13.153 14.7949 13.111 14.0351 13.1308C13.9521 13.1308 13.8691 13.1308 13.7685 13.1308V15H6.25657V13.1308C6.14839 13.1308 6.06789 13.1332 5.98487 13.1308C5.35595 13.0987 4.71192 13.1382 4.10061 13.0221C2.29936 12.6789 1.04654 11.6344 0.362262 9.96513C0.183647 9.52807 0.120754 9.04162 0.00503153 8.57987C0.00503153 8.29837 0.00503153 8.01687 0.00503153 7.73537L0 7.73784ZM7.43392 8.55024V13.8493H12.571V8.55024H7.43392Z" fill="#410EAD"/>
<path d="M6.44991 5.98483C6.12035 6.19965 5.80337 6.40707 5.48891 6.61449C4.93797 6.15521 4.57067 6.15521 4.10778 6.61943C3.79332 6.41448 3.47634 6.20706 3.13672 5.98729C3.5342 5.43911 4.05495 5.13786 4.72916 5.11811C5.45117 5.09835 6.01721 5.39714 6.44991 5.98483Z" fill="#410EAD"/>
<path d="M8.35742 9.96965V9.06836H11.6429V9.96965H8.35742Z" fill="#410EAD"/>
<path d="M8.35449 11.5751V10.6787H11.6425V11.5751H8.35449Z" fill="#410EAD"/>
<path d="M8.35742 12.2793H11.6455V13.1781H8.35742V12.2793Z" fill="#410EAD"/>
</svg>
