<svg width="17" height="7" viewBox="0 0 17 7" fill="none" xmlns="http://www.w3.org/2000/svg">
<path d="M10.3721 3.27181V2.79407H10.4185C11.2879 2.79407 12.1573 2.79407 13.0266 2.79407C13.0649 2.79407 13.0791 2.80653 13.0912 2.84184C13.1254 2.94778 13.1638 3.05163 13.2001 3.15549C13.2041 3.16795 13.2102 3.18042 13.2182 3.19703C13.2626 3.07241 13.305 2.95609 13.3433 2.83769C13.3554 2.80238 13.3715 2.79199 13.4058 2.79199C14.2712 2.79199 15.1345 2.79199 15.9998 2.79199H16.0482V3.26973H14.6181V3.03502C14.6181 3.03502 14.61 3.03502 14.608 3.03502C14.5838 3.10149 14.5576 3.16588 14.5354 3.23442C14.5253 3.26558 14.5092 3.27597 14.4769 3.27597C13.6297 3.27597 12.7825 3.27597 11.9334 3.27597C11.9031 3.27597 11.889 3.26766 11.8789 3.2365C11.8587 3.16795 11.8325 3.09941 11.8022 3.03294V3.27389H10.3701L10.3721 3.27181Z" fill="#410EAD"/>
<path d="M9.04033 5.59375C9.01209 5.73707 8.98184 5.87416 8.91931 6.00295C8.8951 6.05072 8.86686 6.07149 8.80837 6.07149C7.15033 6.07149 5.49027 6.07149 3.83223 6.07149H3.77979V5.59583H9.04033V5.59375Z" fill="#410EAD"/>
<path d="M9.04033 1.40828H3.77979V0.932617C3.7939 0.932617 3.80601 0.932617 3.82013 0.932617C5.49027 0.932617 7.16041 0.932617 8.83257 0.932617C8.86485 0.932617 8.88502 0.945081 8.90115 0.972083C8.96167 1.07179 8.9899 1.18603 9.01814 1.29819C9.02621 1.33351 9.03226 1.37089 9.04033 1.40828Z" fill="#410EAD"/>
<path d="M3.77783 0.475666V0H3.82826C4.98405 0 6.13983 0.00415428 7.29562 0C7.67281 0 8.00563 0.11632 8.31223 0.332342C8.37274 0.375962 8.42922 0.423737 8.48166 0.475666H3.77783Z" fill="#410EAD"/>
<path d="M3.77783 7.00008V6.52441H8.48771C8.47359 6.53688 8.46553 6.54726 8.45746 6.5535C8.20331 6.76952 7.92092 6.92323 7.59415 6.97931C7.5175 6.99177 7.43883 6.998 7.36017 6.998C6.17816 6.998 4.99817 6.998 3.81616 6.998C3.80405 6.998 3.79397 6.998 3.77783 6.998V7.00008Z" fill="#410EAD"/>
<path d="M8.79635 2.80836C8.74996 2.87483 8.7076 2.94753 8.65515 3.00984C8.58052 3.09501 8.49984 3.17186 8.41916 3.24872C8.40302 3.26533 8.37478 3.27364 8.35058 3.27364C7.57602 3.27364 6.80347 3.27364 6.02892 3.27364C5.6134 3.27364 5.19788 3.27364 4.78034 3.27364C4.76421 3.27364 4.75009 3.27364 4.73193 3.27364V2.7959H8.78627C8.78627 2.7959 8.79433 2.80213 8.79635 2.80628V2.80836Z" fill="#410EAD"/>
<path d="M8.79238 4.2043H4.72998V3.72656H4.77234C5.96443 3.72656 7.15653 3.72656 8.35064 3.72656C8.37283 3.72656 8.40107 3.73695 8.41922 3.75149C8.55033 3.86573 8.67337 3.98828 8.76212 4.14199C8.77221 4.16069 8.78028 4.17938 8.79238 4.20223V4.2043Z" fill="#410EAD"/>
<path d="M3.33236 5.59375V6.06734H0.0263672V5.59375H3.33236Z" fill="#410EAD"/>
<path d="M0.0244141 6.99788V6.52637H3.33041V6.99788H0.0244141Z" fill="#410EAD"/>
<path d="M0 0.475542V0.00195312H3.30398V0.475542H0Z" fill="#410EAD"/>
<path d="M0 0.932617H3.30398V1.40621H0V0.932617Z" fill="#410EAD"/>
<path d="M9.42188 1.40633V0.930664H9.46423C10.4385 0.930664 11.4107 0.930664 12.385 0.930664C12.4193 0.930664 12.4334 0.94105 12.4435 0.974284C12.4838 1.10514 12.5282 1.236 12.5705 1.36479C12.5746 1.37725 12.5786 1.38971 12.5826 1.40633H9.42188Z" fill="#410EAD"/>
<path d="M16.9754 0.932537V1.40613H13.8247C13.8429 1.34797 13.863 1.28981 13.8812 1.23165C13.9114 1.14233 13.9417 1.05093 13.9699 0.961618C13.978 0.938769 13.9881 0.928383 14.0103 0.932537C14.0163 0.932537 14.0224 0.932537 14.0305 0.932537C14.9946 0.932537 15.9588 0.932537 16.925 0.932537H16.9774H16.9754Z" fill="#410EAD"/>
<path d="M9.42188 0.475666V0C9.43599 0 9.45011 0 9.46222 0C10.3296 0 11.1949 0 12.0622 0C12.0945 0 12.1086 0.0103859 12.1187 0.041543C12.1631 0.17448 12.2115 0.30534 12.2579 0.436199C12.2619 0.448662 12.266 0.461126 12.27 0.475666H9.42188Z" fill="#410EAD"/>
<path d="M16.9758 0.00207679V0.475666H14.1519C14.1781 0.398811 14.2043 0.326111 14.2305 0.251334C14.2547 0.180711 14.283 0.112166 14.3031 0.041543C14.3132 0.00830873 14.3294 0 14.3636 0C15.1422 0 15.9208 0 16.7014 0C16.7801 0 16.8588 0 16.9374 0C16.9495 0 16.9616 0 16.9778 0L16.9758 0.00207679Z" fill="#410EAD"/>
<path d="M16.0501 1.86341V2.33907H13.5005C13.5025 2.32661 13.5045 2.31622 13.5086 2.30584C13.557 2.16874 13.6054 2.03373 13.6538 1.89456C13.6619 1.86964 13.674 1.86133 13.7002 1.86133C14.4707 1.86133 15.2432 1.86133 16.0138 1.86133H16.0481L16.0501 1.86341Z" fill="#410EAD"/>
<path d="M10.3735 1.86328H10.4179C11.1784 1.86328 11.9408 1.86328 12.7012 1.86328C12.7335 1.86328 12.7476 1.87367 12.7577 1.90482C12.8021 2.03776 12.8505 2.16862 12.8969 2.29948C12.9009 2.31194 12.905 2.32441 12.909 2.34102H10.3735V1.86328Z" fill="#410EAD"/>
<path d="M14.6196 6.998V6.52441H16.9998V6.998H14.6196Z" fill="#410EAD"/>
<path d="M16.9998 6.06746H14.6196V5.5918H16.9998V6.06746Z" fill="#410EAD"/>
<path d="M9.4458 6.06734V5.59375H11.7997V6.06734H9.4458Z" fill="#410EAD"/>
<path d="M9.4458 6.998V6.52441H11.7997V6.998H9.4458Z" fill="#410EAD"/>
<path d="M12.064 3.72852H14.3675C14.3634 3.74098 14.3614 3.75136 14.3594 3.76175C14.313 3.89676 14.2646 4.03386 14.2202 4.16887C14.2122 4.19587 14.2001 4.20418 14.1718 4.20418C13.5405 4.20418 12.9071 4.20418 12.2758 4.20418C12.2616 4.20418 12.2374 4.1938 12.2334 4.18341C12.1769 4.03386 12.1245 3.8843 12.066 3.72852H12.064Z" fill="#410EAD"/>
<path d="M7.55811 2.34078V1.86719H9.081C9.07697 1.91081 9.07898 1.95651 9.07092 2.00013C9.05074 2.10398 9.02452 2.20784 9.00032 2.31377C8.99628 2.33662 8.98418 2.34701 8.95998 2.34493C8.50008 2.34493 8.04019 2.34493 7.58029 2.34493C7.57424 2.34493 7.56819 2.34493 7.55811 2.34285V2.34078Z" fill="#410EAD"/>
<path d="M9.07697 5.1368H7.55811V4.66113C7.57223 4.66113 7.58433 4.66113 7.59845 4.66113C8.04826 4.66113 8.49605 4.66113 8.94586 4.66113C8.97813 4.66113 8.99427 4.67152 9.00233 4.70475C9.02654 4.82523 9.05276 4.9457 9.07495 5.06618C9.07898 5.08902 9.07495 5.11395 9.07495 5.14095L9.07697 5.1368Z" fill="#410EAD"/>
<path d="M14.0449 4.66321C14.0126 4.7546 13.9823 4.84184 13.9501 4.92908C13.9279 4.98932 13.9077 5.05164 13.8855 5.11187C13.8815 5.12434 13.8633 5.1368 13.8512 5.1368C13.4297 5.1368 13.0061 5.1368 12.5845 5.1368C12.5724 5.1368 12.5563 5.12434 12.5522 5.11395C12.4998 4.96855 12.4494 4.82315 12.3989 4.67775C12.3989 4.6736 12.3989 4.66944 12.3989 4.66113H14.0489L14.0449 4.66321Z" fill="#410EAD"/>
<path d="M16.0497 3.73047V4.20406H14.6216V3.73047H16.0497Z" fill="#410EAD"/>
<path d="M2.37829 4.20418H0.950195V3.72852H2.37829V4.20418Z" fill="#410EAD"/>
<path d="M2.38031 2.79785V3.27144H0.950195V2.79785H2.38031Z" fill="#410EAD"/>
<path d="M11.8016 3.73047V4.20406H10.3735V3.73047H11.8016Z" fill="#410EAD"/>
<path d="M0.950195 1.86523H2.37829V2.33882H0.950195V1.86523Z" fill="#410EAD"/>
<path d="M2.38024 5.13485H0.952148V4.65918H2.38024V5.13485Z" fill="#410EAD"/>
<path d="M16.0497 4.66113V5.13472H14.6216V4.66113H16.0497Z" fill="#410EAD"/>
<path d="M4.72998 1.86523H6.15807V2.33882H4.72998V1.86523Z" fill="#410EAD"/>
<path d="M6.15807 4.66113V5.13472H4.72998V4.66113H6.15807Z" fill="#410EAD"/>
<path d="M10.3721 5.13472V4.66113H11.8002V5.13472H10.3721Z" fill="#410EAD"/>
<path d="M13.7201 5.5918C13.6878 5.68735 13.6555 5.78082 13.6253 5.87221C13.6051 5.93037 13.5869 5.98853 13.5668 6.04461C13.5627 6.055 13.5466 6.06746 13.5345 6.06746C13.3267 6.06746 13.119 6.06746 12.9132 6.06746C12.9032 6.06746 12.885 6.05708 12.883 6.04877C12.8285 5.90129 12.7761 5.75381 12.7236 5.60634C12.7236 5.60218 12.7236 5.59803 12.7236 5.5918H13.7221H13.7201Z" fill="#410EAD"/>
<path d="M13.0445 6.52441H13.4056C13.3995 6.54311 13.3935 6.55973 13.3874 6.57634C13.341 6.7072 13.2966 6.83806 13.2482 6.96685C13.2442 6.97931 13.2321 6.98969 13.222 7.00008C13.2139 6.98969 13.2018 6.98139 13.1978 6.96892C13.1454 6.82352 13.0949 6.67605 13.0425 6.52441H13.0445Z" fill="#410EAD"/>
</svg>
