<svg width="15" height="21" viewBox="0 0 15 21" fill="none" xmlns="http://www.w3.org/2000/svg">
<path d="M7.61334 20.9979H7.2881C6.95244 20.8194 6.62303 20.6325 6.2832 20.4646C4.38806 19.5196 2.4971 18.5705 0.593625 17.6424C0.182908 17.443 -0.00681397 17.1763 0.00778002 16.7122C0.0307134 15.9311 0.022374 15.1479 0.0140346 14.3647C0.00986488 14.014 0.15372 13.7956 0.464364 13.6318C0.80211 13.4555 1.18781 13.3484 1.50471 13.0124C1.18572 12.8465 0.923032 12.6827 0.641576 12.5735C0.172484 12.3888 -0.0193231 12.078 0.00152545 11.5656C0.0348832 10.8391 0.0265437 10.1105 0.00361031 9.38186C-0.00889883 8.94721 0.132871 8.65743 0.541503 8.48105C0.864656 8.34247 1.16488 8.15139 1.55057 7.94351C1.1753 7.74193 0.902183 7.56344 0.606134 7.44166C0.164144 7.25687 -0.0130685 6.9524 0.00569517 6.46735C0.0327983 5.74083 0.0307134 5.0101 0.00569517 4.28357C-0.00889883 3.81952 0.172484 3.53815 0.593625 3.35336C1.1065 3.12659 1.59853 2.85571 2.10098 2.60374C3.82932 1.73653 5.55767 0.869313 7.2881 0C7.43195 0 7.57789 0 7.72175 0C7.90938 0.109189 8.09285 0.226777 8.28674 0.323368C10.282 1.31657 12.2709 2.32237 14.2807 3.28617C14.8207 3.54445 15.0333 3.88671 14.9958 4.47465C14.9583 5.07309 14.9625 5.67783 14.9958 6.27837C15.025 6.83902 14.8457 7.21488 14.3036 7.42906C14.0305 7.53825 13.5719 7.62434 13.5739 7.90151C13.5781 8.21858 14.0368 8.30887 14.3245 8.42646C14.8394 8.63854 15.0229 8.9892 14.9958 9.53305C14.9645 10.1693 14.9625 10.8097 14.9958 11.446C15.025 11.9982 14.8144 12.3342 14.3099 12.5462C14.0347 12.6617 13.5719 12.7436 13.5656 13.0061C13.5573 13.3421 14.0326 13.3967 14.3141 13.5163C14.8207 13.7305 15.0271 14.0581 14.9958 14.6124C14.9583 15.2844 14.9729 15.9605 14.9896 16.6345C15.0021 17.0902 14.8207 17.3842 14.41 17.5836C13.2675 18.1338 12.1354 18.7049 10.9991 19.2698C9.86498 19.8346 8.70997 20.3596 7.61334 21V20.9979ZM5.17822 14.8875C4.71955 14.9526 4.34845 15.2298 3.93565 15.4083C3.82932 15.4545 3.65002 15.4755 3.68547 15.6392C3.70215 15.7169 3.83558 15.782 3.92939 15.8282C5.01352 16.3679 6.09973 16.9012 7.18386 17.4388C7.36941 17.5311 7.55287 17.5794 7.75302 17.4808C8.88718 16.9222 10.0234 16.3679 11.1576 15.8072C11.3786 15.698 11.4328 15.5783 11.1743 15.4377C10.3883 15.0051 9.60646 14.5683 8.7475 15.2886C8.66619 15.3558 8.54735 15.3747 8.45979 15.4377C7.77595 15.929 7.11297 15.8954 6.41037 15.4419C6.03718 15.2004 5.63064 14.982 5.17822 14.8875ZM9.83788 6.17548C10.3195 6.07259 10.6781 5.81432 11.07 5.63164C11.1764 5.58124 11.3473 5.54765 11.316 5.39226C11.2994 5.31247 11.1722 5.24108 11.0805 5.19488C9.99841 4.64893 8.9122 4.10719 7.82599 3.56544C7.6592 3.48145 7.49033 3.42896 7.30686 3.51925C6.15602 4.09249 5.00518 4.66363 3.85434 5.23688C3.65836 5.33557 3.59582 5.44056 3.83558 5.56864C4.55485 5.955 5.2637 6.42326 6.06637 5.74503C6.13309 5.68833 6.23525 5.67363 6.30822 5.62114C7.1088 5.0395 7.89062 5.06889 8.70372 5.62114C9.05814 5.86051 9.4772 6.0033 9.83788 6.17548ZM8.23879 10.4444C9.57935 11.3431 10.0484 11.3746 11.1409 10.6942C11.2326 10.6375 11.4161 10.6186 11.3035 10.4276C11.1722 10.205 9.8212 9.70313 9.57102 9.81022C9.14362 9.9929 8.73082 10.2071 8.23671 10.4444H8.23879ZM3.67296 10.5157C4.71539 11.3284 5.3471 11.362 6.39995 10.6774C6.56882 10.5682 6.66473 10.501 6.43748 10.3373C5.49304 9.65063 4.62574 9.70103 3.67296 10.5157Z" fill="#410EAD"/>
</svg>
