<svg width="12" height="15" viewBox="0 0 12 15" fill="none" xmlns="http://www.w3.org/2000/svg">
<path d="M0.0288777 12.1079C0.021002 12.0751 0.00262525 12.0423 0.00262525 12.0096C0.00262525 10.2918 0.00262525 8.5767 0.00262525 6.8589C0 5.59991 0 4.33819 0 3.07647C0 3 0.0183767 2.9645 0.0892584 2.93719C1.74579 2.3036 3.40232 1.66727 5.05885 1.03095C5.94356 0.689577 6.82564 0.350933 7.71035 0.0122895C7.74973 -0.0040965 7.80486 -0.0040965 7.84423 0.0122895C9.20674 0.462904 10.5719 0.918981 11.9344 1.3696C11.9842 1.38598 12 1.40783 12 1.45972C12 3.15021 12 4.84069 12 6.53118C12 8.30087 12 10.0678 12 11.8375C12 12.4301 12 13.0228 12 13.6154C12 13.6673 11.9869 13.6919 11.937 13.7082C10.5692 14.1343 9.20149 14.5658 7.83373 14.9918C7.79961 15.0027 7.7576 15.0027 7.7261 14.9918C5.8648 14.2981 4.0035 13.6017 2.13958 12.9053C1.47014 12.6541 0.8007 12.4056 0.131262 12.1543C0.107635 12.1461 0.0866331 12.1243 0.0656312 12.1106C0.11026 12.1161 0.15489 12.1243 0.199519 12.1297C0.761321 12.2007 1.3205 12.2717 1.8823 12.3427C2.52549 12.4219 3.16867 12.5011 3.80923 12.5831C4.37103 12.6541 4.93021 12.7251 5.49201 12.7961C6.09845 12.8726 6.70225 12.949 7.30868 13.0228C7.46095 13.0419 7.61584 13.0583 7.77335 13.0774V2.45107C7.7366 2.45926 7.70772 2.46472 7.67884 2.47019C7.31656 2.55758 6.95428 2.64497 6.59199 2.73236C5.32925 3.03823 4.06651 3.34684 2.80376 3.64998C2.73026 3.66636 2.70925 3.6964 2.70925 3.77287C2.71188 4.46928 2.70925 5.16568 2.70925 5.86482C2.70925 7.50888 2.70925 9.15294 2.70925 10.797C2.70925 10.8571 2.6935 10.8871 2.63837 10.9117C1.87705 11.2558 1.11835 11.5999 0.359659 11.9467C0.249398 11.9986 0.141763 12.0533 0.031503 12.1079H0.0288777Z" fill="#410EAD"/>
</svg>
