<svg width="19" height="15" viewBox="0 0 19 15" fill="none" xmlns="http://www.w3.org/2000/svg">
<path d="M15.7733 8.98664C15.7733 8.55447 15.7733 8.12229 15.7733 7.69012C15.7733 5.37778 15.7845 3.06544 15.7622 0.755325C15.7578 0.238501 15.9134 0.0469197 16.4359 0.0781073C17.0496 0.115978 17.6677 0.11375 18.2814 0.0781073C18.8239 0.044692 19.0062 0.238501 18.9995 0.790968C18.9751 3.25702 18.9884 5.72307 18.9884 8.18913C18.9884 10.2141 18.9728 12.2413 18.9995 14.2663C19.0084 14.8232 18.8172 15.0103 18.2769 14.9814C17.641 14.9479 17.0007 14.939 16.367 14.9858C15.8512 15.0237 15.5732 14.7942 15.2998 14.3955C13.4832 11.749 11.6445 9.11807 9.81015 6.48272C9.68786 6.30673 9.54778 6.13965 9.29209 5.80995C9.25652 6.27554 9.21872 6.56514 9.21649 6.85251C9.21205 9.22946 9.21649 11.6086 9.21649 13.9856C9.21649 14.9747 9.21427 14.9747 8.26043 14.9747C7.77794 14.9747 7.28657 14.9279 6.81076 14.9858C6.10816 15.0727 5.9503 14.7608 5.96586 14.1237C6.00143 12.5821 5.9792 11.0406 5.9792 9.49901C5.9792 6.61415 5.99476 3.72929 5.96586 0.84666C5.95919 0.225135 6.18375 0.140483 6.75517 0.0602858C8.59171 -0.200354 9.7679 0.418944 10.7217 2.08971C11.9491 4.23943 13.5099 6.19757 14.9307 8.23591C15.1286 8.51882 15.3509 8.78392 15.5599 9.05793C15.6288 9.03565 15.6978 9.01337 15.7689 8.99109L15.7733 8.98664Z" fill="#410EAD"/>
<path d="M3 0.314171C3 0.140659 2.77614 0 2.5 0C2.22386 0 2 0.140659 2 0.314171V14.6858C2 14.8593 2.22386 15 2.5 15C2.77614 15 3 14.8593 3 14.6858V0.314171Z" fill="#410EAD"/>
<path d="M1 0.314171C1 0.140659 0.776142 0 0.5 0C0.223857 0 0 0.140659 0 0.314171V14.6858C0 14.8593 0.223857 15 0.5 15C0.776142 15 1 14.8593 1 14.6858V0.314171Z" fill="#410EAD"/>
<path d="M5 0.314171C5 0.140659 4.77614 0 4.5 0C4.22386 0 4 0.140659 4 0.314171V14.6858C4 14.8593 4.22386 15 4.5 15C4.77614 15 5 14.8593 5 14.6858V0.314171Z" fill="#410EAD"/>
</svg>
