<svg width="28" height="5" viewBox="0 0 28 5" fill="none" xmlns="http://www.w3.org/2000/svg">
<path d="M2.84348 4.98454C2.43483 4.98454 2.0226 5.0044 1.61396 4.98454C0.828929 4.94482 0.115592 3.96178 0.0152228 2.87448C-0.110239 1.51411 0.552914 0.302683 1.52076 0.0842299C1.58528 0.0693353 1.65339 0.0693359 1.7215 0.0693359C2.44917 0.0693359 3.17685 0.0693359 3.90452 0.0693359C4.88312 0.0693359 5.65381 1.14671 5.68249 2.49715C5.71117 3.80787 4.91538 5.00937 3.92603 4.99944C3.56399 4.99944 3.20553 4.99944 2.84348 4.99944V4.98951V4.98454ZM2.85065 0.913361C2.71802 0.913361 2.5818 0.913361 2.44917 0.913361C2.1624 0.923291 1.87205 0.883571 1.59245 0.953079C1.05476 1.08217 0.585176 1.7971 0.685545 2.82483C0.757237 3.54473 1.26984 4.15541 1.86847 4.16534C2.52086 4.17527 3.17685 4.18024 3.82925 4.16534C4.53183 4.15045 5.02292 3.43054 5.02292 2.46736C5.02292 1.72263 4.52466 0.873643 3.80774 0.913361C3.49229 0.933221 3.17326 0.913361 2.85423 0.913361H2.85065Z" fill="#410EAD"/>
<path d="M27.7598 2.08523C27.62 2.39305 27.5088 2.65122 27.3834 2.88954C27.3547 2.94415 27.2651 2.94912 27.2006 2.94912C26.3331 2.94912 25.4656 2.94912 24.5981 2.94912C24.5336 2.94912 24.4691 2.94912 24.401 2.94912C24.5229 3.67398 24.9925 4.15557 25.5732 4.16054C26.3689 4.1655 27.1611 4.16054 27.9999 4.16054C27.8673 4.44354 27.749 4.69674 27.6271 4.94499C27.6092 4.97974 27.5519 4.98967 27.5124 4.98967C26.7776 4.98967 26.0463 5.00457 25.3115 4.97478C24.5121 4.94499 23.7988 3.96691 23.6948 2.86968C23.5729 1.57882 24.1967 0.302848 25.2183 0.0695002C25.247 0.0645354 25.2792 0.0595703 25.3079 0.0595703C26.1754 0.0595703 27.0428 0.0595703 27.9426 0.0595703C27.8135 0.342567 27.6988 0.605704 27.5698 0.848982C27.5447 0.898631 27.4622 0.903596 27.4049 0.903596C26.774 0.903596 26.1467 0.903596 25.5158 0.903596C24.9745 0.908561 24.5444 1.36533 24.401 2.07034H27.7634L27.7598 2.08523Z" fill="#410EAD"/>
<path d="M10.1489 4.99952C9.81197 4.99952 9.5252 4.99952 9.23843 4.99952C9.19541 4.99952 9.14165 4.96973 9.10938 4.93001C8.46057 4.15053 7.81175 3.37105 7.13426 2.55185C7.23105 2.55185 7.29557 2.55185 7.36009 2.55185C7.90854 2.55185 8.46057 2.55185 9.00901 2.55185C9.39257 2.55185 9.64349 2.2192 9.64349 1.72271C9.64349 1.24112 9.39615 0.923374 9.0126 0.918409C8.31002 0.918409 7.60743 0.918409 6.90485 0.918409C6.85825 0.918409 6.81165 0.928338 6.75071 0.933303V4.98462H6.09473V0.0644531C6.15925 0.0644531 6.22019 0.0644531 6.27754 0.0644531C7.22388 0.0644531 8.1738 0.0644531 9.12014 0.0644531C9.76178 0.0644531 10.2636 0.719815 10.3102 1.61349C10.3532 2.5022 9.91592 3.25189 9.27786 3.36608C9.12731 3.39091 8.97317 3.40084 8.79035 3.4207C9.23843 3.94201 9.67217 4.44346 10.1489 4.99952Z" fill="#410EAD"/>
<path d="M13.9562 3.27185C13.6157 2.51222 13.293 1.80225 12.9633 1.07242C12.5474 1.98099 12.1388 2.86969 11.7337 3.75344C11.5688 4.11587 11.4075 4.48327 11.2319 4.83577C11.1925 4.91521 11.1028 4.98472 11.0347 4.98969C10.8232 5.00955 10.6082 4.99465 10.3716 4.99465C10.5759 4.54781 10.7731 4.12084 10.9738 3.69386C11.4792 2.60159 11.9847 1.51429 12.4901 0.42202C12.7518 -0.143973 13.1783 -0.139007 13.44 0.426986C14.1175 1.88665 14.795 3.34135 15.4689 4.80102C15.494 4.85563 15.5155 4.91025 15.5513 4.99465C15.2968 4.99465 15.0602 4.99465 14.8237 4.99465C14.7878 4.99465 14.752 4.945 14.7233 4.91025C14.7054 4.89039 14.691 4.85563 14.6839 4.82585C14.5261 4.20524 14.2107 4.03147 13.7519 4.10594C13.3827 4.16552 13.0063 4.11091 12.6335 4.12084C12.5295 4.12084 12.4686 4.07615 12.4148 3.95203C12.3216 3.72861 12.2177 3.51512 12.1029 3.27185H13.9526H13.9562Z" fill="#410EAD"/>
<path d="M19.5513 4.1655C19.4295 4.43361 19.3255 4.67688 19.2072 4.90527C19.1785 4.95988 19.1033 4.98967 19.0495 4.98967C18.3218 4.98967 17.5941 5.00457 16.8665 4.97478C16.0528 4.94002 15.3466 3.95698 15.2462 2.84485C15.1315 1.57385 15.7409 0.312777 16.7518 0.0744643C16.7804 0.0694994 16.8127 0.0595703 16.8414 0.0595703C17.6622 0.0595703 18.4795 0.0595703 19.3004 0.0595703C19.3542 0.0595703 19.4115 0.0595703 19.494 0.0595703C19.3685 0.337602 19.261 0.595775 19.1355 0.834088C19.1068 0.888702 19.0172 0.903596 18.9563 0.903596C18.3326 0.908561 17.7088 0.903596 17.0851 0.903596C16.4506 0.908561 15.9918 1.47952 15.9094 2.34837C15.8305 3.17253 16.2571 3.97188 16.8557 4.10593C16.9883 4.13572 17.121 4.15061 17.2572 4.15061C18.0135 4.15061 18.7699 4.15061 19.5549 4.15061L19.5513 4.1655Z" fill="#410EAD"/>
<path d="M19.9097 0.0693359H20.5728V4.16037H23.799C23.6735 4.43841 23.566 4.67672 23.4477 4.91007C23.4226 4.95972 23.3581 4.98951 23.3115 4.98951C22.2898 4.98951 21.2718 4.98951 20.2502 4.98951C20.0387 4.98951 19.9133 4.84056 19.9133 4.57246C19.9061 3.07804 19.9133 1.58362 19.9133 0.0693359H19.9097Z" fill="#410EAD"/>
</svg>
