<svg width="15" height="16" viewBox="0 0 15 16" fill="none" xmlns="http://www.w3.org/2000/svg">
<path d="M0 10.4576C0.00710694 10.4024 0.0195441 10.3471 0.0230976 10.2919C0.0692927 9.38402 0.270064 8.513 0.595207 7.67145C1.01985 6.57578 1.62571 5.59611 2.39326 4.7251C3.23721 3.76569 4.21797 2.99595 5.34442 2.42694C5.97161 2.11205 6.62545 1.8745 7.30771 1.72166C7.66662 1.64063 8.03085 1.58539 8.39685 1.55777C8.70956 1.53383 9.02227 1.5283 9.33497 1.54856C10.0226 1.59091 10.6906 1.73455 11.332 2.00156C11.3409 2.00524 11.3516 2.01077 11.3658 2.01813C11.3587 2.04023 11.3516 2.06233 11.3445 2.08443C11.1419 2.65897 10.8878 3.20772 10.5947 3.73807C10.3637 4.15608 10.1096 4.55752 9.80758 4.92398C9.49132 5.30884 9.13953 5.65688 8.73088 5.93863C8.50168 6.09699 8.26182 6.22958 7.99531 6.30692C7.82119 6.35664 7.64352 6.38242 7.46407 6.34191C7.26152 6.29771 7.11227 6.17986 7.01633 5.99019C6.94171 5.84103 6.9115 5.68082 6.90617 5.51509C6.89374 5.21125 6.95059 4.91661 7.03765 4.6275C7.17801 4.15977 7.39122 3.72702 7.64707 3.31637C7.85673 2.98122 8.09126 2.66633 8.35599 2.37722C8.36487 2.36801 8.37198 2.35881 8.38442 2.34223C8.32578 2.33118 8.27604 2.34776 8.22629 2.35696C8.00242 2.40116 7.78033 2.44904 7.55823 2.49507C7.51204 2.50428 7.48006 2.52638 7.45163 2.56505C6.62367 3.62574 5.92364 4.77113 5.33909 5.99387C4.78297 7.15768 4.34234 8.36937 4.01009 9.62157C3.82531 10.3158 3.67607 11.0192 3.56236 11.7301C3.48596 12.2015 3.42555 12.6747 3.38113 13.1517C3.33671 13.6323 3.30651 14.1129 3.29229 14.5954C3.27985 15.0355 3.28341 15.4738 3.29762 15.9139C3.29762 15.9397 3.29762 15.9636 3.29762 16.0004C3.26209 15.9857 3.23366 15.9746 3.20523 15.9618C2.22092 15.5216 1.44449 14.8293 0.868824 13.8938C0.476165 13.2566 0.227422 12.5606 0.101274 11.8166C0.060409 11.5772 0.0319813 11.3378 0.0230976 11.0947C0.0213209 11.0395 0.00888368 10.9843 0 10.929C0 10.7725 0 10.6178 0 10.4613V10.4576ZM9.54285 3.72334C9.54285 3.63126 9.53574 3.54287 9.50376 3.45632C9.44158 3.28691 9.31187 3.18931 9.13775 3.18194C9.00627 3.17642 8.88546 3.21141 8.76819 3.26665C8.56742 3.36057 8.39685 3.49868 8.24405 3.66257C7.97932 3.94431 7.78033 4.26841 7.6755 4.6496C7.63108 4.8098 7.61331 4.97185 7.64352 5.13759C7.69149 5.40092 7.88871 5.54455 8.14633 5.50588C8.32045 5.47826 8.47325 5.4046 8.61539 5.30148C8.97607 5.04183 9.23903 4.69747 9.41492 4.28314C9.48955 4.10636 9.54107 3.92037 9.54285 3.72518V3.72334Z" fill="#410EAD"/>
<path d="M4.10613 14.956C4.10436 14.9283 4.1008 14.9044 4.1008 14.8805C4.08659 14.4772 4.09014 14.0757 4.12035 13.6743C4.15233 13.2489 4.20919 12.8272 4.29802 12.4111C4.42062 11.8384 4.59474 11.2841 4.85236 10.7611C5.02826 10.4057 5.23792 10.0724 5.50976 9.78696C5.7052 9.58072 5.92374 9.40946 6.18314 9.29897C6.63798 9.10561 7.07684 9.14981 7.49792 9.40578C7.76799 9.56782 7.98475 9.79248 8.17308 10.0466C8.43604 10.402 8.6297 10.7961 8.78428 11.2123C8.95307 11.6634 9.06856 12.1293 9.14851 12.6063C9.20181 12.9248 9.23735 13.2434 9.25867 13.5657C9.25867 13.5749 9.26045 13.5822 9.264 13.6006C9.5927 13.422 9.90362 13.2213 10.2092 13.0022C10.1986 12.9745 10.1897 12.9488 10.1808 12.923C9.98358 12.4184 9.81479 11.9065 9.69397 11.3761C9.5998 10.96 9.53762 10.5401 9.50741 10.1147C9.47543 9.64332 9.48787 9.17191 9.53939 8.70233C9.62112 7.97311 9.79347 7.26599 10.0298 6.57359C10.2981 5.79097 10.641 5.04333 11.0319 4.31779C11.4281 3.5812 11.8669 2.87408 12.336 2.18721C12.3484 2.16879 12.3609 2.14854 12.3768 2.12644C12.3502 2.10618 12.3289 2.08593 12.3058 2.06751C11.8616 1.71763 11.3677 1.47272 10.8364 1.3033C10.4722 1.18729 10.1008 1.11179 9.7224 1.06575C9.24445 1.00682 8.76474 1.0013 8.28324 1.03261C8.09313 1.0455 7.9048 1.06943 7.71646 1.08785C7.7058 1.08785 7.69692 1.08785 7.67915 1.08785C7.69336 1.06759 7.70225 1.05286 7.71469 1.03813C7.99541 0.70114 8.28502 0.371517 8.58706 0.0529423C8.61371 0.0253203 8.64037 0.0105884 8.67945 0.00874697C8.94952 -0.00230186 9.2178 -0.00414329 9.48787 0.0105885C9.79524 0.0290032 10.0991 0.0676741 10.3993 0.132126C11.3677 0.336529 12.2418 0.749018 13.0023 1.41011C13.5975 1.92756 14.063 2.55366 14.4005 3.2792C14.6564 3.82612 14.8234 4.4025 14.9158 5.00282C14.9957 5.5258 15.0188 6.05246 14.9851 6.5828C14.9247 7.53116 14.7026 8.439 14.3419 9.31186C13.9333 10.3026 13.3771 11.1938 12.6878 11.9967C11.9433 12.8622 11.0834 13.5804 10.1044 14.1402C9.35106 14.5711 8.55508 14.8878 7.71291 15.0775C7.29005 15.1733 6.86185 15.234 6.43011 15.2561C6.16004 15.2709 5.89175 15.269 5.62169 15.2506C5.12243 15.2175 4.63205 15.1272 4.15233 14.9762C4.13812 14.9725 4.12568 14.9652 4.10613 14.9578V14.956Z" fill="#410EAD"/>
</svg>
