<svg width="19" height="15" viewBox="0 0 19 15" fill="none" xmlns="http://www.w3.org/2000/svg">
<path d="M0 7.45615C0.0396224 7.2059 0.0896718 6.95782 0.206454 6.72933C0.42542 6.29846 0.77368 6.01774 1.18659 5.81318C1.62452 5.59557 2.08956 5.47153 2.56712 5.40842C2.95083 5.35837 3.33871 5.32355 3.72242 5.28221C3.75996 5.27786 3.7975 5.28221 3.83086 5.28221C3.79333 5.44542 3.74953 5.60645 3.72034 5.76966C3.64526 6.20271 3.7683 6.59223 3.97684 6.96C4.28965 7.51273 4.7255 7.94578 5.20514 8.33748C6.05598 9.03166 7.009 9.53435 8.01416 9.9304C8.60224 10.1611 9.20492 10.3439 9.82011 10.481C10.3748 10.605 10.9337 10.7073 11.4988 10.729C12.0244 10.7486 12.552 10.7769 13.0733 10.7443C13.8407 10.6942 14.5831 10.5201 15.2359 10.0631C15.6529 9.77154 15.9491 9.38855 16.0575 8.86192C16.1222 8.54856 16.07 8.24173 16.0137 7.93707C15.9845 7.78039 15.9532 7.62371 15.9157 7.42786C16.2285 7.60195 16.5226 7.75428 16.802 7.92837C17.4318 8.3179 17.9802 8.80535 18.4077 9.43207C18.706 9.86947 18.9187 10.346 18.9833 10.8857C18.9875 10.914 18.9958 10.9401 19 10.9684V11.4428C18.9937 11.4776 18.9833 11.5124 18.9812 11.5473C18.9541 11.8389 18.8916 12.1196 18.7894 12.3916C18.4453 13.3034 17.7988 13.9018 16.9667 14.3109C16.1514 14.7113 15.2797 14.8811 14.3892 14.9572C13.4132 15.0399 12.4394 14.9986 11.4676 14.8745C10.7273 14.7788 9.99737 14.6373 9.27374 14.4546C8.29777 14.2065 7.34058 13.8866 6.40632 13.4992C5.46373 13.1097 4.55241 12.6571 3.67863 12.1174C2.77148 11.556 1.91439 10.9271 1.18033 10.1284C0.782022 9.6932 0.42542 9.22316 0.210624 8.65955C0.116782 8.41365 0.0688179 8.14598 0 7.8892C0 7.74558 0 7.60195 0 7.45833V7.45615Z" fill="#410EAD"/>
<path d="M12.6393 8.6615C11.8281 8.63104 11.0273 8.54399 10.2348 8.37208C9.05868 8.11747 7.94091 7.69313 6.88571 7.10122C6.12662 6.6747 5.41133 6.18073 4.80449 5.53659C4.64391 5.36686 4.50627 5.17318 4.36655 4.98168C4.18721 4.73578 4.15801 4.47029 4.26228 4.17217C4.56467 3.30389 4.85036 2.43127 5.14441 1.56082C5.25076 1.24311 5.37797 0.934099 5.57608 0.662083C5.89932 0.222507 6.37479 0.078883 6.87111 0.274734C7.16306 0.390068 7.43834 0.542397 7.7282 0.66426C8.02224 0.788298 8.33088 0.844877 8.62492 0.677316C8.79384 0.581567 8.93773 0.435767 9.08579 0.303024C9.24428 0.161576 9.3986 0.00489502 9.61757 0.000542775C9.79274 -0.00380947 9.97626 0.0179518 10.1473 0.0680026C11.4444 0.442295 12.6894 0.953684 13.8676 1.63263C14.17 1.80672 14.4536 2.00693 14.66 2.30505C14.8373 2.55966 14.9061 2.86214 14.9729 3.16245C15.1439 3.92626 15.3128 4.68791 15.4796 5.45173C15.563 5.83472 15.6652 6.21554 15.7173 6.60507C15.8112 7.31231 15.5192 7.85851 14.8999 8.20452C14.5245 8.41343 14.1178 8.52005 13.7008 8.57228C13.3504 8.6158 12.9959 8.63321 12.6435 8.6615H12.6393Z" fill="#410EAD"/>
</svg>
