<svg width="23" height="15" viewBox="0 0 23 15" fill="none" xmlns="http://www.w3.org/2000/svg">
<path d="M0 8.55517C0.0494197 8.35407 0.0898541 8.14879 0.152752 7.94769C0.422314 7.09305 0.956945 6.41435 1.74766 5.91581C1.79708 5.88648 1.8465 5.85297 1.9094 5.81526C1.42868 4.68411 1.4152 3.55715 1.95433 2.44275C2.3407 1.63419 2.9562 1.00577 3.77836 0.565875C4.74878 0.0421927 5.79109 -0.117006 6.8963 0.0840882C7.99252 0.280993 8.86859 0.813053 9.52902 1.57134C10.0052 1.29484 10.4321 0.976442 10.9173 0.779538C12.7503 0.0338147 14.8439 0.658043 15.9176 2.25004C16.0255 2.40924 16.1018 2.40924 16.2681 2.34639C19.1434 1.28646 22.4006 3.00414 22.9218 5.84459C23.3845 8.36664 21.7537 10.6792 19.1119 11.2532C18.492 11.3872 17.8675 11.3998 17.2385 11.2993C17.1172 11.2783 17.0543 11.2951 16.9824 11.3956C15.9446 12.8787 14.1565 13.3898 12.4133 12.7069C12.3909 12.6985 12.3729 12.6943 12.3325 12.6818C11.5238 14.1732 10.2523 15.0404 8.41932 14.9985C6.59528 14.9567 5.36428 14.0475 4.64096 12.5435C4.22763 12.5435 3.8143 12.577 3.40996 12.5393C1.68476 12.3718 0.292025 11.094 0.0494191 9.48941C0.0404337 9.44333 0.0224637 9.39725 0.00898561 9.35116C0.00898561 9.08723 0.00898561 8.8191 0.00898561 8.55517H0ZM6.465 6.74532C6.16399 6.78303 5.87645 6.78303 5.61138 6.85425C5.30588 6.93804 5.15762 7.20616 5.19356 7.49523C5.2295 7.7885 5.40921 7.9854 5.74616 8.00216C6.0921 8.01892 6.44253 7.97283 6.78847 7.93932C6.83789 7.93513 6.90977 7.83877 6.90977 7.78431C6.91876 7.42401 6.92325 7.05953 6.90977 6.69924C6.90079 6.46044 6.8334 6.23002 6.57282 6.12528C6.14152 5.94933 5.71921 6.01636 5.28791 6.20488C5.33733 6.318 5.37327 6.41017 5.41371 6.49814C6.15949 6.25097 6.49195 6.34313 6.465 6.73694V6.74532ZM12.9345 6.42692C13.264 6.39899 13.4377 6.28588 13.4556 6.08758C13.3119 6.0792 13.1681 6.07501 13.0243 6.06663C13.0468 5.66025 13.1591 5.58065 13.6488 5.58484C13.6848 5.49686 13.7207 5.40051 13.7611 5.29158C13.4961 5.22036 13.2625 5.21198 13.0333 5.30834C12.6919 5.45497 12.638 5.77337 12.5526 6.06663C12.4403 6.07501 12.337 6.0792 12.2201 6.08758C12.2022 6.19231 12.1842 6.29286 12.1662 6.3976C12.2875 6.41017 12.3819 6.41854 12.4987 6.42692C12.3864 6.9925 12.2875 7.5497 12.1662 8.10271C12.0764 8.51327 11.9775 8.57611 11.5238 8.53841C11.4923 8.63058 11.4564 8.72274 11.4204 8.8191C11.8877 9.00763 12.3145 8.85262 12.4852 8.43786C12.5436 8.3038 12.5796 8.15717 12.611 8.01473C12.7188 7.48685 12.8177 6.95898 12.9165 6.42692H12.9345ZM20.4867 7.62092C19.6151 7.78012 19.2917 7.64605 19.3141 7.13494H20.6395C20.7698 6.4353 20.3564 5.98284 19.6735 6.04149C19.2288 6.0792 18.9233 6.37665 18.8424 6.84587C18.766 7.29833 18.9277 7.7089 19.2602 7.90161C19.6196 8.1069 20.2801 8.09852 20.5856 7.88066C20.5541 7.80106 20.5227 7.71728 20.4867 7.62511V7.62092ZM9.95582 7.13913C10.0636 6.67829 9.88394 6.26772 9.52453 6.11271C9.13366 5.94095 8.617 6.05406 8.36541 6.35989C8.05991 6.73694 8.08237 7.44077 8.41034 7.76755C8.72482 8.08176 9.46612 8.1446 9.9109 7.88904C9.87945 7.80525 9.848 7.71728 9.82104 7.6293C8.8641 7.72984 8.58106 7.61254 8.65294 7.13913H9.95582ZM15.419 6.92966C15.419 6.63639 15.2976 6.28029 14.8574 6.10434C14.3497 5.89905 13.7746 6.1169 13.5859 6.57355C13.3478 7.15589 13.5859 7.81363 14.0981 7.98959C14.1206 7.99797 14.1385 8.00216 14.161 8.00635C14.8708 8.19068 15.4145 7.77174 15.419 6.92966ZM4.89255 6.23002C4.59154 6.04149 4.19169 5.97865 3.88619 6.06244C3.59865 6.14204 3.42793 6.33057 3.41445 6.58193C3.40097 6.84168 3.51778 7.00926 3.8143 7.12237C3.96705 7.18103 4.12879 7.21454 4.28154 7.269C4.40734 7.31509 4.55111 7.36536 4.51516 7.52875C4.47922 7.68795 4.33995 7.74241 4.19169 7.71728C3.94908 7.67957 3.71097 7.61254 3.45938 7.55389C3.30663 7.81363 3.31112 7.87647 3.63909 7.95607C3.89966 8.01892 4.1827 8.03567 4.45227 8.01054C4.74878 7.98121 4.91951 7.77174 4.94646 7.51618C4.97342 7.25644 4.8611 7.08467 4.56908 6.96317C4.42082 6.90033 4.25908 6.85844 4.10633 6.80397C3.97604 6.7537 3.80532 6.716 3.84126 6.54423C3.88169 6.3557 4.0614 6.35151 4.21865 6.37246C4.40734 6.40179 4.59154 6.44787 4.78922 6.49395C4.82516 6.41017 4.85661 6.32638 4.89255 6.23421V6.23002ZM10.2479 7.80944C10.6073 8.03148 10.9757 8.10271 11.3755 8.01054C11.6631 7.94351 11.8248 7.76336 11.8517 7.49523C11.8787 7.25644 11.7574 7.07629 11.4744 6.95898C11.3036 6.88776 11.1239 6.84168 10.9532 6.77465C10.8319 6.72856 10.6836 6.66153 10.7555 6.52328C10.796 6.44368 10.9487 6.36408 11.052 6.36827C11.2632 6.37665 11.4699 6.4353 11.681 6.4772C11.8338 6.20907 11.8293 6.16718 11.5193 6.09596C11.3126 6.04987 11.0925 6.02893 10.8768 6.04568C10.5668 6.06663 10.3557 6.2761 10.3197 6.53585C10.2793 6.82073 10.4051 7.00507 10.7331 7.12237C10.8768 7.17684 11.0341 7.21035 11.1778 7.26062C11.3036 7.30671 11.4429 7.35279 11.4115 7.52037C11.38 7.68376 11.2362 7.73403 11.088 7.71309C10.8454 7.67538 10.6073 7.60835 10.3422 7.54551C10.3197 7.60835 10.2838 7.69633 10.2389 7.80525L10.2479 7.80944ZM18.7031 7.91418C18.6672 7.82201 18.6267 7.72984 18.5908 7.63349C18.2494 7.69633 17.9034 7.78012 17.6698 7.47848C17.4721 7.22292 17.4856 6.91709 17.6339 6.64059C17.8405 6.25097 18.2224 6.37665 18.5818 6.41017C18.6178 6.31381 18.6537 6.22164 18.6896 6.12947C18.146 5.91581 17.5754 6.02055 17.3014 6.37665C17.0049 6.7537 17.0273 7.40307 17.3463 7.7466C17.6249 8.04824 18.2449 8.12784 18.7121 7.90999L18.7031 7.91418ZM7.36803 5.2832V7.98959H7.76339V5.27482C7.67803 5.27482 7.61063 5.27482 7.54324 5.27482C7.48933 5.27482 7.43991 5.27901 7.36803 5.2832ZM15.7829 7.97283C16.2052 8.03567 16.2052 8.03568 16.2097 7.68376C16.2097 7.40307 16.2097 7.12656 16.2231 6.84587C16.2411 6.54842 16.4163 6.40598 16.7308 6.40598C16.7802 6.40598 16.8342 6.40598 16.8926 6.40598C16.9285 6.30124 16.9644 6.20488 17.0004 6.10014C16.7039 5.9996 16.4523 6.04149 16.2142 6.21326C16.1288 5.94933 15.9401 6.10433 15.7784 6.0792V7.96864L15.7829 7.97283Z" fill="#410EAD"/>
<path d="M20.2214 6.74502H19.3184C19.3363 6.44338 19.4936 6.28837 19.7766 6.28418C20.0507 6.28418 20.2034 6.43081 20.2214 6.74502Z" fill="#410EAD"/>
<path d="M6.47848 7.71297C6.2763 7.71297 6.10109 7.72554 5.92587 7.71297C5.75964 7.69621 5.62935 7.6208 5.61588 7.44065C5.60689 7.26888 5.69225 7.15158 5.86747 7.12225C6.02471 7.09712 6.19094 7.09293 6.35268 7.1055C6.39761 7.1055 6.465 7.18929 6.46949 7.23537C6.48746 7.37362 6.47398 7.51187 6.47398 7.71297H6.47848Z" fill="#410EAD"/>
<path d="M9.55586 6.83747C9.31775 6.83747 9.09312 6.83747 8.87297 6.83747C8.80109 6.83747 8.72472 6.83747 8.65283 6.83747C8.65283 6.55678 8.81008 6.38501 9.07065 6.37244C9.36717 6.35569 9.51992 6.49394 9.56036 6.83747H9.55586Z" fill="#410EAD"/>
<path d="M13.9277 6.94625C13.9502 6.82894 13.9637 6.69488 14.0041 6.56919C14.0715 6.37648 14.2243 6.28012 14.4444 6.28431C14.669 6.28431 14.8442 6.38067 14.8802 6.57757C14.9206 6.81218 14.9251 7.06355 14.8892 7.29816C14.8487 7.53277 14.678 7.62913 14.4399 7.62494C14.2018 7.62494 14.0625 7.52439 13.9906 7.28978C13.9592 7.18504 13.9502 7.07193 13.9277 6.94625Z" fill="#410EAD"/>
</svg>
