<svg width="21" height="12" viewBox="0 0 21 12" fill="none" xmlns="http://www.w3.org/2000/svg">
<path d="M0 0C0.0334768 0 0.0703017 0.00764105 0.103779 0.00764105C7.04017 0.00764105 13.9799 0.00764105 20.9163 0.00764105C20.9431 0.00764105 20.9665 0.00764105 21 0.00764105C20.9264 0.0993316 20.8627 0.183382 20.7958 0.263611C20.6184 0.473735 20.4409 0.676218 20.2635 0.886342C20.056 1.13085 19.8484 1.37918 19.6408 1.62751C19.4433 1.86055 19.2492 2.09742 19.0517 2.33047C18.8474 2.57498 18.6399 2.81948 18.4357 3.06399C18.2348 3.30086 18.0373 3.53773 17.8364 3.77841C17.6356 4.0191 17.4314 4.25979 17.2305 4.50048C17.0296 4.74117 16.8288 4.97803 16.6279 5.21872C16.4271 5.45941 16.2229 5.7001 16.022 5.94078C15.8211 6.17765 15.6236 6.41452 15.4228 6.65521C15.2186 6.89971 15.0143 7.1404 14.8101 7.38491C14.6126 7.62178 14.4151 7.85482 14.2176 8.09169C14.0134 8.3362 13.8092 8.57689 13.605 8.82139C13.4041 9.05826 13.2066 9.29513 13.0057 9.53582C12.8015 9.78032 12.5973 10.021 12.3931 10.2655C12.1956 10.5024 11.9981 10.7354 11.8006 10.9723C11.5964 11.2168 11.3888 11.4613 11.1846 11.7058C11.1243 11.7784 11.0641 11.851 11.0072 11.9236C10.967 11.9733 10.9235 11.9924 10.8632 11.9924C10.4883 11.9924 10.11 11.9924 9.73506 11.9924C6.52463 11.9924 3.31086 11.9924 0.100431 11.9924C0.066954 11.9924 0.0368246 11.9962 0.00334776 12C0.00334776 8 0.00334776 4.00382 0.00334776 0.00382126L0 0ZM4.80727 8.99713C4.8374 8.99713 4.85414 9.00478 4.87087 9.00478C5.34959 9.00478 5.82497 9.00478 6.30368 9.00478C6.3539 9.00478 6.36729 8.97803 6.37733 8.93219C6.45098 8.68004 6.52463 8.43171 6.59493 8.17956C6.60832 8.12989 6.62506 8.11079 6.67193 8.13372C7.05356 8.30564 7.44524 8.38586 7.85701 8.34384C8.12817 8.3171 8.39264 8.25215 8.64371 8.13372C8.69393 8.11079 8.71066 8.12225 8.7274 8.17956C8.7977 8.42789 8.87135 8.67622 8.94165 8.92455C8.95839 8.98185 8.97848 9.00096 9.03204 9.00096C9.79197 9.00096 10.5519 9.00096 11.3118 9.00096C11.3754 9.00096 11.3922 8.97803 11.3922 8.90926C11.3922 8.46609 11.3922 8.02292 11.3922 7.58357C11.3922 7.52245 11.4089 7.49952 11.4625 7.50334C11.5763 7.50716 11.6901 7.50716 11.8039 7.50334C11.9981 7.4957 12.1956 7.50334 12.3864 7.46896C12.902 7.37345 13.3204 7.07545 13.6318 6.59408C13.9665 6.0745 14.0837 5.48615 13.99 4.85196C13.913 4.32092 13.6887 3.87393 13.3271 3.52245C12.9689 3.17479 12.5505 2.9914 12.0784 2.98758C11.5093 2.98758 10.9402 2.98758 10.3711 2.98758C10.2841 2.98758 10.2004 2.98758 10.1133 2.98758C10.0698 2.98758 10.0531 3.00287 10.0564 3.05253C10.0564 3.07927 10.0564 3.10602 10.0564 3.13658C10.0564 4.61891 10.0564 6.10124 10.0564 7.58357V7.67526C9.96939 7.42693 9.8857 7.19389 9.80536 6.96466C9.35007 5.66189 8.89144 4.35912 8.43616 3.05635C8.41942 3.01051 8.39933 2.9914 8.35246 2.9914C7.87374 2.9914 7.39837 2.9914 6.91966 2.9914C6.87614 2.9914 6.8527 3.00669 6.83931 3.05635C6.75897 3.30086 6.67527 3.54537 6.59158 3.78988C6.30033 4.63801 6.00909 5.48233 5.71784 6.33047C5.68436 6.42598 5.65423 6.52149 5.62076 6.617C5.58728 6.70869 5.5538 6.80038 5.52033 6.90353C5.45672 6.6361 5.33955 6.41452 5.17551 6.23114C4.91774 5.94842 4.60306 5.78033 4.26495 5.66571C3.91679 5.54728 3.56863 5.44031 3.22716 5.30659C3.06982 5.24546 2.92253 5.14995 2.77858 5.05062C2.58776 4.91691 2.57437 4.5234 2.8087 4.38969C2.92587 4.32474 3.04974 4.28271 3.17695 4.27507C3.35103 4.26361 3.52511 4.25979 3.69919 4.27507C3.91679 4.29417 4.13773 4.33238 4.35198 4.3744C4.50933 4.40497 4.65997 4.45845 4.81731 4.5043C4.82401 4.49284 4.8307 4.47755 4.8374 4.46227C4.95792 4.11079 5.07843 3.75549 5.2023 3.40401C5.21569 3.36199 5.20899 3.33142 5.16882 3.31614C5.06504 3.27412 4.96461 3.22827 4.86083 3.19389C4.45242 3.06017 4.03396 3.01815 3.61215 3.00287C3.3142 2.9914 3.01291 2.97994 2.71497 3.04489C2.34672 3.1213 2.00861 3.2703 1.73745 3.57593C1.35916 4 1.22525 4.51194 1.33907 5.10029C1.47298 5.78415 1.86801 6.20439 2.43711 6.4107C2.7451 6.52531 3.05978 6.60172 3.37111 6.70105C3.54185 6.75454 3.71258 6.81566 3.84983 6.9532C3.96365 7.06399 4.044 7.30468 3.87661 7.44222C3.83979 7.47278 3.79627 7.50334 3.75275 7.52245C3.54185 7.62942 3.3142 7.64852 3.08656 7.65234C2.92922 7.65616 2.76853 7.63324 2.61119 7.61032C2.29651 7.56065 1.99187 7.4575 1.71401 7.27412C1.66715 7.24355 1.64371 7.25119 1.63032 7.31232C1.5868 7.48806 1.53659 7.65998 1.48972 7.8319C1.42946 8.04967 1.3759 8.27125 1.31229 8.48902C1.29555 8.54632 1.31229 8.57689 1.35246 8.59599C1.45959 8.65329 1.56337 8.71824 1.67384 8.76027C2.07891 8.92455 2.50072 8.98185 2.92587 9.00096C3.22047 9.01624 3.51506 9.01624 3.80966 8.95893C4.13104 8.8978 4.44572 8.79847 4.73027 8.61127C4.82066 8.55396 4.9077 8.48902 4.99474 8.42789C4.93113 8.61509 4.86753 8.80229 4.80057 8.99713H4.80727Z" fill="#410EAD"/>
<path d="M11.3955 5.24939C11.3955 5.0278 11.3955 4.80621 11.3955 4.58463C11.3955 4.52732 11.4122 4.5044 11.4625 4.50822C11.6533 4.50822 11.8474 4.50822 12.0416 4.50822C12.2994 4.50822 12.5505 4.7107 12.6442 4.98195C12.7413 5.26085 12.681 5.56648 12.4869 5.7766C12.3596 5.91796 12.2023 5.98673 12.0249 5.99055C11.8407 5.99055 11.6566 5.99055 11.4725 5.99055C11.4089 5.99055 11.3955 5.96763 11.3955 5.89886C11.3955 5.6811 11.3955 5.46333 11.3955 5.24556V5.24939Z" fill="#410EAD"/>
<path d="M7.66286 4.73429C7.7499 5.02464 7.83694 5.30353 7.92063 5.58243C8.04114 5.97975 8.16166 6.37708 8.28553 6.7744C8.30561 6.83171 8.29222 6.86991 8.2487 6.8852C8.12484 6.93486 8.00097 6.99217 7.87041 7.01891C7.66955 7.06094 7.46534 7.04566 7.26783 6.97689C7.19418 6.95396 7.12723 6.90812 7.05693 6.87374C7.0201 6.85463 7.01675 6.82407 7.03015 6.78204C7.14062 6.4191 7.25444 6.05234 7.36491 5.6894C7.45865 5.37994 7.55573 5.07049 7.64947 4.75721C7.64947 4.74957 7.65616 4.74575 7.65951 4.73047L7.66286 4.73429Z" fill="#410EAD"/>
</svg>
