<svg width="15" height="15" viewBox="0 0 15 15" fill="none" xmlns="http://www.w3.org/2000/svg">
<path d="M7.48868 14.9996C3.19958 15.0448 -0.0746816 11.2552 0.0012957 7.46199C0.0845089 3.29413 3.44198 -0.0412389 7.61169 0.000385388C11.7289 0.0420097 15.043 3.48596 14.9996 7.68097C14.958 11.6859 11.5173 15.0394 7.49049 14.9996H7.48868ZM12.9391 4.45237C12.8577 4.26959 12.8324 4.18634 12.7872 4.11395C10.9294 1.12605 6.79222 0.270038 3.94488 2.33858C1.72345 3.95288 0.800866 6.13725 1.34899 8.87721C1.4919 9.59206 1.49371 9.5993 2.21549 9.5993C4.22165 9.5993 6.22782 9.59206 8.23579 9.58302C8.69527 9.58121 8.89607 9.37489 8.89426 8.94598C8.89245 8.49716 8.72602 8.34153 8.22855 8.33067C7.86314 8.32343 7.49591 8.33248 7.1305 8.32343C6.2043 8.2999 5.44091 7.75879 5.19489 6.95707C4.80596 5.69386 5.72492 4.44151 7.07804 4.43065C8.71879 4.41799 10.3595 4.44151 12.0003 4.44875C12.2861 4.44875 12.5719 4.44875 12.9428 4.44875L12.9391 4.45237ZM2.1974 10.924C2.34031 11.1376 2.40182 11.2444 2.47599 11.3403C3.44379 12.5564 4.66666 13.3545 6.19706 13.6984C8.80019 14.2847 11.6928 13.065 13.0495 10.4807C13.7731 9.10343 13.9269 7.63029 13.6266 6.10467C13.5741 5.84045 13.4565 5.76263 13.1924 5.76263C11.1609 5.77349 9.12943 5.76987 7.09794 5.77168C6.66197 5.77168 6.43042 5.97437 6.41414 6.35261C6.39786 6.77428 6.63122 7.00593 7.10156 7.0186C7.47963 7.02946 7.85952 7.0186 8.2376 7.02765C9.35012 7.05479 10.2365 7.93976 10.2202 8.99847C10.2022 10.106 9.35736 10.9313 8.22313 10.9331C6.56971 10.9331 4.9163 10.9258 3.26289 10.9222C2.9427 10.9222 2.6207 10.9222 2.1974 10.9222V10.924Z" fill="#410EAD"/>
</svg>
