<svg width="15" height="15" viewBox="0 0 15 15" fill="none" xmlns="http://www.w3.org/2000/svg">
<path d="M15 2.98981V12.0117C14.9913 12.0484 14.9773 12.0851 14.9738 12.1218C14.7501 13.7835 13.3697 14.998 11.6957 14.998C8.89456 14.998 6.09347 14.9997 3.29063 14.998C1.47333 14.9962 0.00376514 13.5284 0.00201773 11.7111C-0.00147708 8.90478 0.000270325 6.09845 0.00201773 3.29211C0.00201773 1.79459 0.999786 0.499758 2.44664 0.113581C2.62487 0.0664014 2.80835 0.0384429 2.98833 0C5.99562 0 9.0029 0 12.0102 0C12.0434 0.00873703 12.0748 0.0209689 12.108 0.0262111C13.4518 0.234152 14.3604 0.978547 14.8253 2.25415C14.9109 2.48831 14.9423 2.74343 14.9983 2.98806L15 2.98981ZM11.8285 5.61966H12.5309V2.36074H11.7918V3.535C11.3427 3.0003 10.6158 3.21872 10.3449 3.61189C10.0321 4.06447 10.0234 4.85255 10.3362 5.30338C10.6769 5.79614 11.4755 5.84158 11.783 5.37327C11.7883 5.36453 11.8057 5.36279 11.8285 5.3523V5.61966ZM7.59624 3.28687C7.59624 3.49481 7.59449 3.69052 7.59624 3.88448C7.60148 4.26542 7.58925 4.64635 7.62071 5.02554C7.65216 5.4187 7.94223 5.66334 8.3319 5.6913C8.64993 5.71402 8.91553 5.61966 9.13046 5.32959C9.13571 5.45365 9.1392 5.53578 9.14444 5.61791H9.83816V3.29211H9.106C9.106 3.66256 9.106 4.02253 9.106 4.38424C9.106 4.49083 9.1095 4.60092 9.09202 4.70576C9.05183 4.94865 8.87534 5.0867 8.65342 5.06398C8.44024 5.04127 8.34588 4.9172 8.34588 4.64635C8.34588 4.2462 8.34588 3.84604 8.34588 3.44588C8.34588 3.39521 8.34588 3.34279 8.34588 3.28862H7.59799L7.59624 3.28687ZM7.36384 4.45588C7.36209 3.72547 6.8501 3.22222 6.11269 3.22222C5.37354 3.22222 4.85806 3.7377 4.86155 4.47336C4.86505 5.19329 5.39102 5.70528 6.12143 5.70178C6.85534 5.69829 7.36558 5.1863 7.36209 4.45763L7.36384 4.45588ZM3.56498 4.11514C3.57721 3.79362 3.33083 3.44938 2.98484 3.31658C2.1356 2.99156 1.19025 3.49306 1.25491 4.55549C1.28287 5.0203 1.49081 5.38376 1.92242 5.57772C2.36801 5.77692 2.81884 5.76294 3.22948 5.47462C3.47236 5.30338 3.59294 5.05699 3.60342 4.74071C3.38499 4.74071 3.18055 4.73547 2.97785 4.74421C2.9429 4.74421 2.89223 4.79663 2.87825 4.83507C2.80486 5.03777 2.7105 5.12514 2.52877 5.13562C2.31908 5.1496 2.16181 5.06398 2.08492 4.87177C1.97484 4.59393 1.97659 4.30735 2.08842 4.03126C2.15832 3.85652 2.29986 3.76915 2.49207 3.77265C2.67205 3.7744 2.77865 3.86876 2.84679 4.02952C2.86077 4.06272 2.89922 4.1099 2.92892 4.11165C3.14211 4.11864 3.35529 4.11514 3.56847 4.11514H3.56498ZM4.5942 5.62315V2.359H3.85679V5.6214H4.5942V5.62315Z" fill="#410EAD"/>
<path d="M10.8391 4.42414C10.8793 4.28959 10.8986 4.12883 10.9702 3.99603C11.131 3.69547 11.5486 3.69722 11.7076 3.99778C11.8579 4.28086 11.8596 4.57966 11.7146 4.86798C11.6307 5.03573 11.4822 5.11087 11.2935 5.10039C11.11 5.0899 10.9912 4.98681 10.9318 4.82605C10.8863 4.70547 10.8724 4.57267 10.8374 4.42065L10.8391 4.42414Z" fill="#410EAD"/>
<path d="M5.59375 4.4611C5.63569 4.30209 5.66015 4.14133 5.71782 3.99629C5.78247 3.83553 5.91877 3.75166 6.09875 3.74816C6.28398 3.74467 6.42552 3.82155 6.5024 3.98581C6.65093 4.29859 6.65268 4.61837 6.5024 4.93115C6.42377 5.09541 6.28048 5.1688 6.097 5.16531C5.91702 5.16181 5.78247 5.07794 5.71607 4.91718C5.6584 4.77564 5.63394 4.62012 5.59375 4.46285V4.4611Z" fill="#410EAD"/>
</svg>
