<svg width="16" height="15" viewBox="0 0 16 15" fill="none" xmlns="http://www.w3.org/2000/svg">
<path d="M0.00246122 14.1527V5.66823C0.228888 5.02145 0.708814 4.76131 1.39302 4.78518C1.77696 4.7995 2.1609 4.78756 2.56207 4.78756C2.56207 3.57039 2.56207 2.41049 2.56207 1.25298C2.56207 0.429592 3.00261 0 3.85171 0C6.61067 0 9.3721 0 12.1311 0C13.0023 0 13.4379 0.424819 13.4404 1.26968C13.4404 1.642 13.4404 2.0167 13.4404 2.4081C13.876 2.4081 14.255 2.42719 14.6316 2.40333C15.3084 2.36276 15.7662 2.63244 16 3.25297V11.7374C15.7465 12.3818 15.2592 12.6133 14.5578 12.5918C13.4699 12.5584 12.3821 12.5823 11.2918 12.5823C11.1663 12.5823 11.0408 12.5823 10.8832 12.5823C10.8832 12.9832 10.8832 13.3364 10.8832 13.6897C10.8832 14.5799 10.4599 14.9904 9.53946 14.9904C6.84202 14.9904 4.14459 14.9761 1.44716 14.9999C0.750654 15.0047 0.258422 14.7923 0 14.1503L0.00246122 14.1527ZM2.56207 5.39615C2.14121 5.39615 1.75235 5.39615 1.36594 5.39615C0.797416 5.39615 0.647285 5.54174 0.647285 6.0835C0.647285 8.60139 0.647285 11.1169 0.647285 13.6348C0.647285 14.2839 0.765421 14.3985 1.43239 14.3985C4.11014 14.3985 6.78788 14.3985 9.46562 14.3985C9.58376 14.3985 9.7265 14.4271 9.8151 14.3722C9.97262 14.2768 10.2015 14.1407 10.2163 14.0023C10.2655 13.5417 10.236 13.0739 10.236 12.5847C10.0588 12.5847 9.93078 12.5847 9.8028 12.5847C8.66574 12.5847 7.52869 12.5894 6.39163 12.5847C5.56222 12.5799 5.12413 12.1479 5.12167 11.3484C5.12167 10.9737 5.12167 10.599 5.12167 10.2052C4.62944 10.2052 4.19135 10.2195 3.75573 10.2028C3.02477 10.1718 2.57437 9.71117 2.56945 9.00711C2.56453 8.55843 2.56945 8.10974 2.56945 7.66344C2.56945 6.91882 2.56945 6.17658 2.56945 5.39854L2.56207 5.39615ZM12.7956 2.4081C12.7956 1.97612 12.798 1.58949 12.7956 1.20047C12.7906 0.768493 12.6208 0.596656 12.168 0.596656C9.39671 0.591882 6.62544 0.594269 3.85171 0.596656C3.37671 0.596656 3.20935 0.766106 3.20935 1.22195C3.20935 2.31264 3.20935 3.40571 3.20935 4.4964C3.20935 4.5847 3.22412 4.67301 3.2315 4.76609H5.11675C5.11675 4.41525 5.14382 4.08112 5.11183 3.75416C5.03061 2.90929 5.59175 2.38185 6.51715 2.39856C8.45901 2.43435 10.4009 2.4081 12.3452 2.4081C12.483 2.4081 12.6233 2.4081 12.7956 2.4081ZM13.4404 2.98805V3.39616C13.4404 5.22193 13.4404 7.05008 13.4404 8.87585C13.4404 9.77322 12.9974 10.2004 12.0671 10.2052C11.6807 10.2052 11.2967 10.2052 10.9054 10.2052V11.9928C12.2369 11.9928 13.5487 12.0047 14.8605 11.9856C15.1854 11.9808 15.3576 11.7637 15.3552 11.4295C15.3527 8.79948 15.3552 6.16703 15.3527 3.53697C15.3527 3.18853 15.1657 3.00237 14.8113 2.99282C14.3732 2.98089 13.9375 2.99044 13.4404 2.99044V2.98805ZM5.7665 4.78995C5.92647 4.78995 6.05445 4.78995 6.17997 4.78995C7.31703 4.78995 8.45408 4.78279 9.59114 4.78995C10.4402 4.79711 10.8857 5.23625 10.8857 6.0477C10.8857 7.10497 10.8857 8.16225 10.8857 9.21952C10.8857 9.33885 10.8857 9.46057 10.8857 9.57036C10.9669 9.58706 10.9891 9.59422 11.0137 9.59422C11.3681 9.59422 11.725 9.59661 12.0794 9.59661C12.6331 9.59661 12.7956 9.43909 12.7956 8.89733C12.7956 7.0477 12.7956 5.19568 12.7956 3.34604C12.7956 3.23626 12.7833 3.12409 12.7759 2.98566C11.816 2.98566 10.8808 2.98566 9.94801 2.98566C8.76419 2.98566 7.57791 2.98566 6.39409 2.98566C6.0766 2.98566 5.80095 3.08352 5.77388 3.41764C5.73696 3.85917 5.76404 4.30785 5.76404 4.78756L5.7665 4.78995ZM10.2433 9.58229C10.2433 8.38182 10.2433 7.22192 10.2433 6.05963C10.2433 5.56083 10.076 5.39854 9.56653 5.39615C8.40486 5.39615 7.24319 5.39615 6.08399 5.39615C5.98308 5.39615 5.87971 5.41047 5.78619 5.41525V9.5799H10.2433V9.58229ZM5.09214 9.59661V5.42002H3.21181C3.21181 6.66822 3.20443 7.89256 3.21674 9.1169C3.2192 9.40329 3.42101 9.58229 3.72127 9.59184C4.1692 9.60615 4.61714 9.59661 5.08968 9.59661H5.09214ZM5.76404 10.2219C5.76404 10.5966 5.76404 10.9283 5.76404 11.2601C5.76404 11.84 5.92401 11.9999 6.51223 11.9999C7.63698 11.9999 8.76173 11.9999 9.88894 11.9999C10.0022 11.9999 10.1154 11.9904 10.2237 11.9856V10.2219H5.7665H5.76404Z" fill="#410EAD"/>
</svg>
